<svg width="1300" height="976" viewBox="0 0 1300 976" fill="none" xmlns="http://www.w3.org/2000/svg">
<path d="M123 258.95C117.78 258.95 113.91 260.12 111.39 262.46C108.93 264.74 107.7 267.92 107.7 272C107.7 274.7 108.36 276.8 109.68 278.3C111 279.8 112.44 280.55 114 280.55C115.44 280.55 116.7 280.13 117.78 279.29C118.92 278.45 119.88 277.52 120.66 276.5C121.56 275.36 122.34 274.01 123 272.45V258.95ZM116.25 239.6C114.45 239.6 112.95 240.23 111.75 241.49C110.55 242.69 109.95 244.31 109.95 246.35C109.95 246.83 109.95 247.25 109.95 247.61C110.01 247.97 110.07 248.3 110.13 248.6C110.19 248.9 110.28 249.2 110.4 249.5L103.2 251.3C103.08 251.12 102.99 250.88 102.93 250.58C102.87 250.28 102.81 249.95 102.75 249.59C102.75 249.23 102.75 248.75 102.75 248.15C102.75 246.89 103.05 245.69 103.65 244.55C104.25 243.35 105.12 242.3 106.26 241.4C107.46 240.44 108.87 239.69 110.49 239.15C112.17 238.55 114.09 238.25 116.25 238.25C120.57 238.25 123.96 239.48 126.42 241.94C128.94 244.4 130.2 247.67 130.2 251.75V278.75L135.6 280.1V281H123V275.6C122.34 276.86 121.5 278 120.48 279.02C119.64 279.86 118.56 280.61 117.24 281.27C115.98 281.99 114.45 282.35 112.65 282.35C108.33 282.35 105.06 281.33 102.84 279.29C100.68 277.25 99.6 274.52 99.6 271.1C99.6 269.42 100.05 267.74 100.95 266.06C101.91 264.38 103.32 262.88 105.18 261.56C107.1 260.24 109.53 259.19 112.47 258.41C115.41 257.57 118.92 257.15 123 257.15V251.75C123 247.25 122.31 244.1 120.93 242.3C119.61 240.5 118.05 239.6 116.25 239.6ZM163.936 239.6V241.4H153.586V270.11C153.586 273.77 154.246 276.44 155.566 278.12C156.886 279.74 158.326 280.55 159.886 280.55C161.926 280.55 163.636 279.8 165.016 278.3C166.456 276.74 167.296 274.49 167.536 271.55H168.886C168.646 274.97 167.596 277.64 165.736 279.56C163.936 281.42 161.686 282.35 158.986 282.35C155.146 282.35 152.086 281.24 149.806 279.02C147.526 276.74 146.386 273.8 146.386 270.2V241.4H138.736V239.6H146.386V229.25L153.586 224.3V239.6H163.936ZM185.578 278.75L190.978 280.1V281H172.978V280.1L178.378 278.75V241.85L172.978 240.5V239.6H185.578V250.4C186.358 248.18 187.288 246.17 188.368 244.37C189.328 242.81 190.498 241.4 191.878 240.14C193.258 238.88 194.908 238.25 196.828 238.25C197.488 238.25 198.118 238.31 198.718 238.43C199.318 238.49 199.858 238.58 200.338 238.7C200.878 238.88 201.358 239.03 201.778 239.15L199.078 245.9C198.718 245.72 198.328 245.51 197.908 245.27C197.548 245.09 197.098 244.94 196.558 244.82C196.078 244.64 195.568 244.55 195.028 244.55C193.468 244.55 192.088 244.97 190.888 245.81C189.688 246.65 188.698 247.58 187.918 248.6C186.958 249.8 186.178 251.15 185.578 252.65V278.75ZM229.26 258.95C224.04 258.95 220.17 260.12 217.65 262.46C215.19 264.74 213.96 267.92 213.96 272C213.96 274.7 214.62 276.8 215.94 278.3C217.26 279.8 218.7 280.55 220.26 280.55C221.7 280.55 222.96 280.13 224.04 279.29C225.18 278.45 226.14 277.52 226.92 276.5C227.82 275.36 228.6 274.01 229.26 272.45V258.95ZM222.51 239.6C220.71 239.6 219.21 240.23 218.01 241.49C216.81 242.69 216.21 244.31 216.21 246.35C216.21 246.83 216.21 247.25 216.21 247.61C216.27 247.97 216.33 248.3 216.39 248.6C216.45 248.9 216.54 249.2 216.66 249.5L209.46 251.3C209.34 251.12 209.25 250.88 209.19 250.58C209.13 250.28 209.07 249.95 209.01 249.59C209.01 249.23 209.01 248.75 209.01 248.15C209.01 246.89 209.31 245.69 209.91 244.55C210.51 243.35 211.38 242.3 212.52 241.4C213.72 240.44 215.13 239.69 216.75 239.15C218.43 238.55 220.35 238.25 222.51 238.25C226.83 238.25 230.22 239.48 232.68 241.94C235.2 244.4 236.46 247.67 236.46 251.75V278.75L241.86 280.1V281H229.26V275.6C228.6 276.86 227.76 278 226.74 279.02C225.9 279.86 224.82 280.61 223.5 281.27C222.24 281.99 220.71 282.35 218.91 282.35C214.59 282.35 211.32 281.33 209.1 279.29C206.94 277.25 205.86 274.52 205.86 271.1C205.86 269.42 206.31 267.74 207.21 266.06C208.17 264.38 209.58 262.88 211.44 261.56C213.36 260.24 215.79 259.19 218.73 258.41C221.67 257.57 225.18 257.15 229.26 257.15V251.75C229.26 247.25 228.57 244.1 227.19 242.3C225.87 240.5 224.31 239.6 222.51 239.6ZM246.838 241.85L241.438 240.5V239.6H259.438V240.5L254.488 241.85L265.828 271.1L275.188 242.75L269.338 240.5V239.6H282.838V240.5L276.988 242.75L263.938 282.35H262.588L246.838 241.85ZM292.72 260.3C292.72 264.14 292.99 267.35 293.53 269.93C294.13 272.51 294.88 274.61 295.78 276.23C296.74 277.79 297.79 278.9 298.93 279.56C300.13 280.22 301.36 280.55 302.62 280.55C304.18 280.55 305.65 280.25 307.03 279.65C308.41 279.05 309.64 278.24 310.72 277.22C311.8 276.2 312.67 274.97 313.33 273.53C314.05 272.09 314.53 270.53 314.77 268.85H316.12C315.88 270.77 315.34 272.57 314.5 274.25C313.72 275.87 312.7 277.28 311.44 278.48C310.18 279.68 308.71 280.61 307.03 281.27C305.41 281.99 303.64 282.35 301.72 282.35C299.44 282.35 297.28 281.87 295.24 280.91C293.2 279.89 291.37 278.45 289.75 276.59C288.19 274.67 286.93 272.36 285.97 269.66C285.07 266.9 284.62 263.78 284.62 260.3C284.62 256.7 285.07 253.52 285.97 250.76C286.87 248 288.04 245.72 289.48 243.92C290.98 242.06 292.69 240.65 294.61 239.69C296.59 238.73 298.66 238.25 300.82 238.25C302.98 238.25 305.02 238.73 306.94 239.69C308.92 240.65 310.63 242.06 312.07 243.92C313.57 245.72 314.77 248 315.67 250.76C316.57 253.52 317.02 256.7 317.02 260.3H292.72ZM300.82 239.6C299.92 239.6 299.02 239.9 298.12 240.5C297.22 241.04 296.38 242.03 295.6 243.47C294.82 244.91 294.16 246.86 293.62 249.32C293.14 251.72 292.84 254.78 292.72 258.5H308.92C308.8 254.78 308.47 251.72 307.93 249.32C307.45 246.86 306.82 244.91 306.04 243.47C305.26 242.03 304.42 241.04 303.52 240.5C302.62 239.9 301.72 239.6 300.82 239.6ZM339.998 282.35C338.078 282.35 336.428 282.11 335.048 281.63C333.668 281.21 332.558 280.7 331.718 280.1C330.698 279.44 329.858 278.69 329.198 277.85C328.958 278.75 328.448 279.59 327.668 280.37C326.948 281.15 326.258 281.66 325.598 281.9H324.248C324.308 281.12 324.368 280.31 324.428 279.47C324.488 278.75 324.548 278 324.608 277.22C324.668 276.38 324.698 275.54 324.698 274.7C324.698 273.8 324.668 272.9 324.608 272C324.548 271.1 324.488 270.29 324.428 269.57C324.368 268.73 324.308 267.89 324.248 267.05H325.598C326.738 271.37 328.478 274.7 330.818 277.04C333.158 279.38 335.918 280.55 339.098 280.55C341.618 280.55 343.658 279.77 345.218 278.21C346.838 276.65 347.648 274.73 347.648 272.45C347.648 270.83 347.078 269.42 345.938 268.22C344.858 267.02 343.478 265.94 341.798 264.98C340.118 263.96 338.318 262.97 336.398 262.01C334.478 261.05 332.678 259.97 330.998 258.77C329.318 257.57 327.908 256.16 326.768 254.54C325.688 252.92 325.148 250.94 325.148 248.6C325.148 247.28 325.448 245.99 326.048 244.73C326.648 243.47 327.458 242.36 328.478 241.4C329.558 240.44 330.848 239.69 332.348 239.15C333.848 238.55 335.498 238.25 337.298 238.25C338.858 238.25 340.208 238.49 341.348 238.97C342.548 239.45 343.568 239.96 344.408 240.5C345.308 241.16 346.088 241.91 346.748 242.75C346.988 241.85 347.468 241.01 348.188 240.23C348.968 239.45 349.688 238.94 350.348 238.7H351.698C351.578 239.48 351.488 240.29 351.428 241.13C351.368 241.85 351.308 242.63 351.248 243.47C351.248 244.31 351.248 245.12 351.248 245.9C351.248 246.8 351.248 247.73 351.248 248.69C351.308 249.59 351.368 250.4 351.428 251.12C351.488 251.96 351.578 252.77 351.698 253.55H350.348C349.208 249.23 347.528 245.9 345.308 243.56C343.088 241.22 340.718 240.05 338.198 240.05C336.158 240.05 334.448 240.74 333.068 242.12C331.688 243.44 330.998 245 330.998 246.8C330.998 248.3 331.568 249.59 332.708 250.67C333.848 251.75 335.258 252.77 336.938 253.73C338.618 254.63 340.448 255.56 342.428 256.52C344.468 257.48 346.328 258.59 348.008 259.85C349.688 261.11 351.098 262.61 352.238 264.35C353.378 266.09 353.948 268.19 353.948 270.65C353.948 272.09 353.588 273.53 352.868 274.97C352.208 276.35 351.248 277.61 349.988 278.75C348.788 279.83 347.318 280.7 345.578 281.36C343.898 282.02 342.038 282.35 339.998 282.35ZM376.473 282.35C374.553 282.35 372.903 282.11 371.523 281.63C370.143 281.21 369.033 280.7 368.193 280.1C367.173 279.44 366.333 278.69 365.673 277.85C365.433 278.75 364.923 279.59 364.143 280.37C363.423 281.15 362.733 281.66 362.073 281.9H360.723C360.783 281.12 360.843 280.31 360.903 279.47C360.963 278.75 361.023 278 361.083 277.22C361.143 276.38 361.173 275.54 361.173 274.7C361.173 273.8 361.143 272.9 361.083 272C361.023 271.1 360.963 270.29 360.903 269.57C360.843 268.73 360.783 267.89 360.723 267.05H362.073C363.213 271.37 364.953 274.7 367.293 277.04C369.633 279.38 372.393 280.55 375.573 280.55C378.093 280.55 380.133 279.77 381.693 278.21C383.313 276.65 384.123 274.73 384.123 272.45C384.123 270.83 383.553 269.42 382.413 268.22C381.333 267.02 379.953 265.94 378.273 264.98C376.593 263.96 374.793 262.97 372.873 262.01C370.953 261.05 369.153 259.97 367.473 258.77C365.793 257.57 364.383 256.16 363.243 254.54C362.163 252.92 361.623 250.94 361.623 248.6C361.623 247.28 361.923 245.99 362.523 244.73C363.123 243.47 363.933 242.36 364.953 241.4C366.033 240.44 367.323 239.69 368.823 239.15C370.323 238.55 371.973 238.25 373.773 238.25C375.333 238.25 376.683 238.49 377.823 238.97C379.023 239.45 380.043 239.96 380.883 240.5C381.783 241.16 382.563 241.91 383.223 242.75C383.463 241.85 383.943 241.01 384.663 240.23C385.443 239.45 386.163 238.94 386.823 238.7H388.173C388.053 239.48 387.963 240.29 387.903 241.13C387.843 241.85 387.783 242.63 387.723 243.47C387.723 244.31 387.723 245.12 387.723 245.9C387.723 246.8 387.723 247.73 387.723 248.69C387.783 249.59 387.843 250.4 387.903 251.12C387.963 251.96 388.053 252.77 388.173 253.55H386.823C385.683 249.23 384.003 245.9 381.783 243.56C379.563 241.22 377.193 240.05 374.673 240.05C372.633 240.05 370.923 240.74 369.543 242.12C368.163 243.44 367.473 245 367.473 246.8C367.473 248.3 368.043 249.59 369.183 250.67C370.323 251.75 371.733 252.77 373.413 253.73C375.093 254.63 376.923 255.56 378.903 256.52C380.943 257.48 382.803 258.59 384.483 259.85C386.163 261.11 387.573 262.61 388.713 264.35C389.853 266.09 390.423 268.19 390.423 270.65C390.423 272.09 390.063 273.53 389.343 274.97C388.683 276.35 387.723 277.61 386.463 278.75C385.263 279.83 383.793 280.7 382.053 281.36C380.373 282.02 378.513 282.35 376.473 282.35ZM420.598 258.95C415.378 258.95 411.508 260.12 408.988 262.46C406.528 264.74 405.298 267.92 405.298 272C405.298 274.7 405.958 276.8 407.278 278.3C408.598 279.8 410.038 280.55 411.598 280.55C413.038 280.55 414.298 280.13 415.378 279.29C416.518 278.45 417.478 277.52 418.258 276.5C419.158 275.36 419.938 274.01 420.598 272.45V258.95ZM413.848 239.6C412.048 239.6 410.548 240.23 409.348 241.49C408.148 242.69 407.548 244.31 407.548 246.35C407.548 246.83 407.548 247.25 407.548 247.61C407.608 247.97 407.668 248.3 407.728 248.6C407.788 248.9 407.878 249.2 407.998 249.5L400.798 251.3C400.678 251.12 400.588 250.88 400.528 250.58C400.468 250.28 400.408 249.95 400.348 249.59C400.348 249.23 400.348 248.75 400.348 248.15C400.348 246.89 400.648 245.69 401.248 244.55C401.848 243.35 402.718 242.3 403.858 241.4C405.058 240.44 406.468 239.69 408.088 239.15C409.768 238.55 411.688 238.25 413.848 238.25C418.168 238.25 421.558 239.48 424.018 241.94C426.538 244.4 427.798 247.67 427.798 251.75V278.75L433.198 280.1V281H420.598V275.6C419.938 276.86 419.098 278 418.078 279.02C417.238 279.86 416.158 280.61 414.838 281.27C413.578 281.99 412.048 282.35 410.248 282.35C405.928 282.35 402.658 281.33 400.438 279.29C398.278 277.25 397.198 274.52 397.198 271.1C397.198 269.42 397.648 267.74 398.548 266.06C399.508 264.38 400.918 262.88 402.778 261.56C404.698 260.24 407.128 259.19 410.068 258.41C413.008 257.57 416.518 257.15 420.598 257.15V251.75C420.598 247.25 419.908 244.1 418.528 242.3C417.208 240.5 415.648 239.6 413.848 239.6ZM443.984 278.75V241.85L438.584 240.5V239.6H451.184V245C451.784 243.8 452.594 242.69 453.614 241.67C454.454 240.83 455.534 240.05 456.854 239.33C458.174 238.61 459.734 238.25 461.534 238.25C463.334 238.25 464.984 238.58 466.484 239.24C468.044 239.9 469.394 240.83 470.534 242.03C471.674 243.17 472.544 244.58 473.144 246.26C473.804 247.88 474.134 249.71 474.134 251.75V278.75L479.534 280.1V281H461.984V280.1L466.934 278.75V251.75C466.934 247.49 466.244 244.49 464.864 242.75C463.544 240.95 461.984 240.05 460.184 240.05C458.684 240.05 457.394 240.47 456.314 241.31C455.234 242.15 454.304 243.08 453.524 244.1C452.624 245.3 451.844 246.65 451.184 248.15V278.75L456.134 280.1V281H438.584V280.1L443.984 278.75ZM503.352 240.05C502.092 240.05 500.862 240.41 499.662 241.13C498.522 241.79 497.472 242.9 496.512 244.46C495.612 246.02 494.862 248.09 494.262 250.67C493.722 253.25 493.452 256.46 493.452 260.3C493.452 264.14 493.722 267.35 494.262 269.93C494.862 272.51 495.582 274.61 496.422 276.23C497.322 277.79 498.282 278.9 499.302 279.56C500.382 280.22 501.432 280.55 502.452 280.55C503.892 280.55 505.152 280.13 506.232 279.29C507.372 278.45 508.332 277.52 509.112 276.5C510.012 275.36 510.792 274.01 511.452 272.45V245.45C510.852 244.43 510.162 243.53 509.382 242.75C508.722 242.09 507.882 241.49 506.862 240.95C505.902 240.35 504.732 240.05 503.352 240.05ZM518.652 278.75L524.052 280.1V281H511.452V275.6C510.792 276.86 509.952 278 508.932 279.02C508.092 279.86 507.012 280.61 505.692 281.27C504.432 281.99 502.902 282.35 501.102 282.35C499.182 282.35 497.262 281.87 495.342 280.91C493.482 279.89 491.802 278.45 490.302 276.59C488.862 274.67 487.662 272.36 486.702 269.66C485.802 266.9 485.352 263.78 485.352 260.3C485.352 256.82 485.802 253.73 486.702 251.03C487.662 248.27 488.922 245.96 490.482 244.1C492.042 242.18 493.812 240.74 495.792 239.78C497.772 238.76 499.842 238.25 502.002 238.25C503.682 238.25 505.122 238.49 506.322 238.97C507.522 239.45 508.512 239.96 509.292 240.5C510.192 241.16 510.912 241.91 511.452 242.75V220.25L506.052 218.9V218H518.652V278.75ZM547.902 239.6C546.882 239.6 545.832 239.96 544.752 240.68C543.732 241.34 542.772 242.48 541.872 244.1C541.032 245.66 540.312 247.76 539.712 250.4C539.172 253.04 538.902 256.34 538.902 260.3C538.902 264.26 539.172 267.56 539.712 270.2C540.312 272.84 541.032 274.97 541.872 276.59C542.772 278.15 543.732 279.29 544.752 280.01C545.832 280.67 546.882 281 547.902 281C548.922 281 549.942 280.67 550.962 280.01C552.042 279.29 553.002 278.15 553.842 276.59C554.742 274.97 555.462 272.84 556.002 270.2C556.602 267.56 556.902 264.26 556.902 260.3C556.902 256.34 556.602 253.04 556.002 250.4C555.462 247.76 554.742 245.66 553.842 244.1C553.002 242.48 552.042 241.34 550.962 240.68C549.942 239.96 548.922 239.6 547.902 239.6ZM547.902 238.25C550.122 238.25 552.252 238.76 554.292 239.78C556.392 240.74 558.222 242.18 559.782 244.1C561.402 245.96 562.662 248.27 563.562 251.03C564.522 253.73 565.002 256.82 565.002 260.3C565.002 263.78 564.522 266.9 563.562 269.66C562.662 272.36 561.402 274.67 559.782 276.59C558.222 278.45 556.392 279.89 554.292 280.91C552.252 281.87 550.122 282.35 547.902 282.35C545.622 282.35 543.462 281.87 541.422 280.91C539.382 279.89 537.552 278.45 535.932 276.59C534.372 274.67 533.112 272.36 532.152 269.66C531.252 266.9 530.802 263.78 530.802 260.3C530.802 256.82 531.252 253.73 532.152 251.03C533.112 248.27 534.372 245.96 535.932 244.1C537.552 242.18 539.382 240.74 541.422 239.78C543.462 238.76 545.622 238.25 547.902 238.25ZM602.798 260.3C602.798 264.14 603.068 267.35 603.608 269.93C604.208 272.51 604.958 274.61 605.858 276.23C606.818 277.79 607.868 278.9 609.008 279.56C610.208 280.22 611.438 280.55 612.698 280.55C614.258 280.55 615.728 280.25 617.108 279.65C618.488 279.05 619.718 278.24 620.798 277.22C621.878 276.2 622.748 274.97 623.408 273.53C624.128 272.09 624.608 270.53 624.848 268.85H626.198C625.958 270.77 625.418 272.57 624.578 274.25C623.798 275.87 622.778 277.28 621.518 278.48C620.258 279.68 618.788 280.61 617.108 281.27C615.488 281.99 613.718 282.35 611.798 282.35C609.518 282.35 607.358 281.87 605.318 280.91C603.278 279.89 601.448 278.45 599.828 276.59C598.268 274.67 597.008 272.36 596.048 269.66C595.148 266.9 594.698 263.78 594.698 260.3C594.698 256.7 595.148 253.52 596.048 250.76C596.948 248 598.118 245.72 599.558 243.92C601.058 242.06 602.768 240.65 604.688 239.69C606.668 238.73 608.738 238.25 610.898 238.25C613.058 238.25 615.098 238.73 617.018 239.69C618.998 240.65 620.708 242.06 622.148 243.92C623.648 245.72 624.848 248 625.748 250.76C626.648 253.52 627.098 256.7 627.098 260.3H602.798ZM610.898 239.6C609.998 239.6 609.098 239.9 608.198 240.5C607.298 241.04 606.458 242.03 605.678 243.47C604.898 244.91 604.238 246.86 603.698 249.32C603.218 251.72 602.918 254.78 602.798 258.5H618.998C618.878 254.78 618.548 251.72 618.008 249.32C617.528 246.86 616.898 244.91 616.118 243.47C615.338 242.03 614.498 241.04 613.598 240.5C612.698 239.9 611.798 239.6 610.898 239.6ZM650.077 282.35C648.157 282.35 646.507 282.11 645.127 281.63C643.747 281.21 642.637 280.7 641.797 280.1C640.777 279.44 639.937 278.69 639.277 277.85C639.037 278.75 638.527 279.59 637.747 280.37C637.027 281.15 636.337 281.66 635.677 281.9H634.327C634.387 281.12 634.447 280.31 634.507 279.47C634.567 278.75 634.627 278 634.687 277.22C634.747 276.38 634.777 275.54 634.777 274.7C634.777 273.8 634.747 272.9 634.687 272C634.627 271.1 634.567 270.29 634.507 269.57C634.447 268.73 634.387 267.89 634.327 267.05H635.677C636.817 271.37 638.557 274.7 640.897 277.04C643.237 279.38 645.997 280.55 649.177 280.55C651.697 280.55 653.737 279.77 655.297 278.21C656.917 276.65 657.727 274.73 657.727 272.45C657.727 270.83 657.157 269.42 656.017 268.22C654.937 267.02 653.557 265.94 651.877 264.98C650.197 263.96 648.397 262.97 646.477 262.01C644.557 261.05 642.757 259.97 641.077 258.77C639.397 257.57 637.987 256.16 636.847 254.54C635.767 252.92 635.227 250.94 635.227 248.6C635.227 247.28 635.527 245.99 636.127 244.73C636.727 243.47 637.537 242.36 638.557 241.4C639.637 240.44 640.927 239.69 642.427 239.15C643.927 238.55 645.577 238.25 647.377 238.25C648.937 238.25 650.287 238.49 651.427 238.97C652.627 239.45 653.647 239.96 654.487 240.5C655.387 241.16 656.167 241.91 656.827 242.75C657.067 241.85 657.547 241.01 658.267 240.23C659.047 239.45 659.767 238.94 660.427 238.7H661.777C661.657 239.48 661.567 240.29 661.507 241.13C661.447 241.85 661.387 242.63 661.327 243.47C661.327 244.31 661.327 245.12 661.327 245.9C661.327 246.8 661.327 247.73 661.327 248.69C661.387 249.59 661.447 250.4 661.507 251.12C661.567 251.96 661.657 252.77 661.777 253.55H660.427C659.287 249.23 657.607 245.9 655.387 243.56C653.167 241.22 650.797 240.05 648.277 240.05C646.237 240.05 644.527 240.74 643.147 242.12C641.767 243.44 641.077 245 641.077 246.8C641.077 248.3 641.647 249.59 642.787 250.67C643.927 251.75 645.337 252.77 647.017 253.73C648.697 254.63 650.527 255.56 652.507 256.52C654.547 257.48 656.407 258.59 658.087 259.85C659.767 261.11 661.177 262.61 662.317 264.35C663.457 266.09 664.027 268.19 664.027 270.65C664.027 272.09 663.667 273.53 662.947 274.97C662.287 276.35 661.327 277.61 660.067 278.75C658.867 279.83 657.397 280.7 655.657 281.36C653.977 282.02 652.117 282.35 650.077 282.35ZM693.301 239.6V241.4H682.951V270.11C682.951 273.77 683.611 276.44 684.931 278.12C686.251 279.74 687.691 280.55 689.251 280.55C691.291 280.55 693.001 279.8 694.381 278.3C695.821 276.74 696.661 274.49 696.901 271.55H698.251C698.011 274.97 696.961 277.64 695.101 279.56C693.301 281.42 691.051 282.35 688.351 282.35C684.511 282.35 681.451 281.24 679.171 279.02C676.891 276.74 675.751 273.8 675.751 270.2V241.4H668.101V239.6H675.751V229.25L682.951 224.3V239.6H693.301ZM710.464 260.3C710.464 264.14 710.734 267.35 711.274 269.93C711.874 272.51 712.624 274.61 713.524 276.23C714.484 277.79 715.534 278.9 716.674 279.56C717.874 280.22 719.104 280.55 720.364 280.55C721.924 280.55 723.394 280.25 724.774 279.65C726.154 279.05 727.384 278.24 728.464 277.22C729.544 276.2 730.414 274.97 731.074 273.53C731.794 272.09 732.274 270.53 732.514 268.85H733.864C733.624 270.77 733.084 272.57 732.244 274.25C731.464 275.87 730.444 277.28 729.184 278.48C727.924 279.68 726.454 280.61 724.774 281.27C723.154 281.99 721.384 282.35 719.464 282.35C717.184 282.35 715.024 281.87 712.984 280.91C710.944 279.89 709.114 278.45 707.494 276.59C705.934 274.67 704.674 272.36 703.714 269.66C702.814 266.9 702.364 263.78 702.364 260.3C702.364 256.7 702.814 253.52 703.714 250.76C704.614 248 705.784 245.72 707.224 243.92C708.724 242.06 710.434 240.65 712.354 239.69C714.334 238.73 716.404 238.25 718.564 238.25C720.724 238.25 722.764 238.73 724.684 239.69C726.664 240.65 728.374 242.06 729.814 243.92C731.314 245.72 732.514 248 733.414 250.76C734.314 253.52 734.764 256.7 734.764 260.3H710.464ZM718.564 239.6C717.664 239.6 716.764 239.9 715.864 240.5C714.964 241.04 714.124 242.03 713.344 243.47C712.564 244.91 711.904 246.86 711.364 249.32C710.884 251.72 710.584 254.78 710.464 258.5H726.664C726.544 254.78 726.214 251.72 725.674 249.32C725.194 246.86 724.564 244.91 723.784 243.47C723.004 242.03 722.164 241.04 721.264 240.5C720.364 239.9 719.464 239.6 718.564 239.6ZM781.614 240.05C780.474 240.05 779.334 240.41 778.194 241.13C777.114 241.79 776.124 242.9 775.224 244.46C774.324 246.02 773.574 248.09 772.974 250.67C772.434 253.25 772.164 256.46 772.164 260.3C772.164 264.14 772.434 267.35 772.974 269.93C773.574 272.51 774.354 274.61 775.314 276.23C776.274 277.79 777.354 278.9 778.554 279.56C779.814 280.22 781.134 280.55 782.514 280.55C784.074 280.55 785.544 280.25 786.924 279.65C788.304 279.05 789.534 278.24 790.614 277.22C791.694 276.2 792.564 274.97 793.224 273.53C793.944 272.09 794.424 270.53 794.664 268.85H796.014C795.774 270.77 795.234 272.57 794.394 274.25C793.614 275.87 792.594 277.28 791.334 278.48C790.074 279.68 788.604 280.61 786.924 281.27C785.304 281.99 783.534 282.35 781.614 282.35C779.274 282.35 777.024 281.87 774.864 280.91C772.764 279.89 770.904 278.45 769.284 276.59C767.664 274.67 766.374 272.36 765.414 269.66C764.514 266.9 764.064 263.78 764.064 260.3C764.064 256.82 764.514 253.73 765.414 251.03C766.374 248.27 767.634 245.96 769.194 244.1C770.754 242.18 772.524 240.74 774.504 239.78C776.484 238.76 778.554 238.25 780.714 238.25C782.154 238.25 783.414 238.49 784.494 238.97C785.634 239.45 786.594 239.96 787.374 240.5C788.274 241.16 789.054 241.91 789.714 242.75C789.954 241.85 790.434 241.01 791.154 240.23C791.934 239.45 792.654 238.94 793.314 238.7H794.664C794.544 239.48 794.454 240.29 794.394 241.13C794.334 241.85 794.274 242.63 794.214 243.47C794.214 244.31 794.214 245.12 794.214 245.9C794.214 246.8 794.214 247.73 794.214 248.69C794.274 249.59 794.334 250.4 794.394 251.12C794.454 251.96 794.544 252.77 794.664 253.55H793.314C792.174 249.23 790.494 245.9 788.274 243.56C786.114 241.22 783.894 240.05 781.614 240.05ZM810.836 260.3C810.836 264.14 811.106 267.35 811.646 269.93C812.246 272.51 812.996 274.61 813.896 276.23C814.856 277.79 815.906 278.9 817.046 279.56C818.246 280.22 819.476 280.55 820.736 280.55C822.296 280.55 823.766 280.25 825.146 279.65C826.526 279.05 827.756 278.24 828.836 277.22C829.916 276.2 830.786 274.97 831.446 273.53C832.166 272.09 832.646 270.53 832.886 268.85H834.236C833.996 270.77 833.456 272.57 832.616 274.25C831.836 275.87 830.816 277.28 829.556 278.48C828.296 279.68 826.826 280.61 825.146 281.27C823.526 281.99 821.756 282.35 819.836 282.35C817.556 282.35 815.396 281.87 813.356 280.91C811.316 279.89 809.486 278.45 807.866 276.59C806.306 274.67 805.046 272.36 804.086 269.66C803.186 266.9 802.736 263.78 802.736 260.3C802.736 256.7 803.186 253.52 804.086 250.76C804.986 248 806.156 245.72 807.596 243.92C809.096 242.06 810.806 240.65 812.726 239.69C814.706 238.73 816.776 238.25 818.936 238.25C821.096 238.25 823.136 238.73 825.056 239.69C827.036 240.65 828.746 242.06 830.186 243.92C831.686 245.72 832.886 248 833.786 250.76C834.686 253.52 835.136 256.7 835.136 260.3H810.836ZM818.936 239.6C818.036 239.6 817.136 239.9 816.236 240.5C815.336 241.04 814.496 242.03 813.716 243.47C812.936 244.91 812.276 246.86 811.736 249.32C811.256 251.72 810.956 254.78 810.836 258.5H827.036C826.916 254.78 826.586 251.72 826.046 249.32C825.566 246.86 824.936 244.91 824.156 243.47C823.376 242.03 822.536 241.04 821.636 240.5C820.736 239.9 819.836 239.6 818.936 239.6ZM847.314 278.75V241.85L841.914 240.5V239.6H854.514V245C855.114 243.8 855.924 242.69 856.944 241.67C857.784 240.83 858.864 240.05 860.184 239.33C861.504 238.61 863.064 238.25 864.864 238.25C866.664 238.25 868.314 238.58 869.814 239.24C871.374 239.9 872.724 240.83 873.864 242.03C875.004 243.17 875.874 244.58 876.474 246.26C877.134 247.88 877.464 249.71 877.464 251.75V278.75L882.864 280.1V281H865.314V280.1L870.264 278.75V251.75C870.264 247.49 869.574 244.49 868.194 242.75C866.874 240.95 865.314 240.05 863.514 240.05C862.014 240.05 860.724 240.47 859.644 241.31C858.564 242.15 857.634 243.08 856.854 244.1C855.954 245.3 855.174 246.65 854.514 248.15V278.75L859.464 280.1V281H841.914V280.1L847.314 278.75ZM912.082 258.95C906.862 258.95 902.992 260.12 900.472 262.46C898.012 264.74 896.782 267.92 896.782 272C896.782 274.7 897.442 276.8 898.762 278.3C900.082 279.8 901.522 280.55 903.082 280.55C904.522 280.55 905.782 280.13 906.862 279.29C908.002 278.45 908.962 277.52 909.742 276.5C910.642 275.36 911.422 274.01 912.082 272.45V258.95ZM905.332 239.6C903.532 239.6 902.032 240.23 900.832 241.49C899.632 242.69 899.032 244.31 899.032 246.35C899.032 246.83 899.032 247.25 899.032 247.61C899.092 247.97 899.152 248.3 899.212 248.6C899.272 248.9 899.362 249.2 899.482 249.5L892.282 251.3C892.162 251.12 892.072 250.88 892.012 250.58C891.952 250.28 891.892 249.95 891.832 249.59C891.832 249.23 891.832 248.75 891.832 248.15C891.832 246.89 892.132 245.69 892.732 244.55C893.332 243.35 894.202 242.3 895.342 241.4C896.542 240.44 897.952 239.69 899.572 239.15C901.252 238.55 903.172 238.25 905.332 238.25C909.652 238.25 913.042 239.48 915.502 241.94C918.022 244.4 919.282 247.67 919.282 251.75V278.75L924.682 280.1V281H912.082V275.6C911.422 276.86 910.582 278 909.562 279.02C908.722 279.86 907.642 280.61 906.322 281.27C905.062 281.99 903.532 282.35 901.732 282.35C897.412 282.35 894.142 281.33 891.922 279.29C889.762 277.25 888.682 274.52 888.682 271.1C888.682 269.42 889.132 267.74 890.032 266.06C890.992 264.38 892.402 262.88 894.262 261.56C896.182 260.24 898.612 259.19 901.552 258.41C904.492 257.57 908.002 257.15 912.082 257.15V251.75C912.082 247.25 911.392 244.1 910.012 242.3C908.692 240.5 907.132 239.6 905.332 239.6ZM906.682 223.76H914.782L905.782 234.56H903.082L906.682 223.76ZM942.668 278.75L948.068 280.1V281H930.068V280.1L935.468 278.75V241.85L930.068 240.5V239.6H942.668V250.4C943.448 248.18 944.378 246.17 945.458 244.37C946.418 242.81 947.588 241.4 948.968 240.14C950.348 238.88 951.998 238.25 953.918 238.25C954.578 238.25 955.208 238.31 955.808 238.43C956.408 238.49 956.948 238.58 957.428 238.7C957.968 238.88 958.448 239.03 958.868 239.15L956.168 245.9C955.808 245.72 955.418 245.51 954.998 245.27C954.638 245.09 954.188 244.94 953.648 244.82C953.168 244.64 952.658 244.55 952.118 244.55C950.558 244.55 949.178 244.97 947.978 245.81C946.778 246.65 945.788 247.58 945.008 248.6C944.048 249.8 943.268 251.15 942.668 252.65V278.75ZM967.9 278.75V241.85L962.5 240.5V239.6H975.1V278.75L980.5 280.1V281H962.5V280.1L967.9 278.75ZM975.55 229.25C975.55 230.39 975.07 231.44 974.11 232.4C973.21 233.3 972.19 233.75 971.05 233.75C969.91 233.75 968.86 233.3 967.9 232.4C967 231.44 966.55 230.39 966.55 229.25C966.55 228.11 967 227.09 967.9 226.19C968.86 225.23 969.91 224.75 971.05 224.75C972.19 224.75 973.21 225.23 974.11 226.19C975.07 227.09 975.55 228.11 975.55 229.25ZM1003.88 239.6C1002.86 239.6 1001.81 239.96 1000.73 240.68C999.709 241.34 998.749 242.48 997.849 244.1C997.009 245.66 996.289 247.76 995.689 250.4C995.149 253.04 994.879 256.34 994.879 260.3C994.879 264.26 995.149 267.56 995.689 270.2C996.289 272.84 997.009 274.97 997.849 276.59C998.749 278.15 999.709 279.29 1000.73 280.01C1001.81 280.67 1002.86 281 1003.88 281C1004.9 281 1005.92 280.67 1006.94 280.01C1008.02 279.29 1008.98 278.15 1009.82 276.59C1010.72 274.97 1011.44 272.84 1011.98 270.2C1012.58 267.56 1012.88 264.26 1012.88 260.3C1012.88 256.34 1012.58 253.04 1011.98 250.4C1011.44 247.76 1010.72 245.66 1009.82 244.1C1008.98 242.48 1008.02 241.34 1006.94 240.68C1005.92 239.96 1004.9 239.6 1003.88 239.6ZM1003.88 238.25C1006.1 238.25 1008.23 238.76 1010.27 239.78C1012.37 240.74 1014.2 242.18 1015.76 244.1C1017.38 245.96 1018.64 248.27 1019.54 251.03C1020.5 253.73 1020.98 256.82 1020.98 260.3C1020.98 263.78 1020.5 266.9 1019.54 269.66C1018.64 272.36 1017.38 274.67 1015.76 276.59C1014.2 278.45 1012.37 279.89 1010.27 280.91C1008.23 281.87 1006.1 282.35 1003.88 282.35C1001.6 282.35 999.439 281.87 997.399 280.91C995.359 279.89 993.529 278.45 991.909 276.59C990.349 274.67 989.089 272.36 988.129 269.66C987.229 266.9 986.779 263.78 986.779 260.3C986.779 256.82 987.229 253.73 988.129 251.03C989.089 248.27 990.349 245.96 991.909 244.1C993.529 242.18 995.359 240.74 997.399 239.78C999.439 238.76 1001.6 238.25 1003.88 238.25ZM1033.55 272C1034.93 272 1036.1 272.54 1037.06 273.62C1038.02 274.64 1038.5 276.05 1038.5 277.85C1038.5 280.49 1038.08 282.62 1037.24 284.24C1036.46 285.86 1035.59 287.15 1034.63 288.11C1033.55 289.19 1032.29 290 1030.85 290.54L1029.95 289.1C1030.97 288.62 1031.87 288.05 1032.65 287.39C1033.31 286.85 1033.91 286.16 1034.45 285.32C1035.05 284.48 1035.35 283.49 1035.35 282.35C1035.35 282.11 1035.32 281.9 1035.26 281.72C1035.2 281.6 1035.14 281.48 1035.08 281.36L1034.9 281C1034.78 281.12 1034.6 281.21 1034.36 281.27C1033.88 281.39 1033.46 281.45 1033.1 281.45C1031.72 281.45 1030.61 281.06 1029.77 280.28C1028.99 279.44 1028.6 278.33 1028.6 276.95C1028.6 275.57 1029.08 274.4 1030.04 273.44C1031 272.48 1032.17 272 1033.55 272ZM122.1 339.6V341.4H111.75V370.11C111.75 373.77 112.41 376.44 113.73 378.12C115.05 379.74 116.49 380.55 118.05 380.55C120.09 380.55 121.8 379.8 123.18 378.3C124.62 376.74 125.46 374.49 125.7 371.55H127.05C126.81 374.97 125.76 377.64 123.9 379.56C122.1 381.42 119.85 382.35 117.15 382.35C113.31 382.35 110.25 381.24 107.97 379.02C105.69 376.74 104.55 373.8 104.55 370.2V341.4H96.9V339.6H104.55V329.25L111.75 324.3V339.6H122.1ZM139.263 360.3C139.263 364.14 139.533 367.35 140.073 369.93C140.673 372.51 141.423 374.61 142.323 376.23C143.283 377.79 144.333 378.9 145.473 379.56C146.673 380.22 147.903 380.55 149.163 380.55C150.723 380.55 152.193 380.25 153.573 379.65C154.953 379.05 156.183 378.24 157.263 377.22C158.343 376.2 159.213 374.97 159.873 373.53C160.593 372.09 161.073 370.53 161.313 368.85H162.663C162.423 370.77 161.883 372.57 161.043 374.25C160.263 375.87 159.243 377.28 157.983 378.48C156.723 379.68 155.253 380.61 153.573 381.27C151.953 381.99 150.183 382.35 148.263 382.35C145.983 382.35 143.823 381.87 141.783 380.91C139.743 379.89 137.913 378.45 136.293 376.59C134.733 374.67 133.473 372.36 132.513 369.66C131.613 366.9 131.163 363.78 131.163 360.3C131.163 356.7 131.613 353.52 132.513 350.76C133.413 348 134.583 345.72 136.023 343.92C137.523 342.06 139.233 340.65 141.153 339.69C143.133 338.73 145.203 338.25 147.363 338.25C149.523 338.25 151.563 338.73 153.483 339.69C155.463 340.65 157.173 342.06 158.613 343.92C160.113 345.72 161.313 348 162.213 350.76C163.113 353.52 163.563 356.7 163.563 360.3H139.263ZM147.363 339.6C146.463 339.6 145.563 339.9 144.663 340.5C143.763 341.04 142.923 342.03 142.143 343.47C141.363 344.91 140.703 346.86 140.163 349.32C139.683 351.72 139.383 354.78 139.263 358.5H155.463C155.343 354.78 155.013 351.72 154.473 349.32C153.993 346.86 153.363 344.91 152.583 343.47C151.803 342.03 150.963 341.04 150.063 340.5C149.163 339.9 148.263 339.6 147.363 339.6ZM175.741 378.75V341.85L170.341 340.5V339.6H182.941V345C183.541 343.8 184.351 342.69 185.371 341.67C186.211 340.83 187.291 340.05 188.611 339.33C189.931 338.61 191.491 338.25 193.291 338.25C195.571 338.25 197.431 338.67 198.871 339.51C200.371 340.35 201.571 341.28 202.471 342.3C203.551 343.5 204.391 344.85 204.991 346.35C205.771 344.85 206.701 343.5 207.781 342.3C208.741 341.28 209.911 340.35 211.291 339.51C212.671 338.67 214.321 338.25 216.241 338.25C218.041 338.25 219.691 338.58 221.191 339.24C222.751 339.9 224.101 340.83 225.241 342.03C226.381 343.17 227.251 344.58 227.851 346.26C228.511 347.88 228.841 349.71 228.841 351.75V378.75L234.241 380.1V381H216.691V380.1L221.641 378.75V351.75C221.641 347.49 220.951 344.49 219.571 342.75C218.251 340.95 216.691 340.05 214.891 340.05C213.391 340.05 212.101 340.47 211.021 341.31C209.941 342.15 209.011 343.08 208.231 344.1C207.331 345.3 206.551 346.65 205.891 348.15V378.75L210.841 380.1V381H193.741V380.1L198.691 378.75V351.75C198.691 347.49 198.001 344.49 196.621 342.75C195.301 340.95 193.741 340.05 191.941 340.05C190.441 340.05 189.151 340.47 188.071 341.31C186.991 342.15 186.061 343.08 185.281 344.1C184.381 345.3 183.601 346.65 182.941 348.15V378.75L187.891 380.1V381H170.341V380.1L175.741 378.75ZM257.599 339.6C256.579 339.6 255.529 339.96 254.449 340.68C253.429 341.34 252.469 342.48 251.569 344.1C250.729 345.66 250.009 347.76 249.409 350.4C248.869 353.04 248.599 356.34 248.599 360.3C248.599 364.26 248.869 367.56 249.409 370.2C250.009 372.84 250.729 374.97 251.569 376.59C252.469 378.15 253.429 379.29 254.449 380.01C255.529 380.67 256.579 381 257.599 381C258.619 381 259.639 380.67 260.659 380.01C261.739 379.29 262.699 378.15 263.539 376.59C264.439 374.97 265.159 372.84 265.699 370.2C266.299 367.56 266.599 364.26 266.599 360.3C266.599 356.34 266.299 353.04 265.699 350.4C265.159 347.76 264.439 345.66 263.539 344.1C262.699 342.48 261.739 341.34 260.659 340.68C259.639 339.96 258.619 339.6 257.599 339.6ZM257.599 338.25C259.819 338.25 261.949 338.76 263.989 339.78C266.089 340.74 267.919 342.18 269.479 344.1C271.099 345.96 272.359 348.27 273.259 351.03C274.219 353.73 274.699 356.82 274.699 360.3C274.699 363.78 274.219 366.9 273.259 369.66C272.359 372.36 271.099 374.67 269.479 376.59C267.919 378.45 266.089 379.89 263.989 380.91C261.949 381.87 259.819 382.35 257.599 382.35C255.319 382.35 253.159 381.87 251.119 380.91C249.079 379.89 247.249 378.45 245.629 376.59C244.069 374.67 242.809 372.36 241.849 369.66C240.949 366.9 240.499 363.78 240.499 360.3C240.499 356.82 240.949 353.73 241.849 351.03C242.809 348.27 244.069 345.96 245.629 344.1C247.249 342.18 249.079 340.74 251.119 339.78C253.159 338.76 255.319 338.25 257.599 338.25ZM298.075 382.35C296.155 382.35 294.505 382.11 293.125 381.63C291.745 381.21 290.635 380.7 289.795 380.1C288.775 379.44 287.935 378.69 287.275 377.85C287.035 378.75 286.525 379.59 285.745 380.37C285.025 381.15 284.335 381.66 283.675 381.9H282.325C282.385 381.12 282.445 380.31 282.505 379.47C282.565 378.75 282.625 378 282.685 377.22C282.745 376.38 282.775 375.54 282.775 374.7C282.775 373.8 282.745 372.9 282.685 372C282.625 371.1 282.565 370.29 282.505 369.57C282.445 368.73 282.385 367.89 282.325 367.05H283.675C284.815 371.37 286.555 374.7 288.895 377.04C291.235 379.38 293.995 380.55 297.175 380.55C299.695 380.55 301.735 379.77 303.295 378.21C304.915 376.65 305.725 374.73 305.725 372.45C305.725 370.83 305.155 369.42 304.015 368.22C302.935 367.02 301.555 365.94 299.875 364.98C298.195 363.96 296.395 362.97 294.475 362.01C292.555 361.05 290.755 359.97 289.075 358.77C287.395 357.57 285.985 356.16 284.845 354.54C283.765 352.92 283.225 350.94 283.225 348.6C283.225 347.28 283.525 345.99 284.125 344.73C284.725 343.47 285.535 342.36 286.555 341.4C287.635 340.44 288.925 339.69 290.425 339.15C291.925 338.55 293.575 338.25 295.375 338.25C296.935 338.25 298.285 338.49 299.425 338.97C300.625 339.45 301.645 339.96 302.485 340.5C303.385 341.16 304.165 341.91 304.825 342.75C305.065 341.85 305.545 341.01 306.265 340.23C307.045 339.45 307.765 338.94 308.425 338.7H309.775C309.655 339.48 309.565 340.29 309.505 341.13C309.445 341.85 309.385 342.63 309.325 343.47C309.325 344.31 309.325 345.12 309.325 345.9C309.325 346.8 309.325 347.73 309.325 348.69C309.385 349.59 309.445 350.4 309.505 351.12C309.565 351.96 309.655 352.77 309.775 353.55H308.425C307.285 349.23 305.605 345.9 303.385 343.56C301.165 341.22 298.795 340.05 296.275 340.05C294.235 340.05 292.525 340.74 291.145 342.12C289.765 343.44 289.075 345 289.075 346.8C289.075 348.3 289.645 349.59 290.785 350.67C291.925 351.75 293.335 352.77 295.015 353.73C296.695 354.63 298.525 355.56 300.505 356.52C302.545 357.48 304.405 358.59 306.085 359.85C307.765 361.11 309.175 362.61 310.315 364.35C311.455 366.09 312.025 368.19 312.025 370.65C312.025 372.09 311.665 373.53 310.945 374.97C310.285 376.35 309.325 377.61 308.065 378.75C306.865 379.83 305.395 380.7 303.655 381.36C301.975 382.02 300.115 382.35 298.075 382.35ZM357.97 339.6C356.95 339.6 355.9 339.96 354.82 340.68C353.8 341.34 352.84 342.48 351.94 344.1C351.1 345.66 350.38 347.76 349.78 350.4C349.24 353.04 348.97 356.34 348.97 360.3C348.97 364.26 349.24 367.56 349.78 370.2C350.38 372.84 351.1 374.97 351.94 376.59C352.84 378.15 353.8 379.29 354.82 380.01C355.9 380.67 356.95 381 357.97 381C358.99 381 360.01 380.67 361.03 380.01C362.11 379.29 363.07 378.15 363.91 376.59C364.81 374.97 365.53 372.84 366.07 370.2C366.67 367.56 366.97 364.26 366.97 360.3C366.97 356.34 366.67 353.04 366.07 350.4C365.53 347.76 364.81 345.66 363.91 344.1C363.07 342.48 362.11 341.34 361.03 340.68C360.01 339.96 358.99 339.6 357.97 339.6ZM357.97 338.25C360.19 338.25 362.32 338.76 364.36 339.78C366.46 340.74 368.29 342.18 369.85 344.1C371.47 345.96 372.73 348.27 373.63 351.03C374.59 353.73 375.07 356.82 375.07 360.3C375.07 363.78 374.59 366.9 373.63 369.66C372.73 372.36 371.47 374.67 369.85 376.59C368.29 378.45 366.46 379.89 364.36 380.91C362.32 381.87 360.19 382.35 357.97 382.35C355.69 382.35 353.53 381.87 351.49 380.91C349.45 379.89 347.62 378.45 346 376.59C344.44 374.67 343.18 372.36 342.22 369.66C341.32 366.9 340.87 363.78 340.87 360.3C340.87 356.82 341.32 353.73 342.22 351.03C343.18 348.27 344.44 345.96 346 344.1C347.62 342.18 349.45 340.74 351.49 339.78C353.53 338.76 355.69 338.25 357.97 338.25ZM398.446 382.35C396.526 382.35 394.876 382.11 393.496 381.63C392.116 381.21 391.006 380.7 390.166 380.1C389.146 379.44 388.306 378.69 387.646 377.85C387.406 378.75 386.896 379.59 386.116 380.37C385.396 381.15 384.706 381.66 384.046 381.9H382.696C382.756 381.12 382.816 380.31 382.876 379.47C382.936 378.75 382.996 378 383.056 377.22C383.116 376.38 383.146 375.54 383.146 374.7C383.146 373.8 383.116 372.9 383.056 372C382.996 371.1 382.936 370.29 382.876 369.57C382.816 368.73 382.756 367.89 382.696 367.05H384.046C385.186 371.37 386.926 374.7 389.266 377.04C391.606 379.38 394.366 380.55 397.546 380.55C400.066 380.55 402.106 379.77 403.666 378.21C405.286 376.65 406.096 374.73 406.096 372.45C406.096 370.83 405.526 369.42 404.386 368.22C403.306 367.02 401.926 365.94 400.246 364.98C398.566 363.96 396.766 362.97 394.846 362.01C392.926 361.05 391.126 359.97 389.446 358.77C387.766 357.57 386.356 356.16 385.216 354.54C384.136 352.92 383.596 350.94 383.596 348.6C383.596 347.28 383.896 345.99 384.496 344.73C385.096 343.47 385.906 342.36 386.926 341.4C388.006 340.44 389.296 339.69 390.796 339.15C392.296 338.55 393.946 338.25 395.746 338.25C397.306 338.25 398.656 338.49 399.796 338.97C400.996 339.45 402.016 339.96 402.856 340.5C403.756 341.16 404.536 341.91 405.196 342.75C405.436 341.85 405.916 341.01 406.636 340.23C407.416 339.45 408.136 338.94 408.796 338.7H410.146C410.026 339.48 409.936 340.29 409.876 341.13C409.816 341.85 409.756 342.63 409.696 343.47C409.696 344.31 409.696 345.12 409.696 345.9C409.696 346.8 409.696 347.73 409.696 348.69C409.756 349.59 409.816 350.4 409.876 351.12C409.936 351.96 410.026 352.77 410.146 353.55H408.796C407.656 349.23 405.976 345.9 403.756 343.56C401.536 341.22 399.166 340.05 396.646 340.05C394.606 340.05 392.896 340.74 391.516 342.12C390.136 343.44 389.446 345 389.446 346.8C389.446 348.3 390.016 349.59 391.156 350.67C392.296 351.75 393.706 352.77 395.386 353.73C397.066 354.63 398.896 355.56 400.876 356.52C402.916 357.48 404.776 358.59 406.456 359.85C408.136 361.11 409.546 362.61 410.686 364.35C411.826 366.09 412.396 368.19 412.396 370.65C412.396 372.09 412.036 373.53 411.316 374.97C410.656 376.35 409.696 377.61 408.436 378.75C407.236 379.83 405.766 380.7 404.026 381.36C402.346 382.02 400.486 382.35 398.446 382.35ZM456.541 382.35C454.621 382.35 452.971 382.11 451.591 381.63C450.211 381.21 449.101 380.7 448.261 380.1C447.241 379.44 446.401 378.69 445.741 377.85C445.501 378.75 444.991 379.59 444.211 380.37C443.491 381.15 442.801 381.66 442.141 381.9H440.791C440.851 381.12 440.911 380.31 440.971 379.47C441.031 378.75 441.091 378 441.151 377.22C441.211 376.38 441.241 375.54 441.241 374.7C441.241 373.8 441.211 372.9 441.151 372C441.091 371.1 441.031 370.29 440.971 369.57C440.911 368.73 440.851 367.89 440.791 367.05H442.141C443.281 371.37 445.021 374.7 447.361 377.04C449.701 379.38 452.461 380.55 455.641 380.55C458.161 380.55 460.201 379.77 461.761 378.21C463.381 376.65 464.191 374.73 464.191 372.45C464.191 370.83 463.621 369.42 462.481 368.22C461.401 367.02 460.021 365.94 458.341 364.98C456.661 363.96 454.861 362.97 452.941 362.01C451.021 361.05 449.221 359.97 447.541 358.77C445.861 357.57 444.451 356.16 443.311 354.54C442.231 352.92 441.691 350.94 441.691 348.6C441.691 347.28 441.991 345.99 442.591 344.73C443.191 343.47 444.001 342.36 445.021 341.4C446.101 340.44 447.391 339.69 448.891 339.15C450.391 338.55 452.041 338.25 453.841 338.25C455.401 338.25 456.751 338.49 457.891 338.97C459.091 339.45 460.111 339.96 460.951 340.5C461.851 341.16 462.631 341.91 463.291 342.75C463.531 341.85 464.011 341.01 464.731 340.23C465.511 339.45 466.231 338.94 466.891 338.7H468.241C468.121 339.48 468.031 340.29 467.971 341.13C467.911 341.85 467.851 342.63 467.791 343.47C467.791 344.31 467.791 345.12 467.791 345.9C467.791 346.8 467.791 347.73 467.791 348.69C467.851 349.59 467.911 350.4 467.971 351.12C468.031 351.96 468.121 352.77 468.241 353.55H466.891C465.751 349.23 464.071 345.9 461.851 343.56C459.631 341.22 457.261 340.05 454.741 340.05C452.701 340.05 450.991 340.74 449.611 342.12C448.231 343.44 447.541 345 447.541 346.8C447.541 348.3 448.111 349.59 449.251 350.67C450.391 351.75 451.801 352.77 453.481 353.73C455.161 354.63 456.991 355.56 458.971 356.52C461.011 357.48 462.871 358.59 464.551 359.85C466.231 361.11 467.641 362.61 468.781 364.35C469.921 366.09 470.491 368.19 470.491 370.65C470.491 372.09 470.131 373.53 469.411 374.97C468.751 376.35 467.791 377.61 466.531 378.75C465.331 379.83 463.861 380.7 462.121 381.36C460.441 382.02 458.581 382.35 456.541 382.35ZM485.816 360.3C485.816 364.14 486.086 367.35 486.626 369.93C487.226 372.51 487.976 374.61 488.876 376.23C489.836 377.79 490.886 378.9 492.026 379.56C493.226 380.22 494.456 380.55 495.716 380.55C497.276 380.55 498.746 380.25 500.126 379.65C501.506 379.05 502.736 378.24 503.816 377.22C504.896 376.2 505.766 374.97 506.426 373.53C507.146 372.09 507.626 370.53 507.866 368.85H509.216C508.976 370.77 508.436 372.57 507.596 374.25C506.816 375.87 505.796 377.28 504.536 378.48C503.276 379.68 501.806 380.61 500.126 381.27C498.506 381.99 496.736 382.35 494.816 382.35C492.536 382.35 490.376 381.87 488.336 380.91C486.296 379.89 484.466 378.45 482.846 376.59C481.286 374.67 480.026 372.36 479.066 369.66C478.166 366.9 477.716 363.78 477.716 360.3C477.716 356.7 478.166 353.52 479.066 350.76C479.966 348 481.136 345.72 482.576 343.92C484.076 342.06 485.786 340.65 487.706 339.69C489.686 338.73 491.756 338.25 493.916 338.25C496.076 338.25 498.116 338.73 500.036 339.69C502.016 340.65 503.726 342.06 505.166 343.92C506.666 345.72 507.866 348 508.766 350.76C509.666 353.52 510.116 356.7 510.116 360.3H485.816ZM493.916 339.6C493.016 339.6 492.116 339.9 491.216 340.5C490.316 341.04 489.476 342.03 488.696 343.47C487.916 344.91 487.256 346.86 486.716 349.32C486.236 351.72 485.936 354.78 485.816 358.5H502.016C501.896 354.78 501.566 351.72 501.026 349.32C500.546 346.86 499.916 344.91 499.136 343.47C498.356 342.03 497.516 341.04 496.616 340.5C495.716 339.9 494.816 339.6 493.916 339.6ZM533.544 367.5C534.564 367.5 535.554 367.26 536.514 366.78C537.474 366.24 538.344 365.4 539.124 364.26C539.904 363.12 540.504 361.68 540.924 359.94C541.404 358.14 541.644 356.01 541.644 353.55C541.644 351.09 541.404 348.99 540.924 347.25C540.504 345.45 539.904 344.01 539.124 342.93C538.344 341.79 537.474 340.95 536.514 340.41C535.554 339.87 534.564 339.6 533.544 339.6C532.524 339.6 531.534 339.87 530.574 340.41C529.614 340.95 528.744 341.79 527.964 342.93C527.184 344.01 526.554 345.45 526.074 347.25C525.654 348.99 525.444 351.09 525.444 353.55C525.444 356.01 525.654 358.14 526.074 359.94C526.554 361.68 527.184 363.12 527.964 364.26C528.744 365.4 529.614 366.24 530.574 366.78C531.534 367.26 532.524 367.5 533.544 367.5ZM535.344 402.24C537.564 402.24 539.574 401.91 541.374 401.25C543.174 400.65 544.674 399.81 545.874 398.73C547.134 397.65 548.094 396.39 548.754 394.95C549.414 393.51 549.744 392.01 549.744 390.45C549.744 384.75 546.894 381.9 541.194 381.9H526.794C523.374 381.9 520.854 381.21 519.234 379.83C517.674 378.45 516.894 376.74 516.894 374.7C516.894 373.32 517.224 372.12 517.884 371.1C518.604 370.02 519.384 369.06 520.224 368.22C521.244 367.32 522.384 366.48 523.644 365.7C522.444 364.92 521.394 363.96 520.494 362.82C519.654 361.8 518.904 360.54 518.244 359.04C517.644 357.54 517.344 355.71 517.344 353.55C517.344 351.39 517.734 349.38 518.514 347.52C519.354 345.66 520.494 344.04 521.934 342.66C523.374 341.28 525.084 340.2 527.064 339.42C529.044 338.64 531.204 338.25 533.544 338.25C534.564 338.25 535.554 338.34 536.514 338.52C537.474 338.7 538.344 338.91 539.124 339.15C540.024 339.39 540.864 339.69 541.644 340.05C542.124 339.39 542.694 338.79 543.354 338.25C543.954 337.77 544.704 337.35 545.604 336.99C546.504 336.63 547.584 336.45 548.844 336.45C550.884 336.45 552.474 336.84 553.614 337.62C554.814 338.34 555.744 339.15 556.404 340.05C557.124 341.13 557.604 342.33 557.844 343.65L551.094 345C550.914 343.8 550.644 342.69 550.284 341.67C549.984 340.83 549.564 340.05 549.024 339.33C548.484 338.61 547.824 338.25 547.044 338.25C546.384 338.25 545.784 338.4 545.244 338.7C544.704 339 544.284 339.3 543.984 339.6C543.564 340.02 543.234 340.47 542.994 340.95C545.274 342.33 546.954 344.1 548.034 346.26C549.174 348.42 549.744 350.85 549.744 353.55C549.744 355.71 549.324 357.72 548.484 359.58C547.704 361.44 546.594 363.06 545.154 364.44C543.714 365.82 542.004 366.9 540.024 367.68C538.044 368.46 535.884 368.85 533.544 368.85C532.284 368.85 531.144 368.76 530.124 368.58C529.104 368.34 528.204 368.07 527.424 367.77C526.524 367.47 525.714 367.08 524.994 366.6C524.154 367.14 523.404 367.71 522.744 368.31C522.144 368.79 521.604 369.36 521.124 370.02C520.704 370.68 520.494 371.34 520.494 372C520.494 372.9 520.914 373.65 521.754 374.25C522.594 374.79 524.274 375.06 526.794 375.06H541.194C544.794 375.06 547.704 376.23 549.924 378.57C552.204 380.85 553.344 383.91 553.344 387.75C553.344 390.03 552.894 392.13 551.994 394.05C551.154 396.03 549.954 397.74 548.394 399.18C546.834 400.68 544.944 401.85 542.724 402.69C540.504 403.53 538.044 403.95 535.344 403.95C531.984 403.95 529.044 403.56 526.524 402.78C524.064 402.06 522.024 401.04 520.404 399.72C518.784 398.46 517.554 396.96 516.714 395.22C515.934 393.48 515.544 391.59 515.544 389.55C515.544 388.77 515.634 388.05 515.814 387.39C515.994 386.79 516.204 386.28 516.444 385.86C516.684 385.38 516.984 384.96 517.344 384.6L524.094 387.3C523.914 387.72 523.764 388.17 523.644 388.65C523.344 389.55 523.194 390.45 523.194 391.35C523.194 394.53 524.244 397.14 526.344 399.18C528.504 401.22 531.504 402.24 535.344 402.24ZM594.326 341.85V378.75L599.726 380.1V381H587.126V375.6C586.466 376.86 585.626 378 584.606 379.02C583.766 379.86 582.686 380.61 581.366 381.27C580.106 381.99 578.576 382.35 576.776 382.35C574.976 382.35 573.296 382.02 571.736 381.36C570.236 380.7 568.916 379.8 567.776 378.66C566.636 377.46 565.736 376.05 565.076 374.43C564.476 372.75 564.176 370.89 564.176 368.85V341.85L558.776 340.5V339.6H576.326V340.5L571.376 341.85V368.85C571.376 373.11 572.036 376.14 573.356 377.94C574.736 379.68 576.326 380.55 578.126 380.55C579.566 380.55 580.826 380.13 581.906 379.29C583.046 378.45 584.006 377.52 584.786 376.5C585.686 375.36 586.466 374.01 587.126 372.45V341.85L582.176 340.5V339.6H599.726V340.5L594.326 341.85ZM611.415 378.75V341.85L606.015 340.5V339.6H618.615V378.75L624.015 380.1V381H606.015V380.1L611.415 378.75ZM619.065 329.25C619.065 330.39 618.585 331.44 617.625 332.4C616.725 333.3 615.705 333.75 614.565 333.75C613.425 333.75 612.375 333.3 611.415 332.4C610.515 331.44 610.065 330.39 610.065 329.25C610.065 328.11 610.515 327.09 611.415 326.19C612.375 325.23 613.425 324.75 614.565 324.75C615.705 324.75 616.725 325.23 617.625 326.19C618.585 327.09 619.065 328.11 619.065 329.25ZM634.794 378.75V341.85L629.394 340.5V339.6H641.994V345C642.594 343.8 643.404 342.69 644.424 341.67C645.264 340.83 646.344 340.05 647.664 339.33C648.984 338.61 650.544 338.25 652.344 338.25C654.144 338.25 655.794 338.58 657.294 339.24C658.854 339.9 660.204 340.83 661.344 342.03C662.484 343.17 663.354 344.58 663.954 346.26C664.614 347.88 664.944 349.71 664.944 351.75V378.75L670.344 380.1V381H652.794V380.1L657.744 378.75V351.75C657.744 347.49 657.054 344.49 655.674 342.75C654.354 340.95 652.794 340.05 650.994 340.05C649.494 340.05 648.204 340.47 647.124 341.31C646.044 342.15 645.114 343.08 644.334 344.1C643.434 345.3 642.654 346.65 641.994 348.15V378.75L646.944 380.1V381H629.394V380.1L634.794 378.75ZM698.663 339.6V341.4H688.313V370.11C688.313 373.77 688.973 376.44 690.293 378.12C691.613 379.74 693.053 380.55 694.613 380.55C696.653 380.55 698.363 379.8 699.743 378.3C701.183 376.74 702.023 374.49 702.263 371.55H703.613C703.373 374.97 702.323 377.64 700.463 379.56C698.663 381.42 696.413 382.35 693.713 382.35C689.873 382.35 686.813 381.24 684.533 379.02C682.253 376.74 681.113 373.8 681.113 370.2V341.4H673.463V339.6H681.113V329.25L688.313 324.3V339.6H698.663ZM715.826 360.3C715.826 364.14 716.096 367.35 716.636 369.93C717.236 372.51 717.986 374.61 718.886 376.23C719.846 377.79 720.896 378.9 722.036 379.56C723.236 380.22 724.466 380.55 725.726 380.55C727.286 380.55 728.756 380.25 730.136 379.65C731.516 379.05 732.746 378.24 733.826 377.22C734.906 376.2 735.776 374.97 736.436 373.53C737.156 372.09 737.636 370.53 737.876 368.85H739.226C738.986 370.77 738.446 372.57 737.606 374.25C736.826 375.87 735.806 377.28 734.546 378.48C733.286 379.68 731.816 380.61 730.136 381.27C728.516 381.99 726.746 382.35 724.826 382.35C722.546 382.35 720.386 381.87 718.346 380.91C716.306 379.89 714.476 378.45 712.856 376.59C711.296 374.67 710.036 372.36 709.076 369.66C708.176 366.9 707.726 363.78 707.726 360.3C707.726 356.7 708.176 353.52 709.076 350.76C709.976 348 711.146 345.72 712.586 343.92C714.086 342.06 715.796 340.65 717.716 339.69C719.696 338.73 721.766 338.25 723.926 338.25C726.086 338.25 728.126 338.73 730.046 339.69C732.026 340.65 733.736 342.06 735.176 343.92C736.676 345.72 737.876 348 738.776 350.76C739.676 353.52 740.126 356.7 740.126 360.3H715.826ZM723.926 339.6C723.026 339.6 722.126 339.9 721.226 340.5C720.326 341.04 719.486 342.03 718.706 343.47C717.926 344.91 717.266 346.86 716.726 349.32C716.246 351.72 715.946 354.78 715.826 358.5H732.026C731.906 354.78 731.576 351.72 731.036 349.32C730.556 346.86 729.926 344.91 729.146 343.47C728.366 342.03 727.526 341.04 726.626 340.5C725.726 339.9 724.826 339.6 723.926 339.6ZM763.104 382.35C761.184 382.35 759.534 382.11 758.154 381.63C756.774 381.21 755.664 380.7 754.824 380.1C753.804 379.44 752.964 378.69 752.304 377.85C752.064 378.75 751.554 379.59 750.774 380.37C750.054 381.15 749.364 381.66 748.704 381.9H747.354C747.414 381.12 747.474 380.31 747.534 379.47C747.594 378.75 747.654 378 747.714 377.22C747.774 376.38 747.804 375.54 747.804 374.7C747.804 373.8 747.774 372.9 747.714 372C747.654 371.1 747.594 370.29 747.534 369.57C747.474 368.73 747.414 367.89 747.354 367.05H748.704C749.844 371.37 751.584 374.7 753.924 377.04C756.264 379.38 759.024 380.55 762.204 380.55C764.724 380.55 766.764 379.77 768.324 378.21C769.944 376.65 770.754 374.73 770.754 372.45C770.754 370.83 770.184 369.42 769.044 368.22C767.964 367.02 766.584 365.94 764.904 364.98C763.224 363.96 761.424 362.97 759.504 362.01C757.584 361.05 755.784 359.97 754.104 358.77C752.424 357.57 751.014 356.16 749.874 354.54C748.794 352.92 748.254 350.94 748.254 348.6C748.254 347.28 748.554 345.99 749.154 344.73C749.754 343.47 750.564 342.36 751.584 341.4C752.664 340.44 753.954 339.69 755.454 339.15C756.954 338.55 758.604 338.25 760.404 338.25C761.964 338.25 763.314 338.49 764.454 338.97C765.654 339.45 766.674 339.96 767.514 340.5C768.414 341.16 769.194 341.91 769.854 342.75C770.094 341.85 770.574 341.01 771.294 340.23C772.074 339.45 772.794 338.94 773.454 338.7H774.804C774.684 339.48 774.594 340.29 774.534 341.13C774.474 341.85 774.414 342.63 774.354 343.47C774.354 344.31 774.354 345.12 774.354 345.9C774.354 346.8 774.354 347.73 774.354 348.69C774.414 349.59 774.474 350.4 774.534 351.12C774.594 351.96 774.684 352.77 774.804 353.55H773.454C772.314 349.23 770.634 345.9 768.414 343.56C766.194 341.22 763.824 340.05 761.304 340.05C759.264 340.05 757.554 340.74 756.174 342.12C754.794 343.44 754.104 345 754.104 346.8C754.104 348.3 754.674 349.59 755.814 350.67C756.954 351.75 758.364 352.77 760.044 353.73C761.724 354.63 763.554 355.56 765.534 356.52C767.574 357.48 769.434 358.59 771.114 359.85C772.794 361.11 774.204 362.61 775.344 364.35C776.484 366.09 777.054 368.19 777.054 370.65C777.054 372.09 776.694 373.53 775.974 374.97C775.314 376.35 774.354 377.61 773.094 378.75C771.894 379.83 770.424 380.7 768.684 381.36C767.004 382.02 765.144 382.35 763.104 382.35ZM823 339.6C821.98 339.6 820.93 339.96 819.85 340.68C818.83 341.34 817.87 342.48 816.97 344.1C816.13 345.66 815.41 347.76 814.81 350.4C814.27 353.04 814 356.34 814 360.3C814 364.26 814.27 367.56 814.81 370.2C815.41 372.84 816.13 374.97 816.97 376.59C817.87 378.15 818.83 379.29 819.85 380.01C820.93 380.67 821.98 381 823 381C824.02 381 825.04 380.67 826.06 380.01C827.14 379.29 828.1 378.15 828.94 376.59C829.84 374.97 830.56 372.84 831.1 370.2C831.7 367.56 832 364.26 832 360.3C832 356.34 831.7 353.04 831.1 350.4C830.56 347.76 829.84 345.66 828.94 344.1C828.1 342.48 827.14 341.34 826.06 340.68C825.04 339.96 824.02 339.6 823 339.6ZM823 338.25C825.22 338.25 827.35 338.76 829.39 339.78C831.49 340.74 833.32 342.18 834.88 344.1C836.5 345.96 837.76 348.27 838.66 351.03C839.62 353.73 840.1 356.82 840.1 360.3C840.1 363.78 839.62 366.9 838.66 369.66C837.76 372.36 836.5 374.67 834.88 376.59C833.32 378.45 831.49 379.89 829.39 380.91C827.35 381.87 825.22 382.35 823 382.35C820.72 382.35 818.56 381.87 816.52 380.91C814.48 379.89 812.65 378.45 811.03 376.59C809.47 374.67 808.21 372.36 807.25 369.66C806.35 366.9 805.9 363.78 805.9 360.3C805.9 356.82 806.35 353.73 807.25 351.03C808.21 348.27 809.47 345.96 811.03 344.1C812.65 342.18 814.48 340.74 816.52 339.78C818.56 338.76 820.72 338.25 823 338.25ZM852.225 378.75V320.25L846.825 318.9V318H859.425V378.75L864.825 380.1V381H846.825V380.1L852.225 378.75ZM875.164 378.75V320.25L869.764 318.9V318H882.364V345C882.964 343.8 883.774 342.69 884.794 341.67C885.634 340.83 886.714 340.05 888.034 339.33C889.354 338.61 890.914 338.25 892.714 338.25C894.514 338.25 896.164 338.58 897.664 339.24C899.224 339.9 900.574 340.83 901.714 342.03C902.854 343.17 903.724 344.58 904.324 346.26C904.984 347.88 905.314 349.71 905.314 351.75V378.75L910.714 380.1V381H893.164V380.1L898.114 378.75V351.75C898.114 347.49 897.424 344.49 896.044 342.75C894.724 340.95 893.164 340.05 891.364 340.05C889.864 340.05 888.574 340.47 887.494 341.31C886.414 342.15 885.484 343.08 884.704 344.1C883.804 345.3 883.024 346.65 882.364 348.15V378.75L887.314 380.1V381H869.764V380.1L875.164 378.75ZM939.943 358.95C934.723 358.95 930.853 360.12 928.333 362.46C925.873 364.74 924.643 367.92 924.643 372C924.643 374.7 925.303 376.8 926.623 378.3C927.943 379.8 929.383 380.55 930.943 380.55C932.383 380.55 933.643 380.13 934.723 379.29C935.863 378.45 936.823 377.52 937.603 376.5C938.503 375.36 939.283 374.01 939.943 372.45V358.95ZM933.193 339.6C931.393 339.6 929.893 340.23 928.693 341.49C927.493 342.69 926.893 344.31 926.893 346.35C926.893 346.83 926.893 347.25 926.893 347.61C926.953 347.97 927.013 348.3 927.073 348.6C927.133 348.9 927.223 349.2 927.343 349.5L920.143 351.3C920.023 351.12 919.933 350.88 919.873 350.58C919.813 350.28 919.753 349.95 919.693 349.59C919.693 349.23 919.693 348.75 919.693 348.15C919.693 346.89 919.993 345.69 920.593 344.55C921.193 343.35 922.063 342.3 923.203 341.4C924.403 340.44 925.813 339.69 927.433 339.15C929.113 338.55 931.033 338.25 933.193 338.25C937.513 338.25 940.903 339.48 943.363 341.94C945.883 344.4 947.143 347.67 947.143 351.75V378.75L952.543 380.1V381H939.943V375.6C939.283 376.86 938.443 378 937.423 379.02C936.583 379.86 935.503 380.61 934.183 381.27C932.923 381.99 931.393 382.35 929.593 382.35C925.273 382.35 922.003 381.33 919.783 379.29C917.623 377.25 916.543 374.52 916.543 371.1C916.543 369.42 916.993 367.74 917.893 366.06C918.853 364.38 920.263 362.88 922.123 361.56C924.043 360.24 926.473 359.19 929.413 358.41C932.353 357.57 935.863 357.15 939.943 357.15V351.75C939.943 347.25 939.253 344.1 937.873 342.3C936.553 340.5 934.993 339.6 933.193 339.6ZM970.529 378.75L975.929 380.1V381H957.929V380.1L963.329 378.75V341.85L957.929 340.5V339.6H970.529V350.4C971.309 348.18 972.239 346.17 973.319 344.37C974.279 342.81 975.449 341.4 976.829 340.14C978.209 338.88 979.859 338.25 981.779 338.25C982.439 338.25 983.069 338.31 983.669 338.43C984.269 338.49 984.809 338.58 985.289 338.7C985.829 338.88 986.309 339.03 986.729 339.15L984.029 345.9C983.669 345.72 983.279 345.51 982.859 345.27C982.499 345.09 982.049 344.94 981.509 344.82C981.029 344.64 980.519 344.55 979.979 344.55C978.419 344.55 977.039 344.97 975.839 345.81C974.639 346.65 973.649 347.58 972.869 348.6C971.909 349.8 971.129 351.15 970.529 352.65V378.75ZM998.482 360.3C998.482 364.14 998.752 367.35 999.292 369.93C999.892 372.51 1000.64 374.61 1001.54 376.23C1002.5 377.79 1003.55 378.9 1004.69 379.56C1005.89 380.22 1007.12 380.55 1008.38 380.55C1009.94 380.55 1011.41 380.25 1012.79 379.65C1014.17 379.05 1015.4 378.24 1016.48 377.22C1017.56 376.2 1018.43 374.97 1019.09 373.53C1019.81 372.09 1020.29 370.53 1020.53 368.85H1021.88C1021.64 370.77 1021.1 372.57 1020.26 374.25C1019.48 375.87 1018.46 377.28 1017.2 378.48C1015.94 379.68 1014.47 380.61 1012.79 381.27C1011.17 381.99 1009.4 382.35 1007.48 382.35C1005.2 382.35 1003.04 381.87 1001 380.91C998.962 379.89 997.132 378.45 995.512 376.59C993.952 374.67 992.692 372.36 991.732 369.66C990.832 366.9 990.382 363.78 990.382 360.3C990.382 356.7 990.832 353.52 991.732 350.76C992.632 348 993.802 345.72 995.242 343.92C996.742 342.06 998.452 340.65 1000.37 339.69C1002.35 338.73 1004.42 338.25 1006.58 338.25C1008.74 338.25 1010.78 338.73 1012.7 339.69C1014.68 340.65 1016.39 342.06 1017.83 343.92C1019.33 345.72 1020.53 348 1021.43 350.76C1022.33 353.52 1022.78 356.7 1022.78 360.3H998.482ZM1006.58 339.6C1005.68 339.6 1004.78 339.9 1003.88 340.5C1002.98 341.04 1002.14 342.03 1001.36 343.47C1000.58 344.91 999.922 346.86 999.382 349.32C998.902 351.72 998.602 354.78 998.482 358.5H1014.68C1014.56 354.78 1014.23 351.72 1013.69 349.32C1013.21 346.86 1012.58 344.91 1011.8 343.47C1011.02 342.03 1010.18 341.04 1009.28 340.5C1008.38 339.9 1007.48 339.6 1006.58 339.6ZM1045.76 382.35C1043.84 382.35 1042.19 382.11 1040.81 381.63C1039.43 381.21 1038.32 380.7 1037.48 380.1C1036.46 379.44 1035.62 378.69 1034.96 377.85C1034.72 378.75 1034.21 379.59 1033.43 380.37C1032.71 381.15 1032.02 381.66 1031.36 381.9H1030.01C1030.07 381.12 1030.13 380.31 1030.19 379.47C1030.25 378.75 1030.31 378 1030.37 377.22C1030.43 376.38 1030.46 375.54 1030.46 374.7C1030.46 373.8 1030.43 372.9 1030.37 372C1030.31 371.1 1030.25 370.29 1030.19 369.57C1030.13 368.73 1030.07 367.89 1030.01 367.05H1031.36C1032.5 371.37 1034.24 374.7 1036.58 377.04C1038.92 379.38 1041.68 380.55 1044.86 380.55C1047.38 380.55 1049.42 379.77 1050.98 378.21C1052.6 376.65 1053.41 374.73 1053.41 372.45C1053.41 370.83 1052.84 369.42 1051.7 368.22C1050.62 367.02 1049.24 365.94 1047.56 364.98C1045.88 363.96 1044.08 362.97 1042.16 362.01C1040.24 361.05 1038.44 359.97 1036.76 358.77C1035.08 357.57 1033.67 356.16 1032.53 354.54C1031.45 352.92 1030.91 350.94 1030.91 348.6C1030.91 347.28 1031.21 345.99 1031.81 344.73C1032.41 343.47 1033.22 342.36 1034.24 341.4C1035.32 340.44 1036.61 339.69 1038.11 339.15C1039.61 338.55 1041.26 338.25 1043.06 338.25C1044.62 338.25 1045.97 338.49 1047.11 338.97C1048.31 339.45 1049.33 339.96 1050.17 340.5C1051.07 341.16 1051.85 341.91 1052.51 342.75C1052.75 341.85 1053.23 341.01 1053.95 340.23C1054.73 339.45 1055.45 338.94 1056.11 338.7H1057.46C1057.34 339.48 1057.25 340.29 1057.19 341.13C1057.13 341.85 1057.07 342.63 1057.01 343.47C1057.01 344.31 1057.01 345.12 1057.01 345.9C1057.01 346.8 1057.01 347.73 1057.01 348.69C1057.07 349.59 1057.13 350.4 1057.19 351.12C1057.25 351.96 1057.34 352.77 1057.46 353.55H1056.11C1054.97 349.23 1053.29 345.9 1051.07 343.56C1048.85 341.22 1046.48 340.05 1043.96 340.05C1041.92 340.05 1040.21 340.74 1038.83 342.12C1037.45 343.44 1036.76 345 1036.76 346.8C1036.76 348.3 1037.33 349.59 1038.47 350.67C1039.61 351.75 1041.02 352.77 1042.7 353.73C1044.38 354.63 1046.21 355.56 1048.19 356.52C1050.23 357.48 1052.09 358.59 1053.77 359.85C1055.45 361.11 1056.86 362.61 1058 364.35C1059.14 366.09 1059.71 368.19 1059.71 370.65C1059.71 372.09 1059.35 373.53 1058.63 374.97C1057.97 376.35 1057.01 377.61 1055.75 378.75C1054.55 379.83 1053.08 380.7 1051.34 381.36C1049.66 382.02 1047.8 382.35 1045.76 382.35ZM104.55 478.75V441.85L99.15 440.5V439.6H111.75V478.75L117.15 480.1V481H99.15V480.1L104.55 478.75ZM112.2 429.25C112.2 430.39 111.72 431.44 110.76 432.4C109.86 433.3 108.84 433.75 107.7 433.75C106.56 433.75 105.51 433.3 104.55 432.4C103.65 431.44 103.2 430.39 103.2 429.25C103.2 428.11 103.65 427.09 104.55 426.19C105.51 425.23 106.56 424.75 107.7 424.75C108.84 424.75 109.86 425.23 110.76 426.19C111.72 427.09 112.2 428.11 112.2 429.25ZM127.929 478.75V441.85L122.529 440.5V439.6H135.129V445C135.729 443.8 136.539 442.69 137.559 441.67C138.399 440.83 139.479 440.05 140.799 439.33C142.119 438.61 143.679 438.25 145.479 438.25C147.759 438.25 149.619 438.67 151.059 439.51C152.559 440.35 153.759 441.28 154.659 442.3C155.739 443.5 156.579 444.85 157.179 446.35C157.959 444.85 158.889 443.5 159.969 442.3C160.929 441.28 162.099 440.35 163.479 439.51C164.859 438.67 166.509 438.25 168.429 438.25C170.229 438.25 171.879 438.58 173.379 439.24C174.939 439.9 176.289 440.83 177.429 442.03C178.569 443.17 179.439 444.58 180.039 446.26C180.699 447.88 181.029 449.71 181.029 451.75V478.75L186.429 480.1V481H168.879V480.1L173.829 478.75V451.75C173.829 447.49 173.139 444.49 171.759 442.75C170.439 440.95 168.879 440.05 167.079 440.05C165.579 440.05 164.289 440.47 163.209 441.31C162.129 442.15 161.199 443.08 160.419 444.1C159.519 445.3 158.739 446.65 158.079 448.15V478.75L163.029 480.1V481H145.929V480.1L150.879 478.75V451.75C150.879 447.49 150.189 444.49 148.809 442.75C147.489 440.95 145.929 440.05 144.129 440.05C142.629 440.05 141.339 440.47 140.259 441.31C139.179 442.15 138.249 443.08 137.469 444.1C136.569 445.3 135.789 446.65 135.129 448.15V478.75L140.079 480.1V481H122.529V480.1L127.929 478.75ZM196.287 441.85L190.887 440.5V439.6H203.487V445C204.087 443.8 204.897 442.69 205.917 441.67C206.757 440.83 207.837 440.05 209.157 439.33C210.477 438.61 212.037 438.25 213.837 438.25C215.757 438.25 217.647 438.76 219.507 439.78C221.427 440.74 223.107 442.18 224.547 444.1C226.047 445.96 227.247 448.27 228.147 451.03C229.107 453.73 229.587 456.82 229.587 460.3C229.587 463.78 229.107 466.9 228.147 469.66C227.247 472.36 226.017 474.67 224.457 476.59C222.897 478.45 221.127 479.89 219.147 480.91C217.167 481.87 215.097 482.35 212.937 482.35C211.197 482.35 209.727 482.11 208.527 481.63C207.387 481.21 206.427 480.7 205.647 480.1C204.747 479.44 204.027 478.69 203.487 477.85V500.35L208.887 501.7V502.6H190.887V501.7L196.287 500.35V441.85ZM211.587 480.55C212.847 480.55 214.047 480.22 215.187 479.56C216.387 478.9 217.437 477.79 218.337 476.23C219.297 474.61 220.047 472.51 220.587 469.93C221.187 467.35 221.487 464.14 221.487 460.3C221.487 456.46 221.187 453.25 220.587 450.67C220.047 448.09 219.327 446.02 218.427 444.46C217.587 442.9 216.627 441.79 215.547 441.13C214.527 440.41 213.507 440.05 212.487 440.05C210.987 440.05 209.697 440.47 208.617 441.31C207.537 442.15 206.607 443.08 205.827 444.1C204.927 445.3 204.147 446.65 203.487 448.15V475.15C204.027 476.17 204.687 477.07 205.467 477.85C206.127 478.51 206.967 479.14 207.987 479.74C209.007 480.28 210.207 480.55 211.587 480.55ZM254.787 439.6C253.767 439.6 252.717 439.96 251.637 440.68C250.617 441.34 249.657 442.48 248.757 444.1C247.917 445.66 247.197 447.76 246.597 450.4C246.057 453.04 245.787 456.34 245.787 460.3C245.787 464.26 246.057 467.56 246.597 470.2C247.197 472.84 247.917 474.97 248.757 476.59C249.657 478.15 250.617 479.29 251.637 480.01C252.717 480.67 253.767 481 254.787 481C255.807 481 256.827 480.67 257.847 480.01C258.927 479.29 259.887 478.15 260.727 476.59C261.627 474.97 262.347 472.84 262.887 470.2C263.487 467.56 263.787 464.26 263.787 460.3C263.787 456.34 263.487 453.04 262.887 450.4C262.347 447.76 261.627 445.66 260.727 444.1C259.887 442.48 258.927 441.34 257.847 440.68C256.827 439.96 255.807 439.6 254.787 439.6ZM254.787 438.25C257.007 438.25 259.137 438.76 261.177 439.78C263.277 440.74 265.107 442.18 266.667 444.1C268.287 445.96 269.547 448.27 270.447 451.03C271.407 453.73 271.887 456.82 271.887 460.3C271.887 463.78 271.407 466.9 270.447 469.66C269.547 472.36 268.287 474.67 266.667 476.59C265.107 478.45 263.277 479.89 261.177 480.91C259.137 481.87 257.007 482.35 254.787 482.35C252.507 482.35 250.347 481.87 248.307 480.91C246.267 479.89 244.437 478.45 242.817 476.59C241.257 474.67 239.997 472.36 239.037 469.66C238.137 466.9 237.687 463.78 237.687 460.3C237.687 456.82 238.137 453.73 239.037 451.03C239.997 448.27 241.257 445.96 242.817 444.1C244.437 442.18 246.267 440.74 248.307 439.78C250.347 438.76 252.507 438.25 254.787 438.25ZM291.662 478.75L297.062 480.1V481H279.062V480.1L284.462 478.75V441.85L279.062 440.5V439.6H291.662V450.4C292.442 448.18 293.372 446.17 294.452 444.37C295.412 442.81 296.582 441.4 297.962 440.14C299.342 438.88 300.992 438.25 302.912 438.25C303.572 438.25 304.202 438.31 304.802 438.43C305.402 438.49 305.942 438.58 306.422 438.7C306.962 438.88 307.442 439.03 307.862 439.15L305.162 445.9C304.802 445.72 304.412 445.51 303.992 445.27C303.632 445.09 303.182 444.94 302.642 444.82C302.162 444.64 301.652 444.55 301.112 444.55C299.552 444.55 298.172 444.97 296.972 445.81C295.772 446.65 294.782 447.58 294.002 448.6C293.042 449.8 292.262 451.15 291.662 452.65V478.75ZM334.444 439.6V441.4H324.094V470.11C324.094 473.77 324.754 476.44 326.074 478.12C327.394 479.74 328.834 480.55 330.394 480.55C332.434 480.55 334.144 479.8 335.524 478.3C336.964 476.74 337.804 474.49 338.044 471.55H339.394C339.154 474.97 338.104 477.64 336.244 479.56C334.444 481.42 332.194 482.35 329.494 482.35C325.654 482.35 322.594 481.24 320.314 479.02C318.034 476.74 316.894 473.8 316.894 470.2V441.4H309.244V439.6H316.894V429.25L324.094 424.3V439.6H334.444ZM367.336 458.95C362.116 458.95 358.246 460.12 355.726 462.46C353.266 464.74 352.036 467.92 352.036 472C352.036 474.7 352.696 476.8 354.016 478.3C355.336 479.8 356.776 480.55 358.336 480.55C359.776 480.55 361.036 480.13 362.116 479.29C363.256 478.45 364.216 477.52 364.996 476.5C365.896 475.36 366.676 474.01 367.336 472.45V458.95ZM360.586 439.6C358.786 439.6 357.286 440.23 356.086 441.49C354.886 442.69 354.286 444.31 354.286 446.35C354.286 446.83 354.286 447.25 354.286 447.61C354.346 447.97 354.406 448.3 354.466 448.6C354.526 448.9 354.616 449.2 354.736 449.5L347.536 451.3C347.416 451.12 347.326 450.88 347.266 450.58C347.206 450.28 347.146 449.95 347.086 449.59C347.086 449.23 347.086 448.75 347.086 448.15C347.086 446.89 347.386 445.69 347.986 444.55C348.586 443.35 349.456 442.3 350.596 441.4C351.796 440.44 353.206 439.69 354.826 439.15C356.506 438.55 358.426 438.25 360.586 438.25C364.906 438.25 368.296 439.48 370.756 441.94C373.276 444.4 374.536 447.67 374.536 451.75V478.75L379.936 480.1V481H367.336V475.6C366.676 476.86 365.836 478 364.816 479.02C363.976 479.86 362.896 480.61 361.576 481.27C360.316 481.99 358.786 482.35 356.986 482.35C352.666 482.35 349.396 481.33 347.176 479.29C345.016 477.25 343.936 474.52 343.936 471.1C343.936 469.42 344.386 467.74 345.286 466.06C346.246 464.38 347.656 462.88 349.516 461.56C351.436 460.24 353.866 459.19 356.806 458.41C359.746 457.57 363.256 457.15 367.336 457.15V451.75C367.336 447.25 366.646 444.1 365.266 442.3C363.946 440.5 362.386 439.6 360.586 439.6ZM390.722 478.75V441.85L385.322 440.5V439.6H397.922V445C398.522 443.8 399.332 442.69 400.352 441.67C401.192 440.83 402.272 440.05 403.592 439.33C404.912 438.61 406.472 438.25 408.272 438.25C410.072 438.25 411.722 438.58 413.222 439.24C414.782 439.9 416.132 440.83 417.272 442.03C418.412 443.17 419.282 444.58 419.882 446.26C420.542 447.88 420.872 449.71 420.872 451.75V478.75L426.272 480.1V481H408.722V480.1L413.672 478.75V451.75C413.672 447.49 412.982 444.49 411.602 442.75C410.282 440.95 408.722 440.05 406.922 440.05C405.422 440.05 404.132 440.47 403.052 441.31C401.972 442.15 401.042 443.08 400.262 444.1C399.362 445.3 398.582 446.65 397.922 448.15V478.75L402.872 480.1V481H385.322V480.1L390.722 478.75ZM454.59 439.6V441.4H444.24V470.11C444.24 473.77 444.9 476.44 446.22 478.12C447.54 479.74 448.98 480.55 450.54 480.55C452.58 480.55 454.29 479.8 455.67 478.3C457.11 476.74 457.95 474.49 458.19 471.55H459.54C459.3 474.97 458.25 477.64 456.39 479.56C454.59 481.42 452.34 482.35 449.64 482.35C445.8 482.35 442.74 481.24 440.46 479.02C438.18 476.74 437.04 473.8 437.04 470.2V441.4H429.39V439.6H437.04V429.25L444.24 424.3V439.6H454.59ZM471.754 460.3C471.754 464.14 472.024 467.35 472.564 469.93C473.164 472.51 473.914 474.61 474.814 476.23C475.774 477.79 476.824 478.9 477.964 479.56C479.164 480.22 480.394 480.55 481.654 480.55C483.214 480.55 484.684 480.25 486.064 479.65C487.444 479.05 488.674 478.24 489.754 477.22C490.834 476.2 491.704 474.97 492.364 473.53C493.084 472.09 493.564 470.53 493.804 468.85H495.154C494.914 470.77 494.374 472.57 493.534 474.25C492.754 475.87 491.734 477.28 490.474 478.48C489.214 479.68 487.744 480.61 486.064 481.27C484.444 481.99 482.674 482.35 480.754 482.35C478.474 482.35 476.314 481.87 474.274 480.91C472.234 479.89 470.404 478.45 468.784 476.59C467.224 474.67 465.964 472.36 465.004 469.66C464.104 466.9 463.654 463.78 463.654 460.3C463.654 456.7 464.104 453.52 465.004 450.76C465.904 448 467.074 445.72 468.514 443.92C470.014 442.06 471.724 440.65 473.644 439.69C475.624 438.73 477.694 438.25 479.854 438.25C482.014 438.25 484.054 438.73 485.974 439.69C487.954 440.65 489.664 442.06 491.104 443.92C492.604 445.72 493.804 448 494.704 450.76C495.604 453.52 496.054 456.7 496.054 460.3H471.754ZM479.854 439.6C478.954 439.6 478.054 439.9 477.154 440.5C476.254 441.04 475.414 442.03 474.634 443.47C473.854 444.91 473.194 446.86 472.654 449.32C472.174 451.72 471.874 454.78 471.754 458.5H487.954C487.834 454.78 487.504 451.72 486.964 449.32C486.484 446.86 485.854 444.91 485.074 443.47C484.294 442.03 483.454 441.04 482.554 440.5C481.654 439.9 480.754 439.6 479.854 439.6ZM519.032 482.35C517.112 482.35 515.462 482.11 514.082 481.63C512.702 481.21 511.592 480.7 510.752 480.1C509.732 479.44 508.892 478.69 508.232 477.85C507.992 478.75 507.482 479.59 506.702 480.37C505.982 481.15 505.292 481.66 504.632 481.9H503.282C503.342 481.12 503.402 480.31 503.462 479.47C503.522 478.75 503.582 478 503.642 477.22C503.702 476.38 503.732 475.54 503.732 474.7C503.732 473.8 503.702 472.9 503.642 472C503.582 471.1 503.522 470.29 503.462 469.57C503.402 468.73 503.342 467.89 503.282 467.05H504.632C505.772 471.37 507.512 474.7 509.852 477.04C512.192 479.38 514.952 480.55 518.132 480.55C520.652 480.55 522.692 479.77 524.252 478.21C525.872 476.65 526.682 474.73 526.682 472.45C526.682 470.83 526.112 469.42 524.972 468.22C523.892 467.02 522.512 465.94 520.832 464.98C519.152 463.96 517.352 462.97 515.432 462.01C513.512 461.05 511.712 459.97 510.032 458.77C508.352 457.57 506.942 456.16 505.802 454.54C504.722 452.92 504.182 450.94 504.182 448.6C504.182 447.28 504.482 445.99 505.082 444.73C505.682 443.47 506.492 442.36 507.512 441.4C508.592 440.44 509.882 439.69 511.382 439.15C512.882 438.55 514.532 438.25 516.332 438.25C517.892 438.25 519.242 438.49 520.382 438.97C521.582 439.45 522.602 439.96 523.442 440.5C524.342 441.16 525.122 441.91 525.782 442.75C526.022 441.85 526.502 441.01 527.222 440.23C528.002 439.45 528.722 438.94 529.382 438.7H530.732C530.612 439.48 530.522 440.29 530.462 441.13C530.402 441.85 530.342 442.63 530.282 443.47C530.282 444.31 530.282 445.12 530.282 445.9C530.282 446.8 530.282 447.73 530.282 448.69C530.342 449.59 530.402 450.4 530.462 451.12C530.522 451.96 530.612 452.77 530.732 453.55H529.382C528.242 449.23 526.562 445.9 524.342 443.56C522.122 441.22 519.752 440.05 517.232 440.05C515.192 440.05 513.482 440.74 512.102 442.12C510.722 443.44 510.032 445 510.032 446.8C510.032 448.3 510.602 449.59 511.742 450.67C512.882 451.75 514.292 452.77 515.972 453.73C517.652 454.63 519.482 455.56 521.462 456.52C523.502 457.48 525.362 458.59 527.042 459.85C528.722 461.11 530.132 462.61 531.272 464.35C532.412 466.09 532.982 468.19 532.982 470.65C532.982 472.09 532.622 473.53 531.902 474.97C531.242 476.35 530.282 477.61 529.022 478.75C527.822 479.83 526.352 480.7 524.612 481.36C522.932 482.02 521.072 482.35 519.032 482.35ZM584.777 458.95C579.557 458.95 575.687 460.12 573.167 462.46C570.707 464.74 569.477 467.92 569.477 472C569.477 474.7 570.137 476.8 571.457 478.3C572.777 479.8 574.217 480.55 575.777 480.55C577.217 480.55 578.477 480.13 579.557 479.29C580.697 478.45 581.657 477.52 582.437 476.5C583.337 475.36 584.117 474.01 584.777 472.45V458.95ZM578.027 439.6C576.227 439.6 574.727 440.23 573.527 441.49C572.327 442.69 571.727 444.31 571.727 446.35C571.727 446.83 571.727 447.25 571.727 447.61C571.787 447.97 571.847 448.3 571.907 448.6C571.967 448.9 572.057 449.2 572.177 449.5L564.977 451.3C564.857 451.12 564.767 450.88 564.707 450.58C564.647 450.28 564.587 449.95 564.527 449.59C564.527 449.23 564.527 448.75 564.527 448.15C564.527 446.89 564.827 445.69 565.427 444.55C566.027 443.35 566.897 442.3 568.037 441.4C569.237 440.44 570.647 439.69 572.267 439.15C573.947 438.55 575.867 438.25 578.027 438.25C582.347 438.25 585.737 439.48 588.197 441.94C590.717 444.4 591.977 447.67 591.977 451.75V478.75L597.377 480.1V481H584.777V475.6C584.117 476.86 583.277 478 582.257 479.02C581.417 479.86 580.337 480.61 579.017 481.27C577.757 481.99 576.227 482.35 574.427 482.35C570.107 482.35 566.837 481.33 564.617 479.29C562.457 477.25 561.377 474.52 561.377 471.1C561.377 469.42 561.827 467.74 562.727 466.06C563.687 464.38 565.097 462.88 566.957 461.56C568.877 460.24 571.307 459.19 574.247 458.41C577.187 457.57 580.697 457.15 584.777 457.15V451.75C584.777 447.25 584.087 444.1 582.707 442.3C581.387 440.5 579.827 439.6 578.027 439.6ZM620.763 439.6C619.743 439.6 618.693 439.96 617.613 440.68C616.593 441.34 615.633 442.48 614.733 444.1C613.893 445.66 613.173 447.76 612.573 450.4C612.033 453.04 611.763 456.34 611.763 460.3C611.763 464.26 612.033 467.56 612.573 470.2C613.173 472.84 613.893 474.97 614.733 476.59C615.633 478.15 616.593 479.29 617.613 480.01C618.693 480.67 619.743 481 620.763 481C621.783 481 622.803 480.67 623.823 480.01C624.903 479.29 625.863 478.15 626.703 476.59C627.603 474.97 628.323 472.84 628.863 470.2C629.463 467.56 629.763 464.26 629.763 460.3C629.763 456.34 629.463 453.04 628.863 450.4C628.323 447.76 627.603 445.66 626.703 444.1C625.863 442.48 624.903 441.34 623.823 440.68C622.803 439.96 621.783 439.6 620.763 439.6ZM620.763 438.25C622.983 438.25 625.113 438.76 627.153 439.78C629.253 440.74 631.083 442.18 632.643 444.1C634.263 445.96 635.523 448.27 636.423 451.03C637.383 453.73 637.863 456.82 637.863 460.3C637.863 463.78 637.383 466.9 636.423 469.66C635.523 472.36 634.263 474.67 632.643 476.59C631.083 478.45 629.253 479.89 627.153 480.91C625.113 481.87 622.983 482.35 620.763 482.35C618.483 482.35 616.323 481.87 614.283 480.91C612.243 479.89 610.413 478.45 608.793 476.59C607.233 474.67 605.973 472.36 605.013 469.66C604.113 466.9 603.663 463.78 603.663 460.3C603.663 456.82 604.113 453.73 605.013 451.03C605.973 448.27 607.233 445.96 608.793 444.1C610.413 442.18 612.243 440.74 614.283 439.78C616.323 438.76 618.483 438.25 620.763 438.25ZM685.11 440.05C683.97 440.05 682.83 440.41 681.69 441.13C680.61 441.79 679.62 442.9 678.72 444.46C677.82 446.02 677.07 448.09 676.47 450.67C675.93 453.25 675.66 456.46 675.66 460.3C675.66 464.14 675.93 467.35 676.47 469.93C677.07 472.51 677.85 474.61 678.81 476.23C679.77 477.79 680.85 478.9 682.05 479.56C683.31 480.22 684.63 480.55 686.01 480.55C687.57 480.55 689.04 480.25 690.42 479.65C691.8 479.05 693.03 478.24 694.11 477.22C695.19 476.2 696.06 474.97 696.72 473.53C697.44 472.09 697.92 470.53 698.16 468.85H699.51C699.27 470.77 698.73 472.57 697.89 474.25C697.11 475.87 696.09 477.28 694.83 478.48C693.57 479.68 692.1 480.61 690.42 481.27C688.8 481.99 687.03 482.35 685.11 482.35C682.77 482.35 680.52 481.87 678.36 480.91C676.26 479.89 674.4 478.45 672.78 476.59C671.16 474.67 669.87 472.36 668.91 469.66C668.01 466.9 667.56 463.78 667.56 460.3C667.56 456.82 668.01 453.73 668.91 451.03C669.87 448.27 671.13 445.96 672.69 444.1C674.25 442.18 676.02 440.74 678 439.78C679.98 438.76 682.05 438.25 684.21 438.25C685.65 438.25 686.91 438.49 687.99 438.97C689.13 439.45 690.09 439.96 690.87 440.5C691.77 441.16 692.55 441.91 693.21 442.75C693.45 441.85 693.93 441.01 694.65 440.23C695.43 439.45 696.15 438.94 696.81 438.7H698.16C698.04 439.48 697.95 440.29 697.89 441.13C697.83 441.85 697.77 442.63 697.71 443.47C697.71 444.31 697.71 445.12 697.71 445.9C697.71 446.8 697.71 447.73 697.71 448.69C697.77 449.59 697.83 450.4 697.89 451.12C697.95 451.96 698.04 452.77 698.16 453.55H696.81C695.67 449.23 693.99 445.9 691.77 443.56C689.61 441.22 687.39 440.05 685.11 440.05ZM729.182 458.95C723.962 458.95 720.092 460.12 717.572 462.46C715.112 464.74 713.882 467.92 713.882 472C713.882 474.7 714.542 476.8 715.862 478.3C717.182 479.8 718.622 480.55 720.182 480.55C721.622 480.55 722.882 480.13 723.962 479.29C725.102 478.45 726.062 477.52 726.842 476.5C727.742 475.36 728.522 474.01 729.182 472.45V458.95ZM722.432 439.6C720.632 439.6 719.132 440.23 717.932 441.49C716.732 442.69 716.132 444.31 716.132 446.35C716.132 446.83 716.132 447.25 716.132 447.61C716.192 447.97 716.252 448.3 716.312 448.6C716.372 448.9 716.462 449.2 716.582 449.5L709.382 451.3C709.262 451.12 709.172 450.88 709.112 450.58C709.052 450.28 708.992 449.95 708.932 449.59C708.932 449.23 708.932 448.75 708.932 448.15C708.932 446.89 709.232 445.69 709.832 444.55C710.432 443.35 711.302 442.3 712.442 441.4C713.642 440.44 715.052 439.69 716.672 439.15C718.352 438.55 720.272 438.25 722.432 438.25C726.752 438.25 730.142 439.48 732.602 441.94C735.122 444.4 736.382 447.67 736.382 451.75V478.75L741.782 480.1V481H729.182V475.6C728.522 476.86 727.682 478 726.662 479.02C725.822 479.86 724.742 480.61 723.422 481.27C722.162 481.99 720.632 482.35 718.832 482.35C714.512 482.35 711.242 481.33 709.022 479.29C706.862 477.25 705.782 474.52 705.782 471.1C705.782 469.42 706.232 467.74 707.132 466.06C708.092 464.38 709.502 462.88 711.362 461.56C713.282 460.24 715.712 459.19 718.652 458.41C721.592 457.57 725.102 457.15 729.182 457.15V451.75C729.182 447.25 728.492 444.1 727.112 442.3C725.792 440.5 724.232 439.6 722.432 439.6ZM752.568 478.75V441.85L747.168 440.5V439.6H759.768V445C760.368 443.8 761.178 442.69 762.198 441.67C763.038 440.83 764.118 440.05 765.438 439.33C766.758 438.61 768.318 438.25 770.118 438.25C772.398 438.25 774.258 438.67 775.698 439.51C777.198 440.35 778.398 441.28 779.298 442.3C780.378 443.5 781.218 444.85 781.818 446.35C782.598 444.85 783.528 443.5 784.608 442.3C785.568 441.28 786.738 440.35 788.118 439.51C789.498 438.67 791.148 438.25 793.068 438.25C794.868 438.25 796.518 438.58 798.018 439.24C799.578 439.9 800.928 440.83 802.068 442.03C803.208 443.17 804.078 444.58 804.678 446.26C805.338 447.88 805.668 449.71 805.668 451.75V478.75L811.068 480.1V481H793.518V480.1L798.468 478.75V451.75C798.468 447.49 797.778 444.49 796.398 442.75C795.078 440.95 793.518 440.05 791.718 440.05C790.218 440.05 788.928 440.47 787.848 441.31C786.768 442.15 785.838 443.08 785.058 444.1C784.158 445.3 783.378 446.65 782.718 448.15V478.75L787.668 480.1V481H770.568V480.1L775.518 478.75V451.75C775.518 447.49 774.828 444.49 773.448 442.75C772.128 440.95 770.568 440.05 768.768 440.05C767.268 440.05 765.978 440.47 764.898 441.31C763.818 442.15 762.888 443.08 762.108 444.1C761.208 445.3 760.428 446.65 759.768 448.15V478.75L764.718 480.1V481H747.168V480.1L752.568 478.75ZM820.925 441.85L815.525 440.5V439.6H828.125V445C828.725 443.8 829.535 442.69 830.555 441.67C831.395 440.83 832.475 440.05 833.795 439.33C835.115 438.61 836.675 438.25 838.475 438.25C840.395 438.25 842.285 438.76 844.145 439.78C846.065 440.74 847.745 442.18 849.185 444.1C850.685 445.96 851.885 448.27 852.785 451.03C853.745 453.73 854.225 456.82 854.225 460.3C854.225 463.78 853.745 466.9 852.785 469.66C851.885 472.36 850.655 474.67 849.095 476.59C847.535 478.45 845.765 479.89 843.785 480.91C841.805 481.87 839.735 482.35 837.575 482.35C835.835 482.35 834.365 482.11 833.165 481.63C832.025 481.21 831.065 480.7 830.285 480.1C829.385 479.44 828.665 478.69 828.125 477.85V500.35L833.525 501.7V502.6H815.525V501.7L820.925 500.35V441.85ZM836.225 480.55C837.485 480.55 838.685 480.22 839.825 479.56C841.025 478.9 842.075 477.79 842.975 476.23C843.935 474.61 844.685 472.51 845.225 469.93C845.825 467.35 846.125 464.14 846.125 460.3C846.125 456.46 845.825 453.25 845.225 450.67C844.685 448.09 843.965 446.02 843.065 444.46C842.225 442.9 841.265 441.79 840.185 441.13C839.165 440.41 838.145 440.05 837.125 440.05C835.625 440.05 834.335 440.47 833.255 441.31C832.175 442.15 831.245 443.08 830.465 444.1C829.565 445.3 828.785 446.65 828.125 448.15V475.15C828.665 476.17 829.325 477.07 830.105 477.85C830.765 478.51 831.605 479.14 832.625 479.74C833.645 480.28 834.845 480.55 836.225 480.55ZM879.425 439.6C878.405 439.6 877.355 439.96 876.275 440.68C875.255 441.34 874.295 442.48 873.395 444.1C872.555 445.66 871.835 447.76 871.235 450.4C870.695 453.04 870.425 456.34 870.425 460.3C870.425 464.26 870.695 467.56 871.235 470.2C871.835 472.84 872.555 474.97 873.395 476.59C874.295 478.15 875.255 479.29 876.275 480.01C877.355 480.67 878.405 481 879.425 481C880.445 481 881.465 480.67 882.485 480.01C883.565 479.29 884.525 478.15 885.365 476.59C886.265 474.97 886.985 472.84 887.525 470.2C888.125 467.56 888.425 464.26 888.425 460.3C888.425 456.34 888.125 453.04 887.525 450.4C886.985 447.76 886.265 445.66 885.365 444.1C884.525 442.48 883.565 441.34 882.485 440.68C881.465 439.96 880.445 439.6 879.425 439.6ZM879.425 438.25C881.645 438.25 883.775 438.76 885.815 439.78C887.915 440.74 889.745 442.18 891.305 444.1C892.925 445.96 894.185 448.27 895.085 451.03C896.045 453.73 896.525 456.82 896.525 460.3C896.525 463.78 896.045 466.9 895.085 469.66C894.185 472.36 892.925 474.67 891.305 476.59C889.745 478.45 887.915 479.89 885.815 480.91C883.775 481.87 881.645 482.35 879.425 482.35C877.145 482.35 874.985 481.87 872.945 480.91C870.905 479.89 869.075 478.45 867.455 476.59C865.895 474.67 864.635 472.36 863.675 469.66C862.775 466.9 862.325 463.78 862.325 460.3C862.325 456.82 862.775 453.73 863.675 451.03C864.635 448.27 865.895 445.96 867.455 444.1C869.075 442.18 870.905 440.74 872.945 439.78C874.985 438.76 877.145 438.25 879.425 438.25ZM943.772 440.05C942.512 440.05 941.282 440.41 940.082 441.13C938.942 441.79 937.892 442.9 936.932 444.46C936.032 446.02 935.282 448.09 934.682 450.67C934.142 453.25 933.872 456.46 933.872 460.3C933.872 464.14 934.142 467.35 934.682 469.93C935.282 472.51 936.002 474.61 936.842 476.23C937.742 477.79 938.702 478.9 939.722 479.56C940.802 480.22 941.852 480.55 942.872 480.55C944.312 480.55 945.572 480.13 946.652 479.29C947.792 478.45 948.752 477.52 949.532 476.5C950.432 475.36 951.212 474.01 951.872 472.45V445.45C951.272 444.43 950.582 443.53 949.802 442.75C949.142 442.09 948.302 441.49 947.282 440.95C946.322 440.35 945.152 440.05 943.772 440.05ZM959.072 478.75L964.472 480.1V481H951.872V475.6C951.212 476.86 950.372 478 949.352 479.02C948.512 479.86 947.432 480.61 946.112 481.27C944.852 481.99 943.322 482.35 941.522 482.35C939.602 482.35 937.682 481.87 935.762 480.91C933.902 479.89 932.222 478.45 930.722 476.59C929.282 474.67 928.082 472.36 927.122 469.66C926.222 466.9 925.772 463.78 925.772 460.3C925.772 456.82 926.222 453.73 927.122 451.03C928.082 448.27 929.342 445.96 930.902 444.1C932.462 442.18 934.232 440.74 936.212 439.78C938.192 438.76 940.262 438.25 942.422 438.25C944.102 438.25 945.542 438.49 946.742 438.97C947.942 439.45 948.932 439.96 949.712 440.5C950.612 441.16 951.332 441.91 951.872 442.75V420.25L946.472 418.9V418H959.072V478.75ZM988.322 439.6C987.302 439.6 986.252 439.96 985.172 440.68C984.152 441.34 983.192 442.48 982.292 444.1C981.452 445.66 980.732 447.76 980.132 450.4C979.592 453.04 979.322 456.34 979.322 460.3C979.322 464.26 979.592 467.56 980.132 470.2C980.732 472.84 981.452 474.97 982.292 476.59C983.192 478.15 984.152 479.29 985.172 480.01C986.252 480.67 987.302 481 988.322 481C989.342 481 990.362 480.67 991.382 480.01C992.462 479.29 993.422 478.15 994.262 476.59C995.162 474.97 995.882 472.84 996.422 470.2C997.022 467.56 997.322 464.26 997.322 460.3C997.322 456.34 997.022 453.04 996.422 450.4C995.882 447.76 995.162 445.66 994.262 444.1C993.422 442.48 992.462 441.34 991.382 440.68C990.362 439.96 989.342 439.6 988.322 439.6ZM988.322 438.25C990.542 438.25 992.672 438.76 994.712 439.78C996.812 440.74 998.642 442.18 1000.2 444.1C1001.82 445.96 1003.08 448.27 1003.98 451.03C1004.94 453.73 1005.42 456.82 1005.42 460.3C1005.42 463.78 1004.94 466.9 1003.98 469.66C1003.08 472.36 1001.82 474.67 1000.2 476.59C998.642 478.45 996.812 479.89 994.712 480.91C992.672 481.87 990.542 482.35 988.322 482.35C986.042 482.35 983.882 481.87 981.842 480.91C979.802 479.89 977.972 478.45 976.352 476.59C974.792 474.67 973.532 472.36 972.572 469.66C971.672 466.9 971.222 463.78 971.222 460.3C971.222 456.82 971.672 453.73 972.572 451.03C973.532 448.27 974.792 445.96 976.352 444.1C977.972 442.18 979.802 440.74 981.842 439.78C983.882 438.76 986.042 438.25 988.322 438.25ZM117.6 540.05C116.34 540.05 115.11 540.41 113.91 541.13C112.77 541.79 111.72 542.9 110.76 544.46C109.86 546.02 109.11 548.09 108.51 550.67C107.97 553.25 107.7 556.46 107.7 560.3C107.7 564.14 107.97 567.35 108.51 569.93C109.11 572.51 109.83 574.61 110.67 576.23C111.57 577.79 112.53 578.9 113.55 579.56C114.63 580.22 115.68 580.55 116.7 580.55C118.14 580.55 119.4 580.13 120.48 579.29C121.62 578.45 122.58 577.52 123.36 576.5C124.26 575.36 125.04 574.01 125.7 572.45V545.45C125.1 544.43 124.41 543.53 123.63 542.75C122.97 542.09 122.13 541.49 121.11 540.95C120.15 540.35 118.98 540.05 117.6 540.05ZM132.9 578.75L138.3 580.1V581H125.7V575.6C125.04 576.86 124.2 578 123.18 579.02C122.34 579.86 121.26 580.61 119.94 581.27C118.68 581.99 117.15 582.35 115.35 582.35C113.43 582.35 111.51 581.87 109.59 580.91C107.73 579.89 106.05 578.45 104.55 576.59C103.11 574.67 101.91 572.36 100.95 569.66C100.05 566.9 99.6 563.78 99.6 560.3C99.6 556.82 100.05 553.73 100.95 551.03C101.91 548.27 103.17 545.96 104.73 544.1C106.29 542.18 108.06 540.74 110.04 539.78C112.02 538.76 114.09 538.25 116.25 538.25C117.93 538.25 119.37 538.49 120.57 538.97C121.77 539.45 122.76 539.96 123.54 540.5C124.44 541.16 125.16 541.91 125.7 542.75V520.25L120.3 518.9V518H132.9V578.75ZM153.15 560.3C153.15 564.14 153.42 567.35 153.96 569.93C154.56 572.51 155.31 574.61 156.21 576.23C157.17 577.79 158.22 578.9 159.36 579.56C160.56 580.22 161.79 580.55 163.05 580.55C164.61 580.55 166.08 580.25 167.46 579.65C168.84 579.05 170.07 578.24 171.15 577.22C172.23 576.2 173.1 574.97 173.76 573.53C174.48 572.09 174.96 570.53 175.2 568.85H176.55C176.31 570.77 175.77 572.57 174.93 574.25C174.15 575.87 173.13 577.28 171.87 578.48C170.61 579.68 169.14 580.61 167.46 581.27C165.84 581.99 164.07 582.35 162.15 582.35C159.87 582.35 157.71 581.87 155.67 580.91C153.63 579.89 151.8 578.45 150.18 576.59C148.62 574.67 147.36 572.36 146.4 569.66C145.5 566.9 145.05 563.78 145.05 560.3C145.05 556.7 145.5 553.52 146.4 550.76C147.3 548 148.47 545.72 149.91 543.92C151.41 542.06 153.12 540.65 155.04 539.69C157.02 538.73 159.09 538.25 161.25 538.25C163.41 538.25 165.45 538.73 167.37 539.69C169.35 540.65 171.06 542.06 172.5 543.92C174 545.72 175.2 548 176.1 550.76C177 553.52 177.45 556.7 177.45 560.3H153.15ZM161.25 539.6C160.35 539.6 159.45 539.9 158.55 540.5C157.65 541.04 156.81 542.03 156.03 543.47C155.25 544.91 154.59 546.86 154.05 549.32C153.57 551.72 153.27 554.78 153.15 558.5H169.35C169.23 554.78 168.9 551.72 168.36 549.32C167.88 546.86 167.25 544.91 166.47 543.47C165.69 542.03 164.85 541.04 163.95 540.5C163.05 539.9 162.15 539.6 161.25 539.6ZM200.428 582.35C198.508 582.35 196.858 582.11 195.478 581.63C194.098 581.21 192.988 580.7 192.148 580.1C191.128 579.44 190.288 578.69 189.628 577.85C189.388 578.75 188.878 579.59 188.098 580.37C187.378 581.15 186.688 581.66 186.028 581.9H184.678C184.738 581.12 184.798 580.31 184.858 579.47C184.918 578.75 184.978 578 185.038 577.22C185.098 576.38 185.128 575.54 185.128 574.7C185.128 573.8 185.098 572.9 185.038 572C184.978 571.1 184.918 570.29 184.858 569.57C184.798 568.73 184.738 567.89 184.678 567.05H186.028C187.168 571.37 188.908 574.7 191.248 577.04C193.588 579.38 196.348 580.55 199.528 580.55C202.048 580.55 204.088 579.77 205.648 578.21C207.268 576.65 208.078 574.73 208.078 572.45C208.078 570.83 207.508 569.42 206.368 568.22C205.288 567.02 203.908 565.94 202.228 564.98C200.548 563.96 198.748 562.97 196.828 562.01C194.908 561.05 193.108 559.97 191.428 558.77C189.748 557.57 188.338 556.16 187.198 554.54C186.118 552.92 185.578 550.94 185.578 548.6C185.578 547.28 185.878 545.99 186.478 544.73C187.078 543.47 187.888 542.36 188.908 541.4C189.988 540.44 191.278 539.69 192.778 539.15C194.278 538.55 195.928 538.25 197.728 538.25C199.288 538.25 200.638 538.49 201.778 538.97C202.978 539.45 203.998 539.96 204.838 540.5C205.738 541.16 206.518 541.91 207.178 542.75C207.418 541.85 207.898 541.01 208.618 540.23C209.398 539.45 210.118 538.94 210.778 538.7H212.128C212.008 539.48 211.918 540.29 211.858 541.13C211.798 541.85 211.738 542.63 211.678 543.47C211.678 544.31 211.678 545.12 211.678 545.9C211.678 546.8 211.678 547.73 211.678 548.69C211.738 549.59 211.798 550.4 211.858 551.12C211.918 551.96 212.008 552.77 212.128 553.55H210.778C209.638 549.23 207.958 545.9 205.738 543.56C203.518 541.22 201.148 540.05 198.628 540.05C196.588 540.05 194.878 540.74 193.498 542.12C192.118 543.44 191.428 545 191.428 546.8C191.428 548.3 191.998 549.59 193.138 550.67C194.278 551.75 195.688 552.77 197.368 553.73C199.048 554.63 200.878 555.56 202.858 556.52C204.898 557.48 206.758 558.59 208.438 559.85C210.118 561.11 211.528 562.61 212.668 564.35C213.808 566.09 214.378 568.19 214.378 570.65C214.378 572.09 214.018 573.53 213.298 574.97C212.638 576.35 211.678 577.61 210.418 578.75C209.218 579.83 207.748 580.7 206.008 581.36C204.328 582.02 202.468 582.35 200.428 582.35ZM226.103 578.75V541.85L220.703 540.5V539.6H233.303V578.75L238.703 580.1V581H220.703V580.1L226.103 578.75ZM233.753 529.25C233.753 530.39 233.273 531.44 232.313 532.4C231.413 533.3 230.393 533.75 229.253 533.75C228.113 533.75 227.063 533.3 226.103 532.4C225.203 531.44 224.753 530.39 224.753 529.25C224.753 528.11 225.203 527.09 226.103 526.19C227.063 525.23 228.113 524.75 229.253 524.75C230.393 524.75 231.413 525.23 232.313 526.19C233.273 527.09 233.753 528.11 233.753 529.25ZM260.732 567.5C261.752 567.5 262.742 567.26 263.702 566.78C264.662 566.24 265.532 565.4 266.312 564.26C267.092 563.12 267.692 561.68 268.112 559.94C268.592 558.14 268.832 556.01 268.832 553.55C268.832 551.09 268.592 548.99 268.112 547.25C267.692 545.45 267.092 544.01 266.312 542.93C265.532 541.79 264.662 540.95 263.702 540.41C262.742 539.87 261.752 539.6 260.732 539.6C259.712 539.6 258.722 539.87 257.762 540.41C256.802 540.95 255.932 541.79 255.152 542.93C254.372 544.01 253.742 545.45 253.262 547.25C252.842 548.99 252.632 551.09 252.632 553.55C252.632 556.01 252.842 558.14 253.262 559.94C253.742 561.68 254.372 563.12 255.152 564.26C255.932 565.4 256.802 566.24 257.762 566.78C258.722 567.26 259.712 567.5 260.732 567.5ZM262.532 602.24C264.752 602.24 266.762 601.91 268.562 601.25C270.362 600.65 271.862 599.81 273.062 598.73C274.322 597.65 275.282 596.39 275.942 594.95C276.602 593.51 276.932 592.01 276.932 590.45C276.932 584.75 274.082 581.9 268.382 581.9H253.982C250.562 581.9 248.042 581.21 246.422 579.83C244.862 578.45 244.082 576.74 244.082 574.7C244.082 573.32 244.412 572.12 245.072 571.1C245.792 570.02 246.572 569.06 247.412 568.22C248.432 567.32 249.572 566.48 250.832 565.7C249.632 564.92 248.582 563.96 247.682 562.82C246.842 561.8 246.092 560.54 245.432 559.04C244.832 557.54 244.532 555.71 244.532 553.55C244.532 551.39 244.922 549.38 245.702 547.52C246.542 545.66 247.682 544.04 249.122 542.66C250.562 541.28 252.272 540.2 254.252 539.42C256.232 538.64 258.392 538.25 260.732 538.25C261.752 538.25 262.742 538.34 263.702 538.52C264.662 538.7 265.532 538.91 266.312 539.15C267.212 539.39 268.052 539.69 268.832 540.05C269.312 539.39 269.882 538.79 270.542 538.25C271.142 537.77 271.892 537.35 272.792 536.99C273.692 536.63 274.772 536.45 276.032 536.45C278.072 536.45 279.662 536.84 280.802 537.62C282.002 538.34 282.932 539.15 283.592 540.05C284.312 541.13 284.792 542.33 285.032 543.65L278.282 545C278.102 543.8 277.832 542.69 277.472 541.67C277.172 540.83 276.752 540.05 276.212 539.33C275.672 538.61 275.012 538.25 274.232 538.25C273.572 538.25 272.972 538.4 272.432 538.7C271.892 539 271.472 539.3 271.172 539.6C270.752 540.02 270.422 540.47 270.182 540.95C272.462 542.33 274.142 544.1 275.222 546.26C276.362 548.42 276.932 550.85 276.932 553.55C276.932 555.71 276.512 557.72 275.672 559.58C274.892 561.44 273.782 563.06 272.342 564.44C270.902 565.82 269.192 566.9 267.212 567.68C265.232 568.46 263.072 568.85 260.732 568.85C259.472 568.85 258.332 568.76 257.312 568.58C256.292 568.34 255.392 568.07 254.612 567.77C253.712 567.47 252.902 567.08 252.182 566.6C251.342 567.14 250.592 567.71 249.932 568.31C249.332 568.79 248.792 569.36 248.312 570.02C247.892 570.68 247.682 571.34 247.682 572C247.682 572.9 248.102 573.65 248.942 574.25C249.782 574.79 251.462 575.06 253.982 575.06H268.382C271.982 575.06 274.892 576.23 277.112 578.57C279.392 580.85 280.532 583.91 280.532 587.75C280.532 590.03 280.082 592.13 279.182 594.05C278.342 596.03 277.142 597.74 275.582 599.18C274.022 600.68 272.132 601.85 269.912 602.69C267.692 603.53 265.232 603.95 262.532 603.95C259.172 603.95 256.232 603.56 253.712 602.78C251.252 602.06 249.212 601.04 247.592 599.72C245.972 598.46 244.742 596.96 243.902 595.22C243.122 593.48 242.732 591.59 242.732 589.55C242.732 588.77 242.822 588.05 243.002 587.39C243.182 586.79 243.392 586.28 243.632 585.86C243.872 585.38 244.172 584.96 244.532 584.6L251.282 587.3C251.102 587.72 250.952 588.17 250.832 588.65C250.532 589.55 250.382 590.45 250.382 591.35C250.382 594.53 251.432 597.14 253.532 599.18C255.692 601.22 258.692 602.24 262.532 602.24ZM293.163 578.75V541.85L287.763 540.5V539.6H300.363V545C300.963 543.8 301.773 542.69 302.793 541.67C303.633 540.83 304.713 540.05 306.033 539.33C307.353 538.61 308.913 538.25 310.713 538.25C312.513 538.25 314.163 538.58 315.663 539.24C317.223 539.9 318.573 540.83 319.713 542.03C320.853 543.17 321.723 544.58 322.323 546.26C322.983 547.88 323.313 549.71 323.313 551.75V578.75L328.713 580.1V581H311.163V580.1L316.113 578.75V551.75C316.113 547.49 315.423 544.49 314.043 542.75C312.723 540.95 311.163 540.05 309.363 540.05C307.863 540.05 306.573 540.47 305.493 541.31C304.413 542.15 303.483 543.08 302.703 544.1C301.803 545.3 301.023 546.65 300.363 548.15V578.75L305.313 580.1V581H287.763V580.1L293.163 578.75ZM334.532 576.95C334.532 575.57 335.012 574.4 335.972 573.44C336.932 572.48 338.102 572 339.482 572C340.862 572 342.032 572.48 342.992 573.44C343.952 574.4 344.432 575.57 344.432 576.95C344.432 578.33 343.952 579.5 342.992 580.46C342.032 581.42 340.862 581.9 339.482 581.9C338.102 581.9 336.932 581.42 335.972 580.46C335.012 579.5 334.532 578.33 334.532 576.95ZM334.532 543.65C334.532 542.27 335.012 541.1 335.972 540.14C336.932 539.18 338.102 538.7 339.482 538.7C340.862 538.7 342.032 539.18 342.992 540.14C343.952 541.1 344.432 542.27 344.432 543.65C344.432 545.03 343.952 546.2 342.992 547.16C342.032 548.12 340.862 548.6 339.482 548.6C338.102 548.6 336.932 548.12 335.972 547.16C335.012 546.2 334.532 545.03 334.532 543.65Z" fill="white"/>
</svg>
