<svg width="1300" height="976" viewBox="0 0 1300 976" fill="none" xmlns="http://www.w3.org/2000/svg">
<g clip-path="url(#clip0_633_267)">
<path d="M114 280.3C110.52 280.3 107.94 281.08 106.26 282.64C104.62 284.16 103.8 286.28 103.8 289C103.8 290.8 104.24 292.2 105.12 293.2C106 294.2 106.96 294.7 108 294.7C108.96 294.7 109.8 294.42 110.52 293.86C111.28 293.3 111.92 292.68 112.44 292C113.04 291.24 113.56 290.34 114 289.3V280.3ZM109.5 267.4C108.3 267.4 107.3 267.82 106.5 268.66C105.7 269.46 105.3 270.54 105.3 271.9C105.3 272.22 105.3 272.5 105.3 272.74C105.34 272.98 105.38 273.2 105.42 273.4C105.46 273.6 105.52 273.8 105.6 274L100.8 275.2C100.72 275.08 100.66 274.92 100.62 274.72C100.58 274.52 100.54 274.3 100.5 274.06C100.5 273.82 100.5 273.5 100.5 273.1C100.5 272.26 100.7 271.46 101.1 270.7C101.5 269.9 102.08 269.2 102.84 268.6C103.64 267.96 104.58 267.46 105.66 267.1C106.78 266.7 108.06 266.5 109.5 266.5C112.38 266.5 114.64 267.32 116.28 268.96C117.96 270.6 118.8 272.78 118.8 275.5V293.5L122.4 294.4V295H114V291.4C113.56 292.24 113 293 112.32 293.68C111.76 294.24 111.04 294.74 110.16 295.18C109.32 295.66 108.3 295.9 107.1 295.9C104.22 295.9 102.04 295.22 100.56 293.86C99.12 292.5 98.4 290.68 98.4 288.4C98.4 287.28 98.7 286.16 99.3 285.04C99.94 283.92 100.88 282.92 102.12 282.04C103.4 281.16 105.02 280.46 106.98 279.94C108.94 279.38 111.28 279.1 114 279.1V275.5C114 272.5 113.54 270.4 112.62 269.2C111.74 268 110.7 267.4 109.5 267.4ZM136.791 295.9C135.511 295.9 134.411 295.74 133.491 295.42C132.571 295.14 131.831 294.8 131.271 294.4C130.591 293.96 130.031 293.46 129.591 292.9C129.431 293.5 129.091 294.06 128.571 294.58C128.091 295.1 127.631 295.44 127.191 295.6H126.291C126.331 295.08 126.371 294.54 126.411 293.98C126.451 293.5 126.491 293 126.531 292.48C126.571 291.92 126.591 291.36 126.591 290.8C126.591 290.2 126.571 289.6 126.531 289C126.491 288.4 126.451 287.86 126.411 287.38C126.371 286.82 126.331 286.26 126.291 285.7H127.191C127.951 288.58 129.111 290.8 130.671 292.36C132.231 293.92 134.071 294.7 136.191 294.7C137.871 294.7 139.231 294.18 140.271 293.14C141.351 292.1 141.891 290.82 141.891 289.3C141.891 288.22 141.511 287.28 140.751 286.48C140.031 285.68 139.111 284.96 137.991 284.32C136.871 283.64 135.671 282.98 134.391 282.34C133.111 281.7 131.911 280.98 130.791 280.18C129.671 279.38 128.731 278.44 127.971 277.36C127.251 276.28 126.891 274.96 126.891 273.4C126.891 272.52 127.091 271.66 127.491 270.82C127.891 269.98 128.431 269.24 129.111 268.6C129.831 267.96 130.691 267.46 131.691 267.1C132.691 266.7 133.791 266.5 134.991 266.5C136.031 266.5 136.931 266.66 137.691 266.98C138.491 267.3 139.171 267.64 139.731 268C140.331 268.44 140.851 268.94 141.291 269.5C141.451 268.9 141.771 268.34 142.251 267.82C142.771 267.3 143.251 266.96 143.691 266.8H144.591C144.511 267.32 144.451 267.86 144.411 268.42C144.371 268.9 144.331 269.42 144.291 269.98C144.291 270.54 144.291 271.08 144.291 271.6C144.291 272.2 144.291 272.82 144.291 273.46C144.331 274.06 144.371 274.6 144.411 275.08C144.451 275.64 144.511 276.18 144.591 276.7H143.691C142.931 273.82 141.811 271.6 140.331 270.04C138.851 268.48 137.271 267.7 135.591 267.7C134.231 267.7 133.091 268.16 132.171 269.08C131.251 269.96 130.791 271 130.791 272.2C130.791 273.2 131.171 274.06 131.931 274.78C132.691 275.5 133.631 276.18 134.751 276.82C135.871 277.42 137.091 278.04 138.411 278.68C139.771 279.32 141.011 280.06 142.131 280.9C143.251 281.74 144.191 282.74 144.951 283.9C145.711 285.06 146.091 286.46 146.091 288.1C146.091 289.06 145.851 290.02 145.371 290.98C144.931 291.9 144.291 292.74 143.451 293.5C142.651 294.22 141.671 294.8 140.511 295.24C139.391 295.68 138.151 295.9 136.791 295.9ZM153.307 268.9L149.707 268V267.4H158.107V271C158.507 270.2 159.047 269.46 159.727 268.78C160.287 268.22 161.007 267.7 161.887 267.22C162.767 266.74 163.807 266.5 165.007 266.5C166.287 266.5 167.547 266.84 168.787 267.52C170.067 268.16 171.187 269.12 172.147 270.4C173.147 271.64 173.947 273.18 174.547 275.02C175.187 276.82 175.507 278.88 175.507 281.2C175.507 283.52 175.187 285.6 174.547 287.44C173.947 289.24 173.127 290.78 172.087 292.06C171.047 293.3 169.867 294.26 168.547 294.94C167.227 295.58 165.847 295.9 164.407 295.9C163.247 295.9 162.267 295.74 161.467 295.42C160.707 295.14 160.067 294.8 159.547 294.4C158.947 293.96 158.467 293.46 158.107 292.9V307.9L161.707 308.8V309.4H149.707V308.8L153.307 307.9V268.9ZM163.507 294.7C164.347 294.7 165.147 294.48 165.907 294.04C166.707 293.6 167.407 292.86 168.007 291.82C168.647 290.74 169.147 289.34 169.507 287.62C169.907 285.9 170.107 283.76 170.107 281.2C170.107 278.64 169.907 276.5 169.507 274.78C169.147 273.06 168.667 271.68 168.067 270.64C167.507 269.6 166.867 268.86 166.147 268.42C165.467 267.94 164.787 267.7 164.107 267.7C163.107 267.7 162.247 267.98 161.527 268.54C160.807 269.1 160.187 269.72 159.667 270.4C159.067 271.2 158.547 272.1 158.107 273.1V291.1C158.467 291.78 158.907 292.38 159.427 292.9C159.867 293.34 160.427 293.76 161.107 294.16C161.787 294.52 162.587 294.7 163.507 294.7ZM186.307 281.2C186.307 283.76 186.487 285.9 186.847 287.62C187.247 289.34 187.747 290.74 188.347 291.82C188.987 292.86 189.687 293.6 190.447 294.04C191.247 294.48 192.067 294.7 192.907 294.7C193.947 294.7 194.927 294.5 195.847 294.1C196.767 293.7 197.587 293.16 198.307 292.48C199.027 291.8 199.607 290.98 200.047 290.02C200.527 289.06 200.847 288.02 201.007 286.9H201.907C201.747 288.18 201.387 289.38 200.827 290.5C200.307 291.58 199.627 292.52 198.787 293.32C197.947 294.12 196.967 294.74 195.847 295.18C194.767 295.66 193.587 295.9 192.307 295.9C190.787 295.9 189.347 295.58 187.987 294.94C186.627 294.26 185.407 293.3 184.327 292.06C183.287 290.78 182.447 289.24 181.807 287.44C181.207 285.6 180.907 283.52 180.907 281.2C180.907 278.8 181.207 276.68 181.807 274.84C182.407 273 183.187 271.48 184.147 270.28C185.147 269.04 186.287 268.1 187.567 267.46C188.887 266.82 190.267 266.5 191.707 266.5C193.147 266.5 194.507 266.82 195.787 267.46C197.107 268.1 198.247 269.04 199.207 270.28C200.207 271.48 201.007 273 201.607 274.84C202.207 276.68 202.507 278.8 202.507 281.2H186.307ZM191.707 267.4C191.107 267.4 190.507 267.6 189.907 268C189.307 268.36 188.747 269.02 188.227 269.98C187.707 270.94 187.267 272.24 186.907 273.88C186.587 275.48 186.387 277.52 186.307 280H197.107C197.027 277.52 196.807 275.48 196.447 273.88C196.127 272.24 195.707 270.94 195.187 269.98C194.667 269.02 194.107 268.36 193.507 268C192.907 267.6 192.307 267.4 191.707 267.4ZM219.326 267.7C218.566 267.7 217.806 267.94 217.046 268.42C216.326 268.86 215.666 269.6 215.066 270.64C214.466 271.68 213.966 273.06 213.566 274.78C213.206 276.5 213.026 278.64 213.026 281.2C213.026 283.76 213.206 285.9 213.566 287.62C213.966 289.34 214.486 290.74 215.126 291.82C215.766 292.86 216.486 293.6 217.286 294.04C218.126 294.48 219.006 294.7 219.926 294.7C220.966 294.7 221.946 294.5 222.866 294.1C223.786 293.7 224.606 293.16 225.326 292.48C226.046 291.8 226.626 290.98 227.066 290.02C227.546 289.06 227.866 288.02 228.026 286.9H228.926C228.766 288.18 228.406 289.38 227.846 290.5C227.326 291.58 226.646 292.52 225.806 293.32C224.966 294.12 223.986 294.74 222.866 295.18C221.786 295.66 220.606 295.9 219.326 295.9C217.766 295.9 216.266 295.58 214.826 294.94C213.426 294.26 212.186 293.3 211.106 292.06C210.026 290.78 209.166 289.24 208.526 287.44C207.926 285.6 207.626 283.52 207.626 281.2C207.626 278.88 207.926 276.82 208.526 275.02C209.166 273.18 210.006 271.64 211.046 270.4C212.086 269.12 213.266 268.16 214.586 267.52C215.906 266.84 217.286 266.5 218.726 266.5C219.686 266.5 220.526 266.66 221.246 266.98C222.006 267.3 222.646 267.64 223.166 268C223.766 268.44 224.286 268.94 224.726 269.5C224.886 268.9 225.206 268.34 225.686 267.82C226.206 267.3 226.686 266.96 227.126 266.8H228.026C227.946 267.32 227.886 267.86 227.846 268.42C227.806 268.9 227.766 269.42 227.726 269.98C227.726 270.54 227.726 271.08 227.726 271.6C227.726 272.2 227.726 272.82 227.726 273.46C227.766 274.06 227.806 274.6 227.846 275.08C227.886 275.64 227.946 276.18 228.026 276.7H227.126C226.366 273.82 225.246 271.6 223.766 270.04C222.326 268.48 220.846 267.7 219.326 267.7ZM248.107 267.4V268.6H241.207V287.74C241.207 290.18 241.647 291.96 242.527 293.08C243.407 294.16 244.367 294.7 245.407 294.7C246.767 294.7 247.907 294.2 248.827 293.2C249.787 292.16 250.347 290.66 250.507 288.7H251.407C251.247 290.98 250.547 292.76 249.307 294.04C248.107 295.28 246.607 295.9 244.807 295.9C242.247 295.9 240.207 295.16 238.687 293.68C237.167 292.16 236.407 290.2 236.407 287.8V268.6H231.307V267.4H236.407V260.5L241.207 257.2V267.4H248.107ZM265.549 267.4C264.869 267.4 264.169 267.64 263.449 268.12C262.769 268.56 262.129 269.32 261.529 270.4C260.969 271.44 260.489 272.84 260.089 274.6C259.729 276.36 259.549 278.56 259.549 281.2C259.549 283.84 259.729 286.04 260.089 287.8C260.489 289.56 260.969 290.98 261.529 292.06C262.129 293.1 262.769 293.86 263.449 294.34C264.169 294.78 264.869 295 265.549 295C266.229 295 266.909 294.78 267.589 294.34C268.309 293.86 268.949 293.1 269.509 292.06C270.109 290.98 270.589 289.56 270.949 287.8C271.349 286.04 271.549 283.84 271.549 281.2C271.549 278.56 271.349 276.36 270.949 274.6C270.589 272.84 270.109 271.44 269.509 270.4C268.949 269.32 268.309 268.56 267.589 268.12C266.909 267.64 266.229 267.4 265.549 267.4ZM265.549 266.5C267.029 266.5 268.449 266.84 269.809 267.52C271.209 268.16 272.429 269.12 273.469 270.4C274.549 271.64 275.389 273.18 275.989 275.02C276.629 276.82 276.949 278.88 276.949 281.2C276.949 283.52 276.629 285.6 275.989 287.44C275.389 289.24 274.549 290.78 273.469 292.06C272.429 293.3 271.209 294.26 269.809 294.94C268.449 295.58 267.029 295.9 265.549 295.9C264.029 295.9 262.589 295.58 261.229 294.94C259.869 294.26 258.649 293.3 257.569 292.06C256.529 290.78 255.689 289.24 255.049 287.44C254.449 285.6 254.149 283.52 254.149 281.2C254.149 278.88 254.449 276.82 255.049 275.02C255.689 273.18 256.529 271.64 257.569 270.4C258.649 269.12 259.869 268.16 261.229 267.52C262.589 266.84 264.029 266.5 265.549 266.5ZM292.533 295.9C291.253 295.9 290.153 295.74 289.233 295.42C288.313 295.14 287.573 294.8 287.013 294.4C286.333 293.96 285.773 293.46 285.333 292.9C285.173 293.5 284.833 294.06 284.313 294.58C283.833 295.1 283.373 295.44 282.933 295.6H282.033C282.073 295.08 282.113 294.54 282.153 293.98C282.193 293.5 282.233 293 282.273 292.48C282.313 291.92 282.333 291.36 282.333 290.8C282.333 290.2 282.313 289.6 282.273 289C282.233 288.4 282.193 287.86 282.153 287.38C282.113 286.82 282.073 286.26 282.033 285.7H282.933C283.693 288.58 284.853 290.8 286.413 292.36C287.973 293.92 289.813 294.7 291.933 294.7C293.613 294.7 294.973 294.18 296.013 293.14C297.093 292.1 297.633 290.82 297.633 289.3C297.633 288.22 297.253 287.28 296.493 286.48C295.773 285.68 294.853 284.96 293.733 284.32C292.613 283.64 291.413 282.98 290.133 282.34C288.853 281.7 287.653 280.98 286.533 280.18C285.413 279.38 284.473 278.44 283.713 277.36C282.993 276.28 282.633 274.96 282.633 273.4C282.633 272.52 282.833 271.66 283.233 270.82C283.633 269.98 284.173 269.24 284.853 268.6C285.573 267.96 286.433 267.46 287.433 267.1C288.433 266.7 289.533 266.5 290.733 266.5C291.773 266.5 292.673 266.66 293.433 266.98C294.233 267.3 294.913 267.64 295.473 268C296.073 268.44 296.593 268.94 297.033 269.5C297.193 268.9 297.513 268.34 297.993 267.82C298.513 267.3 298.993 266.96 299.433 266.8H300.333C300.253 267.32 300.193 267.86 300.153 268.42C300.113 268.9 300.073 269.42 300.033 269.98C300.033 270.54 300.033 271.08 300.033 271.6C300.033 272.2 300.033 272.82 300.033 273.46C300.073 274.06 300.113 274.6 300.153 275.08C300.193 275.64 300.253 276.18 300.333 276.7H299.433C298.673 273.82 297.553 271.6 296.073 270.04C294.593 268.48 293.013 267.7 291.333 267.7C289.973 267.7 288.833 268.16 287.913 269.08C286.993 269.96 286.533 271 286.533 272.2C286.533 273.2 286.913 274.06 287.673 274.78C288.433 275.5 289.373 276.18 290.493 276.82C291.613 277.42 292.833 278.04 294.153 278.68C295.513 279.32 296.753 280.06 297.873 280.9C298.993 281.74 299.933 282.74 300.693 283.9C301.453 285.06 301.833 286.46 301.833 288.1C301.833 289.06 301.593 290.02 301.113 290.98C300.673 291.9 300.033 292.74 299.193 293.5C298.393 294.22 297.413 294.8 296.253 295.24C295.133 295.68 293.893 295.9 292.533 295.9ZM332.763 267.7C331.923 267.7 331.103 267.94 330.303 268.42C329.543 268.86 328.843 269.6 328.203 270.64C327.603 271.68 327.103 273.06 326.703 274.78C326.343 276.5 326.163 278.64 326.163 281.2C326.163 283.76 326.343 285.9 326.703 287.62C327.103 289.34 327.583 290.74 328.143 291.82C328.743 292.86 329.383 293.6 330.063 294.04C330.783 294.48 331.483 294.7 332.163 294.7C333.123 294.7 333.963 294.42 334.683 293.86C335.443 293.3 336.083 292.68 336.603 292C337.203 291.24 337.723 290.34 338.163 289.3V271.3C337.763 270.62 337.303 270.02 336.783 269.5C336.343 269.06 335.783 268.66 335.103 268.3C334.463 267.9 333.683 267.7 332.763 267.7ZM342.963 293.5L346.563 294.4V295H338.163V291.4C337.723 292.24 337.163 293 336.483 293.68C335.923 294.24 335.203 294.74 334.323 295.18C333.483 295.66 332.463 295.9 331.263 295.9C329.983 295.9 328.703 295.58 327.423 294.94C326.183 294.26 325.063 293.3 324.063 292.06C323.103 290.78 322.303 289.24 321.663 287.44C321.063 285.6 320.763 283.52 320.763 281.2C320.763 278.88 321.063 276.82 321.663 275.02C322.303 273.18 323.143 271.64 324.183 270.4C325.223 269.12 326.403 268.16 327.723 267.52C329.043 266.84 330.423 266.5 331.863 266.5C332.983 266.5 333.943 266.66 334.743 266.98C335.543 267.3 336.203 267.64 336.723 268C337.323 268.44 337.803 268.94 338.163 269.5V254.5L334.563 253.6V253H342.963V293.5ZM356.463 281.2C356.463 283.76 356.643 285.9 357.003 287.62C357.403 289.34 357.903 290.74 358.503 291.82C359.143 292.86 359.843 293.6 360.603 294.04C361.403 294.48 362.223 294.7 363.063 294.7C364.103 294.7 365.083 294.5 366.003 294.1C366.923 293.7 367.743 293.16 368.463 292.48C369.183 291.8 369.763 290.98 370.203 290.02C370.683 289.06 371.003 288.02 371.163 286.9H372.063C371.903 288.18 371.543 289.38 370.983 290.5C370.463 291.58 369.783 292.52 368.943 293.32C368.103 294.12 367.123 294.74 366.003 295.18C364.923 295.66 363.743 295.9 362.463 295.9C360.943 295.9 359.503 295.58 358.143 294.94C356.783 294.26 355.563 293.3 354.483 292.06C353.443 290.78 352.603 289.24 351.963 287.44C351.363 285.6 351.063 283.52 351.063 281.2C351.063 278.8 351.363 276.68 351.963 274.84C352.563 273 353.343 271.48 354.303 270.28C355.303 269.04 356.443 268.1 357.723 267.46C359.043 266.82 360.423 266.5 361.863 266.5C363.303 266.5 364.663 266.82 365.943 267.46C367.263 268.1 368.403 269.04 369.363 270.28C370.363 271.48 371.163 273 371.763 274.84C372.363 276.68 372.663 278.8 372.663 281.2H356.463ZM361.863 267.4C361.263 267.4 360.663 267.6 360.063 268C359.463 268.36 358.903 269.02 358.383 269.98C357.863 270.94 357.423 272.24 357.063 273.88C356.743 275.48 356.543 277.52 356.463 280H367.263C367.183 277.52 366.963 275.48 366.603 273.88C366.283 272.24 365.863 270.94 365.343 269.98C364.823 269.02 364.263 268.36 363.663 268C363.063 267.6 362.463 267.4 361.863 267.4ZM394.596 268.9L390.996 268V267.4H399.396V271C399.796 270.2 400.336 269.46 401.016 268.78C401.576 268.22 402.296 267.7 403.176 267.22C404.056 266.74 405.096 266.5 406.296 266.5C407.576 266.5 408.836 266.84 410.076 267.52C411.356 268.16 412.476 269.12 413.436 270.4C414.436 271.64 415.236 273.18 415.836 275.02C416.476 276.82 416.796 278.88 416.796 281.2C416.796 283.52 416.476 285.6 415.836 287.44C415.236 289.24 414.416 290.78 413.376 292.06C412.336 293.3 411.156 294.26 409.836 294.94C408.516 295.58 407.136 295.9 405.696 295.9C404.536 295.9 403.556 295.74 402.756 295.42C401.996 295.14 401.356 294.8 400.836 294.4C400.236 293.96 399.756 293.46 399.396 292.9V307.9L402.996 308.8V309.4H390.996V308.8L394.596 307.9V268.9ZM404.796 294.7C405.636 294.7 406.436 294.48 407.196 294.04C407.996 293.6 408.696 292.86 409.296 291.82C409.936 290.74 410.436 289.34 410.796 287.62C411.196 285.9 411.396 283.76 411.396 281.2C411.396 278.64 411.196 276.5 410.796 274.78C410.436 273.06 409.956 271.68 409.356 270.64C408.796 269.6 408.156 268.86 407.436 268.42C406.756 267.94 406.076 267.7 405.396 267.7C404.396 267.7 403.536 267.98 402.816 268.54C402.096 269.1 401.476 269.72 400.956 270.4C400.356 271.2 399.836 272.1 399.396 273.1V291.1C399.756 291.78 400.196 292.38 400.716 292.9C401.156 293.34 401.716 293.76 402.396 294.16C403.076 294.52 403.876 294.7 404.796 294.7ZM429.996 293.5L433.596 294.4V295H421.596V294.4L425.196 293.5V268.9L421.596 268V267.4H429.996V274.6C430.516 273.12 431.136 271.78 431.856 270.58C432.496 269.54 433.276 268.6 434.196 267.76C435.116 266.92 436.216 266.5 437.496 266.5C437.936 266.5 438.356 266.54 438.756 266.62C439.156 266.66 439.516 266.72 439.836 266.8C440.196 266.92 440.516 267.02 440.796 267.1L438.996 271.6C438.756 271.48 438.496 271.34 438.216 271.18C437.976 271.06 437.676 270.96 437.316 270.88C436.996 270.76 436.656 270.7 436.296 270.7C435.256 270.7 434.336 270.98 433.536 271.54C432.736 272.1 432.076 272.72 431.556 273.4C430.916 274.2 430.396 275.1 429.996 276.1V293.5ZM454.631 267.4C453.951 267.4 453.251 267.64 452.531 268.12C451.851 268.56 451.211 269.32 450.611 270.4C450.051 271.44 449.571 272.84 449.171 274.6C448.811 276.36 448.631 278.56 448.631 281.2C448.631 283.84 448.811 286.04 449.171 287.8C449.571 289.56 450.051 290.98 450.611 292.06C451.211 293.1 451.851 293.86 452.531 294.34C453.251 294.78 453.951 295 454.631 295C455.311 295 455.991 294.78 456.671 294.34C457.391 293.86 458.031 293.1 458.591 292.06C459.191 290.98 459.671 289.56 460.031 287.8C460.431 286.04 460.631 283.84 460.631 281.2C460.631 278.56 460.431 276.36 460.031 274.6C459.671 272.84 459.191 271.44 458.591 270.4C458.031 269.32 457.391 268.56 456.671 268.12C455.991 267.64 455.311 267.4 454.631 267.4ZM454.631 266.5C456.111 266.5 457.531 266.84 458.891 267.52C460.291 268.16 461.511 269.12 462.551 270.4C463.631 271.64 464.471 273.18 465.071 275.02C465.711 276.82 466.031 278.88 466.031 281.2C466.031 283.52 465.711 285.6 465.071 287.44C464.471 289.24 463.631 290.78 462.551 292.06C461.511 293.3 460.291 294.26 458.891 294.94C457.531 295.58 456.111 295.9 454.631 295.9C453.111 295.9 451.671 295.58 450.311 294.94C448.951 294.26 447.731 293.3 446.651 292.06C445.611 290.78 444.771 289.24 444.131 287.44C443.531 285.6 443.231 283.52 443.231 281.2C443.231 278.88 443.531 276.82 444.131 275.02C444.771 273.18 445.611 271.64 446.651 270.4C447.731 269.12 448.951 268.16 450.311 267.52C451.671 266.84 453.111 266.5 454.631 266.5ZM465.115 304C465.115 303.32 465.215 302.7 465.415 302.14C465.615 301.62 465.855 301.16 466.135 300.76C466.455 300.32 466.815 299.9 467.215 299.5L471.715 301.3C471.315 301.7 470.955 302.12 470.635 302.56C470.355 302.96 470.115 303.42 469.915 303.94C469.715 304.5 469.615 305.12 469.615 305.8C469.615 306.84 469.875 307.64 470.395 308.2C470.915 308.8 471.555 309.1 472.315 309.1C472.675 309.1 473.035 308.98 473.395 308.74C473.755 308.54 474.075 308.16 474.355 307.6C474.635 307.08 474.855 306.36 475.015 305.44C475.215 304.52 475.315 303.34 475.315 301.9V268.9L471.715 268V267.4H480.115V301.9C480.115 303.1 479.915 304.2 479.515 305.2C479.115 306.2 478.575 307.04 477.895 307.72C477.215 308.44 476.395 309 475.435 309.4C474.475 309.8 473.435 310 472.315 310C471.275 310 470.315 309.82 469.435 309.46C468.555 309.14 467.795 308.7 467.155 308.14C466.515 307.58 466.015 306.94 465.655 306.22C465.295 305.5 465.115 304.76 465.115 304ZM480.415 260.5C480.415 261.26 480.095 261.96 479.455 262.6C478.855 263.2 478.175 263.5 477.415 263.5C476.655 263.5 475.955 263.2 475.315 262.6C474.715 261.96 474.415 261.26 474.415 260.5C474.415 259.74 474.715 259.06 475.315 258.46C475.955 257.82 476.655 257.5 477.415 257.5C478.175 257.5 478.855 257.82 479.455 258.46C480.095 259.06 480.415 259.74 480.415 260.5ZM492.401 281.2C492.401 283.76 492.581 285.9 492.941 287.62C493.341 289.34 493.841 290.74 494.441 291.82C495.081 292.86 495.781 293.6 496.541 294.04C497.341 294.48 498.161 294.7 499.001 294.7C500.041 294.7 501.021 294.5 501.941 294.1C502.861 293.7 503.681 293.16 504.401 292.48C505.121 291.8 505.701 290.98 506.141 290.02C506.621 289.06 506.941 288.02 507.101 286.9H508.001C507.841 288.18 507.481 289.38 506.921 290.5C506.401 291.58 505.721 292.52 504.881 293.32C504.041 294.12 503.061 294.74 501.941 295.18C500.861 295.66 499.681 295.9 498.401 295.9C496.881 295.9 495.441 295.58 494.081 294.94C492.721 294.26 491.501 293.3 490.421 292.06C489.381 290.78 488.541 289.24 487.901 287.44C487.301 285.6 487.001 283.52 487.001 281.2C487.001 278.8 487.301 276.68 487.901 274.84C488.501 273 489.281 271.48 490.241 270.28C491.241 269.04 492.381 268.1 493.661 267.46C494.981 266.82 496.361 266.5 497.801 266.5C499.241 266.5 500.601 266.82 501.881 267.46C503.201 268.1 504.341 269.04 505.301 270.28C506.301 271.48 507.101 273 507.701 274.84C508.301 276.68 508.601 278.8 508.601 281.2H492.401ZM497.801 267.4C497.201 267.4 496.601 267.6 496.001 268C495.401 268.36 494.841 269.02 494.321 269.98C493.801 270.94 493.361 272.24 493.001 273.88C492.681 275.48 492.481 277.52 492.401 280H503.201C503.121 277.52 502.901 275.48 502.541 273.88C502.221 272.24 501.801 270.94 501.281 269.98C500.761 269.02 500.201 268.36 499.601 268C499.001 267.6 498.401 267.4 497.801 267.4ZM528.42 267.4V268.6H521.52V287.74C521.52 290.18 521.96 291.96 522.84 293.08C523.72 294.16 524.68 294.7 525.72 294.7C527.08 294.7 528.22 294.2 529.14 293.2C530.1 292.16 530.66 290.66 530.82 288.7H531.72C531.56 290.98 530.86 292.76 529.62 294.04C528.42 295.28 526.92 295.9 525.12 295.9C522.56 295.9 520.52 295.16 519 293.68C517.48 292.16 516.72 290.2 516.72 287.8V268.6H511.62V267.4H516.72V260.5L521.52 257.2V267.4H528.42ZM545.862 267.4C545.182 267.4 544.482 267.64 543.762 268.12C543.082 268.56 542.442 269.32 541.842 270.4C541.282 271.44 540.802 272.84 540.402 274.6C540.042 276.36 539.862 278.56 539.862 281.2C539.862 283.84 540.042 286.04 540.402 287.8C540.802 289.56 541.282 290.98 541.842 292.06C542.442 293.1 543.082 293.86 543.762 294.34C544.482 294.78 545.182 295 545.862 295C546.542 295 547.222 294.78 547.902 294.34C548.622 293.86 549.262 293.1 549.822 292.06C550.422 290.98 550.902 289.56 551.262 287.8C551.662 286.04 551.862 283.84 551.862 281.2C551.862 278.56 551.662 276.36 551.262 274.6C550.902 272.84 550.422 271.44 549.822 270.4C549.262 269.32 548.622 268.56 547.902 268.12C547.222 267.64 546.542 267.4 545.862 267.4ZM545.862 266.5C547.342 266.5 548.762 266.84 550.122 267.52C551.522 268.16 552.742 269.12 553.782 270.4C554.862 271.64 555.702 273.18 556.302 275.02C556.942 276.82 557.262 278.88 557.262 281.2C557.262 283.52 556.942 285.6 556.302 287.44C555.702 289.24 554.862 290.78 553.782 292.06C552.742 293.3 551.522 294.26 550.122 294.94C548.762 295.58 547.342 295.9 545.862 295.9C544.342 295.9 542.902 295.58 541.542 294.94C540.182 294.26 538.962 293.3 537.882 292.06C536.842 290.78 536.002 289.24 535.362 287.44C534.762 285.6 534.462 283.52 534.462 281.2C534.462 278.88 534.762 276.82 535.362 275.02C536.002 273.18 536.842 271.64 537.882 270.4C538.962 269.12 540.182 268.16 541.542 267.52C542.902 266.84 544.342 266.5 545.862 266.5ZM586.359 275.8V265.3H588.759V275.8H598.959V278.2H588.759V288.7H586.359V278.2H576.159V275.8H586.359ZM620.299 268.9L616.699 268V267.4H625.099V271C625.499 270.2 626.039 269.46 626.719 268.78C627.279 268.22 627.999 267.7 628.879 267.22C629.759 266.74 630.799 266.5 631.999 266.5C633.279 266.5 634.539 266.84 635.779 267.52C637.059 268.16 638.179 269.12 639.139 270.4C640.139 271.64 640.939 273.18 641.539 275.02C642.179 276.82 642.499 278.88 642.499 281.2C642.499 283.52 642.179 285.6 641.539 287.44C640.939 289.24 640.119 290.78 639.079 292.06C638.039 293.3 636.859 294.26 635.539 294.94C634.219 295.58 632.839 295.9 631.399 295.9C630.239 295.9 629.259 295.74 628.459 295.42C627.699 295.14 627.059 294.8 626.539 294.4C625.939 293.96 625.459 293.46 625.099 292.9V307.9L628.699 308.8V309.4H616.699V308.8L620.299 307.9V268.9ZM630.499 294.7C631.339 294.7 632.139 294.48 632.899 294.04C633.699 293.6 634.399 292.86 634.999 291.82C635.639 290.74 636.139 289.34 636.499 287.62C636.899 285.9 637.099 283.76 637.099 281.2C637.099 278.64 636.899 276.5 636.499 274.78C636.139 273.06 635.659 271.68 635.059 270.64C634.499 269.6 633.859 268.86 633.139 268.42C632.459 267.94 631.779 267.7 631.099 267.7C630.099 267.7 629.239 267.98 628.519 268.54C627.799 269.1 627.179 269.72 626.659 270.4C626.059 271.2 625.539 272.1 625.099 273.1V291.1C625.459 291.78 625.899 292.38 626.419 292.9C626.859 293.34 627.419 293.76 628.099 294.16C628.779 294.52 629.579 294.7 630.499 294.7ZM653.299 281.2C653.299 283.76 653.479 285.9 653.839 287.62C654.239 289.34 654.739 290.74 655.339 291.82C655.979 292.86 656.679 293.6 657.439 294.04C658.239 294.48 659.059 294.7 659.899 294.7C660.939 294.7 661.919 294.5 662.839 294.1C663.759 293.7 664.579 293.16 665.299 292.48C666.019 291.8 666.599 290.98 667.039 290.02C667.519 289.06 667.839 288.02 667.999 286.9H668.899C668.739 288.18 668.379 289.38 667.819 290.5C667.299 291.58 666.619 292.52 665.779 293.32C664.939 294.12 663.959 294.74 662.839 295.18C661.759 295.66 660.579 295.9 659.299 295.9C657.779 295.9 656.339 295.58 654.979 294.94C653.619 294.26 652.399 293.3 651.319 292.06C650.279 290.78 649.439 289.24 648.799 287.44C648.199 285.6 647.899 283.52 647.899 281.2C647.899 278.8 648.199 276.68 648.799 274.84C649.399 273 650.179 271.48 651.139 270.28C652.139 269.04 653.279 268.1 654.559 267.46C655.879 266.82 657.259 266.5 658.699 266.5C660.139 266.5 661.499 266.82 662.779 267.46C664.099 268.1 665.239 269.04 666.199 270.28C667.199 271.48 667.999 273 668.599 274.84C669.199 276.68 669.499 278.8 669.499 281.2H653.299ZM658.699 267.4C658.099 267.4 657.499 267.6 656.899 268C656.299 268.36 655.739 269.02 655.219 269.98C654.699 270.94 654.259 272.24 653.899 273.88C653.579 275.48 653.379 277.52 653.299 280H664.099C664.019 277.52 663.799 275.48 663.439 273.88C663.119 272.24 662.699 270.94 662.179 269.98C661.659 269.02 661.099 268.36 660.499 268C659.899 267.6 659.299 267.4 658.699 267.4ZM677.618 293.5V268.9L674.018 268V267.4H682.418V271C682.818 270.2 683.358 269.46 684.038 268.78C684.598 268.22 685.318 267.7 686.198 267.22C687.078 266.74 688.118 266.5 689.318 266.5C690.518 266.5 691.618 266.72 692.618 267.16C693.658 267.6 694.558 268.22 695.318 269.02C696.078 269.78 696.658 270.72 697.058 271.84C697.498 272.92 697.718 274.14 697.718 275.5V293.5L701.318 294.4V295H689.618V294.4L692.918 293.5V275.5C692.918 272.66 692.458 270.66 691.538 269.5C690.658 268.3 689.618 267.7 688.418 267.7C687.418 267.7 686.558 267.98 685.838 268.54C685.118 269.1 684.498 269.72 683.978 270.4C683.378 271.2 682.858 272.1 682.418 273.1V293.5L685.718 294.4V295H674.018V294.4L677.618 293.5ZM715.697 295.9C714.417 295.9 713.317 295.74 712.397 295.42C711.477 295.14 710.737 294.8 710.177 294.4C709.497 293.96 708.937 293.46 708.497 292.9C708.337 293.5 707.997 294.06 707.477 294.58C706.997 295.1 706.537 295.44 706.097 295.6H705.197C705.237 295.08 705.277 294.54 705.317 293.98C705.357 293.5 705.397 293 705.437 292.48C705.477 291.92 705.497 291.36 705.497 290.8C705.497 290.2 705.477 289.6 705.437 289C705.397 288.4 705.357 287.86 705.317 287.38C705.277 286.82 705.237 286.26 705.197 285.7H706.097C706.857 288.58 708.017 290.8 709.577 292.36C711.137 293.92 712.977 294.7 715.097 294.7C716.777 294.7 718.137 294.18 719.177 293.14C720.257 292.1 720.797 290.82 720.797 289.3C720.797 288.22 720.417 287.28 719.657 286.48C718.937 285.68 718.017 284.96 716.897 284.32C715.777 283.64 714.577 282.98 713.297 282.34C712.017 281.7 710.817 280.98 709.697 280.18C708.577 279.38 707.637 278.44 706.877 277.36C706.157 276.28 705.797 274.96 705.797 273.4C705.797 272.52 705.997 271.66 706.397 270.82C706.797 269.98 707.337 269.24 708.017 268.6C708.737 267.96 709.597 267.46 710.597 267.1C711.597 266.7 712.697 266.5 713.897 266.5C714.937 266.5 715.837 266.66 716.597 266.98C717.397 267.3 718.077 267.64 718.637 268C719.237 268.44 719.757 268.94 720.197 269.5C720.357 268.9 720.677 268.34 721.157 267.82C721.677 267.3 722.157 266.96 722.597 266.8H723.497C723.417 267.32 723.357 267.86 723.317 268.42C723.277 268.9 723.237 269.42 723.197 269.98C723.197 270.54 723.197 271.08 723.197 271.6C723.197 272.2 723.197 272.82 723.197 273.46C723.237 274.06 723.277 274.6 723.317 275.08C723.357 275.64 723.417 276.18 723.497 276.7H722.597C721.837 273.82 720.717 271.6 719.237 270.04C717.757 268.48 716.177 267.7 714.497 267.7C713.137 267.7 711.997 268.16 711.077 269.08C710.157 269.96 709.697 271 709.697 272.2C709.697 273.2 710.077 274.06 710.837 274.78C711.597 275.5 712.537 276.18 713.657 276.82C714.777 277.42 715.997 278.04 717.317 278.68C718.677 279.32 719.917 280.06 721.037 280.9C722.157 281.74 723.097 282.74 723.857 283.9C724.617 285.06 724.997 286.46 724.997 288.1C724.997 289.06 724.757 290.02 724.277 290.98C723.837 291.9 723.197 292.74 722.357 293.5C721.557 294.22 720.577 294.8 719.417 295.24C718.297 295.68 717.057 295.9 715.697 295.9ZM745.113 280.3C741.633 280.3 739.053 281.08 737.373 282.64C735.733 284.16 734.913 286.28 734.913 289C734.913 290.8 735.353 292.2 736.233 293.2C737.113 294.2 738.073 294.7 739.113 294.7C740.073 294.7 740.913 294.42 741.633 293.86C742.393 293.3 743.033 292.68 743.553 292C744.153 291.24 744.673 290.34 745.113 289.3V280.3ZM740.613 267.4C739.413 267.4 738.413 267.82 737.613 268.66C736.813 269.46 736.413 270.54 736.413 271.9C736.413 272.22 736.413 272.5 736.413 272.74C736.453 272.98 736.493 273.2 736.533 273.4C736.573 273.6 736.633 273.8 736.713 274L731.913 275.2C731.833 275.08 731.773 274.92 731.733 274.72C731.693 274.52 731.653 274.3 731.613 274.06C731.613 273.82 731.613 273.5 731.613 273.1C731.613 272.26 731.813 271.46 732.213 270.7C732.613 269.9 733.193 269.2 733.953 268.6C734.753 267.96 735.693 267.46 736.773 267.1C737.893 266.7 739.173 266.5 740.613 266.5C743.493 266.5 745.753 267.32 747.393 268.96C749.073 270.6 749.913 272.78 749.913 275.5V293.5L753.513 294.4V295H745.113V291.4C744.673 292.24 744.113 293 743.433 293.68C742.873 294.24 742.153 294.74 741.273 295.18C740.433 295.66 739.413 295.9 738.213 295.9C735.333 295.9 733.153 295.22 731.673 293.86C730.233 292.5 729.513 290.68 729.513 288.4C729.513 287.28 729.813 286.16 730.413 285.04C731.053 283.92 731.993 282.92 733.233 282.04C734.513 281.16 736.133 280.46 738.093 279.94C740.053 279.38 742.393 279.1 745.113 279.1V275.5C745.113 272.5 744.653 270.4 743.733 269.2C742.853 268 741.813 267.4 740.613 267.4ZM760.704 293.5V268.9L757.104 268V267.4H765.504V271C765.904 270.2 766.444 269.46 767.124 268.78C767.684 268.22 768.404 267.7 769.284 267.22C770.164 266.74 771.204 266.5 772.404 266.5C773.924 266.5 775.164 266.78 776.124 267.34C777.124 267.9 777.924 268.52 778.524 269.2C779.244 270 779.804 270.9 780.204 271.9C780.724 270.9 781.344 270 782.064 269.2C782.704 268.52 783.484 267.9 784.404 267.34C785.324 266.78 786.424 266.5 787.704 266.5C788.904 266.5 790.004 266.72 791.004 267.16C792.044 267.6 792.944 268.22 793.704 269.02C794.464 269.78 795.044 270.72 795.444 271.84C795.884 272.92 796.104 274.14 796.104 275.5V293.5L799.704 294.4V295H788.004V294.4L791.304 293.5V275.5C791.304 272.66 790.844 270.66 789.924 269.5C789.044 268.3 788.004 267.7 786.804 267.7C785.804 267.7 784.944 267.98 784.224 268.54C783.504 269.1 782.884 269.72 782.364 270.4C781.764 271.2 781.244 272.1 780.804 273.1V293.5L784.104 294.4V295H772.704V294.4L776.004 293.5V275.5C776.004 272.66 775.544 270.66 774.624 269.5C773.744 268.3 772.704 267.7 771.504 267.7C770.504 267.7 769.644 267.98 768.924 268.54C768.204 269.1 767.584 269.72 767.064 270.4C766.464 271.2 765.944 272.1 765.504 273.1V293.5L768.804 294.4V295H757.104V294.4L760.704 293.5ZM809.276 281.2C809.276 283.76 809.456 285.9 809.816 287.62C810.216 289.34 810.716 290.74 811.316 291.82C811.956 292.86 812.656 293.6 813.416 294.04C814.216 294.48 815.036 294.7 815.876 294.7C816.916 294.7 817.896 294.5 818.816 294.1C819.736 293.7 820.556 293.16 821.276 292.48C821.996 291.8 822.576 290.98 823.016 290.02C823.496 289.06 823.816 288.02 823.976 286.9H824.876C824.716 288.18 824.356 289.38 823.796 290.5C823.276 291.58 822.596 292.52 821.756 293.32C820.916 294.12 819.936 294.74 818.816 295.18C817.736 295.66 816.556 295.9 815.276 295.9C813.756 295.9 812.316 295.58 810.956 294.94C809.596 294.26 808.376 293.3 807.296 292.06C806.256 290.78 805.416 289.24 804.776 287.44C804.176 285.6 803.876 283.52 803.876 281.2C803.876 278.8 804.176 276.68 804.776 274.84C805.376 273 806.156 271.48 807.116 270.28C808.116 269.04 809.256 268.1 810.536 267.46C811.856 266.82 813.236 266.5 814.676 266.5C816.116 266.5 817.476 266.82 818.756 267.46C820.076 268.1 821.216 269.04 822.176 270.28C823.176 271.48 823.976 273 824.576 274.84C825.176 276.68 825.476 278.8 825.476 281.2H809.276ZM814.676 267.4C814.076 267.4 813.476 267.6 812.876 268C812.276 268.36 811.716 269.02 811.196 269.98C810.676 270.94 810.236 272.24 809.876 273.88C809.556 275.48 809.356 277.52 809.276 280H820.076C819.996 277.52 819.776 275.48 819.416 273.88C819.096 272.24 818.676 270.94 818.156 269.98C817.636 269.02 817.076 268.36 816.476 268C815.876 267.6 815.276 267.4 814.676 267.4ZM833.595 293.5V268.9L829.995 268V267.4H838.395V271C838.795 270.2 839.335 269.46 840.015 268.78C840.575 268.22 841.295 267.7 842.175 267.22C843.055 266.74 844.095 266.5 845.295 266.5C846.495 266.5 847.595 266.72 848.595 267.16C849.635 267.6 850.535 268.22 851.295 269.02C852.055 269.78 852.635 270.72 853.035 271.84C853.475 272.92 853.695 274.14 853.695 275.5V293.5L857.295 294.4V295H845.595V294.4L848.895 293.5V275.5C848.895 272.66 848.435 270.66 847.515 269.5C846.635 268.3 845.595 267.7 844.395 267.7C843.395 267.7 842.535 267.98 841.815 268.54C841.095 269.1 840.475 269.72 839.955 270.4C839.355 271.2 838.835 272.1 838.395 273.1V293.5L841.695 294.4V295H829.995V294.4L833.595 293.5ZM876.173 267.4V268.6H869.273V287.74C869.273 290.18 869.713 291.96 870.593 293.08C871.473 294.16 872.433 294.7 873.473 294.7C874.833 294.7 875.973 294.2 876.893 293.2C877.853 292.16 878.413 290.66 878.573 288.7H879.473C879.313 290.98 878.613 292.76 877.373 294.04C876.173 295.28 874.673 295.9 872.873 295.9C870.313 295.9 868.273 295.16 866.753 293.68C865.233 292.16 864.473 290.2 864.473 287.8V268.6H859.373V267.4H864.473V260.5L869.273 257.2V267.4H876.173ZM893.616 267.4C892.936 267.4 892.236 267.64 891.516 268.12C890.836 268.56 890.196 269.32 889.596 270.4C889.036 271.44 888.556 272.84 888.156 274.6C887.796 276.36 887.616 278.56 887.616 281.2C887.616 283.84 887.796 286.04 888.156 287.8C888.556 289.56 889.036 290.98 889.596 292.06C890.196 293.1 890.836 293.86 891.516 294.34C892.236 294.78 892.936 295 893.616 295C894.296 295 894.976 294.78 895.656 294.34C896.376 293.86 897.016 293.1 897.576 292.06C898.176 290.98 898.656 289.56 899.016 287.8C899.416 286.04 899.616 283.84 899.616 281.2C899.616 278.56 899.416 276.36 899.016 274.6C898.656 272.84 898.176 271.44 897.576 270.4C897.016 269.32 896.376 268.56 895.656 268.12C894.976 267.64 894.296 267.4 893.616 267.4ZM893.616 266.5C895.096 266.5 896.516 266.84 897.876 267.52C899.276 268.16 900.496 269.12 901.536 270.4C902.616 271.64 903.456 273.18 904.056 275.02C904.696 276.82 905.016 278.88 905.016 281.2C905.016 283.52 904.696 285.6 904.056 287.44C903.456 289.24 902.616 290.78 901.536 292.06C900.496 293.3 899.276 294.26 897.876 294.94C896.516 295.58 895.096 295.9 893.616 295.9C892.096 295.9 890.656 295.58 889.296 294.94C887.936 294.26 886.716 293.3 885.636 292.06C884.596 290.78 883.756 289.24 883.116 287.44C882.516 285.6 882.216 283.52 882.216 281.2C882.216 278.88 882.516 276.82 883.116 275.02C883.756 273.18 884.596 271.64 885.636 270.4C886.716 269.12 887.936 268.16 889.296 267.52C890.656 266.84 892.096 266.5 893.616 266.5ZM936.513 267.7C935.753 267.7 934.993 267.94 934.233 268.42C933.513 268.86 932.853 269.6 932.253 270.64C931.653 271.68 931.153 273.06 930.753 274.78C930.393 276.5 930.213 278.64 930.213 281.2C930.213 283.76 930.393 285.9 930.753 287.62C931.153 289.34 931.673 290.74 932.313 291.82C932.953 292.86 933.673 293.6 934.473 294.04C935.313 294.48 936.193 294.7 937.113 294.7C938.153 294.7 939.133 294.5 940.053 294.1C940.973 293.7 941.793 293.16 942.513 292.48C943.233 291.8 943.813 290.98 944.253 290.02C944.733 289.06 945.053 288.02 945.213 286.9H946.113C945.953 288.18 945.593 289.38 945.033 290.5C944.513 291.58 943.833 292.52 942.993 293.32C942.153 294.12 941.173 294.74 940.053 295.18C938.973 295.66 937.793 295.9 936.513 295.9C934.953 295.9 933.453 295.58 932.013 294.94C930.613 294.26 929.373 293.3 928.293 292.06C927.213 290.78 926.353 289.24 925.713 287.44C925.113 285.6 924.813 283.52 924.813 281.2C924.813 278.88 925.113 276.82 925.713 275.02C926.353 273.18 927.193 271.64 928.233 270.4C929.273 269.12 930.453 268.16 931.773 267.52C933.093 266.84 934.473 266.5 935.913 266.5C936.873 266.5 937.713 266.66 938.433 266.98C939.193 267.3 939.833 267.64 940.353 268C940.953 268.44 941.473 268.94 941.913 269.5C942.073 268.9 942.393 268.34 942.873 267.82C943.393 267.3 943.873 266.96 944.313 266.8H945.213C945.133 267.32 945.073 267.86 945.033 268.42C944.993 268.9 944.953 269.42 944.913 269.98C944.913 270.54 944.913 271.08 944.913 271.6C944.913 272.2 944.913 272.82 944.913 273.46C944.953 274.06 944.993 274.6 945.033 275.08C945.073 275.64 945.133 276.18 945.213 276.7H944.313C943.553 273.82 942.433 271.6 940.953 270.04C939.513 268.48 938.033 267.7 936.513 267.7ZM958.395 293.5L961.995 294.4V295H949.995V294.4L953.595 293.5V268.9L949.995 268V267.4H958.395V274.6C958.915 273.12 959.535 271.78 960.255 270.58C960.895 269.54 961.675 268.6 962.595 267.76C963.515 266.92 964.615 266.5 965.895 266.5C966.335 266.5 966.755 266.54 967.155 266.62C967.555 266.66 967.915 266.72 968.235 266.8C968.595 266.92 968.915 267.02 969.195 267.1L967.395 271.6C967.155 271.48 966.895 271.34 966.615 271.18C966.375 271.06 966.075 270.96 965.715 270.88C965.395 270.76 965.055 270.7 964.695 270.7C963.655 270.7 962.735 270.98 961.935 271.54C961.135 272.1 960.475 272.72 959.955 273.4C959.315 274.2 958.795 275.1 958.395 276.1V293.5ZM975.216 293.5V268.9L971.616 268V267.4H980.016V293.5L983.616 294.4V295H971.616V294.4L975.216 293.5ZM978.816 257.2H984.216L978.216 264.4H976.416L978.816 257.2ZM1002.5 267.4V268.6H995.602V287.74C995.602 290.18 996.042 291.96 996.922 293.08C997.802 294.16 998.762 294.7 999.802 294.7C1001.16 294.7 1002.3 294.2 1003.22 293.2C1004.18 292.16 1004.74 290.66 1004.9 288.7H1005.8C1005.64 290.98 1004.94 292.76 1003.7 294.04C1002.5 295.28 1001 295.9 999.202 295.9C996.642 295.9 994.602 295.16 993.082 293.68C991.562 292.16 990.802 290.2 990.802 287.8V268.6H985.702V267.4H990.802V260.5L995.602 257.2V267.4H1002.5ZM1012.13 293.5V268.9L1008.53 268V267.4H1016.93V293.5L1020.53 294.4V295H1008.53V294.4L1012.13 293.5ZM1017.23 260.5C1017.23 261.26 1016.91 261.96 1016.27 262.6C1015.67 263.2 1014.99 263.5 1014.23 263.5C1013.47 263.5 1012.77 263.2 1012.13 262.6C1011.53 261.96 1011.23 261.26 1011.23 260.5C1011.23 259.74 1011.53 259.06 1012.13 258.46C1012.77 257.82 1013.47 257.5 1014.23 257.5C1014.99 257.5 1015.67 257.82 1016.27 258.46C1016.91 259.06 1017.23 259.74 1017.23 260.5ZM1036.42 267.7C1035.66 267.7 1034.9 267.94 1034.14 268.42C1033.42 268.86 1032.76 269.6 1032.16 270.64C1031.56 271.68 1031.06 273.06 1030.66 274.78C1030.3 276.5 1030.12 278.64 1030.12 281.2C1030.12 283.76 1030.3 285.9 1030.66 287.62C1031.06 289.34 1031.58 290.74 1032.22 291.82C1032.86 292.86 1033.58 293.6 1034.38 294.04C1035.22 294.48 1036.1 294.7 1037.02 294.7C1038.06 294.7 1039.04 294.5 1039.96 294.1C1040.88 293.7 1041.7 293.16 1042.42 292.48C1043.14 291.8 1043.72 290.98 1044.16 290.02C1044.64 289.06 1044.96 288.02 1045.12 286.9H1046.02C1045.86 288.18 1045.5 289.38 1044.94 290.5C1044.42 291.58 1043.74 292.52 1042.9 293.32C1042.06 294.12 1041.08 294.74 1039.96 295.18C1038.88 295.66 1037.7 295.9 1036.42 295.9C1034.86 295.9 1033.36 295.58 1031.92 294.94C1030.52 294.26 1029.28 293.3 1028.2 292.06C1027.12 290.78 1026.26 289.24 1025.62 287.44C1025.02 285.6 1024.72 283.52 1024.72 281.2C1024.72 278.88 1025.02 276.82 1025.62 275.02C1026.26 273.18 1027.1 271.64 1028.14 270.4C1029.18 269.12 1030.36 268.16 1031.68 267.52C1033 266.84 1034.38 266.5 1035.82 266.5C1036.78 266.5 1037.62 266.66 1038.34 266.98C1039.1 267.3 1039.74 267.64 1040.26 268C1040.86 268.44 1041.38 268.94 1041.82 269.5C1041.98 268.9 1042.3 268.34 1042.78 267.82C1043.3 267.3 1043.78 266.96 1044.22 266.8H1045.12C1045.04 267.32 1044.98 267.86 1044.94 268.42C1044.9 268.9 1044.86 269.42 1044.82 269.98C1044.82 270.54 1044.82 271.08 1044.82 271.6C1044.82 272.2 1044.82 272.82 1044.82 273.46C1044.86 274.06 1044.9 274.6 1044.94 275.08C1044.98 275.64 1045.04 276.18 1045.12 276.7H1044.22C1043.46 273.82 1042.34 271.6 1040.86 270.04C1039.42 268.48 1037.94 267.7 1036.42 267.7ZM1061.9 267.4C1061.22 267.4 1060.52 267.64 1059.8 268.12C1059.12 268.56 1058.48 269.32 1057.88 270.4C1057.32 271.44 1056.84 272.84 1056.44 274.6C1056.08 276.36 1055.9 278.56 1055.9 281.2C1055.9 283.84 1056.08 286.04 1056.44 287.8C1056.84 289.56 1057.32 290.98 1057.88 292.06C1058.48 293.1 1059.12 293.86 1059.8 294.34C1060.52 294.78 1061.22 295 1061.9 295C1062.58 295 1063.26 294.78 1063.94 294.34C1064.66 293.86 1065.3 293.1 1065.86 292.06C1066.46 290.98 1066.94 289.56 1067.3 287.8C1067.7 286.04 1067.9 283.84 1067.9 281.2C1067.9 278.56 1067.7 276.36 1067.3 274.6C1066.94 272.84 1066.46 271.44 1065.86 270.4C1065.3 269.32 1064.66 268.56 1063.94 268.12C1063.26 267.64 1062.58 267.4 1061.9 267.4ZM1061.9 266.5C1063.38 266.5 1064.8 266.84 1066.16 267.52C1067.56 268.16 1068.78 269.12 1069.82 270.4C1070.9 271.64 1071.74 273.18 1072.34 275.02C1072.98 276.82 1073.3 278.88 1073.3 281.2C1073.3 283.52 1072.98 285.6 1072.34 287.44C1071.74 289.24 1070.9 290.78 1069.82 292.06C1068.78 293.3 1067.56 294.26 1066.16 294.94C1064.8 295.58 1063.38 295.9 1061.9 295.9C1060.38 295.9 1058.94 295.58 1057.58 294.94C1056.22 294.26 1055 293.3 1053.92 292.06C1052.88 290.78 1052.04 289.24 1051.4 287.44C1050.8 285.6 1050.5 283.52 1050.5 281.2C1050.5 278.88 1050.8 276.82 1051.4 275.02C1052.04 273.18 1052.88 271.64 1053.92 270.4C1055 269.12 1056.22 268.16 1057.58 267.52C1058.94 266.84 1060.38 266.5 1061.9 266.5ZM1078.38 292.3C1078.38 291.38 1078.7 290.6 1079.34 289.96C1079.98 289.32 1080.76 289 1081.68 289C1082.6 289 1083.38 289.32 1084.02 289.96C1084.66 290.6 1084.98 291.38 1084.98 292.3C1084.98 293.22 1084.66 294 1084.02 294.64C1083.38 295.28 1082.6 295.6 1081.68 295.6C1080.76 295.6 1079.98 295.28 1079.34 294.64C1078.7 294 1078.38 293.22 1078.38 292.3ZM1078.38 270.1C1078.38 269.18 1078.7 268.4 1079.34 267.76C1079.98 267.12 1080.76 266.8 1081.68 266.8C1082.6 266.8 1083.38 267.12 1084.02 267.76C1084.66 268.4 1084.98 269.18 1084.98 270.1C1084.98 271.02 1084.66 271.8 1084.02 272.44C1083.38 273.08 1082.6 273.4 1081.68 273.4C1080.76 273.4 1079.98 273.08 1079.34 272.44C1078.7 271.8 1078.38 271.02 1078.38 270.1Z" fill="white" fill-opacity="0.6"/>
<path d="M101.1 388.9L97.5 388V387.4H105.9V391C106.3 390.2 106.84 389.46 107.52 388.78C108.08 388.22 108.8 387.7 109.68 387.22C110.56 386.74 111.6 386.5 112.8 386.5C114.08 386.5 115.34 386.84 116.58 387.52C117.86 388.16 118.98 389.12 119.94 390.4C120.94 391.64 121.74 393.18 122.34 395.02C122.98 396.82 123.3 398.88 123.3 401.2C123.3 403.52 122.98 405.6 122.34 407.44C121.74 409.24 120.92 410.78 119.88 412.06C118.84 413.3 117.66 414.26 116.34 414.94C115.02 415.58 113.64 415.9 112.2 415.9C111.04 415.9 110.06 415.74 109.26 415.42C108.5 415.14 107.86 414.8 107.34 414.4C106.74 413.96 106.26 413.46 105.9 412.9V427.9L109.5 428.8V429.4H97.5V428.8L101.1 427.9V388.9ZM111.3 414.7C112.14 414.7 112.94 414.48 113.7 414.04C114.5 413.6 115.2 412.86 115.8 411.82C116.44 410.74 116.94 409.34 117.3 407.62C117.7 405.9 117.9 403.76 117.9 401.2C117.9 398.64 117.7 396.5 117.3 394.78C116.94 393.06 116.46 391.68 115.86 390.64C115.3 389.6 114.66 388.86 113.94 388.42C113.26 387.94 112.58 387.7 111.9 387.7C110.9 387.7 110.04 387.98 109.32 388.54C108.6 389.1 107.98 389.72 107.46 390.4C106.86 391.2 106.34 392.1 105.9 393.1V411.1C106.26 411.78 106.7 412.38 107.22 412.9C107.66 413.34 108.22 413.76 108.9 414.16C109.58 414.52 110.38 414.7 111.3 414.7ZM134.1 401.2C134.1 403.76 134.28 405.9 134.64 407.62C135.04 409.34 135.54 410.74 136.14 411.82C136.78 412.86 137.48 413.6 138.24 414.04C139.04 414.48 139.86 414.7 140.7 414.7C141.74 414.7 142.72 414.5 143.64 414.1C144.56 413.7 145.38 413.16 146.1 412.48C146.82 411.8 147.4 410.98 147.84 410.02C148.32 409.06 148.64 408.02 148.8 406.9H149.7C149.54 408.18 149.18 409.38 148.62 410.5C148.1 411.58 147.42 412.52 146.58 413.32C145.74 414.12 144.76 414.74 143.64 415.18C142.56 415.66 141.38 415.9 140.1 415.9C138.58 415.9 137.14 415.58 135.78 414.94C134.42 414.26 133.2 413.3 132.12 412.06C131.08 410.78 130.24 409.24 129.6 407.44C129 405.6 128.7 403.52 128.7 401.2C128.7 398.8 129 396.68 129.6 394.84C130.2 393 130.98 391.48 131.94 390.28C132.94 389.04 134.08 388.1 135.36 387.46C136.68 386.82 138.06 386.5 139.5 386.5C140.94 386.5 142.3 386.82 143.58 387.46C144.9 388.1 146.04 389.04 147 390.28C148 391.48 148.8 393 149.4 394.84C150 396.68 150.3 398.8 150.3 401.2H134.1ZM139.5 387.4C138.9 387.4 138.3 387.6 137.7 388C137.1 388.36 136.54 389.02 136.02 389.98C135.5 390.94 135.06 392.24 134.7 393.88C134.38 395.48 134.18 397.52 134.1 400H144.9C144.82 397.52 144.6 395.48 144.24 393.88C143.92 392.24 143.5 390.94 142.98 389.98C142.46 389.02 141.9 388.36 141.3 388C140.7 387.6 140.1 387.4 139.5 387.4ZM165.619 415.9C164.339 415.9 163.239 415.74 162.319 415.42C161.399 415.14 160.659 414.8 160.099 414.4C159.419 413.96 158.859 413.46 158.419 412.9C158.259 413.5 157.919 414.06 157.399 414.58C156.919 415.1 156.459 415.44 156.019 415.6H155.119C155.159 415.08 155.199 414.54 155.239 413.98C155.279 413.5 155.319 413 155.359 412.48C155.399 411.92 155.419 411.36 155.419 410.8C155.419 410.2 155.399 409.6 155.359 409C155.319 408.4 155.279 407.86 155.239 407.38C155.199 406.82 155.159 406.26 155.119 405.7H156.019C156.779 408.58 157.939 410.8 159.499 412.36C161.059 413.92 162.899 414.7 165.019 414.7C166.699 414.7 168.059 414.18 169.099 413.14C170.179 412.1 170.719 410.82 170.719 409.3C170.719 408.22 170.339 407.28 169.579 406.48C168.859 405.68 167.939 404.96 166.819 404.32C165.699 403.64 164.499 402.98 163.219 402.34C161.939 401.7 160.739 400.98 159.619 400.18C158.499 399.38 157.559 398.44 156.799 397.36C156.079 396.28 155.719 394.96 155.719 393.4C155.719 392.52 155.919 391.66 156.319 390.82C156.719 389.98 157.259 389.24 157.939 388.6C158.659 387.96 159.519 387.46 160.519 387.1C161.519 386.7 162.619 386.5 163.819 386.5C164.859 386.5 165.759 386.66 166.519 386.98C167.319 387.3 167.999 387.64 168.559 388C169.159 388.44 169.679 388.94 170.119 389.5C170.279 388.9 170.599 388.34 171.079 387.82C171.599 387.3 172.079 386.96 172.519 386.8H173.419C173.339 387.32 173.279 387.86 173.239 388.42C173.199 388.9 173.159 389.42 173.119 389.98C173.119 390.54 173.119 391.08 173.119 391.6C173.119 392.2 173.119 392.82 173.119 393.46C173.159 394.06 173.199 394.6 173.239 395.08C173.279 395.64 173.339 396.18 173.419 396.7H172.519C171.759 393.82 170.639 391.6 169.159 390.04C167.679 388.48 166.099 387.7 164.419 387.7C163.059 387.7 161.919 388.16 160.999 389.08C160.079 389.96 159.619 391 159.619 392.2C159.619 393.2 159.999 394.06 160.759 394.78C161.519 395.5 162.459 396.18 163.579 396.82C164.699 397.42 165.919 398.04 167.239 398.68C168.599 399.32 169.839 400.06 170.959 400.9C172.079 401.74 173.019 402.74 173.779 403.9C174.539 405.06 174.919 406.46 174.919 408.1C174.919 409.06 174.679 410.02 174.199 410.98C173.759 411.9 173.119 412.74 172.279 413.5C171.479 414.22 170.499 414.8 169.339 415.24C168.219 415.68 166.979 415.9 165.619 415.9ZM191.735 414.7C192.655 414.7 193.435 414.52 194.075 414.16C194.755 413.76 195.315 413.34 195.755 412.9C196.275 412.38 196.735 411.78 197.135 411.1V393.1C196.695 392.1 196.175 391.2 195.575 390.4C195.055 389.72 194.415 389.1 193.655 388.54C192.935 387.98 192.095 387.7 191.135 387.7C190.455 387.7 189.755 387.94 189.035 388.42C188.355 388.86 187.715 389.6 187.115 390.64C186.555 391.68 186.075 393.06 185.675 394.78C185.315 396.5 185.135 398.64 185.135 401.2C185.135 403.76 185.315 405.9 185.675 407.62C186.075 409.34 186.575 410.74 187.175 411.82C187.815 412.86 188.515 413.6 189.275 414.04C190.075 414.48 190.895 414.7 191.735 414.7ZM201.935 427.9L205.535 428.8V429.4H193.535V428.8L197.135 427.9V412.9C196.775 413.46 196.295 413.96 195.695 414.4C195.175 414.8 194.515 415.14 193.715 415.42C192.915 415.74 191.955 415.9 190.835 415.9C189.395 415.9 188.015 415.58 186.695 414.94C185.375 414.26 184.195 413.3 183.155 412.06C182.115 410.78 181.275 409.24 180.635 407.44C180.035 405.6 179.735 403.52 179.735 401.2C179.735 398.88 180.035 396.82 180.635 395.02C181.275 393.18 182.075 391.64 183.035 390.4C184.035 389.12 185.155 388.16 186.395 387.52C187.675 386.84 188.955 386.5 190.235 386.5C191.435 386.5 192.455 386.74 193.295 387.22C194.175 387.7 194.895 388.22 195.455 388.78C196.135 389.46 196.695 390.2 197.135 391V387.4H205.535V388L201.935 388.9V427.9ZM231.635 388.9V413.5L235.235 414.4V415H226.835V411.4C226.395 412.24 225.835 413 225.155 413.68C224.595 414.24 223.875 414.74 222.995 415.18C222.155 415.66 221.135 415.9 219.935 415.9C218.735 415.9 217.615 415.68 216.575 415.24C215.575 414.8 214.695 414.2 213.935 413.44C213.175 412.64 212.575 411.7 212.135 410.62C211.735 409.5 211.535 408.26 211.535 406.9V388.9L207.935 388V387.4H219.635V388L216.335 388.9V406.9C216.335 409.74 216.775 411.76 217.655 412.96C218.575 414.12 219.635 414.7 220.835 414.7C221.795 414.7 222.635 414.42 223.355 413.86C224.115 413.3 224.755 412.68 225.275 412C225.875 411.24 226.395 410.34 226.835 409.3V388.9L223.535 388V387.4H235.235V388L231.635 388.9ZM243.028 413.5V388.9L239.428 388V387.4H247.828V413.5L251.428 414.4V415H239.428V414.4L243.028 413.5ZM248.128 380.5C248.128 381.26 247.808 381.96 247.168 382.6C246.568 383.2 245.888 383.5 245.128 383.5C244.368 383.5 243.668 383.2 243.028 382.6C242.428 381.96 242.128 381.26 242.128 380.5C242.128 379.74 242.428 379.06 243.028 378.46C243.668 377.82 244.368 377.5 245.128 377.5C245.888 377.5 246.568 377.82 247.168 378.46C247.808 379.06 248.128 379.74 248.128 380.5ZM265.814 415.9C264.534 415.9 263.434 415.74 262.514 415.42C261.594 415.14 260.854 414.8 260.294 414.4C259.614 413.96 259.054 413.46 258.614 412.9C258.454 413.5 258.114 414.06 257.594 414.58C257.114 415.1 256.654 415.44 256.214 415.6H255.314C255.354 415.08 255.394 414.54 255.434 413.98C255.474 413.5 255.514 413 255.554 412.48C255.594 411.92 255.614 411.36 255.614 410.8C255.614 410.2 255.594 409.6 255.554 409C255.514 408.4 255.474 407.86 255.434 407.38C255.394 406.82 255.354 406.26 255.314 405.7H256.214C256.974 408.58 258.134 410.8 259.694 412.36C261.254 413.92 263.094 414.7 265.214 414.7C266.894 414.7 268.254 414.18 269.294 413.14C270.374 412.1 270.914 410.82 270.914 409.3C270.914 408.22 270.534 407.28 269.774 406.48C269.054 405.68 268.134 404.96 267.014 404.32C265.894 403.64 264.694 402.98 263.414 402.34C262.134 401.7 260.934 400.98 259.814 400.18C258.694 399.38 257.754 398.44 256.994 397.36C256.274 396.28 255.914 394.96 255.914 393.4C255.914 392.52 256.114 391.66 256.514 390.82C256.914 389.98 257.454 389.24 258.134 388.6C258.854 387.96 259.714 387.46 260.714 387.1C261.714 386.7 262.814 386.5 264.014 386.5C265.054 386.5 265.954 386.66 266.714 386.98C267.514 387.3 268.194 387.64 268.754 388C269.354 388.44 269.874 388.94 270.314 389.5C270.474 388.9 270.794 388.34 271.274 387.82C271.794 387.3 272.274 386.96 272.714 386.8H273.614C273.534 387.32 273.474 387.86 273.434 388.42C273.394 388.9 273.354 389.42 273.314 389.98C273.314 390.54 273.314 391.08 273.314 391.6C273.314 392.2 273.314 392.82 273.314 393.46C273.354 394.06 273.394 394.6 273.434 395.08C273.474 395.64 273.534 396.18 273.614 396.7H272.714C271.954 393.82 270.834 391.6 269.354 390.04C267.874 388.48 266.294 387.7 264.614 387.7C263.254 387.7 262.114 388.16 261.194 389.08C260.274 389.96 259.814 391 259.814 392.2C259.814 393.2 260.194 394.06 260.954 394.78C261.714 395.5 262.654 396.18 263.774 396.82C264.894 397.42 266.114 398.04 267.434 398.68C268.794 399.32 270.034 400.06 271.154 400.9C272.274 401.74 273.214 402.74 273.974 403.9C274.734 405.06 275.114 406.46 275.114 408.1C275.114 409.06 274.874 410.02 274.394 410.98C273.954 411.9 273.314 412.74 272.474 413.5C271.674 414.22 270.694 414.8 269.534 415.24C268.414 415.68 267.174 415.9 265.814 415.9ZM295.23 400.3C291.75 400.3 289.17 401.08 287.49 402.64C285.85 404.16 285.03 406.28 285.03 409C285.03 410.8 285.47 412.2 286.35 413.2C287.23 414.2 288.19 414.7 289.23 414.7C290.19 414.7 291.03 414.42 291.75 413.86C292.51 413.3 293.15 412.68 293.67 412C294.27 411.24 294.79 410.34 295.23 409.3V400.3ZM290.73 387.4C289.53 387.4 288.53 387.82 287.73 388.66C286.93 389.46 286.53 390.54 286.53 391.9C286.53 392.22 286.53 392.5 286.53 392.74C286.57 392.98 286.61 393.2 286.65 393.4C286.69 393.6 286.75 393.8 286.83 394L282.03 395.2C281.95 395.08 281.89 394.92 281.85 394.72C281.81 394.52 281.77 394.3 281.73 394.06C281.73 393.82 281.73 393.5 281.73 393.1C281.73 392.26 281.93 391.46 282.33 390.7C282.73 389.9 283.31 389.2 284.07 388.6C284.87 387.96 285.81 387.46 286.89 387.1C288.01 386.7 289.29 386.5 290.73 386.5C293.61 386.5 295.87 387.32 297.51 388.96C299.19 390.6 300.03 392.78 300.03 395.5V413.5L303.63 414.4V415H295.23V411.4C294.79 412.24 294.23 413 293.55 413.68C292.99 414.24 292.27 414.74 291.39 415.18C290.55 415.66 289.53 415.9 288.33 415.9C285.45 415.9 283.27 415.22 281.79 413.86C280.35 412.5 279.63 410.68 279.63 408.4C279.63 407.28 279.93 406.16 280.53 405.04C281.17 403.92 282.11 402.92 283.35 402.04C284.63 401.16 286.25 400.46 288.21 399.94C290.17 399.38 292.51 399.1 295.23 399.1V395.5C295.23 392.5 294.77 390.4 293.85 389.2C292.97 388 291.93 387.4 290.73 387.4ZM318.021 415.9C316.741 415.9 315.641 415.74 314.721 415.42C313.801 415.14 313.061 414.8 312.501 414.4C311.821 413.96 311.261 413.46 310.821 412.9C310.661 413.5 310.321 414.06 309.801 414.58C309.321 415.1 308.861 415.44 308.421 415.6H307.521C307.561 415.08 307.601 414.54 307.641 413.98C307.681 413.5 307.721 413 307.761 412.48C307.801 411.92 307.821 411.36 307.821 410.8C307.821 410.2 307.801 409.6 307.761 409C307.721 408.4 307.681 407.86 307.641 407.38C307.601 406.82 307.561 406.26 307.521 405.7H308.421C309.181 408.58 310.341 410.8 311.901 412.36C313.461 413.92 315.301 414.7 317.421 414.7C319.101 414.7 320.461 414.18 321.501 413.14C322.581 412.1 323.121 410.82 323.121 409.3C323.121 408.22 322.741 407.28 321.981 406.48C321.261 405.68 320.341 404.96 319.221 404.32C318.101 403.64 316.901 402.98 315.621 402.34C314.341 401.7 313.141 400.98 312.021 400.18C310.901 399.38 309.961 398.44 309.201 397.36C308.481 396.28 308.121 394.96 308.121 393.4C308.121 392.52 308.321 391.66 308.721 390.82C309.121 389.98 309.661 389.24 310.341 388.6C311.061 387.96 311.921 387.46 312.921 387.1C313.921 386.7 315.021 386.5 316.221 386.5C317.261 386.5 318.161 386.66 318.921 386.98C319.721 387.3 320.401 387.64 320.961 388C321.561 388.44 322.081 388.94 322.521 389.5C322.681 388.9 323.001 388.34 323.481 387.82C324.001 387.3 324.481 386.96 324.921 386.8H325.821C325.741 387.32 325.681 387.86 325.641 388.42C325.601 388.9 325.561 389.42 325.521 389.98C325.521 390.54 325.521 391.08 325.521 391.6C325.521 392.2 325.521 392.82 325.521 393.46C325.561 394.06 325.601 394.6 325.641 395.08C325.681 395.64 325.741 396.18 325.821 396.7H324.921C324.161 393.82 323.041 391.6 321.561 390.04C320.081 388.48 318.501 387.7 316.821 387.7C315.461 387.7 314.321 388.16 313.401 389.08C312.481 389.96 312.021 391 312.021 392.2C312.021 393.2 312.401 394.06 313.161 394.78C313.921 395.5 314.861 396.18 315.981 396.82C317.101 397.42 318.321 398.04 319.641 398.68C321.001 399.32 322.241 400.06 323.361 400.9C324.481 401.74 325.421 402.74 326.181 403.9C326.941 405.06 327.321 406.46 327.321 408.1C327.321 409.06 327.081 410.02 326.601 410.98C326.161 411.9 325.521 412.74 324.681 413.5C323.881 414.22 322.901 414.8 321.741 415.24C320.621 415.68 319.381 415.9 318.021 415.9ZM351.952 401.2C351.952 403.76 352.132 405.9 352.492 407.62C352.892 409.34 353.392 410.74 353.992 411.82C354.632 412.86 355.332 413.6 356.092 414.04C356.892 414.48 357.712 414.7 358.552 414.7C359.592 414.7 360.572 414.5 361.492 414.1C362.412 413.7 363.232 413.16 363.952 412.48C364.672 411.8 365.252 410.98 365.692 410.02C366.172 409.06 366.492 408.02 366.652 406.9H367.552C367.392 408.18 367.032 409.38 366.472 410.5C365.952 411.58 365.272 412.52 364.432 413.32C363.592 414.12 362.612 414.74 361.492 415.18C360.412 415.66 359.232 415.9 357.952 415.9C356.432 415.9 354.992 415.58 353.632 414.94C352.272 414.26 351.052 413.3 349.972 412.06C348.932 410.78 348.092 409.24 347.452 407.44C346.852 405.6 346.552 403.52 346.552 401.2C346.552 398.8 346.852 396.68 347.452 394.84C348.052 393 348.832 391.48 349.792 390.28C350.792 389.04 351.932 388.1 353.212 387.46C354.532 386.82 355.912 386.5 357.352 386.5C358.792 386.5 360.152 386.82 361.432 387.46C362.752 388.1 363.892 389.04 364.852 390.28C365.852 391.48 366.652 393 367.252 394.84C367.852 396.68 368.152 398.8 368.152 401.2H351.952ZM357.352 387.4C356.752 387.4 356.152 387.6 355.552 388C354.952 388.36 354.392 389.02 353.872 389.98C353.352 390.94 352.912 392.24 352.552 393.88C352.232 395.48 352.032 397.52 351.952 400H362.752C362.672 397.52 362.452 395.48 362.092 393.88C361.772 392.24 361.352 390.94 360.832 389.98C360.312 389.02 359.752 388.36 359.152 388C358.552 387.6 357.952 387.4 357.352 387.4ZM376.27 413.5V388.9L372.67 388V387.4H381.07V391C381.47 390.2 382.01 389.46 382.69 388.78C383.25 388.22 383.97 387.7 384.85 387.22C385.73 386.74 386.77 386.5 387.97 386.5C389.49 386.5 390.73 386.78 391.69 387.34C392.69 387.9 393.49 388.52 394.09 389.2C394.81 390 395.37 390.9 395.77 391.9C396.29 390.9 396.91 390 397.63 389.2C398.27 388.52 399.05 387.9 399.97 387.34C400.89 386.78 401.99 386.5 403.27 386.5C404.47 386.5 405.57 386.72 406.57 387.16C407.61 387.6 408.51 388.22 409.27 389.02C410.03 389.78 410.61 390.72 411.01 391.84C411.45 392.92 411.67 394.14 411.67 395.5V413.5L415.27 414.4V415H403.57V414.4L406.87 413.5V395.5C406.87 392.66 406.41 390.66 405.49 389.5C404.61 388.3 403.57 387.7 402.37 387.7C401.37 387.7 400.51 387.98 399.79 388.54C399.07 389.1 398.45 389.72 397.93 390.4C397.33 391.2 396.81 392.1 396.37 393.1V413.5L399.67 414.4V415H388.27V414.4L391.57 413.5V395.5C391.57 392.66 391.11 390.66 390.19 389.5C389.31 388.3 388.27 387.7 387.07 387.7C386.07 387.7 385.21 387.98 384.49 388.54C383.77 389.1 383.15 389.72 382.63 390.4C382.03 391.2 381.51 392.1 381.07 393.1V413.5L384.37 414.4V415H372.67V414.4L376.27 413.5ZM445.556 387.7C444.716 387.7 443.896 387.94 443.096 388.42C442.336 388.86 441.636 389.6 440.996 390.64C440.396 391.68 439.896 393.06 439.496 394.78C439.136 396.5 438.956 398.64 438.956 401.2C438.956 403.76 439.136 405.9 439.496 407.62C439.896 409.34 440.376 410.74 440.936 411.82C441.536 412.86 442.176 413.6 442.856 414.04C443.576 414.48 444.276 414.7 444.956 414.7C445.916 414.7 446.756 414.42 447.476 413.86C448.236 413.3 448.876 412.68 449.396 412C449.996 411.24 450.516 410.34 450.956 409.3V391.3C450.556 390.62 450.096 390.02 449.576 389.5C449.136 389.06 448.576 388.66 447.896 388.3C447.256 387.9 446.476 387.7 445.556 387.7ZM455.756 413.5L459.356 414.4V415H450.956V411.4C450.516 412.24 449.956 413 449.276 413.68C448.716 414.24 447.996 414.74 447.116 415.18C446.276 415.66 445.256 415.9 444.056 415.9C442.776 415.9 441.496 415.58 440.216 414.94C438.976 414.26 437.856 413.3 436.856 412.06C435.896 410.78 435.096 409.24 434.456 407.44C433.856 405.6 433.556 403.52 433.556 401.2C433.556 398.88 433.856 396.82 434.456 395.02C435.096 393.18 435.936 391.64 436.976 390.4C438.016 389.12 439.196 388.16 440.516 387.52C441.836 386.84 443.216 386.5 444.656 386.5C445.776 386.5 446.736 386.66 447.536 386.98C448.336 387.3 448.996 387.64 449.516 388C450.116 388.44 450.596 388.94 450.956 389.5V374.5L447.356 373.6V373H455.756V413.5ZM469.256 401.2C469.256 403.76 469.436 405.9 469.796 407.62C470.196 409.34 470.696 410.74 471.296 411.82C471.936 412.86 472.636 413.6 473.396 414.04C474.196 414.48 475.016 414.7 475.856 414.7C476.896 414.7 477.876 414.5 478.796 414.1C479.716 413.7 480.536 413.16 481.256 412.48C481.976 411.8 482.556 410.98 482.996 410.02C483.476 409.06 483.796 408.02 483.956 406.9H484.856C484.696 408.18 484.336 409.38 483.776 410.5C483.256 411.58 482.576 412.52 481.736 413.32C480.896 414.12 479.916 414.74 478.796 415.18C477.716 415.66 476.536 415.9 475.256 415.9C473.736 415.9 472.296 415.58 470.936 414.94C469.576 414.26 468.356 413.3 467.276 412.06C466.236 410.78 465.396 409.24 464.756 407.44C464.156 405.6 463.856 403.52 463.856 401.2C463.856 398.8 464.156 396.68 464.756 394.84C465.356 393 466.136 391.48 467.096 390.28C468.096 389.04 469.236 388.1 470.516 387.46C471.836 386.82 473.216 386.5 474.656 386.5C476.096 386.5 477.456 386.82 478.736 387.46C480.056 388.1 481.196 389.04 482.156 390.28C483.156 391.48 483.956 393 484.556 394.84C485.156 396.68 485.456 398.8 485.456 401.2H469.256ZM474.656 387.4C474.056 387.4 473.456 387.6 472.856 388C472.256 388.36 471.696 389.02 471.176 389.98C470.656 390.94 470.216 392.24 469.856 393.88C469.536 395.48 469.336 397.52 469.256 400H480.056C479.976 397.52 479.756 395.48 479.396 393.88C479.076 392.24 478.656 390.94 478.136 389.98C477.616 389.02 477.056 388.36 476.456 388C475.856 387.6 475.256 387.4 474.656 387.4ZM500.775 415.9C499.495 415.9 498.395 415.74 497.475 415.42C496.555 415.14 495.815 414.8 495.255 414.4C494.575 413.96 494.015 413.46 493.575 412.9C493.415 413.5 493.075 414.06 492.555 414.58C492.075 415.1 491.615 415.44 491.175 415.6H490.275C490.315 415.08 490.355 414.54 490.395 413.98C490.435 413.5 490.475 413 490.515 412.48C490.555 411.92 490.575 411.36 490.575 410.8C490.575 410.2 490.555 409.6 490.515 409C490.475 408.4 490.435 407.86 490.395 407.38C490.355 406.82 490.315 406.26 490.275 405.7H491.175C491.935 408.58 493.095 410.8 494.655 412.36C496.215 413.92 498.055 414.7 500.175 414.7C501.855 414.7 503.215 414.18 504.255 413.14C505.335 412.1 505.875 410.82 505.875 409.3C505.875 408.22 505.495 407.28 504.735 406.48C504.015 405.68 503.095 404.96 501.975 404.32C500.855 403.64 499.655 402.98 498.375 402.34C497.095 401.7 495.895 400.98 494.775 400.18C493.655 399.38 492.715 398.44 491.955 397.36C491.235 396.28 490.875 394.96 490.875 393.4C490.875 392.52 491.075 391.66 491.475 390.82C491.875 389.98 492.415 389.24 493.095 388.6C493.815 387.96 494.675 387.46 495.675 387.1C496.675 386.7 497.775 386.5 498.975 386.5C500.015 386.5 500.915 386.66 501.675 386.98C502.475 387.3 503.155 387.64 503.715 388C504.315 388.44 504.835 388.94 505.275 389.5C505.435 388.9 505.755 388.34 506.235 387.82C506.755 387.3 507.235 386.96 507.675 386.8H508.575C508.495 387.32 508.435 387.86 508.395 388.42C508.355 388.9 508.315 389.42 508.275 389.98C508.275 390.54 508.275 391.08 508.275 391.6C508.275 392.2 508.275 392.82 508.275 393.46C508.315 394.06 508.355 394.6 508.395 395.08C508.435 395.64 508.495 396.18 508.575 396.7H507.675C506.915 393.82 505.795 391.6 504.315 390.04C502.835 388.48 501.255 387.7 499.575 387.7C498.215 387.7 497.075 388.16 496.155 389.08C495.235 389.96 494.775 391 494.775 392.2C494.775 393.2 495.155 394.06 495.915 394.78C496.675 395.5 497.615 396.18 498.735 396.82C499.855 397.42 501.075 398.04 502.395 398.68C503.755 399.32 504.995 400.06 506.115 400.9C507.235 401.74 508.175 402.74 508.935 403.9C509.695 405.06 510.075 406.46 510.075 408.1C510.075 409.06 509.835 410.02 509.355 410.98C508.915 411.9 508.275 412.74 507.435 413.5C506.635 414.22 505.655 414.8 504.495 415.24C503.375 415.68 502.135 415.9 500.775 415.9ZM517.891 413.5V388.9L514.291 388V387.4H522.691V413.5L526.291 414.4V415H514.291V414.4L517.891 413.5ZM522.991 380.5C522.991 381.26 522.671 381.96 522.031 382.6C521.431 383.2 520.751 383.5 519.991 383.5C519.231 383.5 518.531 383.2 517.891 382.6C517.291 381.96 516.991 381.26 516.991 380.5C516.991 379.74 517.291 379.06 517.891 378.46C518.531 377.82 519.231 377.5 519.991 377.5C520.751 377.5 521.431 377.82 522.031 378.46C522.671 379.06 522.991 379.74 522.991 380.5ZM540.977 406C541.657 406 542.317 405.84 542.957 405.52C543.597 405.16 544.177 404.6 544.697 403.84C545.217 403.08 545.617 402.12 545.897 400.96C546.217 399.76 546.377 398.34 546.377 396.7C546.377 395.06 546.217 393.66 545.897 392.5C545.617 391.3 545.217 390.34 544.697 389.62C544.177 388.86 543.597 388.3 542.957 387.94C542.317 387.58 541.657 387.4 540.977 387.4C540.297 387.4 539.637 387.58 538.997 387.94C538.357 388.3 537.777 388.86 537.257 389.62C536.737 390.34 536.317 391.3 535.997 392.5C535.717 393.66 535.577 395.06 535.577 396.7C535.577 398.34 535.717 399.76 535.997 400.96C536.317 402.12 536.737 403.08 537.257 403.84C537.777 404.6 538.357 405.16 538.997 405.52C539.637 405.84 540.297 406 540.977 406ZM542.177 429.16C543.657 429.16 544.997 428.94 546.197 428.5C547.397 428.1 548.397 427.54 549.197 426.82C550.037 426.1 550.677 425.26 551.117 424.3C551.557 423.34 551.777 422.34 551.777 421.3C551.777 417.5 549.877 415.6 546.077 415.6H536.477C534.197 415.6 532.517 415.14 531.437 414.22C530.397 413.3 529.877 412.16 529.877 410.8C529.877 409.88 530.097 409.08 530.537 408.4C531.017 407.68 531.537 407.04 532.097 406.48C532.777 405.88 533.537 405.32 534.377 404.8C533.577 404.28 532.877 403.64 532.277 402.88C531.717 402.2 531.217 401.36 530.777 400.36C530.377 399.36 530.177 398.14 530.177 396.7C530.177 395.26 530.437 393.92 530.957 392.68C531.517 391.44 532.277 390.36 533.237 389.44C534.197 388.52 535.337 387.8 536.657 387.28C537.977 386.76 539.417 386.5 540.977 386.5C541.657 386.5 542.317 386.56 542.957 386.68C543.597 386.8 544.177 386.94 544.697 387.1C545.297 387.26 545.857 387.46 546.377 387.7C546.697 387.26 547.077 386.86 547.517 386.5C547.917 386.18 548.417 385.9 549.017 385.66C549.617 385.42 550.337 385.3 551.177 385.3C552.537 385.3 553.597 385.56 554.357 386.08C555.157 386.56 555.777 387.1 556.217 387.7C556.697 388.42 557.017 389.22 557.177 390.1L552.677 391C552.557 390.2 552.377 389.46 552.137 388.78C551.937 388.22 551.657 387.7 551.297 387.22C550.937 386.74 550.497 386.5 549.977 386.5C549.537 386.5 549.137 386.6 548.777 386.8C548.417 387 548.137 387.2 547.937 387.4C547.657 387.68 547.437 387.98 547.277 388.3C548.797 389.22 549.917 390.4 550.637 391.84C551.397 393.28 551.777 394.9 551.777 396.7C551.777 398.14 551.497 399.48 550.937 400.72C550.417 401.96 549.677 403.04 548.717 403.96C547.757 404.88 546.617 405.6 545.297 406.12C543.977 406.64 542.537 406.9 540.977 406.9C540.137 406.9 539.377 406.84 538.697 406.72C538.017 406.56 537.417 406.38 536.897 406.18C536.297 405.98 535.757 405.72 535.277 405.4C534.717 405.76 534.217 406.14 533.777 406.54C533.377 406.86 533.017 407.24 532.697 407.68C532.417 408.12 532.277 408.56 532.277 409C532.277 409.6 532.557 410.1 533.117 410.5C533.677 410.86 534.797 411.04 536.477 411.04H546.077C548.477 411.04 550.417 411.82 551.897 413.38C553.417 414.9 554.177 416.94 554.177 419.5C554.177 421.02 553.877 422.42 553.277 423.7C552.717 425.02 551.917 426.16 550.877 427.12C549.837 428.12 548.577 428.9 547.097 429.46C545.617 430.02 543.977 430.3 542.177 430.3C539.937 430.3 537.977 430.04 536.297 429.52C534.657 429.04 533.297 428.36 532.217 427.48C531.137 426.64 530.317 425.64 529.757 424.48C529.237 423.32 528.977 422.06 528.977 420.7C528.977 420.18 529.037 419.7 529.157 419.26C529.277 418.86 529.417 418.52 529.577 418.24C529.737 417.92 529.937 417.64 530.177 417.4L534.677 419.2C534.557 419.48 534.457 419.78 534.377 420.1C534.177 420.7 534.077 421.3 534.077 421.9C534.077 424.02 534.777 425.76 536.177 427.12C537.617 428.48 539.617 429.16 542.177 429.16ZM562.598 413.5V388.9L558.998 388V387.4H567.398V391C567.798 390.2 568.338 389.46 569.018 388.78C569.578 388.22 570.298 387.7 571.178 387.22C572.058 386.74 573.098 386.5 574.298 386.5C575.498 386.5 576.598 386.72 577.598 387.16C578.638 387.6 579.538 388.22 580.298 389.02C581.058 389.78 581.638 390.72 582.038 391.84C582.478 392.92 582.698 394.14 582.698 395.5V413.5L586.298 414.4V415H574.598V414.4L577.898 413.5V395.5C577.898 392.66 577.438 390.66 576.518 389.5C575.638 388.3 574.598 387.7 573.398 387.7C572.398 387.7 571.538 387.98 570.818 388.54C570.098 389.1 569.478 389.72 568.958 390.4C568.358 391.2 567.838 392.1 567.398 393.1V413.5L570.698 414.4V415H558.998V414.4L562.598 413.5ZM623.791 378.1C623.791 378.78 623.671 379.4 623.431 379.96C623.231 380.48 622.991 380.94 622.711 381.34C622.391 381.78 622.051 382.2 621.691 382.6L617.191 380.8C617.551 380.4 617.891 379.98 618.211 379.54C618.491 379.14 618.731 378.68 618.931 378.16C619.171 377.6 619.291 376.98 619.291 376.3C619.291 375.26 619.011 374.46 618.451 373.9C617.931 373.3 617.211 373 616.291 373C615.851 373 615.431 373.12 615.031 373.36C614.631 373.56 614.271 373.94 613.951 374.5C613.671 375.02 613.431 375.74 613.231 376.66C613.071 377.58 612.991 378.76 612.991 380.2V387.4H621.391V388.6H612.991V413.5L616.591 414.4V415H604.591V414.4L608.191 413.5V388.6H604.591V387.4H608.191V380.2C608.191 377.8 608.931 375.86 610.411 374.38C611.931 372.86 613.891 372.1 616.291 372.1C617.411 372.1 618.431 372.28 619.351 372.64C620.271 372.96 621.051 373.4 621.691 373.96C622.371 374.52 622.891 375.16 623.251 375.88C623.611 376.6 623.791 377.34 623.791 378.1ZM627.696 413.5V388.9L624.096 388V387.4H632.496V413.5L636.096 414.4V415H624.096V414.4L627.696 413.5ZM632.796 380.5C632.796 381.26 632.476 381.96 631.836 382.6C631.236 383.2 630.556 383.5 629.796 383.5C629.036 383.5 628.336 383.2 627.696 382.6C627.096 381.96 626.796 381.26 626.796 380.5C626.796 379.74 627.096 379.06 627.696 378.46C628.336 377.82 629.036 377.5 629.796 377.5C630.556 377.5 631.236 377.82 631.836 378.46C632.476 379.06 632.796 379.74 632.796 380.5ZM651.982 387.7C651.222 387.7 650.462 387.94 649.702 388.42C648.982 388.86 648.322 389.6 647.722 390.64C647.122 391.68 646.622 393.06 646.222 394.78C645.862 396.5 645.682 398.64 645.682 401.2C645.682 403.76 645.862 405.9 646.222 407.62C646.622 409.34 647.142 410.74 647.782 411.82C648.422 412.86 649.142 413.6 649.942 414.04C650.782 414.48 651.662 414.7 652.582 414.7C653.622 414.7 654.602 414.5 655.522 414.1C656.442 413.7 657.262 413.16 657.982 412.48C658.702 411.8 659.282 410.98 659.722 410.02C660.202 409.06 660.522 408.02 660.682 406.9H661.582C661.422 408.18 661.062 409.38 660.502 410.5C659.982 411.58 659.302 412.52 658.462 413.32C657.622 414.12 656.642 414.74 655.522 415.18C654.442 415.66 653.262 415.9 651.982 415.9C650.422 415.9 648.922 415.58 647.482 414.94C646.082 414.26 644.842 413.3 643.762 412.06C642.682 410.78 641.822 409.24 641.182 407.44C640.582 405.6 640.282 403.52 640.282 401.2C640.282 398.88 640.582 396.82 641.182 395.02C641.822 393.18 642.662 391.64 643.702 390.4C644.742 389.12 645.922 388.16 647.242 387.52C648.562 386.84 649.942 386.5 651.382 386.5C652.342 386.5 653.182 386.66 653.902 386.98C654.662 387.3 655.302 387.64 655.822 388C656.422 388.44 656.942 388.94 657.382 389.5C657.542 388.9 657.862 388.34 658.342 387.82C658.862 387.3 659.342 386.96 659.782 386.8H660.682C660.602 387.32 660.542 387.86 660.502 388.42C660.462 388.9 660.422 389.42 660.382 389.98C660.382 390.54 660.382 391.08 660.382 391.6C660.382 392.2 660.382 392.82 660.382 393.46C660.422 394.06 660.462 394.6 660.502 395.08C660.542 395.64 660.602 396.18 660.682 396.7H659.782C659.022 393.82 657.902 391.6 656.422 390.04C654.982 388.48 653.502 387.7 651.982 387.7ZM680.763 387.4V388.6H673.863V407.74C673.863 410.18 674.303 411.96 675.183 413.08C676.063 414.16 677.023 414.7 678.063 414.7C679.423 414.7 680.563 414.2 681.483 413.2C682.443 412.16 683.003 410.66 683.163 408.7H684.063C683.903 410.98 683.203 412.76 681.963 414.04C680.763 415.28 679.263 415.9 677.463 415.9C674.903 415.9 672.863 415.16 671.343 413.68C669.823 412.16 669.063 410.2 669.063 407.8V388.6H663.963V387.4H669.063V380.5L673.863 377.2V387.4H680.763ZM690.391 413.5V388.9L686.791 388V387.4H695.191V413.5L698.791 414.4V415H686.791V414.4L690.391 413.5ZM695.491 380.5C695.491 381.26 695.171 381.96 694.531 382.6C693.931 383.2 693.251 383.5 692.491 383.5C691.731 383.5 691.031 383.2 690.391 382.6C689.791 381.96 689.491 381.26 689.491 380.5C689.491 379.74 689.791 379.06 690.391 378.46C691.031 377.82 691.731 377.5 692.491 377.5C693.251 377.5 693.931 377.82 694.531 378.46C695.171 379.06 695.491 379.74 695.491 380.5ZM714.377 387.4C713.697 387.4 712.997 387.64 712.277 388.12C711.597 388.56 710.957 389.32 710.357 390.4C709.797 391.44 709.317 392.84 708.917 394.6C708.557 396.36 708.377 398.56 708.377 401.2C708.377 403.84 708.557 406.04 708.917 407.8C709.317 409.56 709.797 410.98 710.357 412.06C710.957 413.1 711.597 413.86 712.277 414.34C712.997 414.78 713.697 415 714.377 415C715.057 415 715.737 414.78 716.417 414.34C717.137 413.86 717.777 413.1 718.337 412.06C718.937 410.98 719.417 409.56 719.777 407.8C720.177 406.04 720.377 403.84 720.377 401.2C720.377 398.56 720.177 396.36 719.777 394.6C719.417 392.84 718.937 391.44 718.337 390.4C717.777 389.32 717.137 388.56 716.417 388.12C715.737 387.64 715.057 387.4 714.377 387.4ZM714.377 386.5C715.857 386.5 717.277 386.84 718.637 387.52C720.037 388.16 721.257 389.12 722.297 390.4C723.377 391.64 724.217 393.18 724.817 395.02C725.457 396.82 725.777 398.88 725.777 401.2C725.777 403.52 725.457 405.6 724.817 407.44C724.217 409.24 723.377 410.78 722.297 412.06C721.257 413.3 720.037 414.26 718.637 414.94C717.277 415.58 715.857 415.9 714.377 415.9C712.857 415.9 711.417 415.58 710.057 414.94C708.697 414.26 707.477 413.3 706.397 412.06C705.357 410.78 704.517 409.24 703.877 407.44C703.277 405.6 702.977 403.52 702.977 401.2C702.977 398.88 703.277 396.82 703.877 395.02C704.517 393.18 705.357 391.64 706.397 390.4C707.477 389.12 708.697 388.16 710.057 387.52C711.417 386.84 712.857 386.5 714.377 386.5ZM734.161 413.5V388.9L730.561 388V387.4H738.961V391C739.361 390.2 739.901 389.46 740.581 388.78C741.141 388.22 741.861 387.7 742.741 387.22C743.621 386.74 744.661 386.5 745.861 386.5C747.061 386.5 748.161 386.72 749.161 387.16C750.201 387.6 751.101 388.22 751.861 389.02C752.621 389.78 753.201 390.72 753.601 391.84C754.041 392.92 754.261 394.14 754.261 395.5V413.5L757.861 414.4V415H746.161V414.4L749.461 413.5V395.5C749.461 392.66 749.001 390.66 748.081 389.5C747.201 388.3 746.161 387.7 744.961 387.7C743.961 387.7 743.101 387.98 742.381 388.54C741.661 389.1 741.041 389.72 740.521 390.4C739.921 391.2 739.401 392.1 738.961 393.1V413.5L742.261 414.4V415H730.561V414.4L734.161 413.5Z" fill="white"/>
<rect x="28.5" y="379.5" width="44" height="44" stroke="white" stroke-width="3"/>
<path d="M35.1492 395.53C36.3092 395.07 37.4692 394.48 38.6292 393.76C39.8092 393.04 40.8492 392.19 41.7492 391.21H44.2992L44.2992 412H40.6692L40.6692 396.07C40.1292 396.49 39.4492 396.9 38.6292 397.3C37.8092 397.7 37.0192 398.03 36.2592 398.29L35.1492 395.53ZM63.93 396.61C63.93 397.33 63.78 398.04 63.48 398.74C63.18 399.42 62.79 400.09 62.31 400.75C61.85 401.39 61.32 402.02 60.72 402.64C60.12 403.24 59.52 403.83 58.92 404.41C58.6 404.71 58.24 405.07 57.84 405.49C57.44 405.91 57.06 406.33 56.7 406.75C56.34 407.17 56.03 407.58 55.77 407.98C55.51 408.36 55.37 408.68 55.35 408.94H64.59V412H51.36C51.34 411.84 51.33 411.65 51.33 411.43C51.33 411.19 51.33 411.01 51.33 410.89C51.33 409.93 51.48 409.05 51.78 408.25C52.1 407.43 52.51 406.67 53.01 405.97C53.51 405.27 54.07 404.61 54.69 403.99C55.31 403.37 55.93 402.76 56.55 402.16C57.03 401.7 57.49 401.25 57.93 400.81C58.37 400.37 58.75 399.94 59.07 399.52C59.41 399.08 59.68 398.64 59.88 398.2C60.08 397.74 60.18 397.27 60.18 396.79C60.18 395.75 59.88 395.01 59.28 394.57C58.68 394.13 57.95 393.91 57.09 393.91C56.53 393.91 56.01 393.99 55.53 394.15C55.05 394.31 54.62 394.5 54.24 394.72C53.88 394.94 53.56 395.17 53.28 395.41C53 395.63 52.79 395.81 52.65 395.95L50.85 393.4C51.69 392.6 52.67 391.96 53.79 391.48C54.93 390.98 56.15 390.73 57.45 390.73C59.67 390.73 61.3 391.26 62.34 392.32C63.4 393.36 63.93 394.79 63.93 396.61Z" fill="white"/>
</g>
<defs>
<clipPath id="clip0_633_267">
<rect width="1300" height="976" fill="white"/>
</clipPath>
</defs>
</svg>
