<svg width="1300" height="976" viewBox="0 0 1300 976" fill="none" xmlns="http://www.w3.org/2000/svg">
<g clip-path="url(#clip0_399_281)">
<path d="M636.954 681.273C639.194 681.273 640.958 680.741 642.246 679.677C643.506 678.613 644.136 677.143 644.136 675.267C644.136 674.455 644.108 673.769 644.052 673.209C643.968 672.621 643.884 672.145 643.8 671.781L631.2 671.781C630.892 672.229 630.612 672.831 630.36 673.587C630.08 674.315 629.94 675.099 629.94 675.939C629.94 677.787 630.57 679.145 631.83 680.013C633.09 680.853 634.798 681.273 636.954 681.273ZM647.328 666.699C647.636 667.707 647.916 668.981 648.168 670.521C648.42 672.033 648.546 673.629 648.546 675.309C648.546 677.045 648.28 678.599 647.748 679.971C647.216 681.343 646.46 682.519 645.48 683.499C644.472 684.451 643.268 685.193 641.868 685.725C640.44 686.229 638.844 686.481 637.08 686.481C635.344 686.481 633.776 686.271 632.376 685.851C630.948 685.403 629.73 684.759 628.722 683.919C627.714 683.079 626.944 682.057 626.412 680.853C625.852 679.649 625.572 678.263 625.572 676.695C625.572 675.631 625.698 674.693 625.95 673.881C626.202 673.069 626.482 672.369 626.79 671.781L616.248 671.781L615.408 666.699L647.328 666.699ZM637.122 661.462C635.19 661.462 633.496 661.182 632.04 660.622C630.584 660.034 629.38 659.264 628.428 658.312C627.448 657.36 626.72 656.268 626.244 655.036C625.74 653.804 625.488 652.544 625.488 651.256C625.488 648.232 626.426 645.88 628.302 644.2C630.178 642.492 632.978 641.638 636.702 641.638C636.982 641.638 637.304 641.652 637.668 641.68C638.004 641.68 638.312 641.694 638.592 641.722L638.592 656.212C640.356 656.072 641.728 655.456 642.708 654.364C643.66 653.244 644.136 651.634 644.136 649.534C644.136 648.302 644.024 647.182 643.8 646.174C643.576 645.138 643.338 644.326 643.086 643.738L647.244 643.066C647.384 643.346 647.538 643.738 647.706 644.242C647.846 644.718 647.972 645.278 648.084 645.922C648.224 646.538 648.336 647.21 648.42 647.938C648.504 648.666 648.546 649.408 648.546 650.164C648.546 652.096 648.266 653.776 647.706 655.204C647.118 656.632 646.32 657.808 645.312 658.732C644.276 659.656 643.072 660.342 641.7 660.79C640.3 661.238 638.774 661.462 637.122 661.462ZM634.854 646.72C634.154 646.72 633.496 646.818 632.88 647.014C632.236 647.21 631.69 647.504 631.242 647.896C630.766 648.26 630.402 648.722 630.15 649.282C629.87 649.814 629.73 650.458 629.73 651.214C629.73 651.998 629.884 652.684 630.192 653.272C630.472 653.86 630.85 654.364 631.326 654.784C631.802 655.176 632.348 655.484 632.964 655.708C633.58 655.932 634.21 656.086 634.854 656.17L634.854 646.72ZM644.346 630.747C644.346 629.403 644.192 628.423 643.884 627.807C643.548 627.191 642.988 626.883 642.204 626.883C641.476 626.883 640.874 627.219 640.398 627.891C639.922 628.535 639.404 629.613 638.844 631.125C638.508 632.049 638.158 632.903 637.794 633.687C637.402 634.443 636.954 635.101 636.45 635.661C635.946 636.221 635.344 636.669 634.644 637.005C633.916 637.313 633.034 637.467 631.998 637.467C629.982 637.467 628.4 636.725 627.252 635.241C626.076 633.757 625.488 631.741 625.488 629.193C625.488 627.905 625.614 626.673 625.866 625.497C626.09 624.321 626.314 623.439 626.538 622.851L630.654 623.775C630.402 624.335 630.178 625.049 629.982 625.917C629.758 626.785 629.646 627.793 629.646 628.941C629.646 629.977 629.828 630.817 630.192 631.461C630.528 632.105 631.06 632.427 631.788 632.427C632.152 632.427 632.474 632.371 632.754 632.259C633.034 632.119 633.3 631.895 633.552 631.587C633.776 631.279 634.014 630.873 634.266 630.369C634.49 629.865 634.728 629.249 634.98 628.521C635.428 627.317 635.876 626.295 636.324 625.455C636.744 624.615 637.234 623.929 637.794 623.397C638.326 622.837 638.942 622.431 639.642 622.179C640.342 621.927 641.182 621.801 642.162 621.801C644.262 621.801 645.858 622.585 646.95 624.153C648.014 625.693 648.546 627.905 648.546 630.789C648.546 632.721 648.378 634.275 648.042 635.451C647.734 636.627 647.482 637.453 647.286 637.929L643.044 637.047C643.352 636.291 643.646 635.395 643.926 634.359C644.206 633.295 644.346 632.091 644.346 630.747ZM648 611.93L648 617.012L626.034 617.012L626.034 611.93L648 611.93ZM619.608 611.384C620.56 611.384 621.316 611.692 621.876 612.308C622.436 612.924 622.716 613.652 622.716 614.492C622.716 615.36 622.436 616.102 621.876 616.718C621.316 617.334 620.56 617.642 619.608 617.642C618.628 617.642 617.858 617.334 617.298 616.718C616.738 616.102 616.458 615.36 616.458 614.492C616.458 613.652 616.738 612.924 617.298 612.308C617.858 611.692 618.628 611.384 619.608 611.384ZM636.45 601.457C638.606 601.457 640.188 600.995 641.196 600.071C642.176 599.119 642.666 597.901 642.666 596.417C642.666 595.605 642.554 594.849 642.33 594.149C642.106 593.421 641.84 592.833 641.532 592.385L630.15 592.385C630.066 592.749 629.996 593.197 629.94 593.729C629.856 594.261 629.814 594.933 629.814 595.745C629.814 597.593 630.43 599.007 631.662 599.987C632.866 600.967 634.462 601.457 636.45 601.457ZM645.774 587.303C649.274 587.303 651.836 588.199 653.46 589.991C655.084 591.755 655.896 594.471 655.896 598.139C655.896 599.483 655.784 600.799 655.56 602.087C655.336 603.347 655.042 604.495 654.678 605.531L650.352 604.607C650.716 603.739 651.01 602.759 651.234 601.667C651.458 600.547 651.57 599.343 651.57 598.055C651.57 596.011 651.15 594.555 650.31 593.687C649.47 592.819 648.224 592.385 646.572 592.385L645.732 592.385C645.984 592.889 646.236 593.561 646.488 594.401C646.74 595.213 646.866 596.151 646.866 597.215C646.866 598.615 646.642 599.903 646.194 601.079C645.746 602.227 645.088 603.221 644.22 604.061C643.352 604.873 642.274 605.517 640.986 605.993C639.67 606.441 638.158 606.665 636.45 606.665C634.854 606.665 633.384 606.427 632.04 605.951C630.696 605.447 629.548 604.733 628.596 603.809C627.644 602.857 626.902 601.709 626.37 600.365C625.838 599.021 625.572 597.495 625.572 595.787C625.572 594.135 625.698 592.567 625.95 591.083C626.202 589.599 626.468 588.339 626.748 587.303L645.774 587.303ZM626.748 580.837C626.468 579.857 626.202 578.583 625.95 577.015C625.698 575.447 625.572 573.711 625.572 571.807C625.572 570.015 625.824 568.517 626.328 567.313C626.804 566.109 627.49 565.157 628.386 564.457C629.254 563.729 630.318 563.225 631.578 562.945C632.81 562.637 634.168 562.483 635.652 562.483L648 562.483L648 567.565L636.45 567.565C635.274 567.565 634.28 567.649 633.468 567.817C632.628 567.957 631.956 568.209 631.452 568.573C630.92 568.909 630.542 569.385 630.318 570.001C630.066 570.589 629.94 571.317 629.94 572.185C629.94 572.829 629.982 573.501 630.066 574.201C630.15 574.901 630.22 575.419 630.276 575.755L648 575.755L648 580.837L626.748 580.837Z" fill="white"/>
<path d="M357.017 606.601C354.362 604.803 351.461 602.663 348.314 600.18C345.177 597.658 342.016 594.844 338.832 591.736L343.524 589.027C344.407 589.939 345.375 590.916 346.428 591.957C347.492 592.959 348.575 593.967 349.677 594.98C350.789 595.954 351.887 596.904 352.971 597.83C354.066 598.718 355.061 599.517 355.957 600.229C355.789 599.097 355.581 597.843 355.336 596.465C355.076 595.063 354.79 593.644 354.478 592.208C354.176 590.733 353.857 589.284 353.521 587.862C353.171 586.415 352.821 585.081 352.472 583.861L357.018 581.236C358.118 585.548 358.963 589.699 359.553 593.691C360.155 597.644 360.57 601.219 360.799 604.417L357.017 606.601ZM375.726 595.799L371.325 598.34L360.342 579.317L364.743 576.776L375.726 595.799ZM362.003 570.938C362.479 571.762 362.59 572.571 362.336 573.364C362.083 574.157 361.592 574.763 360.865 575.183C360.113 575.617 359.331 575.746 358.517 575.569C357.704 575.392 357.059 574.891 356.583 574.067C356.093 573.218 355.975 572.397 356.228 571.604C356.482 570.811 356.984 570.198 357.736 569.764C358.463 569.344 359.234 569.222 360.047 569.399C360.861 569.576 361.513 570.089 362.003 570.938ZM384.278 586.642C385.442 585.97 386.214 585.346 386.594 584.772C386.959 584.173 386.946 583.534 386.554 582.855C386.19 582.224 385.598 581.871 384.778 581.795C383.982 581.704 382.79 581.795 381.2 582.066C380.232 582.237 379.317 582.361 378.456 582.438C377.606 582.476 376.812 582.417 376.075 582.261C375.338 582.104 374.649 581.807 374.008 581.369C373.377 580.892 372.803 580.205 372.285 579.308C371.277 577.562 371.128 575.821 371.84 574.085C372.537 572.324 373.989 570.807 376.195 569.533C377.311 568.889 378.441 568.382 379.585 568.013C380.716 567.619 381.591 567.372 382.213 567.272L383.47 571.298C382.859 571.36 382.129 571.523 381.279 571.787C380.416 572.027 379.487 572.434 378.492 573.008C377.595 573.526 376.959 574.104 376.583 574.741C376.193 575.354 376.181 575.976 376.545 576.606C376.727 576.921 376.936 577.172 377.173 577.359C377.434 577.531 377.761 577.65 378.154 577.714C378.533 577.754 379.003 577.757 379.566 577.723C380.114 577.665 380.767 577.563 381.523 577.418C382.79 577.204 383.899 577.081 384.85 577.049C385.788 576.992 386.627 577.074 387.368 577.293C388.119 577.473 388.778 577.804 389.347 578.284C389.915 578.764 390.444 579.429 390.934 580.277C391.984 582.096 392.103 583.87 391.291 585.6C390.489 587.291 388.84 588.858 386.342 590.3C384.669 591.266 383.239 591.898 382.053 592.195C380.88 592.516 380.039 592.711 379.529 592.779L378.171 588.664C378.98 588.553 379.903 588.36 380.94 588.084C382.002 587.795 383.114 587.314 384.278 586.642ZM413.232 573.369C412.51 574.077 411.532 574.932 410.3 575.934C409.082 576.961 407.661 577.943 406.036 578.881C404.509 579.763 403.098 580.287 401.803 580.452C400.532 580.604 399.358 580.474 398.279 580.062C397.225 579.636 396.257 578.966 395.374 578.053C394.477 577.116 393.658 576.005 392.916 574.72L386.763 564.062L391.164 561.521L396.918 571.488C398.094 573.525 399.225 574.812 400.311 575.348C401.421 575.871 402.716 575.706 404.195 574.852C404.729 574.544 405.272 574.198 405.826 573.813C406.405 573.415 406.818 573.095 407.067 572.854L398.184 557.468L402.585 554.927L413.232 573.369ZM424.078 563.761C425.436 562.977 426.424 562.309 427.043 561.757L424.229 556.883C423.945 556.951 423.551 557.081 423.049 557.274C422.546 557.467 422.016 557.725 421.458 558.047C420.973 558.327 420.497 558.65 420.03 559.017C419.587 559.37 419.215 559.762 418.915 560.194C418.639 560.612 418.485 561.073 418.452 561.577C418.406 562.056 418.536 562.563 418.844 563.096C419.446 564.139 420.194 564.678 421.086 564.712C421.965 564.722 422.962 564.405 424.078 563.761ZM414.243 547.566C415.698 546.726 417.027 546.201 418.232 545.991C419.436 545.781 420.518 545.835 421.478 546.154C422.462 546.458 423.348 547.014 424.137 547.819C424.936 548.587 425.657 549.528 426.301 550.644L432.958 562.174C432.363 562.711 431.43 563.476 430.16 564.468C428.928 565.47 427.452 566.469 425.73 567.463C424.59 568.121 423.485 568.613 422.413 568.941C421.341 569.269 420.326 569.386 419.367 569.293C418.432 569.186 417.547 568.857 416.711 568.305C415.899 567.739 415.164 566.886 414.506 565.746C413.876 564.655 413.55 563.615 413.529 562.625C413.531 561.621 413.763 560.679 414.224 559.798C414.672 558.893 415.312 558.071 416.146 557.331C416.99 556.553 417.933 555.863 418.976 555.261C419.461 554.981 419.991 554.723 420.567 554.488C421.128 554.228 421.754 553.996 422.444 553.792L422.024 553.064C421.73 552.555 421.39 552.105 421.002 551.714C420.615 551.324 420.166 551.05 419.655 550.892C419.154 550.696 418.593 550.648 417.971 550.748C417.374 550.835 416.7 551.095 415.948 551.529C414.93 552.117 414.038 552.728 413.274 553.364C412.509 553.999 411.916 554.568 411.494 555.07L408.891 551.82C409.337 551.304 410.037 550.641 410.992 549.831C411.947 549.021 413.03 548.266 414.243 547.566ZM445.43 556.04C444.106 556.772 442.931 557.257 441.904 557.494C440.901 557.717 440.005 557.733 439.216 557.542C438.413 557.327 437.692 556.919 437.054 556.317C436.426 555.678 435.839 554.885 435.293 553.939L422.651 532.043L426.632 528.774L439.211 550.562C439.519 551.095 439.814 551.523 440.097 551.844C440.404 552.152 440.744 552.376 441.116 552.517C441.474 552.634 441.877 552.66 442.325 552.595C442.783 552.492 443.324 552.309 443.948 552.046L445.43 556.04ZM453.835 550.702L449.434 553.243L438.451 534.22L442.852 531.679L453.835 550.702ZM440.112 525.841C440.588 526.666 440.7 527.474 440.446 528.267C440.193 529.06 439.702 529.667 438.975 530.087C438.223 530.521 437.44 530.649 436.627 530.472C435.813 530.295 435.169 529.795 434.693 528.97C434.203 528.121 434.084 527.301 434.338 526.508C434.591 525.715 435.094 525.101 435.846 524.667C436.573 524.247 437.344 524.126 438.157 524.303C438.971 524.48 439.622 524.992 440.112 525.841ZM463.565 523.843C463.374 524.632 463.144 525.719 462.876 527.102C462.632 528.472 462.391 529.985 462.151 531.643C461.898 533.276 461.668 534.977 461.46 536.746C461.263 538.476 461.123 540.109 461.039 541.645L470.86 535.975L472.981 539.649L457.85 548.385L456.275 545.657C456.248 544.379 456.306 542.939 456.448 541.337C456.591 539.735 456.757 538.12 456.948 536.49C457.124 534.836 457.324 533.25 457.547 531.731C457.793 530.198 458.02 528.855 458.227 527.701L449.461 532.762L447.34 529.088L461.78 520.751L463.565 523.843ZM481.976 530.333C483.334 529.549 484.323 528.881 484.942 528.33L482.128 523.456C481.843 523.523 481.45 523.653 480.947 523.847C480.444 524.04 479.914 524.297 479.356 524.619C478.871 524.899 478.395 525.223 477.928 525.59C477.485 525.942 477.114 526.335 476.813 526.767C476.537 527.185 476.383 527.645 476.351 528.149C476.304 528.629 476.435 529.135 476.743 529.669C477.345 530.711 478.092 531.25 478.985 531.284C479.864 531.294 480.861 530.977 481.976 530.333ZM472.141 514.139C473.596 513.299 474.926 512.774 476.13 512.563C477.334 512.353 478.416 512.407 479.376 512.726C480.361 513.031 481.247 513.586 482.035 514.392C482.834 515.159 483.556 516.101 484.2 517.216L490.857 528.746C490.262 529.284 489.329 530.048 488.059 531.04C486.827 532.043 485.35 533.041 483.628 534.035C482.489 534.693 481.383 535.186 480.311 535.513C479.24 535.841 478.224 535.959 477.265 535.866C476.331 535.759 475.445 535.429 474.609 534.877C473.798 534.311 473.063 533.458 472.405 532.319C471.775 531.228 471.449 530.187 471.427 529.197C471.43 528.194 471.661 527.251 472.123 526.371C472.57 525.466 473.211 524.643 474.045 523.903C474.889 523.125 475.832 522.435 476.875 521.833C477.36 521.553 477.89 521.295 478.465 521.06C479.027 520.801 479.653 520.569 480.343 520.364L479.923 519.637C479.629 519.127 479.288 518.677 478.901 518.287C478.514 517.896 478.065 517.622 477.553 517.464C477.052 517.269 476.491 517.221 475.87 517.321C475.273 517.407 474.599 517.667 473.847 518.101C472.828 518.689 471.937 519.301 471.172 519.936C470.408 520.572 469.814 521.14 469.393 521.642L466.789 518.393C467.235 517.877 467.935 517.214 468.89 516.404C469.845 515.594 470.929 514.839 472.141 514.139ZM506.047 522.449C507.033 522.365 507.804 522.469 508.361 522.762C508.942 523.041 509.429 523.52 509.821 524.199C510.311 525.047 510.367 525.985 509.99 527.011C509.612 528.037 508.696 528.97 507.241 529.81C506.077 530.482 504.956 530.92 503.877 531.123L502.874 528.21C503.158 528.142 503.523 528.045 503.967 527.918C504.41 527.791 504.839 527.609 505.251 527.371C505.663 527.133 505.936 526.878 506.071 526.607C506.229 526.321 506.224 526.033 506.056 525.742C505.832 525.354 505.495 525.161 505.043 525.163C504.606 525.189 504.182 525.24 503.773 525.314L503.346 525.415C503.261 525.044 503.184 524.603 503.116 524.093C503.062 523.607 503.021 523.145 502.995 522.708C501.608 523.218 500.293 523.46 499.05 523.434C497.806 523.408 496.636 523.146 495.54 522.647C494.43 522.124 493.402 521.408 492.457 520.499C491.536 519.576 490.704 518.472 489.962 517.187C489.15 515.78 488.613 514.345 488.349 512.88C488.072 511.392 488.074 509.968 488.356 508.608C488.663 507.235 489.251 505.958 490.121 504.777C490.991 503.596 492.153 502.585 493.608 501.745C495.402 500.709 497.289 500.056 499.267 499.787L500.401 503.934C499.765 504.01 499.078 504.164 498.34 504.396C497.625 504.615 496.904 504.934 496.177 505.354C494.455 506.348 493.461 507.65 493.194 509.259C492.912 510.844 493.339 512.618 494.473 514.583C495.565 516.474 496.857 517.732 498.35 518.358C499.828 518.959 501.574 518.679 503.587 517.517C504.338 517.083 505.036 516.583 505.68 516.017C506.323 515.452 506.848 514.906 507.256 514.38L509.974 517.66C509.664 518.13 509.133 518.695 508.383 519.355C507.632 520.015 506.81 520.635 505.916 521.215C505.931 521.465 505.951 521.696 505.977 521.908C506.002 522.12 506.025 522.3 506.047 522.449ZM518.562 509.21C519.92 508.426 520.909 507.758 521.528 507.207L518.714 502.333C518.43 502.4 518.036 502.53 517.533 502.723C517.031 502.917 516.5 503.174 515.943 503.496C515.458 503.776 514.981 504.1 514.514 504.466C514.071 504.819 513.7 505.212 513.399 505.644C513.123 506.062 512.969 506.522 512.937 507.026C512.89 507.506 513.021 508.012 513.329 508.546C513.931 509.588 514.678 510.127 515.571 510.161C516.45 510.171 517.447 509.854 518.562 509.21ZM508.728 493.016C510.183 492.176 511.512 491.651 512.716 491.44C513.92 491.23 515.003 491.284 515.963 491.603C516.947 491.908 517.833 492.463 518.622 493.269C519.42 494.036 520.142 494.977 520.786 496.093L527.443 507.623C526.848 508.161 525.915 508.925 524.645 509.917C523.413 510.92 521.936 511.918 520.215 512.912C519.075 513.57 517.969 514.063 516.898 514.39C515.826 514.718 514.81 514.836 513.852 514.743C512.917 514.636 512.031 514.306 511.195 513.754C510.384 513.188 509.649 512.335 508.991 511.196C508.361 510.104 508.035 509.064 508.013 508.074C508.016 507.071 508.248 506.128 508.709 505.248C509.157 504.343 509.797 503.52 510.631 502.78C511.475 502.002 512.418 501.312 513.461 500.71C513.946 500.43 514.476 500.172 515.052 499.937C515.613 499.677 516.239 499.445 516.929 499.241L516.509 498.514C516.215 498.004 515.874 497.554 515.487 497.164C515.1 496.773 514.651 496.499 514.139 496.341C513.638 496.146 513.077 496.098 512.456 496.198C511.859 496.284 511.185 496.544 510.433 496.978C509.415 497.566 508.523 498.177 507.758 498.813C506.994 499.448 506.401 500.017 505.979 500.519L503.376 497.27C503.821 496.754 504.522 496.091 505.477 495.281C506.431 494.471 507.515 493.716 508.728 493.016ZM512.094 482.634C512.144 483.057 512.167 483.545 512.163 484.097C512.168 484.611 512.107 485.148 511.977 485.708C511.834 486.243 511.614 486.758 511.317 487.253C511.021 487.747 510.606 488.149 510.072 488.457C509.636 488.709 509.188 488.886 508.731 488.989C508.259 489.067 507.78 489.134 507.294 489.188C506.832 489.228 506.384 489.293 505.95 489.381C505.527 489.432 505.145 489.555 504.806 489.751C504.345 490.017 504.036 490.406 503.879 490.917C503.745 491.414 503.701 491.925 503.745 492.449L500.77 492.421C500.695 492.011 500.655 491.55 500.649 491.036C500.654 490.483 500.728 489.939 500.871 489.404C501.025 488.83 501.25 488.296 501.547 487.802C501.843 487.307 502.258 486.906 502.791 486.598C503.228 486.346 503.682 486.181 504.154 486.102C504.626 486.024 505.093 485.964 505.555 485.924C506.027 485.846 506.474 485.781 506.898 485.731C507.346 485.666 507.739 485.536 508.079 485.34C508.539 485.074 508.836 484.692 508.97 484.195C509.113 483.659 509.163 483.13 509.119 482.605L512.094 482.634ZM544.787 485.485C545.655 486.989 546.228 488.485 546.505 489.973C546.783 491.462 546.773 492.874 546.477 494.209C546.181 495.544 545.603 496.783 544.743 497.926C543.908 499.055 542.811 500.011 541.453 500.795C540.095 501.579 538.719 502.051 537.323 502.21C535.928 502.369 534.578 502.243 533.274 501.832C531.97 501.421 530.73 500.73 529.555 499.759C528.405 498.775 527.396 497.531 526.528 496.027C525.66 494.524 525.094 493.04 524.83 491.575C524.577 490.073 524.599 488.654 524.895 487.319C525.215 485.97 525.8 484.743 526.65 483.638C527.485 482.509 528.57 481.56 529.903 480.79C531.237 480.02 532.602 479.555 533.997 479.396C535.403 479.199 536.758 479.306 538.062 479.717C539.366 480.128 540.593 480.826 541.744 481.81C542.905 482.757 543.919 483.982 544.787 485.485ZM540.277 488.089C539.185 486.198 537.911 484.944 536.457 484.329C535.013 483.676 533.563 483.769 532.108 484.609C530.653 485.449 529.836 486.665 529.655 488.256C529.485 489.809 529.946 491.532 531.038 493.423C532.144 495.339 533.419 496.623 534.863 497.277C536.332 497.916 537.793 497.816 539.248 496.976C540.703 496.136 541.509 494.927 541.665 493.35C541.845 491.758 541.383 490.005 540.277 488.089Z" fill="white"/>
<path d="M121.04 125.287L116.639 122.746L127.622 103.723L132.023 106.264L121.04 125.287ZM135.709 100.972C135.233 101.796 134.588 102.297 133.775 102.474C132.961 102.651 132.191 102.529 131.463 102.109C130.712 101.675 130.209 101.062 129.956 100.269C129.702 99.476 129.813 98.6673 130.289 97.8428C130.779 96.9941 131.431 96.4813 132.245 96.3043C133.058 96.1274 133.841 96.2559 134.592 96.6899C135.32 97.1099 135.81 97.7164 136.064 98.5093C136.317 99.3023 136.199 100.123 135.709 100.972ZM137.281 110.124C138.27 110.371 139.506 110.778 140.99 111.344C142.474 111.91 144.04 112.669 145.689 113.621C147.241 114.517 148.412 115.484 149.203 116.522C150.008 117.536 150.489 118.607 150.648 119.733C150.844 120.848 150.748 122.022 150.361 123.253C150.012 124.474 149.466 125.727 148.724 127.012L142.55 137.706L138.149 135.165L143.924 125.162C144.512 124.144 144.936 123.241 145.197 122.454C145.495 121.656 145.613 120.948 145.55 120.33C145.525 119.701 145.302 119.136 144.88 118.634C144.497 118.121 143.93 117.648 143.178 117.214C142.62 116.892 142.017 116.593 141.369 116.315C140.721 116.038 140.237 115.84 139.918 115.72L131.056 131.07L126.655 128.529L137.281 110.124ZM161.595 116.644L166.416 118.458L163.098 124.205L169.863 128.111L167.742 131.784L160.977 127.878L156.504 135.626C155.622 137.154 155.234 138.385 155.341 139.32C155.448 140.254 156.084 141.058 157.248 141.73C158.048 142.192 158.8 142.513 159.504 142.693C160.233 142.887 160.821 143.017 161.269 143.081L159.98 146.993C159.345 146.917 158.552 146.75 157.601 146.493C156.637 146.259 155.597 145.82 154.482 145.176C153.124 144.392 152.089 143.553 151.378 142.657C150.69 141.775 150.276 140.841 150.135 139.854C150.007 138.843 150.114 137.789 150.456 136.693C150.812 135.573 151.354 134.382 152.082 133.121L161.595 116.644ZM167.199 139.376C168.165 137.703 169.255 136.376 170.468 135.395C171.705 134.428 172.974 133.77 174.274 133.422C175.589 133.049 176.898 132.965 178.203 133.168C179.522 133.348 180.739 133.76 181.855 134.404C184.474 135.916 186.042 137.904 186.558 140.369C187.1 142.847 186.439 145.699 184.577 148.924C184.437 149.167 184.264 149.439 184.058 149.74C183.89 150.031 183.724 150.291 183.56 150.519L171.011 143.274C170.25 144.872 170.098 146.368 170.553 147.763C171.047 149.147 172.203 150.364 174.022 151.414C175.089 152.03 176.115 152.493 177.1 152.803C178.109 153.127 178.931 153.327 179.567 153.403L178.07 157.34C177.757 157.321 177.341 157.259 176.82 157.152C176.338 157.035 175.79 156.864 175.176 156.639C174.573 156.453 173.935 156.214 173.262 155.922C172.59 155.631 171.926 155.297 171.272 154.919C169.598 153.953 168.283 152.87 167.327 151.671C166.384 150.448 165.765 149.169 165.468 147.834C165.186 146.475 165.194 145.089 165.492 143.677C165.804 142.24 166.373 140.807 167.199 139.376ZM181.1 144.783C181.45 144.177 181.694 143.558 181.832 142.926C181.985 142.271 182.003 141.651 181.888 141.067C181.81 140.473 181.592 139.926 181.233 139.428C180.913 138.92 180.425 138.476 179.77 138.098C179.091 137.706 178.42 137.497 177.757 137.47C177.108 137.418 176.482 137.493 175.88 137.696C175.303 137.912 174.763 138.231 174.261 138.652C173.759 139.074 173.311 139.542 172.916 140.058L181.1 144.783ZM203.128 152.602C202.834 152.271 202.395 151.856 201.81 151.357C201.264 150.847 200.566 150.347 199.717 149.857C199.232 149.577 198.683 149.325 198.069 149.1C197.48 148.889 197.055 148.757 196.795 148.703L187.996 163.944L183.595 161.403L194.053 143.289C195.083 143.464 196.306 143.782 197.721 144.243C199.174 144.694 200.677 145.368 202.229 146.264C202.52 146.432 202.845 146.652 203.205 146.924C203.579 147.173 203.939 147.445 204.285 147.742C204.645 148.014 204.979 148.304 205.287 148.611C205.608 148.894 205.857 149.135 206.034 149.333L203.128 152.602ZM206.742 170.645C208.1 171.429 209.173 171.951 209.96 172.212L212.774 167.338C212.573 167.125 212.264 166.849 211.845 166.51C211.426 166.172 210.938 165.841 210.38 165.519C209.895 165.239 209.377 164.989 208.826 164.767C208.299 164.56 207.774 164.434 207.249 164.39C206.749 164.36 206.273 164.457 205.821 164.681C205.382 164.88 205.009 165.247 204.701 165.78C204.099 166.823 204.006 167.74 204.423 168.53C204.854 169.296 205.627 170.001 206.742 170.645ZM215.849 154.031C217.304 154.871 218.424 155.759 219.208 156.697C219.992 157.635 220.486 158.599 220.69 159.59C220.919 160.595 220.881 161.64 220.577 162.725C220.312 163.801 219.858 164.896 219.214 166.012L212.557 177.542C211.794 177.296 210.665 176.87 209.171 176.266C207.687 175.7 206.084 174.921 204.362 173.927C203.223 173.269 202.243 172.557 201.423 171.793C200.604 171.029 199.994 170.208 199.595 169.331C199.221 168.468 199.063 167.537 199.123 166.537C199.208 165.551 199.579 164.488 200.237 163.349C200.867 162.257 201.605 161.455 202.451 160.941C203.322 160.441 204.253 160.171 205.247 160.131C206.254 160.066 207.287 160.209 208.345 160.561C209.441 160.903 210.51 161.375 211.553 161.977C212.038 162.257 212.526 162.587 213.017 162.968C213.523 163.324 214.037 163.75 214.559 164.246L214.979 163.518C215.273 163.009 215.492 162.489 215.637 161.958C215.782 161.428 215.795 160.902 215.675 160.38C215.594 159.848 215.355 159.339 214.958 158.851C214.585 158.377 214.023 157.923 213.271 157.489C212.253 156.901 211.277 156.434 210.344 156.09C209.412 155.745 208.622 155.516 207.977 155.402L209.489 151.522C210.159 151.651 211.083 151.926 212.262 152.348C213.441 152.77 214.637 153.331 215.849 154.031ZM225.605 187.549C226.171 188.361 226.466 189.081 226.491 189.71C226.54 190.352 226.369 191.013 225.977 191.692C225.487 192.541 224.703 193.058 223.626 193.244C222.548 193.431 221.282 193.104 219.827 192.264C218.663 191.592 217.724 190.839 217.009 190.006L219.03 187.681C219.23 187.894 219.497 188.161 219.829 188.482C220.16 188.803 220.533 189.082 220.945 189.32C221.357 189.558 221.714 189.667 222.017 189.648C222.343 189.642 222.59 189.494 222.758 189.203C222.982 188.815 222.981 188.426 222.753 188.036C222.512 187.671 222.256 187.329 221.987 187.012L221.686 186.693C221.965 186.433 222.308 186.147 222.716 185.832C223.11 185.542 223.489 185.277 223.855 185.035C222.72 184.089 221.853 183.071 221.254 181.981C220.654 180.892 220.296 179.747 220.18 178.549C220.078 177.326 220.184 176.078 220.499 174.804C220.838 173.545 221.378 172.273 222.12 170.988C222.932 169.581 223.907 168.398 225.043 167.438C226.194 166.453 227.428 165.743 228.746 165.308C230.089 164.887 231.489 164.757 232.947 164.92C234.405 165.083 235.861 165.584 237.316 166.424C239.11 167.46 240.619 168.768 241.841 170.346L238.817 173.401C238.433 172.889 237.956 172.371 237.386 171.848C236.839 171.338 236.202 170.873 235.475 170.453C233.753 169.459 232.129 169.249 230.602 169.822C229.088 170.371 227.765 171.628 226.631 173.592C225.539 175.483 225.095 177.232 225.3 178.837C225.518 180.418 226.634 181.79 228.647 182.952C229.398 183.386 230.18 183.74 230.992 184.015C231.803 184.289 232.538 184.471 233.198 184.561L231.716 188.555C231.154 188.522 230.399 188.345 229.453 188.024C228.506 187.704 227.558 187.302 226.608 186.819C226.399 186.957 226.209 187.09 226.039 187.217C225.868 187.345 225.723 187.456 225.605 187.549ZM243.328 191.768C244.686 192.552 245.759 193.074 246.546 193.335L249.36 188.461C249.16 188.248 248.85 187.972 248.431 187.633C248.013 187.295 247.524 186.964 246.967 186.642C246.482 186.362 245.963 186.112 245.412 185.89C244.885 185.683 244.36 185.557 243.835 185.513C243.335 185.483 242.859 185.58 242.407 185.804C241.968 186.004 241.595 186.37 241.287 186.903C240.685 187.946 240.592 188.863 241.009 189.653C241.44 190.419 242.213 191.124 243.328 191.768ZM252.436 175.154C253.891 175.994 255.01 176.882 255.794 177.82C256.578 178.758 257.073 179.722 257.277 180.713C257.505 181.718 257.467 182.763 257.164 183.848C256.898 184.924 256.444 186.019 255.8 187.135L249.143 198.665C248.38 198.419 247.251 197.993 245.757 197.389C244.273 196.824 242.67 196.044 240.949 195.05C239.809 194.392 238.829 193.681 238.01 192.916C237.19 192.152 236.58 191.331 236.182 190.454C235.807 189.592 235.649 188.66 235.709 187.66C235.794 186.674 236.165 185.611 236.823 184.472C237.453 183.38 238.191 182.578 239.037 182.064C239.908 181.565 240.84 181.294 241.833 181.254C242.841 181.189 243.873 181.332 244.931 181.684C246.027 182.026 247.096 182.498 248.139 183.1C248.624 183.38 249.112 183.71 249.604 184.091C250.109 184.447 250.623 184.873 251.145 185.369L251.565 184.641C251.859 184.132 252.078 183.612 252.223 183.082C252.368 182.551 252.381 182.025 252.261 181.503C252.18 180.971 251.941 180.462 251.544 179.974C251.171 179.5 250.609 179.046 249.857 178.612C248.839 178.024 247.863 177.557 246.93 177.213C245.998 176.868 245.209 176.639 244.563 176.525L246.076 172.646C246.745 172.774 247.67 173.049 248.849 173.471C250.027 173.893 251.223 174.454 252.436 175.154ZM263.11 172.878C262.768 173.133 262.357 173.397 261.877 173.669C261.434 173.931 260.939 174.146 260.389 174.314C259.854 174.457 259.298 174.524 258.721 174.515C258.145 174.505 257.59 174.346 257.056 174.038C256.62 173.786 256.243 173.488 255.925 173.143C255.621 172.773 255.324 172.392 255.034 171.998C254.768 171.618 254.488 171.263 254.194 170.931C253.939 170.59 253.641 170.321 253.302 170.125C252.841 169.859 252.35 169.786 251.829 169.905C251.331 170.038 250.867 170.255 250.435 170.555L248.972 167.965C249.289 167.695 249.669 167.429 250.111 167.167C250.592 166.895 251.1 166.687 251.635 166.544C252.209 166.39 252.784 166.318 253.361 166.328C253.937 166.337 254.492 166.496 255.025 166.804C255.462 167.056 255.832 167.367 256.136 167.736C256.44 168.106 256.725 168.48 256.991 168.86C257.295 169.229 257.574 169.585 257.83 169.926C258.11 170.282 258.419 170.558 258.759 170.754C259.219 171.02 259.698 171.086 260.196 170.953C260.731 170.809 261.215 170.587 261.647 170.287L263.11 172.878ZM276.987 202.617C276.119 204.12 275.11 205.364 273.959 206.349C272.809 207.333 271.581 208.031 270.277 208.442C268.973 208.853 267.611 208.972 266.191 208.799C264.796 208.64 263.419 208.169 262.061 207.385C260.703 206.601 259.607 205.644 258.771 204.515C257.936 203.386 257.37 202.154 257.074 200.819C256.778 199.484 256.756 198.065 257.009 196.563C257.287 195.074 257.86 193.578 258.728 192.075C259.596 190.571 260.598 189.339 261.734 188.379C262.909 187.408 264.149 186.717 265.453 186.306C266.781 185.909 268.136 185.803 269.518 185.986C270.913 186.145 272.278 186.609 273.611 187.379C274.945 188.149 276.03 189.099 276.865 190.228C277.739 191.347 278.324 192.573 278.62 193.908C278.916 195.243 278.925 196.655 278.648 198.144C278.409 199.622 277.855 201.113 276.987 202.617ZM272.477 200.013C273.569 198.121 274.017 196.392 273.823 194.825C273.667 193.247 272.861 192.039 271.406 191.199C269.951 190.359 268.49 190.258 267.021 190.898C265.591 191.527 264.33 192.787 263.238 194.679C262.132 196.594 261.657 198.341 261.813 199.918C261.994 201.51 262.811 202.725 264.266 203.565C265.721 204.405 267.171 204.499 268.615 203.845C270.083 203.206 271.371 201.928 272.477 200.013ZM284.508 219.665L300.384 192.167L305.206 193.981L299.767 203.402C300.35 203.512 300.991 203.688 301.692 203.931C302.416 204.188 303.094 204.498 303.725 204.862C305.252 205.744 306.387 206.69 307.129 207.701C307.91 208.701 308.379 209.764 308.537 210.89C308.71 211.992 308.609 213.146 308.235 214.353C307.886 215.574 307.333 216.839 306.577 218.149L300.403 228.842L296.002 226.301L301.777 216.299C302.365 215.28 302.79 214.378 303.05 213.59C303.349 212.793 303.467 212.085 303.403 211.466C303.378 210.838 303.167 210.279 302.77 209.791C302.387 209.279 301.819 208.806 301.068 208.372C300.486 208.036 299.857 207.754 299.18 207.525C298.504 207.296 297.993 207.146 297.646 207.075L288.91 222.206L284.508 219.665ZM328.385 232.291C327.517 233.795 326.508 235.039 325.357 236.024C324.207 237.008 322.98 237.706 321.675 238.117C320.371 238.528 319.009 238.647 317.59 238.474C316.194 238.315 314.817 237.843 313.46 237.059C312.102 236.275 311.005 235.319 310.169 234.19C309.334 233.061 308.768 231.829 308.472 230.494C308.176 229.159 308.154 227.74 308.408 226.238C308.685 224.749 309.258 223.253 310.126 221.749C310.994 220.246 311.996 219.014 313.133 218.054C314.307 217.083 315.547 216.392 316.851 215.981C318.179 215.584 319.534 215.477 320.916 215.661C322.311 215.82 323.676 216.284 325.01 217.054C326.343 217.824 327.428 218.774 328.263 219.903C329.137 221.021 329.722 222.248 330.018 223.583C330.314 224.918 330.324 226.33 330.046 227.819C329.807 229.297 329.253 230.788 328.385 232.291ZM323.875 229.687C324.967 227.796 325.416 226.067 325.221 224.499C325.065 222.922 324.259 221.713 322.805 220.873C321.35 220.033 319.888 219.933 318.419 220.572C316.989 221.202 315.728 222.462 314.636 224.353C313.53 226.269 313.055 228.016 313.211 229.593C313.392 231.184 314.21 232.4 315.665 233.24C317.119 234.08 318.569 234.173 320.013 233.52C321.482 232.881 322.769 231.603 323.875 229.687ZM344.031 240.694C345.179 238.706 345.751 237.128 345.746 235.961C345.779 234.784 345.116 233.803 343.758 233.019C343.273 232.739 342.719 232.468 342.095 232.205C341.471 231.941 340.999 231.75 340.68 231.63L331.818 246.98L327.417 244.439L338.043 226.034C339.032 226.282 340.268 226.688 341.752 227.254C343.26 227.834 344.778 228.565 346.306 229.447C347.615 230.203 348.584 230.988 349.213 231.804C349.866 232.633 350.31 233.488 350.545 234.368C350.924 234.328 351.383 234.318 351.921 234.337C352.459 234.357 353.032 234.429 353.639 234.553C354.26 234.653 354.885 234.804 355.513 235.005C356.165 235.219 356.781 235.495 357.363 235.831C358.843 236.685 359.929 237.603 360.623 238.585C361.355 239.558 361.763 240.586 361.849 241.67C361.973 242.743 361.816 243.882 361.38 245.085C360.983 246.278 360.413 247.517 359.671 248.802L353.497 259.496L349.096 256.955L354.871 246.952C356.019 244.964 356.602 243.393 356.621 242.24C356.654 241.063 355.98 240.075 354.597 239.277C353.894 238.871 353.157 238.608 352.387 238.486C351.63 238.34 351.032 238.286 350.59 238.322C350.434 239.04 350.197 239.76 349.878 240.481C349.558 241.202 349.175 241.95 348.727 242.726L342.658 253.238L338.256 250.697L344.031 240.694ZM363.273 252.579C364.239 250.906 365.328 249.579 366.541 248.598C367.778 247.631 369.047 246.973 370.348 246.625C371.662 246.252 372.972 246.168 374.277 246.372C375.596 246.551 376.813 246.963 377.928 247.607C380.547 249.119 382.115 251.107 382.632 253.572C383.173 256.051 382.513 258.902 380.651 262.127C380.511 262.37 380.338 262.642 380.131 262.943C379.963 263.234 379.797 263.494 379.633 263.722L367.084 256.477C366.324 258.075 366.171 259.571 366.627 260.966C367.121 262.35 368.277 263.568 370.096 264.618C371.163 265.234 372.189 265.697 373.174 266.007C374.183 266.331 375.005 266.53 375.64 266.606L374.143 270.543C373.831 270.524 373.414 270.462 372.894 270.355C372.411 270.238 371.863 270.068 371.25 269.843C370.646 269.656 370.008 269.417 369.336 269.126C368.663 268.834 368 268.5 367.345 268.122C365.672 267.156 364.357 266.073 363.4 264.874C362.458 263.651 361.838 262.372 361.542 261.037C361.26 259.678 361.268 258.292 361.566 256.88C361.878 255.443 362.447 254.01 363.273 252.579ZM377.174 257.986C377.524 257.38 377.768 256.761 377.906 256.13C378.058 255.474 378.077 254.854 377.961 254.27C377.884 253.676 377.666 253.13 377.307 252.631C376.986 252.123 376.498 251.68 375.844 251.302C375.165 250.91 374.494 250.7 373.83 250.673C373.181 250.621 372.556 250.696 371.954 250.899C371.377 251.115 370.837 251.434 370.335 251.855C369.833 252.277 369.384 252.745 368.99 253.261L377.174 257.986ZM396.282 270.861C397.43 268.873 398.002 267.295 397.996 266.128C398.029 264.951 397.367 263.97 396.009 263.186C395.524 262.906 394.97 262.635 394.346 262.372C393.722 262.108 393.25 261.917 392.931 261.797L384.069 277.147L379.668 274.606L390.294 256.201C391.283 256.449 392.519 256.855 394.003 257.421C395.511 258.001 397.029 258.732 398.557 259.614C399.866 260.37 400.835 261.155 401.464 261.971C402.116 262.8 402.561 263.655 402.796 264.535C403.175 264.495 403.633 264.485 404.172 264.504C404.71 264.524 405.283 264.596 405.89 264.72C406.511 264.82 407.136 264.971 407.763 265.172C408.415 265.386 409.032 265.662 409.614 265.998C411.093 266.852 412.18 267.77 412.874 268.752C413.605 269.725 414.014 270.753 414.1 271.837C414.223 272.91 414.067 274.049 413.631 275.252C413.233 276.445 412.664 277.684 411.922 278.969L405.748 289.663L401.346 287.122L407.121 277.119C408.269 275.131 408.853 273.56 408.872 272.407C408.905 271.23 408.23 270.242 406.848 269.444C406.145 269.038 405.408 268.775 404.638 268.653C403.881 268.507 403.282 268.453 402.841 268.489C402.685 269.207 402.448 269.927 402.128 270.648C401.809 271.369 401.425 272.117 400.977 272.893L394.908 283.405L390.507 280.864L396.282 270.861ZM416.336 279.239L426.121 284.888L423.79 288.925L414.005 283.276L416.336 279.239ZM439.227 295.655C440.375 293.667 440.946 292.089 440.941 290.922C440.974 289.745 440.311 288.764 438.953 287.98C438.468 287.7 437.914 287.429 437.29 287.166C436.666 286.902 436.195 286.711 435.876 286.591L427.014 301.941L422.612 299.4L433.238 280.995C434.227 281.243 435.463 281.649 436.947 282.215C438.456 282.795 439.973 283.526 441.501 284.408C442.811 285.164 443.78 285.949 444.408 286.765C445.061 287.594 445.505 288.449 445.741 289.329C446.119 289.289 446.578 289.279 447.116 289.298C447.654 289.318 448.227 289.39 448.834 289.514C449.455 289.614 450.08 289.765 450.708 289.965C451.36 290.18 451.977 290.456 452.559 290.792C454.038 291.646 455.124 292.564 455.818 293.546C456.55 294.519 456.959 295.547 457.044 296.631C457.168 297.704 457.012 298.843 456.576 300.046C456.178 301.239 455.608 302.478 454.866 303.763L448.692 314.457L444.291 311.916L450.066 301.913C451.214 299.925 451.797 298.354 451.816 297.201C451.849 296.024 451.175 295.036 449.793 294.238C449.089 293.832 448.353 293.569 447.582 293.447C446.826 293.301 446.227 293.247 445.786 293.283C445.63 294.001 445.392 294.721 445.073 295.442C444.753 296.163 444.37 296.911 443.922 297.687L437.853 308.199L433.452 305.658L439.227 295.655ZM462.561 318.342C463.919 319.126 464.992 319.648 465.779 319.909L468.593 315.035C468.393 314.822 468.083 314.546 467.664 314.208C467.245 313.869 466.757 313.538 466.2 313.216C465.715 312.936 465.196 312.686 464.645 312.465C464.118 312.257 463.593 312.132 463.068 312.088C462.568 312.058 462.092 312.155 461.64 312.378C461.201 312.578 460.828 312.944 460.52 313.478C459.918 314.52 459.825 315.437 460.242 316.227C460.673 316.993 461.446 317.698 462.561 318.342ZM471.669 301.728C473.124 302.568 474.243 303.457 475.027 304.394C475.811 305.332 476.306 306.296 476.51 307.287C476.738 308.292 476.7 309.337 476.397 310.423C476.131 311.498 475.677 312.594 475.033 313.709L468.376 325.239C467.613 324.993 466.484 324.568 464.99 323.964C463.506 323.398 461.903 322.618 460.182 321.624C459.042 320.966 458.062 320.255 457.243 319.491C456.423 318.726 455.813 317.906 455.415 317.029C455.04 316.166 454.882 315.234 454.942 314.234C455.027 313.248 455.398 312.186 456.056 311.046C456.686 309.955 457.424 309.152 458.27 308.638C459.141 308.139 460.073 307.869 461.066 307.828C462.074 307.763 463.106 307.906 464.164 308.258C465.26 308.6 466.329 309.072 467.372 309.674C467.857 309.954 468.345 310.284 468.836 310.665C469.342 311.022 469.856 311.448 470.378 311.943L470.798 311.216C471.092 310.706 471.311 310.186 471.456 309.656C471.601 309.125 471.614 308.599 471.494 308.077C471.413 307.546 471.174 307.036 470.777 306.548C470.404 306.074 469.842 305.62 469.09 305.186C468.072 304.598 467.096 304.132 466.163 303.787C465.231 303.443 464.442 303.213 463.796 303.099L465.309 299.22C465.978 299.348 466.903 299.623 468.082 300.045C469.26 300.467 470.456 301.028 471.669 301.728ZM481.382 297.588L472.135 299.912L471.087 296.688L480.109 293.409L481.382 297.588ZM482.408 321.362C481.344 323.205 480.861 324.882 480.958 326.393C481.08 327.918 481.941 329.143 483.541 330.067C484.269 330.487 485.011 330.77 485.767 330.915C486.562 331.051 487.23 331.097 487.772 331.055L494.051 320.179C493.778 319.924 493.413 319.633 492.956 319.304C492.537 318.965 491.952 318.579 491.2 318.145C489.576 317.207 487.98 317.03 486.415 317.613C484.864 318.172 483.528 319.422 482.408 321.362ZM477.94 318.685C478.808 317.182 479.81 315.95 480.946 314.989C482.121 314.019 483.366 313.347 484.68 312.974C486.033 312.591 487.436 312.513 488.89 312.738C490.359 312.939 491.844 313.473 493.348 314.341C494.851 315.209 496.195 316.13 497.378 317.105C498.562 318.079 499.508 318.932 500.216 319.665L485.705 344.799L481.304 342.258L485.567 334.874C484.904 334.847 484.133 334.725 483.256 334.509C482.402 334.308 481.527 333.948 480.63 333.43C479.272 332.646 478.205 331.722 477.428 330.66C476.665 329.573 476.184 328.39 475.985 327.111C475.786 325.832 475.842 324.474 476.154 323.038C476.49 321.615 477.086 320.164 477.94 318.685ZM511.121 349.724C510.146 349.453 508.917 349.034 507.433 348.468C505.935 347.927 504.374 347.187 502.749 346.249C501.222 345.367 500.062 344.407 499.272 343.368C498.505 342.344 498.031 341.261 497.848 340.121C497.69 338.995 497.786 337.822 498.135 336.601C498.498 335.356 499.051 334.091 499.793 332.806L505.946 322.148L510.347 324.689L504.593 334.655C503.417 336.692 502.868 338.315 502.946 339.524C503.048 340.747 503.839 341.786 505.318 342.64C505.851 342.948 506.423 343.245 507.033 343.533C507.667 343.834 508.151 344.033 508.484 344.128L517.367 328.742L521.768 331.283L511.121 349.724ZM520.824 356.102L516.423 353.561L527.406 334.538L531.807 337.079L520.824 356.102ZM535.493 331.787C535.017 332.612 534.372 333.112 533.559 333.289C532.745 333.466 531.975 333.345 531.248 332.925C530.496 332.491 529.993 331.877 529.74 331.084C529.486 330.291 529.598 329.483 530.074 328.658C530.564 327.81 531.215 327.297 532.029 327.12C532.842 326.943 533.625 327.071 534.377 327.505C535.104 327.925 535.594 328.532 535.848 329.325C536.101 330.118 535.983 330.939 535.493 331.787ZM537.065 340.939C538.054 341.187 539.29 341.594 540.774 342.159C542.258 342.725 543.824 343.484 545.473 344.436C547.025 345.332 548.197 346.299 548.987 347.338C549.792 348.352 550.273 349.422 550.432 350.548C550.628 351.664 550.533 352.837 550.145 354.068C549.796 355.289 549.25 356.542 548.508 357.828L542.334 368.521L537.933 365.98L543.708 355.978C544.296 354.959 544.72 354.056 544.981 353.269C545.279 352.472 545.397 351.764 545.334 351.145C545.309 350.516 545.086 349.951 544.664 349.449C544.281 348.937 543.714 348.464 542.962 348.03C542.404 347.708 541.801 347.408 541.153 347.131C540.505 346.854 540.021 346.655 539.702 346.536L530.84 361.885L526.439 359.344L537.065 340.939ZM556.194 372.401C557.551 373.185 558.624 373.707 559.411 373.967L562.225 369.093C562.025 368.881 561.715 368.605 561.296 368.266C560.878 367.927 560.389 367.597 559.832 367.275C559.347 366.995 558.829 366.744 558.277 366.523C557.751 366.316 557.225 366.19 556.701 366.146C556.201 366.116 555.724 366.213 555.272 366.437C554.833 366.636 554.46 367.003 554.152 367.536C553.55 368.579 553.458 369.495 553.874 370.286C554.305 371.052 555.078 371.757 556.194 372.401ZM565.301 355.786C566.756 356.626 567.875 357.515 568.659 358.453C569.444 359.391 569.938 360.355 570.142 361.346C570.37 362.35 570.332 363.396 570.029 364.481C569.764 365.557 569.309 366.652 568.665 367.768L562.008 379.298C561.245 379.051 560.116 378.626 558.622 378.022C557.138 377.456 555.535 376.676 553.814 375.682C552.674 375.024 551.694 374.313 550.875 373.549C550.055 372.785 549.446 371.964 549.047 371.087C548.672 370.224 548.515 369.293 548.575 368.293C548.659 367.307 549.03 366.244 549.688 365.104C550.318 364.013 551.056 363.211 551.902 362.697C552.773 362.197 553.705 361.927 554.698 361.886C555.706 361.821 556.738 361.965 557.796 362.317C558.892 362.659 559.961 363.131 561.004 363.733C561.489 364.013 561.977 364.343 562.469 364.724C562.974 365.08 563.488 365.506 564.01 366.002L564.43 365.274C564.724 364.765 564.944 364.245 565.088 363.714C565.233 363.184 565.246 362.657 565.127 362.136C565.046 361.604 564.807 361.094 564.409 360.606C564.036 360.132 563.474 359.678 562.722 359.244C561.704 358.656 560.728 358.19 559.796 357.846C558.863 357.501 558.074 357.272 557.428 357.158L558.941 353.278C559.61 353.406 560.535 353.681 561.714 354.103C562.893 354.525 564.088 355.086 565.301 355.786ZM513.489 373.685L518.072 376.331L503.519 401.537L498.936 398.891L505.383 387.725L494.435 381.404L487.988 392.57L483.405 389.924L497.958 364.718L502.541 367.364L496.724 377.439L507.672 383.76L513.489 373.685ZM520.436 412.032C518.545 410.94 517.015 409.669 515.848 408.219C514.681 406.769 513.898 405.185 513.499 403.467C513.114 401.726 513.112 399.882 513.492 397.935C513.872 395.988 514.672 393.96 515.89 391.85C517.108 389.741 518.501 388.056 520.069 386.795C521.662 385.548 523.338 384.689 525.098 384.218C526.871 383.722 528.677 383.617 530.517 383.903C532.356 384.189 534.137 384.829 535.858 385.823C536.901 386.425 537.798 387.056 538.549 387.716C539.313 388.352 539.955 388.948 540.473 389.506C540.992 390.064 541.394 390.571 541.68 391.028C541.967 391.484 542.167 391.809 542.28 392.004L538.772 394.974C538.4 394.274 537.759 393.452 536.85 392.506C535.979 391.551 534.913 390.709 533.652 389.981C532.561 389.351 531.43 388.957 530.261 388.799C529.105 388.617 527.958 388.699 526.821 389.044C525.708 389.404 524.629 390.042 523.583 390.957C522.537 391.873 521.58 393.083 520.712 394.586C519.942 395.92 519.38 397.228 519.027 398.512C518.699 399.809 518.611 401.052 518.766 402.241C518.934 403.405 519.371 404.497 520.075 405.518C520.792 406.514 521.83 407.405 523.188 408.189C524.813 409.127 526.226 409.732 527.426 410.005C528.64 410.253 529.611 410.393 530.336 410.424L529.41 414.885C529.007 414.911 528.495 414.874 527.874 414.774C527.277 414.688 526.583 414.546 525.792 414.348C525.015 414.125 524.174 413.818 523.269 413.425C522.35 413.056 521.406 412.592 520.436 412.032ZM547.296 393.203L551.879 395.849L537.326 421.056L532.743 418.41L547.296 393.203Z" fill="white"/>
<path d="M738.102 484.838L733.7 482.297L744.683 463.274L749.085 465.815L738.102 484.838ZM752.77 460.523C752.294 461.347 751.65 461.848 750.836 462.025C750.023 462.202 749.252 462.081 748.525 461.661C747.773 461.227 747.27 460.613 747.017 459.82C746.764 459.027 746.875 458.218 747.351 457.394C747.841 456.545 748.493 456.032 749.306 455.855C750.119 455.678 750.902 455.807 751.654 456.241C752.381 456.661 752.872 457.267 753.125 458.06C753.379 458.853 753.26 459.674 752.77 460.523ZM754.342 469.675C755.331 469.923 756.567 470.329 758.051 470.895C759.535 471.461 761.102 472.22 762.751 473.172C764.302 474.068 765.474 475.035 766.264 476.073C767.069 477.088 767.551 478.158 767.709 479.284C767.905 480.399 767.81 481.573 767.422 482.804C767.073 484.025 766.527 485.278 765.785 486.563L759.611 497.257L755.21 494.716L760.985 484.713C761.573 483.695 761.997 482.792 762.258 482.005C762.557 481.207 762.674 480.499 762.611 479.881C762.586 479.252 762.363 478.687 761.942 478.185C761.558 477.673 760.991 477.199 760.239 476.765C759.681 476.443 759.078 476.144 758.43 475.867C757.782 475.589 757.298 475.391 756.979 475.271L748.117 490.621L743.716 488.08L754.342 469.675ZM778.656 476.195L783.477 478.009L780.159 483.756L786.924 487.662L784.803 491.336L778.038 487.43L773.565 495.177C772.683 496.705 772.296 497.936 772.403 498.871C772.509 499.805 773.145 500.609 774.309 501.281C775.109 501.743 775.861 502.064 776.566 502.244C777.294 502.438 777.882 502.568 778.33 502.632L777.041 506.544C776.406 506.468 775.613 506.302 774.663 506.044C773.698 505.81 772.658 505.372 771.543 504.728C770.185 503.944 769.15 503.104 768.439 502.208C767.752 501.326 767.337 500.392 767.196 499.405C767.068 498.394 767.176 497.34 767.517 496.244C767.873 495.124 768.415 493.933 769.143 492.672L778.656 476.195ZM784.26 498.927C785.226 497.254 786.316 495.927 787.529 494.946C788.766 493.979 790.035 493.321 791.335 492.973C792.65 492.6 793.96 492.516 795.265 492.72C796.583 492.899 797.801 493.311 798.916 493.955C801.535 495.467 803.103 497.455 803.62 499.92C804.161 502.399 803.501 505.25 801.639 508.475C801.499 508.718 801.325 508.99 801.119 509.291C800.951 509.582 800.785 509.842 800.621 510.07L788.072 502.825C787.311 504.423 787.159 505.919 787.615 507.314C788.108 508.698 789.265 509.916 791.083 510.966C792.15 511.582 793.176 512.045 794.161 512.355C795.17 512.679 795.993 512.878 796.628 512.954L795.131 516.891C794.818 516.872 794.402 516.81 793.881 516.703C793.399 516.586 792.851 516.416 792.237 516.191C791.634 516.004 790.996 515.765 790.324 515.474C789.651 515.182 788.988 514.848 788.333 514.47C786.66 513.504 785.345 512.421 784.388 511.222C783.445 509.999 782.826 508.72 782.53 507.385C782.247 506.026 782.255 504.64 782.553 503.228C782.865 501.791 783.434 500.358 784.26 498.927ZM798.161 504.334C798.511 503.728 798.756 503.109 798.894 502.478C799.046 501.822 799.064 501.202 798.949 500.618C798.872 500.024 798.654 499.478 798.295 498.979C797.974 498.471 797.486 498.028 796.831 497.65C796.153 497.258 795.481 497.048 794.818 497.021C794.169 496.969 793.544 497.044 792.942 497.247C792.364 497.463 791.825 497.782 791.323 498.203C790.821 498.625 790.372 499.093 789.977 499.609L798.161 504.334ZM807.066 525.14C805.77 524.359 804.763 523.584 804.044 522.813C803.349 522.056 802.887 521.289 802.658 520.51C802.443 519.706 802.436 518.878 802.638 518.025C802.878 517.161 803.271 516.256 803.817 515.31L816.459 493.414L821.28 495.227L808.701 517.015C808.393 517.548 808.171 518.018 808.033 518.424C807.92 518.843 807.896 519.25 807.96 519.642C808.038 520.011 808.217 520.373 808.497 520.728C808.815 521.074 809.244 521.451 809.784 521.859L807.066 525.14ZM815.892 529.75L811.49 527.209L822.473 508.186L826.875 510.727L815.892 529.75ZM830.56 505.435C830.084 506.26 829.44 506.76 828.626 506.937C827.813 507.114 827.042 506.993 826.315 506.573C825.563 506.139 825.061 505.525 824.807 504.732C824.554 503.939 824.665 503.131 825.141 502.306C825.631 501.457 826.283 500.945 827.096 500.768C827.91 500.591 828.692 500.719 829.444 501.153C830.171 501.573 830.662 502.18 830.915 502.973C831.169 503.766 831.05 504.586 830.56 505.435ZM830.737 524.984C829.659 526.852 829.268 528.453 829.564 529.788C829.899 531.112 830.708 532.146 831.994 532.888C832.697 533.294 833.408 533.575 834.126 533.731C834.868 533.901 835.51 533.964 836.052 533.922L841.743 524.064C841.47 523.81 841.117 523.525 840.684 523.211C840.266 522.872 839.705 522.499 839.002 522.093C837.401 521.169 835.869 520.996 834.404 521.573C832.953 522.126 831.731 523.263 830.737 524.984ZM838.333 540.136C836.583 543.167 834.526 544.938 832.162 545.448C829.822 545.973 827.064 545.318 823.887 543.484C822.723 542.812 821.64 542.057 820.636 541.219C819.657 540.395 818.81 539.567 818.095 538.733L821.058 535.449C821.628 536.198 822.329 536.943 823.163 537.683C824.021 538.437 825.008 539.136 826.123 539.78C827.893 540.802 829.364 541.166 830.536 540.872C831.708 540.579 832.706 539.717 833.532 538.286L833.952 537.559C833.39 537.525 832.682 537.407 831.828 537.206C830.999 537.018 830.124 536.658 829.203 536.126C827.99 535.426 826.987 534.588 826.192 533.612C825.422 532.65 824.89 531.583 824.597 530.411C824.327 529.254 824.309 527.998 824.541 526.645C824.811 525.281 825.373 523.86 826.227 522.38C827.025 520.998 827.966 519.844 829.05 518.918C830.158 518.006 831.351 517.369 832.627 517.007C833.927 516.658 835.293 516.59 836.723 516.801C838.152 517.012 839.607 517.545 841.086 518.399C842.517 519.225 843.812 520.118 844.971 521.078C846.13 522.038 847.088 522.899 847.846 523.659L838.333 540.136ZM847.203 535.267C848.169 533.594 849.258 532.267 850.471 531.286C851.709 530.319 852.977 529.661 854.278 529.313C855.592 528.94 856.902 528.856 858.207 529.059C859.526 529.239 860.743 529.651 861.859 530.295C864.477 531.807 866.045 533.795 866.562 536.26C867.103 538.738 866.443 541.59 864.581 544.815C864.441 545.058 864.268 545.33 864.062 545.631C863.894 545.922 863.727 546.182 863.563 546.41L851.015 539.165C850.254 540.763 850.101 542.259 850.557 543.654C851.051 545.038 852.207 546.255 854.026 547.305C855.093 547.921 856.119 548.384 857.104 548.694C858.113 549.018 858.935 549.218 859.57 549.294L858.073 553.231C857.761 553.212 857.344 553.15 856.824 553.043C856.342 552.926 855.794 552.755 855.18 552.53C854.576 552.344 853.939 552.105 853.266 551.813C852.594 551.522 851.93 551.188 851.275 550.81C849.602 549.844 848.287 548.761 847.33 547.562C846.388 546.339 845.768 545.06 845.472 543.725C845.19 542.366 845.198 540.98 845.496 539.568C845.808 538.131 846.377 536.698 847.203 535.267ZM861.104 540.674C861.454 540.068 861.698 539.449 861.836 538.817C861.989 538.162 862.007 537.542 861.891 536.958C861.814 536.364 861.596 535.817 861.237 535.319C860.916 534.811 860.429 534.367 859.774 533.989C859.095 533.597 858.424 533.388 857.761 533.36C857.111 533.309 856.486 533.384 855.884 533.587C855.307 533.803 854.767 534.122 854.265 534.543C853.763 534.965 853.315 535.433 852.92 535.949L861.104 540.674ZM869.103 529.676L866.28 530.617L864.38 525.591L859.115 526.48L858.482 523.544L866.732 521.518L869.103 529.676ZM874.224 538.889C875.213 539.136 876.449 539.543 877.933 540.109C879.417 540.675 880.984 541.434 882.632 542.386C884.184 543.282 885.356 544.249 886.146 545.287C886.951 546.301 887.433 547.372 887.591 548.498C887.787 549.613 887.692 550.787 887.304 552.018C886.955 553.239 886.409 554.492 885.667 555.777L879.493 566.471L875.092 563.93L880.867 553.927C881.455 552.909 881.879 552.006 882.14 551.219C882.439 550.421 882.556 549.713 882.493 549.095C882.468 548.466 882.245 547.901 881.824 547.399C881.44 546.886 880.873 546.413 880.121 545.979C879.563 545.657 878.96 545.358 878.312 545.08C877.664 544.803 877.18 544.605 876.861 544.485L867.999 559.835L863.598 557.294L874.224 538.889ZM889.301 559.476C890.113 558.069 891.088 556.886 892.224 555.925C893.374 554.941 894.609 554.231 895.927 553.795C897.269 553.374 898.67 553.245 900.128 553.408C901.586 553.571 903.042 554.072 904.497 554.912C906.291 555.948 907.8 557.255 909.022 558.834L905.997 561.889C905.614 561.377 905.137 560.859 904.567 560.335C904.02 559.826 903.383 559.361 902.656 558.941C900.934 557.947 899.31 557.737 897.782 558.31C896.269 558.859 894.946 560.115 893.812 562.08C892.72 563.971 892.276 565.719 892.481 567.325C892.699 568.906 893.815 570.278 895.828 571.44C896.579 571.874 897.361 572.228 898.172 572.502C898.984 572.777 899.719 572.959 900.379 573.049L898.897 577.043C898.272 577.006 897.407 576.797 896.3 576.417C895.218 576.051 894.156 575.567 893.113 574.965C891.489 574.027 890.21 572.965 889.278 571.78C888.384 570.585 887.788 569.32 887.492 567.985C887.234 566.64 887.261 565.249 887.573 563.813C887.899 562.352 888.475 560.906 889.301 559.476ZM906.469 582.045L902.068 579.504L913.051 560.481L917.452 563.022L906.469 582.045ZM921.138 557.73C920.662 558.554 920.017 559.055 919.204 559.232C918.39 559.409 917.62 559.288 916.892 558.868C916.141 558.434 915.638 557.82 915.385 557.027C915.131 556.234 915.242 555.425 915.718 554.601C916.208 553.752 916.86 553.239 917.674 553.062C918.487 552.886 919.27 553.014 920.021 553.448C920.749 553.868 921.239 554.475 921.493 555.267C921.746 556.06 921.628 556.881 921.138 557.73ZM920.561 586.059C921.919 586.843 922.992 587.365 923.779 587.626L926.593 582.752C926.393 582.539 926.083 582.263 925.664 581.925C925.246 581.586 924.757 581.256 924.2 580.934C923.715 580.654 923.197 580.403 922.645 580.182C922.118 579.974 921.593 579.849 921.069 579.805C920.569 579.775 920.092 579.872 919.64 580.095C919.201 580.295 918.828 580.661 918.52 581.195C917.918 582.238 917.826 583.154 918.242 583.944C918.673 584.71 919.446 585.415 920.561 586.059ZM929.669 569.445C931.124 570.285 932.243 571.174 933.027 572.112C933.812 573.049 934.306 574.013 934.51 575.004C934.738 576.009 934.7 577.054 934.397 578.14C934.131 579.215 933.677 580.311 933.033 581.426L926.376 592.956C925.613 592.71 924.484 592.285 922.99 591.681C921.506 591.115 919.903 590.335 918.182 589.341C917.042 588.683 916.062 587.972 915.243 587.208C914.423 586.443 913.814 585.623 913.415 584.746C913.04 583.883 912.883 582.951 912.943 581.951C913.027 580.965 913.398 579.903 914.056 578.763C914.686 577.672 915.424 576.869 916.27 576.356C917.141 575.856 918.073 575.586 919.066 575.545C920.074 575.48 921.106 575.623 922.164 575.976C923.26 576.317 924.329 576.789 925.372 577.391C925.857 577.671 926.345 578.002 926.837 578.382C927.342 578.739 927.856 579.165 928.378 579.66L928.798 578.933C929.092 578.424 929.312 577.904 929.456 577.373C929.601 576.842 929.614 576.316 929.495 575.795C929.414 575.263 929.175 574.753 928.777 574.265C928.404 573.791 927.842 573.337 927.09 572.903C926.072 572.315 925.096 571.849 924.164 571.504C923.231 571.16 922.442 570.93 921.796 570.816L923.309 566.937C923.978 567.065 924.903 567.34 926.082 567.762C927.261 568.184 928.456 568.745 929.669 569.445ZM948.481 602.178C949.839 602.962 950.911 603.485 951.698 603.745L954.512 598.871C954.312 598.658 954.002 598.383 953.584 598.044C953.165 597.705 952.677 597.375 952.119 597.053C951.634 596.773 951.116 596.522 950.565 596.301C950.038 596.094 949.512 595.968 948.988 595.924C948.488 595.894 948.012 595.991 947.559 596.215C947.121 596.414 946.747 596.781 946.439 597.314C945.837 598.357 945.745 599.273 946.161 600.063C946.592 600.829 947.365 601.534 948.481 602.178ZM957.588 585.564C959.043 586.404 960.162 587.293 960.947 588.231C961.731 589.168 962.225 590.133 962.429 591.123C962.657 592.128 962.619 593.173 962.316 594.259C962.051 595.334 961.596 596.43 960.952 597.545L954.295 609.076C953.532 608.829 952.403 608.404 950.909 607.8C949.425 607.234 947.823 606.454 946.101 605.46C944.961 604.802 943.982 604.091 943.162 603.327C942.342 602.563 941.733 601.742 941.334 600.865C940.959 600.002 940.802 599.071 940.862 598.071C940.946 597.085 941.317 596.022 941.975 594.882C942.605 593.791 943.343 592.988 944.19 592.475C945.06 591.975 945.992 591.705 946.985 591.664C947.993 591.599 949.026 591.743 950.083 592.095C951.179 592.436 952.248 592.908 953.291 593.51C953.776 593.79 954.264 594.121 954.756 594.501C955.261 594.858 955.775 595.284 956.297 595.779L956.717 595.052C957.011 594.543 957.231 594.023 957.376 593.492C957.52 592.961 957.533 592.435 957.414 591.914C957.333 591.382 957.094 590.872 956.696 590.384C956.324 589.91 955.761 589.456 955.009 589.022C953.991 588.434 953.015 587.968 952.083 587.623C951.15 587.279 950.361 587.05 949.715 586.936L951.228 583.056C951.898 583.184 952.822 583.459 954.001 583.881C955.18 584.303 956.375 584.864 957.588 585.564ZM978.966 603.823C978.672 603.492 978.233 603.077 977.648 602.578C977.102 602.068 976.404 601.568 975.556 601.078C975.071 600.798 974.521 600.546 973.907 600.321C973.318 600.11 972.893 599.978 972.633 599.925L963.834 615.165L959.433 612.624L969.891 594.51C970.921 594.685 972.144 595.003 973.559 595.464C975.012 595.915 976.515 596.589 978.067 597.485C978.358 597.653 978.683 597.873 979.043 598.145C979.417 598.394 979.777 598.666 980.123 598.963C980.483 599.235 980.817 599.525 981.125 599.832C981.447 600.115 981.696 600.356 981.872 600.554L978.966 603.823ZM987.766 596.925L992.587 598.738L989.269 604.485L996.034 608.391L993.913 612.065L987.148 608.159L982.675 615.907C981.793 617.434 981.405 618.665 981.512 619.6C981.619 620.535 982.255 621.338 983.418 622.01C984.219 622.472 984.971 622.793 985.675 622.974C986.404 623.168 986.992 623.297 987.439 623.362L986.151 627.274C985.516 627.198 984.723 627.031 983.772 626.773C982.808 626.54 981.768 626.101 980.653 625.457C979.295 624.673 978.26 623.833 977.548 622.937C976.861 622.056 976.447 621.121 976.305 620.134C976.178 619.123 976.285 618.07 976.627 616.974C976.983 615.853 977.525 614.663 978.253 613.402L987.766 596.925ZM993.743 632.433L989.342 629.892L1000.32 610.869L1004.73 613.41L993.743 632.433ZM1008.41 608.118C1007.94 608.942 1007.29 609.443 1006.48 609.62C1005.66 609.797 1004.89 609.675 1004.17 609.255C1003.41 608.821 1002.91 608.208 1002.66 607.415C1002.41 606.622 1002.52 605.813 1002.99 604.989C1003.48 604.14 1004.13 603.627 1004.95 603.45C1005.76 603.273 1006.54 603.402 1007.3 603.836C1008.02 604.256 1008.51 604.862 1008.77 605.655C1009.02 606.448 1008.9 607.269 1008.41 608.118ZM1018.45 646.7L1014.05 644.159L1025.04 625.135L1029.44 627.676L1018.45 646.7ZM1033.16 622.405C1032.68 623.23 1032.04 623.731 1031.22 623.908C1030.41 624.085 1029.64 623.963 1028.91 623.543C1028.16 623.109 1027.66 622.496 1027.41 621.703C1027.15 620.91 1027.26 620.101 1027.74 619.276C1028.23 618.428 1028.88 617.915 1029.69 617.738C1030.51 617.561 1031.29 617.689 1032.04 618.123C1032.77 618.543 1033.26 619.15 1033.51 619.943C1033.77 620.736 1033.65 621.557 1033.16 622.405ZM1023.47 611.964C1024.4 612.496 1025.13 613.017 1025.68 613.526C1026.25 614.05 1026.67 614.489 1026.95 614.845L1024.2 618.01C1023.93 617.693 1023.58 617.346 1023.15 616.969C1022.75 616.606 1022.27 616.264 1021.71 615.942C1020.26 615.102 1019.03 614.909 1018.02 615.362C1017.04 615.83 1016.19 616.683 1015.48 617.919L1014.74 619.192L1021.73 623.224L1019.6 626.898L1012.62 622.866L1003.76 638.216L999.358 635.675L1011.12 615.306C1012.55 612.832 1014.3 611.276 1016.38 610.635C1018.47 609.995 1020.83 610.438 1023.47 611.964ZM1028.51 639.846C1029.32 638.439 1030.29 637.256 1031.43 636.295C1032.58 635.311 1033.81 634.601 1035.13 634.166C1036.47 633.744 1037.87 633.615 1039.33 633.778C1040.79 633.941 1042.25 634.442 1043.7 635.282C1045.5 636.318 1047 637.625 1048.23 639.204L1045.2 642.259C1044.82 641.747 1044.34 641.229 1043.77 640.705C1043.23 640.196 1042.59 639.731 1041.86 639.311C1040.14 638.317 1038.51 638.107 1036.99 638.68C1035.47 639.229 1034.15 640.486 1033.02 642.45C1031.92 644.341 1031.48 646.089 1031.69 647.695C1031.9 649.276 1033.02 650.648 1035.03 651.81C1035.78 652.244 1036.57 652.598 1037.38 652.872C1038.19 653.147 1038.92 653.329 1039.58 653.419L1038.1 657.413C1037.48 657.376 1036.61 657.167 1035.51 656.787C1034.42 656.421 1033.36 655.937 1032.32 655.335C1030.69 654.397 1029.42 653.335 1028.48 652.15C1027.59 650.955 1026.99 649.69 1026.7 648.355C1026.44 647.01 1026.47 645.619 1026.78 644.183C1027.1 642.722 1027.68 641.276 1028.51 639.846ZM1045.67 662.415L1041.27 659.874L1052.26 640.851L1056.66 643.392L1045.67 662.415ZM1060.34 638.1C1059.87 638.925 1059.22 639.425 1058.41 639.602C1057.6 639.779 1056.82 639.658 1056.1 639.238C1055.35 638.804 1054.84 638.19 1054.59 637.397C1054.34 636.604 1054.45 635.796 1054.92 634.971C1055.41 634.122 1056.07 633.61 1056.88 633.433C1057.69 633.256 1058.47 633.384 1059.23 633.818C1059.95 634.238 1060.44 634.845 1060.7 635.638C1060.95 636.431 1060.83 637.251 1060.34 638.1ZM1059.77 666.429C1061.12 667.213 1062.2 667.736 1062.98 667.996L1065.8 663.122C1065.6 662.909 1065.29 662.634 1064.87 662.295C1064.45 661.956 1063.96 661.626 1063.4 661.304C1062.92 661.024 1062.4 660.773 1061.85 660.552C1061.32 660.345 1060.8 660.219 1060.27 660.175C1059.77 660.145 1059.3 660.242 1058.85 660.466C1058.41 660.665 1058.03 661.031 1057.73 661.565C1057.12 662.608 1057.03 663.524 1057.45 664.314C1057.88 665.08 1058.65 665.785 1059.77 666.429ZM1068.87 649.815C1070.33 650.655 1071.45 651.544 1072.23 652.482C1073.02 653.419 1073.51 654.384 1073.71 655.374C1073.94 656.379 1073.91 657.424 1073.6 658.51C1073.34 659.585 1072.88 660.681 1072.24 661.796L1065.58 673.327C1064.82 673.08 1063.69 672.655 1062.2 672.051C1060.71 671.485 1059.11 670.705 1057.39 669.711C1056.25 669.053 1055.27 668.342 1054.45 667.578C1053.63 666.814 1053.02 665.993 1052.62 665.116C1052.25 664.253 1052.09 663.322 1052.15 662.322C1052.23 661.336 1052.6 660.273 1053.26 659.133C1053.89 658.042 1054.63 657.239 1055.48 656.726C1056.35 656.226 1057.28 655.956 1058.27 655.915C1059.28 655.85 1060.31 655.994 1061.37 656.346C1062.47 656.687 1063.53 657.159 1064.58 657.761C1065.06 658.041 1065.55 658.372 1066.04 658.752C1066.55 659.109 1067.06 659.535 1067.58 660.03L1068 659.303C1068.3 658.794 1068.52 658.274 1068.66 657.743C1068.81 657.212 1068.82 656.686 1068.7 656.165C1068.62 655.633 1068.38 655.123 1067.98 654.635C1067.61 654.161 1067.05 653.707 1066.3 653.273C1065.28 652.685 1064.3 652.219 1063.37 651.874C1062.44 651.53 1061.65 651.301 1061 651.187L1062.51 647.307C1063.18 647.435 1064.11 647.71 1065.29 648.132C1066.47 648.554 1067.66 649.115 1068.87 649.815ZM1077.13 681.061C1075.83 680.28 1074.83 679.505 1074.11 678.734C1073.41 677.977 1072.95 677.209 1072.72 676.43C1072.51 675.627 1072.5 674.799 1072.7 673.945C1072.94 673.082 1073.33 672.177 1073.88 671.231L1086.52 649.335L1091.34 651.148L1078.76 672.936C1078.46 673.469 1078.23 673.939 1078.1 674.345C1077.98 674.764 1077.96 675.171 1078.02 675.563C1078.1 675.932 1078.28 676.294 1078.56 676.649C1078.88 676.994 1079.31 677.371 1079.85 677.78L1077.13 681.061ZM724.435 498.765L729.018 501.411L714.465 526.617L709.882 523.971L724.435 498.765ZM737.235 539.763C737.469 538.573 737.684 537.388 737.881 536.208C738.077 535.028 738.299 533.831 738.548 532.616L727.927 526.484C726.999 527.307 726.067 528.11 725.129 528.894C724.23 529.668 723.33 530.442 722.431 531.216L717.666 528.465C720.165 526.32 722.498 524.352 724.662 522.563C726.827 520.773 728.898 519.091 730.874 517.516C732.874 515.955 734.807 514.485 736.671 513.104C738.535 511.723 740.409 510.38 742.294 509.076L746.623 511.575C746.435 513.859 746.21 516.154 745.946 518.459C745.682 520.764 745.362 523.165 744.987 525.664C744.635 528.177 744.226 530.818 743.758 533.588C743.315 536.371 742.79 539.382 742.181 542.619L737.235 539.763ZM741.553 515.147C740.254 516.11 738.708 517.303 736.917 518.726C735.149 520.163 733.255 521.736 731.233 523.446L739.526 528.234C739.996 525.628 740.406 523.182 740.757 520.894C741.107 518.607 741.373 516.691 741.553 515.147Z" fill="white"/>
<path d="M641.038 312.806C639.414 312.806 637.902 312.554 636.502 312.05C635.074 311.546 633.842 310.832 632.806 309.908C631.77 308.956 630.958 307.808 630.37 306.464C629.782 305.12 629.488 303.608 629.488 301.928C629.488 299.856 629.866 297.896 630.622 296.048L634.78 297.14C634.528 297.728 634.318 298.4 634.15 299.156C633.982 299.884 633.898 300.668 633.898 301.508C633.898 303.496 634.528 305.008 635.788 306.044C637.02 307.08 638.77 307.598 641.038 307.598C643.222 307.598 644.958 307.108 646.246 306.128C647.506 305.148 648.136 303.496 648.136 301.172C648.136 300.304 648.052 299.45 647.884 298.61C647.716 297.77 647.506 297.042 647.254 296.426L651.454 295.712C651.734 296.272 651.986 297.126 652.21 298.274C652.434 299.394 652.546 300.556 652.546 301.76C652.546 303.636 652.266 305.274 651.706 306.674C651.118 308.046 650.32 309.194 649.312 310.118C648.276 311.014 647.058 311.686 645.658 312.134C644.23 312.582 642.69 312.806 641.038 312.806ZM640.996 272.363C642.732 272.363 644.314 272.615 645.742 273.119C647.17 273.623 648.388 274.337 649.396 275.261C650.404 276.185 651.188 277.305 651.748 278.621C652.308 279.909 652.588 281.337 652.588 282.905C652.588 284.473 652.308 285.901 651.748 287.189C651.188 288.477 650.404 289.583 649.396 290.507C648.388 291.431 647.17 292.159 645.742 292.691C644.314 293.195 642.732 293.447 640.996 293.447C639.26 293.447 637.692 293.195 636.292 292.691C634.864 292.159 633.646 291.431 632.638 290.507C631.63 289.555 630.86 288.435 630.328 287.147C629.768 285.859 629.488 284.445 629.488 282.905C629.488 281.365 629.768 279.951 630.328 278.663C630.86 277.347 631.63 276.227 632.638 275.303C633.646 274.379 634.864 273.665 636.292 273.161C637.692 272.629 639.26 272.363 640.996 272.363ZM640.996 277.571C638.812 277.571 637.09 278.047 635.83 278.999C634.542 279.923 633.898 281.225 633.898 282.905C633.898 284.585 634.542 285.901 635.83 286.853C637.09 287.777 638.812 288.239 640.996 288.239C643.208 288.239 644.958 287.777 646.246 286.853C647.534 285.901 648.178 284.585 648.178 282.905C648.178 281.225 647.534 279.923 646.246 278.999C644.958 278.047 643.208 277.571 640.996 277.571ZM640.45 254.611C638.154 254.611 636.502 254.905 635.494 255.493C634.458 256.053 633.94 257.117 633.94 258.685C633.94 259.245 633.982 259.861 634.066 260.533C634.15 261.205 634.22 261.709 634.276 262.045L652 262.045L652 267.127L630.748 267.127C630.468 266.147 630.202 264.873 629.95 263.305C629.698 261.709 629.572 260.029 629.572 258.265C629.572 256.753 629.768 255.521 630.16 254.569C630.552 253.589 631.07 252.777 631.714 252.133C631.49 251.825 631.252 251.433 631 250.957C630.748 250.481 630.524 249.949 630.328 249.361C630.104 248.773 629.922 248.157 629.782 247.513C629.642 246.841 629.572 246.169 629.572 245.497C629.572 243.789 629.824 242.389 630.328 241.297C630.804 240.177 631.49 239.309 632.386 238.693C633.254 238.049 634.318 237.615 635.578 237.391C636.81 237.139 638.168 237.013 639.652 237.013L652 237.013L652 242.095L640.45 242.095C638.154 242.095 636.502 242.375 635.494 242.935C634.458 243.495 633.94 244.573 633.94 246.169C633.94 246.981 634.08 247.751 634.36 248.479C634.612 249.207 634.864 249.753 635.116 250.117C635.816 249.893 636.558 249.739 637.342 249.655C638.126 249.571 638.966 249.529 639.862 249.529L652 249.529L652 254.611L640.45 254.611ZM641.122 216.213C638.854 216.213 637.09 216.731 635.83 217.767C634.57 218.775 633.94 220.413 633.94 222.681C633.94 223.157 633.968 223.661 634.024 224.193C634.052 224.697 634.136 225.201 634.276 225.705L646.834 225.705C647.142 225.257 647.436 224.669 647.716 223.941C647.968 223.185 648.094 222.387 648.094 221.547C648.094 219.699 647.464 218.355 646.204 217.515C644.944 216.647 643.25 216.213 641.122 216.213ZM641.038 211.005C642.718 211.005 644.258 211.229 645.658 211.677C647.058 212.097 648.262 212.713 649.27 213.525C650.278 214.337 651.062 215.359 651.622 216.591C652.182 217.795 652.462 219.167 652.462 220.707C652.462 221.743 652.336 222.695 652.084 223.563C651.832 224.431 651.552 225.145 651.244 225.705L659.77 225.705L659.77 230.787L630.748 230.787C630.468 229.751 630.202 228.477 629.95 226.965C629.698 225.453 629.572 223.857 629.572 222.177C629.572 220.441 629.838 218.887 630.37 217.515C630.902 216.143 631.672 214.981 632.68 214.029C633.66 213.049 634.864 212.307 636.292 211.803C637.692 211.271 639.274 211.005 641.038 211.005ZM651.328 187.75C651.58 188.73 651.832 190.004 652.084 191.572C652.364 193.14 652.504 194.862 652.504 196.738C652.504 198.502 652.252 199.986 651.748 201.19C651.244 202.366 650.544 203.318 649.648 204.046C648.752 204.746 647.688 205.25 646.456 205.558C645.196 205.866 643.824 206.02 642.34 206.02L630.034 206.02L630.034 200.938L641.542 200.938C643.894 200.938 645.574 200.602 646.582 199.93C647.59 199.23 648.094 198.026 648.094 196.318C648.094 195.702 648.066 195.058 648.01 194.386C647.954 193.686 647.884 193.168 647.8 192.832L630.034 192.832L630.034 187.75L651.328 187.75ZM624.238 181.534L623.398 176.452L630.034 176.452L630.034 168.64L634.276 168.64L634.276 176.452L643.222 176.452C644.986 176.452 646.246 176.172 647.002 175.612C647.758 175.052 648.136 174.1 648.136 172.756C648.136 171.832 648.038 171.02 647.842 170.32C647.646 169.592 647.464 169.018 647.296 168.598L651.328 167.758C651.58 168.346 651.832 169.116 652.084 170.068C652.364 171.02 652.504 172.14 652.504 173.428C652.504 174.996 652.294 176.312 651.874 177.376C651.454 178.412 650.852 179.238 650.068 179.854C649.256 180.47 648.29 180.904 647.17 181.156C646.022 181.408 644.72 181.534 643.264 181.534L624.238 181.534ZM648.43 155.999C648.43 154.431 648.346 153.241 648.178 152.429L642.55 152.429C642.466 152.709 642.382 153.115 642.298 153.647C642.214 154.179 642.172 154.767 642.172 155.411C642.172 155.971 642.214 156.545 642.298 157.133C642.382 157.693 642.536 158.211 642.76 158.687C642.984 159.135 643.306 159.499 643.726 159.779C644.118 160.059 644.622 160.199 645.238 160.199C646.442 160.199 647.282 159.821 647.758 159.065C648.206 158.309 648.43 157.287 648.43 155.999ZM629.488 156.419C629.488 154.739 629.698 153.325 630.118 152.177C630.538 151.029 631.126 150.119 631.882 149.447C632.638 148.747 633.562 148.257 634.654 147.977C635.718 147.669 636.894 147.515 638.182 147.515L651.496 147.515C651.664 148.299 651.86 149.489 652.084 151.085C652.336 152.653 652.462 154.431 652.462 156.419C652.462 157.735 652.336 158.939 652.084 160.031C651.832 161.123 651.426 162.061 650.866 162.845C650.306 163.601 649.578 164.203 648.682 164.651C647.786 165.071 646.68 165.281 645.364 165.281C644.104 165.281 643.04 165.043 642.172 164.567C641.304 164.063 640.604 163.391 640.072 162.551C639.512 161.711 639.12 160.745 638.896 159.653C638.644 158.533 638.518 157.371 638.518 156.167C638.518 155.607 638.56 155.019 638.644 154.403C638.7 153.787 638.812 153.129 638.98 152.429L638.14 152.429C637.552 152.429 636.992 152.499 636.46 152.639C635.928 152.779 635.466 153.031 635.074 153.395C634.654 153.731 634.332 154.193 634.108 154.781C633.884 155.341 633.772 156.055 633.772 156.923C633.772 158.099 633.856 159.177 634.024 160.157C634.192 161.137 634.388 161.935 634.612 162.551L630.496 163.181C630.272 162.537 630.048 161.599 629.824 160.367C629.6 159.135 629.488 157.819 629.488 156.419ZM653.638 131.211C654.058 130.315 654.534 129.699 655.066 129.363C655.598 128.999 656.256 128.817 657.04 128.817C658.02 128.817 658.86 129.237 659.56 130.077C660.26 130.917 660.61 132.177 660.61 133.857C660.61 135.201 660.428 136.391 660.064 137.427L657.04 136.839C657.124 136.559 657.222 136.195 657.334 135.747C657.446 135.299 657.502 134.837 657.502 134.361C657.502 133.885 657.418 133.521 657.25 133.269C657.082 132.989 656.83 132.849 656.494 132.849C656.046 132.849 655.71 133.045 655.486 133.437C655.29 133.829 655.122 134.221 654.982 134.613L654.856 135.033C654.492 134.921 654.072 134.767 653.596 134.571C653.148 134.375 652.728 134.179 652.336 133.983C652.084 135.439 651.636 136.699 650.992 137.763C650.348 138.827 649.536 139.709 648.556 140.409C647.548 141.109 646.414 141.641 645.154 142.005C643.894 142.341 642.522 142.509 641.038 142.509C639.414 142.509 637.902 142.257 636.502 141.753C635.074 141.249 633.842 140.535 632.806 139.611C631.77 138.659 630.958 137.511 630.37 136.167C629.782 134.823 629.488 133.311 629.488 131.631C629.488 129.559 629.866 127.599 630.622 125.751L634.78 126.843C634.528 127.431 634.318 128.103 634.15 128.859C633.982 129.587 633.898 130.371 633.898 131.211C633.898 133.199 634.528 134.711 635.788 135.747C637.02 136.783 638.77 137.301 641.038 137.301C643.222 137.301 644.958 136.811 646.246 135.831C647.506 134.851 648.136 133.199 648.136 130.875C648.136 130.007 648.052 129.153 647.884 128.313C647.716 127.473 647.506 126.745 647.254 126.129L651.454 125.415C651.706 125.919 651.93 126.661 652.126 127.641C652.322 128.621 652.448 129.643 652.504 130.707C652.728 130.819 652.938 130.917 653.134 131.001C653.33 131.085 653.498 131.155 653.638 131.211ZM648.43 113.753C648.43 112.185 648.346 110.995 648.178 110.183L642.55 110.183C642.466 110.463 642.382 110.869 642.298 111.401C642.214 111.933 642.172 112.521 642.172 113.165C642.172 113.725 642.214 114.299 642.298 114.887C642.382 115.447 642.536 115.965 642.76 116.441C642.984 116.889 643.306 117.253 643.726 117.533C644.118 117.813 644.622 117.953 645.238 117.953C646.442 117.953 647.282 117.575 647.758 116.819C648.206 116.063 648.43 115.041 648.43 113.753ZM629.488 114.173C629.488 112.493 629.698 111.079 630.118 109.931C630.538 108.783 631.126 107.873 631.882 107.201C632.638 106.501 633.562 106.011 634.654 105.731C635.718 105.423 636.894 105.269 638.182 105.269L651.496 105.269C651.664 106.053 651.86 107.243 652.084 108.839C652.336 110.407 652.462 112.185 652.462 114.173C652.462 115.489 652.336 116.693 652.084 117.785C651.832 118.877 651.426 119.815 650.866 120.599C650.306 121.355 649.578 121.957 648.682 122.405C647.786 122.825 646.68 123.035 645.364 123.035C644.104 123.035 643.04 122.797 642.172 122.321C641.304 121.817 640.604 121.145 640.072 120.305C639.512 119.465 639.12 118.499 638.896 117.407C638.644 116.287 638.518 115.125 638.518 113.921C638.518 113.361 638.56 112.773 638.644 112.157C638.7 111.541 638.812 110.883 638.98 110.183L638.14 110.183C637.552 110.183 636.992 110.253 636.46 110.393C635.928 110.533 635.466 110.785 635.074 111.149C634.654 111.485 634.332 111.947 634.108 112.535C633.884 113.095 633.772 113.809 633.772 114.677C633.772 115.853 633.856 116.931 634.024 117.911C634.192 118.891 634.388 119.689 634.612 120.305L630.496 120.935C630.272 120.291 630.048 119.353 629.824 118.121C629.6 116.889 629.488 115.573 629.488 114.173ZM622.18 106.067C622.572 106.235 623.006 106.459 623.482 106.739C623.93 106.991 624.364 107.313 624.784 107.705C625.176 108.097 625.512 108.545 625.792 109.049C626.072 109.553 626.212 110.113 626.212 110.729C626.212 111.233 626.142 111.709 626.002 112.157C625.834 112.605 625.652 113.053 625.456 113.501C625.26 113.921 625.092 114.341 624.952 114.761C624.784 115.153 624.7 115.545 624.7 115.937C624.7 116.469 624.882 116.931 625.246 117.323C625.61 117.687 626.03 117.981 626.506 118.205L624.994 120.767C624.602 120.627 624.182 120.431 623.734 120.179C623.258 119.899 622.824 119.563 622.432 119.171C622.012 118.751 621.662 118.289 621.382 117.785C621.102 117.281 620.962 116.721 620.962 116.105C620.962 115.601 621.046 115.125 621.214 114.677C621.382 114.229 621.564 113.795 621.76 113.375C621.928 112.927 622.096 112.507 622.264 112.115C622.432 111.695 622.516 111.289 622.516 110.897C622.516 110.365 622.334 109.917 621.97 109.553C621.578 109.161 621.144 108.853 620.668 108.629L622.18 106.067ZM640.996 79.1793C642.732 79.1793 644.314 79.4313 645.742 79.9353C647.17 80.4393 648.388 81.1533 649.396 82.0773C650.404 83.0013 651.188 84.1213 651.748 85.4373C652.308 86.7253 652.588 88.1533 652.588 89.7213C652.588 91.2893 652.308 92.7173 651.748 94.0053C651.188 95.2933 650.404 96.3993 649.396 97.3233C648.388 98.2473 647.17 98.9753 645.742 99.5073C644.314 100.011 642.732 100.263 640.996 100.263C639.26 100.263 637.692 100.011 636.292 99.5073C634.864 98.9753 633.646 98.2473 632.638 97.3233C631.63 96.3713 630.86 95.2513 630.328 93.9633C629.768 92.6753 629.488 91.2613 629.488 89.7213C629.488 88.1813 629.768 86.7673 630.328 85.4793C630.86 84.1633 631.63 83.0433 632.638 82.1193C633.646 81.1953 634.864 80.4813 636.292 79.9773C637.692 79.4453 639.26 79.1793 640.996 79.1793ZM640.996 84.3873C638.812 84.3873 637.09 84.8633 635.83 85.8153C634.542 86.7393 633.898 88.0413 633.898 89.7213C633.898 91.4013 634.542 92.7173 635.83 93.6693C637.09 94.5933 638.812 95.0553 640.996 95.0553C643.208 95.0553 644.958 94.5933 646.246 93.6693C647.534 92.7173 648.178 91.4013 648.178 89.7213C648.178 88.0413 647.534 86.7393 646.246 85.8153C644.958 84.8633 643.208 84.3873 640.996 84.3873Z" fill="white"/>
<path d="M738.019 380.406C737.207 378.999 736.67 377.564 736.406 376.099C736.129 374.611 736.131 373.187 736.413 371.828C736.72 370.454 737.308 369.177 738.178 367.996C739.048 366.815 740.21 365.804 741.665 364.964C743.459 363.928 745.346 363.276 747.324 363.006L748.457 367.153C747.822 367.229 747.135 367.383 746.397 367.616C745.682 367.834 744.961 368.153 744.234 368.573C742.512 369.567 741.518 370.869 741.25 372.478C740.969 374.063 741.396 375.838 742.53 377.802C743.622 379.693 744.914 380.952 746.407 381.577C747.885 382.178 749.631 381.898 751.644 380.736C752.395 380.302 753.093 379.802 753.736 379.237C754.38 378.671 754.905 378.125 755.313 377.599L758.031 380.879C757.686 381.402 757.073 382.047 756.19 382.815C755.332 383.569 754.382 384.247 753.339 384.849C751.715 385.787 750.156 386.364 748.664 386.579C747.182 386.755 745.788 386.638 744.484 386.227C743.19 385.778 741.999 385.059 740.911 384.071C739.809 383.058 738.845 381.836 738.019 380.406ZM776.98 369.794C776.257 370.502 775.28 371.357 774.048 372.36C772.83 373.386 771.408 374.368 769.784 375.306C768.256 376.188 766.845 376.712 765.55 376.878C764.28 377.029 763.105 376.899 762.027 376.487C760.973 376.061 760.004 375.392 759.121 374.479C758.225 373.541 757.405 372.43 756.663 371.145L750.51 360.488L754.911 357.947L760.665 367.913C761.841 369.95 762.972 371.237 764.058 371.774C765.169 372.297 766.463 372.131 767.943 371.277C768.476 370.969 769.02 370.623 769.574 370.238C770.152 369.84 770.566 369.52 770.815 369.28L761.932 353.894L766.333 351.353L776.98 369.794ZM789.747 363.683C788.424 364.415 787.249 364.9 786.222 365.137C785.219 365.36 784.323 365.376 783.534 365.185C782.731 364.97 782.01 364.562 781.372 363.96C780.744 363.321 780.157 362.528 779.611 361.582L766.969 339.686L770.95 336.417L783.529 358.205C783.837 358.738 784.132 359.166 784.415 359.487C784.722 359.795 785.062 360.019 785.434 360.16C785.792 360.277 786.195 360.303 786.643 360.238C787.101 360.135 787.642 359.952 788.266 359.689L789.747 363.683ZM779.616 336.991L783.598 333.722L786.916 339.469L793.681 335.563L795.802 339.237L789.037 343.143L793.51 350.89C794.392 352.418 795.264 353.369 796.127 353.744C796.99 354.119 798.003 353.97 799.167 353.298C799.968 352.836 800.622 352.345 801.13 351.825C801.662 351.292 802.069 350.847 802.348 350.492L805.092 353.563C804.709 354.076 804.168 354.679 803.469 355.373C802.785 356.092 801.885 356.773 800.769 357.417C799.411 358.201 798.167 358.677 797.035 358.845C795.928 358.999 794.912 358.891 793.986 358.52C793.047 358.125 792.188 357.505 791.41 356.661C790.618 355.793 789.857 354.729 789.129 353.468L779.616 336.991ZM824.186 342.539C823.464 343.247 822.486 344.102 821.255 345.105C820.037 346.131 818.615 347.113 816.991 348.051C815.463 348.933 814.052 349.457 812.757 349.623C811.487 349.774 810.312 349.644 809.234 349.232C808.18 348.806 807.211 348.137 806.328 347.224C805.432 346.287 804.612 345.175 803.87 343.89L797.717 333.233L802.118 330.692L807.872 340.658C809.048 342.695 810.179 343.982 811.265 344.519C812.376 345.042 813.67 344.876 815.149 344.022C815.683 343.714 816.227 343.368 816.781 342.984C817.359 342.585 817.772 342.265 818.021 342.025L809.138 326.639L813.539 324.098L824.186 342.539ZM832.269 318.57C831.836 318.659 831.256 318.832 830.532 319.089C829.817 319.307 829.036 319.661 828.187 320.151C827.702 320.431 827.209 320.781 826.707 321.2C826.229 321.605 825.903 321.907 825.726 322.106L834.525 337.346L830.124 339.887L819.666 321.773C820.333 320.968 821.22 320.068 822.327 319.073C823.444 318.04 824.778 317.076 826.33 316.18C826.621 316.012 826.975 315.84 827.391 315.664C827.793 315.465 828.209 315.289 828.639 315.138C829.055 314.962 829.473 314.818 829.892 314.705C830.298 314.568 830.631 314.473 830.891 314.419L832.269 318.57ZM849.702 324.461C851.06 323.677 852.048 323.01 852.668 322.458L849.854 317.584C849.569 317.651 849.175 317.782 848.673 317.975C848.17 318.168 847.64 318.426 847.082 318.748C846.597 319.028 846.121 319.351 845.654 319.718C845.211 320.071 844.839 320.463 844.539 320.895C844.263 321.313 844.109 321.774 844.076 322.278C844.03 322.757 844.161 323.264 844.469 323.797C845.071 324.84 845.818 325.378 846.711 325.412C847.589 325.422 848.586 325.105 849.702 324.461ZM839.867 308.267C841.322 307.427 842.652 306.902 843.856 306.692C845.06 306.481 846.142 306.536 847.102 306.854C848.086 307.159 848.973 307.714 849.761 308.52C850.56 309.287 851.281 310.229 851.925 311.344L858.582 322.875C857.987 323.412 857.055 324.177 855.785 325.169C854.553 326.171 853.076 327.169 851.354 328.163C850.214 328.821 849.109 329.314 848.037 329.642C846.965 329.97 845.95 330.087 844.991 329.994C844.056 329.887 843.171 329.558 842.335 329.006C841.523 328.44 840.788 327.587 840.13 326.447C839.5 325.356 839.175 324.316 839.153 323.326C839.155 322.322 839.387 321.38 839.849 320.499C840.296 319.594 840.937 318.772 841.77 318.032C842.614 317.253 843.558 316.563 844.6 315.961C845.085 315.681 845.616 315.424 846.191 315.188C846.753 314.929 847.378 314.697 848.069 314.492L847.649 313.765C847.355 313.256 847.014 312.806 846.627 312.415C846.239 312.024 845.79 311.75 845.279 311.593C844.778 311.397 844.217 311.349 843.596 311.449C842.999 311.535 842.324 311.795 841.573 312.229C840.554 312.817 839.663 313.429 838.898 314.064C838.133 314.7 837.54 315.269 837.119 315.771L834.515 312.521C834.961 312.005 835.661 311.342 836.616 310.532C837.571 309.722 838.655 308.967 839.867 308.267ZM870.646 303.737C871.766 305.677 873.109 306.938 874.674 307.522C876.225 308.081 877.814 307.892 879.438 306.954C880.141 306.548 880.721 306.18 881.178 305.852C881.646 305.485 882.016 305.174 882.289 304.92L875.989 294.008C875.447 293.965 874.786 294.024 874.005 294.183C873.235 294.305 872.486 294.576 871.758 294.996C870.158 295.92 869.297 297.144 869.175 298.669C869.078 300.181 869.568 301.87 870.646 303.737ZM888.454 305.434C887.735 306.205 886.772 307.084 885.564 308.072C884.381 309.047 883.062 309.954 881.607 310.794C880.103 311.662 878.625 312.208 877.17 312.434C875.716 312.659 874.32 312.592 872.981 312.234C871.653 311.837 870.408 311.165 869.247 310.218C868.097 309.234 867.081 307.978 866.199 306.45C865.331 304.947 864.728 303.484 864.392 302.061C864.066 300.6 864.015 299.224 864.238 297.931C864.462 296.638 864.962 295.46 865.739 294.397C866.501 293.31 867.562 292.375 868.919 291.591C869.841 291.059 870.716 290.699 871.545 290.511C872.375 290.323 873.121 290.216 873.784 290.189L868.513 281.059L872.494 277.79L888.454 305.434ZM887.887 293.977C886.921 292.303 886.317 290.696 886.074 289.155C885.855 287.6 885.92 286.173 886.268 284.872C886.603 283.548 887.184 282.371 888.013 281.343C888.828 280.29 889.793 279.442 890.909 278.798C893.528 277.286 896.034 276.923 898.426 277.707C900.844 278.478 902.983 280.476 904.845 283.701C904.985 283.943 905.134 284.229 905.292 284.558C905.46 284.849 905.602 285.123 905.717 285.38L893.169 292.625C894.172 294.082 895.391 294.962 896.827 295.265C898.273 295.53 899.905 295.137 901.724 294.087C902.791 293.471 903.705 292.814 904.466 292.116C905.251 291.404 905.835 290.792 906.219 290.28L908.88 293.544C908.707 293.806 908.445 294.135 908.092 294.533C907.75 294.892 907.328 295.281 906.826 295.7C906.363 296.129 905.837 296.562 905.248 296.999C904.66 297.436 904.038 297.843 903.383 298.221C901.71 299.187 900.115 299.785 898.599 300.014C897.068 300.218 895.651 300.115 894.346 299.704C893.028 299.269 891.832 298.569 890.758 297.605C889.67 296.617 888.713 295.407 887.887 293.977ZM899.52 284.641C899.17 284.035 898.756 283.514 898.278 283.079C897.787 282.619 897.259 282.293 896.696 282.101C896.142 281.871 895.56 281.787 894.949 281.849C894.349 281.872 893.721 282.073 893.066 282.451C892.387 282.843 891.87 283.319 891.515 283.88C891.146 284.417 890.898 284.996 890.772 285.618C890.671 286.226 890.677 286.853 890.791 287.499C890.905 288.144 891.087 288.767 891.336 289.366L899.52 284.641ZM921.582 274.329C922.702 276.269 924.045 277.53 925.611 278.114C927.162 278.673 928.75 278.483 930.375 277.545C931.078 277.139 931.658 276.772 932.115 276.444C932.582 276.077 932.952 275.766 933.226 275.511L926.926 264.6C926.384 264.557 925.722 264.615 924.942 264.775C924.171 264.897 923.422 265.167 922.695 265.587C921.094 266.511 920.233 267.736 920.112 269.261C920.014 270.772 920.504 272.461 921.582 274.329ZM939.391 276.026C938.672 276.797 937.709 277.676 936.501 278.664C935.317 279.638 933.998 280.546 932.543 281.386C931.04 282.254 929.561 282.8 928.107 283.026C926.653 283.251 925.256 283.184 923.918 282.825C922.589 282.428 921.345 281.757 920.184 280.81C919.033 279.826 918.017 278.569 917.135 277.042C916.267 275.538 915.665 274.075 915.329 272.653C915.003 271.192 914.951 269.815 915.175 268.523C915.398 267.23 915.898 266.052 916.675 264.989C917.438 263.902 918.498 262.967 919.856 262.183C920.777 261.651 921.653 261.291 922.482 261.103C923.311 260.915 924.057 260.808 924.721 260.78L919.45 251.651L923.431 248.382L939.391 276.026ZM950.225 266.424C951.583 265.64 952.572 264.973 953.191 264.421L950.377 259.547C950.092 259.614 949.699 259.745 949.196 259.938C948.693 260.131 948.163 260.389 947.605 260.711C947.12 260.991 946.644 261.314 946.177 261.681C945.734 262.034 945.362 262.426 945.062 262.858C944.786 263.276 944.632 263.737 944.6 264.24C944.553 264.72 944.684 265.226 944.992 265.76C945.594 266.803 946.341 267.341 947.234 267.375C948.113 267.385 949.11 267.068 950.225 266.424ZM940.39 250.23C941.845 249.39 943.175 248.865 944.379 248.655C945.583 248.444 946.665 248.499 947.625 248.817C948.609 249.122 949.496 249.677 950.284 250.483C951.083 251.25 951.804 252.192 952.448 253.307L959.105 264.838C958.51 265.375 957.578 266.14 956.308 267.132C955.076 268.134 953.599 269.132 951.877 270.126C950.738 270.784 949.632 271.277 948.56 271.605C947.489 271.932 946.473 272.05 945.514 271.957C944.58 271.85 943.694 271.52 942.858 270.969C942.046 270.403 941.312 269.55 940.654 268.41C940.024 267.319 939.698 266.278 939.676 265.289C939.678 264.285 939.91 263.343 940.372 262.462C940.819 261.557 941.46 260.735 942.294 259.995C943.138 259.216 944.081 258.526 945.124 257.924C945.609 257.644 946.139 257.387 946.714 257.151C947.276 256.892 947.902 256.66 948.592 256.455L948.172 255.728C947.878 255.219 947.537 254.769 947.15 254.378C946.763 253.987 946.313 253.713 945.802 253.556C945.301 253.36 944.74 253.312 944.119 253.412C943.522 253.498 942.848 253.758 942.096 254.192C941.077 254.78 940.186 255.392 939.421 256.027C938.656 256.663 938.063 257.232 937.642 257.734L935.038 254.484C935.484 253.968 936.184 253.305 937.139 252.495C938.094 251.685 939.178 250.93 940.39 250.23ZM962.68 250.601C963.8 252.541 965.142 253.803 966.708 254.386C968.259 254.945 969.847 254.756 971.472 253.818C972.175 253.412 972.755 253.045 973.212 252.716C973.679 252.349 974.05 252.039 974.323 251.784L968.023 240.872C967.481 240.829 966.82 240.888 966.039 241.048C965.268 241.169 964.519 241.44 963.792 241.86C962.192 242.784 961.331 244.008 961.209 245.534C961.111 247.045 961.602 248.734 962.68 250.601ZM980.488 252.298C979.769 253.069 978.806 253.948 977.598 254.937C976.415 255.911 975.096 256.818 973.641 257.658C972.137 258.526 970.658 259.073 969.204 259.298C967.75 259.523 966.354 259.457 965.015 259.098C963.686 258.701 962.442 258.029 961.281 257.083C960.131 256.098 959.114 254.842 958.232 253.314C957.364 251.811 956.762 250.348 956.426 248.925C956.1 247.465 956.049 246.088 956.272 244.795C956.496 243.502 956.996 242.324 957.772 241.261C958.535 240.174 959.595 239.239 960.953 238.455C961.875 237.923 962.75 237.563 963.579 237.375C964.409 237.188 965.155 237.08 965.818 237.053L960.547 227.923L964.528 224.655L980.488 252.298ZM998.117 230.19C998.985 231.693 999.558 233.189 999.835 234.678C1000.11 236.167 1000.1 237.578 999.807 238.913C999.511 240.248 998.933 241.487 998.074 242.63C997.238 243.759 996.141 244.716 994.784 245.5C993.426 246.284 992.049 246.755 990.654 246.914C989.258 247.073 987.908 246.947 986.604 246.536C985.3 246.125 984.06 245.435 982.886 244.464C981.735 243.479 980.726 242.235 979.858 240.732C978.99 239.228 978.424 237.744 978.161 236.28C977.907 234.777 977.929 233.358 978.225 232.023C978.545 230.675 979.13 229.448 979.98 228.343C980.815 227.214 981.9 226.264 983.234 225.494C984.567 224.724 985.932 224.26 987.327 224.101C988.733 223.904 990.088 224.011 991.392 224.421C992.696 224.832 993.924 225.53 995.074 226.515C996.235 227.461 997.249 228.686 998.117 230.19ZM993.607 232.794C992.515 230.902 991.242 229.649 989.787 229.034C988.343 228.38 986.893 228.474 985.439 229.314C983.984 230.154 983.166 231.369 982.985 232.961C982.815 234.514 983.276 236.236 984.368 238.128C985.474 240.043 986.749 241.328 988.193 241.981C989.662 242.621 991.124 242.521 992.579 241.681C994.033 240.841 994.839 239.632 994.995 238.054C995.176 236.463 994.713 234.709 993.607 232.794ZM1011.09 231.186C1012.26 230.514 1013.03 229.891 1013.41 229.316C1013.77 228.717 1013.76 228.078 1013.37 227.399C1013 226.769 1012.41 226.415 1011.59 226.339C1010.79 226.249 1009.6 226.339 1008.01 226.61C1007.04 226.781 1006.13 226.905 1005.27 226.982C1004.42 227.021 1003.62 226.962 1002.89 226.805C1002.15 226.649 1001.46 226.351 1000.82 225.913C1000.19 225.437 999.616 224.75 999.098 223.853C998.09 222.107 997.941 220.366 998.652 218.629C999.349 216.869 1000.8 215.352 1003.01 214.078C1004.12 213.434 1005.25 212.927 1006.4 212.557C1007.53 212.163 1008.4 211.916 1009.03 211.816L1010.28 215.843C1009.67 215.904 1008.94 216.067 1008.09 216.332C1007.23 216.572 1006.3 216.979 1005.31 217.553C1004.41 218.071 1003.77 218.648 1003.4 219.285C1003.01 219.898 1002.99 220.52 1003.36 221.151C1003.54 221.466 1003.75 221.717 1003.99 221.903C1004.25 222.076 1004.57 222.194 1004.97 222.258C1005.35 222.298 1005.82 222.301 1006.38 222.268C1006.93 222.21 1007.58 222.108 1008.34 221.962C1009.6 221.748 1010.71 221.625 1011.66 221.593C1012.6 221.537 1013.44 221.618 1014.18 221.837C1014.93 222.018 1015.59 222.348 1016.16 222.828C1016.73 223.309 1017.26 223.973 1017.75 224.822C1018.8 226.64 1018.92 228.415 1018.1 230.144C1017.3 231.836 1015.65 233.403 1013.15 234.845C1011.48 235.811 1010.05 236.442 1008.87 236.739C1007.69 237.06 1006.85 237.255 1006.34 237.323L1004.98 233.209C1005.79 233.097 1006.72 232.904 1007.75 232.628C1008.81 232.339 1009.93 231.858 1011.09 231.186Z" fill="white"/>
<path d="M641 357L710.282 397V477L641 517L571.718 477V397L641 357Z" fill="white" fill-opacity="0.4"/>
</g>
<defs>
<clipPath id="clip0_399_281">
<rect width="1300" height="976" fill="white"/>
</clipPath>
</defs>
</svg>
