<svg width="1300" height="976" viewBox="0 0 1300 976" fill="none" xmlns="http://www.w3.org/2000/svg">
<path d="M648 728.318L648 733.4L626.034 733.4L626.034 728.318L648 728.318ZM619.608 727.772C620.56 727.772 621.316 728.08 621.876 728.696C622.436 729.312 622.716 730.04 622.716 730.88C622.716 731.748 622.436 732.49 621.876 733.106C621.316 733.722 620.56 734.03 619.608 734.03C618.628 734.03 617.858 733.722 617.298 733.106C616.738 732.49 616.458 731.748 616.458 730.88C616.458 730.04 616.738 729.312 617.298 728.696C617.858 728.08 618.628 727.772 619.608 727.772ZM626.748 721.834C626.468 720.854 626.202 719.58 625.95 718.012C625.698 716.444 625.572 714.708 625.572 712.804C625.572 711.012 625.824 709.514 626.328 708.31C626.804 707.106 627.49 706.154 628.386 705.454C629.254 704.726 630.318 704.222 631.578 703.942C632.81 703.634 634.168 703.48 635.652 703.48L648 703.48L648 708.562L636.45 708.562C635.274 708.562 634.28 708.646 633.468 708.814C632.628 708.954 631.956 709.206 631.452 709.57C630.92 709.906 630.542 710.382 630.318 710.998C630.066 711.586 629.94 712.314 629.94 713.182C629.94 713.826 629.982 714.498 630.066 715.198C630.15 715.898 630.22 716.416 630.276 716.752L648 716.752L648 721.834L626.748 721.834ZM636.996 677.4C638.732 677.4 640.314 677.652 641.742 678.156C643.17 678.66 644.388 679.374 645.396 680.298C646.404 681.222 647.188 682.342 647.748 683.658C648.308 684.946 648.588 686.374 648.588 687.942C648.588 689.51 648.308 690.938 647.748 692.226C647.188 693.514 646.404 694.62 645.396 695.544C644.388 696.468 643.17 697.196 641.742 697.728C640.314 698.232 638.732 698.484 636.996 698.484C635.26 698.484 633.692 698.232 632.292 697.728C630.864 697.196 629.646 696.468 628.638 695.544C627.63 694.592 626.86 693.472 626.328 692.184C625.768 690.896 625.488 689.482 625.488 687.942C625.488 686.402 625.768 684.988 626.328 683.7C626.86 682.384 627.63 681.264 628.638 680.34C629.646 679.416 630.864 678.702 632.292 678.198C633.692 677.666 635.26 677.4 636.996 677.4ZM636.996 682.608C634.812 682.608 633.09 683.084 631.83 684.036C630.542 684.96 629.898 686.262 629.898 687.942C629.898 689.622 630.542 690.938 631.83 691.89C633.09 692.814 634.812 693.276 636.996 693.276C639.208 693.276 640.958 692.814 642.246 691.89C643.534 690.938 644.178 689.622 644.178 687.942C644.178 686.262 643.534 684.96 642.246 684.036C640.958 683.084 639.208 682.608 636.996 682.608ZM648 667.029C645.116 668.429 641.812 669.871 638.088 671.355C634.336 672.811 630.318 674.141 626.034 675.345L626.034 669.927C627.266 669.619 628.596 669.269 630.024 668.877C631.424 668.457 632.838 668.023 634.266 667.575C635.666 667.099 637.038 666.623 638.382 666.147C639.698 665.643 640.888 665.181 641.952 664.761C640.888 664.341 639.698 663.893 638.382 663.417C637.038 662.941 635.666 662.479 634.266 662.031C632.838 661.555 631.424 661.107 630.024 660.687C628.596 660.267 627.266 659.903 626.034 659.595L626.034 654.345C630.318 655.549 634.336 656.893 638.088 658.377C641.812 659.833 645.116 661.261 648 662.661L648 667.029ZM644.43 642.821C644.43 641.253 644.346 640.063 644.178 639.251L638.55 639.251C638.466 639.531 638.382 639.937 638.298 640.469C638.214 641.001 638.172 641.589 638.172 642.233C638.172 642.793 638.214 643.367 638.298 643.955C638.382 644.515 638.536 645.033 638.76 645.509C638.984 645.957 639.306 646.321 639.726 646.601C640.118 646.881 640.622 647.021 641.238 647.021C642.442 647.021 643.282 646.643 643.758 645.887C644.206 645.131 644.43 644.109 644.43 642.821ZM625.488 643.241C625.488 641.561 625.698 640.147 626.118 638.999C626.538 637.851 627.126 636.941 627.882 636.269C628.638 635.569 629.562 635.079 630.654 634.799C631.718 634.491 632.894 634.337 634.182 634.337L647.496 634.337C647.664 635.121 647.86 636.311 648.084 637.907C648.336 639.475 648.462 641.253 648.462 643.241C648.462 644.557 648.336 645.761 648.084 646.853C647.832 647.945 647.426 648.883 646.866 649.667C646.306 650.423 645.578 651.025 644.682 651.473C643.786 651.893 642.68 652.103 641.364 652.103C640.104 652.103 639.04 651.865 638.172 651.389C637.304 650.885 636.604 650.213 636.072 649.373C635.512 648.533 635.12 647.567 634.896 646.475C634.644 645.355 634.518 644.193 634.518 642.989C634.518 642.429 634.56 641.841 634.644 641.225C634.7 640.609 634.812 639.951 634.98 639.251L634.14 639.251C633.552 639.251 632.992 639.321 632.46 639.461C631.928 639.601 631.466 639.853 631.074 640.217C630.654 640.553 630.332 641.015 630.108 641.603C629.884 642.163 629.772 642.877 629.772 643.745C629.772 644.921 629.856 645.999 630.024 646.979C630.192 647.959 630.388 648.757 630.612 649.373L626.496 650.003C626.272 649.359 626.048 648.421 625.824 647.189C625.6 645.957 625.488 644.641 625.488 643.241ZM649.638 618.034C650.058 617.138 650.534 616.522 651.066 616.186C651.598 615.822 652.256 615.64 653.04 615.64C654.02 615.64 654.86 616.06 655.56 616.9C656.26 617.74 656.61 619 656.61 620.68C656.61 622.024 656.428 623.214 656.064 624.25L653.04 623.662C653.124 623.382 653.222 623.018 653.334 622.57C653.446 622.122 653.502 621.66 653.502 621.184C653.502 620.708 653.418 620.344 653.25 620.092C653.082 619.812 652.83 619.672 652.494 619.672C652.046 619.672 651.71 619.868 651.486 620.26C651.29 620.652 651.122 621.044 650.982 621.436L650.856 621.856C650.492 621.744 650.072 621.59 649.596 621.394C649.148 621.198 648.728 621.002 648.336 620.806C648.084 622.262 647.636 623.522 646.992 624.586C646.348 625.65 645.536 626.532 644.556 627.232C643.548 627.932 642.414 628.464 641.154 628.828C639.894 629.164 638.522 629.332 637.038 629.332C635.414 629.332 633.902 629.08 632.502 628.576C631.074 628.072 629.842 627.358 628.806 626.434C627.77 625.482 626.958 624.334 626.37 622.99C625.782 621.646 625.488 620.134 625.488 618.454C625.488 616.382 625.866 614.422 626.622 612.574L630.78 613.666C630.528 614.254 630.318 614.926 630.15 615.682C629.982 616.41 629.898 617.194 629.898 618.034C629.898 620.022 630.528 621.534 631.788 622.57C633.02 623.606 634.77 624.124 637.038 624.124C639.222 624.124 640.958 623.634 642.246 622.654C643.506 621.674 644.136 620.022 644.136 617.698C644.136 616.83 644.052 615.976 643.884 615.136C643.716 614.296 643.506 613.568 643.254 612.952L647.454 612.238C647.706 612.742 647.93 613.484 648.126 614.464C648.322 615.444 648.448 616.466 648.504 617.53C648.728 617.642 648.938 617.74 649.134 617.824C649.33 617.908 649.498 617.978 649.638 618.034ZM644.43 600.575C644.43 599.007 644.346 597.817 644.178 597.005L638.55 597.005C638.466 597.285 638.382 597.691 638.298 598.223C638.214 598.755 638.172 599.343 638.172 599.987C638.172 600.547 638.214 601.121 638.298 601.709C638.382 602.269 638.536 602.787 638.76 603.263C638.984 603.711 639.306 604.075 639.726 604.355C640.118 604.635 640.622 604.775 641.238 604.775C642.442 604.775 643.282 604.397 643.758 603.641C644.206 602.885 644.43 601.863 644.43 600.575ZM625.488 600.995C625.488 599.315 625.698 597.901 626.118 596.753C626.538 595.605 627.126 594.695 627.882 594.023C628.638 593.323 629.562 592.833 630.654 592.553C631.718 592.245 632.894 592.091 634.182 592.091L647.496 592.091C647.664 592.875 647.86 594.065 648.084 595.661C648.336 597.229 648.462 599.007 648.462 600.995C648.462 602.311 648.336 603.515 648.084 604.607C647.832 605.699 647.426 606.637 646.866 607.421C646.306 608.177 645.578 608.779 644.682 609.227C643.786 609.647 642.68 609.857 641.364 609.857C640.104 609.857 639.04 609.619 638.172 609.143C637.304 608.639 636.604 607.967 636.072 607.127C635.512 606.287 635.12 605.321 634.896 604.229C634.644 603.109 634.518 601.947 634.518 600.743C634.518 600.183 634.56 599.595 634.644 598.979C634.7 598.363 634.812 597.705 634.98 597.005L634.14 597.005C633.552 597.005 632.992 597.075 632.46 597.215C631.928 597.355 631.466 597.607 631.074 597.971C630.654 598.307 630.332 598.769 630.108 599.357C629.884 599.917 629.772 600.631 629.772 601.499C629.772 602.675 629.856 603.753 630.024 604.733C630.192 605.713 630.388 606.511 630.612 607.127L626.496 607.757C626.272 607.113 626.048 606.175 625.824 604.943C625.6 603.711 625.488 602.395 625.488 600.995ZM618.18 592.889C618.572 593.057 619.006 593.281 619.482 593.561C619.93 593.813 620.364 594.135 620.784 594.527C621.176 594.919 621.512 595.367 621.792 595.871C622.072 596.375 622.212 596.935 622.212 597.551C622.212 598.055 622.142 598.531 622.002 598.979C621.834 599.427 621.652 599.875 621.456 600.323C621.26 600.743 621.092 601.163 620.952 601.583C620.784 601.975 620.7 602.367 620.7 602.759C620.7 603.291 620.882 603.753 621.246 604.145C621.61 604.509 622.03 604.803 622.506 605.027L620.994 607.589C620.602 607.449 620.182 607.253 619.734 607.001C619.258 606.721 618.824 606.385 618.432 605.993C618.012 605.573 617.662 605.111 617.382 604.607C617.102 604.103 616.962 603.543 616.962 602.927C616.962 602.423 617.046 601.947 617.214 601.499C617.382 601.051 617.564 600.617 617.76 600.197C617.928 599.749 618.096 599.329 618.264 598.937C618.432 598.517 618.516 598.111 618.516 597.719C618.516 597.187 618.334 596.739 617.97 596.375C617.578 595.983 617.144 595.675 616.668 595.451L618.18 592.889ZM636.996 566.002C638.732 566.002 640.314 566.254 641.742 566.758C643.17 567.262 644.388 567.976 645.396 568.9C646.404 569.824 647.188 570.944 647.748 572.26C648.308 573.548 648.588 574.976 648.588 576.544C648.588 578.112 648.308 579.54 647.748 580.828C647.188 582.116 646.404 583.222 645.396 584.146C644.388 585.07 643.17 585.798 641.742 586.33C640.314 586.834 638.732 587.086 636.996 587.086C635.26 587.086 633.692 586.834 632.292 586.33C630.864 585.798 629.646 585.07 628.638 584.146C627.63 583.194 626.86 582.074 626.328 580.786C625.768 579.498 625.488 578.084 625.488 576.544C625.488 575.004 625.768 573.59 626.328 572.302C626.86 570.986 627.63 569.866 628.638 568.942C629.646 568.018 630.864 567.304 632.292 566.8C633.692 566.268 635.26 566.002 636.996 566.002ZM636.996 571.21C634.812 571.21 633.09 571.686 631.83 572.638C630.542 573.562 629.898 574.864 629.898 576.544C629.898 578.224 630.542 579.54 631.83 580.492C633.09 581.416 634.812 581.878 636.996 581.878C639.208 581.878 640.958 581.416 642.246 580.492C643.534 579.54 644.178 578.224 644.178 576.544C644.178 574.864 643.534 573.562 642.246 572.638C640.958 571.686 639.208 571.21 636.996 571.21Z" fill="white"/>
<path d="M620.122 305.192C617.854 305.192 616.09 305.71 614.83 306.746C613.57 307.754 612.94 309.392 612.94 311.66C612.94 312.136 612.968 312.64 613.024 313.172C613.052 313.676 613.136 314.18 613.276 314.684L625.834 314.684C626.142 314.236 626.436 313.648 626.716 312.92C626.968 312.164 627.094 311.366 627.094 310.526C627.094 308.678 626.464 307.334 625.204 306.494C623.944 305.626 622.25 305.192 620.122 305.192ZM620.038 299.984C621.718 299.984 623.258 300.208 624.658 300.656C626.058 301.076 627.262 301.692 628.27 302.504C629.278 303.316 630.062 304.338 630.622 305.57C631.182 306.774 631.462 308.146 631.462 309.686C631.462 310.722 631.336 311.674 631.084 312.542C630.832 313.41 630.552 314.124 630.244 314.684L638.77 314.684L638.77 319.766L609.748 319.766C609.468 318.73 609.202 317.456 608.95 315.944C608.698 314.432 608.572 312.836 608.572 311.156C608.572 309.42 608.838 307.866 609.37 306.494C609.902 305.122 610.672 303.96 611.68 303.008C612.66 302.028 613.864 301.286 615.292 300.782C616.692 300.25 618.274 299.984 620.038 299.984ZM620.122 295.964C618.19 295.964 616.496 295.684 615.04 295.124C613.584 294.536 612.38 293.766 611.428 292.814C610.448 291.862 609.72 290.77 609.244 289.538C608.74 288.306 608.488 287.046 608.488 285.758C608.488 282.734 609.426 280.382 611.302 278.702C613.178 276.994 615.978 276.14 619.702 276.14C619.982 276.14 620.304 276.154 620.668 276.182C621.004 276.182 621.312 276.196 621.592 276.224L621.592 290.714C623.356 290.574 624.728 289.958 625.708 288.866C626.66 287.746 627.136 286.136 627.136 284.036C627.136 282.804 627.024 281.684 626.8 280.676C626.576 279.64 626.338 278.828 626.086 278.24L630.244 277.568C630.384 277.848 630.538 278.24 630.706 278.744C630.846 279.22 630.972 279.78 631.084 280.424C631.224 281.04 631.336 281.712 631.42 282.44C631.504 283.168 631.546 283.91 631.546 284.666C631.546 286.598 631.266 288.278 630.706 289.706C630.118 291.134 629.32 292.31 628.312 293.234C627.276 294.158 626.072 294.844 624.7 295.292C623.3 295.74 621.774 295.964 620.122 295.964ZM617.854 281.222C617.154 281.222 616.496 281.32 615.88 281.516C615.236 281.712 614.69 282.006 614.242 282.398C613.766 282.762 613.402 283.224 613.15 283.784C612.87 284.316 612.73 284.96 612.73 285.716C612.73 286.5 612.884 287.186 613.192 287.774C613.472 288.362 613.85 288.866 614.326 289.286C614.802 289.678 615.348 289.986 615.964 290.21C616.58 290.434 617.21 290.588 617.854 290.672L617.854 281.222ZM609.748 270.752C609.468 269.772 609.202 268.498 608.95 266.93C608.698 265.362 608.572 263.626 608.572 261.722C608.572 259.93 608.824 258.432 609.328 257.228C609.804 256.024 610.49 255.072 611.386 254.372C612.254 253.644 613.318 253.14 614.578 252.86C615.81 252.552 617.168 252.398 618.652 252.398L631 252.398L631 257.48L619.45 257.48C618.274 257.48 617.28 257.564 616.468 257.732C615.628 257.872 614.956 258.124 614.452 258.488C613.92 258.824 613.542 259.3 613.318 259.916C613.066 260.504 612.94 261.232 612.94 262.1C612.94 262.744 612.982 263.416 613.066 264.116C613.15 264.816 613.22 265.334 613.276 265.67L631 265.67L631 270.752L609.748 270.752ZM627.346 240.682C627.346 239.338 627.192 238.358 626.884 237.742C626.548 237.126 625.988 236.818 625.204 236.818C624.476 236.818 623.874 237.154 623.398 237.826C622.922 238.47 622.404 239.548 621.844 241.06C621.508 241.984 621.158 242.838 620.794 243.622C620.402 244.378 619.954 245.036 619.45 245.596C618.946 246.156 618.344 246.604 617.644 246.94C616.916 247.248 616.034 247.402 614.998 247.402C612.982 247.402 611.4 246.66 610.252 245.176C609.076 243.692 608.488 241.676 608.488 239.128C608.488 237.84 608.614 236.608 608.866 235.432C609.09 234.256 609.314 233.374 609.538 232.786L613.654 233.71C613.402 234.27 613.178 234.984 612.982 235.852C612.758 236.72 612.646 237.728 612.646 238.876C612.646 239.912 612.828 240.752 613.192 241.396C613.528 242.04 614.06 242.362 614.788 242.362C615.152 242.362 615.474 242.306 615.754 242.194C616.034 242.054 616.3 241.83 616.552 241.522C616.776 241.214 617.014 240.808 617.266 240.304C617.49 239.8 617.728 239.184 617.98 238.456C618.428 237.252 618.876 236.23 619.324 235.39C619.744 234.55 620.234 233.864 620.794 233.332C621.326 232.772 621.942 232.366 622.642 232.114C623.342 231.862 624.182 231.736 625.162 231.736C627.262 231.736 628.858 232.52 629.95 234.088C631.014 235.628 631.546 237.84 631.546 240.724C631.546 242.656 631.378 244.21 631.042 245.386C630.734 246.562 630.482 247.388 630.286 247.864L626.044 246.982C626.352 246.226 626.646 245.33 626.926 244.294C627.206 243.23 627.346 242.026 627.346 240.682ZM627.43 219.261C627.43 217.693 627.346 216.503 627.178 215.691L621.55 215.691C621.466 215.971 621.382 216.377 621.298 216.909C621.214 217.441 621.172 218.029 621.172 218.673C621.172 219.233 621.214 219.807 621.298 220.395C621.382 220.955 621.536 221.473 621.76 221.949C621.984 222.397 622.306 222.761 622.726 223.041C623.118 223.321 623.622 223.461 624.238 223.461C625.442 223.461 626.282 223.083 626.758 222.327C627.206 221.571 627.43 220.549 627.43 219.261ZM608.488 219.681C608.488 218.001 608.698 216.587 609.118 215.439C609.538 214.291 610.126 213.381 610.882 212.709C611.638 212.009 612.562 211.519 613.654 211.239C614.718 210.931 615.894 210.777 617.182 210.777L630.496 210.777C630.664 211.561 630.86 212.751 631.084 214.347C631.336 215.915 631.462 217.693 631.462 219.681C631.462 220.997 631.336 222.201 631.084 223.293C630.832 224.385 630.426 225.323 629.866 226.107C629.306 226.863 628.578 227.465 627.682 227.913C626.786 228.333 625.68 228.543 624.364 228.543C623.104 228.543 622.04 228.305 621.172 227.829C620.304 227.325 619.604 226.653 619.072 225.813C618.512 224.973 618.12 224.007 617.896 222.915C617.644 221.795 617.518 220.633 617.518 219.429C617.518 218.869 617.56 218.281 617.644 217.665C617.7 217.049 617.812 216.391 617.98 215.691L617.14 215.691C616.552 215.691 615.992 215.761 615.46 215.901C614.928 216.041 614.466 216.293 614.074 216.657C613.654 216.993 613.332 217.455 613.108 218.043C612.884 218.603 612.772 219.317 612.772 220.185C612.772 221.361 612.856 222.439 613.024 223.419C613.192 224.399 613.388 225.197 613.612 225.813L609.496 226.443C609.272 225.799 609.048 224.861 608.824 223.629C608.6 222.397 608.488 221.081 608.488 219.681ZM619.45 192.037C617.154 192.037 615.502 192.331 614.494 192.919C613.458 193.479 612.94 194.543 612.94 196.111C612.94 196.671 612.982 197.287 613.066 197.959C613.15 198.631 613.22 199.135 613.276 199.471L631 199.471L631 204.553L609.748 204.553C609.468 203.573 609.202 202.299 608.95 200.731C608.698 199.135 608.572 197.455 608.572 195.691C608.572 194.179 608.768 192.947 609.16 191.995C609.552 191.015 610.07 190.203 610.714 189.559C610.49 189.251 610.252 188.859 610 188.383C609.748 187.907 609.524 187.375 609.328 186.787C609.104 186.199 608.922 185.583 608.782 184.939C608.642 184.267 608.572 183.595 608.572 182.923C608.572 181.215 608.824 179.815 609.328 178.723C609.804 177.603 610.49 176.735 611.386 176.119C612.254 175.475 613.318 175.041 614.578 174.817C615.81 174.565 617.168 174.439 618.652 174.439L631 174.439L631 179.521L619.45 179.521C617.154 179.521 615.502 179.801 614.494 180.361C613.458 180.921 612.94 181.999 612.94 183.595C612.94 184.407 613.08 185.177 613.36 185.905C613.612 186.633 613.864 187.179 614.116 187.543C614.816 187.319 615.558 187.165 616.342 187.081C617.126 186.997 617.966 186.955 618.862 186.955L631 186.955L631 192.037L619.45 192.037ZM620.122 169.431C618.19 169.431 616.496 169.151 615.04 168.591C613.584 168.003 612.38 167.233 611.428 166.281C610.448 165.329 609.72 164.237 609.244 163.005C608.74 161.773 608.488 160.513 608.488 159.225C608.488 156.201 609.426 153.849 611.302 152.169C613.178 150.461 615.978 149.607 619.702 149.607C619.982 149.607 620.304 149.621 620.668 149.649C621.004 149.649 621.312 149.663 621.592 149.691L621.592 164.181C623.356 164.041 624.728 163.425 625.708 162.333C626.66 161.213 627.136 159.603 627.136 157.503C627.136 156.271 627.024 155.151 626.8 154.143C626.576 153.107 626.338 152.295 626.086 151.707L630.244 151.035C630.384 151.315 630.538 151.707 630.706 152.211C630.846 152.687 630.972 153.247 631.084 153.891C631.224 154.507 631.336 155.179 631.42 155.907C631.504 156.635 631.546 157.377 631.546 158.133C631.546 160.065 631.266 161.745 630.706 163.173C630.118 164.601 629.32 165.777 628.312 166.701C627.276 167.625 626.072 168.311 624.7 168.759C623.3 169.207 621.774 169.431 620.122 169.431ZM617.854 154.689C617.154 154.689 616.496 154.787 615.88 154.983C615.236 155.179 614.69 155.473 614.242 155.865C613.766 156.229 613.402 156.691 613.15 157.251C612.87 157.783 612.73 158.427 612.73 159.183C612.73 159.967 612.884 160.653 613.192 161.241C613.472 161.829 613.85 162.333 614.326 162.753C614.802 163.145 615.348 163.453 615.964 163.677C616.58 163.901 617.21 164.055 617.854 164.139L617.854 154.689ZM609.748 144.219C609.468 143.239 609.202 141.965 608.95 140.397C608.698 138.829 608.572 137.093 608.572 135.189C608.572 133.397 608.824 131.899 609.328 130.695C609.804 129.491 610.49 128.539 611.386 127.839C612.254 127.111 613.318 126.607 614.578 126.327C615.81 126.019 617.168 125.865 618.652 125.865L631 125.865L631 130.947L619.45 130.947C618.274 130.947 617.28 131.031 616.468 131.199C615.628 131.339 614.956 131.591 614.452 131.955C613.92 132.291 613.542 132.767 613.318 133.383C613.066 133.971 612.94 134.699 612.94 135.567C612.94 136.211 612.982 136.883 613.066 137.583C613.15 138.283 613.22 138.801 613.276 139.137L631 139.137L631 144.219L609.748 144.219ZM603.238 119.903L602.398 114.821L609.034 114.821L609.034 107.009L613.276 107.009L613.276 114.821L622.222 114.821C623.986 114.821 625.246 114.541 626.002 113.981C626.758 113.421 627.136 112.469 627.136 111.125C627.136 110.201 627.038 109.389 626.842 108.689C626.646 107.961 626.464 107.387 626.296 106.967L630.328 106.127C630.58 106.715 630.832 107.485 631.084 108.437C631.364 109.389 631.504 110.509 631.504 111.797C631.504 113.365 631.294 114.681 630.874 115.745C630.454 116.781 629.852 117.607 629.068 118.223C628.256 118.839 627.29 119.273 626.17 119.525C625.022 119.777 623.72 119.903 622.264 119.903L603.238 119.903ZM619.996 82.7223C621.732 82.7223 623.314 82.9743 624.742 83.4783C626.17 83.9823 627.388 84.6963 628.396 85.6203C629.404 86.5443 630.188 87.6643 630.748 88.9803C631.308 90.2683 631.588 91.6963 631.588 93.2643C631.588 94.8323 631.308 96.2603 630.748 97.5483C630.188 98.8363 629.404 99.9423 628.396 100.866C627.388 101.79 626.17 102.518 624.742 103.05C623.314 103.554 621.732 103.806 619.996 103.806C618.26 103.806 616.692 103.554 615.292 103.05C613.864 102.518 612.646 101.79 611.638 100.866C610.63 99.9143 609.86 98.7943 609.328 97.5063C608.768 96.2183 608.488 94.8043 608.488 93.2643C608.488 91.7243 608.768 90.3103 609.328 89.0223C609.86 87.7063 610.63 86.5863 611.638 85.6623C612.646 84.7383 613.864 84.0243 615.292 83.5203C616.692 82.9883 618.26 82.7223 619.996 82.7223ZM619.996 87.9303C617.812 87.9303 616.09 88.4063 614.83 89.3583C613.542 90.2823 612.898 91.5843 612.898 93.2643C612.898 94.9443 613.542 96.2603 614.83 97.2123C616.09 98.1363 617.812 98.5983 619.996 98.5983C622.208 98.5983 623.958 98.1363 625.246 97.2123C626.534 96.2603 627.178 94.9443 627.178 93.2643C627.178 91.5843 626.534 90.2823 625.246 89.3583C623.958 88.4063 622.208 87.9303 619.996 87.9303ZM662.122 305.192C659.854 305.192 658.09 305.71 656.83 306.746C655.57 307.754 654.94 309.392 654.94 311.66C654.94 312.136 654.968 312.64 655.024 313.172C655.052 313.676 655.136 314.18 655.276 314.684L667.834 314.684C668.142 314.236 668.436 313.648 668.716 312.92C668.968 312.164 669.094 311.366 669.094 310.526C669.094 308.678 668.464 307.334 667.204 306.494C665.944 305.626 664.25 305.192 662.122 305.192ZM662.038 299.984C663.718 299.984 665.258 300.208 666.658 300.656C668.058 301.076 669.262 301.692 670.27 302.504C671.278 303.316 672.062 304.338 672.622 305.57C673.182 306.774 673.462 308.146 673.462 309.686C673.462 310.722 673.336 311.674 673.084 312.542C672.832 313.41 672.552 314.124 672.244 314.684L680.77 314.684L680.77 319.766L651.748 319.766C651.468 318.73 651.202 317.456 650.95 315.944C650.698 314.432 650.572 312.836 650.572 311.156C650.572 309.42 650.838 307.866 651.37 306.494C651.902 305.122 652.672 303.96 653.68 303.008C654.66 302.028 655.864 301.286 657.292 300.782C658.692 300.25 660.274 299.984 662.038 299.984ZM655.612 282.23C655.472 282.65 655.332 283.238 655.192 283.994C655.024 284.722 654.94 285.576 654.94 286.556C654.94 287.116 654.996 287.718 655.108 288.362C655.22 288.978 655.318 289.412 655.402 289.664L673 289.664L673 294.746L652.084 294.746C651.72 293.766 651.384 292.548 651.076 291.092C650.74 289.608 650.572 287.97 650.572 286.178C650.572 285.842 650.6 285.45 650.656 285.002C650.684 284.554 650.74 284.106 650.824 283.658C650.88 283.21 650.964 282.776 651.076 282.356C651.16 281.936 651.244 281.6 651.328 281.348L655.612 282.23ZM661.996 257.941C663.732 257.941 665.314 258.193 666.742 258.697C668.17 259.201 669.388 259.915 670.396 260.839C671.404 261.763 672.188 262.883 672.748 264.199C673.308 265.487 673.588 266.915 673.588 268.483C673.588 270.051 673.308 271.479 672.748 272.767C672.188 274.055 671.404 275.161 670.396 276.085C669.388 277.009 668.17 277.737 666.742 278.269C665.314 278.773 663.732 279.025 661.996 279.025C660.26 279.025 658.692 278.773 657.292 278.269C655.864 277.737 654.646 277.009 653.638 276.085C652.63 275.133 651.86 274.013 651.328 272.725C650.768 271.437 650.488 270.023 650.488 268.483C650.488 266.943 650.768 265.529 651.328 264.241C651.86 262.925 652.63 261.805 653.638 260.881C654.646 259.957 655.864 259.243 657.292 258.739C658.692 258.207 660.26 257.941 661.996 257.941ZM661.996 263.149C659.812 263.149 658.09 263.625 656.83 264.577C655.542 265.501 654.898 266.803 654.898 268.483C654.898 270.163 655.542 271.479 656.83 272.431C658.09 273.355 659.812 273.817 661.996 273.817C664.208 273.817 665.958 273.355 667.246 272.431C668.534 271.479 669.178 270.163 669.178 268.483C669.178 266.803 668.534 265.501 667.246 264.577C665.958 263.625 664.208 263.149 661.996 263.149ZM680.812 255.519C680.812 255.883 680.77 256.387 680.686 257.031C680.63 257.703 680.504 258.291 680.308 258.795L676.15 258.123C676.346 257.507 676.444 256.765 676.444 255.897C676.444 254.721 676.094 253.895 675.394 253.419C674.722 252.943 673.7 252.705 672.328 252.705L651.034 252.705L651.034 247.623L672.412 247.623C675.268 247.623 677.382 248.309 678.754 249.681C680.126 251.025 680.812 252.971 680.812 255.519ZM644.608 247.077C645.56 247.077 646.316 247.385 646.876 248.001C647.436 248.617 647.716 249.345 647.716 250.185C647.716 251.053 647.436 251.795 646.876 252.411C646.316 253.027 645.56 253.335 644.608 253.335C643.628 253.335 642.858 253.027 642.298 252.411C641.738 251.795 641.458 251.053 641.458 250.185C641.458 249.345 641.738 248.617 642.298 248.001C642.858 247.385 643.628 247.077 644.608 247.077ZM662.122 242.357C660.19 242.357 658.496 242.077 657.04 241.517C655.584 240.929 654.38 240.159 653.428 239.207C652.448 238.255 651.72 237.163 651.244 235.931C650.74 234.699 650.488 233.439 650.488 232.151C650.488 229.127 651.426 226.775 653.302 225.095C655.178 223.387 657.978 222.533 661.702 222.533C661.982 222.533 662.304 222.547 662.668 222.575C663.004 222.575 663.312 222.589 663.592 222.617L663.592 237.107C665.356 236.967 666.728 236.351 667.708 235.259C668.66 234.139 669.136 232.529 669.136 230.429C669.136 229.197 669.024 228.077 668.8 227.069C668.576 226.033 668.338 225.221 668.086 224.633L672.244 223.961C672.384 224.241 672.538 224.633 672.706 225.137C672.846 225.613 672.972 226.173 673.084 226.817C673.224 227.433 673.336 228.105 673.42 228.833C673.504 229.561 673.546 230.303 673.546 231.059C673.546 232.991 673.266 234.671 672.706 236.099C672.118 237.527 671.32 238.703 670.312 239.627C669.276 240.551 668.072 241.237 666.7 241.685C665.3 242.133 663.774 242.357 662.122 242.357ZM659.854 227.615C659.154 227.615 658.496 227.713 657.88 227.909C657.236 228.105 656.69 228.399 656.242 228.791C655.766 229.155 655.402 229.617 655.15 230.177C654.87 230.709 654.73 231.353 654.73 232.109C654.73 232.893 654.884 233.579 655.192 234.167C655.472 234.755 655.85 235.259 656.326 235.679C656.802 236.071 657.348 236.379 657.964 236.603C658.58 236.827 659.21 236.981 659.854 237.065L659.854 227.615ZM645.238 217.397L644.398 212.315L651.034 212.315L651.034 204.503L655.276 204.503L655.276 212.315L664.222 212.315C665.986 212.315 667.246 212.035 668.002 211.475C668.758 210.915 669.136 209.963 669.136 208.619C669.136 207.695 669.038 206.883 668.842 206.183C668.646 205.455 668.464 204.881 668.296 204.461L672.328 203.621C672.58 204.209 672.832 204.979 673.084 205.931C673.364 206.883 673.504 208.003 673.504 209.291C673.504 210.859 673.294 212.175 672.874 213.239C672.454 214.275 671.852 215.101 671.068 215.717C670.256 216.333 669.29 216.767 668.17 217.019C667.022 217.271 665.72 217.397 664.264 217.397L645.238 217.397ZM672.328 181.572C672.58 182.552 672.832 183.826 673.084 185.394C673.364 186.962 673.504 188.684 673.504 190.56C673.504 192.324 673.252 193.808 672.748 195.012C672.244 196.188 671.544 197.14 670.648 197.868C669.752 198.568 668.688 199.072 667.456 199.38C666.196 199.688 664.824 199.842 663.34 199.842L651.034 199.842L651.034 194.76L662.542 194.76C664.894 194.76 666.574 194.424 667.582 193.752C668.59 193.052 669.094 191.848 669.094 190.14C669.094 189.524 669.066 188.88 669.01 188.208C668.954 187.508 668.884 186.99 668.8 186.654L651.034 186.654L651.034 181.572L672.328 181.572ZM669.43 167.376C669.43 165.808 669.346 164.618 669.178 163.806L663.55 163.806C663.466 164.086 663.382 164.492 663.298 165.024C663.214 165.556 663.172 166.144 663.172 166.788C663.172 167.348 663.214 167.922 663.298 168.51C663.382 169.07 663.536 169.588 663.76 170.064C663.984 170.512 664.306 170.876 664.726 171.156C665.118 171.436 665.622 171.576 666.238 171.576C667.442 171.576 668.282 171.198 668.758 170.442C669.206 169.686 669.43 168.664 669.43 167.376ZM650.488 167.796C650.488 166.116 650.698 164.702 651.118 163.554C651.538 162.406 652.126 161.496 652.882 160.824C653.638 160.124 654.562 159.634 655.654 159.354C656.718 159.046 657.894 158.892 659.182 158.892L672.496 158.892C672.664 159.676 672.86 160.866 673.084 162.462C673.336 164.03 673.462 165.808 673.462 167.796C673.462 169.112 673.336 170.316 673.084 171.408C672.832 172.5 672.426 173.438 671.866 174.222C671.306 174.978 670.578 175.58 669.682 176.028C668.786 176.448 667.68 176.658 666.364 176.658C665.104 176.658 664.04 176.42 663.172 175.944C662.304 175.44 661.604 174.768 661.072 173.928C660.512 173.088 660.12 172.122 659.896 171.03C659.644 169.91 659.518 168.748 659.518 167.544C659.518 166.984 659.56 166.396 659.644 165.78C659.7 165.164 659.812 164.506 659.98 163.806L659.14 163.806C658.552 163.806 657.992 163.876 657.46 164.016C656.928 164.156 656.466 164.408 656.074 164.772C655.654 165.108 655.332 165.57 655.108 166.158C654.884 166.718 654.772 167.432 654.772 168.3C654.772 169.476 654.856 170.554 655.024 171.534C655.192 172.514 655.388 173.312 655.612 173.928L651.496 174.558C651.272 173.914 651.048 172.976 650.824 171.744C650.6 170.512 650.488 169.196 650.488 167.796ZM673.42 145.024C673.392 146.536 673.224 147.796 672.916 148.804C672.608 149.784 672.174 150.568 671.614 151.156C671.026 151.744 670.312 152.164 669.472 152.416C668.604 152.64 667.624 152.752 666.532 152.752L641.248 152.752L640.408 147.67L665.566 147.67C666.182 147.67 666.7 147.628 667.12 147.544C667.54 147.432 667.904 147.25 668.212 146.998C668.492 146.746 668.716 146.41 668.884 145.99C669.024 145.542 669.136 144.982 669.22 144.31L673.42 145.024Z" fill="white"/>
<path d="M77.5902 413.122C77.5902 411.19 77.8702 409.496 78.4302 408.04C79.0182 406.584 79.7882 405.38 80.7402 404.428C81.6922 403.448 82.7842 402.72 84.0162 402.244C85.2482 401.74 86.5082 401.488 87.7962 401.488C90.8202 401.488 93.1722 402.426 94.8522 404.302C96.5602 406.178 97.4142 408.978 97.4142 412.702C97.4142 412.982 97.4002 413.304 97.3722 413.668C97.3722 414.004 97.3582 414.312 97.3302 414.592H82.8402C82.9802 416.356 83.5962 417.728 84.6882 418.708C85.8082 419.66 87.4182 420.136 89.5182 420.136C90.7502 420.136 91.8702 420.024 92.8782 419.8C93.9142 419.576 94.7262 419.338 95.3142 419.086L95.9862 423.244C95.7062 423.384 95.3142 423.538 94.8102 423.706C94.3342 423.846 93.7742 423.972 93.1302 424.084C92.5142 424.224 91.8422 424.336 91.1142 424.42C90.3862 424.504 89.6442 424.546 88.8882 424.546C86.9562 424.546 85.2762 424.266 83.8482 423.706C82.4202 423.118 81.2442 422.32 80.3202 421.312C79.3962 420.276 78.7102 419.072 78.2622 417.7C77.8142 416.3 77.5902 414.774 77.5902 413.122ZM92.3322 410.854C92.3322 410.154 92.2342 409.496 92.0382 408.88C91.8422 408.236 91.5482 407.69 91.1562 407.242C90.7922 406.766 90.3302 406.402 89.7702 406.15C89.2382 405.87 88.5942 405.73 87.8382 405.73C87.0542 405.73 86.3682 405.884 85.7802 406.192C85.1922 406.472 84.6882 406.85 84.2682 407.326C83.8762 407.802 83.5682 408.348 83.3442 408.964C83.1202 409.58 82.9662 410.21 82.8822 410.854H92.3322ZM108.304 420.346C109.648 420.346 110.628 420.192 111.244 419.884C111.86 419.548 112.168 418.988 112.168 418.204C112.168 417.476 111.832 416.874 111.16 416.398C110.516 415.922 109.438 415.404 107.926 414.844C107.002 414.508 106.148 414.158 105.364 413.794C104.608 413.402 103.95 412.954 103.39 412.45C102.83 411.946 102.382 411.344 102.046 410.644C101.738 409.916 101.584 409.034 101.584 407.998C101.584 405.982 102.326 404.4 103.81 403.252C105.294 402.076 107.31 401.488 109.858 401.488C111.146 401.488 112.378 401.614 113.554 401.866C114.73 402.09 115.612 402.314 116.2 402.538L115.276 406.654C114.716 406.402 114.002 406.178 113.134 405.982C112.266 405.758 111.258 405.646 110.11 405.646C109.074 405.646 108.234 405.828 107.59 406.192C106.946 406.528 106.624 407.06 106.624 407.788C106.624 408.152 106.68 408.474 106.792 408.754C106.932 409.034 107.156 409.3 107.464 409.552C107.772 409.776 108.178 410.014 108.682 410.266C109.186 410.49 109.802 410.728 110.53 410.98C111.734 411.428 112.756 411.876 113.596 412.324C114.436 412.744 115.122 413.234 115.654 413.794C116.214 414.326 116.62 414.942 116.872 415.642C117.124 416.342 117.25 417.182 117.25 418.162C117.25 420.262 116.466 421.858 114.898 422.95C113.358 424.014 111.146 424.546 108.262 424.546C106.33 424.546 104.776 424.378 103.6 424.042C102.424 423.734 101.598 423.482 101.122 423.286L102.004 419.044C102.76 419.352 103.656 419.646 104.692 419.926C105.756 420.206 106.96 420.346 108.304 420.346ZM121.746 396.238L126.828 395.398L126.828 402.034H134.64V406.276H126.828L126.828 415.222C126.828 416.986 127.108 418.246 127.668 419.002C128.228 419.758 129.18 420.136 130.524 420.136C131.448 420.136 132.26 420.038 132.96 419.842C133.688 419.646 134.262 419.464 134.682 419.296L135.522 423.328C134.934 423.58 134.164 423.832 133.212 424.084C132.26 424.364 131.14 424.504 129.852 424.504C128.284 424.504 126.968 424.294 125.904 423.874C124.868 423.454 124.042 422.852 123.426 422.068C122.81 421.256 122.376 420.29 122.124 419.17C121.872 418.022 121.746 416.72 121.746 415.264L121.746 396.238ZM157.57 423.328C156.59 423.58 155.316 423.832 153.748 424.084C152.18 424.364 150.458 424.504 148.582 424.504C146.818 424.504 145.334 424.252 144.13 423.748C142.954 423.244 142.002 422.544 141.274 421.648C140.574 420.752 140.07 419.688 139.762 418.456C139.454 417.196 139.3 415.824 139.3 414.34L139.3 402.034L144.382 402.034L144.382 413.542C144.382 415.894 144.718 417.574 145.39 418.582C146.09 419.59 147.294 420.094 149.002 420.094C149.618 420.094 150.262 420.066 150.934 420.01C151.634 419.954 152.152 419.884 152.488 419.8L152.488 402.034H157.57L157.57 423.328ZM168.029 412.954C168.029 415.194 168.561 416.958 169.625 418.246C170.689 419.506 172.159 420.136 174.035 420.136C174.847 420.136 175.533 420.108 176.093 420.052C176.681 419.968 177.157 419.884 177.521 419.8L177.521 407.2C177.073 406.892 176.471 406.612 175.715 406.36C174.987 406.08 174.203 405.94 173.363 405.94C171.515 405.94 170.157 406.57 169.289 407.83C168.449 409.09 168.029 410.798 168.029 412.954ZM182.603 423.328C181.595 423.636 180.321 423.916 178.781 424.168C177.269 424.42 175.673 424.546 173.993 424.546C172.257 424.546 170.703 424.28 169.331 423.748C167.959 423.216 166.783 422.46 165.803 421.48C164.851 420.472 164.109 419.268 163.577 417.868C163.073 416.44 162.821 414.844 162.821 413.08C162.821 411.344 163.031 409.776 163.451 408.376C163.899 406.948 164.543 405.73 165.383 404.722C166.223 403.714 167.245 402.944 168.449 402.412C169.653 401.852 171.039 401.572 172.607 401.572C173.671 401.572 174.609 401.698 175.421 401.95C176.233 402.202 176.933 402.482 177.521 402.79V392.248L182.603 391.408L182.603 423.328ZM208.924 412.996C208.924 414.732 208.672 416.314 208.168 417.742C207.664 419.17 206.95 420.388 206.026 421.396C205.102 422.404 203.982 423.188 202.666 423.748C201.378 424.308 199.95 424.588 198.382 424.588C196.814 424.588 195.386 424.308 194.098 423.748C192.81 423.188 191.704 422.404 190.78 421.396C189.856 420.388 189.128 419.17 188.596 417.742C188.092 416.314 187.84 414.732 187.84 412.996C187.84 411.26 188.092 409.692 188.596 408.292C189.128 406.864 189.856 405.646 190.78 404.638C191.732 403.63 192.852 402.86 194.14 402.328C195.428 401.768 196.842 401.488 198.382 401.488C199.922 401.488 201.336 401.768 202.624 402.328C203.94 402.86 205.06 403.63 205.984 404.638C206.908 405.646 207.622 406.864 208.126 408.292C208.658 409.692 208.924 411.26 208.924 412.996ZM203.716 412.996C203.716 410.812 203.24 409.09 202.288 407.83C201.364 406.542 200.062 405.898 198.382 405.898C196.702 405.898 195.386 406.542 194.434 407.83C193.51 409.09 193.048 410.812 193.048 412.996C193.048 415.208 193.51 416.958 194.434 418.246C195.386 419.534 196.702 420.178 198.382 420.178C200.062 420.178 201.364 419.534 202.288 418.246C203.24 416.958 203.716 415.208 203.716 412.996ZM227.953 412.954C227.953 415.194 228.485 416.958 229.549 418.246C230.613 419.506 232.083 420.136 233.959 420.136C234.771 420.136 235.457 420.108 236.017 420.052C236.605 419.968 237.081 419.884 237.445 419.8V407.2C236.997 406.892 236.395 406.612 235.639 406.36C234.911 406.08 234.127 405.94 233.287 405.94C231.439 405.94 230.081 406.57 229.213 407.83C228.373 409.09 227.953 410.798 227.953 412.954ZM242.527 423.328C241.519 423.636 240.245 423.916 238.705 424.168C237.193 424.42 235.597 424.546 233.917 424.546C232.181 424.546 230.627 424.28 229.255 423.748C227.883 423.216 226.707 422.46 225.727 421.48C224.775 420.472 224.033 419.268 223.501 417.868C222.997 416.44 222.745 414.844 222.745 413.08C222.745 411.344 222.955 409.776 223.375 408.376C223.823 406.948 224.467 405.73 225.307 404.722C226.147 403.714 227.169 402.944 228.373 402.412C229.577 401.852 230.963 401.572 232.531 401.572C233.595 401.572 234.533 401.698 235.345 401.95C236.157 402.202 236.857 402.482 237.445 402.79V392.248L242.527 391.408L242.527 423.328ZM256.71 420.43C258.278 420.43 259.468 420.346 260.28 420.178V414.55C260 414.466 259.594 414.382 259.062 414.298C258.53 414.214 257.942 414.172 257.298 414.172C256.738 414.172 256.164 414.214 255.576 414.298C255.016 414.382 254.498 414.536 254.022 414.76C253.574 414.984 253.21 415.306 252.93 415.726C252.65 416.118 252.51 416.622 252.51 417.238C252.51 418.442 252.888 419.282 253.644 419.758C254.4 420.206 255.422 420.43 256.71 420.43ZM256.29 401.488C257.97 401.488 259.384 401.698 260.532 402.118C261.68 402.538 262.59 403.126 263.262 403.882C263.962 404.638 264.452 405.562 264.732 406.654C265.04 407.718 265.194 408.894 265.194 410.182V423.496C264.41 423.664 263.22 423.86 261.624 424.084C260.056 424.336 258.278 424.462 256.29 424.462C254.974 424.462 253.77 424.336 252.678 424.084C251.586 423.832 250.648 423.426 249.864 422.866C249.108 422.306 248.506 421.578 248.058 420.682C247.638 419.786 247.428 418.68 247.428 417.364C247.428 416.104 247.666 415.04 248.142 414.172C248.646 413.304 249.318 412.604 250.158 412.072C250.998 411.512 251.964 411.12 253.056 410.896C254.176 410.644 255.338 410.518 256.542 410.518C257.102 410.518 257.69 410.56 258.306 410.644C258.922 410.7 259.58 410.812 260.28 410.98V410.14C260.28 409.552 260.21 408.992 260.07 408.46C259.93 407.928 259.678 407.466 259.314 407.074C258.978 406.654 258.516 406.332 257.928 406.108C257.368 405.884 256.654 405.772 255.786 405.772C254.61 405.772 253.532 405.856 252.552 406.024C251.572 406.192 250.774 406.388 250.158 406.612L249.528 402.496C250.172 402.272 251.11 402.048 252.342 401.824C253.574 401.6 254.89 401.488 256.29 401.488ZM276.92 420.346C278.264 420.346 279.244 420.192 279.86 419.884C280.476 419.548 280.784 418.988 280.784 418.204C280.784 417.476 280.448 416.874 279.776 416.398C279.132 415.922 278.054 415.404 276.542 414.844C275.618 414.508 274.764 414.158 273.98 413.794C273.224 413.402 272.566 412.954 272.006 412.45C271.446 411.946 270.998 411.344 270.662 410.644C270.354 409.916 270.2 409.034 270.2 407.998C270.2 405.982 270.942 404.4 272.426 403.252C273.91 402.076 275.926 401.488 278.474 401.488C279.762 401.488 280.994 401.614 282.17 401.866C283.346 402.09 284.228 402.314 284.816 402.538L283.892 406.654C283.332 406.402 282.618 406.178 281.75 405.982C280.882 405.758 279.874 405.646 278.726 405.646C277.69 405.646 276.85 405.828 276.206 406.192C275.562 406.528 275.24 407.06 275.24 407.788C275.24 408.152 275.296 408.474 275.408 408.754C275.548 409.034 275.772 409.3 276.08 409.552C276.388 409.776 276.794 410.014 277.298 410.266C277.802 410.49 278.418 410.728 279.146 410.98C280.35 411.428 281.372 411.876 282.212 412.324C283.052 412.744 283.738 413.234 284.27 413.794C284.83 414.326 285.236 414.942 285.488 415.642C285.74 416.342 285.866 417.182 285.866 418.162C285.866 420.262 285.082 421.858 283.514 422.95C281.974 424.014 279.762 424.546 276.878 424.546C274.946 424.546 273.392 424.378 272.216 424.042C271.04 423.734 270.214 423.482 269.738 423.286L270.62 419.044C271.376 419.352 272.272 419.646 273.308 419.926C274.372 420.206 275.576 420.346 276.92 420.346ZM312.932 412.45C312.932 410.154 312.638 408.502 312.05 407.494C311.49 406.458 310.426 405.94 308.858 405.94C308.298 405.94 307.682 405.982 307.01 406.066C306.338 406.15 305.834 406.22 305.498 406.276V424L300.416 424L300.416 402.748C301.396 402.468 302.67 402.202 304.238 401.95C305.834 401.698 307.514 401.572 309.278 401.572C310.79 401.572 312.022 401.768 312.974 402.16C313.954 402.552 314.766 403.07 315.41 403.714C315.718 403.49 316.11 403.252 316.586 403C317.062 402.748 317.594 402.524 318.182 402.328C318.77 402.104 319.386 401.922 320.03 401.782C320.702 401.642 321.374 401.572 322.046 401.572C323.754 401.572 325.154 401.824 326.246 402.328C327.366 402.804 328.234 403.49 328.85 404.386C329.494 405.254 329.928 406.318 330.152 407.578C330.404 408.81 330.53 410.168 330.53 411.652L330.53 424H325.448L325.448 412.45C325.448 410.154 325.168 408.502 324.608 407.494C324.048 406.458 322.97 405.94 321.374 405.94C320.562 405.94 319.792 406.08 319.064 406.36C318.336 406.612 317.79 406.864 317.426 407.116C317.65 407.816 317.804 408.558 317.888 409.342C317.972 410.126 318.014 410.966 318.014 411.862L318.014 424H312.932V412.45ZM341.879 424H336.797L336.797 402.034H341.879L341.879 424ZM345.365 393.046L338.519 399.682L335.999 397.414L342.173 390.064L345.365 393.046ZM352.353 412.954C352.353 415.194 352.885 416.958 353.949 418.246C355.013 419.506 356.483 420.136 358.359 420.136C359.171 420.136 359.857 420.108 360.417 420.052C361.005 419.968 361.481 419.884 361.845 419.8L361.845 407.2C361.397 406.892 360.795 406.612 360.039 406.36C359.311 406.08 358.527 405.94 357.687 405.94C355.839 405.94 354.481 406.57 353.613 407.83C352.773 409.09 352.353 410.798 352.353 412.954ZM366.927 423.328C365.919 423.636 364.645 423.916 363.105 424.168C361.593 424.42 359.997 424.546 358.317 424.546C356.581 424.546 355.027 424.28 353.655 423.748C352.283 423.216 351.107 422.46 350.127 421.48C349.175 420.472 348.433 419.268 347.901 417.868C347.397 416.44 347.145 414.844 347.145 413.08C347.145 411.344 347.355 409.776 347.775 408.376C348.223 406.948 348.867 405.73 349.707 404.722C350.547 403.714 351.569 402.944 352.773 402.412C353.977 401.852 355.363 401.572 356.931 401.572C357.995 401.572 358.933 401.698 359.745 401.95C360.557 402.202 361.257 402.482 361.845 402.79V392.248L366.927 391.408L366.927 423.328ZM378.506 424H373.424L373.424 402.034H378.506L378.506 424ZM379.052 395.608C379.052 396.56 378.744 397.316 378.128 397.876C377.512 398.436 376.784 398.716 375.944 398.716C375.076 398.716 374.334 398.436 373.718 397.876C373.102 397.316 372.794 396.56 372.794 395.608C372.794 394.628 373.102 393.858 373.718 393.298C374.334 392.738 375.076 392.458 375.944 392.458C376.784 392.458 377.512 392.738 378.128 393.298C378.744 393.858 379.052 394.628 379.052 395.608ZM392.718 420.43C394.286 420.43 395.476 420.346 396.288 420.178V414.55C396.008 414.466 395.602 414.382 395.07 414.298C394.538 414.214 393.95 414.172 393.306 414.172C392.746 414.172 392.172 414.214 391.584 414.298C391.024 414.382 390.506 414.536 390.03 414.76C389.582 414.984 389.218 415.306 388.938 415.726C388.658 416.118 388.518 416.622 388.518 417.238C388.518 418.442 388.896 419.282 389.652 419.758C390.408 420.206 391.43 420.43 392.718 420.43ZM392.298 401.488C393.978 401.488 395.392 401.698 396.54 402.118C397.688 402.538 398.598 403.126 399.27 403.882C399.97 404.638 400.46 405.562 400.74 406.654C401.048 407.718 401.202 408.894 401.202 410.182L401.202 423.496C400.418 423.664 399.228 423.86 397.632 424.084C396.064 424.336 394.286 424.462 392.298 424.462C390.982 424.462 389.778 424.336 388.686 424.084C387.594 423.832 386.656 423.426 385.872 422.866C385.116 422.306 384.514 421.578 384.066 420.682C383.646 419.786 383.436 418.68 383.436 417.364C383.436 416.104 383.674 415.04 384.15 414.172C384.654 413.304 385.326 412.604 386.166 412.072C387.006 411.512 387.972 411.12 389.064 410.896C390.184 410.644 391.346 410.518 392.55 410.518C393.11 410.518 393.698 410.56 394.314 410.644C394.93 410.7 395.588 410.812 396.288 410.98V410.14C396.288 409.552 396.218 408.992 396.078 408.46C395.938 407.928 395.686 407.466 395.322 407.074C394.986 406.654 394.524 406.332 393.936 406.108C393.376 405.884 392.662 405.772 391.794 405.772C390.618 405.772 389.54 405.856 388.56 406.024C387.58 406.192 386.782 406.388 386.166 406.612L385.536 402.496C386.18 402.272 387.118 402.048 388.35 401.824C389.582 401.6 390.898 401.488 392.298 401.488ZM412.927 420.346C414.271 420.346 415.251 420.192 415.867 419.884C416.483 419.548 416.791 418.988 416.791 418.204C416.791 417.476 416.455 416.874 415.783 416.398C415.139 415.922 414.061 415.404 412.549 414.844C411.625 414.508 410.771 414.158 409.987 413.794C409.231 413.402 408.573 412.954 408.013 412.45C407.453 411.946 407.005 411.344 406.669 410.644C406.361 409.916 406.207 409.034 406.207 407.998C406.207 405.982 406.949 404.4 408.433 403.252C409.917 402.076 411.933 401.488 414.481 401.488C415.769 401.488 417.001 401.614 418.177 401.866C419.353 402.09 420.235 402.314 420.823 402.538L419.899 406.654C419.339 406.402 418.625 406.178 417.757 405.982C416.889 405.758 415.881 405.646 414.733 405.646C413.697 405.646 412.857 405.828 412.213 406.192C411.569 406.528 411.247 407.06 411.247 407.788C411.247 408.152 411.303 408.474 411.415 408.754C411.555 409.034 411.779 409.3 412.087 409.552C412.395 409.776 412.801 410.014 413.305 410.266C413.809 410.49 414.425 410.728 415.153 410.98C416.357 411.428 417.379 411.876 418.219 412.324C419.059 412.744 419.745 413.234 420.277 413.794C420.837 414.326 421.243 414.942 421.495 415.642C421.747 416.342 421.873 417.182 421.873 418.162C421.873 420.262 421.089 421.858 419.521 422.95C417.981 424.014 415.769 424.546 412.885 424.546C410.953 424.546 409.399 424.378 408.223 424.042C407.047 423.734 406.221 423.482 405.745 423.286L406.627 419.044C407.383 419.352 408.279 419.646 409.315 419.926C410.379 420.206 411.583 420.346 412.927 420.346ZM435.205 413.122C435.205 411.19 435.485 409.496 436.045 408.04C436.633 406.584 437.403 405.38 438.355 404.428C439.307 403.448 440.399 402.72 441.631 402.244C442.863 401.74 444.123 401.488 445.411 401.488C448.435 401.488 450.787 402.426 452.467 404.302C454.175 406.178 455.029 408.978 455.029 412.702C455.029 412.982 455.015 413.304 454.987 413.668C454.987 414.004 454.973 414.312 454.945 414.592H440.455C440.595 416.356 441.211 417.728 442.303 418.708C443.423 419.66 445.033 420.136 447.133 420.136C448.365 420.136 449.485 420.024 450.493 419.8C451.529 419.576 452.341 419.338 452.929 419.086L453.601 423.244C453.321 423.384 452.929 423.538 452.425 423.706C451.949 423.846 451.389 423.972 450.745 424.084C450.129 424.224 449.457 424.336 448.729 424.42C448.001 424.504 447.259 424.546 446.503 424.546C444.571 424.546 442.891 424.266 441.463 423.706C440.035 423.118 438.859 422.32 437.935 421.312C437.011 420.276 436.325 419.072 435.877 417.7C435.429 416.3 435.205 414.774 435.205 413.122ZM449.947 410.854C449.947 410.154 449.849 409.496 449.653 408.88C449.457 408.236 449.163 407.69 448.771 407.242C448.407 406.766 447.945 406.402 447.385 406.15C446.853 405.87 446.209 405.73 445.453 405.73C444.669 405.73 443.983 405.884 443.395 406.192C442.807 406.472 442.303 406.85 441.883 407.326C441.491 407.802 441.183 408.348 440.959 408.964C440.735 409.58 440.581 410.21 440.497 410.854H449.947ZM474.21 412.954C474.21 415.194 474.742 416.958 475.806 418.246C476.87 419.506 478.34 420.136 480.216 420.136C481.028 420.136 481.714 420.108 482.274 420.052C482.862 419.968 483.338 419.884 483.702 419.8L483.702 407.2C483.254 406.892 482.652 406.612 481.896 406.36C481.168 406.08 480.384 405.94 479.544 405.94C477.696 405.94 476.338 406.57 475.47 407.83C474.63 409.09 474.21 410.798 474.21 412.954ZM488.784 423.328C487.776 423.636 486.502 423.916 484.962 424.168C483.45 424.42 481.854 424.546 480.174 424.546C478.438 424.546 476.884 424.28 475.512 423.748C474.14 423.216 472.964 422.46 471.984 421.48C471.032 420.472 470.29 419.268 469.758 417.868C469.254 416.44 469.002 414.844 469.002 413.08C469.002 411.344 469.212 409.776 469.632 408.376C470.08 406.948 470.724 405.73 471.564 404.722C472.404 403.714 473.426 402.944 474.63 402.412C475.834 401.852 477.22 401.572 478.788 401.572C479.852 401.572 480.79 401.698 481.602 401.95C482.414 402.202 483.114 402.482 483.702 402.79V392.248L488.784 391.408L488.784 423.328ZM494.022 413.122C494.022 411.19 494.302 409.496 494.862 408.04C495.45 406.584 496.22 405.38 497.172 404.428C498.124 403.448 499.216 402.72 500.448 402.244C501.68 401.74 502.94 401.488 504.228 401.488C507.252 401.488 509.604 402.426 511.284 404.302C512.992 406.178 513.846 408.978 513.846 412.702C513.846 412.982 513.832 413.304 513.804 413.668C513.804 414.004 513.79 414.312 513.762 414.592L499.272 414.592C499.412 416.356 500.028 417.728 501.12 418.708C502.24 419.66 503.85 420.136 505.95 420.136C507.182 420.136 508.302 420.024 509.31 419.8C510.346 419.576 511.158 419.338 511.746 419.086L512.418 423.244C512.138 423.384 511.746 423.538 511.242 423.706C510.766 423.846 510.206 423.972 509.562 424.084C508.946 424.224 508.274 424.336 507.546 424.42C506.818 424.504 506.076 424.546 505.32 424.546C503.388 424.546 501.708 424.266 500.28 423.706C498.852 423.118 497.676 422.32 496.752 421.312C495.828 420.276 495.142 419.072 494.694 417.7C494.246 416.3 494.022 414.774 494.022 413.122ZM508.764 410.854C508.764 410.154 508.666 409.496 508.47 408.88C508.274 408.236 507.98 407.69 507.588 407.242C507.224 406.766 506.762 406.402 506.202 406.15C505.67 405.87 505.026 405.73 504.27 405.73C503.486 405.73 502.8 405.884 502.212 406.192C501.624 406.472 501.12 406.85 500.7 407.326C500.308 407.802 500 408.348 499.776 408.964C499.552 409.58 499.398 410.21 499.314 410.854L508.764 410.854ZM137.759 455.122C137.759 457.25 138.179 458.944 139.019 460.204C139.887 461.464 141.245 462.094 143.093 462.094C143.933 462.094 144.717 461.968 145.445 461.716C146.201 461.436 146.803 461.142 147.251 460.834L147.251 448.276C146.887 448.192 146.425 448.122 145.865 448.066C145.333 447.982 144.633 447.94 143.765 447.94C141.889 447.94 140.419 448.584 139.355 449.872C138.291 451.132 137.759 452.882 137.759 455.122ZM132.551 455.038C132.551 453.302 132.803 451.734 133.307 450.334C133.839 448.906 134.581 447.702 135.533 446.722C136.513 445.714 137.689 444.944 139.061 444.412C140.433 443.852 141.987 443.572 143.723 443.572C145.459 443.572 147.083 443.698 148.595 443.95C150.107 444.202 151.353 444.468 152.333 444.748L152.333 473.77H147.251V465.244C146.663 465.552 145.935 465.832 145.067 466.084C144.227 466.336 143.289 466.462 142.253 466.462C140.685 466.462 139.299 466.196 138.095 465.664C136.891 465.104 135.883 464.32 135.071 463.312C134.259 462.304 133.629 461.1 133.181 459.7C132.761 458.3 132.551 456.746 132.551 455.038ZM176.807 465.328C175.827 465.58 174.553 465.832 172.985 466.084C171.417 466.364 169.695 466.504 167.819 466.504C166.055 466.504 164.571 466.252 163.367 465.748C162.191 465.244 161.239 464.544 160.511 463.648C159.811 462.752 159.307 461.688 158.999 460.456C158.691 459.196 158.537 457.824 158.537 456.34L158.537 444.034H163.619L163.619 455.542C163.619 457.894 163.955 459.574 164.627 460.582C165.327 461.59 166.531 462.094 168.239 462.094C168.855 462.094 169.499 462.066 170.171 462.01C170.871 461.954 171.389 461.884 171.725 461.8L171.725 444.034H176.807L176.807 465.328ZM182.057 455.122C182.057 453.19 182.337 451.496 182.897 450.04C183.485 448.584 184.255 447.38 185.207 446.428C186.159 445.448 187.251 444.72 188.483 444.244C189.715 443.74 190.975 443.488 192.263 443.488C195.287 443.488 197.639 444.426 199.319 446.302C201.027 448.178 201.881 450.978 201.881 454.702C201.881 454.982 201.867 455.304 201.839 455.668C201.839 456.004 201.825 456.312 201.797 456.592H187.307C187.447 458.356 188.063 459.728 189.155 460.708C190.275 461.66 191.885 462.136 193.985 462.136C195.217 462.136 196.337 462.024 197.345 461.8C198.381 461.576 199.193 461.338 199.781 461.086L200.453 465.244C200.173 465.384 199.781 465.538 199.277 465.706C198.801 465.846 198.241 465.972 197.597 466.084C196.981 466.224 196.309 466.336 195.581 466.42C194.853 466.504 194.111 466.546 193.355 466.546C191.423 466.546 189.743 466.266 188.315 465.706C186.887 465.118 185.711 464.32 184.787 463.312C183.863 462.276 183.177 461.072 182.729 459.7C182.281 458.3 182.057 456.774 182.057 455.122ZM196.799 452.854C196.799 452.154 196.701 451.496 196.505 450.88C196.309 450.236 196.015 449.69 195.623 449.242C195.259 448.766 194.797 448.402 194.237 448.15C193.705 447.87 193.061 447.73 192.305 447.73C191.521 447.73 190.835 447.884 190.247 448.192C189.659 448.472 189.155 448.85 188.735 449.326C188.343 449.802 188.035 450.348 187.811 450.964C187.587 451.58 187.433 452.21 187.349 452.854H196.799ZM212.771 462.346C214.115 462.346 215.095 462.192 215.711 461.884C216.327 461.548 216.635 460.988 216.635 460.204C216.635 459.476 216.299 458.874 215.627 458.398C214.983 457.922 213.905 457.404 212.393 456.844C211.469 456.508 210.615 456.158 209.831 455.794C209.075 455.402 208.417 454.954 207.857 454.45C207.297 453.946 206.849 453.344 206.513 452.644C206.205 451.916 206.051 451.034 206.051 449.998C206.051 447.982 206.793 446.4 208.277 445.252C209.761 444.076 211.777 443.488 214.325 443.488C215.613 443.488 216.845 443.614 218.021 443.866C219.197 444.09 220.079 444.314 220.667 444.538L219.743 448.654C219.183 448.402 218.469 448.178 217.601 447.982C216.733 447.758 215.725 447.646 214.577 447.646C213.541 447.646 212.701 447.828 212.057 448.192C211.413 448.528 211.091 449.06 211.091 449.788C211.091 450.152 211.147 450.474 211.259 450.754C211.399 451.034 211.623 451.3 211.931 451.552C212.239 451.776 212.645 452.014 213.149 452.266C213.653 452.49 214.269 452.728 214.997 452.98C216.201 453.428 217.223 453.876 218.063 454.324C218.903 454.744 219.589 455.234 220.121 455.794C220.681 456.326 221.087 456.942 221.339 457.642C221.591 458.342 221.717 459.182 221.717 460.162C221.717 462.262 220.933 463.858 219.365 464.95C217.825 466.014 215.613 466.546 212.729 466.546C210.797 466.546 209.243 466.378 208.067 466.042C206.891 465.734 206.065 465.482 205.589 465.286L206.471 461.044C207.227 461.352 208.123 461.646 209.159 461.926C210.223 462.206 211.427 462.346 212.771 462.346ZM226.212 438.238L231.294 437.398L231.294 444.034L239.106 444.034V448.276L231.294 448.276L231.294 457.222C231.294 458.986 231.574 460.246 232.134 461.002C232.694 461.758 233.646 462.136 234.99 462.136C235.914 462.136 236.726 462.038 237.426 461.842C238.154 461.646 238.728 461.464 239.148 461.296L239.988 465.328C239.4 465.58 238.63 465.832 237.678 466.084C236.726 466.364 235.606 466.504 234.318 466.504C232.75 466.504 231.434 466.294 230.37 465.874C229.334 465.454 228.508 464.852 227.892 464.068C227.276 463.256 226.842 462.29 226.59 461.17C226.338 460.022 226.212 458.72 226.212 457.264L226.212 438.238ZM263.393 454.996C263.393 456.732 263.141 458.314 262.637 459.742C262.133 461.17 261.419 462.388 260.495 463.396C259.571 464.404 258.451 465.188 257.135 465.748C255.847 466.308 254.419 466.588 252.851 466.588C251.283 466.588 249.855 466.308 248.567 465.748C247.279 465.188 246.173 464.404 245.249 463.396C244.325 462.388 243.597 461.17 243.065 459.742C242.561 458.314 242.309 456.732 242.309 454.996C242.309 453.26 242.561 451.692 243.065 450.292C243.597 448.864 244.325 447.646 245.249 446.638C246.201 445.63 247.321 444.86 248.609 444.328C249.897 443.768 251.311 443.488 252.851 443.488C254.391 443.488 255.805 443.768 257.093 444.328C258.409 444.86 259.529 445.63 260.453 446.638C261.377 447.646 262.091 448.864 262.595 450.292C263.127 451.692 263.393 453.26 263.393 454.996ZM258.185 454.996C258.185 452.812 257.709 451.09 256.757 449.83C255.833 448.542 254.531 447.898 252.851 447.898C251.171 447.898 249.855 448.542 248.903 449.83C247.979 451.09 247.517 452.812 247.517 454.996C247.517 457.208 247.979 458.958 248.903 460.246C249.855 461.534 251.171 462.178 252.851 462.178C254.531 462.178 255.833 461.534 256.757 460.246C257.709 458.958 258.185 457.208 258.185 454.996ZM260.201 436.18C260.033 436.572 259.809 437.006 259.529 437.482C259.277 437.93 258.955 438.364 258.563 438.784C258.171 439.176 257.723 439.512 257.219 439.792C256.715 440.072 256.155 440.212 255.539 440.212C255.035 440.212 254.559 440.142 254.111 440.002C253.663 439.834 253.215 439.652 252.767 439.456C252.347 439.26 251.927 439.092 251.507 438.952C251.115 438.784 250.723 438.7 250.331 438.7C249.799 438.7 249.337 438.882 248.945 439.246C248.581 439.61 248.287 440.03 248.063 440.506L245.501 438.994C245.641 438.602 245.837 438.182 246.089 437.734C246.369 437.258 246.705 436.824 247.097 436.432C247.517 436.012 247.979 435.662 248.483 435.382C248.987 435.102 249.547 434.962 250.163 434.962C250.667 434.962 251.143 435.046 251.591 435.214C252.039 435.382 252.473 435.564 252.893 435.76C253.341 435.928 253.761 436.096 254.153 436.264C254.573 436.432 254.979 436.516 255.371 436.516C255.903 436.516 256.351 436.334 256.715 435.97C257.107 435.578 257.415 435.144 257.639 434.668L260.201 436.18ZM267.411 455.122C267.411 453.19 267.691 451.496 268.251 450.04C268.839 448.584 269.609 447.38 270.561 446.428C271.513 445.448 272.605 444.72 273.837 444.244C275.069 443.74 276.329 443.488 277.617 443.488C280.641 443.488 282.993 444.426 284.673 446.302C286.381 448.178 287.235 450.978 287.235 454.702C287.235 454.982 287.221 455.304 287.193 455.668C287.193 456.004 287.179 456.312 287.151 456.592L272.661 456.592C272.801 458.356 273.417 459.728 274.509 460.708C275.629 461.66 277.239 462.136 279.339 462.136C280.571 462.136 281.691 462.024 282.699 461.8C283.735 461.576 284.547 461.338 285.135 461.086L285.807 465.244C285.527 465.384 285.135 465.538 284.631 465.706C284.155 465.846 283.595 465.972 282.951 466.084C282.335 466.224 281.663 466.336 280.935 466.42C280.207 466.504 279.465 466.546 278.709 466.546C276.777 466.546 275.097 466.266 273.669 465.706C272.241 465.118 271.065 464.32 270.141 463.312C269.217 462.276 268.531 461.072 268.083 459.7C267.635 458.3 267.411 456.774 267.411 455.122ZM282.153 452.854C282.153 452.154 282.055 451.496 281.859 450.88C281.663 450.236 281.369 449.69 280.977 449.242C280.613 448.766 280.151 448.402 279.591 448.15C279.059 447.87 278.415 447.73 277.659 447.73C276.875 447.73 276.189 447.884 275.601 448.192C275.013 448.472 274.509 448.85 274.089 449.326C273.697 449.802 273.389 450.348 273.165 450.964C272.941 451.58 272.787 452.21 272.703 452.854L282.153 452.854ZM298.125 462.346C299.469 462.346 300.449 462.192 301.065 461.884C301.681 461.548 301.989 460.988 301.989 460.204C301.989 459.476 301.653 458.874 300.981 458.398C300.337 457.922 299.259 457.404 297.747 456.844C296.823 456.508 295.969 456.158 295.185 455.794C294.429 455.402 293.771 454.954 293.211 454.45C292.651 453.946 292.203 453.344 291.867 452.644C291.559 451.916 291.405 451.034 291.405 449.998C291.405 447.982 292.147 446.4 293.631 445.252C295.115 444.076 297.131 443.488 299.679 443.488C300.967 443.488 302.199 443.614 303.375 443.866C304.551 444.09 305.433 444.314 306.021 444.538L305.097 448.654C304.537 448.402 303.823 448.178 302.955 447.982C302.087 447.758 301.079 447.646 299.931 447.646C298.895 447.646 298.055 447.828 297.411 448.192C296.767 448.528 296.445 449.06 296.445 449.788C296.445 450.152 296.501 450.474 296.613 450.754C296.753 451.034 296.977 451.3 297.285 451.552C297.593 451.776 297.999 452.014 298.503 452.266C299.007 452.49 299.623 452.728 300.351 452.98C301.555 453.428 302.577 453.876 303.417 454.324C304.257 454.744 304.943 455.234 305.475 455.794C306.035 456.326 306.441 456.942 306.693 457.642C306.945 458.342 307.071 459.182 307.071 460.162C307.071 462.262 306.287 463.858 304.719 464.95C303.179 466.014 300.967 466.546 298.083 466.546C296.151 466.546 294.597 466.378 293.421 466.042C292.245 465.734 291.419 465.482 290.943 465.286L291.825 461.044C292.581 461.352 293.477 461.646 294.513 461.926C295.577 462.206 296.781 462.346 298.125 462.346ZM334.137 454.45C334.137 452.154 333.843 450.502 333.255 449.494C332.695 448.458 331.631 447.94 330.063 447.94C329.503 447.94 328.887 447.982 328.215 448.066C327.543 448.15 327.039 448.22 326.703 448.276V466H321.621L321.621 444.748C322.601 444.468 323.875 444.202 325.443 443.95C327.039 443.698 328.719 443.572 330.483 443.572C331.995 443.572 333.227 443.768 334.179 444.16C335.159 444.552 335.971 445.07 336.615 445.714C336.923 445.49 337.315 445.252 337.791 445C338.267 444.748 338.799 444.524 339.387 444.328C339.975 444.104 340.591 443.922 341.235 443.782C341.907 443.642 342.579 443.572 343.251 443.572C344.959 443.572 346.359 443.824 347.451 444.328C348.571 444.804 349.439 445.49 350.055 446.386C350.699 447.254 351.133 448.318 351.357 449.578C351.609 450.81 351.735 452.168 351.735 453.652V466H346.653V454.45C346.653 452.154 346.373 450.502 345.813 449.494C345.253 448.458 344.175 447.94 342.579 447.94C341.767 447.94 340.997 448.08 340.269 448.36C339.541 448.612 338.995 448.864 338.631 449.116C338.855 449.816 339.009 450.558 339.093 451.342C339.177 452.126 339.219 452.966 339.219 453.862V466H334.137V454.45ZM363.085 466H358.003L358.003 444.034H363.085L363.085 466ZM363.631 437.608C363.631 438.56 363.323 439.316 362.707 439.876C362.091 440.436 361.363 440.716 360.523 440.716C359.655 440.716 358.913 440.436 358.297 439.876C357.681 439.316 357.373 438.56 357.373 437.608C357.373 436.628 357.681 435.858 358.297 435.298C358.913 434.738 359.655 434.458 360.523 434.458C361.363 434.458 362.091 434.738 362.707 435.298C363.323 435.858 363.631 436.628 363.631 437.608ZM373.558 454.954C373.558 457.194 374.09 458.958 375.154 460.246C376.218 461.506 377.688 462.136 379.564 462.136C380.376 462.136 381.062 462.108 381.622 462.052C382.21 461.968 382.686 461.884 383.05 461.8V449.2C382.602 448.892 382 448.612 381.244 448.36C380.516 448.08 379.732 447.94 378.892 447.94C377.044 447.94 375.686 448.57 374.818 449.83C373.978 451.09 373.558 452.798 373.558 454.954ZM388.132 465.328C387.124 465.636 385.85 465.916 384.31 466.168C382.798 466.42 381.202 466.546 379.522 466.546C377.786 466.546 376.232 466.28 374.86 465.748C373.488 465.216 372.312 464.46 371.332 463.48C370.38 462.472 369.638 461.268 369.106 459.868C368.602 458.44 368.35 456.844 368.35 455.08C368.35 453.344 368.56 451.776 368.98 450.376C369.428 448.948 370.072 447.73 370.912 446.722C371.752 445.714 372.774 444.944 373.978 444.412C375.182 443.852 376.568 443.572 378.136 443.572C379.2 443.572 380.138 443.698 380.95 443.95C381.762 444.202 382.462 444.482 383.05 444.79V434.248L388.132 433.408L388.132 465.328ZM399.712 466H394.63L394.63 444.034H399.712L399.712 466ZM400.258 437.608C400.258 438.56 399.95 439.316 399.334 439.876C398.718 440.436 397.99 440.716 397.15 440.716C396.282 440.716 395.54 440.436 394.924 439.876C394.308 439.316 394 438.56 394 437.608C394 436.628 394.308 435.858 394.924 435.298C395.54 434.738 396.282 434.458 397.15 434.458C397.99 434.458 398.718 434.738 399.334 435.298C399.95 435.858 400.258 436.628 400.258 437.608ZM413.923 462.43C415.491 462.43 416.681 462.346 417.493 462.178V456.55C417.213 456.466 416.807 456.382 416.275 456.298C415.743 456.214 415.155 456.172 414.511 456.172C413.951 456.172 413.377 456.214 412.789 456.298C412.229 456.382 411.711 456.536 411.235 456.76C410.787 456.984 410.423 457.306 410.143 457.726C409.863 458.118 409.723 458.622 409.723 459.238C409.723 460.442 410.101 461.282 410.857 461.758C411.613 462.206 412.635 462.43 413.923 462.43ZM413.503 443.488C415.183 443.488 416.597 443.698 417.745 444.118C418.893 444.538 419.803 445.126 420.475 445.882C421.175 446.638 421.665 447.562 421.945 448.654C422.253 449.718 422.407 450.894 422.407 452.182V465.496C421.623 465.664 420.433 465.86 418.837 466.084C417.269 466.336 415.491 466.462 413.503 466.462C412.187 466.462 410.983 466.336 409.891 466.084C408.799 465.832 407.861 465.426 407.077 464.866C406.321 464.306 405.719 463.578 405.271 462.682C404.851 461.786 404.641 460.68 404.641 459.364C404.641 458.104 404.879 457.04 405.355 456.172C405.859 455.304 406.531 454.604 407.371 454.072C408.211 453.512 409.177 453.12 410.269 452.896C411.389 452.644 412.551 452.518 413.755 452.518C414.315 452.518 414.903 452.56 415.519 452.644C416.135 452.7 416.793 452.812 417.493 452.98V452.14C417.493 451.552 417.423 450.992 417.283 450.46C417.143 449.928 416.891 449.466 416.527 449.074C416.191 448.654 415.729 448.332 415.141 448.108C414.581 447.884 413.867 447.772 412.999 447.772C411.823 447.772 410.745 447.856 409.765 448.024C408.785 448.192 407.987 448.388 407.371 448.612L406.741 444.496C407.385 444.272 408.323 444.048 409.555 443.824C410.787 443.6 412.103 443.488 413.503 443.488ZM419.845 435.046L412.999 441.682L410.479 439.414L416.653 432.064L419.845 435.046ZM428.378 438.238L433.46 437.398V444.034L441.272 444.034L441.272 448.276L433.46 448.276V457.222C433.46 458.986 433.74 460.246 434.3 461.002C434.86 461.758 435.812 462.136 437.156 462.136C438.08 462.136 438.892 462.038 439.592 461.842C440.32 461.646 440.894 461.464 441.314 461.296L442.154 465.328C441.566 465.58 440.796 465.832 439.844 466.084C438.892 466.364 437.772 466.504 436.484 466.504C434.916 466.504 433.6 466.294 432.536 465.874C431.5 465.454 430.674 464.852 430.058 464.068C429.442 463.256 429.008 462.29 428.756 461.17C428.504 460.022 428.378 458.72 428.378 457.264L428.378 438.238ZM451.309 466H446.227L446.227 444.034H451.309L451.309 466ZM451.855 437.608C451.855 438.56 451.547 439.316 450.931 439.876C450.315 440.436 449.587 440.716 448.747 440.716C447.879 440.716 447.137 440.436 446.521 439.876C445.905 439.316 445.597 438.56 445.597 437.608C445.597 436.628 445.905 435.858 446.521 435.298C447.137 434.738 447.879 434.458 448.747 434.458C449.587 434.458 450.315 434.738 450.931 435.298C451.547 435.858 451.855 436.628 451.855 437.608ZM456.575 455.038C456.575 453.414 456.827 451.902 457.331 450.502C457.835 449.074 458.549 447.842 459.473 446.806C460.425 445.77 461.573 444.958 462.917 444.37C464.261 443.782 465.773 443.488 467.453 443.488C469.525 443.488 471.485 443.866 473.333 444.622L472.241 448.78C471.653 448.528 470.981 448.318 470.225 448.15C469.497 447.982 468.713 447.898 467.873 447.898C465.885 447.898 464.373 448.528 463.337 449.788C462.301 451.02 461.783 452.77 461.783 455.038C461.783 457.222 462.273 458.958 463.253 460.246C464.233 461.506 465.885 462.136 468.209 462.136C469.077 462.136 469.931 462.052 470.771 461.884C471.611 461.716 472.339 461.506 472.955 461.254L473.669 465.454C473.109 465.734 472.255 465.986 471.107 466.21C469.987 466.434 468.825 466.546 467.621 466.546C465.745 466.546 464.107 466.266 462.707 465.706C461.335 465.118 460.187 464.32 459.263 463.312C458.367 462.276 457.695 461.058 457.247 459.658C456.799 458.23 456.575 456.69 456.575 455.038ZM485.331 462.43C486.899 462.43 488.089 462.346 488.901 462.178V456.55C488.621 456.466 488.215 456.382 487.683 456.298C487.151 456.214 486.563 456.172 485.919 456.172C485.359 456.172 484.785 456.214 484.197 456.298C483.637 456.382 483.119 456.536 482.643 456.76C482.195 456.984 481.831 457.306 481.551 457.726C481.271 458.118 481.131 458.622 481.131 459.238C481.131 460.442 481.509 461.282 482.265 461.758C483.021 462.206 484.043 462.43 485.331 462.43ZM484.911 443.488C486.591 443.488 488.005 443.698 489.153 444.118C490.301 444.538 491.211 445.126 491.883 445.882C492.583 446.638 493.073 447.562 493.353 448.654C493.661 449.718 493.815 450.894 493.815 452.182V465.496C493.031 465.664 491.841 465.86 490.245 466.084C488.677 466.336 486.899 466.462 484.911 466.462C483.595 466.462 482.391 466.336 481.299 466.084C480.207 465.832 479.269 465.426 478.485 464.866C477.729 464.306 477.127 463.578 476.679 462.682C476.259 461.786 476.049 460.68 476.049 459.364C476.049 458.104 476.287 457.04 476.763 456.172C477.267 455.304 477.939 454.604 478.779 454.072C479.619 453.512 480.585 453.12 481.677 452.896C482.797 452.644 483.959 452.518 485.163 452.518C485.723 452.518 486.311 452.56 486.927 452.644C487.543 452.7 488.201 452.812 488.901 452.98V452.14C488.901 451.552 488.831 450.992 488.691 450.46C488.551 449.928 488.299 449.466 487.935 449.074C487.599 448.654 487.137 448.332 486.549 448.108C485.989 447.884 485.275 447.772 484.407 447.772C483.231 447.772 482.153 447.856 481.173 448.024C480.193 448.192 479.395 448.388 478.779 448.612L478.149 444.496C478.793 444.272 479.731 444.048 480.963 443.824C482.195 443.6 483.511 443.488 484.911 443.488ZM505.541 462.346C506.885 462.346 507.865 462.192 508.481 461.884C509.097 461.548 509.405 460.988 509.405 460.204C509.405 459.476 509.069 458.874 508.397 458.398C507.753 457.922 506.675 457.404 505.163 456.844C504.239 456.508 503.385 456.158 502.601 455.794C501.845 455.402 501.187 454.954 500.627 454.45C500.067 453.946 499.619 453.344 499.283 452.644C498.975 451.916 498.821 451.034 498.821 449.998C498.821 447.982 499.563 446.4 501.047 445.252C502.531 444.076 504.547 443.488 507.095 443.488C508.383 443.488 509.615 443.614 510.791 443.866C511.967 444.09 512.849 444.314 513.437 444.538L512.513 448.654C511.953 448.402 511.239 448.178 510.371 447.982C509.503 447.758 508.495 447.646 507.347 447.646C506.311 447.646 505.471 447.828 504.827 448.192C504.183 448.528 503.861 449.06 503.861 449.788C503.861 450.152 503.917 450.474 504.029 450.754C504.169 451.034 504.393 451.3 504.701 451.552C505.009 451.776 505.415 452.014 505.919 452.266C506.423 452.49 507.039 452.728 507.767 452.98C508.971 453.428 509.993 453.876 510.833 454.324C511.673 454.744 512.359 455.234 512.891 455.794C513.451 456.326 513.857 456.942 514.109 457.642C514.361 458.342 514.487 459.182 514.487 460.162C514.487 462.262 513.703 463.858 512.135 464.95C510.595 466.014 508.383 466.546 505.499 466.546C503.567 466.546 502.013 466.378 500.837 466.042C499.661 465.734 498.835 465.482 498.359 465.286L499.241 461.044C499.997 461.352 500.893 461.646 501.929 461.926C502.993 462.206 504.197 462.346 505.541 462.346Z" fill="white"/>
<path d="M759.016 438.122C759.016 436.19 759.296 434.496 759.856 433.04C760.444 431.584 761.214 430.38 762.166 429.428C763.118 428.448 764.21 427.72 765.442 427.244C766.674 426.74 767.934 426.488 769.222 426.488C772.246 426.488 774.598 427.426 776.278 429.302C777.986 431.178 778.84 433.978 778.84 437.702C778.84 437.982 778.826 438.304 778.798 438.668C778.798 439.004 778.784 439.312 778.756 439.592L764.266 439.592C764.406 441.356 765.022 442.728 766.114 443.708C767.234 444.66 768.844 445.136 770.944 445.136C772.176 445.136 773.296 445.024 774.304 444.8C775.34 444.576 776.152 444.338 776.74 444.086L777.412 448.244C777.132 448.384 776.74 448.538 776.236 448.706C775.76 448.846 775.2 448.972 774.556 449.084C773.94 449.224 773.268 449.336 772.54 449.42C771.812 449.504 771.07 449.546 770.314 449.546C768.382 449.546 766.702 449.266 765.274 448.706C763.846 448.118 762.67 447.32 761.746 446.312C760.822 445.276 760.136 444.072 759.688 442.7C759.24 441.3 759.016 439.774 759.016 438.122ZM773.758 435.854C773.758 435.154 773.66 434.496 773.464 433.88C773.268 433.236 772.974 432.69 772.582 432.242C772.218 431.766 771.756 431.402 771.196 431.15C770.664 430.87 770.02 430.73 769.264 430.73C768.48 430.73 767.794 430.884 767.206 431.192C766.618 431.472 766.114 431.85 765.694 432.326C765.302 432.802 764.994 433.348 764.77 433.964C764.546 434.58 764.392 435.21 764.308 435.854H773.758ZM789.73 445.346C791.074 445.346 792.054 445.192 792.67 444.884C793.286 444.548 793.594 443.988 793.594 443.204C793.594 442.476 793.258 441.874 792.586 441.398C791.942 440.922 790.864 440.404 789.352 439.844C788.428 439.508 787.574 439.158 786.79 438.794C786.034 438.402 785.376 437.954 784.816 437.45C784.256 436.946 783.808 436.344 783.472 435.644C783.164 434.916 783.01 434.034 783.01 432.998C783.01 430.982 783.752 429.4 785.236 428.252C786.72 427.076 788.736 426.488 791.284 426.488C792.572 426.488 793.804 426.614 794.98 426.866C796.156 427.09 797.038 427.314 797.626 427.538L796.702 431.654C796.142 431.402 795.428 431.178 794.56 430.982C793.692 430.758 792.684 430.646 791.536 430.646C790.5 430.646 789.66 430.828 789.016 431.192C788.372 431.528 788.05 432.06 788.05 432.788C788.05 433.152 788.106 433.474 788.218 433.754C788.358 434.034 788.582 434.3 788.89 434.552C789.198 434.776 789.604 435.014 790.108 435.266C790.612 435.49 791.228 435.728 791.956 435.98C793.16 436.428 794.182 436.876 795.022 437.324C795.862 437.744 796.548 438.234 797.08 438.794C797.64 439.326 798.046 439.942 798.298 440.642C798.55 441.342 798.676 442.182 798.676 443.162C798.676 445.262 797.892 446.858 796.324 447.95C794.784 449.014 792.572 449.546 789.688 449.546C787.756 449.546 786.202 449.378 785.026 449.042C783.85 448.734 783.024 448.482 782.548 448.286L783.43 444.044C784.186 444.352 785.082 444.646 786.118 444.926C787.182 445.206 788.386 445.346 789.73 445.346ZM803.171 421.238L808.253 420.398V427.034H816.065V431.276H808.253V440.222C808.253 441.986 808.533 443.246 809.093 444.002C809.653 444.758 810.605 445.136 811.949 445.136C812.873 445.136 813.685 445.038 814.385 444.842C815.113 444.646 815.687 444.464 816.107 444.296L816.947 448.328C816.359 448.58 815.589 448.832 814.637 449.084C813.685 449.364 812.565 449.504 811.277 449.504C809.709 449.504 808.393 449.294 807.329 448.874C806.293 448.454 805.467 447.852 804.851 447.068C804.235 446.256 803.801 445.29 803.549 444.17C803.297 443.022 803.171 441.72 803.171 440.264V421.238ZM838.996 448.328C838.016 448.58 836.742 448.832 835.174 449.084C833.606 449.364 831.884 449.504 830.008 449.504C828.244 449.504 826.76 449.252 825.556 448.748C824.38 448.244 823.428 447.544 822.7 446.648C822 445.752 821.496 444.688 821.188 443.456C820.88 442.196 820.726 440.824 820.726 439.34V427.034H825.808V438.542C825.808 440.894 826.144 442.574 826.816 443.582C827.516 444.59 828.72 445.094 830.428 445.094C831.044 445.094 831.688 445.066 832.36 445.01C833.06 444.954 833.578 444.884 833.914 444.8V427.034H838.996V448.328ZM849.454 437.954C849.454 440.194 849.986 441.958 851.05 443.246C852.114 444.506 853.584 445.136 855.46 445.136C856.272 445.136 856.958 445.108 857.518 445.052C858.106 444.968 858.582 444.884 858.946 444.8V432.2C858.498 431.892 857.896 431.612 857.14 431.36C856.412 431.08 855.628 430.94 854.788 430.94C852.94 430.94 851.582 431.57 850.714 432.83C849.874 434.09 849.454 435.798 849.454 437.954ZM864.028 448.328C863.02 448.636 861.746 448.916 860.206 449.168C858.694 449.42 857.098 449.546 855.418 449.546C853.682 449.546 852.128 449.28 850.756 448.748C849.384 448.216 848.208 447.46 847.228 446.48C846.276 445.472 845.534 444.268 845.002 442.868C844.498 441.44 844.246 439.844 844.246 438.08C844.246 436.344 844.456 434.776 844.876 433.376C845.324 431.948 845.968 430.73 846.808 429.722C847.648 428.714 848.67 427.944 849.874 427.412C851.078 426.852 852.464 426.572 854.032 426.572C855.096 426.572 856.034 426.698 856.846 426.95C857.658 427.202 858.358 427.482 858.946 427.79V417.248L864.028 416.408V448.328ZM890.35 437.996C890.35 439.732 890.098 441.314 889.594 442.742C889.09 444.17 888.376 445.388 887.452 446.396C886.528 447.404 885.408 448.188 884.092 448.748C882.804 449.308 881.376 449.588 879.808 449.588C878.24 449.588 876.812 449.308 875.524 448.748C874.236 448.188 873.13 447.404 872.206 446.396C871.282 445.388 870.554 444.17 870.022 442.742C869.518 441.314 869.266 439.732 869.266 437.996C869.266 436.26 869.518 434.692 870.022 433.292C870.554 431.864 871.282 430.646 872.206 429.638C873.158 428.63 874.278 427.86 875.566 427.328C876.854 426.768 878.268 426.488 879.808 426.488C881.348 426.488 882.762 426.768 884.05 427.328C885.366 427.86 886.486 428.63 887.41 429.638C888.334 430.646 889.048 431.864 889.552 433.292C890.084 434.692 890.35 436.26 890.35 437.996ZM885.142 437.996C885.142 435.812 884.666 434.09 883.714 432.83C882.79 431.542 881.488 430.898 879.808 430.898C878.128 430.898 876.812 431.542 875.86 432.83C874.936 434.09 874.474 435.812 874.474 437.996C874.474 440.208 874.936 441.958 875.86 443.246C876.812 444.534 878.128 445.178 879.808 445.178C881.488 445.178 882.79 444.534 883.714 443.246C884.666 441.958 885.142 440.208 885.142 437.996ZM901.088 445.346C902.432 445.346 903.412 445.192 904.028 444.884C904.644 444.548 904.952 443.988 904.952 443.204C904.952 442.476 904.616 441.874 903.944 441.398C903.3 440.922 902.222 440.404 900.71 439.844C899.786 439.508 898.932 439.158 898.148 438.794C897.392 438.402 896.734 437.954 896.174 437.45C895.614 436.946 895.166 436.344 894.83 435.644C894.522 434.916 894.368 434.034 894.368 432.998C894.368 430.982 895.11 429.4 896.594 428.252C898.078 427.076 900.094 426.488 902.642 426.488C903.93 426.488 905.162 426.614 906.338 426.866C907.514 427.09 908.396 427.314 908.984 427.538L908.06 431.654C907.5 431.402 906.786 431.178 905.918 430.982C905.05 430.758 904.042 430.646 902.894 430.646C901.858 430.646 901.018 430.828 900.374 431.192C899.73 431.528 899.408 432.06 899.408 432.788C899.408 433.152 899.464 433.474 899.576 433.754C899.716 434.034 899.94 434.3 900.248 434.552C900.556 434.776 900.962 435.014 901.466 435.266C901.97 435.49 902.586 435.728 903.314 435.98C904.518 436.428 905.54 436.876 906.38 437.324C907.22 437.744 907.906 438.234 908.438 438.794C908.998 439.326 909.404 439.942 909.656 440.642C909.908 441.342 910.034 442.182 910.034 443.162C910.034 445.262 909.25 446.858 907.682 447.95C906.142 449.014 903.93 449.546 901.046 449.546C899.114 449.546 897.56 449.378 896.384 449.042C895.208 448.734 894.382 448.482 893.906 448.286L894.788 444.044C895.544 444.352 896.44 444.646 897.476 444.926C898.54 445.206 899.744 445.346 901.088 445.346ZM928.574 437.954C928.574 440.194 929.106 441.958 930.17 443.246C931.234 444.506 932.704 445.136 934.58 445.136C935.392 445.136 936.078 445.108 936.638 445.052C937.226 444.968 937.702 444.884 938.066 444.8V432.2C937.618 431.892 937.016 431.612 936.26 431.36C935.532 431.08 934.748 430.94 933.908 430.94C932.06 430.94 930.702 431.57 929.834 432.83C928.994 434.09 928.574 435.798 928.574 437.954ZM943.148 448.328C942.14 448.636 940.866 448.916 939.326 449.168C937.814 449.42 936.218 449.546 934.538 449.546C932.802 449.546 931.248 449.28 929.876 448.748C928.504 448.216 927.328 447.46 926.348 446.48C925.396 445.472 924.654 444.268 924.122 442.868C923.618 441.44 923.366 439.844 923.366 438.08C923.366 436.344 923.576 434.776 923.996 433.376C924.444 431.948 925.088 430.73 925.928 429.722C926.768 428.714 927.79 427.944 928.994 427.412C930.198 426.852 931.584 426.572 933.152 426.572C934.216 426.572 935.154 426.698 935.966 426.95C936.778 427.202 937.478 427.482 938.066 427.79V417.248L943.148 416.408V448.328ZM948.385 438.122C948.385 436.19 948.665 434.496 949.225 433.04C949.813 431.584 950.583 430.38 951.535 429.428C952.487 428.448 953.579 427.72 954.811 427.244C956.043 426.74 957.303 426.488 958.591 426.488C961.615 426.488 963.967 427.426 965.647 429.302C967.355 431.178 968.209 433.978 968.209 437.702C968.209 437.982 968.195 438.304 968.167 438.668C968.167 439.004 968.153 439.312 968.125 439.592H953.635C953.775 441.356 954.391 442.728 955.483 443.708C956.603 444.66 958.213 445.136 960.313 445.136C961.545 445.136 962.665 445.024 963.673 444.8C964.709 444.576 965.521 444.338 966.109 444.086L966.781 448.244C966.501 448.384 966.109 448.538 965.605 448.706C965.129 448.846 964.569 448.972 963.925 449.084C963.309 449.224 962.637 449.336 961.909 449.42C961.181 449.504 960.439 449.546 959.683 449.546C957.751 449.546 956.071 449.266 954.643 448.706C953.215 448.118 952.039 447.32 951.115 446.312C950.191 445.276 949.505 444.072 949.057 442.7C948.609 441.3 948.385 439.774 948.385 438.122ZM963.127 435.854C963.127 435.154 963.029 434.496 962.833 433.88C962.637 433.236 962.343 432.69 961.951 432.242C961.587 431.766 961.125 431.402 960.565 431.15C960.033 430.87 959.389 430.73 958.633 430.73C957.849 430.73 957.163 430.884 956.575 431.192C955.987 431.472 955.483 431.85 955.063 432.326C954.671 432.802 954.363 433.348 954.139 433.964C953.915 434.58 953.761 435.21 953.677 435.854H963.127ZM991.044 449.42C989.532 449.392 988.272 449.224 987.264 448.916C986.284 448.608 985.5 448.174 984.912 447.614C984.324 447.026 983.904 446.312 983.652 445.472C983.428 444.604 983.316 443.624 983.316 442.532V417.248L988.398 416.408V441.566C988.398 442.182 988.44 442.7 988.524 443.12C988.636 443.54 988.818 443.904 989.07 444.212C989.322 444.492 989.658 444.716 990.078 444.884C990.526 445.024 991.086 445.136 991.758 445.22L991.044 449.42ZM1000.99 449H995.911V427.034H1000.99V449ZM1001.54 420.608C1001.54 421.56 1001.23 422.316 1000.61 422.876C999.999 423.436 999.271 423.716 998.431 423.716C997.563 423.716 996.821 423.436 996.205 422.876C995.589 422.316 995.281 421.56 995.281 420.608C995.281 419.628 995.589 418.858 996.205 418.298C996.821 417.738 997.563 417.458 998.431 417.458C999.271 417.458 999.999 417.738 1000.61 418.298C1001.23 418.858 1001.54 419.628 1001.54 420.608ZM1007.48 427.748C1008.46 427.468 1009.73 427.202 1011.3 426.95C1012.87 426.698 1014.6 426.572 1016.51 426.572C1018.3 426.572 1019.8 426.824 1021 427.328C1022.2 427.804 1023.16 428.49 1023.86 429.386C1024.58 430.254 1025.09 431.318 1025.37 432.578C1025.68 433.81 1025.83 435.168 1025.83 436.652V449H1020.75V437.45C1020.75 436.274 1020.66 435.28 1020.5 434.468C1020.36 433.628 1020.1 432.956 1019.74 432.452C1019.4 431.92 1018.93 431.542 1018.31 431.318C1017.72 431.066 1017 430.94 1016.13 430.94C1015.48 430.94 1014.81 430.982 1014.11 431.066C1013.41 431.15 1012.89 431.22 1012.56 431.276V449H1007.48V427.748ZM1036.03 437.45C1036.03 439.606 1036.5 441.188 1037.42 442.196C1038.37 443.176 1039.59 443.666 1041.07 443.666C1041.89 443.666 1042.64 443.554 1043.34 443.33C1044.07 443.106 1044.66 442.84 1045.11 442.532V431.15C1044.74 431.066 1044.29 430.996 1043.76 430.94C1043.23 430.856 1042.56 430.814 1041.75 430.814C1039.9 430.814 1038.48 431.43 1037.5 432.662C1036.52 433.866 1036.03 435.462 1036.03 437.45ZM1050.19 446.774C1050.19 450.274 1049.29 452.836 1047.5 454.46C1045.74 456.084 1043.02 456.896 1039.35 456.896C1038.01 456.896 1036.69 456.784 1035.4 456.56C1034.14 456.336 1033 456.042 1031.96 455.678L1032.88 451.352C1033.75 451.716 1034.73 452.01 1035.82 452.234C1036.94 452.458 1038.15 452.57 1039.44 452.57C1041.48 452.57 1042.94 452.15 1043.8 451.31C1044.67 450.47 1045.11 449.224 1045.11 447.572V446.732C1044.6 446.984 1043.93 447.236 1043.09 447.488C1042.28 447.74 1041.34 447.866 1040.28 447.866C1038.88 447.866 1037.59 447.642 1036.41 447.194C1035.26 446.746 1034.27 446.088 1033.43 445.22C1032.62 444.352 1031.97 443.274 1031.5 441.986C1031.05 440.67 1030.83 439.158 1030.83 437.45C1030.83 435.854 1031.06 434.384 1031.54 433.04C1032.04 431.696 1032.76 430.548 1033.68 429.596C1034.63 428.644 1035.78 427.902 1037.13 427.37C1038.47 426.838 1040 426.572 1041.7 426.572C1043.36 426.572 1044.92 426.698 1046.41 426.95C1047.89 427.202 1049.15 427.468 1050.19 427.748V446.774ZM1074.67 448.328C1073.69 448.58 1072.42 448.832 1070.85 449.084C1069.28 449.364 1067.56 449.504 1065.68 449.504C1063.92 449.504 1062.44 449.252 1061.23 448.748C1060.06 448.244 1059.1 447.544 1058.38 446.648C1057.68 445.752 1057.17 444.688 1056.86 443.456C1056.56 442.196 1056.4 440.824 1056.4 439.34V427.034H1061.48V438.542C1061.48 440.894 1061.82 442.574 1062.49 443.582C1063.19 444.59 1064.4 445.094 1066.1 445.094C1066.72 445.094 1067.36 445.066 1068.04 445.01C1068.74 444.954 1069.25 444.884 1069.59 444.8V427.034L1074.67 427.034V448.328ZM1088.87 445.43C1090.44 445.43 1091.63 445.346 1092.44 445.178V439.55C1092.16 439.466 1091.75 439.382 1091.22 439.298C1090.69 439.214 1090.1 439.172 1089.46 439.172C1088.9 439.172 1088.32 439.214 1087.73 439.298C1087.17 439.382 1086.66 439.536 1086.18 439.76C1085.73 439.984 1085.37 440.306 1085.09 440.726C1084.81 441.118 1084.67 441.622 1084.67 442.238C1084.67 443.442 1085.05 444.282 1085.8 444.758C1086.56 445.206 1087.58 445.43 1088.87 445.43ZM1088.45 426.488C1090.13 426.488 1091.54 426.698 1092.69 427.118C1093.84 427.538 1094.75 428.126 1095.42 428.882C1096.12 429.638 1096.61 430.562 1096.89 431.654C1097.2 432.718 1097.35 433.894 1097.35 435.182V448.496C1096.57 448.664 1095.38 448.86 1093.78 449.084C1092.21 449.336 1090.44 449.462 1088.45 449.462C1087.13 449.462 1085.93 449.336 1084.84 449.084C1083.74 448.832 1082.81 448.426 1082.02 447.866C1081.27 447.306 1080.66 446.578 1080.22 445.682C1079.8 444.786 1079.59 443.68 1079.59 442.364C1079.59 441.104 1079.82 440.04 1080.3 439.172C1080.8 438.304 1081.48 437.604 1082.32 437.072C1083.16 436.512 1084.12 436.12 1085.21 435.896C1086.33 435.644 1087.5 435.518 1088.7 435.518C1089.26 435.518 1089.85 435.56 1090.46 435.644C1091.08 435.7 1091.74 435.812 1092.44 435.98V435.14C1092.44 434.552 1092.37 433.992 1092.23 433.46C1092.09 432.928 1091.84 432.466 1091.47 432.074C1091.14 431.654 1090.67 431.332 1090.09 431.108C1089.53 430.884 1088.81 430.772 1087.94 430.772C1086.77 430.772 1085.69 430.856 1084.71 431.024C1083.73 431.192 1082.93 431.388 1082.32 431.612L1081.69 427.496C1082.33 427.272 1083.27 427.048 1084.5 426.824C1085.73 426.6 1087.05 426.488 1088.45 426.488ZM1107.57 437.45C1107.57 439.606 1108.03 441.188 1108.95 442.196C1109.9 443.176 1111.12 443.666 1112.61 443.666C1113.42 443.666 1114.17 443.554 1114.87 443.33C1115.6 443.106 1116.19 442.84 1116.64 442.532V431.15C1116.27 431.066 1115.83 430.996 1115.29 430.94C1114.76 430.856 1114.09 430.814 1113.28 430.814C1111.43 430.814 1110.02 431.43 1109.04 432.662C1108.06 433.866 1107.57 435.462 1107.57 437.45ZM1121.72 446.774C1121.72 450.274 1120.82 452.836 1119.03 454.46C1117.27 456.084 1114.55 456.896 1110.88 456.896C1109.54 456.896 1108.22 456.784 1106.94 456.56C1105.68 456.336 1104.53 456.042 1103.49 455.678L1104.42 451.352C1105.28 451.716 1106.26 452.01 1107.36 452.234C1108.48 452.458 1109.68 452.57 1110.97 452.57C1113.01 452.57 1114.47 452.15 1115.34 451.31C1116.2 450.47 1116.64 449.224 1116.64 447.572V446.732C1116.13 446.984 1115.46 447.236 1114.62 447.488C1113.81 447.74 1112.87 447.866 1111.81 447.866C1110.41 447.866 1109.12 447.642 1107.94 447.194C1106.8 446.746 1105.8 446.088 1104.96 445.22C1104.15 444.352 1103.51 443.274 1103.03 441.986C1102.58 440.67 1102.36 439.158 1102.36 437.45C1102.36 435.854 1102.6 434.384 1103.07 433.04C1103.58 431.696 1104.29 430.548 1105.21 429.596C1106.17 428.644 1107.31 427.902 1108.66 427.37C1110 426.838 1111.53 426.572 1113.24 426.572C1114.89 426.572 1116.46 426.698 1117.94 426.95C1119.42 427.202 1120.68 427.468 1121.72 427.748V446.774ZM1126.97 438.122C1126.97 436.19 1127.25 434.496 1127.81 433.04C1128.4 431.584 1129.17 430.38 1130.12 429.428C1131.07 428.448 1132.16 427.72 1133.39 427.244C1134.63 426.74 1135.89 426.488 1137.17 426.488C1140.2 426.488 1142.55 427.426 1144.23 429.302C1145.94 431.178 1146.79 433.978 1146.79 437.702C1146.79 437.982 1146.78 438.304 1146.75 438.668C1146.75 439.004 1146.74 439.312 1146.71 439.592L1132.22 439.592C1132.36 441.356 1132.97 442.728 1134.07 443.708C1135.19 444.66 1136.8 445.136 1138.9 445.136C1140.13 445.136 1141.25 445.024 1142.26 444.8C1143.29 444.576 1144.1 444.338 1144.69 444.086L1145.36 448.244C1145.08 448.384 1144.69 448.538 1144.19 448.706C1143.71 448.846 1143.15 448.972 1142.51 449.084C1141.89 449.224 1141.22 449.336 1140.49 449.42C1139.76 449.504 1139.02 449.546 1138.27 449.546C1136.33 449.546 1134.65 449.266 1133.23 448.706C1131.8 448.118 1130.62 447.32 1129.7 446.312C1128.77 445.276 1128.09 444.072 1127.64 442.7C1127.19 441.3 1126.97 439.774 1126.97 438.122ZM1141.71 435.854C1141.71 435.154 1141.61 434.496 1141.42 433.88C1141.22 433.236 1140.93 432.69 1140.53 432.242C1140.17 431.766 1139.71 431.402 1139.15 431.15C1138.62 430.87 1137.97 430.73 1137.22 430.73C1136.43 430.73 1135.75 430.884 1135.16 431.192C1134.57 431.472 1134.07 431.85 1133.65 432.326C1133.25 432.802 1132.95 433.348 1132.72 433.964C1132.5 434.58 1132.34 435.21 1132.26 435.854L1141.71 435.854ZM1164.7 437.45C1164.7 435.154 1164.4 433.502 1163.81 432.494C1163.25 431.458 1162.19 430.94 1160.62 430.94C1160.06 430.94 1159.45 430.982 1158.77 431.066C1158.1 431.15 1157.6 431.22 1157.26 431.276V449H1152.18V427.748C1153.16 427.468 1154.43 427.202 1156 426.95C1157.6 426.698 1159.28 426.572 1161.04 426.572C1162.55 426.572 1163.79 426.768 1164.74 427.16C1165.72 427.552 1166.53 428.07 1167.17 428.714C1167.48 428.49 1167.87 428.252 1168.35 428C1168.83 427.748 1169.36 427.524 1169.95 427.328C1170.53 427.104 1171.15 426.922 1171.79 426.782C1172.47 426.642 1173.14 426.572 1173.81 426.572C1175.52 426.572 1176.92 426.824 1178.01 427.328C1179.13 427.804 1180 428.49 1180.61 429.386C1181.26 430.254 1181.69 431.318 1181.92 432.578C1182.17 433.81 1182.29 435.168 1182.29 436.652V449H1177.21V437.45C1177.21 435.154 1176.93 433.502 1176.37 432.494C1175.81 431.458 1174.73 430.94 1173.14 430.94C1172.33 430.94 1171.56 431.08 1170.83 431.36C1170.1 431.612 1169.55 431.864 1169.19 432.116C1169.41 432.816 1169.57 433.558 1169.65 434.342C1169.74 435.126 1169.78 435.966 1169.78 436.862V449H1164.7V437.45Z" fill="white"/>
<path d="M641 357L721 437L641 517L561 437L641 357Z" fill="white" fill-opacity="0.4"/>
</svg>
