<svg width="6413" height="1397" viewBox="0 0 6413 1397" fill="none" xmlns="http://www.w3.org/2000/svg">
<rect width="4820" height="630" fill="#734E65"/>
<rect x="2762" y="475" width="2773" height="548" fill="#734E65"/>
<rect x="645" y="859" width="5768" height="538" fill="#734E65"/>
<path d="M247.545 184.273H302.091V238.818H247.545V184.273ZM247.545 293.364H302.091V238.818H356.636V457H302.091V347.909H247.545V457H193V238.818H247.545V293.364ZM410.969 402.455H520.06V347.909H410.969V184.273H574.605V238.818H465.514V293.364H574.605V457H410.969V402.455ZM846.96 402.455H901.505V457H792.414V184.273H901.505V238.818H846.96V402.455ZM901.505 238.818H956.05V402.455H901.505V238.818ZM1010.38 184.273H1064.93V457H1010.38V184.273ZM1173.91 293.364H1228.46V347.909H1173.91V457H1119.37V184.273H1283V238.818H1173.91V293.364ZM1391.88 402.455H1500.97V457H1337.34V184.273H1500.97V238.818H1391.88V293.364H1446.43V347.909H1391.88V402.455ZM1664.4 347.909H1609.85V457H1555.3V184.273H1718.94V293.364H1664.4V238.818H1609.85V293.364H1664.4V347.909ZM1664.4 347.909H1718.94V457H1664.4V347.909ZM1827.82 402.455H1936.91V457H1773.27V184.273H1936.91V238.818H1827.82V293.364H1882.36V347.909H1827.82V402.455ZM2100.33 238.818H2045.79V457H1991.24V184.273H2100.33V238.818ZM2100.33 238.818H2154.88V457H2100.33V238.818ZM2263.76 238.818H2209.21V184.273H2372.85V238.818H2318.3V457H2263.76V238.818ZM2481.73 402.455H2590.82V457H2427.18V184.273H2590.82V238.818H2481.73V293.364H2536.27V347.909H2481.73V402.455ZM2645.15 402.455H2754.24V347.909H2645.15V184.273H2808.78V238.818H2699.69V293.364H2808.78V457H2645.15V402.455ZM3081.14 402.455H3135.68V457H3026.59V184.273H3135.68V238.818H3081.14V402.455ZM3244.62 402.455H3299.16V184.273H3353.71V457H3190.07V184.273H3244.62V402.455ZM3462.58 402.455H3517.13V457H3408.04V184.273H3462.58V402.455ZM3626.06 238.818H3571.52V184.273H3735.15V238.818H3680.61V457H3626.06V238.818ZM3844.03 402.455H3898.58V184.273H3953.12V457H3789.48V184.273H3844.03V402.455ZM4116.54 347.909H4062V457H4007.45V184.273H4171.09V293.364H4116.54V238.818H4062V293.364H4116.54V347.909ZM4116.54 347.909H4171.09V457H4116.54V347.909ZM4279.97 184.273H4334.51V238.818H4279.97V184.273ZM4279.97 293.364H4334.51V238.818H4389.06V457H4334.51V347.909H4279.97V457H4225.42V238.818H4279.97V293.364ZM4443.39 402.455H4552.48V347.909H4443.39V184.273H4607.03V238.818H4497.94V293.364H4607.03V457H4443.39V402.455ZM3026.65 802.455H3135.74V857H2972.1V584.273H3135.74V638.818H3026.65V693.364H3081.19V747.909H3026.65V802.455ZM3408.09 802.455H3462.64V857H3353.55V584.273H3408.09V802.455ZM3517.02 584.273H3571.57V857H3517.02V584.273ZM3735.1 638.818H3680.55V857H3626.01V584.273H3735.1V638.818ZM3735.1 638.818H3789.64V857H3735.1V638.818ZM3898.52 802.455H3953.07V857H3843.98V584.273H4007.61V638.818H3898.52V802.455ZM3953.07 693.364H4007.61V802.455H3953.07V693.364ZM4116.49 802.455H4171.04V584.273H4225.58V857H4061.95V584.273H4116.49V802.455ZM4334.46 584.273H4389V638.818H4334.46V584.273ZM4334.46 693.364H4389V638.818H4443.55V857H4389V747.909H4334.46V857H4279.91V638.818H4334.46V693.364ZM4552.43 802.455H4606.97V857H4497.88V584.273H4661.52V638.818H4552.43V802.455ZM4606.97 693.364H4661.52V802.455H4606.97V693.364ZM4770.4 802.455H4879.49V857H4715.85V584.273H4879.49V638.818H4770.4V693.364H4824.94V747.909H4770.4V802.455ZM5042.91 638.818H4988.37V857H4933.82V584.273H5042.91V638.818ZM5042.91 638.818H5097.46V857H5042.91V638.818ZM5151.79 802.455H5260.88V747.909H5151.79V584.273H5315.43V638.818H5206.33V693.364H5315.43V857H5151.79V802.455ZM955.997 1038.82H901.452V1257H846.906V984.273H955.997V1038.82ZM955.997 1038.82H1010.54V1257H955.997V1038.82ZM1119.42 984.273H1173.97V1038.82H1119.42V984.273ZM1119.42 1093.36H1173.97V1038.82H1228.51V1257H1173.97V1147.91H1119.42V1257H1064.88V1038.82H1119.42V1093.36ZM1282.84 1202.45H1391.93V1147.91H1282.84V984.273H1446.48V1038.82H1337.39V1093.36H1446.48V1257H1282.84V1202.45ZM1664.29 984.273H1827.93V1147.91H1718.83V1257H1664.29V984.273ZM1718.83 1093.36H1773.38V1038.82H1718.83V1093.36ZM1991.35 1038.82H1936.8V1202.45H1991.35V1038.82ZM1882.26 984.273H2045.89V1257H1882.26V984.273ZM2154.77 820.636H2209.32V875.182H2154.77V820.636ZM2100.23 875.182H2154.77V929.727H2100.23V875.182ZM2154.77 1202.45H2263.86V1257H2100.23V984.273H2263.86V1038.82H2154.77V1093.36H2209.32V1147.91H2154.77V1202.45ZM2372.74 1038.82H2318.2V984.273H2481.83V1038.82H2427.29V1257H2372.74V1038.82ZM2536.16 984.273H2590.71V1257H2536.16V984.273ZM2699.69 1202.45H2754.24V1257H2645.15V984.273H2754.24V1038.82H2699.69V1202.45ZM2863.17 984.273H2917.72V1038.82H2863.17V984.273ZM2863.17 1093.36H2917.72V1038.82H2972.26V1257H2917.72V1147.91H2863.17V1257H2808.62V1038.82H2863.17V1093.36ZM3026.59 1202.45H3135.68V1147.91H3026.59V984.273H3190.23V1038.82H3081.14V1093.36H3190.23V1257H3026.59V1202.45ZM3462.58 1202.45H3517.13V1257H3408.04V984.273H3517.13V1038.82H3462.58V1202.45ZM3680.61 1038.82H3626.06V1202.45H3680.61V1038.82ZM3571.52 984.273H3735.15V1257H3571.52V984.273ZM3953.12 984.273H4007.67V1038.82H3953.12V984.273ZM3789.48 984.273H3898.58V1038.82H3844.03V1257H3789.48V984.273ZM3953.12 1257H3898.58V1038.82H3953.12V1257ZM4007.67 1038.82H4062.21V1257H4007.67V1038.82ZM4117.02 984.273H4280.66V1147.91H4171.57V1257H4117.02V984.273ZM4171.57 1093.36H4226.11V1038.82H4171.57V1093.36ZM4389.54 1202.45H4444.08V984.273H4498.63V1257H4334.99V984.273H4389.54V1202.45ZM4607.51 1038.82H4552.96V984.273H4716.6V1038.82H4662.05V1257H4607.51V1038.82ZM4825.48 984.273H4880.02V1038.82H4825.48V984.273ZM4825.48 1093.36H4880.02V1038.82H4934.57V1257H4880.02V1147.91H4825.48V1257H4770.93V1038.82H4825.48V1093.36ZM5043.44 1202.45H5097.99V1257H4988.9V984.273H5097.99V1038.82H5043.44V1202.45ZM5152.38 984.273H5206.92V1257H5152.38V984.273ZM5370.45 1038.82H5315.9V1202.45H5370.45V1038.82ZM5261.36 984.273H5425V1257H5261.36V984.273ZM5588.42 1038.82H5533.87V1257H5479.33V984.273H5588.42V1038.82ZM5588.42 1038.82H5642.96V1257H5588.42V1038.82ZM5751.84 984.273H5806.39V1038.82H5751.84V984.273ZM5751.84 1093.36H5806.39V1038.82H5860.93V1257H5806.39V1147.91H5751.84V1257H5697.3V1038.82H5751.84V1093.36ZM5915.27 984.273H5969.81V1257H5915.27V984.273ZM6024.25 1202.45H6133.34V1147.91H6024.25V984.273H6187.89V1038.82H6078.8V1093.36H6187.89V1257H6024.25V1202.45Z" fill="#FF6200"/>
</svg>
