<svg width="5695" height="1530" viewBox="0 0 5695 1530" fill="none" xmlns="http://www.w3.org/2000/svg">
<g clip-path="url(#clip0_895_264)">
<rect width="1831" height="521" fill="#616161"/>
<path d="M220.273 312.727H247.545V340H193V203.636H247.545V230.909H220.273V312.727ZM302.011 312.727H329.284V203.636H356.556V340H274.738V203.636H302.011V312.727ZM410.995 312.727H438.268V340H383.723V203.636H410.995V312.727ZM492.734 230.909H465.461V203.636H547.279V230.909H520.006V340H492.734V230.909ZM601.718 312.727H628.991V203.636H656.263V340H574.445V203.636H601.718V312.727ZM737.975 285.455H710.702V340H683.43V203.636H765.248V258.182H737.975V230.909H710.702V258.182H737.975V285.455ZM737.975 285.455H765.248V340H737.975V285.455ZM819.687 203.636H846.96V230.909H819.687V203.636ZM819.687 258.182H846.96V230.909H874.232V340H846.96V285.455H819.687V340H792.414V230.909H819.687V258.182ZM983.137 203.636H1010.41V312.727H983.137V203.636ZM1037.68 203.636H1064.95V312.727H1037.68V203.636ZM1010.41 312.727H1037.68V340H1010.41V312.727ZM1092.12 203.636H1119.39V340H1092.12V203.636ZM1146.61 312.727H1201.16V285.455H1146.61V203.636H1228.43V230.909H1173.89V258.182H1228.43V340H1146.61V312.727ZM1282.87 312.727H1310.14V203.636H1337.42V340H1255.6V203.636H1282.87V312.727ZM1391.85 203.636H1419.13V230.909H1391.85V203.636ZM1391.85 258.182H1419.13V230.909H1446.4V340H1419.13V285.455H1391.85V340H1364.58V230.909H1391.85V258.182ZM1500.84 312.727H1528.11V340H1473.57V203.636H1500.84V312.727Z" fill="#F65701"/>
<rect y="552" width="3913" height="630" fill="#F65701"/>
<rect x="554" y="1027" width="5141" height="503" fill="#F65701"/>
<path d="M247.545 954.455H356.636V1009H193V736.273H356.636V790.818H247.545V845.364H302.091V899.909H247.545V954.455ZM410.969 954.455H520.06V899.909H410.969V736.273H574.605V790.818H465.514V845.364H574.605V1009H410.969V954.455ZM683.483 790.818H628.938V736.273H792.574V790.818H738.028V1009H683.483V790.818ZM846.906 736.273H901.452V1009H846.906V736.273ZM1010.44 954.455H1064.98V1009H955.891V736.273H1010.44V954.455ZM1228.46 790.818H1173.91V954.455H1228.46V790.818ZM1119.37 736.273H1283V1009H1119.37V736.273ZM1337.34 954.455H1446.43V899.909H1337.34V736.273H1500.97V790.818H1391.88V845.364H1500.97V1009H1337.34V954.455ZM1555.3 954.455H1609.85V1063.55H1555.3V954.455ZM1991.4 736.273H2045.95V790.818H1991.4V736.273ZM1827.77 736.273H1936.86V790.818H1882.31V1009H1827.77V736.273ZM1991.4 1009H1936.86V790.818H1991.4V1009ZM2045.95 790.818H2100.49V1009H2045.95V790.818ZM2264.4 790.818H2209.85V954.455H2264.4V790.818ZM2155.3 736.273H2318.94V1009H2155.3V736.273ZM2427.82 954.455H2482.36V1009H2373.27V736.273H2482.36V790.818H2427.82V954.455ZM2482.36 790.818H2536.91V954.455H2482.36V790.818ZM2591.24 736.273H2645.79V1009H2591.24V736.273ZM2700.23 954.455H2809.32V899.909H2700.23V736.273H2863.86V790.818H2754.77V845.364H2863.86V1009H2700.23V954.455ZM3081.83 736.273H3136.38V790.818H3081.83V736.273ZM2918.2 736.273H3027.29V790.818H2972.74V1009H2918.2V736.273ZM3081.83 1009H3027.29V790.818H3081.83V1009ZM3136.38 790.818H3190.92V1009H3136.38V790.818ZM3354.83 790.818H3300.28V954.455H3354.83V790.818ZM3245.73 736.273H3409.37V1009H3245.73V736.273ZM3463.7 954.455H3572.79V899.909H3463.7V736.273H3627.34V790.818H3518.25V845.364H3627.34V1009H3463.7V954.455ZM901.452 1354.45H1010.54V1409H846.906V1136.27H1010.54V1190.82H901.452V1245.36H955.997V1299.91H901.452V1354.45ZM1391.99 1136.27H1446.53V1190.82H1391.99V1136.27ZM1228.35 1136.27H1337.44V1190.82H1282.9V1409H1228.35V1136.27ZM1391.99 1409H1337.44V1190.82H1391.99V1409ZM1446.53 1190.82H1501.08V1409H1446.53V1190.82ZM1610.44 1136.27H1664.98V1190.82H1610.44V1136.27ZM1610.44 1245.36H1664.98V1190.82H1719.53V1409H1664.98V1299.91H1610.44V1409H1555.89V1190.82H1610.44V1245.36ZM1882.95 1190.82H1828.4V1409H1773.86V1136.27H1882.95V1190.82ZM1882.95 1190.82H1937.5V1409H1882.95V1190.82ZM2046.37 1354.45H2155.46V1409H1991.83V1136.27H2155.46V1190.82H2046.37V1245.36H2100.92V1299.91H2046.37V1354.45ZM2209.8 1136.27H2264.34V1409H2209.8V1136.27ZM2427.87 1299.91H2373.33V1409H2318.78V1136.27H2482.42V1245.36H2427.87V1190.82H2373.33V1245.36H2427.87V1299.91ZM2427.87 1299.91H2482.42V1409H2427.87V1299.91ZM2536.75 1136.27H2591.3V1409H2536.75V1136.27ZM2645.73 1354.45H2754.83V1299.91H2645.73V1136.27H2809.37V1190.82H2700.28V1245.36H2809.37V1409H2645.73V1354.45ZM3027.34 1136.27H3081.88V1190.82H3027.34V1136.27ZM2863.7 1136.27H2972.79V1190.82H2918.25V1409H2863.7V1136.27ZM3027.34 1409H2972.79V1190.82H3027.34V1409ZM3081.88 1190.82H3136.43V1409H3081.88V1190.82ZM3300.33 1190.82H3245.79V1354.45H3300.33V1190.82ZM3191.24 1136.27H3354.88V1409H3191.24V1136.27ZM3409.21 1354.45H3518.3V1299.91H3409.21V1136.27H3572.85V1190.82H3463.76V1245.36H3572.85V1409H3409.21V1354.45ZM3845.2 1354.45H3899.75V1409H3790.66V1136.27H3954.29V1190.82H3845.2V1354.45ZM3899.75 1245.36H3954.29V1354.45H3899.75V1245.36ZM4117.72 1299.91H4063.17V1409H4008.62V1136.27H4172.26V1245.36H4117.72V1190.82H4063.17V1245.36H4117.72V1299.91ZM4117.72 1299.91H4172.26V1409H4117.72V1299.91ZM4335.68 972.636H4390.23V1027.18H4335.68V972.636ZM4281.14 1027.18H4335.68V1081.73H4281.14V1027.18ZM4281.14 1136.27H4335.68V1190.82H4281.14V1136.27ZM4281.14 1245.36H4335.68V1190.82H4390.23V1409H4335.68V1299.91H4281.14V1409H4226.59V1190.82H4281.14V1245.36ZM4499.11 1245.36H4553.65V1299.91H4499.11V1409H4444.56V1136.27H4608.2V1190.82H4499.11V1245.36ZM4662.53 1136.27H4717.08V1409H4662.53V1136.27ZM4826.06 1354.45H4880.61V1409H4771.52V1136.27H4880.61V1190.82H4826.06V1354.45ZM5044.08 1190.82H4989.54V1354.45H5044.08V1190.82ZM4934.99 1136.27H5098.63V1409H4934.99V1136.27ZM5152.96 1354.45H5262.05V1299.91H5152.96V1136.27H5316.6V1190.82H5207.51V1245.36H5316.6V1409H5152.96V1354.45Z" fill="#966060"/>
</g>
<defs>
<clipPath id="clip0_895_264">
<rect width="5695" height="1530" fill="white"/>
</clipPath>
</defs>
</svg>
