<svg width="1863" height="964" viewBox="0 0 1863 964" fill="none" xmlns="http://www.w3.org/2000/svg">
<path d="M266.703 478.984C262.797 463.359 259.932 446.823 258.109 429.375C256.547 411.667 255.505 395.13 254.984 379.766C252.641 381.068 250.688 383.151 249.125 386.016C247.562 388.62 246.13 391.484 244.828 394.609C243.786 397.474 242.615 400.469 241.312 403.594C240.01 406.458 238.448 408.932 236.625 411.016C230.635 417.786 224.125 424.036 217.094 429.766C210.062 435.234 201.729 437.969 192.094 437.969C184.281 437.969 176.469 436.276 168.656 432.891C161.104 429.505 154.203 425.078 147.953 419.609C141.964 413.88 137.016 407.37 133.109 400.078C129.464 392.786 127.641 385.104 127.641 377.031C127.641 365.833 129.464 354.505 133.109 343.047C136.755 331.328 141.182 320.521 146.391 310.625C147.432 308.802 148.995 306.198 151.078 302.812C153.422 299.167 155.766 295.521 158.109 291.875C160.714 288.229 163.057 284.974 165.141 282.109C167.224 278.984 168.656 277.031 169.438 276.25L212.016 231.328C217.745 225.339 224.906 221.042 233.5 218.438C242.354 215.573 250.557 213.88 258.109 213.359C262.016 212.839 265.271 213.49 267.875 215.312C270.479 216.875 271.781 219.609 271.781 223.516C271.781 226.641 270.479 229.115 267.875 230.938C265.531 232.5 262.667 233.802 259.281 234.844C255.896 235.885 252.38 236.927 248.734 237.969C245.089 238.75 242.224 239.792 240.141 241.094C226.339 252.292 213.839 264.922 202.641 278.984C191.443 292.786 181.417 307.24 172.562 322.344C169.698 331.458 166.703 340.182 163.578 348.516C160.453 356.849 158.891 365.964 158.891 375.859C158.891 376.641 158.891 378.464 158.891 381.328C159.151 383.932 159.281 385.625 159.281 386.406C161.885 392.656 165.792 398.385 171 403.594C176.469 408.802 182.849 411.406 190.141 411.406C193.786 411.406 197.562 410.234 201.469 407.891C205.375 405.547 208.37 402.682 210.453 399.297C211.495 397.995 213.318 395.391 215.922 391.484C218.526 387.578 221.13 383.411 223.734 378.984C226.599 374.557 229.203 370.391 231.547 366.484C234.151 362.578 235.844 359.844 236.625 358.281C237.406 356.719 238.448 354.766 239.75 352.422C241.312 349.818 242.615 347.344 243.656 345C244.958 342.656 246 340.573 246.781 338.75C247.823 336.667 248.344 335.495 248.344 335.234V333.672C244.698 334.714 241.052 335.625 237.406 336.406C233.76 336.927 229.984 337.188 226.078 337.188C223.734 337.188 221.13 337.057 218.266 336.797C215.661 336.276 213.057 335.495 210.453 334.453C208.109 333.411 206.026 331.979 204.203 330.156C202.641 328.333 201.859 325.859 201.859 322.734C201.859 321.432 201.99 319.87 202.25 318.047C202.51 316.224 203.031 314.792 203.812 313.75C205.896 311.927 208.63 310.625 212.016 309.844C215.661 308.802 219.438 308.151 223.344 307.891C227.51 307.37 231.547 306.979 235.453 306.719C239.62 306.198 243.396 305.286 246.781 303.984C249.646 302.943 253.031 301.641 256.938 300.078C260.844 298.255 264.88 296.562 269.047 295C273.474 293.177 277.901 291.615 282.328 290.312C286.755 289.01 290.792 288.099 294.438 287.578C295.219 287.578 296.26 287.839 297.562 288.359C299.125 288.88 300.688 289.531 302.25 290.312C303.812 291.094 305.115 292.005 306.156 293.047C307.198 293.828 307.719 294.609 307.719 295.391C307.719 301.12 306.156 305.156 303.031 307.5C299.906 309.583 295.87 312.188 290.922 315.312C291.703 325.729 291.312 336.146 289.75 346.562C288.448 356.979 287.797 367.396 287.797 377.812C287.797 390.312 288.057 403.073 288.578 416.094C289.099 429.115 290.401 441.745 292.484 453.984C292.745 454.505 293.135 455.807 293.656 457.891C294.177 460.234 294.698 462.578 295.219 464.922C296 467.266 296.651 469.479 297.172 471.562C297.693 473.646 297.953 474.948 297.953 475.469V476.25C297.953 479.896 296.521 483.411 293.656 486.797C291.052 490.443 287.927 492.266 284.281 492.266C280.375 492.266 276.599 490.964 272.953 488.359C269.568 485.755 267.484 482.63 266.703 478.984ZM402.641 407.891C400.818 411.797 398.995 416.094 397.172 420.781C395.349 425.208 393.266 429.245 390.922 432.891C388.578 436.536 385.714 439.661 382.328 442.266C378.943 444.609 374.646 445.781 369.438 445.781C360.323 445.781 352.771 443.568 346.781 439.141C340.792 434.453 335.844 428.724 331.938 421.953C328.292 414.922 325.688 407.37 324.125 399.297C322.562 391.224 321.781 383.672 321.781 376.641L324.906 282.109C324.646 280.286 325.036 278.464 326.078 276.641C327.38 274.557 328.943 272.734 330.766 271.172C332.849 269.349 335.062 267.917 337.406 266.875C340.01 265.833 342.354 265.312 344.438 265.312C350.427 265.312 355.505 267.266 359.672 271.172C363.839 274.818 365.922 279.635 365.922 285.625V289.531C363.057 294.219 360.583 300.339 358.5 307.891C356.417 315.443 354.724 323.646 353.422 332.5C352.38 341.094 351.729 349.948 351.469 359.062C351.208 368.177 351.469 376.51 352.25 384.062C353.292 391.615 354.854 398.125 356.938 403.594C359.021 408.802 361.755 411.927 365.141 412.969C366.443 412.969 368.396 412.318 371 411.016C373.865 409.714 376.859 407.24 379.984 403.594C383.109 399.948 386.365 394.87 389.75 388.359C393.135 381.589 396.13 372.734 398.734 361.797C401.339 350.859 403.292 337.578 404.594 321.953C405.896 306.328 406.286 287.578 405.766 265.703C406.807 262.839 408.24 261.276 410.062 261.016C412.146 260.755 414.229 260.625 416.312 260.625C418.656 260.625 420.609 260.755 422.172 261.016C423.734 261.016 425.427 261.927 427.25 263.75C428.552 265.052 429.984 267.005 431.547 269.609C433.109 272.214 433.891 273.646 433.891 273.906L440.531 446.953C440.531 450.859 439.49 454.115 437.406 456.719C435.323 459.323 432.328 460.625 428.422 460.625C427.12 460.625 425.557 460.495 423.734 460.234C421.911 459.974 420.089 459.453 418.266 458.672C416.443 457.891 414.75 456.849 413.188 455.547C411.885 454.505 411.104 453.203 410.844 451.641L404.203 412.578L402.641 407.891ZM480.375 430.156C477.771 404.115 475.557 381.849 473.734 363.359C471.911 344.87 470.349 329.375 469.047 316.875C467.745 304.375 466.573 294.479 465.531 287.188C464.75 279.635 464.099 274.036 463.578 270.391C463.057 266.484 462.667 263.88 462.406 262.578C462.146 261.276 462.016 260.495 462.016 260.234V258.672C462.016 255.807 463.188 253.464 465.531 251.641C468.135 249.557 470.74 248.516 473.344 248.516C477.25 248.516 481.417 249.167 485.844 250.469C490.531 251.771 493.656 254.505 495.219 258.672C497.562 271.432 499.125 284.323 499.906 297.344C500.948 310.365 501.729 323.385 502.25 336.406C503.031 349.167 503.943 362.057 504.984 375.078C506.286 388.099 508.5 400.99 511.625 413.75C511.625 414.271 511.755 415.312 512.016 416.875C512.536 418.438 512.927 420.13 513.188 421.953C513.708 423.776 514.099 425.469 514.359 427.031C514.62 428.594 514.75 429.635 514.75 430.156V430.938C514.75 431.198 514.88 431.458 515.141 431.719C515.141 434.844 513.708 437.969 510.844 441.094C507.979 444.219 504.984 445.521 501.859 445C501.078 444.74 499.125 444.349 496 443.828C493.135 443.047 491.182 442.396 490.141 441.875C489.359 441.615 488.318 441.094 487.016 440.312C485.714 439.271 484.411 438.229 483.109 437.188C482.068 436.146 481.156 434.974 480.375 433.672C479.594 432.37 479.594 431.198 480.375 430.156ZM458.5 145.391C458.5 143.568 459.932 142.005 462.797 140.703C465.922 139.141 468.266 138.359 469.828 138.359C473.734 138.359 478.031 139.531 482.719 141.875C487.667 143.958 490.141 147.214 490.141 151.641C490.141 156.068 489.49 159.062 488.188 160.625C487.146 162.188 484.411 162.969 479.984 162.969C475.297 162.969 470.479 161.406 465.531 158.281C460.844 155.156 458.5 150.859 458.5 145.391ZM532.719 417.656C532.719 406.719 532.979 396.042 533.5 385.625C534.021 375.208 534.281 364.531 534.281 353.594C533.5 323.906 533.24 294.87 533.5 266.484C533.76 237.839 532.458 208.542 529.594 178.594C529.594 173.646 530.766 170.391 533.109 168.828C535.453 167.005 538.969 166.094 543.656 166.094C549.646 166.094 554.724 167.917 558.891 171.562C563.318 174.948 565.661 179.766 565.922 186.016C565.401 222.995 565.792 259.714 567.094 296.172C568.656 332.37 569.438 369.089 569.438 406.328V436.406C567.875 438.49 565.661 440.573 562.797 442.656C559.932 444.74 557.068 445.521 554.203 445C546.651 443.698 541.182 440.703 537.797 436.016C534.411 431.068 532.719 424.948 532.719 417.656ZM595.219 253.984C595.74 238.359 595.089 222.734 593.266 207.109C591.443 191.484 590.531 175.99 590.531 160.625C590.531 155.677 591.964 152.682 594.828 151.641C597.693 150.339 600.948 149.688 604.594 149.688C609.802 149.688 614.099 151.12 617.484 153.984C620.87 156.849 622.823 160.885 623.344 166.094C625.688 194.479 626.99 222.604 627.25 250.469C627.771 278.073 629.724 306.068 633.109 334.453C640.922 319.609 648.995 307.37 657.328 297.734C665.661 288.099 673.604 281.719 681.156 278.594C688.969 275.469 696 276.12 702.25 280.547C708.76 284.714 713.969 293.177 717.875 305.938C721.781 318.438 724.125 335.625 724.906 357.5C725.688 379.115 724.385 406.068 721 438.359C719.177 438.359 716.964 438.49 714.359 438.75C711.755 438.75 709.151 438.62 706.547 438.359C704.203 438.099 702.12 437.578 700.297 436.797C698.474 436.016 697.432 434.583 697.172 432.5C699.255 412.969 700.427 396.562 700.688 383.281C700.948 370 700.557 359.062 699.516 350.469C698.474 341.875 697.042 335.365 695.219 330.938C693.396 326.25 691.443 322.865 689.359 320.781C687.276 318.698 685.193 317.656 683.109 317.656C681.286 317.396 679.854 317.396 678.812 317.656C673.083 319.74 667.615 324.818 662.406 332.891C657.458 340.964 653.161 350.339 649.516 361.016C645.87 371.693 643.135 383.021 641.312 395C639.75 406.719 639.359 417.266 640.141 426.641C639.88 428.724 639.62 430.807 639.359 432.891C639.099 434.974 638.578 436.927 637.797 438.75C637.276 440.573 636.234 442.135 634.672 443.438C633.37 444.479 631.286 445 628.422 445C622.953 445 618.526 444.089 615.141 442.266C612.016 440.182 609.542 437.578 607.719 434.453C606.156 431.328 605.115 427.682 604.594 423.516C604.333 419.349 604.464 415.052 604.984 410.625L595.219 253.984ZM904.203 334.062C903.682 338.75 903.031 342.396 902.25 345C901.729 347.604 900.688 349.948 899.125 352.031C897.562 354.115 895.349 356.328 892.484 358.672C889.62 360.755 885.714 363.88 880.766 368.047C875.818 371.953 869.698 377.161 862.406 383.672C855.115 390.182 846.26 398.646 835.844 409.062C831.677 412.969 827.38 417.005 822.953 421.172C818.526 425.339 813.839 429.115 808.891 432.5C804.203 435.625 799.255 438.229 794.047 440.312C788.839 442.396 783.37 443.438 777.641 443.438C766.443 443.438 758.24 439.661 753.031 432.109C747.823 424.557 745.219 415.833 745.219 405.938C745.219 399.427 745.349 393.958 745.609 389.531C746.13 385.104 747.172 379.375 748.734 372.344C745.87 369.74 743.396 367.526 741.312 365.703C739.229 363.62 738.188 360.885 738.188 357.5C738.188 354.375 738.839 352.292 740.141 351.25C741.703 350.208 743.396 349.557 745.219 349.297C747.302 348.776 749.255 348.255 751.078 347.734C752.901 347.214 754.203 346.172 754.984 344.609C755.505 343.047 756.417 340.182 757.719 336.016C759.281 331.849 760.844 327.552 762.406 323.125C763.969 318.438 765.401 314.141 766.703 310.234C768.266 306.068 769.307 303.203 769.828 301.641C771.651 297.214 773.604 292.786 775.688 288.359C778.031 283.672 780.635 279.505 783.5 275.859C786.625 272.214 790.141 269.219 794.047 266.875C798.214 264.531 803.031 263.359 808.5 263.359C811.625 263.359 815.401 264.792 819.828 267.656C824.516 270.521 828.943 274.036 833.109 278.203C837.276 282.109 840.792 286.276 843.656 290.703C846.521 295.13 847.953 298.906 847.953 302.031C847.953 305.938 847.042 309.583 845.219 312.969C843.396 316.094 841.052 319.089 838.188 321.953C835.583 324.557 832.719 327.031 829.594 329.375C826.469 331.719 823.604 333.932 821 336.016C820.74 336.016 820.219 336.276 819.438 336.797C818.656 337.318 818.005 337.708 817.484 337.969C817.224 338.229 816.573 338.88 815.531 339.922C814.75 340.703 813.839 341.615 812.797 342.656C811.755 343.698 810.714 344.74 809.672 345.781C808.891 346.823 808.37 347.474 808.109 347.734C807.328 348.516 805.766 349.818 803.422 351.641C801.339 353.203 798.995 355.026 796.391 357.109C793.786 358.932 791.312 360.755 788.969 362.578C786.885 364.141 785.453 365.182 784.672 365.703L783.109 368.828C782.589 369.87 782.068 372.214 781.547 375.859C781.286 379.245 780.896 383.151 780.375 387.578C779.854 392.005 779.333 396.562 778.812 401.25C778.552 405.677 778.422 409.323 778.422 412.188C778.422 412.448 778.552 412.708 778.812 412.969C779.333 413.49 779.724 413.75 779.984 413.75C782.068 413.75 784.021 412.839 785.844 411.016C787.667 409.193 789.62 407.891 791.703 407.109L854.203 349.297L870.219 324.688C871.521 322.865 873.995 320.911 877.641 318.828C881.547 316.484 885.453 315.312 889.359 315.312C893.266 315.052 896.651 316.224 899.516 318.828C902.641 321.432 904.203 326.51 904.203 334.062ZM818.266 303.594C819.568 302.552 820.089 300.99 819.828 298.906C819.568 296.823 818.786 295 817.484 293.438C816.443 291.875 815.01 290.964 813.188 290.703C811.365 290.182 809.672 291.094 808.109 293.438C807.328 294.479 805.896 296.562 803.812 299.688C801.99 302.812 800.036 306.068 797.953 309.453C796.13 312.578 794.568 315.312 793.266 317.656C791.964 320 791.703 320.911 792.484 320.391L818.266 303.594ZM932.328 428.203C931.807 418.828 930.896 406.328 929.594 390.703C928.552 374.818 927.25 358.411 925.688 341.484C924.385 324.557 922.953 308.542 921.391 293.438C919.828 278.333 918.526 266.615 917.484 258.281C917.484 254.896 919.047 252.682 922.172 251.641C925.297 250.599 928.292 250.078 931.156 250.078C934.802 250.078 938.578 251.12 942.484 253.203C946.651 255.286 949.255 258.151 950.297 261.797C950.297 262.839 950.427 264.792 950.688 267.656C950.948 270.26 951.078 272.995 951.078 275.859C951.339 278.724 951.599 281.589 951.859 284.453C952.12 287.057 952.25 288.88 952.25 289.922C952.25 291.484 952.25 292.656 952.25 293.438C952.25 294.219 952.25 295 952.25 295.781C952.25 296.302 952.38 296.953 952.641 297.734C952.901 298.516 953.292 299.818 953.812 301.641C954.333 301.12 954.854 300.469 955.375 299.688C956.156 298.906 956.677 298.385 956.938 298.125C961.104 292.135 965.141 286.927 969.047 282.5C972.953 277.812 976.99 273.516 981.156 269.609C985.323 265.443 989.88 261.146 994.828 256.719C1000.04 252.031 1006.03 246.693 1012.8 240.703C1014.36 239.401 1015.53 238.49 1016.31 237.969C1017.09 237.188 1017.74 236.667 1018.27 236.406C1019.05 235.885 1019.83 235.625 1020.61 235.625C1021.39 235.365 1022.43 235.234 1023.73 235.234C1028.16 235.234 1032.59 236.797 1037.02 239.922C1041.7 242.786 1044.05 246.823 1044.05 252.031C1044.05 253.854 1043.4 255.807 1042.09 257.891C1040.79 259.714 1039.23 261.536 1037.41 263.359C1035.58 264.922 1033.63 266.354 1031.55 267.656C1029.72 268.958 1028.03 269.87 1026.47 270.391C1019.7 276.38 1012.54 283.281 1004.98 291.094C997.432 298.646 990.401 306.849 983.891 315.703C977.38 324.557 972.042 333.802 967.875 343.438C963.708 353.073 961.625 362.708 961.625 372.344C961.625 381.198 962.276 389.922 963.578 398.516C964.88 407.109 965.531 415.833 965.531 424.688V438.359C963.448 440.443 961.625 442.135 960.062 443.438C958.5 444.74 956.286 445.391 953.422 445.391C948.995 445.391 944.698 443.568 940.531 439.922C936.365 436.016 933.63 432.109 932.328 428.203ZM1060.06 317.656C1059.54 310.885 1058.89 304.115 1058.11 297.344C1057.59 290.312 1056.68 283.411 1055.38 276.641C1055.38 270.911 1057.2 267.266 1060.84 265.703C1064.75 264.141 1068.92 263.359 1073.34 263.359H1081.16C1085.06 265.182 1087.8 267.396 1089.36 270C1090.92 272.604 1091.96 275.469 1092.48 278.594C1093.01 281.719 1093.14 284.974 1092.88 288.359C1092.88 291.745 1093.01 295 1093.27 298.125C1093.53 299.427 1093.66 301.641 1093.66 304.766C1093.66 307.891 1093.66 311.146 1093.66 314.531C1093.92 317.917 1094.18 321.042 1094.44 323.906C1094.96 326.771 1095.61 328.594 1096.39 329.375L1130.77 264.922C1132.33 262.057 1134.54 259.714 1137.41 257.891C1140.53 255.807 1143.92 255.026 1147.56 255.547C1153.29 256.068 1157.59 257.24 1160.45 259.062C1163.32 260.625 1165.27 262.839 1166.31 265.703C1167.61 268.307 1168.27 271.562 1168.27 275.469C1168.53 279.375 1168.79 283.672 1169.05 288.359C1169.05 289.922 1169.18 292.917 1169.44 297.344C1169.7 301.51 1169.96 305.938 1170.22 310.625C1170.74 315.312 1171.13 319.74 1171.39 323.906C1171.91 328.073 1172.3 330.938 1172.56 332.5H1174.12C1174.65 330.677 1175.56 327.161 1176.86 321.953C1178.42 316.745 1180.11 311.276 1181.94 305.547C1183.76 299.818 1185.45 294.349 1187.02 289.141C1188.58 283.932 1189.75 280.286 1190.53 278.203C1190.79 277.682 1191.31 276.641 1192.09 275.078C1192.88 273.255 1193.66 271.432 1194.44 269.609C1195.22 267.526 1196 265.703 1196.78 264.141C1197.56 262.318 1198.08 261.016 1198.34 260.234C1200.17 257.37 1201.99 255.938 1203.81 255.938C1205.9 255.677 1208.11 255.547 1210.45 255.547C1216.96 255.547 1221.91 257.24 1225.3 260.625C1228.94 263.75 1231.55 267.786 1233.11 272.734C1234.93 277.682 1236.23 283.151 1237.02 289.141C1237.8 294.87 1238.71 300.208 1239.75 305.156C1240.01 305.156 1240.14 305.417 1240.14 305.938C1240.14 306.198 1240.01 306.458 1239.75 306.719L1261.23 420.391C1262.28 421.432 1262.8 422.344 1262.8 423.125C1263.06 423.906 1263.19 424.948 1263.19 426.25C1263.19 429.115 1261.76 431.979 1258.89 434.844C1256.29 437.448 1253.55 438.75 1250.69 438.75C1246.78 438.75 1242.22 437.318 1237.02 434.453C1232.07 431.589 1229.2 427.943 1228.42 423.516L1210.45 330.938L1208.5 327.812C1207.98 329.115 1206.81 332.891 1204.98 339.141C1203.42 345.13 1201.47 352.812 1199.12 362.188C1196.78 371.302 1194.05 381.589 1190.92 393.047C1188.06 404.505 1185.06 416.224 1181.94 428.203C1181.42 430.547 1179.85 432.37 1177.25 433.672C1174.91 434.714 1172.82 435.234 1171 435.234C1165.53 435.234 1161.1 434.583 1157.72 433.281C1154.33 431.979 1151.73 430.026 1149.91 427.422C1148.08 424.818 1146.78 421.693 1146 418.047C1145.22 414.401 1144.57 410.234 1144.05 405.547C1144.05 404.505 1143.79 400.859 1143.27 394.609C1142.74 388.099 1142.09 380.807 1141.31 372.734C1140.79 364.401 1140.14 356.068 1139.36 347.734C1138.58 339.401 1138.06 332.76 1137.8 327.812C1137.8 326.771 1137.8 325.99 1137.8 325.469C1137.8 324.948 1137.8 324.557 1137.8 324.297C1137.8 323.776 1137.67 323.255 1137.41 322.734C1137.15 321.953 1136.62 320.781 1135.84 319.219L1124.52 346.172L1106.55 412.188L1102.64 436.406C1102.38 437.969 1101.6 439.401 1100.3 440.703C1099.26 441.745 1097.95 442.656 1096.39 443.438C1094.83 443.958 1093.27 444.349 1091.7 444.609C1090.14 444.87 1088.84 445 1087.8 445C1082.07 445 1077.12 442.917 1072.95 438.75C1069.05 434.583 1066.96 430.026 1066.7 425.078C1066.44 423.255 1066.18 419.74 1065.92 414.531C1065.66 409.062 1065.27 402.682 1064.75 395.391C1064.23 388.099 1063.71 380.417 1063.19 372.344C1062.93 364.271 1062.54 356.589 1062.02 349.297C1061.49 342.005 1060.97 335.625 1060.45 330.156C1060.19 324.688 1060.06 321.042 1060.06 319.219V317.656ZM1444.44 334.062C1443.92 338.75 1443.27 342.396 1442.48 345C1441.96 347.604 1440.92 349.948 1439.36 352.031C1437.8 354.115 1435.58 356.328 1432.72 358.672C1429.85 360.755 1425.95 363.88 1421 368.047C1416.05 371.953 1409.93 377.161 1402.64 383.672C1395.35 390.182 1386.49 398.646 1376.08 409.062C1371.91 412.969 1367.61 417.005 1363.19 421.172C1358.76 425.339 1354.07 429.115 1349.12 432.5C1344.44 435.625 1339.49 438.229 1334.28 440.312C1329.07 442.396 1323.6 443.438 1317.88 443.438C1306.68 443.438 1298.47 439.661 1293.27 432.109C1288.06 424.557 1285.45 415.833 1285.45 405.938C1285.45 399.427 1285.58 393.958 1285.84 389.531C1286.36 385.104 1287.41 379.375 1288.97 372.344C1286.1 369.74 1283.63 367.526 1281.55 365.703C1279.46 363.62 1278.42 360.885 1278.42 357.5C1278.42 354.375 1279.07 352.292 1280.38 351.25C1281.94 350.208 1283.63 349.557 1285.45 349.297C1287.54 348.776 1289.49 348.255 1291.31 347.734C1293.14 347.214 1294.44 346.172 1295.22 344.609C1295.74 343.047 1296.65 340.182 1297.95 336.016C1299.52 331.849 1301.08 327.552 1302.64 323.125C1304.2 318.438 1305.64 314.141 1306.94 310.234C1308.5 306.068 1309.54 303.203 1310.06 301.641C1311.89 297.214 1313.84 292.786 1315.92 288.359C1318.27 283.672 1320.87 279.505 1323.73 275.859C1326.86 272.214 1330.38 269.219 1334.28 266.875C1338.45 264.531 1343.27 263.359 1348.73 263.359C1351.86 263.359 1355.64 264.792 1360.06 267.656C1364.75 270.521 1369.18 274.036 1373.34 278.203C1377.51 282.109 1381.03 286.276 1383.89 290.703C1386.76 295.13 1388.19 298.906 1388.19 302.031C1388.19 305.938 1387.28 309.583 1385.45 312.969C1383.63 316.094 1381.29 319.089 1378.42 321.953C1375.82 324.557 1372.95 327.031 1369.83 329.375C1366.7 331.719 1363.84 333.932 1361.23 336.016C1360.97 336.016 1360.45 336.276 1359.67 336.797C1358.89 337.318 1358.24 337.708 1357.72 337.969C1357.46 338.229 1356.81 338.88 1355.77 339.922C1354.98 340.703 1354.07 341.615 1353.03 342.656C1351.99 343.698 1350.95 344.74 1349.91 345.781C1349.12 346.823 1348.6 347.474 1348.34 347.734C1347.56 348.516 1346 349.818 1343.66 351.641C1341.57 353.203 1339.23 355.026 1336.62 357.109C1334.02 358.932 1331.55 360.755 1329.2 362.578C1327.12 364.141 1325.69 365.182 1324.91 365.703L1323.34 368.828C1322.82 369.87 1322.3 372.214 1321.78 375.859C1321.52 379.245 1321.13 383.151 1320.61 387.578C1320.09 392.005 1319.57 396.562 1319.05 401.25C1318.79 405.677 1318.66 409.323 1318.66 412.188C1318.66 412.448 1318.79 412.708 1319.05 412.969C1319.57 413.49 1319.96 413.75 1320.22 413.75C1322.3 413.75 1324.26 412.839 1326.08 411.016C1327.9 409.193 1329.85 407.891 1331.94 407.109L1394.44 349.297L1410.45 324.688C1411.76 322.865 1414.23 320.911 1417.88 318.828C1421.78 316.484 1425.69 315.312 1429.59 315.312C1433.5 315.052 1436.89 316.224 1439.75 318.828C1442.88 321.432 1444.44 326.51 1444.44 334.062ZM1358.5 303.594C1359.8 302.552 1360.32 300.99 1360.06 298.906C1359.8 296.823 1359.02 295 1357.72 293.438C1356.68 291.875 1355.24 290.964 1353.42 290.703C1351.6 290.182 1349.91 291.094 1348.34 293.438C1347.56 294.479 1346.13 296.562 1344.05 299.688C1342.22 302.812 1340.27 306.068 1338.19 309.453C1336.36 312.578 1334.8 315.312 1333.5 317.656C1332.2 320 1331.94 320.911 1332.72 320.391L1358.5 303.594ZM436.625 654.375C435.062 650.99 433.76 648.255 432.719 646.172C431.938 644.089 431.547 641.615 431.547 638.75C431.547 636.406 431.807 634.323 432.328 632.5C433.109 630.417 433.5 628.203 433.5 625.859C433.5 620.13 433.24 614.792 432.719 609.844C432.458 604.896 432.068 599.427 431.547 593.438C431.286 592.656 430.375 592.005 428.812 591.484C427.25 590.964 425.557 590.312 423.734 589.531C421.911 588.49 420.219 587.057 418.656 585.234C417.354 583.411 416.703 580.807 416.703 577.422C416.703 574.297 417.354 571.693 418.656 569.609C420.219 567.266 421.781 565.182 423.344 563.359C424.906 561.276 426.339 559.193 427.641 557.109C429.203 554.766 429.984 552.031 429.984 548.906C429.984 547.604 429.854 545.26 429.594 541.875C429.333 538.229 429.073 534.453 428.812 530.547C428.812 526.641 428.682 522.995 428.422 519.609C428.422 515.964 428.422 513.49 428.422 512.188V511.406V510.625C429.464 508.281 430.245 506.328 430.766 504.766C431.547 503.203 432.328 502.031 433.109 501.25C433.891 500.469 434.932 499.948 436.234 499.688C437.536 499.167 439.229 498.906 441.312 498.906C446.781 498.906 450.818 499.948 453.422 502.031C456.026 504.115 457.849 506.589 458.891 509.453C459.932 512.057 460.583 514.531 460.844 516.875C461.104 519.219 461.755 520.521 462.797 520.781L490.922 496.172H492.484C501.599 490.182 511.234 485.625 521.391 482.5C531.547 479.115 542.224 477.422 553.422 477.422C556.807 477.422 560.844 477.812 565.531 478.594C570.479 479.375 575.036 480.807 579.203 482.891C583.63 484.714 587.276 487.188 590.141 490.312C593.266 493.438 594.828 497.344 594.828 502.031C594.828 507.24 594.177 512.578 592.875 518.047C591.573 523.516 589.75 528.984 587.406 534.453C585.323 539.661 582.719 544.74 579.594 549.688C576.729 554.375 573.604 558.411 570.219 561.797C568.917 564.661 560.583 571.953 545.219 583.672C529.854 595.391 506.938 612.839 476.469 636.016L663.969 647.734C666.573 647.995 670.089 648.255 674.516 648.516C679.203 648.516 683.63 648.906 687.797 649.688C692.224 650.469 696 652.031 699.125 654.375C702.25 656.458 703.812 659.714 703.812 664.141C703.812 666.484 703.422 668.438 702.641 670C702.12 671.302 701.339 672.474 700.297 673.516C699.516 674.297 698.474 675.078 697.172 675.859C696.13 676.641 695.089 677.682 694.047 678.984H687.406H680.766C675.557 678.464 670.089 677.812 664.359 677.031C658.891 676.25 652.38 675.339 644.828 674.297C637.536 673.255 628.943 672.214 619.047 671.172C609.151 670.13 597.302 669.219 583.5 668.438C569.698 667.656 553.552 667.005 535.062 666.484C516.833 665.964 495.609 665.703 471.391 665.703C471.13 665.703 470.74 666.094 470.219 666.875C469.958 667.656 469.828 668.307 469.828 668.828C469.828 678.724 470.609 688.49 472.172 698.125C473.995 707.5 474.906 716.875 474.906 726.25C474.906 728.073 474.646 730.156 474.125 732.5C473.865 734.583 473.214 736.667 472.172 738.75C471.13 740.573 469.828 742.135 468.266 743.438C466.703 744.74 464.75 745.391 462.406 745.391C460.844 745.391 459.021 745.13 456.938 744.609C454.854 743.828 452.771 742.786 450.688 741.484C448.865 740.182 447.172 738.75 445.609 737.188C444.047 735.625 443.135 733.802 442.875 731.719L436.625 654.375ZM462.797 568.047C462.797 574.557 462.927 580.677 463.188 586.406C463.448 592.135 463.839 598.385 464.359 605.156H465.531C465.792 605.156 466.443 604.896 467.484 604.375C468.526 603.854 471.13 602.292 475.297 599.688C479.464 596.823 485.844 592.526 494.438 586.797C503.031 580.807 515.141 572.474 530.766 561.797C533.891 559.974 537.276 556.849 540.922 552.422C544.568 547.995 547.953 543.177 551.078 537.969C554.203 532.76 556.807 527.682 558.891 522.734C560.974 517.526 562.016 513.229 562.016 509.844C562.016 507.24 560.714 505.938 558.109 505.938C555.766 505.938 553.682 505.938 551.859 505.938C547.953 505.938 543.526 506.589 538.578 507.891C533.63 509.193 527.641 511.797 520.609 515.703C513.839 519.609 505.635 525.208 496 532.5C486.625 539.792 475.557 549.557 462.797 561.797V568.047ZM806.938 636.016C804.594 640.182 801.859 645.26 798.734 651.25C795.87 656.979 792.745 663.229 789.359 670C785.974 676.51 782.198 683.151 778.031 689.922C774.125 696.432 769.958 702.422 765.531 707.891C761.365 713.359 756.938 718.047 752.25 721.953C747.562 725.599 742.745 727.812 737.797 728.594C735.714 728.594 733.37 728.464 730.766 728.203C728.161 727.682 725.557 727.031 722.953 726.25C720.349 725.208 718.135 723.906 716.312 722.344C714.75 720.521 713.969 718.177 713.969 715.312C714.229 688.75 716.182 664.661 719.828 643.047C723.474 621.172 729.203 602.031 737.016 585.625C744.828 568.958 754.854 555.156 767.094 544.219C779.333 533.281 794.177 525.469 811.625 520.781C812.146 520.781 813.057 520.781 814.359 520.781C815.922 520.521 816.964 520.391 817.484 520.391C825.297 520.13 830.896 523.776 834.281 531.328C837.927 538.62 840.531 550.339 842.094 566.484C843.917 582.37 845.089 602.943 845.609 628.203C846.391 653.203 847.823 683.281 849.906 718.438C850.688 721.302 851.078 723.776 851.078 725.859C851.339 727.943 851.469 730.417 851.469 733.281C851.469 737.188 850.297 740.182 847.953 742.266C845.609 744.089 842.615 745 838.969 745C831.417 745 826.078 742.917 822.953 738.75C819.828 734.583 817.745 728.984 816.703 721.953C816.703 721.693 816.443 719.609 815.922 715.703C815.661 711.797 815.141 707.37 814.359 702.422C813.839 697.214 813.318 692.005 812.797 686.797C812.276 681.589 811.885 677.292 811.625 673.906V672.344C811.104 669.74 810.714 666.484 810.453 662.578C810.453 658.672 810.193 654.896 809.672 651.25C809.151 646.823 808.76 642.396 808.5 637.969L806.938 636.016ZM798.344 558.672C791.312 563.88 784.411 570.911 777.641 579.766C770.87 588.62 766.052 597.214 763.188 605.547C761.885 609.453 760.453 614.792 758.891 621.562C757.328 628.333 755.896 635.104 754.594 641.875C753.552 648.385 752.641 654.505 751.859 660.234C751.078 665.703 750.688 669.219 750.688 670.781C750.948 670.781 751.208 670.521 751.469 670C751.99 669.479 752.38 669.089 752.641 668.828C768.786 653.203 780.115 636.406 786.625 618.438C793.396 600.208 797.302 580.286 798.344 558.672ZM983.109 731.719C979.464 726.51 976.339 719.349 973.734 710.234C971.391 700.859 969.047 691.094 966.703 680.938C964.62 670.521 962.667 660.495 960.844 650.859C959.021 640.964 957.068 633.151 954.984 627.422C953.161 621.432 951.078 618.047 948.734 617.266C946.391 616.484 943.656 620 940.531 627.812L906.547 732.5C905.245 736.146 903.682 738.75 901.859 740.312C900.036 741.615 897.042 742.266 892.875 742.266C890.792 742.266 888.578 742.005 886.234 741.484C883.891 740.703 881.677 739.661 879.594 738.359C877.51 737.057 875.688 735.495 874.125 733.672C872.823 731.849 872.042 729.766 871.781 727.422C872.562 724.297 873.214 718.568 873.734 710.234C874.516 701.901 875.036 692.266 875.297 681.328C875.557 670.391 875.688 658.932 875.688 646.953C875.948 634.714 875.948 623.385 875.688 612.969C875.688 602.292 875.557 593.177 875.297 585.625C875.036 577.812 874.776 572.734 874.516 570.391C874.516 567.786 874.516 565.182 874.516 562.578C874.776 559.714 875.167 557.109 875.688 554.766C876.469 552.422 877.641 550.599 879.203 549.297C881.026 547.734 883.76 546.953 887.406 546.953C892.354 546.953 896.911 549.036 901.078 553.203C905.505 557.37 907.719 561.797 907.719 566.484C907.719 573.255 907.328 580.026 906.547 586.797C906.026 593.307 905.766 599.948 905.766 606.719C905.766 610.885 905.766 614.401 905.766 617.266C905.766 620.13 906.286 623.646 907.328 627.812C908.109 625.729 909.411 622.083 911.234 616.875C913.057 611.667 915.01 606.198 917.094 600.469C919.438 594.74 921.521 589.401 923.344 584.453C925.167 579.245 926.469 575.599 927.25 573.516C929.073 568.307 931.807 563.359 935.453 558.672C939.099 553.724 943.917 550.99 949.906 550.469C953.812 550.208 957.328 551.25 960.453 553.594C963.839 555.938 966.703 559.062 969.047 562.969C971.391 566.615 973.344 570.521 974.906 574.688C976.469 578.594 977.641 581.979 978.422 584.844L999.516 682.109L1015.92 726.641C1016.18 726.901 1016.31 727.682 1016.31 728.984C1016.31 730.026 1016.31 730.807 1016.31 731.328C1016.31 734.453 1015.53 737.578 1013.97 740.703C1012.67 743.568 1010.19 745 1006.55 745C1002.12 745 997.562 743.828 992.875 741.484C988.188 738.88 984.932 735.625 983.109 731.719ZM1034.67 685.234L1049.12 584.844C1049.65 581.458 1051.08 578.984 1053.42 577.422C1056.03 575.859 1058.89 575.078 1062.02 575.078C1067.74 575.078 1072.3 576.771 1075.69 580.156C1079.07 583.281 1081.94 587.188 1084.28 591.875H1084.67C1087.8 591.875 1090.53 591.354 1092.88 590.312C1095.48 589.01 1098.6 588.359 1102.25 588.359C1110.58 588.359 1117.61 590.964 1123.34 596.172C1129.33 601.38 1134.15 607.76 1137.8 615.312C1141.44 622.604 1144.05 630.547 1145.61 639.141C1147.43 647.734 1148.34 655.286 1148.34 661.797C1148.34 669.609 1146.26 678.333 1142.09 687.969C1138.19 697.604 1132.85 706.719 1126.08 715.312C1119.57 723.906 1112.15 731.068 1103.81 736.797C1095.48 742.526 1087.02 745.391 1078.42 745.391C1070.61 745.391 1063.84 743.568 1058.11 739.922C1052.64 736.276 1048.08 731.719 1044.44 726.25C1041.05 720.521 1038.58 714.141 1037.02 707.109C1035.45 700.078 1034.67 693.177 1034.67 686.406V685.234ZM1067.48 687.578C1068.01 690.182 1068.53 693.177 1069.05 696.562C1069.57 699.948 1070.35 703.073 1071.39 705.938C1072.43 708.542 1073.86 710.625 1075.69 712.188C1077.77 713.49 1080.64 713.49 1084.28 712.188C1087.67 709.062 1091.31 705.547 1095.22 701.641C1099.12 697.734 1102.77 693.568 1106.16 689.141C1109.8 684.714 1112.8 680.026 1115.14 675.078C1117.48 670.13 1118.66 664.922 1118.66 659.453C1119.7 650.599 1119.05 642.526 1116.7 635.234C1114.36 627.682 1110.97 622.344 1106.55 619.219C1102.38 615.833 1097.56 615.443 1092.09 618.047C1086.62 620.391 1081.16 627.031 1075.69 637.969C1072.56 644.74 1070.35 652.682 1069.05 661.797C1068.01 670.651 1067.48 678.854 1067.48 686.406V687.578ZM1243.66 852.422C1243.14 846.953 1242.74 840.312 1242.48 832.5C1242.48 824.688 1242.48 816.484 1242.48 807.891C1242.48 799.297 1242.48 790.573 1242.48 781.719C1242.74 772.865 1243.14 764.792 1243.66 757.5V743.438C1242.35 741.615 1240.79 739.792 1238.97 737.969C1237.15 735.885 1233.89 731.979 1229.2 726.25C1224.78 720.26 1218.4 711.536 1210.06 700.078C1201.73 688.359 1190.53 672.083 1176.47 651.25C1171 645.521 1167.48 640.833 1165.92 637.188C1164.36 633.281 1163.84 630.156 1164.36 627.812C1164.88 625.469 1166.18 623.776 1168.27 622.734C1170.61 621.693 1172.82 621.172 1174.91 621.172C1180.11 621.172 1184.8 622.344 1188.97 624.688C1193.14 627.031 1196.91 630.026 1200.3 633.672C1203.68 637.318 1206.68 641.354 1209.28 645.781C1212.15 649.948 1214.88 653.984 1217.48 657.891C1219.05 660.234 1221 663.229 1223.34 666.875C1225.69 670.521 1228.03 674.167 1230.38 677.812C1232.72 681.198 1234.67 684.193 1236.23 686.797C1238.06 689.401 1238.97 690.703 1238.97 690.703L1243.66 695.781V654.766C1243.66 641.745 1243.4 629.115 1242.88 616.875C1242.35 604.375 1242.09 591.745 1242.09 578.984C1242.09 575.339 1243.4 572.344 1246 570C1248.6 567.656 1251.73 566.615 1255.38 566.875C1259.8 567.396 1263.06 568.177 1265.14 569.219C1267.48 570.26 1269.83 572.344 1272.17 575.469C1274.26 578.333 1275.17 581.719 1274.91 585.625C1274.91 589.531 1275.04 593.307 1275.3 596.953C1276.34 621.693 1277.12 646.432 1277.64 671.172C1278.42 695.651 1278.81 720.26 1278.81 745C1278.55 747.344 1278.42 752.031 1278.42 759.062C1278.42 766.354 1278.42 774.557 1278.42 783.672C1278.68 792.786 1278.81 802.292 1278.81 812.188C1279.07 822.083 1279.2 831.068 1279.2 839.141C1279.46 847.474 1279.59 854.245 1279.59 859.453C1279.85 864.922 1280.11 867.526 1280.38 867.266C1280.38 871.172 1278.94 874.036 1276.08 875.859C1273.47 877.682 1270.22 878.594 1266.31 878.594C1261.1 878.594 1257.2 877.812 1254.59 876.25C1252.25 874.948 1250.43 872.995 1249.12 870.391C1247.82 868.047 1246.91 865.312 1246.39 862.188C1245.87 859.062 1244.96 855.807 1243.66 852.422ZM1390.14 636.016C1387.8 640.182 1385.06 645.26 1381.94 651.25C1379.07 656.979 1375.95 663.229 1372.56 670C1369.18 676.51 1365.4 683.151 1361.23 689.922C1357.33 696.432 1353.16 702.422 1348.73 707.891C1344.57 713.359 1340.14 718.047 1335.45 721.953C1330.77 725.599 1325.95 727.812 1321 728.594C1318.92 728.594 1316.57 728.464 1313.97 728.203C1311.36 727.682 1308.76 727.031 1306.16 726.25C1303.55 725.208 1301.34 723.906 1299.52 722.344C1297.95 720.521 1297.17 718.177 1297.17 715.312C1297.43 688.75 1299.39 664.661 1303.03 643.047C1306.68 621.172 1312.41 602.031 1320.22 585.625C1328.03 568.958 1338.06 555.156 1350.3 544.219C1362.54 533.281 1377.38 525.469 1394.83 520.781C1395.35 520.781 1396.26 520.781 1397.56 520.781C1399.12 520.521 1400.17 520.391 1400.69 520.391C1408.5 520.13 1414.1 523.776 1417.48 531.328C1421.13 538.62 1423.73 550.339 1425.3 566.484C1427.12 582.37 1428.29 602.943 1428.81 628.203C1429.59 653.203 1431.03 683.281 1433.11 718.438C1433.89 721.302 1434.28 723.776 1434.28 725.859C1434.54 727.943 1434.67 730.417 1434.67 733.281C1434.67 737.188 1433.5 740.182 1431.16 742.266C1428.81 744.089 1425.82 745 1422.17 745C1414.62 745 1409.28 742.917 1406.16 738.75C1403.03 734.583 1400.95 728.984 1399.91 721.953C1399.91 721.693 1399.65 719.609 1399.12 715.703C1398.86 711.797 1398.34 707.37 1397.56 702.422C1397.04 697.214 1396.52 692.005 1396 686.797C1395.48 681.589 1395.09 677.292 1394.83 673.906V672.344C1394.31 669.74 1393.92 666.484 1393.66 662.578C1393.66 658.672 1393.4 654.896 1392.88 651.25C1392.35 646.823 1391.96 642.396 1391.7 637.969L1390.14 636.016ZM1381.55 558.672C1374.52 563.88 1367.61 570.911 1360.84 579.766C1354.07 588.62 1349.26 597.214 1346.39 605.547C1345.09 609.453 1343.66 614.792 1342.09 621.562C1340.53 628.333 1339.1 635.104 1337.8 641.875C1336.76 648.385 1335.84 654.505 1335.06 660.234C1334.28 665.703 1333.89 669.219 1333.89 670.781C1334.15 670.781 1334.41 670.521 1334.67 670C1335.19 669.479 1335.58 669.089 1335.84 668.828C1351.99 653.203 1363.32 636.406 1369.83 618.438C1376.6 600.208 1380.51 580.286 1381.55 558.672Z" fill="#EDAE00"/>
</svg>
