<svg width="2308" height="910" viewBox="0 0 2308 910" fill="none" xmlns="http://www.w3.org/2000/svg">
<path d="M217.703 436.984C213.797 421.359 210.932 404.823 209.109 387.375C207.547 369.667 206.505 353.13 205.984 337.766C203.641 339.068 201.688 341.151 200.125 344.016C198.562 346.62 197.13 349.484 195.828 352.609C194.786 355.474 193.615 358.469 192.312 361.594C191.01 364.458 189.448 366.932 187.625 369.016C181.635 375.786 175.125 382.036 168.094 387.766C161.062 393.234 152.729 395.969 143.094 395.969C135.281 395.969 127.469 394.276 119.656 390.891C112.104 387.505 105.203 383.078 98.9531 377.609C92.9635 371.88 88.0156 365.37 84.1094 358.078C80.4635 350.786 78.6406 343.104 78.6406 335.031C78.6406 323.833 80.4635 312.505 84.1094 301.047C87.7552 289.328 92.1823 278.521 97.3906 268.625C98.4323 266.802 99.9948 264.198 102.078 260.812C104.422 257.167 106.766 253.521 109.109 249.875C111.714 246.229 114.057 242.974 116.141 240.109C118.224 236.984 119.656 235.031 120.438 234.25L163.016 189.328C168.745 183.339 175.906 179.042 184.5 176.438C193.354 173.573 201.557 171.88 209.109 171.359C213.016 170.839 216.271 171.49 218.875 173.312C221.479 174.875 222.781 177.609 222.781 181.516C222.781 184.641 221.479 187.115 218.875 188.938C216.531 190.5 213.667 191.802 210.281 192.844C206.896 193.885 203.38 194.927 199.734 195.969C196.089 196.75 193.224 197.792 191.141 199.094C177.339 210.292 164.839 222.922 153.641 236.984C142.443 250.786 132.417 265.24 123.562 280.344C120.698 289.458 117.703 298.182 114.578 306.516C111.453 314.849 109.891 323.964 109.891 333.859C109.891 334.641 109.891 336.464 109.891 339.328C110.151 341.932 110.281 343.625 110.281 344.406C112.885 350.656 116.792 356.385 122 361.594C127.469 366.802 133.849 369.406 141.141 369.406C144.786 369.406 148.562 368.234 152.469 365.891C156.375 363.547 159.37 360.682 161.453 357.297C162.495 355.995 164.318 353.391 166.922 349.484C169.526 345.578 172.13 341.411 174.734 336.984C177.599 332.557 180.203 328.391 182.547 324.484C185.151 320.578 186.844 317.844 187.625 316.281C188.406 314.719 189.448 312.766 190.75 310.422C192.312 307.818 193.615 305.344 194.656 303C195.958 300.656 197 298.573 197.781 296.75C198.823 294.667 199.344 293.495 199.344 293.234V291.672C195.698 292.714 192.052 293.625 188.406 294.406C184.76 294.927 180.984 295.188 177.078 295.188C174.734 295.188 172.13 295.057 169.266 294.797C166.661 294.276 164.057 293.495 161.453 292.453C159.109 291.411 157.026 289.979 155.203 288.156C153.641 286.333 152.859 283.859 152.859 280.734C152.859 279.432 152.99 277.87 153.25 276.047C153.51 274.224 154.031 272.792 154.812 271.75C156.896 269.927 159.63 268.625 163.016 267.844C166.661 266.802 170.438 266.151 174.344 265.891C178.51 265.37 182.547 264.979 186.453 264.719C190.62 264.198 194.396 263.286 197.781 261.984C200.646 260.943 204.031 259.641 207.938 258.078C211.844 256.255 215.88 254.562 220.047 253C224.474 251.177 228.901 249.615 233.328 248.312C237.755 247.01 241.792 246.099 245.438 245.578C246.219 245.578 247.26 245.839 248.562 246.359C250.125 246.88 251.688 247.531 253.25 248.312C254.812 249.094 256.115 250.005 257.156 251.047C258.198 251.828 258.719 252.609 258.719 253.391C258.719 259.12 257.156 263.156 254.031 265.5C250.906 267.583 246.87 270.188 241.922 273.312C242.703 283.729 242.312 294.146 240.75 304.562C239.448 314.979 238.797 325.396 238.797 335.812C238.797 348.312 239.057 361.073 239.578 374.094C240.099 387.115 241.401 399.745 243.484 411.984C243.745 412.505 244.135 413.807 244.656 415.891C245.177 418.234 245.698 420.578 246.219 422.922C247 425.266 247.651 427.479 248.172 429.562C248.693 431.646 248.953 432.948 248.953 433.469V434.25C248.953 437.896 247.521 441.411 244.656 444.797C242.052 448.443 238.927 450.266 235.281 450.266C231.375 450.266 227.599 448.964 223.953 446.359C220.568 443.755 218.484 440.63 217.703 436.984ZM353.641 365.891C351.818 369.797 349.995 374.094 348.172 378.781C346.349 383.208 344.266 387.245 341.922 390.891C339.578 394.536 336.714 397.661 333.328 400.266C329.943 402.609 325.646 403.781 320.438 403.781C311.323 403.781 303.771 401.568 297.781 397.141C291.792 392.453 286.844 386.724 282.938 379.953C279.292 372.922 276.688 365.37 275.125 357.297C273.562 349.224 272.781 341.672 272.781 334.641L275.906 240.109C275.646 238.286 276.036 236.464 277.078 234.641C278.38 232.557 279.943 230.734 281.766 229.172C283.849 227.349 286.062 225.917 288.406 224.875C291.01 223.833 293.354 223.312 295.438 223.312C301.427 223.312 306.505 225.266 310.672 229.172C314.839 232.818 316.922 237.635 316.922 243.625V247.531C314.057 252.219 311.583 258.339 309.5 265.891C307.417 273.443 305.724 281.646 304.422 290.5C303.38 299.094 302.729 307.948 302.469 317.062C302.208 326.177 302.469 334.51 303.25 342.062C304.292 349.615 305.854 356.125 307.938 361.594C310.021 366.802 312.755 369.927 316.141 370.969C317.443 370.969 319.396 370.318 322 369.016C324.865 367.714 327.859 365.24 330.984 361.594C334.109 357.948 337.365 352.87 340.75 346.359C344.135 339.589 347.13 330.734 349.734 319.797C352.339 308.859 354.292 295.578 355.594 279.953C356.896 264.328 357.286 245.578 356.766 223.703C357.807 220.839 359.24 219.276 361.062 219.016C363.146 218.755 365.229 218.625 367.312 218.625C369.656 218.625 371.609 218.755 373.172 219.016C374.734 219.016 376.427 219.927 378.25 221.75C379.552 223.052 380.984 225.005 382.547 227.609C384.109 230.214 384.891 231.646 384.891 231.906L391.531 404.953C391.531 408.859 390.49 412.115 388.406 414.719C386.323 417.323 383.328 418.625 379.422 418.625C378.12 418.625 376.557 418.495 374.734 418.234C372.911 417.974 371.089 417.453 369.266 416.672C367.443 415.891 365.75 414.849 364.188 413.547C362.885 412.505 362.104 411.203 361.844 409.641L355.203 370.578L353.641 365.891ZM431.375 388.156C428.771 362.115 426.557 339.849 424.734 321.359C422.911 302.87 421.349 287.375 420.047 274.875C418.745 262.375 417.573 252.479 416.531 245.188C415.75 237.635 415.099 232.036 414.578 228.391C414.057 224.484 413.667 221.88 413.406 220.578C413.146 219.276 413.016 218.495 413.016 218.234V216.672C413.016 213.807 414.188 211.464 416.531 209.641C419.135 207.557 421.74 206.516 424.344 206.516C428.25 206.516 432.417 207.167 436.844 208.469C441.531 209.771 444.656 212.505 446.219 216.672C448.562 229.432 450.125 242.323 450.906 255.344C451.948 268.365 452.729 281.385 453.25 294.406C454.031 307.167 454.943 320.057 455.984 333.078C457.286 346.099 459.5 358.99 462.625 371.75C462.625 372.271 462.755 373.312 463.016 374.875C463.536 376.438 463.927 378.13 464.188 379.953C464.708 381.776 465.099 383.469 465.359 385.031C465.62 386.594 465.75 387.635 465.75 388.156V388.938C465.75 389.198 465.88 389.458 466.141 389.719C466.141 392.844 464.708 395.969 461.844 399.094C458.979 402.219 455.984 403.521 452.859 403C452.078 402.74 450.125 402.349 447 401.828C444.135 401.047 442.182 400.396 441.141 399.875C440.359 399.615 439.318 399.094 438.016 398.312C436.714 397.271 435.411 396.229 434.109 395.188C433.068 394.146 432.156 392.974 431.375 391.672C430.594 390.37 430.594 389.198 431.375 388.156ZM409.5 103.391C409.5 101.568 410.932 100.005 413.797 98.7031C416.922 97.1406 419.266 96.3594 420.828 96.3594C424.734 96.3594 429.031 97.5312 433.719 99.875C438.667 101.958 441.141 105.214 441.141 109.641C441.141 114.068 440.49 117.062 439.188 118.625C438.146 120.188 435.411 120.969 430.984 120.969C426.297 120.969 421.479 119.406 416.531 116.281C411.844 113.156 409.5 108.859 409.5 103.391ZM483.719 375.656C483.719 364.719 483.979 354.042 484.5 343.625C485.021 333.208 485.281 322.531 485.281 311.594C484.5 281.906 484.24 252.87 484.5 224.484C484.76 195.839 483.458 166.542 480.594 136.594C480.594 131.646 481.766 128.391 484.109 126.828C486.453 125.005 489.969 124.094 494.656 124.094C500.646 124.094 505.724 125.917 509.891 129.562C514.318 132.948 516.661 137.766 516.922 144.016C516.401 180.995 516.792 217.714 518.094 254.172C519.656 290.37 520.438 327.089 520.438 364.328V394.406C518.875 396.49 516.661 398.573 513.797 400.656C510.932 402.74 508.068 403.521 505.203 403C497.651 401.698 492.182 398.703 488.797 394.016C485.411 389.068 483.719 382.948 483.719 375.656ZM546.219 211.984C546.74 196.359 546.089 180.734 544.266 165.109C542.443 149.484 541.531 133.99 541.531 118.625C541.531 113.677 542.964 110.682 545.828 109.641C548.693 108.339 551.948 107.688 555.594 107.688C560.802 107.688 565.099 109.12 568.484 111.984C571.87 114.849 573.823 118.885 574.344 124.094C576.688 152.479 577.99 180.604 578.25 208.469C578.771 236.073 580.724 264.068 584.109 292.453C591.922 277.609 599.995 265.37 608.328 255.734C616.661 246.099 624.604 239.719 632.156 236.594C639.969 233.469 647 234.12 653.25 238.547C659.76 242.714 664.969 251.177 668.875 263.938C672.781 276.438 675.125 293.625 675.906 315.5C676.688 337.115 675.385 364.068 672 396.359C670.177 396.359 667.964 396.49 665.359 396.75C662.755 396.75 660.151 396.62 657.547 396.359C655.203 396.099 653.12 395.578 651.297 394.797C649.474 394.016 648.432 392.583 648.172 390.5C650.255 370.969 651.427 354.562 651.688 341.281C651.948 328 651.557 317.062 650.516 308.469C649.474 299.875 648.042 293.365 646.219 288.938C644.396 284.25 642.443 280.865 640.359 278.781C638.276 276.698 636.193 275.656 634.109 275.656C632.286 275.396 630.854 275.396 629.812 275.656C624.083 277.74 618.615 282.818 613.406 290.891C608.458 298.964 604.161 308.339 600.516 319.016C596.87 329.693 594.135 341.021 592.312 353C590.75 364.719 590.359 375.266 591.141 384.641C590.88 386.724 590.62 388.807 590.359 390.891C590.099 392.974 589.578 394.927 588.797 396.75C588.276 398.573 587.234 400.135 585.672 401.438C584.37 402.479 582.286 403 579.422 403C573.953 403 569.526 402.089 566.141 400.266C563.016 398.182 560.542 395.578 558.719 392.453C557.156 389.328 556.115 385.682 555.594 381.516C555.333 377.349 555.464 373.052 555.984 368.625L546.219 211.984ZM855.203 292.062C854.682 296.75 854.031 300.396 853.25 303C852.729 305.604 851.688 307.948 850.125 310.031C848.562 312.115 846.349 314.328 843.484 316.672C840.62 318.755 836.714 321.88 831.766 326.047C826.818 329.953 820.698 335.161 813.406 341.672C806.115 348.182 797.26 356.646 786.844 367.062C782.677 370.969 778.38 375.005 773.953 379.172C769.526 383.339 764.839 387.115 759.891 390.5C755.203 393.625 750.255 396.229 745.047 398.312C739.839 400.396 734.37 401.438 728.641 401.438C717.443 401.438 709.24 397.661 704.031 390.109C698.823 382.557 696.219 373.833 696.219 363.938C696.219 357.427 696.349 351.958 696.609 347.531C697.13 343.104 698.172 337.375 699.734 330.344C696.87 327.74 694.396 325.526 692.312 323.703C690.229 321.62 689.188 318.885 689.188 315.5C689.188 312.375 689.839 310.292 691.141 309.25C692.703 308.208 694.396 307.557 696.219 307.297C698.302 306.776 700.255 306.255 702.078 305.734C703.901 305.214 705.203 304.172 705.984 302.609C706.505 301.047 707.417 298.182 708.719 294.016C710.281 289.849 711.844 285.552 713.406 281.125C714.969 276.438 716.401 272.141 717.703 268.234C719.266 264.068 720.307 261.203 720.828 259.641C722.651 255.214 724.604 250.786 726.688 246.359C729.031 241.672 731.635 237.505 734.5 233.859C737.625 230.214 741.141 227.219 745.047 224.875C749.214 222.531 754.031 221.359 759.5 221.359C762.625 221.359 766.401 222.792 770.828 225.656C775.516 228.521 779.943 232.036 784.109 236.203C788.276 240.109 791.792 244.276 794.656 248.703C797.521 253.13 798.953 256.906 798.953 260.031C798.953 263.938 798.042 267.583 796.219 270.969C794.396 274.094 792.052 277.089 789.188 279.953C786.583 282.557 783.719 285.031 780.594 287.375C777.469 289.719 774.604 291.932 772 294.016C771.74 294.016 771.219 294.276 770.438 294.797C769.656 295.318 769.005 295.708 768.484 295.969C768.224 296.229 767.573 296.88 766.531 297.922C765.75 298.703 764.839 299.615 763.797 300.656C762.755 301.698 761.714 302.74 760.672 303.781C759.891 304.823 759.37 305.474 759.109 305.734C758.328 306.516 756.766 307.818 754.422 309.641C752.339 311.203 749.995 313.026 747.391 315.109C744.786 316.932 742.312 318.755 739.969 320.578C737.885 322.141 736.453 323.182 735.672 323.703L734.109 326.828C733.589 327.87 733.068 330.214 732.547 333.859C732.286 337.245 731.896 341.151 731.375 345.578C730.854 350.005 730.333 354.562 729.812 359.25C729.552 363.677 729.422 367.323 729.422 370.188C729.422 370.448 729.552 370.708 729.812 370.969C730.333 371.49 730.724 371.75 730.984 371.75C733.068 371.75 735.021 370.839 736.844 369.016C738.667 367.193 740.62 365.891 742.703 365.109L805.203 307.297L821.219 282.688C822.521 280.865 824.995 278.911 828.641 276.828C832.547 274.484 836.453 273.312 840.359 273.312C844.266 273.052 847.651 274.224 850.516 276.828C853.641 279.432 855.203 284.51 855.203 292.062ZM769.266 261.594C770.568 260.552 771.089 258.99 770.828 256.906C770.568 254.823 769.786 253 768.484 251.438C767.443 249.875 766.01 248.964 764.188 248.703C762.365 248.182 760.672 249.094 759.109 251.438C758.328 252.479 756.896 254.562 754.812 257.688C752.99 260.812 751.036 264.068 748.953 267.453C747.13 270.578 745.568 273.312 744.266 275.656C742.964 278 742.703 278.911 743.484 278.391L769.266 261.594ZM883.328 386.203C882.807 376.828 881.896 364.328 880.594 348.703C879.552 332.818 878.25 316.411 876.688 299.484C875.385 282.557 873.953 266.542 872.391 251.438C870.828 236.333 869.526 224.615 868.484 216.281C868.484 212.896 870.047 210.682 873.172 209.641C876.297 208.599 879.292 208.078 882.156 208.078C885.802 208.078 889.578 209.12 893.484 211.203C897.651 213.286 900.255 216.151 901.297 219.797C901.297 220.839 901.427 222.792 901.688 225.656C901.948 228.26 902.078 230.995 902.078 233.859C902.339 236.724 902.599 239.589 902.859 242.453C903.12 245.057 903.25 246.88 903.25 247.922C903.25 249.484 903.25 250.656 903.25 251.438C903.25 252.219 903.25 253 903.25 253.781C903.25 254.302 903.38 254.953 903.641 255.734C903.901 256.516 904.292 257.818 904.812 259.641C905.333 259.12 905.854 258.469 906.375 257.688C907.156 256.906 907.677 256.385 907.938 256.125C912.104 250.135 916.141 244.927 920.047 240.5C923.953 235.812 927.99 231.516 932.156 227.609C936.323 223.443 940.88 219.146 945.828 214.719C951.036 210.031 957.026 204.693 963.797 198.703C965.359 197.401 966.531 196.49 967.312 195.969C968.094 195.188 968.745 194.667 969.266 194.406C970.047 193.885 970.828 193.625 971.609 193.625C972.391 193.365 973.432 193.234 974.734 193.234C979.161 193.234 983.589 194.797 988.016 197.922C992.703 200.786 995.047 204.823 995.047 210.031C995.047 211.854 994.396 213.807 993.094 215.891C991.792 217.714 990.229 219.536 988.406 221.359C986.583 222.922 984.63 224.354 982.547 225.656C980.724 226.958 979.031 227.87 977.469 228.391C970.698 234.38 963.536 241.281 955.984 249.094C948.432 256.646 941.401 264.849 934.891 273.703C928.38 282.557 923.042 291.802 918.875 301.438C914.708 311.073 912.625 320.708 912.625 330.344C912.625 339.198 913.276 347.922 914.578 356.516C915.88 365.109 916.531 373.833 916.531 382.688V396.359C914.448 398.443 912.625 400.135 911.062 401.438C909.5 402.74 907.286 403.391 904.422 403.391C899.995 403.391 895.698 401.568 891.531 397.922C887.365 394.016 884.63 390.109 883.328 386.203ZM1011.06 275.656C1010.54 268.885 1009.89 262.115 1009.11 255.344C1008.59 248.312 1007.68 241.411 1006.38 234.641C1006.38 228.911 1008.2 225.266 1011.84 223.703C1015.75 222.141 1019.92 221.359 1024.34 221.359H1032.16C1036.06 223.182 1038.8 225.396 1040.36 228C1041.92 230.604 1042.96 233.469 1043.48 236.594C1044.01 239.719 1044.14 242.974 1043.88 246.359C1043.88 249.745 1044.01 253 1044.27 256.125C1044.53 257.427 1044.66 259.641 1044.66 262.766C1044.66 265.891 1044.66 269.146 1044.66 272.531C1044.92 275.917 1045.18 279.042 1045.44 281.906C1045.96 284.771 1046.61 286.594 1047.39 287.375L1081.77 222.922C1083.33 220.057 1085.54 217.714 1088.41 215.891C1091.53 213.807 1094.92 213.026 1098.56 213.547C1104.29 214.068 1108.59 215.24 1111.45 217.062C1114.32 218.625 1116.27 220.839 1117.31 223.703C1118.61 226.307 1119.27 229.562 1119.27 233.469C1119.53 237.375 1119.79 241.672 1120.05 246.359C1120.05 247.922 1120.18 250.917 1120.44 255.344C1120.7 259.51 1120.96 263.938 1121.22 268.625C1121.74 273.312 1122.13 277.74 1122.39 281.906C1122.91 286.073 1123.3 288.938 1123.56 290.5H1125.12C1125.65 288.677 1126.56 285.161 1127.86 279.953C1129.42 274.745 1131.11 269.276 1132.94 263.547C1134.76 257.818 1136.45 252.349 1138.02 247.141C1139.58 241.932 1140.75 238.286 1141.53 236.203C1141.79 235.682 1142.31 234.641 1143.09 233.078C1143.88 231.255 1144.66 229.432 1145.44 227.609C1146.22 225.526 1147 223.703 1147.78 222.141C1148.56 220.318 1149.08 219.016 1149.34 218.234C1151.17 215.37 1152.99 213.938 1154.81 213.938C1156.9 213.677 1159.11 213.547 1161.45 213.547C1167.96 213.547 1172.91 215.24 1176.3 218.625C1179.94 221.75 1182.55 225.786 1184.11 230.734C1185.93 235.682 1187.23 241.151 1188.02 247.141C1188.8 252.87 1189.71 258.208 1190.75 263.156C1191.01 263.156 1191.14 263.417 1191.14 263.938C1191.14 264.198 1191.01 264.458 1190.75 264.719L1212.23 378.391C1213.28 379.432 1213.8 380.344 1213.8 381.125C1214.06 381.906 1214.19 382.948 1214.19 384.25C1214.19 387.115 1212.76 389.979 1209.89 392.844C1207.29 395.448 1204.55 396.75 1201.69 396.75C1197.78 396.75 1193.22 395.318 1188.02 392.453C1183.07 389.589 1180.2 385.943 1179.42 381.516L1161.45 288.938L1159.5 285.812C1158.98 287.115 1157.81 290.891 1155.98 297.141C1154.42 303.13 1152.47 310.812 1150.12 320.188C1147.78 329.302 1145.05 339.589 1141.92 351.047C1139.06 362.505 1136.06 374.224 1132.94 386.203C1132.42 388.547 1130.85 390.37 1128.25 391.672C1125.91 392.714 1123.82 393.234 1122 393.234C1116.53 393.234 1112.1 392.583 1108.72 391.281C1105.33 389.979 1102.73 388.026 1100.91 385.422C1099.08 382.818 1097.78 379.693 1097 376.047C1096.22 372.401 1095.57 368.234 1095.05 363.547C1095.05 362.505 1094.79 358.859 1094.27 352.609C1093.74 346.099 1093.09 338.807 1092.31 330.734C1091.79 322.401 1091.14 314.068 1090.36 305.734C1089.58 297.401 1089.06 290.76 1088.8 285.812C1088.8 284.771 1088.8 283.99 1088.8 283.469C1088.8 282.948 1088.8 282.557 1088.8 282.297C1088.8 281.776 1088.67 281.255 1088.41 280.734C1088.15 279.953 1087.62 278.781 1086.84 277.219L1075.52 304.172L1057.55 370.188L1053.64 394.406C1053.38 395.969 1052.6 397.401 1051.3 398.703C1050.26 399.745 1048.95 400.656 1047.39 401.438C1045.83 401.958 1044.27 402.349 1042.7 402.609C1041.14 402.87 1039.84 403 1038.8 403C1033.07 403 1028.12 400.917 1023.95 396.75C1020.05 392.583 1017.96 388.026 1017.7 383.078C1017.44 381.255 1017.18 377.74 1016.92 372.531C1016.66 367.062 1016.27 360.682 1015.75 353.391C1015.23 346.099 1014.71 338.417 1014.19 330.344C1013.93 322.271 1013.54 314.589 1013.02 307.297C1012.49 300.005 1011.97 293.625 1011.45 288.156C1011.19 282.688 1011.06 279.042 1011.06 277.219V275.656ZM1395.44 292.062C1394.92 296.75 1394.27 300.396 1393.48 303C1392.96 305.604 1391.92 307.948 1390.36 310.031C1388.8 312.115 1386.58 314.328 1383.72 316.672C1380.85 318.755 1376.95 321.88 1372 326.047C1367.05 329.953 1360.93 335.161 1353.64 341.672C1346.35 348.182 1337.49 356.646 1327.08 367.062C1322.91 370.969 1318.61 375.005 1314.19 379.172C1309.76 383.339 1305.07 387.115 1300.12 390.5C1295.44 393.625 1290.49 396.229 1285.28 398.312C1280.07 400.396 1274.6 401.438 1268.88 401.438C1257.68 401.438 1249.47 397.661 1244.27 390.109C1239.06 382.557 1236.45 373.833 1236.45 363.938C1236.45 357.427 1236.58 351.958 1236.84 347.531C1237.36 343.104 1238.41 337.375 1239.97 330.344C1237.1 327.74 1234.63 325.526 1232.55 323.703C1230.46 321.62 1229.42 318.885 1229.42 315.5C1229.42 312.375 1230.07 310.292 1231.38 309.25C1232.94 308.208 1234.63 307.557 1236.45 307.297C1238.54 306.776 1240.49 306.255 1242.31 305.734C1244.14 305.214 1245.44 304.172 1246.22 302.609C1246.74 301.047 1247.65 298.182 1248.95 294.016C1250.52 289.849 1252.08 285.552 1253.64 281.125C1255.2 276.438 1256.64 272.141 1257.94 268.234C1259.5 264.068 1260.54 261.203 1261.06 259.641C1262.89 255.214 1264.84 250.786 1266.92 246.359C1269.27 241.672 1271.87 237.505 1274.73 233.859C1277.86 230.214 1281.38 227.219 1285.28 224.875C1289.45 222.531 1294.27 221.359 1299.73 221.359C1302.86 221.359 1306.64 222.792 1311.06 225.656C1315.75 228.521 1320.18 232.036 1324.34 236.203C1328.51 240.109 1332.03 244.276 1334.89 248.703C1337.76 253.13 1339.19 256.906 1339.19 260.031C1339.19 263.938 1338.28 267.583 1336.45 270.969C1334.63 274.094 1332.29 277.089 1329.42 279.953C1326.82 282.557 1323.95 285.031 1320.83 287.375C1317.7 289.719 1314.84 291.932 1312.23 294.016C1311.97 294.016 1311.45 294.276 1310.67 294.797C1309.89 295.318 1309.24 295.708 1308.72 295.969C1308.46 296.229 1307.81 296.88 1306.77 297.922C1305.98 298.703 1305.07 299.615 1304.03 300.656C1302.99 301.698 1301.95 302.74 1300.91 303.781C1300.12 304.823 1299.6 305.474 1299.34 305.734C1298.56 306.516 1297 307.818 1294.66 309.641C1292.57 311.203 1290.23 313.026 1287.62 315.109C1285.02 316.932 1282.55 318.755 1280.2 320.578C1278.12 322.141 1276.69 323.182 1275.91 323.703L1274.34 326.828C1273.82 327.87 1273.3 330.214 1272.78 333.859C1272.52 337.245 1272.13 341.151 1271.61 345.578C1271.09 350.005 1270.57 354.562 1270.05 359.25C1269.79 363.677 1269.66 367.323 1269.66 370.188C1269.66 370.448 1269.79 370.708 1270.05 370.969C1270.57 371.49 1270.96 371.75 1271.22 371.75C1273.3 371.75 1275.26 370.839 1277.08 369.016C1278.9 367.193 1280.85 365.891 1282.94 365.109L1345.44 307.297L1361.45 282.688C1362.76 280.865 1365.23 278.911 1368.88 276.828C1372.78 274.484 1376.69 273.312 1380.59 273.312C1384.5 273.052 1387.89 274.224 1390.75 276.828C1393.88 279.432 1395.44 284.51 1395.44 292.062ZM1309.5 261.594C1310.8 260.552 1311.32 258.99 1311.06 256.906C1310.8 254.823 1310.02 253 1308.72 251.438C1307.68 249.875 1306.24 248.964 1304.42 248.703C1302.6 248.182 1300.91 249.094 1299.34 251.438C1298.56 252.479 1297.13 254.562 1295.05 257.688C1293.22 260.812 1291.27 264.068 1289.19 267.453C1287.36 270.578 1285.8 273.312 1284.5 275.656C1283.2 278 1282.94 278.911 1283.72 278.391L1309.5 261.594ZM387.625 612.375C386.062 608.99 384.76 606.255 383.719 604.172C382.938 602.089 382.547 599.615 382.547 596.75C382.547 594.406 382.807 592.323 383.328 590.5C384.109 588.417 384.5 586.203 384.5 583.859C384.5 578.13 384.24 572.792 383.719 567.844C383.458 562.896 383.068 557.427 382.547 551.438C382.286 550.656 381.375 550.005 379.812 549.484C378.25 548.964 376.557 548.312 374.734 547.531C372.911 546.49 371.219 545.057 369.656 543.234C368.354 541.411 367.703 538.807 367.703 535.422C367.703 532.297 368.354 529.693 369.656 527.609C371.219 525.266 372.781 523.182 374.344 521.359C375.906 519.276 377.339 517.193 378.641 515.109C380.203 512.766 380.984 510.031 380.984 506.906C380.984 505.604 380.854 503.26 380.594 499.875C380.333 496.229 380.073 492.453 379.812 488.547C379.812 484.641 379.682 480.995 379.422 477.609C379.422 473.964 379.422 471.49 379.422 470.188V469.406V468.625C380.464 466.281 381.245 464.328 381.766 462.766C382.547 461.203 383.328 460.031 384.109 459.25C384.891 458.469 385.932 457.948 387.234 457.688C388.536 457.167 390.229 456.906 392.312 456.906C397.781 456.906 401.818 457.948 404.422 460.031C407.026 462.115 408.849 464.589 409.891 467.453C410.932 470.057 411.583 472.531 411.844 474.875C412.104 477.219 412.755 478.521 413.797 478.781L441.922 454.172H443.484C452.599 448.182 462.234 443.625 472.391 440.5C482.547 437.115 493.224 435.422 504.422 435.422C507.807 435.422 511.844 435.812 516.531 436.594C521.479 437.375 526.036 438.807 530.203 440.891C534.63 442.714 538.276 445.188 541.141 448.312C544.266 451.438 545.828 455.344 545.828 460.031C545.828 465.24 545.177 470.578 543.875 476.047C542.573 481.516 540.75 486.984 538.406 492.453C536.323 497.661 533.719 502.74 530.594 507.688C527.729 512.375 524.604 516.411 521.219 519.797C519.917 522.661 511.583 529.953 496.219 541.672C480.854 553.391 457.938 570.839 427.469 594.016L614.969 605.734C617.573 605.995 621.089 606.255 625.516 606.516C630.203 606.516 634.63 606.906 638.797 607.688C643.224 608.469 647 610.031 650.125 612.375C653.25 614.458 654.812 617.714 654.812 622.141C654.812 624.484 654.422 626.438 653.641 628C653.12 629.302 652.339 630.474 651.297 631.516C650.516 632.297 649.474 633.078 648.172 633.859C647.13 634.641 646.089 635.682 645.047 636.984H638.406H631.766C626.557 636.464 621.089 635.812 615.359 635.031C609.891 634.25 603.38 633.339 595.828 632.297C588.536 631.255 579.943 630.214 570.047 629.172C560.151 628.13 548.302 627.219 534.5 626.438C520.698 625.656 504.552 625.005 486.062 624.484C467.833 623.964 446.609 623.703 422.391 623.703C422.13 623.703 421.74 624.094 421.219 624.875C420.958 625.656 420.828 626.307 420.828 626.828C420.828 636.724 421.609 646.49 423.172 656.125C424.995 665.5 425.906 674.875 425.906 684.25C425.906 686.073 425.646 688.156 425.125 690.5C424.865 692.583 424.214 694.667 423.172 696.75C422.13 698.573 420.828 700.135 419.266 701.438C417.703 702.74 415.75 703.391 413.406 703.391C411.844 703.391 410.021 703.13 407.938 702.609C405.854 701.828 403.771 700.786 401.688 699.484C399.865 698.182 398.172 696.75 396.609 695.188C395.047 693.625 394.135 691.802 393.875 689.719L387.625 612.375ZM413.797 526.047C413.797 532.557 413.927 538.677 414.188 544.406C414.448 550.135 414.839 556.385 415.359 563.156H416.531C416.792 563.156 417.443 562.896 418.484 562.375C419.526 561.854 422.13 560.292 426.297 557.688C430.464 554.823 436.844 550.526 445.438 544.797C454.031 538.807 466.141 530.474 481.766 519.797C484.891 517.974 488.276 514.849 491.922 510.422C495.568 505.995 498.953 501.177 502.078 495.969C505.203 490.76 507.807 485.682 509.891 480.734C511.974 475.526 513.016 471.229 513.016 467.844C513.016 465.24 511.714 463.938 509.109 463.938C506.766 463.938 504.682 463.938 502.859 463.938C498.953 463.938 494.526 464.589 489.578 465.891C484.63 467.193 478.641 469.797 471.609 473.703C464.839 477.609 456.635 483.208 447 490.5C437.625 497.792 426.557 507.557 413.797 519.797V526.047ZM757.938 594.016C755.594 598.182 752.859 603.26 749.734 609.25C746.87 614.979 743.745 621.229 740.359 628C736.974 634.51 733.198 641.151 729.031 647.922C725.125 654.432 720.958 660.422 716.531 665.891C712.365 671.359 707.938 676.047 703.25 679.953C698.562 683.599 693.745 685.812 688.797 686.594C686.714 686.594 684.37 686.464 681.766 686.203C679.161 685.682 676.557 685.031 673.953 684.25C671.349 683.208 669.135 681.906 667.312 680.344C665.75 678.521 664.969 676.177 664.969 673.312C665.229 646.75 667.182 622.661 670.828 601.047C674.474 579.172 680.203 560.031 688.016 543.625C695.828 526.958 705.854 513.156 718.094 502.219C730.333 491.281 745.177 483.469 762.625 478.781C763.146 478.781 764.057 478.781 765.359 478.781C766.922 478.521 767.964 478.391 768.484 478.391C776.297 478.13 781.896 481.776 785.281 489.328C788.927 496.62 791.531 508.339 793.094 524.484C794.917 540.37 796.089 560.943 796.609 586.203C797.391 611.203 798.823 641.281 800.906 676.438C801.688 679.302 802.078 681.776 802.078 683.859C802.339 685.943 802.469 688.417 802.469 691.281C802.469 695.188 801.297 698.182 798.953 700.266C796.609 702.089 793.615 703 789.969 703C782.417 703 777.078 700.917 773.953 696.75C770.828 692.583 768.745 686.984 767.703 679.953C767.703 679.693 767.443 677.609 766.922 673.703C766.661 669.797 766.141 665.37 765.359 660.422C764.839 655.214 764.318 650.005 763.797 644.797C763.276 639.589 762.885 635.292 762.625 631.906V630.344C762.104 627.74 761.714 624.484 761.453 620.578C761.453 616.672 761.193 612.896 760.672 609.25C760.151 604.823 759.76 600.396 759.5 595.969L757.938 594.016ZM749.344 516.672C742.312 521.88 735.411 528.911 728.641 537.766C721.87 546.62 717.052 555.214 714.188 563.547C712.885 567.453 711.453 572.792 709.891 579.562C708.328 586.333 706.896 593.104 705.594 599.875C704.552 606.385 703.641 612.505 702.859 618.234C702.078 623.703 701.688 627.219 701.688 628.781C701.948 628.781 702.208 628.521 702.469 628C702.99 627.479 703.38 627.089 703.641 626.828C719.786 611.203 731.115 594.406 737.625 576.438C744.396 558.208 748.302 538.286 749.344 516.672ZM934.109 689.719C930.464 684.51 927.339 677.349 924.734 668.234C922.391 658.859 920.047 649.094 917.703 638.938C915.62 628.521 913.667 618.495 911.844 608.859C910.021 598.964 908.068 591.151 905.984 585.422C904.161 579.432 902.078 576.047 899.734 575.266C897.391 574.484 894.656 578 891.531 585.812L857.547 690.5C856.245 694.146 854.682 696.75 852.859 698.312C851.036 699.615 848.042 700.266 843.875 700.266C841.792 700.266 839.578 700.005 837.234 699.484C834.891 698.703 832.677 697.661 830.594 696.359C828.51 695.057 826.688 693.495 825.125 691.672C823.823 689.849 823.042 687.766 822.781 685.422C823.562 682.297 824.214 676.568 824.734 668.234C825.516 659.901 826.036 650.266 826.297 639.328C826.557 628.391 826.688 616.932 826.688 604.953C826.948 592.714 826.948 581.385 826.688 570.969C826.688 560.292 826.557 551.177 826.297 543.625C826.036 535.812 825.776 530.734 825.516 528.391C825.516 525.786 825.516 523.182 825.516 520.578C825.776 517.714 826.167 515.109 826.688 512.766C827.469 510.422 828.641 508.599 830.203 507.297C832.026 505.734 834.76 504.953 838.406 504.953C843.354 504.953 847.911 507.036 852.078 511.203C856.505 515.37 858.719 519.797 858.719 524.484C858.719 531.255 858.328 538.026 857.547 544.797C857.026 551.307 856.766 557.948 856.766 564.719C856.766 568.885 856.766 572.401 856.766 575.266C856.766 578.13 857.286 581.646 858.328 585.812C859.109 583.729 860.411 580.083 862.234 574.875C864.057 569.667 866.01 564.198 868.094 558.469C870.438 552.74 872.521 547.401 874.344 542.453C876.167 537.245 877.469 533.599 878.25 531.516C880.073 526.307 882.807 521.359 886.453 516.672C890.099 511.724 894.917 508.99 900.906 508.469C904.812 508.208 908.328 509.25 911.453 511.594C914.839 513.938 917.703 517.062 920.047 520.969C922.391 524.615 924.344 528.521 925.906 532.688C927.469 536.594 928.641 539.979 929.422 542.844L950.516 640.109L966.922 684.641C967.182 684.901 967.312 685.682 967.312 686.984C967.312 688.026 967.312 688.807 967.312 689.328C967.312 692.453 966.531 695.578 964.969 698.703C963.667 701.568 961.193 703 957.547 703C953.12 703 948.562 701.828 943.875 699.484C939.188 696.88 935.932 693.625 934.109 689.719ZM985.672 643.234L1000.12 542.844C1000.65 539.458 1002.08 536.984 1004.42 535.422C1007.03 533.859 1009.89 533.078 1013.02 533.078C1018.74 533.078 1023.3 534.771 1026.69 538.156C1030.07 541.281 1032.94 545.188 1035.28 549.875H1035.67C1038.8 549.875 1041.53 549.354 1043.88 548.312C1046.48 547.01 1049.6 546.359 1053.25 546.359C1061.58 546.359 1068.61 548.964 1074.34 554.172C1080.33 559.38 1085.15 565.76 1088.8 573.312C1092.44 580.604 1095.05 588.547 1096.61 597.141C1098.43 605.734 1099.34 613.286 1099.34 619.797C1099.34 627.609 1097.26 636.333 1093.09 645.969C1089.19 655.604 1083.85 664.719 1077.08 673.312C1070.57 681.906 1063.15 689.068 1054.81 694.797C1046.48 700.526 1038.02 703.391 1029.42 703.391C1021.61 703.391 1014.84 701.568 1009.11 697.922C1003.64 694.276 999.083 689.719 995.438 684.25C992.052 678.521 989.578 672.141 988.016 665.109C986.453 658.078 985.672 651.177 985.672 644.406V643.234ZM1018.48 645.578C1019.01 648.182 1019.53 651.177 1020.05 654.562C1020.57 657.948 1021.35 661.073 1022.39 663.938C1023.43 666.542 1024.86 668.625 1026.69 670.188C1028.77 671.49 1031.64 671.49 1035.28 670.188C1038.67 667.062 1042.31 663.547 1046.22 659.641C1050.12 655.734 1053.77 651.568 1057.16 647.141C1060.8 642.714 1063.8 638.026 1066.14 633.078C1068.48 628.13 1069.66 622.922 1069.66 617.453C1070.7 608.599 1070.05 600.526 1067.7 593.234C1065.36 585.682 1061.97 580.344 1057.55 577.219C1053.38 573.833 1048.56 573.443 1043.09 576.047C1037.62 578.391 1032.16 585.031 1026.69 595.969C1023.56 602.74 1021.35 610.682 1020.05 619.797C1019.01 628.651 1018.48 636.854 1018.48 644.406V645.578ZM1194.66 810.422C1194.14 804.953 1193.74 798.312 1193.48 790.5C1193.48 782.688 1193.48 774.484 1193.48 765.891C1193.48 757.297 1193.48 748.573 1193.48 739.719C1193.74 730.865 1194.14 722.792 1194.66 715.5V701.438C1193.35 699.615 1191.79 697.792 1189.97 695.969C1188.15 693.885 1184.89 689.979 1180.2 684.25C1175.78 678.26 1169.4 669.536 1161.06 658.078C1152.73 646.359 1141.53 630.083 1127.47 609.25C1122 603.521 1118.48 598.833 1116.92 595.188C1115.36 591.281 1114.84 588.156 1115.36 585.812C1115.88 583.469 1117.18 581.776 1119.27 580.734C1121.61 579.693 1123.82 579.172 1125.91 579.172C1131.11 579.172 1135.8 580.344 1139.97 582.688C1144.14 585.031 1147.91 588.026 1151.3 591.672C1154.68 595.318 1157.68 599.354 1160.28 603.781C1163.15 607.948 1165.88 611.984 1168.48 615.891C1170.05 618.234 1172 621.229 1174.34 624.875C1176.69 628.521 1179.03 632.167 1181.38 635.812C1183.72 639.198 1185.67 642.193 1187.23 644.797C1189.06 647.401 1189.97 648.703 1189.97 648.703L1194.66 653.781V612.766C1194.66 599.745 1194.4 587.115 1193.88 574.875C1193.35 562.375 1193.09 549.745 1193.09 536.984C1193.09 533.339 1194.4 530.344 1197 528C1199.6 525.656 1202.73 524.615 1206.38 524.875C1210.8 525.396 1214.06 526.177 1216.14 527.219C1218.48 528.26 1220.83 530.344 1223.17 533.469C1225.26 536.333 1226.17 539.719 1225.91 543.625C1225.91 547.531 1226.04 551.307 1226.3 554.953C1227.34 579.693 1228.12 604.432 1228.64 629.172C1229.42 653.651 1229.81 678.26 1229.81 703C1229.55 705.344 1229.42 710.031 1229.42 717.062C1229.42 724.354 1229.42 732.557 1229.42 741.672C1229.68 750.786 1229.81 760.292 1229.81 770.188C1230.07 780.083 1230.2 789.068 1230.2 797.141C1230.46 805.474 1230.59 812.245 1230.59 817.453C1230.85 822.922 1231.11 825.526 1231.38 825.266C1231.38 829.172 1229.94 832.036 1227.08 833.859C1224.47 835.682 1221.22 836.594 1217.31 836.594C1212.1 836.594 1208.2 835.812 1205.59 834.25C1203.25 832.948 1201.43 830.995 1200.12 828.391C1198.82 826.047 1197.91 823.312 1197.39 820.188C1196.87 817.062 1195.96 813.807 1194.66 810.422ZM1341.14 594.016C1338.8 598.182 1336.06 603.26 1332.94 609.25C1330.07 614.979 1326.95 621.229 1323.56 628C1320.18 634.51 1316.4 641.151 1312.23 647.922C1308.33 654.432 1304.16 660.422 1299.73 665.891C1295.57 671.359 1291.14 676.047 1286.45 679.953C1281.77 683.599 1276.95 685.812 1272 686.594C1269.92 686.594 1267.57 686.464 1264.97 686.203C1262.36 685.682 1259.76 685.031 1257.16 684.25C1254.55 683.208 1252.34 681.906 1250.52 680.344C1248.95 678.521 1248.17 676.177 1248.17 673.312C1248.43 646.75 1250.39 622.661 1254.03 601.047C1257.68 579.172 1263.41 560.031 1271.22 543.625C1279.03 526.958 1289.06 513.156 1301.3 502.219C1313.54 491.281 1328.38 483.469 1345.83 478.781C1346.35 478.781 1347.26 478.781 1348.56 478.781C1350.12 478.521 1351.17 478.391 1351.69 478.391C1359.5 478.13 1365.1 481.776 1368.48 489.328C1372.13 496.62 1374.73 508.339 1376.3 524.484C1378.12 540.37 1379.29 560.943 1379.81 586.203C1380.59 611.203 1382.03 641.281 1384.11 676.438C1384.89 679.302 1385.28 681.776 1385.28 683.859C1385.54 685.943 1385.67 688.417 1385.67 691.281C1385.67 695.188 1384.5 698.182 1382.16 700.266C1379.81 702.089 1376.82 703 1373.17 703C1365.62 703 1360.28 700.917 1357.16 696.75C1354.03 692.583 1351.95 686.984 1350.91 679.953C1350.91 679.693 1350.65 677.609 1350.12 673.703C1349.86 669.797 1349.34 665.37 1348.56 660.422C1348.04 655.214 1347.52 650.005 1347 644.797C1346.48 639.589 1346.09 635.292 1345.83 631.906V630.344C1345.31 627.74 1344.92 624.484 1344.66 620.578C1344.66 616.672 1344.4 612.896 1343.88 609.25C1343.35 604.823 1342.96 600.396 1342.7 595.969L1341.14 594.016ZM1332.55 516.672C1325.52 521.88 1318.61 528.911 1311.84 537.766C1305.07 546.62 1300.26 555.214 1297.39 563.547C1296.09 567.453 1294.66 572.792 1293.09 579.562C1291.53 586.333 1290.1 593.104 1288.8 599.875C1287.76 606.385 1286.84 612.505 1286.06 618.234C1285.28 623.703 1284.89 627.219 1284.89 628.781C1285.15 628.781 1285.41 628.521 1285.67 628C1286.19 627.479 1286.58 627.089 1286.84 626.828C1302.99 611.203 1314.32 594.406 1320.83 576.438C1327.6 558.208 1331.51 538.286 1332.55 516.672Z" fill="#EDAE00"/>
</svg>
