<svg width="4015" height="2297" viewBox="0 0 4015 2297" fill="none" xmlns="http://www.w3.org/2000/svg">
<g clip-path="url(#clip0_101_279)">
<rect width="4015" height="2297" fill="white"/>
<rect width="4015" height="2297" fill="#555113"/>
<path d="M-943 1719.87C-639 1439.87 -239 1535.87 9 1319.87C257 1103.87 45 878.177 9 799.873C-47.8093 676.306 -103 279.873 409 175.873C921 71.8726 1761 319.873 2449 -232.127C2999.4 -673.727 3531.67 -698.794 3729 -656.127" stroke="white" stroke-opacity="0.3"/>
<path d="M-993 1699.87C-689 1419.87 -289 1515.87 -41 1299.87C207 1083.87 -5 858.177 -41 779.873C-97.8093 656.306 -153 259.873 359 155.873C871 51.8726 1711 299.873 2399 -252.127C2949.4 -693.727 3481.67 -718.794 3679 -676.127" stroke="white" stroke-opacity="0.3"/>
<path d="M-1153 1689.87C-849 1409.87 -449 1505.87 -201 1289.87C47 1073.87 -165 848.177 -201 769.873C-257.809 646.306 -313 249.873 199 145.873C711 41.8726 1551 289.873 2239 -262.127C2789.4 -703.727 3321.67 -728.794 3519 -686.127" stroke="white" stroke-opacity="0.3"/>
<path d="M-1188.25 1611.18C-878.282 1337.81 -480.447 1442.42 -227.843 1231.82C24.761 1021.22 -182.319 791.002 -216.62 711.939C-270.75 587.175 -317.372 189.643 196.754 96.7173C710.879 3.79149 1545.33 269.862 2245.08 -267.161C2804.89 -696.779 3337.57 -710.353 3533.94 -663.437" stroke="white" stroke-opacity="0.3"/>
<path d="M-1284.5 1568.18C-970.863 1299.02 -574.477 1408.99 -319.052 1201.83C-63.6262 994.661 -267.578 761.667 -300.808 682.148C-353.247 556.664 -394.496 158.538 120.838 72.5652C636.171 -13.4081 1466.95 263.909 2173.9 -263.613C2739.45 -685.632 3272.27 -692.009 3467.98 -642.446" stroke="white" stroke-opacity="0.3"/>
<path d="M-1388.76 1500.35C-1069.68 1237.66 -675.627 1355.72 -416.018 1153.82C-156.41 951.917 -355.554 714.8 -387.152 634.618C-437.014 508.089 -470.112 109.203 46.8716 33.7856C563.855 -41.6315 1388.79 252.617 2106.37 -260.339C2680.44 -670.704 3213.28 -666.184 3407.94 -612.629" stroke="white" stroke-opacity="0.3"/>
<path d="M-1492.48 1421.75C-1167.22 1166.76 -776.101 1294.19 -511.744 1098.55C-247.388 902.909 -440.811 661.104 -470.485 580.19C-517.31 452.506 -540.872 52.9429 -22.2343 -10.1043C496.403 -73.1515 1314.08 240.717 2043.71 -254.953C2627.41 -651.489 3159.99 -634.244 3353.31 -576.054" stroke="white" stroke-opacity="0.3"/>
<path d="M-814.492 1850.64C-512.158 1561.87 -105.837 1651.64 141.031 1428.63C387.899 1205.62 169.345 981.235 131.499 902.698C71.7767 778.764 8.68963 378.822 524.621 264.251C1040.55 149.679 1894.68 385.109 2580.4 -185.797C3128.98 -642.521 3666.86 -677.631 3867.23 -638.095" stroke="white" stroke-opacity="0.3"/>
<path d="M-721.337 1944.86C-427.313 1646.52 -17.6866 1724.11 222.784 1493.3C463.254 1262.49 237.587 1044.4 197.308 966.897C133.745 844.593 58.4533 445.984 571.66 315.62C1084.87 185.256 1947.36 395.155 2616.78 -197.345C3152.32 -671.346 3689.91 -722.798 3891.76 -689.274" stroke="white" stroke-opacity="0.3"/>
<path d="M-444.687 1952.48C-169.909 1655.83 232.257 1712.43 457.504 1482.38C682.75 1252.33 454.313 1054.11 412.026 981.98C345.294 868.153 256.292 491.598 751.223 345.711C1246.15 199.823 2094.76 363.324 2723.77 -229.425C3226.98 -703.624 3748.76 -775.367 3946.75 -751.963" stroke="white" stroke-opacity="0.3"/>
<path d="M-317.946 2054.9C-53.1603 1745.88 353.488 1787.14 571.055 1547.02C788.622 1306.9 551.173 1116.44 505.838 1045.55C434.297 933.676 330.131 558.453 822.186 392.471C1314.24 226.489 2174.02 357.878 2783.52 -262.717C3271.11 -759.194 3793.06 -851.656 3993.09 -835.828" stroke="white" stroke-opacity="0.3"/>
<path d="M-284.371 2037.47C-7.42541 1739.3 397.245 1796.8 624.251 1565.59C851.257 1334.37 621.625 1134.56 579.164 1061.91C512.16 947.263 423.101 568.171 921.406 422.022C1419.71 275.874 2273.54 441.582 2907.4 -154.113C3414.48 -630.669 3939.71 -702.16 4138.94 -678.335" stroke="white" stroke-opacity="0.3"/>
<path d="M-248.328 2043.56C38.3327 1754.71 440.878 1825.58 675.411 1602C909.944 1378.42 687.049 1171.13 647.015 1097.11C583.842 980.308 507.375 598.476 1010.24 468.896C1513.11 339.317 2360.99 533.187 3014.21 -41.208C3536.79 -500.724 4064.1 -554.796 4262.43 -524.392" stroke="white" stroke-opacity="0.3"/>
<path d="M-228.844 2041.03C69.2972 1764.05 468.637 1851.18 712.046 1637.3C955.455 1423.42 741.151 1207.26 704.153 1131.68C645.769 1012.41 584.854 627.787 1092.57 518.712C1600.28 409.637 2439.59 637.74 3115.57 90.315C3656.36 -347.625 4185.43 -380.263 4382.36 -341.84" stroke="white" stroke-opacity="0.3"/>
<path d="M-173.447 2042.47C130.431 1771.79 527.858 1867.28 775.694 1658.54C1023.53 1449.81 813.802 1229.2 778.396 1152.86C722.523 1032.39 669.679 646.583 1179.56 548.168C1689.45 449.753 2523.8 695.389 3211.1 162.245C3760.94 -264.271 4290.58 -285.818 4486.67 -243.277" stroke="white" stroke-opacity="0.3"/>
<path d="M-159.003 2060.29C155.348 1794.11 555.068 1900.81 811.141 1695.89C1067.21 1490.97 860.595 1262.42 826.705 1184.28C773.226 1060.96 729.543 669.233 1247.98 582.587C1766.41 495.941 2604.43 765.662 3313.41 243.63C3880.6 -173.995 4417.06 -182.36 4614.4 -134.339" stroke="white" stroke-opacity="0.3"/>
<path d="M-133.563 2061.35C188.887 1799.17 589.949 1914.84 852.38 1713.28C1114.81 1511.72 910.985 1277.02 878.372 1197.52C826.907 1072.05 790.723 676.024 1315.42 599.052C1840.12 522.079 2680.03 811.012 3405.71 298.687C3986.24 -111.174 4527.56 -108.819 4725.65 -56.4096" stroke="white" stroke-opacity="0.3"/>
<path d="M-126.619 2055.97C202.831 1802.65 600.604 1929.17 868.411 1734.81C1136.22 1540.45 938.842 1300.3 908.4 1219.94C860.36 1093.12 834.944 696.256 1361.54 633.56C1888.14 570.863 2719.89 882.498 3459.21 390.067C4050.66 -3.87827 4591.72 13.1745 4788.31 70.944" stroke="white" stroke-opacity="0.3"/>
<path d="M-110.251 2075.78C225.274 1830.56 619.847 1966.73 892.31 1778.96C1164.77 1591.18 973.307 1346.3 944.832 1265.21C899.897 1137.27 884.158 739.899 1412.13 690.053C1940.09 640.207 2764.01 972.015 3515.11 497.744C4115.98 118.328 4656.46 148.559 4851.59 211.102" stroke="white" stroke-opacity="0.3"/>
<path d="M-92.1345 2077.81C249.192 1840.73 640.374 1986.36 917.276 1805.19C1194.18 1624.02 1008.66 1374.6 982.14 1292.86C940.296 1163.87 934.12 766.239 1463.13 729.107C1992.15 691.975 2807.84 1043.51 3570.13 587.44C4179.96 222.587 4719.56 265.81 4913.12 333.029" stroke="white" stroke-opacity="0.3"/>
<path d="M-81.0821 2103.12C268.661 1874.74 657.495 2032.29 940.904 1858.23C1224.31 1684.17 1045.09 1428.25 1020.8 1345.36C982.463 1214.55 987.685 814.88 1520.25 792.777C2052.82 770.674 2862.24 1147.3 3641.21 710.997C4264.39 361.956 4805.28 420.889 4997.83 493.986" stroke="white" stroke-opacity="0.3"/>
<path d="M-78.9574 2133.08C283.232 1911.38 673.685 2083.04 966.852 1914.57C1260.02 1746.11 1085.49 1480.72 1063.27 1395.77C1028.2 1261.71 1045.38 855.715 1587.22 849.07C2129.07 842.425 2940.42 1249.19 3744.96 828.952C4388.6 492.766 4936.5 568.717 5129.99 648.715" stroke="white" stroke-opacity="0.3"/>
<path d="M-68.1625 2156.14C306.712 1937.76 701.704 2121.77 1004.89 1956.22C1308.08 1790.68 1135.73 1515.72 1114.92 1428.46C1082.08 1290.75 1108.66 876.45 1662.25 881.717C2215.84 886.984 3035.51 1320.5 3866.62 909.173C4531.52 580.11 5089.45 669.876 5285.31 755.892" stroke="white" stroke-opacity="0.3"/>
<path d="M-52.2779 2187.74C334.492 1978.55 728.715 2177.65 1041.17 2019.69C1353.63 1861.72 1187.86 1577.65 1169.58 1488.58C1140.74 1348.03 1180.97 929.188 1741.6 952.307C2302.23 975.426 3118.64 1440.92 3973.79 1050.93C4657.91 738.945 5220.23 847.803 5415.87 941.23" stroke="white" stroke-opacity="0.3"/>
<path d="M-77.241 2239.14C331.52 2043.94 726.81 2269.19 1056.46 2122.85C1386.11 1976.51 1230.27 1675.66 1216.07 1583.07C1193.68 1436.97 1256.76 1008.12 1832.37 1060.94C2407.98 1113.75 3223.85 1634.95 4123.86 1277.98C4843.88 992.412 5416.78 1133.52 5613.23 1239.78" stroke="white" stroke-opacity="0.3"/>
<path d="M20.3572 2435.08C419.289 2220.51 824.925 2426.55 1147.18 2264.57C1469.43 2102.59 1299.34 1809.56 1280.73 1717.76C1251.35 1572.9 1293.8 1141.52 1871.28 1166.68C2448.76 1191.83 3288.68 1673.31 4170.55 1273.6C4876.04 953.839 5455.05 1067.32 5656.37 1164.03" stroke="white" stroke-opacity="0.3"/>
<path d="M90.3572 2475.08C489.289 2260.51 894.925 2466.55 1217.18 2304.57C1539.43 2142.59 1369.34 1849.56 1350.73 1757.76C1321.35 1612.9 1363.8 1181.52 1941.28 1206.68C2518.76 1231.83 3358.68 1713.31 4240.55 1313.6C4946.04 993.839 5525.05 1107.32 5726.37 1204.03" stroke="white" stroke-opacity="0.3"/>
<path d="M150.594 2502.21C542.436 2291.46 940.862 2493.84 1257.39 2334.74C1573.92 2175.63 1406.85 1887.81 1388.56 1797.64C1359.71 1655.35 1401.4 1231.65 1968.62 1256.35C2535.84 1281.06 3360.83 1753.98 4227.02 1361.38C4919.98 1047.3 5488.7 1158.77 5686.44 1253.76" stroke="white" stroke-opacity="0.3"/>
<path d="M180 2559C574.243 2344.82 974.296 2548.97 1292.74 2387.24C1611.19 2225.51 1443.84 1934.39 1425.63 1843.12C1396.91 1699.09 1439.64 1269.96 2009.69 1293.87C2579.74 1317.77 3407.99 1795.04 4279.35 1395.79C4976.44 1076.4 5547.83 1188.15 5746.39 1283.96" stroke="white" stroke-opacity="0.3"/>
<path d="M246.781 2682.91C634.368 2456.91 1040.41 2648.87 1353.82 2477.59C1667.23 2306.31 1491.15 2020.37 1470.2 1929.69C1437.14 1786.6 1466.87 1356.37 2037.39 1363.03C2607.9 1369.7 3450.2 1821.71 4309.09 1396.29C4996.2 1055.96 5570.71 1150.39 5772.07 1240.15" stroke="white" stroke-opacity="0.3"/>
<path d="M290.145 2751.82C673.664 2518.98 1083.05 2703.71 1393.37 2526.9C1703.69 2350.08 1522.57 2067.32 1500.02 1977.02C1464.42 1834.54 1486.52 1403.85 2057.06 1400.39C2627.6 1396.94 3477.79 1833.94 4329 1393.36C5009.97 1040.9 5586.06 1125.13 5788.98 1211.3" stroke="white" stroke-opacity="0.3"/>
<path d="M330.273 2803.4C711.089 2566.16 1122.57 2746.18 1430.84 2565.81C1739.11 2385.44 1554.75 2104.77 1531.15 2014.74C1493.92 1872.68 1511.07 1441.76 2081.53 1431.75C2652 1421.73 3507.15 1848.93 4353.24 1398.59C5030.11 1038.32 5607.13 1115.92 5811.04 1199.76" stroke="white" stroke-opacity="0.3"/>
<path d="M392.753 2899.96C767.131 2652.7 1183.25 2821.71 1486.62 2633.21C1789.98 2444.72 1598.23 2169.05 1572.26 2079.68C1531.26 1938.65 1536.95 1507.44 2106.95 1482.27C2676.94 1457.09 3543.15 1861.42 4376.97 1388.76C5044.03 1010.63 5622.91 1072.87 5828.97 1151.26" stroke="white" stroke-opacity="0.3"/>
<path d="M424.543 2902.87C800.676 2658.28 1215.58 2830.26 1520.28 2643.93C1824.99 2457.6 1635.21 2180.57 1609.87 2091.02C1569.88 1949.71 1578.65 1518.54 2148.81 1497.44C2718.98 1476.34 3582.27 1886.84 4419.45 1420.14C5089.19 1046.79 5667.61 1113.16 5873.1 1193.01" stroke="white" stroke-opacity="0.3"/>
<path d="M471.207 2969.58C842.945 2718.36 1260.83 2882.96 1562.18 2691.25C1863.54 2499.55 1668.87 2225.93 1641.95 2136.85C1599.47 1996.26 1600.59 1565.01 2170.29 1533.8C2739.98 1502.59 3610.42 1897.71 4439.19 1416.25C5102.21 1031.07 5681.71 1087.18 5888.59 1163.37" stroke="white" stroke-opacity="0.3"/>
<path d="M513.798 3019.15C882.622 2763.67 1302.37 2923.45 1601.5 2728.3C1900.63 2533.14 1702.83 2261.78 1674.89 2173.01C1630.79 2032.92 1626.95 1601.68 2196.25 1563.92C2765.55 1526.17 3640.48 1911.26 4463.66 1420.29C5122.2 1027.52 5702.31 1076.95 5910.05 1150.77" stroke="white" stroke-opacity="0.3"/>
<path d="M580.902 3112.56C942.807 2847.37 1366.65 2995.94 1660.49 2792.91C1954.33 2589.88 1749.39 2323.86 1719.1 2235.87C1671.29 2097 1656 1666.02 2224.1 1613.15C2792.19 1560.27 3677.04 1921.98 4486.88 1409.32C5134.76 999.185 5715.98 1033.19 5925.61 1101.46" stroke="white" stroke-opacity="0.3"/>
<path d="M605.915 3111.51C970.316 2849.76 1392.74 3002.33 1688.48 2802.09C1984.23 2601.85 1781.83 2333.91 1752.37 2245.63C1705.88 2106.32 1694.67 1675.21 2263.24 1627.72C2831.81 1580.23 3713.19 1950.3 4527.85 1445.33C5179.58 1041.35 5760.46 1080.86 5969.43 1151.1" stroke="white" stroke-opacity="0.3"/>
<path d="M655.621 3175.99C1015.32 2907.82 1440.38 3052.88 1732.53 2847.42C2024.68 2641.97 1817.56 2377.66 1786.54 2289.92C1737.58 2151.45 1718.73 1720.61 2286.37 1663.04C2854.01 1605.48 3741.82 1959.86 4547.39 1440.52C5191.86 1025.05 5773.34 1054.25 5983.52 1120.78" stroke="white" stroke-opacity="0.3"/>
<path d="M700.461 3223.53C1057.05 2951.24 1483.76 3091.41 1773.52 2882.61C2063.29 2673.8 1853.14 2411.89 1821.11 2324.51C1770.57 2186.62 1746.77 1756.02 2313.7 1691.93C2880.64 1627.85 3772.47 1971.99 4572.02 1443.43C5211.66 1020.57 5793.44 1043.08 6004.38 1107.2" stroke="white" stroke-opacity="0.3"/>
<path d="M771.82 3313.73C1121.05 3032.06 1551.33 3160.84 1835.45 2944.42C2119.56 2727.99 1902.53 2471.76 1868.19 2385.26C1814 2248.76 1778.76 1818.94 2343.8 1739.81C2908.83 1660.68 3809.49 1981.01 4594.71 1431.39C5222.89 991.688 5805.07 998.732 6017.63 1057.22" stroke="white" stroke-opacity="0.3"/>
<path d="M894.238 3376.37C1230.27 3091.35 1655.83 3207.34 1929.51 2987.96C2203.2 2768.57 1983.89 2522.28 1948.08 2438.19C1891.57 2305.49 1846.53 1884.37 2399.35 1792.96C2952.17 1701.55 3844.19 1994.17 4601.75 1435.49C5207.81 988.552 5779.54 981.33 5989.65 1033.59" stroke="white" stroke-opacity="0.3"/>
<path d="M992.026 3501.65C1311.43 3205.69 1736.61 3301.76 1997.31 3073.3C2258.01 2844.85 2030.82 2611.19 1991.82 2529.72C1930.27 2401.16 1867.56 1987.33 2409.39 1873.13C2951.22 1758.92 3844.59 2009.17 4568.32 1424.76C5147.31 957.231 5711.47 925.323 5921.17 967.81" stroke="white" stroke-opacity="0.3"/>
<path d="M1041.05 3523.7C1354.49 3228.76 1775.44 3320.48 2031.37 3092.71C2287.3 2864.94 2060.98 2635.72 2021.82 2555.5C1960.01 2428.9 1894.89 2020.38 2429.54 1903.39C2964.19 1786.4 3849.05 2026.95 4559.92 1443.86C5128.61 977.378 5685.96 941.559 5893.54 981.96" stroke="white" stroke-opacity="0.3"/>
<path d="M1139.19 3568.74C1441.68 3271.38 1858.44 3352.69 2105.71 3122.75C2352.98 2892.81 2125.04 2671.83 2084.72 2593.62C2021.1 2470.22 1948.13 2069.09 2472.42 1942.3C2996.71 1815.51 3873.77 2033.47 4561.65 1443.62C5111.95 971.739 5660.35 924.441 5865.76 959.777" stroke="white" stroke-opacity="0.3"/>
<path d="M1229.14 3646.63C1519.74 3344.05 1934.08 3412.6 2172.01 3178.24C2409.94 2943.88 2178.31 2731.89 2136.23 2655.71C2069.82 2535.51 1986.29 2141.01 2501.03 2000.77C3015.77 1860.53 3889.06 2051.1 4552.38 1448.4C5083.03 966.239 5623.86 903.9 5827.94 933" stroke="white" stroke-opacity="0.3"/>
<path d="M1407.64 3694.03C1686 3387.32 2096.82 3443.42 2325.1 3205.5C2553.37 2967.58 2318.87 2764.82 2275.22 2690.82C2206.33 2574.05 2112.89 2187.05 2616.97 2034.29C3121.05 1881.54 3988.21 2045.27 4626.03 1431.98C5136.28 941.348 5668.28 864.748 5870.5 887.777" stroke="white" stroke-opacity="0.3"/>
<path d="M1621.69 3710.39C1882.01 3405.26 2281.31 3447.35 2495.19 3210.29C2709.08 2973.23 2476.08 2783.94 2431.63 2713.61C2361.48 2602.63 2259.55 2230.83 2742.92 2068.01C3226.29 1905.19 4070.48 2037.91 4669.61 1425.36C5148.92 935.323 5661.57 845.383 5857.98 861.668" stroke="white" stroke-opacity="0.3"/>
<path d="M1866.47 3755.22C2110.04 3444.19 2504.72 3469.12 2705.41 3226.99C2906.1 2984.87 2668.99 2808.22 2622.34 2740.85C2548.72 2634.53 2433.05 2272.85 2902 2092.66C3370.94 1912.46 4207.18 2008.18 4771.46 1380.63C5222.89 878.59 5723.67 768.901 5917.62 776.811" stroke="white" stroke-opacity="0.3"/>
<path d="M2190.57 3735.32C2417.05 3425.37 2801.15 3436.8 2988.21 3195.15C3175.27 2953.51 2939.28 2789.63 2891.79 2725.72C2816.86 2624.85 2692.81 2277.35 3142.39 2087.15C3591.98 1896.96 4407.21 1962.85 4934.9 1335.11C5357.05 832.927 5839.83 710.181 6028.46 711.582" stroke="white" stroke-opacity="0.3"/>
<path d="M2522.12 3734.13C2723.84 3424.59 3093.59 3415.81 3260.94 3173.94C3428.29 2932.08 3193.05 2786.72 3144.12 2727.73C3066.91 2634.65 2929.81 2307.04 3352.12 2101.12C3774.43 1895.2 4561.33 1916.59 5036.19 1286.13C5416.09 781.764 5873.77 638.958 6055.13 630.6" stroke="white" stroke-opacity="0.3"/>
<path d="M2830.88 3711.04C3013.82 3401.01 3373.34 3376.46 3525.77 3133.79C3678.19 2891.12 3442.92 2759.82 3392.74 2704.52C3313.56 2617.25 3165.93 2304.31 3568.08 2085.59C3970.23 1866.88 4737.09 1853.62 5172.02 1219.4C5519.96 712.023 5959.28 553.206 6135.44 537.22" stroke="white" stroke-opacity="0.3"/>
<path d="M3222 3559.13C3389.81 3258.55 3732.96 3226.85 3873.13 2991.37C4013.3 2755.89 3785.37 2635.74 3736.14 2584.02C3658.44 2502.4 3510.14 2206.6 3889.61 1988.3C4269.07 1770 5001.91 1739.79 5403.21 1123.51C5724.25 630.483 6140.61 468.603 6308.67 449.291" stroke="white" stroke-opacity="0.3"/>
<path d="M3597.56 3415.38C3729.85 3117.64 4050.54 3058.24 4162.38 2824.24C4274.23 2590.24 4049.07 2496.61 3998.21 2452.1C3917.96 2381.87 3752.74 2115.84 4091.59 1877.44C4430.45 1639.04 5118.54 1547.5 5443.73 932.131C5703.87 439.833 6082.36 251.432 6239.09 218.769" stroke="white" stroke-opacity="0.3"/>
<path d="M-860.504 1807.68C-563.572 1520.2 -161.305 1606.21 81.2382 1384.1C323.782 1161.99 106.226 941.64 68.2871 864.257C8.41788 742.144 -56.6293 347.208 452.622 230.488C961.873 113.769 1807.79 340.771 2481.83 -228.194C3021.06 -683.365 3552.54 -721.68 3750.87 -683.942" stroke="white" stroke-opacity="0.3"/>
</g>
<defs>
<clipPath id="clip0_101_279">
<rect width="4015" height="2297" fill="white"/>
</clipPath>
</defs>
</svg>
