<svg width="4015" height="2297" viewBox="0 0 4015 2297" fill="none" xmlns="http://www.w3.org/2000/svg">
<g clip-path="url(#clip0_102_248)">
<rect width="4015" height="2297" fill="white"/>
<path d="M-1264.06 -1602.48C-776.073 -1664.23 -593.679 -1290.06 -207.878 -1328.25C177.924 -1366.44 254.294 -1736.17 306.834 -1838.16C389.744 -1999.1 743.869 -2426.48 1201.9 -2170.03C1659.94 -1913.57 1997.04 -1082.32 3020.58 -1141.96C3839.42 -1189.68 4233.38 -841.631 4328 -661.645" stroke="white" stroke-opacity="0.3"/>
<path d="M-1278.66 -1657C-790.714 -1718.79 -608.381 -1344.68 -222.617 -1382.91C163.148 -1421.14 239.549 -1790.84 292.095 -1892.82C375.014 -2053.75 729.147 -2481.12 1187.11 -2224.75C1645.06 -1968.37 1982.04 -1137.25 3005.48 -1196.99C3824.23 -1244.79 4218.11 -896.827 4312.71 -716.871" stroke="white" stroke-opacity="0.3"/>
<path d="M-1379.91 -1779.1C-891.92 -1840.84 -709.527 -1466.68 -323.725 -1504.87C62.0766 -1543.06 138.446 -1912.79 190.986 -2014.78C273.897 -2175.72 628.021 -2603.1 1086.06 -2346.64C1544.09 -2090.19 1881.19 -1258.94 2904.73 -1318.58C3723.57 -1366.29 4117.53 -1018.25 4212.16 -838.26" stroke="white" stroke-opacity="0.3"/>
<path d="M-1326.51 -1880.85C-840.928 -1931.97 -668.597 -1550.89 -284.94 -1580.6C98.7155 -1610.31 183.015 -1981.05 237.495 -2082.6C323.467 -2242.85 684.672 -2665.35 1133.2 -2396.59C1581.73 -2127.83 1897 -1282.77 2913.89 -1319.6C3727.41 -1349.07 4110.25 -989.499 4199.98 -806.03" stroke="white" stroke-opacity="0.3"/>
<path d="M-1350.69 -1990.39C-866.734 -2034.82 -700.718 -1649.49 -318.502 -1673.86C63.7144 -1698.23 152.931 -2069.5 208.606 -2170.75C296.463 -2330.52 661.981 -2749.84 1104.46 -2473.42C1546.95 -2197 1848.55 -1343.47 2861.02 -1365.96C3670.99 -1383.94 4046.8 -1017.22 4133.46 -831.612" stroke="white" stroke-opacity="0.3"/>
<path d="M-1355.84 -2129.89C-874.519 -2164.17 -718.121 -1772.54 -338.218 -1788.82C41.685 -1805.1 138.316 -2177.05 195.779 -2277.8C286.459 -2436.79 658.382 -2851.16 1091.56 -2563.23C1524.74 -2275.3 1805.52 -1409.26 2810.95 -1410.01C3615.29 -1410.61 3980.33 -1033.19 4062.31 -844.401" stroke="white" stroke-opacity="0.3"/>
<path d="M-1349.96 -2279.59C-871.972 -2301.98 -726.891 -1903.22 -349.891 -1910.03C27.1097 -1916.85 132.349 -2289.39 191.872 -2389.51C285.8 -2547.51 665.007 -2955.86 1087.08 -2654.65C1509.16 -2353.43 1765.49 -1473.23 2762.16 -1448.6C3559.5 -1428.89 3911.76 -1039.17 3988.22 -846.769" stroke="white" stroke-opacity="0.3"/>
<path d="M-1304.37 -1384.37C-808.845 -1455.93 -615.93 -1083.48 -223.965 -1129.37C168 -1175.27 238.565 -1548.32 290.067 -1651.83C371.339 -1815.18 723.511 -2251.57 1194.72 -2002.78C1665.93 -1753.98 2025.18 -925.201 3065.88 -1005.08C3898.45 -1068.99 4306.21 -726.903 4406.02 -547.872" stroke="white" stroke-opacity="0.3"/>
<path d="M-1333.04 -1226.76C-833.802 -1313.53 -626.54 -950.696 -231.29 -1008.72C163.959 -1066.75 223.359 -1438.6 272.152 -1542.8C349.147 -1707.24 691.536 -2150.87 1176.49 -1919.47C1661.44 -1688.07 2051.77 -878.473 3102.54 -990.944C3943.17 -1080.92 4366.91 -755.064 4473.7 -580.888" stroke="white" stroke-opacity="0.3"/>
<path d="M-1148.73 -1025.63C-664.517 -1124.21 -441.649 -787.187 -57.7107 -855.123C326.228 -923.059 364.042 -1277.37 406.123 -1377.71C472.529 -1536.05 783.578 -1967.65 1271.22 -1764.27C1758.87 -1560.89 2185.5 -806.506 3208.5 -947.513C4026.89 -1060.32 4459.76 -765.424 4573.9 -603.876" stroke="white" stroke-opacity="0.3"/>
<path d="M-1162.23 -836.466C-672.694 -954.178 -431.536 -629.058 -42.9521 -712.248C345.632 -795.438 369.504 -1148.43 408.247 -1249.7C469.384 -1409.49 768.599 -1850.4 1274.14 -1668.73C1779.69 -1487.07 2245.86 -756.364 3282.89 -938.34C4112.51 -1083.92 4566 -809.232 4689.05 -653.69" stroke="white" stroke-opacity="0.3"/>
<path d="M-1121.69 -830.056C-634.461 -928.616 -410.76 -588.945 -24.4442 -656.796C361.872 -724.647 400.425 -1081.34 442.901 -1182.32C509.932 -1341.66 823.453 -1775.78 1313.7 -1570.3C1803.94 -1364.81 2232.01 -604.607 3261.28 -745.111C4084.7 -857.514 4519.71 -559.96 4634.29 -397.132" stroke="white" stroke-opacity="0.3"/>
<path d="M-1102.73 -798.853C-617.993 -881.464 -408.99 -530.18 -25.0159 -585.271C358.958 -640.362 409.597 -999.689 455.109 -1100.3C526.928 -1259.08 851.893 -1687.07 1328.9 -1462.14C1805.91 -1237.21 2201.97 -453.554 3223.59 -559.613C4040.88 -644.461 4460.08 -328.369 4567.53 -159.717" stroke="white" stroke-opacity="0.3"/>
<path d="M-1086.71 -787.697C-605.759 -850.636 -415.086 -485.639 -34.5561 -525.006C345.974 -564.374 411.352 -926.386 460.516 -1026.41C538.098 -1184.25 876.608 -1604.09 1336.67 -1355.66C1796.74 -1107.23 2152.98 -295.995 3163.68 -359.672C3972.24 -410.613 4371.45 -72.2693 4469.98 103.27" stroke="white" stroke-opacity="0.3"/>
<path d="M-1049.72 -747.506C-571.031 -800.243 -389.947 -428.4 -11.4413 -459.621C367.064 -490.843 440.013 -854.008 491.031 -953.66C571.54 -1110.91 916.827 -1526.28 1367.85 -1265.87C1818.87 -1005.46 2154.31 -180.51 3158.72 -222.257C3962.25 -255.654 4350.88 93.9635 4444.75 272.947" stroke="white" stroke-opacity="0.3"/>
<path d="M-1057.34 -719.918C-575.845 -760.912 -404.275 -376.463 -23.8309 -398.181C356.613 -419.899 439.577 -788.674 493.434 -889.033C578.421 -1047.4 935.92 -1462.16 1381.22 -1184.23C1826.51 -906.294 2140.65 -55.1525 3149.1 -70.8234C3955.86 -83.36 4336.17 283.968 4425.48 469.199" stroke="white" stroke-opacity="0.3"/>
<path d="M-1040.75 -701.071C-557.595 -732.473 -393.977 -338.285 -12.4525 -352.255C369.072 -366.224 460.063 -739.076 516.154 -839.88C604.669 -998.951 971.623 -1412.67 1411.69 -1120.86C1851.76 -829.058 2148.19 42.2474 3158.6 47.7786C3966.94 52.2035 4340 433.44 4425.49 623.504" stroke="white" stroke-opacity="0.3"/>
<path d="M-1030.61 -701.487C-551.366 -719.307 -400.767 -316.782 -22.6422 -319.927C355.482 -323.071 456.339 -696.752 514.783 -796.875C607.011 -954.874 982.261 -1361.88 1409.51 -1054.74C1836.76 -747.607 2105.06 140.253 3105.25 174.846C3905.39 202.521 4263.72 597.987 4342.87 792.261" stroke="white" stroke-opacity="0.3"/>
<path d="M-1038.87 -670.6C-563.434 -676.221 -424.612 -266.469 -49.7757 -259.897C325.061 -253.326 434.706 -627.516 495.226 -726.967C590.728 -883.904 973.185 -1284.62 1388.67 -963.927C1804.15 -643.23 2047.04 258.927 3037.41 319.575C3829.71 368.095 4174.59 776.082 4248 974.011" stroke="white" stroke-opacity="0.3"/>
<path d="M-1028.32 -655.927C-556.921 -649.501 -429.807 -232.852 -58.4345 -216.693C312.938 -200.535 431.196 -575.01 493.729 -673.738C592.407 -829.535 981.757 -1223.82 1385.38 -889.921C1789 -556.022 2006.67 359.723 2986.78 446.059C3770.87 515.128 4102.28 935.239 4169.97 1136.66" stroke="white" stroke-opacity="0.3"/>
<path d="M-1045.71 -623.369C-577.084 -602.525 -463.404 -175.823 -94.5545 -148.14C274.295 -120.456 403.357 -496.901 468.567 -595.196C571.47 -750.309 970.749 -1138.62 1361.95 -787.497C1753.16 -436.373 1941.64 499.591 2913.76 616.992C3691.45 710.912 4008.2 1147.33 4069.37 1353.81" stroke="white" stroke-opacity="0.3"/>
<path d="M-1073.89 -592.502C-603.257 -556.386 -502.412 -114.724 -132.336 -74.7198C237.739 -34.7152 379.431 -417.156 448.118 -516.028C556.509 -672.05 970.332 -1058.19 1352.67 -685.408C1735.01 -312.628 1894.99 654.238 2868.93 805.298C3648.09 926.145 3952.86 1384.16 4007.85 1598.07" stroke="white" stroke-opacity="0.3"/>
<path d="M-1089.24 -562.326C-613.083 -514.082 -521.327 -57.1206 -147.187 -7.23971C226.952 42.6412 379.616 -347.661 451.573 -447.811C565.125 -605.85 993.691 -993.557 1372.38 -600.871C1751.07 -208.186 1890.33 790.745 2873.89 969.136C3660.74 1111.85 3958.79 1590.44 4009.46 1811.9" stroke="white" stroke-opacity="0.3"/>
<path d="M-1109.5 -520.22C-634.199 -454.627 -557.909 16.5895 -184.852 80.3942C188.204 144.199 354.461 -250.432 429.961 -350.579C549.103 -508.613 991.633 -891.214 1357.53 -476.094C1723.43 -60.974 1828.78 967.036 2807.88 1183.18C3591.15 1356.1 3873.34 1856.48 3916.53 2085.06" stroke="white" stroke-opacity="0.3"/>
<path d="M-1177.69 -487.288C-700.994 -392.581 -649.857 105.034 -276.379 192.271C97.0994 279.507 286.85 -124.633 368.664 -225.369C497.768 -384.334 966.044 -760.752 1312.94 -306.024C1659.83 148.704 1709.66 1230.96 2687.18 1510.9C3469.19 1734.86 3726.8 2274.28 3757.84 2516" stroke="white" stroke-opacity="0.3"/>
<path d="M-1303.98 -226.802C-814.921 -157.977 -737.591 328.039 -353.762 394.762C30.0679 461.486 202.2 55.042 280.167 -48.0185C403.203 -210.652 859.675 -603.996 1235.25 -175.085C1610.82 253.827 1716.64 1313.97 2723.89 1539.29C3529.68 1719.54 3818.87 2236.15 3862.75 2471.92" stroke="white" stroke-opacity="0.3"/>
<path d="M-1295.04 -138.575C-805.978 -69.7491 -728.648 416.266 -344.818 482.99C39.0112 549.714 211.143 143.27 289.111 40.2093C412.146 -122.424 868.618 -515.768 1244.19 -86.8567C1619.76 342.054 1725.59 1402.2 2732.83 1627.51C3538.63 1807.77 3827.82 2324.37 3871.69 2560.15" stroke="white" stroke-opacity="0.3"/>
<path d="M-1280.13 -69.7961C-799.759 -2.19372 -723.803 475.184 -346.796 540.722C30.2117 606.26 199.285 207.039 275.866 105.81C396.715 -53.9323 845.074 -440.285 1213.97 -18.9973C1582.86 402.291 1686.81 1443.59 2676.15 1664.9C3467.63 1841.95 3751.68 2349.38 3794.77 2580.96" stroke="white" stroke-opacity="0.3"/>
<path d="M-1315.95 6.4787C-830.524 72.4026 -755.196 552.657 -374.257 616.962C6.6807 681.266 178.827 278.607 256.557 176.356C379.218 15.0013 833.671 -375.945 1205.32 46.5415C1576.97 469.028 1678.87 1516.88 2678.38 1735.29C3477.98 1910.01 3763.6 2419.59 3806.45 2652.54" stroke="white" stroke-opacity="0.3"/>
<path d="M-1392.31 174.747C-899.791 224.418 -808.243 696.912 -421.338 748.321C-34.4338 799.731 126.52 396.056 201.756 292.46C320.482 128.983 767.008 -272.134 1156.05 133.762C1545.09 539.658 1681.75 1572.57 2698.51 1756.59C3511.91 1903.81 3816.84 2398.58 3867.63 2627.56" stroke="white" stroke-opacity="0.3"/>
<path d="M-1430.45 272.68C-933.985 312.797 -832.962 780.538 -442.723 824.363C-52.4842 868.187 101.837 464.089 175.579 359.748C291.945 195.095 733.633 -211.817 1132.71 184.176C1531.79 580.169 1688.77 1603.88 2715.21 1767.66C3536.37 1898.68 3852.5 2384.55 3907.91 2611.11" stroke="white" stroke-opacity="0.3"/>
<path d="M-1453.68 351.356C-954.743 385.271 -847.594 849.851 -455.258 888.75C-62.9223 927.649 87.0723 523.344 159.832 418.538C274.65 253.15 713.125 -157.451 1118.65 232.054C1524.16 621.559 1694.29 1639.13 2726.85 1789.75C3552.89 1910.25 3876.23 2390.27 3934.64 2615.22" stroke="white" stroke-opacity="0.3"/>
<path d="M-1505.95 489.797C-1001.54 509.364 -880.29 966.405 -483.307 993.903C-86.325 1021.4 53.5956 616.822 124.05 510.993C235.23 343.991 666.062 -74.9267 1086.26 299.389C1506.46 673.704 1706.89 1676.58 2753.04 1796.72C3589.95 1892.84 3929.78 2359.09 3995.08 2580.21" stroke="white" stroke-opacity="0.3"/>
<path d="M-1486.78 514.898C-983.802 538.321 -866.331 997.419 -470.569 1027.98C-74.8071 1058.54 67.8295 654.011 138.908 548.449C251.073 381.869 683.988 -34.8428 1100.27 343.579C1516.56 722.002 1708.86 1728.9 2751.43 1857.23C3585.48 1959.9 3920.9 2429.89 3984.36 2652.05" stroke="white" stroke-opacity="0.3"/>
<path d="M-1520.46 612.992C-1013.97 626.833 -887.119 1080.78 -488.361 1103.72C-89.6041 1126.67 46.2718 722.061 115.793 615.845C225.501 448.233 653.199 26.0815 1079.17 394.266C1505.13 762.451 1717.61 1759.27 2768.98 1867.23C3610.06 1953.61 3956.4 2414.28 4024.44 2633.83" stroke="white" stroke-opacity="0.3"/>
<path d="M-1539.99 691.416C-1031.31 699.042 -898.395 1149.57 -497.763 1167.57C-97.1301 1185.58 34.339 780.986 102.839 674.364C210.935 506.11 635.179 80.5028 1067.35 441.988C1499.53 803.473 1725.05 1793.59 2781.94 1888.33C3627.45 1964.11 3980.81 2418.68 4051.8 2636.49" stroke="white" stroke-opacity="0.3"/>
<path d="M-1585.93 829.999C-1072.43 823.26 -925.583 1265.66 -520.82 1272.23C-116.056 1278.81 5.16336 874.467 71.2684 766.959C175.584 597.308 591.632 163.93 1037.93 509.75C1484.24 855.569 1739.79 1829.7 2808.91 1893.82C3664.21 1945.11 4033.61 2385.32 4111.4 2599.01" stroke="white" stroke-opacity="0.3"/>
<path d="M-1567.54 846.473C-1055.72 844.853 -913.82 1290.19 -510.496 1300.83C-107.172 1311.48 17.7104 907.019 84.6744 799.818C190.346 630.651 609.348 200.007 1050.65 551.439C1491.96 902.87 1736.83 1882.78 2801.67 1957.81C3653.55 2017.84 4017.27 2463.2 4092.64 2678.38" stroke="white" stroke-opacity="0.3"/>
<path d="M-1596.9 944.505C-1081.98 933.299 -930.814 1373.11 -524.825 1376.13C-118.835 1379.14 -0.820192 974.939 64.5305 867.171C167.656 697.11 581.094 261.378 1031.73 602.276C1482.36 943.174 1747.21 1912.19 2819.98 1966.78C3678.2 2010.45 4052.54 2446.13 4132.44 2658.51" stroke="white" stroke-opacity="0.3"/>
<path d="M-1612.87 1022.52C-1096.02 1005.1 -938.875 1441.26 -531.224 1439.32C-123.574 1437.39 -10.0329 1033.42 54.2607 925.305C155.718 754.693 565.479 315.734 1022.08 649.745C1478.69 983.756 1756.46 1945.55 2834.19 1986.87C3696.37 2019.93 4077.54 2449.25 4160.35 2659.79" stroke="white" stroke-opacity="0.3"/>
<path d="M-1652.68 1160.94C-1131.66 1129.16 -960.758 1556.66 -549.477 1543.29C-138.196 1529.92 -35.0488 1126.7 26.7695 1017.83C124.321 846.031 525.376 399.839 995.551 717.766C1465.73 1035.69 1773.2 1980.31 2861.84 1990.95C3732.75 1999.46 4129.5 2413.89 4219.01 2620.05" stroke="white" stroke-opacity="0.3"/>
<path d="M-1629.79 1308.06C-1114.61 1263.76 -934.314 1675.4 -527.343 1651.83C-120.372 1628.26 -28.6366 1233.21 29.7729 1125.67C121.945 955.968 507.606 511.44 981.463 808.771C1455.32 1106.1 1784.24 2017.5 2862.66 1999.9C3725.39 1985.82 4129.03 2378.96 4223.01 2577.29" stroke="white" stroke-opacity="0.3"/>
<path d="M-1686 1499.37C-1171.51 1432.71 -971.763 1824.55 -564.814 1783C-157.865 1741.44 -84.1067 1353.25 -30.503 1246.05C54.0856 1076.88 420.258 627.14 909.064 894.426C1397.87 1161.71 1769.67 2032.5 2850.1 1965.97C3714.44 1912.76 4137.26 2276.38 4240.63 2464.84" stroke="white" stroke-opacity="0.3"/>
<path d="M-1673.83 1555.31C-1164.5 1485.48 -963.37 1870.1 -560.406 1825.87C-157.441 1781.65 -87.4788 1398.43 -35.2215 1292.33C47.2425 1124.91 406.5 678.676 893.082 938.208C1379.66 1197.74 1755.17 2053.06 2825.37 1978.82C3681.53 1919.43 4103.5 2274.44 4207.46 2459.38" stroke="white" stroke-opacity="0.3"/>
<path d="M-1650.36 1668.19C-1146.22 1588.31 -937.703 1959.79 -538.595 1907.37C-139.487 1854.95 -78.7997 1478.68 -29.3423 1373.76C48.7031 1208.19 395.2 763.715 884.297 1006.38C1373.39 1249.05 1765.85 2076.76 2826.8 1979.8C3675.56 1902.23 4102.69 2239.73 4210.15 2418.17" stroke="white" stroke-opacity="0.3"/>
<path d="M-1665.09 1807.53C-1164.02 1714.22 -944.548 2071.48 -547.546 2008.2C-150.543 1944.91 -101.308 1574.87 -55.0868 1470.7C17.8525 1306.33 350.463 860.963 846.255 1083.75C1342.05 1306.53 1759 2104.75 2815.64 1978C3660.95 1876.59 4097.72 2194.04 4210.44 2365.44" stroke="white" stroke-opacity="0.3"/>
<path d="M-1588.23 1978.98C-1091.56 1873.04 -862.202 2215.63 -468.37 2142.1C-74.5375 2068.56 -36.4393 1705.56 6.54213 1602.43C74.3683 1439.69 392.685 994.739 893.471 1197.79C1394.26 1400.85 1833.53 2168.43 2882.97 2013.45C3722.52 1889.46 4167.28 2186.74 4284.72 2350.88" stroke="white" stroke-opacity="0.3"/>
<path d="M-1455.98 2144.86C-973.39 2027.84 -738.16 2348.63 -355.156 2265.86C27.8487 2183.1 53.6552 1834.36 92.45 1734.27C153.67 1576.33 451.054 1140.34 947.441 1319.02C1443.83 1497.7 1897.87 2218.81 2919.75 2037.47C3737.25 1892.4 4181.8 2163.06 4301.88 2316.52" stroke="white" stroke-opacity="0.3"/>
<path d="M-1330.61 2360.18C-853.794 2225.64 -604.77 2526.37 -225.907 2429.4C152.956 2332.42 163.398 1993.21 197.742 1894.48C251.937 1738.68 529.764 1303.01 1033.36 1454.55C1536.95 1606.09 2022.09 2285.34 3034.66 2064.9C3844.71 1888.54 4300.57 2131.51 4427.25 2275.04" stroke="white" stroke-opacity="0.3"/>
<path d="M-1086.16 2567.53C-622.263 2422.09 -367.206 2702.17 1.73008 2596.13C370.666 2490.09 369.237 2164.18 399.582 2068.25C447.467 1916.88 705.451 1489.24 1205.51 1617.43C1705.57 1745.62 2205.69 2380.9 3193.06 2134.66C3982.95 1937.67 4439.26 2155.24 4568.68 2288.65" stroke="white" stroke-opacity="0.3"/>
<path d="M-855.056 2798.45C-408.736 2636.08 -143.633 2886.3 211.854 2766.24C567.34 2646.19 548.102 2338.96 572.568 2246.86C611.175 2101.53 840.407 1684.27 1337.12 1777.94C1833.84 1871.61 2358.36 2443.42 3311.79 2157.53C4074.54 1928.82 4533.3 2109.15 4667.34 2227.9" stroke="white" stroke-opacity="0.3"/>
<path d="M-618.081 2991.94C-184.296 2815.95 89.3291 3043.54 435.259 2912.25C781.189 2780.95 748.019 2487.49 767.965 2398.14C799.441 2257.13 1006.86 1846.88 1502.26 1913.88C1997.66 1980.89 2542.59 2504.71 3472.05 2187.17C4215.62 1933.14 4677.49 2084.91 4815.48 2192.54" stroke="white" stroke-opacity="0.3"/>
<path d="M-196.467 3116.75C217.469 2939.43 486.813 3148.55 817.134 3015.73C1147.46 2882.91 1108.33 2605.53 1125.39 2520.34C1152.31 2385.91 1342.3 1992 1821.55 2043.54C2300.8 2095.08 2838.92 2578.45 3727.3 2254.96C4438 1996.17 4887 2128.87 5022.65 2227.57" stroke="white" stroke-opacity="0.3"/>
<path d="M206.282 3238.66C592.77 3039.27 873.965 3205.5 1183.18 3054.3C1492.39 2903.1 1428.93 2653.67 1437.72 2574.42C1451.6 2449.36 1600.38 2072.81 2071.37 2076.21C2542.36 2079.61 3110.16 2471.51 3944.85 2095.64C4612.61 1794.94 5061.59 1875.11 5202.61 1952.79" stroke="white" stroke-opacity="0.3"/>
<path d="M-1293.75 -1458.71C-803.241 -1532.8 -609.421 -1166.86 -221.345 -1214.9C166.731 -1262.94 233.992 -1631.33 284.287 -1733.78C363.655 -1895.45 709.512 -2328.3 1178.21 -2086.29C1646.91 -1844.28 2008.82 -1029.51 3039.5 -1115.66C3864.04 -1184.59 4270.54 -850.131 4370.72 -674.284" stroke="white" stroke-opacity="0.3"/>
</g>
<defs>
<clipPath id="clip0_102_248">
<rect width="4015" height="2297" fill="white"/>
</clipPath>
</defs>
</svg>
