<svg width="1300" height="976" viewBox="0 0 1300 976" fill="none" xmlns="http://www.w3.org/2000/svg">
<path d="M168.5 385.5V383H166V370.5H168.5V368H181V370.5H183.5V383H181V385.5H168.5ZM171 383H178.5V370.5H171V383ZM206 385.5V368H211V370.5H213.5V373H216V370.5H218.5V368H223.5V385.5H218.5V375.5H216V380.5H213.5V375.5H211V385.5H206ZM228.5 385.5V383H226V370.5H228.5V368H241V370.5H243.5V383H241V385.5H228.5ZM231 383H238.5V370.5H231V383ZM253.5 385.5V383H251V380.5H248.5V378H246V368H251V375.5H253.5V378H256V375.5H258.5V368H263.5V378H261V380.5H258.5V383H256V385.5H253.5ZM268.5 385.5V383H273.5V370.5H268.5V368H283.5V370.5H278.5V383H283.5V385.5H268.5ZM286 385.5V368H291V370.5H293.5V373H296V370.5H298.5V368H303.5V385.5H298.5V375.5H296V380.5H293.5V375.5H291V385.5H286ZM306 385.5V368H323.5V370.5H311V375.5H321V378H311V383H323.5V385.5H306ZM326 385.5V368H331V370.5H333.5V373H336V375.5H338.5V368H343.5V385.5H338.5V380.5H336V378H333.5V375.5H331V385.5H326ZM353.5 385.5V370.5H348.5V368H363.5V370.5H358.5V385.5H353.5ZM368.5 385.5V383H366V370.5H368.5V368H381V370.5H383.5V383H381V385.5H368.5ZM371 383H378.5V370.5H371V383ZM406 385.5V368H418.5V370.5H421V373H423.5V380.5H421V383H418.5V385.5H406ZM411 383H416V380.5H418.5V373H416V370.5H411V383ZM426 385.5V368H443.5V370.5H431V375.5H441V378H431V383H443.5V385.5H426ZM448.5 385.5V383H446V380.5H451V383H458.5V378H448.5V375.5H446V370.5H448.5V368H461V370.5H463.5V373H458.5V370.5H451V375.5H461V378H463.5V383H461V385.5H448.5ZM468.5 385.5V383H473.5V370.5H468.5V368H483.5V370.5H478.5V383H483.5V385.5H468.5ZM491 385.5V383H488.5V380.5H486V373H488.5V370.5H491V368H503.5V370.5H493.5V373H491V380.5H493.5V383H498.5V378H496V375.5H503.5V385.5H491ZM506 385.5V368H511V370.5H513.5V373H516V375.5H518.5V368H523.5V385.5H518.5V380.5H516V378H513.5V375.5H511V385.5H506ZM546 385.5V368H561V370.5H563.5V378H558.5V380.5H561V383H563.5V385.5H556V383H553.5V380.5H551V385.5H546ZM551 378H556V375.5H558.5V370.5H551V378ZM566 385.5V368H583.5V370.5H571V375.5H581V378H571V383H583.5V385.5H566ZM586 385.5V368H601V370.5H603.5V375.5H601V378H603.5V383H601V385.5H586ZM591 375.5H598.5V370.5H591V375.5ZM591 383H598.5V378H591V383ZM608.5 385.5V383H606V370.5H608.5V368H621V370.5H623.5V383H621V385.5H608.5ZM611 383H618.5V370.5H611V383ZM628.5 385.5V383H626V370.5H628.5V368H641V370.5H643.5V383H641V385.5H628.5ZM631 383H638.5V370.5H631V383ZM653.5 385.5V370.5H648.5V368H663.5V370.5H658.5V385.5H653.5ZM686 385.5V373H688.5V370.5H691V368H698.5V370.5H701V373H703.5V385.5H698.5V380.5H691V385.5H686ZM691 378H698.5V373H696V370.5H693.5V373H691V378ZM711 385.5V383H708.5V380.5H706V373H708.5V370.5H711V368H721V370.5H723.5V373H718.5V370.5H713.5V373H711V380.5H713.5V383H718.5V380.5H723.5V383H721V385.5H711ZM728.5 385.5V383H726V370.5H728.5V368H741V370.5H743.5V383H741V385.5H728.5ZM731 383H738.5V370.5H731V383ZM746 385.5V368H751V370.5H753.5V373H756V375.5H758.5V368H763.5V385.5H758.5V380.5H756V378H753.5V375.5H751V385.5H746ZM773.5 385.5V370.5H768.5V368H783.5V370.5H778.5V385.5H773.5ZM786 385.5V368H803.5V370.5H791V375.5H801V378H791V383H803.5V385.5H786ZM811 385.5V383H808.5V380.5H806V373H808.5V370.5H811V368H821V370.5H823.5V373H818.5V370.5H813.5V373H811V380.5H813.5V383H818.5V380.5H823.5V383H821V385.5H811ZM826 385.5V368H843.5V370.5H831V375.5H841V378H831V383H843.5V385.5H826ZM848.5 385.5V383H846V368H851V383H858.5V368H863.5V383H861V385.5H848.5ZM886 385.5V368H903.5V370.5H891V375.5H901V378H891V383H903.5V385.5H886ZM906 385.5V368H911V370.5H913.5V373H916V375.5H918.5V368H923.5V385.5H918.5V380.5H916V378H913.5V375.5H911V385.5H906ZM933.5 385.5V370.5H928.5V368H943.5V370.5H938.5V385.5H933.5ZM946 385.5V368H961V370.5H963.5V378H958.5V380.5H961V383H963.5V385.5H956V383H953.5V380.5H951V385.5H946ZM951 378H956V375.5H958.5V370.5H951V378ZM966 385.5V368H983.5V370.5H971V375.5H981V378H971V383H983.5V385.5H966ZM1008.5 385.5V383H1006V370.5H1008.5V368H1021V370.5H1023.5V383H1021V385.5H1008.5ZM1011 383H1018.5V370.5H1011V383ZM1028.5 385.5V383H1026V380.5H1031V383H1038.5V378H1028.5V375.5H1026V370.5H1028.5V368H1041V370.5H1043.5V373H1038.5V370.5H1031V375.5H1041V378H1043.5V383H1041V385.5H1028.5ZM166 425.5V413H168.5V410.5H171V408H178.5V410.5H181V413H183.5V425.5H178.5V420.5H171V425.5H166ZM171 418H178.5V413H176V410.5H173.5V413H171V418ZM186 425.5V408H191V410.5H193.5V413H196V415.5H198.5V408H203.5V425.5H198.5V420.5H196V418H193.5V415.5H191V425.5H186ZM208.5 425.5V423H206V410.5H208.5V408H221V410.5H223.5V423H221V425.5H208.5ZM211 423H218.5V410.5H211V423ZM228.5 425.5V423H226V420.5H231V423H238.5V418H228.5V415.5H226V410.5H228.5V408H241V410.5H243.5V413H238.5V410.5H231V415.5H241V418H243.5V423H241V425.5H228.5ZM266 425.5V408H278.5V410.5H281V413H283.5V420.5H281V423H278.5V425.5H266ZM271 423H276V420.5H278.5V413H276V410.5H271V423ZM286 425.5V408H303.5V410.5H291V415.5H301V418H291V423H303.5V425.5H286ZM326 425.5V420.5H328.5V418H331V415.5H336V413H338.5V410.5H331V413H326V410.5H328.5V408H341V410.5H343.5V415.5H341V418H338.5V420.5H333.5V423H343.5V425.5H326ZM351 425.5V423H348.5V420.5H346V413H348.5V410.5H351V408H358.5V410.5H361V413H363.5V420.5H361V423H358.5V425.5H351ZM353.5 423H358.5V413H356V410.5H351V420.5H353.5V423ZM368.5 425.5V423H373.5V413H371V410.5H373.5V408H378.5V423H383.5V425.5H368.5ZM386 425.5V420.5H388.5V418H391V415.5H396V413H398.5V410.5H391V413H386V410.5H388.5V408H401V410.5H403.5V415.5H401V418H398.5V420.5H393.5V423H403.5V425.5H386ZM426 425.5V408H443.5V410.5H431V415.5H441V418H431V423H443.5V425.5H426ZM466 425.5V420.5H468.5V418H471V415.5H476V413H478.5V410.5H471V413H466V410.5H468.5V408H481V410.5H483.5V415.5H481V418H478.5V420.5H473.5V423H483.5V425.5H466ZM491 425.5V423H488.5V420.5H486V413H488.5V410.5H491V408H498.5V410.5H501V413H503.5V420.5H501V423H498.5V425.5H491ZM493.5 423H498.5V413H496V410.5H491V420.5H493.5V423ZM508.5 425.5V423H513.5V413H511V410.5H513.5V408H518.5V423H523.5V425.5H508.5ZM528.5 425.5V423H526V420.5H531V423H538.5V418H531V415.5H533.5V413H536V410.5H528.5V408H543.5V410.5H541V413H538.5V415.5H541V418H543.5V423H541V425.5H528.5ZM548.5 428V425.5H551V420.5H556V425.5H553.5V428H548.5ZM588.5 425.5V408H593.5V423H603.5V425.5H588.5ZM608.5 425.5V423H613.5V410.5H608.5V408H623.5V410.5H618.5V423H623.5V425.5H608.5ZM626 425.5V408H638.5V410.5H641V413H643.5V420.5H641V423H638.5V425.5H626ZM631 423H636V420.5H638.5V413H636V410.5H631V423ZM646 425.5V408H663.5V410.5H651V415.5H661V418H651V423H663.5V425.5H646ZM666 425.5V408H681V410.5H683.5V418H678.5V420.5H681V423H683.5V425.5H676V423H673.5V420.5H671V425.5H666ZM671 418H676V415.5H678.5V410.5H671V418ZM686 425.5V413H688.5V410.5H691V408H698.5V410.5H701V413H703.5V425.5H698.5V420.5H691V425.5H686ZM691 418H698.5V413H696V410.5H693.5V413H691V418ZM706 425.5V408H718.5V410.5H721V413H723.5V420.5H721V423H718.5V425.5H706ZM711 423H716V420.5H718.5V413H716V410.5H711V423ZM728.5 425.5V423H726V410.5H728.5V408H741V410.5H743.5V423H741V425.5H728.5ZM731 423H738.5V410.5H731V423ZM766 425.5V408H781V410.5H783.5V418H781V420.5H771V425.5H766ZM771 418H778.5V410.5H771V418ZM786 425.5V408H803.5V410.5H791V415.5H801V418H791V423H803.5V425.5H786ZM808.5 425.5V408H813.5V423H823.5V425.5H808.5ZM828.5 425.5V423H826V410.5H828.5V408H841V410.5H843.5V423H841V425.5H828.5ZM831 423H838.5V410.5H831V423ZM871 425.5V423H868.5V420.5H866V413H868.5V410.5H871V408H883.5V410.5H873.5V413H871V420.5H873.5V423H878.5V418H876V415.5H883.5V425.5H871ZM886 425.5V413H888.5V410.5H891V408H898.5V410.5H901V413H903.5V425.5H898.5V420.5H891V425.5H886ZM891 418H898.5V413H896V410.5H893.5V413H891V418ZM906 425.5V408H911V410.5H913.5V413H916V410.5H918.5V408H923.5V425.5H918.5V415.5H916V420.5H913.5V415.5H911V425.5H906ZM926 425.5V408H943.5V410.5H931V415.5H941V418H931V423H943.5V425.5H926ZM966 425.5V408H978.5V410.5H981V413H983.5V420.5H981V423H978.5V425.5H966ZM971 423H976V420.5H978.5V413H976V410.5H971V423ZM986 425.5V408H1003.5V410.5H991V415.5H1001V418H991V423H1003.5V425.5H986ZM1008.5 425.5V423H1006V420.5H1011V423H1018.5V418H1008.5V415.5H1006V410.5H1008.5V408H1021V410.5H1023.5V413H1018.5V410.5H1011V415.5H1021V418H1023.5V423H1021V425.5H1008.5ZM1028.5 425.5V423H1033.5V410.5H1028.5V408H1043.5V410.5H1038.5V423H1043.5V425.5H1028.5ZM1051 425.5V423H1048.5V420.5H1046V413H1048.5V410.5H1051V408H1063.5V410.5H1053.5V413H1051V420.5H1053.5V423H1058.5V418H1056V415.5H1063.5V425.5H1051ZM1066 425.5V408H1071V410.5H1073.5V413H1076V415.5H1078.5V408H1083.5V425.5H1078.5V420.5H1076V418H1073.5V415.5H1071V425.5H1066ZM1086 425.5V408H1103.5V410.5H1091V415.5H1101V418H1091V423H1103.5V425.5H1086ZM1106 425.5V408H1121V410.5H1123.5V418H1118.5V420.5H1121V423H1123.5V425.5H1116V423H1113.5V420.5H1111V425.5H1106ZM1111 418H1116V415.5H1118.5V410.5H1111V418ZM168.5 465.5V463H166V460.5H171V463H178.5V448H183.5V463H181V465.5H168.5ZM188.5 465.5V463H186V450.5H188.5V448H201V450.5H203.5V463H201V465.5H188.5ZM191 463H198.5V450.5H191V463ZM206 465.5V448H211V450.5H213.5V453H216V455.5H218.5V448H223.5V465.5H218.5V460.5H216V458H213.5V455.5H211V465.5H206ZM226 465.5V453H228.5V450.5H231V448H238.5V450.5H241V453H243.5V465.5H238.5V460.5H231V465.5H226ZM231 458H238.5V453H236V450.5H233.5V453H231V458ZM253.5 465.5V450.5H248.5V448H263.5V450.5H258.5V465.5H253.5ZM266 465.5V448H271V455.5H278.5V448H283.5V465.5H278.5V458H271V465.5H266ZM286 465.5V453H288.5V450.5H291V448H298.5V450.5H301V453H303.5V465.5H298.5V460.5H291V465.5H286ZM291 458H298.5V453H296V450.5H293.5V453H291V458ZM306 465.5V448H311V450.5H313.5V453H316V455.5H318.5V448H323.5V465.5H318.5V460.5H316V458H313.5V455.5H311V465.5H306ZM346 465.5V448H361V450.5H363.5V455.5H361V458H363.5V463H361V465.5H346ZM351 455.5H358.5V450.5H351V455.5ZM351 463H358.5V458H351V463ZM368.5 465.5V448H373.5V463H383.5V465.5H368.5ZM388.5 465.5V463H386V450.5H388.5V448H401V450.5H403.5V463H401V465.5H388.5ZM391 463H398.5V450.5H391V463ZM408.5 465.5V463H406V448H411V458H413.5V448H416V458H418.5V448H423.5V463H421V465.5H418.5V463H416V460.5H413.5V463H411V465.5H408.5ZM428.5 468V465.5H431V460.5H436V465.5H433.5V468H428.5ZM466 465.5V448H483.5V450.5H471V455.5H481V458H471V463H483.5V465.5H466ZM506 465.5V448H521V450.5H523.5V458H521V460.5H511V465.5H506ZM511 458H518.5V450.5H511V458ZM526 465.5V448H541V450.5H543.5V458H538.5V460.5H541V463H543.5V465.5H536V463H533.5V460.5H531V465.5H526ZM531 458H536V455.5H538.5V450.5H531V458ZM548.5 465.5V463H546V450.5H548.5V448H561V450.5H563.5V463H561V465.5H548.5ZM551 463H558.5V450.5H551V463ZM566 465.5V448H581V450.5H583.5V458H581V460.5H571V465.5H566ZM571 458H578.5V450.5H571V458ZM588.5 465.5V463H586V448H591V463H598.5V448H603.5V463H601V465.5H588.5ZM606 465.5V448H611V450.5H613.5V453H616V455.5H618.5V448H623.5V465.5H618.5V460.5H616V458H613.5V455.5H611V465.5H606ZM626 465.5V448H631V455.5H638.5V448H643.5V465.5H638.5V458H631V465.5H626ZM646 465.5V453H648.5V450.5H651V448H658.5V450.5H661V453H663.5V465.5H658.5V460.5H651V465.5H646ZM651 458H658.5V453H656V450.5H653.5V453H651V458ZM703.5 450.5V460.5H701V463H698.5V465.5H688.5V463H686V450.5H688.5V448H701V450.5H703.5ZM698.5 450.5H691V463H696V460.5H693.5V458H698.5V450.5ZM701 465.5V463H703.5V465.5H701ZM708.5 465.5V463H706V448H711V463H718.5V448H723.5V463H721V465.5H708.5ZM726 465.5V448H743.5V450.5H731V455.5H741V458H731V463H743.5V465.5H726ZM768.5 465.5V463H766V450.5H768.5V448H781V450.5H783.5V463H781V465.5H768.5ZM771 463H778.5V450.5H771V463ZM788.5 465.5V463H786V460.5H791V463H798.5V458H788.5V455.5H786V450.5H788.5V448H801V450.5H803.5V453H798.5V450.5H791V455.5H801V458H803.5V463H801V465.5H788.5ZM833.5 465.5V463H831V460.5H828.5V458H826V448H831V455.5H833.5V458H836V455.5H838.5V448H843.5V458H841V460.5H838.5V463H836V465.5H833.5ZM848.5 465.5V463H853.5V450.5H848.5V448H863.5V450.5H858.5V463H863.5V465.5H848.5ZM866 465.5V448H878.5V450.5H881V453H883.5V460.5H881V463H878.5V465.5H866ZM871 463H876V460.5H878.5V453H876V450.5H871V463ZM886 465.5V448H903.5V450.5H891V455.5H901V458H891V463H903.5V465.5H886ZM908.5 465.5V463H906V450.5H908.5V448H921V450.5H923.5V463H921V465.5H908.5ZM911 463H918.5V450.5H911V463ZM931 465.5V463H928.5V460.5H926V453H928.5V450.5H931V448H943.5V450.5H933.5V453H931V460.5H933.5V463H938.5V458H936V455.5H943.5V465.5H931ZM946 465.5V453H948.5V450.5H951V448H958.5V450.5H961V453H963.5V465.5H958.5V460.5H951V465.5H946ZM951 458H958.5V453H956V450.5H953.5V453H951V458ZM966 465.5V448H971V450.5H973.5V453H976V450.5H978.5V448H983.5V465.5H978.5V455.5H976V460.5H973.5V455.5H971V465.5H966ZM986 465.5V448H1003.5V450.5H991V455.5H1001V458H991V463H1003.5V465.5H986ZM1008.5 465.5V463H1006V460.5H1011V463H1018.5V458H1008.5V455.5H1006V450.5H1008.5V448H1021V450.5H1023.5V453H1018.5V450.5H1011V455.5H1021V458H1023.5V463H1021V465.5H1008.5ZM166 505.5V488H183.5V490.5H171V495.5H181V498H171V505.5H166ZM188.5 505.5V503H186V490.5H188.5V488H201V490.5H203.5V503H201V505.5H188.5ZM191 503H198.5V490.5H191V503ZM208.5 505.5V503H206V500.5H211V503H218.5V498H208.5V495.5H206V490.5H208.5V488H221V490.5H223.5V493H218.5V490.5H211V495.5H221V498H223.5V503H221V505.5H208.5ZM228.5 505.5V503H226V500.5H231V503H238.5V498H228.5V495.5H226V490.5H228.5V488H241V490.5H243.5V493H238.5V490.5H231V495.5H241V498H243.5V503H241V505.5H228.5ZM246 505.5V488H263.5V490.5H251V495.5H261V498H251V503H263.5V505.5H246ZM266 505.5V488H271V490.5H273.5V493H276V490.5H278.5V488H283.5V505.5H278.5V495.5H276V500.5H273.5V495.5H271V505.5H266ZM306 505.5V488H323.5V490.5H311V495.5H321V498H311V503H323.5V505.5H306ZM326 505.5V488H331V490.5H333.5V493H336V495.5H338.5V488H343.5V505.5H338.5V500.5H336V498H333.5V495.5H331V505.5H326ZM353.5 505.5V490.5H348.5V488H363.5V490.5H358.5V505.5H353.5ZM366 505.5V488H383.5V490.5H371V495.5H381V498H371V503H383.5V505.5H366ZM386 505.5V488H391V490.5H393.5V493H396V495.5H398.5V488H403.5V505.5H398.5V500.5H396V498H393.5V495.5H391V505.5H386ZM406 505.5V488H418.5V490.5H421V493H423.5V500.5H421V503H418.5V505.5H406ZM411 503H416V500.5H418.5V493H416V490.5H411V503ZM428.5 505.5V503H433.5V490.5H428.5V488H443.5V490.5H438.5V503H443.5V505.5H428.5ZM446 505.5V488H458.5V490.5H461V493H463.5V500.5H461V503H458.5V505.5H446ZM451 503H456V500.5H458.5V493H456V490.5H451V503ZM468.5 505.5V503H466V490.5H468.5V488H481V490.5H483.5V503H481V505.5H468.5ZM471 503H478.5V490.5H471V503ZM488.5 505.5V503H486V500.5H491V503H498.5V498H488.5V495.5H486V490.5H488.5V488H501V490.5H503.5V493H498.5V490.5H491V495.5H501V498H503.5V503H501V505.5H488.5ZM526 505.5V488H543.5V490.5H531V495.5H541V498H531V503H543.5V505.5H526ZM566 505.5V488H581V490.5H583.5V498H581V500.5H571V505.5H566ZM571 498H578.5V490.5H571V498ZM586 505.5V488H601V490.5H603.5V498H598.5V500.5H601V503H603.5V505.5H596V503H593.5V500.5H591V505.5H586ZM591 498H596V495.5H598.5V490.5H591V498ZM608.5 505.5V503H606V490.5H608.5V488H621V490.5H623.5V503H621V505.5H608.5ZM611 503H618.5V490.5H611V503ZM626 505.5V488H638.5V490.5H641V493H643.5V500.5H641V503H638.5V505.5H626ZM631 503H636V500.5H638.5V493H636V490.5H631V503ZM648.5 505.5V503H646V488H651V503H658.5V488H663.5V503H661V505.5H648.5ZM666 505.5V500.5H668.5V498H671V495.5H673.5V493H676V490.5H666V488H683.5V493H681V495.5H678.5V498H676V500.5H673.5V503H683.5V505.5H666ZM688.5 505.5V503H693.5V490.5H688.5V488H703.5V490.5H698.5V503H703.5V505.5H688.5ZM706 505.5V488H718.5V490.5H721V493H723.5V500.5H721V503H718.5V505.5H706ZM711 503H716V500.5H718.5V493H716V490.5H711V503ZM728.5 505.5V503H726V490.5H728.5V488H741V490.5H743.5V503H741V505.5H728.5ZM731 503H738.5V490.5H731V503ZM748.5 505.5V503H746V500.5H751V503H758.5V498H748.5V495.5H746V490.5H748.5V488H761V490.5H763.5V493H758.5V490.5H751V495.5H761V498H763.5V503H761V505.5H748.5ZM791 505.5V503H788.5V500.5H786V493H788.5V490.5H791V488H801V490.5H803.5V493H798.5V490.5H793.5V493H791V500.5H793.5V503H798.5V500.5H803.5V503H801V505.5H791ZM808.5 505.5V503H806V490.5H808.5V488H821V490.5H823.5V503H821V505.5H808.5ZM811 503H818.5V490.5H811V503ZM826 505.5V488H831V490.5H833.5V493H836V490.5H838.5V488H843.5V505.5H838.5V495.5H836V500.5H833.5V495.5H831V505.5H826ZM848.5 505.5V503H846V490.5H848.5V488H861V490.5H863.5V503H861V505.5H848.5ZM851 503H858.5V490.5H851V503ZM888.5 505.5V503H886V488H891V503H898.5V488H903.5V503H901V505.5H888.5ZM906 505.5V488H911V490.5H913.5V493H916V490.5H918.5V488H923.5V505.5H918.5V495.5H916V500.5H913.5V495.5H911V505.5H906ZM926 505.5V493H928.5V490.5H931V488H938.5V490.5H941V493H943.5V505.5H938.5V500.5H931V505.5H926ZM931 498H938.5V493H936V490.5H933.5V493H931V498ZM166 545.5V528H183.5V530.5H171V535.5H181V538H171V543H183.5V545.5H166ZM186 545.5V540.5H188.5V538H191V535.5H188.5V533H186V528H191V533H193.5V535.5H196V533H198.5V528H203.5V533H201V535.5H198.5V538H201V540.5H203.5V545.5H198.5V540.5H196V538H193.5V540.5H191V545.5H186ZM206 545.5V528H221V530.5H223.5V538H221V540.5H211V545.5H206ZM211 538H218.5V530.5H211V538ZM226 545.5V528H241V530.5H243.5V538H238.5V540.5H241V543H243.5V545.5H236V543H233.5V540.5H231V545.5H226ZM231 538H236V535.5H238.5V530.5H231V538ZM246 545.5V528H263.5V530.5H251V535.5H261V538H251V543H263.5V545.5H246ZM268.5 545.5V543H266V540.5H271V543H278.5V538H268.5V535.5H266V530.5H268.5V528H281V530.5H283.5V533H278.5V530.5H271V535.5H281V538H283.5V543H281V545.5H268.5ZM288.5 545.5V543H286V540.5H291V543H298.5V538H288.5V535.5H286V530.5H288.5V528H301V530.5H303.5V533H298.5V530.5H291V535.5H301V538H303.5V543H301V545.5H288.5ZM306 545.5V533H308.5V530.5H311V528H318.5V530.5H321V533H323.5V545.5H318.5V540.5H311V545.5H306ZM311 538H318.5V533H316V530.5H313.5V533H311V538ZM328.5 545.5V543H326V530.5H328.5V528H341V530.5H343.5V543H341V545.5H328.5ZM331 543H338.5V530.5H331V543ZM366 545.5V533H368.5V530.5H371V528H378.5V530.5H381V533H383.5V545.5H378.5V540.5H371V545.5H366ZM371 538H378.5V533H376V530.5H373.5V533H371V538ZM386 545.5V528H401V530.5H403.5V538H398.5V540.5H401V543H403.5V545.5H396V543H393.5V540.5H391V545.5H386ZM391 538H396V535.5H398.5V530.5H391V538ZM413.5 545.5V530.5H408.5V528H423.5V530.5H418.5V545.5H413.5ZM428.5 545.5V543H433.5V530.5H428.5V528H443.5V530.5H438.5V543H443.5V545.5H428.5ZM448.5 545.5V543H446V540.5H451V543H458.5V538H448.5V535.5H446V530.5H448.5V528H461V530.5H463.5V533H458.5V530.5H451V535.5H461V538H463.5V543H461V545.5H448.5ZM473.5 545.5V530.5H468.5V528H483.5V530.5H478.5V545.5H473.5ZM488.5 545.5V543H493.5V530.5H488.5V528H503.5V530.5H498.5V543H503.5V545.5H488.5ZM511 545.5V543H508.5V540.5H506V533H508.5V530.5H511V528H521V530.5H523.5V533H518.5V530.5H513.5V533H511V540.5H513.5V543H518.5V540.5H523.5V543H521V545.5H511ZM526 545.5V533H528.5V530.5H531V528H538.5V530.5H541V533H543.5V545.5H538.5V540.5H531V545.5H526ZM531 538H538.5V533H536V530.5H533.5V533H531V538ZM548.5 548V545.5H551V540.5H556V545.5H553.5V548H548.5ZM588.5 545.5V543H593.5V530.5H588.5V528H603.5V530.5H598.5V543H603.5V545.5H588.5ZM606 545.5V528H611V530.5H613.5V533H616V535.5H618.5V528H623.5V545.5H618.5V540.5H616V538H613.5V535.5H611V545.5H606ZM631 545.5V543H628.5V540.5H626V533H628.5V530.5H631V528H641V530.5H643.5V533H638.5V530.5H633.5V533H631V540.5H633.5V543H638.5V540.5H643.5V543H641V545.5H631ZM648.5 545.5V528H653.5V543H663.5V545.5H648.5ZM668.5 545.5V543H666V528H671V543H678.5V528H683.5V543H681V545.5H668.5ZM688.5 545.5V543H693.5V530.5H688.5V528H703.5V530.5H698.5V543H703.5V545.5H688.5ZM706 545.5V528H711V530.5H713.5V533H716V535.5H718.5V528H723.5V545.5H718.5V540.5H716V538H713.5V535.5H711V545.5H706ZM726 545.5V528H738.5V530.5H741V533H743.5V540.5H741V543H738.5V545.5H726ZM731 543H736V540.5H738.5V533H736V530.5H731V543ZM748.5 545.5V543H746V530.5H748.5V528H761V530.5H763.5V543H761V545.5H748.5ZM751 543H758.5V530.5H751V543ZM768.5 548V545.5H771V540.5H776V545.5H773.5V548H768.5ZM806 545.5V528H811V530.5H813.5V533H816V535.5H818.5V528H823.5V545.5H818.5V540.5H816V538H813.5V535.5H811V545.5H806ZM826 545.5V528H843.5V530.5H831V535.5H841V538H831V543H843.5V545.5H826ZM848.5 545.5V543H846V540.5H851V543H858.5V538H848.5V535.5H846V530.5H848.5V528H861V530.5H863.5V533H858.5V530.5H851V535.5H861V538H863.5V543H861V545.5H848.5ZM873.5 545.5V530.5H868.5V528H883.5V530.5H878.5V545.5H873.5ZM886 545.5V528H903.5V530.5H891V535.5H901V538H891V543H903.5V545.5H886ZM908.5 545.5V543H906V540.5H911V543H918.5V538H908.5V535.5H906V530.5H908.5V528H921V530.5H923.5V533H918.5V530.5H911V535.5H921V538H923.5V543H921V545.5H908.5ZM953.5 545.5V530.5H948.5V528H963.5V530.5H958.5V545.5H953.5ZM966 545.5V528H983.5V530.5H971V535.5H981V538H971V543H983.5V545.5H966ZM986 545.5V528H1001V530.5H1003.5V538H998.5V540.5H1001V543H1003.5V545.5H996V543H993.5V540.5H991V545.5H986ZM991 538H996V535.5H998.5V530.5H991V538ZM1006 545.5V528H1011V530.5H1013.5V533H1016V530.5H1018.5V528H1023.5V545.5H1018.5V535.5H1016V540.5H1013.5V535.5H1011V545.5H1006ZM1028.5 545.5V543H1026V530.5H1028.5V528H1041V530.5H1043.5V543H1041V545.5H1028.5ZM1031 543H1038.5V530.5H1031V543ZM1048.5 545.5V543H1046V540.5H1051V543H1058.5V538H1048.5V535.5H1046V530.5H1048.5V528H1061V530.5H1063.5V533H1058.5V530.5H1051V535.5H1061V538H1063.5V543H1061V545.5H1048.5ZM1068.5 548V545.5H1071V540.5H1076V545.5H1073.5V548H1068.5ZM168.5 585.5V583H166V580.5H171V583H178.5V578H168.5V575.5H166V570.5H168.5V568H181V570.5H183.5V573H178.5V570.5H171V575.5H181V578H183.5V583H181V585.5H168.5ZM188.5 585.5V583H186V568H191V583H198.5V568H203.5V583H201V585.5H188.5ZM206 585.5V573H208.5V570.5H211V568H218.5V570.5H221V573H223.5V585.5H218.5V580.5H211V585.5H206ZM211 578H218.5V573H216V570.5H213.5V573H211V578ZM248.5 585.5V568H253.5V583H263.5V585.5H248.5ZM268.5 585.5V583H273.5V570.5H268.5V568H283.5V570.5H278.5V583H283.5V585.5H268.5ZM286 585.5V568H291V570.5H293.5V573H296V575.5H298.5V568H303.5V585.5H298.5V580.5H296V578H293.5V575.5H291V585.5H286ZM311 585.5V583H308.5V580.5H306V573H308.5V570.5H311V568H323.5V570.5H313.5V573H311V580.5H313.5V583H318.5V578H316V575.5H323.5V585.5H311ZM328.5 585.5V583H326V568H331V583H338.5V568H343.5V583H341V585.5H328.5ZM346 585.5V573H348.5V570.5H351V568H358.5V570.5H361V573H363.5V585.5H358.5V580.5H351V585.5H346ZM351 578H358.5V573H356V570.5H353.5V573H351V578ZM371 585.5V583H368.5V580.5H366V573H368.5V570.5H371V568H383.5V570.5H373.5V573H371V580.5H373.5V583H378.5V578H376V575.5H383.5V585.5H371ZM386 585.5V568H403.5V570.5H391V575.5H401V578H391V583H403.5V585.5H386ZM406 585.5V568H411V570.5H413.5V573H416V570.5H418.5V568H423.5V585.5H418.5V575.5H416V580.5H413.5V575.5H411V585.5H406ZM451 585.5V583H448.5V580.5H446V573H448.5V570.5H451V568H463.5V570.5H453.5V573H451V580.5H453.5V583H458.5V578H456V575.5H463.5V585.5H451ZM466 585.5V568H481V570.5H483.5V578H478.5V580.5H481V583H483.5V585.5H476V583H473.5V580.5H471V585.5H466ZM471 578H476V575.5H478.5V570.5H471V578ZM486 585.5V573H488.5V570.5H491V568H498.5V570.5H501V573H503.5V585.5H498.5V580.5H491V585.5H486ZM491 578H498.5V573H496V570.5H493.5V573H491V578ZM506 585.5V568H523.5V570.5H511V575.5H521V578H511V585.5H506ZM528.5 585.5V583H533.5V570.5H528.5V568H543.5V570.5H538.5V583H543.5V585.5H528.5ZM551 585.5V583H548.5V580.5H546V573H548.5V570.5H551V568H561V570.5H563.5V573H558.5V570.5H553.5V573H551V580.5H553.5V583H558.5V580.5H563.5V583H561V585.5H551ZM566 585.5V573H568.5V570.5H571V568H578.5V570.5H581V573H583.5V585.5H578.5V580.5H571V585.5H566ZM571 578H578.5V573H576V570.5H573.5V573H571V578ZM591 585.5V580.5H596V585.5H591Z" fill="white"/>
<path d="M320.5 524H323V526.5H315.5V524H313V521.5H310.5V519H318V521.5H320.5V524ZM308 521.5H310.5V524H308V521.5ZM325.5 521.5V524H323V521.5H325.5Z" fill="white"/>
<path d="M541.5 560V562.5H539V560H541.5ZM536.5 562.5H539V565H536.5V562.5Z" fill="white"/>
<path d="M700.5 520V522.5H698V520H700.5ZM695.5 522.5H698V525H695.5V522.5Z" fill="white"/>
<path d="M440.5 520V522.5H438V520H440.5ZM435.5 522.5H438V525H435.5V522.5Z" fill="white"/>
</svg>
