<svg width="1300" height="976" viewBox="0 0 1300 976" fill="none" xmlns="http://www.w3.org/2000/svg">
<path d="M173.5 349.25V345.5H169.75V341.75H166V330.5H169.75V326.75H173.5V323H188.5V326.75H192.25V330.5H184.75V326.75H177.25V330.5H173.5V341.75H177.25V345.5H184.75V341.75H192.25V345.5H188.5V349.25H173.5ZM199.75 349.25V345.5H196V326.75H199.75V323H218.5V326.75H222.25V345.5H218.5V349.25H199.75ZM203.5 345.5H214.75V326.75H203.5V345.5ZM229.75 349.25V323H237.25V345.5H252.25V349.25H229.75ZM259.75 349.25V345.5H256V326.75H259.75V323H278.5V326.75H282.25V345.5H278.5V349.25H259.75ZM263.5 345.5H274.75V326.75H263.5V345.5ZM286 349.25V323H308.5V326.75H312.25V338H304.75V341.75H308.5V345.5H312.25V349.25H301V345.5H297.25V341.75H293.5V349.25H286ZM293.5 338H301V334.25H304.75V326.75H293.5V338ZM353.5 349.25V345.5H349.75V341.75H346V330.5H349.75V326.75H353.5V323H368.5V326.75H372.25V330.5H364.75V326.75H357.25V330.5H353.5V341.75H357.25V345.5H364.75V341.75H372.25V345.5H368.5V349.25H353.5ZM387.25 349.25V338H383.5V334.25H379.75V323H387.25V334.25H394.75V323H402.25V334.25H398.5V338H394.75V349.25H387.25ZM413.5 349.25V345.5H409.75V341.75H406V330.5H409.75V326.75H413.5V323H428.5V326.75H432.25V330.5H424.75V326.75H417.25V330.5H413.5V341.75H417.25V345.5H424.75V341.75H432.25V345.5H428.5V349.25H413.5ZM439.75 349.25V323H447.25V345.5H462.25V349.25H439.75ZM469.75 349.25V345.5H477.25V326.75H469.75V323H492.25V326.75H484.75V345.5H492.25V349.25H469.75ZM496 349.25V323H503.5V326.75H507.25V330.5H511V334.25H514.75V323H522.25V349.25H514.75V341.75H511V338H507.25V334.25H503.5V349.25H496ZM533.5 349.25V345.5H529.75V341.75H526V330.5H529.75V326.75H533.5V323H552.25V326.75H537.25V330.5H533.5V341.75H537.25V345.5H544.75V338H541V334.25H552.25V349.25H533.5Z" fill="white"/>
<path d="M173.5 405.5V390.5H168.5V388H183.5V390.5H178.5V405.5H173.5ZM186 405.5V388H203.5V390.5H191V395.5H201V398H191V403H203.5V405.5H186ZM211 405.5V403H208.5V400.5H206V393H208.5V390.5H211V388H221V390.5H223.5V393H218.5V390.5H213.5V393H211V400.5H213.5V403H218.5V400.5H223.5V403H221V405.5H211ZM226 405.5V388H231V390.5H233.5V393H236V395.5H238.5V388H243.5V405.5H238.5V400.5H236V398H233.5V395.5H231V405.5H226ZM248.5 405.5V403H253.5V390.5H248.5V388H263.5V390.5H258.5V403H263.5V405.5H248.5ZM271 405.5V403H268.5V400.5H266V393H268.5V390.5H271V388H281V390.5H283.5V393H278.5V390.5H273.5V393H271V400.5H273.5V403H278.5V400.5H283.5V403H281V405.5H271ZM286 405.5V393H288.5V390.5H291V388H298.5V390.5H301V393H303.5V405.5H298.5V400.5H291V405.5H286ZM291 398H298.5V393H296V390.5H293.5V393H291V398ZM326 405.5V388H343.5V390.5H331V395.5H341V398H331V403H343.5V405.5H326ZM346 405.5V388H351V390.5H353.5V393H356V390.5H358.5V388H363.5V405.5H358.5V395.5H356V400.5H353.5V395.5H351V405.5H346ZM366 405.5V388H381V390.5H383.5V398H381V400.5H371V405.5H366ZM371 398H378.5V390.5H371V398ZM386 405.5V388H401V390.5H403.5V398H398.5V400.5H401V403H403.5V405.5H396V403H393.5V400.5H391V405.5H386ZM391 398H396V395.5H398.5V390.5H391V398ZM406 405.5V388H423.5V390.5H411V395.5H421V398H411V403H423.5V405.5H406ZM431 405.5V403H428.5V400.5H426V393H428.5V390.5H431V388H443.5V390.5H433.5V393H431V400.5H433.5V403H438.5V398H436V395.5H443.5V405.5H431ZM446 405.5V393H448.5V390.5H451V388H458.5V390.5H461V393H463.5V405.5H458.5V400.5H451V405.5H446ZM451 398H458.5V393H456V390.5H453.5V393H451V398ZM466 405.5V388H478.5V390.5H481V393H483.5V400.5H481V403H478.5V405.5H466ZM471 403H476V400.5H478.5V393H476V390.5H471V403ZM486 405.5V393H488.5V390.5H491V388H498.5V390.5H501V393H503.5V405.5H498.5V400.5H491V405.5H486ZM491 398H498.5V393H496V390.5H493.5V393H491V398ZM526 405.5V393H528.5V390.5H531V388H538.5V390.5H541V393H543.5V405.5H538.5V400.5H531V405.5H526ZM531 398H538.5V393H536V390.5H533.5V393H531V398ZM553.5 405.5V390.5H548.5V388H563.5V390.5H558.5V405.5H553.5ZM566 405.5V388H581V390.5H583.5V398H578.5V400.5H581V403H583.5V405.5H576V403H573.5V400.5H571V405.5H566ZM571 398H576V395.5H578.5V390.5H571V398ZM586 405.5V393H588.5V390.5H591V388H598.5V390.5H601V393H603.5V405.5H598.5V400.5H591V405.5H586ZM591 398H598.5V393H596V390.5H593.5V393H591V398ZM613.5 405.5V403H611V400.5H608.5V398H606V388H611V395.5H613.5V398H616V395.5H618.5V388H623.5V398H621V400.5H618.5V403H616V405.5H613.5ZM626 405.5V388H643.5V390.5H631V395.5H641V398H631V403H643.5V405.5H626ZM648.5 405.5V403H646V400.5H651V403H658.5V398H648.5V395.5H646V390.5H648.5V388H661V390.5H663.5V393H658.5V390.5H651V395.5H661V398H663.5V403H661V405.5H648.5ZM686 405.5V388H698.5V390.5H701V393H703.5V400.5H701V403H698.5V405.5H686ZM691 403H696V400.5H698.5V393H696V390.5H691V403ZM706 405.5V393H708.5V390.5H711V388H718.5V390.5H721V393H723.5V405.5H718.5V400.5H711V405.5H706ZM711 398H718.5V393H716V390.5H713.5V393H711V398ZM746 405.5V388H751V390.5H753.5V393H756V390.5H758.5V388H763.5V405.5H758.5V395.5H756V400.5H753.5V395.5H751V405.5H746ZM768.5 405.5V403H766V388H771V403H778.5V388H783.5V403H781V405.5H768.5ZM786 405.5V388H798.5V390.5H801V393H803.5V400.5H801V403H798.5V405.5H786ZM791 403H796V400.5H798.5V393H796V390.5H791V403ZM806 405.5V393H808.5V390.5H811V388H818.5V390.5H821V393H823.5V405.5H818.5V400.5H811V405.5H806ZM811 398H818.5V393H816V390.5H813.5V393H811V398ZM826 405.5V388H831V390.5H833.5V393H836V395.5H838.5V388H843.5V405.5H838.5V400.5H836V398H833.5V395.5H831V405.5H826ZM851 405.5V403H848.5V400.5H846V393H848.5V390.5H851V388H861V390.5H863.5V393H858.5V390.5H853.5V393H851V400.5H853.5V403H858.5V400.5H863.5V403H861V405.5H851ZM866 405.5V393H868.5V390.5H871V388H878.5V390.5H881V393H883.5V405.5H878.5V400.5H871V405.5H866ZM871 398H878.5V393H876V390.5H873.5V393H871V398ZM906 405.5V388H918.5V390.5H921V393H923.5V400.5H921V403H918.5V405.5H906ZM911 403H916V400.5H918.5V393H916V390.5H911V403ZM928.5 405.5V403H926V390.5H928.5V388H941V390.5H943.5V403H941V405.5H928.5ZM931 403H938.5V390.5H931V403ZM948.5 405.5V403H946V400.5H951V403H958.5V398H948.5V395.5H946V390.5H948.5V388H961V390.5H963.5V393H958.5V390.5H951V395.5H961V398H963.5V403H961V405.5H948.5ZM166 445.5V428H181V430.5H183.5V438H178.5V440.5H181V443H183.5V445.5H176V443H173.5V440.5H171V445.5H166ZM171 438H176V435.5H178.5V430.5H171V438ZM186 445.5V428H203.5V430.5H191V435.5H201V438H191V443H203.5V445.5H186ZM211 445.5V443H208.5V440.5H206V433H208.5V430.5H211V428H223.5V430.5H213.5V433H211V440.5H213.5V443H218.5V438H216V435.5H223.5V445.5H211ZM228.5 445.5V443H233.5V430.5H228.5V428H243.5V430.5H238.5V443H243.5V445.5H228.5ZM248.5 445.5V443H246V440.5H251V443H258.5V438H248.5V435.5H246V430.5H248.5V428H261V430.5H263.5V433H258.5V430.5H251V435.5H261V438H263.5V443H261V445.5H248.5ZM273.5 445.5V430.5H268.5V428H283.5V430.5H278.5V445.5H273.5ZM286 445.5V428H301V430.5H303.5V438H298.5V440.5H301V443H303.5V445.5H296V443H293.5V440.5H291V445.5H286ZM291 438H296V435.5H298.5V430.5H291V438ZM308.5 445.5V443H306V430.5H308.5V428H321V430.5H323.5V443H321V445.5H308.5ZM311 443H318.5V430.5H311V443ZM328.5 445.5V443H326V440.5H331V443H338.5V438H328.5V435.5H326V430.5H328.5V428H341V430.5H343.5V433H338.5V430.5H331V435.5H341V438H343.5V443H341V445.5H328.5ZM366 445.5V428H371V430.5H373.5V433H376V435.5H378.5V428H383.5V445.5H378.5V440.5H376V438H373.5V435.5H371V445.5H366ZM386 445.5V433H388.5V430.5H391V428H398.5V430.5H401V433H403.5V445.5H398.5V440.5H391V445.5H386ZM391 438H398.5V433H396V430.5H393.5V433H391V438ZM426 445.5V428H441V430.5H443.5V438H441V440.5H431V445.5H426ZM431 438H438.5V430.5H431V438ZM446 445.5V433H448.5V430.5H451V428H458.5V430.5H461V433H463.5V445.5H458.5V440.5H451V445.5H446ZM451 438H458.5V433H456V430.5H453.5V433H451V438ZM468.5 445.5V428H473.5V443H483.5V445.5H468.5ZM486 445.5V428H503.5V430.5H491V435.5H501V438H491V443H503.5V445.5H486ZM513.5 445.5V430.5H508.5V428H523.5V430.5H518.5V445.5H513.5ZM526 445.5V433H528.5V430.5H531V428H538.5V430.5H541V433H543.5V445.5H538.5V440.5H531V445.5H526ZM531 438H538.5V433H536V430.5H533.5V433H531V438ZM566 445.5V428H578.5V430.5H581V433H583.5V440.5H581V443H578.5V445.5H566ZM571 443H576V440.5H578.5V433H576V430.5H571V443ZM586 445.5V428H603.5V430.5H591V435.5H601V438H591V443H603.5V445.5H586ZM631 445.5V443H628.5V440.5H626V433H628.5V430.5H631V428H641V430.5H643.5V433H638.5V430.5H633.5V433H631V440.5H633.5V443H638.5V440.5H643.5V443H641V445.5H631ZM648.5 445.5V443H646V430.5H648.5V428H661V430.5H663.5V443H661V445.5H648.5ZM651 443H658.5V430.5H651V443ZM666 445.5V428H681V430.5H683.5V438H678.5V440.5H681V443H683.5V445.5H676V443H673.5V440.5H671V445.5H666ZM671 438H676V435.5H678.5V430.5H671V438ZM686 445.5V428H703.5V430.5H691V435.5H701V438H691V443H703.5V445.5H686ZM708.5 445.5V443H706V440.5H711V443H718.5V438H708.5V435.5H706V430.5H708.5V428H721V430.5H723.5V433H718.5V430.5H711V435.5H721V438H723.5V443H721V445.5H708.5ZM746 445.5V428H761V430.5H763.5V438H761V440.5H751V445.5H746ZM751 438H758.5V430.5H751V438ZM766 445.5V433H768.5V430.5H771V428H778.5V430.5H781V433H783.5V445.5H778.5V440.5H771V445.5H766ZM771 438H778.5V433H776V430.5H773.5V433H771V438ZM786 445.5V428H801V430.5H803.5V438H798.5V440.5H801V443H803.5V445.5H796V443H793.5V440.5H791V445.5H786ZM791 438H796V435.5H798.5V430.5H791V438ZM806 445.5V433H808.5V430.5H811V428H818.5V430.5H821V433H823.5V445.5H818.5V440.5H811V445.5H806ZM811 438H818.5V433H816V430.5H813.5V433H811V438ZM846 445.5V428H861V430.5H863.5V438H861V440.5H851V445.5H846ZM851 438H858.5V430.5H851V438ZM866 445.5V428H881V430.5H883.5V438H878.5V440.5H881V443H883.5V445.5H876V443H873.5V440.5H871V445.5H866ZM871 438H876V435.5H878.5V430.5H871V438ZM888.5 445.5V443H886V430.5H888.5V428H901V430.5H903.5V443H901V445.5H888.5ZM891 443H898.5V430.5H891V443ZM906 445.5V428H918.5V430.5H921V433H923.5V440.5H921V443H918.5V445.5H906ZM911 443H916V440.5H918.5V433H916V430.5H911V443ZM928.5 445.5V443H926V428H931V443H938.5V428H943.5V443H941V445.5H928.5ZM946 445.5V440.5H948.5V438H951V435.5H953.5V433H956V430.5H946V428H963.5V433H961V435.5H958.5V438H956V440.5H953.5V443H963.5V445.5H946ZM968.5 445.5V443H973.5V430.5H968.5V428H983.5V430.5H978.5V443H983.5V445.5H968.5ZM986 445.5V428H1001V430.5H1003.5V438H998.5V440.5H1001V443H1003.5V445.5H996V443H993.5V440.5H991V445.5H986ZM991 438H996V435.5H998.5V430.5H991V438ZM166 485.5V468H183.5V470.5H171V475.5H181V478H171V483H183.5V485.5H166ZM186 485.5V468H203.5V470.5H191V475.5H201V478H191V485.5H186ZM206 485.5V468H223.5V470.5H211V475.5H221V478H211V483H223.5V485.5H206ZM228.5 485.5V483H233.5V470.5H228.5V468H243.5V470.5H238.5V483H243.5V485.5H228.5ZM253.5 485.5V470.5H248.5V468H263.5V470.5H258.5V485.5H253.5ZM268.5 485.5V483H266V470.5H268.5V468H281V470.5H283.5V483H281V485.5H268.5ZM271 483H278.5V470.5H271V483ZM288.5 485.5V483H286V480.5H291V483H298.5V478H288.5V475.5H286V470.5H288.5V468H301V470.5H303.5V473H298.5V470.5H291V475.5H301V478H303.5V483H301V485.5H288.5ZM326 485.5V468H338.5V470.5H341V473H343.5V480.5H341V483H338.5V485.5H326ZM331 483H336V480.5H338.5V473H336V470.5H331V483ZM346 485.5V468H363.5V470.5H351V475.5H361V478H351V483H363.5V485.5H346ZM386 485.5V473H388.5V470.5H391V468H398.5V470.5H401V473H403.5V485.5H398.5V480.5H391V485.5H386ZM391 478H398.5V473H396V470.5H393.5V473H391V478ZM406 485.5V468H411V470.5H413.5V473H416V475.5H418.5V468H423.5V485.5H418.5V480.5H416V478H413.5V475.5H411V485.5H406ZM428.5 485.5V483H433.5V470.5H428.5V468H443.5V470.5H438.5V483H443.5V485.5H428.5ZM446 485.5V468H451V470.5H453.5V473H456V470.5H458.5V468H463.5V485.5H458.5V475.5H456V480.5H453.5V475.5H451V485.5H446ZM466 485.5V473H468.5V470.5H471V468H478.5V470.5H481V473H483.5V485.5H478.5V480.5H471V485.5H466ZM471 478H478.5V473H476V470.5H473.5V473H471V478ZM491 485.5V483H488.5V480.5H486V473H488.5V470.5H491V468H501V470.5H503.5V473H498.5V470.5H493.5V473H491V480.5H493.5V483H498.5V480.5H503.5V483H501V485.5H491ZM506 485.5V473H508.5V470.5H511V468H518.5V470.5H521V473H523.5V485.5H518.5V480.5H511V485.5H506ZM511 478H518.5V473H516V470.5H513.5V473H511V478ZM528.5 485.5V483H526V470.5H528.5V468H541V470.5H543.5V483H541V485.5H528.5ZM531 483H538.5V470.5H531V483ZM568.5 485.5V483H566V480.5H571V483H578.5V478H568.5V475.5H566V470.5H568.5V468H581V470.5H583.5V473H578.5V470.5H571V475.5H581V478H583.5V483H581V485.5H568.5ZM588.5 485.5V483H586V470.5H588.5V468H601V470.5H603.5V483H601V485.5H588.5ZM591 483H598.5V470.5H591V483ZM606 485.5V468H621V470.5H623.5V475.5H621V478H623.5V483H621V485.5H606ZM611 475.5H618.5V470.5H611V475.5ZM611 483H618.5V478H611V483ZM626 485.5V468H641V470.5H643.5V478H638.5V480.5H641V483H643.5V485.5H636V483H633.5V480.5H631V485.5H626ZM631 478H636V475.5H638.5V470.5H631V478ZM646 485.5V468H663.5V470.5H651V475.5H661V478H651V483H663.5V485.5H646ZM686 485.5V473H688.5V470.5H691V468H698.5V470.5H701V473H703.5V485.5H698.5V480.5H691V485.5H686ZM691 478H698.5V473H696V470.5H693.5V473H691V478ZM708.5 485.5V483H706V480.5H711V483H718.5V478H708.5V475.5H706V470.5H708.5V468H721V470.5H723.5V473H718.5V470.5H711V475.5H721V478H723.5V483H721V485.5H708.5ZM748.5 485.5V483H753.5V470.5H748.5V468H763.5V470.5H758.5V483H763.5V485.5H748.5ZM766 485.5V468H771V470.5H773.5V473H776V470.5H778.5V468H783.5V485.5H778.5V475.5H776V480.5H773.5V475.5H771V485.5H766ZM786 485.5V473H788.5V470.5H791V468H798.5V470.5H801V473H803.5V485.5H798.5V480.5H791V485.5H786ZM791 478H798.5V473H796V470.5H793.5V473H791V478ZM811 485.5V483H808.5V480.5H806V473H808.5V470.5H811V468H823.5V470.5H813.5V473H811V480.5H813.5V483H818.5V478H816V475.5H823.5V485.5H811ZM826 485.5V468H843.5V470.5H831V475.5H841V478H831V483H843.5V485.5H826ZM846 485.5V468H851V470.5H853.5V473H856V475.5H858.5V468H863.5V485.5H858.5V480.5H856V478H853.5V475.5H851V485.5H846ZM868.5 485.5V483H866V480.5H871V483H878.5V478H868.5V475.5H866V470.5H868.5V468H881V470.5H883.5V473H878.5V470.5H871V475.5H881V478H883.5V483H881V485.5H868.5ZM166 525.5V508H183.5V510.5H171V515.5H181V518H171V523H183.5V525.5H166ZM188.5 525.5V523H186V520.5H191V523H198.5V518H188.5V515.5H186V510.5H188.5V508H201V510.5H203.5V513H198.5V510.5H191V515.5H201V518H203.5V523H201V525.5H188.5ZM213.5 525.5V510.5H208.5V508H223.5V510.5H218.5V525.5H213.5ZM226 525.5V513H228.5V510.5H231V508H238.5V510.5H241V513H243.5V525.5H238.5V520.5H231V525.5H226ZM231 518H238.5V513H236V510.5H233.5V513H231V518ZM253.5 525.5V510.5H248.5V508H263.5V510.5H258.5V525.5H253.5ZM268.5 525.5V523H273.5V510.5H268.5V508H283.5V510.5H278.5V523H283.5V525.5H268.5ZM291 525.5V523H288.5V520.5H286V513H288.5V510.5H291V508H301V510.5H303.5V513H298.5V510.5H293.5V513H291V520.5H293.5V523H298.5V520.5H303.5V523H301V525.5H291ZM306 525.5V513H308.5V510.5H311V508H318.5V510.5H321V513H323.5V525.5H318.5V520.5H311V525.5H306ZM311 518H318.5V513H316V510.5H313.5V513H311V518ZM328.5 525.5V523H326V520.5H331V523H338.5V518H328.5V515.5H326V510.5H328.5V508H341V510.5H343.5V513H338.5V510.5H331V515.5H341V518H343.5V523H341V525.5H328.5Z" fill="white"/>
<path d="M519.5 463H522V465.5H514.5V463H512V460.5H509.5V458H517V460.5H519.5V463ZM507 460.5H509.5V463H507V460.5ZM524.5 460.5V463H522V460.5H524.5Z" fill="white"/>
<path d="M639.5 380V382.5H637V380H639.5ZM634.5 382.5H637V385H634.5V382.5Z" fill="white"/>
<path d="M856.5 408V410.5H854V408H856.5ZM851.5 410.5H854V413H851.5V410.5Z" fill="white"/>
<path d="M497.5 489V491.5H495V489H497.5ZM492.5 491.5H495V494H492.5V491.5Z" fill="white"/>
<path d="M239.5 500V502.5H237V500H239.5ZM234.5 502.5H237V505H234.5V502.5Z" fill="white"/>
</svg>
