<svg width="1300" height="976" viewBox="0 0 1300 976" fill="none" xmlns="http://www.w3.org/2000/svg">
<path d="M166 349.25V323H188.5V326.75H192.25V338H188.5V341.75H173.5V349.25H166ZM173.5 338H184.75V326.75H173.5V338ZM199.75 349.25V345.5H207.25V326.75H199.75V323H222.25V326.75H214.75V345.5H222.25V349.25H199.75ZM226 349.25V341.75H229.75V338H233.5V334.25H229.75V330.5H226V323H233.5V330.5H237.25V334.25H241V330.5H244.75V323H252.25V330.5H248.5V334.25H244.75V338H248.5V341.75H252.25V349.25H244.75V341.75H241V338H237.25V341.75H233.5V349.25H226ZM256 349.25V323H282.25V326.75H263.5V334.25H278.5V338H263.5V345.5H282.25V349.25H256ZM289.75 349.25V323H297.25V345.5H312.25V349.25H289.75ZM346 349.25V330.5H349.75V326.75H353.5V323H364.75V326.75H368.5V330.5H372.25V349.25H364.75V341.75H353.5V349.25H346ZM353.5 338H364.75V330.5H361V326.75H357.25V330.5H353.5V338ZM376 349.25V323H398.5V326.75H402.25V338H394.75V341.75H398.5V345.5H402.25V349.25H391V345.5H387.25V341.75H383.5V349.25H376ZM383.5 338H391V334.25H394.75V326.75H383.5V338ZM417.25 349.25V326.75H409.75V323H432.25V326.75H424.75V349.25H417.25ZM466 349.25V323H492.25V326.75H473.5V334.25H488.5V338H473.5V345.5H492.25V349.25H466ZM529.75 349.25V345.5H526V323H533.5V345.5H544.75V323H552.25V345.5H548.5V349.25H529.75ZM556 349.25V323H563.5V326.75H567.25V330.5H571V326.75H574.75V323H582.25V349.25H574.75V334.25H571V341.75H567.25V334.25H563.5V349.25H556ZM586 349.25V330.5H589.75V326.75H593.5V323H604.75V326.75H608.5V330.5H612.25V349.25H604.75V341.75H593.5V349.25H586ZM593.5 338H604.75V330.5H601V326.75H597.25V330.5H593.5V338ZM646 349.25V323H672.25V326.75H653.5V334.25H668.5V338H653.5V349.25H646ZM679.75 349.25V345.5H676V326.75H679.75V323H698.5V326.75H702.25V345.5H698.5V349.25H679.75ZM683.5 345.5H694.75V326.75H683.5V345.5ZM706 349.25V323H728.5V326.75H732.25V338H724.75V341.75H728.5V345.5H732.25V349.25H721V345.5H717.25V341.75H713.5V349.25H706ZM713.5 338H721V334.25H724.75V326.75H713.5V338ZM736 349.25V323H743.5V326.75H747.25V330.5H751V326.75H754.75V323H762.25V349.25H754.75V334.25H751V341.75H747.25V334.25H743.5V349.25H736ZM766 349.25V330.5H769.75V326.75H773.5V323H784.75V326.75H788.5V330.5H792.25V349.25H784.75V341.75H773.5V349.25H766ZM773.5 338H784.75V330.5H781V326.75H777.25V330.5H773.5V338ZM826 349.25V323H844.75V326.75H848.5V330.5H852.25V341.75H848.5V345.5H844.75V349.25H826ZM833.5 345.5H841V341.75H844.75V330.5H841V326.75H833.5V345.5ZM856 349.25V323H882.25V326.75H863.5V334.25H878.5V338H863.5V345.5H882.25V349.25H856ZM916 349.25V330.5H919.75V326.75H923.5V323H934.75V326.75H938.5V330.5H942.25V349.25H934.75V341.75H923.5V349.25H916ZM923.5 338H934.75V330.5H931V326.75H927.25V330.5H923.5V338ZM946 349.25V323H968.5V326.75H972.25V338H964.75V341.75H968.5V345.5H972.25V349.25H961V345.5H957.25V341.75H953.5V349.25H946ZM953.5 338H961V334.25H964.75V326.75H953.5V338ZM987.25 349.25V326.75H979.75V323H1002.25V326.75H994.75V349.25H987.25ZM1006 349.25V323H1032.25V326.75H1013.5V334.25H1028.5V338H1013.5V345.5H1032.25V349.25H1006ZM1039.75 353V349.25H1043.5V341.75H1051V349.25H1047.25V353H1039.75ZM166 419.25V393H173.5V396.75H177.25V400.5H181V404.25H184.75V393H192.25V419.25H184.75V411.75H181V408H177.25V404.25H173.5V419.25H166ZM196 419.25V400.5H199.75V396.75H203.5V393H214.75V396.75H218.5V400.5H222.25V419.25H214.75V411.75H203.5V419.25H196ZM203.5 408H214.75V400.5H211V396.75H207.25V400.5H203.5V408ZM229.75 419.25V415.5H226V396.75H229.75V393H248.5V396.75H252.25V415.5H248.5V419.25H229.75ZM233.5 415.5H244.75V396.75H233.5V415.5ZM289.75 419.25V415.5H286V393H293.5V415.5H304.75V393H312.25V415.5H308.5V419.25H289.75ZM316 419.25V393H323.5V396.75H327.25V400.5H331V396.75H334.75V393H342.25V419.25H334.75V404.25H331V411.75H327.25V404.25H323.5V419.25H316ZM346 419.25V400.5H349.75V396.75H353.5V393H364.75V396.75H368.5V400.5H372.25V419.25H364.75V411.75H353.5V419.25H346ZM353.5 408H364.75V400.5H361V396.75H357.25V400.5H353.5V408ZM406 419.25V393H428.5V396.75H432.25V408H424.75V411.75H428.5V415.5H432.25V419.25H421V415.5H417.25V411.75H413.5V419.25H406ZM413.5 408H421V404.25H424.75V396.75H413.5V408ZM436 419.25V393H462.25V396.75H443.5V404.25H458.5V408H443.5V415.5H462.25V419.25H436ZM469.75 419.25V415.5H466V411.75H473.5V415.5H484.75V408H469.75V404.25H466V396.75H469.75V393H488.5V396.75H492.25V400.5H484.75V396.75H473.5V404.25H488.5V408H492.25V415.5H488.5V419.25H469.75ZM499.75 419.25V415.5H496V396.75H499.75V393H518.5V396.75H522.25V415.5H518.5V419.25H499.75ZM503.5 415.5H514.75V396.75H503.5V415.5ZM529.75 419.25V393H537.25V415.5H552.25V419.25H529.75ZM559.75 419.25V415.5H556V393H563.5V415.5H574.75V393H582.25V415.5H578.5V419.25H559.75ZM593.5 419.25V415.5H589.75V411.75H586V400.5H589.75V396.75H593.5V393H608.5V396.75H612.25V400.5H604.75V396.75H597.25V400.5H593.5V411.75H597.25V415.5H604.75V411.75H612.25V415.5H608.5V419.25H593.5ZM616 419.25V400.5H619.75V396.75H623.5V393H634.75V396.75H638.5V400.5H642.25V419.25H634.75V411.75H623.5V419.25H616ZM623.5 408H634.75V400.5H631V396.75H627.25V400.5H623.5V408ZM649.75 419.25V415.5H646V396.75H649.75V393H668.5V396.75H672.25V415.5H668.5V419.25H649.75ZM653.5 415.5H664.75V396.75H653.5V415.5Z" fill="white"/>
<path d="M214.75 387H218.5V390.75H207.25V387H203.5V383.25H199.75V379.5H211V383.25H214.75V387ZM196 383.25H199.75V387H196V383.25ZM222.25 383.25V387H218.5V383.25H222.25Z" fill="white"/>
<path d="M634.75 387H638.5V390.75H627.25V387H623.5V383.25H619.75V379.5H631V383.25H634.75V387ZM616 383.25H619.75V387H616V383.25ZM642.25 383.25V387H638.5V383.25H642.25Z" fill="white"/>
<path d="M166 491.5V474H181V476.5H183.5V484H178.5V486.5H181V489H183.5V491.5H176V489H173.5V486.5H171V491.5H166ZM171 484H176V481.5H178.5V476.5H171V484ZM188.5 491.5V489H186V476.5H188.5V474H201V476.5H203.5V489H201V491.5H188.5ZM191 489H198.5V476.5H191V489ZM206 491.5V474H211V476.5H213.5V479H216V481.5H218.5V474H223.5V491.5H218.5V486.5H216V484H213.5V481.5H211V491.5H206ZM251 491.5V489H248.5V486.5H246V479H248.5V476.5H251V474H263.5V476.5H253.5V479H251V486.5H253.5V489H258.5V484H256V481.5H263.5V491.5H251ZM268.5 491.5V489H273.5V476.5H268.5V474H283.5V476.5H278.5V489H283.5V491.5H268.5ZM288.5 491.5V474H293.5V489H303.5V491.5H288.5ZM306 491.5V474H321V476.5H323.5V481.5H321V484H323.5V489H321V491.5H306ZM311 481.5H318.5V476.5H311V481.5ZM311 489H318.5V484H311V489ZM326 491.5V474H343.5V476.5H331V481.5H341V484H331V489H343.5V491.5H326ZM346 491.5V474H361V476.5H363.5V484H358.5V486.5H361V489H363.5V491.5H356V489H353.5V486.5H351V491.5H346ZM351 484H356V481.5H358.5V476.5H351V484ZM373.5 491.5V476.5H368.5V474H383.5V476.5H378.5V491.5H373.5ZM388.5 494V491.5H391V486.5H396V491.5H393.5V494H388.5ZM431 491.5V489H428.5V486.5H426V479H428.5V476.5H431V474H441V476.5H443.5V479H438.5V476.5H433.5V479H431V486.5H433.5V489H438.5V486.5H443.5V489H441V491.5H431ZM446 491.5V474H461V476.5H463.5V484H458.5V486.5H461V489H463.5V491.5H456V489H453.5V486.5H451V491.5H446ZM451 484H456V481.5H458.5V476.5H451V484ZM468.5 491.5V489H473.5V476.5H468.5V474H483.5V476.5H478.5V489H483.5V491.5H468.5ZM486 491.5V479H488.5V476.5H491V474H498.5V476.5H501V479H503.5V491.5H498.5V486.5H491V491.5H486ZM491 484H498.5V479H496V476.5H493.5V479H491V484ZM506 491.5V474H518.5V476.5H521V479H523.5V486.5H521V489H518.5V491.5H506ZM511 489H516V486.5H518.5V479H516V476.5H511V489ZM528.5 491.5V489H526V476.5H528.5V474H541V476.5H543.5V489H541V491.5H528.5ZM531 489H538.5V476.5H531V489ZM546 491.5V474H561V476.5H563.5V484H558.5V486.5H561V489H563.5V491.5H556V489H553.5V486.5H551V491.5H546ZM551 484H556V481.5H558.5V476.5H551V484ZM586 491.5V474H598.5V476.5H601V479H603.5V486.5H601V489H598.5V491.5H586ZM591 489H596V486.5H598.5V479H596V476.5H591V489ZM606 491.5V479H608.5V476.5H611V474H618.5V476.5H621V479H623.5V491.5H618.5V486.5H611V491.5H606ZM611 484H618.5V479H616V476.5H613.5V479H611V484ZM648.5 491.5V489H646V486.5H651V489H658.5V484H648.5V481.5H646V476.5H648.5V474H661V476.5H663.5V479H658.5V476.5H651V481.5H661V484H663.5V489H661V491.5H648.5ZM666 491.5V474H683.5V476.5H671V481.5H681V484H671V489H683.5V491.5H666ZM686 491.5V474H701V476.5H703.5V484H698.5V486.5H701V489H703.5V491.5H696V489H693.5V486.5H691V491.5H686ZM691 484H696V481.5H698.5V476.5H691V484ZM708.5 491.5V489H713.5V476.5H708.5V474H723.5V476.5H718.5V489H723.5V491.5H708.5ZM726 491.5V474H743.5V476.5H731V481.5H741V484H731V489H743.5V491.5H726ZM166 531.5V514H171V516.5H173.5V519H176V516.5H178.5V514H183.5V531.5H178.5V521.5H176V526.5H173.5V521.5H171V531.5H166ZM188.5 531.5V529H186V516.5H188.5V514H201V516.5H203.5V529H201V531.5H188.5ZM191 529H198.5V516.5H191V529ZM206 531.5V514H211V516.5H213.5V519H216V521.5H218.5V514H223.5V531.5H218.5V526.5H216V524H213.5V521.5H211V531.5H206ZM226 531.5V514H231V521.5H233.5V519H236V516.5H238.5V514H243.5V516.5H241V519H238.5V521.5H236V524H238.5V526.5H241V529H243.5V531.5H236V529H233.5V526.5H231V531.5H226ZM246 531.5V514H263.5V516.5H251V521.5H261V524H251V529H263.5V531.5H246ZM273.5 531.5V524H271V521.5H268.5V514H273.5V521.5H278.5V514H283.5V521.5H281V524H278.5V531.5H273.5ZM308.5 531.5V529H313.5V516.5H308.5V514H323.5V516.5H318.5V529H323.5V531.5H308.5ZM328.5 531.5V529H326V526.5H331V529H338.5V524H328.5V521.5H326V516.5H328.5V514H341V516.5H343.5V519H338.5V516.5H331V521.5H341V524H343.5V529H341V531.5H328.5ZM348.5 531.5V514H353.5V529H363.5V531.5H348.5ZM366 531.5V519H368.5V516.5H371V514H378.5V516.5H381V519H383.5V531.5H378.5V526.5H371V531.5H366ZM371 524H378.5V519H376V516.5H373.5V519H371V524ZM386 531.5V514H391V516.5H393.5V519H396V521.5H398.5V514H403.5V531.5H398.5V526.5H396V524H393.5V521.5H391V531.5H386ZM406 531.5V514H418.5V516.5H421V519H423.5V526.5H421V529H418.5V531.5H406ZM411 529H416V526.5H418.5V519H416V516.5H411V529Z" fill="white"/>
<path d="M679.5 466V468.5H677V466H679.5ZM674.5 468.5H677V471H674.5V468.5Z" fill="white"/>
<path d="M486.75 310V313.75H483V310H486.75ZM479.25 313.75H483V317.5H479.25V313.75Z" fill="white"/>
<path d="M602.75 422V425.75H599V422H602.75ZM595.25 425.75H599V429.5H595.25V425.75Z" fill="white"/>
</svg>
