<svg width="1863" height="964" viewBox="0 0 1863 964" fill="none" xmlns="http://www.w3.org/2000/svg">
<g clip-path="url(#clip0_900_257)">
<path d="M295.336 351.531C287.914 348.797 281.078 345.477 274.828 341.57C268.969 337.664 266.039 331.219 266.039 322.234C266.039 319.891 266.625 318.328 267.797 317.547C268.969 316.766 269.945 315.594 270.727 314.031C271.508 312.859 273.07 310.711 275.414 307.586C277.758 304.461 280.297 301.141 283.031 297.625C285.766 293.719 288.305 290.203 290.648 287.078C292.992 283.562 294.555 281.219 295.336 280.047C295.336 274.969 294.945 268.914 294.164 261.883C293.773 254.461 293.969 247.625 294.75 241.375C295.922 234.734 298.266 229.266 301.781 224.969C305.297 220.281 311.156 217.938 319.359 217.938C324.047 217.938 327.953 219.695 331.078 223.211C334.203 226.336 338.109 227.898 342.797 227.898H345.141C361.156 215.398 377.562 204.461 394.359 195.086C411.547 185.32 430.688 180.438 451.781 180.438C465.453 180.438 476.586 184.539 485.18 192.742C494.164 200.555 498.656 211.688 498.656 226.141C498.656 244.109 494.555 262.664 486.352 281.805C478.148 300.945 467.797 319.695 455.297 338.055C443.188 356.023 429.906 373.016 415.453 389.031C401.391 405.047 388.5 418.914 376.781 430.633C375.609 432.195 373.852 433.953 371.508 435.906C369.164 437.469 367.016 439.227 365.062 441.18C362.719 443.133 360.18 445.477 357.445 448.211L352.758 582.977C352.758 586.492 352.562 590.203 352.172 594.109C352.172 598.016 351.391 601.531 349.828 604.656C348.656 608.172 346.703 610.906 343.969 612.859C341.625 615.203 338.109 616.375 333.422 616.375C331.078 616.375 327.953 615.789 324.047 614.617C320.141 613.836 316.43 612.469 312.914 610.516C309.398 608.562 306.273 606.219 303.539 603.484C301.195 600.75 300.023 597.625 300.023 594.109L295.336 351.531ZM349.828 388.445H352.172C352.562 388.445 353.734 387.273 355.688 384.93C358.031 382.586 360.57 379.852 363.305 376.727C366.43 373.602 369.359 370.477 372.094 367.352C375.219 363.836 377.562 361.102 379.125 359.148C390.844 350.555 401.586 339.812 411.352 326.922C421.117 314.031 428.93 301.141 434.789 288.25C441.039 274.969 444.75 263.055 445.922 252.508C447.484 241.961 445.727 234.734 440.648 230.828C435.961 226.531 427.562 226.922 415.453 232C403.734 237.078 387.719 248.797 367.406 267.156C362.719 271.062 358.422 275.555 354.516 280.633C350.609 285.711 348.266 291.375 347.484 297.625L349.828 388.445ZM525.609 367.352L547.289 216.766C548.07 211.688 550.219 207.977 553.734 205.633C557.641 203.289 561.938 202.117 566.625 202.117C575.219 202.117 582.055 204.656 587.133 209.734C592.211 214.422 596.508 220.281 600.023 227.312H600.609C605.297 227.312 609.398 226.531 612.914 224.969C616.82 223.016 621.508 222.039 626.977 222.039C639.477 222.039 650.023 225.945 658.617 233.758C667.602 241.57 674.828 251.141 680.297 262.469C685.766 273.406 689.672 285.32 692.016 298.211C694.75 311.102 696.117 322.43 696.117 332.195C696.117 343.914 692.992 357 686.742 371.453C680.883 385.906 672.875 399.578 662.719 412.469C652.953 425.359 641.82 436.102 629.32 444.695C616.82 453.289 604.125 457.586 591.234 457.586C579.516 457.586 569.359 454.852 560.766 449.383C552.562 443.914 545.727 437.078 540.258 428.875C535.18 420.281 531.469 410.711 529.125 400.164C526.781 389.617 525.609 379.266 525.609 369.109V367.352ZM574.828 370.867C575.609 374.773 576.391 379.266 577.172 384.344C577.953 389.422 579.125 394.109 580.688 398.406C582.25 402.312 584.398 405.438 587.133 407.781C590.258 409.734 594.555 409.734 600.023 407.781C605.102 403.094 610.57 397.82 616.43 391.961C622.289 386.102 627.758 379.852 632.836 373.211C638.305 366.57 642.797 359.539 646.312 352.117C649.828 344.695 651.586 336.883 651.586 328.68C653.148 315.398 652.172 303.289 648.656 292.352C645.141 281.023 640.062 273.016 633.422 268.328C627.172 263.25 619.945 262.664 611.742 266.57C603.539 270.086 595.336 280.047 587.133 296.453C582.445 306.609 579.125 318.523 577.172 332.195C575.609 345.477 574.828 357.781 574.828 369.109V370.867ZM748.266 431.805C747.484 417.742 746.117 398.992 744.164 375.555C742.602 351.727 740.648 327.117 738.305 301.727C736.352 276.336 734.203 252.312 731.859 229.656C729.516 207 727.562 189.422 726 176.922C726 171.844 728.344 168.523 733.031 166.961C737.719 165.398 742.211 164.617 746.508 164.617C751.977 164.617 757.641 166.18 763.5 169.305C769.75 172.43 773.656 176.727 775.219 182.195C775.219 183.758 775.414 186.688 775.805 190.984C776.195 194.891 776.391 198.992 776.391 203.289C776.781 207.586 777.172 211.883 777.562 216.18C777.953 220.086 778.148 222.82 778.148 224.383C778.148 226.727 778.148 228.484 778.148 229.656C778.148 230.828 778.148 232 778.148 233.172C778.148 233.953 778.344 234.93 778.734 236.102C779.125 237.273 779.711 239.227 780.492 241.961C781.273 241.18 782.055 240.203 782.836 239.031C784.008 237.859 784.789 237.078 785.18 236.688C791.43 227.703 797.484 219.891 803.344 213.25C809.203 206.219 815.258 199.773 821.508 193.914C827.758 187.664 834.594 181.219 842.016 174.578C849.828 167.547 858.812 159.539 868.969 150.555C871.312 148.602 873.07 147.234 874.242 146.453C875.414 145.281 876.391 144.5 877.172 144.109C878.344 143.328 879.516 142.938 880.688 142.938C881.859 142.547 883.422 142.352 885.375 142.352C892.016 142.352 898.656 144.695 905.297 149.383C912.328 153.68 915.844 159.734 915.844 167.547C915.844 170.281 914.867 173.211 912.914 176.336C910.961 179.07 908.617 181.805 905.883 184.539C903.148 186.883 900.219 189.031 897.094 190.984C894.359 192.938 891.82 194.305 889.477 195.086C879.32 204.07 868.578 214.422 857.25 226.141C845.922 237.469 835.375 249.773 825.609 263.055C815.844 276.336 807.836 290.203 801.586 304.656C795.336 319.109 792.211 333.562 792.211 348.016C792.211 361.297 793.188 374.383 795.141 387.273C797.094 400.164 798.07 413.25 798.07 426.531V447.039C794.945 450.164 792.211 452.703 789.867 454.656C787.523 456.609 784.203 457.586 779.906 457.586C773.266 457.586 766.82 454.852 760.57 449.383C754.32 443.523 750.219 437.664 748.266 431.805ZM987.328 285.906C981.859 285.906 976.977 287.273 972.68 290.008C968.383 292.742 963.305 294.109 957.445 294.109C956.664 294.109 954.516 294.109 951 294.109C947.875 293.719 945.922 293.523 945.141 293.523C943.578 291.57 941.82 290.008 939.867 288.836C937.914 287.664 935.961 286.492 934.008 285.32C932.055 283.758 930.297 282 928.734 280.047C927.562 278.094 926.977 275.359 926.977 271.844C926.977 265.984 929.32 261.297 934.008 257.781C938.695 253.875 944.164 250.555 950.414 247.82C956.664 245.086 962.914 242.547 969.164 240.203C975.805 237.859 981.078 235.125 984.984 232V206.219C984.984 177.312 983.617 148.406 980.883 119.5C978.148 90.2031 976.781 61.2969 976.781 32.7812C976.781 24.9687 978.734 19.8906 982.641 17.5469C986.547 15.2031 991.82 14.0312 998.461 14.0312C1006.27 14.0312 1011.94 16.375 1015.45 21.0625C1019.36 25.3594 1022.09 30.8281 1023.66 37.4688C1025.22 43.7187 1026 50.5547 1026 57.9766C1026 65.0078 1026.2 71.0625 1026.59 76.1406C1026.59 81.2187 1026.98 90.2031 1027.76 103.094C1028.54 115.984 1029.32 129.656 1030.1 144.109C1030.88 158.562 1031.66 172.234 1032.45 185.125C1033.23 198.016 1033.81 207 1034.2 212.078C1035.77 211.688 1038.7 210.711 1042.99 209.148C1047.68 207.195 1052.56 205.438 1057.64 203.875C1062.72 201.922 1067.41 200.164 1071.7 198.602C1076.39 197.039 1079.71 195.867 1081.66 195.086C1091.82 190.789 1102.37 186.102 1113.3 181.023C1124.24 175.555 1135.38 172.82 1146.7 172.82C1154.52 172.82 1160.38 175.555 1164.28 181.023C1168.58 186.102 1170.73 192.156 1170.73 199.188C1170.73 204.266 1168.77 207.977 1164.87 210.32C1160.96 212.664 1156.86 214.812 1152.56 216.766L1045.92 256.609C1044.75 257.391 1043.58 258.172 1042.41 258.953C1041.23 259.344 1040.06 260.125 1038.89 261.297V280.047C1038.89 293.719 1039.09 307.977 1039.48 322.82C1040.26 337.273 1041.62 351.336 1043.58 365.008C1045.53 376.727 1047.68 388.25 1050.02 399.578C1052.37 410.906 1053.54 422.43 1053.54 434.148C1053.54 437.664 1052.37 442.352 1050.02 448.211C1047.68 454.07 1043.97 457 1038.89 457C1028.34 457 1019.75 453.875 1013.11 447.625C1006.47 441.375 1002.76 432.977 1001.98 422.43C1000.02 402.117 997.875 379.852 995.531 355.633C993.578 331.414 991.625 308.172 989.672 285.906H987.328ZM455.883 780.438C447.289 782 440.453 781.414 435.375 778.68C430.688 775.555 427.367 771.844 425.414 767.547C423.461 762.859 422.484 758.367 422.484 754.07C422.875 749.383 423.852 746.453 425.414 745.281C426.586 744.891 429.125 743.328 433.031 740.594C437.328 737.859 439.867 736.102 440.648 735.32C441.039 735.32 441.43 735.125 441.82 734.734C442.602 733.953 443.188 733.367 443.578 732.977V722.43C443.578 700.555 442.211 679.07 439.477 657.977C437.133 636.492 435.961 615.008 435.961 593.523C435.961 579.461 436.156 564.812 436.547 549.578C437.328 534.344 439.867 520.281 444.164 507.391C448.852 494.5 456.078 483.953 465.844 475.75C475.609 467.547 489.672 463.445 508.031 463.445C511.156 463.445 514.867 463.445 519.164 463.445C523.461 463.445 527.367 464.031 530.883 465.203C534.789 465.984 538.109 467.742 540.844 470.477C543.578 472.82 544.945 476.336 544.945 481.023C544.945 488.055 543.188 492.742 539.672 495.086C536.547 497.039 532.445 498.406 527.367 499.188C522.289 499.578 517.016 500.359 511.547 501.531C506.078 502.312 501.391 505.242 497.484 510.32C496.703 511.102 495.727 513.25 494.555 516.766C493.383 519.891 492.797 522.039 492.797 523.211C492.016 525.945 491.234 529.656 490.453 534.344C489.672 539.031 488.891 543.719 488.109 548.406C487.719 553.094 487.133 557.391 486.352 561.297C485.961 564.812 485.766 566.766 485.766 567.156C485.766 567.547 485.766 569.109 485.766 571.844C485.766 574.188 485.57 577.117 485.18 580.633C485.18 584.148 485.18 587.859 485.18 591.766C485.18 595.281 485.18 598.211 485.18 600.555C485.18 608.758 485.18 616.375 485.18 623.406C485.18 630.438 485.375 637.469 485.766 644.5C486.156 651.141 486.742 657.977 487.523 665.008C488.305 672.039 489.281 679.852 490.453 688.445H495.141L574.242 641.57C579.711 640.398 584.594 638.445 588.891 635.711C593.188 632.977 598.07 631.609 603.539 631.609C609.008 631.609 614.672 632.977 620.531 635.711C626.391 638.445 629.32 642.742 629.32 648.602C629.32 652.898 628.344 656.023 626.391 657.977C624.438 659.93 622.875 662.664 621.703 666.18C620.141 666.57 617.211 667.742 612.914 669.695C608.617 671.648 605.688 673.016 604.125 673.797C601 675.75 595.922 678.875 588.891 683.172C582.25 687.078 575.219 691.375 567.797 696.062C560.375 700.359 553.539 704.461 547.289 708.367C541.039 712.273 536.938 714.812 534.984 715.984C532.25 717.938 528.93 720.281 525.023 723.016C521.117 725.75 517.211 728.68 513.305 731.805C509.789 734.539 506.664 737.078 503.93 739.422C501.195 741.375 499.828 742.352 499.828 742.352V748.211L515.062 798.016C514.672 799.188 514.477 800.555 514.477 802.117C514.867 803.289 515.844 804.266 517.406 805.047L544.945 888.836C546.898 895.867 545.336 901.727 540.258 906.414C535.57 911.102 530.102 913.445 523.852 913.445C516.82 913.445 509.984 911.492 503.344 907.586C496.703 904.07 492.406 898.602 490.453 891.18L458.227 785.125L455.883 780.438ZM604.125 817.352L625.805 666.766C626.586 661.688 628.734 657.977 632.25 655.633C636.156 653.289 640.453 652.117 645.141 652.117C653.734 652.117 660.57 654.656 665.648 659.734C670.727 664.422 675.023 670.281 678.539 677.312H679.125C683.812 677.312 687.914 676.531 691.43 674.969C695.336 673.016 700.023 672.039 705.492 672.039C717.992 672.039 728.539 675.945 737.133 683.758C746.117 691.57 753.344 701.141 758.812 712.469C764.281 723.406 768.188 735.32 770.531 748.211C773.266 761.102 774.633 772.43 774.633 782.195C774.633 793.914 771.508 807 765.258 821.453C759.398 835.906 751.391 849.578 741.234 862.469C731.469 875.359 720.336 886.102 707.836 894.695C695.336 903.289 682.641 907.586 669.75 907.586C658.031 907.586 647.875 904.852 639.281 899.383C631.078 893.914 624.242 887.078 618.773 878.875C613.695 870.281 609.984 860.711 607.641 850.164C605.297 839.617 604.125 829.266 604.125 819.109V817.352ZM653.344 820.867C654.125 824.773 654.906 829.266 655.688 834.344C656.469 839.422 657.641 844.109 659.203 848.406C660.766 852.312 662.914 855.438 665.648 857.781C668.773 859.734 673.07 859.734 678.539 857.781C683.617 853.094 689.086 847.82 694.945 841.961C700.805 836.102 706.273 829.852 711.352 823.211C716.82 816.57 721.312 809.539 724.828 802.117C728.344 794.695 730.102 786.883 730.102 778.68C731.664 765.398 730.688 753.289 727.172 742.352C723.656 731.023 718.578 723.016 711.938 718.328C705.688 713.25 698.461 712.664 690.258 716.57C682.055 720.086 673.852 730.047 665.648 746.453C660.961 756.609 657.641 768.523 655.688 782.195C654.125 795.477 653.344 807.781 653.344 819.109V820.867ZM805.102 865.984C805.102 849.578 805.492 833.562 806.273 817.938C807.055 802.312 807.445 786.297 807.445 769.891C806.273 725.359 805.883 681.805 806.273 639.227C806.664 596.258 804.711 552.312 800.414 507.391C800.414 499.969 802.172 495.086 805.688 492.742C809.203 490.008 814.477 488.641 821.508 488.641C830.492 488.641 838.109 491.375 844.359 496.844C851 501.922 854.516 509.148 854.906 518.523C854.125 573.992 854.711 629.07 856.664 683.758C859.008 738.055 860.18 793.133 860.18 848.992V894.109C857.836 897.234 854.516 900.359 850.219 903.484C845.922 906.609 841.625 907.781 837.328 907C826 905.047 817.797 900.555 812.719 893.523C807.641 886.102 805.102 876.922 805.102 865.984ZM917.602 884.734C913.695 845.672 910.375 812.273 907.641 784.539C904.906 756.805 902.562 733.562 900.609 714.812C898.656 696.062 896.898 681.219 895.336 670.281C894.164 658.953 893.188 650.555 892.406 645.086C891.625 639.227 891.039 635.32 890.648 633.367C890.258 631.414 890.062 630.242 890.062 629.852V627.508C890.062 623.211 891.82 619.695 895.336 616.961C899.242 613.836 903.148 612.273 907.055 612.273C912.914 612.273 919.164 613.25 925.805 615.203C932.836 617.156 937.523 621.258 939.867 627.508C943.383 646.648 945.727 665.984 946.898 685.516C948.461 705.047 949.633 724.578 950.414 744.109C951.586 763.25 952.953 782.586 954.516 802.117C956.469 821.648 959.789 840.984 964.477 860.125C964.477 860.906 964.672 862.469 965.062 864.812C965.844 867.156 966.43 869.695 966.82 872.43C967.602 875.164 968.188 877.703 968.578 880.047C968.969 882.391 969.164 883.953 969.164 884.734V885.906C969.164 886.297 969.359 886.688 969.75 887.078C969.75 891.766 967.602 896.453 963.305 901.141C959.008 905.828 954.516 907.781 949.828 907C948.656 906.609 945.727 906.023 941.039 905.242C936.742 904.07 933.812 903.094 932.25 902.312C931.078 901.922 929.516 901.141 927.562 899.969C925.609 898.406 923.656 896.844 921.703 895.281C920.141 893.719 918.773 891.961 917.602 890.008C916.43 888.055 916.43 886.297 917.602 884.734ZM884.789 457.586C884.789 454.852 886.938 452.508 891.234 450.555C895.922 448.211 899.438 447.039 901.781 447.039C907.641 447.039 914.086 448.797 921.117 452.312C928.539 455.438 932.25 460.32 932.25 466.961C932.25 473.602 931.273 478.094 929.32 480.438C927.758 482.781 923.656 483.953 917.016 483.953C909.984 483.953 902.758 481.609 895.336 476.922C888.305 472.234 884.789 465.789 884.789 457.586ZM993.188 817.352L1014.87 666.766C1015.65 661.688 1017.8 657.977 1021.31 655.633C1025.22 653.289 1029.52 652.117 1034.2 652.117C1042.8 652.117 1049.63 654.656 1054.71 659.734C1059.79 664.422 1064.09 670.281 1067.6 677.312H1068.19C1072.88 677.312 1076.98 676.531 1080.49 674.969C1084.4 673.016 1089.09 672.039 1094.55 672.039C1107.05 672.039 1117.6 675.945 1126.2 683.758C1135.18 691.57 1142.41 701.141 1147.88 712.469C1153.34 723.406 1157.25 735.32 1159.59 748.211C1162.33 761.102 1163.7 772.43 1163.7 782.195C1163.7 793.914 1160.57 807 1154.32 821.453C1148.46 835.906 1140.45 849.578 1130.3 862.469C1120.53 875.359 1109.4 886.102 1096.9 894.695C1084.4 903.289 1071.7 907.586 1058.81 907.586C1047.09 907.586 1036.94 904.852 1028.34 899.383C1020.14 893.914 1013.3 887.078 1007.84 878.875C1002.76 870.281 999.047 860.711 996.703 850.164C994.359 839.617 993.188 829.266 993.188 819.109V817.352ZM1042.41 820.867C1043.19 824.773 1043.97 829.266 1044.75 834.344C1045.53 839.422 1046.7 844.109 1048.27 848.406C1049.83 852.312 1051.98 855.438 1054.71 857.781C1057.84 859.734 1062.13 859.734 1067.6 857.781C1072.68 853.094 1078.15 847.82 1084.01 841.961C1089.87 836.102 1095.34 829.852 1100.41 823.211C1105.88 816.57 1110.38 809.539 1113.89 802.117C1117.41 794.695 1119.16 786.883 1119.16 778.68C1120.73 765.398 1119.75 753.289 1116.23 742.352C1112.72 731.023 1107.64 723.016 1101 718.328C1094.75 713.25 1087.52 712.664 1079.32 716.57C1071.12 720.086 1062.91 730.047 1054.71 746.453C1050.02 756.609 1046.7 768.523 1044.75 782.195C1043.19 795.477 1042.41 807.781 1042.41 819.109V820.867Z" fill="#EDAE00"/>
</g>
<defs>
<clipPath id="clip0_900_257">
<rect width="1863" height="964" fill="white"/>
</clipPath>
</defs>
</svg>
