<svg width="2853" height="8757" viewBox="0 0 2853 8757" fill="none" xmlns="http://www.w3.org/2000/svg">
<rect x="1298" y="1866" width="1098" height="521" fill="#4C4C4C"/>
<path d="M1506.3 2122.3V2098.9C1516.2 2088.4 1527.9 2083 1542 2083C1554.6 2083 1566.9 2086 1579.8 2092C1592.4 2097.7 1603.5 2100.7 1612.8 2100.7C1623.3 2100.7 1636.2 2094.4 1647.3 2083V2106.1C1637.4 2116.9 1625.1 2122.3 1611.3 2122.3C1599 2122.3 1586.4 2119.3 1573.5 2113.3C1560.9 2107.6 1549.8 2104.6 1540.2 2104.6C1530.6 2104.6 1518 2110.6 1506.3 2122.3ZM1506.3 2162.2V2140.9H1647.3V2162.2H1506.3ZM1771.69 2096.91H1744.42V2069.64H1798.96V2206H1771.69V2096.91ZM1853.43 2124.18H1880.7V2096.91H1853.43V2124.18ZM1826.16 2178.73H1880.7V2151.45H1826.16V2069.64H1907.97V2206H1826.16V2178.73ZM1962.41 2124.18H1989.69V2096.91H1962.41V2124.18ZM1935.14 2178.73H1989.69V2151.45H1935.14V2069.64H2016.96V2206H1935.14V2178.73ZM2044.12 2124.18H2098.67V2096.91H2044.12V2069.64H2125.94V2151.45H2071.4V2178.73H2125.94V2206H2044.12V2124.18Z" fill="#F65701"/>
<rect x="1298" y="3512" width="1098" height="521" fill="#4C4C4C"/>
<path d="M1506.3 3768.3V3744.9C1516.2 3734.4 1527.9 3729 1542 3729C1554.6 3729 1566.9 3732 1579.8 3738C1592.4 3743.7 1603.5 3746.7 1612.8 3746.7C1623.3 3746.7 1636.2 3740.4 1647.3 3729V3752.1C1637.4 3762.9 1625.1 3768.3 1611.3 3768.3C1599 3768.3 1586.4 3765.3 1573.5 3759.3C1560.9 3753.6 1549.8 3750.6 1540.2 3750.6C1530.6 3750.6 1518 3756.6 1506.3 3768.3ZM1506.3 3808.2V3786.9H1647.3V3808.2H1506.3ZM1744.42 3770.18H1798.96V3742.91H1744.42V3715.64H1826.24V3797.45H1771.69V3824.73H1826.24V3852H1744.42V3770.18ZM1907.95 3824.73V3742.91H1880.68V3824.73H1907.95ZM1853.4 3715.64H1935.22V3852H1853.4V3715.64ZM2016.93 3824.73V3742.91H1989.66V3824.73H2016.93ZM1962.39 3715.64H2044.2V3852H1962.39V3715.64ZM2071.37 3824.73H2125.92V3797.45H2071.37V3715.64H2153.19V3742.91H2098.64V3770.18H2153.19V3852H2071.37V3824.73Z" fill="#F65701"/>
<line x1="2728.5" y1="1320" x2="2728.5" y2="5468" stroke="#F65701" stroke-width="5"/>
<line x1="2728.5" y1="120" x2="2728.5" y2="1320" stroke="#F65701" stroke-width="5" stroke-dasharray="50 50"/>
<line x1="2728.5" y1="5468" x2="2728.5" y2="6811" stroke="#F65701" stroke-width="5" stroke-dasharray="50 50"/>
<line x1="2728.5" y1="6811" x2="2728.5" y2="8154" stroke="#F65701" stroke-width="5" stroke-dasharray="40 100 40 100"/>
<line x1="2507" y1="2117.5" x2="2853" y2="2117.5" stroke="#F65701" stroke-width="5"/>
<line x1="2507" y1="3763.5" x2="2853" y2="3763.5" stroke="#F65701" stroke-width="5"/>
</svg>
