<svg width="2853" height="8757" viewBox="0 0 2853 8757" fill="none" xmlns="http://www.w3.org/2000/svg">
<rect x="1298" y="5028" width="1098" height="521" fill="#4C4C4C"/>
<path d="M1506.3 5284.3V5260.9C1516.2 5250.4 1527.9 5245 1542 5245C1554.6 5245 1566.9 5248 1579.8 5254C1592.4 5259.7 1603.5 5262.7 1612.8 5262.7C1623.3 5262.7 1636.2 5256.4 1647.3 5245V5268.1C1637.4 5278.9 1625.1 5284.3 1611.3 5284.3C1599 5284.3 1586.4 5281.3 1573.5 5275.3C1560.9 5269.6 1549.8 5266.6 1540.2 5266.6C1530.6 5266.6 1518 5272.6 1506.3 5284.3ZM1506.3 5324.2V5302.9H1647.3V5324.2H1506.3ZM1744.42 5286.18H1798.96V5258.91H1744.42V5231.64H1826.24V5313.45H1771.69V5340.73H1826.24V5368H1744.42V5286.18ZM1907.95 5340.73V5258.91H1880.68V5340.73H1907.95ZM1853.4 5231.64H1935.22V5368H1853.4V5231.64ZM1989.66 5258.91H1962.39V5231.64H2016.93V5368H1989.66V5258.91ZM2044.12 5340.73H2098.67V5313.45H2071.4V5286.18H2098.67V5258.91H2044.12V5231.64H2125.94V5368H2044.12V5340.73Z" fill="#F65701"/>
<rect x="1298" y="3512" width="1098" height="521" fill="#4C4C4C"/>
<path d="M1506.3 3768.3V3744.9C1516.2 3734.4 1527.9 3729 1542 3729C1554.6 3729 1566.9 3732 1579.8 3738C1592.4 3743.7 1603.5 3746.7 1612.8 3746.7C1623.3 3746.7 1636.2 3740.4 1647.3 3729V3752.1C1637.4 3762.9 1625.1 3768.3 1611.3 3768.3C1599 3768.3 1586.4 3765.3 1573.5 3759.3C1560.9 3753.6 1549.8 3750.6 1540.2 3750.6C1530.6 3750.6 1518 3756.6 1506.3 3768.3ZM1506.3 3808.2V3786.9H1647.3V3808.2H1506.3ZM1744.42 3770.18H1798.96V3742.91H1744.42V3715.64H1826.24V3797.45H1771.69V3824.73H1826.24V3852H1744.42V3770.18ZM1907.95 3824.73V3742.91H1880.68V3824.73H1907.95ZM1853.4 3715.64H1935.22V3852H1853.4V3715.64ZM2016.93 3824.73V3742.91H1989.66V3824.73H2016.93ZM1962.39 3715.64H2044.2V3852H1962.39V3715.64ZM2071.37 3824.73H2125.92V3797.45H2071.37V3715.64H2153.19V3742.91H2098.64V3770.18H2153.19V3852H2071.37V3824.73Z" fill="#F65701"/>
<line x1="2728.5" y1="1320" x2="2728.5" y2="5782" stroke="#F65701" stroke-width="5"/>
<line x1="2728.5" y1="120" x2="2728.5" y2="1320" stroke="#F65701" stroke-width="5" stroke-dasharray="50 50"/>
<line x1="2728.5" y1="5782" x2="2728.5" y2="7125" stroke="#F65701" stroke-width="5" stroke-dasharray="50 50"/>
<line x1="2728.5" y1="7125" x2="2728.5" y2="8468" stroke="#F65701" stroke-width="5" stroke-dasharray="40 100 40 100"/>
<line x1="2507" y1="5279.5" x2="2853" y2="5279.5" stroke="#F65701" stroke-width="5"/>
<line x1="2507" y1="3763.5" x2="2853" y2="3763.5" stroke="#F65701" stroke-width="5"/>
</svg>
