<svg width="2840" height="8757" viewBox="0 0 2840 8757" fill="none" xmlns="http://www.w3.org/2000/svg">
<rect x="1742" y="2119" width="1098" height="521" fill="#4C4C4C"/>
<path d="M1950.3 2375.3V2351.9C1960.2 2341.4 1971.9 2336 1986 2336C1998.6 2336 2010.9 2339 2023.8 2345C2036.4 2350.7 2047.5 2353.7 2056.8 2353.7C2067.3 2353.7 2080.2 2347.4 2091.3 2336V2359.1C2081.4 2369.9 2069.1 2375.3 2055.3 2375.3C2043 2375.3 2030.4 2372.3 2017.5 2366.3C2004.9 2360.6 1993.8 2357.6 1984.2 2357.6C1974.6 2357.6 1962 2363.6 1950.3 2375.3ZM1950.3 2415.2V2393.9H2091.3V2415.2H1950.3ZM2215.69 2349.91H2188.42V2322.64H2242.96V2459H2215.69V2349.91ZM2297.43 2377.18H2324.7V2349.91H2297.43V2377.18ZM2270.16 2431.73H2324.7V2404.45H2270.16V2322.64H2351.97V2459H2270.16V2431.73ZM2406.41 2377.18H2433.69V2349.91H2406.41V2377.18ZM2379.14 2431.73H2433.69V2404.45H2379.14V2322.64H2460.96V2459H2379.14V2431.73ZM2488.12 2431.73H2542.67V2404.45H2488.12V2322.64H2569.94V2349.91H2515.4V2377.18H2569.94V2459H2488.12V2431.73Z" fill="#F65701"/>
<rect x="1742" y="4331" width="1098" height="521" fill="#4C4C4C"/>
<path d="M1950.3 4587.3V4563.9C1960.2 4553.4 1971.9 4548 1986 4548C1998.6 4548 2010.9 4551 2023.8 4557C2036.4 4562.7 2047.5 4565.7 2056.8 4565.7C2067.3 4565.7 2080.2 4559.4 2091.3 4548V4571.1C2081.4 4581.9 2069.1 4587.3 2055.3 4587.3C2043 4587.3 2030.4 4584.3 2017.5 4578.3C2004.9 4572.6 1993.8 4569.6 1984.2 4569.6C1974.6 4569.6 1962 4575.6 1950.3 4587.3ZM1950.3 4627.2V4605.9H2091.3V4627.2H1950.3ZM2188.42 4589.18H2242.96V4561.91H2188.42V4534.64H2270.24V4616.45H2215.69V4643.73H2270.24V4671H2188.42V4589.18ZM2351.95 4643.73V4561.91H2324.68V4643.73H2351.95ZM2297.4 4534.64H2379.22V4671H2297.4V4534.64ZM2433.66 4561.91H2406.39V4534.64H2460.93V4671H2433.66V4561.91ZM2542.67 4643.73V4561.91H2515.4V4643.73H2542.67ZM2488.12 4534.64H2569.94V4671H2488.12V4534.64Z" fill="#F65701"/>
<line x1="1442.5" y1="1320" x2="1442.5" y2="5468" stroke="#F65701" stroke-width="5"/>
<line x1="1442.5" y1="120" x2="1442.5" y2="1320" stroke="#F65701" stroke-width="5" stroke-dasharray="50 50"/>
<line x1="1442.5" y1="5468" x2="1442.5" y2="6811" stroke="#F65701" stroke-width="5" stroke-dasharray="50 50"/>
<line x1="1442.5" y1="6811" x2="1442.5" y2="8154" stroke="#F65701" stroke-width="5" stroke-dasharray="40 100 40 100"/>
<line x1="1321" y1="2370.5" x2="1667" y2="2370.5" stroke="#F65701" stroke-width="5"/>
<line x1="1321" y1="4582.5" x2="1667" y2="4582.5" stroke="#F65701" stroke-width="5"/>
</svg>
