<svg width="2853" height="8757" viewBox="0 0 2853 8757" fill="none" xmlns="http://www.w3.org/2000/svg">
<rect x="1298" y="6720" width="1098" height="521" fill="#4C4C4C"/>
<path d="M1506.3 6976.3V6952.9C1516.2 6942.4 1527.9 6937 1542 6937C1554.6 6937 1566.9 6940 1579.8 6946C1592.4 6951.7 1603.5 6954.7 1612.8 6954.7C1623.3 6954.7 1636.2 6948.4 1647.3 6937V6960.1C1637.4 6970.9 1625.1 6976.3 1611.3 6976.3C1599 6976.3 1586.4 6973.3 1573.5 6967.3C1560.9 6961.6 1549.8 6958.6 1540.2 6958.6C1530.6 6958.6 1518 6964.6 1506.3 6976.3ZM1506.3 7016.2V6994.9H1647.3V7016.2H1506.3ZM1744.42 6978.18H1798.96V6950.91H1744.42V6923.64H1826.24V7005.45H1771.69V7032.73H1826.24V7060H1744.42V6978.18ZM1907.95 7032.73V6950.91H1880.68V7032.73H1907.95ZM1853.4 6923.64H1935.22V7060H1853.4V6923.64ZM1962.39 6978.18H2016.93V6950.91H1962.39V6923.64H2044.2V7005.45H1989.66V7032.73H2044.2V7060H1962.39V6978.18ZM2125.92 7032.73V6950.91H2098.64V7032.73H2125.92ZM2071.37 6923.64H2153.19V7060H2071.37V6923.64Z" fill="#F65701"/>
<line x1="2728.5" y1="3221" x2="2728.5" y2="7623" stroke="#F65701" stroke-width="5"/>
<line x1="2728.5" y1="2021" x2="2728.5" y2="3221" stroke="#F65701" stroke-width="5" stroke-dasharray="50 50"/>
<line x1="2728.5" y1="7623" x2="2728.5" y2="8439" stroke="#F65701" stroke-width="5" stroke-dasharray="50 50"/>
<line x1="2728.5" y1="588" x2="2728.5" y2="2021" stroke="#F65701" stroke-width="5" stroke-dasharray="40 100 40 100"/>
<line x1="2507" y1="6971.5" x2="2853" y2="6971.5" stroke="#F65701" stroke-width="5"/>
</svg>
