<svg width="2853" height="8757" viewBox="0 0 2853 8757" fill="none" xmlns="http://www.w3.org/2000/svg">
<rect x="1298" y="5028" width="1098" height="521" fill="#4C4C4C"/>
<path d="M1506.3 5284.3V5260.9C1516.2 5250.4 1527.9 5245 1542 5245C1554.6 5245 1566.9 5248 1579.8 5254C1592.4 5259.7 1603.5 5262.7 1612.8 5262.7C1623.3 5262.7 1636.2 5256.4 1647.3 5245V5268.1C1637.4 5278.9 1625.1 5284.3 1611.3 5284.3C1599 5284.3 1586.4 5281.3 1573.5 5275.3C1560.9 5269.6 1549.8 5266.6 1540.2 5266.6C1530.6 5266.6 1518 5272.6 1506.3 5284.3ZM1506.3 5324.2V5302.9H1647.3V5324.2H1506.3ZM1744.42 5286.18H1798.96V5258.91H1744.42V5231.64H1826.24V5313.45H1771.69V5340.73H1826.24V5368H1744.42V5286.18ZM1907.95 5340.73V5258.91H1880.68V5340.73H1907.95ZM1853.4 5231.64H1935.22V5368H1853.4V5231.64ZM1989.66 5258.91H1962.39V5231.64H2016.93V5368H1989.66V5258.91ZM2044.12 5340.73H2098.67V5313.45H2071.4V5286.18H2098.67V5258.91H2044.12V5231.64H2125.94V5368H2044.12V5340.73Z" fill="#F65701"/>
<rect x="1298" y="6489" width="1098" height="521" fill="#4C4C4C"/>
<path d="M1506.3 6745.3V6721.9C1516.2 6711.4 1527.9 6706 1542 6706C1554.6 6706 1566.9 6709 1579.8 6715C1592.4 6720.7 1603.5 6723.7 1612.8 6723.7C1623.3 6723.7 1636.2 6717.4 1647.3 6706V6729.1C1637.4 6739.9 1625.1 6745.3 1611.3 6745.3C1599 6745.3 1586.4 6742.3 1573.5 6736.3C1560.9 6730.6 1549.8 6727.6 1540.2 6727.6C1530.6 6727.6 1518 6733.6 1506.3 6745.3ZM1506.3 6785.2V6763.9H1647.3V6785.2H1506.3ZM1744.42 6747.18H1798.96V6719.91H1744.42V6692.64H1826.24V6774.45H1771.69V6801.73H1826.24V6829H1744.42V6747.18ZM1907.95 6801.73V6719.91H1880.68V6801.73H1907.95ZM1853.4 6692.64H1935.22V6829H1853.4V6692.64ZM1989.66 6719.91H1962.39V6692.64H2016.93V6829H1989.66V6719.91ZM2071.4 6747.18H2098.67V6719.91H2071.4V6747.18ZM2044.12 6801.73H2098.67V6774.45H2044.12V6692.64H2125.94V6829H2044.12V6801.73Z" fill="#F65701"/>
<line x1="2728.5" y1="3221" x2="2728.5" y2="7623" stroke="#F65701" stroke-width="5"/>
<line x1="2728.5" y1="2021" x2="2728.5" y2="3221" stroke="#F65701" stroke-width="5" stroke-dasharray="50 50"/>
<line x1="2728.5" y1="7623" x2="2728.5" y2="8439" stroke="#F65701" stroke-width="5" stroke-dasharray="50 50"/>
<line x1="2728.5" y1="588" x2="2728.5" y2="2021" stroke="#F65701" stroke-width="5" stroke-dasharray="40 100 40 100"/>
<line x1="2507" y1="5279.5" x2="2853" y2="5279.5" stroke="#F65701" stroke-width="5"/>
<line x1="2507" y1="6740.5" x2="2853" y2="6740.5" stroke="#F65701" stroke-width="5"/>
</svg>
