<svg width="2840" height="8757" viewBox="0 0 2840 8757" fill="none" xmlns="http://www.w3.org/2000/svg">
<rect x="1742" y="1866" width="1098" height="521" fill="#616161"/>
<path d="M1950.3 2122.3V2098.9C1960.2 2088.4 1971.9 2083 1986 2083C1998.6 2083 2010.9 2086 2023.8 2092C2036.4 2097.7 2047.5 2100.7 2056.8 2100.7C2067.3 2100.7 2080.2 2094.4 2091.3 2083V2106.1C2081.4 2116.9 2069.1 2122.3 2055.3 2122.3C2043 2122.3 2030.4 2119.3 2017.5 2113.3C2004.9 2107.6 1993.8 2104.6 1984.2 2104.6C1974.6 2104.6 1962 2110.6 1950.3 2122.3ZM1950.3 2162.2V2140.9H2091.3V2162.2H1950.3ZM2215.69 2096.91H2188.42V2069.64H2242.96V2206H2215.69V2096.91ZM2297.43 2124.18H2324.7V2096.91H2297.43V2124.18ZM2270.16 2178.73H2324.7V2151.45H2270.16V2069.64H2351.97V2206H2270.16V2178.73ZM2406.41 2124.18H2433.69V2096.91H2406.41V2124.18ZM2379.14 2178.73H2433.69V2151.45H2379.14V2069.64H2460.96V2206H2379.14V2178.73ZM2488.12 2124.18H2542.67V2096.91H2488.12V2069.64H2569.94V2151.45H2515.4V2178.73H2569.94V2206H2488.12V2124.18Z" fill="#F65701"/>
<rect x="1742" y="3512" width="1098" height="521" fill="#616161"/>
<path d="M1950.3 3768.3V3744.9C1960.2 3734.4 1971.9 3729 1986 3729C1998.6 3729 2010.9 3732 2023.8 3738C2036.4 3743.7 2047.5 3746.7 2056.8 3746.7C2067.3 3746.7 2080.2 3740.4 2091.3 3729V3752.1C2081.4 3762.9 2069.1 3768.3 2055.3 3768.3C2043 3768.3 2030.4 3765.3 2017.5 3759.3C2004.9 3753.6 1993.8 3750.6 1984.2 3750.6C1974.6 3750.6 1962 3756.6 1950.3 3768.3ZM1950.3 3808.2V3786.9H2091.3V3808.2H1950.3ZM2188.42 3770.18H2242.96V3742.91H2188.42V3715.64H2270.24V3797.45H2215.69V3824.73H2270.24V3852H2188.42V3770.18ZM2351.95 3824.73V3742.91H2324.68V3824.73H2351.95ZM2297.4 3715.64H2379.22V3852H2297.4V3715.64ZM2460.93 3824.73V3742.91H2433.66V3824.73H2460.93ZM2406.39 3715.64H2488.2V3852H2406.39V3715.64ZM2515.37 3824.73H2569.92V3797.45H2515.37V3715.64H2597.19V3742.91H2542.64V3770.18H2597.19V3852H2515.37V3824.73Z" fill="#F65701"/>
<line x1="1442.5" y1="1320" x2="1442.5" y2="5468" stroke="#F65701" stroke-width="5"/>
<line x1="1442.5" y1="120" x2="1442.5" y2="1320" stroke="#F65701" stroke-width="5" stroke-dasharray="50 50"/>
<line x1="1442.5" y1="5468" x2="1442.5" y2="6811" stroke="#F65701" stroke-width="5" stroke-dasharray="50 50"/>
<line x1="1442.5" y1="6811" x2="1442.5" y2="8154" stroke="#F65701" stroke-width="5" stroke-dasharray="40 100 40 100"/>
<line x1="1321" y1="2117.5" x2="1667" y2="2117.5" stroke="#F65701" stroke-width="5"/>
<line x1="1321" y1="3763.5" x2="1667" y2="3763.5" stroke="#F65701" stroke-width="5"/>
</svg>
