<svg width="2853" height="8757" viewBox="0 0 2853 8757" fill="none" xmlns="http://www.w3.org/2000/svg">
<rect x="1298" y="4561" width="1098" height="521" fill="#4C4C4C"/>
<path d="M1506.3 4817.3V4793.9C1516.2 4783.4 1527.9 4778 1542 4778C1554.6 4778 1566.9 4781 1579.8 4787C1592.4 4792.7 1603.5 4795.7 1612.8 4795.7C1623.3 4795.7 1636.2 4789.4 1647.3 4778V4801.1C1637.4 4811.9 1625.1 4817.3 1611.3 4817.3C1599 4817.3 1586.4 4814.3 1573.5 4808.3C1560.9 4802.6 1549.8 4799.6 1540.2 4799.6C1530.6 4799.6 1518 4805.6 1506.3 4817.3ZM1506.3 4857.2V4835.9H1647.3V4857.2H1506.3ZM1744.42 4819.18H1798.96V4791.91H1744.42V4764.64H1826.24V4846.45H1771.69V4873.73H1826.24V4901H1744.42V4819.18ZM1907.95 4873.73V4791.91H1880.68V4873.73H1907.95ZM1853.4 4764.64H1935.22V4901H1853.4V4764.64ZM1989.66 4791.91H1962.39V4764.64H2016.93V4901H1989.66V4791.91ZM2098.67 4873.73V4791.91H2071.4V4873.73H2098.67ZM2044.12 4764.64H2125.94V4901H2044.12V4764.64Z" fill="#F65701"/>
<line x1="2728.5" y1="3221" x2="2728.5" y2="7623" stroke="#F65701" stroke-width="5"/>
<line x1="2728.5" y1="2021" x2="2728.5" y2="3221" stroke="#F65701" stroke-width="5" stroke-dasharray="50 50"/>
<line x1="2728.5" y1="7623" x2="2728.5" y2="8439" stroke="#F65701" stroke-width="5" stroke-dasharray="50 50"/>
<line x1="2728.5" y1="588" x2="2728.5" y2="2021" stroke="#F65701" stroke-width="5" stroke-dasharray="40 100 40 100"/>
<line x1="2507" y1="4812.5" x2="2853" y2="4812.5" stroke="#F65701" stroke-width="5"/>
</svg>
