<svg width="2840" height="8757" viewBox="0 0 2840 8757" fill="none" xmlns="http://www.w3.org/2000/svg">
<rect x="1742" y="5028" width="1098" height="521" fill="#4C4C4C"/>
<path d="M1950.3 5284.3V5260.9C1960.2 5250.4 1971.9 5245 1986 5245C1998.6 5245 2010.9 5248 2023.8 5254C2036.4 5259.7 2047.5 5262.7 2056.8 5262.7C2067.3 5262.7 2080.2 5256.4 2091.3 5245V5268.1C2081.4 5278.9 2069.1 5284.3 2055.3 5284.3C2043 5284.3 2030.4 5281.3 2017.5 5275.3C2004.9 5269.6 1993.8 5266.6 1984.2 5266.6C1974.6 5266.6 1962 5272.6 1950.3 5284.3ZM1950.3 5324.2V5302.9H2091.3V5324.2H1950.3ZM2188.42 5286.18H2242.96V5258.91H2188.42V5231.64H2270.24V5313.45H2215.69V5340.73H2270.24V5368H2188.42V5286.18ZM2351.95 5340.73V5258.91H2324.68V5340.73H2351.95ZM2297.4 5231.64H2379.22V5368H2297.4V5231.64ZM2433.66 5258.91H2406.39V5231.64H2460.93V5368H2433.66V5258.91ZM2488.12 5340.73H2542.67V5313.45H2515.4V5286.18H2542.67V5258.91H2488.12V5231.64H2569.94V5368H2488.12V5340.73Z" fill="#F65701"/>
<rect x="1742" y="6489" width="1098" height="521" fill="#4C4C4C"/>
<path d="M1950.3 6745.3V6721.9C1960.2 6711.4 1971.9 6706 1986 6706C1998.6 6706 2010.9 6709 2023.8 6715C2036.4 6720.7 2047.5 6723.7 2056.8 6723.7C2067.3 6723.7 2080.2 6717.4 2091.3 6706V6729.1C2081.4 6739.9 2069.1 6745.3 2055.3 6745.3C2043 6745.3 2030.4 6742.3 2017.5 6736.3C2004.9 6730.6 1993.8 6727.6 1984.2 6727.6C1974.6 6727.6 1962 6733.6 1950.3 6745.3ZM1950.3 6785.2V6763.9H2091.3V6785.2H1950.3ZM2188.42 6747.18H2242.96V6719.91H2188.42V6692.64H2270.24V6774.45H2215.69V6801.73H2270.24V6829H2188.42V6747.18ZM2351.95 6801.73V6719.91H2324.68V6801.73H2351.95ZM2297.4 6692.64H2379.22V6829H2297.4V6692.64ZM2433.66 6719.91H2406.39V6692.64H2460.93V6829H2433.66V6719.91ZM2515.4 6747.18H2542.67V6719.91H2515.4V6747.18ZM2488.12 6801.73H2542.67V6774.45H2488.12V6692.64H2569.94V6829H2488.12V6801.73Z" fill="#F65701"/>
<line x1="1442.5" y1="3221" x2="1442.5" y2="7623" stroke="#F65701" stroke-width="5"/>
<line x1="1442.5" y1="2021" x2="1442.5" y2="3221" stroke="#F65701" stroke-width="5" stroke-dasharray="50 50"/>
<line x1="1442.5" y1="7623" x2="1442.5" y2="8439" stroke="#F65701" stroke-width="5" stroke-dasharray="50 50"/>
<line x1="1442.5" y1="588" x2="1442.5" y2="2021" stroke="#F65701" stroke-width="5" stroke-dasharray="40 100 40 100"/>
<line x1="1321" y1="5279.5" x2="1667" y2="5279.5" stroke="#F65701" stroke-width="5"/>
<line x1="1321" y1="6740.5" x2="1667" y2="6740.5" stroke="#F65701" stroke-width="5"/>
</svg>
