<svg width="2840" height="8757" viewBox="0 0 2840 8757" fill="none" xmlns="http://www.w3.org/2000/svg">
<rect x="1742" y="5028" width="1098" height="521" fill="#4C4C4C"/>
<path d="M1950.3 5284.3V5260.9C1960.2 5250.4 1971.9 5245 1986 5245C1998.6 5245 2010.9 5248 2023.8 5254C2036.4 5259.7 2047.5 5262.7 2056.8 5262.7C2067.3 5262.7 2080.2 5256.4 2091.3 5245V5268.1C2081.4 5278.9 2069.1 5284.3 2055.3 5284.3C2043 5284.3 2030.4 5281.3 2017.5 5275.3C2004.9 5269.6 1993.8 5266.6 1984.2 5266.6C1974.6 5266.6 1962 5272.6 1950.3 5284.3ZM1950.3 5324.2V5302.9H2091.3V5324.2H1950.3ZM2188.42 5286.18H2242.96V5258.91H2188.42V5231.64H2270.24V5313.45H2215.69V5340.73H2270.24V5368H2188.42V5286.18ZM2351.95 5340.73V5258.91H2324.68V5340.73H2351.95ZM2297.4 5231.64H2379.22V5368H2297.4V5231.64ZM2433.66 5258.91H2406.39V5231.64H2460.93V5368H2433.66V5258.91ZM2488.12 5340.73H2542.67V5313.45H2515.4V5286.18H2542.67V5258.91H2488.12V5231.64H2569.94V5368H2488.12V5340.73Z" fill="#F65701"/>
<rect x="1742" y="3512" width="1098" height="521" fill="#4C4C4C"/>
<path d="M1950.3 3768.3V3744.9C1960.2 3734.4 1971.9 3729 1986 3729C1998.6 3729 2010.9 3732 2023.8 3738C2036.4 3743.7 2047.5 3746.7 2056.8 3746.7C2067.3 3746.7 2080.2 3740.4 2091.3 3729V3752.1C2081.4 3762.9 2069.1 3768.3 2055.3 3768.3C2043 3768.3 2030.4 3765.3 2017.5 3759.3C2004.9 3753.6 1993.8 3750.6 1984.2 3750.6C1974.6 3750.6 1962 3756.6 1950.3 3768.3ZM1950.3 3808.2V3786.9H2091.3V3808.2H1950.3ZM2188.42 3770.18H2242.96V3742.91H2188.42V3715.64H2270.24V3797.45H2215.69V3824.73H2270.24V3852H2188.42V3770.18ZM2351.95 3824.73V3742.91H2324.68V3824.73H2351.95ZM2297.4 3715.64H2379.22V3852H2297.4V3715.64ZM2460.93 3824.73V3742.91H2433.66V3824.73H2460.93ZM2406.39 3715.64H2488.2V3852H2406.39V3715.64ZM2515.37 3824.73H2569.92V3797.45H2515.37V3715.64H2597.19V3742.91H2542.64V3770.18H2597.19V3852H2515.37V3824.73Z" fill="#F65701"/>
<line x1="1442.5" y1="1320" x2="1442.5" y2="5782" stroke="#F65701" stroke-width="5"/>
<line x1="1442.5" y1="120" x2="1442.5" y2="1320" stroke="#F65701" stroke-width="5" stroke-dasharray="50 50"/>
<line x1="1442.5" y1="5782" x2="1442.5" y2="7125" stroke="#F65701" stroke-width="5" stroke-dasharray="50 50"/>
<line x1="1442.5" y1="7125" x2="1442.5" y2="8468" stroke="#F65701" stroke-width="5" stroke-dasharray="40 100 40 100"/>
<line x1="1321" y1="5279.5" x2="1667" y2="5279.5" stroke="#F65701" stroke-width="5"/>
<line x1="1321" y1="3763.5" x2="1667" y2="3763.5" stroke="#F65701" stroke-width="5"/>
</svg>
