<svg width="2853" height="8757" viewBox="0 0 2853 8757" fill="none" xmlns="http://www.w3.org/2000/svg">
<rect x="1298" y="2119" width="1098" height="521" fill="#4C4C4C"/>
<path d="M1506.3 2375.3V2351.9C1516.2 2341.4 1527.9 2336 1542 2336C1554.6 2336 1566.9 2339 1579.8 2345C1592.4 2350.7 1603.5 2353.7 1612.8 2353.7C1623.3 2353.7 1636.2 2347.4 1647.3 2336V2359.1C1637.4 2369.9 1625.1 2375.3 1611.3 2375.3C1599 2375.3 1586.4 2372.3 1573.5 2366.3C1560.9 2360.6 1549.8 2357.6 1540.2 2357.6C1530.6 2357.6 1518 2363.6 1506.3 2375.3ZM1506.3 2415.2V2393.9H1647.3V2415.2H1506.3ZM1771.69 2349.91H1744.42V2322.64H1798.96V2459H1771.69V2349.91ZM1853.43 2377.18H1880.7V2349.91H1853.43V2377.18ZM1826.16 2431.73H1880.7V2404.45H1826.16V2322.64H1907.97V2459H1826.16V2431.73ZM1962.41 2377.18H1989.69V2349.91H1962.41V2377.18ZM1935.14 2431.73H1989.69V2404.45H1935.14V2322.64H2016.96V2459H1935.14V2431.73ZM2044.12 2431.73H2098.67V2404.45H2044.12V2322.64H2125.94V2349.91H2071.4V2377.18H2125.94V2459H2044.12V2431.73Z" fill="#F65701"/>
<rect x="1298" y="4331" width="1098" height="521" fill="#4C4C4C"/>
<path d="M1506.3 4587.3V4563.9C1516.2 4553.4 1527.9 4548 1542 4548C1554.6 4548 1566.9 4551 1579.8 4557C1592.4 4562.7 1603.5 4565.7 1612.8 4565.7C1623.3 4565.7 1636.2 4559.4 1647.3 4548V4571.1C1637.4 4581.9 1625.1 4587.3 1611.3 4587.3C1599 4587.3 1586.4 4584.3 1573.5 4578.3C1560.9 4572.6 1549.8 4569.6 1540.2 4569.6C1530.6 4569.6 1518 4575.6 1506.3 4587.3ZM1506.3 4627.2V4605.9H1647.3V4627.2H1506.3ZM1744.42 4589.18H1798.96V4561.91H1744.42V4534.64H1826.24V4616.45H1771.69V4643.73H1826.24V4671H1744.42V4589.18ZM1907.95 4643.73V4561.91H1880.68V4643.73H1907.95ZM1853.4 4534.64H1935.22V4671H1853.4V4534.64ZM1989.66 4561.91H1962.39V4534.64H2016.93V4671H1989.66V4561.91ZM2098.67 4643.73V4561.91H2071.4V4643.73H2098.67ZM2044.12 4534.64H2125.94V4671H2044.12V4534.64Z" fill="#F65701"/>
<line x1="2728.5" y1="1320" x2="2728.5" y2="5468" stroke="#F65701" stroke-width="5"/>
<line x1="2728.5" y1="120" x2="2728.5" y2="1320" stroke="#F65701" stroke-width="5" stroke-dasharray="50 50"/>
<line x1="2728.5" y1="5468" x2="2728.5" y2="6811" stroke="#F65701" stroke-width="5" stroke-dasharray="50 50"/>
<line x1="2728.5" y1="6811" x2="2728.5" y2="8154" stroke="#F65701" stroke-width="5" stroke-dasharray="40 100 40 100"/>
<line x1="2507" y1="2370.5" x2="2853" y2="2370.5" stroke="#F65701" stroke-width="5"/>
<line x1="2507" y1="4582.5" x2="2853" y2="4582.5" stroke="#F65701" stroke-width="5"/>
</svg>
