<svg width="2853" height="8757" viewBox="0 0 2853 8757" fill="none" xmlns="http://www.w3.org/2000/svg">
<rect x="1298" y="7267" width="1098" height="521" fill="#4C4C4C"/>
<path d="M1506.3 7523.3V7499.9C1516.2 7489.4 1527.9 7484 1542 7484C1554.6 7484 1566.9 7487 1579.8 7493C1592.4 7498.7 1603.5 7501.7 1612.8 7501.7C1623.3 7501.7 1636.2 7495.4 1647.3 7484V7507.1C1637.4 7517.9 1625.1 7523.3 1611.3 7523.3C1599 7523.3 1586.4 7520.3 1573.5 7514.3C1560.9 7508.6 1549.8 7505.6 1540.2 7505.6C1530.6 7505.6 1518 7511.6 1506.3 7523.3ZM1506.3 7563.2V7541.9H1647.3V7563.2H1506.3ZM1744.42 7525.18H1798.96V7497.91H1744.42V7470.64H1826.24V7552.45H1771.69V7579.73H1826.24V7607H1744.42V7525.18ZM1907.95 7579.73V7497.91H1880.68V7579.73H1907.95ZM1853.4 7470.64H1935.22V7607H1853.4V7470.64ZM1962.39 7525.18H2016.93V7497.91H1962.39V7470.64H2044.2V7552.45H1989.66V7579.73H2044.2V7607H1962.39V7525.18ZM2071.37 7579.73H2125.92V7552.45H2071.37V7470.64H2153.19V7497.91H2098.64V7525.18H2153.19V7607H2071.37V7579.73Z" fill="#F65701"/>
<line x1="2728.5" y1="3221" x2="2728.5" y2="7623" stroke="#F65701" stroke-width="5"/>
<line x1="2728.5" y1="2021" x2="2728.5" y2="3221" stroke="#F65701" stroke-width="5" stroke-dasharray="50 50"/>
<line x1="2728.5" y1="7623" x2="2728.5" y2="8439" stroke="#F65701" stroke-width="5" stroke-dasharray="50 50"/>
<line x1="2728.5" y1="588" x2="2728.5" y2="2021" stroke="#F65701" stroke-width="5" stroke-dasharray="40 100 40 100"/>
<line x1="2507" y1="7518.5" x2="2853" y2="7518.5" stroke="#F65701" stroke-width="5"/>
</svg>
