<svg width="2853" height="8757" viewBox="0 0 2853 8757" fill="none" xmlns="http://www.w3.org/2000/svg">
<rect x="1298" y="2960" width="1098" height="521" fill="#4C4C4C"/>
<path d="M1506.3 3216.3V3192.9C1516.2 3182.4 1527.9 3177 1542 3177C1554.6 3177 1566.9 3180 1579.8 3186C1592.4 3191.7 1603.5 3194.7 1612.8 3194.7C1623.3 3194.7 1636.2 3188.4 1647.3 3177V3200.1C1637.4 3210.9 1625.1 3216.3 1611.3 3216.3C1599 3216.3 1586.4 3213.3 1573.5 3207.3C1560.9 3201.6 1549.8 3198.6 1540.2 3198.6C1530.6 3198.6 1518 3204.6 1506.3 3216.3ZM1506.3 3256.2V3234.9H1647.3V3256.2H1506.3ZM1744.42 3218.18H1798.96V3190.91H1744.42V3163.64H1826.24V3245.45H1771.69V3272.73H1826.24V3300H1744.42V3218.18ZM1907.95 3272.73V3190.91H1880.68V3272.73H1907.95ZM1853.4 3163.64H1935.22V3300H1853.4V3163.64ZM2016.93 3272.73V3190.91H1989.66V3272.73H2016.93ZM1962.39 3163.64H2044.2V3300H1962.39V3163.64ZM2125.92 3272.73V3190.91H2098.64V3272.73H2125.92ZM2071.37 3163.64H2153.19V3300H2071.37V3163.64Z" fill="#F65701"/>
<line x1="2728.5" y1="3221" x2="2728.5" y2="7623" stroke="#F65701" stroke-width="5"/>
<line x1="2728.5" y1="2021" x2="2728.5" y2="3221" stroke="#F65701" stroke-width="5" stroke-dasharray="50 50"/>
<line x1="2728.5" y1="7623" x2="2728.5" y2="8439" stroke="#F65701" stroke-width="5" stroke-dasharray="50 50"/>
<line x1="2728.5" y1="588" x2="2728.5" y2="2021" stroke="#F65701" stroke-width="5" stroke-dasharray="40 100 40 100"/>
<line x1="2507" y1="3211.5" x2="2853" y2="3211.5" stroke="#F65701" stroke-width="5"/>
</svg>
