<svg width="2853" height="8757" viewBox="0 0 2853 8757" fill="none" xmlns="http://www.w3.org/2000/svg">
<rect x="1298" y="459" width="1098" height="521" fill="#4C4C4C"/>
<path d="M1506.3 715.3V691.9C1516.2 681.4 1527.9 676 1542 676C1554.6 676 1566.9 679 1579.8 685C1592.4 690.7 1603.5 693.7 1612.8 693.7C1623.3 693.7 1636.2 687.4 1647.3 676V699.1C1637.4 709.9 1625.1 715.3 1611.3 715.3C1599 715.3 1586.4 712.3 1573.5 706.3C1560.9 700.6 1549.8 697.6 1540.2 697.6C1530.6 697.6 1518 703.6 1506.3 715.3ZM1506.3 755.2V733.9H1647.3V755.2H1506.3ZM1771.69 689.909H1744.42V662.636H1798.96V799H1771.69V689.909ZM1853.43 717.182H1880.7V689.909H1853.43V717.182ZM1826.16 771.727H1880.7V744.455H1826.16V662.636H1907.97V799H1826.16V771.727ZM1935.14 662.636H2016.96V799H1935.14V662.636ZM1989.69 717.182V689.909H1962.41V717.182H1989.69ZM1962.41 771.727H1989.69V744.455H1962.41V771.727ZM2071.4 689.909H2044.12V662.636H2098.67V799H2071.4V689.909Z" fill="#F65701"/>
<rect x="1298" y="1812" width="1098" height="521" fill="#4C4C4C"/>
<path d="M1506.3 2068.3V2044.9C1516.2 2034.4 1527.9 2029 1542 2029C1554.6 2029 1566.9 2032 1579.8 2038C1592.4 2043.7 1603.5 2046.7 1612.8 2046.7C1623.3 2046.7 1636.2 2040.4 1647.3 2029V2052.1C1637.4 2062.9 1625.1 2068.3 1611.3 2068.3C1599 2068.3 1586.4 2065.3 1573.5 2059.3C1560.9 2053.6 1549.8 2050.6 1540.2 2050.6C1530.6 2050.6 1518 2056.6 1506.3 2068.3ZM1506.3 2108.2V2086.9H1647.3V2108.2H1506.3ZM1771.69 2042.91H1744.42V2015.64H1798.96V2152H1771.69V2042.91ZM1853.43 2070.18H1880.7V2042.91H1853.43V2070.18ZM1826.16 2124.73H1880.7V2097.45H1826.16V2015.64H1907.97V2152H1826.16V2124.73ZM1962.41 2070.18H1989.69V2042.91H1962.41V2070.18ZM1935.14 2124.73H1989.69V2097.45H1935.14V2015.64H2016.96V2152H1935.14V2124.73ZM2098.67 2124.73V2042.91H2071.4V2124.73H2098.67ZM2044.12 2015.64H2125.94V2152H2044.12V2015.64Z" fill="#F65701"/>
<line x1="2728.5" y1="544" x2="2728.5" y2="5468" stroke="#F65701" stroke-width="5"/>
<line x1="2728.5" y1="120" x2="2728.5" y2="544" stroke="#F65701" stroke-width="5" stroke-dasharray="50 50"/>
<line x1="2728.5" y1="5468" x2="2728.5" y2="6811" stroke="#F65701" stroke-width="5" stroke-dasharray="50 50"/>
<line x1="2728.5" y1="6811" x2="2728.5" y2="8154" stroke="#F65701" stroke-width="5" stroke-dasharray="40 100 40 100"/>
<line x1="2507" y1="710.5" x2="2853" y2="710.5" stroke="#F65701" stroke-width="5"/>
<line x1="2507" y1="2063.5" x2="2853" y2="2063.5" stroke="#F65701" stroke-width="5"/>
</svg>
