<svg width="1519" height="4148" viewBox="0 0 1519 4148" fill="none" xmlns="http://www.w3.org/2000/svg">
<rect x="421" y="546" width="1098" height="521" fill="#616161"/>
<path d="M629.3 802.3V778.9C639.2 768.4 650.9 763 665 763C677.6 763 689.9 766 702.8 772C715.4 777.7 726.5 780.7 735.8 780.7C746.3 780.7 759.2 774.4 770.3 763V786.1C760.4 796.9 748.1 802.3 734.3 802.3C722 802.3 709.4 799.3 696.5 793.3C683.9 787.6 672.8 784.6 663.2 784.6C653.6 784.6 641 790.6 629.3 802.3ZM629.3 842.2V820.9H770.3V842.2H629.3ZM894.691 776.909H867.418V749.636H921.963V886H894.691V776.909ZM976.429 804.182H1003.7V776.909H976.429V804.182ZM949.156 858.727H1003.7V831.455H949.156V749.636H1030.97V886H949.156V858.727ZM1085.41 804.182H1112.69V776.909H1085.41V804.182ZM1058.14 858.727H1112.69V831.455H1058.14V749.636H1139.96V886H1058.14V858.727ZM1167.12 804.182H1221.67V776.909H1167.12V749.636H1248.94V831.455H1194.4V858.727H1248.94V886H1167.12V804.182Z" fill="#F65701"/>
<rect x="421" y="2192" width="1098" height="521" fill="#616161"/>
<path d="M629.3 2448.3V2424.9C639.2 2414.4 650.9 2409 665 2409C677.6 2409 689.9 2412 702.8 2418C715.4 2423.7 726.5 2426.7 735.8 2426.7C746.3 2426.7 759.2 2420.4 770.3 2409V2432.1C760.4 2442.9 748.1 2448.3 734.3 2448.3C722 2448.3 709.4 2445.3 696.5 2439.3C683.9 2433.6 672.8 2430.6 663.2 2430.6C653.6 2430.6 641 2436.6 629.3 2448.3ZM629.3 2488.2V2466.9H770.3V2488.2H629.3ZM867.418 2450.18H921.963V2422.91H867.418V2395.64H949.236V2477.45H894.691V2504.73H949.236V2532H867.418V2450.18ZM1030.95 2504.73V2422.91H1003.68V2504.73H1030.95ZM976.402 2395.64H1058.22V2532H976.402V2395.64ZM1139.93 2504.73V2422.91H1112.66V2504.73H1139.93ZM1085.39 2395.64H1167.2V2532H1085.39V2395.64ZM1194.37 2504.73H1248.92V2477.45H1194.37V2395.64H1276.19V2422.91H1221.64V2450.18H1276.19V2532H1194.37V2504.73Z" fill="#F65701"/>
<line x1="121.5" y1="1.09278e-07" x2="121.5" y2="4148" stroke="#F65701" stroke-width="5"/>
<line y1="797.5" x2="346" y2="797.5" stroke="#F65701" stroke-width="5"/>
<line y1="2443.5" x2="346" y2="2443.5" stroke="#F65701" stroke-width="5"/>
</svg>
