<svg width="1300" height="976" viewBox="0 0 1300 976" fill="none" xmlns="http://www.w3.org/2000/svg">
<path d="M208.714 619.124C190.902 619.124 175.53 616.684 162.598 611.804C149.666 606.68 138.93 599.726 130.39 590.942C122.094 581.914 115.872 571.3 111.724 559.1C107.82 546.656 105.868 532.992 105.868 518.108V360.362H162.964V513.35C162.964 523.598 164.062 532.382 166.258 539.702C168.698 546.778 171.87 552.634 175.774 557.27C179.922 561.662 184.802 564.834 190.414 566.786C196.27 568.738 202.614 569.714 209.446 569.714C223.354 569.714 234.578 565.444 243.118 556.904C251.902 548.364 256.294 533.846 256.294 513.35V360.362H313.39V518.108C313.39 532.992 311.316 546.656 307.168 559.1C303.02 571.544 296.676 582.28 288.136 591.308C279.596 600.092 268.738 606.924 255.562 611.804C242.386 616.684 226.77 619.124 208.714 619.124ZM513.969 614C506.893 599.848 499.085 585.574 490.545 571.178C482.249 556.538 472.611 541.654 461.631 526.526C458.215 530.918 453.823 537.018 448.455 544.826C443.331 552.634 438.085 560.93 432.717 569.714C427.593 578.498 422.713 586.916 418.077 594.968C413.441 603.02 410.025 609.364 407.829 614H342.681C353.417 594.236 365.861 573.496 380.013 551.78C394.409 530.064 410.391 507.006 427.959 482.606L346.341 360.362H415.515L464.925 439.418L513.237 360.362H578.386L497.865 483.338C518.361 509.934 535.563 534.578 549.472 557.27C563.379 579.718 574.359 598.628 582.411 614H513.969Z" fill="black"/>
<path d="M350.573 303.6C352.039 303.6 353.439 303.567 354.773 303.5C356.106 303.433 357.173 303.333 357.973 303.2V291.9C357.373 291.767 356.473 291.633 355.273 291.5C354.073 291.367 352.973 291.3 351.973 291.3C350.573 291.3 349.239 291.4 347.973 291.6C346.773 291.733 345.706 292.033 344.773 292.5C343.839 292.967 343.106 293.6 342.573 294.4C342.039 295.2 341.773 296.2 341.773 297.4C341.773 299.733 342.539 301.367 344.073 302.3C345.673 303.167 347.839 303.6 350.573 303.6ZM349.373 260C353.773 260 357.439 260.5 360.373 261.5C363.306 262.5 365.639 263.933 367.373 265.8C369.173 267.667 370.439 269.933 371.173 272.6C371.906 275.267 372.273 278.233 372.273 281.5V312.5C370.139 312.967 367.173 313.5 363.373 314.1C359.573 314.767 354.973 315.1 349.573 315.1C346.173 315.1 343.073 314.8 340.273 314.2C337.539 313.6 335.173 312.633 333.173 311.3C331.173 309.9 329.639 308.1 328.573 305.9C327.506 303.7 326.973 301 326.973 297.8C326.973 294.733 327.573 292.133 328.773 290C330.039 287.867 331.706 286.167 333.773 284.9C335.839 283.633 338.206 282.733 340.873 282.2C343.539 281.6 346.306 281.3 349.173 281.3C351.106 281.3 352.806 281.4 354.273 281.6C355.806 281.733 357.039 281.933 357.973 282.2V280.8C357.973 278.267 357.206 276.233 355.673 274.7C354.139 273.167 351.473 272.4 347.673 272.4C345.139 272.4 342.639 272.6 340.173 273C337.706 273.333 335.573 273.833 333.773 274.5L331.873 262.5C332.739 262.233 333.806 261.967 335.073 261.7C336.406 261.367 337.839 261.1 339.373 260.9C340.906 260.633 342.506 260.433 344.173 260.3C345.906 260.1 347.639 260 349.373 260ZM407.27 288.1C407.27 283.433 407.97 279.367 409.37 275.9C410.836 272.367 412.736 269.433 415.07 267.1C417.403 264.767 420.07 263 423.07 261.8C426.136 260.6 429.27 260 432.47 260C439.936 260 445.836 262.3 450.17 266.9C454.503 271.433 456.67 278.133 456.67 287C456.67 287.867 456.636 288.833 456.57 289.9C456.503 290.9 456.436 291.8 456.37 292.6H422.57C422.903 295.667 424.336 298.1 426.87 299.9C429.403 301.7 432.803 302.6 437.07 302.6C439.803 302.6 442.47 302.367 445.07 301.9C447.736 301.367 449.903 300.733 451.57 300L453.57 312.1C452.77 312.5 451.703 312.9 450.37 313.3C449.036 313.7 447.536 314.033 445.87 314.3C444.27 314.633 442.536 314.9 440.67 315.1C438.803 315.3 436.936 315.4 435.07 315.4C430.336 315.4 426.203 314.7 422.67 313.3C419.203 311.9 416.303 310 413.97 307.6C411.703 305.133 410.003 302.233 408.87 298.9C407.803 295.567 407.27 291.967 407.27 288.1ZM442.27 282.4C442.203 281.133 441.97 279.9 441.57 278.7C441.236 277.5 440.67 276.433 439.87 275.5C439.136 274.567 438.17 273.8 436.97 273.2C435.836 272.6 434.403 272.3 432.67 272.3C431.003 272.3 429.57 272.6 428.37 273.2C427.17 273.733 426.17 274.467 425.37 275.4C424.57 276.333 423.936 277.433 423.47 278.7C423.07 279.9 422.77 281.133 422.57 282.4H442.27ZM489.068 277.4L499.468 261.4H514.868L496.868 286.7C500.868 291.7 504.501 296.567 507.768 301.3C511.035 306.033 513.635 310.267 515.568 314H499.568C499.035 313 498.368 311.767 497.568 310.3C496.768 308.767 495.868 307.2 494.868 305.6C493.868 303.933 492.801 302.3 491.668 300.7C490.601 299.033 489.535 297.533 488.468 296.2C487.468 297.467 486.435 298.867 485.368 300.4C484.368 301.933 483.401 303.5 482.468 305.1C481.535 306.633 480.601 308.167 479.668 309.7C478.801 311.233 478.035 312.667 477.368 314H462.168C462.968 312.333 464.068 310.367 465.468 308.1C466.868 305.833 468.368 303.5 469.968 301.1C471.635 298.633 473.368 296.2 475.168 293.8C476.968 291.333 478.735 289.033 480.468 286.9C477.468 282.7 474.468 278.467 471.468 274.2C468.468 269.867 465.501 265.6 462.568 261.4H478.668L489.068 277.4ZM557.239 288.1C557.239 283.5 556.206 279.833 554.139 277.1C552.072 274.3 549.006 272.9 544.939 272.9C543.606 272.9 542.372 272.967 541.239 273.1C540.106 273.167 539.172 273.267 538.439 273.4V300.3C539.372 300.9 540.572 301.4 542.039 301.8C543.572 302.2 545.106 302.4 546.639 302.4C553.706 302.4 557.239 297.633 557.239 288.1ZM572.439 287.7C572.439 291.767 571.939 295.467 570.939 298.8C569.939 302.133 568.472 305 566.539 307.4C564.606 309.8 562.206 311.667 559.339 313C556.472 314.333 553.172 315 549.439 315C547.372 315 545.439 314.8 543.639 314.4C541.839 314 540.106 313.433 538.439 312.7V332.5H523.539V263.2C524.872 262.8 526.406 262.433 528.139 262.1C529.872 261.7 531.672 261.367 533.539 261.1C535.472 260.833 537.406 260.633 539.339 260.5C541.339 260.3 543.239 260.2 545.039 260.2C549.372 260.2 553.239 260.867 556.639 262.2C560.039 263.467 562.906 265.3 565.239 267.7C567.572 270.033 569.339 272.9 570.539 276.3C571.806 279.7 572.439 283.5 572.439 287.7ZM581.391 288.1C581.391 283.433 582.091 279.367 583.491 275.9C584.957 272.367 586.857 269.433 589.191 267.1C591.524 264.767 594.191 263 597.191 261.8C600.257 260.6 603.391 260 606.591 260C614.057 260 619.957 262.3 624.291 266.9C628.624 271.433 630.791 278.133 630.791 287C630.791 287.867 630.757 288.833 630.691 289.9C630.624 290.9 630.557 291.8 630.491 292.6H596.691C597.024 295.667 598.457 298.1 600.991 299.9C603.524 301.7 606.924 302.6 611.191 302.6C613.924 302.6 616.591 302.367 619.191 301.9C621.857 301.367 624.024 300.733 625.691 300L627.691 312.1C626.891 312.5 625.824 312.9 624.491 313.3C623.157 313.7 621.657 314.033 619.991 314.3C618.391 314.633 616.657 314.9 614.791 315.1C612.924 315.3 611.057 315.4 609.191 315.4C604.457 315.4 600.324 314.7 596.791 313.3C593.324 311.9 590.424 310 588.091 307.6C585.824 305.133 584.124 302.233 582.991 298.9C581.924 295.567 581.391 291.967 581.391 288.1ZM616.391 282.4C616.324 281.133 616.091 279.9 615.691 278.7C615.357 277.5 614.791 276.433 613.991 275.5C613.257 274.567 612.291 273.8 611.091 273.2C609.957 272.6 608.524 272.3 606.791 272.3C605.124 272.3 603.691 272.6 602.491 273.2C601.291 273.733 600.291 274.467 599.491 275.4C598.691 276.333 598.057 277.433 597.591 278.7C597.191 279.9 596.891 281.133 596.691 282.4H616.391ZM673.989 274.6C672.656 274.267 671.089 273.933 669.289 273.6C667.489 273.2 665.556 273 663.489 273C662.556 273 661.422 273.1 660.089 273.3C658.822 273.433 657.856 273.6 657.189 273.8V314H642.289V264.2C644.956 263.267 648.089 262.4 651.689 261.6C655.356 260.733 659.422 260.3 663.889 260.3C664.689 260.3 665.656 260.367 666.789 260.5C667.922 260.567 669.056 260.7 670.189 260.9C671.322 261.033 672.456 261.233 673.589 261.5C674.722 261.7 675.689 261.967 676.489 262.3L673.989 274.6ZM699.377 314H684.477V261.4H699.377V314ZM700.777 246.2C700.777 248.933 699.877 251.1 698.077 252.7C696.343 254.233 694.277 255 691.877 255C689.477 255 687.377 254.233 685.577 252.7C683.843 251.1 682.977 248.933 682.977 246.2C682.977 243.467 683.843 241.333 685.577 239.8C687.377 238.2 689.477 237.4 691.877 237.4C694.277 237.4 696.343 238.2 698.077 239.8C699.877 241.333 700.777 243.467 700.777 246.2ZM710.883 288.1C710.883 283.433 711.583 279.367 712.983 275.9C714.449 272.367 716.349 269.433 718.683 267.1C721.016 264.767 723.683 263 726.683 261.8C729.749 260.6 732.883 260 736.083 260C743.549 260 749.449 262.3 753.783 266.9C758.116 271.433 760.283 278.133 760.283 287C760.283 287.867 760.249 288.833 760.183 289.9C760.116 290.9 760.049 291.8 759.983 292.6H726.183C726.516 295.667 727.949 298.1 730.483 299.9C733.016 301.7 736.416 302.6 740.683 302.6C743.416 302.6 746.083 302.367 748.683 301.9C751.349 301.367 753.516 300.733 755.183 300L757.183 312.1C756.383 312.5 755.316 312.9 753.983 313.3C752.649 313.7 751.149 314.033 749.483 314.3C747.883 314.633 746.149 314.9 744.283 315.1C742.416 315.3 740.549 315.4 738.683 315.4C733.949 315.4 729.816 314.7 726.283 313.3C722.816 311.9 719.916 310 717.583 307.6C715.316 305.133 713.616 302.233 712.483 298.9C711.416 295.567 710.883 291.967 710.883 288.1ZM745.883 282.4C745.816 281.133 745.583 279.9 745.183 278.7C744.849 277.5 744.283 276.433 743.483 275.5C742.749 274.567 741.783 273.8 740.583 273.2C739.449 272.6 738.016 272.3 736.283 272.3C734.616 272.3 733.183 272.6 731.983 273.2C730.783 273.733 729.783 274.467 728.983 275.4C728.183 276.333 727.549 277.433 727.083 278.7C726.683 279.9 726.383 281.133 726.183 282.4H745.883ZM751.083 249.5L745.583 256.1L735.583 248.4L725.583 256.1L719.883 249.5L735.583 235.8L751.083 249.5ZM771.781 263.2C774.315 262.467 777.581 261.8 781.581 261.2C785.581 260.533 789.781 260.2 794.181 260.2C798.648 260.2 802.348 260.8 805.281 262C808.281 263.133 810.648 264.767 812.381 266.9C814.115 269.033 815.348 271.567 816.081 274.5C816.815 277.433 817.181 280.7 817.181 284.3V314H802.281V286.1C802.281 281.3 801.648 277.9 800.381 275.9C799.115 273.9 796.748 272.9 793.281 272.9C792.215 272.9 791.081 272.967 789.881 273.1C788.681 273.167 787.615 273.267 786.681 273.4V314H771.781V263.2ZM828.168 287.7C828.168 283.9 828.768 280.333 829.968 277C831.235 273.6 833.035 270.667 835.368 268.2C837.701 265.667 840.535 263.667 843.868 262.2C847.201 260.733 851.001 260 855.268 260C858.068 260 860.635 260.267 862.968 260.8C865.301 261.267 867.568 261.967 869.768 262.9L866.668 274.8C865.268 274.267 863.735 273.8 862.068 273.4C860.401 273 858.535 272.8 856.468 272.8C852.068 272.8 848.768 274.167 846.568 276.9C844.435 279.633 843.368 283.233 843.368 287.7C843.368 292.433 844.368 296.1 846.368 298.7C848.435 301.3 852.001 302.6 857.068 302.6C858.868 302.6 860.801 302.433 862.868 302.1C864.935 301.767 866.835 301.233 868.568 300.5L870.668 312.7C868.935 313.433 866.768 314.067 864.168 314.6C861.568 315.133 858.701 315.4 855.568 315.4C850.768 315.4 846.635 314.7 843.168 313.3C839.701 311.833 836.835 309.867 834.568 307.4C832.368 304.933 830.735 302.033 829.668 298.7C828.668 295.3 828.168 291.633 828.168 287.7ZM895.568 314H880.668V261.4H895.568V314ZM896.968 246.2C896.968 248.933 896.068 251.1 894.268 252.7C892.535 254.233 890.468 255 888.068 255C885.668 255 883.568 254.233 881.768 252.7C880.035 251.1 879.168 248.933 879.168 246.2C879.168 243.467 880.035 241.333 881.768 239.8C883.568 238.2 885.668 237.4 888.068 237.4C890.468 237.4 892.535 238.2 894.268 239.8C896.068 241.333 896.968 243.467 896.968 246.2ZM929.674 303.6C931.141 303.6 932.541 303.567 933.874 303.5C935.208 303.433 936.274 303.333 937.074 303.2V291.9C936.474 291.767 935.574 291.633 934.374 291.5C933.174 291.367 932.074 291.3 931.074 291.3C929.674 291.3 928.341 291.4 927.074 291.6C925.874 291.733 924.808 292.033 923.874 292.5C922.941 292.967 922.208 293.6 921.674 294.4C921.141 295.2 920.874 296.2 920.874 297.4C920.874 299.733 921.641 301.367 923.174 302.3C924.774 303.167 926.941 303.6 929.674 303.6ZM928.474 260C932.874 260 936.541 260.5 939.474 261.5C942.408 262.5 944.741 263.933 946.474 265.8C948.274 267.667 949.541 269.933 950.274 272.6C951.008 275.267 951.374 278.233 951.374 281.5V312.5C949.241 312.967 946.274 313.5 942.474 314.1C938.674 314.767 934.074 315.1 928.674 315.1C925.274 315.1 922.174 314.8 919.374 314.2C916.641 313.6 914.274 312.633 912.274 311.3C910.274 309.9 908.741 308.1 907.674 305.9C906.608 303.7 906.074 301 906.074 297.8C906.074 294.733 906.674 292.133 907.874 290C909.141 287.867 910.808 286.167 912.874 284.9C914.941 283.633 917.308 282.733 919.974 282.2C922.641 281.6 925.408 281.3 928.274 281.3C930.208 281.3 931.908 281.4 933.374 281.6C934.908 281.733 936.141 281.933 937.074 282.2V280.8C937.074 278.267 936.308 276.233 934.774 274.7C933.241 273.167 930.574 272.4 926.774 272.4C924.241 272.4 921.741 272.6 919.274 273C916.808 273.333 914.674 273.833 912.874 274.5L910.974 262.5C911.841 262.233 912.908 261.967 914.174 261.7C915.508 261.367 916.941 261.1 918.474 260.9C920.008 260.633 921.608 260.433 923.274 260.3C925.008 260.1 926.741 260 928.474 260ZM1022.57 288.1C1022.57 283.5 1021.54 279.833 1019.47 277.1C1017.4 274.3 1014.34 272.9 1010.27 272.9C1008.94 272.9 1007.7 272.967 1006.57 273.1C1005.44 273.167 1004.5 273.267 1003.77 273.4V300.3C1004.7 300.9 1005.9 301.4 1007.37 301.8C1008.9 302.2 1010.44 302.4 1011.97 302.4C1019.04 302.4 1022.57 297.633 1022.57 288.1ZM1037.77 287.7C1037.77 291.767 1037.27 295.467 1036.27 298.8C1035.27 302.133 1033.8 305 1031.87 307.4C1029.94 309.8 1027.54 311.667 1024.67 313C1021.8 314.333 1018.5 315 1014.77 315C1012.7 315 1010.77 314.8 1008.97 314.4C1007.17 314 1005.44 313.433 1003.77 312.7V332.5H988.871V263.2C990.204 262.8 991.738 262.433 993.471 262.1C995.204 261.7 997.004 261.367 998.871 261.1C1000.8 260.833 1002.74 260.633 1004.67 260.5C1006.67 260.3 1008.57 260.2 1010.37 260.2C1014.7 260.2 1018.57 260.867 1021.97 262.2C1025.37 263.467 1028.24 265.3 1030.57 267.7C1032.9 270.033 1034.67 272.9 1035.87 276.3C1037.14 279.7 1037.77 283.5 1037.77 287.7ZM1046.72 288.1C1046.72 283.433 1047.42 279.367 1048.82 275.9C1050.29 272.367 1052.19 269.433 1054.52 267.1C1056.86 264.767 1059.52 263 1062.52 261.8C1065.59 260.6 1068.72 260 1071.92 260C1079.39 260 1085.29 262.3 1089.62 266.9C1093.96 271.433 1096.12 278.133 1096.12 287C1096.12 287.867 1096.09 288.833 1096.02 289.9C1095.96 290.9 1095.89 291.8 1095.82 292.6H1062.02C1062.36 295.667 1063.79 298.1 1066.32 299.9C1068.86 301.7 1072.26 302.6 1076.52 302.6C1079.26 302.6 1081.92 302.367 1084.52 301.9C1087.19 301.367 1089.36 300.733 1091.02 300L1093.02 312.1C1092.22 312.5 1091.16 312.9 1089.82 313.3C1088.49 313.7 1086.99 314.033 1085.32 314.3C1083.72 314.633 1081.99 314.9 1080.12 315.1C1078.26 315.3 1076.39 315.4 1074.52 315.4C1069.79 315.4 1065.66 314.7 1062.12 313.3C1058.66 311.9 1055.76 310 1053.42 307.6C1051.16 305.133 1049.46 302.233 1048.32 298.9C1047.26 295.567 1046.72 291.967 1046.72 288.1ZM1081.72 282.4C1081.66 281.133 1081.42 279.9 1081.02 278.7C1080.69 277.5 1080.12 276.433 1079.32 275.5C1078.59 274.567 1077.62 273.8 1076.42 273.2C1075.29 272.6 1073.86 272.3 1072.12 272.3C1070.46 272.3 1069.02 272.6 1067.82 273.2C1066.62 273.733 1065.62 274.467 1064.82 275.4C1064.02 276.333 1063.39 277.433 1062.92 278.7C1062.52 279.9 1062.22 281.133 1062.02 282.4H1081.72ZM1128.62 315C1124.29 314.933 1120.75 314.467 1118.02 313.6C1115.35 312.733 1113.22 311.533 1111.62 310C1110.09 308.4 1109.02 306.5 1108.42 304.3C1107.89 302.033 1107.62 299.5 1107.62 296.7V238.8L1122.52 236.4V293.7C1122.52 295.033 1122.62 296.233 1122.82 297.3C1123.02 298.367 1123.39 299.267 1123.92 300C1124.52 300.733 1125.35 301.333 1126.42 301.8C1127.49 302.267 1128.92 302.567 1130.72 302.7L1128.62 315ZM1160.83 303.6C1162.29 303.6 1163.69 303.567 1165.03 303.5C1166.36 303.433 1167.43 303.333 1168.23 303.2V291.9C1167.63 291.767 1166.73 291.633 1165.53 291.5C1164.33 291.367 1163.23 291.3 1162.23 291.3C1160.83 291.3 1159.49 291.4 1158.23 291.6C1157.03 291.733 1155.96 292.033 1155.03 292.5C1154.09 292.967 1153.36 293.6 1152.83 294.4C1152.29 295.2 1152.03 296.2 1152.03 297.4C1152.03 299.733 1152.79 301.367 1154.33 302.3C1155.93 303.167 1158.09 303.6 1160.83 303.6ZM1159.63 260C1164.03 260 1167.69 260.5 1170.63 261.5C1173.56 262.5 1175.89 263.933 1177.63 265.8C1179.43 267.667 1180.69 269.933 1181.43 272.6C1182.16 275.267 1182.53 278.233 1182.53 281.5V312.5C1180.39 312.967 1177.43 313.5 1173.63 314.1C1169.83 314.767 1165.23 315.1 1159.83 315.1C1156.43 315.1 1153.33 314.8 1150.53 314.2C1147.79 313.6 1145.43 312.633 1143.43 311.3C1141.43 309.9 1139.89 308.1 1138.83 305.9C1137.76 303.7 1137.23 301 1137.23 297.8C1137.23 294.733 1137.83 292.133 1139.03 290C1140.29 287.867 1141.96 286.167 1144.03 284.9C1146.09 283.633 1148.46 282.733 1151.13 282.2C1153.79 281.6 1156.56 281.3 1159.43 281.3C1161.36 281.3 1163.06 281.4 1164.53 281.6C1166.06 281.733 1167.29 281.933 1168.23 282.2V280.8C1168.23 278.267 1167.46 276.233 1165.93 274.7C1164.39 273.167 1161.73 272.4 1157.93 272.4C1155.39 272.4 1152.89 272.6 1150.43 273C1147.96 273.333 1145.83 273.833 1144.03 274.5L1142.13 262.5C1142.99 262.233 1144.06 261.967 1145.33 261.7C1146.66 261.367 1148.09 261.1 1149.63 260.9C1151.16 260.633 1152.76 260.433 1154.43 260.3C1156.16 260.1 1157.89 260 1159.63 260ZM525.305 388.1C525.305 383.5 524.272 379.833 522.205 377.1C520.139 374.3 517.072 372.9 513.005 372.9C511.672 372.9 510.439 372.967 509.305 373.1C508.172 373.167 507.239 373.267 506.505 373.4V400.3C507.439 400.9 508.639 401.4 510.105 401.8C511.639 402.2 513.172 402.4 514.705 402.4C521.772 402.4 525.305 397.633 525.305 388.1ZM540.505 387.7C540.505 391.767 540.005 395.467 539.005 398.8C538.005 402.133 536.539 405 534.605 407.4C532.672 409.8 530.272 411.667 527.405 413C524.539 414.333 521.239 415 517.505 415C515.439 415 513.505 414.8 511.705 414.4C509.905 414 508.172 413.433 506.505 412.7V432.5H491.605V363.2C492.939 362.8 494.472 362.433 496.205 362.1C497.939 361.7 499.739 361.367 501.605 361.1C503.539 360.833 505.472 360.633 507.405 360.5C509.405 360.3 511.305 360.2 513.105 360.2C517.439 360.2 521.305 360.867 524.705 362.2C528.105 363.467 530.972 365.3 533.305 367.7C535.639 370.033 537.405 372.9 538.605 376.3C539.872 379.7 540.505 383.5 540.505 387.7ZM549.457 388.1C549.457 383.433 550.157 379.367 551.557 375.9C553.024 372.367 554.924 369.433 557.257 367.1C559.59 364.767 562.257 363 565.257 361.8C568.324 360.6 571.457 360 574.657 360C582.124 360 588.024 362.3 592.357 366.9C596.69 371.433 598.857 378.133 598.857 387C598.857 387.867 598.824 388.833 598.757 389.9C598.69 390.9 598.624 391.8 598.557 392.6H564.757C565.09 395.667 566.524 398.1 569.057 399.9C571.59 401.7 574.99 402.6 579.257 402.6C581.99 402.6 584.657 402.367 587.257 401.9C589.924 401.367 592.09 400.733 593.757 400L595.757 412.1C594.957 412.5 593.89 412.9 592.557 413.3C591.224 413.7 589.724 414.033 588.057 414.3C586.457 414.633 584.724 414.9 582.857 415.1C580.99 415.3 579.124 415.4 577.257 415.4C572.524 415.4 568.39 414.7 564.857 413.3C561.39 411.9 558.49 410 556.157 407.6C553.89 405.133 552.19 402.233 551.057 398.9C549.99 395.567 549.457 391.967 549.457 388.1ZM584.457 382.4C584.39 381.133 584.157 379.9 583.757 378.7C583.424 377.5 582.857 376.433 582.057 375.5C581.324 374.567 580.357 373.8 579.157 373.2C578.024 372.6 576.59 372.3 574.857 372.3C573.19 372.3 571.757 372.6 570.557 373.2C569.357 373.733 568.357 374.467 567.557 375.4C566.757 376.333 566.124 377.433 565.657 378.7C565.257 379.9 564.957 381.133 564.757 382.4H584.457ZM642.055 374.6C640.722 374.267 639.155 373.933 637.355 373.6C635.555 373.2 633.622 373 631.555 373C630.622 373 629.489 373.1 628.155 373.3C626.889 373.433 625.922 373.6 625.255 373.8V414H610.355V364.2C613.022 363.267 616.155 362.4 619.755 361.6C623.422 360.733 627.489 360.3 631.955 360.3C632.755 360.3 633.722 360.367 634.855 360.5C635.989 360.567 637.122 360.7 638.255 360.9C639.389 361.033 640.522 361.233 641.655 361.5C642.789 361.7 643.755 361.967 644.555 362.3L642.055 374.6ZM667.643 403.3C670.376 403.3 672.31 403.033 673.443 402.5C674.576 401.967 675.143 400.933 675.143 399.4C675.143 398.2 674.41 397.167 672.943 396.3C671.476 395.367 669.243 394.333 666.243 393.2C663.91 392.333 661.776 391.433 659.843 390.5C657.976 389.567 656.376 388.467 655.043 387.2C653.71 385.867 652.676 384.3 651.943 382.5C651.21 380.7 650.843 378.533 650.843 376C650.843 371.067 652.676 367.167 656.343 364.3C660.01 361.433 665.043 360 671.443 360C674.643 360 677.71 360.3 680.643 360.9C683.576 361.433 685.91 362.033 687.643 362.7L685.043 374.3C683.31 373.7 681.41 373.167 679.343 372.7C677.343 372.233 675.076 372 672.543 372C667.876 372 665.543 373.3 665.543 375.9C665.543 376.5 665.643 377.033 665.843 377.5C666.043 377.967 666.443 378.433 667.043 378.9C667.643 379.3 668.443 379.767 669.443 380.3C670.51 380.767 671.843 381.3 673.443 381.9C676.71 383.1 679.41 384.3 681.543 385.5C683.676 386.633 685.343 387.9 686.543 389.3C687.81 390.633 688.676 392.133 689.143 393.8C689.676 395.467 689.943 397.4 689.943 399.6C689.943 404.8 687.976 408.733 684.043 411.4C680.176 414.067 674.676 415.4 667.543 415.4C662.876 415.4 658.976 415 655.843 414.2C652.776 413.4 650.643 412.733 649.443 412.2L651.943 400.1C654.476 401.1 657.076 401.9 659.743 402.5C662.41 403.033 665.043 403.3 667.643 403.3ZM734.778 388.1C734.778 383.5 733.745 379.833 731.678 377.1C729.611 374.3 726.545 372.9 722.478 372.9C721.145 372.9 719.911 372.967 718.778 373.1C717.645 373.167 716.711 373.267 715.978 373.4V400.3C716.911 400.9 718.111 401.4 719.578 401.8C721.111 402.2 722.645 402.4 724.178 402.4C731.245 402.4 734.778 397.633 734.778 388.1ZM749.978 387.7C749.978 391.767 749.478 395.467 748.478 398.8C747.478 402.133 746.011 405 744.078 407.4C742.145 409.8 739.745 411.667 736.878 413C734.011 414.333 730.711 415 726.978 415C724.911 415 722.978 414.8 721.178 414.4C719.378 414 717.645 413.433 715.978 412.7V432.5H701.078V363.2C702.411 362.8 703.945 362.433 705.678 362.1C707.411 361.7 709.211 361.367 711.078 361.1C713.011 360.833 714.945 360.633 716.878 360.5C718.878 360.3 720.778 360.2 722.578 360.2C726.911 360.2 730.778 360.867 734.178 362.2C737.578 363.467 740.445 365.3 742.778 367.7C745.111 370.033 746.878 372.9 748.078 376.3C749.345 379.7 749.978 383.5 749.978 387.7ZM758.93 388.1C758.93 383.433 759.63 379.367 761.03 375.9C762.496 372.367 764.396 369.433 766.73 367.1C769.063 364.767 771.73 363 774.73 361.8C777.796 360.6 780.93 360 784.13 360C791.596 360 797.496 362.3 801.83 366.9C806.163 371.433 808.33 378.133 808.33 387C808.33 387.867 808.296 388.833 808.23 389.9C808.163 390.9 808.096 391.8 808.03 392.6H774.23C774.563 395.667 775.996 398.1 778.53 399.9C781.063 401.7 784.463 402.6 788.73 402.6C791.463 402.6 794.13 402.367 796.73 401.9C799.396 401.367 801.563 400.733 803.23 400L805.23 412.1C804.43 412.5 803.363 412.9 802.03 413.3C800.696 413.7 799.196 414.033 797.53 414.3C795.93 414.633 794.196 414.9 792.33 415.1C790.463 415.3 788.596 415.4 786.73 415.4C781.996 415.4 777.863 414.7 774.33 413.3C770.863 411.9 767.963 410 765.63 407.6C763.363 405.133 761.663 402.233 760.53 398.9C759.463 395.567 758.93 391.967 758.93 388.1ZM793.93 382.4C793.863 381.133 793.63 379.9 793.23 378.7C792.896 377.5 792.33 376.433 791.53 375.5C790.796 374.567 789.83 373.8 788.63 373.2C787.496 372.6 786.063 372.3 784.33 372.3C782.663 372.3 781.23 372.6 780.03 373.2C778.83 373.733 777.83 374.467 777.03 375.4C776.23 376.333 775.596 377.433 775.13 378.7C774.73 379.9 774.43 381.133 774.23 382.4H793.93ZM817.328 387.7C817.328 383.9 817.928 380.333 819.128 377C820.395 373.6 822.195 370.667 824.528 368.2C826.861 365.667 829.695 363.667 833.028 362.2C836.361 360.733 840.161 360 844.428 360C847.228 360 849.795 360.267 852.128 360.8C854.461 361.267 856.728 361.967 858.928 362.9L855.828 374.8C854.428 374.267 852.895 373.8 851.228 373.4C849.561 373 847.695 372.8 845.628 372.8C841.228 372.8 837.928 374.167 835.728 376.9C833.595 379.633 832.528 383.233 832.528 387.7C832.528 392.433 833.528 396.1 835.528 398.7C837.595 401.3 841.161 402.6 846.228 402.6C848.028 402.6 849.961 402.433 852.028 402.1C854.095 401.767 855.995 401.233 857.728 400.5L859.828 412.7C858.095 413.433 855.928 414.067 853.328 414.6C850.728 415.133 847.861 415.4 844.728 415.4C839.928 415.4 835.795 414.7 832.328 413.3C828.861 411.833 825.995 409.867 823.728 407.4C821.528 404.933 819.895 402.033 818.828 398.7C817.828 395.3 817.328 391.633 817.328 387.7ZM869.328 348.3L884.228 345.9V361.4H902.128V373.8H884.228V392.3C884.228 395.433 884.761 397.933 885.828 399.8C886.961 401.667 889.195 402.6 892.528 402.6C894.128 402.6 895.761 402.467 897.428 402.2C899.161 401.867 900.728 401.433 902.128 400.9L904.228 412.5C902.428 413.233 900.428 413.867 898.228 414.4C896.028 414.933 893.328 415.2 890.128 415.2C886.061 415.2 882.695 414.667 880.028 413.6C877.361 412.467 875.228 410.933 873.628 409C872.028 407 870.895 404.6 870.228 401.8C869.628 399 869.328 395.9 869.328 392.5V348.3ZM929.162 414H914.262V361.4H929.162V414ZM930.562 346.2C930.562 348.933 929.662 351.1 927.862 352.7C926.128 354.233 924.062 355 921.662 355C919.262 355 917.162 354.233 915.362 352.7C913.628 351.1 912.762 348.933 912.762 346.2C912.762 343.467 913.628 341.333 915.362 339.8C917.162 338.2 919.262 337.4 921.662 337.4C924.062 337.4 926.128 338.2 927.862 339.8C929.662 341.333 930.562 343.467 930.562 346.2ZM955.905 414C952.505 407.333 949.039 399.533 945.505 390.6C942.039 381.667 938.739 371.933 935.605 361.4H951.405C952.072 364 952.839 366.833 953.705 369.9C954.639 372.9 955.572 375.967 956.505 379.1C957.505 382.167 958.472 385.167 959.405 388.1C960.405 391.033 961.372 393.7 962.305 396.1C963.172 393.7 964.105 391.033 965.105 388.1C966.105 385.167 967.072 382.167 968.005 379.1C969.005 375.967 969.939 372.9 970.805 369.9C971.739 366.833 972.539 364 973.205 361.4H988.605C985.472 371.933 982.139 381.667 978.605 390.6C975.139 399.533 971.705 407.333 968.305 414H955.905ZM1015.71 403.6C1017.18 403.6 1018.58 403.567 1019.91 403.5C1021.24 403.433 1022.31 403.333 1023.11 403.2V391.9C1022.51 391.767 1021.61 391.633 1020.41 391.5C1019.21 391.367 1018.11 391.3 1017.11 391.3C1015.71 391.3 1014.38 391.4 1013.11 391.6C1011.91 391.733 1010.84 392.033 1009.91 392.5C1008.98 392.967 1008.24 393.6 1007.71 394.4C1007.18 395.2 1006.91 396.2 1006.91 397.4C1006.91 399.733 1007.68 401.367 1009.21 402.3C1010.81 403.167 1012.98 403.6 1015.71 403.6ZM1014.51 360C1018.91 360 1022.58 360.5 1025.51 361.5C1028.44 362.5 1030.78 363.933 1032.51 365.8C1034.31 367.667 1035.58 369.933 1036.31 372.6C1037.04 375.267 1037.41 378.233 1037.41 381.5V412.5C1035.28 412.967 1032.31 413.5 1028.51 414.1C1024.71 414.767 1020.11 415.1 1014.71 415.1C1011.31 415.1 1008.21 414.8 1005.41 414.2C1002.68 413.6 1000.31 412.633 998.309 411.3C996.309 409.9 994.776 408.1 993.709 405.9C992.643 403.7 992.109 401 992.109 397.8C992.109 394.733 992.709 392.133 993.909 390C995.176 387.867 996.843 386.167 998.909 384.9C1000.98 383.633 1003.34 382.733 1006.01 382.2C1008.68 381.6 1011.44 381.3 1014.31 381.3C1016.24 381.3 1017.94 381.4 1019.41 381.6C1020.94 381.733 1022.18 381.933 1023.11 382.2V380.8C1023.11 378.267 1022.34 376.233 1020.81 374.7C1019.28 373.167 1016.61 372.4 1012.81 372.4C1010.28 372.4 1007.78 372.6 1005.31 373C1002.84 373.333 1000.71 373.833 998.909 374.5L997.009 362.5C997.876 362.233 998.943 361.967 1000.21 361.7C1001.54 361.367 1002.98 361.1 1004.51 360.9C1006.04 360.633 1007.64 360.433 1009.31 360.3C1011.04 360.1 1012.78 360 1014.51 360ZM1087.61 387.3C1087.61 391.9 1088.64 395.6 1090.71 398.4C1092.77 401.2 1095.84 402.6 1099.91 402.6C1101.24 402.6 1102.47 402.567 1103.61 402.5C1104.74 402.367 1105.67 402.233 1106.41 402.1V375C1105.47 374.4 1104.24 373.9 1102.71 373.5C1101.24 373.1 1099.74 372.9 1098.21 372.9C1091.14 372.9 1087.61 377.7 1087.61 387.3ZM1121.31 412.3C1119.97 412.7 1118.44 413.1 1116.71 413.5C1114.97 413.833 1113.14 414.133 1111.21 414.4C1109.34 414.667 1107.41 414.867 1105.41 415C1103.47 415.2 1101.61 415.3 1099.81 415.3C1095.47 415.3 1091.61 414.667 1088.21 413.4C1084.81 412.133 1081.94 410.333 1079.61 408C1077.27 405.6 1075.47 402.733 1074.21 399.4C1073.01 396 1072.41 392.2 1072.41 388C1072.41 383.733 1072.94 379.9 1074.01 376.5C1075.07 373.033 1076.61 370.1 1078.61 367.7C1080.61 365.3 1083.04 363.467 1085.91 362.2C1088.84 360.933 1092.17 360.3 1095.91 360.3C1097.97 360.3 1099.81 360.5 1101.41 360.9C1103.07 361.3 1104.74 361.867 1106.41 362.6V338.8L1121.31 336.4V412.3ZM1184.46 387.6C1184.46 391.733 1183.86 395.533 1182.66 399C1181.46 402.4 1179.72 405.333 1177.46 407.8C1175.19 410.2 1172.46 412.067 1169.26 413.4C1166.12 414.733 1162.59 415.4 1158.66 415.4C1154.79 415.4 1151.26 414.733 1148.06 413.4C1144.92 412.067 1142.22 410.2 1139.96 407.8C1137.69 405.333 1135.92 402.4 1134.66 399C1133.39 395.533 1132.76 391.733 1132.76 387.6C1132.76 383.467 1133.39 379.7 1134.66 376.3C1135.99 372.9 1137.79 370 1140.06 367.6C1142.39 365.2 1145.12 363.333 1148.26 362C1151.46 360.667 1154.92 360 1158.66 360C1162.46 360 1165.92 360.667 1169.06 362C1172.26 363.333 1174.99 365.2 1177.26 367.6C1179.52 370 1181.29 372.9 1182.56 376.3C1183.82 379.7 1184.46 383.467 1184.46 387.6ZM1169.26 387.6C1169.26 383 1168.32 379.4 1166.46 376.8C1164.66 374.133 1162.06 372.8 1158.66 372.8C1155.26 372.8 1152.62 374.133 1150.76 376.8C1148.89 379.4 1147.96 383 1147.96 387.6C1147.96 392.2 1148.89 395.867 1150.76 398.6C1152.62 401.267 1155.26 402.6 1158.66 402.6C1162.06 402.6 1164.66 401.267 1166.46 398.6C1168.32 395.867 1169.26 392.2 1169.26 387.6ZM672.459 486.1C672.459 481.3 671.825 477.9 670.559 475.9C669.359 473.9 667.259 472.9 664.259 472.9C663.325 472.9 662.359 472.967 661.359 473.1C660.359 473.167 659.392 473.267 658.459 473.4V514H643.559V463.2C644.825 462.867 646.292 462.533 647.959 462.2C649.692 461.8 651.492 461.467 653.359 461.2C655.292 460.867 657.259 460.633 659.259 460.5C661.259 460.3 663.225 460.2 665.159 460.2C668.959 460.2 672.025 460.7 674.359 461.7C676.759 462.633 678.725 463.767 680.259 465.1C682.392 463.567 684.825 462.367 687.559 461.5C690.359 460.633 692.925 460.2 695.259 460.2C699.459 460.2 702.892 460.8 705.559 462C708.292 463.133 710.459 464.767 712.059 466.9C713.659 469.033 714.759 471.567 715.359 474.5C715.959 477.433 716.259 480.7 716.259 484.3V514H701.359V486.1C701.359 481.3 700.725 477.9 699.459 475.9C698.259 473.9 696.159 472.9 693.159 472.9C692.359 472.9 691.225 473.1 689.759 473.5C688.359 473.9 687.192 474.4 686.259 475C686.725 476.533 687.025 478.167 687.159 479.9C687.292 481.567 687.359 483.367 687.359 485.3V514H672.459V486.1ZM727.289 488.1C727.289 483.433 727.989 479.367 729.389 475.9C730.856 472.367 732.756 469.433 735.089 467.1C737.422 464.767 740.089 463 743.089 461.8C746.156 460.6 749.289 460 752.489 460C759.956 460 765.856 462.3 770.189 466.9C774.522 471.433 776.689 478.133 776.689 487C776.689 487.867 776.656 488.833 776.589 489.9C776.522 490.9 776.456 491.8 776.389 492.6H742.589C742.922 495.667 744.356 498.1 746.889 499.9C749.422 501.7 752.822 502.6 757.089 502.6C759.822 502.6 762.489 502.367 765.089 501.9C767.756 501.367 769.922 500.733 771.589 500L773.589 512.1C772.789 512.5 771.722 512.9 770.389 513.3C769.056 513.7 767.556 514.033 765.889 514.3C764.289 514.633 762.556 514.9 760.689 515.1C758.822 515.3 756.956 515.4 755.089 515.4C750.356 515.4 746.222 514.7 742.689 513.3C739.222 511.9 736.322 510 733.989 507.6C731.722 505.133 730.022 502.233 728.889 498.9C727.822 495.567 727.289 491.967 727.289 488.1ZM762.289 482.4C762.222 481.133 761.989 479.9 761.589 478.7C761.256 477.5 760.689 476.433 759.889 475.5C759.156 474.567 758.189 473.8 756.989 473.2C755.856 472.6 754.422 472.3 752.689 472.3C751.022 472.3 749.589 472.6 748.389 473.2C747.189 473.733 746.189 474.467 745.389 475.4C744.589 476.333 743.956 477.433 743.489 478.7C743.089 479.9 742.789 481.133 742.589 482.4H762.289ZM819.888 474.6C818.554 474.267 816.988 473.933 815.188 473.6C813.388 473.2 811.454 473 809.388 473C808.454 473 807.321 473.1 805.988 473.3C804.721 473.433 803.754 473.6 803.088 473.8V514H788.188V464.2C790.854 463.267 793.988 462.4 797.588 461.6C801.254 460.733 805.321 460.3 809.788 460.3C810.588 460.3 811.554 460.367 812.688 460.5C813.821 460.567 814.954 460.7 816.088 460.9C817.221 461.033 818.354 461.233 819.488 461.5C820.621 461.7 821.588 461.967 822.388 462.3L819.888 474.6ZM826.898 487.7C826.898 483.9 827.498 480.333 828.698 477C829.965 473.6 831.765 470.667 834.098 468.2C836.432 465.667 839.265 463.667 842.598 462.2C845.932 460.733 849.732 460 853.998 460C856.798 460 859.365 460.267 861.698 460.8C864.032 461.267 866.298 461.967 868.498 462.9L865.398 474.8C863.998 474.267 862.465 473.8 860.798 473.4C859.132 473 857.265 472.8 855.198 472.8C850.798 472.8 847.498 474.167 845.298 476.9C843.165 479.633 842.098 483.233 842.098 487.7C842.098 492.433 843.098 496.1 845.098 498.7C847.165 501.3 850.732 502.6 855.798 502.6C857.598 502.6 859.532 502.433 861.598 502.1C863.665 501.767 865.565 501.233 867.298 500.5L869.398 512.7C867.665 513.433 865.498 514.067 862.898 514.6C860.298 515.133 857.432 515.4 854.298 515.4C849.498 515.4 845.365 514.7 841.898 513.3C838.432 511.833 835.565 509.867 833.298 507.4C831.098 504.933 829.465 502.033 828.398 498.7C827.398 495.3 826.898 491.633 826.898 487.7ZM896.959 503.6C898.426 503.6 899.826 503.567 901.159 503.5C902.493 503.433 903.559 503.333 904.359 503.2V491.9C903.759 491.767 902.859 491.633 901.659 491.5C900.459 491.367 899.359 491.3 898.359 491.3C896.959 491.3 895.626 491.4 894.359 491.6C893.159 491.733 892.093 492.033 891.159 492.5C890.226 492.967 889.493 493.6 888.959 494.4C888.426 495.2 888.159 496.2 888.159 497.4C888.159 499.733 888.926 501.367 890.459 502.3C892.059 503.167 894.226 503.6 896.959 503.6ZM895.759 460C900.159 460 903.826 460.5 906.759 461.5C909.693 462.5 912.026 463.933 913.759 465.8C915.559 467.667 916.826 469.933 917.559 472.6C918.293 475.267 918.659 478.233 918.659 481.5V512.5C916.526 512.967 913.559 513.5 909.759 514.1C905.959 514.767 901.359 515.1 895.959 515.1C892.559 515.1 889.459 514.8 886.659 514.2C883.926 513.6 881.559 512.633 879.559 511.3C877.559 509.9 876.026 508.1 874.959 505.9C873.893 503.7 873.359 501 873.359 497.8C873.359 494.733 873.959 492.133 875.159 490C876.426 487.867 878.093 486.167 880.159 484.9C882.226 483.633 884.593 482.733 887.259 482.2C889.926 481.6 892.693 481.3 895.559 481.3C897.493 481.3 899.193 481.4 900.659 481.6C902.193 481.733 903.426 481.933 904.359 482.2V480.8C904.359 478.267 903.593 476.233 902.059 474.7C900.526 473.167 897.859 472.4 894.059 472.4C891.526 472.4 889.026 472.6 886.559 473C884.093 473.333 881.959 473.833 880.159 474.5L878.259 462.5C879.126 462.233 880.193 461.967 881.459 461.7C882.793 461.367 884.226 461.1 885.759 460.9C887.293 460.633 888.893 460.433 890.559 460.3C892.293 460.1 894.026 460 895.759 460ZM944.833 487.3C944.833 491.9 945.866 495.6 947.933 498.4C949.999 501.2 953.066 502.6 957.133 502.6C958.466 502.6 959.699 502.567 960.833 502.5C961.966 502.367 962.899 502.233 963.633 502.1V475C962.699 474.4 961.466 473.9 959.933 473.5C958.466 473.1 956.966 472.9 955.433 472.9C948.366 472.9 944.833 477.7 944.833 487.3ZM978.533 512.3C977.199 512.7 975.666 513.1 973.933 513.5C972.199 513.833 970.366 514.133 968.433 514.4C966.566 514.667 964.633 514.867 962.633 515C960.699 515.2 958.833 515.3 957.033 515.3C952.699 515.3 948.833 514.667 945.433 513.4C942.033 512.133 939.166 510.333 936.833 508C934.499 505.6 932.699 502.733 931.433 499.4C930.233 496 929.633 492.2 929.633 488C929.633 483.733 930.166 479.9 931.233 476.5C932.299 473.033 933.833 470.1 935.833 467.7C937.833 465.3 940.266 463.467 943.133 462.2C946.066 460.933 949.399 460.3 953.133 460.3C955.199 460.3 957.033 460.5 958.633 460.9C960.299 461.3 961.966 461.867 963.633 462.6V438.8L978.533 436.4V512.3ZM1041.68 487.6C1041.68 491.733 1041.08 495.533 1039.88 499C1038.68 502.4 1036.95 505.333 1034.68 507.8C1032.42 510.2 1029.68 512.067 1026.48 513.4C1023.35 514.733 1019.82 515.4 1015.88 515.4C1012.02 515.4 1008.48 514.733 1005.28 513.4C1002.15 512.067 999.451 510.2 997.184 507.8C994.918 505.333 993.151 502.4 991.884 499C990.618 495.533 989.984 491.733 989.984 487.6C989.984 483.467 990.618 479.7 991.884 476.3C993.218 472.9 995.018 470 997.284 467.6C999.618 465.2 1002.35 463.333 1005.48 462C1008.68 460.667 1012.15 460 1015.88 460C1019.68 460 1023.15 460.667 1026.28 462C1029.48 463.333 1032.22 465.2 1034.48 467.6C1036.75 470 1038.52 472.9 1039.78 476.3C1041.05 479.7 1041.68 483.467 1041.68 487.6ZM1026.48 487.6C1026.48 483 1025.55 479.4 1023.68 476.8C1021.88 474.133 1019.28 472.8 1015.88 472.8C1012.48 472.8 1009.85 474.133 1007.98 476.8C1006.12 479.4 1005.18 483 1005.18 487.6C1005.18 492.2 1006.12 495.867 1007.98 498.6C1009.85 501.267 1012.48 502.6 1015.88 502.6C1019.28 502.6 1021.88 501.267 1023.68 498.6C1025.55 495.867 1026.48 492.2 1026.48 487.6ZM1089.95 487.3C1089.95 491.9 1090.98 495.6 1093.05 498.4C1095.12 501.2 1098.18 502.6 1102.25 502.6C1103.58 502.6 1104.82 502.567 1105.95 502.5C1107.08 502.367 1108.02 502.233 1108.75 502.1V475C1107.82 474.4 1106.58 473.9 1105.05 473.5C1103.58 473.1 1102.08 472.9 1100.55 472.9C1093.48 472.9 1089.95 477.7 1089.95 487.3ZM1123.65 512.3C1122.32 512.7 1120.78 513.1 1119.05 513.5C1117.32 513.833 1115.48 514.133 1113.55 514.4C1111.68 514.667 1109.75 514.867 1107.75 515C1105.82 515.2 1103.95 515.3 1102.15 515.3C1097.82 515.3 1093.95 514.667 1090.55 513.4C1087.15 512.133 1084.28 510.333 1081.95 508C1079.62 505.6 1077.82 502.733 1076.55 499.4C1075.35 496 1074.75 492.2 1074.75 488C1074.75 483.733 1075.28 479.9 1076.35 476.5C1077.42 473.033 1078.95 470.1 1080.95 467.7C1082.95 465.3 1085.38 463.467 1088.25 462.2C1091.18 460.933 1094.52 460.3 1098.25 460.3C1100.32 460.3 1102.15 460.5 1103.75 460.9C1105.42 461.3 1107.08 461.867 1108.75 462.6V438.8L1123.65 436.4V512.3ZM1135.1 488.1C1135.1 483.433 1135.8 479.367 1137.2 475.9C1138.67 472.367 1140.57 469.433 1142.9 467.1C1145.23 464.767 1147.9 463 1150.9 461.8C1153.97 460.6 1157.1 460 1160.3 460C1167.77 460 1173.67 462.3 1178 466.9C1182.33 471.433 1184.5 478.133 1184.5 487C1184.5 487.867 1184.47 488.833 1184.4 489.9C1184.33 490.9 1184.27 491.8 1184.2 492.6H1150.4C1150.73 495.667 1152.17 498.1 1154.7 499.9C1157.23 501.7 1160.63 502.6 1164.9 502.6C1167.63 502.6 1170.3 502.367 1172.9 501.9C1175.57 501.367 1177.73 500.733 1179.4 500L1181.4 512.1C1180.6 512.5 1179.53 512.9 1178.2 513.3C1176.87 513.7 1175.37 514.033 1173.7 514.3C1172.1 514.633 1170.37 514.9 1168.5 515.1C1166.63 515.3 1164.77 515.4 1162.9 515.4C1158.17 515.4 1154.03 514.7 1150.5 513.3C1147.03 511.9 1144.13 510 1141.8 507.6C1139.53 505.133 1137.83 502.233 1136.7 498.9C1135.63 495.567 1135.1 491.967 1135.1 488.1ZM1170.1 482.4C1170.03 481.133 1169.8 479.9 1169.4 478.7C1169.07 477.5 1168.5 476.433 1167.7 475.5C1166.97 474.567 1166 473.8 1164.8 473.2C1163.67 472.6 1162.23 472.3 1160.5 472.3C1158.83 472.3 1157.4 472.6 1156.2 473.2C1155 473.733 1154 474.467 1153.2 475.4C1152.4 476.333 1151.77 477.433 1151.3 478.7C1150.9 479.9 1150.6 481.133 1150.4 482.4H1170.1ZM689.055 548.3L703.955 545.9V561.4H721.855V573.8H703.955V592.3C703.955 595.433 704.488 597.933 705.555 599.8C706.688 601.667 708.921 602.6 712.255 602.6C713.855 602.6 715.488 602.467 717.155 602.2C718.888 601.867 720.455 601.433 721.855 600.9L723.955 612.5C722.155 613.233 720.155 613.867 717.955 614.4C715.755 614.933 713.055 615.2 709.855 615.2C705.788 615.2 702.421 614.667 699.755 613.6C697.088 612.467 694.955 610.933 693.355 609C691.755 607 690.621 604.6 689.955 601.8C689.355 599 689.055 595.9 689.055 592.5V548.3ZM729.535 588.1C729.535 583.433 730.235 579.367 731.635 575.9C733.102 572.367 735.002 569.433 737.335 567.1C739.668 564.767 742.335 563 745.335 561.8C748.402 560.6 751.535 560 754.735 560C762.202 560 768.102 562.3 772.435 566.9C776.768 571.433 778.935 578.133 778.935 587C778.935 587.867 778.902 588.833 778.835 589.9C778.768 590.9 778.702 591.8 778.635 592.6H744.835C745.168 595.667 746.602 598.1 749.135 599.9C751.668 601.7 755.068 602.6 759.335 602.6C762.068 602.6 764.735 602.367 767.335 601.9C770.002 601.367 772.168 600.733 773.835 600L775.835 612.1C775.035 612.5 773.968 612.9 772.635 613.3C771.302 613.7 769.802 614.033 768.135 614.3C766.535 614.633 764.802 614.9 762.935 615.1C761.068 615.3 759.202 615.4 757.335 615.4C752.602 615.4 748.468 614.7 744.935 613.3C741.468 611.9 738.568 610 736.235 607.6C733.968 605.133 732.268 602.233 731.135 598.9C730.068 595.567 729.535 591.967 729.535 588.1ZM764.535 582.4C764.468 581.133 764.235 579.9 763.835 578.7C763.502 577.5 762.935 576.433 762.135 575.5C761.402 574.567 760.435 573.8 759.235 573.2C758.102 572.6 756.668 572.3 754.935 572.3C753.268 572.3 751.835 572.6 750.635 573.2C749.435 573.733 748.435 574.467 747.635 575.4C746.835 576.333 746.202 577.433 745.735 578.7C745.335 579.9 745.035 581.133 744.835 582.4H764.535ZM787.934 587.7C787.934 583.9 788.534 580.333 789.734 577C791 573.6 792.8 570.667 795.134 568.2C797.467 565.667 800.3 563.667 803.634 562.2C806.967 560.733 810.767 560 815.034 560C817.834 560 820.4 560.267 822.734 560.8C825.067 561.267 827.334 561.967 829.534 562.9L826.434 574.8C825.034 574.267 823.5 573.8 821.834 573.4C820.167 573 818.3 572.8 816.234 572.8C811.834 572.8 808.534 574.167 806.334 576.9C804.2 579.633 803.134 583.233 803.134 587.7C803.134 592.433 804.134 596.1 806.134 598.7C808.2 601.3 811.767 602.6 816.834 602.6C818.634 602.6 820.567 602.433 822.634 602.1C824.7 601.767 826.6 601.233 828.334 600.5L830.434 612.7C828.7 613.433 826.534 614.067 823.934 614.6C821.334 615.133 818.467 615.4 815.334 615.4C810.534 615.4 806.4 614.7 802.934 613.3C799.467 611.833 796.6 609.867 794.334 607.4C792.134 604.933 790.5 602.033 789.434 598.7C788.434 595.3 787.934 591.633 787.934 587.7ZM840.434 563.2C842.967 562.467 846.234 561.8 850.234 561.2C854.234 560.533 858.434 560.2 862.834 560.2C867.3 560.2 871 560.8 873.934 562C876.934 563.133 879.3 564.767 881.034 566.9C882.767 569.033 884 571.567 884.734 574.5C885.467 577.433 885.834 580.7 885.834 584.3V614H870.934V586.1C870.934 581.3 870.3 577.9 869.034 575.9C867.767 573.9 865.4 572.9 861.934 572.9C860.867 572.9 859.734 572.967 858.534 573.1C857.334 573.167 856.267 573.267 855.334 573.4V614H840.434V563.2ZM948.52 587.6C948.52 591.733 947.92 595.533 946.72 599C945.52 602.4 943.787 605.333 941.52 607.8C939.254 610.2 936.52 612.067 933.32 613.4C930.187 614.733 926.654 615.4 922.72 615.4C918.854 615.4 915.32 614.733 912.12 613.4C908.987 612.067 906.287 610.2 904.02 607.8C901.754 605.333 899.987 602.4 898.72 599C897.454 595.533 896.82 591.733 896.82 587.6C896.82 583.467 897.454 579.7 898.72 576.3C900.054 572.9 901.854 570 904.12 567.6C906.454 565.2 909.187 563.333 912.32 562C915.52 560.667 918.987 560 922.72 560C926.52 560 929.987 560.667 933.12 562C936.32 563.333 939.054 565.2 941.32 567.6C943.587 570 945.354 572.9 946.62 576.3C947.887 579.7 948.52 583.467 948.52 587.6ZM933.32 587.6C933.32 583 932.387 579.4 930.52 576.8C928.72 574.133 926.12 572.8 922.72 572.8C919.32 572.8 916.687 574.133 914.82 576.8C912.954 579.4 912.02 583 912.02 587.6C912.02 592.2 912.954 595.867 914.82 598.6C916.687 601.267 919.32 602.6 922.72 602.6C926.12 602.6 928.72 601.267 930.52 598.6C932.387 595.867 933.32 592.2 933.32 587.6ZM981.063 615C976.729 614.933 973.196 614.467 970.463 613.6C967.796 612.733 965.663 611.533 964.063 610C962.529 608.4 961.463 606.5 960.863 604.3C960.329 602.033 960.063 599.5 960.063 596.7V538.8L974.963 536.4V593.7C974.963 595.033 975.063 596.233 975.263 597.3C975.463 598.367 975.829 599.267 976.363 600C976.963 600.733 977.796 601.333 978.863 601.8C979.929 602.267 981.363 602.567 983.163 602.7L981.063 615ZM1040.9 587.6C1040.9 591.733 1040.3 595.533 1039.1 599C1037.9 602.4 1036.17 605.333 1033.9 607.8C1031.64 610.2 1028.9 612.067 1025.7 613.4C1022.57 614.733 1019.04 615.4 1015.1 615.4C1011.24 615.4 1007.7 614.733 1004.5 613.4C1001.37 612.067 998.67 610.2 996.403 607.8C994.136 605.333 992.37 602.4 991.103 599C989.836 595.533 989.203 591.733 989.203 587.6C989.203 583.467 989.836 579.7 991.103 576.3C992.436 572.9 994.236 570 996.503 567.6C998.836 565.2 1001.57 563.333 1004.7 562C1007.9 560.667 1011.37 560 1015.1 560C1018.9 560 1022.37 560.667 1025.5 562C1028.7 563.333 1031.44 565.2 1033.7 567.6C1035.97 570 1037.74 572.9 1039 576.3C1040.27 579.7 1040.9 583.467 1040.9 587.6ZM1025.7 587.6C1025.7 583 1024.77 579.4 1022.9 576.8C1021.1 574.133 1018.5 572.8 1015.1 572.8C1011.7 572.8 1009.07 574.133 1007.2 576.8C1005.34 579.4 1004.4 583 1004.4 587.6C1004.4 592.2 1005.34 595.867 1007.2 598.6C1009.07 601.267 1011.7 602.6 1015.1 602.6C1018.5 602.6 1021.1 601.267 1022.9 598.6C1024.77 595.867 1025.7 592.2 1025.7 587.6ZM1065.15 586C1065.15 594.333 1068.51 598.5 1075.25 598.5C1076.78 598.5 1078.21 598.3 1079.55 597.9C1080.88 597.5 1082.01 597.033 1082.95 596.5V572.7C1082.21 572.567 1081.35 572.467 1080.35 572.4C1079.35 572.267 1078.18 572.2 1076.85 572.2C1072.91 572.2 1069.98 573.5 1068.05 576.1C1066.11 578.7 1065.15 582 1065.15 586ZM1097.85 607.4C1097.85 616 1095.65 622.367 1091.25 626.5C1086.91 630.7 1080.18 632.8 1071.05 632.8C1067.85 632.8 1064.65 632.5 1061.45 631.9C1058.25 631.367 1055.28 630.633 1052.55 629.7L1055.15 617.2C1057.48 618.133 1059.91 618.867 1062.45 619.4C1065.05 619.933 1067.98 620.2 1071.25 620.2C1075.51 620.2 1078.51 619.267 1080.25 617.4C1082.05 615.533 1082.95 613.133 1082.95 610.2V608.3C1081.35 609.033 1079.68 609.6 1077.95 610C1076.28 610.333 1074.45 610.5 1072.45 610.5C1065.18 610.5 1059.61 608.367 1055.75 604.1C1051.88 599.767 1049.95 593.733 1049.95 586C1049.95 582.133 1050.55 578.633 1051.75 575.5C1052.95 572.3 1054.68 569.567 1056.95 567.3C1059.28 565.033 1062.11 563.3 1065.45 562.1C1068.78 560.833 1072.55 560.2 1076.75 560.2C1078.55 560.2 1080.38 560.3 1082.25 560.5C1084.18 560.633 1086.08 560.833 1087.95 561.1C1089.81 561.367 1091.58 561.7 1093.25 562.1C1094.98 562.433 1096.51 562.8 1097.85 563.2V607.4ZM1126.72 614H1111.82V561.4H1126.72V614ZM1128.12 546.2C1128.12 548.933 1127.22 551.1 1125.42 552.7C1123.69 554.233 1121.62 555 1119.22 555C1116.82 555 1114.72 554.233 1112.92 552.7C1111.19 551.1 1110.32 548.933 1110.32 546.2C1110.32 543.467 1111.19 541.333 1112.92 539.8C1114.72 538.2 1116.82 537.4 1119.22 537.4C1121.62 537.4 1123.69 538.2 1125.42 539.8C1127.22 541.333 1128.12 543.467 1128.12 546.2ZM1160.83 603.6C1162.29 603.6 1163.69 603.567 1165.03 603.5C1166.36 603.433 1167.43 603.333 1168.23 603.2V591.9C1167.63 591.767 1166.73 591.633 1165.53 591.5C1164.33 591.367 1163.23 591.3 1162.23 591.3C1160.83 591.3 1159.49 591.4 1158.23 591.6C1157.03 591.733 1155.96 592.033 1155.03 592.5C1154.09 592.967 1153.36 593.6 1152.83 594.4C1152.29 595.2 1152.03 596.2 1152.03 597.4C1152.03 599.733 1152.79 601.367 1154.33 602.3C1155.93 603.167 1158.09 603.6 1160.83 603.6ZM1159.63 560C1164.03 560 1167.69 560.5 1170.63 561.5C1173.56 562.5 1175.89 563.933 1177.63 565.8C1179.43 567.667 1180.69 569.933 1181.43 572.6C1182.16 575.267 1182.53 578.233 1182.53 581.5V612.5C1180.39 612.967 1177.43 613.5 1173.63 614.1C1169.83 614.767 1165.23 615.1 1159.83 615.1C1156.43 615.1 1153.33 614.8 1150.53 614.2C1147.79 613.6 1145.43 612.633 1143.43 611.3C1141.43 609.9 1139.89 608.1 1138.83 605.9C1137.76 603.7 1137.23 601 1137.23 597.8C1137.23 594.733 1137.83 592.133 1139.03 590C1140.29 587.867 1141.96 586.167 1144.03 584.9C1146.09 583.633 1148.46 582.733 1151.13 582.2C1153.79 581.6 1156.56 581.3 1159.43 581.3C1161.36 581.3 1163.06 581.4 1164.53 581.6C1166.06 581.733 1167.29 581.933 1168.23 582.2V580.8C1168.23 578.267 1167.46 576.233 1165.93 574.7C1164.39 573.167 1161.73 572.4 1157.93 572.4C1155.39 572.4 1152.89 572.6 1150.43 573C1147.96 573.333 1145.83 573.833 1144.03 574.5L1142.13 562.5C1142.99 562.233 1144.06 561.967 1145.33 561.7C1146.66 561.367 1148.09 561.1 1149.63 560.9C1151.16 560.633 1152.76 560.433 1154.43 560.3C1156.16 560.1 1157.89 560 1159.63 560ZM495.253 703.64C495.253 701.773 495.533 700.147 496.093 698.76C496.68 697.347 497.44 696.173 498.373 695.24C499.306 694.307 500.373 693.6 501.573 693.12C502.8 692.64 504.053 692.4 505.333 692.4C508.32 692.4 510.68 693.32 512.413 695.16C514.146 696.973 515.013 699.653 515.013 703.2C515.013 703.547 515 703.933 514.973 704.36C514.946 704.76 514.92 705.12 514.893 705.44H501.373C501.506 706.667 502.08 707.64 503.093 708.36C504.106 709.08 505.466 709.44 507.173 709.44C508.266 709.44 509.333 709.347 510.373 709.16C511.44 708.947 512.306 708.693 512.973 708.4L513.773 713.24C513.453 713.4 513.026 713.56 512.493 713.72C511.96 713.88 511.36 714.013 510.693 714.12C510.053 714.253 509.36 714.36 508.613 714.44C507.866 714.52 507.12 714.56 506.373 714.56C504.48 714.56 502.826 714.28 501.413 713.72C500.026 713.16 498.866 712.4 497.933 711.44C497.026 710.453 496.346 709.293 495.893 707.96C495.466 706.627 495.253 705.187 495.253 703.64ZM509.253 701.36C509.226 700.853 509.133 700.36 508.973 699.88C508.84 699.4 508.613 698.973 508.293 698.6C508 698.227 507.613 697.92 507.133 697.68C506.68 697.44 506.106 697.32 505.413 697.32C504.746 697.32 504.173 697.44 503.693 697.68C503.213 697.893 502.813 698.187 502.493 698.56C502.173 698.933 501.92 699.373 501.733 699.88C501.573 700.36 501.453 700.853 501.373 701.36H509.253ZM547.182 713.28C546.169 713.573 544.862 713.84 543.262 714.08C541.662 714.347 539.982 714.48 538.222 714.48C536.435 714.48 534.942 714.24 533.742 713.76C532.569 713.28 531.635 712.613 530.942 711.76C530.249 710.88 529.755 709.84 529.462 708.64C529.169 707.44 529.022 706.12 529.022 704.68V692.96H534.982V703.96C534.982 705.88 535.235 707.267 535.742 708.12C536.249 708.973 537.195 709.4 538.582 709.4C539.009 709.4 539.462 709.387 539.942 709.36C540.422 709.307 540.849 709.253 541.222 709.2V692.96H547.182V713.28ZM564.337 702.84C564.337 700.92 564.083 699.56 563.577 698.76C563.097 697.96 562.257 697.56 561.057 697.56C560.683 697.56 560.297 697.587 559.897 697.64C559.497 697.667 559.11 697.707 558.737 697.76V714H552.777V693.68C553.283 693.547 553.87 693.413 554.537 693.28C555.23 693.12 555.95 692.987 556.697 692.88C557.47 692.747 558.257 692.653 559.057 692.6C559.857 692.52 560.643 692.48 561.417 692.48C562.937 692.48 564.163 692.68 565.097 693.08C566.057 693.453 566.843 693.907 567.457 694.44C568.31 693.827 569.283 693.347 570.377 693C571.497 692.653 572.523 692.48 573.457 692.48C575.137 692.48 576.51 692.72 577.577 693.2C578.67 693.653 579.537 694.307 580.177 695.16C580.817 696.013 581.257 697.027 581.497 698.2C581.737 699.373 581.857 700.68 581.857 702.12V714H575.897V702.84C575.897 700.92 575.643 699.56 575.137 698.76C574.657 697.96 573.817 697.56 572.617 697.56C572.297 697.56 571.843 697.64 571.257 697.8C570.697 697.96 570.23 698.16 569.857 698.4C570.043 699.013 570.163 699.667 570.217 700.36C570.27 701.027 570.297 701.747 570.297 702.52V714H564.337V702.84ZM595.309 709.84C595.895 709.84 596.455 709.827 596.989 709.8C597.522 709.773 597.949 709.733 598.269 709.68V705.16C598.029 705.107 597.669 705.053 597.189 705C596.709 704.947 596.269 704.92 595.869 704.92C595.309 704.92 594.775 704.96 594.269 705.04C593.789 705.093 593.362 705.213 592.989 705.4C592.615 705.587 592.322 705.84 592.109 706.16C591.895 706.48 591.789 706.88 591.789 707.36C591.789 708.293 592.095 708.947 592.709 709.32C593.349 709.667 594.215 709.84 595.309 709.84ZM594.829 692.4C596.589 692.4 598.055 692.6 599.229 693C600.402 693.4 601.335 693.973 602.029 694.72C602.749 695.467 603.255 696.373 603.549 697.44C603.842 698.507 603.989 699.693 603.989 701V713.4C603.135 713.587 601.949 713.8 600.429 714.04C598.909 714.307 597.069 714.44 594.909 714.44C593.549 714.44 592.309 714.32 591.189 714.08C590.095 713.84 589.149 713.453 588.349 712.92C587.549 712.36 586.935 711.64 586.509 710.76C586.082 709.88 585.869 708.8 585.869 707.52C585.869 706.293 586.109 705.253 586.589 704.4C587.095 703.547 587.762 702.867 588.589 702.36C589.415 701.853 590.362 701.493 591.429 701.28C592.495 701.04 593.602 700.92 594.749 700.92C595.522 700.92 596.202 700.96 596.789 701.04C597.402 701.093 597.895 701.173 598.269 701.28V700.72C598.269 699.707 597.962 698.893 597.349 698.28C596.735 697.667 595.669 697.36 594.149 697.36C593.135 697.36 592.135 697.44 591.149 697.6C590.162 697.733 589.309 697.933 588.589 698.2L587.829 693.4C588.175 693.293 588.602 693.187 589.109 693.08C589.642 692.947 590.215 692.84 590.829 692.76C591.442 692.653 592.082 692.573 592.749 692.52C593.442 692.44 594.135 692.4 594.829 692.4ZM627.028 709.84C627.614 709.84 628.174 709.827 628.708 709.8C629.241 709.773 629.668 709.733 629.988 709.68V705.16C629.748 705.107 629.388 705.053 628.908 705C628.428 704.947 627.988 704.92 627.588 704.92C627.028 704.92 626.494 704.96 625.988 705.04C625.508 705.093 625.081 705.213 624.708 705.4C624.334 705.587 624.041 705.84 623.828 706.16C623.614 706.48 623.508 706.88 623.508 707.36C623.508 708.293 623.814 708.947 624.428 709.32C625.068 709.667 625.934 709.84 627.028 709.84ZM626.548 692.4C628.308 692.4 629.774 692.6 630.948 693C632.121 693.4 633.054 693.973 633.748 694.72C634.468 695.467 634.974 696.373 635.268 697.44C635.561 698.507 635.708 699.693 635.708 701V713.4C634.854 713.587 633.668 713.8 632.148 714.04C630.628 714.307 628.788 714.44 626.628 714.44C625.268 714.44 624.028 714.32 622.908 714.08C621.814 713.84 620.868 713.453 620.068 712.92C619.268 712.36 618.654 711.64 618.228 710.76C617.801 709.88 617.588 708.8 617.588 707.52C617.588 706.293 617.828 705.253 618.308 704.4C618.814 703.547 619.481 702.867 620.308 702.36C621.134 701.853 622.081 701.493 623.148 701.28C624.214 701.04 625.321 700.92 626.467 700.92C627.241 700.92 627.921 700.96 628.508 701.04C629.121 701.093 629.614 701.173 629.988 701.28V700.72C629.988 699.707 629.681 698.893 629.068 698.28C628.454 697.667 627.388 697.36 625.868 697.36C624.854 697.36 623.854 697.44 622.868 697.6C621.881 697.733 621.028 697.933 620.308 698.2L619.548 693.4C619.894 693.293 620.321 693.187 620.828 693.08C621.361 692.947 621.934 692.84 622.548 692.76C623.161 692.653 623.801 692.573 624.468 692.52C625.161 692.44 625.854 692.4 626.548 692.4ZM654.577 703.32C654.577 699.48 653.164 697.56 650.337 697.56C649.724 697.56 649.11 697.64 648.497 697.8C647.91 697.96 647.43 698.16 647.057 698.4V709.24C647.35 709.293 647.724 709.347 648.177 709.4C648.63 709.427 649.124 709.44 649.657 709.44C651.284 709.44 652.51 708.88 653.337 707.76C654.164 706.64 654.577 705.16 654.577 703.32ZM660.657 703.48C660.657 705.16 660.404 706.68 659.897 708.04C659.417 709.4 658.71 710.56 657.777 711.52C656.844 712.48 655.697 713.227 654.337 713.76C652.977 714.267 651.43 714.52 649.697 714.52C648.977 714.52 648.217 714.48 647.417 714.4C646.644 714.347 645.87 714.267 645.097 714.16C644.35 714.053 643.63 713.933 642.937 713.8C642.244 713.64 641.63 713.48 641.097 713.32V683.92L647.057 682.96V693.44C647.724 693.147 648.417 692.92 649.137 692.76C649.857 692.6 650.63 692.52 651.457 692.52C652.95 692.52 654.27 692.787 655.417 693.32C656.564 693.827 657.524 694.56 658.297 695.52C659.07 696.48 659.657 697.64 660.057 699C660.457 700.333 660.657 701.827 660.657 703.48ZM684.918 703.44C684.918 705.093 684.678 706.613 684.198 708C683.718 709.36 683.024 710.533 682.118 711.52C681.211 712.48 680.118 713.227 678.838 713.76C677.584 714.293 676.171 714.56 674.598 714.56C673.051 714.56 671.638 714.293 670.358 713.76C669.104 713.227 668.024 712.48 667.118 711.52C666.211 710.533 665.504 709.36 664.998 708C664.491 706.613 664.238 705.093 664.238 703.44C664.238 701.787 664.491 700.28 664.998 698.92C665.531 697.56 666.251 696.4 667.158 695.44C668.091 694.48 669.184 693.733 670.438 693.2C671.718 692.667 673.104 692.4 674.598 692.4C676.118 692.4 677.504 692.667 678.758 693.2C680.038 693.733 681.131 694.48 682.038 695.44C682.944 696.4 683.651 697.56 684.158 698.92C684.664 700.28 684.918 701.787 684.918 703.44ZM678.838 703.44C678.838 701.6 678.464 700.16 677.718 699.12C676.998 698.053 675.958 697.52 674.598 697.52C673.238 697.52 672.184 698.053 671.438 699.12C670.691 700.16 670.318 701.6 670.318 703.44C670.318 705.28 670.691 706.747 671.438 707.84C672.184 708.907 673.238 709.44 674.598 709.44C675.958 709.44 676.998 708.907 677.718 707.84C678.464 706.747 678.838 705.28 678.838 703.44ZM702.214 698.24C701.681 698.107 701.054 697.973 700.334 697.84C699.614 697.68 698.841 697.6 698.014 697.6C697.641 697.6 697.188 697.64 696.654 697.72C696.148 697.773 695.761 697.84 695.494 697.92V714H689.534V694.08C690.601 693.707 691.854 693.36 693.294 693.04C694.761 692.693 696.388 692.52 698.174 692.52C698.494 692.52 698.881 692.547 699.334 692.6C699.788 692.627 700.241 692.68 700.694 692.76C701.148 692.813 701.601 692.893 702.054 693C702.508 693.08 702.894 693.187 703.214 693.32L702.214 698.24ZM711.099 703.32C711.099 705.16 711.512 706.64 712.339 707.76C713.165 708.88 714.392 709.44 716.019 709.44C716.552 709.44 717.045 709.427 717.499 709.4C717.952 709.347 718.325 709.293 718.619 709.24V698.4C718.245 698.16 717.752 697.96 717.139 697.8C716.552 697.64 715.952 697.56 715.339 697.56C712.512 697.56 711.099 699.48 711.099 703.32ZM724.579 713.32C724.045 713.48 723.432 713.64 722.739 713.8C722.045 713.933 721.312 714.053 720.539 714.16C719.792 714.267 719.019 714.347 718.219 714.4C717.445 714.48 716.699 714.52 715.979 714.52C714.245 714.52 712.699 714.267 711.339 713.76C709.979 713.253 708.832 712.533 707.899 711.6C706.965 710.64 706.245 709.493 705.739 708.16C705.259 706.8 705.019 705.28 705.019 703.6C705.019 701.893 705.232 700.36 705.659 699C706.085 697.613 706.699 696.44 707.499 695.48C708.299 694.52 709.272 693.787 710.419 693.28C711.592 692.773 712.925 692.52 714.419 692.52C715.245 692.52 715.979 692.6 716.619 692.76C717.285 692.92 717.952 693.147 718.619 693.44V683.92L724.579 682.96V713.32ZM738.199 709.84C738.786 709.84 739.346 709.827 739.879 709.8C740.413 709.773 740.839 709.733 741.159 709.68V705.16C740.919 705.107 740.559 705.053 740.079 705C739.599 704.947 739.159 704.92 738.759 704.92C738.199 704.92 737.666 704.96 737.159 705.04C736.679 705.093 736.253 705.213 735.879 705.4C735.506 705.587 735.213 705.84 734.999 706.16C734.786 706.48 734.679 706.88 734.679 707.36C734.679 708.293 734.986 708.947 735.599 709.32C736.239 709.667 737.106 709.84 738.199 709.84ZM737.719 692.4C739.479 692.4 740.946 692.6 742.119 693C743.293 693.4 744.226 693.973 744.919 694.72C745.639 695.467 746.146 696.373 746.439 697.44C746.733 698.507 746.879 699.693 746.879 701V713.4C746.026 713.587 744.839 713.8 743.319 714.04C741.799 714.307 739.959 714.44 737.799 714.44C736.439 714.44 735.199 714.32 734.079 714.08C732.986 713.84 732.039 713.453 731.239 712.92C730.439 712.36 729.826 711.64 729.399 710.76C728.973 709.88 728.759 708.8 728.759 707.52C728.759 706.293 728.999 705.253 729.479 704.4C729.986 703.547 730.653 702.867 731.479 702.36C732.306 701.853 733.253 701.493 734.319 701.28C735.386 701.04 736.493 700.92 737.639 700.92C738.413 700.92 739.093 700.96 739.679 701.04C740.293 701.093 740.786 701.173 741.159 701.28V700.72C741.159 699.707 740.853 698.893 740.239 698.28C739.626 697.667 738.559 697.36 737.039 697.36C736.026 697.36 735.026 697.44 734.039 697.6C733.053 697.733 732.199 697.933 731.479 698.2L730.719 693.4C731.066 693.293 731.493 693.187 731.999 693.08C732.533 692.947 733.106 692.84 733.719 692.76C734.333 692.653 734.973 692.573 735.639 692.52C736.333 692.44 737.026 692.4 737.719 692.4ZM757.349 702.8C757.349 706.133 758.695 707.8 761.389 707.8C762.002 707.8 762.575 707.72 763.109 707.56C763.642 707.4 764.095 707.213 764.469 707V697.48C764.175 697.427 763.829 697.387 763.429 697.36C763.029 697.307 762.562 697.28 762.029 697.28C760.455 697.28 759.282 697.8 758.509 698.84C757.735 699.88 757.349 701.2 757.349 702.8ZM770.429 711.36C770.429 714.8 769.549 717.347 767.789 719C766.055 720.68 763.362 721.52 759.709 721.52C758.429 721.52 757.149 721.4 755.869 721.16C754.589 720.947 753.402 720.653 752.309 720.28L753.349 715.28C754.282 715.653 755.255 715.947 756.269 716.16C757.309 716.373 758.482 716.48 759.789 716.48C761.495 716.48 762.695 716.107 763.389 715.36C764.109 714.613 764.469 713.653 764.469 712.48V711.72C763.829 712.013 763.162 712.24 762.469 712.4C761.802 712.533 761.069 712.6 760.269 712.6C757.362 712.6 755.135 711.747 753.589 710.04C752.042 708.307 751.269 705.893 751.269 702.8C751.269 701.253 751.509 699.853 751.989 698.6C752.469 697.32 753.162 696.227 754.069 695.32C755.002 694.413 756.135 693.72 757.469 693.24C758.802 692.733 760.309 692.48 761.989 692.48C762.709 692.48 763.442 692.52 764.189 692.6C764.962 692.653 765.722 692.733 766.469 692.84C767.215 692.947 767.922 693.08 768.589 693.24C769.282 693.373 769.895 693.52 770.429 693.68V711.36ZM775.019 703.64C775.019 701.773 775.299 700.147 775.859 698.76C776.445 697.347 777.205 696.173 778.139 695.24C779.072 694.307 780.139 693.6 781.339 693.12C782.565 692.64 783.819 692.4 785.099 692.4C788.085 692.4 790.445 693.32 792.179 695.16C793.912 696.973 794.779 699.653 794.779 703.2C794.779 703.547 794.765 703.933 794.739 704.36C794.712 704.76 794.685 705.12 794.659 705.44H781.139C781.272 706.667 781.845 707.64 782.859 708.36C783.872 709.08 785.232 709.44 786.939 709.44C788.032 709.44 789.099 709.347 790.139 709.16C791.205 708.947 792.072 708.693 792.739 708.4L793.539 713.24C793.219 713.4 792.792 713.56 792.259 713.72C791.725 713.88 791.125 714.013 790.459 714.12C789.819 714.253 789.125 714.36 788.379 714.44C787.632 714.52 786.885 714.56 786.139 714.56C784.245 714.56 782.592 714.28 781.179 713.72C779.792 713.16 778.632 712.4 777.699 711.44C776.792 710.453 776.112 709.293 775.659 707.96C775.232 706.627 775.019 705.187 775.019 703.64ZM789.019 701.36C788.992 700.853 788.899 700.36 788.739 699.88C788.605 699.4 788.379 698.973 788.059 698.6C787.765 698.227 787.379 697.92 786.899 697.68C786.445 697.44 785.872 697.32 785.179 697.32C784.512 697.32 783.939 697.44 783.459 697.68C782.979 697.893 782.579 698.187 782.259 698.56C781.939 698.933 781.685 699.373 781.499 699.88C781.339 700.36 781.219 700.853 781.139 701.36H789.019ZM810.938 702.84C810.938 700.92 810.685 699.56 810.178 698.76C809.698 697.96 808.858 697.56 807.658 697.56C807.285 697.56 806.898 697.587 806.498 697.64C806.098 697.667 805.711 697.707 805.338 697.76V714H799.378V693.68C799.885 693.547 800.471 693.413 801.138 693.28C801.831 693.12 802.551 692.987 803.298 692.88C804.071 692.747 804.858 692.653 805.658 692.6C806.458 692.52 807.245 692.48 808.018 692.48C809.538 692.48 810.765 692.68 811.698 693.08C812.658 693.453 813.445 693.907 814.058 694.44C814.911 693.827 815.885 693.347 816.978 693C818.098 692.653 819.125 692.48 820.058 692.48C821.738 692.48 823.111 692.72 824.178 693.2C825.271 693.653 826.138 694.307 826.778 695.16C827.418 696.013 827.858 697.027 828.098 698.2C828.338 699.373 828.458 700.68 828.458 702.12V714H822.498V702.84C822.498 700.92 822.245 699.56 821.738 698.76C821.258 697.96 820.418 697.56 819.218 697.56C818.898 697.56 818.445 697.64 817.858 697.8C817.298 697.96 816.831 698.16 816.458 698.4C816.645 699.013 816.765 699.667 816.818 700.36C816.871 701.027 816.898 701.747 816.898 702.52V714H810.938V702.84ZM842.48 703.48C842.48 701.96 842.72 700.533 843.2 699.2C843.706 697.84 844.426 696.667 845.36 695.68C846.293 694.667 847.426 693.867 848.76 693.28C850.093 692.693 851.613 692.4 853.32 692.4C854.44 692.4 855.466 692.507 856.4 692.72C857.333 692.907 858.24 693.187 859.12 693.56L857.88 698.32C857.32 698.107 856.706 697.92 856.04 697.76C855.373 697.6 854.626 697.52 853.8 697.52C852.04 697.52 850.72 698.067 849.84 699.16C848.986 700.253 848.56 701.693 848.56 703.48C848.56 705.373 848.96 706.84 849.76 707.88C850.586 708.92 852.013 709.44 854.04 709.44C854.76 709.44 855.533 709.373 856.36 709.24C857.186 709.107 857.946 708.893 858.64 708.6L859.48 713.48C858.786 713.773 857.92 714.027 856.88 714.24C855.84 714.453 854.693 714.56 853.44 714.56C851.52 714.56 849.866 714.28 848.48 713.72C847.093 713.133 845.946 712.347 845.04 711.36C844.16 710.373 843.506 709.213 843.08 707.88C842.68 706.52 842.48 705.053 842.48 703.48ZM876.16 698.24C875.626 698.107 875 697.973 874.28 697.84C873.56 697.68 872.786 697.6 871.96 697.6C871.586 697.6 871.133 697.64 870.6 697.72C870.093 697.773 869.706 697.84 869.44 697.92V714H863.48V694.08C864.546 693.707 865.8 693.36 867.24 693.04C868.706 692.693 870.333 692.52 872.12 692.52C872.44 692.52 872.826 692.547 873.28 692.6C873.733 692.627 874.186 692.68 874.64 692.76C875.093 692.813 875.546 692.893 876 693C876.453 693.08 876.84 693.187 877.16 693.32L876.16 698.24ZM886.315 714H880.355V692.96H886.315V714ZM888.515 685.4L881.915 690.96L879.195 688.52L884.875 682.04L888.515 685.4ZM891.717 687.72L897.677 686.76V692.96H904.837V697.92H897.677V705.32C897.677 706.573 897.891 707.573 898.317 708.32C898.771 709.067 899.664 709.44 900.997 709.44C901.637 709.44 902.291 709.387 902.957 709.28C903.651 709.147 904.277 708.973 904.837 708.76L905.677 713.4C904.957 713.693 904.157 713.947 903.277 714.16C902.397 714.373 901.317 714.48 900.037 714.48C898.411 714.48 897.064 714.267 895.997 713.84C894.931 713.387 894.077 712.773 893.437 712C892.797 711.2 892.344 710.24 892.077 709.12C891.837 708 891.717 706.76 891.717 705.4V687.72ZM915.651 714H909.691V692.96H915.651V714ZM916.211 686.88C916.211 687.973 915.851 688.84 915.131 689.48C914.437 690.093 913.611 690.4 912.651 690.4C911.691 690.4 910.851 690.093 910.131 689.48C909.437 688.84 909.091 687.973 909.091 686.88C909.091 685.787 909.437 684.933 910.131 684.32C910.851 683.68 911.691 683.36 912.651 683.36C913.611 683.36 914.437 683.68 915.131 684.32C915.851 684.933 916.211 685.787 916.211 686.88ZM920.253 703.48C920.253 701.96 920.493 700.533 920.973 699.2C921.48 697.84 922.2 696.667 923.133 695.68C924.066 694.667 925.2 693.867 926.533 693.28C927.866 692.693 929.386 692.4 931.093 692.4C932.213 692.4 933.24 692.507 934.173 692.72C935.106 692.907 936.013 693.187 936.893 693.56L935.653 698.32C935.093 698.107 934.48 697.92 933.813 697.76C933.146 697.6 932.4 697.52 931.573 697.52C929.813 697.52 928.493 698.067 927.613 699.16C926.76 700.253 926.333 701.693 926.333 703.48C926.333 705.373 926.733 706.84 927.533 707.88C928.36 708.92 929.786 709.44 931.813 709.44C932.533 709.44 933.306 709.373 934.133 709.24C934.96 709.107 935.72 708.893 936.413 708.6L937.253 713.48C936.56 713.773 935.693 714.027 934.653 714.24C933.613 714.453 932.466 714.56 931.213 714.56C929.293 714.56 927.64 714.28 926.253 713.72C924.866 713.133 923.72 712.347 922.813 711.36C921.933 710.373 921.28 709.213 920.853 707.88C920.453 706.52 920.253 705.053 920.253 703.48ZM948.278 709.84C948.864 709.84 949.424 709.827 949.958 709.8C950.491 709.773 950.918 709.733 951.238 709.68V705.16C950.998 705.107 950.638 705.053 950.158 705C949.678 704.947 949.238 704.92 948.838 704.92C948.278 704.92 947.744 704.96 947.238 705.04C946.758 705.093 946.331 705.213 945.958 705.4C945.584 705.587 945.291 705.84 945.078 706.16C944.864 706.48 944.758 706.88 944.758 707.36C944.758 708.293 945.064 708.947 945.678 709.32C946.318 709.667 947.184 709.84 948.278 709.84ZM947.798 692.4C949.558 692.4 951.024 692.6 952.198 693C953.371 693.4 954.304 693.973 954.998 694.72C955.718 695.467 956.224 696.373 956.518 697.44C956.811 698.507 956.958 699.693 956.958 701V713.4C956.104 713.587 954.918 713.8 953.398 714.04C951.878 714.307 950.038 714.44 947.878 714.44C946.518 714.44 945.278 714.32 944.158 714.08C943.064 713.84 942.118 713.453 941.318 712.92C940.518 712.36 939.904 711.64 939.478 710.76C939.051 709.88 938.838 708.8 938.838 707.52C938.838 706.293 939.078 705.253 939.558 704.4C940.064 703.547 940.731 702.867 941.558 702.36C942.384 701.853 943.331 701.493 944.398 701.28C945.464 701.04 946.571 700.92 947.717 700.92C948.491 700.92 949.171 700.96 949.758 701.04C950.371 701.093 950.864 701.173 951.238 701.28V700.72C951.238 699.707 950.931 698.893 950.318 698.28C949.704 697.667 948.638 697.36 947.118 697.36C946.104 697.36 945.104 697.44 944.118 697.6C943.131 697.733 942.278 697.933 941.558 698.2L940.798 693.4C941.144 693.293 941.571 693.187 942.078 693.08C942.611 692.947 943.184 692.84 943.798 692.76C944.411 692.653 945.051 692.573 945.718 692.52C946.411 692.44 947.104 692.4 947.798 692.4ZM985.436 703.64C985.436 701.8 985.023 700.333 984.196 699.24C983.37 698.12 982.143 697.56 980.516 697.56C979.983 697.56 979.49 697.587 979.036 697.64C978.583 697.667 978.21 697.707 977.916 697.76V708.52C978.29 708.76 978.77 708.96 979.356 709.12C979.97 709.28 980.583 709.36 981.196 709.36C984.023 709.36 985.436 707.453 985.436 703.64ZM991.516 703.48C991.516 705.107 991.316 706.587 990.916 707.92C990.516 709.253 989.93 710.4 989.156 711.36C988.383 712.32 987.423 713.067 986.276 713.6C985.13 714.133 983.81 714.4 982.316 714.4C981.49 714.4 980.716 714.32 979.996 714.16C979.276 714 978.583 713.773 977.916 713.48V721.4H971.956V693.68C972.49 693.52 973.103 693.373 973.796 693.24C974.49 693.08 975.21 692.947 975.956 692.84C976.73 692.733 977.503 692.653 978.276 692.6C979.076 692.52 979.836 692.48 980.556 692.48C982.29 692.48 983.836 692.747 985.196 693.28C986.556 693.787 987.703 694.52 988.636 695.48C989.57 696.413 990.276 697.56 990.756 698.92C991.263 700.28 991.516 701.8 991.516 703.48ZM995.097 703.64C995.097 701.773 995.377 700.147 995.937 698.76C996.524 697.347 997.284 696.173 998.217 695.24C999.15 694.307 1000.22 693.6 1001.42 693.12C1002.64 692.64 1003.9 692.4 1005.18 692.4C1008.16 692.4 1010.52 693.32 1012.26 695.16C1013.99 696.973 1014.86 699.653 1014.86 703.2C1014.86 703.547 1014.84 703.933 1014.82 704.36C1014.79 704.76 1014.76 705.12 1014.74 705.44H1001.22C1001.35 706.667 1001.92 707.64 1002.94 708.36C1003.95 709.08 1005.31 709.44 1007.02 709.44C1008.11 709.44 1009.18 709.347 1010.22 709.16C1011.28 708.947 1012.15 708.693 1012.82 708.4L1013.62 713.24C1013.3 713.4 1012.87 713.56 1012.34 713.72C1011.8 713.88 1011.2 714.013 1010.54 714.12C1009.9 714.253 1009.2 714.36 1008.46 714.44C1007.71 714.52 1006.96 714.56 1006.22 714.56C1004.32 714.56 1002.67 714.28 1001.26 713.72C999.87 713.16 998.71 712.4 997.777 711.44C996.87 710.453 996.19 709.293 995.737 707.96C995.31 706.627 995.097 705.187 995.097 703.64ZM1009.1 701.36C1009.07 700.853 1008.98 700.36 1008.82 699.88C1008.68 699.4 1008.46 698.973 1008.14 698.6C1007.84 698.227 1007.46 697.92 1006.98 697.68C1006.52 697.44 1005.95 697.32 1005.26 697.32C1004.59 697.32 1004.02 697.44 1003.54 697.68C1003.06 697.893 1002.66 698.187 1002.34 698.56C1002.02 698.933 1001.76 699.373 1001.58 699.88C1001.42 700.36 1001.3 700.853 1001.22 701.36H1009.1ZM1027.86 714.4C1026.12 714.373 1024.71 714.187 1023.62 713.84C1022.55 713.493 1021.7 713.013 1021.06 712.4C1020.44 711.76 1020.02 711 1019.78 710.12C1019.56 709.213 1019.46 708.2 1019.46 707.08V683.92L1025.42 682.96V705.88C1025.42 706.413 1025.46 706.893 1025.54 707.32C1025.62 707.747 1025.76 708.107 1025.98 708.4C1026.22 708.693 1026.55 708.933 1026.98 709.12C1027.4 709.307 1027.98 709.427 1028.7 709.48L1027.86 714.4ZM1051.79 703.44C1051.79 705.093 1051.55 706.613 1051.07 708C1050.59 709.36 1049.9 710.533 1048.99 711.52C1048.09 712.48 1046.99 713.227 1045.71 713.76C1044.46 714.293 1043.05 714.56 1041.47 714.56C1039.93 714.56 1038.51 714.293 1037.23 713.76C1035.98 713.227 1034.9 712.48 1033.99 711.52C1033.09 710.533 1032.38 709.36 1031.87 708C1031.37 706.613 1031.11 705.093 1031.11 703.44C1031.11 701.787 1031.37 700.28 1031.87 698.92C1032.41 697.56 1033.13 696.4 1034.03 695.44C1034.97 694.48 1036.06 693.733 1037.31 693.2C1038.59 692.667 1039.98 692.4 1041.47 692.4C1042.99 692.4 1044.38 692.667 1045.63 693.2C1046.91 693.733 1048.01 694.48 1048.91 695.44C1049.82 696.4 1050.53 697.56 1051.03 698.92C1051.54 700.28 1051.79 701.787 1051.79 703.44ZM1045.71 703.44C1045.71 701.6 1045.34 700.16 1044.59 699.12C1043.87 698.053 1042.83 697.52 1041.47 697.52C1040.11 697.52 1039.06 698.053 1038.31 699.12C1037.57 700.16 1037.19 701.6 1037.19 703.44C1037.19 705.28 1037.57 706.747 1038.31 707.84C1039.06 708.907 1040.11 709.44 1041.47 709.44C1042.83 709.44 1043.87 708.907 1044.59 707.84C1045.34 706.747 1045.71 705.28 1045.71 703.44ZM1071.1 703.32C1071.1 705.16 1071.51 706.64 1072.34 707.76C1073.17 708.88 1074.39 709.44 1076.02 709.44C1076.55 709.44 1077.05 709.427 1077.5 709.4C1077.95 709.347 1078.33 709.293 1078.62 709.24V698.4C1078.25 698.16 1077.75 697.96 1077.14 697.8C1076.55 697.64 1075.95 697.56 1075.34 697.56C1072.51 697.56 1071.1 699.48 1071.1 703.32ZM1084.58 713.32C1084.05 713.48 1083.43 713.64 1082.74 713.8C1082.05 713.933 1081.31 714.053 1080.54 714.16C1079.79 714.267 1079.02 714.347 1078.22 714.4C1077.45 714.48 1076.7 714.52 1075.98 714.52C1074.25 714.52 1072.7 714.267 1071.34 713.76C1069.98 713.253 1068.83 712.533 1067.9 711.6C1066.97 710.64 1066.25 709.493 1065.74 708.16C1065.26 706.8 1065.02 705.28 1065.02 703.6C1065.02 701.893 1065.23 700.36 1065.66 699C1066.09 697.613 1066.7 696.44 1067.5 695.48C1068.3 694.52 1069.27 693.787 1070.42 693.28C1071.59 692.773 1072.93 692.52 1074.42 692.52C1075.25 692.52 1075.98 692.6 1076.62 692.76C1077.29 692.92 1077.95 693.147 1078.62 693.44V683.92L1084.58 682.96V713.32ZM1089.16 703.64C1089.16 701.773 1089.44 700.147 1090 698.76C1090.59 697.347 1091.35 696.173 1092.28 695.24C1093.21 694.307 1094.28 693.6 1095.48 693.12C1096.71 692.64 1097.96 692.4 1099.24 692.4C1102.23 692.4 1104.59 693.32 1106.32 695.16C1108.05 696.973 1108.92 699.653 1108.92 703.2C1108.92 703.547 1108.91 703.933 1108.88 704.36C1108.85 704.76 1108.83 705.12 1108.8 705.44H1095.28C1095.41 706.667 1095.99 707.64 1097 708.36C1098.01 709.08 1099.37 709.44 1101.08 709.44C1102.17 709.44 1103.24 709.347 1104.28 709.16C1105.35 708.947 1106.21 708.693 1106.88 708.4L1107.68 713.24C1107.36 713.4 1106.93 713.56 1106.4 713.72C1105.87 713.88 1105.27 714.013 1104.6 714.12C1103.96 714.253 1103.27 714.36 1102.52 714.44C1101.77 714.52 1101.03 714.56 1100.28 714.56C1098.39 714.56 1096.73 714.28 1095.32 713.72C1093.93 713.16 1092.77 712.4 1091.84 711.44C1090.93 710.453 1090.25 709.293 1089.8 707.96C1089.37 706.627 1089.16 705.187 1089.16 703.64ZM1103.16 701.36C1103.13 700.853 1103.04 700.36 1102.88 699.88C1102.75 699.4 1102.52 698.973 1102.2 698.6C1101.91 698.227 1101.52 697.92 1101.04 697.68C1100.59 697.44 1100.01 697.32 1099.32 697.32C1098.65 697.32 1098.08 697.44 1097.6 697.68C1097.12 697.893 1096.72 698.187 1096.4 698.56C1096.08 698.933 1095.83 699.373 1095.64 699.88C1095.48 700.36 1095.36 700.853 1095.28 701.36H1103.16ZM1119.56 709.72C1120.65 709.72 1121.43 709.613 1121.88 709.4C1122.33 709.187 1122.56 708.773 1122.56 708.16C1122.56 707.68 1122.27 707.267 1121.68 706.92C1121.09 706.547 1120.2 706.133 1119 705.68C1118.07 705.333 1117.21 704.973 1116.44 704.6C1115.69 704.227 1115.05 703.787 1114.52 703.28C1113.99 702.747 1113.57 702.12 1113.28 701.4C1112.99 700.68 1112.84 699.813 1112.84 698.8C1112.84 696.827 1113.57 695.267 1115.04 694.12C1116.51 692.973 1118.52 692.4 1121.08 692.4C1122.36 692.4 1123.59 692.52 1124.76 692.76C1125.93 692.973 1126.87 693.213 1127.56 693.48L1126.52 698.12C1125.83 697.88 1125.07 697.667 1124.24 697.48C1123.44 697.293 1122.53 697.2 1121.52 697.2C1119.65 697.2 1118.72 697.72 1118.72 698.76C1118.72 699 1118.76 699.213 1118.84 699.4C1118.92 699.587 1119.08 699.773 1119.32 699.96C1119.56 700.12 1119.88 700.307 1120.28 700.52C1120.71 700.707 1121.24 700.92 1121.88 701.16C1123.19 701.64 1124.27 702.12 1125.12 702.6C1125.97 703.053 1126.64 703.56 1127.12 704.12C1127.63 704.653 1127.97 705.253 1128.16 705.92C1128.37 706.587 1128.48 707.36 1128.48 708.24C1128.48 710.32 1127.69 711.893 1126.12 712.96C1124.57 714.027 1122.37 714.56 1119.52 714.56C1117.65 714.56 1116.09 714.4 1114.84 714.08C1113.61 713.76 1112.76 713.493 1112.28 713.28L1113.28 708.44C1114.29 708.84 1115.33 709.16 1116.4 709.4C1117.47 709.613 1118.52 709.72 1119.56 709.72ZM1138.89 714H1132.93V692.96H1138.89V714ZM1139.45 686.88C1139.45 687.973 1139.09 688.84 1138.37 689.48C1137.68 690.093 1136.85 690.4 1135.89 690.4C1134.93 690.4 1134.09 690.093 1133.37 689.48C1132.68 688.84 1132.33 687.973 1132.33 686.88C1132.33 685.787 1132.68 684.933 1133.37 684.32C1134.09 683.68 1134.93 683.36 1135.89 683.36C1136.85 683.36 1137.68 683.68 1138.37 684.32C1139.09 684.933 1139.45 685.787 1139.45 686.88ZM1149.58 702.8C1149.58 706.133 1150.92 707.8 1153.62 707.8C1154.23 707.8 1154.8 707.72 1155.34 707.56C1155.87 707.4 1156.32 707.213 1156.7 707V697.48C1156.4 697.427 1156.06 697.387 1155.66 697.36C1155.26 697.307 1154.79 697.28 1154.26 697.28C1152.68 697.28 1151.51 697.8 1150.74 698.84C1149.96 699.88 1149.58 701.2 1149.58 702.8ZM1162.66 711.36C1162.66 714.8 1161.78 717.347 1160.02 719C1158.28 720.68 1155.59 721.52 1151.94 721.52C1150.66 721.52 1149.38 721.4 1148.1 721.16C1146.82 720.947 1145.63 720.653 1144.54 720.28L1145.58 715.28C1146.51 715.653 1147.48 715.947 1148.5 716.16C1149.54 716.373 1150.71 716.48 1152.02 716.48C1153.72 716.48 1154.92 716.107 1155.62 715.36C1156.34 714.613 1156.7 713.653 1156.7 712.48V711.72C1156.06 712.013 1155.39 712.24 1154.7 712.4C1154.03 712.533 1153.3 712.6 1152.5 712.6C1149.59 712.6 1147.36 711.747 1145.82 710.04C1144.27 708.307 1143.5 705.893 1143.5 702.8C1143.5 701.253 1143.74 699.853 1144.22 698.6C1144.7 697.32 1145.39 696.227 1146.3 695.32C1147.23 694.413 1148.36 693.72 1149.7 693.24C1151.03 692.733 1152.54 692.48 1154.22 692.48C1154.94 692.48 1155.67 692.52 1156.42 692.6C1157.19 692.653 1157.95 692.733 1158.7 692.84C1159.44 692.947 1160.15 693.08 1160.82 693.24C1161.51 693.373 1162.12 693.52 1162.66 693.68V711.36ZM1168.25 693.68C1169.26 693.387 1170.57 693.12 1172.17 692.88C1173.77 692.613 1175.45 692.48 1177.21 692.48C1178.99 692.48 1180.47 692.72 1181.65 693.2C1182.85 693.653 1183.79 694.307 1184.49 695.16C1185.18 696.013 1185.67 697.027 1185.97 698.2C1186.26 699.373 1186.41 700.68 1186.41 702.12V714H1180.45V702.84C1180.45 700.92 1180.19 699.56 1179.69 698.76C1179.18 697.96 1178.23 697.56 1176.85 697.56C1176.42 697.56 1175.97 697.587 1175.49 697.64C1175.01 697.667 1174.58 697.707 1174.21 697.76V714H1168.25V693.68Z" fill="white"/>
</svg>
