<svg width="1300" height="976" viewBox="0 0 1300 976" fill="none" xmlns="http://www.w3.org/2000/svg">
<g clip-path="url(#clip0_104_358)">
<path d="M115.9 373.44C117.673 372.927 119.96 372.46 122.76 372.04C125.56 371.573 128.5 371.34 131.58 371.34C134.707 371.34 137.297 371.76 139.35 372.6C141.45 373.393 143.107 374.537 144.32 376.03C145.533 377.523 146.397 379.297 146.91 381.35C147.423 383.403 147.68 385.69 147.68 388.21V409H137.25V389.47C137.25 386.11 136.807 383.73 135.92 382.33C135.033 380.93 133.377 380.23 130.95 380.23C130.203 380.23 129.41 380.277 128.57 380.37C127.73 380.417 126.983 380.487 126.33 380.58V409H115.9V373.44ZM171.191 401.72C172.217 401.72 173.197 401.697 174.131 401.65C175.064 401.603 175.811 401.533 176.371 401.44V393.53C175.951 393.437 175.321 393.343 174.481 393.25C173.641 393.157 172.871 393.11 172.171 393.11C171.191 393.11 170.257 393.18 169.371 393.32C168.531 393.413 167.784 393.623 167.131 393.95C166.477 394.277 165.964 394.72 165.591 395.28C165.217 395.84 165.031 396.54 165.031 397.38C165.031 399.013 165.567 400.157 166.641 400.81C167.761 401.417 169.277 401.72 171.191 401.72ZM170.351 371.2C173.431 371.2 175.997 371.55 178.051 372.25C180.104 372.95 181.737 373.953 182.951 375.26C184.211 376.567 185.097 378.153 185.611 380.02C186.124 381.887 186.381 383.963 186.381 386.25V407.95C184.887 408.277 182.811 408.65 180.151 409.07C177.491 409.537 174.271 409.77 170.491 409.77C168.111 409.77 165.941 409.56 163.981 409.14C162.067 408.72 160.411 408.043 159.011 407.11C157.611 406.13 156.537 404.87 155.791 403.33C155.044 401.79 154.671 399.9 154.671 397.66C154.671 395.513 155.091 393.693 155.931 392.2C156.817 390.707 157.984 389.517 159.431 388.63C160.877 387.743 162.534 387.113 164.401 386.74C166.267 386.32 168.204 386.11 170.211 386.11C171.564 386.11 172.754 386.18 173.781 386.32C174.854 386.413 175.717 386.553 176.371 386.74V385.76C176.371 383.987 175.834 382.563 174.761 381.49C173.687 380.417 171.821 379.88 169.161 379.88C167.387 379.88 165.637 380.02 163.911 380.3C162.184 380.533 160.691 380.883 159.431 381.35L158.101 372.95C158.707 372.763 159.454 372.577 160.341 372.39C161.274 372.157 162.277 371.97 163.351 371.83C164.424 371.643 165.544 371.503 166.711 371.41C167.924 371.27 169.137 371.2 170.351 371.2ZM184.071 359.37C183.791 360.07 183.394 360.84 182.881 361.68C182.414 362.52 181.831 363.313 181.131 364.06C180.431 364.76 179.637 365.343 178.751 365.81C177.864 366.277 176.884 366.51 175.811 366.51C174.971 366.51 174.177 366.393 173.431 366.16C172.731 365.88 172.031 365.6 171.331 365.32C170.631 364.993 169.931 364.713 169.231 364.48C168.531 364.2 167.807 364.06 167.061 364.06C166.127 364.06 165.357 364.363 164.751 364.97C164.144 365.577 163.654 366.277 163.281 367.07L158.171 363.71C158.451 363.01 158.824 362.24 159.291 361.4C159.804 360.56 160.411 359.79 161.111 359.09C161.811 358.343 162.604 357.737 163.491 357.27C164.377 356.803 165.357 356.57 166.431 356.57C167.271 356.57 168.041 356.71 168.741 356.99C169.487 357.223 170.211 357.503 170.911 357.83C171.611 358.11 172.287 358.39 172.941 358.67C173.641 358.903 174.387 359.02 175.181 359.02C176.114 359.02 176.884 358.717 177.491 358.11C178.097 357.503 178.587 356.803 178.961 356.01L184.071 359.37ZM230.252 390.52C230.252 393.413 229.832 396.073 228.992 398.5C228.152 400.88 226.939 402.933 225.352 404.66C223.765 406.34 221.852 407.647 219.612 408.58C217.419 409.513 214.945 409.98 212.192 409.98C209.485 409.98 207.012 409.513 204.772 408.58C202.579 407.647 200.689 406.34 199.102 404.66C197.515 402.933 196.279 400.88 195.392 398.5C194.505 396.073 194.062 393.413 194.062 390.52C194.062 387.627 194.505 384.99 195.392 382.61C196.325 380.23 197.585 378.2 199.172 376.52C200.805 374.84 202.719 373.533 204.912 372.6C207.152 371.667 209.579 371.2 212.192 371.2C214.852 371.2 217.279 371.667 219.472 372.6C221.712 373.533 223.625 374.84 225.212 376.52C226.799 378.2 228.035 380.23 228.922 382.61C229.809 384.99 230.252 387.627 230.252 390.52ZM219.612 390.52C219.612 387.3 218.959 384.78 217.652 382.96C216.392 381.093 214.572 380.16 212.192 380.16C209.812 380.16 207.969 381.093 206.662 382.96C205.355 384.78 204.702 387.3 204.702 390.52C204.702 393.74 205.355 396.307 206.662 398.22C207.969 400.087 209.812 401.02 212.192 401.02C214.572 401.02 216.392 400.087 217.652 398.22C218.959 396.307 219.612 393.74 219.612 390.52ZM246.083 398.36C246.176 399.48 246.223 400.273 246.223 400.74C246.269 401.207 246.293 401.603 246.293 401.93C246.293 403.33 246.153 404.823 245.873 406.41C245.639 407.95 245.289 409.513 244.823 411.1C244.356 412.687 243.773 414.273 243.073 415.86C242.373 417.447 241.579 418.963 240.693 420.41L232.503 418.38C233.576 415.3 234.323 412.407 234.743 409.7C235.163 406.993 235.373 404.753 235.373 402.98C235.373 402.7 235.349 402.35 235.303 401.93C235.303 401.463 235.279 400.997 235.233 400.53C235.233 400.063 235.209 399.62 235.163 399.2C235.163 398.78 235.163 398.5 235.163 398.36H246.083ZM270.255 373.44C272.029 372.927 274.315 372.46 277.115 372.04C279.915 371.573 282.855 371.34 285.935 371.34C289.062 371.34 291.652 371.76 293.705 372.6C295.805 373.393 297.462 374.537 298.675 376.03C299.889 377.523 300.752 379.297 301.265 381.35C301.779 383.403 302.035 385.69 302.035 388.21V409H291.605V389.47C291.605 386.11 291.162 383.73 290.275 382.33C289.389 380.93 287.732 380.23 285.305 380.23C284.559 380.23 283.765 380.277 282.925 380.37C282.085 380.417 281.339 380.487 280.685 380.58V409H270.255V373.44ZM309.726 390.87C309.726 387.603 310.216 384.757 311.196 382.33C312.223 379.857 313.553 377.803 315.186 376.17C316.82 374.537 318.686 373.3 320.786 372.46C322.933 371.62 325.126 371.2 327.366 371.2C332.593 371.2 336.723 372.81 339.756 376.03C342.79 379.203 344.306 383.893 344.306 390.1C344.306 390.707 344.283 391.383 344.236 392.13C344.19 392.83 344.143 393.46 344.096 394.02H320.436C320.67 396.167 321.673 397.87 323.446 399.13C325.22 400.39 327.6 401.02 330.586 401.02C332.5 401.02 334.366 400.857 336.186 400.53C338.053 400.157 339.57 399.713 340.736 399.2L342.136 407.67C341.576 407.95 340.83 408.23 339.896 408.51C338.963 408.79 337.913 409.023 336.746 409.21C335.626 409.443 334.413 409.63 333.106 409.77C331.8 409.91 330.493 409.98 329.186 409.98C325.873 409.98 322.98 409.49 320.506 408.51C318.08 407.53 316.05 406.2 314.416 404.52C312.83 402.793 311.64 400.763 310.846 398.43C310.1 396.097 309.726 393.577 309.726 390.87ZM334.226 386.88C334.18 385.993 334.016 385.13 333.736 384.29C333.503 383.45 333.106 382.703 332.546 382.05C332.033 381.397 331.356 380.86 330.516 380.44C329.723 380.02 328.72 379.81 327.506 379.81C326.34 379.81 325.336 380.02 324.496 380.44C323.656 380.813 322.956 381.327 322.396 381.98C321.836 382.633 321.393 383.403 321.066 384.29C320.786 385.13 320.576 385.993 320.436 386.88H334.226ZM352.355 373.44C354.128 372.927 356.415 372.46 359.215 372.04C362.015 371.573 364.955 371.34 368.035 371.34C371.162 371.34 373.752 371.76 375.805 372.6C377.905 373.393 379.562 374.537 380.775 376.03C381.988 377.523 382.852 379.297 383.365 381.35C383.878 383.403 384.135 385.69 384.135 388.21V409H373.705V389.47C373.705 386.11 373.262 383.73 372.375 382.33C371.488 380.93 369.832 380.23 367.405 380.23C366.658 380.23 365.865 380.277 365.025 380.37C364.185 380.417 363.438 380.487 362.785 380.58V409H352.355V373.44ZM393.576 409V356.36L404.006 354.68V372.32C404.706 372.087 405.592 371.877 406.666 371.69C407.786 371.457 408.859 371.34 409.886 371.34C412.872 371.34 415.346 371.76 417.306 372.6C419.312 373.393 420.899 374.537 422.066 376.03C423.279 377.523 424.119 379.297 424.586 381.35C425.099 383.403 425.356 385.69 425.356 388.21V409H414.926V389.47C414.926 386.11 414.482 383.73 413.596 382.33C412.756 380.93 411.169 380.23 408.836 380.23C407.902 380.23 407.016 380.323 406.176 380.51C405.382 380.65 404.659 380.813 404.006 381V409H393.576ZM466.226 407.74C464.453 408.253 462.166 408.72 459.366 409.14C456.566 409.607 453.626 409.84 450.546 409.84C447.42 409.84 444.806 409.42 442.706 408.58C440.653 407.74 439.02 406.573 437.806 405.08C436.593 403.54 435.73 401.72 435.216 399.62C434.703 397.52 434.446 395.21 434.446 392.69V372.18H444.876V391.43C444.876 394.79 445.32 397.217 446.206 398.71C447.093 400.203 448.75 400.95 451.176 400.95C451.923 400.95 452.716 400.927 453.556 400.88C454.396 400.787 455.143 400.693 455.796 400.6V372.18H466.226V407.74ZM496.247 389.47C496.247 386.11 495.804 383.73 494.917 382.33C494.077 380.93 492.607 380.23 490.507 380.23C489.854 380.23 489.177 380.277 488.477 380.37C487.777 380.417 487.101 380.487 486.447 380.58V409H476.017V373.44C476.904 373.207 477.931 372.973 479.097 372.74C480.311 372.46 481.571 372.227 482.877 372.04C484.231 371.807 485.607 371.643 487.007 371.55C488.407 371.41 489.784 371.34 491.137 371.34C493.797 371.34 495.944 371.69 497.577 372.39C499.257 373.043 500.634 373.837 501.707 374.77C503.201 373.697 504.904 372.857 506.817 372.25C508.777 371.643 510.574 371.34 512.207 371.34C515.147 371.34 517.551 371.76 519.417 372.6C521.331 373.393 522.847 374.537 523.967 376.03C525.087 377.523 525.857 379.297 526.277 381.35C526.697 383.403 526.907 385.69 526.907 388.21V409H516.477V389.47C516.477 386.11 516.034 383.73 515.147 382.33C514.307 380.93 512.837 380.23 510.737 380.23C510.177 380.23 509.384 380.37 508.357 380.65C507.377 380.93 506.561 381.28 505.907 381.7C506.234 382.773 506.444 383.917 506.537 385.13C506.631 386.297 506.677 387.557 506.677 388.91V409H496.247V389.47ZM562.085 390.31C562.085 393.53 562.808 396.12 564.255 398.08C565.702 400.04 567.848 401.02 570.695 401.02C571.628 401.02 572.492 400.997 573.285 400.95C574.078 400.857 574.732 400.763 575.245 400.67V381.7C574.592 381.28 573.728 380.93 572.655 380.65C571.628 380.37 570.578 380.23 569.505 380.23C564.558 380.23 562.085 383.59 562.085 390.31ZM585.675 407.81C584.742 408.09 583.668 408.37 582.455 408.65C581.242 408.883 579.958 409.093 578.605 409.28C577.298 409.467 575.945 409.607 574.545 409.7C573.192 409.84 571.885 409.91 570.625 409.91C567.592 409.91 564.885 409.467 562.505 408.58C560.125 407.693 558.118 406.433 556.485 404.8C554.852 403.12 553.592 401.113 552.705 398.78C551.865 396.4 551.445 393.74 551.445 390.8C551.445 387.813 551.818 385.13 552.565 382.75C553.312 380.323 554.385 378.27 555.785 376.59C557.185 374.91 558.888 373.627 560.895 372.74C562.948 371.853 565.282 371.41 567.895 371.41C569.342 371.41 570.625 371.55 571.745 371.83C572.912 372.11 574.078 372.507 575.245 373.02V356.36L585.675 354.68V407.81ZM629.881 390.52C629.881 393.413 629.461 396.073 628.621 398.5C627.781 400.88 626.568 402.933 624.981 404.66C623.394 406.34 621.481 407.647 619.241 408.58C617.048 409.513 614.574 409.98 611.821 409.98C609.114 409.98 606.641 409.513 604.401 408.58C602.208 407.647 600.318 406.34 598.731 404.66C597.144 402.933 595.908 400.88 595.021 398.5C594.134 396.073 593.691 393.413 593.691 390.52C593.691 387.627 594.134 384.99 595.021 382.61C595.954 380.23 597.214 378.2 598.801 376.52C600.434 374.84 602.348 373.533 604.541 372.6C606.781 371.667 609.208 371.2 611.821 371.2C614.481 371.2 616.908 371.667 619.101 372.6C621.341 373.533 623.254 374.84 624.841 376.52C626.428 378.2 627.664 380.23 628.551 382.61C629.438 384.99 629.881 387.627 629.881 390.52ZM619.241 390.52C619.241 387.3 618.588 384.78 617.281 382.96C616.021 381.093 614.201 380.16 611.821 380.16C609.441 380.16 607.598 381.093 606.291 382.96C604.984 384.78 604.331 387.3 604.331 390.52C604.331 393.74 604.984 396.307 606.291 398.22C607.598 400.087 609.441 401.02 611.821 401.02C614.201 401.02 616.021 400.087 617.281 398.22C618.588 396.307 619.241 393.74 619.241 390.52ZM648.531 401.51C650.444 401.51 651.797 401.323 652.591 400.95C653.384 400.577 653.781 399.853 653.781 398.78C653.781 397.94 653.267 397.217 652.241 396.61C651.214 395.957 649.651 395.233 647.551 394.44C645.917 393.833 644.424 393.203 643.071 392.55C641.764 391.897 640.644 391.127 639.711 390.24C638.777 389.307 638.054 388.21 637.541 386.95C637.027 385.69 636.771 384.173 636.771 382.4C636.771 378.947 638.054 376.217 640.621 374.21C643.187 372.203 646.711 371.2 651.191 371.2C653.431 371.2 655.577 371.41 657.631 371.83C659.684 372.203 661.317 372.623 662.531 373.09L660.711 381.21C659.497 380.79 658.167 380.417 656.721 380.09C655.321 379.763 653.734 379.6 651.961 379.6C648.694 379.6 647.061 380.51 647.061 382.33C647.061 382.75 647.131 383.123 647.271 383.45C647.411 383.777 647.691 384.103 648.111 384.43C648.531 384.71 649.091 385.037 649.791 385.41C650.537 385.737 651.471 386.11 652.591 386.53C654.877 387.37 656.767 388.21 658.261 389.05C659.754 389.843 660.921 390.73 661.761 391.71C662.647 392.643 663.254 393.693 663.581 394.86C663.954 396.027 664.141 397.38 664.141 398.92C664.141 402.56 662.764 405.313 660.011 407.18C657.304 409.047 653.454 409.98 648.461 409.98C645.194 409.98 642.464 409.7 640.271 409.14C638.124 408.58 636.631 408.113 635.791 407.74L637.541 399.27C639.314 399.97 641.134 400.53 643.001 400.95C644.867 401.323 646.711 401.51 648.531 401.51ZM697.642 390.31C697.642 393.53 698.365 396.12 699.812 398.08C701.258 400.04 703.405 401.02 706.252 401.02C707.185 401.02 708.048 400.997 708.842 400.95C709.635 400.857 710.288 400.763 710.802 400.67V381.7C710.148 381.28 709.285 380.93 708.212 380.65C707.185 380.37 706.135 380.23 705.062 380.23C700.115 380.23 697.642 383.59 697.642 390.31ZM721.232 407.81C720.298 408.09 719.225 408.37 718.012 408.65C716.798 408.883 715.515 409.093 714.162 409.28C712.855 409.467 711.502 409.607 710.102 409.7C708.748 409.84 707.442 409.91 706.182 409.91C703.148 409.91 700.442 409.467 698.062 408.58C695.682 407.693 693.675 406.433 692.042 404.8C690.408 403.12 689.148 401.113 688.262 398.78C687.422 396.4 687.002 393.74 687.002 390.8C687.002 387.813 687.375 385.13 688.122 382.75C688.868 380.323 689.942 378.27 691.342 376.59C692.742 374.91 694.445 373.627 696.452 372.74C698.505 371.853 700.838 371.41 703.452 371.41C704.898 371.41 706.182 371.55 707.302 371.83C708.468 372.11 709.635 372.507 710.802 373.02V356.36L721.232 354.68V407.81ZM765.438 390.52C765.438 393.413 765.018 396.073 764.178 398.5C763.338 400.88 762.124 402.933 760.538 404.66C758.951 406.34 757.038 407.647 754.798 408.58C752.604 409.513 750.131 409.98 747.378 409.98C744.671 409.98 742.198 409.513 739.958 408.58C737.764 407.647 735.874 406.34 734.288 404.66C732.701 402.933 731.464 400.88 730.578 398.5C729.691 396.073 729.248 393.413 729.248 390.52C729.248 387.627 729.691 384.99 730.578 382.61C731.511 380.23 732.771 378.2 734.358 376.52C735.991 374.84 737.904 373.533 740.098 372.6C742.338 371.667 744.764 371.2 747.378 371.2C750.038 371.2 752.464 371.667 754.658 372.6C756.898 373.533 758.811 374.84 760.398 376.52C761.984 378.2 763.221 380.23 764.108 382.61C764.994 384.99 765.438 387.627 765.438 390.52ZM754.798 390.52C754.798 387.3 754.144 384.78 752.838 382.96C751.578 381.093 749.758 380.16 747.378 380.16C744.998 380.16 743.154 381.093 741.848 382.96C740.541 384.78 739.888 387.3 739.888 390.52C739.888 393.74 740.541 396.307 741.848 398.22C743.154 400.087 744.998 401.02 747.378 401.02C749.758 401.02 751.578 400.087 752.838 398.22C754.144 396.307 754.798 393.74 754.798 390.52ZM783.947 409H773.517V372.18H783.947V409ZM784.927 361.54C784.927 363.453 784.297 364.97 783.037 366.09C781.824 367.163 780.377 367.7 778.697 367.7C777.017 367.7 775.547 367.163 774.287 366.09C773.074 364.97 772.467 363.453 772.467 361.54C772.467 359.627 773.074 358.133 774.287 357.06C775.547 355.94 777.017 355.38 778.697 355.38C780.377 355.38 781.824 355.94 783.037 357.06C784.297 358.133 784.927 359.627 784.927 361.54ZM804.322 401.51C806.235 401.51 807.588 401.323 808.382 400.95C809.175 400.577 809.572 399.853 809.572 398.78C809.572 397.94 809.058 397.217 808.032 396.61C807.005 395.957 805.442 395.233 803.342 394.44C801.708 393.833 800.215 393.203 798.862 392.55C797.555 391.897 796.435 391.127 795.502 390.24C794.568 389.307 793.845 388.21 793.332 386.95C792.818 385.69 792.562 384.173 792.562 382.4C792.562 378.947 793.845 376.217 796.412 374.21C798.978 372.203 802.502 371.2 806.982 371.2C809.222 371.2 811.368 371.41 813.422 371.83C815.475 372.203 817.108 372.623 818.322 373.09L816.502 381.21C815.288 380.79 813.958 380.417 812.512 380.09C811.112 379.763 809.525 379.6 807.752 379.6C804.485 379.6 802.852 380.51 802.852 382.33C802.852 382.75 802.922 383.123 803.062 383.45C803.202 383.777 803.482 384.103 803.902 384.43C804.322 384.71 804.882 385.037 805.582 385.41C806.328 385.737 807.262 386.11 808.382 386.53C810.668 387.37 812.558 388.21 814.052 389.05C815.545 389.843 816.712 390.73 817.552 391.71C818.438 392.643 819.045 393.693 819.372 394.86C819.745 396.027 819.932 397.38 819.932 398.92C819.932 402.56 818.555 405.313 815.802 407.18C813.095 409.047 809.245 409.98 804.252 409.98C800.985 409.98 798.255 409.7 796.062 409.14C793.915 408.58 792.422 408.113 791.582 407.74L793.332 399.27C795.105 399.97 796.925 400.53 798.792 400.95C800.658 401.323 802.502 401.51 804.322 401.51ZM126.47 541.51C128.383 541.51 129.737 541.323 130.53 540.95C131.323 540.577 131.72 539.853 131.72 538.78C131.72 537.94 131.207 537.217 130.18 536.61C129.153 535.957 127.59 535.233 125.49 534.44C123.857 533.833 122.363 533.203 121.01 532.55C119.703 531.897 118.583 531.127 117.65 530.24C116.717 529.307 115.993 528.21 115.48 526.95C114.967 525.69 114.71 524.173 114.71 522.4C114.71 518.947 115.993 516.217 118.56 514.21C121.127 512.203 124.65 511.2 129.13 511.2C131.37 511.2 133.517 511.41 135.57 511.83C137.623 512.203 139.257 512.623 140.47 513.09L138.65 521.21C137.437 520.79 136.107 520.417 134.66 520.09C133.26 519.763 131.673 519.6 129.9 519.6C126.633 519.6 125 520.51 125 522.33C125 522.75 125.07 523.123 125.21 523.45C125.35 523.777 125.63 524.103 126.05 524.43C126.47 524.71 127.03 525.037 127.73 525.41C128.477 525.737 129.41 526.11 130.53 526.53C132.817 527.37 134.707 528.21 136.2 529.05C137.693 529.843 138.86 530.73 139.7 531.71C140.587 532.643 141.193 533.693 141.52 534.86C141.893 536.027 142.08 537.38 142.08 538.92C142.08 542.56 140.703 545.313 137.95 547.18C135.243 549.047 131.393 549.98 126.4 549.98C123.133 549.98 120.403 549.7 118.21 549.14C116.063 548.58 114.57 548.113 113.73 547.74L115.48 539.27C117.253 539.97 119.073 540.53 120.94 540.95C122.807 541.323 124.65 541.51 126.47 541.51ZM163.945 541.72C164.971 541.72 165.951 541.697 166.885 541.65C167.818 541.603 168.565 541.533 169.125 541.44V533.53C168.705 533.437 168.075 533.343 167.235 533.25C166.395 533.157 165.625 533.11 164.925 533.11C163.945 533.11 163.011 533.18 162.125 533.32C161.285 533.413 160.538 533.623 159.885 533.95C159.231 534.277 158.718 534.72 158.345 535.28C157.971 535.84 157.785 536.54 157.785 537.38C157.785 539.013 158.321 540.157 159.395 540.81C160.515 541.417 162.031 541.72 163.945 541.72ZM163.105 511.2C166.185 511.2 168.751 511.55 170.805 512.25C172.858 512.95 174.491 513.953 175.705 515.26C176.965 516.567 177.851 518.153 178.365 520.02C178.878 521.887 179.135 523.963 179.135 526.25V547.95C177.641 548.277 175.565 548.65 172.905 549.07C170.245 549.537 167.025 549.77 163.245 549.77C160.865 549.77 158.695 549.56 156.735 549.14C154.821 548.72 153.165 548.043 151.765 547.11C150.365 546.13 149.291 544.87 148.545 543.33C147.798 541.79 147.425 539.9 147.425 537.66C147.425 535.513 147.845 533.693 148.685 532.2C149.571 530.707 150.738 529.517 152.185 528.63C153.631 527.743 155.288 527.113 157.155 526.74C159.021 526.32 160.958 526.11 162.965 526.11C164.318 526.11 165.508 526.18 166.535 526.32C167.608 526.413 168.471 526.553 169.125 526.74V525.76C169.125 523.987 168.588 522.563 167.515 521.49C166.441 520.417 164.575 519.88 161.915 519.88C160.141 519.88 158.391 520.02 156.665 520.3C154.938 520.533 153.445 520.883 152.185 521.35L150.855 512.95C151.461 512.763 152.208 512.577 153.095 512.39C154.028 512.157 155.031 511.97 156.105 511.83C157.178 511.643 158.298 511.503 159.465 511.41C160.678 511.27 161.891 511.2 163.105 511.2ZM176.825 499.37C176.545 500.07 176.148 500.84 175.635 501.68C175.168 502.52 174.585 503.313 173.885 504.06C173.185 504.76 172.391 505.343 171.505 505.81C170.618 506.277 169.638 506.51 168.565 506.51C167.725 506.51 166.931 506.393 166.185 506.16C165.485 505.88 164.785 505.6 164.085 505.32C163.385 504.993 162.685 504.713 161.985 504.48C161.285 504.2 160.561 504.06 159.815 504.06C158.881 504.06 158.111 504.363 157.505 504.97C156.898 505.577 156.408 506.277 156.035 507.07L150.925 503.71C151.205 503.01 151.578 502.24 152.045 501.4C152.558 500.56 153.165 499.79 153.865 499.09C154.565 498.343 155.358 497.737 156.245 497.27C157.131 496.803 158.111 496.57 159.185 496.57C160.025 496.57 160.795 496.71 161.495 496.99C162.241 497.223 162.965 497.503 163.665 497.83C164.365 498.11 165.041 498.39 165.695 498.67C166.395 498.903 167.141 499.02 167.935 499.02C168.868 499.02 169.638 498.717 170.245 498.11C170.851 497.503 171.341 496.803 171.715 496.01L176.825 499.37ZM223.006 530.52C223.006 533.413 222.586 536.073 221.746 538.5C220.906 540.88 219.693 542.933 218.106 544.66C216.519 546.34 214.606 547.647 212.366 548.58C210.173 549.513 207.699 549.98 204.946 549.98C202.239 549.98 199.766 549.513 197.526 548.58C195.333 547.647 193.443 546.34 191.856 544.66C190.269 542.933 189.033 540.88 188.146 538.5C187.259 536.073 186.816 533.413 186.816 530.52C186.816 527.627 187.259 524.99 188.146 522.61C189.079 520.23 190.339 518.2 191.926 516.52C193.559 514.84 195.473 513.533 197.666 512.6C199.906 511.667 202.333 511.2 204.946 511.2C207.606 511.2 210.033 511.667 212.226 512.6C214.466 513.533 216.379 514.84 217.966 516.52C219.553 518.2 220.789 520.23 221.676 522.61C222.563 524.99 223.006 527.627 223.006 530.52ZM212.366 530.52C212.366 527.3 211.713 524.78 210.406 522.96C209.146 521.093 207.326 520.16 204.946 520.16C202.566 520.16 200.723 521.093 199.416 522.96C198.109 524.78 197.456 527.3 197.456 530.52C197.456 533.74 198.109 536.307 199.416 538.22C200.723 540.087 202.566 541.02 204.946 541.02C207.326 541.02 209.146 540.087 210.406 538.22C211.713 536.307 212.366 533.74 212.366 530.52ZM261.972 541.72C262.999 541.72 263.979 541.697 264.912 541.65C265.845 541.603 266.592 541.533 267.152 541.44V533.53C266.732 533.437 266.102 533.343 265.262 533.25C264.422 533.157 263.652 533.11 262.952 533.11C261.972 533.11 261.039 533.18 260.152 533.32C259.312 533.413 258.565 533.623 257.912 533.95C257.259 534.277 256.745 534.72 256.372 535.28C255.999 535.84 255.812 536.54 255.812 537.38C255.812 539.013 256.349 540.157 257.422 540.81C258.542 541.417 260.059 541.72 261.972 541.72ZM261.132 511.2C264.212 511.2 266.779 511.55 268.832 512.25C270.885 512.95 272.519 513.953 273.732 515.26C274.992 516.567 275.879 518.153 276.392 520.02C276.905 521.887 277.162 523.963 277.162 526.25V547.95C275.669 548.277 273.592 548.65 270.932 549.07C268.272 549.537 265.052 549.77 261.272 549.77C258.892 549.77 256.722 549.56 254.762 549.14C252.849 548.72 251.192 548.043 249.792 547.11C248.392 546.13 247.319 544.87 246.572 543.33C245.825 541.79 245.452 539.9 245.452 537.66C245.452 535.513 245.872 533.693 246.712 532.2C247.599 530.707 248.765 529.517 250.212 528.63C251.659 527.743 253.315 527.113 255.182 526.74C257.049 526.32 258.985 526.11 260.992 526.11C262.345 526.11 263.535 526.18 264.562 526.32C265.635 526.413 266.499 526.553 267.152 526.74V525.76C267.152 523.987 266.615 522.563 265.542 521.49C264.469 520.417 262.602 519.88 259.942 519.88C258.169 519.88 256.419 520.02 254.692 520.3C252.965 520.533 251.472 520.883 250.212 521.35L248.882 512.95C249.489 512.763 250.235 512.577 251.122 512.39C252.055 512.157 253.059 511.97 254.132 511.83C255.205 511.643 256.325 511.503 257.492 511.41C258.705 511.27 259.919 511.2 261.132 511.2ZM306.823 529.47C306.823 526.11 306.38 523.73 305.493 522.33C304.653 520.93 303.183 520.23 301.083 520.23C300.43 520.23 299.753 520.277 299.053 520.37C298.353 520.417 297.677 520.487 297.023 520.58V549H286.593V513.44C287.48 513.207 288.507 512.973 289.673 512.74C290.887 512.46 292.147 512.227 293.453 512.04C294.807 511.807 296.183 511.643 297.583 511.55C298.983 511.41 300.36 511.34 301.713 511.34C304.373 511.34 306.52 511.69 308.153 512.39C309.833 513.043 311.21 513.837 312.283 514.77C313.777 513.697 315.48 512.857 317.393 512.25C319.353 511.643 321.15 511.34 322.783 511.34C325.723 511.34 328.127 511.76 329.993 512.6C331.907 513.393 333.423 514.537 334.543 516.03C335.663 517.523 336.433 519.297 336.853 521.35C337.273 523.403 337.483 525.69 337.483 528.21V549H327.053V529.47C327.053 526.11 326.61 523.73 325.723 522.33C324.883 520.93 323.413 520.23 321.313 520.23C320.753 520.23 319.96 520.37 318.933 520.65C317.953 520.93 317.137 521.28 316.483 521.7C316.81 522.773 317.02 523.917 317.113 525.13C317.207 526.297 317.253 527.557 317.253 528.91V549H306.823V529.47ZM370.545 530.31C370.545 523.59 368.071 520.23 363.125 520.23C362.051 520.23 360.978 520.37 359.905 520.65C358.878 520.93 358.038 521.28 357.385 521.7V540.67C357.898 540.763 358.551 540.857 359.345 540.95C360.138 540.997 361.001 541.02 361.935 541.02C364.781 541.02 366.928 540.04 368.375 538.08C369.821 536.12 370.545 533.53 370.545 530.31ZM381.185 530.59C381.185 533.53 380.741 536.19 379.855 538.57C379.015 540.95 377.778 542.98 376.145 544.66C374.511 546.34 372.505 547.647 370.125 548.58C367.745 549.467 365.038 549.91 362.005 549.91C360.745 549.91 359.415 549.84 358.015 549.7C356.661 549.607 355.308 549.467 353.955 549.28C352.648 549.093 351.388 548.883 350.175 548.65C348.961 548.37 347.888 548.09 346.955 547.81V496.36L357.385 494.68V513.02C358.551 512.507 359.765 512.11 361.025 511.83C362.285 511.55 363.638 511.41 365.085 511.41C367.698 511.41 370.008 511.877 372.015 512.81C374.021 513.697 375.701 514.98 377.055 516.66C378.408 518.34 379.435 520.37 380.135 522.75C380.835 525.083 381.185 527.697 381.185 530.59ZM423.641 530.52C423.641 533.413 423.221 536.073 422.381 538.5C421.541 540.88 420.327 542.933 418.741 544.66C417.154 546.34 415.241 547.647 413.001 548.58C410.807 549.513 408.334 549.98 405.581 549.98C402.874 549.98 400.401 549.513 398.161 548.58C395.967 547.647 394.077 546.34 392.491 544.66C390.904 542.933 389.667 540.88 388.781 538.5C387.894 536.073 387.451 533.413 387.451 530.52C387.451 527.627 387.894 524.99 388.781 522.61C389.714 520.23 390.974 518.2 392.561 516.52C394.194 514.84 396.107 513.533 398.301 512.6C400.541 511.667 402.967 511.2 405.581 511.2C408.241 511.2 410.667 511.667 412.861 512.6C415.101 513.533 417.014 514.84 418.601 516.52C420.187 518.2 421.424 520.23 422.311 522.61C423.197 524.99 423.641 527.627 423.641 530.52ZM413.001 530.52C413.001 527.3 412.347 524.78 411.041 522.96C409.781 521.093 407.961 520.16 405.581 520.16C403.201 520.16 401.357 521.093 400.051 522.96C398.744 524.78 398.091 527.3 398.091 530.52C398.091 533.74 398.744 536.307 400.051 538.22C401.357 540.087 403.201 541.02 405.581 541.02C407.961 541.02 409.781 540.087 411.041 538.22C412.347 536.307 413.001 533.74 413.001 530.52ZM442.29 541.51C444.204 541.51 445.557 541.323 446.35 540.95C447.144 540.577 447.54 539.853 447.54 538.78C447.54 537.94 447.027 537.217 446 536.61C444.974 535.957 443.41 535.233 441.31 534.44C439.677 533.833 438.184 533.203 436.83 532.55C435.524 531.897 434.404 531.127 433.47 530.24C432.537 529.307 431.814 528.21 431.3 526.95C430.787 525.69 430.53 524.173 430.53 522.4C430.53 518.947 431.814 516.217 434.38 514.21C436.947 512.203 440.47 511.2 444.95 511.2C447.19 511.2 449.337 511.41 451.39 511.83C453.444 512.203 455.077 512.623 456.29 513.09L454.47 521.21C453.257 520.79 451.927 520.417 450.48 520.09C449.08 519.763 447.494 519.6 445.72 519.6C442.454 519.6 440.82 520.51 440.82 522.33C440.82 522.75 440.89 523.123 441.03 523.45C441.17 523.777 441.45 524.103 441.87 524.43C442.29 524.71 442.85 525.037 443.55 525.41C444.297 525.737 445.23 526.11 446.35 526.53C448.637 527.37 450.527 528.21 452.02 529.05C453.514 529.843 454.68 530.73 455.52 531.71C456.407 532.643 457.014 533.693 457.34 534.86C457.714 536.027 457.9 537.38 457.9 538.92C457.9 542.56 456.524 545.313 453.77 547.18C451.064 549.047 447.214 549.98 442.22 549.98C438.954 549.98 436.224 549.7 434.03 549.14C431.884 548.58 430.39 548.113 429.55 547.74L431.3 539.27C433.074 539.97 434.894 540.53 436.76 540.95C438.627 541.323 440.47 541.51 442.29 541.51ZM480.761 530.59C480.761 527.93 481.181 525.433 482.021 523.1C482.908 520.72 484.168 518.667 485.801 516.94C487.435 515.167 489.418 513.767 491.751 512.74C494.085 511.713 496.745 511.2 499.731 511.2C501.691 511.2 503.488 511.387 505.121 511.76C506.755 512.087 508.341 512.577 509.881 513.23L507.711 521.56C506.731 521.187 505.658 520.86 504.491 520.58C503.325 520.3 502.018 520.16 500.571 520.16C497.491 520.16 495.181 521.117 493.641 523.03C492.148 524.943 491.401 527.463 491.401 530.59C491.401 533.903 492.101 536.47 493.501 538.29C494.948 540.11 497.445 541.02 500.991 541.02C502.251 541.02 503.605 540.903 505.051 540.67C506.498 540.437 507.828 540.063 509.041 539.55L510.511 548.09C509.298 548.603 507.781 549.047 505.961 549.42C504.141 549.793 502.135 549.98 499.941 549.98C496.581 549.98 493.688 549.49 491.261 548.51C488.835 547.483 486.828 546.107 485.241 544.38C483.701 542.653 482.558 540.623 481.811 538.29C481.111 535.91 480.761 533.343 480.761 530.59ZM529.804 541.72C530.831 541.72 531.811 541.697 532.744 541.65C533.677 541.603 534.424 541.533 534.984 541.44V533.53C534.564 533.437 533.934 533.343 533.094 533.25C532.254 533.157 531.484 533.11 530.784 533.11C529.804 533.11 528.871 533.18 527.984 533.32C527.144 533.413 526.397 533.623 525.744 533.95C525.091 534.277 524.577 534.72 524.204 535.28C523.831 535.84 523.644 536.54 523.644 537.38C523.644 539.013 524.181 540.157 525.254 540.81C526.374 541.417 527.891 541.72 529.804 541.72ZM528.964 511.2C532.044 511.2 534.611 511.55 536.664 512.25C538.717 512.95 540.351 513.953 541.564 515.26C542.824 516.567 543.711 518.153 544.224 520.02C544.737 521.887 544.994 523.963 544.994 526.25V547.95C543.501 548.277 541.424 548.65 538.764 549.07C536.104 549.537 532.884 549.77 529.104 549.77C526.724 549.77 524.554 549.56 522.594 549.14C520.681 548.72 519.024 548.043 517.624 547.11C516.224 546.13 515.151 544.87 514.404 543.33C513.657 541.79 513.284 539.9 513.284 537.66C513.284 535.513 513.704 533.693 514.544 532.2C515.431 530.707 516.597 529.517 518.044 528.63C519.491 527.743 521.147 527.113 523.014 526.74C524.881 526.32 526.817 526.11 528.824 526.11C530.177 526.11 531.367 526.18 532.394 526.32C533.467 526.413 534.331 526.553 534.984 526.74V525.76C534.984 523.987 534.447 522.563 533.374 521.49C532.301 520.417 530.434 519.88 527.774 519.88C526.001 519.88 524.251 520.02 522.524 520.3C520.797 520.533 519.304 520.883 518.044 521.35L516.714 512.95C517.321 512.763 518.067 512.577 518.954 512.39C519.887 512.157 520.891 511.97 521.964 511.83C523.037 511.643 524.157 511.503 525.324 511.41C526.537 511.27 527.751 511.2 528.964 511.2ZM564.995 541.51C566.909 541.51 568.262 541.323 569.055 540.95C569.849 540.577 570.245 539.853 570.245 538.78C570.245 537.94 569.732 537.217 568.705 536.61C567.679 535.957 566.115 535.233 564.015 534.44C562.382 533.833 560.889 533.203 559.535 532.55C558.229 531.897 557.109 531.127 556.175 530.24C555.242 529.307 554.519 528.21 554.005 526.95C553.492 525.69 553.235 524.173 553.235 522.4C553.235 518.947 554.519 516.217 557.085 514.21C559.652 512.203 563.175 511.2 567.655 511.2C569.895 511.2 572.042 511.41 574.095 511.83C576.149 512.203 577.782 512.623 578.995 513.09L577.175 521.21C575.962 520.79 574.632 520.417 573.185 520.09C571.785 519.763 570.199 519.6 568.425 519.6C565.159 519.6 563.525 520.51 563.525 522.33C563.525 522.75 563.595 523.123 563.735 523.45C563.875 523.777 564.155 524.103 564.575 524.43C564.995 524.71 565.555 525.037 566.255 525.41C567.002 525.737 567.935 526.11 569.055 526.53C571.342 527.37 573.232 528.21 574.725 529.05C576.219 529.843 577.385 530.73 578.225 531.71C579.112 532.643 579.719 533.693 580.045 534.86C580.419 536.027 580.605 537.38 580.605 538.92C580.605 542.56 579.229 545.313 576.475 547.18C573.769 549.047 569.919 549.98 564.925 549.98C561.659 549.98 558.929 549.7 556.735 549.14C554.589 548.58 553.095 548.113 552.255 547.74L554.005 539.27C555.779 539.97 557.599 540.53 559.465 540.95C561.332 541.323 563.175 541.51 564.995 541.51ZM622.84 530.52C622.84 533.413 622.42 536.073 621.58 538.5C620.74 540.88 619.527 542.933 617.94 544.66C616.353 546.34 614.44 547.647 612.2 548.58C610.007 549.513 607.533 549.98 604.78 549.98C602.073 549.98 599.6 549.513 597.36 548.58C595.167 547.647 593.277 546.34 591.69 544.66C590.103 542.933 588.867 540.88 587.98 538.5C587.093 536.073 586.65 533.413 586.65 530.52C586.65 527.627 587.093 524.99 587.98 522.61C588.913 520.23 590.173 518.2 591.76 516.52C593.393 514.84 595.307 513.533 597.5 512.6C599.74 511.667 602.167 511.2 604.78 511.2C607.44 511.2 609.867 511.667 612.06 512.6C614.3 513.533 616.213 514.84 617.8 516.52C619.387 518.2 620.623 520.23 621.51 522.61C622.397 524.99 622.84 527.627 622.84 530.52ZM612.2 530.52C612.2 527.3 611.547 524.78 610.24 522.96C608.98 521.093 607.16 520.16 604.78 520.16C602.4 520.16 600.557 521.093 599.25 522.96C597.943 524.78 597.29 527.3 597.29 530.52C597.29 533.74 597.943 536.307 599.25 538.22C600.557 540.087 602.4 541.02 604.78 541.02C607.16 541.02 608.98 540.087 610.24 538.22C611.547 536.307 612.2 533.74 612.2 530.52ZM641.49 541.51C643.403 541.51 644.756 541.323 645.55 540.95C646.343 540.577 646.74 539.853 646.74 538.78C646.74 537.94 646.226 537.217 645.2 536.61C644.173 535.957 642.61 535.233 640.51 534.44C638.876 533.833 637.383 533.203 636.03 532.55C634.723 531.897 633.603 531.127 632.67 530.24C631.736 529.307 631.013 528.21 630.5 526.95C629.986 525.69 629.73 524.173 629.73 522.4C629.73 518.947 631.013 516.217 633.58 514.21C636.146 512.203 639.67 511.2 644.15 511.2C646.39 511.2 648.536 511.41 650.59 511.83C652.643 512.203 654.276 512.623 655.49 513.09L653.67 521.21C652.456 520.79 651.126 520.417 649.68 520.09C648.28 519.763 646.693 519.6 644.92 519.6C641.653 519.6 640.02 520.51 640.02 522.33C640.02 522.75 640.09 523.123 640.23 523.45C640.37 523.777 640.65 524.103 641.07 524.43C641.49 524.71 642.05 525.037 642.75 525.41C643.496 525.737 644.43 526.11 645.55 526.53C647.836 527.37 649.726 528.21 651.22 529.05C652.713 529.843 653.88 530.73 654.72 531.71C655.606 532.643 656.213 533.693 656.54 534.86C656.913 536.027 657.1 537.38 657.1 538.92C657.1 542.56 655.723 545.313 652.97 547.18C650.263 549.047 646.413 549.98 641.42 549.98C638.153 549.98 635.423 549.7 633.23 549.14C631.083 548.58 629.59 548.113 628.75 547.74L630.5 539.27C632.273 539.97 634.093 540.53 635.96 540.95C637.826 541.323 639.67 541.51 641.49 541.51ZM679.961 530.87C679.961 527.603 680.451 524.757 681.431 522.33C682.457 519.857 683.787 517.803 685.421 516.17C687.054 514.537 688.921 513.3 691.021 512.46C693.167 511.62 695.361 511.2 697.601 511.2C702.827 511.2 706.957 512.81 709.991 516.03C713.024 519.203 714.541 523.893 714.541 530.1C714.541 530.707 714.517 531.383 714.471 532.13C714.424 532.83 714.377 533.46 714.331 534.02H690.671C690.904 536.167 691.907 537.87 693.681 539.13C695.454 540.39 697.834 541.02 700.821 541.02C702.734 541.02 704.601 540.857 706.421 540.53C708.287 540.157 709.804 539.713 710.971 539.2L712.371 547.67C711.811 547.95 711.064 548.23 710.131 548.51C709.197 548.79 708.147 549.023 706.981 549.21C705.861 549.443 704.647 549.63 703.341 549.77C702.034 549.91 700.727 549.98 699.421 549.98C696.107 549.98 693.214 549.49 690.741 548.51C688.314 547.53 686.284 546.2 684.651 544.52C683.064 542.793 681.874 540.763 681.081 538.43C680.334 536.097 679.961 533.577 679.961 530.87ZM704.461 526.88C704.414 525.993 704.251 525.13 703.971 524.29C703.737 523.45 703.341 522.703 702.781 522.05C702.267 521.397 701.591 520.86 700.751 520.44C699.957 520.02 698.954 519.81 697.741 519.81C696.574 519.81 695.571 520.02 694.731 520.44C693.891 520.813 693.191 521.327 692.631 521.98C692.071 522.633 691.627 523.403 691.301 524.29C691.021 525.13 690.811 525.993 690.671 526.88H704.461ZM737.219 523.38L744.499 512.18H755.279L742.679 529.89C745.479 533.39 748.023 536.797 750.309 540.11C752.596 543.423 754.416 546.387 755.769 549H744.569C744.196 548.3 743.729 547.437 743.169 546.41C742.609 545.337 741.979 544.24 741.279 543.12C740.579 541.953 739.833 540.81 739.039 539.69C738.293 538.523 737.546 537.473 736.799 536.54C736.099 537.427 735.376 538.407 734.629 539.48C733.929 540.553 733.253 541.65 732.599 542.77C731.946 543.843 731.293 544.917 730.639 545.99C730.033 547.063 729.496 548.067 729.029 549H718.389C718.949 547.833 719.719 546.457 720.699 544.87C721.679 543.283 722.729 541.65 723.849 539.97C725.016 538.243 726.229 536.54 727.489 534.86C728.749 533.133 729.986 531.523 731.199 530.03C729.099 527.09 726.999 524.127 724.899 521.14C722.799 518.107 720.723 515.12 718.669 512.18H729.939L737.219 523.38ZM757.89 530.87C757.89 527.603 758.38 524.757 759.36 522.33C760.387 519.857 761.717 517.803 763.35 516.17C764.984 514.537 766.85 513.3 768.95 512.46C771.097 511.62 773.29 511.2 775.53 511.2C780.757 511.2 784.887 512.81 787.92 516.03C790.954 519.203 792.47 523.893 792.47 530.1C792.47 530.707 792.447 531.383 792.4 532.13C792.354 532.83 792.307 533.46 792.26 534.02H768.6C768.834 536.167 769.837 537.87 771.61 539.13C773.384 540.39 775.764 541.02 778.75 541.02C780.664 541.02 782.53 540.857 784.35 540.53C786.217 540.157 787.734 539.713 788.9 539.2L790.3 547.67C789.74 547.95 788.994 548.23 788.06 548.51C787.127 548.79 786.077 549.023 784.91 549.21C783.79 549.443 782.577 549.63 781.27 549.77C779.964 549.91 778.657 549.98 777.35 549.98C774.037 549.98 771.144 549.49 768.67 548.51C766.244 547.53 764.214 546.2 762.58 544.52C760.994 542.793 759.804 540.763 759.01 538.43C758.264 536.097 757.89 533.577 757.89 530.87ZM782.39 526.88C782.344 525.993 782.18 525.13 781.9 524.29C781.667 523.45 781.27 522.703 780.71 522.05C780.197 521.397 779.52 520.86 778.68 520.44C777.887 520.02 776.884 519.81 775.67 519.81C774.504 519.81 773.5 520.02 772.66 520.44C771.82 520.813 771.12 521.327 770.56 521.98C770 522.633 769.557 523.403 769.23 524.29C768.95 525.13 768.74 525.993 768.6 526.88H782.39ZM820.749 529.47C820.749 526.11 820.306 523.73 819.419 522.33C818.579 520.93 817.109 520.23 815.009 520.23C814.356 520.23 813.679 520.277 812.979 520.37C812.279 520.417 811.602 520.487 810.949 520.58V549H800.519V513.44C801.406 513.207 802.432 512.973 803.599 512.74C804.812 512.46 806.072 512.227 807.379 512.04C808.732 511.807 810.109 511.643 811.509 511.55C812.909 511.41 814.286 511.34 815.639 511.34C818.299 511.34 820.446 511.69 822.079 512.39C823.759 513.043 825.136 513.837 826.209 514.77C827.702 513.697 829.406 512.857 831.319 512.25C833.279 511.643 835.076 511.34 836.709 511.34C839.649 511.34 842.052 511.76 843.919 512.6C845.832 513.393 847.349 514.537 848.469 516.03C849.589 517.523 850.359 519.297 850.779 521.35C851.199 523.403 851.409 525.69 851.409 528.21V549H840.979V529.47C840.979 526.11 840.536 523.73 839.649 522.33C838.809 520.93 837.339 520.23 835.239 520.23C834.679 520.23 833.886 520.37 832.859 520.65C831.879 520.93 831.062 521.28 830.409 521.7C830.736 522.773 830.946 523.917 831.039 525.13C831.132 526.297 831.179 527.557 831.179 528.91V549H820.749V529.47ZM884.47 530.87C884.47 527.65 883.747 525.083 882.3 523.17C880.854 521.21 878.707 520.23 875.86 520.23C874.927 520.23 874.064 520.277 873.27 520.37C872.477 520.417 871.824 520.487 871.31 520.58V539.41C871.964 539.83 872.804 540.18 873.83 540.46C874.904 540.74 875.977 540.88 877.05 540.88C881.997 540.88 884.47 537.543 884.47 530.87ZM895.11 530.59C895.11 533.437 894.76 536.027 894.06 538.36C893.36 540.693 892.334 542.7 890.98 544.38C889.627 546.06 887.947 547.367 885.94 548.3C883.934 549.233 881.624 549.7 879.01 549.7C877.564 549.7 876.21 549.56 874.95 549.28C873.69 549 872.477 548.603 871.31 548.09V561.95H860.88V513.44C861.814 513.16 862.887 512.903 864.1 512.67C865.314 512.39 866.574 512.157 867.88 511.97C869.234 511.783 870.587 511.643 871.94 511.55C873.34 511.41 874.67 511.34 875.93 511.34C878.964 511.34 881.67 511.807 884.05 512.74C886.43 513.627 888.437 514.91 890.07 516.59C891.704 518.223 892.94 520.23 893.78 522.61C894.667 524.99 895.11 527.65 895.11 530.59ZM917.827 549.7C914.793 549.653 912.32 549.327 910.407 548.72C908.54 548.113 907.047 547.273 905.927 546.2C904.853 545.08 904.107 543.75 903.687 542.21C903.313 540.623 903.127 538.85 903.127 536.89V496.36L913.557 494.68V534.79C913.557 535.723 913.627 536.563 913.767 537.31C913.907 538.057 914.163 538.687 914.537 539.2C914.957 539.713 915.54 540.133 916.287 540.46C917.033 540.787 918.037 540.997 919.297 541.09L917.827 549.7ZM940.37 541.72C941.397 541.72 942.377 541.697 943.31 541.65C944.244 541.603 944.99 541.533 945.55 541.44V533.53C945.13 533.437 944.5 533.343 943.66 533.25C942.82 533.157 942.05 533.11 941.35 533.11C940.37 533.11 939.437 533.18 938.55 533.32C937.71 533.413 936.964 533.623 936.31 533.95C935.657 534.277 935.144 534.72 934.77 535.28C934.397 535.84 934.21 536.54 934.21 537.38C934.21 539.013 934.747 540.157 935.82 540.81C936.94 541.417 938.457 541.72 940.37 541.72ZM939.53 511.2C942.61 511.2 945.177 511.55 947.23 512.25C949.284 512.95 950.917 513.953 952.13 515.26C953.39 516.567 954.277 518.153 954.79 520.02C955.304 521.887 955.56 523.963 955.56 526.25V547.95C954.067 548.277 951.99 548.65 949.33 549.07C946.67 549.537 943.45 549.77 939.67 549.77C937.29 549.77 935.12 549.56 933.16 549.14C931.247 548.72 929.59 548.043 928.19 547.11C926.79 546.13 925.717 544.87 924.97 543.33C924.224 541.79 923.85 539.9 923.85 537.66C923.85 535.513 924.27 533.693 925.11 532.2C925.997 530.707 927.164 529.517 928.61 528.63C930.057 527.743 931.714 527.113 933.58 526.74C935.447 526.32 937.384 526.11 939.39 526.11C940.744 526.11 941.934 526.18 942.96 526.32C944.034 526.413 944.897 526.553 945.55 526.74V525.76C945.55 523.987 945.014 522.563 943.94 521.49C942.867 520.417 941 519.88 938.34 519.88C936.567 519.88 934.817 520.02 933.09 520.3C931.364 520.533 929.87 520.883 928.61 521.35L927.28 512.95C927.887 512.763 928.634 512.577 929.52 512.39C930.454 512.157 931.457 511.97 932.53 511.83C933.604 511.643 934.724 511.503 935.89 511.41C937.104 511.27 938.317 511.2 939.53 511.2ZM987.182 521.42C986.248 521.187 985.152 520.953 983.892 520.72C982.632 520.44 981.278 520.3 979.832 520.3C979.178 520.3 978.385 520.37 977.452 520.51C976.565 520.603 975.888 520.72 975.422 520.86V549H964.992V514.14C966.858 513.487 969.052 512.88 971.572 512.32C974.138 511.713 976.985 511.41 980.112 511.41C980.672 511.41 981.348 511.457 982.142 511.55C982.935 511.597 983.728 511.69 984.522 511.83C985.315 511.923 986.108 512.063 986.902 512.25C987.695 512.39 988.372 512.577 988.932 512.81L987.182 521.42ZM992.089 530.87C992.089 527.603 992.579 524.757 993.559 522.33C994.586 519.857 995.916 517.803 997.549 516.17C999.183 514.537 1001.05 513.3 1003.15 512.46C1005.3 511.62 1007.49 511.2 1009.73 511.2C1014.96 511.2 1019.09 512.81 1022.12 516.03C1025.15 519.203 1026.67 523.893 1026.67 530.1C1026.67 530.707 1026.65 531.383 1026.6 532.13C1026.55 532.83 1026.51 533.46 1026.46 534.02H1002.8C1003.03 536.167 1004.04 537.87 1005.81 539.13C1007.58 540.39 1009.96 541.02 1012.95 541.02C1014.86 541.02 1016.73 540.857 1018.55 540.53C1020.42 540.157 1021.93 539.713 1023.1 539.2L1024.5 547.67C1023.94 547.95 1023.19 548.23 1022.26 548.51C1021.33 548.79 1020.28 549.023 1019.11 549.21C1017.99 549.443 1016.78 549.63 1015.47 549.77C1014.16 549.91 1012.86 549.98 1011.55 549.98C1008.24 549.98 1005.34 549.49 1002.87 548.51C1000.44 547.53 998.413 546.2 996.779 544.52C995.193 542.793 994.003 540.763 993.209 538.43C992.463 536.097 992.089 533.577 992.089 530.87ZM1016.59 526.88C1016.54 525.993 1016.38 525.13 1016.1 524.29C1015.87 523.45 1015.47 522.703 1014.91 522.05C1014.4 521.397 1013.72 520.86 1012.88 520.44C1012.09 520.02 1011.08 519.81 1009.87 519.81C1008.7 519.81 1007.7 520.02 1006.86 520.44C1006.02 520.813 1005.32 521.327 1004.76 521.98C1004.2 522.633 1003.76 523.403 1003.43 524.29C1003.15 525.13 1002.94 525.993 1002.8 526.88H1016.59ZM1045.29 541.51C1047.2 541.51 1048.56 541.323 1049.35 540.95C1050.14 540.577 1050.54 539.853 1050.54 538.78C1050.54 537.94 1050.03 537.217 1049 536.61C1047.97 535.957 1046.41 535.233 1044.31 534.44C1042.68 533.833 1041.18 533.203 1039.83 532.55C1038.52 531.897 1037.4 531.127 1036.47 530.24C1035.54 529.307 1034.81 528.21 1034.3 526.95C1033.79 525.69 1033.53 524.173 1033.53 522.4C1033.53 518.947 1034.81 516.217 1037.38 514.21C1039.95 512.203 1043.47 511.2 1047.95 511.2C1050.19 511.2 1052.34 511.41 1054.39 511.83C1056.44 512.203 1058.08 512.623 1059.29 513.09L1057.47 521.21C1056.26 520.79 1054.93 520.417 1053.48 520.09C1052.08 519.763 1050.49 519.6 1048.72 519.6C1045.45 519.6 1043.82 520.51 1043.82 522.33C1043.82 522.75 1043.89 523.123 1044.03 523.45C1044.17 523.777 1044.45 524.103 1044.87 524.43C1045.29 524.71 1045.85 525.037 1046.55 525.41C1047.3 525.737 1048.23 526.11 1049.35 526.53C1051.64 527.37 1053.53 528.21 1055.02 529.05C1056.51 529.843 1057.68 530.73 1058.52 531.71C1059.41 532.643 1060.01 533.693 1060.34 534.86C1060.71 536.027 1060.9 537.38 1060.9 538.92C1060.9 542.56 1059.52 545.313 1056.77 547.18C1054.06 549.047 1050.21 549.98 1045.22 549.98C1041.95 549.98 1039.22 549.7 1037.03 549.14C1034.88 548.58 1033.39 548.113 1032.55 547.74L1034.3 539.27C1036.07 539.97 1037.89 540.53 1039.76 540.95C1041.63 541.323 1043.47 541.51 1045.29 541.51ZM124.79 600.31C124.79 603.53 125.513 606.12 126.96 608.08C128.407 610.04 130.553 611.02 133.4 611.02C134.333 611.02 135.197 610.997 135.99 610.95C136.783 610.857 137.437 610.763 137.95 610.67V591.7C137.297 591.28 136.433 590.93 135.36 590.65C134.333 590.37 133.283 590.23 132.21 590.23C127.263 590.23 124.79 593.59 124.79 600.31ZM148.38 617.81C147.447 618.09 146.373 618.37 145.16 618.65C143.947 618.883 142.663 619.093 141.31 619.28C140.003 619.467 138.65 619.607 137.25 619.7C135.897 619.84 134.59 619.91 133.33 619.91C130.297 619.91 127.59 619.467 125.21 618.58C122.83 617.693 120.823 616.433 119.19 614.8C117.557 613.12 116.297 611.113 115.41 608.78C114.57 606.4 114.15 603.74 114.15 600.8C114.15 597.813 114.523 595.13 115.27 592.75C116.017 590.323 117.09 588.27 118.49 586.59C119.89 584.91 121.593 583.627 123.6 582.74C125.653 581.853 127.987 581.41 130.6 581.41C132.047 581.41 133.33 581.55 134.45 581.83C135.617 582.11 136.783 582.507 137.95 583.02V566.36L148.38 564.68V617.81ZM156.396 600.87C156.396 597.603 156.886 594.757 157.866 592.33C158.893 589.857 160.223 587.803 161.856 586.17C163.489 584.537 165.356 583.3 167.456 582.46C169.603 581.62 171.796 581.2 174.036 581.2C179.263 581.2 183.393 582.81 186.426 586.03C189.459 589.203 190.976 593.893 190.976 600.1C190.976 600.707 190.953 601.383 190.906 602.13C190.859 602.83 190.813 603.46 190.766 604.02H167.106C167.339 606.167 168.343 607.87 170.116 609.13C171.889 610.39 174.269 611.02 177.256 611.02C179.169 611.02 181.036 610.857 182.856 610.53C184.723 610.157 186.239 609.713 187.406 609.2L188.806 617.67C188.246 617.95 187.499 618.23 186.566 618.51C185.633 618.79 184.583 619.023 183.416 619.21C182.296 619.443 181.083 619.63 179.776 619.77C178.469 619.91 177.163 619.98 175.856 619.98C172.543 619.98 169.649 619.49 167.176 618.51C164.749 617.53 162.719 616.2 161.086 614.52C159.499 612.793 158.309 610.763 157.516 608.43C156.769 606.097 156.396 603.577 156.396 600.87ZM180.896 596.88C180.849 595.993 180.686 595.13 180.406 594.29C180.173 593.45 179.776 592.703 179.216 592.05C178.703 591.397 178.026 590.86 177.186 590.44C176.393 590.02 175.389 589.81 174.176 589.81C173.009 589.81 172.006 590.02 171.166 590.44C170.326 590.813 169.626 591.327 169.066 591.98C168.506 592.633 168.063 593.403 167.736 594.29C167.456 595.13 167.246 595.993 167.106 596.88H180.896Z" fill="white"/>
<path d="M226.271 619H215.841V582.18H226.271V619ZM227.251 571.54C227.251 573.453 226.621 574.97 225.361 576.09C224.148 577.163 222.701 577.7 221.021 577.7C219.341 577.7 217.871 577.163 216.611 576.09C215.398 574.97 214.791 573.453 214.791 571.54C214.791 569.627 215.398 568.133 216.611 567.06C217.871 565.94 219.341 565.38 221.021 565.38C222.701 565.38 224.148 565.94 225.361 567.06C226.621 568.133 227.251 569.627 227.251 571.54ZM236.076 583.44C237.849 582.927 240.136 582.46 242.936 582.04C245.736 581.573 248.676 581.34 251.756 581.34C254.882 581.34 257.472 581.76 259.526 582.6C261.626 583.393 263.282 584.537 264.496 586.03C265.709 587.523 266.572 589.297 267.086 591.35C267.599 593.403 267.856 595.69 267.856 598.21V619H257.426V599.47C257.426 596.11 256.982 593.73 256.096 592.33C255.209 590.93 253.552 590.23 251.126 590.23C250.379 590.23 249.586 590.277 248.746 590.37C247.906 590.417 247.159 590.487 246.506 590.58V619H236.076V583.44ZM311.736 600.52C311.736 603.413 311.316 606.073 310.476 608.5C309.636 610.88 308.423 612.933 306.836 614.66C305.25 616.34 303.336 617.647 301.096 618.58C298.903 619.513 296.43 619.98 293.676 619.98C290.97 619.98 288.496 619.513 286.256 618.58C284.063 617.647 282.173 616.34 280.586 614.66C279 612.933 277.763 610.88 276.876 608.5C275.99 606.073 275.546 603.413 275.546 600.52C275.546 597.627 275.99 594.99 276.876 592.61C277.81 590.23 279.07 588.2 280.656 586.52C282.29 584.84 284.203 583.533 286.396 582.6C288.636 581.667 291.063 581.2 293.676 581.2C296.336 581.2 298.763 581.667 300.956 582.6C303.196 583.533 305.11 584.84 306.696 586.52C308.283 588.2 309.52 590.23 310.406 592.61C311.293 594.99 311.736 597.627 311.736 600.52ZM301.096 600.52C301.096 597.3 300.443 594.78 299.136 592.96C297.876 591.093 296.056 590.16 293.676 590.16C291.296 590.16 289.453 591.093 288.146 592.96C286.84 594.78 286.186 597.3 286.186 600.52C286.186 603.74 286.84 606.307 288.146 608.22C289.453 610.087 291.296 611.02 293.676 611.02C296.056 611.02 297.876 610.087 299.136 608.22C300.443 606.307 301.096 603.74 301.096 600.52ZM328.869 619C326.489 614.333 324.062 608.873 321.589 602.62C319.162 596.367 316.852 589.553 314.659 582.18H325.719C326.186 584 326.722 585.983 327.329 588.13C327.982 590.23 328.636 592.377 329.289 594.57C329.989 596.717 330.666 598.817 331.319 600.87C332.019 602.923 332.696 604.79 333.349 606.47C333.956 604.79 334.609 602.923 335.309 600.87C336.009 598.817 336.686 596.717 337.339 594.57C338.039 592.377 338.692 590.23 339.299 588.13C339.952 585.983 340.512 584 340.979 582.18H351.759C349.566 589.553 347.232 596.367 344.759 602.62C342.332 608.873 339.929 614.333 337.549 619H328.869ZM370.732 611.72C371.758 611.72 372.738 611.697 373.672 611.65C374.605 611.603 375.352 611.533 375.912 611.44V603.53C375.492 603.437 374.862 603.343 374.022 603.25C373.182 603.157 372.412 603.11 371.712 603.11C370.732 603.11 369.798 603.18 368.912 603.32C368.072 603.413 367.325 603.623 366.672 603.95C366.018 604.277 365.505 604.72 365.132 605.28C364.758 605.84 364.572 606.54 364.572 607.38C364.572 609.013 365.108 610.157 366.182 610.81C367.302 611.417 368.818 611.72 370.732 611.72ZM369.892 581.2C372.972 581.2 375.538 581.55 377.592 582.25C379.645 582.95 381.278 583.953 382.492 585.26C383.752 586.567 384.638 588.153 385.152 590.02C385.665 591.887 385.922 593.963 385.922 596.25V617.95C384.428 618.277 382.352 618.65 379.692 619.07C377.032 619.537 373.812 619.77 370.032 619.77C367.652 619.77 365.482 619.56 363.522 619.14C361.608 618.72 359.952 618.043 358.552 617.11C357.152 616.13 356.078 614.87 355.332 613.33C354.585 611.79 354.212 609.9 354.212 607.66C354.212 605.513 354.632 603.693 355.472 602.2C356.358 600.707 357.525 599.517 358.972 598.63C360.418 597.743 362.075 597.113 363.942 596.74C365.808 596.32 367.745 596.11 369.752 596.11C371.105 596.11 372.295 596.18 373.322 596.32C374.395 596.413 375.258 596.553 375.912 596.74V595.76C375.912 593.987 375.375 592.563 374.302 591.49C373.228 590.417 371.362 589.88 368.702 589.88C366.928 589.88 365.178 590.02 363.452 590.3C361.725 590.533 360.232 590.883 358.972 591.35L357.642 582.95C358.248 582.763 358.995 582.577 359.882 582.39C360.815 582.157 361.818 581.97 362.892 581.83C363.965 581.643 365.085 581.503 366.252 581.41C367.465 581.27 368.678 581.2 369.892 581.2ZM413.413 621.8C414.906 622.547 415.933 623.433 416.493 624.46C417.053 625.487 417.333 626.537 417.333 627.61C417.333 629.85 416.446 631.553 414.673 632.72C412.9 633.887 410.566 634.47 407.673 634.47C406.646 634.47 405.62 634.377 404.593 634.19C403.566 634.05 402.54 633.84 401.513 633.56L402.773 627.47C403.1 627.563 403.683 627.703 404.523 627.89C405.41 628.123 406.273 628.24 407.113 628.24C407.766 628.24 408.326 628.1 408.793 627.82C409.306 627.587 409.586 627.143 409.633 626.49C409.68 625.93 409.446 625.417 408.933 624.95C408.466 624.483 407.696 624.133 406.623 623.9L405.783 623.69C405.97 623.083 406.226 622.383 406.553 621.59C406.88 620.843 407.206 620.143 407.533 619.49C405.106 619.023 403.006 618.23 401.233 617.11C399.506 615.943 398.06 614.543 396.893 612.91C395.773 611.23 394.933 609.34 394.373 607.24C393.86 605.14 393.603 602.923 393.603 600.59C393.603 597.93 394.023 595.433 394.863 593.1C395.75 590.72 397.01 588.667 398.643 586.94C400.276 585.167 402.26 583.767 404.593 582.74C406.926 581.713 409.586 581.2 412.573 581.2C414.533 581.2 416.33 581.387 417.963 581.76C419.596 582.087 421.183 582.577 422.723 583.23L420.553 591.56C419.573 591.187 418.5 590.86 417.333 590.58C416.166 590.3 414.86 590.16 413.413 590.16C410.333 590.16 408.023 591.117 406.483 593.03C404.99 594.943 404.243 597.463 404.243 600.59C404.243 603.903 404.943 606.47 406.343 608.29C407.79 610.11 410.286 611.02 413.833 611.02C415.093 611.02 416.446 610.903 417.893 610.67C419.34 610.437 420.67 610.063 421.883 609.55L423.353 618.09C422.28 618.557 420.95 618.953 419.363 619.28C417.823 619.607 416.12 619.817 414.253 619.91C414.066 620.283 413.903 620.633 413.763 620.96C413.623 621.287 413.506 621.567 413.413 621.8ZM442.646 611.72C443.672 611.72 444.652 611.697 445.586 611.65C446.519 611.603 447.266 611.533 447.826 611.44V603.53C447.406 603.437 446.776 603.343 445.936 603.25C445.096 603.157 444.326 603.11 443.626 603.11C442.646 603.11 441.712 603.18 440.826 603.32C439.986 603.413 439.239 603.623 438.586 603.95C437.932 604.277 437.419 604.72 437.046 605.28C436.672 605.84 436.486 606.54 436.486 607.38C436.486 609.013 437.022 610.157 438.096 610.81C439.216 611.417 440.732 611.72 442.646 611.72ZM441.806 581.2C444.886 581.2 447.452 581.55 449.506 582.25C451.559 582.95 453.192 583.953 454.406 585.26C455.666 586.567 456.552 588.153 457.066 590.02C457.579 591.887 457.836 593.963 457.836 596.25V617.95C456.342 618.277 454.266 618.65 451.606 619.07C448.946 619.537 445.726 619.77 441.946 619.77C439.566 619.77 437.396 619.56 435.436 619.14C433.522 618.72 431.866 618.043 430.466 617.11C429.066 616.13 427.992 614.87 427.246 613.33C426.499 611.79 426.126 609.9 426.126 607.66C426.126 605.513 426.546 603.693 427.386 602.2C428.272 600.707 429.439 599.517 430.886 598.63C432.332 597.743 433.989 597.113 435.856 596.74C437.722 596.32 439.659 596.11 441.666 596.11C443.019 596.11 444.209 596.18 445.236 596.32C446.309 596.413 447.172 596.553 447.826 596.74V595.76C447.826 593.987 447.289 592.563 446.216 591.49C445.142 590.417 443.276 589.88 440.616 589.88C438.842 589.88 437.092 590.02 435.366 590.3C433.639 590.533 432.146 590.883 430.886 591.35L429.556 582.95C430.162 582.763 430.909 582.577 431.796 582.39C432.729 582.157 433.732 581.97 434.806 581.83C435.879 581.643 436.999 581.503 438.166 581.41C439.379 581.27 440.592 581.2 441.806 581.2ZM455.526 569.37C455.246 570.07 454.849 570.84 454.336 571.68C453.869 572.52 453.286 573.313 452.586 574.06C451.886 574.76 451.092 575.343 450.206 575.81C449.319 576.277 448.339 576.51 447.266 576.51C446.426 576.51 445.632 576.393 444.886 576.16C444.186 575.88 443.486 575.6 442.786 575.32C442.086 574.993 441.386 574.713 440.686 574.48C439.986 574.2 439.262 574.06 438.516 574.06C437.582 574.06 436.812 574.363 436.206 574.97C435.599 575.577 435.109 576.277 434.736 577.07L429.626 573.71C429.906 573.01 430.279 572.24 430.746 571.4C431.259 570.56 431.866 569.79 432.566 569.09C433.266 568.343 434.059 567.737 434.946 567.27C435.832 566.803 436.812 566.57 437.886 566.57C438.726 566.57 439.496 566.71 440.196 566.99C440.942 567.223 441.666 567.503 442.366 567.83C443.066 568.11 443.742 568.39 444.396 568.67C445.096 568.903 445.842 569.02 446.636 569.02C447.569 569.02 448.339 568.717 448.946 568.11C449.552 567.503 450.042 566.803 450.416 566.01L455.526 569.37ZM501.707 600.52C501.707 603.413 501.287 606.073 500.447 608.5C499.607 610.88 498.394 612.933 496.807 614.66C495.221 616.34 493.307 617.647 491.067 618.58C488.874 619.513 486.401 619.98 483.647 619.98C480.941 619.98 478.467 619.513 476.227 618.58C474.034 617.647 472.144 616.34 470.557 614.66C468.971 612.933 467.734 610.88 466.847 608.5C465.961 606.073 465.517 603.413 465.517 600.52C465.517 597.627 465.961 594.99 466.847 592.61C467.781 590.23 469.041 588.2 470.627 586.52C472.261 584.84 474.174 583.533 476.367 582.6C478.607 581.667 481.034 581.2 483.647 581.2C486.307 581.2 488.734 581.667 490.927 582.6C493.167 583.533 495.081 584.84 496.667 586.52C498.254 588.2 499.491 590.23 500.377 592.61C501.264 594.99 501.707 597.627 501.707 600.52ZM491.067 600.52C491.067 597.3 490.414 594.78 489.107 592.96C487.847 591.093 486.027 590.16 483.647 590.16C481.267 590.16 479.424 591.093 478.117 592.96C476.811 594.78 476.157 597.3 476.157 600.52C476.157 603.74 476.811 606.307 478.117 608.22C479.424 610.087 481.267 611.02 483.647 611.02C486.027 611.02 487.847 610.087 489.107 608.22C490.414 606.307 491.067 603.74 491.067 600.52Z" fill="#FFA24B"/>
</g>
<defs>
<clipPath id="clip0_104_358">
<rect width="1300" height="976" fill="white"/>
</clipPath>
</defs>
</svg>
