<svg width="1300" height="976" viewBox="0 0 1300 976" fill="none" xmlns="http://www.w3.org/2000/svg">
<g clip-path="url(#clip0_104_263)">
<path d="M129.97 506.72C130.997 506.72 131.977 506.697 132.91 506.65C133.843 506.603 134.59 506.533 135.15 506.44V498.53C134.73 498.437 134.1 498.343 133.26 498.25C132.42 498.157 131.65 498.11 130.95 498.11C129.97 498.11 129.037 498.18 128.15 498.32C127.31 498.413 126.563 498.623 125.91 498.95C125.257 499.277 124.743 499.72 124.37 500.28C123.997 500.84 123.81 501.54 123.81 502.38C123.81 504.013 124.347 505.157 125.42 505.81C126.54 506.417 128.057 506.72 129.97 506.72ZM129.13 476.2C132.21 476.2 134.777 476.55 136.83 477.25C138.883 477.95 140.517 478.953 141.73 480.26C142.99 481.567 143.877 483.153 144.39 485.02C144.903 486.887 145.16 488.963 145.16 491.25V512.95C143.667 513.277 141.59 513.65 138.93 514.07C136.27 514.537 133.05 514.77 129.27 514.77C126.89 514.77 124.72 514.56 122.76 514.14C120.847 513.72 119.19 513.043 117.79 512.11C116.39 511.13 115.317 509.87 114.57 508.33C113.823 506.79 113.45 504.9 113.45 502.66C113.45 500.513 113.87 498.693 114.71 497.2C115.597 495.707 116.763 494.517 118.21 493.63C119.657 492.743 121.313 492.113 123.18 491.74C125.047 491.32 126.983 491.11 128.99 491.11C130.343 491.11 131.533 491.18 132.56 491.32C133.633 491.413 134.497 491.553 135.15 491.74V490.76C135.15 488.987 134.613 487.563 133.54 486.49C132.467 485.417 130.6 484.88 127.94 484.88C126.167 484.88 124.417 485.02 122.69 485.3C120.963 485.533 119.47 485.883 118.21 486.35L116.88 477.95C117.487 477.763 118.233 477.577 119.12 477.39C120.053 477.157 121.057 476.97 122.13 476.83C123.203 476.643 124.323 476.503 125.49 476.41C126.703 476.27 127.917 476.2 129.13 476.2ZM176.781 486.42C175.848 486.187 174.751 485.953 173.491 485.72C172.231 485.44 170.878 485.3 169.431 485.3C168.778 485.3 167.985 485.37 167.051 485.51C166.165 485.603 165.488 485.72 165.021 485.86V514H154.591V479.14C156.458 478.487 158.651 477.88 161.171 477.32C163.738 476.713 166.585 476.41 169.711 476.41C170.271 476.41 170.948 476.457 171.741 476.55C172.535 476.597 173.328 476.69 174.121 476.83C174.915 476.923 175.708 477.063 176.501 477.25C177.295 477.39 177.971 477.577 178.531 477.81L176.781 486.42ZM192.329 495.87C192.329 502.543 194.802 505.88 199.749 505.88C200.822 505.88 201.872 505.74 202.899 505.46C203.972 505.18 204.836 504.83 205.489 504.41V485.58C204.976 485.487 204.322 485.417 203.529 485.37C202.736 485.277 201.872 485.23 200.939 485.23C198.092 485.23 195.946 486.21 194.499 488.17C193.052 490.083 192.329 492.65 192.329 495.87ZM181.689 495.59C181.689 492.743 182.109 490.153 182.949 487.82C183.836 485.44 185.096 483.41 186.729 481.73C188.362 480.003 190.369 478.673 192.749 477.74C195.129 476.807 197.836 476.34 200.869 476.34C202.129 476.34 203.436 476.41 204.789 476.55C206.189 476.643 207.542 476.783 208.849 476.97C210.202 477.157 211.486 477.39 212.699 477.67C213.912 477.903 214.986 478.16 215.919 478.44V526.95H205.489V513.09C204.322 513.603 203.109 514 201.849 514.28C200.589 514.56 199.236 514.7 197.789 514.7C192.562 514.7 188.572 512.997 185.819 509.59C183.066 506.137 181.689 501.47 181.689 495.59ZM257.115 512.74C255.342 513.253 253.055 513.72 250.255 514.14C247.455 514.607 244.515 514.84 241.435 514.84C238.308 514.84 235.695 514.42 233.595 513.58C231.542 512.74 229.908 511.573 228.695 510.08C227.482 508.54 226.618 506.72 226.105 504.62C225.592 502.52 225.335 500.21 225.335 497.69V477.18H235.765V496.43C235.765 499.79 236.208 502.217 237.095 503.71C237.982 505.203 239.638 505.95 242.065 505.95C242.812 505.95 243.605 505.927 244.445 505.88C245.285 505.787 246.032 505.693 246.685 505.6V477.18H257.115V512.74ZM277.336 514H266.906V477.18H277.336V514ZM278.316 466.54C278.316 468.453 277.686 469.97 276.426 471.09C275.213 472.163 273.766 472.7 272.086 472.7C270.406 472.7 268.936 472.163 267.676 471.09C266.463 469.97 265.856 468.453 265.856 466.54C265.856 464.627 266.463 463.133 267.676 462.06C268.936 460.94 270.406 460.38 272.086 460.38C273.766 460.38 275.213 460.94 276.426 462.06C277.686 463.133 278.316 464.627 278.316 466.54ZM286.79 468.01L297.22 466.33V477.18H309.75V485.86H297.22V498.81C297.22 501.003 297.594 502.753 298.34 504.06C299.134 505.367 300.697 506.02 303.03 506.02C304.15 506.02 305.294 505.927 306.46 505.74C307.674 505.507 308.77 505.203 309.75 504.83L311.22 512.95C309.96 513.463 308.56 513.907 307.02 514.28C305.48 514.653 303.59 514.84 301.35 514.84C298.504 514.84 296.147 514.467 294.28 513.72C292.414 512.927 290.92 511.853 289.8 510.5C288.68 509.1 287.887 507.42 287.42 505.46C287 503.5 286.79 501.33 286.79 498.95V468.01ZM315.127 495.87C315.127 492.603 315.617 489.757 316.597 487.33C317.623 484.857 318.953 482.803 320.587 481.17C322.22 479.537 324.087 478.3 326.187 477.46C328.333 476.62 330.527 476.2 332.767 476.2C337.993 476.2 342.123 477.81 345.157 481.03C348.19 484.203 349.707 488.893 349.707 495.1C349.707 495.707 349.683 496.383 349.637 497.13C349.59 497.83 349.543 498.46 349.497 499.02H325.837C326.07 501.167 327.073 502.87 328.847 504.13C330.62 505.39 333 506.02 335.987 506.02C337.9 506.02 339.767 505.857 341.587 505.53C343.453 505.157 344.97 504.713 346.137 504.2L347.537 512.67C346.977 512.95 346.23 513.23 345.297 513.51C344.363 513.79 343.313 514.023 342.147 514.21C341.027 514.443 339.813 514.63 338.507 514.77C337.2 514.91 335.893 514.98 334.587 514.98C331.273 514.98 328.38 514.49 325.907 513.51C323.48 512.53 321.45 511.2 319.817 509.52C318.23 507.793 317.04 505.763 316.247 503.43C315.5 501.097 315.127 498.577 315.127 495.87ZM339.627 491.88C339.58 490.993 339.417 490.13 339.137 489.29C338.903 488.45 338.507 487.703 337.947 487.05C337.433 486.397 336.757 485.86 335.917 485.44C335.123 485.02 334.12 484.81 332.907 484.81C331.74 484.81 330.737 485.02 329.897 485.44C329.057 485.813 328.357 486.327 327.797 486.98C327.237 487.633 326.793 488.403 326.467 489.29C326.187 490.13 325.977 490.993 325.837 491.88H339.627ZM357.405 468.01L367.835 466.33V477.18H380.365V485.86H367.835V498.81C367.835 501.003 368.209 502.753 368.955 504.06C369.749 505.367 371.312 506.02 373.645 506.02C374.765 506.02 375.909 505.927 377.075 505.74C378.289 505.507 379.385 505.203 380.365 504.83L381.835 512.95C380.575 513.463 379.175 513.907 377.635 514.28C376.095 514.653 374.205 514.84 371.965 514.84C369.119 514.84 366.762 514.467 364.895 513.72C363.029 512.927 361.535 511.853 360.415 510.5C359.295 509.1 358.502 507.42 358.035 505.46C357.615 503.5 357.405 501.33 357.405 498.95V468.01ZM420.289 512.74C418.516 513.253 416.229 513.72 413.429 514.14C410.629 514.607 407.689 514.84 404.609 514.84C401.482 514.84 398.869 514.42 396.769 513.58C394.716 512.74 393.082 511.573 391.869 510.08C390.656 508.54 389.792 506.72 389.279 504.62C388.766 502.52 388.509 500.21 388.509 497.69V477.18H398.939V496.43C398.939 499.79 399.382 502.217 400.269 503.71C401.156 505.203 402.812 505.95 405.239 505.95C405.986 505.95 406.779 505.927 407.619 505.88C408.459 505.787 409.206 505.693 409.859 505.6V477.18H420.289V512.74ZM452.27 486.42C451.336 486.187 450.24 485.953 448.98 485.72C447.72 485.44 446.366 485.3 444.92 485.3C444.266 485.3 443.473 485.37 442.54 485.51C441.653 485.603 440.976 485.72 440.51 485.86V514H430.08V479.14C431.946 478.487 434.14 477.88 436.66 477.32C439.226 476.713 442.073 476.41 445.2 476.41C445.76 476.41 446.436 476.457 447.23 476.55C448.023 476.597 448.816 476.69 449.61 476.83C450.403 476.923 451.196 477.063 451.99 477.25C452.783 477.39 453.46 477.577 454.02 477.81L452.27 486.42ZM472.997 506.72C474.024 506.72 475.004 506.697 475.937 506.65C476.871 506.603 477.617 506.533 478.177 506.44V498.53C477.757 498.437 477.127 498.343 476.287 498.25C475.447 498.157 474.677 498.11 473.977 498.11C472.997 498.11 472.064 498.18 471.177 498.32C470.337 498.413 469.591 498.623 468.937 498.95C468.284 499.277 467.771 499.72 467.397 500.28C467.024 500.84 466.837 501.54 466.837 502.38C466.837 504.013 467.374 505.157 468.447 505.81C469.567 506.417 471.084 506.72 472.997 506.72ZM472.157 476.2C475.237 476.2 477.804 476.55 479.857 477.25C481.911 477.95 483.544 478.953 484.757 480.26C486.017 481.567 486.904 483.153 487.417 485.02C487.931 486.887 488.187 488.963 488.187 491.25V512.95C486.694 513.277 484.617 513.65 481.957 514.07C479.297 514.537 476.077 514.77 472.297 514.77C469.917 514.77 467.747 514.56 465.787 514.14C463.874 513.72 462.217 513.043 460.817 512.11C459.417 511.13 458.344 509.87 457.597 508.33C456.851 506.79 456.477 504.9 456.477 502.66C456.477 500.513 456.897 498.693 457.737 497.2C458.624 495.707 459.791 494.517 461.237 493.63C462.684 492.743 464.341 492.113 466.207 491.74C468.074 491.32 470.011 491.11 472.017 491.11C473.371 491.11 474.561 491.18 475.587 491.32C476.661 491.413 477.524 491.553 478.177 491.74V490.76C478.177 488.987 477.641 487.563 476.567 486.49C475.494 485.417 473.627 484.88 470.967 484.88C469.194 484.88 467.444 485.02 465.717 485.3C463.991 485.533 462.497 485.883 461.237 486.35L459.907 477.95C460.514 477.763 461.261 477.577 462.147 477.39C463.081 477.157 464.084 476.97 465.157 476.83C466.231 476.643 467.351 476.503 468.517 476.41C469.731 476.27 470.944 476.2 472.157 476.2ZM523.325 495.31C523.325 498.53 524.048 501.12 525.495 503.08C526.942 505.04 529.088 506.02 531.935 506.02C532.868 506.02 533.732 505.997 534.525 505.95C535.318 505.857 535.972 505.763 536.485 505.67V486.7C535.832 486.28 534.968 485.93 533.895 485.65C532.868 485.37 531.818 485.23 530.745 485.23C525.798 485.23 523.325 488.59 523.325 495.31ZM546.915 512.81C545.982 513.09 544.908 513.37 543.695 513.65C542.482 513.883 541.198 514.093 539.845 514.28C538.538 514.467 537.185 514.607 535.785 514.7C534.432 514.84 533.125 514.91 531.865 514.91C528.832 514.91 526.125 514.467 523.745 513.58C521.365 512.693 519.358 511.433 517.725 509.8C516.092 508.12 514.832 506.113 513.945 503.78C513.105 501.4 512.685 498.74 512.685 495.8C512.685 492.813 513.058 490.13 513.805 487.75C514.552 485.323 515.625 483.27 517.025 481.59C518.425 479.91 520.128 478.627 522.135 477.74C524.188 476.853 526.522 476.41 529.135 476.41C530.582 476.41 531.865 476.55 532.985 476.83C534.152 477.11 535.318 477.507 536.485 478.02V461.36L546.915 459.68V512.81ZM554.931 495.87C554.931 492.603 555.421 489.757 556.401 487.33C557.428 484.857 558.758 482.803 560.391 481.17C562.025 479.537 563.891 478.3 565.991 477.46C568.138 476.62 570.331 476.2 572.571 476.2C577.798 476.2 581.928 477.81 584.961 481.03C587.995 484.203 589.511 488.893 589.511 495.1C589.511 495.707 589.488 496.383 589.441 497.13C589.395 497.83 589.348 498.46 589.301 499.02H565.641C565.875 501.167 566.878 502.87 568.651 504.13C570.425 505.39 572.805 506.02 575.791 506.02C577.705 506.02 579.571 505.857 581.391 505.53C583.258 505.157 584.775 504.713 585.941 504.2L587.341 512.67C586.781 512.95 586.035 513.23 585.101 513.51C584.168 513.79 583.118 514.023 581.951 514.21C580.831 514.443 579.618 514.63 578.311 514.77C577.005 514.91 575.698 514.98 574.391 514.98C571.078 514.98 568.185 514.49 565.711 513.51C563.285 512.53 561.255 511.2 559.621 509.52C558.035 507.793 556.845 505.763 556.051 503.43C555.305 501.097 554.931 498.577 554.931 495.87ZM579.431 491.88C579.385 490.993 579.221 490.13 578.941 489.29C578.708 488.45 578.311 487.703 577.751 487.05C577.238 486.397 576.561 485.86 575.721 485.44C574.928 485.02 573.925 484.81 572.711 484.81C571.545 484.81 570.541 485.02 569.701 485.44C568.861 485.813 568.161 486.327 567.601 486.98C567.041 487.633 566.598 488.403 566.271 489.29C565.991 490.13 565.781 490.993 565.641 491.88H579.431ZM624.807 514H614.377V477.18H624.807V514ZM625.787 466.54C625.787 468.453 625.157 469.97 623.897 471.09C622.683 472.163 621.237 472.7 619.557 472.7C617.877 472.7 616.407 472.163 615.147 471.09C613.933 469.97 613.327 468.453 613.327 466.54C613.327 464.627 613.933 463.133 615.147 462.06C616.407 460.94 617.877 460.38 619.557 460.38C621.237 460.38 622.683 460.94 623.897 462.06C625.157 463.133 625.787 464.627 625.787 466.54ZM634.611 478.44C636.384 477.927 638.671 477.46 641.471 477.04C644.271 476.573 647.211 476.34 650.291 476.34C653.418 476.34 656.008 476.76 658.061 477.6C660.161 478.393 661.818 479.537 663.031 481.03C664.244 482.523 665.108 484.297 665.621 486.35C666.134 488.403 666.391 490.69 666.391 493.21V514H655.961V494.47C655.961 491.11 655.518 488.73 654.631 487.33C653.744 485.93 652.088 485.23 649.661 485.23C648.914 485.23 648.121 485.277 647.281 485.37C646.441 485.417 645.694 485.487 645.041 485.58V514H634.611V478.44ZM691.792 459.68C693.752 459.68 695.548 459.89 697.182 460.31C698.815 460.683 700.075 461.057 700.962 461.43L698.932 469.76C697.998 469.34 696.972 469.037 695.852 468.85C694.778 468.617 693.775 468.5 692.842 468.5C691.582 468.5 690.508 468.687 689.622 469.06C688.782 469.387 688.105 469.853 687.592 470.46C687.125 471.067 686.775 471.79 686.542 472.63C686.355 473.47 686.262 474.38 686.262 475.36V477.18H699.142V485.86H686.262V514H675.832V475.22C675.832 470.46 677.162 466.68 679.822 463.88C682.528 461.08 686.518 459.68 691.792 459.68ZM739.256 495.52C739.256 498.413 738.836 501.073 737.996 503.5C737.156 505.88 735.943 507.933 734.356 509.66C732.769 511.34 730.856 512.647 728.616 513.58C726.423 514.513 723.949 514.98 721.196 514.98C718.489 514.98 716.016 514.513 713.776 513.58C711.583 512.647 709.693 511.34 708.106 509.66C706.519 507.933 705.283 505.88 704.396 503.5C703.509 501.073 703.066 498.413 703.066 495.52C703.066 492.627 703.509 489.99 704.396 487.61C705.329 485.23 706.589 483.2 708.176 481.52C709.809 479.84 711.723 478.533 713.916 477.6C716.156 476.667 718.583 476.2 721.196 476.2C723.856 476.2 726.283 476.667 728.476 477.6C730.716 478.533 732.629 479.84 734.216 481.52C735.803 483.2 737.039 485.23 737.926 487.61C738.813 489.99 739.256 492.627 739.256 495.52ZM728.616 495.52C728.616 492.3 727.963 489.78 726.656 487.96C725.396 486.093 723.576 485.16 721.196 485.16C718.816 485.16 716.973 486.093 715.666 487.96C714.359 489.78 713.706 492.3 713.706 495.52C713.706 498.74 714.359 501.307 715.666 503.22C716.973 505.087 718.816 506.02 721.196 506.02C723.576 506.02 725.396 505.087 726.656 503.22C727.963 501.307 728.616 498.74 728.616 495.52ZM769.526 486.42C768.592 486.187 767.496 485.953 766.236 485.72C764.976 485.44 763.622 485.3 762.176 485.3C761.522 485.3 760.729 485.37 759.796 485.51C758.909 485.603 758.232 485.72 757.766 485.86V514H747.336V479.14C749.202 478.487 751.396 477.88 753.916 477.32C756.482 476.713 759.329 476.41 762.456 476.41C763.016 476.41 763.692 476.457 764.486 476.55C765.279 476.597 766.072 476.69 766.866 476.83C767.659 476.923 768.452 477.063 769.246 477.25C770.039 477.39 770.716 477.577 771.276 477.81L769.526 486.42ZM797.097 494.47C797.097 491.11 796.653 488.73 795.767 487.33C794.927 485.93 793.457 485.23 791.357 485.23C790.703 485.23 790.027 485.277 789.327 485.37C788.627 485.417 787.95 485.487 787.297 485.58V514H776.867V478.44C777.753 478.207 778.78 477.973 779.947 477.74C781.16 477.46 782.42 477.227 783.727 477.04C785.08 476.807 786.457 476.643 787.857 476.55C789.257 476.41 790.633 476.34 791.987 476.34C794.647 476.34 796.793 476.69 798.427 477.39C800.107 478.043 801.483 478.837 802.557 479.77C804.05 478.697 805.753 477.857 807.667 477.25C809.627 476.643 811.423 476.34 813.057 476.34C815.997 476.34 818.4 476.76 820.267 477.6C822.18 478.393 823.697 479.537 824.817 481.03C825.937 482.523 826.707 484.297 827.127 486.35C827.547 488.403 827.757 490.69 827.757 493.21V514H817.327V494.47C817.327 491.11 816.883 488.73 815.997 487.33C815.157 485.93 813.687 485.23 811.587 485.23C811.027 485.23 810.233 485.37 809.207 485.65C808.227 485.93 807.41 486.28 806.757 486.7C807.083 487.773 807.293 488.917 807.387 490.13C807.48 491.297 807.527 492.557 807.527 493.91V514H797.097V494.47ZM851.298 506.72C852.325 506.72 853.305 506.697 854.238 506.65C855.171 506.603 855.918 506.533 856.478 506.44V498.53C856.058 498.437 855.428 498.343 854.588 498.25C853.748 498.157 852.978 498.11 852.278 498.11C851.298 498.11 850.365 498.18 849.478 498.32C848.638 498.413 847.891 498.623 847.238 498.95C846.585 499.277 846.071 499.72 845.698 500.28C845.325 500.84 845.138 501.54 845.138 502.38C845.138 504.013 845.675 505.157 846.748 505.81C847.868 506.417 849.385 506.72 851.298 506.72ZM850.458 476.2C853.538 476.2 856.105 476.55 858.158 477.25C860.211 477.95 861.845 478.953 863.058 480.26C864.318 481.567 865.205 483.153 865.718 485.02C866.231 486.887 866.488 488.963 866.488 491.25V512.95C864.995 513.277 862.918 513.65 860.258 514.07C857.598 514.537 854.378 514.77 850.598 514.77C848.218 514.77 846.048 514.56 844.088 514.14C842.175 513.72 840.518 513.043 839.118 512.11C837.718 511.13 836.645 509.87 835.898 508.33C835.151 506.79 834.778 504.9 834.778 502.66C834.778 500.513 835.198 498.693 836.038 497.2C836.925 495.707 838.091 494.517 839.538 493.63C840.985 492.743 842.641 492.113 844.508 491.74C846.375 491.32 848.311 491.11 850.318 491.11C851.671 491.11 852.861 491.18 853.888 491.32C854.961 491.413 855.825 491.553 856.478 491.74V490.76C856.478 488.987 855.941 487.563 854.868 486.49C853.795 485.417 851.928 484.88 849.268 484.88C847.495 484.88 845.745 485.02 844.018 485.3C842.291 485.533 840.798 485.883 839.538 486.35L838.208 477.95C838.815 477.763 839.561 477.577 840.448 477.39C841.381 477.157 842.385 476.97 843.458 476.83C844.531 476.643 845.651 476.503 846.818 476.41C848.031 476.27 849.245 476.2 850.458 476.2ZM893.98 516.8C895.473 517.547 896.5 518.433 897.06 519.46C897.62 520.487 897.9 521.537 897.9 522.61C897.9 524.85 897.013 526.553 895.24 527.72C893.466 528.887 891.133 529.47 888.24 529.47C887.213 529.47 886.186 529.377 885.16 529.19C884.133 529.05 883.106 528.84 882.08 528.56L883.34 522.47C883.666 522.563 884.25 522.703 885.09 522.89C885.976 523.123 886.84 523.24 887.68 523.24C888.333 523.24 888.893 523.1 889.36 522.82C889.873 522.587 890.153 522.143 890.2 521.49C890.246 520.93 890.013 520.417 889.5 519.95C889.033 519.483 888.263 519.133 887.19 518.9L886.35 518.69C886.536 518.083 886.793 517.383 887.12 516.59C887.446 515.843 887.773 515.143 888.1 514.49C885.673 514.023 883.573 513.23 881.8 512.11C880.073 510.943 878.626 509.543 877.46 507.91C876.34 506.23 875.5 504.34 874.94 502.24C874.426 500.14 874.17 497.923 874.17 495.59C874.17 492.93 874.59 490.433 875.43 488.1C876.316 485.72 877.576 483.667 879.21 481.94C880.843 480.167 882.826 478.767 885.16 477.74C887.493 476.713 890.153 476.2 893.14 476.2C895.1 476.2 896.896 476.387 898.53 476.76C900.163 477.087 901.75 477.577 903.29 478.23L901.12 486.56C900.14 486.187 899.066 485.86 897.9 485.58C896.733 485.3 895.426 485.16 893.98 485.16C890.9 485.16 888.59 486.117 887.05 488.03C885.556 489.943 884.81 492.463 884.81 495.59C884.81 498.903 885.51 501.47 886.91 503.29C888.356 505.11 890.853 506.02 894.4 506.02C895.66 506.02 897.013 505.903 898.46 505.67C899.906 505.437 901.236 505.063 902.45 504.55L903.92 513.09C902.846 513.557 901.516 513.953 899.93 514.28C898.39 514.607 896.686 514.817 894.82 514.91C894.633 515.283 894.47 515.633 894.33 515.96C894.19 516.287 894.073 516.567 893.98 516.8ZM923.212 506.72C924.239 506.72 925.219 506.697 926.152 506.65C927.086 506.603 927.832 506.533 928.392 506.44V498.53C927.972 498.437 927.342 498.343 926.502 498.25C925.662 498.157 924.892 498.11 924.192 498.11C923.212 498.11 922.279 498.18 921.392 498.32C920.552 498.413 919.806 498.623 919.152 498.95C918.499 499.277 917.986 499.72 917.612 500.28C917.239 500.84 917.052 501.54 917.052 502.38C917.052 504.013 917.589 505.157 918.662 505.81C919.782 506.417 921.299 506.72 923.212 506.72ZM922.372 476.2C925.452 476.2 928.019 476.55 930.072 477.25C932.126 477.95 933.759 478.953 934.972 480.26C936.232 481.567 937.119 483.153 937.632 485.02C938.146 486.887 938.402 488.963 938.402 491.25V512.95C936.909 513.277 934.832 513.65 932.172 514.07C929.512 514.537 926.292 514.77 922.512 514.77C920.132 514.77 917.962 514.56 916.002 514.14C914.089 513.72 912.432 513.043 911.032 512.11C909.632 511.13 908.559 509.87 907.812 508.33C907.066 506.79 906.692 504.9 906.692 502.66C906.692 500.513 907.112 498.693 907.952 497.2C908.839 495.707 910.006 494.517 911.452 493.63C912.899 492.743 914.556 492.113 916.422 491.74C918.289 491.32 920.226 491.11 922.232 491.11C923.586 491.11 924.776 491.18 925.802 491.32C926.876 491.413 927.739 491.553 928.392 491.74V490.76C928.392 488.987 927.856 487.563 926.782 486.49C925.709 485.417 923.842 484.88 921.182 484.88C919.409 484.88 917.659 485.02 915.932 485.3C914.206 485.533 912.712 485.883 911.452 486.35L910.122 477.95C910.729 477.763 911.476 477.577 912.362 477.39C913.296 477.157 914.299 476.97 915.372 476.83C916.446 476.643 917.566 476.503 918.732 476.41C919.946 476.27 921.159 476.2 922.372 476.2ZM936.092 464.37C935.812 465.07 935.416 465.84 934.902 466.68C934.436 467.52 933.852 468.313 933.152 469.06C932.452 469.76 931.659 470.343 930.772 470.81C929.886 471.277 928.906 471.51 927.832 471.51C926.992 471.51 926.199 471.393 925.452 471.16C924.752 470.88 924.052 470.6 923.352 470.32C922.652 469.993 921.952 469.713 921.252 469.48C920.552 469.2 919.829 469.06 919.082 469.06C918.149 469.06 917.379 469.363 916.772 469.97C916.166 470.577 915.676 471.277 915.302 472.07L910.192 468.71C910.472 468.01 910.846 467.24 911.312 466.4C911.826 465.56 912.432 464.79 913.132 464.09C913.832 463.343 914.626 462.737 915.512 462.27C916.399 461.803 917.379 461.57 918.452 461.57C919.292 461.57 920.062 461.71 920.762 461.99C921.509 462.223 922.232 462.503 922.932 462.83C923.632 463.11 924.309 463.39 924.962 463.67C925.662 463.903 926.409 464.02 927.202 464.02C928.136 464.02 928.906 463.717 929.512 463.11C930.119 462.503 930.609 461.803 930.982 461.01L936.092 464.37ZM982.274 495.52C982.274 498.413 981.854 501.073 981.014 503.5C980.174 505.88 978.96 507.933 977.374 509.66C975.787 511.34 973.874 512.647 971.634 513.58C969.44 514.513 966.967 514.98 964.214 514.98C961.507 514.98 959.034 514.513 956.794 513.58C954.6 512.647 952.71 511.34 951.124 509.66C949.537 507.933 948.3 505.88 947.414 503.5C946.527 501.073 946.084 498.413 946.084 495.52C946.084 492.627 946.527 489.99 947.414 487.61C948.347 485.23 949.607 483.2 951.194 481.52C952.827 479.84 954.74 478.533 956.934 477.6C959.174 476.667 961.6 476.2 964.214 476.2C966.874 476.2 969.3 476.667 971.494 477.6C973.734 478.533 975.647 479.84 977.234 481.52C978.82 483.2 980.057 485.23 980.944 487.61C981.83 489.99 982.274 492.627 982.274 495.52ZM971.634 495.52C971.634 492.3 970.98 489.78 969.674 487.96C968.414 486.093 966.594 485.16 964.214 485.16C961.834 485.16 959.99 486.093 958.684 487.96C957.377 489.78 956.724 492.3 956.724 495.52C956.724 498.74 957.377 501.307 958.684 503.22C959.99 505.087 961.834 506.02 964.214 506.02C966.594 506.02 968.414 505.087 969.674 503.22C970.98 501.307 971.634 498.74 971.634 495.52Z" fill="#FFA24B"/>
</g>
<defs>
<clipPath id="clip0_104_263">
<rect width="1300" height="976" fill="white"/>
</clipPath>
</defs>
</svg>
