<svg width="1300" height="976" viewBox="0 0 1300 976" fill="none" xmlns="http://www.w3.org/2000/svg">
<g clip-path="url(#clip0_104_373)">
<rect x="-76" y="-52" width="1484" height="1096" fill="black"/>
<path d="M355.15 425.87C355.15 422.603 355.64 419.757 356.62 417.33C357.647 414.857 358.977 412.803 360.61 411.17C362.243 409.537 364.11 408.3 366.21 407.46C368.357 406.62 370.55 406.2 372.79 406.2C378.017 406.2 382.147 407.81 385.18 411.03C388.213 414.203 389.73 418.893 389.73 425.1C389.73 425.707 389.707 426.383 389.66 427.13C389.613 427.83 389.567 428.46 389.52 429.02H365.86C366.093 431.167 367.097 432.87 368.87 434.13C370.643 435.39 373.023 436.02 376.01 436.02C377.923 436.02 379.79 435.857 381.61 435.53C383.477 435.157 384.993 434.713 386.16 434.2L387.56 442.67C387 442.95 386.253 443.23 385.32 443.51C384.387 443.79 383.337 444.023 382.17 444.21C381.05 444.443 379.837 444.63 378.53 444.77C377.223 444.91 375.917 444.98 374.61 444.98C371.297 444.98 368.403 444.49 365.93 443.51C363.503 442.53 361.473 441.2 359.84 439.52C358.253 437.793 357.063 435.763 356.27 433.43C355.523 431.097 355.15 428.577 355.15 425.87ZM379.65 421.88C379.603 420.993 379.44 420.13 379.16 419.29C378.927 418.45 378.53 417.703 377.97 417.05C377.457 416.397 376.78 415.86 375.94 415.44C375.147 415.02 374.143 414.81 372.93 414.81C371.763 414.81 370.76 415.02 369.92 415.44C369.08 415.813 368.38 416.327 367.82 416.98C367.26 417.633 366.817 418.403 366.49 419.29C366.21 420.13 366 420.993 365.86 421.88H379.65ZM408.349 436.51C410.262 436.51 411.616 436.323 412.409 435.95C413.202 435.577 413.599 434.853 413.599 433.78C413.599 432.94 413.086 432.217 412.059 431.61C411.032 430.957 409.469 430.233 407.369 429.44C405.736 428.833 404.242 428.203 402.889 427.55C401.582 426.897 400.462 426.127 399.529 425.24C398.596 424.307 397.872 423.21 397.359 421.95C396.846 420.69 396.589 419.173 396.589 417.4C396.589 413.947 397.872 411.217 400.439 409.21C403.006 407.203 406.529 406.2 411.009 406.2C413.249 406.2 415.396 406.41 417.449 406.83C419.502 407.203 421.136 407.623 422.349 408.09L420.529 416.21C419.316 415.79 417.986 415.417 416.539 415.09C415.139 414.763 413.552 414.6 411.779 414.6C408.512 414.6 406.879 415.51 406.879 417.33C406.879 417.75 406.949 418.123 407.089 418.45C407.229 418.777 407.509 419.103 407.929 419.43C408.349 419.71 408.909 420.037 409.609 420.41C410.356 420.737 411.289 421.11 412.409 421.53C414.696 422.37 416.586 423.21 418.079 424.05C419.572 424.843 420.739 425.73 421.579 426.71C422.466 427.643 423.072 428.693 423.399 429.86C423.772 431.027 423.959 432.38 423.959 433.92C423.959 437.56 422.582 440.313 419.829 442.18C417.122 444.047 413.272 444.98 408.279 444.98C405.012 444.98 402.282 444.7 400.089 444.14C397.942 443.58 396.449 443.113 395.609 442.74L397.359 434.27C399.132 434.97 400.952 435.53 402.819 435.95C404.686 436.323 406.529 436.51 408.349 436.51ZM431.404 398.01L441.834 396.33V407.18H454.364V415.86H441.834V428.81C441.834 431.003 442.207 432.753 442.954 434.06C443.747 435.367 445.31 436.02 447.644 436.02C448.764 436.02 449.907 435.927 451.074 435.74C452.287 435.507 453.384 435.203 454.364 434.83L455.834 442.95C454.574 443.463 453.174 443.907 451.634 444.28C450.094 444.653 448.204 444.84 445.964 444.84C443.117 444.84 440.76 444.467 438.894 443.72C437.027 442.927 435.534 441.853 434.414 440.5C433.294 439.1 432.5 437.42 432.034 435.46C431.614 433.5 431.404 431.33 431.404 428.95V398.01ZM459.74 425.87C459.74 422.603 460.23 419.757 461.21 417.33C462.237 414.857 463.567 412.803 465.2 411.17C466.833 409.537 468.7 408.3 470.8 407.46C472.947 406.62 475.14 406.2 477.38 406.2C482.607 406.2 486.737 407.81 489.77 411.03C492.803 414.203 494.32 418.893 494.32 425.1C494.32 425.707 494.297 426.383 494.25 427.13C494.203 427.83 494.157 428.46 494.11 429.02H470.45C470.683 431.167 471.687 432.87 473.46 434.13C475.233 435.39 477.613 436.02 480.6 436.02C482.513 436.02 484.38 435.857 486.2 435.53C488.067 435.157 489.583 434.713 490.75 434.2L492.15 442.67C491.59 442.95 490.843 443.23 489.91 443.51C488.977 443.79 487.927 444.023 486.76 444.21C485.64 444.443 484.427 444.63 483.12 444.77C481.813 444.91 480.507 444.98 479.2 444.98C475.887 444.98 472.993 444.49 470.52 443.51C468.093 442.53 466.063 441.2 464.43 439.52C462.843 437.793 461.653 435.763 460.86 433.43C460.113 431.097 459.74 428.577 459.74 425.87ZM484.24 421.88C484.193 420.993 484.03 420.13 483.75 419.29C483.517 418.45 483.12 417.703 482.56 417.05C482.047 416.397 481.37 415.86 480.53 415.44C479.737 415.02 478.733 414.81 477.52 414.81C476.353 414.81 475.35 415.02 474.51 415.44C473.67 415.813 472.97 416.327 472.41 416.98C471.85 417.633 471.407 418.403 471.08 419.29C470.8 420.13 470.59 420.993 470.45 421.88H484.24ZM535.145 389.68C537.105 389.68 538.902 389.89 540.535 390.31C542.168 390.683 543.428 391.057 544.315 391.43L542.285 399.76C541.352 399.34 540.325 399.037 539.205 398.85C538.132 398.617 537.128 398.5 536.195 398.5C534.935 398.5 533.862 398.687 532.975 399.06C532.135 399.387 531.458 399.853 530.945 400.46C530.478 401.067 530.128 401.79 529.895 402.63C529.708 403.47 529.615 404.38 529.615 405.36V407.18H542.495V415.86H529.615V444H519.185V405.22C519.185 400.46 520.515 396.68 523.175 393.88C525.882 391.08 529.872 389.68 535.145 389.68ZM582.61 425.52C582.61 428.413 582.19 431.073 581.35 433.5C580.51 435.88 579.296 437.933 577.71 439.66C576.123 441.34 574.21 442.647 571.97 443.58C569.776 444.513 567.303 444.98 564.55 444.98C561.843 444.98 559.37 444.513 557.13 443.58C554.936 442.647 553.046 441.34 551.46 439.66C549.873 437.933 548.636 435.88 547.75 433.5C546.863 431.073 546.42 428.413 546.42 425.52C546.42 422.627 546.863 419.99 547.75 417.61C548.683 415.23 549.943 413.2 551.53 411.52C553.163 409.84 555.076 408.533 557.27 407.6C559.51 406.667 561.936 406.2 564.55 406.2C567.21 406.2 569.636 406.667 571.83 407.6C574.07 408.533 575.983 409.84 577.57 411.52C579.156 413.2 580.393 415.23 581.28 417.61C582.166 419.99 582.61 422.627 582.61 425.52ZM571.97 425.52C571.97 422.3 571.316 419.78 570.01 417.96C568.75 416.093 566.93 415.16 564.55 415.16C562.17 415.16 560.326 416.093 559.02 417.96C557.713 419.78 557.06 422.3 557.06 425.52C557.06 428.74 557.713 431.307 559.02 433.22C560.326 435.087 562.17 436.02 564.55 436.02C566.93 436.02 568.75 435.087 570.01 433.22C571.316 431.307 571.97 428.74 571.97 425.52ZM601.119 444H590.689V407.18H601.119V444ZM602.099 396.54C602.099 398.453 601.469 399.97 600.209 401.09C598.996 402.163 597.549 402.7 595.869 402.7C594.189 402.7 592.719 402.163 591.459 401.09C590.246 399.97 589.639 398.453 589.639 396.54C589.639 394.627 590.246 393.133 591.459 392.06C592.719 390.94 594.189 390.38 595.869 390.38C597.549 390.38 598.996 390.94 600.209 392.06C601.469 393.133 602.099 394.627 602.099 396.54ZM662.18 425.52C662.18 428.413 661.76 431.073 660.92 433.5C660.08 435.88 658.867 437.933 657.28 439.66C655.693 441.34 653.78 442.647 651.54 443.58C649.347 444.513 646.873 444.98 644.12 444.98C641.413 444.98 638.94 444.513 636.7 443.58C634.507 442.647 632.617 441.34 631.03 439.66C629.443 437.933 628.207 435.88 627.32 433.5C626.433 431.073 625.99 428.413 625.99 425.52C625.99 422.627 626.433 419.99 627.32 417.61C628.253 415.23 629.513 413.2 631.1 411.52C632.733 409.84 634.647 408.533 636.84 407.6C639.08 406.667 641.507 406.2 644.12 406.2C646.78 406.2 649.207 406.667 651.4 407.6C653.64 408.533 655.553 409.84 657.14 411.52C658.727 413.2 659.963 415.23 660.85 417.61C661.737 419.99 662.18 422.627 662.18 425.52ZM651.54 425.52C651.54 422.3 650.887 419.78 649.58 417.96C648.32 416.093 646.5 415.16 644.12 415.16C641.74 415.16 639.897 416.093 638.59 417.96C637.283 419.78 636.63 422.3 636.63 425.52C636.63 428.74 637.283 431.307 638.59 433.22C639.897 435.087 641.74 436.02 644.12 436.02C646.5 436.02 648.32 435.087 649.58 433.22C650.887 431.307 651.54 428.74 651.54 425.52ZM710.666 425.87C710.666 422.65 709.942 420.083 708.496 418.17C707.049 416.21 704.902 415.23 702.056 415.23C701.122 415.23 700.259 415.277 699.466 415.37C698.672 415.417 698.019 415.487 697.506 415.58V434.41C698.159 434.83 698.999 435.18 700.026 435.46C701.099 435.74 702.172 435.88 703.246 435.88C708.192 435.88 710.666 432.543 710.666 425.87ZM721.306 425.59C721.306 428.437 720.956 431.027 720.256 433.36C719.556 435.693 718.529 437.7 717.176 439.38C715.822 441.06 714.142 442.367 712.136 443.3C710.129 444.233 707.819 444.7 705.206 444.7C703.759 444.7 702.406 444.56 701.146 444.28C699.886 444 698.672 443.603 697.506 443.09V456.95H687.076V408.44C688.009 408.16 689.082 407.903 690.296 407.67C691.509 407.39 692.769 407.157 694.076 406.97C695.429 406.783 696.782 406.643 698.136 406.55C699.536 406.41 700.866 406.34 702.126 406.34C705.159 406.34 707.866 406.807 710.246 407.74C712.626 408.627 714.632 409.91 716.266 411.59C717.899 413.223 719.136 415.23 719.976 417.61C720.862 419.99 721.306 422.65 721.306 425.59ZM751.512 416.42C750.579 416.187 749.482 415.953 748.222 415.72C746.962 415.44 745.609 415.3 744.162 415.3C743.509 415.3 742.715 415.37 741.782 415.51C740.895 415.603 740.219 415.72 739.752 415.86V444H729.322V409.14C731.189 408.487 733.382 407.88 735.902 407.32C738.469 406.713 741.315 406.41 744.442 406.41C745.002 406.41 745.679 406.457 746.472 406.55C747.265 406.597 748.059 406.69 748.852 406.83C749.645 406.923 750.439 407.063 751.232 407.25C752.025 407.39 752.702 407.577 753.262 407.81L751.512 416.42ZM792.61 425.52C792.61 428.413 792.19 431.073 791.35 433.5C790.51 435.88 789.296 437.933 787.71 439.66C786.123 441.34 784.21 442.647 781.97 443.58C779.776 444.513 777.303 444.98 774.55 444.98C771.843 444.98 769.37 444.513 767.13 443.58C764.936 442.647 763.046 441.34 761.46 439.66C759.873 437.933 758.636 435.88 757.75 433.5C756.863 431.073 756.42 428.413 756.42 425.52C756.42 422.627 756.863 419.99 757.75 417.61C758.683 415.23 759.943 413.2 761.53 411.52C763.163 409.84 765.076 408.533 767.27 407.6C769.51 406.667 771.936 406.2 774.55 406.2C777.21 406.2 779.636 406.667 781.83 407.6C784.07 408.533 785.983 409.84 787.57 411.52C789.156 413.2 790.393 415.23 791.28 417.61C792.166 419.99 792.61 422.627 792.61 425.52ZM781.97 425.52C781.97 422.3 781.316 419.78 780.01 417.96C778.75 416.093 776.93 415.16 774.55 415.16C772.17 415.16 770.326 416.093 769.02 417.96C767.713 419.78 767.06 422.3 767.06 425.52C767.06 428.74 767.713 431.307 769.02 433.22C770.326 435.087 772.17 436.02 774.55 436.02C776.93 436.02 778.75 435.087 780.01 433.22C781.316 431.307 781.97 428.74 781.97 425.52ZM783.16 393.95L771.61 403.68L766.85 399.41L776.79 388.07L783.16 393.95ZM824.279 425.87C824.279 422.65 823.556 420.083 822.109 418.17C820.662 416.21 818.516 415.23 815.669 415.23C814.736 415.23 813.872 415.277 813.079 415.37C812.286 415.417 811.632 415.487 811.119 415.58V434.41C811.772 434.83 812.612 435.18 813.639 435.46C814.712 435.74 815.786 435.88 816.859 435.88C821.806 435.88 824.279 432.543 824.279 425.87ZM834.919 425.59C834.919 428.437 834.569 431.027 833.869 433.36C833.169 435.693 832.142 437.7 830.789 439.38C829.436 441.06 827.756 442.367 825.749 443.3C823.742 444.233 821.432 444.7 818.819 444.7C817.372 444.7 816.019 444.56 814.759 444.28C813.499 444 812.286 443.603 811.119 443.09V456.95H800.689V408.44C801.622 408.16 802.696 407.903 803.909 407.67C805.122 407.39 806.382 407.157 807.689 406.97C809.042 406.783 810.396 406.643 811.749 406.55C813.149 406.41 814.479 406.34 815.739 406.34C818.772 406.34 821.479 406.807 823.859 407.74C826.239 408.627 828.246 409.91 829.879 411.59C831.512 413.223 832.749 415.23 833.589 417.61C834.476 419.99 834.919 422.65 834.919 425.59ZM865.125 416.42C864.192 416.187 863.095 415.953 861.835 415.72C860.575 415.44 859.222 415.3 857.775 415.3C857.122 415.3 856.328 415.37 855.395 415.51C854.508 415.603 853.832 415.72 853.365 415.86V444H842.935V409.14C844.802 408.487 846.995 407.88 849.515 407.32C852.082 406.713 854.928 406.41 858.055 406.41C858.615 406.41 859.292 406.457 860.085 406.55C860.878 406.597 861.672 406.69 862.465 406.83C863.258 406.923 864.052 407.063 864.845 407.25C865.638 407.39 866.315 407.577 866.875 407.81L865.125 416.42ZM882.896 444H872.466V407.18H882.896V444ZM883.876 396.54C883.876 398.453 883.246 399.97 881.986 401.09C880.773 402.163 879.326 402.7 877.646 402.7C875.966 402.7 874.496 402.163 873.236 401.09C872.023 399.97 871.416 398.453 871.416 396.54C871.416 394.627 872.023 393.133 873.236 392.06C874.496 390.94 875.966 390.38 877.646 390.38C879.326 390.38 880.773 390.94 881.986 392.06C883.246 393.133 883.876 394.627 883.876 396.54ZM927.141 425.52C927.141 428.413 926.721 431.073 925.881 433.5C925.041 435.88 923.827 437.933 922.241 439.66C920.654 441.34 918.741 442.647 916.501 443.58C914.307 444.513 911.834 444.98 909.081 444.98C906.374 444.98 903.901 444.513 901.661 443.58C899.467 442.647 897.577 441.34 895.991 439.66C894.404 437.933 893.167 435.88 892.281 433.5C891.394 431.073 890.951 428.413 890.951 425.52C890.951 422.627 891.394 419.99 892.281 417.61C893.214 415.23 894.474 413.2 896.061 411.52C897.694 409.84 899.607 408.533 901.801 407.6C904.041 406.667 906.467 406.2 909.081 406.2C911.741 406.2 914.167 406.667 916.361 407.6C918.601 408.533 920.514 409.84 922.101 411.52C923.687 413.2 924.924 415.23 925.811 417.61C926.697 419.99 927.141 422.627 927.141 425.52ZM916.501 425.52C916.501 422.3 915.847 419.78 914.541 417.96C913.281 416.093 911.461 415.16 909.081 415.16C906.701 415.16 904.857 416.093 903.551 417.96C902.244 419.78 901.591 422.3 901.591 425.52C901.591 428.74 902.244 431.307 903.551 433.22C904.857 435.087 906.701 436.02 909.081 436.02C911.461 436.02 913.281 435.087 914.541 433.22C915.847 431.307 916.501 428.74 916.501 425.52ZM975.627 425.87C975.627 422.65 974.903 420.083 973.457 418.17C972.01 416.21 969.863 415.23 967.017 415.23C966.083 415.23 965.22 415.277 964.427 415.37C963.633 415.417 962.98 415.487 962.467 415.58V434.41C963.12 434.83 963.96 435.18 964.987 435.46C966.06 435.74 967.133 435.88 968.207 435.88C973.153 435.88 975.627 432.543 975.627 425.87ZM986.267 425.59C986.267 428.437 985.917 431.027 985.217 433.36C984.517 435.693 983.49 437.7 982.137 439.38C980.783 441.06 979.103 442.367 977.097 443.3C975.09 444.233 972.78 444.7 970.167 444.7C968.72 444.7 967.367 444.56 966.107 444.28C964.847 444 963.633 443.603 962.467 443.09V456.95H952.037V408.44C952.97 408.16 954.043 407.903 955.257 407.67C956.47 407.39 957.73 407.157 959.037 406.97C960.39 406.783 961.743 406.643 963.097 406.55C964.497 406.41 965.827 406.34 967.087 406.34C970.12 406.34 972.827 406.807 975.207 407.74C977.587 408.627 979.593 409.91 981.227 411.59C982.86 413.223 984.097 415.23 984.937 417.61C985.823 419.99 986.267 422.65 986.267 425.59ZM1008.35 436.72C1009.38 436.72 1010.36 436.697 1011.29 436.65C1012.23 436.603 1012.97 436.533 1013.53 436.44V428.53C1013.11 428.437 1012.48 428.343 1011.64 428.25C1010.8 428.157 1010.03 428.11 1009.33 428.11C1008.35 428.11 1007.42 428.18 1006.53 428.32C1005.69 428.413 1004.95 428.623 1004.29 428.95C1003.64 429.277 1003.13 429.72 1002.75 430.28C1002.38 430.84 1002.19 431.54 1002.19 432.38C1002.19 434.013 1002.73 435.157 1003.8 435.81C1004.92 436.417 1006.44 436.72 1008.35 436.72ZM1007.51 406.2C1010.59 406.2 1013.16 406.55 1015.21 407.25C1017.27 407.95 1018.9 408.953 1020.11 410.26C1021.37 411.567 1022.26 413.153 1022.77 415.02C1023.29 416.887 1023.54 418.963 1023.54 421.25V442.95C1022.05 443.277 1019.97 443.65 1017.31 444.07C1014.65 444.537 1011.43 444.77 1007.65 444.77C1005.27 444.77 1003.1 444.56 1001.14 444.14C999.229 443.72 997.573 443.043 996.173 442.11C994.773 441.13 993.699 439.87 992.953 438.33C992.206 436.79 991.833 434.9 991.833 432.66C991.833 430.513 992.253 428.693 993.093 427.2C993.979 425.707 995.146 424.517 996.593 423.63C998.039 422.743 999.696 422.113 1001.56 421.74C1003.43 421.32 1005.37 421.11 1007.37 421.11C1008.73 421.11 1009.92 421.18 1010.94 421.32C1012.02 421.413 1012.88 421.553 1013.53 421.74V420.76C1013.53 418.987 1013 417.563 1011.92 416.49C1010.85 415.417 1008.98 414.88 1006.32 414.88C1004.55 414.88 1002.8 415.02 1001.07 415.3C999.346 415.533 997.853 415.883 996.593 416.35L995.263 407.95C995.869 407.763 996.616 407.577 997.503 407.39C998.436 407.157 999.439 406.97 1000.51 406.83C1001.59 406.643 1002.71 406.503 1003.87 406.41C1005.09 406.27 1006.3 406.2 1007.51 406.2ZM1043.4 444H1032.97V407.18H1043.4V444ZM1044.38 396.54C1044.38 398.453 1043.75 399.97 1042.49 401.09C1041.28 402.163 1039.83 402.7 1038.15 402.7C1036.47 402.7 1035 402.163 1033.74 401.09C1032.53 399.97 1031.92 398.453 1031.92 396.54C1031.92 394.627 1032.53 393.133 1033.74 392.06C1035 390.94 1036.47 390.38 1038.15 390.38C1039.83 390.38 1041.28 390.94 1042.49 392.06C1043.75 393.133 1044.38 394.627 1044.38 396.54ZM1078.92 425.31C1078.92 428.53 1079.64 431.12 1081.09 433.08C1082.53 435.04 1084.68 436.02 1087.53 436.02C1088.46 436.02 1089.32 435.997 1090.12 435.95C1090.91 435.857 1091.56 435.763 1092.08 435.67V416.7C1091.42 416.28 1090.56 415.93 1089.49 415.65C1088.46 415.37 1087.41 415.23 1086.34 415.23C1081.39 415.23 1078.92 418.59 1078.92 425.31ZM1102.51 442.81C1101.57 443.09 1100.5 443.37 1099.29 443.65C1098.07 443.883 1096.79 444.093 1095.44 444.28C1094.13 444.467 1092.78 444.607 1091.38 444.7C1090.02 444.84 1088.72 444.91 1087.46 444.91C1084.42 444.91 1081.72 444.467 1079.34 443.58C1076.96 442.693 1074.95 441.433 1073.32 439.8C1071.68 438.12 1070.42 436.113 1069.54 433.78C1068.7 431.4 1068.28 428.74 1068.28 425.8C1068.28 422.813 1068.65 420.13 1069.4 417.75C1070.14 415.323 1071.22 413.27 1072.62 411.59C1074.02 409.91 1075.72 408.627 1077.73 407.74C1079.78 406.853 1082.11 406.41 1084.73 406.41C1086.17 406.41 1087.46 406.55 1088.58 406.83C1089.74 407.11 1090.91 407.507 1092.08 408.02V391.36L1102.51 389.68V442.81ZM1126.34 436.72C1127.37 436.72 1128.35 436.697 1129.28 436.65C1130.21 436.603 1130.96 436.533 1131.52 436.44V428.53C1131.1 428.437 1130.47 428.343 1129.63 428.25C1128.79 428.157 1128.02 428.11 1127.32 428.11C1126.34 428.11 1125.41 428.18 1124.52 428.32C1123.68 428.413 1122.93 428.623 1122.28 428.95C1121.63 429.277 1121.11 429.72 1120.74 430.28C1120.37 430.84 1120.18 431.54 1120.18 432.38C1120.18 434.013 1120.72 435.157 1121.79 435.81C1122.91 436.417 1124.43 436.72 1126.34 436.72ZM1125.5 406.2C1128.58 406.2 1131.15 406.55 1133.2 407.25C1135.25 407.95 1136.89 408.953 1138.1 410.26C1139.36 411.567 1140.25 413.153 1140.76 415.02C1141.27 416.887 1141.53 418.963 1141.53 421.25V442.95C1140.04 443.277 1137.96 443.65 1135.3 444.07C1132.64 444.537 1129.42 444.77 1125.64 444.77C1123.26 444.77 1121.09 444.56 1119.13 444.14C1117.22 443.72 1115.56 443.043 1114.16 442.11C1112.76 441.13 1111.69 439.87 1110.94 438.33C1110.19 436.79 1109.82 434.9 1109.82 432.66C1109.82 430.513 1110.24 428.693 1111.08 427.2C1111.97 425.707 1113.13 424.517 1114.58 423.63C1116.03 422.743 1117.68 422.113 1119.55 421.74C1121.42 421.32 1123.35 421.11 1125.36 421.11C1126.71 421.11 1127.9 421.18 1128.93 421.32C1130 421.413 1130.87 421.553 1131.52 421.74V420.76C1131.52 418.987 1130.98 417.563 1129.91 416.49C1128.84 415.417 1126.97 414.88 1124.31 414.88C1122.54 414.88 1120.79 415.02 1119.06 415.3C1117.33 415.533 1115.84 415.883 1114.58 416.35L1113.25 407.95C1113.86 407.763 1114.6 407.577 1115.49 407.39C1116.42 407.157 1117.43 406.97 1118.5 406.83C1119.57 406.643 1120.69 406.503 1121.86 406.41C1123.07 406.27 1124.29 406.2 1125.5 406.2ZM355.15 495.59C355.15 492.93 355.57 490.433 356.41 488.1C357.297 485.72 358.557 483.667 360.19 481.94C361.823 480.167 363.807 478.767 366.14 477.74C368.473 476.713 371.133 476.2 374.12 476.2C376.08 476.2 377.877 476.387 379.51 476.76C381.143 477.087 382.73 477.577 384.27 478.23L382.1 486.56C381.12 486.187 380.047 485.86 378.88 485.58C377.713 485.3 376.407 485.16 374.96 485.16C371.88 485.16 369.57 486.117 368.03 488.03C366.537 489.943 365.79 492.463 365.79 495.59C365.79 498.903 366.49 501.47 367.89 503.29C369.337 505.11 371.833 506.02 375.38 506.02C376.64 506.02 377.993 505.903 379.44 505.67C380.887 505.437 382.217 505.063 383.43 504.55L384.9 513.09C383.687 513.603 382.17 514.047 380.35 514.42C378.53 514.793 376.523 514.98 374.33 514.98C370.97 514.98 368.077 514.49 365.65 513.51C363.223 512.483 361.217 511.107 359.63 509.38C358.09 507.653 356.947 505.623 356.2 503.29C355.5 500.91 355.15 498.343 355.15 495.59ZM414.09 486.42C413.157 486.187 412.06 485.953 410.8 485.72C409.54 485.44 408.187 485.3 406.74 485.3C406.087 485.3 405.293 485.37 404.36 485.51C403.473 485.603 402.797 485.72 402.33 485.86V514H391.9V479.14C393.767 478.487 395.96 477.88 398.48 477.32C401.047 476.713 403.893 476.41 407.02 476.41C407.58 476.41 408.257 476.457 409.05 476.55C409.843 476.597 410.637 476.69 411.43 476.83C412.223 476.923 413.017 477.063 413.81 477.25C414.603 477.39 415.28 477.577 415.84 477.81L414.09 486.42ZM431.861 514H421.431V477.18H431.861V514ZM432.841 466.54C432.841 468.453 432.211 469.97 430.951 471.09C429.738 472.163 428.291 472.7 426.611 472.7C424.931 472.7 423.461 472.163 422.201 471.09C420.988 469.97 420.381 468.453 420.381 466.54C420.381 464.627 420.988 463.133 422.201 462.06C423.461 460.94 424.931 460.38 426.611 460.38C428.291 460.38 429.738 460.94 430.951 462.06C432.211 463.133 432.841 464.627 432.841 466.54ZM455.736 506.72C456.762 506.72 457.742 506.697 458.676 506.65C459.609 506.603 460.356 506.533 460.916 506.44V498.53C460.496 498.437 459.866 498.343 459.026 498.25C458.186 498.157 457.416 498.11 456.716 498.11C455.736 498.11 454.802 498.18 453.916 498.32C453.076 498.413 452.329 498.623 451.676 498.95C451.022 499.277 450.509 499.72 450.136 500.28C449.762 500.84 449.576 501.54 449.576 502.38C449.576 504.013 450.112 505.157 451.186 505.81C452.306 506.417 453.822 506.72 455.736 506.72ZM454.896 476.2C457.976 476.2 460.542 476.55 462.596 477.25C464.649 477.95 466.282 478.953 467.496 480.26C468.756 481.567 469.642 483.153 470.156 485.02C470.669 486.887 470.926 488.963 470.926 491.25V512.95C469.432 513.277 467.356 513.65 464.696 514.07C462.036 514.537 458.816 514.77 455.036 514.77C452.656 514.77 450.486 514.56 448.526 514.14C446.612 513.72 444.956 513.043 443.556 512.11C442.156 511.13 441.082 509.87 440.336 508.33C439.589 506.79 439.216 504.9 439.216 502.66C439.216 500.513 439.636 498.693 440.476 497.2C441.362 495.707 442.529 494.517 443.976 493.63C445.422 492.743 447.079 492.113 448.946 491.74C450.812 491.32 452.749 491.11 454.756 491.11C456.109 491.11 457.299 491.18 458.326 491.32C459.399 491.413 460.262 491.553 460.916 491.74V490.76C460.916 488.987 460.379 487.563 459.306 486.49C458.232 485.417 456.366 484.88 453.706 484.88C451.932 484.88 450.182 485.02 448.456 485.3C446.729 485.533 445.236 485.883 443.976 486.35L442.646 477.95C443.252 477.763 443.999 477.577 444.886 477.39C445.819 477.157 446.822 476.97 447.896 476.83C448.969 476.643 450.089 476.503 451.256 476.41C452.469 476.27 453.682 476.2 454.896 476.2ZM480.357 478.44C482.13 477.927 484.417 477.46 487.217 477.04C490.017 476.573 492.957 476.34 496.037 476.34C499.164 476.34 501.754 476.76 503.807 477.6C505.907 478.393 507.564 479.537 508.777 481.03C509.99 482.523 510.854 484.297 511.367 486.35C511.88 488.403 512.137 490.69 512.137 493.21V514H501.707V494.47C501.707 491.11 501.264 488.73 500.377 487.33C499.49 485.93 497.834 485.23 495.407 485.23C494.66 485.23 493.867 485.277 493.027 485.37C492.187 485.417 491.44 485.487 490.787 485.58V514H480.357V478.44ZM539.638 516.8C541.131 517.547 542.158 518.433 542.718 519.46C543.278 520.487 543.558 521.537 543.558 522.61C543.558 524.85 542.671 526.553 540.898 527.72C539.124 528.887 536.791 529.47 533.898 529.47C532.871 529.47 531.844 529.377 530.818 529.19C529.791 529.05 528.764 528.84 527.738 528.56L528.998 522.47C529.324 522.563 529.908 522.703 530.748 522.89C531.634 523.123 532.498 523.24 533.338 523.24C533.991 523.24 534.551 523.1 535.018 522.82C535.531 522.587 535.811 522.143 535.858 521.49C535.904 520.93 535.671 520.417 535.158 519.95C534.691 519.483 533.921 519.133 532.848 518.9L532.008 518.69C532.194 518.083 532.451 517.383 532.778 516.59C533.104 515.843 533.431 515.143 533.758 514.49C531.331 514.023 529.231 513.23 527.458 512.11C525.731 510.943 524.284 509.543 523.118 507.91C521.998 506.23 521.158 504.34 520.598 502.24C520.084 500.14 519.828 497.923 519.828 495.59C519.828 492.93 520.248 490.433 521.088 488.1C521.974 485.72 523.234 483.667 524.868 481.94C526.501 480.167 528.484 478.767 530.818 477.74C533.151 476.713 535.811 476.2 538.798 476.2C540.758 476.2 542.554 476.387 544.188 476.76C545.821 477.087 547.408 477.577 548.948 478.23L546.778 486.56C545.798 486.187 544.724 485.86 543.558 485.58C542.391 485.3 541.084 485.16 539.638 485.16C536.558 485.16 534.248 486.117 532.708 488.03C531.214 489.943 530.468 492.463 530.468 495.59C530.468 498.903 531.168 501.47 532.568 503.29C534.014 505.11 536.511 506.02 540.058 506.02C541.318 506.02 542.671 505.903 544.118 505.67C545.564 505.437 546.894 505.063 548.108 504.55L549.578 513.09C548.504 513.557 547.174 513.953 545.588 514.28C544.048 514.607 542.344 514.817 540.478 514.91C540.291 515.283 540.128 515.633 539.988 515.96C539.848 516.287 539.731 516.567 539.638 516.8ZM568.87 506.72C569.897 506.72 570.877 506.697 571.81 506.65C572.744 506.603 573.49 506.533 574.05 506.44V498.53C573.63 498.437 573 498.343 572.16 498.25C571.32 498.157 570.55 498.11 569.85 498.11C568.87 498.11 567.937 498.18 567.05 498.32C566.21 498.413 565.464 498.623 564.81 498.95C564.157 499.277 563.644 499.72 563.27 500.28C562.897 500.84 562.71 501.54 562.71 502.38C562.71 504.013 563.247 505.157 564.32 505.81C565.44 506.417 566.957 506.72 568.87 506.72ZM568.03 476.2C571.11 476.2 573.677 476.55 575.73 477.25C577.784 477.95 579.417 478.953 580.63 480.26C581.89 481.567 582.777 483.153 583.29 485.02C583.804 486.887 584.06 488.963 584.06 491.25V512.95C582.567 513.277 580.49 513.65 577.83 514.07C575.17 514.537 571.95 514.77 568.17 514.77C565.79 514.77 563.62 514.56 561.66 514.14C559.747 513.72 558.09 513.043 556.69 512.11C555.29 511.13 554.217 509.87 553.47 508.33C552.724 506.79 552.35 504.9 552.35 502.66C552.35 500.513 552.77 498.693 553.61 497.2C554.497 495.707 555.664 494.517 557.11 493.63C558.557 492.743 560.214 492.113 562.08 491.74C563.947 491.32 565.884 491.11 567.89 491.11C569.244 491.11 570.434 491.18 571.46 491.32C572.534 491.413 573.397 491.553 574.05 491.74V490.76C574.05 488.987 573.514 487.563 572.44 486.49C571.367 485.417 569.5 484.88 566.84 484.88C565.067 484.88 563.317 485.02 561.59 485.3C559.864 485.533 558.37 485.883 557.11 486.35L555.78 477.95C556.387 477.763 557.134 477.577 558.02 477.39C558.954 477.157 559.957 476.97 561.03 476.83C562.104 476.643 563.224 476.503 564.39 476.41C565.604 476.27 566.817 476.2 568.03 476.2ZM625.008 514.7C621.975 514.653 619.502 514.327 617.588 513.72C615.722 513.113 614.228 512.273 613.108 511.2C612.035 510.08 611.288 508.75 610.868 507.21C610.495 505.623 610.308 503.85 610.308 501.89V461.36L620.738 459.68V499.79C620.738 500.723 620.808 501.563 620.948 502.31C621.088 503.057 621.345 503.687 621.718 504.2C622.138 504.713 622.722 505.133 623.468 505.46C624.215 505.787 625.218 505.997 626.478 506.09L625.008 514.7ZM632.457 514V461.36L642.887 459.68V477.32C643.587 477.087 644.473 476.877 645.547 476.69C646.667 476.457 647.74 476.34 648.767 476.34C651.753 476.34 654.227 476.76 656.187 477.6C658.193 478.393 659.78 479.537 660.947 481.03C662.16 482.523 663 484.297 663.467 486.35C663.98 488.403 664.237 490.69 664.237 493.21V514H653.807V494.47C653.807 491.11 653.363 488.73 652.477 487.33C651.637 485.93 650.05 485.23 647.717 485.23C646.783 485.23 645.897 485.323 645.057 485.51C644.263 485.65 643.54 485.813 642.887 486V514H632.457ZM671.927 495.87C671.927 492.603 672.417 489.757 673.397 487.33C674.424 484.857 675.754 482.803 677.387 481.17C679.021 479.537 680.887 478.3 682.987 477.46C685.134 476.62 687.327 476.2 689.567 476.2C694.794 476.2 698.924 477.81 701.957 481.03C704.991 484.203 706.507 488.893 706.507 495.1C706.507 495.707 706.484 496.383 706.437 497.13C706.391 497.83 706.344 498.46 706.297 499.02H682.637C682.871 501.167 683.874 502.87 685.647 504.13C687.421 505.39 689.801 506.02 692.787 506.02C694.701 506.02 696.567 505.857 698.387 505.53C700.254 505.157 701.771 504.713 702.937 504.2L704.337 512.67C703.777 512.95 703.031 513.23 702.097 513.51C701.164 513.79 700.114 514.023 698.947 514.21C697.827 514.443 696.614 514.63 695.307 514.77C694.001 514.91 692.694 514.98 691.387 514.98C688.074 514.98 685.181 514.49 682.707 513.51C680.281 512.53 678.251 511.2 676.617 509.52C675.031 507.793 673.841 505.763 673.047 503.43C672.301 501.097 671.927 498.577 671.927 495.87ZM696.427 491.88C696.381 490.993 696.217 490.13 695.937 489.29C695.704 488.45 695.307 487.703 694.747 487.05C694.234 486.397 693.557 485.86 692.717 485.44C691.924 485.02 690.921 484.81 689.707 484.81C688.541 484.81 687.537 485.02 686.697 485.44C685.857 485.813 685.157 486.327 684.597 486.98C684.037 487.633 683.594 488.403 683.267 489.29C682.987 490.13 682.777 490.993 682.637 491.88H696.427ZM740.263 495.31C740.263 498.53 740.986 501.12 742.433 503.08C743.879 505.04 746.026 506.02 748.873 506.02C749.806 506.02 750.669 505.997 751.463 505.95C752.256 505.857 752.909 505.763 753.423 505.67V486.7C752.769 486.28 751.906 485.93 750.833 485.65C749.806 485.37 748.756 485.23 747.683 485.23C742.736 485.23 740.263 488.59 740.263 495.31ZM763.853 512.81C762.919 513.09 761.846 513.37 760.633 513.65C759.419 513.883 758.136 514.093 756.783 514.28C755.476 514.467 754.123 514.607 752.723 514.7C751.369 514.84 750.063 514.91 748.803 514.91C745.769 514.91 743.063 514.467 740.683 513.58C738.303 512.693 736.296 511.433 734.663 509.8C733.029 508.12 731.769 506.113 730.883 503.78C730.043 501.4 729.623 498.74 729.623 495.8C729.623 492.813 729.996 490.13 730.743 487.75C731.489 485.323 732.563 483.27 733.963 481.59C735.363 479.91 737.066 478.627 739.073 477.74C741.126 476.853 743.459 476.41 746.073 476.41C747.519 476.41 748.803 476.55 749.923 476.83C751.089 477.11 752.256 477.507 753.423 478.02V461.36L763.853 459.68V512.81ZM784.049 514H773.619V477.18H784.049V514ZM785.029 466.54C785.029 468.453 784.399 469.97 783.139 471.09C781.925 472.163 780.479 472.7 778.799 472.7C777.119 472.7 775.649 472.163 774.389 471.09C773.175 469.97 772.569 468.453 772.569 466.54C772.569 464.627 773.175 463.133 774.389 462.06C775.649 460.94 777.119 460.38 778.799 460.38C780.479 460.38 781.925 460.94 783.139 462.06C784.399 463.133 785.029 464.627 785.029 466.54ZM821.503 484.18C820.663 485.113 819.52 486.373 818.073 487.96C816.673 489.547 815.156 491.297 813.523 493.21C811.89 495.123 810.233 497.13 808.553 499.23C806.92 501.33 805.426 503.36 804.073 505.32H821.853V514H791.403V507.84C792.383 506.16 793.55 504.363 794.903 502.45C796.303 500.49 797.75 498.53 799.243 496.57C800.783 494.61 802.3 492.72 803.793 490.9C805.286 489.033 806.663 487.353 807.923 485.86H792.243V477.18H821.503V484.18ZM826.078 495.87C826.078 492.603 826.568 489.757 827.548 487.33C828.574 484.857 829.904 482.803 831.538 481.17C833.171 479.537 835.038 478.3 837.138 477.46C839.284 476.62 841.478 476.2 843.718 476.2C848.944 476.2 853.074 477.81 856.108 481.03C859.141 484.203 860.658 488.893 860.658 495.1C860.658 495.707 860.634 496.383 860.588 497.13C860.541 497.83 860.494 498.46 860.448 499.02H836.788C837.021 501.167 838.024 502.87 839.798 504.13C841.571 505.39 843.951 506.02 846.938 506.02C848.851 506.02 850.718 505.857 852.538 505.53C854.404 505.157 855.921 504.713 857.088 504.2L858.488 512.67C857.928 512.95 857.181 513.23 856.248 513.51C855.314 513.79 854.264 514.023 853.098 514.21C851.978 514.443 850.764 514.63 849.458 514.77C848.151 514.91 846.844 514.98 845.538 514.98C842.224 514.98 839.331 514.49 836.858 513.51C834.431 512.53 832.401 511.2 830.768 509.52C829.181 507.793 827.991 505.763 827.198 503.43C826.451 501.097 826.078 498.577 826.078 495.87ZM850.578 491.88C850.531 490.993 850.368 490.13 850.088 489.29C849.854 488.45 849.458 487.703 848.898 487.05C848.384 486.397 847.708 485.86 846.868 485.44C846.074 485.02 845.071 484.81 843.858 484.81C842.691 484.81 841.688 485.02 840.848 485.44C840.008 485.813 839.308 486.327 838.748 486.98C838.188 487.633 837.744 488.403 837.418 489.29C837.138 490.13 836.928 490.993 836.788 491.88H850.578ZM868.707 478.44C870.48 477.927 872.767 477.46 875.567 477.04C878.367 476.573 881.307 476.34 884.387 476.34C887.513 476.34 890.103 476.76 892.157 477.6C894.257 478.393 895.913 479.537 897.127 481.03C898.34 482.523 899.203 484.297 899.717 486.35C900.23 488.403 900.487 490.69 900.487 493.21V514H890.057V494.47C890.057 491.11 889.613 488.73 888.727 487.33C887.84 485.93 886.183 485.23 883.757 485.23C883.01 485.23 882.217 485.277 881.377 485.37C880.537 485.417 879.79 485.487 879.137 485.58V514H868.707V478.44ZM918.817 495.31C918.817 498.53 919.541 501.12 920.987 503.08C922.434 505.04 924.581 506.02 927.427 506.02C928.361 506.02 929.224 505.997 930.017 505.95C930.811 505.857 931.464 505.763 931.977 505.67V486.7C931.324 486.28 930.461 485.93 929.387 485.65C928.361 485.37 927.311 485.23 926.237 485.23C921.291 485.23 918.817 488.59 918.817 495.31ZM942.407 512.81C941.474 513.09 940.401 513.37 939.187 513.65C937.974 513.883 936.691 514.093 935.337 514.28C934.031 514.467 932.677 514.607 931.277 514.7C929.924 514.84 928.617 514.91 927.357 514.91C924.324 514.91 921.617 514.467 919.237 513.58C916.857 512.693 914.851 511.433 913.217 509.8C911.584 508.12 910.324 506.113 909.437 503.78C908.597 501.4 908.177 498.74 908.177 495.8C908.177 492.813 908.551 490.13 909.297 487.75C910.044 485.323 911.117 483.27 912.517 481.59C913.917 479.91 915.621 478.627 917.627 477.74C919.681 476.853 922.014 476.41 924.627 476.41C926.074 476.41 927.357 476.55 928.477 476.83C929.644 477.11 930.811 477.507 931.977 478.02V461.36L942.407 459.68V512.81ZM986.613 495.52C986.613 498.413 986.193 501.073 985.353 503.5C984.513 505.88 983.3 507.933 981.713 509.66C980.127 511.34 978.213 512.647 975.973 513.58C973.78 514.513 971.307 514.98 968.553 514.98C965.847 514.98 963.373 514.513 961.133 513.58C958.94 512.647 957.05 511.34 955.463 509.66C953.877 507.933 952.64 505.88 951.753 503.5C950.867 501.073 950.423 498.413 950.423 495.52C950.423 492.627 950.867 489.99 951.753 487.61C952.687 485.23 953.947 483.2 955.533 481.52C957.167 479.84 959.08 478.533 961.273 477.6C963.513 476.667 965.94 476.2 968.553 476.2C971.213 476.2 973.64 476.667 975.833 477.6C978.073 478.533 979.987 479.84 981.573 481.52C983.16 483.2 984.397 485.23 985.283 487.61C986.17 489.99 986.613 492.627 986.613 495.52ZM975.973 495.52C975.973 492.3 975.32 489.78 974.013 487.96C972.753 486.093 970.933 485.16 968.553 485.16C966.173 485.16 964.33 486.093 963.023 487.96C961.717 489.78 961.063 492.3 961.063 495.52C961.063 498.74 961.717 501.307 963.023 503.22C964.33 505.087 966.173 506.02 968.553 506.02C970.933 506.02 972.753 505.087 974.013 503.22C975.32 501.307 975.973 498.74 975.973 495.52ZM355.15 565.59C355.15 562.93 355.57 560.433 356.41 558.1C357.297 555.72 358.557 553.667 360.19 551.94C361.823 550.167 363.807 548.767 366.14 547.74C368.473 546.713 371.133 546.2 374.12 546.2C376.08 546.2 377.877 546.387 379.51 546.76C381.143 547.087 382.73 547.577 384.27 548.23L382.1 556.56C381.12 556.187 380.047 555.86 378.88 555.58C377.713 555.3 376.407 555.16 374.96 555.16C371.88 555.16 369.57 556.117 368.03 558.03C366.537 559.943 365.79 562.463 365.79 565.59C365.79 568.903 366.49 571.47 367.89 573.29C369.337 575.11 371.833 576.02 375.38 576.02C376.64 576.02 377.993 575.903 379.44 575.67C380.887 575.437 382.217 575.063 383.43 574.55L384.9 583.09C383.687 583.603 382.17 584.047 380.35 584.42C378.53 584.793 376.523 584.98 374.33 584.98C370.97 584.98 368.077 584.49 365.65 583.51C363.223 582.483 361.217 581.107 359.63 579.38C358.09 577.653 356.947 575.623 356.2 573.29C355.5 570.91 355.15 568.343 355.15 565.59ZM424.563 565.52C424.563 568.413 424.143 571.073 423.303 573.5C422.463 575.88 421.249 577.933 419.663 579.66C418.076 581.34 416.163 582.647 413.923 583.58C411.729 584.513 409.256 584.98 406.503 584.98C403.796 584.98 401.323 584.513 399.083 583.58C396.889 582.647 394.999 581.34 393.413 579.66C391.826 577.933 390.589 575.88 389.703 573.5C388.816 571.073 388.373 568.413 388.373 565.52C388.373 562.627 388.816 559.99 389.703 557.61C390.636 555.23 391.896 553.2 393.483 551.52C395.116 549.84 397.029 548.533 399.223 547.6C401.463 546.667 403.889 546.2 406.503 546.2C409.163 546.2 411.589 546.667 413.783 547.6C416.023 548.533 417.936 549.84 419.523 551.52C421.109 553.2 422.346 555.23 423.233 557.61C424.119 559.99 424.563 562.627 424.563 565.52ZM413.923 565.52C413.923 562.3 413.269 559.78 411.963 557.96C410.703 556.093 408.883 555.16 406.503 555.16C404.123 555.16 402.279 556.093 400.973 557.96C399.666 559.78 399.013 562.3 399.013 565.52C399.013 568.74 399.666 571.307 400.973 573.22C402.279 575.087 404.123 576.02 406.503 576.02C408.883 576.02 410.703 575.087 411.963 573.22C413.269 571.307 413.923 568.74 413.923 565.52ZM443.072 584H432.642V547.18H443.072V584ZM444.052 536.54C444.052 538.453 443.422 539.97 442.162 541.09C440.949 542.163 439.502 542.7 437.822 542.7C436.142 542.7 434.672 542.163 433.412 541.09C432.199 539.97 431.592 538.453 431.592 536.54C431.592 534.627 432.199 533.133 433.412 532.06C434.672 530.94 436.142 530.38 437.822 530.38C439.502 530.38 440.949 530.94 442.162 532.06C443.422 533.133 444.052 534.627 444.052 536.54ZM463.447 576.51C465.36 576.51 466.713 576.323 467.507 575.95C468.3 575.577 468.697 574.853 468.697 573.78C468.697 572.94 468.183 572.217 467.157 571.61C466.13 570.957 464.567 570.233 462.467 569.44C460.833 568.833 459.34 568.203 457.987 567.55C456.68 566.897 455.56 566.127 454.627 565.24C453.693 564.307 452.97 563.21 452.457 561.95C451.943 560.69 451.687 559.173 451.687 557.4C451.687 553.947 452.97 551.217 455.537 549.21C458.103 547.203 461.627 546.2 466.107 546.2C468.347 546.2 470.493 546.41 472.547 546.83C474.6 547.203 476.233 547.623 477.447 548.09L475.627 556.21C474.413 555.79 473.083 555.417 471.637 555.09C470.237 554.763 468.65 554.6 466.877 554.6C463.61 554.6 461.977 555.51 461.977 557.33C461.977 557.75 462.047 558.123 462.187 558.45C462.327 558.777 462.607 559.103 463.027 559.43C463.447 559.71 464.007 560.037 464.707 560.41C465.453 560.737 466.387 561.11 467.507 561.53C469.793 562.37 471.683 563.21 473.177 564.05C474.67 564.843 475.837 565.73 476.677 566.71C477.563 567.643 478.17 568.693 478.497 569.86C478.87 571.027 479.057 572.38 479.057 573.92C479.057 577.56 477.68 580.313 474.927 582.18C472.22 584.047 468.37 584.98 463.377 584.98C460.11 584.98 457.38 584.7 455.187 584.14C453.04 583.58 451.547 583.113 450.707 582.74L452.457 574.27C454.23 574.97 456.05 575.53 457.917 575.95C459.783 576.323 461.627 576.51 463.447 576.51ZM500.921 576.72C501.948 576.72 502.928 576.697 503.861 576.65C504.795 576.603 505.541 576.533 506.101 576.44V568.53C505.681 568.437 505.051 568.343 504.211 568.25C503.371 568.157 502.601 568.11 501.901 568.11C500.921 568.11 499.988 568.18 499.101 568.32C498.261 568.413 497.515 568.623 496.861 568.95C496.208 569.277 495.695 569.72 495.321 570.28C494.948 570.84 494.761 571.54 494.761 572.38C494.761 574.013 495.298 575.157 496.371 575.81C497.491 576.417 499.008 576.72 500.921 576.72ZM500.081 546.2C503.161 546.2 505.728 546.55 507.781 547.25C509.835 547.95 511.468 548.953 512.681 550.26C513.941 551.567 514.828 553.153 515.341 555.02C515.855 556.887 516.111 558.963 516.111 561.25V582.95C514.618 583.277 512.541 583.65 509.881 584.07C507.221 584.537 504.001 584.77 500.221 584.77C497.841 584.77 495.671 584.56 493.711 584.14C491.798 583.72 490.141 583.043 488.741 582.11C487.341 581.13 486.268 579.87 485.521 578.33C484.775 576.79 484.401 574.9 484.401 572.66C484.401 570.513 484.821 568.693 485.661 567.2C486.548 565.707 487.715 564.517 489.161 563.63C490.608 562.743 492.265 562.113 494.131 561.74C495.998 561.32 497.935 561.11 499.941 561.11C501.295 561.11 502.485 561.18 503.511 561.32C504.585 561.413 505.448 561.553 506.101 561.74V560.76C506.101 558.987 505.565 557.563 504.491 556.49C503.418 555.417 501.551 554.88 498.891 554.88C497.118 554.88 495.368 555.02 493.641 555.3C491.915 555.533 490.421 555.883 489.161 556.35L487.831 547.95C488.438 547.763 489.185 547.577 490.071 547.39C491.005 547.157 492.008 546.97 493.081 546.83C494.155 546.643 495.275 546.503 496.441 546.41C497.655 546.27 498.868 546.2 500.081 546.2ZM536.113 576.51C538.026 576.51 539.379 576.323 540.173 575.95C540.966 575.577 541.363 574.853 541.363 573.78C541.363 572.94 540.849 572.217 539.823 571.61C538.796 570.957 537.233 570.233 535.133 569.44C533.499 568.833 532.006 568.203 530.653 567.55C529.346 566.897 528.226 566.127 527.293 565.24C526.359 564.307 525.636 563.21 525.123 561.95C524.609 560.69 524.353 559.173 524.353 557.4C524.353 553.947 525.636 551.217 528.203 549.21C530.769 547.203 534.293 546.2 538.773 546.2C541.013 546.2 543.159 546.41 545.213 546.83C547.266 547.203 548.899 547.623 550.113 548.09L548.293 556.21C547.079 555.79 545.749 555.417 544.303 555.09C542.903 554.763 541.316 554.6 539.543 554.6C536.276 554.6 534.643 555.51 534.643 557.33C534.643 557.75 534.713 558.123 534.853 558.45C534.993 558.777 535.273 559.103 535.693 559.43C536.113 559.71 536.673 560.037 537.373 560.41C538.119 560.737 539.053 561.11 540.173 561.53C542.459 562.37 544.349 563.21 545.843 564.05C547.336 564.843 548.503 565.73 549.343 566.71C550.229 567.643 550.836 568.693 551.163 569.86C551.536 571.027 551.723 572.38 551.723 573.92C551.723 577.56 550.346 580.313 547.593 582.18C544.886 584.047 541.036 584.98 536.043 584.98C532.776 584.98 530.046 584.7 527.853 584.14C525.706 583.58 524.213 583.113 523.373 582.74L525.123 574.27C526.896 574.97 528.716 575.53 530.583 575.95C532.449 576.323 534.293 576.51 536.113 576.51ZM569.737 553.62C569.737 555.72 569.061 557.33 567.707 558.45C566.401 559.523 564.907 560.06 563.227 560.06C561.547 560.06 560.031 559.523 558.677 558.45C557.371 557.33 556.717 555.72 556.717 553.62C556.717 551.52 557.371 549.933 558.677 548.86C560.031 547.74 561.547 547.18 563.227 547.18C564.907 547.18 566.401 547.74 567.707 548.86C569.061 549.933 569.737 551.52 569.737 553.62ZM569.737 578.47C569.737 580.57 569.061 582.18 567.707 583.3C566.401 584.373 564.907 584.91 563.227 584.91C561.547 584.91 560.031 584.373 558.677 583.3C557.371 582.18 556.717 580.57 556.717 578.47C556.717 576.37 557.371 574.783 558.677 573.71C560.031 572.59 561.547 572.03 563.227 572.03C564.907 572.03 566.401 572.59 567.707 573.71C569.061 574.783 569.737 576.37 569.737 578.47Z" fill="white"/>
<path d="M1041.33 478.23C1041.33 480.003 1040.98 481.707 1040.28 483.34C1039.58 484.973 1038.67 486.56 1037.55 488.1C1036.43 489.593 1035.17 491.04 1033.77 492.44C1032.37 493.84 1030.99 495.17 1029.64 496.43C1028.94 497.083 1028.17 497.83 1027.33 498.67C1026.54 499.463 1025.77 500.28 1025.02 501.12C1024.27 501.96 1023.6 502.753 1022.99 503.5C1022.43 504.2 1022.08 504.783 1021.94 505.25H1042.8V514H1010.46C1010.37 513.487 1010.32 512.833 1010.32 512.04C1010.32 511.247 1010.32 510.687 1010.32 510.36C1010.32 508.12 1010.67 506.067 1011.37 504.2C1012.12 502.333 1013.07 500.607 1014.24 499.02C1015.41 497.387 1016.71 495.87 1018.16 494.47C1019.65 493.07 1021.12 491.67 1022.57 490.27C1023.69 489.197 1024.74 488.193 1025.72 487.26C1026.7 486.28 1027.56 485.347 1028.31 484.46C1029.06 483.527 1029.64 482.617 1030.06 481.73C1030.48 480.797 1030.69 479.863 1030.69 478.93C1030.69 476.877 1030.11 475.43 1028.94 474.59C1027.77 473.75 1026.33 473.33 1024.6 473.33C1023.34 473.33 1022.15 473.54 1021.03 473.96C1019.96 474.333 1018.95 474.8 1018.02 475.36C1017.13 475.873 1016.36 476.41 1015.71 476.97C1015.06 477.483 1014.57 477.903 1014.24 478.23L1009.06 470.95C1011.11 469.037 1013.49 467.473 1016.2 466.26C1018.95 465 1021.89 464.37 1025.02 464.37C1027.87 464.37 1030.32 464.697 1032.37 465.35C1034.42 466.003 1036.1 466.937 1037.41 468.15C1038.76 469.317 1039.74 470.763 1040.35 472.49C1041 474.17 1041.33 476.083 1041.33 478.23Z" fill="#FFA24B"/>
<path d="M70.6967 490.697C67.7678 493.626 67.7678 498.374 70.6967 501.303L118.426 549.033C121.355 551.962 126.104 551.962 129.033 549.033C131.962 546.104 131.962 541.355 129.033 538.426L86.6066 496L129.033 453.574C131.962 450.645 131.962 445.896 129.033 442.967C126.104 440.038 121.355 440.038 118.426 442.967L70.6967 490.697ZM303 488.5H76V503.5H303V488.5Z" fill="#4C4A4A"/>
</g>
<defs>
<clipPath id="clip0_104_373">
<rect width="1300" height="976" fill="white"/>
</clipPath>
</defs>
</svg>
