<svg width="1300" height="976" viewBox="0 0 1300 976" fill="none" xmlns="http://www.w3.org/2000/svg">
<g clip-path="url(#clip0_104_290)">
<path d="M136.13 424.47C136.13 421.11 135.687 418.73 134.8 417.33C133.96 415.93 132.49 415.23 130.39 415.23C129.737 415.23 129.06 415.277 128.36 415.37C127.66 415.417 126.983 415.487 126.33 415.58V444H115.9V408.44C116.787 408.207 117.813 407.973 118.98 407.74C120.193 407.46 121.453 407.227 122.76 407.04C124.113 406.807 125.49 406.643 126.89 406.55C128.29 406.41 129.667 406.34 131.02 406.34C133.68 406.34 135.827 406.69 137.46 407.39C139.14 408.043 140.517 408.837 141.59 409.77C143.083 408.697 144.787 407.857 146.7 407.25C148.66 406.643 150.457 406.34 152.09 406.34C155.03 406.34 157.433 406.76 159.3 407.6C161.213 408.393 162.73 409.537 163.85 411.03C164.97 412.523 165.74 414.297 166.16 416.35C166.58 418.403 166.79 420.69 166.79 423.21V444H156.36V424.47C156.36 421.11 155.917 418.73 155.03 417.33C154.19 415.93 152.72 415.23 150.62 415.23C150.06 415.23 149.267 415.37 148.24 415.65C147.26 415.93 146.443 416.28 145.79 416.7C146.117 417.773 146.327 418.917 146.42 420.13C146.513 421.297 146.56 422.557 146.56 423.91V444H136.13V424.47ZM190.331 436.72C191.358 436.72 192.338 436.697 193.271 436.65C194.205 436.603 194.951 436.533 195.511 436.44V428.53C195.091 428.437 194.461 428.343 193.621 428.25C192.781 428.157 192.011 428.11 191.311 428.11C190.331 428.11 189.398 428.18 188.511 428.32C187.671 428.413 186.925 428.623 186.271 428.95C185.618 429.277 185.105 429.72 184.731 430.28C184.358 430.84 184.171 431.54 184.171 432.38C184.171 434.013 184.708 435.157 185.781 435.81C186.901 436.417 188.418 436.72 190.331 436.72ZM189.491 406.2C192.571 406.2 195.138 406.55 197.191 407.25C199.245 407.95 200.878 408.953 202.091 410.26C203.351 411.567 204.238 413.153 204.751 415.02C205.265 416.887 205.521 418.963 205.521 421.25V442.95C204.028 443.277 201.951 443.65 199.291 444.07C196.631 444.537 193.411 444.77 189.631 444.77C187.251 444.77 185.081 444.56 183.121 444.14C181.208 443.72 179.551 443.043 178.151 442.11C176.751 441.13 175.678 439.87 174.931 438.33C174.185 436.79 173.811 434.9 173.811 432.66C173.811 430.513 174.231 428.693 175.071 427.2C175.958 425.707 177.125 424.517 178.571 423.63C180.018 422.743 181.675 422.113 183.541 421.74C185.408 421.32 187.345 421.11 189.351 421.11C190.705 421.11 191.895 421.18 192.921 421.32C193.995 421.413 194.858 421.553 195.511 421.74V420.76C195.511 418.987 194.975 417.563 193.901 416.49C192.828 415.417 190.961 414.88 188.301 414.88C186.528 414.88 184.778 415.02 183.051 415.3C181.325 415.533 179.831 415.883 178.571 416.35L177.241 407.95C177.848 407.763 178.595 407.577 179.481 407.39C180.415 407.157 181.418 406.97 182.491 406.83C183.565 406.643 184.685 406.503 185.851 406.41C187.065 406.27 188.278 406.2 189.491 406.2ZM225.523 436.51C227.436 436.51 228.789 436.323 229.583 435.95C230.376 435.577 230.773 434.853 230.773 433.78C230.773 432.94 230.259 432.217 229.233 431.61C228.206 430.957 226.643 430.233 224.543 429.44C222.909 428.833 221.416 428.203 220.063 427.55C218.756 426.897 217.636 426.127 216.703 425.24C215.769 424.307 215.046 423.21 214.533 421.95C214.019 420.69 213.763 419.173 213.763 417.4C213.763 413.947 215.046 411.217 217.613 409.21C220.179 407.203 223.703 406.2 228.183 406.2C230.423 406.2 232.569 406.41 234.623 406.83C236.676 407.203 238.309 407.623 239.523 408.09L237.703 416.21C236.489 415.79 235.159 415.417 233.713 415.09C232.313 414.763 230.726 414.6 228.953 414.6C225.686 414.6 224.053 415.51 224.053 417.33C224.053 417.75 224.123 418.123 224.263 418.45C224.403 418.777 224.683 419.103 225.103 419.43C225.523 419.71 226.083 420.037 226.783 420.41C227.529 420.737 228.463 421.11 229.583 421.53C231.869 422.37 233.759 423.21 235.253 424.05C236.746 424.843 237.913 425.73 238.753 426.71C239.639 427.643 240.246 428.693 240.573 429.86C240.946 431.027 241.133 432.38 241.133 433.92C241.133 437.56 239.756 440.313 237.003 442.18C234.296 444.047 230.446 444.98 225.453 444.98C222.186 444.98 219.456 444.7 217.263 444.14C215.116 443.58 213.623 443.113 212.783 442.74L214.533 434.27C216.306 434.97 218.126 435.53 219.993 435.95C221.859 436.323 223.703 436.51 225.523 436.51ZM263.994 425.87C263.994 422.603 264.484 419.757 265.464 417.33C266.49 414.857 267.82 412.803 269.454 411.17C271.087 409.537 272.954 408.3 275.054 407.46C277.2 406.62 279.394 406.2 281.634 406.2C286.86 406.2 290.99 407.81 294.024 411.03C297.057 414.203 298.574 418.893 298.574 425.1C298.574 425.707 298.55 426.383 298.504 427.13C298.457 427.83 298.41 428.46 298.364 429.02H274.704C274.937 431.167 275.94 432.87 277.714 434.13C279.487 435.39 281.867 436.02 284.854 436.02C286.767 436.02 288.634 435.857 290.454 435.53C292.32 435.157 293.837 434.713 295.004 434.2L296.404 442.67C295.844 442.95 295.097 443.23 294.164 443.51C293.23 443.79 292.18 444.023 291.014 444.21C289.894 444.443 288.68 444.63 287.374 444.77C286.067 444.91 284.76 444.98 283.454 444.98C280.14 444.98 277.247 444.49 274.774 443.51C272.347 442.53 270.317 441.2 268.684 439.52C267.097 437.793 265.907 435.763 265.114 433.43C264.367 431.097 263.994 428.577 263.994 425.87ZM288.494 421.88C288.447 420.993 288.284 420.13 288.004 419.29C287.77 418.45 287.374 417.703 286.814 417.05C286.3 416.397 285.624 415.86 284.784 415.44C283.99 415.02 282.987 414.81 281.774 414.81C280.607 414.81 279.604 415.02 278.764 415.44C277.924 415.813 277.224 416.327 276.664 416.98C276.104 417.633 275.66 418.403 275.334 419.29C275.054 420.13 274.844 420.993 274.704 421.88H288.494ZM321.689 425.87C321.689 422.603 322.179 419.757 323.159 417.33C324.186 414.857 325.516 412.803 327.149 411.17C328.782 409.537 330.649 408.3 332.749 407.46C334.896 406.62 337.089 406.2 339.329 406.2C344.556 406.2 348.686 407.81 351.719 411.03C354.752 414.203 356.269 418.893 356.269 425.1C356.269 425.707 356.246 426.383 356.199 427.13C356.152 427.83 356.106 428.46 356.059 429.02H332.399C332.632 431.167 333.636 432.87 335.409 434.13C337.182 435.39 339.562 436.02 342.549 436.02C344.462 436.02 346.329 435.857 348.149 435.53C350.016 435.157 351.532 434.713 352.699 434.2L354.099 442.67C353.539 442.95 352.792 443.23 351.859 443.51C350.926 443.79 349.876 444.023 348.709 444.21C347.589 444.443 346.376 444.63 345.069 444.77C343.762 444.91 342.456 444.98 341.149 444.98C337.836 444.98 334.942 444.49 332.469 443.51C330.042 442.53 328.012 441.2 326.379 439.52C324.792 437.793 323.602 435.763 322.809 433.43C322.062 431.097 321.689 428.577 321.689 425.87ZM346.189 421.88C346.142 420.993 345.979 420.13 345.699 419.29C345.466 418.45 345.069 417.703 344.509 417.05C343.996 416.397 343.319 415.86 342.479 415.44C341.686 415.02 340.682 414.81 339.469 414.81C338.302 414.81 337.299 415.02 336.459 415.44C335.619 415.813 334.919 416.327 334.359 416.98C333.799 417.633 333.356 418.403 333.029 419.29C332.749 420.13 332.539 420.993 332.399 421.88H346.189ZM374.888 436.51C376.801 436.51 378.155 436.323 378.948 435.95C379.741 435.577 380.138 434.853 380.138 433.78C380.138 432.94 379.625 432.217 378.598 431.61C377.571 430.957 376.008 430.233 373.908 429.44C372.275 428.833 370.781 428.203 369.428 427.55C368.121 426.897 367.001 426.127 366.068 425.24C365.135 424.307 364.411 423.21 363.898 421.95C363.385 420.69 363.128 419.173 363.128 417.4C363.128 413.947 364.411 411.217 366.978 409.21C369.545 407.203 373.068 406.2 377.548 406.2C379.788 406.2 381.935 406.41 383.988 406.83C386.041 407.203 387.675 407.623 388.888 408.09L387.068 416.21C385.855 415.79 384.525 415.417 383.078 415.09C381.678 414.763 380.091 414.6 378.318 414.6C375.051 414.6 373.418 415.51 373.418 417.33C373.418 417.75 373.488 418.123 373.628 418.45C373.768 418.777 374.048 419.103 374.468 419.43C374.888 419.71 375.448 420.037 376.148 420.41C376.895 420.737 377.828 421.11 378.948 421.53C381.235 422.37 383.125 423.21 384.618 424.05C386.111 424.843 387.278 425.73 388.118 426.71C389.005 427.643 389.611 428.693 389.938 429.86C390.311 431.027 390.498 432.38 390.498 433.92C390.498 437.56 389.121 440.313 386.368 442.18C383.661 444.047 379.811 444.98 374.818 444.98C371.551 444.98 368.821 444.7 366.628 444.14C364.481 443.58 362.988 443.113 362.148 442.74L363.898 434.27C365.671 434.97 367.491 435.53 369.358 435.95C371.225 436.323 373.068 436.51 374.888 436.51ZM408.863 436.51C410.776 436.51 412.129 436.323 412.923 435.95C413.716 435.577 414.113 434.853 414.113 433.78C414.113 432.94 413.599 432.217 412.573 431.61C411.546 430.957 409.983 430.233 407.883 429.44C406.249 428.833 404.756 428.203 403.403 427.55C402.096 426.897 400.976 426.127 400.043 425.24C399.109 424.307 398.386 423.21 397.873 421.95C397.359 420.69 397.103 419.173 397.103 417.4C397.103 413.947 398.386 411.217 400.953 409.21C403.519 407.203 407.043 406.2 411.523 406.2C413.763 406.2 415.909 406.41 417.963 406.83C420.016 407.203 421.649 407.623 422.863 408.09L421.043 416.21C419.829 415.79 418.499 415.417 417.053 415.09C415.653 414.763 414.066 414.6 412.293 414.6C409.026 414.6 407.393 415.51 407.393 417.33C407.393 417.75 407.463 418.123 407.603 418.45C407.743 418.777 408.023 419.103 408.443 419.43C408.863 419.71 409.423 420.037 410.123 420.41C410.869 420.737 411.803 421.11 412.923 421.53C415.209 422.37 417.099 423.21 418.593 424.05C420.086 424.843 421.253 425.73 422.093 426.71C422.979 427.643 423.586 428.693 423.913 429.86C424.286 431.027 424.473 432.38 424.473 433.92C424.473 437.56 423.096 440.313 420.343 442.18C417.636 444.047 413.786 444.98 408.793 444.98C405.526 444.98 402.796 444.7 400.603 444.14C398.456 443.58 396.963 443.113 396.123 442.74L397.873 434.27C399.646 434.97 401.466 435.53 403.333 435.95C405.199 436.323 407.043 436.51 408.863 436.51ZM430.517 425.87C430.517 422.603 431.007 419.757 431.987 417.33C433.014 414.857 434.344 412.803 435.977 411.17C437.611 409.537 439.477 408.3 441.577 407.46C443.724 406.62 445.917 406.2 448.157 406.2C453.384 406.2 457.514 407.81 460.547 411.03C463.581 414.203 465.097 418.893 465.097 425.1C465.097 425.707 465.074 426.383 465.027 427.13C464.981 427.83 464.934 428.46 464.887 429.02H441.227C441.461 431.167 442.464 432.87 444.237 434.13C446.011 435.39 448.391 436.02 451.377 436.02C453.291 436.02 455.157 435.857 456.977 435.53C458.844 435.157 460.361 434.713 461.527 434.2L462.927 442.67C462.367 442.95 461.621 443.23 460.687 443.51C459.754 443.79 458.704 444.023 457.537 444.21C456.417 444.443 455.204 444.63 453.897 444.77C452.591 444.91 451.284 444.98 449.977 444.98C446.664 444.98 443.771 444.49 441.297 443.51C438.871 442.53 436.841 441.2 435.207 439.52C433.621 437.793 432.431 435.763 431.637 433.43C430.891 431.097 430.517 428.577 430.517 425.87ZM455.017 421.88C454.971 420.993 454.807 420.13 454.527 419.29C454.294 418.45 453.897 417.703 453.337 417.05C452.824 416.397 452.147 415.86 451.307 415.44C450.514 415.02 449.511 414.81 448.297 414.81C447.131 414.81 446.127 415.02 445.287 415.44C444.447 415.813 443.747 416.327 443.187 416.98C442.627 417.633 442.184 418.403 441.857 419.29C441.577 420.13 441.367 420.993 441.227 421.88H455.017ZM488.213 425.59C488.213 422.93 488.633 420.433 489.473 418.1C490.359 415.72 491.619 413.667 493.253 411.94C494.886 410.167 496.869 408.767 499.203 407.74C501.536 406.713 504.196 406.2 507.183 406.2C509.143 406.2 510.939 406.387 512.573 406.76C514.206 407.087 515.793 407.577 517.333 408.23L515.163 416.56C514.183 416.187 513.109 415.86 511.943 415.58C510.776 415.3 509.469 415.16 508.023 415.16C504.943 415.16 502.633 416.117 501.093 418.03C499.599 419.943 498.853 422.463 498.853 425.59C498.853 428.903 499.553 431.47 500.953 433.29C502.399 435.11 504.896 436.02 508.443 436.02C509.703 436.02 511.056 435.903 512.503 435.67C513.949 435.437 515.279 435.063 516.493 434.55L517.963 443.09C516.749 443.603 515.233 444.047 513.413 444.42C511.593 444.793 509.586 444.98 507.393 444.98C504.033 444.98 501.139 444.49 498.713 443.51C496.286 442.483 494.279 441.107 492.693 439.38C491.153 437.653 490.009 435.623 489.263 433.29C488.563 430.91 488.213 428.343 488.213 425.59ZM537.255 436.72C538.282 436.72 539.262 436.697 540.195 436.65C541.128 436.603 541.875 436.533 542.435 436.44V428.53C542.015 428.437 541.385 428.343 540.545 428.25C539.705 428.157 538.935 428.11 538.235 428.11C537.255 428.11 536.322 428.18 535.435 428.32C534.595 428.413 533.848 428.623 533.195 428.95C532.542 429.277 532.028 429.72 531.655 430.28C531.282 430.84 531.095 431.54 531.095 432.38C531.095 434.013 531.632 435.157 532.705 435.81C533.825 436.417 535.342 436.72 537.255 436.72ZM536.415 406.2C539.495 406.2 542.062 406.55 544.115 407.25C546.168 407.95 547.802 408.953 549.015 410.26C550.275 411.567 551.162 413.153 551.675 415.02C552.188 416.887 552.445 418.963 552.445 421.25V442.95C550.952 443.277 548.875 443.65 546.215 444.07C543.555 444.537 540.335 444.77 536.555 444.77C534.175 444.77 532.005 444.56 530.045 444.14C528.132 443.72 526.475 443.043 525.075 442.11C523.675 441.13 522.602 439.87 521.855 438.33C521.108 436.79 520.735 434.9 520.735 432.66C520.735 430.513 521.155 428.693 521.995 427.2C522.882 425.707 524.048 424.517 525.495 423.63C526.942 422.743 528.598 422.113 530.465 421.74C532.332 421.32 534.268 421.11 536.275 421.11C537.628 421.11 538.818 421.18 539.845 421.32C540.918 421.413 541.782 421.553 542.435 421.74V420.76C542.435 418.987 541.898 417.563 540.825 416.49C539.752 415.417 537.885 414.88 535.225 414.88C533.452 414.88 531.702 415.02 529.975 415.3C528.248 415.533 526.755 415.883 525.495 416.35L524.165 407.95C524.772 407.763 525.518 407.577 526.405 407.39C527.338 407.157 528.342 406.97 529.415 406.83C530.488 406.643 531.608 406.503 532.775 406.41C533.988 406.27 535.202 406.2 536.415 406.2ZM584.067 416.42C583.133 416.187 582.037 415.953 580.777 415.72C579.517 415.44 578.163 415.3 576.717 415.3C576.063 415.3 575.27 415.37 574.337 415.51C573.45 415.603 572.773 415.72 572.307 415.86V444H561.877V409.14C563.743 408.487 565.937 407.88 568.457 407.32C571.023 406.713 573.87 406.41 576.997 406.41C577.557 406.41 578.233 406.457 579.027 406.55C579.82 406.597 580.613 406.69 581.407 406.83C582.2 406.923 582.993 407.063 583.787 407.25C584.58 407.39 585.257 407.577 585.817 407.81L584.067 416.42ZM604.794 436.72C605.821 436.72 606.801 436.697 607.734 436.65C608.668 436.603 609.414 436.533 609.974 436.44V428.53C609.554 428.437 608.924 428.343 608.084 428.25C607.244 428.157 606.474 428.11 605.774 428.11C604.794 428.11 603.861 428.18 602.974 428.32C602.134 428.413 601.388 428.623 600.734 428.95C600.081 429.277 599.568 429.72 599.194 430.28C598.821 430.84 598.634 431.54 598.634 432.38C598.634 434.013 599.171 435.157 600.244 435.81C601.364 436.417 602.881 436.72 604.794 436.72ZM603.954 406.2C607.034 406.2 609.601 406.55 611.654 407.25C613.708 407.95 615.341 408.953 616.554 410.26C617.814 411.567 618.701 413.153 619.214 415.02C619.728 416.887 619.984 418.963 619.984 421.25V442.95C618.491 443.277 616.414 443.65 613.754 444.07C611.094 444.537 607.874 444.77 604.094 444.77C601.714 444.77 599.544 444.56 597.584 444.14C595.671 443.72 594.014 443.043 592.614 442.11C591.214 441.13 590.141 439.87 589.394 438.33C588.648 436.79 588.274 434.9 588.274 432.66C588.274 430.513 588.694 428.693 589.534 427.2C590.421 425.707 591.588 424.517 593.034 423.63C594.481 422.743 596.138 422.113 598.004 421.74C599.871 421.32 601.808 421.11 603.814 421.11C605.168 421.11 606.358 421.18 607.384 421.32C608.458 421.413 609.321 421.553 609.974 421.74V420.76C609.974 418.987 609.438 417.563 608.364 416.49C607.291 415.417 605.424 414.88 602.764 414.88C600.991 414.88 599.241 415.02 597.514 415.3C595.788 415.533 594.294 415.883 593.034 416.35L591.704 407.95C592.311 407.763 593.058 407.577 593.944 407.39C594.878 407.157 595.881 406.97 596.954 406.83C598.028 406.643 599.148 406.503 600.314 406.41C601.528 406.27 602.741 406.2 603.954 406.2ZM660.302 436.72C661.329 436.72 662.309 436.697 663.242 436.65C664.175 436.603 664.922 436.533 665.482 436.44V428.53C665.062 428.437 664.432 428.343 663.592 428.25C662.752 428.157 661.982 428.11 661.282 428.11C660.302 428.11 659.369 428.18 658.482 428.32C657.642 428.413 656.895 428.623 656.242 428.95C655.589 429.277 655.075 429.72 654.702 430.28C654.329 430.84 654.142 431.54 654.142 432.38C654.142 434.013 654.679 435.157 655.752 435.81C656.872 436.417 658.389 436.72 660.302 436.72ZM659.462 406.2C662.542 406.2 665.109 406.55 667.162 407.25C669.215 407.95 670.849 408.953 672.062 410.26C673.322 411.567 674.209 413.153 674.722 415.02C675.235 416.887 675.492 418.963 675.492 421.25V442.95C673.999 443.277 671.922 443.65 669.262 444.07C666.602 444.537 663.382 444.77 659.602 444.77C657.222 444.77 655.052 444.56 653.092 444.14C651.179 443.72 649.522 443.043 648.122 442.11C646.722 441.13 645.649 439.87 644.902 438.33C644.155 436.79 643.782 434.9 643.782 432.66C643.782 430.513 644.202 428.693 645.042 427.2C645.929 425.707 647.095 424.517 648.542 423.63C649.989 422.743 651.645 422.113 653.512 421.74C655.379 421.32 657.315 421.11 659.322 421.11C660.675 421.11 661.865 421.18 662.892 421.32C663.965 421.413 664.829 421.553 665.482 421.74V420.76C665.482 418.987 664.945 417.563 663.872 416.49C662.799 415.417 660.932 414.88 658.272 414.88C656.499 414.88 654.749 415.02 653.022 415.3C651.295 415.533 649.802 415.883 648.542 416.35L647.212 407.95C647.819 407.763 648.565 407.577 649.452 407.39C650.385 407.157 651.389 406.97 652.462 406.83C653.535 406.643 654.655 406.503 655.822 406.41C657.035 406.27 658.249 406.2 659.462 406.2ZM693.813 425.87C693.813 432.543 696.287 435.88 701.233 435.88C702.307 435.88 703.357 435.74 704.383 435.46C705.457 435.18 706.32 434.83 706.973 434.41V415.58C706.46 415.487 705.807 415.417 705.013 415.37C704.22 415.277 703.357 415.23 702.423 415.23C699.577 415.23 697.43 416.21 695.983 418.17C694.537 420.083 693.813 422.65 693.813 425.87ZM683.173 425.59C683.173 422.743 683.593 420.153 684.433 417.82C685.32 415.44 686.58 413.41 688.213 411.73C689.847 410.003 691.853 408.673 694.233 407.74C696.613 406.807 699.32 406.34 702.353 406.34C703.613 406.34 704.92 406.41 706.273 406.55C707.673 406.643 709.027 406.783 710.333 406.97C711.687 407.157 712.97 407.39 714.183 407.67C715.397 407.903 716.47 408.16 717.403 408.44V456.95H706.973V443.09C705.807 443.603 704.593 444 703.333 444.28C702.073 444.56 700.72 444.7 699.273 444.7C694.047 444.7 690.057 442.997 687.303 439.59C684.55 436.137 683.173 431.47 683.173 425.59ZM758.6 442.74C756.826 443.253 754.54 443.72 751.74 444.14C748.94 444.607 746 444.84 742.92 444.84C739.793 444.84 737.18 444.42 735.08 443.58C733.026 442.74 731.393 441.573 730.18 440.08C728.966 438.54 728.103 436.72 727.59 434.62C727.076 432.52 726.82 430.21 726.82 427.69V407.18H737.25V426.43C737.25 429.79 737.693 432.217 738.58 433.71C739.466 435.203 741.123 435.95 743.55 435.95C744.296 435.95 745.09 435.927 745.93 435.88C746.77 435.787 747.516 435.693 748.17 435.6V407.18H758.6V442.74ZM778.82 444H768.39V407.18H778.82V444ZM779.8 396.54C779.8 398.453 779.17 399.97 777.91 401.09C776.697 402.163 775.25 402.7 773.57 402.7C771.89 402.7 770.42 402.163 769.16 401.09C767.947 399.97 767.34 398.453 767.34 396.54C767.34 394.627 767.947 393.133 769.16 392.06C770.42 390.94 771.89 390.38 773.57 390.38C775.25 390.38 776.697 390.94 777.91 392.06C779.17 393.133 779.8 394.627 779.8 396.54ZM795.197 403.26C793.517 403.26 791.93 403.47 790.437 403.89C788.944 404.31 787.287 404.987 785.467 405.92L782.527 398.01C784.347 396.843 786.494 395.957 788.967 395.35C791.44 394.697 793.867 394.37 796.247 394.37C799.234 394.37 801.684 394.767 803.597 395.56C805.557 396.353 807.097 397.357 808.217 398.57C809.337 399.783 810.107 401.113 810.527 402.56C810.994 404.007 811.227 405.383 811.227 406.69C811.227 407.997 811.017 409.21 810.597 410.33C810.224 411.403 809.734 412.407 809.127 413.34C808.52 414.273 807.82 415.16 807.027 416C806.234 416.84 805.464 417.633 804.717 418.38C804.157 418.94 803.574 419.547 802.967 420.2C802.36 420.807 801.8 421.46 801.287 422.16C800.82 422.86 800.424 423.607 800.097 424.4C799.77 425.147 799.607 425.917 799.607 426.71C799.607 426.897 799.607 427.177 799.607 427.55C799.607 427.923 799.63 428.25 799.677 428.53H790.437C790.344 428.063 790.274 427.55 790.227 426.99C790.227 426.383 790.227 425.87 790.227 425.45C790.227 424.143 790.39 422.977 790.717 421.95C791.044 420.877 791.464 419.897 791.977 419.01C792.537 418.077 793.167 417.213 793.867 416.42C794.567 415.627 795.29 414.857 796.037 414.11C797.11 413.037 798.09 411.987 798.977 410.96C799.864 409.887 800.307 408.673 800.307 407.32C800.307 406.2 799.864 405.243 798.977 404.45C798.137 403.657 796.877 403.26 795.197 403.26ZM801.707 438.47C801.707 440.523 801.03 442.11 799.677 443.23C798.37 444.35 796.877 444.91 795.197 444.91C793.517 444.91 792 444.35 790.647 443.23C789.34 442.11 788.687 440.523 788.687 438.47C788.687 436.417 789.34 434.83 790.647 433.71C792 432.59 793.517 432.03 795.197 432.03C796.877 432.03 798.37 432.59 799.677 433.71C801.03 434.83 801.707 436.417 801.707 438.47ZM115.9 478.44C117.673 477.927 119.96 477.46 122.76 477.04C125.56 476.573 128.5 476.34 131.58 476.34C134.707 476.34 137.297 476.76 139.35 477.6C141.45 478.393 143.107 479.537 144.32 481.03C145.533 482.523 146.397 484.297 146.91 486.35C147.423 488.403 147.68 490.69 147.68 493.21V514H137.25V494.47C137.25 491.11 136.807 488.73 135.92 487.33C135.033 485.93 133.377 485.23 130.95 485.23C130.203 485.23 129.41 485.277 128.57 485.37C127.73 485.417 126.983 485.487 126.33 485.58V514H115.9V478.44ZM171.191 506.72C172.217 506.72 173.197 506.697 174.131 506.65C175.064 506.603 175.811 506.533 176.371 506.44V498.53C175.951 498.437 175.321 498.343 174.481 498.25C173.641 498.157 172.871 498.11 172.171 498.11C171.191 498.11 170.257 498.18 169.371 498.32C168.531 498.413 167.784 498.623 167.131 498.95C166.477 499.277 165.964 499.72 165.591 500.28C165.217 500.84 165.031 501.54 165.031 502.38C165.031 504.013 165.567 505.157 166.641 505.81C167.761 506.417 169.277 506.72 171.191 506.72ZM170.351 476.2C173.431 476.2 175.997 476.55 178.051 477.25C180.104 477.95 181.737 478.953 182.951 480.26C184.211 481.567 185.097 483.153 185.611 485.02C186.124 486.887 186.381 488.963 186.381 491.25V512.95C184.887 513.277 182.811 513.65 180.151 514.07C177.491 514.537 174.271 514.77 170.491 514.77C168.111 514.77 165.941 514.56 163.981 514.14C162.067 513.72 160.411 513.043 159.011 512.11C157.611 511.13 156.537 509.87 155.791 508.33C155.044 506.79 154.671 504.9 154.671 502.66C154.671 500.513 155.091 498.693 155.931 497.2C156.817 495.707 157.984 494.517 159.431 493.63C160.877 492.743 162.534 492.113 164.401 491.74C166.267 491.32 168.204 491.11 170.211 491.11C171.564 491.11 172.754 491.18 173.781 491.32C174.854 491.413 175.717 491.553 176.371 491.74V490.76C176.371 488.987 175.834 487.563 174.761 486.49C173.687 485.417 171.821 484.88 169.161 484.88C167.387 484.88 165.637 485.02 163.911 485.3C162.184 485.533 160.691 485.883 159.431 486.35L158.101 477.95C158.707 477.763 159.454 477.577 160.341 477.39C161.274 477.157 162.277 476.97 163.351 476.83C164.424 476.643 165.544 476.503 166.711 476.41C167.924 476.27 169.137 476.2 170.351 476.2ZM184.071 464.37C183.791 465.07 183.394 465.84 182.881 466.68C182.414 467.52 181.831 468.313 181.131 469.06C180.431 469.76 179.637 470.343 178.751 470.81C177.864 471.277 176.884 471.51 175.811 471.51C174.971 471.51 174.177 471.393 173.431 471.16C172.731 470.88 172.031 470.6 171.331 470.32C170.631 469.993 169.931 469.713 169.231 469.48C168.531 469.2 167.807 469.06 167.061 469.06C166.127 469.06 165.357 469.363 164.751 469.97C164.144 470.577 163.654 471.277 163.281 472.07L158.171 468.71C158.451 468.01 158.824 467.24 159.291 466.4C159.804 465.56 160.411 464.79 161.111 464.09C161.811 463.343 162.604 462.737 163.491 462.27C164.377 461.803 165.357 461.57 166.431 461.57C167.271 461.57 168.041 461.71 168.741 461.99C169.487 462.223 170.211 462.503 170.911 462.83C171.611 463.11 172.287 463.39 172.941 463.67C173.641 463.903 174.387 464.02 175.181 464.02C176.114 464.02 176.884 463.717 177.491 463.11C178.097 462.503 178.587 461.803 178.961 461.01L184.071 464.37ZM230.252 495.52C230.252 498.413 229.832 501.073 228.992 503.5C228.152 505.88 226.939 507.933 225.352 509.66C223.765 511.34 221.852 512.647 219.612 513.58C217.419 514.513 214.945 514.98 212.192 514.98C209.485 514.98 207.012 514.513 204.772 513.58C202.579 512.647 200.689 511.34 199.102 509.66C197.515 507.933 196.279 505.88 195.392 503.5C194.505 501.073 194.062 498.413 194.062 495.52C194.062 492.627 194.505 489.99 195.392 487.61C196.325 485.23 197.585 483.2 199.172 481.52C200.805 479.84 202.719 478.533 204.912 477.6C207.152 476.667 209.579 476.2 212.192 476.2C214.852 476.2 217.279 476.667 219.472 477.6C221.712 478.533 223.625 479.84 225.212 481.52C226.799 483.2 228.035 485.23 228.922 487.61C229.809 489.99 230.252 492.627 230.252 495.52ZM219.612 495.52C219.612 492.3 218.959 489.78 217.652 487.96C216.392 486.093 214.572 485.16 212.192 485.16C209.812 485.16 207.969 486.093 206.662 487.96C205.355 489.78 204.702 492.3 204.702 495.52C204.702 498.74 205.355 501.307 206.662 503.22C207.969 505.087 209.812 506.02 212.192 506.02C214.572 506.02 216.392 505.087 217.652 503.22C218.959 501.307 219.612 498.74 219.612 495.52ZM253.398 495.87C253.398 492.603 253.888 489.757 254.868 487.33C255.895 484.857 257.225 482.803 258.858 481.17C260.491 479.537 262.358 478.3 264.458 477.46C266.605 476.62 268.798 476.2 271.038 476.2C276.265 476.2 280.395 477.81 283.428 481.03C286.461 484.203 287.978 488.893 287.978 495.1C287.978 495.707 287.955 496.383 287.908 497.13C287.861 497.83 287.815 498.46 287.768 499.02H264.108C264.341 501.167 265.345 502.87 267.118 504.13C268.891 505.39 271.271 506.02 274.258 506.02C276.171 506.02 278.038 505.857 279.858 505.53C281.725 505.157 283.241 504.713 284.408 504.2L285.808 512.67C285.248 512.95 284.501 513.23 283.568 513.51C282.635 513.79 281.585 514.023 280.418 514.21C279.298 514.443 278.085 514.63 276.778 514.77C275.471 514.91 274.165 514.98 272.858 514.98C269.545 514.98 266.651 514.49 264.178 513.51C261.751 512.53 259.721 511.2 258.088 509.52C256.501 507.793 255.311 505.763 254.518 503.43C253.771 501.097 253.398 498.577 253.398 495.87ZM277.898 491.88C277.851 490.993 277.688 490.13 277.408 489.29C277.175 488.45 276.778 487.703 276.218 487.05C275.705 486.397 275.028 485.86 274.188 485.44C273.395 485.02 272.391 484.81 271.178 484.81C270.011 484.81 269.008 485.02 268.168 485.44C267.328 485.813 266.628 486.327 266.068 486.98C265.508 487.633 265.065 488.403 264.738 489.29C264.458 490.13 264.248 490.993 264.108 491.88H277.898ZM279.508 463.95L267.958 473.68L263.198 469.41L273.138 458.07L279.508 463.95ZM344.273 512.74C342.5 513.253 340.213 513.72 337.413 514.14C334.613 514.607 331.673 514.84 328.593 514.84C325.467 514.84 322.853 514.42 320.753 513.58C318.7 512.74 317.067 511.573 315.853 510.08C314.64 508.54 313.777 506.72 313.263 504.62C312.75 502.52 312.493 500.21 312.493 497.69V477.18H322.923V496.43C322.923 499.79 323.367 502.217 324.253 503.71C325.14 505.203 326.797 505.95 329.223 505.95C329.97 505.95 330.763 505.927 331.603 505.88C332.443 505.787 333.19 505.693 333.843 505.6V477.18H344.273V512.74ZM374.294 494.47C374.294 491.11 373.851 488.73 372.964 487.33C372.124 485.93 370.654 485.23 368.554 485.23C367.901 485.23 367.224 485.277 366.524 485.37C365.824 485.417 365.147 485.487 364.494 485.58V514H354.064V478.44C354.951 478.207 355.977 477.973 357.144 477.74C358.357 477.46 359.617 477.227 360.924 477.04C362.277 476.807 363.654 476.643 365.054 476.55C366.454 476.41 367.831 476.34 369.184 476.34C371.844 476.34 373.991 476.69 375.624 477.39C377.304 478.043 378.681 478.837 379.754 479.77C381.247 478.697 382.951 477.857 384.864 477.25C386.824 476.643 388.621 476.34 390.254 476.34C393.194 476.34 395.597 476.76 397.464 477.6C399.377 478.393 400.894 479.537 402.014 481.03C403.134 482.523 403.904 484.297 404.324 486.35C404.744 488.403 404.954 490.69 404.954 493.21V514H394.524V494.47C394.524 491.11 394.081 488.73 393.194 487.33C392.354 485.93 390.884 485.23 388.784 485.23C388.224 485.23 387.431 485.37 386.404 485.65C385.424 485.93 384.607 486.28 383.954 486.7C384.281 487.773 384.491 488.917 384.584 490.13C384.677 491.297 384.724 492.557 384.724 493.91V514H374.294V494.47ZM429.492 495.59C429.492 492.93 429.912 490.433 430.752 488.1C431.638 485.72 432.898 483.667 434.532 481.94C436.165 480.167 438.148 478.767 440.482 477.74C442.815 476.713 445.475 476.2 448.462 476.2C450.422 476.2 452.218 476.387 453.852 476.76C455.485 477.087 457.072 477.577 458.612 478.23L456.442 486.56C455.462 486.187 454.388 485.86 453.222 485.58C452.055 485.3 450.748 485.16 449.302 485.16C446.222 485.16 443.912 486.117 442.372 488.03C440.878 489.943 440.132 492.463 440.132 495.59C440.132 498.903 440.832 501.47 442.232 503.29C443.678 505.11 446.175 506.02 449.722 506.02C450.982 506.02 452.335 505.903 453.782 505.67C455.228 505.437 456.558 505.063 457.772 504.55L459.242 513.09C458.028 513.603 456.512 514.047 454.692 514.42C452.872 514.793 450.865 514.98 448.672 514.98C445.312 514.98 442.418 514.49 439.992 513.51C437.565 512.483 435.558 511.107 433.972 509.38C432.432 507.653 431.288 505.623 430.542 503.29C429.842 500.91 429.492 498.343 429.492 495.59ZM478.534 506.72C479.561 506.72 480.541 506.697 481.474 506.65C482.408 506.603 483.154 506.533 483.714 506.44V498.53C483.294 498.437 482.664 498.343 481.824 498.25C480.984 498.157 480.214 498.11 479.514 498.11C478.534 498.11 477.601 498.18 476.714 498.32C475.874 498.413 475.128 498.623 474.474 498.95C473.821 499.277 473.308 499.72 472.934 500.28C472.561 500.84 472.374 501.54 472.374 502.38C472.374 504.013 472.911 505.157 473.984 505.81C475.104 506.417 476.621 506.72 478.534 506.72ZM477.694 476.2C480.774 476.2 483.341 476.55 485.394 477.25C487.448 477.95 489.081 478.953 490.294 480.26C491.554 481.567 492.441 483.153 492.954 485.02C493.468 486.887 493.724 488.963 493.724 491.25V512.95C492.231 513.277 490.154 513.65 487.494 514.07C484.834 514.537 481.614 514.77 477.834 514.77C475.454 514.77 473.284 514.56 471.324 514.14C469.411 513.72 467.754 513.043 466.354 512.11C464.954 511.13 463.881 509.87 463.134 508.33C462.388 506.79 462.014 504.9 462.014 502.66C462.014 500.513 462.434 498.693 463.274 497.2C464.161 495.707 465.328 494.517 466.774 493.63C468.221 492.743 469.878 492.113 471.744 491.74C473.611 491.32 475.548 491.11 477.554 491.11C478.908 491.11 480.098 491.18 481.124 491.32C482.198 491.413 483.061 491.553 483.714 491.74V490.76C483.714 488.987 483.178 487.563 482.104 486.49C481.031 485.417 479.164 484.88 476.504 484.88C474.731 484.88 472.981 485.02 471.254 485.3C469.528 485.533 468.034 485.883 466.774 486.35L465.444 477.95C466.051 477.763 466.798 477.577 467.684 477.39C468.618 477.157 469.621 476.97 470.694 476.83C471.768 476.643 472.888 476.503 474.054 476.41C475.268 476.27 476.481 476.2 477.694 476.2ZM513.726 506.51C515.639 506.51 516.993 506.323 517.786 505.95C518.579 505.577 518.976 504.853 518.976 503.78C518.976 502.94 518.463 502.217 517.436 501.61C516.409 500.957 514.846 500.233 512.746 499.44C511.113 498.833 509.619 498.203 508.266 497.55C506.959 496.897 505.839 496.127 504.906 495.24C503.973 494.307 503.249 493.21 502.736 491.95C502.223 490.69 501.966 489.173 501.966 487.4C501.966 483.947 503.249 481.217 505.816 479.21C508.383 477.203 511.906 476.2 516.386 476.2C518.626 476.2 520.773 476.41 522.826 476.83C524.879 477.203 526.513 477.623 527.726 478.09L525.906 486.21C524.693 485.79 523.363 485.417 521.916 485.09C520.516 484.763 518.929 484.6 517.156 484.6C513.889 484.6 512.256 485.51 512.256 487.33C512.256 487.75 512.326 488.123 512.466 488.45C512.606 488.777 512.886 489.103 513.306 489.43C513.726 489.71 514.286 490.037 514.986 490.41C515.733 490.737 516.666 491.11 517.786 491.53C520.073 492.37 521.963 493.21 523.456 494.05C524.949 494.843 526.116 495.73 526.956 496.71C527.843 497.643 528.449 498.693 528.776 499.86C529.149 501.027 529.336 502.38 529.336 503.92C529.336 507.56 527.959 510.313 525.206 512.18C522.499 514.047 518.649 514.98 513.656 514.98C510.389 514.98 507.659 514.7 505.466 514.14C503.319 513.58 501.826 513.113 500.986 512.74L502.736 504.27C504.509 504.97 506.329 505.53 508.196 505.95C510.063 506.323 511.906 506.51 513.726 506.51ZM571.57 495.52C571.57 498.413 571.15 501.073 570.31 503.5C569.47 505.88 568.257 507.933 566.67 509.66C565.084 511.34 563.17 512.647 560.93 513.58C558.737 514.513 556.264 514.98 553.51 514.98C550.804 514.98 548.33 514.513 546.09 513.58C543.897 512.647 542.007 511.34 540.42 509.66C538.834 507.933 537.597 505.88 536.71 503.5C535.824 501.073 535.38 498.413 535.38 495.52C535.38 492.627 535.824 489.99 536.71 487.61C537.644 485.23 538.904 483.2 540.49 481.52C542.124 479.84 544.037 478.533 546.23 477.6C548.47 476.667 550.897 476.2 553.51 476.2C556.17 476.2 558.597 476.667 560.79 477.6C563.03 478.533 564.944 479.84 566.53 481.52C568.117 483.2 569.354 485.23 570.24 487.61C571.127 489.99 571.57 492.627 571.57 495.52ZM560.93 495.52C560.93 492.3 560.277 489.78 558.97 487.96C557.71 486.093 555.89 485.16 553.51 485.16C551.13 485.16 549.287 486.093 547.98 487.96C546.674 489.78 546.02 492.3 546.02 495.52C546.02 498.74 546.674 501.307 547.98 503.22C549.287 505.087 551.13 506.02 553.51 506.02C555.89 506.02 557.71 505.087 558.97 503.22C560.277 501.307 560.93 498.74 560.93 495.52ZM114.15 565.87C114.15 562.603 114.64 559.757 115.62 557.33C116.647 554.857 117.977 552.803 119.61 551.17C121.243 549.537 123.11 548.3 125.21 547.46C127.357 546.62 129.55 546.2 131.79 546.2C137.017 546.2 141.147 547.81 144.18 551.03C147.213 554.203 148.73 558.893 148.73 565.1C148.73 565.707 148.707 566.383 148.66 567.13C148.613 567.83 148.567 568.46 148.52 569.02H124.86C125.093 571.167 126.097 572.87 127.87 574.13C129.643 575.39 132.023 576.02 135.01 576.02C136.923 576.02 138.79 575.857 140.61 575.53C142.477 575.157 143.993 574.713 145.16 574.2L146.56 582.67C146 582.95 145.253 583.23 144.32 583.51C143.387 583.79 142.337 584.023 141.17 584.21C140.05 584.443 138.837 584.63 137.53 584.77C136.223 584.91 134.917 584.98 133.61 584.98C130.297 584.98 127.403 584.49 124.93 583.51C122.503 582.53 120.473 581.2 118.84 579.52C117.253 577.793 116.063 575.763 115.27 573.43C114.523 571.097 114.15 568.577 114.15 565.87ZM138.65 561.88C138.603 560.993 138.44 560.13 138.16 559.29C137.927 558.45 137.53 557.703 136.97 557.05C136.457 556.397 135.78 555.86 134.94 555.44C134.147 555.02 133.143 554.81 131.93 554.81C130.763 554.81 129.76 555.02 128.92 555.44C128.08 555.813 127.38 556.327 126.82 556.98C126.26 557.633 125.817 558.403 125.49 559.29C125.21 560.13 125 560.993 124.86 561.88H138.65ZM171.409 558.38L178.689 547.18H189.469L176.869 564.89C179.669 568.39 182.212 571.797 184.499 575.11C186.786 578.423 188.606 581.387 189.959 584H178.759C178.386 583.3 177.919 582.437 177.359 581.41C176.799 580.337 176.169 579.24 175.469 578.12C174.769 576.953 174.022 575.81 173.229 574.69C172.482 573.523 171.736 572.473 170.989 571.54C170.289 572.427 169.566 573.407 168.819 574.48C168.119 575.553 167.442 576.65 166.789 577.77C166.136 578.843 165.482 579.917 164.829 580.99C164.222 582.063 163.686 583.067 163.219 584H152.579C153.139 582.833 153.909 581.457 154.889 579.87C155.869 578.283 156.919 576.65 158.039 574.97C159.206 573.243 160.419 571.54 161.679 569.86C162.939 568.133 164.176 566.523 165.389 565.03C163.289 562.09 161.189 559.127 159.089 556.14C156.989 553.107 154.912 550.12 152.859 547.18H164.129L171.409 558.38ZM192.08 565.87C192.08 562.603 192.57 559.757 193.55 557.33C194.576 554.857 195.906 552.803 197.54 551.17C199.173 549.537 201.04 548.3 203.14 547.46C205.286 546.62 207.48 546.2 209.72 546.2C214.946 546.2 219.076 547.81 222.11 551.03C225.143 554.203 226.66 558.893 226.66 565.1C226.66 565.707 226.636 566.383 226.59 567.13C226.543 567.83 226.496 568.46 226.45 569.02H202.79C203.023 571.167 204.026 572.87 205.8 574.13C207.573 575.39 209.953 576.02 212.94 576.02C214.853 576.02 216.72 575.857 218.54 575.53C220.406 575.157 221.923 574.713 223.09 574.2L224.49 582.67C223.93 582.95 223.183 583.23 222.25 583.51C221.316 583.79 220.266 584.023 219.1 584.21C217.98 584.443 216.766 584.63 215.46 584.77C214.153 584.91 212.846 584.98 211.54 584.98C208.226 584.98 205.333 584.49 202.86 583.51C200.433 582.53 198.403 581.2 196.77 579.52C195.183 577.793 193.993 575.763 193.2 573.43C192.453 571.097 192.08 568.577 192.08 565.87ZM216.58 561.88C216.533 560.993 216.37 560.13 216.09 559.29C215.856 558.45 215.46 557.703 214.9 557.05C214.386 556.397 213.71 555.86 212.87 555.44C212.076 555.02 211.073 554.81 209.86 554.81C208.693 554.81 207.69 555.02 206.85 555.44C206.01 555.813 205.31 556.327 204.75 556.98C204.19 557.633 203.746 558.403 203.42 559.29C203.14 560.13 202.93 560.993 202.79 561.88H216.58ZM254.939 564.47C254.939 561.11 254.495 558.73 253.609 557.33C252.769 555.93 251.299 555.23 249.199 555.23C248.545 555.23 247.869 555.277 247.169 555.37C246.469 555.417 245.792 555.487 245.139 555.58V584H234.709V548.44C235.595 548.207 236.622 547.973 237.789 547.74C239.002 547.46 240.262 547.227 241.569 547.04C242.922 546.807 244.299 546.643 245.699 546.55C247.099 546.41 248.475 546.34 249.829 546.34C252.489 546.34 254.635 546.69 256.269 547.39C257.949 548.043 259.325 548.837 260.399 549.77C261.892 548.697 263.595 547.857 265.509 547.25C267.469 546.643 269.265 546.34 270.899 546.34C273.839 546.34 276.242 546.76 278.109 547.6C280.022 548.393 281.539 549.537 282.659 551.03C283.779 552.523 284.549 554.297 284.969 556.35C285.389 558.403 285.599 560.69 285.599 563.21V584H275.169V564.47C275.169 561.11 274.725 558.73 273.839 557.33C272.999 555.93 271.529 555.23 269.429 555.23C268.869 555.23 268.075 555.37 267.049 555.65C266.069 555.93 265.252 556.28 264.599 556.7C264.925 557.773 265.135 558.917 265.229 560.13C265.322 561.297 265.369 562.557 265.369 563.91V584H254.939V564.47ZM318.66 565.87C318.66 562.65 317.937 560.083 316.49 558.17C315.043 556.21 312.897 555.23 310.05 555.23C309.117 555.23 308.253 555.277 307.46 555.37C306.667 555.417 306.013 555.487 305.5 555.58V574.41C306.153 574.83 306.993 575.18 308.02 575.46C309.093 575.74 310.167 575.88 311.24 575.88C316.187 575.88 318.66 572.543 318.66 565.87ZM329.3 565.59C329.3 568.437 328.95 571.027 328.25 573.36C327.55 575.693 326.523 577.7 325.17 579.38C323.817 581.06 322.137 582.367 320.13 583.3C318.123 584.233 315.813 584.7 313.2 584.7C311.753 584.7 310.4 584.56 309.14 584.28C307.88 584 306.667 583.603 305.5 583.09V596.95H295.07V548.44C296.003 548.16 297.077 547.903 298.29 547.67C299.503 547.39 300.763 547.157 302.07 546.97C303.423 546.783 304.777 546.643 306.13 546.55C307.53 546.41 308.86 546.34 310.12 546.34C313.153 546.34 315.86 546.807 318.24 547.74C320.62 548.627 322.627 549.91 324.26 551.59C325.893 553.223 327.13 555.23 327.97 557.61C328.857 559.99 329.3 562.65 329.3 565.59ZM352.016 584.7C348.983 584.653 346.509 584.327 344.596 583.72C342.729 583.113 341.236 582.273 340.116 581.2C339.043 580.08 338.296 578.75 337.876 577.21C337.503 575.623 337.316 573.85 337.316 571.89V531.36L347.746 529.68V569.79C347.746 570.723 347.816 571.563 347.956 572.31C348.096 573.057 348.353 573.687 348.726 574.2C349.146 574.713 349.729 575.133 350.476 575.46C351.223 575.787 352.226 575.997 353.486 576.09L352.016 584.7ZM374.56 576.72C375.587 576.72 376.567 576.697 377.5 576.65C378.433 576.603 379.18 576.533 379.74 576.44V568.53C379.32 568.437 378.69 568.343 377.85 568.25C377.01 568.157 376.24 568.11 375.54 568.11C374.56 568.11 373.627 568.18 372.74 568.32C371.9 568.413 371.153 568.623 370.5 568.95C369.847 569.277 369.333 569.72 368.96 570.28C368.587 570.84 368.4 571.54 368.4 572.38C368.4 574.013 368.937 575.157 370.01 575.81C371.13 576.417 372.647 576.72 374.56 576.72ZM373.72 546.2C376.8 546.2 379.367 546.55 381.42 547.25C383.473 547.95 385.107 548.953 386.32 550.26C387.58 551.567 388.467 553.153 388.98 555.02C389.493 556.887 389.75 558.963 389.75 561.25V582.95C388.257 583.277 386.18 583.65 383.52 584.07C380.86 584.537 377.64 584.77 373.86 584.77C371.48 584.77 369.31 584.56 367.35 584.14C365.437 583.72 363.78 583.043 362.38 582.11C360.98 581.13 359.907 579.87 359.16 578.33C358.413 576.79 358.04 574.9 358.04 572.66C358.04 570.513 358.46 568.693 359.3 567.2C360.187 565.707 361.353 564.517 362.8 563.63C364.247 562.743 365.903 562.113 367.77 561.74C369.637 561.32 371.573 561.11 373.58 561.11C374.933 561.11 376.123 561.18 377.15 561.32C378.223 561.413 379.087 561.553 379.74 561.74V560.76C379.74 558.987 379.203 557.563 378.13 556.49C377.057 555.417 375.19 554.88 372.53 554.88C370.757 554.88 369.007 555.02 367.28 555.3C365.553 555.533 364.06 555.883 362.8 556.35L361.47 547.95C362.077 547.763 362.823 547.577 363.71 547.39C364.643 547.157 365.647 546.97 366.72 546.83C367.793 546.643 368.913 546.503 370.08 546.41C371.293 546.27 372.507 546.2 373.72 546.2ZM421.371 556.42C420.438 556.187 419.341 555.953 418.081 555.72C416.821 555.44 415.468 555.3 414.021 555.3C413.368 555.3 412.575 555.37 411.641 555.51C410.755 555.603 410.078 555.72 409.611 555.86V584H399.181V549.14C401.048 548.487 403.241 547.88 405.761 547.32C408.328 546.713 411.175 546.41 414.301 546.41C414.861 546.41 415.538 546.457 416.331 546.55C417.125 546.597 417.918 546.69 418.711 546.83C419.505 546.923 420.298 547.063 421.091 547.25C421.885 547.39 422.561 547.577 423.121 547.81L421.371 556.42ZM454.419 565.31C454.419 568.53 455.142 571.12 456.589 573.08C458.036 575.04 460.182 576.02 463.029 576.02C463.962 576.02 464.826 575.997 465.619 575.95C466.412 575.857 467.066 575.763 467.579 575.67V556.7C466.926 556.28 466.062 555.93 464.989 555.65C463.962 555.37 462.912 555.23 461.839 555.23C456.892 555.23 454.419 558.59 454.419 565.31ZM478.009 582.81C477.076 583.09 476.002 583.37 474.789 583.65C473.576 583.883 472.292 584.093 470.939 584.28C469.632 584.467 468.279 584.607 466.879 584.7C465.526 584.84 464.219 584.91 462.959 584.91C459.926 584.91 457.219 584.467 454.839 583.58C452.459 582.693 450.452 581.433 448.819 579.8C447.186 578.12 445.926 576.113 445.039 573.78C444.199 571.4 443.779 568.74 443.779 565.8C443.779 562.813 444.152 560.13 444.899 557.75C445.646 555.323 446.719 553.27 448.119 551.59C449.519 549.91 451.222 548.627 453.229 547.74C455.282 546.853 457.616 546.41 460.229 546.41C461.676 546.41 462.959 546.55 464.079 546.83C465.246 547.11 466.412 547.507 467.579 548.02V531.36L478.009 529.68V582.81ZM486.025 565.87C486.025 562.603 486.515 559.757 487.495 557.33C488.522 554.857 489.852 552.803 491.485 551.17C493.118 549.537 494.985 548.3 497.085 547.46C499.232 546.62 501.425 546.2 503.665 546.2C508.892 546.2 513.022 547.81 516.055 551.03C519.088 554.203 520.605 558.893 520.605 565.1C520.605 565.707 520.582 566.383 520.535 567.13C520.488 567.83 520.442 568.46 520.395 569.02H496.735C496.968 571.167 497.972 572.87 499.745 574.13C501.518 575.39 503.898 576.02 506.885 576.02C508.798 576.02 510.665 575.857 512.485 575.53C514.352 575.157 515.868 574.713 517.035 574.2L518.435 582.67C517.875 582.95 517.128 583.23 516.195 583.51C515.262 583.79 514.212 584.023 513.045 584.21C511.925 584.443 510.712 584.63 509.405 584.77C508.098 584.91 506.792 584.98 505.485 584.98C502.172 584.98 499.278 584.49 496.805 583.51C494.378 582.53 492.348 581.2 490.715 579.52C489.128 577.793 487.938 575.763 487.145 573.43C486.398 571.097 486.025 568.577 486.025 565.87ZM510.525 561.88C510.478 560.993 510.315 560.13 510.035 559.29C509.802 558.45 509.405 557.703 508.845 557.05C508.332 556.397 507.655 555.86 506.815 555.44C506.022 555.02 505.018 554.81 503.805 554.81C502.638 554.81 501.635 555.02 500.795 555.44C499.955 555.813 499.255 556.327 498.695 556.98C498.135 557.633 497.692 558.403 497.365 559.29C497.085 560.13 496.875 560.993 496.735 561.88H510.525ZM576.9 582.74C575.127 583.253 572.84 583.72 570.04 584.14C567.24 584.607 564.3 584.84 561.22 584.84C558.094 584.84 555.48 584.42 553.38 583.58C551.327 582.74 549.694 581.573 548.48 580.08C547.267 578.54 546.404 576.72 545.89 574.62C545.377 572.52 545.12 570.21 545.12 567.69V547.18H555.55V566.43C555.55 569.79 555.994 572.217 556.88 573.71C557.767 575.203 559.424 575.95 561.85 575.95C562.597 575.95 563.39 575.927 564.23 575.88C565.07 575.787 565.817 575.693 566.47 575.6V547.18H576.9V582.74ZM601.321 558.38L608.601 547.18H619.381L606.781 564.89C609.581 568.39 612.124 571.797 614.411 575.11C616.698 578.423 618.518 581.387 619.871 584H608.671C608.298 583.3 607.831 582.437 607.271 581.41C606.711 580.337 606.081 579.24 605.381 578.12C604.681 576.953 603.934 575.81 603.141 574.69C602.394 573.523 601.648 572.473 600.901 571.54C600.201 572.427 599.478 573.407 598.731 574.48C598.031 575.553 597.354 576.65 596.701 577.77C596.048 578.843 595.394 579.917 594.741 580.99C594.134 582.063 593.598 583.067 593.131 584H582.491C583.051 582.833 583.821 581.457 584.801 579.87C585.781 578.283 586.831 576.65 587.951 574.97C589.118 573.243 590.331 571.54 591.591 569.86C592.851 568.133 594.088 566.523 595.301 565.03C593.201 562.09 591.101 559.127 589.001 556.14C586.901 553.107 584.824 550.12 582.771 547.18H594.041L601.321 558.38ZM634.621 543.26C632.941 543.26 631.354 543.47 629.861 543.89C628.367 544.31 626.711 544.987 624.891 545.92L621.951 538.01C623.771 536.843 625.917 535.957 628.391 535.35C630.864 534.697 633.291 534.37 635.671 534.37C638.657 534.37 641.107 534.767 643.021 535.56C644.981 536.353 646.521 537.357 647.641 538.57C648.761 539.783 649.531 541.113 649.951 542.56C650.417 544.007 650.651 545.383 650.651 546.69C650.651 547.997 650.441 549.21 650.021 550.33C649.647 551.403 649.157 552.407 648.551 553.34C647.944 554.273 647.244 555.16 646.451 556C645.657 556.84 644.887 557.633 644.141 558.38C643.581 558.94 642.997 559.547 642.391 560.2C641.784 560.807 641.224 561.46 640.711 562.16C640.244 562.86 639.847 563.607 639.521 564.4C639.194 565.147 639.031 565.917 639.031 566.71C639.031 566.897 639.031 567.177 639.031 567.55C639.031 567.923 639.054 568.25 639.101 568.53H629.861C629.767 568.063 629.697 567.55 629.651 566.99C629.651 566.383 629.651 565.87 629.651 565.45C629.651 564.143 629.814 562.977 630.141 561.95C630.467 560.877 630.887 559.897 631.401 559.01C631.961 558.077 632.591 557.213 633.291 556.42C633.991 555.627 634.714 554.857 635.461 554.11C636.534 553.037 637.514 551.987 638.401 550.96C639.287 549.887 639.731 548.673 639.731 547.32C639.731 546.2 639.287 545.243 638.401 544.45C637.561 543.657 636.301 543.26 634.621 543.26ZM641.131 578.47C641.131 580.523 640.454 582.11 639.101 583.23C637.794 584.35 636.301 584.91 634.621 584.91C632.941 584.91 631.424 584.35 630.071 583.23C628.764 582.11 628.111 580.523 628.111 578.47C628.111 576.417 628.764 574.83 630.071 573.71C631.424 572.59 632.941 572.03 634.621 572.03C636.301 572.03 637.794 572.59 639.101 573.71C640.454 574.83 641.131 576.417 641.131 578.47Z" fill="white"/>
<rect x="924.5" y="327.5" width="221" height="337" rx="16.5" stroke="white" stroke-width="7"/>
<circle cx="1034.5" cy="569.5" r="59.5" stroke="white" stroke-width="10"/>
<circle cx="1034.5" cy="569.5" r="23.5" fill="white"/>
<rect x="944" y="348" width="180" height="121" rx="8" fill="#4C4A4A" stroke="black" stroke-width="4"/>
<path fill-rule="evenodd" clip-rule="evenodd" d="M1043 471H1116C1121.52 471 1126 466.523 1126 461V356C1126 350.477 1121.52 346 1116 346H1043V471Z" fill="#FFA24B"/>
<rect x="944" y="371" width="99" height="20" fill="#6AA2F5"/>
<rect x="944" y="348" width="180" height="121" rx="8" stroke="white" stroke-width="4"/>
</g>
<defs>
<clipPath id="clip0_104_290">
<rect width="1300" height="976" fill="white"/>
</clipPath>
</defs>
</svg>
