<svg width="1300" height="976" viewBox="0 0 1300 976" fill="none" xmlns="http://www.w3.org/2000/svg">
<g clip-path="url(#clip0_104_364)">
<path d="M126.47 261.51C128.383 261.51 129.737 261.323 130.53 260.95C131.323 260.577 131.72 259.853 131.72 258.78C131.72 257.94 131.207 257.217 130.18 256.61C129.153 255.957 127.59 255.233 125.49 254.44C123.857 253.833 122.363 253.203 121.01 252.55C119.703 251.897 118.583 251.127 117.65 250.24C116.717 249.307 115.993 248.21 115.48 246.95C114.967 245.69 114.71 244.173 114.71 242.4C114.71 238.947 115.993 236.217 118.56 234.21C121.127 232.203 124.65 231.2 129.13 231.2C131.37 231.2 133.517 231.41 135.57 231.83C137.623 232.203 139.257 232.623 140.47 233.09L138.65 241.21C137.437 240.79 136.107 240.417 134.66 240.09C133.26 239.763 131.673 239.6 129.9 239.6C126.633 239.6 125 240.51 125 242.33C125 242.75 125.07 243.123 125.21 243.45C125.35 243.777 125.63 244.103 126.05 244.43C126.47 244.71 127.03 245.037 127.73 245.41C128.477 245.737 129.41 246.11 130.53 246.53C132.817 247.37 134.707 248.21 136.2 249.05C137.693 249.843 138.86 250.73 139.7 251.71C140.587 252.643 141.193 253.693 141.52 254.86C141.893 256.027 142.08 257.38 142.08 258.92C142.08 262.56 140.703 265.313 137.95 267.18C135.243 269.047 131.393 269.98 126.4 269.98C123.133 269.98 120.403 269.7 118.21 269.14C116.063 268.58 114.57 268.113 113.73 267.74L115.48 259.27C117.253 259.97 119.073 260.53 120.94 260.95C122.807 261.323 124.65 261.51 126.47 261.51ZM163.945 261.72C164.971 261.72 165.951 261.697 166.885 261.65C167.818 261.603 168.565 261.533 169.125 261.44V253.53C168.705 253.437 168.075 253.343 167.235 253.25C166.395 253.157 165.625 253.11 164.925 253.11C163.945 253.11 163.011 253.18 162.125 253.32C161.285 253.413 160.538 253.623 159.885 253.95C159.231 254.277 158.718 254.72 158.345 255.28C157.971 255.84 157.785 256.54 157.785 257.38C157.785 259.013 158.321 260.157 159.395 260.81C160.515 261.417 162.031 261.72 163.945 261.72ZM163.105 231.2C166.185 231.2 168.751 231.55 170.805 232.25C172.858 232.95 174.491 233.953 175.705 235.26C176.965 236.567 177.851 238.153 178.365 240.02C178.878 241.887 179.135 243.963 179.135 246.25V267.95C177.641 268.277 175.565 268.65 172.905 269.07C170.245 269.537 167.025 269.77 163.245 269.77C160.865 269.77 158.695 269.56 156.735 269.14C154.821 268.72 153.165 268.043 151.765 267.11C150.365 266.13 149.291 264.87 148.545 263.33C147.798 261.79 147.425 259.9 147.425 257.66C147.425 255.513 147.845 253.693 148.685 252.2C149.571 250.707 150.738 249.517 152.185 248.63C153.631 247.743 155.288 247.113 157.155 246.74C159.021 246.32 160.958 246.11 162.965 246.11C164.318 246.11 165.508 246.18 166.535 246.32C167.608 246.413 168.471 246.553 169.125 246.74V245.76C169.125 243.987 168.588 242.563 167.515 241.49C166.441 240.417 164.575 239.88 161.915 239.88C160.141 239.88 158.391 240.02 156.665 240.3C154.938 240.533 153.445 240.883 152.185 241.35L150.855 232.95C151.461 232.763 152.208 232.577 153.095 232.39C154.028 232.157 155.031 231.97 156.105 231.83C157.178 231.643 158.298 231.503 159.465 231.41C160.678 231.27 161.891 231.2 163.105 231.2ZM176.825 219.37C176.545 220.07 176.148 220.84 175.635 221.68C175.168 222.52 174.585 223.313 173.885 224.06C173.185 224.76 172.391 225.343 171.505 225.81C170.618 226.277 169.638 226.51 168.565 226.51C167.725 226.51 166.931 226.393 166.185 226.16C165.485 225.88 164.785 225.6 164.085 225.32C163.385 224.993 162.685 224.713 161.985 224.48C161.285 224.2 160.561 224.06 159.815 224.06C158.881 224.06 158.111 224.363 157.505 224.97C156.898 225.577 156.408 226.277 156.035 227.07L150.925 223.71C151.205 223.01 151.578 222.24 152.045 221.4C152.558 220.56 153.165 219.79 153.865 219.09C154.565 218.343 155.358 217.737 156.245 217.27C157.131 216.803 158.111 216.57 159.185 216.57C160.025 216.57 160.795 216.71 161.495 216.99C162.241 217.223 162.965 217.503 163.665 217.83C164.365 218.11 165.041 218.39 165.695 218.67C166.395 218.903 167.141 219.02 167.935 219.02C168.868 219.02 169.638 218.717 170.245 218.11C170.851 217.503 171.341 216.803 171.715 216.01L176.825 219.37ZM223.006 250.52C223.006 253.413 222.586 256.073 221.746 258.5C220.906 260.88 219.693 262.933 218.106 264.66C216.519 266.34 214.606 267.647 212.366 268.58C210.173 269.513 207.699 269.98 204.946 269.98C202.239 269.98 199.766 269.513 197.526 268.58C195.333 267.647 193.443 266.34 191.856 264.66C190.269 262.933 189.033 260.88 188.146 258.5C187.259 256.073 186.816 253.413 186.816 250.52C186.816 247.627 187.259 244.99 188.146 242.61C189.079 240.23 190.339 238.2 191.926 236.52C193.559 234.84 195.473 233.533 197.666 232.6C199.906 231.667 202.333 231.2 204.946 231.2C207.606 231.2 210.033 231.667 212.226 232.6C214.466 233.533 216.379 234.84 217.966 236.52C219.553 238.2 220.789 240.23 221.676 242.61C222.563 244.99 223.006 247.627 223.006 250.52ZM212.366 250.52C212.366 247.3 211.713 244.78 210.406 242.96C209.146 241.093 207.326 240.16 204.946 240.16C202.566 240.16 200.723 241.093 199.416 242.96C198.109 244.78 197.456 247.3 197.456 250.52C197.456 253.74 198.109 256.307 199.416 258.22C200.723 260.087 202.566 261.02 204.946 261.02C207.326 261.02 209.146 260.087 210.406 258.22C211.713 256.307 212.366 253.74 212.366 250.52ZM271.492 250.87C271.492 247.65 270.769 245.083 269.322 243.17C267.875 241.21 265.729 240.23 262.882 240.23C261.949 240.23 261.085 240.277 260.292 240.37C259.499 240.417 258.845 240.487 258.332 240.58V259.41C258.985 259.83 259.825 260.18 260.852 260.46C261.925 260.74 262.999 260.88 264.072 260.88C269.019 260.88 271.492 257.543 271.492 250.87ZM282.132 250.59C282.132 253.437 281.782 256.027 281.082 258.36C280.382 260.693 279.355 262.7 278.002 264.38C276.649 266.06 274.969 267.367 272.962 268.3C270.955 269.233 268.645 269.7 266.032 269.7C264.585 269.7 263.232 269.56 261.972 269.28C260.712 269 259.499 268.603 258.332 268.09V281.95H247.902V233.44C248.835 233.16 249.909 232.903 251.122 232.67C252.335 232.39 253.595 232.157 254.902 231.97C256.255 231.783 257.609 231.643 258.962 231.55C260.362 231.41 261.692 231.34 262.952 231.34C265.985 231.34 268.692 231.807 271.072 232.74C273.452 233.627 275.459 234.91 277.092 236.59C278.725 238.223 279.962 240.23 280.802 242.61C281.689 244.99 282.132 247.65 282.132 250.59ZM312.338 241.42C311.405 241.187 310.308 240.953 309.048 240.72C307.788 240.44 306.435 240.3 304.988 240.3C304.335 240.3 303.541 240.37 302.608 240.51C301.721 240.603 301.045 240.72 300.578 240.86V269H290.148V234.14C292.015 233.487 294.208 232.88 296.728 232.32C299.295 231.713 302.141 231.41 305.268 231.41C305.828 231.41 306.505 231.457 307.298 231.55C308.091 231.597 308.885 231.69 309.678 231.83C310.471 231.923 311.265 232.063 312.058 232.25C312.851 232.39 313.528 232.577 314.088 232.81L312.338 241.42ZM353.436 250.52C353.436 253.413 353.016 256.073 352.176 258.5C351.336 260.88 350.122 262.933 348.536 264.66C346.949 266.34 345.036 267.647 342.796 268.58C340.602 269.513 338.129 269.98 335.376 269.98C332.669 269.98 330.196 269.513 327.956 268.58C325.762 267.647 323.872 266.34 322.286 264.66C320.699 262.933 319.462 260.88 318.576 258.5C317.689 256.073 317.246 253.413 317.246 250.52C317.246 247.627 317.689 244.99 318.576 242.61C319.509 240.23 320.769 238.2 322.356 236.52C323.989 234.84 325.902 233.533 328.096 232.6C330.336 231.667 332.762 231.2 335.376 231.2C338.036 231.2 340.462 231.667 342.656 232.6C344.896 233.533 346.809 234.84 348.396 236.52C349.982 238.2 351.219 240.23 352.106 242.61C352.992 244.99 353.436 247.627 353.436 250.52ZM342.796 250.52C342.796 247.3 342.142 244.78 340.836 242.96C339.576 241.093 337.756 240.16 335.376 240.16C332.996 240.16 331.152 241.093 329.846 242.96C328.539 244.78 327.886 247.3 327.886 250.52C327.886 253.74 328.539 256.307 329.846 258.22C331.152 260.087 332.996 261.02 335.376 261.02C337.756 261.02 339.576 260.087 340.836 258.22C342.142 256.307 342.796 253.74 342.796 250.52ZM370.405 250.31C370.405 253.53 371.129 256.12 372.575 258.08C374.022 260.04 376.169 261.02 379.015 261.02C379.949 261.02 380.812 260.997 381.605 260.95C382.399 260.857 383.052 260.763 383.565 260.67V241.7C382.912 241.28 382.049 240.93 380.975 240.65C379.949 240.37 378.899 240.23 377.825 240.23C372.879 240.23 370.405 243.59 370.405 250.31ZM393.995 267.81C393.062 268.09 391.989 268.37 390.775 268.65C389.562 268.883 388.279 269.093 386.925 269.28C385.619 269.467 384.265 269.607 382.865 269.7C381.512 269.84 380.205 269.91 378.945 269.91C375.912 269.91 373.205 269.467 370.825 268.58C368.445 267.693 366.439 266.433 364.805 264.8C363.172 263.12 361.912 261.113 361.025 258.78C360.185 256.4 359.765 253.74 359.765 250.8C359.765 247.813 360.139 245.13 360.885 242.75C361.632 240.323 362.705 238.27 364.105 236.59C365.505 234.91 367.209 233.627 369.215 232.74C371.269 231.853 373.602 231.41 376.215 231.41C377.662 231.41 378.945 231.55 380.065 231.83C381.232 232.11 382.399 232.507 383.565 233.02V216.36L393.995 214.68V267.81ZM435.191 267.74C433.418 268.253 431.131 268.72 428.331 269.14C425.531 269.607 422.591 269.84 419.511 269.84C416.385 269.84 413.771 269.42 411.671 268.58C409.618 267.74 407.985 266.573 406.771 265.08C405.558 263.54 404.695 261.72 404.181 259.62C403.668 257.52 403.411 255.21 403.411 252.69V232.18H413.841V251.43C413.841 254.79 414.285 257.217 415.171 258.71C416.058 260.203 417.715 260.95 420.141 260.95C420.888 260.95 421.681 260.927 422.521 260.88C423.361 260.787 424.108 260.693 424.761 260.6V232.18H435.191V267.74ZM444.632 223.01L455.062 221.33V232.18H467.592V240.86H455.062V253.81C455.062 256.003 455.435 257.753 456.182 259.06C456.975 260.367 458.539 261.02 460.872 261.02C461.992 261.02 463.135 260.927 464.302 260.74C465.515 260.507 466.612 260.203 467.592 259.83L469.062 267.95C467.802 268.463 466.402 268.907 464.862 269.28C463.322 269.653 461.432 269.84 459.192 269.84C456.345 269.84 453.989 269.467 452.122 268.72C450.255 267.927 448.762 266.853 447.642 265.5C446.522 264.1 445.729 262.42 445.262 260.46C444.842 258.5 444.632 256.33 444.632 253.95V223.01ZM509.158 250.52C509.158 253.413 508.738 256.073 507.898 258.5C507.058 260.88 505.845 262.933 504.258 264.66C502.672 266.34 500.758 267.647 498.518 268.58C496.325 269.513 493.852 269.98 491.098 269.98C488.392 269.98 485.918 269.513 483.678 268.58C481.485 267.647 479.595 266.34 478.008 264.66C476.422 262.933 475.185 260.88 474.298 258.5C473.412 256.073 472.968 253.413 472.968 250.52C472.968 247.627 473.412 244.99 474.298 242.61C475.232 240.23 476.492 238.2 478.078 236.52C479.712 234.84 481.625 233.533 483.818 232.6C486.058 231.667 488.485 231.2 491.098 231.2C493.758 231.2 496.185 231.667 498.378 232.6C500.618 233.533 502.532 234.84 504.118 236.52C505.705 238.2 506.942 240.23 507.828 242.61C508.715 244.99 509.158 247.627 509.158 250.52ZM498.518 250.52C498.518 247.3 497.865 244.78 496.558 242.96C495.298 241.093 493.478 240.16 491.098 240.16C488.718 240.16 486.875 241.093 485.568 242.96C484.262 244.78 483.608 247.3 483.608 250.52C483.608 253.74 484.262 256.307 485.568 258.22C486.875 260.087 488.718 261.02 491.098 261.02C493.478 261.02 495.298 260.087 496.558 258.22C497.865 256.307 498.518 253.74 498.518 250.52ZM527.808 261.51C529.721 261.51 531.075 261.323 531.868 260.95C532.661 260.577 533.058 259.853 533.058 258.78C533.058 257.94 532.545 257.217 531.518 256.61C530.491 255.957 528.928 255.233 526.828 254.44C525.195 253.833 523.701 253.203 522.348 252.55C521.041 251.897 519.921 251.127 518.988 250.24C518.055 249.307 517.331 248.21 516.818 246.95C516.305 245.69 516.048 244.173 516.048 242.4C516.048 238.947 517.331 236.217 519.898 234.21C522.465 232.203 525.988 231.2 530.468 231.2C532.708 231.2 534.855 231.41 536.908 231.83C538.961 232.203 540.595 232.623 541.808 233.09L539.988 241.21C538.775 240.79 537.445 240.417 535.998 240.09C534.598 239.763 533.011 239.6 531.238 239.6C527.971 239.6 526.338 240.51 526.338 242.33C526.338 242.75 526.408 243.123 526.548 243.45C526.688 243.777 526.968 244.103 527.388 244.43C527.808 244.71 528.368 245.037 529.068 245.41C529.815 245.737 530.748 246.11 531.868 246.53C534.155 247.37 536.045 248.21 537.538 249.05C539.031 249.843 540.198 250.73 541.038 251.71C541.925 252.643 542.531 253.693 542.858 254.86C543.231 256.027 543.418 257.38 543.418 258.92C543.418 262.56 542.041 265.313 539.288 267.18C536.581 269.047 532.731 269.98 527.738 269.98C524.471 269.98 521.741 269.7 519.548 269.14C517.401 268.58 515.908 268.113 515.068 267.74L516.818 259.27C518.591 259.97 520.411 260.53 522.278 260.95C524.145 261.323 525.988 261.51 527.808 261.51ZM602.469 250.52C602.469 253.413 602.049 256.073 601.209 258.5C600.369 260.88 599.156 262.933 597.569 264.66C595.982 266.34 594.069 267.647 591.829 268.58C589.636 269.513 587.162 269.98 584.409 269.98C581.702 269.98 579.229 269.513 576.989 268.58C574.796 267.647 572.906 266.34 571.319 264.66C569.732 262.933 568.496 260.88 567.609 258.5C566.722 256.073 566.279 253.413 566.279 250.52C566.279 247.627 566.722 244.99 567.609 242.61C568.542 240.23 569.802 238.2 571.389 236.52C573.022 234.84 574.936 233.533 577.129 232.6C579.369 231.667 581.796 231.2 584.409 231.2C587.069 231.2 589.496 231.667 591.689 232.6C593.929 233.533 595.842 234.84 597.429 236.52C599.016 238.2 600.252 240.23 601.139 242.61C602.026 244.99 602.469 247.627 602.469 250.52ZM591.829 250.52C591.829 247.3 591.176 244.78 589.869 242.96C588.609 241.093 586.789 240.16 584.409 240.16C582.029 240.16 580.186 241.093 578.879 242.96C577.572 244.78 576.919 247.3 576.919 250.52C576.919 253.74 577.572 256.307 578.879 258.22C580.186 260.087 582.029 261.02 584.409 261.02C586.789 261.02 588.609 260.087 589.869 258.22C591.176 256.307 591.829 253.74 591.829 250.52ZM641.978 267.74C640.205 268.253 637.918 268.72 635.118 269.14C632.318 269.607 629.378 269.84 626.298 269.84C623.172 269.84 620.558 269.42 618.458 268.58C616.405 267.74 614.772 266.573 613.558 265.08C612.345 263.54 611.482 261.72 610.968 259.62C610.455 257.52 610.198 255.21 610.198 252.69V232.18H620.628V251.43C620.628 254.79 621.072 257.217 621.958 258.71C622.845 260.203 624.502 260.95 626.928 260.95C627.675 260.95 628.468 260.927 629.308 260.88C630.148 260.787 630.895 260.693 631.548 260.6V232.18H641.978V267.74ZM679.156 261.51C681.069 261.51 682.422 261.323 683.216 260.95C684.009 260.577 684.406 259.853 684.406 258.78C684.406 257.94 683.892 257.217 682.866 256.61C681.839 255.957 680.276 255.233 678.176 254.44C676.542 253.833 675.049 253.203 673.696 252.55C672.389 251.897 671.269 251.127 670.336 250.24C669.402 249.307 668.679 248.21 668.166 246.95C667.652 245.69 667.396 244.173 667.396 242.4C667.396 238.947 668.679 236.217 671.246 234.21C673.812 232.203 677.336 231.2 681.816 231.2C684.056 231.2 686.202 231.41 688.256 231.83C690.309 232.203 691.942 232.623 693.156 233.09L691.336 241.21C690.122 240.79 688.792 240.417 687.346 240.09C685.946 239.763 684.359 239.6 682.586 239.6C679.319 239.6 677.686 240.51 677.686 242.33C677.686 242.75 677.756 243.123 677.896 243.45C678.036 243.777 678.316 244.103 678.736 244.43C679.156 244.71 679.716 245.037 680.416 245.41C681.162 245.737 682.096 246.11 683.216 246.53C685.502 247.37 687.392 248.21 688.886 249.05C690.379 249.843 691.546 250.73 692.386 251.71C693.272 252.643 693.879 253.693 694.206 254.86C694.579 256.027 694.766 257.38 694.766 258.92C694.766 262.56 693.389 265.313 690.636 267.18C687.929 269.047 684.079 269.98 679.086 269.98C675.819 269.98 673.089 269.7 670.896 269.14C668.749 268.58 667.256 268.113 666.416 267.74L668.166 259.27C669.939 259.97 671.759 260.53 673.626 260.95C675.492 261.323 677.336 261.51 679.156 261.51ZM700.81 250.87C700.81 247.603 701.3 244.757 702.28 242.33C703.307 239.857 704.637 237.803 706.27 236.17C707.903 234.537 709.77 233.3 711.87 232.46C714.017 231.62 716.21 231.2 718.45 231.2C723.677 231.2 727.807 232.81 730.84 236.03C733.873 239.203 735.39 243.893 735.39 250.1C735.39 250.707 735.367 251.383 735.32 252.13C735.273 252.83 735.227 253.46 735.18 254.02H711.52C711.753 256.167 712.757 257.87 714.53 259.13C716.303 260.39 718.683 261.02 721.67 261.02C723.583 261.02 725.45 260.857 727.27 260.53C729.137 260.157 730.653 259.713 731.82 259.2L733.22 267.67C732.66 267.95 731.913 268.23 730.98 268.51C730.047 268.79 728.997 269.023 727.83 269.21C726.71 269.443 725.497 269.63 724.19 269.77C722.883 269.91 721.577 269.98 720.27 269.98C716.957 269.98 714.063 269.49 711.59 268.51C709.163 267.53 707.133 266.2 705.5 264.52C703.913 262.793 702.723 260.763 701.93 258.43C701.183 256.097 700.81 253.577 700.81 250.87ZM725.31 246.88C725.263 245.993 725.1 245.13 724.82 244.29C724.587 243.45 724.19 242.703 723.63 242.05C723.117 241.397 722.44 240.86 721.6 240.44C720.807 240.02 719.803 239.81 718.59 239.81C717.423 239.81 716.42 240.02 715.58 240.44C714.74 240.813 714.04 241.327 713.48 241.98C712.92 242.633 712.477 243.403 712.15 244.29C711.87 245.13 711.66 245.993 711.52 246.88H725.31ZM765.629 241.42C764.696 241.187 763.599 240.953 762.339 240.72C761.079 240.44 759.726 240.3 758.279 240.3C757.626 240.3 756.832 240.37 755.899 240.51C755.012 240.603 754.336 240.72 753.869 240.86V269H743.439V234.14C745.306 233.487 747.499 232.88 750.019 232.32C752.586 231.713 755.432 231.41 758.559 231.41C759.119 231.41 759.796 231.457 760.589 231.55C761.382 231.597 762.176 231.69 762.969 231.83C763.762 231.923 764.556 232.063 765.349 232.25C766.142 232.39 766.819 232.577 767.379 232.81L765.629 241.42ZM785.168 269C782.788 264.333 780.361 258.873 777.888 252.62C775.461 246.367 773.151 239.553 770.958 232.18H782.018C782.484 234 783.021 235.983 783.628 238.13C784.281 240.23 784.934 242.377 785.588 244.57C786.288 246.717 786.964 248.817 787.618 250.87C788.318 252.923 788.994 254.79 789.648 256.47C790.254 254.79 790.908 252.923 791.608 250.87C792.308 248.817 792.984 246.717 793.638 244.57C794.338 242.377 794.991 240.23 795.598 238.13C796.251 235.983 796.811 234 797.278 232.18H808.058C805.864 239.553 803.531 246.367 801.058 252.62C798.631 258.873 796.228 264.333 793.848 269H785.168ZM824.074 269H813.644V232.18H824.074V269ZM825.054 221.54C825.054 223.453 824.424 224.97 823.164 226.09C821.951 227.163 820.504 227.7 818.824 227.7C817.144 227.7 815.674 227.163 814.414 226.09C813.201 224.97 812.594 223.453 812.594 221.54C812.594 219.627 813.201 218.133 814.414 217.06C815.674 215.94 817.144 215.38 818.824 215.38C820.504 215.38 821.951 215.94 823.164 217.06C824.424 218.133 825.054 219.627 825.054 221.54ZM851.939 271.8C853.432 272.547 854.459 273.433 855.019 274.46C855.579 275.487 855.859 276.537 855.859 277.61C855.859 279.85 854.972 281.553 853.199 282.72C851.425 283.887 849.092 284.47 846.199 284.47C845.172 284.47 844.145 284.377 843.119 284.19C842.092 284.05 841.065 283.84 840.039 283.56L841.299 277.47C841.625 277.563 842.209 277.703 843.049 277.89C843.935 278.123 844.799 278.24 845.639 278.24C846.292 278.24 846.852 278.1 847.319 277.82C847.832 277.587 848.112 277.143 848.159 276.49C848.205 275.93 847.972 275.417 847.459 274.95C846.992 274.483 846.222 274.133 845.149 273.9L844.309 273.69C844.495 273.083 844.752 272.383 845.079 271.59C845.405 270.843 845.732 270.143 846.059 269.49C843.632 269.023 841.532 268.23 839.759 267.11C838.032 265.943 836.585 264.543 835.419 262.91C834.299 261.23 833.459 259.34 832.899 257.24C832.385 255.14 832.129 252.923 832.129 250.59C832.129 247.93 832.549 245.433 833.389 243.1C834.275 240.72 835.535 238.667 837.169 236.94C838.802 235.167 840.785 233.767 843.119 232.74C845.452 231.713 848.112 231.2 851.099 231.2C853.059 231.2 854.855 231.387 856.489 231.76C858.122 232.087 859.709 232.577 861.249 233.23L859.079 241.56C858.099 241.187 857.025 240.86 855.859 240.58C854.692 240.3 853.385 240.16 851.939 240.16C848.859 240.16 846.549 241.117 845.009 243.03C843.515 244.943 842.769 247.463 842.769 250.59C842.769 253.903 843.469 256.47 844.869 258.29C846.315 260.11 848.812 261.02 852.359 261.02C853.619 261.02 854.972 260.903 856.419 260.67C857.865 260.437 859.195 260.063 860.409 259.55L861.879 268.09C860.805 268.557 859.475 268.953 857.889 269.28C856.349 269.607 854.645 269.817 852.779 269.91C852.592 270.283 852.429 270.633 852.289 270.96C852.149 271.287 852.032 271.567 851.939 271.8ZM901.541 250.52C901.541 253.413 901.121 256.073 900.281 258.5C899.441 260.88 898.228 262.933 896.641 264.66C895.055 266.34 893.141 267.647 890.901 268.58C888.708 269.513 886.235 269.98 883.481 269.98C880.775 269.98 878.301 269.513 876.061 268.58C873.868 267.647 871.978 266.34 870.391 264.66C868.805 262.933 867.568 260.88 866.681 258.5C865.795 256.073 865.351 253.413 865.351 250.52C865.351 247.627 865.795 244.99 866.681 242.61C867.615 240.23 868.875 238.2 870.461 236.52C872.095 234.84 874.008 233.533 876.201 232.6C878.441 231.667 880.868 231.2 883.481 231.2C886.141 231.2 888.568 231.667 890.761 232.6C893.001 233.533 894.915 234.84 896.501 236.52C898.088 238.2 899.325 240.23 900.211 242.61C901.098 244.99 901.541 247.627 901.541 250.52ZM890.901 250.52C890.901 247.3 890.248 244.78 888.941 242.96C887.681 241.093 885.861 240.16 883.481 240.16C881.101 240.16 879.258 241.093 877.951 242.96C876.645 244.78 875.991 247.3 875.991 250.52C875.991 253.74 876.645 256.307 877.951 258.22C879.258 260.087 881.101 261.02 883.481 261.02C885.861 261.02 887.681 260.087 888.941 258.22C890.248 256.307 890.901 253.74 890.901 250.52ZM920.191 261.51C922.104 261.51 923.457 261.323 924.251 260.95C925.044 260.577 925.441 259.853 925.441 258.78C925.441 257.94 924.927 257.217 923.901 256.61C922.874 255.957 921.311 255.233 919.211 254.44C917.577 253.833 916.084 253.203 914.731 252.55C913.424 251.897 912.304 251.127 911.371 250.24C910.437 249.307 909.714 248.21 909.201 246.95C908.687 245.69 908.431 244.173 908.431 242.4C908.431 238.947 909.714 236.217 912.281 234.21C914.847 232.203 918.371 231.2 922.851 231.2C925.091 231.2 927.237 231.41 929.291 231.83C931.344 232.203 932.977 232.623 934.191 233.09L932.371 241.21C931.157 240.79 929.827 240.417 928.381 240.09C926.981 239.763 925.394 239.6 923.621 239.6C920.354 239.6 918.721 240.51 918.721 242.33C918.721 242.75 918.791 243.123 918.931 243.45C919.071 243.777 919.351 244.103 919.771 244.43C920.191 244.71 920.751 245.037 921.451 245.41C922.197 245.737 923.131 246.11 924.251 246.53C926.537 247.37 928.427 248.21 929.921 249.05C931.414 249.843 932.581 250.73 933.421 251.71C934.307 252.643 934.914 253.693 935.241 254.86C935.614 256.027 935.801 257.38 935.801 258.92C935.801 262.56 934.424 265.313 931.671 267.18C928.964 269.047 925.114 269.98 920.121 269.98C916.854 269.98 914.124 269.7 911.931 269.14C909.784 268.58 908.291 268.113 907.451 267.74L909.201 259.27C910.974 259.97 912.794 260.53 914.661 260.95C916.527 261.323 918.371 261.51 920.191 261.51ZM124.79 460.87C124.79 467.543 127.263 470.88 132.21 470.88C133.283 470.88 134.333 470.74 135.36 470.46C136.433 470.18 137.297 469.83 137.95 469.41V450.58C137.437 450.487 136.783 450.417 135.99 450.37C135.197 450.277 134.333 450.23 133.4 450.23C130.553 450.23 128.407 451.21 126.96 453.17C125.513 455.083 124.79 457.65 124.79 460.87ZM114.15 460.59C114.15 457.743 114.57 455.153 115.41 452.82C116.297 450.44 117.557 448.41 119.19 446.73C120.823 445.003 122.83 443.673 125.21 442.74C127.59 441.807 130.297 441.34 133.33 441.34C134.59 441.34 135.897 441.41 137.25 441.55C138.65 441.643 140.003 441.783 141.31 441.97C142.663 442.157 143.947 442.39 145.16 442.67C146.373 442.903 147.447 443.16 148.38 443.44V491.95H137.95V478.09C136.783 478.603 135.57 479 134.31 479.28C133.05 479.56 131.697 479.7 130.25 479.7C125.023 479.7 121.033 477.997 118.28 474.59C115.527 471.137 114.15 466.47 114.15 460.59ZM189.576 477.74C187.803 478.253 185.516 478.72 182.716 479.14C179.916 479.607 176.976 479.84 173.896 479.84C170.769 479.84 168.156 479.42 166.056 478.58C164.003 477.74 162.369 476.573 161.156 475.08C159.943 473.54 159.079 471.72 158.566 469.62C158.053 467.52 157.796 465.21 157.796 462.69V442.18H168.226V461.43C168.226 464.79 168.669 467.217 169.556 468.71C170.443 470.203 172.099 470.95 174.526 470.95C175.273 470.95 176.066 470.927 176.906 470.88C177.746 470.787 178.493 470.693 179.146 470.6V442.18H189.576V477.74ZM197.617 460.87C197.617 457.603 198.107 454.757 199.087 452.33C200.113 449.857 201.443 447.803 203.077 446.17C204.71 444.537 206.577 443.3 208.677 442.46C210.823 441.62 213.017 441.2 215.257 441.2C220.483 441.2 224.613 442.81 227.647 446.03C230.68 449.203 232.197 453.893 232.197 460.1C232.197 460.707 232.173 461.383 232.127 462.13C232.08 462.83 232.033 463.46 231.987 464.02H208.327C208.56 466.167 209.563 467.87 211.337 469.13C213.11 470.39 215.49 471.02 218.477 471.02C220.39 471.02 222.257 470.857 224.077 470.53C225.943 470.157 227.46 469.713 228.627 469.2L230.027 477.67C229.467 477.95 228.72 478.23 227.787 478.51C226.853 478.79 225.803 479.023 224.637 479.21C223.517 479.443 222.303 479.63 220.997 479.77C219.69 479.91 218.383 479.98 217.077 479.98C213.763 479.98 210.87 479.49 208.397 478.51C205.97 477.53 203.94 476.2 202.307 474.52C200.72 472.793 199.53 470.763 198.737 468.43C197.99 466.097 197.617 463.577 197.617 460.87ZM222.117 456.88C222.07 455.993 221.907 455.13 221.627 454.29C221.393 453.45 220.997 452.703 220.437 452.05C219.923 451.397 219.247 450.86 218.407 450.44C217.613 450.02 216.61 449.81 215.397 449.81C214.23 449.81 213.227 450.02 212.387 450.44C211.547 450.813 210.847 451.327 210.287 451.98C209.727 452.633 209.283 453.403 208.957 454.29C208.677 455.13 208.467 455.993 208.327 456.88H222.117ZM255.312 460.87C255.312 457.603 255.802 454.757 256.782 452.33C257.809 449.857 259.139 447.803 260.772 446.17C262.405 444.537 264.272 443.3 266.372 442.46C268.519 441.62 270.712 441.2 272.952 441.2C278.179 441.2 282.309 442.81 285.342 446.03C288.375 449.203 289.892 453.893 289.892 460.1C289.892 460.707 289.869 461.383 289.822 462.13C289.775 462.83 289.729 463.46 289.682 464.02H266.022C266.255 466.167 267.259 467.87 269.032 469.13C270.805 470.39 273.185 471.02 276.172 471.02C278.085 471.02 279.952 470.857 281.772 470.53C283.639 470.157 285.155 469.713 286.322 469.2L287.722 477.67C287.162 477.95 286.415 478.23 285.482 478.51C284.549 478.79 283.499 479.023 282.332 479.21C281.212 479.443 279.999 479.63 278.692 479.77C277.385 479.91 276.079 479.98 274.772 479.98C271.459 479.98 268.565 479.49 266.092 478.51C263.665 477.53 261.635 476.2 260.002 474.52C258.415 472.793 257.225 470.763 256.432 468.43C255.685 466.097 255.312 463.577 255.312 460.87ZM279.812 456.88C279.765 455.993 279.602 455.13 279.322 454.29C279.089 453.45 278.692 452.703 278.132 452.05C277.619 451.397 276.942 450.86 276.102 450.44C275.309 450.02 274.305 449.81 273.092 449.81C271.925 449.81 270.922 450.02 270.082 450.44C269.242 450.813 268.542 451.327 267.982 451.98C267.422 452.633 266.979 453.403 266.652 454.29C266.372 455.13 266.162 455.993 266.022 456.88H279.812ZM297.941 443.44C299.714 442.927 302.001 442.46 304.801 442.04C307.601 441.573 310.541 441.34 313.621 441.34C316.748 441.34 319.338 441.76 321.391 442.6C323.491 443.393 325.148 444.537 326.361 446.03C327.574 447.523 328.438 449.297 328.951 451.35C329.464 453.403 329.721 455.69 329.721 458.21V479H319.291V459.47C319.291 456.11 318.848 453.73 317.961 452.33C317.074 450.93 315.418 450.23 312.991 450.23C312.244 450.23 311.451 450.277 310.611 450.37C309.771 450.417 309.024 450.487 308.371 450.58V479H297.941V443.44ZM338.812 433.01L349.242 431.33V442.18H361.772V450.86H349.242V463.81C349.242 466.003 349.615 467.753 350.362 469.06C351.155 470.367 352.718 471.02 355.052 471.02C356.172 471.02 357.315 470.927 358.482 470.74C359.695 470.507 360.792 470.203 361.772 469.83L363.242 477.95C361.982 478.463 360.582 478.907 359.042 479.28C357.502 479.653 355.612 479.84 353.372 479.84C350.525 479.84 348.168 479.467 346.302 478.72C344.435 477.927 342.942 476.853 341.822 475.5C340.702 474.1 339.908 472.42 339.442 470.46C339.022 468.5 338.812 466.33 338.812 463.95V433.01ZM392.455 451.42C391.522 451.187 390.425 450.953 389.165 450.72C387.905 450.44 386.552 450.3 385.105 450.3C384.452 450.3 383.659 450.37 382.725 450.51C381.839 450.603 381.162 450.72 380.695 450.86V479H370.265V444.14C372.132 443.487 374.325 442.88 376.845 442.32C379.412 441.713 382.259 441.41 385.385 441.41C385.945 441.41 386.622 441.457 387.415 441.55C388.209 441.597 389.002 441.69 389.795 441.83C390.589 441.923 391.382 442.063 392.175 442.25C392.969 442.39 393.645 442.577 394.205 442.81L392.455 451.42ZM397.363 460.87C397.363 457.603 397.853 454.757 398.833 452.33C399.86 449.857 401.19 447.803 402.823 446.17C404.456 444.537 406.323 443.3 408.423 442.46C410.57 441.62 412.763 441.2 415.003 441.2C420.23 441.2 424.36 442.81 427.393 446.03C430.426 449.203 431.943 453.893 431.943 460.1C431.943 460.707 431.92 461.383 431.873 462.13C431.826 462.83 431.78 463.46 431.733 464.02H408.073C408.306 466.167 409.31 467.87 411.083 469.13C412.856 470.39 415.236 471.02 418.223 471.02C420.136 471.02 422.003 470.857 423.823 470.53C425.69 470.157 427.206 469.713 428.373 469.2L429.773 477.67C429.213 477.95 428.466 478.23 427.533 478.51C426.6 478.79 425.55 479.023 424.383 479.21C423.263 479.443 422.05 479.63 420.743 479.77C419.436 479.91 418.13 479.98 416.823 479.98C413.51 479.98 410.616 479.49 408.143 478.51C405.716 477.53 403.686 476.2 402.053 474.52C400.466 472.793 399.276 470.763 398.483 468.43C397.736 466.097 397.363 463.577 397.363 460.87ZM421.863 456.88C421.816 455.993 421.653 455.13 421.373 454.29C421.14 453.45 420.743 452.703 420.183 452.05C419.67 451.397 418.993 450.86 418.153 450.44C417.36 450.02 416.356 449.81 415.143 449.81C413.976 449.81 412.973 450.02 412.133 450.44C411.293 450.813 410.593 451.327 410.033 451.98C409.473 452.633 409.03 453.403 408.703 454.29C408.423 455.13 408.213 455.993 408.073 456.88H421.863ZM448.882 459.4C448.882 465.233 451.238 468.15 455.952 468.15C457.025 468.15 458.028 468.01 458.962 467.73C459.895 467.45 460.688 467.123 461.342 466.75V450.09C460.828 449.997 460.222 449.927 459.522 449.88C458.822 449.787 458.005 449.74 457.072 449.74C454.318 449.74 452.265 450.65 450.912 452.47C449.558 454.29 448.882 456.6 448.882 459.4ZM471.772 474.38C471.772 480.4 470.232 484.857 467.152 487.75C464.118 490.69 459.405 492.16 453.012 492.16C450.772 492.16 448.532 491.95 446.292 491.53C444.052 491.157 441.975 490.643 440.062 489.99L441.882 481.24C443.515 481.893 445.218 482.407 446.992 482.78C448.812 483.153 450.865 483.34 453.152 483.34C456.138 483.34 458.238 482.687 459.452 481.38C460.712 480.073 461.342 478.393 461.342 476.34V475.01C460.222 475.523 459.055 475.92 457.842 476.2C456.675 476.433 455.392 476.55 453.992 476.55C448.905 476.55 445.008 475.057 442.302 472.07C439.595 469.037 438.242 464.813 438.242 459.4C438.242 456.693 438.662 454.243 439.502 452.05C440.342 449.81 441.555 447.897 443.142 446.31C444.775 444.723 446.758 443.51 449.092 442.67C451.425 441.783 454.062 441.34 457.002 441.34C458.262 441.34 459.545 441.41 460.852 441.55C462.205 441.643 463.535 441.783 464.842 441.97C466.148 442.157 467.385 442.39 468.552 442.67C469.765 442.903 470.838 443.16 471.772 443.44V474.38ZM495.624 471.72C496.651 471.72 497.631 471.697 498.564 471.65C499.498 471.603 500.244 471.533 500.804 471.44V463.53C500.384 463.437 499.754 463.343 498.914 463.25C498.074 463.157 497.304 463.11 496.604 463.11C495.624 463.11 494.691 463.18 493.804 463.32C492.964 463.413 492.218 463.623 491.564 463.95C490.911 464.277 490.398 464.72 490.024 465.28C489.651 465.84 489.464 466.54 489.464 467.38C489.464 469.013 490.001 470.157 491.074 470.81C492.194 471.417 493.711 471.72 495.624 471.72ZM494.784 441.2C497.864 441.2 500.431 441.55 502.484 442.25C504.538 442.95 506.171 443.953 507.384 445.26C508.644 446.567 509.531 448.153 510.044 450.02C510.558 451.887 510.814 453.963 510.814 456.25V477.95C509.321 478.277 507.244 478.65 504.584 479.07C501.924 479.537 498.704 479.77 494.924 479.77C492.544 479.77 490.374 479.56 488.414 479.14C486.501 478.72 484.844 478.043 483.444 477.11C482.044 476.13 480.971 474.87 480.224 473.33C479.478 471.79 479.104 469.9 479.104 467.66C479.104 465.513 479.524 463.693 480.364 462.2C481.251 460.707 482.418 459.517 483.864 458.63C485.311 457.743 486.968 457.113 488.834 456.74C490.701 456.32 492.638 456.11 494.644 456.11C495.998 456.11 497.188 456.18 498.214 456.32C499.288 456.413 500.151 456.553 500.804 456.74V455.76C500.804 453.987 500.268 452.563 499.194 451.49C498.121 450.417 496.254 449.88 493.594 449.88C491.821 449.88 490.071 450.02 488.344 450.3C486.618 450.533 485.124 450.883 483.864 451.35L482.534 442.95C483.141 442.763 483.888 442.577 484.774 442.39C485.708 442.157 486.711 441.97 487.784 441.83C488.858 441.643 489.978 441.503 491.144 441.41C492.358 441.27 493.571 441.2 494.784 441.2ZM540.476 459.47C540.476 456.11 540.032 453.73 539.146 452.33C538.306 450.93 536.836 450.23 534.736 450.23C534.082 450.23 533.406 450.277 532.706 450.37C532.006 450.417 531.329 450.487 530.676 450.58V479H520.246V443.44C521.132 443.207 522.159 442.973 523.326 442.74C524.539 442.46 525.799 442.227 527.106 442.04C528.459 441.807 529.836 441.643 531.236 441.55C532.636 441.41 534.012 441.34 535.366 441.34C538.026 441.34 540.172 441.69 541.806 442.39C543.486 443.043 544.862 443.837 545.936 444.77C547.429 443.697 549.132 442.857 551.046 442.25C553.006 441.643 554.802 441.34 556.436 441.34C559.376 441.34 561.779 441.76 563.646 442.6C565.559 443.393 567.076 444.537 568.196 446.03C569.316 447.523 570.086 449.297 570.506 451.35C570.926 453.403 571.136 455.69 571.136 458.21V479H560.706V459.47C560.706 456.11 560.262 453.73 559.376 452.33C558.536 450.93 557.066 450.23 554.966 450.23C554.406 450.23 553.612 450.37 552.586 450.65C551.606 450.93 550.789 451.28 550.136 451.7C550.462 452.773 550.672 453.917 550.766 455.13C550.859 456.297 550.906 457.557 550.906 458.91V479H540.476V459.47ZM436.533 530.87C436.533 527.603 437.023 524.757 438.003 522.33C439.029 519.857 440.359 517.803 441.993 516.17C443.626 514.537 445.493 513.3 447.593 512.46C449.739 511.62 451.933 511.2 454.173 511.2C459.399 511.2 463.529 512.81 466.563 516.03C469.596 519.203 471.113 523.893 471.113 530.1C471.113 530.707 471.089 531.383 471.043 532.13C470.996 532.83 470.949 533.46 470.903 534.02H447.243C447.476 536.167 448.479 537.87 450.253 539.13C452.026 540.39 454.406 541.02 457.393 541.02C459.306 541.02 461.173 540.857 462.993 540.53C464.859 540.157 466.376 539.713 467.543 539.2L468.943 547.67C468.383 547.95 467.636 548.23 466.703 548.51C465.769 548.79 464.719 549.023 463.553 549.21C462.433 549.443 461.219 549.63 459.913 549.77C458.606 549.91 457.299 549.98 455.993 549.98C452.679 549.98 449.786 549.49 447.313 548.51C444.886 547.53 442.856 546.2 441.223 544.52C439.636 542.793 438.446 540.763 437.653 538.43C436.906 536.097 436.533 533.577 436.533 530.87ZM461.033 526.88C460.986 525.993 460.823 525.13 460.543 524.29C460.309 523.45 459.913 522.703 459.353 522.05C458.839 521.397 458.163 520.86 457.323 520.44C456.529 520.02 455.526 519.81 454.313 519.81C453.146 519.81 452.143 520.02 451.303 520.44C450.463 520.813 449.763 521.327 449.203 521.98C448.643 522.633 448.199 523.403 447.873 524.29C447.593 525.13 447.383 525.993 447.243 526.88H461.033ZM150.34 670.52C150.34 673.413 149.92 676.073 149.08 678.5C148.24 680.88 147.027 682.933 145.44 684.66C143.853 686.34 141.94 687.647 139.7 688.58C137.507 689.513 135.033 689.98 132.28 689.98C129.573 689.98 127.1 689.513 124.86 688.58C122.667 687.647 120.777 686.34 119.19 684.66C117.603 682.933 116.367 680.88 115.48 678.5C114.593 676.073 114.15 673.413 114.15 670.52C114.15 667.627 114.593 664.99 115.48 662.61C116.413 660.23 117.673 658.2 119.26 656.52C120.893 654.84 122.807 653.533 125 652.6C127.24 651.667 129.667 651.2 132.28 651.2C134.94 651.2 137.367 651.667 139.56 652.6C141.8 653.533 143.713 654.84 145.3 656.52C146.887 658.2 148.123 660.23 149.01 662.61C149.897 664.99 150.34 667.627 150.34 670.52ZM139.7 670.52C139.7 667.3 139.047 664.78 137.74 662.96C136.48 661.093 134.66 660.16 132.28 660.16C129.9 660.16 128.057 661.093 126.75 662.96C125.443 664.78 124.79 667.3 124.79 670.52C124.79 673.74 125.443 676.307 126.75 678.22C128.057 680.087 129.9 681.02 132.28 681.02C134.66 681.02 136.48 680.087 137.74 678.22C139.047 676.307 139.7 673.74 139.7 670.52ZM189.85 687.74C188.076 688.253 185.79 688.72 182.99 689.14C180.19 689.607 177.25 689.84 174.17 689.84C171.043 689.84 168.43 689.42 166.33 688.58C164.276 687.74 162.643 686.573 161.43 685.08C160.216 683.54 159.353 681.72 158.84 679.62C158.326 677.52 158.07 675.21 158.07 672.69V652.18H168.5V671.43C168.5 674.79 168.943 677.217 169.83 678.71C170.716 680.203 172.373 680.95 174.8 680.95C175.546 680.95 176.34 680.927 177.18 680.88C178.02 680.787 178.766 680.693 179.42 680.6V652.18H189.85V687.74ZM227.027 681.51C228.94 681.51 230.293 681.323 231.087 680.95C231.88 680.577 232.277 679.853 232.277 678.78C232.277 677.94 231.763 677.217 230.737 676.61C229.71 675.957 228.147 675.233 226.047 674.44C224.413 673.833 222.92 673.203 221.567 672.55C220.26 671.897 219.14 671.127 218.207 670.24C217.273 669.307 216.55 668.21 216.037 666.95C215.523 665.69 215.267 664.173 215.267 662.4C215.267 658.947 216.55 656.217 219.117 654.21C221.683 652.203 225.207 651.2 229.687 651.2C231.927 651.2 234.073 651.41 236.127 651.83C238.18 652.203 239.813 652.623 241.027 653.09L239.207 661.21C237.993 660.79 236.663 660.417 235.217 660.09C233.817 659.763 232.23 659.6 230.457 659.6C227.19 659.6 225.557 660.51 225.557 662.33C225.557 662.75 225.627 663.123 225.767 663.45C225.907 663.777 226.187 664.103 226.607 664.43C227.027 664.71 227.587 665.037 228.287 665.41C229.033 665.737 229.967 666.11 231.087 666.53C233.373 667.37 235.263 668.21 236.757 669.05C238.25 669.843 239.417 670.73 240.257 671.71C241.143 672.643 241.75 673.693 242.077 674.86C242.45 676.027 242.637 677.38 242.637 678.92C242.637 682.56 241.26 685.313 238.507 687.18C235.8 689.047 231.95 689.98 226.957 689.98C223.69 689.98 220.96 689.7 218.767 689.14C216.62 688.58 215.127 688.113 214.287 687.74L216.037 679.27C217.81 679.97 219.63 680.53 221.497 680.95C223.363 681.323 225.207 681.51 227.027 681.51ZM248.681 670.87C248.681 667.603 249.171 664.757 250.151 662.33C251.178 659.857 252.508 657.803 254.141 656.17C255.775 654.537 257.641 653.3 259.741 652.46C261.888 651.62 264.081 651.2 266.321 651.2C271.548 651.2 275.678 652.81 278.711 656.03C281.745 659.203 283.261 663.893 283.261 670.1C283.261 670.707 283.238 671.383 283.191 672.13C283.145 672.83 283.098 673.46 283.051 674.02H259.391C259.625 676.167 260.628 677.87 262.401 679.13C264.175 680.39 266.555 681.02 269.541 681.02C271.455 681.02 273.321 680.857 275.141 680.53C277.008 680.157 278.525 679.713 279.691 679.2L281.091 687.67C280.531 687.95 279.785 688.23 278.851 688.51C277.918 688.79 276.868 689.023 275.701 689.21C274.581 689.443 273.368 689.63 272.061 689.77C270.755 689.91 269.448 689.98 268.141 689.98C264.828 689.98 261.935 689.49 259.461 688.51C257.035 687.53 255.005 686.2 253.371 684.52C251.785 682.793 250.595 680.763 249.801 678.43C249.055 676.097 248.681 673.577 248.681 670.87ZM273.181 666.88C273.135 665.993 272.971 665.13 272.691 664.29C272.458 663.45 272.061 662.703 271.501 662.05C270.988 661.397 270.311 660.86 269.471 660.44C268.678 660.02 267.675 659.81 266.461 659.81C265.295 659.81 264.291 660.02 263.451 660.44C262.611 660.813 261.911 661.327 261.351 661.98C260.791 662.633 260.348 663.403 260.021 664.29C259.741 665.13 259.531 665.993 259.391 666.88H273.181ZM287.88 701.95C287.227 701.95 286.27 701.88 285.01 701.74C283.703 701.6 282.49 701.343 281.37 700.97L282.77 692.5C283.47 692.733 284.123 692.897 284.73 692.99C285.29 693.083 286.013 693.13 286.9 693.13C288.533 693.13 289.677 692.64 290.33 691.66C290.983 690.68 291.31 689.257 291.31 687.39V652.18H301.74V687.67C301.74 692.523 300.55 696.117 298.17 698.45C295.79 700.783 292.36 701.95 287.88 701.95ZM302.72 641.54C302.72 643.453 302.09 644.97 300.83 646.09C299.617 647.163 298.17 647.7 296.49 647.7C294.81 647.7 293.34 647.163 292.08 646.09C290.867 644.97 290.26 643.453 290.26 641.54C290.26 639.627 290.867 638.133 292.08 637.06C293.34 635.94 294.81 635.38 296.49 635.38C298.17 635.38 299.617 635.94 300.83 637.06C302.09 638.133 302.72 639.627 302.72 641.54ZM325.615 681.72C326.641 681.72 327.621 681.697 328.555 681.65C329.488 681.603 330.235 681.533 330.795 681.44V673.53C330.375 673.437 329.745 673.343 328.905 673.25C328.065 673.157 327.295 673.11 326.595 673.11C325.615 673.11 324.681 673.18 323.795 673.32C322.955 673.413 322.208 673.623 321.555 673.95C320.901 674.277 320.388 674.72 320.015 675.28C319.641 675.84 319.455 676.54 319.455 677.38C319.455 679.013 319.991 680.157 321.065 680.81C322.185 681.417 323.701 681.72 325.615 681.72ZM324.775 651.2C327.855 651.2 330.421 651.55 332.475 652.25C334.528 652.95 336.161 653.953 337.375 655.26C338.635 656.567 339.521 658.153 340.035 660.02C340.548 661.887 340.805 663.963 340.805 666.25V687.95C339.311 688.277 337.235 688.65 334.575 689.07C331.915 689.537 328.695 689.77 324.915 689.77C322.535 689.77 320.365 689.56 318.405 689.14C316.491 688.72 314.835 688.043 313.435 687.11C312.035 686.13 310.961 684.87 310.215 683.33C309.468 681.79 309.095 679.9 309.095 677.66C309.095 675.513 309.515 673.693 310.355 672.2C311.241 670.707 312.408 669.517 313.855 668.63C315.301 667.743 316.958 667.113 318.825 666.74C320.691 666.32 322.628 666.11 324.635 666.11C325.988 666.11 327.178 666.18 328.205 666.32C329.278 666.413 330.141 666.553 330.795 666.74V665.76C330.795 663.987 330.258 662.563 329.185 661.49C328.111 660.417 326.245 659.88 323.585 659.88C321.811 659.88 320.061 660.02 318.335 660.3C316.608 660.533 315.115 660.883 313.855 661.35L312.525 652.95C313.131 652.763 313.878 652.577 314.765 652.39C315.698 652.157 316.701 651.97 317.775 651.83C318.848 651.643 319.968 651.503 321.135 651.41C322.348 651.27 323.561 651.2 324.775 651.2ZM360.106 678.36C360.199 679.48 360.246 680.273 360.246 680.74C360.293 681.207 360.316 681.603 360.316 681.93C360.316 683.33 360.176 684.823 359.896 686.41C359.663 687.95 359.313 689.513 358.846 691.1C358.379 692.687 357.796 694.273 357.096 695.86C356.396 697.447 355.603 698.963 354.716 700.41L346.526 698.38C347.599 695.3 348.346 692.407 348.766 689.7C349.186 686.993 349.396 684.753 349.396 682.98C349.396 682.7 349.373 682.35 349.326 681.93C349.326 681.463 349.303 680.997 349.256 680.53C349.256 680.063 349.233 679.62 349.186 679.2C349.186 678.78 349.186 678.5 349.186 678.36H360.106ZM398.349 681.72C399.376 681.72 400.356 681.697 401.289 681.65C402.222 681.603 402.969 681.533 403.529 681.44V673.53C403.109 673.437 402.479 673.343 401.639 673.25C400.799 673.157 400.029 673.11 399.329 673.11C398.349 673.11 397.416 673.18 396.529 673.32C395.689 673.413 394.942 673.623 394.289 673.95C393.636 674.277 393.122 674.72 392.749 675.28C392.376 675.84 392.189 676.54 392.189 677.38C392.189 679.013 392.726 680.157 393.799 680.81C394.919 681.417 396.436 681.72 398.349 681.72ZM397.509 651.2C400.589 651.2 403.156 651.55 405.209 652.25C407.262 652.95 408.896 653.953 410.109 655.26C411.369 656.567 412.256 658.153 412.769 660.02C413.282 661.887 413.539 663.963 413.539 666.25V687.95C412.046 688.277 409.969 688.65 407.309 689.07C404.649 689.537 401.429 689.77 397.649 689.77C395.269 689.77 393.099 689.56 391.139 689.14C389.226 688.72 387.569 688.043 386.169 687.11C384.769 686.13 383.696 684.87 382.949 683.33C382.202 681.79 381.829 679.9 381.829 677.66C381.829 675.513 382.249 673.693 383.089 672.2C383.976 670.707 385.142 669.517 386.589 668.63C388.036 667.743 389.692 667.113 391.559 666.74C393.426 666.32 395.362 666.11 397.369 666.11C398.722 666.11 399.912 666.18 400.939 666.32C402.012 666.413 402.876 666.553 403.529 666.74V665.76C403.529 663.987 402.992 662.563 401.919 661.49C400.846 660.417 398.979 659.88 396.319 659.88C394.546 659.88 392.796 660.02 391.069 660.3C389.342 660.533 387.849 660.883 386.589 661.35L385.259 652.95C385.866 652.763 386.612 652.577 387.499 652.39C388.432 652.157 389.436 651.97 390.509 651.83C391.582 651.643 392.702 651.503 393.869 651.41C395.082 651.27 396.296 651.2 397.509 651.2ZM460.017 669.47C460.017 666.11 459.573 663.73 458.687 662.33C457.847 660.93 456.377 660.23 454.277 660.23C453.623 660.23 452.947 660.277 452.247 660.37C451.547 660.417 450.87 660.487 450.217 660.58V689H439.787V653.44C440.673 653.207 441.7 652.973 442.867 652.74C444.08 652.46 445.34 652.227 446.647 652.04C448 651.807 449.377 651.643 450.777 651.55C452.177 651.41 453.553 651.34 454.907 651.34C457.567 651.34 459.713 651.69 461.347 652.39C463.027 653.043 464.403 653.837 465.477 654.77C466.97 653.697 468.673 652.857 470.587 652.25C472.547 651.643 474.343 651.34 475.977 651.34C478.917 651.34 481.32 651.76 483.187 652.6C485.1 653.393 486.617 654.537 487.737 656.03C488.857 657.523 489.627 659.297 490.047 661.35C490.467 663.403 490.677 665.69 490.677 668.21V689H480.247V669.47C480.247 666.11 479.803 663.73 478.917 662.33C478.077 660.93 476.607 660.23 474.507 660.23C473.947 660.23 473.153 660.37 472.127 660.65C471.147 660.93 470.33 661.28 469.677 661.7C470.003 662.773 470.213 663.917 470.307 665.13C470.4 666.297 470.447 667.557 470.447 668.91V689H460.017V669.47ZM514.218 681.72C515.245 681.72 516.225 681.697 517.158 681.65C518.091 681.603 518.838 681.533 519.398 681.44V673.53C518.978 673.437 518.348 673.343 517.508 673.25C516.668 673.157 515.898 673.11 515.198 673.11C514.218 673.11 513.285 673.18 512.398 673.32C511.558 673.413 510.811 673.623 510.158 673.95C509.505 674.277 508.991 674.72 508.618 675.28C508.245 675.84 508.058 676.54 508.058 677.38C508.058 679.013 508.595 680.157 509.668 680.81C510.788 681.417 512.305 681.72 514.218 681.72ZM513.378 651.2C516.458 651.2 519.025 651.55 521.078 652.25C523.131 652.95 524.765 653.953 525.978 655.26C527.238 656.567 528.125 658.153 528.638 660.02C529.151 661.887 529.408 663.963 529.408 666.25V687.95C527.915 688.277 525.838 688.65 523.178 689.07C520.518 689.537 517.298 689.77 513.518 689.77C511.138 689.77 508.968 689.56 507.008 689.14C505.095 688.72 503.438 688.043 502.038 687.11C500.638 686.13 499.565 684.87 498.818 683.33C498.071 681.79 497.698 679.9 497.698 677.66C497.698 675.513 498.118 673.693 498.958 672.2C499.845 670.707 501.011 669.517 502.458 668.63C503.905 667.743 505.561 667.113 507.428 666.74C509.295 666.32 511.231 666.11 513.238 666.11C514.591 666.11 515.781 666.18 516.808 666.32C517.881 666.413 518.745 666.553 519.398 666.74V665.76C519.398 663.987 518.861 662.563 517.788 661.49C516.715 660.417 514.848 659.88 512.188 659.88C510.415 659.88 508.665 660.02 506.938 660.3C505.211 660.533 503.718 660.883 502.458 661.35L501.128 652.95C501.735 652.763 502.481 652.577 503.368 652.39C504.301 652.157 505.305 651.97 506.378 651.83C507.451 651.643 508.571 651.503 509.738 651.41C510.951 651.27 512.165 651.2 513.378 651.2ZM549.269 689H538.839V652.18H549.269V689ZM550.249 641.54C550.249 643.453 549.619 644.97 548.359 646.09C547.146 647.163 545.699 647.7 544.019 647.7C542.339 647.7 540.869 647.163 539.609 646.09C538.396 644.97 537.789 643.453 537.789 641.54C537.789 639.627 538.396 638.133 539.609 637.06C540.869 635.94 542.339 635.38 544.019 635.38C545.699 635.38 547.146 635.94 548.359 637.06C549.619 638.133 550.249 639.627 550.249 641.54ZM569.644 681.51C571.557 681.51 572.91 681.323 573.704 680.95C574.497 680.577 574.894 679.853 574.894 678.78C574.894 677.94 574.38 677.217 573.354 676.61C572.327 675.957 570.764 675.233 568.664 674.44C567.03 673.833 565.537 673.203 564.184 672.55C562.877 671.897 561.757 671.127 560.824 670.24C559.89 669.307 559.167 668.21 558.654 666.95C558.14 665.69 557.884 664.173 557.884 662.4C557.884 658.947 559.167 656.217 561.734 654.21C564.3 652.203 567.824 651.2 572.304 651.2C574.544 651.2 576.69 651.41 578.744 651.83C580.797 652.203 582.43 652.623 583.644 653.09L581.824 661.21C580.61 660.79 579.28 660.417 577.834 660.09C576.434 659.763 574.847 659.6 573.074 659.6C569.807 659.6 568.174 660.51 568.174 662.33C568.174 662.75 568.244 663.123 568.384 663.45C568.524 663.777 568.804 664.103 569.224 664.43C569.644 664.71 570.204 665.037 570.904 665.41C571.65 665.737 572.584 666.11 573.704 666.53C575.99 667.37 577.88 668.21 579.374 669.05C580.867 669.843 582.034 670.73 582.874 671.71C583.76 672.643 584.367 673.693 584.694 674.86C585.067 676.027 585.254 677.38 585.254 678.92C585.254 682.56 583.877 685.313 581.124 687.18C578.417 689.047 574.567 689.98 569.574 689.98C566.307 689.98 563.577 689.7 561.384 689.14C559.237 688.58 557.744 688.113 556.904 687.74L558.654 679.27C560.427 679.97 562.247 680.53 564.114 680.95C565.98 681.323 567.824 681.51 569.644 681.51ZM633.455 670.87C633.455 667.65 632.732 665.083 631.285 663.17C629.838 661.21 627.692 660.23 624.845 660.23C623.912 660.23 623.048 660.277 622.255 660.37C621.462 660.417 620.808 660.487 620.295 660.58V679.41C620.948 679.83 621.788 680.18 622.815 680.46C623.888 680.74 624.962 680.88 626.035 680.88C630.982 680.88 633.455 677.543 633.455 670.87ZM644.095 670.59C644.095 673.437 643.745 676.027 643.045 678.36C642.345 680.693 641.318 682.7 639.965 684.38C638.612 686.06 636.932 687.367 634.925 688.3C632.918 689.233 630.608 689.7 627.995 689.7C626.548 689.7 625.195 689.56 623.935 689.28C622.675 689 621.462 688.603 620.295 688.09V701.95H609.865V653.44C610.798 653.16 611.872 652.903 613.085 652.67C614.298 652.39 615.558 652.157 616.865 651.97C618.218 651.783 619.572 651.643 620.925 651.55C622.325 651.41 623.655 651.34 624.915 651.34C627.948 651.34 630.655 651.807 633.035 652.74C635.415 653.627 637.422 654.91 639.055 656.59C640.688 658.223 641.925 660.23 642.765 662.61C643.652 664.99 644.095 667.65 644.095 670.59ZM683.541 687.74C681.768 688.253 679.481 688.72 676.681 689.14C673.881 689.607 670.941 689.84 667.861 689.84C664.734 689.84 662.121 689.42 660.021 688.58C657.968 687.74 656.334 686.573 655.121 685.08C653.908 683.54 653.044 681.72 652.531 679.62C652.018 677.52 651.761 675.21 651.761 672.69V652.18H662.191V671.43C662.191 674.79 662.634 677.217 663.521 678.71C664.408 680.203 666.064 680.95 668.491 680.95C669.238 680.95 670.031 680.927 670.871 680.88C671.711 680.787 672.458 680.693 673.111 680.6V652.18H683.541V687.74ZM715.522 661.42C714.588 661.187 713.492 660.953 712.232 660.72C710.972 660.44 709.618 660.3 708.172 660.3C707.518 660.3 706.725 660.37 705.792 660.51C704.905 660.603 704.228 660.72 703.762 660.86V689H693.332V654.14C695.198 653.487 697.392 652.88 699.912 652.32C702.478 651.713 705.325 651.41 708.452 651.41C709.012 651.41 709.688 651.457 710.482 651.55C711.275 651.597 712.068 651.69 712.862 651.83C713.655 651.923 714.448 652.063 715.242 652.25C716.035 652.39 716.712 652.577 717.272 652.81L715.522 661.42ZM736.249 681.72C737.276 681.72 738.256 681.697 739.189 681.65C740.123 681.603 740.869 681.533 741.429 681.44V673.53C741.009 673.437 740.379 673.343 739.539 673.25C738.699 673.157 737.929 673.11 737.229 673.11C736.249 673.11 735.316 673.18 734.429 673.32C733.589 673.413 732.843 673.623 732.189 673.95C731.536 674.277 731.023 674.72 730.649 675.28C730.276 675.84 730.089 676.54 730.089 677.38C730.089 679.013 730.626 680.157 731.699 680.81C732.819 681.417 734.336 681.72 736.249 681.72ZM735.409 651.2C738.489 651.2 741.056 651.55 743.109 652.25C745.163 652.95 746.796 653.953 748.009 655.26C749.269 656.567 750.156 658.153 750.669 660.02C751.183 661.887 751.439 663.963 751.439 666.25V687.95C749.946 688.277 747.869 688.65 745.209 689.07C742.549 689.537 739.329 689.77 735.549 689.77C733.169 689.77 730.999 689.56 729.039 689.14C727.126 688.72 725.469 688.043 724.069 687.11C722.669 686.13 721.596 684.87 720.849 683.33C720.103 681.79 719.729 679.9 719.729 677.66C719.729 675.513 720.149 673.693 720.989 672.2C721.876 670.707 723.043 669.517 724.489 668.63C725.936 667.743 727.593 667.113 729.459 666.74C731.326 666.32 733.263 666.11 735.269 666.11C736.623 666.11 737.813 666.18 738.839 666.32C739.913 666.413 740.776 666.553 741.429 666.74V665.76C741.429 663.987 740.893 662.563 739.819 661.49C738.746 660.417 736.879 659.88 734.219 659.88C732.446 659.88 730.696 660.02 728.969 660.3C727.243 660.533 725.749 660.883 724.489 661.35L723.159 652.95C723.766 652.763 724.513 652.577 725.399 652.39C726.333 652.157 727.336 651.97 728.409 651.83C729.483 651.643 730.603 651.503 731.769 651.41C732.983 651.27 734.196 651.2 735.409 651.2ZM775.937 670.87C775.937 667.603 776.427 664.757 777.407 662.33C778.434 659.857 779.764 657.803 781.397 656.17C783.03 654.537 784.897 653.3 786.997 652.46C789.144 651.62 791.337 651.2 793.577 651.2C798.804 651.2 802.934 652.81 805.967 656.03C809 659.203 810.517 663.893 810.517 670.1C810.517 670.707 810.494 671.383 810.447 672.13C810.4 672.83 810.354 673.46 810.307 674.02H786.647C786.88 676.167 787.884 677.87 789.657 679.13C791.43 680.39 793.81 681.02 796.797 681.02C798.71 681.02 800.577 680.857 802.397 680.53C804.264 680.157 805.78 679.713 806.947 679.2L808.347 687.67C807.787 687.95 807.04 688.23 806.107 688.51C805.174 688.79 804.124 689.023 802.957 689.21C801.837 689.443 800.624 689.63 799.317 689.77C798.01 689.91 796.704 689.98 795.397 689.98C792.084 689.98 789.19 689.49 786.717 688.51C784.29 687.53 782.26 686.2 780.627 684.52C779.04 682.793 777.85 680.763 777.057 678.43C776.31 676.097 775.937 673.577 775.937 670.87ZM800.437 666.88C800.39 665.993 800.227 665.13 799.947 664.29C799.714 663.45 799.317 662.703 798.757 662.05C798.244 661.397 797.567 660.86 796.727 660.44C795.934 660.02 794.93 659.81 793.717 659.81C792.55 659.81 791.547 660.02 790.707 660.44C789.867 660.813 789.167 661.327 788.607 661.98C788.047 662.633 787.604 663.403 787.277 664.29C786.997 665.13 786.787 665.993 786.647 666.88H800.437ZM845.952 681.51C847.866 681.51 849.219 681.323 850.012 680.95C850.806 680.577 851.202 679.853 851.202 678.78C851.202 677.94 850.689 677.217 849.662 676.61C848.636 675.957 847.072 675.233 844.972 674.44C843.339 673.833 841.846 673.203 840.492 672.55C839.186 671.897 838.066 671.127 837.132 670.24C836.199 669.307 835.476 668.21 834.962 666.95C834.449 665.69 834.192 664.173 834.192 662.4C834.192 658.947 835.476 656.217 838.042 654.21C840.609 652.203 844.132 651.2 848.612 651.2C850.852 651.2 852.999 651.41 855.052 651.83C857.106 652.203 858.739 652.623 859.952 653.09L858.132 661.21C856.919 660.79 855.589 660.417 854.142 660.09C852.742 659.763 851.156 659.6 849.382 659.6C846.116 659.6 844.482 660.51 844.482 662.33C844.482 662.75 844.552 663.123 844.692 663.45C844.832 663.777 845.112 664.103 845.532 664.43C845.952 664.71 846.512 665.037 847.212 665.41C847.959 665.737 848.892 666.11 850.012 666.53C852.299 667.37 854.189 668.21 855.682 669.05C857.176 669.843 858.342 670.73 859.182 671.71C860.069 672.643 860.676 673.693 861.002 674.86C861.376 676.027 861.562 677.38 861.562 678.92C861.562 682.56 860.186 685.313 857.432 687.18C854.726 689.047 850.876 689.98 845.882 689.98C842.616 689.98 839.886 689.7 837.692 689.14C835.546 688.58 834.052 688.113 833.212 687.74L834.962 679.27C836.736 679.97 838.556 680.53 840.422 680.95C842.289 681.323 844.132 681.51 845.952 681.51ZM879.787 689H869.357V652.18H879.787V689ZM880.767 641.54C880.767 643.453 880.137 644.97 878.877 646.09C877.664 647.163 876.217 647.7 874.537 647.7C872.857 647.7 871.387 647.163 870.127 646.09C868.914 644.97 868.307 643.453 868.307 641.54C868.307 639.627 868.914 638.133 870.127 637.06C871.387 635.94 872.857 635.38 874.537 635.38C876.217 635.38 877.664 635.94 878.877 637.06C880.137 638.133 880.767 639.627 880.767 641.54ZM909.821 669.47C909.821 666.11 909.378 663.73 908.491 662.33C907.651 660.93 906.181 660.23 904.081 660.23C903.428 660.23 902.751 660.277 902.051 660.37C901.351 660.417 900.675 660.487 900.021 660.58V689H889.591V653.44C890.478 653.207 891.505 652.973 892.671 652.74C893.885 652.46 895.145 652.227 896.451 652.04C897.805 651.807 899.181 651.643 900.581 651.55C901.981 651.41 903.358 651.34 904.711 651.34C907.371 651.34 909.518 651.69 911.151 652.39C912.831 653.043 914.208 653.837 915.281 654.77C916.775 653.697 918.478 652.857 920.391 652.25C922.351 651.643 924.148 651.34 925.781 651.34C928.721 651.34 931.125 651.76 932.991 652.6C934.905 653.393 936.421 654.537 937.541 656.03C938.661 657.523 939.431 659.297 939.851 661.35C940.271 663.403 940.481 665.69 940.481 668.21V689H930.051V669.47C930.051 666.11 929.608 663.73 928.721 662.33C927.881 660.93 926.411 660.23 924.311 660.23C923.751 660.23 922.958 660.37 921.931 660.65C920.951 660.93 920.135 661.28 919.481 661.7C919.808 662.773 920.018 663.917 920.111 665.13C920.205 666.297 920.251 667.557 920.251 668.91V689H909.821V669.47ZM973.543 670.87C973.543 667.65 972.819 665.083 971.373 663.17C969.926 661.21 967.779 660.23 964.933 660.23C963.999 660.23 963.136 660.277 962.343 660.37C961.549 660.417 960.896 660.487 960.383 660.58V679.41C961.036 679.83 961.876 680.18 962.903 680.46C963.976 680.74 965.049 680.88 966.123 680.88C971.069 680.88 973.543 677.543 973.543 670.87ZM984.183 670.59C984.183 673.437 983.833 676.027 983.133 678.36C982.433 680.693 981.406 682.7 980.053 684.38C978.699 686.06 977.019 687.367 975.013 688.3C973.006 689.233 970.696 689.7 968.083 689.7C966.636 689.7 965.283 689.56 964.023 689.28C962.763 689 961.549 688.603 960.383 688.09V701.95H949.953V653.44C950.886 653.16 951.959 652.903 953.173 652.67C954.386 652.39 955.646 652.157 956.953 651.97C958.306 651.783 959.659 651.643 961.013 651.55C962.413 651.41 963.743 651.34 965.003 651.34C968.036 651.34 970.743 651.807 973.123 652.74C975.503 653.627 977.509 654.91 979.143 656.59C980.776 658.223 982.013 660.23 982.853 662.61C983.739 664.99 984.183 667.65 984.183 670.59ZM1006.9 689.7C1003.87 689.653 1001.39 689.327 999.479 688.72C997.612 688.113 996.119 687.273 994.999 686.2C993.925 685.08 993.179 683.75 992.759 682.21C992.385 680.623 992.199 678.85 992.199 676.89V636.36L1002.63 634.68V674.79C1002.63 675.723 1002.7 676.563 1002.84 677.31C1002.98 678.057 1003.24 678.687 1003.61 679.2C1004.03 679.713 1004.61 680.133 1005.36 680.46C1006.11 680.787 1007.11 680.997 1008.37 681.09L1006.9 689.7ZM1012.6 670.87C1012.6 667.603 1013.09 664.757 1014.07 662.33C1015.09 659.857 1016.42 657.803 1018.06 656.17C1019.69 654.537 1021.56 653.3 1023.66 652.46C1025.8 651.62 1028 651.2 1030.24 651.2C1035.46 651.2 1039.59 652.81 1042.63 656.03C1045.66 659.203 1047.18 663.893 1047.18 670.1C1047.18 670.707 1047.15 671.383 1047.11 672.13C1047.06 672.83 1047.01 673.46 1046.97 674.02H1023.31C1023.54 676.167 1024.54 677.87 1026.32 679.13C1028.09 680.39 1030.47 681.02 1033.46 681.02C1035.37 681.02 1037.24 680.857 1039.06 680.53C1040.92 680.157 1042.44 679.713 1043.61 679.2L1045.01 687.67C1044.45 687.95 1043.7 688.23 1042.77 688.51C1041.83 688.79 1040.78 689.023 1039.62 689.21C1038.5 689.443 1037.28 689.63 1035.98 689.77C1034.67 689.91 1033.36 689.98 1032.06 689.98C1028.74 689.98 1025.85 689.49 1023.38 688.51C1020.95 687.53 1018.92 686.2 1017.29 684.52C1015.7 682.793 1014.51 680.763 1013.72 678.43C1012.97 676.097 1012.6 673.577 1012.6 670.87ZM1037.1 666.88C1037.05 665.993 1036.89 665.13 1036.61 664.29C1036.37 663.45 1035.98 662.703 1035.42 662.05C1034.9 661.397 1034.23 660.86 1033.39 660.44C1032.59 660.02 1031.59 659.81 1030.38 659.81C1029.21 659.81 1028.21 660.02 1027.37 660.44C1026.53 660.813 1025.83 661.327 1025.27 661.98C1024.71 662.633 1024.26 663.403 1023.94 664.29C1023.66 665.13 1023.45 665.993 1023.31 666.88H1037.1ZM1065.8 681.51C1067.71 681.51 1069.06 681.323 1069.86 680.95C1070.65 680.577 1071.05 679.853 1071.05 678.78C1071.05 677.94 1070.53 677.217 1069.51 676.61C1068.48 675.957 1066.92 675.233 1064.82 674.44C1063.18 673.833 1061.69 673.203 1060.34 672.55C1059.03 671.897 1057.91 671.127 1056.98 670.24C1056.04 669.307 1055.32 668.21 1054.81 666.95C1054.29 665.69 1054.04 664.173 1054.04 662.4C1054.04 658.947 1055.32 656.217 1057.89 654.21C1060.45 652.203 1063.98 651.2 1068.46 651.2C1070.7 651.2 1072.84 651.41 1074.9 651.83C1076.95 652.203 1078.58 652.623 1079.8 653.09L1077.98 661.21C1076.76 660.79 1075.43 660.417 1073.99 660.09C1072.59 659.763 1071 659.6 1069.23 659.6C1065.96 659.6 1064.33 660.51 1064.33 662.33C1064.33 662.75 1064.4 663.123 1064.54 663.45C1064.68 663.777 1064.96 664.103 1065.38 664.43C1065.8 664.71 1066.36 665.037 1067.06 665.41C1067.8 665.737 1068.74 666.11 1069.86 666.53C1072.14 667.37 1074.03 668.21 1075.53 669.05C1077.02 669.843 1078.19 670.73 1079.03 671.71C1079.91 672.643 1080.52 673.693 1080.85 674.86C1081.22 676.027 1081.41 677.38 1081.41 678.92C1081.41 682.56 1080.03 685.313 1077.28 687.18C1074.57 689.047 1070.72 689.98 1065.73 689.98C1062.46 689.98 1059.73 689.7 1057.54 689.14C1055.39 688.58 1053.9 688.113 1053.06 687.74L1054.81 679.27C1056.58 679.97 1058.4 680.53 1060.27 680.95C1062.13 681.323 1063.98 681.51 1065.8 681.51Z" fill="white"/>
<path d="M115.55 293.01L125.98 291.33V302.18H138.51V310.86H125.98V323.81C125.98 326.003 126.353 327.753 127.1 329.06C127.893 330.367 129.457 331.02 131.79 331.02C132.91 331.02 134.053 330.927 135.22 330.74C136.433 330.507 137.53 330.203 138.51 329.83L139.98 337.95C138.72 338.463 137.32 338.907 135.78 339.28C134.24 339.653 132.35 339.84 130.11 339.84C127.263 339.84 124.907 339.467 123.04 338.72C121.173 337.927 119.68 336.853 118.56 335.5C117.44 334.1 116.647 332.42 116.18 330.46C115.76 328.5 115.55 326.33 115.55 323.95V293.01ZM169.194 311.42C168.26 311.187 167.164 310.953 165.904 310.72C164.644 310.44 163.29 310.3 161.844 310.3C161.19 310.3 160.397 310.37 159.464 310.51C158.577 310.603 157.9 310.72 157.434 310.86V339H147.004V304.14C148.87 303.487 151.064 302.88 153.584 302.32C156.15 301.713 158.997 301.41 162.124 301.41C162.684 301.41 163.36 301.457 164.154 301.55C164.947 301.597 165.74 301.69 166.534 301.83C167.327 301.923 168.12 302.063 168.914 302.25C169.707 302.39 170.384 302.577 170.944 302.81L169.194 311.42ZM189.921 331.72C190.948 331.72 191.928 331.697 192.861 331.65C193.795 331.603 194.541 331.533 195.101 331.44V323.53C194.681 323.437 194.051 323.343 193.211 323.25C192.371 323.157 191.601 323.11 190.901 323.11C189.921 323.11 188.988 323.18 188.101 323.32C187.261 323.413 186.515 323.623 185.861 323.95C185.208 324.277 184.695 324.72 184.321 325.28C183.948 325.84 183.761 326.54 183.761 327.38C183.761 329.013 184.298 330.157 185.371 330.81C186.491 331.417 188.008 331.72 189.921 331.72ZM189.081 301.2C192.161 301.2 194.728 301.55 196.781 302.25C198.835 302.95 200.468 303.953 201.681 305.26C202.941 306.567 203.828 308.153 204.341 310.02C204.855 311.887 205.111 313.963 205.111 316.25V337.95C203.618 338.277 201.541 338.65 198.881 339.07C196.221 339.537 193.001 339.77 189.221 339.77C186.841 339.77 184.671 339.56 182.711 339.14C180.798 338.72 179.141 338.043 177.741 337.11C176.341 336.13 175.268 334.87 174.521 333.33C173.775 331.79 173.401 329.9 173.401 327.66C173.401 325.513 173.821 323.693 174.661 322.2C175.548 320.707 176.715 319.517 178.161 318.63C179.608 317.743 181.265 317.113 183.131 316.74C184.998 316.32 186.935 316.11 188.941 316.11C190.295 316.11 191.485 316.18 192.511 316.32C193.585 316.413 194.448 316.553 195.101 316.74V315.76C195.101 313.987 194.565 312.563 193.491 311.49C192.418 310.417 190.551 309.88 187.891 309.88C186.118 309.88 184.368 310.02 182.641 310.3C180.915 310.533 179.421 310.883 178.161 311.35L176.831 302.95C177.438 302.763 178.185 302.577 179.071 302.39C180.005 302.157 181.008 301.97 182.081 301.83C183.155 301.643 184.275 301.503 185.441 301.41C186.655 301.27 187.868 301.2 189.081 301.2ZM214.543 303.44C216.316 302.927 218.603 302.46 221.403 302.04C224.203 301.573 227.143 301.34 230.223 301.34C233.349 301.34 235.939 301.76 237.993 302.6C240.093 303.393 241.749 304.537 242.963 306.03C244.176 307.523 245.039 309.297 245.553 311.35C246.066 313.403 246.323 315.69 246.323 318.21V339H235.893V319.47C235.893 316.11 235.449 313.73 234.563 312.33C233.676 310.93 232.019 310.23 229.593 310.23C228.846 310.23 228.053 310.277 227.213 310.37C226.373 310.417 225.626 310.487 224.973 310.58V339H214.543V303.44ZM266.333 331.51C268.247 331.51 269.6 331.323 270.393 330.95C271.187 330.577 271.583 329.853 271.583 328.78C271.583 327.94 271.07 327.217 270.043 326.61C269.017 325.957 267.453 325.233 265.353 324.44C263.72 323.833 262.227 323.203 260.873 322.55C259.567 321.897 258.447 321.127 257.513 320.24C256.58 319.307 255.857 318.21 255.343 316.95C254.83 315.69 254.573 314.173 254.573 312.4C254.573 308.947 255.857 306.217 258.423 304.21C260.99 302.203 264.513 301.2 268.993 301.2C271.233 301.2 273.38 301.41 275.433 301.83C277.487 302.203 279.12 302.623 280.333 303.09L278.513 311.21C277.3 310.79 275.97 310.417 274.523 310.09C273.123 309.763 271.537 309.6 269.763 309.6C266.497 309.6 264.863 310.51 264.863 312.33C264.863 312.75 264.933 313.123 265.073 313.45C265.213 313.777 265.493 314.103 265.913 314.43C266.333 314.71 266.893 315.037 267.593 315.41C268.34 315.737 269.273 316.11 270.393 316.53C272.68 317.37 274.57 318.21 276.063 319.05C277.557 319.843 278.723 320.73 279.563 321.71C280.45 322.643 281.057 323.693 281.383 324.86C281.757 326.027 281.943 327.38 281.943 328.92C281.943 332.56 280.567 335.313 277.813 337.18C275.107 339.047 271.257 339.98 266.263 339.98C262.997 339.98 260.267 339.7 258.073 339.14C255.927 338.58 254.433 338.113 253.593 337.74L255.343 329.27C257.117 329.97 258.937 330.53 260.803 330.95C262.67 331.323 264.513 331.51 266.333 331.51ZM305.698 284.68C307.658 284.68 309.455 284.89 311.088 285.31C312.721 285.683 313.981 286.057 314.868 286.43L312.838 294.76C311.905 294.34 310.878 294.037 309.758 293.85C308.685 293.617 307.681 293.5 306.748 293.5C305.488 293.5 304.415 293.687 303.528 294.06C302.688 294.387 302.011 294.853 301.498 295.46C301.031 296.067 300.681 296.79 300.448 297.63C300.261 298.47 300.168 299.38 300.168 300.36V302.18H313.048V310.86H300.168V339H289.738V300.22C289.738 295.46 291.068 291.68 293.728 288.88C296.435 286.08 300.425 284.68 305.698 284.68ZM353.162 320.52C353.162 323.413 352.742 326.073 351.902 328.5C351.062 330.88 349.849 332.933 348.262 334.66C346.676 336.34 344.762 337.647 342.522 338.58C340.329 339.513 337.856 339.98 335.102 339.98C332.396 339.98 329.922 339.513 327.682 338.58C325.489 337.647 323.599 336.34 322.012 334.66C320.426 332.933 319.189 330.88 318.302 328.5C317.416 326.073 316.972 323.413 316.972 320.52C316.972 317.627 317.416 314.99 318.302 312.61C319.236 310.23 320.496 308.2 322.082 306.52C323.716 304.84 325.629 303.533 327.822 302.6C330.062 301.667 332.489 301.2 335.102 301.2C337.762 301.2 340.189 301.667 342.382 302.6C344.622 303.533 346.536 304.84 348.122 306.52C349.709 308.2 350.946 310.23 351.832 312.61C352.719 314.99 353.162 317.627 353.162 320.52ZM342.522 320.52C342.522 317.3 341.869 314.78 340.562 312.96C339.302 311.093 337.482 310.16 335.102 310.16C332.722 310.16 330.879 311.093 329.572 312.96C328.266 314.78 327.612 317.3 327.612 320.52C327.612 323.74 328.266 326.307 329.572 328.22C330.879 330.087 332.722 331.02 335.102 331.02C337.482 331.02 339.302 330.087 340.562 328.22C341.869 326.307 342.522 323.74 342.522 320.52ZM383.432 311.42C382.498 311.187 381.402 310.953 380.142 310.72C378.882 310.44 377.528 310.3 376.082 310.3C375.428 310.3 374.635 310.37 373.702 310.51C372.815 310.603 372.138 310.72 371.672 310.86V339H361.242V304.14C363.108 303.487 365.302 302.88 367.822 302.32C370.388 301.713 373.235 301.41 376.362 301.41C376.922 301.41 377.598 301.457 378.392 301.55C379.185 301.597 379.978 301.69 380.772 301.83C381.565 301.923 382.358 302.063 383.152 302.25C383.945 302.39 384.622 302.577 385.182 302.81L383.432 311.42ZM411.003 319.47C411.003 316.11 410.56 313.73 409.673 312.33C408.833 310.93 407.363 310.23 405.263 310.23C404.61 310.23 403.933 310.277 403.233 310.37C402.533 310.417 401.856 310.487 401.203 310.58V339H390.773V303.44C391.66 303.207 392.686 302.973 393.853 302.74C395.066 302.46 396.326 302.227 397.633 302.04C398.986 301.807 400.363 301.643 401.763 301.55C403.163 301.41 404.54 301.34 405.893 301.34C408.553 301.34 410.7 301.69 412.333 302.39C414.013 303.043 415.39 303.837 416.463 304.77C417.956 303.697 419.66 302.857 421.573 302.25C423.533 301.643 425.33 301.34 426.963 301.34C429.903 301.34 432.306 301.76 434.173 302.6C436.086 303.393 437.603 304.537 438.723 306.03C439.843 307.523 440.613 309.297 441.033 311.35C441.453 313.403 441.663 315.69 441.663 318.21V339H431.233V319.47C431.233 316.11 430.79 313.73 429.903 312.33C429.063 310.93 427.593 310.23 425.493 310.23C424.933 310.23 424.14 310.37 423.113 310.65C422.133 310.93 421.316 311.28 420.663 311.7C420.99 312.773 421.2 313.917 421.293 315.13C421.386 316.297 421.433 317.557 421.433 318.91V339H411.003V319.47ZM465.204 331.72C466.231 331.72 467.211 331.697 468.144 331.65C469.078 331.603 469.824 331.533 470.384 331.44V323.53C469.964 323.437 469.334 323.343 468.494 323.25C467.654 323.157 466.884 323.11 466.184 323.11C465.204 323.11 464.271 323.18 463.384 323.32C462.544 323.413 461.798 323.623 461.144 323.95C460.491 324.277 459.978 324.72 459.604 325.28C459.231 325.84 459.044 326.54 459.044 327.38C459.044 329.013 459.581 330.157 460.654 330.81C461.774 331.417 463.291 331.72 465.204 331.72ZM464.364 301.2C467.444 301.2 470.011 301.55 472.064 302.25C474.118 302.95 475.751 303.953 476.964 305.26C478.224 306.567 479.111 308.153 479.624 310.02C480.138 311.887 480.394 313.963 480.394 316.25V337.95C478.901 338.277 476.824 338.65 474.164 339.07C471.504 339.537 468.284 339.77 464.504 339.77C462.124 339.77 459.954 339.56 457.994 339.14C456.081 338.72 454.424 338.043 453.024 337.11C451.624 336.13 450.551 334.87 449.804 333.33C449.058 331.79 448.684 329.9 448.684 327.66C448.684 325.513 449.104 323.693 449.944 322.2C450.831 320.707 451.998 319.517 453.444 318.63C454.891 317.743 456.548 317.113 458.414 316.74C460.281 316.32 462.218 316.11 464.224 316.11C465.578 316.11 466.768 316.18 467.794 316.32C468.868 316.413 469.731 316.553 470.384 316.74V315.76C470.384 313.987 469.848 312.563 468.774 311.49C467.701 310.417 465.834 309.88 463.174 309.88C461.401 309.88 459.651 310.02 457.924 310.3C456.198 310.533 454.704 310.883 453.444 311.35L452.114 302.95C452.721 302.763 453.468 302.577 454.354 302.39C455.288 302.157 456.291 301.97 457.364 301.83C458.438 301.643 459.558 301.503 460.724 301.41C461.938 301.27 463.151 301.2 464.364 301.2ZM498.716 320.31C498.716 323.53 499.439 326.12 500.886 328.08C502.332 330.04 504.479 331.02 507.326 331.02C508.259 331.02 509.122 330.997 509.916 330.95C510.709 330.857 511.362 330.763 511.876 330.67V311.7C511.222 311.28 510.359 310.93 509.286 310.65C508.259 310.37 507.209 310.23 506.136 310.23C501.189 310.23 498.716 313.59 498.716 320.31ZM522.306 337.81C521.372 338.09 520.299 338.37 519.086 338.65C517.872 338.883 516.589 339.093 515.236 339.28C513.929 339.467 512.576 339.607 511.176 339.7C509.822 339.84 508.516 339.91 507.256 339.91C504.222 339.91 501.516 339.467 499.136 338.58C496.756 337.693 494.749 336.433 493.116 334.8C491.482 333.12 490.222 331.113 489.336 328.78C488.496 326.4 488.076 323.74 488.076 320.8C488.076 317.813 488.449 315.13 489.196 312.75C489.942 310.323 491.016 308.27 492.416 306.59C493.816 304.91 495.519 303.627 497.526 302.74C499.579 301.853 501.912 301.41 504.526 301.41C505.972 301.41 507.256 301.55 508.376 301.83C509.542 302.11 510.709 302.507 511.876 303.02V286.36L522.306 284.68V337.81ZM566.512 320.52C566.512 323.413 566.092 326.073 565.252 328.5C564.412 330.88 563.199 332.933 561.612 334.66C560.025 336.34 558.112 337.647 555.872 338.58C553.679 339.513 551.205 339.98 548.452 339.98C545.745 339.98 543.272 339.513 541.032 338.58C538.839 337.647 536.949 336.34 535.362 334.66C533.775 332.933 532.539 330.88 531.652 328.5C530.765 326.073 530.322 323.413 530.322 320.52C530.322 317.627 530.765 314.99 531.652 312.61C532.585 310.23 533.845 308.2 535.432 306.52C537.065 304.84 538.979 303.533 541.172 302.6C543.412 301.667 545.839 301.2 548.452 301.2C551.112 301.2 553.539 301.667 555.732 302.6C557.972 303.533 559.885 304.84 561.472 306.52C563.059 308.2 564.295 310.23 565.182 312.61C566.069 314.99 566.512 317.627 566.512 320.52ZM555.872 320.52C555.872 317.3 555.219 314.78 553.912 312.96C552.652 311.093 550.832 310.16 548.452 310.16C546.072 310.16 544.229 311.093 542.922 312.96C541.615 314.78 540.962 317.3 540.962 320.52C540.962 323.74 541.615 326.307 542.922 328.22C544.229 330.087 546.072 331.02 548.452 331.02C550.832 331.02 552.652 330.087 553.912 328.22C555.219 326.307 555.872 323.74 555.872 320.52ZM596.781 311.42C595.848 311.187 594.751 310.953 593.491 310.72C592.231 310.44 590.878 310.3 589.431 310.3C588.778 310.3 587.985 310.37 587.051 310.51C586.165 310.603 585.488 310.72 585.021 310.86V339H574.591V304.14C576.458 303.487 578.651 302.88 581.171 302.32C583.738 301.713 586.585 301.41 589.711 301.41C590.271 301.41 590.948 301.457 591.741 301.55C592.535 301.597 593.328 301.69 594.121 301.83C594.915 301.923 595.708 302.063 596.501 302.25C597.295 302.39 597.971 302.577 598.531 302.81L596.781 311.42ZM601.689 320.87C601.689 317.603 602.179 314.757 603.159 312.33C604.186 309.857 605.516 307.803 607.149 306.17C608.782 304.537 610.649 303.3 612.749 302.46C614.896 301.62 617.089 301.2 619.329 301.2C624.556 301.2 628.686 302.81 631.719 306.03C634.752 309.203 636.269 313.893 636.269 320.1C636.269 320.707 636.246 321.383 636.199 322.13C636.152 322.83 636.106 323.46 636.059 324.02H612.399C612.632 326.167 613.636 327.87 615.409 329.13C617.182 330.39 619.562 331.02 622.549 331.02C624.462 331.02 626.329 330.857 628.149 330.53C630.016 330.157 631.532 329.713 632.699 329.2L634.099 337.67C633.539 337.95 632.792 338.23 631.859 338.51C630.926 338.79 629.876 339.023 628.709 339.21C627.589 339.443 626.376 339.63 625.069 339.77C623.762 339.91 622.456 339.98 621.149 339.98C617.836 339.98 614.942 339.49 612.469 338.51C610.042 337.53 608.012 336.2 606.379 334.52C604.792 332.793 603.602 330.763 602.809 328.43C602.062 326.097 601.689 323.577 601.689 320.87ZM626.189 316.88C626.142 315.993 625.979 315.13 625.699 314.29C625.466 313.45 625.069 312.703 624.509 312.05C623.996 311.397 623.319 310.86 622.479 310.44C621.686 310.02 620.682 309.81 619.469 309.81C618.302 309.81 617.299 310.02 616.459 310.44C615.619 310.813 614.919 311.327 614.359 311.98C613.799 312.633 613.356 313.403 613.029 314.29C612.749 315.13 612.539 315.993 612.399 316.88H626.189ZM654.888 331.51C656.801 331.51 658.155 331.323 658.948 330.95C659.741 330.577 660.138 329.853 660.138 328.78C660.138 327.94 659.625 327.217 658.598 326.61C657.571 325.957 656.008 325.233 653.908 324.44C652.275 323.833 650.781 323.203 649.428 322.55C648.121 321.897 647.001 321.127 646.068 320.24C645.135 319.307 644.411 318.21 643.898 316.95C643.385 315.69 643.128 314.173 643.128 312.4C643.128 308.947 644.411 306.217 646.978 304.21C649.545 302.203 653.068 301.2 657.548 301.2C659.788 301.2 661.935 301.41 663.988 301.83C666.041 302.203 667.675 302.623 668.888 303.09L667.068 311.21C665.855 310.79 664.525 310.417 663.078 310.09C661.678 309.763 660.091 309.6 658.318 309.6C655.051 309.6 653.418 310.51 653.418 312.33C653.418 312.75 653.488 313.123 653.628 313.45C653.768 313.777 654.048 314.103 654.468 314.43C654.888 314.71 655.448 315.037 656.148 315.41C656.895 315.737 657.828 316.11 658.948 316.53C661.235 317.37 663.125 318.21 664.618 319.05C666.111 319.843 667.278 320.73 668.118 321.71C669.005 322.643 669.611 323.693 669.938 324.86C670.311 326.027 670.498 327.38 670.498 328.92C670.498 332.56 669.121 335.313 666.368 337.18C663.661 339.047 659.811 339.98 654.818 339.98C651.551 339.98 648.821 339.7 646.628 339.14C644.481 338.58 642.988 338.113 642.148 337.74L643.898 329.27C645.671 329.97 647.491 330.53 649.358 330.95C651.225 331.323 653.068 331.51 654.888 331.51ZM115.9 513.44C117.673 512.927 119.96 512.46 122.76 512.04C125.56 511.573 128.5 511.34 131.58 511.34C134.707 511.34 137.297 511.76 139.35 512.6C141.45 513.393 143.107 514.537 144.32 516.03C145.533 517.523 146.397 519.297 146.91 521.35C147.423 523.403 147.68 525.69 147.68 528.21V549H137.25V529.47C137.25 526.11 136.807 523.73 135.92 522.33C135.033 520.93 133.377 520.23 130.95 520.23C130.203 520.23 129.41 520.277 128.57 520.37C127.73 520.417 126.983 520.487 126.33 520.58V549H115.9V513.44ZM191.561 530.52C191.561 533.413 191.141 536.073 190.301 538.5C189.461 540.88 188.247 542.933 186.661 544.66C185.074 546.34 183.161 547.647 180.921 548.58C178.727 549.513 176.254 549.98 173.501 549.98C170.794 549.98 168.321 549.513 166.081 548.58C163.887 547.647 161.997 546.34 160.411 544.66C158.824 542.933 157.587 540.88 156.701 538.5C155.814 536.073 155.371 533.413 155.371 530.52C155.371 527.627 155.814 524.99 156.701 522.61C157.634 520.23 158.894 518.2 160.481 516.52C162.114 514.84 164.027 513.533 166.221 512.6C168.461 511.667 170.887 511.2 173.501 511.2C176.161 511.2 178.587 511.667 180.781 512.6C183.021 513.533 184.934 514.84 186.521 516.52C188.107 518.2 189.344 520.23 190.231 522.61C191.117 524.99 191.561 527.627 191.561 530.52ZM180.921 530.52C180.921 527.3 180.267 524.78 178.961 522.96C177.701 521.093 175.881 520.16 173.501 520.16C171.121 520.16 169.277 521.093 167.971 522.96C166.664 524.78 166.011 527.3 166.011 530.52C166.011 533.74 166.664 536.307 167.971 538.22C169.277 540.087 171.121 541.02 173.501 541.02C175.881 541.02 177.701 540.087 178.961 538.22C180.267 536.307 180.921 533.74 180.921 530.52ZM208.693 549C206.313 544.333 203.887 538.873 201.413 532.62C198.987 526.367 196.677 519.553 194.483 512.18H205.543C206.01 514 206.547 515.983 207.153 518.13C207.807 520.23 208.46 522.377 209.113 524.57C209.813 526.717 210.49 528.817 211.143 530.87C211.843 532.923 212.52 534.79 213.173 536.47C213.78 534.79 214.433 532.923 215.133 530.87C215.833 528.817 216.51 526.717 217.163 524.57C217.863 522.377 218.517 520.23 219.123 518.13C219.777 515.983 220.337 514 220.803 512.18H231.583C229.39 519.553 227.057 526.367 224.583 532.62C222.157 538.873 219.753 544.333 217.373 549H208.693ZM247.6 549H237.17V512.18H247.6V549ZM248.58 501.54C248.58 503.453 247.95 504.97 246.69 506.09C245.476 507.163 244.03 507.7 242.35 507.7C240.67 507.7 239.2 507.163 237.94 506.09C236.726 504.97 236.12 503.453 236.12 501.54C236.12 499.627 236.726 498.133 237.94 497.06C239.2 495.94 240.67 495.38 242.35 495.38C244.03 495.38 245.476 495.94 246.69 497.06C247.95 498.133 248.58 499.627 248.58 501.54ZM266.294 530.31C266.294 533.53 267.017 536.12 268.464 538.08C269.911 540.04 272.057 541.02 274.904 541.02C275.837 541.02 276.701 540.997 277.494 540.95C278.287 540.857 278.941 540.763 279.454 540.67V521.7C278.801 521.28 277.937 520.93 276.864 520.65C275.837 520.37 274.787 520.23 273.714 520.23C268.767 520.23 266.294 523.59 266.294 530.31ZM289.884 547.81C288.951 548.09 287.877 548.37 286.664 548.65C285.451 548.883 284.167 549.093 282.814 549.28C281.507 549.467 280.154 549.607 278.754 549.7C277.401 549.84 276.094 549.91 274.834 549.91C271.801 549.91 269.094 549.467 266.714 548.58C264.334 547.693 262.327 546.433 260.694 544.8C259.061 543.12 257.801 541.113 256.914 538.78C256.074 536.4 255.654 533.74 255.654 530.8C255.654 527.813 256.027 525.13 256.774 522.75C257.521 520.323 258.594 518.27 259.994 516.59C261.394 514.91 263.097 513.627 265.104 512.74C267.157 511.853 269.491 511.41 272.104 511.41C273.551 511.41 274.834 511.55 275.954 511.83C277.121 512.11 278.287 512.507 279.454 513.02V496.36L289.884 494.68V547.81ZM313.72 541.72C314.747 541.72 315.727 541.697 316.66 541.65C317.593 541.603 318.34 541.533 318.9 541.44V533.53C318.48 533.437 317.85 533.343 317.01 533.25C316.17 533.157 315.4 533.11 314.7 533.11C313.72 533.11 312.787 533.18 311.9 533.32C311.06 533.413 310.313 533.623 309.66 533.95C309.007 534.277 308.493 534.72 308.12 535.28C307.747 535.84 307.56 536.54 307.56 537.38C307.56 539.013 308.097 540.157 309.17 540.81C310.29 541.417 311.807 541.72 313.72 541.72ZM312.88 511.2C315.96 511.2 318.527 511.55 320.58 512.25C322.633 512.95 324.267 513.953 325.48 515.26C326.74 516.567 327.627 518.153 328.14 520.02C328.653 521.887 328.91 523.963 328.91 526.25V547.95C327.417 548.277 325.34 548.65 322.68 549.07C320.02 549.537 316.8 549.77 313.02 549.77C310.64 549.77 308.47 549.56 306.51 549.14C304.597 548.72 302.94 548.043 301.54 547.11C300.14 546.13 299.067 544.87 298.32 543.33C297.573 541.79 297.2 539.9 297.2 537.66C297.2 535.513 297.62 533.693 298.46 532.2C299.347 530.707 300.513 529.517 301.96 528.63C303.407 527.743 305.063 527.113 306.93 526.74C308.797 526.32 310.733 526.11 312.74 526.11C314.093 526.11 315.283 526.18 316.31 526.32C317.383 526.413 318.247 526.553 318.9 526.74V525.76C318.9 523.987 318.363 522.563 317.29 521.49C316.217 520.417 314.35 519.88 311.69 519.88C309.917 519.88 308.167 520.02 306.44 520.3C304.713 520.533 303.22 520.883 301.96 521.35L300.63 512.95C301.237 512.763 301.983 512.577 302.87 512.39C303.803 512.157 304.807 511.97 305.88 511.83C306.953 511.643 308.073 511.503 309.24 511.41C310.453 511.27 311.667 511.2 312.88 511.2ZM347.231 530.31C347.231 533.53 347.955 536.12 349.401 538.08C350.848 540.04 352.995 541.02 355.841 541.02C356.775 541.02 357.638 540.997 358.431 540.95C359.225 540.857 359.878 540.763 360.391 540.67V521.7C359.738 521.28 358.875 520.93 357.801 520.65C356.775 520.37 355.725 520.23 354.651 520.23C349.705 520.23 347.231 523.59 347.231 530.31ZM370.821 547.81C369.888 548.09 368.815 548.37 367.601 548.65C366.388 548.883 365.105 549.093 363.751 549.28C362.445 549.467 361.091 549.607 359.691 549.7C358.338 549.84 357.031 549.91 355.771 549.91C352.738 549.91 350.031 549.467 347.651 548.58C345.271 547.693 343.265 546.433 341.631 544.8C339.998 543.12 338.738 541.113 337.851 538.78C337.011 536.4 336.591 533.74 336.591 530.8C336.591 527.813 336.965 525.13 337.711 522.75C338.458 520.323 339.531 518.27 340.931 516.59C342.331 514.91 344.035 513.627 346.041 512.74C348.095 511.853 350.428 511.41 353.041 511.41C354.488 511.41 355.771 511.55 356.891 511.83C358.058 512.11 359.225 512.507 360.391 513.02V496.36L370.821 494.68V547.81ZM378.838 530.87C378.838 527.603 379.328 524.757 380.307 522.33C381.334 519.857 382.664 517.803 384.298 516.17C385.931 514.537 387.798 513.3 389.898 512.46C392.044 511.62 394.238 511.2 396.478 511.2C401.704 511.2 405.834 512.81 408.868 516.03C411.901 519.203 413.418 523.893 413.418 530.1C413.418 530.707 413.394 531.383 413.348 532.13C413.301 532.83 413.254 533.46 413.208 534.02H389.548C389.781 536.167 390.784 537.87 392.558 539.13C394.331 540.39 396.711 541.02 399.698 541.02C401.611 541.02 403.478 540.857 405.298 540.53C407.164 540.157 408.681 539.713 409.848 539.2L411.248 547.67C410.688 547.95 409.941 548.23 409.008 548.51C408.074 548.79 407.024 549.023 405.858 549.21C404.738 549.443 403.524 549.63 402.218 549.77C400.911 549.91 399.604 549.98 398.298 549.98C394.984 549.98 392.091 549.49 389.618 548.51C387.191 547.53 385.161 546.2 383.528 544.52C381.941 542.793 380.751 540.763 379.958 538.43C379.211 536.097 378.838 533.577 378.838 530.87ZM403.338 526.88C403.291 525.993 403.128 525.13 402.848 524.29C402.614 523.45 402.218 522.703 401.658 522.05C401.144 521.397 400.468 520.86 399.628 520.44C398.834 520.02 397.831 519.81 396.618 519.81C395.451 519.81 394.448 520.02 393.608 520.44C392.768 520.813 392.068 521.327 391.508 521.98C390.948 522.633 390.504 523.403 390.178 524.29C389.898 525.13 389.688 525.993 389.548 526.88H403.338ZM505.988 549C503.608 544.333 501.181 538.873 498.708 532.62C496.281 526.367 493.971 519.553 491.778 512.18H502.838C503.305 514 503.841 515.983 504.448 518.13C505.101 520.23 505.755 522.377 506.408 524.57C507.108 526.717 507.785 528.817 508.438 530.87C509.138 532.923 509.815 534.79 510.468 536.47C511.075 534.79 511.728 532.923 512.428 530.87C513.128 528.817 513.805 526.717 514.458 524.57C515.158 522.377 515.811 520.23 516.418 518.13C517.071 515.983 517.631 514 518.098 512.18H528.878C526.685 519.553 524.351 526.367 521.878 532.62C519.451 538.873 517.048 544.333 514.668 549H505.988ZM547.851 541.72C548.878 541.72 549.858 541.697 550.791 541.65C551.724 541.603 552.471 541.533 553.031 541.44V533.53C552.611 533.437 551.981 533.343 551.141 533.25C550.301 533.157 549.531 533.11 548.831 533.11C547.851 533.11 546.918 533.18 546.031 533.32C545.191 533.413 544.444 533.623 543.791 533.95C543.138 534.277 542.624 534.72 542.251 535.28C541.878 535.84 541.691 536.54 541.691 537.38C541.691 539.013 542.228 540.157 543.301 540.81C544.421 541.417 545.938 541.72 547.851 541.72ZM547.011 511.2C550.091 511.2 552.658 511.55 554.711 512.25C556.764 512.95 558.398 513.953 559.611 515.26C560.871 516.567 561.758 518.153 562.271 520.02C562.784 521.887 563.041 523.963 563.041 526.25V547.95C561.548 548.277 559.471 548.65 556.811 549.07C554.151 549.537 550.931 549.77 547.151 549.77C544.771 549.77 542.601 549.56 540.641 549.14C538.728 548.72 537.071 548.043 535.671 547.11C534.271 546.13 533.198 544.87 532.451 543.33C531.704 541.79 531.331 539.9 531.331 537.66C531.331 535.513 531.751 533.693 532.591 532.2C533.478 530.707 534.644 529.517 536.091 528.63C537.538 527.743 539.194 527.113 541.061 526.74C542.928 526.32 544.864 526.11 546.871 526.11C548.224 526.11 549.414 526.18 550.441 526.32C551.514 526.413 552.378 526.553 553.031 526.74V525.76C553.031 523.987 552.494 522.563 551.421 521.49C550.348 520.417 548.481 519.88 545.821 519.88C544.048 519.88 542.298 520.02 540.571 520.3C538.844 520.533 537.351 520.883 536.091 521.35L534.761 512.95C535.368 512.763 536.114 512.577 537.001 512.39C537.934 512.157 538.938 511.97 540.011 511.83C541.084 511.643 542.204 511.503 543.371 511.41C544.584 511.27 545.798 511.2 547.011 511.2ZM587.172 549.7C584.139 549.653 581.666 549.327 579.752 548.72C577.886 548.113 576.392 547.273 575.272 546.2C574.199 545.08 573.452 543.75 573.032 542.21C572.659 540.623 572.472 538.85 572.472 536.89V496.36L582.902 494.68V534.79C582.902 535.723 582.972 536.563 583.112 537.31C583.252 538.057 583.509 538.687 583.882 539.2C584.302 539.713 584.886 540.133 585.632 540.46C586.379 540.787 587.382 540.997 588.642 541.09L587.172 549.7ZM629.061 530.52C629.061 533.413 628.641 536.073 627.801 538.5C626.961 540.88 625.747 542.933 624.161 544.66C622.574 546.34 620.661 547.647 618.421 548.58C616.227 549.513 613.754 549.98 611.001 549.98C608.294 549.98 605.821 549.513 603.581 548.58C601.387 547.647 599.497 546.34 597.911 544.66C596.324 542.933 595.087 540.88 594.201 538.5C593.314 536.073 592.871 533.413 592.871 530.52C592.871 527.627 593.314 524.99 594.201 522.61C595.134 520.23 596.394 518.2 597.981 516.52C599.614 514.84 601.527 513.533 603.721 512.6C605.961 511.667 608.387 511.2 611.001 511.2C613.661 511.2 616.087 511.667 618.281 512.6C620.521 513.533 622.434 514.84 624.021 516.52C625.607 518.2 626.844 520.23 627.731 522.61C628.617 524.99 629.061 527.627 629.061 530.52ZM618.421 530.52C618.421 527.3 617.767 524.78 616.461 522.96C615.201 521.093 613.381 520.16 611.001 520.16C608.621 520.16 606.777 521.093 605.471 522.96C604.164 524.78 603.511 527.3 603.511 530.52C603.511 533.74 604.164 536.307 605.471 538.22C606.777 540.087 608.621 541.02 611.001 541.02C613.381 541.02 615.201 540.087 616.461 538.22C617.767 536.307 618.421 533.74 618.421 530.52ZM659.33 521.42C658.397 521.187 657.3 520.953 656.04 520.72C654.78 520.44 653.427 520.3 651.98 520.3C651.327 520.3 650.534 520.37 649.6 520.51C648.714 520.603 648.037 520.72 647.57 520.86V549H637.14V514.14C639.007 513.487 641.2 512.88 643.72 512.32C646.287 511.713 649.134 511.41 652.26 511.41C652.82 511.41 653.497 511.457 654.29 511.55C655.084 511.597 655.877 511.69 656.67 511.83C657.464 511.923 658.257 512.063 659.05 512.25C659.844 512.39 660.52 512.577 661.08 512.81L659.33 521.42ZM126.33 759H115.9V722.18H126.33V759ZM127.31 711.54C127.31 713.453 126.68 714.97 125.42 716.09C124.207 717.163 122.76 717.7 121.08 717.7C119.4 717.7 117.93 717.163 116.67 716.09C115.457 714.97 114.85 713.453 114.85 711.54C114.85 709.627 115.457 708.133 116.67 707.06C117.93 705.94 119.4 705.38 121.08 705.38C122.76 705.38 124.207 705.94 125.42 707.06C126.68 708.133 127.31 709.627 127.31 711.54ZM136.134 723.44C137.908 722.927 140.194 722.46 142.994 722.04C145.794 721.573 148.734 721.34 151.814 721.34C154.941 721.34 157.531 721.76 159.584 722.6C161.684 723.393 163.341 724.537 164.554 726.03C165.768 727.523 166.631 729.297 167.144 731.35C167.658 733.403 167.914 735.69 167.914 738.21V759H157.484V739.47C157.484 736.11 157.041 733.73 156.154 732.33C155.268 730.93 153.611 730.23 151.184 730.23C150.438 730.23 149.644 730.277 148.804 730.37C147.964 730.417 147.218 730.487 146.564 730.58V759H136.134V723.44ZM211.795 740.52C211.795 743.413 211.375 746.073 210.535 748.5C209.695 750.88 208.482 752.933 206.895 754.66C205.308 756.34 203.395 757.647 201.155 758.58C198.962 759.513 196.488 759.98 193.735 759.98C191.028 759.98 188.555 759.513 186.315 758.58C184.122 757.647 182.232 756.34 180.645 754.66C179.058 752.933 177.822 750.88 176.935 748.5C176.048 746.073 175.605 743.413 175.605 740.52C175.605 737.627 176.048 734.99 176.935 732.61C177.868 730.23 179.128 728.2 180.715 726.52C182.348 724.84 184.262 723.533 186.455 722.6C188.695 721.667 191.122 721.2 193.735 721.2C196.395 721.2 198.822 721.667 201.015 722.6C203.255 723.533 205.168 724.84 206.755 726.52C208.342 728.2 209.578 730.23 210.465 732.61C211.352 734.99 211.795 737.627 211.795 740.52ZM201.155 740.52C201.155 737.3 200.502 734.78 199.195 732.96C197.935 731.093 196.115 730.16 193.735 730.16C191.355 730.16 189.512 731.093 188.205 732.96C186.898 734.78 186.245 737.3 186.245 740.52C186.245 743.74 186.898 746.307 188.205 748.22C189.512 750.087 191.355 751.02 193.735 751.02C196.115 751.02 197.935 750.087 199.195 748.22C200.502 746.307 201.155 743.74 201.155 740.52ZM228.928 759C226.548 754.333 224.121 748.873 221.648 742.62C219.221 736.367 216.911 729.553 214.718 722.18H225.778C226.244 724 226.781 725.983 227.388 728.13C228.041 730.23 228.694 732.377 229.348 734.57C230.048 736.717 230.724 738.817 231.378 740.87C232.078 742.923 232.754 744.79 233.408 746.47C234.014 744.79 234.668 742.923 235.368 740.87C236.068 738.817 236.744 736.717 237.398 734.57C238.098 732.377 238.751 730.23 239.358 728.13C240.011 725.983 240.571 724 241.038 722.18H251.818C249.624 729.553 247.291 736.367 244.818 742.62C242.391 748.873 239.988 754.333 237.608 759H228.928ZM270.79 751.72C271.817 751.72 272.797 751.697 273.73 751.65C274.664 751.603 275.41 751.533 275.97 751.44V743.53C275.55 743.437 274.92 743.343 274.08 743.25C273.24 743.157 272.47 743.11 271.77 743.11C270.79 743.11 269.857 743.18 268.97 743.32C268.13 743.413 267.384 743.623 266.73 743.95C266.077 744.277 265.564 744.72 265.19 745.28C264.817 745.84 264.63 746.54 264.63 747.38C264.63 749.013 265.167 750.157 266.24 750.81C267.36 751.417 268.877 751.72 270.79 751.72ZM269.95 721.2C273.03 721.2 275.597 721.55 277.65 722.25C279.704 722.95 281.337 723.953 282.55 725.26C283.81 726.567 284.697 728.153 285.21 730.02C285.724 731.887 285.98 733.963 285.98 736.25V757.95C284.487 758.277 282.41 758.65 279.75 759.07C277.09 759.537 273.87 759.77 270.09 759.77C267.71 759.77 265.54 759.56 263.58 759.14C261.667 758.72 260.01 758.043 258.61 757.11C257.21 756.13 256.137 754.87 255.39 753.33C254.644 751.79 254.27 749.9 254.27 747.66C254.27 745.513 254.69 743.693 255.53 742.2C256.417 740.707 257.584 739.517 259.03 738.63C260.477 737.743 262.134 737.113 264 736.74C265.867 736.32 267.804 736.11 269.81 736.11C271.164 736.11 272.354 736.18 273.38 736.32C274.454 736.413 275.317 736.553 275.97 736.74V735.76C275.97 733.987 275.434 732.563 274.36 731.49C273.287 730.417 271.42 729.88 268.76 729.88C266.987 729.88 265.237 730.02 263.51 730.3C261.784 730.533 260.29 730.883 259.03 731.35L257.7 722.95C258.307 722.763 259.054 722.577 259.94 722.39C260.874 722.157 261.877 721.97 262.95 721.83C264.024 721.643 265.144 721.503 266.31 721.41C267.524 721.27 268.737 721.2 269.95 721.2ZM313.472 761.8C314.965 762.547 315.992 763.433 316.552 764.46C317.112 765.487 317.392 766.537 317.392 767.61C317.392 769.85 316.505 771.553 314.732 772.72C312.958 773.887 310.625 774.47 307.732 774.47C306.705 774.47 305.678 774.377 304.652 774.19C303.625 774.05 302.598 773.84 301.572 773.56L302.832 767.47C303.158 767.563 303.742 767.703 304.582 767.89C305.468 768.123 306.332 768.24 307.172 768.24C307.825 768.24 308.385 768.1 308.852 767.82C309.365 767.587 309.645 767.143 309.692 766.49C309.738 765.93 309.505 765.417 308.992 764.95C308.525 764.483 307.755 764.133 306.682 763.9L305.842 763.69C306.028 763.083 306.285 762.383 306.612 761.59C306.938 760.843 307.265 760.143 307.592 759.49C305.165 759.023 303.065 758.23 301.292 757.11C299.565 755.943 298.118 754.543 296.952 752.91C295.832 751.23 294.992 749.34 294.432 747.24C293.918 745.14 293.662 742.923 293.662 740.59C293.662 737.93 294.082 735.433 294.922 733.1C295.808 730.72 297.068 728.667 298.702 726.94C300.335 725.167 302.318 723.767 304.652 722.74C306.985 721.713 309.645 721.2 312.632 721.2C314.592 721.2 316.388 721.387 318.022 721.76C319.655 722.087 321.242 722.577 322.782 723.23L320.612 731.56C319.632 731.187 318.558 730.86 317.392 730.58C316.225 730.3 314.918 730.16 313.472 730.16C310.392 730.16 308.082 731.117 306.542 733.03C305.048 734.943 304.302 737.463 304.302 740.59C304.302 743.903 305.002 746.47 306.402 748.29C307.848 750.11 310.345 751.02 313.892 751.02C315.152 751.02 316.505 750.903 317.952 750.67C319.398 750.437 320.728 750.063 321.942 749.55L323.412 758.09C322.338 758.557 321.008 758.953 319.422 759.28C317.882 759.607 316.178 759.817 314.312 759.91C314.125 760.283 313.962 760.633 313.822 760.96C313.682 761.287 313.565 761.567 313.472 761.8ZM342.704 751.72C343.731 751.72 344.711 751.697 345.644 751.65C346.578 751.603 347.324 751.533 347.884 751.44V743.53C347.464 743.437 346.834 743.343 345.994 743.25C345.154 743.157 344.384 743.11 343.684 743.11C342.704 743.11 341.771 743.18 340.884 743.32C340.044 743.413 339.298 743.623 338.644 743.95C337.991 744.277 337.478 744.72 337.104 745.28C336.731 745.84 336.544 746.54 336.544 747.38C336.544 749.013 337.081 750.157 338.154 750.81C339.274 751.417 340.791 751.72 342.704 751.72ZM341.864 721.2C344.944 721.2 347.511 721.55 349.564 722.25C351.618 722.95 353.251 723.953 354.464 725.26C355.724 726.567 356.611 728.153 357.124 730.02C357.638 731.887 357.894 733.963 357.894 736.25V757.95C356.401 758.277 354.324 758.65 351.664 759.07C349.004 759.537 345.784 759.77 342.004 759.77C339.624 759.77 337.454 759.56 335.494 759.14C333.581 758.72 331.924 758.043 330.524 757.11C329.124 756.13 328.051 754.87 327.304 753.33C326.558 751.79 326.184 749.9 326.184 747.66C326.184 745.513 326.604 743.693 327.444 742.2C328.331 740.707 329.498 739.517 330.944 738.63C332.391 737.743 334.048 737.113 335.914 736.74C337.781 736.32 339.718 736.11 341.724 736.11C343.078 736.11 344.268 736.18 345.294 736.32C346.368 736.413 347.231 736.553 347.884 736.74V735.76C347.884 733.987 347.348 732.563 346.274 731.49C345.201 730.417 343.334 729.88 340.674 729.88C338.901 729.88 337.151 730.02 335.424 730.3C333.698 730.533 332.204 730.883 330.944 731.35L329.614 722.95C330.221 722.763 330.968 722.577 331.854 722.39C332.788 722.157 333.791 721.97 334.864 721.83C335.938 721.643 337.058 721.503 338.224 721.41C339.438 721.27 340.651 721.2 341.864 721.2ZM355.584 709.37C355.304 710.07 354.908 710.84 354.394 711.68C353.928 712.52 353.344 713.313 352.644 714.06C351.944 714.76 351.151 715.343 350.264 715.81C349.378 716.277 348.398 716.51 347.324 716.51C346.484 716.51 345.691 716.393 344.944 716.16C344.244 715.88 343.544 715.6 342.844 715.32C342.144 714.993 341.444 714.713 340.744 714.48C340.044 714.2 339.321 714.06 338.574 714.06C337.641 714.06 336.871 714.363 336.264 714.97C335.658 715.577 335.168 716.277 334.794 717.07L329.684 713.71C329.964 713.01 330.338 712.24 330.804 711.4C331.318 710.56 331.924 709.79 332.624 709.09C333.324 708.343 334.118 707.737 335.004 707.27C335.891 706.803 336.871 706.57 337.944 706.57C338.784 706.57 339.554 706.71 340.254 706.99C341.001 707.223 341.724 707.503 342.424 707.83C343.124 708.11 343.801 708.39 344.454 708.67C345.154 708.903 345.901 709.02 346.694 709.02C347.628 709.02 348.398 708.717 349.004 708.11C349.611 707.503 350.101 706.803 350.474 706.01L355.584 709.37ZM401.766 740.52C401.766 743.413 401.346 746.073 400.506 748.5C399.666 750.88 398.452 752.933 396.866 754.66C395.279 756.34 393.366 757.647 391.126 758.58C388.932 759.513 386.459 759.98 383.706 759.98C380.999 759.98 378.526 759.513 376.286 758.58C374.092 757.647 372.202 756.34 370.616 754.66C369.029 752.933 367.792 750.88 366.906 748.5C366.019 746.073 365.576 743.413 365.576 740.52C365.576 737.627 366.019 734.99 366.906 732.61C367.839 730.23 369.099 728.2 370.686 726.52C372.319 724.84 374.232 723.533 376.426 722.6C378.666 721.667 381.092 721.2 383.706 721.2C386.366 721.2 388.792 721.667 390.986 722.6C393.226 723.533 395.139 724.84 396.726 726.52C398.312 728.2 399.549 730.23 400.436 732.61C401.322 734.99 401.766 737.627 401.766 740.52ZM391.126 740.52C391.126 737.3 390.472 734.78 389.166 732.96C387.906 731.093 386.086 730.16 383.706 730.16C381.326 730.16 379.482 731.093 378.176 732.96C376.869 734.78 376.216 737.3 376.216 740.52C376.216 743.74 376.869 746.307 378.176 748.22C379.482 750.087 381.326 751.02 383.706 751.02C386.086 751.02 387.906 750.087 389.166 748.22C390.472 746.307 391.126 743.74 391.126 740.52Z" fill="#FFA24B"/>
</g>
<defs>
<clipPath id="clip0_104_364">
<rect width="1300" height="976" fill="white"/>
</clipPath>
</defs>
</svg>
