<svg width="1300" height="976" viewBox="0 0 1300 976" fill="none" xmlns="http://www.w3.org/2000/svg">
<g clip-path="url(#clip0_104_333)">
<path d="M150.34 495.52C150.34 498.413 149.92 501.073 149.08 503.5C148.24 505.88 147.027 507.933 145.44 509.66C143.853 511.34 141.94 512.647 139.7 513.58C137.507 514.513 135.033 514.98 132.28 514.98C129.573 514.98 127.1 514.513 124.86 513.58C122.667 512.647 120.777 511.34 119.19 509.66C117.603 507.933 116.367 505.88 115.48 503.5C114.593 501.073 114.15 498.413 114.15 495.52C114.15 492.627 114.593 489.99 115.48 487.61C116.413 485.23 117.673 483.2 119.26 481.52C120.893 479.84 122.807 478.533 125 477.6C127.24 476.667 129.667 476.2 132.28 476.2C134.94 476.2 137.367 476.667 139.56 477.6C141.8 478.533 143.713 479.84 145.3 481.52C146.887 483.2 148.123 485.23 149.01 487.61C149.897 489.99 150.34 492.627 150.34 495.52ZM139.7 495.52C139.7 492.3 139.047 489.78 137.74 487.96C136.48 486.093 134.66 485.16 132.28 485.16C129.9 485.16 128.057 486.093 126.75 487.96C125.443 489.78 124.79 492.3 124.79 495.52C124.79 498.74 125.443 501.307 126.75 503.22C128.057 505.087 129.9 506.02 132.28 506.02C134.66 506.02 136.48 505.087 137.74 503.22C139.047 501.307 139.7 498.74 139.7 495.52ZM189.85 512.74C188.076 513.253 185.79 513.72 182.99 514.14C180.19 514.607 177.25 514.84 174.17 514.84C171.043 514.84 168.43 514.42 166.33 513.58C164.276 512.74 162.643 511.573 161.43 510.08C160.216 508.54 159.353 506.72 158.84 504.62C158.326 502.52 158.07 500.21 158.07 497.69V477.18H168.5V496.43C168.5 499.79 168.943 502.217 169.83 503.71C170.716 505.203 172.373 505.95 174.8 505.95C175.546 505.95 176.34 505.927 177.18 505.88C178.02 505.787 178.766 505.693 179.42 505.6V477.18H189.85V512.74ZM214.707 495.87C214.707 492.603 215.197 489.757 216.177 487.33C217.203 484.857 218.533 482.803 220.167 481.17C221.8 479.537 223.667 478.3 225.767 477.46C227.913 476.62 230.107 476.2 232.347 476.2C237.573 476.2 241.703 477.81 244.737 481.03C247.77 484.203 249.287 488.893 249.287 495.1C249.287 495.707 249.263 496.383 249.217 497.13C249.17 497.83 249.123 498.46 249.077 499.02H225.417C225.65 501.167 226.653 502.87 228.427 504.13C230.2 505.39 232.58 506.02 235.567 506.02C237.48 506.02 239.347 505.857 241.167 505.53C243.033 505.157 244.55 504.713 245.717 504.2L247.117 512.67C246.557 512.95 245.81 513.23 244.877 513.51C243.943 513.79 242.893 514.023 241.727 514.21C240.607 514.443 239.393 514.63 238.087 514.77C236.78 514.91 235.473 514.98 234.167 514.98C230.853 514.98 227.96 514.49 225.487 513.51C223.06 512.53 221.03 511.2 219.397 509.52C217.81 507.793 216.62 505.763 215.827 503.43C215.08 501.097 214.707 498.577 214.707 495.87ZM239.207 491.88C239.16 490.993 238.997 490.13 238.717 489.29C238.483 488.45 238.087 487.703 237.527 487.05C237.013 486.397 236.337 485.86 235.497 485.44C234.703 485.02 233.7 484.81 232.487 484.81C231.32 484.81 230.317 485.02 229.477 485.44C228.637 485.813 227.937 486.327 227.377 486.98C226.817 487.633 226.373 488.403 226.047 489.29C225.767 490.13 225.557 490.993 225.417 491.88H239.207ZM267.906 506.51C269.819 506.51 271.172 506.323 271.966 505.95C272.759 505.577 273.156 504.853 273.156 503.78C273.156 502.94 272.642 502.217 271.616 501.61C270.589 500.957 269.026 500.233 266.926 499.44C265.292 498.833 263.799 498.203 262.446 497.55C261.139 496.897 260.019 496.127 259.086 495.24C258.152 494.307 257.429 493.21 256.916 491.95C256.402 490.69 256.146 489.173 256.146 487.4C256.146 483.947 257.429 481.217 259.996 479.21C262.562 477.203 266.086 476.2 270.566 476.2C272.806 476.2 274.952 476.41 277.006 476.83C279.059 477.203 280.692 477.623 281.906 478.09L280.086 486.21C278.872 485.79 277.542 485.417 276.096 485.09C274.696 484.763 273.109 484.6 271.336 484.6C268.069 484.6 266.436 485.51 266.436 487.33C266.436 487.75 266.506 488.123 266.646 488.45C266.786 488.777 267.066 489.103 267.486 489.43C267.906 489.71 268.466 490.037 269.166 490.41C269.912 490.737 270.846 491.11 271.966 491.53C274.252 492.37 276.142 493.21 277.636 494.05C279.129 494.843 280.296 495.73 281.136 496.71C282.022 497.643 282.629 498.693 282.956 499.86C283.329 501.027 283.516 502.38 283.516 503.92C283.516 507.56 282.139 510.313 279.386 512.18C276.679 514.047 272.829 514.98 267.836 514.98C264.569 514.98 261.839 514.7 259.646 514.14C257.499 513.58 256.006 513.113 255.166 512.74L256.916 504.27C258.689 504.97 260.509 505.53 262.376 505.95C264.242 506.323 266.086 506.51 267.906 506.51ZM301.88 506.51C303.793 506.51 305.147 506.323 305.94 505.95C306.733 505.577 307.13 504.853 307.13 503.78C307.13 502.94 306.617 502.217 305.59 501.61C304.563 500.957 303 500.233 300.9 499.44C299.267 498.833 297.773 498.203 296.42 497.55C295.113 496.897 293.993 496.127 293.06 495.24C292.127 494.307 291.403 493.21 290.89 491.95C290.377 490.69 290.12 489.173 290.12 487.4C290.12 483.947 291.403 481.217 293.97 479.21C296.537 477.203 300.06 476.2 304.54 476.2C306.78 476.2 308.927 476.41 310.98 476.83C313.033 477.203 314.667 477.623 315.88 478.09L314.06 486.21C312.847 485.79 311.517 485.417 310.07 485.09C308.67 484.763 307.083 484.6 305.31 484.6C302.043 484.6 300.41 485.51 300.41 487.33C300.41 487.75 300.48 488.123 300.62 488.45C300.76 488.777 301.04 489.103 301.46 489.43C301.88 489.71 302.44 490.037 303.14 490.41C303.887 490.737 304.82 491.11 305.94 491.53C308.227 492.37 310.117 493.21 311.61 494.05C313.103 494.843 314.27 495.73 315.11 496.71C315.997 497.643 316.603 498.693 316.93 499.86C317.303 501.027 317.49 502.38 317.49 503.92C317.49 507.56 316.113 510.313 313.36 512.18C310.653 514.047 306.803 514.98 301.81 514.98C298.543 514.98 295.813 514.7 293.62 514.14C291.473 513.58 289.98 513.113 289.14 512.74L290.89 504.27C292.663 504.97 294.483 505.53 296.35 505.95C298.217 506.323 300.06 506.51 301.88 506.51ZM323.535 495.87C323.535 492.603 324.025 489.757 325.005 487.33C326.031 484.857 327.361 482.803 328.995 481.17C330.628 479.537 332.495 478.3 334.595 477.46C336.741 476.62 338.935 476.2 341.175 476.2C346.401 476.2 350.531 477.81 353.565 481.03C356.598 484.203 358.115 488.893 358.115 495.1C358.115 495.707 358.091 496.383 358.045 497.13C357.998 497.83 357.951 498.46 357.905 499.02H334.245C334.478 501.167 335.481 502.87 337.255 504.13C339.028 505.39 341.408 506.02 344.395 506.02C346.308 506.02 348.175 505.857 349.995 505.53C351.861 505.157 353.378 504.713 354.545 504.2L355.945 512.67C355.385 512.95 354.638 513.23 353.705 513.51C352.771 513.79 351.721 514.023 350.555 514.21C349.435 514.443 348.221 514.63 346.915 514.77C345.608 514.91 344.301 514.98 342.995 514.98C339.681 514.98 336.788 514.49 334.315 513.51C331.888 512.53 329.858 511.2 328.225 509.52C326.638 507.793 325.448 505.763 324.655 503.43C323.908 501.097 323.535 498.577 323.535 495.87ZM348.035 491.88C347.988 490.993 347.825 490.13 347.545 489.29C347.311 488.45 346.915 487.703 346.355 487.05C345.841 486.397 345.165 485.86 344.325 485.44C343.531 485.02 342.528 484.81 341.315 484.81C340.148 484.81 339.145 485.02 338.305 485.44C337.465 485.813 336.765 486.327 336.205 486.98C335.645 487.633 335.201 488.403 334.875 489.29C334.595 490.13 334.385 490.993 334.245 491.88H348.035ZM417.42 495.52C417.42 498.413 417 501.073 416.16 503.5C415.32 505.88 414.107 507.933 412.52 509.66C410.933 511.34 409.02 512.647 406.78 513.58C404.587 514.513 402.113 514.98 399.36 514.98C396.653 514.98 394.18 514.513 391.94 513.58C389.747 512.647 387.857 511.34 386.27 509.66C384.683 507.933 383.447 505.88 382.56 503.5C381.673 501.073 381.23 498.413 381.23 495.52C381.23 492.627 381.673 489.99 382.56 487.61C383.493 485.23 384.753 483.2 386.34 481.52C387.973 479.84 389.887 478.533 392.08 477.6C394.32 476.667 396.747 476.2 399.36 476.2C402.02 476.2 404.447 476.667 406.64 477.6C408.88 478.533 410.793 479.84 412.38 481.52C413.967 483.2 415.203 485.23 416.09 487.61C416.977 489.99 417.42 492.627 417.42 495.52ZM406.78 495.52C406.78 492.3 406.127 489.78 404.82 487.96C403.56 486.093 401.74 485.16 399.36 485.16C396.98 485.16 395.137 486.093 393.83 487.96C392.523 489.78 391.87 492.3 391.87 495.52C391.87 498.74 392.523 501.307 393.83 503.22C395.137 505.087 396.98 506.02 399.36 506.02C401.74 506.02 403.56 505.087 404.82 503.22C406.127 501.307 406.78 498.74 406.78 495.52ZM456.93 512.74C455.156 513.253 452.87 513.72 450.07 514.14C447.27 514.607 444.33 514.84 441.25 514.84C438.123 514.84 435.51 514.42 433.41 513.58C431.356 512.74 429.723 511.573 428.51 510.08C427.296 508.54 426.433 506.72 425.92 504.62C425.406 502.52 425.15 500.21 425.15 497.69V477.18H435.58V496.43C435.58 499.79 436.023 502.217 436.91 503.71C437.796 505.203 439.453 505.95 441.88 505.95C442.626 505.95 443.42 505.927 444.26 505.88C445.1 505.787 445.846 505.693 446.5 505.6V477.18H456.93V512.74ZM466.37 468.01L476.8 466.33V477.18H489.33V485.86H476.8V498.81C476.8 501.003 477.174 502.753 477.92 504.06C478.714 505.367 480.277 506.02 482.61 506.02C483.73 506.02 484.874 505.927 486.04 505.74C487.254 505.507 488.35 505.203 489.33 504.83L490.8 512.95C489.54 513.463 488.14 513.907 486.6 514.28C485.06 514.653 483.17 514.84 480.93 514.84C478.084 514.84 475.727 514.467 473.86 513.72C471.994 512.927 470.5 511.853 469.38 510.5C468.26 509.1 467.467 507.42 467 505.46C466.58 503.5 466.37 501.33 466.37 498.95V468.01ZM520.014 486.42C519.08 486.187 517.984 485.953 516.724 485.72C515.464 485.44 514.11 485.3 512.664 485.3C512.01 485.3 511.217 485.37 510.284 485.51C509.397 485.603 508.72 485.72 508.254 485.86V514H497.824V479.14C499.69 478.487 501.884 477.88 504.404 477.32C506.97 476.713 509.817 476.41 512.944 476.41C513.504 476.41 514.18 476.457 514.974 476.55C515.767 476.597 516.56 476.69 517.354 476.83C518.147 476.923 518.94 477.063 519.734 477.25C520.527 477.39 521.204 477.577 521.764 477.81L520.014 486.42ZM561.111 495.52C561.111 498.413 560.691 501.073 559.851 503.5C559.011 505.88 557.798 507.933 556.211 509.66C554.625 511.34 552.711 512.647 550.471 513.58C548.278 514.513 545.805 514.98 543.051 514.98C540.345 514.98 537.871 514.513 535.631 513.58C533.438 512.647 531.548 511.34 529.961 509.66C528.375 507.933 527.138 505.88 526.251 503.5C525.365 501.073 524.921 498.413 524.921 495.52C524.921 492.627 525.365 489.99 526.251 487.61C527.185 485.23 528.445 483.2 530.031 481.52C531.665 479.84 533.578 478.533 535.771 477.6C538.011 476.667 540.438 476.2 543.051 476.2C545.711 476.2 548.138 476.667 550.331 477.6C552.571 478.533 554.485 479.84 556.071 481.52C557.658 483.2 558.895 485.23 559.781 487.61C560.668 489.99 561.111 492.627 561.111 495.52ZM550.471 495.52C550.471 492.3 549.818 489.78 548.511 487.96C547.251 486.093 545.431 485.16 543.051 485.16C540.671 485.16 538.828 486.093 537.521 487.96C536.215 489.78 535.561 492.3 535.561 495.52C535.561 498.74 536.215 501.307 537.521 503.22C538.828 505.087 540.671 506.02 543.051 506.02C545.431 506.02 547.251 505.087 548.511 503.22C549.818 501.307 550.471 498.74 550.471 495.52ZM600.077 506.72C601.104 506.72 602.084 506.697 603.017 506.65C603.951 506.603 604.697 506.533 605.257 506.44V498.53C604.837 498.437 604.207 498.343 603.367 498.25C602.527 498.157 601.757 498.11 601.057 498.11C600.077 498.11 599.144 498.18 598.257 498.32C597.417 498.413 596.671 498.623 596.017 498.95C595.364 499.277 594.851 499.72 594.477 500.28C594.104 500.84 593.917 501.54 593.917 502.38C593.917 504.013 594.454 505.157 595.527 505.81C596.647 506.417 598.164 506.72 600.077 506.72ZM599.237 476.2C602.317 476.2 604.884 476.55 606.937 477.25C608.991 477.95 610.624 478.953 611.837 480.26C613.097 481.567 613.984 483.153 614.497 485.02C615.011 486.887 615.267 488.963 615.267 491.25V512.95C613.774 513.277 611.697 513.65 609.037 514.07C606.377 514.537 603.157 514.77 599.377 514.77C596.997 514.77 594.827 514.56 592.867 514.14C590.954 513.72 589.297 513.043 587.897 512.11C586.497 511.13 585.424 509.87 584.677 508.33C583.931 506.79 583.557 504.9 583.557 502.66C583.557 500.513 583.977 498.693 584.817 497.2C585.704 495.707 586.871 494.517 588.317 493.63C589.764 492.743 591.421 492.113 593.287 491.74C595.154 491.32 597.091 491.11 599.097 491.11C600.451 491.11 601.641 491.18 602.667 491.32C603.741 491.413 604.604 491.553 605.257 491.74V490.76C605.257 488.987 604.721 487.563 603.647 486.49C602.574 485.417 600.707 484.88 598.047 484.88C596.274 484.88 594.524 485.02 592.797 485.3C591.071 485.533 589.577 485.883 588.317 486.35L586.987 477.95C587.594 477.763 588.341 477.577 589.227 477.39C590.161 477.157 591.164 476.97 592.237 476.83C593.311 476.643 594.431 476.503 595.597 476.41C596.811 476.27 598.024 476.2 599.237 476.2ZM633.589 495.87C633.589 502.543 636.062 505.88 641.009 505.88C642.082 505.88 643.132 505.74 644.159 505.46C645.232 505.18 646.095 504.83 646.749 504.41V485.58C646.235 485.487 645.582 485.417 644.789 485.37C643.995 485.277 643.132 485.23 642.199 485.23C639.352 485.23 637.205 486.21 635.759 488.17C634.312 490.083 633.589 492.65 633.589 495.87ZM622.949 495.59C622.949 492.743 623.369 490.153 624.209 487.82C625.095 485.44 626.355 483.41 627.989 481.73C629.622 480.003 631.629 478.673 634.009 477.74C636.389 476.807 639.095 476.34 642.129 476.34C643.389 476.34 644.695 476.41 646.049 476.55C647.449 476.643 648.802 476.783 650.109 476.97C651.462 477.157 652.745 477.39 653.959 477.67C655.172 477.903 656.245 478.16 657.179 478.44V526.95H646.749V513.09C645.582 513.603 644.369 514 643.109 514.28C641.849 514.56 640.495 514.7 639.049 514.7C633.822 514.7 629.832 512.997 627.079 509.59C624.325 506.137 622.949 501.47 622.949 495.59ZM698.375 512.74C696.602 513.253 694.315 513.72 691.515 514.14C688.715 514.607 685.775 514.84 682.695 514.84C679.568 514.84 676.955 514.42 674.855 513.58C672.802 512.74 671.168 511.573 669.955 510.08C668.742 508.54 667.878 506.72 667.365 504.62C666.852 502.52 666.595 500.21 666.595 497.69V477.18H677.025V496.43C677.025 499.79 677.468 502.217 678.355 503.71C679.242 505.203 680.898 505.95 683.325 505.95C684.072 505.95 684.865 505.927 685.705 505.88C686.545 505.787 687.292 505.693 687.945 505.6V477.18H698.375V512.74ZM718.596 514H708.166V477.18H718.596V514ZM719.576 466.54C719.576 468.453 718.946 469.97 717.686 471.09C716.472 472.163 715.026 472.7 713.346 472.7C711.666 472.7 710.196 472.163 708.936 471.09C707.722 469.97 707.116 468.453 707.116 466.54C707.116 464.627 707.722 463.133 708.936 462.06C710.196 460.94 711.666 460.38 713.346 460.38C715.026 460.38 716.472 460.94 717.686 462.06C718.946 463.133 719.576 464.627 719.576 466.54ZM734.972 473.26C733.292 473.26 731.706 473.47 730.212 473.89C728.719 474.31 727.062 474.987 725.242 475.92L722.302 468.01C724.122 466.843 726.269 465.957 728.742 465.35C731.216 464.697 733.642 464.37 736.022 464.37C739.009 464.37 741.459 464.767 743.372 465.56C745.332 466.353 746.872 467.357 747.992 468.57C749.112 469.783 749.882 471.113 750.302 472.56C750.769 474.007 751.002 475.383 751.002 476.69C751.002 477.997 750.792 479.21 750.372 480.33C749.999 481.403 749.509 482.407 748.902 483.34C748.296 484.273 747.596 485.16 746.802 486C746.009 486.84 745.239 487.633 744.492 488.38C743.932 488.94 743.349 489.547 742.742 490.2C742.136 490.807 741.576 491.46 741.062 492.16C740.596 492.86 740.199 493.607 739.872 494.4C739.546 495.147 739.382 495.917 739.382 496.71C739.382 496.897 739.382 497.177 739.382 497.55C739.382 497.923 739.406 498.25 739.452 498.53H730.212C730.119 498.063 730.049 497.55 730.002 496.99C730.002 496.383 730.002 495.87 730.002 495.45C730.002 494.143 730.166 492.977 730.492 491.95C730.819 490.877 731.239 489.897 731.752 489.01C732.312 488.077 732.942 487.213 733.642 486.42C734.342 485.627 735.066 484.857 735.812 484.11C736.886 483.037 737.866 481.987 738.752 480.96C739.639 479.887 740.082 478.673 740.082 477.32C740.082 476.2 739.639 475.243 738.752 474.45C737.912 473.657 736.652 473.26 734.972 473.26ZM741.482 508.47C741.482 510.523 740.806 512.11 739.452 513.23C738.146 514.35 736.652 514.91 734.972 514.91C733.292 514.91 731.776 514.35 730.422 513.23C729.116 512.11 728.462 510.523 728.462 508.47C728.462 506.417 729.116 504.83 730.422 503.71C731.776 502.59 733.292 502.03 734.972 502.03C736.652 502.03 738.146 502.59 739.452 503.71C740.806 504.83 741.482 506.417 741.482 508.47Z" fill="white"/>
<rect x="941" y="326" width="204" height="337" rx="25" stroke="white" stroke-width="10"/>
<rect x="958.5" y="360.5" width="168" height="227" stroke="white" stroke-width="5"/>
<circle cx="1043" cy="623" r="22" fill="#D9D9D9"/>
</g>
<defs>
<clipPath id="clip0_104_333">
<rect width="1300" height="976" fill="white"/>
</clipPath>
</defs>
</svg>
