<svg width="1300" height="976" viewBox="0 0 1300 976" fill="none" xmlns="http://www.w3.org/2000/svg">
<g clip-path="url(#clip0_104_278)">
<path d="M126.12 508.47C126.12 510.57 125.443 512.18 124.09 513.3C122.783 514.373 121.29 514.91 119.61 514.91C117.93 514.91 116.413 514.373 115.06 513.3C113.753 512.18 113.1 510.57 113.1 508.47C113.1 506.37 113.753 504.783 115.06 503.71C116.413 502.59 117.93 502.03 119.61 502.03C121.29 502.03 122.783 502.59 124.09 503.71C125.443 504.783 126.12 506.37 126.12 508.47ZM143.347 508.47C143.347 510.57 142.67 512.18 141.317 513.3C140.01 514.373 138.517 514.91 136.837 514.91C135.157 514.91 133.64 514.373 132.287 513.3C130.98 512.18 130.327 510.57 130.327 508.47C130.327 506.37 130.98 504.783 132.287 503.71C133.64 502.59 135.157 502.03 136.837 502.03C138.517 502.03 140.01 502.59 141.317 503.71C142.67 504.783 143.347 506.37 143.347 508.47ZM160.573 508.47C160.573 510.57 159.896 512.18 158.543 513.3C157.236 514.373 155.743 514.91 154.063 514.91C152.383 514.91 150.866 514.373 149.513 513.3C148.206 512.18 147.553 510.57 147.553 508.47C147.553 506.37 148.206 504.783 149.513 503.71C150.866 502.59 152.383 502.03 154.063 502.03C155.743 502.03 157.236 502.59 158.543 503.71C159.896 504.783 160.573 506.37 160.573 508.47Z" fill="#FFA24B"/>
</g>
<defs>
<clipPath id="clip0_104_278">
<rect width="1300" height="976" fill="white"/>
</clipPath>
</defs>
</svg>
