<svg width="1300" height="976" viewBox="0 0 1300 976" fill="none" xmlns="http://www.w3.org/2000/svg">
<g clip-path="url(#clip0_104_272)">
<path d="M130.6 514.7C127.567 514.653 125.093 514.327 123.18 513.72C121.313 513.113 119.82 512.273 118.7 511.2C117.627 510.08 116.88 508.75 116.46 507.21C116.087 505.623 115.9 503.85 115.9 501.89V461.36L126.33 459.68V499.79C126.33 500.723 126.4 501.563 126.54 502.31C126.68 503.057 126.937 503.687 127.31 504.2C127.73 504.713 128.313 505.133 129.06 505.46C129.807 505.787 130.81 505.997 132.07 506.09L130.6 514.7ZM172.488 495.52C172.488 498.413 172.068 501.073 171.228 503.5C170.388 505.88 169.175 507.933 167.588 509.66C166.002 511.34 164.088 512.647 161.848 513.58C159.655 514.513 157.182 514.98 154.428 514.98C151.722 514.98 149.248 514.513 147.008 513.58C144.815 512.647 142.925 511.34 141.338 509.66C139.752 507.933 138.515 505.88 137.628 503.5C136.742 501.073 136.298 498.413 136.298 495.52C136.298 492.627 136.742 489.99 137.628 487.61C138.562 485.23 139.822 483.2 141.408 481.52C143.042 479.84 144.955 478.533 147.148 477.6C149.388 476.667 151.815 476.2 154.428 476.2C157.088 476.2 159.515 476.667 161.708 477.6C163.948 478.533 165.862 479.84 167.448 481.52C169.035 483.2 170.272 485.23 171.158 487.61C172.045 489.99 172.488 492.627 172.488 495.52ZM161.848 495.52C161.848 492.3 161.195 489.78 159.888 487.96C158.628 486.093 156.808 485.16 154.428 485.16C152.048 485.16 150.205 486.093 148.898 487.96C147.592 489.78 146.938 492.3 146.938 495.52C146.938 498.74 147.592 501.307 148.898 503.22C150.205 505.087 152.048 506.02 154.428 506.02C156.808 506.02 158.628 505.087 159.888 503.22C161.195 501.307 161.848 498.74 161.848 495.52ZM215.008 495.52C215.008 498.413 214.588 501.073 213.748 503.5C212.908 505.88 211.695 507.933 210.108 509.66C208.521 511.34 206.608 512.647 204.368 513.58C202.175 514.513 199.701 514.98 196.948 514.98C194.241 514.98 191.768 514.513 189.528 513.58C187.335 512.647 185.445 511.34 183.858 509.66C182.271 507.933 181.035 505.88 180.148 503.5C179.261 501.073 178.818 498.413 178.818 495.52C178.818 492.627 179.261 489.99 180.148 487.61C181.081 485.23 182.341 483.2 183.928 481.52C185.561 479.84 187.475 478.533 189.668 477.6C191.908 476.667 194.335 476.2 196.948 476.2C199.608 476.2 202.035 476.667 204.228 477.6C206.468 478.533 208.381 479.84 209.968 481.52C211.555 483.2 212.791 485.23 213.678 487.61C214.565 489.99 215.008 492.627 215.008 495.52ZM204.368 495.52C204.368 492.3 203.715 489.78 202.408 487.96C201.148 486.093 199.328 485.16 196.948 485.16C194.568 485.16 192.725 486.093 191.418 487.96C190.111 489.78 189.458 492.3 189.458 495.52C189.458 498.74 190.111 501.307 191.418 503.22C192.725 505.087 194.568 506.02 196.948 506.02C199.328 506.02 201.148 505.087 202.408 503.22C203.715 501.307 204.368 498.74 204.368 495.52ZM233.518 490.48C234.544 489.36 235.594 488.193 236.667 486.98C237.788 485.767 238.861 484.577 239.888 483.41C240.914 482.197 241.871 481.053 242.758 479.98C243.691 478.907 244.484 477.973 245.138 477.18H257.528C255.054 480.027 252.628 482.757 250.248 485.37C247.914 487.937 245.348 490.597 242.548 493.35C243.948 494.61 245.394 496.127 246.888 497.9C248.381 499.627 249.828 501.423 251.228 503.29C252.628 505.157 253.911 507.023 255.078 508.89C256.244 510.757 257.224 512.46 258.018 514H246.048C245.301 512.787 244.438 511.457 243.458 510.01C242.524 508.517 241.521 507.047 240.448 505.6C239.374 504.107 238.231 502.683 237.018 501.33C235.851 499.977 234.684 498.833 233.518 497.9V514H223.088V461.36L233.518 459.68V490.48ZM294.511 506.72C295.538 506.72 296.518 506.697 297.451 506.65C298.384 506.603 299.131 506.533 299.691 506.44V498.53C299.271 498.437 298.641 498.343 297.801 498.25C296.961 498.157 296.191 498.11 295.491 498.11C294.511 498.11 293.578 498.18 292.691 498.32C291.851 498.413 291.104 498.623 290.451 498.95C289.798 499.277 289.284 499.72 288.911 500.28C288.538 500.84 288.351 501.54 288.351 502.38C288.351 504.013 288.888 505.157 289.961 505.81C291.081 506.417 292.598 506.72 294.511 506.72ZM293.671 476.2C296.751 476.2 299.318 476.55 301.371 477.25C303.424 477.95 305.058 478.953 306.271 480.26C307.531 481.567 308.418 483.153 308.931 485.02C309.444 486.887 309.701 488.963 309.701 491.25V512.95C308.208 513.277 306.131 513.65 303.471 514.07C300.811 514.537 297.591 514.77 293.811 514.77C291.431 514.77 289.261 514.56 287.301 514.14C285.388 513.72 283.731 513.043 282.331 512.11C280.931 511.13 279.858 509.87 279.111 508.33C278.364 506.79 277.991 504.9 277.991 502.66C277.991 500.513 278.411 498.693 279.251 497.2C280.138 495.707 281.304 494.517 282.751 493.63C284.198 492.743 285.854 492.113 287.721 491.74C289.588 491.32 291.524 491.11 293.531 491.11C294.884 491.11 296.074 491.18 297.101 491.32C298.174 491.413 299.038 491.553 299.691 491.74V490.76C299.691 488.987 299.154 487.563 298.081 486.49C297.008 485.417 295.141 484.88 292.481 484.88C290.708 484.88 288.958 485.02 287.231 485.3C285.504 485.533 284.011 485.883 282.751 486.35L281.421 477.95C282.028 477.763 282.774 477.577 283.661 477.39C284.594 477.157 285.598 476.97 286.671 476.83C287.744 476.643 288.864 476.503 290.031 476.41C291.244 476.27 292.458 476.2 293.671 476.2ZM319.132 478.44C320.906 477.927 323.192 477.46 325.992 477.04C328.792 476.573 331.732 476.34 334.812 476.34C337.939 476.34 340.529 476.76 342.582 477.6C344.682 478.393 346.339 479.537 347.552 481.03C348.766 482.523 349.629 484.297 350.142 486.35C350.656 488.403 350.912 490.69 350.912 493.21V514H340.482V494.47C340.482 491.11 340.039 488.73 339.152 487.33C338.266 485.93 336.609 485.23 334.182 485.23C333.436 485.23 332.642 485.277 331.802 485.37C330.962 485.417 330.216 485.487 329.562 485.58V514H319.132V478.44ZM369.243 495.31C369.243 498.53 369.966 501.12 371.413 503.08C372.86 505.04 375.006 506.02 377.853 506.02C378.786 506.02 379.65 505.997 380.443 505.95C381.236 505.857 381.89 505.763 382.403 505.67V486.7C381.75 486.28 380.886 485.93 379.813 485.65C378.786 485.37 377.736 485.23 376.663 485.23C371.716 485.23 369.243 488.59 369.243 495.31ZM392.833 512.81C391.9 513.09 390.826 513.37 389.613 513.65C388.4 513.883 387.116 514.093 385.763 514.28C384.456 514.467 383.103 514.607 381.703 514.7C380.35 514.84 379.043 514.91 377.783 514.91C374.75 514.91 372.043 514.467 369.663 513.58C367.283 512.693 365.276 511.433 363.643 509.8C362.01 508.12 360.75 506.113 359.863 503.78C359.023 501.4 358.603 498.74 358.603 495.8C358.603 492.813 358.976 490.13 359.723 487.75C360.47 485.323 361.543 483.27 362.943 481.59C364.343 479.91 366.046 478.627 368.053 477.74C370.106 476.853 372.44 476.41 375.053 476.41C376.5 476.41 377.783 476.55 378.903 476.83C380.07 477.11 381.236 477.507 382.403 478.02V461.36L392.833 459.68V512.81ZM435.376 459.68C437.336 459.68 439.132 459.89 440.766 460.31C442.399 460.683 443.659 461.057 444.546 461.43L442.516 469.76C441.582 469.34 440.556 469.037 439.436 468.85C438.362 468.617 437.359 468.5 436.426 468.5C435.166 468.5 434.092 468.687 433.206 469.06C432.366 469.387 431.689 469.853 431.176 470.46C430.709 471.067 430.359 471.79 430.126 472.63C429.939 473.47 429.846 474.38 429.846 475.36V477.18H442.726V485.86H429.846V514H419.416V475.22C419.416 470.46 420.746 466.68 423.406 463.88C426.112 461.08 430.102 459.68 435.376 459.68ZM446.65 495.87C446.65 492.603 447.14 489.757 448.12 487.33C449.147 484.857 450.477 482.803 452.11 481.17C453.743 479.537 455.61 478.3 457.71 477.46C459.857 476.62 462.05 476.2 464.29 476.2C469.517 476.2 473.647 477.81 476.68 481.03C479.713 484.203 481.23 488.893 481.23 495.1C481.23 495.707 481.207 496.383 481.16 497.13C481.113 497.83 481.067 498.46 481.02 499.02H457.36C457.593 501.167 458.597 502.87 460.37 504.13C462.143 505.39 464.523 506.02 467.51 506.02C469.423 506.02 471.29 505.857 473.11 505.53C474.977 505.157 476.493 504.713 477.66 504.2L479.06 512.67C478.5 512.95 477.753 513.23 476.82 513.51C475.887 513.79 474.837 514.023 473.67 514.21C472.55 514.443 471.337 514.63 470.03 514.77C468.723 514.91 467.417 514.98 466.11 514.98C462.797 514.98 459.903 514.49 457.43 513.51C455.003 512.53 452.973 511.2 451.34 509.52C449.753 507.793 448.563 505.763 447.77 503.43C447.023 501.097 446.65 498.577 446.65 495.87ZM471.15 491.88C471.103 490.993 470.94 490.13 470.66 489.29C470.427 488.45 470.03 487.703 469.47 487.05C468.957 486.397 468.28 485.86 467.44 485.44C466.647 485.02 465.643 484.81 464.43 484.81C463.263 484.81 462.26 485.02 461.42 485.44C460.58 485.813 459.88 486.327 459.32 486.98C458.76 487.633 458.317 488.403 457.99 489.29C457.71 490.13 457.5 490.993 457.36 491.88H471.15ZM487.529 495.87C487.529 492.603 488.019 489.757 488.999 487.33C490.026 484.857 491.356 482.803 492.989 481.17C494.622 479.537 496.489 478.3 498.589 477.46C500.736 476.62 502.929 476.2 505.169 476.2C510.396 476.2 514.526 477.81 517.559 481.03C520.592 484.203 522.109 488.893 522.109 495.1C522.109 495.707 522.086 496.383 522.039 497.13C521.992 497.83 521.946 498.46 521.899 499.02H498.239C498.472 501.167 499.476 502.87 501.249 504.13C503.022 505.39 505.402 506.02 508.389 506.02C510.302 506.02 512.169 505.857 513.989 505.53C515.856 505.157 517.372 504.713 518.539 504.2L519.939 512.67C519.379 512.95 518.632 513.23 517.699 513.51C516.766 513.79 515.716 514.023 514.549 514.21C513.429 514.443 512.216 514.63 510.909 514.77C509.602 514.91 508.296 514.98 506.989 514.98C503.676 514.98 500.782 514.49 498.309 513.51C495.882 512.53 493.852 511.2 492.219 509.52C490.632 507.793 489.442 505.763 488.649 503.43C487.902 501.097 487.529 498.577 487.529 495.87ZM512.029 491.88C511.982 490.993 511.819 490.13 511.539 489.29C511.306 488.45 510.909 487.703 510.349 487.05C509.836 486.397 509.159 485.86 508.319 485.44C507.526 485.02 506.522 484.81 505.309 484.81C504.142 484.81 503.139 485.02 502.299 485.44C501.459 485.813 500.759 486.327 500.199 486.98C499.639 487.633 499.196 488.403 498.869 489.29C498.589 490.13 498.379 490.993 498.239 491.88H512.029ZM544.858 514.7C541.824 514.653 539.351 514.327 537.438 513.72C535.571 513.113 534.078 512.273 532.958 511.2C531.884 510.08 531.138 508.75 530.718 507.21C530.344 505.623 530.158 503.85 530.158 501.89V461.36L540.588 459.68V499.79C540.588 500.723 540.658 501.563 540.798 502.31C540.938 503.057 541.194 503.687 541.568 504.2C541.988 504.713 542.571 505.133 543.318 505.46C544.064 505.787 545.068 505.997 546.328 506.09L544.858 514.7Z" fill="#FFA24B"/>
</g>
<defs>
<clipPath id="clip0_104_272">
<rect width="1300" height="976" fill="white"/>
</clipPath>
</defs>
</svg>
