<svg width="1300" height="976" viewBox="0 0 1300 976" fill="none" xmlns="http://www.w3.org/2000/svg">
<g clip-path="url(#clip0_104_260)">
<path d="M147.33 407.74C145.557 408.253 143.27 408.72 140.47 409.14C137.67 409.607 134.73 409.84 131.65 409.84C128.523 409.84 125.91 409.42 123.81 408.58C121.757 407.74 120.123 406.573 118.91 405.08C117.697 403.54 116.833 401.72 116.32 399.62C115.807 397.52 115.55 395.21 115.55 392.69V372.18H125.98V391.43C125.98 394.79 126.423 397.217 127.31 398.71C128.197 400.203 129.853 400.95 132.28 400.95C133.027 400.95 133.82 400.927 134.66 400.88C135.5 400.787 136.247 400.693 136.9 400.6V372.18H147.33V407.74ZM171.751 383.38L179.031 372.18H189.811L177.211 389.89C180.011 393.39 182.554 396.797 184.841 400.11C187.127 403.423 188.947 406.387 190.301 409H179.101C178.727 408.3 178.261 407.437 177.701 406.41C177.141 405.337 176.511 404.24 175.811 403.12C175.111 401.953 174.364 400.81 173.571 399.69C172.824 398.523 172.077 397.473 171.331 396.54C170.631 397.427 169.907 398.407 169.161 399.48C168.461 400.553 167.784 401.65 167.131 402.77C166.477 403.843 165.824 404.917 165.171 405.99C164.564 407.063 164.027 408.067 163.561 409H152.921C153.481 407.833 154.251 406.457 155.231 404.87C156.211 403.283 157.261 401.65 158.381 399.97C159.547 398.243 160.761 396.54 162.021 394.86C163.281 393.133 164.517 391.523 165.731 390.03C163.631 387.09 161.531 384.127 159.431 381.14C157.331 378.107 155.254 375.12 153.201 372.18H164.471L171.751 383.38ZM451.072 390.31C451.072 383.59 448.599 380.23 443.652 380.23C442.579 380.23 441.505 380.37 440.432 380.65C439.405 380.93 438.565 381.28 437.912 381.7V400.67C438.425 400.763 439.079 400.857 439.872 400.95C440.665 400.997 441.529 401.02 442.462 401.02C445.309 401.02 447.455 400.04 448.902 398.08C450.349 396.12 451.072 393.53 451.072 390.31ZM461.712 390.59C461.712 393.53 461.269 396.19 460.382 398.57C459.542 400.95 458.305 402.98 456.672 404.66C455.039 406.34 453.032 407.647 450.652 408.58C448.272 409.467 445.565 409.91 442.532 409.91C441.272 409.91 439.942 409.84 438.542 409.7C437.189 409.607 435.835 409.467 434.482 409.28C433.175 409.093 431.915 408.883 430.702 408.65C429.489 408.37 428.415 408.09 427.482 407.81V356.36L437.912 354.68V373.02C439.079 372.507 440.292 372.11 441.552 371.83C442.812 371.55 444.165 371.41 445.612 371.41C448.225 371.41 450.535 371.877 452.542 372.81C454.549 373.697 456.229 374.98 457.582 376.66C458.935 378.34 459.962 380.37 460.662 382.75C461.362 385.083 461.712 387.697 461.712 390.59ZM501.158 407.74C499.385 408.253 497.098 408.72 494.298 409.14C491.498 409.607 488.558 409.84 485.478 409.84C482.351 409.84 479.738 409.42 477.638 408.58C475.585 407.74 473.951 406.573 472.738 405.08C471.525 403.54 470.661 401.72 470.148 399.62C469.635 397.52 469.378 395.21 469.378 392.69V372.18H479.808V391.43C479.808 394.79 480.251 397.217 481.138 398.71C482.025 400.203 483.681 400.95 486.108 400.95C486.855 400.95 487.648 400.927 488.488 400.88C489.328 400.787 490.075 400.693 490.728 400.6V372.18H501.158V407.74ZM538.599 379.18C537.759 380.113 536.615 381.373 535.169 382.96C533.769 384.547 532.252 386.297 530.619 388.21C528.985 390.123 527.329 392.13 525.649 394.23C524.015 396.33 522.522 398.36 521.169 400.32H538.949V409H508.499V402.84C509.479 401.16 510.645 399.363 511.999 397.45C513.399 395.49 514.845 393.53 516.339 391.57C517.879 389.61 519.395 387.72 520.889 385.9C522.382 384.033 523.759 382.353 525.019 380.86H509.339V372.18H538.599V379.18ZM573.599 379.18C572.759 380.113 571.615 381.373 570.169 382.96C568.769 384.547 567.252 386.297 565.619 388.21C563.985 390.123 562.329 392.13 560.649 394.23C559.015 396.33 557.522 398.36 556.169 400.32H573.949V409H543.499V402.84C544.479 401.16 545.645 399.363 546.999 397.45C548.399 395.49 549.845 393.53 551.339 391.57C552.879 389.61 554.395 387.72 555.889 385.9C557.382 384.033 558.759 382.353 560.019 380.86H544.339V372.18H573.599V379.18ZM604.648 387.86C603.714 391.407 602.711 394.93 601.638 398.43C600.611 401.93 599.514 405.453 598.348 409H590.228C589.388 407.04 588.478 404.707 587.498 402C586.518 399.293 585.491 396.353 584.418 393.18C583.391 389.96 582.318 386.577 581.198 383.03C580.124 379.437 579.074 375.82 578.048 372.18H589.038C589.411 373.86 589.808 375.703 590.228 377.71C590.694 379.67 591.161 381.7 591.628 383.8C592.141 385.9 592.654 388.023 593.168 390.17C593.728 392.27 594.288 394.3 594.848 396.26C595.454 394.207 596.038 392.107 596.598 389.96C597.204 387.813 597.764 385.713 598.278 383.66C598.838 381.56 599.351 379.553 599.818 377.64C600.331 375.68 600.774 373.86 601.148 372.18H608.708C609.081 373.86 609.501 375.68 609.968 377.64C610.434 379.553 610.924 381.56 611.438 383.66C611.951 385.713 612.488 387.813 613.048 389.96C613.608 392.107 614.191 394.207 614.798 396.26C615.358 394.3 615.918 392.27 616.478 390.17C617.038 388.023 617.551 385.9 618.018 383.8C618.531 381.7 618.998 379.67 619.418 377.71C619.884 375.703 620.304 373.86 620.678 372.18H631.528C630.501 375.82 629.428 379.437 628.308 383.03C627.234 386.577 626.161 389.96 625.088 393.18C624.061 396.353 623.034 399.293 622.008 402C621.028 404.707 620.118 407.04 619.278 409H611.158C609.991 405.453 608.848 401.93 607.728 398.43C606.608 394.93 605.581 391.407 604.648 387.86ZM670.76 390.52C670.76 393.413 670.34 396.073 669.5 398.5C668.66 400.88 667.447 402.933 665.86 404.66C664.273 406.34 662.36 407.647 660.12 408.58C657.927 409.513 655.453 409.98 652.7 409.98C649.993 409.98 647.52 409.513 645.28 408.58C643.087 407.647 641.197 406.34 639.61 404.66C638.023 402.933 636.787 400.88 635.9 398.5C635.013 396.073 634.57 393.413 634.57 390.52C634.57 387.627 635.013 384.99 635.9 382.61C636.833 380.23 638.093 378.2 639.68 376.52C641.313 374.84 643.227 373.533 645.42 372.6C647.66 371.667 650.087 371.2 652.7 371.2C655.36 371.2 657.787 371.667 659.98 372.6C662.22 373.533 664.133 374.84 665.72 376.52C667.307 378.2 668.543 380.23 669.43 382.61C670.317 384.99 670.76 387.627 670.76 390.52ZM660.12 390.52C660.12 387.3 659.467 384.78 658.16 382.96C656.9 381.093 655.08 380.16 652.7 380.16C650.32 380.16 648.477 381.093 647.17 382.96C645.863 384.78 645.21 387.3 645.21 390.52C645.21 393.74 645.863 396.307 647.17 398.22C648.477 400.087 650.32 401.02 652.7 401.02C655.08 401.02 656.9 400.087 658.16 398.22C659.467 396.307 660.12 393.74 660.12 390.52ZM701.029 381.42C700.096 381.187 698.999 380.953 697.739 380.72C696.479 380.44 695.126 380.3 693.679 380.3C693.026 380.3 692.233 380.37 691.299 380.51C690.413 380.603 689.736 380.72 689.269 380.86V409H678.839V374.14C680.706 373.487 682.899 372.88 685.419 372.32C687.986 371.713 690.833 371.41 693.959 371.41C694.519 371.41 695.196 371.457 695.989 371.55C696.783 371.597 697.576 371.69 698.369 371.83C699.163 371.923 699.956 372.063 700.749 372.25C701.543 372.39 702.219 372.577 702.779 372.81L701.029 381.42ZM716.577 390.31C716.577 393.53 717.3 396.12 718.747 398.08C720.194 400.04 722.34 401.02 725.187 401.02C726.12 401.02 726.984 400.997 727.777 400.95C728.57 400.857 729.224 400.763 729.737 400.67V381.7C729.084 381.28 728.22 380.93 727.147 380.65C726.12 380.37 725.07 380.23 723.997 380.23C719.05 380.23 716.577 383.59 716.577 390.31ZM740.167 407.81C739.234 408.09 738.16 408.37 736.947 408.65C735.734 408.883 734.45 409.093 733.097 409.28C731.79 409.467 730.437 409.607 729.037 409.7C727.684 409.84 726.377 409.91 725.117 409.91C722.084 409.91 719.377 409.467 716.997 408.58C714.617 407.693 712.61 406.433 710.977 404.8C709.344 403.12 708.084 401.113 707.197 398.78C706.357 396.4 705.937 393.74 705.937 390.8C705.937 387.813 706.31 385.13 707.057 382.75C707.804 380.323 708.877 378.27 710.277 376.59C711.677 374.91 713.38 373.627 715.387 372.74C717.44 371.853 719.774 371.41 722.387 371.41C723.834 371.41 725.117 371.55 726.237 371.83C727.404 372.11 728.57 372.507 729.737 373.02V356.36L740.167 354.68V407.81ZM760.503 401.51C762.417 401.51 763.77 401.323 764.563 400.95C765.357 400.577 765.753 399.853 765.753 398.78C765.753 397.94 765.24 397.217 764.213 396.61C763.187 395.957 761.623 395.233 759.523 394.44C757.89 393.833 756.397 393.203 755.043 392.55C753.737 391.897 752.617 391.127 751.683 390.24C750.75 389.307 750.027 388.21 749.513 386.95C749 385.69 748.743 384.173 748.743 382.4C748.743 378.947 750.027 376.217 752.593 374.21C755.16 372.203 758.683 371.2 763.163 371.2C765.403 371.2 767.55 371.41 769.603 371.83C771.657 372.203 773.29 372.623 774.503 373.09L772.683 381.21C771.47 380.79 770.14 380.417 768.693 380.09C767.293 379.763 765.707 379.6 763.933 379.6C760.667 379.6 759.033 380.51 759.033 382.33C759.033 382.75 759.103 383.123 759.243 383.45C759.383 383.777 759.663 384.103 760.083 384.43C760.503 384.71 761.063 385.037 761.763 385.41C762.51 385.737 763.443 386.11 764.563 386.53C766.85 387.37 768.74 388.21 770.233 389.05C771.727 389.843 772.893 390.73 773.733 391.71C774.62 392.643 775.227 393.693 775.553 394.86C775.927 396.027 776.113 397.38 776.113 398.92C776.113 402.56 774.737 405.313 771.983 407.18C769.277 409.047 765.427 409.98 760.433 409.98C757.167 409.98 754.437 409.7 752.243 409.14C750.097 408.58 748.603 408.113 747.763 407.74L749.513 399.27C751.287 399.97 753.107 400.53 754.973 400.95C756.84 401.323 758.683 401.51 760.503 401.51Z" fill="#FFA24B"/>
<path d="M210.947 390.87C210.947 387.603 211.437 384.757 212.417 382.33C213.444 379.857 214.774 377.803 216.407 376.17C218.04 374.537 219.907 373.3 222.007 372.46C224.154 371.62 226.347 371.2 228.587 371.2C233.814 371.2 237.944 372.81 240.977 376.03C244.01 379.203 245.527 383.893 245.527 390.1C245.527 390.707 245.504 391.383 245.457 392.13C245.41 392.83 245.364 393.46 245.317 394.02H221.657C221.89 396.167 222.894 397.87 224.667 399.13C226.44 400.39 228.82 401.02 231.807 401.02C233.72 401.02 235.587 400.857 237.407 400.53C239.274 400.157 240.79 399.713 241.957 399.2L243.357 407.67C242.797 407.95 242.05 408.23 241.117 408.51C240.184 408.79 239.134 409.023 237.967 409.21C236.847 409.443 235.634 409.63 234.327 409.77C233.02 409.91 231.714 409.98 230.407 409.98C227.094 409.98 224.2 409.49 221.727 408.51C219.3 407.53 217.27 406.2 215.637 404.52C214.05 402.793 212.86 400.763 212.067 398.43C211.32 396.097 210.947 393.577 210.947 390.87ZM235.447 386.88C235.4 385.993 235.237 385.13 234.957 384.29C234.724 383.45 234.327 382.703 233.767 382.05C233.254 381.397 232.577 380.86 231.737 380.44C230.944 380.02 229.94 379.81 228.727 379.81C227.56 379.81 226.557 380.02 225.717 380.44C224.877 380.813 224.177 381.327 223.617 381.98C223.057 382.633 222.614 383.403 222.287 384.29C222.007 385.13 221.797 385.993 221.657 386.88H235.447ZM237.057 358.95L225.507 368.68L220.747 364.41L230.687 353.07L237.057 358.95ZM301.822 407.74C300.049 408.253 297.762 408.72 294.962 409.14C292.162 409.607 289.222 409.84 286.142 409.84C283.016 409.84 280.402 409.42 278.302 408.58C276.249 407.74 274.616 406.573 273.402 405.08C272.189 403.54 271.326 401.72 270.812 399.62C270.299 397.52 270.042 395.21 270.042 392.69V372.18H280.472V391.43C280.472 394.79 280.916 397.217 281.802 398.71C282.689 400.203 284.346 400.95 286.772 400.95C287.519 400.95 288.312 400.927 289.152 400.88C289.992 400.787 290.739 400.693 291.392 400.6V372.18H301.822V407.74ZM331.843 389.47C331.843 386.11 331.4 383.73 330.513 382.33C329.673 380.93 328.203 380.23 326.103 380.23C325.45 380.23 324.773 380.277 324.073 380.37C323.373 380.417 322.696 380.487 322.043 380.58V409H311.613V373.44C312.5 373.207 313.526 372.973 314.693 372.74C315.906 372.46 317.166 372.227 318.473 372.04C319.826 371.807 321.203 371.643 322.603 371.55C324.003 371.41 325.38 371.34 326.733 371.34C329.393 371.34 331.54 371.69 333.173 372.39C334.853 373.043 336.23 373.837 337.303 374.77C338.796 373.697 340.5 372.857 342.413 372.25C344.373 371.643 346.17 371.34 347.803 371.34C350.743 371.34 353.146 371.76 355.013 372.6C356.926 373.393 358.443 374.537 359.563 376.03C360.683 377.523 361.453 379.297 361.873 381.35C362.293 383.403 362.503 385.69 362.503 388.21V409H352.073V389.47C352.073 386.11 351.63 383.73 350.743 382.33C349.903 380.93 348.433 380.23 346.333 380.23C345.773 380.23 344.98 380.37 343.953 380.65C342.973 380.93 342.156 381.28 341.503 381.7C341.83 382.773 342.04 383.917 342.133 385.13C342.226 386.297 342.273 387.557 342.273 388.91V409H331.843V389.47ZM386.044 401.72C387.071 401.72 388.051 401.697 388.984 401.65C389.918 401.603 390.664 401.533 391.224 401.44V393.53C390.804 393.437 390.174 393.343 389.334 393.25C388.494 393.157 387.724 393.11 387.024 393.11C386.044 393.11 385.111 393.18 384.224 393.32C383.384 393.413 382.638 393.623 381.984 393.95C381.331 394.277 380.818 394.72 380.444 395.28C380.071 395.84 379.884 396.54 379.884 397.38C379.884 399.013 380.421 400.157 381.494 400.81C382.614 401.417 384.131 401.72 386.044 401.72ZM385.204 371.2C388.284 371.2 390.851 371.55 392.904 372.25C394.958 372.95 396.591 373.953 397.804 375.26C399.064 376.567 399.951 378.153 400.464 380.02C400.978 381.887 401.234 383.963 401.234 386.25V407.95C399.741 408.277 397.664 408.65 395.004 409.07C392.344 409.537 389.124 409.77 385.344 409.77C382.964 409.77 380.794 409.56 378.834 409.14C376.921 408.72 375.264 408.043 373.864 407.11C372.464 406.13 371.391 404.87 370.644 403.33C369.898 401.79 369.524 399.9 369.524 397.66C369.524 395.513 369.944 393.693 370.784 392.2C371.671 390.707 372.838 389.517 374.284 388.63C375.731 387.743 377.388 387.113 379.254 386.74C381.121 386.32 383.058 386.11 385.064 386.11C386.418 386.11 387.608 386.18 388.634 386.32C389.708 386.413 390.571 386.553 391.224 386.74V385.76C391.224 383.987 390.688 382.563 389.614 381.49C388.541 380.417 386.674 379.88 384.014 379.88C382.241 379.88 380.491 380.02 378.764 380.3C377.038 380.533 375.544 380.883 374.284 381.35L372.954 372.95C373.561 372.763 374.308 372.577 375.194 372.39C376.128 372.157 377.131 371.97 378.204 371.83C379.278 371.643 380.398 371.503 381.564 371.41C382.778 371.27 383.991 371.2 385.204 371.2ZM126.33 549H115.9V512.18H126.33V549ZM127.31 501.54C127.31 503.453 126.68 504.97 125.42 506.09C124.207 507.163 122.76 507.7 121.08 507.7C119.4 507.7 117.93 507.163 116.67 506.09C115.457 504.97 114.85 503.453 114.85 501.54C114.85 499.627 115.457 498.133 116.67 497.06C117.93 495.94 119.4 495.38 121.08 495.38C122.76 495.38 124.207 495.94 125.42 497.06C126.68 498.133 127.31 499.627 127.31 501.54ZM145.024 529.4C145.024 535.233 147.381 538.15 152.094 538.15C153.168 538.15 154.171 538.01 155.104 537.73C156.038 537.45 156.831 537.123 157.484 536.75V520.09C156.971 519.997 156.364 519.927 155.664 519.88C154.964 519.787 154.148 519.74 153.214 519.74C150.461 519.74 148.408 520.65 147.054 522.47C145.701 524.29 145.024 526.6 145.024 529.4ZM167.914 544.38C167.914 550.4 166.374 554.857 163.294 557.75C160.261 560.69 155.548 562.16 149.154 562.16C146.914 562.16 144.674 561.95 142.434 561.53C140.194 561.157 138.118 560.643 136.204 559.99L138.024 551.24C139.658 551.893 141.361 552.407 143.134 552.78C144.954 553.153 147.008 553.34 149.294 553.34C152.281 553.34 154.381 552.687 155.594 551.38C156.854 550.073 157.484 548.393 157.484 546.34V545.01C156.364 545.523 155.198 545.92 153.984 546.2C152.818 546.433 151.534 546.55 150.134 546.55C145.048 546.55 141.151 545.057 138.444 542.07C135.738 539.037 134.384 534.813 134.384 529.4C134.384 526.693 134.804 524.243 135.644 522.05C136.484 519.81 137.698 517.897 139.284 516.31C140.918 514.723 142.901 513.51 145.234 512.67C147.568 511.783 150.204 511.34 153.144 511.34C154.404 511.34 155.688 511.41 156.994 511.55C158.348 511.643 159.678 511.783 160.984 511.97C162.291 512.157 163.528 512.39 164.694 512.67C165.908 512.903 166.981 513.16 167.914 513.44V544.38ZM209.127 547.74C207.354 548.253 205.067 548.72 202.267 549.14C199.467 549.607 196.527 549.84 193.447 549.84C190.32 549.84 187.707 549.42 185.607 548.58C183.554 547.74 181.92 546.573 180.707 545.08C179.494 543.54 178.63 541.72 178.117 539.62C177.604 537.52 177.347 535.21 177.347 532.69V512.18H187.777V531.43C187.777 534.79 188.22 537.217 189.107 538.71C189.994 540.203 191.65 540.95 194.077 540.95C194.824 540.95 195.617 540.927 196.457 540.88C197.297 540.787 198.044 540.693 198.697 540.6V512.18H209.127V547.74ZM232.988 541.72C234.014 541.72 234.994 541.697 235.928 541.65C236.861 541.603 237.608 541.533 238.168 541.44V533.53C237.748 533.437 237.118 533.343 236.278 533.25C235.438 533.157 234.668 533.11 233.968 533.11C232.988 533.11 232.054 533.18 231.168 533.32C230.328 533.413 229.581 533.623 228.928 533.95C228.274 534.277 227.761 534.72 227.388 535.28C227.014 535.84 226.828 536.54 226.828 537.38C226.828 539.013 227.364 540.157 228.438 540.81C229.558 541.417 231.074 541.72 232.988 541.72ZM232.148 511.2C235.228 511.2 237.794 511.55 239.848 512.25C241.901 512.95 243.534 513.953 244.748 515.26C246.008 516.567 246.894 518.153 247.408 520.02C247.921 521.887 248.178 523.963 248.178 526.25V547.95C246.684 548.277 244.608 548.65 241.948 549.07C239.288 549.537 236.068 549.77 232.288 549.77C229.908 549.77 227.738 549.56 225.778 549.14C223.864 548.72 222.208 548.043 220.808 547.11C219.408 546.13 218.334 544.87 217.588 543.33C216.841 541.79 216.468 539.9 216.468 537.66C216.468 535.513 216.888 533.693 217.728 532.2C218.614 530.707 219.781 529.517 221.228 528.63C222.674 527.743 224.331 527.113 226.198 526.74C228.064 526.32 230.001 526.11 232.008 526.11C233.361 526.11 234.551 526.18 235.578 526.32C236.651 526.413 237.514 526.553 238.168 526.74V525.76C238.168 523.987 237.631 522.563 236.558 521.49C235.484 520.417 233.618 519.88 230.958 519.88C229.184 519.88 227.434 520.02 225.708 520.3C223.981 520.533 222.488 520.883 221.228 521.35L219.898 512.95C220.504 512.763 221.251 512.577 222.138 512.39C223.071 512.157 224.074 511.97 225.148 511.83C226.221 511.643 227.341 511.503 228.508 511.41C229.721 511.27 230.934 511.2 232.148 511.2ZM272.309 549.7C269.276 549.653 266.802 549.327 264.889 548.72C263.022 548.113 261.529 547.273 260.409 546.2C259.336 545.08 258.589 543.75 258.169 542.21C257.796 540.623 257.609 538.85 257.609 536.89V496.36L268.039 494.68V534.79C268.039 535.723 268.109 536.563 268.249 537.31C268.389 538.057 268.646 538.687 269.019 539.2C269.439 539.713 270.022 540.133 270.769 540.46C271.516 540.787 272.519 540.997 273.779 541.09L272.309 549.7ZM310.644 541.72C311.67 541.72 312.65 541.697 313.584 541.65C314.517 541.603 315.264 541.533 315.824 541.44V533.53C315.404 533.437 314.774 533.343 313.934 533.25C313.094 533.157 312.324 533.11 311.624 533.11C310.644 533.11 309.71 533.18 308.824 533.32C307.984 533.413 307.237 533.623 306.584 533.95C305.93 534.277 305.417 534.72 305.044 535.28C304.67 535.84 304.484 536.54 304.484 537.38C304.484 539.013 305.02 540.157 306.094 540.81C307.214 541.417 308.73 541.72 310.644 541.72ZM309.804 511.2C312.884 511.2 315.45 511.55 317.504 512.25C319.557 512.95 321.19 513.953 322.404 515.26C323.664 516.567 324.55 518.153 325.064 520.02C325.577 521.887 325.834 523.963 325.834 526.25V547.95C324.34 548.277 322.264 548.65 319.604 549.07C316.944 549.537 313.724 549.77 309.944 549.77C307.564 549.77 305.394 549.56 303.434 549.14C301.52 548.72 299.864 548.043 298.464 547.11C297.064 546.13 295.99 544.87 295.244 543.33C294.497 541.79 294.124 539.9 294.124 537.66C294.124 535.513 294.544 533.693 295.384 532.2C296.27 530.707 297.437 529.517 298.884 528.63C300.33 527.743 301.987 527.113 303.854 526.74C305.72 526.32 307.657 526.11 309.664 526.11C311.017 526.11 312.207 526.18 313.234 526.32C314.307 526.413 315.17 526.553 315.824 526.74V525.76C315.824 523.987 315.287 522.563 314.214 521.49C313.14 520.417 311.274 519.88 308.614 519.88C306.84 519.88 305.09 520.02 303.364 520.3C301.637 520.533 300.144 520.883 298.884 521.35L297.554 512.95C298.16 512.763 298.907 512.577 299.794 512.39C300.727 512.157 301.73 511.97 302.804 511.83C303.877 511.643 304.997 511.503 306.164 511.41C307.377 511.27 308.59 511.2 309.804 511.2ZM362.512 549H352.082V512.18H362.512V549ZM363.492 501.54C363.492 503.453 362.862 504.97 361.602 506.09C360.388 507.163 358.942 507.7 357.262 507.7C355.582 507.7 354.112 507.163 352.852 506.09C351.638 504.97 351.032 503.453 351.032 501.54C351.032 499.627 351.638 498.133 352.852 497.06C354.112 495.94 355.582 495.38 357.262 495.38C358.942 495.38 360.388 495.94 361.602 497.06C362.862 498.133 363.492 499.627 363.492 501.54ZM372.316 513.44C374.089 512.927 376.376 512.46 379.176 512.04C381.976 511.573 384.916 511.34 387.996 511.34C391.123 511.34 393.713 511.76 395.766 512.6C397.866 513.393 399.523 514.537 400.736 516.03C401.949 517.523 402.813 519.297 403.326 521.35C403.839 523.403 404.096 525.69 404.096 528.21V549H393.666V529.47C393.666 526.11 393.223 523.73 392.336 522.33C391.449 520.93 389.793 520.23 387.366 520.23C386.619 520.23 385.826 520.277 384.986 520.37C384.146 520.417 383.399 520.487 382.746 520.58V549H372.316V513.44ZM444.967 547.74C443.193 548.253 440.907 548.72 438.107 549.14C435.307 549.607 432.367 549.84 429.287 549.84C426.16 549.84 423.547 549.42 421.447 548.58C419.393 547.74 417.76 546.573 416.547 545.08C415.333 543.54 414.47 541.72 413.957 539.62C413.443 537.52 413.187 535.21 413.187 532.69V512.18H423.617V531.43C423.617 534.79 424.06 537.217 424.947 538.71C425.833 540.203 427.49 540.95 429.917 540.95C430.663 540.95 431.457 540.927 432.297 540.88C433.137 540.787 433.883 540.693 434.537 540.6V512.18H444.967V547.74ZM438.037 498.95L426.487 508.68L421.727 504.41L431.667 493.07L438.037 498.95ZM474.987 529.47C474.987 526.11 474.544 523.73 473.657 522.33C472.817 520.93 471.347 520.23 469.247 520.23C468.594 520.23 467.917 520.277 467.217 520.37C466.517 520.417 465.841 520.487 465.187 520.58V549H454.757V513.44C455.644 513.207 456.671 512.973 457.837 512.74C459.051 512.46 460.311 512.227 461.617 512.04C462.971 511.807 464.347 511.643 465.747 511.55C467.147 511.41 468.524 511.34 469.877 511.34C472.537 511.34 474.684 511.69 476.317 512.39C477.997 513.043 479.374 513.837 480.447 514.77C481.941 513.697 483.644 512.857 485.557 512.25C487.517 511.643 489.314 511.34 490.947 511.34C493.887 511.34 496.291 511.76 498.157 512.6C500.071 513.393 501.587 514.537 502.707 516.03C503.827 517.523 504.597 519.297 505.017 521.35C505.437 523.403 505.647 525.69 505.647 528.21V549H495.217V529.47C495.217 526.11 494.774 523.73 493.887 522.33C493.047 520.93 491.577 520.23 489.477 520.23C488.917 520.23 488.124 520.37 487.097 520.65C486.117 520.93 485.301 521.28 484.647 521.7C484.974 522.773 485.184 523.917 485.277 525.13C485.371 526.297 485.417 527.557 485.417 528.91V549H474.987V529.47ZM513.369 530.87C513.369 527.603 513.859 524.757 514.839 522.33C515.865 519.857 517.195 517.803 518.829 516.17C520.462 514.537 522.329 513.3 524.429 512.46C526.575 511.62 528.769 511.2 531.009 511.2C536.235 511.2 540.365 512.81 543.399 516.03C546.432 519.203 547.949 523.893 547.949 530.1C547.949 530.707 547.925 531.383 547.879 532.13C547.832 532.83 547.785 533.46 547.739 534.02H524.079C524.312 536.167 525.315 537.87 527.089 539.13C528.862 540.39 531.242 541.02 534.229 541.02C536.142 541.02 538.009 540.857 539.829 540.53C541.695 540.157 543.212 539.713 544.379 539.2L545.779 547.67C545.219 547.95 544.472 548.23 543.539 548.51C542.605 548.79 541.555 549.023 540.389 549.21C539.269 549.443 538.055 549.63 536.749 549.77C535.442 549.91 534.135 549.98 532.829 549.98C529.515 549.98 526.622 549.49 524.149 548.51C521.722 547.53 519.692 546.2 518.059 544.52C516.472 542.793 515.282 540.763 514.489 538.43C513.742 536.097 513.369 533.577 513.369 530.87ZM537.869 526.88C537.822 525.993 537.659 525.13 537.379 524.29C537.145 523.45 536.749 522.703 536.189 522.05C535.675 521.397 534.999 520.86 534.159 520.44C533.365 520.02 532.362 519.81 531.149 519.81C529.982 519.81 528.979 520.02 528.139 520.44C527.299 520.813 526.599 521.327 526.039 521.98C525.479 522.633 525.035 523.403 524.709 524.29C524.429 525.13 524.219 525.993 524.079 526.88H537.869ZM578.188 521.42C577.254 521.187 576.158 520.953 574.898 520.72C573.638 520.44 572.284 520.3 570.838 520.3C570.184 520.3 569.391 520.37 568.458 520.51C567.571 520.603 566.894 520.72 566.428 520.86V549H555.998V514.14C557.864 513.487 560.058 512.88 562.578 512.32C565.144 511.713 567.991 511.41 571.118 511.41C571.678 511.41 572.354 511.457 573.148 511.55C573.941 511.597 574.734 511.69 575.528 511.83C576.321 511.923 577.114 512.063 577.908 512.25C578.701 512.39 579.378 512.577 579.938 512.81L578.188 521.42ZM598.915 541.72C599.942 541.72 600.922 541.697 601.855 541.65C602.789 541.603 603.535 541.533 604.095 541.44V533.53C603.675 533.437 603.045 533.343 602.205 533.25C601.365 533.157 600.595 533.11 599.895 533.11C598.915 533.11 597.982 533.18 597.095 533.32C596.255 533.413 595.509 533.623 594.855 533.95C594.202 534.277 593.689 534.72 593.315 535.28C592.942 535.84 592.755 536.54 592.755 537.38C592.755 539.013 593.292 540.157 594.365 540.81C595.485 541.417 597.002 541.72 598.915 541.72ZM598.075 511.2C601.155 511.2 603.722 511.55 605.775 512.25C607.829 512.95 609.462 513.953 610.675 515.26C611.935 516.567 612.822 518.153 613.335 520.02C613.849 521.887 614.105 523.963 614.105 526.25V547.95C612.612 548.277 610.535 548.65 607.875 549.07C605.215 549.537 601.995 549.77 598.215 549.77C595.835 549.77 593.665 549.56 591.705 549.14C589.792 548.72 588.135 548.043 586.735 547.11C585.335 546.13 584.262 544.87 583.515 543.33C582.769 541.79 582.395 539.9 582.395 537.66C582.395 535.513 582.815 533.693 583.655 532.2C584.542 530.707 585.709 529.517 587.155 528.63C588.602 527.743 590.259 527.113 592.125 526.74C593.992 526.32 595.929 526.11 597.935 526.11C599.289 526.11 600.479 526.18 601.505 526.32C602.579 526.413 603.442 526.553 604.095 526.74V525.76C604.095 523.987 603.559 522.563 602.485 521.49C601.412 520.417 599.545 519.88 596.885 519.88C595.112 519.88 593.362 520.02 591.635 520.3C589.909 520.533 588.415 520.883 587.155 521.35L585.825 512.95C586.432 512.763 587.179 512.577 588.065 512.39C588.999 512.157 590.002 511.97 591.075 511.83C592.149 511.643 593.269 511.503 594.435 511.41C595.649 511.27 596.862 511.2 598.075 511.2ZM634.107 541.51C636.02 541.51 637.373 541.323 638.167 540.95C638.96 540.577 639.357 539.853 639.357 538.78C639.357 537.94 638.843 537.217 637.817 536.61C636.79 535.957 635.227 535.233 633.127 534.44C631.493 533.833 630 533.203 628.647 532.55C627.34 531.897 626.22 531.127 625.287 530.24C624.353 529.307 623.63 528.21 623.117 526.95C622.603 525.69 622.347 524.173 622.347 522.4C622.347 518.947 623.63 516.217 626.197 514.21C628.763 512.203 632.287 511.2 636.767 511.2C639.007 511.2 641.153 511.41 643.207 511.83C645.26 512.203 646.893 512.623 648.107 513.09L646.287 521.21C645.073 520.79 643.743 520.417 642.297 520.09C640.897 519.763 639.31 519.6 637.537 519.6C634.27 519.6 632.637 520.51 632.637 522.33C632.637 522.75 632.707 523.123 632.847 523.45C632.987 523.777 633.267 524.103 633.687 524.43C634.107 524.71 634.667 525.037 635.367 525.41C636.113 525.737 637.047 526.11 638.167 526.53C640.453 527.37 642.343 528.21 643.837 529.05C645.33 529.843 646.497 530.73 647.337 531.71C648.223 532.643 648.83 533.693 649.157 534.86C649.53 536.027 649.717 537.38 649.717 538.92C649.717 542.56 648.34 545.313 645.587 547.18C642.88 549.047 639.03 549.98 634.037 549.98C630.77 549.98 628.04 549.7 625.847 549.14C623.7 548.58 622.207 548.113 621.367 547.74L623.117 539.27C624.89 539.97 626.71 540.53 628.577 540.95C630.443 541.323 632.287 541.51 634.107 541.51ZM708.768 530.52C708.768 533.413 708.348 536.073 707.508 538.5C706.668 540.88 705.454 542.933 703.868 544.66C702.281 546.34 700.368 547.647 698.128 548.58C695.934 549.513 693.461 549.98 690.708 549.98C688.001 549.98 685.528 549.513 683.288 548.58C681.094 547.647 679.204 546.34 677.618 544.66C676.031 542.933 674.794 540.88 673.908 538.5C673.021 536.073 672.578 533.413 672.578 530.52C672.578 527.627 673.021 524.99 673.908 522.61C674.841 520.23 676.101 518.2 677.688 516.52C679.321 514.84 681.234 513.533 683.428 512.6C685.668 511.667 688.094 511.2 690.708 511.2C693.368 511.2 695.794 511.667 697.988 512.6C700.228 513.533 702.141 514.84 703.728 516.52C705.314 518.2 706.551 520.23 707.438 522.61C708.324 524.99 708.768 527.627 708.768 530.52ZM698.128 530.52C698.128 527.3 697.474 524.78 696.168 522.96C694.908 521.093 693.088 520.16 690.708 520.16C688.328 520.16 686.484 521.093 685.178 522.96C683.871 524.78 683.218 527.3 683.218 530.52C683.218 533.74 683.871 536.307 685.178 538.22C686.484 540.087 688.328 541.02 690.708 541.02C693.088 541.02 694.908 540.087 696.168 538.22C697.474 536.307 698.128 533.74 698.128 530.52ZM748.277 547.74C746.504 548.253 744.217 548.72 741.417 549.14C738.617 549.607 735.677 549.84 732.597 549.84C729.471 549.84 726.857 549.42 724.757 548.58C722.704 547.74 721.071 546.573 719.857 545.08C718.644 543.54 717.781 541.72 717.267 539.62C716.754 537.52 716.497 535.21 716.497 532.69V512.18H726.927V531.43C726.927 534.79 727.371 537.217 728.257 538.71C729.144 540.203 730.801 540.95 733.227 540.95C733.974 540.95 734.767 540.927 735.607 540.88C736.447 540.787 737.194 540.693 737.847 540.6V512.18H748.277V547.74ZM757.718 503.01L768.148 501.33V512.18H780.678V520.86H768.148V533.81C768.148 536.003 768.521 537.753 769.268 539.06C770.061 540.367 771.625 541.02 773.958 541.02C775.078 541.02 776.221 540.927 777.388 540.74C778.601 540.507 779.698 540.203 780.678 539.83L782.148 547.95C780.888 548.463 779.488 548.907 777.948 549.28C776.408 549.653 774.518 549.84 772.278 549.84C769.431 549.84 767.075 549.467 765.208 548.72C763.341 547.927 761.848 546.853 760.728 545.5C759.608 544.1 758.815 542.42 758.348 540.46C757.928 538.5 757.718 536.33 757.718 533.95V503.01ZM811.361 521.42C810.428 521.187 809.331 520.953 808.071 520.72C806.811 520.44 805.458 520.3 804.011 520.3C803.358 520.3 802.565 520.37 801.631 520.51C800.745 520.603 800.068 520.72 799.601 520.86V549H789.171V514.14C791.038 513.487 793.231 512.88 795.751 512.32C798.318 511.713 801.165 511.41 804.291 511.41C804.851 511.41 805.528 511.457 806.321 511.55C807.115 511.597 807.908 511.69 808.701 511.83C809.495 511.923 810.288 512.063 811.081 512.25C811.875 512.39 812.551 512.577 813.111 512.81L811.361 521.42ZM832.089 541.72C833.116 541.72 834.096 541.697 835.029 541.65C835.962 541.603 836.709 541.533 837.269 541.44V533.53C836.849 533.437 836.219 533.343 835.379 533.25C834.539 533.157 833.769 533.11 833.069 533.11C832.089 533.11 831.156 533.18 830.269 533.32C829.429 533.413 828.682 533.623 828.029 533.95C827.376 534.277 826.862 534.72 826.489 535.28C826.116 535.84 825.929 536.54 825.929 537.38C825.929 539.013 826.466 540.157 827.539 540.81C828.659 541.417 830.176 541.72 832.089 541.72ZM831.249 511.2C834.329 511.2 836.896 511.55 838.949 512.25C841.002 512.95 842.636 513.953 843.849 515.26C845.109 516.567 845.996 518.153 846.509 520.02C847.022 521.887 847.279 523.963 847.279 526.25V547.95C845.786 548.277 843.709 548.65 841.049 549.07C838.389 549.537 835.169 549.77 831.389 549.77C829.009 549.77 826.839 549.56 824.879 549.14C822.966 548.72 821.309 548.043 819.909 547.11C818.509 546.13 817.436 544.87 816.689 543.33C815.942 541.79 815.569 539.9 815.569 537.66C815.569 535.513 815.989 533.693 816.829 532.2C817.716 530.707 818.882 529.517 820.329 528.63C821.776 527.743 823.432 527.113 825.299 526.74C827.166 526.32 829.102 526.11 831.109 526.11C832.462 526.11 833.652 526.18 834.679 526.32C835.752 526.413 836.616 526.553 837.269 526.74V525.76C837.269 523.987 836.732 522.563 835.659 521.49C834.586 520.417 832.719 519.88 830.059 519.88C828.286 519.88 826.536 520.02 824.809 520.3C823.082 520.533 821.589 520.883 820.329 521.35L818.999 512.95C819.606 512.763 820.352 512.577 821.239 512.39C822.172 512.157 823.176 511.97 824.249 511.83C825.322 511.643 826.442 511.503 827.609 511.41C828.822 511.27 830.036 511.2 831.249 511.2ZM867.281 541.51C869.194 541.51 870.547 541.323 871.341 540.95C872.134 540.577 872.531 539.853 872.531 538.78C872.531 537.94 872.017 537.217 870.991 536.61C869.964 535.957 868.401 535.233 866.301 534.44C864.667 533.833 863.174 533.203 861.821 532.55C860.514 531.897 859.394 531.127 858.461 530.24C857.527 529.307 856.804 528.21 856.291 526.95C855.777 525.69 855.521 524.173 855.521 522.4C855.521 518.947 856.804 516.217 859.371 514.21C861.937 512.203 865.461 511.2 869.941 511.2C872.181 511.2 874.327 511.41 876.381 511.83C878.434 512.203 880.067 512.623 881.281 513.09L879.461 521.21C878.247 520.79 876.917 520.417 875.471 520.09C874.071 519.763 872.484 519.6 870.711 519.6C867.444 519.6 865.811 520.51 865.811 522.33C865.811 522.75 865.881 523.123 866.021 523.45C866.161 523.777 866.441 524.103 866.861 524.43C867.281 524.71 867.841 525.037 868.541 525.41C869.287 525.737 870.221 526.11 871.341 526.53C873.627 527.37 875.517 528.21 877.011 529.05C878.504 529.843 879.671 530.73 880.511 531.71C881.397 532.643 882.004 533.693 882.331 534.86C882.704 536.027 882.891 537.38 882.891 538.92C882.891 542.56 881.514 545.313 878.761 547.18C876.054 549.047 872.204 549.98 867.211 549.98C863.944 549.98 861.214 549.7 859.021 549.14C856.874 548.58 855.381 548.113 854.541 547.74L856.291 539.27C858.064 539.97 859.884 540.53 861.751 540.95C863.617 541.323 865.461 541.51 867.281 541.51ZM916.392 530.87C916.392 537.543 918.865 540.88 923.812 540.88C924.885 540.88 925.935 540.74 926.962 540.46C928.035 540.18 928.898 539.83 929.552 539.41V520.58C929.038 520.487 928.385 520.417 927.592 520.37C926.798 520.277 925.935 520.23 925.002 520.23C922.155 520.23 920.008 521.21 918.562 523.17C917.115 525.083 916.392 527.65 916.392 530.87ZM905.752 530.59C905.752 527.743 906.172 525.153 907.012 522.82C907.898 520.44 909.158 518.41 910.792 516.73C912.425 515.003 914.432 513.673 916.812 512.74C919.192 511.807 921.898 511.34 924.932 511.34C926.192 511.34 927.498 511.41 928.852 511.55C930.252 511.643 931.605 511.783 932.912 511.97C934.265 512.157 935.548 512.39 936.762 512.67C937.975 512.903 939.048 513.16 939.982 513.44V561.95H929.552V548.09C928.385 548.603 927.172 549 925.912 549.28C924.652 549.56 923.298 549.7 921.852 549.7C916.625 549.7 912.635 547.997 909.882 544.59C907.128 541.137 905.752 536.47 905.752 530.59ZM981.178 547.74C979.404 548.253 977.118 548.72 974.318 549.14C971.518 549.607 968.578 549.84 965.498 549.84C962.371 549.84 959.758 549.42 957.658 548.58C955.604 547.74 953.971 546.573 952.758 545.08C951.544 543.54 950.681 541.72 950.168 539.62C949.654 537.52 949.398 535.21 949.398 532.69V512.18H959.828V531.43C959.828 534.79 960.271 537.217 961.158 538.71C962.044 540.203 963.701 540.95 966.128 540.95C966.874 540.95 967.668 540.927 968.508 540.88C969.348 540.787 970.094 540.693 970.748 540.6V512.18H981.178V547.74ZM989.218 530.87C989.218 527.603 989.708 524.757 990.688 522.33C991.715 519.857 993.045 517.803 994.678 516.17C996.312 514.537 998.178 513.3 1000.28 512.46C1002.43 511.62 1004.62 511.2 1006.86 511.2C1012.09 511.2 1016.22 512.81 1019.25 516.03C1022.28 519.203 1023.8 523.893 1023.8 530.1C1023.8 530.707 1023.78 531.383 1023.73 532.13C1023.68 532.83 1023.64 533.46 1023.59 534.02H999.928C1000.16 536.167 1001.17 537.87 1002.94 539.13C1004.71 540.39 1007.09 541.02 1010.08 541.02C1011.99 541.02 1013.86 540.857 1015.68 540.53C1017.55 540.157 1019.06 539.713 1020.23 539.2L1021.63 547.67C1021.07 547.95 1020.32 548.23 1019.39 548.51C1018.46 548.79 1017.41 549.023 1016.24 549.21C1015.12 549.443 1013.91 549.63 1012.6 549.77C1011.29 549.91 1009.99 549.98 1008.68 549.98C1005.37 549.98 1002.47 549.49 999.998 548.51C997.572 547.53 995.542 546.2 993.908 544.52C992.322 542.793 991.132 540.763 990.338 538.43C989.592 536.097 989.218 533.577 989.218 530.87ZM1013.72 526.88C1013.67 525.993 1013.51 525.13 1013.23 524.29C1013 523.45 1012.6 522.703 1012.04 522.05C1011.53 521.397 1010.85 520.86 1010.01 520.44C1009.22 520.02 1008.21 519.81 1007 519.81C1005.83 519.81 1004.83 520.02 1003.99 520.44C1003.15 520.813 1002.45 521.327 1001.89 521.98C1001.33 522.633 1000.89 523.403 1000.56 524.29C1000.28 525.13 1000.07 525.993 999.928 526.88H1013.72ZM125.91 619C123.53 614.333 121.103 608.873 118.63 602.62C116.203 596.367 113.893 589.553 111.7 582.18H122.76C123.227 584 123.763 585.983 124.37 588.13C125.023 590.23 125.677 592.377 126.33 594.57C127.03 596.717 127.707 598.817 128.36 600.87C129.06 602.923 129.737 604.79 130.39 606.47C130.997 604.79 131.65 602.923 132.35 600.87C133.05 598.817 133.727 596.717 134.38 594.57C135.08 592.377 135.733 590.23 136.34 588.13C136.993 585.983 137.553 584 138.02 582.18H148.8C146.607 589.553 144.273 596.367 141.8 602.62C139.373 608.873 136.97 614.333 134.59 619H125.91ZM164.816 619H154.386V582.18H164.816V619ZM165.796 571.54C165.796 573.453 165.166 574.97 163.906 576.09C162.693 577.163 161.246 577.7 159.566 577.7C157.886 577.7 156.416 577.163 155.156 576.09C153.943 574.97 153.336 573.453 153.336 571.54C153.336 569.627 153.943 568.133 155.156 567.06C156.416 565.94 157.886 565.38 159.566 565.38C161.246 565.38 162.693 565.94 163.906 567.06C165.166 568.133 165.796 569.627 165.796 571.54ZM172.871 600.87C172.871 597.603 173.361 594.757 174.341 592.33C175.367 589.857 176.697 587.803 178.331 586.17C179.964 584.537 181.831 583.3 183.931 582.46C186.077 581.62 188.271 581.2 190.511 581.2C195.737 581.2 199.867 582.81 202.901 586.03C205.934 589.203 207.451 593.893 207.451 600.1C207.451 600.707 207.427 601.383 207.381 602.13C207.334 602.83 207.287 603.46 207.241 604.02H183.581C183.814 606.167 184.817 607.87 186.591 609.13C188.364 610.39 190.744 611.02 193.731 611.02C195.644 611.02 197.511 610.857 199.331 610.53C201.197 610.157 202.714 609.713 203.881 609.2L205.281 617.67C204.721 617.95 203.974 618.23 203.041 618.51C202.107 618.79 201.057 619.023 199.891 619.21C198.771 619.443 197.557 619.63 196.251 619.77C194.944 619.91 193.637 619.98 192.331 619.98C189.017 619.98 186.124 619.49 183.651 618.51C181.224 617.53 179.194 616.2 177.561 614.52C175.974 612.793 174.784 610.763 173.991 608.43C173.244 606.097 172.871 603.577 172.871 600.87ZM197.371 596.88C197.324 595.993 197.161 595.13 196.881 594.29C196.647 593.45 196.251 592.703 195.691 592.05C195.177 591.397 194.501 590.86 193.661 590.44C192.867 590.02 191.864 589.81 190.651 589.81C189.484 589.81 188.481 590.02 187.641 590.44C186.801 590.813 186.101 591.327 185.541 591.98C184.981 592.633 184.537 593.403 184.211 594.29C183.931 595.13 183.721 595.993 183.581 596.88H197.371ZM237.69 591.42C236.756 591.187 235.66 590.953 234.4 590.72C233.14 590.44 231.786 590.3 230.34 590.3C229.686 590.3 228.893 590.37 227.96 590.51C227.073 590.603 226.396 590.72 225.93 590.86V619H215.5V584.14C217.366 583.487 219.56 582.88 222.08 582.32C224.646 581.713 227.493 581.41 230.62 581.41C231.18 581.41 231.856 581.457 232.65 581.55C233.443 581.597 234.236 581.69 235.03 581.83C235.823 581.923 236.616 582.063 237.41 582.25C238.203 582.39 238.88 582.577 239.44 582.81L237.69 591.42ZM258.417 611.72C259.444 611.72 260.424 611.697 261.357 611.65C262.291 611.603 263.037 611.533 263.597 611.44V603.53C263.177 603.437 262.547 603.343 261.707 603.25C260.867 603.157 260.097 603.11 259.397 603.11C258.417 603.11 257.484 603.18 256.597 603.32C255.757 603.413 255.011 603.623 254.357 603.95C253.704 604.277 253.191 604.72 252.817 605.28C252.444 605.84 252.257 606.54 252.257 607.38C252.257 609.013 252.794 610.157 253.867 610.81C254.987 611.417 256.504 611.72 258.417 611.72ZM257.577 581.2C260.657 581.2 263.224 581.55 265.277 582.25C267.331 582.95 268.964 583.953 270.177 585.26C271.437 586.567 272.324 588.153 272.837 590.02C273.351 591.887 273.607 593.963 273.607 596.25V617.95C272.114 618.277 270.037 618.65 267.377 619.07C264.717 619.537 261.497 619.77 257.717 619.77C255.337 619.77 253.167 619.56 251.207 619.14C249.294 618.72 247.637 618.043 246.237 617.11C244.837 616.13 243.764 614.87 243.017 613.33C242.271 611.79 241.897 609.9 241.897 607.66C241.897 605.513 242.317 603.693 243.157 602.2C244.044 600.707 245.211 599.517 246.657 598.63C248.104 597.743 249.761 597.113 251.627 596.74C253.494 596.32 255.431 596.11 257.437 596.11C258.791 596.11 259.981 596.18 261.007 596.32C262.081 596.413 262.944 596.553 263.597 596.74V595.76C263.597 593.987 263.061 592.563 261.987 591.49C260.914 590.417 259.047 589.88 256.387 589.88C254.614 589.88 252.864 590.02 251.137 590.3C249.411 590.533 247.917 590.883 246.657 591.35L245.327 582.95C245.934 582.763 246.681 582.577 247.567 582.39C248.501 582.157 249.504 581.97 250.577 581.83C251.651 581.643 252.771 581.503 253.937 581.41C255.151 581.27 256.364 581.2 257.577 581.2ZM303.269 599.47C303.269 596.11 302.825 593.73 301.939 592.33C301.099 590.93 299.629 590.23 297.529 590.23C296.875 590.23 296.199 590.277 295.499 590.37C294.799 590.417 294.122 590.487 293.469 590.58V619H283.039V583.44C283.925 583.207 284.952 582.973 286.119 582.74C287.332 582.46 288.592 582.227 289.899 582.04C291.252 581.807 292.629 581.643 294.029 581.55C295.429 581.41 296.805 581.34 298.159 581.34C300.819 581.34 302.965 581.69 304.599 582.39C306.279 583.043 307.655 583.837 308.729 584.77C310.222 583.697 311.925 582.857 313.839 582.25C315.799 581.643 317.595 581.34 319.229 581.34C322.169 581.34 324.572 581.76 326.439 582.6C328.352 583.393 329.869 584.537 330.989 586.03C332.109 587.523 332.879 589.297 333.299 591.35C333.719 593.403 333.929 595.69 333.929 598.21V619H323.499V599.47C323.499 596.11 323.055 593.73 322.169 592.33C321.329 590.93 319.859 590.23 317.759 590.23C317.199 590.23 316.405 590.37 315.379 590.65C314.399 590.93 313.582 591.28 312.929 591.7C313.255 592.773 313.465 593.917 313.559 595.13C313.652 596.297 313.699 597.557 313.699 598.91V619H303.269V599.47ZM374.286 611.72C375.313 611.72 376.293 611.697 377.226 611.65C378.16 611.603 378.906 611.533 379.466 611.44V603.53C379.046 603.437 378.416 603.343 377.576 603.25C376.736 603.157 375.966 603.11 375.266 603.11C374.286 603.11 373.353 603.18 372.466 603.32C371.626 603.413 370.88 603.623 370.226 603.95C369.573 604.277 369.06 604.72 368.686 605.28C368.313 605.84 368.126 606.54 368.126 607.38C368.126 609.013 368.663 610.157 369.736 610.81C370.856 611.417 372.373 611.72 374.286 611.72ZM373.446 581.2C376.526 581.2 379.093 581.55 381.146 582.25C383.2 582.95 384.833 583.953 386.046 585.26C387.306 586.567 388.193 588.153 388.706 590.02C389.22 591.887 389.476 593.963 389.476 596.25V617.95C387.983 618.277 385.906 618.65 383.246 619.07C380.586 619.537 377.366 619.77 373.586 619.77C371.206 619.77 369.036 619.56 367.076 619.14C365.163 618.72 363.506 618.043 362.106 617.11C360.706 616.13 359.633 614.87 358.886 613.33C358.14 611.79 357.766 609.9 357.766 607.66C357.766 605.513 358.186 603.693 359.026 602.2C359.913 600.707 361.08 599.517 362.526 598.63C363.973 597.743 365.63 597.113 367.496 596.74C369.363 596.32 371.3 596.11 373.306 596.11C374.66 596.11 375.85 596.18 376.876 596.32C377.95 596.413 378.813 596.553 379.466 596.74V595.76C379.466 593.987 378.93 592.563 377.856 591.49C376.783 590.417 374.916 589.88 372.256 589.88C370.483 589.88 368.733 590.02 367.006 590.3C365.28 590.533 363.786 590.883 362.526 591.35L361.196 582.95C361.803 582.763 362.55 582.577 363.436 582.39C364.37 582.157 365.373 581.97 366.446 581.83C367.52 581.643 368.64 581.503 369.806 581.41C371.02 581.27 372.233 581.2 373.446 581.2ZM398.908 583.44C400.681 582.927 402.968 582.46 405.768 582.04C408.568 581.573 411.508 581.34 414.588 581.34C417.714 581.34 420.304 581.76 422.358 582.6C424.458 583.393 426.114 584.537 427.328 586.03C428.541 587.523 429.404 589.297 429.918 591.35C430.431 593.403 430.688 595.69 430.688 598.21V619H420.258V599.47C420.258 596.11 419.814 593.73 418.928 592.33C418.041 590.93 416.384 590.23 413.958 590.23C413.211 590.23 412.418 590.277 411.578 590.37C410.738 590.417 409.991 590.487 409.338 590.58V619H398.908V583.44ZM439.779 573.01L450.209 571.33V582.18H462.739V590.86H450.209V603.81C450.209 606.003 450.582 607.753 451.329 609.06C452.122 610.367 453.685 611.02 456.019 611.02C457.139 611.02 458.282 610.927 459.449 610.74C460.662 610.507 461.759 610.203 462.739 609.83L464.209 617.95C462.949 618.463 461.549 618.907 460.009 619.28C458.469 619.653 456.579 619.84 454.339 619.84C451.492 619.84 449.135 619.467 447.269 618.72C445.402 617.927 443.909 616.853 442.789 615.5C441.669 614.1 440.875 612.42 440.409 610.46C439.989 608.5 439.779 606.33 439.779 603.95V573.01ZM468.115 600.87C468.115 597.603 468.605 594.757 469.585 592.33C470.612 589.857 471.942 587.803 473.575 586.17C475.208 584.537 477.075 583.3 479.175 582.46C481.322 581.62 483.515 581.2 485.755 581.2C490.982 581.2 495.112 582.81 498.145 586.03C501.178 589.203 502.695 593.893 502.695 600.1C502.695 600.707 502.672 601.383 502.625 602.13C502.578 602.83 502.532 603.46 502.485 604.02H478.825C479.058 606.167 480.062 607.87 481.835 609.13C483.608 610.39 485.988 611.02 488.975 611.02C490.888 611.02 492.755 610.857 494.575 610.53C496.442 610.157 497.958 609.713 499.125 609.2L500.525 617.67C499.965 617.95 499.218 618.23 498.285 618.51C497.352 618.79 496.302 619.023 495.135 619.21C494.015 619.443 492.802 619.63 491.495 619.77C490.188 619.91 488.882 619.98 487.575 619.98C484.262 619.98 481.368 619.49 478.895 618.51C476.468 617.53 474.438 616.2 472.805 614.52C471.218 612.793 470.028 610.763 469.235 608.43C468.488 606.097 468.115 603.577 468.115 600.87ZM492.615 596.88C492.568 595.993 492.405 595.13 492.125 594.29C491.892 593.45 491.495 592.703 490.935 592.05C490.422 591.397 489.745 590.86 488.905 590.44C488.112 590.02 487.108 589.81 485.895 589.81C484.728 589.81 483.725 590.02 482.885 590.44C482.045 590.813 481.345 591.327 480.785 591.98C480.225 592.633 479.782 593.403 479.455 594.29C479.175 595.13 478.965 595.993 478.825 596.88H492.615ZM521.314 611.51C523.227 611.51 524.58 611.323 525.374 610.95C526.167 610.577 526.564 609.853 526.564 608.78C526.564 607.94 526.05 607.217 525.024 606.61C523.997 605.957 522.434 605.233 520.334 604.44C518.7 603.833 517.207 603.203 515.854 602.55C514.547 601.897 513.427 601.127 512.494 600.24C511.56 599.307 510.837 598.21 510.324 596.95C509.81 595.69 509.554 594.173 509.554 592.4C509.554 588.947 510.837 586.217 513.404 584.21C515.97 582.203 519.494 581.2 523.974 581.2C526.214 581.2 528.36 581.41 530.414 581.83C532.467 582.203 534.1 582.623 535.314 583.09L533.494 591.21C532.28 590.79 530.95 590.417 529.504 590.09C528.104 589.763 526.517 589.6 524.744 589.6C521.477 589.6 519.844 590.51 519.844 592.33C519.844 592.75 519.914 593.123 520.054 593.45C520.194 593.777 520.474 594.103 520.894 594.43C521.314 594.71 521.874 595.037 522.574 595.41C523.32 595.737 524.254 596.11 525.374 596.53C527.66 597.37 529.55 598.21 531.044 599.05C532.537 599.843 533.704 600.73 534.544 601.71C535.43 602.643 536.037 603.693 536.364 604.86C536.737 606.027 536.924 607.38 536.924 608.92C536.924 612.56 535.547 615.313 532.794 617.18C530.087 619.047 526.237 619.98 521.244 619.98C517.977 619.98 515.247 619.7 513.054 619.14C510.907 618.58 509.414 618.113 508.574 617.74L510.324 609.27C512.097 609.97 513.917 610.53 515.784 610.95C517.65 611.323 519.494 611.51 521.314 611.51ZM554.938 588.62C554.938 590.72 554.262 592.33 552.908 593.45C551.602 594.523 550.108 595.06 548.428 595.06C546.748 595.06 545.232 594.523 543.878 593.45C542.572 592.33 541.918 590.72 541.918 588.62C541.918 586.52 542.572 584.933 543.878 583.86C545.232 582.74 546.748 582.18 548.428 582.18C550.108 582.18 551.602 582.74 552.908 583.86C554.262 584.933 554.938 586.52 554.938 588.62ZM554.938 613.47C554.938 615.57 554.262 617.18 552.908 618.3C551.602 619.373 550.108 619.91 548.428 619.91C546.748 619.91 545.232 619.373 543.878 618.3C542.572 617.18 541.918 615.57 541.918 613.47C541.918 611.37 542.572 609.783 543.878 608.71C545.232 607.59 546.748 607.03 548.428 607.03C550.108 607.03 551.602 607.59 552.908 608.71C554.262 609.783 554.938 611.37 554.938 613.47Z" fill="white"/>
</g>
<defs>
<clipPath id="clip0_104_260">
<rect width="1300" height="976" fill="white"/>
</clipPath>
</defs>
</svg>
