<svg width="1300" height="976" viewBox="0 0 1300 976" fill="none" xmlns="http://www.w3.org/2000/svg">
<g clip-path="url(#clip0_104_284)">
<path d="M139.49 390.87C139.49 387.65 138.767 385.083 137.32 383.17C135.873 381.21 133.727 380.23 130.88 380.23C129.947 380.23 129.083 380.277 128.29 380.37C127.497 380.417 126.843 380.487 126.33 380.58V399.41C126.983 399.83 127.823 400.18 128.85 400.46C129.923 400.74 130.997 400.88 132.07 400.88C137.017 400.88 139.49 397.543 139.49 390.87ZM150.13 390.59C150.13 393.437 149.78 396.027 149.08 398.36C148.38 400.693 147.353 402.7 146 404.38C144.647 406.06 142.967 407.367 140.96 408.3C138.953 409.233 136.643 409.7 134.03 409.7C132.583 409.7 131.23 409.56 129.97 409.28C128.71 409 127.497 408.603 126.33 408.09V421.95H115.9V373.44C116.833 373.16 117.907 372.903 119.12 372.67C120.333 372.39 121.593 372.157 122.9 371.97C124.253 371.783 125.607 371.643 126.96 371.55C128.36 371.41 129.69 371.34 130.95 371.34C133.983 371.34 136.69 371.807 139.07 372.74C141.45 373.627 143.457 374.91 145.09 376.59C146.723 378.223 147.96 380.23 148.8 382.61C149.687 384.99 150.13 387.65 150.13 390.59ZM192.586 390.52C192.586 393.413 192.166 396.073 191.326 398.5C190.486 400.88 189.273 402.933 187.686 404.66C186.099 406.34 184.186 407.647 181.946 408.58C179.753 409.513 177.279 409.98 174.526 409.98C171.819 409.98 169.346 409.513 167.106 408.58C164.913 407.647 163.023 406.34 161.436 404.66C159.849 402.933 158.613 400.88 157.726 398.5C156.839 396.073 156.396 393.413 156.396 390.52C156.396 387.627 156.839 384.99 157.726 382.61C158.659 380.23 159.919 378.2 161.506 376.52C163.139 374.84 165.053 373.533 167.246 372.6C169.486 371.667 171.913 371.2 174.526 371.2C177.186 371.2 179.613 371.667 181.806 372.6C184.046 373.533 185.959 374.84 187.546 376.52C189.133 378.2 190.369 380.23 191.256 382.61C192.143 384.99 192.586 387.627 192.586 390.52ZM181.946 390.52C181.946 387.3 181.293 384.78 179.986 382.96C178.726 381.093 176.906 380.16 174.526 380.16C172.146 380.16 170.303 381.093 168.996 382.96C167.689 384.78 167.036 387.3 167.036 390.52C167.036 393.74 167.689 396.307 168.996 398.22C170.303 400.087 172.146 401.02 174.526 401.02C176.906 401.02 178.726 400.087 179.986 398.22C181.293 396.307 181.946 393.74 181.946 390.52ZM222.856 381.42C221.922 381.187 220.826 380.953 219.566 380.72C218.306 380.44 216.952 380.3 215.506 380.3C214.852 380.3 214.059 380.37 213.126 380.51C212.239 380.603 211.562 380.72 211.096 380.86V409H200.666V374.14C202.532 373.487 204.726 372.88 207.246 372.32C209.812 371.713 212.659 371.41 215.786 371.41C216.346 371.41 217.022 371.457 217.816 371.55C218.609 371.597 219.402 371.69 220.196 371.83C220.989 371.923 221.782 372.063 222.576 372.25C223.369 372.39 224.046 372.577 224.606 372.81L222.856 381.42ZM238.403 390.87C238.403 397.543 240.877 400.88 245.823 400.88C246.897 400.88 247.947 400.74 248.973 400.46C250.047 400.18 250.91 399.83 251.563 399.41V380.58C251.05 380.487 250.397 380.417 249.603 380.37C248.81 380.277 247.947 380.23 247.013 380.23C244.167 380.23 242.02 381.21 240.573 383.17C239.127 385.083 238.403 387.65 238.403 390.87ZM227.763 390.59C227.763 387.743 228.183 385.153 229.023 382.82C229.91 380.44 231.17 378.41 232.803 376.73C234.437 375.003 236.443 373.673 238.823 372.74C241.203 371.807 243.91 371.34 246.943 371.34C248.203 371.34 249.51 371.41 250.863 371.55C252.263 371.643 253.617 371.783 254.923 371.97C256.277 372.157 257.56 372.39 258.773 372.67C259.987 372.903 261.06 373.16 261.993 373.44V421.95H251.563V408.09C250.397 408.603 249.183 409 247.923 409.28C246.663 409.56 245.31 409.7 243.863 409.7C238.637 409.7 234.647 407.997 231.893 404.59C229.14 401.137 227.763 396.47 227.763 390.59ZM303.189 407.74C301.416 408.253 299.129 408.72 296.329 409.14C293.529 409.607 290.589 409.84 287.509 409.84C284.383 409.84 281.769 409.42 279.669 408.58C277.616 407.74 275.983 406.573 274.769 405.08C273.556 403.54 272.693 401.72 272.179 399.62C271.666 397.52 271.409 395.21 271.409 392.69V372.18H281.839V391.43C281.839 394.79 282.283 397.217 283.169 398.71C284.056 400.203 285.713 400.95 288.139 400.95C288.886 400.95 289.679 400.927 290.519 400.88C291.359 400.787 292.106 400.693 292.759 400.6V372.18H303.189V407.74ZM311.23 390.87C311.23 387.603 311.72 384.757 312.7 382.33C313.727 379.857 315.057 377.803 316.69 376.17C318.323 374.537 320.19 373.3 322.29 372.46C324.437 371.62 326.63 371.2 328.87 371.2C334.097 371.2 338.227 372.81 341.26 376.03C344.293 379.203 345.81 383.893 345.81 390.1C345.81 390.707 345.787 391.383 345.74 392.13C345.693 392.83 345.647 393.46 345.6 394.02H321.94C322.173 396.167 323.177 397.87 324.95 399.13C326.723 400.39 329.103 401.02 332.09 401.02C334.003 401.02 335.87 400.857 337.69 400.53C339.557 400.157 341.073 399.713 342.24 399.2L343.64 407.67C343.08 407.95 342.333 408.23 341.4 408.51C340.467 408.79 339.417 409.023 338.25 409.21C337.13 409.443 335.917 409.63 334.61 409.77C333.303 409.91 331.997 409.98 330.69 409.98C327.377 409.98 324.483 409.49 322.01 408.51C319.583 407.53 317.553 406.2 315.92 404.52C314.333 402.793 313.143 400.763 312.35 398.43C311.603 396.097 311.23 393.577 311.23 390.87ZM335.73 386.88C335.683 385.993 335.52 385.13 335.24 384.29C335.007 383.45 334.61 382.703 334.05 382.05C333.537 381.397 332.86 380.86 332.02 380.44C331.227 380.02 330.223 379.81 329.01 379.81C327.843 379.81 326.84 380.02 326 380.44C325.16 380.813 324.46 381.327 323.9 381.98C323.34 382.633 322.897 383.403 322.57 384.29C322.29 385.13 322.08 385.993 321.94 386.88H335.73ZM339.37 363.85L335.52 368.47L328.52 363.08L321.52 368.47L317.53 363.85L328.52 354.26L339.37 363.85ZM405.115 390.52C405.115 393.413 404.695 396.073 403.855 398.5C403.015 400.88 401.802 402.933 400.215 404.66C398.629 406.34 396.715 407.647 394.475 408.58C392.282 409.513 389.809 409.98 387.055 409.98C384.349 409.98 381.875 409.513 379.635 408.58C377.442 407.647 375.552 406.34 373.965 404.66C372.379 402.933 371.142 400.88 370.255 398.5C369.369 396.073 368.925 393.413 368.925 390.52C368.925 387.627 369.369 384.99 370.255 382.61C371.189 380.23 372.449 378.2 374.035 376.52C375.669 374.84 377.582 373.533 379.775 372.6C382.015 371.667 384.442 371.2 387.055 371.2C389.715 371.2 392.142 371.667 394.335 372.6C396.575 373.533 398.489 374.84 400.075 376.52C401.662 378.2 402.899 380.23 403.785 382.61C404.672 384.99 405.115 387.627 405.115 390.52ZM394.475 390.52C394.475 387.3 393.822 384.78 392.515 382.96C391.255 381.093 389.435 380.16 387.055 380.16C384.675 380.16 382.832 381.093 381.525 382.96C380.219 384.78 379.565 387.3 379.565 390.52C379.565 393.74 380.219 396.307 381.525 398.22C382.832 400.087 384.675 401.02 387.055 401.02C389.435 401.02 391.255 400.087 392.515 398.22C393.822 396.307 394.475 393.74 394.475 390.52ZM438.901 390.87C438.901 397.543 441.375 400.88 446.321 400.88C447.395 400.88 448.445 400.74 449.471 400.46C450.545 400.18 451.408 399.83 452.061 399.41V380.58C451.548 380.487 450.895 380.417 450.101 380.37C449.308 380.277 448.445 380.23 447.511 380.23C444.665 380.23 442.518 381.21 441.071 383.17C439.625 385.083 438.901 387.65 438.901 390.87ZM428.261 390.59C428.261 387.743 428.681 385.153 429.521 382.82C430.408 380.44 431.668 378.41 433.301 376.73C434.935 375.003 436.941 373.673 439.321 372.74C441.701 371.807 444.408 371.34 447.441 371.34C448.701 371.34 450.008 371.41 451.361 371.55C452.761 371.643 454.115 371.783 455.421 371.97C456.775 372.157 458.058 372.39 459.271 372.67C460.485 372.903 461.558 373.16 462.491 373.44V421.95H452.061V408.09C450.895 408.603 449.681 409 448.421 409.28C447.161 409.56 445.808 409.7 444.361 409.7C439.135 409.7 435.145 407.997 432.391 404.59C429.638 401.137 428.261 396.47 428.261 390.59ZM503.687 407.74C501.914 408.253 499.627 408.72 496.827 409.14C494.027 409.607 491.087 409.84 488.007 409.84C484.881 409.84 482.267 409.42 480.167 408.58C478.114 407.74 476.481 406.573 475.267 405.08C474.054 403.54 473.191 401.72 472.677 399.62C472.164 397.52 471.907 395.21 471.907 392.69V372.18H482.337V391.43C482.337 394.79 482.781 397.217 483.667 398.71C484.554 400.203 486.211 400.95 488.637 400.95C489.384 400.95 490.177 400.927 491.017 400.88C491.857 400.787 492.604 400.693 493.257 400.6V372.18H503.687V407.74ZM511.728 390.87C511.728 387.603 512.218 384.757 513.198 382.33C514.225 379.857 515.555 377.803 517.188 376.17C518.821 374.537 520.688 373.3 522.788 372.46C524.935 371.62 527.128 371.2 529.368 371.2C534.595 371.2 538.725 372.81 541.758 376.03C544.791 379.203 546.308 383.893 546.308 390.1C546.308 390.707 546.285 391.383 546.238 392.13C546.191 392.83 546.145 393.46 546.098 394.02H522.438C522.671 396.167 523.675 397.87 525.448 399.13C527.221 400.39 529.601 401.02 532.588 401.02C534.501 401.02 536.368 400.857 538.188 400.53C540.055 400.157 541.571 399.713 542.738 399.2L544.138 407.67C543.578 407.95 542.831 408.23 541.898 408.51C540.965 408.79 539.915 409.023 538.748 409.21C537.628 409.443 536.415 409.63 535.108 409.77C533.801 409.91 532.495 409.98 531.188 409.98C527.875 409.98 524.981 409.49 522.508 408.51C520.081 407.53 518.051 406.2 516.418 404.52C514.831 402.793 513.641 400.763 512.848 398.43C512.101 396.097 511.728 393.577 511.728 390.87ZM536.228 386.88C536.181 385.993 536.018 385.13 535.738 384.29C535.505 383.45 535.108 382.703 534.548 382.05C534.035 381.397 533.358 380.86 532.518 380.44C531.725 380.02 530.721 379.81 529.508 379.81C528.341 379.81 527.338 380.02 526.498 380.44C525.658 380.813 524.958 381.327 524.398 381.98C523.838 382.633 523.395 383.403 523.068 384.29C522.788 385.13 522.578 385.993 522.438 386.88H536.228ZM581.743 401.51C583.657 401.51 585.01 401.323 585.803 400.95C586.597 400.577 586.993 399.853 586.993 398.78C586.993 397.94 586.48 397.217 585.453 396.61C584.427 395.957 582.863 395.233 580.763 394.44C579.13 393.833 577.637 393.203 576.283 392.55C574.977 391.897 573.857 391.127 572.923 390.24C571.99 389.307 571.267 388.21 570.753 386.95C570.24 385.69 569.983 384.173 569.983 382.4C569.983 378.947 571.267 376.217 573.833 374.21C576.4 372.203 579.923 371.2 584.403 371.2C586.643 371.2 588.79 371.41 590.843 371.83C592.897 372.203 594.53 372.623 595.743 373.09L593.923 381.21C592.71 380.79 591.38 380.417 589.933 380.09C588.533 379.763 586.947 379.6 585.173 379.6C581.907 379.6 580.273 380.51 580.273 382.33C580.273 382.75 580.343 383.123 580.483 383.45C580.623 383.777 580.903 384.103 581.323 384.43C581.743 384.71 582.303 385.037 583.003 385.41C583.75 385.737 584.683 386.11 585.803 386.53C588.09 387.37 589.98 388.21 591.473 389.05C592.967 389.843 594.133 390.73 594.973 391.71C595.86 392.643 596.467 393.693 596.793 394.86C597.167 396.027 597.353 397.38 597.353 398.92C597.353 402.56 595.977 405.313 593.223 407.18C590.517 409.047 586.667 409.98 581.673 409.98C578.407 409.98 575.677 409.7 573.483 409.14C571.337 408.58 569.843 408.113 569.003 407.74L570.753 399.27C572.527 399.97 574.347 400.53 576.213 400.95C578.08 401.323 579.923 401.51 581.743 401.51ZM603.398 390.87C603.398 387.603 603.888 384.757 604.868 382.33C605.895 379.857 607.225 377.803 608.858 376.17C610.491 374.537 612.358 373.3 614.458 372.46C616.605 371.62 618.798 371.2 621.038 371.2C626.265 371.2 630.395 372.81 633.428 376.03C636.461 379.203 637.978 383.893 637.978 390.1C637.978 390.707 637.955 391.383 637.908 392.13C637.861 392.83 637.815 393.46 637.768 394.02H614.108C614.341 396.167 615.345 397.87 617.118 399.13C618.891 400.39 621.271 401.02 624.258 401.02C626.171 401.02 628.038 400.857 629.858 400.53C631.725 400.157 633.241 399.713 634.408 399.2L635.808 407.67C635.248 407.95 634.501 408.23 633.568 408.51C632.635 408.79 631.585 409.023 630.418 409.21C629.298 409.443 628.085 409.63 626.778 409.77C625.471 409.91 624.165 409.98 622.858 409.98C619.545 409.98 616.651 409.49 614.178 408.51C611.751 407.53 609.721 406.2 608.088 404.52C606.501 402.793 605.311 400.763 604.518 398.43C603.771 396.097 603.398 393.577 603.398 390.87ZM627.898 386.88C627.851 385.993 627.688 385.13 627.408 384.29C627.175 383.45 626.778 382.703 626.218 382.05C625.705 381.397 625.028 380.86 624.188 380.44C623.395 380.02 622.391 379.81 621.178 379.81C620.011 379.81 619.008 380.02 618.168 380.44C617.328 380.813 616.628 381.327 616.068 381.98C615.508 382.633 615.065 383.403 614.738 384.29C614.458 385.13 614.248 385.993 614.108 386.88H627.898ZM686.433 390.87C686.433 387.65 685.71 385.083 684.263 383.17C682.817 381.21 680.67 380.23 677.823 380.23C676.89 380.23 676.027 380.277 675.233 380.37C674.44 380.417 673.787 380.487 673.273 380.58V399.41C673.927 399.83 674.767 400.18 675.793 400.46C676.867 400.74 677.94 400.88 679.013 400.88C683.96 400.88 686.433 397.543 686.433 390.87ZM697.073 390.59C697.073 393.437 696.723 396.027 696.023 398.36C695.323 400.693 694.297 402.7 692.943 404.38C691.59 406.06 689.91 407.367 687.903 408.3C685.897 409.233 683.587 409.7 680.973 409.7C679.527 409.7 678.173 409.56 676.913 409.28C675.653 409 674.44 408.603 673.273 408.09V421.95H662.843V373.44C663.777 373.16 664.85 372.903 666.063 372.67C667.277 372.39 668.537 372.157 669.843 371.97C671.197 371.783 672.55 371.643 673.903 371.55C675.303 371.41 676.633 371.34 677.893 371.34C680.927 371.34 683.633 371.807 686.013 372.74C688.393 373.627 690.4 374.91 692.033 376.59C693.667 378.223 694.903 380.23 695.743 382.61C696.63 384.99 697.073 387.65 697.073 390.59ZM727.279 381.42C726.346 381.187 725.249 380.953 723.989 380.72C722.729 380.44 721.376 380.3 719.929 380.3C719.276 380.3 718.483 380.37 717.549 380.51C716.663 380.603 715.986 380.72 715.519 380.86V409H705.089V374.14C706.956 373.487 709.149 372.88 711.669 372.32C714.236 371.713 717.083 371.41 720.209 371.41C720.769 371.41 721.446 371.457 722.239 371.55C723.033 371.597 723.826 371.69 724.619 371.83C725.413 371.923 726.206 372.063 726.999 372.25C727.793 372.39 728.469 372.577 729.029 372.81L727.279 381.42ZM768.377 390.52C768.377 393.413 767.957 396.073 767.117 398.5C766.277 400.88 765.064 402.933 763.477 404.66C761.89 406.34 759.977 407.647 757.737 408.58C755.544 409.513 753.07 409.98 750.317 409.98C747.61 409.98 745.137 409.513 742.897 408.58C740.704 407.647 738.814 406.34 737.227 404.66C735.64 402.933 734.404 400.88 733.517 398.5C732.63 396.073 732.187 393.413 732.187 390.52C732.187 387.627 732.63 384.99 733.517 382.61C734.45 380.23 735.71 378.2 737.297 376.52C738.93 374.84 740.844 373.533 743.037 372.6C745.277 371.667 747.704 371.2 750.317 371.2C752.977 371.2 755.404 371.667 757.597 372.6C759.837 373.533 761.75 374.84 763.337 376.52C764.924 378.2 766.16 380.23 767.047 382.61C767.934 384.99 768.377 387.627 768.377 390.52ZM757.737 390.52C757.737 387.3 757.084 384.78 755.777 382.96C754.517 381.093 752.697 380.16 750.317 380.16C747.937 380.16 746.094 381.093 744.787 382.96C743.48 384.78 742.827 387.3 742.827 390.52C742.827 393.74 743.48 396.307 744.787 398.22C746.094 400.087 747.937 401.02 750.317 401.02C752.697 401.02 754.517 400.087 755.777 398.22C757.084 396.307 757.737 393.74 757.737 390.52ZM773.027 421.95C772.373 421.95 771.417 421.88 770.157 421.74C768.85 421.6 767.637 421.343 766.517 420.97L767.917 412.5C768.617 412.733 769.27 412.897 769.877 412.99C770.437 413.083 771.16 413.13 772.047 413.13C773.68 413.13 774.823 412.64 775.477 411.66C776.13 410.68 776.457 409.257 776.457 407.39V372.18H786.887V407.67C786.887 412.523 785.697 416.117 783.317 418.45C780.937 420.783 777.507 421.95 773.027 421.95ZM787.867 361.54C787.867 363.453 787.237 364.97 785.977 366.09C784.763 367.163 783.317 367.7 781.637 367.7C779.957 367.7 778.487 367.163 777.227 366.09C776.013 364.97 775.407 363.453 775.407 361.54C775.407 359.627 776.013 358.133 777.227 357.06C778.487 355.94 779.957 355.38 781.637 355.38C783.317 355.38 784.763 355.94 785.977 357.06C787.237 358.133 787.867 359.627 787.867 361.54ZM794.941 390.87C794.941 387.603 795.431 384.757 796.411 382.33C797.438 379.857 798.768 377.803 800.401 376.17C802.034 374.537 803.901 373.3 806.001 372.46C808.148 371.62 810.341 371.2 812.581 371.2C817.808 371.2 821.938 372.81 824.971 376.03C828.004 379.203 829.521 383.893 829.521 390.1C829.521 390.707 829.498 391.383 829.451 392.13C829.404 392.83 829.358 393.46 829.311 394.02H805.651C805.884 396.167 806.888 397.87 808.661 399.13C810.434 400.39 812.814 401.02 815.801 401.02C817.714 401.02 819.581 400.857 821.401 400.53C823.268 400.157 824.784 399.713 825.951 399.2L827.351 407.67C826.791 407.95 826.044 408.23 825.111 408.51C824.178 408.79 823.128 409.023 821.961 409.21C820.841 409.443 819.628 409.63 818.321 409.77C817.014 409.91 815.708 409.98 814.401 409.98C811.088 409.98 808.194 409.49 805.721 408.51C803.294 407.53 801.264 406.2 799.631 404.52C798.044 402.793 796.854 400.763 796.061 398.43C795.314 396.097 794.941 393.577 794.941 390.87ZM819.441 386.88C819.394 385.993 819.231 385.13 818.951 384.29C818.718 383.45 818.321 382.703 817.761 382.05C817.248 381.397 816.571 380.86 815.731 380.44C814.938 380.02 813.934 379.81 812.721 379.81C811.554 379.81 810.551 380.02 809.711 380.44C808.871 380.813 808.171 381.327 807.611 381.98C807.051 382.633 806.608 383.403 806.281 384.29C806.001 385.13 805.791 385.993 805.651 386.88H819.441ZM837.22 363.01L847.65 361.33V372.18H860.18V380.86H847.65V393.81C847.65 396.003 848.023 397.753 848.77 399.06C849.563 400.367 851.127 401.02 853.46 401.02C854.58 401.02 855.723 400.927 856.89 400.74C858.103 400.507 859.2 400.203 860.18 399.83L861.65 407.95C860.39 408.463 858.99 408.907 857.45 409.28C855.91 409.653 854.02 409.84 851.78 409.84C848.933 409.84 846.577 409.467 844.71 408.72C842.843 407.927 841.35 406.853 840.23 405.5C839.11 404.1 838.317 402.42 837.85 400.46C837.43 398.5 837.22 396.33 837.22 393.95V363.01ZM881.376 401.72C882.403 401.72 883.383 401.697 884.316 401.65C885.25 401.603 885.996 401.533 886.556 401.44V393.53C886.136 393.437 885.506 393.343 884.666 393.25C883.826 393.157 883.056 393.11 882.356 393.11C881.376 393.11 880.443 393.18 879.556 393.32C878.716 393.413 877.97 393.623 877.316 393.95C876.663 394.277 876.15 394.72 875.776 395.28C875.403 395.84 875.216 396.54 875.216 397.38C875.216 399.013 875.753 400.157 876.826 400.81C877.946 401.417 879.463 401.72 881.376 401.72ZM880.536 371.2C883.616 371.2 886.183 371.55 888.236 372.25C890.29 372.95 891.923 373.953 893.136 375.26C894.396 376.567 895.283 378.153 895.796 380.02C896.31 381.887 896.566 383.963 896.566 386.25V407.95C895.073 408.277 892.996 408.65 890.336 409.07C887.676 409.537 884.456 409.77 880.676 409.77C878.296 409.77 876.126 409.56 874.166 409.14C872.253 408.72 870.596 408.043 869.196 407.11C867.796 406.13 866.723 404.87 865.976 403.33C865.23 401.79 864.856 399.9 864.856 397.66C864.856 395.513 865.276 393.693 866.116 392.2C867.003 390.707 868.17 389.517 869.616 388.63C871.063 387.743 872.72 387.113 874.586 386.74C876.453 386.32 878.39 386.11 880.396 386.11C881.75 386.11 882.94 386.18 883.966 386.32C885.04 386.413 885.903 386.553 886.556 386.74V385.76C886.556 383.987 886.02 382.563 884.946 381.49C883.873 380.417 882.006 379.88 879.346 379.88C877.573 379.88 875.823 380.02 874.096 380.3C872.37 380.533 870.876 380.883 869.616 381.35L868.286 372.95C868.893 372.763 869.64 372.577 870.526 372.39C871.46 372.157 872.463 371.97 873.536 371.83C874.61 371.643 875.73 371.503 876.896 371.41C878.11 371.27 879.323 371.2 880.536 371.2ZM922.814 373.44C924.587 372.927 926.874 372.46 929.674 372.04C932.474 371.573 935.414 371.34 938.494 371.34C941.621 371.34 944.211 371.76 946.264 372.6C948.364 373.393 950.021 374.537 951.234 376.03C952.447 377.523 953.311 379.297 953.824 381.35C954.337 383.403 954.594 385.69 954.594 388.21V409H944.164V389.47C944.164 386.11 943.721 383.73 942.834 382.33C941.947 380.93 940.291 380.23 937.864 380.23C937.117 380.23 936.324 380.277 935.484 380.37C934.644 380.417 933.897 380.487 933.244 380.58V409H922.814V373.44ZM978.105 401.72C979.131 401.72 980.111 401.697 981.045 401.65C981.978 401.603 982.725 401.533 983.285 401.44V393.53C982.865 393.437 982.235 393.343 981.395 393.25C980.555 393.157 979.785 393.11 979.085 393.11C978.105 393.11 977.171 393.18 976.285 393.32C975.445 393.413 974.698 393.623 974.045 393.95C973.391 394.277 972.878 394.72 972.505 395.28C972.131 395.84 971.945 396.54 971.945 397.38C971.945 399.013 972.481 400.157 973.555 400.81C974.675 401.417 976.191 401.72 978.105 401.72ZM977.265 371.2C980.345 371.2 982.911 371.55 984.965 372.25C987.018 372.95 988.651 373.953 989.865 375.26C991.125 376.567 992.011 378.153 992.525 380.02C993.038 381.887 993.295 383.963 993.295 386.25V407.95C991.801 408.277 989.725 408.65 987.065 409.07C984.405 409.537 981.185 409.77 977.405 409.77C975.025 409.77 972.855 409.56 970.895 409.14C968.981 408.72 967.325 408.043 965.925 407.11C964.525 406.13 963.451 404.87 962.705 403.33C961.958 401.79 961.585 399.9 961.585 397.66C961.585 395.513 962.005 393.693 962.845 392.2C963.731 390.707 964.898 389.517 966.345 388.63C967.791 387.743 969.448 387.113 971.315 386.74C973.181 386.32 975.118 386.11 977.125 386.11C978.478 386.11 979.668 386.18 980.695 386.32C981.768 386.413 982.631 386.553 983.285 386.74V385.76C983.285 383.987 982.748 382.563 981.675 381.49C980.601 380.417 978.735 379.88 976.075 379.88C974.301 379.88 972.551 380.02 970.825 380.3C969.098 380.533 967.605 380.883 966.345 381.35L965.015 372.95C965.621 372.763 966.368 372.577 967.255 372.39C968.188 372.157 969.191 371.97 970.265 371.83C971.338 371.643 972.458 371.503 973.625 371.41C974.838 371.27 976.051 371.2 977.265 371.2ZM990.985 359.37C990.705 360.07 990.308 360.84 989.795 361.68C989.328 362.52 988.745 363.313 988.045 364.06C987.345 364.76 986.551 365.343 985.665 365.81C984.778 366.277 983.798 366.51 982.725 366.51C981.885 366.51 981.091 366.393 980.345 366.16C979.645 365.88 978.945 365.6 978.245 365.32C977.545 364.993 976.845 364.713 976.145 364.48C975.445 364.2 974.721 364.06 973.975 364.06C973.041 364.06 972.271 364.363 971.665 364.97C971.058 365.577 970.568 366.277 970.195 367.07L965.085 363.71C965.365 363.01 965.738 362.24 966.205 361.4C966.718 360.56 967.325 359.79 968.025 359.09C968.725 358.343 969.518 357.737 970.405 357.27C971.291 356.803 972.271 356.57 973.345 356.57C974.185 356.57 974.955 356.71 975.655 356.99C976.401 357.223 977.125 357.503 977.825 357.83C978.525 358.11 979.201 358.39 979.855 358.67C980.555 358.903 981.301 359.02 982.095 359.02C983.028 359.02 983.798 358.717 984.405 358.11C985.011 357.503 985.501 356.803 985.875 356.01L990.985 359.37ZM1037.17 390.52C1037.17 393.413 1036.75 396.073 1035.91 398.5C1035.07 400.88 1033.85 402.933 1032.27 404.66C1030.68 406.34 1028.77 407.647 1026.53 408.58C1024.33 409.513 1021.86 409.98 1019.11 409.98C1016.4 409.98 1013.93 409.513 1011.69 408.58C1009.49 407.647 1007.6 406.34 1006.02 404.66C1004.43 402.933 1003.19 400.88 1002.31 398.5C1001.42 396.073 1000.98 393.413 1000.98 390.52C1000.98 387.627 1001.42 384.99 1002.31 382.61C1003.24 380.23 1004.5 378.2 1006.09 376.52C1007.72 374.84 1009.63 373.533 1011.83 372.6C1014.07 371.667 1016.49 371.2 1019.11 371.2C1021.77 371.2 1024.19 371.667 1026.39 372.6C1028.63 373.533 1030.54 374.84 1032.13 376.52C1033.71 378.2 1034.95 380.23 1035.84 382.61C1036.72 384.99 1037.17 387.627 1037.17 390.52ZM1026.53 390.52C1026.53 387.3 1025.87 384.78 1024.57 382.96C1023.31 381.093 1021.49 380.16 1019.11 380.16C1016.73 380.16 1014.88 381.093 1013.58 382.96C1012.27 384.78 1011.62 387.3 1011.62 390.52C1011.62 393.74 1012.27 396.307 1013.58 398.22C1014.88 400.087 1016.73 401.02 1019.11 401.02C1021.49 401.02 1023.31 400.087 1024.57 398.22C1025.87 396.307 1026.53 393.74 1026.53 390.52ZM1060.31 390.87C1060.31 387.603 1060.8 384.757 1061.78 382.33C1062.81 379.857 1064.14 377.803 1065.77 376.17C1067.41 374.537 1069.27 373.3 1071.37 372.46C1073.52 371.62 1075.71 371.2 1077.95 371.2C1083.18 371.2 1087.31 372.81 1090.34 376.03C1093.38 379.203 1094.89 383.893 1094.89 390.1C1094.89 390.707 1094.87 391.383 1094.82 392.13C1094.78 392.83 1094.73 393.46 1094.68 394.02H1071.02C1071.26 396.167 1072.26 397.87 1074.03 399.13C1075.81 400.39 1078.19 401.02 1081.17 401.02C1083.09 401.02 1084.95 400.857 1086.77 400.53C1088.64 400.157 1090.16 399.713 1091.32 399.2L1092.72 407.67C1092.16 407.95 1091.42 408.23 1090.48 408.51C1089.55 408.79 1088.5 409.023 1087.33 409.21C1086.21 409.443 1085 409.63 1083.69 409.77C1082.39 409.91 1081.08 409.98 1079.77 409.98C1076.46 409.98 1073.57 409.49 1071.09 408.51C1068.67 407.53 1066.64 406.2 1065 404.52C1063.42 402.793 1062.23 400.763 1061.43 398.43C1060.69 396.097 1060.31 393.577 1060.31 390.87ZM1084.81 386.88C1084.77 385.993 1084.6 385.13 1084.32 384.29C1084.09 383.45 1083.69 382.703 1083.13 382.05C1082.62 381.397 1081.94 380.86 1081.1 380.44C1080.31 380.02 1079.31 379.81 1078.09 379.81C1076.93 379.81 1075.92 380.02 1075.08 380.44C1074.24 380.813 1073.54 381.327 1072.98 381.98C1072.42 382.633 1071.98 383.403 1071.65 384.29C1071.37 385.13 1071.16 385.993 1071.02 386.88H1084.81ZM1086.42 358.95L1074.87 368.68L1070.11 364.41L1080.05 353.07L1086.42 358.95ZM147.33 477.74C145.557 478.253 143.27 478.72 140.47 479.14C137.67 479.607 134.73 479.84 131.65 479.84C128.523 479.84 125.91 479.42 123.81 478.58C121.757 477.74 120.123 476.573 118.91 475.08C117.697 473.54 116.833 471.72 116.32 469.62C115.807 467.52 115.55 465.21 115.55 462.69V442.18H125.98V461.43C125.98 464.79 126.423 467.217 127.31 468.71C128.197 470.203 129.853 470.95 132.28 470.95C133.027 470.95 133.82 470.927 134.66 470.88C135.5 470.787 136.247 470.693 136.9 470.6V442.18H147.33V477.74ZM177.351 459.47C177.351 456.11 176.907 453.73 176.021 452.33C175.181 450.93 173.711 450.23 171.611 450.23C170.957 450.23 170.281 450.277 169.581 450.37C168.881 450.417 168.204 450.487 167.551 450.58V479H157.121V443.44C158.007 443.207 159.034 442.973 160.201 442.74C161.414 442.46 162.674 442.227 163.981 442.04C165.334 441.807 166.711 441.643 168.111 441.55C169.511 441.41 170.887 441.34 172.241 441.34C174.901 441.34 177.047 441.69 178.681 442.39C180.361 443.043 181.737 443.837 182.811 444.77C184.304 443.697 186.007 442.857 187.921 442.25C189.881 441.643 191.677 441.34 193.311 441.34C196.251 441.34 198.654 441.76 200.521 442.6C202.434 443.393 203.951 444.537 205.071 446.03C206.191 447.523 206.961 449.297 207.381 451.35C207.801 453.403 208.011 455.69 208.011 458.21V479H197.581V459.47C197.581 456.11 197.137 453.73 196.251 452.33C195.411 450.93 193.941 450.23 191.841 450.23C191.281 450.23 190.487 450.37 189.461 450.65C188.481 450.93 187.664 451.28 187.011 451.7C187.337 452.773 187.547 453.917 187.641 455.13C187.734 456.297 187.781 457.557 187.781 458.91V479H177.351V459.47ZM231.552 471.72C232.579 471.72 233.559 471.697 234.492 471.65C235.425 471.603 236.172 471.533 236.732 471.44V463.53C236.312 463.437 235.682 463.343 234.842 463.25C234.002 463.157 233.232 463.11 232.532 463.11C231.552 463.11 230.619 463.18 229.732 463.32C228.892 463.413 228.145 463.623 227.492 463.95C226.839 464.277 226.325 464.72 225.952 465.28C225.579 465.84 225.392 466.54 225.392 467.38C225.392 469.013 225.929 470.157 227.002 470.81C228.122 471.417 229.639 471.72 231.552 471.72ZM230.712 441.2C233.792 441.2 236.359 441.55 238.412 442.25C240.465 442.95 242.099 443.953 243.312 445.26C244.572 446.567 245.459 448.153 245.972 450.02C246.485 451.887 246.742 453.963 246.742 456.25V477.95C245.249 478.277 243.172 478.65 240.512 479.07C237.852 479.537 234.632 479.77 230.852 479.77C228.472 479.77 226.302 479.56 224.342 479.14C222.429 478.72 220.772 478.043 219.372 477.11C217.972 476.13 216.899 474.87 216.152 473.33C215.405 471.79 215.032 469.9 215.032 467.66C215.032 465.513 215.452 463.693 216.292 462.2C217.179 460.707 218.345 459.517 219.792 458.63C221.239 457.743 222.895 457.113 224.762 456.74C226.629 456.32 228.565 456.11 230.572 456.11C231.925 456.11 233.115 456.18 234.142 456.32C235.215 456.413 236.079 456.553 236.732 456.74V455.76C236.732 453.987 236.195 452.563 235.122 451.49C234.049 450.417 232.182 449.88 229.522 449.88C227.749 449.88 225.999 450.02 224.272 450.3C222.545 450.533 221.052 450.883 219.792 451.35L218.462 442.95C219.069 442.763 219.815 442.577 220.702 442.39C221.635 442.157 222.639 441.97 223.712 441.83C224.785 441.643 225.905 441.503 227.072 441.41C228.285 441.27 229.499 441.2 230.712 441.2ZM271.24 460.87C271.24 457.603 271.73 454.757 272.71 452.33C273.737 449.857 275.067 447.803 276.7 446.17C278.333 444.537 280.2 443.3 282.3 442.46C284.447 441.62 286.64 441.2 288.88 441.2C294.107 441.2 298.237 442.81 301.27 446.03C304.303 449.203 305.82 453.893 305.82 460.1C305.82 460.707 305.797 461.383 305.75 462.13C305.703 462.83 305.657 463.46 305.61 464.02H281.95C282.183 466.167 283.187 467.87 284.96 469.13C286.733 470.39 289.113 471.02 292.1 471.02C294.013 471.02 295.88 470.857 297.7 470.53C299.567 470.157 301.083 469.713 302.25 469.2L303.65 477.67C303.09 477.95 302.343 478.23 301.41 478.51C300.477 478.79 299.427 479.023 298.26 479.21C297.14 479.443 295.927 479.63 294.62 479.77C293.313 479.91 292.007 479.98 290.7 479.98C287.387 479.98 284.493 479.49 282.02 478.51C279.593 477.53 277.563 476.2 275.93 474.52C274.343 472.793 273.153 470.763 272.36 468.43C271.613 466.097 271.24 463.577 271.24 460.87ZM295.74 456.88C295.693 455.993 295.53 455.13 295.25 454.29C295.017 453.45 294.62 452.703 294.06 452.05C293.547 451.397 292.87 450.86 292.03 450.44C291.237 450.02 290.233 449.81 289.02 449.81C287.853 449.81 286.85 450.02 286.01 450.44C285.17 450.813 284.47 451.327 283.91 451.98C283.35 452.633 282.907 453.403 282.58 454.29C282.3 455.13 282.09 455.993 281.95 456.88H295.74ZM328.499 453.38L335.779 442.18H346.559L333.959 459.89C336.759 463.39 339.302 466.797 341.589 470.11C343.875 473.423 345.695 476.387 347.049 479H335.849C335.475 478.3 335.009 477.437 334.449 476.41C333.889 475.337 333.259 474.24 332.559 473.12C331.859 471.953 331.112 470.81 330.319 469.69C329.572 468.523 328.825 467.473 328.079 466.54C327.379 467.427 326.655 468.407 325.909 469.48C325.209 470.553 324.532 471.65 323.879 472.77C323.225 473.843 322.572 474.917 321.919 475.99C321.312 477.063 320.775 478.067 320.309 479H309.669C310.229 477.833 310.999 476.457 311.979 474.87C312.959 473.283 314.009 471.65 315.129 469.97C316.295 468.243 317.509 466.54 318.769 464.86C320.029 463.133 321.265 461.523 322.479 460.03C320.379 457.09 318.279 454.127 316.179 451.14C314.079 448.107 312.002 445.12 309.949 442.18H321.219L328.499 453.38ZM376.219 460.87C376.219 457.65 375.495 455.083 374.049 453.17C372.602 451.21 370.455 450.23 367.609 450.23C366.675 450.23 365.812 450.277 365.019 450.37C364.225 450.417 363.572 450.487 363.059 450.58V469.41C363.712 469.83 364.552 470.18 365.579 470.46C366.652 470.74 367.725 470.88 368.799 470.88C373.745 470.88 376.219 467.543 376.219 460.87ZM386.859 460.59C386.859 463.437 386.509 466.027 385.809 468.36C385.109 470.693 384.082 472.7 382.729 474.38C381.375 476.06 379.695 477.367 377.689 478.3C375.682 479.233 373.372 479.7 370.759 479.7C369.312 479.7 367.959 479.56 366.699 479.28C365.439 479 364.225 478.603 363.059 478.09V491.95H352.629V443.44C353.562 443.16 354.635 442.903 355.849 442.67C357.062 442.39 358.322 442.157 359.629 441.97C360.982 441.783 362.335 441.643 363.689 441.55C365.089 441.41 366.419 441.34 367.679 441.34C370.712 441.34 373.419 441.807 375.799 442.74C378.179 443.627 380.185 444.91 381.819 446.59C383.452 448.223 384.689 450.23 385.529 452.61C386.415 454.99 386.859 457.65 386.859 460.59ZM393.125 460.87C393.125 457.603 393.615 454.757 394.595 452.33C395.621 449.857 396.951 447.803 398.585 446.17C400.218 444.537 402.085 443.3 404.185 442.46C406.331 441.62 408.525 441.2 410.765 441.2C415.991 441.2 420.121 442.81 423.155 446.03C426.188 449.203 427.705 453.893 427.705 460.1C427.705 460.707 427.681 461.383 427.635 462.13C427.588 462.83 427.541 463.46 427.495 464.02H403.835C404.068 466.167 405.071 467.87 406.845 469.13C408.618 470.39 410.998 471.02 413.985 471.02C415.898 471.02 417.765 470.857 419.585 470.53C421.451 470.157 422.968 469.713 424.135 469.2L425.535 477.67C424.975 477.95 424.228 478.23 423.295 478.51C422.361 478.79 421.311 479.023 420.145 479.21C419.025 479.443 417.811 479.63 416.505 479.77C415.198 479.91 413.891 479.98 412.585 479.98C409.271 479.98 406.378 479.49 403.905 478.51C401.478 477.53 399.448 476.2 397.815 474.52C396.228 472.793 395.038 470.763 394.245 468.43C393.498 466.097 393.125 463.577 393.125 460.87ZM417.625 456.88C417.578 455.993 417.415 455.13 417.135 454.29C416.901 453.45 416.505 452.703 415.945 452.05C415.431 451.397 414.755 450.86 413.915 450.44C413.121 450.02 412.118 449.81 410.905 449.81C409.738 449.81 408.735 450.02 407.895 450.44C407.055 450.813 406.355 451.327 405.795 451.98C405.235 452.633 404.791 453.403 404.465 454.29C404.185 455.13 403.975 455.993 403.835 456.88H417.625ZM457.944 451.42C457.01 451.187 455.914 450.953 454.654 450.72C453.394 450.44 452.04 450.3 450.594 450.3C449.94 450.3 449.147 450.37 448.214 450.51C447.327 450.603 446.65 450.72 446.184 450.86V479H435.754V444.14C437.62 443.487 439.814 442.88 442.334 442.32C444.9 441.713 447.747 441.41 450.874 441.41C451.434 441.41 452.11 441.457 452.904 441.55C453.697 441.597 454.49 441.69 455.284 441.83C456.077 441.923 456.87 442.063 457.664 442.25C458.457 442.39 459.134 442.577 459.694 442.81L457.944 451.42ZM475.715 479H465.285V442.18H475.715V479ZM476.695 431.54C476.695 433.453 476.065 434.97 474.805 436.09C473.591 437.163 472.145 437.7 470.465 437.7C468.785 437.7 467.315 437.163 466.055 436.09C464.841 434.97 464.235 433.453 464.235 431.54C464.235 429.627 464.841 428.133 466.055 427.06C467.315 425.94 468.785 425.38 470.465 425.38C472.145 425.38 473.591 425.94 474.805 427.06C476.065 428.133 476.695 429.627 476.695 431.54ZM483.769 460.87C483.769 457.603 484.259 454.757 485.239 452.33C486.266 449.857 487.596 447.803 489.229 446.17C490.862 444.537 492.729 443.3 494.829 442.46C496.976 441.62 499.169 441.2 501.409 441.2C506.636 441.2 510.766 442.81 513.799 446.03C516.832 449.203 518.349 453.893 518.349 460.1C518.349 460.707 518.326 461.383 518.279 462.13C518.232 462.83 518.186 463.46 518.139 464.02H494.479C494.712 466.167 495.716 467.87 497.489 469.13C499.262 470.39 501.642 471.02 504.629 471.02C506.542 471.02 508.409 470.857 510.229 470.53C512.096 470.157 513.612 469.713 514.779 469.2L516.179 477.67C515.619 477.95 514.872 478.23 513.939 478.51C513.006 478.79 511.956 479.023 510.789 479.21C509.669 479.443 508.456 479.63 507.149 479.77C505.842 479.91 504.536 479.98 503.229 479.98C499.916 479.98 497.022 479.49 494.549 478.51C492.122 477.53 490.092 476.2 488.459 474.52C486.872 472.793 485.682 470.763 484.889 468.43C484.142 466.097 483.769 463.577 483.769 460.87ZM508.269 456.88C508.222 455.993 508.059 455.13 507.779 454.29C507.546 453.45 507.149 452.703 506.589 452.05C506.076 451.397 505.399 450.86 504.559 450.44C503.766 450.02 502.762 449.81 501.549 449.81C500.382 449.81 499.379 450.02 498.539 450.44C497.699 450.813 496.999 451.327 496.439 451.98C495.879 452.633 495.436 453.403 495.109 454.29C494.829 455.13 494.619 455.993 494.479 456.88H508.269ZM511.909 433.85L508.059 438.47L501.059 433.08L494.059 438.47L490.069 433.85L501.059 424.26L511.909 433.85ZM526.398 443.44C528.171 442.927 530.458 442.46 533.258 442.04C536.058 441.573 538.998 441.34 542.078 441.34C545.205 441.34 547.795 441.76 549.848 442.6C551.948 443.393 553.605 444.537 554.818 446.03C556.031 447.523 556.895 449.297 557.408 451.35C557.921 453.403 558.178 455.69 558.178 458.21V479H547.748V459.47C547.748 456.11 547.305 453.73 546.418 452.33C545.531 450.93 543.875 450.23 541.448 450.23C540.701 450.23 539.908 450.277 539.068 450.37C538.228 450.417 537.481 450.487 536.828 450.58V479H526.398V443.44ZM565.869 460.59C565.869 457.93 566.289 455.433 567.129 453.1C568.015 450.72 569.275 448.667 570.909 446.94C572.542 445.167 574.525 443.767 576.859 442.74C579.192 441.713 581.852 441.2 584.839 441.2C586.799 441.2 588.595 441.387 590.229 441.76C591.862 442.087 593.449 442.577 594.989 443.23L592.819 451.56C591.839 451.187 590.765 450.86 589.599 450.58C588.432 450.3 587.125 450.16 585.679 450.16C582.599 450.16 580.289 451.117 578.749 453.03C577.255 454.943 576.509 457.463 576.509 460.59C576.509 463.903 577.209 466.47 578.609 468.29C580.055 470.11 582.552 471.02 586.099 471.02C587.359 471.02 588.712 470.903 590.159 470.67C591.605 470.437 592.935 470.063 594.149 469.55L595.619 478.09C594.405 478.603 592.889 479.047 591.069 479.42C589.249 479.793 587.242 479.98 585.049 479.98C581.689 479.98 578.795 479.49 576.369 478.51C573.942 477.483 571.935 476.107 570.349 474.38C568.809 472.653 567.665 470.623 566.919 468.29C566.219 465.91 565.869 463.343 565.869 460.59ZM613.049 479H602.619V442.18H613.049V479ZM614.029 431.54C614.029 433.453 613.399 434.97 612.139 436.09C610.925 437.163 609.479 437.7 607.799 437.7C606.119 437.7 604.649 437.163 603.389 436.09C602.175 434.97 601.569 433.453 601.569 431.54C601.569 429.627 602.175 428.133 603.389 427.06C604.649 425.94 606.119 425.38 607.799 425.38C609.479 425.38 610.925 425.94 612.139 427.06C613.399 428.133 614.029 429.627 614.029 431.54ZM636.923 471.72C637.95 471.72 638.93 471.697 639.863 471.65C640.796 471.603 641.543 471.533 642.103 471.44V463.53C641.683 463.437 641.053 463.343 640.213 463.25C639.373 463.157 638.603 463.11 637.903 463.11C636.923 463.11 635.99 463.18 635.103 463.32C634.263 463.413 633.516 463.623 632.863 463.95C632.21 464.277 631.696 464.72 631.323 465.28C630.95 465.84 630.763 466.54 630.763 467.38C630.763 469.013 631.3 470.157 632.373 470.81C633.493 471.417 635.01 471.72 636.923 471.72ZM636.083 441.2C639.163 441.2 641.73 441.55 643.783 442.25C645.836 442.95 647.47 443.953 648.683 445.26C649.943 446.567 650.83 448.153 651.343 450.02C651.856 451.887 652.113 453.963 652.113 456.25V477.95C650.62 478.277 648.543 478.65 645.883 479.07C643.223 479.537 640.003 479.77 636.223 479.77C633.843 479.77 631.673 479.56 629.713 479.14C627.8 478.72 626.143 478.043 624.743 477.11C623.343 476.13 622.27 474.87 621.523 473.33C620.776 471.79 620.403 469.9 620.403 467.66C620.403 465.513 620.823 463.693 621.663 462.2C622.55 460.707 623.716 459.517 625.163 458.63C626.61 457.743 628.266 457.113 630.133 456.74C632 456.32 633.936 456.11 635.943 456.11C637.296 456.11 638.486 456.18 639.513 456.32C640.586 456.413 641.45 456.553 642.103 456.74V455.76C642.103 453.987 641.566 452.563 640.493 451.49C639.42 450.417 637.553 449.88 634.893 449.88C633.12 449.88 631.37 450.02 629.643 450.3C627.916 450.533 626.423 450.883 625.163 451.35L623.833 442.95C624.44 442.763 625.186 442.577 626.073 442.39C627.006 442.157 628.01 441.97 629.083 441.83C630.156 441.643 631.276 441.503 632.443 441.41C633.656 441.27 634.87 441.2 636.083 441.2ZM671.415 468.36C671.508 469.48 671.555 470.273 671.555 470.74C671.601 471.207 671.625 471.603 671.625 471.93C671.625 473.33 671.485 474.823 671.205 476.41C670.971 477.95 670.621 479.513 670.155 481.1C669.688 482.687 669.105 484.273 668.405 485.86C667.705 487.447 666.911 488.963 666.025 490.41L657.835 488.38C658.908 485.3 659.655 482.407 660.075 479.7C660.495 476.993 660.705 474.753 660.705 472.98C660.705 472.7 660.681 472.35 660.635 471.93C660.635 471.463 660.611 470.997 660.565 470.53C660.565 470.063 660.541 469.62 660.495 469.2C660.495 468.78 660.495 468.5 660.495 468.36H671.415ZM693.838 460.87C693.838 457.603 694.328 454.757 695.307 452.33C696.334 449.857 697.664 447.803 699.298 446.17C700.931 444.537 702.798 443.3 704.898 442.46C707.044 441.62 709.238 441.2 711.478 441.2C716.704 441.2 720.834 442.81 723.868 446.03C726.901 449.203 728.418 453.893 728.418 460.1C728.418 460.707 728.394 461.383 728.348 462.13C728.301 462.83 728.254 463.46 728.208 464.02H704.548C704.781 466.167 705.784 467.87 707.558 469.13C709.331 470.39 711.711 471.02 714.698 471.02C716.611 471.02 718.478 470.857 720.298 470.53C722.164 470.157 723.681 469.713 724.848 469.2L726.248 477.67C725.688 477.95 724.941 478.23 724.008 478.51C723.074 478.79 722.024 479.023 720.858 479.21C719.738 479.443 718.524 479.63 717.218 479.77C715.911 479.91 714.604 479.98 713.298 479.98C709.984 479.98 707.091 479.49 704.618 478.51C702.191 477.53 700.161 476.2 698.528 474.52C696.941 472.793 695.751 470.763 694.958 468.43C694.211 466.097 693.838 463.577 693.838 460.87ZM718.338 456.88C718.291 455.993 718.128 455.13 717.848 454.29C717.614 453.45 717.218 452.703 716.658 452.05C716.144 451.397 715.468 450.86 714.628 450.44C713.834 450.02 712.831 449.81 711.618 449.81C710.451 449.81 709.448 450.02 708.608 450.44C707.768 450.813 707.068 451.327 706.508 451.98C705.948 452.633 705.504 453.403 705.178 454.29C704.898 455.13 704.688 455.993 704.548 456.88H718.338ZM763.853 471.51C765.766 471.51 767.119 471.323 767.913 470.95C768.706 470.577 769.103 469.853 769.103 468.78C769.103 467.94 768.589 467.217 767.563 466.61C766.536 465.957 764.973 465.233 762.873 464.44C761.239 463.833 759.746 463.203 758.393 462.55C757.086 461.897 755.966 461.127 755.033 460.24C754.099 459.307 753.376 458.21 752.863 456.95C752.349 455.69 752.093 454.173 752.093 452.4C752.093 448.947 753.376 446.217 755.943 444.21C758.509 442.203 762.033 441.2 766.513 441.2C768.753 441.2 770.899 441.41 772.953 441.83C775.006 442.203 776.639 442.623 777.853 443.09L776.033 451.21C774.819 450.79 773.489 450.417 772.043 450.09C770.643 449.763 769.056 449.6 767.283 449.6C764.016 449.6 762.383 450.51 762.383 452.33C762.383 452.75 762.453 453.123 762.593 453.45C762.733 453.777 763.013 454.103 763.433 454.43C763.853 454.71 764.413 455.037 765.113 455.41C765.859 455.737 766.793 456.11 767.913 456.53C770.199 457.37 772.089 458.21 773.583 459.05C775.076 459.843 776.243 460.73 777.083 461.71C777.969 462.643 778.576 463.693 778.903 464.86C779.276 466.027 779.463 467.38 779.463 468.92C779.463 472.56 778.086 475.313 775.333 477.18C772.626 479.047 768.776 479.98 763.783 479.98C760.516 479.98 757.786 479.7 755.593 479.14C753.446 478.58 751.953 478.113 751.113 477.74L752.863 469.27C754.636 469.97 756.456 470.53 758.323 470.95C760.189 471.323 762.033 471.51 763.853 471.51ZM797.687 479H787.257V442.18H797.687V479ZM798.667 431.54C798.667 433.453 798.037 434.97 796.777 436.09C795.564 437.163 794.117 437.7 792.437 437.7C790.757 437.7 789.287 437.163 788.027 436.09C786.814 434.97 786.207 433.453 786.207 431.54C786.207 429.627 786.814 428.133 788.027 427.06C789.287 425.94 790.757 425.38 792.437 425.38C794.117 425.38 795.564 425.94 796.777 427.06C798.037 428.133 798.667 429.627 798.667 431.54ZM827.722 459.47C827.722 456.11 827.278 453.73 826.392 452.33C825.552 450.93 824.082 450.23 821.982 450.23C821.328 450.23 820.652 450.277 819.952 450.37C819.252 450.417 818.575 450.487 817.922 450.58V479H807.492V443.44C808.378 443.207 809.405 442.973 810.572 442.74C811.785 442.46 813.045 442.227 814.352 442.04C815.705 441.807 817.082 441.643 818.482 441.55C819.882 441.41 821.258 441.34 822.612 441.34C825.272 441.34 827.418 441.69 829.052 442.39C830.732 443.043 832.108 443.837 833.182 444.77C834.675 443.697 836.378 442.857 838.292 442.25C840.252 441.643 842.048 441.34 843.682 441.34C846.622 441.34 849.025 441.76 850.892 442.6C852.805 443.393 854.322 444.537 855.442 446.03C856.562 447.523 857.332 449.297 857.752 451.35C858.172 453.403 858.382 455.69 858.382 458.21V479H847.952V459.47C847.952 456.11 847.508 453.73 846.622 452.33C845.782 450.93 844.312 450.23 842.212 450.23C841.652 450.23 840.858 450.37 839.832 450.65C838.852 450.93 838.035 451.28 837.382 451.7C837.708 452.773 837.918 453.917 838.012 455.13C838.105 456.297 838.152 457.557 838.152 458.91V479H827.722V459.47ZM916.1 477.74C914.326 478.253 912.04 478.72 909.24 479.14C906.44 479.607 903.5 479.84 900.42 479.84C897.293 479.84 894.68 479.42 892.58 478.58C890.526 477.74 888.893 476.573 887.68 475.08C886.466 473.54 885.603 471.72 885.09 469.62C884.576 467.52 884.32 465.21 884.32 462.69V442.18H894.75V461.43C894.75 464.79 895.193 467.217 896.08 468.71C896.966 470.203 898.623 470.95 901.05 470.95C901.796 470.95 902.59 470.927 903.43 470.88C904.27 470.787 905.016 470.693 905.67 470.6V442.18H916.1V477.74ZM946.12 459.47C946.12 456.11 945.677 453.73 944.79 452.33C943.95 450.93 942.48 450.23 940.38 450.23C939.727 450.23 939.05 450.277 938.35 450.37C937.65 450.417 936.974 450.487 936.32 450.58V479H925.89V443.44C926.777 443.207 927.804 442.973 928.97 442.74C930.184 442.46 931.444 442.227 932.75 442.04C934.104 441.807 935.48 441.643 936.88 441.55C938.28 441.41 939.657 441.34 941.01 441.34C943.67 441.34 945.817 441.69 947.45 442.39C949.13 443.043 950.507 443.837 951.58 444.77C953.074 443.697 954.777 442.857 956.69 442.25C958.65 441.643 960.447 441.34 962.08 441.34C965.02 441.34 967.424 441.76 969.29 442.6C971.204 443.393 972.72 444.537 973.84 446.03C974.96 447.523 975.73 449.297 976.15 451.35C976.57 453.403 976.78 455.69 976.78 458.21V479H966.35V459.47C966.35 456.11 965.907 453.73 965.02 452.33C964.18 450.93 962.71 450.23 960.61 450.23C960.05 450.23 959.257 450.37 958.23 450.65C957.25 450.93 956.434 451.28 955.78 451.7C956.107 452.773 956.317 453.917 956.41 455.13C956.504 456.297 956.55 457.557 956.55 458.91V479H946.12V459.47ZM126.47 541.51C128.383 541.51 129.737 541.323 130.53 540.95C131.323 540.577 131.72 539.853 131.72 538.78C131.72 537.94 131.207 537.217 130.18 536.61C129.153 535.957 127.59 535.233 125.49 534.44C123.857 533.833 122.363 533.203 121.01 532.55C119.703 531.897 118.583 531.127 117.65 530.24C116.717 529.307 115.993 528.21 115.48 526.95C114.967 525.69 114.71 524.173 114.71 522.4C114.71 518.947 115.993 516.217 118.56 514.21C121.127 512.203 124.65 511.2 129.13 511.2C131.37 511.2 133.517 511.41 135.57 511.83C137.623 512.203 139.257 512.623 140.47 513.09L138.65 521.21C137.437 520.79 136.107 520.417 134.66 520.09C133.26 519.763 131.673 519.6 129.9 519.6C126.633 519.6 125 520.51 125 522.33C125 522.75 125.07 523.123 125.21 523.45C125.35 523.777 125.63 524.103 126.05 524.43C126.47 524.71 127.03 525.037 127.73 525.41C128.477 525.737 129.41 526.11 130.53 526.53C132.817 527.37 134.707 528.21 136.2 529.05C137.693 529.843 138.86 530.73 139.7 531.71C140.587 532.643 141.193 533.693 141.52 534.86C141.893 536.027 142.08 537.38 142.08 538.92C142.08 542.56 140.703 545.313 137.95 547.18C135.243 549.047 131.393 549.98 126.4 549.98C123.133 549.98 120.403 549.7 118.21 549.14C116.063 548.58 114.57 548.113 113.73 547.74L115.48 539.27C117.253 539.97 119.073 540.53 120.94 540.95C122.807 541.323 124.65 541.51 126.47 541.51ZM184.315 530.52C184.315 533.413 183.895 536.073 183.055 538.5C182.215 540.88 181.001 542.933 179.415 544.66C177.828 546.34 175.915 547.647 173.675 548.58C171.481 549.513 169.008 549.98 166.255 549.98C163.548 549.98 161.075 549.513 158.835 548.58C156.641 547.647 154.751 546.34 153.165 544.66C151.578 542.933 150.341 540.88 149.455 538.5C148.568 536.073 148.125 533.413 148.125 530.52C148.125 527.627 148.568 524.99 149.455 522.61C150.388 520.23 151.648 518.2 153.235 516.52C154.868 514.84 156.781 513.533 158.975 512.6C161.215 511.667 163.641 511.2 166.255 511.2C168.915 511.2 171.341 511.667 173.535 512.6C175.775 513.533 177.688 514.84 179.275 516.52C180.861 518.2 182.098 520.23 182.985 522.61C183.871 524.99 184.315 527.627 184.315 530.52ZM173.675 530.52C173.675 527.3 173.021 524.78 171.715 522.96C170.455 521.093 168.635 520.16 166.255 520.16C163.875 520.16 162.031 521.093 160.725 522.96C159.418 524.78 158.765 527.3 158.765 530.52C158.765 533.74 159.418 536.307 160.725 538.22C162.031 540.087 163.875 541.02 166.255 541.02C168.635 541.02 170.455 540.087 171.715 538.22C173.021 536.307 173.675 533.74 173.675 530.52ZM208.354 494.68C210.314 494.68 212.111 494.89 213.744 495.31C215.377 495.683 216.637 496.057 217.524 496.43L215.494 504.76C214.561 504.34 213.534 504.037 212.414 503.85C211.341 503.617 210.337 503.5 209.404 503.5C208.144 503.5 207.071 503.687 206.184 504.06C205.344 504.387 204.667 504.853 204.154 505.46C203.687 506.067 203.337 506.79 203.104 507.63C202.917 508.47 202.824 509.38 202.824 510.36V512.18H215.704V520.86H202.824V549H192.394V510.22C192.394 505.46 193.724 501.68 196.384 498.88C199.091 496.08 203.081 494.68 208.354 494.68ZM221.575 503.01L232.005 501.33V512.18H244.535V520.86H232.005V533.81C232.005 536.003 232.379 537.753 233.125 539.06C233.919 540.367 235.482 541.02 237.815 541.02C238.935 541.02 240.079 540.927 241.245 540.74C242.459 540.507 243.555 540.203 244.535 539.83L246.005 547.95C244.745 548.463 243.345 548.907 241.805 549.28C240.265 549.653 238.375 549.84 236.135 549.84C233.289 549.84 230.932 549.467 229.065 548.72C227.199 547.927 225.705 546.853 224.585 545.5C223.465 544.1 222.672 542.42 222.205 540.46C221.785 538.5 221.575 536.33 221.575 533.95V503.01ZM276.113 527.86C275.179 531.407 274.176 534.93 273.103 538.43C272.076 541.93 270.979 545.453 269.813 549H261.693C260.853 547.04 259.943 544.707 258.963 542C257.983 539.293 256.956 536.353 255.883 533.18C254.856 529.96 253.783 526.577 252.663 523.03C251.589 519.437 250.539 515.82 249.513 512.18H260.503C260.876 513.86 261.273 515.703 261.693 517.71C262.159 519.67 262.626 521.7 263.093 523.8C263.606 525.9 264.119 528.023 264.633 530.17C265.193 532.27 265.753 534.3 266.312 536.26C266.919 534.207 267.503 532.107 268.063 529.96C268.669 527.813 269.229 525.713 269.743 523.66C270.303 521.56 270.816 519.553 271.283 517.64C271.796 515.68 272.239 513.86 272.613 512.18H280.173C280.546 513.86 280.966 515.68 281.433 517.64C281.899 519.553 282.389 521.56 282.903 523.66C283.416 525.713 283.953 527.813 284.513 529.96C285.073 532.107 285.656 534.207 286.263 536.26C286.823 534.3 287.383 532.27 287.943 530.17C288.503 528.023 289.016 525.9 289.483 523.8C289.996 521.7 290.463 519.67 290.883 517.71C291.349 515.703 291.769 513.86 292.143 512.18H302.993C301.966 515.82 300.893 519.437 299.773 523.03C298.699 526.577 297.626 529.96 296.553 533.18C295.526 536.353 294.499 539.293 293.473 542C292.493 544.707 291.583 547.04 290.743 549H282.623C281.456 545.453 280.313 541.93 279.193 538.43C278.073 534.93 277.046 531.407 276.113 527.86ZM321.991 541.72C323.018 541.72 323.998 541.697 324.931 541.65C325.865 541.603 326.611 541.533 327.171 541.44V533.53C326.751 533.437 326.121 533.343 325.281 533.25C324.441 533.157 323.671 533.11 322.971 533.11C321.991 533.11 321.058 533.18 320.171 533.32C319.331 533.413 318.585 533.623 317.931 533.95C317.278 534.277 316.765 534.72 316.391 535.28C316.018 535.84 315.831 536.54 315.831 537.38C315.831 539.013 316.368 540.157 317.441 540.81C318.561 541.417 320.078 541.72 321.991 541.72ZM321.151 511.2C324.231 511.2 326.798 511.55 328.851 512.25C330.905 512.95 332.538 513.953 333.751 515.26C335.011 516.567 335.898 518.153 336.411 520.02C336.925 521.887 337.181 523.963 337.181 526.25V547.95C335.688 548.277 333.611 548.65 330.951 549.07C328.291 549.537 325.071 549.77 321.291 549.77C318.911 549.77 316.741 549.56 314.781 549.14C312.868 548.72 311.211 548.043 309.811 547.11C308.411 546.13 307.338 544.87 306.591 543.33C305.845 541.79 305.471 539.9 305.471 537.66C305.471 535.513 305.891 533.693 306.731 532.2C307.618 530.707 308.785 529.517 310.231 528.63C311.678 527.743 313.335 527.113 315.201 526.74C317.068 526.32 319.005 526.11 321.011 526.11C322.365 526.11 323.555 526.18 324.581 526.32C325.655 526.413 326.518 526.553 327.171 526.74V525.76C327.171 523.987 326.635 522.563 325.561 521.49C324.488 520.417 322.621 519.88 319.961 519.88C318.188 519.88 316.438 520.02 314.711 520.3C312.985 520.533 311.491 520.883 310.231 521.35L308.901 512.95C309.508 512.763 310.255 512.577 311.141 512.39C312.075 512.157 313.078 511.97 314.151 511.83C315.225 511.643 316.345 511.503 317.511 511.41C318.725 511.27 319.938 511.2 321.151 511.2ZM368.803 521.42C367.87 521.187 366.773 520.953 365.513 520.72C364.253 520.44 362.9 520.3 361.453 520.3C360.8 520.3 360.006 520.37 359.073 520.51C358.186 520.603 357.51 520.72 357.043 520.86V549H346.613V514.14C348.48 513.487 350.673 512.88 353.193 512.32C355.76 511.713 358.606 511.41 361.733 511.41C362.293 511.41 362.97 511.457 363.763 511.55C364.556 511.597 365.35 511.69 366.143 511.83C366.936 511.923 367.73 512.063 368.523 512.25C369.316 512.39 369.993 512.577 370.553 512.81L368.803 521.42ZM373.711 530.87C373.711 527.603 374.201 524.757 375.181 522.33C376.207 519.857 377.537 517.803 379.171 516.17C380.804 514.537 382.671 513.3 384.771 512.46C386.917 511.62 389.111 511.2 391.351 511.2C396.577 511.2 400.707 512.81 403.741 516.03C406.774 519.203 408.291 523.893 408.291 530.1C408.291 530.707 408.267 531.383 408.221 532.13C408.174 532.83 408.127 533.46 408.081 534.02H384.421C384.654 536.167 385.657 537.87 387.431 539.13C389.204 540.39 391.584 541.02 394.571 541.02C396.484 541.02 398.351 540.857 400.171 540.53C402.037 540.157 403.554 539.713 404.721 539.2L406.121 547.67C405.561 547.95 404.814 548.23 403.881 548.51C402.947 548.79 401.897 549.023 400.731 549.21C399.611 549.443 398.397 549.63 397.091 549.77C395.784 549.91 394.477 549.98 393.171 549.98C389.857 549.98 386.964 549.49 384.491 548.51C382.064 547.53 380.034 546.2 378.401 544.52C376.814 542.793 375.624 540.763 374.831 538.43C374.084 536.097 373.711 533.577 373.711 530.87ZM398.211 526.88C398.164 525.993 398.001 525.13 397.721 524.29C397.487 523.45 397.091 522.703 396.531 522.05C396.017 521.397 395.341 520.86 394.501 520.44C393.707 520.02 392.704 519.81 391.491 519.81C390.324 519.81 389.321 520.02 388.481 520.44C387.641 520.813 386.941 521.327 386.381 521.98C385.821 522.633 385.377 523.403 385.051 524.29C384.771 525.13 384.561 525.993 384.421 526.88H398.211ZM426.209 538.36C426.303 539.48 426.349 540.273 426.349 540.74C426.396 541.207 426.419 541.603 426.419 541.93C426.419 543.33 426.279 544.823 425.999 546.41C425.766 547.95 425.416 549.513 424.949 551.1C424.483 552.687 423.899 554.273 423.199 555.86C422.499 557.447 421.706 558.963 420.819 560.41L412.629 558.38C413.703 555.3 414.449 552.407 414.869 549.7C415.289 546.993 415.499 544.753 415.499 542.98C415.499 542.7 415.476 542.35 415.429 541.93C415.429 541.463 415.406 540.997 415.359 540.53C415.359 540.063 415.336 539.62 415.289 539.2C415.289 538.78 415.289 538.5 415.289 538.36H426.209ZM484.822 530.52C484.822 533.413 484.402 536.073 483.562 538.5C482.722 540.88 481.509 542.933 479.922 544.66C478.336 546.34 476.422 547.647 474.182 548.58C471.989 549.513 469.516 549.98 466.762 549.98C464.056 549.98 461.582 549.513 459.342 548.58C457.149 547.647 455.259 546.34 453.672 544.66C452.086 542.933 450.849 540.88 449.962 538.5C449.076 536.073 448.632 533.413 448.632 530.52C448.632 527.627 449.076 524.99 449.962 522.61C450.896 520.23 452.156 518.2 453.742 516.52C455.376 514.84 457.289 513.533 459.482 512.6C461.722 511.667 464.149 511.2 466.762 511.2C469.422 511.2 471.849 511.667 474.042 512.6C476.282 513.533 478.196 514.84 479.782 516.52C481.369 518.2 482.606 520.23 483.492 522.61C484.379 524.99 484.822 527.627 484.822 530.52ZM474.182 530.52C474.182 527.3 473.529 524.78 472.222 522.96C470.962 521.093 469.142 520.16 466.762 520.16C464.382 520.16 462.539 521.093 461.232 522.96C459.926 524.78 459.272 527.3 459.272 530.52C459.272 533.74 459.926 536.307 461.232 538.22C462.539 540.087 464.382 541.02 466.762 541.02C469.142 541.02 470.962 540.087 472.222 538.22C473.529 536.307 474.182 533.74 474.182 530.52ZM524.332 547.74C522.559 548.253 520.272 548.72 517.472 549.14C514.672 549.607 511.732 549.84 508.652 549.84C505.525 549.84 502.912 549.42 500.812 548.58C498.759 547.74 497.125 546.573 495.912 545.08C494.699 543.54 493.835 541.72 493.322 539.62C492.809 537.52 492.552 535.21 492.552 532.69V512.18H502.982V531.43C502.982 534.79 503.425 537.217 504.312 538.71C505.199 540.203 506.855 540.95 509.282 540.95C510.029 540.95 510.822 540.927 511.662 540.88C512.502 540.787 513.249 540.693 513.902 540.6V512.18H524.332V547.74ZM550.939 513.44C552.712 512.927 554.999 512.46 557.799 512.04C560.599 511.573 563.539 511.34 566.619 511.34C569.746 511.34 572.336 511.76 574.389 512.6C576.489 513.393 578.146 514.537 579.359 516.03C580.572 517.523 581.436 519.297 581.949 521.35C582.462 523.403 582.719 525.69 582.719 528.21V549H572.289V529.47C572.289 526.11 571.846 523.73 570.959 522.33C570.072 520.93 568.416 520.23 565.989 520.23C565.242 520.23 564.449 520.277 563.609 520.37C562.769 520.417 562.022 520.487 561.369 520.58V549H550.939V513.44ZM606.23 541.72C607.256 541.72 608.236 541.697 609.17 541.65C610.103 541.603 610.85 541.533 611.41 541.44V533.53C610.99 533.437 610.36 533.343 609.52 533.25C608.68 533.157 607.91 533.11 607.21 533.11C606.23 533.11 605.296 533.18 604.41 533.32C603.57 533.413 602.823 533.623 602.17 533.95C601.516 534.277 601.003 534.72 600.63 535.28C600.256 535.84 600.07 536.54 600.07 537.38C600.07 539.013 600.606 540.157 601.68 540.81C602.8 541.417 604.316 541.72 606.23 541.72ZM605.39 511.2C608.47 511.2 611.036 511.55 613.09 512.25C615.143 512.95 616.776 513.953 617.99 515.26C619.25 516.567 620.136 518.153 620.65 520.02C621.163 521.887 621.42 523.963 621.42 526.25V547.95C619.926 548.277 617.85 548.65 615.19 549.07C612.53 549.537 609.31 549.77 605.53 549.77C603.15 549.77 600.98 549.56 599.02 549.14C597.106 548.72 595.45 548.043 594.05 547.11C592.65 546.13 591.576 544.87 590.83 543.33C590.083 541.79 589.71 539.9 589.71 537.66C589.71 535.513 590.13 533.693 590.97 532.2C591.856 530.707 593.023 529.517 594.47 528.63C595.916 527.743 597.573 527.113 599.44 526.74C601.306 526.32 603.243 526.11 605.25 526.11C606.603 526.11 607.793 526.18 608.82 526.32C609.893 526.413 610.756 526.553 611.41 526.74V525.76C611.41 523.987 610.873 522.563 609.8 521.49C608.726 520.417 606.86 519.88 604.2 519.88C602.426 519.88 600.676 520.02 598.95 520.3C597.223 520.533 595.73 520.883 594.47 521.35L593.14 512.95C593.746 512.763 594.493 512.577 595.38 512.39C596.313 512.157 597.316 511.97 598.39 511.83C599.463 511.643 600.583 511.503 601.75 511.41C602.963 511.27 604.176 511.2 605.39 511.2ZM667.898 529.47C667.898 526.11 667.454 523.73 666.568 522.33C665.728 520.93 664.258 520.23 662.158 520.23C661.504 520.23 660.828 520.277 660.128 520.37C659.428 520.417 658.751 520.487 658.098 520.58V549H647.668V513.44C648.554 513.207 649.581 512.973 650.748 512.74C651.961 512.46 653.221 512.227 654.528 512.04C655.881 511.807 657.258 511.643 658.658 511.55C660.058 511.41 661.434 511.34 662.788 511.34C665.448 511.34 667.594 511.69 669.228 512.39C670.908 513.043 672.284 513.837 673.358 514.77C674.851 513.697 676.554 512.857 678.468 512.25C680.428 511.643 682.224 511.34 683.858 511.34C686.798 511.34 689.201 511.76 691.068 512.6C692.981 513.393 694.498 514.537 695.618 516.03C696.738 517.523 697.508 519.297 697.928 521.35C698.348 523.403 698.558 525.69 698.558 528.21V549H688.128V529.47C688.128 526.11 687.684 523.73 686.798 522.33C685.958 520.93 684.488 520.23 682.388 520.23C681.828 520.23 681.034 520.37 680.008 520.65C679.028 520.93 678.211 521.28 677.558 521.7C677.884 522.773 678.094 523.917 678.188 525.13C678.281 526.297 678.328 527.557 678.328 528.91V549H667.898V529.47ZM706.279 530.87C706.279 527.603 706.769 524.757 707.749 522.33C708.776 519.857 710.106 517.803 711.739 516.17C713.372 514.537 715.239 513.3 717.339 512.46C719.486 511.62 721.679 511.2 723.919 511.2C729.146 511.2 733.276 512.81 736.309 516.03C739.342 519.203 740.859 523.893 740.859 530.1C740.859 530.707 740.836 531.383 740.789 532.13C740.742 532.83 740.696 533.46 740.649 534.02H716.989C717.222 536.167 718.226 537.87 719.999 539.13C721.772 540.39 724.152 541.02 727.139 541.02C729.052 541.02 730.919 540.857 732.739 540.53C734.606 540.157 736.122 539.713 737.289 539.2L738.689 547.67C738.129 547.95 737.382 548.23 736.449 548.51C735.516 548.79 734.466 549.023 733.299 549.21C732.179 549.443 730.966 549.63 729.659 549.77C728.352 549.91 727.046 549.98 725.739 549.98C722.426 549.98 719.532 549.49 717.059 548.51C714.632 547.53 712.602 546.2 710.969 544.52C709.382 542.793 708.192 540.763 707.399 538.43C706.652 536.097 706.279 533.577 706.279 530.87ZM730.779 526.88C730.732 525.993 730.569 525.13 730.289 524.29C730.056 523.45 729.659 522.703 729.099 522.05C728.586 521.397 727.909 520.86 727.069 520.44C726.276 520.02 725.272 519.81 724.059 519.81C722.892 519.81 721.889 520.02 721.049 520.44C720.209 520.813 719.509 521.327 718.949 521.98C718.389 522.633 717.946 523.403 717.619 524.29C717.339 525.13 717.129 525.993 716.989 526.88H730.779ZM763.608 549.7C760.574 549.653 758.101 549.327 756.188 548.72C754.321 548.113 752.828 547.273 751.708 546.2C750.634 545.08 749.888 543.75 749.468 542.21C749.094 540.623 748.908 538.85 748.908 536.89V496.36L759.338 494.68V534.79C759.338 535.723 759.408 536.563 759.548 537.31C759.688 538.057 759.944 538.687 760.318 539.2C760.738 539.713 761.321 540.133 762.068 540.46C762.814 540.787 763.818 540.997 765.078 541.09L763.608 549.7ZM771.056 549V496.36L781.486 494.68V512.32C782.186 512.087 783.073 511.877 784.146 511.69C785.266 511.457 786.34 511.34 787.366 511.34C790.353 511.34 792.826 511.76 794.786 512.6C796.793 513.393 798.38 514.537 799.546 516.03C800.76 517.523 801.6 519.297 802.066 521.35C802.58 523.403 802.836 525.69 802.836 528.21V549H792.406V529.47C792.406 526.11 791.963 523.73 791.076 522.33C790.236 520.93 788.65 520.23 786.316 520.23C785.383 520.23 784.496 520.323 783.656 520.51C782.863 520.65 782.14 520.813 781.486 521V549H771.056ZM846.717 530.52C846.717 533.413 846.297 536.073 845.457 538.5C844.617 540.88 843.404 542.933 841.817 544.66C840.23 546.34 838.317 547.647 836.077 548.58C833.884 549.513 831.41 549.98 828.657 549.98C825.95 549.98 823.477 549.513 821.237 548.58C819.044 547.647 817.154 546.34 815.567 544.66C813.98 542.933 812.744 540.88 811.857 538.5C810.97 536.073 810.527 533.413 810.527 530.52C810.527 527.627 810.97 524.99 811.857 522.61C812.79 520.23 814.05 518.2 815.637 516.52C817.27 514.84 819.184 513.533 821.377 512.6C823.617 511.667 826.044 511.2 828.657 511.2C831.317 511.2 833.744 511.667 835.937 512.6C838.177 513.533 840.09 514.84 841.677 516.52C843.264 518.2 844.5 520.23 845.387 522.61C846.274 524.99 846.717 527.627 846.717 530.52ZM836.077 530.52C836.077 527.3 835.424 524.78 834.117 522.96C832.857 521.093 831.037 520.16 828.657 520.16C826.277 520.16 824.434 521.093 823.127 522.96C821.82 524.78 821.167 527.3 821.167 530.52C821.167 533.74 821.82 536.307 823.127 538.22C824.434 540.087 826.277 541.02 828.657 541.02C831.037 541.02 832.857 540.087 834.117 538.22C835.424 536.307 836.077 533.74 836.077 530.52ZM876.986 521.42C876.053 521.187 874.956 520.953 873.696 520.72C872.436 520.44 871.083 520.3 869.636 520.3C868.983 520.3 868.19 520.37 867.256 520.51C866.37 520.603 865.693 520.72 865.226 520.86V549H854.796V514.14C856.663 513.487 858.856 512.88 861.376 512.32C863.943 511.713 866.79 511.41 869.916 511.41C870.476 511.41 871.153 511.457 871.946 511.55C872.74 511.597 873.533 511.69 874.326 511.83C875.12 511.923 875.913 512.063 876.706 512.25C877.5 512.39 878.176 512.577 878.736 512.81L876.986 521.42ZM910.034 530.31C910.034 533.53 910.757 536.12 912.204 538.08C913.651 540.04 915.797 541.02 918.644 541.02C919.577 541.02 920.441 540.997 921.234 540.95C922.027 540.857 922.681 540.763 923.194 540.67V521.7C922.541 521.28 921.677 520.93 920.604 520.65C919.577 520.37 918.527 520.23 917.454 520.23C912.507 520.23 910.034 523.59 910.034 530.31ZM933.624 547.81C932.691 548.09 931.617 548.37 930.404 548.65C929.191 548.883 927.907 549.093 926.554 549.28C925.247 549.467 923.894 549.607 922.494 549.7C921.141 549.84 919.834 549.91 918.574 549.91C915.541 549.91 912.834 549.467 910.454 548.58C908.074 547.693 906.067 546.433 904.434 544.8C902.801 543.12 901.541 541.113 900.654 538.78C899.814 536.4 899.394 533.74 899.394 530.8C899.394 527.813 899.767 525.13 900.514 522.75C901.261 520.323 902.334 518.27 903.734 516.59C905.134 514.91 906.837 513.627 908.844 512.74C910.897 511.853 913.231 511.41 915.844 511.41C917.291 511.41 918.574 511.55 919.694 511.83C920.861 512.11 922.027 512.507 923.194 513.02V496.36L933.624 494.68V547.81ZM957.46 541.72C958.487 541.72 959.467 541.697 960.4 541.65C961.334 541.603 962.08 541.533 962.64 541.44V533.53C962.22 533.437 961.59 533.343 960.75 533.25C959.91 533.157 959.14 533.11 958.44 533.11C957.46 533.11 956.527 533.18 955.64 533.32C954.8 533.413 954.054 533.623 953.4 533.95C952.747 534.277 952.234 534.72 951.86 535.28C951.487 535.84 951.3 536.54 951.3 537.38C951.3 539.013 951.837 540.157 952.91 540.81C954.03 541.417 955.547 541.72 957.46 541.72ZM956.62 511.2C959.7 511.2 962.267 511.55 964.32 512.25C966.374 512.95 968.007 513.953 969.22 515.26C970.48 516.567 971.367 518.153 971.88 520.02C972.394 521.887 972.65 523.963 972.65 526.25V547.95C971.157 548.277 969.08 548.65 966.42 549.07C963.76 549.537 960.54 549.77 956.76 549.77C954.38 549.77 952.21 549.56 950.25 549.14C948.337 548.72 946.68 548.043 945.28 547.11C943.88 546.13 942.807 544.87 942.06 543.33C941.314 541.79 940.94 539.9 940.94 537.66C940.94 535.513 941.36 533.693 942.2 532.2C943.087 530.707 944.254 529.517 945.7 528.63C947.147 527.743 948.804 527.113 950.67 526.74C952.537 526.32 954.474 526.11 956.48 526.11C957.834 526.11 959.024 526.18 960.05 526.32C961.124 526.413 961.987 526.553 962.64 526.74V525.76C962.64 523.987 962.104 522.563 961.03 521.49C959.957 520.417 958.09 519.88 955.43 519.88C953.657 519.88 951.907 520.02 950.18 520.3C948.454 520.533 946.96 520.883 945.7 521.35L944.37 512.95C944.977 512.763 945.724 512.577 946.61 512.39C947.544 512.157 948.547 511.97 949.62 511.83C950.694 511.643 951.814 511.503 952.98 511.41C954.194 511.27 955.407 511.2 956.62 511.2ZM992.652 541.51C994.565 541.51 995.918 541.323 996.712 540.95C997.505 540.577 997.902 539.853 997.902 538.78C997.902 537.94 997.388 537.217 996.362 536.61C995.335 535.957 993.772 535.233 991.672 534.44C990.038 533.833 988.545 533.203 987.192 532.55C985.885 531.897 984.765 531.127 983.832 530.24C982.898 529.307 982.175 528.21 981.662 526.95C981.148 525.69 980.892 524.173 980.892 522.4C980.892 518.947 982.175 516.217 984.742 514.21C987.308 512.203 990.832 511.2 995.312 511.2C997.552 511.2 999.698 511.41 1001.75 511.83C1003.8 512.203 1005.44 512.623 1006.65 513.09L1004.83 521.21C1003.62 520.79 1002.29 520.417 1000.84 520.09C999.442 519.763 997.855 519.6 996.082 519.6C992.815 519.6 991.182 520.51 991.182 522.33C991.182 522.75 991.252 523.123 991.392 523.45C991.532 523.777 991.812 524.103 992.232 524.43C992.652 524.71 993.212 525.037 993.912 525.41C994.658 525.737 995.592 526.11 996.712 526.53C998.998 527.37 1000.89 528.21 1002.38 529.05C1003.87 529.843 1005.04 530.73 1005.88 531.71C1006.77 532.643 1007.37 533.693 1007.7 534.86C1008.07 536.027 1008.26 537.38 1008.26 538.92C1008.26 542.56 1006.88 545.313 1004.13 547.18C1001.42 549.047 997.575 549.98 992.582 549.98C989.315 549.98 986.585 549.7 984.392 549.14C982.245 548.58 980.752 548.113 979.912 547.74L981.662 539.27C983.435 539.97 985.255 540.53 987.122 540.95C988.988 541.323 990.832 541.51 992.652 541.51ZM115.9 619V566.36L126.33 564.68V582.32C127.03 582.087 127.917 581.877 128.99 581.69C130.11 581.457 131.183 581.34 132.21 581.34C135.197 581.34 137.67 581.76 139.63 582.6C141.637 583.393 143.223 584.537 144.39 586.03C145.603 587.523 146.443 589.297 146.91 591.35C147.423 593.403 147.68 595.69 147.68 598.21V619H137.25V599.47C137.25 596.11 136.807 593.73 135.92 592.33C135.08 590.93 133.493 590.23 131.16 590.23C130.227 590.23 129.34 590.323 128.5 590.51C127.707 590.65 126.983 590.813 126.33 591V619H115.9ZM167.551 619H157.121V582.18H167.551V619ZM168.531 571.54C168.531 573.453 167.901 574.97 166.641 576.09C165.427 577.163 163.981 577.7 162.301 577.7C160.621 577.7 159.151 577.163 157.891 576.09C156.677 574.97 156.071 573.453 156.071 571.54C156.071 569.627 156.677 568.133 157.891 567.06C159.151 565.94 160.621 565.38 162.301 565.38C163.981 565.38 165.427 565.94 166.641 567.06C167.901 568.133 168.531 569.627 168.531 571.54ZM200.945 600.87C200.945 597.65 200.222 595.083 198.775 593.17C197.328 591.21 195.182 590.23 192.335 590.23C191.402 590.23 190.538 590.277 189.745 590.37C188.952 590.417 188.298 590.487 187.785 590.58V609.41C188.438 609.83 189.278 610.18 190.305 610.46C191.378 610.74 192.452 610.88 193.525 610.88C198.472 610.88 200.945 607.543 200.945 600.87ZM211.585 600.59C211.585 603.437 211.235 606.027 210.535 608.36C209.835 610.693 208.808 612.7 207.455 614.38C206.102 616.06 204.422 617.367 202.415 618.3C200.408 619.233 198.098 619.7 195.485 619.7C194.038 619.7 192.685 619.56 191.425 619.28C190.165 619 188.952 618.603 187.785 618.09V631.95H177.355V583.44C178.288 583.16 179.362 582.903 180.575 582.67C181.788 582.39 183.048 582.157 184.355 581.97C185.708 581.783 187.062 581.643 188.415 581.55C189.815 581.41 191.145 581.34 192.405 581.34C195.438 581.34 198.145 581.807 200.525 582.74C202.905 583.627 204.912 584.91 206.545 586.59C208.178 588.223 209.415 590.23 210.255 592.61C211.142 594.99 211.585 597.65 211.585 600.59ZM254.041 600.52C254.041 603.413 253.621 606.073 252.781 608.5C251.941 610.88 250.728 612.933 249.141 614.66C247.555 616.34 245.641 617.647 243.401 618.58C241.208 619.513 238.735 619.98 235.981 619.98C233.275 619.98 230.801 619.513 228.561 618.58C226.368 617.647 224.478 616.34 222.891 614.66C221.305 612.933 220.068 610.88 219.181 608.5C218.295 606.073 217.851 603.413 217.851 600.52C217.851 597.627 218.295 594.99 219.181 592.61C220.115 590.23 221.375 588.2 222.961 586.52C224.595 584.84 226.508 583.533 228.701 582.6C230.941 581.667 233.368 581.2 235.981 581.2C238.641 581.2 241.068 581.667 243.261 582.6C245.501 583.533 247.415 584.84 249.001 586.52C250.588 588.2 251.825 590.23 252.711 592.61C253.598 594.99 254.041 597.627 254.041 600.52ZM243.401 600.52C243.401 597.3 242.748 594.78 241.441 592.96C240.181 591.093 238.361 590.16 235.981 590.16C233.601 590.16 231.758 591.093 230.451 592.96C229.145 594.78 228.491 597.3 228.491 600.52C228.491 603.74 229.145 606.307 230.451 608.22C231.758 610.087 233.601 611.02 235.981 611.02C238.361 611.02 240.181 610.087 241.441 608.22C242.748 606.307 243.401 603.74 243.401 600.52ZM244.591 568.95L233.041 578.68L228.281 574.41L238.221 563.07L244.591 568.95ZM261.771 573.01L272.201 571.33V582.18H284.731V590.86H272.201V603.81C272.201 606.003 272.574 607.753 273.321 609.06C274.114 610.367 275.677 611.02 278.011 611.02C279.131 611.02 280.274 610.927 281.441 610.74C282.654 610.507 283.751 610.203 284.731 609.83L286.201 617.95C284.941 618.463 283.541 618.907 282.001 619.28C280.461 619.653 278.571 619.84 276.331 619.84C273.484 619.84 271.127 619.467 269.261 618.72C267.394 617.927 265.901 616.853 264.781 615.5C263.661 614.1 262.867 612.42 262.401 610.46C261.981 608.5 261.771 606.33 261.771 603.95V573.01ZM290.107 600.87C290.107 597.603 290.597 594.757 291.577 592.33C292.604 589.857 293.934 587.803 295.567 586.17C297.2 584.537 299.067 583.3 301.167 582.46C303.314 581.62 305.507 581.2 307.747 581.2C312.974 581.2 317.104 582.81 320.137 586.03C323.17 589.203 324.687 593.893 324.687 600.1C324.687 600.707 324.664 601.383 324.617 602.13C324.57 602.83 324.524 603.46 324.477 604.02H300.817C301.05 606.167 302.054 607.87 303.827 609.13C305.6 610.39 307.98 611.02 310.967 611.02C312.88 611.02 314.747 610.857 316.567 610.53C318.434 610.157 319.95 609.713 321.117 609.2L322.517 617.67C321.957 617.95 321.21 618.23 320.277 618.51C319.344 618.79 318.294 619.023 317.127 619.21C316.007 619.443 314.794 619.63 313.487 619.77C312.18 619.91 310.874 619.98 309.567 619.98C306.254 619.98 303.36 619.49 300.887 618.51C298.46 617.53 296.43 616.2 294.797 614.52C293.21 612.793 292.02 610.763 291.227 608.43C290.48 606.097 290.107 603.577 290.107 600.87ZM314.607 596.88C314.56 595.993 314.397 595.13 314.117 594.29C313.884 593.45 313.487 592.703 312.927 592.05C312.414 591.397 311.737 590.86 310.897 590.44C310.104 590.02 309.1 589.81 307.887 589.81C306.72 589.81 305.717 590.02 304.877 590.44C304.037 590.813 303.337 591.327 302.777 591.98C302.217 592.633 301.774 593.403 301.447 594.29C301.167 595.13 300.957 595.993 300.817 596.88H314.607ZM343.306 611.51C345.219 611.51 346.573 611.323 347.366 610.95C348.159 610.577 348.556 609.853 348.556 608.78C348.556 607.94 348.043 607.217 347.016 606.61C345.989 605.957 344.426 605.233 342.326 604.44C340.693 603.833 339.199 603.203 337.846 602.55C336.539 601.897 335.419 601.127 334.486 600.24C333.553 599.307 332.829 598.21 332.316 596.95C331.803 595.69 331.546 594.173 331.546 592.4C331.546 588.947 332.829 586.217 335.396 584.21C337.963 582.203 341.486 581.2 345.966 581.2C348.206 581.2 350.353 581.41 352.406 581.83C354.459 582.203 356.093 582.623 357.306 583.09L355.486 591.21C354.273 590.79 352.943 590.417 351.496 590.09C350.096 589.763 348.509 589.6 346.736 589.6C343.469 589.6 341.836 590.51 341.836 592.33C341.836 592.75 341.906 593.123 342.046 593.45C342.186 593.777 342.466 594.103 342.886 594.43C343.306 594.71 343.866 595.037 344.566 595.41C345.313 595.737 346.246 596.11 347.366 596.53C349.653 597.37 351.543 598.21 353.036 599.05C354.529 599.843 355.696 600.73 356.536 601.71C357.423 602.643 358.029 603.693 358.356 604.86C358.729 606.027 358.916 607.38 358.916 608.92C358.916 612.56 357.539 615.313 354.786 617.18C352.079 619.047 348.229 619.98 343.236 619.98C339.969 619.98 337.239 619.7 335.046 619.14C332.899 618.58 331.406 618.113 330.566 617.74L332.316 609.27C334.089 609.97 335.909 610.53 337.776 610.95C339.643 611.323 341.486 611.51 343.306 611.51ZM364.961 600.87C364.961 597.603 365.451 594.757 366.431 592.33C367.457 589.857 368.787 587.803 370.421 586.17C372.054 584.537 373.921 583.3 376.021 582.46C378.167 581.62 380.361 581.2 382.601 581.2C387.827 581.2 391.957 582.81 394.991 586.03C398.024 589.203 399.541 593.893 399.541 600.1C399.541 600.707 399.517 601.383 399.471 602.13C399.424 602.83 399.377 603.46 399.331 604.02H375.671C375.904 606.167 376.907 607.87 378.681 609.13C380.454 610.39 382.834 611.02 385.821 611.02C387.734 611.02 389.601 610.857 391.421 610.53C393.287 610.157 394.804 609.713 395.971 609.2L397.371 617.67C396.811 617.95 396.064 618.23 395.131 618.51C394.197 618.79 393.147 619.023 391.981 619.21C390.861 619.443 389.647 619.63 388.341 619.77C387.034 619.91 385.727 619.98 384.421 619.98C381.107 619.98 378.214 619.49 375.741 618.51C373.314 617.53 371.284 616.2 369.651 614.52C368.064 612.793 366.874 610.763 366.081 608.43C365.334 606.097 364.961 603.577 364.961 600.87ZM389.461 596.88C389.414 595.993 389.251 595.13 388.971 594.29C388.737 593.45 388.341 592.703 387.781 592.05C387.267 591.397 386.591 590.86 385.751 590.44C384.957 590.02 383.954 589.81 382.741 589.81C381.574 589.81 380.571 590.02 379.731 590.44C378.891 590.813 378.191 591.327 377.631 591.98C377.071 592.633 376.627 593.403 376.301 594.29C376.021 595.13 375.811 595.993 375.671 596.88H389.461ZM418.159 611.51C420.073 611.51 421.426 611.323 422.219 610.95C423.013 610.577 423.409 609.853 423.409 608.78C423.409 607.94 422.896 607.217 421.869 606.61C420.843 605.957 419.279 605.233 417.179 604.44C415.546 603.833 414.053 603.203 412.699 602.55C411.393 601.897 410.273 601.127 409.339 600.24C408.406 599.307 407.683 598.21 407.169 596.95C406.656 595.69 406.399 594.173 406.399 592.4C406.399 588.947 407.683 586.217 410.249 584.21C412.816 582.203 416.339 581.2 420.819 581.2C423.059 581.2 425.206 581.41 427.259 581.83C429.313 582.203 430.946 582.623 432.159 583.09L430.339 591.21C429.126 590.79 427.796 590.417 426.349 590.09C424.949 589.763 423.363 589.6 421.589 589.6C418.323 589.6 416.689 590.51 416.689 592.33C416.689 592.75 416.759 593.123 416.899 593.45C417.039 593.777 417.319 594.103 417.739 594.43C418.159 594.71 418.719 595.037 419.419 595.41C420.166 595.737 421.099 596.11 422.219 596.53C424.506 597.37 426.396 598.21 427.889 599.05C429.383 599.843 430.549 600.73 431.389 601.71C432.276 602.643 432.883 603.693 433.209 604.86C433.583 606.027 433.769 607.38 433.769 608.92C433.769 612.56 432.393 615.313 429.639 617.18C426.933 619.047 423.083 619.98 418.089 619.98C414.823 619.98 412.093 619.7 409.899 619.14C407.753 618.58 406.259 618.113 405.419 617.74L407.169 609.27C408.943 609.97 410.763 610.53 412.629 610.95C414.496 611.323 416.339 611.51 418.159 611.51ZM451.434 608.36C451.527 609.48 451.574 610.273 451.574 610.74C451.621 611.207 451.644 611.603 451.644 611.93C451.644 613.33 451.504 614.823 451.224 616.41C450.991 617.95 450.641 619.513 450.174 621.1C449.707 622.687 449.124 624.273 448.424 625.86C447.724 627.447 446.931 628.963 446.044 630.41L437.854 628.38C438.927 625.3 439.674 622.407 440.094 619.7C440.514 616.993 440.724 614.753 440.724 612.98C440.724 612.7 440.701 612.35 440.654 611.93C440.654 611.463 440.631 610.997 440.584 610.53C440.584 610.063 440.561 609.62 440.514 609.2C440.514 608.78 440.514 608.5 440.514 608.36H451.434ZM507.037 617.74C505.264 618.253 502.977 618.72 500.177 619.14C497.377 619.607 494.437 619.84 491.357 619.84C488.23 619.84 485.617 619.42 483.517 618.58C481.464 617.74 479.83 616.573 478.617 615.08C477.404 613.54 476.54 611.72 476.027 609.62C475.514 607.52 475.257 605.21 475.257 602.69V582.18H485.687V601.43C485.687 604.79 486.13 607.217 487.017 608.71C487.904 610.203 489.56 610.95 491.987 610.95C492.734 610.95 493.527 610.927 494.367 610.88C495.207 610.787 495.954 610.693 496.607 610.6V582.18H507.037V617.74ZM537.058 599.47C537.058 596.11 536.614 593.73 535.728 592.33C534.888 590.93 533.418 590.23 531.318 590.23C530.664 590.23 529.988 590.277 529.288 590.37C528.588 590.417 527.911 590.487 527.258 590.58V619H516.828V583.44C517.714 583.207 518.741 582.973 519.908 582.74C521.121 582.46 522.381 582.227 523.688 582.04C525.041 581.807 526.418 581.643 527.818 581.55C529.218 581.41 530.594 581.34 531.948 581.34C534.608 581.34 536.754 581.69 538.388 582.39C540.068 583.043 541.444 583.837 542.518 584.77C544.011 583.697 545.714 582.857 547.628 582.25C549.588 581.643 551.384 581.34 553.018 581.34C555.958 581.34 558.361 581.76 560.228 582.6C562.141 583.393 563.658 584.537 564.778 586.03C565.898 587.523 566.668 589.297 567.088 591.35C567.508 593.403 567.718 595.69 567.718 598.21V619H557.288V599.47C557.288 596.11 556.844 593.73 555.958 592.33C555.118 590.93 553.648 590.23 551.548 590.23C550.988 590.23 550.194 590.37 549.168 590.65C548.188 590.93 547.371 591.28 546.718 591.7C547.044 592.773 547.254 593.917 547.348 595.13C547.441 596.297 547.488 597.557 547.488 598.91V619H537.058V599.47ZM604.575 611.51C606.489 611.51 607.842 611.323 608.635 610.95C609.429 610.577 609.825 609.853 609.825 608.78C609.825 607.94 609.312 607.217 608.285 606.61C607.259 605.957 605.695 605.233 603.595 604.44C601.962 603.833 600.469 603.203 599.115 602.55C597.809 601.897 596.689 601.127 595.755 600.24C594.822 599.307 594.099 598.21 593.585 596.95C593.072 595.69 592.815 594.173 592.815 592.4C592.815 588.947 594.099 586.217 596.665 584.21C599.232 582.203 602.755 581.2 607.235 581.2C609.475 581.2 611.622 581.41 613.675 581.83C615.729 582.203 617.362 582.623 618.575 583.09L616.755 591.21C615.542 590.79 614.212 590.417 612.765 590.09C611.365 589.763 609.779 589.6 608.005 589.6C604.739 589.6 603.105 590.51 603.105 592.33C603.105 592.75 603.175 593.123 603.315 593.45C603.455 593.777 603.735 594.103 604.155 594.43C604.575 594.71 605.135 595.037 605.835 595.41C606.582 595.737 607.515 596.11 608.635 596.53C610.922 597.37 612.812 598.21 614.305 599.05C615.799 599.843 616.965 600.73 617.805 601.71C618.692 602.643 619.299 603.693 619.625 604.86C619.999 606.027 620.185 607.38 620.185 608.92C620.185 612.56 618.809 615.313 616.055 617.18C613.349 619.047 609.499 619.98 604.505 619.98C601.239 619.98 598.509 619.7 596.315 619.14C594.169 618.58 592.675 618.113 591.835 617.74L593.585 609.27C595.359 609.97 597.179 610.53 599.045 610.95C600.912 611.323 602.755 611.51 604.575 611.51ZM626.23 600.87C626.23 597.603 626.72 594.757 627.7 592.33C628.727 589.857 630.057 587.803 631.69 586.17C633.323 584.537 635.19 583.3 637.29 582.46C639.437 581.62 641.63 581.2 643.87 581.2C649.097 581.2 653.227 582.81 656.26 586.03C659.293 589.203 660.81 593.893 660.81 600.1C660.81 600.707 660.787 601.383 660.74 602.13C660.693 602.83 660.647 603.46 660.6 604.02H636.94C637.173 606.167 638.177 607.87 639.95 609.13C641.723 610.39 644.103 611.02 647.09 611.02C649.003 611.02 650.87 610.857 652.69 610.53C654.557 610.157 656.073 609.713 657.24 609.2L658.64 617.67C658.08 617.95 657.333 618.23 656.4 618.51C655.467 618.79 654.417 619.023 653.25 619.21C652.13 619.443 650.917 619.63 649.61 619.77C648.303 619.91 646.997 619.98 645.69 619.98C642.377 619.98 639.483 619.49 637.01 618.51C634.583 617.53 632.553 616.2 630.92 614.52C629.333 612.793 628.143 610.763 627.35 608.43C626.603 606.097 626.23 603.577 626.23 600.87ZM650.73 596.88C650.683 595.993 650.52 595.13 650.24 594.29C650.007 593.45 649.61 592.703 649.05 592.05C648.537 591.397 647.86 590.86 647.02 590.44C646.227 590.02 645.223 589.81 644.01 589.81C642.843 589.81 641.84 590.02 641 590.44C640.16 590.813 639.46 591.327 638.9 591.98C638.34 592.633 637.897 593.403 637.57 594.29C637.29 595.13 637.08 595.993 636.94 596.88H650.73ZM691.049 591.42C690.116 591.187 689.019 590.953 687.759 590.72C686.499 590.44 685.146 590.3 683.699 590.3C683.046 590.3 682.252 590.37 681.319 590.51C680.432 590.603 679.756 590.72 679.289 590.86V619H668.859V584.14C670.726 583.487 672.919 582.88 675.439 582.32C678.006 581.713 680.852 581.41 683.979 581.41C684.539 581.41 685.216 581.457 686.009 581.55C686.802 581.597 687.596 581.69 688.389 581.83C689.182 581.923 689.976 582.063 690.769 582.25C691.562 582.39 692.239 582.577 692.799 582.81L691.049 591.42ZM710.588 619C708.208 614.333 705.781 608.873 703.308 602.62C700.881 596.367 698.571 589.553 696.378 582.18H707.438C707.904 584 708.441 585.983 709.048 588.13C709.701 590.23 710.354 592.377 711.008 594.57C711.708 596.717 712.384 598.817 713.038 600.87C713.738 602.923 714.414 604.79 715.068 606.47C715.674 604.79 716.328 602.923 717.028 600.87C717.728 598.817 718.404 596.717 719.058 594.57C719.758 592.377 720.411 590.23 721.018 588.13C721.671 585.983 722.231 584 722.698 582.18H733.478C731.284 589.553 728.951 596.367 726.478 602.62C724.051 608.873 721.648 614.333 719.268 619H710.588ZM749.494 619H739.064V582.18H749.494V619ZM750.474 571.54C750.474 573.453 749.844 574.97 748.584 576.09C747.371 577.163 745.924 577.7 744.244 577.7C742.564 577.7 741.094 577.163 739.834 576.09C738.621 574.97 738.014 573.453 738.014 571.54C738.014 569.627 738.621 568.133 739.834 567.06C741.094 565.94 742.564 565.38 744.244 565.38C745.924 565.38 747.371 565.94 748.584 567.06C749.844 568.133 750.474 569.627 750.474 571.54ZM777.358 621.8C778.852 622.547 779.878 623.433 780.438 624.46C780.998 625.487 781.278 626.537 781.278 627.61C781.278 629.85 780.392 631.553 778.618 632.72C776.845 633.887 774.512 634.47 771.618 634.47C770.592 634.47 769.565 634.377 768.538 634.19C767.512 634.05 766.485 633.84 765.458 633.56L766.718 627.47C767.045 627.563 767.628 627.703 768.468 627.89C769.355 628.123 770.218 628.24 771.058 628.24C771.712 628.24 772.272 628.1 772.738 627.82C773.252 627.587 773.532 627.143 773.578 626.49C773.625 625.93 773.392 625.417 772.878 624.95C772.412 624.483 771.642 624.133 770.568 623.9L769.728 623.69C769.915 623.083 770.172 622.383 770.498 621.59C770.825 620.843 771.152 620.143 771.478 619.49C769.052 619.023 766.952 618.23 765.178 617.11C763.452 615.943 762.005 614.543 760.838 612.91C759.718 611.23 758.878 609.34 758.318 607.24C757.805 605.14 757.548 602.923 757.548 600.59C757.548 597.93 757.968 595.433 758.808 593.1C759.695 590.72 760.955 588.667 762.588 586.94C764.222 585.167 766.205 583.767 768.538 582.74C770.872 581.713 773.532 581.2 776.518 581.2C778.478 581.2 780.275 581.387 781.908 581.76C783.542 582.087 785.128 582.577 786.668 583.23L784.498 591.56C783.518 591.187 782.445 590.86 781.278 590.58C780.112 590.3 778.805 590.16 777.358 590.16C774.278 590.16 771.968 591.117 770.428 593.03C768.935 594.943 768.188 597.463 768.188 600.59C768.188 603.903 768.888 606.47 770.288 608.29C771.735 610.11 774.232 611.02 777.778 611.02C779.038 611.02 780.392 610.903 781.838 610.67C783.285 610.437 784.615 610.063 785.828 609.55L787.298 618.09C786.225 618.557 784.895 618.953 783.308 619.28C781.768 619.607 780.065 619.817 778.198 619.91C778.012 620.283 777.848 620.633 777.708 620.96C777.568 621.287 777.452 621.567 777.358 621.8ZM826.961 600.52C826.961 603.413 826.541 606.073 825.701 608.5C824.861 610.88 823.648 612.933 822.061 614.66C820.474 616.34 818.561 617.647 816.321 618.58C814.128 619.513 811.654 619.98 808.901 619.98C806.194 619.98 803.721 619.513 801.481 618.58C799.288 617.647 797.398 616.34 795.811 614.66C794.224 612.933 792.988 610.88 792.101 608.5C791.214 606.073 790.771 603.413 790.771 600.52C790.771 597.627 791.214 594.99 792.101 592.61C793.034 590.23 794.294 588.2 795.881 586.52C797.514 584.84 799.428 583.533 801.621 582.6C803.861 581.667 806.288 581.2 808.901 581.2C811.561 581.2 813.988 581.667 816.181 582.6C818.421 583.533 820.334 584.84 821.921 586.52C823.508 588.2 824.744 590.23 825.631 592.61C826.518 594.99 826.961 597.627 826.961 600.52ZM816.321 600.52C816.321 597.3 815.668 594.78 814.361 592.96C813.101 591.093 811.281 590.16 808.901 590.16C806.521 590.16 804.678 591.093 803.371 592.96C802.064 594.78 801.411 597.3 801.411 600.52C801.411 603.74 802.064 606.307 803.371 608.22C804.678 610.087 806.521 611.02 808.901 611.02C811.281 611.02 813.101 610.087 814.361 608.22C815.668 606.307 816.321 603.74 816.321 600.52Z" fill="white"/>
</g>
<defs>
<clipPath id="clip0_104_284">
<rect width="1300" height="976" fill="white"/>
</clipPath>
</defs>
</svg>
