<svg width="1300" height="976" viewBox="0 0 1300 976" fill="none" xmlns="http://www.w3.org/2000/svg">
<g clip-path="url(#clip0_104_266)">
<path d="M124.79 495.31C124.79 498.53 125.513 501.12 126.96 503.08C128.407 505.04 130.553 506.02 133.4 506.02C134.333 506.02 135.197 505.997 135.99 505.95C136.783 505.857 137.437 505.763 137.95 505.67V486.7C137.297 486.28 136.433 485.93 135.36 485.65C134.333 485.37 133.283 485.23 132.21 485.23C127.263 485.23 124.79 488.59 124.79 495.31ZM148.38 512.81C147.447 513.09 146.373 513.37 145.16 513.65C143.947 513.883 142.663 514.093 141.31 514.28C140.003 514.467 138.65 514.607 137.25 514.7C135.897 514.84 134.59 514.91 133.33 514.91C130.297 514.91 127.59 514.467 125.21 513.58C122.83 512.693 120.823 511.433 119.19 509.8C117.557 508.12 116.297 506.113 115.41 503.78C114.57 501.4 114.15 498.74 114.15 495.8C114.15 492.813 114.523 490.13 115.27 487.75C116.017 485.323 117.09 483.27 118.49 481.59C119.89 479.91 121.593 478.627 123.6 477.74C125.653 476.853 127.987 476.41 130.6 476.41C132.047 476.41 133.33 476.55 134.45 476.83C135.617 477.11 136.783 477.507 137.95 478.02V461.36L148.38 459.68V512.81ZM156.396 495.87C156.396 492.603 156.886 489.757 157.866 487.33C158.893 484.857 160.223 482.803 161.856 481.17C163.489 479.537 165.356 478.3 167.456 477.46C169.603 476.62 171.796 476.2 174.036 476.2C179.263 476.2 183.393 477.81 186.426 481.03C189.459 484.203 190.976 488.893 190.976 495.1C190.976 495.707 190.953 496.383 190.906 497.13C190.859 497.83 190.813 498.46 190.766 499.02H167.106C167.339 501.167 168.343 502.87 170.116 504.13C171.889 505.39 174.269 506.02 177.256 506.02C179.169 506.02 181.036 505.857 182.856 505.53C184.723 505.157 186.239 504.713 187.406 504.2L188.806 512.67C188.246 512.95 187.499 513.23 186.566 513.51C185.633 513.79 184.583 514.023 183.416 514.21C182.296 514.443 181.083 514.63 179.776 514.77C178.469 514.91 177.163 514.98 175.856 514.98C172.543 514.98 169.649 514.49 167.176 513.51C164.749 512.53 162.719 511.2 161.086 509.52C159.499 507.793 158.309 505.763 157.516 503.43C156.769 501.097 156.396 498.577 156.396 495.87ZM180.896 491.88C180.849 490.993 180.686 490.13 180.406 489.29C180.173 488.45 179.776 487.703 179.216 487.05C178.703 486.397 178.026 485.86 177.186 485.44C176.393 485.02 175.389 484.81 174.176 484.81C173.009 484.81 172.006 485.02 171.166 485.44C170.326 485.813 169.626 486.327 169.066 486.98C168.506 487.633 168.063 488.403 167.736 489.29C167.456 490.13 167.246 490.993 167.106 491.88H180.896ZM209.595 506.51C211.508 506.51 212.862 506.323 213.655 505.95C214.448 505.577 214.845 504.853 214.845 503.78C214.845 502.94 214.332 502.217 213.305 501.61C212.278 500.957 210.715 500.233 208.615 499.44C206.982 498.833 205.488 498.203 204.135 497.55C202.828 496.897 201.708 496.127 200.775 495.24C199.842 494.307 199.118 493.21 198.605 491.95C198.092 490.69 197.835 489.173 197.835 487.4C197.835 483.947 199.118 481.217 201.685 479.21C204.252 477.203 207.775 476.2 212.255 476.2C214.495 476.2 216.642 476.41 218.695 476.83C220.748 477.203 222.382 477.623 223.595 478.09L221.775 486.21C220.562 485.79 219.232 485.417 217.785 485.09C216.385 484.763 214.798 484.6 213.025 484.6C209.758 484.6 208.125 485.51 208.125 487.33C208.125 487.75 208.195 488.123 208.335 488.45C208.475 488.777 208.755 489.103 209.175 489.43C209.595 489.71 210.155 490.037 210.855 490.41C211.602 490.737 212.535 491.11 213.655 491.53C215.942 492.37 217.832 493.21 219.325 494.05C220.818 494.843 221.985 495.73 222.825 496.71C223.712 497.643 224.318 498.693 224.645 499.86C225.018 501.027 225.205 502.38 225.205 503.92C225.205 507.56 223.828 510.313 221.075 512.18C218.368 514.047 214.518 514.98 209.525 514.98C206.258 514.98 203.528 514.7 201.335 514.14C199.188 513.58 197.695 513.113 196.855 512.74L198.605 504.27C200.378 504.97 202.198 505.53 204.065 505.95C205.932 506.323 207.775 506.51 209.595 506.51ZM243.43 514H233V477.18H243.43V514ZM244.41 466.54C244.41 468.453 243.78 469.97 242.52 471.09C241.306 472.163 239.86 472.7 238.18 472.7C236.5 472.7 235.03 472.163 233.77 471.09C232.556 469.97 231.95 468.453 231.95 466.54C231.95 464.627 232.556 463.133 233.77 462.06C235.03 460.94 236.5 460.38 238.18 460.38C239.86 460.38 241.306 460.94 242.52 462.06C243.78 463.133 244.41 464.627 244.41 466.54ZM262.124 494.4C262.124 500.233 264.481 503.15 269.194 503.15C270.267 503.15 271.271 503.01 272.204 502.73C273.137 502.45 273.931 502.123 274.584 501.75V485.09C274.071 484.997 273.464 484.927 272.764 484.88C272.064 484.787 271.247 484.74 270.314 484.74C267.561 484.74 265.507 485.65 264.154 487.47C262.801 489.29 262.124 491.6 262.124 494.4ZM285.014 509.38C285.014 515.4 283.474 519.857 280.394 522.75C277.361 525.69 272.647 527.16 266.254 527.16C264.014 527.16 261.774 526.95 259.534 526.53C257.294 526.157 255.217 525.643 253.304 524.99L255.124 516.24C256.757 516.893 258.461 517.407 260.234 517.78C262.054 518.153 264.107 518.34 266.394 518.34C269.381 518.34 271.481 517.687 272.694 516.38C273.954 515.073 274.584 513.393 274.584 511.34V510.01C273.464 510.523 272.297 510.92 271.084 511.2C269.917 511.433 268.634 511.55 267.234 511.55C262.147 511.55 258.251 510.057 255.544 507.07C252.837 504.037 251.484 499.813 251.484 494.4C251.484 491.693 251.904 489.243 252.744 487.05C253.584 484.81 254.797 482.897 256.384 481.31C258.017 479.723 260.001 478.51 262.334 477.67C264.667 476.783 267.304 476.34 270.244 476.34C271.504 476.34 272.787 476.41 274.094 476.55C275.447 476.643 276.777 476.783 278.084 476.97C279.391 477.157 280.627 477.39 281.794 477.67C283.007 477.903 284.081 478.16 285.014 478.44V509.38ZM294.796 478.44C296.57 477.927 298.856 477.46 301.656 477.04C304.456 476.573 307.396 476.34 310.476 476.34C313.603 476.34 316.193 476.76 318.246 477.6C320.346 478.393 322.003 479.537 323.216 481.03C324.43 482.523 325.293 484.297 325.806 486.35C326.32 488.403 326.576 490.69 326.576 493.21V514H316.146V494.47C316.146 491.11 315.703 488.73 314.816 487.33C313.93 485.93 312.273 485.23 309.846 485.23C309.1 485.23 308.306 485.277 307.466 485.37C306.626 485.417 305.88 485.487 305.226 485.58V514H294.796V478.44ZM361.724 495.31C361.724 498.53 362.447 501.12 363.894 503.08C365.34 505.04 367.487 506.02 370.334 506.02C371.267 506.02 372.13 505.997 372.924 505.95C373.717 505.857 374.37 505.763 374.884 505.67V486.7C374.23 486.28 373.367 485.93 372.294 485.65C371.267 485.37 370.217 485.23 369.144 485.23C364.197 485.23 361.724 488.59 361.724 495.31ZM385.314 512.81C384.38 513.09 383.307 513.37 382.094 513.65C380.88 513.883 379.597 514.093 378.244 514.28C376.937 514.467 375.584 514.607 374.184 514.7C372.83 514.84 371.524 514.91 370.264 514.91C367.23 514.91 364.524 514.467 362.144 513.58C359.764 512.693 357.757 511.433 356.124 509.8C354.49 508.12 353.23 506.113 352.344 503.78C351.504 501.4 351.084 498.74 351.084 495.8C351.084 492.813 351.457 490.13 352.204 487.75C352.95 485.323 354.024 483.27 355.424 481.59C356.824 479.91 358.527 478.627 360.534 477.74C362.587 476.853 364.92 476.41 367.534 476.41C368.98 476.41 370.264 476.55 371.384 476.83C372.55 477.11 373.717 477.507 374.884 478.02V461.36L385.314 459.68V512.81ZM393.33 495.87C393.33 492.603 393.82 489.757 394.8 487.33C395.826 484.857 397.156 482.803 398.79 481.17C400.423 479.537 402.29 478.3 404.39 477.46C406.536 476.62 408.73 476.2 410.97 476.2C416.196 476.2 420.326 477.81 423.36 481.03C426.393 484.203 427.91 488.893 427.91 495.1C427.91 495.707 427.886 496.383 427.84 497.13C427.793 497.83 427.746 498.46 427.7 499.02H404.04C404.273 501.167 405.276 502.87 407.05 504.13C408.823 505.39 411.203 506.02 414.19 506.02C416.103 506.02 417.97 505.857 419.79 505.53C421.656 505.157 423.173 504.713 424.34 504.2L425.74 512.67C425.18 512.95 424.433 513.23 423.5 513.51C422.566 513.79 421.516 514.023 420.35 514.21C419.23 514.443 418.016 514.63 416.71 514.77C415.403 514.91 414.096 514.98 412.79 514.98C409.476 514.98 406.583 514.49 404.11 513.51C401.683 512.53 399.653 511.2 398.02 509.52C396.433 507.793 395.243 505.763 394.45 503.43C393.703 501.097 393.33 498.577 393.33 495.87ZM417.83 491.88C417.783 490.993 417.62 490.13 417.34 489.29C417.106 488.45 416.71 487.703 416.15 487.05C415.636 486.397 414.96 485.86 414.12 485.44C413.326 485.02 412.323 484.81 411.11 484.81C409.943 484.81 408.94 485.02 408.1 485.44C407.26 485.813 406.56 486.327 406 486.98C405.44 487.633 404.996 488.403 404.67 489.29C404.39 490.13 404.18 490.993 404.04 491.88H417.83ZM463.205 514H452.775V477.18H463.205V514ZM464.185 466.54C464.185 468.453 463.555 469.97 462.295 471.09C461.082 472.163 459.635 472.7 457.955 472.7C456.275 472.7 454.805 472.163 453.545 471.09C452.332 469.97 451.725 468.453 451.725 466.54C451.725 464.627 452.332 463.133 453.545 462.06C454.805 460.94 456.275 460.38 457.955 460.38C459.635 460.38 461.082 460.94 462.295 462.06C463.555 463.133 464.185 464.627 464.185 466.54ZM473.009 478.44C474.783 477.927 477.069 477.46 479.869 477.04C482.669 476.573 485.609 476.34 488.689 476.34C491.816 476.34 494.406 476.76 496.459 477.6C498.559 478.393 500.216 479.537 501.429 481.03C502.643 482.523 503.506 484.297 504.019 486.35C504.533 488.403 504.789 490.69 504.789 493.21V514H494.359V494.47C494.359 491.11 493.916 488.73 493.029 487.33C492.143 485.93 490.486 485.23 488.059 485.23C487.313 485.23 486.519 485.277 485.679 485.37C484.839 485.417 484.093 485.487 483.439 485.58V514H473.009V478.44ZM513.88 468.01L524.31 466.33V477.18H536.84V485.86H524.31V498.81C524.31 501.003 524.683 502.753 525.43 504.06C526.223 505.367 527.787 506.02 530.12 506.02C531.24 506.02 532.383 505.927 533.55 505.74C534.763 505.507 535.86 505.203 536.84 504.83L538.31 512.95C537.05 513.463 535.65 513.907 534.11 514.28C532.57 514.653 530.68 514.84 528.44 514.84C525.593 514.84 523.237 514.467 521.37 513.72C519.503 512.927 518.01 511.853 516.89 510.5C515.77 509.1 514.977 507.42 514.51 505.46C514.09 503.5 513.88 501.33 513.88 498.95V468.01ZM542.216 495.87C542.216 492.603 542.706 489.757 543.686 487.33C544.713 484.857 546.043 482.803 547.676 481.17C549.31 479.537 551.176 478.3 553.276 477.46C555.423 476.62 557.616 476.2 559.856 476.2C565.083 476.2 569.213 477.81 572.246 481.03C575.28 484.203 576.796 488.893 576.796 495.1C576.796 495.707 576.773 496.383 576.726 497.13C576.68 497.83 576.633 498.46 576.586 499.02H552.926C553.16 501.167 554.163 502.87 555.936 504.13C557.71 505.39 560.09 506.02 563.076 506.02C564.99 506.02 566.856 505.857 568.676 505.53C570.543 505.157 572.06 504.713 573.226 504.2L574.626 512.67C574.066 512.95 573.32 513.23 572.386 513.51C571.453 513.79 570.403 514.023 569.236 514.21C568.116 514.443 566.903 514.63 565.596 514.77C564.29 514.91 562.983 514.98 561.676 514.98C558.363 514.98 555.47 514.49 552.996 513.51C550.57 512.53 548.54 511.2 546.906 509.52C545.32 507.793 544.13 505.763 543.336 503.43C542.59 501.097 542.216 498.577 542.216 495.87ZM566.716 491.88C566.67 490.993 566.506 490.13 566.226 489.29C565.993 488.45 565.596 487.703 565.036 487.05C564.523 486.397 563.846 485.86 563.006 485.44C562.213 485.02 561.21 484.81 559.996 484.81C558.83 484.81 557.826 485.02 556.986 485.44C556.146 485.813 555.446 486.327 554.886 486.98C554.326 487.633 553.883 488.403 553.556 489.29C553.276 490.13 553.066 490.993 552.926 491.88H566.716ZM607.035 486.42C606.102 486.187 605.005 485.953 603.745 485.72C602.485 485.44 601.132 485.3 599.685 485.3C599.032 485.3 598.239 485.37 597.305 485.51C596.419 485.603 595.742 485.72 595.275 485.86V514H584.845V479.14C586.712 478.487 588.905 477.88 591.425 477.32C593.992 476.713 596.839 476.41 599.965 476.41C600.525 476.41 601.202 476.457 601.995 476.55C602.789 476.597 603.582 476.69 604.375 476.83C605.169 476.923 605.962 477.063 606.755 477.25C607.549 477.39 608.225 477.577 608.785 477.81L607.035 486.42ZM630.337 459.68C632.297 459.68 634.093 459.89 635.727 460.31C637.36 460.683 638.62 461.057 639.507 461.43L637.477 469.76C636.543 469.34 635.517 469.037 634.397 468.85C633.323 468.617 632.32 468.5 631.387 468.5C630.127 468.5 629.053 468.687 628.167 469.06C627.327 469.387 626.65 469.853 626.137 470.46C625.67 471.067 625.32 471.79 625.087 472.63C624.9 473.47 624.807 474.38 624.807 475.36V477.18H637.687V485.86H624.807V514H614.377V475.22C614.377 470.46 615.707 466.68 618.367 463.88C621.073 461.08 625.063 459.68 630.337 459.68ZM657.431 506.72C658.458 506.72 659.438 506.697 660.371 506.65C661.304 506.603 662.051 506.533 662.611 506.44V498.53C662.191 498.437 661.561 498.343 660.721 498.25C659.881 498.157 659.111 498.11 658.411 498.11C657.431 498.11 656.498 498.18 655.611 498.32C654.771 498.413 654.024 498.623 653.371 498.95C652.718 499.277 652.204 499.72 651.831 500.28C651.458 500.84 651.271 501.54 651.271 502.38C651.271 504.013 651.808 505.157 652.881 505.81C654.001 506.417 655.518 506.72 657.431 506.72ZM656.591 476.2C659.671 476.2 662.238 476.55 664.291 477.25C666.344 477.95 667.978 478.953 669.191 480.26C670.451 481.567 671.338 483.153 671.851 485.02C672.364 486.887 672.621 488.963 672.621 491.25V512.95C671.128 513.277 669.051 513.65 666.391 514.07C663.731 514.537 660.511 514.77 656.731 514.77C654.351 514.77 652.181 514.56 650.221 514.14C648.308 513.72 646.651 513.043 645.251 512.11C643.851 511.13 642.778 509.87 642.031 508.33C641.284 506.79 640.911 504.9 640.911 502.66C640.911 500.513 641.331 498.693 642.171 497.2C643.058 495.707 644.224 494.517 645.671 493.63C647.118 492.743 648.774 492.113 650.641 491.74C652.508 491.32 654.444 491.11 656.451 491.11C657.804 491.11 658.994 491.18 660.021 491.32C661.094 491.413 661.958 491.553 662.611 491.74V490.76C662.611 488.987 662.074 487.563 661.001 486.49C659.928 485.417 658.061 484.88 655.401 484.88C653.628 484.88 651.878 485.02 650.151 485.3C648.424 485.533 646.931 485.883 645.671 486.35L644.341 477.95C644.948 477.763 645.694 477.577 646.581 477.39C647.514 477.157 648.518 476.97 649.591 476.83C650.664 476.643 651.784 476.503 652.951 476.41C654.164 476.27 655.378 476.2 656.591 476.2ZM680.302 495.59C680.302 492.93 680.722 490.433 681.562 488.1C682.449 485.72 683.709 483.667 685.342 481.94C686.976 480.167 688.959 478.767 691.292 477.74C693.626 476.713 696.286 476.2 699.272 476.2C701.232 476.2 703.029 476.387 704.662 476.76C706.296 477.087 707.882 477.577 709.422 478.23L707.252 486.56C706.272 486.187 705.199 485.86 704.032 485.58C702.866 485.3 701.559 485.16 700.112 485.16C697.032 485.16 694.722 486.117 693.182 488.03C691.689 489.943 690.942 492.463 690.942 495.59C690.942 498.903 691.642 501.47 693.042 503.29C694.489 505.11 696.986 506.02 700.532 506.02C701.792 506.02 703.146 505.903 704.592 505.67C706.039 505.437 707.369 505.063 708.582 504.55L710.052 513.09C708.839 513.603 707.322 514.047 705.502 514.42C703.682 514.793 701.676 514.98 699.482 514.98C696.122 514.98 693.229 514.49 690.802 513.51C688.376 512.483 686.369 511.107 684.782 509.38C683.242 507.653 682.099 505.623 681.352 503.29C680.652 500.91 680.302 498.343 680.302 495.59ZM713.525 495.87C713.525 492.603 714.015 489.757 714.995 487.33C716.022 484.857 717.352 482.803 718.985 481.17C720.618 479.537 722.485 478.3 724.585 477.46C726.732 476.62 728.925 476.2 731.165 476.2C736.392 476.2 740.522 477.81 743.555 481.03C746.588 484.203 748.105 488.893 748.105 495.1C748.105 495.707 748.082 496.383 748.035 497.13C747.988 497.83 747.942 498.46 747.895 499.02H724.235C724.468 501.167 725.472 502.87 727.245 504.13C729.018 505.39 731.398 506.02 734.385 506.02C736.298 506.02 738.165 505.857 739.985 505.53C741.852 505.157 743.368 504.713 744.535 504.2L745.935 512.67C745.375 512.95 744.628 513.23 743.695 513.51C742.762 513.79 741.712 514.023 740.545 514.21C739.425 514.443 738.212 514.63 736.905 514.77C735.598 514.91 734.292 514.98 732.985 514.98C729.672 514.98 726.778 514.49 724.305 513.51C721.878 512.53 719.848 511.2 718.215 509.52C716.628 507.793 715.438 505.763 714.645 503.43C713.898 501.097 713.525 498.577 713.525 495.87ZM738.025 491.88C737.978 490.993 737.815 490.13 737.535 489.29C737.302 488.45 736.905 487.703 736.345 487.05C735.832 486.397 735.155 485.86 734.315 485.44C733.522 485.02 732.518 484.81 731.305 484.81C730.138 484.81 729.135 485.02 728.295 485.44C727.455 485.813 726.755 486.327 726.195 486.98C725.635 487.633 725.192 488.403 724.865 489.29C724.585 490.13 724.375 490.993 724.235 491.88H738.025ZM766.724 506.51C768.637 506.51 769.991 506.323 770.784 505.95C771.577 505.577 771.974 504.853 771.974 503.78C771.974 502.94 771.461 502.217 770.434 501.61C769.407 500.957 767.844 500.233 765.744 499.44C764.111 498.833 762.617 498.203 761.264 497.55C759.957 496.897 758.837 496.127 757.904 495.24C756.971 494.307 756.247 493.21 755.734 491.95C755.221 490.69 754.964 489.173 754.964 487.4C754.964 483.947 756.247 481.217 758.814 479.21C761.381 477.203 764.904 476.2 769.384 476.2C771.624 476.2 773.771 476.41 775.824 476.83C777.877 477.203 779.511 477.623 780.724 478.09L778.904 486.21C777.691 485.79 776.361 485.417 774.914 485.09C773.514 484.763 771.927 484.6 770.154 484.6C766.887 484.6 765.254 485.51 765.254 487.33C765.254 487.75 765.324 488.123 765.464 488.45C765.604 488.777 765.884 489.103 766.304 489.43C766.724 489.71 767.284 490.037 767.984 490.41C768.731 490.737 769.664 491.11 770.784 491.53C773.071 492.37 774.961 493.21 776.454 494.05C777.947 494.843 779.114 495.73 779.954 496.71C780.841 497.643 781.447 498.693 781.774 499.86C782.147 501.027 782.334 502.38 782.334 503.92C782.334 507.56 780.957 510.313 778.204 512.18C775.497 514.047 771.647 514.98 766.654 514.98C763.387 514.98 760.657 514.7 758.464 514.14C756.317 513.58 754.824 513.113 753.984 512.74L755.734 504.27C757.507 504.97 759.327 505.53 761.194 505.95C763.061 506.323 764.904 506.51 766.724 506.51Z" fill="#FFA24B"/>
</g>
<defs>
<clipPath id="clip0_104_266">
<rect width="1300" height="976" fill="white"/>
</clipPath>
</defs>
</svg>
