<svg width="1300" height="976" viewBox="0 0 1300 976" fill="none" xmlns="http://www.w3.org/2000/svg">
<g clip-path="url(#clip0_104_257)">
<path d="M115.9 303.44C117.673 302.927 119.96 302.46 122.76 302.04C125.56 301.573 128.5 301.34 131.58 301.34C134.707 301.34 137.297 301.76 139.35 302.6C141.45 303.393 143.107 304.537 144.32 306.03C145.533 307.523 146.397 309.297 146.91 311.35C147.423 313.403 147.68 315.69 147.68 318.21V339H137.25V319.47C137.25 316.11 136.807 313.73 135.92 312.33C135.033 310.93 133.377 310.23 130.95 310.23C130.203 310.23 129.41 310.277 128.57 310.37C127.73 310.417 126.983 310.487 126.33 310.58V339H115.9V303.44ZM171.191 331.72C172.217 331.72 173.197 331.697 174.131 331.65C175.064 331.603 175.811 331.533 176.371 331.44V323.53C175.951 323.437 175.321 323.343 174.481 323.25C173.641 323.157 172.871 323.11 172.171 323.11C171.191 323.11 170.257 323.18 169.371 323.32C168.531 323.413 167.784 323.623 167.131 323.95C166.477 324.277 165.964 324.72 165.591 325.28C165.217 325.84 165.031 326.54 165.031 327.38C165.031 329.013 165.567 330.157 166.641 330.81C167.761 331.417 169.277 331.72 171.191 331.72ZM170.351 301.2C173.431 301.2 175.997 301.55 178.051 302.25C180.104 302.95 181.737 303.953 182.951 305.26C184.211 306.567 185.097 308.153 185.611 310.02C186.124 311.887 186.381 313.963 186.381 316.25V337.95C184.887 338.277 182.811 338.65 180.151 339.07C177.491 339.537 174.271 339.77 170.491 339.77C168.111 339.77 165.941 339.56 163.981 339.14C162.067 338.72 160.411 338.043 159.011 337.11C157.611 336.13 156.537 334.87 155.791 333.33C155.044 331.79 154.671 329.9 154.671 327.66C154.671 325.513 155.091 323.693 155.931 322.2C156.817 320.707 157.984 319.517 159.431 318.63C160.877 317.743 162.534 317.113 164.401 316.74C166.267 316.32 168.204 316.11 170.211 316.11C171.564 316.11 172.754 316.18 173.781 316.32C174.854 316.413 175.717 316.553 176.371 316.74V315.76C176.371 313.987 175.834 312.563 174.761 311.49C173.687 310.417 171.821 309.88 169.161 309.88C167.387 309.88 165.637 310.02 163.911 310.3C162.184 310.533 160.691 310.883 159.431 311.35L158.101 302.95C158.707 302.763 159.454 302.577 160.341 302.39C161.274 302.157 162.277 301.97 163.351 301.83C164.424 301.643 165.544 301.503 166.711 301.41C167.924 301.27 169.137 301.2 170.351 301.2ZM184.071 289.37C183.791 290.07 183.394 290.84 182.881 291.68C182.414 292.52 181.831 293.313 181.131 294.06C180.431 294.76 179.637 295.343 178.751 295.81C177.864 296.277 176.884 296.51 175.811 296.51C174.971 296.51 174.177 296.393 173.431 296.16C172.731 295.88 172.031 295.6 171.331 295.32C170.631 294.993 169.931 294.713 169.231 294.48C168.531 294.2 167.807 294.06 167.061 294.06C166.127 294.06 165.357 294.363 164.751 294.97C164.144 295.577 163.654 296.277 163.281 297.07L158.171 293.71C158.451 293.01 158.824 292.24 159.291 291.4C159.804 290.56 160.411 289.79 161.111 289.09C161.811 288.343 162.604 287.737 163.491 287.27C164.377 286.803 165.357 286.57 166.431 286.57C167.271 286.57 168.041 286.71 168.741 286.99C169.487 287.223 170.211 287.503 170.911 287.83C171.611 288.11 172.287 288.39 172.941 288.67C173.641 288.903 174.387 289.02 175.181 289.02C176.114 289.02 176.884 288.717 177.491 288.11C178.097 287.503 178.587 286.803 178.961 286.01L184.071 289.37ZM230.252 320.52C230.252 323.413 229.832 326.073 228.992 328.5C228.152 330.88 226.939 332.933 225.352 334.66C223.765 336.34 221.852 337.647 219.612 338.58C217.419 339.513 214.945 339.98 212.192 339.98C209.485 339.98 207.012 339.513 204.772 338.58C202.579 337.647 200.689 336.34 199.102 334.66C197.515 332.933 196.279 330.88 195.392 328.5C194.505 326.073 194.062 323.413 194.062 320.52C194.062 317.627 194.505 314.99 195.392 312.61C196.325 310.23 197.585 308.2 199.172 306.52C200.805 304.84 202.719 303.533 204.912 302.6C207.152 301.667 209.579 301.2 212.192 301.2C214.852 301.2 217.279 301.667 219.472 302.6C221.712 303.533 223.625 304.84 225.212 306.52C226.799 308.2 228.035 310.23 228.922 312.61C229.809 314.99 230.252 317.627 230.252 320.52ZM219.612 320.52C219.612 317.3 218.959 314.78 217.652 312.96C216.392 311.093 214.572 310.16 212.192 310.16C209.812 310.16 207.969 311.093 206.662 312.96C205.355 314.78 204.702 317.3 204.702 320.52C204.702 323.74 205.355 326.307 206.662 328.22C207.969 330.087 209.812 331.02 212.192 331.02C214.572 331.02 216.392 330.087 217.652 328.22C218.959 326.307 219.612 323.74 219.612 320.52ZM265.578 339H255.148V302.18H265.578V339ZM266.558 291.54C266.558 293.453 265.928 294.97 264.668 296.09C263.455 297.163 262.008 297.7 260.328 297.7C258.648 297.7 257.178 297.163 255.918 296.09C254.705 294.97 254.098 293.453 254.098 291.54C254.098 289.627 254.705 288.133 255.918 287.06C257.178 285.94 258.648 285.38 260.328 285.38C262.008 285.38 263.455 285.94 264.668 287.06C265.928 288.133 266.558 289.627 266.558 291.54ZM295.612 319.47C295.612 316.11 295.169 313.73 294.282 312.33C293.442 310.93 291.972 310.23 289.872 310.23C289.219 310.23 288.542 310.277 287.842 310.37C287.142 310.417 286.466 310.487 285.812 310.58V339H275.382V303.44C276.269 303.207 277.296 302.973 278.462 302.74C279.676 302.46 280.936 302.227 282.242 302.04C283.596 301.807 284.972 301.643 286.372 301.55C287.772 301.41 289.149 301.34 290.502 301.34C293.162 301.34 295.309 301.69 296.942 302.39C298.622 303.043 299.999 303.837 301.072 304.77C302.566 303.697 304.269 302.857 306.182 302.25C308.142 301.643 309.939 301.34 311.572 301.34C314.512 301.34 316.916 301.76 318.782 302.6C320.696 303.393 322.212 304.537 323.332 306.03C324.452 307.523 325.222 309.297 325.642 311.35C326.062 313.403 326.272 315.69 326.272 318.21V339H315.842V319.47C315.842 316.11 315.399 313.73 314.512 312.33C313.672 310.93 312.202 310.23 310.102 310.23C309.542 310.23 308.749 310.37 307.722 310.65C306.742 310.93 305.926 311.28 305.272 311.7C305.599 312.773 305.809 313.917 305.902 315.13C305.996 316.297 306.042 317.557 306.042 318.91V339H295.612V319.47ZM359.334 320.87C359.334 317.65 358.61 315.083 357.164 313.17C355.717 311.21 353.57 310.23 350.724 310.23C349.79 310.23 348.927 310.277 348.134 310.37C347.34 310.417 346.687 310.487 346.174 310.58V329.41C346.827 329.83 347.667 330.18 348.694 330.46C349.767 330.74 350.84 330.88 351.914 330.88C356.86 330.88 359.334 327.543 359.334 320.87ZM369.974 320.59C369.974 323.437 369.624 326.027 368.924 328.36C368.224 330.693 367.197 332.7 365.844 334.38C364.49 336.06 362.81 337.367 360.804 338.3C358.797 339.233 356.487 339.7 353.874 339.7C352.427 339.7 351.074 339.56 349.814 339.28C348.554 339 347.34 338.603 346.174 338.09V351.95H335.744V303.44C336.677 303.16 337.75 302.903 338.964 302.67C340.177 302.39 341.437 302.157 342.744 301.97C344.097 301.783 345.45 301.643 346.804 301.55C348.204 301.41 349.534 301.34 350.794 301.34C353.827 301.34 356.534 301.807 358.914 302.74C361.294 303.627 363.3 304.91 364.934 306.59C366.567 308.223 367.804 310.23 368.644 312.61C369.53 314.99 369.974 317.65 369.974 320.59ZM412.43 320.52C412.43 323.413 412.01 326.073 411.17 328.5C410.33 330.88 409.117 332.933 407.53 334.66C405.943 336.34 404.03 337.647 401.79 338.58C399.597 339.513 397.123 339.98 394.37 339.98C391.663 339.98 389.19 339.513 386.95 338.58C384.757 337.647 382.867 336.34 381.28 334.66C379.693 332.933 378.457 330.88 377.57 328.5C376.683 326.073 376.24 323.413 376.24 320.52C376.24 317.627 376.683 314.99 377.57 312.61C378.503 310.23 379.763 308.2 381.35 306.52C382.983 304.84 384.897 303.533 387.09 302.6C389.33 301.667 391.757 301.2 394.37 301.2C397.03 301.2 399.457 301.667 401.65 302.6C403.89 303.533 405.803 304.84 407.39 306.52C408.977 308.2 410.213 310.23 411.1 312.61C411.987 314.99 412.43 317.627 412.43 320.52ZM401.79 320.52C401.79 317.3 401.137 314.78 399.83 312.96C398.57 311.093 396.75 310.16 394.37 310.16C391.99 310.16 390.147 311.093 388.84 312.96C387.533 314.78 386.88 317.3 386.88 320.52C386.88 323.74 387.533 326.307 388.84 328.22C390.147 330.087 391.99 331.02 394.37 331.02C396.75 331.02 398.57 330.087 399.83 328.22C401.137 326.307 401.79 323.74 401.79 320.52ZM442.699 311.42C441.766 311.187 440.669 310.953 439.409 310.72C438.149 310.44 436.796 310.3 435.349 310.3C434.696 310.3 433.903 310.37 432.969 310.51C432.083 310.603 431.406 310.72 430.939 310.86V339H420.509V304.14C422.376 303.487 424.569 302.88 427.089 302.32C429.656 301.713 432.503 301.41 435.629 301.41C436.189 301.41 436.866 301.457 437.659 301.55C438.453 301.597 439.246 301.69 440.039 301.83C440.833 301.923 441.626 302.063 442.419 302.25C443.213 302.39 443.889 302.577 444.449 302.81L442.699 311.42ZM449.691 293.01L460.121 291.33V302.18H472.651V310.86H460.121V323.81C460.121 326.003 460.494 327.753 461.241 329.06C462.034 330.367 463.597 331.02 465.931 331.02C467.051 331.02 468.194 330.927 469.361 330.74C470.574 330.507 471.671 330.203 472.651 329.83L474.121 337.95C472.861 338.463 471.461 338.907 469.921 339.28C468.381 339.653 466.491 339.84 464.251 339.84C461.404 339.84 459.047 339.467 457.181 338.72C455.314 337.927 453.821 336.853 452.701 335.5C451.581 334.1 450.787 332.42 450.321 330.46C449.901 328.5 449.691 326.33 449.691 323.95V293.01ZM493.847 331.72C494.874 331.72 495.854 331.697 496.787 331.65C497.72 331.603 498.467 331.533 499.027 331.44V323.53C498.607 323.437 497.977 323.343 497.137 323.25C496.297 323.157 495.527 323.11 494.827 323.11C493.847 323.11 492.914 323.18 492.027 323.32C491.187 323.413 490.44 323.623 489.787 323.95C489.134 324.277 488.62 324.72 488.247 325.28C487.874 325.84 487.687 326.54 487.687 327.38C487.687 329.013 488.224 330.157 489.297 330.81C490.417 331.417 491.934 331.72 493.847 331.72ZM493.007 301.2C496.087 301.2 498.654 301.55 500.707 302.25C502.76 302.95 504.394 303.953 505.607 305.26C506.867 306.567 507.754 308.153 508.267 310.02C508.78 311.887 509.037 313.963 509.037 316.25V337.95C507.544 338.277 505.467 338.65 502.807 339.07C500.147 339.537 496.927 339.77 493.147 339.77C490.767 339.77 488.597 339.56 486.637 339.14C484.724 338.72 483.067 338.043 481.667 337.11C480.267 336.13 479.194 334.87 478.447 333.33C477.7 331.79 477.327 329.9 477.327 327.66C477.327 325.513 477.747 323.693 478.587 322.2C479.474 320.707 480.64 319.517 482.087 318.63C483.534 317.743 485.19 317.113 487.057 316.74C488.924 316.32 490.86 316.11 492.867 316.11C494.22 316.11 495.41 316.18 496.437 316.32C497.51 316.413 498.374 316.553 499.027 316.74V315.76C499.027 313.987 498.49 312.563 497.417 311.49C496.344 310.417 494.477 309.88 491.817 309.88C490.044 309.88 488.294 310.02 486.567 310.3C484.84 310.533 483.347 310.883 482.087 311.35L480.757 302.95C481.364 302.763 482.11 302.577 482.997 302.39C483.93 302.157 484.934 301.97 486.007 301.83C487.08 301.643 488.2 301.503 489.367 301.41C490.58 301.27 491.794 301.2 493.007 301.2ZM555.515 319.47C555.515 316.11 555.071 313.73 554.185 312.33C553.345 310.93 551.875 310.23 549.775 310.23C549.121 310.23 548.445 310.277 547.745 310.37C547.045 310.417 546.368 310.487 545.715 310.58V339H535.285V303.44C536.171 303.207 537.198 302.973 538.365 302.74C539.578 302.46 540.838 302.227 542.145 302.04C543.498 301.807 544.875 301.643 546.275 301.55C547.675 301.41 549.051 301.34 550.405 301.34C553.065 301.34 555.211 301.69 556.845 302.39C558.525 303.043 559.901 303.837 560.975 304.77C562.468 303.697 564.171 302.857 566.085 302.25C568.045 301.643 569.841 301.34 571.475 301.34C574.415 301.34 576.818 301.76 578.685 302.6C580.598 303.393 582.115 304.537 583.235 306.03C584.355 307.523 585.125 309.297 585.545 311.35C585.965 313.403 586.175 315.69 586.175 318.21V339H575.745V319.47C575.745 316.11 575.301 313.73 574.415 312.33C573.575 310.93 572.105 310.23 570.005 310.23C569.445 310.23 568.651 310.37 567.625 310.65C566.645 310.93 565.828 311.28 565.175 311.7C565.501 312.773 565.711 313.917 565.805 315.13C565.898 316.297 565.945 317.557 565.945 318.91V339H555.515V319.47ZM627.076 337.74C625.303 338.253 623.016 338.72 620.216 339.14C617.416 339.607 614.476 339.84 611.396 339.84C608.269 339.84 605.656 339.42 603.556 338.58C601.503 337.74 599.869 336.573 598.656 335.08C597.443 333.54 596.579 331.72 596.066 329.62C595.553 327.52 595.296 325.21 595.296 322.69V302.18H605.726V321.43C605.726 324.79 606.169 327.217 607.056 328.71C607.943 330.203 609.599 330.95 612.026 330.95C612.773 330.95 613.566 330.927 614.406 330.88C615.246 330.787 615.993 330.693 616.646 330.6V302.18H627.076V337.74ZM647.297 339H636.867V302.18H647.297V339ZM648.277 291.54C648.277 293.453 647.647 294.97 646.387 296.09C645.173 297.163 643.727 297.7 642.047 297.7C640.367 297.7 638.897 297.163 637.637 296.09C636.423 294.97 635.817 293.453 635.817 291.54C635.817 289.627 636.423 288.133 637.637 287.06C638.897 285.94 640.367 285.38 642.047 285.38C643.727 285.38 645.173 285.94 646.387 287.06C647.647 288.133 648.277 289.627 648.277 291.54ZM656.751 293.01L667.181 291.33V302.18H679.711V310.86H667.181V323.81C667.181 326.003 667.555 327.753 668.301 329.06C669.095 330.367 670.658 331.02 672.991 331.02C674.111 331.02 675.255 330.927 676.421 330.74C677.635 330.507 678.731 330.203 679.711 329.83L681.181 337.95C679.921 338.463 678.521 338.907 676.981 339.28C675.441 339.653 673.551 339.84 671.311 339.84C668.465 339.84 666.108 339.467 664.241 338.72C662.375 337.927 660.881 336.853 659.761 335.5C658.641 334.1 657.848 332.42 657.381 330.46C656.961 328.5 656.751 326.33 656.751 323.95V293.01ZM721.278 320.52C721.278 323.413 720.858 326.073 720.018 328.5C719.178 330.88 717.964 332.933 716.378 334.66C714.791 336.34 712.878 337.647 710.638 338.58C708.444 339.513 705.971 339.98 703.218 339.98C700.511 339.98 698.038 339.513 695.798 338.58C693.604 337.647 691.714 336.34 690.128 334.66C688.541 332.933 687.304 330.88 686.418 328.5C685.531 326.073 685.088 323.413 685.088 320.52C685.088 317.627 685.531 314.99 686.418 312.61C687.351 310.23 688.611 308.2 690.198 306.52C691.831 304.84 693.744 303.533 695.938 302.6C698.178 301.667 700.604 301.2 703.218 301.2C705.878 301.2 708.304 301.667 710.498 302.6C712.738 303.533 714.651 304.84 716.238 306.52C717.824 308.2 719.061 310.23 719.948 312.61C720.834 314.99 721.278 317.627 721.278 320.52ZM710.638 320.52C710.638 317.3 709.984 314.78 708.678 312.96C707.418 311.093 705.598 310.16 703.218 310.16C700.838 310.16 698.994 311.093 697.688 312.96C696.381 314.78 695.728 317.3 695.728 320.52C695.728 323.74 696.381 326.307 697.688 328.22C698.994 330.087 700.838 331.02 703.218 331.02C705.598 331.02 707.418 330.087 708.678 328.22C709.984 326.307 710.638 323.74 710.638 320.52ZM756.743 331.51C758.657 331.51 760.01 331.323 760.803 330.95C761.597 330.577 761.993 329.853 761.993 328.78C761.993 327.94 761.48 327.217 760.453 326.61C759.427 325.957 757.863 325.233 755.763 324.44C754.13 323.833 752.637 323.203 751.283 322.55C749.977 321.897 748.857 321.127 747.923 320.24C746.99 319.307 746.267 318.21 745.753 316.95C745.24 315.69 744.983 314.173 744.983 312.4C744.983 308.947 746.267 306.217 748.833 304.21C751.4 302.203 754.923 301.2 759.403 301.2C761.643 301.2 763.79 301.41 765.843 301.83C767.897 302.203 769.53 302.623 770.743 303.09L768.923 311.21C767.71 310.79 766.38 310.417 764.933 310.09C763.533 309.763 761.947 309.6 760.173 309.6C756.907 309.6 755.273 310.51 755.273 312.33C755.273 312.75 755.343 313.123 755.483 313.45C755.623 313.777 755.903 314.103 756.323 314.43C756.743 314.71 757.303 315.037 758.003 315.41C758.75 315.737 759.683 316.11 760.803 316.53C763.09 317.37 764.98 318.21 766.473 319.05C767.967 319.843 769.133 320.73 769.973 321.71C770.86 322.643 771.467 323.693 771.793 324.86C772.167 326.027 772.353 327.38 772.353 328.92C772.353 332.56 770.977 335.313 768.223 337.18C765.517 339.047 761.667 339.98 756.673 339.98C753.407 339.98 750.677 339.7 748.483 339.14C746.337 338.58 744.843 338.113 744.003 337.74L745.753 329.27C747.527 329.97 749.347 330.53 751.213 330.95C753.08 331.323 754.923 331.51 756.743 331.51ZM778.398 320.87C778.398 317.603 778.888 314.757 779.868 312.33C780.895 309.857 782.225 307.803 783.858 306.17C785.491 304.537 787.358 303.3 789.458 302.46C791.605 301.62 793.798 301.2 796.038 301.2C801.265 301.2 805.395 302.81 808.428 306.03C811.461 309.203 812.978 313.893 812.978 320.1C812.978 320.707 812.955 321.383 812.908 322.13C812.861 322.83 812.815 323.46 812.768 324.02H789.108C789.341 326.167 790.345 327.87 792.118 329.13C793.891 330.39 796.271 331.02 799.258 331.02C801.171 331.02 803.038 330.857 804.858 330.53C806.725 330.157 808.241 329.713 809.408 329.2L810.808 337.67C810.248 337.95 809.501 338.23 808.568 338.51C807.635 338.79 806.585 339.023 805.418 339.21C804.298 339.443 803.085 339.63 801.778 339.77C800.471 339.91 799.165 339.98 797.858 339.98C794.545 339.98 791.651 339.49 789.178 338.51C786.751 337.53 784.721 336.2 783.088 334.52C781.501 332.793 780.311 330.763 779.518 328.43C778.771 326.097 778.398 323.577 778.398 320.87ZM802.898 316.88C802.851 315.993 802.688 315.13 802.408 314.29C802.175 313.45 801.778 312.703 801.218 312.05C800.705 311.397 800.028 310.86 799.188 310.44C798.395 310.02 797.391 309.81 796.178 309.81C795.011 309.81 794.008 310.02 793.168 310.44C792.328 310.813 791.628 311.327 791.068 311.98C790.508 312.633 790.065 313.403 789.738 314.29C789.458 315.13 789.248 315.993 789.108 316.88H802.898ZM851.913 331.72C852.94 331.72 853.92 331.697 854.853 331.65C855.787 331.603 856.533 331.533 857.093 331.44V323.53C856.673 323.437 856.043 323.343 855.203 323.25C854.363 323.157 853.593 323.11 852.893 323.11C851.913 323.11 850.98 323.18 850.093 323.32C849.253 323.413 848.507 323.623 847.853 323.95C847.2 324.277 846.687 324.72 846.313 325.28C845.94 325.84 845.753 326.54 845.753 327.38C845.753 329.013 846.29 330.157 847.363 330.81C848.483 331.417 850 331.72 851.913 331.72ZM851.073 301.2C854.153 301.2 856.72 301.55 858.773 302.25C860.827 302.95 862.46 303.953 863.673 305.26C864.933 306.567 865.82 308.153 866.333 310.02C866.847 311.887 867.103 313.963 867.103 316.25V337.95C865.61 338.277 863.533 338.65 860.873 339.07C858.213 339.537 854.993 339.77 851.213 339.77C848.833 339.77 846.663 339.56 844.703 339.14C842.79 338.72 841.133 338.043 839.733 337.11C838.333 336.13 837.26 334.87 836.513 333.33C835.767 331.79 835.393 329.9 835.393 327.66C835.393 325.513 835.813 323.693 836.653 322.2C837.54 320.707 838.707 319.517 840.153 318.63C841.6 317.743 843.257 317.113 845.123 316.74C846.99 316.32 848.927 316.11 850.933 316.11C852.287 316.11 853.477 316.18 854.503 316.32C855.577 316.413 856.44 316.553 857.093 316.74V315.76C857.093 313.987 856.557 312.563 855.483 311.49C854.41 310.417 852.543 309.88 849.883 309.88C848.11 309.88 846.36 310.02 844.633 310.3C842.907 310.533 841.413 310.883 840.153 311.35L838.823 302.95C839.43 302.763 840.177 302.577 841.063 302.39C841.997 302.157 843 301.97 844.073 301.83C845.147 301.643 846.267 301.503 847.433 301.41C848.647 301.27 849.86 301.2 851.073 301.2ZM887.105 331.51C889.018 331.51 890.371 331.323 891.165 330.95C891.958 330.577 892.355 329.853 892.355 328.78C892.355 327.94 891.841 327.217 890.815 326.61C889.788 325.957 888.225 325.233 886.125 324.44C884.491 323.833 882.998 323.203 881.645 322.55C880.338 321.897 879.218 321.127 878.285 320.24C877.351 319.307 876.628 318.21 876.115 316.95C875.601 315.69 875.345 314.173 875.345 312.4C875.345 308.947 876.628 306.217 879.195 304.21C881.761 302.203 885.285 301.2 889.765 301.2C892.005 301.2 894.151 301.41 896.205 301.83C898.258 302.203 899.891 302.623 901.105 303.09L899.285 311.21C898.071 310.79 896.741 310.417 895.295 310.09C893.895 309.763 892.308 309.6 890.535 309.6C887.268 309.6 885.635 310.51 885.635 312.33C885.635 312.75 885.705 313.123 885.845 313.45C885.985 313.777 886.265 314.103 886.685 314.43C887.105 314.71 887.665 315.037 888.365 315.41C889.111 315.737 890.045 316.11 891.165 316.53C893.451 317.37 895.341 318.21 896.835 319.05C898.328 319.843 899.495 320.73 900.335 321.71C901.221 322.643 901.828 323.693 902.155 324.86C902.528 326.027 902.715 327.38 902.715 328.92C902.715 332.56 901.338 335.313 898.585 337.18C895.878 339.047 892.028 339.98 887.035 339.98C883.768 339.98 881.038 339.7 878.845 339.14C876.698 338.58 875.205 338.113 874.365 337.74L876.115 329.27C877.888 329.97 879.708 330.53 881.575 330.95C883.441 331.323 885.285 331.51 887.105 331.51ZM505.102 354.68C507.062 354.68 508.859 354.89 510.492 355.31C512.126 355.683 513.386 356.057 514.272 356.43L512.242 364.76C511.309 364.34 510.282 364.037 509.162 363.85C508.089 363.617 507.086 363.5 506.152 363.5C504.892 363.5 503.819 363.687 502.932 364.06C502.092 364.387 501.416 364.853 500.902 365.46C500.436 366.067 500.086 366.79 499.852 367.63C499.666 368.47 499.572 369.38 499.572 370.36V372.18H512.452V380.86H499.572V409H489.142V370.22C489.142 365.46 490.472 361.68 493.132 358.88C495.839 356.08 499.829 354.68 505.102 354.68ZM532.197 401.72C533.223 401.72 534.203 401.697 535.137 401.65C536.07 401.603 536.817 401.533 537.377 401.44V393.53C536.957 393.437 536.327 393.343 535.487 393.25C534.647 393.157 533.877 393.11 533.177 393.11C532.197 393.11 531.263 393.18 530.377 393.32C529.537 393.413 528.79 393.623 528.137 393.95C527.483 394.277 526.97 394.72 526.597 395.28C526.223 395.84 526.037 396.54 526.037 397.38C526.037 399.013 526.573 400.157 527.647 400.81C528.767 401.417 530.283 401.72 532.197 401.72ZM531.357 371.2C534.437 371.2 537.003 371.55 539.057 372.25C541.11 372.95 542.743 373.953 543.957 375.26C545.217 376.567 546.103 378.153 546.617 380.02C547.13 381.887 547.387 383.963 547.387 386.25V407.95C545.893 408.277 543.817 408.65 541.157 409.07C538.497 409.537 535.277 409.77 531.497 409.77C529.117 409.77 526.947 409.56 524.987 409.14C523.073 408.72 521.417 408.043 520.017 407.11C518.617 406.13 517.543 404.87 516.797 403.33C516.05 401.79 515.677 399.9 515.677 397.66C515.677 395.513 516.097 393.693 516.937 392.2C517.823 390.707 518.99 389.517 520.437 388.63C521.883 387.743 523.54 387.113 525.407 386.74C527.273 386.32 529.21 386.11 531.217 386.11C532.57 386.11 533.76 386.18 534.787 386.32C535.86 386.413 536.723 386.553 537.377 386.74V385.76C537.377 383.987 536.84 382.563 535.767 381.49C534.693 380.417 532.827 379.88 530.167 379.88C528.393 379.88 526.643 380.02 524.917 380.3C523.19 380.533 521.697 380.883 520.437 381.35L519.107 372.95C519.713 372.763 520.46 372.577 521.347 372.39C522.28 372.157 523.283 371.97 524.357 371.83C525.43 371.643 526.55 371.503 527.717 371.41C528.93 371.27 530.143 371.2 531.357 371.2ZM584.468 379.18C583.628 380.113 582.485 381.373 581.038 382.96C579.638 384.547 578.121 386.297 576.488 388.21C574.855 390.123 573.198 392.13 571.518 394.23C569.885 396.33 568.391 398.36 567.038 400.32H584.818V409H554.368V402.84C555.348 401.16 556.515 399.363 557.868 397.45C559.268 395.49 560.715 393.53 562.208 391.57C563.748 389.61 565.265 387.72 566.758 385.9C568.251 384.033 569.628 382.353 570.888 380.86H555.208V372.18H584.468V379.18ZM589.043 390.87C589.043 387.603 589.533 384.757 590.513 382.33C591.539 379.857 592.869 377.803 594.503 376.17C596.136 374.537 598.003 373.3 600.103 372.46C602.249 371.62 604.443 371.2 606.683 371.2C611.909 371.2 616.039 372.81 619.073 376.03C622.106 379.203 623.623 383.893 623.623 390.1C623.623 390.707 623.599 391.383 623.553 392.13C623.506 392.83 623.459 393.46 623.413 394.02H599.753C599.986 396.167 600.989 397.87 602.763 399.13C604.536 400.39 606.916 401.02 609.903 401.02C611.816 401.02 613.683 400.857 615.503 400.53C617.369 400.157 618.886 399.713 620.053 399.2L621.453 407.67C620.893 407.95 620.146 408.23 619.213 408.51C618.279 408.79 617.229 409.023 616.063 409.21C614.943 409.443 613.729 409.63 612.423 409.77C611.116 409.91 609.809 409.98 608.503 409.98C605.189 409.98 602.296 409.49 599.823 408.51C597.396 407.53 595.366 406.2 593.733 404.52C592.146 402.793 590.956 400.763 590.163 398.43C589.416 396.097 589.043 393.577 589.043 390.87ZM613.543 386.88C613.496 385.993 613.333 385.13 613.053 384.29C612.819 383.45 612.423 382.703 611.863 382.05C611.349 381.397 610.673 380.86 609.833 380.44C609.039 380.02 608.036 379.81 606.823 379.81C605.656 379.81 604.653 380.02 603.813 380.44C602.973 380.813 602.273 381.327 601.713 381.98C601.153 382.633 600.709 383.403 600.383 384.29C600.103 385.13 599.893 385.993 599.753 386.88H613.543ZM651.901 389.47C651.901 386.11 651.458 383.73 650.571 382.33C649.731 380.93 648.261 380.23 646.161 380.23C645.508 380.23 644.831 380.277 644.131 380.37C643.431 380.417 642.755 380.487 642.101 380.58V409H631.671V373.44C632.558 373.207 633.585 372.973 634.751 372.74C635.965 372.46 637.225 372.227 638.531 372.04C639.885 371.807 641.261 371.643 642.661 371.55C644.061 371.41 645.438 371.34 646.791 371.34C649.451 371.34 651.598 371.69 653.231 372.39C654.911 373.043 656.288 373.837 657.361 374.77C658.855 373.697 660.558 372.857 662.471 372.25C664.431 371.643 666.228 371.34 667.861 371.34C670.801 371.34 673.205 371.76 675.071 372.6C676.985 373.393 678.501 374.537 679.621 376.03C680.741 377.523 681.511 379.297 681.931 381.35C682.351 383.403 682.561 385.69 682.561 388.21V409H672.131V389.47C672.131 386.11 671.688 383.73 670.801 382.33C669.961 380.93 668.491 380.23 666.391 380.23C665.831 380.23 665.038 380.37 664.011 380.65C663.031 380.93 662.215 381.28 661.561 381.7C661.888 382.773 662.098 383.917 662.191 385.13C662.285 386.297 662.331 387.557 662.331 388.91V409H651.901V389.47ZM719.419 401.51C721.333 401.51 722.686 401.323 723.479 400.95C724.273 400.577 724.669 399.853 724.669 398.78C724.669 397.94 724.156 397.217 723.129 396.61C722.103 395.957 720.539 395.233 718.439 394.44C716.806 393.833 715.313 393.203 713.959 392.55C712.653 391.897 711.533 391.127 710.599 390.24C709.666 389.307 708.943 388.21 708.429 386.95C707.916 385.69 707.659 384.173 707.659 382.4C707.659 378.947 708.943 376.217 711.509 374.21C714.076 372.203 717.599 371.2 722.079 371.2C724.319 371.2 726.466 371.41 728.519 371.83C730.573 372.203 732.206 372.623 733.419 373.09L731.599 381.21C730.386 380.79 729.056 380.417 727.609 380.09C726.209 379.763 724.623 379.6 722.849 379.6C719.583 379.6 717.949 380.51 717.949 382.33C717.949 382.75 718.019 383.123 718.159 383.45C718.299 383.777 718.579 384.103 718.999 384.43C719.419 384.71 719.979 385.037 720.679 385.41C721.426 385.737 722.359 386.11 723.479 386.53C725.766 387.37 727.656 388.21 729.149 389.05C730.643 389.843 731.809 390.73 732.649 391.71C733.536 392.643 734.143 393.693 734.469 394.86C734.843 396.027 735.029 397.38 735.029 398.92C735.029 402.56 733.653 405.313 730.899 407.18C728.193 409.047 724.343 409.98 719.349 409.98C716.083 409.98 713.353 409.7 711.159 409.14C709.013 408.58 707.519 408.113 706.679 407.74L708.429 399.27C710.203 399.97 712.023 400.53 713.889 400.95C715.756 401.323 717.599 401.51 719.419 401.51ZM741.074 390.87C741.074 387.603 741.564 384.757 742.544 382.33C743.57 379.857 744.9 377.803 746.534 376.17C748.167 374.537 750.034 373.3 752.134 372.46C754.28 371.62 756.474 371.2 758.714 371.2C763.94 371.2 768.07 372.81 771.104 376.03C774.137 379.203 775.654 383.893 775.654 390.1C775.654 390.707 775.63 391.383 775.584 392.13C775.537 392.83 775.49 393.46 775.444 394.02H751.784C752.017 396.167 753.02 397.87 754.794 399.13C756.567 400.39 758.947 401.02 761.934 401.02C763.847 401.02 765.714 400.857 767.534 400.53C769.4 400.157 770.917 399.713 772.084 399.2L773.484 407.67C772.924 407.95 772.177 408.23 771.244 408.51C770.31 408.79 769.26 409.023 768.094 409.21C766.974 409.443 765.76 409.63 764.454 409.77C763.147 409.91 761.84 409.98 760.534 409.98C757.22 409.98 754.327 409.49 751.854 408.51C749.427 407.53 747.397 406.2 745.764 404.52C744.177 402.793 742.987 400.763 742.194 398.43C741.447 396.097 741.074 393.577 741.074 390.87ZM765.574 386.88C765.527 385.993 765.364 385.13 765.084 384.29C764.85 383.45 764.454 382.703 763.894 382.05C763.38 381.397 762.704 380.86 761.864 380.44C761.07 380.02 760.067 379.81 758.854 379.81C757.687 379.81 756.684 380.02 755.844 380.44C755.004 380.813 754.304 381.327 753.744 381.98C753.184 382.633 752.74 383.403 752.414 384.29C752.134 385.13 751.924 385.993 751.784 386.88H765.574ZM783.703 373.44C785.476 372.927 787.763 372.46 790.563 372.04C793.363 371.573 796.303 371.34 799.383 371.34C802.509 371.34 805.099 371.76 807.153 372.6C809.253 373.393 810.909 374.537 812.123 376.03C813.336 377.523 814.199 379.297 814.713 381.35C815.226 383.403 815.483 385.69 815.483 388.21V409H805.053V389.47C805.053 386.11 804.609 383.73 803.723 382.33C802.836 380.93 801.179 380.23 798.753 380.23C798.006 380.23 797.213 380.277 796.373 380.37C795.533 380.417 794.786 380.487 794.133 380.58V409H783.703V373.44ZM824.573 363.01L835.003 361.33V372.18H847.533V380.86H835.003V393.81C835.003 396.003 835.377 397.753 836.123 399.06C836.917 400.367 838.48 401.02 840.813 401.02C841.933 401.02 843.077 400.927 844.243 400.74C845.457 400.507 846.553 400.203 847.533 399.83L849.003 407.95C847.743 408.463 846.343 408.907 844.803 409.28C843.263 409.653 841.373 409.84 839.133 409.84C836.287 409.84 833.93 409.467 832.063 408.72C830.197 407.927 828.703 406.853 827.583 405.5C826.463 404.1 825.67 402.42 825.203 400.46C824.783 398.5 824.573 396.33 824.573 393.95V363.01ZM866.457 409H856.027V372.18H866.457V409ZM867.437 361.54C867.437 363.453 866.807 364.97 865.547 366.09C864.334 367.163 862.887 367.7 861.207 367.7C859.527 367.7 858.057 367.163 856.797 366.09C855.584 364.97 854.977 363.453 854.977 361.54C854.977 359.627 855.584 358.133 856.797 357.06C858.057 355.94 859.527 355.38 861.207 355.38C862.887 355.38 864.334 355.94 865.547 357.06C866.807 358.133 867.437 359.627 867.437 361.54ZM885.151 390.31C885.151 393.53 885.875 396.12 887.321 398.08C888.768 400.04 890.915 401.02 893.761 401.02C894.695 401.02 895.558 400.997 896.351 400.95C897.145 400.857 897.798 400.763 898.311 400.67V381.7C897.658 381.28 896.795 380.93 895.721 380.65C894.695 380.37 893.645 380.23 892.571 380.23C887.625 380.23 885.151 383.59 885.151 390.31ZM908.741 407.81C907.808 408.09 906.735 408.37 905.521 408.65C904.308 408.883 903.025 409.093 901.671 409.28C900.365 409.467 899.011 409.607 897.611 409.7C896.258 409.84 894.951 409.91 893.691 409.91C890.658 409.91 887.951 409.467 885.571 408.58C883.191 407.693 881.185 406.433 879.551 404.8C877.918 403.12 876.658 401.113 875.771 398.78C874.931 396.4 874.511 393.74 874.511 390.8C874.511 387.813 874.885 385.13 875.631 382.75C876.378 380.323 877.451 378.27 878.851 376.59C880.251 374.91 881.955 373.627 883.961 372.74C886.015 371.853 888.348 371.41 890.961 371.41C892.408 371.41 893.691 371.55 894.811 371.83C895.978 372.11 897.145 372.507 898.311 373.02V356.36L908.741 354.68V407.81ZM952.947 390.52C952.947 393.413 952.527 396.073 951.687 398.5C950.847 400.88 949.634 402.933 948.047 404.66C946.461 406.34 944.547 407.647 942.307 408.58C940.114 409.513 937.641 409.98 934.887 409.98C932.181 409.98 929.707 409.513 927.467 408.58C925.274 407.647 923.384 406.34 921.797 404.66C920.211 402.933 918.974 400.88 918.087 398.5C917.201 396.073 916.757 393.413 916.757 390.52C916.757 387.627 917.201 384.99 918.087 382.61C919.021 380.23 920.281 378.2 921.867 376.52C923.501 374.84 925.414 373.533 927.607 372.6C929.847 371.667 932.274 371.2 934.887 371.2C937.547 371.2 939.974 371.667 942.167 372.6C944.407 373.533 946.321 374.84 947.907 376.52C949.494 378.2 950.731 380.23 951.617 382.61C952.504 384.99 952.947 387.627 952.947 390.52ZM942.307 390.52C942.307 387.3 941.654 384.78 940.347 382.96C939.087 381.093 937.267 380.16 934.887 380.16C932.507 380.16 930.664 381.093 929.357 382.96C928.051 384.78 927.397 387.3 927.397 390.52C927.397 393.74 928.051 396.307 929.357 398.22C930.664 400.087 932.507 401.02 934.887 401.02C937.267 401.02 939.087 400.087 940.347 398.22C941.654 396.307 942.307 393.74 942.307 390.52ZM968.778 398.36C968.871 399.48 968.918 400.273 968.918 400.74C968.964 401.207 968.988 401.603 968.988 401.93C968.988 403.33 968.848 404.823 968.568 406.41C968.334 407.95 967.984 409.513 967.518 411.1C967.051 412.687 966.468 414.273 965.768 415.86C965.068 417.447 964.274 418.963 963.388 420.41L955.198 418.38C956.271 415.3 957.018 412.407 957.438 409.7C957.858 406.993 958.068 404.753 958.068 402.98C958.068 402.7 958.044 402.35 957.998 401.93C957.998 401.463 957.974 400.997 957.928 400.53C957.928 400.063 957.904 399.62 957.858 399.2C957.858 398.78 957.858 398.5 957.858 398.36H968.778ZM1027.39 390.52C1027.39 393.413 1026.97 396.073 1026.13 398.5C1025.29 400.88 1024.08 402.933 1022.49 404.66C1020.9 406.34 1018.99 407.647 1016.75 408.58C1014.56 409.513 1012.08 409.98 1009.33 409.98C1006.62 409.98 1004.15 409.513 1001.91 408.58C999.717 407.647 997.827 406.34 996.241 404.66C994.654 402.933 993.417 400.88 992.531 398.5C991.644 396.073 991.201 393.413 991.201 390.52C991.201 387.627 991.644 384.99 992.531 382.61C993.464 380.23 994.724 378.2 996.311 376.52C997.944 374.84 999.857 373.533 1002.05 372.6C1004.29 371.667 1006.72 371.2 1009.33 371.2C1011.99 371.2 1014.42 371.667 1016.61 372.6C1018.85 373.533 1020.76 374.84 1022.35 376.52C1023.94 378.2 1025.17 380.23 1026.06 382.61C1026.95 384.99 1027.39 387.627 1027.39 390.52ZM1016.75 390.52C1016.75 387.3 1016.1 384.78 1014.79 382.96C1013.53 381.093 1011.71 380.16 1009.33 380.16C1006.95 380.16 1005.11 381.093 1003.8 382.96C1002.49 384.78 1001.84 387.3 1001.84 390.52C1001.84 393.74 1002.49 396.307 1003.8 398.22C1005.11 400.087 1006.95 401.02 1009.33 401.02C1011.71 401.02 1013.53 400.087 1014.79 398.22C1016.1 396.307 1016.75 393.74 1016.75 390.52ZM1066.9 407.74C1065.13 408.253 1062.84 408.72 1060.04 409.14C1057.24 409.607 1054.3 409.84 1051.22 409.84C1048.09 409.84 1045.48 409.42 1043.38 408.58C1041.33 407.74 1039.69 406.573 1038.48 405.08C1037.27 403.54 1036.4 401.72 1035.89 399.62C1035.38 397.52 1035.12 395.21 1035.12 392.69V372.18H1045.55V391.43C1045.55 394.79 1045.99 397.217 1046.88 398.71C1047.77 400.203 1049.42 400.95 1051.85 400.95C1052.6 400.95 1053.39 400.927 1054.23 400.88C1055.07 400.787 1055.82 400.693 1056.47 400.6V372.18H1066.9V407.74ZM115.9 443.44C117.673 442.927 119.96 442.46 122.76 442.04C125.56 441.573 128.5 441.34 131.58 441.34C134.707 441.34 137.297 441.76 139.35 442.6C141.45 443.393 143.107 444.537 144.32 446.03C145.533 447.523 146.397 449.297 146.91 451.35C147.423 453.403 147.68 455.69 147.68 458.21V479H137.25V459.47C137.25 456.11 136.807 453.73 135.92 452.33C135.033 450.93 133.377 450.23 130.95 450.23C130.203 450.23 129.41 450.277 128.57 450.37C127.73 450.417 126.983 450.487 126.33 450.58V479H115.9V443.44ZM171.191 471.72C172.217 471.72 173.197 471.697 174.131 471.65C175.064 471.603 175.811 471.533 176.371 471.44V463.53C175.951 463.437 175.321 463.343 174.481 463.25C173.641 463.157 172.871 463.11 172.171 463.11C171.191 463.11 170.257 463.18 169.371 463.32C168.531 463.413 167.784 463.623 167.131 463.95C166.477 464.277 165.964 464.72 165.591 465.28C165.217 465.84 165.031 466.54 165.031 467.38C165.031 469.013 165.567 470.157 166.641 470.81C167.761 471.417 169.277 471.72 171.191 471.72ZM170.351 441.2C173.431 441.2 175.997 441.55 178.051 442.25C180.104 442.95 181.737 443.953 182.951 445.26C184.211 446.567 185.097 448.153 185.611 450.02C186.124 451.887 186.381 453.963 186.381 456.25V477.95C184.887 478.277 182.811 478.65 180.151 479.07C177.491 479.537 174.271 479.77 170.491 479.77C168.111 479.77 165.941 479.56 163.981 479.14C162.067 478.72 160.411 478.043 159.011 477.11C157.611 476.13 156.537 474.87 155.791 473.33C155.044 471.79 154.671 469.9 154.671 467.66C154.671 465.513 155.091 463.693 155.931 462.2C156.817 460.707 157.984 459.517 159.431 458.63C160.877 457.743 162.534 457.113 164.401 456.74C166.267 456.32 168.204 456.11 170.211 456.11C171.564 456.11 172.754 456.18 173.781 456.32C174.854 456.413 175.717 456.553 176.371 456.74V455.76C176.371 453.987 175.834 452.563 174.761 451.49C173.687 450.417 171.821 449.88 169.161 449.88C167.387 449.88 165.637 450.02 163.911 450.3C162.184 450.533 160.691 450.883 159.431 451.35L158.101 442.95C158.707 442.763 159.454 442.577 160.341 442.39C161.274 442.157 162.277 441.97 163.351 441.83C164.424 441.643 165.544 441.503 166.711 441.41C167.924 441.27 169.137 441.2 170.351 441.2ZM184.071 429.37C183.791 430.07 183.394 430.84 182.881 431.68C182.414 432.52 181.831 433.313 181.131 434.06C180.431 434.76 179.637 435.343 178.751 435.81C177.864 436.277 176.884 436.51 175.811 436.51C174.971 436.51 174.177 436.393 173.431 436.16C172.731 435.88 172.031 435.6 171.331 435.32C170.631 434.993 169.931 434.713 169.231 434.48C168.531 434.2 167.807 434.06 167.061 434.06C166.127 434.06 165.357 434.363 164.751 434.97C164.144 435.577 163.654 436.277 163.281 437.07L158.171 433.71C158.451 433.01 158.824 432.24 159.291 431.4C159.804 430.56 160.411 429.79 161.111 429.09C161.811 428.343 162.604 427.737 163.491 427.27C164.377 426.803 165.357 426.57 166.431 426.57C167.271 426.57 168.041 426.71 168.741 426.99C169.487 427.223 170.211 427.503 170.911 427.83C171.611 428.11 172.287 428.39 172.941 428.67C173.641 428.903 174.387 429.02 175.181 429.02C176.114 429.02 176.884 428.717 177.491 428.11C178.097 427.503 178.587 426.803 178.961 426.01L184.071 429.37ZM230.252 460.52C230.252 463.413 229.832 466.073 228.992 468.5C228.152 470.88 226.939 472.933 225.352 474.66C223.765 476.34 221.852 477.647 219.612 478.58C217.419 479.513 214.945 479.98 212.192 479.98C209.485 479.98 207.012 479.513 204.772 478.58C202.579 477.647 200.689 476.34 199.102 474.66C197.515 472.933 196.279 470.88 195.392 468.5C194.505 466.073 194.062 463.413 194.062 460.52C194.062 457.627 194.505 454.99 195.392 452.61C196.325 450.23 197.585 448.2 199.172 446.52C200.805 444.84 202.719 443.533 204.912 442.6C207.152 441.667 209.579 441.2 212.192 441.2C214.852 441.2 217.279 441.667 219.472 442.6C221.712 443.533 223.625 444.84 225.212 446.52C226.799 448.2 228.035 450.23 228.922 452.61C229.809 454.99 230.252 457.627 230.252 460.52ZM219.612 460.52C219.612 457.3 218.959 454.78 217.652 452.96C216.392 451.093 214.572 450.16 212.192 450.16C209.812 450.16 207.969 451.093 206.662 452.96C205.355 454.78 204.702 457.3 204.702 460.52C204.702 463.74 205.355 466.307 206.662 468.22C207.969 470.087 209.812 471.02 212.192 471.02C214.572 471.02 216.392 470.087 217.652 468.22C218.959 466.307 219.612 463.74 219.612 460.52ZM150.34 600.52C150.34 603.413 149.92 606.073 149.08 608.5C148.24 610.88 147.027 612.933 145.44 614.66C143.853 616.34 141.94 617.647 139.7 618.58C137.507 619.513 135.033 619.98 132.28 619.98C129.573 619.98 127.1 619.513 124.86 618.58C122.667 617.647 120.777 616.34 119.19 614.66C117.603 612.933 116.367 610.88 115.48 608.5C114.593 606.073 114.15 603.413 114.15 600.52C114.15 597.627 114.593 594.99 115.48 592.61C116.413 590.23 117.673 588.2 119.26 586.52C120.893 584.84 122.807 583.533 125 582.6C127.24 581.667 129.667 581.2 132.28 581.2C134.94 581.2 137.367 581.667 139.56 582.6C141.8 583.533 143.713 584.84 145.3 586.52C146.887 588.2 148.123 590.23 149.01 592.61C149.897 594.99 150.34 597.627 150.34 600.52ZM139.7 600.52C139.7 597.3 139.047 594.78 137.74 592.96C136.48 591.093 134.66 590.16 132.28 590.16C129.9 590.16 128.057 591.093 126.75 592.96C125.443 594.78 124.79 597.3 124.79 600.52C124.79 603.74 125.443 606.307 126.75 608.22C128.057 610.087 129.9 611.02 132.28 611.02C134.66 611.02 136.48 610.087 137.74 608.22C139.047 606.307 139.7 603.74 139.7 600.52ZM168.99 611.51C170.903 611.51 172.256 611.323 173.05 610.95C173.843 610.577 174.24 609.853 174.24 608.78C174.24 607.94 173.726 607.217 172.7 606.61C171.673 605.957 170.11 605.233 168.01 604.44C166.376 603.833 164.883 603.203 163.53 602.55C162.223 601.897 161.103 601.127 160.17 600.24C159.236 599.307 158.513 598.21 158 596.95C157.486 595.69 157.23 594.173 157.23 592.4C157.23 588.947 158.513 586.217 161.08 584.21C163.646 582.203 167.17 581.2 171.65 581.2C173.89 581.2 176.036 581.41 178.09 581.83C180.143 582.203 181.776 582.623 182.99 583.09L181.17 591.21C179.956 590.79 178.626 590.417 177.18 590.09C175.78 589.763 174.193 589.6 172.42 589.6C169.153 589.6 167.52 590.51 167.52 592.33C167.52 592.75 167.59 593.123 167.73 593.45C167.87 593.777 168.15 594.103 168.57 594.43C168.99 594.71 169.55 595.037 170.25 595.41C170.996 595.737 171.93 596.11 173.05 596.53C175.336 597.37 177.226 598.21 178.72 599.05C180.213 599.843 181.38 600.73 182.22 601.71C183.106 602.643 183.713 603.693 184.04 604.86C184.413 606.027 184.6 607.38 184.6 608.92C184.6 612.56 183.223 615.313 180.47 617.18C177.763 619.047 173.913 619.98 168.92 619.98C165.653 619.98 162.923 619.7 160.73 619.14C158.583 618.58 157.09 618.113 156.25 617.74L158 609.27C159.773 609.97 161.593 610.53 163.46 610.95C165.326 611.323 167.17 611.51 168.99 611.51ZM219.641 619H209.211V582.18H219.641V619ZM220.621 571.54C220.621 573.453 219.991 574.97 218.731 576.09C217.517 577.163 216.071 577.7 214.391 577.7C212.711 577.7 211.241 577.163 209.981 576.09C208.767 574.97 208.161 573.453 208.161 571.54C208.161 569.627 208.767 568.133 209.981 567.06C211.241 565.94 212.711 565.38 214.391 565.38C216.071 565.38 217.517 565.94 218.731 567.06C219.991 568.133 220.621 569.627 220.621 571.54ZM229.445 583.44C231.218 582.927 233.505 582.46 236.305 582.04C239.105 581.573 242.045 581.34 245.125 581.34C248.252 581.34 250.842 581.76 252.895 582.6C254.995 583.393 256.652 584.537 257.865 586.03C259.078 587.523 259.942 589.297 260.455 591.35C260.968 593.403 261.225 595.69 261.225 598.21V619H250.795V599.47C250.795 596.11 250.352 593.73 249.465 592.33C248.578 590.93 246.922 590.23 244.495 590.23C243.748 590.23 242.955 590.277 242.115 590.37C241.275 590.417 240.528 590.487 239.875 590.58V619H229.445V583.44ZM279.582 619C277.202 614.333 274.775 608.873 272.302 602.62C269.875 596.367 267.565 589.553 265.372 582.18H276.432C276.899 584 277.435 585.983 278.042 588.13C278.695 590.23 279.349 592.377 280.002 594.57C280.702 596.717 281.379 598.817 282.032 600.87C282.732 602.923 283.409 604.79 284.062 606.47C284.669 604.79 285.322 602.923 286.022 600.87C286.722 598.817 287.399 596.717 288.052 594.57C288.752 592.377 289.405 590.23 290.012 588.13C290.665 585.983 291.225 584 291.692 582.18H302.472C300.279 589.553 297.945 596.367 295.472 602.62C293.045 608.873 290.642 614.333 288.262 619H279.582ZM305.351 600.87C305.351 597.603 305.841 594.757 306.821 592.33C307.848 589.857 309.178 587.803 310.811 586.17C312.445 584.537 314.311 583.3 316.411 582.46C318.558 581.62 320.751 581.2 322.991 581.2C328.218 581.2 332.348 582.81 335.381 586.03C338.415 589.203 339.931 593.893 339.931 600.1C339.931 600.707 339.908 601.383 339.861 602.13C339.815 602.83 339.768 603.46 339.721 604.02H316.061C316.295 606.167 317.298 607.87 319.071 609.13C320.845 610.39 323.225 611.02 326.211 611.02C328.125 611.02 329.991 610.857 331.811 610.53C333.678 610.157 335.195 609.713 336.361 609.2L337.761 617.67C337.201 617.95 336.455 618.23 335.521 618.51C334.588 618.79 333.538 619.023 332.371 619.21C331.251 619.443 330.038 619.63 328.731 619.77C327.425 619.91 326.118 619.98 324.811 619.98C321.498 619.98 318.605 619.49 316.131 618.51C313.705 617.53 311.675 616.2 310.041 614.52C308.455 612.793 307.265 610.763 306.471 608.43C305.725 606.097 305.351 603.577 305.351 600.87ZM329.851 596.88C329.805 595.993 329.641 595.13 329.361 594.29C329.128 593.45 328.731 592.703 328.171 592.05C327.658 591.397 326.981 590.86 326.141 590.44C325.348 590.02 324.345 589.81 323.131 589.81C321.965 589.81 320.961 590.02 320.121 590.44C319.281 590.813 318.581 591.327 318.021 591.98C317.461 592.633 317.018 593.403 316.691 594.29C316.411 595.13 316.201 595.993 316.061 596.88H329.851ZM358.55 611.51C360.463 611.51 361.817 611.323 362.61 610.95C363.403 610.577 363.8 609.853 363.8 608.78C363.8 607.94 363.287 607.217 362.26 606.61C361.233 605.957 359.67 605.233 357.57 604.44C355.937 603.833 354.443 603.203 353.09 602.55C351.783 601.897 350.663 601.127 349.73 600.24C348.797 599.307 348.073 598.21 347.56 596.95C347.047 595.69 346.79 594.173 346.79 592.4C346.79 588.947 348.073 586.217 350.64 584.21C353.207 582.203 356.73 581.2 361.21 581.2C363.45 581.2 365.597 581.41 367.65 581.83C369.703 582.203 371.337 582.623 372.55 583.09L370.73 591.21C369.517 590.79 368.187 590.417 366.74 590.09C365.34 589.763 363.753 589.6 361.98 589.6C358.713 589.6 357.08 590.51 357.08 592.33C357.08 592.75 357.15 593.123 357.29 593.45C357.43 593.777 357.71 594.103 358.13 594.43C358.55 594.71 359.11 595.037 359.81 595.41C360.557 595.737 361.49 596.11 362.61 596.53C364.897 597.37 366.787 598.21 368.28 599.05C369.773 599.843 370.94 600.73 371.78 601.71C372.667 602.643 373.273 603.693 373.6 604.86C373.973 606.027 374.16 607.38 374.16 608.92C374.16 612.56 372.783 615.313 370.03 617.18C367.323 619.047 363.473 619.98 358.48 619.98C355.213 619.98 352.483 619.7 350.29 619.14C348.143 618.58 346.65 618.113 345.81 617.74L347.56 609.27C349.333 609.97 351.153 610.53 353.02 610.95C354.887 611.323 356.73 611.51 358.55 611.51ZM381.605 573.01L392.035 571.33V582.18H404.565V590.86H392.035V603.81C392.035 606.003 392.408 607.753 393.155 609.06C393.948 610.367 395.511 611.02 397.845 611.02C398.965 611.02 400.108 610.927 401.275 610.74C402.488 610.507 403.585 610.203 404.565 609.83L406.035 617.95C404.775 618.463 403.375 618.907 401.835 619.28C400.295 619.653 398.405 619.84 396.165 619.84C393.318 619.84 390.961 619.467 389.095 618.72C387.228 617.927 385.735 616.853 384.615 615.5C383.495 614.1 382.701 612.42 382.235 610.46C381.815 608.5 381.605 606.33 381.605 603.95V573.01ZM423.488 619H413.058V582.18H423.488V619ZM424.468 571.54C424.468 573.453 423.838 574.97 422.578 576.09C421.365 577.163 419.918 577.7 418.238 577.7C416.558 577.7 415.088 577.163 413.828 576.09C412.615 574.97 412.008 573.453 412.008 571.54C412.008 569.627 412.615 568.133 413.828 567.06C415.088 565.94 416.558 565.38 418.238 565.38C419.918 565.38 421.365 565.94 422.578 567.06C423.838 568.133 424.468 569.627 424.468 571.54ZM453.523 599.47C453.523 596.11 453.079 593.73 452.193 592.33C451.353 590.93 449.883 590.23 447.783 590.23C447.129 590.23 446.453 590.277 445.753 590.37C445.053 590.417 444.376 590.487 443.723 590.58V619H433.293V583.44C434.179 583.207 435.206 582.973 436.373 582.74C437.586 582.46 438.846 582.227 440.153 582.04C441.506 581.807 442.883 581.643 444.283 581.55C445.683 581.41 447.059 581.34 448.413 581.34C451.073 581.34 453.219 581.69 454.853 582.39C456.533 583.043 457.909 583.837 458.983 584.77C460.476 583.697 462.179 582.857 464.093 582.25C466.053 581.643 467.849 581.34 469.483 581.34C472.423 581.34 474.826 581.76 476.693 582.6C478.606 583.393 480.123 584.537 481.243 586.03C482.363 587.523 483.133 589.297 483.553 591.35C483.973 593.403 484.183 595.69 484.183 598.21V619H473.753V599.47C473.753 596.11 473.309 593.73 472.423 592.33C471.583 590.93 470.113 590.23 468.013 590.23C467.453 590.23 466.659 590.37 465.633 590.65C464.653 590.93 463.836 591.28 463.183 591.7C463.509 592.773 463.719 593.917 463.813 595.13C463.906 596.297 463.953 597.557 463.953 598.91V619H453.523V599.47ZM491.904 600.87C491.904 597.603 492.394 594.757 493.374 592.33C494.401 589.857 495.731 587.803 497.364 586.17C498.997 584.537 500.864 583.3 502.964 582.46C505.111 581.62 507.304 581.2 509.544 581.2C514.771 581.2 518.901 582.81 521.934 586.03C524.967 589.203 526.484 593.893 526.484 600.1C526.484 600.707 526.461 601.383 526.414 602.13C526.367 602.83 526.321 603.46 526.274 604.02H502.614C502.847 606.167 503.851 607.87 505.624 609.13C507.397 610.39 509.777 611.02 512.764 611.02C514.677 611.02 516.544 610.857 518.364 610.53C520.231 610.157 521.747 609.713 522.914 609.2L524.314 617.67C523.754 617.95 523.007 618.23 522.074 618.51C521.141 618.79 520.091 619.023 518.924 619.21C517.804 619.443 516.591 619.63 515.284 619.77C513.977 619.91 512.671 619.98 511.364 619.98C508.051 619.98 505.157 619.49 502.684 618.51C500.257 617.53 498.227 616.2 496.594 614.52C495.007 612.793 493.817 610.763 493.024 608.43C492.277 606.097 491.904 603.577 491.904 600.87ZM516.404 596.88C516.357 595.993 516.194 595.13 515.914 594.29C515.681 593.45 515.284 592.703 514.724 592.05C514.211 591.397 513.534 590.86 512.694 590.44C511.901 590.02 510.897 589.81 509.684 589.81C508.517 589.81 507.514 590.02 506.674 590.44C505.834 590.813 505.134 591.327 504.574 591.98C504.014 592.633 503.571 593.403 503.244 594.29C502.964 595.13 502.754 595.993 502.614 596.88H516.404ZM534.533 583.44C536.306 582.927 538.593 582.46 541.393 582.04C544.193 581.573 547.133 581.34 550.213 581.34C553.339 581.34 555.929 581.76 557.983 582.6C560.083 583.393 561.739 584.537 562.953 586.03C564.166 587.523 565.029 589.297 565.543 591.35C566.056 593.403 566.313 595.69 566.313 598.21V619H555.883V599.47C555.883 596.11 555.439 593.73 554.553 592.33C553.666 590.93 552.009 590.23 549.583 590.23C548.836 590.23 548.043 590.277 547.203 590.37C546.363 590.417 545.616 590.487 544.963 590.58V619H534.533V583.44ZM575.404 573.01L585.834 571.33V582.18H598.364V590.86H585.834V603.81C585.834 606.003 586.207 607.753 586.954 609.06C587.747 610.367 589.31 611.02 591.644 611.02C592.764 611.02 593.907 610.927 595.074 610.74C596.287 610.507 597.384 610.203 598.364 609.83L599.834 617.95C598.574 618.463 597.174 618.907 595.634 619.28C594.094 619.653 592.204 619.84 589.964 619.84C587.117 619.84 584.76 619.467 582.894 618.72C581.027 617.927 579.534 616.853 578.414 615.5C577.294 614.1 576.5 612.42 576.034 610.46C575.614 608.5 575.404 606.33 575.404 603.95V573.01ZM639.93 600.52C639.93 603.413 639.51 606.073 638.67 608.5C637.83 610.88 636.617 612.933 635.03 614.66C633.443 616.34 631.53 617.647 629.29 618.58C627.097 619.513 624.623 619.98 621.87 619.98C619.163 619.98 616.69 619.513 614.45 618.58C612.257 617.647 610.367 616.34 608.78 614.66C607.193 612.933 605.957 610.88 605.07 608.5C604.183 606.073 603.74 603.413 603.74 600.52C603.74 597.627 604.183 594.99 605.07 592.61C606.003 590.23 607.263 588.2 608.85 586.52C610.483 584.84 612.397 583.533 614.59 582.6C616.83 581.667 619.257 581.2 621.87 581.2C624.53 581.2 626.957 581.667 629.15 582.6C631.39 583.533 633.303 584.84 634.89 586.52C636.477 588.2 637.713 590.23 638.6 592.61C639.487 594.99 639.93 597.627 639.93 600.52ZM629.29 600.52C629.29 597.3 628.637 594.78 627.33 592.96C626.07 591.093 624.25 590.16 621.87 590.16C619.49 590.16 617.647 591.093 616.34 592.96C615.033 594.78 614.38 597.3 614.38 600.52C614.38 603.74 615.033 606.307 616.34 608.22C617.647 610.087 619.49 611.02 621.87 611.02C624.25 611.02 626.07 610.087 627.33 608.22C628.637 606.307 629.29 603.74 629.29 600.52ZM658.579 611.51C660.493 611.51 661.846 611.323 662.639 610.95C663.433 610.577 663.829 609.853 663.829 608.78C663.829 607.94 663.316 607.217 662.289 606.61C661.263 605.957 659.699 605.233 657.599 604.44C655.966 603.833 654.473 603.203 653.119 602.55C651.813 601.897 650.693 601.127 649.759 600.24C648.826 599.307 648.103 598.21 647.589 596.95C647.076 595.69 646.819 594.173 646.819 592.4C646.819 588.947 648.103 586.217 650.669 584.21C653.236 582.203 656.759 581.2 661.239 581.2C663.479 581.2 665.626 581.41 667.679 581.83C669.733 582.203 671.366 582.623 672.579 583.09L670.759 591.21C669.546 590.79 668.216 590.417 666.769 590.09C665.369 589.763 663.783 589.6 662.009 589.6C658.743 589.6 657.109 590.51 657.109 592.33C657.109 592.75 657.179 593.123 657.319 593.45C657.459 593.777 657.739 594.103 658.159 594.43C658.579 594.71 659.139 595.037 659.839 595.41C660.586 595.737 661.519 596.11 662.639 596.53C664.926 597.37 666.816 598.21 668.309 599.05C669.803 599.843 670.969 600.73 671.809 601.71C672.696 602.643 673.303 603.693 673.629 604.86C674.003 606.027 674.189 607.38 674.189 608.92C674.189 612.56 672.813 615.313 670.059 617.18C667.353 619.047 663.503 619.98 658.509 619.98C655.243 619.98 652.513 619.7 650.319 619.14C648.173 618.58 646.679 618.113 645.839 617.74L647.589 609.27C649.363 609.97 651.183 610.53 653.049 610.95C654.916 611.323 656.759 611.51 658.579 611.51ZM722.39 600.87C722.39 597.65 721.667 595.083 720.22 593.17C718.774 591.21 716.627 590.23 713.78 590.23C712.847 590.23 711.984 590.277 711.19 590.37C710.397 590.417 709.744 590.487 709.23 590.58V609.41C709.884 609.83 710.724 610.18 711.75 610.46C712.824 610.74 713.897 610.88 714.97 610.88C719.917 610.88 722.39 607.543 722.39 600.87ZM733.03 600.59C733.03 603.437 732.68 606.027 731.98 608.36C731.28 610.693 730.254 612.7 728.9 614.38C727.547 616.06 725.867 617.367 723.86 618.3C721.854 619.233 719.544 619.7 716.93 619.7C715.484 619.7 714.13 619.56 712.87 619.28C711.61 619 710.397 618.603 709.23 618.09V631.95H698.8V583.44C699.734 583.16 700.807 582.903 702.02 582.67C703.234 582.39 704.494 582.157 705.8 581.97C707.154 581.783 708.507 581.643 709.86 581.55C711.26 581.41 712.59 581.34 713.85 581.34C716.884 581.34 719.59 581.807 721.97 582.74C724.35 583.627 726.357 584.91 727.99 586.59C729.624 588.223 730.86 590.23 731.7 592.61C732.587 594.99 733.03 597.65 733.03 600.59ZM763.236 591.42C762.303 591.187 761.206 590.953 759.946 590.72C758.686 590.44 757.333 590.3 755.886 590.3C755.233 590.3 754.44 590.37 753.506 590.51C752.62 590.603 751.943 590.72 751.476 590.86V619H741.046V584.14C742.913 583.487 745.106 582.88 747.626 582.32C750.193 581.713 753.04 581.41 756.166 581.41C756.726 581.41 757.403 581.457 758.196 581.55C758.99 581.597 759.783 581.69 760.576 581.83C761.37 581.923 762.163 582.063 762.956 582.25C763.75 582.39 764.426 582.577 764.986 582.81L763.236 591.42ZM804.334 600.52C804.334 603.413 803.914 606.073 803.074 608.5C802.234 610.88 801.021 612.933 799.434 614.66C797.847 616.34 795.934 617.647 793.694 618.58C791.501 619.513 789.027 619.98 786.274 619.98C783.567 619.98 781.094 619.513 778.854 618.58C776.661 617.647 774.771 616.34 773.184 614.66C771.597 612.933 770.361 610.88 769.474 608.5C768.587 606.073 768.144 603.413 768.144 600.52C768.144 597.627 768.587 594.99 769.474 592.61C770.407 590.23 771.667 588.2 773.254 586.52C774.887 584.84 776.801 583.533 778.994 582.6C781.234 581.667 783.661 581.2 786.274 581.2C788.934 581.2 791.361 581.667 793.554 582.6C795.794 583.533 797.707 584.84 799.294 586.52C800.881 588.2 802.117 590.23 803.004 592.61C803.891 594.99 804.334 597.627 804.334 600.52ZM793.694 600.52C793.694 597.3 793.041 594.78 791.734 592.96C790.474 591.093 788.654 590.16 786.274 590.16C783.894 590.16 782.051 591.093 780.744 592.96C779.437 594.78 778.784 597.3 778.784 600.52C778.784 603.74 779.437 606.307 780.744 608.22C782.051 610.087 783.894 611.02 786.274 611.02C788.654 611.02 790.474 610.087 791.734 608.22C793.041 606.307 793.694 603.74 793.694 600.52ZM821.304 600.31C821.304 603.53 822.027 606.12 823.474 608.08C824.92 610.04 827.067 611.02 829.914 611.02C830.847 611.02 831.71 610.997 832.504 610.95C833.297 610.857 833.95 610.763 834.464 610.67V591.7C833.81 591.28 832.947 590.93 831.874 590.65C830.847 590.37 829.797 590.23 828.724 590.23C823.777 590.23 821.304 593.59 821.304 600.31ZM844.894 617.81C843.96 618.09 842.887 618.37 841.674 618.65C840.46 618.883 839.177 619.093 837.824 619.28C836.517 619.467 835.164 619.607 833.764 619.7C832.41 619.84 831.104 619.91 829.844 619.91C826.81 619.91 824.104 619.467 821.724 618.58C819.344 617.693 817.337 616.433 815.704 614.8C814.07 613.12 812.81 611.113 811.924 608.78C811.084 606.4 810.664 603.74 810.664 600.8C810.664 597.813 811.037 595.13 811.784 592.75C812.53 590.323 813.604 588.27 815.004 586.59C816.404 584.91 818.107 583.627 820.114 582.74C822.167 581.853 824.5 581.41 827.114 581.41C828.56 581.41 829.844 581.55 830.964 581.83C832.13 582.11 833.297 582.507 834.464 583.02V566.36L844.894 564.68V617.81ZM886.09 617.74C884.316 618.253 882.03 618.72 879.23 619.14C876.43 619.607 873.49 619.84 870.41 619.84C867.283 619.84 864.67 619.42 862.57 618.58C860.516 617.74 858.883 616.573 857.67 615.08C856.456 613.54 855.593 611.72 855.08 609.62C854.566 607.52 854.31 605.21 854.31 602.69V582.18H864.74V601.43C864.74 604.79 865.183 607.217 866.07 608.71C866.956 610.203 868.613 610.95 871.04 610.95C871.786 610.95 872.58 610.927 873.42 610.88C874.26 610.787 875.006 610.693 875.66 610.6V582.18H886.09V617.74ZM923.53 589.18C922.69 590.113 921.547 591.373 920.1 592.96C918.7 594.547 917.184 596.297 915.55 598.21C913.917 600.123 912.26 602.13 910.58 604.23C908.947 606.33 907.454 608.36 906.1 610.32H923.88V619H893.43V612.84C894.41 611.16 895.577 609.363 896.93 607.45C898.33 605.49 899.777 603.53 901.27 601.57C902.81 599.61 904.327 597.72 905.82 595.9C907.314 594.033 908.69 592.353 909.95 590.86H894.27V582.18H923.53V589.18ZM928.105 600.87C928.105 597.603 928.595 594.757 929.575 592.33C930.602 589.857 931.932 587.803 933.565 586.17C935.198 584.537 937.065 583.3 939.165 582.46C941.312 581.62 943.505 581.2 945.745 581.2C950.972 581.2 955.102 582.81 958.135 586.03C961.168 589.203 962.685 593.893 962.685 600.1C962.685 600.707 962.662 601.383 962.615 602.13C962.568 602.83 962.522 603.46 962.475 604.02H938.815C939.048 606.167 940.052 607.87 941.825 609.13C943.598 610.39 945.978 611.02 948.965 611.02C950.878 611.02 952.745 610.857 954.565 610.53C956.432 610.157 957.948 609.713 959.115 609.2L960.515 617.67C959.955 617.95 959.208 618.23 958.275 618.51C957.342 618.79 956.292 619.023 955.125 619.21C954.005 619.443 952.792 619.63 951.485 619.77C950.178 619.91 948.872 619.98 947.565 619.98C944.252 619.98 941.358 619.49 938.885 618.51C936.458 617.53 934.428 616.2 932.795 614.52C931.208 612.793 930.018 610.763 929.225 608.43C928.478 606.097 928.105 603.577 928.105 600.87ZM952.605 596.88C952.558 595.993 952.395 595.13 952.115 594.29C951.882 593.45 951.485 592.703 950.925 592.05C950.412 591.397 949.735 590.86 948.895 590.44C948.102 590.02 947.098 589.81 945.885 589.81C944.718 589.81 943.715 590.02 942.875 590.44C942.035 590.813 941.335 591.327 940.775 591.98C940.215 592.633 939.772 593.403 939.445 594.29C939.165 595.13 938.955 595.993 938.815 596.88H952.605ZM990.964 599.47C990.964 596.11 990.521 593.73 989.634 592.33C988.794 590.93 987.324 590.23 985.224 590.23C984.571 590.23 983.894 590.277 983.194 590.37C982.494 590.417 981.817 590.487 981.164 590.58V619H970.734V583.44C971.621 583.207 972.647 582.973 973.814 582.74C975.027 582.46 976.287 582.227 977.594 582.04C978.947 581.807 980.324 581.643 981.724 581.55C983.124 581.41 984.501 581.34 985.854 581.34C988.514 581.34 990.661 581.69 992.294 582.39C993.974 583.043 995.351 583.837 996.424 584.77C997.917 583.697 999.621 582.857 1001.53 582.25C1003.49 581.643 1005.29 581.34 1006.92 581.34C1009.86 581.34 1012.27 581.76 1014.13 582.6C1016.05 583.393 1017.56 584.537 1018.68 586.03C1019.8 587.523 1020.57 589.297 1020.99 591.35C1021.41 593.403 1021.62 595.69 1021.62 598.21V619H1011.19V599.47C1011.19 596.11 1010.75 593.73 1009.86 592.33C1009.02 590.93 1007.55 590.23 1005.45 590.23C1004.89 590.23 1004.1 590.37 1003.07 590.65C1002.09 590.93 1001.28 591.28 1000.62 591.7C1000.95 592.773 1001.16 593.917 1001.25 595.13C1001.35 596.297 1001.39 597.557 1001.39 598.91V619H990.964V599.47ZM136.13 669.47C136.13 666.11 135.687 663.73 134.8 662.33C133.96 660.93 132.49 660.23 130.39 660.23C129.737 660.23 129.06 660.277 128.36 660.37C127.66 660.417 126.983 660.487 126.33 660.58V689H115.9V653.44C116.787 653.207 117.813 652.973 118.98 652.74C120.193 652.46 121.453 652.227 122.76 652.04C124.113 651.807 125.49 651.643 126.89 651.55C128.29 651.41 129.667 651.34 131.02 651.34C133.68 651.34 135.827 651.69 137.46 652.39C139.14 653.043 140.517 653.837 141.59 654.77C143.083 653.697 144.787 652.857 146.7 652.25C148.66 651.643 150.457 651.34 152.09 651.34C155.03 651.34 157.433 651.76 159.3 652.6C161.213 653.393 162.73 654.537 163.85 656.03C164.97 657.523 165.74 659.297 166.16 661.35C166.58 663.403 166.79 665.69 166.79 668.21V689H156.36V669.47C156.36 666.11 155.917 663.73 155.03 662.33C154.19 660.93 152.72 660.23 150.62 660.23C150.06 660.23 149.267 660.37 148.24 660.65C147.26 660.93 146.443 661.28 145.79 661.7C146.117 662.773 146.327 663.917 146.42 665.13C146.513 666.297 146.56 667.557 146.56 668.91V689H136.13V669.47ZM174.511 670.87C174.511 667.603 175.001 664.757 175.981 662.33C177.008 659.857 178.338 657.803 179.971 656.17C181.605 654.537 183.471 653.3 185.571 652.46C187.718 651.62 189.911 651.2 192.151 651.2C197.378 651.2 201.508 652.81 204.541 656.03C207.575 659.203 209.091 663.893 209.091 670.1C209.091 670.707 209.068 671.383 209.021 672.13C208.975 672.83 208.928 673.46 208.881 674.02H185.221C185.455 676.167 186.458 677.87 188.231 679.13C190.005 680.39 192.385 681.02 195.371 681.02C197.285 681.02 199.151 680.857 200.971 680.53C202.838 680.157 204.355 679.713 205.521 679.2L206.921 687.67C206.361 687.95 205.615 688.23 204.681 688.51C203.748 688.79 202.698 689.023 201.531 689.21C200.411 689.443 199.198 689.63 197.891 689.77C196.585 689.91 195.278 689.98 193.971 689.98C190.658 689.98 187.765 689.49 185.291 688.51C182.865 687.53 180.835 686.2 179.201 684.52C177.615 682.793 176.425 680.763 175.631 678.43C174.885 676.097 174.511 673.577 174.511 670.87ZM199.011 666.88C198.965 665.993 198.801 665.13 198.521 664.29C198.288 663.45 197.891 662.703 197.331 662.05C196.818 661.397 196.141 660.86 195.301 660.44C194.508 660.02 193.505 659.81 192.291 659.81C191.125 659.81 190.121 660.02 189.281 660.44C188.441 660.813 187.741 661.327 187.181 661.98C186.621 662.633 186.178 663.403 185.851 664.29C185.571 665.13 185.361 665.993 185.221 666.88H199.011ZM231.84 689.7C228.807 689.653 226.334 689.327 224.42 688.72C222.554 688.113 221.06 687.273 219.94 686.2C218.867 685.08 218.12 683.75 217.7 682.21C217.327 680.623 217.14 678.85 217.14 676.89V636.36L227.57 634.68V674.79C227.57 675.723 227.64 676.563 227.78 677.31C227.92 678.057 228.177 678.687 228.55 679.2C228.97 679.713 229.554 680.133 230.3 680.46C231.047 680.787 232.05 680.997 233.31 681.09L231.84 689.7ZM239.289 689V636.36L249.719 634.68V652.32C250.419 652.087 251.305 651.877 252.379 651.69C253.499 651.457 254.572 651.34 255.599 651.34C258.585 651.34 261.059 651.76 263.019 652.6C265.025 653.393 266.612 654.537 267.779 656.03C268.992 657.523 269.832 659.297 270.299 661.35C270.812 663.403 271.069 665.69 271.069 668.21V689H260.639V669.47C260.639 666.11 260.195 663.73 259.309 662.33C258.469 660.93 256.882 660.23 254.549 660.23C253.615 660.23 252.729 660.323 251.889 660.51C251.095 660.65 250.372 660.813 249.719 661V689H239.289ZM314.949 670.52C314.949 673.413 314.529 676.073 313.689 678.5C312.849 680.88 311.636 682.933 310.049 684.66C308.463 686.34 306.549 687.647 304.309 688.58C302.116 689.513 299.643 689.98 296.889 689.98C294.183 689.98 291.709 689.513 289.469 688.58C287.276 687.647 285.386 686.34 283.799 684.66C282.213 682.933 280.976 680.88 280.089 678.5C279.203 676.073 278.759 673.413 278.759 670.52C278.759 667.627 279.203 664.99 280.089 662.61C281.023 660.23 282.283 658.2 283.869 656.52C285.503 654.84 287.416 653.533 289.609 652.6C291.849 651.667 294.276 651.2 296.889 651.2C299.549 651.2 301.976 651.667 304.169 652.6C306.409 653.533 308.323 654.84 309.909 656.52C311.496 658.2 312.733 660.23 313.619 662.61C314.506 664.99 314.949 667.627 314.949 670.52ZM304.309 670.52C304.309 667.3 303.656 664.78 302.349 662.96C301.089 661.093 299.269 660.16 296.889 660.16C294.509 660.16 292.666 661.093 291.359 662.96C290.053 664.78 289.399 667.3 289.399 670.52C289.399 673.74 290.053 676.307 291.359 678.22C292.666 680.087 294.509 681.02 296.889 681.02C299.269 681.02 301.089 680.087 302.349 678.22C303.656 676.307 304.309 673.74 304.309 670.52ZM345.219 661.42C344.286 661.187 343.189 660.953 341.929 660.72C340.669 660.44 339.316 660.3 337.869 660.3C337.216 660.3 336.422 660.37 335.489 660.51C334.602 660.603 333.926 660.72 333.459 660.86V689H323.029V654.14C324.896 653.487 327.089 652.88 329.609 652.32C332.176 651.713 335.022 651.41 338.149 651.41C338.709 651.41 339.386 651.457 340.179 651.55C340.972 651.597 341.766 651.69 342.559 651.83C343.352 651.923 344.146 652.063 344.939 652.25C345.732 652.39 346.409 652.577 346.969 652.81L345.219 661.42ZM362.99 689H352.56V652.18H362.99V689ZM363.97 641.54C363.97 643.453 363.34 644.97 362.08 646.09C360.867 647.163 359.42 647.7 357.74 647.7C356.06 647.7 354.59 647.163 353.33 646.09C352.117 644.97 351.51 643.453 351.51 641.54C351.51 639.627 352.117 638.133 353.33 637.06C354.59 635.94 356.06 635.38 357.74 635.38C359.42 635.38 360.867 635.94 362.08 637.06C363.34 638.133 363.97 639.627 363.97 641.54ZM386.865 681.72C387.891 681.72 388.871 681.697 389.805 681.65C390.738 681.603 391.485 681.533 392.045 681.44V673.53C391.625 673.437 390.995 673.343 390.155 673.25C389.315 673.157 388.545 673.11 387.845 673.11C386.865 673.11 385.931 673.18 385.045 673.32C384.205 673.413 383.458 673.623 382.805 673.95C382.151 674.277 381.638 674.72 381.265 675.28C380.891 675.84 380.705 676.54 380.705 677.38C380.705 679.013 381.241 680.157 382.315 680.81C383.435 681.417 384.951 681.72 386.865 681.72ZM386.025 651.2C389.105 651.2 391.671 651.55 393.725 652.25C395.778 652.95 397.411 653.953 398.625 655.26C399.885 656.567 400.771 658.153 401.285 660.02C401.798 661.887 402.055 663.963 402.055 666.25V687.95C400.561 688.277 398.485 688.65 395.825 689.07C393.165 689.537 389.945 689.77 386.165 689.77C383.785 689.77 381.615 689.56 379.655 689.14C377.741 688.72 376.085 688.043 374.685 687.11C373.285 686.13 372.211 684.87 371.465 683.33C370.718 681.79 370.345 679.9 370.345 677.66C370.345 675.513 370.765 673.693 371.605 672.2C372.491 670.707 373.658 669.517 375.105 668.63C376.551 667.743 378.208 667.113 380.075 666.74C381.941 666.32 383.878 666.11 385.885 666.11C387.238 666.11 388.428 666.18 389.455 666.32C390.528 666.413 391.391 666.553 392.045 666.74V665.76C392.045 663.987 391.508 662.563 390.435 661.49C389.361 660.417 387.495 659.88 384.835 659.88C383.061 659.88 381.311 660.02 379.585 660.3C377.858 660.533 376.365 660.883 375.105 661.35L373.775 652.95C374.381 652.763 375.128 652.577 376.015 652.39C376.948 652.157 377.951 651.97 379.025 651.83C380.098 651.643 381.218 651.503 382.385 651.41C383.598 651.27 384.811 651.2 386.025 651.2ZM422.056 681.51C423.969 681.51 425.323 681.323 426.116 680.95C426.909 680.577 427.306 679.853 427.306 678.78C427.306 677.94 426.793 677.217 425.766 676.61C424.739 675.957 423.176 675.233 421.076 674.44C419.443 673.833 417.949 673.203 416.596 672.55C415.289 671.897 414.169 671.127 413.236 670.24C412.303 669.307 411.579 668.21 411.066 666.95C410.553 665.69 410.296 664.173 410.296 662.4C410.296 658.947 411.579 656.217 414.146 654.21C416.713 652.203 420.236 651.2 424.716 651.2C426.956 651.2 429.103 651.41 431.156 651.83C433.209 652.203 434.843 652.623 436.056 653.09L434.236 661.21C433.023 660.79 431.693 660.417 430.246 660.09C428.846 659.763 427.259 659.6 425.486 659.6C422.219 659.6 420.586 660.51 420.586 662.33C420.586 662.75 420.656 663.123 420.796 663.45C420.936 663.777 421.216 664.103 421.636 664.43C422.056 664.71 422.616 665.037 423.316 665.41C424.063 665.737 424.996 666.11 426.116 666.53C428.403 667.37 430.293 668.21 431.786 669.05C433.279 669.843 434.446 670.73 435.286 671.71C436.173 672.643 436.779 673.693 437.106 674.86C437.479 676.027 437.666 677.38 437.666 678.92C437.666 682.56 436.289 685.313 433.536 687.18C430.829 689.047 426.979 689.98 421.986 689.98C418.719 689.98 415.989 689.7 413.796 689.14C411.649 688.58 410.156 688.113 409.316 687.74L411.066 679.27C412.839 679.97 414.659 680.53 416.526 680.95C418.393 681.323 420.236 681.51 422.056 681.51ZM460.527 670.87C460.527 667.603 461.017 664.757 461.997 662.33C463.024 659.857 464.354 657.803 465.987 656.17C467.62 654.537 469.487 653.3 471.587 652.46C473.734 651.62 475.927 651.2 478.167 651.2C483.394 651.2 487.524 652.81 490.557 656.03C493.59 659.203 495.107 663.893 495.107 670.1C495.107 670.707 495.084 671.383 495.037 672.13C494.99 672.83 494.944 673.46 494.897 674.02H471.237C471.47 676.167 472.474 677.87 474.247 679.13C476.02 680.39 478.4 681.02 481.387 681.02C483.3 681.02 485.167 680.857 486.987 680.53C488.854 680.157 490.37 679.713 491.537 679.2L492.937 687.67C492.377 687.95 491.63 688.23 490.697 688.51C489.764 688.79 488.714 689.023 487.547 689.21C486.427 689.443 485.214 689.63 483.907 689.77C482.6 689.91 481.294 689.98 479.987 689.98C476.674 689.98 473.78 689.49 471.307 688.51C468.88 687.53 466.85 686.2 465.217 684.52C463.63 682.793 462.44 680.763 461.647 678.43C460.9 676.097 460.527 673.577 460.527 670.87ZM485.027 666.88C484.98 665.993 484.817 665.13 484.537 664.29C484.304 663.45 483.907 662.703 483.347 662.05C482.834 661.397 482.157 660.86 481.317 660.44C480.524 660.02 479.52 659.81 478.307 659.81C477.14 659.81 476.137 660.02 475.297 660.44C474.457 660.813 473.757 661.327 473.197 661.98C472.637 662.633 472.194 663.403 471.867 664.29C471.587 665.13 471.377 665.993 471.237 666.88H485.027ZM543.562 670.31C543.562 663.59 541.089 660.23 536.142 660.23C535.069 660.23 533.996 660.37 532.922 660.65C531.896 660.93 531.056 661.28 530.402 661.7V680.67C530.916 680.763 531.569 680.857 532.362 680.95C533.156 680.997 534.019 681.02 534.952 681.02C537.799 681.02 539.946 680.04 541.392 678.08C542.839 676.12 543.562 673.53 543.562 670.31ZM554.202 670.59C554.202 673.53 553.759 676.19 552.872 678.57C552.032 680.95 550.796 682.98 549.162 684.66C547.529 686.34 545.522 687.647 543.142 688.58C540.762 689.467 538.056 689.91 535.022 689.91C533.762 689.91 532.432 689.84 531.032 689.7C529.679 689.607 528.326 689.467 526.972 689.28C525.666 689.093 524.406 688.883 523.192 688.65C521.979 688.37 520.906 688.09 519.972 687.81V636.36L530.402 634.68V653.02C531.569 652.507 532.782 652.11 534.042 651.83C535.302 651.55 536.656 651.41 538.102 651.41C540.716 651.41 543.026 651.877 545.032 652.81C547.039 653.697 548.719 654.98 550.072 656.66C551.426 658.34 552.452 660.37 553.152 662.75C553.852 665.083 554.202 667.697 554.202 670.59ZM596.658 670.52C596.658 673.413 596.238 676.073 595.398 678.5C594.558 680.88 593.345 682.933 591.758 684.66C590.172 686.34 588.258 687.647 586.018 688.58C583.825 689.513 581.352 689.98 578.598 689.98C575.892 689.98 573.418 689.513 571.178 688.58C568.985 687.647 567.095 686.34 565.508 684.66C563.922 682.933 562.685 680.88 561.798 678.5C560.912 676.073 560.468 673.413 560.468 670.52C560.468 667.627 560.912 664.99 561.798 662.61C562.732 660.23 563.992 658.2 565.578 656.52C567.212 654.84 569.125 653.533 571.318 652.6C573.558 651.667 575.985 651.2 578.598 651.2C581.258 651.2 583.685 651.667 585.878 652.6C588.118 653.533 590.032 654.84 591.618 656.52C593.205 658.2 594.442 660.23 595.328 662.61C596.215 664.99 596.658 667.627 596.658 670.52ZM586.018 670.52C586.018 667.3 585.365 664.78 584.058 662.96C582.798 661.093 580.978 660.16 578.598 660.16C576.218 660.16 574.375 661.093 573.068 662.96C571.762 664.78 571.108 667.3 571.108 670.52C571.108 673.74 571.762 676.307 573.068 678.22C574.375 680.087 576.218 681.02 578.598 681.02C580.978 681.02 582.798 680.087 584.058 678.22C585.365 676.307 586.018 673.74 586.018 670.52ZM604.738 653.44C606.511 652.927 608.798 652.46 611.598 652.04C614.398 651.573 617.338 651.34 620.418 651.34C623.545 651.34 626.135 651.76 628.188 652.6C630.288 653.393 631.945 654.537 633.158 656.03C634.371 657.523 635.235 659.297 635.748 661.35C636.261 663.403 636.518 665.69 636.518 668.21V689H626.088V669.47C626.088 666.11 625.645 663.73 624.758 662.33C623.871 660.93 622.215 660.23 619.788 660.23C619.041 660.23 618.248 660.277 617.408 660.37C616.568 660.417 615.821 660.487 615.168 660.58V689H604.738V653.44ZM656.529 681.51C658.442 681.51 659.795 681.323 660.589 680.95C661.382 680.577 661.779 679.853 661.779 678.78C661.779 677.94 661.265 677.217 660.239 676.61C659.212 675.957 657.649 675.233 655.549 674.44C653.915 673.833 652.422 673.203 651.069 672.55C649.762 671.897 648.642 671.127 647.709 670.24C646.775 669.307 646.052 668.21 645.539 666.95C645.025 665.69 644.769 664.173 644.769 662.4C644.769 658.947 646.052 656.217 648.619 654.21C651.185 652.203 654.709 651.2 659.189 651.2C661.429 651.2 663.575 651.41 665.629 651.83C667.682 652.203 669.315 652.623 670.529 653.09L668.709 661.21C667.495 660.79 666.165 660.417 664.719 660.09C663.319 659.763 661.732 659.6 659.959 659.6C656.692 659.6 655.059 660.51 655.059 662.33C655.059 662.75 655.129 663.123 655.269 663.45C655.409 663.777 655.689 664.103 656.109 664.43C656.529 664.71 657.089 665.037 657.789 665.41C658.535 665.737 659.469 666.11 660.589 666.53C662.875 667.37 664.765 668.21 666.259 669.05C667.752 669.843 668.919 670.73 669.759 671.71C670.645 672.643 671.252 673.693 671.579 674.86C671.952 676.027 672.139 677.38 672.139 678.92C672.139 682.56 670.762 685.313 668.009 687.18C665.302 689.047 661.452 689.98 656.459 689.98C653.192 689.98 650.462 689.7 648.269 689.14C646.122 688.58 644.629 688.113 643.789 687.74L645.539 679.27C647.312 679.97 649.132 680.53 650.999 680.95C652.865 681.323 654.709 681.51 656.529 681.51ZM718.94 661.42C718.006 661.187 716.91 660.953 715.65 660.72C714.39 660.44 713.036 660.3 711.59 660.3C710.936 660.3 710.143 660.37 709.21 660.51C708.323 660.603 707.646 660.72 707.18 660.86V689H696.75V654.14C698.616 653.487 700.81 652.88 703.33 652.32C705.896 651.713 708.743 651.41 711.87 651.41C712.43 651.41 713.106 651.457 713.9 651.55C714.693 651.597 715.486 651.69 716.28 651.83C717.073 651.923 717.866 652.063 718.66 652.25C719.453 652.39 720.13 652.577 720.69 652.81L718.94 661.42ZM723.847 670.87C723.847 667.603 724.337 664.757 725.317 662.33C726.344 659.857 727.674 657.803 729.307 656.17C730.941 654.537 732.807 653.3 734.907 652.46C737.054 651.62 739.247 651.2 741.487 651.2C746.714 651.2 750.844 652.81 753.877 656.03C756.911 659.203 758.427 663.893 758.427 670.1C758.427 670.707 758.404 671.383 758.357 672.13C758.311 672.83 758.264 673.46 758.217 674.02H734.557C734.791 676.167 735.794 677.87 737.567 679.13C739.341 680.39 741.721 681.02 744.707 681.02C746.621 681.02 748.487 680.857 750.307 680.53C752.174 680.157 753.691 679.713 754.857 679.2L756.257 687.67C755.697 687.95 754.951 688.23 754.017 688.51C753.084 688.79 752.034 689.023 750.867 689.21C749.747 689.443 748.534 689.63 747.227 689.77C745.921 689.91 744.614 689.98 743.307 689.98C739.994 689.98 737.101 689.49 734.627 688.51C732.201 687.53 730.171 686.2 728.537 684.52C726.951 682.793 725.761 680.763 724.967 678.43C724.221 676.097 723.847 673.577 723.847 670.87ZM748.347 666.88C748.301 665.993 748.137 665.13 747.857 664.29C747.624 663.45 747.227 662.703 746.667 662.05C746.154 661.397 745.477 660.86 744.637 660.44C743.844 660.02 742.841 659.81 741.627 659.81C740.461 659.81 739.457 660.02 738.617 660.44C737.777 660.813 737.077 661.327 736.517 661.98C735.957 662.633 735.514 663.403 735.187 664.29C734.907 665.13 734.697 665.993 734.557 666.88H748.347ZM777.046 681.51C778.96 681.51 780.313 681.323 781.106 680.95C781.9 680.577 782.296 679.853 782.296 678.78C782.296 677.94 781.783 677.217 780.756 676.61C779.73 675.957 778.166 675.233 776.066 674.44C774.433 673.833 772.94 673.203 771.586 672.55C770.28 671.897 769.16 671.127 768.226 670.24C767.293 669.307 766.57 668.21 766.056 666.95C765.543 665.69 765.286 664.173 765.286 662.4C765.286 658.947 766.57 656.217 769.136 654.21C771.703 652.203 775.226 651.2 779.706 651.2C781.946 651.2 784.093 651.41 786.146 651.83C788.2 652.203 789.833 652.623 791.046 653.09L789.226 661.21C788.013 660.79 786.683 660.417 785.236 660.09C783.836 659.763 782.25 659.6 780.476 659.6C777.21 659.6 775.576 660.51 775.576 662.33C775.576 662.75 775.646 663.123 775.786 663.45C775.926 663.777 776.206 664.103 776.626 664.43C777.046 664.71 777.606 665.037 778.306 665.41C779.053 665.737 779.986 666.11 781.106 666.53C783.393 667.37 785.283 668.21 786.776 669.05C788.27 669.843 789.436 670.73 790.276 671.71C791.163 672.643 791.77 673.693 792.096 674.86C792.47 676.027 792.656 677.38 792.656 678.92C792.656 682.56 791.28 685.313 788.526 687.18C785.82 689.047 781.97 689.98 776.976 689.98C773.71 689.98 770.98 689.7 768.786 689.14C766.64 688.58 765.146 688.113 764.306 687.74L766.056 679.27C767.83 679.97 769.65 680.53 771.516 680.95C773.383 681.323 775.226 681.51 777.046 681.51ZM831.881 687.74C830.107 688.253 827.821 688.72 825.021 689.14C822.221 689.607 819.281 689.84 816.201 689.84C813.074 689.84 810.461 689.42 808.361 688.58C806.307 687.74 804.674 686.573 803.461 685.08C802.247 683.54 801.384 681.72 800.871 679.62C800.357 677.52 800.101 675.21 800.101 672.69V652.18H810.531V671.43C810.531 674.79 810.974 677.217 811.861 678.71C812.747 680.203 814.404 680.95 816.831 680.95C817.577 680.95 818.371 680.927 819.211 680.88C820.051 680.787 820.797 680.693 821.451 680.6V652.18H831.881V687.74ZM856.371 689.7C853.338 689.653 850.865 689.327 848.951 688.72C847.085 688.113 845.591 687.273 844.471 686.2C843.398 685.08 842.651 683.75 842.231 682.21C841.858 680.623 841.671 678.85 841.671 676.89V636.36L852.101 634.68V674.79C852.101 675.723 852.171 676.563 852.311 677.31C852.451 678.057 852.708 678.687 853.081 679.2C853.501 679.713 854.085 680.133 854.831 680.46C855.578 680.787 856.581 680.997 857.841 681.09L856.371 689.7ZM863.47 643.01L873.9 641.33V652.18H886.43V660.86H873.9V673.81C873.9 676.003 874.273 677.753 875.02 679.06C875.813 680.367 877.377 681.02 879.71 681.02C880.83 681.02 881.973 680.927 883.14 680.74C884.353 680.507 885.45 680.203 886.43 679.83L887.9 687.95C886.64 688.463 885.24 688.907 883.7 689.28C882.16 689.653 880.27 689.84 878.03 689.84C875.183 689.84 872.827 689.467 870.96 688.72C869.093 687.927 867.6 686.853 866.48 685.5C865.36 684.1 864.567 682.42 864.1 680.46C863.68 678.5 863.47 676.33 863.47 673.95V643.01ZM907.626 681.72C908.653 681.72 909.633 681.697 910.566 681.65C911.5 681.603 912.246 681.533 912.806 681.44V673.53C912.386 673.437 911.756 673.343 910.916 673.25C910.076 673.157 909.306 673.11 908.606 673.11C907.626 673.11 906.693 673.18 905.806 673.32C904.966 673.413 904.22 673.623 903.566 673.95C902.913 674.277 902.4 674.72 902.026 675.28C901.653 675.84 901.466 676.54 901.466 677.38C901.466 679.013 902.003 680.157 903.076 680.81C904.196 681.417 905.713 681.72 907.626 681.72ZM906.786 651.2C909.866 651.2 912.433 651.55 914.486 652.25C916.54 652.95 918.173 653.953 919.386 655.26C920.646 656.567 921.533 658.153 922.046 660.02C922.56 661.887 922.816 663.963 922.816 666.25V687.95C921.323 688.277 919.246 688.65 916.586 689.07C913.926 689.537 910.706 689.77 906.926 689.77C904.546 689.77 902.376 689.56 900.416 689.14C898.503 688.72 896.846 688.043 895.446 687.11C894.046 686.13 892.973 684.87 892.226 683.33C891.48 681.79 891.106 679.9 891.106 677.66C891.106 675.513 891.526 673.693 892.366 672.2C893.253 670.707 894.42 669.517 895.866 668.63C897.313 667.743 898.97 667.113 900.836 666.74C902.703 666.32 904.64 666.11 906.646 666.11C908 666.11 909.19 666.18 910.216 666.32C911.29 666.413 912.153 666.553 912.806 666.74V665.76C912.806 663.987 912.27 662.563 911.196 661.49C910.123 660.417 908.256 659.88 905.596 659.88C903.823 659.88 902.073 660.02 900.346 660.3C898.62 660.533 897.126 660.883 895.866 661.35L894.536 652.95C895.143 652.763 895.89 652.577 896.776 652.39C897.71 652.157 898.713 651.97 899.786 651.83C900.86 651.643 901.98 651.503 903.146 651.41C904.36 651.27 905.573 651.2 906.786 651.2ZM941.138 670.31C941.138 673.53 941.861 676.12 943.308 678.08C944.754 680.04 946.901 681.02 949.748 681.02C950.681 681.02 951.544 680.997 952.338 680.95C953.131 680.857 953.784 680.763 954.298 680.67V661.7C953.644 661.28 952.781 660.93 951.708 660.65C950.681 660.37 949.631 660.23 948.558 660.23C943.611 660.23 941.138 663.59 941.138 670.31ZM964.728 687.81C963.794 688.09 962.721 688.37 961.508 688.65C960.294 688.883 959.011 689.093 957.658 689.28C956.351 689.467 954.998 689.607 953.598 689.7C952.244 689.84 950.938 689.91 949.678 689.91C946.644 689.91 943.938 689.467 941.558 688.58C939.178 687.693 937.171 686.433 935.538 684.8C933.904 683.12 932.644 681.113 931.758 678.78C930.918 676.4 930.498 673.74 930.498 670.8C930.498 667.813 930.871 665.13 931.618 662.75C932.364 660.323 933.438 658.27 934.838 656.59C936.238 654.91 937.941 653.627 939.948 652.74C942.001 651.853 944.334 651.41 946.948 651.41C948.394 651.41 949.678 651.55 950.798 651.83C951.964 652.11 953.131 652.507 954.298 653.02V636.36L964.728 634.68V687.81ZM1008.93 670.52C1008.93 673.413 1008.51 676.073 1007.67 678.5C1006.83 680.88 1005.62 682.933 1004.03 684.66C1002.45 686.34 1000.53 687.647 998.294 688.58C996.1 689.513 993.627 689.98 990.874 689.98C988.167 689.98 985.694 689.513 983.454 688.58C981.26 687.647 979.37 686.34 977.784 684.66C976.197 682.933 974.96 680.88 974.074 678.5C973.187 676.073 972.744 673.413 972.744 670.52C972.744 667.627 973.187 664.99 974.074 662.61C975.007 660.23 976.267 658.2 977.854 656.52C979.487 654.84 981.4 653.533 983.594 652.6C985.834 651.667 988.26 651.2 990.874 651.2C993.534 651.2 995.96 651.667 998.154 652.6C1000.39 653.533 1002.31 654.84 1003.89 656.52C1005.48 658.2 1006.72 660.23 1007.6 662.61C1008.49 664.99 1008.93 667.627 1008.93 670.52ZM998.294 670.52C998.294 667.3 997.64 664.78 996.334 662.96C995.074 661.093 993.254 660.16 990.874 660.16C988.494 660.16 986.65 661.093 985.344 662.96C984.037 664.78 983.384 667.3 983.384 670.52C983.384 673.74 984.037 676.307 985.344 678.22C986.65 680.087 988.494 681.02 990.874 681.02C993.254 681.02 995.074 680.087 996.334 678.22C997.64 676.307 998.294 673.74 998.294 670.52ZM1027.58 681.51C1029.5 681.51 1030.85 681.323 1031.64 680.95C1032.44 680.577 1032.83 679.853 1032.83 678.78C1032.83 677.94 1032.32 677.217 1031.29 676.61C1030.27 675.957 1028.7 675.233 1026.6 674.44C1024.97 673.833 1023.48 673.203 1022.12 672.55C1020.82 671.897 1019.7 671.127 1018.76 670.24C1017.83 669.307 1017.11 668.21 1016.59 666.95C1016.08 665.69 1015.82 664.173 1015.82 662.4C1015.82 658.947 1017.11 656.217 1019.67 654.21C1022.24 652.203 1025.76 651.2 1030.24 651.2C1032.48 651.2 1034.63 651.41 1036.68 651.83C1038.74 652.203 1040.37 652.623 1041.58 653.09L1039.76 661.21C1038.55 660.79 1037.22 660.417 1035.77 660.09C1034.37 659.763 1032.79 659.6 1031.01 659.6C1027.75 659.6 1026.11 660.51 1026.11 662.33C1026.11 662.75 1026.18 663.123 1026.32 663.45C1026.46 663.777 1026.74 664.103 1027.16 664.43C1027.58 664.71 1028.14 665.037 1028.84 665.41C1029.59 665.737 1030.52 666.11 1031.64 666.53C1033.93 667.37 1035.82 668.21 1037.31 669.05C1038.81 669.843 1039.97 670.73 1040.81 671.71C1041.7 672.643 1042.31 673.693 1042.63 674.86C1043.01 676.027 1043.19 677.38 1043.19 678.92C1043.19 682.56 1041.82 685.313 1039.06 687.18C1036.36 689.047 1032.51 689.98 1027.51 689.98C1024.25 689.98 1021.52 689.7 1019.32 689.14C1017.18 688.58 1015.68 688.113 1014.84 687.74L1016.59 679.27C1018.37 679.97 1020.19 680.53 1022.05 680.95C1023.92 681.323 1025.76 681.51 1027.58 681.51Z" fill="white"/>
<path d="M139.49 390.31C139.49 383.59 137.017 380.23 132.07 380.23C130.997 380.23 129.923 380.37 128.85 380.65C127.823 380.93 126.983 381.28 126.33 381.7V400.67C126.843 400.763 127.497 400.857 128.29 400.95C129.083 400.997 129.947 401.02 130.88 401.02C133.727 401.02 135.873 400.04 137.32 398.08C138.767 396.12 139.49 393.53 139.49 390.31ZM150.13 390.59C150.13 393.53 149.687 396.19 148.8 398.57C147.96 400.95 146.723 402.98 145.09 404.66C143.457 406.34 141.45 407.647 139.07 408.58C136.69 409.467 133.983 409.91 130.95 409.91C129.69 409.91 128.36 409.84 126.96 409.7C125.607 409.607 124.253 409.467 122.9 409.28C121.593 409.093 120.333 408.883 119.12 408.65C117.907 408.37 116.833 408.09 115.9 407.81V356.36L126.33 354.68V373.02C127.497 372.507 128.71 372.11 129.97 371.83C131.23 371.55 132.583 371.41 134.03 371.41C136.643 371.41 138.953 371.877 140.96 372.81C142.967 373.697 144.647 374.98 146 376.66C147.353 378.34 148.38 380.37 149.08 382.75C149.78 385.083 150.13 387.697 150.13 390.59ZM189.576 407.74C187.803 408.253 185.516 408.72 182.716 409.14C179.916 409.607 176.976 409.84 173.896 409.84C170.769 409.84 168.156 409.42 166.056 408.58C164.003 407.74 162.369 406.573 161.156 405.08C159.943 403.54 159.079 401.72 158.566 399.62C158.053 397.52 157.796 395.21 157.796 392.69V372.18H168.226V391.43C168.226 394.79 168.669 397.217 169.556 398.71C170.443 400.203 172.099 400.95 174.526 400.95C175.273 400.95 176.066 400.927 176.906 400.88C177.746 400.787 178.493 400.693 179.146 400.6V372.18H189.576V407.74ZM227.017 379.18C226.177 380.113 225.033 381.373 223.587 382.96C222.187 384.547 220.67 386.297 219.037 388.21C217.403 390.123 215.747 392.13 214.067 394.23C212.433 396.33 210.94 398.36 209.587 400.32H227.367V409H196.917V402.84C197.897 401.16 199.063 399.363 200.417 397.45C201.817 395.49 203.263 393.53 204.757 391.57C206.297 389.61 207.813 387.72 209.307 385.9C210.8 384.033 212.177 382.353 213.437 380.86H197.757V372.18H227.017V379.18ZM262.017 379.18C261.177 380.113 260.033 381.373 258.587 382.96C257.187 384.547 255.67 386.297 254.037 388.21C252.403 390.123 250.747 392.13 249.067 394.23C247.433 396.33 245.94 398.36 244.587 400.32H262.367V409H231.917V402.84C232.897 401.16 234.063 399.363 235.417 397.45C236.817 395.49 238.263 393.53 239.757 391.57C241.297 389.61 242.813 387.72 244.307 385.9C245.8 384.033 247.177 382.353 248.437 380.86H232.757V372.18H262.017V379.18ZM293.066 387.86C292.132 391.407 291.129 394.93 290.056 398.43C289.029 401.93 287.932 405.453 286.766 409H278.646C277.806 407.04 276.896 404.707 275.916 402C274.936 399.293 273.909 396.353 272.836 393.18C271.809 389.96 270.736 386.577 269.616 383.03C268.542 379.437 267.492 375.82 266.466 372.18H277.456C277.829 373.86 278.226 375.703 278.646 377.71C279.112 379.67 279.579 381.7 280.046 383.8C280.559 385.9 281.072 388.023 281.586 390.17C282.146 392.27 282.706 394.3 283.266 396.26C283.872 394.207 284.456 392.107 285.016 389.96C285.622 387.813 286.182 385.713 286.696 383.66C287.256 381.56 287.769 379.553 288.236 377.64C288.749 375.68 289.192 373.86 289.566 372.18H297.126C297.499 373.86 297.919 375.68 298.386 377.64C298.852 379.553 299.342 381.56 299.856 383.66C300.369 385.713 300.906 387.813 301.466 389.96C302.026 392.107 302.609 394.207 303.216 396.26C303.776 394.3 304.336 392.27 304.896 390.17C305.456 388.023 305.969 385.9 306.436 383.8C306.949 381.7 307.416 379.67 307.836 377.71C308.302 375.703 308.722 373.86 309.096 372.18H319.946C318.919 375.82 317.846 379.437 316.726 383.03C315.652 386.577 314.579 389.96 313.506 393.18C312.479 396.353 311.452 399.293 310.426 402C309.446 404.707 308.536 407.04 307.696 409H299.576C298.409 405.453 297.266 401.93 296.146 398.43C295.026 394.93 293.999 391.407 293.066 387.86ZM359.178 390.52C359.178 393.413 358.758 396.073 357.918 398.5C357.078 400.88 355.865 402.933 354.278 404.66C352.691 406.34 350.778 407.647 348.538 408.58C346.345 409.513 343.871 409.98 341.118 409.98C338.411 409.98 335.938 409.513 333.698 408.58C331.505 407.647 329.615 406.34 328.028 404.66C326.441 402.933 325.205 400.88 324.318 398.5C323.431 396.073 322.988 393.413 322.988 390.52C322.988 387.627 323.431 384.99 324.318 382.61C325.251 380.23 326.511 378.2 328.098 376.52C329.731 374.84 331.645 373.533 333.838 372.6C336.078 371.667 338.505 371.2 341.118 371.2C343.778 371.2 346.205 371.667 348.398 372.6C350.638 373.533 352.551 374.84 354.138 376.52C355.725 378.2 356.961 380.23 357.848 382.61C358.735 384.99 359.178 387.627 359.178 390.52ZM348.538 390.52C348.538 387.3 347.885 384.78 346.578 382.96C345.318 381.093 343.498 380.16 341.118 380.16C338.738 380.16 336.895 381.093 335.588 382.96C334.281 384.78 333.628 387.3 333.628 390.52C333.628 393.74 334.281 396.307 335.588 398.22C336.895 400.087 338.738 401.02 341.118 401.02C343.498 401.02 345.318 400.087 346.578 398.22C347.885 396.307 348.538 393.74 348.538 390.52ZM389.447 381.42C388.514 381.187 387.417 380.953 386.157 380.72C384.897 380.44 383.544 380.3 382.097 380.3C381.444 380.3 380.651 380.37 379.717 380.51C378.831 380.603 378.154 380.72 377.687 380.86V409H367.257V374.14C369.124 373.487 371.317 372.88 373.837 372.32C376.404 371.713 379.251 371.41 382.377 371.41C382.937 371.41 383.614 371.457 384.407 371.55C385.201 371.597 385.994 371.69 386.787 371.83C387.581 371.923 388.374 372.063 389.167 372.25C389.961 372.39 390.637 372.577 391.197 372.81L389.447 381.42ZM404.995 390.31C404.995 393.53 405.718 396.12 407.165 398.08C408.612 400.04 410.758 401.02 413.605 401.02C414.538 401.02 415.402 400.997 416.195 400.95C416.988 400.857 417.642 400.763 418.155 400.67V381.7C417.502 381.28 416.638 380.93 415.565 380.65C414.538 380.37 413.488 380.23 412.415 380.23C407.468 380.23 404.995 383.59 404.995 390.31ZM428.585 407.81C427.652 408.09 426.578 408.37 425.365 408.65C424.152 408.883 422.868 409.093 421.515 409.28C420.208 409.467 418.855 409.607 417.455 409.7C416.102 409.84 414.795 409.91 413.535 409.91C410.502 409.91 407.795 409.467 405.415 408.58C403.035 407.693 401.028 406.433 399.395 404.8C397.762 403.12 396.502 401.113 395.615 398.78C394.775 396.4 394.355 393.74 394.355 390.8C394.355 387.813 394.728 385.13 395.475 382.75C396.222 380.323 397.295 378.27 398.695 376.59C400.095 374.91 401.798 373.627 403.805 372.74C405.858 371.853 408.192 371.41 410.805 371.41C412.252 371.41 413.535 371.55 414.655 371.83C415.822 372.11 416.988 372.507 418.155 373.02V356.36L428.585 354.68V407.81ZM448.921 401.51C450.835 401.51 452.188 401.323 452.981 400.95C453.775 400.577 454.171 399.853 454.171 398.78C454.171 397.94 453.658 397.217 452.631 396.61C451.605 395.957 450.041 395.233 447.941 394.44C446.308 393.833 444.815 393.203 443.461 392.55C442.155 391.897 441.035 391.127 440.101 390.24C439.168 389.307 438.445 388.21 437.931 386.95C437.418 385.69 437.161 384.173 437.161 382.4C437.161 378.947 438.445 376.217 441.011 374.21C443.578 372.203 447.101 371.2 451.581 371.2C453.821 371.2 455.968 371.41 458.021 371.83C460.075 372.203 461.708 372.623 462.921 373.09L461.101 381.21C459.888 380.79 458.558 380.417 457.111 380.09C455.711 379.763 454.125 379.6 452.351 379.6C449.085 379.6 447.451 380.51 447.451 382.33C447.451 382.75 447.521 383.123 447.661 383.45C447.801 383.777 448.081 384.103 448.501 384.43C448.921 384.71 449.481 385.037 450.181 385.41C450.928 385.737 451.861 386.11 452.981 386.53C455.268 387.37 457.158 388.21 458.651 389.05C460.145 389.843 461.311 390.73 462.151 391.71C463.038 392.643 463.645 393.693 463.971 394.86C464.345 396.027 464.531 397.38 464.531 398.92C464.531 402.56 463.155 405.313 460.401 407.18C457.695 409.047 453.845 409.98 448.851 409.98C445.585 409.98 442.855 409.7 440.661 409.14C438.515 408.58 437.021 408.113 436.181 407.74L437.931 399.27C439.705 399.97 441.525 400.53 443.391 400.95C445.258 401.323 447.101 401.51 448.921 401.51Z" fill="#FFA24B"/>
</g>
<defs>
<clipPath id="clip0_104_257">
<rect width="1300" height="976" fill="white"/>
</clipPath>
</defs>
</svg>
