<svg width="1300" height="976" viewBox="0 0 1300 976" fill="none" xmlns="http://www.w3.org/2000/svg">
<g clip-path="url(#clip0_104_287)">
<path d="M139.49 425.87C139.49 422.65 138.767 420.083 137.32 418.17C135.873 416.21 133.727 415.23 130.88 415.23C129.947 415.23 129.083 415.277 128.29 415.37C127.497 415.417 126.843 415.487 126.33 415.58V434.41C126.983 434.83 127.823 435.18 128.85 435.46C129.923 435.74 130.997 435.88 132.07 435.88C137.017 435.88 139.49 432.543 139.49 425.87ZM150.13 425.59C150.13 428.437 149.78 431.027 149.08 433.36C148.38 435.693 147.353 437.7 146 439.38C144.647 441.06 142.967 442.367 140.96 443.3C138.953 444.233 136.643 444.7 134.03 444.7C132.583 444.7 131.23 444.56 129.97 444.28C128.71 444 127.497 443.603 126.33 443.09V456.95H115.9V408.44C116.833 408.16 117.907 407.903 119.12 407.67C120.333 407.39 121.593 407.157 122.9 406.97C124.253 406.783 125.607 406.643 126.96 406.55C128.36 406.41 129.69 406.34 130.95 406.34C133.983 406.34 136.69 406.807 139.07 407.74C141.45 408.627 143.457 409.91 145.09 411.59C146.723 413.223 147.96 415.23 148.8 417.61C149.687 419.99 150.13 422.65 150.13 425.59ZM192.586 425.52C192.586 428.413 192.166 431.073 191.326 433.5C190.486 435.88 189.273 437.933 187.686 439.66C186.099 441.34 184.186 442.647 181.946 443.58C179.753 444.513 177.279 444.98 174.526 444.98C171.819 444.98 169.346 444.513 167.106 443.58C164.913 442.647 163.023 441.34 161.436 439.66C159.849 437.933 158.613 435.88 157.726 433.5C156.839 431.073 156.396 428.413 156.396 425.52C156.396 422.627 156.839 419.99 157.726 417.61C158.659 415.23 159.919 413.2 161.506 411.52C163.139 409.84 165.053 408.533 167.246 407.6C169.486 406.667 171.913 406.2 174.526 406.2C177.186 406.2 179.613 406.667 181.806 407.6C184.046 408.533 185.959 409.84 187.546 411.52C189.133 413.2 190.369 415.23 191.256 417.61C192.143 419.99 192.586 422.627 192.586 425.52ZM181.946 425.52C181.946 422.3 181.293 419.78 179.986 417.96C178.726 416.093 176.906 415.16 174.526 415.16C172.146 415.16 170.303 416.093 168.996 417.96C167.689 419.78 167.036 422.3 167.036 425.52C167.036 428.74 167.689 431.307 168.996 433.22C170.303 435.087 172.146 436.02 174.526 436.02C176.906 436.02 178.726 435.087 179.986 433.22C181.293 431.307 181.946 428.74 181.946 425.52ZM222.856 416.42C221.922 416.187 220.826 415.953 219.566 415.72C218.306 415.44 216.952 415.3 215.506 415.3C214.852 415.3 214.059 415.37 213.126 415.51C212.239 415.603 211.562 415.72 211.096 415.86V444H200.666V409.14C202.532 408.487 204.726 407.88 207.246 407.32C209.812 406.713 212.659 406.41 215.786 406.41C216.346 406.41 217.022 406.457 217.816 406.55C218.609 406.597 219.402 406.69 220.196 406.83C220.989 406.923 221.782 407.063 222.576 407.25C223.369 407.39 224.046 407.577 224.606 407.81L222.856 416.42ZM238.403 425.87C238.403 432.543 240.877 435.88 245.823 435.88C246.897 435.88 247.947 435.74 248.973 435.46C250.047 435.18 250.91 434.83 251.563 434.41V415.58C251.05 415.487 250.397 415.417 249.603 415.37C248.81 415.277 247.947 415.23 247.013 415.23C244.167 415.23 242.02 416.21 240.573 418.17C239.127 420.083 238.403 422.65 238.403 425.87ZM227.763 425.59C227.763 422.743 228.183 420.153 229.023 417.82C229.91 415.44 231.17 413.41 232.803 411.73C234.437 410.003 236.443 408.673 238.823 407.74C241.203 406.807 243.91 406.34 246.943 406.34C248.203 406.34 249.51 406.41 250.863 406.55C252.263 406.643 253.617 406.783 254.923 406.97C256.277 407.157 257.56 407.39 258.773 407.67C259.987 407.903 261.06 408.16 261.993 408.44V456.95H251.563V443.09C250.397 443.603 249.183 444 247.923 444.28C246.663 444.56 245.31 444.7 243.863 444.7C238.637 444.7 234.647 442.997 231.893 439.59C229.14 436.137 227.763 431.47 227.763 425.59ZM303.189 442.74C301.416 443.253 299.129 443.72 296.329 444.14C293.529 444.607 290.589 444.84 287.509 444.84C284.383 444.84 281.769 444.42 279.669 443.58C277.616 442.74 275.983 441.573 274.769 440.08C273.556 438.54 272.693 436.72 272.179 434.62C271.666 432.52 271.409 430.21 271.409 427.69V407.18H281.839V426.43C281.839 429.79 282.283 432.217 283.169 433.71C284.056 435.203 285.713 435.95 288.139 435.95C288.886 435.95 289.679 435.927 290.519 435.88C291.359 435.787 292.106 435.693 292.759 435.6V407.18H303.189V442.74ZM311.23 425.87C311.23 422.603 311.72 419.757 312.7 417.33C313.727 414.857 315.057 412.803 316.69 411.17C318.323 409.537 320.19 408.3 322.29 407.46C324.437 406.62 326.63 406.2 328.87 406.2C334.097 406.2 338.227 407.81 341.26 411.03C344.293 414.203 345.81 418.893 345.81 425.1C345.81 425.707 345.787 426.383 345.74 427.13C345.693 427.83 345.647 428.46 345.6 429.02H321.94C322.173 431.167 323.177 432.87 324.95 434.13C326.723 435.39 329.103 436.02 332.09 436.02C334.003 436.02 335.87 435.857 337.69 435.53C339.557 435.157 341.073 434.713 342.24 434.2L343.64 442.67C343.08 442.95 342.333 443.23 341.4 443.51C340.467 443.79 339.417 444.023 338.25 444.21C337.13 444.443 335.917 444.63 334.61 444.77C333.303 444.91 331.997 444.98 330.69 444.98C327.377 444.98 324.483 444.49 322.01 443.51C319.583 442.53 317.553 441.2 315.92 439.52C314.333 437.793 313.143 435.763 312.35 433.43C311.603 431.097 311.23 428.577 311.23 425.87ZM335.73 421.88C335.683 420.993 335.52 420.13 335.24 419.29C335.007 418.45 334.61 417.703 334.05 417.05C333.537 416.397 332.86 415.86 332.02 415.44C331.227 415.02 330.223 414.81 329.01 414.81C327.843 414.81 326.84 415.02 326 415.44C325.16 415.813 324.46 416.327 323.9 416.98C323.34 417.633 322.897 418.403 322.57 419.29C322.29 420.13 322.08 420.993 321.94 421.88H335.73ZM339.37 398.85L335.52 403.47L328.52 398.08L321.52 403.47L317.53 398.85L328.52 389.26L339.37 398.85ZM405.115 425.52C405.115 428.413 404.695 431.073 403.855 433.5C403.015 435.88 401.802 437.933 400.215 439.66C398.629 441.34 396.715 442.647 394.475 443.58C392.282 444.513 389.809 444.98 387.055 444.98C384.349 444.98 381.875 444.513 379.635 443.58C377.442 442.647 375.552 441.34 373.965 439.66C372.379 437.933 371.142 435.88 370.255 433.5C369.369 431.073 368.925 428.413 368.925 425.52C368.925 422.627 369.369 419.99 370.255 417.61C371.189 415.23 372.449 413.2 374.035 411.52C375.669 409.84 377.582 408.533 379.775 407.6C382.015 406.667 384.442 406.2 387.055 406.2C389.715 406.2 392.142 406.667 394.335 407.6C396.575 408.533 398.489 409.84 400.075 411.52C401.662 413.2 402.899 415.23 403.785 417.61C404.672 419.99 405.115 422.627 405.115 425.52ZM394.475 425.52C394.475 422.3 393.822 419.78 392.515 417.96C391.255 416.093 389.435 415.16 387.055 415.16C384.675 415.16 382.832 416.093 381.525 417.96C380.219 419.78 379.565 422.3 379.565 425.52C379.565 428.74 380.219 431.307 381.525 433.22C382.832 435.087 384.675 436.02 387.055 436.02C389.435 436.02 391.255 435.087 392.515 433.22C393.822 431.307 394.475 428.74 394.475 425.52ZM438.901 425.87C438.901 432.543 441.375 435.88 446.321 435.88C447.395 435.88 448.445 435.74 449.471 435.46C450.545 435.18 451.408 434.83 452.061 434.41V415.58C451.548 415.487 450.895 415.417 450.101 415.37C449.308 415.277 448.445 415.23 447.511 415.23C444.665 415.23 442.518 416.21 441.071 418.17C439.625 420.083 438.901 422.65 438.901 425.87ZM428.261 425.59C428.261 422.743 428.681 420.153 429.521 417.82C430.408 415.44 431.668 413.41 433.301 411.73C434.935 410.003 436.941 408.673 439.321 407.74C441.701 406.807 444.408 406.34 447.441 406.34C448.701 406.34 450.008 406.41 451.361 406.55C452.761 406.643 454.115 406.783 455.421 406.97C456.775 407.157 458.058 407.39 459.271 407.67C460.485 407.903 461.558 408.16 462.491 408.44V456.95H452.061V443.09C450.895 443.603 449.681 444 448.421 444.28C447.161 444.56 445.808 444.7 444.361 444.7C439.135 444.7 435.145 442.997 432.391 439.59C429.638 436.137 428.261 431.47 428.261 425.59ZM503.687 442.74C501.914 443.253 499.627 443.72 496.827 444.14C494.027 444.607 491.087 444.84 488.007 444.84C484.881 444.84 482.267 444.42 480.167 443.58C478.114 442.74 476.481 441.573 475.267 440.08C474.054 438.54 473.191 436.72 472.677 434.62C472.164 432.52 471.907 430.21 471.907 427.69V407.18H482.337V426.43C482.337 429.79 482.781 432.217 483.667 433.71C484.554 435.203 486.211 435.95 488.637 435.95C489.384 435.95 490.177 435.927 491.017 435.88C491.857 435.787 492.604 435.693 493.257 435.6V407.18H503.687V442.74ZM511.728 425.87C511.728 422.603 512.218 419.757 513.198 417.33C514.225 414.857 515.555 412.803 517.188 411.17C518.821 409.537 520.688 408.3 522.788 407.46C524.935 406.62 527.128 406.2 529.368 406.2C534.595 406.2 538.725 407.81 541.758 411.03C544.791 414.203 546.308 418.893 546.308 425.1C546.308 425.707 546.285 426.383 546.238 427.13C546.191 427.83 546.145 428.46 546.098 429.02H522.438C522.671 431.167 523.675 432.87 525.448 434.13C527.221 435.39 529.601 436.02 532.588 436.02C534.501 436.02 536.368 435.857 538.188 435.53C540.055 435.157 541.571 434.713 542.738 434.2L544.138 442.67C543.578 442.95 542.831 443.23 541.898 443.51C540.965 443.79 539.915 444.023 538.748 444.21C537.628 444.443 536.415 444.63 535.108 444.77C533.801 444.91 532.495 444.98 531.188 444.98C527.875 444.98 524.981 444.49 522.508 443.51C520.081 442.53 518.051 441.2 516.418 439.52C514.831 437.793 513.641 435.763 512.848 433.43C512.101 431.097 511.728 428.577 511.728 425.87ZM536.228 421.88C536.181 420.993 536.018 420.13 535.738 419.29C535.505 418.45 535.108 417.703 534.548 417.05C534.035 416.397 533.358 415.86 532.518 415.44C531.725 415.02 530.721 414.81 529.508 414.81C528.341 414.81 527.338 415.02 526.498 415.44C525.658 415.813 524.958 416.327 524.398 416.98C523.838 417.633 523.395 418.403 523.068 419.29C522.788 420.13 522.578 420.993 522.438 421.88H536.228ZM581.743 436.51C583.657 436.51 585.01 436.323 585.803 435.95C586.597 435.577 586.993 434.853 586.993 433.78C586.993 432.94 586.48 432.217 585.453 431.61C584.427 430.957 582.863 430.233 580.763 429.44C579.13 428.833 577.637 428.203 576.283 427.55C574.977 426.897 573.857 426.127 572.923 425.24C571.99 424.307 571.267 423.21 570.753 421.95C570.24 420.69 569.983 419.173 569.983 417.4C569.983 413.947 571.267 411.217 573.833 409.21C576.4 407.203 579.923 406.2 584.403 406.2C586.643 406.2 588.79 406.41 590.843 406.83C592.897 407.203 594.53 407.623 595.743 408.09L593.923 416.21C592.71 415.79 591.38 415.417 589.933 415.09C588.533 414.763 586.947 414.6 585.173 414.6C581.907 414.6 580.273 415.51 580.273 417.33C580.273 417.75 580.343 418.123 580.483 418.45C580.623 418.777 580.903 419.103 581.323 419.43C581.743 419.71 582.303 420.037 583.003 420.41C583.75 420.737 584.683 421.11 585.803 421.53C588.09 422.37 589.98 423.21 591.473 424.05C592.967 424.843 594.133 425.73 594.973 426.71C595.86 427.643 596.467 428.693 596.793 429.86C597.167 431.027 597.353 432.38 597.353 433.92C597.353 437.56 595.977 440.313 593.223 442.18C590.517 444.047 586.667 444.98 581.673 444.98C578.407 444.98 575.677 444.7 573.483 444.14C571.337 443.58 569.843 443.113 569.003 442.74L570.753 434.27C572.527 434.97 574.347 435.53 576.213 435.95C578.08 436.323 579.923 436.51 581.743 436.51ZM603.398 425.87C603.398 422.603 603.888 419.757 604.868 417.33C605.895 414.857 607.225 412.803 608.858 411.17C610.491 409.537 612.358 408.3 614.458 407.46C616.605 406.62 618.798 406.2 621.038 406.2C626.265 406.2 630.395 407.81 633.428 411.03C636.461 414.203 637.978 418.893 637.978 425.1C637.978 425.707 637.955 426.383 637.908 427.13C637.861 427.83 637.815 428.46 637.768 429.02H614.108C614.341 431.167 615.345 432.87 617.118 434.13C618.891 435.39 621.271 436.02 624.258 436.02C626.171 436.02 628.038 435.857 629.858 435.53C631.725 435.157 633.241 434.713 634.408 434.2L635.808 442.67C635.248 442.95 634.501 443.23 633.568 443.51C632.635 443.79 631.585 444.023 630.418 444.21C629.298 444.443 628.085 444.63 626.778 444.77C625.471 444.91 624.165 444.98 622.858 444.98C619.545 444.98 616.651 444.49 614.178 443.51C611.751 442.53 609.721 441.2 608.088 439.52C606.501 437.793 605.311 435.763 604.518 433.43C603.771 431.097 603.398 428.577 603.398 425.87ZM627.898 421.88C627.851 420.993 627.688 420.13 627.408 419.29C627.175 418.45 626.778 417.703 626.218 417.05C625.705 416.397 625.028 415.86 624.188 415.44C623.395 415.02 622.391 414.81 621.178 414.81C620.011 414.81 619.008 415.02 618.168 415.44C617.328 415.813 616.628 416.327 616.068 416.98C615.508 417.633 615.065 418.403 614.738 419.29C614.458 420.13 614.248 420.993 614.108 421.88H627.898ZM686.433 425.87C686.433 422.65 685.71 420.083 684.263 418.17C682.817 416.21 680.67 415.23 677.823 415.23C676.89 415.23 676.027 415.277 675.233 415.37C674.44 415.417 673.787 415.487 673.273 415.58V434.41C673.927 434.83 674.767 435.18 675.793 435.46C676.867 435.74 677.94 435.88 679.013 435.88C683.96 435.88 686.433 432.543 686.433 425.87ZM697.073 425.59C697.073 428.437 696.723 431.027 696.023 433.36C695.323 435.693 694.297 437.7 692.943 439.38C691.59 441.06 689.91 442.367 687.903 443.3C685.897 444.233 683.587 444.7 680.973 444.7C679.527 444.7 678.173 444.56 676.913 444.28C675.653 444 674.44 443.603 673.273 443.09V456.95H662.843V408.44C663.777 408.16 664.85 407.903 666.063 407.67C667.277 407.39 668.537 407.157 669.843 406.97C671.197 406.783 672.55 406.643 673.903 406.55C675.303 406.41 676.633 406.34 677.893 406.34C680.927 406.34 683.633 406.807 686.013 407.74C688.393 408.627 690.4 409.91 692.033 411.59C693.667 413.223 694.903 415.23 695.743 417.61C696.63 419.99 697.073 422.65 697.073 425.59ZM727.279 416.42C726.346 416.187 725.249 415.953 723.989 415.72C722.729 415.44 721.376 415.3 719.929 415.3C719.276 415.3 718.483 415.37 717.549 415.51C716.663 415.603 715.986 415.72 715.519 415.86V444H705.089V409.14C706.956 408.487 709.149 407.88 711.669 407.32C714.236 406.713 717.083 406.41 720.209 406.41C720.769 406.41 721.446 406.457 722.239 406.55C723.033 406.597 723.826 406.69 724.619 406.83C725.413 406.923 726.206 407.063 726.999 407.25C727.793 407.39 728.469 407.577 729.029 407.81L727.279 416.42ZM768.377 425.52C768.377 428.413 767.957 431.073 767.117 433.5C766.277 435.88 765.064 437.933 763.477 439.66C761.89 441.34 759.977 442.647 757.737 443.58C755.544 444.513 753.07 444.98 750.317 444.98C747.61 444.98 745.137 444.513 742.897 443.58C740.704 442.647 738.814 441.34 737.227 439.66C735.64 437.933 734.404 435.88 733.517 433.5C732.63 431.073 732.187 428.413 732.187 425.52C732.187 422.627 732.63 419.99 733.517 417.61C734.45 415.23 735.71 413.2 737.297 411.52C738.93 409.84 740.844 408.533 743.037 407.6C745.277 406.667 747.704 406.2 750.317 406.2C752.977 406.2 755.404 406.667 757.597 407.6C759.837 408.533 761.75 409.84 763.337 411.52C764.924 413.2 766.16 415.23 767.047 417.61C767.934 419.99 768.377 422.627 768.377 425.52ZM757.737 425.52C757.737 422.3 757.084 419.78 755.777 417.96C754.517 416.093 752.697 415.16 750.317 415.16C747.937 415.16 746.094 416.093 744.787 417.96C743.48 419.78 742.827 422.3 742.827 425.52C742.827 428.74 743.48 431.307 744.787 433.22C746.094 435.087 747.937 436.02 750.317 436.02C752.697 436.02 754.517 435.087 755.777 433.22C757.084 431.307 757.737 428.74 757.737 425.52ZM773.027 456.95C772.373 456.95 771.417 456.88 770.157 456.74C768.85 456.6 767.637 456.343 766.517 455.97L767.917 447.5C768.617 447.733 769.27 447.897 769.877 447.99C770.437 448.083 771.16 448.13 772.047 448.13C773.68 448.13 774.823 447.64 775.477 446.66C776.13 445.68 776.457 444.257 776.457 442.39V407.18H786.887V442.67C786.887 447.523 785.697 451.117 783.317 453.45C780.937 455.783 777.507 456.95 773.027 456.95ZM787.867 396.54C787.867 398.453 787.237 399.97 785.977 401.09C784.763 402.163 783.317 402.7 781.637 402.7C779.957 402.7 778.487 402.163 777.227 401.09C776.013 399.97 775.407 398.453 775.407 396.54C775.407 394.627 776.013 393.133 777.227 392.06C778.487 390.94 779.957 390.38 781.637 390.38C783.317 390.38 784.763 390.94 785.977 392.06C787.237 393.133 787.867 394.627 787.867 396.54ZM794.941 425.87C794.941 422.603 795.431 419.757 796.411 417.33C797.438 414.857 798.768 412.803 800.401 411.17C802.034 409.537 803.901 408.3 806.001 407.46C808.148 406.62 810.341 406.2 812.581 406.2C817.808 406.2 821.938 407.81 824.971 411.03C828.004 414.203 829.521 418.893 829.521 425.1C829.521 425.707 829.498 426.383 829.451 427.13C829.404 427.83 829.358 428.46 829.311 429.02H805.651C805.884 431.167 806.888 432.87 808.661 434.13C810.434 435.39 812.814 436.02 815.801 436.02C817.714 436.02 819.581 435.857 821.401 435.53C823.268 435.157 824.784 434.713 825.951 434.2L827.351 442.67C826.791 442.95 826.044 443.23 825.111 443.51C824.178 443.79 823.128 444.023 821.961 444.21C820.841 444.443 819.628 444.63 818.321 444.77C817.014 444.91 815.708 444.98 814.401 444.98C811.088 444.98 808.194 444.49 805.721 443.51C803.294 442.53 801.264 441.2 799.631 439.52C798.044 437.793 796.854 435.763 796.061 433.43C795.314 431.097 794.941 428.577 794.941 425.87ZM819.441 421.88C819.394 420.993 819.231 420.13 818.951 419.29C818.718 418.45 818.321 417.703 817.761 417.05C817.248 416.397 816.571 415.86 815.731 415.44C814.938 415.02 813.934 414.81 812.721 414.81C811.554 414.81 810.551 415.02 809.711 415.44C808.871 415.813 808.171 416.327 807.611 416.98C807.051 417.633 806.608 418.403 806.281 419.29C806.001 420.13 805.791 420.993 805.651 421.88H819.441ZM837.22 398.01L847.65 396.33V407.18H860.18V415.86H847.65V428.81C847.65 431.003 848.023 432.753 848.77 434.06C849.563 435.367 851.127 436.02 853.46 436.02C854.58 436.02 855.723 435.927 856.89 435.74C858.103 435.507 859.2 435.203 860.18 434.83L861.65 442.95C860.39 443.463 858.99 443.907 857.45 444.28C855.91 444.653 854.02 444.84 851.78 444.84C848.933 444.84 846.577 444.467 844.71 443.72C842.843 442.927 841.35 441.853 840.23 440.5C839.11 439.1 838.317 437.42 837.85 435.46C837.43 433.5 837.22 431.33 837.22 428.95V398.01ZM881.376 436.72C882.403 436.72 883.383 436.697 884.316 436.65C885.25 436.603 885.996 436.533 886.556 436.44V428.53C886.136 428.437 885.506 428.343 884.666 428.25C883.826 428.157 883.056 428.11 882.356 428.11C881.376 428.11 880.443 428.18 879.556 428.32C878.716 428.413 877.97 428.623 877.316 428.95C876.663 429.277 876.15 429.72 875.776 430.28C875.403 430.84 875.216 431.54 875.216 432.38C875.216 434.013 875.753 435.157 876.826 435.81C877.946 436.417 879.463 436.72 881.376 436.72ZM880.536 406.2C883.616 406.2 886.183 406.55 888.236 407.25C890.29 407.95 891.923 408.953 893.136 410.26C894.396 411.567 895.283 413.153 895.796 415.02C896.31 416.887 896.566 418.963 896.566 421.25V442.95C895.073 443.277 892.996 443.65 890.336 444.07C887.676 444.537 884.456 444.77 880.676 444.77C878.296 444.77 876.126 444.56 874.166 444.14C872.253 443.72 870.596 443.043 869.196 442.11C867.796 441.13 866.723 439.87 865.976 438.33C865.23 436.79 864.856 434.9 864.856 432.66C864.856 430.513 865.276 428.693 866.116 427.2C867.003 425.707 868.17 424.517 869.616 423.63C871.063 422.743 872.72 422.113 874.586 421.74C876.453 421.32 878.39 421.11 880.396 421.11C881.75 421.11 882.94 421.18 883.966 421.32C885.04 421.413 885.903 421.553 886.556 421.74V420.76C886.556 418.987 886.02 417.563 884.946 416.49C883.873 415.417 882.006 414.88 879.346 414.88C877.573 414.88 875.823 415.02 874.096 415.3C872.37 415.533 870.876 415.883 869.616 416.35L868.286 407.95C868.893 407.763 869.64 407.577 870.526 407.39C871.46 407.157 872.463 406.97 873.536 406.83C874.61 406.643 875.73 406.503 876.896 406.41C878.11 406.27 879.323 406.2 880.536 406.2ZM922.814 408.44C924.587 407.927 926.874 407.46 929.674 407.04C932.474 406.573 935.414 406.34 938.494 406.34C941.621 406.34 944.211 406.76 946.264 407.6C948.364 408.393 950.021 409.537 951.234 411.03C952.447 412.523 953.311 414.297 953.824 416.35C954.337 418.403 954.594 420.69 954.594 423.21V444H944.164V424.47C944.164 421.11 943.721 418.73 942.834 417.33C941.947 415.93 940.291 415.23 937.864 415.23C937.117 415.23 936.324 415.277 935.484 415.37C934.644 415.417 933.897 415.487 933.244 415.58V444H922.814V408.44ZM978.105 436.72C979.131 436.72 980.111 436.697 981.045 436.65C981.978 436.603 982.725 436.533 983.285 436.44V428.53C982.865 428.437 982.235 428.343 981.395 428.25C980.555 428.157 979.785 428.11 979.085 428.11C978.105 428.11 977.171 428.18 976.285 428.32C975.445 428.413 974.698 428.623 974.045 428.95C973.391 429.277 972.878 429.72 972.505 430.28C972.131 430.84 971.945 431.54 971.945 432.38C971.945 434.013 972.481 435.157 973.555 435.81C974.675 436.417 976.191 436.72 978.105 436.72ZM977.265 406.2C980.345 406.2 982.911 406.55 984.965 407.25C987.018 407.95 988.651 408.953 989.865 410.26C991.125 411.567 992.011 413.153 992.525 415.02C993.038 416.887 993.295 418.963 993.295 421.25V442.95C991.801 443.277 989.725 443.65 987.065 444.07C984.405 444.537 981.185 444.77 977.405 444.77C975.025 444.77 972.855 444.56 970.895 444.14C968.981 443.72 967.325 443.043 965.925 442.11C964.525 441.13 963.451 439.87 962.705 438.33C961.958 436.79 961.585 434.9 961.585 432.66C961.585 430.513 962.005 428.693 962.845 427.2C963.731 425.707 964.898 424.517 966.345 423.63C967.791 422.743 969.448 422.113 971.315 421.74C973.181 421.32 975.118 421.11 977.125 421.11C978.478 421.11 979.668 421.18 980.695 421.32C981.768 421.413 982.631 421.553 983.285 421.74V420.76C983.285 418.987 982.748 417.563 981.675 416.49C980.601 415.417 978.735 414.88 976.075 414.88C974.301 414.88 972.551 415.02 970.825 415.3C969.098 415.533 967.605 415.883 966.345 416.35L965.015 407.95C965.621 407.763 966.368 407.577 967.255 407.39C968.188 407.157 969.191 406.97 970.265 406.83C971.338 406.643 972.458 406.503 973.625 406.41C974.838 406.27 976.051 406.2 977.265 406.2ZM990.985 394.37C990.705 395.07 990.308 395.84 989.795 396.68C989.328 397.52 988.745 398.313 988.045 399.06C987.345 399.76 986.551 400.343 985.665 400.81C984.778 401.277 983.798 401.51 982.725 401.51C981.885 401.51 981.091 401.393 980.345 401.16C979.645 400.88 978.945 400.6 978.245 400.32C977.545 399.993 976.845 399.713 976.145 399.48C975.445 399.2 974.721 399.06 973.975 399.06C973.041 399.06 972.271 399.363 971.665 399.97C971.058 400.577 970.568 401.277 970.195 402.07L965.085 398.71C965.365 398.01 965.738 397.24 966.205 396.4C966.718 395.56 967.325 394.79 968.025 394.09C968.725 393.343 969.518 392.737 970.405 392.27C971.291 391.803 972.271 391.57 973.345 391.57C974.185 391.57 974.955 391.71 975.655 391.99C976.401 392.223 977.125 392.503 977.825 392.83C978.525 393.11 979.201 393.39 979.855 393.67C980.555 393.903 981.301 394.02 982.095 394.02C983.028 394.02 983.798 393.717 984.405 393.11C985.011 392.503 985.501 391.803 985.875 391.01L990.985 394.37ZM1037.17 425.52C1037.17 428.413 1036.75 431.073 1035.91 433.5C1035.07 435.88 1033.85 437.933 1032.27 439.66C1030.68 441.34 1028.77 442.647 1026.53 443.58C1024.33 444.513 1021.86 444.98 1019.11 444.98C1016.4 444.98 1013.93 444.513 1011.69 443.58C1009.49 442.647 1007.6 441.34 1006.02 439.66C1004.43 437.933 1003.19 435.88 1002.31 433.5C1001.42 431.073 1000.98 428.413 1000.98 425.52C1000.98 422.627 1001.42 419.99 1002.31 417.61C1003.24 415.23 1004.5 413.2 1006.09 411.52C1007.72 409.84 1009.63 408.533 1011.83 407.6C1014.07 406.667 1016.49 406.2 1019.11 406.2C1021.77 406.2 1024.19 406.667 1026.39 407.6C1028.63 408.533 1030.54 409.84 1032.13 411.52C1033.71 413.2 1034.95 415.23 1035.84 417.61C1036.72 419.99 1037.17 422.627 1037.17 425.52ZM1026.53 425.52C1026.53 422.3 1025.87 419.78 1024.57 417.96C1023.31 416.093 1021.49 415.16 1019.11 415.16C1016.73 415.16 1014.88 416.093 1013.58 417.96C1012.27 419.78 1011.62 422.3 1011.62 425.52C1011.62 428.74 1012.27 431.307 1013.58 433.22C1014.88 435.087 1016.73 436.02 1019.11 436.02C1021.49 436.02 1023.31 435.087 1024.57 433.22C1025.87 431.307 1026.53 428.74 1026.53 425.52ZM1060.31 425.87C1060.31 422.603 1060.8 419.757 1061.78 417.33C1062.81 414.857 1064.14 412.803 1065.77 411.17C1067.41 409.537 1069.27 408.3 1071.37 407.46C1073.52 406.62 1075.71 406.2 1077.95 406.2C1083.18 406.2 1087.31 407.81 1090.34 411.03C1093.38 414.203 1094.89 418.893 1094.89 425.1C1094.89 425.707 1094.87 426.383 1094.82 427.13C1094.78 427.83 1094.73 428.46 1094.68 429.02H1071.02C1071.26 431.167 1072.26 432.87 1074.03 434.13C1075.81 435.39 1078.19 436.02 1081.17 436.02C1083.09 436.02 1084.95 435.857 1086.77 435.53C1088.64 435.157 1090.16 434.713 1091.32 434.2L1092.72 442.67C1092.16 442.95 1091.42 443.23 1090.48 443.51C1089.55 443.79 1088.5 444.023 1087.33 444.21C1086.21 444.443 1085 444.63 1083.69 444.77C1082.39 444.91 1081.08 444.98 1079.77 444.98C1076.46 444.98 1073.57 444.49 1071.09 443.51C1068.67 442.53 1066.64 441.2 1065 439.52C1063.42 437.793 1062.23 435.763 1061.43 433.43C1060.69 431.097 1060.31 428.577 1060.31 425.87ZM1084.81 421.88C1084.77 420.993 1084.6 420.13 1084.32 419.29C1084.09 418.45 1083.69 417.703 1083.13 417.05C1082.62 416.397 1081.94 415.86 1081.1 415.44C1080.31 415.02 1079.31 414.81 1078.09 414.81C1076.93 414.81 1075.92 415.02 1075.08 415.44C1074.24 415.813 1073.54 416.327 1072.98 416.98C1072.42 417.633 1071.98 418.403 1071.65 419.29C1071.37 420.13 1071.16 420.993 1071.02 421.88H1084.81ZM1086.42 393.95L1074.87 403.68L1070.11 399.41L1080.05 388.07L1086.42 393.95ZM147.33 512.74C145.557 513.253 143.27 513.72 140.47 514.14C137.67 514.607 134.73 514.84 131.65 514.84C128.523 514.84 125.91 514.42 123.81 513.58C121.757 512.74 120.123 511.573 118.91 510.08C117.697 508.54 116.833 506.72 116.32 504.62C115.807 502.52 115.55 500.21 115.55 497.69V477.18H125.98V496.43C125.98 499.79 126.423 502.217 127.31 503.71C128.197 505.203 129.853 505.95 132.28 505.95C133.027 505.95 133.82 505.927 134.66 505.88C135.5 505.787 136.247 505.693 136.9 505.6V477.18H147.33V512.74ZM177.351 494.47C177.351 491.11 176.907 488.73 176.021 487.33C175.181 485.93 173.711 485.23 171.611 485.23C170.957 485.23 170.281 485.277 169.581 485.37C168.881 485.417 168.204 485.487 167.551 485.58V514H157.121V478.44C158.007 478.207 159.034 477.973 160.201 477.74C161.414 477.46 162.674 477.227 163.981 477.04C165.334 476.807 166.711 476.643 168.111 476.55C169.511 476.41 170.887 476.34 172.241 476.34C174.901 476.34 177.047 476.69 178.681 477.39C180.361 478.043 181.737 478.837 182.811 479.77C184.304 478.697 186.007 477.857 187.921 477.25C189.881 476.643 191.677 476.34 193.311 476.34C196.251 476.34 198.654 476.76 200.521 477.6C202.434 478.393 203.951 479.537 205.071 481.03C206.191 482.523 206.961 484.297 207.381 486.35C207.801 488.403 208.011 490.69 208.011 493.21V514H197.581V494.47C197.581 491.11 197.137 488.73 196.251 487.33C195.411 485.93 193.941 485.23 191.841 485.23C191.281 485.23 190.487 485.37 189.461 485.65C188.481 485.93 187.664 486.28 187.011 486.7C187.337 487.773 187.547 488.917 187.641 490.13C187.734 491.297 187.781 492.557 187.781 493.91V514H177.351V494.47ZM231.552 506.72C232.579 506.72 233.559 506.697 234.492 506.65C235.425 506.603 236.172 506.533 236.732 506.44V498.53C236.312 498.437 235.682 498.343 234.842 498.25C234.002 498.157 233.232 498.11 232.532 498.11C231.552 498.11 230.619 498.18 229.732 498.32C228.892 498.413 228.145 498.623 227.492 498.95C226.839 499.277 226.325 499.72 225.952 500.28C225.579 500.84 225.392 501.54 225.392 502.38C225.392 504.013 225.929 505.157 227.002 505.81C228.122 506.417 229.639 506.72 231.552 506.72ZM230.712 476.2C233.792 476.2 236.359 476.55 238.412 477.25C240.465 477.95 242.099 478.953 243.312 480.26C244.572 481.567 245.459 483.153 245.972 485.02C246.485 486.887 246.742 488.963 246.742 491.25V512.95C245.249 513.277 243.172 513.65 240.512 514.07C237.852 514.537 234.632 514.77 230.852 514.77C228.472 514.77 226.302 514.56 224.342 514.14C222.429 513.72 220.772 513.043 219.372 512.11C217.972 511.13 216.899 509.87 216.152 508.33C215.405 506.79 215.032 504.9 215.032 502.66C215.032 500.513 215.452 498.693 216.292 497.2C217.179 495.707 218.345 494.517 219.792 493.63C221.239 492.743 222.895 492.113 224.762 491.74C226.629 491.32 228.565 491.11 230.572 491.11C231.925 491.11 233.115 491.18 234.142 491.32C235.215 491.413 236.079 491.553 236.732 491.74V490.76C236.732 488.987 236.195 487.563 235.122 486.49C234.049 485.417 232.182 484.88 229.522 484.88C227.749 484.88 225.999 485.02 224.272 485.3C222.545 485.533 221.052 485.883 219.792 486.35L218.462 477.95C219.069 477.763 219.815 477.577 220.702 477.39C221.635 477.157 222.639 476.97 223.712 476.83C224.785 476.643 225.905 476.503 227.072 476.41C228.285 476.27 229.499 476.2 230.712 476.2ZM271.24 495.87C271.24 492.603 271.73 489.757 272.71 487.33C273.737 484.857 275.067 482.803 276.7 481.17C278.333 479.537 280.2 478.3 282.3 477.46C284.447 476.62 286.64 476.2 288.88 476.2C294.107 476.2 298.237 477.81 301.27 481.03C304.303 484.203 305.82 488.893 305.82 495.1C305.82 495.707 305.797 496.383 305.75 497.13C305.703 497.83 305.657 498.46 305.61 499.02H281.95C282.183 501.167 283.187 502.87 284.96 504.13C286.733 505.39 289.113 506.02 292.1 506.02C294.013 506.02 295.88 505.857 297.7 505.53C299.567 505.157 301.083 504.713 302.25 504.2L303.65 512.67C303.09 512.95 302.343 513.23 301.41 513.51C300.477 513.79 299.427 514.023 298.26 514.21C297.14 514.443 295.927 514.63 294.62 514.77C293.313 514.91 292.007 514.98 290.7 514.98C287.387 514.98 284.493 514.49 282.02 513.51C279.593 512.53 277.563 511.2 275.93 509.52C274.343 507.793 273.153 505.763 272.36 503.43C271.613 501.097 271.24 498.577 271.24 495.87ZM295.74 491.88C295.693 490.993 295.53 490.13 295.25 489.29C295.017 488.45 294.62 487.703 294.06 487.05C293.547 486.397 292.87 485.86 292.03 485.44C291.237 485.02 290.233 484.81 289.02 484.81C287.853 484.81 286.85 485.02 286.01 485.44C285.17 485.813 284.47 486.327 283.91 486.98C283.35 487.633 282.907 488.403 282.58 489.29C282.3 490.13 282.09 490.993 281.95 491.88H295.74ZM328.499 488.38L335.779 477.18H346.559L333.959 494.89C336.759 498.39 339.302 501.797 341.589 505.11C343.875 508.423 345.695 511.387 347.049 514H335.849C335.475 513.3 335.009 512.437 334.449 511.41C333.889 510.337 333.259 509.24 332.559 508.12C331.859 506.953 331.112 505.81 330.319 504.69C329.572 503.523 328.825 502.473 328.079 501.54C327.379 502.427 326.655 503.407 325.909 504.48C325.209 505.553 324.532 506.65 323.879 507.77C323.225 508.843 322.572 509.917 321.919 510.99C321.312 512.063 320.775 513.067 320.309 514H309.669C310.229 512.833 310.999 511.457 311.979 509.87C312.959 508.283 314.009 506.65 315.129 504.97C316.295 503.243 317.509 501.54 318.769 499.86C320.029 498.133 321.265 496.523 322.479 495.03C320.379 492.09 318.279 489.127 316.179 486.14C314.079 483.107 312.002 480.12 309.949 477.18H321.219L328.499 488.38ZM376.219 495.87C376.219 492.65 375.495 490.083 374.049 488.17C372.602 486.21 370.455 485.23 367.609 485.23C366.675 485.23 365.812 485.277 365.019 485.37C364.225 485.417 363.572 485.487 363.059 485.58V504.41C363.712 504.83 364.552 505.18 365.579 505.46C366.652 505.74 367.725 505.88 368.799 505.88C373.745 505.88 376.219 502.543 376.219 495.87ZM386.859 495.59C386.859 498.437 386.509 501.027 385.809 503.36C385.109 505.693 384.082 507.7 382.729 509.38C381.375 511.06 379.695 512.367 377.689 513.3C375.682 514.233 373.372 514.7 370.759 514.7C369.312 514.7 367.959 514.56 366.699 514.28C365.439 514 364.225 513.603 363.059 513.09V526.95H352.629V478.44C353.562 478.16 354.635 477.903 355.849 477.67C357.062 477.39 358.322 477.157 359.629 476.97C360.982 476.783 362.335 476.643 363.689 476.55C365.089 476.41 366.419 476.34 367.679 476.34C370.712 476.34 373.419 476.807 375.799 477.74C378.179 478.627 380.185 479.91 381.819 481.59C383.452 483.223 384.689 485.23 385.529 487.61C386.415 489.99 386.859 492.65 386.859 495.59ZM393.125 495.87C393.125 492.603 393.615 489.757 394.595 487.33C395.621 484.857 396.951 482.803 398.585 481.17C400.218 479.537 402.085 478.3 404.185 477.46C406.331 476.62 408.525 476.2 410.765 476.2C415.991 476.2 420.121 477.81 423.155 481.03C426.188 484.203 427.705 488.893 427.705 495.1C427.705 495.707 427.681 496.383 427.635 497.13C427.588 497.83 427.541 498.46 427.495 499.02H403.835C404.068 501.167 405.071 502.87 406.845 504.13C408.618 505.39 410.998 506.02 413.985 506.02C415.898 506.02 417.765 505.857 419.585 505.53C421.451 505.157 422.968 504.713 424.135 504.2L425.535 512.67C424.975 512.95 424.228 513.23 423.295 513.51C422.361 513.79 421.311 514.023 420.145 514.21C419.025 514.443 417.811 514.63 416.505 514.77C415.198 514.91 413.891 514.98 412.585 514.98C409.271 514.98 406.378 514.49 403.905 513.51C401.478 512.53 399.448 511.2 397.815 509.52C396.228 507.793 395.038 505.763 394.245 503.43C393.498 501.097 393.125 498.577 393.125 495.87ZM417.625 491.88C417.578 490.993 417.415 490.13 417.135 489.29C416.901 488.45 416.505 487.703 415.945 487.05C415.431 486.397 414.755 485.86 413.915 485.44C413.121 485.02 412.118 484.81 410.905 484.81C409.738 484.81 408.735 485.02 407.895 485.44C407.055 485.813 406.355 486.327 405.795 486.98C405.235 487.633 404.791 488.403 404.465 489.29C404.185 490.13 403.975 490.993 403.835 491.88H417.625ZM457.944 486.42C457.01 486.187 455.914 485.953 454.654 485.72C453.394 485.44 452.04 485.3 450.594 485.3C449.94 485.3 449.147 485.37 448.214 485.51C447.327 485.603 446.65 485.72 446.184 485.86V514H435.754V479.14C437.62 478.487 439.814 477.88 442.334 477.32C444.9 476.713 447.747 476.41 450.874 476.41C451.434 476.41 452.11 476.457 452.904 476.55C453.697 476.597 454.49 476.69 455.284 476.83C456.077 476.923 456.87 477.063 457.664 477.25C458.457 477.39 459.134 477.577 459.694 477.81L457.944 486.42ZM475.715 514H465.285V477.18H475.715V514ZM476.695 466.54C476.695 468.453 476.065 469.97 474.805 471.09C473.591 472.163 472.145 472.7 470.465 472.7C468.785 472.7 467.315 472.163 466.055 471.09C464.841 469.97 464.235 468.453 464.235 466.54C464.235 464.627 464.841 463.133 466.055 462.06C467.315 460.94 468.785 460.38 470.465 460.38C472.145 460.38 473.591 460.94 474.805 462.06C476.065 463.133 476.695 464.627 476.695 466.54ZM483.769 495.87C483.769 492.603 484.259 489.757 485.239 487.33C486.266 484.857 487.596 482.803 489.229 481.17C490.862 479.537 492.729 478.3 494.829 477.46C496.976 476.62 499.169 476.2 501.409 476.2C506.636 476.2 510.766 477.81 513.799 481.03C516.832 484.203 518.349 488.893 518.349 495.1C518.349 495.707 518.326 496.383 518.279 497.13C518.232 497.83 518.186 498.46 518.139 499.02H494.479C494.712 501.167 495.716 502.87 497.489 504.13C499.262 505.39 501.642 506.02 504.629 506.02C506.542 506.02 508.409 505.857 510.229 505.53C512.096 505.157 513.612 504.713 514.779 504.2L516.179 512.67C515.619 512.95 514.872 513.23 513.939 513.51C513.006 513.79 511.956 514.023 510.789 514.21C509.669 514.443 508.456 514.63 507.149 514.77C505.842 514.91 504.536 514.98 503.229 514.98C499.916 514.98 497.022 514.49 494.549 513.51C492.122 512.53 490.092 511.2 488.459 509.52C486.872 507.793 485.682 505.763 484.889 503.43C484.142 501.097 483.769 498.577 483.769 495.87ZM508.269 491.88C508.222 490.993 508.059 490.13 507.779 489.29C507.546 488.45 507.149 487.703 506.589 487.05C506.076 486.397 505.399 485.86 504.559 485.44C503.766 485.02 502.762 484.81 501.549 484.81C500.382 484.81 499.379 485.02 498.539 485.44C497.699 485.813 496.999 486.327 496.439 486.98C495.879 487.633 495.436 488.403 495.109 489.29C494.829 490.13 494.619 490.993 494.479 491.88H508.269ZM511.909 468.85L508.059 473.47L501.059 468.08L494.059 473.47L490.069 468.85L501.059 459.26L511.909 468.85ZM526.398 478.44C528.171 477.927 530.458 477.46 533.258 477.04C536.058 476.573 538.998 476.34 542.078 476.34C545.205 476.34 547.795 476.76 549.848 477.6C551.948 478.393 553.605 479.537 554.818 481.03C556.031 482.523 556.895 484.297 557.408 486.35C557.921 488.403 558.178 490.69 558.178 493.21V514H547.748V494.47C547.748 491.11 547.305 488.73 546.418 487.33C545.531 485.93 543.875 485.23 541.448 485.23C540.701 485.23 539.908 485.277 539.068 485.37C538.228 485.417 537.481 485.487 536.828 485.58V514H526.398V478.44ZM565.869 495.59C565.869 492.93 566.289 490.433 567.129 488.1C568.015 485.72 569.275 483.667 570.909 481.94C572.542 480.167 574.525 478.767 576.859 477.74C579.192 476.713 581.852 476.2 584.839 476.2C586.799 476.2 588.595 476.387 590.229 476.76C591.862 477.087 593.449 477.577 594.989 478.23L592.819 486.56C591.839 486.187 590.765 485.86 589.599 485.58C588.432 485.3 587.125 485.16 585.679 485.16C582.599 485.16 580.289 486.117 578.749 488.03C577.255 489.943 576.509 492.463 576.509 495.59C576.509 498.903 577.209 501.47 578.609 503.29C580.055 505.11 582.552 506.02 586.099 506.02C587.359 506.02 588.712 505.903 590.159 505.67C591.605 505.437 592.935 505.063 594.149 504.55L595.619 513.09C594.405 513.603 592.889 514.047 591.069 514.42C589.249 514.793 587.242 514.98 585.049 514.98C581.689 514.98 578.795 514.49 576.369 513.51C573.942 512.483 571.935 511.107 570.349 509.38C568.809 507.653 567.665 505.623 566.919 503.29C566.219 500.91 565.869 498.343 565.869 495.59ZM613.049 514H602.619V477.18H613.049V514ZM614.029 466.54C614.029 468.453 613.399 469.97 612.139 471.09C610.925 472.163 609.479 472.7 607.799 472.7C606.119 472.7 604.649 472.163 603.389 471.09C602.175 469.97 601.569 468.453 601.569 466.54C601.569 464.627 602.175 463.133 603.389 462.06C604.649 460.94 606.119 460.38 607.799 460.38C609.479 460.38 610.925 460.94 612.139 462.06C613.399 463.133 614.029 464.627 614.029 466.54ZM636.923 506.72C637.95 506.72 638.93 506.697 639.863 506.65C640.796 506.603 641.543 506.533 642.103 506.44V498.53C641.683 498.437 641.053 498.343 640.213 498.25C639.373 498.157 638.603 498.11 637.903 498.11C636.923 498.11 635.99 498.18 635.103 498.32C634.263 498.413 633.516 498.623 632.863 498.95C632.21 499.277 631.696 499.72 631.323 500.28C630.95 500.84 630.763 501.54 630.763 502.38C630.763 504.013 631.3 505.157 632.373 505.81C633.493 506.417 635.01 506.72 636.923 506.72ZM636.083 476.2C639.163 476.2 641.73 476.55 643.783 477.25C645.836 477.95 647.47 478.953 648.683 480.26C649.943 481.567 650.83 483.153 651.343 485.02C651.856 486.887 652.113 488.963 652.113 491.25V512.95C650.62 513.277 648.543 513.65 645.883 514.07C643.223 514.537 640.003 514.77 636.223 514.77C633.843 514.77 631.673 514.56 629.713 514.14C627.8 513.72 626.143 513.043 624.743 512.11C623.343 511.13 622.27 509.87 621.523 508.33C620.776 506.79 620.403 504.9 620.403 502.66C620.403 500.513 620.823 498.693 621.663 497.2C622.55 495.707 623.716 494.517 625.163 493.63C626.61 492.743 628.266 492.113 630.133 491.74C632 491.32 633.936 491.11 635.943 491.11C637.296 491.11 638.486 491.18 639.513 491.32C640.586 491.413 641.45 491.553 642.103 491.74V490.76C642.103 488.987 641.566 487.563 640.493 486.49C639.42 485.417 637.553 484.88 634.893 484.88C633.12 484.88 631.37 485.02 629.643 485.3C627.916 485.533 626.423 485.883 625.163 486.35L623.833 477.95C624.44 477.763 625.186 477.577 626.073 477.39C627.006 477.157 628.01 476.97 629.083 476.83C630.156 476.643 631.276 476.503 632.443 476.41C633.656 476.27 634.87 476.2 636.083 476.2ZM671.415 503.36C671.508 504.48 671.555 505.273 671.555 505.74C671.601 506.207 671.625 506.603 671.625 506.93C671.625 508.33 671.485 509.823 671.205 511.41C670.971 512.95 670.621 514.513 670.155 516.1C669.688 517.687 669.105 519.273 668.405 520.86C667.705 522.447 666.911 523.963 666.025 525.41L657.835 523.38C658.908 520.3 659.655 517.407 660.075 514.7C660.495 511.993 660.705 509.753 660.705 507.98C660.705 507.7 660.681 507.35 660.635 506.93C660.635 506.463 660.611 505.997 660.565 505.53C660.565 505.063 660.541 504.62 660.495 504.2C660.495 503.78 660.495 503.5 660.495 503.36H671.415ZM693.838 495.87C693.838 492.603 694.328 489.757 695.307 487.33C696.334 484.857 697.664 482.803 699.298 481.17C700.931 479.537 702.798 478.3 704.898 477.46C707.044 476.62 709.238 476.2 711.478 476.2C716.704 476.2 720.834 477.81 723.868 481.03C726.901 484.203 728.418 488.893 728.418 495.1C728.418 495.707 728.394 496.383 728.348 497.13C728.301 497.83 728.254 498.46 728.208 499.02H704.548C704.781 501.167 705.784 502.87 707.558 504.13C709.331 505.39 711.711 506.02 714.698 506.02C716.611 506.02 718.478 505.857 720.298 505.53C722.164 505.157 723.681 504.713 724.848 504.2L726.248 512.67C725.688 512.95 724.941 513.23 724.008 513.51C723.074 513.79 722.024 514.023 720.858 514.21C719.738 514.443 718.524 514.63 717.218 514.77C715.911 514.91 714.604 514.98 713.298 514.98C709.984 514.98 707.091 514.49 704.618 513.51C702.191 512.53 700.161 511.2 698.528 509.52C696.941 507.793 695.751 505.763 694.958 503.43C694.211 501.097 693.838 498.577 693.838 495.87ZM718.338 491.88C718.291 490.993 718.128 490.13 717.848 489.29C717.614 488.45 717.218 487.703 716.658 487.05C716.144 486.397 715.468 485.86 714.628 485.44C713.834 485.02 712.831 484.81 711.618 484.81C710.451 484.81 709.448 485.02 708.608 485.44C707.768 485.813 707.068 486.327 706.508 486.98C705.948 487.633 705.504 488.403 705.178 489.29C704.898 490.13 704.688 490.993 704.548 491.88H718.338ZM763.853 506.51C765.766 506.51 767.119 506.323 767.913 505.95C768.706 505.577 769.103 504.853 769.103 503.78C769.103 502.94 768.589 502.217 767.563 501.61C766.536 500.957 764.973 500.233 762.873 499.44C761.239 498.833 759.746 498.203 758.393 497.55C757.086 496.897 755.966 496.127 755.033 495.24C754.099 494.307 753.376 493.21 752.863 491.95C752.349 490.69 752.093 489.173 752.093 487.4C752.093 483.947 753.376 481.217 755.943 479.21C758.509 477.203 762.033 476.2 766.513 476.2C768.753 476.2 770.899 476.41 772.953 476.83C775.006 477.203 776.639 477.623 777.853 478.09L776.033 486.21C774.819 485.79 773.489 485.417 772.043 485.09C770.643 484.763 769.056 484.6 767.283 484.6C764.016 484.6 762.383 485.51 762.383 487.33C762.383 487.75 762.453 488.123 762.593 488.45C762.733 488.777 763.013 489.103 763.433 489.43C763.853 489.71 764.413 490.037 765.113 490.41C765.859 490.737 766.793 491.11 767.913 491.53C770.199 492.37 772.089 493.21 773.583 494.05C775.076 494.843 776.243 495.73 777.083 496.71C777.969 497.643 778.576 498.693 778.903 499.86C779.276 501.027 779.463 502.38 779.463 503.92C779.463 507.56 778.086 510.313 775.333 512.18C772.626 514.047 768.776 514.98 763.783 514.98C760.516 514.98 757.786 514.7 755.593 514.14C753.446 513.58 751.953 513.113 751.113 512.74L752.863 504.27C754.636 504.97 756.456 505.53 758.323 505.95C760.189 506.323 762.033 506.51 763.853 506.51ZM797.687 514H787.257V477.18H797.687V514ZM798.667 466.54C798.667 468.453 798.037 469.97 796.777 471.09C795.564 472.163 794.117 472.7 792.437 472.7C790.757 472.7 789.287 472.163 788.027 471.09C786.814 469.97 786.207 468.453 786.207 466.54C786.207 464.627 786.814 463.133 788.027 462.06C789.287 460.94 790.757 460.38 792.437 460.38C794.117 460.38 795.564 460.94 796.777 462.06C798.037 463.133 798.667 464.627 798.667 466.54ZM827.722 494.47C827.722 491.11 827.278 488.73 826.392 487.33C825.552 485.93 824.082 485.23 821.982 485.23C821.328 485.23 820.652 485.277 819.952 485.37C819.252 485.417 818.575 485.487 817.922 485.58V514H807.492V478.44C808.378 478.207 809.405 477.973 810.572 477.74C811.785 477.46 813.045 477.227 814.352 477.04C815.705 476.807 817.082 476.643 818.482 476.55C819.882 476.41 821.258 476.34 822.612 476.34C825.272 476.34 827.418 476.69 829.052 477.39C830.732 478.043 832.108 478.837 833.182 479.77C834.675 478.697 836.378 477.857 838.292 477.25C840.252 476.643 842.048 476.34 843.682 476.34C846.622 476.34 849.025 476.76 850.892 477.6C852.805 478.393 854.322 479.537 855.442 481.03C856.562 482.523 857.332 484.297 857.752 486.35C858.172 488.403 858.382 490.69 858.382 493.21V514H847.952V494.47C847.952 491.11 847.508 488.73 846.622 487.33C845.782 485.93 844.312 485.23 842.212 485.23C841.652 485.23 840.858 485.37 839.832 485.65C838.852 485.93 838.035 486.28 837.382 486.7C837.708 487.773 837.918 488.917 838.012 490.13C838.105 491.297 838.152 492.557 838.152 493.91V514H827.722V494.47ZM916.1 512.74C914.326 513.253 912.04 513.72 909.24 514.14C906.44 514.607 903.5 514.84 900.42 514.84C897.293 514.84 894.68 514.42 892.58 513.58C890.526 512.74 888.893 511.573 887.68 510.08C886.466 508.54 885.603 506.72 885.09 504.62C884.576 502.52 884.32 500.21 884.32 497.69V477.18H894.75V496.43C894.75 499.79 895.193 502.217 896.08 503.71C896.966 505.203 898.623 505.95 901.05 505.95C901.796 505.95 902.59 505.927 903.43 505.88C904.27 505.787 905.016 505.693 905.67 505.6V477.18H916.1V512.74ZM946.12 494.47C946.12 491.11 945.677 488.73 944.79 487.33C943.95 485.93 942.48 485.23 940.38 485.23C939.727 485.23 939.05 485.277 938.35 485.37C937.65 485.417 936.974 485.487 936.32 485.58V514H925.89V478.44C926.777 478.207 927.804 477.973 928.97 477.74C930.184 477.46 931.444 477.227 932.75 477.04C934.104 476.807 935.48 476.643 936.88 476.55C938.28 476.41 939.657 476.34 941.01 476.34C943.67 476.34 945.817 476.69 947.45 477.39C949.13 478.043 950.507 478.837 951.58 479.77C953.074 478.697 954.777 477.857 956.69 477.25C958.65 476.643 960.447 476.34 962.08 476.34C965.02 476.34 967.424 476.76 969.29 477.6C971.204 478.393 972.72 479.537 973.84 481.03C974.96 482.523 975.73 484.297 976.15 486.35C976.57 488.403 976.78 490.69 976.78 493.21V514H966.35V494.47C966.35 491.11 965.907 488.73 965.02 487.33C964.18 485.93 962.71 485.23 960.61 485.23C960.05 485.23 959.257 485.37 958.23 485.65C957.25 485.93 956.434 486.28 955.78 486.7C956.107 487.773 956.317 488.917 956.41 490.13C956.504 491.297 956.55 492.557 956.55 493.91V514H946.12V494.47ZM126.47 576.51C128.383 576.51 129.737 576.323 130.53 575.95C131.323 575.577 131.72 574.853 131.72 573.78C131.72 572.94 131.207 572.217 130.18 571.61C129.153 570.957 127.59 570.233 125.49 569.44C123.857 568.833 122.363 568.203 121.01 567.55C119.703 566.897 118.583 566.127 117.65 565.24C116.717 564.307 115.993 563.21 115.48 561.95C114.967 560.69 114.71 559.173 114.71 557.4C114.71 553.947 115.993 551.217 118.56 549.21C121.127 547.203 124.65 546.2 129.13 546.2C131.37 546.2 133.517 546.41 135.57 546.83C137.623 547.203 139.257 547.623 140.47 548.09L138.65 556.21C137.437 555.79 136.107 555.417 134.66 555.09C133.26 554.763 131.673 554.6 129.9 554.6C126.633 554.6 125 555.51 125 557.33C125 557.75 125.07 558.123 125.21 558.45C125.35 558.777 125.63 559.103 126.05 559.43C126.47 559.71 127.03 560.037 127.73 560.41C128.477 560.737 129.41 561.11 130.53 561.53C132.817 562.37 134.707 563.21 136.2 564.05C137.693 564.843 138.86 565.73 139.7 566.71C140.587 567.643 141.193 568.693 141.52 569.86C141.893 571.027 142.08 572.38 142.08 573.92C142.08 577.56 140.703 580.313 137.95 582.18C135.243 584.047 131.393 584.98 126.4 584.98C123.133 584.98 120.403 584.7 118.21 584.14C116.063 583.58 114.57 583.113 113.73 582.74L115.48 574.27C117.253 574.97 119.073 575.53 120.94 575.95C122.807 576.323 124.65 576.51 126.47 576.51ZM184.315 565.52C184.315 568.413 183.895 571.073 183.055 573.5C182.215 575.88 181.001 577.933 179.415 579.66C177.828 581.34 175.915 582.647 173.675 583.58C171.481 584.513 169.008 584.98 166.255 584.98C163.548 584.98 161.075 584.513 158.835 583.58C156.641 582.647 154.751 581.34 153.165 579.66C151.578 577.933 150.341 575.88 149.455 573.5C148.568 571.073 148.125 568.413 148.125 565.52C148.125 562.627 148.568 559.99 149.455 557.61C150.388 555.23 151.648 553.2 153.235 551.52C154.868 549.84 156.781 548.533 158.975 547.6C161.215 546.667 163.641 546.2 166.255 546.2C168.915 546.2 171.341 546.667 173.535 547.6C175.775 548.533 177.688 549.84 179.275 551.52C180.861 553.2 182.098 555.23 182.985 557.61C183.871 559.99 184.315 562.627 184.315 565.52ZM173.675 565.52C173.675 562.3 173.021 559.78 171.715 557.96C170.455 556.093 168.635 555.16 166.255 555.16C163.875 555.16 162.031 556.093 160.725 557.96C159.418 559.78 158.765 562.3 158.765 565.52C158.765 568.74 159.418 571.307 160.725 573.22C162.031 575.087 163.875 576.02 166.255 576.02C168.635 576.02 170.455 575.087 171.715 573.22C173.021 571.307 173.675 568.74 173.675 565.52ZM208.354 529.68C210.314 529.68 212.111 529.89 213.744 530.31C215.377 530.683 216.637 531.057 217.524 531.43L215.494 539.76C214.561 539.34 213.534 539.037 212.414 538.85C211.341 538.617 210.337 538.5 209.404 538.5C208.144 538.5 207.071 538.687 206.184 539.06C205.344 539.387 204.667 539.853 204.154 540.46C203.687 541.067 203.337 541.79 203.104 542.63C202.917 543.47 202.824 544.38 202.824 545.36V547.18H215.704V555.86H202.824V584H192.394V545.22C192.394 540.46 193.724 536.68 196.384 533.88C199.091 531.08 203.081 529.68 208.354 529.68ZM221.575 538.01L232.005 536.33V547.18H244.535V555.86H232.005V568.81C232.005 571.003 232.379 572.753 233.125 574.06C233.919 575.367 235.482 576.02 237.815 576.02C238.935 576.02 240.079 575.927 241.245 575.74C242.459 575.507 243.555 575.203 244.535 574.83L246.005 582.95C244.745 583.463 243.345 583.907 241.805 584.28C240.265 584.653 238.375 584.84 236.135 584.84C233.289 584.84 230.932 584.467 229.065 583.72C227.199 582.927 225.705 581.853 224.585 580.5C223.465 579.1 222.672 577.42 222.205 575.46C221.785 573.5 221.575 571.33 221.575 568.95V538.01ZM276.113 562.86C275.179 566.407 274.176 569.93 273.103 573.43C272.076 576.93 270.979 580.453 269.813 584H261.693C260.853 582.04 259.943 579.707 258.963 577C257.983 574.293 256.956 571.353 255.883 568.18C254.856 564.96 253.783 561.577 252.663 558.03C251.589 554.437 250.539 550.82 249.513 547.18H260.503C260.876 548.86 261.273 550.703 261.693 552.71C262.159 554.67 262.626 556.7 263.093 558.8C263.606 560.9 264.119 563.023 264.633 565.17C265.193 567.27 265.753 569.3 266.312 571.26C266.919 569.207 267.503 567.107 268.063 564.96C268.669 562.813 269.229 560.713 269.743 558.66C270.303 556.56 270.816 554.553 271.283 552.64C271.796 550.68 272.239 548.86 272.613 547.18H280.173C280.546 548.86 280.966 550.68 281.433 552.64C281.899 554.553 282.389 556.56 282.903 558.66C283.416 560.713 283.953 562.813 284.513 564.96C285.073 567.107 285.656 569.207 286.263 571.26C286.823 569.3 287.383 567.27 287.943 565.17C288.503 563.023 289.016 560.9 289.483 558.8C289.996 556.7 290.463 554.67 290.883 552.71C291.349 550.703 291.769 548.86 292.143 547.18H302.993C301.966 550.82 300.893 554.437 299.773 558.03C298.699 561.577 297.626 564.96 296.553 568.18C295.526 571.353 294.499 574.293 293.473 577C292.493 579.707 291.583 582.04 290.743 584H282.623C281.456 580.453 280.313 576.93 279.193 573.43C278.073 569.93 277.046 566.407 276.113 562.86ZM321.991 576.72C323.018 576.72 323.998 576.697 324.931 576.65C325.865 576.603 326.611 576.533 327.171 576.44V568.53C326.751 568.437 326.121 568.343 325.281 568.25C324.441 568.157 323.671 568.11 322.971 568.11C321.991 568.11 321.058 568.18 320.171 568.32C319.331 568.413 318.585 568.623 317.931 568.95C317.278 569.277 316.765 569.72 316.391 570.28C316.018 570.84 315.831 571.54 315.831 572.38C315.831 574.013 316.368 575.157 317.441 575.81C318.561 576.417 320.078 576.72 321.991 576.72ZM321.151 546.2C324.231 546.2 326.798 546.55 328.851 547.25C330.905 547.95 332.538 548.953 333.751 550.26C335.011 551.567 335.898 553.153 336.411 555.02C336.925 556.887 337.181 558.963 337.181 561.25V582.95C335.688 583.277 333.611 583.65 330.951 584.07C328.291 584.537 325.071 584.77 321.291 584.77C318.911 584.77 316.741 584.56 314.781 584.14C312.868 583.72 311.211 583.043 309.811 582.11C308.411 581.13 307.338 579.87 306.591 578.33C305.845 576.79 305.471 574.9 305.471 572.66C305.471 570.513 305.891 568.693 306.731 567.2C307.618 565.707 308.785 564.517 310.231 563.63C311.678 562.743 313.335 562.113 315.201 561.74C317.068 561.32 319.005 561.11 321.011 561.11C322.365 561.11 323.555 561.18 324.581 561.32C325.655 561.413 326.518 561.553 327.171 561.74V560.76C327.171 558.987 326.635 557.563 325.561 556.49C324.488 555.417 322.621 554.88 319.961 554.88C318.188 554.88 316.438 555.02 314.711 555.3C312.985 555.533 311.491 555.883 310.231 556.35L308.901 547.95C309.508 547.763 310.255 547.577 311.141 547.39C312.075 547.157 313.078 546.97 314.151 546.83C315.225 546.643 316.345 546.503 317.511 546.41C318.725 546.27 319.938 546.2 321.151 546.2ZM368.803 556.42C367.87 556.187 366.773 555.953 365.513 555.72C364.253 555.44 362.9 555.3 361.453 555.3C360.8 555.3 360.006 555.37 359.073 555.51C358.186 555.603 357.51 555.72 357.043 555.86V584H346.613V549.14C348.48 548.487 350.673 547.88 353.193 547.32C355.76 546.713 358.606 546.41 361.733 546.41C362.293 546.41 362.97 546.457 363.763 546.55C364.556 546.597 365.35 546.69 366.143 546.83C366.936 546.923 367.73 547.063 368.523 547.25C369.316 547.39 369.993 547.577 370.553 547.81L368.803 556.42ZM373.711 565.87C373.711 562.603 374.201 559.757 375.181 557.33C376.207 554.857 377.537 552.803 379.171 551.17C380.804 549.537 382.671 548.3 384.771 547.46C386.917 546.62 389.111 546.2 391.351 546.2C396.577 546.2 400.707 547.81 403.741 551.03C406.774 554.203 408.291 558.893 408.291 565.1C408.291 565.707 408.267 566.383 408.221 567.13C408.174 567.83 408.127 568.46 408.081 569.02H384.421C384.654 571.167 385.657 572.87 387.431 574.13C389.204 575.39 391.584 576.02 394.571 576.02C396.484 576.02 398.351 575.857 400.171 575.53C402.037 575.157 403.554 574.713 404.721 574.2L406.121 582.67C405.561 582.95 404.814 583.23 403.881 583.51C402.947 583.79 401.897 584.023 400.731 584.21C399.611 584.443 398.397 584.63 397.091 584.77C395.784 584.91 394.477 584.98 393.171 584.98C389.857 584.98 386.964 584.49 384.491 583.51C382.064 582.53 380.034 581.2 378.401 579.52C376.814 577.793 375.624 575.763 374.831 573.43C374.084 571.097 373.711 568.577 373.711 565.87ZM398.211 561.88C398.164 560.993 398.001 560.13 397.721 559.29C397.487 558.45 397.091 557.703 396.531 557.05C396.017 556.397 395.341 555.86 394.501 555.44C393.707 555.02 392.704 554.81 391.491 554.81C390.324 554.81 389.321 555.02 388.481 555.44C387.641 555.813 386.941 556.327 386.381 556.98C385.821 557.633 385.377 558.403 385.051 559.29C384.771 560.13 384.561 560.993 384.421 561.88H398.211Z" fill="white"/>
</g>
<defs>
<clipPath id="clip0_104_287">
<rect width="1300" height="976" fill="white"/>
</clipPath>
</defs>
</svg>
