<svg width="1300" height="976" viewBox="0 0 1300 976" fill="none" xmlns="http://www.w3.org/2000/svg">
<g clip-path="url(#clip0_104_403)">
<rect x="-76" y="-52" width="1484" height="1096" fill="black"/>
<path d="M367.33 479H356.9V442.18H367.33V479ZM368.31 431.54C368.31 433.453 367.68 434.97 366.42 436.09C365.207 437.163 363.76 437.7 362.08 437.7C360.4 437.7 358.93 437.163 357.67 436.09C356.457 434.97 355.85 433.453 355.85 431.54C355.85 429.627 356.457 428.133 357.67 427.06C358.93 425.94 360.4 425.38 362.08 425.38C363.76 425.38 365.207 425.94 366.42 427.06C367.68 428.133 368.31 429.627 368.31 431.54ZM377.134 443.44C378.908 442.927 381.194 442.46 383.994 442.04C386.794 441.573 389.734 441.34 392.814 441.34C395.941 441.34 398.531 441.76 400.584 442.6C402.684 443.393 404.341 444.537 405.554 446.03C406.768 447.523 407.631 449.297 408.144 451.35C408.658 453.403 408.914 455.69 408.914 458.21V479H398.484V459.47C398.484 456.11 398.041 453.73 397.154 452.33C396.268 450.93 394.611 450.23 392.184 450.23C391.438 450.23 390.644 450.277 389.804 450.37C388.964 450.417 388.218 450.487 387.564 450.58V479H377.134V443.44ZM452.795 460.52C452.795 463.413 452.375 466.073 451.535 468.5C450.695 470.88 449.482 472.933 447.895 474.66C446.308 476.34 444.395 477.647 442.155 478.58C439.962 479.513 437.488 479.98 434.735 479.98C432.028 479.98 429.555 479.513 427.315 478.58C425.122 477.647 423.232 476.34 421.645 474.66C420.058 472.933 418.822 470.88 417.935 468.5C417.048 466.073 416.605 463.413 416.605 460.52C416.605 457.627 417.048 454.99 417.935 452.61C418.868 450.23 420.128 448.2 421.715 446.52C423.348 444.84 425.262 443.533 427.455 442.6C429.695 441.667 432.122 441.2 434.735 441.2C437.395 441.2 439.822 441.667 442.015 442.6C444.255 443.533 446.168 444.84 447.755 446.52C449.342 448.2 450.578 450.23 451.465 452.61C452.352 454.99 452.795 457.627 452.795 460.52ZM442.155 460.52C442.155 457.3 441.502 454.78 440.195 452.96C438.935 451.093 437.115 450.16 434.735 450.16C432.355 450.16 430.512 451.093 429.205 452.96C427.898 454.78 427.245 457.3 427.245 460.52C427.245 463.74 427.898 466.307 429.205 468.22C430.512 470.087 432.355 471.02 434.735 471.02C437.115 471.02 438.935 470.087 440.195 468.22C441.502 466.307 442.155 463.74 442.155 460.52ZM469.928 479C467.548 474.333 465.121 468.873 462.648 462.62C460.221 456.367 457.911 449.553 455.718 442.18H466.778C467.244 444 467.781 445.983 468.388 448.13C469.041 450.23 469.694 452.377 470.348 454.57C471.048 456.717 471.724 458.817 472.378 460.87C473.078 462.923 473.754 464.79 474.408 466.47C475.014 464.79 475.668 462.923 476.368 460.87C477.068 458.817 477.744 456.717 478.398 454.57C479.098 452.377 479.751 450.23 480.358 448.13C481.011 445.983 481.571 444 482.038 442.18H492.818C490.624 449.553 488.291 456.367 485.818 462.62C483.391 468.873 480.988 474.333 478.608 479H469.928ZM511.79 471.72C512.817 471.72 513.797 471.697 514.73 471.65C515.664 471.603 516.41 471.533 516.97 471.44V463.53C516.55 463.437 515.92 463.343 515.08 463.25C514.24 463.157 513.47 463.11 512.77 463.11C511.79 463.11 510.857 463.18 509.97 463.32C509.13 463.413 508.384 463.623 507.73 463.95C507.077 464.277 506.564 464.72 506.19 465.28C505.817 465.84 505.63 466.54 505.63 467.38C505.63 469.013 506.167 470.157 507.24 470.81C508.36 471.417 509.877 471.72 511.79 471.72ZM510.95 441.2C514.03 441.2 516.597 441.55 518.65 442.25C520.704 442.95 522.337 443.953 523.55 445.26C524.81 446.567 525.697 448.153 526.21 450.02C526.724 451.887 526.98 453.963 526.98 456.25V477.95C525.487 478.277 523.41 478.65 520.75 479.07C518.09 479.537 514.87 479.77 511.09 479.77C508.71 479.77 506.54 479.56 504.58 479.14C502.667 478.72 501.01 478.043 499.61 477.11C498.21 476.13 497.137 474.87 496.39 473.33C495.644 471.79 495.27 469.9 495.27 467.66C495.27 465.513 495.69 463.693 496.53 462.2C497.417 460.707 498.584 459.517 500.03 458.63C501.477 457.743 503.134 457.113 505 456.74C506.867 456.32 508.804 456.11 510.81 456.11C512.164 456.11 513.354 456.18 514.38 456.32C515.454 456.413 516.317 456.553 516.97 456.74V455.76C516.97 453.987 516.434 452.563 515.36 451.49C514.287 450.417 512.42 449.88 509.76 449.88C507.987 449.88 506.237 450.02 504.51 450.3C502.784 450.533 501.29 450.883 500.03 451.35L498.7 442.95C499.307 442.763 500.054 442.577 500.94 442.39C501.874 442.157 502.877 441.97 503.95 441.83C505.024 441.643 506.144 441.503 507.31 441.41C508.524 441.27 509.737 441.2 510.95 441.2ZM554.472 481.8C555.965 482.547 556.992 483.433 557.552 484.46C558.112 485.487 558.392 486.537 558.392 487.61C558.392 489.85 557.505 491.553 555.732 492.72C553.958 493.887 551.625 494.47 548.732 494.47C547.705 494.47 546.678 494.377 545.652 494.19C544.625 494.05 543.598 493.84 542.572 493.56L543.832 487.47C544.158 487.563 544.742 487.703 545.582 487.89C546.468 488.123 547.332 488.24 548.172 488.24C548.825 488.24 549.385 488.1 549.852 487.82C550.365 487.587 550.645 487.143 550.692 486.49C550.738 485.93 550.505 485.417 549.992 484.95C549.525 484.483 548.755 484.133 547.682 483.9L546.842 483.69C547.028 483.083 547.285 482.383 547.612 481.59C547.938 480.843 548.265 480.143 548.592 479.49C546.165 479.023 544.065 478.23 542.292 477.11C540.565 475.943 539.118 474.543 537.952 472.91C536.832 471.23 535.992 469.34 535.432 467.24C534.918 465.14 534.662 462.923 534.662 460.59C534.662 457.93 535.082 455.433 535.922 453.1C536.808 450.72 538.068 448.667 539.702 446.94C541.335 445.167 543.318 443.767 545.652 442.74C547.985 441.713 550.645 441.2 553.632 441.2C555.592 441.2 557.388 441.387 559.022 441.76C560.655 442.087 562.242 442.577 563.782 443.23L561.612 451.56C560.632 451.187 559.558 450.86 558.392 450.58C557.225 450.3 555.918 450.16 554.472 450.16C551.392 450.16 549.082 451.117 547.542 453.03C546.048 454.943 545.302 457.463 545.302 460.59C545.302 463.903 546.002 466.47 547.402 468.29C548.848 470.11 551.345 471.02 554.892 471.02C556.152 471.02 557.505 470.903 558.952 470.67C560.398 470.437 561.728 470.063 562.942 469.55L564.412 478.09C563.338 478.557 562.008 478.953 560.422 479.28C558.882 479.607 557.178 479.817 555.312 479.91C555.125 480.283 554.962 480.633 554.822 480.96C554.682 481.287 554.565 481.567 554.472 481.8ZM583.704 471.72C584.731 471.72 585.711 471.697 586.644 471.65C587.578 471.603 588.324 471.533 588.884 471.44V463.53C588.464 463.437 587.834 463.343 586.994 463.25C586.154 463.157 585.384 463.11 584.684 463.11C583.704 463.11 582.771 463.18 581.884 463.32C581.044 463.413 580.298 463.623 579.644 463.95C578.991 464.277 578.478 464.72 578.104 465.28C577.731 465.84 577.544 466.54 577.544 467.38C577.544 469.013 578.081 470.157 579.154 470.81C580.274 471.417 581.791 471.72 583.704 471.72ZM582.864 441.2C585.944 441.2 588.511 441.55 590.564 442.25C592.618 442.95 594.251 443.953 595.464 445.26C596.724 446.567 597.611 448.153 598.124 450.02C598.638 451.887 598.894 453.963 598.894 456.25V477.95C597.401 478.277 595.324 478.65 592.664 479.07C590.004 479.537 586.784 479.77 583.004 479.77C580.624 479.77 578.454 479.56 576.494 479.14C574.581 478.72 572.924 478.043 571.524 477.11C570.124 476.13 569.051 474.87 568.304 473.33C567.558 471.79 567.184 469.9 567.184 467.66C567.184 465.513 567.604 463.693 568.444 462.2C569.331 460.707 570.498 459.517 571.944 458.63C573.391 457.743 575.048 457.113 576.914 456.74C578.781 456.32 580.718 456.11 582.724 456.11C584.078 456.11 585.268 456.18 586.294 456.32C587.368 456.413 588.231 456.553 588.884 456.74V455.76C588.884 453.987 588.348 452.563 587.274 451.49C586.201 450.417 584.334 449.88 581.674 449.88C579.901 449.88 578.151 450.02 576.424 450.3C574.698 450.533 573.204 450.883 571.944 451.35L570.614 442.95C571.221 442.763 571.968 442.577 572.854 442.39C573.788 442.157 574.791 441.97 575.864 441.83C576.938 441.643 578.058 441.503 579.224 441.41C580.438 441.27 581.651 441.2 582.864 441.2ZM596.584 429.37C596.304 430.07 595.908 430.84 595.394 431.68C594.928 432.52 594.344 433.313 593.644 434.06C592.944 434.76 592.151 435.343 591.264 435.81C590.378 436.277 589.398 436.51 588.324 436.51C587.484 436.51 586.691 436.393 585.944 436.16C585.244 435.88 584.544 435.6 583.844 435.32C583.144 434.993 582.444 434.713 581.744 434.48C581.044 434.2 580.321 434.06 579.574 434.06C578.641 434.06 577.871 434.363 577.264 434.97C576.658 435.577 576.168 436.277 575.794 437.07L570.684 433.71C570.964 433.01 571.338 432.24 571.804 431.4C572.318 430.56 572.924 429.79 573.624 429.09C574.324 428.343 575.118 427.737 576.004 427.27C576.891 426.803 577.871 426.57 578.944 426.57C579.784 426.57 580.554 426.71 581.254 426.99C582.001 427.223 582.724 427.503 583.424 427.83C584.124 428.11 584.801 428.39 585.454 428.67C586.154 428.903 586.901 429.02 587.694 429.02C588.628 429.02 589.398 428.717 590.004 428.11C590.611 427.503 591.101 426.803 591.474 426.01L596.584 429.37ZM642.766 460.52C642.766 463.413 642.346 466.073 641.506 468.5C640.666 470.88 639.452 472.933 637.866 474.66C636.279 476.34 634.366 477.647 632.126 478.58C629.932 479.513 627.459 479.98 624.706 479.98C621.999 479.98 619.526 479.513 617.286 478.58C615.092 477.647 613.202 476.34 611.616 474.66C610.029 472.933 608.792 470.88 607.906 468.5C607.019 466.073 606.576 463.413 606.576 460.52C606.576 457.627 607.019 454.99 607.906 452.61C608.839 450.23 610.099 448.2 611.686 446.52C613.319 444.84 615.232 443.533 617.426 442.6C619.666 441.667 622.092 441.2 624.706 441.2C627.366 441.2 629.792 441.667 631.986 442.6C634.226 443.533 636.139 444.84 637.726 446.52C639.312 448.2 640.549 450.23 641.436 452.61C642.322 454.99 642.766 457.627 642.766 460.52ZM632.126 460.52C632.126 457.3 631.472 454.78 630.166 452.96C628.906 451.093 627.086 450.16 624.706 450.16C622.326 450.16 620.482 451.093 619.176 452.96C617.869 454.78 617.216 457.3 617.216 460.52C617.216 463.74 617.869 466.307 619.176 468.22C620.482 470.087 622.326 471.02 624.706 471.02C627.086 471.02 628.906 470.087 630.166 468.22C631.472 466.307 632.126 463.74 632.126 460.52ZM667.662 443.44C669.435 442.927 671.722 442.46 674.522 442.04C677.322 441.573 680.262 441.34 683.342 441.34C686.468 441.34 689.058 441.76 691.112 442.6C693.212 443.393 694.868 444.537 696.082 446.03C697.295 447.523 698.158 449.297 698.672 451.35C699.185 453.403 699.442 455.69 699.442 458.21V479H689.012V459.47C689.012 456.11 688.568 453.73 687.682 452.33C686.795 450.93 685.138 450.23 682.712 450.23C681.965 450.23 681.172 450.277 680.332 450.37C679.492 450.417 678.745 450.487 678.092 450.58V479H667.662V443.44ZM722.952 471.72C723.979 471.72 724.959 471.697 725.892 471.65C726.826 471.603 727.572 471.533 728.132 471.44V463.53C727.712 463.437 727.082 463.343 726.242 463.25C725.402 463.157 724.632 463.11 723.932 463.11C722.952 463.11 722.019 463.18 721.132 463.32C720.292 463.413 719.546 463.623 718.892 463.95C718.239 464.277 717.726 464.72 717.352 465.28C716.979 465.84 716.792 466.54 716.792 467.38C716.792 469.013 717.329 470.157 718.402 470.81C719.522 471.417 721.039 471.72 722.952 471.72ZM722.112 441.2C725.192 441.2 727.759 441.55 729.812 442.25C731.866 442.95 733.499 443.953 734.712 445.26C735.972 446.567 736.859 448.153 737.372 450.02C737.886 451.887 738.142 453.963 738.142 456.25V477.95C736.649 478.277 734.572 478.65 731.912 479.07C729.252 479.537 726.032 479.77 722.252 479.77C719.872 479.77 717.702 479.56 715.742 479.14C713.829 478.72 712.172 478.043 710.772 477.11C709.372 476.13 708.299 474.87 707.552 473.33C706.806 471.79 706.432 469.9 706.432 467.66C706.432 465.513 706.852 463.693 707.692 462.2C708.579 460.707 709.746 459.517 711.192 458.63C712.639 457.743 714.296 457.113 716.162 456.74C718.029 456.32 719.966 456.11 721.972 456.11C723.326 456.11 724.516 456.18 725.542 456.32C726.616 456.413 727.479 456.553 728.132 456.74V455.76C728.132 453.987 727.596 452.563 726.522 451.49C725.449 450.417 723.582 449.88 720.922 449.88C719.149 449.88 717.399 450.02 715.672 450.3C713.946 450.533 712.452 450.883 711.192 451.35L709.862 442.95C710.469 442.763 711.216 442.577 712.102 442.39C713.036 442.157 714.039 441.97 715.112 441.83C716.186 441.643 717.306 441.503 718.472 441.41C719.686 441.27 720.899 441.2 722.112 441.2ZM735.832 429.37C735.552 430.07 735.156 430.84 734.642 431.68C734.176 432.52 733.592 433.313 732.892 434.06C732.192 434.76 731.399 435.343 730.512 435.81C729.626 436.277 728.646 436.51 727.572 436.51C726.732 436.51 725.939 436.393 725.192 436.16C724.492 435.88 723.792 435.6 723.092 435.32C722.392 434.993 721.692 434.713 720.992 434.48C720.292 434.2 719.569 434.06 718.822 434.06C717.889 434.06 717.119 434.363 716.512 434.97C715.906 435.577 715.416 436.277 715.042 437.07L709.932 433.71C710.212 433.01 710.586 432.24 711.052 431.4C711.566 430.56 712.172 429.79 712.872 429.09C713.572 428.343 714.366 427.737 715.252 427.27C716.139 426.803 717.119 426.57 718.192 426.57C719.032 426.57 719.802 426.71 720.502 426.99C721.249 427.223 721.972 427.503 722.672 427.83C723.372 428.11 724.049 428.39 724.702 428.67C725.402 428.903 726.149 429.02 726.942 429.02C727.876 429.02 728.646 428.717 729.252 428.11C729.859 427.503 730.349 426.803 730.722 426.01L735.832 429.37ZM782.014 460.52C782.014 463.413 781.594 466.073 780.754 468.5C779.914 470.88 778.7 472.933 777.114 474.66C775.527 476.34 773.614 477.647 771.374 478.58C769.18 479.513 766.707 479.98 763.954 479.98C761.247 479.98 758.774 479.513 756.534 478.58C754.34 477.647 752.45 476.34 750.864 474.66C749.277 472.933 748.04 470.88 747.154 468.5C746.267 466.073 745.824 463.413 745.824 460.52C745.824 457.627 746.267 454.99 747.154 452.61C748.087 450.23 749.347 448.2 750.934 446.52C752.567 444.84 754.48 443.533 756.674 442.6C758.914 441.667 761.34 441.2 763.954 441.2C766.614 441.2 769.04 441.667 771.234 442.6C773.474 443.533 775.387 444.84 776.974 446.52C778.56 448.2 779.797 450.23 780.684 452.61C781.57 454.99 782.014 457.627 782.014 460.52ZM771.374 460.52C771.374 457.3 770.72 454.78 769.414 452.96C768.154 451.093 766.334 450.16 763.954 450.16C761.574 450.16 759.73 451.093 758.424 452.96C757.117 454.78 756.464 457.3 756.464 460.52C756.464 463.74 757.117 466.307 758.424 468.22C759.73 470.087 761.574 471.02 763.954 471.02C766.334 471.02 768.154 470.087 769.414 468.22C770.72 466.307 771.374 463.74 771.374 460.52ZM805.16 460.87C805.16 457.603 805.65 454.757 806.63 452.33C807.656 449.857 808.986 447.803 810.62 446.17C812.253 444.537 814.12 443.3 816.22 442.46C818.366 441.62 820.56 441.2 822.8 441.2C828.026 441.2 832.156 442.81 835.19 446.03C838.223 449.203 839.74 453.893 839.74 460.1C839.74 460.707 839.716 461.383 839.67 462.13C839.623 462.83 839.576 463.46 839.53 464.02H815.87C816.103 466.167 817.106 467.87 818.88 469.13C820.653 470.39 823.033 471.02 826.02 471.02C827.933 471.02 829.8 470.857 831.62 470.53C833.486 470.157 835.003 469.713 836.17 469.2L837.57 477.67C837.01 477.95 836.263 478.23 835.33 478.51C834.396 478.79 833.346 479.023 832.18 479.21C831.06 479.443 829.846 479.63 828.54 479.77C827.233 479.91 825.926 479.98 824.62 479.98C821.306 479.98 818.413 479.49 815.94 478.51C813.513 477.53 811.483 476.2 809.85 474.52C808.263 472.793 807.073 470.763 806.28 468.43C805.533 466.097 805.16 463.577 805.16 460.87ZM829.66 456.88C829.613 455.993 829.45 455.13 829.17 454.29C828.936 453.45 828.54 452.703 827.98 452.05C827.466 451.397 826.79 450.86 825.95 450.44C825.156 450.02 824.153 449.81 822.94 449.81C821.773 449.81 820.77 450.02 819.93 450.44C819.09 450.813 818.39 451.327 817.83 451.98C817.27 452.633 816.826 453.403 816.5 454.29C816.22 455.13 816.01 455.993 815.87 456.88H829.66ZM831.27 428.95L819.72 438.68L814.96 434.41L824.9 423.07L831.27 428.95ZM367.33 549H356.9V512.18H367.33V549ZM368.31 501.54C368.31 503.453 367.68 504.97 366.42 506.09C365.207 507.163 363.76 507.7 362.08 507.7C360.4 507.7 358.93 507.163 357.67 506.09C356.457 504.97 355.85 503.453 355.85 501.54C355.85 499.627 356.457 498.133 357.67 497.06C358.93 495.94 360.4 495.38 362.08 495.38C363.76 495.38 365.207 495.94 366.42 497.06C367.68 498.133 368.31 499.627 368.31 501.54ZM377.134 513.44C378.908 512.927 381.194 512.46 383.994 512.04C386.794 511.573 389.734 511.34 392.814 511.34C395.941 511.34 398.531 511.76 400.584 512.6C402.684 513.393 404.341 514.537 405.554 516.03C406.768 517.523 407.631 519.297 408.144 521.35C408.658 523.403 408.914 525.69 408.914 528.21V549H398.484V529.47C398.484 526.11 398.041 523.73 397.154 522.33C396.268 520.93 394.611 520.23 392.184 520.23C391.438 520.23 390.644 520.277 389.804 520.37C388.964 520.417 388.218 520.487 387.564 520.58V549H377.134V513.44ZM452.795 530.52C452.795 533.413 452.375 536.073 451.535 538.5C450.695 540.88 449.482 542.933 447.895 544.66C446.308 546.34 444.395 547.647 442.155 548.58C439.962 549.513 437.488 549.98 434.735 549.98C432.028 549.98 429.555 549.513 427.315 548.58C425.122 547.647 423.232 546.34 421.645 544.66C420.058 542.933 418.822 540.88 417.935 538.5C417.048 536.073 416.605 533.413 416.605 530.52C416.605 527.627 417.048 524.99 417.935 522.61C418.868 520.23 420.128 518.2 421.715 516.52C423.348 514.84 425.262 513.533 427.455 512.6C429.695 511.667 432.122 511.2 434.735 511.2C437.395 511.2 439.822 511.667 442.015 512.6C444.255 513.533 446.168 514.84 447.755 516.52C449.342 518.2 450.578 520.23 451.465 522.61C452.352 524.99 452.795 527.627 452.795 530.52ZM442.155 530.52C442.155 527.3 441.502 524.78 440.195 522.96C438.935 521.093 437.115 520.16 434.735 520.16C432.355 520.16 430.512 521.093 429.205 522.96C427.898 524.78 427.245 527.3 427.245 530.52C427.245 533.74 427.898 536.307 429.205 538.22C430.512 540.087 432.355 541.02 434.735 541.02C437.115 541.02 438.935 540.087 440.195 538.22C441.502 536.307 442.155 533.74 442.155 530.52ZM469.928 549C467.548 544.333 465.121 538.873 462.648 532.62C460.221 526.367 457.911 519.553 455.718 512.18H466.778C467.244 514 467.781 515.983 468.388 518.13C469.041 520.23 469.694 522.377 470.348 524.57C471.048 526.717 471.724 528.817 472.378 530.87C473.078 532.923 473.754 534.79 474.408 536.47C475.014 534.79 475.668 532.923 476.368 530.87C477.068 528.817 477.744 526.717 478.398 524.57C479.098 522.377 479.751 520.23 480.358 518.13C481.011 515.983 481.571 514 482.038 512.18H492.818C490.624 519.553 488.291 526.367 485.818 532.62C483.391 538.873 480.988 544.333 478.608 549H469.928ZM511.79 541.72C512.817 541.72 513.797 541.697 514.73 541.65C515.664 541.603 516.41 541.533 516.97 541.44V533.53C516.55 533.437 515.92 533.343 515.08 533.25C514.24 533.157 513.47 533.11 512.77 533.11C511.79 533.11 510.857 533.18 509.97 533.32C509.13 533.413 508.384 533.623 507.73 533.95C507.077 534.277 506.564 534.72 506.19 535.28C505.817 535.84 505.63 536.54 505.63 537.38C505.63 539.013 506.167 540.157 507.24 540.81C508.36 541.417 509.877 541.72 511.79 541.72ZM510.95 511.2C514.03 511.2 516.597 511.55 518.65 512.25C520.704 512.95 522.337 513.953 523.55 515.26C524.81 516.567 525.697 518.153 526.21 520.02C526.724 521.887 526.98 523.963 526.98 526.25V547.95C525.487 548.277 523.41 548.65 520.75 549.07C518.09 549.537 514.87 549.77 511.09 549.77C508.71 549.77 506.54 549.56 504.58 549.14C502.667 548.72 501.01 548.043 499.61 547.11C498.21 546.13 497.137 544.87 496.39 543.33C495.644 541.79 495.27 539.9 495.27 537.66C495.27 535.513 495.69 533.693 496.53 532.2C497.417 530.707 498.584 529.517 500.03 528.63C501.477 527.743 503.134 527.113 505 526.74C506.867 526.32 508.804 526.11 510.81 526.11C512.164 526.11 513.354 526.18 514.38 526.32C515.454 526.413 516.317 526.553 516.97 526.74V525.76C516.97 523.987 516.434 522.563 515.36 521.49C514.287 520.417 512.42 519.88 509.76 519.88C507.987 519.88 506.237 520.02 504.51 520.3C502.784 520.533 501.29 520.883 500.03 521.35L498.7 512.95C499.307 512.763 500.054 512.577 500.94 512.39C501.874 512.157 502.877 511.97 503.95 511.83C505.024 511.643 506.144 511.503 507.31 511.41C508.524 511.27 509.737 511.2 510.95 511.2ZM554.472 551.8C555.965 552.547 556.992 553.433 557.552 554.46C558.112 555.487 558.392 556.537 558.392 557.61C558.392 559.85 557.505 561.553 555.732 562.72C553.958 563.887 551.625 564.47 548.732 564.47C547.705 564.47 546.678 564.377 545.652 564.19C544.625 564.05 543.598 563.84 542.572 563.56L543.832 557.47C544.158 557.563 544.742 557.703 545.582 557.89C546.468 558.123 547.332 558.24 548.172 558.24C548.825 558.24 549.385 558.1 549.852 557.82C550.365 557.587 550.645 557.143 550.692 556.49C550.738 555.93 550.505 555.417 549.992 554.95C549.525 554.483 548.755 554.133 547.682 553.9L546.842 553.69C547.028 553.083 547.285 552.383 547.612 551.59C547.938 550.843 548.265 550.143 548.592 549.49C546.165 549.023 544.065 548.23 542.292 547.11C540.565 545.943 539.118 544.543 537.952 542.91C536.832 541.23 535.992 539.34 535.432 537.24C534.918 535.14 534.662 532.923 534.662 530.59C534.662 527.93 535.082 525.433 535.922 523.1C536.808 520.72 538.068 518.667 539.702 516.94C541.335 515.167 543.318 513.767 545.652 512.74C547.985 511.713 550.645 511.2 553.632 511.2C555.592 511.2 557.388 511.387 559.022 511.76C560.655 512.087 562.242 512.577 563.782 513.23L561.612 521.56C560.632 521.187 559.558 520.86 558.392 520.58C557.225 520.3 555.918 520.16 554.472 520.16C551.392 520.16 549.082 521.117 547.542 523.03C546.048 524.943 545.302 527.463 545.302 530.59C545.302 533.903 546.002 536.47 547.402 538.29C548.848 540.11 551.345 541.02 554.892 541.02C556.152 541.02 557.505 540.903 558.952 540.67C560.398 540.437 561.728 540.063 562.942 539.55L564.412 548.09C563.338 548.557 562.008 548.953 560.422 549.28C558.882 549.607 557.178 549.817 555.312 549.91C555.125 550.283 554.962 550.633 554.822 550.96C554.682 551.287 554.565 551.567 554.472 551.8ZM583.704 541.72C584.731 541.72 585.711 541.697 586.644 541.65C587.578 541.603 588.324 541.533 588.884 541.44V533.53C588.464 533.437 587.834 533.343 586.994 533.25C586.154 533.157 585.384 533.11 584.684 533.11C583.704 533.11 582.771 533.18 581.884 533.32C581.044 533.413 580.298 533.623 579.644 533.95C578.991 534.277 578.478 534.72 578.104 535.28C577.731 535.84 577.544 536.54 577.544 537.38C577.544 539.013 578.081 540.157 579.154 540.81C580.274 541.417 581.791 541.72 583.704 541.72ZM582.864 511.2C585.944 511.2 588.511 511.55 590.564 512.25C592.618 512.95 594.251 513.953 595.464 515.26C596.724 516.567 597.611 518.153 598.124 520.02C598.638 521.887 598.894 523.963 598.894 526.25V547.95C597.401 548.277 595.324 548.65 592.664 549.07C590.004 549.537 586.784 549.77 583.004 549.77C580.624 549.77 578.454 549.56 576.494 549.14C574.581 548.72 572.924 548.043 571.524 547.11C570.124 546.13 569.051 544.87 568.304 543.33C567.558 541.79 567.184 539.9 567.184 537.66C567.184 535.513 567.604 533.693 568.444 532.2C569.331 530.707 570.498 529.517 571.944 528.63C573.391 527.743 575.048 527.113 576.914 526.74C578.781 526.32 580.718 526.11 582.724 526.11C584.078 526.11 585.268 526.18 586.294 526.32C587.368 526.413 588.231 526.553 588.884 526.74V525.76C588.884 523.987 588.348 522.563 587.274 521.49C586.201 520.417 584.334 519.88 581.674 519.88C579.901 519.88 578.151 520.02 576.424 520.3C574.698 520.533 573.204 520.883 571.944 521.35L570.614 512.95C571.221 512.763 571.968 512.577 572.854 512.39C573.788 512.157 574.791 511.97 575.864 511.83C576.938 511.643 578.058 511.503 579.224 511.41C580.438 511.27 581.651 511.2 582.864 511.2ZM596.584 499.37C596.304 500.07 595.908 500.84 595.394 501.68C594.928 502.52 594.344 503.313 593.644 504.06C592.944 504.76 592.151 505.343 591.264 505.81C590.378 506.277 589.398 506.51 588.324 506.51C587.484 506.51 586.691 506.393 585.944 506.16C585.244 505.88 584.544 505.6 583.844 505.32C583.144 504.993 582.444 504.713 581.744 504.48C581.044 504.2 580.321 504.06 579.574 504.06C578.641 504.06 577.871 504.363 577.264 504.97C576.658 505.577 576.168 506.277 575.794 507.07L570.684 503.71C570.964 503.01 571.338 502.24 571.804 501.4C572.318 500.56 572.924 499.79 573.624 499.09C574.324 498.343 575.118 497.737 576.004 497.27C576.891 496.803 577.871 496.57 578.944 496.57C579.784 496.57 580.554 496.71 581.254 496.99C582.001 497.223 582.724 497.503 583.424 497.83C584.124 498.11 584.801 498.39 585.454 498.67C586.154 498.903 586.901 499.02 587.694 499.02C588.628 499.02 589.398 498.717 590.004 498.11C590.611 497.503 591.101 496.803 591.474 496.01L596.584 499.37ZM642.766 530.52C642.766 533.413 642.346 536.073 641.506 538.5C640.666 540.88 639.452 542.933 637.866 544.66C636.279 546.34 634.366 547.647 632.126 548.58C629.932 549.513 627.459 549.98 624.706 549.98C621.999 549.98 619.526 549.513 617.286 548.58C615.092 547.647 613.202 546.34 611.616 544.66C610.029 542.933 608.792 540.88 607.906 538.5C607.019 536.073 606.576 533.413 606.576 530.52C606.576 527.627 607.019 524.99 607.906 522.61C608.839 520.23 610.099 518.2 611.686 516.52C613.319 514.84 615.232 513.533 617.426 512.6C619.666 511.667 622.092 511.2 624.706 511.2C627.366 511.2 629.792 511.667 631.986 512.6C634.226 513.533 636.139 514.84 637.726 516.52C639.312 518.2 640.549 520.23 641.436 522.61C642.322 524.99 642.766 527.627 642.766 530.52ZM632.126 530.52C632.126 527.3 631.472 524.78 630.166 522.96C628.906 521.093 627.086 520.16 624.706 520.16C622.326 520.16 620.482 521.093 619.176 522.96C617.869 524.78 617.216 527.3 617.216 530.52C617.216 533.74 617.869 536.307 619.176 538.22C620.482 540.087 622.326 541.02 624.706 541.02C627.086 541.02 628.906 540.087 630.166 538.22C631.472 536.307 632.126 533.74 632.126 530.52ZM667.312 503.01L677.742 501.33V512.18H690.272V520.86H677.742V533.81C677.742 536.003 678.115 537.753 678.862 539.06C679.655 540.367 681.218 541.02 683.552 541.02C684.672 541.02 685.815 540.927 686.982 540.74C688.195 540.507 689.292 540.203 690.272 539.83L691.742 547.95C690.482 548.463 689.082 548.907 687.542 549.28C686.002 549.653 684.112 549.84 681.872 549.84C679.025 549.84 676.668 549.467 674.802 548.72C672.935 547.927 671.442 546.853 670.322 545.5C669.202 544.1 668.408 542.42 667.942 540.46C667.522 538.5 667.312 536.33 667.312 533.95V503.01ZM695.648 530.87C695.648 527.603 696.138 524.757 697.118 522.33C698.145 519.857 699.475 517.803 701.108 516.17C702.741 514.537 704.608 513.3 706.708 512.46C708.855 511.62 711.048 511.2 713.288 511.2C718.515 511.2 722.645 512.81 725.678 516.03C728.711 519.203 730.228 523.893 730.228 530.1C730.228 530.707 730.205 531.383 730.158 532.13C730.111 532.83 730.065 533.46 730.018 534.02H706.358C706.591 536.167 707.595 537.87 709.368 539.13C711.141 540.39 713.521 541.02 716.508 541.02C718.421 541.02 720.288 540.857 722.108 540.53C723.975 540.157 725.491 539.713 726.658 539.2L728.058 547.67C727.498 547.95 726.751 548.23 725.818 548.51C724.885 548.79 723.835 549.023 722.668 549.21C721.548 549.443 720.335 549.63 719.028 549.77C717.721 549.91 716.415 549.98 715.108 549.98C711.795 549.98 708.901 549.49 706.428 548.51C704.001 547.53 701.971 546.2 700.338 544.52C698.751 542.793 697.561 540.763 696.768 538.43C696.021 536.097 695.648 533.577 695.648 530.87ZM720.148 526.88C720.101 525.993 719.938 525.13 719.658 524.29C719.425 523.45 719.028 522.703 718.468 522.05C717.955 521.397 717.278 520.86 716.438 520.44C715.645 520.02 714.641 519.81 713.428 519.81C712.261 519.81 711.258 520.02 710.418 520.44C709.578 520.813 708.878 521.327 708.318 521.98C707.758 522.633 707.315 523.403 706.988 524.29C706.708 525.13 706.498 525.993 706.358 526.88H720.148ZM758.507 529.47C758.507 526.11 758.064 523.73 757.177 522.33C756.337 520.93 754.867 520.23 752.767 520.23C752.114 520.23 751.437 520.277 750.737 520.37C750.037 520.417 749.36 520.487 748.707 520.58V549H738.277V513.44C739.164 513.207 740.19 512.973 741.357 512.74C742.57 512.46 743.83 512.227 745.137 512.04C746.49 511.807 747.867 511.643 749.267 511.55C750.667 511.41 752.044 511.34 753.397 511.34C756.057 511.34 758.204 511.69 759.837 512.39C761.517 513.043 762.894 513.837 763.967 514.77C765.46 513.697 767.164 512.857 769.077 512.25C771.037 511.643 772.834 511.34 774.467 511.34C777.407 511.34 779.81 511.76 781.677 512.6C783.59 513.393 785.107 514.537 786.227 516.03C787.347 517.523 788.117 519.297 788.537 521.35C788.957 523.403 789.167 525.69 789.167 528.21V549H778.737V529.47C778.737 526.11 778.294 523.73 777.407 522.33C776.567 520.93 775.097 520.23 772.997 520.23C772.437 520.23 771.644 520.37 770.617 520.65C769.637 520.93 768.82 521.28 768.167 521.7C768.494 522.773 768.704 523.917 768.797 525.13C768.89 526.297 768.937 527.557 768.937 528.91V549H758.507V529.47ZM835.685 529.47C835.685 526.11 835.241 523.73 834.355 522.33C833.515 520.93 832.045 520.23 829.945 520.23C829.291 520.23 828.615 520.277 827.915 520.37C827.215 520.417 826.538 520.487 825.885 520.58V549H815.455V513.44C816.341 513.207 817.368 512.973 818.535 512.74C819.748 512.46 821.008 512.227 822.315 512.04C823.668 511.807 825.045 511.643 826.445 511.55C827.845 511.41 829.221 511.34 830.575 511.34C833.235 511.34 835.381 511.69 837.015 512.39C838.695 513.043 840.071 513.837 841.145 514.77C842.638 513.697 844.341 512.857 846.255 512.25C848.215 511.643 850.011 511.34 851.645 511.34C854.585 511.34 856.988 511.76 858.855 512.6C860.768 513.393 862.285 514.537 863.405 516.03C864.525 517.523 865.295 519.297 865.715 521.35C866.135 523.403 866.345 525.69 866.345 528.21V549H855.915V529.47C855.915 526.11 855.471 523.73 854.585 522.33C853.745 520.93 852.275 520.23 850.175 520.23C849.615 520.23 848.821 520.37 847.795 520.65C846.815 520.93 845.998 521.28 845.345 521.7C845.671 522.773 845.881 523.917 845.975 525.13C846.068 526.297 846.115 527.557 846.115 528.91V549H835.685V529.47ZM874.066 530.87C874.066 527.603 874.556 524.757 875.536 522.33C876.563 519.857 877.893 517.803 879.526 516.17C881.159 514.537 883.026 513.3 885.126 512.46C887.273 511.62 889.466 511.2 891.706 511.2C896.933 511.2 901.063 512.81 904.096 516.03C907.129 519.203 908.646 523.893 908.646 530.1C908.646 530.707 908.623 531.383 908.576 532.13C908.529 532.83 908.483 533.46 908.436 534.02H884.776C885.009 536.167 886.013 537.87 887.786 539.13C889.559 540.39 891.939 541.02 894.926 541.02C896.839 541.02 898.706 540.857 900.526 540.53C902.393 540.157 903.909 539.713 905.076 539.2L906.476 547.67C905.916 547.95 905.169 548.23 904.236 548.51C903.303 548.79 902.253 549.023 901.086 549.21C899.966 549.443 898.753 549.63 897.446 549.77C896.139 549.91 894.833 549.98 893.526 549.98C890.213 549.98 887.319 549.49 884.846 548.51C882.419 547.53 880.389 546.2 878.756 544.52C877.169 542.793 875.979 540.763 875.186 538.43C874.439 536.097 874.066 533.577 874.066 530.87ZM898.566 526.88C898.519 525.993 898.356 525.13 898.076 524.29C897.843 523.45 897.446 522.703 896.886 522.05C896.373 521.397 895.696 520.86 894.856 520.44C894.063 520.02 893.059 519.81 891.846 519.81C890.679 519.81 889.676 520.02 888.836 520.44C887.996 520.813 887.296 521.327 886.736 521.98C886.176 522.633 885.733 523.403 885.406 524.29C885.126 525.13 884.916 525.993 884.776 526.88H898.566ZM900.176 498.95L888.626 508.68L883.866 504.41L893.806 493.07L900.176 498.95ZM916.345 503.01L926.775 501.33V512.18H939.305V520.86H926.775V533.81C926.775 536.003 927.148 537.753 927.895 539.06C928.688 540.367 930.252 541.02 932.585 541.02C933.705 541.02 934.848 540.927 936.015 540.74C937.228 540.507 938.325 540.203 939.305 539.83L940.775 547.95C939.515 548.463 938.115 548.907 936.575 549.28C935.035 549.653 933.145 549.84 930.905 549.84C928.058 549.84 925.702 549.467 923.835 548.72C921.968 547.927 920.475 546.853 919.355 545.5C918.235 544.1 917.442 542.42 916.975 540.46C916.555 538.5 916.345 536.33 916.345 533.95V503.01ZM980.871 530.52C980.871 533.413 980.451 536.073 979.611 538.5C978.771 540.88 977.558 542.933 975.971 544.66C974.385 546.34 972.471 547.647 970.231 548.58C968.038 549.513 965.565 549.98 962.811 549.98C960.105 549.98 957.631 549.513 955.391 548.58C953.198 547.647 951.308 546.34 949.721 544.66C948.135 542.933 946.898 540.88 946.011 538.5C945.125 536.073 944.681 533.413 944.681 530.52C944.681 527.627 945.125 524.99 946.011 522.61C946.945 520.23 948.205 518.2 949.791 516.52C951.425 514.84 953.338 513.533 955.531 512.6C957.771 511.667 960.198 511.2 962.811 511.2C965.471 511.2 967.898 511.667 970.091 512.6C972.331 513.533 974.245 514.84 975.831 516.52C977.418 518.2 978.655 520.23 979.541 522.61C980.428 524.99 980.871 527.627 980.871 530.52ZM970.231 530.52C970.231 527.3 969.578 524.78 968.271 522.96C967.011 521.093 965.191 520.16 962.811 520.16C960.431 520.16 958.588 521.093 957.281 522.96C955.975 524.78 955.321 527.3 955.321 530.52C955.321 533.74 955.975 536.307 957.281 538.22C958.588 540.087 960.431 541.02 962.811 541.02C965.191 541.02 967.011 540.087 968.271 538.22C969.578 536.307 970.231 533.74 970.231 530.52ZM997.841 530.31C997.841 533.53 998.564 536.12 1000.01 538.08C1001.46 540.04 1003.6 541.02 1006.45 541.02C1007.38 541.02 1008.25 540.997 1009.04 540.95C1009.83 540.857 1010.49 540.763 1011 540.67V521.7C1010.35 521.28 1009.48 520.93 1008.41 520.65C1007.38 520.37 1006.33 520.23 1005.26 520.23C1000.31 520.23 997.841 523.59 997.841 530.31ZM1021.43 547.81C1020.5 548.09 1019.42 548.37 1018.21 548.65C1017 548.883 1015.71 549.093 1014.36 549.28C1013.05 549.467 1011.7 549.607 1010.3 549.7C1008.95 549.84 1007.64 549.91 1006.38 549.91C1003.35 549.91 1000.64 549.467 998.261 548.58C995.881 547.693 993.874 546.433 992.241 544.8C990.607 543.12 989.347 541.113 988.461 538.78C987.621 536.4 987.201 533.74 987.201 530.8C987.201 527.813 987.574 525.13 988.321 522.75C989.067 520.323 990.141 518.27 991.541 516.59C992.941 514.91 994.644 513.627 996.651 512.74C998.704 511.853 1001.04 511.41 1003.65 511.41C1005.1 511.41 1006.38 511.55 1007.5 511.83C1008.67 512.11 1009.83 512.507 1011 513.02V496.36L1021.43 494.68V547.81ZM1065.64 530.52C1065.64 533.413 1065.22 536.073 1064.38 538.5C1063.54 540.88 1062.32 542.933 1060.74 544.66C1059.15 546.34 1057.24 547.647 1055 548.58C1052.8 549.513 1050.33 549.98 1047.58 549.98C1044.87 549.98 1042.4 549.513 1040.16 548.58C1037.96 547.647 1036.07 546.34 1034.49 544.66C1032.9 542.933 1031.66 540.88 1030.78 538.5C1029.89 536.073 1029.45 533.413 1029.45 530.52C1029.45 527.627 1029.89 524.99 1030.78 522.61C1031.71 520.23 1032.97 518.2 1034.56 516.52C1036.19 514.84 1038.1 513.533 1040.3 512.6C1042.54 511.667 1044.96 511.2 1047.58 511.2C1050.24 511.2 1052.66 511.667 1054.86 512.6C1057.1 513.533 1059.01 514.84 1060.6 516.52C1062.18 518.2 1063.42 520.23 1064.31 522.61C1065.19 524.99 1065.64 527.627 1065.64 530.52ZM1055 530.52C1055 527.3 1054.34 524.78 1053.04 522.96C1051.78 521.093 1049.96 520.16 1047.58 520.16C1045.2 520.16 1043.35 521.093 1042.05 522.96C1040.74 524.78 1040.09 527.3 1040.09 530.52C1040.09 533.74 1040.74 536.307 1042.05 538.22C1043.35 540.087 1045.2 541.02 1047.58 541.02C1049.96 541.02 1051.78 540.087 1053.04 538.22C1054.34 536.307 1055 533.74 1055 530.52Z" fill="white"/>
<path d="M875.035 479H864.605V442.18H875.035V479ZM876.015 431.54C876.015 433.453 875.385 434.97 874.125 436.09C872.912 437.163 871.465 437.7 869.785 437.7C868.105 437.7 866.635 437.163 865.375 436.09C864.162 434.97 863.555 433.453 863.555 431.54C863.555 429.627 864.162 428.133 865.375 427.06C866.635 425.94 868.105 425.38 869.785 425.38C871.465 425.38 872.912 425.94 874.125 427.06C875.385 428.133 876.015 429.627 876.015 431.54ZM884.839 443.44C886.613 442.927 888.899 442.46 891.699 442.04C894.499 441.573 897.439 441.34 900.519 441.34C903.646 441.34 906.236 441.76 908.289 442.6C910.389 443.393 912.046 444.537 913.259 446.03C914.473 447.523 915.336 449.297 915.849 451.35C916.363 453.403 916.619 455.69 916.619 458.21V479H906.189V459.47C906.189 456.11 905.746 453.73 904.859 452.33C903.973 450.93 902.316 450.23 899.889 450.23C899.143 450.23 898.349 450.277 897.509 450.37C896.669 450.417 895.923 450.487 895.269 450.58V479H884.839V443.44ZM936.63 471.51C938.543 471.51 939.897 471.323 940.69 470.95C941.483 470.577 941.88 469.853 941.88 468.78C941.88 467.94 941.367 467.217 940.34 466.61C939.313 465.957 937.75 465.233 935.65 464.44C934.017 463.833 932.523 463.203 931.17 462.55C929.863 461.897 928.743 461.127 927.81 460.24C926.877 459.307 926.153 458.21 925.64 456.95C925.127 455.69 924.87 454.173 924.87 452.4C924.87 448.947 926.153 446.217 928.72 444.21C931.287 442.203 934.81 441.2 939.29 441.2C941.53 441.2 943.677 441.41 945.73 441.83C947.783 442.203 949.417 442.623 950.63 443.09L948.81 451.21C947.597 450.79 946.267 450.417 944.82 450.09C943.42 449.763 941.833 449.6 940.06 449.6C936.793 449.6 935.16 450.51 935.16 452.33C935.16 452.75 935.23 453.123 935.37 453.45C935.51 453.777 935.79 454.103 936.21 454.43C936.63 454.71 937.19 455.037 937.89 455.41C938.637 455.737 939.57 456.11 940.69 456.53C942.977 457.37 944.867 458.21 946.36 459.05C947.853 459.843 949.02 460.73 949.86 461.71C950.747 462.643 951.353 463.693 951.68 464.86C952.053 466.027 952.24 467.38 952.24 468.92C952.24 472.56 950.863 475.313 948.11 477.18C945.403 479.047 941.553 479.98 936.56 479.98C933.293 479.98 930.563 479.7 928.37 479.14C926.223 478.58 924.73 478.113 923.89 477.74L925.64 469.27C927.413 469.97 929.233 470.53 931.1 470.95C932.967 471.323 934.81 471.51 936.63 471.51ZM970.465 479H960.035V442.18H970.465V479ZM971.445 431.54C971.445 433.453 970.815 434.97 969.555 436.09C968.341 437.163 966.895 437.7 965.215 437.7C963.535 437.7 962.065 437.163 960.805 436.09C959.591 434.97 958.985 433.453 958.985 431.54C958.985 429.627 959.591 428.133 960.805 427.06C962.065 425.94 963.535 425.38 965.215 425.38C966.895 425.38 968.341 425.94 969.555 427.06C970.815 428.133 971.445 429.627 971.445 431.54ZM989.159 459.4C989.159 465.233 991.516 468.15 996.229 468.15C997.302 468.15 998.306 468.01 999.239 467.73C1000.17 467.45 1000.97 467.123 1001.62 466.75V450.09C1001.11 449.997 1000.5 449.927 999.799 449.88C999.099 449.787 998.282 449.74 997.349 449.74C994.596 449.74 992.542 450.65 991.189 452.47C989.836 454.29 989.159 456.6 989.159 459.4ZM1012.05 474.38C1012.05 480.4 1010.51 484.857 1007.43 487.75C1004.4 490.69 999.682 492.16 993.289 492.16C991.049 492.16 988.809 491.95 986.569 491.53C984.329 491.157 982.252 490.643 980.339 489.99L982.159 481.24C983.792 481.893 985.496 482.407 987.269 482.78C989.089 483.153 991.142 483.34 993.429 483.34C996.416 483.34 998.516 482.687 999.729 481.38C1000.99 480.073 1001.62 478.393 1001.62 476.34V475.01C1000.5 475.523 999.332 475.92 998.119 476.2C996.952 476.433 995.669 476.55 994.269 476.55C989.182 476.55 985.286 475.057 982.579 472.07C979.872 469.037 978.519 464.813 978.519 459.4C978.519 456.693 978.939 454.243 979.779 452.05C980.619 449.81 981.832 447.897 983.419 446.31C985.052 444.723 987.036 443.51 989.369 442.67C991.702 441.783 994.339 441.34 997.279 441.34C998.539 441.34 999.822 441.41 1001.13 441.55C1002.48 441.643 1003.81 441.783 1005.12 441.97C1006.43 442.157 1007.66 442.39 1008.83 442.67C1010.04 442.903 1011.12 443.16 1012.05 443.44V474.38ZM1021.83 479V426.36L1032.26 424.68V442.32C1032.96 442.087 1033.85 441.877 1034.92 441.69C1036.04 441.457 1037.11 441.34 1038.14 441.34C1041.13 441.34 1043.6 441.76 1045.56 442.6C1047.57 443.393 1049.15 444.537 1050.32 446.03C1051.53 447.523 1052.37 449.297 1052.84 451.35C1053.35 453.403 1053.61 455.69 1053.61 458.21V479H1043.18V459.47C1043.18 456.11 1042.74 453.73 1041.85 452.33C1041.01 450.93 1039.42 450.23 1037.09 450.23C1036.16 450.23 1035.27 450.323 1034.43 450.51C1033.64 450.65 1032.91 450.813 1032.26 451V479H1021.83ZM1062.7 433.01L1073.13 431.33V442.18H1085.66V450.86H1073.13V463.81C1073.13 466.003 1073.51 467.753 1074.25 469.06C1075.05 470.367 1076.61 471.02 1078.94 471.02C1080.06 471.02 1081.21 470.927 1082.37 470.74C1083.59 470.507 1084.68 470.203 1085.66 469.83L1087.13 477.95C1085.87 478.463 1084.47 478.907 1082.93 479.28C1081.39 479.653 1079.5 479.84 1077.26 479.84C1074.42 479.84 1072.06 479.467 1070.19 478.72C1068.33 477.927 1066.83 476.853 1065.71 475.5C1064.59 474.1 1063.8 472.42 1063.33 470.46C1062.91 468.5 1062.7 466.33 1062.7 463.95V433.01Z" fill="#FFA24B"/>
<path d="M70.6967 490.697C67.7678 493.626 67.7678 498.374 70.6967 501.303L118.426 549.033C121.355 551.962 126.104 551.962 129.033 549.033C131.962 546.104 131.962 541.355 129.033 538.426L86.6066 496L129.033 453.574C131.962 450.645 131.962 445.896 129.033 442.967C126.104 440.038 121.355 440.038 118.426 442.967L70.6967 490.697ZM303 488.5H76V503.5H303V488.5Z" fill="#4C4A4A"/>
</g>
<defs>
<clipPath id="clip0_104_403">
<rect width="1300" height="976" fill="white"/>
</clipPath>
</defs>
</svg>
