<svg width="1300" height="976" viewBox="0 0 1300 976" fill="none" xmlns="http://www.w3.org/2000/svg">
<g clip-path="url(#clip0_104_281)">
<path d="M147.33 442.74C145.557 443.253 143.27 443.72 140.47 444.14C137.67 444.607 134.73 444.84 131.65 444.84C128.523 444.84 125.91 444.42 123.81 443.58C121.757 442.74 120.123 441.573 118.91 440.08C117.697 438.54 116.833 436.72 116.32 434.62C115.807 432.52 115.55 430.21 115.55 427.69V407.18H125.98V426.43C125.98 429.79 126.423 432.217 127.31 433.71C128.197 435.203 129.853 435.95 132.28 435.95C133.027 435.95 133.82 435.927 134.66 435.88C135.5 435.787 136.247 435.693 136.9 435.6V407.18H147.33V442.74ZM171.751 418.38L179.031 407.18H189.811L177.211 424.89C180.011 428.39 182.554 431.797 184.841 435.11C187.127 438.423 188.947 441.387 190.301 444H179.101C178.727 443.3 178.261 442.437 177.701 441.41C177.141 440.337 176.511 439.24 175.811 438.12C175.111 436.953 174.364 435.81 173.571 434.69C172.824 433.523 172.077 432.473 171.331 431.54C170.631 432.427 169.907 433.407 169.161 434.48C168.461 435.553 167.784 436.65 167.131 437.77C166.477 438.843 165.824 439.917 165.171 440.99C164.564 442.063 164.027 443.067 163.561 444H152.921C153.481 442.833 154.251 441.457 155.231 439.87C156.211 438.283 157.261 436.65 158.381 434.97C159.547 433.243 160.761 431.54 162.021 429.86C163.281 428.133 164.517 426.523 165.731 425.03C163.631 422.09 161.531 419.127 159.431 416.14C157.331 413.107 155.254 410.12 153.201 407.18H164.471L171.751 418.38Z" fill="#FFA24B"/>
<path d="M210.947 425.87C210.947 422.603 211.437 419.757 212.417 417.33C213.444 414.857 214.774 412.803 216.407 411.17C218.04 409.537 219.907 408.3 222.007 407.46C224.154 406.62 226.347 406.2 228.587 406.2C233.814 406.2 237.944 407.81 240.977 411.03C244.01 414.203 245.527 418.893 245.527 425.1C245.527 425.707 245.504 426.383 245.457 427.13C245.41 427.83 245.364 428.46 245.317 429.02H221.657C221.89 431.167 222.894 432.87 224.667 434.13C226.44 435.39 228.82 436.02 231.807 436.02C233.72 436.02 235.587 435.857 237.407 435.53C239.274 435.157 240.79 434.713 241.957 434.2L243.357 442.67C242.797 442.95 242.05 443.23 241.117 443.51C240.184 443.79 239.134 444.023 237.967 444.21C236.847 444.443 235.634 444.63 234.327 444.77C233.02 444.91 231.714 444.98 230.407 444.98C227.094 444.98 224.2 444.49 221.727 443.51C219.3 442.53 217.27 441.2 215.637 439.52C214.05 437.793 212.86 435.763 212.067 433.43C211.32 431.097 210.947 428.577 210.947 425.87ZM235.447 421.88C235.4 420.993 235.237 420.13 234.957 419.29C234.724 418.45 234.327 417.703 233.767 417.05C233.254 416.397 232.577 415.86 231.737 415.44C230.944 415.02 229.94 414.81 228.727 414.81C227.56 414.81 226.557 415.02 225.717 415.44C224.877 415.813 224.177 416.327 223.617 416.98C223.057 417.633 222.614 418.403 222.287 419.29C222.007 420.13 221.797 420.993 221.657 421.88H235.447ZM237.057 393.95L225.507 403.68L220.747 399.41L230.687 388.07L237.057 393.95ZM301.822 442.74C300.049 443.253 297.762 443.72 294.962 444.14C292.162 444.607 289.222 444.84 286.142 444.84C283.016 444.84 280.402 444.42 278.302 443.58C276.249 442.74 274.616 441.573 273.402 440.08C272.189 438.54 271.326 436.72 270.812 434.62C270.299 432.52 270.042 430.21 270.042 427.69V407.18H280.472V426.43C280.472 429.79 280.916 432.217 281.802 433.71C282.689 435.203 284.346 435.95 286.772 435.95C287.519 435.95 288.312 435.927 289.152 435.88C289.992 435.787 290.739 435.693 291.392 435.6V407.18H301.822V442.74ZM331.843 424.47C331.843 421.11 331.4 418.73 330.513 417.33C329.673 415.93 328.203 415.23 326.103 415.23C325.45 415.23 324.773 415.277 324.073 415.37C323.373 415.417 322.696 415.487 322.043 415.58V444H311.613V408.44C312.5 408.207 313.526 407.973 314.693 407.74C315.906 407.46 317.166 407.227 318.473 407.04C319.826 406.807 321.203 406.643 322.603 406.55C324.003 406.41 325.38 406.34 326.733 406.34C329.393 406.34 331.54 406.69 333.173 407.39C334.853 408.043 336.23 408.837 337.303 409.77C338.796 408.697 340.5 407.857 342.413 407.25C344.373 406.643 346.17 406.34 347.803 406.34C350.743 406.34 353.146 406.76 355.013 407.6C356.926 408.393 358.443 409.537 359.563 411.03C360.683 412.523 361.453 414.297 361.873 416.35C362.293 418.403 362.503 420.69 362.503 423.21V444H352.073V424.47C352.073 421.11 351.63 418.73 350.743 417.33C349.903 415.93 348.433 415.23 346.333 415.23C345.773 415.23 344.98 415.37 343.953 415.65C342.973 415.93 342.156 416.28 341.503 416.7C341.83 417.773 342.04 418.917 342.133 420.13C342.226 421.297 342.273 422.557 342.273 423.91V444H331.843V424.47ZM387.041 425.59C387.041 422.93 387.461 420.433 388.301 418.1C389.187 415.72 390.447 413.667 392.081 411.94C393.714 410.167 395.697 408.767 398.031 407.74C400.364 406.713 403.024 406.2 406.011 406.2C407.971 406.2 409.767 406.387 411.401 406.76C413.034 407.087 414.621 407.577 416.161 408.23L413.991 416.56C413.011 416.187 411.937 415.86 410.771 415.58C409.604 415.3 408.297 415.16 406.851 415.16C403.771 415.16 401.461 416.117 399.921 418.03C398.427 419.943 397.681 422.463 397.681 425.59C397.681 428.903 398.381 431.47 399.781 433.29C401.227 435.11 403.724 436.02 407.271 436.02C408.531 436.02 409.884 435.903 411.331 435.67C412.777 435.437 414.107 435.063 415.321 434.55L416.791 443.09C415.577 443.603 414.061 444.047 412.241 444.42C410.421 444.793 408.414 444.98 406.221 444.98C402.861 444.98 399.967 444.49 397.541 443.51C395.114 442.483 393.107 441.107 391.521 439.38C389.981 437.653 388.837 435.623 388.091 433.29C387.391 430.91 387.041 428.343 387.041 425.59ZM456.453 425.52C456.453 428.413 456.033 431.073 455.193 433.5C454.353 435.88 453.14 437.933 451.553 439.66C449.967 441.34 448.053 442.647 445.813 443.58C443.62 444.513 441.147 444.98 438.393 444.98C435.687 444.98 433.213 444.513 430.973 443.58C428.78 442.647 426.89 441.34 425.303 439.66C423.717 437.933 422.48 435.88 421.593 433.5C420.707 431.073 420.263 428.413 420.263 425.52C420.263 422.627 420.707 419.99 421.593 417.61C422.527 415.23 423.787 413.2 425.373 411.52C427.007 409.84 428.92 408.533 431.113 407.6C433.353 406.667 435.78 406.2 438.393 406.2C441.053 406.2 443.48 406.667 445.673 407.6C447.913 408.533 449.827 409.84 451.413 411.52C453 413.2 454.237 415.23 455.123 417.61C456.01 419.99 456.453 422.627 456.453 425.52ZM445.813 425.52C445.813 422.3 445.16 419.78 443.853 417.96C442.593 416.093 440.773 415.16 438.393 415.16C436.013 415.16 434.17 416.093 432.863 417.96C431.557 419.78 430.903 422.3 430.903 425.52C430.903 428.74 431.557 431.307 432.863 433.22C434.17 435.087 436.013 436.02 438.393 436.02C440.773 436.02 442.593 435.087 443.853 433.22C445.16 431.307 445.813 428.74 445.813 425.52ZM464.533 408.44C466.306 407.927 468.593 407.46 471.393 407.04C474.193 406.573 477.133 406.34 480.213 406.34C483.339 406.34 485.929 406.76 487.983 407.6C490.083 408.393 491.739 409.537 492.953 411.03C494.166 412.523 495.029 414.297 495.543 416.35C496.056 418.403 496.313 420.69 496.313 423.21V444H485.883V424.47C485.883 421.11 485.439 418.73 484.553 417.33C483.666 415.93 482.009 415.23 479.583 415.23C478.836 415.23 478.043 415.277 477.203 415.37C476.363 415.417 475.616 415.487 474.963 415.58V444H464.533V408.44ZM504.004 425.59C504.004 422.93 504.424 420.433 505.264 418.1C506.15 415.72 507.41 413.667 509.044 411.94C510.677 410.167 512.66 408.767 514.994 407.74C517.327 406.713 519.987 406.2 522.974 406.2C524.934 406.2 526.73 406.387 528.364 406.76C529.997 407.087 531.584 407.577 533.124 408.23L530.954 416.56C529.974 416.187 528.9 415.86 527.734 415.58C526.567 415.3 525.26 415.16 523.814 415.16C520.734 415.16 518.424 416.117 516.884 418.03C515.39 419.943 514.644 422.463 514.644 425.59C514.644 428.903 515.344 431.47 516.744 433.29C518.19 435.11 520.687 436.02 524.234 436.02C525.494 436.02 526.847 435.903 528.294 435.67C529.74 435.437 531.07 435.063 532.284 434.55L533.754 443.09C532.54 443.603 531.024 444.047 529.204 444.42C527.384 444.793 525.377 444.98 523.184 444.98C519.824 444.98 516.93 444.49 514.504 443.51C512.077 442.483 510.07 441.107 508.484 439.38C506.944 437.653 505.8 435.623 505.054 433.29C504.354 430.91 504.004 428.343 504.004 425.59ZM537.226 425.87C537.226 422.603 537.716 419.757 538.696 417.33C539.723 414.857 541.053 412.803 542.686 411.17C544.32 409.537 546.186 408.3 548.286 407.46C550.433 406.62 552.626 406.2 554.866 406.2C560.093 406.2 564.223 407.81 567.256 411.03C570.29 414.203 571.806 418.893 571.806 425.1C571.806 425.707 571.783 426.383 571.736 427.13C571.69 427.83 571.643 428.46 571.596 429.02H547.936C548.17 431.167 549.173 432.87 550.946 434.13C552.72 435.39 555.1 436.02 558.086 436.02C560 436.02 561.866 435.857 563.686 435.53C565.553 435.157 567.07 434.713 568.236 434.2L569.636 442.67C569.076 442.95 568.33 443.23 567.396 443.51C566.463 443.79 565.413 444.023 564.246 444.21C563.126 444.443 561.913 444.63 560.606 444.77C559.3 444.91 557.993 444.98 556.686 444.98C553.373 444.98 550.48 444.49 548.006 443.51C545.58 442.53 543.55 441.2 541.916 439.52C540.33 437.793 539.14 435.763 538.346 433.43C537.6 431.097 537.226 428.577 537.226 425.87ZM561.726 421.88C561.68 420.993 561.516 420.13 561.236 419.29C561.003 418.45 560.606 417.703 560.046 417.05C559.533 416.397 558.856 415.86 558.016 415.44C557.223 415.02 556.22 414.81 555.006 414.81C553.84 414.81 552.836 415.02 551.996 415.44C551.156 415.813 550.456 416.327 549.896 416.98C549.336 417.633 548.893 418.403 548.566 419.29C548.286 420.13 548.076 420.993 547.936 421.88H561.726ZM590.285 444H579.855V407.18H590.285V444ZM591.265 396.54C591.265 398.453 590.635 399.97 589.375 401.09C588.162 402.163 586.715 402.7 585.035 402.7C583.355 402.7 581.885 402.163 580.625 401.09C579.412 399.97 578.805 398.453 578.805 396.54C578.805 394.627 579.412 393.133 580.625 392.06C581.885 390.94 583.355 390.38 585.035 390.38C586.715 390.38 588.162 390.94 589.375 392.06C590.635 393.133 591.265 394.627 591.265 396.54ZM599.739 398.01L610.169 396.33V407.18H622.699V415.86H610.169V428.81C610.169 431.003 610.543 432.753 611.289 434.06C612.083 435.367 613.646 436.02 615.979 436.02C617.099 436.02 618.243 435.927 619.409 435.74C620.623 435.507 621.719 435.203 622.699 434.83L624.169 442.95C622.909 443.463 621.509 443.907 619.969 444.28C618.429 444.653 616.539 444.84 614.299 444.84C611.453 444.84 609.096 444.467 607.229 443.72C605.363 442.927 603.869 441.853 602.749 440.5C601.629 439.1 600.836 437.42 600.369 435.46C599.949 433.5 599.739 431.33 599.739 428.95V398.01ZM664.266 425.52C664.266 428.413 663.846 431.073 663.006 433.5C662.166 435.88 660.952 437.933 659.366 439.66C657.779 441.34 655.866 442.647 653.626 443.58C651.432 444.513 648.959 444.98 646.206 444.98C643.499 444.98 641.026 444.513 638.786 443.58C636.592 442.647 634.702 441.34 633.116 439.66C631.529 437.933 630.292 435.88 629.406 433.5C628.519 431.073 628.076 428.413 628.076 425.52C628.076 422.627 628.519 419.99 629.406 417.61C630.339 415.23 631.599 413.2 633.186 411.52C634.819 409.84 636.732 408.533 638.926 407.6C641.166 406.667 643.592 406.2 646.206 406.2C648.866 406.2 651.292 406.667 653.486 407.6C655.726 408.533 657.639 409.84 659.226 411.52C660.812 413.2 662.049 415.23 662.936 417.61C663.822 419.99 664.266 422.627 664.266 425.52ZM653.626 425.52C653.626 422.3 652.972 419.78 651.666 417.96C650.406 416.093 648.586 415.16 646.206 415.16C643.826 415.16 641.982 416.093 640.676 417.96C639.369 419.78 638.716 422.3 638.716 425.52C638.716 428.74 639.369 431.307 640.676 433.22C641.982 435.087 643.826 436.02 646.206 436.02C648.586 436.02 650.406 435.087 651.666 433.22C652.972 431.307 653.626 428.74 653.626 425.52ZM688.812 398.01L699.242 396.33V407.18H711.772V415.86H699.242V428.81C699.242 431.003 699.615 432.753 700.362 434.06C701.155 435.367 702.718 436.02 705.052 436.02C706.172 436.02 707.315 435.927 708.482 435.74C709.695 435.507 710.792 435.203 711.772 434.83L713.242 442.95C711.982 443.463 710.582 443.907 709.042 444.28C707.502 444.653 705.612 444.84 703.372 444.84C700.525 444.84 698.168 444.467 696.302 443.72C694.435 442.927 692.942 441.853 691.822 440.5C690.702 439.1 689.908 437.42 689.442 435.46C689.022 433.5 688.812 431.33 688.812 428.95V398.01ZM732.968 436.72C733.995 436.72 734.975 436.697 735.908 436.65C736.841 436.603 737.588 436.533 738.148 436.44V428.53C737.728 428.437 737.098 428.343 736.258 428.25C735.418 428.157 734.648 428.11 733.948 428.11C732.968 428.11 732.035 428.18 731.148 428.32C730.308 428.413 729.561 428.623 728.908 428.95C728.255 429.277 727.741 429.72 727.368 430.28C726.995 430.84 726.808 431.54 726.808 432.38C726.808 434.013 727.345 435.157 728.418 435.81C729.538 436.417 731.055 436.72 732.968 436.72ZM732.128 406.2C735.208 406.2 737.775 406.55 739.828 407.25C741.881 407.95 743.515 408.953 744.728 410.26C745.988 411.567 746.875 413.153 747.388 415.02C747.901 416.887 748.158 418.963 748.158 421.25V442.95C746.665 443.277 744.588 443.65 741.928 444.07C739.268 444.537 736.048 444.77 732.268 444.77C729.888 444.77 727.718 444.56 725.758 444.14C723.845 443.72 722.188 443.043 720.788 442.11C719.388 441.13 718.315 439.87 717.568 438.33C716.821 436.79 716.448 434.9 716.448 432.66C716.448 430.513 716.868 428.693 717.708 427.2C718.595 425.707 719.761 424.517 721.208 423.63C722.655 422.743 724.311 422.113 726.178 421.74C728.045 421.32 729.981 421.11 731.988 421.11C733.341 421.11 734.531 421.18 735.558 421.32C736.631 421.413 737.495 421.553 738.148 421.74V420.76C738.148 418.987 737.611 417.563 736.538 416.49C735.465 415.417 733.598 414.88 730.938 414.88C729.165 414.88 727.415 415.02 725.688 415.3C723.961 415.533 722.468 415.883 721.208 416.35L719.878 407.95C720.485 407.763 721.231 407.577 722.118 407.39C723.051 407.157 724.055 406.97 725.128 406.83C726.201 406.643 727.321 406.503 728.488 406.41C729.701 406.27 730.915 406.2 732.128 406.2ZM745.848 394.37C745.568 395.07 745.171 395.84 744.658 396.68C744.191 397.52 743.608 398.313 742.908 399.06C742.208 399.76 741.415 400.343 740.528 400.81C739.641 401.277 738.661 401.51 737.588 401.51C736.748 401.51 735.955 401.393 735.208 401.16C734.508 400.88 733.808 400.6 733.108 400.32C732.408 399.993 731.708 399.713 731.008 399.48C730.308 399.2 729.585 399.06 728.838 399.06C727.905 399.06 727.135 399.363 726.528 399.97C725.921 400.577 725.431 401.277 725.058 402.07L719.948 398.71C720.228 398.01 720.601 397.24 721.068 396.4C721.581 395.56 722.188 394.79 722.888 394.09C723.588 393.343 724.381 392.737 725.268 392.27C726.155 391.803 727.135 391.57 728.208 391.57C729.048 391.57 729.818 391.71 730.518 391.99C731.265 392.223 731.988 392.503 732.688 392.83C733.388 393.11 734.065 393.39 734.718 393.67C735.418 393.903 736.165 394.02 736.958 394.02C737.891 394.02 738.661 393.717 739.268 393.11C739.875 392.503 740.365 391.803 740.738 391.01L745.848 394.37ZM792.029 425.52C792.029 428.413 791.609 431.073 790.769 433.5C789.929 435.88 788.716 437.933 787.129 439.66C785.543 441.34 783.629 442.647 781.389 443.58C779.196 444.513 776.723 444.98 773.969 444.98C771.263 444.98 768.789 444.513 766.549 443.58C764.356 442.647 762.466 441.34 760.879 439.66C759.293 437.933 758.056 435.88 757.169 433.5C756.283 431.073 755.839 428.413 755.839 425.52C755.839 422.627 756.283 419.99 757.169 417.61C758.103 415.23 759.363 413.2 760.949 411.52C762.583 409.84 764.496 408.533 766.689 407.6C768.929 406.667 771.356 406.2 773.969 406.2C776.629 406.2 779.056 406.667 781.249 407.6C783.489 408.533 785.403 409.84 786.989 411.52C788.576 413.2 789.813 415.23 790.699 417.61C791.586 419.99 792.029 422.627 792.029 425.52ZM781.389 425.52C781.389 422.3 780.736 419.78 779.429 417.96C778.169 416.093 776.349 415.16 773.969 415.16C771.589 415.16 769.746 416.093 768.439 417.96C767.133 419.78 766.479 422.3 766.479 425.52C766.479 428.74 767.133 431.307 768.439 433.22C769.746 435.087 771.589 436.02 773.969 436.02C776.349 436.02 778.169 435.087 779.429 433.22C780.736 431.307 781.389 428.74 781.389 425.52ZM124.79 495.31C124.79 498.53 125.513 501.12 126.96 503.08C128.407 505.04 130.553 506.02 133.4 506.02C134.333 506.02 135.197 505.997 135.99 505.95C136.783 505.857 137.437 505.763 137.95 505.67V486.7C137.297 486.28 136.433 485.93 135.36 485.65C134.333 485.37 133.283 485.23 132.21 485.23C127.263 485.23 124.79 488.59 124.79 495.31ZM148.38 512.81C147.447 513.09 146.373 513.37 145.16 513.65C143.947 513.883 142.663 514.093 141.31 514.28C140.003 514.467 138.65 514.607 137.25 514.7C135.897 514.84 134.59 514.91 133.33 514.91C130.297 514.91 127.59 514.467 125.21 513.58C122.83 512.693 120.823 511.433 119.19 509.8C117.557 508.12 116.297 506.113 115.41 503.78C114.57 501.4 114.15 498.74 114.15 495.8C114.15 492.813 114.523 490.13 115.27 487.75C116.017 485.323 117.09 483.27 118.49 481.59C119.89 479.91 121.593 478.627 123.6 477.74C125.653 476.853 127.987 476.41 130.6 476.41C132.047 476.41 133.33 476.55 134.45 476.83C135.617 477.11 136.783 477.507 137.95 478.02V461.36L148.38 459.68V512.81ZM156.396 495.87C156.396 492.603 156.886 489.757 157.866 487.33C158.893 484.857 160.223 482.803 161.856 481.17C163.489 479.537 165.356 478.3 167.456 477.46C169.603 476.62 171.796 476.2 174.036 476.2C179.263 476.2 183.393 477.81 186.426 481.03C189.459 484.203 190.976 488.893 190.976 495.1C190.976 495.707 190.953 496.383 190.906 497.13C190.859 497.83 190.813 498.46 190.766 499.02H167.106C167.339 501.167 168.343 502.87 170.116 504.13C171.889 505.39 174.269 506.02 177.256 506.02C179.169 506.02 181.036 505.857 182.856 505.53C184.723 505.157 186.239 504.713 187.406 504.2L188.806 512.67C188.246 512.95 187.499 513.23 186.566 513.51C185.633 513.79 184.583 514.023 183.416 514.21C182.296 514.443 181.083 514.63 179.776 514.77C178.469 514.91 177.163 514.98 175.856 514.98C172.543 514.98 169.649 514.49 167.176 513.51C164.749 512.53 162.719 511.2 161.086 509.52C159.499 507.793 158.309 505.763 157.516 503.43C156.769 501.097 156.396 498.577 156.396 495.87ZM180.896 491.88C180.849 490.993 180.686 490.13 180.406 489.29C180.173 488.45 179.776 487.703 179.216 487.05C178.703 486.397 178.026 485.86 177.186 485.44C176.393 485.02 175.389 484.81 174.176 484.81C173.009 484.81 172.006 485.02 171.166 485.44C170.326 485.813 169.626 486.327 169.066 486.98C168.506 487.633 168.063 488.403 167.736 489.29C167.456 490.13 167.246 490.993 167.106 491.88H180.896ZM209.595 506.51C211.508 506.51 212.862 506.323 213.655 505.95C214.448 505.577 214.845 504.853 214.845 503.78C214.845 502.94 214.332 502.217 213.305 501.61C212.278 500.957 210.715 500.233 208.615 499.44C206.982 498.833 205.488 498.203 204.135 497.55C202.828 496.897 201.708 496.127 200.775 495.24C199.842 494.307 199.118 493.21 198.605 491.95C198.092 490.69 197.835 489.173 197.835 487.4C197.835 483.947 199.118 481.217 201.685 479.21C204.252 477.203 207.775 476.2 212.255 476.2C214.495 476.2 216.642 476.41 218.695 476.83C220.748 477.203 222.382 477.623 223.595 478.09L221.775 486.21C220.562 485.79 219.232 485.417 217.785 485.09C216.385 484.763 214.798 484.6 213.025 484.6C209.758 484.6 208.125 485.51 208.125 487.33C208.125 487.75 208.195 488.123 208.335 488.45C208.475 488.777 208.755 489.103 209.175 489.43C209.595 489.71 210.155 490.037 210.855 490.41C211.602 490.737 212.535 491.11 213.655 491.53C215.942 492.37 217.832 493.21 219.325 494.05C220.818 494.843 221.985 495.73 222.825 496.71C223.712 497.643 224.318 498.693 224.645 499.86C225.018 501.027 225.205 502.38 225.205 503.92C225.205 507.56 223.828 510.313 221.075 512.18C218.368 514.047 214.518 514.98 209.525 514.98C206.258 514.98 203.528 514.7 201.335 514.14C199.188 513.58 197.695 513.113 196.855 512.74L198.605 504.27C200.378 504.97 202.198 505.53 204.065 505.95C205.932 506.323 207.775 506.51 209.595 506.51ZM231.25 495.59C231.25 492.93 231.67 490.433 232.51 488.1C233.396 485.72 234.656 483.667 236.29 481.94C237.923 480.167 239.906 478.767 242.24 477.74C244.573 476.713 247.233 476.2 250.22 476.2C252.18 476.2 253.976 476.387 255.61 476.76C257.243 477.087 258.83 477.577 260.37 478.23L258.2 486.56C257.22 486.187 256.146 485.86 254.98 485.58C253.813 485.3 252.506 485.16 251.06 485.16C247.98 485.16 245.67 486.117 244.13 488.03C242.636 489.943 241.89 492.463 241.89 495.59C241.89 498.903 242.59 501.47 243.99 503.29C245.436 505.11 247.933 506.02 251.48 506.02C252.74 506.02 254.093 505.903 255.54 505.67C256.986 505.437 258.316 505.063 259.53 504.55L261 513.09C259.786 513.603 258.27 514.047 256.45 514.42C254.63 514.793 252.623 514.98 250.43 514.98C247.07 514.98 244.176 514.49 241.75 513.51C239.323 512.483 237.316 511.107 235.73 509.38C234.19 507.653 233.046 505.623 232.3 503.29C231.6 500.91 231.25 498.343 231.25 495.59ZM280.292 506.72C281.319 506.72 282.299 506.697 283.232 506.65C284.166 506.603 284.912 506.533 285.472 506.44V498.53C285.052 498.437 284.422 498.343 283.582 498.25C282.742 498.157 281.972 498.11 281.272 498.11C280.292 498.11 279.359 498.18 278.472 498.32C277.632 498.413 276.886 498.623 276.232 498.95C275.579 499.277 275.066 499.72 274.692 500.28C274.319 500.84 274.132 501.54 274.132 502.38C274.132 504.013 274.669 505.157 275.742 505.81C276.862 506.417 278.379 506.72 280.292 506.72ZM279.452 476.2C282.532 476.2 285.099 476.55 287.152 477.25C289.206 477.95 290.839 478.953 292.052 480.26C293.312 481.567 294.199 483.153 294.712 485.02C295.226 486.887 295.482 488.963 295.482 491.25V512.95C293.989 513.277 291.912 513.65 289.252 514.07C286.592 514.537 283.372 514.77 279.592 514.77C277.212 514.77 275.042 514.56 273.082 514.14C271.169 513.72 269.512 513.043 268.112 512.11C266.712 511.13 265.639 509.87 264.892 508.33C264.146 506.79 263.772 504.9 263.772 502.66C263.772 500.513 264.192 498.693 265.032 497.2C265.919 495.707 267.086 494.517 268.532 493.63C269.979 492.743 271.636 492.113 273.502 491.74C275.369 491.32 277.306 491.11 279.312 491.11C280.666 491.11 281.856 491.18 282.882 491.32C283.956 491.413 284.819 491.553 285.472 491.74V490.76C285.472 488.987 284.936 487.563 283.862 486.49C282.789 485.417 280.922 484.88 278.262 484.88C276.489 484.88 274.739 485.02 273.012 485.3C271.286 485.533 269.792 485.883 268.532 486.35L267.202 477.95C267.809 477.763 268.556 477.577 269.442 477.39C270.376 477.157 271.379 476.97 272.452 476.83C273.526 476.643 274.646 476.503 275.812 476.41C277.026 476.27 278.239 476.2 279.452 476.2ZM327.104 486.42C326.17 486.187 325.074 485.953 323.814 485.72C322.554 485.44 321.2 485.3 319.754 485.3C319.1 485.3 318.307 485.37 317.374 485.51C316.487 485.603 315.81 485.72 315.344 485.86V514H304.914V479.14C306.78 478.487 308.974 477.88 311.494 477.32C314.06 476.713 316.907 476.41 320.034 476.41C320.594 476.41 321.27 476.457 322.064 476.55C322.857 476.597 323.65 476.69 324.444 476.83C325.237 476.923 326.03 477.063 326.824 477.25C327.617 477.39 328.294 477.577 328.854 477.81L327.104 486.42ZM334.095 468.01L344.525 466.33V477.18H357.055V485.86H344.525V498.81C344.525 501.003 344.898 502.753 345.645 504.06C346.438 505.367 348.002 506.02 350.335 506.02C351.455 506.02 352.598 505.927 353.765 505.74C354.978 505.507 356.075 505.203 357.055 504.83L358.525 512.95C357.265 513.463 355.865 513.907 354.325 514.28C352.785 514.653 350.895 514.84 348.655 514.84C345.808 514.84 343.452 514.467 341.585 513.72C339.718 512.927 338.225 511.853 337.105 510.5C335.985 509.1 335.192 507.42 334.725 505.46C334.305 503.5 334.095 501.33 334.095 498.95V468.01ZM378.251 506.72C379.278 506.72 380.258 506.697 381.191 506.65C382.125 506.603 382.871 506.533 383.431 506.44V498.53C383.011 498.437 382.381 498.343 381.541 498.25C380.701 498.157 379.931 498.11 379.231 498.11C378.251 498.11 377.318 498.18 376.431 498.32C375.591 498.413 374.845 498.623 374.191 498.95C373.538 499.277 373.025 499.72 372.651 500.28C372.278 500.84 372.091 501.54 372.091 502.38C372.091 504.013 372.628 505.157 373.701 505.81C374.821 506.417 376.338 506.72 378.251 506.72ZM377.411 476.2C380.491 476.2 383.058 476.55 385.111 477.25C387.165 477.95 388.798 478.953 390.011 480.26C391.271 481.567 392.158 483.153 392.671 485.02C393.185 486.887 393.441 488.963 393.441 491.25V512.95C391.948 513.277 389.871 513.65 387.211 514.07C384.551 514.537 381.331 514.77 377.551 514.77C375.171 514.77 373.001 514.56 371.041 514.14C369.128 513.72 367.471 513.043 366.071 512.11C364.671 511.13 363.598 509.87 362.851 508.33C362.105 506.79 361.731 504.9 361.731 502.66C361.731 500.513 362.151 498.693 362.991 497.2C363.878 495.707 365.045 494.517 366.491 493.63C367.938 492.743 369.595 492.113 371.461 491.74C373.328 491.32 375.265 491.11 377.271 491.11C378.625 491.11 379.815 491.18 380.841 491.32C381.915 491.413 382.778 491.553 383.431 491.74V490.76C383.431 488.987 382.895 487.563 381.821 486.49C380.748 485.417 378.881 484.88 376.221 484.88C374.448 484.88 372.698 485.02 370.971 485.3C369.245 485.533 367.751 485.883 366.491 486.35L365.161 477.95C365.768 477.763 366.515 477.577 367.401 477.39C368.335 477.157 369.338 476.97 370.411 476.83C371.485 476.643 372.605 476.503 373.771 476.41C374.985 476.27 376.198 476.2 377.411 476.2ZM387.071 463.95L375.521 473.68L370.761 469.41L380.701 458.07L387.071 463.95ZM411.994 514C409.614 509.333 407.187 503.873 404.714 497.62C402.287 491.367 399.977 484.553 397.784 477.18H408.844C409.311 479 409.847 480.983 410.454 483.13C411.107 485.23 411.761 487.377 412.414 489.57C413.114 491.717 413.791 493.817 414.444 495.87C415.144 497.923 415.821 499.79 416.474 501.47C417.081 499.79 417.734 497.923 418.434 495.87C419.134 493.817 419.811 491.717 420.464 489.57C421.164 487.377 421.817 485.23 422.424 483.13C423.077 480.983 423.637 479 424.104 477.18H434.884C432.691 484.553 430.357 491.367 427.884 497.62C425.457 503.873 423.054 509.333 420.674 514H411.994ZM437.763 495.87C437.763 492.603 438.253 489.757 439.233 487.33C440.26 484.857 441.59 482.803 443.223 481.17C444.857 479.537 446.723 478.3 448.823 477.46C450.97 476.62 453.163 476.2 455.403 476.2C460.63 476.2 464.76 477.81 467.793 481.03C470.827 484.203 472.343 488.893 472.343 495.1C472.343 495.707 472.32 496.383 472.273 497.13C472.227 497.83 472.18 498.46 472.133 499.02H448.473C448.707 501.167 449.71 502.87 451.483 504.13C453.257 505.39 455.637 506.02 458.623 506.02C460.537 506.02 462.403 505.857 464.223 505.53C466.09 505.157 467.607 504.713 468.773 504.2L470.173 512.67C469.613 512.95 468.867 513.23 467.933 513.51C467 513.79 465.95 514.023 464.783 514.21C463.663 514.443 462.45 514.63 461.143 514.77C459.837 514.91 458.53 514.98 457.223 514.98C453.91 514.98 451.017 514.49 448.543 513.51C446.117 512.53 444.087 511.2 442.453 509.52C440.867 507.793 439.677 505.763 438.883 503.43C438.137 501.097 437.763 498.577 437.763 495.87ZM462.263 491.88C462.217 490.993 462.053 490.13 461.773 489.29C461.54 488.45 461.143 487.703 460.583 487.05C460.07 486.397 459.393 485.86 458.553 485.44C457.76 485.02 456.757 484.81 455.543 484.81C454.377 484.81 453.373 485.02 452.533 485.44C451.693 485.813 450.993 486.327 450.433 486.98C449.873 487.633 449.43 488.403 449.103 489.29C448.823 490.13 448.613 490.993 448.473 491.88H462.263ZM495.092 514.7C492.059 514.653 489.586 514.327 487.672 513.72C485.806 513.113 484.312 512.273 483.192 511.2C482.119 510.08 481.372 508.75 480.952 507.21C480.579 505.623 480.392 503.85 480.392 501.89V461.36L490.822 459.68V499.79C490.822 500.723 490.892 501.563 491.032 502.31C491.172 503.057 491.429 503.687 491.802 504.2C492.222 504.713 492.806 505.133 493.552 505.46C494.299 505.787 495.302 505.997 496.562 506.09L495.092 514.7ZM528.247 495.87C528.247 502.543 530.72 505.88 535.667 505.88C536.74 505.88 537.79 505.74 538.817 505.46C539.89 505.18 540.754 504.83 541.407 504.41V485.58C540.894 485.487 540.24 485.417 539.447 485.37C538.654 485.277 537.79 485.23 536.857 485.23C534.01 485.23 531.864 486.21 530.417 488.17C528.97 490.083 528.247 492.65 528.247 495.87ZM517.607 495.59C517.607 492.743 518.027 490.153 518.867 487.82C519.754 485.44 521.014 483.41 522.647 481.73C524.28 480.003 526.287 478.673 528.667 477.74C531.047 476.807 533.754 476.34 536.787 476.34C538.047 476.34 539.354 476.41 540.707 476.55C542.107 476.643 543.46 476.783 544.767 476.97C546.12 477.157 547.404 477.39 548.617 477.67C549.83 477.903 550.904 478.16 551.837 478.44V526.95H541.407V513.09C540.24 513.603 539.027 514 537.767 514.28C536.507 514.56 535.154 514.7 533.707 514.7C528.48 514.7 524.49 512.997 521.737 509.59C518.984 506.137 517.607 501.47 517.607 495.59ZM593.033 512.74C591.26 513.253 588.973 513.72 586.173 514.14C583.373 514.607 580.433 514.84 577.353 514.84C574.226 514.84 571.613 514.42 569.513 513.58C567.46 512.74 565.826 511.573 564.613 510.08C563.4 508.54 562.536 506.72 562.023 504.62C561.51 502.52 561.253 500.21 561.253 497.69V477.18H571.683V496.43C571.683 499.79 572.126 502.217 573.013 503.71C573.9 505.203 575.556 505.95 577.983 505.95C578.73 505.95 579.523 505.927 580.363 505.88C581.203 505.787 581.95 505.693 582.603 505.6V477.18H593.033V512.74ZM616.894 506.72C617.92 506.72 618.9 506.697 619.834 506.65C620.767 506.603 621.514 506.533 622.074 506.44V498.53C621.654 498.437 621.024 498.343 620.184 498.25C619.344 498.157 618.574 498.11 617.874 498.11C616.894 498.11 615.96 498.18 615.074 498.32C614.234 498.413 613.487 498.623 612.834 498.95C612.18 499.277 611.667 499.72 611.294 500.28C610.92 500.84 610.734 501.54 610.734 502.38C610.734 504.013 611.27 505.157 612.344 505.81C613.464 506.417 614.98 506.72 616.894 506.72ZM616.054 476.2C619.134 476.2 621.7 476.55 623.754 477.25C625.807 477.95 627.44 478.953 628.654 480.26C629.914 481.567 630.8 483.153 631.314 485.02C631.827 486.887 632.084 488.963 632.084 491.25V512.95C630.59 513.277 628.514 513.65 625.854 514.07C623.194 514.537 619.974 514.77 616.194 514.77C613.814 514.77 611.644 514.56 609.684 514.14C607.77 513.72 606.114 513.043 604.714 512.11C603.314 511.13 602.24 509.87 601.494 508.33C600.747 506.79 600.374 504.9 600.374 502.66C600.374 500.513 600.794 498.693 601.634 497.2C602.52 495.707 603.687 494.517 605.134 493.63C606.58 492.743 608.237 492.113 610.104 491.74C611.97 491.32 613.907 491.11 615.914 491.11C617.267 491.11 618.457 491.18 619.484 491.32C620.557 491.413 621.42 491.553 622.074 491.74V490.76C622.074 488.987 621.537 487.563 620.464 486.49C619.39 485.417 617.524 484.88 614.864 484.88C613.09 484.88 611.34 485.02 609.614 485.3C607.887 485.533 606.394 485.883 605.134 486.35L603.804 477.95C604.41 477.763 605.157 477.577 606.044 477.39C606.977 477.157 607.98 476.97 609.054 476.83C610.127 476.643 611.247 476.503 612.414 476.41C613.627 476.27 614.84 476.2 616.054 476.2ZM641.515 478.44C643.289 477.927 645.575 477.46 648.375 477.04C651.175 476.573 654.115 476.34 657.195 476.34C660.322 476.34 662.912 476.76 664.965 477.6C667.065 478.393 668.722 479.537 669.935 481.03C671.149 482.523 672.012 484.297 672.525 486.35C673.039 488.403 673.295 490.69 673.295 493.21V514H662.865V494.47C662.865 491.11 662.422 488.73 661.535 487.33C660.649 485.93 658.992 485.23 656.565 485.23C655.819 485.23 655.025 485.277 654.185 485.37C653.345 485.417 652.599 485.487 651.945 485.58V514H641.515V478.44ZM682.386 468.01L692.816 466.33V477.18H705.346V485.86H692.816V498.81C692.816 501.003 693.189 502.753 693.936 504.06C694.729 505.367 696.293 506.02 698.626 506.02C699.746 506.02 700.889 505.927 702.056 505.74C703.269 505.507 704.366 505.203 705.346 504.83L706.816 512.95C705.556 513.463 704.156 513.907 702.616 514.28C701.076 514.653 699.186 514.84 696.946 514.84C694.099 514.84 691.743 514.467 689.876 513.72C688.009 512.927 686.516 511.853 685.396 510.5C684.276 509.1 683.483 507.42 683.016 505.46C682.596 503.5 682.386 501.33 682.386 498.95V468.01ZM746.912 495.52C746.912 498.413 746.492 501.073 745.652 503.5C744.812 505.88 743.599 507.933 742.012 509.66C740.426 511.34 738.512 512.647 736.272 513.58C734.079 514.513 731.606 514.98 728.852 514.98C726.146 514.98 723.672 514.513 721.432 513.58C719.239 512.647 717.349 511.34 715.762 509.66C714.176 507.933 712.939 505.88 712.052 503.5C711.166 501.073 710.722 498.413 710.722 495.52C710.722 492.627 711.166 489.99 712.052 487.61C712.986 485.23 714.246 483.2 715.832 481.52C717.466 479.84 719.379 478.533 721.572 477.6C723.812 476.667 726.239 476.2 728.852 476.2C731.512 476.2 733.939 476.667 736.132 477.6C738.372 478.533 740.286 479.84 741.872 481.52C743.459 483.2 744.696 485.23 745.582 487.61C746.469 489.99 746.912 492.627 746.912 495.52ZM736.272 495.52C736.272 492.3 735.619 489.78 734.312 487.96C733.052 486.093 731.232 485.16 728.852 485.16C726.472 485.16 724.629 486.093 723.322 487.96C722.016 489.78 721.362 492.3 721.362 495.52C721.362 498.74 722.016 501.307 723.322 503.22C724.629 505.087 726.472 506.02 728.852 506.02C731.232 506.02 733.052 505.087 734.312 503.22C735.619 501.307 736.272 498.74 736.272 495.52ZM771.458 468.01L781.888 466.33V477.18H794.418V485.86H781.888V498.81C781.888 501.003 782.262 502.753 783.008 504.06C783.802 505.367 785.365 506.02 787.698 506.02C788.818 506.02 789.962 505.927 791.128 505.74C792.342 505.507 793.438 505.203 794.418 504.83L795.888 512.95C794.628 513.463 793.228 513.907 791.688 514.28C790.148 514.653 788.258 514.84 786.018 514.84C783.172 514.84 780.815 514.467 778.948 513.72C777.082 512.927 775.588 511.853 774.468 510.5C773.348 509.1 772.555 507.42 772.088 505.46C771.668 503.5 771.458 501.33 771.458 498.95V468.01ZM835.985 495.52C835.985 498.413 835.565 501.073 834.725 503.5C833.885 505.88 832.671 507.933 831.085 509.66C829.498 511.34 827.585 512.647 825.345 513.58C823.151 514.513 820.678 514.98 817.925 514.98C815.218 514.98 812.745 514.513 810.505 513.58C808.311 512.647 806.421 511.34 804.835 509.66C803.248 507.933 802.011 505.88 801.125 503.5C800.238 501.073 799.795 498.413 799.795 495.52C799.795 492.627 800.238 489.99 801.125 487.61C802.058 485.23 803.318 483.2 804.905 481.52C806.538 479.84 808.451 478.533 810.645 477.6C812.885 476.667 815.311 476.2 817.925 476.2C820.585 476.2 823.011 476.667 825.205 477.6C827.445 478.533 829.358 479.84 830.945 481.52C832.531 483.2 833.768 485.23 834.655 487.61C835.541 489.99 835.985 492.627 835.985 495.52ZM825.345 495.52C825.345 492.3 824.691 489.78 823.385 487.96C822.125 486.093 820.305 485.16 817.925 485.16C815.545 485.16 813.701 486.093 812.395 487.96C811.088 489.78 810.435 492.3 810.435 495.52C810.435 498.74 811.088 501.307 812.395 503.22C813.701 505.087 815.545 506.02 817.925 506.02C820.305 506.02 822.125 505.087 823.385 503.22C824.691 501.307 825.345 498.74 825.345 495.52ZM852.954 495.31C852.954 498.53 853.677 501.12 855.124 503.08C856.571 505.04 858.717 506.02 861.564 506.02C862.497 506.02 863.361 505.997 864.154 505.95C864.947 505.857 865.601 505.763 866.114 505.67V486.7C865.461 486.28 864.597 485.93 863.524 485.65C862.497 485.37 861.447 485.23 860.374 485.23C855.427 485.23 852.954 488.59 852.954 495.31ZM876.544 512.81C875.611 513.09 874.537 513.37 873.324 513.65C872.111 513.883 870.827 514.093 869.474 514.28C868.167 514.467 866.814 514.607 865.414 514.7C864.061 514.84 862.754 514.91 861.494 514.91C858.461 514.91 855.754 514.467 853.374 513.58C850.994 512.693 848.987 511.433 847.354 509.8C845.721 508.12 844.461 506.113 843.574 503.78C842.734 501.4 842.314 498.74 842.314 495.8C842.314 492.813 842.687 490.13 843.434 487.75C844.181 485.323 845.254 483.27 846.654 481.59C848.054 479.91 849.757 478.627 851.764 477.74C853.817 476.853 856.151 476.41 858.764 476.41C860.211 476.41 861.494 476.55 862.614 476.83C863.781 477.11 864.947 477.507 866.114 478.02V461.36L876.544 459.68V512.81ZM920.75 495.52C920.75 498.413 920.33 501.073 919.49 503.5C918.65 505.88 917.437 507.933 915.85 509.66C914.263 511.34 912.35 512.647 910.11 513.58C907.917 514.513 905.443 514.98 902.69 514.98C899.983 514.98 897.51 514.513 895.27 513.58C893.077 512.647 891.187 511.34 889.6 509.66C888.013 507.933 886.777 505.88 885.89 503.5C885.003 501.073 884.56 498.413 884.56 495.52C884.56 492.627 885.003 489.99 885.89 487.61C886.823 485.23 888.083 483.2 889.67 481.52C891.303 479.84 893.217 478.533 895.41 477.6C897.65 476.667 900.077 476.2 902.69 476.2C905.35 476.2 907.777 476.667 909.97 477.6C912.21 478.533 914.123 479.84 915.71 481.52C917.297 483.2 918.533 485.23 919.42 487.61C920.307 489.99 920.75 492.627 920.75 495.52ZM910.11 495.52C910.11 492.3 909.457 489.78 908.15 487.96C906.89 486.093 905.07 485.16 902.69 485.16C900.31 485.16 898.467 486.093 897.16 487.96C895.853 489.78 895.2 492.3 895.2 495.52C895.2 498.74 895.853 501.307 897.16 503.22C898.467 505.087 900.31 506.02 902.69 506.02C905.07 506.02 906.89 505.087 908.15 503.22C909.457 501.307 910.11 498.74 910.11 495.52ZM939.4 506.51C941.313 506.51 942.666 506.323 943.46 505.95C944.253 505.577 944.65 504.853 944.65 503.78C944.65 502.94 944.136 502.217 943.11 501.61C942.083 500.957 940.52 500.233 938.42 499.44C936.786 498.833 935.293 498.203 933.94 497.55C932.633 496.897 931.513 496.127 930.58 495.24C929.646 494.307 928.923 493.21 928.41 491.95C927.896 490.69 927.64 489.173 927.64 487.4C927.64 483.947 928.923 481.217 931.49 479.21C934.056 477.203 937.58 476.2 942.06 476.2C944.3 476.2 946.446 476.41 948.5 476.83C950.553 477.203 952.186 477.623 953.4 478.09L951.58 486.21C950.366 485.79 949.036 485.417 947.59 485.09C946.19 484.763 944.603 484.6 942.83 484.6C939.563 484.6 937.93 485.51 937.93 487.33C937.93 487.75 938 488.123 938.14 488.45C938.28 488.777 938.56 489.103 938.98 489.43C939.4 489.71 939.96 490.037 940.66 490.41C941.406 490.737 942.34 491.11 943.46 491.53C945.746 492.37 947.636 493.21 949.13 494.05C950.623 494.843 951.79 495.73 952.63 496.71C953.516 497.643 954.123 498.693 954.45 499.86C954.823 501.027 955.01 502.38 955.01 503.92C955.01 507.56 953.633 510.313 950.88 512.18C948.173 514.047 944.323 514.98 939.33 514.98C936.063 514.98 933.333 514.7 931.14 514.14C928.993 513.58 927.5 513.113 926.66 512.74L928.41 504.27C930.183 504.97 932.003 505.53 933.87 505.95C935.736 506.323 937.58 506.51 939.4 506.51ZM1014.06 495.52C1014.06 498.413 1013.64 501.073 1012.8 503.5C1011.96 505.88 1010.75 507.933 1009.16 509.66C1007.57 511.34 1005.66 512.647 1003.42 513.58C1001.23 514.513 998.754 514.98 996.001 514.98C993.294 514.98 990.821 514.513 988.581 513.58C986.387 512.647 984.497 511.34 982.911 509.66C981.324 507.933 980.087 505.88 979.201 503.5C978.314 501.073 977.871 498.413 977.871 495.52C977.871 492.627 978.314 489.99 979.201 487.61C980.134 485.23 981.394 483.2 982.981 481.52C984.614 479.84 986.527 478.533 988.721 477.6C990.961 476.667 993.387 476.2 996.001 476.2C998.661 476.2 1001.09 476.667 1003.28 477.6C1005.52 478.533 1007.43 479.84 1009.02 481.52C1010.61 483.2 1011.84 485.23 1012.73 487.61C1013.62 489.99 1014.06 492.627 1014.06 495.52ZM1003.42 495.52C1003.42 492.3 1002.77 489.78 1001.46 487.96C1000.2 486.093 998.381 485.16 996.001 485.16C993.621 485.16 991.777 486.093 990.471 487.96C989.164 489.78 988.511 492.3 988.511 495.52C988.511 498.74 989.164 501.307 990.471 503.22C991.777 505.087 993.621 506.02 996.001 506.02C998.381 506.02 1000.2 505.087 1001.46 503.22C1002.77 501.307 1003.42 498.74 1003.42 495.52ZM1032.71 506.51C1034.62 506.51 1035.98 506.323 1036.77 505.95C1037.56 505.577 1037.96 504.853 1037.96 503.78C1037.96 502.94 1037.45 502.217 1036.42 501.61C1035.39 500.957 1033.83 500.233 1031.73 499.44C1030.1 498.833 1028.6 498.203 1027.25 497.55C1025.94 496.897 1024.82 496.127 1023.89 495.24C1022.96 494.307 1022.23 493.21 1021.72 491.95C1021.21 490.69 1020.95 489.173 1020.95 487.4C1020.95 483.947 1022.23 481.217 1024.8 479.21C1027.37 477.203 1030.89 476.2 1035.37 476.2C1037.61 476.2 1039.76 476.41 1041.81 476.83C1043.86 477.203 1045.5 477.623 1046.71 478.09L1044.89 486.21C1043.68 485.79 1042.35 485.417 1040.9 485.09C1039.5 484.763 1037.91 484.6 1036.14 484.6C1032.87 484.6 1031.24 485.51 1031.24 487.33C1031.24 487.75 1031.31 488.123 1031.45 488.45C1031.59 488.777 1031.87 489.103 1032.29 489.43C1032.71 489.71 1033.27 490.037 1033.97 490.41C1034.72 490.737 1035.65 491.11 1036.77 491.53C1039.06 492.37 1040.95 493.21 1042.44 494.05C1043.93 494.843 1045.1 495.73 1045.94 496.71C1046.83 497.643 1047.43 498.693 1047.76 499.86C1048.13 501.027 1048.32 502.38 1048.32 503.92C1048.32 507.56 1046.94 510.313 1044.19 512.18C1041.48 514.047 1037.63 514.98 1032.64 514.98C1029.37 514.98 1026.64 514.7 1024.45 514.14C1022.3 513.58 1020.81 513.113 1019.97 512.74L1021.72 504.27C1023.49 504.97 1025.31 505.53 1027.18 505.95C1029.05 506.323 1030.89 506.51 1032.71 506.51ZM150.34 565.52C150.34 568.413 149.92 571.073 149.08 573.5C148.24 575.88 147.027 577.933 145.44 579.66C143.853 581.34 141.94 582.647 139.7 583.58C137.507 584.513 135.033 584.98 132.28 584.98C129.573 584.98 127.1 584.513 124.86 583.58C122.667 582.647 120.777 581.34 119.19 579.66C117.603 577.933 116.367 575.88 115.48 573.5C114.593 571.073 114.15 568.413 114.15 565.52C114.15 562.627 114.593 559.99 115.48 557.61C116.413 555.23 117.673 553.2 119.26 551.52C120.893 549.84 122.807 548.533 125 547.6C127.24 546.667 129.667 546.2 132.28 546.2C134.94 546.2 137.367 546.667 139.56 547.6C141.8 548.533 143.713 549.84 145.3 551.52C146.887 553.2 148.123 555.23 149.01 557.61C149.897 559.99 150.34 562.627 150.34 565.52ZM139.7 565.52C139.7 562.3 139.047 559.78 137.74 557.96C136.48 556.093 134.66 555.16 132.28 555.16C129.9 555.16 128.057 556.093 126.75 557.96C125.443 559.78 124.79 562.3 124.79 565.52C124.79 568.74 125.443 571.307 126.75 573.22C128.057 575.087 129.9 576.02 132.28 576.02C134.66 576.02 136.48 575.087 137.74 573.22C139.047 571.307 139.7 568.74 139.7 565.52ZM189.85 582.74C188.076 583.253 185.79 583.72 182.99 584.14C180.19 584.607 177.25 584.84 174.17 584.84C171.043 584.84 168.43 584.42 166.33 583.58C164.276 582.74 162.643 581.573 161.43 580.08C160.216 578.54 159.353 576.72 158.84 574.62C158.326 572.52 158.07 570.21 158.07 567.69V547.18H168.5V566.43C168.5 569.79 168.943 572.217 169.83 573.71C170.716 575.203 172.373 575.95 174.8 575.95C175.546 575.95 176.34 575.927 177.18 575.88C178.02 575.787 178.766 575.693 179.42 575.6V547.18H189.85V582.74ZM199.29 538.01L209.72 536.33V547.18H222.25V555.86H209.72V568.81C209.72 571.003 210.094 572.753 210.84 574.06C211.634 575.367 213.197 576.02 215.53 576.02C216.65 576.02 217.794 575.927 218.96 575.74C220.174 575.507 221.27 575.203 222.25 574.83L223.72 582.95C222.46 583.463 221.06 583.907 219.52 584.28C217.98 584.653 216.09 584.84 213.85 584.84C211.004 584.84 208.647 584.467 206.78 583.72C204.914 582.927 203.42 581.853 202.3 580.5C201.18 579.1 200.387 577.42 199.92 575.46C199.5 573.5 199.29 571.33 199.29 568.95V538.01ZM252.934 556.42C252 556.187 250.904 555.953 249.644 555.72C248.384 555.44 247.03 555.3 245.584 555.3C244.93 555.3 244.137 555.37 243.204 555.51C242.317 555.603 241.64 555.72 241.174 555.86V584H230.744V549.14C232.61 548.487 234.804 547.88 237.324 547.32C239.89 546.713 242.737 546.41 245.864 546.41C246.424 546.41 247.1 546.457 247.894 546.55C248.687 546.597 249.48 546.69 250.274 546.83C251.067 546.923 251.86 547.063 252.654 547.25C253.447 547.39 254.124 547.577 254.684 547.81L252.934 556.42ZM294.031 565.52C294.031 568.413 293.611 571.073 292.771 573.5C291.931 575.88 290.718 577.933 289.131 579.66C287.545 581.34 285.631 582.647 283.391 583.58C281.198 584.513 278.725 584.98 275.971 584.98C273.265 584.98 270.791 584.513 268.551 583.58C266.358 582.647 264.468 581.34 262.881 579.66C261.295 577.933 260.058 575.88 259.171 573.5C258.285 571.073 257.841 568.413 257.841 565.52C257.841 562.627 258.285 559.99 259.171 557.61C260.105 555.23 261.365 553.2 262.951 551.52C264.585 549.84 266.498 548.533 268.691 547.6C270.931 546.667 273.358 546.2 275.971 546.2C278.631 546.2 281.058 546.667 283.251 547.6C285.491 548.533 287.405 549.84 288.991 551.52C290.578 553.2 291.815 555.23 292.701 557.61C293.588 559.99 294.031 562.627 294.031 565.52ZM283.391 565.52C283.391 562.3 282.738 559.78 281.431 557.96C280.171 556.093 278.351 555.16 275.971 555.16C273.591 555.16 271.748 556.093 270.441 557.96C269.135 559.78 268.481 562.3 268.481 565.52C268.481 568.74 269.135 571.307 270.441 573.22C271.748 575.087 273.591 576.02 275.971 576.02C278.351 576.02 280.171 575.087 281.431 573.22C282.738 571.307 283.391 568.74 283.391 565.52ZM312.681 576.51C314.594 576.51 315.948 576.323 316.741 575.95C317.534 575.577 317.931 574.853 317.931 573.78C317.931 572.94 317.418 572.217 316.391 571.61C315.364 570.957 313.801 570.233 311.701 569.44C310.068 568.833 308.574 568.203 307.221 567.55C305.914 566.897 304.794 566.127 303.861 565.24C302.928 564.307 302.204 563.21 301.691 561.95C301.178 560.69 300.921 559.173 300.921 557.4C300.921 553.947 302.204 551.217 304.771 549.21C307.338 547.203 310.861 546.2 315.341 546.2C317.581 546.2 319.728 546.41 321.781 546.83C323.834 547.203 325.468 547.623 326.681 548.09L324.861 556.21C323.648 555.79 322.318 555.417 320.871 555.09C319.471 554.763 317.884 554.6 316.111 554.6C312.844 554.6 311.211 555.51 311.211 557.33C311.211 557.75 311.281 558.123 311.421 558.45C311.561 558.777 311.841 559.103 312.261 559.43C312.681 559.71 313.241 560.037 313.941 560.41C314.688 560.737 315.621 561.11 316.741 561.53C319.028 562.37 320.918 563.21 322.411 564.05C323.904 564.843 325.071 565.73 325.911 566.71C326.798 567.643 327.404 568.693 327.731 569.86C328.104 571.027 328.291 572.38 328.291 573.92C328.291 577.56 326.914 580.313 324.161 582.18C321.454 584.047 317.604 584.98 312.611 584.98C309.344 584.98 306.614 584.7 304.421 584.14C302.274 583.58 300.781 583.113 299.941 582.74L301.691 574.27C303.464 574.97 305.284 575.53 307.151 575.95C309.018 576.323 310.861 576.51 312.681 576.51Z" fill="white"/>
</g>
<defs>
<clipPath id="clip0_104_281">
<rect width="1300" height="976" fill="white"/>
</clipPath>
</defs>
</svg>
