<svg width="1300" height="976" viewBox="0 0 1300 976" fill="none" xmlns="http://www.w3.org/2000/svg">
<g clip-path="url(#clip0_104_381)">
<path d="M114.15 355.87C114.15 352.603 114.64 349.757 115.62 347.33C116.647 344.857 117.977 342.803 119.61 341.17C121.243 339.537 123.11 338.3 125.21 337.46C127.357 336.62 129.55 336.2 131.79 336.2C137.017 336.2 141.147 337.81 144.18 341.03C147.213 344.203 148.73 348.893 148.73 355.1C148.73 355.707 148.707 356.383 148.66 357.13C148.613 357.83 148.567 358.46 148.52 359.02H124.86C125.093 361.167 126.097 362.87 127.87 364.13C129.643 365.39 132.023 366.02 135.01 366.02C136.923 366.02 138.79 365.857 140.61 365.53C142.477 365.157 143.993 364.713 145.16 364.2L146.56 372.67C146 372.95 145.253 373.23 144.32 373.51C143.387 373.79 142.337 374.023 141.17 374.21C140.05 374.443 138.837 374.63 137.53 374.77C136.223 374.91 134.917 374.98 133.61 374.98C130.297 374.98 127.403 374.49 124.93 373.51C122.503 372.53 120.473 371.2 118.84 369.52C117.253 367.793 116.063 365.763 115.27 363.43C114.523 361.097 114.15 358.577 114.15 355.87ZM138.65 351.88C138.603 350.993 138.44 350.13 138.16 349.29C137.927 348.45 137.53 347.703 136.97 347.05C136.457 346.397 135.78 345.86 134.94 345.44C134.147 345.02 133.143 344.81 131.93 344.81C130.763 344.81 129.76 345.02 128.92 345.44C128.08 345.813 127.38 346.327 126.82 346.98C126.26 347.633 125.817 348.403 125.49 349.29C125.21 350.13 125 350.993 124.86 351.88H138.65ZM171.479 374.7C168.446 374.653 165.972 374.327 164.059 373.72C162.192 373.113 160.699 372.273 159.579 371.2C158.506 370.08 157.759 368.75 157.339 367.21C156.966 365.623 156.779 363.85 156.779 361.89V321.36L167.209 319.68V359.79C167.209 360.723 167.279 361.563 167.419 362.31C167.559 363.057 167.816 363.687 168.189 364.2C168.609 364.713 169.192 365.133 169.939 365.46C170.686 365.787 171.689 365.997 172.949 366.09L171.479 374.7ZM177.177 355.87C177.177 352.603 177.667 349.757 178.647 347.33C179.674 344.857 181.004 342.803 182.637 341.17C184.271 339.537 186.137 338.3 188.237 337.46C190.384 336.62 192.577 336.2 194.817 336.2C200.044 336.2 204.174 337.81 207.207 341.03C210.241 344.203 211.757 348.893 211.757 355.1C211.757 355.707 211.734 356.383 211.687 357.13C211.641 357.83 211.594 358.46 211.547 359.02H187.887C188.121 361.167 189.124 362.87 190.897 364.13C192.671 365.39 195.051 366.02 198.037 366.02C199.951 366.02 201.817 365.857 203.637 365.53C205.504 365.157 207.021 364.713 208.187 364.2L209.587 372.67C209.027 372.95 208.281 373.23 207.347 373.51C206.414 373.79 205.364 374.023 204.197 374.21C203.077 374.443 201.864 374.63 200.557 374.77C199.251 374.91 197.944 374.98 196.637 374.98C193.324 374.98 190.431 374.49 187.957 373.51C185.531 372.53 183.501 371.2 181.867 369.52C180.281 367.793 179.091 365.763 178.297 363.43C177.551 361.097 177.177 358.577 177.177 355.87ZM201.677 351.88C201.631 350.993 201.467 350.13 201.187 349.29C200.954 348.45 200.557 347.703 199.997 347.05C199.484 346.397 198.807 345.86 197.967 345.44C197.174 345.02 196.171 344.81 194.957 344.81C193.791 344.81 192.787 345.02 191.947 345.44C191.107 345.813 190.407 346.327 189.847 346.98C189.287 347.633 188.844 348.403 188.517 349.29C188.237 350.13 188.027 350.993 187.887 351.88H201.677ZM250.693 366.72C251.719 366.72 252.699 366.697 253.633 366.65C254.566 366.603 255.313 366.533 255.873 366.44V358.53C255.453 358.437 254.823 358.343 253.983 358.25C253.143 358.157 252.373 358.11 251.673 358.11C250.693 358.11 249.759 358.18 248.873 358.32C248.033 358.413 247.286 358.623 246.633 358.95C245.979 359.277 245.466 359.72 245.093 360.28C244.719 360.84 244.533 361.54 244.533 362.38C244.533 364.013 245.069 365.157 246.143 365.81C247.263 366.417 248.779 366.72 250.693 366.72ZM249.853 336.2C252.933 336.2 255.499 336.55 257.553 337.25C259.606 337.95 261.239 338.953 262.453 340.26C263.713 341.567 264.599 343.153 265.113 345.02C265.626 346.887 265.883 348.963 265.883 351.25V372.95C264.389 373.277 262.313 373.65 259.653 374.07C256.993 374.537 253.773 374.77 249.993 374.77C247.613 374.77 245.443 374.56 243.483 374.14C241.569 373.72 239.913 373.043 238.513 372.11C237.113 371.13 236.039 369.87 235.293 368.33C234.546 366.79 234.173 364.9 234.173 362.66C234.173 360.513 234.593 358.693 235.433 357.2C236.319 355.707 237.486 354.517 238.933 353.63C240.379 352.743 242.036 352.113 243.903 351.74C245.769 351.32 247.706 351.11 249.713 351.11C251.066 351.11 252.256 351.18 253.283 351.32C254.356 351.413 255.219 351.553 255.873 351.74V350.76C255.873 348.987 255.336 347.563 254.263 346.49C253.189 345.417 251.323 344.88 248.663 344.88C246.889 344.88 245.139 345.02 243.413 345.3C241.686 345.533 240.193 345.883 238.933 346.35L237.603 337.95C238.209 337.763 238.956 337.577 239.843 337.39C240.776 337.157 241.779 336.97 242.853 336.83C243.926 336.643 245.046 336.503 246.213 336.41C247.426 336.27 248.639 336.2 249.853 336.2ZM284.204 355.31C284.204 358.53 284.927 361.12 286.374 363.08C287.821 365.04 289.967 366.02 292.814 366.02C293.747 366.02 294.611 365.997 295.404 365.95C296.197 365.857 296.851 365.763 297.364 365.67V346.7C296.711 346.28 295.847 345.93 294.774 345.65C293.747 345.37 292.697 345.23 291.624 345.23C286.677 345.23 284.204 348.59 284.204 355.31ZM307.794 372.81C306.861 373.09 305.787 373.37 304.574 373.65C303.361 373.883 302.077 374.093 300.724 374.28C299.417 374.467 298.064 374.607 296.664 374.7C295.311 374.84 294.004 374.91 292.744 374.91C289.711 374.91 287.004 374.467 284.624 373.58C282.244 372.693 280.237 371.433 278.604 369.8C276.971 368.12 275.711 366.113 274.824 363.78C273.984 361.4 273.564 358.74 273.564 355.8C273.564 352.813 273.937 350.13 274.684 347.75C275.431 345.323 276.504 343.27 277.904 341.59C279.304 339.91 281.007 338.627 283.014 337.74C285.067 336.853 287.401 336.41 290.014 336.41C291.461 336.41 292.744 336.55 293.864 336.83C295.031 337.11 296.197 337.507 297.364 338.02V321.36L307.794 319.68V372.81ZM352 355.52C352 358.413 351.58 361.073 350.74 363.5C349.9 365.88 348.687 367.933 347.1 369.66C345.513 371.34 343.6 372.647 341.36 373.58C339.167 374.513 336.693 374.98 333.94 374.98C331.233 374.98 328.76 374.513 326.52 373.58C324.327 372.647 322.437 371.34 320.85 369.66C319.263 367.933 318.027 365.88 317.14 363.5C316.253 361.073 315.81 358.413 315.81 355.52C315.81 352.627 316.253 349.99 317.14 347.61C318.073 345.23 319.333 343.2 320.92 341.52C322.553 339.84 324.467 338.533 326.66 337.6C328.9 336.667 331.327 336.2 333.94 336.2C336.6 336.2 339.027 336.667 341.22 337.6C343.46 338.533 345.373 339.84 346.96 341.52C348.547 343.2 349.783 345.23 350.67 347.61C351.557 349.99 352 352.627 352 355.52ZM341.36 355.52C341.36 352.3 340.707 349.78 339.4 347.96C338.14 346.093 336.32 345.16 333.94 345.16C331.56 345.16 329.717 346.093 328.41 347.96C327.103 349.78 326.45 352.3 326.45 355.52C326.45 358.74 327.103 361.307 328.41 363.22C329.717 365.087 331.56 366.02 333.94 366.02C336.32 366.02 338.14 365.087 339.4 363.22C340.707 361.307 341.36 358.74 341.36 355.52ZM359.73 328.01L370.16 326.33V337.18H382.69V345.86H370.16V358.81C370.16 361.003 370.533 362.753 371.28 364.06C372.073 365.367 373.636 366.02 375.97 366.02C377.09 366.02 378.233 365.927 379.4 365.74C380.613 365.507 381.71 365.203 382.69 364.83L384.16 372.95C382.9 373.463 381.5 373.907 379.96 374.28C378.42 374.653 376.53 374.84 374.29 374.84C371.443 374.84 369.086 374.467 367.22 373.72C365.353 372.927 363.86 371.853 362.74 370.5C361.62 369.1 360.826 367.42 360.36 365.46C359.94 363.5 359.73 361.33 359.73 358.95V328.01ZM424.256 355.52C424.256 358.413 423.836 361.073 422.996 363.5C422.156 365.88 420.943 367.933 419.356 369.66C417.769 371.34 415.856 372.647 413.616 373.58C411.423 374.513 408.949 374.98 406.196 374.98C403.489 374.98 401.016 374.513 398.776 373.58C396.583 372.647 394.693 371.34 393.106 369.66C391.519 367.933 390.283 365.88 389.396 363.5C388.509 361.073 388.066 358.413 388.066 355.52C388.066 352.627 388.509 349.99 389.396 347.61C390.329 345.23 391.589 343.2 393.176 341.52C394.809 339.84 396.723 338.533 398.916 337.6C401.156 336.667 403.583 336.2 406.196 336.2C408.856 336.2 411.283 336.667 413.476 337.6C415.716 338.533 417.629 339.84 419.216 341.52C420.803 343.2 422.039 345.23 422.926 347.61C423.813 349.99 424.256 352.627 424.256 355.52ZM413.616 355.52C413.616 352.3 412.963 349.78 411.656 347.96C410.396 346.093 408.576 345.16 406.196 345.16C403.816 345.16 401.973 346.093 400.666 347.96C399.359 349.78 398.706 352.3 398.706 355.52C398.706 358.74 399.359 361.307 400.666 363.22C401.973 365.087 403.816 366.02 406.196 366.02C408.576 366.02 410.396 365.087 411.656 363.22C412.963 361.307 413.616 358.74 413.616 355.52ZM463.766 372.74C461.992 373.253 459.706 373.72 456.906 374.14C454.106 374.607 451.166 374.84 448.086 374.84C444.959 374.84 442.346 374.42 440.246 373.58C438.192 372.74 436.559 371.573 435.346 370.08C434.132 368.54 433.269 366.72 432.756 364.62C432.242 362.52 431.986 360.21 431.986 357.69V337.18H442.416V356.43C442.416 359.79 442.859 362.217 443.746 363.71C444.632 365.203 446.289 365.95 448.716 365.95C449.462 365.95 450.256 365.927 451.096 365.88C451.936 365.787 452.682 365.693 453.336 365.6V337.18H463.766V372.74ZM524.813 355.52C524.813 358.413 524.393 361.073 523.553 363.5C522.713 365.88 521.499 367.933 519.913 369.66C518.326 371.34 516.413 372.647 514.173 373.58C511.979 374.513 509.506 374.98 506.753 374.98C504.046 374.98 501.573 374.513 499.333 373.58C497.139 372.647 495.249 371.34 493.663 369.66C492.076 367.933 490.839 365.88 489.953 363.5C489.066 361.073 488.623 358.413 488.623 355.52C488.623 352.627 489.066 349.99 489.953 347.61C490.886 345.23 492.146 343.2 493.733 341.52C495.366 339.84 497.279 338.533 499.473 337.6C501.713 336.667 504.139 336.2 506.753 336.2C509.413 336.2 511.839 336.667 514.033 337.6C516.273 338.533 518.186 339.84 519.773 341.52C521.359 343.2 522.596 345.23 523.483 347.61C524.369 349.99 524.813 352.627 524.813 355.52ZM514.173 355.52C514.173 352.3 513.519 349.78 512.213 347.96C510.953 346.093 509.133 345.16 506.753 345.16C504.373 345.16 502.529 346.093 501.223 347.96C499.916 349.78 499.263 352.3 499.263 355.52C499.263 358.74 499.916 361.307 501.223 363.22C502.529 365.087 504.373 366.02 506.753 366.02C509.133 366.02 510.953 365.087 512.213 363.22C513.519 361.307 514.173 358.74 514.173 355.52ZM549.359 328.01L559.789 326.33V337.18H572.319V345.86H559.789V358.81C559.789 361.003 560.162 362.753 560.909 364.06C561.702 365.367 563.265 366.02 565.599 366.02C566.719 366.02 567.862 365.927 569.029 365.74C570.242 365.507 571.339 365.203 572.319 364.83L573.789 372.95C572.529 373.463 571.129 373.907 569.589 374.28C568.049 374.653 566.159 374.84 563.919 374.84C561.072 374.84 558.715 374.467 556.849 373.72C554.982 372.927 553.489 371.853 552.369 370.5C551.249 369.1 550.455 367.42 549.989 365.46C549.569 363.5 549.359 361.33 549.359 358.95V328.01ZM577.695 355.87C577.695 352.603 578.185 349.757 579.165 347.33C580.192 344.857 581.522 342.803 583.155 341.17C584.788 339.537 586.655 338.3 588.755 337.46C590.902 336.62 593.095 336.2 595.335 336.2C600.562 336.2 604.692 337.81 607.725 341.03C610.758 344.203 612.275 348.893 612.275 355.1C612.275 355.707 612.252 356.383 612.205 357.13C612.158 357.83 612.112 358.46 612.065 359.02H588.405C588.638 361.167 589.642 362.87 591.415 364.13C593.188 365.39 595.568 366.02 598.555 366.02C600.468 366.02 602.335 365.857 604.155 365.53C606.022 365.157 607.538 364.713 608.705 364.2L610.105 372.67C609.545 372.95 608.798 373.23 607.865 373.51C606.932 373.79 605.882 374.023 604.715 374.21C603.595 374.443 602.382 374.63 601.075 374.77C599.768 374.91 598.462 374.98 597.155 374.98C593.842 374.98 590.948 374.49 588.475 373.51C586.048 372.53 584.018 371.2 582.385 369.52C580.798 367.793 579.608 365.763 578.815 363.43C578.068 361.097 577.695 358.577 577.695 355.87ZM602.195 351.88C602.148 350.993 601.985 350.13 601.705 349.29C601.472 348.45 601.075 347.703 600.515 347.05C600.002 346.397 599.325 345.86 598.485 345.44C597.692 345.02 596.688 344.81 595.475 344.81C594.308 344.81 593.305 345.02 592.465 345.44C591.625 345.813 590.925 346.327 590.365 346.98C589.805 347.633 589.362 348.403 589.035 349.29C588.755 350.13 588.545 350.993 588.405 351.88H602.195ZM642.514 346.42C641.58 346.187 640.484 345.953 639.224 345.72C637.964 345.44 636.61 345.3 635.164 345.3C634.51 345.3 633.717 345.37 632.784 345.51C631.897 345.603 631.22 345.72 630.754 345.86V374H620.324V339.14C622.19 338.487 624.384 337.88 626.904 337.32C629.47 336.713 632.317 336.41 635.444 336.41C636.004 336.41 636.68 336.457 637.474 336.55C638.267 336.597 639.06 336.69 639.854 336.83C640.647 336.923 641.44 337.063 642.234 337.25C643.027 337.39 643.704 337.577 644.264 337.81L642.514 346.42ZM670.085 354.47C670.085 351.11 669.642 348.73 668.755 347.33C667.915 345.93 666.445 345.23 664.345 345.23C663.692 345.23 663.015 345.277 662.315 345.37C661.615 345.417 660.938 345.487 660.285 345.58V374H649.855V338.44C650.742 338.207 651.768 337.973 652.935 337.74C654.148 337.46 655.408 337.227 656.715 337.04C658.068 336.807 659.445 336.643 660.845 336.55C662.245 336.41 663.622 336.34 664.975 336.34C667.635 336.34 669.782 336.69 671.415 337.39C673.095 338.043 674.472 338.837 675.545 339.77C677.038 338.697 678.742 337.857 680.655 337.25C682.615 336.643 684.412 336.34 686.045 336.34C688.985 336.34 691.388 336.76 693.255 337.6C695.168 338.393 696.685 339.537 697.805 341.03C698.925 342.523 699.695 344.297 700.115 346.35C700.535 348.403 700.745 350.69 700.745 353.21V374H690.315V354.47C690.315 351.11 689.872 348.73 688.985 347.33C688.145 345.93 686.675 345.23 684.575 345.23C684.015 345.23 683.222 345.37 682.195 345.65C681.215 345.93 680.398 346.28 679.745 346.7C680.072 347.773 680.282 348.917 680.375 350.13C680.468 351.297 680.515 352.557 680.515 353.91V374H670.085V354.47ZM744.656 355.52C744.656 358.413 744.236 361.073 743.396 363.5C742.556 365.88 741.343 367.933 739.756 369.66C738.17 371.34 736.256 372.647 734.016 373.58C731.823 374.513 729.35 374.98 726.596 374.98C723.89 374.98 721.416 374.513 719.176 373.58C716.983 372.647 715.093 371.34 713.506 369.66C711.92 367.933 710.683 365.88 709.796 363.5C708.91 361.073 708.466 358.413 708.466 355.52C708.466 352.627 708.91 349.99 709.796 347.61C710.73 345.23 711.99 343.2 713.576 341.52C715.21 339.84 717.123 338.533 719.316 337.6C721.556 336.667 723.983 336.2 726.596 336.2C729.256 336.2 731.683 336.667 733.876 337.6C736.116 338.533 738.03 339.84 739.616 341.52C741.203 343.2 742.44 345.23 743.326 347.61C744.213 349.99 744.656 352.627 744.656 355.52ZM734.016 355.52C734.016 352.3 733.363 349.78 732.056 347.96C730.796 346.093 728.976 345.16 726.596 345.16C724.216 345.16 722.373 346.093 721.066 347.96C719.76 349.78 719.106 352.3 719.106 355.52C719.106 358.74 719.76 361.307 721.066 363.22C722.373 365.087 724.216 366.02 726.596 366.02C728.976 366.02 730.796 365.087 732.056 363.22C733.363 361.307 734.016 358.74 734.016 355.52ZM800.982 372.74C799.209 373.253 796.922 373.72 794.122 374.14C791.322 374.607 788.382 374.84 785.302 374.84C782.176 374.84 779.562 374.42 777.462 373.58C775.409 372.74 773.776 371.573 772.562 370.08C771.349 368.54 770.486 366.72 769.972 364.62C769.459 362.52 769.202 360.21 769.202 357.69V337.18H779.632V356.43C779.632 359.79 780.076 362.217 780.962 363.71C781.849 365.203 783.506 365.95 785.932 365.95C786.679 365.95 787.472 365.927 788.312 365.88C789.152 365.787 789.899 365.693 790.552 365.6V337.18H800.982V372.74ZM825.403 348.38L832.683 337.18H843.463L830.863 354.89C833.663 358.39 836.206 361.797 838.493 365.11C840.78 368.423 842.6 371.387 843.953 374H832.753C832.38 373.3 831.913 372.437 831.353 371.41C830.793 370.337 830.163 369.24 829.463 368.12C828.763 366.953 828.016 365.81 827.223 364.69C826.476 363.523 825.73 362.473 824.983 361.54C824.283 362.427 823.56 363.407 822.813 364.48C822.113 365.553 821.436 366.65 820.783 367.77C820.13 368.843 819.476 369.917 818.823 370.99C818.216 372.063 817.68 373.067 817.213 374H806.573C807.133 372.833 807.903 371.457 808.883 369.87C809.863 368.283 810.913 366.65 812.033 364.97C813.2 363.243 814.413 361.54 815.673 359.86C816.933 358.133 818.17 356.523 819.383 355.03C817.283 352.09 815.183 349.127 813.083 346.14C810.983 343.107 808.906 340.12 806.853 337.18H818.123L825.403 348.38ZM889.939 355.87C889.939 352.65 889.216 350.083 887.769 348.17C886.323 346.21 884.176 345.23 881.329 345.23C880.396 345.23 879.533 345.277 878.739 345.37C877.946 345.417 877.293 345.487 876.779 345.58V364.41C877.433 364.83 878.273 365.18 879.299 365.46C880.373 365.74 881.446 365.88 882.519 365.88C887.466 365.88 889.939 362.543 889.939 355.87ZM900.579 355.59C900.579 358.437 900.229 361.027 899.529 363.36C898.829 365.693 897.803 367.7 896.449 369.38C895.096 371.06 893.416 372.367 891.409 373.3C889.403 374.233 887.093 374.7 884.479 374.7C883.033 374.7 881.679 374.56 880.419 374.28C879.159 374 877.946 373.603 876.779 373.09V386.95H866.349V338.44C867.283 338.16 868.356 337.903 869.569 337.67C870.783 337.39 872.043 337.157 873.349 336.97C874.703 336.783 876.056 336.643 877.409 336.55C878.809 336.41 880.139 336.34 881.399 336.34C884.433 336.34 887.139 336.807 889.519 337.74C891.899 338.627 893.906 339.91 895.539 341.59C897.173 343.223 898.409 345.23 899.249 347.61C900.136 349.99 900.579 352.65 900.579 355.59ZM922.665 366.72C923.692 366.72 924.672 366.697 925.605 366.65C926.539 366.603 927.285 366.533 927.845 366.44V358.53C927.425 358.437 926.795 358.343 925.955 358.25C925.115 358.157 924.345 358.11 923.645 358.11C922.665 358.11 921.732 358.18 920.845 358.32C920.005 358.413 919.259 358.623 918.605 358.95C917.952 359.277 917.439 359.72 917.065 360.28C916.692 360.84 916.505 361.54 916.505 362.38C916.505 364.013 917.042 365.157 918.115 365.81C919.235 366.417 920.752 366.72 922.665 366.72ZM921.825 336.2C924.905 336.2 927.472 336.55 929.525 337.25C931.579 337.95 933.212 338.953 934.425 340.26C935.685 341.567 936.572 343.153 937.085 345.02C937.599 346.887 937.855 348.963 937.855 351.25V372.95C936.362 373.277 934.285 373.65 931.625 374.07C928.965 374.537 925.745 374.77 921.965 374.77C919.585 374.77 917.415 374.56 915.455 374.14C913.542 373.72 911.885 373.043 910.485 372.11C909.085 371.13 908.012 369.87 907.265 368.33C906.519 366.79 906.145 364.9 906.145 362.66C906.145 360.513 906.565 358.693 907.405 357.2C908.292 355.707 909.459 354.517 910.905 353.63C912.352 352.743 914.009 352.113 915.875 351.74C917.742 351.32 919.679 351.11 921.685 351.11C923.039 351.11 924.229 351.18 925.255 351.32C926.329 351.413 927.192 351.553 927.845 351.74V350.76C927.845 348.987 927.309 347.563 926.235 346.49C925.162 345.417 923.295 344.88 920.635 344.88C918.862 344.88 917.112 345.02 915.385 345.3C913.659 345.533 912.165 345.883 910.905 346.35L909.575 337.95C910.182 337.763 910.929 337.577 911.815 337.39C912.749 337.157 913.752 336.97 914.825 336.83C915.899 336.643 917.019 336.503 918.185 336.41C919.399 336.27 920.612 336.2 921.825 336.2ZM969.477 346.42C968.543 346.187 967.447 345.953 966.187 345.72C964.927 345.44 963.573 345.3 962.127 345.3C961.473 345.3 960.68 345.37 959.747 345.51C958.86 345.603 958.183 345.72 957.717 345.86V374H947.287V339.14C949.153 338.487 951.347 337.88 953.867 337.32C956.433 336.713 959.28 336.41 962.407 336.41C962.967 336.41 963.643 336.457 964.437 336.55C965.23 336.597 966.023 336.69 966.817 336.83C967.61 336.923 968.403 337.063 969.197 337.25C969.99 337.39 970.667 337.577 971.227 337.81L969.477 346.42ZM990.204 366.72C991.231 366.72 992.211 366.697 993.144 366.65C994.078 366.603 994.824 366.533 995.384 366.44V358.53C994.964 358.437 994.334 358.343 993.494 358.25C992.654 358.157 991.884 358.11 991.184 358.11C990.204 358.11 989.271 358.18 988.384 358.32C987.544 358.413 986.798 358.623 986.144 358.95C985.491 359.277 984.978 359.72 984.604 360.28C984.231 360.84 984.044 361.54 984.044 362.38C984.044 364.013 984.581 365.157 985.654 365.81C986.774 366.417 988.291 366.72 990.204 366.72ZM989.364 336.2C992.444 336.2 995.011 336.55 997.064 337.25C999.118 337.95 1000.75 338.953 1001.96 340.26C1003.22 341.567 1004.11 343.153 1004.62 345.02C1005.14 346.887 1005.39 348.963 1005.39 351.25V372.95C1003.9 373.277 1001.82 373.65 999.164 374.07C996.504 374.537 993.284 374.77 989.504 374.77C987.124 374.77 984.954 374.56 982.994 374.14C981.081 373.72 979.424 373.043 978.024 372.11C976.624 371.13 975.551 369.87 974.804 368.33C974.058 366.79 973.684 364.9 973.684 362.66C973.684 360.513 974.104 358.693 974.944 357.2C975.831 355.707 976.998 354.517 978.444 353.63C979.891 352.743 981.548 352.113 983.414 351.74C985.281 351.32 987.218 351.11 989.224 351.11C990.578 351.11 991.768 351.18 992.794 351.32C993.868 351.413 994.731 351.553 995.384 351.74V350.76C995.384 348.987 994.848 347.563 993.774 346.49C992.701 345.417 990.834 344.88 988.174 344.88C986.401 344.88 984.651 345.02 982.924 345.3C981.198 345.533 979.704 345.883 978.444 346.35L977.114 337.95C977.721 337.763 978.468 337.577 979.354 337.39C980.288 337.157 981.291 336.97 982.364 336.83C983.438 336.643 984.558 336.503 985.724 336.41C986.938 336.27 988.151 336.2 989.364 336.2ZM124.79 425.31C124.79 428.53 125.513 431.12 126.96 433.08C128.407 435.04 130.553 436.02 133.4 436.02C134.333 436.02 135.197 435.997 135.99 435.95C136.783 435.857 137.437 435.763 137.95 435.67V416.7C137.297 416.28 136.433 415.93 135.36 415.65C134.333 415.37 133.283 415.23 132.21 415.23C127.263 415.23 124.79 418.59 124.79 425.31ZM148.38 442.81C147.447 443.09 146.373 443.37 145.16 443.65C143.947 443.883 142.663 444.093 141.31 444.28C140.003 444.467 138.65 444.607 137.25 444.7C135.897 444.84 134.59 444.91 133.33 444.91C130.297 444.91 127.59 444.467 125.21 443.58C122.83 442.693 120.823 441.433 119.19 439.8C117.557 438.12 116.297 436.113 115.41 433.78C114.57 431.4 114.15 428.74 114.15 425.8C114.15 422.813 114.523 420.13 115.27 417.75C116.017 415.323 117.09 413.27 118.49 411.59C119.89 409.91 121.593 408.627 123.6 407.74C125.653 406.853 127.987 406.41 130.6 406.41C132.047 406.41 133.33 406.55 134.45 406.83C135.617 407.11 136.783 407.507 137.95 408.02V391.36L148.38 389.68V442.81ZM168.576 444H158.146V407.18H168.576V444ZM169.556 396.54C169.556 398.453 168.926 399.97 167.666 401.09C166.453 402.163 165.006 402.7 163.326 402.7C161.646 402.7 160.176 402.163 158.916 401.09C157.703 399.97 157.096 398.453 157.096 396.54C157.096 394.627 157.703 393.133 158.916 392.06C160.176 390.94 161.646 390.38 163.326 390.38C165.006 390.38 166.453 390.94 167.666 392.06C168.926 393.133 169.556 394.627 169.556 396.54ZM206.03 414.18C205.19 415.113 204.047 416.373 202.6 417.96C201.2 419.547 199.684 421.297 198.05 423.21C196.417 425.123 194.76 427.13 193.08 429.23C191.447 431.33 189.954 433.36 188.6 435.32H206.38V444H175.93V437.84C176.91 436.16 178.077 434.363 179.43 432.45C180.83 430.49 182.277 428.53 183.77 426.57C185.31 424.61 186.827 422.72 188.32 420.9C189.814 419.033 191.19 417.353 192.45 415.86H176.77V407.18H206.03V414.18ZM210.605 425.87C210.605 422.603 211.095 419.757 212.075 417.33C213.102 414.857 214.432 412.803 216.065 411.17C217.698 409.537 219.565 408.3 221.665 407.46C223.812 406.62 226.005 406.2 228.245 406.2C233.472 406.2 237.602 407.81 240.635 411.03C243.668 414.203 245.185 418.893 245.185 425.1C245.185 425.707 245.162 426.383 245.115 427.13C245.068 427.83 245.022 428.46 244.975 429.02H221.315C221.548 431.167 222.552 432.87 224.325 434.13C226.098 435.39 228.478 436.02 231.465 436.02C233.378 436.02 235.245 435.857 237.065 435.53C238.932 435.157 240.448 434.713 241.615 434.2L243.015 442.67C242.455 442.95 241.708 443.23 240.775 443.51C239.842 443.79 238.792 444.023 237.625 444.21C236.505 444.443 235.292 444.63 233.985 444.77C232.678 444.91 231.372 444.98 230.065 444.98C226.752 444.98 223.858 444.49 221.385 443.51C218.958 442.53 216.928 441.2 215.295 439.52C213.708 437.793 212.518 435.763 211.725 433.43C210.978 431.097 210.605 428.577 210.605 425.87ZM235.105 421.88C235.058 420.993 234.895 420.13 234.615 419.29C234.382 418.45 233.985 417.703 233.425 417.05C232.912 416.397 232.235 415.86 231.395 415.44C230.602 415.02 229.598 414.81 228.385 414.81C227.218 414.81 226.215 415.02 225.375 415.44C224.535 415.813 223.835 416.327 223.275 416.98C222.715 417.633 222.272 418.403 221.945 419.29C221.665 420.13 221.455 420.993 221.315 421.88H235.105ZM275.424 416.42C274.491 416.187 273.394 415.953 272.134 415.72C270.874 415.44 269.521 415.3 268.074 415.3C267.421 415.3 266.627 415.37 265.694 415.51C264.807 415.603 264.131 415.72 263.664 415.86V444H253.234V409.14C255.101 408.487 257.294 407.88 259.814 407.32C262.381 406.713 265.227 406.41 268.354 406.41C268.914 406.41 269.591 406.457 270.384 406.55C271.177 406.597 271.971 406.69 272.764 406.83C273.557 406.923 274.351 407.063 275.144 407.25C275.937 407.39 276.614 407.577 277.174 407.81L275.424 416.42ZM308.472 425.87C308.472 432.543 310.945 435.88 315.892 435.88C316.965 435.88 318.015 435.74 319.042 435.46C320.115 435.18 320.978 434.83 321.632 434.41V415.58C321.118 415.487 320.465 415.417 319.672 415.37C318.878 415.277 318.015 415.23 317.082 415.23C314.235 415.23 312.088 416.21 310.642 418.17C309.195 420.083 308.472 422.65 308.472 425.87ZM297.832 425.59C297.832 422.743 298.252 420.153 299.092 417.82C299.978 415.44 301.238 413.41 302.872 411.73C304.505 410.003 306.512 408.673 308.892 407.74C311.272 406.807 313.978 406.34 317.012 406.34C318.272 406.34 319.578 406.41 320.932 406.55C322.332 406.643 323.685 406.783 324.992 406.97C326.345 407.157 327.628 407.39 328.842 407.67C330.055 407.903 331.128 408.16 332.062 408.44V456.95H321.632V443.09C320.465 443.603 319.252 444 317.992 444.28C316.732 444.56 315.378 444.7 313.932 444.7C308.705 444.7 304.715 442.997 301.962 439.59C299.208 436.137 297.832 431.47 297.832 425.59ZM373.258 442.74C371.484 443.253 369.198 443.72 366.398 444.14C363.598 444.607 360.658 444.84 357.578 444.84C354.451 444.84 351.838 444.42 349.738 443.58C347.684 442.74 346.051 441.573 344.838 440.08C343.624 438.54 342.761 436.72 342.248 434.62C341.734 432.52 341.478 430.21 341.478 427.69V407.18H351.908V426.43C351.908 429.79 352.351 432.217 353.238 433.71C354.124 435.203 355.781 435.95 358.208 435.95C358.954 435.95 359.748 435.927 360.588 435.88C361.428 435.787 362.174 435.693 362.828 435.6V407.18H373.258V442.74ZM381.298 425.87C381.298 422.603 381.788 419.757 382.768 417.33C383.795 414.857 385.125 412.803 386.758 411.17C388.392 409.537 390.258 408.3 392.358 407.46C394.505 406.62 396.698 406.2 398.938 406.2C404.165 406.2 408.295 407.81 411.328 411.03C414.362 414.203 415.878 418.893 415.878 425.1C415.878 425.707 415.855 426.383 415.808 427.13C415.762 427.83 415.715 428.46 415.668 429.02H392.008C392.242 431.167 393.245 432.87 395.018 434.13C396.792 435.39 399.172 436.02 402.158 436.02C404.072 436.02 405.938 435.857 407.758 435.53C409.625 435.157 411.142 434.713 412.308 434.2L413.708 442.67C413.148 442.95 412.402 443.23 411.468 443.51C410.535 443.79 409.485 444.023 408.318 444.21C407.198 444.443 405.985 444.63 404.678 444.77C403.372 444.91 402.065 444.98 400.758 444.98C397.445 444.98 394.552 444.49 392.078 443.51C389.652 442.53 387.622 441.2 385.988 439.52C384.402 437.793 383.212 435.763 382.418 433.43C381.672 431.097 381.298 428.577 381.298 425.87ZM405.798 421.88C405.752 420.993 405.588 420.13 405.308 419.29C405.075 418.45 404.678 417.703 404.118 417.05C403.605 416.397 402.928 415.86 402.088 415.44C401.295 415.02 400.292 414.81 399.078 414.81C397.912 414.81 396.908 415.02 396.068 415.44C395.228 415.813 394.528 416.327 393.968 416.98C393.408 417.633 392.965 418.403 392.638 419.29C392.358 420.13 392.148 420.993 392.008 421.88H405.798ZM475.184 425.52C475.184 428.413 474.764 431.073 473.924 433.5C473.084 435.88 471.87 437.933 470.284 439.66C468.697 441.34 466.784 442.647 464.544 443.58C462.35 444.513 459.877 444.98 457.124 444.98C454.417 444.98 451.944 444.513 449.704 443.58C447.51 442.647 445.62 441.34 444.034 439.66C442.447 437.933 441.21 435.88 440.324 433.5C439.437 431.073 438.994 428.413 438.994 425.52C438.994 422.627 439.437 419.99 440.324 417.61C441.257 415.23 442.517 413.2 444.104 411.52C445.737 409.84 447.65 408.533 449.844 407.6C452.084 406.667 454.51 406.2 457.124 406.2C459.784 406.2 462.21 406.667 464.404 407.6C466.644 408.533 468.557 409.84 470.144 411.52C471.73 413.2 472.967 415.23 473.854 417.61C474.74 419.99 475.184 422.627 475.184 425.52ZM464.544 425.52C464.544 422.3 463.89 419.78 462.584 417.96C461.324 416.093 459.504 415.16 457.124 415.16C454.744 415.16 452.9 416.093 451.594 417.96C450.287 419.78 449.634 422.3 449.634 425.52C449.634 428.74 450.287 431.307 451.594 433.22C452.9 435.087 454.744 436.02 457.124 436.02C459.504 436.02 461.324 435.087 462.584 433.22C463.89 431.307 464.544 428.74 464.544 425.52ZM523.67 425.87C523.67 422.65 522.946 420.083 521.5 418.17C520.053 416.21 517.906 415.23 515.06 415.23C514.126 415.23 513.263 415.277 512.47 415.37C511.676 415.417 511.023 415.487 510.51 415.58V434.41C511.163 434.83 512.003 435.18 513.03 435.46C514.103 435.74 515.176 435.88 516.25 435.88C521.196 435.88 523.67 432.543 523.67 425.87ZM534.31 425.59C534.31 428.437 533.96 431.027 533.26 433.36C532.56 435.693 531.533 437.7 530.18 439.38C528.826 441.06 527.146 442.367 525.14 443.3C523.133 444.233 520.823 444.7 518.21 444.7C516.763 444.7 515.41 444.56 514.15 444.28C512.89 444 511.676 443.603 510.51 443.09V456.95H500.08V408.44C501.013 408.16 502.086 407.903 503.3 407.67C504.513 407.39 505.773 407.157 507.08 406.97C508.433 406.783 509.786 406.643 511.14 406.55C512.54 406.41 513.87 406.34 515.13 406.34C518.163 406.34 520.87 406.807 523.25 407.74C525.63 408.627 527.636 409.91 529.27 411.59C530.903 413.223 532.14 415.23 532.98 417.61C533.866 419.99 534.31 422.65 534.31 425.59ZM564.516 416.42C563.582 416.187 562.486 415.953 561.226 415.72C559.966 415.44 558.612 415.3 557.166 415.3C556.512 415.3 555.719 415.37 554.786 415.51C553.899 415.603 553.222 415.72 552.756 415.86V444H542.326V409.14C544.192 408.487 546.386 407.88 548.906 407.32C551.472 406.713 554.319 406.41 557.446 406.41C558.006 406.41 558.682 406.457 559.476 406.55C560.269 406.597 561.062 406.69 561.856 406.83C562.649 406.923 563.442 407.063 564.236 407.25C565.029 407.39 565.706 407.577 566.266 407.81L564.516 416.42ZM605.613 425.52C605.613 428.413 605.193 431.073 604.353 433.5C603.513 435.88 602.3 437.933 600.713 439.66C599.127 441.34 597.213 442.647 594.973 443.58C592.78 444.513 590.307 444.98 587.553 444.98C584.847 444.98 582.373 444.513 580.133 443.58C577.94 442.647 576.05 441.34 574.463 439.66C572.877 437.933 571.64 435.88 570.753 433.5C569.867 431.073 569.423 428.413 569.423 425.52C569.423 422.627 569.867 419.99 570.753 417.61C571.687 415.23 572.947 413.2 574.533 411.52C576.167 409.84 578.08 408.533 580.273 407.6C582.513 406.667 584.94 406.2 587.553 406.2C590.213 406.2 592.64 406.667 594.833 407.6C597.073 408.533 598.987 409.84 600.573 411.52C602.16 413.2 603.397 415.23 604.283 417.61C605.17 419.99 605.613 422.627 605.613 425.52ZM594.973 425.52C594.973 422.3 594.32 419.78 593.013 417.96C591.753 416.093 589.933 415.16 587.553 415.16C585.173 415.16 583.33 416.093 582.023 417.96C580.717 419.78 580.063 422.3 580.063 425.52C580.063 428.74 580.717 431.307 582.023 433.22C583.33 435.087 585.173 436.02 587.553 436.02C589.933 436.02 591.753 435.087 593.013 433.22C594.32 431.307 594.973 428.74 594.973 425.52ZM610.263 456.95C609.61 456.95 608.653 456.88 607.393 456.74C606.086 456.6 604.873 456.343 603.753 455.97L605.153 447.5C605.853 447.733 606.506 447.897 607.113 447.99C607.673 448.083 608.396 448.13 609.283 448.13C610.916 448.13 612.06 447.64 612.713 446.66C613.366 445.68 613.693 444.257 613.693 442.39V407.18H624.123V442.67C624.123 447.523 622.933 451.117 620.553 453.45C618.173 455.783 614.743 456.95 610.263 456.95ZM625.103 396.54C625.103 398.453 624.473 399.97 623.213 401.09C622 402.163 620.553 402.7 618.873 402.7C617.193 402.7 615.723 402.163 614.463 401.09C613.25 399.97 612.643 398.453 612.643 396.54C612.643 394.627 613.25 393.133 614.463 392.06C615.723 390.94 617.193 390.38 618.873 390.38C620.553 390.38 622 390.94 623.213 392.06C624.473 393.133 625.103 394.627 625.103 396.54ZM632.177 425.87C632.177 422.603 632.667 419.757 633.647 417.33C634.674 414.857 636.004 412.803 637.637 411.17C639.271 409.537 641.137 408.3 643.237 407.46C645.384 406.62 647.577 406.2 649.817 406.2C655.044 406.2 659.174 407.81 662.207 411.03C665.241 414.203 666.757 418.893 666.757 425.1C666.757 425.707 666.734 426.383 666.687 427.13C666.641 427.83 666.594 428.46 666.547 429.02H642.887C643.121 431.167 644.124 432.87 645.897 434.13C647.671 435.39 650.051 436.02 653.037 436.02C654.951 436.02 656.817 435.857 658.637 435.53C660.504 435.157 662.021 434.713 663.187 434.2L664.587 442.67C664.027 442.95 663.281 443.23 662.347 443.51C661.414 443.79 660.364 444.023 659.197 444.21C658.077 444.443 656.864 444.63 655.557 444.77C654.251 444.91 652.944 444.98 651.637 444.98C648.324 444.98 645.431 444.49 642.957 443.51C640.531 442.53 638.501 441.2 636.867 439.52C635.281 437.793 634.091 435.763 633.297 433.43C632.551 431.097 632.177 428.577 632.177 425.87ZM656.677 421.88C656.631 420.993 656.467 420.13 656.187 419.29C655.954 418.45 655.557 417.703 654.997 417.05C654.484 416.397 653.807 415.86 652.967 415.44C652.174 415.02 651.171 414.81 649.957 414.81C648.791 414.81 647.787 415.02 646.947 415.44C646.107 415.813 645.407 416.327 644.847 416.98C644.287 417.633 643.844 418.403 643.517 419.29C643.237 420.13 643.027 420.993 642.887 421.88H656.677ZM674.456 398.01L684.886 396.33V407.18H697.416V415.86H684.886V428.81C684.886 431.003 685.26 432.753 686.006 434.06C686.8 435.367 688.363 436.02 690.696 436.02C691.816 436.02 692.96 435.927 694.126 435.74C695.34 435.507 696.436 435.203 697.416 434.83L698.886 442.95C697.626 443.463 696.226 443.907 694.686 444.28C693.146 444.653 691.256 444.84 689.016 444.84C686.17 444.84 683.813 444.467 681.946 443.72C680.08 442.927 678.586 441.853 677.466 440.5C676.346 439.1 675.553 437.42 675.086 435.46C674.666 433.5 674.456 431.33 674.456 428.95V398.01ZM738.983 425.52C738.983 428.413 738.563 431.073 737.723 433.5C736.883 435.88 735.669 437.933 734.083 439.66C732.496 441.34 730.583 442.647 728.343 443.58C726.149 444.513 723.676 444.98 720.923 444.98C718.216 444.98 715.743 444.513 713.503 443.58C711.309 442.647 709.419 441.34 707.833 439.66C706.246 437.933 705.009 435.88 704.123 433.5C703.236 431.073 702.793 428.413 702.793 425.52C702.793 422.627 703.236 419.99 704.123 417.61C705.056 415.23 706.316 413.2 707.903 411.52C709.536 409.84 711.449 408.533 713.643 407.6C715.883 406.667 718.309 406.2 720.923 406.2C723.583 406.2 726.009 406.667 728.203 407.6C730.443 408.533 732.356 409.84 733.943 411.52C735.529 413.2 736.766 415.23 737.653 417.61C738.539 419.99 738.983 422.627 738.983 425.52ZM728.343 425.52C728.343 422.3 727.689 419.78 726.383 417.96C725.123 416.093 723.303 415.16 720.923 415.16C718.543 415.16 716.699 416.093 715.393 417.96C714.086 419.78 713.433 422.3 713.433 425.52C713.433 428.74 714.086 431.307 715.393 433.22C716.699 435.087 718.543 436.02 720.923 436.02C723.303 436.02 725.123 435.087 726.383 433.22C727.689 431.307 728.343 428.74 728.343 425.52ZM772.769 425.31C772.769 428.53 773.492 431.12 774.939 433.08C776.385 435.04 778.532 436.02 781.379 436.02C782.312 436.02 783.175 435.997 783.969 435.95C784.762 435.857 785.415 435.763 785.929 435.67V416.7C785.275 416.28 784.412 415.93 783.339 415.65C782.312 415.37 781.262 415.23 780.189 415.23C775.242 415.23 772.769 418.59 772.769 425.31ZM796.359 442.81C795.425 443.09 794.352 443.37 793.139 443.65C791.925 443.883 790.642 444.093 789.289 444.28C787.982 444.467 786.629 444.607 785.229 444.7C783.875 444.84 782.569 444.91 781.309 444.91C778.275 444.91 775.569 444.467 773.189 443.58C770.809 442.693 768.802 441.433 767.169 439.8C765.535 438.12 764.275 436.113 763.389 433.78C762.549 431.4 762.129 428.74 762.129 425.8C762.129 422.813 762.502 420.13 763.249 417.75C763.995 415.323 765.069 413.27 766.469 411.59C767.869 409.91 769.572 408.627 771.579 407.74C773.632 406.853 775.965 406.41 778.579 406.41C780.025 406.41 781.309 406.55 782.429 406.83C783.595 407.11 784.762 407.507 785.929 408.02V391.36L796.359 389.68V442.81ZM840.565 425.52C840.565 428.413 840.145 431.073 839.305 433.5C838.465 435.88 837.251 437.933 835.665 439.66C834.078 441.34 832.165 442.647 829.925 443.58C827.731 444.513 825.258 444.98 822.505 444.98C819.798 444.98 817.325 444.513 815.085 443.58C812.891 442.647 811.001 441.34 809.415 439.66C807.828 437.933 806.591 435.88 805.705 433.5C804.818 431.073 804.375 428.413 804.375 425.52C804.375 422.627 804.818 419.99 805.705 417.61C806.638 415.23 807.898 413.2 809.485 411.52C811.118 409.84 813.031 408.533 815.225 407.6C817.465 406.667 819.891 406.2 822.505 406.2C825.165 406.2 827.591 406.667 829.785 407.6C832.025 408.533 833.938 409.84 835.525 411.52C837.111 413.2 838.348 415.23 839.235 417.61C840.121 419.99 840.565 422.627 840.565 425.52ZM829.925 425.52C829.925 422.3 829.271 419.78 827.965 417.96C826.705 416.093 824.885 415.16 822.505 415.16C820.125 415.16 818.281 416.093 816.975 417.96C815.668 419.78 815.015 422.3 815.015 425.52C815.015 428.74 815.668 431.307 816.975 433.22C818.281 435.087 820.125 436.02 822.505 436.02C824.885 436.02 826.705 435.087 827.965 433.22C829.271 431.307 829.925 428.74 829.925 425.52ZM859.214 436.51C861.127 436.51 862.481 436.323 863.274 435.95C864.067 435.577 864.464 434.853 864.464 433.78C864.464 432.94 863.951 432.217 862.924 431.61C861.897 430.957 860.334 430.233 858.234 429.44C856.601 428.833 855.107 428.203 853.754 427.55C852.447 426.897 851.327 426.127 850.394 425.24C849.461 424.307 848.737 423.21 848.224 421.95C847.711 420.69 847.454 419.173 847.454 417.4C847.454 413.947 848.737 411.217 851.304 409.21C853.871 407.203 857.394 406.2 861.874 406.2C864.114 406.2 866.261 406.41 868.314 406.83C870.367 407.203 872.001 407.623 873.214 408.09L871.394 416.21C870.181 415.79 868.851 415.417 867.404 415.09C866.004 414.763 864.417 414.6 862.644 414.6C859.377 414.6 857.744 415.51 857.744 417.33C857.744 417.75 857.814 418.123 857.954 418.45C858.094 418.777 858.374 419.103 858.794 419.43C859.214 419.71 859.774 420.037 860.474 420.41C861.221 420.737 862.154 421.11 863.274 421.53C865.561 422.37 867.451 423.21 868.944 424.05C870.437 424.843 871.604 425.73 872.444 426.71C873.331 427.643 873.937 428.693 874.264 429.86C874.637 431.027 874.824 432.38 874.824 433.92C874.824 437.56 873.447 440.313 870.694 442.18C867.987 444.047 864.137 444.98 859.144 444.98C855.877 444.98 853.147 444.7 850.954 444.14C848.807 443.58 847.314 443.113 846.474 442.74L848.224 434.27C849.997 434.97 851.817 435.53 853.684 435.95C855.551 436.323 857.394 436.51 859.214 436.51ZM139.49 495.87C139.49 492.65 138.767 490.083 137.32 488.17C135.873 486.21 133.727 485.23 130.88 485.23C129.947 485.23 129.083 485.277 128.29 485.37C127.497 485.417 126.843 485.487 126.33 485.58V504.41C126.983 504.83 127.823 505.18 128.85 505.46C129.923 505.74 130.997 505.88 132.07 505.88C137.017 505.88 139.49 502.543 139.49 495.87ZM150.13 495.59C150.13 498.437 149.78 501.027 149.08 503.36C148.38 505.693 147.353 507.7 146 509.38C144.647 511.06 142.967 512.367 140.96 513.3C138.953 514.233 136.643 514.7 134.03 514.7C132.583 514.7 131.23 514.56 129.97 514.28C128.71 514 127.497 513.603 126.33 513.09V526.95H115.9V478.44C116.833 478.16 117.907 477.903 119.12 477.67C120.333 477.39 121.593 477.157 122.9 476.97C124.253 476.783 125.607 476.643 126.96 476.55C128.36 476.41 129.69 476.34 130.95 476.34C133.983 476.34 136.69 476.807 139.07 477.74C141.45 478.627 143.457 479.91 145.09 481.59C146.723 483.223 147.96 485.23 148.8 487.61C149.687 489.99 150.13 492.65 150.13 495.59ZM180.336 486.42C179.403 486.187 178.306 485.953 177.046 485.72C175.786 485.44 174.433 485.3 172.986 485.3C172.333 485.3 171.539 485.37 170.606 485.51C169.719 485.603 169.043 485.72 168.576 485.86V514H158.146V479.14C160.013 478.487 162.206 477.88 164.726 477.32C167.293 476.713 170.139 476.41 173.266 476.41C173.826 476.41 174.503 476.457 175.296 476.55C176.089 476.597 176.883 476.69 177.676 476.83C178.469 476.923 179.263 477.063 180.056 477.25C180.849 477.39 181.526 477.577 182.086 477.81L180.336 486.42ZM221.434 495.52C221.434 498.413 221.014 501.073 220.174 503.5C219.334 505.88 218.12 507.933 216.534 509.66C214.947 511.34 213.034 512.647 210.794 513.58C208.6 514.513 206.127 514.98 203.374 514.98C200.667 514.98 198.194 514.513 195.954 513.58C193.76 512.647 191.87 511.34 190.284 509.66C188.697 507.933 187.46 505.88 186.574 503.5C185.687 501.073 185.244 498.413 185.244 495.52C185.244 492.627 185.687 489.99 186.574 487.61C187.507 485.23 188.767 483.2 190.354 481.52C191.987 479.84 193.9 478.533 196.094 477.6C198.334 476.667 200.76 476.2 203.374 476.2C206.034 476.2 208.46 476.667 210.654 477.6C212.894 478.533 214.807 479.84 216.394 481.52C217.98 483.2 219.217 485.23 220.104 487.61C220.99 489.99 221.434 492.627 221.434 495.52ZM210.794 495.52C210.794 492.3 210.14 489.78 208.834 487.96C207.574 486.093 205.754 485.16 203.374 485.16C200.994 485.16 199.15 486.093 197.844 487.96C196.537 489.78 195.884 492.3 195.884 495.52C195.884 498.74 196.537 501.307 197.844 503.22C199.15 505.087 200.994 506.02 203.374 506.02C205.754 506.02 207.574 505.087 208.834 503.22C210.14 501.307 210.794 498.74 210.794 495.52ZM238.403 495.31C238.403 498.53 239.127 501.12 240.573 503.08C242.02 505.04 244.167 506.02 247.013 506.02C247.947 506.02 248.81 505.997 249.603 505.95C250.397 505.857 251.05 505.763 251.563 505.67V486.7C250.91 486.28 250.047 485.93 248.973 485.65C247.947 485.37 246.897 485.23 245.823 485.23C240.877 485.23 238.403 488.59 238.403 495.31ZM261.993 512.81C261.06 513.09 259.987 513.37 258.773 513.65C257.56 513.883 256.277 514.093 254.923 514.28C253.617 514.467 252.263 514.607 250.863 514.7C249.51 514.84 248.203 514.91 246.943 514.91C243.91 514.91 241.203 514.467 238.823 513.58C236.443 512.693 234.437 511.433 232.803 509.8C231.17 508.12 229.91 506.113 229.023 503.78C228.183 501.4 227.763 498.74 227.763 495.8C227.763 492.813 228.137 490.13 228.883 487.75C229.63 485.323 230.703 483.27 232.103 481.59C233.503 479.91 235.207 478.627 237.213 477.74C239.267 476.853 241.6 476.41 244.213 476.41C245.66 476.41 246.943 476.55 248.063 476.83C249.23 477.11 250.397 477.507 251.563 478.02V461.36L261.993 459.68V512.81ZM303.189 512.74C301.416 513.253 299.129 513.72 296.329 514.14C293.529 514.607 290.589 514.84 287.509 514.84C284.383 514.84 281.769 514.42 279.669 513.58C277.616 512.74 275.983 511.573 274.769 510.08C273.556 508.54 272.693 506.72 272.179 504.62C271.666 502.52 271.409 500.21 271.409 497.69V477.18H281.839V496.43C281.839 499.79 282.283 502.217 283.169 503.71C284.056 505.203 285.713 505.95 288.139 505.95C288.886 505.95 289.679 505.927 290.519 505.88C291.359 505.787 292.106 505.693 292.759 505.6V477.18H303.189V512.74ZM312.63 468.01L323.06 466.33V477.18H335.59V485.86H323.06V498.81C323.06 501.003 323.433 502.753 324.18 504.06C324.973 505.367 326.537 506.02 328.87 506.02C329.99 506.02 331.133 505.927 332.3 505.74C333.513 505.507 334.61 505.203 335.59 504.83L337.06 512.95C335.8 513.463 334.4 513.907 332.86 514.28C331.32 514.653 329.43 514.84 327.19 514.84C324.343 514.84 321.987 514.467 320.12 513.72C318.253 512.927 316.76 511.853 315.64 510.5C314.52 509.1 313.727 507.42 313.26 505.46C312.84 503.5 312.63 501.33 312.63 498.95V468.01ZM377.156 495.52C377.156 498.413 376.736 501.073 375.896 503.5C375.056 505.88 373.843 507.933 372.256 509.66C370.67 511.34 368.756 512.647 366.516 513.58C364.323 514.513 361.85 514.98 359.096 514.98C356.39 514.98 353.916 514.513 351.676 513.58C349.483 512.647 347.593 511.34 346.006 509.66C344.42 507.933 343.183 505.88 342.296 503.5C341.41 501.073 340.966 498.413 340.966 495.52C340.966 492.627 341.41 489.99 342.296 487.61C343.23 485.23 344.49 483.2 346.076 481.52C347.71 479.84 349.623 478.533 351.816 477.6C354.056 476.667 356.483 476.2 359.096 476.2C361.756 476.2 364.183 476.667 366.376 477.6C368.616 478.533 370.53 479.84 372.116 481.52C373.703 483.2 374.94 485.23 375.826 487.61C376.713 489.99 377.156 492.627 377.156 495.52ZM366.516 495.52C366.516 492.3 365.863 489.78 364.556 487.96C363.296 486.093 361.476 485.16 359.096 485.16C356.716 485.16 354.873 486.093 353.566 487.96C352.26 489.78 351.606 492.3 351.606 495.52C351.606 498.74 352.26 501.307 353.566 503.22C354.873 505.087 356.716 506.02 359.096 506.02C361.476 506.02 363.296 505.087 364.556 503.22C365.863 501.307 366.516 498.74 366.516 495.52ZM395.806 506.51C397.719 506.51 399.073 506.323 399.866 505.95C400.659 505.577 401.056 504.853 401.056 503.78C401.056 502.94 400.543 502.217 399.516 501.61C398.489 500.957 396.926 500.233 394.826 499.44C393.193 498.833 391.699 498.203 390.346 497.55C389.039 496.897 387.919 496.127 386.986 495.24C386.053 494.307 385.329 493.21 384.816 491.95C384.303 490.69 384.046 489.173 384.046 487.4C384.046 483.947 385.329 481.217 387.896 479.21C390.463 477.203 393.986 476.2 398.466 476.2C400.706 476.2 402.853 476.41 404.906 476.83C406.959 477.203 408.593 477.623 409.806 478.09L407.986 486.21C406.773 485.79 405.443 485.417 403.996 485.09C402.596 484.763 401.009 484.6 399.236 484.6C395.969 484.6 394.336 485.51 394.336 487.33C394.336 487.75 394.406 488.123 394.546 488.45C394.686 488.777 394.966 489.103 395.386 489.43C395.806 489.71 396.366 490.037 397.066 490.41C397.813 490.737 398.746 491.11 399.866 491.53C402.153 492.37 404.043 493.21 405.536 494.05C407.029 494.843 408.196 495.73 409.036 496.71C409.923 497.643 410.529 498.693 410.856 499.86C411.229 501.027 411.416 502.38 411.416 503.92C411.416 507.56 410.039 510.313 407.286 512.18C404.579 514.047 400.729 514.98 395.736 514.98C392.469 514.98 389.739 514.7 387.546 514.14C385.399 513.58 383.906 513.113 383.066 512.74L384.816 504.27C386.589 504.97 388.409 505.53 390.276 505.95C392.143 506.323 393.986 506.51 395.806 506.51ZM444.917 495.31C444.917 498.53 445.64 501.12 447.087 503.08C448.534 505.04 450.68 506.02 453.527 506.02C454.46 506.02 455.324 505.997 456.117 505.95C456.91 505.857 457.564 505.763 458.077 505.67V486.7C457.424 486.28 456.56 485.93 455.487 485.65C454.46 485.37 453.41 485.23 452.337 485.23C447.39 485.23 444.917 488.59 444.917 495.31ZM468.507 512.81C467.574 513.09 466.5 513.37 465.287 513.65C464.074 513.883 462.79 514.093 461.437 514.28C460.13 514.467 458.777 514.607 457.377 514.7C456.024 514.84 454.717 514.91 453.457 514.91C450.424 514.91 447.717 514.467 445.337 513.58C442.957 512.693 440.95 511.433 439.317 509.8C437.684 508.12 436.424 506.113 435.537 503.78C434.697 501.4 434.277 498.74 434.277 495.8C434.277 492.813 434.65 490.13 435.397 487.75C436.144 485.323 437.217 483.27 438.617 481.59C440.017 479.91 441.72 478.627 443.727 477.74C445.78 476.853 448.114 476.41 450.727 476.41C452.174 476.41 453.457 476.55 454.577 476.83C455.744 477.11 456.91 477.507 458.077 478.02V461.36L468.507 459.68V512.81ZM492.343 506.72C493.37 506.72 494.35 506.697 495.283 506.65C496.216 506.603 496.963 506.533 497.523 506.44V498.53C497.103 498.437 496.473 498.343 495.633 498.25C494.793 498.157 494.023 498.11 493.323 498.11C492.343 498.11 491.41 498.18 490.523 498.32C489.683 498.413 488.936 498.623 488.283 498.95C487.63 499.277 487.116 499.72 486.743 500.28C486.37 500.84 486.183 501.54 486.183 502.38C486.183 504.013 486.72 505.157 487.793 505.81C488.913 506.417 490.43 506.72 492.343 506.72ZM491.503 476.2C494.583 476.2 497.15 476.55 499.203 477.25C501.256 477.95 502.89 478.953 504.103 480.26C505.363 481.567 506.25 483.153 506.763 485.02C507.276 486.887 507.533 488.963 507.533 491.25V512.95C506.04 513.277 503.963 513.65 501.303 514.07C498.643 514.537 495.423 514.77 491.643 514.77C489.263 514.77 487.093 514.56 485.133 514.14C483.22 513.72 481.563 513.043 480.163 512.11C478.763 511.13 477.69 509.87 476.943 508.33C476.196 506.79 475.823 504.9 475.823 502.66C475.823 500.513 476.243 498.693 477.083 497.2C477.97 495.707 479.136 494.517 480.583 493.63C482.03 492.743 483.686 492.113 485.553 491.74C487.42 491.32 489.356 491.11 491.363 491.11C492.716 491.11 493.906 491.18 494.933 491.32C496.006 491.413 496.87 491.553 497.523 491.74V490.76C497.523 488.987 496.986 487.563 495.913 486.49C494.84 485.417 492.973 484.88 490.313 484.88C488.54 484.88 486.79 485.02 485.063 485.3C483.336 485.533 481.843 485.883 480.583 486.35L479.253 477.95C479.86 477.763 480.606 477.577 481.493 477.39C482.426 477.157 483.43 476.97 484.503 476.83C485.576 476.643 486.696 476.503 487.863 476.41C489.076 476.27 490.29 476.2 491.503 476.2ZM566.961 514C566.448 512.32 565.864 510.593 565.211 508.82C564.604 507.047 563.998 505.273 563.391 503.5H544.491C543.884 505.273 543.254 507.047 542.601 508.82C541.994 510.593 541.434 512.32 540.921 514H529.581C531.401 508.773 533.128 503.943 534.761 499.51C536.394 495.077 537.981 490.9 539.521 486.98C541.108 483.06 542.648 479.35 544.141 475.85C545.681 472.303 547.268 468.85 548.901 465.49H559.331C560.918 468.85 562.481 472.303 564.021 475.85C565.561 479.35 567.101 483.06 568.641 486.98C570.228 490.9 571.838 495.077 573.471 499.51C575.104 503.943 576.831 508.773 578.651 514H566.961ZM553.871 476.48C553.638 477.18 553.288 478.137 552.821 479.35C552.354 480.563 551.818 481.963 551.211 483.55C550.604 485.137 549.928 486.887 549.181 488.8C548.481 490.713 547.758 492.72 547.011 494.82H560.801C560.054 492.72 559.331 490.713 558.631 488.8C557.931 486.887 557.254 485.137 556.601 483.55C555.994 481.963 555.458 480.563 554.991 479.35C554.524 478.137 554.151 477.18 553.871 476.48ZM607.82 495.87C607.82 492.65 607.097 490.083 605.65 488.17C604.203 486.21 602.057 485.23 599.21 485.23C598.277 485.23 597.413 485.277 596.62 485.37C595.827 485.417 595.173 485.487 594.66 485.58V504.41C595.313 504.83 596.153 505.18 597.18 505.46C598.253 505.74 599.327 505.88 600.4 505.88C605.347 505.88 607.82 502.543 607.82 495.87ZM618.46 495.59C618.46 498.437 618.11 501.027 617.41 503.36C616.71 505.693 615.683 507.7 614.33 509.38C612.977 511.06 611.297 512.367 609.29 513.3C607.283 514.233 604.973 514.7 602.36 514.7C600.913 514.7 599.56 514.56 598.3 514.28C597.04 514 595.827 513.603 594.66 513.09V526.95H584.23V478.44C585.163 478.16 586.237 477.903 587.45 477.67C588.663 477.39 589.923 477.157 591.23 476.97C592.583 476.783 593.937 476.643 595.29 476.55C596.69 476.41 598.02 476.34 599.28 476.34C602.313 476.34 605.02 476.807 607.4 477.74C609.78 478.627 611.787 479.91 613.42 481.59C615.053 483.223 616.29 485.23 617.13 487.61C618.017 489.99 618.46 492.65 618.46 495.59ZM650.066 495.87C650.066 492.65 649.343 490.083 647.896 488.17C646.45 486.21 644.303 485.23 641.456 485.23C640.523 485.23 639.66 485.277 638.866 485.37C638.073 485.417 637.42 485.487 636.906 485.58V504.41C637.56 504.83 638.4 505.18 639.426 505.46C640.5 505.74 641.573 505.88 642.646 505.88C647.593 505.88 650.066 502.543 650.066 495.87ZM660.706 495.59C660.706 498.437 660.356 501.027 659.656 503.36C658.956 505.693 657.93 507.7 656.576 509.38C655.223 511.06 653.543 512.367 651.536 513.3C649.53 514.233 647.22 514.7 644.606 514.7C643.16 514.7 641.806 514.56 640.546 514.28C639.286 514 638.073 513.603 636.906 513.09V526.95H626.476V478.44C627.41 478.16 628.483 477.903 629.696 477.67C630.91 477.39 632.17 477.157 633.476 476.97C634.83 476.783 636.183 476.643 637.536 476.55C638.936 476.41 640.266 476.34 641.526 476.34C644.56 476.34 647.266 476.807 649.646 477.74C652.026 478.627 654.033 479.91 655.666 481.59C657.3 483.223 658.536 485.23 659.376 487.61C660.263 489.99 660.706 492.65 660.706 495.59ZM683.422 514.7C680.389 514.653 677.916 514.327 676.002 513.72C674.136 513.113 672.642 512.273 671.522 511.2C670.449 510.08 669.702 508.75 669.282 507.21C668.909 505.623 668.722 503.85 668.722 501.89V461.36L679.152 459.68V499.79C679.152 500.723 679.222 501.563 679.362 502.31C679.502 503.057 679.759 503.687 680.132 504.2C680.552 504.713 681.136 505.133 681.882 505.46C682.629 505.787 683.632 505.997 684.892 506.09L683.422 514.7ZM689.121 495.87C689.121 492.603 689.611 489.757 690.591 487.33C691.617 484.857 692.947 482.803 694.581 481.17C696.214 479.537 698.081 478.3 700.181 477.46C702.327 476.62 704.521 476.2 706.761 476.2C711.987 476.2 716.117 477.81 719.151 481.03C722.184 484.203 723.701 488.893 723.701 495.1C723.701 495.707 723.677 496.383 723.631 497.13C723.584 497.83 723.537 498.46 723.491 499.02H699.831C700.064 501.167 701.067 502.87 702.841 504.13C704.614 505.39 706.994 506.02 709.981 506.02C711.894 506.02 713.761 505.857 715.581 505.53C717.447 505.157 718.964 504.713 720.131 504.2L721.531 512.67C720.971 512.95 720.224 513.23 719.291 513.51C718.357 513.79 717.307 514.023 716.141 514.21C715.021 514.443 713.807 514.63 712.501 514.77C711.194 514.91 709.887 514.98 708.581 514.98C705.267 514.98 702.374 514.49 699.901 513.51C697.474 512.53 695.444 511.2 693.811 509.52C692.224 507.793 691.034 505.763 690.241 503.43C689.494 501.097 689.121 498.577 689.121 495.87ZM713.621 491.88C713.574 490.993 713.411 490.13 713.131 489.29C712.897 488.45 712.501 487.703 711.941 487.05C711.427 486.397 710.751 485.86 709.911 485.44C709.117 485.02 708.114 484.81 706.901 484.81C705.734 484.81 704.731 485.02 703.891 485.44C703.051 485.813 702.351 486.327 701.791 486.98C701.231 487.633 700.787 488.403 700.461 489.29C700.181 490.13 699.971 490.993 699.831 491.88H713.621ZM772.156 495.87C772.156 492.65 771.433 490.083 769.986 488.17C768.539 486.21 766.393 485.23 763.546 485.23C762.613 485.23 761.749 485.277 760.956 485.37C760.163 485.417 759.509 485.487 758.996 485.58V504.41C759.649 504.83 760.489 505.18 761.516 505.46C762.589 505.74 763.663 505.88 764.736 505.88C769.683 505.88 772.156 502.543 772.156 495.87ZM782.796 495.59C782.796 498.437 782.446 501.027 781.746 503.36C781.046 505.693 780.019 507.7 778.666 509.38C777.313 511.06 775.633 512.367 773.626 513.3C771.619 514.233 769.309 514.7 766.696 514.7C765.249 514.7 763.896 514.56 762.636 514.28C761.376 514 760.163 513.603 758.996 513.09V526.95H748.566V478.44C749.499 478.16 750.573 477.903 751.786 477.67C752.999 477.39 754.259 477.157 755.566 476.97C756.919 476.783 758.273 476.643 759.626 476.55C761.026 476.41 762.356 476.34 763.616 476.34C766.649 476.34 769.356 476.807 771.736 477.74C774.116 478.627 776.123 479.91 777.756 481.59C779.389 483.223 780.626 485.23 781.466 487.61C782.353 489.99 782.796 492.65 782.796 495.59ZM813.002 486.42C812.069 486.187 810.972 485.953 809.712 485.72C808.452 485.44 807.099 485.3 805.652 485.3C804.999 485.3 804.205 485.37 803.272 485.51C802.385 485.603 801.709 485.72 801.242 485.86V514H790.812V479.14C792.679 478.487 794.872 477.88 797.392 477.32C799.959 476.713 802.805 476.41 805.932 476.41C806.492 476.41 807.169 476.457 807.962 476.55C808.755 476.597 809.549 476.69 810.342 476.83C811.135 476.923 811.929 477.063 812.722 477.25C813.515 477.39 814.192 477.577 814.752 477.81L813.002 486.42ZM817.91 495.87C817.91 492.603 818.4 489.757 819.38 487.33C820.406 484.857 821.736 482.803 823.37 481.17C825.003 479.537 826.87 478.3 828.97 477.46C831.116 476.62 833.31 476.2 835.55 476.2C840.776 476.2 844.906 477.81 847.94 481.03C850.973 484.203 852.49 488.893 852.49 495.1C852.49 495.707 852.466 496.383 852.42 497.13C852.373 497.83 852.326 498.46 852.28 499.02H828.62C828.853 501.167 829.856 502.87 831.63 504.13C833.403 505.39 835.783 506.02 838.77 506.02C840.683 506.02 842.55 505.857 844.37 505.53C846.236 505.157 847.753 504.713 848.92 504.2L850.32 512.67C849.76 512.95 849.013 513.23 848.08 513.51C847.146 513.79 846.096 514.023 844.93 514.21C843.81 514.443 842.596 514.63 841.29 514.77C839.983 514.91 838.676 514.98 837.37 514.98C834.056 514.98 831.163 514.49 828.69 513.51C826.263 512.53 824.233 511.2 822.6 509.52C821.013 507.793 819.823 505.763 819.03 503.43C818.283 501.097 817.91 498.577 817.91 495.87ZM842.41 491.88C842.363 490.993 842.2 490.13 841.92 489.29C841.686 488.45 841.29 487.703 840.73 487.05C840.216 486.397 839.54 485.86 838.7 485.44C837.906 485.02 836.903 484.81 835.69 484.81C834.523 484.81 833.52 485.02 832.68 485.44C831.84 485.813 831.14 486.327 830.58 486.98C830.02 487.633 829.576 488.403 829.25 489.29C828.97 490.13 828.76 490.993 828.62 491.88H842.41ZM858.789 495.59C858.789 492.93 859.209 490.433 860.049 488.1C860.935 485.72 862.195 483.667 863.829 481.94C865.462 480.167 867.445 478.767 869.779 477.74C872.112 476.713 874.772 476.2 877.759 476.2C879.719 476.2 881.515 476.387 883.149 476.76C884.782 477.087 886.369 477.577 887.909 478.23L885.739 486.56C884.759 486.187 883.685 485.86 882.519 485.58C881.352 485.3 880.045 485.16 878.599 485.16C875.519 485.16 873.209 486.117 871.669 488.03C870.175 489.943 869.429 492.463 869.429 495.59C869.429 498.903 870.129 501.47 871.529 503.29C872.975 505.11 875.472 506.02 879.019 506.02C880.279 506.02 881.632 505.903 883.079 505.67C884.525 505.437 885.855 505.063 887.069 504.55L888.539 513.09C887.325 513.603 885.809 514.047 883.989 514.42C882.169 514.793 880.162 514.98 877.969 514.98C874.609 514.98 871.715 514.49 869.289 513.51C866.862 512.483 864.855 511.107 863.269 509.38C861.729 507.653 860.585 505.623 859.839 503.29C859.139 500.91 858.789 498.343 858.789 495.59ZM905.969 514H895.539V477.18H905.969V514ZM906.949 466.54C906.949 468.453 906.319 469.97 905.059 471.09C903.845 472.163 902.399 472.7 900.719 472.7C899.039 472.7 897.569 472.163 896.309 471.09C895.095 469.97 894.489 468.453 894.489 466.54C894.489 464.627 895.095 463.133 896.309 462.06C897.569 460.94 899.039 460.38 900.719 460.38C902.399 460.38 903.845 460.94 905.059 462.06C906.319 463.133 906.949 464.627 906.949 466.54ZM926.343 506.51C928.256 506.51 929.61 506.323 930.403 505.95C931.196 505.577 931.593 504.853 931.593 503.78C931.593 502.94 931.08 502.217 930.053 501.61C929.026 500.957 927.463 500.233 925.363 499.44C923.73 498.833 922.236 498.203 920.883 497.55C919.576 496.897 918.456 496.127 917.523 495.24C916.59 494.307 915.866 493.21 915.353 491.95C914.84 490.69 914.583 489.173 914.583 487.4C914.583 483.947 915.866 481.217 918.433 479.21C921 477.203 924.523 476.2 929.003 476.2C931.243 476.2 933.39 476.41 935.443 476.83C937.496 477.203 939.13 477.623 940.343 478.09L938.523 486.21C937.31 485.79 935.98 485.417 934.533 485.09C933.133 484.763 931.546 484.6 929.773 484.6C926.506 484.6 924.873 485.51 924.873 487.33C924.873 487.75 924.943 488.123 925.083 488.45C925.223 488.777 925.503 489.103 925.923 489.43C926.343 489.71 926.903 490.037 927.603 490.41C928.35 490.737 929.283 491.11 930.403 491.53C932.69 492.37 934.58 493.21 936.073 494.05C937.566 494.843 938.733 495.73 939.573 496.71C940.46 497.643 941.066 498.693 941.393 499.86C941.766 501.027 941.953 502.38 941.953 503.92C941.953 507.56 940.576 510.313 937.823 512.18C935.116 514.047 931.266 514.98 926.273 514.98C923.006 514.98 920.276 514.7 918.083 514.14C915.936 513.58 914.443 513.113 913.603 512.74L915.353 504.27C917.126 504.97 918.946 505.53 920.813 505.95C922.68 506.323 924.523 506.51 926.343 506.51ZM963.818 506.72C964.844 506.72 965.824 506.697 966.758 506.65C967.691 506.603 968.438 506.533 968.998 506.44V498.53C968.578 498.437 967.948 498.343 967.108 498.25C966.268 498.157 965.498 498.11 964.798 498.11C963.818 498.11 962.884 498.18 961.998 498.32C961.158 498.413 960.411 498.623 959.758 498.95C959.104 499.277 958.591 499.72 958.218 500.28C957.844 500.84 957.658 501.54 957.658 502.38C957.658 504.013 958.194 505.157 959.268 505.81C960.388 506.417 961.904 506.72 963.818 506.72ZM962.978 476.2C966.058 476.2 968.624 476.55 970.678 477.25C972.731 477.95 974.364 478.953 975.578 480.26C976.838 481.567 977.724 483.153 978.238 485.02C978.751 486.887 979.008 488.963 979.008 491.25V512.95C977.514 513.277 975.438 513.65 972.778 514.07C970.118 514.537 966.898 514.77 963.118 514.77C960.738 514.77 958.568 514.56 956.608 514.14C954.694 513.72 953.038 513.043 951.638 512.11C950.238 511.13 949.164 509.87 948.418 508.33C947.671 506.79 947.298 504.9 947.298 502.66C947.298 500.513 947.718 498.693 948.558 497.2C949.444 495.707 950.611 494.517 952.058 493.63C953.504 492.743 955.161 492.113 957.028 491.74C958.894 491.32 960.831 491.11 962.838 491.11C964.191 491.11 965.381 491.18 966.408 491.32C967.481 491.413 968.344 491.553 968.998 491.74V490.76C968.998 488.987 968.461 487.563 967.388 486.49C966.314 485.417 964.448 484.88 961.788 484.88C960.014 484.88 958.264 485.02 956.538 485.3C954.811 485.533 953.318 485.883 952.058 486.35L950.728 477.95C951.334 477.763 952.081 477.577 952.968 477.39C953.901 477.157 954.904 476.97 955.978 476.83C957.051 476.643 958.171 476.503 959.338 476.41C960.551 476.27 961.764 476.2 962.978 476.2ZM997.56 514C995.18 509.333 992.754 503.873 990.28 497.62C987.854 491.367 985.544 484.553 983.35 477.18H994.41C994.877 479 995.414 480.983 996.02 483.13C996.674 485.23 997.327 487.377 997.98 489.57C998.68 491.717 999.357 493.817 1000.01 495.87C1000.71 497.923 1001.39 499.79 1002.04 501.47C1002.65 499.79 1003.3 497.923 1004 495.87C1004.7 493.817 1005.38 491.717 1006.03 489.57C1006.73 487.377 1007.38 485.23 1007.99 483.13C1008.64 480.983 1009.2 479 1009.67 477.18H1020.45C1018.26 484.553 1015.92 491.367 1013.45 497.62C1011.02 503.873 1008.62 509.333 1006.24 514H997.56ZM1039.42 506.72C1040.45 506.72 1041.43 506.697 1042.36 506.65C1043.3 506.603 1044.04 506.533 1044.6 506.44V498.53C1044.18 498.437 1043.55 498.343 1042.71 498.25C1041.87 498.157 1041.1 498.11 1040.4 498.11C1039.42 498.11 1038.49 498.18 1037.6 498.32C1036.76 498.413 1036.02 498.623 1035.36 498.95C1034.71 499.277 1034.2 499.72 1033.82 500.28C1033.45 500.84 1033.26 501.54 1033.26 502.38C1033.26 504.013 1033.8 505.157 1034.87 505.81C1035.99 506.417 1037.51 506.72 1039.42 506.72ZM1038.58 476.2C1041.66 476.2 1044.23 476.55 1046.28 477.25C1048.34 477.95 1049.97 478.953 1051.18 480.26C1052.44 481.567 1053.33 483.153 1053.84 485.02C1054.36 486.887 1054.61 488.963 1054.61 491.25V512.95C1053.12 513.277 1051.04 513.65 1048.38 514.07C1045.72 514.537 1042.5 514.77 1038.72 514.77C1036.34 514.77 1034.17 514.56 1032.21 514.14C1030.3 513.72 1028.64 513.043 1027.24 512.11C1025.84 511.13 1024.77 509.87 1024.02 508.33C1023.28 506.79 1022.9 504.9 1022.9 502.66C1022.9 500.513 1023.32 498.693 1024.16 497.2C1025.05 495.707 1026.22 494.517 1027.66 493.63C1029.11 492.743 1030.77 492.113 1032.63 491.74C1034.5 491.32 1036.44 491.11 1038.44 491.11C1039.8 491.11 1040.99 491.18 1042.01 491.32C1043.09 491.413 1043.95 491.553 1044.6 491.74V490.76C1044.6 488.987 1044.07 487.563 1042.99 486.49C1041.92 485.417 1040.05 484.88 1037.39 484.88C1035.62 484.88 1033.87 485.02 1032.14 485.3C1030.42 485.533 1028.92 485.883 1027.66 486.35L1026.33 477.95C1026.94 477.763 1027.69 477.577 1028.57 477.39C1029.51 477.157 1030.51 476.97 1031.58 476.83C1032.66 476.643 1033.78 476.503 1034.94 476.41C1036.16 476.27 1037.37 476.2 1038.58 476.2ZM1084.27 494.47C1084.27 491.11 1083.83 488.73 1082.94 487.33C1082.1 485.93 1080.63 485.23 1078.53 485.23C1077.88 485.23 1077.2 485.277 1076.5 485.37C1075.8 485.417 1075.13 485.487 1074.47 485.58V514H1064.04V478.44C1064.93 478.207 1065.96 477.973 1067.12 477.74C1068.34 477.46 1069.6 477.227 1070.9 477.04C1072.26 476.807 1073.63 476.643 1075.03 476.55C1076.43 476.41 1077.81 476.34 1079.16 476.34C1081.82 476.34 1083.97 476.69 1085.6 477.39C1087.28 478.043 1088.66 478.837 1089.73 479.77C1091.23 478.697 1092.93 477.857 1094.84 477.25C1096.8 476.643 1098.6 476.34 1100.23 476.34C1103.17 476.34 1105.58 476.76 1107.44 477.6C1109.36 478.393 1110.87 479.537 1111.99 481.03C1113.11 482.523 1113.88 484.297 1114.3 486.35C1114.72 488.403 1114.93 490.69 1114.93 493.21V514H1104.5V494.47C1104.5 491.11 1104.06 488.73 1103.17 487.33C1102.33 485.93 1100.86 485.23 1098.76 485.23C1098.2 485.23 1097.41 485.37 1096.38 485.65C1095.4 485.93 1094.59 486.28 1093.93 486.7C1094.26 487.773 1094.47 488.917 1094.56 490.13C1094.66 491.297 1094.7 492.557 1094.7 493.91V514H1084.27V494.47ZM114.15 565.59C114.15 562.93 114.57 560.433 115.41 558.1C116.297 555.72 117.557 553.667 119.19 551.94C120.823 550.167 122.807 548.767 125.14 547.74C127.473 546.713 130.133 546.2 133.12 546.2C135.08 546.2 136.877 546.387 138.51 546.76C140.143 547.087 141.73 547.577 143.27 548.23L141.1 556.56C140.12 556.187 139.047 555.86 137.88 555.58C136.713 555.3 135.407 555.16 133.96 555.16C130.88 555.16 128.57 556.117 127.03 558.03C125.537 559.943 124.79 562.463 124.79 565.59C124.79 568.903 125.49 571.47 126.89 573.29C128.337 575.11 130.833 576.02 134.38 576.02C135.64 576.02 136.993 575.903 138.44 575.67C139.887 575.437 141.217 575.063 142.43 574.55L143.9 583.09C142.687 583.603 141.17 584.047 139.35 584.42C137.53 584.793 135.523 584.98 133.33 584.98C129.97 584.98 127.077 584.49 124.65 583.51C122.223 582.483 120.217 581.107 118.63 579.38C117.09 577.653 115.947 575.623 115.2 573.29C114.5 570.91 114.15 568.343 114.15 565.59ZM183.563 565.52C183.563 568.413 183.143 571.073 182.303 573.5C181.463 575.88 180.249 577.933 178.663 579.66C177.076 581.34 175.163 582.647 172.923 583.58C170.729 584.513 168.256 584.98 165.503 584.98C162.796 584.98 160.323 584.513 158.083 583.58C155.889 582.647 153.999 581.34 152.413 579.66C150.826 577.933 149.589 575.88 148.703 573.5C147.816 571.073 147.373 568.413 147.373 565.52C147.373 562.627 147.816 559.99 148.703 557.61C149.636 555.23 150.896 553.2 152.483 551.52C154.116 549.84 156.029 548.533 158.223 547.6C160.463 546.667 162.889 546.2 165.503 546.2C168.163 546.2 170.589 546.667 172.783 547.6C175.023 548.533 176.936 549.84 178.523 551.52C180.109 553.2 181.346 555.23 182.233 557.61C183.119 559.99 183.563 562.627 183.563 565.52ZM172.923 565.52C172.923 562.3 172.269 559.78 170.963 557.96C169.703 556.093 167.883 555.16 165.503 555.16C163.123 555.16 161.279 556.093 159.973 557.96C158.666 559.78 158.013 562.3 158.013 565.52C158.013 568.74 158.666 571.307 159.973 573.22C161.279 575.087 163.123 576.02 165.503 576.02C167.883 576.02 169.703 575.087 170.963 573.22C172.269 571.307 172.923 568.74 172.923 565.52ZM191.642 548.44C193.416 547.927 195.702 547.46 198.502 547.04C201.302 546.573 204.242 546.34 207.322 546.34C210.449 546.34 213.039 546.76 215.092 547.6C217.192 548.393 218.849 549.537 220.062 551.03C221.276 552.523 222.139 554.297 222.652 556.35C223.166 558.403 223.422 560.69 223.422 563.21V584H212.992V564.47C212.992 561.11 212.549 558.73 211.662 557.33C210.776 555.93 209.119 555.23 206.692 555.23C205.946 555.23 205.152 555.277 204.312 555.37C203.472 555.417 202.726 555.487 202.072 555.58V584H191.642V548.44ZM243.433 576.51C245.346 576.51 246.7 576.323 247.493 575.95C248.286 575.577 248.683 574.853 248.683 573.78C248.683 572.94 248.17 572.217 247.143 571.61C246.116 570.957 244.553 570.233 242.453 569.44C240.82 568.833 239.326 568.203 237.973 567.55C236.666 566.897 235.546 566.127 234.613 565.24C233.68 564.307 232.956 563.21 232.443 561.95C231.93 560.69 231.673 559.173 231.673 557.4C231.673 553.947 232.956 551.217 235.523 549.21C238.09 547.203 241.613 546.2 246.093 546.2C248.333 546.2 250.48 546.41 252.533 546.83C254.586 547.203 256.22 547.623 257.433 548.09L255.613 556.21C254.4 555.79 253.07 555.417 251.623 555.09C250.223 554.763 248.636 554.6 246.863 554.6C243.596 554.6 241.963 555.51 241.963 557.33C241.963 557.75 242.033 558.123 242.173 558.45C242.313 558.777 242.593 559.103 243.013 559.43C243.433 559.71 243.993 560.037 244.693 560.41C245.44 560.737 246.373 561.11 247.493 561.53C249.78 562.37 251.67 563.21 253.163 564.05C254.656 564.843 255.823 565.73 256.663 566.71C257.55 567.643 258.156 568.693 258.483 569.86C258.856 571.027 259.043 572.38 259.043 573.92C259.043 577.56 257.666 580.313 254.913 582.18C252.206 584.047 248.356 584.98 243.363 584.98C240.096 584.98 237.366 584.7 235.173 584.14C233.026 583.58 231.533 583.113 230.693 582.74L232.443 574.27C234.216 574.97 236.036 575.53 237.903 575.95C239.77 576.323 241.613 576.51 243.433 576.51ZM277.268 584H266.838V547.18H277.268V584ZM278.248 536.54C278.248 538.453 277.618 539.97 276.358 541.09C275.144 542.163 273.698 542.7 272.018 542.7C270.338 542.7 268.868 542.163 267.608 541.09C266.394 539.97 265.788 538.453 265.788 536.54C265.788 534.627 266.394 533.133 267.608 532.06C268.868 530.94 270.338 530.38 272.018 530.38C273.698 530.38 275.144 530.94 276.358 532.06C277.618 533.133 278.248 534.627 278.248 536.54ZM295.962 565.31C295.962 568.53 296.685 571.12 298.132 573.08C299.579 575.04 301.725 576.02 304.572 576.02C305.505 576.02 306.369 575.997 307.162 575.95C307.955 575.857 308.609 575.763 309.122 575.67V556.7C308.469 556.28 307.605 555.93 306.532 555.65C305.505 555.37 304.455 555.23 303.382 555.23C298.435 555.23 295.962 558.59 295.962 565.31ZM319.552 582.81C318.619 583.09 317.545 583.37 316.332 583.65C315.119 583.883 313.835 584.093 312.482 584.28C311.175 584.467 309.822 584.607 308.422 584.7C307.069 584.84 305.762 584.91 304.502 584.91C301.469 584.91 298.762 584.467 296.382 583.58C294.002 582.693 291.995 581.433 290.362 579.8C288.729 578.12 287.469 576.113 286.582 573.78C285.742 571.4 285.322 568.74 285.322 565.8C285.322 562.813 285.695 560.13 286.442 557.75C287.189 555.323 288.262 553.27 289.662 551.59C291.062 549.91 292.765 548.627 294.772 547.74C296.825 546.853 299.159 546.41 301.772 546.41C303.219 546.41 304.502 546.55 305.622 546.83C306.789 547.11 307.955 547.507 309.122 548.02V531.36L319.552 529.68V582.81ZM327.568 565.87C327.568 562.603 328.058 559.757 329.038 557.33C330.065 554.857 331.395 552.803 333.028 551.17C334.661 549.537 336.528 548.3 338.628 547.46C340.775 546.62 342.968 546.2 345.208 546.2C350.435 546.2 354.565 547.81 357.598 551.03C360.631 554.203 362.148 558.893 362.148 565.1C362.148 565.707 362.125 566.383 362.078 567.13C362.031 567.83 361.985 568.46 361.938 569.02H338.278C338.511 571.167 339.515 572.87 341.288 574.13C343.061 575.39 345.441 576.02 348.428 576.02C350.341 576.02 352.208 575.857 354.028 575.53C355.895 575.157 357.411 574.713 358.578 574.2L359.978 582.67C359.418 582.95 358.671 583.23 357.738 583.51C356.805 583.79 355.755 584.023 354.588 584.21C353.468 584.443 352.255 584.63 350.948 584.77C349.641 584.91 348.335 584.98 347.028 584.98C343.715 584.98 340.821 584.49 338.348 583.51C335.921 582.53 333.891 581.2 332.258 579.52C330.671 577.793 329.481 575.763 328.688 573.43C327.941 571.097 327.568 568.577 327.568 565.87ZM352.068 561.88C352.021 560.993 351.858 560.13 351.578 559.29C351.345 558.45 350.948 557.703 350.388 557.05C349.875 556.397 349.198 555.86 348.358 555.44C347.565 555.02 346.561 554.81 345.348 554.81C344.181 554.81 343.178 555.02 342.338 555.44C341.498 555.813 340.798 556.327 340.238 556.98C339.678 557.633 339.235 558.403 338.908 559.29C338.628 560.13 338.418 560.993 338.278 561.88H352.068ZM392.387 556.42C391.454 556.187 390.357 555.953 389.097 555.72C387.837 555.44 386.484 555.3 385.037 555.3C384.384 555.3 383.59 555.37 382.657 555.51C381.77 555.603 381.094 555.72 380.627 555.86V584H370.197V549.14C372.064 548.487 374.257 547.88 376.777 547.32C379.344 546.713 382.19 546.41 385.317 546.41C385.877 546.41 386.554 546.457 387.347 546.55C388.14 546.597 388.934 546.69 389.727 546.83C390.52 546.923 391.314 547.063 392.107 547.25C392.9 547.39 393.577 547.577 394.137 547.81L392.387 556.42ZM413.115 576.72C414.141 576.72 415.121 576.697 416.055 576.65C416.988 576.603 417.735 576.533 418.295 576.44V568.53C417.875 568.437 417.245 568.343 416.405 568.25C415.565 568.157 414.795 568.11 414.095 568.11C413.115 568.11 412.181 568.18 411.295 568.32C410.455 568.413 409.708 568.623 409.055 568.95C408.401 569.277 407.888 569.72 407.515 570.28C407.141 570.84 406.955 571.54 406.955 572.38C406.955 574.013 407.491 575.157 408.565 575.81C409.685 576.417 411.201 576.72 413.115 576.72ZM412.275 546.2C415.355 546.2 417.921 546.55 419.975 547.25C422.028 547.95 423.661 548.953 424.875 550.26C426.135 551.567 427.021 553.153 427.535 555.02C428.048 556.887 428.305 558.963 428.305 561.25V582.95C426.811 583.277 424.735 583.65 422.075 584.07C419.415 584.537 416.195 584.77 412.415 584.77C410.035 584.77 407.865 584.56 405.905 584.14C403.991 583.72 402.335 583.043 400.935 582.11C399.535 581.13 398.461 579.87 397.715 578.33C396.968 576.79 396.595 574.9 396.595 572.66C396.595 570.513 397.015 568.693 397.855 567.2C398.741 565.707 399.908 564.517 401.355 563.63C402.801 562.743 404.458 562.113 406.325 561.74C408.191 561.32 410.128 561.11 412.135 561.11C413.488 561.11 414.678 561.18 415.705 561.32C416.778 561.413 417.641 561.553 418.295 561.74V560.76C418.295 558.987 417.758 557.563 416.685 556.49C415.611 555.417 413.745 554.88 411.085 554.88C409.311 554.88 407.561 555.02 405.835 555.3C404.108 555.533 402.615 555.883 401.355 556.35L400.025 547.95C400.631 547.763 401.378 547.577 402.265 547.39C403.198 547.157 404.201 546.97 405.275 546.83C406.348 546.643 407.468 546.503 408.635 546.41C409.848 546.27 411.061 546.2 412.275 546.2ZM459.926 556.42C458.993 556.187 457.896 555.953 456.636 555.72C455.376 555.44 454.023 555.3 452.576 555.3C451.923 555.3 451.129 555.37 450.196 555.51C449.309 555.603 448.633 555.72 448.166 555.86V584H437.736V549.14C439.603 548.487 441.796 547.88 444.316 547.32C446.883 546.713 449.729 546.41 452.856 546.41C453.416 546.41 454.093 546.457 454.886 546.55C455.679 546.597 456.473 546.69 457.266 546.83C458.059 546.923 458.853 547.063 459.646 547.25C460.439 547.39 461.116 547.577 461.676 547.81L459.926 556.42ZM483.734 538.01L494.164 536.33V547.18H506.694V555.86H494.164V568.81C494.164 571.003 494.537 572.753 495.284 574.06C496.077 575.367 497.64 576.02 499.974 576.02C501.094 576.02 502.237 575.927 503.404 575.74C504.617 575.507 505.714 575.203 506.694 574.83L508.164 582.95C506.904 583.463 505.504 583.907 503.964 584.28C502.424 584.653 500.534 584.84 498.294 584.84C495.447 584.84 493.09 584.467 491.224 583.72C489.357 582.927 487.864 581.853 486.744 580.5C485.624 579.1 484.83 577.42 484.364 575.46C483.944 573.5 483.734 571.33 483.734 568.95V538.01ZM548.26 565.52C548.26 568.413 547.84 571.073 547 573.5C546.16 575.88 544.947 577.933 543.36 579.66C541.773 581.34 539.86 582.647 537.62 583.58C535.427 584.513 532.953 584.98 530.2 584.98C527.493 584.98 525.02 584.513 522.78 583.58C520.587 582.647 518.697 581.34 517.11 579.66C515.523 577.933 514.287 575.88 513.4 573.5C512.513 571.073 512.07 568.413 512.07 565.52C512.07 562.627 512.513 559.99 513.4 557.61C514.333 555.23 515.593 553.2 517.18 551.52C518.813 549.84 520.727 548.533 522.92 547.6C525.16 546.667 527.587 546.2 530.2 546.2C532.86 546.2 535.287 546.667 537.48 547.6C539.72 548.533 541.633 549.84 543.22 551.52C544.807 553.2 546.043 555.23 546.93 557.61C547.817 559.99 548.26 562.627 548.26 565.52ZM537.62 565.52C537.62 562.3 536.967 559.78 535.66 557.96C534.4 556.093 532.58 555.16 530.2 555.16C527.82 555.16 525.977 556.093 524.67 557.96C523.363 559.78 522.71 562.3 522.71 565.52C522.71 568.74 523.363 571.307 524.67 573.22C525.977 575.087 527.82 576.02 530.2 576.02C532.58 576.02 534.4 575.087 535.66 573.22C536.967 571.307 537.62 568.74 537.62 565.52ZM565.229 565.31C565.229 568.53 565.953 571.12 567.399 573.08C568.846 575.04 570.993 576.02 573.839 576.02C574.773 576.02 575.636 575.997 576.429 575.95C577.223 575.857 577.876 575.763 578.389 575.67V556.7C577.736 556.28 576.873 555.93 575.799 555.65C574.773 555.37 573.723 555.23 572.649 555.23C567.703 555.23 565.229 558.59 565.229 565.31ZM588.819 582.81C587.886 583.09 586.813 583.37 585.599 583.65C584.386 583.883 583.103 584.093 581.749 584.28C580.443 584.467 579.089 584.607 577.689 584.7C576.336 584.84 575.029 584.91 573.769 584.91C570.736 584.91 568.029 584.467 565.649 583.58C563.269 582.693 561.263 581.433 559.629 579.8C557.996 578.12 556.736 576.113 555.849 573.78C555.009 571.4 554.589 568.74 554.589 565.8C554.589 562.813 554.963 560.13 555.709 557.75C556.456 555.323 557.529 553.27 558.929 551.59C560.329 549.91 562.033 548.627 564.039 547.74C566.093 546.853 568.426 546.41 571.039 546.41C572.486 546.41 573.769 546.55 574.889 546.83C576.056 547.11 577.223 547.507 578.389 548.02V531.36L588.819 529.68V582.81ZM633.026 565.52C633.026 568.413 632.606 571.073 631.766 573.5C630.926 575.88 629.712 577.933 628.126 579.66C626.539 581.34 624.626 582.647 622.386 583.58C620.192 584.513 617.719 584.98 614.966 584.98C612.259 584.98 609.786 584.513 607.546 583.58C605.352 582.647 603.462 581.34 601.876 579.66C600.289 577.933 599.052 575.88 598.166 573.5C597.279 571.073 596.836 568.413 596.836 565.52C596.836 562.627 597.279 559.99 598.166 557.61C599.099 555.23 600.359 553.2 601.946 551.52C603.579 549.84 605.492 548.533 607.686 547.6C609.926 546.667 612.352 546.2 614.966 546.2C617.626 546.2 620.052 546.667 622.246 547.6C624.486 548.533 626.399 549.84 627.986 551.52C629.572 553.2 630.809 555.23 631.696 557.61C632.582 559.99 633.026 562.627 633.026 565.52ZM622.386 565.52C622.386 562.3 621.732 559.78 620.426 557.96C619.166 556.093 617.346 555.16 614.966 555.16C612.586 555.16 610.742 556.093 609.436 557.96C608.129 559.78 607.476 562.3 607.476 565.52C607.476 568.74 608.129 571.307 609.436 573.22C610.742 575.087 612.586 576.02 614.966 576.02C617.346 576.02 619.166 575.087 620.426 573.22C621.732 571.307 622.386 568.74 622.386 565.52ZM651.675 576.51C653.588 576.51 654.942 576.323 655.735 575.95C656.528 575.577 656.925 574.853 656.925 573.78C656.925 572.94 656.412 572.217 655.385 571.61C654.358 570.957 652.795 570.233 650.695 569.44C649.062 568.833 647.568 568.203 646.215 567.55C644.908 566.897 643.788 566.127 642.855 565.24C641.922 564.307 641.198 563.21 640.685 561.95C640.172 560.69 639.915 559.173 639.915 557.4C639.915 553.947 641.198 551.217 643.765 549.21C646.332 547.203 649.855 546.2 654.335 546.2C656.575 546.2 658.722 546.41 660.775 546.83C662.828 547.203 664.462 547.623 665.675 548.09L663.855 556.21C662.642 555.79 661.312 555.417 659.865 555.09C658.465 554.763 656.878 554.6 655.105 554.6C651.838 554.6 650.205 555.51 650.205 557.33C650.205 557.75 650.275 558.123 650.415 558.45C650.555 558.777 650.835 559.103 651.255 559.43C651.675 559.71 652.235 560.037 652.935 560.41C653.682 560.737 654.615 561.11 655.735 561.53C658.022 562.37 659.912 563.21 661.405 564.05C662.898 564.843 664.065 565.73 664.905 566.71C665.792 567.643 666.398 568.693 666.725 569.86C667.098 571.027 667.285 572.38 667.285 573.92C667.285 577.56 665.908 580.313 663.155 582.18C660.448 584.047 656.598 584.98 651.605 584.98C648.338 584.98 645.608 584.7 643.415 584.14C641.268 583.58 639.775 583.113 638.935 582.74L640.685 574.27C642.458 574.97 644.278 575.53 646.145 575.95C648.012 576.323 649.855 576.51 651.675 576.51ZM726.336 565.52C726.336 568.413 725.916 571.073 725.076 573.5C724.236 575.88 723.023 577.933 721.436 579.66C719.849 581.34 717.936 582.647 715.696 583.58C713.503 584.513 711.029 584.98 708.276 584.98C705.569 584.98 703.096 584.513 700.856 583.58C698.663 582.647 696.773 581.34 695.186 579.66C693.599 577.933 692.363 575.88 691.476 573.5C690.589 571.073 690.146 568.413 690.146 565.52C690.146 562.627 690.589 559.99 691.476 557.61C692.409 555.23 693.669 553.2 695.256 551.52C696.889 549.84 698.803 548.533 700.996 547.6C703.236 546.667 705.663 546.2 708.276 546.2C710.936 546.2 713.363 546.667 715.556 547.6C717.796 548.533 719.709 549.84 721.296 551.52C722.883 553.2 724.119 555.23 725.006 557.61C725.893 559.99 726.336 562.627 726.336 565.52ZM715.696 565.52C715.696 562.3 715.043 559.78 713.736 557.96C712.476 556.093 710.656 555.16 708.276 555.16C705.896 555.16 704.053 556.093 702.746 557.96C701.439 559.78 700.786 562.3 700.786 565.52C700.786 568.74 701.439 571.307 702.746 573.22C704.053 575.087 705.896 576.02 708.276 576.02C710.656 576.02 712.476 575.087 713.736 573.22C715.043 571.307 715.696 568.74 715.696 565.52ZM744.986 576.51C746.899 576.51 748.252 576.323 749.046 575.95C749.839 575.577 750.236 574.853 750.236 573.78C750.236 572.94 749.722 572.217 748.696 571.61C747.669 570.957 746.106 570.233 744.006 569.44C742.372 568.833 740.879 568.203 739.526 567.55C738.219 566.897 737.099 566.127 736.166 565.24C735.232 564.307 734.509 563.21 733.996 561.95C733.482 560.69 733.226 559.173 733.226 557.4C733.226 553.947 734.509 551.217 737.076 549.21C739.642 547.203 743.166 546.2 747.646 546.2C749.886 546.2 752.032 546.41 754.086 546.83C756.139 547.203 757.772 547.623 758.986 548.09L757.166 556.21C755.952 555.79 754.622 555.417 753.176 555.09C751.776 554.763 750.189 554.6 748.416 554.6C745.149 554.6 743.516 555.51 743.516 557.33C743.516 557.75 743.586 558.123 743.726 558.45C743.866 558.777 744.146 559.103 744.566 559.43C744.986 559.71 745.546 560.037 746.246 560.41C746.992 560.737 747.926 561.11 749.046 561.53C751.332 562.37 753.222 563.21 754.716 564.05C756.209 564.843 757.376 565.73 758.216 566.71C759.102 567.643 759.709 568.693 760.036 569.86C760.409 571.027 760.596 572.38 760.596 573.92C760.596 577.56 759.219 580.313 756.466 582.18C753.759 584.047 749.909 584.98 744.916 584.98C741.649 584.98 738.919 584.7 736.726 584.14C734.579 583.58 733.086 583.113 732.246 582.74L733.996 574.27C735.769 574.97 737.589 575.53 739.456 575.95C741.322 576.323 743.166 576.51 744.986 576.51ZM799.277 576.72C800.303 576.72 801.283 576.697 802.217 576.65C803.15 576.603 803.897 576.533 804.457 576.44V568.53C804.037 568.437 803.407 568.343 802.567 568.25C801.727 568.157 800.957 568.11 800.257 568.11C799.277 568.11 798.343 568.18 797.457 568.32C796.617 568.413 795.87 568.623 795.217 568.95C794.563 569.277 794.05 569.72 793.677 570.28C793.303 570.84 793.117 571.54 793.117 572.38C793.117 574.013 793.653 575.157 794.727 575.81C795.847 576.417 797.363 576.72 799.277 576.72ZM798.437 546.2C801.517 546.2 804.083 546.55 806.137 547.25C808.19 547.95 809.823 548.953 811.037 550.26C812.297 551.567 813.183 553.153 813.697 555.02C814.21 556.887 814.467 558.963 814.467 561.25V582.95C812.973 583.277 810.897 583.65 808.237 584.07C805.577 584.537 802.357 584.77 798.577 584.77C796.197 584.77 794.027 584.56 792.067 584.14C790.153 583.72 788.497 583.043 787.097 582.11C785.697 581.13 784.623 579.87 783.877 578.33C783.13 576.79 782.757 574.9 782.757 572.66C782.757 570.513 783.177 568.693 784.017 567.2C784.903 565.707 786.07 564.517 787.517 563.63C788.963 562.743 790.62 562.113 792.487 561.74C794.353 561.32 796.29 561.11 798.297 561.11C799.65 561.11 800.84 561.18 801.867 561.32C802.94 561.413 803.803 561.553 804.457 561.74V560.76C804.457 558.987 803.92 557.563 802.847 556.49C801.773 555.417 799.907 554.88 797.247 554.88C795.473 554.88 793.723 555.02 791.997 555.3C790.27 555.533 788.777 555.883 787.517 556.35L786.187 547.95C786.793 547.763 787.54 547.577 788.427 547.39C789.36 547.157 790.363 546.97 791.437 546.83C792.51 546.643 793.63 546.503 794.797 546.41C796.01 546.27 797.223 546.2 798.437 546.2ZM834.468 576.51C836.381 576.51 837.735 576.323 838.528 575.95C839.321 575.577 839.718 574.853 839.718 573.78C839.718 572.94 839.205 572.217 838.178 571.61C837.151 570.957 835.588 570.233 833.488 569.44C831.855 568.833 830.361 568.203 829.008 567.55C827.701 566.897 826.581 566.127 825.648 565.24C824.715 564.307 823.991 563.21 823.478 561.95C822.965 560.69 822.708 559.173 822.708 557.4C822.708 553.947 823.991 551.217 826.558 549.21C829.125 547.203 832.648 546.2 837.128 546.2C839.368 546.2 841.515 546.41 843.568 546.83C845.621 547.203 847.255 547.623 848.468 548.09L846.648 556.21C845.435 555.79 844.105 555.417 842.658 555.09C841.258 554.763 839.671 554.6 837.898 554.6C834.631 554.6 832.998 555.51 832.998 557.33C832.998 557.75 833.068 558.123 833.208 558.45C833.348 558.777 833.628 559.103 834.048 559.43C834.468 559.71 835.028 560.037 835.728 560.41C836.475 560.737 837.408 561.11 838.528 561.53C840.815 562.37 842.705 563.21 844.198 564.05C845.691 564.843 846.858 565.73 847.698 566.71C848.585 567.643 849.191 568.693 849.518 569.86C849.891 571.027 850.078 572.38 850.078 573.92C850.078 577.56 848.701 580.313 845.948 582.18C843.241 584.047 839.391 584.98 834.398 584.98C831.131 584.98 828.401 584.7 826.208 584.14C824.061 583.58 822.568 583.113 821.728 582.74L823.478 574.27C825.251 574.97 827.071 575.53 828.938 575.95C830.805 576.323 832.648 576.51 834.468 576.51ZM881.463 565.87C881.463 562.65 880.739 560.083 879.293 558.17C877.846 556.21 875.699 555.23 872.853 555.23C871.919 555.23 871.056 555.277 870.263 555.37C869.469 555.417 868.816 555.487 868.303 555.58V574.41C868.956 574.83 869.796 575.18 870.823 575.46C871.896 575.74 872.969 575.88 874.043 575.88C878.989 575.88 881.463 572.543 881.463 565.87ZM892.103 565.59C892.103 568.437 891.753 571.027 891.053 573.36C890.353 575.693 889.326 577.7 887.973 579.38C886.619 581.06 884.939 582.367 882.933 583.3C880.926 584.233 878.616 584.7 876.003 584.7C874.556 584.7 873.203 584.56 871.943 584.28C870.683 584 869.469 583.603 868.303 583.09V596.95H857.873V548.44C858.806 548.16 859.879 547.903 861.093 547.67C862.306 547.39 863.566 547.157 864.873 546.97C866.226 546.783 867.579 546.643 868.933 546.55C870.333 546.41 871.663 546.34 872.923 546.34C875.956 546.34 878.663 546.807 881.043 547.74C883.423 548.627 885.429 549.91 887.063 551.59C888.696 553.223 889.933 555.23 890.773 557.61C891.659 559.99 892.103 562.65 892.103 565.59ZM898.369 565.87C898.369 562.603 898.859 559.757 899.839 557.33C900.865 554.857 902.195 552.803 903.829 551.17C905.462 549.537 907.329 548.3 909.429 547.46C911.575 546.62 913.769 546.2 916.009 546.2C921.235 546.2 925.365 547.81 928.399 551.03C931.432 554.203 932.949 558.893 932.949 565.1C932.949 565.707 932.925 566.383 932.879 567.13C932.832 567.83 932.785 568.46 932.739 569.02H909.079C909.312 571.167 910.315 572.87 912.089 574.13C913.862 575.39 916.242 576.02 919.229 576.02C921.142 576.02 923.009 575.857 924.829 575.53C926.695 575.157 928.212 574.713 929.379 574.2L930.779 582.67C930.219 582.95 929.472 583.23 928.539 583.51C927.605 583.79 926.555 584.023 925.389 584.21C924.269 584.443 923.055 584.63 921.749 584.77C920.442 584.91 919.135 584.98 917.829 584.98C914.515 584.98 911.622 584.49 909.149 583.51C906.722 582.53 904.692 581.2 903.059 579.52C901.472 577.793 900.282 575.763 899.489 573.43C898.742 571.097 898.369 568.577 898.369 565.87ZM922.869 561.88C922.822 560.993 922.659 560.13 922.379 559.29C922.145 558.45 921.749 557.703 921.189 557.05C920.675 556.397 919.999 555.86 919.159 555.44C918.365 555.02 917.362 554.81 916.149 554.81C914.982 554.81 913.979 555.02 913.139 555.44C912.299 555.813 911.599 556.327 911.039 556.98C910.479 557.633 910.035 558.403 909.709 559.29C909.429 560.13 909.219 560.993 909.079 561.88H922.869ZM939.248 565.59C939.248 562.93 939.668 560.433 940.508 558.1C941.394 555.72 942.654 553.667 944.288 551.94C945.921 550.167 947.904 548.767 950.238 547.74C952.571 546.713 955.231 546.2 958.218 546.2C960.178 546.2 961.974 546.387 963.608 546.76C965.241 547.087 966.828 547.577 968.368 548.23L966.198 556.56C965.218 556.187 964.144 555.86 962.978 555.58C961.811 555.3 960.504 555.16 959.058 555.16C955.978 555.16 953.668 556.117 952.128 558.03C950.634 559.943 949.888 562.463 949.888 565.59C949.888 568.903 950.588 571.47 951.988 573.29C953.434 575.11 955.931 576.02 959.478 576.02C960.738 576.02 962.091 575.903 963.538 575.67C964.984 575.437 966.314 575.063 967.528 574.55L968.998 583.09C967.784 583.603 966.268 584.047 964.448 584.42C962.628 584.793 960.621 584.98 958.428 584.98C955.068 584.98 952.174 584.49 949.748 583.51C947.321 582.483 945.314 581.107 943.728 579.38C942.188 577.653 941.044 575.623 940.298 573.29C939.598 570.91 939.248 568.343 939.248 565.59ZM975.648 538.01L986.078 536.33V547.18H998.608V555.86H986.078V568.81C986.078 571.003 986.451 572.753 987.198 574.06C987.991 575.367 989.554 576.02 991.888 576.02C993.008 576.02 994.151 575.927 995.318 575.74C996.531 575.507 997.628 575.203 998.608 574.83L1000.08 582.95C998.818 583.463 997.418 583.907 995.878 584.28C994.338 584.653 992.448 584.84 990.208 584.84C987.361 584.84 985.004 584.467 983.138 583.72C981.271 582.927 979.778 581.853 978.658 580.5C977.538 579.1 976.744 577.42 976.278 575.46C975.858 573.5 975.648 571.33 975.648 568.95V538.01ZM1040.17 565.52C1040.17 568.413 1039.75 571.073 1038.91 573.5C1038.07 575.88 1036.86 577.933 1035.27 579.66C1033.69 581.34 1031.77 582.647 1029.53 583.58C1027.34 584.513 1024.87 584.98 1022.11 584.98C1019.41 584.98 1016.93 584.513 1014.69 583.58C1012.5 582.647 1010.61 581.34 1009.02 579.66C1007.44 577.933 1006.2 575.88 1005.31 573.5C1004.43 571.073 1003.98 568.413 1003.98 565.52C1003.98 562.627 1004.43 559.99 1005.31 557.61C1006.25 555.23 1007.51 553.2 1009.09 551.52C1010.73 549.84 1012.64 548.533 1014.83 547.6C1017.07 546.667 1019.5 546.2 1022.11 546.2C1024.77 546.2 1027.2 546.667 1029.39 547.6C1031.63 548.533 1033.55 549.84 1035.13 551.52C1036.72 553.2 1037.96 555.23 1038.84 557.61C1039.73 559.99 1040.17 562.627 1040.17 565.52ZM1029.53 565.52C1029.53 562.3 1028.88 559.78 1027.57 557.96C1026.31 556.093 1024.49 555.16 1022.11 555.16C1019.73 555.16 1017.89 556.093 1016.58 557.96C1015.28 559.78 1014.62 562.3 1014.62 565.52C1014.62 568.74 1015.28 571.307 1016.58 573.22C1017.89 575.087 1019.73 576.02 1022.11 576.02C1024.49 576.02 1026.31 575.087 1027.57 573.22C1028.88 571.307 1029.53 568.74 1029.53 565.52ZM1058.82 576.51C1060.74 576.51 1062.09 576.323 1062.88 575.95C1063.68 575.577 1064.07 574.853 1064.07 573.78C1064.07 572.94 1063.56 572.217 1062.53 571.61C1061.51 570.957 1059.94 570.233 1057.84 569.44C1056.21 568.833 1054.72 568.203 1053.36 567.55C1052.06 566.897 1050.94 566.127 1050 565.24C1049.07 564.307 1048.35 563.21 1047.83 561.95C1047.32 560.69 1047.06 559.173 1047.06 557.4C1047.06 553.947 1048.35 551.217 1050.91 549.21C1053.48 547.203 1057 546.2 1061.48 546.2C1063.72 546.2 1065.87 546.41 1067.92 546.83C1069.98 547.203 1071.61 547.623 1072.82 548.09L1071 556.21C1069.79 555.79 1068.46 555.417 1067.01 555.09C1065.61 554.763 1064.03 554.6 1062.25 554.6C1058.99 554.6 1057.35 555.51 1057.35 557.33C1057.35 557.75 1057.42 558.123 1057.56 558.45C1057.7 558.777 1057.98 559.103 1058.4 559.43C1058.82 559.71 1059.38 560.037 1060.08 560.41C1060.83 560.737 1061.76 561.11 1062.88 561.53C1065.17 562.37 1067.06 563.21 1068.55 564.05C1070.05 564.843 1071.21 565.73 1072.05 566.71C1072.94 567.643 1073.55 568.693 1073.87 569.86C1074.25 571.027 1074.43 572.38 1074.43 573.92C1074.43 577.56 1073.06 580.313 1070.3 582.18C1067.6 584.047 1063.75 584.98 1058.75 584.98C1055.49 584.98 1052.76 584.7 1050.56 584.14C1048.42 583.58 1046.92 583.113 1046.08 582.74L1047.83 574.27C1049.61 574.97 1051.43 575.53 1053.29 575.95C1055.16 576.323 1057 576.51 1058.82 576.51ZM1107.93 565.31C1107.93 568.53 1108.66 571.12 1110.1 573.08C1111.55 575.04 1113.7 576.02 1116.54 576.02C1117.48 576.02 1118.34 575.997 1119.13 575.95C1119.93 575.857 1120.58 575.763 1121.09 575.67V556.7C1120.44 556.28 1119.58 555.93 1118.5 555.65C1117.48 555.37 1116.43 555.23 1115.35 555.23C1110.41 555.23 1107.93 558.59 1107.93 565.31ZM1131.52 582.81C1130.59 583.09 1129.52 583.37 1128.3 583.65C1127.09 583.883 1125.81 584.093 1124.45 584.28C1123.15 584.467 1121.79 584.607 1120.39 584.7C1119.04 584.84 1117.73 584.91 1116.47 584.91C1113.44 584.91 1110.73 584.467 1108.35 583.58C1105.97 582.693 1103.97 581.433 1102.33 579.8C1100.7 578.12 1099.44 576.113 1098.55 573.78C1097.71 571.4 1097.29 568.74 1097.29 565.8C1097.29 562.813 1097.67 560.13 1098.41 557.75C1099.16 555.323 1100.23 553.27 1101.63 551.59C1103.03 549.91 1104.74 548.627 1106.74 547.74C1108.8 546.853 1111.13 546.41 1113.74 546.41C1115.19 546.41 1116.47 546.55 1117.59 546.83C1118.76 547.11 1119.93 547.507 1121.09 548.02V531.36L1131.52 529.68V582.81ZM1175.73 565.52C1175.73 568.413 1175.31 571.073 1174.47 573.5C1173.63 575.88 1172.42 577.933 1170.83 579.66C1169.24 581.34 1167.33 582.647 1165.09 583.58C1162.9 584.513 1160.42 584.98 1157.67 584.98C1154.96 584.98 1152.49 584.513 1150.25 583.58C1148.06 582.647 1146.17 581.34 1144.58 579.66C1142.99 577.933 1141.76 575.88 1140.87 573.5C1139.98 571.073 1139.54 568.413 1139.54 565.52C1139.54 562.627 1139.98 559.99 1140.87 557.61C1141.8 555.23 1143.06 553.2 1144.65 551.52C1146.28 549.84 1148.2 548.533 1150.39 547.6C1152.63 546.667 1155.06 546.2 1157.67 546.2C1160.33 546.2 1162.76 546.667 1164.95 547.6C1167.19 548.533 1169.1 549.84 1170.69 551.52C1172.28 553.2 1173.51 555.23 1174.4 557.61C1175.29 559.99 1175.73 562.627 1175.73 565.52ZM1165.09 565.52C1165.09 562.3 1164.44 559.78 1163.13 557.96C1161.87 556.093 1160.05 555.16 1157.67 555.16C1155.29 555.16 1153.45 556.093 1152.14 557.96C1150.83 559.78 1150.18 562.3 1150.18 565.52C1150.18 568.74 1150.83 571.307 1152.14 573.22C1153.45 575.087 1155.29 576.02 1157.67 576.02C1160.05 576.02 1161.87 575.087 1163.13 573.22C1164.44 571.307 1165.09 568.74 1165.09 565.52ZM139.49 635.87C139.49 632.65 138.767 630.083 137.32 628.17C135.873 626.21 133.727 625.23 130.88 625.23C129.947 625.23 129.083 625.277 128.29 625.37C127.497 625.417 126.843 625.487 126.33 625.58V644.41C126.983 644.83 127.823 645.18 128.85 645.46C129.923 645.74 130.997 645.88 132.07 645.88C137.017 645.88 139.49 642.543 139.49 635.87ZM150.13 635.59C150.13 638.437 149.78 641.027 149.08 643.36C148.38 645.693 147.353 647.7 146 649.38C144.647 651.06 142.967 652.367 140.96 653.3C138.953 654.233 136.643 654.7 134.03 654.7C132.583 654.7 131.23 654.56 129.97 654.28C128.71 654 127.497 653.603 126.33 653.09V666.95H115.9V618.44C116.833 618.16 117.907 617.903 119.12 617.67C120.333 617.39 121.593 617.157 122.9 616.97C124.253 616.783 125.607 616.643 126.96 616.55C128.36 616.41 129.69 616.34 130.95 616.34C133.983 616.34 136.69 616.807 139.07 617.74C141.45 618.627 143.457 619.91 145.09 621.59C146.723 623.223 147.96 625.23 148.8 627.61C149.687 629.99 150.13 632.65 150.13 635.59ZM180.336 626.42C179.403 626.187 178.306 625.953 177.046 625.72C175.786 625.44 174.433 625.3 172.986 625.3C172.333 625.3 171.539 625.37 170.606 625.51C169.719 625.603 169.043 625.72 168.576 625.86V654H158.146V619.14C160.013 618.487 162.206 617.88 164.726 617.32C167.293 616.713 170.139 616.41 173.266 616.41C173.826 616.41 174.503 616.457 175.296 616.55C176.089 616.597 176.883 616.69 177.676 616.83C178.469 616.923 179.263 617.063 180.056 617.25C180.849 617.39 181.526 617.577 182.086 617.81L180.336 626.42ZM221.434 635.52C221.434 638.413 221.014 641.073 220.174 643.5C219.334 645.88 218.12 647.933 216.534 649.66C214.947 651.34 213.034 652.647 210.794 653.58C208.6 654.513 206.127 654.98 203.374 654.98C200.667 654.98 198.194 654.513 195.954 653.58C193.76 652.647 191.87 651.34 190.284 649.66C188.697 647.933 187.46 645.88 186.574 643.5C185.687 641.073 185.244 638.413 185.244 635.52C185.244 632.627 185.687 629.99 186.574 627.61C187.507 625.23 188.767 623.2 190.354 621.52C191.987 619.84 193.9 618.533 196.094 617.6C198.334 616.667 200.76 616.2 203.374 616.2C206.034 616.2 208.46 616.667 210.654 617.6C212.894 618.533 214.807 619.84 216.394 621.52C217.98 623.2 219.217 625.23 220.104 627.61C220.99 629.99 221.434 632.627 221.434 635.52ZM210.794 635.52C210.794 632.3 210.14 629.78 208.834 627.96C207.574 626.093 205.754 625.16 203.374 625.16C200.994 625.16 199.15 626.093 197.844 627.96C196.537 629.78 195.884 632.3 195.884 635.52C195.884 638.74 196.537 641.307 197.844 643.22C199.15 645.087 200.994 646.02 203.374 646.02C205.754 646.02 207.574 645.087 208.834 643.22C210.14 641.307 210.794 638.74 210.794 635.52ZM238.403 635.31C238.403 638.53 239.127 641.12 240.573 643.08C242.02 645.04 244.167 646.02 247.013 646.02C247.947 646.02 248.81 645.997 249.603 645.95C250.397 645.857 251.05 645.763 251.563 645.67V626.7C250.91 626.28 250.047 625.93 248.973 625.65C247.947 625.37 246.897 625.23 245.823 625.23C240.877 625.23 238.403 628.59 238.403 635.31ZM261.993 652.81C261.06 653.09 259.987 653.37 258.773 653.65C257.56 653.883 256.277 654.093 254.923 654.28C253.617 654.467 252.263 654.607 250.863 654.7C249.51 654.84 248.203 654.91 246.943 654.91C243.91 654.91 241.203 654.467 238.823 653.58C236.443 652.693 234.437 651.433 232.803 649.8C231.17 648.12 229.91 646.113 229.023 643.78C228.183 641.4 227.763 638.74 227.763 635.8C227.763 632.813 228.137 630.13 228.883 627.75C229.63 625.323 230.703 623.27 232.103 621.59C233.503 619.91 235.207 618.627 237.213 617.74C239.267 616.853 241.6 616.41 244.213 616.41C245.66 616.41 246.943 616.55 248.063 616.83C249.23 617.11 250.397 617.507 251.563 618.02V601.36L261.993 599.68V652.81ZM303.189 652.74C301.416 653.253 299.129 653.72 296.329 654.14C293.529 654.607 290.589 654.84 287.509 654.84C284.383 654.84 281.769 654.42 279.669 653.58C277.616 652.74 275.983 651.573 274.769 650.08C273.556 648.54 272.693 646.72 272.179 644.62C271.666 642.52 271.409 640.21 271.409 637.69V617.18H281.839V636.43C281.839 639.79 282.283 642.217 283.169 643.71C284.056 645.203 285.713 645.95 288.139 645.95C288.886 645.95 289.679 645.927 290.519 645.88C291.359 645.787 292.106 645.693 292.759 645.6V617.18H303.189V652.74ZM312.63 608.01L323.06 606.33V617.18H335.59V625.86H323.06V638.81C323.06 641.003 323.433 642.753 324.18 644.06C324.973 645.367 326.537 646.02 328.87 646.02C329.99 646.02 331.133 645.927 332.3 645.74C333.513 645.507 334.61 645.203 335.59 644.83L337.06 652.95C335.8 653.463 334.4 653.907 332.86 654.28C331.32 654.653 329.43 654.84 327.19 654.84C324.343 654.84 321.987 654.467 320.12 653.72C318.253 652.927 316.76 651.853 315.64 650.5C314.52 649.1 313.727 647.42 313.26 645.46C312.84 643.5 312.63 641.33 312.63 638.95V608.01ZM377.156 635.52C377.156 638.413 376.736 641.073 375.896 643.5C375.056 645.88 373.843 647.933 372.256 649.66C370.67 651.34 368.756 652.647 366.516 653.58C364.323 654.513 361.85 654.98 359.096 654.98C356.39 654.98 353.916 654.513 351.676 653.58C349.483 652.647 347.593 651.34 346.006 649.66C344.42 647.933 343.183 645.88 342.296 643.5C341.41 641.073 340.966 638.413 340.966 635.52C340.966 632.627 341.41 629.99 342.296 627.61C343.23 625.23 344.49 623.2 346.076 621.52C347.71 619.84 349.623 618.533 351.816 617.6C354.056 616.667 356.483 616.2 359.096 616.2C361.756 616.2 364.183 616.667 366.376 617.6C368.616 618.533 370.53 619.84 372.116 621.52C373.703 623.2 374.94 625.23 375.826 627.61C376.713 629.99 377.156 632.627 377.156 635.52ZM366.516 635.52C366.516 632.3 365.863 629.78 364.556 627.96C363.296 626.093 361.476 625.16 359.096 625.16C356.716 625.16 354.873 626.093 353.566 627.96C352.26 629.78 351.606 632.3 351.606 635.52C351.606 638.74 352.26 641.307 353.566 643.22C354.873 645.087 356.716 646.02 359.096 646.02C361.476 646.02 363.296 645.087 364.556 643.22C365.863 641.307 366.516 638.74 366.516 635.52Z" fill="white"/>
<path d="M125 140.2C128.867 138.6 132.867 136.8 137 134.8C141.267 132.667 145.4 130.4 149.4 128C153.4 125.467 157.2 122.867 160.8 120.2C164.533 117.4 167.867 114.467 170.8 111.4H191.6V250H161.8V150.2C157.8 152.867 153.333 155.333 148.4 157.6C143.467 159.733 138.667 161.6 134 163.2L125 140.2Z" fill="white"/>
</g>
<defs>
<clipPath id="clip0_104_381">
<rect width="1300" height="976" fill="white"/>
</clipPath>
</defs>
</svg>
