<svg width="1300" height="976" viewBox="0 0 1300 976" fill="none" xmlns="http://www.w3.org/2000/svg">
<g clip-path="url(#clip0_104_275)">
<path d="M125.91 514C123.53 509.333 121.103 503.873 118.63 497.62C116.203 491.367 113.893 484.553 111.7 477.18H122.76C123.227 479 123.763 480.983 124.37 483.13C125.023 485.23 125.677 487.377 126.33 489.57C127.03 491.717 127.707 493.817 128.36 495.87C129.06 497.923 129.737 499.79 130.39 501.47C130.997 499.79 131.65 497.923 132.35 495.87C133.05 493.817 133.727 491.717 134.38 489.57C135.08 487.377 135.733 485.23 136.34 483.13C136.993 480.983 137.553 479 138.02 477.18H148.8C146.607 484.553 144.273 491.367 141.8 497.62C139.373 503.873 136.97 509.333 134.59 514H125.91ZM164.816 514H154.386V477.18H164.816V514ZM165.796 466.54C165.796 468.453 165.166 469.97 163.906 471.09C162.693 472.163 161.246 472.7 159.566 472.7C157.886 472.7 156.416 472.163 155.156 471.09C153.943 469.97 153.336 468.453 153.336 466.54C153.336 464.627 153.943 463.133 155.156 462.06C156.416 460.94 157.886 460.38 159.566 460.38C161.246 460.38 162.693 460.94 163.906 462.06C165.166 463.133 165.796 464.627 165.796 466.54ZM172.871 495.87C172.871 492.603 173.361 489.757 174.341 487.33C175.367 484.857 176.697 482.803 178.331 481.17C179.964 479.537 181.831 478.3 183.931 477.46C186.077 476.62 188.271 476.2 190.511 476.2C195.737 476.2 199.867 477.81 202.901 481.03C205.934 484.203 207.451 488.893 207.451 495.1C207.451 495.707 207.427 496.383 207.381 497.13C207.334 497.83 207.287 498.46 207.241 499.02H183.581C183.814 501.167 184.817 502.87 186.591 504.13C188.364 505.39 190.744 506.02 193.731 506.02C195.644 506.02 197.511 505.857 199.331 505.53C201.197 505.157 202.714 504.713 203.881 504.2L205.281 512.67C204.721 512.95 203.974 513.23 203.041 513.51C202.107 513.79 201.057 514.023 199.891 514.21C198.771 514.443 197.557 514.63 196.251 514.77C194.944 514.91 193.637 514.98 192.331 514.98C189.017 514.98 186.124 514.49 183.651 513.51C181.224 512.53 179.194 511.2 177.561 509.52C175.974 507.793 174.784 505.763 173.991 503.43C173.244 501.097 172.871 498.577 172.871 495.87ZM197.371 491.88C197.324 490.993 197.161 490.13 196.881 489.29C196.647 488.45 196.251 487.703 195.691 487.05C195.177 486.397 194.501 485.86 193.661 485.44C192.867 485.02 191.864 484.81 190.651 484.81C189.484 484.81 188.481 485.02 187.641 485.44C186.801 485.813 186.101 486.327 185.541 486.98C184.981 487.633 184.537 488.403 184.211 489.29C183.931 490.13 183.721 490.993 183.581 491.88H197.371ZM237.9 492.86C236.966 496.407 235.963 499.93 234.89 503.43C233.863 506.93 232.766 510.453 231.6 514H223.48C222.64 512.04 221.73 509.707 220.75 507C219.77 504.293 218.743 501.353 217.67 498.18C216.643 494.96 215.57 491.577 214.45 488.03C213.376 484.437 212.326 480.82 211.3 477.18H222.29C222.663 478.86 223.06 480.703 223.48 482.71C223.946 484.67 224.413 486.7 224.88 488.8C225.393 490.9 225.906 493.023 226.42 495.17C226.98 497.27 227.54 499.3 228.1 501.26C228.706 499.207 229.29 497.107 229.85 494.96C230.456 492.813 231.016 490.713 231.53 488.66C232.09 486.56 232.603 484.553 233.07 482.64C233.583 480.68 234.026 478.86 234.4 477.18H241.96C242.333 478.86 242.753 480.68 243.22 482.64C243.686 484.553 244.176 486.56 244.69 488.66C245.203 490.713 245.74 492.813 246.3 494.96C246.86 497.107 247.443 499.207 248.05 501.26C248.61 499.3 249.17 497.27 249.73 495.17C250.29 493.023 250.803 490.9 251.27 488.8C251.783 486.7 252.25 484.67 252.67 482.71C253.136 480.703 253.556 478.86 253.93 477.18H264.78C263.753 480.82 262.68 484.437 261.56 488.03C260.486 491.577 259.413 494.96 258.34 498.18C257.313 501.353 256.286 504.293 255.26 507C254.28 509.707 253.37 512.04 252.53 514H244.41C243.243 510.453 242.1 506.93 240.98 503.43C239.86 499.93 238.833 496.407 237.9 492.86ZM296.099 495.31C296.099 498.53 296.822 501.12 298.269 503.08C299.715 505.04 301.862 506.02 304.709 506.02C305.642 506.02 306.505 505.997 307.299 505.95C308.092 505.857 308.745 505.763 309.259 505.67V486.7C308.605 486.28 307.742 485.93 306.669 485.65C305.642 485.37 304.592 485.23 303.519 485.23C298.572 485.23 296.099 488.59 296.099 495.31ZM319.689 512.81C318.755 513.09 317.682 513.37 316.469 513.65C315.255 513.883 313.972 514.093 312.619 514.28C311.312 514.467 309.959 514.607 308.559 514.7C307.205 514.84 305.899 514.91 304.639 514.91C301.605 514.91 298.899 514.467 296.519 513.58C294.139 512.693 292.132 511.433 290.499 509.8C288.865 508.12 287.605 506.113 286.719 503.78C285.879 501.4 285.459 498.74 285.459 495.8C285.459 492.813 285.832 490.13 286.579 487.75C287.325 485.323 288.399 483.27 289.799 481.59C291.199 479.91 292.902 478.627 294.909 477.74C296.962 476.853 299.295 476.41 301.909 476.41C303.355 476.41 304.639 476.55 305.759 476.83C306.925 477.11 308.092 477.507 309.259 478.02V461.36L319.689 459.68V512.81ZM363.895 495.52C363.895 498.413 363.475 501.073 362.635 503.5C361.795 505.88 360.581 507.933 358.995 509.66C357.408 511.34 355.495 512.647 353.255 513.58C351.061 514.513 348.588 514.98 345.835 514.98C343.128 514.98 340.655 514.513 338.415 513.58C336.221 512.647 334.331 511.34 332.745 509.66C331.158 507.933 329.921 505.88 329.035 503.5C328.148 501.073 327.705 498.413 327.705 495.52C327.705 492.627 328.148 489.99 329.035 487.61C329.968 485.23 331.228 483.2 332.815 481.52C334.448 479.84 336.361 478.533 338.555 477.6C340.795 476.667 343.221 476.2 345.835 476.2C348.495 476.2 350.921 476.667 353.115 477.6C355.355 478.533 357.268 479.84 358.855 481.52C360.441 483.2 361.678 485.23 362.565 487.61C363.451 489.99 363.895 492.627 363.895 495.52ZM353.255 495.52C353.255 492.3 352.601 489.78 351.295 487.96C350.035 486.093 348.215 485.16 345.835 485.16C343.455 485.16 341.611 486.093 340.305 487.96C338.998 489.78 338.345 492.3 338.345 495.52C338.345 498.74 338.998 501.307 340.305 503.22C341.611 505.087 343.455 506.02 345.835 506.02C348.215 506.02 350.035 505.087 351.295 503.22C352.601 501.307 353.255 498.74 353.255 495.52ZM420.221 512.74C418.447 513.253 416.161 513.72 413.361 514.14C410.561 514.607 407.621 514.84 404.541 514.84C401.414 514.84 398.801 514.42 396.701 513.58C394.647 512.74 393.014 511.573 391.801 510.08C390.587 508.54 389.724 506.72 389.211 504.62C388.697 502.52 388.441 500.21 388.441 497.69V477.18H398.871V496.43C398.871 499.79 399.314 502.217 400.201 503.71C401.087 505.203 402.744 505.95 405.171 505.95C405.917 505.95 406.711 505.927 407.551 505.88C408.391 505.787 409.137 505.693 409.791 505.6V477.18H420.221V512.74ZM440.581 506.51C442.495 506.51 443.848 506.323 444.641 505.95C445.435 505.577 445.831 504.853 445.831 503.78C445.831 502.94 445.318 502.217 444.291 501.61C443.265 500.957 441.701 500.233 439.601 499.44C437.968 498.833 436.475 498.203 435.121 497.55C433.815 496.897 432.695 496.127 431.761 495.24C430.828 494.307 430.105 493.21 429.591 491.95C429.078 490.69 428.821 489.173 428.821 487.4C428.821 483.947 430.105 481.217 432.671 479.21C435.238 477.203 438.761 476.2 443.241 476.2C445.481 476.2 447.628 476.41 449.681 476.83C451.735 477.203 453.368 477.623 454.581 478.09L452.761 486.21C451.548 485.79 450.218 485.417 448.771 485.09C447.371 484.763 445.785 484.6 444.011 484.6C440.745 484.6 439.111 485.51 439.111 487.33C439.111 487.75 439.181 488.123 439.321 488.45C439.461 488.777 439.741 489.103 440.161 489.43C440.581 489.71 441.141 490.037 441.841 490.41C442.588 490.737 443.521 491.11 444.641 491.53C446.928 492.37 448.818 493.21 450.311 494.05C451.805 494.843 452.971 495.73 453.811 496.71C454.698 497.643 455.305 498.693 455.631 499.86C456.005 501.027 456.191 502.38 456.191 503.92C456.191 507.56 454.815 510.313 452.061 512.18C449.355 514.047 445.505 514.98 440.511 514.98C437.245 514.98 434.515 514.7 432.321 514.14C430.175 513.58 428.681 513.113 427.841 512.74L429.591 504.27C431.365 504.97 433.185 505.53 435.051 505.95C436.918 506.323 438.761 506.51 440.581 506.51ZM495.416 512.74C493.643 513.253 491.356 513.72 488.556 514.14C485.756 514.607 482.816 514.84 479.736 514.84C476.609 514.84 473.996 514.42 471.896 513.58C469.843 512.74 468.209 511.573 466.996 510.08C465.783 508.54 464.919 506.72 464.406 504.62C463.893 502.52 463.636 500.21 463.636 497.69V477.18H474.066V496.43C474.066 499.79 474.509 502.217 475.396 503.71C476.283 505.203 477.939 505.95 480.366 505.95C481.113 505.95 481.906 505.927 482.746 505.88C483.586 505.787 484.333 505.693 484.986 505.6V477.18H495.416V512.74ZM519.277 506.72C520.303 506.72 521.283 506.697 522.217 506.65C523.15 506.603 523.897 506.533 524.457 506.44V498.53C524.037 498.437 523.407 498.343 522.567 498.25C521.727 498.157 520.957 498.11 520.257 498.11C519.277 498.11 518.343 498.18 517.457 498.32C516.617 498.413 515.87 498.623 515.217 498.95C514.563 499.277 514.05 499.72 513.677 500.28C513.303 500.84 513.117 501.54 513.117 502.38C513.117 504.013 513.653 505.157 514.727 505.81C515.847 506.417 517.363 506.72 519.277 506.72ZM518.437 476.2C521.517 476.2 524.083 476.55 526.137 477.25C528.19 477.95 529.823 478.953 531.037 480.26C532.297 481.567 533.183 483.153 533.697 485.02C534.21 486.887 534.467 488.963 534.467 491.25V512.95C532.973 513.277 530.897 513.65 528.237 514.07C525.577 514.537 522.357 514.77 518.577 514.77C516.197 514.77 514.027 514.56 512.067 514.14C510.153 513.72 508.497 513.043 507.097 512.11C505.697 511.13 504.623 509.87 503.877 508.33C503.13 506.79 502.757 504.9 502.757 502.66C502.757 500.513 503.177 498.693 504.017 497.2C504.903 495.707 506.07 494.517 507.517 493.63C508.963 492.743 510.62 492.113 512.487 491.74C514.353 491.32 516.29 491.11 518.297 491.11C519.65 491.11 520.84 491.18 521.867 491.32C522.94 491.413 523.803 491.553 524.457 491.74V490.76C524.457 488.987 523.92 487.563 522.847 486.49C521.773 485.417 519.907 484.88 517.247 484.88C515.473 484.88 513.723 485.02 511.997 485.3C510.27 485.533 508.777 485.883 507.517 486.35L506.187 477.95C506.793 477.763 507.54 477.577 508.427 477.39C509.36 477.157 510.363 476.97 511.437 476.83C512.51 476.643 513.63 476.503 514.797 476.41C516.01 476.27 517.223 476.2 518.437 476.2ZM528.097 463.95L516.547 473.68L511.787 469.41L521.727 458.07L528.097 463.95ZM566.088 486.42C565.155 486.187 564.058 485.953 562.798 485.72C561.538 485.44 560.185 485.3 558.738 485.3C558.085 485.3 557.291 485.37 556.358 485.51C555.471 485.603 554.795 485.72 554.328 485.86V514H543.898V479.14C545.765 478.487 547.958 477.88 550.478 477.32C553.045 476.713 555.891 476.41 559.018 476.41C559.578 476.41 560.255 476.457 561.048 476.55C561.841 476.597 562.635 476.69 563.428 476.83C564.221 476.923 565.015 477.063 565.808 477.25C566.601 477.39 567.278 477.577 567.838 477.81L566.088 486.42ZM583.859 514H573.429V477.18H583.859V514ZM584.839 466.54C584.839 468.453 584.209 469.97 582.949 471.09C581.736 472.163 580.289 472.7 578.609 472.7C576.929 472.7 575.459 472.163 574.199 471.09C572.986 469.97 572.379 468.453 572.379 466.54C572.379 464.627 572.986 463.133 574.199 462.06C575.459 460.94 576.929 460.38 578.609 460.38C580.289 460.38 581.736 460.94 582.949 462.06C584.209 463.133 584.839 464.627 584.839 466.54ZM628.104 495.52C628.104 498.413 627.684 501.073 626.844 503.5C626.004 505.88 624.79 507.933 623.204 509.66C621.617 511.34 619.704 512.647 617.464 513.58C615.27 514.513 612.797 514.98 610.044 514.98C607.337 514.98 604.864 514.513 602.624 513.58C600.43 512.647 598.54 511.34 596.954 509.66C595.367 507.933 594.13 505.88 593.244 503.5C592.357 501.073 591.914 498.413 591.914 495.52C591.914 492.627 592.357 489.99 593.244 487.61C594.177 485.23 595.437 483.2 597.024 481.52C598.657 479.84 600.57 478.533 602.764 477.6C605.004 476.667 607.43 476.2 610.044 476.2C612.704 476.2 615.13 476.667 617.324 477.6C619.564 478.533 621.477 479.84 623.064 481.52C624.65 483.2 625.887 485.23 626.774 487.61C627.66 489.99 628.104 492.627 628.104 495.52ZM617.464 495.52C617.464 492.3 616.81 489.78 615.504 487.96C614.244 486.093 612.424 485.16 610.044 485.16C607.664 485.16 605.82 486.093 604.514 487.96C603.207 489.78 602.554 492.3 602.554 495.52C602.554 498.74 603.207 501.307 604.514 503.22C605.82 505.087 607.664 506.02 610.044 506.02C612.424 506.02 614.244 505.087 615.504 503.22C616.81 501.307 617.464 498.74 617.464 495.52Z" fill="#FFA24B"/>
</g>
<defs>
<clipPath id="clip0_104_275">
<rect width="1300" height="976" fill="white"/>
</clipPath>
</defs>
</svg>
