<svg width="1300" height="976" viewBox="0 0 1300 976" fill="none" xmlns="http://www.w3.org/2000/svg">
<g clip-path="url(#clip0_104_269)">
<path d="M147.33 512.74C145.557 513.253 143.27 513.72 140.47 514.14C137.67 514.607 134.73 514.84 131.65 514.84C128.523 514.84 125.91 514.42 123.81 513.58C121.757 512.74 120.123 511.573 118.91 510.08C117.697 508.54 116.833 506.72 116.32 504.62C115.807 502.52 115.55 500.21 115.55 497.69V477.18H125.98V496.43C125.98 499.79 126.423 502.217 127.31 503.71C128.197 505.203 129.853 505.95 132.28 505.95C133.027 505.95 133.82 505.927 134.66 505.88C135.5 505.787 136.247 505.693 136.9 505.6V477.18H147.33V512.74ZM167.691 506.51C169.604 506.51 170.957 506.323 171.751 505.95C172.544 505.577 172.941 504.853 172.941 503.78C172.941 502.94 172.427 502.217 171.401 501.61C170.374 500.957 168.811 500.233 166.711 499.44C165.077 498.833 163.584 498.203 162.231 497.55C160.924 496.897 159.804 496.127 158.871 495.24C157.937 494.307 157.214 493.21 156.701 491.95C156.187 490.69 155.931 489.173 155.931 487.4C155.931 483.947 157.214 481.217 159.781 479.21C162.347 477.203 165.871 476.2 170.351 476.2C172.591 476.2 174.737 476.41 176.791 476.83C178.844 477.203 180.477 477.623 181.691 478.09L179.871 486.21C178.657 485.79 177.327 485.417 175.881 485.09C174.481 484.763 172.894 484.6 171.121 484.6C167.854 484.6 166.221 485.51 166.221 487.33C166.221 487.75 166.291 488.123 166.431 488.45C166.571 488.777 166.851 489.103 167.271 489.43C167.691 489.71 168.251 490.037 168.951 490.41C169.697 490.737 170.631 491.11 171.751 491.53C174.037 492.37 175.927 493.21 177.421 494.05C178.914 494.843 180.081 495.73 180.921 496.71C181.807 497.643 182.414 498.693 182.741 499.86C183.114 501.027 183.301 502.38 183.301 503.92C183.301 507.56 181.924 510.313 179.171 512.18C176.464 514.047 172.614 514.98 167.621 514.98C164.354 514.98 161.624 514.7 159.431 514.14C157.284 513.58 155.791 513.113 154.951 512.74L156.701 504.27C158.474 504.97 160.294 505.53 162.161 505.95C164.027 506.323 165.871 506.51 167.691 506.51ZM205.165 506.72C206.192 506.72 207.172 506.697 208.105 506.65C209.039 506.603 209.785 506.533 210.345 506.44V498.53C209.925 498.437 209.295 498.343 208.455 498.25C207.615 498.157 206.845 498.11 206.145 498.11C205.165 498.11 204.232 498.18 203.345 498.32C202.505 498.413 201.759 498.623 201.105 498.95C200.452 499.277 199.939 499.72 199.565 500.28C199.192 500.84 199.005 501.54 199.005 502.38C199.005 504.013 199.542 505.157 200.615 505.81C201.735 506.417 203.252 506.72 205.165 506.72ZM204.325 476.2C207.405 476.2 209.972 476.55 212.025 477.25C214.079 477.95 215.712 478.953 216.925 480.26C218.185 481.567 219.072 483.153 219.585 485.02C220.099 486.887 220.355 488.963 220.355 491.25V512.95C218.862 513.277 216.785 513.65 214.125 514.07C211.465 514.537 208.245 514.77 204.465 514.77C202.085 514.77 199.915 514.56 197.955 514.14C196.042 513.72 194.385 513.043 192.985 512.11C191.585 511.13 190.512 509.87 189.765 508.33C189.019 506.79 188.645 504.9 188.645 502.66C188.645 500.513 189.065 498.693 189.905 497.2C190.792 495.707 191.959 494.517 193.405 493.63C194.852 492.743 196.509 492.113 198.375 491.74C200.242 491.32 202.179 491.11 204.185 491.11C205.539 491.11 206.729 491.18 207.755 491.32C208.829 491.413 209.692 491.553 210.345 491.74V490.76C210.345 488.987 209.809 487.563 208.735 486.49C207.662 485.417 205.795 484.88 203.135 484.88C201.362 484.88 199.612 485.02 197.885 485.3C196.159 485.533 194.665 485.883 193.405 486.35L192.075 477.95C192.682 477.763 193.429 477.577 194.315 477.39C195.249 477.157 196.252 476.97 197.325 476.83C198.399 476.643 199.519 476.503 200.685 476.41C201.899 476.27 203.112 476.2 204.325 476.2ZM253.377 495.31C253.377 488.59 250.903 485.23 245.957 485.23C244.883 485.23 243.81 485.37 242.737 485.65C241.71 485.93 240.87 486.28 240.217 486.7V505.67C240.73 505.763 241.383 505.857 242.177 505.95C242.97 505.997 243.833 506.02 244.767 506.02C247.613 506.02 249.76 505.04 251.207 503.08C252.653 501.12 253.377 498.53 253.377 495.31ZM264.017 495.59C264.017 498.53 263.573 501.19 262.687 503.57C261.847 505.95 260.61 507.98 258.977 509.66C257.343 511.34 255.337 512.647 252.957 513.58C250.577 514.467 247.87 514.91 244.837 514.91C243.577 514.91 242.247 514.84 240.847 514.7C239.493 514.607 238.14 514.467 236.787 514.28C235.48 514.093 234.22 513.883 233.007 513.65C231.793 513.37 230.72 513.09 229.787 512.81V461.36L240.217 459.68V478.02C241.383 477.507 242.597 477.11 243.857 476.83C245.117 476.55 246.47 476.41 247.917 476.41C250.53 476.41 252.84 476.877 254.847 477.81C256.853 478.697 258.533 479.98 259.887 481.66C261.24 483.34 262.267 485.37 262.967 487.75C263.667 490.083 264.017 492.697 264.017 495.59ZM282.463 514H272.033V477.18H282.463V514ZM283.443 466.54C283.443 468.453 282.813 469.97 281.553 471.09C280.339 472.163 278.893 472.7 277.213 472.7C275.533 472.7 274.063 472.163 272.803 471.09C271.589 469.97 270.983 468.453 270.983 466.54C270.983 464.627 271.589 463.133 272.803 462.06C274.063 460.94 275.533 460.38 277.213 460.38C278.893 460.38 280.339 460.94 281.553 462.06C282.813 463.133 283.443 464.627 283.443 466.54ZM306.967 514.7C303.934 514.653 301.461 514.327 299.547 513.72C297.681 513.113 296.187 512.273 295.067 511.2C293.994 510.08 293.247 508.75 292.827 507.21C292.454 505.623 292.267 503.85 292.267 501.89V461.36L302.697 459.68V499.79C302.697 500.723 302.767 501.563 302.907 502.31C303.047 503.057 303.304 503.687 303.677 504.2C304.097 504.713 304.681 505.133 305.427 505.46C306.174 505.787 307.177 505.997 308.437 506.09L306.967 514.7ZM324.846 514H314.416V477.18H324.846V514ZM325.826 466.54C325.826 468.453 325.196 469.97 323.936 471.09C322.722 472.163 321.276 472.7 319.596 472.7C317.916 472.7 316.446 472.163 315.186 471.09C313.972 469.97 313.366 468.453 313.366 466.54C313.366 464.627 313.972 463.133 315.186 462.06C316.446 460.94 317.916 460.38 319.596 460.38C321.276 460.38 322.722 460.94 323.936 462.06C325.196 463.133 325.826 464.627 325.826 466.54ZM343.54 495.31C343.54 498.53 344.263 501.12 345.71 503.08C347.157 505.04 349.303 506.02 352.15 506.02C353.083 506.02 353.947 505.997 354.74 505.95C355.533 505.857 356.187 505.763 356.7 505.67V486.7C356.047 486.28 355.183 485.93 354.11 485.65C353.083 485.37 352.033 485.23 350.96 485.23C346.013 485.23 343.54 488.59 343.54 495.31ZM367.13 512.81C366.197 513.09 365.123 513.37 363.91 513.65C362.697 513.883 361.413 514.093 360.06 514.28C358.753 514.467 357.4 514.607 356 514.7C354.647 514.84 353.34 514.91 352.08 514.91C349.047 514.91 346.34 514.467 343.96 513.58C341.58 512.693 339.573 511.433 337.94 509.8C336.307 508.12 335.047 506.113 334.16 503.78C333.32 501.4 332.9 498.74 332.9 495.8C332.9 492.813 333.273 490.13 334.02 487.75C334.767 485.323 335.84 483.27 337.24 481.59C338.64 479.91 340.343 478.627 342.35 477.74C344.403 476.853 346.737 476.41 349.35 476.41C350.797 476.41 352.08 476.55 353.2 476.83C354.367 477.11 355.533 477.507 356.7 478.02V461.36L367.13 459.68V512.81ZM390.966 506.72C391.993 506.72 392.973 506.697 393.906 506.65C394.839 506.603 395.586 506.533 396.146 506.44V498.53C395.726 498.437 395.096 498.343 394.256 498.25C393.416 498.157 392.646 498.11 391.946 498.11C390.966 498.11 390.033 498.18 389.146 498.32C388.306 498.413 387.559 498.623 386.906 498.95C386.253 499.277 385.739 499.72 385.366 500.28C384.993 500.84 384.806 501.54 384.806 502.38C384.806 504.013 385.343 505.157 386.416 505.81C387.536 506.417 389.053 506.72 390.966 506.72ZM390.126 476.2C393.206 476.2 395.773 476.55 397.826 477.25C399.879 477.95 401.513 478.953 402.726 480.26C403.986 481.567 404.873 483.153 405.386 485.02C405.899 486.887 406.156 488.963 406.156 491.25V512.95C404.663 513.277 402.586 513.65 399.926 514.07C397.266 514.537 394.046 514.77 390.266 514.77C387.886 514.77 385.716 514.56 383.756 514.14C381.843 513.72 380.186 513.043 378.786 512.11C377.386 511.13 376.313 509.87 375.566 508.33C374.819 506.79 374.446 504.9 374.446 502.66C374.446 500.513 374.866 498.693 375.706 497.2C376.593 495.707 377.759 494.517 379.206 493.63C380.653 492.743 382.309 492.113 384.176 491.74C386.043 491.32 387.979 491.11 389.986 491.11C391.339 491.11 392.529 491.18 393.556 491.32C394.629 491.413 395.493 491.553 396.146 491.74V490.76C396.146 488.987 395.609 487.563 394.536 486.49C393.463 485.417 391.596 484.88 388.936 484.88C387.163 484.88 385.413 485.02 383.686 485.3C381.959 485.533 380.466 485.883 379.206 486.35L377.876 477.95C378.483 477.763 379.229 477.577 380.116 477.39C381.049 477.157 382.053 476.97 383.126 476.83C384.199 476.643 385.319 476.503 386.486 476.41C387.699 476.27 388.913 476.2 390.126 476.2ZM424.478 495.31C424.478 498.53 425.201 501.12 426.648 503.08C428.094 505.04 430.241 506.02 433.088 506.02C434.021 506.02 434.884 505.997 435.678 505.95C436.471 505.857 437.124 505.763 437.638 505.67V486.7C436.984 486.28 436.121 485.93 435.048 485.65C434.021 485.37 432.971 485.23 431.898 485.23C426.951 485.23 424.478 488.59 424.478 495.31ZM448.068 512.81C447.134 513.09 446.061 513.37 444.848 513.65C443.634 513.883 442.351 514.093 440.998 514.28C439.691 514.467 438.338 514.607 436.938 514.7C435.584 514.84 434.278 514.91 433.018 514.91C429.984 514.91 427.278 514.467 424.898 513.58C422.518 512.693 420.511 511.433 418.878 509.8C417.244 508.12 415.984 506.113 415.098 503.78C414.258 501.4 413.838 498.74 413.838 495.8C413.838 492.813 414.211 490.13 414.958 487.75C415.704 485.323 416.778 483.27 418.178 481.59C419.578 479.91 421.281 478.627 423.288 477.74C425.341 476.853 427.674 476.41 430.288 476.41C431.734 476.41 433.018 476.55 434.138 476.83C435.304 477.11 436.471 477.507 437.638 478.02V461.36L448.068 459.68V512.81ZM456.084 495.87C456.084 492.603 456.574 489.757 457.554 487.33C458.58 484.857 459.91 482.803 461.544 481.17C463.177 479.537 465.044 478.3 467.144 477.46C469.29 476.62 471.484 476.2 473.724 476.2C478.95 476.2 483.08 477.81 486.114 481.03C489.147 484.203 490.664 488.893 490.664 495.1C490.664 495.707 490.64 496.383 490.594 497.13C490.547 497.83 490.5 498.46 490.454 499.02H466.794C467.027 501.167 468.03 502.87 469.804 504.13C471.577 505.39 473.957 506.02 476.944 506.02C478.857 506.02 480.724 505.857 482.544 505.53C484.41 505.157 485.927 504.713 487.094 504.2L488.494 512.67C487.934 512.95 487.187 513.23 486.254 513.51C485.32 513.79 484.27 514.023 483.104 514.21C481.984 514.443 480.77 514.63 479.464 514.77C478.157 514.91 476.85 514.98 475.544 514.98C472.23 514.98 469.337 514.49 466.864 513.51C464.437 512.53 462.407 511.2 460.774 509.52C459.187 507.793 457.997 505.763 457.204 503.43C456.457 501.097 456.084 498.577 456.084 495.87ZM480.584 491.88C480.537 490.993 480.374 490.13 480.094 489.29C479.86 488.45 479.464 487.703 478.904 487.05C478.39 486.397 477.714 485.86 476.874 485.44C476.08 485.02 475.077 484.81 473.864 484.81C472.697 484.81 471.694 485.02 470.854 485.44C470.014 485.813 469.314 486.327 468.754 486.98C468.194 487.633 467.75 488.403 467.424 489.29C467.144 490.13 466.934 490.993 466.794 491.88H480.584Z" fill="#FFA24B"/>
</g>
<defs>
<clipPath id="clip0_104_269">
<rect width="1300" height="976" fill="white"/>
</clipPath>
</defs>
</svg>
