<svg width="3745" height="1780" viewBox="0 0 3745 1780" fill="none" xmlns="http://www.w3.org/2000/svg">
<rect width="3745" height="1780" fill="black"/>
<path d="M1923 683L1938.8 613H1952.1L1967.3 683H1959.1L1954.2 662.4H1936L1931.5 683H1923ZM1937.5 655.6H1952.7L1945.5 619.6H1944.8L1937.5 655.6ZM1972.34 677H1980.84C1983.71 677 1985.77 676.233 1987.04 674.7C1988.37 673.1 1989.04 671.033 1989.04 668.5C1989.04 666.5 1988.44 664.8 1987.24 663.4C1986.04 662 1984.24 660.367 1981.84 658.5C1979.77 656.833 1978.11 655.4 1976.84 654.2C1975.64 652.933 1974.57 651.4 1973.64 649.6C1972.77 647.733 1972.34 645.6 1972.34 643.2C1972.34 639.667 1973.51 636.767 1975.84 634.5C1978.24 632.167 1981.44 631 1985.44 631H1994.14V637H1986.94C1982.21 637 1979.84 639.233 1979.84 643.7C1979.84 645.433 1980.37 646.933 1981.44 648.2C1982.51 649.467 1984.17 650.967 1986.44 652.7C1988.51 654.3 1990.21 655.767 1991.54 657.1C1992.87 658.367 1994.01 660 1994.94 662C1995.87 663.933 1996.34 666.233 1996.34 668.9C1996.34 673.633 1995.07 677.167 1992.54 679.5C1990.07 681.833 1986.57 683 1982.04 683H1972.34V677ZM2020.36 631H2026.56L2027.46 633.9L2031.56 632.7C2034.36 631.833 2036.56 631.233 2038.16 630.9C2039.83 630.5 2041.39 630.3 2042.86 630.3C2045.26 630.3 2047.03 631.133 2048.16 632.8C2049.29 634.467 2049.86 636.633 2049.86 639.3V683H2041.86V641.9C2041.86 639.967 2041.73 638.633 2041.46 637.9C2041.19 637.1 2040.53 636.7 2039.46 636.7C2038.93 636.7 2035.23 637.767 2028.36 639.9V683H2020.36V631ZM2071.58 683C2069.18 683 2066.95 682.4 2064.88 681.2C2062.88 680 2061.28 678.367 2060.08 676.3C2058.95 674.233 2058.38 671.9 2058.38 669.3V664.1C2058.38 660.967 2059.15 658.333 2060.68 656.2C2062.28 654.067 2064.25 652.567 2066.58 651.7L2078.98 647.1V642.4C2078.98 640.8 2078.48 639.5 2077.48 638.5C2076.55 637.433 2075.32 636.9 2073.78 636.9H2062.48V631H2074.48C2078.15 631 2081.05 632.1 2083.18 634.3C2085.38 636.433 2086.48 639.367 2086.48 643.1V683H2071.58ZM2078.98 676.9V653.4L2070.18 656.7C2068.45 657.367 2067.22 658.267 2066.48 659.4C2065.82 660.533 2065.48 662.333 2065.48 664.8V670.4C2065.48 672.2 2066.15 673.733 2067.48 675C2068.82 676.267 2070.42 676.9 2072.28 676.9H2078.98ZM2097.51 631H2103.71L2104.61 634.7L2107.11 633.5C2109.24 632.433 2111.01 631.633 2112.41 631.1C2113.87 630.567 2115.34 630.3 2116.81 630.3V636.2C2115.94 636.2 2114.77 636.467 2113.31 637C2111.84 637.467 2109.24 638.6 2105.51 640.4V683H2097.51V631ZM2124.27 631H2130.47L2131.37 634.7L2133.87 633.5C2136 632.433 2137.77 631.633 2139.17 631.1C2140.63 630.567 2142.1 630.3 2143.57 630.3V636.2C2142.7 636.2 2141.53 636.467 2140.07 637C2138.6 637.467 2136 638.6 2132.27 640.4V683H2124.27V631ZM2161.62 683C2159.22 683 2156.99 682.4 2154.92 681.2C2152.92 680 2151.32 678.367 2150.12 676.3C2148.99 674.233 2148.42 671.9 2148.42 669.3V664.1C2148.42 660.967 2149.19 658.333 2150.72 656.2C2152.32 654.067 2154.29 652.567 2156.62 651.7L2169.02 647.1V642.4C2169.02 640.8 2168.52 639.5 2167.52 638.5C2166.59 637.433 2165.36 636.9 2163.82 636.9H2152.52V631H2164.52C2168.19 631 2171.09 632.1 2173.22 634.3C2175.42 636.433 2176.52 639.367 2176.52 643.1V683H2161.62ZM2169.02 676.9V653.4L2160.22 656.7C2158.49 657.367 2157.26 658.267 2156.52 659.4C2155.86 660.533 2155.52 662.333 2155.52 664.8V670.4C2155.52 672.2 2156.19 673.733 2157.52 675C2158.86 676.267 2160.46 676.9 2162.32 676.9H2169.02ZM2202.05 683C2198.38 683 2195.48 681.9 2193.35 679.7C2191.21 677.5 2190.15 674.533 2190.15 670.8V637H2184.15V631H2190.15V615.9L2198.15 612.9V631H2206.15V637H2198.15V671.5C2198.15 673.1 2198.58 674.433 2199.45 675.5C2200.38 676.5 2201.61 677 2203.15 677H2206.15V683H2202.05ZM2214.11 622.5V614.5H2222.11V622.5H2214.11ZM2214.11 683V631H2222.11V683H2214.11ZM2241.53 683L2229.63 631H2237.93L2245.63 672.9L2253.23 631H2261.53L2249.63 683H2241.53ZM2279.59 683C2277.19 683 2274.96 682.4 2272.89 681.2C2270.89 680 2269.29 678.367 2268.09 676.3C2266.96 674.233 2266.39 671.9 2266.39 669.3V664.1C2266.39 660.967 2267.16 658.333 2268.69 656.2C2270.29 654.067 2272.26 652.567 2274.59 651.7L2286.99 647.1V642.4C2286.99 640.8 2286.49 639.5 2285.49 638.5C2284.56 637.433 2283.33 636.9 2281.79 636.9H2270.49V631H2282.49C2286.16 631 2289.06 632.1 2291.19 634.3C2293.39 636.433 2294.49 639.367 2294.49 643.1V683H2279.59ZM2286.99 676.9V653.4L2278.19 656.7C2276.46 657.367 2275.23 658.267 2274.49 659.4C2273.83 660.533 2273.49 662.333 2273.49 664.8V670.4C2273.49 672.2 2274.16 673.733 2275.49 675C2276.83 676.267 2278.43 676.9 2280.29 676.9H2286.99ZM2302.52 677H2311.02C2313.88 677 2315.95 676.233 2317.22 674.7C2318.55 673.1 2319.22 671.033 2319.22 668.5C2319.22 666.5 2318.62 664.8 2317.42 663.4C2316.22 662 2314.42 660.367 2312.02 658.5C2309.95 656.833 2308.28 655.4 2307.02 654.2C2305.82 652.933 2304.75 651.4 2303.82 649.6C2302.95 647.733 2302.52 645.6 2302.52 643.2C2302.52 639.667 2303.68 636.767 2306.02 634.5C2308.42 632.167 2311.62 631 2315.62 631H2324.32V637H2317.12C2312.38 637 2310.02 639.233 2310.02 643.7C2310.02 645.433 2310.55 646.933 2311.62 648.2C2312.68 649.467 2314.35 650.967 2316.62 652.7C2318.68 654.3 2320.38 655.767 2321.72 657.1C2323.05 658.367 2324.18 660 2325.12 662C2326.05 663.933 2326.52 666.233 2326.52 668.9C2326.52 673.633 2325.25 677.167 2322.72 679.5C2320.25 681.833 2316.75 683 2312.22 683H2302.52V677ZM2350.54 622.5V614.5H2358.54V622.5H2350.54ZM2350.54 683V631H2358.54V683H2350.54ZM2370.55 631H2376.75L2377.65 633.9L2381.75 632.7C2384.55 631.833 2386.75 631.233 2388.35 630.9C2390.02 630.5 2391.59 630.3 2393.05 630.3C2395.45 630.3 2397.22 631.133 2398.35 632.8C2399.49 634.467 2400.05 636.633 2400.05 639.3V683H2392.05V641.9C2392.05 639.967 2391.92 638.633 2391.65 637.9C2391.39 637.1 2390.72 636.7 2389.65 636.7C2389.12 636.7 2385.42 637.767 2378.55 639.9V683H2370.55V631ZM2425.68 683C2422.01 683 2419.11 681.9 2416.98 679.7C2414.85 677.5 2413.78 674.533 2413.78 670.8V637H2407.78V631H2413.78V615.9L2421.78 612.9V631H2429.78V637H2421.78V671.5C2421.78 673.1 2422.21 674.433 2423.08 675.5C2424.01 676.5 2425.25 677 2426.78 677H2429.78V683H2425.68ZM2448.14 683C2444.48 683 2441.54 681.9 2439.34 679.7C2437.21 677.5 2436.14 674.533 2436.14 670.8V644.2C2436.14 639.867 2437.34 636.467 2439.74 634C2442.14 631.533 2445.71 630.3 2450.44 630.3C2455.18 630.3 2458.71 631.533 2461.04 634C2463.44 636.467 2464.64 639.867 2464.64 644.2V648.8C2464.64 651.6 2463.84 653.733 2462.24 655.2C2460.64 656.6 2458.54 657.667 2455.94 658.4L2444.14 661.7V671.5C2444.14 673.1 2444.61 674.433 2445.54 675.5C2446.54 676.5 2447.81 677 2449.34 677H2460.14V683H2448.14ZM2450.24 653.7C2452.44 653.1 2453.91 652.667 2454.64 652.4C2455.44 652.067 2455.98 651.6 2456.24 651C2456.51 650.4 2456.64 649.4 2456.64 648V642.5C2456.64 640.367 2456.08 638.8 2454.94 637.8C2453.88 636.8 2452.38 636.3 2450.44 636.3C2448.58 636.3 2447.04 636.833 2445.84 637.9C2444.71 638.967 2444.14 640.5 2444.14 642.5V655.4L2450.24 653.7ZM2472.61 631H2478.81L2479.71 634.7L2482.21 633.5C2484.34 632.433 2486.11 631.633 2487.51 631.1C2488.97 630.567 2490.44 630.3 2491.91 630.3V636.2C2491.04 636.2 2489.87 636.467 2488.41 637C2486.94 637.467 2484.34 638.6 2480.61 640.4V683H2472.61V631ZM2509.96 683C2507.56 683 2505.33 682.4 2503.26 681.2C2501.26 680 2499.66 678.367 2498.46 676.3C2497.33 674.233 2496.76 671.9 2496.76 669.3V664.1C2496.76 660.967 2497.53 658.333 2499.06 656.2C2500.66 654.067 2502.63 652.567 2504.96 651.7L2517.36 647.1V642.4C2517.36 640.8 2516.86 639.5 2515.86 638.5C2514.93 637.433 2513.7 636.9 2512.16 636.9H2500.86V631H2512.86C2516.53 631 2519.43 632.1 2521.56 634.3C2523.76 636.433 2524.86 639.367 2524.86 643.1V683H2509.96ZM2517.36 676.9V653.4L2508.56 656.7C2506.83 657.367 2505.6 658.267 2504.86 659.4C2504.2 660.533 2503.86 662.333 2503.86 664.8V670.4C2503.86 672.2 2504.53 673.733 2505.86 675C2507.2 676.267 2508.8 676.9 2510.66 676.9H2517.36ZM2550.39 683C2546.72 683 2543.82 681.9 2541.69 679.7C2539.55 677.5 2538.49 674.533 2538.49 670.8V637H2532.49V631H2538.49V615.9L2546.49 612.9V631H2554.49V637H2546.49V671.5C2546.49 673.1 2546.92 674.433 2547.79 675.5C2548.72 676.5 2549.95 677 2551.49 677H2554.49V683H2550.39ZM2562.45 622.5V614.5H2570.45V622.5H2562.45ZM2562.45 683V631H2570.45V683H2562.45ZM2589.87 683L2577.97 631H2586.27L2593.97 672.9L2601.57 631H2609.87L2597.97 683H2589.87ZM2627.93 683C2625.53 683 2623.3 682.4 2621.23 681.2C2619.23 680 2617.63 678.367 2616.43 676.3C2615.3 674.233 2614.73 671.9 2614.73 669.3V664.1C2614.73 660.967 2615.5 658.333 2617.03 656.2C2618.63 654.067 2620.6 652.567 2622.93 651.7L2635.33 647.1V642.4C2635.33 640.8 2634.83 639.5 2633.83 638.5C2632.9 637.433 2631.67 636.9 2630.13 636.9H2618.83V631H2630.83C2634.5 631 2637.4 632.1 2639.53 634.3C2641.73 636.433 2642.83 639.367 2642.83 643.1V683H2627.93ZM2635.33 676.9V653.4L2626.53 656.7C2624.8 657.367 2623.57 658.267 2622.83 659.4C2622.17 660.533 2621.83 662.333 2621.83 664.8V670.4C2621.83 672.2 2622.5 673.733 2623.83 675C2625.17 676.267 2626.77 676.9 2628.63 676.9H2635.33ZM2650.86 677H2659.36C2662.22 677 2664.29 676.233 2665.56 674.7C2666.89 673.1 2667.56 671.033 2667.56 668.5C2667.56 666.5 2666.96 664.8 2665.76 663.4C2664.56 662 2662.76 660.367 2660.36 658.5C2658.29 656.833 2656.62 655.4 2655.36 654.2C2654.16 652.933 2653.09 651.4 2652.16 649.6C2651.29 647.733 2650.86 645.6 2650.86 643.2C2650.86 639.667 2652.02 636.767 2654.36 634.5C2656.76 632.167 2659.96 631 2663.96 631H2672.66V637H2665.46C2660.72 637 2658.36 639.233 2658.36 643.7C2658.36 645.433 2658.89 646.933 2659.96 648.2C2661.02 649.467 2662.69 650.967 2664.96 652.7C2667.02 654.3 2668.72 655.767 2670.06 657.1C2671.39 658.367 2672.52 660 2673.46 662C2674.39 663.933 2674.86 666.233 2674.86 668.9C2674.86 673.633 2673.59 677.167 2671.06 679.5C2668.59 681.833 2665.09 683 2660.56 683H2650.86V677ZM2698.88 631H2705.08L2705.98 633.9L2710.08 632.7C2712.88 631.833 2715.08 631.233 2716.68 630.9C2718.34 630.5 2719.91 630.3 2721.38 630.3C2723.78 630.3 2725.54 631.133 2726.68 632.8C2727.81 634.467 2728.38 636.633 2728.38 639.3V683H2720.38V641.9C2720.38 639.967 2720.24 638.633 2719.98 637.9C2719.71 637.1 2719.04 636.7 2717.98 636.7C2717.44 636.7 2713.74 637.767 2706.88 639.9V683H2698.88V631ZM2737.2 626C2737.27 623 2737.83 620.733 2738.9 619.2C2739.97 617.6 2741.9 616.8 2744.7 616.8C2745.43 616.8 2747.6 617.333 2751.2 618.4C2754.73 619.533 2757 620.1 2758 620.1C2758.8 620.1 2759.33 619.867 2759.6 619.4C2759.87 618.867 2760.03 618.233 2760.1 617.5C2760.23 616.767 2760.33 616.2 2760.4 615.8H2766.7C2766.63 618.067 2766.47 619.9 2766.2 621.3C2765.93 622.633 2765.23 623.767 2764.1 624.7C2763.03 625.567 2761.4 626 2759.2 626C2758.2 626 2755.93 625.433 2752.4 624.3C2748.8 623.233 2746.63 622.7 2745.9 622.7C2745.03 622.7 2744.47 622.867 2744.2 623.2C2744 623.533 2743.83 624 2743.7 624.6C2743.63 625.2 2743.57 625.667 2743.5 626H2737.2ZM2750.1 683C2747.7 683 2745.47 682.4 2743.4 681.2C2741.4 680 2739.8 678.367 2738.6 676.3C2737.47 674.233 2736.9 671.9 2736.9 669.3V664.1C2736.9 660.967 2737.67 658.333 2739.2 656.2C2740.8 654.067 2742.77 652.567 2745.1 651.7L2757.5 647.1V642.4C2757.5 640.8 2757 639.5 2756 638.5C2755.07 637.433 2753.83 636.9 2752.3 636.9H2741V631H2753C2756.67 631 2759.57 632.1 2761.7 634.3C2763.9 636.433 2765 639.367 2765 643.1V683H2750.1ZM2757.5 676.9V653.4L2748.7 656.7C2746.97 657.367 2745.73 658.267 2745 659.4C2744.33 660.533 2744 662.333 2744 664.8V670.4C2744 672.2 2744.67 673.733 2746 675C2747.33 676.267 2748.93 676.9 2750.8 676.9H2757.5ZM2788.72 683.7C2784.06 683.7 2780.42 682.533 2777.82 680.2C2775.29 677.8 2774.02 674.5 2774.02 670.3V643.7C2774.02 639.5 2775.29 636.233 2777.82 633.9C2780.42 631.5 2784.06 630.3 2788.72 630.3C2793.39 630.3 2796.99 631.5 2799.52 633.9C2802.12 636.233 2803.42 639.5 2803.42 643.7V670.3C2803.42 674.5 2802.12 677.8 2799.52 680.2C2796.99 682.533 2793.39 683.7 2788.72 683.7ZM2788.72 677.5C2790.86 677.5 2792.52 676.9 2793.72 675.7C2794.99 674.433 2795.62 672.633 2795.62 670.3V643.7C2795.62 641.367 2794.99 639.6 2793.72 638.4C2792.52 637.133 2790.86 636.5 2788.72 636.5C2786.59 636.5 2784.89 637.133 2783.62 638.4C2782.42 639.6 2781.82 641.367 2781.82 643.7V670.3C2781.82 672.633 2782.42 674.433 2783.62 675.7C2784.89 676.9 2786.59 677.5 2788.72 677.5ZM2825.46 677H2833.96C2836.83 677 2838.9 676.233 2840.16 674.7C2841.5 673.1 2842.16 671.033 2842.16 668.5C2842.16 666.5 2841.56 664.8 2840.36 663.4C2839.16 662 2837.36 660.367 2834.96 658.5C2832.9 656.833 2831.23 655.4 2829.96 654.2C2828.76 652.933 2827.7 651.4 2826.76 649.6C2825.9 647.733 2825.46 645.6 2825.46 643.2C2825.46 639.667 2826.63 636.767 2828.96 634.5C2831.36 632.167 2834.56 631 2838.56 631H2847.26V637H2840.06C2835.33 637 2832.96 639.233 2832.96 643.7C2832.96 645.433 2833.5 646.933 2834.56 648.2C2835.63 649.467 2837.3 650.967 2839.56 652.7C2841.63 654.3 2843.33 655.767 2844.66 657.1C2846 658.367 2847.13 660 2848.06 662C2849 663.933 2849.46 666.233 2849.46 668.9C2849.46 673.633 2848.2 677.167 2845.66 679.5C2843.2 681.833 2839.7 683 2835.16 683H2825.46V677ZM2868.85 683C2865.18 683 2862.25 681.9 2860.05 679.7C2857.91 677.5 2856.85 674.533 2856.85 670.8V644.2C2856.85 639.867 2858.05 636.467 2860.45 634C2862.85 631.533 2866.41 630.3 2871.15 630.3C2875.88 630.3 2879.41 631.533 2881.75 634C2884.15 636.467 2885.35 639.867 2885.35 644.2V648.8C2885.35 651.6 2884.55 653.733 2882.95 655.2C2881.35 656.6 2879.25 657.667 2876.65 658.4L2864.85 661.7V671.5C2864.85 673.1 2865.31 674.433 2866.25 675.5C2867.25 676.5 2868.51 677 2870.05 677H2880.85V683H2868.85ZM2870.95 653.7C2873.15 653.1 2874.61 652.667 2875.35 652.4C2876.15 652.067 2876.68 651.6 2876.95 651C2877.21 650.4 2877.35 649.4 2877.35 648V642.5C2877.35 640.367 2876.78 638.8 2875.65 637.8C2874.58 636.8 2873.08 636.3 2871.15 636.3C2869.28 636.3 2867.75 636.833 2866.55 637.9C2865.41 638.967 2864.85 640.5 2864.85 642.5V655.4L2870.95 653.7ZM2908.35 631H2914.55L2915.45 634.7L2917.95 633.5C2920.08 632.433 2921.85 631.633 2923.25 631.1C2924.71 630.567 2926.18 630.3 2927.65 630.3V636.2C2926.78 636.2 2925.61 636.467 2924.15 637C2922.68 637.467 2920.08 638.6 2916.35 640.4V683H2908.35V631ZM2945.51 683C2941.84 683 2938.91 681.9 2936.71 679.7C2934.57 677.5 2933.51 674.533 2933.51 670.8V644.2C2933.51 639.867 2934.71 636.467 2937.11 634C2939.51 631.533 2943.07 630.3 2947.81 630.3C2952.54 630.3 2956.07 631.533 2958.41 634C2960.81 636.467 2962.01 639.867 2962.01 644.2V648.8C2962.01 651.6 2961.21 653.733 2959.61 655.2C2958.01 656.6 2955.91 657.667 2953.31 658.4L2941.51 661.7V671.5C2941.51 673.1 2941.97 674.433 2942.91 675.5C2943.91 676.5 2945.17 677 2946.71 677H2957.51V683H2945.51ZM2947.61 653.7C2949.81 653.1 2951.27 652.667 2952.01 652.4C2952.81 652.067 2953.34 651.6 2953.61 651C2953.87 650.4 2954.01 649.4 2954.01 648V642.5C2954.01 640.367 2953.44 638.8 2952.31 637.8C2951.24 636.8 2949.74 636.3 2947.81 636.3C2945.94 636.3 2944.41 636.833 2943.21 637.9C2942.07 638.967 2941.51 640.5 2941.51 642.5V655.4L2947.61 653.7ZM2966.97 677H2975.47C2978.34 677 2980.4 676.233 2981.67 674.7C2983 673.1 2983.67 671.033 2983.67 668.5C2983.67 666.5 2983.07 664.8 2981.87 663.4C2980.67 662 2978.87 660.367 2976.47 658.5C2974.4 656.833 2972.74 655.4 2971.47 654.2C2970.27 652.933 2969.2 651.4 2968.27 649.6C2967.4 647.733 2966.97 645.6 2966.97 643.2C2966.97 639.667 2968.14 636.767 2970.47 634.5C2972.87 632.167 2976.07 631 2980.07 631H2988.77V637H2981.57C2976.84 637 2974.47 639.233 2974.47 643.7C2974.47 645.433 2975 646.933 2976.07 648.2C2977.14 649.467 2978.8 650.967 2981.07 652.7C2983.14 654.3 2984.84 655.767 2986.17 657.1C2987.5 658.367 2988.64 660 2989.57 662C2990.5 663.933 2990.97 666.233 2990.97 668.9C2990.97 673.633 2989.7 677.167 2987.17 679.5C2984.7 681.833 2981.2 683 2976.67 683H2966.97V677ZM3014.45 683C3010.78 683 3007.88 681.9 3005.75 679.7C3003.62 677.5 3002.55 674.533 3002.55 670.8V637H2996.55V631H3002.55V615.9L3010.55 612.9V631H3018.55V637H3010.55V671.5C3010.55 673.1 3010.98 674.433 3011.85 675.5C3012.78 676.5 3014.02 677 3015.55 677H3018.55V683H3014.45ZM3026.51 631H3032.71L3033.61 634.7L3036.11 633.5C3038.25 632.433 3040.01 631.633 3041.41 631.1C3042.88 630.567 3044.35 630.3 3045.81 630.3V636.2C3044.95 636.2 3043.78 636.467 3042.31 637C3040.85 637.467 3038.25 638.6 3034.51 640.4V683H3026.51V631ZM3053.27 622.5V614.5H3061.27V622.5H3053.27ZM3053.27 683V631H3061.27V683H3053.27ZM3073.29 631H3079.49L3080.39 633.9L3084.49 632.7C3087.29 631.833 3089.49 631.233 3091.09 630.9C3092.76 630.5 3094.32 630.3 3095.79 630.3C3098.19 630.3 3099.96 631.133 3101.09 632.8C3102.22 634.467 3102.79 636.633 3102.79 639.3V683H3094.79V641.9C3094.79 639.967 3094.66 638.633 3094.39 637.9C3094.12 637.1 3093.46 636.7 3092.39 636.7C3091.86 636.7 3088.16 637.767 3081.29 639.9V683H3073.29V631ZM3118.11 693H3128.41C3129.95 693 3131.15 692.467 3132.01 691.4C3132.95 690.4 3133.41 689.1 3133.41 687.5V683.1H3125.11C3121.45 683.1 3118.35 681.9 3115.81 679.5C3113.28 677.1 3112.01 674.1 3112.01 670.5V643.6C3112.01 640 3113.28 637 3115.81 634.6C3118.41 632.2 3121.55 631 3125.21 631H3141.51V686.8C3141.51 690.533 3140.48 693.5 3138.41 695.7C3136.41 697.9 3133.58 699 3129.91 699H3118.11V693ZM3133.51 677.1V637H3126.81C3124.95 637 3123.35 637.633 3122.01 638.9C3120.68 640.167 3120.01 641.733 3120.01 643.6V670.5C3120.01 672.367 3120.68 673.933 3122.01 675.2C3123.35 676.467 3124.95 677.1 3126.81 677.1H3133.51ZM3152.49 622.5V614.5H3160.49V622.5H3152.49ZM3152.49 683V631H3160.49V683H3152.49ZM3172.51 631H3178.71L3179.61 634.7L3182.11 633.5C3184.24 632.433 3186.01 631.633 3187.41 631.1C3188.87 630.567 3190.34 630.3 3191.81 630.3V636.2C3190.94 636.2 3189.77 636.467 3188.31 637C3186.84 637.467 3184.24 638.6 3180.51 640.4V683H3172.51V631ZM3209.87 683C3207.47 683 3205.23 682.4 3203.17 681.2C3201.17 680 3199.57 678.367 3198.37 676.3C3197.23 674.233 3196.67 671.9 3196.67 669.3V664.1C3196.67 660.967 3197.43 658.333 3198.97 656.2C3200.57 654.067 3202.53 652.567 3204.87 651.7L3217.27 647.1V642.4C3217.27 640.8 3216.77 639.5 3215.77 638.5C3214.83 637.433 3213.6 636.9 3212.07 636.9H3200.77V631H3212.77C3216.43 631 3219.33 632.1 3221.47 634.3C3223.67 636.433 3224.77 639.367 3224.77 643.1V683H3209.87ZM3217.27 676.9V653.4L3208.47 656.7C3206.73 657.367 3205.5 658.267 3204.77 659.4C3204.1 660.533 3203.77 662.333 3203.77 664.8V670.4C3203.77 672.2 3204.43 673.733 3205.77 675C3207.1 676.267 3208.7 676.9 3210.57 676.9H3217.27ZM3235.79 631H3241.99L3242.89 633.9L3246.99 632.7C3249.79 631.833 3251.99 631.233 3253.59 630.9C3255.26 630.5 3256.82 630.3 3258.29 630.3C3261.16 630.3 3263.16 631.567 3264.29 634.1C3266.16 633.433 3268.79 632.633 3272.19 631.7C3275.59 630.767 3278.09 630.3 3279.69 630.3C3282.09 630.3 3283.86 631.133 3284.99 632.8C3286.19 634.467 3286.79 636.633 3286.79 639.3V683H3278.79V641.9C3278.79 639.967 3278.66 638.633 3278.39 637.9C3278.12 637.1 3277.46 636.7 3276.39 636.7C3275.86 636.7 3272.19 637.767 3265.39 639.9V683H3257.39V641.9C3257.39 639.967 3257.26 638.633 3256.99 637.9C3256.72 637.1 3256.06 636.7 3254.99 636.7C3254.46 636.7 3250.72 637.767 3243.79 639.9V683H3235.79V631ZM1940.6 737.1L1927.2 728.9L1932.3 724.2L1943.9 734.1L1940.6 737.1ZM1937.6 793C1935.2 793 1932.97 792.4 1930.9 791.2C1928.9 790 1927.3 788.367 1926.1 786.3C1924.97 784.233 1924.4 781.9 1924.4 779.3V774.1C1924.4 770.967 1925.17 768.333 1926.7 766.2C1928.3 764.067 1930.27 762.567 1932.6 761.7L1945 757.1V752.4C1945 750.8 1944.5 749.5 1943.5 748.5C1942.57 747.433 1941.33 746.9 1939.8 746.9H1928.5V741H1940.5C1944.17 741 1947.07 742.1 1949.2 744.3C1951.4 746.433 1952.5 749.367 1952.5 753.1V793H1937.6ZM1945 786.9V763.4L1936.2 766.7C1934.47 767.367 1933.23 768.267 1932.5 769.4C1931.83 770.533 1931.5 772.333 1931.5 774.8V780.4C1931.5 782.2 1932.17 783.733 1933.5 785C1934.83 786.267 1936.43 786.9 1938.3 786.9H1945ZM1981.06 747.6H1975.06V741H1981.06V735.2C1981.06 731.467 1982.13 728.5 1984.26 726.3C1986.4 724.1 1989.3 723 1992.96 723H1997.36V729H1994.36C1992.83 729 1991.56 729.533 1990.56 730.6C1989.56 731.667 1989.06 732.967 1989.06 734.5V741H1997.16V747.6H1989.06V793H1981.06V747.6ZM2003.66 732.5V724.5H2011.66V732.5H2003.66ZM2003.66 793V741H2011.66V793H2003.66ZM2034.68 793C2031.01 793 2028.08 791.9 2025.88 789.7C2023.75 787.5 2022.68 784.533 2022.68 780.8V754.2C2022.68 750 2023.78 746.767 2025.98 744.5C2028.18 742.167 2031.38 741 2035.58 741H2046.68V747H2035.78C2034.25 747 2033.01 747.533 2032.08 748.6C2031.15 749.6 2030.68 750.9 2030.68 752.5V781.5C2030.68 783.1 2031.15 784.433 2032.08 785.5C2033.08 786.5 2034.35 787 2035.88 787H2046.68V793H2034.68ZM2069.76 796.2C2072.16 796.2 2073.99 796.633 2075.26 797.5C2076.53 798.367 2077.16 799.933 2077.16 802.2C2077.16 806.733 2074.56 809 2069.36 809H2058.66V804.3H2066.66C2068.19 804.3 2069.33 804.133 2070.06 803.8C2070.79 803.467 2071.16 802.9 2071.16 802.1C2071.16 801.233 2070.89 800.667 2070.36 800.4C2069.83 800.133 2068.96 800 2067.76 800H2062.56L2064.26 793H2064.66C2060.99 793 2058.06 791.9 2055.86 789.7C2053.73 787.5 2052.66 784.533 2052.66 780.8V754.2C2052.66 750 2053.76 746.767 2055.96 744.5C2058.16 742.167 2061.36 741 2065.56 741H2076.66V747H2065.76C2064.23 747 2062.99 747.533 2062.06 748.6C2061.13 749.6 2060.66 750.9 2060.66 752.5V781.5C2060.66 783.1 2061.13 784.433 2062.06 785.5C2063.06 786.5 2064.33 787 2065.86 787H2076.66V793H2070.46L2069.76 796.2ZM2081.34 736C2081.41 733 2081.97 730.733 2083.04 729.2C2084.11 727.6 2086.04 726.8 2088.84 726.8C2089.57 726.8 2091.74 727.333 2095.34 728.4C2098.87 729.533 2101.14 730.1 2102.14 730.1C2102.94 730.1 2103.47 729.867 2103.74 729.4C2104.01 728.867 2104.17 728.233 2104.24 727.5C2104.37 726.767 2104.47 726.2 2104.54 725.8H2110.84C2110.77 728.067 2110.61 729.9 2110.34 731.3C2110.07 732.633 2109.37 733.767 2108.24 734.7C2107.17 735.567 2105.54 736 2103.34 736C2102.34 736 2100.07 735.433 2096.54 734.3C2092.94 733.233 2090.77 732.7 2090.04 732.7C2089.17 732.7 2088.61 732.867 2088.34 733.2C2088.14 733.533 2087.97 734 2087.84 734.6C2087.77 735.2 2087.71 735.667 2087.64 736H2081.34ZM2094.24 793C2091.84 793 2089.61 792.4 2087.54 791.2C2085.54 790 2083.94 788.367 2082.74 786.3C2081.61 784.233 2081.04 781.9 2081.04 779.3V774.1C2081.04 770.967 2081.81 768.333 2083.34 766.2C2084.94 764.067 2086.91 762.567 2089.24 761.7L2101.64 757.1V752.4C2101.64 750.8 2101.14 749.5 2100.14 748.5C2099.21 747.433 2097.97 746.9 2096.44 746.9H2085.14V741H2097.14C2100.81 741 2103.71 742.1 2105.84 744.3C2108.04 746.433 2109.14 749.367 2109.14 753.1V793H2094.24ZM2101.64 786.9V763.4L2092.84 766.7C2091.11 767.367 2089.87 768.267 2089.14 769.4C2088.47 770.533 2088.14 772.333 2088.14 774.8V780.4C2088.14 782.2 2088.81 783.733 2090.14 785C2091.47 786.267 2093.07 786.9 2094.94 786.9H2101.64ZM2132.86 793.7C2128.2 793.7 2124.56 792.533 2121.96 790.2C2119.43 787.8 2118.16 784.5 2118.16 780.3V753.7C2118.16 749.5 2119.43 746.233 2121.96 743.9C2124.56 741.5 2128.2 740.3 2132.86 740.3C2137.53 740.3 2141.13 741.5 2143.66 743.9C2146.26 746.233 2147.56 749.5 2147.56 753.7V780.3C2147.56 784.5 2146.26 787.8 2143.66 790.2C2141.13 792.533 2137.53 793.7 2132.86 793.7ZM2132.86 787.5C2135 787.5 2136.66 786.9 2137.86 785.7C2139.13 784.433 2139.76 782.633 2139.76 780.3V753.7C2139.76 751.367 2139.13 749.6 2137.86 748.4C2136.66 747.133 2135 746.5 2132.86 746.5C2130.73 746.5 2129.03 747.133 2127.76 748.4C2126.56 749.6 2125.96 751.367 2125.96 753.7V780.3C2125.96 782.633 2126.56 784.433 2127.76 785.7C2129.03 786.9 2130.73 787.5 2132.86 787.5ZM2155.67 793V782.7H2163.67V793H2155.67ZM2207.39 793C2201.32 793 2196.62 791.467 2193.29 788.4C2189.95 785.333 2188.29 780.833 2188.29 774.9V741.1C2188.29 735.167 2189.95 730.667 2193.29 727.6C2196.62 724.533 2201.32 723 2207.39 723H2220.79V729.6H2207.39C2204.32 729.6 2201.82 730.5 2199.89 732.3C2198.02 734.033 2197.09 736.367 2197.09 739.3V776.7C2197.09 779.633 2198.02 782 2199.89 783.8C2201.82 785.533 2204.32 786.4 2207.39 786.4H2220.79V793H2207.39ZM2241.46 793.7C2236.79 793.7 2233.16 792.533 2230.56 790.2C2228.02 787.8 2226.76 784.5 2226.76 780.3V753.7C2226.76 749.5 2228.02 746.233 2230.56 743.9C2233.16 741.5 2236.79 740.3 2241.46 740.3C2246.12 740.3 2249.72 741.5 2252.26 743.9C2254.86 746.233 2256.16 749.5 2256.16 753.7V780.3C2256.16 784.5 2254.86 787.8 2252.26 790.2C2249.72 792.533 2246.12 793.7 2241.46 793.7ZM2241.46 787.5C2243.59 787.5 2245.26 786.9 2246.46 785.7C2247.72 784.433 2248.36 782.633 2248.36 780.3V753.7C2248.36 751.367 2247.72 749.6 2246.46 748.4C2245.26 747.133 2243.59 746.5 2241.46 746.5C2239.32 746.5 2237.62 747.133 2236.36 748.4C2235.16 749.6 2234.56 751.367 2234.56 753.7V780.3C2234.56 782.633 2235.16 784.433 2236.36 785.7C2237.62 786.9 2239.32 787.5 2241.46 787.5ZM2266.16 741H2272.36L2273.26 743.9L2277.36 742.7C2280.16 741.833 2282.36 741.233 2283.96 740.9C2285.63 740.5 2287.19 740.3 2288.66 740.3C2291.53 740.3 2293.53 741.567 2294.66 744.1C2296.53 743.433 2299.16 742.633 2302.56 741.7C2305.96 740.767 2308.46 740.3 2310.06 740.3C2312.46 740.3 2314.23 741.133 2315.36 742.8C2316.56 744.467 2317.16 746.633 2317.16 749.3V793H2309.16V751.9C2309.16 749.967 2309.03 748.633 2308.76 747.9C2308.49 747.1 2307.83 746.7 2306.76 746.7C2306.23 746.7 2302.56 747.767 2295.76 749.9V793H2287.76V751.9C2287.76 749.967 2287.63 748.633 2287.36 747.9C2287.09 747.1 2286.43 746.7 2285.36 746.7C2284.83 746.7 2281.09 747.767 2274.16 749.9V793H2266.16V741ZM2353.81 793C2351.41 793 2349.18 792.4 2347.11 791.2C2345.11 790 2343.51 788.367 2342.31 786.3C2341.18 784.233 2340.61 781.9 2340.61 779.3V774.1C2340.61 770.967 2341.38 768.333 2342.91 766.2C2344.51 764.067 2346.48 762.567 2348.81 761.7L2361.21 757.1V752.4C2361.21 750.8 2360.71 749.5 2359.71 748.5C2358.78 747.433 2357.54 746.9 2356.01 746.9H2344.71V741H2356.71C2360.38 741 2363.28 742.1 2365.41 744.3C2367.61 746.433 2368.71 749.367 2368.71 753.1V793H2353.81ZM2361.21 786.9V763.4L2352.41 766.7C2350.68 767.367 2349.44 768.267 2348.71 769.4C2348.04 770.533 2347.71 772.333 2347.71 774.8V780.4C2347.71 782.2 2348.38 783.733 2349.71 785C2351.04 786.267 2352.64 786.9 2354.51 786.9H2361.21ZM2394.77 741H2410.97C2414.64 741 2417.74 742.2 2420.27 744.6C2422.87 747 2424.17 750 2424.17 753.6V780.5C2424.17 784.1 2422.91 787.1 2420.37 789.5C2417.84 791.833 2414.74 793 2411.07 793H2402.77V809H2394.77V741ZM2409.37 787.1C2411.24 787.1 2412.84 786.467 2414.17 785.2C2415.51 783.933 2416.17 782.367 2416.17 780.5V753.6C2416.17 751.733 2415.51 750.167 2414.17 748.9C2412.84 747.633 2411.24 747 2409.37 747H2402.77V787.1H2409.37ZM2446.34 793.7C2441.67 793.7 2438.04 792.533 2435.44 790.2C2432.91 787.8 2431.64 784.5 2431.64 780.3V753.7C2431.64 749.5 2432.91 746.233 2435.44 743.9C2438.04 741.5 2441.67 740.3 2446.34 740.3C2451.01 740.3 2454.61 741.5 2457.14 743.9C2459.74 746.233 2461.04 749.5 2461.04 753.7V780.3C2461.04 784.5 2459.74 787.8 2457.14 790.2C2454.61 792.533 2451.01 793.7 2446.34 793.7ZM2446.34 787.5C2448.47 787.5 2450.14 786.9 2451.34 785.7C2452.61 784.433 2453.24 782.633 2453.24 780.3V753.7C2453.24 751.367 2452.61 749.6 2451.34 748.4C2450.14 747.133 2448.47 746.5 2446.34 746.5C2444.21 746.5 2442.51 747.133 2441.24 748.4C2440.04 749.6 2439.44 751.367 2439.44 753.7V780.3C2439.44 782.633 2440.04 784.433 2441.24 785.7C2442.51 786.9 2444.21 787.5 2446.34 787.5ZM2471.04 741H2487.24C2490.91 741 2494.01 742.2 2496.54 744.6C2499.14 747 2500.44 750 2500.44 753.6V780.5C2500.44 784.1 2499.18 787.1 2496.64 789.5C2494.11 791.833 2491.01 793 2487.34 793H2479.04V809H2471.04V741ZM2485.64 787.1C2487.51 787.1 2489.11 786.467 2490.44 785.2C2491.78 783.933 2492.44 782.367 2492.44 780.5V753.6C2492.44 751.733 2491.78 750.167 2490.44 748.9C2489.11 747.633 2487.51 747 2485.64 747H2479.04V787.1H2485.64ZM2516.01 793.7C2513.61 793.7 2511.81 792.867 2510.61 791.2C2509.48 789.533 2508.91 787.367 2508.91 784.7V741H2516.91V782.1C2516.91 783.967 2517.04 785.3 2517.31 786.1C2517.58 786.9 2518.21 787.3 2519.21 787.3C2519.68 787.3 2523.44 786.3 2530.51 784.3V741H2538.51V793H2532.81L2531.31 789.6C2530.24 790 2529.44 790.267 2528.91 790.4C2525.78 791.533 2523.24 792.367 2521.31 792.9C2519.38 793.433 2517.61 793.7 2516.01 793.7ZM2550.64 793V723H2558.64V793H2550.64ZM2581.15 793C2578.75 793 2576.52 792.4 2574.45 791.2C2572.45 790 2570.85 788.367 2569.65 786.3C2568.52 784.233 2567.95 781.9 2567.95 779.3V774.1C2567.95 770.967 2568.72 768.333 2570.25 766.2C2571.85 764.067 2573.82 762.567 2576.15 761.7L2588.55 757.1V752.4C2588.55 750.8 2588.05 749.5 2587.05 748.5C2586.12 747.433 2584.89 746.9 2583.35 746.9H2572.05V741H2584.05C2587.72 741 2590.62 742.1 2592.75 744.3C2594.95 746.433 2596.05 749.367 2596.05 753.1V793H2581.15ZM2588.55 786.9V763.4L2579.75 766.7C2578.02 767.367 2576.79 768.267 2576.05 769.4C2575.39 770.533 2575.05 772.333 2575.05 774.8V780.4C2575.05 782.2 2575.72 783.733 2577.05 785C2578.39 786.267 2579.99 786.9 2581.85 786.9H2588.55ZM2607.08 741H2613.28L2614.18 744.7L2616.68 743.5C2618.81 742.433 2620.58 741.633 2621.98 741.1C2623.44 740.567 2624.91 740.3 2626.38 740.3V746.2C2625.51 746.2 2624.34 746.467 2622.88 747C2621.41 747.467 2618.81 748.6 2615.08 750.4V793H2607.08V741ZM2633.84 732.5V724.5H2641.84V732.5H2633.84ZM2633.84 793V741H2641.84V793H2633.84ZM2650.86 793V787L2668.56 747H2651.26V741H2677.06V746.9L2658.66 787H2676.96V793H2650.86ZM2695.61 793C2693.21 793 2690.97 792.4 2688.91 791.2C2686.91 790 2685.31 788.367 2684.11 786.3C2682.97 784.233 2682.41 781.9 2682.41 779.3V774.1C2682.41 770.967 2683.17 768.333 2684.71 766.2C2686.31 764.067 2688.27 762.567 2690.61 761.7L2703.01 757.1V752.4C2703.01 750.8 2702.51 749.5 2701.51 748.5C2700.57 747.433 2699.34 746.9 2697.81 746.9H2686.51V741H2698.51C2702.17 741 2705.07 742.1 2707.21 744.3C2709.41 746.433 2710.51 749.367 2710.51 753.1V793H2695.61ZM2703.01 786.9V763.4L2694.21 766.7C2692.47 767.367 2691.24 768.267 2690.51 769.4C2689.84 770.533 2689.51 772.333 2689.51 774.8V780.4C2689.51 782.2 2690.17 783.733 2691.51 785C2692.84 786.267 2694.44 786.9 2696.31 786.9H2703.01ZM2737.63 796.2C2740.03 796.2 2741.86 796.633 2743.13 797.5C2744.4 798.367 2745.03 799.933 2745.03 802.2C2745.03 806.733 2742.43 809 2737.23 809H2726.53V804.3H2734.53C2736.06 804.3 2737.2 804.133 2737.93 803.8C2738.66 803.467 2739.03 802.9 2739.03 802.1C2739.03 801.233 2738.76 800.667 2738.23 800.4C2737.7 800.133 2736.83 800 2735.63 800H2730.43L2732.13 793H2732.53C2728.86 793 2725.93 791.9 2723.73 789.7C2721.6 787.5 2720.53 784.533 2720.53 780.8V754.2C2720.53 750 2721.63 746.767 2723.83 744.5C2726.03 742.167 2729.23 741 2733.43 741H2744.53V747H2733.63C2732.1 747 2730.86 747.533 2729.93 748.6C2729 749.6 2728.53 750.9 2728.53 752.5V781.5C2728.53 783.1 2729 784.433 2729.93 785.5C2730.93 786.5 2732.2 787 2733.73 787H2744.53V793H2738.33L2737.63 796.2ZM2749.21 736C2749.28 733 2749.85 730.733 2750.91 729.2C2751.98 727.6 2753.91 726.8 2756.71 726.8C2757.45 726.8 2759.61 727.333 2763.21 728.4C2766.75 729.533 2769.01 730.1 2770.01 730.1C2770.81 730.1 2771.35 729.867 2771.61 729.4C2771.88 728.867 2772.05 728.233 2772.11 727.5C2772.25 726.767 2772.35 726.2 2772.41 725.8H2778.71C2778.65 728.067 2778.48 729.9 2778.21 731.3C2777.95 732.633 2777.25 733.767 2776.11 734.7C2775.05 735.567 2773.41 736 2771.21 736C2770.21 736 2767.95 735.433 2764.41 734.3C2760.81 733.233 2758.65 732.7 2757.91 732.7C2757.05 732.7 2756.48 732.867 2756.21 733.2C2756.01 733.533 2755.85 734 2755.71 734.6C2755.65 735.2 2755.58 735.667 2755.51 736H2749.21ZM2762.11 793C2759.71 793 2757.48 792.4 2755.41 791.2C2753.41 790 2751.81 788.367 2750.61 786.3C2749.48 784.233 2748.91 781.9 2748.91 779.3V774.1C2748.91 770.967 2749.68 768.333 2751.21 766.2C2752.81 764.067 2754.78 762.567 2757.11 761.7L2769.51 757.1V752.4C2769.51 750.8 2769.01 749.5 2768.01 748.5C2767.08 747.433 2765.85 746.9 2764.31 746.9H2753.01V741H2765.01C2768.68 741 2771.58 742.1 2773.71 744.3C2775.91 746.433 2777.01 749.367 2777.01 753.1V793H2762.11ZM2769.51 786.9V763.4L2760.71 766.7C2758.98 767.367 2757.75 768.267 2757.01 769.4C2756.35 770.533 2756.01 772.333 2756.01 774.8V780.4C2756.01 782.2 2756.68 783.733 2758.01 785C2759.35 786.267 2760.95 786.9 2762.81 786.9H2769.51ZM2800.74 793.7C2796.07 793.7 2792.44 792.533 2789.84 790.2C2787.3 787.8 2786.04 784.5 2786.04 780.3V753.7C2786.04 749.5 2787.3 746.233 2789.84 743.9C2792.44 741.5 2796.07 740.3 2800.74 740.3C2805.4 740.3 2809 741.5 2811.54 743.9C2814.14 746.233 2815.44 749.5 2815.44 753.7V780.3C2815.44 784.5 2814.14 787.8 2811.54 790.2C2809 792.533 2805.4 793.7 2800.74 793.7ZM2800.74 787.5C2802.87 787.5 2804.54 786.9 2805.74 785.7C2807 784.433 2807.64 782.633 2807.64 780.3V753.7C2807.64 751.367 2807 749.6 2805.74 748.4C2804.54 747.133 2802.87 746.5 2800.74 746.5C2798.6 746.5 2796.9 747.133 2795.64 748.4C2794.44 749.6 2793.84 751.367 2793.84 753.7V780.3C2793.84 782.633 2794.44 784.433 2795.64 785.7C2796.9 786.9 2798.6 787.5 2800.74 787.5ZM2853.68 793C2849.48 793 2846.08 791.767 2843.48 789.3C2840.88 786.833 2839.58 783.533 2839.58 779.4V754.5C2839.58 751.633 2840.34 749.2 2841.88 747.2C2843.48 745.2 2845.44 743.833 2847.78 743.1L2861.18 738.4V723H2869.18V793H2853.68ZM2861.18 787V745L2852.28 748C2850.54 748.533 2849.31 749.4 2848.58 750.6C2847.91 751.733 2847.58 753.567 2847.58 756.1V779.4C2847.58 781.8 2848.28 783.667 2849.68 785C2851.08 786.333 2852.98 787 2855.38 787H2861.18ZM2891.8 793C2889.4 793 2887.17 792.4 2885.1 791.2C2883.1 790 2881.5 788.367 2880.3 786.3C2879.17 784.233 2878.6 781.9 2878.6 779.3V774.1C2878.6 770.967 2879.37 768.333 2880.9 766.2C2882.5 764.067 2884.47 762.567 2886.8 761.7L2899.2 757.1V752.4C2899.2 750.8 2898.7 749.5 2897.7 748.5C2896.77 747.433 2895.53 746.9 2894 746.9H2882.7V741H2894.7C2898.37 741 2901.27 742.1 2903.4 744.3C2905.6 746.433 2906.7 749.367 2906.7 753.1V793H2891.8ZM2899.2 786.9V763.4L2890.4 766.7C2888.67 767.367 2887.43 768.267 2886.7 769.4C2886.03 770.533 2885.7 772.333 2885.7 774.8V780.4C2885.7 782.2 2886.37 783.733 2887.7 785C2889.03 786.267 2890.63 786.9 2892.5 786.9H2899.2ZM2932.76 732.5V724.5H2940.76V732.5H2932.76ZM2932.76 793V741H2940.76V793H2932.76ZM2952.78 741H2958.98L2959.88 743.9L2963.98 742.7C2966.78 741.833 2968.98 741.233 2970.58 740.9C2972.25 740.5 2973.81 740.3 2975.28 740.3C2977.68 740.3 2979.45 741.133 2980.58 742.8C2981.71 744.467 2982.28 746.633 2982.28 749.3V793H2974.28V751.9C2974.28 749.967 2974.15 748.633 2973.88 747.9C2973.61 747.1 2972.95 746.7 2971.88 746.7C2971.35 746.7 2967.65 747.767 2960.78 749.9V793H2952.78V741ZM3007.91 793C3004.24 793 3001.34 791.9 2999.21 789.7C2997.07 787.5 2996.01 784.533 2996.01 780.8V747H2990.01V741H2996.01V725.9L3004.01 722.9V741H3012.01V747H3004.01V781.5C3004.01 783.1 3004.44 784.433 3005.31 785.5C3006.24 786.5 3007.47 787 3009.01 787H3012.01V793H3007.91ZM3030.37 793C3026.7 793 3023.77 791.9 3021.57 789.7C3019.44 787.5 3018.37 784.533 3018.37 780.8V754.2C3018.37 749.867 3019.57 746.467 3021.97 744C3024.37 741.533 3027.94 740.3 3032.67 740.3C3037.4 740.3 3040.94 741.533 3043.27 744C3045.67 746.467 3046.87 749.867 3046.87 754.2V758.8C3046.87 761.6 3046.07 763.733 3044.47 765.2C3042.87 766.6 3040.77 767.667 3038.17 768.4L3026.37 771.7V781.5C3026.37 783.1 3026.84 784.433 3027.77 785.5C3028.77 786.5 3030.04 787 3031.57 787H3042.37V793H3030.37ZM3032.47 763.7C3034.67 763.1 3036.14 762.667 3036.87 762.4C3037.67 762.067 3038.2 761.6 3038.47 761C3038.74 760.4 3038.87 759.4 3038.87 758V752.5C3038.87 750.367 3038.3 748.8 3037.17 747.8C3036.1 746.8 3034.6 746.3 3032.67 746.3C3030.8 746.3 3029.27 746.833 3028.07 747.9C3026.94 748.967 3026.37 750.5 3026.37 752.5V765.4L3032.47 763.7ZM3054.83 741H3061.03L3061.93 744.7L3064.43 743.5C3066.57 742.433 3068.33 741.633 3069.73 741.1C3071.2 740.567 3072.67 740.3 3074.13 740.3V746.2C3073.27 746.2 3072.1 746.467 3070.63 747C3069.17 747.467 3066.57 748.6 3062.83 750.4V793H3054.83V741ZM3081.59 741H3087.79L3088.69 743.9L3092.79 742.7C3095.59 741.833 3097.79 741.233 3099.39 740.9C3101.06 740.5 3102.62 740.3 3104.09 740.3C3106.49 740.3 3108.26 741.133 3109.39 742.8C3110.52 744.467 3111.09 746.633 3111.09 749.3V793H3103.09V751.9C3103.09 749.967 3102.96 748.633 3102.69 747.9C3102.42 747.1 3101.76 746.7 3100.69 746.7C3100.16 746.7 3096.46 747.767 3089.59 749.9V793H3081.59V741ZM3132.61 793C3128.95 793 3126.01 791.9 3123.81 789.7C3121.68 787.5 3120.61 784.533 3120.61 780.8V754.2C3120.61 749.867 3121.81 746.467 3124.21 744C3126.61 741.533 3130.18 740.3 3134.91 740.3C3139.65 740.3 3143.18 741.533 3145.51 744C3147.91 746.467 3149.11 749.867 3149.11 754.2V758.8C3149.11 761.6 3148.31 763.733 3146.71 765.2C3145.11 766.6 3143.01 767.667 3140.41 768.4L3128.61 771.7V781.5C3128.61 783.1 3129.08 784.433 3130.01 785.5C3131.01 786.5 3132.28 787 3133.81 787H3144.61V793H3132.61ZM3134.71 763.7C3136.91 763.1 3138.38 762.667 3139.11 762.4C3139.91 762.067 3140.45 761.6 3140.71 761C3140.98 760.4 3141.11 759.4 3141.11 758V752.5C3141.11 750.367 3140.55 748.8 3139.41 747.8C3138.35 746.8 3136.85 746.3 3134.91 746.3C3133.05 746.3 3131.51 746.833 3130.31 747.9C3129.18 748.967 3128.61 750.5 3128.61 752.5V765.4L3134.71 763.7ZM3171.58 793C3167.91 793 3165.01 791.9 3162.88 789.7C3160.74 787.5 3159.68 784.533 3159.68 780.8V747H3153.68V741H3159.68V725.9L3167.68 722.9V741H3175.68V747H3167.68V781.5C3167.68 783.1 3168.11 784.433 3168.98 785.5C3169.91 786.5 3171.14 787 3172.68 787H3175.68V793H3171.58ZM1938 903C1934.33 903 1931.4 901.9 1929.2 899.7C1927.07 897.5 1926 894.533 1926 890.8V864.2C1926 860 1927.1 856.767 1929.3 854.5C1931.5 852.167 1934.7 851 1938.9 851H1950V857H1939.1C1937.57 857 1936.33 857.533 1935.4 858.6C1934.47 859.6 1934 860.9 1934 862.5V891.5C1934 893.1 1934.47 894.433 1935.4 895.5C1936.4 896.5 1937.67 897 1939.2 897H1950V903H1938ZM1969.68 903.7C1965.01 903.7 1961.38 902.533 1958.78 900.2C1956.25 897.8 1954.98 894.5 1954.98 890.3V863.7C1954.98 859.5 1956.25 856.233 1958.78 853.9C1961.38 851.5 1965.01 850.3 1969.68 850.3C1974.35 850.3 1977.95 851.5 1980.48 853.9C1983.08 856.233 1984.38 859.5 1984.38 863.7V890.3C1984.38 894.5 1983.08 897.8 1980.48 900.2C1977.95 902.533 1974.35 903.7 1969.68 903.7ZM1969.68 897.5C1971.81 897.5 1973.48 896.9 1974.68 895.7C1975.95 894.433 1976.58 892.633 1976.58 890.3V863.7C1976.58 861.367 1975.95 859.6 1974.68 858.4C1973.48 857.133 1971.81 856.5 1969.68 856.5C1967.55 856.5 1965.85 857.133 1964.58 858.4C1963.38 859.6 1962.78 861.367 1962.78 863.7V890.3C1962.78 892.633 1963.38 894.433 1964.58 895.7C1965.85 896.9 1967.55 897.5 1969.68 897.5ZM1994.38 851H2000.58L2001.48 853.9L2005.58 852.7C2008.38 851.833 2010.58 851.233 2012.18 850.9C2013.85 850.5 2015.42 850.3 2016.88 850.3C2019.75 850.3 2021.75 851.567 2022.88 854.1C2024.75 853.433 2027.38 852.633 2030.78 851.7C2034.18 850.767 2036.68 850.3 2038.28 850.3C2040.68 850.3 2042.45 851.133 2043.58 852.8C2044.78 854.467 2045.38 856.633 2045.38 859.3V903H2037.38V861.9C2037.38 859.967 2037.25 858.633 2036.98 857.9C2036.72 857.1 2036.05 856.7 2034.98 856.7C2034.45 856.7 2030.78 857.767 2023.98 859.9V903H2015.98V861.9C2015.98 859.967 2015.85 858.633 2015.58 857.9C2015.32 857.1 2014.65 856.7 2013.58 856.7C2013.05 856.7 2009.32 857.767 2002.38 859.9V903H1994.38V851ZM2066.79 903C2063.13 903 2060.19 901.9 2057.99 899.7C2055.86 897.5 2054.79 894.533 2054.79 890.8V864.2C2054.79 859.867 2055.99 856.467 2058.39 854C2060.79 851.533 2064.36 850.3 2069.09 850.3C2073.83 850.3 2077.36 851.533 2079.69 854C2082.09 856.467 2083.29 859.867 2083.29 864.2V868.8C2083.29 871.6 2082.49 873.733 2080.89 875.2C2079.29 876.6 2077.19 877.667 2074.59 878.4L2062.79 881.7V891.5C2062.79 893.1 2063.26 894.433 2064.19 895.5C2065.19 896.5 2066.46 897 2067.99 897H2078.79V903H2066.79ZM2068.89 873.7C2071.09 873.1 2072.56 872.667 2073.29 872.4C2074.09 872.067 2074.63 871.6 2074.89 871C2075.16 870.4 2075.29 869.4 2075.29 868V862.5C2075.29 860.367 2074.73 858.8 2073.59 857.8C2072.53 856.8 2071.03 856.3 2069.09 856.3C2067.23 856.3 2065.69 856.833 2064.49 857.9C2063.36 858.967 2062.79 860.5 2062.79 862.5V875.4L2068.89 873.7ZM2091.26 851H2097.46L2098.36 854.7L2100.86 853.5C2102.99 852.433 2104.76 851.633 2106.16 851.1C2107.62 850.567 2109.09 850.3 2110.56 850.3V856.2C2109.69 856.2 2108.52 856.467 2107.06 857C2105.59 857.467 2102.99 858.6 2099.26 860.4V903H2091.26V851ZM2129.02 903C2125.35 903 2122.42 901.9 2120.22 899.7C2118.08 897.5 2117.02 894.533 2117.02 890.8V864.2C2117.02 860 2118.12 856.767 2120.32 854.5C2122.52 852.167 2125.72 851 2129.92 851H2141.02V857H2130.12C2128.58 857 2127.35 857.533 2126.42 858.6C2125.48 859.6 2125.02 860.9 2125.02 862.5V891.5C2125.02 893.1 2125.48 894.433 2126.42 895.5C2127.42 896.5 2128.68 897 2130.22 897H2141.02V903H2129.02ZM2148 842.5V834.5H2156V842.5H2148ZM2148 903V851H2156V903H2148ZM2178.62 903C2176.22 903 2173.98 902.4 2171.92 901.2C2169.92 900 2168.32 898.367 2167.12 896.3C2165.98 894.233 2165.42 891.9 2165.42 889.3V884.1C2165.42 880.967 2166.18 878.333 2167.72 876.2C2169.32 874.067 2171.28 872.567 2173.62 871.7L2186.02 867.1V862.4C2186.02 860.8 2185.52 859.5 2184.52 858.5C2183.58 857.433 2182.35 856.9 2180.82 856.9H2169.52V851H2181.52C2185.18 851 2188.08 852.1 2190.22 854.3C2192.42 856.433 2193.52 859.367 2193.52 863.1V903H2178.62ZM2186.02 896.9V873.4L2177.22 876.7C2175.48 877.367 2174.25 878.267 2173.52 879.4C2172.85 880.533 2172.52 882.333 2172.52 884.8V890.4C2172.52 892.2 2173.18 893.733 2174.52 895C2175.85 896.267 2177.45 896.9 2179.32 896.9H2186.02ZM2204.64 903V833H2212.64V903H2204.64ZM2218.46 915.3L2222.76 903V892.7H2230.76V902.9L2224.66 915.3H2218.46ZM2266.56 903.7C2261.89 903.7 2258.26 902.533 2255.66 900.2C2253.12 897.8 2251.86 894.5 2251.86 890.3V863.7C2251.86 859.5 2253.12 856.233 2255.66 853.9C2258.26 851.5 2261.89 850.3 2266.56 850.3C2271.22 850.3 2274.82 851.5 2277.36 853.9C2279.96 856.233 2281.26 859.5 2281.26 863.7V890.3C2281.26 894.5 2279.96 897.8 2277.36 900.2C2274.82 902.533 2271.22 903.7 2266.56 903.7ZM2266.56 897.5C2268.69 897.5 2270.36 896.9 2271.56 895.7C2272.82 894.433 2273.46 892.633 2273.46 890.3V863.7C2273.46 861.367 2272.82 859.6 2271.56 858.4C2270.36 857.133 2268.69 856.5 2266.56 856.5C2264.42 856.5 2262.72 857.133 2261.46 858.4C2260.26 859.6 2259.66 861.367 2259.66 863.7V890.3C2259.66 892.633 2260.26 894.433 2261.46 895.7C2262.72 896.9 2264.42 897.5 2266.56 897.5ZM2306.3 851H2312.5L2313.4 853.9L2317.5 852.7C2320.3 851.833 2322.5 851.233 2324.1 850.9C2325.76 850.5 2327.33 850.3 2328.8 850.3C2331.66 850.3 2333.66 851.567 2334.8 854.1C2336.66 853.433 2339.3 852.633 2342.7 851.7C2346.1 850.767 2348.6 850.3 2350.2 850.3C2352.6 850.3 2354.36 851.133 2355.5 852.8C2356.7 854.467 2357.3 856.633 2357.3 859.3V903H2349.3V861.9C2349.3 859.967 2349.16 858.633 2348.9 857.9C2348.63 857.1 2347.96 856.7 2346.9 856.7C2346.36 856.7 2342.7 857.767 2335.9 859.9V903H2327.9V861.9C2327.9 859.967 2327.76 858.633 2327.5 857.9C2327.23 857.1 2326.56 856.7 2325.5 856.7C2324.96 856.7 2321.23 857.767 2314.3 859.9V903H2306.3V851ZM2378.71 903C2375.04 903 2372.11 901.9 2369.91 899.7C2367.78 897.5 2366.71 894.533 2366.71 890.8V864.2C2366.71 859.867 2367.91 856.467 2370.31 854C2372.71 851.533 2376.28 850.3 2381.01 850.3C2385.74 850.3 2389.28 851.533 2391.61 854C2394.01 856.467 2395.21 859.867 2395.21 864.2V868.8C2395.21 871.6 2394.41 873.733 2392.81 875.2C2391.21 876.6 2389.11 877.667 2386.51 878.4L2374.71 881.7V891.5C2374.71 893.1 2375.18 894.433 2376.11 895.5C2377.11 896.5 2378.38 897 2379.91 897H2390.71V903H2378.71ZM2380.81 873.7C2383.01 873.1 2384.48 872.667 2385.21 872.4C2386.01 872.067 2386.54 871.6 2386.81 871C2387.08 870.4 2387.21 869.4 2387.21 868V862.5C2387.21 860.367 2386.64 858.8 2385.51 857.8C2384.44 856.8 2382.94 856.3 2381.01 856.3C2379.14 856.3 2377.61 856.833 2376.41 857.9C2375.28 858.967 2374.71 860.5 2374.71 862.5V875.4L2380.81 873.7ZM2403.17 851H2409.37L2410.27 854.7L2412.77 853.5C2414.91 852.433 2416.67 851.633 2418.07 851.1C2419.54 850.567 2421.01 850.3 2422.47 850.3V856.2C2421.61 856.2 2420.44 856.467 2418.97 857C2417.51 857.467 2414.91 858.6 2411.17 860.4V903H2403.17V851ZM2440.93 903C2437.26 903 2434.33 901.9 2432.13 899.7C2430 897.5 2428.93 894.533 2428.93 890.8V864.2C2428.93 860 2430.03 856.767 2432.23 854.5C2434.43 852.167 2437.63 851 2441.83 851H2452.93V857H2442.03C2440.5 857 2439.26 857.533 2438.33 858.6C2437.4 859.6 2436.93 860.9 2436.93 862.5V891.5C2436.93 893.1 2437.4 894.433 2438.33 895.5C2439.33 896.5 2440.6 897 2442.13 897H2452.93V903H2440.93ZM2470.51 903C2468.11 903 2465.88 902.4 2463.81 901.2C2461.81 900 2460.21 898.367 2459.01 896.3C2457.88 894.233 2457.31 891.9 2457.31 889.3V884.1C2457.31 880.967 2458.08 878.333 2459.61 876.2C2461.21 874.067 2463.18 872.567 2465.51 871.7L2477.91 867.1V862.4C2477.91 860.8 2477.41 859.5 2476.41 858.5C2475.48 857.433 2474.24 856.9 2472.71 856.9H2461.41V851H2473.41C2477.08 851 2479.98 852.1 2482.11 854.3C2484.31 856.433 2485.41 859.367 2485.41 863.1V903H2470.51ZM2477.91 896.9V873.4L2469.11 876.7C2467.38 877.367 2466.14 878.267 2465.41 879.4C2464.74 880.533 2464.41 882.333 2464.41 884.8V890.4C2464.41 892.2 2465.08 893.733 2466.41 895C2467.74 896.267 2469.34 896.9 2471.21 896.9H2477.91ZM2509.63 903C2505.43 903 2502.03 901.767 2499.43 899.3C2496.83 896.833 2495.53 893.533 2495.53 889.4V864.5C2495.53 861.633 2496.3 859.2 2497.83 857.2C2499.43 855.2 2501.4 853.833 2503.73 853.1L2517.13 848.4V833H2525.13V903H2509.63ZM2517.13 897V855L2508.23 858C2506.5 858.533 2505.27 859.4 2504.53 860.6C2503.87 861.733 2503.53 863.567 2503.53 866.1V889.4C2503.53 891.8 2504.23 893.667 2505.63 895C2507.03 896.333 2508.93 897 2511.33 897H2517.13ZM2549.86 903.7C2545.19 903.7 2541.56 902.533 2538.96 900.2C2536.42 897.8 2535.16 894.5 2535.16 890.3V863.7C2535.16 859.5 2536.42 856.233 2538.96 853.9C2541.56 851.5 2545.19 850.3 2549.86 850.3C2554.52 850.3 2558.12 851.5 2560.66 853.9C2563.26 856.233 2564.56 859.5 2564.56 863.7V890.3C2564.56 894.5 2563.26 897.8 2560.66 900.2C2558.12 902.533 2554.52 903.7 2549.86 903.7ZM2549.86 897.5C2551.99 897.5 2553.66 896.9 2554.86 895.7C2556.12 894.433 2556.76 892.633 2556.76 890.3V863.7C2556.76 861.367 2556.12 859.6 2554.86 858.4C2553.66 857.133 2551.99 856.5 2549.86 856.5C2547.72 856.5 2546.02 857.133 2544.76 858.4C2543.56 859.6 2542.96 861.367 2542.96 863.7V890.3C2542.96 892.633 2543.56 894.433 2544.76 895.7C2546.02 896.9 2547.72 897.5 2549.86 897.5ZM2600 903C2596.33 903 2593.4 901.9 2591.2 899.7C2589.06 897.5 2588 894.533 2588 890.8V864.2C2588 859.867 2589.2 856.467 2591.6 854C2594 851.533 2597.56 850.3 2602.3 850.3C2607.03 850.3 2610.56 851.533 2612.9 854C2615.3 856.467 2616.5 859.867 2616.5 864.2V868.8C2616.5 871.6 2615.7 873.733 2614.1 875.2C2612.5 876.6 2610.4 877.667 2607.8 878.4L2596 881.7V891.5C2596 893.1 2596.46 894.433 2597.4 895.5C2598.4 896.5 2599.66 897 2601.2 897H2612V903H2600ZM2602.1 873.7C2604.3 873.1 2605.76 872.667 2606.5 872.4C2607.3 872.067 2607.83 871.6 2608.1 871C2608.36 870.4 2608.5 869.4 2608.5 868V862.5C2608.5 860.367 2607.93 858.8 2606.8 857.8C2605.73 856.8 2604.23 856.3 2602.3 856.3C2600.43 856.3 2598.9 856.833 2597.7 857.9C2596.56 858.967 2596 860.5 2596 862.5V875.4L2602.1 873.7ZM2637.66 903C2633.46 903 2630.06 901.767 2627.46 899.3C2624.86 896.833 2623.56 893.533 2623.56 889.4V864.5C2623.56 861.633 2624.33 859.2 2625.86 857.2C2627.46 855.2 2629.43 853.833 2631.76 853.1L2645.16 848.4V833H2653.16V903H2637.66ZM2645.16 897V855L2636.26 858C2634.53 858.533 2633.29 859.4 2632.56 860.6C2631.89 861.733 2631.56 863.567 2631.56 866.1V889.4C2631.56 891.8 2632.26 893.667 2633.66 895C2635.06 896.333 2636.96 897 2639.36 897H2645.16ZM2665.18 842.5V834.5H2673.18V842.5H2665.18ZM2665.18 903V851H2673.18V903H2665.18ZM2699.7 903C2696.04 903 2693.14 901.9 2691 899.7C2688.87 897.5 2687.8 894.533 2687.8 890.8V857H2681.8V851H2687.8V835.9L2695.8 832.9V851H2703.8V857H2695.8V891.5C2695.8 893.1 2696.24 894.433 2697.1 895.5C2698.04 896.5 2699.27 897 2700.8 897H2703.8V903H2699.7ZM2724.47 903.7C2719.8 903.7 2716.17 902.533 2713.57 900.2C2711.03 897.8 2709.77 894.5 2709.77 890.3V863.7C2709.77 859.5 2711.03 856.233 2713.57 853.9C2716.17 851.5 2719.8 850.3 2724.47 850.3C2729.13 850.3 2732.73 851.5 2735.27 853.9C2737.87 856.233 2739.17 859.5 2739.17 863.7V890.3C2739.17 894.5 2737.87 897.8 2735.27 900.2C2732.73 902.533 2729.13 903.7 2724.47 903.7ZM2724.47 897.5C2726.6 897.5 2728.27 896.9 2729.47 895.7C2730.73 894.433 2731.37 892.633 2731.37 890.3V863.7C2731.37 861.367 2730.73 859.6 2729.47 858.4C2728.27 857.133 2726.6 856.5 2724.47 856.5C2722.33 856.5 2720.63 857.133 2719.37 858.4C2718.17 859.6 2717.57 861.367 2717.57 863.7V890.3C2717.57 892.633 2718.17 894.433 2719.37 895.7C2720.63 896.9 2722.33 897.5 2724.47 897.5ZM2749.17 851H2755.37L2756.27 854.7L2758.77 853.5C2760.9 852.433 2762.67 851.633 2764.07 851.1C2765.53 850.567 2767 850.3 2768.47 850.3V856.2C2767.6 856.2 2766.43 856.467 2764.97 857C2763.5 857.467 2760.9 858.6 2757.17 860.4V903H2749.17V851ZM2775.93 842.5V834.5H2783.93V842.5H2775.93ZM2775.93 903V851H2783.93V903H2775.93ZM2806.55 903C2804.15 903 2801.91 902.4 2799.85 901.2C2797.85 900 2796.25 898.367 2795.05 896.3C2793.91 894.233 2793.35 891.9 2793.35 889.3V884.1C2793.35 880.967 2794.11 878.333 2795.65 876.2C2797.25 874.067 2799.21 872.567 2801.55 871.7L2813.95 867.1V862.4C2813.95 860.8 2813.45 859.5 2812.45 858.5C2811.51 857.433 2810.28 856.9 2808.75 856.9H2797.45V851H2809.45C2813.11 851 2816.01 852.1 2818.15 854.3C2820.35 856.433 2821.45 859.367 2821.45 863.1V903H2806.55ZM2813.95 896.9V873.4L2805.15 876.7C2803.41 877.367 2802.18 878.267 2801.45 879.4C2800.78 880.533 2800.45 882.333 2800.45 884.8V890.4C2800.45 892.2 2801.11 893.733 2802.45 895C2803.78 896.267 2805.38 896.9 2807.25 896.9H2813.95ZM2832.57 903V833H2840.57V903H2832.57ZM2877.93 903C2874.26 903 2871.33 901.9 2869.13 899.7C2866.99 897.5 2865.93 894.533 2865.93 890.8V864.2C2865.93 859.867 2867.13 856.467 2869.53 854C2871.93 851.533 2875.49 850.3 2880.23 850.3C2884.96 850.3 2888.49 851.533 2890.83 854C2893.23 856.467 2894.43 859.867 2894.43 864.2V868.8C2894.43 871.6 2893.63 873.733 2892.03 875.2C2890.43 876.6 2888.33 877.667 2885.73 878.4L2873.93 881.7V891.5C2873.93 893.1 2874.39 894.433 2875.33 895.5C2876.33 896.5 2877.59 897 2879.13 897H2889.93V903H2877.93ZM2880.03 873.7C2882.23 873.1 2883.69 872.667 2884.43 872.4C2885.23 872.067 2885.76 871.6 2886.03 871C2886.29 870.4 2886.43 869.4 2886.43 868V862.5C2886.43 860.367 2885.86 858.8 2884.73 857.8C2883.66 856.8 2882.16 856.3 2880.23 856.3C2878.36 856.3 2876.83 856.833 2875.63 857.9C2874.49 858.967 2873.93 860.5 2873.93 862.5V875.4L2880.03 873.7ZM2931.93 903C2928.26 903 2925.36 901.9 2923.23 899.7C2921.1 897.5 2920.03 894.533 2920.03 890.8V857H2914.03V851H2920.03V835.9L2928.03 832.9V851H2936.03V857H2928.03V891.5C2928.03 893.1 2928.46 894.433 2929.33 895.5C2930.26 896.5 2931.5 897 2933.03 897H2936.03V903H2931.93ZM2954.59 903C2952.19 903 2949.96 902.4 2947.89 901.2C2945.89 900 2944.29 898.367 2943.09 896.3C2941.96 894.233 2941.39 891.9 2941.39 889.3V884.1C2941.39 880.967 2942.16 878.333 2943.69 876.2C2945.29 874.067 2947.26 872.567 2949.59 871.7L2961.99 867.1V862.4C2961.99 860.8 2961.49 859.5 2960.49 858.5C2959.56 857.433 2958.33 856.9 2956.79 856.9H2945.49V851H2957.49C2961.16 851 2964.06 852.1 2966.19 854.3C2968.39 856.433 2969.49 859.367 2969.49 863.1V903H2954.59ZM2961.99 896.9V873.4L2953.19 876.7C2951.46 877.367 2950.23 878.267 2949.49 879.4C2948.83 880.533 2948.49 882.333 2948.49 884.8V890.4C2948.49 892.2 2949.16 893.733 2950.49 895C2951.83 896.267 2953.43 896.9 2955.29 896.9H2961.99ZM2980.52 851H2986.72L2987.62 853.9L2991.72 852.7C2994.52 851.833 2996.72 851.233 2998.32 850.9C2999.98 850.5 3001.55 850.3 3003.02 850.3C3005.88 850.3 3007.88 851.567 3009.02 854.1C3010.88 853.433 3013.52 852.633 3016.92 851.7C3020.32 850.767 3022.82 850.3 3024.42 850.3C3026.82 850.3 3028.58 851.133 3029.72 852.8C3030.92 854.467 3031.52 856.633 3031.52 859.3V903H3023.52V861.9C3023.52 859.967 3023.38 858.633 3023.12 857.9C3022.85 857.1 3022.18 856.7 3021.12 856.7C3020.58 856.7 3016.92 857.767 3010.12 859.9V903H3002.12V861.9C3002.12 859.967 3001.98 858.633 3001.72 857.9C3001.45 857.1 3000.78 856.7 2999.72 856.7C2999.18 856.7 2995.45 857.767 2988.52 859.9V903H2980.52V851ZM3042.53 833H3050.53V848.6L3063.93 853.3C3066.26 854.1 3068.19 855.5 3069.73 857.5C3071.33 859.433 3072.13 861.833 3072.13 864.7V890.4C3072.13 894 3070.86 897 3068.33 899.4C3065.79 901.8 3062.69 903 3059.03 903H3042.53V833ZM3057.33 897C3059.19 897 3060.79 896.367 3062.13 895.1C3063.46 893.833 3064.13 892.267 3064.13 890.4V866.3C3064.13 863.767 3063.76 861.933 3063.03 860.8C3062.36 859.6 3061.16 858.733 3059.43 858.2L3050.53 855.2V897H3057.33ZM3092.59 847.1L3089.29 844.1L3100.89 834.2L3105.99 838.9L3092.59 847.1ZM3091.99 903C3088.32 903 3085.39 901.9 3083.19 899.7C3081.06 897.5 3079.99 894.533 3079.99 890.8V864.2C3079.99 859.867 3081.19 856.467 3083.59 854C3085.99 851.533 3089.56 850.3 3094.29 850.3C3099.02 850.3 3102.56 851.533 3104.89 854C3107.29 856.467 3108.49 859.867 3108.49 864.2V868.8C3108.49 871.6 3107.69 873.733 3106.09 875.2C3104.49 876.6 3102.39 877.667 3099.79 878.4L3087.99 881.7V891.5C3087.99 893.1 3088.46 894.433 3089.39 895.5C3090.39 896.5 3091.66 897 3093.19 897H3103.99V903H3091.99ZM3094.09 873.7C3096.29 873.1 3097.76 872.667 3098.49 872.4C3099.29 872.067 3099.82 871.6 3100.09 871C3100.36 870.4 3100.49 869.4 3100.49 868V862.5C3100.49 860.367 3099.92 858.8 3098.79 857.8C3097.72 856.8 3096.22 856.3 3094.29 856.3C3092.42 856.3 3090.89 856.833 3089.69 857.9C3088.56 858.967 3087.99 860.5 3087.99 862.5V875.4L3094.09 873.7ZM3116.45 851H3122.65L3123.55 853.9L3127.65 852.7C3130.45 851.833 3132.65 851.233 3134.25 850.9C3135.92 850.5 3137.49 850.3 3138.95 850.3C3141.82 850.3 3143.82 851.567 3144.95 854.1C3146.82 853.433 3149.45 852.633 3152.85 851.7C3156.25 850.767 3158.75 850.3 3160.35 850.3C3162.75 850.3 3164.52 851.133 3165.65 852.8C3166.85 854.467 3167.45 856.633 3167.45 859.3V903H3159.45V861.9C3159.45 859.967 3159.32 858.633 3159.05 857.9C3158.79 857.1 3158.12 856.7 3157.05 856.7C3156.52 856.7 3152.85 857.767 3146.05 859.9V903H3138.05V861.9C3138.05 859.967 3137.92 858.633 3137.65 857.9C3137.39 857.1 3136.72 856.7 3135.65 856.7C3135.12 856.7 3131.39 857.767 3124.45 859.9V903H3116.45V851ZM3208 903C3204.34 903 3201.44 901.9 3199.3 899.7C3197.17 897.5 3196.1 894.533 3196.1 890.8V857H3190.1V851H3196.1V835.9L3204.1 832.9V851H3212.1V857H3204.1V891.5C3204.1 893.1 3204.54 894.433 3205.4 895.5C3206.34 896.5 3207.57 897 3209.1 897H3212.1V903H3208ZM3230.47 903C3226.8 903 3223.87 901.9 3221.67 899.7C3219.53 897.5 3218.47 894.533 3218.47 890.8V864.2C3218.47 859.867 3219.67 856.467 3222.07 854C3224.47 851.533 3228.03 850.3 3232.77 850.3C3237.5 850.3 3241.03 851.533 3243.37 854C3245.77 856.467 3246.97 859.867 3246.97 864.2V868.8C3246.97 871.6 3246.17 873.733 3244.57 875.2C3242.97 876.6 3240.87 877.667 3238.27 878.4L3226.47 881.7V891.5C3226.47 893.1 3226.93 894.433 3227.87 895.5C3228.87 896.5 3230.13 897 3231.67 897H3242.47V903H3230.47ZM3232.57 873.7C3234.77 873.1 3236.23 872.667 3236.97 872.4C3237.77 872.067 3238.3 871.6 3238.57 871C3238.83 870.4 3238.97 869.4 3238.97 868V862.5C3238.97 860.367 3238.4 858.8 3237.27 857.8C3236.2 856.8 3234.7 856.3 3232.77 856.3C3230.9 856.3 3229.37 856.833 3228.17 857.9C3227.03 858.967 3226.47 860.5 3226.47 862.5V875.4L3232.57 873.7ZM3262.33 903L3250.43 851H3258.73L3266.43 892.9L3274.03 851H3282.33L3270.43 903H3262.33ZM3300.19 903C3296.53 903 3293.59 901.9 3291.39 899.7C3289.26 897.5 3288.19 894.533 3288.19 890.8V864.2C3288.19 859.867 3289.39 856.467 3291.79 854C3294.19 851.533 3297.76 850.3 3302.49 850.3C3307.23 850.3 3310.76 851.533 3313.09 854C3315.49 856.467 3316.69 859.867 3316.69 864.2V868.8C3316.69 871.6 3315.89 873.733 3314.29 875.2C3312.69 876.6 3310.59 877.667 3307.99 878.4L3296.19 881.7V891.5C3296.19 893.1 3296.66 894.433 3297.59 895.5C3298.59 896.5 3299.86 897 3301.39 897H3312.19V903H3300.19ZM3302.29 873.7C3304.49 873.1 3305.96 872.667 3306.69 872.4C3307.49 872.067 3308.03 871.6 3308.29 871C3308.56 870.4 3308.69 869.4 3308.69 868V862.5C3308.69 860.367 3308.13 858.8 3306.99 857.8C3305.93 856.8 3304.43 856.3 3302.49 856.3C3300.63 856.3 3299.09 856.833 3297.89 857.9C3296.76 858.967 3296.19 860.5 3296.19 862.5V875.4L3302.29 873.7ZM1946.5 1013H1938.2C1934.53 1013 1931.43 1011.83 1928.9 1009.5C1926.37 1007.1 1925.1 1004.1 1925.1 1000.5V973.6C1925.1 970 1926.37 967 1928.9 964.6C1931.5 962.2 1934.63 961 1938.3 961H1954.6V1029H1946.5V1013ZM1946.6 1007V967H1939.9C1938.03 967 1936.43 967.633 1935.1 968.9C1933.77 970.167 1933.1 971.733 1933.1 973.6V1000.4C1933.1 1002.27 1933.77 1003.83 1935.1 1005.1C1936.43 1006.37 1938.03 1007 1939.9 1007H1946.6ZM1972.75 1013.7C1970.35 1013.7 1968.55 1012.87 1967.35 1011.2C1966.22 1009.53 1965.65 1007.37 1965.65 1004.7V961H1973.65V1002.1C1973.65 1003.97 1973.78 1005.3 1974.05 1006.1C1974.32 1006.9 1974.95 1007.3 1975.95 1007.3C1976.42 1007.3 1980.18 1006.3 1987.25 1004.3V961H1995.25V1013H1989.55L1988.05 1009.6C1986.98 1010 1986.18 1010.27 1985.65 1010.4C1982.52 1011.53 1979.98 1012.37 1978.05 1012.9C1976.12 1013.43 1974.35 1013.7 1972.75 1013.7ZM2017.67 1013C2014.01 1013 2011.07 1011.9 2008.87 1009.7C2006.74 1007.5 2005.67 1004.53 2005.67 1000.8V974.2C2005.67 969.867 2006.87 966.467 2009.27 964C2011.67 961.533 2015.24 960.3 2019.97 960.3C2024.71 960.3 2028.24 961.533 2030.57 964C2032.97 966.467 2034.17 969.867 2034.17 974.2V978.8C2034.17 981.6 2033.37 983.733 2031.77 985.2C2030.17 986.6 2028.07 987.667 2025.47 988.4L2013.67 991.7V1001.5C2013.67 1003.1 2014.14 1004.43 2015.07 1005.5C2016.07 1006.5 2017.34 1007 2018.87 1007H2029.67V1013H2017.67ZM2019.77 983.7C2021.97 983.1 2023.44 982.667 2024.17 982.4C2024.97 982.067 2025.51 981.6 2025.77 981C2026.04 980.4 2026.17 979.4 2026.17 978V972.5C2026.17 970.367 2025.61 968.8 2024.47 967.8C2023.41 966.8 2021.91 966.3 2019.97 966.3C2018.11 966.3 2016.57 966.833 2015.37 967.9C2014.24 968.967 2013.67 970.5 2013.67 972.5V985.4L2019.77 983.7ZM2057.18 943H2065.18V958.6L2078.58 963.3C2080.91 964.1 2082.84 965.5 2084.38 967.5C2085.98 969.433 2086.78 971.833 2086.78 974.7V1000.4C2086.78 1004 2085.51 1007 2082.98 1009.4C2080.44 1011.8 2077.34 1013 2073.68 1013H2057.18V943ZM2071.98 1007C2073.84 1007 2075.44 1006.37 2076.78 1005.1C2078.11 1003.83 2078.78 1002.27 2078.78 1000.4V976.3C2078.78 973.767 2078.41 971.933 2077.68 970.8C2077.01 969.6 2075.81 968.733 2074.08 968.2L2065.18 965.2V1007H2071.98ZM2102.34 1013.7C2099.94 1013.7 2098.14 1012.87 2096.94 1011.2C2095.8 1009.53 2095.24 1007.37 2095.24 1004.7V961H2103.24V1002.1C2103.24 1003.97 2103.37 1005.3 2103.64 1006.1C2103.9 1006.9 2104.54 1007.3 2105.54 1007.3C2106 1007.3 2109.77 1006.3 2116.84 1004.3V961H2124.84V1013H2119.14L2117.64 1009.6C2116.57 1010 2115.77 1010.27 2115.24 1010.4C2112.1 1011.53 2109.57 1012.37 2107.64 1012.9C2105.7 1013.43 2103.94 1013.7 2102.34 1013.7ZM2133.86 1007H2142.36C2145.23 1007 2147.3 1006.23 2148.56 1004.7C2149.9 1003.1 2150.56 1001.03 2150.56 998.5C2150.56 996.5 2149.96 994.8 2148.76 993.4C2147.56 992 2145.76 990.367 2143.36 988.5C2141.3 986.833 2139.63 985.4 2138.36 984.2C2137.16 982.933 2136.1 981.4 2135.16 979.6C2134.3 977.733 2133.86 975.6 2133.86 973.2C2133.86 969.667 2135.03 966.767 2137.36 964.5C2139.76 962.167 2142.96 961 2146.96 961H2155.66V967H2148.46C2143.73 967 2141.36 969.233 2141.36 973.7C2141.36 975.433 2141.9 976.933 2142.96 978.2C2144.03 979.467 2145.7 980.967 2147.96 982.7C2150.03 984.3 2151.73 985.767 2153.06 987.1C2154.4 988.367 2155.53 990 2156.46 992C2157.4 993.933 2157.86 996.233 2157.86 998.9C2157.86 1003.63 2156.6 1007.17 2154.06 1009.5C2151.6 1011.83 2148.1 1013 2143.56 1013H2133.86V1007ZM2177.84 1013C2174.18 1013 2171.24 1011.9 2169.04 1009.7C2166.91 1007.5 2165.84 1004.53 2165.84 1000.8V974.2C2165.84 970 2166.94 966.767 2169.14 964.5C2171.34 962.167 2174.54 961 2178.74 961H2189.84V967H2178.94C2177.41 967 2176.18 967.533 2175.24 968.6C2174.31 969.6 2173.84 970.9 2173.84 972.5V1001.5C2173.84 1003.1 2174.31 1004.43 2175.24 1005.5C2176.24 1006.5 2177.51 1007 2179.04 1007H2189.84V1013H2177.84ZM2207.42 1013C2205.02 1013 2202.79 1012.4 2200.72 1011.2C2198.72 1010 2197.12 1008.37 2195.92 1006.3C2194.79 1004.23 2194.22 1001.9 2194.22 999.3V994.1C2194.22 990.967 2194.99 988.333 2196.52 986.2C2198.12 984.067 2200.09 982.567 2202.42 981.7L2214.82 977.1V972.4C2214.82 970.8 2214.32 969.5 2213.32 968.5C2212.39 967.433 2211.16 966.9 2209.62 966.9H2198.32V961H2210.32C2213.99 961 2216.89 962.1 2219.02 964.3C2221.22 966.433 2222.32 969.367 2222.32 973.1V1013H2207.42ZM2214.82 1006.9V983.4L2206.02 986.7C2204.29 987.367 2203.06 988.267 2202.32 989.4C2201.66 990.533 2201.32 992.333 2201.32 994.8V1000.4C2201.32 1002.2 2201.99 1003.73 2203.32 1005C2204.66 1006.27 2206.26 1006.9 2208.12 1006.9H2214.82ZM2233.35 961H2239.55L2240.45 964.7L2242.95 963.5C2245.08 962.433 2246.85 961.633 2248.25 961.1C2249.71 960.567 2251.18 960.3 2252.65 960.3V966.2C2251.78 966.2 2250.61 966.467 2249.15 967C2247.68 967.467 2245.08 968.6 2241.35 970.4V1013H2233.35V961ZM2275.14 961H2291.34C2295.01 961 2298.11 962.2 2300.64 964.6C2303.24 967 2304.54 970 2304.54 973.6V1000.5C2304.54 1004.1 2303.28 1007.1 2300.74 1009.5C2298.21 1011.83 2295.11 1013 2291.44 1013H2283.14V1029H2275.14V961ZM2289.74 1007.1C2291.61 1007.1 2293.21 1006.47 2294.54 1005.2C2295.88 1003.93 2296.54 1002.37 2296.54 1000.5V973.6C2296.54 971.733 2295.88 970.167 2294.54 968.9C2293.21 967.633 2291.61 967 2289.74 967H2283.14V1007.1H2289.74ZM2326.71 1013.7C2322.05 1013.7 2318.41 1012.53 2315.81 1010.2C2313.28 1007.8 2312.01 1004.5 2312.01 1000.3V973.7C2312.01 969.5 2313.28 966.233 2315.81 963.9C2318.41 961.5 2322.05 960.3 2326.71 960.3C2331.38 960.3 2334.98 961.5 2337.51 963.9C2340.11 966.233 2341.41 969.5 2341.41 973.7V1000.3C2341.41 1004.5 2340.11 1007.8 2337.51 1010.2C2334.98 1012.53 2331.38 1013.7 2326.71 1013.7ZM2326.71 1007.5C2328.85 1007.5 2330.51 1006.9 2331.71 1005.7C2332.98 1004.43 2333.61 1002.63 2333.61 1000.3V973.7C2333.61 971.367 2332.98 969.6 2331.71 968.4C2330.51 967.133 2328.85 966.5 2326.71 966.5C2324.58 966.5 2322.88 967.133 2321.61 968.4C2320.41 969.6 2319.81 971.367 2319.81 973.7V1000.3C2319.81 1002.63 2320.41 1004.43 2321.61 1005.7C2322.88 1006.9 2324.58 1007.5 2326.71 1007.5ZM2351.41 961H2357.61L2358.51 964.7L2361.01 963.5C2363.15 962.433 2364.91 961.633 2366.31 961.1C2367.78 960.567 2369.25 960.3 2370.71 960.3V966.2C2369.85 966.2 2368.68 966.467 2367.21 967C2365.75 967.467 2363.15 968.6 2359.41 970.4V1013H2351.41V961ZM2393.21 961H2399.41L2400.31 963.9L2404.41 962.7C2407.21 961.833 2409.41 961.233 2411.01 960.9C2412.68 960.5 2414.24 960.3 2415.71 960.3C2418.11 960.3 2419.88 961.133 2421.01 962.8C2422.14 964.467 2422.71 966.633 2422.71 969.3V1013H2414.71V971.9C2414.71 969.967 2414.58 968.633 2414.31 967.9C2414.04 967.1 2413.38 966.7 2412.31 966.7C2411.78 966.7 2408.08 967.767 2401.21 969.9V1013H2393.21V961ZM2446.54 1013.7C2441.87 1013.7 2438.24 1012.53 2435.64 1010.2C2433.1 1007.8 2431.84 1004.5 2431.84 1000.3V973.7C2431.84 969.5 2433.1 966.233 2435.64 963.9C2438.24 961.5 2441.87 960.3 2446.54 960.3C2451.2 960.3 2454.8 961.5 2457.34 963.9C2459.94 966.233 2461.24 969.5 2461.24 973.7V1000.3C2461.24 1004.5 2459.94 1007.8 2457.34 1010.2C2454.8 1012.53 2451.2 1013.7 2446.54 1013.7ZM2446.54 1007.5C2448.67 1007.5 2450.34 1006.9 2451.54 1005.7C2452.8 1004.43 2453.44 1002.63 2453.44 1000.3V973.7C2453.44 971.367 2452.8 969.6 2451.54 968.4C2450.34 967.133 2448.67 966.5 2446.54 966.5C2444.4 966.5 2442.7 967.133 2441.44 968.4C2440.24 969.6 2439.64 971.367 2439.64 973.7V1000.3C2439.64 1002.63 2440.24 1004.43 2441.44 1005.7C2442.7 1006.9 2444.4 1007.5 2446.54 1007.5ZM2478.64 1013L2466.74 961H2475.04L2482.74 1002.9L2490.34 961H2498.64L2486.74 1013H2478.64ZM2518.8 1013.7C2514.13 1013.7 2510.5 1012.53 2507.9 1010.2C2505.37 1007.8 2504.1 1004.5 2504.1 1000.3V973.7C2504.1 969.5 2505.37 966.233 2507.9 963.9C2510.5 961.5 2514.13 960.3 2518.8 960.3C2523.47 960.3 2527.07 961.5 2529.6 963.9C2532.2 966.233 2533.5 969.5 2533.5 973.7V1000.3C2533.5 1004.5 2532.2 1007.8 2529.6 1010.2C2527.07 1012.53 2523.47 1013.7 2518.8 1013.7ZM2518.8 1007.5C2520.93 1007.5 2522.6 1006.9 2523.8 1005.7C2525.07 1004.43 2525.7 1002.63 2525.7 1000.3V973.7C2525.7 971.367 2525.07 969.6 2523.8 968.4C2522.6 967.133 2520.93 966.5 2518.8 966.5C2516.67 966.5 2514.97 967.133 2513.7 968.4C2512.5 969.6 2511.9 971.367 2511.9 973.7V1000.3C2511.9 1002.63 2512.5 1004.43 2513.7 1005.7C2514.97 1006.9 2516.67 1007.5 2518.8 1007.5ZM2540.5 1007H2549C2551.87 1007 2553.94 1006.23 2555.2 1004.7C2556.54 1003.1 2557.2 1001.03 2557.2 998.5C2557.2 996.5 2556.6 994.8 2555.4 993.4C2554.2 992 2552.4 990.367 2550 988.5C2547.94 986.833 2546.27 985.4 2545 984.2C2543.8 982.933 2542.74 981.4 2541.8 979.6C2540.94 977.733 2540.5 975.6 2540.5 973.2C2540.5 969.667 2541.67 966.767 2544 964.5C2546.4 962.167 2549.6 961 2553.6 961H2562.3V967H2555.1C2550.37 967 2548 969.233 2548 973.7C2548 975.433 2548.54 976.933 2549.6 978.2C2550.67 979.467 2552.34 980.967 2554.6 982.7C2556.67 984.3 2558.37 985.767 2559.7 987.1C2561.04 988.367 2562.17 990 2563.1 992C2564.04 993.933 2564.5 996.233 2564.5 998.9C2564.5 1003.63 2563.24 1007.17 2560.7 1009.5C2558.24 1011.83 2554.74 1013 2550.2 1013H2540.5V1007ZM2591.02 967.6H2585.02V961H2591.02V955.2C2591.02 951.467 2592.09 948.5 2594.22 946.3C2596.36 944.1 2599.26 943 2602.92 943H2607.32V949H2604.32C2602.79 949 2601.52 949.533 2600.52 950.6C2599.52 951.667 2599.02 952.967 2599.02 954.5V961H2607.12V967.6H2599.02V1013H2591.02V967.6ZM2626.32 1013.7C2621.65 1013.7 2618.02 1012.53 2615.42 1010.2C2612.89 1007.8 2611.62 1004.5 2611.62 1000.3V973.7C2611.62 969.5 2612.89 966.233 2615.42 963.9C2618.02 961.5 2621.65 960.3 2626.32 960.3C2630.99 960.3 2634.59 961.5 2637.12 963.9C2639.72 966.233 2641.02 969.5 2641.02 973.7V1000.3C2641.02 1004.5 2639.72 1007.8 2637.12 1010.2C2634.59 1012.53 2630.99 1013.7 2626.32 1013.7ZM2626.32 1007.5C2628.45 1007.5 2630.12 1006.9 2631.32 1005.7C2632.59 1004.43 2633.22 1002.63 2633.22 1000.3V973.7C2633.22 971.367 2632.59 969.6 2631.32 968.4C2630.12 967.133 2628.45 966.5 2626.32 966.5C2624.19 966.5 2622.49 967.133 2621.22 968.4C2620.02 969.6 2619.42 971.367 2619.42 973.7V1000.3C2619.42 1002.63 2620.02 1004.43 2621.22 1005.7C2622.49 1006.9 2624.19 1007.5 2626.32 1007.5ZM2651.02 961H2657.22L2658.12 964.7L2660.62 963.5C2662.76 962.433 2664.52 961.633 2665.92 961.1C2667.39 960.567 2668.86 960.3 2670.32 960.3V966.2C2669.46 966.2 2668.29 966.467 2666.82 967C2665.36 967.467 2662.76 968.6 2659.02 970.4V1013H2651.02V961ZM2677.78 961H2683.98L2684.88 963.9L2688.98 962.7C2691.78 961.833 2693.98 961.233 2695.58 960.9C2697.25 960.5 2698.81 960.3 2700.28 960.3C2703.15 960.3 2705.15 961.567 2706.28 964.1C2708.15 963.433 2710.78 962.633 2714.18 961.7C2717.58 960.767 2720.08 960.3 2721.68 960.3C2724.08 960.3 2725.85 961.133 2726.98 962.8C2728.18 964.467 2728.78 966.633 2728.78 969.3V1013H2720.78V971.9C2720.78 969.967 2720.65 968.633 2720.38 967.9C2720.11 967.1 2719.45 966.7 2718.38 966.7C2717.85 966.7 2714.18 967.767 2707.38 969.9V1013H2699.38V971.9C2699.38 969.967 2699.25 968.633 2698.98 967.9C2698.71 967.1 2698.05 966.7 2696.98 966.7C2696.45 966.7 2692.71 967.767 2685.78 969.9V1013H2677.78V961ZM2750.39 1013C2747.99 1013 2745.76 1012.4 2743.69 1011.2C2741.69 1010 2740.09 1008.37 2738.89 1006.3C2737.76 1004.23 2737.19 1001.9 2737.19 999.3V994.1C2737.19 990.967 2737.96 988.333 2739.49 986.2C2741.09 984.067 2743.06 982.567 2745.39 981.7L2757.79 977.1V972.4C2757.79 970.8 2757.29 969.5 2756.29 968.5C2755.36 967.433 2754.13 966.9 2752.59 966.9H2741.29V961H2753.29C2756.96 961 2759.86 962.1 2761.99 964.3C2764.19 966.433 2765.29 969.367 2765.29 973.1V1013H2750.39ZM2757.79 1006.9V983.4L2748.99 986.7C2747.26 987.367 2746.03 988.267 2745.29 989.4C2744.63 990.533 2744.29 992.333 2744.29 994.8V1000.4C2744.29 1002.2 2744.96 1003.73 2746.29 1005C2747.63 1006.27 2749.23 1006.9 2751.09 1006.9H2757.79ZM2790.82 1013C2787.15 1013 2784.25 1011.9 2782.12 1009.7C2779.98 1007.5 2778.92 1004.53 2778.92 1000.8V967H2772.92V961H2778.92V945.9L2786.92 942.9V961H2794.92V967H2786.92V1001.5C2786.92 1003.1 2787.35 1004.43 2788.22 1005.5C2789.15 1006.5 2790.38 1007 2791.92 1007H2794.92V1013H2790.82ZM2815.58 1013.7C2810.91 1013.7 2807.28 1012.53 2804.68 1010.2C2802.15 1007.8 2800.88 1004.5 2800.88 1000.3V973.7C2800.88 969.5 2802.15 966.233 2804.68 963.9C2807.28 961.5 2810.91 960.3 2815.58 960.3C2820.25 960.3 2823.85 961.5 2826.38 963.9C2828.98 966.233 2830.28 969.5 2830.28 973.7V1000.3C2830.28 1004.5 2828.98 1007.8 2826.38 1010.2C2823.85 1012.53 2820.25 1013.7 2815.58 1013.7ZM2815.58 1007.5C2817.71 1007.5 2819.38 1006.9 2820.58 1005.7C2821.85 1004.43 2822.48 1002.63 2822.48 1000.3V973.7C2822.48 971.367 2821.85 969.6 2820.58 968.4C2819.38 967.133 2817.71 966.5 2815.58 966.5C2813.45 966.5 2811.75 967.133 2810.48 968.4C2809.28 969.6 2808.68 971.367 2808.68 973.7V1000.3C2808.68 1002.63 2809.28 1004.43 2810.48 1005.7C2811.75 1006.9 2813.45 1007.5 2815.58 1007.5ZM2837.28 1007H2845.78C2848.65 1007 2850.71 1006.23 2851.98 1004.7C2853.31 1003.1 2853.98 1001.03 2853.98 998.5C2853.98 996.5 2853.38 994.8 2852.18 993.4C2850.98 992 2849.18 990.367 2846.78 988.5C2844.71 986.833 2843.05 985.4 2841.78 984.2C2840.58 982.933 2839.51 981.4 2838.58 979.6C2837.71 977.733 2837.28 975.6 2837.28 973.2C2837.28 969.667 2838.45 966.767 2840.78 964.5C2843.18 962.167 2846.38 961 2850.38 961H2859.08V967H2851.88C2847.15 967 2844.78 969.233 2844.78 973.7C2844.78 975.433 2845.31 976.933 2846.38 978.2C2847.45 979.467 2849.11 980.967 2851.38 982.7C2853.45 984.3 2855.15 985.767 2856.48 987.1C2857.81 988.367 2858.95 990 2859.88 992C2860.81 993.933 2861.28 996.233 2861.28 998.9C2861.28 1003.63 2860.01 1007.17 2857.48 1009.5C2855.01 1011.83 2851.51 1013 2846.98 1013H2837.28V1007ZM2895.7 1013C2892.03 1013 2889.1 1011.9 2886.9 1009.7C2884.77 1007.5 2883.7 1004.53 2883.7 1000.8V974.2C2883.7 969.867 2884.9 966.467 2887.3 964C2889.7 961.533 2893.27 960.3 2898 960.3C2902.73 960.3 2906.27 961.533 2908.6 964C2911 966.467 2912.2 969.867 2912.2 974.2V978.8C2912.2 981.6 2911.4 983.733 2909.8 985.2C2908.2 986.6 2906.1 987.667 2903.5 988.4L2891.7 991.7V1001.5C2891.7 1003.1 2892.17 1004.43 2893.1 1005.5C2894.1 1006.5 2895.37 1007 2896.9 1007H2907.7V1013H2895.7ZM2897.8 983.7C2900 983.1 2901.47 982.667 2902.2 982.4C2903 982.067 2903.53 981.6 2903.8 981C2904.07 980.4 2904.2 979.4 2904.2 978V972.5C2904.2 970.367 2903.63 968.8 2902.5 967.8C2901.43 966.8 2899.93 966.3 2898 966.3C2896.13 966.3 2894.6 966.833 2893.4 967.9C2892.27 968.967 2891.7 970.5 2891.7 972.5V985.4L2897.8 983.7ZM2935.2 961H2941.4L2942.3 963.9L2946.4 962.7C2949.2 961.833 2951.4 961.233 2953 960.9C2954.67 960.5 2956.24 960.3 2957.7 960.3C2960.57 960.3 2962.57 961.567 2963.7 964.1C2965.57 963.433 2968.2 962.633 2971.6 961.7C2975 960.767 2977.5 960.3 2979.1 960.3C2981.5 960.3 2983.27 961.133 2984.4 962.8C2985.6 964.467 2986.2 966.633 2986.2 969.3V1013H2978.2V971.9C2978.2 969.967 2978.07 968.633 2977.8 967.9C2977.54 967.1 2976.87 966.7 2975.8 966.7C2975.27 966.7 2971.6 967.767 2964.8 969.9V1013H2956.8V971.9C2956.8 969.967 2956.67 968.633 2956.4 967.9C2956.14 967.1 2955.47 966.7 2954.4 966.7C2953.87 966.7 2950.14 967.767 2943.2 969.9V1013H2935.2V961ZM3007.81 1013C3005.41 1013 3003.18 1012.4 3001.11 1011.2C2999.11 1010 2997.51 1008.37 2996.31 1006.3C2995.18 1004.23 2994.61 1001.9 2994.61 999.3V994.1C2994.61 990.967 2995.38 988.333 2996.91 986.2C2998.51 984.067 3000.48 982.567 3002.81 981.7L3015.21 977.1V972.4C3015.21 970.8 3014.71 969.5 3013.71 968.5C3012.78 967.433 3011.55 966.9 3010.01 966.9H2998.71V961H3010.71C3014.38 961 3017.28 962.1 3019.41 964.3C3021.61 966.433 3022.71 969.367 3022.71 973.1V1013H3007.81ZM3015.21 1006.9V983.4L3006.41 986.7C3004.68 987.367 3003.45 988.267 3002.71 989.4C3002.05 990.533 3001.71 992.333 3001.71 994.8V1000.4C3001.71 1002.2 3002.38 1003.73 3003.71 1005C3005.05 1006.27 3006.65 1006.9 3008.51 1006.9H3015.21ZM3033.74 961H3039.94L3040.84 963.9L3044.94 962.7C3047.74 961.833 3049.94 961.233 3051.54 960.9C3053.2 960.5 3054.77 960.3 3056.24 960.3C3058.64 960.3 3060.4 961.133 3061.54 962.8C3062.67 964.467 3063.24 966.633 3063.24 969.3V1013H3055.24V971.9C3055.24 969.967 3055.1 968.633 3054.84 967.9C3054.57 967.1 3053.9 966.7 3052.84 966.7C3052.3 966.7 3048.6 967.767 3041.74 969.9V1013H3033.74V961ZM3084.76 1013C3081.1 1013 3078.16 1011.9 3075.96 1009.7C3073.83 1007.5 3072.76 1004.53 3072.76 1000.8V974.2C3072.76 969.867 3073.96 966.467 3076.36 964C3078.76 961.533 3082.33 960.3 3087.06 960.3C3091.8 960.3 3095.33 961.533 3097.66 964C3100.06 966.467 3101.26 969.867 3101.26 974.2V978.8C3101.26 981.6 3100.46 983.733 3098.86 985.2C3097.26 986.6 3095.16 987.667 3092.56 988.4L3080.76 991.7V1001.5C3080.76 1003.1 3081.23 1004.43 3082.16 1005.5C3083.16 1006.5 3084.43 1007 3085.96 1007H3096.76V1013H3084.76ZM3086.86 983.7C3089.06 983.1 3090.53 982.667 3091.26 982.4C3092.06 982.067 3092.6 981.6 3092.86 981C3093.13 980.4 3093.26 979.4 3093.26 978V972.5C3093.26 970.367 3092.7 968.8 3091.56 967.8C3090.5 966.8 3089 966.3 3087.06 966.3C3085.2 966.3 3083.66 966.833 3082.46 967.9C3081.33 968.967 3080.76 970.5 3080.76 972.5V985.4L3086.86 983.7ZM3109.23 952.5V944.5H3117.23V952.5H3109.23ZM3109.23 1013V961H3117.23V1013H3109.23ZM3129.25 961H3135.45L3136.35 964.7L3138.85 963.5C3140.98 962.433 3142.75 961.633 3144.15 961.1C3145.61 960.567 3147.08 960.3 3148.55 960.3V966.2C3147.68 966.2 3146.51 966.467 3145.05 967C3143.58 967.467 3140.98 968.6 3137.25 970.4V1013H3129.25V961ZM3166.6 1013C3164.2 1013 3161.97 1012.4 3159.9 1011.2C3157.9 1010 3156.3 1008.37 3155.1 1006.3C3153.97 1004.23 3153.4 1001.9 3153.4 999.3V994.1C3153.4 990.967 3154.17 988.333 3155.7 986.2C3157.3 984.067 3159.27 982.567 3161.6 981.7L3174 977.1V972.4C3174 970.8 3173.5 969.5 3172.5 968.5C3171.57 967.433 3170.34 966.9 3168.8 966.9H3157.5V961H3169.5C3173.17 961 3176.07 962.1 3178.2 964.3C3180.4 966.433 3181.5 969.367 3181.5 973.1V1013H3166.6ZM3174 1006.9V983.4L3165.2 986.7C3163.47 987.367 3162.24 988.267 3161.5 989.4C3160.84 990.533 3160.5 992.333 3160.5 994.8V1000.4C3160.5 1002.2 3161.17 1003.73 3162.5 1005C3163.84 1006.27 3165.44 1006.9 3167.3 1006.9H3174ZM3189.53 1007H3198.03C3200.89 1007 3202.96 1006.23 3204.23 1004.7C3205.56 1003.1 3206.23 1001.03 3206.23 998.5C3206.23 996.5 3205.63 994.8 3204.43 993.4C3203.23 992 3201.43 990.367 3199.03 988.5C3196.96 986.833 3195.29 985.4 3194.03 984.2C3192.83 982.933 3191.76 981.4 3190.83 979.6C3189.96 977.733 3189.53 975.6 3189.53 973.2C3189.53 969.667 3190.69 966.767 3193.03 964.5C3195.43 962.167 3198.63 961 3202.63 961H3211.33V967H3204.13C3199.39 967 3197.03 969.233 3197.03 973.7C3197.03 975.433 3197.56 976.933 3198.63 978.2C3199.69 979.467 3201.36 980.967 3203.63 982.7C3205.69 984.3 3207.39 985.767 3208.73 987.1C3210.06 988.367 3211.19 990 3212.13 992C3213.06 993.933 3213.53 996.233 3213.53 998.9C3213.53 1003.63 3212.26 1007.17 3209.73 1009.5C3207.26 1011.83 3203.76 1013 3199.23 1013H3189.53V1007ZM3250.75 1013C3246.55 1013 3243.15 1011.77 3240.55 1009.3C3237.95 1006.83 3236.65 1003.53 3236.65 999.4V974.5C3236.65 971.633 3237.41 969.2 3238.95 967.2C3240.55 965.2 3242.51 963.833 3244.85 963.1L3258.25 958.4V943H3266.25V1013H3250.75ZM3258.25 1007V965L3249.35 968C3247.61 968.533 3246.38 969.4 3245.65 970.6C3244.98 971.733 3244.65 973.567 3244.65 976.1V999.4C3244.65 1001.8 3245.35 1003.67 3246.75 1005C3248.15 1006.33 3250.05 1007 3252.45 1007H3258.25ZM3288.67 1013C3285 1013 3282.07 1011.9 3279.87 1009.7C3277.74 1007.5 3276.67 1004.53 3276.67 1000.8V974.2C3276.67 969.867 3277.87 966.467 3280.27 964C3282.67 961.533 3286.24 960.3 3290.97 960.3C3295.7 960.3 3299.24 961.533 3301.57 964C3303.97 966.467 3305.17 969.867 3305.17 974.2V978.8C3305.17 981.6 3304.37 983.733 3302.77 985.2C3301.17 986.6 3299.07 987.667 3296.47 988.4L3284.67 991.7V1001.5C3284.67 1003.1 3285.14 1004.43 3286.07 1005.5C3287.07 1006.5 3288.34 1007 3289.87 1007H3300.67V1013H3288.67ZM3290.77 983.7C3292.97 983.1 3294.44 982.667 3295.17 982.4C3295.97 982.067 3296.5 981.6 3296.77 981C3297.04 980.4 3297.17 979.4 3297.17 978V972.5C3297.17 970.367 3296.6 968.8 3295.47 967.8C3294.4 966.8 3292.9 966.3 3290.97 966.3C3289.1 966.3 3287.57 966.833 3286.37 967.9C3285.24 968.967 3284.67 970.5 3284.67 972.5V985.4L3290.77 983.7ZM1938 1123C1934.33 1123 1931.4 1121.9 1929.2 1119.7C1927.07 1117.5 1926 1114.53 1926 1110.8V1084.2C1926 1080 1927.1 1076.77 1929.3 1074.5C1931.5 1072.17 1934.7 1071 1938.9 1071H1950V1077H1939.1C1937.57 1077 1936.33 1077.53 1935.4 1078.6C1934.47 1079.6 1934 1080.9 1934 1082.5V1111.5C1934 1113.1 1934.47 1114.43 1935.4 1115.5C1936.4 1116.5 1937.67 1117 1939.2 1117H1950V1123H1938ZM1969.68 1123.7C1965.01 1123.7 1961.38 1122.53 1958.78 1120.2C1956.25 1117.8 1954.98 1114.5 1954.98 1110.3V1083.7C1954.98 1079.5 1956.25 1076.23 1958.78 1073.9C1961.38 1071.5 1965.01 1070.3 1969.68 1070.3C1974.35 1070.3 1977.95 1071.5 1980.48 1073.9C1983.08 1076.23 1984.38 1079.5 1984.38 1083.7V1110.3C1984.38 1114.5 1983.08 1117.8 1980.48 1120.2C1977.95 1122.53 1974.35 1123.7 1969.68 1123.7ZM1969.68 1117.5C1971.81 1117.5 1973.48 1116.9 1974.68 1115.7C1975.95 1114.43 1976.58 1112.63 1976.58 1110.3V1083.7C1976.58 1081.37 1975.95 1079.6 1974.68 1078.4C1973.48 1077.13 1971.81 1076.5 1969.68 1076.5C1967.55 1076.5 1965.85 1077.13 1964.58 1078.4C1963.38 1079.6 1962.78 1081.37 1962.78 1083.7V1110.3C1962.78 1112.63 1963.38 1114.43 1964.58 1115.7C1965.85 1116.9 1967.55 1117.5 1969.68 1117.5ZM1994.38 1071H2000.58L2001.48 1073.9L2005.58 1072.7C2008.38 1071.83 2010.58 1071.23 2012.18 1070.9C2013.85 1070.5 2015.42 1070.3 2016.88 1070.3C2019.75 1070.3 2021.75 1071.57 2022.88 1074.1C2024.75 1073.43 2027.38 1072.63 2030.78 1071.7C2034.18 1070.77 2036.68 1070.3 2038.28 1070.3C2040.68 1070.3 2042.45 1071.13 2043.58 1072.8C2044.78 1074.47 2045.38 1076.63 2045.38 1079.3V1123H2037.38V1081.9C2037.38 1079.97 2037.25 1078.63 2036.98 1077.9C2036.72 1077.1 2036.05 1076.7 2034.98 1076.7C2034.45 1076.7 2030.78 1077.77 2023.98 1079.9V1123H2015.98V1081.9C2015.98 1079.97 2015.85 1078.63 2015.58 1077.9C2015.32 1077.1 2014.65 1076.7 2013.58 1076.7C2013.05 1076.7 2009.32 1077.77 2002.38 1079.9V1123H1994.38V1071ZM2062.49 1123.7C2060.09 1123.7 2058.29 1122.87 2057.09 1121.2C2055.96 1119.53 2055.39 1117.37 2055.39 1114.7V1071H2063.39V1112.1C2063.39 1113.97 2063.53 1115.3 2063.79 1116.1C2064.06 1116.9 2064.69 1117.3 2065.69 1117.3C2066.16 1117.3 2069.93 1116.3 2076.99 1114.3V1071H2084.99V1123H2079.29L2077.79 1119.6C2076.73 1120 2075.93 1120.27 2075.39 1120.4C2072.26 1121.53 2069.73 1122.37 2067.79 1122.9C2065.86 1123.43 2064.09 1123.7 2062.49 1123.7ZM2097.02 1071H2103.22L2104.12 1073.9L2108.22 1072.7C2111.02 1071.83 2113.22 1071.23 2114.82 1070.9C2116.49 1070.5 2118.05 1070.3 2119.52 1070.3C2121.92 1070.3 2123.69 1071.13 2124.82 1072.8C2125.95 1074.47 2126.52 1076.63 2126.52 1079.3V1123H2118.52V1081.9C2118.52 1079.97 2118.39 1078.63 2118.12 1077.9C2117.85 1077.1 2117.19 1076.7 2116.12 1076.7C2115.59 1076.7 2111.89 1077.77 2105.02 1079.9V1123H2097.02V1071ZM2137.64 1062.5V1054.5H2145.64V1062.5H2137.64ZM2137.64 1123V1071H2145.64V1123H2137.64ZM2168.66 1123C2165 1123 2162.06 1121.9 2159.86 1119.7C2157.73 1117.5 2156.66 1114.53 2156.66 1110.8V1084.2C2156.66 1080 2157.76 1076.77 2159.96 1074.5C2162.16 1072.17 2165.36 1071 2169.56 1071H2180.66V1077H2169.76C2168.23 1077 2167 1077.53 2166.06 1078.6C2165.13 1079.6 2164.66 1080.9 2164.66 1082.5V1111.5C2164.66 1113.1 2165.13 1114.43 2166.06 1115.5C2167.06 1116.5 2168.33 1117 2169.86 1117H2180.66V1123H2168.66ZM2198.24 1123C2195.84 1123 2193.61 1122.4 2191.54 1121.2C2189.54 1120 2187.94 1118.37 2186.74 1116.3C2185.61 1114.23 2185.04 1111.9 2185.04 1109.3V1104.1C2185.04 1100.97 2185.81 1098.33 2187.34 1096.2C2188.94 1094.07 2190.91 1092.57 2193.24 1091.7L2205.64 1087.1V1082.4C2205.64 1080.8 2205.14 1079.5 2204.14 1078.5C2203.21 1077.43 2201.98 1076.9 2200.44 1076.9H2189.14V1071H2201.14C2204.81 1071 2207.71 1072.1 2209.84 1074.3C2212.04 1076.43 2213.14 1079.37 2213.14 1083.1V1123H2198.24ZM2205.64 1116.9V1093.4L2196.84 1096.7C2195.11 1097.37 2193.88 1098.27 2193.14 1099.4C2192.48 1100.53 2192.14 1102.33 2192.14 1104.8V1110.4C2192.14 1112.2 2192.81 1113.73 2194.14 1115C2195.48 1116.27 2197.08 1116.9 2198.94 1116.9H2205.64ZM2224.17 1071H2230.37L2231.27 1074.7L2233.77 1073.5C2235.9 1072.43 2237.67 1071.63 2239.07 1071.1C2240.53 1070.57 2242 1070.3 2243.47 1070.3V1076.2C2242.6 1076.2 2241.43 1076.47 2239.97 1077C2238.5 1077.47 2235.9 1078.6 2232.17 1080.4V1123H2224.17V1071ZM2249.03 1123V1112.7H2257.03V1123H2249.03Z" fill="white"/>
<path d="M495.6 501L524.04 375H547.98L575.34 501H560.58L551.76 463.92H519L510.9 501H495.6ZM521.7 451.68H549.06L536.1 386.88H534.84L521.7 451.68ZM619.222 501V375H635.062V501H619.222ZM659.07 407.4H670.23L671.85 412.62L679.23 410.46C684.27 408.9 688.23 407.82 691.11 407.22C694.11 406.5 696.93 406.14 699.57 406.14C703.89 406.14 707.07 407.64 709.11 410.64C711.15 413.64 712.17 417.54 712.17 422.34V501H697.77V427.02C697.77 423.54 697.53 421.14 697.05 419.82C696.57 418.38 695.37 417.66 693.45 417.66C692.49 417.66 685.83 419.58 673.47 423.42V501H659.07V407.4ZM755.955 501C748.395 501 742.275 498.78 737.595 494.34C732.915 489.9 730.575 483.96 730.575 476.52V431.7C730.575 426.54 731.955 422.16 734.715 418.56C737.595 414.96 741.135 412.5 745.335 411.18L769.455 402.72V375H783.855V501H755.955ZM769.455 490.2V414.6L753.435 420C750.315 420.96 748.095 422.52 746.775 424.68C745.575 426.72 744.975 430.02 744.975 434.58V476.52C744.975 480.84 746.235 484.2 748.755 486.6C751.275 489 754.695 490.2 759.015 490.2H769.455ZM829.075 400.38L823.135 394.98L844.015 377.16L853.195 385.62L829.075 400.38ZM816.475 502.26C812.155 502.26 808.915 500.76 806.755 497.76C804.715 494.76 803.695 490.86 803.695 486.06V407.4H818.095V481.38C818.095 484.74 818.335 487.14 818.815 488.58C819.295 490.02 820.435 490.74 822.235 490.74C823.075 490.74 829.855 488.94 842.575 485.34V407.4H856.975V501H846.715L844.015 494.88C842.095 495.6 840.655 496.08 839.695 496.32C834.055 498.36 829.495 499.86 826.015 500.82C822.535 501.78 819.355 502.26 816.475 502.26ZM873.22 490.2H888.52C893.68 490.2 897.4 488.82 899.68 486.06C902.08 483.18 903.28 479.46 903.28 474.9C903.28 471.3 902.2 468.24 900.04 465.72C897.88 463.2 894.64 460.26 890.32 456.9C886.6 453.9 883.6 451.32 881.32 449.16C879.16 446.88 877.24 444.12 875.56 440.88C874 437.52 873.22 433.68 873.22 429.36C873.22 423 875.32 417.78 879.52 413.7C883.84 409.5 889.6 407.4 896.8 407.4H912.46V418.2H899.5C890.98 418.2 886.72 422.22 886.72 430.26C886.72 433.38 887.68 436.08 889.6 438.36C891.52 440.64 894.52 443.34 898.6 446.46C902.32 449.34 905.38 451.98 907.78 454.38C910.18 456.66 912.22 459.6 913.9 463.2C915.58 466.68 916.42 470.82 916.42 475.62C916.42 484.14 914.14 490.5 909.58 494.7C905.14 498.9 898.84 501 890.68 501H873.22V490.2ZM958.685 501C952.085 501 946.865 499.02 943.025 495.06C939.185 491.1 937.265 485.76 937.265 479.04V418.2H926.465V407.4H937.265V380.22L951.665 374.82V407.4H966.065V418.2H951.665V480.3C951.665 483.18 952.445 485.58 954.005 487.5C955.685 489.3 957.905 490.2 960.665 490.2H966.065V501H958.685ZM980.398 407.4H991.558L993.178 414.06L997.678 411.9C1001.52 409.98 1004.7 408.54 1007.22 407.58C1009.86 406.62 1012.5 406.14 1015.14 406.14V416.76C1013.58 416.76 1011.48 417.24 1008.84 418.2C1006.2 419.04 1001.52 421.08 994.798 424.32V501H980.398V407.4ZM1028.56 392.1V377.7H1042.96V392.1H1028.56ZM1028.56 501V407.4H1042.96V501H1028.56ZM1083.68 501C1079.36 501 1075.34 499.92 1071.62 497.76C1068.02 495.6 1065.14 492.66 1062.98 488.94C1060.94 485.22 1059.92 481.02 1059.92 476.34V466.98C1059.92 461.34 1061.3 456.6 1064.06 452.76C1066.94 448.92 1070.48 446.22 1074.68 444.66L1097 436.38V427.92C1097 425.04 1096.1 422.7 1094.3 420.9C1092.62 418.98 1090.4 418.02 1087.64 418.02H1067.3V407.4H1088.9C1095.5 407.4 1100.72 409.38 1104.56 413.34C1108.52 417.18 1110.5 422.46 1110.5 429.18V501H1083.68ZM1097 490.02V447.72L1081.16 453.66C1078.04 454.86 1075.82 456.48 1074.5 458.52C1073.3 460.56 1072.7 463.8 1072.7 468.24V478.32C1072.7 481.56 1073.9 484.32 1076.3 486.6C1078.7 488.88 1081.58 490.02 1084.94 490.02H1097ZM1159.75 501V375H1175.59V501H1159.75ZM1199.6 407.4H1210.76L1212.38 412.62L1219.76 410.46C1224.8 408.9 1228.76 407.82 1231.64 407.22C1234.64 406.5 1237.46 406.14 1240.1 406.14C1244.42 406.14 1247.6 407.64 1249.64 410.64C1251.68 413.64 1252.7 417.54 1252.7 422.34V501H1238.3V427.02C1238.3 423.54 1238.06 421.14 1237.58 419.82C1237.1 418.38 1235.9 417.66 1233.98 417.66C1233.02 417.66 1226.36 419.58 1214 423.42V501H1199.6V407.4ZM1277.22 419.28H1266.42V407.4H1277.22V396.96C1277.22 390.24 1279.14 384.9 1282.98 380.94C1286.82 376.98 1292.04 375 1298.64 375H1306.56V385.8H1301.16C1298.4 385.8 1296.12 386.76 1294.32 388.68C1292.52 390.6 1291.62 392.94 1291.62 395.7V407.4H1306.2V419.28H1291.62V501H1277.22V419.28ZM1340.76 502.26C1332.36 502.26 1325.82 500.16 1321.14 495.96C1316.58 491.64 1314.3 485.7 1314.3 478.14V430.26C1314.3 422.7 1316.58 416.82 1321.14 412.62C1325.82 408.3 1332.36 406.14 1340.76 406.14C1349.16 406.14 1355.64 408.3 1360.2 412.62C1364.88 416.82 1367.22 422.7 1367.22 430.26V478.14C1367.22 485.7 1364.88 491.64 1360.2 495.96C1355.64 500.16 1349.16 502.26 1340.76 502.26ZM1340.76 491.1C1344.6 491.1 1347.6 490.02 1349.76 487.86C1352.04 485.58 1353.18 482.34 1353.18 478.14V430.26C1353.18 426.06 1352.04 422.88 1349.76 420.72C1347.6 418.44 1344.6 417.3 1340.76 417.3C1336.92 417.3 1333.86 418.44 1331.58 420.72C1329.42 422.88 1328.34 426.06 1328.34 430.26V478.14C1328.34 482.34 1329.42 485.58 1331.58 487.86C1333.86 490.02 1336.92 491.1 1340.76 491.1ZM1385.22 407.4H1396.38L1398 414.06L1402.5 411.9C1406.34 409.98 1409.52 408.54 1412.04 407.58C1414.68 406.62 1417.32 406.14 1419.96 406.14V416.76C1418.4 416.76 1416.3 417.24 1413.66 418.2C1411.02 419.04 1406.34 421.08 1399.62 424.32V501H1385.22V407.4ZM1433.39 407.4H1444.55L1446.17 412.62L1453.55 410.46C1458.59 408.9 1462.55 407.82 1465.43 407.22C1468.43 406.5 1471.25 406.14 1473.89 406.14C1479.05 406.14 1482.65 408.42 1484.69 412.98C1488.05 411.78 1492.79 410.34 1498.91 408.66C1505.03 406.98 1509.53 406.14 1512.41 406.14C1516.73 406.14 1519.91 407.64 1521.95 410.64C1524.11 413.64 1525.19 417.54 1525.19 422.34V501H1510.79V427.02C1510.79 423.54 1510.55 421.14 1510.07 419.82C1509.59 418.38 1508.39 417.66 1506.47 417.66C1505.51 417.66 1498.91 419.58 1486.67 423.42V501H1472.27V427.02C1472.27 423.54 1472.03 421.14 1471.55 419.82C1471.07 418.38 1469.87 417.66 1467.95 417.66C1466.99 417.66 1460.27 419.58 1447.79 423.42V501H1433.39V407.4ZM1564.09 501C1559.77 501 1555.75 499.92 1552.03 497.76C1548.43 495.6 1545.55 492.66 1543.39 488.94C1541.35 485.22 1540.33 481.02 1540.33 476.34V466.98C1540.33 461.34 1541.71 456.6 1544.47 452.76C1547.35 448.92 1550.89 446.22 1555.09 444.66L1577.41 436.38V427.92C1577.41 425.04 1576.51 422.7 1574.71 420.9C1573.03 418.98 1570.81 418.02 1568.05 418.02H1547.71V407.4H1569.31C1575.91 407.4 1581.13 409.38 1584.97 413.34C1588.93 417.18 1590.91 422.46 1590.91 429.18V501H1564.09ZM1577.41 490.02V447.72L1561.57 453.66C1558.45 454.86 1556.23 456.48 1554.91 458.52C1553.71 460.56 1553.11 463.8 1553.11 468.24V478.32C1553.11 481.56 1554.31 484.32 1556.71 486.6C1559.11 488.88 1561.99 490.02 1565.35 490.02H1577.41ZM1636.85 501C1630.25 501 1625.03 499.02 1621.19 495.06C1617.35 491.1 1615.43 485.76 1615.43 479.04V418.2H1604.63V407.4H1615.43V380.22L1629.83 374.82V407.4H1644.23V418.2H1629.83V480.3C1629.83 483.18 1630.61 485.58 1632.17 487.5C1633.85 489.3 1636.07 490.2 1638.83 490.2H1644.23V501H1636.85ZM1658.56 392.1V377.7H1672.96V392.1H1658.56ZM1658.56 501V407.4H1672.96V501H1658.56ZM1707.92 501L1686.5 407.4H1701.44L1715.3 482.82L1728.98 407.4H1743.92L1722.5 501H1707.92ZM1776.43 501C1772.11 501 1768.09 499.92 1764.37 497.76C1760.77 495.6 1757.89 492.66 1755.73 488.94C1753.69 485.22 1752.67 481.02 1752.67 476.34V466.98C1752.67 461.34 1754.05 456.6 1756.81 452.76C1759.69 448.92 1763.23 446.22 1767.43 444.66L1789.75 436.38V427.92C1789.75 425.04 1788.85 422.7 1787.05 420.9C1785.37 418.98 1783.15 418.02 1780.39 418.02H1760.05V407.4H1781.65C1788.25 407.4 1793.47 409.38 1797.31 413.34C1801.27 417.18 1803.25 422.46 1803.25 429.18V501H1776.43ZM1789.75 490.02V447.72L1773.91 453.66C1770.79 454.86 1768.57 456.48 1767.25 458.52C1766.05 460.56 1765.45 463.8 1765.45 468.24V478.32C1765.45 481.56 1766.65 484.32 1769.05 486.6C1771.45 488.88 1774.33 490.02 1777.69 490.02H1789.75Z" fill="white"/>
<rect x="1256.5" y="640.5" width="553" height="370" stroke="white" stroke-width="5"/>
<mask id="mask0_566_263" style="mask-type:alpha" maskUnits="userSpaceOnUse" x="1261" y="645" width="543" height="361">
<rect x="1261" y="645" width="543" height="361" fill="#D9D9D9"/>
</mask>
<g mask="url(#mask0_566_263)">
<rect x="1410" y="683" width="206" height="319" fill="white"/>
<rect x="1625" y="683" width="174" height="319" fill="white"/>
<rect x="1430" y="711" width="130" height="22" fill="#4B4949"/>
<rect x="1430" y="748" width="69" height="8" fill="#4B4949"/>
<rect x="1430" y="760" width="47" height="8" fill="#4B4949"/>
<rect x="1520" y="844" width="69" height="8" fill="#4B4949"/>
<rect x="1520" y="856" width="47" height="8" fill="#4B4949"/>
<rect x="1430" y="784" width="42" height="8" fill="#4B4949"/>
<rect x="1430" y="796" width="34" height="8" fill="#4B4949"/>
<rect x="1430" y="808" width="28" height="8" fill="#4B4949"/>
<rect x="1430" y="820" width="59" height="8" fill="#4B4949"/>
<rect x="1430" y="820" width="59" height="8" fill="#4B4949"/>
<rect x="1430" y="832" width="49" height="8" fill="#4B4949"/>
<rect x="1484" y="832" width="15" height="8" fill="#4B4949"/>
<rect x="1493" y="820" width="11" height="8" fill="#4B4949"/>
<rect x="1430" y="844" width="34" height="8" fill="#4B4949"/>
<rect x="1469" y="844" width="10" height="8" fill="#4B4949"/>
<rect x="1483" y="844" width="18" height="8" fill="#4B4949"/>
<rect x="1483" y="844" width="18" height="8" fill="#4B4949"/>
<rect x="1520" y="894" width="49" height="8" fill="#4B4949"/>
<rect x="1574" y="894" width="15" height="8" fill="#4B4949"/>
<rect x="1520" y="906" width="34" height="8" fill="#4B4949"/>
<rect x="1559" y="906" width="10" height="8" fill="#4B4949"/>
<rect x="1573" y="906" width="18" height="8" fill="#4B4949"/>
<rect x="1430" y="856" width="45" height="8" fill="#4B4949"/>
<rect x="1430" y="954" width="34" height="8" fill="#4B4949"/>
<rect x="1419" y="985" width="34" height="8" fill="#4B4949"/>
<rect x="1572" y="985" width="34" height="8" fill="#4B4949"/>
<rect x="1635" y="985" width="34" height="8" fill="#4B4949"/>
<rect x="1469" y="954" width="10" height="8" fill="#4B4949"/>
<rect x="1483" y="954" width="18" height="8" fill="#4B4949"/>
<rect x="1469" y="796" width="34" height="8" fill="#4B4949"/>
<rect x="1464" y="808" width="32" height="8" fill="#4B4949"/>
<rect x="1642" y="748" width="34" height="8" fill="#4B4949"/>
<rect x="1642" y="760" width="28" height="8" fill="#4B4949"/>
<rect x="1642" y="772" width="59" height="8" fill="#4B4949"/>
<rect x="1642" y="784" width="49" height="8" fill="#4B4949"/>
<rect x="1696" y="784" width="15" height="8" fill="#4B4949"/>
<rect x="1705" y="772" width="11" height="8" fill="#4B4949"/>
<rect x="1681" y="748" width="34" height="8" fill="#4B4949"/>
<rect x="1676" y="760" width="32" height="8" fill="#4B4949"/>
<rect x="1520" y="942" width="34" height="8" fill="#4B4949"/>
<rect x="1520" y="954" width="28" height="8" fill="#4B4949"/>
<rect x="1559" y="942" width="34" height="8" fill="#4B4949"/>
<rect x="1554" y="954" width="32" height="8" fill="#4B4949"/>
<rect x="1520" y="868" width="34" height="8" fill="#4B4949"/>
<rect x="1520" y="880" width="28" height="8" fill="#4B4949"/>
<rect x="1559" y="868" width="34" height="8" fill="#4B4949"/>
<rect x="1554" y="880" width="32" height="8" fill="#4B4949"/>
<rect x="1477" y="784" width="22" height="8" fill="#4B4949"/>
<rect x="1430" y="918" width="42" height="8" fill="#4B4949"/>
<rect x="1430" y="930" width="34" height="8" fill="#4B4949"/>
<rect x="1430" y="942" width="28" height="8" fill="#4B4949"/>
<rect x="1469" y="930" width="34" height="8" fill="#4B4949"/>
<rect x="1464" y="942" width="32" height="8" fill="#4B4949"/>
<rect x="1477" y="918" width="22" height="8" fill="#4B4949"/>
<rect x="1430" y="772" width="26" height="8" fill="#4B4949"/>
<rect x="1460" y="772" width="43" height="8" fill="#4B4949"/>
<rect x="1643" y="892" width="69" height="8" fill="#4B4949"/>
<rect x="1643" y="904" width="47" height="8" fill="#4B4949"/>
<rect x="1643" y="928" width="42" height="8" fill="#4B4949"/>
<rect x="1643" y="940" width="34" height="8" fill="#4B4949"/>
<rect x="1690" y="928" width="22" height="8" fill="#4B4949"/>
<rect x="1643" y="916" width="26" height="8" fill="#4B4949"/>
<rect x="1673" y="916" width="43" height="8" fill="#4B4949"/>
<rect x="1520" y="830" width="42" height="8" fill="#4B4949"/>
<rect x="1567" y="830" width="22" height="8" fill="#4B4949"/>
<rect x="1520" y="818" width="26" height="8" fill="#4B4949"/>
<rect x="1550" y="818" width="43" height="8" fill="#4B4949"/>
<rect x="1520" y="930" width="42" height="8" fill="#4B4949"/>
<rect x="1567" y="930" width="22" height="8" fill="#4B4949"/>
<rect x="1520" y="918" width="26" height="8" fill="#4B4949"/>
<rect x="1550" y="918" width="43" height="8" fill="#4B4949"/>
<rect x="1642" y="796" width="34" height="8" fill="#4B4949"/>
<rect x="1681" y="796" width="10" height="8" fill="#4B4949"/>
<rect x="1695" y="796" width="18" height="8" fill="#4B4949"/>
<rect x="1642" y="820" width="42" height="8" fill="#4B4949"/>
<rect x="1689" y="820" width="22" height="8" fill="#4B4949"/>
<rect x="1642" y="808" width="26" height="8" fill="#4B4949"/>
<rect x="1672" y="808" width="43" height="8" fill="#4B4949"/>
<rect x="1430" y="868" width="69" height="8" fill="#4B4949"/>
<rect x="1430" y="880" width="47" height="8" fill="#4B4949"/>
<rect x="1430" y="906" width="26" height="8" fill="#4B4949"/>
<rect x="1460" y="906" width="43" height="8" fill="#4B4949"/>
<rect x="1643" y="856" width="42" height="8" fill="#4B4949"/>
<rect x="1643" y="868" width="34" height="8" fill="#4B4949"/>
<rect x="1682" y="868" width="34" height="8" fill="#4B4949"/>
<rect x="1690" y="856" width="22" height="8" fill="#4B4949"/>
<rect x="1643" y="844" width="26" height="8" fill="#4B4949"/>
<rect x="1673" y="844" width="43" height="8" fill="#4B4949"/>
<rect x="1512" y="749" width="83" height="55" stroke="black" stroke-width="2"/>
<line x1="1511.55" y1="748.163" x2="1595.55" y2="803.163" stroke="black" stroke-width="2"/>
<line x1="1511.45" y1="804.168" x2="1595.45" y2="748.168" stroke="black" stroke-width="2"/>
<rect x="1743" y="749" width="83" height="224" stroke="black" stroke-width="2"/>
<line x1="1743.94" y1="749.647" x2="1826.94" y2="969.682" stroke="black" stroke-width="2"/>
<line x1="1743.06" y1="972.648" x2="1826.06" y2="751.613" stroke="black" stroke-width="2"/>
</g>
<path d="M1653.15 1034.06L1640 965L1697.93 1000.94L1674.13 1003.75L1702 1051.25L1693.23 1060L1663.48 1011.88L1653.15 1034.06Z" fill="#CCCCCC" stroke="black" stroke-width="5"/>
</svg>
