<svg width="3745" height="1780" viewBox="0 0 3745 1780" fill="none" xmlns="http://www.w3.org/2000/svg">
<path d="M930 658H946V699.4L954.8 696.8C960.267 695.2 964.267 694.133 966.8 693.6C969.467 692.933 972.2 692.6 975 692.6C979.8 692.6 983.333 694.267 985.6 697.6C987.867 700.933 989 705.267 989 710.6V798H973V715.8C973 711.933 972.733 709.267 972.2 707.8C971.667 706.2 970.333 705.4 968.2 705.4C967.133 705.4 959.733 707.533 946 711.8V798H930V658ZM1013.2 677V661H1029.2V677H1013.2ZM1013.2 798V694H1029.2V798H1013.2ZM1053.24 694H1085.64C1092.98 694 1099.18 696.4 1104.24 701.2C1109.44 706 1112.04 712 1112.04 719.2V773C1112.04 780.2 1109.51 786.2 1104.44 791C1099.38 795.667 1093.18 798 1085.84 798H1069.24V830H1053.24V694ZM1082.44 786.2C1086.18 786.2 1089.38 784.933 1092.04 782.4C1094.71 779.867 1096.04 776.733 1096.04 773V719.2C1096.04 715.467 1094.71 712.333 1092.04 709.8C1089.38 707.267 1086.18 706 1082.44 706H1069.24V786.2H1082.44ZM1151.78 798C1144.44 798 1138.58 795.8 1134.18 791.4C1129.91 787 1127.78 781.067 1127.78 773.6V720.4C1127.78 711.733 1130.18 704.933 1134.98 700C1139.78 695.067 1146.91 692.6 1156.38 692.6C1165.84 692.6 1172.91 695.067 1177.58 700C1182.38 704.933 1184.78 711.733 1184.78 720.4V729.6C1184.78 735.2 1183.18 739.467 1179.98 742.4C1176.78 745.2 1172.58 747.333 1167.38 748.8L1143.78 755.4V775C1143.78 778.2 1144.71 780.867 1146.58 783C1148.58 785 1151.11 786 1154.18 786H1175.78V798H1151.78ZM1155.98 739.4C1160.38 738.2 1163.31 737.333 1164.78 736.8C1166.38 736.133 1167.44 735.2 1167.98 734C1168.51 732.8 1168.78 730.8 1168.78 728V717C1168.78 712.733 1167.64 709.6 1165.38 707.6C1163.24 705.6 1160.24 704.6 1156.38 704.6C1152.64 704.6 1149.58 705.667 1147.18 707.8C1144.91 709.933 1143.78 713 1143.78 717V742.8L1155.98 739.4ZM1200.7 694H1213.1L1214.9 701.4L1219.9 699C1224.17 696.867 1227.7 695.267 1230.5 694.2C1233.44 693.133 1236.37 692.6 1239.3 692.6V704.4C1237.57 704.4 1235.24 704.933 1232.3 706C1229.37 706.933 1224.17 709.2 1216.7 712.8V798H1200.7V694ZM1283.22 798C1275.89 798 1270.09 795.8 1265.82 791.4C1261.55 787 1259.42 781.067 1259.42 773.6V706H1247.42V694H1259.42V663.8L1275.42 657.8V694H1291.42V706H1275.42V775C1275.42 778.2 1276.29 780.867 1278.02 783C1279.89 785 1282.35 786 1285.42 786H1291.42V798H1283.22ZM1328.14 798C1320.81 798 1314.94 795.8 1310.54 791.4C1306.28 787 1304.14 781.067 1304.14 773.6V720.4C1304.14 711.733 1306.54 704.933 1311.34 700C1316.14 695.067 1323.28 692.6 1332.74 692.6C1342.21 692.6 1349.28 695.067 1353.94 700C1358.74 704.933 1361.14 711.733 1361.14 720.4V729.6C1361.14 735.2 1359.54 739.467 1356.34 742.4C1353.14 745.2 1348.94 747.333 1343.74 748.8L1320.14 755.4V775C1320.14 778.2 1321.08 780.867 1322.94 783C1324.94 785 1327.48 786 1330.54 786H1352.14V798H1328.14ZM1332.34 739.4C1336.74 738.2 1339.68 737.333 1341.14 736.8C1342.74 736.133 1343.81 735.2 1344.34 734C1344.88 732.8 1345.14 730.8 1345.14 728V717C1345.14 712.733 1344.01 709.6 1341.74 707.6C1339.61 705.6 1336.61 704.6 1332.74 704.6C1329.01 704.6 1325.94 705.667 1323.54 707.8C1321.28 709.933 1320.14 713 1320.14 717V742.8L1332.34 739.4ZM1367.07 798L1395.87 745.8L1369.07 694H1384.47L1403.27 730.8L1422.27 694H1437.67L1410.87 745.8L1439.67 798H1422.87L1403.27 760L1383.87 798H1367.07ZM1481.66 798C1474.32 798 1468.52 795.8 1464.26 791.4C1459.99 787 1457.86 781.067 1457.86 773.6V706H1445.86V694H1457.86V663.8L1473.86 657.8V694H1489.86V706H1473.86V775C1473.86 778.2 1474.72 780.867 1476.46 783C1478.32 785 1480.79 786 1483.86 786H1489.86V798H1481.66ZM1531.18 799.4C1521.85 799.4 1514.58 797.067 1509.38 792.4C1504.31 787.6 1501.78 781 1501.78 772.6V719.4C1501.78 711 1504.31 704.467 1509.38 699.8C1514.58 695 1521.85 692.6 1531.18 692.6C1540.51 692.6 1547.71 695 1552.78 699.8C1557.98 704.467 1560.58 711 1560.58 719.4V772.6C1560.58 781 1557.98 787.6 1552.78 792.4C1547.71 797.067 1540.51 799.4 1531.18 799.4ZM1531.18 787C1535.45 787 1538.78 785.8 1541.18 783.4C1543.71 780.867 1544.98 777.267 1544.98 772.6V719.4C1544.98 714.733 1543.71 711.2 1541.18 708.8C1538.78 706.267 1535.45 705 1531.18 705C1526.91 705 1523.51 706.267 1520.98 708.8C1518.58 711.2 1517.38 714.733 1517.38 719.4V772.6C1517.38 777.267 1518.58 780.867 1520.98 783.4C1523.51 785.8 1526.91 787 1531.18 787ZM1602.86 798L1657.66 658H1674.06L1620.26 798H1602.86ZM1720.63 658H1736.63V699.4L1745.43 696.8C1750.89 695.2 1754.89 694.133 1757.43 693.6C1760.09 692.933 1762.83 692.6 1765.63 692.6C1770.43 692.6 1773.96 694.267 1776.23 697.6C1778.49 700.933 1779.63 705.267 1779.63 710.6V798H1763.63V715.8C1763.63 711.933 1763.36 709.267 1762.83 707.8C1762.29 706.2 1760.96 705.4 1758.83 705.4C1757.76 705.4 1750.36 707.533 1736.63 711.8V798H1720.63V658ZM1803.83 677V661H1819.83V677H1803.83ZM1803.83 798V694H1819.83V798H1803.83ZM1843.87 694H1876.27C1883.6 694 1889.8 696.4 1894.87 701.2C1900.07 706 1902.67 712 1902.67 719.2V773C1902.67 780.2 1900.13 786.2 1895.07 791C1890 795.667 1883.8 798 1876.47 798H1859.87V830H1843.87V694ZM1873.07 786.2C1876.8 786.2 1880 784.933 1882.67 782.4C1885.33 779.867 1886.67 776.733 1886.67 773V719.2C1886.67 715.467 1885.33 712.333 1882.67 709.8C1880 707.267 1876.8 706 1873.07 706H1859.87V786.2H1873.07ZM1942.4 798C1935.07 798 1929.2 795.8 1924.8 791.4C1920.53 787 1918.4 781.067 1918.4 773.6V720.4C1918.4 711.733 1920.8 704.933 1925.6 700C1930.4 695.067 1937.53 692.6 1947 692.6C1956.47 692.6 1963.53 695.067 1968.2 700C1973 704.933 1975.4 711.733 1975.4 720.4V729.6C1975.4 735.2 1973.8 739.467 1970.6 742.4C1967.4 745.2 1963.2 747.333 1958 748.8L1934.4 755.4V775C1934.4 778.2 1935.33 780.867 1937.2 783C1939.2 785 1941.73 786 1944.8 786H1966.4V798H1942.4ZM1946.6 739.4C1951 738.2 1953.93 737.333 1955.4 736.8C1957 736.133 1958.07 735.2 1958.6 734C1959.13 732.8 1959.4 730.8 1959.4 728V717C1959.4 712.733 1958.27 709.6 1956 707.6C1953.87 705.6 1950.87 704.6 1947 704.6C1943.27 704.6 1940.2 705.667 1937.8 707.8C1935.53 709.933 1934.4 713 1934.4 717V742.8L1946.6 739.4ZM1991.33 694H2003.73L2005.53 701.4L2010.53 699C2014.79 696.867 2018.33 695.267 2021.13 694.2C2024.06 693.133 2026.99 692.6 2029.93 692.6V704.4C2028.19 704.4 2025.86 704.933 2022.93 706C2019.99 706.933 2014.79 709.2 2007.33 712.8V798H1991.33V694ZM2044.84 694H2057.24L2059.04 699.8L2067.24 697.4C2072.84 695.667 2077.24 694.467 2080.44 693.8C2083.78 693 2086.91 692.6 2089.84 692.6C2095.58 692.6 2099.58 695.133 2101.84 700.2C2105.58 698.867 2110.84 697.267 2117.64 695.4C2124.44 693.533 2129.44 692.6 2132.64 692.6C2137.44 692.6 2140.98 694.267 2143.24 697.6C2145.64 700.933 2146.84 705.267 2146.84 710.6V798H2130.84V715.8C2130.84 711.933 2130.58 709.267 2130.04 707.8C2129.51 706.2 2128.18 705.4 2126.04 705.4C2124.98 705.4 2117.64 707.533 2104.04 711.8V798H2088.04V715.8C2088.04 711.933 2087.78 709.267 2087.24 707.8C2086.71 706.2 2085.38 705.4 2083.24 705.4C2082.18 705.4 2074.71 707.533 2060.84 711.8V798H2044.84V694ZM2173.27 686.2L2166.67 680.2L2189.87 660.4L2200.07 669.8L2173.27 686.2ZM2168.87 798V694H2184.87V798H2168.87ZM2235.31 798C2226.91 798 2220.11 795.533 2214.91 790.6C2209.71 785.667 2207.11 779.067 2207.11 770.8V721C2207.11 715.267 2208.64 710.4 2211.71 706.4C2214.91 702.4 2218.84 699.667 2223.51 698.2L2250.31 688.8V658H2266.31V798H2235.31ZM2250.31 786V702L2232.51 708C2229.04 709.067 2226.57 710.8 2225.11 713.2C2223.77 715.467 2223.11 719.133 2223.11 724.2V770.8C2223.11 775.6 2224.51 779.333 2227.31 782C2230.11 784.667 2233.91 786 2238.71 786H2250.31ZM2290.35 677V661H2306.35V677H2290.35ZM2290.35 798V694H2306.35V798H2290.35ZM2351.59 798C2346.79 798 2342.32 796.8 2338.19 794.4C2334.19 792 2330.99 788.733 2328.59 784.6C2326.32 780.467 2325.19 775.8 2325.19 770.6V760.2C2325.19 753.933 2326.72 748.667 2329.79 744.4C2332.99 740.133 2336.92 737.133 2341.59 735.4L2366.39 726.2V716.8C2366.39 713.6 2365.39 711 2363.39 709C2361.52 706.867 2359.06 705.8 2355.99 705.8H2333.39V694H2357.39C2364.72 694 2370.52 696.2 2374.79 700.6C2379.19 704.867 2381.39 710.733 2381.39 718.2V798H2351.59ZM2366.39 785.8V738.8L2348.79 745.4C2345.32 746.733 2342.86 748.533 2341.39 750.8C2340.06 753.067 2339.39 756.667 2339.39 761.6V772.8C2339.39 776.4 2340.72 779.467 2343.39 782C2346.06 784.533 2349.26 785.8 2352.99 785.8H2366.39ZM959 1003C951.667 1003 945.867 1000.8 941.6 996.4C937.333 992 935.2 986.067 935.2 978.6V911H923.2V899H935.2V868.8L951.2 862.8V899H967.2V911H951.2V980C951.2 983.2 952.067 985.867 953.8 988C955.667 990 958.133 991 961.2 991H967.2V1003H959ZM983.125 899H995.525L997.325 906.4L1002.33 904C1006.59 901.867 1010.13 900.267 1012.93 899.2C1015.86 898.133 1018.79 897.6 1021.73 897.6V909.4C1019.99 909.4 1017.66 909.933 1014.73 911C1011.79 911.933 1006.59 914.2 999.125 917.8V1003H983.125V899ZM1057.84 1003C1053.04 1003 1048.57 1001.8 1044.44 999.4C1040.44 997 1037.24 993.733 1034.84 989.6C1032.57 985.467 1031.44 980.8 1031.44 975.6V965.2C1031.44 958.933 1032.97 953.667 1036.04 949.4C1039.24 945.133 1043.17 942.133 1047.84 940.4L1072.64 931.2V921.8C1072.64 918.6 1071.64 916 1069.64 914C1067.77 911.867 1065.31 910.8 1062.24 910.8H1039.64V899H1063.64C1070.97 899 1076.77 901.2 1081.04 905.6C1085.44 909.867 1087.64 915.733 1087.64 923.2V1003H1057.84ZM1072.64 990.8V943.8L1055.04 950.4C1051.57 951.733 1049.11 953.533 1047.64 955.8C1046.31 958.067 1045.64 961.667 1045.64 966.6V977.8C1045.64 981.4 1046.97 984.467 1049.64 987C1052.31 989.533 1055.51 990.8 1059.24 990.8H1072.64ZM1109.69 899H1122.09L1123.89 904.8L1132.09 902.4C1137.69 900.667 1142.09 899.467 1145.29 898.8C1148.62 898 1151.75 897.6 1154.69 897.6C1159.49 897.6 1163.02 899.267 1165.29 902.6C1167.55 905.933 1168.69 910.267 1168.69 915.6V1003H1152.69V920.8C1152.69 916.933 1152.42 914.267 1151.89 912.8C1151.35 911.2 1150.02 910.4 1147.89 910.4C1146.82 910.4 1139.42 912.533 1125.69 916.8V1003H1109.69V899ZM1184.94 991H1201.94C1207.67 991 1211.8 989.467 1214.34 986.4C1217 983.2 1218.34 979.067 1218.34 974C1218.34 970 1217.14 966.6 1214.74 963.8C1212.34 961 1208.74 957.733 1203.94 954C1199.8 950.667 1196.47 947.8 1193.94 945.4C1191.54 942.867 1189.4 939.8 1187.54 936.2C1185.8 932.467 1184.94 928.2 1184.94 923.4C1184.94 916.333 1187.27 910.533 1191.94 906C1196.74 901.333 1203.14 899 1211.14 899H1228.54V911H1214.14C1204.67 911 1199.94 915.467 1199.94 924.4C1199.94 927.867 1201 930.867 1203.14 933.4C1205.27 935.933 1208.6 938.933 1213.14 942.4C1217.27 945.6 1220.67 948.533 1223.34 951.2C1226 953.733 1228.27 957 1230.14 961C1232 964.867 1232.94 969.467 1232.94 974.8C1232.94 984.267 1230.4 991.333 1225.34 996C1220.4 1000.67 1213.4 1003 1204.34 1003H1184.94V991ZM1255.9 912.2H1243.9V899H1255.9V887.4C1255.9 879.933 1258.03 874 1262.3 869.6C1266.57 865.2 1272.37 863 1279.7 863H1288.5V875H1282.5C1279.43 875 1276.9 876.067 1274.9 878.2C1272.9 880.333 1271.9 882.933 1271.9 886V899H1288.1V912.2H1271.9V1003H1255.9V912.2ZM1326.49 1004.4C1317.16 1004.4 1309.89 1002.07 1304.69 997.4C1299.63 992.6 1297.09 986 1297.09 977.6V924.4C1297.09 916 1299.63 909.467 1304.69 904.8C1309.89 900 1317.16 897.6 1326.49 897.6C1335.83 897.6 1343.03 900 1348.09 904.8C1353.29 909.467 1355.89 916 1355.89 924.4V977.6C1355.89 986 1353.29 992.6 1348.09 997.4C1343.03 1002.07 1335.83 1004.4 1326.49 1004.4ZM1326.49 992C1330.76 992 1334.09 990.8 1336.49 988.4C1339.03 985.867 1340.29 982.267 1340.29 977.6V924.4C1340.29 919.733 1339.03 916.2 1336.49 913.8C1334.09 911.267 1330.76 910 1326.49 910C1322.23 910 1318.83 911.267 1316.29 913.8C1313.89 916.2 1312.69 919.733 1312.69 924.4V977.6C1312.69 982.267 1313.89 985.867 1316.29 988.4C1318.83 990.8 1322.23 992 1326.49 992ZM1375.9 899H1388.3L1390.1 906.4L1395.1 904C1399.37 901.867 1402.9 900.267 1405.7 899.2C1408.63 898.133 1411.57 897.6 1414.5 897.6V909.4C1412.77 909.4 1410.43 909.933 1407.5 911C1404.57 911.933 1399.37 914.2 1391.9 917.8V1003H1375.9V899ZM1429.41 899H1441.81L1443.61 904.8L1451.81 902.4C1457.41 900.667 1461.81 899.467 1465.01 898.8C1468.35 898 1471.48 897.6 1474.41 897.6C1480.15 897.6 1484.15 900.133 1486.41 905.2C1490.15 903.867 1495.41 902.267 1502.21 900.4C1509.01 898.533 1514.01 897.6 1517.21 897.6C1522.01 897.6 1525.55 899.267 1527.81 902.6C1530.21 905.933 1531.41 910.267 1531.41 915.6V1003H1515.41V920.8C1515.41 916.933 1515.15 914.267 1514.61 912.8C1514.08 911.2 1512.75 910.4 1510.61 910.4C1509.55 910.4 1502.21 912.533 1488.61 916.8V1003H1472.61V920.8C1472.61 916.933 1472.35 914.267 1471.81 912.8C1471.28 911.2 1469.95 910.4 1467.81 910.4C1466.75 910.4 1459.28 912.533 1445.41 916.8V1003H1429.41V899ZM1574.64 1003C1569.84 1003 1565.37 1001.8 1561.24 999.4C1557.24 997 1554.04 993.733 1551.64 989.6C1549.37 985.467 1548.24 980.8 1548.24 975.6V965.2C1548.24 958.933 1549.77 953.667 1552.84 949.4C1556.04 945.133 1559.97 942.133 1564.64 940.4L1589.44 931.2V921.8C1589.44 918.6 1588.44 916 1586.44 914C1584.57 911.867 1582.1 910.8 1579.04 910.8H1556.44V899H1580.44C1587.77 899 1593.57 901.2 1597.84 905.6C1602.24 909.867 1604.44 915.733 1604.44 923.2V1003H1574.64ZM1589.44 990.8V943.8L1571.84 950.4C1568.37 951.733 1565.9 953.533 1564.44 955.8C1563.1 958.067 1562.44 961.667 1562.44 966.6V977.8C1562.44 981.4 1563.77 984.467 1566.44 987C1569.1 989.533 1572.3 990.8 1576.04 990.8H1589.44ZM1658.68 1009.4C1663.48 1009.4 1667.15 1010.27 1669.68 1012C1672.22 1013.73 1673.48 1016.87 1673.48 1021.4C1673.48 1030.47 1668.28 1035 1657.88 1035H1636.48V1025.6H1652.48C1655.55 1025.6 1657.82 1025.27 1659.28 1024.6C1660.75 1023.93 1661.48 1022.8 1661.48 1021.2C1661.48 1019.47 1660.95 1018.33 1659.88 1017.8C1658.82 1017.27 1657.08 1017 1654.68 1017H1644.28L1647.68 1003H1648.48C1641.15 1003 1635.28 1000.8 1630.88 996.4C1626.62 992 1624.48 986.067 1624.48 978.6V925.4C1624.48 917 1626.68 910.533 1631.08 906C1635.48 901.333 1641.88 899 1650.28 899H1672.48V911H1650.68C1647.62 911 1645.15 912.067 1643.28 914.2C1641.42 916.2 1640.48 918.8 1640.48 922V980C1640.48 983.2 1641.42 985.867 1643.28 988C1645.28 990 1647.82 991 1650.88 991H1672.48V1003H1660.08L1658.68 1009.4ZM1683.65 889C1683.78 883 1684.91 878.467 1687.05 875.4C1689.18 872.2 1693.05 870.6 1698.65 870.6C1700.11 870.6 1704.45 871.667 1711.65 873.8C1718.71 876.067 1723.25 877.2 1725.25 877.2C1726.85 877.2 1727.91 876.733 1728.45 875.8C1728.98 874.733 1729.31 873.467 1729.45 872C1729.71 870.533 1729.91 869.4 1730.05 868.6H1742.65C1742.51 873.133 1742.18 876.8 1741.65 879.6C1741.11 882.267 1739.71 884.533 1737.45 886.4C1735.31 888.133 1732.05 889 1727.65 889C1725.65 889 1721.11 887.867 1714.05 885.6C1706.85 883.467 1702.51 882.4 1701.05 882.4C1699.31 882.4 1698.18 882.733 1697.65 883.4C1697.25 884.067 1696.91 885 1696.65 886.2C1696.51 887.4 1696.38 888.333 1696.25 889H1683.65ZM1711.85 1004.4C1702.51 1004.4 1695.25 1002.07 1690.05 997.4C1684.98 992.6 1682.45 986 1682.45 977.6V924.4C1682.45 916 1684.98 909.467 1690.05 904.8C1695.25 900 1702.51 897.6 1711.85 897.6C1721.18 897.6 1728.38 900 1733.45 904.8C1738.65 909.467 1741.25 916 1741.25 924.4V977.6C1741.25 986 1738.65 992.6 1733.45 997.4C1728.38 1002.07 1721.18 1004.4 1711.85 1004.4ZM1711.85 992C1716.11 992 1719.45 990.8 1721.85 988.4C1724.38 985.867 1725.65 982.267 1725.65 977.6V924.4C1725.65 919.733 1724.38 916.2 1721.85 913.8C1719.45 911.267 1716.11 910 1711.85 910C1707.58 910 1704.18 911.267 1701.65 913.8C1699.25 916.2 1698.05 919.733 1698.05 924.4V977.6C1698.05 982.267 1699.25 985.867 1701.65 988.4C1704.18 990.8 1707.58 992 1711.85 992ZM1782.05 1003C1774.72 1003 1768.85 1000.8 1764.45 996.4C1760.18 992 1758.05 986.067 1758.05 978.6V925.4C1758.05 916.733 1760.45 909.933 1765.25 905C1770.05 900.067 1777.18 897.6 1786.65 897.6C1796.12 897.6 1803.18 900.067 1807.85 905C1812.65 909.933 1815.05 916.733 1815.05 925.4V934.6C1815.05 940.2 1813.45 944.467 1810.25 947.4C1807.05 950.2 1802.85 952.333 1797.65 953.8L1774.05 960.4V980C1774.05 983.2 1774.98 985.867 1776.85 988C1778.85 990 1781.38 991 1784.45 991H1806.05V1003H1782.05ZM1786.25 944.4C1790.65 943.2 1793.58 942.333 1795.05 941.8C1796.65 941.133 1797.72 940.2 1798.25 939C1798.78 937.8 1799.05 935.8 1799.05 933V922C1799.05 917.733 1797.92 914.6 1795.65 912.6C1793.52 910.6 1790.52 909.6 1786.65 909.6C1782.92 909.6 1779.85 910.667 1777.45 912.8C1775.18 914.933 1774.05 918 1774.05 922V947.8L1786.25 944.4ZM1824.98 991H1841.98C1847.71 991 1851.84 989.467 1854.38 986.4C1857.04 983.2 1858.38 979.067 1858.38 974C1858.38 970 1857.18 966.6 1854.78 963.8C1852.38 961 1848.78 957.733 1843.98 954C1839.84 950.667 1836.51 947.8 1833.98 945.4C1831.58 942.867 1829.44 939.8 1827.58 936.2C1825.84 932.467 1824.98 928.2 1824.98 923.4C1824.98 916.333 1827.31 910.533 1831.98 906C1836.78 901.333 1843.18 899 1851.18 899H1868.58V911H1854.18C1844.71 911 1839.98 915.467 1839.98 924.4C1839.98 927.867 1841.04 930.867 1843.18 933.4C1845.31 935.933 1848.64 938.933 1853.18 942.4C1857.31 945.6 1860.71 948.533 1863.38 951.2C1866.04 953.733 1868.31 957 1870.18 961C1872.04 964.867 1872.98 969.467 1872.98 974.8C1872.98 984.267 1870.44 991.333 1865.38 996C1860.44 1000.67 1853.44 1003 1844.38 1003H1824.98V991ZM1942.22 1003C1937.42 1003 1932.95 1001.8 1928.82 999.4C1924.82 997 1921.62 993.733 1919.22 989.6C1916.95 985.467 1915.82 980.8 1915.82 975.6V965.2C1915.82 958.933 1917.35 953.667 1920.42 949.4C1923.62 945.133 1927.55 942.133 1932.22 940.4L1957.02 931.2V921.8C1957.02 918.6 1956.02 916 1954.02 914C1952.15 911.867 1949.68 910.8 1946.62 910.8H1924.02V899H1948.02C1955.35 899 1961.15 901.2 1965.42 905.6C1969.82 909.867 1972.02 915.733 1972.02 923.2V1003H1942.22ZM1957.02 990.8V943.8L1939.42 950.4C1935.95 951.733 1933.48 953.533 1932.02 955.8C1930.68 958.067 1930.02 961.667 1930.02 966.6V977.8C1930.02 981.4 1931.35 984.467 1934.02 987C1936.68 989.533 1939.88 990.8 1943.62 990.8H1957.02ZM2019.46 1004.4C2010.13 1004.4 2002.86 1002.07 1997.66 997.4C1992.6 992.6 1990.06 986 1990.06 977.6V924.4C1990.06 916 1992.6 909.467 1997.66 904.8C2002.86 900 2010.13 897.6 2019.46 897.6C2028.8 897.6 2036 900 2041.06 904.8C2046.26 909.467 2048.86 916 2048.86 924.4V977.6C2048.86 986 2046.26 992.6 2041.06 997.4C2036 1002.07 2028.8 1004.4 2019.46 1004.4ZM2019.46 992C2023.73 992 2027.06 990.8 2029.46 988.4C2032 985.867 2033.26 982.267 2033.26 977.6V924.4C2033.26 919.733 2032 916.2 2029.46 913.8C2027.06 911.267 2023.73 910 2019.46 910C2015.2 910 2011.8 911.267 2009.26 913.8C2006.86 916.2 2005.66 919.733 2005.66 924.4V977.6C2005.66 982.267 2006.86 985.867 2009.26 988.4C2011.8 990.8 2015.2 992 2019.46 992ZM2099.15 1003V863H2115.15V1003H2099.15ZM2164.38 1004.4C2155.05 1004.4 2147.78 1002.07 2142.58 997.4C2137.52 992.6 2134.98 986 2134.98 977.6V924.4C2134.98 916 2137.52 909.467 2142.58 904.8C2147.78 900 2155.05 897.6 2164.38 897.6C2173.72 897.6 2180.92 900 2185.98 904.8C2191.18 909.467 2193.78 916 2193.78 924.4V977.6C2193.78 986 2191.18 992.6 2185.98 997.4C2180.92 1002.07 2173.72 1004.4 2164.38 1004.4ZM2164.38 992C2168.65 992 2171.98 990.8 2174.38 988.4C2176.92 985.867 2178.18 982.267 2178.18 977.6V924.4C2178.18 919.733 2176.92 916.2 2174.38 913.8C2171.98 911.267 2168.65 910 2164.38 910C2160.12 910 2156.72 911.267 2154.18 913.8C2151.78 916.2 2150.58 919.733 2150.58 924.4V977.6C2150.58 982.267 2151.78 985.867 2154.18 988.4C2156.72 990.8 2160.12 992 2164.38 992ZM2213.79 899H2226.19L2227.99 904.8L2236.19 902.4C2241.79 900.667 2246.19 899.467 2249.39 898.8C2252.72 898 2255.86 897.6 2258.79 897.6C2263.59 897.6 2267.12 899.267 2269.39 902.6C2271.66 905.933 2272.79 910.267 2272.79 915.6V1003H2256.79V920.8C2256.79 916.933 2256.52 914.267 2255.99 912.8C2255.46 911.2 2254.12 910.4 2251.99 910.4C2250.92 910.4 2243.52 912.533 2229.79 916.8V1003H2213.79V899ZM2303.44 1023H2324.04C2327.11 1023 2329.51 1021.93 2331.24 1019.8C2333.11 1017.8 2334.04 1015.2 2334.04 1012V1003.2H2317.44C2310.11 1003.2 2303.91 1000.8 2298.84 996C2293.77 991.2 2291.24 985.2 2291.24 978V924.2C2291.24 917 2293.77 911 2298.84 906.2C2304.04 901.4 2310.31 899 2317.64 899H2350.24V1010.6C2350.24 1018.07 2348.17 1024 2344.04 1028.4C2340.04 1032.8 2334.37 1035 2327.04 1035H2303.44V1023ZM2334.24 991.2V911H2320.84C2317.11 911 2313.91 912.267 2311.24 914.8C2308.57 917.333 2307.24 920.467 2307.24 924.2V978C2307.24 981.733 2308.57 984.867 2311.24 987.4C2313.91 989.933 2317.11 991.2 2320.84 991.2H2334.24ZM2397.59 1004.4C2388.25 1004.4 2380.99 1002.07 2375.79 997.4C2370.72 992.6 2368.19 986 2368.19 977.6V924.4C2368.19 916 2370.72 909.467 2375.79 904.8C2380.99 900 2388.25 897.6 2397.59 897.6C2406.92 897.6 2414.12 900 2419.19 904.8C2424.39 909.467 2426.99 916 2426.99 924.4V977.6C2426.99 986 2424.39 992.6 2419.19 997.4C2414.12 1002.07 2406.92 1004.4 2397.59 1004.4ZM2397.59 992C2401.85 992 2405.19 990.8 2407.59 988.4C2410.12 985.867 2411.39 982.267 2411.39 977.6V924.4C2411.39 919.733 2410.12 916.2 2407.59 913.8C2405.19 911.267 2401.85 910 2397.59 910C2393.32 910 2389.92 911.267 2387.39 913.8C2384.99 916.2 2383.79 919.733 2383.79 924.4V977.6C2383.79 982.267 2384.99 985.867 2387.39 988.4C2389.92 990.8 2393.32 992 2397.59 992ZM2503.47 1003C2495.07 1003 2488.27 1000.53 2483.07 995.6C2477.87 990.667 2475.27 984.067 2475.27 975.8V926C2475.27 920.267 2476.8 915.4 2479.87 911.4C2483.07 907.4 2487 904.667 2491.67 903.2L2518.47 893.8V863H2534.47V1003H2503.47ZM2518.47 991V907L2500.67 913C2497.2 914.067 2494.74 915.8 2493.27 918.2C2491.94 920.467 2491.27 924.133 2491.27 929.2V975.8C2491.27 980.6 2492.67 984.333 2495.47 987C2498.27 989.667 2502.07 991 2506.87 991H2518.47ZM2583.92 1004.4C2574.58 1004.4 2567.32 1002.07 2562.12 997.4C2557.05 992.6 2554.52 986 2554.52 977.6V924.4C2554.52 916 2557.05 909.467 2562.12 904.8C2567.32 900 2574.58 897.6 2583.92 897.6C2593.25 897.6 2600.45 900 2605.52 904.8C2610.72 909.467 2613.32 916 2613.32 924.4V977.6C2613.32 986 2610.72 992.6 2605.52 997.4C2600.45 1002.07 2593.25 1004.4 2583.92 1004.4ZM2583.92 992C2588.18 992 2591.52 990.8 2593.92 988.4C2596.45 985.867 2597.72 982.267 2597.72 977.6V924.4C2597.72 919.733 2596.45 916.2 2593.92 913.8C2591.52 911.267 2588.18 910 2583.92 910C2579.65 910 2576.25 911.267 2573.72 913.8C2571.32 916.2 2570.12 919.733 2570.12 924.4V977.6C2570.12 982.267 2571.32 985.867 2573.72 988.4C2576.25 990.8 2579.65 992 2583.92 992ZM2692.4 1003C2685.07 1003 2679.27 1000.8 2675 996.4C2670.73 992 2668.6 986.067 2668.6 978.6V911H2656.6V899H2668.6V868.8L2684.6 862.8V899H2700.6V911H2684.6V980C2684.6 983.2 2685.47 985.867 2687.2 988C2689.07 990 2691.53 991 2694.6 991H2700.6V1003H2692.4ZM2737.32 1003C2729.99 1003 2724.12 1000.8 2719.72 996.4C2715.46 992 2713.32 986.067 2713.32 978.6V925.4C2713.32 916.733 2715.72 909.933 2720.52 905C2725.32 900.067 2732.46 897.6 2741.92 897.6C2751.39 897.6 2758.46 900.067 2763.12 905C2767.92 909.933 2770.32 916.733 2770.32 925.4V934.6C2770.32 940.2 2768.72 944.467 2765.52 947.4C2762.32 950.2 2758.12 952.333 2752.92 953.8L2729.32 960.4V980C2729.32 983.2 2730.26 985.867 2732.12 988C2734.12 990 2736.66 991 2739.72 991H2761.32V1003H2737.32ZM2741.52 944.4C2745.92 943.2 2748.86 942.333 2750.32 941.8C2751.92 941.133 2752.99 940.2 2753.52 939C2754.06 937.8 2754.32 935.8 2754.32 933V922C2754.32 917.733 2753.19 914.6 2750.92 912.6C2748.79 910.6 2745.79 909.6 2741.92 909.6C2738.19 909.6 2735.12 910.667 2732.72 912.8C2730.46 914.933 2729.32 918 2729.32 922V947.8L2741.52 944.4ZM2786.25 899H2798.65L2800.45 904.8L2808.65 902.4C2814.25 900.667 2818.65 899.467 2821.85 898.8C2825.18 898 2828.32 897.6 2831.25 897.6C2836.98 897.6 2840.98 900.133 2843.25 905.2C2846.98 903.867 2852.25 902.267 2859.05 900.4C2865.85 898.533 2870.85 897.6 2874.05 897.6C2878.85 897.6 2882.38 899.267 2884.65 902.6C2887.05 905.933 2888.25 910.267 2888.25 915.6V1003H2872.25V920.8C2872.25 916.933 2871.98 914.267 2871.45 912.8C2870.92 911.2 2869.58 910.4 2867.45 910.4C2866.38 910.4 2859.05 912.533 2845.45 916.8V1003H2829.45V920.8C2829.45 916.933 2829.18 914.267 2828.65 912.8C2828.12 911.2 2826.78 910.4 2824.65 910.4C2823.58 910.4 2816.12 912.533 2802.25 916.8V1003H2786.25V899ZM2910.27 899H2942.67C2950.01 899 2956.21 901.4 2961.27 906.2C2966.47 911 2969.07 917 2969.07 924.2V978C2969.07 985.2 2966.54 991.2 2961.47 996C2956.41 1000.67 2950.21 1003 2942.87 1003H2926.27V1035H2910.27V899ZM2939.47 991.2C2943.21 991.2 2946.41 989.933 2949.07 987.4C2951.74 984.867 2953.07 981.733 2953.07 978V924.2C2953.07 920.467 2951.74 917.333 2949.07 914.8C2946.41 912.267 2943.21 911 2939.47 911H2926.27V991.2H2939.47ZM3013.41 1004.4C3004.07 1004.4 2996.81 1002.07 2991.61 997.4C2986.54 992.6 2984.01 986 2984.01 977.6V924.4C2984.01 916 2986.54 909.467 2991.61 904.8C2996.81 900 3004.07 897.6 3013.41 897.6C3022.74 897.6 3029.94 900 3035.01 904.8C3040.21 909.467 3042.81 916 3042.81 924.4V977.6C3042.81 986 3040.21 992.6 3035.01 997.4C3029.94 1002.07 3022.74 1004.4 3013.41 1004.4ZM3013.41 992C3017.67 992 3021.01 990.8 3023.41 988.4C3025.94 985.867 3027.21 982.267 3027.21 977.6V924.4C3027.21 919.733 3025.94 916.2 3023.41 913.8C3021.01 911.267 3017.67 910 3013.41 910C3009.14 910 3005.74 911.267 3003.21 913.8C3000.81 916.2 2999.61 919.733 2999.61 924.4V977.6C2999.61 982.267 3000.81 985.867 3003.21 988.4C3005.74 990.8 3009.14 992 3013.41 992Z" fill="#AAAAAA"/>
<path d="M493.69 932.664L402.821 841.794C395.06 834.034 395.06 821.451 402.821 813.69L493.69 722.821C501.451 715.06 514.034 715.06 521.794 722.821C529.555 730.581 529.555 743.164 521.794 750.925C521.786 750.933 521.778 750.941 521.769 750.949L444.977 827.742L521.794 904.56C529.555 912.321 529.555 924.903 521.794 932.664C514.034 940.425 501.451 940.425 493.69 932.664Z" fill="white"/>
<path d="M650.693 722.82L741.562 813.69C749.323 821.451 749.323 834.033 741.562 841.794L650.693 932.664C642.932 940.425 630.349 940.425 622.588 932.664C614.828 924.903 614.828 912.32 622.588 904.56C622.597 904.551 622.605 904.543 622.613 904.535L699.406 827.742L622.588 750.924C614.828 743.164 614.828 730.581 622.588 722.82C630.349 715.059 642.932 715.059 650.693 722.82Z" fill="white"/>
<line x1="603" y1="796.284" x2="540.284" y2="859" stroke="white" stroke-width="40" stroke-linecap="round"/>
<line x1="609.461" y1="666.251" x2="684.299" y2="712.554" stroke="white" stroke-opacity="0.6" stroke-width="30" stroke-linecap="round"/>
<line x1="618.25" y1="623.218" x2="708.315" y2="654.438" stroke="white" stroke-opacity="0.4" stroke-width="30" stroke-linecap="round"/>
<line x1="607.026" y1="578.662" x2="693.676" y2="588.784" stroke="white" stroke-opacity="0.2" stroke-width="30" stroke-linecap="round"/>
<line x1="587.774" y1="540.43" x2="671.389" y2="525.344" stroke="white" stroke-opacity="0.1" stroke-width="30" stroke-linecap="round"/>
<line x1="564.339" y1="506.993" x2="628.059" y2="473.661" stroke="white" stroke-opacity="0.04" stroke-width="30" stroke-linecap="round"/>
<line x1="509.114" y1="988.951" x2="434.276" y2="942.648" stroke="white" stroke-opacity="0.6" stroke-width="30" stroke-linecap="round"/>
<line x1="500.325" y1="1031.98" x2="410.259" y2="1000.76" stroke="white" stroke-opacity="0.4" stroke-width="30" stroke-linecap="round"/>
<line x1="511.548" y1="1076.54" x2="424.899" y2="1066.42" stroke="white" stroke-opacity="0.2" stroke-width="30" stroke-linecap="round"/>
<line x1="530.8" y1="1114.77" x2="447.185" y2="1129.86" stroke="white" stroke-opacity="0.1" stroke-width="30" stroke-linecap="round"/>
<line x1="554.236" y1="1148.21" x2="490.515" y2="1181.54" stroke="white" stroke-opacity="0.04" stroke-width="30" stroke-linecap="round"/>
</svg>
