<svg width="3745" height="1780" viewBox="0 0 3745 1780" fill="none" xmlns="http://www.w3.org/2000/svg">
<path d="M619.067 905L619.067 806.026H619.07V806.025L718 806.025V839.298L652.326 839.298L652.326 905H619.067Z" fill="#34D320"/>
<path d="M652.327 679.7V745.401H684.741L684.741 647.273L588.629 647.273L588.629 723.407H588.63L588.629 905H426V740.326L426 740.325H459.259V740.326L524.931 740.326L524.931 839.3H491.673L491.673 773.599H459.259L459.259 871.727H555.371L555.371 795.593H555.37L555.371 614L718 614V778.674L619.069 778.674L619.069 679.7H652.327Z" fill="#34D320"/>
<path d="M524.93 614L524.931 712.975H426V679.702H491.671V614L524.93 614Z" fill="#34D320"/>
<path d="M926.54 699V601H937.74V699H926.54ZM954.427 614.3V603.1H965.627V614.3H954.427ZM954.427 699V626.2H965.627V699H954.427ZM982.455 626.2H991.135L992.395 630.26L998.135 628.58C1002.05 627.367 1005.13 626.527 1007.37 626.06C1009.71 625.5 1011.9 625.22 1013.95 625.22C1017.31 625.22 1019.79 626.387 1021.37 628.72C1022.96 631.053 1023.75 634.087 1023.75 637.82V699H1012.55V641.46C1012.55 638.753 1012.37 636.887 1011.99 635.86C1011.62 634.74 1010.69 634.18 1009.19 634.18C1008.45 634.18 1003.27 635.673 993.655 638.66V699H982.455V626.2ZM1039.33 601H1050.53V629.98L1056.69 628.16C1060.52 627.04 1063.32 626.293 1065.09 625.92C1066.96 625.453 1068.87 625.22 1070.83 625.22C1074.19 625.22 1076.66 626.387 1078.25 628.72C1079.84 631.053 1080.63 634.087 1080.63 637.82V699H1069.43V641.46C1069.43 638.753 1069.24 636.887 1068.87 635.86C1068.5 634.74 1067.56 634.18 1066.07 634.18C1065.32 634.18 1060.14 635.673 1050.53 638.66V699H1039.33V601ZM1112.41 699C1109.05 699 1105.93 698.16 1103.03 696.48C1100.23 694.8 1097.99 692.513 1096.31 689.62C1094.73 686.727 1093.93 683.46 1093.93 679.82V672.54C1093.93 668.153 1095.01 664.467 1097.15 661.48C1099.39 658.493 1102.15 656.393 1105.41 655.18L1122.77 648.74V642.16C1122.77 639.92 1122.07 638.1 1120.67 636.7C1119.37 635.207 1117.64 634.46 1115.49 634.46H1099.67V626.2H1116.47C1121.61 626.2 1125.67 627.74 1128.65 630.82C1131.73 633.807 1133.27 637.913 1133.27 643.14V699H1112.41ZM1122.77 690.46V657.56L1110.45 662.18C1108.03 663.113 1106.3 664.373 1105.27 665.96C1104.34 667.547 1103.87 670.067 1103.87 673.52V681.36C1103.87 683.88 1104.81 686.027 1106.67 687.8C1108.54 689.573 1110.78 690.46 1113.39 690.46H1122.77ZM1188.24 699C1182.36 699 1177.6 697.273 1173.96 693.82C1170.32 690.367 1168.5 685.747 1168.5 679.96V645.1C1168.5 641.087 1169.57 637.68 1171.72 634.88C1173.96 632.08 1176.71 630.167 1179.98 629.14L1198.74 622.56V601H1209.94V699H1188.24ZM1198.74 690.6V631.8L1186.28 636C1183.85 636.747 1182.13 637.96 1181.1 639.64C1180.17 641.227 1179.7 643.793 1179.7 647.34V679.96C1179.7 683.32 1180.68 685.933 1182.64 687.8C1184.6 689.667 1187.26 690.6 1190.62 690.6H1198.74ZM1244.55 699.98C1238.02 699.98 1232.93 698.347 1229.29 695.08C1225.74 691.72 1223.97 687.1 1223.97 681.22V643.98C1223.97 638.1 1225.74 633.527 1229.29 630.26C1232.93 626.9 1238.02 625.22 1244.55 625.22C1251.08 625.22 1256.12 626.9 1259.67 630.26C1263.31 633.527 1265.13 638.1 1265.13 643.98V681.22C1265.13 687.1 1263.31 691.72 1259.67 695.08C1256.12 698.347 1251.08 699.98 1244.55 699.98ZM1244.55 691.3C1247.54 691.3 1249.87 690.46 1251.55 688.78C1253.32 687.007 1254.21 684.487 1254.21 681.22V643.98C1254.21 640.713 1253.32 638.24 1251.55 636.56C1249.87 634.787 1247.54 633.9 1244.55 633.9C1241.56 633.9 1239.18 634.787 1237.41 636.56C1235.73 638.24 1234.89 640.713 1234.89 643.98V681.22C1234.89 684.487 1235.73 687.007 1237.41 688.78C1239.18 690.46 1241.56 691.3 1244.55 691.3ZM1320.49 699C1315.36 699 1311.3 697.46 1308.31 694.38C1305.32 691.3 1303.83 687.147 1303.83 681.92V634.6H1295.43V626.2H1303.83V605.06L1315.03 600.86V626.2H1326.23V634.6H1315.03V682.9C1315.03 685.14 1315.64 687.007 1316.85 688.5C1318.16 689.9 1319.88 690.6 1322.03 690.6H1326.23V699H1320.49ZM1351.94 699C1346.8 699 1342.7 697.46 1339.62 694.38C1336.63 691.3 1335.14 687.147 1335.14 681.92V644.68C1335.14 638.613 1336.82 633.853 1340.18 630.4C1343.54 626.947 1348.53 625.22 1355.16 625.22C1361.78 625.22 1366.73 626.947 1370 630.4C1373.36 633.853 1375.04 638.613 1375.04 644.68V651.12C1375.04 655.04 1373.92 658.027 1371.68 660.08C1369.44 662.04 1366.5 663.533 1362.86 664.56L1346.34 669.18V682.9C1346.34 685.14 1346.99 687.007 1348.3 688.5C1349.7 689.9 1351.47 690.6 1353.62 690.6H1368.74V699H1351.94ZM1354.88 657.98C1357.96 657.14 1360.01 656.533 1361.04 656.16C1362.16 655.693 1362.9 655.04 1363.28 654.2C1363.65 653.36 1363.84 651.96 1363.84 650V642.3C1363.84 639.313 1363.04 637.12 1361.46 635.72C1359.96 634.32 1357.86 633.62 1355.16 633.62C1352.54 633.62 1350.4 634.367 1348.72 635.86C1347.13 637.353 1346.34 639.5 1346.34 642.3V660.36L1354.88 657.98ZM1386.19 626.2H1394.87L1396.13 630.26L1401.87 628.58C1405.79 627.367 1408.87 626.527 1411.11 626.06C1413.44 625.5 1415.63 625.22 1417.69 625.22C1421.7 625.22 1424.5 626.993 1426.09 630.54C1428.7 629.607 1432.39 628.487 1437.15 627.18C1441.91 625.873 1445.41 625.22 1447.65 625.22C1451.01 625.22 1453.48 626.387 1455.07 628.72C1456.75 631.053 1457.59 634.087 1457.59 637.82V699H1446.39V641.46C1446.39 638.753 1446.2 636.887 1445.83 635.86C1445.45 634.74 1444.52 634.18 1443.03 634.18C1442.28 634.18 1437.15 635.673 1427.63 638.66V699H1416.43V641.46C1416.43 638.753 1416.24 636.887 1415.87 635.86C1415.49 634.74 1414.56 634.18 1413.07 634.18C1412.32 634.18 1407.09 635.673 1397.39 638.66V699H1386.19V626.2ZM1473 626.2H1495.68C1500.81 626.2 1505.15 627.88 1508.7 631.24C1512.34 634.6 1514.16 638.8 1514.16 643.84V681.5C1514.16 686.54 1512.39 690.74 1508.84 694.1C1505.29 697.367 1500.95 699 1495.82 699H1484.2V721.4H1473V626.2ZM1493.44 690.74C1496.05 690.74 1498.29 689.853 1500.16 688.08C1502.03 686.307 1502.96 684.113 1502.96 681.5V643.84C1502.96 641.227 1502.03 639.033 1500.16 637.26C1498.29 635.487 1496.05 634.6 1493.44 634.6H1484.2V690.74H1493.44ZM1545.2 699.98C1538.66 699.98 1533.58 698.347 1529.94 695.08C1526.39 691.72 1524.62 687.1 1524.62 681.22V643.98C1524.62 638.1 1526.39 633.527 1529.94 630.26C1533.58 626.9 1538.66 625.22 1545.2 625.22C1551.73 625.22 1556.77 626.9 1560.32 630.26C1563.96 633.527 1565.78 638.1 1565.78 643.98V681.22C1565.78 687.1 1563.96 691.72 1560.32 695.08C1556.77 698.347 1551.73 699.98 1545.2 699.98ZM1545.2 691.3C1548.18 691.3 1550.52 690.46 1552.2 688.78C1553.97 687.007 1554.86 684.487 1554.86 681.22V643.98C1554.86 640.713 1553.97 638.24 1552.2 636.56C1550.52 634.787 1548.18 633.9 1545.2 633.9C1542.21 633.9 1539.83 634.787 1538.06 636.56C1536.38 638.24 1535.54 640.713 1535.54 643.98V681.22C1535.54 684.487 1536.38 687.007 1538.06 688.78C1539.83 690.46 1542.21 691.3 1545.2 691.3ZM922 904L953.6 764H980.2L1010.6 904H994.2L984.4 862.8H948L939 904H922ZM951 849.2H981.4L967 777.2H965.6L951 849.2ZM1056.76 800H1069.16L1070.96 807.4L1075.96 805C1080.22 802.867 1083.76 801.267 1086.56 800.2C1089.49 799.133 1092.42 798.6 1095.36 798.6V810.4C1093.62 810.4 1091.29 810.933 1088.36 812C1085.42 812.933 1080.22 815.2 1072.76 818.8V904H1056.76V800ZM1131.07 904C1123.74 904 1117.87 901.8 1113.47 897.4C1109.21 893 1107.07 887.067 1107.07 879.6V826.4C1107.07 817.733 1109.47 810.933 1114.27 806C1119.07 801.067 1126.21 798.6 1135.67 798.6C1145.14 798.6 1152.21 801.067 1156.87 806C1161.67 810.933 1164.07 817.733 1164.07 826.4V835.6C1164.07 841.2 1162.47 845.467 1159.27 848.4C1156.07 851.2 1151.87 853.333 1146.67 854.8L1123.07 861.4V881C1123.07 884.2 1124.01 886.867 1125.87 889C1127.87 891 1130.41 892 1133.47 892H1155.07V904H1131.07ZM1135.27 845.4C1139.67 844.2 1142.61 843.333 1144.07 842.8C1145.67 842.133 1146.74 841.2 1147.27 840C1147.81 838.8 1148.07 836.8 1148.07 834V823C1148.07 818.733 1146.94 815.6 1144.67 813.6C1142.54 811.6 1139.54 810.6 1135.67 810.6C1131.94 810.6 1128.87 811.667 1126.47 813.8C1124.21 815.933 1123.07 819 1123.07 823V848.8L1135.27 845.4ZM1194.8 904L1171 800H1187.6L1203 883.8L1218.2 800H1234.8L1211 904H1194.8ZM1275.13 905.4C1265.79 905.4 1258.53 903.067 1253.33 898.4C1248.26 893.6 1245.73 887 1245.73 878.6V825.4C1245.73 817 1248.26 810.467 1253.33 805.8C1258.53 801 1265.79 798.6 1275.13 798.6C1284.46 798.6 1291.66 801 1296.73 805.8C1301.93 810.467 1304.53 817 1304.53 825.4V878.6C1304.53 887 1301.93 893.6 1296.73 898.4C1291.66 903.067 1284.46 905.4 1275.13 905.4ZM1275.13 893C1279.39 893 1282.73 891.8 1285.13 889.4C1287.66 886.867 1288.93 883.267 1288.93 878.6V825.4C1288.93 820.733 1287.66 817.2 1285.13 814.8C1282.73 812.267 1279.39 811 1275.13 811C1270.86 811 1267.46 812.267 1264.93 814.8C1262.53 817.2 1261.33 820.733 1261.33 825.4V878.6C1261.33 883.267 1262.53 886.867 1264.93 889.4C1267.46 891.8 1270.86 893 1275.13 893ZM1324.73 904V764H1340.73V904H1324.73ZM1376.77 905.4C1371.97 905.4 1368.37 903.733 1365.97 900.4C1363.7 897.067 1362.57 892.733 1362.57 887.4V800H1378.57V882.2C1378.57 885.933 1378.84 888.6 1379.37 890.2C1379.9 891.8 1381.17 892.6 1383.17 892.6C1384.1 892.6 1391.64 890.6 1405.77 886.6V800H1421.77V904H1410.37L1407.37 897.2C1405.24 898 1403.64 898.533 1402.57 898.8C1396.3 901.067 1391.24 902.733 1387.37 903.8C1383.5 904.867 1379.97 905.4 1376.77 905.4ZM1478.02 910.4C1482.82 910.4 1486.49 911.267 1489.02 913C1491.55 914.733 1492.82 917.867 1492.82 922.4C1492.82 931.467 1487.62 936 1477.22 936H1455.82V926.6H1471.82C1474.89 926.6 1477.15 926.267 1478.62 925.6C1480.09 924.933 1480.82 923.8 1480.82 922.2C1480.82 920.467 1480.29 919.333 1479.22 918.8C1478.15 918.267 1476.42 918 1474.02 918H1463.62L1467.02 904H1467.82C1460.49 904 1454.62 901.8 1450.22 897.4C1445.95 893 1443.82 887.067 1443.82 879.6V826.4C1443.82 818 1446.02 811.533 1450.42 807C1454.82 802.333 1461.22 800 1469.62 800H1491.82V812H1470.02C1466.95 812 1464.49 813.067 1462.62 815.2C1460.75 817.2 1459.82 819.8 1459.82 823V881C1459.82 884.2 1460.75 886.867 1462.62 889C1464.62 891 1467.15 892 1470.22 892H1491.82V904H1479.42L1478.02 910.4ZM1501.18 790C1501.31 784 1502.45 779.467 1504.58 776.4C1506.71 773.2 1510.58 771.6 1516.18 771.6C1517.65 771.6 1521.98 772.667 1529.18 774.8C1536.25 777.067 1540.78 778.2 1542.78 778.2C1544.38 778.2 1545.45 777.733 1545.98 776.8C1546.51 775.733 1546.85 774.467 1546.98 773C1547.25 771.533 1547.45 770.4 1547.58 769.6H1560.18C1560.05 774.133 1559.71 777.8 1559.18 780.6C1558.65 783.267 1557.25 785.533 1554.98 787.4C1552.85 789.133 1549.58 790 1545.18 790C1543.18 790 1538.65 788.867 1531.58 786.6C1524.38 784.467 1520.05 783.4 1518.58 783.4C1516.85 783.4 1515.71 783.733 1515.18 784.4C1514.78 785.067 1514.45 786 1514.18 787.2C1514.05 788.4 1513.91 789.333 1513.78 790H1501.18ZM1526.98 904C1522.18 904 1517.71 902.8 1513.58 900.4C1509.58 898 1506.38 894.733 1503.98 890.6C1501.71 886.467 1500.58 881.8 1500.58 876.6V866.2C1500.58 859.933 1502.11 854.667 1505.18 850.4C1508.38 846.133 1512.31 843.133 1516.98 841.4L1541.78 832.2V822.8C1541.78 819.6 1540.78 817 1538.78 815C1536.91 812.867 1534.45 811.8 1531.38 811.8H1508.78V800H1532.78C1540.11 800 1545.91 802.2 1550.18 806.6C1554.58 810.867 1556.78 816.733 1556.78 824.2V904H1526.98ZM1541.78 891.8V844.8L1524.18 851.4C1520.71 852.733 1518.25 854.533 1516.78 856.8C1515.45 859.067 1514.78 862.667 1514.78 867.6V878.8C1514.78 882.4 1516.11 885.467 1518.78 888C1521.45 890.533 1524.65 891.8 1528.38 891.8H1541.78ZM1604.23 905.4C1594.89 905.4 1587.63 903.067 1582.43 898.4C1577.36 893.6 1574.83 887 1574.83 878.6V825.4C1574.83 817 1577.36 810.467 1582.43 805.8C1587.63 801 1594.89 798.6 1604.23 798.6C1613.56 798.6 1620.76 801 1625.83 805.8C1631.03 810.467 1633.63 817 1633.63 825.4V878.6C1633.63 887 1631.03 893.6 1625.83 898.4C1620.76 903.067 1613.56 905.4 1604.23 905.4ZM1604.23 893C1608.49 893 1611.83 891.8 1614.23 889.4C1616.76 886.867 1618.03 883.267 1618.03 878.6V825.4C1618.03 820.733 1616.76 817.2 1614.23 814.8C1611.83 812.267 1608.49 811 1604.23 811C1599.96 811 1596.56 812.267 1594.03 814.8C1591.63 817.2 1590.43 820.733 1590.43 825.4V878.6C1590.43 883.267 1591.63 886.867 1594.03 889.4C1596.56 891.8 1599.96 893 1604.23 893ZM1710.11 904C1701.71 904 1694.91 901.533 1689.71 896.6C1684.51 891.667 1681.91 885.067 1681.91 876.8V827C1681.91 821.267 1683.44 816.4 1686.51 812.4C1689.71 808.4 1693.64 805.667 1698.31 804.2L1725.11 794.8V764H1741.11V904H1710.11ZM1725.11 892V808L1707.31 814C1703.84 815.067 1701.38 816.8 1699.91 819.2C1698.58 821.467 1697.91 825.133 1697.91 830.2V876.8C1697.91 881.6 1699.31 885.333 1702.11 888C1704.91 890.667 1708.71 892 1713.51 892H1725.11ZM1786.36 904C1781.56 904 1777.09 902.8 1772.96 900.4C1768.96 898 1765.76 894.733 1763.36 890.6C1761.09 886.467 1759.96 881.8 1759.96 876.6V866.2C1759.96 859.933 1761.49 854.667 1764.56 850.4C1767.76 846.133 1771.69 843.133 1776.36 841.4L1801.16 832.2V822.8C1801.16 819.6 1800.16 817 1798.16 815C1796.29 812.867 1793.82 811.8 1790.76 811.8H1768.16V800H1792.16C1799.49 800 1805.29 802.2 1809.56 806.6C1813.96 810.867 1816.16 816.733 1816.16 824.2V904H1786.36ZM1801.16 891.8V844.8L1783.56 851.4C1780.09 852.733 1777.62 854.533 1776.16 856.8C1774.82 859.067 1774.16 862.667 1774.16 867.6V878.8C1774.16 882.4 1775.49 885.467 1778.16 888C1780.82 890.533 1784.02 891.8 1787.76 891.8H1801.16ZM1903.08 904C1890.95 904 1881.55 900.933 1874.88 894.8C1868.21 888.667 1864.88 879.667 1864.88 867.8V800.2C1864.88 788.333 1868.21 779.333 1874.88 773.2C1881.55 767.067 1890.95 764 1903.08 764H1929.88V777.2H1903.08C1896.95 777.2 1891.95 779 1888.08 782.6C1884.35 786.067 1882.48 790.733 1882.48 796.6V871.4C1882.48 877.267 1884.35 882 1888.08 885.6C1891.95 889.067 1896.95 890.8 1903.08 890.8H1929.88V904H1903.08ZM1971.22 905.4C1961.89 905.4 1954.62 903.067 1949.42 898.4C1944.35 893.6 1941.82 887 1941.82 878.6V825.4C1941.82 817 1944.35 810.467 1949.42 805.8C1954.62 801 1961.89 798.6 1971.22 798.6C1980.55 798.6 1987.75 801 1992.82 805.8C1998.02 810.467 2000.62 817 2000.62 825.4V878.6C2000.62 887 1998.02 893.6 1992.82 898.4C1987.75 903.067 1980.55 905.4 1971.22 905.4ZM1971.22 893C1975.49 893 1978.82 891.8 1981.22 889.4C1983.75 886.867 1985.02 883.267 1985.02 878.6V825.4C1985.02 820.733 1983.75 817.2 1981.22 814.8C1978.82 812.267 1975.49 811 1971.22 811C1966.95 811 1963.55 812.267 1961.02 814.8C1958.62 817.2 1957.42 820.733 1957.42 825.4V878.6C1957.42 883.267 1958.62 886.867 1961.02 889.4C1963.55 891.8 1966.95 893 1971.22 893ZM2020.63 800H2033.03L2034.83 805.8L2043.03 803.4C2048.63 801.667 2053.03 800.467 2056.23 799.8C2059.56 799 2062.69 798.6 2065.63 798.6C2071.36 798.6 2075.36 801.133 2077.63 806.2C2081.36 804.867 2086.63 803.267 2093.43 801.4C2100.23 799.533 2105.23 798.6 2108.43 798.6C2113.23 798.6 2116.76 800.267 2119.03 803.6C2121.43 806.933 2122.63 811.267 2122.63 816.6V904H2106.63V821.8C2106.63 817.933 2106.36 815.267 2105.83 813.8C2105.29 812.2 2103.96 811.4 2101.83 811.4C2100.76 811.4 2093.43 813.533 2079.83 817.8V904H2063.83V821.8C2063.83 817.933 2063.56 815.267 2063.03 813.8C2062.49 812.2 2061.16 811.4 2059.03 811.4C2057.96 811.4 2050.49 813.533 2036.63 817.8V904H2020.63V800ZM2144.65 800H2177.05C2184.38 800 2190.58 802.4 2195.65 807.2C2200.85 812 2203.45 818 2203.45 825.2V879C2203.45 886.2 2200.92 892.2 2195.85 897C2190.78 901.667 2184.58 904 2177.25 904H2160.65V936H2144.65V800ZM2173.85 892.2C2177.58 892.2 2180.78 890.933 2183.45 888.4C2186.12 885.867 2187.45 882.733 2187.45 879V825.2C2187.45 821.467 2186.12 818.333 2183.45 815.8C2180.78 813.267 2177.58 812 2173.85 812H2160.65V892.2H2173.85ZM2234.58 905.4C2229.78 905.4 2226.18 903.733 2223.78 900.4C2221.52 897.067 2220.38 892.733 2220.38 887.4V800H2236.38V882.2C2236.38 885.933 2236.65 888.6 2237.18 890.2C2237.72 891.8 2238.98 892.6 2240.98 892.6C2241.92 892.6 2249.45 890.6 2263.58 886.6V800H2279.58V904H2268.18L2265.18 897.2C2263.05 898 2261.45 898.533 2260.38 898.8C2254.12 901.067 2249.05 902.733 2245.18 903.8C2241.32 904.867 2237.78 905.4 2234.58 905.4ZM2332.63 904C2325.3 904 2319.5 901.8 2315.23 897.4C2310.97 893 2308.83 887.067 2308.83 879.6V812H2296.83V800H2308.83V769.8L2324.83 763.8V800H2340.83V812H2324.83V881C2324.83 884.2 2325.7 886.867 2327.43 889C2329.3 891 2331.77 892 2334.83 892H2340.83V904H2332.63ZM2377.96 904C2373.16 904 2368.69 902.8 2364.56 900.4C2360.56 898 2357.36 894.733 2354.96 890.6C2352.69 886.467 2351.56 881.8 2351.56 876.6V866.2C2351.56 859.933 2353.09 854.667 2356.16 850.4C2359.36 846.133 2363.29 843.133 2367.96 841.4L2392.76 832.2V822.8C2392.76 819.6 2391.76 817 2389.76 815C2387.89 812.867 2385.42 811.8 2382.36 811.8H2359.76V800H2383.76C2391.09 800 2396.89 802.2 2401.16 806.6C2405.56 810.867 2407.76 816.733 2407.76 824.2V904H2377.96ZM2392.76 891.8V844.8L2375.16 851.4C2371.69 852.733 2369.22 854.533 2367.76 856.8C2366.42 859.067 2365.76 862.667 2365.76 867.6V878.8C2365.76 882.4 2367.09 885.467 2369.76 888C2372.42 890.533 2375.62 891.8 2379.36 891.8H2392.76ZM2462 910.4C2466.8 910.4 2470.47 911.267 2473 913C2475.54 914.733 2476.8 917.867 2476.8 922.4C2476.8 931.467 2471.6 936 2461.2 936H2439.8V926.6H2455.8C2458.87 926.6 2461.14 926.267 2462.6 925.6C2464.07 924.933 2464.8 923.8 2464.8 922.2C2464.8 920.467 2464.27 919.333 2463.2 918.8C2462.14 918.267 2460.4 918 2458 918H2447.6L2451 904H2451.8C2444.47 904 2438.6 901.8 2434.2 897.4C2429.94 893 2427.8 887.067 2427.8 879.6V826.4C2427.8 818 2430 811.533 2434.4 807C2438.8 802.333 2445.2 800 2453.6 800H2475.8V812H2454C2450.94 812 2448.47 813.067 2446.6 815.2C2444.74 817.2 2443.8 819.8 2443.8 823V881C2443.8 884.2 2444.74 886.867 2446.6 889C2448.6 891 2451.14 892 2454.2 892H2475.8V904H2463.4L2462 910.4ZM2485.17 790C2485.3 784 2486.43 779.467 2488.57 776.4C2490.7 773.2 2494.57 771.6 2500.17 771.6C2501.63 771.6 2505.97 772.667 2513.17 774.8C2520.23 777.067 2524.77 778.2 2526.77 778.2C2528.37 778.2 2529.43 777.733 2529.97 776.8C2530.5 775.733 2530.83 774.467 2530.97 773C2531.23 771.533 2531.43 770.4 2531.57 769.6H2544.17C2544.03 774.133 2543.7 777.8 2543.17 780.6C2542.63 783.267 2541.23 785.533 2538.97 787.4C2536.83 789.133 2533.57 790 2529.17 790C2527.17 790 2522.63 788.867 2515.57 786.6C2508.37 784.467 2504.03 783.4 2502.57 783.4C2500.83 783.4 2499.7 783.733 2499.17 784.4C2498.77 785.067 2498.43 786 2498.17 787.2C2498.03 788.4 2497.9 789.333 2497.77 790H2485.17ZM2510.97 904C2506.17 904 2501.7 902.8 2497.57 900.4C2493.57 898 2490.37 894.733 2487.97 890.6C2485.7 886.467 2484.57 881.8 2484.57 876.6V866.2C2484.57 859.933 2486.1 854.667 2489.17 850.4C2492.37 846.133 2496.3 843.133 2500.97 841.4L2525.77 832.2V822.8C2525.77 819.6 2524.77 817 2522.77 815C2520.9 812.867 2518.43 811.8 2515.37 811.8H2492.77V800H2516.77C2524.1 800 2529.9 802.2 2534.17 806.6C2538.57 810.867 2540.77 816.733 2540.77 824.2V904H2510.97ZM2525.77 891.8V844.8L2508.17 851.4C2504.7 852.733 2502.23 854.533 2500.77 856.8C2499.43 859.067 2498.77 862.667 2498.77 867.6V878.8C2498.77 882.4 2500.1 885.467 2502.77 888C2505.43 890.533 2508.63 891.8 2512.37 891.8H2525.77ZM2588.21 905.4C2578.88 905.4 2571.61 903.067 2566.41 898.4C2561.35 893.6 2558.81 887 2558.81 878.6V825.4C2558.81 817 2561.35 810.467 2566.41 805.8C2571.61 801 2578.88 798.6 2588.21 798.6C2597.55 798.6 2604.75 801 2609.81 805.8C2615.01 810.467 2617.61 817 2617.61 825.4V878.6C2617.61 887 2615.01 893.6 2609.81 898.4C2604.75 903.067 2597.55 905.4 2588.21 905.4ZM2588.21 893C2592.48 893 2595.81 891.8 2598.21 889.4C2600.75 886.867 2602.01 883.267 2602.01 878.6V825.4C2602.01 820.733 2600.75 817.2 2598.21 814.8C2595.81 812.267 2592.48 811 2588.21 811C2583.95 811 2580.55 812.267 2578.01 814.8C2575.61 817.2 2574.41 820.733 2574.41 825.4V878.6C2574.41 883.267 2575.61 886.867 2578.01 889.4C2580.55 891.8 2583.95 893 2588.21 893ZM2670.3 764H2705.7C2730.1 764 2742.3 776.4 2742.3 801.2C2742.3 814.133 2738.76 824.267 2731.7 831.6C2724.76 838.8 2714.83 842.4 2701.9 842.4H2687.9V904H2670.3V764ZM2700.7 829.2C2708.3 829.2 2714.16 826.6 2718.3 821.4C2722.56 816.2 2724.7 809.467 2724.7 801.2C2724.7 793.333 2722.63 787.4 2718.5 783.4C2714.5 779.267 2708.56 777.2 2700.7 777.2H2687.9V829.2H2700.7ZM2779.12 904C2771.79 904 2765.92 901.8 2761.52 897.4C2757.25 893 2755.12 887.067 2755.12 879.6V826.4C2755.12 817.733 2757.52 810.933 2762.32 806C2767.12 801.067 2774.25 798.6 2783.72 798.6C2793.19 798.6 2800.25 801.067 2804.92 806C2809.72 810.933 2812.12 817.733 2812.12 826.4V835.6C2812.12 841.2 2810.52 845.467 2807.32 848.4C2804.12 851.2 2799.92 853.333 2794.72 854.8L2771.12 861.4V881C2771.12 884.2 2772.05 886.867 2773.92 889C2775.92 891 2778.45 892 2781.52 892H2803.12V904H2779.12ZM2783.32 845.4C2787.72 844.2 2790.65 843.333 2792.12 842.8C2793.72 842.133 2794.79 841.2 2795.32 840C2795.85 838.8 2796.12 836.8 2796.12 834V823C2796.12 818.733 2794.99 815.6 2792.72 813.6C2790.59 811.6 2787.59 810.6 2783.72 810.6C2779.99 810.6 2776.92 811.667 2774.52 813.8C2772.25 815.933 2771.12 819 2771.12 823V848.8L2783.32 845.4ZM2822.05 892H2839.05C2844.78 892 2848.91 890.467 2851.45 887.4C2854.11 884.2 2855.45 880.067 2855.45 875C2855.45 871 2854.25 867.6 2851.85 864.8C2849.45 862 2845.85 858.733 2841.05 855C2836.91 851.667 2833.58 848.8 2831.05 846.4C2828.65 843.867 2826.51 840.8 2824.65 837.2C2822.91 833.467 2822.05 829.2 2822.05 824.4C2822.05 817.333 2824.38 811.533 2829.05 807C2833.85 802.333 2840.25 800 2848.25 800H2865.65V812H2851.25C2841.78 812 2837.05 816.467 2837.05 825.4C2837.05 828.867 2838.11 831.867 2840.25 834.4C2842.38 836.933 2845.71 839.933 2850.25 843.4C2854.38 846.6 2857.78 849.533 2860.45 852.2C2863.11 854.733 2865.38 858 2867.25 862C2869.11 865.867 2870.05 870.467 2870.05 875.8C2870.05 885.267 2867.51 892.333 2862.45 897C2857.51 901.667 2850.51 904 2841.45 904H2822.05V892ZM2882.01 892H2899.01C2904.74 892 2908.87 890.467 2911.41 887.4C2914.07 884.2 2915.41 880.067 2915.41 875C2915.41 871 2914.21 867.6 2911.81 864.8C2909.41 862 2905.81 858.733 2901.01 855C2896.87 851.667 2893.54 848.8 2891.01 846.4C2888.61 843.867 2886.47 840.8 2884.61 837.2C2882.87 833.467 2882.01 829.2 2882.01 824.4C2882.01 817.333 2884.34 811.533 2889.01 807C2893.81 802.333 2900.21 800 2908.21 800H2925.61V812H2911.21C2901.74 812 2897.01 816.467 2897.01 825.4C2897.01 828.867 2898.07 831.867 2900.21 834.4C2902.34 836.933 2905.67 839.933 2910.21 843.4C2914.34 846.6 2917.74 849.533 2920.41 852.2C2923.07 854.733 2925.34 858 2927.21 862C2929.07 865.867 2930.01 870.467 2930.01 875.8C2930.01 885.267 2927.47 892.333 2922.41 897C2917.47 901.667 2910.47 904 2901.41 904H2882.01V892ZM2973.37 905.4C2964.04 905.4 2956.77 903.067 2951.57 898.4C2946.5 893.6 2943.97 887 2943.97 878.6V825.4C2943.97 817 2946.5 810.467 2951.57 805.8C2956.77 801 2964.04 798.6 2973.37 798.6C2982.7 798.6 2989.9 801 2994.97 805.8C3000.17 810.467 3002.77 817 3002.77 825.4V878.6C3002.77 887 3000.17 893.6 2994.97 898.4C2989.9 903.067 2982.7 905.4 2973.37 905.4ZM2973.37 893C2977.64 893 2980.97 891.8 2983.37 889.4C2985.9 886.867 2987.17 883.267 2987.17 878.6V825.4C2987.17 820.733 2985.9 817.2 2983.37 814.8C2980.97 812.267 2977.64 811 2973.37 811C2969.1 811 2965.7 812.267 2963.17 814.8C2960.77 817.2 2959.57 820.733 2959.57 825.4V878.6C2959.57 883.267 2960.77 886.867 2963.17 889.4C2965.7 891.8 2969.1 893 2973.37 893ZM3043.97 904C3039.17 904 3034.71 902.8 3030.57 900.4C3026.57 898 3023.37 894.733 3020.97 890.6C3018.71 886.467 3017.57 881.8 3017.57 876.6V866.2C3017.57 859.933 3019.11 854.667 3022.17 850.4C3025.37 846.133 3029.31 843.133 3033.97 841.4L3058.77 832.2V822.8C3058.77 819.6 3057.77 817 3055.77 815C3053.91 812.867 3051.44 811.8 3048.37 811.8H3025.77V800H3049.77C3057.11 800 3062.91 802.2 3067.17 806.6C3071.57 810.867 3073.77 816.733 3073.77 824.2V904H3043.97ZM3058.77 891.8V844.8L3041.17 851.4C3037.71 852.733 3035.24 854.533 3033.77 856.8C3032.44 859.067 3031.77 862.667 3031.77 867.6V878.8C3031.77 882.4 3033.11 885.467 3035.77 888C3038.44 890.533 3041.64 891.8 3045.37 891.8H3058.77ZM3096.02 904V764H3112.02V904H3096.02Z" fill="#34D320"/>
</svg>
