<svg width="3745" height="1780" viewBox="0 0 3745 1780" fill="none" xmlns="http://www.w3.org/2000/svg">
<path d="M468.12 722.26C456.96 722.26 448.44 719.44 442.56 713.8C436.68 708.04 433.74 700.06 433.74 689.86V626.14C433.74 615.94 436.68 608.02 442.56 602.38C448.44 596.62 456.96 593.74 468.12 593.74C479.4 593.74 487.98 596.62 493.86 602.38C499.74 608.02 502.68 615.94 502.68 626.14V689.86C502.68 700.06 499.74 708.04 493.86 713.8C487.98 719.44 479.4 722.26 468.12 722.26ZM468.12 710.38C473.4 710.38 477.84 708.88 481.44 705.88C485.04 702.76 486.84 698.44 486.84 692.92V623.08C486.84 617.56 485.04 613.3 481.44 610.3C477.84 607.18 473.4 605.62 468.12 605.62C462.84 605.62 458.4 607.18 454.8 610.3C451.32 613.3 449.58 617.56 449.58 623.08V692.92C449.58 698.44 451.32 702.76 454.8 705.88C458.4 708.88 462.84 710.38 468.12 710.38ZM515.775 710.2H531.075C536.235 710.2 539.955 708.82 542.235 706.06C544.635 703.18 545.835 699.46 545.835 694.9C545.835 691.3 544.755 688.24 542.595 685.72C540.435 683.2 537.195 680.26 532.875 676.9C529.155 673.9 526.155 671.32 523.875 669.16C521.715 666.88 519.795 664.12 518.115 660.88C516.555 657.52 515.775 653.68 515.775 649.36C515.775 643 517.875 637.78 522.075 633.7C526.395 629.5 532.155 627.4 539.355 627.4H555.015V638.2H542.055C533.535 638.2 529.275 642.22 529.275 650.26C529.275 653.38 530.235 656.08 532.155 658.36C534.075 660.64 537.075 663.34 541.155 666.46C544.875 669.34 547.935 671.98 550.335 674.38C552.735 676.66 554.775 679.6 556.455 683.2C558.135 686.68 558.975 690.82 558.975 695.62C558.975 704.14 556.695 710.5 552.135 714.7C547.695 718.9 541.395 721 533.235 721H515.775V710.2ZM622.01 721C615.41 721 610.13 719.02 606.17 715.06C602.33 711.1 600.41 705.76 600.41 699.04V651.16C600.41 643.6 602.39 637.78 606.35 633.7C610.31 629.5 616.07 627.4 623.63 627.4H643.61V638.2H623.99C621.23 638.2 619.01 639.16 617.33 641.08C615.65 642.88 614.81 645.22 614.81 648.1V700.3C614.81 703.18 615.65 705.58 617.33 707.5C619.13 709.3 621.41 710.2 624.17 710.2H643.61V721H622.01ZM679.035 722.26C670.635 722.26 664.095 720.16 659.415 715.96C654.855 711.64 652.575 705.7 652.575 698.14V650.26C652.575 642.7 654.855 636.82 659.415 632.62C664.095 628.3 670.635 626.14 679.035 626.14C687.435 626.14 693.915 628.3 698.475 632.62C703.155 636.82 705.495 642.7 705.495 650.26V698.14C705.495 705.7 703.155 711.64 698.475 715.96C693.915 720.16 687.435 722.26 679.035 722.26ZM679.035 711.1C682.875 711.1 685.875 710.02 688.035 707.86C690.315 705.58 691.455 702.34 691.455 698.14V650.26C691.455 646.06 690.315 642.88 688.035 640.72C685.875 638.44 682.875 637.3 679.035 637.3C675.195 637.3 672.135 638.44 669.855 640.72C667.695 642.88 666.615 646.06 666.615 650.26V698.14C666.615 702.34 667.695 705.58 669.855 707.86C672.135 710.02 675.195 711.1 679.035 711.1ZM723.499 627.4H734.659L736.279 632.62L743.659 630.46C748.699 628.9 752.659 627.82 755.539 627.22C758.539 626.5 761.359 626.14 763.999 626.14C769.159 626.14 772.759 628.42 774.799 632.98C778.159 631.78 782.899 630.34 789.019 628.66C795.139 626.98 799.639 626.14 802.519 626.14C806.839 626.14 810.019 627.64 812.059 630.64C814.219 633.64 815.299 637.54 815.299 642.34V721H800.899V647.02C800.899 643.54 800.659 641.14 800.179 639.82C799.699 638.38 798.499 637.66 796.579 637.66C795.619 637.66 789.019 639.58 776.779 643.42V721H762.379V647.02C762.379 643.54 762.139 641.14 761.659 639.82C761.179 638.38 759.979 637.66 758.059 637.66C757.099 637.66 750.379 639.58 737.899 643.42V721H723.499V627.4ZM835.12 627.4H864.28C870.88 627.4 876.46 629.56 881.02 633.88C885.7 638.2 888.04 643.6 888.04 650.08V698.5C888.04 704.98 885.76 710.38 881.2 714.7C876.64 718.9 871.06 721 864.46 721H849.52V749.8H835.12V627.4ZM861.4 710.38C864.76 710.38 867.64 709.24 870.04 706.96C872.44 704.68 873.64 701.86 873.64 698.5V650.08C873.64 646.72 872.44 643.9 870.04 641.62C867.64 639.34 864.76 638.2 861.4 638.2H849.52V710.38H861.4ZM916.061 722.26C911.741 722.26 908.501 720.76 906.341 717.76C904.301 714.76 903.281 710.86 903.281 706.06V627.4H917.681V701.38C917.681 704.74 917.921 707.14 918.401 708.58C918.881 710.02 920.021 710.74 921.821 710.74C922.661 710.74 929.441 708.94 942.161 705.34V627.4H956.561V721H946.301L943.601 714.88C941.681 715.6 940.241 716.08 939.281 716.32C933.641 718.36 929.081 719.86 925.601 720.82C922.121 721.78 918.941 722.26 916.061 722.26ZM1004.31 721C997.706 721 992.486 719.02 988.646 715.06C984.806 711.1 982.886 705.76 982.886 699.04V638.2H972.086V627.4H982.886V600.22L997.286 594.82V627.4H1011.69V638.2H997.286V700.3C997.286 703.18 998.066 705.58 999.626 707.5C1001.31 709.3 1003.53 710.2 1006.29 710.2H1011.69V721H1004.31ZM1045.1 721C1040.78 721 1036.76 719.92 1033.04 717.76C1029.44 715.6 1026.56 712.66 1024.4 708.94C1022.36 705.22 1021.34 701.02 1021.34 696.34V686.98C1021.34 681.34 1022.72 676.6 1025.48 672.76C1028.36 668.92 1031.9 666.22 1036.1 664.66L1058.42 656.38V647.92C1058.42 645.04 1057.52 642.7 1055.72 640.9C1054.04 638.98 1051.82 638.02 1049.06 638.02H1028.72V627.4H1050.32C1056.92 627.4 1062.14 629.38 1065.98 633.34C1069.94 637.18 1071.92 642.46 1071.92 649.18V721H1045.1ZM1058.42 710.02V667.72L1042.58 673.66C1039.46 674.86 1037.24 676.48 1035.92 678.52C1034.72 680.56 1034.12 683.8 1034.12 688.24V698.32C1034.12 701.56 1035.32 704.32 1037.72 706.6C1040.12 708.88 1043 710.02 1046.36 710.02H1058.42ZM1115.52 721C1107.96 721 1101.84 718.78 1097.16 714.34C1092.48 709.9 1090.14 703.96 1090.14 696.52V651.7C1090.14 646.54 1091.52 642.16 1094.28 638.56C1097.16 634.96 1100.7 632.5 1104.9 631.18L1129.02 622.72V595H1143.42V721H1115.52ZM1129.02 710.2V634.6L1113 640C1109.88 640.96 1107.66 642.52 1106.34 644.68C1105.14 646.72 1104.54 650.02 1104.54 654.58V696.52C1104.54 700.84 1105.8 704.2 1108.32 706.6C1110.84 709 1114.26 710.2 1118.58 710.2H1129.02ZM1187.92 722.26C1179.52 722.26 1172.98 720.16 1168.3 715.96C1163.74 711.64 1161.46 705.7 1161.46 698.14V650.26C1161.46 642.7 1163.74 636.82 1168.3 632.62C1172.98 628.3 1179.52 626.14 1187.92 626.14C1196.32 626.14 1202.8 628.3 1207.36 632.62C1212.04 636.82 1214.38 642.7 1214.38 650.26V698.14C1214.38 705.7 1212.04 711.64 1207.36 715.96C1202.8 720.16 1196.32 722.26 1187.92 722.26ZM1187.92 711.1C1191.76 711.1 1194.76 710.02 1196.92 707.86C1199.2 705.58 1200.34 702.34 1200.34 698.14V650.26C1200.34 646.06 1199.2 642.88 1196.92 640.72C1194.76 638.44 1191.76 637.3 1187.92 637.3C1184.08 637.3 1181.02 638.44 1178.74 640.72C1176.58 642.88 1175.5 646.06 1175.5 650.26V698.14C1175.5 702.34 1176.58 705.58 1178.74 707.86C1181.02 710.02 1184.08 711.1 1187.92 711.1ZM1232.39 627.4H1243.55L1245.17 634.06L1249.67 631.9C1253.51 629.98 1256.69 628.54 1259.21 627.58C1261.85 626.62 1264.49 626.14 1267.13 626.14V636.76C1265.57 636.76 1263.47 637.24 1260.83 638.2C1258.19 639.04 1253.51 641.08 1246.79 644.32V721H1232.39V627.4ZM1299.27 721C1292.67 721 1287.39 719.02 1283.43 715.06C1279.59 711.1 1277.67 705.76 1277.67 699.04V651.16C1277.67 643.36 1279.83 637.24 1284.15 632.8C1288.47 628.36 1294.89 626.14 1303.41 626.14C1311.93 626.14 1318.29 628.36 1322.49 632.8C1326.81 637.24 1328.97 643.36 1328.97 651.16V659.44C1328.97 664.48 1327.53 668.32 1324.65 670.96C1321.77 673.48 1317.99 675.4 1313.31 676.72L1292.07 682.66V700.3C1292.07 703.18 1292.91 705.58 1294.59 707.5C1296.39 709.3 1298.67 710.2 1301.43 710.2H1320.87V721H1299.27ZM1303.05 668.26C1307.01 667.18 1309.65 666.4 1310.97 665.92C1312.41 665.32 1313.37 664.48 1313.85 663.4C1314.33 662.32 1314.57 660.52 1314.57 658V648.1C1314.57 644.26 1313.55 641.44 1311.51 639.64C1309.59 637.84 1306.89 636.94 1303.41 636.94C1300.05 636.94 1297.29 637.9 1295.13 639.82C1293.09 641.74 1292.07 644.5 1292.07 648.1V671.32L1303.05 668.26ZM1337.9 710.2H1353.2C1358.36 710.2 1362.08 708.82 1364.36 706.06C1366.76 703.18 1367.96 699.46 1367.96 694.9C1367.96 691.3 1366.88 688.24 1364.72 685.72C1362.56 683.2 1359.32 680.26 1355 676.9C1351.28 673.9 1348.28 671.32 1346 669.16C1343.84 666.88 1341.92 664.12 1340.24 660.88C1338.68 657.52 1337.9 653.68 1337.9 649.36C1337.9 643 1340 637.78 1344.2 633.7C1348.52 629.5 1354.28 627.4 1361.48 627.4H1377.14V638.2H1364.18C1355.66 638.2 1351.4 642.22 1351.4 650.26C1351.4 653.38 1352.36 656.08 1354.28 658.36C1356.2 660.64 1359.2 663.34 1363.28 666.46C1367 669.34 1370.06 671.98 1372.46 674.38C1374.86 676.66 1376.9 679.6 1378.58 683.2C1380.26 686.68 1381.1 690.82 1381.1 695.62C1381.1 704.14 1378.82 710.5 1374.26 714.7C1369.82 718.9 1363.52 721 1355.36 721H1337.9V710.2ZM1424.34 627.4H1453.5C1460.1 627.4 1465.68 629.56 1470.24 633.88C1474.92 638.2 1477.26 643.6 1477.26 650.08V698.5C1477.26 704.98 1474.98 710.38 1470.42 714.7C1465.86 718.9 1460.28 721 1453.68 721H1438.74V749.8H1424.34V627.4ZM1450.62 710.38C1453.98 710.38 1456.86 709.24 1459.26 706.96C1461.66 704.68 1462.86 701.86 1462.86 698.5V650.08C1462.86 646.72 1461.66 643.9 1459.26 641.62C1456.86 639.34 1453.98 638.2 1450.62 638.2H1438.74V710.38H1450.62ZM1513.02 721C1506.42 721 1501.14 719.02 1497.18 715.06C1493.34 711.1 1491.42 705.76 1491.42 699.04V651.16C1491.42 643.36 1493.58 637.24 1497.9 632.8C1502.22 628.36 1508.64 626.14 1517.16 626.14C1525.68 626.14 1532.04 628.36 1536.24 632.8C1540.56 637.24 1542.72 643.36 1542.72 651.16V659.44C1542.72 664.48 1541.28 668.32 1538.4 670.96C1535.52 673.48 1531.74 675.4 1527.06 676.72L1505.82 682.66V700.3C1505.82 703.18 1506.66 705.58 1508.34 707.5C1510.14 709.3 1512.42 710.2 1515.18 710.2H1534.62V721H1513.02ZM1516.8 668.26C1520.76 667.18 1523.4 666.4 1524.72 665.92C1526.16 665.32 1527.12 664.48 1527.6 663.4C1528.08 662.32 1528.32 660.52 1528.32 658V648.1C1528.32 644.26 1527.3 641.44 1525.26 639.64C1523.34 637.84 1520.64 636.94 1517.16 636.94C1513.8 636.94 1511.04 637.9 1508.88 639.82C1506.84 641.74 1505.82 644.5 1505.82 648.1V671.32L1516.8 668.26ZM1551.65 710.2H1566.95C1572.11 710.2 1575.83 708.82 1578.11 706.06C1580.51 703.18 1581.71 699.46 1581.71 694.9C1581.71 691.3 1580.63 688.24 1578.47 685.72C1576.31 683.2 1573.07 680.26 1568.75 676.9C1565.03 673.9 1562.03 671.32 1559.75 669.16C1557.59 666.88 1555.67 664.12 1553.99 660.88C1552.43 657.52 1551.65 653.68 1551.65 649.36C1551.65 643 1553.75 637.78 1557.95 633.7C1562.27 629.5 1568.03 627.4 1575.23 627.4H1590.89V638.2H1577.93C1569.41 638.2 1565.15 642.22 1565.15 650.26C1565.15 653.38 1566.11 656.08 1568.03 658.36C1569.95 660.64 1572.95 663.34 1577.03 666.46C1580.75 669.34 1583.81 671.98 1586.21 674.38C1588.61 676.66 1590.65 679.6 1592.33 683.2C1594.01 686.68 1594.85 690.82 1594.85 695.62C1594.85 704.14 1592.57 710.5 1588.01 714.7C1583.57 718.9 1577.27 721 1569.11 721H1551.65V710.2ZM1605.62 710.2H1620.92C1626.08 710.2 1629.8 708.82 1632.08 706.06C1634.48 703.18 1635.68 699.46 1635.68 694.9C1635.68 691.3 1634.6 688.24 1632.44 685.72C1630.28 683.2 1627.04 680.26 1622.72 676.9C1619 673.9 1616 671.32 1613.72 669.16C1611.56 666.88 1609.64 664.12 1607.96 660.88C1606.4 657.52 1605.62 653.68 1605.62 649.36C1605.62 643 1607.72 637.78 1611.92 633.7C1616.24 629.5 1622 627.4 1629.2 627.4H1644.86V638.2H1631.9C1623.38 638.2 1619.12 642.22 1619.12 650.26C1619.12 653.38 1620.08 656.08 1622 658.36C1623.92 660.64 1626.92 663.34 1631 666.46C1634.72 669.34 1637.78 671.98 1640.18 674.38C1642.58 676.66 1644.62 679.6 1646.3 683.2C1647.98 686.68 1648.82 690.82 1648.82 695.62C1648.82 704.14 1646.54 710.5 1641.98 714.7C1637.54 718.9 1631.24 721 1623.08 721H1605.62V710.2ZM1687.84 722.26C1679.44 722.26 1672.9 720.16 1668.22 715.96C1663.66 711.64 1661.38 705.7 1661.38 698.14V650.26C1661.38 642.7 1663.66 636.82 1668.22 632.62C1672.9 628.3 1679.44 626.14 1687.84 626.14C1696.24 626.14 1702.72 628.3 1707.28 632.62C1711.96 636.82 1714.3 642.7 1714.3 650.26V698.14C1714.3 705.7 1711.96 711.64 1707.28 715.96C1702.72 720.16 1696.24 722.26 1687.84 722.26ZM1687.84 711.1C1691.68 711.1 1694.68 710.02 1696.84 707.86C1699.12 705.58 1700.26 702.34 1700.26 698.14V650.26C1700.26 646.06 1699.12 642.88 1696.84 640.72C1694.68 638.44 1691.68 637.3 1687.84 637.3C1684 637.3 1680.94 638.44 1678.66 640.72C1676.5 642.88 1675.42 646.06 1675.42 650.26V698.14C1675.42 702.34 1676.5 705.58 1678.66 707.86C1680.94 710.02 1684 711.1 1687.84 711.1ZM1751.39 721C1747.07 721 1743.05 719.92 1739.33 717.76C1735.73 715.6 1732.85 712.66 1730.69 708.94C1728.65 705.22 1727.63 701.02 1727.63 696.34V686.98C1727.63 681.34 1729.01 676.6 1731.77 672.76C1734.65 668.92 1738.19 666.22 1742.39 664.66L1764.71 656.38V647.92C1764.71 645.04 1763.81 642.7 1762.01 640.9C1760.33 638.98 1758.11 638.02 1755.35 638.02H1735.01V627.4H1756.61C1763.21 627.4 1768.43 629.38 1772.27 633.34C1776.23 637.18 1778.21 642.46 1778.21 649.18V721H1751.39ZM1764.71 710.02V667.72L1748.87 673.66C1745.75 674.86 1743.53 676.48 1742.21 678.52C1741.01 680.56 1740.41 683.8 1740.41 688.24V698.32C1740.41 701.56 1741.61 704.32 1744.01 706.6C1746.41 708.88 1749.29 710.02 1752.65 710.02H1764.71ZM1798.05 612.1V597.7H1812.45V612.1H1798.05ZM1798.05 721V627.4H1812.45V721H1798.05ZM1828.69 710.2H1843.99C1849.15 710.2 1852.87 708.82 1855.15 706.06C1857.55 703.18 1858.75 699.46 1858.75 694.9C1858.75 691.3 1857.67 688.24 1855.51 685.72C1853.35 683.2 1850.11 680.26 1845.79 676.9C1842.07 673.9 1839.07 671.32 1836.79 669.16C1834.63 666.88 1832.71 664.12 1831.03 660.88C1829.47 657.52 1828.69 653.68 1828.69 649.36C1828.69 643 1830.79 637.78 1834.99 633.7C1839.31 629.5 1845.07 627.4 1852.27 627.4H1867.93V638.2H1854.97C1846.45 638.2 1842.19 642.22 1842.19 650.26C1842.19 653.38 1843.15 656.08 1845.07 658.36C1846.99 660.64 1849.99 663.34 1854.07 666.46C1857.79 669.34 1860.85 671.98 1863.25 674.38C1865.65 676.66 1867.69 679.6 1869.37 683.2C1871.05 686.68 1871.89 690.82 1871.89 695.62C1871.89 704.14 1869.61 710.5 1865.05 714.7C1860.61 718.9 1854.31 721 1846.15 721H1828.69V710.2ZM1933.84 721C1927.24 721 1921.96 719.02 1918 715.06C1914.16 711.1 1912.24 705.76 1912.24 699.04V651.16C1912.24 643.36 1914.4 637.24 1918.72 632.8C1923.04 628.36 1929.46 626.14 1937.98 626.14C1946.5 626.14 1952.86 628.36 1957.06 632.8C1961.38 637.24 1963.54 643.36 1963.54 651.16V659.44C1963.54 664.48 1962.1 668.32 1959.22 670.96C1956.34 673.48 1952.56 675.4 1947.88 676.72L1926.64 682.66V700.3C1926.64 703.18 1927.48 705.58 1929.16 707.5C1930.96 709.3 1933.24 710.2 1936 710.2H1955.44V721H1933.84ZM1937.62 668.26C1941.58 667.18 1944.22 666.4 1945.54 665.92C1946.98 665.32 1947.94 664.48 1948.42 663.4C1948.9 662.32 1949.14 660.52 1949.14 658V648.1C1949.14 644.26 1948.12 641.44 1946.08 639.64C1944.16 637.84 1941.46 636.94 1937.98 636.94C1934.62 636.94 1931.86 637.9 1929.7 639.82C1927.66 641.74 1926.64 644.5 1926.64 648.1V671.32L1937.62 668.26ZM1977.87 627.4H1989.03L1990.65 634.06L1995.15 631.9C1998.99 629.98 2002.17 628.54 2004.69 627.58C2007.33 626.62 2009.97 626.14 2012.61 626.14V636.76C2011.05 636.76 2008.95 637.24 2006.31 638.2C2003.67 639.04 1998.99 641.08 1992.27 644.32V721H1977.87V627.4ZM2045.12 721C2040.8 721 2036.78 719.92 2033.06 717.76C2029.46 715.6 2026.58 712.66 2024.42 708.94C2022.38 705.22 2021.36 701.02 2021.36 696.34V686.98C2021.36 681.34 2022.74 676.6 2025.5 672.76C2028.38 668.92 2031.92 666.22 2036.12 664.66L2058.44 656.38V647.92C2058.44 645.04 2057.54 642.7 2055.74 640.9C2054.06 638.98 2051.84 638.02 2049.08 638.02H2028.74V627.4H2050.34C2056.94 627.4 2062.16 629.38 2066 633.34C2069.96 637.18 2071.94 642.46 2071.94 649.18V721H2045.12ZM2058.44 710.02V667.72L2042.6 673.66C2039.48 674.86 2037.26 676.48 2035.94 678.52C2034.74 680.56 2034.14 683.8 2034.14 688.24V698.32C2034.14 701.56 2035.34 704.32 2037.74 706.6C2040.14 708.88 2043.02 710.02 2046.38 710.02H2058.44ZM2091.78 627.4H2102.94L2104.56 632.62L2111.94 630.46C2116.98 628.9 2120.94 627.82 2123.82 627.22C2126.82 626.5 2129.64 626.14 2132.28 626.14C2137.44 626.14 2141.04 628.42 2143.08 632.98C2146.44 631.78 2151.18 630.34 2157.3 628.66C2163.42 626.98 2167.92 626.14 2170.8 626.14C2175.12 626.14 2178.3 627.64 2180.34 630.64C2182.5 633.64 2183.58 637.54 2183.58 642.34V721H2169.18V647.02C2169.18 643.54 2168.94 641.14 2168.46 639.82C2167.98 638.38 2166.78 637.66 2164.86 637.66C2163.9 637.66 2157.3 639.58 2145.06 643.42V721H2130.66V647.02C2130.66 643.54 2130.42 641.14 2129.94 639.82C2129.46 638.38 2128.26 637.66 2126.34 637.66C2125.38 637.66 2118.66 639.58 2106.18 643.42V721H2091.78V627.4ZM2230.47 627.4H2259.63C2266.23 627.4 2271.81 629.56 2276.37 633.88C2281.05 638.2 2283.39 643.6 2283.39 650.08V698.5C2283.39 704.98 2281.11 710.38 2276.55 714.7C2271.99 718.9 2266.41 721 2259.81 721H2244.87V749.8H2230.47V627.4ZM2256.75 710.38C2260.11 710.38 2262.99 709.24 2265.39 706.96C2267.79 704.68 2268.99 701.86 2268.99 698.5V650.08C2268.99 646.72 2267.79 643.9 2265.39 641.62C2262.99 639.34 2260.11 638.2 2256.75 638.2H2244.87V710.38H2256.75ZM2300.43 627.4H2311.59L2313.21 634.06L2317.71 631.9C2321.55 629.98 2324.73 628.54 2327.25 627.58C2329.89 626.62 2332.53 626.14 2335.17 626.14V636.76C2333.61 636.76 2331.51 637.24 2328.87 638.2C2326.23 639.04 2321.55 641.08 2314.83 644.32V721H2300.43V627.4ZM2371.46 722.26C2363.06 722.26 2356.52 720.16 2351.84 715.96C2347.28 711.64 2345 705.7 2345 698.14V650.26C2345 642.7 2347.28 636.82 2351.84 632.62C2356.52 628.3 2363.06 626.14 2371.46 626.14C2379.86 626.14 2386.34 628.3 2390.9 632.62C2395.58 636.82 2397.92 642.7 2397.92 650.26V698.14C2397.92 705.7 2395.58 711.64 2390.9 715.96C2386.34 720.16 2379.86 722.26 2371.46 722.26ZM2371.46 711.1C2375.3 711.1 2378.3 710.02 2380.46 707.86C2382.74 705.58 2383.88 702.34 2383.88 698.14V650.26C2383.88 646.06 2382.74 642.88 2380.46 640.72C2378.3 638.44 2375.3 637.3 2371.46 637.3C2367.62 637.3 2364.56 638.44 2362.28 640.72C2360.12 642.88 2359.04 646.06 2359.04 650.26V698.14C2359.04 702.34 2360.12 705.58 2362.28 707.86C2364.56 710.02 2367.62 711.1 2371.46 711.1ZM2415.92 627.4H2427.08L2428.7 632.62L2436.08 630.46C2441.12 628.9 2445.08 627.82 2447.96 627.22C2450.96 626.5 2453.78 626.14 2456.42 626.14C2461.58 626.14 2465.18 628.42 2467.22 632.98C2470.58 631.78 2475.32 630.34 2481.44 628.66C2487.56 626.98 2492.06 626.14 2494.94 626.14C2499.26 626.14 2502.44 627.64 2504.48 630.64C2506.64 633.64 2507.72 637.54 2507.72 642.34V721H2493.32V647.02C2493.32 643.54 2493.08 641.14 2492.6 639.82C2492.12 638.38 2490.92 637.66 2489 637.66C2488.04 637.66 2481.44 639.58 2469.2 643.42V721H2454.8V647.02C2454.8 643.54 2454.56 641.14 2454.08 639.82C2453.6 638.38 2452.4 637.66 2450.48 637.66C2449.52 637.66 2442.8 639.58 2430.32 643.42V721H2415.92V627.4ZM2550.4 722.26C2542 722.26 2535.46 720.16 2530.78 715.96C2526.22 711.64 2523.94 705.7 2523.94 698.14V650.26C2523.94 642.7 2526.22 636.82 2530.78 632.62C2535.46 628.3 2542 626.14 2550.4 626.14C2558.8 626.14 2565.28 628.3 2569.84 632.62C2574.52 636.82 2576.86 642.7 2576.86 650.26V698.14C2576.86 705.7 2574.52 711.64 2569.84 715.96C2565.28 720.16 2558.8 722.26 2550.4 722.26ZM2550.4 711.1C2554.24 711.1 2557.24 710.02 2559.4 707.86C2561.68 705.58 2562.82 702.34 2562.82 698.14V650.26C2562.82 646.06 2561.68 642.88 2559.4 640.72C2557.24 638.44 2554.24 637.3 2550.4 637.3C2546.56 637.3 2543.5 638.44 2541.22 640.72C2539.06 642.88 2537.98 646.06 2537.98 650.26V698.14C2537.98 702.34 2539.06 705.58 2541.22 707.86C2543.5 710.02 2546.56 711.1 2550.4 711.1ZM2608.19 721L2586.77 627.4H2601.71L2615.57 702.82L2629.25 627.4H2644.19L2622.77 721H2608.19ZM2657.62 612.1V597.7H2672.02V612.1H2657.62ZM2657.62 721V627.4H2672.02V721H2657.62ZM2717.42 721C2709.86 721 2703.74 718.78 2699.06 714.34C2694.38 709.9 2692.04 703.96 2692.04 696.52V651.7C2692.04 646.54 2693.42 642.16 2696.18 638.56C2699.06 634.96 2702.6 632.5 2706.8 631.18L2730.92 622.72V595H2745.32V721H2717.42ZM2730.92 710.2V634.6L2714.9 640C2711.78 640.96 2709.56 642.52 2708.24 644.68C2707.04 646.72 2706.44 650.02 2706.44 654.58V696.52C2706.44 700.84 2707.7 704.2 2710.22 706.6C2712.74 709 2716.16 710.2 2720.48 710.2H2730.92ZM2789.82 722.26C2781.42 722.26 2774.88 720.16 2770.2 715.96C2765.64 711.64 2763.36 705.7 2763.36 698.14V650.26C2763.36 642.7 2765.64 636.82 2770.2 632.62C2774.88 628.3 2781.42 626.14 2789.82 626.14C2798.22 626.14 2804.7 628.3 2809.26 632.62C2813.94 636.82 2816.28 642.7 2816.28 650.26V698.14C2816.28 705.7 2813.94 711.64 2809.26 715.96C2804.7 720.16 2798.22 722.26 2789.82 722.26ZM2789.82 711.1C2793.66 711.1 2796.66 710.02 2798.82 707.86C2801.1 705.58 2802.24 702.34 2802.24 698.14V650.26C2802.24 646.06 2801.1 642.88 2798.82 640.72C2796.66 638.44 2793.66 637.3 2789.82 637.3C2785.98 637.3 2782.92 638.44 2780.64 640.72C2778.48 642.88 2777.4 646.06 2777.4 650.26V698.14C2777.4 702.34 2778.48 705.58 2780.64 707.86C2782.92 710.02 2785.98 711.1 2789.82 711.1ZM2828.88 710.2H2844.18C2849.34 710.2 2853.06 708.82 2855.34 706.06C2857.74 703.18 2858.94 699.46 2858.94 694.9C2858.94 691.3 2857.86 688.24 2855.7 685.72C2853.54 683.2 2850.3 680.26 2845.98 676.9C2842.26 673.9 2839.26 671.32 2836.98 669.16C2834.82 666.88 2832.9 664.12 2831.22 660.88C2829.66 657.52 2828.88 653.68 2828.88 649.36C2828.88 643 2830.98 637.78 2835.18 633.7C2839.5 629.5 2845.26 627.4 2852.46 627.4H2868.12V638.2H2855.16C2846.64 638.2 2842.38 642.22 2842.38 650.26C2842.38 653.38 2843.34 656.08 2845.26 658.36C2847.18 660.64 2850.18 663.34 2854.26 666.46C2857.98 669.34 2861.04 671.98 2863.44 674.38C2865.84 676.66 2867.88 679.6 2869.56 683.2C2871.24 686.68 2872.08 690.82 2872.08 695.62C2872.08 704.14 2869.8 710.5 2865.24 714.7C2860.8 718.9 2854.5 721 2846.34 721H2828.88V710.2ZM456.6 921C450 921 444.72 919.02 440.76 915.06C436.92 911.1 435 905.76 435 899.04V851.16C435 843.6 436.98 837.78 440.94 833.7C444.9 829.5 450.66 827.4 458.22 827.4H478.2V838.2H458.58C455.82 838.2 453.6 839.16 451.92 841.08C450.24 842.88 449.4 845.22 449.4 848.1V900.3C449.4 903.18 450.24 905.58 451.92 907.5C453.72 909.3 456 910.2 458.76 910.2H478.2V921H456.6ZM513.625 922.26C505.225 922.26 498.685 920.16 494.005 915.96C489.445 911.64 487.165 905.7 487.165 898.14V850.26C487.165 842.7 489.445 836.82 494.005 832.62C498.685 828.3 505.225 826.14 513.625 826.14C522.025 826.14 528.505 828.3 533.065 832.62C537.745 836.82 540.085 842.7 540.085 850.26V898.14C540.085 905.7 537.745 911.64 533.065 915.96C528.505 920.16 522.025 922.26 513.625 922.26ZM513.625 911.1C517.465 911.1 520.465 910.02 522.625 907.86C524.905 905.58 526.045 902.34 526.045 898.14V850.26C526.045 846.06 524.905 842.88 522.625 840.72C520.465 838.44 517.465 837.3 513.625 837.3C509.785 837.3 506.725 838.44 504.445 840.72C502.285 842.88 501.205 846.06 501.205 850.26V898.14C501.205 902.34 502.285 905.58 504.445 907.86C506.725 910.02 509.785 911.1 513.625 911.1ZM558.089 827.4H569.249L570.869 832.62L578.249 830.46C583.289 828.9 587.249 827.82 590.129 827.22C593.129 826.5 595.949 826.14 598.589 826.14C603.749 826.14 607.349 828.42 609.389 832.98C612.749 831.78 617.489 830.34 623.609 828.66C629.729 826.98 634.229 826.14 637.109 826.14C641.429 826.14 644.609 827.64 646.649 830.64C648.809 833.64 649.889 837.54 649.889 842.34V921H635.489V847.02C635.489 843.54 635.249 841.14 634.769 839.82C634.289 838.38 633.089 837.66 631.169 837.66C630.209 837.66 623.609 839.58 611.369 843.42V921H596.969V847.02C596.969 843.54 596.729 841.14 596.249 839.82C595.769 838.38 594.569 837.66 592.649 837.66C591.689 837.66 584.969 839.58 572.489 843.42V921H558.089V827.4ZM692.57 922.26C684.17 922.26 677.63 920.16 672.95 915.96C668.39 911.64 666.11 905.7 666.11 898.14V850.26C666.11 842.7 668.39 836.82 672.95 832.62C677.63 828.3 684.17 826.14 692.57 826.14C700.97 826.14 707.45 828.3 712.01 832.62C716.69 836.82 719.03 842.7 719.03 850.26V898.14C719.03 905.7 716.69 911.64 712.01 915.96C707.45 920.16 700.97 922.26 692.57 922.26ZM692.57 911.1C696.41 911.1 699.41 910.02 701.57 907.86C703.85 905.58 704.99 902.34 704.99 898.14V850.26C704.99 846.06 703.85 842.88 701.57 840.72C699.41 838.44 696.41 837.3 692.57 837.3C688.73 837.3 685.67 838.44 683.39 840.72C681.23 842.88 680.15 846.06 680.15 850.26V898.14C680.15 902.34 681.23 905.58 683.39 907.86C685.67 910.02 688.73 911.1 692.57 911.1ZM764.105 812.1V797.7H778.505V812.1H764.105ZM764.105 921V827.4H778.505V921H764.105ZM800.14 827.4H811.3L812.92 832.62L820.3 830.46C825.34 828.9 829.3 827.82 832.18 827.22C835.18 826.5 838 826.14 840.64 826.14C844.96 826.14 848.14 827.64 850.18 830.64C852.22 833.64 853.24 837.54 853.24 842.34V921H838.84V847.02C838.84 843.54 838.6 841.14 838.12 839.82C837.64 838.38 836.44 837.66 834.52 837.66C833.56 837.66 826.9 839.58 814.54 843.42V921H800.14V827.4ZM867.865 910.2H883.165C888.325 910.2 892.045 908.82 894.325 906.06C896.725 903.18 897.925 899.46 897.925 894.9C897.925 891.3 896.845 888.24 894.685 885.72C892.525 883.2 889.285 880.26 884.965 876.9C881.245 873.9 878.245 871.32 875.965 869.16C873.805 866.88 871.885 864.12 870.205 860.88C868.645 857.52 867.865 853.68 867.865 849.36C867.865 843 869.965 837.78 874.165 833.7C878.485 829.5 884.245 827.4 891.445 827.4H907.105V838.2H894.145C885.625 838.2 881.365 842.22 881.365 850.26C881.365 853.38 882.325 856.08 884.245 858.36C886.165 860.64 889.165 863.34 893.245 866.46C896.965 869.34 900.025 871.98 902.425 874.38C904.825 876.66 906.865 879.6 908.545 883.2C910.225 886.68 911.065 890.82 911.065 895.62C911.065 904.14 908.785 910.5 904.225 914.7C899.785 918.9 893.485 921 885.325 921H867.865V910.2ZM953.33 921C946.73 921 941.51 919.02 937.67 915.06C933.83 911.1 931.91 905.76 931.91 899.04V838.2H921.11V827.4H931.91V800.22L946.31 794.82V827.4H960.71V838.2H946.31V900.3C946.31 903.18 947.09 905.58 948.65 907.5C950.33 909.3 952.55 910.2 955.31 910.2H960.71V921H953.33ZM975.042 827.4H986.202L987.822 834.06L992.322 831.9C996.162 829.98 999.342 828.54 1001.86 827.58C1004.5 826.62 1007.14 826.14 1009.78 826.14V836.76C1008.22 836.76 1006.12 837.24 1003.48 838.2C1000.84 839.04 996.162 841.08 989.442 844.32V921H975.042V827.4ZM1034.19 922.26C1029.87 922.26 1026.63 920.76 1024.47 917.76C1022.43 914.76 1021.41 910.86 1021.41 906.06V827.4H1035.81V901.38C1035.81 904.74 1036.05 907.14 1036.53 908.58C1037.01 910.02 1038.15 910.74 1039.95 910.74C1040.79 910.74 1047.57 908.94 1060.29 905.34V827.4H1074.69V921H1064.43L1061.73 914.88C1059.81 915.6 1058.37 916.08 1057.41 916.32C1051.77 918.36 1047.21 919.86 1043.73 920.82C1040.25 921.78 1037.07 922.26 1034.19 922.26ZM1096.33 827.4H1107.49L1109.11 832.62L1116.49 830.46C1121.53 828.9 1125.49 827.82 1128.37 827.22C1131.37 826.5 1134.19 826.14 1136.83 826.14C1141.99 826.14 1145.59 828.42 1147.63 832.98C1150.99 831.78 1155.73 830.34 1161.85 828.66C1167.97 826.98 1172.47 826.14 1175.35 826.14C1179.67 826.14 1182.85 827.64 1184.89 830.64C1187.05 833.64 1188.13 837.54 1188.13 842.34V921H1173.73V847.02C1173.73 843.54 1173.49 841.14 1173.01 839.82C1172.53 838.38 1171.33 837.66 1169.41 837.66C1168.45 837.66 1161.85 839.58 1149.61 843.42V921H1135.21V847.02C1135.21 843.54 1134.97 841.14 1134.49 839.82C1134.01 838.38 1132.81 837.66 1130.89 837.66C1129.93 837.66 1123.21 839.58 1110.73 843.42V921H1096.33V827.4ZM1226.67 921C1220.07 921 1214.79 919.02 1210.83 915.06C1206.99 911.1 1205.07 905.76 1205.07 899.04V851.16C1205.07 843.36 1207.23 837.24 1211.55 832.8C1215.87 828.36 1222.29 826.14 1230.81 826.14C1239.33 826.14 1245.69 828.36 1249.89 832.8C1254.21 837.24 1256.37 843.36 1256.37 851.16V859.44C1256.37 864.48 1254.93 868.32 1252.05 870.96C1249.17 873.48 1245.39 875.4 1240.71 876.72L1219.47 882.66V900.3C1219.47 903.18 1220.31 905.58 1221.99 907.5C1223.79 909.3 1226.07 910.2 1228.83 910.2H1248.27V921H1226.67ZM1230.45 868.26C1234.41 867.18 1237.05 866.4 1238.37 865.92C1239.81 865.32 1240.77 864.48 1241.25 863.4C1241.73 862.32 1241.97 860.52 1241.97 858V848.1C1241.97 844.26 1240.95 841.44 1238.91 839.64C1236.99 837.84 1234.29 836.94 1230.81 836.94C1227.45 836.94 1224.69 837.9 1222.53 839.82C1220.49 841.74 1219.47 844.5 1219.47 848.1V871.32L1230.45 868.26ZM1270.71 827.4H1281.87L1283.49 832.62L1290.87 830.46C1295.91 828.9 1299.87 827.82 1302.75 827.22C1305.75 826.5 1308.57 826.14 1311.21 826.14C1315.53 826.14 1318.71 827.64 1320.75 830.64C1322.79 833.64 1323.81 837.54 1323.81 842.34V921H1309.41V847.02C1309.41 843.54 1309.17 841.14 1308.69 839.82C1308.21 838.38 1307.01 837.66 1305.09 837.66C1304.13 837.66 1297.47 839.58 1285.11 843.42V921H1270.71V827.4ZM1369.93 921C1363.33 921 1358.11 919.02 1354.27 915.06C1350.43 911.1 1348.51 905.76 1348.51 899.04V838.2H1337.71V827.4H1348.51V800.22L1362.91 794.82V827.4H1377.31V838.2H1362.91V900.3C1362.91 903.18 1363.69 905.58 1365.25 907.5C1366.93 909.3 1369.15 910.2 1371.91 910.2H1377.31V921H1369.93ZM1414.5 922.26C1406.1 922.26 1399.56 920.16 1394.88 915.96C1390.32 911.64 1388.04 905.7 1388.04 898.14V850.26C1388.04 842.7 1390.32 836.82 1394.88 832.62C1399.56 828.3 1406.1 826.14 1414.5 826.14C1422.9 826.14 1429.38 828.3 1433.94 832.62C1438.62 836.82 1440.96 842.7 1440.96 850.26V898.14C1440.96 905.7 1438.62 911.64 1433.94 915.96C1429.38 920.16 1422.9 922.26 1414.5 922.26ZM1414.5 911.1C1418.34 911.1 1421.34 910.02 1423.5 907.86C1425.78 905.58 1426.92 902.34 1426.92 898.14V850.26C1426.92 846.06 1425.78 842.88 1423.5 840.72C1421.34 838.44 1418.34 837.3 1414.5 837.3C1410.66 837.3 1407.6 838.44 1405.32 840.72C1403.16 842.88 1402.08 846.06 1402.08 850.26V898.14C1402.08 902.34 1403.16 905.58 1405.32 907.86C1407.6 910.02 1410.66 911.1 1414.5 911.1ZM1453.57 910.2H1468.87C1474.03 910.2 1477.75 908.82 1480.03 906.06C1482.43 903.18 1483.63 899.46 1483.63 894.9C1483.63 891.3 1482.55 888.24 1480.39 885.72C1478.23 883.2 1474.99 880.26 1470.67 876.9C1466.95 873.9 1463.95 871.32 1461.67 869.16C1459.51 866.88 1457.59 864.12 1455.91 860.88C1454.35 857.52 1453.57 853.68 1453.57 849.36C1453.57 843 1455.67 837.78 1459.87 833.7C1464.19 829.5 1469.95 827.4 1477.15 827.4H1492.81V838.2H1479.85C1471.33 838.2 1467.07 842.22 1467.07 850.26C1467.07 853.38 1468.03 856.08 1469.95 858.36C1471.87 860.64 1474.87 863.34 1478.95 866.46C1482.67 869.34 1485.73 871.98 1488.13 874.38C1490.53 876.66 1492.57 879.6 1494.25 883.2C1495.93 886.68 1496.77 890.82 1496.77 895.62C1496.77 904.14 1494.49 910.5 1489.93 914.7C1485.49 918.9 1479.19 921 1471.03 921H1453.57V910.2ZM1563.76 921C1556.2 921 1550.08 918.78 1545.4 914.34C1540.72 909.9 1538.38 903.96 1538.38 896.52V851.7C1538.38 846.54 1539.76 842.16 1542.52 838.56C1545.4 834.96 1548.94 832.5 1553.14 831.18L1577.26 822.72V795H1591.66V921H1563.76ZM1577.26 910.2V834.6L1561.24 840C1558.12 840.96 1555.9 842.52 1554.58 844.68C1553.38 846.72 1552.78 850.02 1552.78 854.58V896.52C1552.78 900.84 1554.04 904.2 1556.56 906.6C1559.08 909 1562.5 910.2 1566.82 910.2H1577.26ZM1632.02 921C1625.42 921 1620.14 919.02 1616.18 915.06C1612.34 911.1 1610.42 905.76 1610.42 899.04V851.16C1610.42 843.36 1612.58 837.24 1616.9 832.8C1621.22 828.36 1627.64 826.14 1636.16 826.14C1644.68 826.14 1651.04 828.36 1655.24 832.8C1659.56 837.24 1661.72 843.36 1661.72 851.16V859.44C1661.72 864.48 1660.28 868.32 1657.4 870.96C1654.52 873.48 1650.74 875.4 1646.06 876.72L1624.82 882.66V900.3C1624.82 903.18 1625.66 905.58 1627.34 907.5C1629.14 909.3 1631.42 910.2 1634.18 910.2H1653.62V921H1632.02ZM1635.8 868.26C1639.76 867.18 1642.4 866.4 1643.72 865.92C1645.16 865.32 1646.12 864.48 1646.6 863.4C1647.08 862.32 1647.32 860.52 1647.32 858V848.1C1647.32 844.26 1646.3 841.44 1644.26 839.64C1642.34 837.84 1639.64 836.94 1636.16 836.94C1632.8 836.94 1630.04 837.9 1627.88 839.82C1625.84 841.74 1624.82 844.5 1624.82 848.1V871.32L1635.8 868.26ZM1729.23 921C1722.63 921 1717.41 919.02 1713.57 915.06C1709.73 911.1 1707.81 905.76 1707.81 899.04V838.2H1697.01V827.4H1707.81V800.22L1722.21 794.82V827.4H1736.61V838.2H1722.21V900.3C1722.21 903.18 1722.99 905.58 1724.55 907.5C1726.23 909.3 1728.45 910.2 1731.21 910.2H1736.61V921H1729.23ZM1750.94 827.4H1762.1L1763.72 834.06L1768.22 831.9C1772.06 829.98 1775.24 828.54 1777.76 827.58C1780.4 826.62 1783.04 826.14 1785.68 826.14V836.76C1784.12 836.76 1782.02 837.24 1779.38 838.2C1776.74 839.04 1772.06 841.08 1765.34 844.32V921H1750.94V827.4ZM1818.18 921C1813.86 921 1809.84 919.92 1806.12 917.76C1802.52 915.6 1799.64 912.66 1797.48 908.94C1795.44 905.22 1794.42 901.02 1794.42 896.34V886.98C1794.42 881.34 1795.8 876.6 1798.56 872.76C1801.44 868.92 1804.98 866.22 1809.18 864.66L1831.5 856.38V847.92C1831.5 845.04 1830.6 842.7 1828.8 840.9C1827.12 838.98 1824.9 838.02 1822.14 838.02H1801.8V827.4H1823.4C1830 827.4 1835.22 829.38 1839.06 833.34C1843.02 837.18 1845 842.46 1845 849.18V921H1818.18ZM1831.5 910.02V867.72L1815.66 873.66C1812.54 874.86 1810.32 876.48 1809 878.52C1807.8 880.56 1807.2 883.8 1807.2 888.24V898.32C1807.2 901.56 1808.4 904.32 1810.8 906.6C1813.2 908.88 1816.08 910.02 1819.44 910.02H1831.5ZM1864.85 795H1879.25V823.08L1903.37 831.54C1907.57 832.98 1911.05 835.5 1913.81 839.1C1916.69 842.58 1918.13 846.9 1918.13 852.06V898.32C1918.13 904.8 1915.85 910.2 1911.29 914.52C1906.73 918.84 1901.15 921 1894.55 921H1864.85V795ZM1891.49 910.2C1894.85 910.2 1897.73 909.06 1900.13 906.78C1902.53 904.5 1903.73 901.68 1903.73 898.32V854.94C1903.73 850.38 1903.07 847.08 1901.75 845.04C1900.55 842.88 1898.39 841.32 1895.27 840.36L1879.25 834.96V910.2H1891.49ZM1954.24 921C1949.92 921 1945.9 919.92 1942.18 917.76C1938.58 915.6 1935.7 912.66 1933.54 908.94C1931.5 905.22 1930.48 901.02 1930.48 896.34V886.98C1930.48 881.34 1931.86 876.6 1934.62 872.76C1937.5 868.92 1941.04 866.22 1945.24 864.66L1967.56 856.38V847.92C1967.56 845.04 1966.66 842.7 1964.86 840.9C1963.18 838.98 1960.96 838.02 1958.2 838.02H1937.86V827.4H1959.46C1966.06 827.4 1971.28 829.38 1975.12 833.34C1979.08 837.18 1981.06 842.46 1981.06 849.18V921H1954.24ZM1967.56 910.02V867.72L1951.72 873.66C1948.6 874.86 1946.38 876.48 1945.06 878.52C1943.86 880.56 1943.26 883.8 1943.26 888.24V898.32C1943.26 901.56 1944.46 904.32 1946.86 906.6C1949.26 908.88 1952.14 910.02 1955.5 910.02H1967.56ZM2001.08 921V795H2015.48V921H2001.08ZM2036.94 795H2051.34V832.26L2059.26 829.92C2064.18 828.48 2067.78 827.52 2070.06 827.04C2072.46 826.44 2074.92 826.14 2077.44 826.14C2081.76 826.14 2084.94 827.64 2086.98 830.64C2089.02 833.64 2090.04 837.54 2090.04 842.34V921H2075.64V847.02C2075.64 843.54 2075.4 841.14 2074.92 839.82C2074.44 838.38 2073.24 837.66 2071.32 837.66C2070.36 837.66 2063.7 839.58 2051.34 843.42V921H2036.94V795ZM2134.68 922.26C2126.28 922.26 2119.74 920.16 2115.06 915.96C2110.5 911.64 2108.22 905.7 2108.22 898.14V850.26C2108.22 842.7 2110.5 836.82 2115.06 832.62C2119.74 828.3 2126.28 826.14 2134.68 826.14C2143.08 826.14 2149.56 828.3 2154.12 832.62C2158.8 836.82 2161.14 842.7 2161.14 850.26V898.14C2161.14 905.7 2158.8 911.64 2154.12 915.96C2149.56 920.16 2143.08 922.26 2134.68 922.26ZM2134.68 911.1C2138.52 911.1 2141.52 910.02 2143.68 907.86C2145.96 905.58 2147.1 902.34 2147.1 898.14V850.26C2147.1 846.06 2145.96 842.88 2143.68 840.72C2141.52 838.44 2138.52 837.3 2134.68 837.3C2130.84 837.3 2127.78 838.44 2125.5 840.72C2123.34 842.88 2122.26 846.06 2122.26 850.26V898.14C2122.26 902.34 2123.34 905.58 2125.5 907.86C2127.78 910.02 2130.84 911.1 2134.68 911.1ZM2175.72 921V902.46H2190.12V921H2175.72ZM2207.01 921V902.46H2221.41V921H2207.01ZM2238.3 921V902.46H2252.7V921H2238.3Z" fill="#34D320"/>
</svg>
