<svg width="3745" height="1780" viewBox="0 0 3745 1780" fill="none" xmlns="http://www.w3.org/2000/svg">
<path d="M437.34 721V595H461.28L485.4 669.52H486.66L511.32 595H534.36V721H518.52V613.9L494.4 687.52H477.3L453.18 613.72V721H437.34ZM575.587 721C571.267 721 567.247 719.92 563.527 717.76C559.927 715.6 557.047 712.66 554.887 708.94C552.847 705.22 551.827 701.02 551.827 696.34V686.98C551.827 681.34 553.207 676.6 555.967 672.76C558.847 668.92 562.387 666.22 566.587 664.66L588.907 656.38V647.92C588.907 645.04 588.007 642.7 586.207 640.9C584.527 638.98 582.307 638.02 579.547 638.02H559.207V627.4H580.807C587.407 627.4 592.627 629.38 596.467 633.34C600.427 637.18 602.407 642.46 602.407 649.18V721H575.587ZM588.907 710.02V667.72L573.067 673.66C569.947 674.86 567.727 676.48 566.407 678.52C565.207 680.56 564.607 683.8 564.607 688.24V698.32C564.607 701.56 565.807 704.32 568.207 706.6C570.607 708.88 573.487 710.02 576.847 710.02H588.907ZM616.849 710.2H632.149C637.309 710.2 641.029 708.82 643.309 706.06C645.709 703.18 646.909 699.46 646.909 694.9C646.909 691.3 645.829 688.24 643.669 685.72C641.509 683.2 638.269 680.26 633.949 676.9C630.229 673.9 627.229 671.32 624.949 669.16C622.789 666.88 620.869 664.12 619.189 660.88C617.629 657.52 616.849 653.68 616.849 649.36C616.849 643 618.949 637.78 623.149 633.7C627.469 629.5 633.229 627.4 640.429 627.4H656.089V638.2H643.129C634.609 638.2 630.349 642.22 630.349 650.26C630.349 653.38 631.309 656.08 633.229 658.36C635.149 660.64 638.149 663.34 642.229 666.46C645.949 669.34 649.009 671.98 651.409 674.38C653.809 676.66 655.849 679.6 657.529 683.2C659.209 686.68 660.049 690.82 660.049 695.62C660.049 704.14 657.769 710.5 653.209 714.7C648.769 718.9 642.469 721 634.309 721H616.849V710.2ZM697.884 710.2H713.184C718.344 710.2 722.064 708.82 724.344 706.06C726.744 703.18 727.944 699.46 727.944 694.9C727.944 691.3 726.864 688.24 724.704 685.72C722.544 683.2 719.304 680.26 714.984 676.9C711.264 673.9 708.264 671.32 705.984 669.16C703.824 666.88 701.904 664.12 700.224 660.88C698.664 657.52 697.884 653.68 697.884 649.36C697.884 643 699.984 637.78 704.184 633.7C708.504 629.5 714.264 627.4 721.464 627.4H737.124V638.2H724.164C715.644 638.2 711.384 642.22 711.384 650.26C711.384 653.38 712.344 656.08 714.264 658.36C716.184 660.64 719.184 663.34 723.264 666.46C726.984 669.34 730.044 671.98 732.444 674.38C734.844 676.66 736.884 679.6 738.564 683.2C740.244 686.68 741.084 690.82 741.084 695.62C741.084 704.14 738.804 710.5 734.244 714.7C729.804 718.9 723.504 721 715.344 721H697.884V710.2ZM775.969 721C769.369 721 764.089 719.02 760.129 715.06C756.289 711.1 754.369 705.76 754.369 699.04V651.16C754.369 643.36 756.529 637.24 760.849 632.8C765.169 628.36 771.589 626.14 780.109 626.14C788.629 626.14 794.989 628.36 799.189 632.8C803.509 637.24 805.669 643.36 805.669 651.16V659.44C805.669 664.48 804.229 668.32 801.349 670.96C798.469 673.48 794.689 675.4 790.009 676.72L768.769 682.66V700.3C768.769 703.18 769.609 705.58 771.289 707.5C773.089 709.3 775.369 710.2 778.129 710.2H797.569V721H775.969ZM779.749 668.26C783.709 667.18 786.349 666.4 787.669 665.92C789.109 665.32 790.069 664.48 790.549 663.4C791.029 662.32 791.269 660.52 791.269 658V648.1C791.269 644.26 790.249 641.44 788.209 639.64C786.289 637.84 783.589 636.94 780.109 636.94C776.749 636.94 773.989 637.9 771.829 639.82C769.789 641.74 768.769 644.5 768.769 648.1V671.32L779.749 668.26ZM830.983 722.26C826.663 722.26 823.423 720.76 821.263 717.76C819.223 714.76 818.203 710.86 818.203 706.06V627.4H832.603V701.38C832.603 704.74 832.843 707.14 833.323 708.58C833.803 710.02 834.943 710.74 836.743 710.74C837.583 710.74 844.363 708.94 857.083 705.34V627.4H871.483V721H861.223L858.523 714.88C856.603 715.6 855.163 716.08 854.203 716.32C848.563 718.36 844.003 719.86 840.523 720.82C837.043 721.78 833.863 722.26 830.983 722.26ZM931.178 722.26C926.858 722.26 923.618 720.76 921.458 717.76C919.418 714.76 918.398 710.86 918.398 706.06V627.4H932.798V701.38C932.798 704.74 933.038 707.14 933.518 708.58C933.998 710.02 935.138 710.74 936.938 710.74C937.778 710.74 944.558 708.94 957.278 705.34V627.4H971.678V721H961.418L958.718 714.88C956.798 715.6 955.358 716.08 954.398 716.32C948.758 718.36 944.198 719.86 940.718 720.82C937.238 721.78 934.058 722.26 931.178 722.26ZM987.923 710.2H1003.22C1008.38 710.2 1012.1 708.82 1014.38 706.06C1016.78 703.18 1017.98 699.46 1017.98 694.9C1017.98 691.3 1016.9 688.24 1014.74 685.72C1012.58 683.2 1009.34 680.26 1005.02 676.9C1001.3 673.9 998.303 671.32 996.023 669.16C993.863 666.88 991.943 664.12 990.263 660.88C988.703 657.52 987.923 653.68 987.923 649.36C987.923 643 990.023 637.78 994.223 633.7C998.543 629.5 1004.3 627.4 1011.5 627.4H1027.16V638.2H1014.2C1005.68 638.2 1001.42 642.22 1001.42 650.26C1001.42 653.38 1002.38 656.08 1004.3 658.36C1006.22 660.64 1009.22 663.34 1013.3 666.46C1017.02 669.34 1020.08 671.98 1022.48 674.38C1024.88 676.66 1026.92 679.6 1028.6 683.2C1030.28 686.68 1031.12 690.82 1031.12 695.62C1031.12 704.14 1028.84 710.5 1024.28 714.7C1019.84 718.9 1013.54 721 1005.38 721H987.923V710.2ZM1070.15 722.26C1061.75 722.26 1055.21 720.16 1050.53 715.96C1045.97 711.64 1043.69 705.7 1043.69 698.14V650.26C1043.69 642.7 1045.97 636.82 1050.53 632.62C1055.21 628.3 1061.75 626.14 1070.15 626.14C1078.55 626.14 1085.03 628.3 1089.59 632.62C1094.27 636.82 1096.61 642.7 1096.61 650.26V698.14C1096.61 705.7 1094.27 711.64 1089.59 715.96C1085.03 720.16 1078.55 722.26 1070.15 722.26ZM1070.15 711.1C1073.99 711.1 1076.99 710.02 1079.15 707.86C1081.43 705.58 1082.57 702.34 1082.57 698.14V650.26C1082.57 646.06 1081.43 642.88 1079.15 640.72C1076.99 638.44 1073.99 637.3 1070.15 637.3C1066.31 637.3 1063.25 638.44 1060.97 640.72C1058.81 642.88 1057.73 646.06 1057.73 650.26V698.14C1057.73 702.34 1058.81 705.58 1060.97 707.86C1063.25 710.02 1066.31 711.1 1070.15 711.1ZM1141.68 627.4H1152.84L1154.46 632.62L1161.84 630.46C1166.88 628.9 1170.84 627.82 1173.72 627.22C1176.72 626.5 1179.54 626.14 1182.18 626.14C1187.34 626.14 1190.94 628.42 1192.98 632.98C1196.34 631.78 1201.08 630.34 1207.2 628.66C1213.32 626.98 1217.82 626.14 1220.7 626.14C1225.02 626.14 1228.2 627.64 1230.24 630.64C1232.4 633.64 1233.48 637.54 1233.48 642.34V721H1219.08V647.02C1219.08 643.54 1218.84 641.14 1218.36 639.82C1217.88 638.38 1216.68 637.66 1214.76 637.66C1213.8 637.66 1207.2 639.58 1194.96 643.42V721H1180.56V647.02C1180.56 643.54 1180.32 641.14 1179.84 639.82C1179.36 638.38 1178.16 637.66 1176.24 637.66C1175.28 637.66 1168.56 639.58 1156.08 643.42V721H1141.68V627.4ZM1272.38 721C1268.06 721 1264.04 719.92 1260.32 717.76C1256.72 715.6 1253.84 712.66 1251.68 708.94C1249.64 705.22 1248.62 701.02 1248.62 696.34V686.98C1248.62 681.34 1250 676.6 1252.76 672.76C1255.64 668.92 1259.18 666.22 1263.38 664.66L1285.7 656.38V647.92C1285.7 645.04 1284.8 642.7 1283 640.9C1281.32 638.98 1279.1 638.02 1276.34 638.02H1256V627.4H1277.6C1284.2 627.4 1289.42 629.38 1293.26 633.34C1297.22 637.18 1299.2 642.46 1299.2 649.18V721H1272.38ZM1285.7 710.02V667.72L1269.86 673.66C1266.74 674.86 1264.52 676.48 1263.2 678.52C1262 680.56 1261.4 683.8 1261.4 688.24V698.32C1261.4 701.56 1262.6 704.32 1265 706.6C1267.4 708.88 1270.28 710.02 1273.64 710.02H1285.7ZM1322.29 612.1V597.7H1336.69V612.1H1322.29ZM1309.15 739H1313.47C1316.23 739 1318.39 738.04 1319.95 736.12C1321.63 734.32 1322.47 731.98 1322.47 729.1V627.4H1336.87V727.84C1336.87 734.56 1334.95 739.9 1331.11 743.86C1327.27 747.82 1322.05 749.8 1315.45 749.8H1309.15V739ZM1381.28 722.26C1372.88 722.26 1366.34 720.16 1361.66 715.96C1357.1 711.64 1354.82 705.7 1354.82 698.14V650.26C1354.82 642.7 1357.1 636.82 1361.66 632.62C1366.34 628.3 1372.88 626.14 1381.28 626.14C1389.68 626.14 1396.16 628.3 1400.72 632.62C1405.4 636.82 1407.74 642.7 1407.74 650.26V698.14C1407.74 705.7 1405.4 711.64 1400.72 715.96C1396.16 720.16 1389.68 722.26 1381.28 722.26ZM1381.28 711.1C1385.12 711.1 1388.12 710.02 1390.28 707.86C1392.56 705.58 1393.7 702.34 1393.7 698.14V650.26C1393.7 646.06 1392.56 642.88 1390.28 640.72C1388.12 638.44 1385.12 637.3 1381.28 637.3C1377.44 637.3 1374.38 638.44 1372.1 640.72C1369.94 642.88 1368.86 646.06 1368.86 650.26V698.14C1368.86 702.34 1369.94 705.58 1372.1 707.86C1374.38 710.02 1377.44 711.1 1381.28 711.1ZM1425.75 627.4H1436.91L1438.53 634.06L1443.03 631.9C1446.87 629.98 1450.05 628.54 1452.57 627.58C1455.21 626.62 1457.85 626.14 1460.49 626.14V636.76C1458.93 636.76 1456.83 637.24 1454.19 638.2C1451.55 639.04 1446.87 641.08 1440.15 644.32V721H1425.75V627.4ZM1473.91 612.1V597.7H1488.31V612.1H1473.91ZM1473.91 721V627.4H1488.31V721H1473.91ZM1536.04 721C1529.44 721 1524.22 719.02 1520.38 715.06C1516.54 711.1 1514.62 705.76 1514.62 699.04V638.2H1503.82V627.4H1514.62V600.22L1529.02 594.82V627.4H1543.42V638.2H1529.02V700.3C1529.02 703.18 1529.8 705.58 1531.36 707.5C1533.04 709.3 1535.26 710.2 1538.02 710.2H1543.42V721H1536.04ZM1576.84 721C1572.52 721 1568.5 719.92 1564.78 717.76C1561.18 715.6 1558.3 712.66 1556.14 708.94C1554.1 705.22 1553.08 701.02 1553.08 696.34V686.98C1553.08 681.34 1554.46 676.6 1557.22 672.76C1560.1 668.92 1563.64 666.22 1567.84 664.66L1590.16 656.38V647.92C1590.16 645.04 1589.26 642.7 1587.46 640.9C1585.78 638.98 1583.56 638.02 1580.8 638.02H1560.46V627.4H1582.06C1588.66 627.4 1593.88 629.38 1597.72 633.34C1601.68 637.18 1603.66 642.46 1603.66 649.18V721H1576.84ZM1590.16 710.02V667.72L1574.32 673.66C1571.2 674.86 1568.98 676.48 1567.66 678.52C1566.46 680.56 1565.86 683.8 1565.86 688.24V698.32C1565.86 701.56 1567.06 704.32 1569.46 706.6C1571.86 708.88 1574.74 710.02 1578.1 710.02H1590.16ZM1575.04 620.38L1569.1 614.98L1589.98 597.16L1599.16 605.62L1575.04 620.38ZM1623.5 627.4H1634.66L1636.28 634.06L1640.78 631.9C1644.62 629.98 1647.8 628.54 1650.32 627.58C1652.96 626.62 1655.6 626.14 1658.24 626.14V636.76C1656.68 636.76 1654.58 637.24 1651.94 638.2C1649.3 639.04 1644.62 641.08 1637.9 644.32V721H1623.5V627.4ZM1671.66 612.1V597.7H1686.06V612.1H1671.66ZM1671.66 721V627.4H1686.06V721H1671.66ZM1730.56 722.26C1722.16 722.26 1715.62 720.16 1710.94 715.96C1706.38 711.64 1704.1 705.7 1704.1 698.14V650.26C1704.1 642.7 1706.38 636.82 1710.94 632.62C1715.62 628.3 1722.16 626.14 1730.56 626.14C1738.96 626.14 1745.44 628.3 1750 632.62C1754.68 636.82 1757.02 642.7 1757.02 650.26V698.14C1757.02 705.7 1754.68 711.64 1750 715.96C1745.44 720.16 1738.96 722.26 1730.56 722.26ZM1730.56 711.1C1734.4 711.1 1737.4 710.02 1739.56 707.86C1741.84 705.58 1742.98 702.34 1742.98 698.14V650.26C1742.98 646.06 1741.84 642.88 1739.56 640.72C1737.4 638.44 1734.4 637.3 1730.56 637.3C1726.72 637.3 1723.66 638.44 1721.38 640.72C1719.22 642.88 1718.14 646.06 1718.14 650.26V698.14C1718.14 702.34 1719.22 705.58 1721.38 707.86C1723.66 710.02 1726.72 711.1 1730.56 711.1ZM1821.17 721C1816.85 721 1812.83 719.92 1809.11 717.76C1805.51 715.6 1802.63 712.66 1800.47 708.94C1798.43 705.22 1797.41 701.02 1797.41 696.34V686.98C1797.41 681.34 1798.79 676.6 1801.55 672.76C1804.43 668.92 1807.97 666.22 1812.17 664.66L1834.49 656.38V647.92C1834.49 645.04 1833.59 642.7 1831.79 640.9C1830.11 638.98 1827.89 638.02 1825.13 638.02H1804.79V627.4H1826.39C1832.99 627.4 1838.21 629.38 1842.05 633.34C1846.01 637.18 1847.99 642.46 1847.99 649.18V721H1821.17ZM1834.49 710.02V667.72L1818.65 673.66C1815.53 674.86 1813.31 676.48 1811.99 678.52C1810.79 680.56 1810.19 683.8 1810.19 688.24V698.32C1810.19 701.56 1811.39 704.32 1813.79 706.6C1816.19 708.88 1819.07 710.02 1822.43 710.02H1834.49ZM1887.64 721C1881.04 721 1875.76 719.02 1871.8 715.06C1867.96 711.1 1866.04 705.76 1866.04 699.04V651.16C1866.04 643.6 1868.02 637.78 1871.98 633.7C1875.94 629.5 1881.7 627.4 1889.26 627.4H1909.24V638.2H1889.62C1886.86 638.2 1884.64 639.16 1882.96 641.08C1881.28 642.88 1880.44 645.22 1880.44 648.1V700.3C1880.44 703.18 1881.28 705.58 1882.96 707.5C1884.76 709.3 1887.04 710.2 1889.8 710.2H1909.24V721H1887.64ZM1940.88 721C1936.56 721 1932.54 719.92 1928.82 717.76C1925.22 715.6 1922.34 712.66 1920.18 708.94C1918.14 705.22 1917.12 701.02 1917.12 696.34V686.98C1917.12 681.34 1918.5 676.6 1921.26 672.76C1924.14 668.92 1927.68 666.22 1931.88 664.66L1954.2 656.38V647.92C1954.2 645.04 1953.3 642.7 1951.5 640.9C1949.82 638.98 1947.6 638.02 1944.84 638.02H1924.5V627.4H1946.1C1952.7 627.4 1957.92 629.38 1961.76 633.34C1965.72 637.18 1967.7 642.46 1967.7 649.18V721H1940.88ZM1954.2 710.02V667.72L1938.36 673.66C1935.24 674.86 1933.02 676.48 1931.7 678.52C1930.5 680.56 1929.9 683.8 1929.9 688.24V698.32C1929.9 701.56 1931.1 704.32 1933.5 706.6C1935.9 708.88 1938.78 710.02 1942.14 710.02H1954.2ZM1987.54 595H2001.94V623.08L2026.06 631.54C2030.26 632.98 2033.74 635.5 2036.5 639.1C2039.38 642.58 2040.82 646.9 2040.82 652.06V698.32C2040.82 704.8 2038.54 710.2 2033.98 714.52C2029.42 718.84 2023.84 721 2017.24 721H1987.54V595ZM2014.18 710.2C2017.54 710.2 2020.42 709.06 2022.82 706.78C2025.22 704.5 2026.42 701.68 2026.42 698.32V654.94C2026.42 650.38 2025.76 647.08 2024.44 645.04C2023.24 642.88 2021.08 641.32 2017.96 640.36L2001.94 634.96V710.2H2014.18ZM2076.93 721C2072.61 721 2068.59 719.92 2064.87 717.76C2061.27 715.6 2058.39 712.66 2056.23 708.94C2054.19 705.22 2053.17 701.02 2053.17 696.34V686.98C2053.17 681.34 2054.55 676.6 2057.31 672.76C2060.19 668.92 2063.73 666.22 2067.93 664.66L2090.25 656.38V647.92C2090.25 645.04 2089.35 642.7 2087.55 640.9C2085.87 638.98 2083.65 638.02 2080.89 638.02H2060.55V627.4H2082.15C2088.75 627.4 2093.97 629.38 2097.81 633.34C2101.77 637.18 2103.75 642.46 2103.75 649.18V721H2076.93ZM2090.25 710.02V667.72L2074.41 673.66C2071.29 674.86 2069.07 676.48 2067.75 678.52C2066.55 680.56 2065.95 683.8 2065.95 688.24V698.32C2065.95 701.56 2067.15 704.32 2069.55 706.6C2071.95 708.88 2074.83 710.02 2078.19 710.02H2090.25ZM2136.92 721L2115.5 627.4H2130.44L2144.3 702.82L2157.98 627.4H2172.92L2151.5 721H2136.92ZM2205.43 721C2201.11 721 2197.09 719.92 2193.37 717.76C2189.77 715.6 2186.89 712.66 2184.73 708.94C2182.69 705.22 2181.67 701.02 2181.67 696.34V686.98C2181.67 681.34 2183.05 676.6 2185.81 672.76C2188.69 668.92 2192.23 666.22 2196.43 664.66L2218.75 656.38V647.92C2218.75 645.04 2217.85 642.7 2216.05 640.9C2214.37 638.98 2212.15 638.02 2209.39 638.02H2189.05V627.4H2210.65C2217.25 627.4 2222.47 629.38 2226.31 633.34C2230.27 637.18 2232.25 642.46 2232.25 649.18V721H2205.43ZM2218.75 710.02V667.72L2202.91 673.66C2199.79 674.86 2197.57 676.48 2196.25 678.52C2195.05 680.56 2194.45 683.8 2194.45 688.24V698.32C2194.45 701.56 2195.65 704.32 2198.05 706.6C2200.45 708.88 2203.33 710.02 2206.69 710.02H2218.75ZM2273.76 710.2H2289.06C2294.22 710.2 2297.94 708.82 2300.22 706.06C2302.62 703.18 2303.82 699.46 2303.82 694.9C2303.82 691.3 2302.74 688.24 2300.58 685.72C2298.42 683.2 2295.18 680.26 2290.86 676.9C2287.14 673.9 2284.14 671.32 2281.86 669.16C2279.7 666.88 2277.78 664.12 2276.1 660.88C2274.54 657.52 2273.76 653.68 2273.76 649.36C2273.76 643 2275.86 637.78 2280.06 633.7C2284.38 629.5 2290.14 627.4 2297.34 627.4H2313V638.2H2300.04C2291.52 638.2 2287.26 642.22 2287.26 650.26C2287.26 653.38 2288.22 656.08 2290.14 658.36C2292.06 660.64 2295.06 663.34 2299.14 666.46C2302.86 669.34 2305.92 671.98 2308.32 674.38C2310.72 676.66 2312.76 679.6 2314.44 683.2C2316.12 686.68 2316.96 690.82 2316.96 695.62C2316.96 704.14 2314.68 710.5 2310.12 714.7C2305.68 718.9 2299.38 721 2291.22 721H2273.76V710.2ZM2351.85 721C2345.25 721 2339.97 719.02 2336.01 715.06C2332.17 711.1 2330.25 705.76 2330.25 699.04V651.16C2330.25 643.36 2332.41 637.24 2336.73 632.8C2341.05 628.36 2347.47 626.14 2355.99 626.14C2364.51 626.14 2370.87 628.36 2375.07 632.8C2379.39 637.24 2381.55 643.36 2381.55 651.16V659.44C2381.55 664.48 2380.11 668.32 2377.23 670.96C2374.35 673.48 2370.57 675.4 2365.89 676.72L2344.65 682.66V700.3C2344.65 703.18 2345.49 705.58 2347.17 707.5C2348.97 709.3 2351.25 710.2 2354.01 710.2H2373.45V721H2351.85ZM2355.63 668.26C2359.59 667.18 2362.23 666.4 2363.55 665.92C2364.99 665.32 2365.95 664.48 2366.43 663.4C2366.91 662.32 2367.15 660.52 2367.15 658V648.1C2367.15 644.26 2366.13 641.44 2364.09 639.64C2362.17 637.84 2359.47 636.94 2355.99 636.94C2352.63 636.94 2349.87 637.9 2347.71 639.82C2345.67 641.74 2344.65 644.5 2344.65 648.1V671.32L2355.63 668.26ZM2395.88 627.4H2407.04L2408.66 632.62L2416.04 630.46C2421.08 628.9 2425.04 627.82 2427.92 627.22C2430.92 626.5 2433.74 626.14 2436.38 626.14C2440.7 626.14 2443.88 627.64 2445.92 630.64C2447.96 633.64 2448.98 637.54 2448.98 642.34V721H2434.58V647.02C2434.58 643.54 2434.34 641.14 2433.86 639.82C2433.38 638.38 2432.18 637.66 2430.26 637.66C2429.3 637.66 2422.64 639.58 2410.28 643.42V721H2395.88V627.4ZM2492.77 721C2485.21 721 2479.09 718.78 2474.41 714.34C2469.73 709.9 2467.39 703.96 2467.39 696.52V651.7C2467.39 646.54 2468.77 642.16 2471.53 638.56C2474.41 634.96 2477.95 632.5 2482.15 631.18L2506.27 622.72V595H2520.67V721H2492.77ZM2506.27 710.2V634.6L2490.25 640C2487.13 640.96 2484.91 642.52 2483.59 644.68C2482.39 646.72 2481.79 650.02 2481.79 654.58V696.52C2481.79 700.84 2483.05 704.2 2485.57 706.6C2488.09 709 2491.51 710.2 2495.83 710.2H2506.27ZM2565.17 722.26C2556.77 722.26 2550.23 720.16 2545.55 715.96C2540.99 711.64 2538.71 705.7 2538.71 698.14V650.26C2538.71 642.7 2540.99 636.82 2545.55 632.62C2550.23 628.3 2556.77 626.14 2565.17 626.14C2573.57 626.14 2580.05 628.3 2584.61 632.62C2589.29 636.82 2591.63 642.7 2591.63 650.26V698.14C2591.63 705.7 2589.29 711.64 2584.61 715.96C2580.05 720.16 2573.57 722.26 2565.17 722.26ZM2565.17 711.1C2569.01 711.1 2572.01 710.02 2574.17 707.86C2576.45 705.58 2577.59 702.34 2577.59 698.14V650.26C2577.59 646.06 2576.45 642.88 2574.17 640.72C2572.01 638.44 2569.01 637.3 2565.17 637.3C2561.33 637.3 2558.27 638.44 2555.99 640.72C2553.83 642.88 2552.75 646.06 2552.75 650.26V698.14C2552.75 702.34 2553.83 705.58 2555.99 707.86C2558.27 710.02 2561.33 711.1 2565.17 711.1ZM2656.5 721C2649.9 721 2644.62 719.02 2640.66 715.06C2636.82 711.1 2634.9 705.76 2634.9 699.04V651.16C2634.9 643.6 2636.88 637.78 2640.84 633.7C2644.8 629.5 2650.56 627.4 2658.12 627.4H2678.1V638.2H2658.48C2655.72 638.2 2653.5 639.16 2651.82 641.08C2650.14 642.88 2649.3 645.22 2649.3 648.1V700.3C2649.3 703.18 2650.14 705.58 2651.82 707.5C2653.62 709.3 2655.9 710.2 2658.66 710.2H2678.1V721H2656.5ZM2713.53 722.26C2705.13 722.26 2698.59 720.16 2693.91 715.96C2689.35 711.64 2687.07 705.7 2687.07 698.14V650.26C2687.07 642.7 2689.35 636.82 2693.91 632.62C2698.59 628.3 2705.13 626.14 2713.53 626.14C2721.93 626.14 2728.41 628.3 2732.97 632.62C2737.65 636.82 2739.99 642.7 2739.99 650.26V698.14C2739.99 705.7 2737.65 711.64 2732.97 715.96C2728.41 720.16 2721.93 722.26 2713.53 722.26ZM2713.53 711.1C2717.37 711.1 2720.37 710.02 2722.53 707.86C2724.81 705.58 2725.95 702.34 2725.95 698.14V650.26C2725.95 646.06 2724.81 642.88 2722.53 640.72C2720.37 638.44 2717.37 637.3 2713.53 637.3C2709.69 637.3 2706.63 638.44 2704.35 640.72C2702.19 642.88 2701.11 646.06 2701.11 650.26V698.14C2701.11 702.34 2702.19 705.58 2704.35 707.86C2706.63 710.02 2709.69 711.1 2713.53 711.1ZM2757.99 627.4H2769.15L2770.77 632.62L2778.15 630.46C2783.19 628.9 2787.15 627.82 2790.03 627.22C2793.03 626.5 2795.85 626.14 2798.49 626.14C2803.65 626.14 2807.25 628.42 2809.29 632.98C2812.65 631.78 2817.39 630.34 2823.51 628.66C2829.63 626.98 2834.13 626.14 2837.01 626.14C2841.33 626.14 2844.51 627.64 2846.55 630.64C2848.71 633.64 2849.79 637.54 2849.79 642.34V721H2835.39V647.02C2835.39 643.54 2835.15 641.14 2834.67 639.82C2834.19 638.38 2832.99 637.66 2831.07 637.66C2830.11 637.66 2823.51 639.58 2811.27 643.42V721H2796.87V647.02C2796.87 643.54 2796.63 641.14 2796.15 639.82C2795.67 638.38 2794.47 637.66 2792.55 637.66C2791.59 637.66 2784.87 639.58 2772.39 643.42V721H2757.99V627.4ZM2892.47 722.26C2884.07 722.26 2877.53 720.16 2872.85 715.96C2868.29 711.64 2866.01 705.7 2866.01 698.14V650.26C2866.01 642.7 2868.29 636.82 2872.85 632.62C2877.53 628.3 2884.07 626.14 2892.47 626.14C2900.87 626.14 2907.35 628.3 2911.91 632.62C2916.59 636.82 2918.93 642.7 2918.93 650.26V698.14C2918.93 705.7 2916.59 711.64 2911.91 715.96C2907.35 720.16 2900.87 722.26 2892.47 722.26ZM2892.47 711.1C2896.31 711.1 2899.31 710.02 2901.47 707.86C2903.75 705.58 2904.89 702.34 2904.89 698.14V650.26C2904.89 646.06 2903.75 642.88 2901.47 640.72C2899.31 638.44 2896.31 637.3 2892.47 637.3C2888.63 637.3 2885.57 638.44 2883.29 640.72C2881.13 642.88 2880.05 646.06 2880.05 650.26V698.14C2880.05 702.34 2881.13 705.58 2883.29 707.86C2885.57 710.02 2888.63 711.1 2892.47 711.1ZM2974.99 722.26C2970.67 722.26 2967.43 720.76 2965.27 717.76C2963.23 714.76 2962.21 710.86 2962.21 706.06V627.4H2976.61V701.38C2976.61 704.74 2976.85 707.14 2977.33 708.58C2977.81 710.02 2978.95 710.74 2980.75 710.74C2981.59 710.74 2988.37 708.94 3001.09 705.34V627.4H3015.49V721H3005.23L3002.53 714.88C3000.61 715.6 2999.17 716.08 2998.21 716.32C2992.57 718.36 2988.01 719.86 2984.53 720.82C2981.05 721.78 2977.87 722.26 2974.99 722.26ZM3037.13 627.4H3048.29L3049.91 632.62L3057.29 630.46C3062.33 628.9 3066.29 627.82 3069.17 627.22C3072.17 626.5 3074.99 626.14 3077.63 626.14C3082.79 626.14 3086.39 628.42 3088.43 632.98C3091.79 631.78 3096.53 630.34 3102.65 628.66C3108.77 626.98 3113.27 626.14 3116.15 626.14C3120.47 626.14 3123.65 627.64 3125.69 630.64C3127.85 633.64 3128.93 637.54 3128.93 642.34V721H3114.53V647.02C3114.53 643.54 3114.29 641.14 3113.81 639.82C3113.33 638.38 3112.13 637.66 3110.21 637.66C3109.25 637.66 3102.65 639.58 3090.41 643.42V721H3076.01V647.02C3076.01 643.54 3075.77 641.14 3075.29 639.82C3074.81 638.38 3073.61 637.66 3071.69 637.66C3070.73 637.66 3064.01 639.58 3051.53 643.42V721H3037.13V627.4ZM450.12 921L428.7 827.4H443.64L457.5 902.82L471.18 827.4H486.12L464.7 921H450.12ZM499.554 812.1V797.7H513.954V812.1H499.554ZM499.554 921V827.4H513.954V921H499.554ZM559.349 921C551.789 921 545.669 918.78 540.989 914.34C536.309 909.9 533.969 903.96 533.969 896.52V851.7C533.969 846.54 535.349 842.16 538.109 838.56C540.989 834.96 544.529 832.5 548.729 831.18L572.849 822.72V795H587.249V921H559.349ZM572.849 910.2V834.6L556.829 840C553.709 840.96 551.489 842.52 550.169 844.68C548.969 846.72 548.369 850.02 548.369 854.58V896.52C548.369 900.84 549.629 904.2 552.149 906.6C554.669 909 558.089 910.2 562.409 910.2H572.849ZM627.61 921C621.01 921 615.73 919.02 611.77 915.06C607.93 911.1 606.01 905.76 606.01 899.04V851.16C606.01 843.36 608.17 837.24 612.49 832.8C616.81 828.36 623.23 826.14 631.75 826.14C640.27 826.14 646.63 828.36 650.83 832.8C655.15 837.24 657.31 843.36 657.31 851.16V859.44C657.31 864.48 655.87 868.32 652.99 870.96C650.11 873.48 646.33 875.4 641.65 876.72L620.41 882.66V900.3C620.41 903.18 621.25 905.58 622.93 907.5C624.73 909.3 627.01 910.2 629.77 910.2H649.21V921H627.61ZM631.39 868.26C635.35 867.18 637.99 866.4 639.31 865.92C640.75 865.32 641.71 864.48 642.19 863.4C642.67 862.32 642.91 860.52 642.91 858V848.1C642.91 844.26 641.89 841.44 639.85 839.64C637.93 837.84 635.23 836.94 631.75 836.94C628.39 836.94 625.63 837.9 623.47 839.82C621.43 841.74 620.41 844.5 620.41 848.1V871.32L631.39 868.26ZM694.504 922.26C686.104 922.26 679.564 920.16 674.884 915.96C670.324 911.64 668.044 905.7 668.044 898.14V850.26C668.044 842.7 670.324 836.82 674.884 832.62C679.564 828.3 686.104 826.14 694.504 826.14C702.904 826.14 709.384 828.3 713.944 832.62C718.624 836.82 720.964 842.7 720.964 850.26V898.14C720.964 905.7 718.624 911.64 713.944 915.96C709.384 920.16 702.904 922.26 694.504 922.26ZM694.504 911.1C698.344 911.1 701.344 910.02 703.504 907.86C705.784 905.58 706.924 902.34 706.924 898.14V850.26C706.924 846.06 705.784 842.88 703.504 840.72C701.344 838.44 698.344 837.3 694.504 837.3C690.664 837.3 687.604 838.44 685.324 840.72C683.164 842.88 682.084 846.06 682.084 850.26V898.14C682.084 902.34 683.164 905.58 685.324 907.86C687.604 910.02 690.664 911.1 694.504 911.1ZM746.528 939H765.068C767.828 939 769.988 938.04 771.548 936.12C773.228 934.32 774.068 931.98 774.068 929.1V921.18H759.128C752.528 921.18 746.948 919.02 742.388 914.7C737.828 910.38 735.548 904.98 735.548 898.5V850.08C735.548 843.6 737.828 838.2 742.388 833.88C747.068 829.56 752.708 827.4 759.308 827.4H788.648V927.84C788.648 934.56 786.788 939.9 783.068 943.86C779.468 947.82 774.368 949.8 767.768 949.8H746.528V939ZM774.248 910.38V838.2H762.188C758.828 838.2 755.948 839.34 753.548 841.62C751.148 843.9 749.948 846.72 749.948 850.08V898.5C749.948 901.86 751.148 904.68 753.548 906.96C755.948 909.24 758.828 910.38 762.188 910.38H774.248ZM827.482 921C823.162 921 819.142 919.92 815.422 917.76C811.822 915.6 808.942 912.66 806.782 908.94C804.742 905.22 803.722 901.02 803.722 896.34V886.98C803.722 881.34 805.102 876.6 807.862 872.76C810.742 868.92 814.282 866.22 818.482 864.66L840.802 856.38V847.92C840.802 845.04 839.902 842.7 838.102 840.9C836.422 838.98 834.202 838.02 831.442 838.02H811.102V827.4H832.702C839.302 827.4 844.522 829.38 848.362 833.34C852.322 837.18 854.302 842.46 854.302 849.18V921H827.482ZM840.802 910.02V867.72L824.962 873.66C821.842 874.86 819.622 876.48 818.302 878.52C817.102 880.56 816.502 883.8 816.502 888.24V898.32C816.502 901.56 817.702 904.32 820.102 906.6C822.502 908.88 825.382 910.02 828.742 910.02H840.802ZM874.144 827.4H885.304L886.924 832.62L894.304 830.46C899.344 828.9 903.304 827.82 906.184 827.22C909.184 826.5 912.004 826.14 914.644 826.14C919.804 826.14 923.404 828.42 925.444 832.98C928.804 831.78 933.544 830.34 939.664 828.66C945.784 826.98 950.284 826.14 953.164 826.14C957.484 826.14 960.664 827.64 962.704 830.64C964.864 833.64 965.944 837.54 965.944 842.34V921H951.544V847.02C951.544 843.54 951.304 841.14 950.824 839.82C950.344 838.38 949.144 837.66 947.224 837.66C946.264 837.66 939.664 839.58 927.424 843.42V921H913.024V847.02C913.024 843.54 912.784 841.14 912.304 839.82C911.824 838.38 910.624 837.66 908.704 837.66C907.744 837.66 901.024 839.58 888.544 843.42V921H874.144V827.4ZM1004.48 921C997.885 921 992.605 919.02 988.645 915.06C984.805 911.1 982.885 905.76 982.885 899.04V851.16C982.885 843.36 985.045 837.24 989.365 832.8C993.685 828.36 1000.1 826.14 1008.62 826.14C1017.14 826.14 1023.5 828.36 1027.7 832.8C1032.02 837.24 1034.18 843.36 1034.18 851.16V859.44C1034.18 864.48 1032.74 868.32 1029.86 870.96C1026.98 873.48 1023.2 875.4 1018.52 876.72L997.285 882.66V900.3C997.285 903.18 998.125 905.58 999.805 907.5C1001.6 909.3 1003.88 910.2 1006.64 910.2H1026.08V921H1004.48ZM1008.26 868.26C1012.22 867.18 1014.86 866.4 1016.18 865.92C1017.62 865.32 1018.58 864.48 1019.06 863.4C1019.54 862.32 1019.78 860.52 1019.78 858V848.1C1019.78 844.26 1018.76 841.44 1016.72 839.64C1014.8 837.84 1012.1 836.94 1008.62 836.94C1005.26 836.94 1002.5 837.9 1000.34 839.82C998.305 841.74 997.285 844.5 997.285 848.1V871.32L1008.26 868.26ZM1075.59 827.4H1086.75L1088.37 832.62L1095.75 830.46C1100.79 828.9 1104.75 827.82 1107.63 827.22C1110.63 826.5 1113.45 826.14 1116.09 826.14C1121.25 826.14 1124.85 828.42 1126.89 832.98C1130.25 831.78 1134.99 830.34 1141.11 828.66C1147.23 826.98 1151.73 826.14 1154.61 826.14C1158.93 826.14 1162.11 827.64 1164.15 830.64C1166.31 833.64 1167.39 837.54 1167.39 842.34V921H1152.99V847.02C1152.99 843.54 1152.75 841.14 1152.27 839.82C1151.79 838.38 1150.59 837.66 1148.67 837.66C1147.71 837.66 1141.11 839.58 1128.87 843.42V921H1114.47V847.02C1114.47 843.54 1114.23 841.14 1113.75 839.82C1113.27 838.38 1112.07 837.66 1110.15 837.66C1109.19 837.66 1102.47 839.58 1089.99 843.42V921H1075.59V827.4ZM1206.29 921C1201.97 921 1197.95 919.92 1194.23 917.76C1190.63 915.6 1187.75 912.66 1185.59 908.94C1183.55 905.22 1182.53 901.02 1182.53 896.34V886.98C1182.53 881.34 1183.91 876.6 1186.67 872.76C1189.55 868.92 1193.09 866.22 1197.29 864.66L1219.61 856.38V847.92C1219.61 845.04 1218.71 842.7 1216.91 840.9C1215.23 838.98 1213.01 838.02 1210.25 838.02H1189.91V827.4H1211.51C1218.11 827.4 1223.33 829.38 1227.17 833.34C1231.13 837.18 1233.11 842.46 1233.11 849.18V921H1206.29ZM1219.61 910.02V867.72L1203.77 873.66C1200.65 874.86 1198.43 876.48 1197.11 878.52C1195.91 880.56 1195.31 883.8 1195.31 888.24V898.32C1195.31 901.56 1196.51 904.32 1198.91 906.6C1201.31 908.88 1204.19 910.02 1207.55 910.02H1219.61ZM1252.95 812.1V797.7H1267.35V812.1H1252.95ZM1252.95 921V827.4H1267.35V921H1252.95ZM1283.59 910.2H1298.89C1304.05 910.2 1307.77 908.82 1310.05 906.06C1312.45 903.18 1313.65 899.46 1313.65 894.9C1313.65 891.3 1312.57 888.24 1310.41 885.72C1308.25 883.2 1305.01 880.26 1300.69 876.9C1296.97 873.9 1293.97 871.32 1291.69 869.16C1289.53 866.88 1287.61 864.12 1285.93 860.88C1284.37 857.52 1283.59 853.68 1283.59 849.36C1283.59 843 1285.69 837.78 1289.89 833.7C1294.21 829.5 1299.97 827.4 1307.17 827.4H1322.83V838.2H1309.87C1301.35 838.2 1297.09 842.22 1297.09 850.26C1297.09 853.38 1298.05 856.08 1299.97 858.36C1301.89 860.64 1304.89 863.34 1308.97 866.46C1312.69 869.34 1315.75 871.98 1318.15 874.38C1320.55 876.66 1322.59 879.6 1324.27 883.2C1325.95 886.68 1326.79 890.82 1326.79 895.62C1326.79 904.14 1324.51 910.5 1319.95 914.7C1315.51 918.9 1309.21 921 1301.05 921H1283.59V910.2ZM1364.62 910.2H1379.92C1385.08 910.2 1388.8 908.82 1391.08 906.06C1393.48 903.18 1394.68 899.46 1394.68 894.9C1394.68 891.3 1393.6 888.24 1391.44 885.72C1389.28 883.2 1386.04 880.26 1381.72 876.9C1378 873.9 1375 871.32 1372.72 869.16C1370.56 866.88 1368.64 864.12 1366.96 860.88C1365.4 857.52 1364.62 853.68 1364.62 849.36C1364.62 843 1366.72 837.78 1370.92 833.7C1375.24 829.5 1381 827.4 1388.2 827.4H1403.86V838.2H1390.9C1382.38 838.2 1378.12 842.22 1378.12 850.26C1378.12 853.38 1379.08 856.08 1381 858.36C1382.92 860.64 1385.92 863.34 1390 866.46C1393.72 869.34 1396.78 871.98 1399.18 874.38C1401.58 876.66 1403.62 879.6 1405.3 883.2C1406.98 886.68 1407.82 890.82 1407.82 895.62C1407.82 904.14 1405.54 910.5 1400.98 914.7C1396.54 918.9 1390.24 921 1382.08 921H1364.62V910.2ZM1446.85 922.26C1438.45 922.26 1431.91 920.16 1427.23 915.96C1422.67 911.64 1420.39 905.7 1420.39 898.14V850.26C1420.39 842.7 1422.67 836.82 1427.23 832.62C1431.91 828.3 1438.45 826.14 1446.85 826.14C1455.25 826.14 1461.73 828.3 1466.29 832.62C1470.97 836.82 1473.31 842.7 1473.31 850.26V898.14C1473.31 905.7 1470.97 911.64 1466.29 915.96C1461.73 920.16 1455.25 922.26 1446.85 922.26ZM1446.85 911.1C1450.69 911.1 1453.69 910.02 1455.85 907.86C1458.13 905.58 1459.27 902.34 1459.27 898.14V850.26C1459.27 846.06 1458.13 842.88 1455.85 840.72C1453.69 838.44 1450.69 837.3 1446.85 837.3C1443.01 837.3 1439.95 838.44 1437.67 840.72C1435.51 842.88 1434.43 846.06 1434.43 850.26V898.14C1434.43 902.34 1435.51 905.58 1437.67 907.86C1439.95 910.02 1443.01 911.1 1446.85 911.1ZM1495.81 839.28H1485.01V827.4H1495.81V816.96C1495.81 810.24 1497.73 804.9 1501.57 800.94C1505.41 796.98 1510.63 795 1517.23 795H1525.15V805.8H1519.75C1516.99 805.8 1514.71 806.76 1512.91 808.68C1511.11 810.6 1510.21 812.94 1510.21 815.7V827.4H1524.79V839.28H1510.21V921H1495.81V839.28ZM1536.49 812.1V797.7H1550.89V812.1H1536.49ZM1536.49 921V827.4H1550.89V921H1536.49ZM1567.12 910.2H1582.42C1587.58 910.2 1591.3 908.82 1593.58 906.06C1595.98 903.18 1597.18 899.46 1597.18 894.9C1597.18 891.3 1596.1 888.24 1593.94 885.72C1591.78 883.2 1588.54 880.26 1584.22 876.9C1580.5 873.9 1577.5 871.32 1575.22 869.16C1573.06 866.88 1571.14 864.12 1569.46 860.88C1567.9 857.52 1567.12 853.68 1567.12 849.36C1567.12 843 1569.22 837.78 1573.42 833.7C1577.74 829.5 1583.5 827.4 1590.7 827.4H1606.36V838.2H1593.4C1584.88 838.2 1580.62 842.22 1580.62 850.26C1580.62 853.38 1581.58 856.08 1583.5 858.36C1585.42 860.64 1588.42 863.34 1592.5 866.46C1596.22 869.34 1599.28 871.98 1601.68 874.38C1604.08 876.66 1606.12 879.6 1607.8 883.2C1609.48 886.68 1610.32 890.82 1610.32 895.62C1610.32 904.14 1608.04 910.5 1603.48 914.7C1599.04 918.9 1592.74 921 1584.58 921H1567.12V910.2ZM1652.59 921C1645.99 921 1640.77 919.02 1636.93 915.06C1633.09 911.1 1631.17 905.76 1631.17 899.04V838.2H1620.37V827.4H1631.17V800.22L1645.57 794.82V827.4H1659.97V838.2H1645.57V900.3C1645.57 903.18 1646.35 905.58 1647.91 907.5C1649.59 909.3 1651.81 910.2 1654.57 910.2H1659.97V921H1652.59ZM1674.3 812.1V797.7H1688.7V812.1H1674.3ZM1674.3 921V827.4H1688.7V921H1674.3ZM1730.14 921C1723.54 921 1718.26 919.02 1714.3 915.06C1710.46 911.1 1708.54 905.76 1708.54 899.04V851.16C1708.54 843.6 1710.52 837.78 1714.48 833.7C1718.44 829.5 1724.2 827.4 1731.76 827.4H1751.74V838.2H1732.12C1729.36 838.2 1727.14 839.16 1725.46 841.08C1723.78 842.88 1722.94 845.22 1722.94 848.1V900.3C1722.94 903.18 1723.78 905.58 1725.46 907.5C1727.26 909.3 1729.54 910.2 1732.3 910.2H1751.74V921H1730.14ZM1783.38 921C1779.06 921 1775.04 919.92 1771.32 917.76C1767.72 915.6 1764.84 912.66 1762.68 908.94C1760.64 905.22 1759.62 901.02 1759.62 896.34V886.98C1759.62 881.34 1761 876.6 1763.76 872.76C1766.64 868.92 1770.18 866.22 1774.38 864.66L1796.7 856.38V847.92C1796.7 845.04 1795.8 842.7 1794 840.9C1792.32 838.98 1790.1 838.02 1787.34 838.02H1767V827.4H1788.6C1795.2 827.4 1800.42 829.38 1804.26 833.34C1808.22 837.18 1810.2 842.46 1810.2 849.18V921H1783.38ZM1796.7 910.02V867.72L1780.86 873.66C1777.74 874.86 1775.52 876.48 1774.2 878.52C1773 880.56 1772.4 883.8 1772.4 888.24V898.32C1772.4 901.56 1773.6 904.32 1776 906.6C1778.4 908.88 1781.28 910.02 1784.64 910.02H1796.7ZM1853.8 921C1846.24 921 1840.12 918.78 1835.44 914.34C1830.76 909.9 1828.42 903.96 1828.42 896.52V851.7C1828.42 846.54 1829.8 842.16 1832.56 838.56C1835.44 834.96 1838.98 832.5 1843.18 831.18L1867.3 822.72V795H1881.7V921H1853.8ZM1867.3 910.2V834.6L1851.28 840C1848.16 840.96 1845.94 842.52 1844.62 844.68C1843.42 846.72 1842.82 850.02 1842.82 854.58V896.52C1842.82 900.84 1844.08 904.2 1846.6 906.6C1849.12 909 1852.54 910.2 1856.86 910.2H1867.3ZM1926.2 922.26C1917.8 922.26 1911.26 920.16 1906.58 915.96C1902.02 911.64 1899.74 905.7 1899.74 898.14V850.26C1899.74 842.7 1902.02 836.82 1906.58 832.62C1911.26 828.3 1917.8 826.14 1926.2 826.14C1934.6 826.14 1941.08 828.3 1945.64 832.62C1950.32 836.82 1952.66 842.7 1952.66 850.26V898.14C1952.66 905.7 1950.32 911.64 1945.64 915.96C1941.08 920.16 1934.6 922.26 1926.2 922.26ZM1926.2 911.1C1930.04 911.1 1933.04 910.02 1935.2 907.86C1937.48 905.58 1938.62 902.34 1938.62 898.14V850.26C1938.62 846.06 1937.48 842.88 1935.2 840.72C1933.04 838.44 1930.04 837.3 1926.2 837.3C1922.36 837.3 1919.3 838.44 1917.02 840.72C1914.86 842.88 1913.78 846.06 1913.78 850.26V898.14C1913.78 902.34 1914.86 905.58 1917.02 907.86C1919.3 910.02 1922.36 911.1 1926.2 911.1ZM1967.25 921V902.46H1981.65V921H1967.25Z" fill="#34D320"/>
</svg>
