<svg width="3745" height="1780" viewBox="0 0 3745 1780" fill="none" xmlns="http://www.w3.org/2000/svg">
<rect width="3745" height="1780" fill="black"/>
<path d="M1799.6 617V477H1817.2V617H1799.6ZM1843.88 513H1856.28L1858.08 518.8L1866.28 516.4C1871.88 514.667 1876.28 513.467 1879.48 512.8C1882.81 512 1885.94 511.6 1888.88 511.6C1893.68 511.6 1897.21 513.267 1899.48 516.6C1901.74 519.933 1902.88 524.267 1902.88 529.6V617H1886.88V534.8C1886.88 530.933 1886.61 528.267 1886.08 526.8C1885.54 525.2 1884.21 524.4 1882.08 524.4C1881.01 524.4 1873.61 526.533 1859.88 530.8V617H1843.88V513ZM1954.13 617C1946.79 617 1940.99 614.8 1936.73 610.4C1932.46 606 1930.33 600.067 1930.33 592.6V525H1918.33V513H1930.33V482.8L1946.33 476.8V513H1962.33V525H1946.33V594C1946.33 597.2 1947.19 599.867 1948.93 602C1950.79 604 1953.26 605 1956.33 605H1962.33V617H1954.13ZM1999.05 617C1991.72 617 1985.85 614.8 1981.45 610.4C1977.18 606 1975.05 600.067 1975.05 592.6V539.4C1975.05 530.733 1977.45 523.933 1982.25 519C1987.05 514.067 1994.18 511.6 2003.65 511.6C2013.12 511.6 2020.18 514.067 2024.85 519C2029.65 523.933 2032.05 530.733 2032.05 539.4V548.6C2032.05 554.2 2030.45 558.467 2027.25 561.4C2024.05 564.2 2019.85 566.333 2014.65 567.8L1991.05 574.4V594C1991.05 597.2 1991.98 599.867 1993.85 602C1995.85 604 1998.38 605 2001.45 605H2023.05V617H1999.05ZM2003.25 558.4C2007.65 557.2 2010.58 556.333 2012.05 555.8C2013.65 555.133 2014.72 554.2 2015.25 553C2015.78 551.8 2016.05 549.8 2016.05 547V536C2016.05 531.733 2014.92 528.6 2012.65 526.6C2010.52 524.6 2007.52 523.6 2003.65 523.6C1999.92 523.6 1996.85 524.667 1994.45 526.8C1992.18 528.933 1991.05 532 1991.05 536V561.8L2003.25 558.4ZM2047.98 513H2060.38L2062.18 520.4L2067.18 518C2071.44 515.867 2074.98 514.267 2077.78 513.2C2080.71 512.133 2083.64 511.6 2086.58 511.6V523.4C2084.84 523.4 2082.51 523.933 2079.58 525C2076.64 525.933 2071.44 528.2 2063.98 531.8V617H2047.98V513ZM2122.69 617C2117.89 617 2113.43 615.8 2109.29 613.4C2105.29 611 2102.09 607.733 2099.69 603.6C2097.43 599.467 2096.29 594.8 2096.29 589.6V579.2C2096.29 572.933 2097.83 567.667 2100.89 563.4C2104.09 559.133 2108.03 556.133 2112.69 554.4L2137.49 545.2V535.8C2137.49 532.6 2136.49 530 2134.49 528C2132.63 525.867 2130.16 524.8 2127.09 524.8H2104.49V513H2128.49C2135.83 513 2141.63 515.2 2145.89 519.6C2150.29 523.867 2152.49 529.733 2152.49 537.2V617H2122.69ZM2137.49 604.8V557.8L2119.89 564.4C2116.43 565.733 2113.96 567.533 2112.49 569.8C2111.16 572.067 2110.49 575.667 2110.49 580.6V591.8C2110.49 595.4 2111.83 598.467 2114.49 601C2117.16 603.533 2120.36 604.8 2124.09 604.8H2137.49ZM2196.54 617C2189.21 617 2183.34 614.8 2178.94 610.4C2174.67 606 2172.54 600.067 2172.54 592.6V539.4C2172.54 531 2174.74 524.533 2179.14 520C2183.54 515.333 2189.94 513 2198.34 513H2220.54V525H2198.74C2195.67 525 2193.21 526.067 2191.34 528.2C2189.47 530.2 2188.54 532.8 2188.54 536V594C2188.54 597.2 2189.47 599.867 2191.34 602C2193.34 604 2195.87 605 2198.94 605H2220.54V617H2196.54ZM2263.5 617C2256.17 617 2250.37 614.8 2246.1 610.4C2241.83 606 2239.7 600.067 2239.7 592.6V525H2227.7V513H2239.7V482.8L2255.7 476.8V513H2271.7V525H2255.7V594C2255.7 597.2 2256.57 599.867 2258.3 602C2260.17 604 2262.63 605 2265.7 605H2271.7V617H2263.5ZM2287.63 496V480H2303.63V496H2287.63ZM2287.63 617V513H2303.63V617H2287.63ZM2342.46 617L2318.66 513H2335.26L2350.66 596.8L2365.86 513H2382.46L2358.66 617H2342.46ZM2418.19 617C2410.86 617 2404.99 614.8 2400.59 610.4C2396.32 606 2394.19 600.067 2394.19 592.6V539.4C2394.19 530.733 2396.59 523.933 2401.39 519C2406.19 514.067 2413.32 511.6 2422.79 511.6C2432.26 511.6 2439.32 514.067 2443.99 519C2448.79 523.933 2451.19 530.733 2451.19 539.4V548.6C2451.19 554.2 2449.59 558.467 2446.39 561.4C2443.19 564.2 2438.99 566.333 2433.79 567.8L2410.19 574.4V594C2410.19 597.2 2411.12 599.867 2412.99 602C2414.99 604 2417.52 605 2420.59 605H2442.19V617H2418.19ZM2422.39 558.4C2426.79 557.2 2429.72 556.333 2431.19 555.8C2432.79 555.133 2433.86 554.2 2434.39 553C2434.92 551.8 2435.19 549.8 2435.19 547V536C2435.19 531.733 2434.06 528.6 2431.79 526.6C2429.66 524.6 2426.66 523.6 2422.79 523.6C2419.06 523.6 2415.99 524.667 2413.59 526.8C2411.32 528.933 2410.19 532 2410.19 536V561.8L2422.39 558.4ZM1797.2 808.8H1819C1826.6 808.8 1832.07 806.533 1835.4 802C1838.87 797.467 1840.6 791.867 1840.6 785.2C1840.6 780 1839.6 775.533 1837.6 771.8C1835.73 767.933 1833.4 764.733 1830.6 762.2C1827.8 759.667 1824 756.733 1819.2 753.4C1814.13 749.933 1810 746.8 1806.8 744C1803.73 741.067 1801.13 737.4 1799 733C1796.87 728.6 1795.8 723.333 1795.8 717.2C1795.8 706.533 1799 698 1805.4 691.6C1811.8 685.2 1820.67 682 1832 682H1848.2V695.2H1832.8C1826.4 695.2 1821.53 697.267 1818.2 701.4C1814.87 705.533 1813.2 710.333 1813.2 715.8C1813.2 721.133 1814.73 725.533 1817.8 729C1820.87 732.467 1825.53 736.4 1831.8 740.8C1837.53 744.933 1842.13 748.667 1845.6 752C1849.07 755.2 1852 759.467 1854.4 764.8C1856.93 770.133 1858.2 776.533 1858.2 784C1858.2 796.533 1854.6 806 1847.4 812.4C1840.33 818.8 1830.6 822 1818.2 822H1797.2V808.8ZM1904.13 822C1896.79 822 1890.99 819.8 1886.73 815.4C1882.46 811 1880.33 805.067 1880.33 797.6V730H1868.33V718H1880.33V687.8L1896.33 681.8V718H1912.33V730H1896.33V799C1896.33 802.2 1897.19 804.867 1898.93 807C1900.79 809 1903.26 810 1906.33 810H1912.33V822H1904.13ZM1953.65 823.4C1944.32 823.4 1937.05 821.067 1931.85 816.4C1926.78 811.6 1924.25 805 1924.25 796.6V743.4C1924.25 735 1926.78 728.467 1931.85 723.8C1937.05 719 1944.32 716.6 1953.65 716.6C1962.98 716.6 1970.18 719 1975.25 723.8C1980.45 728.467 1983.05 735 1983.05 743.4V796.6C1983.05 805 1980.45 811.6 1975.25 816.4C1970.18 821.067 1962.98 823.4 1953.65 823.4ZM1953.65 811C1957.92 811 1961.25 809.8 1963.65 807.4C1966.18 804.867 1967.45 801.267 1967.45 796.6V743.4C1967.45 738.733 1966.18 735.2 1963.65 732.8C1961.25 730.267 1957.92 729 1953.65 729C1949.38 729 1945.98 730.267 1943.45 732.8C1941.05 735.2 1939.85 738.733 1939.85 743.4V796.6C1939.85 801.267 1941.05 804.867 1943.45 807.4C1945.98 809.8 1949.38 811 1953.65 811ZM2003.05 718H2015.45L2017.25 725.4L2022.25 723C2026.52 720.867 2030.05 719.267 2032.85 718.2C2035.79 717.133 2038.72 716.6 2041.65 716.6V728.4C2039.92 728.4 2037.59 728.933 2034.65 730C2031.72 730.933 2026.52 733.2 2019.05 736.8V822H2003.05V718ZM2055.97 842H2062.17C2065.77 842 2069.04 840.267 2071.97 836.8C2074.9 833.467 2076.37 828.467 2076.37 821.8L2048.57 718H2065.17L2082.57 802.4L2096.57 718H2112.37L2087.97 834C2085.17 847.333 2077.44 854 2064.77 854H2055.97V842ZM2156.27 822C2148.94 822 2143.14 819.8 2138.87 815.4C2134.61 811 2132.47 805.067 2132.47 797.6V730H2120.47V718H2132.47V687.8L2148.47 681.8V718H2164.47V730H2148.47V799C2148.47 802.2 2149.34 804.867 2151.07 807C2152.94 809 2155.41 810 2158.47 810H2164.47V822H2156.27ZM2201.2 822C2193.87 822 2188 819.8 2183.6 815.4C2179.33 811 2177.2 805.067 2177.2 797.6V744.4C2177.2 735.733 2179.6 728.933 2184.4 724C2189.2 719.067 2196.33 716.6 2205.8 716.6C2215.27 716.6 2222.33 719.067 2227 724C2231.8 728.933 2234.2 735.733 2234.2 744.4V753.6C2234.2 759.2 2232.6 763.467 2229.4 766.4C2226.2 769.2 2222 771.333 2216.8 772.8L2193.2 779.4V799C2193.2 802.2 2194.13 804.867 2196 807C2198 809 2200.53 810 2203.6 810H2225.2V822H2201.2ZM2205.4 763.4C2209.8 762.2 2212.73 761.333 2214.2 760.8C2215.8 760.133 2216.87 759.2 2217.4 758C2217.93 756.8 2218.2 754.8 2218.2 752V741C2218.2 736.733 2217.07 733.6 2214.8 731.6C2212.67 729.6 2209.67 728.6 2205.8 728.6C2202.07 728.6 2199 729.667 2196.6 731.8C2194.33 733.933 2193.2 737 2193.2 741V766.8L2205.4 763.4ZM2250.33 822V682H2266.33V822H2250.33ZM2290.36 822V682H2306.36V822H2290.36ZM2330.2 701V685H2346.2V701H2330.2ZM2330.2 822V718H2346.2V822H2330.2ZM2370.24 718H2382.64L2384.44 723.8L2392.64 721.4C2398.24 719.667 2402.64 718.467 2405.84 717.8C2409.18 717 2412.31 716.6 2415.24 716.6C2420.04 716.6 2423.58 718.267 2425.84 721.6C2428.11 724.933 2429.24 729.267 2429.24 734.6V822H2413.24V739.8C2413.24 735.933 2412.98 733.267 2412.44 731.8C2411.91 730.2 2410.58 729.4 2408.44 729.4C2407.38 729.4 2399.98 731.533 2386.24 735.8V822H2370.24V718ZM2459.89 842H2480.49C2483.56 842 2485.96 840.933 2487.69 838.8C2489.56 836.8 2490.49 834.2 2490.49 831V822.2H2473.89C2466.56 822.2 2460.36 819.8 2455.29 815C2450.23 810.2 2447.69 804.2 2447.69 797V743.2C2447.69 736 2450.23 730 2455.29 725.2C2460.49 720.4 2466.76 718 2474.09 718H2506.69V829.6C2506.69 837.067 2504.63 843 2500.49 847.4C2496.49 851.8 2490.83 854 2483.49 854H2459.89V842ZM2490.69 810.2V730H2477.29C2473.56 730 2470.36 731.267 2467.69 733.8C2465.03 736.333 2463.69 739.467 2463.69 743.2V797C2463.69 800.733 2465.03 803.867 2467.69 806.4C2470.36 808.933 2473.56 810.2 2477.29 810.2H2490.69Z" fill="white"/>
<path d="M1794.49 962V871H1832.84V879.84H1805.93V911.04H1826.21V919.88H1805.93V962H1794.49ZM1843.2 883.35V872.95H1853.6V883.35H1843.2ZM1843.2 962V894.4H1853.6V962H1843.2ZM1869.36 962V871H1879.76V962H1869.36ZM1895.25 894.4H1903.31L1904.48 898.17L1909.81 896.61C1913.45 895.483 1916.31 894.703 1918.39 894.27C1920.56 893.75 1922.59 893.49 1924.5 893.49C1928.23 893.49 1930.83 895.137 1932.3 898.43C1934.73 897.563 1938.15 896.523 1942.57 895.31C1946.99 894.097 1950.24 893.49 1952.32 893.49C1955.44 893.49 1957.74 894.573 1959.21 896.74C1960.77 898.907 1961.55 901.723 1961.55 905.19V962H1951.15V908.57C1951.15 906.057 1950.98 904.323 1950.63 903.37C1950.28 902.33 1949.42 901.81 1948.03 901.81C1947.34 901.81 1942.57 903.197 1933.73 905.97V962H1923.33V908.57C1923.33 906.057 1923.16 904.323 1922.81 903.37C1922.46 902.33 1921.6 901.81 1920.21 901.81C1919.52 901.81 1914.66 903.197 1905.65 905.97V962H1895.25V894.4ZM1989.39 962C1984.62 962 1980.81 960.57 1977.95 957.71C1975.17 954.85 1973.79 950.993 1973.79 946.14V911.56C1973.79 905.927 1975.35 901.507 1978.47 898.3C1981.59 895.093 1986.22 893.49 1992.38 893.49C1998.53 893.49 2003.12 895.093 2006.16 898.3C2009.28 901.507 2010.84 905.927 2010.84 911.56V917.54C2010.84 921.18 2009.8 923.953 2007.72 925.86C2005.64 927.68 2002.91 929.067 1999.53 930.02L1984.19 934.31V947.05C1984.19 949.13 1984.79 950.863 1986.01 952.25C1987.31 953.55 1988.95 954.2 1990.95 954.2H2004.99V962H1989.39ZM1992.12 923.91C1994.98 923.13 1996.88 922.567 1997.84 922.22C1998.88 921.787 1999.57 921.18 1999.92 920.4C2000.26 919.62 2000.44 918.32 2000.44 916.5V909.35C2000.44 906.577 1999.7 904.54 1998.23 903.24C1996.84 901.94 1994.89 901.29 1992.38 901.29C1989.95 901.29 1987.96 901.983 1986.4 903.37C1984.92 904.757 1984.19 906.75 1984.19 909.35V926.12L1992.12 923.91ZM2017.29 954.2H2028.34C2032.07 954.2 2034.75 953.203 2036.4 951.21C2038.13 949.13 2039 946.443 2039 943.15C2039 940.55 2038.22 938.34 2036.66 936.52C2035.1 934.7 2032.76 932.577 2029.64 930.15C2026.95 927.983 2024.79 926.12 2023.14 924.56C2021.58 922.913 2020.19 920.92 2018.98 918.58C2017.85 916.153 2017.29 913.38 2017.29 910.26C2017.29 905.667 2018.81 901.897 2021.84 898.95C2024.96 895.917 2029.12 894.4 2034.32 894.4H2045.63V902.2H2036.27C2030.12 902.2 2027.04 905.103 2027.04 910.91C2027.04 913.163 2027.73 915.113 2029.12 916.76C2030.51 918.407 2032.67 920.357 2035.62 922.61C2038.31 924.69 2040.52 926.597 2042.25 928.33C2043.98 929.977 2045.46 932.1 2046.67 934.7C2047.88 937.213 2048.49 940.203 2048.49 943.67C2048.49 949.823 2046.84 954.417 2043.55 957.45C2040.34 960.483 2035.79 962 2029.9 962H2017.29V954.2ZM2052.23 977.99L2057.82 962V948.61H2068.22V961.87L2060.29 977.99H2052.23ZM2112.03 962C2108.91 962 2106.01 961.22 2103.32 959.66C2100.72 958.1 2098.64 955.977 2097.08 953.29C2095.61 950.603 2094.87 947.57 2094.87 944.19V937.43C2094.87 933.357 2095.87 929.933 2097.86 927.16C2099.94 924.387 2102.5 922.437 2105.53 921.31L2121.65 915.33V909.22C2121.65 907.14 2121 905.45 2119.7 904.15C2118.49 902.763 2116.88 902.07 2114.89 902.07H2100.2V894.4H2115.8C2120.57 894.4 2124.34 895.83 2127.11 898.69C2129.97 901.463 2131.4 905.277 2131.4 910.13V962H2112.03ZM2121.65 954.07V923.52L2110.21 927.81C2107.96 928.677 2106.35 929.847 2105.4 931.32C2104.53 932.793 2104.1 935.133 2104.1 938.34V945.62C2104.1 947.96 2104.97 949.953 2106.7 951.6C2108.43 953.247 2110.51 954.07 2112.94 954.07H2121.65ZM2145.73 894.4H2153.79L2154.96 898.17L2160.29 896.61C2163.93 895.483 2166.79 894.703 2168.87 894.27C2171.04 893.75 2173.07 893.49 2174.98 893.49C2178.1 893.49 2180.4 894.573 2181.87 896.74C2183.34 898.907 2184.08 901.723 2184.08 905.19V962H2173.68V908.57C2173.68 906.057 2173.51 904.323 2173.16 903.37C2172.81 902.33 2171.95 901.81 2170.56 901.81C2169.87 901.81 2165.06 903.197 2156.13 905.97V962H2145.73V894.4ZM2198.54 883.35V872.95H2208.94V883.35H2198.54ZM2198.54 962V894.4H2208.94V962H2198.54ZM2224.57 894.4H2232.63L2233.8 898.17L2239.13 896.61C2242.77 895.483 2245.63 894.703 2247.71 894.27C2249.87 893.75 2251.91 893.49 2253.82 893.49C2257.54 893.49 2260.14 895.137 2261.62 898.43C2264.04 897.563 2267.47 896.523 2271.89 895.31C2276.31 894.097 2279.56 893.49 2281.64 893.49C2284.76 893.49 2287.05 894.573 2288.53 896.74C2290.09 898.907 2290.87 901.723 2290.87 905.19V962H2280.47V908.57C2280.47 906.057 2280.29 904.323 2279.95 903.37C2279.6 902.33 2278.73 901.81 2277.35 901.81C2276.65 901.81 2271.89 903.197 2263.05 905.97V962H2252.65V908.57C2252.65 906.057 2252.47 904.323 2252.13 903.37C2251.78 902.33 2250.91 901.81 2249.53 901.81C2248.83 901.81 2243.98 903.197 2234.97 905.97V962H2224.57V894.4ZM2318.96 962C2315.84 962 2312.94 961.22 2310.25 959.66C2307.65 958.1 2305.57 955.977 2304.01 953.29C2302.54 950.603 2301.8 947.57 2301.8 944.19V937.43C2301.8 933.357 2302.8 929.933 2304.79 927.16C2306.87 924.387 2309.43 922.437 2312.46 921.31L2328.58 915.33V909.22C2328.58 907.14 2327.93 905.45 2326.63 904.15C2325.42 902.763 2323.82 902.07 2321.82 902.07H2307.13V894.4H2322.73C2327.5 894.4 2331.27 895.83 2334.04 898.69C2336.9 901.463 2338.33 905.277 2338.33 910.13V962H2318.96ZM2328.58 954.07V923.52L2317.14 927.81C2314.89 928.677 2313.29 929.847 2312.33 931.32C2311.47 932.793 2311.03 935.133 2311.03 938.34V945.62C2311.03 947.96 2311.9 949.953 2313.63 951.6C2315.37 953.247 2317.45 954.07 2319.87 954.07H2328.58ZM2373.59 966.16C2376.71 966.16 2379.1 966.723 2380.74 967.85C2382.39 968.977 2383.21 971.013 2383.21 973.96C2383.21 979.853 2379.83 982.8 2373.07 982.8H2359.16V976.69H2369.56C2371.56 976.69 2373.03 976.473 2373.98 976.04C2374.94 975.607 2375.41 974.87 2375.41 973.83C2375.41 972.703 2375.07 971.967 2374.37 971.62C2373.68 971.273 2372.55 971.1 2370.99 971.1H2364.23L2366.44 962H2366.96C2362.2 962 2358.38 960.57 2355.52 957.71C2352.75 954.85 2351.36 950.993 2351.36 946.14V911.56C2351.36 906.1 2352.79 901.897 2355.65 898.95C2358.51 895.917 2362.67 894.4 2368.13 894.4H2382.56V902.2H2368.39C2366.4 902.2 2364.8 902.893 2363.58 904.28C2362.37 905.58 2361.76 907.27 2361.76 909.35V947.05C2361.76 949.13 2362.37 950.863 2363.58 952.25C2364.88 953.55 2366.53 954.2 2368.52 954.2H2382.56V962H2374.5L2373.59 966.16ZM2389.82 887.9C2389.9 884 2390.64 881.053 2392.03 879.06C2393.41 876.98 2395.93 875.94 2399.57 875.94C2400.52 875.94 2403.34 876.633 2408.02 878.02C2412.61 879.493 2415.56 880.23 2416.86 880.23C2417.9 880.23 2418.59 879.927 2418.94 879.32C2419.28 878.627 2419.5 877.803 2419.59 876.85C2419.76 875.897 2419.89 875.16 2419.98 874.64H2428.17C2428.08 877.587 2427.86 879.97 2427.52 881.79C2427.17 883.523 2426.26 884.997 2424.79 886.21C2423.4 887.337 2421.28 887.9 2418.42 887.9C2417.12 887.9 2414.17 887.163 2409.58 885.69C2404.9 884.303 2402.08 883.61 2401.13 883.61C2400 883.61 2399.26 883.827 2398.92 884.26C2398.66 884.693 2398.44 885.3 2398.27 886.08C2398.18 886.86 2398.09 887.467 2398.01 887.9H2389.82ZM2408.15 962.91C2402.08 962.91 2397.36 961.393 2393.98 958.36C2390.68 955.24 2389.04 950.95 2389.04 945.49V910.91C2389.04 905.45 2390.68 901.203 2393.98 898.17C2397.36 895.05 2402.08 893.49 2408.15 893.49C2414.21 893.49 2418.89 895.05 2422.19 898.17C2425.57 901.203 2427.26 905.45 2427.26 910.91V945.49C2427.26 950.95 2425.57 955.24 2422.19 958.36C2418.89 961.393 2414.21 962.91 2408.15 962.91ZM2408.15 954.85C2410.92 954.85 2413.09 954.07 2414.65 952.51C2416.29 950.863 2417.12 948.523 2417.12 945.49V910.91C2417.12 907.877 2416.29 905.58 2414.65 904.02C2413.09 902.373 2410.92 901.55 2408.15 901.55C2405.37 901.55 2403.16 902.373 2401.52 904.02C2399.96 905.58 2399.18 907.877 2399.18 910.91V945.49C2399.18 948.523 2399.96 950.863 2401.52 952.51C2403.16 954.07 2405.37 954.85 2408.15 954.85ZM2453.78 962C2449.01 962 2445.2 960.57 2442.34 957.71C2439.57 954.85 2438.18 950.993 2438.18 946.14V911.56C2438.18 905.927 2439.74 901.507 2442.86 898.3C2445.98 895.093 2450.62 893.49 2456.77 893.49C2462.92 893.49 2467.52 895.093 2470.55 898.3C2473.67 901.507 2475.23 905.927 2475.23 911.56V917.54C2475.23 921.18 2474.19 923.953 2472.11 925.86C2470.03 927.68 2467.3 929.067 2463.92 930.02L2448.58 934.31V947.05C2448.58 949.13 2449.19 950.863 2450.4 952.25C2451.7 953.55 2453.35 954.2 2455.34 954.2H2469.38V962H2453.78ZM2456.51 923.91C2459.37 923.13 2461.28 922.567 2462.23 922.22C2463.27 921.787 2463.96 921.18 2464.31 920.4C2464.66 919.62 2464.83 918.32 2464.83 916.5V909.35C2464.83 906.577 2464.09 904.54 2462.62 903.24C2461.23 901.94 2459.28 901.29 2456.77 901.29C2454.34 901.29 2452.35 901.983 2450.79 903.37C2449.32 904.757 2448.58 906.75 2448.58 909.35V926.12L2456.51 923.91ZM2481.68 954.2H2492.73C2496.46 954.2 2499.15 953.203 2500.79 951.21C2502.53 949.13 2503.39 946.443 2503.39 943.15C2503.39 940.55 2502.61 938.34 2501.05 936.52C2499.49 934.7 2497.15 932.577 2494.03 930.15C2491.35 927.983 2489.18 926.12 2487.53 924.56C2485.97 922.913 2484.59 920.92 2483.37 918.58C2482.25 916.153 2481.68 913.38 2481.68 910.26C2481.68 905.667 2483.2 901.897 2486.23 898.95C2489.35 895.917 2493.51 894.4 2498.71 894.4H2510.02V902.2H2500.66C2494.51 902.2 2491.43 905.103 2491.43 910.91C2491.43 913.163 2492.13 915.113 2493.51 916.76C2494.9 918.407 2497.07 920.357 2500.01 922.61C2502.7 924.69 2504.91 926.597 2506.64 928.33C2508.38 929.977 2509.85 932.1 2511.06 934.7C2512.28 937.213 2512.88 940.203 2512.88 943.67C2512.88 949.823 2511.24 954.417 2507.94 957.45C2504.74 960.483 2500.19 962 2494.29 962H2481.68V954.2ZM2557.63 962C2552.86 962 2549.05 960.57 2546.19 957.71C2543.42 954.85 2542.03 950.993 2542.03 946.14V911.56C2542.03 905.927 2543.59 901.507 2546.71 898.3C2549.83 895.093 2554.47 893.49 2560.62 893.49C2566.77 893.49 2571.37 895.093 2574.4 898.3C2577.52 901.507 2579.08 905.927 2579.08 911.56V917.54C2579.08 921.18 2578.04 923.953 2575.96 925.86C2573.88 927.68 2571.15 929.067 2567.77 930.02L2552.43 934.31V947.05C2552.43 949.13 2553.04 950.863 2554.25 952.25C2555.55 953.55 2557.2 954.2 2559.19 954.2H2573.23V962H2557.63ZM2560.36 923.91C2563.22 923.13 2565.13 922.567 2566.08 922.22C2567.12 921.787 2567.81 921.18 2568.16 920.4C2568.51 919.62 2568.68 918.32 2568.68 916.5V909.35C2568.68 906.577 2567.94 904.54 2566.47 903.24C2565.08 901.94 2563.13 901.29 2560.62 901.29C2558.19 901.29 2556.2 901.983 2554.64 903.37C2553.17 904.757 2552.43 906.75 2552.43 909.35V926.12L2560.36 923.91ZM2625.49 962.91C2619.42 962.91 2614.7 961.393 2611.32 958.36C2608.03 955.24 2606.38 950.95 2606.38 945.49V910.91C2606.38 905.45 2608.03 901.203 2611.32 898.17C2614.7 895.05 2619.42 893.49 2625.49 893.49C2631.56 893.49 2636.24 895.05 2639.53 898.17C2642.91 901.203 2644.6 905.45 2644.6 910.91V945.49C2644.6 950.95 2642.91 955.24 2639.53 958.36C2636.24 961.393 2631.56 962.91 2625.49 962.91ZM2625.49 954.85C2628.26 954.85 2630.43 954.07 2631.99 952.51C2633.64 950.863 2634.46 948.523 2634.46 945.49V910.91C2634.46 907.877 2633.64 905.58 2631.99 904.02C2630.43 902.373 2628.26 901.55 2625.49 901.55C2622.72 901.55 2620.51 902.373 2618.86 904.02C2617.3 905.58 2616.52 907.877 2616.52 910.91V945.49C2616.52 948.523 2617.3 950.863 2618.86 952.51C2620.51 954.07 2622.72 954.85 2625.49 954.85ZM1806.58 1092C1803.46 1092 1800.56 1091.22 1797.87 1089.66C1795.27 1088.1 1793.19 1085.98 1791.63 1083.29C1790.16 1080.6 1789.42 1077.57 1789.42 1074.19V1067.43C1789.42 1063.36 1790.42 1059.93 1792.41 1057.16C1794.49 1054.39 1797.05 1052.44 1800.08 1051.31L1816.2 1045.33V1039.22C1816.2 1037.14 1815.55 1035.45 1814.25 1034.15C1813.04 1032.76 1811.43 1032.07 1809.44 1032.07H1794.75V1024.4H1810.35C1815.12 1024.4 1818.89 1025.83 1821.66 1028.69C1824.52 1031.46 1825.95 1035.28 1825.95 1040.13V1092H1806.58ZM1816.2 1084.07V1053.52L1804.76 1057.81C1802.51 1058.68 1800.9 1059.85 1799.95 1061.32C1799.08 1062.79 1798.65 1065.13 1798.65 1068.34V1075.62C1798.65 1077.96 1799.52 1079.95 1801.25 1081.6C1802.98 1083.25 1805.06 1084.07 1807.49 1084.07H1816.2ZM1848.21 1092.91C1845.09 1092.91 1842.75 1091.83 1841.19 1089.66C1839.72 1087.49 1838.98 1084.68 1838.98 1081.21V1024.4H1849.38V1077.83C1849.38 1080.26 1849.55 1081.99 1849.9 1083.03C1850.25 1084.07 1851.07 1084.59 1852.37 1084.59C1852.98 1084.59 1857.87 1083.29 1867.06 1080.69V1024.4H1877.46V1092H1870.05L1868.1 1087.58C1866.71 1088.1 1865.67 1088.45 1864.98 1088.62C1860.91 1090.09 1857.61 1091.18 1855.1 1091.87C1852.59 1092.56 1850.29 1092.91 1848.21 1092.91ZM1910.25 1092C1904.79 1092 1900.37 1090.4 1896.99 1087.19C1893.61 1083.98 1891.92 1079.69 1891.92 1074.32V1041.95C1891.92 1038.22 1892.92 1035.06 1894.91 1032.46C1896.99 1029.86 1899.55 1028.08 1902.58 1027.13L1920 1021.02V1001H1930.4V1092H1910.25ZM1920 1084.2V1029.6L1908.43 1033.5C1906.18 1034.19 1904.58 1035.32 1903.62 1036.88C1902.76 1038.35 1902.32 1040.74 1902.32 1044.03V1074.32C1902.32 1077.44 1903.23 1079.87 1905.05 1081.6C1906.87 1083.33 1909.34 1084.2 1912.46 1084.2H1920ZM1946.03 1013.35V1002.95H1956.43V1013.35H1946.03ZM1946.03 1092V1024.4H1956.43V1092H1946.03ZM1988.57 1092.91C1982.5 1092.91 1977.78 1091.39 1974.4 1088.36C1971.1 1085.24 1969.46 1080.95 1969.46 1075.49V1040.91C1969.46 1035.45 1971.1 1031.2 1974.4 1028.17C1977.78 1025.05 1982.5 1023.49 1988.57 1023.49C1994.63 1023.49 1999.31 1025.05 2002.61 1028.17C2005.99 1031.2 2007.68 1035.45 2007.68 1040.91V1075.49C2007.68 1080.95 2005.99 1085.24 2002.61 1088.36C1999.31 1091.39 1994.63 1092.91 1988.57 1092.91ZM1988.57 1084.85C1991.34 1084.85 1993.51 1084.07 1995.07 1082.51C1996.71 1080.86 1997.54 1078.52 1997.54 1075.49V1040.91C1997.54 1037.88 1996.71 1035.58 1995.07 1034.02C1993.51 1032.37 1991.34 1031.55 1988.57 1031.55C1985.79 1031.55 1983.58 1032.37 1981.94 1034.02C1980.38 1035.58 1979.6 1037.88 1979.6 1040.91V1075.49C1979.6 1078.52 1980.38 1080.86 1981.94 1082.51C1983.58 1084.07 1985.79 1084.85 1988.57 1084.85ZM2030.3 1092L2014.83 1024.4H2025.62L2035.63 1078.87L2045.51 1024.4H2056.3L2040.83 1092H2030.3ZM2066 1013.35V1002.95H2076.4V1013.35H2066ZM2066 1092V1024.4H2076.4V1092H2066ZM2088.13 1084.2H2099.18C2102.91 1084.2 2105.59 1083.2 2107.24 1081.21C2108.97 1079.13 2109.84 1076.44 2109.84 1073.15C2109.84 1070.55 2109.06 1068.34 2107.5 1066.52C2105.94 1064.7 2103.6 1062.58 2100.48 1060.15C2097.79 1057.98 2095.63 1056.12 2093.98 1054.56C2092.42 1052.91 2091.03 1050.92 2089.82 1048.58C2088.69 1046.15 2088.13 1043.38 2088.13 1040.26C2088.13 1035.67 2089.65 1031.9 2092.68 1028.95C2095.8 1025.92 2099.96 1024.4 2105.16 1024.4H2116.47V1032.2H2107.11C2100.96 1032.2 2097.88 1035.1 2097.88 1040.91C2097.88 1043.16 2098.57 1045.11 2099.96 1046.76C2101.35 1048.41 2103.51 1050.36 2106.46 1052.61C2109.15 1054.69 2111.36 1056.6 2113.09 1058.33C2114.82 1059.98 2116.3 1062.1 2117.51 1064.7C2118.72 1067.21 2119.33 1070.2 2119.33 1073.67C2119.33 1079.82 2117.68 1084.42 2114.39 1087.45C2111.18 1090.48 2106.63 1092 2100.74 1092H2088.13V1084.2ZM2138.93 1092.91C2135.81 1092.91 2133.47 1091.83 2131.91 1089.66C2130.44 1087.49 2129.7 1084.68 2129.7 1081.21V1024.4H2140.1V1077.83C2140.1 1080.26 2140.28 1081.99 2140.62 1083.03C2140.97 1084.07 2141.79 1084.59 2143.09 1084.59C2143.7 1084.59 2148.6 1083.29 2157.78 1080.69V1024.4H2168.18V1092H2160.77L2158.82 1087.58C2157.44 1088.1 2156.4 1088.45 2155.7 1088.62C2151.63 1090.09 2148.34 1091.18 2145.82 1091.87C2143.31 1092.56 2141.01 1092.91 2138.93 1092.91ZM2197.6 1092C2194.48 1092 2191.57 1091.22 2188.89 1089.66C2186.29 1088.1 2184.21 1085.98 2182.65 1083.29C2181.17 1080.6 2180.44 1077.57 2180.44 1074.19V1067.43C2180.44 1063.36 2181.43 1059.93 2183.43 1057.16C2185.51 1054.39 2188.06 1052.44 2191.1 1051.31L2207.22 1045.33V1039.22C2207.22 1037.14 2206.57 1035.45 2205.27 1034.15C2204.05 1032.76 2202.45 1032.07 2200.46 1032.07H2185.77V1024.4H2201.37C2206.13 1024.4 2209.9 1025.83 2212.68 1028.69C2215.54 1031.46 2216.97 1035.28 2216.97 1040.13V1092H2197.6ZM2207.22 1084.07V1053.52L2195.78 1057.81C2193.52 1058.68 2191.92 1059.85 2190.97 1061.32C2190.1 1062.79 2189.67 1065.13 2189.67 1068.34V1075.62C2189.67 1077.96 2190.53 1079.95 2192.27 1081.6C2194 1083.25 2196.08 1084.07 2198.51 1084.07H2207.22ZM2231.43 1092V1001H2241.83V1092H2231.43ZM2276.87 1013.35V1002.95H2287.27V1013.35H2276.87ZM2276.87 1092V1024.4H2287.27V1092H2276.87ZM2302.9 1024.4H2310.96L2312.13 1028.17L2317.46 1026.61C2321.1 1025.48 2323.96 1024.7 2326.04 1024.27C2328.2 1023.75 2330.24 1023.49 2332.15 1023.49C2335.27 1023.49 2337.56 1024.57 2339.04 1026.74C2340.51 1028.91 2341.25 1031.72 2341.25 1035.19V1092H2330.85V1038.57C2330.85 1036.06 2330.67 1034.32 2330.33 1033.37C2329.98 1032.33 2329.11 1031.81 2327.73 1031.81C2327.03 1031.81 2322.22 1033.2 2313.3 1035.97V1092H2302.9V1024.4ZM2374.56 1092C2369.79 1092 2366.02 1090.57 2363.25 1087.71C2360.48 1084.85 2359.09 1080.99 2359.09 1076.14V1032.2H2351.29V1024.4H2359.09V1004.77L2369.49 1000.87V1024.4H2379.89V1032.2H2369.49V1077.05C2369.49 1079.13 2370.05 1080.86 2371.18 1082.25C2372.39 1083.55 2374 1084.2 2375.99 1084.2H2379.89V1092H2374.56ZM2403.76 1092C2398.99 1092 2395.18 1090.57 2392.32 1087.71C2389.55 1084.85 2388.16 1080.99 2388.16 1076.14V1041.56C2388.16 1035.93 2389.72 1031.51 2392.84 1028.3C2395.96 1025.09 2400.6 1023.49 2406.75 1023.49C2412.9 1023.49 2417.5 1025.09 2420.53 1028.3C2423.65 1031.51 2425.21 1035.93 2425.21 1041.56V1047.54C2425.21 1051.18 2424.17 1053.95 2422.09 1055.86C2420.01 1057.68 2417.28 1059.07 2413.9 1060.02L2398.56 1064.31V1077.05C2398.56 1079.13 2399.17 1080.86 2400.38 1082.25C2401.68 1083.55 2403.33 1084.2 2405.32 1084.2H2419.36V1092H2403.76ZM2406.49 1053.91C2409.35 1053.13 2411.26 1052.57 2412.21 1052.22C2413.25 1051.79 2413.94 1051.18 2414.29 1050.4C2414.64 1049.62 2414.81 1048.32 2414.81 1046.5V1039.35C2414.81 1036.58 2414.07 1034.54 2412.6 1033.24C2411.21 1031.94 2409.26 1031.29 2406.75 1031.29C2404.32 1031.29 2402.33 1031.98 2400.77 1033.37C2399.3 1034.76 2398.56 1036.75 2398.56 1039.35V1056.12L2406.49 1053.91ZM2435.56 1024.4H2443.62L2444.79 1029.21L2448.04 1027.65C2450.82 1026.26 2453.11 1025.22 2454.93 1024.53C2456.84 1023.84 2458.75 1023.49 2460.65 1023.49V1031.16C2459.53 1031.16 2458.01 1031.51 2456.1 1032.2C2454.2 1032.81 2450.82 1034.28 2445.96 1036.62V1092H2435.56V1024.4ZM2484.13 1092C2481.01 1092 2478.11 1091.22 2475.42 1089.66C2472.82 1088.1 2470.74 1085.98 2469.18 1083.29C2467.71 1080.6 2466.97 1077.57 2466.97 1074.19V1067.43C2466.97 1063.36 2467.97 1059.93 2469.96 1057.16C2472.04 1054.39 2474.6 1052.44 2477.63 1051.31L2493.75 1045.33V1039.22C2493.75 1037.14 2493.1 1035.45 2491.8 1034.15C2490.59 1032.76 2488.98 1032.07 2486.99 1032.07H2472.3V1024.4H2487.9C2492.67 1024.4 2496.44 1025.83 2499.21 1028.69C2502.07 1031.46 2503.5 1035.28 2503.5 1040.13V1092H2484.13ZM2493.75 1084.07V1053.52L2482.31 1057.81C2480.06 1058.68 2478.45 1059.85 2477.5 1061.32C2476.63 1062.79 2476.2 1065.13 2476.2 1068.34V1075.62C2476.2 1077.96 2477.07 1079.95 2478.8 1081.6C2480.53 1083.25 2482.61 1084.07 2485.04 1084.07H2493.75ZM2536.68 1092C2531.91 1092 2528.14 1090.57 2525.37 1087.71C2522.6 1084.85 2521.21 1080.99 2521.21 1076.14V1032.2H2513.41V1024.4H2521.21V1004.77L2531.61 1000.87V1024.4H2542.01V1032.2H2531.61V1077.05C2531.61 1079.13 2532.17 1080.86 2533.3 1082.25C2534.51 1083.55 2536.12 1084.2 2538.11 1084.2H2542.01V1092H2536.68ZM2552.36 1013.35V1002.95H2562.76V1013.35H2552.36ZM2552.36 1092V1024.4H2562.76V1092H2552.36ZM2588.01 1092L2572.54 1024.4H2583.33L2593.34 1078.87L2603.22 1024.4H2614.01L2598.54 1092H2588.01ZM2640.22 1092.91C2634.15 1092.91 2629.43 1091.39 2626.05 1088.36C2622.75 1085.24 2621.11 1080.95 2621.11 1075.49V1040.91C2621.11 1035.45 2622.75 1031.2 2626.05 1028.17C2629.43 1025.05 2634.15 1023.49 2640.22 1023.49C2646.28 1023.49 2650.96 1025.05 2654.26 1028.17C2657.64 1031.2 2659.33 1035.45 2659.33 1040.91V1075.49C2659.33 1080.95 2657.64 1085.24 2654.26 1088.36C2650.96 1091.39 2646.28 1092.91 2640.22 1092.91ZM2640.22 1084.85C2642.99 1084.85 2645.16 1084.07 2646.72 1082.51C2648.36 1080.86 2649.19 1078.52 2649.19 1075.49V1040.91C2649.19 1037.88 2648.36 1035.58 2646.72 1034.02C2645.16 1032.37 2642.99 1031.55 2640.22 1031.55C2637.44 1031.55 2635.23 1032.37 2633.59 1034.02C2632.03 1035.58 2631.25 1037.88 2631.25 1040.91V1075.49C2631.25 1078.52 2632.03 1080.86 2633.59 1082.51C2635.23 1084.07 2637.44 1084.85 2640.22 1084.85Z" fill="white"/>
<path d="M1703 1092V474H1172.3V910.496H1521.5V648.599H1346.9V735.898H1434.2V823.197H1259.6V561.299H1608.8V997.796H1085V1092H1703Z" fill="white"/>
</svg>
