<svg width="3745" height="1780" viewBox="0 0 3745 1780" fill="none" xmlns="http://www.w3.org/2000/svg">
<rect width="3745" height="1780" fill="black"/>
<path d="M1499.6 707V567H1517.2V707H1499.6ZM1543.88 603H1556.28L1558.08 608.8L1566.28 606.4C1571.88 604.667 1576.28 603.467 1579.48 602.8C1582.81 602 1585.94 601.6 1588.88 601.6C1593.68 601.6 1597.21 603.267 1599.48 606.6C1601.74 609.933 1602.88 614.267 1602.88 619.6V707H1586.88V624.8C1586.88 620.933 1586.61 618.267 1586.08 616.8C1585.54 615.2 1584.21 614.4 1582.08 614.4C1581.01 614.4 1573.61 616.533 1559.88 620.8V707H1543.88V603ZM1654.13 707C1646.79 707 1640.99 704.8 1636.73 700.4C1632.46 696 1630.33 690.067 1630.33 682.6V615H1618.33V603H1630.33V572.8L1646.33 566.8V603H1662.33V615H1646.33V684C1646.33 687.2 1647.19 689.867 1648.93 692C1650.79 694 1653.26 695 1656.33 695H1662.33V707H1654.13ZM1699.05 707C1691.72 707 1685.85 704.8 1681.45 700.4C1677.18 696 1675.05 690.067 1675.05 682.6V629.4C1675.05 620.733 1677.45 613.933 1682.25 609C1687.05 604.067 1694.18 601.6 1703.65 601.6C1713.12 601.6 1720.18 604.067 1724.85 609C1729.65 613.933 1732.05 620.733 1732.05 629.4V638.6C1732.05 644.2 1730.45 648.467 1727.25 651.4C1724.05 654.2 1719.85 656.333 1714.65 657.8L1691.05 664.4V684C1691.05 687.2 1691.98 689.867 1693.85 692C1695.85 694 1698.38 695 1701.45 695H1723.05V707H1699.05ZM1703.25 648.4C1707.65 647.2 1710.58 646.333 1712.05 645.8C1713.65 645.133 1714.72 644.2 1715.25 643C1715.78 641.8 1716.05 639.8 1716.05 637V626C1716.05 621.733 1714.92 618.6 1712.65 616.6C1710.52 614.6 1707.52 613.6 1703.65 613.6C1699.92 613.6 1696.85 614.667 1694.45 616.8C1692.18 618.933 1691.05 622 1691.05 626V651.8L1703.25 648.4ZM1747.98 603H1760.38L1762.18 610.4L1767.18 608C1771.44 605.867 1774.98 604.267 1777.78 603.2C1780.71 602.133 1783.64 601.6 1786.58 601.6V613.4C1784.84 613.4 1782.51 613.933 1779.58 615C1776.64 615.933 1771.44 618.2 1763.98 621.8V707H1747.98V603ZM1822.69 707C1817.89 707 1813.43 705.8 1809.29 703.4C1805.29 701 1802.09 697.733 1799.69 693.6C1797.43 689.467 1796.29 684.8 1796.29 679.6V669.2C1796.29 662.933 1797.83 657.667 1800.89 653.4C1804.09 649.133 1808.03 646.133 1812.69 644.4L1837.49 635.2V625.8C1837.49 622.6 1836.49 620 1834.49 618C1832.63 615.867 1830.16 614.8 1827.09 614.8H1804.49V603H1828.49C1835.83 603 1841.63 605.2 1845.89 609.6C1850.29 613.867 1852.49 619.733 1852.49 627.2V707H1822.69ZM1837.49 694.8V647.8L1819.89 654.4C1816.43 655.733 1813.96 657.533 1812.49 659.8C1811.16 662.067 1810.49 665.667 1810.49 670.6V681.8C1810.49 685.4 1811.83 688.467 1814.49 691C1817.16 693.533 1820.36 694.8 1824.09 694.8H1837.49ZM1896.54 707C1889.21 707 1883.34 704.8 1878.94 700.4C1874.67 696 1872.54 690.067 1872.54 682.6V629.4C1872.54 621 1874.74 614.533 1879.14 610C1883.54 605.333 1889.94 603 1898.34 603H1920.54V615H1898.74C1895.67 615 1893.21 616.067 1891.34 618.2C1889.47 620.2 1888.54 622.8 1888.54 626V684C1888.54 687.2 1889.47 689.867 1891.34 692C1893.34 694 1895.87 695 1898.94 695H1920.54V707H1896.54ZM1963.5 707C1956.17 707 1950.37 704.8 1946.1 700.4C1941.83 696 1939.7 690.067 1939.7 682.6V615H1927.7V603H1939.7V572.8L1955.7 566.8V603H1971.7V615H1955.7V684C1955.7 687.2 1956.57 689.867 1958.3 692C1960.17 694 1962.63 695 1965.7 695H1971.7V707H1963.5ZM1987.63 586V570H2003.63V586H1987.63ZM1987.63 707V603H2003.63V707H1987.63ZM2042.46 707L2018.66 603H2035.26L2050.66 686.8L2065.86 603H2082.46L2058.66 707H2042.46ZM2118.19 707C2110.86 707 2104.99 704.8 2100.59 700.4C2096.32 696 2094.19 690.067 2094.19 682.6V629.4C2094.19 620.733 2096.59 613.933 2101.39 609C2106.19 604.067 2113.32 601.6 2122.79 601.6C2132.26 601.6 2139.32 604.067 2143.99 609C2148.79 613.933 2151.19 620.733 2151.19 629.4V638.6C2151.19 644.2 2149.59 648.467 2146.39 651.4C2143.19 654.2 2138.99 656.333 2133.79 657.8L2110.19 664.4V684C2110.19 687.2 2111.12 689.867 2112.99 692C2114.99 694 2117.52 695 2120.59 695H2142.19V707H2118.19ZM2122.39 648.4C2126.79 647.2 2129.72 646.333 2131.19 645.8C2132.79 645.133 2133.86 644.2 2134.39 643C2134.92 641.8 2135.19 639.8 2135.19 637V626C2135.19 621.733 2134.06 618.6 2131.79 616.6C2129.66 614.6 2126.66 613.6 2122.79 613.6C2119.06 613.6 2115.99 614.667 2113.59 616.8C2111.32 618.933 2110.19 622 2110.19 626V651.8L2122.39 648.4ZM2197.4 693.8H2219.2C2226.8 693.8 2232.26 691.533 2235.6 687C2239.06 682.467 2240.8 676.867 2240.8 670.2C2240.8 665 2239.8 660.533 2237.8 656.8C2235.93 652.933 2233.6 649.733 2230.8 647.2C2228 644.667 2224.2 641.733 2219.4 638.4C2214.33 634.933 2210.2 631.8 2207 629C2203.93 626.067 2201.33 622.4 2199.2 618C2197.06 613.6 2196 608.333 2196 602.2C2196 591.533 2199.2 583 2205.6 576.6C2212 570.2 2220.86 567 2232.2 567H2248.4V580.2H2233C2226.6 580.2 2221.73 582.267 2218.4 586.4C2215.06 590.533 2213.4 595.333 2213.4 600.8C2213.4 606.133 2214.93 610.533 2218 614C2221.06 617.467 2225.73 621.4 2232 625.8C2237.73 629.933 2242.33 633.667 2245.8 637C2249.26 640.2 2252.2 644.467 2254.6 649.8C2257.13 655.133 2258.4 661.533 2258.4 669C2258.4 681.533 2254.8 691 2247.6 697.4C2240.53 703.8 2230.8 707 2218.4 707H2197.4V693.8ZM2304.32 707C2296.99 707 2291.19 704.8 2286.92 700.4C2282.65 696 2280.52 690.067 2280.52 682.6V615H2268.52V603H2280.52V572.8L2296.52 566.8V603H2312.52V615H2296.52V684C2296.52 687.2 2297.39 689.867 2299.12 692C2300.99 694 2303.45 695 2306.52 695H2312.52V707H2304.32ZM2353.85 708.4C2344.51 708.4 2337.25 706.067 2332.05 701.4C2326.98 696.6 2324.45 690 2324.45 681.6V628.4C2324.45 620 2326.98 613.467 2332.05 608.8C2337.25 604 2344.51 601.6 2353.85 601.6C2363.18 601.6 2370.38 604 2375.45 608.8C2380.65 613.467 2383.25 620 2383.25 628.4V681.6C2383.25 690 2380.65 696.6 2375.45 701.4C2370.38 706.067 2363.18 708.4 2353.85 708.4ZM2353.85 696C2358.11 696 2361.45 694.8 2363.85 692.4C2366.38 689.867 2367.65 686.267 2367.65 681.6V628.4C2367.65 623.733 2366.38 620.2 2363.85 617.8C2361.45 615.267 2358.11 614 2353.85 614C2349.58 614 2346.18 615.267 2343.65 617.8C2341.25 620.2 2340.05 623.733 2340.05 628.4V681.6C2340.05 686.267 2341.25 689.867 2343.65 692.4C2346.18 694.8 2349.58 696 2353.85 696ZM2403.25 603H2415.65L2417.45 610.4L2422.45 608C2426.72 605.867 2430.25 604.267 2433.05 603.2C2435.98 602.133 2438.92 601.6 2441.85 601.6V613.4C2440.12 613.4 2437.78 613.933 2434.85 615C2431.92 615.933 2426.72 618.2 2419.25 621.8V707H2403.25V603ZM2456.17 727H2462.37C2465.97 727 2469.23 725.267 2472.17 721.8C2475.1 718.467 2476.57 713.467 2476.57 706.8L2448.77 603H2465.37L2482.77 687.4L2496.77 603H2512.57L2488.17 719C2485.37 732.333 2477.63 739 2464.97 739H2456.17V727ZM2556.47 707C2549.14 707 2543.34 704.8 2539.07 700.4C2534.8 696 2532.67 690.067 2532.67 682.6V615H2520.67V603H2532.67V572.8L2548.67 566.8V603H2564.67V615H2548.67V684C2548.67 687.2 2549.54 689.867 2551.27 692C2553.14 694 2555.6 695 2558.67 695H2564.67V707H2556.47ZM2601.39 707C2594.06 707 2588.19 704.8 2583.79 700.4C2579.53 696 2577.39 690.067 2577.39 682.6V629.4C2577.39 620.733 2579.79 613.933 2584.59 609C2589.39 604.067 2596.53 601.6 2605.99 601.6C2615.46 601.6 2622.53 604.067 2627.19 609C2631.99 613.933 2634.39 620.733 2634.39 629.4V638.6C2634.39 644.2 2632.79 648.467 2629.59 651.4C2626.39 654.2 2622.19 656.333 2616.99 657.8L2593.39 664.4V684C2593.39 687.2 2594.33 689.867 2596.19 692C2598.19 694 2600.73 695 2603.79 695H2625.39V707H2601.39ZM2605.59 648.4C2609.99 647.2 2612.93 646.333 2614.39 645.8C2615.99 645.133 2617.06 644.2 2617.59 643C2618.13 641.8 2618.39 639.8 2618.39 637V626C2618.39 621.733 2617.26 618.6 2614.99 616.6C2612.86 614.6 2609.86 613.6 2605.99 613.6C2602.26 613.6 2599.19 614.667 2596.79 616.8C2594.53 618.933 2593.39 622 2593.39 626V651.8L2605.59 648.4ZM2650.52 707V567H2666.52V707H2650.52ZM2690.56 707V567H2706.56V707H2690.56ZM2730.4 586V570H2746.4V586H2730.4ZM2730.4 707V603H2746.4V707H2730.4ZM2770.44 603H2782.84L2784.64 608.8L2792.84 606.4C2798.44 604.667 2802.84 603.467 2806.04 602.8C2809.37 602 2812.5 601.6 2815.44 601.6C2820.24 601.6 2823.77 603.267 2826.04 606.6C2828.3 609.933 2829.44 614.267 2829.44 619.6V707H2813.44V624.8C2813.44 620.933 2813.17 618.267 2812.64 616.8C2812.1 615.2 2810.77 614.4 2808.64 614.4C2807.57 614.4 2800.17 616.533 2786.44 620.8V707H2770.44V603ZM2860.09 727H2880.69C2883.75 727 2886.15 725.933 2887.89 723.8C2889.75 721.8 2890.69 719.2 2890.69 716V707.2H2874.09C2866.75 707.2 2860.55 704.8 2855.49 700C2850.42 695.2 2847.89 689.2 2847.89 682V628.2C2847.89 621 2850.42 615 2855.49 610.2C2860.69 605.4 2866.95 603 2874.29 603H2906.89V714.6C2906.89 722.067 2904.82 728 2900.69 732.4C2896.69 736.8 2891.02 739 2883.69 739H2860.09V727ZM2890.89 695.2V615H2877.49C2873.75 615 2870.55 616.267 2867.89 618.8C2865.22 621.333 2863.89 624.467 2863.89 628.2V682C2863.89 685.733 2865.22 688.867 2867.89 691.4C2870.55 693.933 2873.75 695.2 2877.49 695.2H2890.89Z" fill="white"/>
<path d="M1515.42 870.91C1507.36 870.91 1501.21 868.873 1496.96 864.8C1492.71 860.64 1490.59 854.877 1490.59 847.51V801.49C1490.59 794.123 1492.71 788.403 1496.96 784.33C1501.21 780.17 1507.36 778.09 1515.42 778.09C1523.57 778.09 1529.76 780.17 1534.01 784.33C1538.26 788.403 1540.38 794.123 1540.38 801.49V847.51C1540.38 854.877 1538.26 860.64 1534.01 864.8C1529.76 868.873 1523.57 870.91 1515.42 870.91ZM1515.42 862.33C1519.23 862.33 1522.44 861.247 1525.04 859.08C1527.64 856.827 1528.94 853.707 1528.94 849.72V799.28C1528.94 795.293 1527.64 792.217 1525.04 790.05C1522.44 787.797 1519.23 786.67 1515.42 786.67C1511.61 786.67 1508.4 787.797 1505.8 790.05C1503.29 792.217 1502.03 795.293 1502.03 799.28V849.72C1502.03 853.707 1503.29 856.827 1505.8 859.08C1508.4 861.247 1511.61 862.33 1515.42 862.33ZM1573.42 870V779H1583.82V870H1573.42ZM1599.31 791.35V780.95H1609.71V791.35H1599.31ZM1599.31 870V802.4H1609.71V870H1599.31ZM1634.96 870L1619.49 802.4H1630.28L1640.29 856.87L1650.17 802.4H1660.96L1645.49 870H1634.96ZM1670.66 802.4H1678.72L1679.89 807.21L1683.14 805.65C1685.91 804.263 1688.21 803.223 1690.03 802.53C1691.94 801.837 1693.84 801.49 1695.75 801.49V809.16C1694.62 809.16 1693.11 809.507 1691.2 810.2C1689.29 810.807 1685.91 812.28 1681.06 814.62V870H1670.66V802.4ZM1721.96 870.91C1715.89 870.91 1711.17 869.393 1707.79 866.36C1704.49 863.24 1702.85 858.95 1702.85 853.49V818.91C1702.85 813.45 1704.49 809.203 1707.79 806.17C1711.17 803.05 1715.89 801.49 1721.96 801.49C1728.02 801.49 1732.7 803.05 1736 806.17C1739.38 809.203 1741.07 813.45 1741.07 818.91V853.49C1741.07 858.95 1739.38 863.24 1736 866.36C1732.7 869.393 1728.02 870.91 1721.96 870.91ZM1721.96 862.85C1724.73 862.85 1726.9 862.07 1728.46 860.51C1730.1 858.863 1730.93 856.523 1730.93 853.49V818.91C1730.93 815.877 1730.1 813.58 1728.46 812.02C1726.9 810.373 1724.73 809.55 1721.96 809.55C1719.18 809.55 1716.97 810.373 1715.33 812.02C1713.77 813.58 1712.99 815.877 1712.99 818.91V853.49C1712.99 856.523 1713.77 858.863 1715.33 860.51C1716.97 862.07 1719.18 862.85 1721.96 862.85ZM1746.92 844.78V836.2H1777.08V844.78H1746.92ZM1804.4 870C1799.64 870 1795.87 868.57 1793.09 865.71C1790.32 862.85 1788.93 858.993 1788.93 854.14V810.2H1781.13V802.4H1788.93V782.77L1799.33 778.87V802.4H1809.73V810.2H1799.33V855.05C1799.33 857.13 1799.9 858.863 1801.02 860.25C1802.24 861.55 1803.84 862.2 1805.83 862.2H1809.73V870H1804.4ZM1833.61 870C1828.84 870 1825.03 868.57 1822.17 865.71C1819.39 862.85 1818.01 858.993 1818.01 854.14V819.56C1818.01 813.927 1819.57 809.507 1822.69 806.3C1825.81 803.093 1830.44 801.49 1836.6 801.49C1842.75 801.49 1847.34 803.093 1850.38 806.3C1853.5 809.507 1855.06 813.927 1855.06 819.56V825.54C1855.06 829.18 1854.02 831.953 1851.94 833.86C1849.86 835.68 1847.13 837.067 1843.75 838.02L1828.41 842.31V855.05C1828.41 857.13 1829.01 858.863 1830.23 860.25C1831.53 861.55 1833.17 862.2 1835.17 862.2H1849.21V870H1833.61ZM1836.34 831.91C1839.2 831.13 1841.1 830.567 1842.06 830.22C1843.1 829.787 1843.79 829.18 1844.14 828.4C1844.48 827.62 1844.66 826.32 1844.66 824.5V817.35C1844.66 814.577 1843.92 812.54 1842.45 811.24C1841.06 809.94 1839.11 809.29 1836.6 809.29C1834.17 809.29 1832.18 809.983 1830.62 811.37C1829.14 812.757 1828.41 814.75 1828.41 817.35V834.12L1836.34 831.91ZM1858.91 870L1877.63 836.07L1860.21 802.4H1870.22L1882.44 826.32L1894.79 802.4H1904.8L1887.38 836.07L1906.1 870H1895.18L1882.44 845.3L1869.83 870H1858.91ZM1933.39 870C1928.62 870 1924.85 868.57 1922.08 865.71C1919.3 862.85 1917.92 858.993 1917.92 854.14V810.2H1910.12V802.4H1917.92V782.77L1928.32 778.87V802.4H1938.72V810.2H1928.32V855.05C1928.32 857.13 1928.88 858.863 1930.01 860.25C1931.22 861.55 1932.82 862.2 1934.82 862.2H1938.72V870H1933.39ZM1965.58 870.91C1959.51 870.91 1954.79 869.393 1951.41 866.36C1948.12 863.24 1946.47 858.95 1946.47 853.49V818.91C1946.47 813.45 1948.12 809.203 1951.41 806.17C1954.79 803.05 1959.51 801.49 1965.58 801.49C1971.65 801.49 1976.33 803.05 1979.62 806.17C1983 809.203 1984.69 813.45 1984.69 818.91V853.49C1984.69 858.95 1983 863.24 1979.62 866.36C1976.33 869.393 1971.65 870.91 1965.58 870.91ZM1965.58 862.85C1968.35 862.85 1970.52 862.07 1972.08 860.51C1973.73 858.863 1974.55 856.523 1974.55 853.49V818.91C1974.55 815.877 1973.73 813.58 1972.08 812.02C1970.52 810.373 1968.35 809.55 1965.58 809.55C1962.81 809.55 1960.6 810.373 1958.95 812.02C1957.39 813.58 1956.61 815.877 1956.61 818.91V853.49C1956.61 856.523 1957.39 858.863 1958.95 860.51C1960.6 862.07 1962.81 862.85 1965.58 862.85ZM2017.24 791.35V780.95H2027.64V791.35H2017.24ZM2017.24 870V802.4H2027.64V870H2017.24ZM2043.27 802.4H2051.33L2052.5 806.17L2057.83 804.61C2061.47 803.483 2064.33 802.703 2066.41 802.27C2068.58 801.75 2070.61 801.49 2072.52 801.49C2075.64 801.49 2077.94 802.573 2079.41 804.74C2080.88 806.907 2081.62 809.723 2081.62 813.19V870H2071.22V816.57C2071.22 814.057 2071.05 812.323 2070.7 811.37C2070.35 810.33 2069.49 809.81 2068.1 809.81C2067.41 809.81 2062.6 811.197 2053.67 813.97V870H2043.27V802.4ZM2114.93 870C2110.16 870 2106.39 868.57 2103.62 865.71C2100.85 862.85 2099.46 858.993 2099.46 854.14V810.2H2091.66V802.4H2099.46V782.77L2109.86 778.87V802.4H2120.26V810.2H2109.86V855.05C2109.86 857.13 2110.42 858.863 2111.55 860.25C2112.76 861.55 2114.37 862.2 2116.36 862.2H2120.26V870H2114.93ZM2144.13 870C2139.37 870 2135.55 868.57 2132.69 865.71C2129.92 862.85 2128.53 858.993 2128.53 854.14V819.56C2128.53 813.927 2130.09 809.507 2133.21 806.3C2136.33 803.093 2140.97 801.49 2147.12 801.49C2153.28 801.49 2157.87 803.093 2160.9 806.3C2164.02 809.507 2165.58 813.927 2165.58 819.56V825.54C2165.58 829.18 2164.54 831.953 2162.46 833.86C2160.38 835.68 2157.65 837.067 2154.27 838.02L2138.93 842.31V855.05C2138.93 857.13 2139.54 858.863 2140.75 860.25C2142.05 861.55 2143.7 862.2 2145.69 862.2H2159.73V870H2144.13ZM2146.86 831.91C2149.72 831.13 2151.63 830.567 2152.58 830.22C2153.62 829.787 2154.32 829.18 2154.66 828.4C2155.01 827.62 2155.18 826.32 2155.18 824.5V817.35C2155.18 814.577 2154.45 812.54 2152.97 811.24C2151.59 809.94 2149.64 809.29 2147.12 809.29C2144.7 809.29 2142.7 809.983 2141.14 811.37C2139.67 812.757 2138.93 814.75 2138.93 817.35V834.12L2146.86 831.91ZM2175.93 802.4H2183.99L2185.16 807.21L2188.41 805.65C2191.19 804.263 2193.48 803.223 2195.3 802.53C2197.21 801.837 2199.12 801.49 2201.02 801.49V809.16C2199.9 809.16 2198.38 809.507 2196.47 810.2C2194.57 810.807 2191.19 812.28 2186.33 814.62V870H2175.93V802.4ZM2224.5 870C2221.38 870 2218.48 869.22 2215.79 867.66C2213.19 866.1 2211.11 863.977 2209.55 861.29C2208.08 858.603 2207.34 855.57 2207.34 852.19V845.43C2207.34 841.357 2208.34 837.933 2210.33 835.16C2212.41 832.387 2214.97 830.437 2218 829.31L2234.12 823.33V817.22C2234.12 815.14 2233.47 813.45 2232.17 812.15C2230.96 810.763 2229.35 810.07 2227.36 810.07H2212.67V802.4H2228.27C2233.04 802.4 2236.81 803.83 2239.58 806.69C2242.44 809.463 2243.87 813.277 2243.87 818.13V870H2224.5ZM2234.12 862.07V831.52L2222.68 835.81C2220.43 836.677 2218.82 837.847 2217.87 839.32C2217 840.793 2216.57 843.133 2216.57 846.34V853.62C2216.57 855.96 2217.44 857.953 2219.17 859.6C2220.9 861.247 2222.98 862.07 2225.41 862.07H2234.12ZM2277.05 870C2272.28 870 2268.51 868.57 2265.74 865.71C2262.97 862.85 2261.58 858.993 2261.58 854.14V810.2H2253.78V802.4H2261.58V782.77L2271.98 778.87V802.4H2282.38V810.2H2271.98V855.05C2271.98 857.13 2272.54 858.863 2273.67 860.25C2274.88 861.55 2276.49 862.2 2278.48 862.2H2282.38V870H2277.05ZM2292.73 791.35V780.95H2303.13V791.35H2292.73ZM2292.73 870V802.4H2303.13V870H2292.73ZM2328.38 870L2312.91 802.4H2323.7L2333.71 856.87L2343.59 802.4H2354.38L2338.91 870H2328.38ZM2380.59 870.91C2374.52 870.91 2369.8 869.393 2366.42 866.36C2363.13 863.24 2361.48 858.95 2361.48 853.49V818.91C2361.48 813.45 2363.13 809.203 2366.42 806.17C2369.8 803.05 2374.52 801.49 2380.59 801.49C2386.66 801.49 2391.34 803.05 2394.63 806.17C2398.01 809.203 2399.7 813.45 2399.7 818.91V853.49C2399.7 858.95 2398.01 863.24 2394.63 866.36C2391.34 869.393 2386.66 870.91 2380.59 870.91ZM2380.59 862.85C2383.36 862.85 2385.53 862.07 2387.09 860.51C2388.74 858.863 2389.56 856.523 2389.56 853.49V818.91C2389.56 815.877 2388.74 813.58 2387.09 812.02C2385.53 810.373 2383.36 809.55 2380.59 809.55C2377.82 809.55 2375.61 810.373 2373.96 812.02C2372.4 813.58 2371.62 815.877 2371.62 818.91V853.49C2371.62 856.523 2372.4 858.863 2373.96 860.51C2375.61 862.07 2377.82 862.85 2380.59 862.85ZM2410.23 815.92V802.53H2420.63V815.92H2410.23ZM2410.23 870V856.61H2420.63V870H2410.23ZM2467.11 870C2463.99 870 2461.08 869.22 2458.4 867.66C2455.8 866.1 2453.72 863.977 2452.16 861.29C2450.68 858.603 2449.95 855.57 2449.95 852.19V845.43C2449.95 841.357 2450.94 837.933 2452.94 835.16C2455.02 832.387 2457.57 830.437 2460.61 829.31L2476.73 823.33V817.22C2476.73 815.14 2476.08 813.45 2474.78 812.15C2473.56 810.763 2471.96 810.07 2469.97 810.07H2455.28V802.4H2470.88C2475.64 802.4 2479.41 803.83 2482.19 806.69C2485.05 809.463 2486.48 813.277 2486.48 818.13V870H2467.11ZM2476.73 862.07V831.52L2465.29 835.81C2463.03 836.677 2461.43 837.847 2460.48 839.32C2459.61 840.793 2459.18 843.133 2459.18 846.34V853.62C2459.18 855.96 2460.04 857.953 2461.78 859.6C2463.51 861.247 2465.59 862.07 2468.02 862.07H2476.73ZM2500.81 802.4H2508.87L2510.04 807.21L2513.29 805.65C2516.06 804.263 2518.36 803.223 2520.18 802.53C2522.08 801.837 2523.99 801.49 2525.9 801.49V809.16C2524.77 809.16 2523.25 809.507 2521.35 810.2C2519.44 810.807 2516.06 812.28 2511.21 814.62V870H2500.81V802.4ZM2554.44 870C2549.68 870 2545.91 868.57 2543.13 865.71C2540.36 862.85 2538.97 858.993 2538.97 854.14V810.2H2531.17V802.4H2538.97V782.77L2549.37 778.87V802.4H2559.77V810.2H2549.37V855.05C2549.37 857.13 2549.94 858.863 2551.06 860.25C2552.28 861.55 2553.88 862.2 2555.87 862.2H2559.77V870H2554.44ZM2570.12 791.35V780.95H2580.52V791.35H2570.12ZM2570.12 870V802.4H2580.52V870H2570.12ZM2601.61 883H2615C2616.99 883 2618.55 882.307 2619.68 880.92C2620.89 879.62 2621.5 877.93 2621.5 875.85V870.13H2610.71C2605.94 870.13 2601.91 868.57 2598.62 865.45C2595.33 862.33 2593.68 858.43 2593.68 853.75V818.78C2593.68 814.1 2595.33 810.2 2598.62 807.08C2602 803.96 2606.07 802.4 2610.84 802.4H2632.03V874.94C2632.03 879.793 2630.69 883.65 2628 886.51C2625.4 889.37 2621.72 890.8 2616.95 890.8H2601.61V883ZM2621.63 862.33V810.2H2612.92C2610.49 810.2 2608.41 811.023 2606.68 812.67C2604.95 814.317 2604.08 816.353 2604.08 818.78V853.75C2604.08 856.177 2604.95 858.213 2606.68 859.86C2608.41 861.507 2610.49 862.33 2612.92 862.33H2621.63ZM2662.81 870.91C2656.74 870.91 2652.02 869.393 2648.64 866.36C2645.34 863.24 2643.7 858.95 2643.7 853.49V818.91C2643.7 813.45 2645.34 809.203 2648.64 806.17C2652.02 803.05 2656.74 801.49 2662.81 801.49C2668.87 801.49 2673.55 803.05 2676.85 806.17C2680.23 809.203 2681.92 813.45 2681.92 818.91V853.49C2681.92 858.95 2680.23 863.24 2676.85 866.36C2673.55 869.393 2668.87 870.91 2662.81 870.91ZM2662.81 862.85C2665.58 862.85 2667.75 862.07 2669.31 860.51C2670.95 858.863 2671.78 856.523 2671.78 853.49V818.91C2671.78 815.877 2670.95 813.58 2669.31 812.02C2667.75 810.373 2665.58 809.55 2662.81 809.55C2660.03 809.55 2657.82 810.373 2656.18 812.02C2654.62 813.58 2653.84 815.877 2653.84 818.91V853.49C2653.84 856.523 2654.62 858.863 2656.18 860.51C2657.82 862.07 2660.03 862.85 2662.81 862.85ZM2691.02 862.2H2702.07C2705.8 862.2 2708.48 861.203 2710.13 859.21C2711.86 857.13 2712.73 854.443 2712.73 851.15C2712.73 848.55 2711.95 846.34 2710.39 844.52C2708.83 842.7 2706.49 840.577 2703.37 838.15C2700.68 835.983 2698.52 834.12 2696.87 832.56C2695.31 830.913 2693.92 828.92 2692.71 826.58C2691.58 824.153 2691.02 821.38 2691.02 818.26C2691.02 813.667 2692.54 809.897 2695.57 806.95C2698.69 803.917 2702.85 802.4 2708.05 802.4H2719.36V810.2H2710C2703.85 810.2 2700.77 813.103 2700.77 818.91C2700.77 821.163 2701.46 823.113 2702.85 824.76C2704.24 826.407 2706.4 828.357 2709.35 830.61C2712.04 832.69 2714.25 834.597 2715.98 836.33C2717.71 837.977 2719.19 840.1 2720.4 842.7C2721.61 845.213 2722.22 848.203 2722.22 851.67C2722.22 857.823 2720.57 862.417 2717.28 865.45C2714.07 868.483 2709.52 870 2703.63 870H2691.02V862.2ZM1507.1 1000C1502.33 1000 1498.52 998.57 1495.66 995.71C1492.89 992.85 1491.5 988.993 1491.5 984.14V949.56C1491.5 944.1 1492.93 939.897 1495.79 936.95C1498.65 933.917 1502.81 932.4 1508.27 932.4H1522.7V940.2H1508.53C1506.54 940.2 1504.93 940.893 1503.72 942.28C1502.51 943.58 1501.9 945.27 1501.9 947.35V985.05C1501.9 987.13 1502.51 988.863 1503.72 990.25C1505.02 991.55 1506.67 992.2 1508.66 992.2H1522.7V1000H1507.1ZM1531.77 921.35V910.95H1542.17V921.35H1531.77ZM1531.77 1000V932.4H1542.17V1000H1531.77ZM1571.32 1000C1566.55 1000 1562.74 998.57 1559.88 995.71C1557.11 992.85 1555.72 988.993 1555.72 984.14V949.56C1555.72 943.927 1557.28 939.507 1560.4 936.3C1563.52 933.093 1568.16 931.49 1574.31 931.49C1580.46 931.49 1585.06 933.093 1588.09 936.3C1591.21 939.507 1592.77 943.927 1592.77 949.56V955.54C1592.77 959.18 1591.73 961.953 1589.65 963.86C1587.57 965.68 1584.84 967.067 1581.46 968.02L1566.12 972.31V985.05C1566.12 987.13 1566.73 988.863 1567.94 990.25C1569.24 991.55 1570.89 992.2 1572.88 992.2H1586.92V1000H1571.32ZM1574.05 961.91C1576.91 961.13 1578.82 960.567 1579.77 960.22C1580.81 959.787 1581.5 959.18 1581.85 958.4C1582.2 957.62 1582.37 956.32 1582.37 954.5V947.35C1582.37 944.577 1581.63 942.54 1580.16 941.24C1578.77 939.94 1576.82 939.29 1574.31 939.29C1571.88 939.29 1569.89 939.983 1568.33 941.37C1566.86 942.757 1566.12 944.75 1566.12 947.35V964.12L1574.05 961.91ZM1603.12 932.4H1611.18L1612.35 936.17L1617.68 934.61C1621.32 933.483 1624.18 932.703 1626.26 932.27C1628.43 931.75 1630.47 931.49 1632.37 931.49C1635.49 931.49 1637.79 932.573 1639.26 934.74C1640.74 936.907 1641.47 939.723 1641.47 943.19V1000H1631.07V946.57C1631.07 944.057 1630.9 942.323 1630.55 941.37C1630.21 940.33 1629.34 939.81 1627.95 939.81C1627.26 939.81 1622.45 941.197 1613.52 943.97V1000H1603.12V932.4ZM1674.78 1000C1670.02 1000 1666.25 998.57 1663.47 995.71C1660.7 992.85 1659.31 988.993 1659.31 984.14V940.2H1651.51V932.4H1659.31V912.77L1669.71 908.87V932.4H1680.11V940.2H1669.71V985.05C1669.71 987.13 1670.28 988.863 1671.4 990.25C1672.62 991.55 1674.22 992.2 1676.21 992.2H1680.11V1000H1674.78ZM1693.33 927.33L1689.04 923.43L1704.12 910.56L1710.75 916.67L1693.33 927.33ZM1690.47 1000V932.4H1700.87V1000H1690.47ZM1719.74 940.98H1711.94V932.4H1719.74V924.86C1719.74 920.007 1721.13 916.15 1723.9 913.29C1726.67 910.43 1730.44 909 1735.21 909H1740.93V916.8H1737.03C1735.04 916.8 1733.39 917.493 1732.09 918.88C1730.79 920.267 1730.14 921.957 1730.14 923.95V932.4H1740.67V940.98H1730.14V1000H1719.74V940.98ZM1749.12 921.35V910.95H1759.52V921.35H1749.12ZM1749.12 1000V932.4H1759.52V1000H1749.12ZM1789.44 1000C1784.68 1000 1780.86 998.57 1778 995.71C1775.23 992.85 1773.84 988.993 1773.84 984.14V949.56C1773.84 944.1 1775.27 939.897 1778.13 936.95C1780.99 933.917 1785.15 932.4 1790.61 932.4H1805.04V940.2H1790.87C1788.88 940.2 1787.28 940.893 1786.06 942.28C1784.85 943.58 1784.24 945.27 1784.24 947.35V985.05C1784.24 987.13 1784.85 988.863 1786.06 990.25C1787.36 991.55 1789.01 992.2 1791 992.2H1805.04V1000H1789.44ZM1830.63 1000.91C1824.56 1000.91 1819.84 999.393 1816.46 996.36C1813.17 993.24 1811.52 988.95 1811.52 983.49V948.91C1811.52 943.45 1813.17 939.203 1816.46 936.17C1819.84 933.05 1824.56 931.49 1830.63 931.49C1836.7 931.49 1841.38 933.05 1844.67 936.17C1848.05 939.203 1849.74 943.45 1849.74 948.91V983.49C1849.74 988.95 1848.05 993.24 1844.67 996.36C1841.38 999.393 1836.7 1000.91 1830.63 1000.91ZM1830.63 992.85C1833.4 992.85 1835.57 992.07 1837.13 990.51C1838.78 988.863 1839.6 986.523 1839.6 983.49V948.91C1839.6 945.877 1838.78 943.58 1837.13 942.02C1835.57 940.373 1833.4 939.55 1830.63 939.55C1827.86 939.55 1825.65 940.373 1824 942.02C1822.44 943.58 1821.66 945.877 1821.66 948.91V983.49C1821.66 986.523 1822.44 988.863 1824 990.51C1825.65 992.07 1827.86 992.85 1830.63 992.85ZM1858.84 992.2H1869.89C1873.62 992.2 1876.3 991.203 1877.95 989.21C1879.68 987.13 1880.55 984.443 1880.55 981.15C1880.55 978.55 1879.77 976.34 1878.21 974.52C1876.65 972.7 1874.31 970.577 1871.19 968.15C1868.5 965.983 1866.34 964.12 1864.69 962.56C1863.13 960.913 1861.74 958.92 1860.53 956.58C1859.4 954.153 1858.84 951.38 1858.84 948.26C1858.84 943.667 1860.36 939.897 1863.39 936.95C1866.51 933.917 1870.67 932.4 1875.87 932.4H1887.18V940.2H1877.82C1871.67 940.2 1868.59 943.103 1868.59 948.91C1868.59 951.163 1869.28 953.113 1870.67 954.76C1872.06 956.407 1874.22 958.357 1877.17 960.61C1879.86 962.69 1882.07 964.597 1883.8 966.33C1885.53 967.977 1887.01 970.1 1888.22 972.7C1889.43 975.213 1890.04 978.203 1890.04 981.67C1890.04 987.823 1888.39 992.417 1885.1 995.45C1881.89 998.483 1877.34 1000 1871.45 1000H1858.84V992.2ZM1934.79 1000C1930.02 1000 1926.21 998.57 1923.35 995.71C1920.57 992.85 1919.19 988.993 1919.19 984.14V949.56C1919.19 943.927 1920.75 939.507 1923.87 936.3C1926.99 933.093 1931.62 931.49 1937.78 931.49C1943.93 931.49 1948.52 933.093 1951.56 936.3C1954.68 939.507 1956.24 943.927 1956.24 949.56V955.54C1956.24 959.18 1955.2 961.953 1953.12 963.86C1951.04 965.68 1948.31 967.067 1944.93 968.02L1929.59 972.31V985.05C1929.59 987.13 1930.19 988.863 1931.41 990.25C1932.71 991.55 1934.35 992.2 1936.35 992.2H1950.39V1000H1934.79ZM1937.52 961.91C1940.38 961.13 1942.28 960.567 1943.24 960.22C1944.28 959.787 1944.97 959.18 1945.32 958.4C1945.66 957.62 1945.84 956.32 1945.84 954.5V947.35C1945.84 944.577 1945.1 942.54 1943.63 941.24C1942.24 939.94 1940.29 939.29 1937.78 939.29C1935.35 939.29 1933.36 939.983 1931.8 941.37C1930.32 942.757 1929.59 944.75 1929.59 947.35V964.12L1937.52 961.91ZM1986.14 932.4H1994.2L1995.37 936.17L2000.7 934.61C2004.34 933.483 2007.2 932.703 2009.28 932.27C2011.45 931.75 2013.48 931.49 2015.39 931.49C2019.12 931.49 2021.72 933.137 2023.19 936.43C2025.62 935.563 2029.04 934.523 2033.46 933.31C2037.88 932.097 2041.13 931.49 2043.21 931.49C2046.33 931.49 2048.63 932.573 2050.1 934.74C2051.66 936.907 2052.44 939.723 2052.44 943.19V1000H2042.04V946.57C2042.04 944.057 2041.87 942.323 2041.52 941.37C2041.17 940.33 2040.31 939.81 2038.92 939.81C2038.23 939.81 2033.46 941.197 2024.62 943.97V1000H2014.22V946.57C2014.22 944.057 2014.05 942.323 2013.7 941.37C2013.35 940.33 2012.49 939.81 2011.1 939.81C2010.41 939.81 2005.55 941.197 1996.54 943.97V1000H1986.14V932.4ZM2080.54 1000C2077.42 1000 2074.51 999.22 2071.83 997.66C2069.23 996.1 2067.15 993.977 2065.59 991.29C2064.11 988.603 2063.38 985.57 2063.38 982.19V975.43C2063.38 971.357 2064.37 967.933 2066.37 965.16C2068.45 962.387 2071 960.437 2074.04 959.31L2090.16 953.33V947.22C2090.16 945.14 2089.51 943.45 2088.21 942.15C2086.99 940.763 2085.39 940.07 2083.4 940.07H2068.71V932.4H2084.31C2089.07 932.4 2092.84 933.83 2095.62 936.69C2098.48 939.463 2099.91 943.277 2099.91 948.13V1000H2080.54ZM2090.16 992.07V961.52L2078.72 965.81C2076.46 966.677 2074.86 967.847 2073.91 969.32C2073.04 970.793 2072.61 973.133 2072.61 976.34V983.62C2072.61 985.96 2073.47 987.953 2075.21 989.6C2076.94 991.247 2079.02 992.07 2081.45 992.07H2090.16ZM2133.09 1000C2128.32 1000 2124.55 998.57 2121.78 995.71C2119 992.85 2117.62 988.993 2117.62 984.14V940.2H2109.82V932.4H2117.62V912.77L2128.02 908.87V932.4H2138.42V940.2H2128.02V985.05C2128.02 987.13 2128.58 988.863 2129.71 990.25C2130.92 991.55 2132.52 992.2 2134.52 992.2H2138.42V1000H2133.09ZM2162.29 1000C2157.52 1000 2153.71 998.57 2150.85 995.71C2148.07 992.85 2146.69 988.993 2146.69 984.14V949.56C2146.69 943.927 2148.25 939.507 2151.37 936.3C2154.49 933.093 2159.12 931.49 2165.28 931.49C2171.43 931.49 2176.02 933.093 2179.06 936.3C2182.18 939.507 2183.74 943.927 2183.74 949.56V955.54C2183.74 959.18 2182.7 961.953 2180.62 963.86C2178.54 965.68 2175.81 967.067 2172.43 968.02L2157.09 972.31V985.05C2157.09 987.13 2157.69 988.863 2158.91 990.25C2160.21 991.55 2161.85 992.2 2163.85 992.2H2177.89V1000H2162.29ZM2165.02 961.91C2167.88 961.13 2169.78 960.567 2170.74 960.22C2171.78 959.787 2172.47 959.18 2172.82 958.4C2173.16 957.62 2173.34 956.32 2173.34 954.5V947.35C2173.34 944.577 2172.6 942.54 2171.13 941.24C2169.74 939.94 2167.79 939.29 2165.28 939.29C2162.85 939.29 2160.86 939.983 2159.3 941.37C2157.82 942.757 2157.09 944.75 2157.09 947.35V964.12L2165.02 961.91ZM2194.09 932.4H2202.15L2203.32 937.21L2206.57 935.65C2209.34 934.263 2211.64 933.223 2213.46 932.53C2215.37 931.837 2217.27 931.49 2219.18 931.49V939.16C2218.05 939.16 2216.54 939.507 2214.63 940.2C2212.72 940.807 2209.34 942.28 2204.49 944.62V1000H2194.09V932.4ZM2228.87 921.35V910.95H2239.27V921.35H2228.87ZM2228.87 1000V932.4H2239.27V1000H2228.87ZM2268.68 1000C2265.56 1000 2262.66 999.22 2259.97 997.66C2257.37 996.1 2255.29 993.977 2253.73 991.29C2252.26 988.603 2251.52 985.57 2251.52 982.19V975.43C2251.52 971.357 2252.52 967.933 2254.51 965.16C2256.59 962.387 2259.15 960.437 2262.18 959.31L2278.3 953.33V947.22C2278.3 945.14 2277.65 943.45 2276.35 942.15C2275.14 940.763 2273.53 940.07 2271.54 940.07H2256.85V932.4H2272.45C2277.22 932.4 2280.99 933.83 2283.76 936.69C2286.62 939.463 2288.05 943.277 2288.05 948.13V1000H2268.68ZM2278.3 992.07V961.52L2266.86 965.81C2264.61 966.677 2263 967.847 2262.05 969.32C2261.18 970.793 2260.75 973.133 2260.75 976.34V983.62C2260.75 985.96 2261.62 987.953 2263.35 989.6C2265.08 991.247 2267.16 992.07 2269.59 992.07H2278.3ZM2302.38 921.35V910.95H2312.78V921.35H2302.38ZM2302.38 1000V932.4H2312.78V1000H2302.38ZM2324.51 992.2H2335.56C2339.28 992.2 2341.97 991.203 2343.62 989.21C2345.35 987.13 2346.22 984.443 2346.22 981.15C2346.22 978.55 2345.44 976.34 2343.88 974.52C2342.32 972.7 2339.98 970.577 2336.86 968.15C2334.17 965.983 2332 964.12 2330.36 962.56C2328.8 960.913 2327.41 958.92 2326.2 956.58C2325.07 954.153 2324.51 951.38 2324.51 948.26C2324.51 943.667 2326.02 939.897 2329.06 936.95C2332.18 933.917 2336.34 932.4 2341.54 932.4H2352.85V940.2H2343.49C2337.33 940.2 2334.26 943.103 2334.26 948.91C2334.26 951.163 2334.95 953.113 2336.34 954.76C2337.72 956.407 2339.89 958.357 2342.84 960.61C2345.52 962.69 2347.73 964.597 2349.47 966.33C2351.2 967.977 2352.67 970.1 2353.89 972.7C2355.1 975.213 2355.71 978.203 2355.71 981.67C2355.71 987.823 2354.06 992.417 2350.77 995.45C2347.56 998.483 2343.01 1000 2337.12 1000H2324.51V992.2ZM2404.09 1000C2398.63 1000 2394.21 998.397 2390.83 995.19C2387.45 991.983 2385.76 987.693 2385.76 982.32V949.95C2385.76 946.223 2386.76 943.06 2388.75 940.46C2390.83 937.86 2393.39 936.083 2396.42 935.13L2413.84 929.02V909H2424.24V1000H2404.09ZM2413.84 992.2V937.6L2402.27 941.5C2400.02 942.193 2398.41 943.32 2397.46 944.88C2396.59 946.353 2396.16 948.737 2396.16 952.03V982.32C2396.16 985.44 2397.07 987.867 2398.89 989.6C2400.71 991.333 2403.18 992.2 2406.3 992.2H2413.84ZM2453.39 1000C2448.62 1000 2444.81 998.57 2441.95 995.71C2439.18 992.85 2437.79 988.993 2437.79 984.14V949.56C2437.79 943.927 2439.35 939.507 2442.47 936.3C2445.59 933.093 2450.23 931.49 2456.38 931.49C2462.53 931.49 2467.13 933.093 2470.16 936.3C2473.28 939.507 2474.84 943.927 2474.84 949.56V955.54C2474.84 959.18 2473.8 961.953 2471.72 963.86C2469.64 965.68 2466.91 967.067 2463.53 968.02L2448.19 972.31V985.05C2448.19 987.13 2448.8 988.863 2450.01 990.25C2451.31 991.55 2452.96 992.2 2454.95 992.2H2468.99V1000H2453.39ZM2456.12 961.91C2458.98 961.13 2460.89 960.567 2461.84 960.22C2462.88 959.787 2463.57 959.18 2463.92 958.4C2464.27 957.62 2464.44 956.32 2464.44 954.5V947.35C2464.44 944.577 2463.7 942.54 2462.23 941.24C2460.84 939.94 2458.89 939.29 2456.38 939.29C2453.95 939.29 2451.96 939.983 2450.4 941.37C2448.93 942.757 2448.19 944.75 2448.19 947.35V964.12L2456.12 961.91ZM2518.26 1000C2513.5 1000 2509.68 998.57 2506.82 995.71C2504.05 992.85 2502.66 988.993 2502.66 984.14V949.56C2502.66 943.927 2504.22 939.507 2507.34 936.3C2510.46 933.093 2515.1 931.49 2521.25 931.49C2527.41 931.49 2532 933.093 2535.03 936.3C2538.15 939.507 2539.71 943.927 2539.71 949.56V955.54C2539.71 959.18 2538.67 961.953 2536.59 963.86C2534.51 965.68 2531.78 967.067 2528.4 968.02L2513.06 972.31V985.05C2513.06 987.13 2513.67 988.863 2514.88 990.25C2516.18 991.55 2517.83 992.2 2519.82 992.2H2533.86V1000H2518.26ZM2520.99 961.91C2523.85 961.13 2525.76 960.567 2526.71 960.22C2527.75 959.787 2528.45 959.18 2528.79 958.4C2529.14 957.62 2529.31 956.32 2529.31 954.5V947.35C2529.31 944.577 2528.58 942.54 2527.1 941.24C2525.72 939.94 2523.77 939.29 2521.25 939.29C2518.83 939.29 2516.83 939.983 2515.27 941.37C2513.8 942.757 2513.06 944.75 2513.06 947.35V964.12L2520.99 961.91ZM2550.07 932.4H2558.13L2559.3 936.17L2564.63 934.61C2568.27 933.483 2571.13 932.703 2573.21 932.27C2575.37 931.75 2577.41 931.49 2579.32 931.49C2582.44 931.49 2584.73 932.573 2586.21 934.74C2587.68 936.907 2588.42 939.723 2588.42 943.19V1000H2578.02V946.57C2578.02 944.057 2577.84 942.323 2577.5 941.37C2577.15 940.33 2576.28 939.81 2574.9 939.81C2574.2 939.81 2569.39 941.197 2560.47 943.97V1000H2550.07V932.4ZM2598.98 992.2H2610.03C2613.75 992.2 2616.44 991.203 2618.09 989.21C2619.82 987.13 2620.69 984.443 2620.69 981.15C2620.69 978.55 2619.91 976.34 2618.35 974.52C2616.79 972.7 2614.45 970.577 2611.33 968.15C2608.64 965.983 2606.47 964.12 2604.83 962.56C2603.27 960.913 2601.88 958.92 2600.67 956.58C2599.54 954.153 2598.98 951.38 2598.98 948.26C2598.98 943.667 2600.49 939.897 2603.53 936.95C2606.65 933.917 2610.81 932.4 2616.01 932.4H2627.32V940.2H2617.96C2611.8 940.2 2608.73 943.103 2608.73 948.91C2608.73 951.163 2609.42 953.113 2610.81 954.76C2612.19 956.407 2614.36 958.357 2617.31 960.61C2619.99 962.69 2622.2 964.597 2623.94 966.33C2625.67 967.977 2627.14 970.1 2628.36 972.7C2629.57 975.213 2630.18 978.203 2630.18 981.67C2630.18 987.823 2628.53 992.417 2625.24 995.45C2622.03 998.483 2617.48 1000 2611.59 1000H2598.98V992.2ZM2641.85 921.35V910.95H2652.25V921.35H2641.85ZM2641.85 1000V932.4H2652.25V1000H2641.85ZM2667.88 932.4H2675.94L2677.11 936.17L2682.44 934.61C2686.08 933.483 2688.94 932.703 2691.02 932.27C2693.18 931.75 2695.22 931.49 2697.13 931.49C2700.25 931.49 2702.54 932.573 2704.02 934.74C2705.49 936.907 2706.23 939.723 2706.23 943.19V1000H2695.83V946.57C2695.83 944.057 2695.65 942.323 2695.31 941.37C2694.96 940.33 2694.09 939.81 2692.71 939.81C2692.01 939.81 2687.2 941.197 2678.28 943.97V1000H2667.88V932.4ZM2737.2 1000.91C2731.13 1000.91 2726.41 999.393 2723.03 996.36C2719.74 993.24 2718.09 988.95 2718.09 983.49V948.91C2718.09 943.45 2719.74 939.203 2723.03 936.17C2726.41 933.05 2731.13 931.49 2737.2 931.49C2743.27 931.49 2747.95 933.05 2751.24 936.17C2754.62 939.203 2756.31 943.45 2756.31 948.91V983.49C2756.31 988.95 2754.62 993.24 2751.24 996.36C2747.95 999.393 2743.27 1000.91 2737.2 1000.91ZM2737.2 992.85C2739.97 992.85 2742.14 992.07 2743.7 990.51C2745.35 988.863 2746.17 986.523 2746.17 983.49V948.91C2746.17 945.877 2745.35 943.58 2743.7 942.02C2742.14 940.373 2739.97 939.55 2737.2 939.55C2734.43 939.55 2732.22 940.373 2730.57 942.02C2729.01 943.58 2728.23 945.877 2728.23 948.91V983.49C2728.23 986.523 2729.01 988.863 2730.57 990.51C2732.22 992.07 2734.43 992.85 2737.2 992.85Z" fill="white"/>
<path d="M1403 1182V564H872.299V1000.5H1221.5V738.599H1046.9V825.898H1134.2V913.197H959.599V651.299H1308.8V1087.8H785V1182H1403Z" fill="white"/>
</svg>
