<svg width="3745" height="1780" viewBox="0 0 3745 1780" fill="none" xmlns="http://www.w3.org/2000/svg">
<rect width="3745" height="1780" fill="black"/>
<path d="M928.22 455H953C970.08 455 978.62 463.68 978.62 481.04C978.62 490.093 976.147 497.187 971.2 502.32C966.347 507.36 959.393 509.88 950.34 509.88H940.54V553H928.22V455ZM949.5 500.64C954.82 500.64 958.927 498.82 961.82 495.18C964.807 491.54 966.3 486.827 966.3 481.04C966.3 475.533 964.853 471.38 961.96 468.58C959.16 465.687 955.007 464.24 949.5 464.24H940.54V500.64H949.5ZM984.238 553L1006.36 455H1024.98L1046.26 553H1034.78L1027.92 524.16H1002.44L996.138 553H984.238ZM1004.54 514.64H1025.82L1015.74 464.24H1014.76L1004.54 514.64ZM1059.33 455H1085.23C1093.82 455 1100.17 457.193 1104.27 461.58C1108.38 465.873 1110.43 472.36 1110.43 481.04C1110.43 487.573 1109.17 493.267 1106.65 498.12C1104.13 502.973 1100.54 506.333 1095.87 508.2L1115.33 553H1103.29L1084.25 510.02H1071.37V553H1059.33V455ZM1081.59 500.78C1086.91 500.78 1091.02 498.96 1093.91 495.32C1096.9 491.587 1098.39 486.827 1098.39 481.04C1098.39 475.533 1096.95 471.38 1094.05 468.58C1091.25 465.687 1087.1 464.24 1081.59 464.24H1071.65V500.78H1081.59ZM1150.92 553C1142.42 553 1135.84 550.853 1131.18 546.56C1126.51 542.267 1124.18 535.967 1124.18 527.66V480.34C1124.18 472.033 1126.51 465.733 1131.18 461.44C1135.84 457.147 1142.42 455 1150.92 455H1169.68V464.24H1150.92C1146.62 464.24 1143.12 465.5 1140.42 468.02C1137.8 470.447 1136.5 473.713 1136.5 477.82V530.18C1136.5 534.287 1137.8 537.6 1140.42 540.12C1143.12 542.547 1146.62 543.76 1150.92 543.76H1169.68V553H1150.92ZM1196.43 553L1234.79 455H1246.27L1208.61 553H1196.43ZM1274.66 553L1296.78 501.48L1277.46 455H1289.78L1303.78 488.74L1318.06 455H1330.38L1310.08 501.48L1332.76 553H1320.3L1303.78 513.8L1286.98 553H1274.66ZM1359.87 553C1354.73 553 1350.63 551.46 1347.55 548.38C1344.56 545.3 1343.07 541.147 1343.07 535.92V498.68C1343.07 492.613 1344.75 487.853 1348.11 484.4C1351.47 480.947 1356.46 479.22 1363.09 479.22C1369.71 479.22 1374.66 480.947 1377.93 484.4C1381.29 487.853 1382.97 492.613 1382.97 498.68V505.12C1382.97 509.04 1381.85 512.027 1379.61 514.08C1377.37 516.04 1374.43 517.533 1370.79 518.56L1354.27 523.18V536.9C1354.27 539.14 1354.92 541.007 1356.23 542.5C1357.63 543.9 1359.4 544.6 1361.55 544.6H1376.67V553H1359.87ZM1362.81 511.98C1365.89 511.14 1367.94 510.533 1368.97 510.16C1370.09 509.693 1370.83 509.04 1371.21 508.2C1371.58 507.36 1371.77 505.96 1371.77 504V496.3C1371.77 493.313 1370.97 491.12 1369.39 489.72C1367.89 488.32 1365.79 487.62 1363.09 487.62C1360.47 487.62 1358.33 488.367 1356.65 489.86C1355.06 491.353 1354.27 493.5 1354.27 496.3V514.36L1362.81 511.98ZM1394.11 480.2H1402.79L1404.05 485.38L1407.55 483.7C1410.54 482.207 1413.01 481.087 1414.97 480.34C1417.03 479.593 1419.08 479.22 1421.13 479.22V487.48C1419.92 487.48 1418.29 487.853 1416.23 488.6C1414.18 489.253 1410.54 490.84 1405.31 493.36V553H1394.11V480.2ZM1449.36 553.98C1442.82 553.98 1437.74 552.347 1434.1 549.08C1430.55 545.72 1428.78 541.1 1428.78 535.22V497.98C1428.78 492.1 1430.55 487.527 1434.1 484.26C1437.74 480.9 1442.82 479.22 1449.36 479.22C1455.89 479.22 1460.93 480.9 1464.48 484.26C1468.12 487.527 1469.94 492.1 1469.94 497.98V535.22C1469.94 541.1 1468.12 545.72 1464.48 549.08C1460.93 552.347 1455.89 553.98 1449.36 553.98ZM1449.36 545.3C1452.34 545.3 1454.68 544.46 1456.36 542.78C1458.13 541.007 1459.02 538.487 1459.02 535.22V497.98C1459.02 494.713 1458.13 492.24 1456.36 490.56C1454.68 488.787 1452.34 487.9 1449.36 487.9C1446.37 487.9 1443.99 488.787 1442.22 490.56C1440.54 492.24 1439.7 494.713 1439.7 497.98V535.22C1439.7 538.487 1440.54 541.007 1442.22 542.78C1443.99 544.46 1446.37 545.3 1449.36 545.3ZM1476.94 553L1497.1 516.46L1478.34 480.2H1489.12L1502.28 505.96L1515.58 480.2H1526.36L1507.6 516.46L1527.76 553H1516L1502.28 526.4L1488.7 553H1476.94ZM1559.72 455H1584.5C1601.58 455 1610.12 463.68 1610.12 481.04C1610.12 490.093 1607.65 497.187 1602.7 502.32C1597.85 507.36 1590.9 509.88 1581.84 509.88H1572.04V553H1559.72V455ZM1581 500.64C1586.32 500.64 1590.43 498.82 1593.32 495.18C1596.31 491.54 1597.8 486.827 1597.8 481.04C1597.8 475.533 1596.36 471.38 1593.46 468.58C1590.66 465.687 1586.51 464.24 1581 464.24H1572.04V500.64H1581ZM1636.18 553C1632.82 553 1629.69 552.16 1626.8 550.48C1624 548.8 1621.76 546.513 1620.08 543.62C1618.49 540.727 1617.7 537.46 1617.7 533.82V526.54C1617.7 522.153 1618.77 518.467 1620.92 515.48C1623.16 512.493 1625.91 510.393 1629.18 509.18L1646.54 502.74V496.16C1646.54 493.92 1645.84 492.1 1644.44 490.7C1643.13 489.207 1641.41 488.46 1639.26 488.46H1623.44V480.2H1640.24C1645.37 480.2 1649.43 481.74 1652.42 484.82C1655.5 487.807 1657.04 491.913 1657.04 497.14V553H1636.18ZM1646.54 544.46V511.56L1634.22 516.18C1631.79 517.113 1630.07 518.373 1629.04 519.96C1628.11 521.547 1627.64 524.067 1627.64 527.52V535.36C1627.64 537.88 1628.57 540.027 1630.44 541.8C1632.31 543.573 1634.55 544.46 1637.16 544.46H1646.54ZM1672.61 553V455H1683.81V553H1672.61ZM1718.28 553.98C1711.75 553.98 1706.66 552.347 1703.02 549.08C1699.47 545.72 1697.7 541.1 1697.7 535.22V497.98C1697.7 492.1 1699.47 487.527 1703.02 484.26C1706.66 480.9 1711.75 479.22 1718.28 479.22C1724.81 479.22 1729.85 480.9 1733.4 484.26C1737.04 487.527 1738.86 492.1 1738.86 497.98V535.22C1738.86 541.1 1737.04 545.72 1733.4 549.08C1729.85 552.347 1724.81 553.98 1718.28 553.98ZM1718.28 545.3C1721.27 545.3 1723.6 544.46 1725.28 542.78C1727.05 541.007 1727.94 538.487 1727.94 535.22V497.98C1727.94 494.713 1727.05 492.24 1725.28 490.56C1723.6 488.787 1721.27 487.9 1718.28 487.9C1715.29 487.9 1712.91 488.787 1711.14 490.56C1709.46 492.24 1708.62 494.713 1708.62 497.98V535.22C1708.62 538.487 1709.46 541.007 1711.14 542.78C1712.91 544.46 1715.29 545.3 1718.28 545.3ZM1768.32 553L1790.44 455H1809.06L1830.34 553H1818.86L1812 524.16H1786.52L1780.22 553H1768.32ZM1788.62 514.64H1809.9L1799.82 464.24H1798.84L1788.62 514.64ZM1841.74 553V455H1852.94V553H1841.74ZM1889.92 553C1884.79 553 1880.73 551.46 1877.74 548.38C1874.76 545.3 1873.26 541.147 1873.26 535.92V488.6H1864.86V480.2H1873.26V459.06L1884.46 454.86V480.2H1895.66V488.6H1884.46V536.9C1884.46 539.14 1885.07 541.007 1886.28 542.5C1887.59 543.9 1889.32 544.6 1891.46 544.6H1895.66V553H1889.92ZM1924.59 553.98C1918.06 553.98 1912.97 552.347 1909.33 549.08C1905.78 545.72 1904.01 541.1 1904.01 535.22V497.98C1904.01 492.1 1905.78 487.527 1909.33 484.26C1912.97 480.9 1918.06 479.22 1924.59 479.22C1931.12 479.22 1936.16 480.9 1939.71 484.26C1943.35 487.527 1945.17 492.1 1945.17 497.98V535.22C1945.17 541.1 1943.35 545.72 1939.71 549.08C1936.16 552.347 1931.12 553.98 1924.59 553.98ZM1924.59 545.3C1927.58 545.3 1929.91 544.46 1931.59 542.78C1933.36 541.007 1934.25 538.487 1934.25 535.22V497.98C1934.25 494.713 1933.36 492.24 1931.59 490.56C1929.91 488.787 1927.58 487.9 1924.59 487.9C1921.6 487.9 1919.22 488.787 1917.45 490.56C1915.77 492.24 1914.93 494.713 1914.93 497.98V535.22C1914.93 538.487 1915.77 541.007 1917.45 542.78C1919.22 544.46 1921.6 545.3 1924.59 545.3ZM1982.05 455H2007.95C2016.53 455 2022.88 457.193 2026.99 461.58C2031.09 465.873 2033.15 472.36 2033.15 481.04C2033.15 487.573 2031.89 493.267 2029.37 498.12C2026.85 502.973 2023.25 506.333 2018.59 508.2L2038.05 553H2026.01L2006.97 510.02H1994.09V553H1982.05V455ZM2004.31 500.78C2009.63 500.78 2013.73 498.96 2016.63 495.32C2019.61 491.587 2021.11 486.827 2021.11 481.04C2021.11 475.533 2019.66 471.38 2016.77 468.58C2013.97 465.687 2009.81 464.24 2004.31 464.24H1994.37V500.78H2004.31ZM2063.83 553C2058.7 553 2054.59 551.46 2051.51 548.38C2048.52 545.3 2047.03 541.147 2047.03 535.92V498.68C2047.03 492.613 2048.71 487.853 2052.07 484.4C2055.43 480.947 2060.42 479.22 2067.05 479.22C2073.68 479.22 2078.62 480.947 2081.89 484.4C2085.25 487.853 2086.93 492.613 2086.93 498.68V505.12C2086.93 509.04 2085.81 512.027 2083.57 514.08C2081.33 516.04 2078.39 517.533 2074.75 518.56L2058.23 523.18V536.9C2058.23 539.14 2058.88 541.007 2060.19 542.5C2061.59 543.9 2063.36 544.6 2065.51 544.6H2080.63V553H2063.83ZM2066.77 511.98C2069.85 511.14 2071.9 510.533 2072.93 510.16C2074.05 509.693 2074.8 509.04 2075.17 508.2C2075.54 507.36 2075.73 505.96 2075.73 504V496.3C2075.73 493.313 2074.94 491.12 2073.35 489.72C2071.86 488.32 2069.76 487.62 2067.05 487.62C2064.44 487.62 2062.29 488.367 2060.61 489.86C2059.02 491.353 2058.23 493.5 2058.23 496.3V514.36L2066.77 511.98ZM2093.88 544.6H2105.78C2109.79 544.6 2112.69 543.527 2114.46 541.38C2116.33 539.14 2117.26 536.247 2117.26 532.7C2117.26 529.9 2116.42 527.52 2114.74 525.56C2113.06 523.6 2110.54 521.313 2107.18 518.7C2104.29 516.367 2101.95 514.36 2100.18 512.68C2098.5 510.907 2097.01 508.76 2095.7 506.24C2094.49 503.627 2093.88 500.64 2093.88 497.28C2093.88 492.333 2095.51 488.273 2098.78 485.1C2102.14 481.833 2106.62 480.2 2112.22 480.2H2124.4V488.6H2114.32C2107.69 488.6 2104.38 491.727 2104.38 497.98C2104.38 500.407 2105.13 502.507 2106.62 504.28C2108.11 506.053 2110.45 508.153 2113.62 510.58C2116.51 512.82 2118.89 514.873 2120.76 516.74C2122.63 518.513 2124.21 520.8 2125.52 523.6C2126.83 526.307 2127.48 529.527 2127.48 533.26C2127.48 539.887 2125.71 544.833 2122.16 548.1C2118.71 551.367 2113.81 553 2107.46 553H2093.88V544.6ZM2154.61 553C2149.48 553 2145.37 551.46 2142.29 548.38C2139.31 545.3 2137.81 541.147 2137.81 535.92V498.68C2137.81 492.613 2139.49 487.853 2142.85 484.4C2146.21 480.947 2151.21 479.22 2157.83 479.22C2164.46 479.22 2169.41 480.947 2172.67 484.4C2176.03 487.853 2177.71 492.613 2177.71 498.68V505.12C2177.71 509.04 2176.59 512.027 2174.35 514.08C2172.11 516.04 2169.17 517.533 2165.53 518.56L2149.01 523.18V536.9C2149.01 539.14 2149.67 541.007 2150.97 542.5C2152.37 543.9 2154.15 544.6 2156.29 544.6H2171.41V553H2154.61ZM2157.55 511.98C2160.63 511.14 2162.69 510.533 2163.71 510.16C2164.83 509.693 2165.58 509.04 2165.95 508.2C2166.33 507.36 2166.51 505.96 2166.51 504V496.3C2166.51 493.313 2165.72 491.12 2164.13 489.72C2162.64 488.32 2160.54 487.62 2157.83 487.62C2155.22 487.62 2153.07 488.367 2151.39 489.86C2149.81 491.353 2149.01 493.5 2149.01 496.3V514.36L2157.55 511.98ZM2203.7 553C2200.34 553 2197.21 552.16 2194.32 550.48C2191.52 548.8 2189.28 546.513 2187.6 543.62C2186.01 540.727 2185.22 537.46 2185.22 533.82V526.54C2185.22 522.153 2186.29 518.467 2188.44 515.48C2190.68 512.493 2193.43 510.393 2196.7 509.18L2214.06 502.74V496.16C2214.06 493.92 2213.36 492.1 2211.96 490.7C2210.65 489.207 2208.93 488.46 2206.78 488.46H2190.96V480.2H2207.76C2212.89 480.2 2216.95 481.74 2219.94 484.82C2223.02 487.807 2224.56 491.913 2224.56 497.14V553H2203.7ZM2214.06 544.46V511.56L2201.74 516.18C2199.31 517.113 2197.59 518.373 2196.56 519.96C2195.63 521.547 2195.16 524.067 2195.16 527.52V535.36C2195.16 537.88 2196.09 540.027 2197.96 541.8C2199.83 543.573 2202.07 544.46 2204.68 544.46H2214.06ZM2239.99 480.2H2248.67L2249.93 485.38L2253.43 483.7C2256.42 482.207 2258.89 481.087 2260.85 480.34C2262.91 479.593 2264.96 479.22 2267.01 479.22V487.48C2265.8 487.48 2264.17 487.853 2262.11 488.6C2260.06 489.253 2256.42 490.84 2251.19 493.36V553H2239.99V480.2ZM2292.85 553C2287.72 553 2283.61 551.46 2280.53 548.38C2277.55 545.3 2276.05 541.147 2276.05 535.92V498.68C2276.05 492.8 2277.59 488.273 2280.67 485.1C2283.75 481.833 2288.23 480.2 2294.11 480.2H2309.65V488.6H2294.39C2292.25 488.6 2290.52 489.347 2289.21 490.84C2287.91 492.24 2287.25 494.06 2287.25 496.3V536.9C2287.25 539.14 2287.91 541.007 2289.21 542.5C2290.61 543.9 2292.39 544.6 2294.53 544.6H2309.65V553H2292.85ZM2319.43 455H2330.63V483.98L2336.79 482.16C2340.61 481.04 2343.41 480.293 2345.19 479.92C2347.05 479.453 2348.97 479.22 2350.93 479.22C2354.29 479.22 2356.76 480.387 2358.35 482.72C2359.93 485.053 2360.73 488.087 2360.73 491.82V553H2349.53V495.46C2349.53 492.753 2349.34 490.887 2348.97 489.86C2348.59 488.74 2347.66 488.18 2346.17 488.18C2345.42 488.18 2340.24 489.673 2330.63 492.66V553H2319.43V455ZM2423.08 553C2414.59 553 2408.01 550.853 2403.34 546.56C2398.68 542.267 2396.34 535.967 2396.34 527.66V480.34C2396.34 472.033 2398.68 465.733 2403.34 461.44C2408.01 457.147 2414.59 455 2423.08 455H2441.84V464.24H2423.08C2418.79 464.24 2415.29 465.5 2412.58 468.02C2409.97 470.447 2408.66 473.713 2408.66 477.82V530.18C2408.66 534.287 2409.97 537.6 2412.58 540.12C2415.29 542.547 2418.79 543.76 2423.08 543.76H2441.84V553H2423.08ZM2467.56 553C2462.43 553 2458.32 551.46 2455.24 548.38C2452.25 545.3 2450.76 541.147 2450.76 535.92V498.68C2450.76 492.613 2452.44 487.853 2455.8 484.4C2459.16 480.947 2464.15 479.22 2470.78 479.22C2477.41 479.22 2482.35 480.947 2485.62 484.4C2488.98 487.853 2490.66 492.613 2490.66 498.68V505.12C2490.66 509.04 2489.54 512.027 2487.3 514.08C2485.06 516.04 2482.12 517.533 2478.48 518.56L2461.96 523.18V536.9C2461.96 539.14 2462.61 541.007 2463.92 542.5C2465.32 543.9 2467.09 544.6 2469.24 544.6H2484.36V553H2467.56ZM2470.5 511.98C2473.58 511.14 2475.63 510.533 2476.66 510.16C2477.78 509.693 2478.53 509.04 2478.9 508.2C2479.27 507.36 2479.46 505.96 2479.46 504V496.3C2479.46 493.313 2478.67 491.12 2477.08 489.72C2475.59 488.32 2473.49 487.62 2470.78 487.62C2468.17 487.62 2466.02 488.367 2464.34 489.86C2462.75 491.353 2461.96 493.5 2461.96 496.3V514.36L2470.5 511.98ZM2501.81 480.2H2510.49L2511.75 484.26L2517.49 482.58C2521.41 481.367 2524.49 480.527 2526.73 480.06C2529.06 479.5 2531.26 479.22 2533.31 479.22C2536.67 479.22 2539.14 480.387 2540.73 482.72C2542.32 485.053 2543.11 488.087 2543.11 491.82V553H2531.91V495.46C2531.91 492.753 2531.72 490.887 2531.35 489.86C2530.98 488.74 2530.04 488.18 2528.55 488.18C2527.8 488.18 2522.62 489.673 2513.01 492.66V553H2501.81V480.2ZM2578.99 553C2573.85 553 2569.79 551.46 2566.81 548.38C2563.82 545.3 2562.33 541.147 2562.33 535.92V488.6H2553.93V480.2H2562.33V459.06L2573.53 454.86V480.2H2584.73V488.6H2573.53V536.9C2573.53 539.14 2574.13 541.007 2575.35 542.5C2576.65 543.9 2578.38 544.6 2580.53 544.6H2584.73V553H2578.99ZM2610.43 553C2605.3 553 2601.19 551.46 2598.11 548.38C2595.13 545.3 2593.63 541.147 2593.63 535.92V498.68C2593.63 492.613 2595.31 487.853 2598.67 484.4C2602.03 480.947 2607.03 479.22 2613.65 479.22C2620.28 479.22 2625.23 480.947 2628.49 484.4C2631.85 487.853 2633.53 492.613 2633.53 498.68V505.12C2633.53 509.04 2632.41 512.027 2630.17 514.08C2627.93 516.04 2624.99 517.533 2621.35 518.56L2604.83 523.18V536.9C2604.83 539.14 2605.49 541.007 2606.79 542.5C2608.19 543.9 2609.97 544.6 2612.11 544.6H2627.23V553H2610.43ZM2613.37 511.98C2616.45 511.14 2618.51 510.533 2619.53 510.16C2620.65 509.693 2621.4 509.04 2621.77 508.2C2622.15 507.36 2622.33 505.96 2622.33 504V496.3C2622.33 493.313 2621.54 491.12 2619.95 489.72C2618.46 488.32 2616.36 487.62 2613.65 487.62C2611.04 487.62 2608.89 488.367 2607.21 489.86C2605.63 491.353 2604.83 493.5 2604.83 496.3V514.36L2613.37 511.98ZM2644.68 480.2H2653.36L2654.62 485.38L2658.12 483.7C2661.11 482.207 2663.58 481.087 2665.54 480.34C2667.59 479.593 2669.65 479.22 2671.7 479.22V487.48C2670.49 487.48 2668.85 487.853 2666.8 488.6C2664.75 489.253 2661.11 490.84 2655.88 493.36V553H2644.68V480.2ZM932.4 618H967.2C979.333 618 988.733 621.067 995.4 627.2C1002.07 633.333 1005.4 642.333 1005.4 654.2V721.8C1005.4 733.667 1002.07 742.667 995.4 748.8C988.733 754.8 979.333 757.867 967.2 758H932.4V618ZM967.2 744.4C973.333 744.4 978.267 742.667 982 739.2C985.867 735.6 987.8 730.867 987.8 725V651C987.8 645.133 985.867 640.467 982 637C978.267 633.4 973.333 631.6 967.2 631.6H950.2V744.4H967.2ZM1047.29 758C1042.49 758 1038.03 756.8 1033.89 754.4C1029.89 752 1026.69 748.733 1024.29 744.6C1022.03 740.467 1020.89 735.8 1020.89 730.6V720.2C1020.89 713.933 1022.43 708.667 1025.49 704.4C1028.69 700.133 1032.63 697.133 1037.29 695.4L1062.09 686.2V676.8C1062.09 673.6 1061.09 671 1059.09 669C1057.23 666.867 1054.76 665.8 1051.69 665.8H1029.09V654H1053.09C1060.43 654 1066.23 656.2 1070.49 660.6C1074.89 664.867 1077.09 670.733 1077.09 678.2V758H1047.29ZM1062.09 745.8V698.8L1044.49 705.4C1041.03 706.733 1038.56 708.533 1037.09 710.8C1035.76 713.067 1035.09 716.667 1035.09 721.6V732.8C1035.09 736.4 1036.43 739.467 1039.09 742C1041.76 744.533 1044.96 745.8 1048.69 745.8H1062.09ZM1098.54 778H1104.74C1108.34 778 1111.61 776.267 1114.54 772.8C1117.47 769.467 1118.94 764.467 1118.94 757.8L1091.14 654H1107.74L1125.14 738.4L1139.14 654H1154.94L1130.54 770C1127.74 783.333 1120.01 790 1107.34 790H1098.54V778ZM1169.84 618H1185.84V649.2L1212.64 658.6C1217.31 660.2 1221.18 663 1224.24 667C1227.44 670.867 1229.04 675.667 1229.04 681.4V732.8C1229.04 740 1226.51 746 1221.44 750.8C1216.38 755.6 1210.18 758 1202.84 758H1169.84V618ZM1199.44 746C1203.18 746 1206.38 744.733 1209.04 742.2C1211.71 739.667 1213.04 736.533 1213.04 732.8V684.6C1213.04 679.533 1212.31 675.867 1210.84 673.6C1209.51 671.2 1207.11 669.467 1203.64 668.4L1185.84 662.4V746H1199.44ZM1247.97 654H1260.37L1262.17 661.4L1267.17 659C1271.44 656.867 1274.97 655.267 1277.77 654.2C1280.7 653.133 1283.64 652.6 1286.57 652.6V664.4C1284.84 664.4 1282.5 664.933 1279.57 666C1276.64 666.933 1271.44 669.2 1263.97 672.8V758H1247.97V654ZM1322.28 758C1314.95 758 1309.08 755.8 1304.68 751.4C1300.42 747 1298.28 741.067 1298.28 733.6V680.4C1298.28 671.733 1300.68 664.933 1305.48 660C1310.28 655.067 1317.42 652.6 1326.88 652.6C1336.35 652.6 1343.42 655.067 1348.08 660C1352.88 664.933 1355.28 671.733 1355.28 680.4V689.6C1355.28 695.2 1353.68 699.467 1350.48 702.4C1347.28 705.2 1343.08 707.333 1337.88 708.8L1314.28 715.4V735C1314.28 738.2 1315.22 740.867 1317.08 743C1319.08 745 1321.62 746 1324.68 746H1346.28V758H1322.28ZM1326.48 699.4C1330.88 698.2 1333.82 697.333 1335.28 696.8C1336.88 696.133 1337.95 695.2 1338.48 694C1339.02 692.8 1339.28 690.8 1339.28 688V677C1339.28 672.733 1338.15 669.6 1335.88 667.6C1333.75 665.6 1330.75 664.6 1326.88 664.6C1323.15 664.6 1320.08 665.667 1317.68 667.8C1315.42 669.933 1314.28 673 1314.28 677V702.8L1326.48 699.4ZM1392.41 758C1387.61 758 1383.14 756.8 1379.01 754.4C1375.01 752 1371.81 748.733 1369.41 744.6C1367.14 740.467 1366.01 735.8 1366.01 730.6V720.2C1366.01 713.933 1367.54 708.667 1370.61 704.4C1373.81 700.133 1377.74 697.133 1382.41 695.4L1407.21 686.2V676.8C1407.21 673.6 1406.21 671 1404.21 669C1402.34 666.867 1399.88 665.8 1396.81 665.8H1374.21V654H1398.21C1405.54 654 1411.34 656.2 1415.61 660.6C1420.01 664.867 1422.21 670.733 1422.21 678.2V758H1392.41ZM1407.21 745.8V698.8L1389.61 705.4C1386.14 706.733 1383.68 708.533 1382.21 710.8C1380.88 713.067 1380.21 716.667 1380.21 721.6V732.8C1380.21 736.4 1381.54 739.467 1384.21 742C1386.88 744.533 1390.08 745.8 1393.81 745.8H1407.21ZM1443.86 758V618H1459.86V696.4L1490.86 654H1505.86L1476.26 696.4L1507.26 758H1492.26L1466.86 705.6L1459.86 715V758H1443.86ZM1576.7 758L1547.1 618H1564.5L1588.3 741L1606.9 654.4H1625.7L1644.5 741L1668.1 618H1685.5L1656.5 758H1632.9L1616.5 674.2L1600.3 758H1576.7ZM1718.1 759.4C1708.76 759.4 1701.5 757.067 1696.3 752.4C1691.23 747.6 1688.7 741 1688.7 732.6V679.4C1688.7 671 1691.23 664.467 1696.3 659.8C1701.5 655 1708.76 652.6 1718.1 652.6C1727.43 652.6 1734.63 655 1739.7 659.8C1744.9 664.467 1747.5 671 1747.5 679.4V732.6C1747.5 741 1744.9 747.6 1739.7 752.4C1734.63 757.067 1727.43 759.4 1718.1 759.4ZM1718.1 747C1722.36 747 1725.7 745.8 1728.1 743.4C1730.63 740.867 1731.9 737.267 1731.9 732.6V679.4C1731.9 674.733 1730.63 671.2 1728.1 668.8C1725.7 666.267 1722.36 665 1718.1 665C1713.83 665 1710.43 666.267 1707.9 668.8C1705.5 671.2 1704.3 674.733 1704.3 679.4V732.6C1704.3 737.267 1705.5 740.867 1707.9 743.4C1710.43 745.8 1713.83 747 1718.1 747ZM1767.5 654H1779.9L1781.7 661.4L1786.7 659C1790.97 656.867 1794.5 655.267 1797.3 654.2C1800.23 653.133 1803.17 652.6 1806.1 652.6V664.4C1804.37 664.4 1802.03 664.933 1799.1 666C1796.17 666.933 1790.97 669.2 1783.5 672.8V758H1767.5V654ZM1820.62 758V618H1836.62V696.4L1867.62 654H1882.62L1853.02 696.4L1884.02 758H1869.02L1843.62 705.6L1836.62 715V758H1820.62ZM1891.58 746H1908.58C1914.31 746 1918.44 744.467 1920.98 741.4C1923.64 738.2 1924.98 734.067 1924.98 729C1924.98 725 1923.78 721.6 1921.38 718.8C1918.98 716 1915.38 712.733 1910.58 709C1906.44 705.667 1903.11 702.8 1900.58 700.4C1898.18 697.867 1896.04 694.8 1894.18 691.2C1892.44 687.467 1891.58 683.2 1891.58 678.4C1891.58 671.333 1893.91 665.533 1898.58 661C1903.38 656.333 1909.78 654 1917.78 654H1935.18V666H1920.78C1911.31 666 1906.58 670.467 1906.58 679.4C1906.58 682.867 1907.64 685.867 1909.78 688.4C1911.91 690.933 1915.24 693.933 1919.78 697.4C1923.91 700.6 1927.31 703.533 1929.98 706.2C1932.64 708.733 1934.91 712 1936.78 716C1938.64 719.867 1939.58 724.467 1939.58 729.8C1939.58 739.267 1937.04 746.333 1931.98 751C1927.04 755.667 1920.04 758 1910.98 758H1891.58V746ZM1986.54 758C1979.21 758 1973.41 755.8 1969.14 751.4C1964.87 747 1962.74 741.067 1962.74 733.6V666H1950.74V654H1962.74V623.8L1978.74 617.8V654H1994.74V666H1978.74V735C1978.74 738.2 1979.61 740.867 1981.34 743C1983.21 745 1985.67 746 1988.74 746H1994.74V758H1986.54ZM2031.86 758C2027.06 758 2022.6 756.8 2018.46 754.4C2014.46 752 2011.26 748.733 2008.86 744.6C2006.6 740.467 2005.46 735.8 2005.46 730.6V720.2C2005.46 713.933 2007 708.667 2010.06 704.4C2013.26 700.133 2017.2 697.133 2021.86 695.4L2046.66 686.2V676.8C2046.66 673.6 2045.66 671 2043.66 669C2041.8 666.867 2039.33 665.8 2036.26 665.8H2013.66V654H2037.66C2045 654 2050.8 656.2 2055.06 660.6C2059.46 664.867 2061.66 670.733 2061.66 678.2V758H2031.86ZM2046.66 745.8V698.8L2029.06 705.4C2025.6 706.733 2023.13 708.533 2021.66 710.8C2020.33 713.067 2019.66 716.667 2019.66 721.6V732.8C2019.66 736.4 2021 739.467 2023.66 742C2026.33 744.533 2029.53 745.8 2033.26 745.8H2046.66ZM2112.71 758C2105.38 758 2099.58 755.8 2095.31 751.4C2091.04 747 2088.91 741.067 2088.91 733.6V666H2076.91V654H2088.91V623.8L2104.91 617.8V654H2120.91V666H2104.91V735C2104.91 738.2 2105.78 740.867 2107.51 743C2109.38 745 2111.84 746 2114.91 746H2120.91V758H2112.71ZM2136.84 637V621H2152.84V637H2136.84ZM2136.84 758V654H2152.84V758H2136.84ZM2202.28 759.4C2192.94 759.4 2185.68 757.067 2180.48 752.4C2175.41 747.6 2172.88 741 2172.88 732.6V679.4C2172.88 671 2175.41 664.467 2180.48 659.8C2185.68 655 2192.94 652.6 2202.28 652.6C2211.61 652.6 2218.81 655 2223.88 659.8C2229.08 664.467 2231.68 671 2231.68 679.4V732.6C2231.68 741 2229.08 747.6 2223.88 752.4C2218.81 757.067 2211.61 759.4 2202.28 759.4ZM2202.28 747C2206.54 747 2209.88 745.8 2212.28 743.4C2214.81 740.867 2216.08 737.267 2216.08 732.6V679.4C2216.08 674.733 2214.81 671.2 2212.28 668.8C2209.88 666.267 2206.54 665 2202.28 665C2198.01 665 2194.61 666.267 2192.08 668.8C2189.68 671.2 2188.48 674.733 2188.48 679.4V732.6C2188.48 737.267 2189.68 740.867 2192.08 743.4C2194.61 745.8 2198.01 747 2202.28 747ZM2251.68 654H2264.08L2265.88 659.8L2274.08 657.4C2279.68 655.667 2284.08 654.467 2287.28 653.8C2290.61 653 2293.75 652.6 2296.68 652.6C2301.48 652.6 2305.01 654.267 2307.28 657.6C2309.55 660.933 2310.68 665.267 2310.68 670.6V758H2294.68V675.8C2294.68 671.933 2294.41 669.267 2293.88 667.8C2293.35 666.2 2292.01 665.4 2289.88 665.4C2288.81 665.4 2281.41 667.533 2267.68 671.8V758H2251.68V654ZM2326.93 746H2343.93C2349.66 746 2353.8 744.467 2356.33 741.4C2359 738.2 2360.33 734.067 2360.33 729C2360.33 725 2359.13 721.6 2356.73 718.8C2354.33 716 2350.73 712.733 2345.93 709C2341.8 705.667 2338.46 702.8 2335.93 700.4C2333.53 697.867 2331.4 694.8 2329.53 691.2C2327.8 687.467 2326.93 683.2 2326.93 678.4C2326.93 671.333 2329.26 665.533 2333.93 661C2338.73 656.333 2345.13 654 2353.13 654H2370.53V666H2356.13C2346.66 666 2341.93 670.467 2341.93 679.4C2341.93 682.867 2343 685.867 2345.13 688.4C2347.26 690.933 2350.6 693.933 2355.13 697.4C2359.26 700.6 2362.66 703.533 2365.33 706.2C2368 708.733 2370.26 712 2372.13 716C2374 719.867 2374.93 724.467 2374.93 729.8C2374.93 739.267 2372.4 746.333 2367.33 751C2362.4 755.667 2355.4 758 2346.33 758H2326.93V746ZM2448.97 784C2448.97 784.8 2446.57 782 2441.77 775.6C2436.97 769.333 2432.64 761.467 2428.77 752C2424.9 742.533 2422.97 731.867 2422.97 720V673.8C2422.97 662.067 2424.9 651.467 2428.77 642C2432.64 632.533 2436.97 624.667 2441.77 618.4C2446.57 612 2448.97 609.2 2448.97 610H2466.37C2458.24 618.133 2451.64 627.867 2446.57 639.2C2441.5 650.4 2438.97 662 2438.97 674V720C2438.97 731.467 2441.44 742.8 2446.37 754C2451.3 765.067 2457.97 775.067 2466.37 784H2448.97ZM2484.16 618H2518.96C2531.09 618 2540.49 621.067 2547.16 627.2C2553.82 633.333 2557.16 642.333 2557.16 654.2V721.8C2557.16 733.667 2553.82 742.667 2547.16 748.8C2540.49 754.8 2531.09 757.867 2518.96 758H2484.16V618ZM2518.96 744.4C2525.09 744.4 2530.02 742.667 2533.76 739.2C2537.62 735.6 2539.56 730.867 2539.56 725V651C2539.56 645.133 2537.62 640.467 2533.76 637C2530.02 633.4 2525.09 631.6 2518.96 631.6H2501.96V744.4H2518.96ZM2583.65 681.4L2602.45 657.6L2575.25 650.6L2579.25 637L2605.45 644.4L2603.85 618.6H2619.45L2618.45 644.4L2644.45 637L2649.65 652L2622.25 657.6L2626.85 663.6C2628.58 665.867 2630.58 668.467 2632.85 671.4C2635.12 674.333 2637.58 677.4 2640.25 680.6L2627.05 690.2L2611.85 667L2597.05 690.2L2583.65 681.4ZM2699.74 758V618H2726.34L2753.14 700.8H2754.54L2781.94 618H2807.54V758H2789.94V639L2763.14 720.8H2744.14L2717.34 638.8V758H2699.74ZM2853.35 758C2848.55 758 2844.08 756.8 2839.95 754.4C2835.95 752 2832.75 748.733 2830.35 744.6C2828.08 740.467 2826.95 735.8 2826.95 730.6V720.2C2826.95 713.933 2828.48 708.667 2831.55 704.4C2834.75 700.133 2838.68 697.133 2843.35 695.4L2868.15 686.2V676.8C2868.15 673.6 2867.15 671 2865.15 669C2863.28 666.867 2860.82 665.8 2857.75 665.8H2835.15V654H2859.15C2866.48 654 2872.28 656.2 2876.55 660.6C2880.95 664.867 2883.15 670.733 2883.15 678.2V758H2853.35ZM2868.15 745.8V698.8L2850.55 705.4C2847.08 706.733 2844.62 708.533 2843.15 710.8C2841.82 713.067 2841.15 716.667 2841.15 721.6V732.8C2841.15 736.4 2842.48 739.467 2845.15 742C2847.82 744.533 2851.02 745.8 2854.75 745.8H2868.15ZM2927.2 758C2919.86 758 2914 755.8 2909.6 751.4C2905.33 747 2903.2 741.067 2903.2 733.6V680.4C2903.2 672 2905.4 665.533 2909.8 661C2914.2 656.333 2920.6 654 2929 654H2951.2V666H2929.4C2926.33 666 2923.86 667.067 2922 669.2C2920.13 671.2 2919.2 673.8 2919.2 677V735C2919.2 738.2 2920.13 740.867 2922 743C2924 745 2926.53 746 2929.6 746H2951.2V758H2927.2ZM2965.16 637V621H2981.16V637H2965.16ZM2965.16 758V654H2981.16V758H2965.16ZM3005.2 654H3017.6L3019.4 659.8L3027.6 657.4C3033.2 655.667 3037.6 654.467 3040.8 653.8C3044.13 653 3047.26 652.6 3050.2 652.6C3055 652.6 3058.53 654.267 3060.8 657.6C3063.06 660.933 3064.2 665.267 3064.2 670.6V758H3048.2V675.8C3048.2 671.933 3047.93 669.267 3047.4 667.8C3046.86 666.2 3045.53 665.4 3043.4 665.4C3042.33 665.4 3034.93 667.533 3021.2 671.8V758H3005.2V654ZM3086.45 618H3102.45V659.4L3111.25 656.8C3116.71 655.2 3120.71 654.133 3123.25 653.6C3125.91 652.933 3128.65 652.6 3131.45 652.6C3136.25 652.6 3139.78 654.267 3142.05 657.6C3144.31 660.933 3145.45 665.267 3145.45 670.6V758H3129.45V675.8C3129.45 671.933 3129.18 669.267 3128.65 667.8C3128.11 666.2 3126.78 665.4 3124.65 665.4C3123.58 665.4 3116.18 667.533 3102.45 671.8V758H3086.45V618ZM3190.45 758C3183.12 758 3177.25 755.8 3172.85 751.4C3168.58 747 3166.45 741.067 3166.45 733.6V680.4C3166.45 671.733 3168.85 664.933 3173.65 660C3178.45 655.067 3185.58 652.6 3195.05 652.6C3204.52 652.6 3211.58 655.067 3216.25 660C3221.05 664.933 3223.45 671.733 3223.45 680.4V689.6C3223.45 695.2 3221.85 699.467 3218.65 702.4C3215.45 705.2 3211.25 707.333 3206.05 708.8L3182.45 715.4V735C3182.45 738.2 3183.38 740.867 3185.25 743C3187.25 745 3189.78 746 3192.85 746H3214.45V758H3190.45ZM3194.65 699.4C3199.05 698.2 3201.98 697.333 3203.45 696.8C3205.05 696.133 3206.12 695.2 3206.65 694C3207.18 692.8 3207.45 690.8 3207.45 688V677C3207.45 672.733 3206.32 669.6 3204.05 667.6C3201.92 665.6 3198.92 664.6 3195.05 664.6C3191.32 664.6 3188.25 665.667 3185.85 667.8C3183.58 669.933 3182.45 673 3182.45 677V702.8L3194.65 699.4ZM3233.38 746H3250.38C3256.11 746 3260.24 744.467 3262.78 741.4C3265.44 738.2 3266.78 734.067 3266.78 729C3266.78 725 3265.58 721.6 3263.18 718.8C3260.78 716 3257.18 712.733 3252.38 709C3248.24 705.667 3244.91 702.8 3242.38 700.4C3239.98 697.867 3237.84 694.8 3235.98 691.2C3234.24 687.467 3233.38 683.2 3233.38 678.4C3233.38 671.333 3235.71 665.533 3240.38 661C3245.18 656.333 3251.58 654 3259.58 654H3276.98V666H3262.58C3253.11 666 3248.38 670.467 3248.38 679.4C3248.38 682.867 3249.44 685.867 3251.58 688.4C3253.71 690.933 3257.04 693.933 3261.58 697.4C3265.71 700.6 3269.11 703.533 3271.78 706.2C3274.44 708.733 3276.71 712 3278.58 716C3280.44 719.867 3281.38 724.467 3281.38 729.8C3281.38 739.267 3278.84 746.333 3273.78 751C3268.84 755.667 3261.84 758 3252.78 758H3233.38V746ZM3298.94 784C3307.34 775.067 3314 765.067 3318.94 754C3323.87 742.8 3326.34 731.467 3326.34 720V674C3326.34 662 3323.8 650.4 3318.74 639.2C3313.67 627.867 3307.07 618.133 3298.94 610H3316.34C3316.34 609.2 3318.74 612 3323.54 618.4C3328.34 624.667 3332.67 632.533 3336.54 642C3340.4 651.467 3342.34 662.067 3342.34 673.8V720C3342.34 731.867 3340.4 742.533 3336.54 752C3332.67 761.467 3328.34 769.333 3323.54 775.6C3318.74 782 3316.34 784.8 3316.34 784H3298.94Z" fill="white"/>
<path d="M950.76 1028.98C942.08 1028.98 935.453 1026.79 930.88 1022.4C926.307 1017.92 924.02 1011.71 924.02 1003.78V954.22C924.02 946.287 926.307 940.127 930.88 935.74C935.453 931.26 942.08 929.02 950.76 929.02C959.533 929.02 966.207 931.26 970.78 935.74C975.353 940.127 977.64 946.287 977.64 954.22V1003.78C977.64 1011.71 975.353 1017.92 970.78 1022.4C966.207 1026.79 959.533 1028.98 950.76 1028.98ZM950.76 1019.74C954.867 1019.74 958.32 1018.57 961.12 1016.24C963.92 1013.81 965.32 1010.45 965.32 1006.16V951.84C965.32 947.547 963.92 944.233 961.12 941.9C958.32 939.473 954.867 938.26 950.76 938.26C946.653 938.26 943.2 939.473 940.4 941.9C937.693 944.233 936.34 947.547 936.34 951.84V1006.16C936.34 1010.45 937.693 1013.81 940.4 1016.24C943.2 1018.57 946.653 1019.74 950.76 1019.74ZM992.025 955.2H1000.71L1001.97 960.38L1005.47 958.7C1008.45 957.207 1010.93 956.087 1012.89 955.34C1014.94 954.593 1016.99 954.22 1019.05 954.22V962.48C1017.83 962.48 1016.2 962.853 1014.15 963.6C1012.09 964.253 1008.45 965.84 1003.23 968.36V1028H992.025V955.2ZM1029.49 943.3V932.1H1040.69V943.3H1029.49ZM1029.49 1028V955.2H1040.69V1028H1029.49ZM1063.39 1042H1077.81C1079.96 1042 1081.64 1041.25 1082.85 1039.76C1084.16 1038.36 1084.81 1036.54 1084.81 1034.3V1028.14H1073.19C1068.06 1028.14 1063.72 1026.46 1060.17 1023.1C1056.63 1019.74 1054.85 1015.54 1054.85 1010.5V972.84C1054.85 967.8 1056.63 963.6 1060.17 960.24C1063.81 956.88 1068.2 955.2 1073.33 955.2H1096.15V1033.32C1096.15 1038.55 1094.71 1042.7 1091.81 1045.78C1089.01 1048.86 1085.05 1050.4 1079.91 1050.4H1063.39V1042ZM1084.95 1019.74V963.6H1075.57C1072.96 963.6 1070.72 964.487 1068.85 966.26C1066.99 968.033 1066.05 970.227 1066.05 972.84V1010.5C1066.05 1013.11 1066.99 1015.31 1068.85 1017.08C1070.72 1018.85 1072.96 1019.74 1075.57 1019.74H1084.95ZM1126.08 1028C1120.94 1028 1116.84 1026.46 1113.76 1023.38C1110.77 1020.3 1109.28 1016.15 1109.28 1010.92V973.68C1109.28 967.613 1110.96 962.853 1114.32 959.4C1117.68 955.947 1122.67 954.22 1129.3 954.22C1135.92 954.22 1140.87 955.947 1144.14 959.4C1147.5 962.853 1149.18 967.613 1149.18 973.68V980.12C1149.18 984.04 1148.06 987.027 1145.82 989.08C1143.58 991.04 1140.64 992.533 1137 993.56L1120.48 998.18V1011.9C1120.48 1014.14 1121.13 1016.01 1122.44 1017.5C1123.84 1018.9 1125.61 1019.6 1127.76 1019.6H1142.88V1028H1126.08ZM1129.02 986.98C1132.1 986.14 1134.15 985.533 1135.18 985.16C1136.3 984.693 1137.04 984.04 1137.42 983.2C1137.79 982.36 1137.98 980.96 1137.98 979V971.3C1137.98 968.313 1137.18 966.12 1135.6 964.72C1134.1 963.32 1132 962.62 1129.3 962.62C1126.68 962.62 1124.54 963.367 1122.86 964.86C1121.27 966.353 1120.48 968.5 1120.48 971.3V989.36L1129.02 986.98ZM1160.33 955.2H1169.01L1170.27 959.26L1176.01 957.58C1179.93 956.367 1183.01 955.527 1185.25 955.06C1187.58 954.5 1189.77 954.22 1191.83 954.22C1195.19 954.22 1197.66 955.387 1199.25 957.72C1200.83 960.053 1201.63 963.087 1201.63 966.82V1028H1190.43V970.46C1190.43 967.753 1190.24 965.887 1189.87 964.86C1189.49 963.74 1188.56 963.18 1187.07 963.18C1186.32 963.18 1181.14 964.673 1171.53 967.66V1028H1160.33V955.2ZM1213 1019.6H1224.9C1228.91 1019.6 1231.81 1018.53 1233.58 1016.38C1235.45 1014.14 1236.38 1011.25 1236.38 1007.7C1236.38 1004.9 1235.54 1002.52 1233.86 1000.56C1232.18 998.6 1229.66 996.313 1226.3 993.7C1223.41 991.367 1221.07 989.36 1219.3 987.68C1217.62 985.907 1216.13 983.76 1214.82 981.24C1213.61 978.627 1213 975.64 1213 972.28C1213 967.333 1214.63 963.273 1217.9 960.1C1221.26 956.833 1225.74 955.2 1231.34 955.2H1243.52V963.6H1233.44C1226.81 963.6 1223.5 966.727 1223.5 972.98C1223.5 975.407 1224.25 977.507 1225.74 979.28C1227.23 981.053 1229.57 983.153 1232.74 985.58C1235.63 987.82 1238.01 989.873 1239.88 991.74C1241.75 993.513 1243.33 995.8 1244.64 998.6C1245.95 1001.31 1246.6 1004.53 1246.6 1008.26C1246.6 1014.89 1244.83 1019.83 1241.28 1023.1C1237.83 1026.37 1232.93 1028 1226.58 1028H1213V1019.6ZM1298.71 1028C1292.83 1028 1288.07 1026.27 1284.43 1022.82C1280.79 1019.37 1278.97 1014.75 1278.97 1008.96V974.1C1278.97 970.087 1280.04 966.68 1282.19 963.88C1284.43 961.08 1287.18 959.167 1290.45 958.14L1309.21 951.56V930H1320.41V1028H1298.71ZM1309.21 1019.6V960.8L1296.75 965C1294.32 965.747 1292.59 966.96 1291.57 968.64C1290.63 970.227 1290.17 972.793 1290.17 976.34V1008.96C1290.17 1012.32 1291.15 1014.93 1293.11 1016.8C1295.07 1018.67 1297.73 1019.6 1301.09 1019.6H1309.21ZM1352.08 1028C1348.72 1028 1345.59 1027.16 1342.7 1025.48C1339.9 1023.8 1337.66 1021.51 1335.98 1018.62C1334.39 1015.73 1333.6 1012.46 1333.6 1008.82V1001.54C1333.6 997.153 1334.67 993.467 1336.82 990.48C1339.06 987.493 1341.81 985.393 1345.08 984.18L1362.44 977.74V971.16C1362.44 968.92 1361.74 967.1 1360.34 965.7C1359.03 964.207 1357.31 963.46 1355.16 963.46H1339.34V955.2H1356.14C1361.27 955.2 1365.33 956.74 1368.32 959.82C1371.4 962.807 1372.94 966.913 1372.94 972.14V1028H1352.08ZM1362.44 1019.46V986.56L1350.12 991.18C1347.69 992.113 1345.97 993.373 1344.94 994.96C1344.01 996.547 1343.54 999.067 1343.54 1002.52V1010.36C1343.54 1012.88 1344.47 1015.03 1346.34 1016.8C1348.21 1018.57 1350.45 1019.46 1353.06 1019.46H1362.44ZM1409.43 955.2H1418.11L1419.37 959.26L1425.11 957.58C1429.03 956.367 1432.11 955.527 1434.35 955.06C1436.68 954.5 1438.87 954.22 1440.93 954.22C1444.94 954.22 1447.74 955.993 1449.33 959.54C1451.94 958.607 1455.63 957.487 1460.39 956.18C1465.15 954.873 1468.65 954.22 1470.89 954.22C1474.25 954.22 1476.72 955.387 1478.31 957.72C1479.99 960.053 1480.83 963.087 1480.83 966.82V1028H1469.63V970.46C1469.63 967.753 1469.44 965.887 1469.07 964.86C1468.69 963.74 1467.76 963.18 1466.27 963.18C1465.52 963.18 1460.39 964.673 1450.87 967.66V1028H1439.67V970.46C1439.67 967.753 1439.48 965.887 1439.11 964.86C1438.73 963.74 1437.8 963.18 1436.31 963.18C1435.56 963.18 1430.33 964.673 1420.63 967.66V1028H1409.43V955.2ZM1499.32 949.74L1494.7 945.54L1510.94 931.68L1518.08 938.26L1499.32 949.74ZM1496.24 1028V955.2H1507.44V1028H1496.24ZM1524.27 955.2H1532.95L1534.21 959.26L1539.95 957.58C1543.87 956.367 1546.95 955.527 1549.19 955.06C1551.52 954.5 1553.72 954.22 1555.77 954.22C1559.78 954.22 1562.58 955.993 1564.17 959.54C1566.78 958.607 1570.47 957.487 1575.23 956.18C1579.99 954.873 1583.49 954.22 1585.73 954.22C1589.09 954.22 1591.56 955.387 1593.15 957.72C1594.83 960.053 1595.67 963.087 1595.67 966.82V1028H1584.47V970.46C1584.47 967.753 1584.28 965.887 1583.91 964.86C1583.54 963.74 1582.6 963.18 1581.11 963.18C1580.36 963.18 1575.23 964.673 1565.71 967.66V1028H1554.51V970.46C1554.51 967.753 1554.32 965.887 1553.95 964.86C1553.58 963.74 1552.64 963.18 1551.15 963.18C1550.4 963.18 1545.18 964.673 1535.47 967.66V1028H1524.27V955.2ZM1625.65 1028C1620.51 1028 1616.41 1026.46 1613.33 1023.38C1610.34 1020.3 1608.85 1016.15 1608.85 1010.92V973.68C1608.85 967.613 1610.53 962.853 1613.89 959.4C1617.25 955.947 1622.24 954.22 1628.87 954.22C1635.49 954.22 1640.44 955.947 1643.71 959.4C1647.07 962.853 1648.75 967.613 1648.75 973.68V980.12C1648.75 984.04 1647.63 987.027 1645.39 989.08C1643.15 991.04 1640.21 992.533 1636.57 993.56L1620.05 998.18V1011.9C1620.05 1014.14 1620.7 1016.01 1622.01 1017.5C1623.41 1018.9 1625.18 1019.6 1627.33 1019.6H1642.45V1028H1625.65ZM1628.59 986.98C1631.67 986.14 1633.72 985.533 1634.75 985.16C1635.87 984.693 1636.61 984.04 1636.99 983.2C1637.36 982.36 1637.55 980.96 1637.55 979V971.3C1637.55 968.313 1636.75 966.12 1635.17 964.72C1633.67 963.32 1631.57 962.62 1628.87 962.62C1626.25 962.62 1624.11 963.367 1622.43 964.86C1620.84 966.353 1620.05 968.5 1620.05 971.3V989.36L1628.59 986.98ZM1655.7 1019.6H1667.6C1671.61 1019.6 1674.5 1018.53 1676.28 1016.38C1678.14 1014.14 1679.08 1011.25 1679.08 1007.7C1679.08 1004.9 1678.24 1002.52 1676.56 1000.56C1674.88 998.6 1672.36 996.313 1669 993.7C1666.1 991.367 1663.77 989.36 1662 987.68C1660.32 985.907 1658.82 983.76 1657.52 981.24C1656.3 978.627 1655.7 975.64 1655.7 972.28C1655.7 967.333 1657.33 963.273 1660.6 960.1C1663.96 956.833 1668.44 955.2 1674.04 955.2H1686.22V963.6H1676.14C1669.51 963.6 1666.2 966.727 1666.2 972.98C1666.2 975.407 1666.94 977.507 1668.44 979.28C1669.93 981.053 1672.26 983.153 1675.44 985.58C1678.33 987.82 1680.71 989.873 1682.58 991.74C1684.44 993.513 1686.03 995.8 1687.34 998.6C1688.64 1001.31 1689.3 1004.53 1689.3 1008.26C1689.3 1014.89 1687.52 1019.83 1683.98 1023.1C1680.52 1026.37 1675.62 1028 1669.28 1028H1655.7V1019.6ZM1716.43 1028C1711.3 1028 1707.19 1026.46 1704.11 1023.38C1701.12 1020.3 1699.63 1016.15 1699.63 1010.92V973.68C1699.63 967.613 1701.31 962.853 1704.67 959.4C1708.03 955.947 1713.02 954.22 1719.65 954.22C1726.28 954.22 1731.22 955.947 1734.49 959.4C1737.85 962.853 1739.53 967.613 1739.53 973.68V980.12C1739.53 984.04 1738.41 987.027 1736.17 989.08C1733.93 991.04 1730.99 992.533 1727.35 993.56L1710.83 998.18V1011.9C1710.83 1014.14 1711.48 1016.01 1712.79 1017.5C1714.19 1018.9 1715.96 1019.6 1718.11 1019.6H1733.23V1028H1716.43ZM1719.37 986.98C1722.45 986.14 1724.5 985.533 1725.53 985.16C1726.65 984.693 1727.4 984.04 1727.77 983.2C1728.14 982.36 1728.33 980.96 1728.33 979V971.3C1728.33 968.313 1727.54 966.12 1725.95 964.72C1724.46 963.32 1722.36 962.62 1719.65 962.62C1717.04 962.62 1714.89 963.367 1713.21 964.86C1711.62 966.353 1710.83 968.5 1710.83 971.3V989.36L1719.37 986.98ZM1790.21 1028C1784.33 1028 1779.57 1026.27 1775.93 1022.82C1772.29 1019.37 1770.47 1014.75 1770.47 1008.96V974.1C1770.47 970.087 1771.55 966.68 1773.69 963.88C1775.93 961.08 1778.69 959.167 1781.95 958.14L1800.71 951.56V930H1811.91V1028H1790.21ZM1800.71 1019.6V960.8L1788.25 965C1785.83 965.747 1784.1 966.96 1783.07 968.64C1782.14 970.227 1781.67 972.793 1781.67 976.34V1008.96C1781.67 1012.32 1782.65 1014.93 1784.61 1016.8C1786.57 1018.67 1789.23 1019.6 1792.59 1019.6H1800.71ZM1843.3 1028C1838.17 1028 1834.06 1026.46 1830.98 1023.38C1828 1020.3 1826.5 1016.15 1826.5 1010.92V973.68C1826.5 967.613 1828.18 962.853 1831.54 959.4C1834.9 955.947 1839.9 954.22 1846.52 954.22C1853.15 954.22 1858.1 955.947 1861.36 959.4C1864.72 962.853 1866.4 967.613 1866.4 973.68V980.12C1866.4 984.04 1865.28 987.027 1863.04 989.08C1860.8 991.04 1857.86 992.533 1854.22 993.56L1837.7 998.18V1011.9C1837.7 1014.14 1838.36 1016.01 1839.66 1017.5C1841.06 1018.9 1842.84 1019.6 1844.98 1019.6H1860.1V1028H1843.3ZM1846.24 986.98C1849.32 986.14 1851.38 985.533 1852.4 985.16C1853.52 984.693 1854.27 984.04 1854.64 983.2C1855.02 982.36 1855.2 980.96 1855.2 979V971.3C1855.2 968.313 1854.41 966.12 1852.82 964.72C1851.33 963.32 1849.23 962.62 1846.52 962.62C1843.91 962.62 1841.76 963.367 1840.08 964.86C1838.5 966.353 1837.7 968.5 1837.7 971.3V989.36L1846.24 986.98ZM1917.09 1028C1911.21 1028 1906.45 1026.27 1902.81 1022.82C1899.17 1019.37 1897.35 1014.75 1897.35 1008.96V974.1C1897.35 970.087 1898.42 966.68 1900.57 963.88C1902.81 961.08 1905.56 959.167 1908.83 958.14L1927.59 951.56V930H1938.79V1028H1917.09ZM1927.59 1019.6V960.8L1915.13 965C1912.7 965.747 1910.97 966.96 1909.95 968.64C1909.01 970.227 1908.55 972.793 1908.55 976.34V1008.96C1908.55 1012.32 1909.53 1014.93 1911.49 1016.8C1913.45 1018.67 1916.11 1019.6 1919.47 1019.6H1927.59ZM1973.4 1028.98C1966.87 1028.98 1961.78 1027.35 1958.14 1024.08C1954.59 1020.72 1952.82 1016.1 1952.82 1010.22V972.98C1952.82 967.1 1954.59 962.527 1958.14 959.26C1961.78 955.9 1966.87 954.22 1973.4 954.22C1979.93 954.22 1984.97 955.9 1988.52 959.26C1992.16 962.527 1993.98 967.1 1993.98 972.98V1010.22C1993.98 1016.1 1992.16 1020.72 1988.52 1024.08C1984.97 1027.35 1979.93 1028.98 1973.4 1028.98ZM1973.4 1020.3C1976.39 1020.3 1978.72 1019.46 1980.4 1017.78C1982.17 1016.01 1983.06 1013.49 1983.06 1010.22V972.98C1983.06 969.713 1982.17 967.24 1980.4 965.56C1978.72 963.787 1976.39 962.9 1973.4 962.9C1970.41 962.9 1968.03 963.787 1966.26 965.56C1964.58 967.24 1963.74 969.713 1963.74 972.98V1010.22C1963.74 1013.49 1964.58 1016.01 1966.26 1017.78C1968.03 1019.46 1970.41 1020.3 1973.4 1020.3ZM2023.38 1028C2018.25 1028 2014.14 1026.46 2011.06 1023.38C2008.08 1020.3 2006.58 1016.15 2006.58 1010.92V973.68C2006.58 967.8 2008.12 963.273 2011.2 960.1C2014.28 956.833 2018.76 955.2 2024.64 955.2H2040.18V963.6H2024.92C2022.78 963.6 2021.05 964.347 2019.74 965.84C2018.44 967.24 2017.78 969.06 2017.78 971.3V1011.9C2017.78 1014.14 2018.44 1016.01 2019.74 1017.5C2021.14 1018.9 2022.92 1019.6 2025.06 1019.6H2040.18V1028H2023.38ZM2058.49 1028.98C2055.13 1028.98 2052.61 1027.81 2050.93 1025.48C2049.35 1023.15 2048.55 1020.11 2048.55 1016.38V955.2H2059.75V1012.74C2059.75 1015.35 2059.94 1017.22 2060.31 1018.34C2060.69 1019.46 2061.57 1020.02 2062.97 1020.02C2063.63 1020.02 2068.9 1018.62 2078.79 1015.82V955.2H2089.99V1028H2082.01L2079.91 1023.24C2078.42 1023.8 2077.3 1024.17 2076.55 1024.36C2072.17 1025.95 2068.62 1027.11 2065.91 1027.86C2063.21 1028.61 2060.73 1028.98 2058.49 1028.98ZM2106.83 955.2H2115.51L2116.77 959.26L2122.51 957.58C2126.43 956.367 2129.51 955.527 2131.75 955.06C2134.08 954.5 2136.28 954.22 2138.33 954.22C2142.34 954.22 2145.14 955.993 2146.73 959.54C2149.34 958.607 2153.03 957.487 2157.79 956.18C2162.55 954.873 2166.05 954.22 2168.29 954.22C2171.65 954.22 2174.12 955.387 2175.71 957.72C2177.39 960.053 2178.23 963.087 2178.23 966.82V1028H2167.03V970.46C2167.03 967.753 2166.84 965.887 2166.47 964.86C2166.1 963.74 2165.16 963.18 2163.67 963.18C2162.92 963.18 2157.79 964.673 2148.27 967.66V1028H2137.07V970.46C2137.07 967.753 2136.88 965.887 2136.51 964.86C2136.14 963.74 2135.2 963.18 2133.71 963.18C2132.96 963.18 2127.74 964.673 2118.03 967.66V1028H2106.83V955.2ZM2208.21 1028C2203.07 1028 2198.97 1026.46 2195.89 1023.38C2192.9 1020.3 2191.41 1016.15 2191.41 1010.92V973.68C2191.41 967.613 2193.09 962.853 2196.45 959.4C2199.81 955.947 2204.8 954.22 2211.43 954.22C2218.05 954.22 2223 955.947 2226.27 959.4C2229.63 962.853 2231.31 967.613 2231.31 973.68V980.12C2231.31 984.04 2230.19 987.027 2227.95 989.08C2225.71 991.04 2222.77 992.533 2219.13 993.56L2202.61 998.18V1011.9C2202.61 1014.14 2203.26 1016.01 2204.57 1017.5C2205.97 1018.9 2207.74 1019.6 2209.89 1019.6H2225.01V1028H2208.21ZM2211.15 986.98C2214.23 986.14 2216.28 985.533 2217.31 985.16C2218.43 984.693 2219.17 984.04 2219.55 983.2C2219.92 982.36 2220.11 980.96 2220.11 979V971.3C2220.11 968.313 2219.31 966.12 2217.73 964.72C2216.23 963.32 2214.13 962.62 2211.43 962.62C2208.81 962.62 2206.67 963.367 2204.99 964.86C2203.4 966.353 2202.61 968.5 2202.61 971.3V989.36L2211.15 986.98ZM2242.45 955.2H2251.13L2252.39 959.26L2258.13 957.58C2262.05 956.367 2265.13 955.527 2267.37 955.06C2269.71 954.5 2271.9 954.22 2273.95 954.22C2277.31 954.22 2279.79 955.387 2281.37 957.72C2282.96 960.053 2283.75 963.087 2283.75 966.82V1028H2272.55V970.46C2272.55 967.753 2272.37 965.887 2271.99 964.86C2271.62 963.74 2270.69 963.18 2269.19 963.18C2268.45 963.18 2263.27 964.673 2253.65 967.66V1028H2242.45V955.2ZM2319.63 1028C2314.5 1028 2310.44 1026.46 2307.45 1023.38C2304.46 1020.3 2302.97 1016.15 2302.97 1010.92V963.6H2294.57V955.2H2302.97V934.06L2314.17 929.86V955.2H2325.37V963.6H2314.17V1011.9C2314.17 1014.14 2314.78 1016.01 2315.99 1017.5C2317.3 1018.9 2319.02 1019.6 2321.17 1019.6H2325.37V1028H2319.63ZM2354.3 1028.98C2347.76 1028.98 2342.68 1027.35 2339.04 1024.08C2335.49 1020.72 2333.72 1016.1 2333.72 1010.22V972.98C2333.72 967.1 2335.49 962.527 2339.04 959.26C2342.68 955.9 2347.76 954.22 2354.3 954.22C2360.83 954.22 2365.87 955.9 2369.42 959.26C2373.06 962.527 2374.88 967.1 2374.88 972.98V1010.22C2374.88 1016.1 2373.06 1020.72 2369.42 1024.08C2365.87 1027.35 2360.83 1028.98 2354.3 1028.98ZM2354.3 1020.3C2357.28 1020.3 2359.62 1019.46 2361.3 1017.78C2363.07 1016.01 2363.96 1013.49 2363.96 1010.22V972.98C2363.96 969.713 2363.07 967.24 2361.3 965.56C2359.62 963.787 2357.28 962.9 2354.3 962.9C2351.31 962.9 2348.93 963.787 2347.16 965.56C2345.48 967.24 2344.64 969.713 2344.64 972.98V1010.22C2344.64 1013.49 2345.48 1016.01 2347.16 1017.78C2348.93 1019.46 2351.31 1020.3 2354.3 1020.3ZM2384.68 1019.6H2396.58C2400.59 1019.6 2403.49 1018.53 2405.26 1016.38C2407.13 1014.14 2408.06 1011.25 2408.06 1007.7C2408.06 1004.9 2407.22 1002.52 2405.54 1000.56C2403.86 998.6 2401.34 996.313 2397.98 993.7C2395.09 991.367 2392.75 989.36 2390.98 987.68C2389.3 985.907 2387.81 983.76 2386.5 981.24C2385.29 978.627 2384.68 975.64 2384.68 972.28C2384.68 967.333 2386.31 963.273 2389.58 960.1C2392.94 956.833 2397.42 955.2 2403.02 955.2H2415.2V963.6H2405.12C2398.49 963.6 2395.18 966.727 2395.18 972.98C2395.18 975.407 2395.93 977.507 2397.42 979.28C2398.91 981.053 2401.25 983.153 2404.42 985.58C2407.31 987.82 2409.69 989.873 2411.56 991.74C2413.43 993.513 2415.01 995.8 2416.32 998.6C2417.63 1001.31 2418.28 1004.53 2418.28 1008.26C2418.28 1014.89 2416.51 1019.83 2412.96 1023.1C2409.51 1026.37 2404.61 1028 2398.26 1028H2384.68V1019.6ZM2455.41 964.44H2447.01V955.2H2455.41V947.08C2455.41 941.853 2456.9 937.7 2459.89 934.62C2462.87 931.54 2466.93 930 2472.07 930H2478.23V938.4H2474.03C2471.88 938.4 2470.11 939.147 2468.71 940.64C2467.31 942.133 2466.61 943.953 2466.61 946.1V955.2H2477.95V964.44H2466.61V1028H2455.41V964.44ZM2490.12 949.74L2485.5 945.54L2501.74 931.68L2508.88 938.26L2490.12 949.74ZM2487.04 1028V955.2H2498.24V1028H2487.04ZM2510.87 1019.6H2522.77C2526.79 1019.6 2529.68 1018.53 2531.45 1016.38C2533.32 1014.14 2534.25 1011.25 2534.25 1007.7C2534.25 1004.9 2533.41 1002.52 2531.73 1000.56C2530.05 998.6 2527.53 996.313 2524.17 993.7C2521.28 991.367 2518.95 989.36 2517.17 987.68C2515.49 985.907 2514 983.76 2512.69 981.24C2511.48 978.627 2510.87 975.64 2510.87 972.28C2510.87 967.333 2512.51 963.273 2515.77 960.1C2519.13 956.833 2523.61 955.2 2529.21 955.2H2541.39V963.6H2531.31C2524.69 963.6 2521.37 966.727 2521.37 972.98C2521.37 975.407 2522.12 977.507 2523.61 979.28C2525.11 981.053 2527.44 983.153 2530.61 985.58C2533.51 987.82 2535.89 989.873 2537.75 991.74C2539.62 993.513 2541.21 995.8 2542.51 998.6C2543.82 1001.31 2544.47 1004.53 2544.47 1008.26C2544.47 1014.89 2542.7 1019.83 2539.15 1023.1C2535.7 1026.37 2530.8 1028 2524.45 1028H2510.87V1019.6ZM2557.04 943.3V932.1H2568.24V943.3H2557.04ZM2557.04 1028V955.2H2568.24V1028H2557.04ZM2600.47 1028C2595.34 1028 2591.23 1026.46 2588.15 1023.38C2585.17 1020.3 2583.67 1016.15 2583.67 1010.92V973.68C2583.67 967.8 2585.21 963.273 2588.29 960.1C2591.37 956.833 2595.85 955.2 2601.73 955.2H2617.27V963.6H2602.01C2599.87 963.6 2598.14 964.347 2596.83 965.84C2595.53 967.24 2594.87 969.06 2594.87 971.3V1011.9C2594.87 1014.14 2595.53 1016.01 2596.83 1017.5C2598.23 1018.9 2600.01 1019.6 2602.15 1019.6H2617.27V1028H2600.47ZM2644.82 1028.98C2638.29 1028.98 2633.2 1027.35 2629.56 1024.08C2626.02 1020.72 2624.24 1016.1 2624.24 1010.22V972.98C2624.24 967.1 2626.02 962.527 2629.56 959.26C2633.2 955.9 2638.29 954.22 2644.82 954.22C2651.36 954.22 2656.4 955.9 2659.94 959.26C2663.58 962.527 2665.4 967.1 2665.4 972.98V1010.22C2665.4 1016.1 2663.58 1020.72 2659.94 1024.08C2656.4 1027.35 2651.36 1028.98 2644.82 1028.98ZM2644.82 1020.3C2647.81 1020.3 2650.14 1019.46 2651.82 1017.78C2653.6 1016.01 2654.48 1013.49 2654.48 1010.22V972.98C2654.48 969.713 2653.6 967.24 2651.82 965.56C2650.14 963.787 2647.81 962.9 2644.82 962.9C2641.84 962.9 2639.46 963.787 2637.68 965.56C2636 967.24 2635.16 969.713 2635.16 972.98V1010.22C2635.16 1013.49 2636 1016.01 2637.68 1017.78C2639.46 1019.46 2641.84 1020.3 2644.82 1020.3ZM2675.21 1019.6H2687.11C2691.12 1019.6 2694.01 1018.53 2695.79 1016.38C2697.65 1014.14 2698.59 1011.25 2698.59 1007.7C2698.59 1004.9 2697.75 1002.52 2696.07 1000.56C2694.39 998.6 2691.87 996.313 2688.51 993.7C2685.61 991.367 2683.28 989.36 2681.51 987.68C2679.83 985.907 2678.33 983.76 2677.03 981.24C2675.81 978.627 2675.21 975.64 2675.21 972.28C2675.21 967.333 2676.84 963.273 2680.11 960.1C2683.47 956.833 2687.95 955.2 2693.55 955.2H2705.73V963.6H2695.65C2689.02 963.6 2685.71 966.727 2685.71 972.98C2685.71 975.407 2686.45 977.507 2687.95 979.28C2689.44 981.053 2691.77 983.153 2694.95 985.58C2697.84 987.82 2700.22 989.873 2702.09 991.74C2703.95 993.513 2705.54 995.8 2706.85 998.6C2708.15 1001.31 2708.81 1004.53 2708.81 1008.26C2708.81 1014.89 2707.03 1019.83 2703.49 1023.1C2700.03 1026.37 2695.13 1028 2688.79 1028H2675.21V1019.6ZM941.8 1208C936.667 1208 932.56 1206.46 929.48 1203.38C926.493 1200.3 925 1196.15 925 1190.92V1153.68C925 1147.8 926.54 1143.27 929.62 1140.1C932.7 1136.83 937.18 1135.2 943.06 1135.2H958.6V1143.6H943.34C941.193 1143.6 939.467 1144.35 938.16 1145.84C936.853 1147.24 936.2 1149.06 936.2 1151.3V1191.9C936.2 1194.14 936.853 1196.01 938.16 1197.5C939.56 1198.9 941.333 1199.6 943.48 1199.6H958.6V1208H941.8ZM986.153 1208.98C979.619 1208.98 974.533 1207.35 970.893 1204.08C967.346 1200.72 965.573 1196.1 965.573 1190.22V1152.98C965.573 1147.1 967.346 1142.53 970.893 1139.26C974.533 1135.9 979.619 1134.22 986.153 1134.22C992.686 1134.22 997.726 1135.9 1001.27 1139.26C1004.91 1142.53 1006.73 1147.1 1006.73 1152.98V1190.22C1006.73 1196.1 1004.91 1200.72 1001.27 1204.08C997.726 1207.35 992.686 1208.98 986.153 1208.98ZM986.153 1200.3C989.139 1200.3 991.473 1199.46 993.153 1197.78C994.926 1196.01 995.813 1193.49 995.813 1190.22V1152.98C995.813 1149.71 994.926 1147.24 993.153 1145.56C991.473 1143.79 989.139 1142.9 986.153 1142.9C983.166 1142.9 980.786 1143.79 979.013 1145.56C977.333 1147.24 976.493 1149.71 976.493 1152.98V1190.22C976.493 1193.49 977.333 1196.01 979.013 1197.78C980.786 1199.46 983.166 1200.3 986.153 1200.3ZM1020.74 1135.2H1029.42L1030.68 1139.26L1036.42 1137.58C1040.34 1136.37 1043.42 1135.53 1045.66 1135.06C1047.99 1134.5 1050.18 1134.22 1052.24 1134.22C1056.25 1134.22 1059.05 1135.99 1060.64 1139.54C1063.25 1138.61 1066.94 1137.49 1071.7 1136.18C1076.46 1134.87 1079.96 1134.22 1082.2 1134.22C1085.56 1134.22 1088.03 1135.39 1089.62 1137.72C1091.3 1140.05 1092.14 1143.09 1092.14 1146.82V1208H1080.94V1150.46C1080.94 1147.75 1080.75 1145.89 1080.38 1144.86C1080 1143.74 1079.07 1143.18 1077.58 1143.18C1076.83 1143.18 1071.7 1144.67 1062.18 1147.66V1208H1050.98V1150.46C1050.98 1147.75 1050.79 1145.89 1050.42 1144.86C1050.04 1143.74 1049.11 1143.18 1047.62 1143.18C1046.87 1143.18 1041.64 1144.67 1031.94 1147.66V1208H1020.74V1135.2ZM1125.33 1208.98C1118.8 1208.98 1113.71 1207.35 1110.07 1204.08C1106.53 1200.72 1104.75 1196.1 1104.75 1190.22V1152.98C1104.75 1147.1 1106.53 1142.53 1110.07 1139.26C1113.71 1135.9 1118.8 1134.22 1125.33 1134.22C1131.87 1134.22 1136.91 1135.9 1140.45 1139.26C1144.09 1142.53 1145.91 1147.1 1145.91 1152.98V1190.22C1145.91 1196.1 1144.09 1200.72 1140.45 1204.08C1136.91 1207.35 1131.87 1208.98 1125.33 1208.98ZM1125.33 1200.3C1128.32 1200.3 1130.65 1199.46 1132.33 1197.78C1134.11 1196.01 1134.99 1193.49 1134.99 1190.22V1152.98C1134.99 1149.71 1134.11 1147.24 1132.33 1145.56C1130.65 1143.79 1128.32 1142.9 1125.33 1142.9C1122.35 1142.9 1119.97 1143.79 1118.19 1145.56C1116.51 1147.24 1115.67 1149.71 1115.67 1152.98V1190.22C1115.67 1193.49 1116.51 1196.01 1118.19 1197.78C1119.97 1199.46 1122.35 1200.3 1125.33 1200.3ZM1180.97 1123.3V1112.1H1192.17V1123.3H1180.97ZM1180.97 1208V1135.2H1192.17V1208H1180.97ZM1209 1135.2H1217.68L1218.94 1139.26L1224.68 1137.58C1228.6 1136.37 1231.68 1135.53 1233.92 1135.06C1236.25 1134.5 1238.44 1134.22 1240.5 1134.22C1243.86 1134.22 1246.33 1135.39 1247.92 1137.72C1249.5 1140.05 1250.3 1143.09 1250.3 1146.82V1208H1239.1V1150.46C1239.1 1147.75 1238.91 1145.89 1238.54 1144.86C1238.16 1143.74 1237.23 1143.18 1235.74 1143.18C1234.99 1143.18 1229.81 1144.67 1220.2 1147.66V1208H1209V1135.2ZM1286.17 1208C1281.04 1208 1276.98 1206.46 1273.99 1203.38C1271.01 1200.3 1269.51 1196.15 1269.51 1190.92V1143.6H1261.11V1135.2H1269.51V1114.06L1280.71 1109.86V1135.2H1291.91V1143.6H1280.71V1191.9C1280.71 1194.14 1281.32 1196.01 1282.53 1197.5C1283.84 1198.9 1285.57 1199.6 1287.71 1199.6H1291.91V1208H1286.17ZM1317.62 1208C1312.49 1208 1308.38 1206.46 1305.3 1203.38C1302.31 1200.3 1300.82 1196.15 1300.82 1190.92V1153.68C1300.82 1147.61 1302.5 1142.85 1305.86 1139.4C1309.22 1135.95 1314.21 1134.22 1320.84 1134.22C1327.47 1134.22 1332.41 1135.95 1335.68 1139.4C1339.04 1142.85 1340.72 1147.61 1340.72 1153.68V1160.12C1340.72 1164.04 1339.6 1167.03 1337.36 1169.08C1335.12 1171.04 1332.18 1172.53 1328.54 1173.56L1312.02 1178.18V1191.9C1312.02 1194.14 1312.67 1196.01 1313.98 1197.5C1315.38 1198.9 1317.15 1199.6 1319.3 1199.6H1334.42V1208H1317.62ZM1320.56 1166.98C1323.64 1166.14 1325.69 1165.53 1326.72 1165.16C1327.84 1164.69 1328.59 1164.04 1328.96 1163.2C1329.33 1162.36 1329.52 1160.96 1329.52 1159V1151.3C1329.52 1148.31 1328.73 1146.12 1327.14 1144.72C1325.65 1143.32 1323.55 1142.62 1320.84 1142.62C1318.23 1142.62 1316.08 1143.37 1314.4 1144.86C1312.81 1146.35 1312.02 1148.5 1312.02 1151.3V1169.36L1320.56 1166.98ZM1351.87 1135.2H1360.55L1361.81 1140.38L1365.31 1138.7C1368.3 1137.21 1370.77 1136.09 1372.73 1135.34C1374.78 1134.59 1376.84 1134.22 1378.89 1134.22V1142.48C1377.68 1142.48 1376.04 1142.85 1373.99 1143.6C1371.94 1144.25 1368.3 1145.84 1363.07 1148.36V1208H1351.87V1135.2ZM1392.83 1144.44H1384.43V1135.2H1392.83V1127.08C1392.83 1121.85 1394.32 1117.7 1397.31 1114.62C1400.3 1111.54 1404.36 1110 1409.49 1110H1415.65V1118.4H1411.45C1409.3 1118.4 1407.53 1119.15 1406.13 1120.64C1404.73 1122.13 1404.03 1123.95 1404.03 1126.1V1135.2H1415.37V1144.44H1404.03V1208H1392.83V1144.44ZM1439.31 1208C1435.95 1208 1432.82 1207.16 1429.93 1205.48C1427.13 1203.8 1424.89 1201.51 1423.21 1198.62C1421.62 1195.73 1420.83 1192.46 1420.83 1188.82V1181.54C1420.83 1177.15 1421.9 1173.47 1424.05 1170.48C1426.29 1167.49 1429.04 1165.39 1432.31 1164.18L1449.67 1157.74V1151.16C1449.67 1148.92 1448.97 1147.1 1447.57 1145.7C1446.26 1144.21 1444.53 1143.46 1442.39 1143.46H1426.57V1135.2H1443.37C1448.5 1135.2 1452.56 1136.74 1455.55 1139.82C1458.63 1142.81 1460.17 1146.91 1460.17 1152.14V1208H1439.31ZM1449.67 1199.46V1166.56L1437.35 1171.18C1434.92 1172.11 1433.19 1173.37 1432.17 1174.96C1431.23 1176.55 1430.77 1179.07 1430.77 1182.52V1190.36C1430.77 1192.88 1431.7 1195.03 1433.57 1196.8C1435.43 1198.57 1437.67 1199.46 1440.29 1199.46H1449.67ZM1491 1208C1485.87 1208 1481.76 1206.46 1478.68 1203.38C1475.69 1200.3 1474.2 1196.15 1474.2 1190.92V1153.68C1474.2 1147.8 1475.74 1143.27 1478.82 1140.1C1481.9 1136.83 1486.38 1135.2 1492.26 1135.2H1507.8V1143.6H1492.54C1490.39 1143.6 1488.67 1144.35 1487.36 1145.84C1486.05 1147.24 1485.4 1149.06 1485.4 1151.3V1191.9C1485.4 1194.14 1486.05 1196.01 1487.36 1197.5C1488.76 1198.9 1490.53 1199.6 1492.68 1199.6H1507.8V1208H1491ZM1532.13 1208C1527 1208 1522.89 1206.46 1519.81 1203.38C1516.83 1200.3 1515.33 1196.15 1515.33 1190.92V1153.68C1515.33 1147.61 1517.01 1142.85 1520.37 1139.4C1523.73 1135.95 1528.73 1134.22 1535.35 1134.22C1541.98 1134.22 1546.93 1135.95 1550.19 1139.4C1553.55 1142.85 1555.23 1147.61 1555.23 1153.68V1160.12C1555.23 1164.04 1554.11 1167.03 1551.87 1169.08C1549.63 1171.04 1546.69 1172.53 1543.05 1173.56L1526.53 1178.18V1191.9C1526.53 1194.14 1527.19 1196.01 1528.49 1197.5C1529.89 1198.9 1531.67 1199.6 1533.81 1199.6H1548.93V1208H1532.13ZM1535.07 1166.98C1538.15 1166.14 1540.21 1165.53 1541.23 1165.16C1542.35 1164.69 1543.1 1164.04 1543.47 1163.2C1543.85 1162.36 1544.03 1160.96 1544.03 1159V1151.3C1544.03 1148.31 1543.24 1146.12 1541.65 1144.72C1540.16 1143.32 1538.06 1142.62 1535.35 1142.62C1532.74 1142.62 1530.59 1143.37 1528.91 1144.86C1527.33 1146.35 1526.53 1148.5 1526.53 1151.3V1169.36L1535.07 1166.98ZM1562.18 1199.6H1574.08C1578.09 1199.6 1580.99 1198.53 1582.76 1196.38C1584.63 1194.14 1585.56 1191.25 1585.56 1187.7C1585.56 1184.9 1584.72 1182.52 1583.04 1180.56C1581.36 1178.6 1578.84 1176.31 1575.48 1173.7C1572.59 1171.37 1570.25 1169.36 1568.48 1167.68C1566.8 1165.91 1565.31 1163.76 1564 1161.24C1562.79 1158.63 1562.18 1155.64 1562.18 1152.28C1562.18 1147.33 1563.81 1143.27 1567.08 1140.1C1570.44 1136.83 1574.92 1135.2 1580.52 1135.2H1592.7V1143.6H1582.62C1575.99 1143.6 1572.68 1146.73 1572.68 1152.98C1572.68 1155.41 1573.43 1157.51 1574.92 1159.28C1576.41 1161.05 1578.75 1163.15 1581.92 1165.58C1584.81 1167.82 1587.19 1169.87 1589.06 1171.74C1590.93 1173.51 1592.51 1175.8 1593.82 1178.6C1595.13 1181.31 1595.78 1184.53 1595.78 1188.26C1595.78 1194.89 1594.01 1199.83 1590.46 1203.1C1587.01 1206.37 1582.11 1208 1575.76 1208H1562.18V1199.6ZM1644.81 1208C1639.67 1208 1635.57 1206.46 1632.49 1203.38C1629.5 1200.3 1628.01 1196.15 1628.01 1190.92V1153.68C1628.01 1147.8 1629.55 1143.27 1632.63 1140.1C1635.71 1136.83 1640.19 1135.2 1646.07 1135.2H1661.61V1143.6H1646.35C1644.2 1143.6 1642.47 1144.35 1641.17 1145.84C1639.86 1147.24 1639.21 1149.06 1639.21 1151.3V1191.9C1639.21 1194.14 1639.86 1196.01 1641.17 1197.5C1642.57 1198.9 1644.34 1199.6 1646.49 1199.6H1661.61V1208H1644.81ZM1689.16 1208.98C1682.63 1208.98 1677.54 1207.35 1673.9 1204.08C1670.35 1200.72 1668.58 1196.1 1668.58 1190.22V1152.98C1668.58 1147.1 1670.35 1142.53 1673.9 1139.26C1677.54 1135.9 1682.63 1134.22 1689.16 1134.22C1695.69 1134.22 1700.73 1135.9 1704.28 1139.26C1707.92 1142.53 1709.74 1147.1 1709.74 1152.98V1190.22C1709.74 1196.1 1707.92 1200.72 1704.28 1204.08C1700.73 1207.35 1695.69 1208.98 1689.16 1208.98ZM1689.16 1200.3C1692.15 1200.3 1694.48 1199.46 1696.16 1197.78C1697.93 1196.01 1698.82 1193.49 1698.82 1190.22V1152.98C1698.82 1149.71 1697.93 1147.24 1696.16 1145.56C1694.48 1143.79 1692.15 1142.9 1689.16 1142.9C1686.17 1142.9 1683.79 1143.79 1682.02 1145.56C1680.34 1147.24 1679.5 1149.71 1679.5 1152.98V1190.22C1679.5 1193.49 1680.34 1196.01 1682.02 1197.78C1683.79 1199.46 1686.17 1200.3 1689.16 1200.3ZM1723.74 1135.2H1732.42L1733.68 1139.26L1739.42 1137.58C1743.34 1136.37 1746.42 1135.53 1748.66 1135.06C1751 1134.5 1753.19 1134.22 1755.24 1134.22C1759.26 1134.22 1762.06 1135.99 1763.64 1139.54C1766.26 1138.61 1769.94 1137.49 1774.7 1136.18C1779.46 1134.87 1782.96 1134.22 1785.2 1134.22C1788.56 1134.22 1791.04 1135.39 1792.62 1137.72C1794.3 1140.05 1795.14 1143.09 1795.14 1146.82V1208H1783.94V1150.46C1783.94 1147.75 1783.76 1145.89 1783.38 1144.86C1783.01 1143.74 1782.08 1143.18 1780.58 1143.18C1779.84 1143.18 1774.7 1144.67 1765.18 1147.66V1208H1753.98V1150.46C1753.98 1147.75 1753.8 1145.89 1753.42 1144.86C1753.05 1143.74 1752.12 1143.18 1750.62 1143.18C1749.88 1143.18 1744.65 1144.67 1734.94 1147.66V1208H1723.74V1135.2ZM1810.56 1135.2H1833.24C1838.37 1135.2 1842.71 1136.88 1846.26 1140.24C1849.9 1143.6 1851.72 1147.8 1851.72 1152.84V1190.5C1851.72 1195.54 1849.95 1199.74 1846.4 1203.1C1842.85 1206.37 1838.51 1208 1833.38 1208H1821.76V1230.4H1810.56V1135.2ZM1831 1199.74C1833.61 1199.74 1835.85 1198.85 1837.72 1197.08C1839.59 1195.31 1840.52 1193.11 1840.52 1190.5V1152.84C1840.52 1150.23 1839.59 1148.03 1837.72 1146.26C1835.85 1144.49 1833.61 1143.6 1831 1143.6H1821.76V1199.74H1831ZM1873.51 1208.98C1870.15 1208.98 1867.63 1207.81 1865.95 1205.48C1864.37 1203.15 1863.57 1200.11 1863.57 1196.38V1135.2H1874.77V1192.74C1874.77 1195.35 1874.96 1197.22 1875.33 1198.34C1875.71 1199.46 1876.59 1200.02 1877.99 1200.02C1878.65 1200.02 1883.92 1198.62 1893.81 1195.82V1135.2H1905.01V1208H1897.03L1894.93 1203.24C1893.44 1203.8 1892.32 1204.17 1891.57 1204.36C1887.19 1205.95 1883.64 1207.11 1880.93 1207.86C1878.23 1208.61 1875.75 1208.98 1873.51 1208.98ZM1942.15 1208C1937.02 1208 1932.96 1206.46 1929.97 1203.38C1926.98 1200.3 1925.49 1196.15 1925.49 1190.92V1143.6H1917.09V1135.2H1925.49V1114.06L1936.69 1109.86V1135.2H1947.89V1143.6H1936.69V1191.9C1936.69 1194.14 1937.3 1196.01 1938.51 1197.5C1939.82 1198.9 1941.54 1199.6 1943.69 1199.6H1947.89V1208H1942.15ZM1973.88 1208C1970.52 1208 1967.39 1207.16 1964.5 1205.48C1961.7 1203.8 1959.46 1201.51 1957.78 1198.62C1956.19 1195.73 1955.4 1192.46 1955.4 1188.82V1181.54C1955.4 1177.15 1956.47 1173.47 1958.62 1170.48C1960.86 1167.49 1963.61 1165.39 1966.88 1164.18L1984.24 1157.74V1151.16C1984.24 1148.92 1983.54 1147.1 1982.14 1145.7C1980.83 1144.21 1979.1 1143.46 1976.96 1143.46H1961.14V1135.2H1977.94C1983.07 1135.2 1987.13 1136.74 1990.12 1139.82C1993.2 1142.81 1994.74 1146.91 1994.74 1152.14V1208H1973.88ZM1984.24 1199.46V1166.56L1971.92 1171.18C1969.49 1172.11 1967.76 1173.37 1966.74 1174.96C1965.8 1176.55 1965.34 1179.07 1965.34 1182.52V1190.36C1965.34 1192.88 1966.27 1195.03 1968.14 1196.8C1970 1198.57 1972.24 1199.46 1974.86 1199.46H1984.24ZM2025.57 1208C2020.44 1208 2016.33 1206.46 2013.25 1203.38C2010.26 1200.3 2008.77 1196.15 2008.77 1190.92V1153.68C2008.77 1147.8 2010.31 1143.27 2013.39 1140.1C2016.47 1136.83 2020.95 1135.2 2026.83 1135.2H2042.37V1143.6H2027.11C2024.96 1143.6 2023.24 1144.35 2021.93 1145.84C2020.62 1147.24 2019.97 1149.06 2019.97 1151.3V1191.9C2019.97 1194.14 2020.62 1196.01 2021.93 1197.5C2023.33 1198.9 2025.1 1199.6 2027.25 1199.6H2042.37V1208H2025.57ZM2052.14 1123.3V1112.1H2063.34V1123.3H2052.14ZM2052.14 1208V1135.2H2063.34V1208H2052.14ZM2097.95 1208.98C2091.42 1208.98 2086.33 1207.35 2082.69 1204.08C2079.14 1200.72 2077.37 1196.1 2077.37 1190.22V1152.98C2077.37 1147.1 2079.14 1142.53 2082.69 1139.26C2086.33 1135.9 2091.42 1134.22 2097.95 1134.22C2104.48 1134.22 2109.52 1135.9 2113.07 1139.26C2116.71 1142.53 2118.53 1147.1 2118.53 1152.98V1190.22C2118.53 1196.1 2116.71 1200.72 2113.07 1204.08C2109.52 1207.35 2104.48 1208.98 2097.95 1208.98ZM2097.95 1200.3C2100.94 1200.3 2103.27 1199.46 2104.95 1197.78C2106.72 1196.01 2107.61 1193.49 2107.61 1190.22V1152.98C2107.61 1149.71 2106.72 1147.24 2104.95 1145.56C2103.27 1143.79 2100.94 1142.9 2097.95 1142.9C2094.96 1142.9 2092.58 1143.79 2090.81 1145.56C2089.13 1147.24 2088.29 1149.71 2088.29 1152.98V1190.22C2088.29 1193.49 2089.13 1196.01 2090.81 1197.78C2092.58 1199.46 2094.96 1200.3 2097.95 1200.3ZM2132.53 1135.2H2141.21L2142.47 1139.26L2148.21 1137.58C2152.13 1136.37 2155.21 1135.53 2157.45 1135.06C2159.79 1134.5 2161.98 1134.22 2164.03 1134.22C2167.39 1134.22 2169.87 1135.39 2171.45 1137.72C2173.04 1140.05 2173.83 1143.09 2173.83 1146.82V1208H2162.63V1150.46C2162.63 1147.75 2162.45 1145.89 2162.07 1144.86C2161.7 1143.74 2160.77 1143.18 2159.27 1143.18C2158.53 1143.18 2153.35 1144.67 2143.73 1147.66V1208H2132.53V1135.2ZM2204.25 1208C2200.89 1208 2197.76 1207.16 2194.87 1205.48C2192.07 1203.8 2189.83 1201.51 2188.15 1198.62C2186.56 1195.73 2185.77 1192.46 2185.77 1188.82V1181.54C2185.77 1177.15 2186.84 1173.47 2188.99 1170.48C2191.23 1167.49 2193.98 1165.39 2197.25 1164.18L2214.61 1157.74V1151.16C2214.61 1148.92 2213.91 1147.1 2212.51 1145.7C2211.2 1144.21 2209.47 1143.46 2207.33 1143.46H2191.51V1135.2H2208.31C2213.44 1135.2 2217.5 1136.74 2220.49 1139.82C2223.57 1142.81 2225.11 1146.91 2225.11 1152.14V1208H2204.25ZM2214.61 1199.46V1166.56L2202.29 1171.18C2199.86 1172.11 2198.13 1173.37 2197.11 1174.96C2196.17 1176.55 2195.71 1179.07 2195.71 1182.52V1190.36C2195.71 1192.88 2196.64 1195.03 2198.51 1196.8C2200.37 1198.57 2202.61 1199.46 2205.23 1199.46H2214.61ZM2240.54 1123.3V1112.1H2251.74V1123.3H2240.54ZM2240.54 1208V1135.2H2251.74V1208H2240.54ZM2264.37 1199.6H2276.27C2280.28 1199.6 2283.17 1198.53 2284.95 1196.38C2286.81 1194.14 2287.75 1191.25 2287.75 1187.7C2287.75 1184.9 2286.91 1182.52 2285.23 1180.56C2283.55 1178.6 2281.03 1176.31 2277.67 1173.7C2274.77 1171.37 2272.44 1169.36 2270.67 1167.68C2268.99 1165.91 2267.49 1163.76 2266.19 1161.24C2264.97 1158.63 2264.37 1155.64 2264.37 1152.28C2264.37 1147.33 2266 1143.27 2269.27 1140.1C2272.63 1136.83 2277.11 1135.2 2282.71 1135.2H2294.89V1143.6H2284.81C2278.18 1143.6 2274.87 1146.73 2274.87 1152.98C2274.87 1155.41 2275.61 1157.51 2277.11 1159.28C2278.6 1161.05 2280.93 1163.15 2284.11 1165.58C2287 1167.82 2289.38 1169.87 2291.25 1171.74C2293.11 1173.51 2294.7 1175.8 2296.01 1178.6C2297.31 1181.31 2297.97 1184.53 2297.97 1188.26C2297.97 1194.89 2296.19 1199.83 2292.65 1203.1C2289.19 1206.37 2284.29 1208 2277.95 1208H2264.37V1199.6Z" fill="white"/>
<path d="M522.69 1088.66L431.821 997.793C424.06 990.033 424.06 977.45 431.821 969.689L522.69 878.82C530.451 871.059 543.034 871.059 550.794 878.82C558.555 886.58 558.555 899.163 550.794 906.924C550.786 906.932 550.778 906.94 550.769 906.949L473.977 983.741L550.794 1060.56C558.555 1068.32 558.555 1080.9 550.794 1088.66C543.034 1096.42 530.451 1096.42 522.69 1088.66Z" fill="white"/>
<path d="M679.693 878.819L770.562 969.689C778.323 977.45 778.323 990.032 770.562 997.793L679.693 1088.66C671.932 1096.42 659.349 1096.42 651.588 1088.66C643.828 1080.9 643.828 1068.32 651.588 1060.56C651.597 1060.55 651.605 1060.54 651.613 1060.53L728.406 983.741L651.588 906.923C643.828 899.163 643.828 886.58 651.588 878.819C659.349 871.059 671.932 871.058 679.693 878.819Z" fill="white"/>
<line x1="632" y1="952.283" x2="569.284" y2="1015" stroke="white" stroke-width="40" stroke-linecap="round"/>
<line x1="638.461" y1="822.249" x2="713.299" y2="868.552" stroke="white" stroke-opacity="0.6" stroke-width="30" stroke-linecap="round"/>
<line x1="647.25" y1="779.216" x2="737.315" y2="810.436" stroke="white" stroke-opacity="0.4" stroke-width="30" stroke-linecap="round"/>
<line x1="636.026" y1="734.661" x2="722.676" y2="744.783" stroke="white" stroke-opacity="0.2" stroke-width="30" stroke-linecap="round"/>
<line x1="538.114" y1="1144.95" x2="463.276" y2="1098.65" stroke="white" stroke-opacity="0.6" stroke-width="30" stroke-linecap="round"/>
<line x1="529.325" y1="1187.99" x2="439.259" y2="1156.77" stroke="white" stroke-opacity="0.4" stroke-width="30" stroke-linecap="round"/>
<line x1="540.548" y1="1232.54" x2="453.899" y2="1222.42" stroke="white" stroke-opacity="0.2" stroke-width="30" stroke-linecap="round"/>
<line x1="559.8" y1="1270.77" x2="476.185" y2="1285.86" stroke="white" stroke-opacity="0.1" stroke-width="30" stroke-linecap="round"/>
<line x1="583.236" y1="1304.21" x2="519.515" y2="1337.54" stroke="white" stroke-opacity="0.04" stroke-width="30" stroke-linecap="round"/>
<path d="M619.067 750L619.067 651.026H619.07V651.025L718 651.025V684.298L652.326 684.298L652.326 750H619.067Z" fill="white"/>
<path d="M652.327 524.7V590.401H684.741L684.741 492.273L588.629 492.273L588.629 568.407H588.63L588.629 750H426V585.326L426 585.325H459.259V585.326L524.931 585.326L524.931 684.3H491.673L491.673 618.599H459.259L459.259 716.727H555.371L555.371 640.593H555.37L555.371 459L718 459V623.674L619.069 623.674L619.069 524.7H652.327Z" fill="white"/>
<path d="M524.93 459L524.931 557.975H426V524.702H491.671V459L524.93 459Z" fill="white"/>
</svg>
