<svg width="3745" height="1780" viewBox="0 0 3745 1780" fill="none" xmlns="http://www.w3.org/2000/svg">
<rect width="3745" height="1780" fill="black"/>
<path d="M1783.6 637V497H1801.2V637H1783.6ZM1827.88 533H1840.28L1842.08 538.8L1850.28 536.4C1855.88 534.667 1860.28 533.467 1863.48 532.8C1866.81 532 1869.94 531.6 1872.88 531.6C1877.68 531.6 1881.21 533.267 1883.48 536.6C1885.74 539.933 1886.88 544.267 1886.88 549.6V637H1870.88V554.8C1870.88 550.933 1870.61 548.267 1870.08 546.8C1869.54 545.2 1868.21 544.4 1866.08 544.4C1865.01 544.4 1857.61 546.533 1843.88 550.8V637H1827.88V533ZM1938.13 637C1930.79 637 1924.99 634.8 1920.73 630.4C1916.46 626 1914.33 620.067 1914.33 612.6V545H1902.33V533H1914.33V502.8L1930.33 496.8V533H1946.33V545H1930.33V614C1930.33 617.2 1931.19 619.867 1932.93 622C1934.79 624 1937.26 625 1940.33 625H1946.33V637H1938.13ZM1983.05 637C1975.72 637 1969.85 634.8 1965.45 630.4C1961.18 626 1959.05 620.067 1959.05 612.6V559.4C1959.05 550.733 1961.45 543.933 1966.25 539C1971.05 534.067 1978.18 531.6 1987.65 531.6C1997.12 531.6 2004.18 534.067 2008.85 539C2013.65 543.933 2016.05 550.733 2016.05 559.4V568.6C2016.05 574.2 2014.45 578.467 2011.25 581.4C2008.05 584.2 2003.85 586.333 1998.65 587.8L1975.05 594.4V614C1975.05 617.2 1975.98 619.867 1977.85 622C1979.85 624 1982.38 625 1985.45 625H2007.05V637H1983.05ZM1987.25 578.4C1991.65 577.2 1994.58 576.333 1996.05 575.8C1997.65 575.133 1998.72 574.2 1999.25 573C1999.78 571.8 2000.05 569.8 2000.05 567V556C2000.05 551.733 1998.92 548.6 1996.65 546.6C1994.52 544.6 1991.52 543.6 1987.65 543.6C1983.92 543.6 1980.85 544.667 1978.45 546.8C1976.18 548.933 1975.05 552 1975.05 556V581.8L1987.25 578.4ZM2031.98 533H2044.38L2046.18 540.4L2051.18 538C2055.44 535.867 2058.98 534.267 2061.78 533.2C2064.71 532.133 2067.64 531.6 2070.58 531.6V543.4C2068.84 543.4 2066.51 543.933 2063.58 545C2060.64 545.933 2055.44 548.2 2047.98 551.8V637H2031.98V533ZM2106.69 637C2101.89 637 2097.43 635.8 2093.29 633.4C2089.29 631 2086.09 627.733 2083.69 623.6C2081.43 619.467 2080.29 614.8 2080.29 609.6V599.2C2080.29 592.933 2081.83 587.667 2084.89 583.4C2088.09 579.133 2092.03 576.133 2096.69 574.4L2121.49 565.2V555.8C2121.49 552.6 2120.49 550 2118.49 548C2116.63 545.867 2114.16 544.8 2111.09 544.8H2088.49V533H2112.49C2119.83 533 2125.63 535.2 2129.89 539.6C2134.29 543.867 2136.49 549.733 2136.49 557.2V637H2106.69ZM2121.49 624.8V577.8L2103.89 584.4C2100.43 585.733 2097.96 587.533 2096.49 589.8C2095.16 592.067 2094.49 595.667 2094.49 600.6V611.8C2094.49 615.4 2095.83 618.467 2098.49 621C2101.16 623.533 2104.36 624.8 2108.09 624.8H2121.49ZM2180.54 637C2173.21 637 2167.34 634.8 2162.94 630.4C2158.67 626 2156.54 620.067 2156.54 612.6V559.4C2156.54 551 2158.74 544.533 2163.14 540C2167.54 535.333 2173.94 533 2182.34 533H2204.54V545H2182.74C2179.67 545 2177.21 546.067 2175.34 548.2C2173.47 550.2 2172.54 552.8 2172.54 556V614C2172.54 617.2 2173.47 619.867 2175.34 622C2177.34 624 2179.87 625 2182.94 625H2204.54V637H2180.54ZM2247.5 637C2240.17 637 2234.37 634.8 2230.1 630.4C2225.83 626 2223.7 620.067 2223.7 612.6V545H2211.7V533H2223.7V502.8L2239.7 496.8V533H2255.7V545H2239.7V614C2239.7 617.2 2240.57 619.867 2242.3 622C2244.17 624 2246.63 625 2249.7 625H2255.7V637H2247.5ZM2271.63 516V500H2287.63V516H2271.63ZM2271.63 637V533H2287.63V637H2271.63ZM2326.46 637L2302.66 533H2319.26L2334.66 616.8L2349.86 533H2366.46L2342.66 637H2326.46ZM2402.19 637C2394.86 637 2388.99 634.8 2384.59 630.4C2380.32 626 2378.19 620.067 2378.19 612.6V559.4C2378.19 550.733 2380.59 543.933 2385.39 539C2390.19 534.067 2397.32 531.6 2406.79 531.6C2416.26 531.6 2423.32 534.067 2427.99 539C2432.79 543.933 2435.19 550.733 2435.19 559.4V568.6C2435.19 574.2 2433.59 578.467 2430.39 581.4C2427.19 584.2 2422.99 586.333 2417.79 587.8L2394.19 594.4V614C2394.19 617.2 2395.12 619.867 2396.99 622C2398.99 624 2401.52 625 2404.59 625H2426.19V637H2402.19ZM2406.39 578.4C2410.79 577.2 2413.72 576.333 2415.19 575.8C2416.79 575.133 2417.86 574.2 2418.39 573C2418.92 571.8 2419.19 569.8 2419.19 567V556C2419.19 551.733 2418.06 548.6 2415.79 546.6C2413.66 544.6 2410.66 543.6 2406.79 543.6C2403.06 543.6 2399.99 544.667 2397.59 546.8C2395.32 548.933 2394.19 552 2394.19 556V581.8L2406.39 578.4ZM1781.2 828.8H1803C1810.6 828.8 1816.07 826.533 1819.4 822C1822.87 817.467 1824.6 811.867 1824.6 805.2C1824.6 800 1823.6 795.533 1821.6 791.8C1819.73 787.933 1817.4 784.733 1814.6 782.2C1811.8 779.667 1808 776.733 1803.2 773.4C1798.13 769.933 1794 766.8 1790.8 764C1787.73 761.067 1785.13 757.4 1783 753C1780.87 748.6 1779.8 743.333 1779.8 737.2C1779.8 726.533 1783 718 1789.4 711.6C1795.8 705.2 1804.67 702 1816 702H1832.2V715.2H1816.8C1810.4 715.2 1805.53 717.267 1802.2 721.4C1798.87 725.533 1797.2 730.333 1797.2 735.8C1797.2 741.133 1798.73 745.533 1801.8 749C1804.87 752.467 1809.53 756.4 1815.8 760.8C1821.53 764.933 1826.13 768.667 1829.6 772C1833.07 775.2 1836 779.467 1838.4 784.8C1840.93 790.133 1842.2 796.533 1842.2 804C1842.2 816.533 1838.6 826 1831.4 832.4C1824.33 838.8 1814.6 842 1802.2 842H1781.2V828.8ZM1888.13 842C1880.79 842 1874.99 839.8 1870.73 835.4C1866.46 831 1864.33 825.067 1864.33 817.6V750H1852.33V738H1864.33V707.8L1880.33 701.8V738H1896.33V750H1880.33V819C1880.33 822.2 1881.19 824.867 1882.93 827C1884.79 829 1887.26 830 1890.33 830H1896.33V842H1888.13ZM1937.65 843.4C1928.32 843.4 1921.05 841.067 1915.85 836.4C1910.78 831.6 1908.25 825 1908.25 816.6V763.4C1908.25 755 1910.78 748.467 1915.85 743.8C1921.05 739 1928.32 736.6 1937.65 736.6C1946.98 736.6 1954.18 739 1959.25 743.8C1964.45 748.467 1967.05 755 1967.05 763.4V816.6C1967.05 825 1964.45 831.6 1959.25 836.4C1954.18 841.067 1946.98 843.4 1937.65 843.4ZM1937.65 831C1941.92 831 1945.25 829.8 1947.65 827.4C1950.18 824.867 1951.45 821.267 1951.45 816.6V763.4C1951.45 758.733 1950.18 755.2 1947.65 752.8C1945.25 750.267 1941.92 749 1937.65 749C1933.38 749 1929.98 750.267 1927.45 752.8C1925.05 755.2 1923.85 758.733 1923.85 763.4V816.6C1923.85 821.267 1925.05 824.867 1927.45 827.4C1929.98 829.8 1933.38 831 1937.65 831ZM1987.05 738H1999.45L2001.25 745.4L2006.25 743C2010.52 740.867 2014.05 739.267 2016.85 738.2C2019.79 737.133 2022.72 736.6 2025.65 736.6V748.4C2023.92 748.4 2021.59 748.933 2018.65 750C2015.72 750.933 2010.52 753.2 2003.05 756.8V842H1987.05V738ZM2039.97 862H2046.17C2049.77 862 2053.04 860.267 2055.97 856.8C2058.9 853.467 2060.37 848.467 2060.37 841.8L2032.57 738H2049.17L2066.57 822.4L2080.57 738H2096.37L2071.97 854C2069.17 867.333 2061.44 874 2048.77 874H2039.97V862ZM2140.27 842C2132.94 842 2127.14 839.8 2122.87 835.4C2118.61 831 2116.47 825.067 2116.47 817.6V750H2104.47V738H2116.47V707.8L2132.47 701.8V738H2148.47V750H2132.47V819C2132.47 822.2 2133.34 824.867 2135.07 827C2136.94 829 2139.41 830 2142.47 830H2148.47V842H2140.27ZM2185.2 842C2177.87 842 2172 839.8 2167.6 835.4C2163.33 831 2161.2 825.067 2161.2 817.6V764.4C2161.2 755.733 2163.6 748.933 2168.4 744C2173.2 739.067 2180.33 736.6 2189.8 736.6C2199.27 736.6 2206.33 739.067 2211 744C2215.8 748.933 2218.2 755.733 2218.2 764.4V773.6C2218.2 779.2 2216.6 783.467 2213.4 786.4C2210.2 789.2 2206 791.333 2200.8 792.8L2177.2 799.4V819C2177.2 822.2 2178.13 824.867 2180 827C2182 829 2184.53 830 2187.6 830H2209.2V842H2185.2ZM2189.4 783.4C2193.8 782.2 2196.73 781.333 2198.2 780.8C2199.8 780.133 2200.87 779.2 2201.4 778C2201.93 776.8 2202.2 774.8 2202.2 772V761C2202.2 756.733 2201.07 753.6 2198.8 751.6C2196.67 749.6 2193.67 748.6 2189.8 748.6C2186.07 748.6 2183 749.667 2180.6 751.8C2178.33 753.933 2177.2 757 2177.2 761V786.8L2189.4 783.4ZM2234.33 842V702H2250.33V842H2234.33ZM2274.36 842V702H2290.36V842H2274.36ZM2314.2 721V705H2330.2V721H2314.2ZM2314.2 842V738H2330.2V842H2314.2ZM2354.24 738H2366.64L2368.44 743.8L2376.64 741.4C2382.24 739.667 2386.64 738.467 2389.84 737.8C2393.18 737 2396.31 736.6 2399.24 736.6C2404.04 736.6 2407.58 738.267 2409.84 741.6C2412.11 744.933 2413.24 749.267 2413.24 754.6V842H2397.24V759.8C2397.24 755.933 2396.98 753.267 2396.44 751.8C2395.91 750.2 2394.58 749.4 2392.44 749.4C2391.38 749.4 2383.98 751.533 2370.24 755.8V842H2354.24V738ZM2443.89 862H2464.49C2467.56 862 2469.96 860.933 2471.69 858.8C2473.56 856.8 2474.49 854.2 2474.49 851V842.2H2457.89C2450.56 842.2 2444.36 839.8 2439.29 835C2434.23 830.2 2431.69 824.2 2431.69 817V763.2C2431.69 756 2434.23 750 2439.29 745.2C2444.49 740.4 2450.76 738 2458.09 738H2490.69V849.6C2490.69 857.067 2488.63 863 2484.49 867.4C2480.49 871.8 2474.83 874 2467.49 874H2443.89V862ZM2474.69 830.2V750H2461.29C2457.56 750 2454.36 751.267 2451.69 753.8C2449.03 756.333 2447.69 759.467 2447.69 763.2V817C2447.69 820.733 2449.03 823.867 2451.69 826.4C2454.36 828.933 2457.56 830.2 2461.29 830.2H2474.69Z" fill="white"/>
<path d="M1789.8 982V899.58H1771.6V891H1819.44V899.58H1801.24V982H1789.8ZM1829.87 914.4H1837.93L1839.1 919.21L1842.35 917.65C1845.12 916.263 1847.42 915.223 1849.24 914.53C1851.14 913.837 1853.05 913.49 1854.96 913.49V921.16C1853.83 921.16 1852.31 921.507 1850.41 922.2C1848.5 922.807 1845.12 924.28 1840.27 926.62V982H1829.87V914.4ZM1878.43 982C1875.31 982 1872.41 981.22 1869.72 979.66C1867.12 978.1 1865.04 975.977 1863.48 973.29C1862.01 970.603 1861.27 967.57 1861.27 964.19V957.43C1861.27 953.357 1862.27 949.933 1864.26 947.16C1866.34 944.387 1868.9 942.437 1871.93 941.31L1888.05 935.33V929.22C1888.05 927.14 1887.4 925.45 1886.1 924.15C1884.89 922.763 1883.28 922.07 1881.29 922.07H1866.6V914.4H1882.2C1886.97 914.4 1890.74 915.83 1893.51 918.69C1896.37 921.463 1897.8 925.277 1897.8 930.13V982H1878.43ZM1888.05 974.07V943.52L1876.61 947.81C1874.36 948.677 1872.75 949.847 1871.8 951.32C1870.93 952.793 1870.5 955.133 1870.5 958.34V965.62C1870.5 967.96 1871.37 969.953 1873.1 971.6C1874.83 973.247 1876.91 974.07 1879.34 974.07H1888.05ZM1912.13 914.4H1920.19L1921.36 918.17L1926.69 916.61C1930.33 915.483 1933.19 914.703 1935.27 914.27C1937.44 913.75 1939.48 913.49 1941.38 913.49C1944.5 913.49 1946.8 914.573 1948.27 916.74C1949.75 918.907 1950.48 921.723 1950.48 925.19V982H1940.08V928.57C1940.08 926.057 1939.91 924.323 1939.56 923.37C1939.22 922.33 1938.35 921.81 1936.96 921.81C1936.27 921.81 1931.46 923.197 1922.53 925.97V982H1912.13V914.4ZM1961.04 974.2H1972.09C1975.82 974.2 1978.51 973.203 1980.15 971.21C1981.89 969.13 1982.75 966.443 1982.75 963.15C1982.75 960.55 1981.97 958.34 1980.41 956.52C1978.85 954.7 1976.51 952.577 1973.39 950.15C1970.71 947.983 1968.54 946.12 1966.89 944.56C1965.33 942.913 1963.95 940.92 1962.73 938.58C1961.61 936.153 1961.04 933.38 1961.04 930.26C1961.04 925.667 1962.56 921.897 1965.59 918.95C1968.71 915.917 1972.87 914.4 1978.07 914.4H1989.38V922.2H1980.02C1973.87 922.2 1970.79 925.103 1970.79 930.91C1970.79 933.163 1971.49 935.113 1972.87 936.76C1974.26 938.407 1976.43 940.357 1979.37 942.61C1982.06 944.69 1984.27 946.597 1986 948.33C1987.74 949.977 1989.21 952.1 1990.42 954.7C1991.64 957.213 1992.24 960.203 1992.24 963.67C1992.24 969.823 1990.6 974.417 1987.3 977.45C1984.1 980.483 1979.55 982 1973.65 982H1961.04V974.2ZM2007.17 922.98H1999.37V914.4H2007.17V906.86C2007.17 902.007 2008.56 898.15 2011.33 895.29C2014.1 892.43 2017.87 891 2022.64 891H2028.36V898.8H2024.46C2022.47 898.8 2020.82 899.493 2019.52 900.88C2018.22 902.267 2017.57 903.957 2017.57 905.95V914.4H2028.1V922.98H2017.57V982H2007.17V922.98ZM2053.06 982.91C2046.99 982.91 2042.27 981.393 2038.89 978.36C2035.59 975.24 2033.95 970.95 2033.95 965.49V930.91C2033.95 925.45 2035.59 921.203 2038.89 918.17C2042.27 915.05 2046.99 913.49 2053.06 913.49C2059.12 913.49 2063.8 915.05 2067.1 918.17C2070.48 921.203 2072.17 925.45 2072.17 930.91V965.49C2072.17 970.95 2070.48 975.24 2067.1 978.36C2063.8 981.393 2059.12 982.91 2053.06 982.91ZM2053.06 974.85C2055.83 974.85 2058 974.07 2059.56 972.51C2061.2 970.863 2062.03 968.523 2062.03 965.49V930.91C2062.03 927.877 2061.2 925.58 2059.56 924.02C2058 922.373 2055.83 921.55 2053.06 921.55C2050.28 921.55 2048.07 922.373 2046.43 924.02C2044.87 925.58 2044.09 927.877 2044.09 930.91V965.49C2044.09 968.523 2044.87 970.863 2046.43 972.51C2048.07 974.07 2050.28 974.85 2053.06 974.85ZM2085.17 914.4H2093.23L2094.4 919.21L2097.65 917.65C2100.42 916.263 2102.72 915.223 2104.54 914.53C2106.45 913.837 2108.35 913.49 2110.26 913.49V921.16C2109.13 921.16 2107.62 921.507 2105.71 922.2C2103.8 922.807 2100.42 924.28 2095.57 926.62V982H2085.17V914.4ZM2119.95 914.4H2128.01L2129.18 918.17L2134.51 916.61C2138.15 915.483 2141.01 914.703 2143.09 914.27C2145.26 913.75 2147.3 913.49 2149.2 913.49C2152.93 913.49 2155.53 915.137 2157 918.43C2159.43 917.563 2162.85 916.523 2167.27 915.31C2171.69 914.097 2174.94 913.49 2177.02 913.49C2180.14 913.49 2182.44 914.573 2183.91 916.74C2185.47 918.907 2186.25 921.723 2186.25 925.19V982H2175.85V928.57C2175.85 926.057 2175.68 924.323 2175.33 923.37C2174.99 922.33 2174.12 921.81 2172.73 921.81C2172.04 921.81 2167.27 923.197 2158.43 925.97V982H2148.03V928.57C2148.03 926.057 2147.86 924.323 2147.51 923.37C2147.17 922.33 2146.3 921.81 2144.91 921.81C2144.22 921.81 2139.37 923.197 2130.35 925.97V982H2119.95V914.4ZM2214.35 982C2211.23 982 2208.33 981.22 2205.64 979.66C2203.04 978.1 2200.96 975.977 2199.4 973.29C2197.93 970.603 2197.19 967.57 2197.19 964.19V957.43C2197.19 953.357 2198.19 949.933 2200.18 947.16C2202.26 944.387 2204.82 942.437 2207.85 941.31L2223.97 935.33V929.22C2223.97 927.14 2223.32 925.45 2222.02 924.15C2220.81 922.763 2219.2 922.07 2217.21 922.07H2202.52V914.4H2218.12C2222.89 914.4 2226.66 915.83 2229.43 918.69C2232.29 921.463 2233.72 925.277 2233.72 930.13V982H2214.35ZM2223.97 974.07V943.52L2212.53 947.81C2210.28 948.677 2208.67 949.847 2207.72 951.32C2206.85 952.793 2206.42 955.133 2206.42 958.34V965.62C2206.42 967.96 2207.29 969.953 2209.02 971.6C2210.75 973.247 2212.83 974.07 2215.26 974.07H2223.97ZM2268.98 986.16C2272.1 986.16 2274.48 986.723 2276.13 987.85C2277.78 988.977 2278.6 991.013 2278.6 993.96C2278.6 999.853 2275.22 1002.8 2268.46 1002.8H2254.55V996.69H2264.95C2266.94 996.69 2268.42 996.473 2269.37 996.04C2270.32 995.607 2270.8 994.87 2270.8 993.83C2270.8 992.703 2270.45 991.967 2269.76 991.62C2269.07 991.273 2267.94 991.1 2266.38 991.1H2259.62L2261.83 982H2262.35C2257.58 982 2253.77 980.57 2250.91 977.71C2248.14 974.85 2246.75 970.993 2246.75 966.14V931.56C2246.75 926.1 2248.18 921.897 2251.04 918.95C2253.9 915.917 2258.06 914.4 2263.52 914.4H2277.95V922.2H2263.78C2261.79 922.2 2260.18 922.893 2258.97 924.28C2257.76 925.58 2257.15 927.27 2257.15 929.35V967.05C2257.15 969.13 2257.76 970.863 2258.97 972.25C2260.27 973.55 2261.92 974.2 2263.91 974.2H2277.95V982H2269.89L2268.98 986.16ZM2285.2 907.9C2285.29 904 2286.03 901.053 2287.41 899.06C2288.8 896.98 2291.31 895.94 2294.95 895.94C2295.91 895.94 2298.72 896.633 2303.4 898.02C2308 899.493 2310.94 900.23 2312.24 900.23C2313.28 900.23 2313.98 899.927 2314.32 899.32C2314.67 898.627 2314.89 897.803 2314.97 896.85C2315.15 895.897 2315.28 895.16 2315.36 894.64H2323.55C2323.47 897.587 2323.25 899.97 2322.9 901.79C2322.56 903.523 2321.65 904.997 2320.17 906.21C2318.79 907.337 2316.66 907.9 2313.8 907.9C2312.5 907.9 2309.56 907.163 2304.96 905.69C2300.28 904.303 2297.47 903.61 2296.51 903.61C2295.39 903.61 2294.65 903.827 2294.3 904.26C2294.04 904.693 2293.83 905.3 2293.65 906.08C2293.57 906.86 2293.48 907.467 2293.39 907.9H2285.2ZM2303.53 982.91C2297.47 982.91 2292.74 981.393 2289.36 978.36C2286.07 975.24 2284.42 970.95 2284.42 965.49V930.91C2284.42 925.45 2286.07 921.203 2289.36 918.17C2292.74 915.05 2297.47 913.49 2303.53 913.49C2309.6 913.49 2314.28 915.05 2317.57 918.17C2320.95 921.203 2322.64 925.45 2322.64 930.91V965.49C2322.64 970.95 2320.95 975.24 2317.57 978.36C2314.28 981.393 2309.6 982.91 2303.53 982.91ZM2303.53 974.85C2306.31 974.85 2308.47 974.07 2310.03 972.51C2311.68 970.863 2312.5 968.523 2312.5 965.49V930.91C2312.5 927.877 2311.68 925.58 2310.03 924.02C2308.47 922.373 2306.31 921.55 2303.53 921.55C2300.76 921.55 2298.55 922.373 2296.9 924.02C2295.34 925.58 2294.56 927.877 2294.56 930.91V965.49C2294.56 968.523 2295.34 970.863 2296.9 972.51C2298.55 974.07 2300.76 974.85 2303.53 974.85ZM2349.17 982C2344.4 982 2340.59 980.57 2337.73 977.71C2334.95 974.85 2333.57 970.993 2333.57 966.14V931.56C2333.57 925.927 2335.13 921.507 2338.25 918.3C2341.37 915.093 2346 913.49 2352.16 913.49C2358.31 913.49 2362.9 915.093 2365.94 918.3C2369.06 921.507 2370.62 925.927 2370.62 931.56V937.54C2370.62 941.18 2369.58 943.953 2367.5 945.86C2365.42 947.68 2362.69 949.067 2359.31 950.02L2343.97 954.31V967.05C2343.97 969.13 2344.57 970.863 2345.79 972.25C2347.09 973.55 2348.73 974.2 2350.73 974.2H2364.77V982H2349.17ZM2351.9 943.91C2354.76 943.13 2356.66 942.567 2357.62 942.22C2358.66 941.787 2359.35 941.18 2359.7 940.4C2360.04 939.62 2360.22 938.32 2360.22 936.5V929.35C2360.22 926.577 2359.48 924.54 2358.01 923.24C2356.62 921.94 2354.67 921.29 2352.16 921.29C2349.73 921.29 2347.74 921.983 2346.18 923.37C2344.7 924.757 2343.97 926.75 2343.97 929.35V946.12L2351.9 943.91ZM2377.07 974.2H2388.12C2391.85 974.2 2394.53 973.203 2396.18 971.21C2397.91 969.13 2398.78 966.443 2398.78 963.15C2398.78 960.55 2398 958.34 2396.44 956.52C2394.88 954.7 2392.54 952.577 2389.42 950.15C2386.73 947.983 2384.57 946.12 2382.92 944.56C2381.36 942.913 2379.97 940.92 2378.76 938.58C2377.63 936.153 2377.07 933.38 2377.07 930.26C2377.07 925.667 2378.59 921.897 2381.62 918.95C2384.74 915.917 2388.9 914.4 2394.1 914.4H2405.41V922.2H2396.05C2389.9 922.2 2386.82 925.103 2386.82 930.91C2386.82 933.163 2387.51 935.113 2388.9 936.76C2390.29 938.407 2392.45 940.357 2395.4 942.61C2398.09 944.69 2400.3 946.597 2402.03 948.33C2403.76 949.977 2405.24 952.1 2406.45 954.7C2407.66 957.213 2408.27 960.203 2408.27 963.67C2408.27 969.823 2406.62 974.417 2403.33 977.45C2400.12 980.483 2395.57 982 2389.68 982H2377.07V974.2ZM2439.5 914.4H2447.56L2448.73 918.17L2454.06 916.61C2457.7 915.483 2460.56 914.703 2462.64 914.27C2464.8 913.75 2466.84 913.49 2468.75 913.49C2471.87 913.49 2474.16 914.573 2475.64 916.74C2477.11 918.907 2477.85 921.723 2477.85 925.19V982H2467.45V928.57C2467.45 926.057 2467.27 924.323 2466.93 923.37C2466.58 922.33 2465.71 921.81 2464.33 921.81C2463.63 921.81 2458.82 923.197 2449.9 925.97V982H2439.5V914.4ZM2506.09 982C2502.97 982 2500.06 981.22 2497.38 979.66C2494.78 978.1 2492.7 975.977 2491.14 973.29C2489.66 970.603 2488.93 967.57 2488.93 964.19V957.43C2488.93 953.357 2489.92 949.933 2491.92 947.16C2494 944.387 2496.55 942.437 2499.59 941.31L2515.71 935.33V929.22C2515.71 927.14 2515.06 925.45 2513.76 924.15C2512.54 922.763 2510.94 922.07 2508.95 922.07H2494.26V914.4H2509.86C2514.62 914.4 2518.39 915.83 2521.17 918.69C2524.03 921.463 2525.46 925.277 2525.46 930.13V982H2506.09ZM2515.71 974.07V943.52L2504.27 947.81C2502.01 948.677 2500.41 949.847 2499.46 951.32C2498.59 952.793 2498.16 955.133 2498.16 958.34V965.62C2498.16 967.96 2499.02 969.953 2500.76 971.6C2502.49 973.247 2504.57 974.07 2507 974.07H2515.71ZM1776.8 1033.35V1022.95H1787.2V1033.35H1776.8ZM1776.8 1112V1044.4H1787.2V1112H1776.8ZM1802.83 1044.4H1810.89L1812.06 1048.17L1817.39 1046.61C1821.03 1045.48 1823.89 1044.7 1825.97 1044.27C1828.13 1043.75 1830.17 1043.49 1832.08 1043.49C1835.2 1043.49 1837.49 1044.57 1838.97 1046.74C1840.44 1048.91 1841.18 1051.72 1841.18 1055.19V1112H1830.78V1058.57C1830.78 1056.06 1830.6 1054.32 1830.26 1053.37C1829.91 1052.33 1829.04 1051.81 1827.66 1051.81C1826.96 1051.81 1822.15 1053.2 1813.23 1055.97V1112H1802.83V1044.4ZM1872.8 1112C1867.34 1112 1862.92 1110.4 1859.54 1107.19C1856.16 1103.98 1854.47 1099.69 1854.47 1094.32V1061.95C1854.47 1058.22 1855.46 1055.06 1857.46 1052.46C1859.54 1049.86 1862.09 1048.08 1865.13 1047.13L1882.55 1041.02V1021H1892.95V1112H1872.8ZM1882.55 1104.2V1049.6L1870.98 1053.5C1868.72 1054.19 1867.12 1055.32 1866.17 1056.88C1865.3 1058.35 1864.87 1060.74 1864.87 1064.03V1094.32C1864.87 1097.44 1865.78 1099.87 1867.6 1101.6C1869.42 1103.33 1871.89 1104.2 1875.01 1104.2H1882.55ZM1925.61 1039.33L1921.32 1035.43L1936.4 1022.56L1943.03 1028.67L1925.61 1039.33ZM1916.51 1112.91C1913.39 1112.91 1911.05 1111.83 1909.49 1109.66C1908.01 1107.49 1907.28 1104.68 1907.28 1101.21V1044.4H1917.68V1097.83C1917.68 1100.26 1917.85 1101.99 1918.2 1103.03C1918.54 1104.07 1919.37 1104.59 1920.67 1104.59C1921.27 1104.59 1926.17 1103.29 1935.36 1100.69V1044.4H1945.76V1112H1938.35L1936.4 1107.58C1935.01 1108.1 1933.97 1108.45 1933.28 1108.62C1929.2 1110.09 1925.91 1111.18 1923.4 1111.87C1920.88 1112.56 1918.59 1112.91 1916.51 1112.91ZM1957.49 1104.2H1968.54C1972.27 1104.2 1974.95 1103.2 1976.6 1101.21C1978.33 1099.13 1979.2 1096.44 1979.2 1093.15C1979.2 1090.55 1978.42 1088.34 1976.86 1086.52C1975.3 1084.7 1972.96 1082.58 1969.84 1080.15C1967.15 1077.98 1964.99 1076.12 1963.34 1074.56C1961.78 1072.91 1960.39 1070.92 1959.18 1068.58C1958.05 1066.15 1957.49 1063.38 1957.49 1060.26C1957.49 1055.67 1959.01 1051.9 1962.04 1048.95C1965.16 1045.92 1969.32 1044.4 1974.52 1044.4H1985.83V1052.2H1976.47C1970.32 1052.2 1967.24 1055.1 1967.24 1060.91C1967.24 1063.16 1967.93 1065.11 1969.32 1066.76C1970.71 1068.41 1972.87 1070.36 1975.82 1072.61C1978.51 1074.69 1980.72 1076.6 1982.45 1078.33C1984.18 1079.98 1985.66 1082.1 1986.87 1084.7C1988.08 1087.21 1988.69 1090.2 1988.69 1093.67C1988.69 1099.82 1987.04 1104.42 1983.75 1107.45C1980.54 1110.48 1975.99 1112 1970.1 1112H1957.49V1104.2ZM2019.21 1112C2014.45 1112 2010.68 1110.57 2007.9 1107.71C2005.13 1104.85 2003.74 1100.99 2003.74 1096.14V1052.2H1995.94V1044.4H2003.74V1024.77L2014.14 1020.87V1044.4H2024.54V1052.2H2014.14V1097.05C2014.14 1099.13 2014.71 1100.86 2015.83 1102.25C2017.05 1103.55 2018.65 1104.2 2020.64 1104.2H2024.54V1112H2019.21ZM2034.9 1044.4H2042.96L2044.13 1049.21L2047.38 1047.65C2050.15 1046.26 2052.45 1045.22 2054.27 1044.53C2056.17 1043.84 2058.08 1043.49 2059.99 1043.49V1051.16C2058.86 1051.16 2057.34 1051.51 2055.44 1052.2C2053.53 1052.81 2050.15 1054.28 2045.3 1056.62V1112H2034.9V1044.4ZM2069.68 1033.35V1022.95H2080.08V1033.35H2069.68ZM2069.68 1112V1044.4H2080.08V1112H2069.68ZM2109.49 1112C2106.37 1112 2103.46 1111.22 2100.78 1109.66C2098.18 1108.1 2096.1 1105.98 2094.54 1103.29C2093.06 1100.6 2092.33 1097.57 2092.33 1094.19V1087.43C2092.33 1083.36 2093.32 1079.93 2095.32 1077.16C2097.4 1074.39 2099.95 1072.44 2102.99 1071.31L2119.11 1065.33V1059.22C2119.11 1057.14 2118.46 1055.45 2117.16 1054.15C2115.94 1052.76 2114.34 1052.07 2112.35 1052.07H2097.66V1044.4H2113.26C2118.02 1044.4 2121.79 1045.83 2124.57 1048.69C2127.43 1051.46 2128.86 1055.28 2128.86 1060.13V1112H2109.49ZM2119.11 1104.07V1073.52L2107.67 1077.81C2105.41 1078.68 2103.81 1079.85 2102.86 1081.32C2101.99 1082.79 2101.56 1085.13 2101.56 1088.34V1095.62C2101.56 1097.96 2102.42 1099.95 2104.16 1101.6C2105.89 1103.25 2107.97 1104.07 2110.4 1104.07H2119.11ZM2162.74 1033.35V1022.95H2173.14V1033.35H2162.74ZM2162.74 1112V1044.4H2173.14V1112H2162.74ZM2188.76 1044.4H2196.82L2197.99 1048.17L2203.32 1046.61C2206.96 1045.48 2209.82 1044.7 2211.9 1044.27C2214.07 1043.75 2216.11 1043.49 2218.01 1043.49C2221.13 1043.49 2223.43 1044.57 2224.9 1046.74C2226.38 1048.91 2227.11 1051.72 2227.11 1055.19V1112H2216.71V1058.57C2216.71 1056.06 2216.54 1054.32 2216.19 1053.37C2215.85 1052.33 2214.98 1051.81 2213.59 1051.81C2212.9 1051.81 2208.09 1053.2 2199.16 1055.97V1112H2188.76V1044.4ZM2244.83 1052.98H2237.03V1044.4H2244.83V1036.86C2244.83 1032.01 2246.21 1028.15 2248.99 1025.29C2251.76 1022.43 2255.53 1021 2260.3 1021H2266.02V1028.8H2262.12C2260.12 1028.8 2258.48 1029.49 2257.18 1030.88C2255.88 1032.27 2255.23 1033.96 2255.23 1035.95V1044.4H2265.76V1052.98H2255.23V1112H2244.83V1052.98ZM2290.71 1112.91C2284.65 1112.91 2279.92 1111.39 2276.54 1108.36C2273.25 1105.24 2271.6 1100.95 2271.6 1095.49V1060.91C2271.6 1055.45 2273.25 1051.2 2276.54 1048.17C2279.92 1045.05 2284.65 1043.49 2290.71 1043.49C2296.78 1043.49 2301.46 1045.05 2304.75 1048.17C2308.13 1051.2 2309.82 1055.45 2309.82 1060.91V1095.49C2309.82 1100.95 2308.13 1105.24 2304.75 1108.36C2301.46 1111.39 2296.78 1112.91 2290.71 1112.91ZM2290.71 1104.85C2293.49 1104.85 2295.65 1104.07 2297.21 1102.51C2298.86 1100.86 2299.68 1098.52 2299.68 1095.49V1060.91C2299.68 1057.88 2298.86 1055.58 2297.21 1054.02C2295.65 1052.37 2293.49 1051.55 2290.71 1051.55C2287.94 1051.55 2285.73 1052.37 2284.08 1054.02C2282.52 1055.58 2281.74 1057.88 2281.74 1060.91V1095.49C2281.74 1098.52 2282.52 1100.86 2284.08 1102.51C2285.73 1104.07 2287.94 1104.85 2290.71 1104.85ZM2322.83 1044.4H2330.89L2332.06 1049.21L2335.31 1047.65C2338.08 1046.26 2340.38 1045.22 2342.2 1044.53C2344.1 1043.84 2346.01 1043.49 2347.92 1043.49V1051.16C2346.79 1051.16 2345.27 1051.51 2343.37 1052.2C2341.46 1052.81 2338.08 1054.28 2333.23 1056.62V1112H2322.83V1044.4ZM2357.61 1044.4H2365.67L2366.84 1048.17L2372.17 1046.61C2375.81 1045.48 2378.67 1044.7 2380.75 1044.27C2382.92 1043.75 2384.95 1043.49 2386.86 1043.49C2390.59 1043.49 2393.19 1045.14 2394.66 1048.43C2397.09 1047.56 2400.51 1046.52 2404.93 1045.31C2409.35 1044.1 2412.6 1043.49 2414.68 1043.49C2417.8 1043.49 2420.1 1044.57 2421.57 1046.74C2423.13 1048.91 2423.91 1051.72 2423.91 1055.19V1112H2413.51V1058.57C2413.51 1056.06 2413.34 1054.32 2412.99 1053.37C2412.64 1052.33 2411.78 1051.81 2410.39 1051.81C2409.7 1051.81 2404.93 1053.2 2396.09 1055.97V1112H2385.69V1058.57C2385.69 1056.06 2385.52 1054.32 2385.17 1053.37C2384.82 1052.33 2383.96 1051.81 2382.57 1051.81C2381.88 1051.81 2377.02 1053.2 2368.01 1055.97V1112H2357.61V1044.4ZM2452.01 1112C2448.89 1112 2445.98 1111.22 2443.3 1109.66C2440.7 1108.1 2438.62 1105.98 2437.06 1103.29C2435.58 1100.6 2434.85 1097.57 2434.85 1094.19V1087.43C2434.85 1083.36 2435.84 1079.93 2437.84 1077.16C2439.92 1074.39 2442.47 1072.44 2445.51 1071.31L2461.63 1065.33V1059.22C2461.63 1057.14 2460.98 1055.45 2459.68 1054.15C2458.46 1052.76 2456.86 1052.07 2454.87 1052.07H2440.18V1044.4H2455.78C2460.54 1044.4 2464.31 1045.83 2467.09 1048.69C2469.95 1051.46 2471.38 1055.28 2471.38 1060.13V1112H2452.01ZM2461.63 1104.07V1073.52L2450.19 1077.81C2447.93 1078.68 2446.33 1079.85 2445.38 1081.32C2444.51 1082.79 2444.08 1085.13 2444.08 1088.34V1095.62C2444.08 1097.96 2444.94 1099.95 2446.68 1101.6C2448.41 1103.25 2450.49 1104.07 2452.92 1104.07H2461.63ZM2504.56 1112C2499.79 1112 2496.02 1110.57 2493.25 1107.71C2490.47 1104.85 2489.09 1100.99 2489.09 1096.14V1052.2H2481.29V1044.4H2489.09V1024.77L2499.49 1020.87V1044.4H2509.89V1052.2H2499.49V1097.05C2499.49 1099.13 2500.05 1100.86 2501.18 1102.25C2502.39 1103.55 2503.99 1104.2 2505.99 1104.2H2509.89V1112H2504.56ZM2520.24 1033.35V1022.95H2530.64V1033.35H2520.24ZM2520.24 1112V1044.4H2530.64V1112H2520.24ZM2555.88 1112L2540.41 1044.4H2551.2L2561.21 1098.87L2571.09 1044.4H2581.88L2566.41 1112H2555.88ZM2605.37 1112C2602.25 1112 2599.34 1111.22 2596.66 1109.66C2594.06 1108.1 2591.98 1105.98 2590.42 1103.29C2588.94 1100.6 2588.21 1097.57 2588.21 1094.19V1087.43C2588.21 1083.36 2589.2 1079.93 2591.2 1077.16C2593.28 1074.39 2595.83 1072.44 2598.87 1071.31L2614.99 1065.33V1059.22C2614.99 1057.14 2614.34 1055.45 2613.04 1054.15C2611.82 1052.76 2610.22 1052.07 2608.23 1052.07H2593.54V1044.4H2609.14C2613.9 1044.4 2617.67 1045.83 2620.45 1048.69C2623.31 1051.46 2624.74 1055.28 2624.74 1060.13V1112H2605.37ZM2614.99 1104.07V1073.52L2603.55 1077.81C2601.29 1078.68 2599.69 1079.85 2598.74 1081.32C2597.87 1082.79 2597.44 1085.13 2597.44 1088.34V1095.62C2597.44 1097.96 2598.3 1099.95 2600.04 1101.6C2601.77 1103.25 2603.85 1104.07 2606.28 1104.07H2614.99Z" fill="white"/>
<path d="M1687 1112V494H1156.3V930.496H1505.5V668.599H1330.9V755.898H1418.2V843.197H1243.6V581.299H1592.8V1017.8H1069V1112H1687Z" fill="white"/>
</svg>
