<svg width="3745" height="1780" viewBox="0 0 3745 1780" fill="none" xmlns="http://www.w3.org/2000/svg">
<rect width="3745" height="1780" fill="#112D15"/>
<path d="M619.067 905L619.067 806.026H619.07V806.025L718 806.025V839.298H652.326L652.326 905H619.067Z" fill="#34D320"/>
<path d="M652.327 679.7V745.401H684.741L684.741 647.273L588.629 647.273L588.629 723.407H588.63L588.629 905H426V740.326L426 740.325H459.259V740.326L524.931 740.326L524.931 839.3H491.673L491.673 773.599H459.259L459.259 871.727H555.371L555.371 795.593H555.37L555.371 614L718 614V778.674L619.069 778.674L619.069 679.7H652.327Z" fill="#34D320"/>
<path d="M524.93 614L524.931 712.975H426V679.702H491.671V614L524.93 614Z" fill="#34D320"/>
<path d="M926.54 699V601H937.74V699H926.54ZM954.427 614.3V603.1H965.627V614.3H954.427ZM954.427 699V626.2H965.627V699H954.427ZM982.455 626.2H991.135L992.395 630.26L998.135 628.58C1002.05 627.367 1005.13 626.527 1007.37 626.06C1009.71 625.5 1011.9 625.22 1013.95 625.22C1017.31 625.22 1019.79 626.387 1021.37 628.72C1022.96 631.053 1023.75 634.087 1023.75 637.82V699H1012.55V641.46C1012.55 638.753 1012.37 636.887 1011.99 635.86C1011.62 634.74 1010.69 634.18 1009.19 634.18C1008.45 634.18 1003.27 635.673 993.655 638.66V699H982.455V626.2ZM1039.33 601H1050.53V629.98L1056.69 628.16C1060.52 627.04 1063.32 626.293 1065.09 625.92C1066.96 625.453 1068.87 625.22 1070.83 625.22C1074.19 625.22 1076.66 626.387 1078.25 628.72C1079.84 631.053 1080.63 634.087 1080.63 637.82V699H1069.43V641.46C1069.43 638.753 1069.24 636.887 1068.87 635.86C1068.5 634.74 1067.56 634.18 1066.07 634.18C1065.32 634.18 1060.14 635.673 1050.53 638.66V699H1039.33V601ZM1112.41 699C1109.05 699 1105.93 698.16 1103.03 696.48C1100.23 694.8 1097.99 692.513 1096.31 689.62C1094.73 686.727 1093.93 683.46 1093.93 679.82V672.54C1093.93 668.153 1095.01 664.467 1097.15 661.48C1099.39 658.493 1102.15 656.393 1105.41 655.18L1122.77 648.74V642.16C1122.77 639.92 1122.07 638.1 1120.67 636.7C1119.37 635.207 1117.64 634.46 1115.49 634.46H1099.67V626.2H1116.47C1121.61 626.2 1125.67 627.74 1128.65 630.82C1131.73 633.807 1133.27 637.913 1133.27 643.14V699H1112.41ZM1122.77 690.46V657.56L1110.45 662.18C1108.03 663.113 1106.3 664.373 1105.27 665.96C1104.34 667.547 1103.87 670.067 1103.87 673.52V681.36C1103.87 683.88 1104.81 686.027 1106.67 687.8C1108.54 689.573 1110.78 690.46 1113.39 690.46H1122.77ZM1188.24 699C1182.36 699 1177.6 697.273 1173.96 693.82C1170.32 690.367 1168.5 685.747 1168.5 679.96V645.1C1168.5 641.087 1169.57 637.68 1171.72 634.88C1173.96 632.08 1176.71 630.167 1179.98 629.14L1198.74 622.56V601H1209.94V699H1188.24ZM1198.74 690.6V631.8L1186.28 636C1183.85 636.747 1182.13 637.96 1181.1 639.64C1180.17 641.227 1179.7 643.793 1179.7 647.34V679.96C1179.7 683.32 1180.68 685.933 1182.64 687.8C1184.6 689.667 1187.26 690.6 1190.62 690.6H1198.74ZM1244.55 699.98C1238.02 699.98 1232.93 698.347 1229.29 695.08C1225.74 691.72 1223.97 687.1 1223.97 681.22V643.98C1223.97 638.1 1225.74 633.527 1229.29 630.26C1232.93 626.9 1238.02 625.22 1244.55 625.22C1251.08 625.22 1256.12 626.9 1259.67 630.26C1263.31 633.527 1265.13 638.1 1265.13 643.98V681.22C1265.13 687.1 1263.31 691.72 1259.67 695.08C1256.12 698.347 1251.08 699.98 1244.55 699.98ZM1244.55 691.3C1247.54 691.3 1249.87 690.46 1251.55 688.78C1253.32 687.007 1254.21 684.487 1254.21 681.22V643.98C1254.21 640.713 1253.32 638.24 1251.55 636.56C1249.87 634.787 1247.54 633.9 1244.55 633.9C1241.56 633.9 1239.18 634.787 1237.41 636.56C1235.73 638.24 1234.89 640.713 1234.89 643.98V681.22C1234.89 684.487 1235.73 687.007 1237.41 688.78C1239.18 690.46 1241.56 691.3 1244.55 691.3ZM1320.49 699C1315.36 699 1311.3 697.46 1308.31 694.38C1305.32 691.3 1303.83 687.147 1303.83 681.92V634.6H1295.43V626.2H1303.83V605.06L1315.03 600.86V626.2H1326.23V634.6H1315.03V682.9C1315.03 685.14 1315.64 687.007 1316.85 688.5C1318.16 689.9 1319.88 690.6 1322.03 690.6H1326.23V699H1320.49ZM1351.94 699C1346.8 699 1342.7 697.46 1339.62 694.38C1336.63 691.3 1335.14 687.147 1335.14 681.92V644.68C1335.14 638.613 1336.82 633.853 1340.18 630.4C1343.54 626.947 1348.53 625.22 1355.16 625.22C1361.78 625.22 1366.73 626.947 1370 630.4C1373.36 633.853 1375.04 638.613 1375.04 644.68V651.12C1375.04 655.04 1373.92 658.027 1371.68 660.08C1369.44 662.04 1366.5 663.533 1362.86 664.56L1346.34 669.18V682.9C1346.34 685.14 1346.99 687.007 1348.3 688.5C1349.7 689.9 1351.47 690.6 1353.62 690.6H1368.74V699H1351.94ZM1354.88 657.98C1357.96 657.14 1360.01 656.533 1361.04 656.16C1362.16 655.693 1362.9 655.04 1363.28 654.2C1363.65 653.36 1363.84 651.96 1363.84 650V642.3C1363.84 639.313 1363.04 637.12 1361.46 635.72C1359.96 634.32 1357.86 633.62 1355.16 633.62C1352.54 633.62 1350.4 634.367 1348.72 635.86C1347.13 637.353 1346.34 639.5 1346.34 642.3V660.36L1354.88 657.98ZM1386.19 626.2H1394.87L1396.13 630.26L1401.87 628.58C1405.79 627.367 1408.87 626.527 1411.11 626.06C1413.44 625.5 1415.63 625.22 1417.69 625.22C1421.7 625.22 1424.5 626.993 1426.09 630.54C1428.7 629.607 1432.39 628.487 1437.15 627.18C1441.91 625.873 1445.41 625.22 1447.65 625.22C1451.01 625.22 1453.48 626.387 1455.07 628.72C1456.75 631.053 1457.59 634.087 1457.59 637.82V699H1446.39V641.46C1446.39 638.753 1446.2 636.887 1445.83 635.86C1445.45 634.74 1444.52 634.18 1443.03 634.18C1442.28 634.18 1437.15 635.673 1427.63 638.66V699H1416.43V641.46C1416.43 638.753 1416.24 636.887 1415.87 635.86C1415.49 634.74 1414.56 634.18 1413.07 634.18C1412.32 634.18 1407.09 635.673 1397.39 638.66V699H1386.19V626.2ZM1473 626.2H1495.68C1500.81 626.2 1505.15 627.88 1508.7 631.24C1512.34 634.6 1514.16 638.8 1514.16 643.84V681.5C1514.16 686.54 1512.39 690.74 1508.84 694.1C1505.29 697.367 1500.95 699 1495.82 699H1484.2V721.4H1473V626.2ZM1493.44 690.74C1496.05 690.74 1498.29 689.853 1500.16 688.08C1502.03 686.307 1502.96 684.113 1502.96 681.5V643.84C1502.96 641.227 1502.03 639.033 1500.16 637.26C1498.29 635.487 1496.05 634.6 1493.44 634.6H1484.2V690.74H1493.44ZM1545.2 699.98C1538.66 699.98 1533.58 698.347 1529.94 695.08C1526.39 691.72 1524.62 687.1 1524.62 681.22V643.98C1524.62 638.1 1526.39 633.527 1529.94 630.26C1533.58 626.9 1538.66 625.22 1545.2 625.22C1551.73 625.22 1556.77 626.9 1560.32 630.26C1563.96 633.527 1565.78 638.1 1565.78 643.98V681.22C1565.78 687.1 1563.96 691.72 1560.32 695.08C1556.77 698.347 1551.73 699.98 1545.2 699.98ZM1545.2 691.3C1548.18 691.3 1550.52 690.46 1552.2 688.78C1553.97 687.007 1554.86 684.487 1554.86 681.22V643.98C1554.86 640.713 1553.97 638.24 1552.2 636.56C1550.52 634.787 1548.18 633.9 1545.2 633.9C1542.21 633.9 1539.83 634.787 1538.06 636.56C1536.38 638.24 1535.54 640.713 1535.54 643.98V681.22C1535.54 684.487 1536.38 687.007 1538.06 688.78C1539.83 690.46 1542.21 691.3 1545.2 691.3ZM922 904L953.6 764H980.2L1010.6 904H994.2L984.4 862.8H948L939 904H922ZM951 849.2H981.4L967 777.2H965.6L951 849.2ZM1020.68 892H1037.68C1043.41 892 1047.55 890.467 1050.08 887.4C1052.75 884.2 1054.08 880.067 1054.08 875C1054.08 871 1052.88 867.6 1050.48 864.8C1048.08 862 1044.48 858.733 1039.68 855C1035.55 851.667 1032.21 848.8 1029.68 846.4C1027.28 843.867 1025.15 840.8 1023.28 837.2C1021.55 833.467 1020.68 829.2 1020.68 824.4C1020.68 817.333 1023.01 811.533 1027.68 807C1032.48 802.333 1038.88 800 1046.88 800H1064.28V812H1049.88C1040.41 812 1035.68 816.467 1035.68 825.4C1035.68 828.867 1036.75 831.867 1038.88 834.4C1041.01 836.933 1044.35 839.933 1048.88 843.4C1053.01 846.6 1056.41 849.533 1059.08 852.2C1061.75 854.733 1064.01 858 1065.88 862C1067.75 865.867 1068.68 870.467 1068.68 875.8C1068.68 885.267 1066.15 892.333 1061.08 897C1056.15 901.667 1049.15 904 1040.08 904H1020.68V892ZM1108.64 904C1101.31 904 1095.44 901.8 1091.04 897.4C1086.77 893 1084.64 887.067 1084.64 879.6V826.4C1084.64 818 1086.84 811.533 1091.24 807C1095.64 802.333 1102.04 800 1110.44 800H1132.64V812H1110.84C1107.77 812 1105.31 813.067 1103.44 815.2C1101.57 817.2 1100.64 819.8 1100.64 823V881C1100.64 884.2 1101.57 886.867 1103.44 889C1105.44 891 1107.97 892 1111.04 892H1132.64V904H1108.64ZM1167.4 904C1160.07 904 1154.2 901.8 1149.8 897.4C1145.53 893 1143.4 887.067 1143.4 879.6V826.4C1143.4 817.733 1145.8 810.933 1150.6 806C1155.4 801.067 1162.53 798.6 1172 798.6C1181.47 798.6 1188.53 801.067 1193.2 806C1198 810.933 1200.4 817.733 1200.4 826.4V835.6C1200.4 841.2 1198.8 845.467 1195.6 848.4C1192.4 851.2 1188.2 853.333 1183 854.8L1159.4 861.4V881C1159.4 884.2 1160.33 886.867 1162.2 889C1164.2 891 1166.73 892 1169.8 892H1191.4V904H1167.4ZM1171.6 845.4C1176 844.2 1178.93 843.333 1180.4 842.8C1182 842.133 1183.07 841.2 1183.6 840C1184.13 838.8 1184.4 836.8 1184.4 834V823C1184.4 818.733 1183.27 815.6 1181 813.6C1178.87 811.6 1175.87 810.6 1172 810.6C1168.27 810.6 1165.2 811.667 1162.8 813.8C1160.53 815.933 1159.4 819 1159.4 823V848.8L1171.6 845.4ZM1216.33 800H1228.73L1230.53 805.8L1238.73 803.4C1244.33 801.667 1248.73 800.467 1251.93 799.8C1255.26 799 1258.39 798.6 1261.33 798.6C1266.13 798.6 1269.66 800.267 1271.93 803.6C1274.19 806.933 1275.33 811.267 1275.33 816.6V904H1259.33V821.8C1259.33 817.933 1259.06 815.267 1258.53 813.8C1257.99 812.2 1256.66 811.4 1254.53 811.4C1253.46 811.4 1246.06 813.533 1232.33 817.8V904H1216.33V800ZM1291.58 892H1308.58C1314.31 892 1318.44 890.467 1320.98 887.4C1323.64 884.2 1324.98 880.067 1324.98 875C1324.98 871 1323.78 867.6 1321.38 864.8C1318.98 862 1315.38 858.733 1310.58 855C1306.44 851.667 1303.11 848.8 1300.58 846.4C1298.18 843.867 1296.04 840.8 1294.18 837.2C1292.44 833.467 1291.58 829.2 1291.58 824.4C1291.58 817.333 1293.91 811.533 1298.58 807C1303.38 802.333 1309.78 800 1317.78 800H1335.18V812H1320.78C1311.31 812 1306.58 816.467 1306.58 825.4C1306.58 828.867 1307.64 831.867 1309.78 834.4C1311.91 836.933 1315.24 839.933 1319.78 843.4C1323.91 846.6 1327.31 849.533 1329.98 852.2C1332.64 854.733 1334.91 858 1336.78 862C1338.64 865.867 1339.58 870.467 1339.58 875.8C1339.58 885.267 1337.04 892.333 1331.98 897C1327.04 901.667 1320.04 904 1310.98 904H1291.58V892ZM1352.94 790C1353.07 784 1354.21 779.467 1356.34 776.4C1358.47 773.2 1362.34 771.6 1367.94 771.6C1369.41 771.6 1373.74 772.667 1380.94 774.8C1388.01 777.067 1392.54 778.2 1394.54 778.2C1396.14 778.2 1397.21 777.733 1397.74 776.8C1398.27 775.733 1398.61 774.467 1398.74 773C1399.01 771.533 1399.21 770.4 1399.34 769.6H1411.94C1411.81 774.133 1411.47 777.8 1410.94 780.6C1410.41 783.267 1409.01 785.533 1406.74 787.4C1404.61 789.133 1401.34 790 1396.94 790C1394.94 790 1390.41 788.867 1383.34 786.6C1376.14 784.467 1371.81 783.4 1370.34 783.4C1368.61 783.4 1367.47 783.733 1366.94 784.4C1366.54 785.067 1366.21 786 1365.94 787.2C1365.81 788.4 1365.67 789.333 1365.54 790H1352.94ZM1378.74 904C1373.94 904 1369.47 902.8 1365.34 900.4C1361.34 898 1358.14 894.733 1355.74 890.6C1353.47 886.467 1352.34 881.8 1352.34 876.6V866.2C1352.34 859.933 1353.87 854.667 1356.94 850.4C1360.14 846.133 1364.07 843.133 1368.74 841.4L1393.54 832.2V822.8C1393.54 819.6 1392.54 817 1390.54 815C1388.67 812.867 1386.21 811.8 1383.14 811.8H1360.54V800H1384.54C1391.87 800 1397.67 802.2 1401.94 806.6C1406.34 810.867 1408.54 816.733 1408.54 824.2V904H1378.74ZM1393.54 891.8V844.8L1375.94 851.4C1372.47 852.733 1370.01 854.533 1368.54 856.8C1367.21 859.067 1366.54 862.667 1366.54 867.6V878.8C1366.54 882.4 1367.87 885.467 1370.54 888C1373.21 890.533 1376.41 891.8 1380.14 891.8H1393.54ZM1455.99 905.4C1446.65 905.4 1439.39 903.067 1434.19 898.4C1429.12 893.6 1426.59 887 1426.59 878.6V825.4C1426.59 817 1429.12 810.467 1434.19 805.8C1439.39 801 1446.65 798.6 1455.99 798.6C1465.32 798.6 1472.52 801 1477.59 805.8C1482.79 810.467 1485.39 817 1485.39 825.4V878.6C1485.39 887 1482.79 893.6 1477.59 898.4C1472.52 903.067 1465.32 905.4 1455.99 905.4ZM1455.99 893C1460.25 893 1463.59 891.8 1465.99 889.4C1468.52 886.867 1469.79 883.267 1469.79 878.6V825.4C1469.79 820.733 1468.52 817.2 1465.99 814.8C1463.59 812.267 1460.25 811 1455.99 811C1451.72 811 1448.32 812.267 1445.79 814.8C1443.39 817.2 1442.19 820.733 1442.19 825.4V878.6C1442.19 883.267 1443.39 886.867 1445.79 889.4C1448.32 891.8 1451.72 893 1455.99 893ZM1556.27 904C1548.94 904 1543.07 901.8 1538.67 897.4C1534.4 893 1532.27 887.067 1532.27 879.6V826.4C1532.27 817.733 1534.67 810.933 1539.47 806C1544.27 801.067 1551.4 798.6 1560.87 798.6C1570.34 798.6 1577.4 801.067 1582.07 806C1586.87 810.933 1589.27 817.733 1589.27 826.4V835.6C1589.27 841.2 1587.67 845.467 1584.47 848.4C1581.27 851.2 1577.07 853.333 1571.87 854.8L1548.27 861.4V881C1548.27 884.2 1549.2 886.867 1551.07 889C1553.07 891 1555.6 892 1558.67 892H1580.27V904H1556.27ZM1560.47 845.4C1564.87 844.2 1567.8 843.333 1569.27 842.8C1570.87 842.133 1571.94 841.2 1572.47 840C1573 838.8 1573.27 836.8 1573.27 834V823C1573.27 818.733 1572.14 815.6 1569.87 813.6C1567.74 811.6 1564.74 810.6 1560.87 810.6C1557.14 810.6 1554.07 811.667 1551.67 813.8C1549.4 815.933 1548.27 819 1548.27 823V848.8L1560.47 845.4ZM1674.27 904H1657.67C1650.34 904 1644.14 901.667 1639.07 897C1634.01 892.2 1631.47 886.2 1631.47 879V825.2C1631.47 818 1634.01 812 1639.07 807.2C1644.27 802.4 1650.54 800 1657.87 800H1690.47V936H1674.27V904ZM1674.47 892V812H1661.07C1657.34 812 1654.14 813.267 1651.47 815.8C1648.81 818.333 1647.47 821.467 1647.47 825.2V878.8C1647.47 882.533 1648.81 885.667 1651.47 888.2C1654.14 890.733 1657.34 892 1661.07 892H1674.47ZM1726.77 905.4C1721.97 905.4 1718.37 903.733 1715.97 900.4C1713.7 897.067 1712.57 892.733 1712.57 887.4V800H1728.57V882.2C1728.57 885.933 1728.84 888.6 1729.37 890.2C1729.9 891.8 1731.17 892.6 1733.17 892.6C1734.1 892.6 1741.64 890.6 1755.77 886.6V800H1771.77V904H1760.37L1757.37 897.2C1755.24 898 1753.64 898.533 1752.57 898.8C1746.3 901.067 1741.24 902.733 1737.37 903.8C1733.5 904.867 1729.97 905.4 1726.77 905.4ZM1816.62 904C1809.29 904 1803.42 901.8 1799.02 897.4C1794.75 893 1792.62 887.067 1792.62 879.6V826.4C1792.62 817.733 1795.02 810.933 1799.82 806C1804.62 801.067 1811.75 798.6 1821.22 798.6C1830.69 798.6 1837.75 801.067 1842.42 806C1847.22 810.933 1849.62 817.733 1849.62 826.4V835.6C1849.62 841.2 1848.02 845.467 1844.82 848.4C1841.62 851.2 1837.42 853.333 1832.22 854.8L1808.62 861.4V881C1808.62 884.2 1809.55 886.867 1811.42 889C1813.42 891 1815.95 892 1819.02 892H1840.62V904H1816.62ZM1820.82 845.4C1825.22 844.2 1828.15 843.333 1829.62 842.8C1831.22 842.133 1832.29 841.2 1832.82 840C1833.35 838.8 1833.62 836.8 1833.62 834V823C1833.62 818.733 1832.49 815.6 1830.22 813.6C1828.09 811.6 1825.09 810.6 1821.22 810.6C1817.49 810.6 1814.42 811.667 1812.02 813.8C1809.75 815.933 1808.62 819 1808.62 823V848.8L1820.82 845.4ZM1891.95 904C1883.55 904 1876.75 901.533 1871.55 896.6C1866.35 891.667 1863.75 885.067 1863.75 876.8V827C1863.75 821.267 1865.28 816.4 1868.35 812.4C1871.55 808.4 1875.48 805.667 1880.15 804.2L1906.95 794.8V764H1922.95V904H1891.95ZM1906.95 892V808L1889.15 814C1885.68 815.067 1883.21 816.8 1881.75 819.2C1880.41 821.467 1879.75 825.133 1879.75 830.2V876.8C1879.75 881.6 1881.15 885.333 1883.95 888C1886.75 890.667 1890.55 892 1895.35 892H1906.95ZM1968.19 904C1963.39 904 1958.93 902.8 1954.79 900.4C1950.79 898 1947.59 894.733 1945.19 890.6C1942.93 886.467 1941.79 881.8 1941.79 876.6V866.2C1941.79 859.933 1943.33 854.667 1946.39 850.4C1949.59 846.133 1953.53 843.133 1958.19 841.4L1982.99 832.2V822.8C1982.99 819.6 1981.99 817 1979.99 815C1978.13 812.867 1975.66 811.8 1972.59 811.8H1949.99V800H1973.99C1981.33 800 1987.13 802.2 1991.39 806.6C1995.79 810.867 1997.99 816.733 1997.99 824.2V904H1968.19ZM1982.99 891.8V844.8L1965.39 851.4C1961.93 852.733 1959.46 854.533 1957.99 856.8C1956.66 859.067 1955.99 862.667 1955.99 867.6V878.8C1955.99 882.4 1957.33 885.467 1959.99 888C1962.66 890.533 1965.86 891.8 1969.59 891.8H1982.99ZM2076.52 904C2068.12 904 2061.32 901.533 2056.12 896.6C2050.92 891.667 2048.32 885.067 2048.32 876.8V827C2048.32 821.267 2049.85 816.4 2052.92 812.4C2056.12 808.4 2060.05 805.667 2064.72 804.2L2091.52 794.8V764H2107.52V904H2076.52ZM2091.52 892V808L2073.72 814C2070.25 815.067 2067.78 816.8 2066.32 819.2C2064.98 821.467 2064.32 825.133 2064.32 830.2V876.8C2064.32 881.6 2065.72 885.333 2068.52 888C2071.32 890.667 2075.12 892 2079.92 892H2091.52ZM2152.76 904C2147.96 904 2143.5 902.8 2139.36 900.4C2135.36 898 2132.16 894.733 2129.76 890.6C2127.5 886.467 2126.36 881.8 2126.36 876.6V866.2C2126.36 859.933 2127.9 854.667 2130.96 850.4C2134.16 846.133 2138.1 843.133 2142.76 841.4L2167.56 832.2V822.8C2167.56 819.6 2166.56 817 2164.56 815C2162.7 812.867 2160.23 811.8 2157.16 811.8H2134.56V800H2158.56C2165.9 800 2171.7 802.2 2175.96 806.6C2180.36 810.867 2182.56 816.733 2182.56 824.2V904H2152.76ZM2167.56 891.8V844.8L2149.96 851.4C2146.5 852.733 2144.03 854.533 2142.56 856.8C2141.23 859.067 2140.56 862.667 2140.56 867.6V878.8C2140.56 882.4 2141.9 885.467 2144.56 888C2147.23 890.533 2150.43 891.8 2154.16 891.8H2167.56ZM2198.61 892H2215.61C2221.34 892 2225.48 890.467 2228.01 887.4C2230.68 884.2 2232.01 880.067 2232.01 875C2232.01 871 2230.81 867.6 2228.41 864.8C2226.01 862 2222.41 858.733 2217.61 855C2213.48 851.667 2210.14 848.8 2207.61 846.4C2205.21 843.867 2203.08 840.8 2201.21 837.2C2199.48 833.467 2198.61 829.2 2198.61 824.4C2198.61 817.333 2200.94 811.533 2205.61 807C2210.41 802.333 2216.81 800 2224.81 800H2242.21V812H2227.81C2218.34 812 2213.61 816.467 2213.61 825.4C2213.61 828.867 2214.68 831.867 2216.81 834.4C2218.94 836.933 2222.28 839.933 2226.81 843.4C2230.94 846.6 2234.34 849.533 2237.01 852.2C2239.68 854.733 2241.94 858 2243.81 862C2245.68 865.867 2246.61 870.467 2246.61 875.8C2246.61 885.267 2244.08 892.333 2239.01 897C2234.08 901.667 2227.08 904 2218.01 904H2198.61V892ZM2320.45 904L2290.85 764H2308.25L2332.05 887L2350.65 800.4H2369.45L2388.25 887L2411.85 764H2429.25L2400.25 904H2376.65L2360.25 820.2L2344.05 904H2320.45ZM2461.85 905.4C2452.51 905.4 2445.25 903.067 2440.05 898.4C2434.98 893.6 2432.45 887 2432.45 878.6V825.4C2432.45 817 2434.98 810.467 2440.05 805.8C2445.25 801 2452.51 798.6 2461.85 798.6C2471.18 798.6 2478.38 801 2483.45 805.8C2488.65 810.467 2491.25 817 2491.25 825.4V878.6C2491.25 887 2488.65 893.6 2483.45 898.4C2478.38 903.067 2471.18 905.4 2461.85 905.4ZM2461.85 893C2466.11 893 2469.45 891.8 2471.85 889.4C2474.38 886.867 2475.65 883.267 2475.65 878.6V825.4C2475.65 820.733 2474.38 817.2 2471.85 814.8C2469.45 812.267 2466.11 811 2461.85 811C2457.58 811 2454.18 812.267 2451.65 814.8C2449.25 817.2 2448.05 820.733 2448.05 825.4V878.6C2448.05 883.267 2449.25 886.867 2451.65 889.4C2454.18 891.8 2457.58 893 2461.85 893ZM2511.25 800H2523.65L2525.45 807.4L2530.45 805C2534.72 802.867 2538.25 801.267 2541.05 800.2C2543.98 799.133 2546.92 798.6 2549.85 798.6V810.4C2548.12 810.4 2545.78 810.933 2542.85 812C2539.92 812.933 2534.72 815.2 2527.25 818.8V904H2511.25V800ZM2564.37 904V764H2580.37V842.4L2611.37 800H2626.37L2596.77 842.4L2627.77 904H2612.77L2587.37 851.6L2580.37 861V904H2564.37ZM2635.33 892H2652.33C2658.06 892 2662.19 890.467 2664.73 887.4C2667.39 884.2 2668.73 880.067 2668.73 875C2668.73 871 2667.53 867.6 2665.13 864.8C2662.73 862 2659.13 858.733 2654.33 855C2650.19 851.667 2646.86 848.8 2644.33 846.4C2641.93 843.867 2639.79 840.8 2637.93 837.2C2636.19 833.467 2635.33 829.2 2635.33 824.4C2635.33 817.333 2637.66 811.533 2642.33 807C2647.13 802.333 2653.53 800 2661.53 800H2678.93V812H2664.53C2655.06 812 2650.33 816.467 2650.33 825.4C2650.33 828.867 2651.39 831.867 2653.53 834.4C2655.66 836.933 2658.99 839.933 2663.53 843.4C2667.66 846.6 2671.06 849.533 2673.73 852.2C2676.39 854.733 2678.66 858 2680.53 862C2682.39 865.867 2683.33 870.467 2683.33 875.8C2683.33 885.267 2680.79 892.333 2675.73 897C2670.79 901.667 2663.79 904 2654.73 904H2635.33V892ZM2730.29 904C2722.96 904 2717.16 901.8 2712.89 897.4C2708.62 893 2706.49 887.067 2706.49 879.6V812H2694.49V800H2706.49V769.8L2722.49 763.8V800H2738.49V812H2722.49V881C2722.49 884.2 2723.36 886.867 2725.09 889C2726.96 891 2729.42 892 2732.49 892H2738.49V904H2730.29ZM2775.61 904C2770.81 904 2766.35 902.8 2762.21 900.4C2758.21 898 2755.01 894.733 2752.61 890.6C2750.35 886.467 2749.21 881.8 2749.21 876.6V866.2C2749.21 859.933 2750.75 854.667 2753.81 850.4C2757.01 846.133 2760.95 843.133 2765.61 841.4L2790.41 832.2V822.8C2790.41 819.6 2789.41 817 2787.41 815C2785.55 812.867 2783.08 811.8 2780.01 811.8H2757.41V800H2781.41C2788.75 800 2794.55 802.2 2798.81 806.6C2803.21 810.867 2805.41 816.733 2805.41 824.2V904H2775.61ZM2790.41 891.8V844.8L2772.81 851.4C2769.35 852.733 2766.88 854.533 2765.41 856.8C2764.08 859.067 2763.41 862.667 2763.41 867.6V878.8C2763.41 882.4 2764.75 885.467 2767.41 888C2770.08 890.533 2773.28 891.8 2777.01 891.8H2790.41ZM2856.46 904C2849.13 904 2843.33 901.8 2839.06 897.4C2834.79 893 2832.66 887.067 2832.66 879.6V812H2820.66V800H2832.66V769.8L2848.66 763.8V800H2864.66V812H2848.66V881C2848.66 884.2 2849.53 886.867 2851.26 889C2853.13 891 2855.59 892 2858.66 892H2864.66V904H2856.46ZM2880.59 783V767H2896.59V783H2880.59ZM2880.59 904V800H2896.59V904H2880.59ZM2946.03 905.4C2936.69 905.4 2929.43 903.067 2924.23 898.4C2919.16 893.6 2916.63 887 2916.63 878.6V825.4C2916.63 817 2919.16 810.467 2924.23 805.8C2929.43 801 2936.69 798.6 2946.03 798.6C2955.36 798.6 2962.56 801 2967.63 805.8C2972.83 810.467 2975.43 817 2975.43 825.4V878.6C2975.43 887 2972.83 893.6 2967.63 898.4C2962.56 903.067 2955.36 905.4 2946.03 905.4ZM2946.03 893C2950.29 893 2953.63 891.8 2956.03 889.4C2958.56 886.867 2959.83 883.267 2959.83 878.6V825.4C2959.83 820.733 2958.56 817.2 2956.03 814.8C2953.63 812.267 2950.29 811 2946.03 811C2941.76 811 2938.36 812.267 2935.83 814.8C2933.43 817.2 2932.23 820.733 2932.23 825.4V878.6C2932.23 883.267 2933.43 886.867 2935.83 889.4C2938.36 891.8 2941.76 893 2946.03 893ZM2995.43 800H3007.83L3009.63 805.8L3017.83 803.4C3023.43 801.667 3027.83 800.467 3031.03 799.8C3034.36 799 3037.5 798.6 3040.43 798.6C3045.23 798.6 3048.76 800.267 3051.03 803.6C3053.3 806.933 3054.43 811.267 3054.43 816.6V904H3038.43V821.8C3038.43 817.933 3038.16 815.267 3037.63 813.8C3037.1 812.2 3035.76 811.4 3033.63 811.4C3032.56 811.4 3025.16 813.533 3011.43 817.8V904H2995.43V800ZM3070.68 892H3087.68C3093.41 892 3097.55 890.467 3100.08 887.4C3102.75 884.2 3104.08 880.067 3104.08 875C3104.08 871 3102.88 867.6 3100.48 864.8C3098.08 862 3094.48 858.733 3089.68 855C3085.55 851.667 3082.21 848.8 3079.68 846.4C3077.28 843.867 3075.15 840.8 3073.28 837.2C3071.55 833.467 3070.68 829.2 3070.68 824.4C3070.68 817.333 3073.01 811.533 3077.68 807C3082.48 802.333 3088.88 800 3096.88 800H3114.28V812H3099.88C3090.41 812 3085.68 816.467 3085.68 825.4C3085.68 828.867 3086.75 831.867 3088.88 834.4C3091.01 836.933 3094.35 839.933 3098.88 843.4C3103.01 846.6 3106.41 849.533 3109.08 852.2C3111.75 854.733 3114.01 858 3115.88 862C3117.75 865.867 3118.68 870.467 3118.68 875.8C3118.68 885.267 3116.15 892.333 3111.08 897C3106.15 901.667 3099.15 904 3090.08 904H3070.68V892Z" fill="#34D320"/>
</svg>
