<svg width="3745" height="1780" viewBox="0 0 3745 1780" fill="none" xmlns="http://www.w3.org/2000/svg">
<rect width="3745" height="1780" fill="black"/>
<path d="M1499.6 707V567H1517.2V707H1499.6ZM1543.88 603H1556.28L1558.08 608.8L1566.28 606.4C1571.88 604.667 1576.28 603.467 1579.48 602.8C1582.81 602 1585.94 601.6 1588.88 601.6C1593.68 601.6 1597.21 603.267 1599.48 606.6C1601.74 609.933 1602.88 614.267 1602.88 619.6V707H1586.88V624.8C1586.88 620.933 1586.61 618.267 1586.08 616.8C1585.54 615.2 1584.21 614.4 1582.08 614.4C1581.01 614.4 1573.61 616.533 1559.88 620.8V707H1543.88V603ZM1654.13 707C1646.79 707 1640.99 704.8 1636.73 700.4C1632.46 696 1630.33 690.067 1630.33 682.6V615H1618.33V603H1630.33V572.8L1646.33 566.8V603H1662.33V615H1646.33V684C1646.33 687.2 1647.19 689.867 1648.93 692C1650.79 694 1653.26 695 1656.33 695H1662.33V707H1654.13ZM1699.05 707C1691.72 707 1685.85 704.8 1681.45 700.4C1677.18 696 1675.05 690.067 1675.05 682.6V629.4C1675.05 620.733 1677.45 613.933 1682.25 609C1687.05 604.067 1694.18 601.6 1703.65 601.6C1713.12 601.6 1720.18 604.067 1724.85 609C1729.65 613.933 1732.05 620.733 1732.05 629.4V638.6C1732.05 644.2 1730.45 648.467 1727.25 651.4C1724.05 654.2 1719.85 656.333 1714.65 657.8L1691.05 664.4V684C1691.05 687.2 1691.98 689.867 1693.85 692C1695.85 694 1698.38 695 1701.45 695H1723.05V707H1699.05ZM1703.25 648.4C1707.65 647.2 1710.58 646.333 1712.05 645.8C1713.65 645.133 1714.72 644.2 1715.25 643C1715.78 641.8 1716.05 639.8 1716.05 637V626C1716.05 621.733 1714.92 618.6 1712.65 616.6C1710.52 614.6 1707.52 613.6 1703.65 613.6C1699.92 613.6 1696.85 614.667 1694.45 616.8C1692.18 618.933 1691.05 622 1691.05 626V651.8L1703.25 648.4ZM1747.98 603H1760.38L1762.18 610.4L1767.18 608C1771.44 605.867 1774.98 604.267 1777.78 603.2C1780.71 602.133 1783.64 601.6 1786.58 601.6V613.4C1784.84 613.4 1782.51 613.933 1779.58 615C1776.64 615.933 1771.44 618.2 1763.98 621.8V707H1747.98V603ZM1822.69 707C1817.89 707 1813.43 705.8 1809.29 703.4C1805.29 701 1802.09 697.733 1799.69 693.6C1797.43 689.467 1796.29 684.8 1796.29 679.6V669.2C1796.29 662.933 1797.83 657.667 1800.89 653.4C1804.09 649.133 1808.03 646.133 1812.69 644.4L1837.49 635.2V625.8C1837.49 622.6 1836.49 620 1834.49 618C1832.63 615.867 1830.16 614.8 1827.09 614.8H1804.49V603H1828.49C1835.83 603 1841.63 605.2 1845.89 609.6C1850.29 613.867 1852.49 619.733 1852.49 627.2V707H1822.69ZM1837.49 694.8V647.8L1819.89 654.4C1816.43 655.733 1813.96 657.533 1812.49 659.8C1811.16 662.067 1810.49 665.667 1810.49 670.6V681.8C1810.49 685.4 1811.83 688.467 1814.49 691C1817.16 693.533 1820.36 694.8 1824.09 694.8H1837.49ZM1896.54 707C1889.21 707 1883.34 704.8 1878.94 700.4C1874.67 696 1872.54 690.067 1872.54 682.6V629.4C1872.54 621 1874.74 614.533 1879.14 610C1883.54 605.333 1889.94 603 1898.34 603H1920.54V615H1898.74C1895.67 615 1893.21 616.067 1891.34 618.2C1889.47 620.2 1888.54 622.8 1888.54 626V684C1888.54 687.2 1889.47 689.867 1891.34 692C1893.34 694 1895.87 695 1898.94 695H1920.54V707H1896.54ZM1963.5 707C1956.17 707 1950.37 704.8 1946.1 700.4C1941.83 696 1939.7 690.067 1939.7 682.6V615H1927.7V603H1939.7V572.8L1955.7 566.8V603H1971.7V615H1955.7V684C1955.7 687.2 1956.57 689.867 1958.3 692C1960.17 694 1962.63 695 1965.7 695H1971.7V707H1963.5ZM1987.63 586V570H2003.63V586H1987.63ZM1987.63 707V603H2003.63V707H1987.63ZM2042.46 707L2018.66 603H2035.26L2050.66 686.8L2065.86 603H2082.46L2058.66 707H2042.46ZM2118.19 707C2110.86 707 2104.99 704.8 2100.59 700.4C2096.32 696 2094.19 690.067 2094.19 682.6V629.4C2094.19 620.733 2096.59 613.933 2101.39 609C2106.19 604.067 2113.32 601.6 2122.79 601.6C2132.26 601.6 2139.32 604.067 2143.99 609C2148.79 613.933 2151.19 620.733 2151.19 629.4V638.6C2151.19 644.2 2149.59 648.467 2146.39 651.4C2143.19 654.2 2138.99 656.333 2133.79 657.8L2110.19 664.4V684C2110.19 687.2 2111.12 689.867 2112.99 692C2114.99 694 2117.52 695 2120.59 695H2142.19V707H2118.19ZM2122.39 648.4C2126.79 647.2 2129.72 646.333 2131.19 645.8C2132.79 645.133 2133.86 644.2 2134.39 643C2134.92 641.8 2135.19 639.8 2135.19 637V626C2135.19 621.733 2134.06 618.6 2131.79 616.6C2129.66 614.6 2126.66 613.6 2122.79 613.6C2119.06 613.6 2115.99 614.667 2113.59 616.8C2111.32 618.933 2110.19 622 2110.19 626V651.8L2122.39 648.4ZM2197.4 693.8H2219.2C2226.8 693.8 2232.26 691.533 2235.6 687C2239.06 682.467 2240.8 676.867 2240.8 670.2C2240.8 665 2239.8 660.533 2237.8 656.8C2235.93 652.933 2233.6 649.733 2230.8 647.2C2228 644.667 2224.2 641.733 2219.4 638.4C2214.33 634.933 2210.2 631.8 2207 629C2203.93 626.067 2201.33 622.4 2199.2 618C2197.06 613.6 2196 608.333 2196 602.2C2196 591.533 2199.2 583 2205.6 576.6C2212 570.2 2220.86 567 2232.2 567H2248.4V580.2H2233C2226.6 580.2 2221.73 582.267 2218.4 586.4C2215.06 590.533 2213.4 595.333 2213.4 600.8C2213.4 606.133 2214.93 610.533 2218 614C2221.06 617.467 2225.73 621.4 2232 625.8C2237.73 629.933 2242.33 633.667 2245.8 637C2249.26 640.2 2252.2 644.467 2254.6 649.8C2257.13 655.133 2258.4 661.533 2258.4 669C2258.4 681.533 2254.8 691 2247.6 697.4C2240.53 703.8 2230.8 707 2218.4 707H2197.4V693.8ZM2304.32 707C2296.99 707 2291.19 704.8 2286.92 700.4C2282.65 696 2280.52 690.067 2280.52 682.6V615H2268.52V603H2280.52V572.8L2296.52 566.8V603H2312.52V615H2296.52V684C2296.52 687.2 2297.39 689.867 2299.12 692C2300.99 694 2303.45 695 2306.52 695H2312.52V707H2304.32ZM2353.85 708.4C2344.51 708.4 2337.25 706.067 2332.05 701.4C2326.98 696.6 2324.45 690 2324.45 681.6V628.4C2324.45 620 2326.98 613.467 2332.05 608.8C2337.25 604 2344.51 601.6 2353.85 601.6C2363.18 601.6 2370.38 604 2375.45 608.8C2380.65 613.467 2383.25 620 2383.25 628.4V681.6C2383.25 690 2380.65 696.6 2375.45 701.4C2370.38 706.067 2363.18 708.4 2353.85 708.4ZM2353.85 696C2358.11 696 2361.45 694.8 2363.85 692.4C2366.38 689.867 2367.65 686.267 2367.65 681.6V628.4C2367.65 623.733 2366.38 620.2 2363.85 617.8C2361.45 615.267 2358.11 614 2353.85 614C2349.58 614 2346.18 615.267 2343.65 617.8C2341.25 620.2 2340.05 623.733 2340.05 628.4V681.6C2340.05 686.267 2341.25 689.867 2343.65 692.4C2346.18 694.8 2349.58 696 2353.85 696ZM2403.25 603H2415.65L2417.45 610.4L2422.45 608C2426.72 605.867 2430.25 604.267 2433.05 603.2C2435.98 602.133 2438.92 601.6 2441.85 601.6V613.4C2440.12 613.4 2437.78 613.933 2434.85 615C2431.92 615.933 2426.72 618.2 2419.25 621.8V707H2403.25V603ZM2456.17 727H2462.37C2465.97 727 2469.23 725.267 2472.17 721.8C2475.1 718.467 2476.57 713.467 2476.57 706.8L2448.77 603H2465.37L2482.77 687.4L2496.77 603H2512.57L2488.17 719C2485.37 732.333 2477.63 739 2464.97 739H2456.17V727ZM2556.47 707C2549.14 707 2543.34 704.8 2539.07 700.4C2534.8 696 2532.67 690.067 2532.67 682.6V615H2520.67V603H2532.67V572.8L2548.67 566.8V603H2564.67V615H2548.67V684C2548.67 687.2 2549.54 689.867 2551.27 692C2553.14 694 2555.6 695 2558.67 695H2564.67V707H2556.47ZM2601.39 707C2594.06 707 2588.19 704.8 2583.79 700.4C2579.53 696 2577.39 690.067 2577.39 682.6V629.4C2577.39 620.733 2579.79 613.933 2584.59 609C2589.39 604.067 2596.53 601.6 2605.99 601.6C2615.46 601.6 2622.53 604.067 2627.19 609C2631.99 613.933 2634.39 620.733 2634.39 629.4V638.6C2634.39 644.2 2632.79 648.467 2629.59 651.4C2626.39 654.2 2622.19 656.333 2616.99 657.8L2593.39 664.4V684C2593.39 687.2 2594.33 689.867 2596.19 692C2598.19 694 2600.73 695 2603.79 695H2625.39V707H2601.39ZM2605.59 648.4C2609.99 647.2 2612.93 646.333 2614.39 645.8C2615.99 645.133 2617.06 644.2 2617.59 643C2618.13 641.8 2618.39 639.8 2618.39 637V626C2618.39 621.733 2617.26 618.6 2614.99 616.6C2612.86 614.6 2609.86 613.6 2605.99 613.6C2602.26 613.6 2599.19 614.667 2596.79 616.8C2594.53 618.933 2593.39 622 2593.39 626V651.8L2605.59 648.4ZM2650.52 707V567H2666.52V707H2650.52ZM2690.56 707V567H2706.56V707H2690.56ZM2730.4 586V570H2746.4V586H2730.4ZM2730.4 707V603H2746.4V707H2730.4ZM2770.44 603H2782.84L2784.64 608.8L2792.84 606.4C2798.44 604.667 2802.84 603.467 2806.04 602.8C2809.37 602 2812.5 601.6 2815.44 601.6C2820.24 601.6 2823.77 603.267 2826.04 606.6C2828.3 609.933 2829.44 614.267 2829.44 619.6V707H2813.44V624.8C2813.44 620.933 2813.17 618.267 2812.64 616.8C2812.1 615.2 2810.77 614.4 2808.64 614.4C2807.57 614.4 2800.17 616.533 2786.44 620.8V707H2770.44V603ZM2860.09 727H2880.69C2883.75 727 2886.15 725.933 2887.89 723.8C2889.75 721.8 2890.69 719.2 2890.69 716V707.2H2874.09C2866.75 707.2 2860.55 704.8 2855.49 700C2850.42 695.2 2847.89 689.2 2847.89 682V628.2C2847.89 621 2850.42 615 2855.49 610.2C2860.69 605.4 2866.95 603 2874.29 603H2906.89V714.6C2906.89 722.067 2904.82 728 2900.69 732.4C2896.69 736.8 2891.02 739 2883.69 739H2860.09V727ZM2890.89 695.2V615H2877.49C2873.75 615 2870.55 616.267 2867.89 618.8C2865.22 621.333 2863.89 624.467 2863.89 628.2V682C2863.89 685.733 2865.22 688.867 2867.89 691.4C2870.55 693.933 2873.75 695.2 2877.49 695.2H2890.89Z" fill="white"/>
<path d="M1515.42 870C1507.53 870 1501.42 868.007 1497.09 864.02C1492.76 860.033 1490.59 854.183 1490.59 846.47V802.53C1490.59 794.817 1492.76 788.967 1497.09 784.98C1501.42 780.993 1507.53 779 1515.42 779H1532.84V787.58H1515.42C1511.43 787.58 1508.18 788.75 1505.67 791.09C1503.24 793.343 1502.03 796.377 1502.03 800.19V848.81C1502.03 852.623 1503.24 855.7 1505.67 858.04C1508.18 860.293 1511.43 861.42 1515.42 861.42H1532.84V870H1515.42ZM1559.71 870.91C1553.64 870.91 1548.92 869.393 1545.54 866.36C1542.25 863.24 1540.6 858.95 1540.6 853.49V818.91C1540.6 813.45 1542.25 809.203 1545.54 806.17C1548.92 803.05 1553.64 801.49 1559.71 801.49C1565.78 801.49 1570.46 803.05 1573.75 806.17C1577.13 809.203 1578.82 813.45 1578.82 818.91V853.49C1578.82 858.95 1577.13 863.24 1573.75 866.36C1570.46 869.393 1565.78 870.91 1559.71 870.91ZM1559.71 862.85C1562.48 862.85 1564.65 862.07 1566.21 860.51C1567.86 858.863 1568.68 856.523 1568.68 853.49V818.91C1568.68 815.877 1567.86 813.58 1566.21 812.02C1564.65 810.373 1562.48 809.55 1559.71 809.55C1556.94 809.55 1554.73 810.373 1553.08 812.02C1551.52 813.58 1550.74 815.877 1550.74 818.91V853.49C1550.74 856.523 1551.52 858.863 1553.08 860.51C1554.73 862.07 1556.94 862.85 1559.71 862.85ZM1591.82 802.4H1599.88L1601.05 806.17L1606.38 804.61C1610.02 803.483 1612.88 802.703 1614.96 802.27C1617.13 801.75 1619.17 801.49 1621.07 801.49C1624.8 801.49 1627.4 803.137 1628.87 806.43C1631.3 805.563 1634.72 804.523 1639.14 803.31C1643.56 802.097 1646.81 801.49 1648.89 801.49C1652.01 801.49 1654.31 802.573 1655.78 804.74C1657.34 806.907 1658.12 809.723 1658.12 813.19V870H1647.72V816.57C1647.72 814.057 1647.55 812.323 1647.2 811.37C1646.86 810.33 1645.99 809.81 1644.6 809.81C1643.91 809.81 1639.14 811.197 1630.3 813.97V870H1619.9V816.57C1619.9 814.057 1619.73 812.323 1619.38 811.37C1619.04 810.33 1618.17 809.81 1616.78 809.81C1616.09 809.81 1611.24 811.197 1602.22 813.97V870H1591.82V802.4ZM1672.44 802.4H1693.5C1698.27 802.4 1702.3 803.96 1705.59 807.08C1708.97 810.2 1710.66 814.1 1710.66 818.78V853.75C1710.66 858.43 1709.01 862.33 1705.72 865.45C1702.43 868.483 1698.4 870 1693.63 870H1682.84V890.8H1672.44V802.4ZM1691.42 862.33C1693.85 862.33 1695.93 861.507 1697.66 859.86C1699.39 858.213 1700.26 856.177 1700.26 853.75V818.78C1700.26 816.353 1699.39 814.317 1697.66 812.67C1695.93 811.023 1693.85 810.2 1691.42 810.2H1682.84V862.33H1691.42ZM1730.9 870.91C1727.78 870.91 1725.44 869.827 1723.88 867.66C1722.4 865.493 1721.67 862.677 1721.67 859.21V802.4H1732.07V855.83C1732.07 858.257 1732.24 859.99 1732.59 861.03C1732.93 862.07 1733.76 862.59 1735.06 862.59C1735.66 862.59 1740.56 861.29 1749.75 858.69V802.4H1760.15V870H1752.74L1750.79 865.58C1749.4 866.1 1748.36 866.447 1747.67 866.62C1743.59 868.093 1740.3 869.177 1737.79 869.87C1735.27 870.563 1732.98 870.91 1730.9 870.91ZM1794.63 870C1789.86 870 1786.09 868.57 1783.32 865.71C1780.55 862.85 1779.16 858.993 1779.16 854.14V810.2H1771.36V802.4H1779.16V782.77L1789.56 778.87V802.4H1799.96V810.2H1789.56V855.05C1789.56 857.13 1790.12 858.863 1791.25 860.25C1792.46 861.55 1794.07 862.2 1796.06 862.2H1799.96V870H1794.63ZM1823.83 870C1819.06 870 1815.25 868.57 1812.39 865.71C1809.62 862.85 1808.23 858.993 1808.23 854.14V819.56C1808.23 813.927 1809.79 809.507 1812.91 806.3C1816.03 803.093 1820.67 801.49 1826.82 801.49C1832.97 801.49 1837.57 803.093 1840.6 806.3C1843.72 809.507 1845.28 813.927 1845.28 819.56V825.54C1845.28 829.18 1844.24 831.953 1842.16 833.86C1840.08 835.68 1837.35 837.067 1833.97 838.02L1818.63 842.31V855.05C1818.63 857.13 1819.24 858.863 1820.45 860.25C1821.75 861.55 1823.4 862.2 1825.39 862.2H1839.43V870H1823.83ZM1826.56 831.91C1829.42 831.13 1831.33 830.567 1832.28 830.22C1833.32 829.787 1834.01 829.18 1834.36 828.4C1834.71 827.62 1834.88 826.32 1834.88 824.5V817.35C1834.88 814.577 1834.14 812.54 1832.67 811.24C1831.28 809.94 1829.33 809.29 1826.82 809.29C1824.39 809.29 1822.4 809.983 1820.84 811.37C1819.37 812.757 1818.63 814.75 1818.63 817.35V834.12L1826.56 831.91ZM1855.63 802.4H1863.69L1864.86 807.21L1868.11 805.65C1870.89 804.263 1873.18 803.223 1875 802.53C1876.91 801.837 1878.82 801.49 1880.72 801.49V809.16C1879.6 809.16 1878.08 809.507 1876.17 810.2C1874.27 810.807 1870.89 812.28 1866.03 814.62V870H1855.63V802.4ZM1911.53 779H1934.15C1942.03 779 1948.14 780.993 1952.48 784.98C1956.81 788.967 1958.98 794.817 1958.98 802.53V846.47C1958.98 854.183 1956.81 860.033 1952.48 864.02C1948.14 867.92 1942.03 869.913 1934.15 870H1911.53V779ZM1934.15 861.16C1938.13 861.16 1941.34 860.033 1943.77 857.78C1946.28 855.44 1947.54 852.363 1947.54 848.55V800.45C1947.54 796.637 1946.28 793.603 1943.77 791.35C1941.34 789.01 1938.13 787.84 1934.15 787.84H1923.1V861.16H1934.15ZM1972.43 791.35V780.95H1982.83V791.35H1972.43ZM1972.43 870V802.4H1982.83V870H1972.43ZM1994.55 862.2H2005.6C2009.33 862.2 2012.02 861.203 2013.66 859.21C2015.4 857.13 2016.26 854.443 2016.26 851.15C2016.26 848.55 2015.48 846.34 2013.92 844.52C2012.36 842.7 2010.02 840.577 2006.9 838.15C2004.22 835.983 2002.05 834.12 2000.4 832.56C1998.84 830.913 1997.46 828.92 1996.24 826.58C1995.12 824.153 1994.55 821.38 1994.55 818.26C1994.55 813.667 1996.07 809.897 1999.1 806.95C2002.22 803.917 2006.38 802.4 2011.58 802.4H2022.89V810.2H2013.53C2007.38 810.2 2004.3 813.103 2004.3 818.91C2004.3 821.163 2005 823.113 2006.38 824.76C2007.77 826.407 2009.94 828.357 2012.88 830.61C2015.57 832.69 2017.78 834.597 2019.51 836.33C2021.25 837.977 2022.72 840.1 2023.93 842.7C2025.15 845.213 2025.75 848.203 2025.75 851.67C2025.75 857.823 2024.11 862.417 2020.81 865.45C2017.61 868.483 2013.06 870 2007.16 870H1994.55V862.2ZM2037.17 870V779H2047.57V829.96L2067.72 802.4H2077.47L2058.23 829.96L2078.38 870H2068.63L2052.12 835.94L2047.57 842.05V870H2037.17ZM2103.7 870.91C2097.64 870.91 2092.91 869.393 2089.53 866.36C2086.24 863.24 2084.59 858.95 2084.59 853.49V818.91C2084.59 813.45 2086.24 809.203 2089.53 806.17C2092.91 803.05 2097.64 801.49 2103.7 801.49C2109.77 801.49 2114.45 803.05 2117.74 806.17C2121.12 809.203 2122.81 813.45 2122.81 818.91V853.49C2122.81 858.95 2121.12 863.24 2117.74 866.36C2114.45 869.393 2109.77 870.91 2103.7 870.91ZM2103.7 862.85C2106.48 862.85 2108.64 862.07 2110.2 860.51C2111.85 858.863 2112.67 856.523 2112.67 853.49V818.91C2112.67 815.877 2111.85 813.58 2110.2 812.02C2108.64 810.373 2106.48 809.55 2103.7 809.55C2100.93 809.55 2098.72 810.373 2097.07 812.02C2095.51 813.58 2094.73 815.877 2094.73 818.91V853.49C2094.73 856.523 2095.51 858.863 2097.07 860.51C2098.72 862.07 2100.93 862.85 2103.7 862.85ZM2141.28 883H2154.67C2156.66 883 2158.22 882.307 2159.35 880.92C2160.56 879.62 2161.17 877.93 2161.17 875.85V870.13H2150.38C2145.61 870.13 2141.58 868.57 2138.29 865.45C2134.99 862.33 2133.35 858.43 2133.35 853.75V818.78C2133.35 814.1 2134.99 810.2 2138.29 807.08C2141.67 803.96 2145.74 802.4 2150.51 802.4H2171.7V874.94C2171.7 879.793 2170.35 883.65 2167.67 886.51C2165.07 889.37 2161.38 890.8 2156.62 890.8H2141.28V883ZM2161.3 862.33V810.2H2152.59C2150.16 810.2 2148.08 811.023 2146.35 812.67C2144.61 814.317 2143.75 816.353 2143.75 818.78V853.75C2143.75 856.177 2144.61 858.213 2146.35 859.86C2148.08 861.507 2150.16 862.33 2152.59 862.33H2161.3ZM2185.96 802.4H2194.02L2195.19 807.21L2198.44 805.65C2201.22 804.263 2203.51 803.223 2205.33 802.53C2207.24 801.837 2209.15 801.49 2211.05 801.49V809.16C2209.93 809.16 2208.41 809.507 2206.5 810.2C2204.6 810.807 2201.22 812.28 2196.36 814.62V870H2185.96V802.4ZM2234.53 870C2231.41 870 2228.51 869.22 2225.82 867.66C2223.22 866.1 2221.14 863.977 2219.58 861.29C2218.11 858.603 2217.37 855.57 2217.37 852.19V845.43C2217.37 841.357 2218.37 837.933 2220.36 835.16C2222.44 832.387 2225 830.437 2228.03 829.31L2244.15 823.33V817.22C2244.15 815.14 2243.5 813.45 2242.2 812.15C2240.99 810.763 2239.38 810.07 2237.39 810.07H2222.7V802.4H2238.3C2243.07 802.4 2246.84 803.83 2249.61 806.69C2252.47 809.463 2253.9 813.277 2253.9 818.13V870H2234.53ZM2244.15 862.07V831.52L2232.71 835.81C2230.46 836.677 2228.85 837.847 2227.9 839.32C2227.03 840.793 2226.6 843.133 2226.6 846.34V853.62C2226.6 855.96 2227.47 857.953 2229.2 859.6C2230.93 861.247 2233.01 862.07 2235.44 862.07H2244.15ZM2268.23 802.4H2289.29C2294.06 802.4 2298.09 803.96 2301.38 807.08C2304.76 810.2 2306.45 814.1 2306.45 818.78V853.75C2306.45 858.43 2304.8 862.33 2301.51 865.45C2298.22 868.483 2294.19 870 2289.42 870H2278.63V890.8H2268.23V802.4ZM2287.21 862.33C2289.64 862.33 2291.72 861.507 2293.45 859.86C2295.18 858.213 2296.05 856.177 2296.05 853.75V818.78C2296.05 816.353 2295.18 814.317 2293.45 812.67C2291.72 811.023 2289.64 810.2 2287.21 810.2H2278.63V862.33H2287.21ZM2318.76 779H2329.16V805.91L2334.88 804.22C2338.43 803.18 2341.03 802.487 2342.68 802.14C2344.41 801.707 2346.19 801.49 2348.01 801.49C2351.13 801.49 2353.42 802.573 2354.9 804.74C2356.37 806.907 2357.11 809.723 2357.11 813.19V870H2346.71V816.57C2346.71 814.057 2346.53 812.323 2346.19 811.37C2345.84 810.33 2344.97 809.81 2343.59 809.81C2342.89 809.81 2338.08 811.197 2329.16 813.97V870H2318.76V779ZM2372.45 883H2376.48C2378.82 883 2380.94 881.873 2382.85 879.62C2384.76 877.453 2385.71 874.203 2385.71 869.87L2367.64 802.4H2378.43L2389.74 857.26L2398.84 802.4H2409.11L2393.25 877.8C2391.43 886.467 2386.4 890.8 2378.17 890.8H2372.45V883ZM2416.33 815.92V802.53H2426.73V815.92H2416.33ZM2416.33 870V856.61H2426.73V870H2416.33ZM2475.93 870.91C2469.86 870.91 2465.14 869.393 2461.76 866.36C2458.47 863.24 2456.82 858.95 2456.82 853.49V818.91C2456.82 813.45 2458.47 809.203 2461.76 806.17C2465.14 803.05 2469.86 801.49 2475.93 801.49C2482 801.49 2486.68 803.05 2489.97 806.17C2493.35 809.203 2495.04 813.45 2495.04 818.91V853.49C2495.04 858.95 2493.35 863.24 2489.97 866.36C2486.68 869.393 2482 870.91 2475.93 870.91ZM2475.93 862.85C2478.7 862.85 2480.87 862.07 2482.43 860.51C2484.08 858.863 2484.9 856.523 2484.9 853.49V818.91C2484.9 815.877 2484.08 813.58 2482.43 812.02C2480.87 810.373 2478.7 809.55 2475.93 809.55C2473.16 809.55 2470.95 810.373 2469.3 812.02C2467.74 813.58 2466.96 815.877 2466.96 818.91V853.49C2466.96 856.523 2467.74 858.863 2469.3 860.51C2470.95 862.07 2473.16 862.85 2475.93 862.85ZM2541.89 870C2537.13 870 2533.31 868.57 2530.45 865.71C2527.68 862.85 2526.29 858.993 2526.29 854.14V819.56C2526.29 814.1 2527.72 809.897 2530.58 806.95C2533.44 803.917 2537.6 802.4 2543.06 802.4H2557.49V810.2H2543.32C2541.33 810.2 2539.73 810.893 2538.51 812.28C2537.3 813.58 2536.69 815.27 2536.69 817.35V855.05C2536.69 857.13 2537.3 858.863 2538.51 860.25C2539.81 861.55 2541.46 862.2 2543.45 862.2H2557.49V870H2541.89ZM2583.08 870.91C2577.01 870.91 2572.29 869.393 2568.91 866.36C2565.62 863.24 2563.97 858.95 2563.97 853.49V818.91C2563.97 813.45 2565.62 809.203 2568.91 806.17C2572.29 803.05 2577.01 801.49 2583.08 801.49C2589.15 801.49 2593.83 803.05 2597.12 806.17C2600.5 809.203 2602.19 813.45 2602.19 818.91V853.49C2602.19 858.95 2600.5 863.24 2597.12 866.36C2593.83 869.393 2589.15 870.91 2583.08 870.91ZM2583.08 862.85C2585.85 862.85 2588.02 862.07 2589.58 860.51C2591.23 858.863 2592.05 856.523 2592.05 853.49V818.91C2592.05 815.877 2591.23 813.58 2589.58 812.02C2588.02 810.373 2585.85 809.55 2583.08 809.55C2580.31 809.55 2578.1 810.373 2576.45 812.02C2574.89 813.58 2574.11 815.877 2574.11 818.91V853.49C2574.11 856.523 2574.89 858.863 2576.45 860.51C2578.1 862.07 2580.31 862.85 2583.08 862.85ZM2615.19 802.4H2623.25L2624.42 806.17L2629.75 804.61C2633.39 803.483 2636.25 802.703 2638.33 802.27C2640.5 801.75 2642.54 801.49 2644.44 801.49C2647.56 801.49 2649.86 802.573 2651.33 804.74C2652.81 806.907 2653.54 809.723 2653.54 813.19V870H2643.14V816.57C2643.14 814.057 2642.97 812.323 2642.62 811.37C2642.28 810.33 2641.41 809.81 2640.02 809.81C2639.33 809.81 2634.52 811.197 2625.59 813.97V870H2615.19V802.4ZM2682.31 870C2677.54 870 2673.73 868.57 2670.87 865.71C2668.09 862.85 2666.71 858.993 2666.71 854.14V819.56C2666.71 814.1 2668.14 809.897 2671 806.95C2673.86 803.917 2678.02 802.4 2683.48 802.4H2697.91V810.2H2683.74C2681.74 810.2 2680.14 810.893 2678.93 812.28C2677.71 813.58 2677.11 815.27 2677.11 817.35V855.05C2677.11 857.13 2677.71 858.863 2678.93 860.25C2680.23 861.55 2681.87 862.2 2683.87 862.2H2697.91V870H2682.31ZM2720.5 870C2715.73 870 2711.92 868.57 2709.06 865.71C2706.29 862.85 2704.9 858.993 2704.9 854.14V819.56C2704.9 813.927 2706.46 809.507 2709.58 806.3C2712.7 803.093 2717.34 801.49 2723.49 801.49C2729.64 801.49 2734.24 803.093 2737.27 806.3C2740.39 809.507 2741.95 813.927 2741.95 819.56V825.54C2741.95 829.18 2740.91 831.953 2738.83 833.86C2736.75 835.68 2734.02 837.067 2730.64 838.02L2715.3 842.31V855.05C2715.3 857.13 2715.91 858.863 2717.12 860.25C2718.42 861.55 2720.07 862.2 2722.06 862.2H2736.1V870H2720.5ZM2723.23 831.91C2726.09 831.13 2728 830.567 2728.95 830.22C2729.99 829.787 2730.68 829.18 2731.03 828.4C2731.38 827.62 2731.55 826.32 2731.55 824.5V817.35C2731.55 814.577 2730.81 812.54 2729.34 811.24C2727.95 809.94 2726 809.29 2723.49 809.29C2721.06 809.29 2719.07 809.983 2717.51 811.37C2716.04 812.757 2715.3 814.75 2715.3 817.35V834.12L2723.23 831.91ZM2752.3 791.35V780.95H2762.7V791.35H2752.3ZM2752.3 870V802.4H2762.7V870H2752.3ZM2797.18 870C2792.41 870 2788.64 868.57 2785.87 865.71C2783.09 862.85 2781.71 858.993 2781.71 854.14V810.2H2773.91V802.4H2781.71V782.77L2792.11 778.87V802.4H2802.51V810.2H2792.11V855.05C2792.11 857.13 2792.67 858.863 2793.8 860.25C2795.01 861.55 2796.61 862.2 2798.61 862.2H2802.51V870H2797.18ZM2829.37 870.91C2823.3 870.91 2818.58 869.393 2815.2 866.36C2811.91 863.24 2810.26 858.95 2810.26 853.49V818.91C2810.26 813.45 2811.91 809.203 2815.2 806.17C2818.58 803.05 2823.3 801.49 2829.37 801.49C2835.44 801.49 2840.12 803.05 2843.41 806.17C2846.79 809.203 2848.48 813.45 2848.48 818.91V853.49C2848.48 858.95 2846.79 863.24 2843.41 866.36C2840.12 869.393 2835.44 870.91 2829.37 870.91ZM2829.37 862.85C2832.14 862.85 2834.31 862.07 2835.87 860.51C2837.52 858.863 2838.34 856.523 2838.34 853.49V818.91C2838.34 815.877 2837.52 813.58 2835.87 812.02C2834.31 810.373 2832.14 809.55 2829.37 809.55C2826.6 809.55 2824.39 810.373 2822.74 812.02C2821.18 813.58 2820.4 815.877 2820.4 818.91V853.49C2820.4 856.523 2821.18 858.863 2822.74 860.51C2824.39 862.07 2826.6 862.85 2829.37 862.85ZM1509.96 1000C1504.5 1000 1500.08 998.397 1496.7 995.19C1493.32 991.983 1491.63 987.693 1491.63 982.32V949.95C1491.63 946.223 1492.63 943.06 1494.62 940.46C1496.7 937.86 1499.26 936.083 1502.29 935.13L1519.71 929.02V909H1530.11V1000H1509.96ZM1519.71 992.2V937.6L1508.14 941.5C1505.89 942.193 1504.28 943.32 1503.33 944.88C1502.46 946.353 1502.03 948.737 1502.03 952.03V982.32C1502.03 985.44 1502.94 987.867 1504.76 989.6C1506.58 991.333 1509.05 992.2 1512.17 992.2H1519.71ZM1559.26 1000C1554.49 1000 1550.68 998.57 1547.82 995.71C1545.05 992.85 1543.66 988.993 1543.66 984.14V949.56C1543.66 943.927 1545.22 939.507 1548.34 936.3C1551.46 933.093 1556.1 931.49 1562.25 931.49C1568.4 931.49 1573 933.093 1576.03 936.3C1579.15 939.507 1580.71 943.927 1580.71 949.56V955.54C1580.71 959.18 1579.67 961.953 1577.59 963.86C1575.51 965.68 1572.78 967.067 1569.4 968.02L1554.06 972.31V985.05C1554.06 987.13 1554.67 988.863 1555.88 990.25C1557.18 991.55 1558.83 992.2 1560.82 992.2H1574.86V1000H1559.26ZM1561.99 961.91C1564.85 961.13 1566.76 960.567 1567.71 960.22C1568.75 959.787 1569.44 959.18 1569.79 958.4C1570.14 957.62 1570.31 956.32 1570.31 954.5V947.35C1570.31 944.577 1569.57 942.54 1568.1 941.24C1566.71 939.94 1564.76 939.29 1562.25 939.29C1559.82 939.29 1557.83 939.983 1556.27 941.37C1554.8 942.757 1554.06 944.75 1554.06 947.35V964.12L1561.99 961.91ZM1610.74 1000V909H1621.14V1000H1610.74ZM1636.64 921.35V910.95H1647.04V921.35H1636.64ZM1636.64 1000V932.4H1647.04V1000H1636.64ZM1672.28 1000L1656.81 932.4H1667.6L1677.61 986.87L1687.49 932.4H1698.28L1682.81 1000H1672.28ZM1707.99 932.4H1716.05L1717.22 937.21L1720.47 935.65C1723.24 934.263 1725.54 933.223 1727.36 932.53C1729.26 931.837 1731.17 931.49 1733.08 931.49V939.16C1731.95 939.16 1730.43 939.507 1728.53 940.2C1726.62 940.807 1723.24 942.28 1718.39 944.62V1000H1707.99V932.4ZM1759.28 1000.91C1753.21 1000.91 1748.49 999.393 1745.11 996.36C1741.82 993.24 1740.17 988.95 1740.17 983.49V948.91C1740.17 943.45 1741.82 939.203 1745.11 936.17C1748.49 933.05 1753.21 931.49 1759.28 931.49C1765.35 931.49 1770.03 933.05 1773.32 936.17C1776.7 939.203 1778.39 943.45 1778.39 948.91V983.49C1778.39 988.95 1776.7 993.24 1773.32 996.36C1770.03 999.393 1765.35 1000.91 1759.28 1000.91ZM1759.28 992.85C1762.05 992.85 1764.22 992.07 1765.78 990.51C1767.43 988.863 1768.25 986.523 1768.25 983.49V948.91C1768.25 945.877 1767.43 943.58 1765.78 942.02C1764.22 940.373 1762.05 939.55 1759.28 939.55C1756.51 939.55 1754.3 940.373 1752.65 942.02C1751.09 943.58 1750.31 945.877 1750.31 948.91V983.49C1750.31 986.523 1751.09 988.863 1752.65 990.51C1754.3 992.07 1756.51 992.85 1759.28 992.85ZM1787.49 992.2H1798.54C1802.27 992.2 1804.96 991.203 1806.6 989.21C1808.34 987.13 1809.2 984.443 1809.2 981.15C1809.2 978.55 1808.42 976.34 1806.86 974.52C1805.3 972.7 1802.96 970.577 1799.84 968.15C1797.16 965.983 1794.99 964.12 1793.34 962.56C1791.78 960.913 1790.4 958.92 1789.18 956.58C1788.06 954.153 1787.49 951.38 1787.49 948.26C1787.49 943.667 1789.01 939.897 1792.04 936.95C1795.16 933.917 1799.32 932.4 1804.52 932.4H1815.83V940.2H1806.47C1800.32 940.2 1797.24 943.103 1797.24 948.91C1797.24 951.163 1797.94 953.113 1799.32 954.76C1800.71 956.407 1802.88 958.357 1805.82 960.61C1808.51 962.69 1810.72 964.597 1812.45 966.33C1814.19 967.977 1815.66 970.1 1816.87 972.7C1818.09 975.213 1818.69 978.203 1818.69 981.67C1818.69 987.823 1817.05 992.417 1813.75 995.45C1810.55 998.483 1806 1000 1800.1 1000H1787.49V992.2ZM1863.44 1000C1858.67 1000 1854.86 998.57 1852 995.71C1849.23 992.85 1847.84 988.993 1847.84 984.14V949.56C1847.84 943.927 1849.4 939.507 1852.52 936.3C1855.64 933.093 1860.28 931.49 1866.43 931.49C1872.58 931.49 1877.18 933.093 1880.21 936.3C1883.33 939.507 1884.89 943.927 1884.89 949.56V955.54C1884.89 959.18 1883.85 961.953 1881.77 963.86C1879.69 965.68 1876.96 967.067 1873.58 968.02L1858.24 972.31V985.05C1858.24 987.13 1858.85 988.863 1860.06 990.25C1861.36 991.55 1863.01 992.2 1865 992.2H1879.04V1000H1863.44ZM1866.17 961.91C1869.03 961.13 1870.94 960.567 1871.89 960.22C1872.93 959.787 1873.62 959.18 1873.97 958.4C1874.32 957.62 1874.49 956.32 1874.49 954.5V947.35C1874.49 944.577 1873.75 942.54 1872.28 941.24C1870.89 939.94 1868.94 939.29 1866.43 939.29C1864 939.29 1862.01 939.983 1860.45 941.37C1858.98 942.757 1858.24 944.75 1858.24 947.35V964.12L1866.17 961.91ZM1895.24 932.4H1903.3L1904.47 936.17L1909.8 934.61C1913.44 933.483 1916.3 932.703 1918.38 932.27C1920.55 931.75 1922.58 931.49 1924.49 931.49C1928.22 931.49 1930.82 933.137 1932.29 936.43C1934.72 935.563 1938.14 934.523 1942.56 933.31C1946.98 932.097 1950.23 931.49 1952.31 931.49C1955.43 931.49 1957.73 932.573 1959.2 934.74C1960.76 936.907 1961.54 939.723 1961.54 943.19V1000H1951.14V946.57C1951.14 944.057 1950.97 942.323 1950.62 941.37C1950.27 940.33 1949.41 939.81 1948.02 939.81C1947.33 939.81 1942.56 941.197 1933.72 943.97V1000H1923.32V946.57C1923.32 944.057 1923.15 942.323 1922.8 941.37C1922.45 940.33 1921.59 939.81 1920.2 939.81C1919.51 939.81 1914.65 941.197 1905.64 943.97V1000H1895.24V932.4ZM2012.57 1000C2007.11 1000 2002.69 998.397 1999.31 995.19C1995.93 991.983 1994.24 987.693 1994.24 982.32V949.95C1994.24 946.223 1995.23 943.06 1997.23 940.46C1999.31 937.86 2001.86 936.083 2004.9 935.13L2022.32 929.02V909H2032.72V1000H2012.57ZM2022.32 992.2V937.6L2010.75 941.5C2008.49 942.193 2006.89 943.32 2005.94 944.88C2005.07 946.353 2004.64 948.737 2004.64 952.03V982.32C2004.64 985.44 2005.55 987.867 2007.37 989.6C2009.19 991.333 2011.66 992.2 2014.78 992.2H2022.32ZM2048.35 921.35V910.95H2058.75V921.35H2048.35ZM2048.35 1000V932.4H2058.75V1000H2048.35ZM2070.47 992.2H2081.52C2085.25 992.2 2087.94 991.203 2089.58 989.21C2091.32 987.13 2092.18 984.443 2092.18 981.15C2092.18 978.55 2091.4 976.34 2089.84 974.52C2088.28 972.7 2085.94 970.577 2082.82 968.15C2080.14 965.983 2077.97 964.12 2076.32 962.56C2074.76 960.913 2073.38 958.92 2072.16 956.58C2071.04 954.153 2070.47 951.38 2070.47 948.26C2070.47 943.667 2071.99 939.897 2075.02 936.95C2078.14 933.917 2082.3 932.4 2087.5 932.4H2098.81V940.2H2089.45C2083.3 940.2 2080.22 943.103 2080.22 948.91C2080.22 951.163 2080.92 953.113 2082.3 954.76C2083.69 956.407 2085.86 958.357 2088.8 960.61C2091.49 962.69 2093.7 964.597 2095.43 966.33C2097.17 967.977 2098.64 970.1 2099.85 972.7C2101.07 975.213 2101.67 978.203 2101.67 981.67C2101.67 987.823 2100.03 992.417 2096.73 995.45C2093.53 998.483 2088.98 1000 2083.08 1000H2070.47V992.2ZM2113.09 1000V909H2123.49V959.96L2143.64 932.4H2153.39L2134.15 959.96L2154.3 1000H2144.55L2128.04 965.94L2123.49 972.05V1000H2113.09ZM2176.63 1000C2171.87 1000 2168.05 998.57 2165.19 995.71C2162.42 992.85 2161.03 988.993 2161.03 984.14V949.56C2161.03 943.927 2162.59 939.507 2165.71 936.3C2168.83 933.093 2173.47 931.49 2179.62 931.49C2185.78 931.49 2190.37 933.093 2193.4 936.3C2196.52 939.507 2198.08 943.927 2198.08 949.56V955.54C2198.08 959.18 2197.04 961.953 2194.96 963.86C2192.88 965.68 2190.15 967.067 2186.77 968.02L2171.43 972.31V985.05C2171.43 987.13 2172.04 988.863 2173.25 990.25C2174.55 991.55 2176.2 992.2 2178.19 992.2H2192.23V1000H2176.63ZM2179.36 961.91C2182.22 961.13 2184.13 960.567 2185.08 960.22C2186.12 959.787 2186.82 959.18 2187.16 958.4C2187.51 957.62 2187.68 956.32 2187.68 954.5V947.35C2187.68 944.577 2186.95 942.54 2185.47 941.24C2184.09 939.94 2182.14 939.29 2179.62 939.29C2177.2 939.29 2175.2 939.983 2173.64 941.37C2172.17 942.757 2171.43 944.75 2171.43 947.35V964.12L2179.36 961.91ZM2227.28 1000C2222.52 1000 2218.75 998.57 2215.97 995.71C2213.2 992.85 2211.81 988.993 2211.81 984.14V940.2H2204.01V932.4H2211.81V912.77L2222.21 908.87V932.4H2232.61V940.2H2222.21V985.05C2222.21 987.13 2222.78 988.863 2223.9 990.25C2225.12 991.55 2226.72 992.2 2228.71 992.2H2232.61V1000H2227.28ZM2261.82 1000C2257.05 1000 2253.28 998.57 2250.51 995.71C2247.73 992.85 2246.35 988.993 2246.35 984.14V940.2H2238.55V932.4H2246.35V912.77L2256.75 908.87V932.4H2267.15V940.2H2256.75V985.05C2256.75 987.13 2257.31 988.863 2258.44 990.25C2259.65 991.55 2261.25 992.2 2263.25 992.2H2267.15V1000H2261.82ZM2291.02 1000C2286.25 1000 2282.44 998.57 2279.58 995.71C2276.8 992.85 2275.42 988.993 2275.42 984.14V949.56C2275.42 943.927 2276.98 939.507 2280.1 936.3C2283.22 933.093 2287.85 931.49 2294.01 931.49C2300.16 931.49 2304.75 933.093 2307.79 936.3C2310.91 939.507 2312.47 943.927 2312.47 949.56V955.54C2312.47 959.18 2311.43 961.953 2309.35 963.86C2307.27 965.68 2304.54 967.067 2301.16 968.02L2285.82 972.31V985.05C2285.82 987.13 2286.42 988.863 2287.64 990.25C2288.94 991.55 2290.58 992.2 2292.58 992.2H2306.62V1000H2291.02ZM2293.75 961.91C2296.61 961.13 2298.51 960.567 2299.47 960.22C2300.51 959.787 2301.2 959.18 2301.55 958.4C2301.89 957.62 2302.07 956.32 2302.07 954.5V947.35C2302.07 944.577 2301.33 942.54 2299.86 941.24C2298.47 939.94 2296.52 939.29 2294.01 939.29C2291.58 939.29 2289.59 939.983 2288.03 941.37C2286.55 942.757 2285.82 944.75 2285.82 947.35V964.12L2293.75 961.91ZM2318.92 992.2H2329.97C2333.7 992.2 2336.38 991.203 2338.03 989.21C2339.76 987.13 2340.63 984.443 2340.63 981.15C2340.63 978.55 2339.85 976.34 2338.29 974.52C2336.73 972.7 2334.39 970.577 2331.27 968.15C2328.58 965.983 2326.42 964.12 2324.77 962.56C2323.21 960.913 2321.82 958.92 2320.61 956.58C2319.48 954.153 2318.92 951.38 2318.92 948.26C2318.92 943.667 2320.44 939.897 2323.47 936.95C2326.59 933.917 2330.75 932.4 2335.95 932.4H2347.26V940.2H2337.9C2331.75 940.2 2328.67 943.103 2328.67 948.91C2328.67 951.163 2329.36 953.113 2330.75 954.76C2332.14 956.407 2334.3 958.357 2337.25 960.61C2339.94 962.69 2342.15 964.597 2343.88 966.33C2345.61 967.977 2347.09 970.1 2348.3 972.7C2349.51 975.213 2350.12 978.203 2350.12 981.67C2350.12 987.823 2348.47 992.417 2345.18 995.45C2341.97 998.483 2337.42 1000 2331.53 1000H2318.92V992.2ZM2353.86 1015.99L2359.45 1000V986.61H2369.85V999.87L2361.92 1015.99H2353.86ZM2425.23 1000H2414.44C2409.67 1000 2405.64 998.483 2402.35 995.45C2399.06 992.33 2397.41 988.43 2397.41 983.75V948.78C2397.41 944.1 2399.06 940.2 2402.35 937.08C2405.73 933.96 2409.8 932.4 2414.57 932.4H2435.76V1020.8H2425.23V1000ZM2425.36 992.2V940.2H2416.65C2414.22 940.2 2412.14 941.023 2410.41 942.67C2408.68 944.317 2407.81 946.353 2407.81 948.78V983.62C2407.81 986.047 2408.68 988.083 2410.41 989.73C2412.14 991.377 2414.22 992.2 2416.65 992.2H2425.36ZM2459.35 1000.91C2456.23 1000.91 2453.89 999.827 2452.33 997.66C2450.86 995.493 2450.12 992.677 2450.12 989.21V932.4H2460.52V985.83C2460.52 988.257 2460.7 989.99 2461.04 991.03C2461.39 992.07 2462.21 992.59 2463.51 992.59C2464.12 992.59 2469.02 991.29 2478.2 988.69V932.4H2488.6V1000H2481.19L2479.24 995.58C2477.86 996.1 2476.82 996.447 2476.12 996.62C2472.05 998.093 2468.76 999.177 2466.24 999.87C2463.73 1000.56 2461.43 1000.91 2459.35 1000.91ZM2517.76 1000C2512.99 1000 2509.18 998.57 2506.32 995.71C2503.54 992.85 2502.16 988.993 2502.16 984.14V949.56C2502.16 943.927 2503.72 939.507 2506.84 936.3C2509.96 933.093 2514.59 931.49 2520.75 931.49C2526.9 931.49 2531.49 933.093 2534.53 936.3C2537.65 939.507 2539.21 943.927 2539.21 949.56V955.54C2539.21 959.18 2538.17 961.953 2536.09 963.86C2534.01 965.68 2531.28 967.067 2527.9 968.02L2512.56 972.31V985.05C2512.56 987.13 2513.16 988.863 2514.38 990.25C2515.68 991.55 2517.32 992.2 2519.32 992.2H2533.36V1000H2517.76ZM2520.49 961.91C2523.35 961.13 2525.25 960.567 2526.21 960.22C2527.25 959.787 2527.94 959.18 2528.29 958.4C2528.63 957.62 2528.81 956.32 2528.81 954.5V947.35C2528.81 944.577 2528.07 942.54 2526.6 941.24C2525.21 939.94 2523.26 939.29 2520.75 939.29C2518.32 939.29 2516.33 939.983 2514.77 941.37C2513.29 942.757 2512.56 944.75 2512.56 947.35V964.12L2520.49 961.91ZM2569.11 932.4H2590.17C2594.94 932.4 2598.97 933.96 2602.26 937.08C2605.64 940.2 2607.33 944.1 2607.33 948.78V983.75C2607.33 988.43 2605.68 992.33 2602.39 995.45C2599.1 998.483 2595.07 1000 2590.3 1000H2579.51V1020.8H2569.11V932.4ZM2588.09 992.33C2590.52 992.33 2592.6 991.507 2594.33 989.86C2596.06 988.213 2596.93 986.177 2596.93 983.75V948.78C2596.93 946.353 2596.06 944.317 2594.33 942.67C2592.6 941.023 2590.52 940.2 2588.09 940.2H2579.51V992.33H2588.09ZM2633.16 1000C2628.39 1000 2624.58 998.57 2621.72 995.71C2618.94 992.85 2617.56 988.993 2617.56 984.14V949.56C2617.56 943.927 2619.12 939.507 2622.24 936.3C2625.36 933.093 2629.99 931.49 2636.15 931.49C2642.3 931.49 2646.89 933.093 2649.93 936.3C2653.05 939.507 2654.61 943.927 2654.61 949.56V955.54C2654.61 959.18 2653.57 961.953 2651.49 963.86C2649.41 965.68 2646.68 967.067 2643.3 968.02L2627.96 972.31V985.05C2627.96 987.13 2628.56 988.863 2629.78 990.25C2631.08 991.55 2632.72 992.2 2634.72 992.2H2648.76V1000H2633.16ZM2635.89 961.91C2638.75 961.13 2640.65 960.567 2641.61 960.22C2642.65 959.787 2643.34 959.18 2643.69 958.4C2644.03 957.62 2644.21 956.32 2644.21 954.5V947.35C2644.21 944.577 2643.47 942.54 2642 941.24C2640.61 939.94 2638.66 939.29 2636.15 939.29C2633.72 939.29 2631.73 939.983 2630.17 941.37C2628.69 942.757 2627.96 944.75 2627.96 947.35V964.12L2635.89 961.91ZM2664.96 932.4H2673.02L2674.19 937.21L2677.44 935.65C2680.21 934.263 2682.51 933.223 2684.33 932.53C2686.23 931.837 2688.14 931.49 2690.05 931.49V939.16C2688.92 939.16 2687.4 939.507 2685.5 940.2C2683.59 940.807 2680.21 942.28 2675.36 944.62V1000H2664.96V932.4ZM2699.74 932.4H2707.8L2708.97 936.17L2714.3 934.61C2717.94 933.483 2720.8 932.703 2722.88 932.27C2725.05 931.75 2727.09 931.49 2728.99 931.49C2732.72 931.49 2735.32 933.137 2736.79 936.43C2739.22 935.563 2742.64 934.523 2747.06 933.31C2751.48 932.097 2754.73 931.49 2756.81 931.49C2759.93 931.49 2762.23 932.573 2763.7 934.74C2765.26 936.907 2766.04 939.723 2766.04 943.19V1000H2755.64V946.57C2755.64 944.057 2755.47 942.323 2755.12 941.37C2754.78 940.33 2753.91 939.81 2752.52 939.81C2751.83 939.81 2747.06 941.197 2738.22 943.97V1000H2727.82V946.57C2727.82 944.057 2727.65 942.323 2727.3 941.37C2726.96 940.33 2726.09 939.81 2724.7 939.81C2724.01 939.81 2719.16 941.197 2710.14 943.97V1000H2699.74V932.4ZM2793.88 1000C2789.11 1000 2785.3 998.57 2782.44 995.71C2779.67 992.85 2778.28 988.993 2778.28 984.14V949.56C2778.28 943.927 2779.84 939.507 2782.96 936.3C2786.08 933.093 2790.72 931.49 2796.87 931.49C2803.02 931.49 2807.62 933.093 2810.65 936.3C2813.77 939.507 2815.33 943.927 2815.33 949.56V955.54C2815.33 959.18 2814.29 961.953 2812.21 963.86C2810.13 965.68 2807.4 967.067 2804.02 968.02L2788.68 972.31V985.05C2788.68 987.13 2789.29 988.863 2790.5 990.25C2791.8 991.55 2793.45 992.2 2795.44 992.2H2809.48V1000H2793.88ZM2796.61 961.91C2799.47 961.13 2801.38 960.567 2802.33 960.22C2803.37 959.787 2804.06 959.18 2804.41 958.4C2804.76 957.62 2804.93 956.32 2804.93 954.5V947.35C2804.93 944.577 2804.19 942.54 2802.72 941.24C2801.33 939.94 2799.38 939.29 2796.87 939.29C2794.44 939.29 2792.45 939.983 2790.89 941.37C2789.42 942.757 2788.68 944.75 2788.68 947.35V964.12L2796.61 961.91ZM2842.19 1000.91C2836.12 1000.91 2831.4 999.393 2828.02 996.36C2824.73 993.24 2823.08 988.95 2823.08 983.49V948.91C2823.08 943.45 2824.73 939.203 2828.02 936.17C2831.4 933.05 2836.12 931.49 2842.19 931.49C2848.26 931.49 2852.94 933.05 2856.23 936.17C2859.61 939.203 2861.3 943.45 2861.3 948.91V983.49C2861.3 988.95 2859.61 993.24 2856.23 996.36C2852.94 999.393 2848.26 1000.91 2842.19 1000.91ZM2842.19 992.85C2844.96 992.85 2847.13 992.07 2848.69 990.51C2850.34 988.863 2851.16 986.523 2851.16 983.49V948.91C2851.16 945.877 2850.34 943.58 2848.69 942.02C2847.13 940.373 2844.96 939.55 2842.19 939.55C2839.42 939.55 2837.21 940.373 2835.56 942.02C2834 943.58 2833.22 945.877 2833.22 948.91V983.49C2833.22 986.523 2834 988.863 2835.56 990.51C2837.21 992.07 2839.42 992.85 2842.19 992.85ZM2882.23 1000.91C2879.11 1000.91 2876.77 999.827 2875.21 997.66C2873.74 995.493 2873 992.677 2873 989.21V932.4H2883.4V985.83C2883.4 988.257 2883.58 989.99 2883.92 991.03C2884.27 992.07 2885.09 992.59 2886.39 992.59C2887 992.59 2891.9 991.29 2901.08 988.69V932.4H2911.48V1000H2904.07L2902.12 995.58C2900.74 996.1 2899.7 996.447 2899 996.62C2894.93 998.093 2891.64 999.177 2889.12 999.87C2886.61 1000.56 2884.31 1000.91 2882.23 1000.91ZM1506.58 1130C1503.46 1130 1500.56 1129.22 1497.87 1127.66C1495.27 1126.1 1493.19 1123.98 1491.63 1121.29C1490.16 1118.6 1489.42 1115.57 1489.42 1112.19V1105.43C1489.42 1101.36 1490.42 1097.93 1492.41 1095.16C1494.49 1092.39 1497.05 1090.44 1500.08 1089.31L1516.2 1083.33V1077.22C1516.2 1075.14 1515.55 1073.45 1514.25 1072.15C1513.04 1070.76 1511.43 1070.07 1509.44 1070.07H1494.75V1062.4H1510.35C1515.12 1062.4 1518.89 1063.83 1521.66 1066.69C1524.52 1069.46 1525.95 1073.28 1525.95 1078.13V1130H1506.58ZM1516.2 1122.07V1091.52L1504.76 1095.81C1502.51 1096.68 1500.9 1097.85 1499.95 1099.32C1499.08 1100.79 1498.65 1103.13 1498.65 1106.34V1113.62C1498.65 1115.96 1499.52 1117.95 1501.25 1119.6C1502.98 1121.25 1505.06 1122.07 1507.49 1122.07H1516.2ZM1536.38 1122.2H1547.43C1551.16 1122.2 1553.84 1121.2 1555.49 1119.21C1557.22 1117.13 1558.09 1114.44 1558.09 1111.15C1558.09 1108.55 1557.31 1106.34 1555.75 1104.52C1554.19 1102.7 1551.85 1100.58 1548.73 1098.15C1546.04 1095.98 1543.88 1094.12 1542.23 1092.56C1540.67 1090.91 1539.28 1088.92 1538.07 1086.58C1536.94 1084.15 1536.38 1081.38 1536.38 1078.26C1536.38 1073.67 1537.9 1069.9 1540.93 1066.95C1544.05 1063.92 1548.21 1062.4 1553.41 1062.4H1564.72V1070.2H1555.36C1549.21 1070.2 1546.13 1073.1 1546.13 1078.91C1546.13 1081.16 1546.82 1083.11 1548.21 1084.76C1549.6 1086.41 1551.76 1088.36 1554.71 1090.61C1557.4 1092.69 1559.61 1094.6 1561.34 1096.33C1563.07 1097.98 1564.55 1100.1 1565.76 1102.7C1566.97 1105.21 1567.58 1108.2 1567.58 1111.67C1567.58 1117.82 1565.93 1122.42 1562.64 1125.45C1559.43 1128.48 1554.88 1130 1548.99 1130H1536.38V1122.2ZM1615.97 1130C1610.51 1130 1606.09 1128.4 1602.71 1125.19C1599.33 1121.98 1597.64 1117.69 1597.64 1112.32V1079.95C1597.64 1076.22 1598.63 1073.06 1600.63 1070.46C1602.71 1067.86 1605.26 1066.08 1608.3 1065.13L1625.72 1059.02V1039H1636.12V1130H1615.97ZM1625.72 1122.2V1067.6L1614.15 1071.5C1611.89 1072.19 1610.29 1073.32 1609.34 1074.88C1608.47 1076.35 1608.04 1078.74 1608.04 1082.03V1112.32C1608.04 1115.44 1608.95 1117.87 1610.77 1119.6C1612.59 1121.33 1615.06 1122.2 1618.18 1122.2H1625.72ZM1666.05 1057.33L1661.76 1053.43L1676.84 1040.56L1683.47 1046.67L1666.05 1057.33ZM1665.27 1130C1660.5 1130 1656.69 1128.57 1653.83 1125.71C1651.05 1122.85 1649.67 1118.99 1649.67 1114.14V1079.56C1649.67 1073.93 1651.23 1069.51 1654.35 1066.3C1657.47 1063.09 1662.1 1061.49 1668.26 1061.49C1674.41 1061.49 1679 1063.09 1682.04 1066.3C1685.16 1069.51 1686.72 1073.93 1686.72 1079.56V1085.54C1686.72 1089.18 1685.68 1091.95 1683.6 1093.86C1681.52 1095.68 1678.79 1097.07 1675.41 1098.02L1660.07 1102.31V1115.05C1660.07 1117.13 1660.67 1118.86 1661.89 1120.25C1663.19 1121.55 1664.83 1122.2 1666.83 1122.2H1680.87V1130H1665.27ZM1668 1091.91C1670.86 1091.13 1672.76 1090.57 1673.72 1090.22C1674.76 1089.79 1675.45 1089.18 1675.8 1088.4C1676.14 1087.62 1676.32 1086.32 1676.32 1084.5V1077.35C1676.32 1074.58 1675.58 1072.54 1674.11 1071.24C1672.72 1069.94 1670.77 1069.29 1668.26 1069.29C1665.83 1069.29 1663.84 1069.98 1662.28 1071.37C1660.8 1072.76 1660.07 1074.75 1660.07 1077.35V1094.12L1668 1091.91ZM1711.37 1130C1706.6 1130 1702.79 1128.57 1699.93 1125.71C1697.15 1122.85 1695.77 1118.99 1695.77 1114.14V1079.56C1695.77 1074.1 1697.2 1069.9 1700.06 1066.95C1702.92 1063.92 1707.08 1062.4 1712.54 1062.4H1726.97V1070.2H1712.8C1710.8 1070.2 1709.2 1070.89 1707.99 1072.28C1706.77 1073.58 1706.17 1075.27 1706.17 1077.35V1115.05C1706.17 1117.13 1706.77 1118.86 1707.99 1120.25C1709.29 1121.55 1710.93 1122.2 1712.93 1122.2H1726.97V1130H1711.37ZM1749.82 1130C1746.7 1130 1743.8 1129.22 1741.11 1127.66C1738.51 1126.1 1736.43 1123.98 1734.87 1121.29C1733.4 1118.6 1732.66 1115.57 1732.66 1112.19V1105.43C1732.66 1101.36 1733.66 1097.93 1735.65 1095.16C1737.73 1092.39 1740.29 1090.44 1743.32 1089.31L1759.44 1083.33V1077.22C1759.44 1075.14 1758.79 1073.45 1757.49 1072.15C1756.28 1070.76 1754.68 1070.07 1752.68 1070.07H1737.99V1062.4H1753.59C1758.36 1062.4 1762.13 1063.83 1764.9 1066.69C1767.76 1069.46 1769.19 1073.28 1769.19 1078.13V1130H1749.82ZM1759.44 1122.07V1091.52L1748 1095.81C1745.75 1096.68 1744.15 1097.85 1743.19 1099.32C1742.33 1100.79 1741.89 1103.13 1741.89 1106.34V1113.62C1741.89 1115.96 1742.76 1117.95 1744.49 1119.6C1746.23 1121.25 1748.31 1122.07 1750.73 1122.07H1759.44ZM1800.68 1130C1795.22 1130 1790.8 1128.4 1787.42 1125.19C1784.04 1121.98 1782.35 1117.69 1782.35 1112.32V1079.95C1782.35 1076.22 1783.35 1073.06 1785.34 1070.46C1787.42 1067.86 1789.98 1066.08 1793.01 1065.13L1810.43 1059.02V1039H1820.83V1130H1800.68ZM1810.43 1122.2V1067.6L1798.86 1071.5C1796.61 1072.19 1795.01 1073.32 1794.05 1074.88C1793.19 1076.35 1792.75 1078.74 1792.75 1082.03V1112.32C1792.75 1115.44 1793.66 1117.87 1795.48 1119.6C1797.3 1121.33 1799.77 1122.2 1802.89 1122.2H1810.43ZM1850.24 1130C1847.12 1130 1844.22 1129.22 1841.53 1127.66C1838.93 1126.1 1836.85 1123.98 1835.29 1121.29C1833.82 1118.6 1833.08 1115.57 1833.08 1112.19V1105.43C1833.08 1101.36 1834.08 1097.93 1836.07 1095.16C1838.15 1092.39 1840.71 1090.44 1843.74 1089.31L1859.86 1083.33V1077.22C1859.86 1075.14 1859.21 1073.45 1857.91 1072.15C1856.7 1070.76 1855.1 1070.07 1853.1 1070.07H1838.41V1062.4H1854.01C1858.78 1062.4 1862.55 1063.83 1865.32 1066.69C1868.18 1069.46 1869.61 1073.28 1869.61 1078.13V1130H1850.24ZM1859.86 1122.07V1091.52L1848.42 1095.81C1846.17 1096.68 1844.57 1097.85 1843.61 1099.32C1842.75 1100.79 1842.31 1103.13 1842.31 1106.34V1113.62C1842.31 1115.96 1843.18 1117.95 1844.91 1119.6C1846.65 1121.25 1848.73 1122.07 1851.15 1122.07H1859.86ZM1880.04 1122.2H1891.09C1894.82 1122.2 1897.51 1121.2 1899.15 1119.21C1900.89 1117.13 1901.75 1114.44 1901.75 1111.15C1901.75 1108.55 1900.97 1106.34 1899.41 1104.52C1897.85 1102.7 1895.51 1100.58 1892.39 1098.15C1889.71 1095.98 1887.54 1094.12 1885.89 1092.56C1884.33 1090.91 1882.95 1088.92 1881.73 1086.58C1880.61 1084.15 1880.04 1081.38 1880.04 1078.26C1880.04 1073.67 1881.56 1069.9 1884.59 1066.95C1887.71 1063.92 1891.87 1062.4 1897.07 1062.4H1908.38V1070.2H1899.02C1892.87 1070.2 1889.79 1073.1 1889.79 1078.91C1889.79 1081.16 1890.49 1083.11 1891.87 1084.76C1893.26 1086.41 1895.43 1088.36 1898.37 1090.61C1901.06 1092.69 1903.27 1094.6 1905 1096.33C1906.74 1097.98 1908.21 1100.1 1909.42 1102.7C1910.64 1105.21 1911.24 1108.2 1911.24 1111.67C1911.24 1117.82 1909.6 1122.42 1906.3 1125.45C1903.1 1128.48 1898.55 1130 1892.65 1130H1880.04V1122.2ZM1959.63 1130C1954.17 1130 1949.75 1128.4 1946.37 1125.19C1942.99 1121.98 1941.3 1117.69 1941.3 1112.32V1079.95C1941.3 1076.22 1942.29 1073.06 1944.29 1070.46C1946.37 1067.86 1948.92 1066.08 1951.96 1065.13L1969.38 1059.02V1039H1979.78V1130H1959.63ZM1969.38 1122.2V1067.6L1957.81 1071.5C1955.55 1072.19 1953.95 1073.32 1953 1074.88C1952.13 1076.35 1951.7 1078.74 1951.7 1082.03V1112.32C1951.7 1115.44 1952.61 1117.87 1954.43 1119.6C1956.25 1121.33 1958.72 1122.2 1961.84 1122.2H1969.38ZM2008.93 1130C2004.16 1130 2000.35 1128.57 1997.49 1125.71C1994.71 1122.85 1993.33 1118.99 1993.33 1114.14V1079.56C1993.33 1073.93 1994.89 1069.51 1998.01 1066.3C2001.13 1063.09 2005.76 1061.49 2011.92 1061.49C2018.07 1061.49 2022.66 1063.09 2025.7 1066.3C2028.82 1069.51 2030.38 1073.93 2030.38 1079.56V1085.54C2030.38 1089.18 2029.34 1091.95 2027.26 1093.86C2025.18 1095.68 2022.45 1097.07 2019.07 1098.02L2003.73 1102.31V1115.05C2003.73 1117.13 2004.33 1118.86 2005.55 1120.25C2006.85 1121.55 2008.49 1122.2 2010.49 1122.2H2024.53V1130H2008.93ZM2011.66 1091.91C2014.52 1091.13 2016.42 1090.57 2017.38 1090.22C2018.42 1089.79 2019.11 1089.18 2019.46 1088.4C2019.8 1087.62 2019.98 1086.32 2019.98 1084.5V1077.35C2019.98 1074.58 2019.24 1072.54 2017.77 1071.24C2016.38 1069.94 2014.43 1069.29 2011.92 1069.29C2009.49 1069.29 2007.5 1069.98 2005.94 1071.37C2004.46 1072.76 2003.73 1074.75 2003.73 1077.35V1094.12L2011.66 1091.91ZM2071.59 1130V1047.58H2060.28V1039H2083.03V1130H2071.59ZM2105.25 1121.42H2122.41C2126.05 1121.42 2128.78 1120.68 2130.6 1119.21C2132.42 1117.65 2133.33 1115.44 2133.33 1112.58V1091.78H2115.78C2104.43 1091.78 2098.75 1085.93 2098.75 1074.23V1055.12C2098.75 1049.66 2101 1045.46 2105.51 1042.51C2110.02 1039.56 2115.43 1038.09 2121.76 1038.09C2128 1038.09 2133.37 1039.61 2137.88 1042.64C2142.39 1045.59 2144.64 1049.79 2144.64 1055.25V1114.14C2144.64 1119.08 2142.73 1122.98 2138.92 1125.84C2135.19 1128.61 2129.73 1130 2122.54 1130H2105.25V1121.42ZM2133.33 1083.07V1054.73C2133.33 1051.87 2132.2 1049.83 2129.95 1048.62C2127.78 1047.32 2125.14 1046.67 2122.02 1046.67C2118.81 1046.67 2116.04 1047.28 2113.7 1048.49C2111.36 1049.7 2110.19 1051.74 2110.19 1054.6V1073.32C2110.19 1076.79 2110.75 1079.3 2111.88 1080.86C2113.01 1082.33 2115.35 1083.07 2118.9 1083.07H2133.33ZM2183.33 1130.78C2175.61 1130.78 2169.89 1129.39 2166.17 1126.62C2162.44 1123.85 2160.58 1119.9 2160.58 1114.79V1096.72C2160.58 1094.21 2161.27 1091.87 2162.66 1089.7C2164.13 1087.45 2166.12 1085.54 2168.64 1083.98C2166.64 1082.59 2165.04 1080.86 2163.83 1078.78C2162.7 1076.7 2162.14 1074.4 2162.14 1071.89V1055.12C2162.14 1049.92 2163.83 1045.8 2167.21 1042.77C2170.59 1039.65 2175.96 1038.09 2183.33 1038.09C2190.26 1038.09 2195.5 1039.65 2199.06 1042.77C2202.7 1045.89 2204.52 1050.01 2204.52 1055.12V1071.89C2204.52 1076.83 2202.26 1080.86 2197.76 1083.98C2200.18 1085.63 2202.09 1087.53 2203.48 1089.7C2204.86 1091.87 2205.56 1094.21 2205.56 1096.72V1114.79C2205.56 1119.73 2203.65 1123.63 2199.84 1126.49C2196.02 1129.35 2190.52 1130.78 2183.33 1130.78ZM2183.2 1079.04C2189.78 1079.04 2193.08 1076.18 2193.08 1070.46V1056.55C2193.08 1054.3 2192.86 1052.52 2192.43 1051.22C2192.08 1049.83 2191.21 1048.75 2189.83 1047.97C2188.53 1047.1 2186.45 1046.67 2183.59 1046.67C2179.51 1046.67 2176.83 1047.49 2175.53 1049.14C2174.23 1050.79 2173.58 1053.26 2173.58 1056.55L2173.71 1070.46C2173.71 1073.49 2174.4 1075.7 2175.79 1077.09C2177.17 1078.39 2179.64 1079.04 2183.2 1079.04ZM2183.07 1122.2C2186.62 1122.2 2189.35 1121.46 2191.26 1119.99C2193.16 1118.52 2194.12 1116.35 2194.12 1113.49V1098.28C2194.12 1095.25 2193.21 1092.82 2191.39 1091C2189.57 1089.18 2186.79 1088.27 2183.07 1088.27C2179.51 1088.27 2176.78 1089.22 2174.88 1091.13C2172.97 1092.95 2172.02 1095.33 2172.02 1098.28V1113.49C2172.02 1119.3 2175.7 1122.2 2183.07 1122.2ZM2243.22 1130.91C2236.81 1130.91 2231.56 1129.52 2227.49 1126.75C2223.5 1123.98 2221.51 1119.99 2221.51 1114.79V1052.91C2221.51 1047.8 2223.46 1044.07 2227.36 1041.73C2231.35 1039.3 2236.63 1038.09 2243.22 1038.09C2249.81 1038.09 2255.05 1039.3 2258.95 1041.73C2262.94 1044.07 2264.93 1047.8 2264.93 1052.91V1114.79C2264.93 1119.99 2262.89 1123.98 2258.82 1126.75C2254.83 1129.52 2249.63 1130.91 2243.22 1130.91ZM2243.09 1122.07C2250.02 1122.07 2253.49 1119.51 2253.49 1114.4V1055.12C2253.49 1049.83 2250.02 1047.19 2243.09 1047.19C2236.33 1047.19 2232.95 1049.83 2232.95 1055.12V1114.4C2232.95 1119.51 2236.33 1122.07 2243.09 1122.07ZM2275.47 1130L2311.09 1039H2321.75L2286.78 1130H2275.47ZM2339.1 1121.42H2356.26C2359.9 1121.42 2362.63 1120.68 2364.45 1119.21C2366.27 1117.65 2367.18 1115.44 2367.18 1112.58V1091.78H2349.63C2338.27 1091.78 2332.6 1085.93 2332.6 1074.23V1055.12C2332.6 1049.66 2334.85 1045.46 2339.36 1042.51C2343.86 1039.56 2349.28 1038.09 2355.61 1038.09C2361.85 1038.09 2367.22 1039.61 2371.73 1042.64C2376.23 1045.59 2378.49 1049.79 2378.49 1055.25V1114.14C2378.49 1119.08 2376.58 1122.98 2372.77 1125.84C2369.04 1128.61 2363.58 1130 2356.39 1130H2339.1V1121.42ZM2367.18 1083.07V1054.73C2367.18 1051.87 2366.05 1049.83 2363.8 1048.62C2361.63 1047.32 2358.99 1046.67 2355.87 1046.67C2352.66 1046.67 2349.89 1047.28 2347.55 1048.49C2345.21 1049.7 2344.04 1051.74 2344.04 1054.6V1073.32C2344.04 1076.79 2344.6 1079.3 2345.73 1080.86C2346.85 1082.33 2349.19 1083.07 2352.75 1083.07H2367.18ZM2416 1130.91C2409.59 1130.91 2404.35 1129.52 2400.27 1126.75C2396.29 1123.98 2394.29 1119.99 2394.29 1114.79V1052.91C2394.29 1047.8 2396.24 1044.07 2400.14 1041.73C2404.13 1039.3 2409.42 1038.09 2416 1038.09C2422.59 1038.09 2427.83 1039.3 2431.73 1041.73C2435.72 1044.07 2437.71 1047.8 2437.71 1052.91V1114.79C2437.71 1119.99 2435.68 1123.98 2431.6 1126.75C2427.62 1129.52 2422.42 1130.91 2416 1130.91ZM2415.87 1122.07C2422.81 1122.07 2426.27 1119.51 2426.27 1114.4V1055.12C2426.27 1049.83 2422.81 1047.19 2415.87 1047.19C2409.11 1047.19 2405.73 1049.83 2405.73 1055.12V1114.4C2405.73 1119.51 2409.11 1122.07 2415.87 1122.07Z" fill="white"/>
<path d="M1403 1182V564H872.299V1000.5H1221.5V738.599H1046.9V825.898H1134.2V913.197H959.599V651.299H1308.8V1087.8H785V1182H1403Z" fill="white"/>
</svg>
