<svg width="3745" height="1780" viewBox="0 0 3745 1780" fill="none" xmlns="http://www.w3.org/2000/svg">
<rect width="3745" height="1780" fill="black"/>
<path d="M1499.6 707V567H1517.2V707H1499.6ZM1543.88 603H1556.28L1558.08 608.8L1566.28 606.4C1571.88 604.667 1576.28 603.467 1579.48 602.8C1582.81 602 1585.94 601.6 1588.88 601.6C1593.68 601.6 1597.21 603.267 1599.48 606.6C1601.74 609.933 1602.88 614.267 1602.88 619.6V707H1586.88V624.8C1586.88 620.933 1586.61 618.267 1586.08 616.8C1585.54 615.2 1584.21 614.4 1582.08 614.4C1581.01 614.4 1573.61 616.533 1559.88 620.8V707H1543.88V603ZM1654.13 707C1646.79 707 1640.99 704.8 1636.73 700.4C1632.46 696 1630.33 690.067 1630.33 682.6V615H1618.33V603H1630.33V572.8L1646.33 566.8V603H1662.33V615H1646.33V684C1646.33 687.2 1647.19 689.867 1648.93 692C1650.79 694 1653.26 695 1656.33 695H1662.33V707H1654.13ZM1699.05 707C1691.72 707 1685.85 704.8 1681.45 700.4C1677.18 696 1675.05 690.067 1675.05 682.6V629.4C1675.05 620.733 1677.45 613.933 1682.25 609C1687.05 604.067 1694.18 601.6 1703.65 601.6C1713.12 601.6 1720.18 604.067 1724.85 609C1729.65 613.933 1732.05 620.733 1732.05 629.4V638.6C1732.05 644.2 1730.45 648.467 1727.25 651.4C1724.05 654.2 1719.85 656.333 1714.65 657.8L1691.05 664.4V684C1691.05 687.2 1691.98 689.867 1693.85 692C1695.85 694 1698.38 695 1701.45 695H1723.05V707H1699.05ZM1703.25 648.4C1707.65 647.2 1710.58 646.333 1712.05 645.8C1713.65 645.133 1714.72 644.2 1715.25 643C1715.78 641.8 1716.05 639.8 1716.05 637V626C1716.05 621.733 1714.92 618.6 1712.65 616.6C1710.52 614.6 1707.52 613.6 1703.65 613.6C1699.92 613.6 1696.85 614.667 1694.45 616.8C1692.18 618.933 1691.05 622 1691.05 626V651.8L1703.25 648.4ZM1747.98 603H1760.38L1762.18 610.4L1767.18 608C1771.44 605.867 1774.98 604.267 1777.78 603.2C1780.71 602.133 1783.64 601.6 1786.58 601.6V613.4C1784.84 613.4 1782.51 613.933 1779.58 615C1776.64 615.933 1771.44 618.2 1763.98 621.8V707H1747.98V603ZM1822.69 707C1817.89 707 1813.43 705.8 1809.29 703.4C1805.29 701 1802.09 697.733 1799.69 693.6C1797.43 689.467 1796.29 684.8 1796.29 679.6V669.2C1796.29 662.933 1797.83 657.667 1800.89 653.4C1804.09 649.133 1808.03 646.133 1812.69 644.4L1837.49 635.2V625.8C1837.49 622.6 1836.49 620 1834.49 618C1832.63 615.867 1830.16 614.8 1827.09 614.8H1804.49V603H1828.49C1835.83 603 1841.63 605.2 1845.89 609.6C1850.29 613.867 1852.49 619.733 1852.49 627.2V707H1822.69ZM1837.49 694.8V647.8L1819.89 654.4C1816.43 655.733 1813.96 657.533 1812.49 659.8C1811.16 662.067 1810.49 665.667 1810.49 670.6V681.8C1810.49 685.4 1811.83 688.467 1814.49 691C1817.16 693.533 1820.36 694.8 1824.09 694.8H1837.49ZM1896.54 707C1889.21 707 1883.34 704.8 1878.94 700.4C1874.67 696 1872.54 690.067 1872.54 682.6V629.4C1872.54 621 1874.74 614.533 1879.14 610C1883.54 605.333 1889.94 603 1898.34 603H1920.54V615H1898.74C1895.67 615 1893.21 616.067 1891.34 618.2C1889.47 620.2 1888.54 622.8 1888.54 626V684C1888.54 687.2 1889.47 689.867 1891.34 692C1893.34 694 1895.87 695 1898.94 695H1920.54V707H1896.54ZM1963.5 707C1956.17 707 1950.37 704.8 1946.1 700.4C1941.83 696 1939.7 690.067 1939.7 682.6V615H1927.7V603H1939.7V572.8L1955.7 566.8V603H1971.7V615H1955.7V684C1955.7 687.2 1956.57 689.867 1958.3 692C1960.17 694 1962.63 695 1965.7 695H1971.7V707H1963.5ZM1987.63 586V570H2003.63V586H1987.63ZM1987.63 707V603H2003.63V707H1987.63ZM2042.46 707L2018.66 603H2035.26L2050.66 686.8L2065.86 603H2082.46L2058.66 707H2042.46ZM2118.19 707C2110.86 707 2104.99 704.8 2100.59 700.4C2096.32 696 2094.19 690.067 2094.19 682.6V629.4C2094.19 620.733 2096.59 613.933 2101.39 609C2106.19 604.067 2113.32 601.6 2122.79 601.6C2132.26 601.6 2139.32 604.067 2143.99 609C2148.79 613.933 2151.19 620.733 2151.19 629.4V638.6C2151.19 644.2 2149.59 648.467 2146.39 651.4C2143.19 654.2 2138.99 656.333 2133.79 657.8L2110.19 664.4V684C2110.19 687.2 2111.12 689.867 2112.99 692C2114.99 694 2117.52 695 2120.59 695H2142.19V707H2118.19ZM2122.39 648.4C2126.79 647.2 2129.72 646.333 2131.19 645.8C2132.79 645.133 2133.86 644.2 2134.39 643C2134.92 641.8 2135.19 639.8 2135.19 637V626C2135.19 621.733 2134.06 618.6 2131.79 616.6C2129.66 614.6 2126.66 613.6 2122.79 613.6C2119.06 613.6 2115.99 614.667 2113.59 616.8C2111.32 618.933 2110.19 622 2110.19 626V651.8L2122.39 648.4ZM2197.4 693.8H2219.2C2226.8 693.8 2232.26 691.533 2235.6 687C2239.06 682.467 2240.8 676.867 2240.8 670.2C2240.8 665 2239.8 660.533 2237.8 656.8C2235.93 652.933 2233.6 649.733 2230.8 647.2C2228 644.667 2224.2 641.733 2219.4 638.4C2214.33 634.933 2210.2 631.8 2207 629C2203.93 626.067 2201.33 622.4 2199.2 618C2197.06 613.6 2196 608.333 2196 602.2C2196 591.533 2199.2 583 2205.6 576.6C2212 570.2 2220.86 567 2232.2 567H2248.4V580.2H2233C2226.6 580.2 2221.73 582.267 2218.4 586.4C2215.06 590.533 2213.4 595.333 2213.4 600.8C2213.4 606.133 2214.93 610.533 2218 614C2221.06 617.467 2225.73 621.4 2232 625.8C2237.73 629.933 2242.33 633.667 2245.8 637C2249.26 640.2 2252.2 644.467 2254.6 649.8C2257.13 655.133 2258.4 661.533 2258.4 669C2258.4 681.533 2254.8 691 2247.6 697.4C2240.53 703.8 2230.8 707 2218.4 707H2197.4V693.8ZM2304.32 707C2296.99 707 2291.19 704.8 2286.92 700.4C2282.65 696 2280.52 690.067 2280.52 682.6V615H2268.52V603H2280.52V572.8L2296.52 566.8V603H2312.52V615H2296.52V684C2296.52 687.2 2297.39 689.867 2299.12 692C2300.99 694 2303.45 695 2306.52 695H2312.52V707H2304.32ZM2353.85 708.4C2344.51 708.4 2337.25 706.067 2332.05 701.4C2326.98 696.6 2324.45 690 2324.45 681.6V628.4C2324.45 620 2326.98 613.467 2332.05 608.8C2337.25 604 2344.51 601.6 2353.85 601.6C2363.18 601.6 2370.38 604 2375.45 608.8C2380.65 613.467 2383.25 620 2383.25 628.4V681.6C2383.25 690 2380.65 696.6 2375.45 701.4C2370.38 706.067 2363.18 708.4 2353.85 708.4ZM2353.85 696C2358.11 696 2361.45 694.8 2363.85 692.4C2366.38 689.867 2367.65 686.267 2367.65 681.6V628.4C2367.65 623.733 2366.38 620.2 2363.85 617.8C2361.45 615.267 2358.11 614 2353.85 614C2349.58 614 2346.18 615.267 2343.65 617.8C2341.25 620.2 2340.05 623.733 2340.05 628.4V681.6C2340.05 686.267 2341.25 689.867 2343.65 692.4C2346.18 694.8 2349.58 696 2353.85 696ZM2403.25 603H2415.65L2417.45 610.4L2422.45 608C2426.72 605.867 2430.25 604.267 2433.05 603.2C2435.98 602.133 2438.92 601.6 2441.85 601.6V613.4C2440.12 613.4 2437.78 613.933 2434.85 615C2431.92 615.933 2426.72 618.2 2419.25 621.8V707H2403.25V603ZM2456.17 727H2462.37C2465.97 727 2469.23 725.267 2472.17 721.8C2475.1 718.467 2476.57 713.467 2476.57 706.8L2448.77 603H2465.37L2482.77 687.4L2496.77 603H2512.57L2488.17 719C2485.37 732.333 2477.63 739 2464.97 739H2456.17V727ZM2556.47 707C2549.14 707 2543.34 704.8 2539.07 700.4C2534.8 696 2532.67 690.067 2532.67 682.6V615H2520.67V603H2532.67V572.8L2548.67 566.8V603H2564.67V615H2548.67V684C2548.67 687.2 2549.54 689.867 2551.27 692C2553.14 694 2555.6 695 2558.67 695H2564.67V707H2556.47ZM2601.39 707C2594.06 707 2588.19 704.8 2583.79 700.4C2579.53 696 2577.39 690.067 2577.39 682.6V629.4C2577.39 620.733 2579.79 613.933 2584.59 609C2589.39 604.067 2596.53 601.6 2605.99 601.6C2615.46 601.6 2622.53 604.067 2627.19 609C2631.99 613.933 2634.39 620.733 2634.39 629.4V638.6C2634.39 644.2 2632.79 648.467 2629.59 651.4C2626.39 654.2 2622.19 656.333 2616.99 657.8L2593.39 664.4V684C2593.39 687.2 2594.33 689.867 2596.19 692C2598.19 694 2600.73 695 2603.79 695H2625.39V707H2601.39ZM2605.59 648.4C2609.99 647.2 2612.93 646.333 2614.39 645.8C2615.99 645.133 2617.06 644.2 2617.59 643C2618.13 641.8 2618.39 639.8 2618.39 637V626C2618.39 621.733 2617.26 618.6 2614.99 616.6C2612.86 614.6 2609.86 613.6 2605.99 613.6C2602.26 613.6 2599.19 614.667 2596.79 616.8C2594.53 618.933 2593.39 622 2593.39 626V651.8L2605.59 648.4ZM2650.52 707V567H2666.52V707H2650.52ZM2690.56 707V567H2706.56V707H2690.56ZM2730.4 586V570H2746.4V586H2730.4ZM2730.4 707V603H2746.4V707H2730.4ZM2770.44 603H2782.84L2784.64 608.8L2792.84 606.4C2798.44 604.667 2802.84 603.467 2806.04 602.8C2809.37 602 2812.5 601.6 2815.44 601.6C2820.24 601.6 2823.77 603.267 2826.04 606.6C2828.3 609.933 2829.44 614.267 2829.44 619.6V707H2813.44V624.8C2813.44 620.933 2813.17 618.267 2812.64 616.8C2812.1 615.2 2810.77 614.4 2808.64 614.4C2807.57 614.4 2800.17 616.533 2786.44 620.8V707H2770.44V603ZM2860.09 727H2880.69C2883.75 727 2886.15 725.933 2887.89 723.8C2889.75 721.8 2890.69 719.2 2890.69 716V707.2H2874.09C2866.75 707.2 2860.55 704.8 2855.49 700C2850.42 695.2 2847.89 689.2 2847.89 682V628.2C2847.89 621 2850.42 615 2855.49 610.2C2860.69 605.4 2866.95 603 2874.29 603H2906.89V714.6C2906.89 722.067 2904.82 728 2900.69 732.4C2896.69 736.8 2891.02 739 2883.69 739H2860.09V727ZM2890.89 695.2V615H2877.49C2873.75 615 2870.55 616.267 2867.89 618.8C2865.22 621.333 2863.89 624.467 2863.89 628.2V682C2863.89 685.733 2865.22 688.867 2867.89 691.4C2870.55 693.933 2873.75 695.2 2877.49 695.2H2890.89Z" fill="white"/>
<path d="M1487.6 870L1508.14 779H1525.43L1545.19 870H1534.53L1528.16 843.22H1504.5L1498.65 870H1487.6ZM1506.45 834.38H1526.21L1516.85 787.58H1515.94L1506.45 834.38ZM1575.19 802.4H1596.25C1601.02 802.4 1605.05 803.96 1608.34 807.08C1611.72 810.2 1613.41 814.1 1613.41 818.78V853.75C1613.41 858.43 1611.77 862.33 1608.47 865.45C1605.18 868.483 1601.15 870 1596.38 870H1585.59V890.8H1575.19V802.4ZM1594.17 862.33C1596.6 862.33 1598.68 861.507 1600.41 859.86C1602.15 858.213 1603.01 856.177 1603.01 853.75V818.78C1603.01 816.353 1602.15 814.317 1600.41 812.67C1598.68 811.023 1596.6 810.2 1594.17 810.2H1585.59V862.33H1594.17ZM1625.72 802.4H1633.78L1634.95 807.21L1638.2 805.65C1640.97 804.263 1643.27 803.223 1645.09 802.53C1647 801.837 1648.9 801.49 1650.81 801.49V809.16C1649.68 809.16 1648.17 809.507 1646.26 810.2C1644.35 810.807 1640.97 812.28 1636.12 814.62V870H1625.72V802.4ZM1677.02 870.91C1670.95 870.91 1666.23 869.393 1662.85 866.36C1659.55 863.24 1657.91 858.95 1657.91 853.49V818.91C1657.91 813.45 1659.55 809.203 1662.85 806.17C1666.23 803.05 1670.95 801.49 1677.02 801.49C1683.08 801.49 1687.76 803.05 1691.06 806.17C1694.44 809.203 1696.13 813.45 1696.13 818.91V853.49C1696.13 858.95 1694.44 863.24 1691.06 866.36C1687.76 869.393 1683.08 870.91 1677.02 870.91ZM1677.02 862.85C1679.79 862.85 1681.96 862.07 1683.52 860.51C1685.16 858.863 1685.99 856.523 1685.99 853.49V818.91C1685.99 815.877 1685.16 813.58 1683.52 812.02C1681.96 810.373 1679.79 809.55 1677.02 809.55C1674.24 809.55 1672.03 810.373 1670.39 812.02C1668.83 813.58 1668.05 815.877 1668.05 818.91V853.49C1668.05 856.523 1668.83 858.863 1670.39 860.51C1672.03 862.07 1674.24 862.85 1677.02 862.85ZM1709.13 802.4H1717.19L1718.36 806.17L1723.69 804.61C1727.33 803.483 1730.19 802.703 1732.27 802.27C1734.43 801.75 1736.47 801.49 1738.38 801.49C1742.1 801.49 1744.7 803.137 1746.18 806.43C1748.6 805.563 1752.03 804.523 1756.45 803.31C1760.87 802.097 1764.12 801.49 1766.2 801.49C1769.32 801.49 1771.61 802.573 1773.09 804.74C1774.65 806.907 1775.43 809.723 1775.43 813.19V870H1765.03V816.57C1765.03 814.057 1764.85 812.323 1764.51 811.37C1764.16 810.33 1763.29 809.81 1761.91 809.81C1761.21 809.81 1756.45 811.197 1747.61 813.97V870H1737.21V816.57C1737.21 814.057 1737.03 812.323 1736.69 811.37C1736.34 810.33 1735.47 809.81 1734.09 809.81C1733.39 809.81 1728.54 811.197 1719.53 813.97V870H1709.13V802.4ZM1806.25 870.91C1800.19 870.91 1795.46 869.393 1792.08 866.36C1788.79 863.24 1787.14 858.95 1787.14 853.49V818.91C1787.14 813.45 1788.79 809.203 1792.08 806.17C1795.46 803.05 1800.19 801.49 1806.25 801.49C1812.32 801.49 1817 803.05 1820.29 806.17C1823.67 809.203 1825.36 813.45 1825.36 818.91V853.49C1825.36 858.95 1823.67 863.24 1820.29 866.36C1817 869.393 1812.32 870.91 1806.25 870.91ZM1806.25 862.85C1809.03 862.85 1811.19 862.07 1812.75 860.51C1814.4 858.863 1815.22 856.523 1815.22 853.49V818.91C1815.22 815.877 1814.4 813.58 1812.75 812.02C1811.19 810.373 1809.03 809.55 1806.25 809.55C1803.48 809.55 1801.27 810.373 1799.62 812.02C1798.06 813.58 1797.28 815.877 1797.28 818.91V853.49C1797.28 856.523 1798.06 858.863 1799.62 860.51C1801.27 862.07 1803.48 862.85 1806.25 862.85ZM1859.3 874.16C1862.42 874.16 1864.8 874.723 1866.45 875.85C1868.09 876.977 1868.92 879.013 1868.92 881.96C1868.92 887.853 1865.54 890.8 1858.78 890.8H1844.87V884.69H1855.27C1857.26 884.69 1858.73 884.473 1859.69 884.04C1860.64 883.607 1861.12 882.87 1861.12 881.83C1861.12 880.703 1860.77 879.967 1860.08 879.62C1859.38 879.273 1858.26 879.1 1856.7 879.1H1849.94L1852.15 870H1852.67C1847.9 870 1844.09 868.57 1841.23 865.71C1838.45 862.85 1837.07 858.993 1837.07 854.14V819.56C1837.07 814.1 1838.5 809.897 1841.36 806.95C1844.22 803.917 1848.38 802.4 1853.84 802.4H1868.27V810.2H1854.1C1852.1 810.2 1850.5 810.893 1849.29 812.28C1848.07 813.58 1847.47 815.27 1847.47 817.35V855.05C1847.47 857.13 1848.07 858.863 1849.29 860.25C1850.59 861.55 1852.23 862.2 1854.23 862.2H1868.27V870H1860.21L1859.3 874.16ZM1874.35 795.9C1874.44 792 1875.17 789.053 1876.56 787.06C1877.95 784.98 1880.46 783.94 1884.1 783.94C1885.05 783.94 1887.87 784.633 1892.55 786.02C1897.14 787.493 1900.09 788.23 1901.39 788.23C1902.43 788.23 1903.12 787.927 1903.47 787.32C1903.82 786.627 1904.03 785.803 1904.12 784.85C1904.29 783.897 1904.42 783.16 1904.51 782.64H1912.7C1912.61 785.587 1912.4 787.97 1912.05 789.79C1911.7 791.523 1910.79 792.997 1909.32 794.21C1907.93 795.337 1905.81 795.9 1902.95 795.9C1901.65 795.9 1898.7 795.163 1894.11 793.69C1889.43 792.303 1886.61 791.61 1885.66 791.61C1884.53 791.61 1883.8 791.827 1883.45 792.26C1883.19 792.693 1882.97 793.3 1882.8 794.08C1882.71 794.86 1882.63 795.467 1882.54 795.9H1874.35ZM1891.12 870C1888 870 1885.1 869.22 1882.41 867.66C1879.81 866.1 1877.73 863.977 1876.17 861.29C1874.7 858.603 1873.96 855.57 1873.96 852.19V845.43C1873.96 841.357 1874.96 837.933 1876.95 835.16C1879.03 832.387 1881.59 830.437 1884.62 829.31L1900.74 823.33V817.22C1900.74 815.14 1900.09 813.45 1898.79 812.15C1897.58 810.763 1895.97 810.07 1893.98 810.07H1879.29V802.4H1894.89C1899.66 802.4 1903.43 803.83 1906.2 806.69C1909.06 809.463 1910.49 813.277 1910.49 818.13V870H1891.12ZM1900.74 862.07V831.52L1889.3 835.81C1887.05 836.677 1885.44 837.847 1884.49 839.32C1883.62 840.793 1883.19 843.133 1883.19 846.34V853.62C1883.19 855.96 1884.06 857.953 1885.79 859.6C1887.52 861.247 1889.6 862.07 1892.03 862.07H1900.74ZM1941.33 870.91C1935.26 870.91 1930.54 869.393 1927.16 866.36C1923.87 863.24 1922.22 858.95 1922.22 853.49V818.91C1922.22 813.45 1923.87 809.203 1927.16 806.17C1930.54 803.05 1935.26 801.49 1941.33 801.49C1947.4 801.49 1952.08 803.05 1955.37 806.17C1958.75 809.203 1960.44 813.45 1960.44 818.91V853.49C1960.44 858.95 1958.75 863.24 1955.37 866.36C1952.08 869.393 1947.4 870.91 1941.33 870.91ZM1941.33 862.85C1944.1 862.85 1946.27 862.07 1947.83 860.51C1949.48 858.863 1950.3 856.523 1950.3 853.49V818.91C1950.3 815.877 1949.48 813.58 1947.83 812.02C1946.27 810.373 1944.1 809.55 1941.33 809.55C1938.56 809.55 1936.35 810.373 1934.7 812.02C1933.14 813.58 1932.36 815.877 1932.36 818.91V853.49C1932.36 856.523 1933.14 858.863 1934.7 860.51C1936.35 862.07 1938.56 862.85 1941.33 862.85ZM2006.52 870C2001.75 870 1997.94 868.57 1995.08 865.71C1992.3 862.85 1990.92 858.993 1990.92 854.14V819.56C1990.92 813.927 1992.48 809.507 1995.6 806.3C1998.72 803.093 2003.35 801.49 2009.51 801.49C2015.66 801.49 2020.25 803.093 2023.29 806.3C2026.41 809.507 2027.97 813.927 2027.97 819.56V825.54C2027.97 829.18 2026.93 831.953 2024.85 833.86C2022.77 835.68 2020.04 837.067 2016.66 838.02L2001.32 842.31V855.05C2001.32 857.13 2001.92 858.863 2003.14 860.25C2004.44 861.55 2006.08 862.2 2008.08 862.2H2022.12V870H2006.52ZM2009.25 831.91C2012.11 831.13 2014.01 830.567 2014.97 830.22C2016.01 829.787 2016.7 829.18 2017.05 828.4C2017.39 827.62 2017.57 826.32 2017.57 824.5V817.35C2017.57 814.577 2016.83 812.54 2015.36 811.24C2013.97 809.94 2012.02 809.29 2009.51 809.29C2007.08 809.29 2005.09 809.983 2003.53 811.37C2002.05 812.757 2001.32 814.75 2001.32 817.35V834.12L2009.25 831.91ZM2057.87 802.4H2078.93C2083.7 802.4 2087.73 803.96 2091.02 807.08C2094.4 810.2 2096.09 814.1 2096.09 818.78V853.75C2096.09 858.43 2094.44 862.33 2091.15 865.45C2087.86 868.483 2083.83 870 2079.06 870H2068.27V890.8H2057.87V802.4ZM2076.85 862.33C2079.28 862.33 2081.36 861.507 2083.09 859.86C2084.82 858.213 2085.69 856.177 2085.69 853.75V818.78C2085.69 816.353 2084.82 814.317 2083.09 812.67C2081.36 811.023 2079.28 810.2 2076.85 810.2H2068.27V862.33H2076.85ZM2116.33 870.91C2113.21 870.91 2110.87 869.827 2109.31 867.66C2107.83 865.493 2107.1 862.677 2107.1 859.21V802.4H2117.5V855.83C2117.5 858.257 2117.67 859.99 2118.02 861.03C2118.36 862.07 2119.19 862.59 2120.49 862.59C2121.09 862.59 2125.99 861.29 2135.18 858.69V802.4H2145.58V870H2138.17L2136.22 865.58C2134.83 866.1 2133.79 866.447 2133.1 866.62C2129.02 868.093 2125.73 869.177 2123.22 869.87C2120.7 870.563 2118.41 870.91 2116.33 870.91ZM2161.21 779H2171.61V799.28L2189.03 805.39C2192.06 806.43 2194.57 808.25 2196.57 810.85C2198.65 813.363 2199.69 816.483 2199.69 820.21V853.62C2199.69 858.3 2198.04 862.2 2194.75 865.32C2191.45 868.44 2187.42 870 2182.66 870H2161.21V779ZM2180.45 862.2C2182.87 862.2 2184.95 861.377 2186.69 859.73C2188.42 858.083 2189.29 856.047 2189.29 853.62V822.29C2189.29 818.997 2188.81 816.613 2187.86 815.14C2186.99 813.58 2185.43 812.453 2183.18 811.76L2171.61 807.86V862.2H2180.45ZM2212.12 870V779H2222.52V870H2212.12ZM2238.01 791.35V780.95H2248.41V791.35H2238.01ZM2238.01 870V802.4H2248.41V870H2238.01ZM2278.34 870C2273.57 870 2269.76 868.57 2266.9 865.71C2264.13 862.85 2262.74 858.993 2262.74 854.14V819.56C2262.74 814.1 2264.17 809.897 2267.03 806.95C2269.89 803.917 2274.05 802.4 2279.51 802.4H2293.94V810.2H2279.77C2277.78 810.2 2276.17 810.893 2274.96 812.28C2273.75 813.58 2273.14 815.27 2273.14 817.35V855.05C2273.14 857.13 2273.75 858.863 2274.96 860.25C2276.26 861.55 2277.91 862.2 2279.9 862.2H2293.94V870H2278.34ZM2303.01 791.35V780.95H2313.41V791.35H2303.01ZM2303.01 870V802.4H2313.41V870H2303.01ZM2346.2 870C2340.74 870 2336.32 868.397 2332.94 865.19C2329.56 861.983 2327.87 857.693 2327.87 852.32V819.95C2327.87 816.223 2328.87 813.06 2330.86 810.46C2332.94 807.86 2335.5 806.083 2338.53 805.13L2355.95 799.02V779H2366.35V870H2346.2ZM2355.95 862.2V807.6L2344.38 811.5C2342.13 812.193 2340.52 813.32 2339.57 814.88C2338.7 816.353 2338.27 818.737 2338.27 822.03V852.32C2338.27 855.44 2339.18 857.867 2341 859.6C2342.82 861.333 2345.29 862.2 2348.41 862.2H2355.95ZM2395.76 870C2392.64 870 2389.74 869.22 2387.05 867.66C2384.45 866.1 2382.37 863.977 2380.81 861.29C2379.34 858.603 2378.6 855.57 2378.6 852.19V845.43C2378.6 841.357 2379.6 837.933 2381.59 835.16C2383.67 832.387 2386.23 830.437 2389.26 829.31L2405.38 823.33V817.22C2405.38 815.14 2404.73 813.45 2403.43 812.15C2402.22 810.763 2400.61 810.07 2398.62 810.07H2383.93V802.4H2399.53C2404.3 802.4 2408.07 803.83 2410.84 806.69C2413.7 809.463 2415.13 813.277 2415.13 818.13V870H2395.76ZM2405.38 862.07V831.52L2393.94 835.81C2391.69 836.677 2390.08 837.847 2389.13 839.32C2388.26 840.793 2387.83 843.133 2387.83 846.34V853.62C2387.83 855.96 2388.7 857.953 2390.43 859.6C2392.16 861.247 2394.24 862.07 2396.67 862.07H2405.38ZM2446.62 870C2441.16 870 2436.74 868.397 2433.36 865.19C2429.98 861.983 2428.29 857.693 2428.29 852.32V819.95C2428.29 816.223 2429.29 813.06 2431.28 810.46C2433.36 807.86 2435.92 806.083 2438.95 805.13L2456.37 799.02V779H2466.77V870H2446.62ZM2456.37 862.2V807.6L2444.8 811.5C2442.55 812.193 2440.94 813.32 2439.99 814.88C2439.12 816.353 2438.69 818.737 2438.69 822.03V852.32C2438.69 855.44 2439.6 857.867 2441.42 859.6C2443.24 861.333 2445.71 862.2 2448.83 862.2H2456.37ZM2495.92 870C2491.15 870 2487.34 868.57 2484.48 865.71C2481.71 862.85 2480.32 858.993 2480.32 854.14V819.56C2480.32 813.927 2481.88 809.507 2485 806.3C2488.12 803.093 2492.76 801.49 2498.91 801.49C2505.06 801.49 2509.66 803.093 2512.69 806.3C2515.81 809.507 2517.37 813.927 2517.37 819.56V825.54C2517.37 829.18 2516.33 831.953 2514.25 833.86C2512.17 835.68 2509.44 837.067 2506.06 838.02L2490.72 842.31V855.05C2490.72 857.13 2491.33 858.863 2492.54 860.25C2493.84 861.55 2495.49 862.2 2497.48 862.2H2511.52V870H2495.92ZM2498.65 831.91C2501.51 831.13 2503.42 830.567 2504.37 830.22C2505.41 829.787 2506.1 829.18 2506.45 828.4C2506.8 827.62 2506.97 826.32 2506.97 824.5V817.35C2506.97 814.577 2506.23 812.54 2504.76 811.24C2503.37 809.94 2501.42 809.29 2498.91 809.29C2496.48 809.29 2494.49 809.983 2492.93 811.37C2491.46 812.757 2490.72 814.75 2490.72 817.35V834.12L2498.65 831.91ZM2564.43 870C2558.97 870 2554.55 868.397 2551.17 865.19C2547.79 861.983 2546.1 857.693 2546.1 852.32V819.95C2546.1 816.223 2547.1 813.06 2549.09 810.46C2551.17 807.86 2553.73 806.083 2556.76 805.13L2574.18 799.02V779H2584.58V870H2564.43ZM2574.18 862.2V807.6L2562.61 811.5C2560.36 812.193 2558.76 813.32 2557.8 814.88C2556.94 816.353 2556.5 818.737 2556.5 822.03V852.32C2556.5 855.44 2557.41 857.867 2559.23 859.6C2561.05 861.333 2563.52 862.2 2566.64 862.2H2574.18ZM2616.72 870.91C2610.66 870.91 2605.93 869.393 2602.55 866.36C2599.26 863.24 2597.61 858.95 2597.61 853.49V818.91C2597.61 813.45 2599.26 809.203 2602.55 806.17C2605.93 803.05 2610.66 801.49 2616.72 801.49C2622.79 801.49 2627.47 803.05 2630.76 806.17C2634.14 809.203 2635.83 813.45 2635.83 818.91V853.49C2635.83 858.95 2634.14 863.24 2630.76 866.36C2627.47 869.393 2622.79 870.91 2616.72 870.91ZM2616.72 862.85C2619.5 862.85 2621.66 862.07 2623.22 860.51C2624.87 858.863 2625.69 856.523 2625.69 853.49V818.91C2625.69 815.877 2624.87 813.58 2623.22 812.02C2621.66 810.373 2619.5 809.55 2616.72 809.55C2613.95 809.55 2611.74 810.373 2610.09 812.02C2608.53 813.58 2607.75 815.877 2607.75 818.91V853.49C2607.75 856.523 2608.53 858.863 2610.09 860.51C2611.74 862.07 2613.95 862.85 2616.72 862.85ZM2644.94 862.2H2655.99C2659.71 862.2 2662.4 861.203 2664.05 859.21C2665.78 857.13 2666.65 854.443 2666.65 851.15C2666.65 848.55 2665.87 846.34 2664.31 844.52C2662.75 842.7 2660.41 840.577 2657.29 838.15C2654.6 835.983 2652.43 834.12 2650.79 832.56C2649.23 830.913 2647.84 828.92 2646.63 826.58C2645.5 824.153 2644.94 821.38 2644.94 818.26C2644.94 813.667 2646.45 809.897 2649.49 806.95C2652.61 803.917 2656.77 802.4 2661.97 802.4H2673.28V810.2H2663.92C2657.76 810.2 2654.69 813.103 2654.69 818.91C2654.69 821.163 2655.38 823.113 2656.77 824.76C2658.15 826.407 2660.32 828.357 2663.27 830.61C2665.95 832.69 2668.16 834.597 2669.9 836.33C2671.63 837.977 2673.1 840.1 2674.32 842.7C2675.53 845.213 2676.14 848.203 2676.14 851.67C2676.14 857.823 2674.49 862.417 2671.2 865.45C2667.99 868.483 2663.44 870 2657.55 870H2644.94V862.2ZM1492.8 932.4H1500.86L1502.03 936.17L1507.36 934.61C1511 933.483 1513.86 932.703 1515.94 932.27C1518.11 931.75 1520.14 931.49 1522.05 931.49C1525.17 931.49 1527.47 932.573 1528.94 934.74C1530.41 936.907 1531.15 939.723 1531.15 943.19V1000H1520.75V946.57C1520.75 944.057 1520.58 942.323 1520.23 941.37C1519.88 940.33 1519.02 939.81 1517.63 939.81C1516.94 939.81 1512.13 941.197 1503.2 943.97V1000H1492.8V932.4ZM1562.12 1000.91C1556.06 1000.91 1551.33 999.393 1547.95 996.36C1544.66 993.24 1543.01 988.95 1543.01 983.49V948.91C1543.01 943.45 1544.66 939.203 1547.95 936.17C1551.33 933.05 1556.06 931.49 1562.12 931.49C1568.19 931.49 1572.87 933.05 1576.16 936.17C1579.54 939.203 1581.23 943.45 1581.23 948.91V983.49C1581.23 988.95 1579.54 993.24 1576.16 996.36C1572.87 999.393 1568.19 1000.91 1562.12 1000.91ZM1562.12 992.85C1564.9 992.85 1567.06 992.07 1568.62 990.51C1570.27 988.863 1571.09 986.523 1571.09 983.49V948.91C1571.09 945.877 1570.27 943.58 1568.62 942.02C1567.06 940.373 1564.9 939.55 1562.12 939.55C1559.35 939.55 1557.14 940.373 1555.49 942.02C1553.93 943.58 1553.15 945.877 1553.15 948.91V983.49C1553.15 986.523 1553.93 988.863 1555.49 990.51C1557.14 992.07 1559.35 992.85 1562.12 992.85ZM1603.86 1000L1588.39 932.4H1599.18L1609.19 986.87L1619.07 932.4H1629.86L1614.39 1000H1603.86ZM1656.07 1000.91C1650 1000.91 1645.28 999.393 1641.9 996.36C1638.6 993.24 1636.96 988.95 1636.96 983.49V948.91C1636.96 943.45 1638.6 939.203 1641.9 936.17C1645.28 933.05 1650 931.49 1656.07 931.49C1662.13 931.49 1666.81 933.05 1670.11 936.17C1673.49 939.203 1675.18 943.45 1675.18 948.91V983.49C1675.18 988.95 1673.49 993.24 1670.11 996.36C1666.81 999.393 1662.13 1000.91 1656.07 1000.91ZM1656.07 992.85C1658.84 992.85 1661.01 992.07 1662.57 990.51C1664.21 988.863 1665.04 986.523 1665.04 983.49V948.91C1665.04 945.877 1664.21 943.58 1662.57 942.02C1661.01 940.373 1658.84 939.55 1656.07 939.55C1653.29 939.55 1651.08 940.373 1649.44 942.02C1647.88 943.58 1647.1 945.877 1647.1 948.91V983.49C1647.1 986.523 1647.88 988.863 1649.44 990.51C1651.08 992.07 1653.29 992.85 1656.07 992.85ZM1684.28 992.2H1695.33C1699.06 992.2 1701.74 991.203 1703.39 989.21C1705.12 987.13 1705.99 984.443 1705.99 981.15C1705.99 978.55 1705.21 976.34 1703.65 974.52C1702.09 972.7 1699.75 970.577 1696.63 968.15C1693.94 965.983 1691.78 964.12 1690.13 962.56C1688.57 960.913 1687.18 958.92 1685.97 956.58C1684.84 954.153 1684.28 951.38 1684.28 948.26C1684.28 943.667 1685.8 939.897 1688.83 936.95C1691.95 933.917 1696.11 932.4 1701.31 932.4H1712.62V940.2H1703.26C1697.11 940.2 1694.03 943.103 1694.03 948.91C1694.03 951.163 1694.72 953.113 1696.11 954.76C1697.5 956.407 1699.66 958.357 1702.61 960.61C1705.3 962.69 1707.51 964.597 1709.24 966.33C1710.97 967.977 1712.45 970.1 1713.66 972.7C1714.87 975.213 1715.48 978.203 1715.48 981.67C1715.48 987.823 1713.83 992.417 1710.54 995.45C1707.33 998.483 1702.78 1000 1696.89 1000H1684.28V992.2ZM1746.71 932.4H1767.77C1772.53 932.4 1776.56 933.96 1779.86 937.08C1783.24 940.2 1784.93 944.1 1784.93 948.78V983.75C1784.93 988.43 1783.28 992.33 1779.99 995.45C1776.69 998.483 1772.66 1000 1767.9 1000H1757.11V1020.8H1746.71V932.4ZM1765.69 992.33C1768.11 992.33 1770.19 991.507 1771.93 989.86C1773.66 988.213 1774.53 986.177 1774.53 983.75V948.78C1774.53 946.353 1773.66 944.317 1771.93 942.67C1770.19 941.023 1768.11 940.2 1765.69 940.2H1757.11V992.33H1765.69ZM1797.23 932.4H1805.29L1806.46 937.21L1809.71 935.65C1812.49 934.263 1814.78 933.223 1816.6 932.53C1818.51 931.837 1820.42 931.49 1822.32 931.49V939.16C1821.2 939.16 1819.68 939.507 1817.77 940.2C1815.87 940.807 1812.49 942.28 1807.63 944.62V1000H1797.23V932.4ZM1848.53 1000.91C1842.46 1000.91 1837.74 999.393 1834.36 996.36C1831.07 993.24 1829.42 988.95 1829.42 983.49V948.91C1829.42 943.45 1831.07 939.203 1834.36 936.17C1837.74 933.05 1842.46 931.49 1848.53 931.49C1854.6 931.49 1859.28 933.05 1862.57 936.17C1865.95 939.203 1867.64 943.45 1867.64 948.91V983.49C1867.64 988.95 1865.95 993.24 1862.57 996.36C1859.28 999.393 1854.6 1000.91 1848.53 1000.91ZM1848.53 992.85C1851.3 992.85 1853.47 992.07 1855.03 990.51C1856.68 988.863 1857.5 986.523 1857.5 983.49V948.91C1857.5 945.877 1856.68 943.58 1855.03 942.02C1853.47 940.373 1851.3 939.55 1848.53 939.55C1845.76 939.55 1843.55 940.373 1841.9 942.02C1840.34 943.58 1839.56 945.877 1839.56 948.91V983.49C1839.56 986.523 1840.34 988.863 1841.9 990.51C1843.55 992.07 1845.76 992.85 1848.53 992.85ZM1897.8 1000C1892.34 1000 1887.92 998.397 1884.54 995.19C1881.16 991.983 1879.47 987.693 1879.47 982.32V949.95C1879.47 946.223 1880.47 943.06 1882.46 940.46C1884.54 937.86 1887.1 936.083 1890.13 935.13L1907.55 929.02V909H1917.95V1000H1897.8ZM1907.55 992.2V937.6L1895.98 941.5C1893.73 942.193 1892.13 943.32 1891.17 944.88C1890.31 946.353 1889.87 948.737 1889.87 952.03V982.32C1889.87 985.44 1890.78 987.867 1892.6 989.6C1894.42 991.333 1896.89 992.2 1900.01 992.2H1907.55ZM1941.51 1000.91C1938.39 1000.91 1936.05 999.827 1934.49 997.66C1933.02 995.493 1932.28 992.677 1932.28 989.21V932.4H1942.68V985.83C1942.68 988.257 1942.85 989.99 1943.2 991.03C1943.55 992.07 1944.37 992.59 1945.67 992.59C1946.28 992.59 1951.17 991.29 1960.36 988.69V932.4H1970.76V1000H1963.35L1961.4 995.58C1960.01 996.1 1958.97 996.447 1958.28 996.62C1954.21 998.093 1950.91 999.177 1948.4 999.87C1945.89 1000.56 1943.59 1000.91 1941.51 1000.91ZM2005.24 1000C2000.48 1000 1996.71 998.57 1993.93 995.71C1991.16 992.85 1989.77 988.993 1989.77 984.14V940.2H1981.97V932.4H1989.77V912.77L2000.17 908.87V932.4H2010.57V940.2H2000.17V985.05C2000.17 987.13 2000.74 988.863 2001.86 990.25C2003.08 991.55 2004.68 992.2 2006.67 992.2H2010.57V1000H2005.24ZM2037.44 1000.91C2031.37 1000.91 2026.65 999.393 2023.27 996.36C2019.97 993.24 2018.33 988.95 2018.33 983.49V948.91C2018.33 943.45 2019.97 939.203 2023.27 936.17C2026.65 933.05 2031.37 931.49 2037.44 931.49C2043.5 931.49 2048.18 933.05 2051.48 936.17C2054.86 939.203 2056.55 943.45 2056.55 948.91V983.49C2056.55 988.95 2054.86 993.24 2051.48 996.36C2048.18 999.393 2043.5 1000.91 2037.44 1000.91ZM2037.44 992.85C2040.21 992.85 2042.38 992.07 2043.94 990.51C2045.58 988.863 2046.41 986.523 2046.41 983.49V948.91C2046.41 945.877 2045.58 943.58 2043.94 942.02C2042.38 940.373 2040.21 939.55 2037.44 939.55C2034.66 939.55 2032.45 940.373 2030.81 942.02C2029.25 943.58 2028.47 945.877 2028.47 948.91V983.49C2028.47 986.523 2029.25 988.863 2030.81 990.51C2032.45 992.07 2034.66 992.85 2037.44 992.85ZM2065.65 992.2H2076.7C2080.42 992.2 2083.11 991.203 2084.76 989.21C2086.49 987.13 2087.36 984.443 2087.36 981.15C2087.36 978.55 2086.58 976.34 2085.02 974.52C2083.46 972.7 2081.12 970.577 2078 968.15C2075.31 965.983 2073.14 964.12 2071.5 962.56C2069.94 960.913 2068.55 958.92 2067.34 956.58C2066.21 954.153 2065.65 951.38 2065.65 948.26C2065.65 943.667 2067.16 939.897 2070.2 936.95C2073.32 933.917 2077.48 932.4 2082.68 932.4H2093.99V940.2H2084.63C2078.47 940.2 2075.4 943.103 2075.4 948.91C2075.4 951.163 2076.09 953.113 2077.48 954.76C2078.86 956.407 2081.03 958.357 2083.98 960.61C2086.66 962.69 2088.87 964.597 2090.61 966.33C2092.34 967.977 2093.81 970.1 2095.03 972.7C2096.24 975.213 2096.85 978.203 2096.85 981.67C2096.85 987.823 2095.2 992.417 2091.91 995.45C2088.7 998.483 2084.15 1000 2078.26 1000H2065.65V992.2ZM2141.59 1000C2136.83 1000 2133.01 998.57 2130.15 995.71C2127.38 992.85 2125.99 988.993 2125.99 984.14V949.56C2125.99 943.927 2127.55 939.507 2130.67 936.3C2133.79 933.093 2138.43 931.49 2144.58 931.49C2150.74 931.49 2155.33 933.093 2158.36 936.3C2161.48 939.507 2163.04 943.927 2163.04 949.56V955.54C2163.04 959.18 2162 961.953 2159.92 963.86C2157.84 965.68 2155.11 967.067 2151.73 968.02L2136.39 972.31V985.05C2136.39 987.13 2137 988.863 2138.21 990.25C2139.51 991.55 2141.16 992.2 2143.15 992.2H2157.19V1000H2141.59ZM2144.32 961.91C2147.18 961.13 2149.09 960.567 2150.04 960.22C2151.08 959.787 2151.78 959.18 2152.12 958.4C2152.47 957.62 2152.64 956.32 2152.64 954.5V947.35C2152.64 944.577 2151.91 942.54 2150.43 941.24C2149.05 939.94 2147.1 939.29 2144.58 939.29C2142.16 939.29 2140.16 939.983 2138.6 941.37C2137.13 942.757 2136.39 944.75 2136.39 947.35V964.12L2144.32 961.91ZM2196.2 940.98H2188.4V932.4H2196.2V924.86C2196.2 920.007 2197.58 916.15 2200.36 913.29C2203.13 910.43 2206.9 909 2211.67 909H2217.39V916.8H2213.49C2211.49 916.8 2209.85 917.493 2208.55 918.88C2207.25 920.267 2206.6 921.957 2206.6 923.95V932.4H2217.13V940.98H2206.6V1000H2196.2V940.98ZM2242.08 1000.91C2236.02 1000.91 2231.29 999.393 2227.91 996.36C2224.62 993.24 2222.97 988.95 2222.97 983.49V948.91C2222.97 943.45 2224.62 939.203 2227.91 936.17C2231.29 933.05 2236.02 931.49 2242.08 931.49C2248.15 931.49 2252.83 933.05 2256.12 936.17C2259.5 939.203 2261.19 943.45 2261.19 948.91V983.49C2261.19 988.95 2259.5 993.24 2256.12 996.36C2252.83 999.393 2248.15 1000.91 2242.08 1000.91ZM2242.08 992.85C2244.86 992.85 2247.02 992.07 2248.58 990.51C2250.23 988.863 2251.05 986.523 2251.05 983.49V948.91C2251.05 945.877 2250.23 943.58 2248.58 942.02C2247.02 940.373 2244.86 939.55 2242.08 939.55C2239.31 939.55 2237.1 940.373 2235.45 942.02C2233.89 943.58 2233.11 945.877 2233.11 948.91V983.49C2233.11 986.523 2233.89 988.863 2235.45 990.51C2237.1 992.07 2239.31 992.85 2242.08 992.85ZM2274.2 932.4H2282.26L2283.43 937.21L2286.68 935.65C2289.45 934.263 2291.75 933.223 2293.57 932.53C2295.47 931.837 2297.38 931.49 2299.29 931.49V939.16C2298.16 939.16 2296.64 939.507 2294.74 940.2C2292.83 940.807 2289.45 942.28 2284.6 944.62V1000H2274.2V932.4ZM2308.98 932.4H2317.04L2318.21 936.17L2323.54 934.61C2327.18 933.483 2330.04 932.703 2332.12 932.27C2334.29 931.75 2336.32 931.49 2338.23 931.49C2341.96 931.49 2344.56 933.137 2346.03 936.43C2348.46 935.563 2351.88 934.523 2356.3 933.31C2360.72 932.097 2363.97 931.49 2366.05 931.49C2369.17 931.49 2371.47 932.573 2372.94 934.74C2374.5 936.907 2375.28 939.723 2375.28 943.19V1000H2364.88V946.57C2364.88 944.057 2364.71 942.323 2364.36 941.37C2364.01 940.33 2363.15 939.81 2361.76 939.81C2361.07 939.81 2356.3 941.197 2347.46 943.97V1000H2337.06V946.57C2337.06 944.057 2336.89 942.323 2336.54 941.37C2336.19 940.33 2335.33 939.81 2333.94 939.81C2333.25 939.81 2328.39 941.197 2319.38 943.97V1000H2308.98V932.4ZM2403.38 1000C2400.26 1000 2397.35 999.22 2394.67 997.66C2392.07 996.1 2389.99 993.977 2388.43 991.29C2386.95 988.603 2386.22 985.57 2386.22 982.19V975.43C2386.22 971.357 2387.21 967.933 2389.21 965.16C2391.29 962.387 2393.84 960.437 2396.88 959.31L2413 953.33V947.22C2413 945.14 2412.35 943.45 2411.05 942.15C2409.83 940.763 2408.23 940.07 2406.24 940.07H2391.55V932.4H2407.15C2411.91 932.4 2415.68 933.83 2418.46 936.69C2421.32 939.463 2422.75 943.277 2422.75 948.13V1000H2403.38ZM2413 992.07V961.52L2401.56 965.81C2399.3 966.677 2397.7 967.847 2396.75 969.32C2395.88 970.793 2395.45 973.133 2395.45 976.34V983.62C2395.45 985.96 2396.31 987.953 2398.05 989.6C2399.78 991.247 2401.86 992.07 2404.29 992.07H2413ZM2455.93 1000C2451.16 1000 2447.39 998.57 2444.62 995.71C2441.84 992.85 2440.46 988.993 2440.46 984.14V940.2H2432.66V932.4H2440.46V912.77L2450.86 908.87V932.4H2461.26V940.2H2450.86V985.05C2450.86 987.13 2451.42 988.863 2452.55 990.25C2453.76 991.55 2455.36 992.2 2457.36 992.2H2461.26V1000H2455.93ZM2488.12 1000.91C2482.05 1000.91 2477.33 999.393 2473.95 996.36C2470.66 993.24 2469.01 988.95 2469.01 983.49V948.91C2469.01 943.45 2470.66 939.203 2473.95 936.17C2477.33 933.05 2482.05 931.49 2488.12 931.49C2494.19 931.49 2498.87 933.05 2502.16 936.17C2505.54 939.203 2507.23 943.45 2507.23 948.91V983.49C2507.23 988.95 2505.54 993.24 2502.16 996.36C2498.87 999.393 2494.19 1000.91 2488.12 1000.91ZM2488.12 992.85C2490.89 992.85 2493.06 992.07 2494.62 990.51C2496.27 988.863 2497.09 986.523 2497.09 983.49V948.91C2497.09 945.877 2496.27 943.58 2494.62 942.02C2493.06 940.373 2490.89 939.55 2488.12 939.55C2485.35 939.55 2483.14 940.373 2481.49 942.02C2479.93 943.58 2479.15 945.877 2479.15 948.91V983.49C2479.15 986.523 2479.93 988.863 2481.49 990.51C2483.14 992.07 2485.35 992.85 2488.12 992.85ZM2516.33 992.2H2527.38C2531.11 992.2 2533.79 991.203 2535.44 989.21C2537.17 987.13 2538.04 984.443 2538.04 981.15C2538.04 978.55 2537.26 976.34 2535.7 974.52C2534.14 972.7 2531.8 970.577 2528.68 968.15C2525.99 965.983 2523.83 964.12 2522.18 962.56C2520.62 960.913 2519.23 958.92 2518.02 956.58C2516.89 954.153 2516.33 951.38 2516.33 948.26C2516.33 943.667 2517.85 939.897 2520.88 936.95C2524 933.917 2528.16 932.4 2533.36 932.4H2544.67V940.2H2535.31C2529.16 940.2 2526.08 943.103 2526.08 948.91C2526.08 951.163 2526.77 953.113 2528.16 954.76C2529.55 956.407 2531.71 958.357 2534.66 960.61C2537.35 962.69 2539.56 964.597 2541.29 966.33C2543.02 967.977 2544.5 970.1 2545.71 972.7C2546.92 975.213 2547.53 978.203 2547.53 981.67C2547.53 987.823 2545.88 992.417 2542.59 995.45C2539.38 998.483 2534.83 1000 2528.94 1000H2516.33V992.2ZM1492.8 1062.4H1500.86L1502.03 1066.17L1507.36 1064.61C1511 1063.48 1513.86 1062.7 1515.94 1062.27C1518.11 1061.75 1520.14 1061.49 1522.05 1061.49C1525.17 1061.49 1527.47 1062.57 1528.94 1064.74C1530.41 1066.91 1531.15 1069.72 1531.15 1073.19V1130H1520.75V1076.57C1520.75 1074.06 1520.58 1072.32 1520.23 1071.37C1519.88 1070.33 1519.02 1069.81 1517.63 1069.81C1516.94 1069.81 1512.13 1071.2 1503.2 1073.97V1130H1492.8V1062.4ZM1559.39 1130C1556.27 1130 1553.37 1129.22 1550.68 1127.66C1548.08 1126.1 1546 1123.98 1544.44 1121.29C1542.97 1118.6 1542.23 1115.57 1542.23 1112.19V1105.43C1542.23 1101.36 1543.23 1097.93 1545.22 1095.16C1547.3 1092.39 1549.86 1090.44 1552.89 1089.31L1569.01 1083.33V1077.22C1569.01 1075.14 1568.36 1073.45 1567.06 1072.15C1565.85 1070.76 1564.25 1070.07 1562.25 1070.07H1547.56V1062.4H1563.16C1567.93 1062.4 1571.7 1063.83 1574.47 1066.69C1577.33 1069.46 1578.76 1073.28 1578.76 1078.13V1130H1559.39ZM1569.01 1122.07V1091.52L1557.57 1095.81C1555.32 1096.68 1553.72 1097.85 1552.76 1099.32C1551.9 1100.79 1551.46 1103.13 1551.46 1106.34V1113.62C1551.46 1115.96 1552.33 1117.95 1554.06 1119.6C1555.8 1121.25 1557.88 1122.07 1560.3 1122.07H1569.01ZM1593.09 1062.4H1601.15L1602.32 1067.21L1605.57 1065.65C1608.35 1064.26 1610.64 1063.22 1612.46 1062.53C1614.37 1061.84 1616.28 1061.49 1618.18 1061.49V1069.16C1617.06 1069.16 1615.54 1069.51 1613.63 1070.2C1611.73 1070.81 1608.35 1072.28 1603.49 1074.62V1130H1593.09V1062.4ZM1627.88 1062.4H1635.94L1637.11 1067.21L1640.36 1065.65C1643.13 1064.26 1645.43 1063.22 1647.25 1062.53C1649.15 1061.84 1651.06 1061.49 1652.97 1061.49V1069.16C1651.84 1069.16 1650.32 1069.51 1648.42 1070.2C1646.51 1070.81 1643.13 1072.28 1638.28 1074.62V1130H1627.88V1062.4ZM1676.44 1130C1673.32 1130 1670.42 1129.22 1667.73 1127.66C1665.13 1126.1 1663.05 1123.98 1661.49 1121.29C1660.02 1118.6 1659.28 1115.57 1659.28 1112.19V1105.43C1659.28 1101.36 1660.28 1097.93 1662.27 1095.16C1664.35 1092.39 1666.91 1090.44 1669.94 1089.31L1686.06 1083.33V1077.22C1686.06 1075.14 1685.41 1073.45 1684.11 1072.15C1682.9 1070.76 1681.3 1070.07 1679.3 1070.07H1664.61V1062.4H1680.21C1684.98 1062.4 1688.75 1063.83 1691.52 1066.69C1694.38 1069.46 1695.81 1073.28 1695.81 1078.13V1130H1676.44ZM1686.06 1122.07V1091.52L1674.62 1095.81C1672.37 1096.68 1670.77 1097.85 1669.81 1099.32C1668.95 1100.79 1668.51 1103.13 1668.51 1106.34V1113.62C1668.51 1115.96 1669.38 1117.95 1671.11 1119.6C1672.85 1121.25 1674.93 1122.07 1677.35 1122.07H1686.06ZM1728.99 1130C1724.23 1130 1720.46 1128.57 1717.68 1125.71C1714.91 1122.85 1713.52 1118.99 1713.52 1114.14V1070.2H1705.72V1062.4H1713.52V1042.77L1723.92 1038.87V1062.4H1734.32V1070.2H1723.92V1115.05C1723.92 1117.13 1724.49 1118.86 1725.61 1120.25C1726.83 1121.55 1728.43 1122.2 1730.42 1122.2H1734.32V1130H1728.99ZM1744.68 1051.35V1040.95H1755.08V1051.35H1744.68ZM1744.68 1130V1062.4H1755.08V1130H1744.68ZM1780.32 1130L1764.85 1062.4H1775.64L1785.65 1116.87L1795.53 1062.4H1806.32L1790.85 1130H1780.32ZM1832.53 1130.91C1826.47 1130.91 1821.74 1129.39 1818.36 1126.36C1815.07 1123.24 1813.42 1118.95 1813.42 1113.49V1078.91C1813.42 1073.45 1815.07 1069.2 1818.36 1066.17C1821.74 1063.05 1826.47 1061.49 1832.53 1061.49C1838.6 1061.49 1843.28 1063.05 1846.57 1066.17C1849.95 1069.2 1851.64 1073.45 1851.64 1078.91V1113.49C1851.64 1118.95 1849.95 1123.24 1846.57 1126.36C1843.28 1129.39 1838.6 1130.91 1832.53 1130.91ZM1832.53 1122.85C1835.31 1122.85 1837.47 1122.07 1839.03 1120.51C1840.68 1118.86 1841.5 1116.52 1841.5 1113.49V1078.91C1841.5 1075.88 1840.68 1073.58 1839.03 1072.02C1837.47 1070.37 1835.31 1069.55 1832.53 1069.55C1829.76 1069.55 1827.55 1070.37 1825.9 1072.02C1824.34 1073.58 1823.56 1075.88 1823.56 1078.91V1113.49C1823.56 1116.52 1824.34 1118.86 1825.9 1120.51C1827.55 1122.07 1829.76 1122.85 1832.53 1122.85ZM1860.75 1122.2H1871.8C1875.52 1122.2 1878.21 1121.2 1879.86 1119.21C1881.59 1117.13 1882.46 1114.44 1882.46 1111.15C1882.46 1108.55 1881.68 1106.34 1880.12 1104.52C1878.56 1102.7 1876.22 1100.58 1873.1 1098.15C1870.41 1095.98 1868.24 1094.12 1866.6 1092.56C1865.04 1090.91 1863.65 1088.92 1862.44 1086.58C1861.31 1084.15 1860.75 1081.38 1860.75 1078.26C1860.75 1073.67 1862.26 1069.9 1865.3 1066.95C1868.42 1063.92 1872.58 1062.4 1877.78 1062.4H1889.09V1070.2H1879.73C1873.57 1070.2 1870.5 1073.1 1870.5 1078.91C1870.5 1081.16 1871.19 1083.11 1872.58 1084.76C1873.96 1086.41 1876.13 1088.36 1879.08 1090.61C1881.76 1092.69 1883.97 1094.6 1885.71 1096.33C1887.44 1097.98 1888.91 1100.1 1890.13 1102.7C1891.34 1105.21 1891.95 1108.2 1891.95 1111.67C1891.95 1117.82 1890.3 1122.42 1887.01 1125.45C1883.8 1128.48 1879.25 1130 1873.36 1130H1860.75V1122.2Z" fill="white"/>
<path d="M1403 1182V564H872.299V1000.5H1221.5V738.599H1046.9V825.898H1134.2V913.197H959.599V651.299H1308.8V1087.8H785V1182H1403Z" fill="white"/>
</svg>
