<svg width="3745" height="1780" viewBox="0 0 3745 1780" fill="none" xmlns="http://www.w3.org/2000/svg">
<path d="M930 582V566H946V582H930ZM930 703V599H946V703H930ZM970.039 599H982.439L984.239 604.8L992.439 602.4C998.039 600.667 1002.44 599.467 1005.64 598.8C1008.97 598 1012.11 597.6 1015.04 597.6C1019.84 597.6 1023.37 599.267 1025.64 602.6C1027.91 605.933 1029.04 610.267 1029.04 615.6V703H1013.04V620.8C1013.04 616.933 1012.77 614.267 1012.24 612.8C1011.71 611.2 1010.37 610.4 1008.24 610.4C1007.17 610.4 999.772 612.533 986.039 616.8V703H970.039V599ZM1080.29 703C1072.96 703 1067.16 700.8 1062.89 696.4C1058.62 692 1056.49 686.067 1056.49 678.6V611H1044.49V599H1056.49V568.8L1072.49 562.8V599H1088.49V611H1072.49V680C1072.49 683.2 1073.36 685.867 1075.09 688C1076.96 690 1079.42 691 1082.49 691H1088.49V703H1080.29ZM1125.21 703C1117.88 703 1112.01 700.8 1107.61 696.4C1103.35 692 1101.21 686.067 1101.21 678.6V625.4C1101.21 616.733 1103.61 609.933 1108.41 605C1113.21 600.067 1120.35 597.6 1129.81 597.6C1139.28 597.6 1146.35 600.067 1151.01 605C1155.81 609.933 1158.21 616.733 1158.21 625.4V634.6C1158.21 640.2 1156.61 644.467 1153.41 647.4C1150.21 650.2 1146.01 652.333 1140.81 653.8L1117.21 660.4V680C1117.21 683.2 1118.15 685.867 1120.01 688C1122.01 690 1124.55 691 1127.61 691H1149.21V703H1125.21ZM1129.41 644.4C1133.81 643.2 1136.75 642.333 1138.21 641.8C1139.81 641.133 1140.88 640.2 1141.41 639C1141.95 637.8 1142.21 635.8 1142.21 633V622C1142.21 617.733 1141.08 614.6 1138.81 612.6C1136.68 610.6 1133.68 609.6 1129.81 609.6C1126.08 609.6 1123.01 610.667 1120.61 612.8C1118.35 614.933 1117.21 618 1117.21 622V647.8L1129.41 644.4ZM1174.14 599H1186.54L1188.34 606.4L1193.34 604C1197.61 601.867 1201.14 600.267 1203.94 599.2C1206.87 598.133 1209.81 597.6 1212.74 597.6V609.4C1211.01 609.4 1208.67 609.933 1205.74 611C1202.81 611.933 1197.61 614.2 1190.14 617.8V703H1174.14V599ZM1248.86 703C1244.06 703 1239.59 701.8 1235.46 699.4C1231.46 697 1228.26 693.733 1225.86 689.6C1223.59 685.467 1222.46 680.8 1222.46 675.6V665.2C1222.46 658.933 1223.99 653.667 1227.06 649.4C1230.26 645.133 1234.19 642.133 1238.86 640.4L1263.66 631.2V621.8C1263.66 618.6 1262.66 616 1260.66 614C1258.79 611.867 1256.32 610.8 1253.26 610.8H1230.66V599H1254.66C1261.99 599 1267.79 601.2 1272.06 605.6C1276.46 609.867 1278.66 615.733 1278.66 623.2V703H1248.86ZM1263.66 690.8V643.8L1246.06 650.4C1242.59 651.733 1240.12 653.533 1238.66 655.8C1237.32 658.067 1236.66 661.667 1236.66 666.6V677.8C1236.66 681.4 1237.99 684.467 1240.66 687C1243.32 689.533 1246.52 690.8 1250.26 690.8H1263.66ZM1322.7 703C1315.37 703 1309.5 700.8 1305.1 696.4C1300.84 692 1298.7 686.067 1298.7 678.6V625.4C1298.7 617 1300.9 610.533 1305.3 606C1309.7 601.333 1316.1 599 1324.5 599H1346.7V611H1324.9C1321.84 611 1319.37 612.067 1317.5 614.2C1315.64 616.2 1314.7 618.8 1314.7 622V680C1314.7 683.2 1315.64 685.867 1317.5 688C1319.5 690 1322.04 691 1325.1 691H1346.7V703H1322.7ZM1389.66 703C1382.33 703 1376.53 700.8 1372.26 696.4C1368 692 1365.86 686.067 1365.86 678.6V611H1353.86V599H1365.86V568.8L1381.86 562.8V599H1397.86V611H1381.86V680C1381.86 683.2 1382.73 685.867 1384.46 688C1386.33 690 1388.8 691 1391.86 691H1397.86V703H1389.66ZM1413.79 582V566H1429.79V582H1413.79ZM1413.79 703V599H1429.79V703H1413.79ZM1468.63 703L1444.83 599H1461.43L1476.83 682.8L1492.03 599H1508.63L1484.83 703H1468.63ZM1544.35 703C1537.02 703 1531.15 700.8 1526.75 696.4C1522.49 692 1520.35 686.067 1520.35 678.6V625.4C1520.35 616.733 1522.75 609.933 1527.55 605C1532.35 600.067 1539.49 597.6 1548.95 597.6C1558.42 597.6 1565.49 600.067 1570.15 605C1574.95 609.933 1577.35 616.733 1577.35 625.4V634.6C1577.35 640.2 1575.75 644.467 1572.55 647.4C1569.35 650.2 1565.15 652.333 1559.95 653.8L1536.35 660.4V680C1536.35 683.2 1537.29 685.867 1539.15 688C1541.15 690 1543.69 691 1546.75 691H1568.35V703H1544.35ZM1548.55 644.4C1552.95 643.2 1555.89 642.333 1557.35 641.8C1558.95 641.133 1560.02 640.2 1560.55 639C1561.09 637.8 1561.35 635.8 1561.35 633V622C1561.35 617.733 1560.22 614.6 1557.95 612.6C1555.82 610.6 1552.82 609.6 1548.95 609.6C1545.22 609.6 1542.15 610.667 1539.75 612.8C1537.49 614.933 1536.35 618 1536.35 622V647.8L1548.55 644.4ZM1617.36 691H1634.36C1640.09 691 1644.23 689.467 1646.76 686.4C1649.43 683.2 1650.76 679.067 1650.76 674C1650.76 670 1649.56 666.6 1647.16 663.8C1644.76 661 1641.16 657.733 1636.36 654C1632.23 650.667 1628.89 647.8 1626.36 645.4C1623.96 642.867 1621.83 639.8 1619.96 636.2C1618.23 632.467 1617.36 628.2 1617.36 623.4C1617.36 616.333 1619.69 610.533 1624.36 606C1629.16 601.333 1635.56 599 1643.56 599H1660.96V611H1646.56C1637.09 611 1632.36 615.467 1632.36 624.4C1632.36 627.867 1633.43 630.867 1635.56 633.4C1637.69 635.933 1641.03 638.933 1645.56 642.4C1649.69 645.6 1653.09 648.533 1655.76 651.2C1658.43 653.733 1660.69 657 1662.56 661C1664.43 664.867 1665.36 669.467 1665.36 674.8C1665.36 684.267 1662.83 691.333 1657.76 696C1652.83 700.667 1645.83 703 1636.76 703H1617.36V691ZM1705.32 703C1697.99 703 1692.12 700.8 1687.72 696.4C1683.45 692 1681.32 686.067 1681.32 678.6V625.4C1681.32 617 1683.52 610.533 1687.92 606C1692.32 601.333 1698.72 599 1707.12 599H1729.32V611H1707.52C1704.45 611 1701.99 612.067 1700.12 614.2C1698.25 616.2 1697.32 618.8 1697.32 622V680C1697.32 683.2 1698.25 685.867 1700.12 688C1702.12 690 1704.65 691 1707.72 691H1729.32V703H1705.32ZM1743.28 582V566H1759.28V582H1743.28ZM1743.28 703V599H1759.28V703H1743.28ZM1804.12 703C1796.79 703 1790.92 700.8 1786.52 696.4C1782.25 692 1780.12 686.067 1780.12 678.6V625.4C1780.12 616.733 1782.52 609.933 1787.32 605C1792.12 600.067 1799.25 597.6 1808.72 597.6C1818.19 597.6 1825.25 600.067 1829.92 605C1834.72 609.933 1837.12 616.733 1837.12 625.4V634.6C1837.12 640.2 1835.52 644.467 1832.32 647.4C1829.12 650.2 1824.92 652.333 1819.72 653.8L1796.12 660.4V680C1796.12 683.2 1797.05 685.867 1798.92 688C1800.92 690 1803.45 691 1806.52 691H1828.12V703H1804.12ZM1808.32 644.4C1812.72 643.2 1815.65 642.333 1817.12 641.8C1818.72 641.133 1819.79 640.2 1820.32 639C1820.85 637.8 1821.12 635.8 1821.12 633V622C1821.12 617.733 1819.99 614.6 1817.72 612.6C1815.59 610.6 1812.59 609.6 1808.72 609.6C1804.99 609.6 1801.92 610.667 1799.52 612.8C1797.25 614.933 1796.12 618 1796.12 622V647.8L1808.32 644.4ZM1853.05 599H1865.45L1867.25 604.8L1875.45 602.4C1881.05 600.667 1885.45 599.467 1888.65 598.8C1891.98 598 1895.11 597.6 1898.05 597.6C1902.85 597.6 1906.38 599.267 1908.65 602.6C1910.91 605.933 1912.05 610.267 1912.05 615.6V703H1896.05V620.8C1896.05 616.933 1895.78 614.267 1895.25 612.8C1894.71 611.2 1893.38 610.4 1891.25 610.4C1890.18 610.4 1882.78 612.533 1869.05 616.8V703H1853.05V599ZM1956.3 703C1948.96 703 1943.1 700.8 1938.7 696.4C1934.43 692 1932.3 686.067 1932.3 678.6V625.4C1932.3 617 1934.5 610.533 1938.9 606C1943.3 601.333 1949.7 599 1958.1 599H1980.3V611H1958.5C1955.43 611 1952.96 612.067 1951.1 614.2C1949.23 616.2 1948.3 618.8 1948.3 622V680C1948.3 683.2 1949.23 685.867 1951.1 688C1953.1 690 1955.63 691 1958.7 691H1980.3V703H1956.3ZM2015.06 703C2007.72 703 2001.86 700.8 1997.46 696.4C1993.19 692 1991.06 686.067 1991.06 678.6V625.4C1991.06 616.733 1993.46 609.933 1998.26 605C2003.06 600.067 2010.19 597.6 2019.66 597.6C2029.12 597.6 2036.19 600.067 2040.86 605C2045.66 609.933 2048.06 616.733 2048.06 625.4V634.6C2048.06 640.2 2046.46 644.467 2043.26 647.4C2040.06 650.2 2035.86 652.333 2030.66 653.8L2007.06 660.4V680C2007.06 683.2 2007.99 685.867 2009.86 688C2011.86 690 2014.39 691 2017.46 691H2039.06V703H2015.06ZM2019.26 644.4C2023.66 643.2 2026.59 642.333 2028.06 641.8C2029.66 641.133 2030.72 640.2 2031.26 639C2031.79 637.8 2032.06 635.8 2032.06 633V622C2032.06 617.733 2030.92 614.6 2028.66 612.6C2026.52 610.6 2023.52 609.6 2019.66 609.6C2015.92 609.6 2012.86 610.667 2010.46 612.8C2008.19 614.933 2007.06 618 2007.06 622V647.8L2019.26 644.4ZM946.22 883C942.14 883 938.343 881.98 934.83 879.94C931.43 877.9 928.71 875.123 926.67 871.61C924.743 868.097 923.78 864.13 923.78 859.71V850.87C923.78 845.543 925.083 841.067 927.69 837.44C930.41 833.813 933.753 831.263 937.72 829.79L958.8 821.97V813.98C958.8 811.26 957.95 809.05 956.25 807.35C954.663 805.537 952.567 804.63 949.96 804.63H930.75V794.6H951.15C957.383 794.6 962.313 796.47 965.94 800.21C969.68 803.837 971.55 808.823 971.55 815.17V883H946.22ZM958.8 872.63V832.68L943.84 838.29C940.893 839.423 938.797 840.953 937.55 842.88C936.417 844.807 935.85 847.867 935.85 852.06V861.58C935.85 864.64 936.983 867.247 939.25 869.4C941.517 871.553 944.237 872.63 947.41 872.63H958.8ZM985.19 872.8H999.64C1004.51 872.8 1008.03 871.497 1010.18 868.89C1012.45 866.17 1013.58 862.657 1013.58 858.35C1013.58 854.95 1012.56 852.06 1010.52 849.68C1008.48 847.3 1005.42 844.523 1001.34 841.35C997.827 838.517 994.993 836.08 992.84 834.04C990.8 831.887 988.987 829.28 987.4 826.22C985.927 823.047 985.19 819.42 985.19 815.34C985.19 809.333 987.173 804.403 991.14 800.55C995.22 796.583 1000.66 794.6 1007.46 794.6H1022.25V804.8H1010.01C1001.96 804.8 997.94 808.597 997.94 816.19C997.94 819.137 998.847 821.687 1000.66 823.84C1002.47 825.993 1005.31 828.543 1009.16 831.49C1012.67 834.21 1015.56 836.703 1017.83 838.97C1020.1 841.123 1022.02 843.9 1023.61 847.3C1025.2 850.587 1025.99 854.497 1025.99 859.03C1025.99 867.077 1023.84 873.083 1019.53 877.05C1015.34 881.017 1009.39 883 1001.68 883H985.19V872.8ZM1091.47 883C1085.24 883 1080.31 881.13 1076.68 877.39C1073.06 873.65 1071.24 868.607 1071.24 862.26V804.8H1061.04V794.6H1071.24V768.93L1084.84 763.83V794.6H1098.44V804.8H1084.84V863.45C1084.84 866.17 1085.58 868.437 1087.05 870.25C1088.64 871.95 1090.74 872.8 1093.34 872.8H1098.44V883H1091.47ZM1129.66 883C1123.43 883 1118.44 881.13 1114.7 877.39C1111.07 873.65 1109.26 868.607 1109.26 862.26V817.04C1109.26 809.673 1111.3 803.893 1115.38 799.7C1119.46 795.507 1125.52 793.41 1133.57 793.41C1141.62 793.41 1147.62 795.507 1151.59 799.7C1155.67 803.893 1157.71 809.673 1157.71 817.04V824.86C1157.71 829.62 1156.35 833.247 1153.63 835.74C1150.91 838.12 1147.34 839.933 1142.92 841.18L1122.86 846.79V863.45C1122.86 866.17 1123.65 868.437 1125.24 870.25C1126.94 871.95 1129.09 872.8 1131.7 872.8H1150.06V883H1129.66ZM1133.23 833.19C1136.97 832.17 1139.46 831.433 1140.71 830.98C1142.07 830.413 1142.98 829.62 1143.43 828.6C1143.88 827.58 1144.11 825.88 1144.11 823.5V814.15C1144.11 810.523 1143.15 807.86 1141.22 806.16C1139.41 804.46 1136.86 803.61 1133.57 803.61C1130.4 803.61 1127.79 804.517 1125.75 806.33C1123.82 808.143 1122.86 810.75 1122.86 814.15V836.08L1133.23 833.19ZM1171.25 794.6H1181.79L1183.32 799.53L1190.29 797.49C1195.05 796.017 1198.79 794.997 1201.51 794.43C1204.34 793.75 1207 793.41 1209.5 793.41C1213.58 793.41 1216.58 794.827 1218.51 797.66C1220.43 800.493 1221.4 804.177 1221.4 808.71V883H1207.8V813.13C1207.8 809.843 1207.57 807.577 1207.12 806.33C1206.66 804.97 1205.53 804.29 1203.72 804.29C1202.81 804.29 1196.52 806.103 1184.85 809.73V883H1171.25V794.6ZM1264.96 883C1258.73 883 1253.8 881.13 1250.17 877.39C1246.54 873.65 1244.73 868.607 1244.73 862.26V804.8H1234.53V794.6H1244.73V768.93L1258.33 763.83V794.6H1271.93V804.8H1258.33V863.45C1258.33 866.17 1259.07 868.437 1260.54 870.25C1262.13 871.95 1264.22 872.8 1266.83 872.8H1271.93V883H1264.96ZM1303.49 883C1299.41 883 1295.61 881.98 1292.1 879.94C1288.7 877.9 1285.98 875.123 1283.94 871.61C1282.01 868.097 1281.05 864.13 1281.05 859.71V850.87C1281.05 845.543 1282.35 841.067 1284.96 837.44C1287.68 833.813 1291.02 831.263 1294.99 829.79L1316.07 821.97V813.98C1316.07 811.26 1315.22 809.05 1313.52 807.35C1311.93 805.537 1309.83 804.63 1307.23 804.63H1288.02V794.6H1308.42C1314.65 794.6 1319.58 796.47 1323.21 800.21C1326.95 803.837 1328.82 808.823 1328.82 815.17V883H1303.49ZM1316.07 872.63V832.68L1301.11 838.29C1298.16 839.423 1296.06 840.953 1294.82 842.88C1293.68 844.807 1293.12 847.867 1293.12 852.06V861.58C1293.12 864.64 1294.25 867.247 1296.52 869.4C1298.78 871.553 1301.5 872.63 1304.68 872.63H1316.07ZM1372.21 883C1365.97 883 1361.04 881.13 1357.42 877.39C1353.79 873.65 1351.98 868.607 1351.98 862.26V804.8H1341.78V794.6H1351.98V768.93L1365.58 763.83V794.6H1379.18V804.8H1365.58V863.45C1365.58 866.17 1366.31 868.437 1367.79 870.25C1369.37 871.95 1371.47 872.8 1374.08 872.8H1379.18V883H1372.21ZM1392.71 780.15V766.55H1406.31V780.15H1392.71ZM1392.71 883V794.6H1406.31V883H1392.71ZM1439.32 883L1419.09 794.6H1433.2L1446.29 865.83L1459.21 794.6H1473.32L1453.09 883H1439.32ZM1504.03 883C1499.95 883 1496.16 881.98 1492.64 879.94C1489.24 877.9 1486.52 875.123 1484.48 871.61C1482.56 868.097 1481.59 864.13 1481.59 859.71V850.87C1481.59 845.543 1482.9 841.067 1485.5 837.44C1488.22 833.813 1491.57 831.263 1495.53 829.79L1516.61 821.97V813.98C1516.61 811.26 1515.76 809.05 1514.06 807.35C1512.48 805.537 1510.38 804.63 1507.77 804.63H1488.56V794.6H1508.96C1515.2 794.6 1520.13 796.47 1523.75 800.21C1527.49 803.837 1529.36 808.823 1529.36 815.17V883H1504.03ZM1516.61 872.63V832.68L1501.65 838.29C1498.71 839.423 1496.61 840.953 1495.36 842.88C1494.23 844.807 1493.66 847.867 1493.66 852.06V861.58C1493.66 864.64 1494.8 867.247 1497.06 869.4C1499.33 871.553 1502.05 872.63 1505.22 872.63H1516.61ZM1543 872.8H1557.45C1562.33 872.8 1565.84 871.497 1567.99 868.89C1570.26 866.17 1571.39 862.657 1571.39 858.35C1571.39 854.95 1570.37 852.06 1568.33 849.68C1566.29 847.3 1563.23 844.523 1559.15 841.35C1555.64 838.517 1552.81 836.08 1550.65 834.04C1548.61 831.887 1546.8 829.28 1545.21 826.22C1543.74 823.047 1543 819.42 1543 815.34C1543 809.333 1544.99 804.403 1548.95 800.55C1553.03 796.583 1558.47 794.6 1565.27 794.6H1580.06V804.8H1567.82C1559.78 804.8 1555.75 808.597 1555.75 816.19C1555.75 819.137 1556.66 821.687 1558.47 823.84C1560.29 825.993 1563.12 828.543 1566.97 831.49C1570.49 834.21 1573.38 836.703 1575.64 838.97C1577.91 841.123 1579.84 843.9 1581.42 847.3C1583.01 850.587 1583.8 854.497 1583.8 859.03C1583.8 867.077 1581.65 873.083 1577.34 877.05C1573.15 881.017 1567.2 883 1559.49 883H1543V872.8ZM1647.08 883C1639.94 883 1634.16 880.903 1629.74 876.71C1625.32 872.517 1623.11 866.907 1623.11 859.88V817.55C1623.11 812.677 1624.41 808.54 1627.02 805.14C1629.74 801.74 1633.08 799.417 1637.05 798.17L1659.83 790.18V764H1673.43V883H1647.08ZM1659.83 872.8V801.4L1644.7 806.5C1641.75 807.407 1639.65 808.88 1638.41 810.92C1637.27 812.847 1636.71 815.963 1636.71 820.27V859.88C1636.71 863.96 1637.9 867.133 1640.28 869.4C1642.66 871.667 1645.89 872.8 1649.97 872.8H1659.83ZM1711.54 883C1705.31 883 1700.32 881.13 1696.58 877.39C1692.96 873.65 1691.14 868.607 1691.14 862.26V817.04C1691.14 809.673 1693.18 803.893 1697.26 799.7C1701.34 795.507 1707.41 793.41 1715.45 793.41C1723.5 793.41 1729.51 795.507 1733.47 799.7C1737.55 803.893 1739.59 809.673 1739.59 817.04V824.86C1739.59 829.62 1738.23 833.247 1735.51 835.74C1732.79 838.12 1729.22 839.933 1724.8 841.18L1704.74 846.79V863.45C1704.74 866.17 1705.54 868.437 1707.12 870.25C1708.82 871.95 1710.98 872.8 1713.58 872.8H1731.94V883H1711.54ZM1715.11 833.19C1718.85 832.17 1721.35 831.433 1722.59 830.98C1723.95 830.413 1724.86 829.62 1725.31 828.6C1725.77 827.58 1725.99 825.88 1725.99 823.5V814.15C1725.99 810.523 1725.03 807.86 1723.1 806.16C1721.29 804.46 1718.74 803.61 1715.45 803.61C1712.28 803.61 1709.67 804.517 1707.63 806.33C1705.71 808.143 1704.74 810.75 1704.74 814.15V836.08L1715.11 833.19ZM1796.38 883C1790.14 883 1785.16 881.13 1781.42 877.39C1777.79 873.65 1775.98 868.607 1775.98 862.26V817.04C1775.98 809.673 1778.02 803.893 1782.1 799.7C1786.18 795.507 1792.24 793.41 1800.29 793.41C1808.33 793.41 1814.34 795.507 1818.31 799.7C1822.39 803.893 1824.43 809.673 1824.43 817.04V824.86C1824.43 829.62 1823.07 833.247 1820.35 835.74C1817.63 838.12 1814.06 839.933 1809.64 841.18L1789.58 846.79V863.45C1789.58 866.17 1790.37 868.437 1791.96 870.25C1793.66 871.95 1795.81 872.8 1798.42 872.8H1816.78V883H1796.38ZM1799.95 833.19C1803.69 832.17 1806.18 831.433 1807.43 830.98C1808.79 830.413 1809.69 829.62 1810.15 828.6C1810.6 827.58 1810.83 825.88 1810.83 823.5V814.15C1810.83 810.523 1809.86 807.86 1807.94 806.16C1806.12 804.46 1803.57 803.61 1800.29 803.61C1797.11 803.61 1794.51 804.517 1792.47 806.33C1790.54 808.143 1789.58 810.75 1789.58 814.15V836.08L1799.95 833.19ZM1832.87 872.8H1847.32C1852.19 872.8 1855.7 871.497 1857.86 868.89C1860.12 866.17 1861.26 862.657 1861.26 858.35C1861.26 854.95 1860.24 852.06 1858.2 849.68C1856.16 847.3 1853.1 844.523 1849.02 841.35C1845.5 838.517 1842.67 836.08 1840.52 834.04C1838.48 831.887 1836.66 829.28 1835.08 826.22C1833.6 823.047 1832.87 819.42 1832.87 815.34C1832.87 809.333 1834.85 804.403 1838.82 800.55C1842.9 796.583 1848.34 794.6 1855.14 794.6H1869.93V804.8H1857.69C1849.64 804.8 1845.62 808.597 1845.62 816.19C1845.62 819.137 1846.52 821.687 1848.34 823.84C1850.15 825.993 1852.98 828.543 1856.84 831.49C1860.35 834.21 1863.24 836.703 1865.51 838.97C1867.77 841.123 1869.7 843.9 1871.29 847.3C1872.87 850.587 1873.67 854.497 1873.67 859.03C1873.67 867.077 1871.51 873.083 1867.21 877.05C1863.01 881.017 1857.06 883 1849.36 883H1832.87V872.8ZM1913.58 883C1907.35 883 1902.42 881.13 1898.79 877.39C1895.17 873.65 1893.35 868.607 1893.35 862.26V804.8H1883.15V794.6H1893.35V768.93L1906.95 763.83V794.6H1920.55V804.8H1906.95V863.45C1906.95 866.17 1907.69 868.437 1909.16 870.25C1910.75 871.95 1912.85 872.8 1915.45 872.8H1920.55V883H1913.58ZM1952.11 883C1948.03 883 1944.23 881.98 1940.72 879.94C1937.32 877.9 1934.6 875.123 1932.56 871.61C1930.63 868.097 1929.67 864.13 1929.67 859.71V850.87C1929.67 845.543 1930.97 841.067 1933.58 837.44C1936.3 833.813 1939.64 831.263 1943.61 829.79L1964.69 821.97V813.98C1964.69 811.26 1963.84 809.05 1962.14 807.35C1960.55 805.537 1958.46 804.63 1955.85 804.63H1936.64V794.6H1957.04C1963.27 794.6 1968.2 796.47 1971.83 800.21C1975.57 803.837 1977.44 808.823 1977.44 815.17V883H1952.11ZM1964.69 872.63V832.68L1949.73 838.29C1946.78 839.423 1944.69 840.953 1943.44 842.88C1942.31 844.807 1941.74 847.867 1941.74 852.06V861.58C1941.74 864.64 1942.87 867.247 1945.14 869.4C1947.41 871.553 1950.13 872.63 1953.3 872.63H1964.69ZM1996.18 764H2009.78V790.52L2032.56 798.51C2036.53 799.87 2039.81 802.25 2042.42 805.65C2045.14 808.937 2046.5 813.017 2046.5 817.89V861.58C2046.5 867.7 2044.35 872.8 2040.04 876.88C2035.73 880.96 2030.46 883 2024.23 883H1996.18V764ZM2021.34 872.8C2024.51 872.8 2027.23 871.723 2029.5 869.57C2031.77 867.417 2032.9 864.753 2032.9 861.58V820.61C2032.9 816.303 2032.28 813.187 2031.03 811.26C2029.9 809.22 2027.86 807.747 2024.91 806.84L2009.78 801.74V872.8H2021.34ZM2080.26 883C2074.03 883 2069.04 881.13 2065.3 877.39C2061.68 873.65 2059.86 868.607 2059.86 862.26V817.04C2059.86 809.673 2061.9 803.893 2065.98 799.7C2070.06 795.507 2076.13 793.41 2084.17 793.41C2092.22 793.41 2098.23 795.507 2102.19 799.7C2106.27 803.893 2108.31 809.673 2108.31 817.04V824.86C2108.31 829.62 2106.95 833.247 2104.23 835.74C2101.51 838.12 2097.94 839.933 2093.52 841.18L2073.46 846.79V863.45C2073.46 866.17 2074.26 868.437 2075.84 870.25C2077.54 871.95 2079.7 872.8 2082.3 872.8H2100.66V883H2080.26ZM2083.83 833.19C2087.57 832.17 2090.07 831.433 2091.31 830.98C2092.67 830.413 2093.58 829.62 2094.03 828.6C2094.49 827.58 2094.71 825.88 2094.71 823.5V814.15C2094.71 810.523 2093.75 807.86 2091.82 806.16C2090.01 804.46 2087.46 803.61 2084.17 803.61C2081 803.61 2078.39 804.517 2076.35 806.33C2074.43 808.143 2073.46 810.75 2073.46 814.15V836.08L2083.83 833.19ZM2122.02 883V764H2135.62V883H2122.02ZM2173.57 883C2167.33 883 2162.35 881.13 2158.61 877.39C2154.98 873.65 2153.17 868.607 2153.17 862.26V817.04C2153.17 809.673 2155.21 803.893 2159.29 799.7C2163.37 795.507 2169.43 793.41 2177.48 793.41C2185.52 793.41 2191.53 795.507 2195.5 799.7C2199.58 803.893 2201.62 809.673 2201.62 817.04V824.86C2201.62 829.62 2200.26 833.247 2197.54 835.74C2194.82 838.12 2191.25 839.933 2186.83 841.18L2166.77 846.79V863.45C2166.77 866.17 2167.56 868.437 2169.15 870.25C2170.85 871.95 2173 872.8 2175.61 872.8H2193.97V883H2173.57ZM2177.14 833.19C2180.88 832.17 2183.37 831.433 2184.62 830.98C2185.98 830.413 2186.88 829.62 2187.34 828.6C2187.79 827.58 2188.02 825.88 2188.02 823.5V814.15C2188.02 810.523 2187.05 807.86 2185.13 806.16C2183.31 804.46 2180.76 803.61 2177.48 803.61C2174.3 803.61 2171.7 804.517 2169.66 806.33C2167.73 808.143 2166.77 810.75 2166.77 814.15V836.08L2177.14 833.19ZM2233.85 883C2227.62 883 2222.63 881.13 2218.89 877.39C2215.27 873.65 2213.45 868.607 2213.45 862.26V817.04C2213.45 809.9 2215.32 804.403 2219.06 800.55C2222.8 796.583 2228.24 794.6 2235.38 794.6H2254.25V804.8H2235.72C2233.12 804.8 2231.02 805.707 2229.43 807.52C2227.85 809.22 2227.05 811.43 2227.05 814.15V863.45C2227.05 866.17 2227.85 868.437 2229.43 870.25C2231.13 871.95 2233.29 872.8 2235.89 872.8H2254.25V883H2233.85ZM2266.12 780.15V766.55H2279.72V780.15H2266.12ZM2266.12 883V794.6H2279.72V883H2266.12ZM2300.15 794.6H2310.69L2312.22 799.53L2319.19 797.49C2323.95 796.017 2327.69 794.997 2330.41 794.43C2333.25 793.75 2335.91 793.41 2338.4 793.41C2343.28 793.41 2346.68 795.563 2348.6 799.87C2351.78 798.737 2356.25 797.377 2362.03 795.79C2367.81 794.203 2372.06 793.41 2374.78 793.41C2378.86 793.41 2381.87 794.827 2383.79 797.66C2385.83 800.493 2386.85 804.177 2386.85 808.71V883H2373.25V813.13C2373.25 809.843 2373.03 807.577 2372.57 806.33C2372.12 804.97 2370.99 804.29 2369.17 804.29C2368.27 804.29 2362.03 806.103 2350.47 809.73V883H2336.87V813.13C2336.87 809.843 2336.65 807.577 2336.19 806.33C2335.74 804.97 2334.61 804.29 2332.79 804.29C2331.89 804.29 2325.54 806.103 2313.75 809.73V883H2300.15V794.6ZM2423.25 883C2417.02 883 2412.03 881.13 2408.29 877.39C2404.67 873.65 2402.85 868.607 2402.85 862.26V817.04C2402.85 809.673 2404.89 803.893 2408.97 799.7C2413.05 795.507 2419.12 793.41 2427.16 793.41C2435.21 793.41 2441.22 795.507 2445.18 799.7C2449.26 803.893 2451.3 809.673 2451.3 817.04V824.86C2451.3 829.62 2449.94 833.247 2447.22 835.74C2444.5 838.12 2440.93 839.933 2436.51 841.18L2416.45 846.79V863.45C2416.45 866.17 2417.25 868.437 2418.83 870.25C2420.53 871.95 2422.69 872.8 2425.29 872.8H2443.65V883H2423.25ZM2426.82 833.19C2430.56 832.17 2433.06 831.433 2434.3 830.98C2435.66 830.413 2436.57 829.62 2437.02 828.6C2437.48 827.58 2437.7 825.88 2437.7 823.5V814.15C2437.7 810.523 2436.74 807.86 2434.81 806.16C2433 804.46 2430.45 803.61 2427.16 803.61C2423.99 803.61 2421.38 804.517 2419.34 806.33C2417.42 808.143 2416.45 810.75 2416.45 814.15V836.08L2426.82 833.19ZM2464.84 794.6H2475.38L2476.91 799.53L2483.88 797.49C2488.64 796.017 2492.38 794.997 2495.1 794.43C2497.93 793.75 2500.6 793.41 2503.09 793.41C2507.17 793.41 2510.17 794.827 2512.1 797.66C2514.03 800.493 2514.99 804.177 2514.99 808.71V883H2501.39V813.13C2501.39 809.843 2501.16 807.577 2500.71 806.33C2500.26 804.97 2499.12 804.29 2497.31 804.29C2496.4 804.29 2490.11 806.103 2478.44 809.73V883H2464.84V794.6ZM2558.55 883C2552.32 883 2547.39 881.13 2543.76 877.39C2540.14 873.65 2538.32 868.607 2538.32 862.26V804.8H2528.12V794.6H2538.32V768.93L2551.92 763.83V794.6H2565.52V804.8H2551.92V863.45C2551.92 866.17 2552.66 868.437 2554.13 870.25C2555.72 871.95 2557.82 872.8 2560.42 872.8H2565.52V883H2558.55ZM2600.65 884.19C2592.72 884.19 2586.54 882.207 2582.12 878.24C2577.81 874.16 2575.66 868.55 2575.66 861.41V816.19C2575.66 809.05 2577.81 803.497 2582.12 799.53C2586.54 795.45 2592.72 793.41 2600.65 793.41C2608.58 793.41 2614.7 795.45 2619.01 799.53C2623.43 803.497 2625.64 809.05 2625.64 816.19V861.41C2625.64 868.55 2623.43 874.16 2619.01 878.24C2614.7 882.207 2608.58 884.19 2600.65 884.19ZM2600.65 873.65C2604.28 873.65 2607.11 872.63 2609.15 870.59C2611.3 868.437 2612.38 865.377 2612.38 861.41V816.19C2612.38 812.223 2611.3 809.22 2609.15 807.18C2607.11 805.027 2604.28 803.95 2600.65 803.95C2597.02 803.95 2594.13 805.027 2591.98 807.18C2589.94 809.22 2588.92 812.223 2588.92 816.19V861.41C2588.92 865.377 2589.94 868.437 2591.98 870.59C2594.13 872.63 2597.02 873.65 2600.65 873.65ZM2690.65 883C2683.51 883 2677.73 880.903 2673.31 876.71C2668.89 872.517 2666.68 866.907 2666.68 859.88V817.55C2666.68 812.677 2667.98 808.54 2670.59 805.14C2673.31 801.74 2676.65 799.417 2680.62 798.17L2703.4 790.18V764H2717V883H2690.65ZM2703.4 872.8V801.4L2688.27 806.5C2685.32 807.407 2683.23 808.88 2681.98 810.92C2680.85 812.847 2680.28 815.963 2680.28 820.27V859.88C2680.28 863.96 2681.47 867.133 2683.85 869.4C2686.23 871.667 2689.46 872.8 2693.54 872.8H2703.4ZM2755.12 883C2748.88 883 2743.9 881.13 2740.16 877.39C2736.53 873.65 2734.72 868.607 2734.72 862.26V817.04C2734.72 809.673 2736.76 803.893 2740.84 799.7C2744.92 795.507 2750.98 793.41 2759.03 793.41C2767.07 793.41 2773.08 795.507 2777.05 799.7C2781.13 803.893 2783.17 809.673 2783.17 817.04V824.86C2783.17 829.62 2781.81 833.247 2779.09 835.74C2776.37 838.12 2772.8 839.933 2768.38 841.18L2748.32 846.79V863.45C2748.32 866.17 2749.11 868.437 2750.7 870.25C2752.4 871.95 2754.55 872.8 2757.16 872.8H2775.52V883H2755.12ZM2758.69 833.19C2762.43 832.17 2764.92 831.433 2766.17 830.98C2767.53 830.413 2768.43 829.62 2768.89 828.6C2769.34 827.58 2769.57 825.88 2769.57 823.5V814.15C2769.57 810.523 2768.6 807.86 2766.68 806.16C2764.86 804.46 2762.31 803.61 2759.03 803.61C2755.85 803.61 2753.25 804.517 2751.21 806.33C2749.28 808.143 2748.32 810.75 2748.32 814.15V836.08L2758.69 833.19ZM928.2 974.6H938.74L940.27 980.89L944.52 978.85C948.147 977.037 951.15 975.677 953.53 974.77C956.023 973.863 958.517 973.41 961.01 973.41V983.44C959.537 983.44 957.553 983.893 955.06 984.8C952.567 985.593 948.147 987.52 941.8 990.58V1063H928.2V974.6ZM991.368 1063C985.135 1063 980.148 1061.13 976.408 1057.39C972.782 1053.65 970.968 1048.61 970.968 1042.26V997.04C970.968 989.673 973.008 983.893 977.088 979.7C981.168 975.507 987.232 973.41 995.278 973.41C1003.32 973.41 1009.33 975.507 1013.3 979.7C1017.38 983.893 1019.42 989.673 1019.42 997.04V1004.86C1019.42 1009.62 1018.06 1013.25 1015.34 1015.74C1012.62 1018.12 1009.05 1019.93 1004.63 1021.18L984.568 1026.79V1043.45C984.568 1046.17 985.362 1048.44 986.948 1050.25C988.648 1051.95 990.802 1052.8 993.408 1052.8H1011.77V1063H991.368ZM994.938 1013.19C998.678 1012.17 1001.17 1011.43 1002.42 1010.98C1003.78 1010.41 1004.68 1009.62 1005.14 1008.6C1005.59 1007.58 1005.82 1005.88 1005.82 1003.5V994.15C1005.82 990.523 1004.85 987.86 1002.93 986.16C1001.11 984.46 998.565 983.61 995.278 983.61C992.105 983.61 989.498 984.517 987.458 986.33C985.532 988.143 984.568 990.75 984.568 994.15V1016.08L994.938 1013.19ZM1040.1 1080H1057.61C1060.21 1080 1062.25 1079.09 1063.73 1077.28C1065.31 1075.58 1066.11 1073.37 1066.11 1070.65V1063.17H1052C1045.76 1063.17 1040.49 1061.13 1036.19 1057.05C1031.88 1052.97 1029.73 1047.87 1029.73 1041.75V996.02C1029.73 989.9 1031.88 984.8 1036.19 980.72C1040.61 976.64 1045.93 974.6 1052.17 974.6H1079.88V1069.46C1079.88 1075.81 1078.12 1080.85 1074.61 1084.59C1071.21 1088.33 1066.39 1090.2 1060.16 1090.2H1040.1V1080ZM1066.28 1052.97V984.8H1054.89C1051.71 984.8 1048.99 985.877 1046.73 988.03C1044.46 990.183 1043.33 992.847 1043.33 996.02V1041.75C1043.33 1044.92 1044.46 1047.59 1046.73 1049.74C1048.99 1051.89 1051.71 1052.97 1054.89 1052.97H1066.28ZM1098.53 960.15V946.55H1112.13V960.15H1098.53ZM1098.53 1063V974.6H1112.13V1063H1098.53ZM1127.47 1052.8H1141.92C1146.79 1052.8 1150.3 1051.5 1152.46 1048.89C1154.72 1046.17 1155.86 1042.66 1155.86 1038.35C1155.86 1034.95 1154.84 1032.06 1152.8 1029.68C1150.76 1027.3 1147.7 1024.52 1143.62 1021.35C1140.1 1018.52 1137.27 1016.08 1135.12 1014.04C1133.08 1011.89 1131.26 1009.28 1129.68 1006.22C1128.2 1003.05 1127.47 999.42 1127.47 995.34C1127.47 989.333 1129.45 984.403 1133.42 980.55C1137.5 976.583 1142.94 974.6 1149.74 974.6H1164.53V984.8H1152.29C1144.24 984.8 1140.22 988.597 1140.22 996.19C1140.22 999.137 1141.12 1001.69 1142.94 1003.84C1144.75 1005.99 1147.58 1008.54 1151.44 1011.49C1154.95 1014.21 1157.84 1016.7 1160.11 1018.97C1162.37 1021.12 1164.3 1023.9 1165.89 1027.3C1167.47 1030.59 1168.27 1034.5 1168.27 1039.03C1168.27 1047.08 1166.11 1053.08 1161.81 1057.05C1157.61 1061.02 1151.66 1063 1143.96 1063H1127.47V1052.8ZM1208.18 1063C1201.95 1063 1197.02 1061.13 1193.39 1057.39C1189.77 1053.65 1187.95 1048.61 1187.95 1042.26V984.8H1177.75V974.6H1187.95V948.93L1201.55 943.83V974.6H1215.15V984.8H1201.55V1043.45C1201.55 1046.17 1202.29 1048.44 1203.76 1050.25C1205.35 1051.95 1207.45 1052.8 1210.05 1052.8H1215.15V1063H1208.18ZM1228.69 974.6H1239.23L1240.76 980.89L1245.01 978.85C1248.63 977.037 1251.64 975.677 1254.02 974.77C1256.51 973.863 1259 973.41 1261.5 973.41V983.44C1260.02 983.44 1258.04 983.893 1255.55 984.8C1253.05 985.593 1248.63 987.52 1242.29 990.58V1063H1228.69V974.6ZM1295.77 1064.19C1287.83 1064.19 1281.66 1062.21 1277.24 1058.24C1272.93 1054.16 1270.78 1048.55 1270.78 1041.41V996.19C1270.78 989.05 1272.93 983.497 1277.24 979.53C1281.66 975.45 1287.83 973.41 1295.77 973.41C1303.7 973.41 1309.82 975.45 1314.13 979.53C1318.55 983.497 1320.76 989.05 1320.76 996.19V1041.41C1320.76 1048.55 1318.55 1054.16 1314.13 1058.24C1309.82 1062.21 1303.7 1064.19 1295.77 1064.19ZM1295.77 1053.65C1299.39 1053.65 1302.23 1052.63 1304.27 1050.59C1306.42 1048.44 1307.5 1045.38 1307.5 1041.41V996.19C1307.5 992.223 1306.42 989.22 1304.27 987.18C1302.23 985.027 1299.39 983.95 1295.77 983.95C1292.14 983.95 1289.25 985.027 1287.1 987.18C1285.06 989.22 1284.04 992.223 1284.04 996.19V1041.41C1284.04 1045.38 1285.06 1048.44 1287.1 1050.59C1289.25 1052.63 1292.14 1053.65 1295.77 1053.65ZM1332.66 1052.8H1347.11C1351.98 1052.8 1355.5 1051.5 1357.65 1048.89C1359.92 1046.17 1361.05 1042.66 1361.05 1038.35C1361.05 1034.95 1360.03 1032.06 1357.99 1029.68C1355.95 1027.3 1352.89 1024.52 1348.81 1021.35C1345.3 1018.52 1342.46 1016.08 1340.31 1014.04C1338.27 1011.89 1336.46 1009.28 1334.87 1006.22C1333.4 1003.05 1332.66 999.42 1332.66 995.34C1332.66 989.333 1334.64 984.403 1338.61 980.55C1342.69 976.583 1348.13 974.6 1354.93 974.6H1369.72V984.8H1357.48C1349.43 984.8 1345.41 988.597 1345.41 996.19C1345.41 999.137 1346.32 1001.69 1348.13 1003.84C1349.94 1005.99 1352.78 1008.54 1356.63 1011.49C1360.14 1014.21 1363.03 1016.7 1365.3 1018.97C1367.57 1021.12 1369.49 1023.9 1371.08 1027.3C1372.67 1030.59 1373.46 1034.5 1373.46 1039.03C1373.46 1047.08 1371.31 1053.08 1367 1057.05C1362.81 1061.02 1356.86 1063 1349.15 1063H1332.66V1052.8ZM1432.99 1063C1426.76 1063 1421.77 1061.13 1418.03 1057.39C1414.41 1053.65 1412.59 1048.61 1412.59 1042.26V997.04C1412.59 989.9 1414.46 984.403 1418.2 980.55C1421.94 976.583 1427.38 974.6 1434.52 974.6H1453.39V984.8H1434.86C1432.26 984.8 1430.16 985.707 1428.57 987.52C1426.99 989.22 1426.19 991.43 1426.19 994.15V1043.45C1426.19 1046.17 1426.99 1048.44 1428.57 1050.25C1430.27 1051.95 1432.43 1052.8 1435.03 1052.8H1453.39V1063H1432.99ZM1465.26 960.15V946.55H1478.86V960.15H1465.26ZM1465.26 1063V974.6H1478.86V1063H1465.26ZM1516.97 1063C1510.74 1063 1505.75 1061.13 1502.01 1057.39C1498.39 1053.65 1496.57 1048.61 1496.57 1042.26V997.04C1496.57 989.673 1498.61 983.893 1502.69 979.7C1506.77 975.507 1512.84 973.41 1520.88 973.41C1528.93 973.41 1534.94 975.507 1538.9 979.7C1542.98 983.893 1545.02 989.673 1545.02 997.04V1004.86C1545.02 1009.62 1543.66 1013.25 1540.94 1015.74C1538.22 1018.12 1534.65 1019.93 1530.23 1021.18L1510.17 1026.79V1043.45C1510.17 1046.17 1510.97 1048.44 1512.55 1050.25C1514.25 1051.95 1516.41 1052.8 1519.01 1052.8H1537.37V1063H1516.97ZM1520.54 1013.19C1524.28 1012.17 1526.78 1011.43 1528.02 1010.98C1529.38 1010.41 1530.29 1009.62 1530.74 1008.6C1531.2 1007.58 1531.42 1005.88 1531.42 1003.5V994.15C1531.42 990.523 1530.46 987.86 1528.53 986.16C1526.72 984.46 1524.17 983.61 1520.88 983.61C1517.71 983.61 1515.1 984.517 1513.06 986.33C1511.14 988.143 1510.17 990.75 1510.17 994.15V1016.08L1520.54 1013.19ZM1558.56 974.6H1569.1L1570.63 979.53L1577.6 977.49C1582.36 976.017 1586.1 974.997 1588.82 974.43C1591.65 973.75 1594.32 973.41 1596.81 973.41C1600.89 973.41 1603.89 974.827 1605.82 977.66C1607.75 980.493 1608.71 984.177 1608.71 988.71V1063H1595.11V993.13C1595.11 989.843 1594.88 987.577 1594.43 986.33C1593.98 984.97 1592.84 984.29 1591.03 984.29C1590.12 984.29 1583.83 986.103 1572.16 989.73V1063H1558.56V974.6ZM1652.27 1063C1646.04 1063 1641.11 1061.13 1637.48 1057.39C1633.86 1053.65 1632.04 1048.61 1632.04 1042.26V984.8H1621.84V974.6H1632.04V948.93L1645.64 943.83V974.6H1659.24V984.8H1645.64V1043.45C1645.64 1046.17 1646.38 1048.44 1647.85 1050.25C1649.44 1051.95 1651.54 1052.8 1654.14 1052.8H1659.24V1063H1652.27ZM1676.52 967.97L1670.91 962.87L1690.63 946.04L1699.3 954.03L1676.52 967.97ZM1672.78 1063V974.6H1686.38V1063H1672.78ZM1711.06 985.82H1700.86V974.6H1711.06V964.74C1711.06 958.393 1712.88 953.35 1716.5 949.61C1720.13 945.87 1725.06 944 1731.29 944H1738.77V954.2H1733.67C1731.07 954.2 1728.91 955.107 1727.21 956.92C1725.51 958.733 1724.66 960.943 1724.66 963.55V974.6H1738.43V985.82H1724.66V1063H1711.06V985.82ZM1749.48 960.15V946.55H1763.08V960.15H1749.48ZM1749.48 1063V974.6H1763.08V1063H1749.48ZM1802.21 1063C1795.98 1063 1790.99 1061.13 1787.25 1057.39C1783.63 1053.65 1781.81 1048.61 1781.81 1042.26V997.04C1781.81 989.9 1783.68 984.403 1787.42 980.55C1791.16 976.583 1796.6 974.6 1803.74 974.6H1822.61V984.8H1804.08C1801.48 984.8 1799.38 985.707 1797.79 987.52C1796.21 989.22 1795.41 991.43 1795.41 994.15V1043.45C1795.41 1046.17 1796.21 1048.44 1797.79 1050.25C1799.49 1051.95 1801.65 1052.8 1804.25 1052.8H1822.61V1063H1802.21ZM1856.07 1064.19C1848.14 1064.19 1841.96 1062.21 1837.54 1058.24C1833.23 1054.16 1831.08 1048.55 1831.08 1041.41V996.19C1831.08 989.05 1833.23 983.497 1837.54 979.53C1841.96 975.45 1848.14 973.41 1856.07 973.41C1864 973.41 1870.12 975.45 1874.43 979.53C1878.85 983.497 1881.06 989.05 1881.06 996.19V1041.41C1881.06 1048.55 1878.85 1054.16 1874.43 1058.24C1870.12 1062.21 1864 1064.19 1856.07 1064.19ZM1856.07 1053.65C1859.7 1053.65 1862.53 1052.63 1864.57 1050.59C1866.72 1048.44 1867.8 1045.38 1867.8 1041.41V996.19C1867.8 992.223 1866.72 989.22 1864.57 987.18C1862.53 985.027 1859.7 983.95 1856.07 983.95C1852.44 983.95 1849.55 985.027 1847.4 987.18C1845.36 989.22 1844.34 992.223 1844.34 996.19V1041.41C1844.34 1045.38 1845.36 1048.44 1847.4 1050.59C1849.55 1052.63 1852.44 1053.65 1856.07 1053.65ZM1892.96 1052.8H1907.41C1912.29 1052.8 1915.8 1051.5 1917.95 1048.89C1920.22 1046.17 1921.35 1042.66 1921.35 1038.35C1921.35 1034.95 1920.33 1032.06 1918.29 1029.68C1916.25 1027.3 1913.19 1024.52 1909.11 1021.35C1905.6 1018.52 1902.77 1016.08 1900.61 1014.04C1898.57 1011.89 1896.76 1009.28 1895.17 1006.22C1893.7 1003.05 1892.96 999.42 1892.96 995.34C1892.96 989.333 1894.95 984.403 1898.91 980.55C1902.99 976.583 1908.43 974.6 1915.23 974.6H1930.02V984.8H1917.78C1909.74 984.8 1905.71 988.597 1905.71 996.19C1905.71 999.137 1906.62 1001.69 1908.43 1003.84C1910.25 1005.99 1913.08 1008.54 1916.93 1011.49C1920.45 1014.21 1923.34 1016.7 1925.6 1018.97C1927.87 1021.12 1929.8 1023.9 1931.38 1027.3C1932.97 1030.59 1933.76 1034.5 1933.76 1039.03C1933.76 1047.08 1931.61 1053.08 1927.3 1057.05C1923.11 1061.02 1917.16 1063 1909.45 1063H1892.96V1052.8ZM1974.6 960.15V946.55H1988.2V960.15H1974.6ZM1974.6 1063V974.6H1988.2V1063H1974.6ZM2008.63 974.6H2019.17L2020.7 979.53L2027.67 977.49C2032.43 976.017 2036.17 974.997 2038.89 974.43C2041.72 973.75 2044.39 973.41 2046.88 973.41C2050.96 973.41 2053.96 974.827 2055.89 977.66C2057.82 980.493 2058.78 984.177 2058.78 988.71V1063H2045.18V993.13C2045.18 989.843 2044.95 987.577 2044.5 986.33C2044.05 984.97 2042.91 984.29 2041.1 984.29C2040.19 984.29 2033.9 986.103 2022.23 989.73V1063H2008.63V974.6ZM2102.34 1063C2096.11 1063 2091.18 1061.13 2087.55 1057.39C2083.93 1053.65 2082.11 1048.61 2082.11 1042.26V984.8H2071.91V974.6H2082.11V948.93L2095.71 943.83V974.6H2109.31V984.8H2095.71V1043.45C2095.71 1046.17 2096.45 1048.44 2097.92 1050.25C2099.51 1051.95 2101.61 1052.8 2104.21 1052.8H2109.31V1063H2102.34ZM2140.53 1063C2134.3 1063 2129.31 1061.13 2125.57 1057.39C2121.94 1053.65 2120.13 1048.61 2120.13 1042.26V997.04C2120.13 989.673 2122.17 983.893 2126.25 979.7C2130.33 975.507 2136.39 973.41 2144.44 973.41C2152.49 973.41 2158.49 975.507 2162.46 979.7C2166.54 983.893 2168.58 989.673 2168.58 997.04V1004.86C2168.58 1009.62 2167.22 1013.25 2164.5 1015.74C2161.78 1018.12 2158.21 1019.93 2153.79 1021.18L2133.73 1026.79V1043.45C2133.73 1046.17 2134.52 1048.44 2136.11 1050.25C2137.81 1051.95 2139.96 1052.8 2142.57 1052.8H2160.93V1063H2140.53ZM2144.1 1013.19C2147.84 1012.17 2150.33 1011.43 2151.58 1010.98C2152.94 1010.41 2153.85 1009.62 2154.3 1008.6C2154.75 1007.58 2154.98 1005.88 2154.98 1003.5V994.15C2154.98 990.523 2154.02 987.86 2152.09 986.16C2150.28 984.46 2147.73 983.61 2144.44 983.61C2141.27 983.61 2138.66 984.517 2136.62 986.33C2134.69 988.143 2133.73 990.75 2133.73 994.15V1016.08L2144.1 1013.19ZM2182.12 974.6H2192.66L2194.19 980.89L2198.44 978.85C2202.06 977.037 2205.07 975.677 2207.45 974.77C2209.94 973.863 2212.43 973.41 2214.93 973.41V983.44C2213.45 983.44 2211.47 983.893 2208.98 984.8C2206.48 985.593 2202.06 987.52 2195.72 990.58V1063H2182.12V974.6ZM2245.62 1063C2241.54 1063 2237.75 1061.98 2234.23 1059.94C2230.83 1057.9 2228.11 1055.12 2226.07 1051.61C2224.15 1048.1 2223.18 1044.13 2223.18 1039.71V1030.87C2223.18 1025.54 2224.49 1021.07 2227.09 1017.44C2229.81 1013.81 2233.16 1011.26 2237.12 1009.79L2258.2 1001.97V993.98C2258.2 991.26 2257.35 989.05 2255.65 987.35C2254.07 985.537 2251.97 984.63 2249.36 984.63H2230.15V974.6H2250.55C2256.79 974.6 2261.72 976.47 2265.34 980.21C2269.08 983.837 2270.95 988.823 2270.95 995.17V1063H2245.62ZM2258.2 1052.63V1012.68L2243.24 1018.29C2240.3 1019.42 2238.2 1020.95 2236.95 1022.88C2235.82 1024.81 2235.25 1027.87 2235.25 1032.06V1041.58C2235.25 1044.64 2236.39 1047.25 2238.65 1049.4C2240.92 1051.55 2243.64 1052.63 2246.81 1052.63H2258.2ZM2314.34 1063C2308.11 1063 2303.18 1061.13 2299.55 1057.39C2295.93 1053.65 2294.11 1048.61 2294.11 1042.26V984.8H2283.91V974.6H2294.11V948.93L2307.71 943.83V974.6H2321.31V984.8H2307.71V1043.45C2307.71 1046.17 2308.45 1048.44 2309.92 1050.25C2311.51 1051.95 2313.61 1052.8 2316.21 1052.8H2321.31V1063H2314.34ZM2334.85 960.15V946.55H2348.45V960.15H2334.85ZM2334.85 1063V974.6H2348.45V1063H2334.85ZM2381.46 1063L2361.23 974.6H2375.34L2388.43 1045.83L2401.35 974.6H2415.46L2395.23 1063H2381.46ZM2449.74 1064.19C2441.81 1064.19 2435.63 1062.21 2431.21 1058.24C2426.9 1054.16 2424.75 1048.55 2424.75 1041.41V996.19C2424.75 989.05 2426.9 983.497 2431.21 979.53C2435.63 975.45 2441.81 973.41 2449.74 973.41C2457.67 973.41 2463.79 975.45 2468.1 979.53C2472.52 983.497 2474.73 989.05 2474.73 996.19V1041.41C2474.73 1048.55 2472.52 1054.16 2468.1 1058.24C2463.79 1062.21 2457.67 1064.19 2449.74 1064.19ZM2449.74 1053.65C2453.37 1053.65 2456.2 1052.63 2458.24 1050.59C2460.39 1048.44 2461.47 1045.38 2461.47 1041.41V996.19C2461.47 992.223 2460.39 989.22 2458.24 987.18C2456.2 985.027 2453.37 983.95 2449.74 983.95C2446.11 983.95 2443.22 985.027 2441.07 987.18C2439.03 989.22 2438.01 992.223 2438.01 996.19V1041.41C2438.01 1045.38 2439.03 1048.44 2441.07 1050.59C2443.22 1052.63 2446.11 1053.65 2449.74 1053.65ZM2486.64 1052.8H2501.09C2505.96 1052.8 2509.47 1051.5 2511.63 1048.89C2513.89 1046.17 2515.03 1042.66 2515.03 1038.35C2515.03 1034.95 2514.01 1032.06 2511.97 1029.68C2509.93 1027.3 2506.87 1024.52 2502.79 1021.35C2499.27 1018.52 2496.44 1016.08 2494.29 1014.04C2492.25 1011.89 2490.43 1009.28 2488.85 1006.22C2487.37 1003.05 2486.64 999.42 2486.64 995.34C2486.64 989.333 2488.62 984.403 2492.59 980.55C2496.67 976.583 2502.11 974.6 2508.91 974.6H2523.7V984.8H2511.46C2503.41 984.8 2499.39 988.597 2499.39 996.19C2499.39 999.137 2500.29 1001.69 2502.11 1003.84C2503.92 1005.99 2506.75 1008.54 2510.61 1011.49C2514.12 1014.21 2517.01 1016.7 2519.28 1018.97C2521.54 1021.12 2523.47 1023.9 2525.06 1027.3C2526.64 1030.59 2527.44 1034.5 2527.44 1039.03C2527.44 1047.08 2525.28 1053.08 2520.98 1057.05C2516.78 1061.02 2510.83 1063 2503.13 1063H2486.64V1052.8Z" fill="white"/>
<path d="M493.69 932.664L402.821 841.794C395.06 834.034 395.06 821.451 402.821 813.69L493.69 722.821C501.451 715.06 514.034 715.06 521.794 722.821C529.555 730.581 529.555 743.164 521.794 750.925C521.786 750.933 521.778 750.941 521.769 750.949L444.977 827.742L521.794 904.56C529.555 912.321 529.555 924.903 521.794 932.664C514.034 940.425 501.451 940.425 493.69 932.664Z" fill="white"/>
<path d="M650.693 722.82L741.562 813.69C749.323 821.451 749.323 834.033 741.562 841.794L650.693 932.664C642.932 940.425 630.349 940.425 622.588 932.664C614.828 924.903 614.828 912.32 622.588 904.56C622.597 904.551 622.605 904.543 622.613 904.535L699.406 827.742L622.588 750.924C614.828 743.164 614.828 730.581 622.588 722.82C630.349 715.059 642.932 715.059 650.693 722.82Z" fill="white"/>
<line x1="603" y1="796.284" x2="540.284" y2="859" stroke="white" stroke-width="40" stroke-linecap="round"/>
<line x1="609.461" y1="666.25" x2="684.299" y2="712.553" stroke="white" stroke-opacity="0.6" stroke-width="30" stroke-linecap="round"/>
<line x1="618.25" y1="623.217" x2="708.315" y2="654.437" stroke="white" stroke-opacity="0.4" stroke-width="30" stroke-linecap="round"/>
<line x1="607.026" y1="578.662" x2="693.676" y2="588.784" stroke="white" stroke-opacity="0.2" stroke-width="30" stroke-linecap="round"/>
<line x1="587.774" y1="540.43" x2="671.389" y2="525.344" stroke="white" stroke-opacity="0.1" stroke-width="30" stroke-linecap="round"/>
<line x1="564.339" y1="506.994" x2="628.059" y2="473.662" stroke="white" stroke-opacity="0.04" stroke-width="30" stroke-linecap="round"/>
<line x1="509.114" y1="988.953" x2="434.276" y2="942.65" stroke="white" stroke-opacity="0.6" stroke-width="30" stroke-linecap="round"/>
<line x1="500.325" y1="1031.99" x2="410.259" y2="1000.77" stroke="white" stroke-opacity="0.4" stroke-width="30" stroke-linecap="round"/>
<line x1="511.548" y1="1076.54" x2="424.899" y2="1066.42" stroke="white" stroke-opacity="0.2" stroke-width="30" stroke-linecap="round"/>
<line x1="530.8" y1="1114.77" x2="447.185" y2="1129.86" stroke="white" stroke-opacity="0.1" stroke-width="30" stroke-linecap="round"/>
<line x1="554.236" y1="1148.21" x2="490.515" y2="1181.54" stroke="white" stroke-opacity="0.04" stroke-width="30" stroke-linecap="round"/>
</svg>
