<svg width="3745" height="1780" viewBox="0 0 3745 1780" fill="none" xmlns="http://www.w3.org/2000/svg">
<path d="M951.2 703C946.4 703 941.933 701.8 937.8 699.4C933.8 697 930.6 693.733 928.2 689.6C925.933 685.467 924.8 680.8 924.8 675.6V665.2C924.8 658.933 926.333 653.667 929.4 649.4C932.6 645.133 936.533 642.133 941.2 640.4L966 631.2V621.8C966 618.6 965 616 963 614C961.133 611.867 958.667 610.8 955.6 610.8H933V599H957C964.333 599 970.133 601.2 974.4 605.6C978.8 609.867 981 615.733 981 623.2V703H951.2ZM966 690.8V643.8L948.4 650.4C944.933 651.733 942.467 653.533 941 655.8C939.667 658.067 939 661.667 939 666.6V677.8C939 681.4 940.333 684.467 943 687C945.667 689.533 948.867 690.8 952.6 690.8H966ZM1015.25 704.4C1010.45 704.4 1006.85 702.733 1004.45 699.4C1002.18 696.067 1001.05 691.733 1001.05 686.4V599H1017.05V681.2C1017.05 684.933 1017.31 687.6 1017.85 689.2C1018.38 690.8 1019.65 691.6 1021.65 691.6C1022.58 691.6 1030.11 689.6 1044.25 685.6V599H1060.25V703H1048.85L1045.85 696.2C1043.71 697 1042.11 697.533 1041.05 697.8C1034.78 700.067 1029.71 701.733 1025.85 702.8C1021.98 703.867 1018.45 704.4 1015.25 704.4ZM1113.3 703C1105.96 703 1100.16 700.8 1095.9 696.4C1091.63 692 1089.5 686.067 1089.5 678.6V611H1077.5V599H1089.5V568.8L1105.5 562.8V599H1121.5V611H1105.5V680C1105.5 683.2 1106.36 685.867 1108.1 688C1109.96 690 1112.43 691 1115.5 691H1121.5V703H1113.3ZM1162.82 704.4C1153.49 704.4 1146.22 702.067 1141.02 697.4C1135.96 692.6 1133.42 686 1133.42 677.6V624.4C1133.42 616 1135.96 609.467 1141.02 604.8C1146.22 600 1153.49 597.6 1162.82 597.6C1172.16 597.6 1179.36 600 1184.42 604.8C1189.62 609.467 1192.22 616 1192.22 624.4V677.6C1192.22 686 1189.62 692.6 1184.42 697.4C1179.36 702.067 1172.16 704.4 1162.82 704.4ZM1162.82 692C1167.09 692 1170.42 690.8 1172.82 688.4C1175.36 685.867 1176.62 682.267 1176.62 677.6V624.4C1176.62 619.733 1175.36 616.2 1172.82 613.8C1170.42 611.267 1167.09 610 1162.82 610C1158.56 610 1155.16 611.267 1152.62 613.8C1150.22 616.2 1149.02 619.733 1149.02 624.4V677.6C1149.02 682.267 1150.22 685.867 1152.62 688.4C1155.16 690.8 1158.56 692 1162.82 692ZM1212.23 599H1224.63L1226.43 606.4L1231.43 604C1235.69 601.867 1239.23 600.267 1242.03 599.2C1244.96 598.133 1247.89 597.6 1250.83 597.6V609.4C1249.09 609.4 1246.76 609.933 1243.83 611C1240.89 611.933 1235.69 614.2 1228.23 617.8V703H1212.23V599ZM1286.94 703C1282.14 703 1277.68 701.8 1273.54 699.4C1269.54 697 1266.34 693.733 1263.94 689.6C1261.68 685.467 1260.54 680.8 1260.54 675.6V665.2C1260.54 658.933 1262.08 653.667 1265.14 649.4C1268.34 645.133 1272.28 642.133 1276.94 640.4L1301.74 631.2V621.8C1301.74 618.6 1300.74 616 1298.74 614C1296.88 611.867 1294.41 610.8 1291.34 610.8H1268.74V599H1292.74C1300.08 599 1305.88 601.2 1310.14 605.6C1314.54 609.867 1316.74 615.733 1316.74 623.2V703H1286.94ZM1301.74 690.8V643.8L1284.14 650.4C1280.68 651.733 1278.21 653.533 1276.74 655.8C1275.41 658.067 1274.74 661.667 1274.74 666.6V677.8C1274.74 681.4 1276.08 684.467 1278.74 687C1281.41 689.533 1284.61 690.8 1288.34 690.8H1301.74ZM1370.99 709.4C1375.79 709.4 1379.46 710.267 1381.99 712C1384.52 713.733 1385.79 716.867 1385.79 721.4C1385.79 730.467 1380.59 735 1370.19 735H1348.79V725.6H1364.79C1367.86 725.6 1370.12 725.267 1371.59 724.6C1373.06 723.933 1373.79 722.8 1373.79 721.2C1373.79 719.467 1373.26 718.333 1372.19 717.8C1371.12 717.267 1369.39 717 1366.99 717H1356.59L1359.99 703H1360.79C1353.46 703 1347.59 700.8 1343.19 696.4C1338.92 692 1336.79 686.067 1336.79 678.6V625.4C1336.79 617 1338.99 610.533 1343.39 606C1347.79 601.333 1354.19 599 1362.59 599H1384.79V611H1362.99C1359.92 611 1357.46 612.067 1355.59 614.2C1353.72 616.2 1352.79 618.8 1352.79 622V680C1352.79 683.2 1353.72 685.867 1355.59 688C1357.59 690 1360.12 691 1363.19 691H1384.79V703H1372.39L1370.99 709.4ZM1394.15 589C1394.28 583 1395.42 578.467 1397.55 575.4C1399.68 572.2 1403.55 570.6 1409.15 570.6C1410.62 570.6 1414.95 571.667 1422.15 573.8C1429.22 576.067 1433.75 577.2 1435.75 577.2C1437.35 577.2 1438.42 576.733 1438.95 575.8C1439.48 574.733 1439.82 573.467 1439.95 572C1440.22 570.533 1440.42 569.4 1440.55 568.6H1453.15C1453.02 573.133 1452.68 576.8 1452.15 579.6C1451.62 582.267 1450.22 584.533 1447.95 586.4C1445.82 588.133 1442.55 589 1438.15 589C1436.15 589 1431.62 587.867 1424.55 585.6C1417.35 583.467 1413.02 582.4 1411.55 582.4C1409.82 582.4 1408.68 582.733 1408.15 583.4C1407.75 584.067 1407.42 585 1407.15 586.2C1407.02 587.4 1406.88 588.333 1406.75 589H1394.15ZM1419.95 703C1415.15 703 1410.68 701.8 1406.55 699.4C1402.55 697 1399.35 693.733 1396.95 689.6C1394.68 685.467 1393.55 680.8 1393.55 675.6V665.2C1393.55 658.933 1395.08 653.667 1398.15 649.4C1401.35 645.133 1405.28 642.133 1409.95 640.4L1434.75 631.2V621.8C1434.75 618.6 1433.75 616 1431.75 614C1429.88 611.867 1427.42 610.8 1424.35 610.8H1401.75V599H1425.75C1433.08 599 1438.88 601.2 1443.15 605.6C1447.55 609.867 1449.75 615.733 1449.75 623.2V703H1419.95ZM1434.75 690.8V643.8L1417.15 650.4C1413.68 651.733 1411.22 653.533 1409.75 655.8C1408.42 658.067 1407.75 661.667 1407.75 666.6V677.8C1407.75 681.4 1409.08 684.467 1411.75 687C1414.42 689.533 1417.62 690.8 1421.35 690.8H1434.75ZM1497.2 704.4C1487.86 704.4 1480.6 702.067 1475.4 697.4C1470.33 692.6 1467.8 686 1467.8 677.6V624.4C1467.8 616 1470.33 609.467 1475.4 604.8C1480.6 600 1487.86 597.6 1497.2 597.6C1506.53 597.6 1513.73 600 1518.8 604.8C1524 609.467 1526.6 616 1526.6 624.4V677.6C1526.6 686 1524 692.6 1518.8 697.4C1513.73 702.067 1506.53 704.4 1497.2 704.4ZM1497.2 692C1501.46 692 1504.8 690.8 1507.2 688.4C1509.73 685.867 1511 682.267 1511 677.6V624.4C1511 619.733 1509.73 616.2 1507.2 613.8C1504.8 611.267 1501.46 610 1497.2 610C1492.93 610 1489.53 611.267 1487 613.8C1484.6 616.2 1483.4 619.733 1483.4 624.4V677.6C1483.4 682.267 1484.6 685.867 1487 688.4C1489.53 690.8 1492.93 692 1497.2 692ZM1576.68 599H1589.08L1590.88 604.8L1599.08 602.4C1604.68 600.667 1609.08 599.467 1612.28 598.8C1615.61 598 1618.75 597.6 1621.68 597.6C1627.41 597.6 1631.41 600.133 1633.68 605.2C1637.41 603.867 1642.68 602.267 1649.48 600.4C1656.28 598.533 1661.28 597.6 1664.48 597.6C1669.28 597.6 1672.81 599.267 1675.08 602.6C1677.48 605.933 1678.68 610.267 1678.68 615.6V703H1662.68V620.8C1662.68 616.933 1662.41 614.267 1661.88 612.8C1661.35 611.2 1660.01 610.4 1657.88 610.4C1656.81 610.4 1649.48 612.533 1635.88 616.8V703H1619.88V620.8C1619.88 616.933 1619.61 614.267 1619.08 612.8C1618.55 611.2 1617.21 610.4 1615.08 610.4C1614.01 610.4 1606.55 612.533 1592.68 616.8V703H1576.68V599ZM1712.9 704.4C1708.1 704.4 1704.5 702.733 1702.1 699.4C1699.84 696.067 1698.7 691.733 1698.7 686.4V599H1714.7V681.2C1714.7 684.933 1714.97 687.6 1715.5 689.2C1716.04 690.8 1717.3 691.6 1719.3 691.6C1720.24 691.6 1727.77 689.6 1741.9 685.6V599H1757.9V703H1746.5L1743.5 696.2C1741.37 697 1739.77 697.533 1738.7 697.8C1732.44 700.067 1727.37 701.733 1723.5 702.8C1719.64 703.867 1716.1 704.4 1712.9 704.4ZM1782.15 703V563H1798.15V703H1782.15ZM1850.99 703C1843.66 703 1837.86 700.8 1833.59 696.4C1829.33 692 1827.19 686.067 1827.19 678.6V611H1815.19V599H1827.19V568.8L1843.19 562.8V599H1859.19V611H1843.19V680C1843.19 683.2 1844.06 685.867 1845.79 688C1847.66 690 1850.13 691 1853.19 691H1859.19V703H1850.99ZM1875.12 582V566H1891.12V582H1875.12ZM1875.12 703V599H1891.12V703H1875.12ZM1915.16 599H1927.56L1929.36 604.8L1937.56 602.4C1943.16 600.667 1947.56 599.467 1950.76 598.8C1954.09 598 1957.22 597.6 1960.16 597.6C1965.89 597.6 1969.89 600.133 1972.16 605.2C1975.89 603.867 1981.16 602.267 1987.96 600.4C1994.76 598.533 1999.76 597.6 2002.96 597.6C2007.76 597.6 2011.29 599.267 2013.56 602.6C2015.96 605.933 2017.16 610.267 2017.16 615.6V703H2001.16V620.8C2001.16 616.933 2000.89 614.267 2000.36 612.8C1999.82 611.2 1998.49 610.4 1996.36 610.4C1995.29 610.4 1987.96 612.533 1974.36 616.8V703H1958.36V620.8C1958.36 616.933 1958.09 614.267 1957.56 612.8C1957.02 611.2 1955.69 610.4 1953.56 610.4C1952.49 610.4 1945.02 612.533 1931.16 616.8V703H1915.16V599ZM2043.58 591.2L2036.98 585.2L2060.18 565.4L2070.38 574.8L2043.58 591.2ZM2039.18 703V599H2055.18V703H2039.18ZM2105.62 703C2097.22 703 2090.42 700.533 2085.22 695.6C2080.02 690.667 2077.42 684.067 2077.42 675.8V626C2077.42 620.267 2078.95 615.4 2082.02 611.4C2085.22 607.4 2089.15 604.667 2093.82 603.2L2120.62 593.8V563H2136.62V703H2105.62ZM2120.62 691V607L2102.82 613C2099.35 614.067 2096.89 615.8 2095.42 618.2C2094.09 620.467 2093.42 624.133 2093.42 629.2V675.8C2093.42 680.6 2094.82 684.333 2097.62 687C2100.42 689.667 2104.22 691 2109.02 691H2120.62ZM2160.66 582V566H2176.66V582H2160.66ZM2160.66 703V599H2176.66V703H2160.66ZM2221.9 703C2217.1 703 2212.64 701.8 2208.5 699.4C2204.5 697 2201.3 693.733 2198.9 689.6C2196.64 685.467 2195.5 680.8 2195.5 675.6V665.2C2195.5 658.933 2197.04 653.667 2200.1 649.4C2203.3 645.133 2207.24 642.133 2211.9 640.4L2236.7 631.2V621.8C2236.7 618.6 2235.7 616 2233.7 614C2231.84 611.867 2229.37 610.8 2226.3 610.8H2203.7V599H2227.7C2235.04 599 2240.84 601.2 2245.1 605.6C2249.5 609.867 2251.7 615.733 2251.7 623.2V703H2221.9ZM2236.7 690.8V643.8L2219.1 650.4C2215.64 651.733 2213.17 653.533 2211.7 655.8C2210.37 658.067 2209.7 661.667 2209.7 666.6V677.8C2209.7 681.4 2211.04 684.467 2213.7 687C2216.37 689.533 2219.57 690.8 2223.3 690.8H2236.7ZM938.57 884.19C934.49 884.19 931.43 882.773 929.39 879.94C927.463 877.107 926.5 873.423 926.5 868.89V794.6H940.1V864.47C940.1 867.643 940.327 869.91 940.78 871.27C941.233 872.63 942.31 873.31 944.01 873.31C944.803 873.31 951.207 871.61 963.22 868.21V794.6H976.82V883H967.13L964.58 877.22C962.767 877.9 961.407 878.353 960.5 878.58C955.173 880.507 950.867 881.923 947.58 882.83C944.293 883.737 941.29 884.19 938.57 884.19ZM997.263 794.6H1007.8L1009.33 799.53L1016.3 797.49C1021.06 796.017 1024.8 794.997 1027.52 794.43C1030.36 793.75 1033.02 793.41 1035.51 793.41C1040.39 793.41 1043.79 795.563 1045.71 799.87C1048.89 798.737 1053.36 797.377 1059.14 795.79C1064.92 794.203 1069.17 793.41 1071.89 793.41C1075.97 793.41 1078.98 794.827 1080.9 797.66C1082.94 800.493 1083.96 804.177 1083.96 808.71V883H1070.36V813.13C1070.36 809.843 1070.14 807.577 1069.68 806.33C1069.23 804.97 1068.1 804.29 1066.28 804.29C1065.38 804.29 1059.14 806.103 1047.58 809.73V883H1033.98V813.13C1033.98 809.843 1033.76 807.577 1033.3 806.33C1032.85 804.97 1031.72 804.29 1029.9 804.29C1029 804.29 1022.65 806.103 1010.86 809.73V883H997.263V794.6ZM1128.25 794.6H1138.79L1140.32 800.89L1144.57 798.85C1148.2 797.037 1151.2 795.677 1153.58 794.77C1156.07 793.863 1158.57 793.41 1161.06 793.41V803.44C1159.59 803.44 1157.6 803.893 1155.11 804.8C1152.62 805.593 1148.2 807.52 1141.85 810.58V883H1128.25V794.6ZM1191.42 883C1185.18 883 1180.2 881.13 1176.46 877.39C1172.83 873.65 1171.02 868.607 1171.02 862.26V817.04C1171.02 809.673 1173.06 803.893 1177.14 799.7C1181.22 795.507 1187.28 793.41 1195.33 793.41C1203.37 793.41 1209.38 795.507 1213.35 799.7C1217.43 803.893 1219.47 809.673 1219.47 817.04V824.86C1219.47 829.62 1218.11 833.247 1215.39 835.74C1212.67 838.12 1209.1 839.933 1204.68 841.18L1184.62 846.79V863.45C1184.62 866.17 1185.41 868.437 1187 870.25C1188.7 871.95 1190.85 872.8 1193.46 872.8H1211.82V883H1191.42ZM1194.99 833.19C1198.73 832.17 1201.22 831.433 1202.47 830.98C1203.83 830.413 1204.73 829.62 1205.19 828.6C1205.64 827.58 1205.87 825.88 1205.87 823.5V814.15C1205.87 810.523 1204.9 807.86 1202.98 806.16C1201.16 804.46 1198.61 803.61 1195.33 803.61C1192.15 803.61 1189.55 804.517 1187.51 806.33C1185.58 808.143 1184.62 810.75 1184.62 814.15V836.08L1194.99 833.19ZM1251.7 883C1245.47 883 1240.48 881.13 1236.74 877.39C1233.12 873.65 1231.3 868.607 1231.3 862.26V817.04C1231.3 809.9 1233.17 804.403 1236.91 800.55C1240.65 796.583 1246.09 794.6 1253.23 794.6H1272.1V804.8H1253.57C1250.97 804.8 1248.87 805.707 1247.28 807.52C1245.7 809.22 1244.9 811.43 1244.9 814.15V863.45C1244.9 866.17 1245.7 868.437 1247.28 870.25C1248.98 871.95 1251.14 872.8 1253.74 872.8H1272.1V883H1251.7ZM1305.56 884.19C1297.63 884.19 1291.45 882.207 1287.03 878.24C1282.72 874.16 1280.57 868.55 1280.57 861.41V816.19C1280.57 809.05 1282.72 803.497 1287.03 799.53C1291.45 795.45 1297.63 793.41 1305.56 793.41C1313.49 793.41 1319.61 795.45 1323.92 799.53C1328.34 803.497 1330.55 809.05 1330.55 816.19V861.41C1330.55 868.55 1328.34 874.16 1323.92 878.24C1319.61 882.207 1313.49 884.19 1305.56 884.19ZM1305.56 873.65C1309.19 873.65 1312.02 872.63 1314.06 870.59C1316.21 868.437 1317.29 865.377 1317.29 861.41V816.19C1317.29 812.223 1316.21 809.22 1314.06 807.18C1312.02 805.027 1309.19 803.95 1305.56 803.95C1301.93 803.95 1299.04 805.027 1296.89 807.18C1294.85 809.22 1293.83 812.223 1293.83 816.19V861.41C1293.83 865.377 1294.85 868.437 1296.89 870.59C1299.04 872.63 1301.93 873.65 1305.56 873.65ZM1347.56 794.6H1358.1L1359.63 800.89L1363.88 798.85C1367.5 797.037 1370.51 795.677 1372.89 794.77C1375.38 793.863 1377.87 793.41 1380.37 793.41V803.44C1378.89 803.44 1376.91 803.893 1374.42 804.8C1371.92 805.593 1367.5 807.52 1361.16 810.58V883H1347.56V794.6ZM1417.69 883C1411.46 883 1406.53 881.13 1402.9 877.39C1399.28 873.65 1397.46 868.607 1397.46 862.26V804.8H1387.26V794.6H1397.46V768.93L1411.06 763.83V794.6H1424.66V804.8H1411.06V863.45C1411.06 866.17 1411.8 868.437 1413.27 870.25C1414.86 871.95 1416.96 872.8 1419.56 872.8H1424.66V883H1417.69ZM1455.88 883C1449.65 883 1444.66 881.13 1440.92 877.39C1437.29 873.65 1435.48 868.607 1435.48 862.26V817.04C1435.48 809.673 1437.52 803.893 1441.6 799.7C1445.68 795.507 1451.74 793.41 1459.79 793.41C1467.84 793.41 1473.84 795.507 1477.81 799.7C1481.89 803.893 1483.93 809.673 1483.93 817.04V824.86C1483.93 829.62 1482.57 833.247 1479.85 835.74C1477.13 838.12 1473.56 839.933 1469.14 841.18L1449.08 846.79V863.45C1449.08 866.17 1449.87 868.437 1451.46 870.25C1453.16 871.95 1455.31 872.8 1457.92 872.8H1476.28V883H1455.88ZM1459.45 833.19C1463.19 832.17 1465.68 831.433 1466.93 830.98C1468.29 830.413 1469.2 829.62 1469.65 828.6C1470.1 827.58 1470.33 825.88 1470.33 823.5V814.15C1470.33 810.523 1469.37 807.86 1467.44 806.16C1465.63 804.46 1463.08 803.61 1459.79 803.61C1456.62 803.61 1454.01 804.517 1451.97 806.33C1450.04 808.143 1449.08 810.75 1449.08 814.15V836.08L1459.45 833.19ZM1517.93 872.8H1532.38C1537.26 872.8 1540.77 871.497 1542.92 868.89C1545.19 866.17 1546.32 862.657 1546.32 858.35C1546.32 854.95 1545.3 852.06 1543.26 849.68C1541.22 847.3 1538.16 844.523 1534.08 841.35C1530.57 838.517 1527.74 836.08 1525.58 834.04C1523.54 831.887 1521.73 829.28 1520.14 826.22C1518.67 823.047 1517.93 819.42 1517.93 815.34C1517.93 809.333 1519.92 804.403 1523.88 800.55C1527.96 796.583 1533.4 794.6 1540.2 794.6H1554.99V804.8H1542.75C1534.71 804.8 1530.68 808.597 1530.68 816.19C1530.68 819.137 1531.59 821.687 1533.4 823.84C1535.22 825.993 1538.05 828.543 1541.9 831.49C1545.42 834.21 1548.31 836.703 1550.57 838.97C1552.84 841.123 1554.77 843.9 1556.35 847.3C1557.94 850.587 1558.73 854.497 1558.73 859.03C1558.73 867.077 1556.58 873.083 1552.27 877.05C1548.08 881.017 1542.13 883 1534.42 883H1517.93V872.8ZM1595.59 884.19C1587.66 884.19 1581.48 882.207 1577.06 878.24C1572.75 874.16 1570.6 868.55 1570.6 861.41V816.19C1570.6 809.05 1572.75 803.497 1577.06 799.53C1581.48 795.45 1587.66 793.41 1595.59 793.41C1603.52 793.41 1609.64 795.45 1613.95 799.53C1618.37 803.497 1620.58 809.05 1620.58 816.19V861.41C1620.58 868.55 1618.37 874.16 1613.95 878.24C1609.64 882.207 1603.52 884.19 1595.59 884.19ZM1595.59 873.65C1599.22 873.65 1602.05 872.63 1604.09 870.59C1606.24 868.437 1607.32 865.377 1607.32 861.41V816.19C1607.32 812.223 1606.24 809.22 1604.09 807.18C1602.05 805.027 1599.22 803.95 1595.59 803.95C1591.96 803.95 1589.07 805.027 1586.92 807.18C1584.88 809.22 1583.86 812.223 1583.86 816.19V861.41C1583.86 865.377 1584.88 868.437 1586.92 870.59C1589.07 872.63 1591.96 873.65 1595.59 873.65ZM1637.58 764H1651.18V790.52L1673.96 798.51C1677.93 799.87 1681.22 802.25 1683.82 805.65C1686.54 808.937 1687.9 813.017 1687.9 817.89V861.58C1687.9 867.7 1685.75 872.8 1681.44 876.88C1677.14 880.96 1671.87 883 1665.63 883H1637.58V764ZM1662.74 872.8C1665.92 872.8 1668.64 871.723 1670.9 869.57C1673.17 867.417 1674.3 864.753 1674.3 861.58V820.61C1674.3 816.303 1673.68 813.187 1672.43 811.26C1671.3 809.22 1669.26 807.747 1666.31 806.84L1651.18 801.74V872.8H1662.74ZM1703.99 794.6H1714.53L1716.06 800.89L1720.31 798.85C1723.94 797.037 1726.94 795.677 1729.32 794.77C1731.81 793.863 1734.31 793.41 1736.8 793.41V803.44C1735.33 803.44 1733.34 803.893 1730.85 804.8C1728.36 805.593 1723.94 807.52 1717.59 810.58V883H1703.99V794.6ZM1767.16 883C1760.93 883 1755.94 881.13 1752.2 877.39C1748.57 873.65 1746.76 868.607 1746.76 862.26V817.04C1746.76 809.673 1748.8 803.893 1752.88 799.7C1756.96 795.507 1763.02 793.41 1771.07 793.41C1779.12 793.41 1785.12 795.507 1789.09 799.7C1793.17 803.893 1795.21 809.673 1795.21 817.04V824.86C1795.21 829.62 1793.85 833.247 1791.13 835.74C1788.41 838.12 1784.84 839.933 1780.42 841.18L1760.36 846.79V863.45C1760.36 866.17 1761.15 868.437 1762.74 870.25C1764.44 871.95 1766.59 872.8 1769.2 872.8H1787.56V883H1767.16ZM1770.73 833.19C1774.47 832.17 1776.96 831.433 1778.21 830.98C1779.57 830.413 1780.48 829.62 1780.93 828.6C1781.38 827.58 1781.61 825.88 1781.61 823.5V814.15C1781.61 810.523 1780.65 807.86 1778.72 806.16C1776.91 804.46 1774.36 803.61 1771.07 803.61C1767.9 803.61 1765.29 804.517 1763.25 806.33C1761.32 808.143 1760.36 810.75 1760.36 814.15V836.08L1770.73 833.19ZM1852.33 883C1848.25 883 1844.46 881.98 1840.94 879.94C1837.54 877.9 1834.82 875.123 1832.78 871.61C1830.86 868.097 1829.89 864.13 1829.89 859.71V850.87C1829.89 845.543 1831.2 841.067 1833.8 837.44C1836.52 833.813 1839.87 831.263 1843.83 829.79L1864.91 821.97V813.98C1864.91 811.26 1864.06 809.05 1862.36 807.35C1860.78 805.537 1858.68 804.63 1856.07 804.63H1836.86V794.6H1857.26C1863.5 794.6 1868.43 796.47 1872.05 800.21C1875.79 803.837 1877.66 808.823 1877.66 815.17V883H1852.33ZM1864.91 872.63V832.68L1849.95 838.29C1847.01 839.423 1844.91 840.953 1843.66 842.88C1842.53 844.807 1841.96 847.867 1841.96 852.06V861.58C1841.96 864.64 1843.1 867.247 1845.36 869.4C1847.63 871.553 1850.35 872.63 1853.52 872.63H1864.91ZM1921.97 764H1935.57V799.19L1943.05 796.98C1947.7 795.62 1951.1 794.713 1953.25 794.26C1955.52 793.693 1957.84 793.41 1960.22 793.41C1964.3 793.41 1967.3 794.827 1969.23 797.66C1971.16 800.493 1972.12 804.177 1972.12 808.71V883H1958.52V813.13C1958.52 809.843 1958.29 807.577 1957.84 806.33C1957.39 804.97 1956.25 804.29 1954.44 804.29C1953.53 804.29 1947.24 806.103 1935.57 809.73V883H1921.97V764ZM1992.69 780.15V766.55H2006.29V780.15H1992.69ZM1992.69 883V794.6H2006.29V883H1992.69ZM2021.63 872.8H2036.08C2040.95 872.8 2044.46 871.497 2046.62 868.89C2048.88 866.17 2050.02 862.657 2050.02 858.35C2050.02 854.95 2049 852.06 2046.96 849.68C2044.92 847.3 2041.86 844.523 2037.78 841.35C2034.26 838.517 2031.43 836.08 2029.28 834.04C2027.24 831.887 2025.42 829.28 2023.84 826.22C2022.36 823.047 2021.63 819.42 2021.63 815.34C2021.63 809.333 2023.61 804.403 2027.58 800.55C2031.66 796.583 2037.1 794.6 2043.9 794.6H2058.69V804.8H2046.45C2038.4 804.8 2034.38 808.597 2034.38 816.19C2034.38 819.137 2035.28 821.687 2037.1 823.84C2038.91 825.993 2041.74 828.543 2045.6 831.49C2049.11 834.21 2052 836.703 2054.27 838.97C2056.53 841.123 2058.46 843.9 2060.05 847.3C2061.63 850.587 2062.43 854.497 2062.43 859.03C2062.43 867.077 2060.27 873.083 2055.97 877.05C2051.77 881.017 2045.82 883 2038.12 883H2021.63V872.8ZM2102.34 883C2096.11 883 2091.18 881.13 2087.55 877.39C2083.93 873.65 2082.11 868.607 2082.11 862.26V804.8H2071.91V794.6H2082.11V768.93L2095.71 763.83V794.6H2109.31V804.8H2095.71V863.45C2095.71 866.17 2096.45 868.437 2097.92 870.25C2099.51 871.95 2101.61 872.8 2104.21 872.8H2109.31V883H2102.34ZM2144.61 787.97L2139 782.87L2158.72 766.04L2167.39 774.03L2144.61 787.97ZM2144.44 884.19C2136.51 884.19 2130.33 882.207 2125.91 878.24C2121.6 874.16 2119.45 868.55 2119.45 861.41V816.19C2119.45 809.05 2121.6 803.497 2125.91 799.53C2130.33 795.45 2136.51 793.41 2144.44 793.41C2152.37 793.41 2158.49 795.45 2162.8 799.53C2167.22 803.497 2169.43 809.05 2169.43 816.19V861.41C2169.43 868.55 2167.22 874.16 2162.8 878.24C2158.49 882.207 2152.37 884.19 2144.44 884.19ZM2144.44 873.65C2148.07 873.65 2150.9 872.63 2152.94 870.59C2155.09 868.437 2156.17 865.377 2156.17 861.41V816.19C2156.17 812.223 2155.09 809.22 2152.94 807.18C2150.9 805.027 2148.07 803.95 2144.44 803.95C2140.81 803.95 2137.92 805.027 2135.77 807.18C2133.73 809.22 2132.71 812.223 2132.71 816.19V861.41C2132.71 865.377 2133.73 868.437 2135.77 870.59C2137.92 872.63 2140.81 873.65 2144.44 873.65ZM2186.43 794.6H2196.97L2198.5 800.89L2202.75 798.85C2206.38 797.037 2209.38 795.677 2211.76 794.77C2214.26 793.863 2216.75 793.41 2219.24 793.41V803.44C2217.77 803.44 2215.79 803.893 2213.29 804.8C2210.8 805.593 2206.38 807.52 2200.03 810.58V883H2186.43V794.6ZM2231.92 780.15V766.55H2245.52V780.15H2231.92ZM2231.92 883V794.6H2245.52V883H2231.92ZM2283.97 883C2279.89 883 2276.1 881.98 2272.58 879.94C2269.18 877.9 2266.46 875.123 2264.42 871.61C2262.5 868.097 2261.53 864.13 2261.53 859.71V850.87C2261.53 845.543 2262.84 841.067 2265.44 837.44C2268.16 833.813 2271.51 831.263 2275.47 829.79L2296.55 821.97V813.98C2296.55 811.26 2295.7 809.05 2294 807.35C2292.42 805.537 2290.32 804.63 2287.71 804.63H2268.5V794.6H2288.9C2295.14 794.6 2300.07 796.47 2303.69 800.21C2307.43 803.837 2309.3 808.823 2309.3 815.17V883H2283.97ZM2296.55 872.63V832.68L2281.59 838.29C2278.65 839.423 2276.55 840.953 2275.3 842.88C2274.17 844.807 2273.6 847.867 2273.6 852.06V861.58C2273.6 864.64 2274.74 867.247 2277 869.4C2279.27 871.553 2281.99 872.63 2285.16 872.63H2296.55ZM2376.05 883C2368.91 883 2363.13 880.903 2358.71 876.71C2354.29 872.517 2352.08 866.907 2352.08 859.88V817.55C2352.08 812.677 2353.38 808.54 2355.99 805.14C2358.71 801.74 2362.05 799.417 2366.02 798.17L2388.8 790.18V764H2402.4V883H2376.05ZM2388.8 872.8V801.4L2373.67 806.5C2370.72 807.407 2368.63 808.88 2367.38 810.92C2366.25 812.847 2365.68 815.963 2365.68 820.27V859.88C2365.68 863.96 2366.87 867.133 2369.25 869.4C2371.63 871.667 2374.86 872.8 2378.94 872.8H2388.8ZM2444.43 884.19C2436.5 884.19 2430.32 882.207 2425.9 878.24C2421.59 874.16 2419.44 868.55 2419.44 861.41V816.19C2419.44 809.05 2421.59 803.497 2425.9 799.53C2430.32 795.45 2436.5 793.41 2444.43 793.41C2452.36 793.41 2458.48 795.45 2462.79 799.53C2467.21 803.497 2469.42 809.05 2469.42 816.19V861.41C2469.42 868.55 2467.21 874.16 2462.79 878.24C2458.48 882.207 2452.36 884.19 2444.43 884.19ZM2444.43 873.65C2448.06 873.65 2450.89 872.63 2452.93 870.59C2455.08 868.437 2456.16 865.377 2456.16 861.41V816.19C2456.16 812.223 2455.08 809.22 2452.93 807.18C2450.89 805.027 2448.06 803.95 2444.43 803.95C2440.8 803.95 2437.91 805.027 2435.76 807.18C2433.72 809.22 2432.7 812.223 2432.7 816.19V861.41C2432.7 865.377 2433.72 868.437 2435.76 870.59C2437.91 872.63 2440.8 873.65 2444.43 873.65ZM928.2 944H941.8V979.19L949.28 976.98C953.927 975.62 957.327 974.713 959.48 974.26C961.747 973.693 964.07 973.41 966.45 973.41C970.53 973.41 973.533 974.827 975.46 977.66C977.387 980.493 978.35 984.177 978.35 988.71V1063H964.75V993.13C964.75 989.843 964.523 987.577 964.07 986.33C963.617 984.97 962.483 984.29 960.67 984.29C959.763 984.29 953.473 986.103 941.8 989.73V1063H928.2V944ZM998.923 960.15V946.55H1012.52V960.15H998.923ZM998.923 1063V974.6H1012.52V1063H998.923ZM1032.96 974.6H1060.5C1066.73 974.6 1072 976.64 1076.31 980.72C1080.73 984.8 1082.94 989.9 1082.94 996.02V1041.75C1082.94 1047.87 1080.78 1052.97 1076.48 1057.05C1072.17 1061.02 1066.9 1063 1060.67 1063H1046.56V1090.2H1032.96V974.6ZM1057.78 1052.97C1060.95 1052.97 1063.67 1051.89 1065.94 1049.74C1068.2 1047.59 1069.34 1044.92 1069.34 1041.75V996.02C1069.34 992.847 1068.2 990.183 1065.94 988.03C1063.67 985.877 1060.95 984.8 1057.78 984.8H1046.56V1052.97H1057.78ZM1116.71 1063C1110.48 1063 1105.49 1061.13 1101.75 1057.39C1098.12 1053.65 1096.31 1048.61 1096.31 1042.26V997.04C1096.31 989.673 1098.35 983.893 1102.43 979.7C1106.51 975.507 1112.57 973.41 1120.62 973.41C1128.67 973.41 1134.67 975.507 1138.64 979.7C1142.72 983.893 1144.76 989.673 1144.76 997.04V1004.86C1144.76 1009.62 1143.4 1013.25 1140.68 1015.74C1137.96 1018.12 1134.39 1019.93 1129.97 1021.18L1109.91 1026.79V1043.45C1109.91 1046.17 1110.7 1048.44 1112.29 1050.25C1113.99 1051.95 1116.14 1052.8 1118.75 1052.8H1137.11V1063H1116.71ZM1120.28 1013.19C1124.02 1012.17 1126.51 1011.43 1127.76 1010.98C1129.12 1010.41 1130.03 1009.62 1130.48 1008.6C1130.93 1007.58 1131.16 1005.88 1131.16 1003.5V994.15C1131.16 990.523 1130.2 987.86 1128.27 986.16C1126.46 984.46 1123.91 983.61 1120.62 983.61C1117.45 983.61 1114.84 984.517 1112.8 986.33C1110.87 988.143 1109.91 990.75 1109.91 994.15V1016.08L1120.28 1013.19ZM1158.3 974.6H1168.84L1170.37 980.89L1174.62 978.85C1178.24 977.037 1181.25 975.677 1183.63 974.77C1186.12 973.863 1188.61 973.41 1191.11 973.41V983.44C1189.63 983.44 1187.65 983.893 1185.16 984.8C1182.66 985.593 1178.24 987.52 1171.9 990.58V1063H1158.3V974.6ZM1228.44 1063C1222.2 1063 1217.27 1061.13 1213.65 1057.39C1210.02 1053.65 1208.21 1048.61 1208.21 1042.26V984.8H1198.01V974.6H1208.21V948.93L1221.81 943.83V974.6H1235.41V984.8H1221.81V1043.45C1221.81 1046.17 1222.54 1048.44 1224.02 1050.25C1225.6 1051.95 1227.7 1052.8 1230.31 1052.8H1235.41V1063H1228.44ZM1266.62 1063C1260.39 1063 1255.4 1061.13 1251.66 1057.39C1248.04 1053.65 1246.22 1048.61 1246.22 1042.26V997.04C1246.22 989.673 1248.26 983.893 1252.34 979.7C1256.42 975.507 1262.49 973.41 1270.53 973.41C1278.58 973.41 1284.59 975.507 1288.55 979.7C1292.63 983.893 1294.67 989.673 1294.67 997.04V1004.86C1294.67 1009.62 1293.31 1013.25 1290.59 1015.74C1287.87 1018.12 1284.3 1019.93 1279.88 1021.18L1259.82 1026.79V1043.45C1259.82 1046.17 1260.62 1048.44 1262.2 1050.25C1263.9 1051.95 1266.06 1052.8 1268.66 1052.8H1287.02V1063H1266.62ZM1270.19 1013.19C1273.93 1012.17 1276.43 1011.43 1277.67 1010.98C1279.03 1010.41 1279.94 1009.62 1280.39 1008.6C1280.85 1007.58 1281.07 1005.88 1281.07 1003.5V994.15C1281.07 990.523 1280.11 987.86 1278.18 986.16C1276.37 984.46 1273.82 983.61 1270.53 983.61C1267.36 983.61 1264.75 984.517 1262.71 986.33C1260.79 988.143 1259.82 990.75 1259.82 994.15V1016.08L1270.19 1013.19ZM1299.71 1063L1324.19 1018.63L1301.41 974.6H1314.5L1330.48 1005.88L1346.63 974.6H1359.72L1336.94 1018.63L1361.42 1063H1347.14L1330.48 1030.7L1313.99 1063H1299.71ZM1397.11 1063C1390.87 1063 1385.94 1061.13 1382.32 1057.39C1378.69 1053.65 1376.88 1048.61 1376.88 1042.26V984.8H1366.68V974.6H1376.88V948.93L1390.48 943.83V974.6H1404.08V984.8H1390.48V1043.45C1390.48 1046.17 1391.21 1048.44 1392.69 1050.25C1394.27 1051.95 1396.37 1052.8 1398.98 1052.8H1404.08V1063H1397.11ZM1439.2 1064.19C1431.27 1064.19 1425.09 1062.21 1420.67 1058.24C1416.37 1054.16 1414.21 1048.55 1414.21 1041.41V996.19C1414.21 989.05 1416.37 983.497 1420.67 979.53C1425.09 975.45 1431.27 973.41 1439.2 973.41C1447.14 973.41 1453.26 975.45 1457.56 979.53C1461.98 983.497 1464.19 989.05 1464.19 996.19V1041.41C1464.19 1048.55 1461.98 1054.16 1457.56 1058.24C1453.26 1062.21 1447.14 1064.19 1439.2 1064.19ZM1439.2 1053.65C1442.83 1053.65 1445.66 1052.63 1447.7 1050.59C1449.86 1048.44 1450.93 1045.38 1450.93 1041.41V996.19C1450.93 992.223 1449.86 989.22 1447.7 987.18C1445.66 985.027 1442.83 983.95 1439.2 983.95C1435.58 983.95 1432.69 985.027 1430.53 987.18C1428.49 989.22 1427.47 992.223 1427.47 996.19V1041.41C1427.47 1045.38 1428.49 1048.44 1430.53 1050.59C1432.69 1052.63 1435.58 1053.65 1439.2 1053.65ZM1500.13 1063L1546.71 944H1560.65L1514.92 1063H1500.13ZM1600.23 944H1613.83V979.19L1621.31 976.98C1625.96 975.62 1629.36 974.713 1631.51 974.26C1633.78 973.693 1636.1 973.41 1638.48 973.41C1642.56 973.41 1645.56 974.827 1647.49 977.66C1649.42 980.493 1650.38 984.177 1650.38 988.71V1063H1636.78V993.13C1636.78 989.843 1636.55 987.577 1636.1 986.33C1635.65 984.97 1634.51 984.29 1632.7 984.29C1631.79 984.29 1625.5 986.103 1613.83 989.73V1063H1600.23V944ZM1670.95 960.15V946.55H1684.55V960.15H1670.95ZM1670.95 1063V974.6H1684.55V1063H1670.95ZM1704.99 974.6H1732.53C1738.76 974.6 1744.03 976.64 1748.34 980.72C1752.76 984.8 1754.97 989.9 1754.97 996.02V1041.75C1754.97 1047.87 1752.81 1052.97 1748.51 1057.05C1744.2 1061.02 1738.93 1063 1732.7 1063H1718.59V1090.2H1704.99V974.6ZM1729.81 1052.97C1732.98 1052.97 1735.7 1051.89 1737.97 1049.74C1740.23 1047.59 1741.37 1044.92 1741.37 1041.75V996.02C1741.37 992.847 1740.23 990.183 1737.97 988.03C1735.7 985.877 1732.98 984.8 1729.81 984.8H1718.59V1052.97H1729.81ZM1788.74 1063C1782.51 1063 1777.52 1061.13 1773.78 1057.39C1770.15 1053.65 1768.34 1048.61 1768.34 1042.26V997.04C1768.34 989.673 1770.38 983.893 1774.46 979.7C1778.54 975.507 1784.6 973.41 1792.65 973.41C1800.7 973.41 1806.7 975.507 1810.67 979.7C1814.75 983.893 1816.79 989.673 1816.79 997.04V1004.86C1816.79 1009.62 1815.43 1013.25 1812.71 1015.74C1809.99 1018.12 1806.42 1019.93 1802 1021.18L1781.94 1026.79V1043.45C1781.94 1046.17 1782.73 1048.44 1784.32 1050.25C1786.02 1051.95 1788.17 1052.8 1790.78 1052.8H1809.14V1063H1788.74ZM1792.31 1013.19C1796.05 1012.17 1798.54 1011.43 1799.79 1010.98C1801.15 1010.41 1802.06 1009.62 1802.51 1008.6C1802.96 1007.58 1803.19 1005.88 1803.19 1003.5V994.15C1803.19 990.523 1802.23 987.86 1800.3 986.16C1798.49 984.46 1795.94 983.61 1792.65 983.61C1789.48 983.61 1786.87 984.517 1784.83 986.33C1782.9 988.143 1781.94 990.75 1781.94 994.15V1016.08L1792.31 1013.19ZM1830.33 974.6H1840.87L1842.4 980.89L1846.65 978.85C1850.28 977.037 1853.28 975.677 1855.66 974.77C1858.15 973.863 1860.65 973.41 1863.14 973.41V983.44C1861.67 983.44 1859.68 983.893 1857.19 984.8C1854.7 985.593 1850.28 987.52 1843.93 990.58V1063H1830.33V974.6ZM1875.82 974.6H1886.36L1887.89 979.53L1894.86 977.49C1899.62 976.017 1903.36 974.997 1906.08 974.43C1908.91 973.75 1911.57 973.41 1914.07 973.41C1918.94 973.41 1922.34 975.563 1924.27 979.87C1927.44 978.737 1931.92 977.377 1937.7 975.79C1943.48 974.203 1947.73 973.41 1950.45 973.41C1954.53 973.41 1957.53 974.827 1959.46 977.66C1961.5 980.493 1962.52 984.177 1962.52 988.71V1063H1948.92V993.13C1948.92 989.843 1948.69 987.577 1948.24 986.33C1947.78 984.97 1946.65 984.29 1944.84 984.29C1943.93 984.29 1937.7 986.103 1926.14 989.73V1063H1912.54V993.13C1912.54 989.843 1912.31 987.577 1911.86 986.33C1911.4 984.97 1910.27 984.29 1908.46 984.29C1907.55 984.29 1901.2 986.103 1889.42 989.73V1063H1875.82V974.6ZM1984.98 967.97L1979.37 962.87L1999.09 946.04L2007.76 954.03L1984.98 967.97ZM1981.24 1063V974.6H1994.84V1063H1981.24ZM2037.71 1063C2030.57 1063 2024.79 1060.9 2020.37 1056.71C2015.95 1052.52 2013.74 1046.91 2013.74 1039.88V997.55C2013.74 992.677 2015.04 988.54 2017.65 985.14C2020.37 981.74 2023.71 979.417 2027.68 978.17L2050.46 970.18V944H2064.06V1063H2037.71ZM2050.46 1052.8V981.4L2035.33 986.5C2032.38 987.407 2030.29 988.88 2029.04 990.92C2027.91 992.847 2027.34 995.963 2027.34 1000.27V1039.88C2027.34 1043.96 2028.53 1047.13 2030.91 1049.4C2033.29 1051.67 2036.52 1052.8 2040.6 1052.8H2050.46ZM2084.5 960.15V946.55H2098.1V960.15H2084.5ZM2084.5 1063V974.6H2098.1V1063H2084.5ZM2136.55 1063C2132.47 1063 2128.68 1061.98 2125.16 1059.94C2121.76 1057.9 2119.04 1055.12 2117 1051.61C2115.08 1048.1 2114.11 1044.13 2114.11 1039.71V1030.87C2114.11 1025.54 2115.42 1021.07 2118.02 1017.44C2120.74 1013.81 2124.09 1011.26 2128.05 1009.79L2149.13 1001.97V993.98C2149.13 991.26 2148.28 989.05 2146.58 987.35C2145 985.537 2142.9 984.63 2140.29 984.63H2121.08V974.6H2141.48C2147.72 974.6 2152.65 976.47 2156.27 980.21C2160.01 983.837 2161.88 988.823 2161.88 995.17V1063H2136.55ZM2149.13 1052.63V1012.68L2134.17 1018.29C2131.23 1019.42 2129.13 1020.95 2127.88 1022.88C2126.75 1024.81 2126.18 1027.87 2126.18 1032.06V1041.58C2126.18 1044.64 2127.32 1047.25 2129.58 1049.4C2131.85 1051.55 2134.57 1052.63 2137.74 1052.63H2149.13Z" fill="white"/>
<path d="M493.69 932.664L402.821 841.794C395.06 834.034 395.06 821.451 402.821 813.69L493.69 722.821C501.451 715.06 514.034 715.06 521.794 722.821C529.555 730.581 529.555 743.164 521.794 750.925C521.786 750.933 521.778 750.941 521.769 750.949L444.977 827.742L521.794 904.56C529.555 912.321 529.555 924.903 521.794 932.664C514.034 940.425 501.451 940.425 493.69 932.664Z" fill="white"/>
<path d="M650.693 722.82L741.562 813.69C749.323 821.451 749.323 834.033 741.562 841.794L650.693 932.664C642.932 940.425 630.349 940.425 622.588 932.664C614.828 924.903 614.828 912.32 622.588 904.56C622.597 904.551 622.605 904.543 622.613 904.535L699.406 827.742L622.588 750.924C614.828 743.164 614.828 730.581 622.588 722.82C630.349 715.059 642.932 715.059 650.693 722.82Z" fill="white"/>
<line x1="603" y1="796.284" x2="540.284" y2="859" stroke="white" stroke-width="40" stroke-linecap="round"/>
<line x1="609.461" y1="666.25" x2="684.299" y2="712.553" stroke="white" stroke-opacity="0.6" stroke-width="30" stroke-linecap="round"/>
<line x1="618.25" y1="623.217" x2="708.315" y2="654.437" stroke="white" stroke-opacity="0.4" stroke-width="30" stroke-linecap="round"/>
<line x1="607.026" y1="578.662" x2="693.676" y2="588.784" stroke="white" stroke-opacity="0.2" stroke-width="30" stroke-linecap="round"/>
<line x1="587.774" y1="540.43" x2="671.389" y2="525.344" stroke="white" stroke-opacity="0.1" stroke-width="30" stroke-linecap="round"/>
<line x1="564.339" y1="506.994" x2="628.059" y2="473.662" stroke="white" stroke-opacity="0.04" stroke-width="30" stroke-linecap="round"/>
<line x1="509.114" y1="988.953" x2="434.276" y2="942.65" stroke="white" stroke-opacity="0.6" stroke-width="30" stroke-linecap="round"/>
<line x1="500.325" y1="1031.99" x2="410.259" y2="1000.77" stroke="white" stroke-opacity="0.4" stroke-width="30" stroke-linecap="round"/>
<line x1="511.548" y1="1076.54" x2="424.899" y2="1066.42" stroke="white" stroke-opacity="0.2" stroke-width="30" stroke-linecap="round"/>
<line x1="530.8" y1="1114.77" x2="447.185" y2="1129.86" stroke="white" stroke-opacity="0.1" stroke-width="30" stroke-linecap="round"/>
<line x1="554.236" y1="1148.21" x2="490.515" y2="1181.54" stroke="white" stroke-opacity="0.04" stroke-width="30" stroke-linecap="round"/>
</svg>
