<svg width="3745" height="1780" viewBox="0 0 3745 1780" fill="none" xmlns="http://www.w3.org/2000/svg">
<rect width="3745" height="1780" fill="black"/>
<path d="M1753.6 707V567H1771.2V707H1753.6ZM1797.88 603H1810.28L1812.08 608.8L1820.28 606.4C1825.88 604.667 1830.28 603.467 1833.48 602.8C1836.81 602 1839.94 601.6 1842.88 601.6C1847.68 601.6 1851.21 603.267 1853.48 606.6C1855.74 609.933 1856.88 614.267 1856.88 619.6V707H1840.88V624.8C1840.88 620.933 1840.61 618.267 1840.08 616.8C1839.54 615.2 1838.21 614.4 1836.08 614.4C1835.01 614.4 1827.61 616.533 1813.88 620.8V707H1797.88V603ZM1908.13 707C1900.79 707 1894.99 704.8 1890.73 700.4C1886.46 696 1884.33 690.067 1884.33 682.6V615H1872.33V603H1884.33V572.8L1900.33 566.8V603H1916.33V615H1900.33V684C1900.33 687.2 1901.19 689.867 1902.93 692C1904.79 694 1907.26 695 1910.33 695H1916.33V707H1908.13ZM1953.05 707C1945.72 707 1939.85 704.8 1935.45 700.4C1931.18 696 1929.05 690.067 1929.05 682.6V629.4C1929.05 620.733 1931.45 613.933 1936.25 609C1941.05 604.067 1948.18 601.6 1957.65 601.6C1967.12 601.6 1974.18 604.067 1978.85 609C1983.65 613.933 1986.05 620.733 1986.05 629.4V638.6C1986.05 644.2 1984.45 648.467 1981.25 651.4C1978.05 654.2 1973.85 656.333 1968.65 657.8L1945.05 664.4V684C1945.05 687.2 1945.98 689.867 1947.85 692C1949.85 694 1952.38 695 1955.45 695H1977.05V707H1953.05ZM1957.25 648.4C1961.65 647.2 1964.58 646.333 1966.05 645.8C1967.65 645.133 1968.72 644.2 1969.25 643C1969.78 641.8 1970.05 639.8 1970.05 637V626C1970.05 621.733 1968.92 618.6 1966.65 616.6C1964.52 614.6 1961.52 613.6 1957.65 613.6C1953.92 613.6 1950.85 614.667 1948.45 616.8C1946.18 618.933 1945.05 622 1945.05 626V651.8L1957.25 648.4ZM2001.98 603H2014.38L2016.18 610.4L2021.18 608C2025.44 605.867 2028.98 604.267 2031.78 603.2C2034.71 602.133 2037.64 601.6 2040.58 601.6V613.4C2038.84 613.4 2036.51 613.933 2033.58 615C2030.64 615.933 2025.44 618.2 2017.98 621.8V707H2001.98V603ZM2076.69 707C2071.89 707 2067.43 705.8 2063.29 703.4C2059.29 701 2056.09 697.733 2053.69 693.6C2051.43 689.467 2050.29 684.8 2050.29 679.6V669.2C2050.29 662.933 2051.83 657.667 2054.89 653.4C2058.09 649.133 2062.03 646.133 2066.69 644.4L2091.49 635.2V625.8C2091.49 622.6 2090.49 620 2088.49 618C2086.63 615.867 2084.16 614.8 2081.09 614.8H2058.49V603H2082.49C2089.83 603 2095.63 605.2 2099.89 609.6C2104.29 613.867 2106.49 619.733 2106.49 627.2V707H2076.69ZM2091.49 694.8V647.8L2073.89 654.4C2070.43 655.733 2067.96 657.533 2066.49 659.8C2065.16 662.067 2064.49 665.667 2064.49 670.6V681.8C2064.49 685.4 2065.83 688.467 2068.49 691C2071.16 693.533 2074.36 694.8 2078.09 694.8H2091.49ZM2150.54 707C2143.21 707 2137.34 704.8 2132.94 700.4C2128.67 696 2126.54 690.067 2126.54 682.6V629.4C2126.54 621 2128.74 614.533 2133.14 610C2137.54 605.333 2143.94 603 2152.34 603H2174.54V615H2152.74C2149.67 615 2147.21 616.067 2145.34 618.2C2143.47 620.2 2142.54 622.8 2142.54 626V684C2142.54 687.2 2143.47 689.867 2145.34 692C2147.34 694 2149.87 695 2152.94 695H2174.54V707H2150.54ZM2217.5 707C2210.17 707 2204.37 704.8 2200.1 700.4C2195.83 696 2193.7 690.067 2193.7 682.6V615H2181.7V603H2193.7V572.8L2209.7 566.8V603H2225.7V615H2209.7V684C2209.7 687.2 2210.57 689.867 2212.3 692C2214.17 694 2216.63 695 2219.7 695H2225.7V707H2217.5ZM2241.63 586V570H2257.63V586H2241.63ZM2241.63 707V603H2257.63V707H2241.63ZM2296.46 707L2272.66 603H2289.26L2304.66 686.8L2319.86 603H2336.46L2312.66 707H2296.46ZM2372.19 707C2364.86 707 2358.99 704.8 2354.59 700.4C2350.32 696 2348.19 690.067 2348.19 682.6V629.4C2348.19 620.733 2350.59 613.933 2355.39 609C2360.19 604.067 2367.32 601.6 2376.79 601.6C2386.26 601.6 2393.32 604.067 2397.99 609C2402.79 613.933 2405.19 620.733 2405.19 629.4V638.6C2405.19 644.2 2403.59 648.467 2400.39 651.4C2397.19 654.2 2392.99 656.333 2387.79 657.8L2364.19 664.4V684C2364.19 687.2 2365.12 689.867 2366.99 692C2368.99 694 2371.52 695 2374.59 695H2396.19V707H2372.19ZM2376.39 648.4C2380.79 647.2 2383.72 646.333 2385.19 645.8C2386.79 645.133 2387.86 644.2 2388.39 643C2388.92 641.8 2389.19 639.8 2389.19 637V626C2389.19 621.733 2388.06 618.6 2385.79 616.6C2383.66 614.6 2380.66 613.6 2376.79 613.6C2373.06 613.6 2369.99 614.667 2367.59 616.8C2365.32 618.933 2364.19 622 2364.19 626V651.8L2376.39 648.4ZM1751.2 898.8H1773C1780.6 898.8 1786.07 896.533 1789.4 892C1792.87 887.467 1794.6 881.867 1794.6 875.2C1794.6 870 1793.6 865.533 1791.6 861.8C1789.73 857.933 1787.4 854.733 1784.6 852.2C1781.8 849.667 1778 846.733 1773.2 843.4C1768.13 839.933 1764 836.8 1760.8 834C1757.73 831.067 1755.13 827.4 1753 823C1750.87 818.6 1749.8 813.333 1749.8 807.2C1749.8 796.533 1753 788 1759.4 781.6C1765.8 775.2 1774.67 772 1786 772H1802.2V785.2H1786.8C1780.4 785.2 1775.53 787.267 1772.2 791.4C1768.87 795.533 1767.2 800.333 1767.2 805.8C1767.2 811.133 1768.73 815.533 1771.8 819C1774.87 822.467 1779.53 826.4 1785.8 830.8C1791.53 834.933 1796.13 838.667 1799.6 842C1803.07 845.2 1806 849.467 1808.4 854.8C1810.93 860.133 1812.2 866.533 1812.2 874C1812.2 886.533 1808.6 896 1801.4 902.4C1794.33 908.8 1784.6 912 1772.2 912H1751.2V898.8ZM1858.13 912C1850.79 912 1844.99 909.8 1840.73 905.4C1836.46 901 1834.33 895.067 1834.33 887.6V820H1822.33V808H1834.33V777.8L1850.33 771.8V808H1866.33V820H1850.33V889C1850.33 892.2 1851.19 894.867 1852.93 897C1854.79 899 1857.26 900 1860.33 900H1866.33V912H1858.13ZM1907.65 913.4C1898.32 913.4 1891.05 911.067 1885.85 906.4C1880.78 901.6 1878.25 895 1878.25 886.6V833.4C1878.25 825 1880.78 818.467 1885.85 813.8C1891.05 809 1898.32 806.6 1907.65 806.6C1916.98 806.6 1924.18 809 1929.25 813.8C1934.45 818.467 1937.05 825 1937.05 833.4V886.6C1937.05 895 1934.45 901.6 1929.25 906.4C1924.18 911.067 1916.98 913.4 1907.65 913.4ZM1907.65 901C1911.92 901 1915.25 899.8 1917.65 897.4C1920.18 894.867 1921.45 891.267 1921.45 886.6V833.4C1921.45 828.733 1920.18 825.2 1917.65 822.8C1915.25 820.267 1911.92 819 1907.65 819C1903.38 819 1899.98 820.267 1897.45 822.8C1895.05 825.2 1893.85 828.733 1893.85 833.4V886.6C1893.85 891.267 1895.05 894.867 1897.45 897.4C1899.98 899.8 1903.38 901 1907.65 901ZM1957.05 808H1969.45L1971.25 815.4L1976.25 813C1980.52 810.867 1984.05 809.267 1986.85 808.2C1989.79 807.133 1992.72 806.6 1995.65 806.6V818.4C1993.92 818.4 1991.59 818.933 1988.65 820C1985.72 820.933 1980.52 823.2 1973.05 826.8V912H1957.05V808ZM2009.97 932H2016.17C2019.77 932 2023.04 930.267 2025.97 926.8C2028.9 923.467 2030.37 918.467 2030.37 911.8L2002.57 808H2019.17L2036.57 892.4L2050.57 808H2066.37L2041.97 924C2039.17 937.333 2031.44 944 2018.77 944H2009.97V932ZM2110.27 912C2102.94 912 2097.14 909.8 2092.87 905.4C2088.61 901 2086.47 895.067 2086.47 887.6V820H2074.47V808H2086.47V777.8L2102.47 771.8V808H2118.47V820H2102.47V889C2102.47 892.2 2103.34 894.867 2105.07 897C2106.94 899 2109.41 900 2112.47 900H2118.47V912H2110.27ZM2155.2 912C2147.87 912 2142 909.8 2137.6 905.4C2133.33 901 2131.2 895.067 2131.2 887.6V834.4C2131.2 825.733 2133.6 818.933 2138.4 814C2143.2 809.067 2150.33 806.6 2159.8 806.6C2169.27 806.6 2176.33 809.067 2181 814C2185.8 818.933 2188.2 825.733 2188.2 834.4V843.6C2188.2 849.2 2186.6 853.467 2183.4 856.4C2180.2 859.2 2176 861.333 2170.8 862.8L2147.2 869.4V889C2147.2 892.2 2148.13 894.867 2150 897C2152 899 2154.53 900 2157.6 900H2179.2V912H2155.2ZM2159.4 853.4C2163.8 852.2 2166.73 851.333 2168.2 850.8C2169.8 850.133 2170.87 849.2 2171.4 848C2171.93 846.8 2172.2 844.8 2172.2 842V831C2172.2 826.733 2171.07 823.6 2168.8 821.6C2166.67 819.6 2163.67 818.6 2159.8 818.6C2156.07 818.6 2153 819.667 2150.6 821.8C2148.33 823.933 2147.2 827 2147.2 831V856.8L2159.4 853.4ZM2204.33 912V772H2220.33V912H2204.33ZM2244.36 912V772H2260.36V912H2244.36ZM2284.2 791V775H2300.2V791H2284.2ZM2284.2 912V808H2300.2V912H2284.2ZM2324.24 808H2336.64L2338.44 813.8L2346.64 811.4C2352.24 809.667 2356.64 808.467 2359.84 807.8C2363.18 807 2366.31 806.6 2369.24 806.6C2374.04 806.6 2377.58 808.267 2379.84 811.6C2382.11 814.933 2383.24 819.267 2383.24 824.6V912H2367.24V829.8C2367.24 825.933 2366.98 823.267 2366.44 821.8C2365.91 820.2 2364.58 819.4 2362.44 819.4C2361.38 819.4 2353.98 821.533 2340.24 825.8V912H2324.24V808ZM2413.89 932H2434.49C2437.56 932 2439.96 930.933 2441.69 928.8C2443.56 926.8 2444.49 924.2 2444.49 921V912.2H2427.89C2420.56 912.2 2414.36 909.8 2409.29 905C2404.23 900.2 2401.69 894.2 2401.69 887V833.2C2401.69 826 2404.23 820 2409.29 815.2C2414.49 810.4 2420.76 808 2428.09 808H2460.69V919.6C2460.69 927.067 2458.63 933 2454.49 937.4C2450.49 941.8 2444.83 944 2437.49 944H2413.89V932ZM2444.69 900.2V820H2431.29C2427.56 820 2424.36 821.267 2421.69 823.8C2419.03 826.333 2417.69 829.467 2417.69 833.2V887C2417.69 890.733 2419.03 893.867 2421.69 896.4C2424.36 898.933 2427.56 900.2 2431.29 900.2H2444.69Z" fill="white"/>
<path d="M1759.8 1052V969.58H1741.6V961H1789.44V969.58H1771.24V1052H1759.8ZM1799.87 984.4H1807.93L1809.1 989.21L1812.35 987.65C1815.12 986.263 1817.42 985.223 1819.24 984.53C1821.14 983.837 1823.05 983.49 1824.96 983.49V991.16C1823.83 991.16 1822.31 991.507 1820.41 992.2C1818.5 992.807 1815.12 994.28 1810.27 996.62V1052H1799.87V984.4ZM1848.43 1052C1845.31 1052 1842.41 1051.22 1839.72 1049.66C1837.12 1048.1 1835.04 1045.98 1833.48 1043.29C1832.01 1040.6 1831.27 1037.57 1831.27 1034.19V1027.43C1831.27 1023.36 1832.27 1019.93 1834.26 1017.16C1836.34 1014.39 1838.9 1012.44 1841.93 1011.31L1858.05 1005.33V999.22C1858.05 997.14 1857.4 995.45 1856.1 994.15C1854.89 992.763 1853.28 992.07 1851.29 992.07H1836.6V984.4H1852.2C1856.97 984.4 1860.74 985.83 1863.51 988.69C1866.37 991.463 1867.8 995.277 1867.8 1000.13V1052H1848.43ZM1858.05 1044.07V1013.52L1846.61 1017.81C1844.36 1018.68 1842.75 1019.85 1841.8 1021.32C1840.93 1022.79 1840.5 1025.13 1840.5 1028.34V1035.62C1840.5 1037.96 1841.37 1039.95 1843.1 1041.6C1844.83 1043.25 1846.91 1044.07 1849.34 1044.07H1858.05ZM1882.13 984.4H1890.19L1891.36 988.17L1896.69 986.61C1900.33 985.483 1903.19 984.703 1905.27 984.27C1907.44 983.75 1909.48 983.49 1911.38 983.49C1914.5 983.49 1916.8 984.573 1918.27 986.74C1919.75 988.907 1920.48 991.723 1920.48 995.19V1052H1910.08V998.57C1910.08 996.057 1909.91 994.323 1909.56 993.37C1909.22 992.33 1908.35 991.81 1906.96 991.81C1906.27 991.81 1901.46 993.197 1892.53 995.97V1052H1882.13V984.4ZM1931.04 1044.2H1942.09C1945.82 1044.2 1948.51 1043.2 1950.15 1041.21C1951.89 1039.13 1952.75 1036.44 1952.75 1033.15C1952.75 1030.55 1951.97 1028.34 1950.41 1026.52C1948.85 1024.7 1946.51 1022.58 1943.39 1020.15C1940.71 1017.98 1938.54 1016.12 1936.89 1014.56C1935.33 1012.91 1933.95 1010.92 1932.73 1008.58C1931.61 1006.15 1931.04 1003.38 1931.04 1000.26C1931.04 995.667 1932.56 991.897 1935.59 988.95C1938.71 985.917 1942.87 984.4 1948.07 984.4H1959.38V992.2H1950.02C1943.87 992.2 1940.79 995.103 1940.79 1000.91C1940.79 1003.16 1941.49 1005.11 1942.87 1006.76C1944.26 1008.41 1946.43 1010.36 1949.37 1012.61C1952.06 1014.69 1954.27 1016.6 1956 1018.33C1957.74 1019.98 1959.21 1022.1 1960.42 1024.7C1961.64 1027.21 1962.24 1030.2 1962.24 1033.67C1962.24 1039.82 1960.6 1044.42 1957.3 1047.45C1954.1 1050.48 1949.55 1052 1943.65 1052H1931.04V1044.2ZM1977.17 992.98H1969.37V984.4H1977.17V976.86C1977.17 972.007 1978.56 968.15 1981.33 965.29C1984.1 962.43 1987.87 961 1992.64 961H1998.36V968.8H1994.46C1992.47 968.8 1990.82 969.493 1989.52 970.88C1988.22 972.267 1987.57 973.957 1987.57 975.95V984.4H1998.1V992.98H1987.57V1052H1977.17V992.98ZM2023.06 1052.91C2016.99 1052.91 2012.27 1051.39 2008.89 1048.36C2005.59 1045.24 2003.95 1040.95 2003.95 1035.49V1000.91C2003.95 995.45 2005.59 991.203 2008.89 988.17C2012.27 985.05 2016.99 983.49 2023.06 983.49C2029.12 983.49 2033.8 985.05 2037.1 988.17C2040.48 991.203 2042.17 995.45 2042.17 1000.91V1035.49C2042.17 1040.95 2040.48 1045.24 2037.1 1048.36C2033.8 1051.39 2029.12 1052.91 2023.06 1052.91ZM2023.06 1044.85C2025.83 1044.85 2028 1044.07 2029.56 1042.51C2031.2 1040.86 2032.03 1038.52 2032.03 1035.49V1000.91C2032.03 997.877 2031.2 995.58 2029.56 994.02C2028 992.373 2025.83 991.55 2023.06 991.55C2020.28 991.55 2018.07 992.373 2016.43 994.02C2014.87 995.58 2014.09 997.877 2014.09 1000.91V1035.49C2014.09 1038.52 2014.87 1040.86 2016.43 1042.51C2018.07 1044.07 2020.28 1044.85 2023.06 1044.85ZM2055.17 984.4H2063.23L2064.4 989.21L2067.65 987.65C2070.42 986.263 2072.72 985.223 2074.54 984.53C2076.45 983.837 2078.35 983.49 2080.26 983.49V991.16C2079.13 991.16 2077.62 991.507 2075.71 992.2C2073.8 992.807 2070.42 994.28 2065.57 996.62V1052H2055.17V984.4ZM2089.95 984.4H2098.01L2099.18 988.17L2104.51 986.61C2108.15 985.483 2111.01 984.703 2113.09 984.27C2115.26 983.75 2117.3 983.49 2119.2 983.49C2122.93 983.49 2125.53 985.137 2127 988.43C2129.43 987.563 2132.85 986.523 2137.27 985.31C2141.69 984.097 2144.94 983.49 2147.02 983.49C2150.14 983.49 2152.44 984.573 2153.91 986.74C2155.47 988.907 2156.25 991.723 2156.25 995.19V1052H2145.85V998.57C2145.85 996.057 2145.68 994.323 2145.33 993.37C2144.99 992.33 2144.12 991.81 2142.73 991.81C2142.04 991.81 2137.27 993.197 2128.43 995.97V1052H2118.03V998.57C2118.03 996.057 2117.86 994.323 2117.51 993.37C2117.17 992.33 2116.3 991.81 2114.91 991.81C2114.22 991.81 2109.37 993.197 2100.35 995.97V1052H2089.95V984.4ZM2184.35 1052C2181.23 1052 2178.33 1051.22 2175.64 1049.66C2173.04 1048.1 2170.96 1045.98 2169.4 1043.29C2167.93 1040.6 2167.19 1037.57 2167.19 1034.19V1027.43C2167.19 1023.36 2168.19 1019.93 2170.18 1017.16C2172.26 1014.39 2174.82 1012.44 2177.85 1011.31L2193.97 1005.33V999.22C2193.97 997.14 2193.32 995.45 2192.02 994.15C2190.81 992.763 2189.2 992.07 2187.21 992.07H2172.52V984.4H2188.12C2192.89 984.4 2196.66 985.83 2199.43 988.69C2202.29 991.463 2203.72 995.277 2203.72 1000.13V1052H2184.35ZM2193.97 1044.07V1013.52L2182.53 1017.81C2180.28 1018.68 2178.67 1019.85 2177.72 1021.32C2176.85 1022.79 2176.42 1025.13 2176.42 1028.34V1035.62C2176.42 1037.96 2177.29 1039.95 2179.02 1041.6C2180.75 1043.25 2182.83 1044.07 2185.26 1044.07H2193.97ZM2238.98 1056.16C2242.1 1056.16 2244.48 1056.72 2246.13 1057.85C2247.78 1058.98 2248.6 1061.01 2248.6 1063.96C2248.6 1069.85 2245.22 1072.8 2238.46 1072.8H2224.55V1066.69H2234.95C2236.94 1066.69 2238.42 1066.47 2239.37 1066.04C2240.32 1065.61 2240.8 1064.87 2240.8 1063.83C2240.8 1062.7 2240.45 1061.97 2239.76 1061.62C2239.07 1061.27 2237.94 1061.1 2236.38 1061.1H2229.62L2231.83 1052H2232.35C2227.58 1052 2223.77 1050.57 2220.91 1047.71C2218.14 1044.85 2216.75 1040.99 2216.75 1036.14V1001.56C2216.75 996.1 2218.18 991.897 2221.04 988.95C2223.9 985.917 2228.06 984.4 2233.52 984.4H2247.95V992.2H2233.78C2231.79 992.2 2230.18 992.893 2228.97 994.28C2227.76 995.58 2227.15 997.27 2227.15 999.35V1037.05C2227.15 1039.13 2227.76 1040.86 2228.97 1042.25C2230.27 1043.55 2231.92 1044.2 2233.91 1044.2H2247.95V1052H2239.89L2238.98 1056.16ZM2255.2 977.9C2255.29 974 2256.03 971.053 2257.41 969.06C2258.8 966.98 2261.31 965.94 2264.95 965.94C2265.91 965.94 2268.72 966.633 2273.4 968.02C2278 969.493 2280.94 970.23 2282.24 970.23C2283.28 970.23 2283.98 969.927 2284.32 969.32C2284.67 968.627 2284.89 967.803 2284.97 966.85C2285.15 965.897 2285.28 965.16 2285.36 964.64H2293.55C2293.47 967.587 2293.25 969.97 2292.9 971.79C2292.56 973.523 2291.65 974.997 2290.17 976.21C2288.79 977.337 2286.66 977.9 2283.8 977.9C2282.5 977.9 2279.56 977.163 2274.96 975.69C2270.28 974.303 2267.47 973.61 2266.51 973.61C2265.39 973.61 2264.65 973.827 2264.3 974.26C2264.04 974.693 2263.83 975.3 2263.65 976.08C2263.57 976.86 2263.48 977.467 2263.39 977.9H2255.2ZM2273.53 1052.91C2267.47 1052.91 2262.74 1051.39 2259.36 1048.36C2256.07 1045.24 2254.42 1040.95 2254.42 1035.49V1000.91C2254.42 995.45 2256.07 991.203 2259.36 988.17C2262.74 985.05 2267.47 983.49 2273.53 983.49C2279.6 983.49 2284.28 985.05 2287.57 988.17C2290.95 991.203 2292.64 995.45 2292.64 1000.91V1035.49C2292.64 1040.95 2290.95 1045.24 2287.57 1048.36C2284.28 1051.39 2279.6 1052.91 2273.53 1052.91ZM2273.53 1044.85C2276.31 1044.85 2278.47 1044.07 2280.03 1042.51C2281.68 1040.86 2282.5 1038.52 2282.5 1035.49V1000.91C2282.5 997.877 2281.68 995.58 2280.03 994.02C2278.47 992.373 2276.31 991.55 2273.53 991.55C2270.76 991.55 2268.55 992.373 2266.9 994.02C2265.34 995.58 2264.56 997.877 2264.56 1000.91V1035.49C2264.56 1038.52 2265.34 1040.86 2266.9 1042.51C2268.55 1044.07 2270.76 1044.85 2273.53 1044.85ZM2319.17 1052C2314.4 1052 2310.59 1050.57 2307.73 1047.71C2304.95 1044.85 2303.57 1040.99 2303.57 1036.14V1001.56C2303.57 995.927 2305.13 991.507 2308.25 988.3C2311.37 985.093 2316 983.49 2322.16 983.49C2328.31 983.49 2332.9 985.093 2335.94 988.3C2339.06 991.507 2340.62 995.927 2340.62 1001.56V1007.54C2340.62 1011.18 2339.58 1013.95 2337.5 1015.86C2335.42 1017.68 2332.69 1019.07 2329.31 1020.02L2313.97 1024.31V1037.05C2313.97 1039.13 2314.57 1040.86 2315.79 1042.25C2317.09 1043.55 2318.73 1044.2 2320.73 1044.2H2334.77V1052H2319.17ZM2321.9 1013.91C2324.76 1013.13 2326.66 1012.57 2327.62 1012.22C2328.66 1011.79 2329.35 1011.18 2329.7 1010.4C2330.04 1009.62 2330.22 1008.32 2330.22 1006.5V999.35C2330.22 996.577 2329.48 994.54 2328.01 993.24C2326.62 991.94 2324.67 991.29 2322.16 991.29C2319.73 991.29 2317.74 991.983 2316.18 993.37C2314.7 994.757 2313.97 996.75 2313.97 999.35V1016.12L2321.9 1013.91ZM2347.07 1044.2H2358.12C2361.85 1044.2 2364.53 1043.2 2366.18 1041.21C2367.91 1039.13 2368.78 1036.44 2368.78 1033.15C2368.78 1030.55 2368 1028.34 2366.44 1026.52C2364.88 1024.7 2362.54 1022.58 2359.42 1020.15C2356.73 1017.98 2354.57 1016.12 2352.92 1014.56C2351.36 1012.91 2349.97 1010.92 2348.76 1008.58C2347.63 1006.15 2347.07 1003.38 2347.07 1000.26C2347.07 995.667 2348.59 991.897 2351.62 988.95C2354.74 985.917 2358.9 984.4 2364.1 984.4H2375.41V992.2H2366.05C2359.9 992.2 2356.82 995.103 2356.82 1000.91C2356.82 1003.16 2357.51 1005.11 2358.9 1006.76C2360.29 1008.41 2362.45 1010.36 2365.4 1012.61C2368.09 1014.69 2370.3 1016.6 2372.03 1018.33C2373.76 1019.98 2375.24 1022.1 2376.45 1024.7C2377.66 1027.21 2378.27 1030.2 2378.27 1033.67C2378.27 1039.82 2376.62 1044.42 2373.33 1047.45C2370.12 1050.48 2365.57 1052 2359.68 1052H2347.07V1044.2ZM2409.5 984.4H2417.56L2418.73 988.17L2424.06 986.61C2427.7 985.483 2430.56 984.703 2432.64 984.27C2434.8 983.75 2436.84 983.49 2438.75 983.49C2441.87 983.49 2444.16 984.573 2445.64 986.74C2447.11 988.907 2447.85 991.723 2447.85 995.19V1052H2437.45V998.57C2437.45 996.057 2437.27 994.323 2436.93 993.37C2436.58 992.33 2435.71 991.81 2434.33 991.81C2433.63 991.81 2428.82 993.197 2419.9 995.97V1052H2409.5V984.4ZM2476.09 1052C2472.97 1052 2470.06 1051.22 2467.38 1049.66C2464.78 1048.1 2462.7 1045.98 2461.14 1043.29C2459.66 1040.6 2458.93 1037.57 2458.93 1034.19V1027.43C2458.93 1023.36 2459.92 1019.93 2461.92 1017.16C2464 1014.39 2466.55 1012.44 2469.59 1011.31L2485.71 1005.33V999.22C2485.71 997.14 2485.06 995.45 2483.76 994.15C2482.54 992.763 2480.94 992.07 2478.95 992.07H2464.26V984.4H2479.86C2484.62 984.4 2488.39 985.83 2491.17 988.69C2494.03 991.463 2495.46 995.277 2495.46 1000.13V1052H2476.09ZM2485.71 1044.07V1013.52L2474.27 1017.81C2472.01 1018.68 2470.41 1019.85 2469.46 1021.32C2468.59 1022.79 2468.16 1025.13 2468.16 1028.34V1035.62C2468.16 1037.96 2469.02 1039.95 2470.76 1041.6C2472.49 1043.25 2474.57 1044.07 2477 1044.07H2485.71ZM1746.8 1103.35V1092.95H1757.2V1103.35H1746.8ZM1746.8 1182V1114.4H1757.2V1182H1746.8ZM1772.83 1114.4H1780.89L1782.06 1118.17L1787.39 1116.61C1791.03 1115.48 1793.89 1114.7 1795.97 1114.27C1798.13 1113.75 1800.17 1113.49 1802.08 1113.49C1805.2 1113.49 1807.49 1114.57 1808.97 1116.74C1810.44 1118.91 1811.18 1121.72 1811.18 1125.19V1182H1800.78V1128.57C1800.78 1126.06 1800.6 1124.32 1800.26 1123.37C1799.91 1122.33 1799.04 1121.81 1797.66 1121.81C1796.96 1121.81 1792.15 1123.2 1783.23 1125.97V1182H1772.83V1114.4ZM1842.8 1182C1837.34 1182 1832.92 1180.4 1829.54 1177.19C1826.16 1173.98 1824.47 1169.69 1824.47 1164.32V1131.95C1824.47 1128.22 1825.46 1125.06 1827.46 1122.46C1829.54 1119.86 1832.09 1118.08 1835.13 1117.13L1852.55 1111.02V1091H1862.95V1182H1842.8ZM1852.55 1174.2V1119.6L1840.98 1123.5C1838.72 1124.19 1837.12 1125.32 1836.17 1126.88C1835.3 1128.35 1834.87 1130.74 1834.87 1134.03V1164.32C1834.87 1167.44 1835.78 1169.87 1837.6 1171.6C1839.42 1173.33 1841.89 1174.2 1845.01 1174.2H1852.55ZM1895.61 1109.33L1891.32 1105.43L1906.4 1092.56L1913.03 1098.67L1895.61 1109.33ZM1886.51 1182.91C1883.39 1182.91 1881.05 1181.83 1879.49 1179.66C1878.01 1177.49 1877.28 1174.68 1877.28 1171.21V1114.4H1887.68V1167.83C1887.68 1170.26 1887.85 1171.99 1888.2 1173.03C1888.54 1174.07 1889.37 1174.59 1890.67 1174.59C1891.27 1174.59 1896.17 1173.29 1905.36 1170.69V1114.4H1915.76V1182H1908.35L1906.4 1177.58C1905.01 1178.1 1903.97 1178.45 1903.28 1178.62C1899.2 1180.09 1895.91 1181.18 1893.4 1181.87C1890.88 1182.56 1888.59 1182.91 1886.51 1182.91ZM1927.49 1174.2H1938.54C1942.27 1174.2 1944.95 1173.2 1946.6 1171.21C1948.33 1169.13 1949.2 1166.44 1949.2 1163.15C1949.2 1160.55 1948.42 1158.34 1946.86 1156.52C1945.3 1154.7 1942.96 1152.58 1939.84 1150.15C1937.15 1147.98 1934.99 1146.12 1933.34 1144.56C1931.78 1142.91 1930.39 1140.92 1929.18 1138.58C1928.05 1136.15 1927.49 1133.38 1927.49 1130.26C1927.49 1125.67 1929.01 1121.9 1932.04 1118.95C1935.16 1115.92 1939.32 1114.4 1944.52 1114.4H1955.83V1122.2H1946.47C1940.32 1122.2 1937.24 1125.1 1937.24 1130.91C1937.24 1133.16 1937.93 1135.11 1939.32 1136.76C1940.71 1138.41 1942.87 1140.36 1945.82 1142.61C1948.51 1144.69 1950.72 1146.6 1952.45 1148.33C1954.18 1149.98 1955.66 1152.1 1956.87 1154.7C1958.08 1157.21 1958.69 1160.2 1958.69 1163.67C1958.69 1169.82 1957.04 1174.42 1953.75 1177.45C1950.54 1180.48 1945.99 1182 1940.1 1182H1927.49V1174.2ZM1989.21 1182C1984.45 1182 1980.68 1180.57 1977.9 1177.71C1975.13 1174.85 1973.74 1170.99 1973.74 1166.14V1122.2H1965.94V1114.4H1973.74V1094.77L1984.14 1090.87V1114.4H1994.54V1122.2H1984.14V1167.05C1984.14 1169.13 1984.71 1170.86 1985.83 1172.25C1987.05 1173.55 1988.65 1174.2 1990.64 1174.2H1994.54V1182H1989.21ZM2004.9 1114.4H2012.96L2014.13 1119.21L2017.38 1117.65C2020.15 1116.26 2022.45 1115.22 2024.27 1114.53C2026.17 1113.84 2028.08 1113.49 2029.99 1113.49V1121.16C2028.86 1121.16 2027.34 1121.51 2025.44 1122.2C2023.53 1122.81 2020.15 1124.28 2015.3 1126.62V1182H2004.9V1114.4ZM2039.68 1103.35V1092.95H2050.08V1103.35H2039.68ZM2039.68 1182V1114.4H2050.08V1182H2039.68ZM2079.49 1182C2076.37 1182 2073.46 1181.22 2070.78 1179.66C2068.18 1178.1 2066.1 1175.98 2064.54 1173.29C2063.06 1170.6 2062.33 1167.57 2062.33 1164.19V1157.43C2062.33 1153.36 2063.32 1149.93 2065.32 1147.16C2067.4 1144.39 2069.95 1142.44 2072.99 1141.31L2089.11 1135.33V1129.22C2089.11 1127.14 2088.46 1125.45 2087.16 1124.15C2085.94 1122.76 2084.34 1122.07 2082.35 1122.07H2067.66V1114.4H2083.26C2088.02 1114.4 2091.79 1115.83 2094.57 1118.69C2097.43 1121.46 2098.86 1125.28 2098.86 1130.13V1182H2079.49ZM2089.11 1174.07V1143.52L2077.67 1147.81C2075.41 1148.68 2073.81 1149.85 2072.86 1151.32C2071.99 1152.79 2071.56 1155.13 2071.56 1158.34V1165.62C2071.56 1167.96 2072.42 1169.95 2074.16 1171.6C2075.89 1173.25 2077.97 1174.07 2080.4 1174.07H2089.11ZM2132.74 1103.35V1092.95H2143.14V1103.35H2132.74ZM2132.74 1182V1114.4H2143.14V1182H2132.74ZM2158.76 1114.4H2166.82L2167.99 1118.17L2173.32 1116.61C2176.96 1115.48 2179.82 1114.7 2181.9 1114.27C2184.07 1113.75 2186.11 1113.49 2188.01 1113.49C2191.13 1113.49 2193.43 1114.57 2194.9 1116.74C2196.38 1118.91 2197.11 1121.72 2197.11 1125.19V1182H2186.71V1128.57C2186.71 1126.06 2186.54 1124.32 2186.19 1123.37C2185.85 1122.33 2184.98 1121.81 2183.59 1121.81C2182.9 1121.81 2178.09 1123.2 2169.16 1125.97V1182H2158.76V1114.4ZM2214.83 1122.98H2207.03V1114.4H2214.83V1106.86C2214.83 1102.01 2216.21 1098.15 2218.99 1095.29C2221.76 1092.43 2225.53 1091 2230.3 1091H2236.02V1098.8H2232.12C2230.12 1098.8 2228.48 1099.49 2227.18 1100.88C2225.88 1102.27 2225.23 1103.96 2225.23 1105.95V1114.4H2235.76V1122.98H2225.23V1182H2214.83V1122.98ZM2260.71 1182.91C2254.65 1182.91 2249.92 1181.39 2246.54 1178.36C2243.25 1175.24 2241.6 1170.95 2241.6 1165.49V1130.91C2241.6 1125.45 2243.25 1121.2 2246.54 1118.17C2249.92 1115.05 2254.65 1113.49 2260.71 1113.49C2266.78 1113.49 2271.46 1115.05 2274.75 1118.17C2278.13 1121.2 2279.82 1125.45 2279.82 1130.91V1165.49C2279.82 1170.95 2278.13 1175.24 2274.75 1178.36C2271.46 1181.39 2266.78 1182.91 2260.71 1182.91ZM2260.71 1174.85C2263.49 1174.85 2265.65 1174.07 2267.21 1172.51C2268.86 1170.86 2269.68 1168.52 2269.68 1165.49V1130.91C2269.68 1127.88 2268.86 1125.58 2267.21 1124.02C2265.65 1122.37 2263.49 1121.55 2260.71 1121.55C2257.94 1121.55 2255.73 1122.37 2254.08 1124.02C2252.52 1125.58 2251.74 1127.88 2251.74 1130.91V1165.49C2251.74 1168.52 2252.52 1170.86 2254.08 1172.51C2255.73 1174.07 2257.94 1174.85 2260.71 1174.85ZM2292.83 1114.4H2300.89L2302.06 1119.21L2305.31 1117.65C2308.08 1116.26 2310.38 1115.22 2312.2 1114.53C2314.1 1113.84 2316.01 1113.49 2317.92 1113.49V1121.16C2316.79 1121.16 2315.27 1121.51 2313.37 1122.2C2311.46 1122.81 2308.08 1124.28 2303.23 1126.62V1182H2292.83V1114.4ZM2327.61 1114.4H2335.67L2336.84 1118.17L2342.17 1116.61C2345.81 1115.48 2348.67 1114.7 2350.75 1114.27C2352.92 1113.75 2354.95 1113.49 2356.86 1113.49C2360.59 1113.49 2363.19 1115.14 2364.66 1118.43C2367.09 1117.56 2370.51 1116.52 2374.93 1115.31C2379.35 1114.1 2382.6 1113.49 2384.68 1113.49C2387.8 1113.49 2390.1 1114.57 2391.57 1116.74C2393.13 1118.91 2393.91 1121.72 2393.91 1125.19V1182H2383.51V1128.57C2383.51 1126.06 2383.34 1124.32 2382.99 1123.37C2382.64 1122.33 2381.78 1121.81 2380.39 1121.81C2379.7 1121.81 2374.93 1123.2 2366.09 1125.97V1182H2355.69V1128.57C2355.69 1126.06 2355.52 1124.32 2355.17 1123.37C2354.82 1122.33 2353.96 1121.81 2352.57 1121.81C2351.88 1121.81 2347.02 1123.2 2338.01 1125.97V1182H2327.61V1114.4ZM2422.01 1182C2418.89 1182 2415.98 1181.22 2413.3 1179.66C2410.7 1178.1 2408.62 1175.98 2407.06 1173.29C2405.58 1170.6 2404.85 1167.57 2404.85 1164.19V1157.43C2404.85 1153.36 2405.84 1149.93 2407.84 1147.16C2409.92 1144.39 2412.47 1142.44 2415.51 1141.31L2431.63 1135.33V1129.22C2431.63 1127.14 2430.98 1125.45 2429.68 1124.15C2428.46 1122.76 2426.86 1122.07 2424.87 1122.07H2410.18V1114.4H2425.78C2430.54 1114.4 2434.31 1115.83 2437.09 1118.69C2439.95 1121.46 2441.38 1125.28 2441.38 1130.13V1182H2422.01ZM2431.63 1174.07V1143.52L2420.19 1147.81C2417.93 1148.68 2416.33 1149.85 2415.38 1151.32C2414.51 1152.79 2414.08 1155.13 2414.08 1158.34V1165.62C2414.08 1167.96 2414.94 1169.95 2416.68 1171.6C2418.41 1173.25 2420.49 1174.07 2422.92 1174.07H2431.63ZM2474.56 1182C2469.79 1182 2466.02 1180.57 2463.25 1177.71C2460.47 1174.85 2459.09 1170.99 2459.09 1166.14V1122.2H2451.29V1114.4H2459.09V1094.77L2469.49 1090.87V1114.4H2479.89V1122.2H2469.49V1167.05C2469.49 1169.13 2470.05 1170.86 2471.18 1172.25C2472.39 1173.55 2473.99 1174.2 2475.99 1174.2H2479.89V1182H2474.56ZM2490.24 1103.35V1092.95H2500.64V1103.35H2490.24ZM2490.24 1182V1114.4H2500.64V1182H2490.24ZM2525.88 1182L2510.41 1114.4H2521.2L2531.21 1168.87L2541.09 1114.4H2551.88L2536.41 1182H2525.88ZM2575.37 1182C2572.25 1182 2569.34 1181.22 2566.66 1179.66C2564.06 1178.1 2561.98 1175.98 2560.42 1173.29C2558.94 1170.6 2558.21 1167.57 2558.21 1164.19V1157.43C2558.21 1153.36 2559.2 1149.93 2561.2 1147.16C2563.28 1144.39 2565.83 1142.44 2568.87 1141.31L2584.99 1135.33V1129.22C2584.99 1127.14 2584.34 1125.45 2583.04 1124.15C2581.82 1122.76 2580.22 1122.07 2578.23 1122.07H2563.54V1114.4H2579.14C2583.9 1114.4 2587.67 1115.83 2590.45 1118.69C2593.31 1121.46 2594.74 1125.28 2594.74 1130.13V1182H2575.37ZM2584.99 1174.07V1143.52L2573.55 1147.81C2571.29 1148.68 2569.69 1149.85 2568.74 1151.32C2567.87 1152.79 2567.44 1155.13 2567.44 1158.34V1165.62C2567.44 1167.96 2568.3 1169.95 2570.04 1171.6C2571.77 1173.25 2573.85 1174.07 2576.28 1174.07H2584.99Z" fill="white"/>
<path d="M1657 1182V564H1126.3V1000.5H1475.5V738.599H1300.9V825.898H1388.2V913.197H1213.6V651.299H1562.8V1087.8H1039V1182H1657Z" fill="white"/>
</svg>
