<svg width="3745" height="1780" viewBox="0 0 3745 1780" fill="none" xmlns="http://www.w3.org/2000/svg">
<rect width="3745" height="1780" fill="#112D15"/>
<path d="M940.4 643V554.24H920.8V545H972.32V554.24H952.72V643H940.4ZM998.108 643C992.975 643 988.868 641.46 985.788 638.38C982.802 635.3 981.308 631.147 981.308 625.92V588.68C981.308 582.613 982.988 577.853 986.348 574.4C989.708 570.947 994.702 569.22 1001.33 569.22C1007.96 569.22 1012.9 570.947 1016.17 574.4C1019.53 577.853 1021.21 582.613 1021.21 588.68V595.12C1021.21 599.04 1020.09 602.027 1017.85 604.08C1015.61 606.04 1012.67 607.533 1009.03 608.56L992.508 613.18V626.9C992.508 629.14 993.162 631.007 994.468 632.5C995.868 633.9 997.642 634.6 999.788 634.6H1014.91V643H998.108ZM1001.05 601.98C1004.13 601.14 1006.18 600.533 1007.21 600.16C1008.33 599.693 1009.08 599.04 1009.45 598.2C1009.82 597.36 1010.01 595.96 1010.01 594V586.3C1010.01 583.313 1009.22 581.12 1007.63 579.72C1006.14 578.32 1004.04 577.62 1001.33 577.62C998.715 577.62 996.568 578.367 994.888 579.86C993.302 581.353 992.508 583.5 992.508 586.3V604.36L1001.05 601.98ZM1047.76 643C1042.62 643 1038.52 641.46 1035.44 638.38C1032.45 635.3 1030.96 631.147 1030.96 625.92V588.68C1030.96 582.8 1032.5 578.273 1035.58 575.1C1038.66 571.833 1043.14 570.2 1049.02 570.2H1064.56V578.6H1049.3C1047.15 578.6 1045.42 579.347 1044.12 580.84C1042.81 582.24 1042.16 584.06 1042.16 586.3V626.9C1042.16 629.14 1042.81 631.007 1044.12 632.5C1045.52 633.9 1047.29 634.6 1049.44 634.6H1064.56V643H1047.76ZM1074.33 570.2H1083.01L1084.27 574.26L1090.01 572.58C1093.93 571.367 1097.01 570.527 1099.25 570.06C1101.58 569.5 1103.78 569.22 1105.83 569.22C1109.19 569.22 1111.66 570.387 1113.25 572.72C1114.84 575.053 1115.63 578.087 1115.63 581.82V643H1104.43V585.46C1104.43 582.753 1104.24 580.887 1103.87 579.86C1103.5 578.74 1102.56 578.18 1101.07 578.18C1100.32 578.18 1095.14 579.673 1085.53 582.66V643H1074.33V570.2ZM1148.98 643.98C1142.45 643.98 1137.36 642.347 1133.72 639.08C1130.18 635.72 1128.4 631.1 1128.4 625.22V587.98C1128.4 582.1 1130.18 577.527 1133.72 574.26C1137.36 570.9 1142.45 569.22 1148.98 569.22C1155.52 569.22 1160.56 570.9 1164.1 574.26C1167.74 577.527 1169.56 582.1 1169.56 587.98V625.22C1169.56 631.1 1167.74 635.72 1164.1 639.08C1160.56 642.347 1155.52 643.98 1148.98 643.98ZM1148.98 635.3C1151.97 635.3 1154.3 634.46 1155.98 632.78C1157.76 631.007 1158.64 628.487 1158.64 625.22V587.98C1158.64 584.713 1157.76 582.24 1155.98 580.56C1154.3 578.787 1151.97 577.9 1148.98 577.9C1146 577.9 1143.62 578.787 1141.84 580.56C1140.16 582.24 1139.32 584.713 1139.32 587.98V625.22C1139.32 628.487 1140.16 631.007 1141.84 632.78C1143.62 634.46 1146 635.3 1148.98 635.3ZM1183.71 643V545H1194.91V643H1183.71ZM1229.38 643.98C1222.84 643.98 1217.76 642.347 1214.12 639.08C1210.57 635.72 1208.8 631.1 1208.8 625.22V587.98C1208.8 582.1 1210.57 577.527 1214.12 574.26C1217.76 570.9 1222.84 569.22 1229.38 569.22C1235.91 569.22 1240.95 570.9 1244.5 574.26C1248.14 577.527 1249.96 582.1 1249.96 587.98V625.22C1249.96 631.1 1248.14 635.72 1244.5 639.08C1240.95 642.347 1235.91 643.98 1229.38 643.98ZM1229.38 635.3C1232.36 635.3 1234.7 634.46 1236.38 632.78C1238.15 631.007 1239.04 628.487 1239.04 625.22V587.98C1239.04 584.713 1238.15 582.24 1236.38 580.56C1234.7 578.787 1232.36 577.9 1229.38 577.9C1226.39 577.9 1224.01 578.787 1222.24 580.56C1220.56 582.24 1219.72 584.713 1219.72 587.98V625.22C1219.72 628.487 1220.56 631.007 1222.24 632.78C1224.01 634.46 1226.39 635.3 1229.38 635.3ZM1269.84 657H1284.26C1286.41 657 1288.09 656.253 1289.3 654.76C1290.61 653.36 1291.26 651.54 1291.26 649.3V643.14H1279.64C1274.51 643.14 1270.17 641.46 1266.62 638.1C1263.07 634.74 1261.3 630.54 1261.3 625.5V587.84C1261.3 582.8 1263.07 578.6 1266.62 575.24C1270.26 571.88 1274.65 570.2 1279.78 570.2H1302.6V648.32C1302.6 653.547 1301.15 657.7 1298.26 660.78C1295.46 663.86 1291.49 665.4 1286.36 665.4H1269.84V657ZM1291.4 634.74V578.6H1282.02C1279.41 578.6 1277.17 579.487 1275.3 581.26C1273.43 583.033 1272.5 585.227 1272.5 587.84V625.5C1272.5 628.113 1273.43 630.307 1275.3 632.08C1277.17 633.853 1279.41 634.74 1282.02 634.74H1291.4ZM1317.96 558.3V547.1H1329.16V558.3H1317.96ZM1317.96 643V570.2H1329.16V643H1317.96ZM1360.83 643C1357.47 643 1354.34 642.16 1351.45 640.48C1348.65 638.8 1346.41 636.513 1344.73 633.62C1343.14 630.727 1342.35 627.46 1342.35 623.82V616.54C1342.35 612.153 1343.42 608.467 1345.57 605.48C1347.81 602.493 1350.56 600.393 1353.83 599.18L1371.19 592.74V586.16C1371.19 583.92 1370.49 582.1 1369.09 580.7C1367.78 579.207 1366.06 578.46 1363.91 578.46H1348.09V570.2H1364.89C1370.02 570.2 1374.08 571.74 1377.07 574.82C1380.15 577.807 1381.69 581.913 1381.69 587.14V643H1360.83ZM1371.19 634.46V601.56L1358.87 606.18C1356.44 607.113 1354.72 608.373 1353.69 609.96C1352.76 611.547 1352.29 614.067 1352.29 617.52V625.36C1352.29 627.88 1353.22 630.027 1355.09 631.8C1356.96 633.573 1359.2 634.46 1361.81 634.46H1371.19ZM1392.92 634.6H1404.82C1408.84 634.6 1411.73 633.527 1413.5 631.38C1415.37 629.14 1416.3 626.247 1416.3 622.7C1416.3 619.9 1415.46 617.52 1413.78 615.56C1412.1 613.6 1409.58 611.313 1406.22 608.7C1403.33 606.367 1401 604.36 1399.22 602.68C1397.54 600.907 1396.05 598.76 1394.74 596.24C1393.53 593.627 1392.92 590.64 1392.92 587.28C1392.92 582.333 1394.56 578.273 1397.82 575.1C1401.18 571.833 1405.66 570.2 1411.26 570.2H1423.44V578.6H1413.36C1406.74 578.6 1403.42 581.727 1403.42 587.98C1403.42 590.407 1404.17 592.507 1405.66 594.28C1407.16 596.053 1409.49 598.153 1412.66 600.58C1415.56 602.82 1417.94 604.873 1419.8 606.74C1421.67 608.513 1423.26 610.8 1424.56 613.6C1425.87 616.307 1426.52 619.527 1426.52 623.26C1426.52 629.887 1424.75 634.833 1421.2 638.1C1417.75 641.367 1412.85 643 1406.5 643H1392.92V634.6ZM1474.71 643C1469.58 643 1465.47 641.46 1462.39 638.38C1459.4 635.3 1457.91 631.147 1457.91 625.92V588.68C1457.91 582.613 1459.59 577.853 1462.95 574.4C1466.31 570.947 1471.3 569.22 1477.93 569.22C1484.56 569.22 1489.5 570.947 1492.77 574.4C1496.13 577.853 1497.81 582.613 1497.81 588.68V595.12C1497.81 599.04 1496.69 602.027 1494.45 604.08C1492.21 606.04 1489.27 607.533 1485.63 608.56L1469.11 613.18V626.9C1469.11 629.14 1469.76 631.007 1471.07 632.5C1472.47 633.9 1474.24 634.6 1476.39 634.6H1491.51V643H1474.71ZM1477.65 601.98C1480.73 601.14 1482.78 600.533 1483.81 600.16C1484.93 599.693 1485.68 599.04 1486.05 598.2C1486.42 597.36 1486.61 595.96 1486.61 594V586.3C1486.61 583.313 1485.82 581.12 1484.23 579.72C1482.74 578.32 1480.64 577.62 1477.93 577.62C1475.32 577.62 1473.17 578.367 1471.49 579.86C1469.9 581.353 1469.11 583.5 1469.11 586.3V604.36L1477.65 601.98ZM1531.83 643V545H1544.15V643H1531.83ZM1562.83 570.2H1571.51L1572.77 574.26L1578.51 572.58C1582.43 571.367 1585.51 570.527 1587.75 570.06C1590.08 569.5 1592.27 569.22 1594.33 569.22C1597.69 569.22 1600.16 570.387 1601.75 572.72C1603.33 575.053 1604.13 578.087 1604.13 581.82V643H1592.93V585.46C1592.93 582.753 1592.74 580.887 1592.37 579.86C1591.99 578.74 1591.06 578.18 1589.57 578.18C1588.82 578.18 1583.64 579.673 1574.03 582.66V643H1562.83V570.2ZM1640 643C1634.87 643 1630.81 641.46 1627.82 638.38C1624.83 635.3 1623.34 631.147 1623.34 625.92V578.6H1614.94V570.2H1623.34V549.06L1634.54 544.86V570.2H1645.74V578.6H1634.54V626.9C1634.54 629.14 1635.15 631.007 1636.36 632.5C1637.67 633.9 1639.39 634.6 1641.54 634.6H1645.74V643H1640ZM1671.45 643C1666.31 643 1662.21 641.46 1659.13 638.38C1656.14 635.3 1654.65 631.147 1654.65 625.92V588.68C1654.65 582.613 1656.33 577.853 1659.69 574.4C1663.05 570.947 1668.04 569.22 1674.67 569.22C1681.29 569.22 1686.24 570.947 1689.51 574.4C1692.87 577.853 1694.55 582.613 1694.55 588.68V595.12C1694.55 599.04 1693.43 602.027 1691.19 604.08C1688.95 606.04 1686.01 607.533 1682.37 608.56L1665.85 613.18V626.9C1665.85 629.14 1666.5 631.007 1667.81 632.5C1669.21 633.9 1670.98 634.6 1673.13 634.6H1688.25V643H1671.45ZM1674.39 601.98C1677.47 601.14 1679.52 600.533 1680.55 600.16C1681.67 599.693 1682.41 599.04 1682.79 598.2C1683.16 597.36 1683.35 595.96 1683.35 594V586.3C1683.35 583.313 1682.55 581.12 1680.97 579.72C1679.47 578.32 1677.37 577.62 1674.67 577.62C1672.05 577.62 1669.91 578.367 1668.23 579.86C1666.64 581.353 1665.85 583.5 1665.85 586.3V604.36L1674.39 601.98ZM1705.7 570.2H1714.38L1715.64 575.38L1719.14 573.7C1722.12 572.207 1724.6 571.087 1726.56 570.34C1728.61 569.593 1730.66 569.22 1732.72 569.22V577.48C1731.5 577.48 1729.87 577.853 1727.82 578.6C1725.76 579.253 1722.12 580.84 1716.9 583.36V643H1705.7V570.2ZM1746.66 579.44H1738.26V570.2H1746.66V562.08C1746.66 556.853 1748.15 552.7 1751.14 549.62C1754.12 546.54 1758.18 545 1763.32 545H1769.48V553.4H1765.28C1763.13 553.4 1761.36 554.147 1759.96 555.64C1758.56 557.133 1757.86 558.953 1757.86 561.1V570.2H1769.2V579.44H1757.86V643H1746.66V579.44ZM1793.13 643C1789.77 643 1786.65 642.16 1783.75 640.48C1780.95 638.8 1778.71 636.513 1777.03 633.62C1775.45 630.727 1774.65 627.46 1774.65 623.82V616.54C1774.65 612.153 1775.73 608.467 1777.87 605.48C1780.11 602.493 1782.87 600.393 1786.13 599.18L1803.49 592.74V586.16C1803.49 583.92 1802.79 582.1 1801.39 580.7C1800.09 579.207 1798.36 578.46 1796.21 578.46H1780.39V570.2H1797.19C1802.33 570.2 1806.39 571.74 1809.37 574.82C1812.45 577.807 1813.99 581.913 1813.99 587.14V643H1793.13ZM1803.49 634.46V601.56L1791.17 606.18C1788.75 607.113 1787.02 608.373 1785.99 609.96C1785.06 611.547 1784.59 614.067 1784.59 617.52V625.36C1784.59 627.88 1785.53 630.027 1787.39 631.8C1789.26 633.573 1791.5 634.46 1794.11 634.46H1803.49ZM1844.83 643C1839.69 643 1835.59 641.46 1832.51 638.38C1829.52 635.3 1828.03 631.147 1828.03 625.92V588.68C1828.03 582.8 1829.57 578.273 1832.65 575.1C1835.73 571.833 1840.21 570.2 1846.09 570.2H1861.63V578.6H1846.37C1844.22 578.6 1842.49 579.347 1841.19 580.84C1839.88 582.24 1839.23 584.06 1839.23 586.3V626.9C1839.23 629.14 1839.88 631.007 1841.19 632.5C1842.59 633.9 1844.36 634.6 1846.51 634.6H1861.63V643H1844.83ZM1885.96 643C1880.83 643 1876.72 641.46 1873.64 638.38C1870.65 635.3 1869.16 631.147 1869.16 625.92V588.68C1869.16 582.613 1870.84 577.853 1874.2 574.4C1877.56 570.947 1882.55 569.22 1889.18 569.22C1895.81 569.22 1900.75 570.947 1904.02 574.4C1907.38 577.853 1909.06 582.613 1909.06 588.68V595.12C1909.06 599.04 1907.94 602.027 1905.7 604.08C1903.46 606.04 1900.52 607.533 1896.88 608.56L1880.36 613.18V626.9C1880.36 629.14 1881.01 631.007 1882.32 632.5C1883.72 633.9 1885.49 634.6 1887.64 634.6H1902.76V643H1885.96ZM1888.9 601.98C1891.98 601.14 1894.03 600.533 1895.06 600.16C1896.18 599.693 1896.93 599.04 1897.3 598.2C1897.67 597.36 1897.86 595.96 1897.86 594V586.3C1897.86 583.313 1897.07 581.12 1895.48 579.72C1893.99 578.32 1891.89 577.62 1889.18 577.62C1886.57 577.62 1884.42 578.367 1882.74 579.86C1881.15 581.353 1880.36 583.5 1880.36 586.3V604.36L1888.9 601.98ZM1916.01 634.6H1927.91C1931.92 634.6 1934.82 633.527 1936.59 631.38C1938.46 629.14 1939.39 626.247 1939.39 622.7C1939.39 619.9 1938.55 617.52 1936.87 615.56C1935.19 613.6 1932.67 611.313 1929.31 608.7C1926.42 606.367 1924.08 604.36 1922.31 602.68C1920.63 600.907 1919.14 598.76 1917.83 596.24C1916.62 593.627 1916.01 590.64 1916.01 587.28C1916.01 582.333 1917.64 578.273 1920.91 575.1C1924.27 571.833 1928.75 570.2 1934.35 570.2H1946.53V578.6H1936.45C1929.82 578.6 1926.51 581.727 1926.51 587.98C1926.51 590.407 1927.26 592.507 1928.75 594.28C1930.24 596.053 1932.58 598.153 1935.75 600.58C1938.64 602.82 1941.02 604.873 1942.89 606.74C1944.76 608.513 1946.34 610.8 1947.65 613.6C1948.96 616.307 1949.61 619.527 1949.61 623.26C1949.61 629.887 1947.84 634.833 1944.29 638.1C1940.84 641.367 1935.94 643 1929.59 643H1916.01V634.6ZM1959.52 584.76V570.34H1970.72V584.76H1959.52ZM1959.52 643V628.58H1970.72V643H1959.52ZM922 848L953.6 708H980.2L1010.6 848H994.2L984.4 806.8H948L939 848H922ZM951 793.2H981.4L967 721.2H965.6L951 793.2ZM1056.76 708H1072.76V749.4L1081.56 746.8C1087.02 745.2 1091.02 744.133 1093.56 743.6C1096.22 742.933 1098.96 742.6 1101.76 742.6C1106.56 742.6 1110.09 744.267 1112.36 747.6C1114.62 750.933 1115.76 755.267 1115.76 760.6V848H1099.76V765.8C1099.76 761.933 1099.49 759.267 1098.96 757.8C1098.42 756.2 1097.09 755.4 1094.96 755.4C1093.89 755.4 1086.49 757.533 1072.76 761.8V848H1056.76V708ZM1139.96 727V711H1155.96V727H1139.96ZM1139.96 848V744H1155.96V848H1139.96ZM1174 836H1191C1196.73 836 1200.87 834.467 1203.4 831.4C1206.07 828.2 1207.4 824.067 1207.4 819C1207.4 815 1206.2 811.6 1203.8 808.8C1201.4 806 1197.8 802.733 1193 799C1188.87 795.667 1185.53 792.8 1183 790.4C1180.6 787.867 1178.47 784.8 1176.6 781.2C1174.87 777.467 1174 773.2 1174 768.4C1174 761.333 1176.33 755.533 1181 751C1185.8 746.333 1192.2 744 1200.2 744H1217.6V756H1203.2C1193.73 756 1189 760.467 1189 769.4C1189 772.867 1190.07 775.867 1192.2 778.4C1194.33 780.933 1197.67 783.933 1202.2 787.4C1206.33 790.6 1209.73 793.533 1212.4 796.2C1215.07 798.733 1217.33 802 1219.2 806C1221.07 809.867 1222 814.467 1222 819.8C1222 829.267 1219.47 836.333 1214.4 841C1209.47 845.667 1202.47 848 1193.4 848H1174V836ZM1268.96 848C1261.63 848 1255.83 845.8 1251.56 841.4C1247.29 837 1245.16 831.067 1245.16 823.6V756H1233.16V744H1245.16V713.8L1261.16 707.8V744H1277.16V756H1261.16V825C1261.16 828.2 1262.03 830.867 1263.76 833C1265.63 835 1268.09 836 1271.16 836H1277.16V848H1268.96ZM1318.69 736.2L1312.09 730.2L1335.29 710.4L1345.49 719.8L1318.69 736.2ZM1318.49 849.4C1309.15 849.4 1301.89 847.067 1296.69 842.4C1291.62 837.6 1289.09 831 1289.09 822.6V769.4C1289.09 761 1291.62 754.467 1296.69 749.8C1301.89 745 1309.15 742.6 1318.49 742.6C1327.82 742.6 1335.02 745 1340.09 749.8C1345.29 754.467 1347.89 761 1347.89 769.4V822.6C1347.89 831 1345.29 837.6 1340.09 842.4C1335.02 847.067 1327.82 849.4 1318.49 849.4ZM1318.49 837C1322.75 837 1326.09 835.8 1328.49 833.4C1331.02 830.867 1332.29 827.267 1332.29 822.6V769.4C1332.29 764.733 1331.02 761.2 1328.49 758.8C1326.09 756.267 1322.75 755 1318.49 755C1314.22 755 1310.82 756.267 1308.29 758.8C1305.89 761.2 1304.69 764.733 1304.69 769.4V822.6C1304.69 827.267 1305.89 830.867 1308.29 833.4C1310.82 835.8 1314.22 837 1318.49 837ZM1367.89 744H1380.29L1382.09 751.4L1387.09 749C1391.36 746.867 1394.89 745.267 1397.69 744.2C1400.62 743.133 1403.56 742.6 1406.49 742.6V754.4C1404.76 754.4 1402.42 754.933 1399.49 756C1396.56 756.933 1391.36 759.2 1383.89 762.8V848H1367.89V744ZM1421.41 727V711H1437.41V727H1421.41ZM1421.41 848V744H1437.41V848H1421.41ZM1482.65 848C1477.85 848 1473.38 846.8 1469.25 844.4C1465.25 842 1462.05 838.733 1459.65 834.6C1457.38 830.467 1456.25 825.8 1456.25 820.6V810.2C1456.25 803.933 1457.78 798.667 1460.85 794.4C1464.05 790.133 1467.98 787.133 1472.65 785.4L1497.45 776.2V766.8C1497.45 763.6 1496.45 761 1494.45 759C1492.58 756.867 1490.11 755.8 1487.05 755.8H1464.45V744H1488.45C1495.78 744 1501.58 746.2 1505.85 750.6C1510.25 754.867 1512.45 760.733 1512.45 768.2V848H1482.65ZM1497.45 835.8V788.8L1479.85 795.4C1476.38 796.733 1473.91 798.533 1472.45 800.8C1471.11 803.067 1470.45 806.667 1470.45 811.6V822.8C1470.45 826.4 1471.78 829.467 1474.45 832C1477.11 834.533 1480.31 835.8 1484.05 835.8H1497.45ZM1590.97 848C1582.57 848 1575.77 845.533 1570.57 840.6C1565.37 835.667 1562.77 829.067 1562.77 820.8V771C1562.77 765.267 1564.3 760.4 1567.37 756.4C1570.57 752.4 1574.5 749.667 1579.17 748.2L1605.97 738.8V708H1621.97V848H1590.97ZM1605.97 836V752L1588.17 758C1584.7 759.067 1582.24 760.8 1580.77 763.2C1579.44 765.467 1578.77 769.133 1578.77 774.2V820.8C1578.77 825.6 1580.17 829.333 1582.97 832C1585.77 834.667 1589.57 836 1594.37 836H1605.97ZM1667.22 848C1662.42 848 1657.95 846.8 1653.82 844.4C1649.82 842 1646.62 838.733 1644.22 834.6C1641.95 830.467 1640.82 825.8 1640.82 820.6V810.2C1640.82 803.933 1642.35 798.667 1645.42 794.4C1648.62 790.133 1652.55 787.133 1657.22 785.4L1682.02 776.2V766.8C1682.02 763.6 1681.02 761 1679.02 759C1677.15 756.867 1674.68 755.8 1671.62 755.8H1649.02V744H1673.02C1680.35 744 1686.15 746.2 1690.42 750.6C1694.82 754.867 1697.02 760.733 1697.02 768.2V848H1667.22ZM1682.02 835.8V788.8L1664.42 795.4C1660.95 796.733 1658.48 798.533 1657.02 800.8C1655.68 803.067 1655.02 806.667 1655.02 811.6V822.8C1655.02 826.4 1656.35 829.467 1659.02 832C1661.68 834.533 1664.88 835.8 1668.62 835.8H1682.02ZM1771.14 848C1763.81 848 1757.94 845.8 1753.54 841.4C1749.27 837 1747.14 831.067 1747.14 823.6V770.4C1747.14 762 1749.34 755.533 1753.74 751C1758.14 746.333 1764.54 744 1772.94 744H1795.14V756H1773.34C1770.27 756 1767.81 757.067 1765.94 759.2C1764.07 761.2 1763.14 763.8 1763.14 767V825C1763.14 828.2 1764.07 830.867 1765.94 833C1767.94 835 1770.47 836 1773.54 836H1795.14V848H1771.14ZM1834.5 849.4C1825.17 849.4 1817.9 847.067 1812.7 842.4C1807.63 837.6 1805.1 831 1805.1 822.6V769.4C1805.1 761 1807.63 754.467 1812.7 749.8C1817.9 745 1825.17 742.6 1834.5 742.6C1843.83 742.6 1851.03 745 1856.1 749.8C1861.3 754.467 1863.9 761 1863.9 769.4V822.6C1863.9 831 1861.3 837.6 1856.1 842.4C1851.03 847.067 1843.83 849.4 1834.5 849.4ZM1834.5 837C1838.77 837 1842.1 835.8 1844.5 833.4C1847.03 830.867 1848.3 827.267 1848.3 822.6V769.4C1848.3 764.733 1847.03 761.2 1844.5 758.8C1842.1 756.267 1838.77 755 1834.5 755C1830.23 755 1826.83 756.267 1824.3 758.8C1821.9 761.2 1820.7 764.733 1820.7 769.4V822.6C1820.7 827.267 1821.9 830.867 1824.3 833.4C1826.83 835.8 1830.23 837 1834.5 837ZM1883.91 744H1896.31L1898.11 749.8L1906.31 747.4C1911.91 745.667 1916.31 744.467 1919.51 743.8C1922.84 743 1925.97 742.6 1928.91 742.6C1934.64 742.6 1938.64 745.133 1940.91 750.2C1944.64 748.867 1949.91 747.267 1956.71 745.4C1963.51 743.533 1968.51 742.6 1971.71 742.6C1976.51 742.6 1980.04 744.267 1982.31 747.6C1984.71 750.933 1985.91 755.267 1985.91 760.6V848H1969.91V765.8C1969.91 761.933 1969.64 759.267 1969.11 757.8C1968.57 756.2 1967.24 755.4 1965.11 755.4C1964.04 755.4 1956.71 757.533 1943.11 761.8V848H1927.11V765.8C1927.11 761.933 1926.84 759.267 1926.31 757.8C1925.77 756.2 1924.44 755.4 1922.31 755.4C1921.24 755.4 1913.77 757.533 1899.91 761.8V848H1883.91V744ZM2020.13 849.4C2015.33 849.4 2011.73 847.733 2009.33 844.4C2007.06 841.067 2005.93 836.733 2005.93 831.4V744H2021.93V826.2C2021.93 829.933 2022.2 832.6 2022.73 834.2C2023.26 835.8 2024.53 836.6 2026.53 836.6C2027.46 836.6 2035 834.6 2049.13 830.6V744H2065.13V848H2053.73L2050.73 841.2C2048.6 842 2047 842.533 2045.93 842.8C2039.66 845.067 2034.6 846.733 2030.73 847.8C2026.86 848.867 2023.33 849.4 2020.13 849.4ZM2089.18 744H2101.58L2103.38 749.8L2111.58 747.4C2117.18 745.667 2121.58 744.467 2124.78 743.8C2128.11 743 2131.25 742.6 2134.18 742.6C2138.98 742.6 2142.51 744.267 2144.78 747.6C2147.05 750.933 2148.18 755.267 2148.18 760.6V848H2132.18V765.8C2132.18 761.933 2131.91 759.267 2131.38 757.8C2130.85 756.2 2129.51 755.4 2127.38 755.4C2126.31 755.4 2118.91 757.533 2105.18 761.8V848H2089.18V744ZM2170.43 727V711H2186.43V727H2170.43ZM2170.43 848V744H2186.43V848H2170.43ZM2232.47 848C2225.14 848 2219.27 845.8 2214.87 841.4C2210.6 837 2208.47 831.067 2208.47 823.6V770.4C2208.47 762 2210.67 755.533 2215.07 751C2219.47 746.333 2225.87 744 2234.27 744H2256.47V756H2234.67C2231.6 756 2229.14 757.067 2227.27 759.2C2225.4 761.2 2224.47 763.8 2224.47 767V825C2224.47 828.2 2225.4 830.867 2227.27 833C2229.27 835 2231.8 836 2234.87 836H2256.47V848H2232.47ZM2291.63 848C2286.83 848 2282.36 846.8 2278.23 844.4C2274.23 842 2271.03 838.733 2268.63 834.6C2266.36 830.467 2265.23 825.8 2265.23 820.6V810.2C2265.23 803.933 2266.76 798.667 2269.83 794.4C2273.03 790.133 2276.96 787.133 2281.63 785.4L2306.43 776.2V766.8C2306.43 763.6 2305.43 761 2303.43 759C2301.56 756.867 2299.1 755.8 2296.03 755.8H2273.43V744H2297.43C2304.76 744 2310.56 746.2 2314.83 750.6C2319.23 754.867 2321.43 760.733 2321.43 768.2V848H2291.63ZM2306.43 835.8V788.8L2288.83 795.4C2285.36 796.733 2282.9 798.533 2281.43 800.8C2280.1 803.067 2279.43 806.667 2279.43 811.6V822.8C2279.43 826.4 2280.76 829.467 2283.43 832C2286.1 834.533 2289.3 835.8 2293.03 835.8H2306.43ZM2375.68 854.4C2380.48 854.4 2384.14 855.267 2386.68 857C2389.21 858.733 2390.48 861.867 2390.48 866.4C2390.48 875.467 2385.28 880 2374.88 880H2353.48V870.6H2369.48C2372.54 870.6 2374.81 870.267 2376.28 869.6C2377.74 868.933 2378.48 867.8 2378.48 866.2C2378.48 864.467 2377.94 863.333 2376.88 862.8C2375.81 862.267 2374.08 862 2371.68 862H2361.28L2364.68 848H2365.48C2358.14 848 2352.28 845.8 2347.88 841.4C2343.61 837 2341.48 831.067 2341.48 823.6V770.4C2341.48 762 2343.68 755.533 2348.08 751C2352.48 746.333 2358.88 744 2367.28 744H2389.48V756H2367.68C2364.61 756 2362.14 757.067 2360.28 759.2C2358.41 761.2 2357.48 763.8 2357.48 767V825C2357.48 828.2 2358.41 830.867 2360.28 833C2362.28 835 2364.81 836 2367.88 836H2389.48V848H2377.08L2375.68 854.4ZM2398.84 734C2398.97 728 2400.1 723.467 2402.24 720.4C2404.37 717.2 2408.24 715.6 2413.84 715.6C2415.3 715.6 2419.64 716.667 2426.84 718.8C2433.9 721.067 2438.44 722.2 2440.44 722.2C2442.04 722.2 2443.1 721.733 2443.64 720.8C2444.17 719.733 2444.5 718.467 2444.64 717C2444.9 715.533 2445.1 714.4 2445.24 713.6H2457.84C2457.7 718.133 2457.37 721.8 2456.84 724.6C2456.3 727.267 2454.9 729.533 2452.64 731.4C2450.5 733.133 2447.24 734 2442.84 734C2440.84 734 2436.3 732.867 2429.24 730.6C2422.04 728.467 2417.7 727.4 2416.24 727.4C2414.5 727.4 2413.37 727.733 2412.84 728.4C2412.44 729.067 2412.1 730 2411.84 731.2C2411.7 732.4 2411.57 733.333 2411.44 734H2398.84ZM2424.64 848C2419.84 848 2415.37 846.8 2411.24 844.4C2407.24 842 2404.04 838.733 2401.64 834.6C2399.37 830.467 2398.24 825.8 2398.24 820.6V810.2C2398.24 803.933 2399.77 798.667 2402.84 794.4C2406.04 790.133 2409.97 787.133 2414.64 785.4L2439.44 776.2V766.8C2439.44 763.6 2438.44 761 2436.44 759C2434.57 756.867 2432.1 755.8 2429.04 755.8H2406.44V744H2430.44C2437.77 744 2443.57 746.2 2447.84 750.6C2452.24 754.867 2454.44 760.733 2454.44 768.2V848H2424.64ZM2439.44 835.8V788.8L2421.84 795.4C2418.37 796.733 2415.9 798.533 2414.44 800.8C2413.1 803.067 2412.44 806.667 2412.44 811.6V822.8C2412.44 826.4 2413.77 829.467 2416.44 832C2419.1 834.533 2422.3 835.8 2426.04 835.8H2439.44ZM2501.88 849.4C2492.55 849.4 2485.28 847.067 2480.08 842.4C2475.02 837.6 2472.48 831 2472.48 822.6V769.4C2472.48 761 2475.02 754.467 2480.08 749.8C2485.28 745 2492.55 742.6 2501.88 742.6C2511.22 742.6 2518.42 745 2523.48 749.8C2528.68 754.467 2531.28 761 2531.28 769.4V822.6C2531.28 831 2528.68 837.6 2523.48 842.4C2518.42 847.067 2511.22 849.4 2501.88 849.4ZM2501.88 837C2506.15 837 2509.48 835.8 2511.88 833.4C2514.42 830.867 2515.68 827.267 2515.68 822.6V769.4C2515.68 764.733 2514.42 761.2 2511.88 758.8C2509.48 756.267 2506.15 755 2501.88 755C2497.62 755 2494.22 756.267 2491.68 758.8C2489.28 761.2 2488.08 764.733 2488.08 769.4V822.6C2488.08 827.267 2489.28 830.867 2491.68 833.4C2494.22 835.8 2497.62 837 2501.88 837ZM2607.77 848C2599.37 848 2592.57 845.533 2587.37 840.6C2582.17 835.667 2579.57 829.067 2579.57 820.8V771C2579.57 765.267 2581.1 760.4 2584.17 756.4C2587.37 752.4 2591.3 749.667 2595.97 748.2L2622.77 738.8V708H2638.77V848H2607.77ZM2622.77 836V752L2604.97 758C2601.5 759.067 2599.03 760.8 2597.57 763.2C2596.23 765.467 2595.57 769.133 2595.57 774.2V820.8C2595.57 825.6 2596.97 829.333 2599.77 832C2602.57 834.667 2606.37 836 2611.17 836H2622.77ZM2662.81 727V711H2678.81V727H2662.81ZM2662.81 848V744H2678.81V848H2662.81ZM2711.25 868H2731.85C2734.92 868 2737.32 866.933 2739.05 864.8C2740.92 862.8 2741.85 860.2 2741.85 857V848.2H2725.25C2717.92 848.2 2711.72 845.8 2706.65 841C2701.58 836.2 2699.05 830.2 2699.05 823V769.2C2699.05 762 2701.58 756 2706.65 751.2C2711.85 746.4 2718.12 744 2725.45 744H2758.05V855.6C2758.05 863.067 2755.98 869 2751.85 873.4C2747.85 877.8 2742.18 880 2734.85 880H2711.25V868ZM2742.05 836.2V756H2728.65C2724.92 756 2721.72 757.267 2719.05 759.8C2716.38 762.333 2715.05 765.467 2715.05 769.2V823C2715.05 826.733 2716.38 829.867 2719.05 832.4C2721.72 834.933 2724.92 836.2 2728.65 836.2H2742.05ZM2780 727V711H2796V727H2780ZM2780 848V744H2796V848H2780ZM2849.04 848C2841.71 848 2835.91 845.8 2831.64 841.4C2827.37 837 2825.24 831.067 2825.24 823.6V756H2813.24V744H2825.24V713.8L2841.24 707.8V744H2857.24V756H2841.24V825C2841.24 828.2 2842.11 830.867 2843.84 833C2845.71 835 2848.17 836 2851.24 836H2857.24V848H2849.04ZM2894.36 848C2889.56 848 2885.1 846.8 2880.96 844.4C2876.96 842 2873.76 838.733 2871.36 834.6C2869.1 830.467 2867.96 825.8 2867.96 820.6V810.2C2867.96 803.933 2869.5 798.667 2872.56 794.4C2875.76 790.133 2879.7 787.133 2884.36 785.4L2909.16 776.2V766.8C2909.16 763.6 2908.16 761 2906.16 759C2904.3 756.867 2901.83 755.8 2898.76 755.8H2876.16V744H2900.16C2907.5 744 2913.3 746.2 2917.56 750.6C2921.96 754.867 2924.16 760.733 2924.16 768.2V848H2894.36ZM2909.16 835.8V788.8L2891.56 795.4C2888.1 796.733 2885.63 798.533 2884.16 800.8C2882.83 803.067 2882.16 806.667 2882.16 811.6V822.8C2882.16 826.4 2883.5 829.467 2886.16 832C2888.83 834.533 2892.03 835.8 2895.76 835.8H2909.16ZM2946.41 848V708H2962.41V848H2946.41ZM950.8 1053C943.467 1053 937.6 1050.8 933.2 1046.4C928.933 1042 926.8 1036.07 926.8 1028.6V975.4C926.8 966.733 929.2 959.933 934 955C938.8 950.067 945.933 947.6 955.4 947.6C964.867 947.6 971.933 950.067 976.6 955C981.4 959.933 983.8 966.733 983.8 975.4V984.6C983.8 990.2 982.2 994.467 979 997.4C975.8 1000.2 971.6 1002.33 966.4 1003.8L942.8 1010.4V1030C942.8 1033.2 943.733 1035.87 945.6 1038C947.6 1040 950.133 1041 953.2 1041H974.8V1053H950.8ZM955 994.4C959.4 993.2 962.333 992.333 963.8 991.8C965.4 991.133 966.467 990.2 967 989C967.533 987.8 967.8 985.8 967.8 983V972C967.8 967.733 966.667 964.6 964.4 962.6C962.267 960.6 959.267 959.6 955.4 959.6C951.667 959.6 948.6 960.667 946.2 962.8C943.933 964.933 942.8 968 942.8 972V997.8L955 994.4ZM1056.2 1053C1047.8 1053 1041 1050.53 1035.8 1045.6C1030.6 1040.67 1028 1034.07 1028 1025.8V976C1028 970.267 1029.54 965.4 1032.6 961.4C1035.8 957.4 1039.74 954.667 1044.4 953.2L1071.2 943.8V913H1087.2V1053H1056.2ZM1071.2 1041V957L1053.4 963C1049.94 964.067 1047.47 965.8 1046 968.2C1044.67 970.467 1044 974.133 1044 979.2V1025.8C1044 1030.6 1045.4 1034.33 1048.2 1037C1051 1039.67 1054.8 1041 1059.6 1041H1071.2ZM1132.45 1053C1127.65 1053 1123.18 1051.8 1119.05 1049.4C1115.05 1047 1111.85 1043.73 1109.45 1039.6C1107.18 1035.47 1106.05 1030.8 1106.05 1025.6V1015.2C1106.05 1008.93 1107.58 1003.67 1110.65 999.4C1113.85 995.133 1117.78 992.133 1122.45 990.4L1147.25 981.2V971.8C1147.25 968.6 1146.25 966 1144.25 964C1142.38 961.867 1139.92 960.8 1136.85 960.8H1114.25V949H1138.25C1145.58 949 1151.38 951.2 1155.65 955.6C1160.05 959.867 1162.25 965.733 1162.25 973.2V1053H1132.45ZM1147.25 1040.8V993.8L1129.65 1000.4C1126.18 1001.73 1123.72 1003.53 1122.25 1005.8C1120.92 1008.07 1120.25 1011.67 1120.25 1016.6V1027.8C1120.25 1031.4 1121.58 1034.47 1124.25 1037C1126.92 1039.53 1130.12 1040.8 1133.85 1040.8H1147.25ZM1214.38 932V916H1230.38V932H1214.38ZM1214.38 1053V949H1230.38V1053H1214.38ZM1254.41 949H1266.81L1268.61 954.8L1276.81 952.4C1282.41 950.667 1286.81 949.467 1290.01 948.8C1293.35 948 1296.48 947.6 1299.41 947.6C1304.21 947.6 1307.75 949.267 1310.01 952.6C1312.28 955.933 1313.41 960.267 1313.41 965.6V1053H1297.41V970.8C1297.41 966.933 1297.15 964.267 1296.61 962.8C1296.08 961.2 1294.75 960.4 1292.61 960.4C1291.55 960.4 1284.15 962.533 1270.41 966.8V1053H1254.41V949ZM1364.66 1053C1357.33 1053 1351.53 1050.8 1347.26 1046.4C1343 1042 1340.86 1036.07 1340.86 1028.6V961H1328.86V949H1340.86V918.8L1356.86 912.8V949H1372.86V961H1356.86V1030C1356.86 1033.2 1357.73 1035.87 1359.46 1038C1361.33 1040 1363.8 1041 1366.86 1041H1372.86V1053H1364.66ZM1409.59 1053C1402.26 1053 1396.39 1050.8 1391.99 1046.4C1387.72 1042 1385.59 1036.07 1385.59 1028.6V975.4C1385.59 966.733 1387.99 959.933 1392.79 955C1397.59 950.067 1404.72 947.6 1414.19 947.6C1423.66 947.6 1430.72 950.067 1435.39 955C1440.19 959.933 1442.59 966.733 1442.59 975.4V984.6C1442.59 990.2 1440.99 994.467 1437.79 997.4C1434.59 1000.2 1430.39 1002.33 1425.19 1003.8L1401.59 1010.4V1030C1401.59 1033.2 1402.52 1035.87 1404.39 1038C1406.39 1040 1408.92 1041 1411.99 1041H1433.59V1053H1409.59ZM1413.79 994.4C1418.19 993.2 1421.12 992.333 1422.59 991.8C1424.19 991.133 1425.26 990.2 1425.79 989C1426.32 987.8 1426.59 985.8 1426.59 983V972C1426.59 967.733 1425.46 964.6 1423.19 962.6C1421.06 960.6 1418.06 959.6 1414.19 959.6C1410.46 959.6 1407.39 960.667 1404.99 962.8C1402.72 964.933 1401.59 968 1401.59 972V997.8L1413.79 994.4ZM1458.52 949H1470.92L1472.72 956.4L1477.72 954C1481.98 951.867 1485.52 950.267 1488.32 949.2C1491.25 948.133 1494.18 947.6 1497.12 947.6V959.4C1495.38 959.4 1493.05 959.933 1490.12 961C1487.18 961.933 1481.98 964.2 1474.52 967.8V1053H1458.52V949ZM1512.03 949H1524.43L1526.23 954.8L1534.43 952.4C1540.03 950.667 1544.43 949.467 1547.63 948.8C1550.96 948 1554.1 947.6 1557.03 947.6C1561.83 947.6 1565.36 949.267 1567.63 952.6C1569.9 955.933 1571.03 960.267 1571.03 965.6V1053H1555.03V970.8C1555.03 966.933 1554.76 964.267 1554.23 962.8C1553.7 961.2 1552.36 960.4 1550.23 960.4C1549.16 960.4 1541.76 962.533 1528.03 966.8V1053H1512.03V949ZM1614.08 1053C1606.75 1053 1600.88 1050.8 1596.48 1046.4C1592.21 1042 1590.08 1036.07 1590.08 1028.6V975.4C1590.08 966.733 1592.48 959.933 1597.28 955C1602.08 950.067 1609.21 947.6 1618.68 947.6C1628.15 947.6 1635.21 950.067 1639.88 955C1644.68 959.933 1647.08 966.733 1647.08 975.4V984.6C1647.08 990.2 1645.48 994.467 1642.28 997.4C1639.08 1000.2 1634.88 1002.33 1629.68 1003.8L1606.08 1010.4V1030C1606.08 1033.2 1607.01 1035.87 1608.88 1038C1610.88 1040 1613.41 1041 1616.48 1041H1638.08V1053H1614.08ZM1618.28 994.4C1622.68 993.2 1625.61 992.333 1627.08 991.8C1628.68 991.133 1629.75 990.2 1630.28 989C1630.81 987.8 1631.08 985.8 1631.08 983V972C1631.08 967.733 1629.95 964.6 1627.68 962.6C1625.55 960.6 1622.55 959.6 1618.68 959.6C1614.95 959.6 1611.88 960.667 1609.48 962.8C1607.21 964.933 1606.08 968 1606.08 972V997.8L1618.28 994.4ZM1692.01 1053C1684.67 1053 1678.87 1050.8 1674.61 1046.4C1670.34 1042 1668.21 1036.07 1668.21 1028.6V961H1656.21V949H1668.21V918.8L1684.21 912.8V949H1700.21V961H1684.21V1030C1684.21 1033.2 1685.07 1035.87 1686.81 1038C1688.67 1040 1691.14 1041 1694.21 1041H1700.21V1053H1692.01Z" fill="#34D320"/>
<path d="M522.69 1088.66L431.821 997.793C424.06 990.033 424.06 977.45 431.821 969.689L522.69 878.82C530.451 871.059 543.034 871.059 550.794 878.82C558.555 886.58 558.555 899.163 550.794 906.924C550.786 906.932 550.778 906.94 550.769 906.949L473.977 983.741L550.794 1060.56C558.555 1068.32 558.555 1080.9 550.794 1088.66C543.034 1096.42 530.451 1096.42 522.69 1088.66Z" fill="#34D320"/>
<path d="M679.693 878.819L770.562 969.689C778.323 977.45 778.323 990.032 770.562 997.793L679.693 1088.66C671.932 1096.42 659.349 1096.42 651.588 1088.66C643.828 1080.9 643.828 1068.32 651.588 1060.56C651.597 1060.55 651.605 1060.54 651.613 1060.53L728.406 983.741L651.588 906.923C643.828 899.163 643.828 886.58 651.588 878.819C659.349 871.059 671.932 871.058 679.693 878.819Z" fill="#34D320"/>
<line x1="632" y1="952.283" x2="569.284" y2="1015" stroke="#34D320" stroke-width="40" stroke-linecap="round"/>
<line x1="638.461" y1="822.249" x2="713.299" y2="868.552" stroke="#34D320" stroke-opacity="0.6" stroke-width="30" stroke-linecap="round"/>
<line x1="647.25" y1="779.216" x2="737.315" y2="810.436" stroke="#34D320" stroke-opacity="0.4" stroke-width="30" stroke-linecap="round"/>
<line x1="636.03" y1="734.661" x2="722.68" y2="744.783" stroke="#34D320" stroke-opacity="0.2" stroke-width="30" stroke-linecap="round"/>
<line x1="538.117" y1="1144.95" x2="463.279" y2="1098.65" stroke="#34D320" stroke-opacity="0.6" stroke-width="30" stroke-linecap="round"/>
<line x1="529.321" y1="1187.99" x2="439.255" y2="1156.77" stroke="#34D320" stroke-opacity="0.4" stroke-width="30" stroke-linecap="round"/>
<line x1="540.548" y1="1232.54" x2="453.899" y2="1222.42" stroke="#34D320" stroke-opacity="0.2" stroke-width="30" stroke-linecap="round"/>
<line x1="559.8" y1="1270.77" x2="476.185" y2="1285.86" stroke="#34D320" stroke-opacity="0.1" stroke-width="30" stroke-linecap="round"/>
<line x1="583.239" y1="1304.21" x2="519.519" y2="1337.54" stroke="#34D320" stroke-opacity="0.04" stroke-width="30" stroke-linecap="round"/>
<path d="M619.067 750L619.067 651.026H619.07V651.025L718 651.025V684.298H652.326L652.326 750H619.067Z" fill="#34D320"/>
<path d="M652.327 524.7V590.401H684.741L684.741 492.273L588.629 492.273L588.629 568.407H588.63L588.629 750H426V585.326L426 585.325H459.259V585.326L524.931 585.326L524.931 684.3H491.673L491.673 618.599H459.259L459.259 716.727H555.371L555.371 640.593H555.37L555.371 459L718 459V623.674L619.069 623.674L619.069 524.7H652.327Z" fill="#34D320"/>
<path d="M524.93 459L524.931 557.975H426V524.702H491.671V459L524.93 459Z" fill="#34D320"/>
</svg>
