<svg width="3745" height="1780" viewBox="0 0 3745 1780" fill="none" xmlns="http://www.w3.org/2000/svg">
<rect width="3745" height="1780" fill="black"/>
<path d="M1499.6 707V567H1517.2V707H1499.6ZM1543.88 603H1556.28L1558.08 608.8L1566.28 606.4C1571.88 604.667 1576.28 603.467 1579.48 602.8C1582.81 602 1585.94 601.6 1588.88 601.6C1593.68 601.6 1597.21 603.267 1599.48 606.6C1601.74 609.933 1602.88 614.267 1602.88 619.6V707H1586.88V624.8C1586.88 620.933 1586.61 618.267 1586.08 616.8C1585.54 615.2 1584.21 614.4 1582.08 614.4C1581.01 614.4 1573.61 616.533 1559.88 620.8V707H1543.88V603ZM1654.13 707C1646.79 707 1640.99 704.8 1636.73 700.4C1632.46 696 1630.33 690.067 1630.33 682.6V615H1618.33V603H1630.33V572.8L1646.33 566.8V603H1662.33V615H1646.33V684C1646.33 687.2 1647.19 689.867 1648.93 692C1650.79 694 1653.26 695 1656.33 695H1662.33V707H1654.13ZM1699.05 707C1691.72 707 1685.85 704.8 1681.45 700.4C1677.18 696 1675.05 690.067 1675.05 682.6V629.4C1675.05 620.733 1677.45 613.933 1682.25 609C1687.05 604.067 1694.18 601.6 1703.65 601.6C1713.12 601.6 1720.18 604.067 1724.85 609C1729.65 613.933 1732.05 620.733 1732.05 629.4V638.6C1732.05 644.2 1730.45 648.467 1727.25 651.4C1724.05 654.2 1719.85 656.333 1714.65 657.8L1691.05 664.4V684C1691.05 687.2 1691.98 689.867 1693.85 692C1695.85 694 1698.38 695 1701.45 695H1723.05V707H1699.05ZM1703.25 648.4C1707.65 647.2 1710.58 646.333 1712.05 645.8C1713.65 645.133 1714.72 644.2 1715.25 643C1715.78 641.8 1716.05 639.8 1716.05 637V626C1716.05 621.733 1714.92 618.6 1712.65 616.6C1710.52 614.6 1707.52 613.6 1703.65 613.6C1699.92 613.6 1696.85 614.667 1694.45 616.8C1692.18 618.933 1691.05 622 1691.05 626V651.8L1703.25 648.4ZM1747.98 603H1760.38L1762.18 610.4L1767.18 608C1771.44 605.867 1774.98 604.267 1777.78 603.2C1780.71 602.133 1783.64 601.6 1786.58 601.6V613.4C1784.84 613.4 1782.51 613.933 1779.58 615C1776.64 615.933 1771.44 618.2 1763.98 621.8V707H1747.98V603ZM1822.69 707C1817.89 707 1813.43 705.8 1809.29 703.4C1805.29 701 1802.09 697.733 1799.69 693.6C1797.43 689.467 1796.29 684.8 1796.29 679.6V669.2C1796.29 662.933 1797.83 657.667 1800.89 653.4C1804.09 649.133 1808.03 646.133 1812.69 644.4L1837.49 635.2V625.8C1837.49 622.6 1836.49 620 1834.49 618C1832.63 615.867 1830.16 614.8 1827.09 614.8H1804.49V603H1828.49C1835.83 603 1841.63 605.2 1845.89 609.6C1850.29 613.867 1852.49 619.733 1852.49 627.2V707H1822.69ZM1837.49 694.8V647.8L1819.89 654.4C1816.43 655.733 1813.96 657.533 1812.49 659.8C1811.16 662.067 1810.49 665.667 1810.49 670.6V681.8C1810.49 685.4 1811.83 688.467 1814.49 691C1817.16 693.533 1820.36 694.8 1824.09 694.8H1837.49ZM1896.54 707C1889.21 707 1883.34 704.8 1878.94 700.4C1874.67 696 1872.54 690.067 1872.54 682.6V629.4C1872.54 621 1874.74 614.533 1879.14 610C1883.54 605.333 1889.94 603 1898.34 603H1920.54V615H1898.74C1895.67 615 1893.21 616.067 1891.34 618.2C1889.47 620.2 1888.54 622.8 1888.54 626V684C1888.54 687.2 1889.47 689.867 1891.34 692C1893.34 694 1895.87 695 1898.94 695H1920.54V707H1896.54ZM1963.5 707C1956.17 707 1950.37 704.8 1946.1 700.4C1941.83 696 1939.7 690.067 1939.7 682.6V615H1927.7V603H1939.7V572.8L1955.7 566.8V603H1971.7V615H1955.7V684C1955.7 687.2 1956.57 689.867 1958.3 692C1960.17 694 1962.63 695 1965.7 695H1971.7V707H1963.5ZM1987.63 586V570H2003.63V586H1987.63ZM1987.63 707V603H2003.63V707H1987.63ZM2042.46 707L2018.66 603H2035.26L2050.66 686.8L2065.86 603H2082.46L2058.66 707H2042.46ZM2118.19 707C2110.86 707 2104.99 704.8 2100.59 700.4C2096.32 696 2094.19 690.067 2094.19 682.6V629.4C2094.19 620.733 2096.59 613.933 2101.39 609C2106.19 604.067 2113.32 601.6 2122.79 601.6C2132.26 601.6 2139.32 604.067 2143.99 609C2148.79 613.933 2151.19 620.733 2151.19 629.4V638.6C2151.19 644.2 2149.59 648.467 2146.39 651.4C2143.19 654.2 2138.99 656.333 2133.79 657.8L2110.19 664.4V684C2110.19 687.2 2111.12 689.867 2112.99 692C2114.99 694 2117.52 695 2120.59 695H2142.19V707H2118.19ZM2122.39 648.4C2126.79 647.2 2129.72 646.333 2131.19 645.8C2132.79 645.133 2133.86 644.2 2134.39 643C2134.92 641.8 2135.19 639.8 2135.19 637V626C2135.19 621.733 2134.06 618.6 2131.79 616.6C2129.66 614.6 2126.66 613.6 2122.79 613.6C2119.06 613.6 2115.99 614.667 2113.59 616.8C2111.32 618.933 2110.19 622 2110.19 626V651.8L2122.39 648.4ZM2197.4 693.8H2219.2C2226.8 693.8 2232.26 691.533 2235.6 687C2239.06 682.467 2240.8 676.867 2240.8 670.2C2240.8 665 2239.8 660.533 2237.8 656.8C2235.93 652.933 2233.6 649.733 2230.8 647.2C2228 644.667 2224.2 641.733 2219.4 638.4C2214.33 634.933 2210.2 631.8 2207 629C2203.93 626.067 2201.33 622.4 2199.2 618C2197.06 613.6 2196 608.333 2196 602.2C2196 591.533 2199.2 583 2205.6 576.6C2212 570.2 2220.86 567 2232.2 567H2248.4V580.2H2233C2226.6 580.2 2221.73 582.267 2218.4 586.4C2215.06 590.533 2213.4 595.333 2213.4 600.8C2213.4 606.133 2214.93 610.533 2218 614C2221.06 617.467 2225.73 621.4 2232 625.8C2237.73 629.933 2242.33 633.667 2245.8 637C2249.26 640.2 2252.2 644.467 2254.6 649.8C2257.13 655.133 2258.4 661.533 2258.4 669C2258.4 681.533 2254.8 691 2247.6 697.4C2240.53 703.8 2230.8 707 2218.4 707H2197.4V693.8ZM2304.32 707C2296.99 707 2291.19 704.8 2286.92 700.4C2282.65 696 2280.52 690.067 2280.52 682.6V615H2268.52V603H2280.52V572.8L2296.52 566.8V603H2312.52V615H2296.52V684C2296.52 687.2 2297.39 689.867 2299.12 692C2300.99 694 2303.45 695 2306.52 695H2312.52V707H2304.32ZM2353.85 708.4C2344.51 708.4 2337.25 706.067 2332.05 701.4C2326.98 696.6 2324.45 690 2324.45 681.6V628.4C2324.45 620 2326.98 613.467 2332.05 608.8C2337.25 604 2344.51 601.6 2353.85 601.6C2363.18 601.6 2370.38 604 2375.45 608.8C2380.65 613.467 2383.25 620 2383.25 628.4V681.6C2383.25 690 2380.65 696.6 2375.45 701.4C2370.38 706.067 2363.18 708.4 2353.85 708.4ZM2353.85 696C2358.11 696 2361.45 694.8 2363.85 692.4C2366.38 689.867 2367.65 686.267 2367.65 681.6V628.4C2367.65 623.733 2366.38 620.2 2363.85 617.8C2361.45 615.267 2358.11 614 2353.85 614C2349.58 614 2346.18 615.267 2343.65 617.8C2341.25 620.2 2340.05 623.733 2340.05 628.4V681.6C2340.05 686.267 2341.25 689.867 2343.65 692.4C2346.18 694.8 2349.58 696 2353.85 696ZM2403.25 603H2415.65L2417.45 610.4L2422.45 608C2426.72 605.867 2430.25 604.267 2433.05 603.2C2435.98 602.133 2438.92 601.6 2441.85 601.6V613.4C2440.12 613.4 2437.78 613.933 2434.85 615C2431.92 615.933 2426.72 618.2 2419.25 621.8V707H2403.25V603ZM2456.17 727H2462.37C2465.97 727 2469.23 725.267 2472.17 721.8C2475.1 718.467 2476.57 713.467 2476.57 706.8L2448.77 603H2465.37L2482.77 687.4L2496.77 603H2512.57L2488.17 719C2485.37 732.333 2477.63 739 2464.97 739H2456.17V727ZM2556.47 707C2549.14 707 2543.34 704.8 2539.07 700.4C2534.8 696 2532.67 690.067 2532.67 682.6V615H2520.67V603H2532.67V572.8L2548.67 566.8V603H2564.67V615H2548.67V684C2548.67 687.2 2549.54 689.867 2551.27 692C2553.14 694 2555.6 695 2558.67 695H2564.67V707H2556.47ZM2601.39 707C2594.06 707 2588.19 704.8 2583.79 700.4C2579.53 696 2577.39 690.067 2577.39 682.6V629.4C2577.39 620.733 2579.79 613.933 2584.59 609C2589.39 604.067 2596.53 601.6 2605.99 601.6C2615.46 601.6 2622.53 604.067 2627.19 609C2631.99 613.933 2634.39 620.733 2634.39 629.4V638.6C2634.39 644.2 2632.79 648.467 2629.59 651.4C2626.39 654.2 2622.19 656.333 2616.99 657.8L2593.39 664.4V684C2593.39 687.2 2594.33 689.867 2596.19 692C2598.19 694 2600.73 695 2603.79 695H2625.39V707H2601.39ZM2605.59 648.4C2609.99 647.2 2612.93 646.333 2614.39 645.8C2615.99 645.133 2617.06 644.2 2617.59 643C2618.13 641.8 2618.39 639.8 2618.39 637V626C2618.39 621.733 2617.26 618.6 2614.99 616.6C2612.86 614.6 2609.86 613.6 2605.99 613.6C2602.26 613.6 2599.19 614.667 2596.79 616.8C2594.53 618.933 2593.39 622 2593.39 626V651.8L2605.59 648.4ZM2650.52 707V567H2666.52V707H2650.52ZM2690.56 707V567H2706.56V707H2690.56ZM2730.4 586V570H2746.4V586H2730.4ZM2730.4 707V603H2746.4V707H2730.4ZM2770.44 603H2782.84L2784.64 608.8L2792.84 606.4C2798.44 604.667 2802.84 603.467 2806.04 602.8C2809.37 602 2812.5 601.6 2815.44 601.6C2820.24 601.6 2823.77 603.267 2826.04 606.6C2828.3 609.933 2829.44 614.267 2829.44 619.6V707H2813.44V624.8C2813.44 620.933 2813.17 618.267 2812.64 616.8C2812.1 615.2 2810.77 614.4 2808.64 614.4C2807.57 614.4 2800.17 616.533 2786.44 620.8V707H2770.44V603ZM2860.09 727H2880.69C2883.75 727 2886.15 725.933 2887.89 723.8C2889.75 721.8 2890.69 719.2 2890.69 716V707.2H2874.09C2866.75 707.2 2860.55 704.8 2855.49 700C2850.42 695.2 2847.89 689.2 2847.89 682V628.2C2847.89 621 2850.42 615 2855.49 610.2C2860.69 605.4 2866.95 603 2874.29 603H2906.89V714.6C2906.89 722.067 2904.82 728 2900.69 732.4C2896.69 736.8 2891.02 739 2883.69 739H2860.09V727ZM2890.89 695.2V615H2877.49C2873.75 615 2870.55 616.267 2867.89 618.8C2865.22 621.333 2863.89 624.467 2863.89 628.2V682C2863.89 685.733 2865.22 688.867 2867.89 691.4C2870.55 693.933 2873.75 695.2 2877.49 695.2H2890.89Z" fill="white"/>
<path d="M1494.36 779H1516.98C1524.87 779 1530.98 780.993 1535.31 784.98C1539.64 788.967 1541.81 794.817 1541.81 802.53V846.47C1541.81 854.183 1539.64 860.033 1535.31 864.02C1530.98 867.92 1524.87 869.913 1516.98 870H1494.36V779ZM1516.98 861.16C1520.97 861.16 1524.17 860.033 1526.6 857.78C1529.11 855.44 1530.37 852.363 1530.37 848.55V800.45C1530.37 796.637 1529.11 793.603 1526.6 791.35C1524.17 789.01 1520.97 787.84 1516.98 787.84H1505.93V861.16H1516.98ZM1571.77 870.91C1565.7 870.91 1560.98 869.393 1557.6 866.36C1554.31 863.24 1552.66 858.95 1552.66 853.49V818.91C1552.66 813.45 1554.31 809.203 1557.6 806.17C1560.98 803.05 1565.7 801.49 1571.77 801.49C1577.84 801.49 1582.52 803.05 1585.81 806.17C1589.19 809.203 1590.88 813.45 1590.88 818.91V853.49C1590.88 858.95 1589.19 863.24 1585.81 866.36C1582.52 869.393 1577.84 870.91 1571.77 870.91ZM1571.77 862.85C1574.54 862.85 1576.71 862.07 1578.27 860.51C1579.92 858.863 1580.74 856.523 1580.74 853.49V818.91C1580.74 815.877 1579.92 813.58 1578.27 812.02C1576.71 810.373 1574.54 809.55 1571.77 809.55C1569 809.55 1566.79 810.373 1565.14 812.02C1563.58 813.58 1562.8 815.877 1562.8 818.91V853.49C1562.8 856.523 1563.58 858.863 1565.14 860.51C1566.79 862.07 1569 862.85 1571.77 862.85ZM1618.18 870C1613.42 870 1609.6 868.57 1606.74 865.71C1603.97 862.85 1602.58 858.993 1602.58 854.14V819.56C1602.58 814.1 1604.01 809.897 1606.87 806.95C1609.73 803.917 1613.89 802.4 1619.35 802.4H1633.78V810.2H1619.61C1617.62 810.2 1616.02 810.893 1614.8 812.28C1613.59 813.58 1612.98 815.27 1612.98 817.35V855.05C1612.98 857.13 1613.59 858.863 1614.8 860.25C1616.1 861.55 1617.75 862.2 1619.74 862.2H1633.78V870H1618.18ZM1650.79 870.91C1647.67 870.91 1645.33 869.827 1643.77 867.66C1642.3 865.493 1641.56 862.677 1641.56 859.21V802.4H1651.96V855.83C1651.96 858.257 1652.13 859.99 1652.48 861.03C1652.83 862.07 1653.65 862.59 1654.95 862.59C1655.56 862.59 1660.45 861.29 1669.64 858.69V802.4H1680.04V870H1672.63L1670.68 865.58C1669.29 866.1 1668.25 866.447 1667.56 866.62C1663.49 868.093 1660.19 869.177 1657.68 869.87C1655.17 870.563 1652.87 870.91 1650.79 870.91ZM1695.67 802.4H1703.73L1704.9 806.17L1710.23 804.61C1713.87 803.483 1716.73 802.703 1718.81 802.27C1720.98 801.75 1723.01 801.49 1724.92 801.49C1728.65 801.49 1731.25 803.137 1732.72 806.43C1735.15 805.563 1738.57 804.523 1742.99 803.31C1747.41 802.097 1750.66 801.49 1752.74 801.49C1755.86 801.49 1758.16 802.573 1759.63 804.74C1761.19 806.907 1761.97 809.723 1761.97 813.19V870H1751.57V816.57C1751.57 814.057 1751.4 812.323 1751.05 811.37C1750.7 810.33 1749.84 809.81 1748.45 809.81C1747.76 809.81 1742.99 811.197 1734.15 813.97V870H1723.75V816.57C1723.75 814.057 1723.58 812.323 1723.23 811.37C1722.88 810.33 1722.02 809.81 1720.63 809.81C1719.94 809.81 1715.08 811.197 1706.07 813.97V870H1695.67V802.4ZM1789.81 870C1785.04 870 1781.23 868.57 1778.37 865.71C1775.59 862.85 1774.21 858.993 1774.21 854.14V819.56C1774.21 813.927 1775.77 809.507 1778.89 806.3C1782.01 803.093 1786.64 801.49 1792.8 801.49C1798.95 801.49 1803.54 803.093 1806.58 806.3C1809.7 809.507 1811.26 813.927 1811.26 819.56V825.54C1811.26 829.18 1810.22 831.953 1808.14 833.86C1806.06 835.68 1803.33 837.067 1799.95 838.02L1784.61 842.31V855.05C1784.61 857.13 1785.21 858.863 1786.43 860.25C1787.73 861.55 1789.37 862.2 1791.37 862.2H1805.41V870H1789.81ZM1792.54 831.91C1795.4 831.13 1797.3 830.567 1798.26 830.22C1799.3 829.787 1799.99 829.18 1800.34 828.4C1800.68 827.62 1800.86 826.32 1800.86 824.5V817.35C1800.86 814.577 1800.12 812.54 1798.65 811.24C1797.26 809.94 1795.31 809.29 1792.8 809.29C1790.37 809.29 1788.38 809.983 1786.82 811.37C1785.34 812.757 1784.61 814.75 1784.61 817.35V834.12L1792.54 831.91ZM1821.61 802.4H1829.67L1830.84 806.17L1836.17 804.61C1839.81 803.483 1842.67 802.703 1844.75 802.27C1846.92 801.75 1848.95 801.49 1850.86 801.49C1853.98 801.49 1856.28 802.573 1857.75 804.74C1859.22 806.907 1859.96 809.723 1859.96 813.19V870H1849.56V816.57C1849.56 814.057 1849.39 812.323 1849.04 811.37C1848.69 810.33 1847.83 809.81 1846.44 809.81C1845.75 809.81 1840.94 811.197 1832.01 813.97V870H1821.61V802.4ZM1893.27 870C1888.5 870 1884.73 868.57 1881.96 865.71C1879.19 862.85 1877.8 858.993 1877.8 854.14V810.2H1870V802.4H1877.8V782.77L1888.2 778.87V802.4H1898.6V810.2H1888.2V855.05C1888.2 857.13 1888.76 858.863 1889.89 860.25C1891.1 861.55 1892.71 862.2 1894.7 862.2H1898.6V870H1893.27ZM1925.46 870.91C1919.4 870.91 1914.67 869.393 1911.29 866.36C1908 863.24 1906.35 858.95 1906.35 853.49V818.91C1906.35 813.45 1908 809.203 1911.29 806.17C1914.67 803.05 1919.4 801.49 1925.46 801.49C1931.53 801.49 1936.21 803.05 1939.5 806.17C1942.88 809.203 1944.57 813.45 1944.57 818.91V853.49C1944.57 858.95 1942.88 863.24 1939.5 866.36C1936.21 869.393 1931.53 870.91 1925.46 870.91ZM1925.46 862.85C1928.24 862.85 1930.4 862.07 1931.96 860.51C1933.61 858.863 1934.43 856.523 1934.43 853.49V818.91C1934.43 815.877 1933.61 813.58 1931.96 812.02C1930.4 810.373 1928.24 809.55 1925.46 809.55C1922.69 809.55 1920.48 810.373 1918.83 812.02C1917.27 813.58 1916.49 815.877 1916.49 818.91V853.49C1916.49 856.523 1917.27 858.863 1918.83 860.51C1920.48 862.07 1922.69 862.85 1925.46 862.85ZM1953.68 862.2H1964.73C1968.45 862.2 1971.14 861.203 1972.79 859.21C1974.52 857.13 1975.39 854.443 1975.39 851.15C1975.39 848.55 1974.61 846.34 1973.05 844.52C1971.49 842.7 1969.15 840.577 1966.03 838.15C1963.34 835.983 1961.17 834.12 1959.53 832.56C1957.97 830.913 1956.58 828.92 1955.37 826.58C1954.24 824.153 1953.68 821.38 1953.68 818.26C1953.68 813.667 1955.19 809.897 1958.23 806.95C1961.35 803.917 1965.51 802.4 1970.71 802.4H1982.02V810.2H1972.66C1966.5 810.2 1963.43 813.103 1963.43 818.91C1963.43 821.163 1964.12 823.113 1965.51 824.76C1966.89 826.407 1969.06 828.357 1972.01 830.61C1974.69 832.69 1976.9 834.597 1978.64 836.33C1980.37 837.977 1981.84 840.1 1983.06 842.7C1984.27 845.213 1984.88 848.203 1984.88 851.67C1984.88 857.823 1983.23 862.417 1979.94 865.45C1976.73 868.483 1972.18 870 1966.29 870H1953.68V862.2ZM2029.62 870C2024.85 870 2021.04 868.57 2018.18 865.71C2015.41 862.85 2014.02 858.993 2014.02 854.14V819.56C2014.02 813.927 2015.58 809.507 2018.7 806.3C2021.82 803.093 2026.46 801.49 2032.61 801.49C2038.76 801.49 2043.36 803.093 2046.39 806.3C2049.51 809.507 2051.07 813.927 2051.07 819.56V825.54C2051.07 829.18 2050.03 831.953 2047.95 833.86C2045.87 835.68 2043.14 837.067 2039.76 838.02L2024.42 842.31V855.05C2024.42 857.13 2025.03 858.863 2026.24 860.25C2027.54 861.55 2029.19 862.2 2031.18 862.2H2045.22V870H2029.62ZM2032.35 831.91C2035.21 831.13 2037.12 830.567 2038.07 830.22C2039.11 829.787 2039.8 829.18 2040.15 828.4C2040.5 827.62 2040.67 826.32 2040.67 824.5V817.35C2040.67 814.577 2039.93 812.54 2038.46 811.24C2037.07 809.94 2035.12 809.29 2032.61 809.29C2030.18 809.29 2028.19 809.983 2026.63 811.37C2025.16 812.757 2024.42 814.75 2024.42 817.35V834.12L2032.35 831.91ZM2081.1 870V779H2091.5V870H2081.1ZM2107 791.35V780.95H2117.4V791.35H2107ZM2107 870V802.4H2117.4V870H2107ZM2142.64 870L2127.17 802.4H2137.96L2147.97 856.87L2157.85 802.4H2168.64L2153.17 870H2142.64ZM2178.35 802.4H2186.41L2187.58 807.21L2190.83 805.65C2193.6 804.263 2195.9 803.223 2197.72 802.53C2199.62 801.837 2201.53 801.49 2203.44 801.49V809.16C2202.31 809.16 2200.79 809.507 2198.89 810.2C2196.98 810.807 2193.6 812.28 2188.75 814.62V870H2178.35V802.4ZM2229.64 870.91C2223.58 870.91 2218.85 869.393 2215.47 866.36C2212.18 863.24 2210.53 858.95 2210.53 853.49V818.91C2210.53 813.45 2212.18 809.203 2215.47 806.17C2218.85 803.05 2223.58 801.49 2229.64 801.49C2235.71 801.49 2240.39 803.05 2243.68 806.17C2247.06 809.203 2248.75 813.45 2248.75 818.91V853.49C2248.75 858.95 2247.06 863.24 2243.68 866.36C2240.39 869.393 2235.71 870.91 2229.64 870.91ZM2229.64 862.85C2232.42 862.85 2234.58 862.07 2236.14 860.51C2237.79 858.863 2238.61 856.523 2238.61 853.49V818.91C2238.61 815.877 2237.79 813.58 2236.14 812.02C2234.58 810.373 2232.42 809.55 2229.64 809.55C2226.87 809.55 2224.66 810.373 2223.01 812.02C2221.45 813.58 2220.67 815.877 2220.67 818.91V853.49C2220.67 856.523 2221.45 858.863 2223.01 860.51C2224.66 862.07 2226.87 862.85 2229.64 862.85ZM2257.86 862.2H2268.91C2272.63 862.2 2275.32 861.203 2276.97 859.21C2278.7 857.13 2279.57 854.443 2279.57 851.15C2279.57 848.55 2278.79 846.34 2277.23 844.52C2275.67 842.7 2273.33 840.577 2270.21 838.15C2267.52 835.983 2265.35 834.12 2263.71 832.56C2262.15 830.913 2260.76 828.92 2259.55 826.58C2258.42 824.153 2257.86 821.38 2257.86 818.26C2257.86 813.667 2259.37 809.897 2262.41 806.95C2265.53 803.917 2269.69 802.4 2274.89 802.4H2286.2V810.2H2276.84C2270.68 810.2 2267.61 813.103 2267.61 818.91C2267.61 821.163 2268.3 823.113 2269.69 824.76C2271.07 826.407 2273.24 828.357 2276.19 830.61C2278.87 832.69 2281.08 834.597 2282.82 836.33C2284.55 837.977 2286.02 840.1 2287.24 842.7C2288.45 845.213 2289.06 848.203 2289.06 851.67C2289.06 857.823 2287.41 862.417 2284.12 865.45C2280.91 868.483 2276.36 870 2270.47 870H2257.86V862.2ZM2293.58 844.78V836.2H2323.74V844.78H2293.58ZM2351.06 870C2346.3 870 2342.53 868.57 2339.75 865.71C2336.98 862.85 2335.59 858.993 2335.59 854.14V810.2H2327.79V802.4H2335.59V782.77L2345.99 778.87V802.4H2356.39V810.2H2345.99V855.05C2345.99 857.13 2346.56 858.863 2347.68 860.25C2348.9 861.55 2350.5 862.2 2352.49 862.2H2356.39V870H2351.06ZM2380.27 870C2375.5 870 2371.69 868.57 2368.83 865.71C2366.05 862.85 2364.67 858.993 2364.67 854.14V819.56C2364.67 813.927 2366.23 809.507 2369.35 806.3C2372.47 803.093 2377.1 801.49 2383.26 801.49C2389.41 801.49 2394 803.093 2397.04 806.3C2400.16 809.507 2401.72 813.927 2401.72 819.56V825.54C2401.72 829.18 2400.68 831.953 2398.6 833.86C2396.52 835.68 2393.79 837.067 2390.41 838.02L2375.07 842.31V855.05C2375.07 857.13 2375.67 858.863 2376.89 860.25C2378.19 861.55 2379.83 862.2 2381.83 862.2H2395.87V870H2380.27ZM2383 831.91C2385.86 831.13 2387.76 830.567 2388.72 830.22C2389.76 829.787 2390.45 829.18 2390.8 828.4C2391.14 827.62 2391.32 826.32 2391.32 824.5V817.35C2391.32 814.577 2390.58 812.54 2389.11 811.24C2387.72 809.94 2385.77 809.29 2383.26 809.29C2380.83 809.29 2378.84 809.983 2377.28 811.37C2375.8 812.757 2375.07 814.75 2375.07 817.35V834.12L2383 831.91ZM2405.57 870L2424.29 836.07L2406.87 802.4H2416.88L2429.1 826.32L2441.45 802.4H2451.46L2434.04 836.07L2452.76 870H2441.84L2429.1 845.3L2416.49 870H2405.57ZM2480.05 870C2475.28 870 2471.51 868.57 2468.74 865.71C2465.97 862.85 2464.58 858.993 2464.58 854.14V810.2H2456.78V802.4H2464.58V782.77L2474.98 778.87V802.4H2485.38V810.2H2474.98V855.05C2474.98 857.13 2475.54 858.863 2476.67 860.25C2477.88 861.55 2479.49 862.2 2481.48 862.2H2485.38V870H2480.05ZM2512.24 870.91C2506.17 870.91 2501.45 869.393 2498.07 866.36C2494.78 863.24 2493.13 858.95 2493.13 853.49V818.91C2493.13 813.45 2494.78 809.203 2498.07 806.17C2501.45 803.05 2506.17 801.49 2512.24 801.49C2518.31 801.49 2522.99 803.05 2526.28 806.17C2529.66 809.203 2531.35 813.45 2531.35 818.91V853.49C2531.35 858.95 2529.66 863.24 2526.28 866.36C2522.99 869.393 2518.31 870.91 2512.24 870.91ZM2512.24 862.85C2515.01 862.85 2517.18 862.07 2518.74 860.51C2520.39 858.863 2521.21 856.523 2521.21 853.49V818.91C2521.21 815.877 2520.39 813.58 2518.74 812.02C2517.18 810.373 2515.01 809.55 2512.24 809.55C2509.47 809.55 2507.26 810.373 2505.61 812.02C2504.05 813.58 2503.27 815.877 2503.27 818.91V853.49C2503.27 856.523 2504.05 858.863 2505.61 860.51C2507.26 862.07 2509.47 862.85 2512.24 862.85ZM1492.8 921.35V910.95H1503.2V921.35H1492.8ZM1492.8 1000V932.4H1503.2V1000H1492.8ZM1518.83 932.4H1526.89L1528.06 936.17L1533.39 934.61C1537.03 933.483 1539.89 932.703 1541.97 932.27C1544.13 931.75 1546.17 931.49 1548.08 931.49C1551.2 931.49 1553.49 932.573 1554.97 934.74C1556.44 936.907 1557.18 939.723 1557.18 943.19V1000H1546.78V946.57C1546.78 944.057 1546.6 942.323 1546.26 941.37C1545.91 940.33 1545.04 939.81 1543.66 939.81C1542.96 939.81 1538.15 941.197 1529.23 943.97V1000H1518.83V932.4ZM1590.49 1000C1585.72 1000 1581.95 998.57 1579.18 995.71C1576.4 992.85 1575.02 988.993 1575.02 984.14V940.2H1567.22V932.4H1575.02V912.77L1585.42 908.87V932.4H1595.82V940.2H1585.42V985.05C1585.42 987.13 1585.98 988.863 1587.11 990.25C1588.32 991.55 1589.92 992.2 1591.92 992.2H1595.82V1000H1590.49ZM1619.69 1000C1614.92 1000 1611.11 998.57 1608.25 995.71C1605.48 992.85 1604.09 988.993 1604.09 984.14V949.56C1604.09 943.927 1605.65 939.507 1608.77 936.3C1611.89 933.093 1616.53 931.49 1622.68 931.49C1628.83 931.49 1633.43 933.093 1636.46 936.3C1639.58 939.507 1641.14 943.927 1641.14 949.56V955.54C1641.14 959.18 1640.1 961.953 1638.02 963.86C1635.94 965.68 1633.21 967.067 1629.83 968.02L1614.49 972.31V985.05C1614.49 987.13 1615.1 988.863 1616.31 990.25C1617.61 991.55 1619.26 992.2 1621.25 992.2H1635.29V1000H1619.69ZM1622.42 961.91C1625.28 961.13 1627.19 960.567 1628.14 960.22C1629.18 959.787 1629.87 959.18 1630.22 958.4C1630.57 957.62 1630.74 956.32 1630.74 954.5V947.35C1630.74 944.577 1630 942.54 1628.53 941.24C1627.14 939.94 1625.19 939.29 1622.68 939.29C1620.25 939.29 1618.26 939.983 1616.7 941.37C1615.23 942.757 1614.49 944.75 1614.49 947.35V964.12L1622.42 961.91ZM1651.49 932.4H1659.55L1660.72 937.21L1663.97 935.65C1666.74 934.263 1669.04 933.223 1670.86 932.53C1672.77 931.837 1674.67 931.49 1676.58 931.49V939.16C1675.45 939.16 1673.94 939.507 1672.03 940.2C1670.12 940.807 1666.74 942.28 1661.89 944.62V1000H1651.49V932.4ZM1700.06 1000C1696.94 1000 1694.03 999.22 1691.35 997.66C1688.75 996.1 1686.67 993.977 1685.11 991.29C1683.63 988.603 1682.9 985.57 1682.9 982.19V975.43C1682.9 971.357 1683.89 967.933 1685.89 965.16C1687.97 962.387 1690.52 960.437 1693.56 959.31L1709.68 953.33V947.22C1709.68 945.14 1709.03 943.45 1707.73 942.15C1706.51 940.763 1704.91 940.07 1702.92 940.07H1688.23V932.4H1703.83C1708.59 932.4 1712.36 933.83 1715.14 936.69C1718 939.463 1719.43 943.277 1719.43 948.13V1000H1700.06ZM1709.68 992.07V961.52L1698.24 965.81C1695.98 966.677 1694.38 967.847 1693.43 969.32C1692.56 970.793 1692.13 973.133 1692.13 976.34V983.62C1692.13 985.96 1692.99 987.953 1694.73 989.6C1696.46 991.247 1698.54 992.07 1700.97 992.07H1709.68ZM1752.61 1000C1747.84 1000 1744.07 998.57 1741.3 995.71C1738.52 992.85 1737.14 988.993 1737.14 984.14V940.2H1729.34V932.4H1737.14V912.77L1747.54 908.87V932.4H1757.94V940.2H1747.54V985.05C1747.54 987.13 1748.1 988.863 1749.23 990.25C1750.44 991.55 1752.04 992.2 1754.04 992.2H1757.94V1000H1752.61ZM1768.29 921.35V910.95H1778.69V921.35H1768.29ZM1768.29 1000V932.4H1778.69V1000H1768.29ZM1803.93 1000L1788.46 932.4H1799.25L1809.26 986.87L1819.14 932.4H1829.93L1814.46 1000H1803.93ZM1856.15 1000.91C1850.08 1000.91 1845.36 999.393 1841.98 996.36C1838.68 993.24 1837.04 988.95 1837.04 983.49V948.91C1837.04 943.45 1838.68 939.203 1841.98 936.17C1845.36 933.05 1850.08 931.49 1856.15 931.49C1862.21 931.49 1866.89 933.05 1870.19 936.17C1873.57 939.203 1875.26 943.45 1875.26 948.91V983.49C1875.26 988.95 1873.57 993.24 1870.19 996.36C1866.89 999.393 1862.21 1000.91 1856.15 1000.91ZM1856.15 992.85C1858.92 992.85 1861.09 992.07 1862.65 990.51C1864.29 988.863 1865.12 986.523 1865.12 983.49V948.91C1865.12 945.877 1864.29 943.58 1862.65 942.02C1861.09 940.373 1858.92 939.55 1856.15 939.55C1853.37 939.55 1851.16 940.373 1849.52 942.02C1847.96 943.58 1847.18 945.877 1847.18 948.91V983.49C1847.18 986.523 1847.96 988.863 1849.52 990.51C1851.16 992.07 1853.37 992.85 1856.15 992.85ZM1884.36 992.2H1895.41C1899.14 992.2 1901.82 991.203 1903.47 989.21C1905.2 987.13 1906.07 984.443 1906.07 981.15C1906.07 978.55 1905.29 976.34 1903.73 974.52C1902.17 972.7 1899.83 970.577 1896.71 968.15C1894.02 965.983 1891.86 964.12 1890.21 962.56C1888.65 960.913 1887.26 958.92 1886.05 956.58C1884.92 954.153 1884.36 951.38 1884.36 948.26C1884.36 943.667 1885.88 939.897 1888.91 936.95C1892.03 933.917 1896.19 932.4 1901.39 932.4H1912.7V940.2H1903.34C1897.19 940.2 1894.11 943.103 1894.11 948.91C1894.11 951.163 1894.8 953.113 1896.19 954.76C1897.58 956.407 1899.74 958.357 1902.69 960.61C1905.38 962.69 1907.59 964.597 1909.32 966.33C1911.05 967.977 1912.53 970.1 1913.74 972.7C1914.95 975.213 1915.56 978.203 1915.56 981.67C1915.56 987.823 1913.91 992.417 1910.62 995.45C1907.41 998.483 1902.86 1000 1896.97 1000H1884.36V992.2ZM1924.76 945.92V932.53H1935.16V945.92H1924.76ZM1924.76 1000V986.61H1935.16V1000H1924.76ZM1981.64 1000C1978.52 1000 1975.62 999.22 1972.93 997.66C1970.33 996.1 1968.25 993.977 1966.69 991.29C1965.22 988.603 1964.48 985.57 1964.48 982.19V975.43C1964.48 971.357 1965.48 967.933 1967.47 965.16C1969.55 962.387 1972.11 960.437 1975.14 959.31L1991.26 953.33V947.22C1991.26 945.14 1990.61 943.45 1989.31 942.15C1988.1 940.763 1986.49 940.07 1984.5 940.07H1969.81V932.4H1985.41C1990.18 932.4 1993.95 933.83 1996.72 936.69C1999.58 939.463 2001.01 943.277 2001.01 948.13V1000H1981.64ZM1991.26 992.07V961.52L1979.82 965.81C1977.57 966.677 1975.96 967.847 1975.01 969.32C1974.14 970.793 1973.71 973.133 1973.71 976.34V983.62C1973.71 985.96 1974.58 987.953 1976.31 989.6C1978.04 991.247 1980.12 992.07 1982.55 992.07H1991.26ZM2015.34 932.4H2023.4L2024.57 937.21L2027.82 935.65C2030.59 934.263 2032.89 933.223 2034.71 932.53C2036.62 931.837 2038.52 931.49 2040.43 931.49V939.16C2039.3 939.16 2037.79 939.507 2035.88 940.2C2033.97 940.807 2030.59 942.28 2025.74 944.62V1000H2015.34V932.4ZM2068.97 1000C2064.21 1000 2060.44 998.57 2057.66 995.71C2054.89 992.85 2053.5 988.993 2053.5 984.14V940.2H2045.7V932.4H2053.5V912.77L2063.9 908.87V932.4H2074.3V940.2H2063.9V985.05C2063.9 987.13 2064.47 988.863 2065.59 990.25C2066.81 991.55 2068.41 992.2 2070.4 992.2H2074.3V1000H2068.97ZM2084.66 921.35V910.95H2095.06V921.35H2084.66ZM2084.66 1000V932.4H2095.06V1000H2084.66ZM2116.14 1013H2129.53C2131.52 1013 2133.08 1012.31 2134.21 1010.92C2135.42 1009.62 2136.03 1007.93 2136.03 1005.85V1000.13H2125.24C2120.47 1000.13 2116.44 998.57 2113.15 995.45C2109.86 992.33 2108.21 988.43 2108.21 983.75V948.78C2108.21 944.1 2109.86 940.2 2113.15 937.08C2116.53 933.96 2120.6 932.4 2125.37 932.4H2146.56V1004.94C2146.56 1009.79 2145.22 1013.65 2142.53 1016.51C2139.93 1019.37 2136.25 1020.8 2131.48 1020.8H2116.14V1013ZM2136.16 992.33V940.2H2127.45C2125.02 940.2 2122.94 941.023 2121.21 942.67C2119.48 944.317 2118.61 946.353 2118.61 948.78V983.75C2118.61 986.177 2119.48 988.213 2121.21 989.86C2122.94 991.507 2125.02 992.33 2127.45 992.33H2136.16ZM2177.34 1000.91C2171.27 1000.91 2166.55 999.393 2163.17 996.36C2159.87 993.24 2158.23 988.95 2158.23 983.49V948.91C2158.23 943.45 2159.87 939.203 2163.17 936.17C2166.55 933.05 2171.27 931.49 2177.34 931.49C2183.4 931.49 2188.08 933.05 2191.38 936.17C2194.76 939.203 2196.45 943.45 2196.45 948.91V983.49C2196.45 988.95 2194.76 993.24 2191.38 996.36C2188.08 999.393 2183.4 1000.91 2177.34 1000.91ZM2177.34 992.85C2180.11 992.85 2182.28 992.07 2183.84 990.51C2185.48 988.863 2186.31 986.523 2186.31 983.49V948.91C2186.31 945.877 2185.48 943.58 2183.84 942.02C2182.28 940.373 2180.11 939.55 2177.34 939.55C2174.56 939.55 2172.35 940.373 2170.71 942.02C2169.15 943.58 2168.37 945.877 2168.37 948.91V983.49C2168.37 986.523 2169.15 988.863 2170.71 990.51C2172.35 992.07 2174.56 992.85 2177.34 992.85ZM2205.55 992.2H2216.6C2220.33 992.2 2223.01 991.203 2224.66 989.21C2226.39 987.13 2227.26 984.443 2227.26 981.15C2227.26 978.55 2226.48 976.34 2224.92 974.52C2223.36 972.7 2221.02 970.577 2217.9 968.15C2215.21 965.983 2213.05 964.12 2211.4 962.56C2209.84 960.913 2208.45 958.92 2207.24 956.58C2206.11 954.153 2205.55 951.38 2205.55 948.26C2205.55 943.667 2207.07 939.897 2210.1 936.95C2213.22 933.917 2217.38 932.4 2222.58 932.4H2233.89V940.2H2224.53C2218.38 940.2 2215.3 943.103 2215.3 948.91C2215.3 951.163 2215.99 953.113 2217.38 954.76C2218.77 956.407 2220.93 958.357 2223.88 960.61C2226.57 962.69 2228.78 964.597 2230.51 966.33C2232.24 967.977 2233.72 970.1 2234.93 972.7C2236.14 975.213 2236.75 978.203 2236.75 981.67C2236.75 987.823 2235.1 992.417 2231.81 995.45C2228.6 998.483 2224.05 1000 2218.16 1000H2205.55V992.2ZM2282.28 1000C2277.51 1000 2273.7 998.57 2270.84 995.71C2268.06 992.85 2266.68 988.993 2266.68 984.14V949.56C2266.68 944.1 2268.11 939.897 2270.97 936.95C2273.83 933.917 2277.99 932.4 2283.45 932.4H2297.88V940.2H2283.71C2281.71 940.2 2280.11 940.893 2278.9 942.28C2277.68 943.58 2277.08 945.27 2277.08 947.35V985.05C2277.08 987.13 2277.68 988.863 2278.9 990.25C2280.2 991.55 2281.84 992.2 2283.84 992.2H2297.88V1000H2282.28ZM2306.95 921.35V910.95H2317.35V921.35H2306.95ZM2306.95 1000V932.4H2317.35V1000H2306.95ZM2346.5 1000C2341.73 1000 2337.92 998.57 2335.06 995.71C2332.28 992.85 2330.9 988.993 2330.9 984.14V949.56C2330.9 943.927 2332.46 939.507 2335.58 936.3C2338.7 933.093 2343.33 931.49 2349.49 931.49C2355.64 931.49 2360.23 933.093 2363.27 936.3C2366.39 939.507 2367.95 943.927 2367.95 949.56V955.54C2367.95 959.18 2366.91 961.953 2364.83 963.86C2362.75 965.68 2360.02 967.067 2356.64 968.02L2341.3 972.31V985.05C2341.3 987.13 2341.9 988.863 2343.12 990.25C2344.42 991.55 2346.06 992.2 2348.06 992.2H2362.1V1000H2346.5ZM2349.23 961.91C2352.09 961.13 2353.99 960.567 2354.95 960.22C2355.99 959.787 2356.68 959.18 2357.03 958.4C2357.37 957.62 2357.55 956.32 2357.55 954.5V947.35C2357.55 944.577 2356.81 942.54 2355.34 941.24C2353.95 939.94 2352 939.29 2349.49 939.29C2347.06 939.29 2345.07 939.983 2343.51 941.37C2342.03 942.757 2341.3 944.75 2341.3 947.35V964.12L2349.23 961.91ZM2378.3 932.4H2386.36L2387.53 936.17L2392.86 934.61C2396.5 933.483 2399.36 932.703 2401.44 932.27C2403.6 931.75 2405.64 931.49 2407.55 931.49C2410.67 931.49 2412.96 932.573 2414.44 934.74C2415.91 936.907 2416.65 939.723 2416.65 943.19V1000H2406.25V946.57C2406.25 944.057 2406.07 942.323 2405.73 941.37C2405.38 940.33 2404.51 939.81 2403.13 939.81C2402.43 939.81 2397.62 941.197 2388.7 943.97V1000H2378.3V932.4ZM2449.96 1000C2445.19 1000 2441.42 998.57 2438.65 995.71C2435.88 992.85 2434.49 988.993 2434.49 984.14V940.2H2426.69V932.4H2434.49V912.77L2444.89 908.87V932.4H2455.29V940.2H2444.89V985.05C2444.89 987.13 2445.45 988.863 2446.58 990.25C2447.79 991.55 2449.4 992.2 2451.39 992.2H2455.29V1000H2449.96ZM2468.5 927.33L2464.21 923.43L2479.29 910.56L2485.92 916.67L2468.5 927.33ZM2465.64 1000V932.4H2476.04V1000H2465.64ZM2494.92 940.98H2487.12V932.4H2494.92V924.86C2494.92 920.007 2496.3 916.15 2499.08 913.29C2501.85 910.43 2505.62 909 2510.39 909H2516.11V916.8H2512.21C2510.21 916.8 2508.57 917.493 2507.27 918.88C2505.97 920.267 2505.32 921.957 2505.32 923.95V932.4H2515.85V940.98H2505.32V1000H2494.92V940.98ZM2524.29 921.35V910.95H2534.69V921.35H2524.29ZM2524.29 1000V932.4H2534.69V1000H2524.29ZM2564.62 1000C2559.85 1000 2556.04 998.57 2553.18 995.71C2550.41 992.85 2549.02 988.993 2549.02 984.14V949.56C2549.02 944.1 2550.45 939.897 2553.31 936.95C2556.17 933.917 2560.33 932.4 2565.79 932.4H2580.22V940.2H2566.05C2564.06 940.2 2562.45 940.893 2561.24 942.28C2560.03 943.58 2559.42 945.27 2559.42 947.35V985.05C2559.42 987.13 2560.03 988.863 2561.24 990.25C2562.54 991.55 2564.19 992.2 2566.18 992.2H2580.22V1000H2564.62ZM2605.8 1000.91C2599.74 1000.91 2595.01 999.393 2591.63 996.36C2588.34 993.24 2586.69 988.95 2586.69 983.49V948.91C2586.69 943.45 2588.34 939.203 2591.63 936.17C2595.01 933.05 2599.74 931.49 2605.8 931.49C2611.87 931.49 2616.55 933.05 2619.84 936.17C2623.22 939.203 2624.91 943.45 2624.91 948.91V983.49C2624.91 988.95 2623.22 993.24 2619.84 996.36C2616.55 999.393 2611.87 1000.91 2605.8 1000.91ZM2605.8 992.85C2608.58 992.85 2610.74 992.07 2612.3 990.51C2613.95 988.863 2614.77 986.523 2614.77 983.49V948.91C2614.77 945.877 2613.95 943.58 2612.3 942.02C2610.74 940.373 2608.58 939.55 2605.8 939.55C2603.03 939.55 2600.82 940.373 2599.17 942.02C2597.61 943.58 2596.83 945.877 2596.83 948.91V983.49C2596.83 986.523 2597.61 988.863 2599.17 990.51C2600.82 992.07 2603.03 992.85 2605.8 992.85ZM2634.02 992.2H2645.07C2648.79 992.2 2651.48 991.203 2653.13 989.21C2654.86 987.13 2655.73 984.443 2655.73 981.15C2655.73 978.55 2654.95 976.34 2653.39 974.52C2651.83 972.7 2649.49 970.577 2646.37 968.15C2643.68 965.983 2641.51 964.12 2639.87 962.56C2638.31 960.913 2636.92 958.92 2635.71 956.58C2634.58 954.153 2634.02 951.38 2634.02 948.26C2634.02 943.667 2635.53 939.897 2638.57 936.95C2641.69 933.917 2645.85 932.4 2651.05 932.4H2662.36V940.2H2653C2646.84 940.2 2643.77 943.103 2643.77 948.91C2643.77 951.163 2644.46 953.113 2645.85 954.76C2647.23 956.407 2649.4 958.357 2652.35 960.61C2655.03 962.69 2657.24 964.597 2658.98 966.33C2660.71 967.977 2662.18 970.1 2663.4 972.7C2664.61 975.213 2665.22 978.203 2665.22 981.67C2665.22 987.823 2663.57 992.417 2660.28 995.45C2657.07 998.483 2652.52 1000 2646.63 1000H2634.02V992.2ZM2709.96 1000C2705.2 1000 2701.38 998.57 2698.52 995.71C2695.75 992.85 2694.36 988.993 2694.36 984.14V949.56C2694.36 943.927 2695.92 939.507 2699.04 936.3C2702.16 933.093 2706.8 931.49 2712.95 931.49C2719.11 931.49 2723.7 933.093 2726.73 936.3C2729.85 939.507 2731.41 943.927 2731.41 949.56V955.54C2731.41 959.18 2730.37 961.953 2728.29 963.86C2726.21 965.68 2723.48 967.067 2720.1 968.02L2704.76 972.31V985.05C2704.76 987.13 2705.37 988.863 2706.58 990.25C2707.88 991.55 2709.53 992.2 2711.52 992.2H2725.56V1000H2709.96ZM2712.69 961.91C2715.55 961.13 2717.46 960.567 2718.41 960.22C2719.45 959.787 2720.15 959.18 2720.49 958.4C2720.84 957.62 2721.01 956.32 2721.01 954.5V947.35C2721.01 944.577 2720.28 942.54 2718.8 941.24C2717.42 939.94 2715.47 939.29 2712.95 939.29C2710.53 939.29 2708.53 939.983 2706.97 941.37C2705.5 942.757 2704.76 944.75 2704.76 947.35V964.12L2712.69 961.91ZM1492.8 1062.4H1500.86L1502.03 1066.17L1507.36 1064.61C1511 1063.48 1513.86 1062.7 1515.94 1062.27C1518.11 1061.75 1520.14 1061.49 1522.05 1061.49C1525.78 1061.49 1528.38 1063.14 1529.85 1066.43C1532.28 1065.56 1535.7 1064.52 1540.12 1063.31C1544.54 1062.1 1547.79 1061.49 1549.87 1061.49C1552.99 1061.49 1555.29 1062.57 1556.76 1064.74C1558.32 1066.91 1559.1 1069.72 1559.1 1073.19V1130H1548.7V1076.57C1548.7 1074.06 1548.53 1072.32 1548.18 1071.37C1547.83 1070.33 1546.97 1069.81 1545.58 1069.81C1544.89 1069.81 1540.12 1071.2 1531.28 1073.97V1130H1520.88V1076.57C1520.88 1074.06 1520.71 1072.32 1520.36 1071.37C1520.01 1070.33 1519.15 1069.81 1517.76 1069.81C1517.07 1069.81 1512.21 1071.2 1503.2 1073.97V1130H1492.8V1062.4ZM1587.2 1130C1584.08 1130 1581.17 1129.22 1578.49 1127.66C1575.89 1126.1 1573.81 1123.98 1572.25 1121.29C1570.77 1118.6 1570.04 1115.57 1570.04 1112.19V1105.43C1570.04 1101.36 1571.03 1097.93 1573.03 1095.16C1575.11 1092.39 1577.66 1090.44 1580.7 1089.31L1596.82 1083.33V1077.22C1596.82 1075.14 1596.17 1073.45 1594.87 1072.15C1593.65 1070.76 1592.05 1070.07 1590.06 1070.07H1575.37V1062.4H1590.97C1595.73 1062.4 1599.5 1063.83 1602.28 1066.69C1605.14 1069.46 1606.57 1073.28 1606.57 1078.13V1130H1587.2ZM1596.82 1122.07V1091.52L1585.38 1095.81C1583.12 1096.68 1581.52 1097.85 1580.57 1099.32C1579.7 1100.79 1579.27 1103.13 1579.27 1106.34V1113.62C1579.27 1115.96 1580.13 1117.95 1581.87 1119.6C1583.6 1121.25 1585.68 1122.07 1588.11 1122.07H1596.82ZM1639.75 1130C1634.98 1130 1631.21 1128.57 1628.44 1125.71C1625.66 1122.85 1624.28 1118.99 1624.28 1114.14V1070.2H1616.48V1062.4H1624.28V1042.77L1634.68 1038.87V1062.4H1645.08V1070.2H1634.68V1115.05C1634.68 1117.13 1635.24 1118.86 1636.37 1120.25C1637.58 1121.55 1639.18 1122.2 1641.18 1122.2H1645.08V1130H1639.75ZM1668.95 1130C1664.18 1130 1660.37 1128.57 1657.51 1125.71C1654.73 1122.85 1653.35 1118.99 1653.35 1114.14V1079.56C1653.35 1073.93 1654.91 1069.51 1658.03 1066.3C1661.15 1063.09 1665.78 1061.49 1671.94 1061.49C1678.09 1061.49 1682.68 1063.09 1685.72 1066.3C1688.84 1069.51 1690.4 1073.93 1690.4 1079.56V1085.54C1690.4 1089.18 1689.36 1091.95 1687.28 1093.86C1685.2 1095.68 1682.47 1097.07 1679.09 1098.02L1663.75 1102.31V1115.05C1663.75 1117.13 1664.35 1118.86 1665.57 1120.25C1666.87 1121.55 1668.51 1122.2 1670.51 1122.2H1684.55V1130H1668.95ZM1671.68 1091.91C1674.54 1091.13 1676.44 1090.57 1677.4 1090.22C1678.44 1089.79 1679.13 1089.18 1679.48 1088.4C1679.82 1087.62 1680 1086.32 1680 1084.5V1077.35C1680 1074.58 1679.26 1072.54 1677.79 1071.24C1676.4 1069.94 1674.45 1069.29 1671.94 1069.29C1669.51 1069.29 1667.52 1069.98 1665.96 1071.37C1664.48 1072.76 1663.75 1074.75 1663.75 1077.35V1094.12L1671.68 1091.91ZM1700.75 1062.4H1708.81L1709.98 1067.21L1713.23 1065.65C1716 1064.26 1718.3 1063.22 1720.12 1062.53C1722.03 1061.84 1723.93 1061.49 1725.84 1061.49V1069.16C1724.71 1069.16 1723.2 1069.51 1721.29 1070.2C1719.38 1070.81 1716 1072.28 1711.15 1074.62V1130H1700.75V1062.4ZM1735.53 1051.35V1040.95H1745.93V1051.35H1735.53ZM1735.53 1130V1062.4H1745.93V1130H1735.53ZM1775.34 1130C1772.22 1130 1769.32 1129.22 1766.63 1127.66C1764.03 1126.1 1761.95 1123.98 1760.39 1121.29C1758.92 1118.6 1758.18 1115.57 1758.18 1112.19V1105.43C1758.18 1101.36 1759.18 1097.93 1761.17 1095.16C1763.25 1092.39 1765.81 1090.44 1768.84 1089.31L1784.96 1083.33V1077.22C1784.96 1075.14 1784.31 1073.45 1783.01 1072.15C1781.8 1070.76 1780.19 1070.07 1778.2 1070.07H1763.51V1062.4H1779.11C1783.88 1062.4 1787.65 1063.83 1790.42 1066.69C1793.28 1069.46 1794.71 1073.28 1794.71 1078.13V1130H1775.34ZM1784.96 1122.07V1091.52L1773.52 1095.81C1771.27 1096.68 1769.66 1097.85 1768.71 1099.32C1767.84 1100.79 1767.41 1103.13 1767.41 1106.34V1113.62C1767.41 1115.96 1768.28 1117.95 1770.01 1119.6C1771.74 1121.25 1773.82 1122.07 1776.25 1122.07H1784.96ZM1809.04 1051.35V1040.95H1819.44V1051.35H1809.04ZM1809.04 1130V1062.4H1819.44V1130H1809.04ZM1831.17 1122.2H1842.22C1845.94 1122.2 1848.63 1121.2 1850.28 1119.21C1852.01 1117.13 1852.88 1114.44 1852.88 1111.15C1852.88 1108.55 1852.1 1106.34 1850.54 1104.52C1848.98 1102.7 1846.64 1100.58 1843.52 1098.15C1840.83 1095.98 1838.66 1094.12 1837.02 1092.56C1835.46 1090.91 1834.07 1088.92 1832.86 1086.58C1831.73 1084.15 1831.17 1081.38 1831.17 1078.26C1831.17 1073.67 1832.68 1069.9 1835.72 1066.95C1838.84 1063.92 1843 1062.4 1848.2 1062.4H1859.51V1070.2H1850.15C1843.99 1070.2 1840.92 1073.1 1840.92 1078.91C1840.92 1081.16 1841.61 1083.11 1843 1084.76C1844.38 1086.41 1846.55 1088.36 1849.5 1090.61C1852.18 1092.69 1854.39 1094.6 1856.13 1096.33C1857.86 1097.98 1859.33 1100.1 1860.55 1102.7C1861.76 1105.21 1862.37 1108.2 1862.37 1111.67C1862.37 1117.82 1860.72 1122.42 1857.43 1125.45C1854.22 1128.48 1849.67 1130 1843.78 1130H1831.17V1122.2ZM1910.75 1130C1905.29 1130 1900.87 1128.4 1897.49 1125.19C1894.11 1121.98 1892.42 1117.69 1892.42 1112.32V1079.95C1892.42 1076.22 1893.42 1073.06 1895.41 1070.46C1897.49 1067.86 1900.05 1066.08 1903.08 1065.13L1920.5 1059.02V1039H1930.9V1130H1910.75ZM1920.5 1122.2V1067.6L1908.93 1071.5C1906.68 1072.19 1905.07 1073.32 1904.12 1074.88C1903.25 1076.35 1902.82 1078.74 1902.82 1082.03V1112.32C1902.82 1115.44 1903.73 1117.87 1905.55 1119.6C1907.37 1121.33 1909.84 1122.2 1912.96 1122.2H1920.5ZM1960.05 1130C1955.28 1130 1951.47 1128.57 1948.61 1125.71C1945.84 1122.85 1944.45 1118.99 1944.45 1114.14V1079.56C1944.45 1073.93 1946.01 1069.51 1949.13 1066.3C1952.25 1063.09 1956.89 1061.49 1963.04 1061.49C1969.19 1061.49 1973.79 1063.09 1976.82 1066.3C1979.94 1069.51 1981.5 1073.93 1981.5 1079.56V1085.54C1981.5 1089.18 1980.46 1091.95 1978.38 1093.86C1976.3 1095.68 1973.57 1097.07 1970.19 1098.02L1954.85 1102.31V1115.05C1954.85 1117.13 1955.46 1118.86 1956.67 1120.25C1957.97 1121.55 1959.62 1122.2 1961.61 1122.2H1975.65V1130H1960.05ZM1962.78 1091.91C1965.64 1091.13 1967.55 1090.57 1968.5 1090.22C1969.54 1089.79 1970.23 1089.18 1970.58 1088.4C1970.93 1087.62 1971.1 1086.32 1971.1 1084.5V1077.35C1971.1 1074.58 1970.36 1072.54 1968.89 1071.24C1967.5 1069.94 1965.55 1069.29 1963.04 1069.29C1960.61 1069.29 1958.62 1069.98 1957.06 1071.37C1955.59 1072.76 1954.85 1074.75 1954.85 1077.35V1094.12L1962.78 1091.91ZM2024.92 1130C2020.16 1130 2016.34 1128.57 2013.48 1125.71C2010.71 1122.85 2009.32 1118.99 2009.32 1114.14V1079.56C2009.32 1073.93 2010.88 1069.51 2014 1066.3C2017.12 1063.09 2021.76 1061.49 2027.91 1061.49C2034.07 1061.49 2038.66 1063.09 2041.69 1066.3C2044.81 1069.51 2046.37 1073.93 2046.37 1079.56V1085.54C2046.37 1089.18 2045.33 1091.95 2043.25 1093.86C2041.17 1095.68 2038.44 1097.07 2035.06 1098.02L2019.72 1102.31V1115.05C2019.72 1117.13 2020.33 1118.86 2021.54 1120.25C2022.84 1121.55 2024.49 1122.2 2026.48 1122.2H2040.52V1130H2024.92ZM2027.65 1091.91C2030.51 1091.13 2032.42 1090.57 2033.37 1090.22C2034.41 1089.79 2035.11 1089.18 2035.45 1088.4C2035.8 1087.62 2035.97 1086.32 2035.97 1084.5V1077.35C2035.97 1074.58 2035.24 1072.54 2033.76 1071.24C2032.38 1069.94 2030.43 1069.29 2027.91 1069.29C2025.49 1069.29 2023.49 1069.98 2021.93 1071.37C2020.46 1072.76 2019.72 1074.75 2019.72 1077.35V1094.12L2027.65 1091.91ZM2056.73 1062.4H2064.79L2065.96 1066.17L2071.29 1064.61C2074.93 1063.48 2077.79 1062.7 2079.87 1062.27C2082.03 1061.75 2084.07 1061.49 2085.98 1061.49C2089.1 1061.49 2091.39 1062.57 2092.87 1064.74C2094.34 1066.91 2095.08 1069.72 2095.08 1073.19V1130H2084.68V1076.57C2084.68 1074.06 2084.5 1072.32 2084.16 1071.37C2083.81 1070.33 2082.94 1069.81 2081.56 1069.81C2080.86 1069.81 2076.05 1071.2 2067.13 1073.97V1130H2056.73V1062.4ZM2105.64 1122.2H2116.69C2120.41 1122.2 2123.1 1121.2 2124.75 1119.21C2126.48 1117.13 2127.35 1114.44 2127.35 1111.15C2127.35 1108.55 2126.57 1106.34 2125.01 1104.52C2123.45 1102.7 2121.11 1100.58 2117.99 1098.15C2115.3 1095.98 2113.13 1094.12 2111.49 1092.56C2109.93 1090.91 2108.54 1088.92 2107.33 1086.58C2106.2 1084.15 2105.64 1081.38 2105.64 1078.26C2105.64 1073.67 2107.15 1069.9 2110.19 1066.95C2113.31 1063.92 2117.47 1062.4 2122.67 1062.4H2133.98V1070.2H2124.62C2118.46 1070.2 2115.39 1073.1 2115.39 1078.91C2115.39 1081.16 2116.08 1083.11 2117.47 1084.76C2118.85 1086.41 2121.02 1088.36 2123.97 1090.61C2126.65 1092.69 2128.86 1094.6 2130.6 1096.33C2132.33 1097.98 2133.8 1100.1 2135.02 1102.7C2136.23 1105.21 2136.84 1108.2 2136.84 1111.67C2136.84 1117.82 2135.19 1122.42 2131.9 1125.45C2128.69 1128.48 2124.14 1130 2118.25 1130H2105.64V1122.2ZM2148.51 1051.35V1040.95H2158.91V1051.35H2148.51ZM2148.51 1130V1062.4H2158.91V1130H2148.51ZM2174.54 1062.4H2182.6L2183.77 1066.17L2189.1 1064.61C2192.74 1063.48 2195.6 1062.7 2197.68 1062.27C2199.84 1061.75 2201.88 1061.49 2203.79 1061.49C2206.91 1061.49 2209.2 1062.57 2210.68 1064.74C2212.15 1066.91 2212.89 1069.72 2212.89 1073.19V1130H2202.49V1076.57C2202.49 1074.06 2202.31 1072.32 2201.97 1071.37C2201.62 1070.33 2200.75 1069.81 2199.37 1069.81C2198.67 1069.81 2193.86 1071.2 2184.94 1073.97V1130H2174.54V1062.4ZM2243.86 1130.91C2237.79 1130.91 2233.07 1129.39 2229.69 1126.36C2226.4 1123.24 2224.75 1118.95 2224.75 1113.49V1078.91C2224.75 1073.45 2226.4 1069.2 2229.69 1066.17C2233.07 1063.05 2237.79 1061.49 2243.86 1061.49C2249.93 1061.49 2254.61 1063.05 2257.9 1066.17C2261.28 1069.2 2262.97 1073.45 2262.97 1078.91V1113.49C2262.97 1118.95 2261.28 1123.24 2257.9 1126.36C2254.61 1129.39 2249.93 1130.91 2243.86 1130.91ZM2243.86 1122.85C2246.63 1122.85 2248.8 1122.07 2250.36 1120.51C2252.01 1118.86 2252.83 1116.52 2252.83 1113.49V1078.91C2252.83 1075.88 2252.01 1073.58 2250.36 1072.02C2248.8 1070.37 2246.63 1069.55 2243.86 1069.55C2241.09 1069.55 2238.88 1070.37 2237.23 1072.02C2235.67 1073.58 2234.89 1075.88 2234.89 1078.91V1113.49C2234.89 1116.52 2235.67 1118.86 2237.23 1120.51C2238.88 1122.07 2241.09 1122.85 2243.86 1122.85Z" fill="white"/>
<path d="M1403 1182V564H872.299V1000.5H1221.5V738.599H1046.9V825.898H1134.2V913.197H959.599V651.299H1308.8V1087.8H785V1182H1403Z" fill="white"/>
</svg>
