<svg width="3815" height="1813" viewBox="0 0 3815 1813" fill="none" xmlns="http://www.w3.org/2000/svg">
<path d="M1008 536C1008.8 539.2 1009.2 543.2 1009.2 548C1009.2 552.6 1008.8 556.6 1008 560H948C947.2 556.6 946.8 552.6 946.8 548C946.8 543.2 947.2 539.2 948 536H966C965.2 532.6 964.8 528.6 964.8 524C964.8 519.2 965.2 515.2 966 512C965.2 508.6 964.8 504.6 964.8 500C964.8 495.2 965.2 491.2 966 488C965.2 484.6 964.8 480.6 964.8 476C964.8 471.2 965.2 467.2 966 464C965.2 460.6 964.8 456.6 964.8 452C964.8 447.2 965.2 443.2 966 440C965.2 436.6 964.8 432.6 964.8 428C964.8 423.2 965.2 419.2 966 416H948C947.2 412.6 946.8 408.6 946.8 404C946.8 399.2 947.2 395.2 948 392H1008C1008.8 395.2 1009.2 399.2 1009.2 404C1009.2 408.6 1008.8 412.6 1008 416H990C990.8 419.2 991.2 423.2 991.2 428C991.2 432.6 990.8 436.6 990 440C990.8 443.2 991.2 447.2 991.2 452C991.2 456.6 990.8 460.6 990 464C990.8 467.2 991.2 471.2 991.2 476C991.2 480.6 990.8 484.6 990 488C990.8 491.2 991.2 495.2 991.2 500C991.2 504.6 990.8 508.6 990 512C990.8 515.2 991.2 519.2 991.2 524C991.2 528.6 990.8 532.6 990 536H1008ZM1146.12 416C1146.92 419.2 1147.32 423.2 1147.32 428C1147.32 432.6 1146.92 436.6 1146.12 440C1146.92 443.2 1147.32 447.2 1147.32 452C1147.32 456.6 1146.92 460.6 1146.12 464C1146.92 467.2 1147.32 471.2 1147.32 476C1147.32 480.6 1146.92 484.6 1146.12 488C1146.92 491.2 1147.32 495.2 1147.32 500C1147.32 504.6 1146.92 508.6 1146.12 512C1146.92 515.2 1147.32 519.2 1147.32 524C1147.32 528.6 1146.92 532.6 1146.12 536C1146.92 539.2 1147.32 543.2 1147.32 548C1147.32 552.6 1146.92 556.6 1146.12 560H1122.12C1121.32 556.6 1120.92 552.6 1120.92 548C1120.92 543.2 1121.32 539.2 1122.12 536H1107.12C1106.32 532.6 1105.92 528.6 1105.92 524C1105.92 519.2 1106.32 515.2 1107.12 512H1098.12C1097.32 508.6 1096.92 504.6 1096.92 500C1096.92 495.2 1097.32 491.2 1098.12 488H1086.12C1085.32 484.6 1084.92 480.6 1084.92 476C1084.92 471.2 1085.32 467.2 1086.12 464H1074.12C1074.92 467.2 1075.32 471.2 1075.32 476C1075.32 480.6 1074.92 484.6 1074.12 488C1074.92 491.2 1075.32 495.2 1075.32 500C1075.32 504.6 1074.92 508.6 1074.12 512C1074.92 515.2 1075.32 519.2 1075.32 524C1075.32 528.6 1074.92 532.6 1074.12 536C1074.92 539.2 1075.32 543.2 1075.32 548C1075.32 552.6 1074.92 556.6 1074.12 560H1050.12C1049.32 556.6 1048.92 552.6 1048.92 548C1048.92 543.2 1049.32 539.2 1050.12 536C1049.32 532.6 1048.92 528.6 1048.92 524C1048.92 519.2 1049.32 515.2 1050.12 512C1049.32 508.6 1048.92 504.6 1048.92 500C1048.92 495.2 1049.32 491.2 1050.12 488C1049.32 484.6 1048.92 480.6 1048.92 476C1048.92 471.2 1049.32 467.2 1050.12 464C1049.32 460.6 1048.92 456.6 1048.92 452C1048.92 447.2 1049.32 443.2 1050.12 440C1049.32 436.6 1048.92 432.6 1048.92 428C1048.92 423.2 1049.32 419.2 1050.12 416C1049.32 412.6 1048.92 408.6 1048.92 404C1048.92 399.2 1049.32 395.2 1050.12 392H1080.12C1080.92 395.2 1081.32 399.2 1081.32 404C1081.32 408.6 1080.92 412.6 1080.12 416H1089.12C1089.92 419.2 1090.32 423.2 1090.32 428C1090.32 432.6 1089.92 436.6 1089.12 440H1098.12C1098.92 443.2 1099.32 447.2 1099.32 452C1099.32 456.6 1098.92 460.6 1098.12 464H1110.12C1110.92 467.2 1111.32 471.2 1111.32 476C1111.32 480.6 1110.92 484.6 1110.12 488H1122.12C1121.32 484.6 1120.92 480.6 1120.92 476C1120.92 471.2 1121.32 467.2 1122.12 464C1121.32 460.6 1120.92 456.6 1120.92 452C1120.92 447.2 1121.32 443.2 1122.12 440C1121.32 436.6 1120.92 432.6 1120.92 428C1120.92 423.2 1121.32 419.2 1122.12 416C1121.32 412.6 1120.92 408.6 1120.92 404C1120.92 399.2 1121.32 395.2 1122.12 392H1146.12C1146.92 395.2 1147.32 399.2 1147.32 404C1147.32 408.6 1146.92 412.6 1146.12 416ZM1254.23 464C1255.03 467.2 1255.43 471.2 1255.43 476C1255.43 480.6 1255.03 484.6 1254.23 488H1206.23C1207.03 491.2 1207.43 495.2 1207.43 500C1207.43 504.6 1207.03 508.6 1206.23 512C1207.03 515.2 1207.43 519.2 1207.43 524C1207.43 528.6 1207.03 532.6 1206.23 536C1207.03 539.2 1207.43 543.2 1207.43 548C1207.43 552.6 1207.03 556.6 1206.23 560H1182.23C1181.43 556.6 1181.03 552.6 1181.03 548C1181.03 543.2 1181.43 539.2 1182.23 536C1181.43 532.6 1181.03 528.6 1181.03 524C1181.03 519.2 1181.43 515.2 1182.23 512C1181.43 508.6 1181.03 504.6 1181.03 500C1181.03 495.2 1181.43 491.2 1182.23 488C1181.43 484.6 1181.03 480.6 1181.03 476C1181.03 471.2 1181.43 467.2 1182.23 464C1181.43 460.6 1181.03 456.6 1181.03 452C1181.03 447.2 1181.43 443.2 1182.23 440C1181.43 436.6 1181.03 432.6 1181.03 428C1181.03 423.2 1181.43 419.2 1182.23 416C1181.43 412.6 1181.03 408.6 1181.03 404C1181.03 399.2 1181.43 395.2 1182.23 392H1254.23C1255.03 395.2 1255.43 399.2 1255.43 404C1255.43 408.6 1255.03 412.6 1254.23 416H1206.23C1207.03 419.2 1207.43 423.2 1207.43 428C1207.43 432.6 1207.03 436.6 1206.23 440C1207.03 443.2 1207.43 447.2 1207.43 452C1207.43 456.6 1207.03 460.6 1206.23 464H1254.23ZM1386.35 464C1387.15 467.2 1387.55 471.2 1387.55 476C1387.55 480.6 1387.15 484.6 1386.35 488C1387.15 491.2 1387.55 495.2 1387.55 500C1387.55 504.6 1387.15 508.6 1386.35 512H1377.35C1378.15 515.2 1378.55 519.2 1378.55 524C1378.55 528.6 1378.15 532.6 1377.35 536H1362.35C1363.15 539.2 1363.55 543.2 1363.55 548C1363.55 552.6 1363.15 556.6 1362.35 560H1314.35C1313.55 556.6 1313.15 552.6 1313.15 548C1313.15 543.2 1313.55 539.2 1314.35 536H1299.35C1298.55 532.6 1298.15 528.6 1298.15 524C1298.15 519.2 1298.55 515.2 1299.35 512H1290.35C1289.55 508.6 1289.15 504.6 1289.15 500C1289.15 495.2 1289.55 491.2 1290.35 488C1289.55 484.6 1289.15 480.6 1289.15 476C1289.15 471.2 1289.55 467.2 1290.35 464C1289.55 460.6 1289.15 456.6 1289.15 452C1289.15 447.2 1289.55 443.2 1290.35 440H1299.35C1298.55 436.6 1298.15 432.6 1298.15 428C1298.15 423.2 1298.55 419.2 1299.35 416H1314.35C1313.55 412.6 1313.15 408.6 1313.15 404C1313.15 399.2 1313.55 395.2 1314.35 392H1362.35C1363.15 395.2 1363.55 399.2 1363.55 404C1363.55 408.6 1363.15 412.6 1362.35 416H1377.35C1378.15 419.2 1378.55 423.2 1378.55 428C1378.55 432.6 1378.15 436.6 1377.35 440H1386.35C1387.15 443.2 1387.55 447.2 1387.55 452C1387.55 456.6 1387.15 460.6 1386.35 464ZM1362.35 512C1361.55 508.6 1361.15 504.6 1361.15 500C1361.15 495.2 1361.55 491.2 1362.35 488C1361.55 484.6 1361.15 480.6 1361.15 476C1361.15 471.2 1361.55 467.2 1362.35 464C1361.55 460.6 1361.15 456.6 1361.15 452C1361.15 447.2 1361.55 443.2 1362.35 440H1353.35C1352.55 436.6 1352.15 432.6 1352.15 428C1352.15 423.2 1352.55 419.2 1353.35 416H1323.35C1324.15 419.2 1324.55 423.2 1324.55 428C1324.55 432.6 1324.15 436.6 1323.35 440H1314.35C1315.15 443.2 1315.55 447.2 1315.55 452C1315.55 456.6 1315.15 460.6 1314.35 464C1315.15 467.2 1315.55 471.2 1315.55 476C1315.55 480.6 1315.15 484.6 1314.35 488C1315.15 491.2 1315.55 495.2 1315.55 500C1315.55 504.6 1315.15 508.6 1314.35 512H1323.35C1324.15 515.2 1324.55 519.2 1324.55 524C1324.55 528.6 1324.15 532.6 1323.35 536H1353.35C1352.55 532.6 1352.15 528.6 1352.15 524C1352.15 519.2 1352.55 515.2 1353.35 512H1362.35ZM1506.47 512C1507.27 515.2 1507.67 519.2 1507.67 524C1507.67 528.6 1507.27 532.6 1506.47 536H1494.47C1495.27 539.2 1495.67 543.2 1495.67 548C1495.67 552.6 1495.27 556.6 1494.47 560H1434.47C1433.67 556.6 1433.27 552.6 1433.27 548C1433.27 543.2 1433.67 539.2 1434.47 536H1422.47C1421.67 532.6 1421.27 528.6 1421.27 524C1421.27 519.2 1421.67 515.2 1422.47 512H1410.47C1409.67 508.6 1409.27 504.6 1409.27 500C1409.27 495.2 1409.67 491.2 1410.47 488C1409.67 484.6 1409.27 480.6 1409.27 476C1409.27 471.2 1409.67 467.2 1410.47 464C1409.67 460.6 1409.27 456.6 1409.27 452C1409.27 447.2 1409.67 443.2 1410.47 440H1422.47C1421.67 436.6 1421.27 432.6 1421.27 428C1421.27 423.2 1421.67 419.2 1422.47 416H1434.47C1433.67 412.6 1433.27 408.6 1433.27 404C1433.27 399.2 1433.67 395.2 1434.47 392H1494.47C1495.27 395.2 1495.67 399.2 1495.67 404C1495.67 408.6 1495.27 412.6 1494.47 416H1506.47C1507.27 419.2 1507.67 423.2 1507.67 428C1507.67 432.6 1507.27 436.6 1506.47 440H1482.47C1481.67 436.6 1481.27 432.6 1481.27 428C1481.27 423.2 1481.67 419.2 1482.47 416H1446.47C1447.27 419.2 1447.67 423.2 1447.67 428C1447.67 432.6 1447.27 436.6 1446.47 440H1434.47C1435.27 443.2 1435.67 447.2 1435.67 452C1435.67 456.6 1435.27 460.6 1434.47 464C1435.27 467.2 1435.67 471.2 1435.67 476C1435.67 480.6 1435.27 484.6 1434.47 488C1435.27 491.2 1435.67 495.2 1435.67 500C1435.67 504.6 1435.27 508.6 1434.47 512H1446.47C1447.27 515.2 1447.67 519.2 1447.67 524C1447.67 528.6 1447.27 532.6 1446.47 536H1482.47C1481.67 532.6 1481.27 528.6 1481.27 524C1481.27 519.2 1481.67 515.2 1482.47 512H1506.47ZM1626.59 464C1627.39 467.2 1627.79 471.2 1627.79 476C1627.79 480.6 1627.39 484.6 1626.59 488C1627.39 491.2 1627.79 495.2 1627.79 500C1627.79 504.6 1627.39 508.6 1626.59 512H1617.59C1618.39 515.2 1618.79 519.2 1618.79 524C1618.79 528.6 1618.39 532.6 1617.59 536H1602.59C1603.39 539.2 1603.79 543.2 1603.79 548C1603.79 552.6 1603.39 556.6 1602.59 560H1554.59C1553.79 556.6 1553.39 552.6 1553.39 548C1553.39 543.2 1553.79 539.2 1554.59 536H1539.59C1538.79 532.6 1538.39 528.6 1538.39 524C1538.39 519.2 1538.79 515.2 1539.59 512H1530.59C1529.79 508.6 1529.39 504.6 1529.39 500C1529.39 495.2 1529.79 491.2 1530.59 488C1529.79 484.6 1529.39 480.6 1529.39 476C1529.39 471.2 1529.79 467.2 1530.59 464C1529.79 460.6 1529.39 456.6 1529.39 452C1529.39 447.2 1529.79 443.2 1530.59 440H1539.59C1538.79 436.6 1538.39 432.6 1538.39 428C1538.39 423.2 1538.79 419.2 1539.59 416H1554.59C1553.79 412.6 1553.39 408.6 1553.39 404C1553.39 399.2 1553.79 395.2 1554.59 392H1602.59C1603.39 395.2 1603.79 399.2 1603.79 404C1603.79 408.6 1603.39 412.6 1602.59 416H1617.59C1618.39 419.2 1618.79 423.2 1618.79 428C1618.79 432.6 1618.39 436.6 1617.59 440H1626.59C1627.39 443.2 1627.79 447.2 1627.79 452C1627.79 456.6 1627.39 460.6 1626.59 464ZM1602.59 512C1601.79 508.6 1601.39 504.6 1601.39 500C1601.39 495.2 1601.79 491.2 1602.59 488C1601.79 484.6 1601.39 480.6 1601.39 476C1601.39 471.2 1601.79 467.2 1602.59 464C1601.79 460.6 1601.39 456.6 1601.39 452C1601.39 447.2 1601.79 443.2 1602.59 440H1593.59C1592.79 436.6 1592.39 432.6 1592.39 428C1592.39 423.2 1592.79 419.2 1593.59 416H1563.59C1564.39 419.2 1564.79 423.2 1564.79 428C1564.79 432.6 1564.39 436.6 1563.59 440H1554.59C1555.39 443.2 1555.79 447.2 1555.79 452C1555.79 456.6 1555.39 460.6 1554.59 464C1555.39 467.2 1555.79 471.2 1555.79 476C1555.79 480.6 1555.39 484.6 1554.59 488C1555.39 491.2 1555.79 495.2 1555.79 500C1555.79 504.6 1555.39 508.6 1554.59 512H1563.59C1564.39 515.2 1564.79 519.2 1564.79 524C1564.79 528.6 1564.39 532.6 1563.59 536H1593.59C1592.79 532.6 1592.39 528.6 1592.39 524C1592.39 519.2 1592.79 515.2 1593.59 512H1602.59ZM1746.7 416C1747.5 419.2 1747.9 423.2 1747.9 428C1747.9 432.6 1747.5 436.6 1746.7 440C1747.5 443.2 1747.9 447.2 1747.9 452C1747.9 456.6 1747.5 460.6 1746.7 464C1747.5 467.2 1747.9 471.2 1747.9 476C1747.9 480.6 1747.5 484.6 1746.7 488C1747.5 491.2 1747.9 495.2 1747.9 500C1747.9 504.6 1747.5 508.6 1746.7 512C1747.5 515.2 1747.9 519.2 1747.9 524C1747.9 528.6 1747.5 532.6 1746.7 536C1747.5 539.2 1747.9 543.2 1747.9 548C1747.9 552.6 1747.5 556.6 1746.7 560H1722.7C1721.9 556.6 1721.5 552.6 1721.5 548C1721.5 543.2 1721.9 539.2 1722.7 536C1721.9 532.6 1721.5 528.6 1721.5 524C1721.5 519.2 1721.9 515.2 1722.7 512C1721.9 508.6 1721.5 504.6 1721.5 500C1721.5 495.2 1721.9 491.2 1722.7 488C1721.9 484.6 1721.5 480.6 1721.5 476C1721.5 471.2 1721.9 467.2 1722.7 464C1721.9 460.6 1721.5 456.6 1721.5 452C1721.5 447.2 1721.9 443.2 1722.7 440H1713.7C1714.5 443.2 1714.9 447.2 1714.9 452C1714.9 456.6 1714.5 460.6 1713.7 464C1714.5 467.2 1714.9 471.2 1714.9 476C1714.9 480.6 1714.5 484.6 1713.7 488H1707.7C1708.5 491.2 1708.9 495.2 1708.9 500C1708.9 504.6 1708.5 508.6 1707.7 512C1708.5 515.2 1708.9 519.2 1708.9 524C1708.9 528.6 1708.5 532.6 1707.7 536H1689.7C1688.9 532.6 1688.5 528.6 1688.5 524C1688.5 519.2 1688.9 515.2 1689.7 512C1688.9 508.6 1688.5 504.6 1688.5 500C1688.5 495.2 1688.9 491.2 1689.7 488H1683.7C1682.9 484.6 1682.5 480.6 1682.5 476C1682.5 471.2 1682.9 467.2 1683.7 464C1682.9 460.6 1682.5 456.6 1682.5 452C1682.5 447.2 1682.9 443.2 1683.7 440H1674.7C1675.5 443.2 1675.9 447.2 1675.9 452C1675.9 456.6 1675.5 460.6 1674.7 464C1675.5 467.2 1675.9 471.2 1675.9 476C1675.9 480.6 1675.5 484.6 1674.7 488C1675.5 491.2 1675.9 495.2 1675.9 500C1675.9 504.6 1675.5 508.6 1674.7 512C1675.5 515.2 1675.9 519.2 1675.9 524C1675.9 528.6 1675.5 532.6 1674.7 536C1675.5 539.2 1675.9 543.2 1675.9 548C1675.9 552.6 1675.5 556.6 1674.7 560H1650.7C1649.9 556.6 1649.5 552.6 1649.5 548C1649.5 543.2 1649.9 539.2 1650.7 536C1649.9 532.6 1649.5 528.6 1649.5 524C1649.5 519.2 1649.9 515.2 1650.7 512C1649.9 508.6 1649.5 504.6 1649.5 500C1649.5 495.2 1649.9 491.2 1650.7 488C1649.9 484.6 1649.5 480.6 1649.5 476C1649.5 471.2 1649.9 467.2 1650.7 464C1649.9 460.6 1649.5 456.6 1649.5 452C1649.5 447.2 1649.9 443.2 1650.7 440C1649.9 436.6 1649.5 432.6 1649.5 428C1649.5 423.2 1649.9 419.2 1650.7 416C1649.9 412.6 1649.5 408.6 1649.5 404C1649.5 399.2 1649.9 395.2 1650.7 392H1680.7C1681.5 395.2 1681.9 399.2 1681.9 404C1681.9 408.6 1681.5 412.6 1680.7 416H1689.7C1690.5 419.2 1690.9 423.2 1690.9 428C1690.9 432.6 1690.5 436.6 1689.7 440H1694.2C1695 443.2 1695.4 447.2 1695.4 452C1695.4 456.6 1695 460.6 1694.2 464H1703.2C1702.4 460.6 1702 456.6 1702 452C1702 447.2 1702.4 443.2 1703.2 440H1707.7C1706.9 436.6 1706.5 432.6 1706.5 428C1706.5 423.2 1706.9 419.2 1707.7 416H1716.7C1715.9 412.6 1715.5 408.6 1715.5 404C1715.5 399.2 1715.9 395.2 1716.7 392H1746.7C1747.5 395.2 1747.9 399.2 1747.9 404C1747.9 408.6 1747.5 412.6 1746.7 416ZM1988.14 476C1988.14 480.6 1987.74 484.6 1986.94 488C1987.74 491.2 1988.14 495.2 1988.14 500C1988.14 504.6 1987.74 508.6 1986.94 512H1923.94C1924.74 515.2 1925.14 519.2 1925.14 524C1925.14 528.6 1924.74 532.6 1923.94 536H1974.94C1975.74 539.2 1976.14 543.2 1976.14 548C1976.14 552.6 1975.74 556.6 1974.94 560H1914.94C1914.14 556.6 1913.74 552.6 1913.74 548C1913.74 543.2 1914.14 539.2 1914.94 536H1899.94C1899.14 532.6 1898.74 528.6 1898.74 524C1898.74 519.2 1899.14 515.2 1899.94 512H1890.94C1890.14 508.6 1889.74 504.6 1889.74 500C1889.74 495.2 1890.14 491.2 1890.94 488H1899.94C1899.14 484.6 1898.74 480.6 1898.74 476C1898.74 471.2 1899.14 467.2 1899.94 464H1914.94C1914.14 460.6 1913.74 456.6 1913.74 452C1913.74 447.2 1914.14 443.2 1914.94 440H1974.94C1975.74 443.2 1976.14 447.2 1976.14 452C1976.14 456.6 1975.74 460.6 1974.94 464H1986.94C1987.74 467.2 1988.14 471.2 1988.14 476ZM1962.94 488C1962.14 484.6 1961.74 480.6 1961.74 476C1961.74 471.2 1962.14 467.2 1962.94 464H1923.94C1924.74 467.2 1925.14 471.2 1925.14 476C1925.14 480.6 1924.74 484.6 1923.94 488H1962.94ZM2227.17 536C2227.97 539.2 2228.37 543.2 2228.37 548C2228.37 552.6 2227.97 556.6 2227.17 560H2203.17C2202.37 556.6 2201.97 552.6 2201.97 548C2201.97 543.2 2202.37 539.2 2203.17 536H2191.17C2190.37 532.6 2189.97 528.6 2189.97 524C2189.97 519.2 2190.37 515.2 2191.17 512H2155.17C2155.97 515.2 2156.37 519.2 2156.37 524C2156.37 528.6 2155.97 532.6 2155.17 536H2191.17C2191.97 539.2 2192.37 543.2 2192.37 548C2192.37 552.6 2191.97 556.6 2191.17 560H2143.17C2142.37 556.6 2141.97 552.6 2141.97 548C2141.97 543.2 2142.37 539.2 2143.17 536H2131.17C2130.37 532.6 2129.97 528.6 2129.97 524C2129.97 519.2 2130.37 515.2 2131.17 512H2143.17C2142.37 508.6 2141.97 504.6 2141.97 500C2141.97 495.2 2142.37 491.2 2143.17 488H2191.17C2190.37 484.6 2189.97 480.6 2189.97 476C2189.97 471.2 2190.37 467.2 2191.17 464H2149.17C2148.37 460.6 2147.97 456.6 2147.97 452C2147.97 447.2 2148.37 443.2 2149.17 440H2203.17C2203.97 443.2 2204.37 447.2 2204.37 452C2204.37 456.6 2203.97 460.6 2203.17 464H2215.17C2215.97 467.2 2216.37 471.2 2216.37 476C2216.37 480.6 2215.97 484.6 2215.17 488C2215.97 491.2 2216.37 495.2 2216.37 500C2216.37 504.6 2215.97 508.6 2215.17 512C2215.97 515.2 2216.37 519.2 2216.37 524C2216.37 528.6 2215.97 532.6 2215.17 536H2227.17ZM2342.49 524C2342.49 528.6 2342.09 532.6 2341.29 536H2329.29C2330.09 539.2 2330.49 543.2 2330.49 548C2330.49 552.6 2330.09 556.6 2329.29 560H2263.29C2262.49 556.6 2262.09 552.6 2262.09 548C2262.09 543.2 2262.49 539.2 2263.29 536H2317.29C2316.49 532.6 2316.09 528.6 2316.09 524C2316.09 519.2 2316.49 515.2 2317.29 512H2269.29C2268.49 508.6 2268.09 504.6 2268.09 500C2268.09 495.2 2268.49 491.2 2269.29 488H2257.29C2256.49 484.6 2256.09 480.6 2256.09 476C2256.09 471.2 2256.49 467.2 2257.29 464H2269.29C2268.49 460.6 2268.09 456.6 2268.09 452C2268.09 447.2 2268.49 443.2 2269.29 440H2335.29C2336.09 443.2 2336.49 447.2 2336.49 452C2336.49 456.6 2336.09 460.6 2335.29 464H2281.29C2282.09 467.2 2282.49 471.2 2282.49 476C2282.49 480.6 2282.09 484.6 2281.29 488H2329.29C2330.09 491.2 2330.49 495.2 2330.49 500C2330.49 504.6 2330.09 508.6 2329.29 512H2341.29C2342.09 515.2 2342.49 519.2 2342.49 524ZM952.2 672C952.2 676.6 951.8 680.6 951 684H963C963.8 687.2 964.2 691.2 964.2 696C964.2 700.6 963.8 704.6 963 708H954C954.8 711.2 955.2 715.2 955.2 720C955.2 724.6 954.8 728.6 954 732C954.8 735.2 955.2 739.2 955.2 744C955.2 748.6 954.8 752.6 954 756C954.8 759.2 955.2 763.2 955.2 768C955.2 772.6 954.8 776.6 954 780H930C929.2 776.6 928.8 772.6 928.8 768C928.8 763.2 929.2 759.2 930 756C929.2 752.6 928.8 748.6 928.8 744C928.8 739.2 929.2 735.2 930 732C929.2 728.6 928.8 724.6 928.8 720C928.8 715.2 929.2 711.2 930 708C929.2 704.6 928.8 700.6 928.8 696C928.8 691.2 929.2 687.2 930 684C929.2 680.6 928.8 676.6 928.8 672C928.8 667.2 929.2 663.2 930 660H951C951.8 663.2 952.2 667.2 952.2 672ZM1026 708C1026.8 711.2 1027.2 715.2 1027.2 720C1027.2 724.6 1026.8 728.6 1026 732C1026.8 735.2 1027.2 739.2 1027.2 744C1027.2 748.6 1026.8 752.6 1026 756C1026.8 759.2 1027.2 763.2 1027.2 768C1027.2 772.6 1026.8 776.6 1026 780H1002C1001.2 776.6 1000.8 772.6 1000.8 768C1000.8 763.2 1001.2 759.2 1002 756C1001.2 752.6 1000.8 748.6 1000.8 744C1000.8 739.2 1001.2 735.2 1002 732C1001.2 728.6 1000.8 724.6 1000.8 720C1000.8 715.2 1001.2 711.2 1002 708C1001.2 704.6 1000.8 700.6 1000.8 696C1000.8 691.2 1001.2 687.2 1002 684H963C962.2 680.6 961.8 676.6 961.8 672C961.8 667.2 962.2 663.2 963 660H1011C1011.8 663.2 1012.2 667.2 1012.2 672C1012.2 676.6 1011.8 680.6 1011 684H1026C1026.8 687.2 1027.2 691.2 1027.2 696C1027.2 700.6 1026.8 704.6 1026 708ZM1146.12 756C1146.92 759.2 1147.32 763.2 1147.32 768C1147.32 772.6 1146.92 776.6 1146.12 780H1122.12C1121.32 776.6 1120.92 772.6 1120.92 768C1120.92 763.2 1121.32 759.2 1122.12 756H1110.12C1109.32 752.6 1108.92 748.6 1108.92 744C1108.92 739.2 1109.32 735.2 1110.12 732H1074.12C1074.92 735.2 1075.32 739.2 1075.32 744C1075.32 748.6 1074.92 752.6 1074.12 756H1110.12C1110.92 759.2 1111.32 763.2 1111.32 768C1111.32 772.6 1110.92 776.6 1110.12 780H1062.12C1061.32 776.6 1060.92 772.6 1060.92 768C1060.92 763.2 1061.32 759.2 1062.12 756H1050.12C1049.32 752.6 1048.92 748.6 1048.92 744C1048.92 739.2 1049.32 735.2 1050.12 732H1062.12C1061.32 728.6 1060.92 724.6 1060.92 720C1060.92 715.2 1061.32 711.2 1062.12 708H1110.12C1109.32 704.6 1108.92 700.6 1108.92 696C1108.92 691.2 1109.32 687.2 1110.12 684H1068.12C1067.32 680.6 1066.92 676.6 1066.92 672C1066.92 667.2 1067.32 663.2 1068.12 660H1122.12C1122.92 663.2 1123.32 667.2 1123.32 672C1123.32 676.6 1122.92 680.6 1122.12 684H1134.12C1134.92 687.2 1135.32 691.2 1135.32 696C1135.32 700.6 1134.92 704.6 1134.12 708C1134.92 711.2 1135.32 715.2 1135.32 720C1135.32 724.6 1134.92 728.6 1134.12 732C1134.92 735.2 1135.32 739.2 1135.32 744C1135.32 748.6 1134.92 752.6 1134.12 756H1146.12ZM1266.23 684C1267.03 687.2 1267.43 691.2 1267.43 696C1267.43 700.6 1267.03 704.6 1266.23 708H1242.23C1241.43 704.6 1241.03 700.6 1241.03 696C1241.03 691.2 1241.43 687.2 1242.23 684H1221.23C1222.03 687.2 1222.43 691.2 1222.43 696C1222.43 700.6 1222.03 704.6 1221.23 708H1212.23C1213.03 711.2 1213.43 715.2 1213.43 720C1213.43 724.6 1213.03 728.6 1212.23 732C1213.03 735.2 1213.43 739.2 1213.43 744C1213.43 748.6 1213.03 752.6 1212.23 756H1230.23C1231.03 759.2 1231.43 763.2 1231.43 768C1231.43 772.6 1231.03 776.6 1230.23 780H1170.23C1169.43 776.6 1169.03 772.6 1169.03 768C1169.03 763.2 1169.43 759.2 1170.23 756H1188.23C1187.43 752.6 1187.03 748.6 1187.03 744C1187.03 739.2 1187.43 735.2 1188.23 732C1187.43 728.6 1187.03 724.6 1187.03 720C1187.03 715.2 1187.43 711.2 1188.23 708C1187.43 704.6 1187.03 700.6 1187.03 696C1187.03 691.2 1187.43 687.2 1188.23 684H1170.23C1169.43 680.6 1169.03 676.6 1169.03 672C1169.03 667.2 1169.43 663.2 1170.23 660H1200.23C1201.03 663.2 1201.43 667.2 1201.43 672C1201.43 676.6 1201.03 680.6 1200.23 684H1212.23C1211.43 680.6 1211.03 676.6 1211.03 672C1211.03 667.2 1211.43 663.2 1212.23 660H1257.23C1258.03 663.2 1258.43 667.2 1258.43 672C1258.43 676.6 1258.03 680.6 1257.23 684H1266.23ZM1386.35 684C1387.15 687.2 1387.55 691.2 1387.55 696C1387.55 700.6 1387.15 704.6 1386.35 708H1362.35C1361.55 704.6 1361.15 700.6 1361.15 696C1361.15 691.2 1361.55 687.2 1362.35 684H1341.35C1342.15 687.2 1342.55 691.2 1342.55 696C1342.55 700.6 1342.15 704.6 1341.35 708H1332.35C1333.15 711.2 1333.55 715.2 1333.55 720C1333.55 724.6 1333.15 728.6 1332.35 732C1333.15 735.2 1333.55 739.2 1333.55 744C1333.55 748.6 1333.15 752.6 1332.35 756H1350.35C1351.15 759.2 1351.55 763.2 1351.55 768C1351.55 772.6 1351.15 776.6 1350.35 780H1290.35C1289.55 776.6 1289.15 772.6 1289.15 768C1289.15 763.2 1289.55 759.2 1290.35 756H1308.35C1307.55 752.6 1307.15 748.6 1307.15 744C1307.15 739.2 1307.55 735.2 1308.35 732C1307.55 728.6 1307.15 724.6 1307.15 720C1307.15 715.2 1307.55 711.2 1308.35 708C1307.55 704.6 1307.15 700.6 1307.15 696C1307.15 691.2 1307.55 687.2 1308.35 684H1290.35C1289.55 680.6 1289.15 676.6 1289.15 672C1289.15 667.2 1289.55 663.2 1290.35 660H1320.35C1321.15 663.2 1321.55 667.2 1321.55 672C1321.55 676.6 1321.15 680.6 1320.35 684H1332.35C1331.55 680.6 1331.15 676.6 1331.15 672C1331.15 667.2 1331.55 663.2 1332.35 660H1377.35C1378.15 663.2 1378.55 667.2 1378.55 672C1378.55 676.6 1378.15 680.6 1377.35 684H1386.35ZM1506.47 756C1507.27 759.2 1507.67 763.2 1507.67 768C1507.67 772.6 1507.27 776.6 1506.47 780H1482.47C1481.67 776.6 1481.27 772.6 1481.27 768C1481.27 763.2 1481.67 759.2 1482.47 756H1470.47C1469.67 752.6 1469.27 748.6 1469.27 744C1469.27 739.2 1469.67 735.2 1470.47 732H1434.47C1435.27 735.2 1435.67 739.2 1435.67 744C1435.67 748.6 1435.27 752.6 1434.47 756H1470.47C1471.27 759.2 1471.67 763.2 1471.67 768C1471.67 772.6 1471.27 776.6 1470.47 780H1422.47C1421.67 776.6 1421.27 772.6 1421.27 768C1421.27 763.2 1421.67 759.2 1422.47 756H1410.47C1409.67 752.6 1409.27 748.6 1409.27 744C1409.27 739.2 1409.67 735.2 1410.47 732H1422.47C1421.67 728.6 1421.27 724.6 1421.27 720C1421.27 715.2 1421.67 711.2 1422.47 708H1470.47C1469.67 704.6 1469.27 700.6 1469.27 696C1469.27 691.2 1469.67 687.2 1470.47 684H1428.47C1427.67 680.6 1427.27 676.6 1427.27 672C1427.27 667.2 1427.67 663.2 1428.47 660H1482.47C1483.27 663.2 1483.67 667.2 1483.67 672C1483.67 676.6 1483.27 680.6 1482.47 684H1494.47C1495.27 687.2 1495.67 691.2 1495.67 696C1495.67 700.6 1495.27 704.6 1494.47 708C1495.27 711.2 1495.67 715.2 1495.67 720C1495.67 724.6 1495.27 728.6 1494.47 732C1495.27 735.2 1495.67 739.2 1495.67 744C1495.67 748.6 1495.27 752.6 1494.47 756H1506.47ZM1614.59 756C1615.39 759.2 1615.79 763.2 1615.79 768C1615.79 772.6 1615.39 776.6 1614.59 780H1566.59C1565.79 776.6 1565.39 772.6 1565.39 768C1565.39 763.2 1565.79 759.2 1566.59 756H1554.59C1553.79 752.6 1553.39 748.6 1553.39 744C1553.39 739.2 1553.79 735.2 1554.59 732C1553.79 728.6 1553.39 724.6 1553.39 720C1553.39 715.2 1553.79 711.2 1554.59 708C1553.79 704.6 1553.39 700.6 1553.39 696C1553.39 691.2 1553.79 687.2 1554.59 684H1530.59C1529.79 680.6 1529.39 676.6 1529.39 672C1529.39 667.2 1529.79 663.2 1530.59 660H1554.59C1553.79 656.6 1553.39 652.6 1553.39 648C1553.39 643.2 1553.79 639.2 1554.59 636C1553.79 632.6 1553.39 628.6 1553.39 624C1553.39 619.2 1553.79 615.2 1554.59 612H1578.59C1579.39 615.2 1579.79 619.2 1579.79 624C1579.79 628.6 1579.39 632.6 1578.59 636C1579.39 639.2 1579.79 643.2 1579.79 648C1579.79 652.6 1579.39 656.6 1578.59 660H1614.59C1615.39 663.2 1615.79 667.2 1615.79 672C1615.79 676.6 1615.39 680.6 1614.59 684H1578.59C1579.39 687.2 1579.79 691.2 1579.79 696C1579.79 700.6 1579.39 704.6 1578.59 708C1579.39 711.2 1579.79 715.2 1579.79 720C1579.79 724.6 1579.39 728.6 1578.59 732C1579.39 735.2 1579.79 739.2 1579.79 744C1579.79 748.6 1579.39 752.6 1578.59 756H1614.59ZM1686.7 636C1685.9 632.6 1685.5 628.6 1685.5 624C1685.5 619.2 1685.9 615.2 1686.7 612H1710.7C1711.5 615.2 1711.9 619.2 1711.9 624C1711.9 628.6 1711.5 632.6 1710.7 636H1686.7ZM1734.7 756C1735.5 759.2 1735.9 763.2 1735.9 768C1735.9 772.6 1735.5 776.6 1734.7 780H1662.7C1661.9 776.6 1661.5 772.6 1661.5 768C1661.5 763.2 1661.9 759.2 1662.7 756H1686.7C1685.9 752.6 1685.5 748.6 1685.5 744C1685.5 739.2 1685.9 735.2 1686.7 732C1685.9 728.6 1685.5 724.6 1685.5 720C1685.5 715.2 1685.9 711.2 1686.7 708C1685.9 704.6 1685.5 700.6 1685.5 696C1685.5 691.2 1685.9 687.2 1686.7 684H1668.7C1667.9 680.6 1667.5 676.6 1667.5 672C1667.5 667.2 1667.9 663.2 1668.7 660H1710.7C1711.5 663.2 1711.9 667.2 1711.9 672C1711.9 676.6 1711.5 680.6 1710.7 684C1711.5 687.2 1711.9 691.2 1711.9 696C1711.9 700.6 1711.5 704.6 1710.7 708C1711.5 711.2 1711.9 715.2 1711.9 720C1711.9 724.6 1711.5 728.6 1710.7 732C1711.5 735.2 1711.9 739.2 1711.9 744C1711.9 748.6 1711.5 752.6 1710.7 756H1734.7ZM1868.02 672C1868.02 676.6 1867.62 680.6 1866.82 684H1857.82C1858.62 687.2 1859.02 691.2 1859.02 696C1859.02 700.6 1858.62 704.6 1857.82 708H1848.82C1849.62 711.2 1850.02 715.2 1850.02 720C1850.02 724.6 1849.62 728.6 1848.82 732H1842.82C1843.62 735.2 1844.02 739.2 1844.02 744C1844.02 748.6 1843.62 752.6 1842.82 756H1830.82C1831.62 759.2 1832.02 763.2 1832.02 768C1832.02 772.6 1831.62 776.6 1830.82 780H1806.82C1806.02 776.6 1805.62 772.6 1805.62 768C1805.62 763.2 1806.02 759.2 1806.82 756H1794.82C1794.02 752.6 1793.62 748.6 1793.62 744C1793.62 739.2 1794.02 735.2 1794.82 732H1788.82C1788.02 728.6 1787.62 724.6 1787.62 720C1787.62 715.2 1788.02 711.2 1788.82 708H1779.82C1779.02 704.6 1778.62 700.6 1778.62 696C1778.62 691.2 1779.02 687.2 1779.82 684H1770.82C1770.02 680.6 1769.62 676.6 1769.62 672C1769.62 667.2 1770.02 663.2 1770.82 660H1794.82C1795.62 663.2 1796.02 667.2 1796.02 672C1796.02 676.6 1795.62 680.6 1794.82 684H1803.82C1804.62 687.2 1805.02 691.2 1805.02 696C1805.02 700.6 1804.62 704.6 1803.82 708H1812.82C1813.62 711.2 1814.02 715.2 1814.02 720C1814.02 724.6 1813.62 728.6 1812.82 732H1824.82C1824.02 728.6 1823.62 724.6 1823.62 720C1823.62 715.2 1824.02 711.2 1824.82 708H1833.82C1833.02 704.6 1832.62 700.6 1832.62 696C1832.62 691.2 1833.02 687.2 1833.82 684H1842.82C1842.02 680.6 1841.62 676.6 1841.62 672C1841.62 667.2 1842.02 663.2 1842.82 660H1866.82C1867.62 663.2 1868.02 667.2 1868.02 672ZM1986.94 756C1987.74 759.2 1988.14 763.2 1988.14 768C1988.14 772.6 1987.74 776.6 1986.94 780H1962.94C1962.14 776.6 1961.74 772.6 1961.74 768C1961.74 763.2 1962.14 759.2 1962.94 756H1950.94C1950.14 752.6 1949.74 748.6 1949.74 744C1949.74 739.2 1950.14 735.2 1950.94 732H1914.94C1915.74 735.2 1916.14 739.2 1916.14 744C1916.14 748.6 1915.74 752.6 1914.94 756H1950.94C1951.74 759.2 1952.14 763.2 1952.14 768C1952.14 772.6 1951.74 776.6 1950.94 780H1902.94C1902.14 776.6 1901.74 772.6 1901.74 768C1901.74 763.2 1902.14 759.2 1902.94 756H1890.94C1890.14 752.6 1889.74 748.6 1889.74 744C1889.74 739.2 1890.14 735.2 1890.94 732H1902.94C1902.14 728.6 1901.74 724.6 1901.74 720C1901.74 715.2 1902.14 711.2 1902.94 708H1950.94C1950.14 704.6 1949.74 700.6 1949.74 696C1949.74 691.2 1950.14 687.2 1950.94 684H1908.94C1908.14 680.6 1907.74 676.6 1907.74 672C1907.74 667.2 1908.14 663.2 1908.94 660H1962.94C1963.74 663.2 1964.14 667.2 1964.14 672C1964.14 676.6 1963.74 680.6 1962.94 684H1974.94C1975.74 687.2 1976.14 691.2 1976.14 696C1976.14 700.6 1975.74 704.6 1974.94 708C1975.74 711.2 1976.14 715.2 1976.14 720C1976.14 724.6 1975.74 728.6 1974.94 732C1975.74 735.2 1976.14 739.2 1976.14 744C1976.14 748.6 1975.74 752.6 1974.94 756H1986.94ZM2102.25 744C2102.25 748.6 2101.85 752.6 2101.05 756H2089.05C2089.85 759.2 2090.25 763.2 2090.25 768C2090.25 772.6 2089.85 776.6 2089.05 780H2023.05C2022.25 776.6 2021.85 772.6 2021.85 768C2021.85 763.2 2022.25 759.2 2023.05 756H2077.05C2076.25 752.6 2075.85 748.6 2075.85 744C2075.85 739.2 2076.25 735.2 2077.05 732H2029.05C2028.25 728.6 2027.85 724.6 2027.85 720C2027.85 715.2 2028.25 711.2 2029.05 708H2017.05C2016.25 704.6 2015.85 700.6 2015.85 696C2015.85 691.2 2016.25 687.2 2017.05 684H2029.05C2028.25 680.6 2027.85 676.6 2027.85 672C2027.85 667.2 2028.25 663.2 2029.05 660H2095.05C2095.85 663.2 2096.25 667.2 2096.25 672C2096.25 676.6 2095.85 680.6 2095.05 684H2041.05C2041.85 687.2 2042.25 691.2 2042.25 696C2042.25 700.6 2041.85 704.6 2041.05 708H2089.05C2089.85 711.2 2090.25 715.2 2090.25 720C2090.25 724.6 2089.85 728.6 2089.05 732H2101.05C2101.85 735.2 2102.25 739.2 2102.25 744ZM2347.29 636C2348.09 639.2 2348.49 643.2 2348.49 648C2348.49 652.6 2348.09 656.6 2347.29 660C2348.09 663.2 2348.49 667.2 2348.49 672C2348.49 676.6 2348.09 680.6 2347.29 684C2348.09 687.2 2348.49 691.2 2348.49 696C2348.49 700.6 2348.09 704.6 2347.29 708C2348.09 711.2 2348.49 715.2 2348.49 720C2348.49 724.6 2348.09 728.6 2347.29 732C2348.09 735.2 2348.49 739.2 2348.49 744C2348.49 748.6 2348.09 752.6 2347.29 756C2348.09 759.2 2348.49 763.2 2348.49 768C2348.49 772.6 2348.09 776.6 2347.29 780H2323.29C2322.49 776.6 2322.09 772.6 2322.09 768C2322.09 763.2 2322.49 759.2 2323.29 756H2314.29C2313.49 752.6 2313.09 748.6 2313.09 744C2313.09 739.2 2313.49 735.2 2314.29 732H2323.29C2322.49 728.6 2322.09 724.6 2322.09 720C2322.09 715.2 2322.49 711.2 2323.29 708H2314.29C2313.49 704.6 2313.09 700.6 2313.09 696C2313.09 691.2 2313.49 687.2 2314.29 684H2323.29C2322.49 680.6 2322.09 676.6 2322.09 672C2322.09 667.2 2322.49 663.2 2323.29 660C2322.49 656.6 2322.09 652.6 2322.09 648C2322.09 643.2 2322.49 639.2 2323.29 636C2322.49 632.6 2322.09 628.6 2322.09 624C2322.09 619.2 2322.49 615.2 2323.29 612H2347.29C2348.09 615.2 2348.49 619.2 2348.49 624C2348.49 628.6 2348.09 632.6 2347.29 636ZM2309.49 672C2309.49 676.6 2309.09 680.6 2308.29 684H2278.29C2279.09 687.2 2279.49 691.2 2279.49 696C2279.49 700.6 2279.09 704.6 2278.29 708H2269.29C2270.09 711.2 2270.49 715.2 2270.49 720C2270.49 724.6 2270.09 728.6 2269.29 732H2278.29C2279.09 735.2 2279.49 739.2 2279.49 744C2279.49 748.6 2279.09 752.6 2278.29 756H2308.29C2309.09 759.2 2309.49 763.2 2309.49 768C2309.49 772.6 2309.09 776.6 2308.29 780H2275.29C2274.49 776.6 2274.09 772.6 2274.09 768C2274.09 763.2 2274.49 759.2 2275.29 756H2260.29C2259.49 752.6 2259.09 748.6 2259.09 744C2259.09 739.2 2259.49 735.2 2260.29 732H2251.29C2250.49 728.6 2250.09 724.6 2250.09 720C2250.09 715.2 2250.49 711.2 2251.29 708H2260.29C2259.49 704.6 2259.09 700.6 2259.09 696C2259.09 691.2 2259.49 687.2 2260.29 684H2275.29C2274.49 680.6 2274.09 676.6 2274.09 672C2274.09 667.2 2274.49 663.2 2275.29 660H2308.29C2309.09 663.2 2309.49 667.2 2309.49 672ZM2468.61 696C2468.61 700.6 2468.21 704.6 2467.41 708C2468.21 711.2 2468.61 715.2 2468.61 720C2468.61 724.6 2468.21 728.6 2467.41 732H2404.41C2405.21 735.2 2405.61 739.2 2405.61 744C2405.61 748.6 2405.21 752.6 2404.41 756H2455.41C2456.21 759.2 2456.61 763.2 2456.61 768C2456.61 772.6 2456.21 776.6 2455.41 780H2395.41C2394.61 776.6 2394.21 772.6 2394.21 768C2394.21 763.2 2394.61 759.2 2395.41 756H2380.41C2379.61 752.6 2379.21 748.6 2379.21 744C2379.21 739.2 2379.61 735.2 2380.41 732H2371.41C2370.61 728.6 2370.21 724.6 2370.21 720C2370.21 715.2 2370.61 711.2 2371.41 708H2380.41C2379.61 704.6 2379.21 700.6 2379.21 696C2379.21 691.2 2379.61 687.2 2380.41 684H2395.41C2394.61 680.6 2394.21 676.6 2394.21 672C2394.21 667.2 2394.61 663.2 2395.41 660H2455.41C2456.21 663.2 2456.61 667.2 2456.61 672C2456.61 676.6 2456.21 680.6 2455.41 684H2467.41C2468.21 687.2 2468.61 691.2 2468.61 696ZM2443.41 708C2442.61 704.6 2442.21 700.6 2442.21 696C2442.21 691.2 2442.61 687.2 2443.41 684H2404.41C2405.21 687.2 2405.61 691.2 2405.61 696C2405.61 700.6 2405.21 704.6 2404.41 708H2443.41ZM1026 904C1026.8 907.2 1027.2 911.2 1027.2 916C1027.2 920.6 1026.8 924.6 1026 928C1026.8 931.2 1027.2 935.2 1027.2 940C1027.2 944.6 1026.8 948.6 1026 952C1026.8 955.2 1027.2 959.2 1027.2 964C1027.2 968.6 1026.8 972.6 1026 976C1026.8 979.2 1027.2 983.2 1027.2 988C1027.2 992.6 1026.8 996.6 1026 1000H1002C1001.2 996.6 1000.8 992.6 1000.8 988C1000.8 983.2 1001.2 979.2 1002 976C1001.2 972.6 1000.8 968.6 1000.8 964C1000.8 959.2 1001.2 955.2 1002 952C1001.2 948.6 1000.8 944.6 1000.8 940C1000.8 935.2 1001.2 931.2 1002 928C1001.2 924.6 1000.8 920.6 1000.8 916C1000.8 911.2 1001.2 907.2 1002 904H966C966.8 907.2 967.2 911.2 967.2 916C967.2 920.6 966.8 924.6 966 928C966.8 931.2 967.2 935.2 967.2 940C967.2 944.6 966.8 948.6 966 952C966.8 955.2 967.2 959.2 967.2 964C967.2 968.6 966.8 972.6 966 976H978C978.8 979.2 979.2 983.2 979.2 988C979.2 992.6 978.8 996.6 978 1000H930C929.2 996.6 928.8 992.6 928.8 988C928.8 983.2 929.2 979.2 930 976H942C941.2 972.6 940.8 968.6 940.8 964C940.8 959.2 941.2 955.2 942 952C941.2 948.6 940.8 944.6 940.8 940C940.8 935.2 941.2 931.2 942 928C941.2 924.6 940.8 920.6 940.8 916C940.8 911.2 941.2 907.2 942 904H930C929.2 900.6 928.8 896.6 928.8 892C928.8 887.2 929.2 883.2 930 880H942C941.2 876.6 940.8 872.6 940.8 868C940.8 863.2 941.2 859.2 942 856H954C953.2 852.6 952.8 848.6 952.8 844C952.8 839.2 953.2 835.2 954 832H1002C1002.8 835.2 1003.2 839.2 1003.2 844C1003.2 848.6 1002.8 852.6 1002 856H966C966.8 859.2 967.2 863.2 967.2 868C967.2 872.6 966.8 876.6 966 880H1026C1026.8 883.2 1027.2 887.2 1027.2 892C1027.2 896.6 1026.8 900.6 1026 904ZM1146.12 952C1146.92 955.2 1147.32 959.2 1147.32 964C1147.32 968.6 1146.92 972.6 1146.12 976H1134.12C1134.92 979.2 1135.32 983.2 1135.32 988C1135.32 992.6 1134.92 996.6 1134.12 1000H1074.12C1073.32 996.6 1072.92 992.6 1072.92 988C1072.92 983.2 1073.32 979.2 1074.12 976H1062.12C1061.32 972.6 1060.92 968.6 1060.92 964C1060.92 959.2 1061.32 955.2 1062.12 952H1050.12C1049.32 948.6 1048.92 944.6 1048.92 940C1048.92 935.2 1049.32 931.2 1050.12 928H1062.12C1061.32 924.6 1060.92 920.6 1060.92 916C1060.92 911.2 1061.32 907.2 1062.12 904H1074.12C1073.32 900.6 1072.92 896.6 1072.92 892C1072.92 887.2 1073.32 883.2 1074.12 880H1134.12C1134.92 883.2 1135.32 887.2 1135.32 892C1135.32 896.6 1134.92 900.6 1134.12 904H1146.12C1146.92 907.2 1147.32 911.2 1147.32 916C1147.32 920.6 1146.92 924.6 1146.12 928H1122.12C1121.32 924.6 1120.92 920.6 1120.92 916C1120.92 911.2 1121.32 907.2 1122.12 904H1086.12C1086.92 907.2 1087.32 911.2 1087.32 916C1087.32 920.6 1086.92 924.6 1086.12 928H1074.12C1074.92 931.2 1075.32 935.2 1075.32 940C1075.32 944.6 1074.92 948.6 1074.12 952H1086.12C1086.92 955.2 1087.32 959.2 1087.32 964C1087.32 968.6 1086.92 972.6 1086.12 976H1122.12C1121.32 972.6 1120.92 968.6 1120.92 964C1120.92 959.2 1121.32 955.2 1122.12 952H1146.12ZM1266.23 952C1267.03 955.2 1267.43 959.2 1267.43 964C1267.43 968.6 1267.03 972.6 1266.23 976H1254.23C1255.03 979.2 1255.43 983.2 1255.43 988C1255.43 992.6 1255.03 996.6 1254.23 1000H1194.23C1193.43 996.6 1193.03 992.6 1193.03 988C1193.03 983.2 1193.43 979.2 1194.23 976H1182.23C1181.43 972.6 1181.03 968.6 1181.03 964C1181.03 959.2 1181.43 955.2 1182.23 952H1170.23C1169.43 948.6 1169.03 944.6 1169.03 940C1169.03 935.2 1169.43 931.2 1170.23 928H1182.23C1181.43 924.6 1181.03 920.6 1181.03 916C1181.03 911.2 1181.43 907.2 1182.23 904H1194.23C1193.43 900.6 1193.03 896.6 1193.03 892C1193.03 887.2 1193.43 883.2 1194.23 880H1254.23C1255.03 883.2 1255.43 887.2 1255.43 892C1255.43 896.6 1255.03 900.6 1254.23 904H1266.23C1267.03 907.2 1267.43 911.2 1267.43 916C1267.43 920.6 1267.03 924.6 1266.23 928H1242.23C1241.43 924.6 1241.03 920.6 1241.03 916C1241.03 911.2 1241.43 907.2 1242.23 904H1206.23C1207.03 907.2 1207.43 911.2 1207.43 916C1207.43 920.6 1207.03 924.6 1206.23 928H1194.23C1195.03 931.2 1195.43 935.2 1195.43 940C1195.43 944.6 1195.03 948.6 1194.23 952H1206.23C1207.03 955.2 1207.43 959.2 1207.43 964C1207.43 968.6 1207.03 972.6 1206.23 976H1242.23C1241.43 972.6 1241.03 968.6 1241.03 964C1241.03 959.2 1241.43 955.2 1242.23 952H1266.23ZM1237.43 1012C1237.43 1016.6 1237.03 1020.6 1236.23 1024H1227.23C1228.03 1027.2 1228.43 1031.2 1228.43 1036C1228.43 1040.6 1228.03 1044.6 1227.23 1048H1203.23C1202.43 1044.6 1202.03 1040.6 1202.03 1036C1202.03 1031.2 1202.43 1027.2 1203.23 1024H1218.23C1217.43 1020.6 1217.03 1016.6 1217.03 1012C1217.03 1007.2 1217.43 1003.2 1218.23 1000H1236.23C1237.03 1003.2 1237.43 1007.2 1237.43 1012ZM1386.35 976C1387.15 979.2 1387.55 983.2 1387.55 988C1387.55 992.6 1387.15 996.6 1386.35 1000H1362.35C1361.55 996.6 1361.15 992.6 1361.15 988C1361.15 983.2 1361.55 979.2 1362.35 976H1350.35C1349.55 972.6 1349.15 968.6 1349.15 964C1349.15 959.2 1349.55 955.2 1350.35 952H1314.35C1315.15 955.2 1315.55 959.2 1315.55 964C1315.55 968.6 1315.15 972.6 1314.35 976H1350.35C1351.15 979.2 1351.55 983.2 1351.55 988C1351.55 992.6 1351.15 996.6 1350.35 1000H1302.35C1301.55 996.6 1301.15 992.6 1301.15 988C1301.15 983.2 1301.55 979.2 1302.35 976H1290.35C1289.55 972.6 1289.15 968.6 1289.15 964C1289.15 959.2 1289.55 955.2 1290.35 952H1302.35C1301.55 948.6 1301.15 944.6 1301.15 940C1301.15 935.2 1301.55 931.2 1302.35 928H1350.35C1349.55 924.6 1349.15 920.6 1349.15 916C1349.15 911.2 1349.55 907.2 1350.35 904H1308.35C1307.55 900.6 1307.15 896.6 1307.15 892C1307.15 887.2 1307.55 883.2 1308.35 880H1362.35C1363.15 883.2 1363.55 887.2 1363.55 892C1363.55 896.6 1363.15 900.6 1362.35 904H1374.35C1375.15 907.2 1375.55 911.2 1375.55 916C1375.55 920.6 1375.15 924.6 1374.35 928C1375.15 931.2 1375.55 935.2 1375.55 940C1375.55 944.6 1375.15 948.6 1374.35 952C1375.15 955.2 1375.55 959.2 1375.55 964C1375.55 968.6 1375.15 972.6 1374.35 976H1386.35ZM1345.55 820C1345.55 824.6 1345.15 828.6 1344.35 832H1368.35C1369.15 835.2 1369.55 839.2 1369.55 844C1369.55 848.6 1369.15 852.6 1368.35 856H1332.35C1331.55 852.6 1331.15 848.6 1331.15 844C1331.15 839.2 1331.55 835.2 1332.35 832H1308.35C1307.55 828.6 1307.15 824.6 1307.15 820C1307.15 815.2 1307.55 811.2 1308.35 808H1344.35C1345.15 811.2 1345.55 815.2 1345.55 820ZM1387.55 820C1387.55 824.6 1387.15 828.6 1386.35 832H1368.35C1367.55 828.6 1367.15 824.6 1367.15 820C1367.15 815.2 1367.55 811.2 1368.35 808H1386.35C1387.15 811.2 1387.55 815.2 1387.55 820ZM1289.15 844C1289.15 839.2 1289.55 835.2 1290.35 832H1308.35C1309.15 835.2 1309.55 839.2 1309.55 844C1309.55 848.6 1309.15 852.6 1308.35 856H1290.35C1289.55 852.6 1289.15 848.6 1289.15 844ZM1507.67 940C1507.67 944.6 1507.27 948.6 1506.47 952H1497.47C1498.27 955.2 1498.67 959.2 1498.67 964C1498.67 968.6 1498.27 972.6 1497.47 976H1482.47C1483.27 979.2 1483.67 983.2 1483.67 988C1483.67 992.6 1483.27 996.6 1482.47 1000H1434.47C1433.67 996.6 1433.27 992.6 1433.27 988C1433.27 983.2 1433.67 979.2 1434.47 976H1419.47C1418.67 972.6 1418.27 968.6 1418.27 964C1418.27 959.2 1418.67 955.2 1419.47 952H1410.47C1409.67 948.6 1409.27 944.6 1409.27 940C1409.27 935.2 1409.67 931.2 1410.47 928H1419.47C1418.67 924.6 1418.27 920.6 1418.27 916C1418.27 911.2 1418.67 907.2 1419.47 904H1434.47C1433.67 900.6 1433.27 896.6 1433.27 892C1433.27 887.2 1433.67 883.2 1434.47 880H1482.47C1483.27 883.2 1483.67 887.2 1483.67 892C1483.67 896.6 1483.27 900.6 1482.47 904H1497.47C1498.27 907.2 1498.67 911.2 1498.67 916C1498.67 920.6 1498.27 924.6 1497.47 928H1506.47C1507.27 931.2 1507.67 935.2 1507.67 940ZM1482.47 952C1481.67 948.6 1481.27 944.6 1481.27 940C1481.27 935.2 1481.67 931.2 1482.47 928H1473.47C1472.67 924.6 1472.27 920.6 1472.27 916C1472.27 911.2 1472.67 907.2 1473.47 904H1443.47C1444.27 907.2 1444.67 911.2 1444.67 916C1444.67 920.6 1444.27 924.6 1443.47 928H1434.47C1435.27 931.2 1435.67 935.2 1435.67 940C1435.67 944.6 1435.27 948.6 1434.47 952H1443.47C1444.27 955.2 1444.67 959.2 1444.67 964C1444.67 968.6 1444.27 972.6 1443.47 976H1473.47C1472.67 972.6 1472.27 968.6 1472.27 964C1472.27 959.2 1472.67 955.2 1473.47 952H1482.47ZM1686.7 856C1685.9 852.6 1685.5 848.6 1685.5 844C1685.5 839.2 1685.9 835.2 1686.7 832H1710.7C1711.5 835.2 1711.9 839.2 1711.9 844C1711.9 848.6 1711.5 852.6 1710.7 856H1686.7ZM1734.7 976C1735.5 979.2 1735.9 983.2 1735.9 988C1735.9 992.6 1735.5 996.6 1734.7 1000H1662.7C1661.9 996.6 1661.5 992.6 1661.5 988C1661.5 983.2 1661.9 979.2 1662.7 976H1686.7C1685.9 972.6 1685.5 968.6 1685.5 964C1685.5 959.2 1685.9 955.2 1686.7 952C1685.9 948.6 1685.5 944.6 1685.5 940C1685.5 935.2 1685.9 931.2 1686.7 928C1685.9 924.6 1685.5 920.6 1685.5 916C1685.5 911.2 1685.9 907.2 1686.7 904H1668.7C1667.9 900.6 1667.5 896.6 1667.5 892C1667.5 887.2 1667.9 883.2 1668.7 880H1710.7C1711.5 883.2 1711.9 887.2 1711.9 892C1711.9 896.6 1711.5 900.6 1710.7 904C1711.5 907.2 1711.9 911.2 1711.9 916C1711.9 920.6 1711.5 924.6 1710.7 928C1711.5 931.2 1711.9 935.2 1711.9 940C1711.9 944.6 1711.5 948.6 1710.7 952C1711.5 955.2 1711.9 959.2 1711.9 964C1711.9 968.6 1711.5 972.6 1710.7 976H1734.7ZM1793.02 892C1793.02 896.6 1792.62 900.6 1791.82 904H1803.82C1804.62 907.2 1805.02 911.2 1805.02 916C1805.02 920.6 1804.62 924.6 1803.82 928H1794.82C1795.62 931.2 1796.02 935.2 1796.02 940C1796.02 944.6 1795.62 948.6 1794.82 952C1795.62 955.2 1796.02 959.2 1796.02 964C1796.02 968.6 1795.62 972.6 1794.82 976C1795.62 979.2 1796.02 983.2 1796.02 988C1796.02 992.6 1795.62 996.6 1794.82 1000H1770.82C1770.02 996.6 1769.62 992.6 1769.62 988C1769.62 983.2 1770.02 979.2 1770.82 976C1770.02 972.6 1769.62 968.6 1769.62 964C1769.62 959.2 1770.02 955.2 1770.82 952C1770.02 948.6 1769.62 944.6 1769.62 940C1769.62 935.2 1770.02 931.2 1770.82 928C1770.02 924.6 1769.62 920.6 1769.62 916C1769.62 911.2 1770.02 907.2 1770.82 904C1770.02 900.6 1769.62 896.6 1769.62 892C1769.62 887.2 1770.02 883.2 1770.82 880H1791.82C1792.62 883.2 1793.02 887.2 1793.02 892ZM1866.82 928C1867.62 931.2 1868.02 935.2 1868.02 940C1868.02 944.6 1867.62 948.6 1866.82 952C1867.62 955.2 1868.02 959.2 1868.02 964C1868.02 968.6 1867.62 972.6 1866.82 976C1867.62 979.2 1868.02 983.2 1868.02 988C1868.02 992.6 1867.62 996.6 1866.82 1000H1842.82C1842.02 996.6 1841.62 992.6 1841.62 988C1841.62 983.2 1842.02 979.2 1842.82 976C1842.02 972.6 1841.62 968.6 1841.62 964C1841.62 959.2 1842.02 955.2 1842.82 952C1842.02 948.6 1841.62 944.6 1841.62 940C1841.62 935.2 1842.02 931.2 1842.82 928C1842.02 924.6 1841.62 920.6 1841.62 916C1841.62 911.2 1842.02 907.2 1842.82 904H1803.82C1803.02 900.6 1802.62 896.6 1802.62 892C1802.62 887.2 1803.02 883.2 1803.82 880H1851.82C1852.62 883.2 1853.02 887.2 1853.02 892C1853.02 896.6 1852.62 900.6 1851.82 904H1866.82C1867.62 907.2 1868.02 911.2 1868.02 916C1868.02 920.6 1867.62 924.6 1866.82 928ZM1974.94 976C1975.74 979.2 1976.14 983.2 1976.14 988C1976.14 992.6 1975.74 996.6 1974.94 1000H1926.94C1926.14 996.6 1925.74 992.6 1925.74 988C1925.74 983.2 1926.14 979.2 1926.94 976H1914.94C1914.14 972.6 1913.74 968.6 1913.74 964C1913.74 959.2 1914.14 955.2 1914.94 952C1914.14 948.6 1913.74 944.6 1913.74 940C1913.74 935.2 1914.14 931.2 1914.94 928C1914.14 924.6 1913.74 920.6 1913.74 916C1913.74 911.2 1914.14 907.2 1914.94 904H1890.94C1890.14 900.6 1889.74 896.6 1889.74 892C1889.74 887.2 1890.14 883.2 1890.94 880H1914.94C1914.14 876.6 1913.74 872.6 1913.74 868C1913.74 863.2 1914.14 859.2 1914.94 856C1914.14 852.6 1913.74 848.6 1913.74 844C1913.74 839.2 1914.14 835.2 1914.94 832H1938.94C1939.74 835.2 1940.14 839.2 1940.14 844C1940.14 848.6 1939.74 852.6 1938.94 856C1939.74 859.2 1940.14 863.2 1940.14 868C1940.14 872.6 1939.74 876.6 1938.94 880H1974.94C1975.74 883.2 1976.14 887.2 1976.14 892C1976.14 896.6 1975.74 900.6 1974.94 904H1938.94C1939.74 907.2 1940.14 911.2 1940.14 916C1940.14 920.6 1939.74 924.6 1938.94 928C1939.74 931.2 1940.14 935.2 1940.14 940C1940.14 944.6 1939.74 948.6 1938.94 952C1939.74 955.2 1940.14 959.2 1940.14 964C1940.14 968.6 1939.74 972.6 1938.94 976H1974.94ZM2108.25 916C2108.25 920.6 2107.85 924.6 2107.05 928C2107.85 931.2 2108.25 935.2 2108.25 940C2108.25 944.6 2107.85 948.6 2107.05 952H2044.05C2044.85 955.2 2045.25 959.2 2045.25 964C2045.25 968.6 2044.85 972.6 2044.05 976H2095.05C2095.85 979.2 2096.25 983.2 2096.25 988C2096.25 992.6 2095.85 996.6 2095.05 1000H2035.05C2034.25 996.6 2033.85 992.6 2033.85 988C2033.85 983.2 2034.25 979.2 2035.05 976H2020.05C2019.25 972.6 2018.85 968.6 2018.85 964C2018.85 959.2 2019.25 955.2 2020.05 952H2011.05C2010.25 948.6 2009.85 944.6 2009.85 940C2009.85 935.2 2010.25 931.2 2011.05 928H2020.05C2019.25 924.6 2018.85 920.6 2018.85 916C2018.85 911.2 2019.25 907.2 2020.05 904H2035.05C2034.25 900.6 2033.85 896.6 2033.85 892C2033.85 887.2 2034.25 883.2 2035.05 880H2095.05C2095.85 883.2 2096.25 887.2 2096.25 892C2096.25 896.6 2095.85 900.6 2095.05 904H2107.05C2107.85 907.2 2108.25 911.2 2108.25 916ZM2083.05 928C2082.25 924.6 2081.85 920.6 2081.85 916C2081.85 911.2 2082.25 907.2 2083.05 904H2044.05C2044.85 907.2 2045.25 911.2 2045.25 916C2045.25 920.6 2044.85 924.6 2044.05 928H2083.05ZM2227.17 904C2227.97 907.2 2228.37 911.2 2228.37 916C2228.37 920.6 2227.97 924.6 2227.17 928H2203.17C2202.37 924.6 2201.97 920.6 2201.97 916C2201.97 911.2 2202.37 907.2 2203.17 904H2182.17C2182.97 907.2 2183.37 911.2 2183.37 916C2183.37 920.6 2182.97 924.6 2182.17 928H2173.17C2173.97 931.2 2174.37 935.2 2174.37 940C2174.37 944.6 2173.97 948.6 2173.17 952C2173.97 955.2 2174.37 959.2 2174.37 964C2174.37 968.6 2173.97 972.6 2173.17 976H2191.17C2191.97 979.2 2192.37 983.2 2192.37 988C2192.37 992.6 2191.97 996.6 2191.17 1000H2131.17C2130.37 996.6 2129.97 992.6 2129.97 988C2129.97 983.2 2130.37 979.2 2131.17 976H2149.17C2148.37 972.6 2147.97 968.6 2147.97 964C2147.97 959.2 2148.37 955.2 2149.17 952C2148.37 948.6 2147.97 944.6 2147.97 940C2147.97 935.2 2148.37 931.2 2149.17 928C2148.37 924.6 2147.97 920.6 2147.97 916C2147.97 911.2 2148.37 907.2 2149.17 904H2131.17C2130.37 900.6 2129.97 896.6 2129.97 892C2129.97 887.2 2130.37 883.2 2131.17 880H2161.17C2161.97 883.2 2162.37 887.2 2162.37 892C2162.37 896.6 2161.97 900.6 2161.17 904H2173.17C2172.37 900.6 2171.97 896.6 2171.97 892C2171.97 887.2 2172.37 883.2 2173.17 880H2218.17C2218.97 883.2 2219.37 887.2 2219.37 892C2219.37 896.6 2218.97 900.6 2218.17 904H2227.17ZM2347.29 976C2348.09 979.2 2348.49 983.2 2348.49 988C2348.49 992.6 2348.09 996.6 2347.29 1000H2323.29C2322.49 996.6 2322.09 992.6 2322.09 988C2322.09 983.2 2322.49 979.2 2323.29 976H2311.29C2310.49 972.6 2310.09 968.6 2310.09 964C2310.09 959.2 2310.49 955.2 2311.29 952H2275.29C2276.09 955.2 2276.49 959.2 2276.49 964C2276.49 968.6 2276.09 972.6 2275.29 976H2311.29C2312.09 979.2 2312.49 983.2 2312.49 988C2312.49 992.6 2312.09 996.6 2311.29 1000H2263.29C2262.49 996.6 2262.09 992.6 2262.09 988C2262.09 983.2 2262.49 979.2 2263.29 976H2251.29C2250.49 972.6 2250.09 968.6 2250.09 964C2250.09 959.2 2250.49 955.2 2251.29 952H2263.29C2262.49 948.6 2262.09 944.6 2262.09 940C2262.09 935.2 2262.49 931.2 2263.29 928H2311.29C2310.49 924.6 2310.09 920.6 2310.09 916C2310.09 911.2 2310.49 907.2 2311.29 904H2269.29C2268.49 900.6 2268.09 896.6 2268.09 892C2268.09 887.2 2268.49 883.2 2269.29 880H2323.29C2324.09 883.2 2324.49 887.2 2324.49 892C2324.49 896.6 2324.09 900.6 2323.29 904H2335.29C2336.09 907.2 2336.49 911.2 2336.49 916C2336.49 920.6 2336.09 924.6 2335.29 928C2336.09 931.2 2336.49 935.2 2336.49 940C2336.49 944.6 2336.09 948.6 2335.29 952C2336.09 955.2 2336.49 959.2 2336.49 964C2336.49 968.6 2336.09 972.6 2335.29 976H2347.29ZM2455.41 976C2456.21 979.2 2456.61 983.2 2456.61 988C2456.61 992.6 2456.21 996.6 2455.41 1000H2407.41C2406.61 996.6 2406.21 992.6 2406.21 988C2406.21 983.2 2406.61 979.2 2407.41 976H2395.41C2394.61 972.6 2394.21 968.6 2394.21 964C2394.21 959.2 2394.61 955.2 2395.41 952C2394.61 948.6 2394.21 944.6 2394.21 940C2394.21 935.2 2394.61 931.2 2395.41 928C2394.61 924.6 2394.21 920.6 2394.21 916C2394.21 911.2 2394.61 907.2 2395.41 904H2371.41C2370.61 900.6 2370.21 896.6 2370.21 892C2370.21 887.2 2370.61 883.2 2371.41 880H2395.41C2394.61 876.6 2394.21 872.6 2394.21 868C2394.21 863.2 2394.61 859.2 2395.41 856C2394.61 852.6 2394.21 848.6 2394.21 844C2394.21 839.2 2394.61 835.2 2395.41 832H2419.41C2420.21 835.2 2420.61 839.2 2420.61 844C2420.61 848.6 2420.21 852.6 2419.41 856C2420.21 859.2 2420.61 863.2 2420.61 868C2420.61 872.6 2420.21 876.6 2419.41 880H2455.41C2456.21 883.2 2456.61 887.2 2456.61 892C2456.61 896.6 2456.21 900.6 2455.41 904H2419.41C2420.21 907.2 2420.61 911.2 2420.61 916C2420.61 920.6 2420.21 924.6 2419.41 928C2420.21 931.2 2420.61 935.2 2420.61 940C2420.61 944.6 2420.21 948.6 2419.41 952C2420.21 955.2 2420.61 959.2 2420.61 964C2420.61 968.6 2420.21 972.6 2419.41 976H2455.41ZM2527.52 856C2526.72 852.6 2526.32 848.6 2526.32 844C2526.32 839.2 2526.72 835.2 2527.52 832H2551.52C2552.32 835.2 2552.72 839.2 2552.72 844C2552.72 848.6 2552.32 852.6 2551.52 856H2527.52ZM2575.52 976C2576.32 979.2 2576.72 983.2 2576.72 988C2576.72 992.6 2576.32 996.6 2575.52 1000H2503.52C2502.72 996.6 2502.32 992.6 2502.32 988C2502.32 983.2 2502.72 979.2 2503.52 976H2527.52C2526.72 972.6 2526.32 968.6 2526.32 964C2526.32 959.2 2526.72 955.2 2527.52 952C2526.72 948.6 2526.32 944.6 2526.32 940C2526.32 935.2 2526.72 931.2 2527.52 928C2526.72 924.6 2526.32 920.6 2526.32 916C2526.32 911.2 2526.72 907.2 2527.52 904H2509.52C2508.72 900.6 2508.32 896.6 2508.32 892C2508.32 887.2 2508.72 883.2 2509.52 880H2551.52C2552.32 883.2 2552.72 887.2 2552.72 892C2552.72 896.6 2552.32 900.6 2551.52 904C2552.32 907.2 2552.72 911.2 2552.72 916C2552.72 920.6 2552.32 924.6 2551.52 928C2552.32 931.2 2552.72 935.2 2552.72 940C2552.72 944.6 2552.32 948.6 2551.52 952C2552.32 955.2 2552.72 959.2 2552.72 964C2552.72 968.6 2552.32 972.6 2551.52 976H2575.52ZM2708.84 892C2708.84 896.6 2708.44 900.6 2707.64 904H2698.64C2699.44 907.2 2699.84 911.2 2699.84 916C2699.84 920.6 2699.44 924.6 2698.64 928H2689.64C2690.44 931.2 2690.84 935.2 2690.84 940C2690.84 944.6 2690.44 948.6 2689.64 952H2683.64C2684.44 955.2 2684.84 959.2 2684.84 964C2684.84 968.6 2684.44 972.6 2683.64 976H2671.64C2672.44 979.2 2672.84 983.2 2672.84 988C2672.84 992.6 2672.44 996.6 2671.64 1000H2647.64C2646.84 996.6 2646.44 992.6 2646.44 988C2646.44 983.2 2646.84 979.2 2647.64 976H2635.64C2634.84 972.6 2634.44 968.6 2634.44 964C2634.44 959.2 2634.84 955.2 2635.64 952H2629.64C2628.84 948.6 2628.44 944.6 2628.44 940C2628.44 935.2 2628.84 931.2 2629.64 928H2620.64C2619.84 924.6 2619.44 920.6 2619.44 916C2619.44 911.2 2619.84 907.2 2620.64 904H2611.64C2610.84 900.6 2610.44 896.6 2610.44 892C2610.44 887.2 2610.84 883.2 2611.64 880H2635.64C2636.44 883.2 2636.84 887.2 2636.84 892C2636.84 896.6 2636.44 900.6 2635.64 904H2644.64C2645.44 907.2 2645.84 911.2 2645.84 916C2645.84 920.6 2645.44 924.6 2644.64 928H2653.64C2654.44 931.2 2654.84 935.2 2654.84 940C2654.84 944.6 2654.44 948.6 2653.64 952H2665.64C2664.84 948.6 2664.44 944.6 2664.44 940C2664.44 935.2 2664.84 931.2 2665.64 928H2674.64C2673.84 924.6 2673.44 920.6 2673.44 916C2673.44 911.2 2673.84 907.2 2674.64 904H2683.64C2682.84 900.6 2682.44 896.6 2682.44 892C2682.44 887.2 2682.84 883.2 2683.64 880H2707.64C2708.44 883.2 2708.84 887.2 2708.84 892ZM2827.76 976C2828.56 979.2 2828.96 983.2 2828.96 988C2828.96 992.6 2828.56 996.6 2827.76 1000H2803.76C2802.96 996.6 2802.56 992.6 2802.56 988C2802.56 983.2 2802.96 979.2 2803.76 976H2791.76C2790.96 972.6 2790.56 968.6 2790.56 964C2790.56 959.2 2790.96 955.2 2791.76 952H2755.76C2756.56 955.2 2756.96 959.2 2756.96 964C2756.96 968.6 2756.56 972.6 2755.76 976H2791.76C2792.56 979.2 2792.96 983.2 2792.96 988C2792.96 992.6 2792.56 996.6 2791.76 1000H2743.76C2742.96 996.6 2742.56 992.6 2742.56 988C2742.56 983.2 2742.96 979.2 2743.76 976H2731.76C2730.96 972.6 2730.56 968.6 2730.56 964C2730.56 959.2 2730.96 955.2 2731.76 952H2743.76C2742.96 948.6 2742.56 944.6 2742.56 940C2742.56 935.2 2742.96 931.2 2743.76 928H2791.76C2790.96 924.6 2790.56 920.6 2790.56 916C2790.56 911.2 2790.96 907.2 2791.76 904H2749.76C2748.96 900.6 2748.56 896.6 2748.56 892C2748.56 887.2 2748.96 883.2 2749.76 880H2803.76C2804.56 883.2 2804.96 887.2 2804.96 892C2804.96 896.6 2804.56 900.6 2803.76 904H2815.76C2816.56 907.2 2816.96 911.2 2816.96 916C2816.96 920.6 2816.56 924.6 2815.76 928C2816.56 931.2 2816.96 935.2 2816.96 940C2816.96 944.6 2816.56 948.6 2815.76 952C2816.56 955.2 2816.96 959.2 2816.96 964C2816.96 968.6 2816.56 972.6 2815.76 976H2827.76ZM1013.7 1136C1013.7 1140.6 1013.3 1144.6 1012.5 1148H997.5C998.3 1151.2 998.7 1155.2 998.7 1160C998.7 1164.6 998.3 1168.6 997.5 1172H982.5C983.3 1175.2 983.7 1179.2 983.7 1184C983.7 1188.6 983.3 1192.6 982.5 1196H967.5C968.3 1199.2 968.7 1203.2 968.7 1208C968.7 1212.6 968.3 1216.6 967.5 1220H943.5C942.7 1216.6 942.3 1212.6 942.3 1208C942.3 1203.2 942.7 1199.2 943.5 1196H958.5C957.7 1192.6 957.3 1188.6 957.3 1184C957.3 1179.2 957.7 1175.2 958.5 1172H973.5C972.7 1168.6 972.3 1164.6 972.3 1160C972.3 1155.2 972.7 1151.2 973.5 1148H988.5C987.7 1144.6 987.3 1140.6 987.3 1136C987.3 1131.2 987.7 1127.2 988.5 1124H973.5C972.7 1120.6 972.3 1116.6 972.3 1112C972.3 1107.2 972.7 1103.2 973.5 1100H958.5C957.7 1096.6 957.3 1092.6 957.3 1088C957.3 1083.2 957.7 1079.2 958.5 1076H943.5C942.7 1072.6 942.3 1068.6 942.3 1064C942.3 1059.2 942.7 1055.2 943.5 1052H967.5C968.3 1055.2 968.7 1059.2 968.7 1064C968.7 1068.6 968.3 1072.6 967.5 1076H982.5C983.3 1079.2 983.7 1083.2 983.7 1088C983.7 1092.6 983.3 1096.6 982.5 1100H997.5C998.3 1103.2 998.7 1107.2 998.7 1112C998.7 1116.6 998.3 1120.6 997.5 1124H1012.5C1013.3 1127.2 1013.7 1131.2 1013.7 1136Z" fill="#9D4C8E"/>
</svg>
