<svg width="3745" height="1780" viewBox="0 0 3745 1780" fill="none" xmlns="http://www.w3.org/2000/svg">
<path d="M1499.6 707V567H1517.2V707H1499.6ZM1543.88 603H1556.28L1558.08 608.8L1566.28 606.4C1571.88 604.667 1576.28 603.467 1579.48 602.8C1582.81 602 1585.94 601.6 1588.88 601.6C1593.68 601.6 1597.21 603.267 1599.48 606.6C1601.74 609.933 1602.88 614.267 1602.88 619.6V707H1586.88V624.8C1586.88 620.933 1586.61 618.267 1586.08 616.8C1585.54 615.2 1584.21 614.4 1582.08 614.4C1581.01 614.4 1573.61 616.533 1559.88 620.8V707H1543.88V603ZM1654.13 707C1646.79 707 1640.99 704.8 1636.73 700.4C1632.46 696 1630.33 690.067 1630.33 682.6V615H1618.33V603H1630.33V572.8L1646.33 566.8V603H1662.33V615H1646.33V684C1646.33 687.2 1647.19 689.867 1648.93 692C1650.79 694 1653.26 695 1656.33 695H1662.33V707H1654.13ZM1699.05 707C1691.72 707 1685.85 704.8 1681.45 700.4C1677.18 696 1675.05 690.067 1675.05 682.6V629.4C1675.05 620.733 1677.45 613.933 1682.25 609C1687.05 604.067 1694.18 601.6 1703.65 601.6C1713.12 601.6 1720.18 604.067 1724.85 609C1729.65 613.933 1732.05 620.733 1732.05 629.4V638.6C1732.05 644.2 1730.45 648.467 1727.25 651.4C1724.05 654.2 1719.85 656.333 1714.65 657.8L1691.05 664.4V684C1691.05 687.2 1691.98 689.867 1693.85 692C1695.85 694 1698.38 695 1701.45 695H1723.05V707H1699.05ZM1703.25 648.4C1707.65 647.2 1710.58 646.333 1712.05 645.8C1713.65 645.133 1714.72 644.2 1715.25 643C1715.78 641.8 1716.05 639.8 1716.05 637V626C1716.05 621.733 1714.92 618.6 1712.65 616.6C1710.52 614.6 1707.52 613.6 1703.65 613.6C1699.92 613.6 1696.85 614.667 1694.45 616.8C1692.18 618.933 1691.05 622 1691.05 626V651.8L1703.25 648.4ZM1747.98 603H1760.38L1762.18 610.4L1767.18 608C1771.44 605.867 1774.98 604.267 1777.78 603.2C1780.71 602.133 1783.64 601.6 1786.58 601.6V613.4C1784.84 613.4 1782.51 613.933 1779.58 615C1776.64 615.933 1771.44 618.2 1763.98 621.8V707H1747.98V603ZM1822.69 707C1817.89 707 1813.43 705.8 1809.29 703.4C1805.29 701 1802.09 697.733 1799.69 693.6C1797.43 689.467 1796.29 684.8 1796.29 679.6V669.2C1796.29 662.933 1797.83 657.667 1800.89 653.4C1804.09 649.133 1808.03 646.133 1812.69 644.4L1837.49 635.2V625.8C1837.49 622.6 1836.49 620 1834.49 618C1832.63 615.867 1830.16 614.8 1827.09 614.8H1804.49V603H1828.49C1835.83 603 1841.63 605.2 1845.89 609.6C1850.29 613.867 1852.49 619.733 1852.49 627.2V707H1822.69ZM1837.49 694.8V647.8L1819.89 654.4C1816.43 655.733 1813.96 657.533 1812.49 659.8C1811.16 662.067 1810.49 665.667 1810.49 670.6V681.8C1810.49 685.4 1811.83 688.467 1814.49 691C1817.16 693.533 1820.36 694.8 1824.09 694.8H1837.49ZM1896.54 707C1889.21 707 1883.34 704.8 1878.94 700.4C1874.67 696 1872.54 690.067 1872.54 682.6V629.4C1872.54 621 1874.74 614.533 1879.14 610C1883.54 605.333 1889.94 603 1898.34 603H1920.54V615H1898.74C1895.67 615 1893.21 616.067 1891.34 618.2C1889.47 620.2 1888.54 622.8 1888.54 626V684C1888.54 687.2 1889.47 689.867 1891.34 692C1893.34 694 1895.87 695 1898.94 695H1920.54V707H1896.54ZM1963.5 707C1956.17 707 1950.37 704.8 1946.1 700.4C1941.83 696 1939.7 690.067 1939.7 682.6V615H1927.7V603H1939.7V572.8L1955.7 566.8V603H1971.7V615H1955.7V684C1955.7 687.2 1956.57 689.867 1958.3 692C1960.17 694 1962.63 695 1965.7 695H1971.7V707H1963.5ZM1987.63 586V570H2003.63V586H1987.63ZM1987.63 707V603H2003.63V707H1987.63ZM2042.46 707L2018.66 603H2035.26L2050.66 686.8L2065.86 603H2082.46L2058.66 707H2042.46ZM2118.19 707C2110.86 707 2104.99 704.8 2100.59 700.4C2096.32 696 2094.19 690.067 2094.19 682.6V629.4C2094.19 620.733 2096.59 613.933 2101.39 609C2106.19 604.067 2113.32 601.6 2122.79 601.6C2132.26 601.6 2139.32 604.067 2143.99 609C2148.79 613.933 2151.19 620.733 2151.19 629.4V638.6C2151.19 644.2 2149.59 648.467 2146.39 651.4C2143.19 654.2 2138.99 656.333 2133.79 657.8L2110.19 664.4V684C2110.19 687.2 2111.12 689.867 2112.99 692C2114.99 694 2117.52 695 2120.59 695H2142.19V707H2118.19ZM2122.39 648.4C2126.79 647.2 2129.72 646.333 2131.19 645.8C2132.79 645.133 2133.86 644.2 2134.39 643C2134.92 641.8 2135.19 639.8 2135.19 637V626C2135.19 621.733 2134.06 618.6 2131.79 616.6C2129.66 614.6 2126.66 613.6 2122.79 613.6C2119.06 613.6 2115.99 614.667 2113.59 616.8C2111.32 618.933 2110.19 622 2110.19 626V651.8L2122.39 648.4ZM2197.4 693.8H2219.2C2226.8 693.8 2232.26 691.533 2235.6 687C2239.06 682.467 2240.8 676.867 2240.8 670.2C2240.8 665 2239.8 660.533 2237.8 656.8C2235.93 652.933 2233.6 649.733 2230.8 647.2C2228 644.667 2224.2 641.733 2219.4 638.4C2214.33 634.933 2210.2 631.8 2207 629C2203.93 626.067 2201.33 622.4 2199.2 618C2197.06 613.6 2196 608.333 2196 602.2C2196 591.533 2199.2 583 2205.6 576.6C2212 570.2 2220.86 567 2232.2 567H2248.4V580.2H2233C2226.6 580.2 2221.73 582.267 2218.4 586.4C2215.06 590.533 2213.4 595.333 2213.4 600.8C2213.4 606.133 2214.93 610.533 2218 614C2221.06 617.467 2225.73 621.4 2232 625.8C2237.73 629.933 2242.33 633.667 2245.8 637C2249.26 640.2 2252.2 644.467 2254.6 649.8C2257.13 655.133 2258.4 661.533 2258.4 669C2258.4 681.533 2254.8 691 2247.6 697.4C2240.53 703.8 2230.8 707 2218.4 707H2197.4V693.8ZM2304.32 707C2296.99 707 2291.19 704.8 2286.92 700.4C2282.65 696 2280.52 690.067 2280.52 682.6V615H2268.52V603H2280.52V572.8L2296.52 566.8V603H2312.52V615H2296.52V684C2296.52 687.2 2297.39 689.867 2299.12 692C2300.99 694 2303.45 695 2306.52 695H2312.52V707H2304.32ZM2353.85 708.4C2344.51 708.4 2337.25 706.067 2332.05 701.4C2326.98 696.6 2324.45 690 2324.45 681.6V628.4C2324.45 620 2326.98 613.467 2332.05 608.8C2337.25 604 2344.51 601.6 2353.85 601.6C2363.18 601.6 2370.38 604 2375.45 608.8C2380.65 613.467 2383.25 620 2383.25 628.4V681.6C2383.25 690 2380.65 696.6 2375.45 701.4C2370.38 706.067 2363.18 708.4 2353.85 708.4ZM2353.85 696C2358.11 696 2361.45 694.8 2363.85 692.4C2366.38 689.867 2367.65 686.267 2367.65 681.6V628.4C2367.65 623.733 2366.38 620.2 2363.85 617.8C2361.45 615.267 2358.11 614 2353.85 614C2349.58 614 2346.18 615.267 2343.65 617.8C2341.25 620.2 2340.05 623.733 2340.05 628.4V681.6C2340.05 686.267 2341.25 689.867 2343.65 692.4C2346.18 694.8 2349.58 696 2353.85 696ZM2403.25 603H2415.65L2417.45 610.4L2422.45 608C2426.72 605.867 2430.25 604.267 2433.05 603.2C2435.98 602.133 2438.92 601.6 2441.85 601.6V613.4C2440.12 613.4 2437.78 613.933 2434.85 615C2431.92 615.933 2426.72 618.2 2419.25 621.8V707H2403.25V603ZM2456.17 727H2462.37C2465.97 727 2469.23 725.267 2472.17 721.8C2475.1 718.467 2476.57 713.467 2476.57 706.8L2448.77 603H2465.37L2482.77 687.4L2496.77 603H2512.57L2488.17 719C2485.37 732.333 2477.63 739 2464.97 739H2456.17V727ZM2556.47 707C2549.14 707 2543.34 704.8 2539.07 700.4C2534.8 696 2532.67 690.067 2532.67 682.6V615H2520.67V603H2532.67V572.8L2548.67 566.8V603H2564.67V615H2548.67V684C2548.67 687.2 2549.54 689.867 2551.27 692C2553.14 694 2555.6 695 2558.67 695H2564.67V707H2556.47ZM2601.39 707C2594.06 707 2588.19 704.8 2583.79 700.4C2579.53 696 2577.39 690.067 2577.39 682.6V629.4C2577.39 620.733 2579.79 613.933 2584.59 609C2589.39 604.067 2596.53 601.6 2605.99 601.6C2615.46 601.6 2622.53 604.067 2627.19 609C2631.99 613.933 2634.39 620.733 2634.39 629.4V638.6C2634.39 644.2 2632.79 648.467 2629.59 651.4C2626.39 654.2 2622.19 656.333 2616.99 657.8L2593.39 664.4V684C2593.39 687.2 2594.33 689.867 2596.19 692C2598.19 694 2600.73 695 2603.79 695H2625.39V707H2601.39ZM2605.59 648.4C2609.99 647.2 2612.93 646.333 2614.39 645.8C2615.99 645.133 2617.06 644.2 2617.59 643C2618.13 641.8 2618.39 639.8 2618.39 637V626C2618.39 621.733 2617.26 618.6 2614.99 616.6C2612.86 614.6 2609.86 613.6 2605.99 613.6C2602.26 613.6 2599.19 614.667 2596.79 616.8C2594.53 618.933 2593.39 622 2593.39 626V651.8L2605.59 648.4ZM2650.52 707V567H2666.52V707H2650.52ZM2690.56 707V567H2706.56V707H2690.56ZM2730.4 586V570H2746.4V586H2730.4ZM2730.4 707V603H2746.4V707H2730.4ZM2770.44 603H2782.84L2784.64 608.8L2792.84 606.4C2798.44 604.667 2802.84 603.467 2806.04 602.8C2809.37 602 2812.5 601.6 2815.44 601.6C2820.24 601.6 2823.77 603.267 2826.04 606.6C2828.3 609.933 2829.44 614.267 2829.44 619.6V707H2813.44V624.8C2813.44 620.933 2813.17 618.267 2812.64 616.8C2812.1 615.2 2810.77 614.4 2808.64 614.4C2807.57 614.4 2800.17 616.533 2786.44 620.8V707H2770.44V603ZM2860.09 727H2880.69C2883.75 727 2886.15 725.933 2887.89 723.8C2889.75 721.8 2890.69 719.2 2890.69 716V707.2H2874.09C2866.75 707.2 2860.55 704.8 2855.49 700C2850.42 695.2 2847.89 689.2 2847.89 682V628.2C2847.89 621 2850.42 615 2855.49 610.2C2860.69 605.4 2866.95 603 2874.29 603H2906.89V714.6C2906.89 722.067 2904.82 728 2900.69 732.4C2896.69 736.8 2891.02 739 2883.69 739H2860.09V727ZM2890.89 695.2V615H2877.49C2873.75 615 2870.55 616.267 2867.89 618.8C2865.22 621.333 2863.89 624.467 2863.89 628.2V682C2863.89 685.733 2865.22 688.867 2867.89 691.4C2870.55 693.933 2873.75 695.2 2877.49 695.2H2890.89Z" fill="white"/>
<path d="M1487.6 870L1508.14 779H1525.43L1545.19 870H1534.53L1528.16 843.22H1504.5L1498.65 870H1487.6ZM1506.45 834.38H1526.21L1516.85 787.58H1515.94L1506.45 834.38ZM1551.74 862.2H1562.79C1566.52 862.2 1569.21 861.203 1570.85 859.21C1572.59 857.13 1573.45 854.443 1573.45 851.15C1573.45 848.55 1572.67 846.34 1571.11 844.52C1569.55 842.7 1567.21 840.577 1564.09 838.15C1561.41 835.983 1559.24 834.12 1557.59 832.56C1556.03 830.913 1554.65 828.92 1553.43 826.58C1552.31 824.153 1551.74 821.38 1551.74 818.26C1551.74 813.667 1553.26 809.897 1556.29 806.95C1559.41 803.917 1563.57 802.4 1568.77 802.4H1580.08V810.2H1570.72C1564.57 810.2 1561.49 813.103 1561.49 818.91C1561.49 821.163 1562.19 823.113 1563.57 824.76C1564.96 826.407 1567.13 828.357 1570.07 830.61C1572.76 832.69 1574.97 834.597 1576.7 836.33C1578.44 837.977 1579.91 840.1 1581.12 842.7C1582.34 845.213 1582.94 848.203 1582.94 851.67C1582.94 857.823 1581.3 862.417 1578 865.45C1574.8 868.483 1570.25 870 1564.35 870H1551.74V862.2ZM1631.33 870C1625.87 870 1621.45 868.397 1618.07 865.19C1614.69 861.983 1613 857.693 1613 852.32V819.95C1613 816.223 1613.99 813.06 1615.99 810.46C1618.07 807.86 1620.62 806.083 1623.66 805.13L1641.08 799.02V779H1651.48V870H1631.33ZM1641.08 862.2V807.6L1629.51 811.5C1627.25 812.193 1625.65 813.32 1624.7 814.88C1623.83 816.353 1623.4 818.737 1623.4 822.03V852.32C1623.4 855.44 1624.31 857.867 1626.13 859.6C1627.95 861.333 1630.42 862.2 1633.54 862.2H1641.08ZM1667.11 791.35V780.95H1677.51V791.35H1667.11ZM1667.11 870V802.4H1677.51V870H1667.11ZM1696.38 810.98H1688.58V802.4H1696.38V794.86C1696.38 790.007 1697.77 786.15 1700.54 783.29C1703.32 780.43 1707.09 779 1711.85 779H1717.57V786.8H1713.67C1711.68 786.8 1710.03 787.493 1708.73 788.88C1707.43 790.267 1706.78 791.957 1706.78 793.95V802.4H1717.31V810.98H1706.78V870H1696.38V810.98ZM1739.28 870C1734.51 870 1730.7 868.57 1727.84 865.71C1725.07 862.85 1723.68 858.993 1723.68 854.14V819.56C1723.68 813.927 1725.24 809.507 1728.36 806.3C1731.48 803.093 1736.12 801.49 1742.27 801.49C1748.42 801.49 1753.02 803.093 1756.05 806.3C1759.17 809.507 1760.73 813.927 1760.73 819.56V825.54C1760.73 829.18 1759.69 831.953 1757.61 833.86C1755.53 835.68 1752.8 837.067 1749.42 838.02L1734.08 842.31V855.05C1734.08 857.13 1734.69 858.863 1735.9 860.25C1737.2 861.55 1738.85 862.2 1740.84 862.2H1754.88V870H1739.28ZM1742.01 831.91C1744.87 831.13 1746.78 830.567 1747.73 830.22C1748.77 829.787 1749.46 829.18 1749.81 828.4C1750.16 827.62 1750.33 826.32 1750.33 824.5V817.35C1750.33 814.577 1749.59 812.54 1748.12 811.24C1746.73 809.94 1744.78 809.29 1742.27 809.29C1739.84 809.29 1737.85 809.983 1736.29 811.37C1734.82 812.757 1734.08 814.75 1734.08 817.35V834.12L1742.01 831.91ZM1771.08 802.4H1779.14L1780.31 807.21L1783.56 805.65C1786.33 804.263 1788.63 803.223 1790.45 802.53C1792.36 801.837 1794.26 801.49 1796.17 801.49V809.16C1795.04 809.16 1793.53 809.507 1791.62 810.2C1789.71 810.807 1786.33 812.28 1781.48 814.62V870H1771.08V802.4ZM1819.39 870C1814.62 870 1810.81 868.57 1807.95 865.71C1805.17 862.85 1803.79 858.993 1803.79 854.14V819.56C1803.79 813.927 1805.35 809.507 1808.47 806.3C1811.59 803.093 1816.22 801.49 1822.38 801.49C1828.53 801.49 1833.12 803.093 1836.16 806.3C1839.28 809.507 1840.84 813.927 1840.84 819.56V825.54C1840.84 829.18 1839.8 831.953 1837.72 833.86C1835.64 835.68 1832.91 837.067 1829.53 838.02L1814.19 842.31V855.05C1814.19 857.13 1814.79 858.863 1816.01 860.25C1817.31 861.55 1818.95 862.2 1820.95 862.2H1834.99V870H1819.39ZM1822.12 831.91C1824.98 831.13 1826.88 830.567 1827.84 830.22C1828.88 829.787 1829.57 829.18 1829.92 828.4C1830.26 827.62 1830.44 826.32 1830.44 824.5V817.35C1830.44 814.577 1829.7 812.54 1828.23 811.24C1826.84 809.94 1824.89 809.29 1822.38 809.29C1819.95 809.29 1817.96 809.983 1816.4 811.37C1814.92 812.757 1814.19 814.75 1814.19 817.35V834.12L1822.12 831.91ZM1851.19 802.4H1859.25L1860.42 806.17L1865.75 804.61C1869.39 803.483 1872.25 802.703 1874.33 802.27C1876.5 801.75 1878.53 801.49 1880.44 801.49C1883.56 801.49 1885.86 802.573 1887.33 804.74C1888.8 806.907 1889.54 809.723 1889.54 813.19V870H1879.14V816.57C1879.14 814.057 1878.97 812.323 1878.62 811.37C1878.27 810.33 1877.41 809.81 1876.02 809.81C1875.33 809.81 1870.52 811.197 1861.59 813.97V870H1851.19V802.4ZM1922.85 870C1918.08 870 1914.31 868.57 1911.54 865.71C1908.77 862.85 1907.38 858.993 1907.38 854.14V810.2H1899.58V802.4H1907.38V782.77L1917.78 778.87V802.4H1928.18V810.2H1917.78V855.05C1917.78 857.13 1918.34 858.863 1919.47 860.25C1920.68 861.55 1922.29 862.2 1924.28 862.2H1928.18V870H1922.85ZM1952.05 870C1947.29 870 1943.47 868.57 1940.61 865.71C1937.84 862.85 1936.45 858.993 1936.45 854.14V819.56C1936.45 813.927 1938.01 809.507 1941.13 806.3C1944.25 803.093 1948.89 801.49 1955.04 801.49C1961.2 801.49 1965.79 803.093 1968.82 806.3C1971.94 809.507 1973.5 813.927 1973.5 819.56V825.54C1973.5 829.18 1972.46 831.953 1970.38 833.86C1968.3 835.68 1965.57 837.067 1962.19 838.02L1946.85 842.31V855.05C1946.85 857.13 1947.46 858.863 1948.67 860.25C1949.97 861.55 1951.62 862.2 1953.61 862.2H1967.65V870H1952.05ZM1954.78 831.91C1957.64 831.13 1959.55 830.567 1960.5 830.22C1961.54 829.787 1962.24 829.18 1962.58 828.4C1962.93 827.62 1963.1 826.32 1963.1 824.5V817.35C1963.1 814.577 1962.37 812.54 1960.89 811.24C1959.51 809.94 1957.56 809.29 1955.04 809.29C1952.62 809.29 1950.62 809.983 1949.06 811.37C1947.59 812.757 1946.85 814.75 1946.85 817.35V834.12L1954.78 831.91ZM1979.95 862.2H1991C1994.73 862.2 1997.42 861.203 1999.06 859.21C2000.8 857.13 2001.66 854.443 2001.66 851.15C2001.66 848.55 2000.88 846.34 1999.32 844.52C1997.76 842.7 1995.42 840.577 1992.3 838.15C1989.62 835.983 1987.45 834.12 1985.8 832.56C1984.24 830.913 1982.86 828.92 1981.64 826.58C1980.52 824.153 1979.95 821.38 1979.95 818.26C1979.95 813.667 1981.47 809.897 1984.5 806.95C1987.62 803.917 1991.78 802.4 1996.98 802.4H2008.29V810.2H1998.93C1992.78 810.2 1989.7 813.103 1989.7 818.91C1989.7 821.163 1990.4 823.113 1991.78 824.76C1993.17 826.407 1995.34 828.357 1998.28 830.61C2000.97 832.69 2003.18 834.597 2004.91 836.33C2006.65 837.977 2008.12 840.1 2009.33 842.7C2010.55 845.213 2011.15 848.203 2011.15 851.67C2011.15 857.823 2009.51 862.417 2006.21 865.45C2003.01 868.483 1998.46 870 1992.56 870H1979.95V862.2ZM2045.63 810.98H2037.83V802.4H2045.63V794.86C2045.63 790.007 2047.02 786.15 2049.79 783.29C2052.56 780.43 2056.33 779 2061.1 779H2066.82V786.8H2062.92C2060.93 786.8 2059.28 787.493 2057.98 788.88C2056.68 790.267 2056.03 791.957 2056.03 793.95V802.4H2066.56V810.98H2056.03V870H2045.63V810.98ZM2091.52 870.91C2085.45 870.91 2080.73 869.393 2077.35 866.36C2074.05 863.24 2072.41 858.95 2072.41 853.49V818.91C2072.41 813.45 2074.05 809.203 2077.35 806.17C2080.73 803.05 2085.45 801.49 2091.52 801.49C2097.58 801.49 2102.26 803.05 2105.56 806.17C2108.94 809.203 2110.63 813.45 2110.63 818.91V853.49C2110.63 858.95 2108.94 863.24 2105.56 866.36C2102.26 869.393 2097.58 870.91 2091.52 870.91ZM2091.52 862.85C2094.29 862.85 2096.46 862.07 2098.02 860.51C2099.66 858.863 2100.49 856.523 2100.49 853.49V818.91C2100.49 815.877 2099.66 813.58 2098.02 812.02C2096.46 810.373 2094.29 809.55 2091.52 809.55C2088.74 809.55 2086.53 810.373 2084.89 812.02C2083.33 813.58 2082.55 815.877 2082.55 818.91V853.49C2082.55 856.523 2083.33 858.863 2084.89 860.51C2086.53 862.07 2088.74 862.85 2091.52 862.85ZM2123.63 802.4H2131.69L2132.86 807.21L2136.11 805.65C2138.88 804.263 2141.18 803.223 2143 802.53C2144.91 801.837 2146.81 801.49 2148.72 801.49V809.16C2147.59 809.16 2146.08 809.507 2144.17 810.2C2142.26 810.807 2138.88 812.28 2134.03 814.62V870H2123.63V802.4ZM2158.42 802.4H2166.48L2167.65 806.17L2172.98 804.61C2176.62 803.483 2179.48 802.703 2181.56 802.27C2183.72 801.75 2185.76 801.49 2187.67 801.49C2191.39 801.49 2193.99 803.137 2195.47 806.43C2197.89 805.563 2201.32 804.523 2205.74 803.31C2210.16 802.097 2213.41 801.49 2215.49 801.49C2218.61 801.49 2220.9 802.573 2222.38 804.74C2223.94 806.907 2224.72 809.723 2224.72 813.19V870H2214.32V816.57C2214.32 814.057 2214.14 812.323 2213.8 811.37C2213.45 810.33 2212.58 809.81 2211.2 809.81C2210.5 809.81 2205.74 811.197 2196.9 813.97V870H2186.5V816.57C2186.5 814.057 2186.32 812.323 2185.98 811.37C2185.63 810.33 2184.76 809.81 2183.38 809.81C2182.68 809.81 2177.83 811.197 2168.82 813.97V870H2158.42V802.4ZM2252.81 870C2249.69 870 2246.79 869.22 2244.1 867.66C2241.5 866.1 2239.42 863.977 2237.86 861.29C2236.39 858.603 2235.65 855.57 2235.65 852.19V845.43C2235.65 841.357 2236.65 837.933 2238.64 835.16C2240.72 832.387 2243.28 830.437 2246.31 829.31L2262.43 823.33V817.22C2262.43 815.14 2261.78 813.45 2260.48 812.15C2259.27 810.763 2257.66 810.07 2255.67 810.07H2240.98V802.4H2256.58C2261.35 802.4 2265.12 803.83 2267.89 806.69C2270.75 809.463 2272.18 813.277 2272.18 818.13V870H2252.81ZM2262.43 862.07V831.52L2250.99 835.81C2248.74 836.677 2247.13 837.847 2246.18 839.32C2245.31 840.793 2244.88 843.133 2244.88 846.34V853.62C2244.88 855.96 2245.75 857.953 2247.48 859.6C2249.21 861.247 2251.29 862.07 2253.72 862.07H2262.43ZM2282.61 862.2H2293.66C2297.39 862.2 2300.07 861.203 2301.72 859.21C2303.45 857.13 2304.32 854.443 2304.32 851.15C2304.32 848.55 2303.54 846.34 2301.98 844.52C2300.42 842.7 2298.08 840.577 2294.96 838.15C2292.27 835.983 2290.11 834.12 2288.46 832.56C2286.9 830.913 2285.51 828.92 2284.3 826.58C2283.17 824.153 2282.61 821.38 2282.61 818.26C2282.61 813.667 2284.13 809.897 2287.16 806.95C2290.28 803.917 2294.44 802.4 2299.64 802.4H2310.95V810.2H2301.59C2295.44 810.2 2292.36 813.103 2292.36 818.91C2292.36 821.163 2293.05 823.113 2294.44 824.76C2295.83 826.407 2297.99 828.357 2300.94 830.61C2303.63 832.69 2305.84 834.597 2307.57 836.33C2309.3 837.977 2310.78 840.1 2311.99 842.7C2313.2 845.213 2313.81 848.203 2313.81 851.67C2313.81 857.823 2312.16 862.417 2308.87 865.45C2305.66 868.483 2301.11 870 2295.22 870H2282.61V862.2ZM2358.56 870C2353.79 870 2349.98 868.57 2347.12 865.71C2344.34 862.85 2342.96 858.993 2342.96 854.14V819.56C2342.96 813.927 2344.52 809.507 2347.64 806.3C2350.76 803.093 2355.39 801.49 2361.55 801.49C2367.7 801.49 2372.29 803.093 2375.33 806.3C2378.45 809.507 2380.01 813.927 2380.01 819.56V825.54C2380.01 829.18 2378.97 831.953 2376.89 833.86C2374.81 835.68 2372.08 837.067 2368.7 838.02L2353.36 842.31V855.05C2353.36 857.13 2353.96 858.863 2355.18 860.25C2356.48 861.55 2358.12 862.2 2360.12 862.2H2374.16V870H2358.56ZM2361.29 831.91C2364.15 831.13 2366.05 830.567 2367.01 830.22C2368.05 829.787 2368.74 829.18 2369.09 828.4C2369.43 827.62 2369.61 826.32 2369.61 824.5V817.35C2369.61 814.577 2368.87 812.54 2367.4 811.24C2366.01 809.94 2364.06 809.29 2361.55 809.29C2359.12 809.29 2357.13 809.983 2355.57 811.37C2354.09 812.757 2353.36 814.75 2353.36 817.35V834.12L2361.29 831.91ZM2413.16 810.98H2405.36V802.4H2413.16V794.86C2413.16 790.007 2414.55 786.15 2417.32 783.29C2420.09 780.43 2423.86 779 2428.63 779H2434.35V786.8H2430.45C2428.46 786.8 2426.81 787.493 2425.51 788.88C2424.21 790.267 2423.56 791.957 2423.56 793.95V802.4H2434.09V810.98H2423.56V870H2413.16V810.98ZM2459.05 870.91C2452.98 870.91 2448.26 869.393 2444.88 866.36C2441.58 863.24 2439.94 858.95 2439.94 853.49V818.91C2439.94 813.45 2441.58 809.203 2444.88 806.17C2448.26 803.05 2452.98 801.49 2459.05 801.49C2465.11 801.49 2469.79 803.05 2473.09 806.17C2476.47 809.203 2478.16 813.45 2478.16 818.91V853.49C2478.16 858.95 2476.47 863.24 2473.09 866.36C2469.79 869.393 2465.11 870.91 2459.05 870.91ZM2459.05 862.85C2461.82 862.85 2463.99 862.07 2465.55 860.51C2467.19 858.863 2468.02 856.523 2468.02 853.49V818.91C2468.02 815.877 2467.19 813.58 2465.55 812.02C2463.99 810.373 2461.82 809.55 2459.05 809.55C2456.27 809.55 2454.06 810.373 2452.42 812.02C2450.86 813.58 2450.08 815.877 2450.08 818.91V853.49C2450.08 856.523 2450.86 858.863 2452.42 860.51C2454.06 862.07 2456.27 862.85 2459.05 862.85ZM2491.16 802.4H2499.22L2500.39 807.21L2503.64 805.65C2506.41 804.263 2508.71 803.223 2510.53 802.53C2512.44 801.837 2514.34 801.49 2516.25 801.49V809.16C2515.12 809.16 2513.61 809.507 2511.7 810.2C2509.79 810.807 2506.41 812.28 2501.56 814.62V870H2491.16V802.4ZM2525.94 802.4H2534L2535.17 806.17L2540.5 804.61C2544.14 803.483 2547 802.703 2549.08 802.27C2551.25 801.75 2553.29 801.49 2555.19 801.49C2558.92 801.49 2561.52 803.137 2562.99 806.43C2565.42 805.563 2568.84 804.523 2573.26 803.31C2577.68 802.097 2580.93 801.49 2583.01 801.49C2586.13 801.49 2588.43 802.573 2589.9 804.74C2591.46 806.907 2592.24 809.723 2592.24 813.19V870H2581.84V816.57C2581.84 814.057 2581.67 812.323 2581.32 811.37C2580.98 810.33 2580.11 809.81 2578.72 809.81C2578.03 809.81 2573.26 811.197 2564.42 813.97V870H2554.02V816.57C2554.02 814.057 2553.85 812.323 2553.5 811.37C2553.16 810.33 2552.29 809.81 2550.9 809.81C2550.21 809.81 2545.36 811.197 2536.34 813.97V870H2525.94V802.4ZM2620.34 870C2617.22 870 2614.32 869.22 2611.63 867.66C2609.03 866.1 2606.95 863.977 2605.39 861.29C2603.92 858.603 2603.18 855.57 2603.18 852.19V845.43C2603.18 841.357 2604.18 837.933 2606.17 835.16C2608.25 832.387 2610.81 830.437 2613.84 829.31L2629.96 823.33V817.22C2629.96 815.14 2629.31 813.45 2628.01 812.15C2626.8 810.763 2625.19 810.07 2623.2 810.07H2608.51V802.4H2624.11C2628.88 802.4 2632.65 803.83 2635.42 806.69C2638.28 809.463 2639.71 813.277 2639.71 818.13V870H2620.34ZM2629.96 862.07V831.52L2618.52 835.81C2616.27 836.677 2614.66 837.847 2613.71 839.32C2612.84 840.793 2612.41 843.133 2612.41 846.34V853.62C2612.41 855.96 2613.28 857.953 2615.01 859.6C2616.74 861.247 2618.82 862.07 2621.25 862.07H2629.96ZM2672.89 870C2668.12 870 2664.35 868.57 2661.58 865.71C2658.81 862.85 2657.42 858.993 2657.42 854.14V810.2H2649.62V802.4H2657.42V782.77L2667.82 778.87V802.4H2678.22V810.2H2667.82V855.05C2667.82 857.13 2668.38 858.863 2669.51 860.25C2670.72 861.55 2672.33 862.2 2674.32 862.2H2678.22V870H2672.89ZM2705.08 870.91C2699.01 870.91 2694.29 869.393 2690.91 866.36C2687.62 863.24 2685.97 858.95 2685.97 853.49V818.91C2685.97 813.45 2687.62 809.203 2690.91 806.17C2694.29 803.05 2699.01 801.49 2705.08 801.49C2711.15 801.49 2715.83 803.05 2719.12 806.17C2722.5 809.203 2724.19 813.45 2724.19 818.91V853.49C2724.19 858.95 2722.5 863.24 2719.12 866.36C2715.83 869.393 2711.15 870.91 2705.08 870.91ZM2705.08 862.85C2707.85 862.85 2710.02 862.07 2711.58 860.51C2713.23 858.863 2714.05 856.523 2714.05 853.49V818.91C2714.05 815.877 2713.23 813.58 2711.58 812.02C2710.02 810.373 2707.85 809.55 2705.08 809.55C2702.31 809.55 2700.1 810.373 2698.45 812.02C2696.89 813.58 2696.11 815.877 2696.11 818.91V853.49C2696.11 856.523 2696.89 858.863 2698.45 860.51C2700.1 862.07 2702.31 862.85 2705.08 862.85ZM2733.29 862.2H2744.34C2748.07 862.2 2750.76 861.203 2752.4 859.21C2754.14 857.13 2755 854.443 2755 851.15C2755 848.55 2754.22 846.34 2752.66 844.52C2751.1 842.7 2748.76 840.577 2745.64 838.15C2742.96 835.983 2740.79 834.12 2739.14 832.56C2737.58 830.913 2736.2 828.92 2734.98 826.58C2733.86 824.153 2733.29 821.38 2733.29 818.26C2733.29 813.667 2734.81 809.897 2737.84 806.95C2740.96 803.917 2745.12 802.4 2750.32 802.4H2761.63V810.2H2752.27C2746.12 810.2 2743.04 813.103 2743.04 818.91C2743.04 821.163 2743.74 823.113 2745.12 824.76C2746.51 826.407 2748.68 828.357 2751.62 830.61C2754.31 832.69 2756.52 834.597 2758.25 836.33C2759.99 837.977 2761.46 840.1 2762.67 842.7C2763.89 845.213 2764.49 848.203 2764.49 851.67C2764.49 857.823 2762.85 862.417 2759.55 865.45C2756.35 868.483 2751.8 870 2745.9 870H2733.29V862.2ZM1492.8 932.4H1500.86L1502.03 936.17L1507.36 934.61C1511 933.483 1513.86 932.703 1515.94 932.27C1518.11 931.75 1520.14 931.49 1522.05 931.49C1525.17 931.49 1527.47 932.573 1528.94 934.74C1530.41 936.907 1531.15 939.723 1531.15 943.19V1000H1520.75V946.57C1520.75 944.057 1520.58 942.323 1520.23 941.37C1519.88 940.33 1519.02 939.81 1517.63 939.81C1516.94 939.81 1512.13 941.197 1503.2 943.97V1000H1492.8V932.4ZM1559.39 1000C1556.27 1000 1553.37 999.22 1550.68 997.66C1548.08 996.1 1546 993.977 1544.44 991.29C1542.97 988.603 1542.23 985.57 1542.23 982.19V975.43C1542.23 971.357 1543.23 967.933 1545.22 965.16C1547.3 962.387 1549.86 960.437 1552.89 959.31L1569.01 953.33V947.22C1569.01 945.14 1568.36 943.45 1567.06 942.15C1565.85 940.763 1564.25 940.07 1562.25 940.07H1547.56V932.4H1563.16C1567.93 932.4 1571.7 933.83 1574.47 936.69C1577.33 939.463 1578.76 943.277 1578.76 948.13V1000H1559.39ZM1569.01 992.07V961.52L1557.57 965.81C1555.32 966.677 1553.72 967.847 1552.76 969.32C1551.9 970.793 1551.46 973.133 1551.46 976.34V983.62C1551.46 985.96 1552.33 987.953 1554.06 989.6C1555.8 991.247 1557.88 992.07 1560.3 992.07H1569.01ZM1593.09 932.4H1601.15L1602.32 937.21L1605.57 935.65C1608.35 934.263 1610.64 933.223 1612.46 932.53C1614.37 931.837 1616.28 931.49 1618.18 931.49V939.16C1617.06 939.16 1615.54 939.507 1613.63 940.2C1611.73 940.807 1608.35 942.28 1603.49 944.62V1000H1593.09V932.4ZM1627.88 932.4H1635.94L1637.11 937.21L1640.36 935.65C1643.13 934.263 1645.43 933.223 1647.25 932.53C1649.15 931.837 1651.06 931.49 1652.97 931.49V939.16C1651.84 939.16 1650.32 939.507 1648.42 940.2C1646.51 940.807 1643.13 942.28 1638.28 944.62V1000H1627.88V932.4ZM1676.44 1000C1673.32 1000 1670.42 999.22 1667.73 997.66C1665.13 996.1 1663.05 993.977 1661.49 991.29C1660.02 988.603 1659.28 985.57 1659.28 982.19V975.43C1659.28 971.357 1660.28 967.933 1662.27 965.16C1664.35 962.387 1666.91 960.437 1669.94 959.31L1686.06 953.33V947.22C1686.06 945.14 1685.41 943.45 1684.11 942.15C1682.9 940.763 1681.3 940.07 1679.3 940.07H1664.61V932.4H1680.21C1684.98 932.4 1688.75 933.83 1691.52 936.69C1694.38 939.463 1695.81 943.277 1695.81 948.13V1000H1676.44ZM1686.06 992.07V961.52L1674.62 965.81C1672.37 966.677 1670.77 967.847 1669.81 969.32C1668.95 970.793 1668.51 973.133 1668.51 976.34V983.62C1668.51 985.96 1669.38 987.953 1671.11 989.6C1672.85 991.247 1674.93 992.07 1677.35 992.07H1686.06ZM1728.99 1000C1724.23 1000 1720.46 998.57 1717.68 995.71C1714.91 992.85 1713.52 988.993 1713.52 984.14V940.2H1705.72V932.4H1713.52V912.77L1723.92 908.87V932.4H1734.32V940.2H1723.92V985.05C1723.92 987.13 1724.49 988.863 1725.61 990.25C1726.83 991.55 1728.43 992.2 1730.42 992.2H1734.32V1000H1728.99ZM1744.68 921.35V910.95H1755.08V921.35H1744.68ZM1744.68 1000V932.4H1755.08V1000H1744.68ZM1780.32 1000L1764.85 932.4H1775.64L1785.65 986.87L1795.53 932.4H1806.32L1790.85 1000H1780.32ZM1832.53 1000.91C1826.47 1000.91 1821.74 999.393 1818.36 996.36C1815.07 993.24 1813.42 988.95 1813.42 983.49V948.91C1813.42 943.45 1815.07 939.203 1818.36 936.17C1821.74 933.05 1826.47 931.49 1832.53 931.49C1838.6 931.49 1843.28 933.05 1846.57 936.17C1849.95 939.203 1851.64 943.45 1851.64 948.91V983.49C1851.64 988.95 1849.95 993.24 1846.57 996.36C1843.28 999.393 1838.6 1000.91 1832.53 1000.91ZM1832.53 992.85C1835.31 992.85 1837.47 992.07 1839.03 990.51C1840.68 988.863 1841.5 986.523 1841.5 983.49V948.91C1841.5 945.877 1840.68 943.58 1839.03 942.02C1837.47 940.373 1835.31 939.55 1832.53 939.55C1829.76 939.55 1827.55 940.373 1825.9 942.02C1824.34 943.58 1823.56 945.877 1823.56 948.91V983.49C1823.56 986.523 1824.34 988.863 1825.9 990.51C1827.55 992.07 1829.76 992.85 1832.53 992.85ZM1860.75 992.2H1871.8C1875.52 992.2 1878.21 991.203 1879.86 989.21C1881.59 987.13 1882.46 984.443 1882.46 981.15C1882.46 978.55 1881.68 976.34 1880.12 974.52C1878.56 972.7 1876.22 970.577 1873.1 968.15C1870.41 965.983 1868.24 964.12 1866.6 962.56C1865.04 960.913 1863.65 958.92 1862.44 956.58C1861.31 954.153 1860.75 951.38 1860.75 948.26C1860.75 943.667 1862.26 939.897 1865.3 936.95C1868.42 933.917 1872.58 932.4 1877.78 932.4H1889.09V940.2H1879.73C1873.57 940.2 1870.5 943.103 1870.5 948.91C1870.5 951.163 1871.19 953.113 1872.58 954.76C1873.96 956.407 1876.13 958.357 1879.08 960.61C1881.76 962.69 1883.97 964.597 1885.71 966.33C1887.44 967.977 1888.91 970.1 1890.13 972.7C1891.34 975.213 1891.95 978.203 1891.95 981.67C1891.95 987.823 1890.3 992.417 1887.01 995.45C1883.8 998.483 1879.25 1000 1873.36 1000H1860.75V992.2ZM1940.33 1000C1934.87 1000 1930.45 998.397 1927.07 995.19C1923.69 991.983 1922 987.693 1922 982.32V949.95C1922 946.223 1923 943.06 1924.99 940.46C1927.07 937.86 1929.63 936.083 1932.66 935.13L1950.08 929.02V909H1960.48V1000H1940.33ZM1950.08 992.2V937.6L1938.51 941.5C1936.26 942.193 1934.65 943.32 1933.7 944.88C1932.83 946.353 1932.4 948.737 1932.4 952.03V982.32C1932.4 985.44 1933.31 987.867 1935.13 989.6C1936.95 991.333 1939.42 992.2 1942.54 992.2H1950.08ZM1989.89 1000C1986.77 1000 1983.87 999.22 1981.18 997.66C1978.58 996.1 1976.5 993.977 1974.94 991.29C1973.47 988.603 1972.73 985.57 1972.73 982.19V975.43C1972.73 971.357 1973.73 967.933 1975.72 965.16C1977.8 962.387 1980.36 960.437 1983.39 959.31L1999.51 953.33V947.22C1999.51 945.14 1998.86 943.45 1997.56 942.15C1996.35 940.763 1994.74 940.07 1992.75 940.07H1978.06V932.4H1993.66C1998.43 932.4 2002.2 933.83 2004.97 936.69C2007.83 939.463 2009.26 943.277 2009.26 948.13V1000H1989.89ZM1999.51 992.07V961.52L1988.07 965.81C1985.82 966.677 1984.21 967.847 1983.26 969.32C1982.39 970.793 1981.96 973.133 1981.96 976.34V983.62C1981.96 985.96 1982.83 987.953 1984.56 989.6C1986.29 991.247 1988.37 992.07 1990.8 992.07H1999.51ZM2043.14 932.4H2051.2L2052.37 936.17L2057.7 934.61C2061.34 933.483 2064.2 932.703 2066.28 932.27C2068.45 931.75 2070.49 931.49 2072.39 931.49C2076.12 931.49 2078.72 933.137 2080.19 936.43C2082.62 935.563 2086.04 934.523 2090.46 933.31C2094.88 932.097 2098.13 931.49 2100.21 931.49C2103.33 931.49 2105.63 932.573 2107.1 934.74C2108.66 936.907 2109.44 939.723 2109.44 943.19V1000H2099.04V946.57C2099.04 944.057 2098.87 942.323 2098.52 941.37C2098.18 940.33 2097.31 939.81 2095.92 939.81C2095.23 939.81 2090.46 941.197 2081.62 943.97V1000H2071.22V946.57C2071.22 944.057 2071.05 942.323 2070.7 941.37C2070.36 940.33 2069.49 939.81 2068.1 939.81C2067.41 939.81 2062.56 941.197 2053.54 943.97V1000H2043.14V932.4ZM2126.62 927.33L2122.33 923.43L2137.41 910.56L2144.04 916.67L2126.62 927.33ZM2123.76 1000V932.4H2134.16V1000H2123.76ZM2166.94 1000C2161.48 1000 2157.06 998.397 2153.68 995.19C2150.3 991.983 2148.61 987.693 2148.61 982.32V949.95C2148.61 946.223 2149.61 943.06 2151.6 940.46C2153.68 937.86 2156.24 936.083 2159.27 935.13L2176.69 929.02V909H2187.09V1000H2166.94ZM2176.69 992.2V937.6L2165.12 941.5C2162.87 942.193 2161.27 943.32 2160.31 944.88C2159.45 946.353 2159.01 948.737 2159.01 952.03V982.32C2159.01 985.44 2159.92 987.867 2161.74 989.6C2163.56 991.333 2166.03 992.2 2169.15 992.2H2176.69ZM2202.72 921.35V910.95H2213.12V921.35H2202.72ZM2202.72 1000V932.4H2213.12V1000H2202.72ZM2242.53 1000C2239.41 1000 2236.5 999.22 2233.82 997.66C2231.22 996.1 2229.14 993.977 2227.58 991.29C2226.1 988.603 2225.37 985.57 2225.37 982.19V975.43C2225.37 971.357 2226.36 967.933 2228.36 965.16C2230.44 962.387 2232.99 960.437 2236.03 959.31L2252.15 953.33V947.22C2252.15 945.14 2251.5 943.45 2250.2 942.15C2248.98 940.763 2247.38 940.07 2245.39 940.07H2230.7V932.4H2246.3C2251.06 932.4 2254.83 933.83 2257.61 936.69C2260.47 939.463 2261.9 943.277 2261.9 948.13V1000H2242.53ZM2252.15 992.07V961.52L2240.71 965.81C2238.45 966.677 2236.85 967.847 2235.9 969.32C2235.03 970.793 2234.6 973.133 2234.6 976.34V983.62C2234.6 985.96 2235.46 987.953 2237.2 989.6C2238.93 991.247 2241.01 992.07 2243.44 992.07H2252.15ZM2310.08 1000C2305.31 1000 2301.5 998.57 2298.64 995.71C2295.87 992.85 2294.48 988.993 2294.48 984.14V949.56C2294.48 944.1 2295.91 939.897 2298.77 936.95C2301.63 933.917 2305.79 932.4 2311.25 932.4H2325.68V940.2H2311.51C2309.52 940.2 2307.91 940.893 2306.7 942.28C2305.49 943.58 2304.88 945.27 2304.88 947.35V985.05C2304.88 987.13 2305.49 988.863 2306.7 990.25C2308 991.55 2309.65 992.2 2311.64 992.2H2325.68V1000H2310.08ZM2351.26 1000.91C2345.2 1000.91 2340.47 999.393 2337.09 996.36C2333.8 993.24 2332.15 988.95 2332.15 983.49V948.91C2332.15 943.45 2333.8 939.203 2337.09 936.17C2340.47 933.05 2345.2 931.49 2351.26 931.49C2357.33 931.49 2362.01 933.05 2365.3 936.17C2368.68 939.203 2370.37 943.45 2370.37 948.91V983.49C2370.37 988.95 2368.68 993.24 2365.3 996.36C2362.01 999.393 2357.33 1000.91 2351.26 1000.91ZM2351.26 992.85C2354.04 992.85 2356.2 992.07 2357.76 990.51C2359.41 988.863 2360.23 986.523 2360.23 983.49V948.91C2360.23 945.877 2359.41 943.58 2357.76 942.02C2356.2 940.373 2354.04 939.55 2351.26 939.55C2348.49 939.55 2346.28 940.373 2344.63 942.02C2343.07 943.58 2342.29 945.877 2342.29 948.91V983.49C2342.29 986.523 2343.07 988.863 2344.63 990.51C2346.28 992.07 2348.49 992.85 2351.26 992.85ZM2383.38 932.4H2391.44L2392.61 936.17L2397.94 934.61C2401.58 933.483 2404.44 932.703 2406.52 932.27C2408.68 931.75 2410.72 931.49 2412.63 931.49C2416.35 931.49 2418.95 933.137 2420.43 936.43C2422.85 935.563 2426.28 934.523 2430.7 933.31C2435.12 932.097 2438.37 931.49 2440.45 931.49C2443.57 931.49 2445.86 932.573 2447.34 934.74C2448.9 936.907 2449.68 939.723 2449.68 943.19V1000H2439.28V946.57C2439.28 944.057 2439.1 942.323 2438.76 941.37C2438.41 940.33 2437.54 939.81 2436.16 939.81C2435.46 939.81 2430.7 941.197 2421.86 943.97V1000H2411.46V946.57C2411.46 944.057 2411.28 942.323 2410.94 941.37C2410.59 940.33 2409.72 939.81 2408.34 939.81C2407.64 939.81 2402.79 941.197 2393.78 943.97V1000H2383.38V932.4ZM2463.99 932.4H2485.05C2489.82 932.4 2493.85 933.96 2497.14 937.08C2500.52 940.2 2502.21 944.1 2502.21 948.78V983.75C2502.21 988.43 2500.56 992.33 2497.27 995.45C2493.98 998.483 2489.95 1000 2485.18 1000H2474.39V1020.8H2463.99V932.4ZM2482.97 992.33C2485.4 992.33 2487.48 991.507 2489.21 989.86C2490.94 988.213 2491.81 986.177 2491.81 983.75V948.78C2491.81 946.353 2490.94 944.317 2489.21 942.67C2487.48 941.023 2485.4 940.2 2482.97 940.2H2474.39V992.33H2482.97ZM2522.45 1000.91C2519.33 1000.91 2516.99 999.827 2515.43 997.66C2513.96 995.493 2513.22 992.677 2513.22 989.21V932.4H2523.62V985.83C2523.62 988.257 2523.79 989.99 2524.14 991.03C2524.49 992.07 2525.31 992.59 2526.61 992.59C2527.22 992.59 2532.11 991.29 2541.3 988.69V932.4H2551.7V1000H2544.29L2542.34 995.58C2540.95 996.1 2539.91 996.447 2539.22 996.62C2535.15 998.093 2531.85 999.177 2529.34 999.87C2526.83 1000.56 2524.53 1000.91 2522.45 1000.91ZM2586.18 1000C2581.41 1000 2577.64 998.57 2574.87 995.71C2572.1 992.85 2570.71 988.993 2570.71 984.14V940.2H2562.91V932.4H2570.71V912.77L2581.11 908.87V932.4H2591.51V940.2H2581.11V985.05C2581.11 987.13 2581.67 988.863 2582.8 990.25C2584.01 991.55 2585.62 992.2 2587.61 992.2H2591.51V1000H2586.18ZM2615.64 1000C2612.52 1000 2609.62 999.22 2606.93 997.66C2604.33 996.1 2602.25 993.977 2600.69 991.29C2599.22 988.603 2598.48 985.57 2598.48 982.19V975.43C2598.48 971.357 2599.48 967.933 2601.47 965.16C2603.55 962.387 2606.11 960.437 2609.14 959.31L2625.26 953.33V947.22C2625.26 945.14 2624.61 943.45 2623.31 942.15C2622.1 940.763 2620.5 940.07 2618.5 940.07H2603.81V932.4H2619.41C2624.18 932.4 2627.95 933.83 2630.72 936.69C2633.58 939.463 2635.01 943.277 2635.01 948.13V1000H2615.64ZM2625.26 992.07V961.52L2613.82 965.81C2611.57 966.677 2609.97 967.847 2609.01 969.32C2608.15 970.793 2607.71 973.133 2607.71 976.34V983.62C2607.71 985.96 2608.58 987.953 2610.31 989.6C2612.05 991.247 2614.13 992.07 2616.55 992.07H2625.26ZM2663.64 1000C2658.88 1000 2655.06 998.57 2652.2 995.71C2649.43 992.85 2648.04 988.993 2648.04 984.14V949.56C2648.04 944.1 2649.47 939.897 2652.33 936.95C2655.19 933.917 2659.35 932.4 2664.81 932.4H2679.24V940.2H2665.07C2663.08 940.2 2661.48 940.893 2660.26 942.28C2659.05 943.58 2658.44 945.27 2658.44 947.35V985.05C2658.44 987.13 2659.05 988.863 2660.26 990.25C2661.56 991.55 2663.21 992.2 2665.2 992.2H2679.24V1000H2663.64ZM2688.32 921.35V910.95H2698.72V921.35H2688.32ZM2688.32 1000V932.4H2698.72V1000H2688.32ZM2730.85 1000.91C2724.79 1000.91 2720.06 999.393 2716.68 996.36C2713.39 993.24 2711.74 988.95 2711.74 983.49V948.91C2711.74 943.45 2713.39 939.203 2716.68 936.17C2720.06 933.05 2724.79 931.49 2730.85 931.49C2736.92 931.49 2741.6 933.05 2744.89 936.17C2748.27 939.203 2749.96 943.45 2749.96 948.91V983.49C2749.96 988.95 2748.27 993.24 2744.89 996.36C2741.6 999.393 2736.92 1000.91 2730.85 1000.91ZM2730.85 992.85C2733.63 992.85 2735.79 992.07 2737.35 990.51C2739 988.863 2739.82 986.523 2739.82 983.49V948.91C2739.82 945.877 2739 943.58 2737.35 942.02C2735.79 940.373 2733.63 939.55 2730.85 939.55C2728.08 939.55 2725.87 940.373 2724.22 942.02C2722.66 943.58 2721.88 945.877 2721.88 948.91V983.49C2721.88 986.523 2722.66 988.863 2724.22 990.51C2725.87 992.07 2728.08 992.85 2730.85 992.85ZM2762.97 932.4H2771.03L2772.2 936.17L2777.53 934.61C2781.17 933.483 2784.03 932.703 2786.11 932.27C2788.27 931.75 2790.31 931.49 2792.22 931.49C2795.34 931.49 2797.63 932.573 2799.11 934.74C2800.58 936.907 2801.32 939.723 2801.32 943.19V1000H2790.92V946.57C2790.92 944.057 2790.74 942.323 2790.4 941.37C2790.05 940.33 2789.18 939.81 2787.8 939.81C2787.1 939.81 2782.29 941.197 2773.37 943.97V1000H2762.97V932.4ZM2829.56 1000C2826.44 1000 2823.54 999.22 2820.85 997.66C2818.25 996.1 2816.17 993.977 2814.61 991.29C2813.14 988.603 2812.4 985.57 2812.4 982.19V975.43C2812.4 971.357 2813.4 967.933 2815.39 965.16C2817.47 962.387 2820.03 960.437 2823.06 959.31L2839.18 953.33V947.22C2839.18 945.14 2838.53 943.45 2837.23 942.15C2836.02 940.763 2834.41 940.07 2832.42 940.07H2817.73V932.4H2833.33C2838.1 932.4 2841.87 933.83 2844.64 936.69C2847.5 939.463 2848.93 943.277 2848.93 948.13V1000H2829.56ZM2839.18 992.07V961.52L2827.74 965.81C2825.49 966.677 2823.88 967.847 2822.93 969.32C2822.06 970.793 2821.63 973.133 2821.63 976.34V983.62C2821.63 985.96 2822.5 987.953 2824.23 989.6C2825.96 991.247 2828.04 992.07 2830.47 992.07H2839.18ZM2863.39 1000V909H2873.79V1000H2863.39Z" fill="white"/>
<path d="M1403 1182V564H872.299V1000.5H1221.5V738.599H1046.9V825.898H1134.2V913.197H959.599V651.299H1308.8V1087.8H785V1182H1403Z" fill="white"/>
</svg>
