<svg width="5521" height="2501" viewBox="0 0 5521 2501" fill="none" xmlns="http://www.w3.org/2000/svg">
<rect width="440.287" height="277.505" transform="matrix(0.864645 0.502384 -0.762169 0.647379 3707.48 1253.56)" fill="#7B7B7B"/>
<path d="M1355.09 1822.06L867.991 1539.04L995.566 1430.68L1482.67 1713.7L1355.09 1822.06Z" fill="#9EC2C2"/>
<path d="M1791.16 1892.95L995.566 1430.68L1374.93 1108.45L2170.53 1570.71L1791.16 1892.95Z" fill="#9EC2C2"/>
<path d="M4707.64 1407.28L4451.92 1258.7L5079.72 725.446L5335.45 874.031L4707.64 1407.28Z" fill="#FF8000"/>
<path d="M5020.2 1588.88L4857.83 1494.54L5358.06 1069.66L5520.43 1164L5020.2 1588.88Z" fill="#FF8000"/>
<path d="M4645.39 473.088L5014.77 687.711L4806.62 864.51L4437.24 649.887L4551.38 552.932L4502.67 524.63L4341.53 661.507L4158.87 555.375L4414.02 338.653L4645.39 473.087L4645.39 473.088Z" fill="#FF8000"/>
<path fill-rule="evenodd" clip-rule="evenodd" d="M3357.56 800.526L3394.09 821.752L3266.51 930.112L3217.8 901.811L3372.05 991.434L3113.54 1211.01L3162.26 1239.31L2789.6 1555.84L3504.01 1970.93L3614.8 1876.83L4016.66 2110.32L4016.66 2110.32L4239.91 2240.04L3978.05 2462.46L3754.79 2332.74L3556.72 2500.99L2858.54 2095.33L2945.83 2021.19L2479.03 1749.96L2264.17 1932.46L1955.67 1753.22L2432.4 1348.29L2586.64 1437.91L3086.87 1013.02L2782.44 836.136L2530.64 1050.01L2209.97 863.686L2461.76 649.816L2291.28 550.759L2549.78 331.186L3191.13 703.828L3493.28 447.184L3659.71 543.882L3357.56 800.526Z" fill="#424242"/>
<path d="M4197.34 1840.72L3941.61 1692.14L4367.98 1329.99L4623.71 1478.57L4197.34 1840.72Z" fill="#424242"/>
<path d="M3568.17 1475.16L3426.1 1392.61L3637.6 1212.96L3779.68 1295.51L3568.17 1475.16Z" fill="#424242"/>
<path d="M3722.42 1564.78L3580.35 1482.23L3791.85 1302.58L3933.92 1385.13L3722.42 1564.78Z" fill="#424242"/>
<path d="M4509.9 2022.33L4347.53 1927.99L4773.9 1565.84L4867.26 1620.08L4951.19 1548.79L5020.19 1588.89L4509.9 2022.33Z" fill="#424242"/>
<path d="M3876.67 1654.4L3734.6 1571.86L3946.1 1392.2L4088.17 1474.75L3876.67 1654.4Z" fill="#424242"/>
<path d="M4131.82 1437.68L3681.25 1175.89L3775.25 1096.04L4225.82 1357.84L4131.82 1437.68Z" fill="#424242"/>
<path d="M4244.9 1138.41L4386.97 1220.96L4262.75 1326.47L3812.18 1064.68L3936.4 959.167L4086.59 1046.43L4338.38 832.561L4496.69 924.543L4244.9 1138.41Z" fill="#424242"/>
<rect width="483.544" height="334.768" transform="matrix(0.864645 0.502384 -0.762169 0.647379 3518.31 716.242)" fill="#9EC2C2"/>
<path d="M4347.53 1927.99L4509.9 2022.33L4248.03 2244.75L3679.75 1914.56L3941.62 1692.14L4197.34 1840.72L4623.71 1478.57L4773.9 1565.83L4347.53 1927.99Z" fill="#8BBD7B"/>
<path d="M4857.83 1494.54L4707.64 1407.28L5207.87 982.39L5358.06 1069.65L4857.83 1494.54Z" fill="#8BBD7B"/>
<path d="M2835.08 1226.89L2680.83 1137.27L2170.53 1570.71L1374.93 1108.45L2140.38 458.285L2465.12 646.964L2209.97 863.686L2530.64 1050.01L2782.43 836.137L3086.87 1013.02L2835.08 1226.89Z" fill="#7FBC6D"/>
<path d="M3426.1 1392.61L3876.67 1654.4L3504.01 1970.93L2789.6 1555.84L3162.25 1239.31L3113.54 1211.01L3368.69 994.284L3681.25 1175.89L3426.1 1392.61Z" fill="#7FBC6D"/>
<path d="M4617.55 821.885L4759.62 904.432L4386.96 1220.96L4244.89 1138.41L4496.69 924.542L4338.38 832.561L4086.59 1046.43L3936.4 959.167L4309.05 642.639L4617.55 821.884L4617.55 821.885Z" fill="#7FBC6D"/>
<path d="M3263.16 932.965L3632.54 1147.59L3726.54 1067.74L3775.25 1096.04L3681.25 1175.89L4131.81 1437.68L4088.17 1474.75L3325.05 1031.36L3113.54 1211.01L3072.95 1187.42L2854.73 1372.78L2944.03 1424.66L2789.6 1555.84L2740.89 1527.53L2264.16 1932.46L1955.67 1753.22L2227.6 1522.24L1432.01 1059.97L1542.8 965.869L2338.39 1428.13L2432.39 1348.29L2586.64 1437.91L2741.07 1306.74L2789.78 1335.04L3179.22 1004.25L3142.69 983.028L3481.77 695.016L3518.31 716.243L3263.16 932.965Z" fill="#BECDD2"/>
<path d="M4451.91 1258.7L4951.19 1548.79L4867.26 1620.08L4367.98 1329.99L3394.38 2156.95L2566.32 1675.82L2620.03 1630.19L3383.15 2073.59L4225.82 1357.84L3726.54 1067.74L3770.19 1030.67L4269.46 1320.77L5014.77 687.71L5079.72 725.446L4451.91 1258.7Z" fill="#BECDD2"/>
<path d="M3135.58 1041.32L2538.88 694.627L2582.53 657.556L3179.22 1004.25L3135.58 1041.32Z" fill="#BECDD2"/>
<path d="M4437.23 649.886L4806.62 864.508L4759.62 904.431L4341.52 661.507L4502.67 524.63L4551.38 552.932L4437.23 649.886Z" fill="#BECDD2"/>
<rect width="309.844" height="273.1" transform="matrix(0.864645 0.502384 -0.762169 0.647379 2145.3 494.755)" fill="black" fill-opacity="0.1"/>
<rect width="262.898" height="229.052" transform="matrix(0.864645 0.502384 -0.762169 0.647379 2148.81 534.411)" fill="black" fill-opacity="0.1"/>
<rect width="215.952" height="185.003" transform="matrix(0.864645 0.502384 -0.762169 0.647379 2152.32 574.067)" fill="black" fill-opacity="0.1"/>
<rect width="215.952" height="185.003" transform="matrix(0.864645 0.502384 -0.762169 0.647379 2282.3 1150.63)" fill="black" fill-opacity="0.1"/>
<rect width="189.316" height="161.603" transform="matrix(0.864645 0.502384 -0.762169 0.647379 2287.49 1179.16)" fill="black" fill-opacity="0.1"/>
<path d="M1557.5 1043.08L1553.17 1040.58L1548.17 1049.24L1552.5 1051.74L1555 1047.41L1557.5 1043.08ZM2514.22 1601L2511.72 1605.33L2514.74 1607.08L2517.42 1604.84L2514.22 1601ZM3271.61 968L3274.14 963.685L3271.1 961.909L3268.41 964.163L3271.61 968ZM4140.12 1476.22L4137.6 1480.53L4140.7 1482.35L4143.41 1479.98L4140.12 1476.22ZM4482.99 1181.21C4483.17 1178.46 4481.09 1176.08 4478.34 1175.89L4433.44 1172.87C4430.68 1172.69 4428.3 1174.77 4428.11 1177.53C4427.93 1180.28 4430.01 1182.67 4432.77 1182.85L4472.68 1185.53L4470 1225.44C4469.81 1228.2 4471.89 1230.58 4474.65 1230.77C4477.4 1230.95 4479.79 1228.87 4479.97 1226.11L4482.99 1181.21ZM1555 1047.41L1552.5 1051.74L2511.72 1605.33L2514.22 1601L2516.72 1596.67L1557.5 1043.08L1555 1047.41ZM2514.22 1601L2517.42 1604.84L3274.82 971.837L3271.61 968L3268.41 964.163L2511.01 1597.16L2514.22 1601ZM3271.61 968L3269.09 972.315L4137.6 1480.53L4140.12 1476.22L4142.65 1471.9L3274.14 963.685L3271.61 968ZM4140.12 1476.22L4143.41 1479.98L4481.29 1184.64L4478 1180.88L4474.71 1177.11L4136.83 1472.45L4140.12 1476.22Z" fill="black"/>
<rect width="235.136" height="325.959" transform="matrix(0.864645 0.502384 -0.762169 0.647379 2680.83 1137.27)" fill="#9EC2C2"/>
<path d="M1360.53 1520V1490.91H1372.18C1374.32 1490.91 1376.1 1491.23 1377.53 1491.86C1378.96 1492.5 1380.04 1493.38 1380.76 1494.5C1381.48 1495.62 1381.84 1496.91 1381.84 1498.37C1381.84 1499.5 1381.61 1500.5 1381.15 1501.36C1380.7 1502.22 1380.07 1502.92 1379.28 1503.47C1378.49 1504.01 1377.59 1504.39 1376.58 1504.62V1504.9C1377.69 1504.95 1378.73 1505.26 1379.69 1505.84C1380.67 1506.42 1381.46 1507.23 1382.06 1508.27C1382.67 1509.3 1382.97 1510.53 1382.97 1511.96C1382.97 1513.5 1382.59 1514.88 1381.82 1516.09C1381.06 1517.3 1379.94 1518.25 1378.46 1518.95C1376.97 1519.65 1375.14 1520 1372.96 1520H1360.53ZM1366.68 1514.97H1371.69C1373.41 1514.97 1374.66 1514.64 1375.44 1513.99C1376.23 1513.33 1376.62 1512.45 1376.62 1511.35C1376.62 1510.54 1376.43 1509.83 1376.04 1509.22C1375.65 1508.6 1375.1 1508.12 1374.38 1507.77C1373.67 1507.42 1372.82 1507.24 1371.84 1507.24H1366.68V1514.97ZM1366.68 1503.08H1371.24C1372.08 1503.08 1372.83 1502.94 1373.48 1502.64C1374.15 1502.34 1374.67 1501.91 1375.05 1501.36C1375.43 1500.81 1375.63 1500.16 1375.63 1499.39C1375.63 1498.34 1375.25 1497.49 1374.51 1496.85C1373.77 1496.2 1372.72 1495.88 1371.35 1495.88H1366.68V1503.08ZM1393.13 1490.91V1520H1386.97V1490.91H1393.13ZM1398.19 1520V1490.91H1409.83C1411.97 1490.91 1413.76 1491.23 1415.19 1491.86C1416.62 1492.5 1417.69 1493.38 1418.41 1494.5C1419.13 1495.62 1419.49 1496.91 1419.49 1498.37C1419.49 1499.5 1419.27 1500.5 1418.81 1501.36C1418.36 1502.22 1417.73 1502.92 1416.94 1503.47C1416.15 1504.01 1415.25 1504.39 1414.24 1504.62V1504.9C1415.34 1504.95 1416.38 1505.26 1417.35 1505.84C1418.32 1506.42 1419.11 1507.23 1419.72 1508.27C1420.33 1509.3 1420.63 1510.53 1420.63 1511.96C1420.63 1513.5 1420.25 1514.88 1419.48 1516.09C1418.72 1517.3 1417.6 1518.25 1416.11 1518.95C1414.63 1519.65 1412.79 1520 1410.61 1520H1398.19ZM1404.34 1514.97H1409.35C1411.06 1514.97 1412.31 1514.64 1413.1 1513.99C1413.89 1513.33 1414.28 1512.45 1414.28 1511.35C1414.28 1510.54 1414.09 1509.83 1413.7 1509.22C1413.31 1508.6 1412.75 1508.12 1412.04 1507.77C1411.32 1507.42 1410.48 1507.24 1409.49 1507.24H1404.34V1514.97ZM1404.34 1503.08H1408.9C1409.74 1503.08 1410.49 1502.94 1411.14 1502.64C1411.8 1502.34 1412.32 1501.91 1412.7 1501.36C1413.09 1500.81 1413.29 1500.16 1413.29 1499.39C1413.29 1498.34 1412.91 1497.49 1412.16 1496.85C1411.42 1496.2 1410.37 1495.88 1409.01 1495.88H1404.34V1503.08ZM1424.63 1520V1490.91H1430.78V1514.93H1443.25V1520H1424.63ZM1453.48 1490.91V1520H1447.33V1490.91H1453.48ZM1485.27 1505.45C1485.27 1508.63 1484.67 1511.33 1483.47 1513.55C1482.27 1515.78 1480.64 1517.48 1478.58 1518.65C1476.52 1519.82 1474.21 1520.4 1471.65 1520.4C1469.06 1520.4 1466.74 1519.81 1464.69 1518.64C1462.63 1517.46 1461.01 1515.76 1459.82 1513.54C1458.62 1511.31 1458.03 1508.62 1458.03 1505.45C1458.03 1502.28 1458.62 1499.58 1459.82 1497.36C1461.01 1495.13 1462.63 1493.44 1464.69 1492.27C1466.74 1491.1 1469.06 1490.51 1471.65 1490.51C1474.21 1490.51 1476.52 1491.1 1478.58 1492.27C1480.64 1493.44 1482.27 1495.13 1483.47 1497.36C1484.67 1499.58 1485.27 1502.28 1485.27 1505.45ZM1479.03 1505.45C1479.03 1503.4 1478.73 1501.67 1478.11 1500.26C1477.51 1498.84 1476.65 1497.77 1475.54 1497.05C1474.43 1496.32 1473.13 1495.95 1471.65 1495.95C1470.16 1495.95 1468.86 1496.32 1467.76 1497.05C1466.65 1497.77 1465.79 1498.84 1465.17 1500.26C1464.56 1501.67 1464.26 1503.4 1464.26 1505.45C1464.26 1507.51 1464.56 1509.24 1465.17 1510.65C1465.79 1512.06 1466.65 1513.13 1467.76 1513.86C1468.86 1514.59 1470.16 1514.96 1471.65 1514.96C1473.13 1514.96 1474.43 1514.59 1475.54 1513.86C1476.65 1513.13 1477.51 1512.06 1478.11 1510.65C1478.73 1509.24 1479.03 1507.51 1479.03 1505.45ZM1487.39 1495.98V1490.91H1511.28V1495.98H1502.38V1520H1496.3V1495.98H1487.39ZM1515.22 1520V1490.91H1534.82V1495.98H1521.37V1502.91H1533.81V1507.98H1521.37V1514.93H1534.88V1520H1515.22ZM1565.38 1501.09H1559.16C1559.04 1500.29 1558.81 1499.57 1558.46 1498.95C1558.11 1498.31 1557.66 1497.77 1557.11 1497.33C1556.56 1496.88 1555.93 1496.54 1555.21 1496.31C1554.5 1496.07 1553.72 1495.95 1552.89 1495.95C1551.39 1495.95 1550.07 1496.33 1548.96 1497.07C1547.84 1497.81 1546.97 1498.89 1546.36 1500.31C1545.74 1501.72 1545.43 1503.44 1545.43 1505.45C1545.43 1507.53 1545.74 1509.27 1546.36 1510.68C1546.98 1512.09 1547.85 1513.16 1548.97 1513.88C1550.09 1514.6 1551.38 1514.96 1552.85 1514.96C1553.67 1514.96 1554.43 1514.85 1555.14 1514.63C1555.85 1514.41 1556.48 1514.1 1557.02 1513.68C1557.57 1513.25 1558.03 1512.74 1558.39 1512.13C1558.76 1511.52 1559.01 1510.83 1559.16 1510.06L1565.38 1510.09C1565.22 1511.42 1564.81 1512.71 1564.17 1513.95C1563.53 1515.18 1562.68 1516.28 1561.6 1517.26C1560.53 1518.22 1559.25 1518.99 1557.76 1519.56C1556.29 1520.12 1554.61 1520.4 1552.75 1520.4C1550.15 1520.4 1547.83 1519.81 1545.79 1518.64C1543.75 1517.46 1542.14 1515.76 1540.96 1513.54C1539.78 1511.31 1539.2 1508.62 1539.2 1505.45C1539.2 1502.28 1539.79 1499.58 1540.99 1497.36C1542.18 1495.13 1543.8 1493.44 1545.85 1492.27C1547.89 1491.1 1550.19 1490.51 1552.75 1490.51C1554.43 1490.51 1556 1490.75 1557.44 1491.22C1558.89 1491.7 1560.17 1492.39 1561.29 1493.3C1562.4 1494.2 1563.31 1495.3 1564.01 1496.61C1564.72 1497.91 1565.18 1499.41 1565.38 1501.09ZM1574.25 1520H1567.66L1577.71 1490.91H1585.63L1595.66 1520H1589.07L1581.78 1497.56H1581.56L1574.25 1520ZM1573.84 1508.57H1589.41V1513.37H1573.84V1508.57Z" fill="white"/>
<path d="M2576.82 1296.31C2576.62 1295.62 2576.34 1295.01 2575.98 1294.48C2575.62 1293.94 2575.18 1293.49 2574.66 1293.12C2574.15 1292.74 2573.56 1292.45 2572.9 1292.25C2572.24 1292.05 2571.52 1291.95 2570.72 1291.95C2569.24 1291.95 2567.93 1292.32 2566.8 1293.06C2565.69 1293.8 2564.82 1294.87 2564.19 1296.28C2563.57 1297.69 2563.25 1299.4 2563.25 1301.43C2563.25 1303.45 2563.56 1305.18 2564.18 1306.6C2564.79 1308.02 2565.66 1309.1 2566.79 1309.85C2567.92 1310.59 2569.25 1310.96 2570.78 1310.96C2572.17 1310.96 2573.36 1310.71 2574.35 1310.22C2575.34 1309.72 2576.1 1309.01 2576.62 1308.1C2577.15 1307.19 2577.41 1306.12 2577.41 1304.88L2578.66 1305.06H2571.16V1300.43H2583.34V1304.1C2583.34 1306.65 2582.8 1308.85 2581.72 1310.69C2580.64 1312.52 2579.15 1313.93 2577.26 1314.92C2575.36 1315.91 2573.2 1316.4 2570.75 1316.4C2568.03 1316.4 2565.63 1315.8 2563.57 1314.59C2561.5 1313.38 2559.89 1311.66 2558.74 1309.44C2557.59 1307.2 2557.02 1304.55 2557.02 1301.48C2557.02 1299.12 2557.36 1297.02 2558.04 1295.18C2558.73 1293.32 2559.7 1291.75 2560.94 1290.46C2562.18 1289.17 2563.62 1288.19 2565.27 1287.52C2566.92 1286.85 2568.7 1286.51 2570.62 1286.51C2572.27 1286.51 2573.81 1286.75 2575.23 1287.24C2576.65 1287.71 2577.91 1288.38 2579.01 1289.25C2580.11 1290.12 2581.02 1291.16 2581.72 1292.36C2582.42 1293.56 2582.87 1294.87 2583.07 1296.31H2576.82ZM2592.07 1316H2585.48L2595.53 1286.91H2603.45L2613.48 1316H2606.89L2599.6 1293.56H2599.38L2592.07 1316ZM2591.66 1304.57H2607.23V1309.37H2591.66V1304.57ZM2616.98 1316V1286.91H2623.13V1310.93H2635.6V1316H2616.98ZM2639.68 1316V1286.91H2659.28V1291.98H2645.83V1298.91H2658.27V1303.98H2645.83V1310.93H2659.34V1316H2639.68ZM2664.17 1316V1286.91H2675.65C2677.84 1286.91 2679.72 1287.3 2681.27 1288.09C2682.83 1288.86 2684.02 1289.97 2684.84 1291.4C2685.66 1292.82 2686.07 1294.49 2686.07 1296.41C2686.07 1298.34 2685.66 1300.01 2684.82 1301.4C2683.99 1302.78 2682.78 1303.84 2681.2 1304.58C2679.63 1305.32 2677.72 1305.69 2675.49 1305.69H2667.81V1300.74H2674.5C2675.67 1300.74 2676.65 1300.58 2677.42 1300.26C2678.2 1299.94 2678.78 1299.46 2679.15 1298.81C2679.54 1298.17 2679.74 1297.37 2679.74 1296.41C2679.74 1295.45 2679.54 1294.63 2679.15 1293.97C2678.78 1293.31 2678.19 1292.8 2677.41 1292.46C2676.63 1292.11 2675.65 1291.94 2674.47 1291.94H2670.32V1316H2664.17ZM2679.88 1302.76L2687.11 1316H2680.32L2673.25 1302.76H2679.88ZM2696.57 1286.91V1316H2690.42V1286.91H2696.57ZM2706.64 1316H2700.05L2710.1 1286.91H2718.02L2728.05 1316H2721.46L2714.17 1293.56H2713.95L2706.64 1316ZM2706.23 1304.57H2721.8V1309.37H2706.23V1304.57Z" fill="white"/>
<path d="M2192.31 1685.28C2192.2 1684.13 2191.71 1683.24 2190.85 1682.61C2189.98 1681.97 2188.82 1681.65 2187.34 1681.65C2186.33 1681.65 2185.49 1681.8 2184.8 1682.08C2184.1 1682.35 2183.57 1682.74 2183.2 1683.23C2182.84 1683.72 2182.66 1684.28 2182.66 1684.91C2182.65 1685.43 2182.75 1685.88 2182.99 1686.27C2183.24 1686.66 2183.57 1686.99 2184 1687.28C2184.43 1687.55 2184.92 1687.79 2185.48 1688C2186.04 1688.2 2186.63 1688.37 2187.27 1688.51L2189.88 1689.14C2191.15 1689.42 2192.31 1689.8 2193.38 1690.28C2194.44 1690.75 2195.35 1691.33 2196.13 1692.02C2196.91 1692.71 2197.51 1693.53 2197.93 1694.47C2198.37 1695.4 2198.59 1696.48 2198.6 1697.69C2198.59 1699.47 2198.14 1701.01 2197.24 1702.32C2196.35 1703.62 2195.06 1704.63 2193.38 1705.35C2191.7 1706.06 2189.68 1706.41 2187.31 1706.41C2184.96 1706.41 2182.92 1706.05 2181.17 1705.33C2179.44 1704.61 2178.09 1703.55 2177.11 1702.14C2176.14 1700.72 2175.64 1698.96 2175.59 1696.87H2181.54C2181.61 1697.84 2181.89 1698.66 2182.38 1699.31C2182.88 1699.95 2183.55 1700.44 2184.38 1700.77C2185.23 1701.09 2186.18 1701.26 2187.24 1701.26C2188.28 1701.26 2189.18 1701.1 2189.95 1700.8C2190.73 1700.5 2191.33 1700.08 2191.76 1699.54C2192.18 1699 2192.39 1698.38 2192.39 1697.68C2192.39 1697.02 2192.2 1696.47 2191.81 1696.03C2191.43 1695.58 2190.88 1695.2 2190.14 1694.89C2189.41 1694.58 2188.51 1694.3 2187.45 1694.04L2184.28 1693.24C2181.83 1692.65 2179.89 1691.71 2178.47 1690.45C2177.05 1689.18 2176.35 1687.47 2176.36 1685.32C2176.35 1683.56 2176.82 1682.02 2177.76 1680.7C2178.72 1679.39 2180.03 1678.36 2181.7 1677.62C2183.37 1676.88 2185.26 1676.51 2187.38 1676.51C2189.54 1676.51 2191.42 1676.88 2193.03 1677.62C2194.65 1678.36 2195.91 1679.39 2196.81 1680.7C2197.71 1682.02 2198.18 1683.54 2198.2 1685.28H2192.31ZM2207.09 1706H2200.5L2210.54 1676.91H2218.47L2228.5 1706H2221.9L2214.62 1683.56H2214.39L2207.09 1706ZM2206.68 1694.57H2222.25V1699.37H2206.68V1694.57ZM2249.92 1686.31C2249.72 1685.62 2249.44 1685.01 2249.08 1684.48C2248.72 1683.94 2248.28 1683.49 2247.76 1683.12C2247.25 1682.74 2246.66 1682.45 2246 1682.25C2245.35 1682.05 2244.62 1681.95 2243.83 1681.95C2242.34 1681.95 2241.03 1682.32 2239.91 1683.06C2238.79 1683.8 2237.92 1684.87 2237.29 1686.28C2236.67 1687.69 2236.35 1689.4 2236.35 1691.43C2236.35 1693.45 2236.66 1695.18 2237.28 1696.6C2237.89 1698.02 2238.76 1699.1 2239.89 1699.85C2241.02 1700.59 2242.35 1700.96 2243.88 1700.96C2245.27 1700.96 2246.46 1700.71 2247.45 1700.22C2248.44 1699.72 2249.2 1699.01 2249.72 1698.1C2250.25 1697.19 2250.52 1696.12 2250.52 1694.88L2251.77 1695.06H2244.27V1690.43H2256.44V1694.1C2256.44 1696.65 2255.9 1698.85 2254.82 1700.69C2253.74 1702.52 2252.25 1703.93 2250.36 1704.92C2248.47 1705.91 2246.3 1706.4 2243.85 1706.4C2241.13 1706.4 2238.73 1705.8 2236.67 1704.59C2234.6 1703.38 2232.99 1701.66 2231.84 1699.44C2230.69 1697.2 2230.12 1694.55 2230.12 1691.48C2230.12 1689.12 2230.46 1687.02 2231.14 1685.18C2231.83 1683.32 2232.8 1681.75 2234.04 1680.46C2235.28 1679.17 2236.72 1678.19 2238.37 1677.52C2240.02 1676.85 2241.8 1676.51 2243.73 1676.51C2245.37 1676.51 2246.91 1676.75 2248.33 1677.24C2249.75 1677.71 2251.01 1678.38 2252.11 1679.25C2253.22 1680.12 2254.12 1681.16 2254.82 1682.36C2255.52 1683.56 2255.97 1684.87 2256.17 1686.31H2249.92ZM2279.03 1676.91H2285.18V1695.8C2285.18 1697.92 2284.67 1699.78 2283.66 1701.37C2282.66 1702.96 2281.25 1704.2 2279.44 1705.09C2277.63 1705.97 2275.52 1706.41 2273.12 1706.41C2270.7 1706.41 2268.59 1705.97 2266.78 1705.09C2264.98 1704.2 2263.57 1702.96 2262.57 1701.37C2261.56 1699.78 2261.06 1697.92 2261.06 1695.8V1676.91H2267.21V1695.28C2267.21 1696.38 2267.45 1697.37 2267.93 1698.23C2268.43 1699.09 2269.12 1699.77 2270.01 1700.26C2270.9 1700.75 2271.94 1701 2273.12 1701C2274.31 1701 2275.35 1700.75 2276.23 1700.26C2277.12 1699.77 2277.81 1699.09 2278.29 1698.23C2278.78 1697.37 2279.03 1696.38 2279.03 1695.28V1676.91ZM2295.25 1706H2288.66L2298.71 1676.91H2306.63L2316.66 1706H2310.07L2302.78 1683.56H2302.55L2295.25 1706ZM2294.84 1694.57H2310.41V1699.37H2294.84V1694.57ZM2298.59 1674.04L2295.24 1674C2295.24 1672.19 2295.68 1670.8 2296.57 1669.84C2297.46 1668.87 2298.56 1668.38 2299.86 1668.37C2300.52 1668.37 2301.09 1668.48 2301.56 1668.7C2302.03 1668.91 2302.46 1669.15 2302.85 1669.44C2303.24 1669.72 2303.61 1669.97 2303.96 1670.19C2304.31 1670.4 2304.69 1670.5 2305.1 1670.5C2305.65 1670.49 2306.06 1670.29 2306.35 1669.89C2306.64 1669.48 2306.79 1668.95 2306.79 1668.3L2310.1 1668.4C2310.08 1670.19 2309.62 1671.57 2308.73 1672.55C2307.84 1673.51 2306.75 1674 2305.47 1674.01C2304.77 1674.02 2304.17 1673.92 2303.69 1673.7C2303.22 1673.48 2302.8 1673.23 2302.44 1672.96C2302.08 1672.68 2301.73 1672.43 2301.39 1672.21C2301.05 1671.99 2300.67 1671.88 2300.24 1671.88C2299.75 1671.88 2299.35 1672.07 2299.05 1672.46C2298.74 1672.85 2298.59 1673.38 2298.59 1674.04ZM2345.53 1691.45C2345.53 1694.63 2344.93 1697.33 2343.72 1699.55C2342.53 1701.78 2340.9 1703.48 2338.84 1704.65C2336.78 1705.82 2334.47 1706.4 2331.9 1706.4C2329.32 1706.4 2327 1705.81 2324.94 1704.64C2322.89 1703.46 2321.27 1701.76 2320.07 1699.54C2318.88 1697.31 2318.28 1694.62 2318.28 1691.45C2318.28 1688.28 2318.88 1685.58 2320.07 1683.36C2321.27 1681.13 2322.89 1679.44 2324.94 1678.27C2327 1677.1 2329.32 1676.51 2331.9 1676.51C2334.47 1676.51 2336.78 1677.1 2338.84 1678.27C2340.9 1679.44 2342.53 1681.13 2343.72 1683.36C2344.93 1685.58 2345.53 1688.28 2345.53 1691.45ZM2339.29 1691.45C2339.29 1689.4 2338.98 1687.67 2338.37 1686.26C2337.76 1684.84 2336.9 1683.77 2335.8 1683.05C2334.69 1682.32 2333.39 1681.95 2331.9 1681.95C2330.42 1681.95 2329.12 1682.32 2328.01 1683.05C2326.9 1683.77 2326.04 1684.84 2325.43 1686.26C2324.82 1687.67 2324.52 1689.4 2324.52 1691.45C2324.52 1693.51 2324.82 1695.24 2325.43 1696.65C2326.04 1698.06 2326.9 1699.13 2328.01 1699.86C2329.12 1700.59 2330.42 1700.96 2331.9 1700.96C2333.39 1700.96 2334.69 1700.59 2335.8 1699.86C2336.9 1699.13 2337.76 1698.06 2338.37 1696.65C2338.98 1695.24 2339.29 1693.51 2339.29 1691.45Z" fill="white"/>
<path d="M1834.18 1028.91H1840.26V1049.19C1840.26 1051.07 1839.84 1052.7 1838.99 1054.08C1838.16 1055.46 1837 1056.53 1835.51 1057.28C1834.03 1058.02 1832.3 1058.4 1830.33 1058.4C1828.58 1058.4 1826.98 1058.09 1825.55 1057.47C1824.13 1056.85 1823.01 1055.9 1822.17 1054.63C1821.34 1053.36 1820.93 1051.75 1820.94 1049.82H1827.06C1827.08 1050.59 1827.24 1051.24 1827.53 1051.79C1827.83 1052.33 1828.24 1052.75 1828.77 1053.04C1829.3 1053.33 1829.92 1053.47 1830.64 1053.47C1831.4 1053.47 1832.04 1053.31 1832.56 1052.99C1833.09 1052.65 1833.49 1052.17 1833.77 1051.54C1834.04 1050.9 1834.18 1050.12 1834.18 1049.19V1028.91ZM1850.36 1058H1843.77L1853.81 1028.91H1861.73L1871.76 1058H1865.17L1857.88 1035.56H1857.66L1850.36 1058ZM1849.94 1046.57H1865.51V1051.37H1849.94V1046.57ZM1875.26 1058V1028.91H1886.74C1888.94 1028.91 1890.81 1029.3 1892.37 1030.09C1893.93 1030.86 1895.12 1031.97 1895.93 1033.4C1896.76 1034.82 1897.17 1036.49 1897.17 1038.41C1897.17 1040.34 1896.75 1042.01 1895.92 1043.4C1895.08 1044.78 1893.88 1045.84 1892.3 1046.58C1890.72 1047.32 1888.82 1047.69 1886.58 1047.69H1878.9V1042.74H1885.59C1886.76 1042.74 1887.74 1042.58 1888.52 1042.26C1889.29 1041.94 1889.87 1041.46 1890.25 1040.81C1890.64 1040.17 1890.83 1039.37 1890.83 1038.41C1890.83 1037.45 1890.64 1036.63 1890.25 1035.97C1889.87 1035.31 1889.29 1034.8 1888.5 1034.46C1887.73 1034.11 1886.75 1033.94 1885.56 1033.94H1881.41V1058H1875.26ZM1890.97 1044.76L1898.2 1058H1891.41L1884.34 1044.76H1890.97ZM1911.83 1058H1901.51V1028.91H1911.91C1914.84 1028.91 1917.36 1029.49 1919.47 1030.66C1921.58 1031.81 1923.2 1033.47 1924.34 1035.64C1925.49 1037.81 1926.06 1040.41 1926.06 1043.43C1926.06 1046.46 1925.49 1049.06 1924.34 1051.24C1923.2 1053.42 1921.57 1055.09 1919.44 1056.25C1917.32 1057.42 1914.78 1058 1911.83 1058ZM1907.66 1052.73H1911.57C1913.39 1052.73 1914.92 1052.41 1916.16 1051.76C1917.41 1051.11 1918.35 1050.1 1918.97 1048.74C1919.61 1047.37 1919.92 1045.59 1919.92 1043.43C1919.92 1041.28 1919.61 1039.52 1918.97 1038.16C1918.35 1036.79 1917.41 1035.79 1916.17 1035.14C1914.93 1034.5 1913.4 1034.18 1911.58 1034.18H1907.66V1052.73ZM1936.77 1028.91V1058H1930.62V1028.91H1936.77ZM1941.83 1028.91H1949.41L1957.42 1048.45H1957.76L1965.78 1028.91H1973.36V1058H1967.39V1039.07H1967.15L1959.62 1057.86H1955.56L1948.03 1038.99H1947.79V1058H1941.83V1028.91ZM1998 1058H1987.69V1028.91H1998.08C2001.01 1028.91 2003.53 1029.49 2005.64 1030.66C2007.75 1031.81 2009.38 1033.47 2010.51 1035.64C2011.66 1037.81 2012.23 1040.41 2012.23 1043.43C2012.23 1046.46 2011.66 1049.06 2010.51 1051.24C2009.38 1053.42 2007.74 1055.09 2005.61 1056.25C2003.49 1057.42 2000.95 1058 1998 1058ZM1993.84 1052.73H1997.74C1999.56 1052.73 2001.09 1052.41 2002.33 1051.76C2003.58 1051.11 2004.52 1050.1 2005.14 1048.74C2005.78 1047.37 2006.09 1045.59 2006.09 1043.43C2006.09 1041.28 2005.78 1039.52 2005.14 1038.16C2004.52 1036.79 2003.59 1035.79 2002.34 1035.14C2001.1 1034.5 1999.57 1034.18 1997.76 1034.18H1993.84V1052.73ZM2020.16 1058H2013.57L2023.61 1028.91H2031.54L2041.57 1058H2034.98L2027.69 1035.56H2027.46L2020.16 1058ZM2019.75 1046.57H2035.32V1051.37H2019.75V1046.57ZM2054.33 1058V1028.91H2073.93V1033.98H2060.48V1040.91H2072.92V1045.98H2060.48V1052.93H2073.99V1058H2054.33ZM2103.15 1028.91V1058H2097.84L2085.18 1039.69H2084.97V1058H2078.82V1028.91H2084.22L2096.77 1047.2H2097.03V1028.91H2103.15ZM2107.12 1033.98V1028.91H2131.02V1033.98H2122.11V1058H2116.03V1033.98H2107.12ZM2134.95 1058V1028.91H2146.43C2148.63 1028.91 2150.5 1029.3 2152.05 1030.09C2153.62 1030.86 2154.8 1031.97 2155.62 1033.4C2156.44 1034.82 2156.85 1036.49 2156.85 1038.41C2156.85 1040.34 2156.44 1042.01 2155.6 1043.4C2154.77 1044.78 2153.56 1045.84 2151.98 1046.58C2150.41 1047.32 2148.51 1047.69 2146.27 1047.69H2138.59V1042.74H2145.28C2146.45 1042.74 2147.43 1042.58 2148.2 1042.26C2148.98 1041.94 2149.56 1041.46 2149.94 1040.81C2150.33 1040.17 2150.52 1039.37 2150.52 1038.41C2150.52 1037.45 2150.33 1036.63 2149.94 1035.97C2149.56 1035.31 2148.98 1034.8 2148.19 1034.46C2147.41 1034.11 2146.43 1033.94 2145.25 1033.94H2141.1V1058H2134.95ZM2150.66 1044.76L2157.89 1058H2151.1L2144.03 1044.76H2150.66ZM2166.22 1058H2159.62L2169.67 1028.91H2177.59L2187.62 1058H2181.03L2173.74 1035.56H2173.52L2166.22 1058ZM2165.8 1046.57H2181.37V1051.37H2165.8V1046.57ZM2201.44 1058H2191.12V1028.91H2201.52C2204.45 1028.91 2206.97 1029.49 2209.08 1030.66C2211.19 1031.81 2212.81 1033.47 2213.95 1035.64C2215.1 1037.81 2215.67 1040.41 2215.67 1043.43C2215.67 1046.46 2215.1 1049.06 2213.95 1051.24C2212.81 1053.42 2211.18 1055.09 2209.05 1056.25C2206.93 1057.42 2204.39 1058 2201.44 1058ZM2197.27 1052.73H2201.18C2203 1052.73 2204.53 1052.41 2205.77 1051.76C2207.02 1051.11 2207.96 1050.1 2208.58 1048.74C2209.21 1047.37 2209.53 1045.59 2209.53 1043.43C2209.53 1041.28 2209.21 1039.52 2208.58 1038.16C2207.96 1036.79 2207.02 1035.79 2205.78 1035.14C2204.54 1034.5 2203.01 1034.18 2201.19 1034.18H2197.27V1052.73ZM2223.6 1058H2217.01L2227.05 1028.91H2234.98L2245 1058H2238.41L2231.13 1035.56H2230.9L2223.6 1058ZM2223.19 1046.57H2238.75V1051.37H2223.19V1046.57Z" fill="white"/>
<path d="M3127.18 1563.91H3133.26V1584.19C3133.26 1586.07 3132.83 1587.7 3131.99 1589.08C3131.16 1590.46 3130 1591.53 3128.51 1592.28C3127.02 1593.02 3125.3 1593.4 3123.33 1593.4C3121.57 1593.4 3119.98 1593.09 3118.55 1592.47C3117.13 1591.85 3116.01 1590.9 3115.17 1589.63C3114.34 1588.36 3113.93 1586.75 3113.94 1584.82H3120.06C3120.08 1585.59 3120.23 1586.24 3120.53 1586.79C3120.83 1587.33 3121.24 1587.75 3121.76 1588.04C3122.29 1588.33 3122.92 1588.47 3123.64 1588.47C3124.4 1588.47 3125.04 1588.31 3125.56 1587.99C3126.09 1587.65 3126.49 1587.17 3126.76 1586.54C3127.04 1585.9 3127.18 1585.12 3127.18 1584.19V1563.91ZM3143.36 1593H3136.76L3146.81 1563.91H3154.73L3164.76 1593H3158.17L3150.88 1570.56H3150.66L3143.36 1593ZM3142.94 1581.57H3158.51V1586.37H3142.94V1581.57ZM3168.26 1593V1563.91H3179.74C3181.94 1563.91 3183.81 1564.3 3185.37 1565.09C3186.93 1565.86 3188.12 1566.97 3188.93 1568.4C3189.75 1569.82 3190.17 1571.49 3190.17 1573.41C3190.17 1575.34 3189.75 1577.01 3188.92 1578.4C3188.08 1579.78 3186.88 1580.84 3185.29 1581.58C3183.72 1582.32 3181.82 1582.69 3179.58 1582.69H3171.9V1577.74H3178.59C3179.76 1577.74 3180.74 1577.58 3181.52 1577.26C3182.29 1576.94 3182.87 1576.46 3183.25 1575.81C3183.64 1575.17 3183.83 1574.37 3183.83 1573.41C3183.83 1572.45 3183.64 1571.63 3183.25 1570.97C3182.87 1570.31 3182.29 1569.8 3181.5 1569.46C3180.72 1569.11 3179.74 1568.94 3178.56 1568.94H3174.41V1593H3168.26ZM3183.97 1579.76L3191.2 1593H3184.41L3177.34 1579.76H3183.97ZM3204.83 1593H3194.51V1563.91H3204.91C3207.84 1563.91 3210.36 1564.49 3212.47 1565.66C3214.58 1566.81 3216.2 1568.47 3217.34 1570.64C3218.49 1572.81 3219.06 1575.41 3219.06 1578.43C3219.06 1581.46 3218.49 1584.06 3217.34 1586.24C3216.2 1588.42 3214.57 1590.09 3212.44 1591.25C3210.32 1592.42 3207.78 1593 3204.83 1593ZM3200.66 1587.73H3204.57C3206.39 1587.73 3207.92 1587.41 3209.16 1586.76C3210.41 1586.11 3211.35 1585.1 3211.97 1583.74C3212.6 1582.37 3212.92 1580.59 3212.92 1578.43C3212.92 1576.28 3212.6 1574.52 3211.97 1573.16C3211.35 1571.79 3210.41 1570.79 3209.17 1570.14C3207.93 1569.5 3206.4 1569.18 3204.58 1569.18H3200.66V1587.73ZM3229.76 1563.91V1593H3223.61V1563.91H3229.76ZM3234.83 1563.91H3242.41L3250.42 1583.45H3250.76L3258.77 1563.91H3266.36V1593H3260.39V1574.07H3260.15L3252.62 1592.86H3248.56L3241.03 1573.99H3240.79V1593H3234.83V1563.91ZM3286.84 1563.91V1593H3280.68V1563.91H3286.84ZM3316.23 1563.91V1593H3310.92L3298.26 1574.69H3298.05V1593H3291.9V1563.91H3297.29L3309.85 1582.2H3310.11V1563.91H3316.23ZM3320.2 1568.98V1563.91H3344.09V1568.98H3335.19V1593H3329.11V1568.98H3320.2ZM3348.03 1593V1563.91H3367.63V1568.98H3354.18V1575.91H3366.62V1580.98H3354.18V1587.93H3367.69V1593H3348.03ZM3372.52 1593V1563.91H3384C3386.19 1563.91 3388.07 1564.3 3389.62 1565.09C3391.19 1565.86 3392.37 1566.97 3393.19 1568.4C3394.01 1569.82 3394.42 1571.49 3394.42 1573.41C3394.42 1575.34 3394.01 1577.01 3393.17 1578.4C3392.34 1579.78 3391.13 1580.84 3389.55 1581.58C3387.98 1582.32 3386.08 1582.69 3383.84 1582.69H3376.16V1577.74H3382.85C3384.02 1577.74 3385 1577.58 3385.77 1577.26C3386.55 1576.94 3387.13 1576.46 3387.51 1575.81C3387.89 1575.17 3388.09 1574.37 3388.09 1573.41C3388.09 1572.45 3387.89 1571.63 3387.51 1570.97C3387.13 1570.31 3386.55 1569.8 3385.76 1569.46C3384.98 1569.11 3384 1568.94 3382.82 1568.94H3378.67V1593H3372.52ZM3388.23 1579.76L3395.46 1593H3388.67L3381.6 1579.76H3388.23ZM3423.1 1563.91V1593H3417.79L3405.13 1574.69H3404.92V1593H3398.77V1563.91H3404.17L3416.73 1582.2H3416.98V1563.91H3423.1ZM3454.92 1578.45C3454.92 1581.63 3454.32 1584.33 3453.11 1586.55C3451.92 1588.78 3450.29 1590.48 3448.23 1591.65C3446.17 1592.82 3443.86 1593.4 3441.3 1593.4C3438.71 1593.4 3436.39 1592.81 3434.34 1591.64C3432.28 1590.46 3430.66 1588.76 3429.46 1586.54C3428.27 1584.31 3427.67 1581.62 3427.67 1578.45C3427.67 1575.28 3428.27 1572.58 3429.46 1570.36C3430.66 1568.13 3432.28 1566.44 3434.34 1565.27C3436.39 1564.1 3438.71 1563.51 3441.3 1563.51C3443.86 1563.51 3446.17 1564.1 3448.23 1565.27C3450.29 1566.44 3451.92 1568.13 3453.11 1570.36C3454.32 1572.58 3454.92 1575.28 3454.92 1578.45ZM3448.68 1578.45C3448.68 1576.4 3448.37 1574.67 3447.76 1573.26C3447.15 1571.84 3446.3 1570.77 3445.19 1570.05C3444.08 1569.32 3442.78 1568.95 3441.3 1568.95C3439.81 1568.95 3438.51 1569.32 3437.4 1570.05C3436.3 1570.77 3435.43 1571.84 3434.82 1573.26C3434.21 1574.67 3433.91 1576.4 3433.91 1578.45C3433.91 1580.51 3434.21 1582.24 3434.82 1583.65C3435.43 1585.06 3436.3 1586.13 3437.4 1586.86C3438.51 1587.59 3439.81 1587.96 3441.3 1587.96C3442.78 1587.96 3444.08 1587.59 3445.19 1586.86C3446.3 1586.13 3447.15 1585.06 3447.76 1583.65C3448.37 1582.24 3448.68 1580.51 3448.68 1578.45Z" fill="white"/>
<path d="M3687.54 1449H3680.95L3690.99 1419.91H3698.92L3708.95 1449H3702.36L3695.07 1426.56H3694.84L3687.54 1449ZM3687.13 1437.57H3702.7V1442.37H3687.13V1437.57ZM3707.79 1424.98V1419.91H3731.68V1424.98H3722.77V1449H3716.69V1424.98H3707.79ZM3735.61 1449V1419.91H3755.22V1424.98H3741.76V1431.91H3754.21V1436.98H3741.76V1443.93H3755.27V1449H3735.61ZM3760.11 1449V1419.91H3766.26V1443.93H3778.73V1449H3760.11ZM3788.95 1419.91V1449H3782.8V1419.91H3788.95ZM3794.01 1449V1419.91H3813.62V1424.98H3800.16V1431.91H3812.61V1436.98H3800.16V1443.93H3813.67V1449H3794.01ZM3806.71 1417.3L3803.86 1413.83L3801 1417.3H3795.85V1417.1L3801.6 1410.85H3806.1L3811.87 1417.1V1417.3H3806.71ZM3834.29 1428.28C3834.17 1427.13 3833.68 1426.24 3832.82 1425.61C3831.96 1424.97 3830.79 1424.65 3829.31 1424.65C3828.31 1424.65 3827.46 1424.8 3826.77 1425.08C3826.08 1425.35 3825.55 1425.74 3825.18 1426.23C3824.82 1426.72 3824.64 1427.28 3824.64 1427.91C3824.62 1428.43 3824.73 1428.88 3824.97 1429.27C3825.21 1429.66 3825.55 1429.99 3825.98 1430.28C3826.4 1430.55 3826.9 1430.79 3827.45 1431C3828.01 1431.2 3828.61 1431.37 3829.24 1431.51L3831.86 1432.14C3833.13 1432.42 3834.29 1432.8 3835.35 1433.28C3836.41 1433.75 3837.33 1434.33 3838.11 1435.02C3838.88 1435.71 3839.49 1436.53 3839.91 1437.47C3840.35 1438.4 3840.57 1439.48 3840.58 1440.69C3840.57 1442.47 3840.11 1444.01 3839.22 1445.32C3838.33 1446.62 3837.04 1447.63 3835.35 1448.35C3833.68 1449.06 3831.65 1449.41 3829.29 1449.41C3826.94 1449.41 3824.89 1449.05 3823.15 1448.33C3821.42 1447.61 3820.06 1446.55 3819.09 1445.14C3818.12 1443.72 3817.61 1441.96 3817.57 1439.87H3823.52C3823.59 1440.84 3823.86 1441.66 3824.36 1442.31C3824.86 1442.95 3825.53 1443.44 3826.36 1443.77C3827.2 1444.09 3828.15 1444.26 3829.22 1444.26C3830.26 1444.26 3831.16 1444.1 3831.93 1443.8C3832.7 1443.5 3833.31 1443.08 3833.73 1442.54C3834.16 1442 3834.37 1441.38 3834.37 1440.68C3834.37 1440.02 3834.18 1439.47 3833.79 1439.03C3833.41 1438.58 3832.85 1438.2 3832.11 1437.89C3831.38 1437.58 3830.49 1437.3 3829.43 1437.04L3826.26 1436.24C3823.81 1435.65 3821.87 1434.71 3820.45 1433.45C3819.03 1432.18 3818.33 1430.47 3818.33 1428.32C3818.33 1426.56 3818.79 1425.02 3819.74 1423.7C3820.7 1422.39 3822.01 1421.36 3823.68 1420.62C3825.34 1419.88 3827.24 1419.51 3829.36 1419.51C3831.52 1419.51 3833.4 1419.88 3835.01 1420.62C3836.63 1421.36 3837.89 1422.39 3838.79 1423.7C3839.69 1425.02 3840.15 1426.54 3840.18 1428.28H3834.29Z" fill="white"/>
<path d="M3405.53 944V914.909H3417.01C3419.2 914.909 3421.08 915.302 3422.63 916.088C3424.19 916.865 3425.38 917.968 3426.2 919.398C3427.02 920.818 3427.43 922.49 3427.43 924.412C3427.43 926.344 3427.02 928.006 3426.18 929.398C3425.35 930.78 3424.14 931.841 3422.56 932.58C3420.99 933.318 3419.08 933.688 3416.85 933.688H3409.16V928.744H3415.86C3417.03 928.744 3418 928.583 3418.78 928.261C3419.56 927.939 3420.14 927.456 3420.51 926.812C3420.9 926.169 3421.1 925.368 3421.1 924.412C3421.1 923.446 3420.9 922.632 3420.51 921.969C3420.14 921.306 3419.55 920.804 3418.77 920.463C3417.99 920.113 3417.01 919.938 3415.83 919.938H3411.68V944H3405.53ZM3421.24 930.761L3428.47 944H3421.68L3414.61 930.761H3421.24ZM3431.78 944V914.909H3451.38V919.98H3437.93V926.912H3450.37V931.983H3437.93V938.929H3451.44V944H3431.78ZM3472.05 923.276C3471.94 922.13 3471.45 921.24 3470.59 920.605C3469.73 919.971 3468.56 919.653 3467.08 919.653C3466.08 919.653 3465.23 919.795 3464.54 920.08C3463.85 920.354 3463.32 920.738 3462.95 921.23C3462.59 921.723 3462.41 922.281 3462.41 922.906C3462.39 923.427 3462.5 923.882 3462.73 924.27C3462.98 924.658 3463.32 924.994 3463.74 925.278C3464.17 925.553 3464.66 925.795 3465.22 926.003C3465.78 926.202 3466.37 926.372 3467.01 926.514L3469.62 927.139C3470.89 927.423 3472.06 927.802 3473.12 928.276C3474.18 928.749 3475.1 929.331 3475.87 930.023C3476.65 930.714 3477.25 931.528 3477.68 932.466C3478.11 933.403 3478.33 934.478 3478.34 935.69C3478.33 937.471 3477.88 939.014 3476.98 940.321C3476.09 941.618 3474.8 942.627 3473.12 943.347C3471.44 944.057 3469.42 944.412 3467.05 944.412C3464.7 944.412 3462.66 944.052 3460.92 943.332C3459.18 942.613 3457.83 941.547 3456.85 940.136C3455.89 938.716 3455.38 936.959 3455.33 934.866H3461.28C3461.35 935.842 3461.63 936.656 3462.12 937.31C3462.62 937.954 3463.29 938.441 3464.13 938.773C3464.97 939.095 3465.92 939.256 3466.98 939.256C3468.02 939.256 3468.93 939.104 3469.69 938.801C3470.47 938.498 3471.07 938.077 3471.5 937.537C3471.92 936.997 3472.14 936.377 3472.14 935.676C3472.14 935.023 3471.94 934.473 3471.55 934.028C3471.18 933.583 3470.62 933.205 3469.88 932.892C3469.15 932.58 3468.25 932.295 3467.19 932.04L3464.03 931.244C3461.57 930.648 3459.64 929.715 3458.22 928.446C3456.8 927.177 3456.09 925.468 3456.1 923.318C3456.09 921.557 3456.56 920.018 3457.51 918.702C3458.46 917.385 3459.77 916.358 3461.44 915.619C3463.11 914.881 3465 914.511 3467.12 914.511C3469.28 914.511 3471.17 914.881 3472.78 915.619C3474.4 916.358 3475.66 917.385 3476.55 918.702C3477.45 920.018 3477.92 921.543 3477.95 923.276H3472.05ZM3481.37 919.98V914.909H3505.27V919.98H3496.36V944H3490.28V919.98H3481.37ZM3510.66 944H3504.07L3514.11 914.909H3522.04L3532.07 944H3525.48L3518.19 921.557H3517.96L3510.66 944ZM3510.25 932.565H3525.82V937.366H3510.25V932.565ZM3553.54 914.909H3559.69V933.801C3559.69 935.922 3559.18 937.778 3558.17 939.369C3557.16 940.96 3555.76 942.201 3553.95 943.091C3552.14 943.972 3550.03 944.412 3547.63 944.412C3545.21 944.412 3543.1 943.972 3541.29 943.091C3539.48 942.201 3538.08 940.96 3537.07 939.369C3536.07 937.778 3535.57 935.922 3535.57 933.801V914.909H3541.72V933.276C3541.72 934.384 3541.96 935.368 3542.44 936.23C3542.93 937.092 3543.63 937.769 3544.52 938.261C3545.41 938.754 3546.44 939 3547.63 939C3548.82 939 3549.86 938.754 3550.74 938.261C3551.63 937.769 3552.31 937.092 3552.8 936.23C3553.29 935.368 3553.54 934.384 3553.54 933.276V914.909ZM3564.75 944V914.909H3576.22C3578.42 914.909 3580.3 915.302 3581.85 916.088C3583.41 916.865 3584.6 917.968 3585.41 919.398C3586.24 920.818 3586.65 922.49 3586.65 924.412C3586.65 926.344 3586.23 928.006 3585.4 929.398C3584.57 930.78 3583.36 931.841 3581.78 932.58C3580.21 933.318 3578.3 933.688 3576.07 933.688H3568.38V928.744H3575.07C3576.25 928.744 3577.22 928.583 3578 928.261C3578.78 927.939 3579.35 927.456 3579.73 926.812C3580.12 926.169 3580.32 925.368 3580.32 924.412C3580.32 923.446 3580.12 922.632 3579.73 921.969C3579.35 921.306 3578.77 920.804 3577.99 920.463C3577.21 920.113 3576.23 919.938 3575.05 919.938H3570.9V944H3564.75ZM3580.46 930.761L3587.69 944H3580.9L3573.82 930.761H3580.46ZM3596.01 944H3589.42L3599.46 914.909H3607.39L3617.42 944H3610.83L3603.54 921.557H3603.31L3596.01 944ZM3595.6 932.565H3611.17V937.366H3595.6V932.565ZM3645.25 914.909V944H3639.94L3627.28 925.69H3627.07V944H3620.92V914.909H3626.32L3638.87 933.205H3639.13V914.909H3645.25ZM3649.23 919.98V914.909H3673.12V919.98H3664.21V944H3658.13V919.98H3649.23ZM3677.05 944V914.909H3696.65V919.98H3683.2V926.912H3695.65V931.983H3683.2V938.929H3696.71V944H3677.05Z" fill="white"/>
<path d="M4707.64 1381.57L4451.92 1232.99L5079.72 699.737L5335.45 848.322L4707.64 1381.57Z" fill="#B8732E"/>
<path d="M5020.2 1563.17L4857.83 1468.83L5358.06 1043.95L5520.43 1138.29L5020.2 1563.17Z" fill="#B8732E"/>
<path d="M4645.39 447.379L5014.77 662.001L4806.62 838.8L4437.24 624.177L4551.38 527.222L4502.67 498.921L4341.53 635.798L4158.87 529.666L4414.02 312.944L4645.39 447.378L4645.39 447.379Z" fill="#B8732E"/>
<path d="M4726.84 1207H4716.53V1177.91H4726.93C4729.85 1177.91 4732.37 1178.49 4734.48 1179.66C4736.59 1180.81 4738.22 1182.47 4739.36 1184.64C4740.5 1186.81 4741.07 1189.41 4741.07 1192.43C4741.07 1195.46 4740.5 1198.06 4739.36 1200.24C4738.22 1202.42 4736.59 1204.09 4734.45 1205.25C4732.33 1206.42 4729.8 1207 4726.84 1207ZM4722.68 1201.73H4726.59C4728.4 1201.73 4729.93 1201.41 4731.17 1200.76C4732.42 1200.11 4733.36 1199.1 4733.99 1197.74C4734.62 1196.37 4734.94 1194.59 4734.94 1192.43C4734.94 1190.28 4734.62 1188.52 4733.99 1187.16C4733.36 1185.79 4732.43 1184.79 4731.19 1184.14C4729.95 1183.5 4728.42 1183.18 4726.6 1183.18H4722.68V1201.73ZM4745.63 1207V1177.91H4765.23V1182.98H4751.78V1189.91H4764.22V1194.98H4751.78V1201.93H4765.29V1207H4745.63ZM4770.12 1207V1177.91H4781.6C4783.81 1177.91 4785.69 1178.33 4787.24 1179.17C4788.79 1180.01 4789.98 1181.17 4790.79 1182.65C4791.61 1184.13 4792.03 1185.84 4792.03 1187.77C4792.03 1189.7 4791.61 1191.4 4790.78 1192.88C4789.94 1194.36 4788.73 1195.51 4787.15 1196.33C4785.58 1197.16 4783.68 1197.57 4781.44 1197.57H4774.13V1192.64H4780.45C4781.63 1192.64 4782.61 1192.44 4783.38 1192.03C4784.15 1191.61 4784.73 1191.04 4785.11 1190.31C4785.5 1189.57 4785.69 1188.72 4785.69 1187.77C4785.69 1186.8 4785.5 1185.96 4785.11 1185.24C4784.73 1184.51 4784.15 1183.95 4783.38 1183.55C4782.6 1183.14 4781.61 1182.94 4780.42 1182.94H4776.27V1207H4770.12ZM4797.68 1207H4791.08L4801.13 1177.91H4809.05L4819.08 1207H4812.49L4805.2 1184.56H4804.98L4797.68 1207ZM4797.26 1195.57H4812.83V1200.37H4797.26V1195.57ZM4822.58 1207V1177.91H4834.06C4836.26 1177.91 4838.13 1178.3 4839.69 1179.09C4841.25 1179.86 4842.44 1180.97 4843.25 1182.4C4844.07 1183.82 4844.49 1185.49 4844.49 1187.41C4844.49 1189.34 4844.07 1191.01 4843.24 1192.4C4842.4 1193.78 4841.2 1194.84 4839.61 1195.58C4838.04 1196.32 4836.14 1196.69 4833.9 1196.69H4826.22V1191.74H4832.91C4834.08 1191.74 4835.06 1191.58 4835.84 1191.26C4836.61 1190.94 4837.19 1190.46 4837.57 1189.81C4837.96 1189.17 4838.15 1188.37 4838.15 1187.41C4838.15 1186.45 4837.96 1185.63 4837.57 1184.97C4837.19 1184.31 4836.61 1183.8 4835.82 1183.46C4835.05 1183.11 4834.07 1182.94 4832.88 1182.94H4828.73V1207H4822.58ZM4838.29 1193.76L4845.52 1207H4838.73L4831.66 1193.76H4838.29ZM4847.73 1182.98V1177.91H4871.62V1182.98H4862.71V1207H4856.63V1182.98H4847.73ZM4877.01 1207H4870.42L4880.46 1177.91H4888.39L4898.42 1207H4891.83L4884.54 1184.56H4884.31L4877.01 1207ZM4876.6 1195.57H4892.17V1200.37H4876.6V1195.57ZM4901.92 1177.91H4909.5L4917.52 1197.45H4917.86L4925.87 1177.91H4933.45V1207H4927.49V1188.07H4927.25L4919.72 1206.86H4915.65L4908.13 1187.99H4907.88V1207H4901.92V1177.91ZM4938.52 1207V1177.91H4958.12V1182.98H4944.67V1189.91H4957.11V1194.98H4944.67V1201.93H4958.18V1207H4938.52ZM4987.35 1177.91V1207H4982.03L4969.38 1188.69H4969.16V1207H4963.01V1177.91H4968.41L4980.97 1196.2H4981.22V1177.91H4987.35ZM4991.32 1182.98V1177.91H5015.21V1182.98H5006.3V1207H5000.23V1182.98H4991.32ZM5044.55 1192.45C5044.55 1195.63 5043.95 1198.33 5042.75 1200.55C5041.55 1202.78 5039.92 1204.48 5037.86 1205.65C5035.81 1206.82 5033.49 1207.4 5030.93 1207.4C5028.34 1207.4 5026.02 1206.81 5023.97 1205.64C5021.91 1204.46 5020.29 1202.76 5019.1 1200.54C5017.9 1198.31 5017.31 1195.62 5017.31 1192.45C5017.31 1189.28 5017.9 1186.58 5019.1 1184.36C5020.29 1182.13 5021.91 1180.44 5023.97 1179.27C5026.02 1178.1 5028.34 1177.51 5030.93 1177.51C5033.49 1177.51 5035.81 1178.1 5037.86 1179.27C5039.92 1180.44 5041.55 1182.13 5042.75 1184.36C5043.95 1186.58 5044.55 1189.28 5044.55 1192.45ZM5038.31 1192.45C5038.31 1190.4 5038.01 1188.67 5037.39 1187.26C5036.79 1185.84 5035.93 1184.77 5034.82 1184.05C5033.71 1183.32 5032.42 1182.95 5030.93 1182.95C5029.44 1182.95 5028.14 1183.32 5027.04 1184.05C5025.93 1184.77 5025.07 1185.84 5024.45 1187.26C5023.84 1188.67 5023.54 1190.4 5023.54 1192.45C5023.54 1194.51 5023.84 1196.24 5024.45 1197.65C5025.07 1199.06 5025.93 1200.13 5027.04 1200.86C5028.14 1201.59 5029.44 1201.96 5030.93 1201.96C5032.42 1201.96 5033.71 1201.59 5034.82 1200.86C5035.93 1200.13 5036.79 1199.06 5037.39 1197.65C5038.01 1196.24 5038.31 1194.51 5038.31 1192.45ZM4726.84 1255H4716.53V1225.91H4726.93C4729.85 1225.91 4732.37 1226.49 4734.48 1227.66C4736.59 1228.81 4738.22 1230.47 4739.36 1232.64C4740.5 1234.81 4741.07 1237.41 4741.07 1240.43C4741.07 1243.46 4740.5 1246.06 4739.36 1248.24C4738.22 1250.42 4736.59 1252.09 4734.45 1253.25C4732.33 1254.42 4729.8 1255 4726.84 1255ZM4722.68 1249.73H4726.59C4728.4 1249.73 4729.93 1249.41 4731.17 1248.76C4732.42 1248.11 4733.36 1247.1 4733.99 1245.74C4734.62 1244.37 4734.94 1242.59 4734.94 1240.43C4734.94 1238.28 4734.62 1236.52 4733.99 1235.16C4733.36 1233.79 4732.43 1232.79 4731.19 1232.14C4729.95 1231.5 4728.42 1231.18 4726.6 1231.18H4722.68V1249.73ZM4745.63 1255V1225.91H4765.23V1230.98H4751.78V1237.91H4764.22V1242.98H4751.78V1249.93H4765.29V1255H4745.63ZM4789.69 1255H4779.38V1225.91H4789.78C4792.7 1225.91 4795.22 1226.49 4797.33 1227.66C4799.45 1228.81 4801.07 1230.47 4802.21 1232.64C4803.35 1234.81 4803.93 1237.41 4803.93 1240.43C4803.93 1243.46 4803.35 1246.06 4802.21 1248.24C4801.07 1250.42 4799.44 1252.09 4797.31 1253.25C4795.18 1254.42 4792.65 1255 4789.69 1255ZM4785.53 1249.73H4789.44C4791.25 1249.73 4792.78 1249.41 4794.02 1248.76C4795.27 1248.11 4796.21 1247.1 4796.84 1245.74C4797.47 1244.37 4797.79 1242.59 4797.79 1240.43C4797.79 1238.28 4797.47 1236.52 4796.84 1235.16C4796.21 1233.79 4795.28 1232.79 4794.04 1232.14C4792.8 1231.5 4791.27 1231.18 4789.45 1231.18H4785.53V1249.73ZM4808.48 1255V1225.91H4828.08V1230.98H4814.63V1237.91H4827.08V1242.98H4814.63V1249.93H4828.14V1255H4808.48ZM4848.75 1234.28C4848.64 1233.13 4848.15 1232.24 4847.29 1231.61C4846.43 1230.97 4845.26 1230.65 4843.78 1230.65C4842.78 1230.65 4841.93 1230.8 4841.24 1231.08C4840.55 1231.35 4840.02 1231.74 4839.65 1232.23C4839.29 1232.72 4839.11 1233.28 4839.11 1233.91C4839.09 1234.43 4839.2 1234.88 4839.44 1235.27C4839.68 1235.66 4840.02 1235.99 4840.45 1236.28C4840.87 1236.55 4841.36 1236.79 4841.92 1237C4842.48 1237.2 4843.08 1237.37 4843.71 1237.51L4846.33 1238.14C4847.59 1238.42 4848.76 1238.8 4849.82 1239.28C4850.88 1239.75 4851.8 1240.33 4852.58 1241.02C4853.35 1241.71 4853.95 1242.53 4854.38 1243.47C4854.82 1244.4 4855.04 1245.48 4855.05 1246.69C4855.04 1248.47 4854.58 1250.01 4853.68 1251.32C4852.79 1252.62 4851.51 1253.63 4849.82 1254.35C4848.14 1255.06 4846.12 1255.41 4843.75 1255.41C4841.41 1255.41 4839.36 1255.05 4837.62 1254.33C4835.89 1253.61 4834.53 1252.55 4833.56 1251.14C4832.59 1249.72 4832.08 1247.96 4832.04 1245.87H4837.99C4838.05 1246.84 4838.33 1247.66 4838.83 1248.31C4839.33 1248.95 4840 1249.44 4840.83 1249.77C4841.67 1250.09 4842.62 1250.26 4843.68 1250.26C4844.73 1250.26 4845.63 1250.1 4846.4 1249.8C4847.17 1249.5 4847.77 1249.08 4848.2 1248.54C4848.63 1248 4848.84 1247.38 4848.84 1246.68C4848.84 1246.02 4848.65 1245.47 4848.26 1245.03C4847.88 1244.58 4847.32 1244.2 4846.58 1243.89C4845.85 1243.58 4844.96 1243.3 4843.9 1243.04L4840.73 1242.24C4838.28 1241.65 4836.34 1240.71 4834.92 1239.45C4833.5 1238.18 4832.79 1236.47 4832.8 1234.32C4832.79 1232.56 4833.26 1231.02 4834.21 1229.7C4835.17 1228.39 4836.48 1227.36 4838.14 1226.62C4839.81 1225.88 4841.7 1225.51 4843.83 1225.51C4845.99 1225.51 4847.87 1225.88 4849.48 1226.62C4851.1 1227.36 4852.36 1228.39 4853.26 1229.7C4854.16 1231.02 4854.62 1232.54 4854.65 1234.28H4848.75ZM4865.34 1225.91V1255H4859.18V1225.91H4865.34ZM4889.69 1235.31C4889.49 1234.62 4889.21 1234.01 4888.85 1233.48C4888.49 1232.94 4888.05 1232.49 4887.53 1232.12C4887.01 1231.74 4886.43 1231.45 4885.76 1231.25C4885.11 1231.05 4884.39 1230.95 4883.59 1230.95C4882.1 1230.95 4880.8 1231.32 4879.67 1232.06C4878.55 1232.8 4877.68 1233.87 4877.06 1235.28C4876.43 1236.69 4876.12 1238.4 4876.12 1240.43C4876.12 1242.45 4876.43 1244.18 4877.04 1245.6C4877.66 1247.02 4878.53 1248.1 4879.66 1248.85C4880.78 1249.59 4882.11 1249.96 4883.65 1249.96C4885.04 1249.96 4886.23 1249.71 4887.21 1249.22C4888.21 1248.72 4888.97 1248.01 4889.49 1247.1C4890.02 1246.19 4890.28 1245.12 4890.28 1243.88L4891.53 1244.06H4884.03V1239.43H4896.21V1243.1C4896.21 1245.65 4895.67 1247.85 4894.59 1249.69C4893.51 1251.52 4892.02 1252.93 4890.13 1253.92C4888.23 1254.91 4886.06 1255.4 4883.62 1255.4C4880.89 1255.4 4878.5 1254.8 4876.43 1253.59C4874.37 1252.38 4872.76 1250.66 4871.6 1248.44C4870.46 1246.2 4869.88 1243.55 4869.88 1240.48C4869.88 1238.12 4870.23 1236.02 4870.91 1234.18C4871.6 1232.32 4872.56 1230.75 4873.8 1229.46C4875.05 1228.17 4876.49 1227.19 4878.14 1226.52C4879.78 1225.85 4881.57 1225.51 4883.49 1225.51C4885.14 1225.51 4886.67 1225.75 4888.09 1226.24C4889.51 1226.71 4890.77 1227.38 4891.87 1228.25C4892.98 1229.12 4893.89 1230.16 4894.59 1231.36C4895.29 1232.56 4895.74 1233.87 4895.94 1235.31H4889.69ZM4925.16 1225.91V1255H4919.85L4907.19 1236.69H4906.98V1255H4900.83V1225.91H4906.22L4918.78 1244.2H4919.04V1225.91H4925.16Z" fill="white"/>
<rect width="25.3465" height="62.5788" transform="matrix(0.864645 0.502384 -0.762169 0.647379 2675.32 1587.32)" fill="#868686"/>
<rect width="25.3465" height="62.5788" transform="matrix(0.864645 0.502384 -0.762169 0.647379 2688.93 1587.32)" fill="#868686"/>
<rect width="25.3465" height="62.5788" transform="matrix(0.864645 0.502384 -0.762169 0.647379 2702.53 1587.32)" fill="#868686"/>
<rect width="25.3465" height="62.5788" transform="matrix(0.864645 0.502384 -0.762169 0.647379 2720.67 1587.32)" fill="#868686"/>
<rect width="25.3465" height="62.5788" transform="matrix(0.864645 0.502384 -0.762169 0.647379 2734.28 1587.32)" fill="#868686"/>
<rect width="25.3465" height="62.5788" transform="matrix(0.864645 0.502384 -0.762169 0.647379 2747.89 1587.32)" fill="#868686"/>
<rect width="25.3465" height="62.5788" transform="matrix(0.864645 0.502384 -0.762169 0.647379 2802.31 1532.9)" fill="#868686"/>
<rect width="25.3465" height="62.5788" transform="matrix(0.864645 0.502384 -0.762169 0.647379 2788.7 1519.29)" fill="#868686"/>
<rect width="25.3465" height="62.5788" transform="matrix(0.864645 0.502384 -0.762169 0.647379 2775.1 1501.15)" fill="#868686"/>
<rect width="25.3465" height="62.5788" transform="matrix(0.864645 0.502384 -0.762169 0.647379 2761.49 1487.55)" fill="#868686"/>
<rect width="25.3465" height="62.5788" transform="matrix(0.864645 0.502384 -0.762169 0.647379 2747.89 1473.94)" fill="#868686"/>
<rect width="25.3465" height="62.5788" transform="matrix(0.864645 0.502384 -0.762169 0.647379 2734.28 1455.8)" fill="#868686"/>
<rect width="56.8724" height="128.168" transform="matrix(0.864645 0.502384 -0.762169 0.647379 2816.01 1544.86)" fill="#868686"/>
<path d="M2514 1600.78L3387.1 2109L4140 1476" stroke="black" stroke-width="10"/>
<ellipse cx="1555" cy="1045.5" rx="20" ry="20.5" fill="black"/>
<g clip-path="url(#clip0_10_1217)">
<mask id="mask0_10_1217" style="mask-type:luminance" maskUnits="userSpaceOnUse" x="4587" y="1111" width="127" height="191">
<path d="M4714 1111H4587V1302H4714V1111Z" fill="white"/>
</mask>
<g mask="url(#mask0_10_1217)">
<path d="M4640.22 1165.85L4688.7 1193.73L4688.62 1139.29L4640.22 1111V1165.85Z" fill="#734619"/>
<path d="M4636.77 1226.23L4636.63 1170.55L4588.44 1198.31L4636.77 1226.23Z" fill="#734619"/>
<path d="M4639.94 1226.01L4688.33 1198.04L4640.06 1170.4L4639.94 1226.01Z" fill="#734619"/>
<path d="M4641.37 1229.01L4689.91 1256.73L4689.83 1201.32L4641.37 1229.01Z" fill="#734619"/>
<path d="M4587 1201.18L4587.15 1256.86L4635.34 1229.09L4587 1201.18Z" fill="#734619"/>
<path d="M4639.82 1231.83L4640.99 1287.49L4688.66 1258.86L4639.82 1231.83Z" fill="#734619"/>
<path d="M4636.67 1232.08L4588.8 1260.92L4637.56 1287.68L4636.67 1232.08Z" fill="#734619"/>
</g>
</g>
<path d="M0 1667.11L1870.63 76.1725L2156.71 231.066L286.081 1822.01L0 1667.11Z" fill="#696969"/>
<path d="M293.5 1813.32L2164.13 222.382L2308.85 297.785L438.214 1888.72L293.5 1813.32Z" fill="#D9D9D9"/>
<path d="M512.5 1626.26L609.649 1543.63L1577.65 2111.99L1480.5 2194.61L512.5 1626.26Z" fill="#696969"/>
<path d="M739.5 1619.26L836.649 1536.63L1709.96 2053.57L1612.81 2136.19L739.5 1619.26Z" fill="#D9D9D9"/>
<path d="M1142.79 890.252H1133.46C1133.29 889.045 1132.94 887.973 1132.42 887.035C1131.89 886.083 1131.22 885.274 1130.39 884.606C1129.57 883.939 1128.62 883.427 1127.54 883.072C1126.47 882.717 1125.32 882.539 1124.07 882.539C1121.81 882.539 1119.84 883.1 1118.16 884.223C1116.49 885.331 1115.19 886.95 1114.26 889.081C1113.34 891.197 1112.88 893.768 1112.88 896.794C1112.88 899.904 1113.34 902.518 1114.26 904.635C1115.2 906.751 1116.51 908.349 1118.18 909.429C1119.86 910.508 1121.8 911.048 1124 911.048C1125.24 911.048 1126.38 910.885 1127.43 910.558C1128.5 910.231 1129.44 909.755 1130.27 909.13C1131.09 908.491 1131.77 907.717 1132.31 906.808C1132.87 905.899 1133.25 904.862 1133.46 903.697L1142.79 903.74C1142.55 905.742 1141.95 907.674 1140.98 909.535C1140.03 911.382 1138.75 913.037 1137.13 914.5C1135.52 915.948 1133.6 917.099 1131.37 917.951C1129.16 918.789 1126.65 919.208 1123.85 919.208C1119.96 919.208 1116.48 918.328 1113.41 916.566C1110.36 914.805 1107.94 912.255 1106.17 908.917C1104.41 905.579 1103.53 901.538 1103.53 896.794C1103.53 892.035 1104.42 887.987 1106.21 884.649C1108 881.311 1110.43 878.768 1113.5 877.021C1116.57 875.26 1120.02 874.379 1123.85 874.379C1126.38 874.379 1128.72 874.734 1130.88 875.444C1133.06 876.154 1134.98 877.191 1136.66 878.555C1138.33 879.904 1139.7 881.559 1140.75 883.519C1141.81 885.48 1142.5 887.724 1142.79 890.252ZM1156.11 918.612H1146.22L1161.29 874.975H1173.18L1188.22 918.612H1178.33L1167.4 884.947H1167.06L1156.11 918.612ZM1155.49 901.46H1178.85V908.662H1155.49V901.46ZM1229.92 890.252H1220.59C1220.42 889.045 1220.07 887.973 1219.55 887.035C1219.02 886.083 1218.35 885.274 1217.52 884.606C1216.7 883.939 1215.75 883.427 1214.67 883.072C1213.6 882.717 1212.44 882.539 1211.19 882.539C1208.94 882.539 1206.97 883.1 1205.29 884.223C1203.62 885.331 1202.32 886.95 1201.39 889.081C1200.47 891.197 1200.01 893.768 1200.01 896.794C1200.01 899.904 1200.47 902.518 1201.39 904.635C1202.33 906.751 1203.64 908.349 1205.31 909.429C1206.99 910.508 1208.93 911.048 1211.13 911.048C1212.37 911.048 1213.51 910.885 1214.56 910.558C1215.63 910.231 1216.57 909.755 1217.39 909.13C1218.22 908.491 1218.9 907.717 1219.44 906.808C1219.99 905.899 1220.38 904.862 1220.59 903.697L1229.92 903.74C1229.68 905.742 1229.08 907.674 1228.11 909.535C1227.16 911.382 1225.87 913.037 1224.26 914.5C1222.65 915.948 1220.73 917.099 1218.5 917.951C1216.29 918.789 1213.78 919.208 1210.98 919.208C1207.09 919.208 1203.61 918.328 1200.54 916.566C1197.49 914.805 1195.07 912.255 1193.3 908.917C1191.54 905.579 1190.65 901.538 1190.65 896.794C1190.65 892.035 1191.55 887.987 1193.34 884.649C1195.13 881.311 1197.56 878.768 1200.63 877.021C1203.69 875.26 1207.15 874.379 1210.98 874.379C1213.51 874.379 1215.85 874.734 1218.01 875.444C1220.19 876.154 1222.11 877.191 1223.79 878.555C1225.46 879.904 1226.83 881.559 1227.88 883.519C1228.94 885.48 1229.62 887.724 1229.92 890.252Z" fill="white"/>
<defs>
<clipPath id="clip0_10_1217">
<rect width="127" height="191" fill="white" transform="translate(4587 1111)"/>
</clipPath>
</defs>
</svg>
