<svg width="3745" height="1780" viewBox="0 0 3745 1780" fill="none" xmlns="http://www.w3.org/2000/svg">
<rect width="3745" height="1780" fill="#838383"/>
<rect x="453.5" y="379.5" width="1237" height="1158" stroke="black"/>
<rect x="1822.5" y="111.5" width="1011" height="852" stroke="black"/>
<rect x="2088.5" y="487.5" width="1202" height="1103" stroke="black" stroke-opacity="0.4"/>
<path d="M428.64 466L398.4 340H414.06L439.08 451.6L463.92 340H479.58L449.88 466H428.64ZM503.036 466C498.716 466 494.696 464.92 490.976 462.76C487.376 460.6 484.496 457.66 482.336 453.94C480.296 450.22 479.276 446.02 479.276 441.34V431.98C479.276 426.34 480.656 421.6 483.416 417.76C486.296 413.92 489.836 411.22 494.036 409.66L516.356 401.38V392.92C516.356 390.04 515.456 387.7 513.656 385.9C511.976 383.98 509.756 383.02 506.996 383.02H486.656V372.4H508.256C514.856 372.4 520.076 374.38 523.916 378.34C527.876 382.18 529.856 387.46 529.856 394.18V466H503.036ZM516.356 455.02V412.72L500.516 418.66C497.396 419.86 495.176 421.48 493.856 423.52C492.656 425.56 492.056 428.8 492.056 433.24V443.32C492.056 446.56 493.256 449.32 495.656 451.6C498.056 453.88 500.936 455.02 504.296 455.02H516.356ZM549.698 372.4H560.858L562.478 379.06L566.978 376.9C570.818 374.98 573.998 373.54 576.518 372.58C579.158 371.62 581.798 371.14 584.438 371.14V381.76C582.878 381.76 580.778 382.24 578.138 383.2C575.498 384.04 570.818 386.08 564.098 389.32V466H549.698V372.4ZM597.863 357.1V342.7H612.263V357.1H597.863ZM597.863 466V372.4H612.263V466H597.863ZM652.978 466C648.658 466 644.638 464.92 640.918 462.76C637.318 460.6 634.438 457.66 632.278 453.94C630.238 450.22 629.218 446.02 629.218 441.34V431.98C629.218 426.34 630.598 421.6 633.358 417.76C636.238 413.92 639.778 411.22 643.978 409.66L666.298 401.38V392.92C666.298 390.04 665.398 387.7 663.598 385.9C661.918 383.98 659.698 383.02 656.938 383.02H636.598V372.4H658.198C664.798 372.4 670.018 374.38 673.858 378.34C677.818 382.18 679.798 387.46 679.798 394.18V466H652.978ZM666.298 455.02V412.72L650.458 418.66C647.338 419.86 645.118 421.48 643.798 423.52C642.598 425.56 641.998 428.8 641.998 433.24V443.32C641.998 446.56 643.198 449.32 645.598 451.6C647.998 453.88 650.878 455.02 654.238 455.02H666.298ZM728.62 471.76C732.94 471.76 736.24 472.54 738.52 474.1C740.8 475.66 741.94 478.48 741.94 482.56C741.94 490.72 737.26 494.8 727.9 494.8H708.64V486.34H723.04C725.8 486.34 727.84 486.04 729.16 485.44C730.48 484.84 731.14 483.82 731.14 482.38C731.14 480.82 730.66 479.8 729.7 479.32C728.74 478.84 727.18 478.6 725.02 478.6H715.66L718.72 466H719.44C712.84 466 707.56 464.02 703.6 460.06C699.76 456.1 697.84 450.76 697.84 444.04V396.16C697.84 388.6 699.82 382.78 703.78 378.7C707.74 374.5 713.5 372.4 721.06 372.4H741.04V383.2H721.42C718.66 383.2 716.44 384.16 714.76 386.08C713.08 387.88 712.24 390.22 712.24 393.1V445.3C712.24 448.18 713.08 450.58 714.76 452.5C716.56 454.3 718.84 455.2 721.6 455.2H741.04V466H729.88L728.62 471.76ZM751.085 363.4C751.205 358 752.225 353.92 754.145 351.16C756.065 348.28 759.545 346.84 764.585 346.84C765.905 346.84 769.805 347.8 776.285 349.72C782.645 351.76 786.725 352.78 788.525 352.78C789.965 352.78 790.925 352.36 791.405 351.52C791.885 350.56 792.185 349.42 792.305 348.1C792.545 346.78 792.725 345.76 792.845 345.04H804.185C804.065 349.12 803.765 352.42 803.285 354.94C802.805 357.34 801.545 359.38 799.505 361.06C797.585 362.62 794.645 363.4 790.685 363.4C788.885 363.4 784.805 362.38 778.445 360.34C771.965 358.42 768.065 357.46 766.745 357.46C765.185 357.46 764.165 357.76 763.685 358.36C763.325 358.96 763.025 359.8 762.785 360.88C762.665 361.96 762.545 362.8 762.425 363.4H751.085ZM776.465 467.26C768.065 467.26 761.525 465.16 756.845 460.96C752.285 456.64 750.005 450.7 750.005 443.14V395.26C750.005 387.7 752.285 381.82 756.845 377.62C761.525 373.3 768.065 371.14 776.465 371.14C784.865 371.14 791.345 373.3 795.905 377.62C800.585 381.82 802.925 387.7 802.925 395.26V443.14C802.925 450.7 800.585 456.64 795.905 460.96C791.345 465.16 784.865 467.26 776.465 467.26ZM776.465 456.1C780.305 456.1 783.305 455.02 785.465 452.86C787.745 450.58 788.885 447.34 788.885 443.14V395.26C788.885 391.06 787.745 387.88 785.465 385.72C783.305 383.44 780.305 382.3 776.465 382.3C772.625 382.3 769.565 383.44 767.285 385.72C765.125 387.88 764.045 391.06 764.045 395.26V443.14C764.045 447.34 765.125 450.58 767.285 452.86C769.565 455.02 772.625 456.1 776.465 456.1ZM839.649 466C833.049 466 827.769 464.02 823.809 460.06C819.969 456.1 818.049 450.76 818.049 444.04V396.16C818.049 388.36 820.209 382.24 824.529 377.8C828.849 373.36 835.269 371.14 843.789 371.14C852.309 371.14 858.669 373.36 862.869 377.8C867.189 382.24 869.349 388.36 869.349 396.16V404.44C869.349 409.48 867.909 413.32 865.029 415.96C862.149 418.48 858.369 420.4 853.689 421.72L832.449 427.66V445.3C832.449 448.18 833.289 450.58 834.969 452.5C836.769 454.3 839.049 455.2 841.809 455.2H861.249V466H839.649ZM843.429 413.26C847.389 412.18 850.029 411.4 851.349 410.92C852.789 410.32 853.749 409.48 854.229 408.4C854.709 407.32 854.949 405.52 854.949 403V393.1C854.949 389.26 853.929 386.44 851.889 384.64C849.969 382.84 847.269 381.94 843.789 381.94C840.429 381.94 837.669 382.9 835.509 384.82C833.469 386.74 832.449 389.5 832.449 393.1V416.32L843.429 413.26ZM878.283 455.2H893.583C898.743 455.2 902.463 453.82 904.743 451.06C907.143 448.18 908.343 444.46 908.343 439.9C908.343 436.3 907.263 433.24 905.103 430.72C902.943 428.2 899.703 425.26 895.383 421.9C891.663 418.9 888.663 416.32 886.383 414.16C884.223 411.88 882.303 409.12 880.623 405.88C879.063 402.52 878.283 398.68 878.283 394.36C878.283 388 880.383 382.78 884.583 378.7C888.903 374.5 894.663 372.4 901.863 372.4H917.523V383.2H904.563C896.043 383.2 891.783 387.22 891.783 395.26C891.783 398.38 892.743 401.08 894.663 403.36C896.583 405.64 899.583 408.34 903.663 411.46C907.383 414.34 910.443 416.98 912.843 419.38C915.243 421.66 917.283 424.6 918.963 428.2C920.643 431.68 921.483 435.82 921.483 440.62C921.483 449.14 919.203 455.5 914.643 459.7C910.203 463.9 903.903 466 895.743 466H878.283V455.2Z" fill="white"/>
<path d="M545 887V533H1010.64L1087 609.457V887H545Z" fill="white" stroke="white" stroke-width="4"/>
<path d="M1164 744V478H1512.8L1570 535.451V744H1164Z" stroke="white" stroke-width="4"/>
<path d="M2137 903V549H2602.64L2679 625.457V903H2137Z" fill="white" stroke="white" stroke-width="4"/>
<path d="M2231.45 763V672H2250.56L2271.75 750.65V672H2283.32V763H2266.94L2242.89 680.32V763H2231.45ZM2316.12 763.91C2310.05 763.91 2305.33 762.393 2301.95 759.36C2298.66 756.24 2297.01 751.95 2297.01 746.49V711.91C2297.01 706.45 2298.66 702.203 2301.95 699.17C2305.33 696.05 2310.05 694.49 2316.12 694.49C2322.19 694.49 2326.87 696.05 2330.16 699.17C2333.54 702.203 2335.23 706.45 2335.23 711.91V746.49C2335.23 751.95 2333.54 756.24 2330.16 759.36C2326.87 762.393 2322.19 763.91 2316.12 763.91ZM2316.12 755.85C2318.89 755.85 2321.06 755.07 2322.62 753.51C2324.27 751.863 2325.09 749.523 2325.09 746.49V711.91C2325.09 708.877 2324.27 706.58 2322.62 705.02C2321.06 703.373 2318.89 702.55 2316.12 702.55C2313.35 702.55 2311.14 703.373 2309.49 705.02C2307.93 706.58 2307.15 708.877 2307.15 711.91V746.49C2307.15 749.523 2307.93 751.863 2309.49 753.51C2311.14 755.07 2313.35 755.85 2316.12 755.85ZM2367.08 763C2362.31 763 2358.54 761.57 2355.77 758.71C2353 755.85 2351.61 751.993 2351.61 747.14V703.2H2343.81V695.4H2351.61V675.77L2362.01 671.87V695.4H2372.41V703.2H2362.01V748.05C2362.01 750.13 2362.57 751.863 2363.7 753.25C2364.91 754.55 2366.52 755.2 2368.51 755.2H2372.41V763H2367.08ZM2382.76 684.35V673.95H2393.16V684.35H2382.76ZM2382.76 763V695.4H2393.16V763H2382.76ZM2425.3 763.91C2419.23 763.91 2414.51 762.393 2411.13 759.36C2407.83 756.24 2406.19 751.95 2406.19 746.49V711.91C2406.19 706.45 2407.83 702.203 2411.13 699.17C2414.51 696.05 2419.23 694.49 2425.3 694.49C2431.36 694.49 2436.04 696.05 2439.34 699.17C2442.72 702.203 2444.41 706.45 2444.41 711.91V746.49C2444.41 751.95 2442.72 756.24 2439.34 759.36C2436.04 762.393 2431.36 763.91 2425.3 763.91ZM2425.3 755.85C2428.07 755.85 2430.24 755.07 2431.8 753.51C2433.44 751.863 2434.27 749.523 2434.27 746.49V711.91C2434.27 708.877 2433.44 706.58 2431.8 705.02C2430.24 703.373 2428.07 702.55 2425.3 702.55C2422.52 702.55 2420.31 703.373 2418.67 705.02C2417.11 706.58 2416.33 708.877 2416.33 711.91V746.49C2416.33 749.523 2417.11 751.863 2418.67 753.51C2420.31 755.07 2422.52 755.85 2425.3 755.85ZM2457.41 695.4H2465.47L2466.64 699.17L2471.97 697.61C2475.61 696.483 2478.47 695.703 2480.55 695.27C2482.72 694.75 2484.75 694.49 2486.66 694.49C2489.78 694.49 2492.08 695.573 2493.55 697.74C2495.02 699.907 2495.76 702.723 2495.76 706.19V763H2485.36V709.57C2485.36 707.057 2485.19 705.323 2484.84 704.37C2484.49 703.33 2483.63 702.81 2482.24 702.81C2481.55 702.81 2476.74 704.197 2467.81 706.97V763H2457.41V695.4Z" fill="#838383"/>
<path d="M610.56 695.16H613.68C619.4 695.16 622.26 691.997 622.26 685.67V613H633.7V686.19C633.7 691.13 632.227 695.333 629.28 698.8C626.333 702.267 622.52 704 617.84 704H610.56V695.16ZM655.072 704.91C651.952 704.91 649.612 703.827 648.052 701.66C646.578 699.493 645.842 696.677 645.842 693.21V636.4H656.242V689.83C656.242 692.257 656.415 693.99 656.762 695.03C657.108 696.07 657.932 696.59 659.232 696.59C659.838 696.59 664.735 695.29 673.922 692.69V636.4H684.322V704H676.912L674.962 699.58C673.575 700.1 672.535 700.447 671.842 700.62C667.768 702.093 664.475 703.177 661.962 703.87C659.448 704.563 657.152 704.91 655.072 704.91ZM699.954 636.4H721.014C725.781 636.4 729.811 637.96 733.104 641.08C736.484 644.2 738.174 648.1 738.174 652.78V687.75C738.174 692.43 736.528 696.33 733.234 699.45C729.941 702.483 725.911 704 721.144 704H710.354V724.8H699.954V636.4ZM718.934 696.33C721.361 696.33 723.441 695.507 725.174 693.86C726.908 692.213 727.774 690.177 727.774 687.75V652.78C727.774 650.353 726.908 648.317 725.174 646.67C723.441 645.023 721.361 644.2 718.934 644.2H710.354V696.33H718.934ZM750.482 625.35V614.95H760.882V625.35H750.482ZM750.482 704V636.4H760.882V704H750.482ZM795.357 704C790.59 704 786.82 702.57 784.047 699.71C781.274 696.85 779.887 692.993 779.887 688.14V644.2H772.087V636.4H779.887V616.77L790.287 612.87V636.4H800.687V644.2H790.287V689.05C790.287 691.13 790.85 692.863 791.977 694.25C793.19 695.55 794.794 696.2 796.787 696.2H800.687V704H795.357ZM824.558 704C819.792 704 815.978 702.57 813.118 699.71C810.345 696.85 808.958 692.993 808.958 688.14V653.56C808.958 647.927 810.518 643.507 813.638 640.3C816.758 637.093 821.395 635.49 827.548 635.49C833.702 635.49 838.295 637.093 841.328 640.3C844.448 643.507 846.008 647.927 846.008 653.56V659.54C846.008 663.18 844.968 665.953 842.888 667.86C840.808 669.68 838.078 671.067 834.698 672.02L819.358 676.31V689.05C819.358 691.13 819.965 692.863 821.178 694.25C822.478 695.55 824.125 696.2 826.118 696.2H840.158V704H824.558ZM827.288 665.91C830.148 665.13 832.055 664.567 833.008 664.22C834.048 663.787 834.742 663.18 835.088 662.4C835.435 661.62 835.608 660.32 835.608 658.5V651.35C835.608 648.577 834.872 646.54 833.398 645.24C832.012 643.94 830.062 643.29 827.548 643.29C825.122 643.29 823.128 643.983 821.568 645.37C820.095 646.757 819.358 648.75 819.358 651.35V668.12L827.288 665.91ZM856.361 636.4H864.421L865.591 641.21L868.841 639.65C871.614 638.263 873.911 637.223 875.731 636.53C877.637 635.837 879.544 635.49 881.451 635.49V643.16C880.324 643.16 878.807 643.507 876.901 644.2C874.994 644.807 871.614 646.28 866.761 648.62V704H856.361V636.4ZM617.45 804V713H636.56L657.75 791.65V713H669.32V804H652.94L628.89 721.32V804H617.45ZM702.119 804.91C696.052 804.91 691.329 803.393 687.949 800.36C684.655 797.24 683.009 792.95 683.009 787.49V752.91C683.009 747.45 684.655 743.203 687.949 740.17C691.329 737.05 696.052 735.49 702.119 735.49C708.185 735.49 712.865 737.05 716.159 740.17C719.539 743.203 721.229 747.45 721.229 752.91V787.49C721.229 792.95 719.539 797.24 716.159 800.36C712.865 803.393 708.185 804.91 702.119 804.91ZM702.119 796.85C704.892 796.85 707.059 796.07 708.619 794.51C710.265 792.863 711.089 790.523 711.089 787.49V752.91C711.089 749.877 710.265 747.58 708.619 746.02C707.059 744.373 704.892 743.55 702.119 743.55C699.345 743.55 697.135 744.373 695.489 746.02C693.929 747.58 693.149 749.877 693.149 752.91V787.49C693.149 790.523 693.929 792.863 695.489 794.51C697.135 796.07 699.345 796.85 702.119 796.85ZM753.082 804C748.315 804 744.545 802.57 741.772 799.71C738.998 796.85 737.612 792.993 737.612 788.14V744.2H729.812V736.4H737.612V716.77L748.012 712.87V736.4H758.412V744.2H748.012V789.05C748.012 791.13 748.575 792.863 749.702 794.25C750.915 795.55 752.518 796.2 754.512 796.2H758.412V804H753.082ZM782.283 804C777.516 804 773.703 802.57 770.843 799.71C768.07 796.85 766.683 792.993 766.683 788.14V753.56C766.683 747.927 768.243 743.507 771.363 740.3C774.483 737.093 779.12 735.49 785.273 735.49C791.426 735.49 796.02 737.093 799.053 740.3C802.173 743.507 803.733 747.927 803.733 753.56V759.54C803.733 763.18 802.693 765.953 800.613 767.86C798.533 769.68 795.803 771.067 792.423 772.02L777.083 776.31V789.05C777.083 791.13 777.69 792.863 778.903 794.25C780.203 795.55 781.85 796.2 783.843 796.2H797.883V804H782.283ZM785.013 765.91C787.873 765.13 789.78 764.567 790.733 764.22C791.773 763.787 792.466 763.18 792.813 762.4C793.16 761.62 793.333 760.32 793.333 758.5V751.35C793.333 748.577 792.596 746.54 791.123 745.24C789.736 743.94 787.786 743.29 785.273 743.29C782.846 743.29 780.853 743.983 779.293 745.37C777.82 746.757 777.083 748.75 777.083 751.35V768.12L785.013 765.91ZM814.085 713H824.485V733.28L841.905 739.39C844.938 740.43 847.452 742.25 849.445 744.85C851.525 747.363 852.565 750.483 852.565 754.21V787.62C852.565 792.3 850.918 796.2 847.625 799.32C844.332 802.44 840.302 804 835.535 804H814.085V713ZM833.325 796.2C835.752 796.2 837.832 795.377 839.565 793.73C841.298 792.083 842.165 790.047 842.165 787.62V756.29C842.165 752.997 841.688 750.613 840.735 749.14C839.868 747.58 838.308 746.453 836.055 745.76L824.485 741.86V796.2H833.325ZM881.376 804.91C875.31 804.91 870.586 803.393 867.206 800.36C863.913 797.24 862.266 792.95 862.266 787.49V752.91C862.266 747.45 863.913 743.203 867.206 740.17C870.586 737.05 875.31 735.49 881.376 735.49C887.443 735.49 892.123 737.05 895.416 740.17C898.796 743.203 900.486 747.45 900.486 752.91V787.49C900.486 792.95 898.796 797.24 895.416 800.36C892.123 803.393 887.443 804.91 881.376 804.91ZM881.376 796.85C884.15 796.85 886.316 796.07 887.876 794.51C889.523 792.863 890.346 790.523 890.346 787.49V752.91C890.346 749.877 889.523 747.58 887.876 746.02C886.316 744.373 884.15 743.55 881.376 743.55C878.603 743.55 876.393 744.373 874.746 746.02C873.186 747.58 872.406 749.877 872.406 752.91V787.49C872.406 790.523 873.186 792.863 874.746 794.51C876.393 796.07 878.603 796.85 881.376 796.85ZM929.999 804.91C923.933 804.91 919.209 803.393 915.829 800.36C912.536 797.24 910.889 792.95 910.889 787.49V752.91C910.889 747.45 912.536 743.203 915.829 740.17C919.209 737.05 923.933 735.49 929.999 735.49C936.066 735.49 940.746 737.05 944.039 740.17C947.419 743.203 949.109 747.45 949.109 752.91V787.49C949.109 792.95 947.419 797.24 944.039 800.36C940.746 803.393 936.066 804.91 929.999 804.91ZM929.999 796.85C932.773 796.85 934.939 796.07 936.499 794.51C938.146 792.863 938.969 790.523 938.969 787.49V752.91C938.969 749.877 938.146 747.58 936.499 746.02C934.939 744.373 932.773 743.55 929.999 743.55C927.226 743.55 925.016 744.373 923.369 746.02C921.809 747.58 921.029 749.877 921.029 752.91V787.49C921.029 790.523 921.809 792.863 923.369 794.51C925.016 796.07 927.226 796.85 929.999 796.85ZM961.853 804V713H972.253V763.96L992.403 736.4H1002.15L982.913 763.96L1003.06 804H993.313L976.803 769.94L972.253 776.05V804H961.853Z" fill="#838383"/>
<path d="M1245.72 639.56C1240.76 639.56 1236.97 638.307 1234.36 635.8C1231.75 633.24 1230.44 629.693 1230.44 625.16V596.84C1230.44 592.307 1231.75 588.787 1234.36 586.28C1236.97 583.72 1240.76 582.44 1245.72 582.44C1250.73 582.44 1254.55 583.72 1257.16 586.28C1259.77 588.787 1261.08 592.307 1261.08 596.84V625.16C1261.08 629.693 1259.77 633.24 1257.16 635.8C1254.55 638.307 1250.73 639.56 1245.72 639.56ZM1245.72 634.28C1248.07 634.28 1250.04 633.613 1251.64 632.28C1253.24 630.893 1254.04 628.973 1254.04 626.52V595.48C1254.04 593.027 1253.24 591.133 1251.64 589.8C1250.04 588.413 1248.07 587.72 1245.72 587.72C1243.37 587.72 1241.4 588.413 1239.8 589.8C1238.25 591.133 1237.48 593.027 1237.48 595.48V626.52C1237.48 628.973 1238.25 630.893 1239.8 632.28C1241.4 633.613 1243.37 634.28 1245.72 634.28ZM1269.3 583H1275.7V595.48L1286.42 599.24C1288.29 599.88 1289.83 601 1291.06 602.6C1292.34 604.147 1292.98 606.067 1292.98 608.36V628.92C1292.98 631.8 1291.97 634.2 1289.94 636.12C1287.91 638.04 1285.43 639 1282.5 639H1269.3V583ZM1281.14 634.2C1282.63 634.2 1283.91 633.693 1284.98 632.68C1286.05 631.667 1286.58 630.413 1286.58 628.92V609.64C1286.58 607.613 1286.29 606.147 1285.7 605.24C1285.17 604.28 1284.21 603.587 1282.82 603.16L1275.7 600.76V634.2H1281.14ZM1298.15 634.2H1304.95C1307.24 634.2 1308.9 633.587 1309.91 632.36C1310.98 631.08 1311.51 629.427 1311.51 627.4C1311.51 625.8 1311.03 624.44 1310.07 623.32C1309.11 622.2 1307.67 620.893 1305.75 619.4C1304.1 618.067 1302.76 616.92 1301.75 615.96C1300.79 614.947 1299.94 613.72 1299.19 612.28C1298.5 610.787 1298.15 609.08 1298.15 607.16C1298.15 604.333 1299.08 602.013 1300.95 600.2C1302.87 598.333 1305.43 597.4 1308.63 597.4H1315.59V602.2H1309.83C1306.04 602.2 1304.15 603.987 1304.15 607.56C1304.15 608.947 1304.58 610.147 1305.43 611.16C1306.28 612.173 1307.62 613.373 1309.43 614.76C1311.08 616.04 1312.44 617.213 1313.51 618.28C1314.58 619.293 1315.48 620.6 1316.23 622.2C1316.98 623.747 1317.35 625.587 1317.35 627.72C1317.35 631.507 1316.34 634.333 1314.31 636.2C1312.34 638.067 1309.54 639 1305.91 639H1298.15V634.2ZM1332.85 639C1329.92 639 1327.57 638.12 1325.81 636.36C1324.11 634.6 1323.25 632.227 1323.25 629.24V607.96C1323.25 604.493 1324.21 601.773 1326.13 599.8C1328.05 597.827 1330.91 596.84 1334.69 596.84C1338.48 596.84 1341.31 597.827 1343.17 599.8C1345.09 601.773 1346.05 604.493 1346.05 607.96V611.64C1346.05 613.88 1345.41 615.587 1344.13 616.76C1342.85 617.88 1341.17 618.733 1339.09 619.32L1329.65 621.96V629.8C1329.65 631.08 1330.03 632.147 1330.77 633C1331.57 633.8 1332.59 634.2 1333.81 634.2H1342.45V639H1332.85ZM1334.53 615.56C1336.29 615.08 1337.47 614.733 1338.05 614.52C1338.69 614.253 1339.12 613.88 1339.33 613.4C1339.55 612.92 1339.65 612.12 1339.65 611V606.6C1339.65 604.893 1339.2 603.64 1338.29 602.84C1337.44 602.04 1336.24 601.64 1334.69 601.64C1333.2 601.64 1331.97 602.067 1331.01 602.92C1330.11 603.773 1329.65 605 1329.65 606.6V616.92L1334.53 615.56ZM1352.43 597.4H1357.39L1358.11 600.36L1360.11 599.4C1361.81 598.547 1363.23 597.907 1364.35 597.48C1365.52 597.053 1366.69 596.84 1367.87 596.84V601.56C1367.17 601.56 1366.24 601.773 1365.07 602.2C1363.89 602.573 1361.81 603.48 1358.83 604.92V639H1352.43V597.4ZM1379.75 639L1370.23 597.4H1376.87L1383.03 630.92L1389.11 597.4H1395.75L1386.23 639H1379.75ZM1410.2 639C1408.28 639 1406.5 638.52 1404.84 637.56C1403.24 636.6 1401.96 635.293 1401 633.64C1400.1 631.987 1399.64 630.12 1399.64 628.04V623.88C1399.64 621.373 1400.26 619.267 1401.48 617.56C1402.76 615.853 1404.34 614.653 1406.2 613.96L1416.12 610.28V606.52C1416.12 605.24 1415.72 604.2 1414.92 603.4C1414.18 602.547 1413.19 602.12 1411.96 602.12H1402.92V597.4H1412.52C1415.46 597.4 1417.78 598.28 1419.48 600.04C1421.24 601.747 1422.12 604.093 1422.12 607.08V639H1410.2ZM1416.12 634.12V615.32L1409.08 617.96C1407.7 618.493 1406.71 619.213 1406.12 620.12C1405.59 621.027 1405.32 622.467 1405.32 624.44V628.92C1405.32 630.36 1405.86 631.587 1406.92 632.6C1407.99 633.613 1409.27 634.12 1410.76 634.12H1416.12ZM1430.94 583H1437.34V595.48L1448.06 599.24C1449.93 599.88 1451.47 601 1452.7 602.6C1453.98 604.147 1454.62 606.067 1454.62 608.36V628.92C1454.62 631.8 1453.61 634.2 1451.58 636.12C1449.55 638.04 1447.07 639 1444.14 639H1430.94V583ZM1442.78 634.2C1444.27 634.2 1445.55 633.693 1446.62 632.68C1447.69 631.667 1448.22 630.413 1448.22 628.92V609.64C1448.22 607.613 1447.93 606.147 1447.34 605.24C1446.81 604.28 1445.85 603.587 1444.46 603.16L1437.34 600.76V634.2H1442.78ZM1462.27 639V583H1468.67V639H1462.27ZM1486.53 639C1483.59 639 1481.25 638.12 1479.49 636.36C1477.78 634.6 1476.93 632.227 1476.93 629.24V607.96C1476.93 604.493 1477.89 601.773 1479.81 599.8C1481.73 597.827 1484.58 596.84 1488.37 596.84C1492.15 596.84 1494.98 597.827 1496.85 599.8C1498.77 601.773 1499.73 604.493 1499.73 607.96V611.64C1499.73 613.88 1499.09 615.587 1497.81 616.76C1496.53 617.88 1494.85 618.733 1492.77 619.32L1483.33 621.96V629.8C1483.33 631.08 1483.7 632.147 1484.45 633C1485.25 633.8 1486.26 634.2 1487.49 634.2H1496.13V639H1486.53ZM1488.21 615.56C1489.97 615.08 1491.14 614.733 1491.73 614.52C1492.37 614.253 1492.79 613.88 1493.01 613.4C1493.22 612.92 1493.33 612.12 1493.33 611V606.6C1493.33 604.893 1492.87 603.64 1491.97 602.84C1491.11 602.04 1489.91 601.64 1488.37 601.64C1486.87 601.64 1485.65 602.067 1484.69 602.92C1483.78 603.773 1483.33 605 1483.33 606.6V616.92L1488.21 615.56Z" fill="white"/>
<path d="M630 1203V937H978.803L1036 994.451V1203H630Z" stroke="white" stroke-width="4"/>
<path d="M711.72 1058C706.867 1058 703.107 1056.77 700.44 1054.32C697.773 1051.87 696.44 1048.27 696.44 1043.52V1016.4C696.44 1011.71 697.88 1008.13 700.76 1005.68C703.64 1003.23 707.56 1002 712.52 1002H724.28V1007.36H711.72C709.267 1007.36 707.267 1008.08 705.72 1009.52C704.227 1010.91 703.48 1012.77 703.48 1015.12V1044.96C703.48 1047.36 704.2 1049.25 705.64 1050.64C707.08 1052.03 709 1052.72 711.4 1052.72H718.84V1030.72H711.64V1025.44H725.88V1058H711.72ZM744.835 1058.56C741.102 1058.56 738.195 1057.63 736.115 1055.76C734.088 1053.84 733.075 1051.2 733.075 1047.84V1026.56C733.075 1023.2 734.088 1020.59 736.115 1018.72C738.195 1016.8 741.102 1015.84 744.835 1015.84C748.568 1015.84 751.448 1016.8 753.475 1018.72C755.555 1020.59 756.595 1023.2 756.595 1026.56V1047.84C756.595 1051.2 755.555 1053.84 753.475 1055.76C751.448 1057.63 748.568 1058.56 744.835 1058.56ZM744.835 1053.6C746.542 1053.6 747.875 1053.12 748.835 1052.16C749.848 1051.15 750.355 1049.71 750.355 1047.84V1026.56C750.355 1024.69 749.848 1023.28 748.835 1022.32C747.875 1021.31 746.542 1020.8 744.835 1020.8C743.128 1020.8 741.768 1021.31 740.755 1022.32C739.795 1023.28 739.315 1024.69 739.315 1026.56V1047.84C739.315 1049.71 739.795 1051.15 740.755 1052.16C741.768 1053.12 743.128 1053.6 744.835 1053.6ZM774.757 1058.56C771.024 1058.56 768.117 1057.63 766.037 1055.76C764.01 1053.84 762.997 1051.2 762.997 1047.84V1026.56C762.997 1023.2 764.01 1020.59 766.037 1018.72C768.117 1016.8 771.024 1015.84 774.757 1015.84C778.49 1015.84 781.37 1016.8 783.397 1018.72C785.477 1020.59 786.517 1023.2 786.517 1026.56V1047.84C786.517 1051.2 785.477 1053.84 783.397 1055.76C781.37 1057.63 778.49 1058.56 774.757 1058.56ZM774.757 1053.6C776.464 1053.6 777.797 1053.12 778.757 1052.16C779.77 1051.15 780.277 1049.71 780.277 1047.84V1026.56C780.277 1024.69 779.77 1023.28 778.757 1022.32C777.797 1021.31 776.464 1020.8 774.757 1020.8C773.05 1020.8 771.69 1021.31 770.677 1022.32C769.717 1023.28 769.237 1024.69 769.237 1026.56V1047.84C769.237 1049.71 769.717 1051.15 770.677 1052.16C771.69 1053.12 773.05 1053.6 774.757 1053.6ZM797.879 1066H806.119C807.345 1066 808.305 1065.57 808.999 1064.72C809.745 1063.92 810.119 1062.88 810.119 1061.6V1058.08H803.479C800.545 1058.08 798.065 1057.12 796.039 1055.2C794.012 1053.28 792.999 1050.88 792.999 1048V1026.48C792.999 1023.6 794.012 1021.2 796.039 1019.28C798.119 1017.36 800.625 1016.4 803.559 1016.4H816.599V1061.04C816.599 1064.03 815.772 1066.4 814.119 1068.16C812.519 1069.92 810.252 1070.8 807.319 1070.8H797.879V1066ZM810.199 1053.28V1021.2H804.839C803.345 1021.2 802.065 1021.71 800.999 1022.72C799.932 1023.73 799.399 1024.99 799.399 1026.48V1048C799.399 1049.49 799.932 1050.75 800.999 1051.76C802.065 1052.77 803.345 1053.28 804.839 1053.28H810.199ZM825.458 1058V1002H831.858V1058H825.458ZM849.714 1058C846.78 1058 844.434 1057.12 842.674 1055.36C840.967 1053.6 840.114 1051.23 840.114 1048.24V1026.96C840.114 1023.49 841.074 1020.77 842.994 1018.8C844.914 1016.83 847.767 1015.84 851.554 1015.84C855.34 1015.84 858.167 1016.83 860.034 1018.8C861.954 1020.77 862.914 1023.49 862.914 1026.96V1030.64C862.914 1032.88 862.274 1034.59 860.994 1035.76C859.714 1036.88 858.034 1037.73 855.954 1038.32L846.514 1040.96V1048.8C846.514 1050.08 846.887 1051.15 847.634 1052C848.434 1052.8 849.447 1053.2 850.674 1053.2H859.314V1058H849.714ZM851.394 1034.56C853.154 1034.08 854.327 1033.73 854.914 1033.52C855.554 1033.25 855.98 1032.88 856.194 1032.4C856.407 1031.92 856.514 1031.12 856.514 1030V1025.6C856.514 1023.89 856.06 1022.64 855.154 1021.84C854.3 1021.04 853.1 1020.64 851.554 1020.64C850.06 1020.64 848.834 1021.07 847.874 1021.92C846.967 1022.77 846.514 1024 846.514 1025.6V1035.92L851.394 1034.56ZM711.72 1138C706.867 1138 703.107 1136.77 700.44 1134.32C697.773 1131.87 696.44 1128.27 696.44 1123.52V1096.48C696.44 1091.73 697.773 1088.13 700.44 1085.68C703.107 1083.23 706.867 1082 711.72 1082H722.44V1087.28H711.72C709.267 1087.28 707.267 1088 705.72 1089.44C704.227 1090.83 703.48 1092.69 703.48 1095.04V1124.96C703.48 1127.31 704.227 1129.2 705.72 1130.64C707.267 1132.03 709.267 1132.72 711.72 1132.72H722.44V1138H711.72ZM738.976 1138.56C735.242 1138.56 732.336 1137.63 730.256 1135.76C728.229 1133.84 727.216 1131.2 727.216 1127.84V1106.56C727.216 1103.2 728.229 1100.59 730.256 1098.72C732.336 1096.8 735.242 1095.84 738.976 1095.84C742.709 1095.84 745.589 1096.8 747.616 1098.72C749.696 1100.59 750.736 1103.2 750.736 1106.56V1127.84C750.736 1131.2 749.696 1133.84 747.616 1135.76C745.589 1137.63 742.709 1138.56 738.976 1138.56ZM738.976 1133.6C740.682 1133.6 742.016 1133.12 742.976 1132.16C743.989 1131.15 744.496 1129.71 744.496 1127.84V1106.56C744.496 1104.69 743.989 1103.28 742.976 1102.32C742.016 1101.31 740.682 1100.8 738.976 1100.8C737.269 1100.8 735.909 1101.31 734.896 1102.32C733.936 1103.28 733.456 1104.69 733.456 1106.56V1127.84C733.456 1129.71 733.936 1131.15 734.896 1132.16C735.909 1133.12 737.269 1133.6 738.976 1133.6ZM758.818 1138V1082H765.218V1138H758.818ZM783.233 1138C781.313 1138 779.526 1137.52 777.873 1136.56C776.273 1135.6 774.993 1134.29 774.033 1132.64C773.126 1130.99 772.673 1129.12 772.673 1127.04V1122.88C772.673 1120.37 773.286 1118.27 774.513 1116.56C775.793 1114.85 777.366 1113.65 779.233 1112.96L789.153 1109.28V1105.52C789.153 1104.24 788.753 1103.2 787.953 1102.4C787.206 1101.55 786.22 1101.12 784.993 1101.12H775.953V1096.4H785.553C788.486 1096.4 790.806 1097.28 792.513 1099.04C794.273 1100.75 795.153 1103.09 795.153 1106.08V1138H783.233ZM789.153 1133.12V1114.32L782.113 1116.96C780.726 1117.49 779.74 1118.21 779.153 1119.12C778.62 1120.03 778.353 1121.47 778.353 1123.44V1127.92C778.353 1129.36 778.886 1130.59 779.953 1131.6C781.02 1132.61 782.3 1133.12 783.793 1133.12H789.153ZM803.972 1082H810.372V1094.48L821.092 1098.24C822.959 1098.88 824.505 1100 825.732 1101.6C827.012 1103.15 827.652 1105.07 827.652 1107.36V1127.92C827.652 1130.8 826.639 1133.2 824.612 1135.12C822.585 1137.04 820.105 1138 817.172 1138H803.972V1082ZM815.812 1133.2C817.305 1133.2 818.585 1132.69 819.652 1131.68C820.719 1130.67 821.252 1129.41 821.252 1127.92V1108.64C821.252 1106.61 820.959 1105.15 820.372 1104.24C819.839 1103.28 818.879 1102.59 817.492 1102.16L810.372 1099.76V1133.2H815.812Z" fill="white"/>
<path d="M1101 1475V1209H1449.8L1507 1266.45V1475H1101Z" stroke="white" stroke-width="4"/>
<path d="M1169.2 1330V1274H1180.96L1194 1322.4V1274H1201.12V1330H1191.04L1176.24 1279.12V1330H1169.2ZM1219.46 1330C1216.53 1330 1214.18 1329.12 1212.42 1327.36C1210.72 1325.6 1209.86 1323.23 1209.86 1320.24V1298.96C1209.86 1295.49 1210.82 1292.77 1212.74 1290.8C1214.66 1288.83 1217.52 1287.84 1221.3 1287.84C1225.09 1287.84 1227.92 1288.83 1229.78 1290.8C1231.7 1292.77 1232.66 1295.49 1232.66 1298.96V1302.64C1232.66 1304.88 1232.02 1306.59 1230.74 1307.76C1229.46 1308.88 1227.78 1309.73 1225.7 1310.32L1216.26 1312.96V1320.8C1216.26 1322.08 1216.64 1323.15 1217.38 1324C1218.18 1324.8 1219.2 1325.2 1220.42 1325.2H1229.06V1330H1219.46ZM1221.14 1306.56C1222.9 1306.08 1224.08 1305.73 1224.66 1305.52C1225.3 1305.25 1225.73 1304.88 1225.94 1304.4C1226.16 1303.92 1226.26 1303.12 1226.26 1302V1297.6C1226.26 1295.89 1225.81 1294.64 1224.9 1293.84C1224.05 1293.04 1222.85 1292.64 1221.3 1292.64C1219.81 1292.64 1218.58 1293.07 1217.62 1293.92C1216.72 1294.77 1216.26 1296 1216.26 1297.6V1307.92L1221.14 1306.56ZM1235.03 1330L1246.55 1309.12L1235.83 1288.4H1241.99L1249.51 1303.12L1257.11 1288.4H1263.27L1252.55 1309.12L1264.07 1330H1257.35L1249.51 1314.8L1241.75 1330H1235.03ZM1280.87 1330C1277.94 1330 1275.62 1329.12 1273.91 1327.36C1272.2 1325.6 1271.35 1323.23 1271.35 1320.24V1293.2H1266.55V1288.4H1271.35V1276.32L1277.75 1273.92V1288.4H1284.15V1293.2H1277.75V1320.8C1277.75 1322.08 1278.1 1323.15 1278.79 1324C1279.54 1324.8 1280.52 1325.2 1281.75 1325.2H1284.15V1330H1280.87ZM1164.96 1404.56H1166.88C1170.4 1404.56 1172.16 1402.61 1172.16 1398.72V1354H1179.2V1399.04C1179.2 1402.08 1178.29 1404.67 1176.48 1406.8C1174.67 1408.93 1172.32 1410 1169.44 1410H1164.96V1404.56ZM1197.63 1410.56C1193.9 1410.56 1190.99 1409.63 1188.91 1407.76C1186.89 1405.84 1185.87 1403.2 1185.87 1399.84V1378.56C1185.87 1375.2 1186.89 1372.59 1188.91 1370.72C1190.99 1368.8 1193.9 1367.84 1197.63 1367.84C1201.37 1367.84 1204.25 1368.8 1206.27 1370.72C1208.35 1372.59 1209.39 1375.2 1209.39 1378.56V1399.84C1209.39 1403.2 1208.35 1405.84 1206.27 1407.76C1204.25 1409.63 1201.37 1410.56 1197.63 1410.56ZM1197.63 1405.6C1199.34 1405.6 1200.67 1405.12 1201.63 1404.16C1202.65 1403.15 1203.15 1401.71 1203.15 1399.84V1378.56C1203.15 1376.69 1202.65 1375.28 1201.63 1374.32C1200.67 1373.31 1199.34 1372.8 1197.63 1372.8C1195.93 1372.8 1194.57 1373.31 1193.55 1374.32C1192.59 1375.28 1192.11 1376.69 1192.11 1378.56V1399.84C1192.11 1401.71 1192.59 1403.15 1193.55 1404.16C1194.57 1405.12 1195.93 1405.6 1197.63 1405.6ZM1222.27 1410.56C1220.35 1410.56 1218.91 1409.89 1217.95 1408.56C1217.05 1407.23 1216.59 1405.49 1216.59 1403.36V1368.4H1222.99V1401.28C1222.99 1402.77 1223.1 1403.84 1223.31 1404.48C1223.53 1405.12 1224.03 1405.44 1224.83 1405.44C1225.21 1405.44 1228.22 1404.64 1233.87 1403.04V1368.4H1240.27V1410H1235.71L1234.51 1407.28C1233.66 1407.6 1233.02 1407.81 1232.59 1407.92C1230.09 1408.83 1228.06 1409.49 1226.51 1409.92C1224.97 1410.35 1223.55 1410.56 1222.27 1410.56ZM1249.89 1368.4H1254.85L1255.57 1371.36L1257.57 1370.4C1259.28 1369.55 1260.69 1368.91 1261.81 1368.48C1262.99 1368.05 1264.16 1367.84 1265.33 1367.84V1372.56C1264.64 1372.56 1263.71 1372.77 1262.53 1373.2C1261.36 1373.57 1259.28 1374.48 1256.29 1375.92V1410H1249.89V1368.4ZM1271.3 1368.4H1276.26L1276.98 1370.72L1280.26 1369.76C1282.5 1369.07 1284.26 1368.59 1285.54 1368.32C1286.87 1368 1288.13 1367.84 1289.3 1367.84C1291.22 1367.84 1292.63 1368.51 1293.54 1369.84C1294.45 1371.17 1294.9 1372.91 1294.9 1375.04V1410H1288.5V1377.12C1288.5 1375.57 1288.39 1374.51 1288.18 1373.92C1287.97 1373.28 1287.43 1372.96 1286.58 1372.96C1286.15 1372.96 1283.19 1373.81 1277.7 1375.52V1410H1271.3V1368.4ZM1312.28 1410C1310.36 1410 1308.57 1409.52 1306.92 1408.56C1305.32 1407.6 1304.04 1406.29 1303.08 1404.64C1302.17 1402.99 1301.72 1401.12 1301.72 1399.04V1394.88C1301.72 1392.37 1302.33 1390.27 1303.56 1388.56C1304.84 1386.85 1306.41 1385.65 1308.28 1384.96L1318.2 1381.28V1377.52C1318.2 1376.24 1317.8 1375.2 1317 1374.4C1316.25 1373.55 1315.27 1373.12 1314.04 1373.12H1305V1368.4H1314.6C1317.53 1368.4 1319.85 1369.28 1321.56 1371.04C1323.32 1372.75 1324.2 1375.09 1324.2 1378.08V1410H1312.28ZM1318.2 1405.12V1386.32L1311.16 1388.96C1309.77 1389.49 1308.79 1390.21 1308.2 1391.12C1307.67 1392.03 1307.4 1393.47 1307.4 1395.44V1399.92C1307.4 1401.36 1307.93 1402.59 1309 1403.6C1310.07 1404.61 1311.35 1405.12 1312.84 1405.12H1318.2ZM1333.1 1410V1354H1339.5V1410H1333.1Z" fill="white"/>
<path d="M498 1511V1245H846.803L904 1302.45V1511H498Z" stroke="white" stroke-width="4"/>
<path d="M566.04 1403V1347H576.68L587.4 1380.12H587.96L598.92 1347H609.16V1403H602.12V1355.4L591.4 1388.12H583.8L573.08 1355.32V1403H566.04ZM627.483 1403C625.563 1403 623.776 1402.52 622.123 1401.56C620.523 1400.6 619.243 1399.29 618.283 1397.64C617.376 1395.99 616.923 1394.12 616.923 1392.04V1387.88C616.923 1385.37 617.536 1383.27 618.763 1381.56C620.043 1379.85 621.616 1378.65 623.483 1377.96L633.403 1374.28V1370.52C633.403 1369.24 633.003 1368.2 632.203 1367.4C631.456 1366.55 630.47 1366.12 629.243 1366.12H620.203V1361.4H629.803C632.736 1361.4 635.056 1362.28 636.763 1364.04C638.523 1365.75 639.403 1368.09 639.403 1371.08V1403H627.483ZM633.403 1398.12V1379.32L626.363 1381.96C624.976 1382.49 623.99 1383.21 623.403 1384.12C622.87 1385.03 622.603 1386.47 622.603 1388.44V1392.92C622.603 1394.36 623.136 1395.59 624.203 1396.6C625.27 1397.61 626.55 1398.12 628.043 1398.12H633.403ZM648.222 1361.4H653.182L653.902 1364.36L655.902 1363.4C657.609 1362.55 659.022 1361.91 660.142 1361.48C661.315 1361.05 662.489 1360.84 663.662 1360.84V1365.56C662.969 1365.56 662.035 1365.77 660.862 1366.2C659.689 1366.57 657.609 1367.48 654.622 1368.92V1403H648.222V1361.4ZM669.628 1354.6V1348.2H676.028V1354.6H669.628ZM669.628 1403V1361.4H676.028V1403H669.628ZM685.644 1361.4H690.604L691.324 1363.72L694.604 1362.76C696.844 1362.07 698.604 1361.59 699.884 1361.32C701.217 1361 702.47 1360.84 703.644 1360.84C705.937 1360.84 707.537 1361.85 708.444 1363.88C709.937 1363.35 712.044 1362.71 714.764 1361.96C717.484 1361.21 719.484 1360.84 720.764 1360.84C722.684 1360.84 724.097 1361.51 725.004 1362.84C725.964 1364.17 726.444 1365.91 726.444 1368.04V1403H720.044V1370.12C720.044 1368.57 719.937 1367.51 719.724 1366.92C719.51 1366.28 718.977 1365.96 718.124 1365.96C717.697 1365.96 714.764 1366.81 709.324 1368.52V1403H702.924V1370.12C702.924 1368.57 702.817 1367.51 702.604 1366.92C702.39 1366.28 701.857 1365.96 701.004 1365.96C700.577 1365.96 697.59 1366.81 692.044 1368.52V1403H685.644V1361.4ZM745.413 1403.56C741.68 1403.56 738.773 1402.63 736.693 1400.76C734.666 1398.84 733.653 1396.2 733.653 1392.84V1371.56C733.653 1368.2 734.666 1365.59 736.693 1363.72C738.773 1361.8 741.68 1360.84 745.413 1360.84C749.146 1360.84 752.026 1361.8 754.053 1363.72C756.133 1365.59 757.173 1368.2 757.173 1371.56V1392.84C757.173 1396.2 756.133 1398.84 754.053 1400.76C752.026 1402.63 749.146 1403.56 745.413 1403.56ZM745.413 1398.6C747.12 1398.6 748.453 1398.12 749.413 1397.16C750.426 1396.15 750.933 1394.71 750.933 1392.84V1371.56C750.933 1369.69 750.426 1368.28 749.413 1367.32C748.453 1366.31 747.12 1365.8 745.413 1365.8C743.706 1365.8 742.346 1366.31 741.333 1367.32C740.373 1368.28 739.893 1369.69 739.893 1371.56V1392.84C739.893 1394.71 740.373 1396.15 741.333 1397.16C742.346 1398.12 743.706 1398.6 745.413 1398.6Z" fill="white"/>
<path d="M1227 1122V856H1575.8L1633 913.451V1122H1227Z" stroke="white" stroke-width="4"/>
<path d="M1295.84 1014V958H1302.64V982.48L1319.2 958H1326.16L1309.84 982.96L1328.56 1014H1321.44L1305.76 987.92L1302.64 991.92V1014H1295.84ZM1342.03 1014C1340.11 1014 1338.32 1013.52 1336.67 1012.56C1335.07 1011.6 1333.79 1010.29 1332.83 1008.64C1331.92 1006.99 1331.47 1005.12 1331.47 1003.04V998.88C1331.47 996.373 1332.08 994.267 1333.31 992.56C1334.59 990.853 1336.16 989.653 1338.03 988.96L1347.95 985.28V981.52C1347.95 980.24 1347.55 979.2 1346.75 978.4C1346 977.547 1345.02 977.12 1343.79 977.12H1334.75V972.4H1344.35C1347.28 972.4 1349.6 973.28 1351.31 975.04C1353.07 976.747 1353.95 979.093 1353.95 982.08V1014H1342.03ZM1347.95 1009.12V990.32L1340.91 992.96C1339.52 993.493 1338.54 994.213 1337.95 995.12C1337.42 996.027 1337.15 997.467 1337.15 999.44V1003.92C1337.15 1005.36 1337.68 1006.59 1338.75 1007.6C1339.82 1008.61 1341.1 1009.12 1342.59 1009.12H1347.95ZM1366.13 1022H1374.37C1375.6 1022 1376.56 1021.57 1377.25 1020.72C1378 1019.92 1378.37 1018.88 1378.37 1017.6V1014.08H1371.73C1368.8 1014.08 1366.32 1013.12 1364.29 1011.2C1362.26 1009.28 1361.25 1006.88 1361.25 1004V982.48C1361.25 979.6 1362.26 977.2 1364.29 975.28C1366.37 973.36 1368.88 972.4 1371.81 972.4H1384.85V1017.04C1384.85 1020.03 1384.02 1022.4 1382.37 1024.16C1380.77 1025.92 1378.5 1026.8 1375.57 1026.8H1366.13V1022ZM1378.45 1009.28V977.2H1373.09C1371.6 977.2 1370.32 977.707 1369.25 978.72C1368.18 979.733 1367.65 980.987 1367.65 982.48V1004C1367.65 1005.49 1368.18 1006.75 1369.25 1007.76C1370.32 1008.77 1371.6 1009.28 1373.09 1009.28H1378.45ZM1396.99 1022H1405.23C1406.45 1022 1407.41 1021.57 1408.11 1020.72C1408.85 1019.92 1409.23 1018.88 1409.23 1017.6V1014.08H1402.59C1399.65 1014.08 1397.17 1013.12 1395.15 1011.2C1393.12 1009.28 1392.11 1006.88 1392.11 1004V982.48C1392.11 979.6 1393.12 977.2 1395.15 975.28C1397.23 973.36 1399.73 972.4 1402.67 972.4H1415.71V1017.04C1415.71 1020.03 1414.88 1022.4 1413.23 1024.16C1411.63 1025.92 1409.36 1026.8 1406.43 1026.8H1396.99V1022ZM1409.31 1009.28V977.2H1403.95C1402.45 977.2 1401.17 977.707 1400.11 978.72C1399.04 979.733 1398.51 980.987 1398.51 982.48V1004C1398.51 1005.49 1399.04 1006.75 1400.11 1007.76C1401.17 1008.77 1402.45 1009.28 1403.95 1009.28H1409.31ZM1424.57 1014V958H1430.97V1014H1424.57ZM1448.82 1014C1445.89 1014 1443.54 1013.12 1441.78 1011.36C1440.08 1009.6 1439.22 1007.23 1439.22 1004.24V982.96C1439.22 979.493 1440.18 976.773 1442.1 974.8C1444.02 972.827 1446.88 971.84 1450.66 971.84C1454.45 971.84 1457.28 972.827 1459.14 974.8C1461.06 976.773 1462.02 979.493 1462.02 982.96V986.64C1462.02 988.88 1461.38 990.587 1460.1 991.76C1458.82 992.88 1457.14 993.733 1455.06 994.32L1445.62 996.96V1004.8C1445.62 1006.08 1446 1007.15 1446.74 1008C1447.54 1008.8 1448.56 1009.2 1449.78 1009.2H1458.42V1014H1448.82ZM1450.5 990.56C1452.26 990.08 1453.44 989.733 1454.02 989.52C1454.66 989.253 1455.09 988.88 1455.3 988.4C1455.52 987.92 1455.62 987.12 1455.62 986V981.6C1455.62 979.893 1455.17 978.64 1454.26 977.84C1453.41 977.04 1452.21 976.64 1450.66 976.64C1449.17 976.64 1447.94 977.067 1446.98 977.92C1446.08 978.773 1445.62 980 1445.62 981.6V991.92L1450.5 990.56Z" fill="white"/>
<path d="M2125.84 1546V1490H2149.44V1495.44H2132.88V1514.64H2145.36V1520.08H2132.88V1546H2125.84ZM2164.14 1546C2161.2 1546 2158.86 1545.12 2157.1 1543.36C2155.39 1541.6 2154.54 1539.23 2154.54 1536.24V1514.96C2154.54 1511.49 2155.5 1508.77 2157.42 1506.8C2159.34 1504.83 2162.19 1503.84 2165.98 1503.84C2169.76 1503.84 2172.59 1504.83 2174.46 1506.8C2176.38 1508.77 2177.34 1511.49 2177.34 1514.96V1518.64C2177.34 1520.88 2176.7 1522.59 2175.42 1523.76C2174.14 1524.88 2172.46 1525.73 2170.38 1526.32L2160.94 1528.96V1536.8C2160.94 1538.08 2161.31 1539.15 2162.06 1540C2162.86 1540.8 2163.87 1541.2 2165.1 1541.2H2173.74V1546H2164.14ZM2165.82 1522.56C2167.58 1522.08 2168.75 1521.73 2169.34 1521.52C2169.98 1521.25 2170.4 1520.88 2170.62 1520.4C2170.83 1519.92 2170.94 1519.12 2170.94 1518V1513.6C2170.94 1511.89 2170.48 1510.64 2169.58 1509.84C2168.72 1509.04 2167.52 1508.64 2165.98 1508.64C2164.48 1508.64 2163.26 1509.07 2162.3 1509.92C2161.39 1510.77 2160.94 1512 2160.94 1513.6V1523.92L2165.82 1522.56ZM2183.71 1504.4H2188.67L2189.39 1507.36L2191.39 1506.4C2193.09 1505.55 2194.51 1504.91 2195.63 1504.48C2196.8 1504.05 2197.97 1503.84 2199.15 1503.84V1508.56C2198.45 1508.56 2197.52 1508.77 2196.35 1509.2C2195.17 1509.57 2193.09 1510.48 2190.11 1511.92V1546H2183.71V1504.4ZM2205.11 1504.4H2210.07L2210.79 1507.36L2212.79 1506.4C2214.5 1505.55 2215.91 1504.91 2217.03 1504.48C2218.21 1504.05 2219.38 1503.84 2220.55 1503.84V1508.56C2219.86 1508.56 2218.93 1508.77 2217.75 1509.2C2216.58 1509.57 2214.5 1510.48 2211.51 1511.92V1546H2205.11V1504.4ZM2235 1546C2233.08 1546 2231.29 1545.52 2229.64 1544.56C2228.04 1543.6 2226.76 1542.29 2225.8 1540.64C2224.89 1538.99 2224.44 1537.12 2224.44 1535.04V1530.88C2224.44 1528.37 2225.05 1526.27 2226.28 1524.56C2227.56 1522.85 2229.13 1521.65 2231 1520.96L2240.92 1517.28V1513.52C2240.92 1512.24 2240.52 1511.2 2239.72 1510.4C2238.97 1509.55 2237.99 1509.12 2236.76 1509.12H2227.72V1504.4H2237.32C2240.25 1504.4 2242.57 1505.28 2244.28 1507.04C2246.04 1508.75 2246.92 1511.09 2246.92 1514.08V1546H2235ZM2240.92 1541.12V1522.32L2233.88 1524.96C2232.49 1525.49 2231.51 1526.21 2230.92 1527.12C2230.39 1528.03 2230.12 1529.47 2230.12 1531.44V1535.92C2230.12 1537.36 2230.65 1538.59 2231.72 1539.6C2232.79 1540.61 2234.07 1541.12 2235.56 1541.12H2240.92ZM2255.74 1504.4H2260.7L2261.42 1506.72L2264.7 1505.76C2266.94 1505.07 2268.7 1504.59 2269.98 1504.32C2271.31 1504 2272.56 1503.84 2273.74 1503.84C2276.03 1503.84 2277.63 1504.85 2278.54 1506.88C2280.03 1506.35 2282.14 1505.71 2284.86 1504.96C2287.58 1504.21 2289.58 1503.84 2290.86 1503.84C2292.78 1503.84 2294.19 1504.51 2295.1 1505.84C2296.06 1507.17 2296.54 1508.91 2296.54 1511.04V1546H2290.14V1513.12C2290.14 1511.57 2290.03 1510.51 2289.82 1509.92C2289.6 1509.28 2289.07 1508.96 2288.22 1508.96C2287.79 1508.96 2284.86 1509.81 2279.42 1511.52V1546H2273.02V1513.12C2273.02 1511.57 2272.91 1510.51 2272.7 1509.92C2272.48 1509.28 2271.95 1508.96 2271.1 1508.96C2270.67 1508.96 2267.68 1509.81 2262.14 1511.52V1546H2255.74V1504.4ZM2313.67 1546C2310.73 1546 2308.39 1545.12 2306.63 1543.36C2304.92 1541.6 2304.07 1539.23 2304.07 1536.24V1514.96C2304.07 1511.49 2305.03 1508.77 2306.95 1506.8C2308.87 1504.83 2311.72 1503.84 2315.51 1503.84C2319.29 1503.84 2322.12 1504.83 2323.99 1506.8C2325.91 1508.77 2326.87 1511.49 2326.87 1514.96V1518.64C2326.87 1520.88 2326.23 1522.59 2324.95 1523.76C2323.67 1524.88 2321.99 1525.73 2319.91 1526.32L2310.47 1528.96V1536.8C2310.47 1538.08 2310.84 1539.15 2311.59 1540C2312.39 1540.8 2313.4 1541.2 2314.63 1541.2H2323.27V1546H2313.67ZM2315.35 1522.56C2317.11 1522.08 2318.28 1521.73 2318.87 1521.52C2319.51 1521.25 2319.93 1520.88 2320.15 1520.4C2320.36 1519.92 2320.47 1519.12 2320.47 1518V1513.6C2320.47 1511.89 2320.01 1510.64 2319.11 1509.84C2318.25 1509.04 2317.05 1508.64 2315.51 1508.64C2314.01 1508.64 2312.79 1509.07 2311.83 1509.92C2310.92 1510.77 2310.47 1512 2310.47 1513.6V1523.92L2315.35 1522.56ZM2333.24 1504.4H2338.2L2338.92 1506.72L2342.2 1505.76C2344.44 1505.07 2346.2 1504.59 2347.48 1504.32C2348.81 1504 2350.06 1503.84 2351.24 1503.84C2353.16 1503.84 2354.57 1504.51 2355.48 1505.84C2356.38 1507.17 2356.84 1508.91 2356.84 1511.04V1546H2350.44V1513.12C2350.44 1511.57 2350.33 1510.51 2350.12 1509.92C2349.9 1509.28 2349.37 1508.96 2348.52 1508.96C2348.09 1508.96 2345.13 1509.81 2339.64 1511.52V1546H2333.24V1504.4ZM2377.34 1546C2374.4 1546 2372.08 1545.12 2370.38 1543.36C2368.67 1541.6 2367.82 1539.23 2367.82 1536.24V1509.2H2363.02V1504.4H2367.82V1492.32L2374.22 1489.92V1504.4H2380.62V1509.2H2374.22V1536.8C2374.22 1538.08 2374.56 1539.15 2375.26 1540C2376 1540.8 2376.99 1541.2 2378.22 1541.2H2380.62V1546H2377.34ZM2395.47 1546C2393.55 1546 2391.76 1545.52 2390.11 1544.56C2388.51 1543.6 2387.23 1542.29 2386.27 1540.64C2385.36 1538.99 2384.91 1537.12 2384.91 1535.04V1530.88C2384.91 1528.37 2385.52 1526.27 2386.75 1524.56C2388.03 1522.85 2389.6 1521.65 2391.47 1520.96L2401.39 1517.28V1513.52C2401.39 1512.24 2400.99 1511.2 2400.19 1510.4C2399.44 1509.55 2398.45 1509.12 2397.23 1509.12H2388.19V1504.4H2397.79C2400.72 1504.4 2403.04 1505.28 2404.75 1507.04C2406.51 1508.75 2407.39 1511.09 2407.39 1514.08V1546H2395.47ZM2401.39 1541.12V1522.32L2394.35 1524.96C2392.96 1525.49 2391.97 1526.21 2391.39 1527.12C2390.85 1528.03 2390.59 1529.47 2390.59 1531.44V1535.92C2390.59 1537.36 2391.12 1538.59 2392.19 1539.6C2393.25 1540.61 2394.53 1541.12 2396.03 1541.12H2401.39ZM2413.81 1541.2H2420.61C2422.9 1541.2 2424.55 1540.59 2425.57 1539.36C2426.63 1538.08 2427.17 1536.43 2427.17 1534.4C2427.17 1532.8 2426.69 1531.44 2425.73 1530.32C2424.77 1529.2 2423.33 1527.89 2421.41 1526.4C2419.75 1525.07 2418.42 1523.92 2417.41 1522.96C2416.45 1521.95 2415.59 1520.72 2414.85 1519.28C2414.15 1517.79 2413.81 1516.08 2413.81 1514.16C2413.81 1511.33 2414.74 1509.01 2416.61 1507.2C2418.53 1505.33 2421.09 1504.4 2424.29 1504.4H2431.25V1509.2H2425.49C2421.7 1509.2 2419.81 1510.99 2419.81 1514.56C2419.81 1515.95 2420.23 1517.15 2421.09 1518.16C2421.94 1519.17 2423.27 1520.37 2425.09 1521.76C2426.74 1523.04 2428.1 1524.21 2429.17 1525.28C2430.23 1526.29 2431.14 1527.6 2431.89 1529.2C2432.63 1530.75 2433.01 1532.59 2433.01 1534.72C2433.01 1538.51 2431.99 1541.33 2429.97 1543.2C2427.99 1545.07 2425.19 1546 2421.57 1546H2413.81V1541.2ZM2462.78 1546C2459.42 1546 2456.7 1545.01 2454.62 1543.04C2452.54 1541.07 2451.5 1538.43 2451.5 1535.12V1515.2C2451.5 1512.91 2452.12 1510.96 2453.34 1509.36C2454.62 1507.76 2456.2 1506.67 2458.06 1506.08L2468.78 1502.32V1490H2475.18V1546H2462.78ZM2468.78 1541.2V1507.6L2461.66 1510C2460.28 1510.43 2459.29 1511.12 2458.7 1512.08C2458.17 1512.99 2457.9 1514.45 2457.9 1516.48V1535.12C2457.9 1537.04 2458.46 1538.53 2459.58 1539.6C2460.7 1540.67 2462.22 1541.2 2464.14 1541.2H2468.78ZM2493.12 1546C2490.19 1546 2487.84 1545.12 2486.08 1543.36C2484.37 1541.6 2483.52 1539.23 2483.52 1536.24V1514.96C2483.52 1511.49 2484.48 1508.77 2486.4 1506.8C2488.32 1504.83 2491.17 1503.84 2494.96 1503.84C2498.75 1503.84 2501.57 1504.83 2503.44 1506.8C2505.36 1508.77 2506.32 1511.49 2506.32 1514.96V1518.64C2506.32 1520.88 2505.68 1522.59 2504.4 1523.76C2503.12 1524.88 2501.44 1525.73 2499.36 1526.32L2489.92 1528.96V1536.8C2489.92 1538.08 2490.29 1539.15 2491.04 1540C2491.84 1540.8 2492.85 1541.2 2494.08 1541.2H2502.72V1546H2493.12ZM2494.8 1522.56C2496.56 1522.08 2497.73 1521.73 2498.32 1521.52C2498.96 1521.25 2499.39 1520.88 2499.6 1520.4C2499.81 1519.92 2499.92 1519.12 2499.92 1518V1513.6C2499.92 1511.89 2499.47 1510.64 2498.56 1509.84C2497.71 1509.04 2496.51 1508.64 2494.96 1508.64C2493.47 1508.64 2492.24 1509.07 2491.28 1509.92C2490.37 1510.77 2489.92 1512 2489.92 1513.6V1523.92L2494.8 1522.56ZM2533.2 1546C2531.28 1546 2529.5 1545.52 2527.84 1544.56C2526.24 1543.6 2524.96 1542.29 2524 1540.64C2523.1 1538.99 2522.64 1537.12 2522.64 1535.04V1530.88C2522.64 1528.37 2523.26 1526.27 2524.48 1524.56C2525.76 1522.85 2527.34 1521.65 2529.2 1520.96L2539.12 1517.28V1513.52C2539.12 1512.24 2538.72 1511.2 2537.92 1510.4C2537.18 1509.55 2536.19 1509.12 2534.96 1509.12H2525.92V1504.4H2535.52C2538.46 1504.4 2540.78 1505.28 2542.48 1507.04C2544.24 1508.75 2545.12 1511.09 2545.12 1514.08V1546H2533.2ZM2539.12 1541.12V1522.32L2532.08 1524.96C2530.7 1525.49 2529.71 1526.21 2529.12 1527.12C2528.59 1528.03 2528.32 1529.47 2528.32 1531.44V1535.92C2528.32 1537.36 2528.86 1538.59 2529.92 1539.6C2530.99 1540.61 2532.27 1541.12 2533.76 1541.12H2539.12ZM2553.94 1504.4H2558.9L2559.62 1506.72L2562.9 1505.76C2565.14 1505.07 2566.9 1504.59 2568.18 1504.32C2569.51 1504 2570.77 1503.84 2571.94 1503.84C2573.86 1503.84 2575.27 1504.51 2576.18 1505.84C2577.09 1507.17 2577.54 1508.91 2577.54 1511.04V1546H2571.14V1513.12C2571.14 1511.57 2571.03 1510.51 2570.82 1509.92C2570.61 1509.28 2570.07 1508.96 2569.22 1508.96C2568.79 1508.96 2565.83 1509.81 2560.34 1511.52V1546H2553.94V1504.4ZM2596.6 1546.56C2592.87 1546.56 2589.96 1545.63 2587.88 1543.76C2585.85 1541.84 2584.84 1539.2 2584.84 1535.84V1514.56C2584.84 1511.2 2585.85 1508.59 2587.88 1506.72C2589.96 1504.8 2592.87 1503.84 2596.6 1503.84C2600.33 1503.84 2603.21 1504.8 2605.24 1506.72C2607.32 1508.59 2608.36 1511.2 2608.36 1514.56V1535.84C2608.36 1539.2 2607.32 1541.84 2605.24 1543.76C2603.21 1545.63 2600.33 1546.56 2596.6 1546.56ZM2596.6 1541.6C2598.31 1541.6 2599.64 1541.12 2600.6 1540.16C2601.61 1539.15 2602.12 1537.71 2602.12 1535.84V1514.56C2602.12 1512.69 2601.61 1511.28 2600.6 1510.32C2599.64 1509.31 2598.31 1508.8 2596.6 1508.8C2594.89 1508.8 2593.53 1509.31 2592.52 1510.32C2591.56 1511.28 2591.08 1512.69 2591.08 1514.56V1535.84C2591.08 1537.71 2591.56 1539.15 2592.52 1540.16C2593.53 1541.12 2594.89 1541.6 2596.6 1541.6ZM2627.96 1546C2625.03 1546 2622.71 1545.12 2621 1543.36C2619.3 1541.6 2618.44 1539.23 2618.44 1536.24V1509.2H2613.64V1504.4H2618.44V1492.32L2624.84 1489.92V1504.4H2631.24V1509.2H2624.84V1536.8C2624.84 1538.08 2625.19 1539.15 2625.88 1540C2626.63 1540.8 2627.62 1541.2 2628.84 1541.2H2631.24V1546H2627.96ZM2646.09 1546C2644.17 1546 2642.39 1545.52 2640.73 1544.56C2639.13 1543.6 2637.85 1542.29 2636.89 1540.64C2635.99 1538.99 2635.53 1537.12 2635.53 1535.04V1530.88C2635.53 1528.37 2636.15 1526.27 2637.37 1524.56C2638.65 1522.85 2640.23 1521.65 2642.09 1520.96L2652.01 1517.28V1513.52C2652.01 1512.24 2651.61 1511.2 2650.81 1510.4C2650.07 1509.55 2649.08 1509.12 2647.85 1509.12H2638.81V1504.4H2648.41C2651.35 1504.4 2653.67 1505.28 2655.37 1507.04C2657.13 1508.75 2658.01 1511.09 2658.01 1514.08V1546H2646.09ZM2652.01 1541.12V1522.32L2644.97 1524.96C2643.59 1525.49 2642.6 1526.21 2642.01 1527.12C2641.48 1528.03 2641.21 1529.47 2641.21 1531.44V1535.92C2641.21 1537.36 2641.75 1538.59 2642.81 1539.6C2643.88 1540.61 2645.16 1541.12 2646.65 1541.12H2652.01ZM2679.71 1548.56C2681.63 1548.56 2683.1 1548.91 2684.11 1549.6C2685.12 1550.29 2685.63 1551.55 2685.63 1553.36C2685.63 1556.99 2683.55 1558.8 2679.39 1558.8H2670.83V1555.04H2677.23C2678.46 1555.04 2679.36 1554.91 2679.95 1554.64C2680.54 1554.37 2680.83 1553.92 2680.83 1553.28C2680.83 1552.59 2680.62 1552.13 2680.19 1551.92C2679.76 1551.71 2679.07 1551.6 2678.11 1551.6H2673.95L2675.31 1546H2675.63C2672.7 1546 2670.35 1545.12 2668.59 1543.36C2666.88 1541.6 2666.03 1539.23 2666.03 1536.24V1514.96C2666.03 1511.6 2666.91 1509.01 2668.67 1507.2C2670.43 1505.33 2672.99 1504.4 2676.35 1504.4H2685.23V1509.2H2676.51C2675.28 1509.2 2674.3 1509.63 2673.55 1510.48C2672.8 1511.28 2672.43 1512.32 2672.43 1513.6V1536.8C2672.43 1538.08 2672.8 1539.15 2673.55 1540C2674.35 1540.8 2675.36 1541.2 2676.59 1541.2H2685.23V1546H2680.27L2679.71 1548.56ZM2689.7 1500.4C2689.75 1498 2690.2 1496.19 2691.06 1494.96C2691.91 1493.68 2693.46 1493.04 2695.7 1493.04C2696.28 1493.04 2698.02 1493.47 2700.9 1494.32C2703.72 1495.23 2705.54 1495.68 2706.34 1495.68C2706.98 1495.68 2707.4 1495.49 2707.62 1495.12C2707.83 1494.69 2707.96 1494.19 2708.02 1493.6C2708.12 1493.01 2708.2 1492.56 2708.26 1492.24H2713.3C2713.24 1494.05 2713.11 1495.52 2712.9 1496.64C2712.68 1497.71 2712.12 1498.61 2711.22 1499.36C2710.36 1500.05 2709.06 1500.4 2707.3 1500.4C2706.5 1500.4 2704.68 1499.95 2701.86 1499.04C2698.98 1498.19 2697.24 1497.76 2696.66 1497.76C2695.96 1497.76 2695.51 1497.89 2695.3 1498.16C2695.14 1498.43 2695 1498.8 2694.9 1499.28C2694.84 1499.76 2694.79 1500.13 2694.74 1500.4H2689.7ZM2700.98 1546.56C2697.24 1546.56 2694.34 1545.63 2692.26 1543.76C2690.23 1541.84 2689.22 1539.2 2689.22 1535.84V1514.56C2689.22 1511.2 2690.23 1508.59 2692.26 1506.72C2694.34 1504.8 2697.24 1503.84 2700.98 1503.84C2704.71 1503.84 2707.59 1504.8 2709.62 1506.72C2711.7 1508.59 2712.74 1511.2 2712.74 1514.56V1535.84C2712.74 1539.2 2711.7 1541.84 2709.62 1543.76C2707.59 1545.63 2704.71 1546.56 2700.98 1546.56ZM2700.98 1541.6C2702.68 1541.6 2704.02 1541.12 2704.98 1540.16C2705.99 1539.15 2706.5 1537.71 2706.5 1535.84V1514.56C2706.5 1512.69 2705.99 1511.28 2704.98 1510.32C2704.02 1509.31 2702.68 1508.8 2700.98 1508.8C2699.27 1508.8 2697.91 1509.31 2696.9 1510.32C2695.94 1511.28 2695.46 1512.69 2695.46 1514.56V1535.84C2695.46 1537.71 2695.94 1539.15 2696.9 1540.16C2697.91 1541.12 2699.27 1541.6 2700.98 1541.6ZM2729.06 1546C2726.12 1546 2723.78 1545.12 2722.02 1543.36C2720.31 1541.6 2719.46 1539.23 2719.46 1536.24V1514.96C2719.46 1511.49 2720.42 1508.77 2722.34 1506.8C2724.26 1504.83 2727.11 1503.84 2730.9 1503.84C2734.68 1503.84 2737.51 1504.83 2739.38 1506.8C2741.3 1508.77 2742.26 1511.49 2742.26 1514.96V1518.64C2742.26 1520.88 2741.62 1522.59 2740.34 1523.76C2739.06 1524.88 2737.38 1525.73 2735.3 1526.32L2725.86 1528.96V1536.8C2725.86 1538.08 2726.23 1539.15 2726.98 1540C2727.78 1540.8 2728.79 1541.2 2730.02 1541.2H2738.66V1546H2729.06ZM2730.74 1522.56C2732.5 1522.08 2733.67 1521.73 2734.26 1521.52C2734.9 1521.25 2735.32 1520.88 2735.54 1520.4C2735.75 1519.92 2735.86 1519.12 2735.86 1518V1513.6C2735.86 1511.89 2735.4 1510.64 2734.5 1509.84C2733.64 1509.04 2732.44 1508.64 2730.9 1508.64C2729.4 1508.64 2728.18 1509.07 2727.22 1509.92C2726.31 1510.77 2725.86 1512 2725.86 1513.6V1523.92L2730.74 1522.56ZM2746.23 1541.2H2753.03C2755.32 1541.2 2756.97 1540.59 2757.99 1539.36C2759.05 1538.08 2759.59 1536.43 2759.59 1534.4C2759.59 1532.8 2759.11 1531.44 2758.15 1530.32C2757.19 1529.2 2755.75 1527.89 2753.83 1526.4C2752.17 1525.07 2750.84 1523.92 2749.83 1522.96C2748.87 1521.95 2748.01 1520.72 2747.27 1519.28C2746.57 1517.79 2746.23 1516.08 2746.23 1514.16C2746.23 1511.33 2747.16 1509.01 2749.03 1507.2C2750.95 1505.33 2753.51 1504.4 2756.71 1504.4H2763.67V1509.2H2757.91C2754.12 1509.2 2752.23 1510.99 2752.23 1514.56C2752.23 1515.95 2752.65 1517.15 2753.51 1518.16C2754.36 1519.17 2755.69 1520.37 2757.51 1521.76C2759.16 1523.04 2760.52 1524.21 2761.59 1525.28C2762.65 1526.29 2763.56 1527.6 2764.31 1529.2C2765.05 1530.75 2765.43 1532.59 2765.43 1534.72C2765.43 1538.51 2764.41 1541.33 2762.39 1543.2C2760.41 1545.07 2757.61 1546 2753.99 1546H2746.23V1541.2Z" fill="white" fill-opacity="0.4"/>
<path d="M2357 445V179H2705.8L2763 236.451V445H2357Z" stroke="white" stroke-width="4"/>
<path d="M2438.72 339C2433.87 339 2430.11 337.773 2427.44 335.32C2424.77 332.867 2423.44 329.267 2423.44 324.52V297.48C2423.44 292.733 2424.77 289.133 2427.44 286.68C2430.11 284.227 2433.87 283 2438.72 283H2449.44V288.28H2438.72C2436.27 288.28 2434.27 289 2432.72 290.44C2431.23 291.827 2430.48 293.693 2430.48 296.04V325.96C2430.48 328.307 2431.23 330.2 2432.72 331.64C2434.27 333.027 2436.27 333.72 2438.72 333.72H2449.44V339H2438.72ZM2465.98 339.56C2462.24 339.56 2459.34 338.627 2457.26 336.76C2455.23 334.84 2454.22 332.2 2454.22 328.84V307.56C2454.22 304.2 2455.23 301.587 2457.26 299.72C2459.34 297.8 2462.24 296.84 2465.98 296.84C2469.71 296.84 2472.59 297.8 2474.62 299.72C2476.7 301.587 2477.74 304.2 2477.74 307.56V328.84C2477.74 332.2 2476.7 334.84 2474.62 336.76C2472.59 338.627 2469.71 339.56 2465.98 339.56ZM2465.98 334.6C2467.68 334.6 2469.02 334.12 2469.98 333.16C2470.99 332.147 2471.5 330.707 2471.5 328.84V307.56C2471.5 305.693 2470.99 304.28 2469.98 303.32C2469.02 302.307 2467.68 301.8 2465.98 301.8C2464.27 301.8 2462.91 302.307 2461.9 303.32C2460.94 304.28 2460.46 305.693 2460.46 307.56V328.84C2460.46 330.707 2460.94 332.147 2461.9 333.16C2462.91 334.12 2464.27 334.6 2465.98 334.6ZM2496.3 339C2492.94 339 2490.22 338.013 2488.14 336.04C2486.06 334.067 2485.02 331.427 2485.02 328.12V308.2C2485.02 305.907 2485.63 303.96 2486.86 302.36C2488.14 300.76 2489.71 299.667 2491.58 299.08L2502.3 295.32V283H2508.7V339H2496.3ZM2502.3 334.2V300.6L2495.18 303C2493.79 303.427 2492.8 304.12 2492.22 305.08C2491.68 305.987 2491.42 307.453 2491.42 309.48V328.12C2491.42 330.04 2491.98 331.533 2493.1 332.6C2494.22 333.667 2495.74 334.2 2497.66 334.2H2502.3ZM2526.8 339C2524.88 339 2523.09 338.52 2521.44 337.56C2519.84 336.6 2518.56 335.293 2517.6 333.64C2516.69 331.987 2516.24 330.12 2516.24 328.04V323.88C2516.24 321.373 2516.85 319.267 2518.08 317.56C2519.36 315.853 2520.93 314.653 2522.8 313.96L2532.72 310.28V306.52C2532.72 305.24 2532.32 304.2 2531.52 303.4C2530.77 302.547 2529.78 302.12 2528.56 302.12H2519.52V297.4H2529.12C2532.05 297.4 2534.37 298.28 2536.08 300.04C2537.84 301.747 2538.72 304.093 2538.72 307.08V339H2526.8ZM2532.72 334.12V315.32L2525.68 317.96C2524.29 318.493 2523.3 319.213 2522.72 320.12C2522.18 321.027 2521.92 322.467 2521.92 324.44V328.92C2521.92 330.36 2522.45 331.587 2523.52 332.6C2524.58 333.613 2525.86 334.12 2527.36 334.12H2532.72Z" fill="white"/>
<path d="M1885 445V179H2233.8L2291 236.451V445H1885Z" stroke="white" stroke-width="4"/>
<path d="M1949.6 339L1962.24 283H1972.88L1985.04 339H1978.48L1974.56 322.52H1960L1956.4 339H1949.6ZM1961.2 317.08H1973.36L1967.6 288.28H1967.04L1961.2 317.08ZM1991.47 290.6V284.2H1997.87V290.6H1991.47ZM1991.47 339V297.4H1997.87V339H1991.47ZM2007.49 297.4H2012.45L2013.17 300.36L2015.17 299.4C2016.87 298.547 2018.29 297.907 2019.41 297.48C2020.58 297.053 2021.75 296.84 2022.93 296.84V301.56C2022.23 301.56 2021.3 301.773 2020.13 302.2C2018.95 302.573 2016.87 303.48 2013.89 304.92V339H2007.49V297.4ZM2036.89 339V288.28H2025.69V283H2055.13V288.28H2043.93V339H2036.89ZM2070.03 339C2068.11 339 2066.32 338.52 2064.67 337.56C2063.07 336.6 2061.79 335.293 2060.83 333.64C2059.92 331.987 2059.47 330.12 2059.47 328.04V323.88C2059.47 321.373 2060.08 319.267 2061.31 317.56C2062.59 315.853 2064.16 314.653 2066.03 313.96L2075.95 310.28V306.52C2075.95 305.24 2075.55 304.2 2074.75 303.4C2074 302.547 2073.02 302.12 2071.79 302.12H2062.75V297.4H2072.35C2075.28 297.4 2077.6 298.28 2079.31 300.04C2081.07 301.747 2081.95 304.093 2081.95 307.08V339H2070.03ZM2075.95 334.12V315.32L2068.91 317.96C2067.52 318.493 2066.54 319.213 2065.95 320.12C2065.42 321.027 2065.15 322.467 2065.15 324.44V328.92C2065.15 330.36 2065.68 331.587 2066.75 332.6C2067.82 333.613 2069.1 334.12 2070.59 334.12H2075.95ZM2090.77 283H2097.17V295.48L2107.89 299.24C2109.76 299.88 2111.3 301 2112.53 302.6C2113.81 304.147 2114.45 306.067 2114.45 308.36V328.92C2114.45 331.8 2113.44 334.2 2111.41 336.12C2109.38 338.04 2106.9 339 2103.97 339H2090.77V283ZM2102.61 334.2C2104.1 334.2 2105.38 333.693 2106.45 332.68C2107.52 331.667 2108.05 330.413 2108.05 328.92V309.64C2108.05 307.613 2107.76 306.147 2107.17 305.24C2106.64 304.28 2105.68 303.587 2104.29 303.16L2097.17 300.76V334.2H2102.61ZM2122.1 339V283H2128.5V339H2122.1ZM2146.35 339C2143.42 339 2141.07 338.12 2139.31 336.36C2137.61 334.6 2136.75 332.227 2136.75 329.24V307.96C2136.75 304.493 2137.71 301.773 2139.63 299.8C2141.55 297.827 2144.41 296.84 2148.19 296.84C2151.98 296.84 2154.81 297.827 2156.67 299.8C2158.59 301.773 2159.55 304.493 2159.55 307.96V311.64C2159.55 313.88 2158.91 315.587 2157.63 316.76C2156.35 317.88 2154.67 318.733 2152.59 319.32L2143.15 321.96V329.8C2143.15 331.08 2143.53 332.147 2144.27 333C2145.07 333.8 2146.09 334.2 2147.31 334.2H2155.95V339H2146.35ZM2148.03 315.56C2149.79 315.08 2150.97 314.733 2151.55 314.52C2152.19 314.253 2152.62 313.88 2152.83 313.4C2153.05 312.92 2153.15 312.12 2153.15 311V306.6C2153.15 304.893 2152.7 303.64 2151.79 302.84C2150.94 302.04 2149.74 301.64 2148.19 301.64C2146.7 301.64 2145.47 302.067 2144.51 302.92C2143.61 303.773 2143.15 305 2143.15 306.6V316.92L2148.03 315.56Z" fill="white"/>
<path d="M2134 1220V1024H2391.74L2434 1066.33V1220H2134Z" stroke="white" stroke-opacity="0.4" stroke-width="4"/>
<path d="M2189.04 1142.42C2185.32 1142.42 2182.48 1141.48 2180.52 1139.6C2178.56 1137.68 2177.58 1135.02 2177.58 1131.62V1110.38C2177.58 1106.98 2178.56 1104.34 2180.52 1102.46C2182.48 1100.54 2185.32 1099.58 2189.04 1099.58C2192.8 1099.58 2195.66 1100.54 2197.62 1102.46C2199.58 1104.34 2200.56 1106.98 2200.56 1110.38V1131.62C2200.56 1135.02 2199.58 1137.68 2197.62 1139.6C2195.66 1141.48 2192.8 1142.42 2189.04 1142.42ZM2189.04 1138.46C2190.8 1138.46 2192.28 1137.96 2193.48 1136.96C2194.68 1135.92 2195.28 1134.48 2195.28 1132.64V1109.36C2195.28 1107.52 2194.68 1106.1 2193.48 1105.1C2192.28 1104.06 2190.8 1103.54 2189.04 1103.54C2187.28 1103.54 2185.8 1104.06 2184.6 1105.1C2183.44 1106.1 2182.86 1107.52 2182.86 1109.36V1132.64C2182.86 1134.48 2183.44 1135.92 2184.6 1136.96C2185.8 1137.96 2187.28 1138.46 2189.04 1138.46ZM2206.73 1100H2211.53V1109.36L2219.57 1112.18C2220.97 1112.66 2222.13 1113.5 2223.05 1114.7C2224.01 1115.86 2224.49 1117.3 2224.49 1119.02V1134.44C2224.49 1136.6 2223.73 1138.4 2222.21 1139.84C2220.69 1141.28 2218.83 1142 2216.63 1142H2206.73V1100ZM2215.61 1138.4C2216.73 1138.4 2217.69 1138.02 2218.49 1137.26C2219.29 1136.5 2219.69 1135.56 2219.69 1134.44V1119.98C2219.69 1118.46 2219.47 1117.36 2219.03 1116.68C2218.63 1115.96 2217.91 1115.44 2216.87 1115.12L2211.53 1113.32V1138.4H2215.61ZM2228.36 1138.4H2233.46C2235.18 1138.4 2236.42 1137.94 2237.18 1137.02C2237.98 1136.06 2238.38 1134.82 2238.38 1133.3C2238.38 1132.1 2238.02 1131.08 2237.3 1130.24C2236.58 1129.4 2235.5 1128.42 2234.06 1127.3C2232.82 1126.3 2231.82 1125.44 2231.06 1124.72C2230.34 1123.96 2229.7 1123.04 2229.14 1121.96C2228.62 1120.84 2228.36 1119.56 2228.36 1118.12C2228.36 1116 2229.06 1114.26 2230.46 1112.9C2231.9 1111.5 2233.82 1110.8 2236.22 1110.8H2241.44V1114.4H2237.12C2234.28 1114.4 2232.86 1115.74 2232.86 1118.42C2232.86 1119.46 2233.18 1120.36 2233.82 1121.12C2234.46 1121.88 2235.46 1122.78 2236.82 1123.82C2238.06 1124.78 2239.08 1125.66 2239.88 1126.46C2240.68 1127.22 2241.36 1128.2 2241.92 1129.4C2242.48 1130.56 2242.76 1131.94 2242.76 1133.54C2242.76 1136.38 2242 1138.5 2240.48 1139.9C2239 1141.3 2236.9 1142 2234.18 1142H2228.36V1138.4ZM2248.15 1105.7V1100.9H2252.95V1105.7H2248.15ZM2248.15 1142V1110.8H2252.95V1142H2248.15ZM2268.08 1142C2265.56 1142 2263.52 1141.26 2261.96 1139.78C2260.4 1138.3 2259.62 1136.32 2259.62 1133.84V1118.9C2259.62 1117.18 2260.08 1115.72 2261 1114.52C2261.96 1113.32 2263.14 1112.5 2264.54 1112.06L2272.58 1109.24V1100H2277.38V1142H2268.08ZM2272.58 1138.4V1113.2L2267.24 1115C2266.2 1115.32 2265.46 1115.84 2265.02 1116.56C2264.62 1117.24 2264.42 1118.34 2264.42 1119.86V1133.84C2264.42 1135.28 2264.84 1136.4 2265.68 1137.2C2266.52 1138 2267.66 1138.4 2269.1 1138.4H2272.58ZM2284.6 1105.7V1100.9H2289.4V1105.7H2284.6ZM2284.6 1142V1110.8H2289.4V1142H2284.6ZM2302.97 1142C2301.53 1142 2300.19 1141.64 2298.95 1140.92C2297.75 1140.2 2296.79 1139.22 2296.07 1137.98C2295.39 1136.74 2295.05 1135.34 2295.05 1133.78V1130.66C2295.05 1128.78 2295.51 1127.2 2296.43 1125.92C2297.39 1124.64 2298.57 1123.74 2299.97 1123.22L2307.41 1120.46V1117.64C2307.41 1116.68 2307.11 1115.9 2306.51 1115.3C2305.95 1114.66 2305.21 1114.34 2304.29 1114.34H2297.51V1110.8H2304.71C2306.91 1110.8 2308.65 1111.46 2309.93 1112.78C2311.25 1114.06 2311.91 1115.82 2311.91 1118.06V1142H2302.97ZM2307.41 1138.34V1124.24L2302.13 1126.22C2301.09 1126.62 2300.35 1127.16 2299.91 1127.84C2299.51 1128.52 2299.31 1129.6 2299.31 1131.08V1134.44C2299.31 1135.52 2299.71 1136.44 2300.51 1137.2C2301.31 1137.96 2302.27 1138.34 2303.39 1138.34H2307.41ZM2318.52 1110.8H2322.24L2322.78 1112.54L2325.24 1111.82C2326.92 1111.3 2328.24 1110.94 2329.2 1110.74C2330.2 1110.5 2331.14 1110.38 2332.02 1110.38C2333.46 1110.38 2334.52 1110.88 2335.2 1111.88C2335.88 1112.88 2336.22 1114.18 2336.22 1115.78V1142H2331.42V1117.34C2331.42 1116.18 2331.34 1115.38 2331.18 1114.94C2331.02 1114.46 2330.62 1114.22 2329.98 1114.22C2329.66 1114.22 2327.44 1114.86 2323.32 1116.14V1142H2318.52V1110.8Z" fill="white" fill-opacity="0.6"/>
<path d="M2183 1461V1265H2440.74L2483 1307.33V1461H2183Z" stroke="white" stroke-opacity="0.4" stroke-width="4"/>
<path d="M2225.2 1383L2234.68 1341H2242.66L2251.78 1383H2246.86L2243.92 1370.64H2233L2230.3 1383H2225.2ZM2233.9 1366.56H2243.02L2238.7 1344.96H2238.28L2233.9 1366.56ZM2256.6 1351.8H2266.32C2268.52 1351.8 2270.38 1352.52 2271.9 1353.96C2273.46 1355.4 2274.24 1357.2 2274.24 1359.36V1375.5C2274.24 1377.66 2273.48 1379.46 2271.96 1380.9C2270.44 1382.3 2268.58 1383 2266.38 1383H2261.4V1392.6H2256.6V1351.8ZM2265.36 1379.46C2266.48 1379.46 2267.44 1379.08 2268.24 1378.32C2269.04 1377.56 2269.44 1376.62 2269.44 1375.5V1359.36C2269.44 1358.24 2269.04 1357.3 2268.24 1356.54C2267.44 1355.78 2266.48 1355.4 2265.36 1355.4H2261.4V1379.46H2265.36ZM2279.92 1351.8H2289.64C2291.84 1351.8 2293.7 1352.52 2295.22 1353.96C2296.78 1355.4 2297.56 1357.2 2297.56 1359.36V1375.5C2297.56 1377.66 2296.8 1379.46 2295.28 1380.9C2293.76 1382.3 2291.9 1383 2289.7 1383H2284.72V1392.6H2279.92V1351.8ZM2288.68 1379.46C2289.8 1379.46 2290.76 1379.08 2291.56 1378.32C2292.36 1377.56 2292.76 1376.62 2292.76 1375.5V1359.36C2292.76 1358.24 2292.36 1357.3 2291.56 1356.54C2290.76 1355.78 2289.8 1355.4 2288.68 1355.4H2284.72V1379.46H2288.68ZM2304.74 1355.76H2301.14V1351.8H2304.74V1348.32C2304.74 1346.08 2305.38 1344.3 2306.66 1342.98C2307.94 1341.66 2309.68 1341 2311.88 1341H2314.52V1344.6H2312.72C2311.8 1344.6 2311.04 1344.92 2310.44 1345.56C2309.84 1346.2 2309.54 1346.98 2309.54 1347.9V1351.8H2314.4V1355.76H2309.54V1383H2304.74V1355.76ZM2318.36 1383V1341H2323.16V1383H2318.36ZM2337.93 1383.42C2335.13 1383.42 2332.95 1382.72 2331.39 1381.32C2329.87 1379.88 2329.11 1377.9 2329.11 1375.38V1359.42C2329.11 1356.9 2329.87 1354.94 2331.39 1353.54C2332.95 1352.1 2335.13 1351.38 2337.93 1351.38C2340.73 1351.38 2342.89 1352.1 2344.41 1353.54C2345.97 1354.94 2346.75 1356.9 2346.75 1359.42V1375.38C2346.75 1377.9 2345.97 1379.88 2344.41 1381.32C2342.89 1382.72 2340.73 1383.42 2337.93 1383.42ZM2337.93 1379.7C2339.21 1379.7 2340.21 1379.34 2340.93 1378.62C2341.69 1377.86 2342.07 1376.78 2342.07 1375.38V1359.42C2342.07 1358.02 2341.69 1356.96 2340.93 1356.24C2340.21 1355.48 2339.21 1355.1 2337.93 1355.1C2336.65 1355.1 2335.63 1355.48 2334.87 1356.24C2334.15 1356.96 2333.79 1358.02 2333.79 1359.42V1375.38C2333.79 1376.78 2334.15 1377.86 2334.87 1378.62C2335.63 1379.34 2336.65 1379.7 2337.93 1379.7ZM2356.06 1383L2350.36 1351.8H2355.16L2358.64 1377.96L2361.46 1359.78H2367.58L2370.4 1377.96L2373.88 1351.8H2378.68L2372.98 1383H2368.06L2364.52 1364.22L2360.98 1383H2356.06ZM2382.99 1389H2384.85C2385.93 1389 2386.91 1388.48 2387.79 1387.44C2388.67 1386.44 2389.11 1384.94 2389.11 1382.94L2380.77 1351.8H2385.75L2390.97 1377.12L2395.17 1351.8H2399.91L2392.59 1386.6C2391.75 1390.6 2389.43 1392.6 2385.63 1392.6H2382.99V1389Z" fill="white" fill-opacity="0.6"/>
<path d="M2538 1447V1251H2795.74L2838 1293.33V1447H2538Z" stroke="white" stroke-opacity="0.4" stroke-width="4"/>
<path d="M2583.38 1369V1327H2601.68V1331.08H2588.66V1344.52H2599.22V1348.6H2588.66V1364.92H2602.28V1369H2583.38ZM2612.7 1369L2605.56 1337.8H2610.54L2615.16 1362.94L2619.72 1337.8H2624.7L2617.56 1369H2612.7ZM2635.42 1369C2633.22 1369 2631.46 1368.34 2630.14 1367.02C2628.86 1365.7 2628.22 1363.92 2628.22 1361.68V1345.72C2628.22 1343.12 2628.94 1341.08 2630.38 1339.6C2631.82 1338.12 2633.96 1337.38 2636.8 1337.38C2639.64 1337.38 2641.76 1338.12 2643.16 1339.6C2644.6 1341.08 2645.32 1343.12 2645.32 1345.72V1348.48C2645.32 1350.16 2644.84 1351.44 2643.88 1352.32C2642.92 1353.16 2641.66 1353.8 2640.1 1354.24L2633.02 1356.22V1362.1C2633.02 1363.06 2633.3 1363.86 2633.86 1364.5C2634.46 1365.1 2635.22 1365.4 2636.14 1365.4H2642.62V1369H2635.42ZM2636.68 1351.42C2638 1351.06 2638.88 1350.8 2639.32 1350.64C2639.8 1350.44 2640.12 1350.16 2640.28 1349.8C2640.44 1349.44 2640.52 1348.84 2640.52 1348V1344.7C2640.52 1343.42 2640.18 1342.48 2639.5 1341.88C2638.86 1341.28 2637.96 1340.98 2636.8 1340.98C2635.68 1340.98 2634.76 1341.3 2634.04 1341.94C2633.36 1342.58 2633.02 1343.5 2633.02 1344.7V1352.44L2636.68 1351.42ZM2650.1 1337.8H2653.82L2654.36 1340.02L2655.86 1339.3C2657.14 1338.66 2658.2 1338.18 2659.04 1337.86C2659.92 1337.54 2660.8 1337.38 2661.68 1337.38V1340.92C2661.16 1340.92 2660.46 1341.08 2659.58 1341.4C2658.7 1341.68 2657.14 1342.36 2654.9 1343.44V1369H2650.1V1337.8ZM2666.15 1337.8H2669.87L2670.41 1339.54L2672.87 1338.82C2674.55 1338.3 2675.87 1337.94 2676.83 1337.74C2677.83 1337.5 2678.77 1337.38 2679.65 1337.38C2681.09 1337.38 2682.15 1337.88 2682.83 1338.88C2683.51 1339.88 2683.85 1341.18 2683.85 1342.78V1369H2679.05V1344.34C2679.05 1343.18 2678.97 1342.38 2678.81 1341.94C2678.65 1341.46 2678.25 1341.22 2677.61 1341.22C2677.29 1341.22 2675.07 1341.86 2670.95 1343.14V1369H2666.15V1337.8ZM2698.15 1369.42C2695.35 1369.42 2693.17 1368.72 2691.61 1367.32C2690.09 1365.88 2689.33 1363.9 2689.33 1361.38V1345.42C2689.33 1342.9 2690.09 1340.94 2691.61 1339.54C2693.17 1338.1 2695.35 1337.38 2698.15 1337.38C2700.95 1337.38 2703.11 1338.1 2704.63 1339.54C2706.19 1340.94 2706.97 1342.9 2706.97 1345.42V1361.38C2706.97 1363.9 2706.19 1365.88 2704.63 1367.32C2703.11 1368.72 2700.95 1369.42 2698.15 1369.42ZM2698.15 1365.7C2699.43 1365.7 2700.43 1365.34 2701.15 1364.62C2701.91 1363.86 2702.29 1362.78 2702.29 1361.38V1345.42C2702.29 1344.02 2701.91 1342.96 2701.15 1342.24C2700.43 1341.48 2699.43 1341.1 2698.15 1341.1C2696.87 1341.1 2695.85 1341.48 2695.09 1342.24C2694.37 1342.96 2694.01 1344.02 2694.01 1345.42V1361.38C2694.01 1362.78 2694.37 1363.86 2695.09 1364.62C2695.85 1365.34 2696.87 1365.7 2698.15 1365.7ZM2721.67 1369C2719.47 1369 2717.73 1368.34 2716.45 1367.02C2715.17 1365.7 2714.53 1363.92 2714.53 1361.68V1341.4H2710.93V1337.8H2714.53V1328.74L2719.33 1326.94V1337.8H2724.13V1341.4H2719.33V1362.1C2719.33 1363.06 2719.59 1363.86 2720.11 1364.5C2720.67 1365.1 2721.41 1365.4 2722.33 1365.4H2724.13V1369H2721.67ZM2735.15 1369C2732.95 1369 2731.19 1368.34 2729.87 1367.02C2728.59 1365.7 2727.95 1363.92 2727.95 1361.68V1345.72C2727.95 1343.12 2728.67 1341.08 2730.11 1339.6C2731.55 1338.12 2733.69 1337.38 2736.53 1337.38C2739.37 1337.38 2741.49 1338.12 2742.89 1339.6C2744.33 1341.08 2745.05 1343.12 2745.05 1345.72V1348.48C2745.05 1350.16 2744.57 1351.44 2743.61 1352.32C2742.65 1353.16 2741.39 1353.8 2739.83 1354.24L2732.75 1356.22V1362.1C2732.75 1363.06 2733.03 1363.86 2733.59 1364.5C2734.19 1365.1 2734.95 1365.4 2735.87 1365.4H2742.35V1369H2735.15ZM2736.41 1351.42C2737.73 1351.06 2738.61 1350.8 2739.05 1350.64C2739.53 1350.44 2739.85 1350.16 2740.01 1349.8C2740.17 1349.44 2740.25 1348.84 2740.25 1348V1344.7C2740.25 1343.42 2739.91 1342.48 2739.23 1341.88C2738.59 1341.28 2737.69 1340.98 2736.53 1340.98C2735.41 1340.98 2734.49 1341.3 2733.77 1341.94C2733.09 1342.58 2732.75 1343.5 2732.75 1344.7V1352.44L2736.41 1351.42Z" fill="white" fill-opacity="0.6"/>
<path d="M2570 1202V1006H2827.74L2870 1048.33V1202H2570Z" stroke="white" stroke-opacity="0.4" stroke-width="4"/>
<path d="M2620.6 1124V1085.96H2612.2V1082H2634.28V1085.96H2625.88V1124H2620.6ZM2645.45 1124C2644.01 1124 2642.67 1123.64 2641.43 1122.92C2640.23 1122.2 2639.27 1121.22 2638.55 1119.98C2637.87 1118.74 2637.53 1117.34 2637.53 1115.78V1112.66C2637.53 1110.78 2637.99 1109.2 2638.91 1107.92C2639.87 1106.64 2641.05 1105.74 2642.45 1105.22L2649.89 1102.46V1099.64C2649.89 1098.68 2649.59 1097.9 2648.99 1097.3C2648.43 1096.66 2647.69 1096.34 2646.77 1096.34H2639.99V1092.8H2647.19C2649.39 1092.8 2651.13 1093.46 2652.41 1094.78C2653.73 1096.06 2654.39 1097.82 2654.39 1100.06V1124H2645.45ZM2649.89 1120.34V1106.24L2644.61 1108.22C2643.57 1108.62 2642.83 1109.16 2642.39 1109.84C2641.99 1110.52 2641.79 1111.6 2641.79 1113.08V1116.44C2641.79 1117.52 2642.19 1118.44 2642.99 1119.2C2643.79 1119.96 2644.75 1120.34 2645.87 1120.34H2649.89ZM2661.01 1092.8H2664.73L2665.27 1094.54L2667.73 1093.82C2669.41 1093.3 2670.73 1092.94 2671.69 1092.74C2672.69 1092.5 2673.63 1092.38 2674.51 1092.38C2675.95 1092.38 2677.01 1092.88 2677.69 1093.88C2678.37 1094.88 2678.71 1096.18 2678.71 1097.78V1124H2673.91V1099.34C2673.91 1098.18 2673.83 1097.38 2673.67 1096.94C2673.51 1096.46 2673.11 1096.22 2672.47 1096.22C2672.15 1096.22 2669.93 1096.86 2665.81 1098.14V1124H2661.01V1092.8ZM2691.74 1124C2690.3 1124 2688.96 1123.64 2687.72 1122.92C2686.52 1122.2 2685.56 1121.22 2684.84 1119.98C2684.16 1118.74 2683.82 1117.34 2683.82 1115.78V1112.66C2683.82 1110.78 2684.28 1109.2 2685.2 1107.92C2686.16 1106.64 2687.34 1105.74 2688.74 1105.22L2696.18 1102.46V1099.64C2696.18 1098.68 2695.88 1097.9 2695.28 1097.3C2694.72 1096.66 2693.98 1096.34 2693.06 1096.34H2686.28V1092.8H2693.48C2695.68 1092.8 2697.42 1093.46 2698.7 1094.78C2700.02 1096.06 2700.68 1097.82 2700.68 1100.06V1124H2691.74ZM2696.18 1120.34V1106.24L2690.9 1108.22C2689.86 1108.62 2689.12 1109.16 2688.68 1109.84C2688.28 1110.52 2688.08 1111.6 2688.08 1113.08V1116.44C2688.08 1117.52 2688.48 1118.44 2689.28 1119.2C2690.08 1119.96 2691.04 1120.34 2692.16 1120.34H2696.18Z" fill="white" fill-opacity="0.6"/>
<path d="M2953 1293V1097H3210.74L3253 1139.33V1293H2953Z" stroke="white" stroke-opacity="0.4" stroke-width="4"/>
<path d="M2995.2 1215L3004.68 1173H3012.66L3021.78 1215H3016.86L3013.92 1202.64H3003L3000.3 1215H2995.2ZM3003.9 1198.56H3013.02L3008.7 1176.96H3008.28L3003.9 1198.56ZM3027.38 1215V1173H3045.08V1177.08H3032.66V1191.48H3042.02V1195.56H3032.66V1215H3027.38ZM3050.65 1215V1173H3068.35V1177.08H3055.93V1191.48H3065.29V1195.56H3055.93V1215H3050.65ZM3073.13 1178.7V1173.9H3077.93V1178.7H3073.13ZM3073.13 1215V1183.8H3077.93V1215H3073.13ZM3085.44 1215V1173H3094.26L3104.04 1209.3V1173H3109.38V1215H3101.82L3090.72 1176.84V1215H3085.44ZM3117.68 1215V1173H3135.98V1177.08H3122.96V1190.52H3133.52V1194.6H3122.96V1210.92H3136.58V1215H3117.68Z" fill="white" fill-opacity="0.6"/>
<path d="M2909 1005V809H3166.74L3209 851.332V1005H2909Z" stroke="white" stroke-opacity="0.4" stroke-width="4"/>
<path d="M2964.04 927C2960.4 927 2957.58 926.08 2955.58 924.24C2953.58 922.4 2952.58 919.7 2952.58 916.14V895.86C2952.58 892.3 2953.58 889.6 2955.58 887.76C2957.58 885.92 2960.4 885 2964.04 885H2972.08V888.96H2964.04C2962.2 888.96 2960.7 889.5 2959.54 890.58C2958.42 891.62 2957.86 893.02 2957.86 894.78V917.22C2957.86 918.98 2958.42 920.4 2959.54 921.48C2960.7 922.52 2962.2 923.04 2964.04 923.04H2972.08V927H2964.04ZM2983.22 927C2981.78 927 2980.44 926.64 2979.2 925.92C2978 925.2 2977.04 924.22 2976.32 922.98C2975.64 921.74 2975.3 920.34 2975.3 918.78V915.66C2975.3 913.78 2975.76 912.2 2976.68 910.92C2977.64 909.64 2978.82 908.74 2980.22 908.22L2987.66 905.46V902.64C2987.66 901.68 2987.36 900.9 2986.76 900.3C2986.2 899.66 2985.46 899.34 2984.54 899.34H2977.76V895.8H2984.96C2987.16 895.8 2988.9 896.46 2990.18 897.78C2991.5 899.06 2992.16 900.82 2992.16 903.06V927H2983.22ZM2987.66 923.34V909.24L2982.38 911.22C2981.34 911.62 2980.6 912.16 2980.16 912.84C2979.76 913.52 2979.56 914.6 2979.56 916.08V919.44C2979.56 920.52 2979.96 921.44 2980.76 922.2C2981.56 922.96 2982.52 923.34 2983.64 923.34H2987.66ZM2998.78 895.8H3008.5C3010.7 895.8 3012.56 896.52 3014.08 897.96C3015.64 899.4 3016.42 901.2 3016.42 903.36V919.5C3016.42 921.66 3015.66 923.46 3014.14 924.9C3012.62 926.3 3010.76 927 3008.56 927H3003.58V936.6H2998.78V895.8ZM3007.54 923.46C3008.66 923.46 3009.62 923.08 3010.42 922.32C3011.22 921.56 3011.62 920.62 3011.62 919.5V903.36C3011.62 902.24 3011.22 901.3 3010.42 900.54C3009.62 899.78 3008.66 899.4 3007.54 899.4H3003.58V923.46H3007.54ZM3028.46 927C3027.02 927 3025.68 926.64 3024.44 925.92C3023.24 925.2 3022.28 924.22 3021.56 922.98C3020.88 921.74 3020.54 920.34 3020.54 918.78V915.66C3020.54 913.78 3021 912.2 3021.92 910.92C3022.88 909.64 3024.06 908.74 3025.46 908.22L3032.9 905.46V902.64C3032.9 901.68 3032.6 900.9 3032 900.3C3031.44 899.66 3030.7 899.34 3029.78 899.34H3023V895.8H3030.2C3032.4 895.8 3034.14 896.46 3035.42 897.78C3036.74 899.06 3037.4 900.82 3037.4 903.06V927H3028.46ZM3032.9 923.34V909.24L3027.62 911.22C3026.58 911.62 3025.84 912.16 3025.4 912.84C3025 913.52 3024.8 914.6 3024.8 916.08V919.44C3024.8 920.52 3025.2 921.44 3026 922.2C3026.8 922.96 3027.76 923.34 3028.88 923.34H3032.9ZM3050.61 927C3048.41 927 3046.65 926.34 3045.33 925.02C3044.05 923.7 3043.41 921.92 3043.41 919.68V903.72C3043.41 901.2 3044.07 899.26 3045.39 897.9C3046.71 896.5 3048.63 895.8 3051.15 895.8H3057.81V899.4H3051.27C3050.35 899.4 3049.61 899.72 3049.05 900.36C3048.49 900.96 3048.21 901.74 3048.21 902.7V920.1C3048.21 921.06 3048.49 921.86 3049.05 922.5C3049.65 923.1 3050.41 923.4 3051.33 923.4H3057.81V927H3050.61ZM3062 890.7V885.9H3066.8V890.7H3062ZM3062 927V895.8H3066.8V927H3062ZM3082.71 927C3080.51 927 3078.77 926.34 3077.49 925.02C3076.21 923.7 3075.57 921.92 3075.57 919.68V899.4H3071.97V895.8H3075.57V886.74L3080.37 884.94V895.8H3085.17V899.4H3080.37V920.1C3080.37 921.06 3080.63 921.86 3081.15 922.5C3081.71 923.1 3082.45 923.4 3083.37 923.4H3085.17V927H3082.71ZM3089.95 890.7V885.9H3094.75V890.7H3089.95ZM3089.95 927V895.8H3094.75V927H3089.95ZM3108.2 927C3106 927 3104.24 926.34 3102.92 925.02C3101.64 923.7 3101 921.92 3101 919.68V903.72C3101 901.12 3101.72 899.08 3103.16 897.6C3104.6 896.12 3106.74 895.38 3109.58 895.38C3112.42 895.38 3114.54 896.12 3115.94 897.6C3117.38 899.08 3118.1 901.12 3118.1 903.72V906.48C3118.1 908.16 3117.62 909.44 3116.66 910.32C3115.7 911.16 3114.44 911.8 3112.88 912.24L3105.8 914.22V920.1C3105.8 921.06 3106.08 921.86 3106.64 922.5C3107.24 923.1 3108 923.4 3108.92 923.4H3115.4V927H3108.2ZM3109.46 909.42C3110.78 909.06 3111.66 908.8 3112.1 908.64C3112.58 908.44 3112.9 908.16 3113.06 907.8C3113.22 907.44 3113.3 906.84 3113.3 906V902.7C3113.3 901.42 3112.96 900.48 3112.28 899.88C3111.64 899.28 3110.74 898.98 3109.58 898.98C3108.46 898.98 3107.54 899.3 3106.82 899.94C3106.14 900.58 3105.8 901.5 3105.8 902.7V910.44L3109.46 909.42ZM3121.08 923.4H3126.18C3127.9 923.4 3129.14 922.94 3129.9 922.02C3130.7 921.06 3131.1 919.82 3131.1 918.3C3131.1 917.1 3130.74 916.08 3130.02 915.24C3129.3 914.4 3128.22 913.42 3126.78 912.3C3125.54 911.3 3124.54 910.44 3123.78 909.72C3123.06 908.96 3122.42 908.04 3121.86 906.96C3121.34 905.84 3121.08 904.56 3121.08 903.12C3121.08 901 3121.78 899.26 3123.18 897.9C3124.62 896.5 3126.54 895.8 3128.94 895.8H3134.16V899.4H3129.84C3127 899.4 3125.58 900.74 3125.58 903.42C3125.58 904.46 3125.9 905.36 3126.54 906.12C3127.18 906.88 3128.18 907.78 3129.54 908.82C3130.78 909.78 3131.8 910.66 3132.6 911.46C3133.4 912.22 3134.08 913.2 3134.64 914.4C3135.2 915.56 3135.48 916.94 3135.48 918.54C3135.48 921.38 3134.72 923.5 3133.2 924.9C3131.72 926.3 3129.62 927 3126.9 927H3121.08V923.4Z" fill="white" fill-opacity="0.6"/>
<path d="M2953 735V539H3210.74L3253 581.332V735H2953Z" stroke="white" stroke-opacity="0.4" stroke-width="4"/>
<path d="M2995.2 657L3004.68 615H3012.66L3021.78 657H3016.86L3013.92 644.64H3003L3000.3 657H2995.2ZM3003.9 640.56H3013.02L3008.7 618.96H3008.28L3003.9 640.56ZM3026.6 625.8H3030.32L3030.86 627.54L3033.32 626.82C3035 626.3 3036.32 625.94 3037.28 625.74C3038.28 625.5 3039.22 625.38 3040.1 625.38C3041.54 625.38 3042.6 625.88 3043.28 626.88C3043.96 627.88 3044.3 629.18 3044.3 630.78V657H3039.5V632.34C3039.5 631.18 3039.42 630.38 3039.26 629.94C3039.1 629.46 3038.7 629.22 3038.06 629.22C3037.74 629.22 3035.52 629.86 3031.4 631.14V657H3026.6V625.8ZM3050.8 663H3052.66C3053.74 663 3054.72 662.48 3055.6 661.44C3056.48 660.44 3056.92 658.94 3056.92 656.94L3048.58 625.8H3053.56L3058.78 651.12L3062.98 625.8H3067.72L3060.4 660.6C3059.56 664.6 3057.24 666.6 3053.44 666.6H3050.8V663ZM3080.89 657C3078.69 657 3076.95 656.34 3075.67 655.02C3074.39 653.7 3073.75 651.92 3073.75 649.68V629.4H3070.15V625.8H3073.75V616.74L3078.55 614.94V625.8H3083.35V629.4H3078.55V650.1C3078.55 651.06 3078.81 651.86 3079.33 652.5C3079.89 653.1 3080.63 653.4 3081.55 653.4H3083.35V657H3080.89ZM3087.95 663H3089.81C3090.89 663 3091.87 662.48 3092.75 661.44C3093.63 660.44 3094.07 658.94 3094.07 656.94L3085.73 625.8H3090.71L3095.93 651.12L3100.13 625.8H3104.87L3097.55 660.6C3096.71 664.6 3094.39 666.6 3090.59 666.6H3087.95V663ZM3109.34 625.8H3119.06C3121.26 625.8 3123.12 626.52 3124.64 627.96C3126.2 629.4 3126.98 631.2 3126.98 633.36V649.5C3126.98 651.66 3126.22 653.46 3124.7 654.9C3123.18 656.3 3121.32 657 3119.12 657H3114.14V666.6H3109.34V625.8ZM3118.1 653.46C3119.22 653.46 3120.18 653.08 3120.98 652.32C3121.78 651.56 3122.18 650.62 3122.18 649.5V633.36C3122.18 632.24 3121.78 631.3 3120.98 630.54C3120.18 629.78 3119.22 629.4 3118.1 629.4H3114.14V653.46H3118.1ZM3138.9 657C3136.7 657 3134.94 656.34 3133.62 655.02C3132.34 653.7 3131.7 651.92 3131.7 649.68V633.72C3131.7 631.12 3132.42 629.08 3133.86 627.6C3135.3 626.12 3137.44 625.38 3140.28 625.38C3143.12 625.38 3145.24 626.12 3146.64 627.6C3148.08 629.08 3148.8 631.12 3148.8 633.72V636.48C3148.8 638.16 3148.32 639.44 3147.36 640.32C3146.4 641.16 3145.14 641.8 3143.58 642.24L3136.5 644.22V650.1C3136.5 651.06 3136.78 651.86 3137.34 652.5C3137.94 653.1 3138.7 653.4 3139.62 653.4H3146.1V657H3138.9ZM3140.16 639.42C3141.48 639.06 3142.36 638.8 3142.8 638.64C3143.28 638.44 3143.6 638.16 3143.76 637.8C3143.92 637.44 3144 636.84 3144 636V632.7C3144 631.42 3143.66 630.48 3142.98 629.88C3142.34 629.28 3141.44 628.98 3140.28 628.98C3139.16 628.98 3138.24 629.3 3137.52 629.94C3136.84 630.58 3136.5 631.5 3136.5 632.7V640.44L3140.16 639.42Z" fill="white" fill-opacity="0.6"/>
<path d="M2888 1537V1341H3145.74L3188 1383.33V1537H2888Z" stroke="white" stroke-opacity="0.4" stroke-width="4"/>
<path d="M2930.2 1459L2939.68 1417H2947.66L2956.78 1459H2951.86L2948.92 1446.64H2938L2935.3 1459H2930.2ZM2938.9 1442.56H2948.02L2943.7 1420.96H2943.28L2938.9 1442.56ZM2961.6 1427.8H2965.32L2965.86 1429.54L2968.32 1428.82C2970 1428.3 2971.32 1427.94 2972.28 1427.74C2973.28 1427.5 2974.22 1427.38 2975.1 1427.38C2976.54 1427.38 2977.6 1427.88 2978.28 1428.88C2978.96 1429.88 2979.3 1431.18 2979.3 1432.78V1459H2974.5V1434.34C2974.5 1433.18 2974.42 1432.38 2974.26 1431.94C2974.1 1431.46 2973.7 1431.22 2973.06 1431.22C2972.74 1431.22 2970.52 1431.86 2966.4 1433.14V1459H2961.6V1427.8ZM2985.8 1465H2987.66C2988.74 1465 2989.72 1464.48 2990.6 1463.44C2991.48 1462.44 2991.92 1460.94 2991.92 1458.94L2983.58 1427.8H2988.56L2993.78 1453.12L2997.98 1427.8H3002.72L2995.4 1462.6C2994.56 1466.6 2992.24 1468.6 2988.44 1468.6H2985.8V1465ZM3015.89 1459C3013.69 1459 3011.95 1458.34 3010.67 1457.02C3009.39 1455.7 3008.75 1453.92 3008.75 1451.68V1431.4H3005.15V1427.8H3008.75V1418.74L3013.55 1416.94V1427.8H3018.35V1431.4H3013.55V1452.1C3013.55 1453.06 3013.81 1453.86 3014.33 1454.5C3014.89 1455.1 3015.63 1455.4 3016.55 1455.4H3018.35V1459H3015.89ZM3022.95 1465H3024.81C3025.89 1465 3026.87 1464.48 3027.75 1463.44C3028.63 1462.44 3029.07 1460.94 3029.07 1458.94L3020.73 1427.8H3025.71L3030.93 1453.12L3035.13 1427.8H3039.87L3032.55 1462.6C3031.71 1466.6 3029.39 1468.6 3025.59 1468.6H3022.95V1465ZM3044.34 1427.8H3054.06C3056.26 1427.8 3058.12 1428.52 3059.64 1429.96C3061.2 1431.4 3061.98 1433.2 3061.98 1435.36V1451.5C3061.98 1453.66 3061.22 1455.46 3059.7 1456.9C3058.18 1458.3 3056.32 1459 3054.12 1459H3049.14V1468.6H3044.34V1427.8ZM3053.1 1455.46C3054.22 1455.46 3055.18 1455.08 3055.98 1454.32C3056.78 1453.56 3057.18 1452.62 3057.18 1451.5V1435.36C3057.18 1434.24 3056.78 1433.3 3055.98 1432.54C3055.18 1431.78 3054.22 1431.4 3053.1 1431.4H3049.14V1455.46H3053.1ZM3073.9 1459C3071.7 1459 3069.94 1458.34 3068.62 1457.02C3067.34 1455.7 3066.7 1453.92 3066.7 1451.68V1435.72C3066.7 1433.12 3067.42 1431.08 3068.86 1429.6C3070.3 1428.12 3072.44 1427.38 3075.28 1427.38C3078.12 1427.38 3080.24 1428.12 3081.64 1429.6C3083.08 1431.08 3083.8 1433.12 3083.8 1435.72V1438.48C3083.8 1440.16 3083.32 1441.44 3082.36 1442.32C3081.4 1443.16 3080.14 1443.8 3078.58 1444.24L3071.5 1446.22V1452.1C3071.5 1453.06 3071.78 1453.86 3072.34 1454.5C3072.94 1455.1 3073.7 1455.4 3074.62 1455.4H3081.1V1459H3073.9ZM3075.16 1441.42C3076.48 1441.06 3077.36 1440.8 3077.8 1440.64C3078.28 1440.44 3078.6 1440.16 3078.76 1439.8C3078.92 1439.44 3079 1438.84 3079 1438V1434.7C3079 1433.42 3078.66 1432.48 3077.98 1431.88C3077.34 1431.28 3076.44 1430.98 3075.28 1430.98C3074.16 1430.98 3073.24 1431.3 3072.52 1431.94C3071.84 1432.58 3071.5 1433.5 3071.5 1434.7V1442.44L3075.16 1441.42Z" fill="white" fill-opacity="0.6"/>
</svg>
