<svg width="3745" height="1780" viewBox="0 0 3745 1780" fill="none" xmlns="http://www.w3.org/2000/svg">
<rect width="3745" height="1780" fill="#838383"/>
<rect x="453.5" y="379.5" width="1237" height="1158" stroke="black"/>
<rect x="1803.5" y="111.5" width="1202" height="912" stroke="black"/>
<rect x="2088.5" y="487.5" width="1202" height="1103" stroke="black" stroke-opacity="0.4"/>
<path d="M428.64 466L398.4 340H414.06L439.08 451.6L463.92 340H479.58L449.88 466H428.64ZM503.036 466C498.716 466 494.696 464.92 490.976 462.76C487.376 460.6 484.496 457.66 482.336 453.94C480.296 450.22 479.276 446.02 479.276 441.34V431.98C479.276 426.34 480.656 421.6 483.416 417.76C486.296 413.92 489.836 411.22 494.036 409.66L516.356 401.38V392.92C516.356 390.04 515.456 387.7 513.656 385.9C511.976 383.98 509.756 383.02 506.996 383.02H486.656V372.4H508.256C514.856 372.4 520.076 374.38 523.916 378.34C527.876 382.18 529.856 387.46 529.856 394.18V466H503.036ZM516.356 455.02V412.72L500.516 418.66C497.396 419.86 495.176 421.48 493.856 423.52C492.656 425.56 492.056 428.8 492.056 433.24V443.32C492.056 446.56 493.256 449.32 495.656 451.6C498.056 453.88 500.936 455.02 504.296 455.02H516.356ZM549.698 372.4H560.858L562.478 379.06L566.978 376.9C570.818 374.98 573.998 373.54 576.518 372.58C579.158 371.62 581.798 371.14 584.438 371.14V381.76C582.878 381.76 580.778 382.24 578.138 383.2C575.498 384.04 570.818 386.08 564.098 389.32V466H549.698V372.4ZM597.863 357.1V342.7H612.263V357.1H597.863ZM597.863 466V372.4H612.263V466H597.863ZM652.978 466C648.658 466 644.638 464.92 640.918 462.76C637.318 460.6 634.438 457.66 632.278 453.94C630.238 450.22 629.218 446.02 629.218 441.34V431.98C629.218 426.34 630.598 421.6 633.358 417.76C636.238 413.92 639.778 411.22 643.978 409.66L666.298 401.38V392.92C666.298 390.04 665.398 387.7 663.598 385.9C661.918 383.98 659.698 383.02 656.938 383.02H636.598V372.4H658.198C664.798 372.4 670.018 374.38 673.858 378.34C677.818 382.18 679.798 387.46 679.798 394.18V466H652.978ZM666.298 455.02V412.72L650.458 418.66C647.338 419.86 645.118 421.48 643.798 423.52C642.598 425.56 641.998 428.8 641.998 433.24V443.32C641.998 446.56 643.198 449.32 645.598 451.6C647.998 453.88 650.878 455.02 654.238 455.02H666.298ZM728.62 471.76C732.94 471.76 736.24 472.54 738.52 474.1C740.8 475.66 741.94 478.48 741.94 482.56C741.94 490.72 737.26 494.8 727.9 494.8H708.64V486.34H723.04C725.8 486.34 727.84 486.04 729.16 485.44C730.48 484.84 731.14 483.82 731.14 482.38C731.14 480.82 730.66 479.8 729.7 479.32C728.74 478.84 727.18 478.6 725.02 478.6H715.66L718.72 466H719.44C712.84 466 707.56 464.02 703.6 460.06C699.76 456.1 697.84 450.76 697.84 444.04V396.16C697.84 388.6 699.82 382.78 703.78 378.7C707.74 374.5 713.5 372.4 721.06 372.4H741.04V383.2H721.42C718.66 383.2 716.44 384.16 714.76 386.08C713.08 387.88 712.24 390.22 712.24 393.1V445.3C712.24 448.18 713.08 450.58 714.76 452.5C716.56 454.3 718.84 455.2 721.6 455.2H741.04V466H729.88L728.62 471.76ZM751.085 363.4C751.205 358 752.225 353.92 754.145 351.16C756.065 348.28 759.545 346.84 764.585 346.84C765.905 346.84 769.805 347.8 776.285 349.72C782.645 351.76 786.725 352.78 788.525 352.78C789.965 352.78 790.925 352.36 791.405 351.52C791.885 350.56 792.185 349.42 792.305 348.1C792.545 346.78 792.725 345.76 792.845 345.04H804.185C804.065 349.12 803.765 352.42 803.285 354.94C802.805 357.34 801.545 359.38 799.505 361.06C797.585 362.62 794.645 363.4 790.685 363.4C788.885 363.4 784.805 362.38 778.445 360.34C771.965 358.42 768.065 357.46 766.745 357.46C765.185 357.46 764.165 357.76 763.685 358.36C763.325 358.96 763.025 359.8 762.785 360.88C762.665 361.96 762.545 362.8 762.425 363.4H751.085ZM776.465 467.26C768.065 467.26 761.525 465.16 756.845 460.96C752.285 456.64 750.005 450.7 750.005 443.14V395.26C750.005 387.7 752.285 381.82 756.845 377.62C761.525 373.3 768.065 371.14 776.465 371.14C784.865 371.14 791.345 373.3 795.905 377.62C800.585 381.82 802.925 387.7 802.925 395.26V443.14C802.925 450.7 800.585 456.64 795.905 460.96C791.345 465.16 784.865 467.26 776.465 467.26ZM776.465 456.1C780.305 456.1 783.305 455.02 785.465 452.86C787.745 450.58 788.885 447.34 788.885 443.14V395.26C788.885 391.06 787.745 387.88 785.465 385.72C783.305 383.44 780.305 382.3 776.465 382.3C772.625 382.3 769.565 383.44 767.285 385.72C765.125 387.88 764.045 391.06 764.045 395.26V443.14C764.045 447.34 765.125 450.58 767.285 452.86C769.565 455.02 772.625 456.1 776.465 456.1ZM839.649 466C833.049 466 827.769 464.02 823.809 460.06C819.969 456.1 818.049 450.76 818.049 444.04V396.16C818.049 388.36 820.209 382.24 824.529 377.8C828.849 373.36 835.269 371.14 843.789 371.14C852.309 371.14 858.669 373.36 862.869 377.8C867.189 382.24 869.349 388.36 869.349 396.16V404.44C869.349 409.48 867.909 413.32 865.029 415.96C862.149 418.48 858.369 420.4 853.689 421.72L832.449 427.66V445.3C832.449 448.18 833.289 450.58 834.969 452.5C836.769 454.3 839.049 455.2 841.809 455.2H861.249V466H839.649ZM843.429 413.26C847.389 412.18 850.029 411.4 851.349 410.92C852.789 410.32 853.749 409.48 854.229 408.4C854.709 407.32 854.949 405.52 854.949 403V393.1C854.949 389.26 853.929 386.44 851.889 384.64C849.969 382.84 847.269 381.94 843.789 381.94C840.429 381.94 837.669 382.9 835.509 384.82C833.469 386.74 832.449 389.5 832.449 393.1V416.32L843.429 413.26ZM878.283 455.2H893.583C898.743 455.2 902.463 453.82 904.743 451.06C907.143 448.18 908.343 444.46 908.343 439.9C908.343 436.3 907.263 433.24 905.103 430.72C902.943 428.2 899.703 425.26 895.383 421.9C891.663 418.9 888.663 416.32 886.383 414.16C884.223 411.88 882.303 409.12 880.623 405.88C879.063 402.52 878.283 398.68 878.283 394.36C878.283 388 880.383 382.78 884.583 378.7C888.903 374.5 894.663 372.4 901.863 372.4H917.523V383.2H904.563C896.043 383.2 891.783 387.22 891.783 395.26C891.783 398.38 892.743 401.08 894.663 403.36C896.583 405.64 899.583 408.34 903.663 411.46C907.383 414.34 910.443 416.98 912.843 419.38C915.243 421.66 917.283 424.6 918.963 428.2C920.643 431.68 921.483 435.82 921.483 440.62C921.483 449.14 919.203 455.5 914.643 459.7C910.203 463.9 903.903 466 895.743 466H878.283V455.2Z" fill="white"/>
<path d="M786 1125V771H1251.64L1328 847.457V1125H786Z" fill="white" stroke="white" stroke-width="4"/>
<path d="M1135 712V446H1483.8L1541 503.451V712H1135Z" stroke="white" stroke-width="4"/>
<path d="M2137 903V549H2602.64L2679 625.457V903H2137Z" fill="white" stroke="white" stroke-width="4"/>
<path d="M2231.45 763V672H2250.56L2271.75 750.65V672H2283.32V763H2266.94L2242.89 680.32V763H2231.45ZM2316.12 763.91C2310.05 763.91 2305.33 762.393 2301.95 759.36C2298.66 756.24 2297.01 751.95 2297.01 746.49V711.91C2297.01 706.45 2298.66 702.203 2301.95 699.17C2305.33 696.05 2310.05 694.49 2316.12 694.49C2322.19 694.49 2326.87 696.05 2330.16 699.17C2333.54 702.203 2335.23 706.45 2335.23 711.91V746.49C2335.23 751.95 2333.54 756.24 2330.16 759.36C2326.87 762.393 2322.19 763.91 2316.12 763.91ZM2316.12 755.85C2318.89 755.85 2321.06 755.07 2322.62 753.51C2324.27 751.863 2325.09 749.523 2325.09 746.49V711.91C2325.09 708.877 2324.27 706.58 2322.62 705.02C2321.06 703.373 2318.89 702.55 2316.12 702.55C2313.35 702.55 2311.14 703.373 2309.49 705.02C2307.93 706.58 2307.15 708.877 2307.15 711.91V746.49C2307.15 749.523 2307.93 751.863 2309.49 753.51C2311.14 755.07 2313.35 755.85 2316.12 755.85ZM2367.08 763C2362.31 763 2358.54 761.57 2355.77 758.71C2353 755.85 2351.61 751.993 2351.61 747.14V703.2H2343.81V695.4H2351.61V675.77L2362.01 671.87V695.4H2372.41V703.2H2362.01V748.05C2362.01 750.13 2362.57 751.863 2363.7 753.25C2364.91 754.55 2366.52 755.2 2368.51 755.2H2372.41V763H2367.08ZM2382.76 684.35V673.95H2393.16V684.35H2382.76ZM2382.76 763V695.4H2393.16V763H2382.76ZM2425.3 763.91C2419.23 763.91 2414.51 762.393 2411.13 759.36C2407.83 756.24 2406.19 751.95 2406.19 746.49V711.91C2406.19 706.45 2407.83 702.203 2411.13 699.17C2414.51 696.05 2419.23 694.49 2425.3 694.49C2431.36 694.49 2436.04 696.05 2439.34 699.17C2442.72 702.203 2444.41 706.45 2444.41 711.91V746.49C2444.41 751.95 2442.72 756.24 2439.34 759.36C2436.04 762.393 2431.36 763.91 2425.3 763.91ZM2425.3 755.85C2428.07 755.85 2430.24 755.07 2431.8 753.51C2433.44 751.863 2434.27 749.523 2434.27 746.49V711.91C2434.27 708.877 2433.44 706.58 2431.8 705.02C2430.24 703.373 2428.07 702.55 2425.3 702.55C2422.52 702.55 2420.31 703.373 2418.67 705.02C2417.11 706.58 2416.33 708.877 2416.33 711.91V746.49C2416.33 749.523 2417.11 751.863 2418.67 753.51C2420.31 755.07 2422.52 755.85 2425.3 755.85ZM2457.41 695.4H2465.47L2466.64 699.17L2471.97 697.61C2475.61 696.483 2478.47 695.703 2480.55 695.27C2482.72 694.75 2484.75 694.49 2486.66 694.49C2489.78 694.49 2492.08 695.573 2493.55 697.74C2495.02 699.907 2495.76 702.723 2495.76 706.19V763H2485.36V709.57C2485.36 707.057 2485.19 705.323 2484.84 704.37C2484.49 703.33 2483.63 702.81 2482.24 702.81C2481.55 702.81 2476.74 704.197 2467.81 706.97V763H2457.41V695.4Z" fill="#838383"/>
<path d="M851.56 933.16H854.68C860.4 933.16 863.26 929.997 863.26 923.67V851H874.7V924.19C874.7 929.13 873.227 933.333 870.28 936.8C867.333 940.267 863.52 942 858.84 942H851.56V933.16ZM896.072 942.91C892.952 942.91 890.612 941.827 889.052 939.66C887.578 937.493 886.842 934.677 886.842 931.21V874.4H897.242V927.83C897.242 930.257 897.415 931.99 897.762 933.03C898.108 934.07 898.932 934.59 900.232 934.59C900.838 934.59 905.735 933.29 914.922 930.69V874.4H925.322V942H917.912L915.962 937.58C914.575 938.1 913.535 938.447 912.842 938.62C908.768 940.093 905.475 941.177 902.962 941.87C900.448 942.563 898.152 942.91 896.072 942.91ZM940.954 874.4H962.014C966.781 874.4 970.811 875.96 974.104 879.08C977.484 882.2 979.174 886.1 979.174 890.78V925.75C979.174 930.43 977.528 934.33 974.234 937.45C970.941 940.483 966.911 942 962.144 942H951.354V962.8H940.954V874.4ZM959.934 934.33C962.361 934.33 964.441 933.507 966.174 931.86C967.908 930.213 968.774 928.177 968.774 925.75V890.78C968.774 888.353 967.908 886.317 966.174 884.67C964.441 883.023 962.361 882.2 959.934 882.2H951.354V934.33H959.934ZM991.482 863.35V852.95H1001.88V863.35H991.482ZM991.482 942V874.4H1001.88V942H991.482ZM1036.36 942C1031.59 942 1027.82 940.57 1025.05 937.71C1022.27 934.85 1020.89 930.993 1020.89 926.14V882.2H1013.09V874.4H1020.89V854.77L1031.29 850.87V874.4H1041.69V882.2H1031.29V927.05C1031.29 929.13 1031.85 930.863 1032.98 932.25C1034.19 933.55 1035.79 934.2 1037.79 934.2H1041.69V942H1036.36ZM1065.56 942C1060.79 942 1056.98 940.57 1054.12 937.71C1051.34 934.85 1049.96 930.993 1049.96 926.14V891.56C1049.96 885.927 1051.52 881.507 1054.64 878.3C1057.76 875.093 1062.39 873.49 1068.55 873.49C1074.7 873.49 1079.29 875.093 1082.33 878.3C1085.45 881.507 1087.01 885.927 1087.01 891.56V897.54C1087.01 901.18 1085.97 903.953 1083.89 905.86C1081.81 907.68 1079.08 909.067 1075.7 910.02L1060.36 914.31V927.05C1060.36 929.13 1060.96 930.863 1062.18 932.25C1063.48 933.55 1065.12 934.2 1067.12 934.2H1081.16V942H1065.56ZM1068.29 903.91C1071.15 903.13 1073.05 902.567 1074.01 902.22C1075.05 901.787 1075.74 901.18 1076.09 900.4C1076.43 899.62 1076.61 898.32 1076.61 896.5V889.35C1076.61 886.577 1075.87 884.54 1074.4 883.24C1073.01 881.94 1071.06 881.29 1068.55 881.29C1066.12 881.29 1064.13 881.983 1062.57 883.37C1061.09 884.757 1060.36 886.75 1060.36 889.35V906.12L1068.29 903.91ZM1097.36 874.4H1105.42L1106.59 879.21L1109.84 877.65C1112.61 876.263 1114.91 875.223 1116.73 874.53C1118.64 873.837 1120.54 873.49 1122.45 873.49V881.16C1121.32 881.16 1119.81 881.507 1117.9 882.2C1115.99 882.807 1112.61 884.28 1107.76 886.62V942H1097.36V874.4ZM858.45 1042V951H877.56L898.75 1029.65V951H910.32V1042H893.94L869.89 959.32V1042H858.45ZM943.119 1042.91C937.052 1042.91 932.329 1041.39 928.949 1038.36C925.655 1035.24 924.009 1030.95 924.009 1025.49V990.91C924.009 985.45 925.655 981.203 928.949 978.17C932.329 975.05 937.052 973.49 943.119 973.49C949.185 973.49 953.865 975.05 957.159 978.17C960.539 981.203 962.229 985.45 962.229 990.91V1025.49C962.229 1030.95 960.539 1035.24 957.159 1038.36C953.865 1041.39 949.185 1042.91 943.119 1042.91ZM943.119 1034.85C945.892 1034.85 948.059 1034.07 949.619 1032.51C951.265 1030.86 952.089 1028.52 952.089 1025.49V990.91C952.089 987.877 951.265 985.58 949.619 984.02C948.059 982.373 945.892 981.55 943.119 981.55C940.345 981.55 938.135 982.373 936.489 984.02C934.929 985.58 934.149 987.877 934.149 990.91V1025.49C934.149 1028.52 934.929 1030.86 936.489 1032.51C938.135 1034.07 940.345 1034.85 943.119 1034.85ZM994.082 1042C989.315 1042 985.545 1040.57 982.772 1037.71C979.998 1034.85 978.612 1030.99 978.612 1026.14V982.2H970.812V974.4H978.612V954.77L989.012 950.87V974.4H999.412V982.2H989.012V1027.05C989.012 1029.13 989.575 1030.86 990.702 1032.25C991.915 1033.55 993.518 1034.2 995.512 1034.2H999.412V1042H994.082ZM1023.28 1042C1018.52 1042 1014.7 1040.57 1011.84 1037.71C1009.07 1034.85 1007.68 1030.99 1007.68 1026.14V991.56C1007.68 985.927 1009.24 981.507 1012.36 978.3C1015.48 975.093 1020.12 973.49 1026.27 973.49C1032.43 973.49 1037.02 975.093 1040.05 978.3C1043.17 981.507 1044.73 985.927 1044.73 991.56V997.54C1044.73 1001.18 1043.69 1003.95 1041.61 1005.86C1039.53 1007.68 1036.8 1009.07 1033.42 1010.02L1018.08 1014.31V1027.05C1018.08 1029.13 1018.69 1030.86 1019.9 1032.25C1021.2 1033.55 1022.85 1034.2 1024.84 1034.2H1038.88V1042H1023.28ZM1026.01 1003.91C1028.87 1003.13 1030.78 1002.57 1031.73 1002.22C1032.77 1001.79 1033.47 1001.18 1033.81 1000.4C1034.16 999.62 1034.33 998.32 1034.33 996.5V989.35C1034.33 986.577 1033.6 984.54 1032.12 983.24C1030.74 981.94 1028.79 981.29 1026.27 981.29C1023.85 981.29 1021.85 981.983 1020.29 983.37C1018.82 984.757 1018.08 986.75 1018.08 989.35V1006.12L1026.01 1003.91ZM1055.09 951H1065.49V971.28L1082.91 977.39C1085.94 978.43 1088.45 980.25 1090.45 982.85C1092.53 985.363 1093.57 988.483 1093.57 992.21V1025.62C1093.57 1030.3 1091.92 1034.2 1088.63 1037.32C1085.33 1040.44 1081.3 1042 1076.54 1042H1055.09V951ZM1074.33 1034.2C1076.75 1034.2 1078.83 1033.38 1080.57 1031.73C1082.3 1030.08 1083.17 1028.05 1083.17 1025.62V994.29C1083.17 990.997 1082.69 988.613 1081.74 987.14C1080.87 985.58 1079.31 984.453 1077.06 983.76L1065.49 979.86V1034.2H1074.33ZM1122.38 1042.91C1116.31 1042.91 1111.59 1041.39 1108.21 1038.36C1104.91 1035.24 1103.27 1030.95 1103.27 1025.49V990.91C1103.27 985.45 1104.91 981.203 1108.21 978.17C1111.59 975.05 1116.31 973.49 1122.38 973.49C1128.44 973.49 1133.12 975.05 1136.42 978.17C1139.8 981.203 1141.49 985.45 1141.49 990.91V1025.49C1141.49 1030.95 1139.8 1035.24 1136.42 1038.36C1133.12 1041.39 1128.44 1042.91 1122.38 1042.91ZM1122.38 1034.85C1125.15 1034.85 1127.32 1034.07 1128.88 1032.51C1130.52 1030.86 1131.35 1028.52 1131.35 1025.49V990.91C1131.35 987.877 1130.52 985.58 1128.88 984.02C1127.32 982.373 1125.15 981.55 1122.38 981.55C1119.6 981.55 1117.39 982.373 1115.75 984.02C1114.19 985.58 1113.41 987.877 1113.41 990.91V1025.49C1113.41 1028.52 1114.19 1030.86 1115.75 1032.51C1117.39 1034.07 1119.6 1034.85 1122.38 1034.85ZM1171 1042.91C1164.93 1042.91 1160.21 1041.39 1156.83 1038.36C1153.54 1035.24 1151.89 1030.95 1151.89 1025.49V990.91C1151.89 985.45 1153.54 981.203 1156.83 978.17C1160.21 975.05 1164.93 973.49 1171 973.49C1177.07 973.49 1181.75 975.05 1185.04 978.17C1188.42 981.203 1190.11 985.45 1190.11 990.91V1025.49C1190.11 1030.95 1188.42 1035.24 1185.04 1038.36C1181.75 1041.39 1177.07 1042.91 1171 1042.91ZM1171 1034.85C1173.77 1034.85 1175.94 1034.07 1177.5 1032.51C1179.15 1030.86 1179.97 1028.52 1179.97 1025.49V990.91C1179.97 987.877 1179.15 985.58 1177.5 984.02C1175.94 982.373 1173.77 981.55 1171 981.55C1168.23 981.55 1166.02 982.373 1164.37 984.02C1162.81 985.58 1162.03 987.877 1162.03 990.91V1025.49C1162.03 1028.52 1162.81 1030.86 1164.37 1032.51C1166.02 1034.07 1168.23 1034.85 1171 1034.85ZM1202.85 1042V951H1213.25V1001.96L1233.4 974.4H1243.15L1223.91 1001.96L1244.06 1042H1234.31L1217.8 1007.94L1213.25 1014.05V1042H1202.85Z" fill="#838383"/>
<path d="M1216.72 607.56C1211.76 607.56 1207.97 606.307 1205.36 603.8C1202.75 601.24 1201.44 597.693 1201.44 593.16V564.84C1201.44 560.307 1202.75 556.787 1205.36 554.28C1207.97 551.72 1211.76 550.44 1216.72 550.44C1221.73 550.44 1225.55 551.72 1228.16 554.28C1230.77 556.787 1232.08 560.307 1232.08 564.84V593.16C1232.08 597.693 1230.77 601.24 1228.16 603.8C1225.55 606.307 1221.73 607.56 1216.72 607.56ZM1216.72 602.28C1219.07 602.28 1221.04 601.613 1222.64 600.28C1224.24 598.893 1225.04 596.973 1225.04 594.52V563.48C1225.04 561.027 1224.24 559.133 1222.64 557.8C1221.04 556.413 1219.07 555.72 1216.72 555.72C1214.37 555.72 1212.4 556.413 1210.8 557.8C1209.25 559.133 1208.48 561.027 1208.48 563.48V594.52C1208.48 596.973 1209.25 598.893 1210.8 600.28C1212.4 601.613 1214.37 602.28 1216.72 602.28ZM1240.3 551H1246.7V563.48L1257.42 567.24C1259.29 567.88 1260.83 569 1262.06 570.6C1263.34 572.147 1263.98 574.067 1263.98 576.36V596.92C1263.98 599.8 1262.97 602.2 1260.94 604.12C1258.91 606.04 1256.43 607 1253.5 607H1240.3V551ZM1252.14 602.2C1253.63 602.2 1254.91 601.693 1255.98 600.68C1257.05 599.667 1257.58 598.413 1257.58 596.92V577.64C1257.58 575.613 1257.29 574.147 1256.7 573.24C1256.17 572.28 1255.21 571.587 1253.82 571.16L1246.7 568.76V602.2H1252.14ZM1269.15 602.2H1275.95C1278.24 602.2 1279.9 601.587 1280.91 600.36C1281.98 599.08 1282.51 597.427 1282.51 595.4C1282.51 593.8 1282.03 592.44 1281.07 591.32C1280.11 590.2 1278.67 588.893 1276.75 587.4C1275.1 586.067 1273.76 584.92 1272.75 583.96C1271.79 582.947 1270.94 581.72 1270.19 580.28C1269.5 578.787 1269.15 577.08 1269.15 575.16C1269.15 572.333 1270.08 570.013 1271.95 568.2C1273.87 566.333 1276.43 565.4 1279.63 565.4H1286.59V570.2H1280.83C1277.04 570.2 1275.15 571.987 1275.15 575.56C1275.15 576.947 1275.58 578.147 1276.43 579.16C1277.28 580.173 1278.62 581.373 1280.43 582.76C1282.08 584.04 1283.44 585.213 1284.51 586.28C1285.58 587.293 1286.48 588.6 1287.23 590.2C1287.98 591.747 1288.35 593.587 1288.35 595.72C1288.35 599.507 1287.34 602.333 1285.31 604.2C1283.34 606.067 1280.54 607 1276.91 607H1269.15V602.2ZM1303.85 607C1300.92 607 1298.57 606.12 1296.81 604.36C1295.11 602.6 1294.25 600.227 1294.25 597.24V575.96C1294.25 572.493 1295.21 569.773 1297.13 567.8C1299.05 565.827 1301.91 564.84 1305.69 564.84C1309.48 564.84 1312.31 565.827 1314.17 567.8C1316.09 569.773 1317.05 572.493 1317.05 575.96V579.64C1317.05 581.88 1316.41 583.587 1315.13 584.76C1313.85 585.88 1312.17 586.733 1310.09 587.32L1300.65 589.96V597.8C1300.65 599.08 1301.03 600.147 1301.77 601C1302.57 601.8 1303.59 602.2 1304.81 602.2H1313.45V607H1303.85ZM1305.53 583.56C1307.29 583.08 1308.47 582.733 1309.05 582.52C1309.69 582.253 1310.12 581.88 1310.33 581.4C1310.55 580.92 1310.65 580.12 1310.65 579V574.6C1310.65 572.893 1310.2 571.64 1309.29 570.84C1308.44 570.04 1307.24 569.64 1305.69 569.64C1304.2 569.64 1302.97 570.067 1302.01 570.92C1301.11 571.773 1300.65 573 1300.65 574.6V584.92L1305.53 583.56ZM1323.43 565.4H1328.39L1329.11 568.36L1331.11 567.4C1332.81 566.547 1334.23 565.907 1335.35 565.48C1336.52 565.053 1337.69 564.84 1338.87 564.84V569.56C1338.17 569.56 1337.24 569.773 1336.07 570.2C1334.89 570.573 1332.81 571.48 1329.83 572.92V607H1323.43V565.4ZM1350.75 607L1341.23 565.4H1347.87L1354.03 598.92L1360.11 565.4H1366.75L1357.23 607H1350.75ZM1381.2 607C1379.28 607 1377.5 606.52 1375.84 605.56C1374.24 604.6 1372.96 603.293 1372 601.64C1371.1 599.987 1370.64 598.12 1370.64 596.04V591.88C1370.64 589.373 1371.26 587.267 1372.48 585.56C1373.76 583.853 1375.34 582.653 1377.2 581.96L1387.12 578.28V574.52C1387.12 573.24 1386.72 572.2 1385.92 571.4C1385.18 570.547 1384.19 570.12 1382.96 570.12H1373.92V565.4H1383.52C1386.46 565.4 1388.78 566.28 1390.48 568.04C1392.24 569.747 1393.12 572.093 1393.12 575.08V607H1381.2ZM1387.12 602.12V583.32L1380.08 585.96C1378.7 586.493 1377.71 587.213 1377.12 588.12C1376.59 589.027 1376.32 590.467 1376.32 592.44V596.92C1376.32 598.36 1376.86 599.587 1377.92 600.6C1378.99 601.613 1380.27 602.12 1381.76 602.12H1387.12ZM1401.94 551H1408.34V563.48L1419.06 567.24C1420.93 567.88 1422.47 569 1423.7 570.6C1424.98 572.147 1425.62 574.067 1425.62 576.36V596.92C1425.62 599.8 1424.61 602.2 1422.58 604.12C1420.55 606.04 1418.07 607 1415.14 607H1401.94V551ZM1413.78 602.2C1415.27 602.2 1416.55 601.693 1417.62 600.68C1418.69 599.667 1419.22 598.413 1419.22 596.92V577.64C1419.22 575.613 1418.93 574.147 1418.34 573.24C1417.81 572.28 1416.85 571.587 1415.46 571.16L1408.34 568.76V602.2H1413.78ZM1433.27 607V551H1439.67V607H1433.27ZM1457.53 607C1454.59 607 1452.25 606.12 1450.49 604.36C1448.78 602.6 1447.93 600.227 1447.93 597.24V575.96C1447.93 572.493 1448.89 569.773 1450.81 567.8C1452.73 565.827 1455.58 564.84 1459.37 564.84C1463.15 564.84 1465.98 565.827 1467.85 567.8C1469.77 569.773 1470.73 572.493 1470.73 575.96V579.64C1470.73 581.88 1470.09 583.587 1468.81 584.76C1467.53 585.88 1465.85 586.733 1463.77 587.32L1454.33 589.96V597.8C1454.33 599.08 1454.7 600.147 1455.45 601C1456.25 601.8 1457.26 602.2 1458.49 602.2H1467.13V607H1457.53ZM1459.21 583.56C1460.97 583.08 1462.14 582.733 1462.73 582.52C1463.37 582.253 1463.79 581.88 1464.01 581.4C1464.22 580.92 1464.33 580.12 1464.33 579V574.6C1464.33 572.893 1463.87 571.64 1462.97 570.84C1462.11 570.04 1460.91 569.64 1459.37 569.64C1457.87 569.64 1456.65 570.067 1455.69 570.92C1454.78 571.773 1454.33 573 1454.33 574.6V584.92L1459.21 583.56Z" fill="white"/>
<path d="M545 1452V1186H893.803L951 1243.45V1452H545Z" stroke="white" stroke-width="4"/>
<path d="M626.72 1307C621.867 1307 618.107 1305.77 615.44 1303.32C612.773 1300.87 611.44 1297.27 611.44 1292.52V1265.4C611.44 1260.71 612.88 1257.13 615.76 1254.68C618.64 1252.23 622.56 1251 627.52 1251H639.28V1256.36H626.72C624.267 1256.36 622.267 1257.08 620.72 1258.52C619.227 1259.91 618.48 1261.77 618.48 1264.12V1293.96C618.48 1296.36 619.2 1298.25 620.64 1299.64C622.08 1301.03 624 1301.72 626.4 1301.72H633.84V1279.72H626.64V1274.44H640.88V1307H626.72ZM659.835 1307.56C656.102 1307.56 653.195 1306.63 651.115 1304.76C649.088 1302.84 648.075 1300.2 648.075 1296.84V1275.56C648.075 1272.2 649.088 1269.59 651.115 1267.72C653.195 1265.8 656.102 1264.84 659.835 1264.84C663.568 1264.84 666.448 1265.8 668.475 1267.72C670.555 1269.59 671.595 1272.2 671.595 1275.56V1296.84C671.595 1300.2 670.555 1302.84 668.475 1304.76C666.448 1306.63 663.568 1307.56 659.835 1307.56ZM659.835 1302.6C661.542 1302.6 662.875 1302.12 663.835 1301.16C664.848 1300.15 665.355 1298.71 665.355 1296.84V1275.56C665.355 1273.69 664.848 1272.28 663.835 1271.32C662.875 1270.31 661.542 1269.8 659.835 1269.8C658.128 1269.8 656.768 1270.31 655.755 1271.32C654.795 1272.28 654.315 1273.69 654.315 1275.56V1296.84C654.315 1298.71 654.795 1300.15 655.755 1301.16C656.768 1302.12 658.128 1302.6 659.835 1302.6ZM689.757 1307.56C686.024 1307.56 683.117 1306.63 681.037 1304.76C679.01 1302.84 677.997 1300.2 677.997 1296.84V1275.56C677.997 1272.2 679.01 1269.59 681.037 1267.72C683.117 1265.8 686.024 1264.84 689.757 1264.84C693.49 1264.84 696.37 1265.8 698.397 1267.72C700.477 1269.59 701.517 1272.2 701.517 1275.56V1296.84C701.517 1300.2 700.477 1302.84 698.397 1304.76C696.37 1306.63 693.49 1307.56 689.757 1307.56ZM689.757 1302.6C691.464 1302.6 692.797 1302.12 693.757 1301.16C694.77 1300.15 695.277 1298.71 695.277 1296.84V1275.56C695.277 1273.69 694.77 1272.28 693.757 1271.32C692.797 1270.31 691.464 1269.8 689.757 1269.8C688.05 1269.8 686.69 1270.31 685.677 1271.32C684.717 1272.28 684.237 1273.69 684.237 1275.56V1296.84C684.237 1298.71 684.717 1300.15 685.677 1301.16C686.69 1302.12 688.05 1302.6 689.757 1302.6ZM712.879 1315H721.119C722.345 1315 723.305 1314.57 723.999 1313.72C724.745 1312.92 725.119 1311.88 725.119 1310.6V1307.08H718.479C715.545 1307.08 713.065 1306.12 711.039 1304.2C709.012 1302.28 707.999 1299.88 707.999 1297V1275.48C707.999 1272.6 709.012 1270.2 711.039 1268.28C713.119 1266.36 715.625 1265.4 718.559 1265.4H731.599V1310.04C731.599 1313.03 730.772 1315.4 729.119 1317.16C727.519 1318.92 725.252 1319.8 722.319 1319.8H712.879V1315ZM725.199 1302.28V1270.2H719.839C718.345 1270.2 717.065 1270.71 715.999 1271.72C714.932 1272.73 714.399 1273.99 714.399 1275.48V1297C714.399 1298.49 714.932 1299.75 715.999 1300.76C717.065 1301.77 718.345 1302.28 719.839 1302.28H725.199ZM740.458 1307V1251H746.858V1307H740.458ZM764.714 1307C761.78 1307 759.434 1306.12 757.674 1304.36C755.967 1302.6 755.114 1300.23 755.114 1297.24V1275.96C755.114 1272.49 756.074 1269.77 757.994 1267.8C759.914 1265.83 762.767 1264.84 766.554 1264.84C770.34 1264.84 773.167 1265.83 775.034 1267.8C776.954 1269.77 777.914 1272.49 777.914 1275.96V1279.64C777.914 1281.88 777.274 1283.59 775.994 1284.76C774.714 1285.88 773.034 1286.73 770.954 1287.32L761.514 1289.96V1297.8C761.514 1299.08 761.887 1300.15 762.634 1301C763.434 1301.8 764.447 1302.2 765.674 1302.2H774.314V1307H764.714ZM766.394 1283.56C768.154 1283.08 769.327 1282.73 769.914 1282.52C770.554 1282.25 770.98 1281.88 771.194 1281.4C771.407 1280.92 771.514 1280.12 771.514 1279V1274.6C771.514 1272.89 771.06 1271.64 770.154 1270.84C769.3 1270.04 768.1 1269.64 766.554 1269.64C765.06 1269.64 763.834 1270.07 762.874 1270.92C761.967 1271.77 761.514 1273 761.514 1274.6V1284.92L766.394 1283.56ZM626.72 1387C621.867 1387 618.107 1385.77 615.44 1383.32C612.773 1380.87 611.44 1377.27 611.44 1372.52V1345.48C611.44 1340.73 612.773 1337.13 615.44 1334.68C618.107 1332.23 621.867 1331 626.72 1331H637.44V1336.28H626.72C624.267 1336.28 622.267 1337 620.72 1338.44C619.227 1339.83 618.48 1341.69 618.48 1344.04V1373.96C618.48 1376.31 619.227 1378.2 620.72 1379.64C622.267 1381.03 624.267 1381.72 626.72 1381.72H637.44V1387H626.72ZM653.976 1387.56C650.242 1387.56 647.336 1386.63 645.256 1384.76C643.229 1382.84 642.216 1380.2 642.216 1376.84V1355.56C642.216 1352.2 643.229 1349.59 645.256 1347.72C647.336 1345.8 650.242 1344.84 653.976 1344.84C657.709 1344.84 660.589 1345.8 662.616 1347.72C664.696 1349.59 665.736 1352.2 665.736 1355.56V1376.84C665.736 1380.2 664.696 1382.84 662.616 1384.76C660.589 1386.63 657.709 1387.56 653.976 1387.56ZM653.976 1382.6C655.682 1382.6 657.016 1382.12 657.976 1381.16C658.989 1380.15 659.496 1378.71 659.496 1376.84V1355.56C659.496 1353.69 658.989 1352.28 657.976 1351.32C657.016 1350.31 655.682 1349.8 653.976 1349.8C652.269 1349.8 650.909 1350.31 649.896 1351.32C648.936 1352.28 648.456 1353.69 648.456 1355.56V1376.84C648.456 1378.71 648.936 1380.15 649.896 1381.16C650.909 1382.12 652.269 1382.6 653.976 1382.6ZM673.818 1387V1331H680.218V1387H673.818ZM698.233 1387C696.313 1387 694.526 1386.52 692.873 1385.56C691.273 1384.6 689.993 1383.29 689.033 1381.64C688.126 1379.99 687.673 1378.12 687.673 1376.04V1371.88C687.673 1369.37 688.286 1367.27 689.513 1365.56C690.793 1363.85 692.366 1362.65 694.233 1361.96L704.153 1358.28V1354.52C704.153 1353.24 703.753 1352.2 702.953 1351.4C702.206 1350.55 701.22 1350.12 699.993 1350.12H690.953V1345.4H700.553C703.486 1345.4 705.806 1346.28 707.513 1348.04C709.273 1349.75 710.153 1352.09 710.153 1355.08V1387H698.233ZM704.153 1382.12V1363.32L697.113 1365.96C695.726 1366.49 694.74 1367.21 694.153 1368.12C693.62 1369.03 693.353 1370.47 693.353 1372.44V1376.92C693.353 1378.36 693.886 1379.59 694.953 1380.6C696.02 1381.61 697.3 1382.12 698.793 1382.12H704.153ZM718.972 1331H725.372V1343.48L736.092 1347.24C737.959 1347.88 739.505 1349 740.732 1350.6C742.012 1352.15 742.652 1354.07 742.652 1356.36V1376.92C742.652 1379.8 741.639 1382.2 739.612 1384.12C737.585 1386.04 735.105 1387 732.172 1387H718.972V1331ZM730.812 1382.2C732.305 1382.2 733.585 1381.69 734.652 1380.68C735.719 1379.67 736.252 1378.41 736.252 1376.92V1357.64C736.252 1355.61 735.959 1354.15 735.372 1353.24C734.839 1352.28 733.879 1351.59 732.492 1351.16L725.372 1348.76V1382.2H730.812Z" fill="white"/>
<path d="M1202 1462V1196H1550.8L1608 1253.45V1462H1202Z" stroke="white" stroke-width="4"/>
<path d="M1270.2 1317V1261H1281.96L1295 1309.4V1261H1302.12V1317H1292.04L1277.24 1266.12V1317H1270.2ZM1320.46 1317C1317.53 1317 1315.18 1316.12 1313.42 1314.36C1311.72 1312.6 1310.86 1310.23 1310.86 1307.24V1285.96C1310.86 1282.49 1311.82 1279.77 1313.74 1277.8C1315.66 1275.83 1318.52 1274.84 1322.3 1274.84C1326.09 1274.84 1328.92 1275.83 1330.78 1277.8C1332.7 1279.77 1333.66 1282.49 1333.66 1285.96V1289.64C1333.66 1291.88 1333.02 1293.59 1331.74 1294.76C1330.46 1295.88 1328.78 1296.73 1326.7 1297.32L1317.26 1299.96V1307.8C1317.26 1309.08 1317.64 1310.15 1318.38 1311C1319.18 1311.8 1320.2 1312.2 1321.42 1312.2H1330.06V1317H1320.46ZM1322.14 1293.56C1323.9 1293.08 1325.08 1292.73 1325.66 1292.52C1326.3 1292.25 1326.73 1291.88 1326.94 1291.4C1327.16 1290.92 1327.26 1290.12 1327.26 1289V1284.6C1327.26 1282.89 1326.81 1281.64 1325.9 1280.84C1325.05 1280.04 1323.85 1279.64 1322.3 1279.64C1320.81 1279.64 1319.58 1280.07 1318.62 1280.92C1317.72 1281.77 1317.26 1283 1317.26 1284.6V1294.92L1322.14 1293.56ZM1336.03 1317L1347.55 1296.12L1336.83 1275.4H1342.99L1350.51 1290.12L1358.11 1275.4H1364.27L1353.55 1296.12L1365.07 1317H1358.35L1350.51 1301.8L1342.75 1317H1336.03ZM1381.87 1317C1378.94 1317 1376.62 1316.12 1374.91 1314.36C1373.2 1312.6 1372.35 1310.23 1372.35 1307.24V1280.2H1367.55V1275.4H1372.35V1263.32L1378.75 1260.92V1275.4H1385.15V1280.2H1378.75V1307.8C1378.75 1309.08 1379.1 1310.15 1379.79 1311C1380.54 1311.8 1381.52 1312.2 1382.75 1312.2H1385.15V1317H1381.87ZM1265.96 1391.56H1267.88C1271.4 1391.56 1273.16 1389.61 1273.16 1385.72V1341H1280.2V1386.04C1280.2 1389.08 1279.29 1391.67 1277.48 1393.8C1275.67 1395.93 1273.32 1397 1270.44 1397H1265.96V1391.56ZM1298.63 1397.56C1294.9 1397.56 1291.99 1396.63 1289.91 1394.76C1287.89 1392.84 1286.87 1390.2 1286.87 1386.84V1365.56C1286.87 1362.2 1287.89 1359.59 1289.91 1357.72C1291.99 1355.8 1294.9 1354.84 1298.63 1354.84C1302.37 1354.84 1305.25 1355.8 1307.27 1357.72C1309.35 1359.59 1310.39 1362.2 1310.39 1365.56V1386.84C1310.39 1390.2 1309.35 1392.84 1307.27 1394.76C1305.25 1396.63 1302.37 1397.56 1298.63 1397.56ZM1298.63 1392.6C1300.34 1392.6 1301.67 1392.12 1302.63 1391.16C1303.65 1390.15 1304.15 1388.71 1304.15 1386.84V1365.56C1304.15 1363.69 1303.65 1362.28 1302.63 1361.32C1301.67 1360.31 1300.34 1359.8 1298.63 1359.8C1296.93 1359.8 1295.57 1360.31 1294.55 1361.32C1293.59 1362.28 1293.11 1363.69 1293.11 1365.56V1386.84C1293.11 1388.71 1293.59 1390.15 1294.55 1391.16C1295.57 1392.12 1296.93 1392.6 1298.63 1392.6ZM1323.27 1397.56C1321.35 1397.56 1319.91 1396.89 1318.95 1395.56C1318.05 1394.23 1317.59 1392.49 1317.59 1390.36V1355.4H1323.99V1388.28C1323.99 1389.77 1324.1 1390.84 1324.31 1391.48C1324.53 1392.12 1325.03 1392.44 1325.83 1392.44C1326.21 1392.44 1329.22 1391.64 1334.87 1390.04V1355.4H1341.27V1397H1336.71L1335.51 1394.28C1334.66 1394.6 1334.02 1394.81 1333.59 1394.92C1331.09 1395.83 1329.06 1396.49 1327.51 1396.92C1325.97 1397.35 1324.55 1397.56 1323.27 1397.56ZM1350.89 1355.4H1355.85L1356.57 1358.36L1358.57 1357.4C1360.28 1356.55 1361.69 1355.91 1362.81 1355.48C1363.99 1355.05 1365.16 1354.84 1366.33 1354.84V1359.56C1365.64 1359.56 1364.71 1359.77 1363.53 1360.2C1362.36 1360.57 1360.28 1361.48 1357.29 1362.92V1397H1350.89V1355.4ZM1372.3 1355.4H1377.26L1377.98 1357.72L1381.26 1356.76C1383.5 1356.07 1385.26 1355.59 1386.54 1355.32C1387.87 1355 1389.13 1354.84 1390.3 1354.84C1392.22 1354.84 1393.63 1355.51 1394.54 1356.84C1395.45 1358.17 1395.9 1359.91 1395.9 1362.04V1397H1389.5V1364.12C1389.5 1362.57 1389.39 1361.51 1389.18 1360.92C1388.97 1360.28 1388.43 1359.96 1387.58 1359.96C1387.15 1359.96 1384.19 1360.81 1378.7 1362.52V1397H1372.3V1355.4ZM1413.28 1397C1411.36 1397 1409.57 1396.52 1407.92 1395.56C1406.32 1394.6 1405.04 1393.29 1404.08 1391.64C1403.17 1389.99 1402.72 1388.12 1402.72 1386.04V1381.88C1402.72 1379.37 1403.33 1377.27 1404.56 1375.56C1405.84 1373.85 1407.41 1372.65 1409.28 1371.96L1419.2 1368.28V1364.52C1419.2 1363.24 1418.8 1362.2 1418 1361.4C1417.25 1360.55 1416.27 1360.12 1415.04 1360.12H1406V1355.4H1415.6C1418.53 1355.4 1420.85 1356.28 1422.56 1358.04C1424.32 1359.75 1425.2 1362.09 1425.2 1365.08V1397H1413.28ZM1419.2 1392.12V1373.32L1412.16 1375.96C1410.77 1376.49 1409.79 1377.21 1409.2 1378.12C1408.67 1379.03 1408.4 1380.47 1408.4 1382.44V1386.92C1408.4 1388.36 1408.93 1389.59 1410 1390.6C1411.07 1391.61 1412.35 1392.12 1413.84 1392.12H1419.2ZM1434.1 1397V1341H1440.5V1397H1434.1Z" fill="white"/>
<path d="M2125.84 1546V1490H2149.44V1495.44H2132.88V1514.64H2145.36V1520.08H2132.88V1546H2125.84ZM2164.14 1546C2161.2 1546 2158.86 1545.12 2157.1 1543.36C2155.39 1541.6 2154.54 1539.23 2154.54 1536.24V1514.96C2154.54 1511.49 2155.5 1508.77 2157.42 1506.8C2159.34 1504.83 2162.19 1503.84 2165.98 1503.84C2169.76 1503.84 2172.59 1504.83 2174.46 1506.8C2176.38 1508.77 2177.34 1511.49 2177.34 1514.96V1518.64C2177.34 1520.88 2176.7 1522.59 2175.42 1523.76C2174.14 1524.88 2172.46 1525.73 2170.38 1526.32L2160.94 1528.96V1536.8C2160.94 1538.08 2161.31 1539.15 2162.06 1540C2162.86 1540.8 2163.87 1541.2 2165.1 1541.2H2173.74V1546H2164.14ZM2165.82 1522.56C2167.58 1522.08 2168.75 1521.73 2169.34 1521.52C2169.98 1521.25 2170.4 1520.88 2170.62 1520.4C2170.83 1519.92 2170.94 1519.12 2170.94 1518V1513.6C2170.94 1511.89 2170.48 1510.64 2169.58 1509.84C2168.72 1509.04 2167.52 1508.64 2165.98 1508.64C2164.48 1508.64 2163.26 1509.07 2162.3 1509.92C2161.39 1510.77 2160.94 1512 2160.94 1513.6V1523.92L2165.82 1522.56ZM2183.71 1504.4H2188.67L2189.39 1507.36L2191.39 1506.4C2193.09 1505.55 2194.51 1504.91 2195.63 1504.48C2196.8 1504.05 2197.97 1503.84 2199.15 1503.84V1508.56C2198.45 1508.56 2197.52 1508.77 2196.35 1509.2C2195.17 1509.57 2193.09 1510.48 2190.11 1511.92V1546H2183.71V1504.4ZM2205.11 1504.4H2210.07L2210.79 1507.36L2212.79 1506.4C2214.5 1505.55 2215.91 1504.91 2217.03 1504.48C2218.21 1504.05 2219.38 1503.84 2220.55 1503.84V1508.56C2219.86 1508.56 2218.93 1508.77 2217.75 1509.2C2216.58 1509.57 2214.5 1510.48 2211.51 1511.92V1546H2205.11V1504.4ZM2235 1546C2233.08 1546 2231.29 1545.52 2229.64 1544.56C2228.04 1543.6 2226.76 1542.29 2225.8 1540.64C2224.89 1538.99 2224.44 1537.12 2224.44 1535.04V1530.88C2224.44 1528.37 2225.05 1526.27 2226.28 1524.56C2227.56 1522.85 2229.13 1521.65 2231 1520.96L2240.92 1517.28V1513.52C2240.92 1512.24 2240.52 1511.2 2239.72 1510.4C2238.97 1509.55 2237.99 1509.12 2236.76 1509.12H2227.72V1504.4H2237.32C2240.25 1504.4 2242.57 1505.28 2244.28 1507.04C2246.04 1508.75 2246.92 1511.09 2246.92 1514.08V1546H2235ZM2240.92 1541.12V1522.32L2233.88 1524.96C2232.49 1525.49 2231.51 1526.21 2230.92 1527.12C2230.39 1528.03 2230.12 1529.47 2230.12 1531.44V1535.92C2230.12 1537.36 2230.65 1538.59 2231.72 1539.6C2232.79 1540.61 2234.07 1541.12 2235.56 1541.12H2240.92ZM2255.74 1504.4H2260.7L2261.42 1506.72L2264.7 1505.76C2266.94 1505.07 2268.7 1504.59 2269.98 1504.32C2271.31 1504 2272.56 1503.84 2273.74 1503.84C2276.03 1503.84 2277.63 1504.85 2278.54 1506.88C2280.03 1506.35 2282.14 1505.71 2284.86 1504.96C2287.58 1504.21 2289.58 1503.84 2290.86 1503.84C2292.78 1503.84 2294.19 1504.51 2295.1 1505.84C2296.06 1507.17 2296.54 1508.91 2296.54 1511.04V1546H2290.14V1513.12C2290.14 1511.57 2290.03 1510.51 2289.82 1509.92C2289.6 1509.28 2289.07 1508.96 2288.22 1508.96C2287.79 1508.96 2284.86 1509.81 2279.42 1511.52V1546H2273.02V1513.12C2273.02 1511.57 2272.91 1510.51 2272.7 1509.92C2272.48 1509.28 2271.95 1508.96 2271.1 1508.96C2270.67 1508.96 2267.68 1509.81 2262.14 1511.52V1546H2255.74V1504.4ZM2313.67 1546C2310.73 1546 2308.39 1545.12 2306.63 1543.36C2304.92 1541.6 2304.07 1539.23 2304.07 1536.24V1514.96C2304.07 1511.49 2305.03 1508.77 2306.95 1506.8C2308.87 1504.83 2311.72 1503.84 2315.51 1503.84C2319.29 1503.84 2322.12 1504.83 2323.99 1506.8C2325.91 1508.77 2326.87 1511.49 2326.87 1514.96V1518.64C2326.87 1520.88 2326.23 1522.59 2324.95 1523.76C2323.67 1524.88 2321.99 1525.73 2319.91 1526.32L2310.47 1528.96V1536.8C2310.47 1538.08 2310.84 1539.15 2311.59 1540C2312.39 1540.8 2313.4 1541.2 2314.63 1541.2H2323.27V1546H2313.67ZM2315.35 1522.56C2317.11 1522.08 2318.28 1521.73 2318.87 1521.52C2319.51 1521.25 2319.93 1520.88 2320.15 1520.4C2320.36 1519.92 2320.47 1519.12 2320.47 1518V1513.6C2320.47 1511.89 2320.01 1510.64 2319.11 1509.84C2318.25 1509.04 2317.05 1508.64 2315.51 1508.64C2314.01 1508.64 2312.79 1509.07 2311.83 1509.92C2310.92 1510.77 2310.47 1512 2310.47 1513.6V1523.92L2315.35 1522.56ZM2333.24 1504.4H2338.2L2338.92 1506.72L2342.2 1505.76C2344.44 1505.07 2346.2 1504.59 2347.48 1504.32C2348.81 1504 2350.06 1503.84 2351.24 1503.84C2353.16 1503.84 2354.57 1504.51 2355.48 1505.84C2356.38 1507.17 2356.84 1508.91 2356.84 1511.04V1546H2350.44V1513.12C2350.44 1511.57 2350.33 1510.51 2350.12 1509.92C2349.9 1509.28 2349.37 1508.96 2348.52 1508.96C2348.09 1508.96 2345.13 1509.81 2339.64 1511.52V1546H2333.24V1504.4ZM2377.34 1546C2374.4 1546 2372.08 1545.12 2370.38 1543.36C2368.67 1541.6 2367.82 1539.23 2367.82 1536.24V1509.2H2363.02V1504.4H2367.82V1492.32L2374.22 1489.92V1504.4H2380.62V1509.2H2374.22V1536.8C2374.22 1538.08 2374.56 1539.15 2375.26 1540C2376 1540.8 2376.99 1541.2 2378.22 1541.2H2380.62V1546H2377.34ZM2395.47 1546C2393.55 1546 2391.76 1545.52 2390.11 1544.56C2388.51 1543.6 2387.23 1542.29 2386.27 1540.64C2385.36 1538.99 2384.91 1537.12 2384.91 1535.04V1530.88C2384.91 1528.37 2385.52 1526.27 2386.75 1524.56C2388.03 1522.85 2389.6 1521.65 2391.47 1520.96L2401.39 1517.28V1513.52C2401.39 1512.24 2400.99 1511.2 2400.19 1510.4C2399.44 1509.55 2398.45 1509.12 2397.23 1509.12H2388.19V1504.4H2397.79C2400.72 1504.4 2403.04 1505.28 2404.75 1507.04C2406.51 1508.75 2407.39 1511.09 2407.39 1514.08V1546H2395.47ZM2401.39 1541.12V1522.32L2394.35 1524.96C2392.96 1525.49 2391.97 1526.21 2391.39 1527.12C2390.85 1528.03 2390.59 1529.47 2390.59 1531.44V1535.92C2390.59 1537.36 2391.12 1538.59 2392.19 1539.6C2393.25 1540.61 2394.53 1541.12 2396.03 1541.12H2401.39ZM2413.81 1541.2H2420.61C2422.9 1541.2 2424.55 1540.59 2425.57 1539.36C2426.63 1538.08 2427.17 1536.43 2427.17 1534.4C2427.17 1532.8 2426.69 1531.44 2425.73 1530.32C2424.77 1529.2 2423.33 1527.89 2421.41 1526.4C2419.75 1525.07 2418.42 1523.92 2417.41 1522.96C2416.45 1521.95 2415.59 1520.72 2414.85 1519.28C2414.15 1517.79 2413.81 1516.08 2413.81 1514.16C2413.81 1511.33 2414.74 1509.01 2416.61 1507.2C2418.53 1505.33 2421.09 1504.4 2424.29 1504.4H2431.25V1509.2H2425.49C2421.7 1509.2 2419.81 1510.99 2419.81 1514.56C2419.81 1515.95 2420.23 1517.15 2421.09 1518.16C2421.94 1519.17 2423.27 1520.37 2425.09 1521.76C2426.74 1523.04 2428.1 1524.21 2429.17 1525.28C2430.23 1526.29 2431.14 1527.6 2431.89 1529.2C2432.63 1530.75 2433.01 1532.59 2433.01 1534.72C2433.01 1538.51 2431.99 1541.33 2429.97 1543.2C2427.99 1545.07 2425.19 1546 2421.57 1546H2413.81V1541.2ZM2462.78 1546C2459.42 1546 2456.7 1545.01 2454.62 1543.04C2452.54 1541.07 2451.5 1538.43 2451.5 1535.12V1515.2C2451.5 1512.91 2452.12 1510.96 2453.34 1509.36C2454.62 1507.76 2456.2 1506.67 2458.06 1506.08L2468.78 1502.32V1490H2475.18V1546H2462.78ZM2468.78 1541.2V1507.6L2461.66 1510C2460.28 1510.43 2459.29 1511.12 2458.7 1512.08C2458.17 1512.99 2457.9 1514.45 2457.9 1516.48V1535.12C2457.9 1537.04 2458.46 1538.53 2459.58 1539.6C2460.7 1540.67 2462.22 1541.2 2464.14 1541.2H2468.78ZM2493.12 1546C2490.19 1546 2487.84 1545.12 2486.08 1543.36C2484.37 1541.6 2483.52 1539.23 2483.52 1536.24V1514.96C2483.52 1511.49 2484.48 1508.77 2486.4 1506.8C2488.32 1504.83 2491.17 1503.84 2494.96 1503.84C2498.75 1503.84 2501.57 1504.83 2503.44 1506.8C2505.36 1508.77 2506.32 1511.49 2506.32 1514.96V1518.64C2506.32 1520.88 2505.68 1522.59 2504.4 1523.76C2503.12 1524.88 2501.44 1525.73 2499.36 1526.32L2489.92 1528.96V1536.8C2489.92 1538.08 2490.29 1539.15 2491.04 1540C2491.84 1540.8 2492.85 1541.2 2494.08 1541.2H2502.72V1546H2493.12ZM2494.8 1522.56C2496.56 1522.08 2497.73 1521.73 2498.32 1521.52C2498.96 1521.25 2499.39 1520.88 2499.6 1520.4C2499.81 1519.92 2499.92 1519.12 2499.92 1518V1513.6C2499.92 1511.89 2499.47 1510.64 2498.56 1509.84C2497.71 1509.04 2496.51 1508.64 2494.96 1508.64C2493.47 1508.64 2492.24 1509.07 2491.28 1509.92C2490.37 1510.77 2489.92 1512 2489.92 1513.6V1523.92L2494.8 1522.56ZM2533.2 1546C2531.28 1546 2529.5 1545.52 2527.84 1544.56C2526.24 1543.6 2524.96 1542.29 2524 1540.64C2523.1 1538.99 2522.64 1537.12 2522.64 1535.04V1530.88C2522.64 1528.37 2523.26 1526.27 2524.48 1524.56C2525.76 1522.85 2527.34 1521.65 2529.2 1520.96L2539.12 1517.28V1513.52C2539.12 1512.24 2538.72 1511.2 2537.92 1510.4C2537.18 1509.55 2536.19 1509.12 2534.96 1509.12H2525.92V1504.4H2535.52C2538.46 1504.4 2540.78 1505.28 2542.48 1507.04C2544.24 1508.75 2545.12 1511.09 2545.12 1514.08V1546H2533.2ZM2539.12 1541.12V1522.32L2532.08 1524.96C2530.7 1525.49 2529.71 1526.21 2529.12 1527.12C2528.59 1528.03 2528.32 1529.47 2528.32 1531.44V1535.92C2528.32 1537.36 2528.86 1538.59 2529.92 1539.6C2530.99 1540.61 2532.27 1541.12 2533.76 1541.12H2539.12ZM2553.94 1504.4H2558.9L2559.62 1506.72L2562.9 1505.76C2565.14 1505.07 2566.9 1504.59 2568.18 1504.32C2569.51 1504 2570.77 1503.84 2571.94 1503.84C2573.86 1503.84 2575.27 1504.51 2576.18 1505.84C2577.09 1507.17 2577.54 1508.91 2577.54 1511.04V1546H2571.14V1513.12C2571.14 1511.57 2571.03 1510.51 2570.82 1509.92C2570.61 1509.28 2570.07 1508.96 2569.22 1508.96C2568.79 1508.96 2565.83 1509.81 2560.34 1511.52V1546H2553.94V1504.4ZM2596.6 1546.56C2592.87 1546.56 2589.96 1545.63 2587.88 1543.76C2585.85 1541.84 2584.84 1539.2 2584.84 1535.84V1514.56C2584.84 1511.2 2585.85 1508.59 2587.88 1506.72C2589.96 1504.8 2592.87 1503.84 2596.6 1503.84C2600.33 1503.84 2603.21 1504.8 2605.24 1506.72C2607.32 1508.59 2608.36 1511.2 2608.36 1514.56V1535.84C2608.36 1539.2 2607.32 1541.84 2605.24 1543.76C2603.21 1545.63 2600.33 1546.56 2596.6 1546.56ZM2596.6 1541.6C2598.31 1541.6 2599.64 1541.12 2600.6 1540.16C2601.61 1539.15 2602.12 1537.71 2602.12 1535.84V1514.56C2602.12 1512.69 2601.61 1511.28 2600.6 1510.32C2599.64 1509.31 2598.31 1508.8 2596.6 1508.8C2594.89 1508.8 2593.53 1509.31 2592.52 1510.32C2591.56 1511.28 2591.08 1512.69 2591.08 1514.56V1535.84C2591.08 1537.71 2591.56 1539.15 2592.52 1540.16C2593.53 1541.12 2594.89 1541.6 2596.6 1541.6ZM2627.96 1546C2625.03 1546 2622.71 1545.12 2621 1543.36C2619.3 1541.6 2618.44 1539.23 2618.44 1536.24V1509.2H2613.64V1504.4H2618.44V1492.32L2624.84 1489.92V1504.4H2631.24V1509.2H2624.84V1536.8C2624.84 1538.08 2625.19 1539.15 2625.88 1540C2626.63 1540.8 2627.62 1541.2 2628.84 1541.2H2631.24V1546H2627.96ZM2646.09 1546C2644.17 1546 2642.39 1545.52 2640.73 1544.56C2639.13 1543.6 2637.85 1542.29 2636.89 1540.64C2635.99 1538.99 2635.53 1537.12 2635.53 1535.04V1530.88C2635.53 1528.37 2636.15 1526.27 2637.37 1524.56C2638.65 1522.85 2640.23 1521.65 2642.09 1520.96L2652.01 1517.28V1513.52C2652.01 1512.24 2651.61 1511.2 2650.81 1510.4C2650.07 1509.55 2649.08 1509.12 2647.85 1509.12H2638.81V1504.4H2648.41C2651.35 1504.4 2653.67 1505.28 2655.37 1507.04C2657.13 1508.75 2658.01 1511.09 2658.01 1514.08V1546H2646.09ZM2652.01 1541.12V1522.32L2644.97 1524.96C2643.59 1525.49 2642.6 1526.21 2642.01 1527.12C2641.48 1528.03 2641.21 1529.47 2641.21 1531.44V1535.92C2641.21 1537.36 2641.75 1538.59 2642.81 1539.6C2643.88 1540.61 2645.16 1541.12 2646.65 1541.12H2652.01ZM2679.71 1548.56C2681.63 1548.56 2683.1 1548.91 2684.11 1549.6C2685.12 1550.29 2685.63 1551.55 2685.63 1553.36C2685.63 1556.99 2683.55 1558.8 2679.39 1558.8H2670.83V1555.04H2677.23C2678.46 1555.04 2679.36 1554.91 2679.95 1554.64C2680.54 1554.37 2680.83 1553.92 2680.83 1553.28C2680.83 1552.59 2680.62 1552.13 2680.19 1551.92C2679.76 1551.71 2679.07 1551.6 2678.11 1551.6H2673.95L2675.31 1546H2675.63C2672.7 1546 2670.35 1545.12 2668.59 1543.36C2666.88 1541.6 2666.03 1539.23 2666.03 1536.24V1514.96C2666.03 1511.6 2666.91 1509.01 2668.67 1507.2C2670.43 1505.33 2672.99 1504.4 2676.35 1504.4H2685.23V1509.2H2676.51C2675.28 1509.2 2674.3 1509.63 2673.55 1510.48C2672.8 1511.28 2672.43 1512.32 2672.43 1513.6V1536.8C2672.43 1538.08 2672.8 1539.15 2673.55 1540C2674.35 1540.8 2675.36 1541.2 2676.59 1541.2H2685.23V1546H2680.27L2679.71 1548.56ZM2689.7 1500.4C2689.75 1498 2690.2 1496.19 2691.06 1494.96C2691.91 1493.68 2693.46 1493.04 2695.7 1493.04C2696.28 1493.04 2698.02 1493.47 2700.9 1494.32C2703.72 1495.23 2705.54 1495.68 2706.34 1495.68C2706.98 1495.68 2707.4 1495.49 2707.62 1495.12C2707.83 1494.69 2707.96 1494.19 2708.02 1493.6C2708.12 1493.01 2708.2 1492.56 2708.26 1492.24H2713.3C2713.24 1494.05 2713.11 1495.52 2712.9 1496.64C2712.68 1497.71 2712.12 1498.61 2711.22 1499.36C2710.36 1500.05 2709.06 1500.4 2707.3 1500.4C2706.5 1500.4 2704.68 1499.95 2701.86 1499.04C2698.98 1498.19 2697.24 1497.76 2696.66 1497.76C2695.96 1497.76 2695.51 1497.89 2695.3 1498.16C2695.14 1498.43 2695 1498.8 2694.9 1499.28C2694.84 1499.76 2694.79 1500.13 2694.74 1500.4H2689.7ZM2700.98 1546.56C2697.24 1546.56 2694.34 1545.63 2692.26 1543.76C2690.23 1541.84 2689.22 1539.2 2689.22 1535.84V1514.56C2689.22 1511.2 2690.23 1508.59 2692.26 1506.72C2694.34 1504.8 2697.24 1503.84 2700.98 1503.84C2704.71 1503.84 2707.59 1504.8 2709.62 1506.72C2711.7 1508.59 2712.74 1511.2 2712.74 1514.56V1535.84C2712.74 1539.2 2711.7 1541.84 2709.62 1543.76C2707.59 1545.63 2704.71 1546.56 2700.98 1546.56ZM2700.98 1541.6C2702.68 1541.6 2704.02 1541.12 2704.98 1540.16C2705.99 1539.15 2706.5 1537.71 2706.5 1535.84V1514.56C2706.5 1512.69 2705.99 1511.28 2704.98 1510.32C2704.02 1509.31 2702.68 1508.8 2700.98 1508.8C2699.27 1508.8 2697.91 1509.31 2696.9 1510.32C2695.94 1511.28 2695.46 1512.69 2695.46 1514.56V1535.84C2695.46 1537.71 2695.94 1539.15 2696.9 1540.16C2697.91 1541.12 2699.27 1541.6 2700.98 1541.6ZM2729.06 1546C2726.12 1546 2723.78 1545.12 2722.02 1543.36C2720.31 1541.6 2719.46 1539.23 2719.46 1536.24V1514.96C2719.46 1511.49 2720.42 1508.77 2722.34 1506.8C2724.26 1504.83 2727.11 1503.84 2730.9 1503.84C2734.68 1503.84 2737.51 1504.83 2739.38 1506.8C2741.3 1508.77 2742.26 1511.49 2742.26 1514.96V1518.64C2742.26 1520.88 2741.62 1522.59 2740.34 1523.76C2739.06 1524.88 2737.38 1525.73 2735.3 1526.32L2725.86 1528.96V1536.8C2725.86 1538.08 2726.23 1539.15 2726.98 1540C2727.78 1540.8 2728.79 1541.2 2730.02 1541.2H2738.66V1546H2729.06ZM2730.74 1522.56C2732.5 1522.08 2733.67 1521.73 2734.26 1521.52C2734.9 1521.25 2735.32 1520.88 2735.54 1520.4C2735.75 1519.92 2735.86 1519.12 2735.86 1518V1513.6C2735.86 1511.89 2735.4 1510.64 2734.5 1509.84C2733.64 1509.04 2732.44 1508.64 2730.9 1508.64C2729.4 1508.64 2728.18 1509.07 2727.22 1509.92C2726.31 1510.77 2725.86 1512 2725.86 1513.6V1523.92L2730.74 1522.56ZM2746.23 1541.2H2753.03C2755.32 1541.2 2756.97 1540.59 2757.99 1539.36C2759.05 1538.08 2759.59 1536.43 2759.59 1534.4C2759.59 1532.8 2759.11 1531.44 2758.15 1530.32C2757.19 1529.2 2755.75 1527.89 2753.83 1526.4C2752.17 1525.07 2750.84 1523.92 2749.83 1522.96C2748.87 1521.95 2748.01 1520.72 2747.27 1519.28C2746.57 1517.79 2746.23 1516.08 2746.23 1514.16C2746.23 1511.33 2747.16 1509.01 2749.03 1507.2C2750.95 1505.33 2753.51 1504.4 2756.71 1504.4H2763.67V1509.2H2757.91C2754.12 1509.2 2752.23 1510.99 2752.23 1514.56C2752.23 1515.95 2752.65 1517.15 2753.51 1518.16C2754.36 1519.17 2755.69 1520.37 2757.51 1521.76C2759.16 1523.04 2760.52 1524.21 2761.59 1525.28C2762.65 1526.29 2763.56 1527.6 2764.31 1529.2C2765.05 1530.75 2765.43 1532.59 2765.43 1534.72C2765.43 1538.51 2764.41 1541.33 2762.39 1543.2C2760.41 1545.07 2757.61 1546 2753.99 1546H2746.23V1541.2Z" fill="white" fill-opacity="0.4"/>
<path d="M2526 445V179H2874.8L2932 236.451V445H2526Z" stroke="white" stroke-width="4"/>
<path d="M2607.72 339C2602.87 339 2599.11 337.773 2596.44 335.32C2593.77 332.867 2592.44 329.267 2592.44 324.52V297.48C2592.44 292.733 2593.77 289.133 2596.44 286.68C2599.11 284.227 2602.87 283 2607.72 283H2618.44V288.28H2607.72C2605.27 288.28 2603.27 289 2601.72 290.44C2600.23 291.827 2599.48 293.693 2599.48 296.04V325.96C2599.48 328.307 2600.23 330.2 2601.72 331.64C2603.27 333.027 2605.27 333.72 2607.72 333.72H2618.44V339H2607.72ZM2634.98 339.56C2631.24 339.56 2628.34 338.627 2626.26 336.76C2624.23 334.84 2623.22 332.2 2623.22 328.84V307.56C2623.22 304.2 2624.23 301.587 2626.26 299.72C2628.34 297.8 2631.24 296.84 2634.98 296.84C2638.71 296.84 2641.59 297.8 2643.62 299.72C2645.7 301.587 2646.74 304.2 2646.74 307.56V328.84C2646.74 332.2 2645.7 334.84 2643.62 336.76C2641.59 338.627 2638.71 339.56 2634.98 339.56ZM2634.98 334.6C2636.68 334.6 2638.02 334.12 2638.98 333.16C2639.99 332.147 2640.5 330.707 2640.5 328.84V307.56C2640.5 305.693 2639.99 304.28 2638.98 303.32C2638.02 302.307 2636.68 301.8 2634.98 301.8C2633.27 301.8 2631.91 302.307 2630.9 303.32C2629.94 304.28 2629.46 305.693 2629.46 307.56V328.84C2629.46 330.707 2629.94 332.147 2630.9 333.16C2631.91 334.12 2633.27 334.6 2634.98 334.6ZM2665.3 339C2661.94 339 2659.22 338.013 2657.14 336.04C2655.06 334.067 2654.02 331.427 2654.02 328.12V308.2C2654.02 305.907 2654.63 303.96 2655.86 302.36C2657.14 300.76 2658.71 299.667 2660.58 299.08L2671.3 295.32V283H2677.7V339H2665.3ZM2671.3 334.2V300.6L2664.18 303C2662.79 303.427 2661.8 304.12 2661.22 305.08C2660.68 305.987 2660.42 307.453 2660.42 309.48V328.12C2660.42 330.04 2660.98 331.533 2662.1 332.6C2663.22 333.667 2664.74 334.2 2666.66 334.2H2671.3ZM2695.8 339C2693.88 339 2692.09 338.52 2690.44 337.56C2688.84 336.6 2687.56 335.293 2686.6 333.64C2685.69 331.987 2685.24 330.12 2685.24 328.04V323.88C2685.24 321.373 2685.85 319.267 2687.08 317.56C2688.36 315.853 2689.93 314.653 2691.8 313.96L2701.72 310.28V306.52C2701.72 305.24 2701.32 304.2 2700.52 303.4C2699.77 302.547 2698.78 302.12 2697.56 302.12H2688.52V297.4H2698.12C2701.05 297.4 2703.37 298.28 2705.08 300.04C2706.84 301.747 2707.72 304.093 2707.72 307.08V339H2695.8ZM2701.72 334.12V315.32L2694.68 317.96C2693.29 318.493 2692.3 319.213 2691.72 320.12C2691.18 321.027 2690.92 322.467 2690.92 324.44V328.92C2690.92 330.36 2691.45 331.587 2692.52 332.6C2693.58 333.613 2694.86 334.12 2696.36 334.12H2701.72Z" fill="white"/>
<path d="M1885 445V179H2233.8L2291 236.451V445H1885Z" stroke="white" stroke-width="4"/>
<path d="M1949.6 339L1962.24 283H1972.88L1985.04 339H1978.48L1974.56 322.52H1960L1956.4 339H1949.6ZM1961.2 317.08H1973.36L1967.6 288.28H1967.04L1961.2 317.08ZM1991.47 290.6V284.2H1997.87V290.6H1991.47ZM1991.47 339V297.4H1997.87V339H1991.47ZM2007.49 297.4H2012.45L2013.17 300.36L2015.17 299.4C2016.87 298.547 2018.29 297.907 2019.41 297.48C2020.58 297.053 2021.75 296.84 2022.93 296.84V301.56C2022.23 301.56 2021.3 301.773 2020.13 302.2C2018.95 302.573 2016.87 303.48 2013.89 304.92V339H2007.49V297.4ZM2036.89 339V288.28H2025.69V283H2055.13V288.28H2043.93V339H2036.89ZM2070.03 339C2068.11 339 2066.32 338.52 2064.67 337.56C2063.07 336.6 2061.79 335.293 2060.83 333.64C2059.92 331.987 2059.47 330.12 2059.47 328.04V323.88C2059.47 321.373 2060.08 319.267 2061.31 317.56C2062.59 315.853 2064.16 314.653 2066.03 313.96L2075.95 310.28V306.52C2075.95 305.24 2075.55 304.2 2074.75 303.4C2074 302.547 2073.02 302.12 2071.79 302.12H2062.75V297.4H2072.35C2075.28 297.4 2077.6 298.28 2079.31 300.04C2081.07 301.747 2081.95 304.093 2081.95 307.08V339H2070.03ZM2075.95 334.12V315.32L2068.91 317.96C2067.52 318.493 2066.54 319.213 2065.95 320.12C2065.42 321.027 2065.15 322.467 2065.15 324.44V328.92C2065.15 330.36 2065.68 331.587 2066.75 332.6C2067.82 333.613 2069.1 334.12 2070.59 334.12H2075.95ZM2090.77 283H2097.17V295.48L2107.89 299.24C2109.76 299.88 2111.3 301 2112.53 302.6C2113.81 304.147 2114.45 306.067 2114.45 308.36V328.92C2114.45 331.8 2113.44 334.2 2111.41 336.12C2109.38 338.04 2106.9 339 2103.97 339H2090.77V283ZM2102.61 334.2C2104.1 334.2 2105.38 333.693 2106.45 332.68C2107.52 331.667 2108.05 330.413 2108.05 328.92V309.64C2108.05 307.613 2107.76 306.147 2107.17 305.24C2106.64 304.28 2105.68 303.587 2104.29 303.16L2097.17 300.76V334.2H2102.61ZM2122.1 339V283H2128.5V339H2122.1ZM2146.35 339C2143.42 339 2141.07 338.12 2139.31 336.36C2137.61 334.6 2136.75 332.227 2136.75 329.24V307.96C2136.75 304.493 2137.71 301.773 2139.63 299.8C2141.55 297.827 2144.41 296.84 2148.19 296.84C2151.98 296.84 2154.81 297.827 2156.67 299.8C2158.59 301.773 2159.55 304.493 2159.55 307.96V311.64C2159.55 313.88 2158.91 315.587 2157.63 316.76C2156.35 317.88 2154.67 318.733 2152.59 319.32L2143.15 321.96V329.8C2143.15 331.08 2143.53 332.147 2144.27 333C2145.07 333.8 2146.09 334.2 2147.31 334.2H2155.95V339H2146.35ZM2148.03 315.56C2149.79 315.08 2150.97 314.733 2151.55 314.52C2152.19 314.253 2152.62 313.88 2152.83 313.4C2153.05 312.92 2153.15 312.12 2153.15 311V306.6C2153.15 304.893 2152.7 303.64 2151.79 302.84C2150.94 302.04 2149.74 301.64 2148.19 301.64C2146.7 301.64 2145.47 302.067 2144.51 302.92C2143.61 303.773 2143.15 305 2143.15 306.6V316.92L2148.03 315.56Z" fill="white"/>
<path d="M2146 1284V1088H2403.74L2446 1130.33V1284H2146Z" stroke="white" stroke-opacity="0.4" stroke-width="4"/>
<path d="M2201.04 1206.42C2197.32 1206.42 2194.48 1205.48 2192.52 1203.6C2190.56 1201.68 2189.58 1199.02 2189.58 1195.62V1174.38C2189.58 1170.98 2190.56 1168.34 2192.52 1166.46C2194.48 1164.54 2197.32 1163.58 2201.04 1163.58C2204.8 1163.58 2207.66 1164.54 2209.62 1166.46C2211.58 1168.34 2212.56 1170.98 2212.56 1174.38V1195.62C2212.56 1199.02 2211.58 1201.68 2209.62 1203.6C2207.66 1205.48 2204.8 1206.42 2201.04 1206.42ZM2201.04 1202.46C2202.8 1202.46 2204.28 1201.96 2205.48 1200.96C2206.68 1199.92 2207.28 1198.48 2207.28 1196.64V1173.36C2207.28 1171.52 2206.68 1170.1 2205.48 1169.1C2204.28 1168.06 2202.8 1167.54 2201.04 1167.54C2199.28 1167.54 2197.8 1168.06 2196.6 1169.1C2195.44 1170.1 2194.86 1171.52 2194.86 1173.36V1196.64C2194.86 1198.48 2195.44 1199.92 2196.6 1200.96C2197.8 1201.96 2199.28 1202.46 2201.04 1202.46ZM2218.73 1164H2223.53V1173.36L2231.57 1176.18C2232.97 1176.66 2234.13 1177.5 2235.05 1178.7C2236.01 1179.86 2236.49 1181.3 2236.49 1183.02V1198.44C2236.49 1200.6 2235.73 1202.4 2234.21 1203.84C2232.69 1205.28 2230.83 1206 2228.63 1206H2218.73V1164ZM2227.61 1202.4C2228.73 1202.4 2229.69 1202.02 2230.49 1201.26C2231.29 1200.5 2231.69 1199.56 2231.69 1198.44V1183.98C2231.69 1182.46 2231.47 1181.36 2231.03 1180.68C2230.63 1179.96 2229.91 1179.44 2228.87 1179.12L2223.53 1177.32V1202.4H2227.61ZM2240.36 1202.4H2245.46C2247.18 1202.4 2248.42 1201.94 2249.18 1201.02C2249.98 1200.06 2250.38 1198.82 2250.38 1197.3C2250.38 1196.1 2250.02 1195.08 2249.3 1194.24C2248.58 1193.4 2247.5 1192.42 2246.06 1191.3C2244.82 1190.3 2243.82 1189.44 2243.06 1188.72C2242.34 1187.96 2241.7 1187.04 2241.14 1185.96C2240.62 1184.84 2240.36 1183.56 2240.36 1182.12C2240.36 1180 2241.06 1178.26 2242.46 1176.9C2243.9 1175.5 2245.82 1174.8 2248.22 1174.8H2253.44V1178.4H2249.12C2246.28 1178.4 2244.86 1179.74 2244.86 1182.42C2244.86 1183.46 2245.18 1184.36 2245.82 1185.12C2246.46 1185.88 2247.46 1186.78 2248.82 1187.82C2250.06 1188.78 2251.08 1189.66 2251.88 1190.46C2252.68 1191.22 2253.36 1192.2 2253.92 1193.4C2254.48 1194.56 2254.76 1195.94 2254.76 1197.54C2254.76 1200.38 2254 1202.5 2252.48 1203.9C2251 1205.3 2248.9 1206 2246.18 1206H2240.36V1202.4ZM2260.15 1169.7V1164.9H2264.95V1169.7H2260.15ZM2260.15 1206V1174.8H2264.95V1206H2260.15ZM2280.08 1206C2277.56 1206 2275.52 1205.26 2273.96 1203.78C2272.4 1202.3 2271.62 1200.32 2271.62 1197.84V1182.9C2271.62 1181.18 2272.08 1179.72 2273 1178.52C2273.96 1177.32 2275.14 1176.5 2276.54 1176.06L2284.58 1173.24V1164H2289.38V1206H2280.08ZM2284.58 1202.4V1177.2L2279.24 1179C2278.2 1179.32 2277.46 1179.84 2277.02 1180.56C2276.62 1181.24 2276.42 1182.34 2276.42 1183.86V1197.84C2276.42 1199.28 2276.84 1200.4 2277.68 1201.2C2278.52 1202 2279.66 1202.4 2281.1 1202.4H2284.58ZM2296.6 1169.7V1164.9H2301.4V1169.7H2296.6ZM2296.6 1206V1174.8H2301.4V1206H2296.6ZM2314.97 1206C2313.53 1206 2312.19 1205.64 2310.95 1204.92C2309.75 1204.2 2308.79 1203.22 2308.07 1201.98C2307.39 1200.74 2307.05 1199.34 2307.05 1197.78V1194.66C2307.05 1192.78 2307.51 1191.2 2308.43 1189.92C2309.39 1188.64 2310.57 1187.74 2311.97 1187.22L2319.41 1184.46V1181.64C2319.41 1180.68 2319.11 1179.9 2318.51 1179.3C2317.95 1178.66 2317.21 1178.34 2316.29 1178.34H2309.51V1174.8H2316.71C2318.91 1174.8 2320.65 1175.46 2321.93 1176.78C2323.25 1178.06 2323.91 1179.82 2323.91 1182.06V1206H2314.97ZM2319.41 1202.34V1188.24L2314.13 1190.22C2313.09 1190.62 2312.35 1191.16 2311.91 1191.84C2311.51 1192.52 2311.31 1193.6 2311.31 1195.08V1198.44C2311.31 1199.52 2311.71 1200.44 2312.51 1201.2C2313.31 1201.96 2314.27 1202.34 2315.39 1202.34H2319.41ZM2330.52 1174.8H2334.24L2334.78 1176.54L2337.24 1175.82C2338.92 1175.3 2340.24 1174.94 2341.2 1174.74C2342.2 1174.5 2343.14 1174.38 2344.02 1174.38C2345.46 1174.38 2346.52 1174.88 2347.2 1175.88C2347.88 1176.88 2348.22 1178.18 2348.22 1179.78V1206H2343.42V1181.34C2343.42 1180.18 2343.34 1179.38 2343.18 1178.94C2343.02 1178.46 2342.62 1178.22 2341.98 1178.22C2341.66 1178.22 2339.44 1178.86 2335.32 1180.14V1206H2330.52V1174.8Z" fill="white" fill-opacity="0.6"/>
<path d="M2517 1415V1219H2774.74L2817 1261.33V1415H2517Z" stroke="white" stroke-opacity="0.4" stroke-width="4"/>
<path d="M2562.38 1337V1295H2580.68V1299.08H2567.66V1312.52H2578.22V1316.6H2567.66V1332.92H2581.28V1337H2562.38ZM2591.7 1337L2584.56 1305.8H2589.54L2594.16 1330.94L2598.72 1305.8H2603.7L2596.56 1337H2591.7ZM2614.42 1337C2612.22 1337 2610.46 1336.34 2609.14 1335.02C2607.86 1333.7 2607.22 1331.92 2607.22 1329.68V1313.72C2607.22 1311.12 2607.94 1309.08 2609.38 1307.6C2610.82 1306.12 2612.96 1305.38 2615.8 1305.38C2618.64 1305.38 2620.76 1306.12 2622.16 1307.6C2623.6 1309.08 2624.32 1311.12 2624.32 1313.72V1316.48C2624.32 1318.16 2623.84 1319.44 2622.88 1320.32C2621.92 1321.16 2620.66 1321.8 2619.1 1322.24L2612.02 1324.22V1330.1C2612.02 1331.06 2612.3 1331.86 2612.86 1332.5C2613.46 1333.1 2614.22 1333.4 2615.14 1333.4H2621.62V1337H2614.42ZM2615.68 1319.42C2617 1319.06 2617.88 1318.8 2618.32 1318.64C2618.8 1318.44 2619.12 1318.16 2619.28 1317.8C2619.44 1317.44 2619.52 1316.84 2619.52 1316V1312.7C2619.52 1311.42 2619.18 1310.48 2618.5 1309.88C2617.86 1309.28 2616.96 1308.98 2615.8 1308.98C2614.68 1308.98 2613.76 1309.3 2613.04 1309.94C2612.36 1310.58 2612.02 1311.5 2612.02 1312.7V1320.44L2615.68 1319.42ZM2629.1 1305.8H2632.82L2633.36 1308.02L2634.86 1307.3C2636.14 1306.66 2637.2 1306.18 2638.04 1305.86C2638.92 1305.54 2639.8 1305.38 2640.68 1305.38V1308.92C2640.16 1308.92 2639.46 1309.08 2638.58 1309.4C2637.7 1309.68 2636.14 1310.36 2633.9 1311.44V1337H2629.1V1305.8ZM2645.15 1305.8H2648.87L2649.41 1307.54L2651.87 1306.82C2653.55 1306.3 2654.87 1305.94 2655.83 1305.74C2656.83 1305.5 2657.77 1305.38 2658.65 1305.38C2660.09 1305.38 2661.15 1305.88 2661.83 1306.88C2662.51 1307.88 2662.85 1309.18 2662.85 1310.78V1337H2658.05V1312.34C2658.05 1311.18 2657.97 1310.38 2657.81 1309.94C2657.65 1309.46 2657.25 1309.22 2656.61 1309.22C2656.29 1309.22 2654.07 1309.86 2649.95 1311.14V1337H2645.15V1305.8ZM2677.15 1337.42C2674.35 1337.42 2672.17 1336.72 2670.61 1335.32C2669.09 1333.88 2668.33 1331.9 2668.33 1329.38V1313.42C2668.33 1310.9 2669.09 1308.94 2670.61 1307.54C2672.17 1306.1 2674.35 1305.38 2677.15 1305.38C2679.95 1305.38 2682.11 1306.1 2683.63 1307.54C2685.19 1308.94 2685.97 1310.9 2685.97 1313.42V1329.38C2685.97 1331.9 2685.19 1333.88 2683.63 1335.32C2682.11 1336.72 2679.95 1337.42 2677.15 1337.42ZM2677.15 1333.7C2678.43 1333.7 2679.43 1333.34 2680.15 1332.62C2680.91 1331.86 2681.29 1330.78 2681.29 1329.38V1313.42C2681.29 1312.02 2680.91 1310.96 2680.15 1310.24C2679.43 1309.48 2678.43 1309.1 2677.15 1309.1C2675.87 1309.1 2674.85 1309.48 2674.09 1310.24C2673.37 1310.96 2673.01 1312.02 2673.01 1313.42V1329.38C2673.01 1330.78 2673.37 1331.86 2674.09 1332.62C2674.85 1333.34 2675.87 1333.7 2677.15 1333.7ZM2700.67 1337C2698.47 1337 2696.73 1336.34 2695.45 1335.02C2694.17 1333.7 2693.53 1331.92 2693.53 1329.68V1309.4H2689.93V1305.8H2693.53V1296.74L2698.33 1294.94V1305.8H2703.13V1309.4H2698.33V1330.1C2698.33 1331.06 2698.59 1331.86 2699.11 1332.5C2699.67 1333.1 2700.41 1333.4 2701.33 1333.4H2703.13V1337H2700.67ZM2714.15 1337C2711.95 1337 2710.19 1336.34 2708.87 1335.02C2707.59 1333.7 2706.95 1331.92 2706.95 1329.68V1313.72C2706.95 1311.12 2707.67 1309.08 2709.11 1307.6C2710.55 1306.12 2712.69 1305.38 2715.53 1305.38C2718.37 1305.38 2720.49 1306.12 2721.89 1307.6C2723.33 1309.08 2724.05 1311.12 2724.05 1313.72V1316.48C2724.05 1318.16 2723.57 1319.44 2722.61 1320.32C2721.65 1321.16 2720.39 1321.8 2718.83 1322.24L2711.75 1324.22V1330.1C2711.75 1331.06 2712.03 1331.86 2712.59 1332.5C2713.19 1333.1 2713.95 1333.4 2714.87 1333.4H2721.35V1337H2714.15ZM2715.41 1319.42C2716.73 1319.06 2717.61 1318.8 2718.05 1318.64C2718.53 1318.44 2718.85 1318.16 2719.01 1317.8C2719.17 1317.44 2719.25 1316.84 2719.25 1316V1312.7C2719.25 1311.42 2718.91 1310.48 2718.23 1309.88C2717.59 1309.28 2716.69 1308.98 2715.53 1308.98C2714.41 1308.98 2713.49 1309.3 2712.77 1309.94C2712.09 1310.58 2711.75 1311.5 2711.75 1312.7V1320.44L2715.41 1319.42Z" fill="white" fill-opacity="0.6"/>
<path d="M2890 1260V1064H3147.74L3190 1106.33V1260H2890Z" stroke="white" stroke-opacity="0.4" stroke-width="4"/>
<path d="M2940.6 1182V1143.96H2932.2V1140H2954.28V1143.96H2945.88V1182H2940.6ZM2965.45 1182C2964.01 1182 2962.67 1181.64 2961.43 1180.92C2960.23 1180.2 2959.27 1179.22 2958.55 1177.98C2957.87 1176.74 2957.53 1175.34 2957.53 1173.78V1170.66C2957.53 1168.78 2957.99 1167.2 2958.91 1165.92C2959.87 1164.64 2961.05 1163.74 2962.45 1163.22L2969.89 1160.46V1157.64C2969.89 1156.68 2969.59 1155.9 2968.99 1155.3C2968.43 1154.66 2967.69 1154.34 2966.77 1154.34H2959.99V1150.8H2967.19C2969.39 1150.8 2971.13 1151.46 2972.41 1152.78C2973.73 1154.06 2974.39 1155.82 2974.39 1158.06V1182H2965.45ZM2969.89 1178.34V1164.24L2964.61 1166.22C2963.57 1166.62 2962.83 1167.16 2962.39 1167.84C2961.99 1168.52 2961.79 1169.6 2961.79 1171.08V1174.44C2961.79 1175.52 2962.19 1176.44 2962.99 1177.2C2963.79 1177.96 2964.75 1178.34 2965.87 1178.34H2969.89ZM2981.01 1150.8H2984.73L2985.27 1152.54L2987.73 1151.82C2989.41 1151.3 2990.73 1150.94 2991.69 1150.74C2992.69 1150.5 2993.63 1150.38 2994.51 1150.38C2995.95 1150.38 2997.01 1150.88 2997.69 1151.88C2998.37 1152.88 2998.71 1154.18 2998.71 1155.78V1182H2993.91V1157.34C2993.91 1156.18 2993.83 1155.38 2993.67 1154.94C2993.51 1154.46 2993.11 1154.22 2992.47 1154.22C2992.15 1154.22 2989.93 1154.86 2985.81 1156.14V1182H2981.01V1150.8ZM3011.74 1182C3010.3 1182 3008.96 1181.64 3007.72 1180.92C3006.52 1180.2 3005.56 1179.22 3004.84 1177.98C3004.16 1176.74 3003.82 1175.34 3003.82 1173.78V1170.66C3003.82 1168.78 3004.28 1167.2 3005.2 1165.92C3006.16 1164.64 3007.34 1163.74 3008.74 1163.22L3016.18 1160.46V1157.64C3016.18 1156.68 3015.88 1155.9 3015.28 1155.3C3014.72 1154.66 3013.98 1154.34 3013.06 1154.34H3006.28V1150.8H3013.48C3015.68 1150.8 3017.42 1151.46 3018.7 1152.78C3020.02 1154.06 3020.68 1155.82 3020.68 1158.06V1182H3011.74ZM3016.18 1178.34V1164.24L3010.9 1166.22C3009.86 1166.62 3009.12 1167.16 3008.68 1167.84C3008.28 1168.52 3008.08 1169.6 3008.08 1171.08V1174.44C3008.08 1175.52 3008.48 1176.44 3009.28 1177.2C3010.08 1177.96 3011.04 1178.34 3012.16 1178.34H3016.18Z" fill="white" fill-opacity="0.6"/>
<path d="M2932 1536V1340H3189.74L3232 1382.33V1536H2932Z" stroke="white" stroke-opacity="0.4" stroke-width="4"/>
<path d="M2974.2 1458L2983.68 1416H2991.66L3000.78 1458H2995.86L2992.92 1445.64H2982L2979.3 1458H2974.2ZM2982.9 1441.56H2992.02L2987.7 1419.96H2987.28L2982.9 1441.56ZM3005.6 1426.8H3009.32L3009.86 1428.54L3012.32 1427.82C3014 1427.3 3015.32 1426.94 3016.28 1426.74C3017.28 1426.5 3018.22 1426.38 3019.1 1426.38C3020.54 1426.38 3021.6 1426.88 3022.28 1427.88C3022.96 1428.88 3023.3 1430.18 3023.3 1431.78V1458H3018.5V1433.34C3018.5 1432.18 3018.42 1431.38 3018.26 1430.94C3018.1 1430.46 3017.7 1430.22 3017.06 1430.22C3016.74 1430.22 3014.52 1430.86 3010.4 1432.14V1458H3005.6V1426.8ZM3029.8 1464H3031.66C3032.74 1464 3033.72 1463.48 3034.6 1462.44C3035.48 1461.44 3035.92 1459.94 3035.92 1457.94L3027.58 1426.8H3032.56L3037.78 1452.12L3041.98 1426.8H3046.72L3039.4 1461.6C3038.56 1465.6 3036.24 1467.6 3032.44 1467.6H3029.8V1464ZM3059.89 1458C3057.69 1458 3055.95 1457.34 3054.67 1456.02C3053.39 1454.7 3052.75 1452.92 3052.75 1450.68V1430.4H3049.15V1426.8H3052.75V1417.74L3057.55 1415.94V1426.8H3062.35V1430.4H3057.55V1451.1C3057.55 1452.06 3057.81 1452.86 3058.33 1453.5C3058.89 1454.1 3059.63 1454.4 3060.55 1454.4H3062.35V1458H3059.89ZM3066.95 1464H3068.81C3069.89 1464 3070.87 1463.48 3071.75 1462.44C3072.63 1461.44 3073.07 1459.94 3073.07 1457.94L3064.73 1426.8H3069.71L3074.93 1452.12L3079.13 1426.8H3083.87L3076.55 1461.6C3075.71 1465.6 3073.39 1467.6 3069.59 1467.6H3066.95V1464ZM3088.34 1426.8H3098.06C3100.26 1426.8 3102.12 1427.52 3103.64 1428.96C3105.2 1430.4 3105.98 1432.2 3105.98 1434.36V1450.5C3105.98 1452.66 3105.22 1454.46 3103.7 1455.9C3102.18 1457.3 3100.32 1458 3098.12 1458H3093.14V1467.6H3088.34V1426.8ZM3097.1 1454.46C3098.22 1454.46 3099.18 1454.08 3099.98 1453.32C3100.78 1452.56 3101.18 1451.62 3101.18 1450.5V1434.36C3101.18 1433.24 3100.78 1432.3 3099.98 1431.54C3099.18 1430.78 3098.22 1430.4 3097.1 1430.4H3093.14V1454.46H3097.1ZM3117.9 1458C3115.7 1458 3113.94 1457.34 3112.62 1456.02C3111.34 1454.7 3110.7 1452.92 3110.7 1450.68V1434.72C3110.7 1432.12 3111.42 1430.08 3112.86 1428.6C3114.3 1427.12 3116.44 1426.38 3119.28 1426.38C3122.12 1426.38 3124.24 1427.12 3125.64 1428.6C3127.08 1430.08 3127.8 1432.12 3127.8 1434.72V1437.48C3127.8 1439.16 3127.32 1440.44 3126.36 1441.32C3125.4 1442.16 3124.14 1442.8 3122.58 1443.24L3115.5 1445.22V1451.1C3115.5 1452.06 3115.78 1452.86 3116.34 1453.5C3116.94 1454.1 3117.7 1454.4 3118.62 1454.4H3125.1V1458H3117.9ZM3119.16 1440.42C3120.48 1440.06 3121.36 1439.8 3121.8 1439.64C3122.28 1439.44 3122.6 1439.16 3122.76 1438.8C3122.92 1438.44 3123 1437.84 3123 1437V1433.7C3123 1432.42 3122.66 1431.48 3121.98 1430.88C3121.34 1430.28 3120.44 1429.98 3119.28 1429.98C3118.16 1429.98 3117.24 1430.3 3116.52 1430.94C3115.84 1431.58 3115.5 1432.5 3115.5 1433.7V1441.44L3119.16 1440.42Z" fill="white" fill-opacity="0.6"/>
</svg>
