<svg width="3745" height="1780" viewBox="0 0 3745 1780" fill="none" xmlns="http://www.w3.org/2000/svg">
<rect width="3745" height="1780" fill="#B3B095"/>
<path d="M1325.4 798C1317 798 1310.2 795.533 1305 790.6C1299.8 785.667 1297.2 779.067 1297.2 770.8V721C1297.2 715.267 1298.73 710.4 1301.8 706.4C1305 702.4 1308.93 699.667 1313.6 698.2L1340.4 688.8V658H1356.4V798H1325.4ZM1340.4 786V702L1322.6 708C1319.13 709.067 1316.67 710.8 1315.2 713.2C1313.87 715.467 1313.2 719.133 1313.2 724.2V770.8C1313.2 775.6 1314.6 779.333 1317.4 782C1320.2 784.667 1324 786 1328.8 786H1340.4ZM1405.85 799.4C1396.51 799.4 1389.25 797.067 1384.05 792.4C1378.98 787.6 1376.45 781 1376.45 772.6V719.4C1376.45 711 1378.98 704.467 1384.05 699.8C1389.25 695 1396.51 692.6 1405.85 692.6C1415.18 692.6 1422.38 695 1427.45 699.8C1432.65 704.467 1435.25 711 1435.25 719.4V772.6C1435.25 781 1432.65 787.6 1427.45 792.4C1422.38 797.067 1415.18 799.4 1405.85 799.4ZM1405.85 787C1410.11 787 1413.45 785.8 1415.85 783.4C1418.38 780.867 1419.65 777.267 1419.65 772.6V719.4C1419.65 714.733 1418.38 711.2 1415.85 708.8C1413.45 706.267 1410.11 705 1405.85 705C1401.58 705 1398.18 706.267 1395.65 708.8C1393.25 711.2 1392.05 714.733 1392.05 719.4V772.6C1392.05 777.267 1393.25 780.867 1395.65 783.4C1398.18 785.8 1401.58 787 1405.85 787ZM1477.25 798C1469.92 798 1464.05 795.8 1459.65 791.4C1455.38 787 1453.25 781.067 1453.25 773.6V720.4C1453.25 712 1455.45 705.533 1459.85 701C1464.25 696.333 1470.65 694 1479.05 694H1501.25V706H1479.45C1476.38 706 1473.92 707.067 1472.05 709.2C1470.18 711.2 1469.25 713.8 1469.25 717V775C1469.25 778.2 1470.18 780.867 1472.05 783C1474.05 785 1476.58 786 1479.65 786H1501.25V798H1477.25ZM1527.41 799.4C1522.61 799.4 1519.01 797.733 1516.61 794.4C1514.34 791.067 1513.21 786.733 1513.21 781.4V694H1529.21V776.2C1529.21 779.933 1529.48 782.6 1530.01 784.2C1530.54 785.8 1531.81 786.6 1533.81 786.6C1534.74 786.6 1542.28 784.6 1556.41 780.6V694H1572.41V798H1561.01L1558.01 791.2C1555.88 792 1554.28 792.533 1553.21 792.8C1546.94 795.067 1541.88 796.733 1538.01 797.8C1534.14 798.867 1530.61 799.4 1527.41 799.4ZM1596.46 694H1608.86L1610.66 699.8L1618.86 697.4C1624.46 695.667 1628.86 694.467 1632.06 693.8C1635.39 693 1638.53 692.6 1641.46 692.6C1647.19 692.6 1651.19 695.133 1653.46 700.2C1657.19 698.867 1662.46 697.267 1669.26 695.4C1676.06 693.533 1681.06 692.6 1684.26 692.6C1689.06 692.6 1692.59 694.267 1694.86 697.6C1697.26 700.933 1698.46 705.267 1698.46 710.6V798H1682.46V715.8C1682.46 711.933 1682.19 709.267 1681.66 707.8C1681.13 706.2 1679.79 705.4 1677.66 705.4C1676.59 705.4 1669.26 707.533 1655.66 711.8V798H1639.66V715.8C1639.66 711.933 1639.39 709.267 1638.86 707.8C1638.33 706.2 1636.99 705.4 1634.86 705.4C1633.79 705.4 1626.33 707.533 1612.46 711.8V798H1596.46V694ZM1741.28 798C1733.95 798 1728.08 795.8 1723.68 791.4C1719.42 787 1717.28 781.067 1717.28 773.6V720.4C1717.28 711.733 1719.68 704.933 1724.48 700C1729.28 695.067 1736.42 692.6 1745.88 692.6C1755.35 692.6 1762.42 695.067 1767.08 700C1771.88 704.933 1774.28 711.733 1774.28 720.4V729.6C1774.28 735.2 1772.68 739.467 1769.48 742.4C1766.28 745.2 1762.08 747.333 1756.88 748.8L1733.28 755.4V775C1733.28 778.2 1734.22 780.867 1736.08 783C1738.08 785 1740.62 786 1743.68 786H1765.28V798H1741.28ZM1745.48 739.4C1749.88 738.2 1752.82 737.333 1754.28 736.8C1755.88 736.133 1756.95 735.2 1757.48 734C1758.02 732.8 1758.28 730.8 1758.28 728V717C1758.28 712.733 1757.15 709.6 1754.88 707.6C1752.75 705.6 1749.75 704.6 1745.88 704.6C1742.15 704.6 1739.08 705.667 1736.68 707.8C1734.42 709.933 1733.28 713 1733.28 717V742.8L1745.48 739.4ZM1790.21 694H1802.61L1804.41 699.8L1812.61 697.4C1818.21 695.667 1822.61 694.467 1825.81 693.8C1829.14 693 1832.28 692.6 1835.21 692.6C1840.01 692.6 1843.54 694.267 1845.81 697.6C1848.08 700.933 1849.21 705.267 1849.21 710.6V798H1833.21V715.8C1833.21 711.933 1832.94 709.267 1832.41 707.8C1831.88 706.2 1830.54 705.4 1828.41 705.4C1827.34 705.4 1819.94 707.533 1806.21 711.8V798H1790.21V694ZM1900.46 798C1893.13 798 1887.33 795.8 1883.06 791.4C1878.79 787 1876.66 781.067 1876.66 773.6V706H1864.66V694H1876.66V663.8L1892.66 657.8V694H1908.66V706H1892.66V775C1892.66 778.2 1893.53 780.867 1895.26 783C1897.13 785 1899.59 786 1902.66 786H1908.66V798H1900.46ZM1949.99 799.4C1940.65 799.4 1933.39 797.067 1928.19 792.4C1923.12 787.6 1920.59 781 1920.59 772.6V719.4C1920.59 711 1923.12 704.467 1928.19 699.8C1933.39 695 1940.65 692.6 1949.99 692.6C1959.32 692.6 1966.52 695 1971.59 699.8C1976.79 704.467 1979.39 711 1979.39 719.4V772.6C1979.39 781 1976.79 787.6 1971.59 792.4C1966.52 797.067 1959.32 799.4 1949.99 799.4ZM1949.99 787C1954.25 787 1957.59 785.8 1959.99 783.4C1962.52 780.867 1963.79 777.267 1963.79 772.6V719.4C1963.79 714.733 1962.52 711.2 1959.99 708.8C1957.59 706.267 1954.25 705 1949.99 705C1945.72 705 1942.32 706.267 1939.79 708.8C1937.39 711.2 1936.19 714.733 1936.19 719.4V772.6C1936.19 777.267 1937.39 780.867 1939.79 783.4C1942.32 785.8 1945.72 787 1949.99 787ZM1993.39 786H2010.39C2016.12 786 2020.26 784.467 2022.79 781.4C2025.46 778.2 2026.79 774.067 2026.79 769C2026.79 765 2025.59 761.6 2023.19 758.8C2020.79 756 2017.19 752.733 2012.39 749C2008.26 745.667 2004.92 742.8 2002.39 740.4C1999.99 737.867 1997.86 734.8 1995.99 731.2C1994.26 727.467 1993.39 723.2 1993.39 718.4C1993.39 711.333 1995.72 705.533 2000.39 701C2005.19 696.333 2011.59 694 2019.59 694H2036.99V706H2022.59C2013.12 706 2008.39 710.467 2008.39 719.4C2008.39 722.867 2009.46 725.867 2011.59 728.4C2013.72 730.933 2017.06 733.933 2021.59 737.4C2025.72 740.6 2029.12 743.533 2031.79 746.2C2034.46 748.733 2036.72 752 2038.59 756C2040.46 759.867 2041.39 764.467 2041.39 769.8C2041.39 779.267 2038.86 786.333 2033.79 791C2028.86 795.667 2021.86 798 2012.79 798H1993.39V786ZM2089.43 677V661H2105.43V677H2089.43ZM2089.43 798V694H2105.43V798H2089.43ZM2129.47 694H2141.87L2143.67 699.8L2151.87 697.4C2157.47 695.667 2161.87 694.467 2165.07 693.8C2168.4 693 2171.54 692.6 2174.47 692.6C2179.27 692.6 2182.8 694.267 2185.07 697.6C2187.34 700.933 2188.47 705.267 2188.47 710.6V798H2172.47V715.8C2172.47 711.933 2172.2 709.267 2171.67 707.8C2171.14 706.2 2169.8 705.4 2167.67 705.4C2166.6 705.4 2159.2 707.533 2145.47 711.8V798H2129.47V694ZM2239.72 798C2232.39 798 2226.59 795.8 2222.32 791.4C2218.05 787 2215.92 781.067 2215.92 773.6V706H2203.92V694H2215.92V663.8L2231.92 657.8V694H2247.92V706H2231.92V775C2231.92 778.2 2232.79 780.867 2234.52 783C2236.39 785 2238.85 786 2241.92 786H2247.92V798H2239.72ZM2284.64 798C2277.31 798 2271.44 795.8 2267.04 791.4C2262.78 787 2260.64 781.067 2260.64 773.6V720.4C2260.64 711.733 2263.04 704.933 2267.84 700C2272.64 695.067 2279.78 692.6 2289.24 692.6C2298.71 692.6 2305.78 695.067 2310.44 700C2315.24 704.933 2317.64 711.733 2317.64 720.4V729.6C2317.64 735.2 2316.04 739.467 2312.84 742.4C2309.64 745.2 2305.44 747.333 2300.24 748.8L2276.64 755.4V775C2276.64 778.2 2277.58 780.867 2279.44 783C2281.44 785 2283.98 786 2287.04 786H2308.64V798H2284.64ZM2288.84 739.4C2293.24 738.2 2296.18 737.333 2297.64 736.8C2299.24 736.133 2300.31 735.2 2300.84 734C2301.38 732.8 2301.64 730.8 2301.64 728V717C2301.64 712.733 2300.51 709.6 2298.24 707.6C2296.11 705.6 2293.11 704.6 2289.24 704.6C2285.51 704.6 2282.44 705.667 2280.04 707.8C2277.78 709.933 2276.64 713 2276.64 717V742.8L2288.84 739.4ZM2341.97 818H2362.57C2365.64 818 2368.04 816.933 2369.77 814.8C2371.64 812.8 2372.57 810.2 2372.57 807V798.2H2355.97C2348.64 798.2 2342.44 795.8 2337.37 791C2332.3 786.2 2329.77 780.2 2329.77 773V719.2C2329.77 712 2332.3 706 2337.37 701.2C2342.57 696.4 2348.84 694 2356.17 694H2388.77V805.6C2388.77 813.067 2386.7 819 2382.57 823.4C2378.57 827.8 2372.9 830 2365.57 830H2341.97V818ZM2372.77 786.2V706H2359.37C2355.64 706 2352.44 707.267 2349.77 709.8C2347.1 712.333 2345.77 715.467 2345.77 719.2V773C2345.77 776.733 2347.1 779.867 2349.77 782.4C2352.44 784.933 2355.64 786.2 2359.37 786.2H2372.77ZM2410.72 694H2423.12L2424.92 701.4L2429.92 699C2434.19 696.867 2437.72 695.267 2440.52 694.2C2443.45 693.133 2446.39 692.6 2449.32 692.6V704.4C2447.59 704.4 2445.25 704.933 2442.32 706C2439.39 706.933 2434.19 709.2 2426.72 712.8V798H2410.72V694ZM2485.43 798C2480.63 798 2476.17 796.8 2472.03 794.4C2468.03 792 2464.83 788.733 2462.43 784.6C2460.17 780.467 2459.03 775.8 2459.03 770.6V760.2C2459.03 753.933 2460.57 748.667 2463.63 744.4C2466.83 740.133 2470.77 737.133 2475.43 735.4L2500.23 726.2V716.8C2500.23 713.6 2499.23 711 2497.23 709C2495.37 706.867 2492.9 705.8 2489.83 705.8H2467.23V694H2491.23C2498.57 694 2504.37 696.2 2508.63 700.6C2513.03 704.867 2515.23 710.733 2515.23 718.2V798H2485.43ZM2500.23 785.8V738.8L2482.63 745.4C2479.17 746.733 2476.7 748.533 2475.23 750.8C2473.9 753.067 2473.23 756.667 2473.23 761.6V772.8C2473.23 776.4 2474.57 779.467 2477.23 782C2479.9 784.533 2483.1 785.8 2486.83 785.8H2500.23ZM2563.68 798C2555.28 798 2548.48 795.533 2543.28 790.6C2538.08 785.667 2535.48 779.067 2535.48 770.8V721C2535.48 715.267 2537.01 710.4 2540.08 706.4C2543.28 702.4 2547.21 699.667 2551.88 698.2L2578.68 688.8V658H2594.68V798H2563.68ZM2578.68 786V702L2560.88 708C2557.41 709.067 2554.95 710.8 2553.48 713.2C2552.15 715.467 2551.48 719.133 2551.48 724.2V770.8C2551.48 775.6 2552.88 779.333 2555.68 782C2558.48 784.667 2562.28 786 2567.08 786H2578.68ZM2644.13 799.4C2634.79 799.4 2627.53 797.067 2622.33 792.4C2617.26 787.6 2614.73 781 2614.73 772.6V719.4C2614.73 711 2617.26 704.467 2622.33 699.8C2627.53 695 2634.79 692.6 2644.13 692.6C2653.46 692.6 2660.66 695 2665.73 699.8C2670.93 704.467 2673.53 711 2673.53 719.4V772.6C2673.53 781 2670.93 787.6 2665.73 792.4C2660.66 797.067 2653.46 799.4 2644.13 799.4ZM2644.13 787C2648.39 787 2651.73 785.8 2654.13 783.4C2656.66 780.867 2657.93 777.267 2657.93 772.6V719.4C2657.93 714.733 2656.66 711.2 2654.13 708.8C2651.73 706.267 2648.39 705 2644.13 705C2639.86 705 2636.46 706.267 2633.93 708.8C2631.53 711.2 2630.33 714.733 2630.33 719.4V772.6C2630.33 777.267 2631.53 780.867 2633.93 783.4C2636.46 785.8 2639.86 787 2644.13 787ZM2687.53 786H2704.53C2710.26 786 2714.4 784.467 2716.93 781.4C2719.6 778.2 2720.93 774.067 2720.93 769C2720.93 765 2719.73 761.6 2717.33 758.8C2714.93 756 2711.33 752.733 2706.53 749C2702.4 745.667 2699.06 742.8 2696.53 740.4C2694.13 737.867 2692 734.8 2690.13 731.2C2688.4 727.467 2687.53 723.2 2687.53 718.4C2687.53 711.333 2689.86 705.533 2694.53 701C2699.33 696.333 2705.73 694 2713.73 694H2731.13V706H2716.73C2707.26 706 2702.53 710.467 2702.53 719.4C2702.53 722.867 2703.6 725.867 2705.73 728.4C2707.86 730.933 2711.2 733.933 2715.73 737.4C2719.86 740.6 2723.26 743.533 2725.93 746.2C2728.6 748.733 2730.86 752 2732.73 756C2734.6 759.867 2735.53 764.467 2735.53 769.8C2735.53 779.267 2733 786.333 2727.93 791C2723 795.667 2716 798 2706.93 798H2687.53V786ZM2775.77 798L2830.57 658H2846.97L2793.17 798H2775.77ZM1325.4 1003C1317 1003 1310.2 1000.53 1305 995.6C1299.8 990.667 1297.2 984.067 1297.2 975.8V926C1297.2 920.267 1298.73 915.4 1301.8 911.4C1305 907.4 1308.93 904.667 1313.6 903.2L1340.4 893.8V863H1356.4V1003H1325.4ZM1340.4 991V907L1322.6 913C1319.13 914.067 1316.67 915.8 1315.2 918.2C1313.87 920.467 1313.2 924.133 1313.2 929.2V975.8C1313.2 980.6 1314.6 984.333 1317.4 987C1320.2 989.667 1324 991 1328.8 991H1340.4ZM1405.85 1004.4C1396.51 1004.4 1389.25 1002.07 1384.05 997.4C1378.98 992.6 1376.45 986 1376.45 977.6V924.4C1376.45 916 1378.98 909.467 1384.05 904.8C1389.25 900 1396.51 897.6 1405.85 897.6C1415.18 897.6 1422.38 900 1427.45 904.8C1432.65 909.467 1435.25 916 1435.25 924.4V977.6C1435.25 986 1432.65 992.6 1427.45 997.4C1422.38 1002.07 1415.18 1004.4 1405.85 1004.4ZM1405.85 992C1410.11 992 1413.45 990.8 1415.85 988.4C1418.38 985.867 1419.65 982.267 1419.65 977.6V924.4C1419.65 919.733 1418.38 916.2 1415.85 913.8C1413.45 911.267 1410.11 910 1405.85 910C1401.58 910 1398.18 911.267 1395.65 913.8C1393.25 916.2 1392.05 919.733 1392.05 924.4V977.6C1392.05 982.267 1393.25 985.867 1395.65 988.4C1398.18 990.8 1401.58 992 1405.85 992ZM1477.25 1003C1469.92 1003 1464.05 1000.8 1459.65 996.4C1455.38 992 1453.25 986.067 1453.25 978.6V925.4C1453.25 917 1455.45 910.533 1459.85 906C1464.25 901.333 1470.65 899 1479.05 899H1501.25V911H1479.45C1476.38 911 1473.92 912.067 1472.05 914.2C1470.18 916.2 1469.25 918.8 1469.25 922V980C1469.25 983.2 1470.18 985.867 1472.05 988C1474.05 990 1476.58 991 1479.65 991H1501.25V1003H1477.25ZM1527.41 1004.4C1522.61 1004.4 1519.01 1002.73 1516.61 999.4C1514.34 996.067 1513.21 991.733 1513.21 986.4V899H1529.21V981.2C1529.21 984.933 1529.48 987.6 1530.01 989.2C1530.54 990.8 1531.81 991.6 1533.81 991.6C1534.74 991.6 1542.28 989.6 1556.41 985.6V899H1572.41V1003H1561.01L1558.01 996.2C1555.88 997 1554.28 997.533 1553.21 997.8C1546.94 1000.07 1541.88 1001.73 1538.01 1002.8C1534.14 1003.87 1530.61 1004.4 1527.41 1004.4ZM1596.46 899H1608.86L1610.66 904.8L1618.86 902.4C1624.46 900.667 1628.86 899.467 1632.06 898.8C1635.39 898 1638.53 897.6 1641.46 897.6C1647.19 897.6 1651.19 900.133 1653.46 905.2C1657.19 903.867 1662.46 902.267 1669.26 900.4C1676.06 898.533 1681.06 897.6 1684.26 897.6C1689.06 897.6 1692.59 899.267 1694.86 902.6C1697.26 905.933 1698.46 910.267 1698.46 915.6V1003H1682.46V920.8C1682.46 916.933 1682.19 914.267 1681.66 912.8C1681.13 911.2 1679.79 910.4 1677.66 910.4C1676.59 910.4 1669.26 912.533 1655.66 916.8V1003H1639.66V920.8C1639.66 916.933 1639.39 914.267 1638.86 912.8C1638.33 911.2 1636.99 910.4 1634.86 910.4C1633.79 910.4 1626.33 912.533 1612.46 916.8V1003H1596.46V899ZM1741.28 1003C1733.95 1003 1728.08 1000.8 1723.68 996.4C1719.42 992 1717.28 986.067 1717.28 978.6V925.4C1717.28 916.733 1719.68 909.933 1724.48 905C1729.28 900.067 1736.42 897.6 1745.88 897.6C1755.35 897.6 1762.42 900.067 1767.08 905C1771.88 909.933 1774.28 916.733 1774.28 925.4V934.6C1774.28 940.2 1772.68 944.467 1769.48 947.4C1766.28 950.2 1762.08 952.333 1756.88 953.8L1733.28 960.4V980C1733.28 983.2 1734.22 985.867 1736.08 988C1738.08 990 1740.62 991 1743.68 991H1765.28V1003H1741.28ZM1745.48 944.4C1749.88 943.2 1752.82 942.333 1754.28 941.8C1755.88 941.133 1756.95 940.2 1757.48 939C1758.02 937.8 1758.28 935.8 1758.28 933V922C1758.28 917.733 1757.15 914.6 1754.88 912.6C1752.75 910.6 1749.75 909.6 1745.88 909.6C1742.15 909.6 1739.08 910.667 1736.68 912.8C1734.42 914.933 1733.28 918 1733.28 922V947.8L1745.48 944.4ZM1790.21 899H1802.61L1804.41 904.8L1812.61 902.4C1818.21 900.667 1822.61 899.467 1825.81 898.8C1829.14 898 1832.28 897.6 1835.21 897.6C1840.01 897.6 1843.54 899.267 1845.81 902.6C1848.08 905.933 1849.21 910.267 1849.21 915.6V1003H1833.21V920.8C1833.21 916.933 1832.94 914.267 1832.41 912.8C1831.88 911.2 1830.54 910.4 1828.41 910.4C1827.34 910.4 1819.94 912.533 1806.21 916.8V1003H1790.21V899ZM1900.46 1003C1893.13 1003 1887.33 1000.8 1883.06 996.4C1878.79 992 1876.66 986.067 1876.66 978.6V911H1864.66V899H1876.66V868.8L1892.66 862.8V899H1908.66V911H1892.66V980C1892.66 983.2 1893.53 985.867 1895.26 988C1897.13 990 1899.59 991 1902.66 991H1908.66V1003H1900.46ZM1949.99 1004.4C1940.65 1004.4 1933.39 1002.07 1928.19 997.4C1923.12 992.6 1920.59 986 1920.59 977.6V924.4C1920.59 916 1923.12 909.467 1928.19 904.8C1933.39 900 1940.65 897.6 1949.99 897.6C1959.32 897.6 1966.52 900 1971.59 904.8C1976.79 909.467 1979.39 916 1979.39 924.4V977.6C1979.39 986 1976.79 992.6 1971.59 997.4C1966.52 1002.07 1959.32 1004.4 1949.99 1004.4ZM1949.99 992C1954.25 992 1957.59 990.8 1959.99 988.4C1962.52 985.867 1963.79 982.267 1963.79 977.6V924.4C1963.79 919.733 1962.52 916.2 1959.99 913.8C1957.59 911.267 1954.25 910 1949.99 910C1945.72 910 1942.32 911.267 1939.79 913.8C1937.39 916.2 1936.19 919.733 1936.19 924.4V977.6C1936.19 982.267 1937.39 985.867 1939.79 988.4C1942.32 990.8 1945.72 992 1949.99 992ZM1993.39 991H2010.39C2016.12 991 2020.26 989.467 2022.79 986.4C2025.46 983.2 2026.79 979.067 2026.79 974C2026.79 970 2025.59 966.6 2023.19 963.8C2020.79 961 2017.19 957.733 2012.39 954C2008.26 950.667 2004.92 947.8 2002.39 945.4C1999.99 942.867 1997.86 939.8 1995.99 936.2C1994.26 932.467 1993.39 928.2 1993.39 923.4C1993.39 916.333 1995.72 910.533 2000.39 906C2005.19 901.333 2011.59 899 2019.59 899H2036.99V911H2022.59C2013.12 911 2008.39 915.467 2008.39 924.4C2008.39 927.867 2009.46 930.867 2011.59 933.4C2013.72 935.933 2017.06 938.933 2021.59 942.4C2025.72 945.6 2029.12 948.533 2031.79 951.2C2034.46 953.733 2036.72 957 2038.59 961C2040.46 964.867 2041.39 969.467 2041.39 974.8C2041.39 984.267 2038.86 991.333 2033.79 996C2028.86 1000.67 2021.86 1003 2012.79 1003H1993.39V991ZM2089.43 882V866H2105.43V882H2089.43ZM2089.43 1003V899H2105.43V1003H2089.43ZM2129.47 899H2141.87L2143.67 904.8L2151.87 902.4C2157.47 900.667 2161.87 899.467 2165.07 898.8C2168.4 898 2171.54 897.6 2174.47 897.6C2179.27 897.6 2182.8 899.267 2185.07 902.6C2187.34 905.933 2188.47 910.267 2188.47 915.6V1003H2172.47V920.8C2172.47 916.933 2172.2 914.267 2171.67 912.8C2171.14 911.2 2169.8 910.4 2167.67 910.4C2166.6 910.4 2159.2 912.533 2145.47 916.8V1003H2129.47V899ZM2239.72 1003C2232.39 1003 2226.59 1000.8 2222.32 996.4C2218.05 992 2215.92 986.067 2215.92 978.6V911H2203.92V899H2215.92V868.8L2231.92 862.8V899H2247.92V911H2231.92V980C2231.92 983.2 2232.79 985.867 2234.52 988C2236.39 990 2238.85 991 2241.92 991H2247.92V1003H2239.72ZM2284.64 1003C2277.31 1003 2271.44 1000.8 2267.04 996.4C2262.78 992 2260.64 986.067 2260.64 978.6V925.4C2260.64 916.733 2263.04 909.933 2267.84 905C2272.64 900.067 2279.78 897.6 2289.24 897.6C2298.71 897.6 2305.78 900.067 2310.44 905C2315.24 909.933 2317.64 916.733 2317.64 925.4V934.6C2317.64 940.2 2316.04 944.467 2312.84 947.4C2309.64 950.2 2305.44 952.333 2300.24 953.8L2276.64 960.4V980C2276.64 983.2 2277.58 985.867 2279.44 988C2281.44 990 2283.98 991 2287.04 991H2308.64V1003H2284.64ZM2288.84 944.4C2293.24 943.2 2296.18 942.333 2297.64 941.8C2299.24 941.133 2300.31 940.2 2300.84 939C2301.38 937.8 2301.64 935.8 2301.64 933V922C2301.64 917.733 2300.51 914.6 2298.24 912.6C2296.11 910.6 2293.11 909.6 2289.24 909.6C2285.51 909.6 2282.44 910.667 2280.04 912.8C2277.78 914.933 2276.64 918 2276.64 922V947.8L2288.84 944.4ZM2333.77 1003V863H2349.77V1003H2333.77ZM2373.61 882V866H2389.61V882H2373.61ZM2373.61 1003V899H2389.61V1003H2373.61ZM2422.05 1023H2442.65C2445.72 1023 2448.12 1021.93 2449.85 1019.8C2451.72 1017.8 2452.65 1015.2 2452.65 1012V1003.2H2436.05C2428.72 1003.2 2422.52 1000.8 2417.45 996C2412.38 991.2 2409.85 985.2 2409.85 978V924.2C2409.85 917 2412.38 911 2417.45 906.2C2422.65 901.4 2428.92 899 2436.25 899H2468.85V1010.6C2468.85 1018.07 2466.78 1024 2462.65 1028.4C2458.65 1032.8 2452.98 1035 2445.65 1035H2422.05V1023ZM2452.85 991.2V911H2439.45C2435.72 911 2432.52 912.267 2429.85 914.8C2427.18 917.333 2425.85 920.467 2425.85 924.2V978C2425.85 981.733 2427.18 984.867 2429.85 987.4C2432.52 989.933 2435.72 991.2 2439.45 991.2H2452.85ZM2511.6 1003C2504.26 1003 2498.4 1000.8 2494 996.4C2489.73 992 2487.6 986.067 2487.6 978.6V925.4C2487.6 916.733 2490 909.933 2494.8 905C2499.6 900.067 2506.73 897.6 2516.2 897.6C2525.66 897.6 2532.73 900.067 2537.4 905C2542.2 909.933 2544.6 916.733 2544.6 925.4V934.6C2544.6 940.2 2543 944.467 2539.8 947.4C2536.6 950.2 2532.4 952.333 2527.2 953.8L2503.6 960.4V980C2503.6 983.2 2504.53 985.867 2506.4 988C2508.4 990 2510.93 991 2514 991H2535.6V1003H2511.6ZM2515.8 944.4C2520.2 943.2 2523.13 942.333 2524.6 941.8C2526.2 941.133 2527.26 940.2 2527.8 939C2528.33 937.8 2528.6 935.8 2528.6 933V922C2528.6 917.733 2527.46 914.6 2525.2 912.6C2523.06 910.6 2520.06 909.6 2516.2 909.6C2512.46 909.6 2509.4 910.667 2507 912.8C2504.73 914.933 2503.6 918 2503.6 922V947.8L2515.8 944.4ZM2560.52 899H2572.92L2574.72 904.8L2582.92 902.4C2588.52 900.667 2592.92 899.467 2596.12 898.8C2599.46 898 2602.59 897.6 2605.52 897.6C2610.32 897.6 2613.86 899.267 2616.12 902.6C2618.39 905.933 2619.52 910.267 2619.52 915.6V1003H2603.52V920.8C2603.52 916.933 2603.26 914.267 2602.72 912.8C2602.19 911.2 2600.86 910.4 2598.72 910.4C2597.66 910.4 2590.26 912.533 2576.52 916.8V1003H2560.52V899ZM2670.77 1003C2663.44 1003 2657.64 1000.8 2653.37 996.4C2649.11 992 2646.97 986.067 2646.97 978.6V911H2634.97V899H2646.97V868.8L2662.97 862.8V899H2678.97V911H2662.97V980C2662.97 983.2 2663.84 985.867 2665.57 988C2667.44 990 2669.91 991 2672.97 991H2678.97V1003H2670.77ZM2715.7 1003C2708.37 1003 2702.5 1000.8 2698.1 996.4C2693.83 992 2691.7 986.067 2691.7 978.6V925.4C2691.7 916.733 2694.1 909.933 2698.9 905C2703.7 900.067 2710.83 897.6 2720.3 897.6C2729.77 897.6 2736.83 900.067 2741.5 905C2746.3 909.933 2748.7 916.733 2748.7 925.4V934.6C2748.7 940.2 2747.1 944.467 2743.9 947.4C2740.7 950.2 2736.5 952.333 2731.3 953.8L2707.7 960.4V980C2707.7 983.2 2708.63 985.867 2710.5 988C2712.5 990 2715.03 991 2718.1 991H2739.7V1003H2715.7ZM2719.9 944.4C2724.3 943.2 2727.23 942.333 2728.7 941.8C2730.3 941.133 2731.37 940.2 2731.9 939C2732.43 937.8 2732.7 935.8 2732.7 933V922C2732.7 917.733 2731.57 914.6 2729.3 912.6C2727.17 910.6 2724.17 909.6 2720.3 909.6C2716.57 909.6 2713.5 910.667 2711.1 912.8C2708.83 914.933 2707.7 918 2707.7 922V947.8L2719.9 944.4ZM2758.63 991H2775.63C2781.36 991 2785.49 989.467 2788.03 986.4C2790.69 983.2 2792.03 979.067 2792.03 974C2792.03 970 2790.83 966.6 2788.43 963.8C2786.03 961 2782.43 957.733 2777.62 954C2773.49 950.667 2770.16 947.8 2767.63 945.4C2765.23 942.867 2763.09 939.8 2761.23 936.2C2759.49 932.467 2758.63 928.2 2758.63 923.4C2758.63 916.333 2760.96 910.533 2765.63 906C2770.43 901.333 2776.83 899 2784.83 899H2802.23V911H2787.83C2778.36 911 2773.63 915.467 2773.63 924.4C2773.63 927.867 2774.69 930.867 2776.83 933.4C2778.96 935.933 2782.29 938.933 2786.83 942.4C2790.96 945.6 2794.36 948.533 2797.03 951.2C2799.69 953.733 2801.96 957 2803.83 961C2805.69 964.867 2806.63 969.467 2806.63 974.8C2806.63 984.267 2804.09 991.333 2799.03 996C2794.09 1000.67 2787.09 1003 2778.03 1003H2758.63V991Z" fill="#5C5C5C"/>
<path d="M1155 1043H876V751.145L964.145 663H1155V1043ZM925 923.271V963.271H1044.53V923.271H925ZM925 860.594V900.594H1088.25V860.594H925ZM925 795V835H1088.25V795H925Z" fill="white"/>
<g filter="url(#filter0_d_657_257)">
<path d="M1251.5 867.05C1214.11 867.051 1183.8 897.473 1183.8 935H1143.12C1143.12 874.925 1191.64 826.224 1251.5 826.224V867.05Z" fill="white"/>
<path d="M1136.2 935C1136.2 897.473 1105.89 867.051 1068.5 867.05L1068.5 826.224C1128.36 826.224 1176.88 874.925 1176.88 935H1136.2Z" fill="white"/>
<path d="M1068.5 821.95C1105.89 821.949 1136.2 791.527 1136.2 754L1176.88 754C1176.88 814.075 1128.36 862.776 1068.5 862.776L1068.5 821.95Z" fill="white"/>
<path d="M1183.8 754C1183.8 791.527 1214.11 821.949 1251.5 821.95V862.776C1191.64 862.776 1143.12 814.075 1143.12 754L1183.8 754Z" fill="white"/>
</g>
<defs>
<filter id="filter0_d_657_257" x="1013.6" y="736.1" width="248.8" height="246.8" filterUnits="userSpaceOnUse" color-interpolation-filters="sRGB">
<feFlood flood-opacity="0" result="BackgroundImageFix"/>
<feColorMatrix in="SourceAlpha" type="matrix" values="0 0 0 0 0 0 0 0 0 0 0 0 0 0 0 0 0 0 127 0" result="hardAlpha"/>
<feOffset dx="-22" dy="15"/>
<feGaussianBlur stdDeviation="16.45"/>
<feComposite in2="hardAlpha" operator="out"/>
<feColorMatrix type="matrix" values="0 0 0 0 0 0 0 0 0 0 0 0 0 0 0 0 0 0 0.25 0"/>
<feBlend mode="normal" in2="BackgroundImageFix" result="effect1_dropShadow_657_257"/>
<feBlend mode="normal" in="SourceGraphic" in2="effect1_dropShadow_657_257" result="shape"/>
</filter>
</defs>
</svg>
