<svg width="832" height="528" viewBox="0 0 832 528" fill="none" xmlns="http://www.w3.org/2000/svg">
<rect x="36" y="48" width="760" height="448" rx="6" fill="white" stroke="#1E1E1E" stroke-width="4" stroke-linecap="round"/>
<rect x="76" y="192.188" width="224" height="296" rx="6" transform="rotate(-15 76 192.188)" fill="white"/>
<path d="M79.2129 160.27C79.1632 159.702 79.1134 159.133 79.7559 159.928C80.3984 160.722 81.7347 162.897 83.1196 171.979C84.5044 181.06 85.8974 196.982 89.7139 220.957C93.5304 244.932 99.7282 276.477 103.689 294.952C108.63 318.003 111.733 326.961 113.965 336.003C116.222 345.147 118.746 354.129 120.824 368.055C124.35 391.69 129.26 408.216 130.782 412.415C134.266 422.028 133.46 436.186 134.915 456.287C135.212 460.386 136.225 461.433 136.903 462.537C137.581 463.641 138.25 464.729 139.472 465.499C142.185 467.208 147.72 467.39 154.955 467.626C158.726 467.748 162.709 467.242 176.576 464.597C190.444 461.951 214.078 457.018 230.518 454.104C246.958 451.19 255.487 450.444 267.768 448.51C280.048 446.576 295.821 443.477 306.455 441.088C329.692 435.868 344.207 431.708 356.211 429.191C360.791 428.23 366.992 426.798 372.665 425.442C374.579 424.984 373.638 422.778 372.934 421.381C369.207 413.984 366.074 402.604 363.89 394.113C361.28 383.966 357.105 372.725 349.772 345.073C347.382 336.063 345.127 321.752 340.91 303.325C338.635 293.382 337.056 282.488 333.893 269.464C330.315 254.724 328.015 238.69 326.313 229.263C324.906 221.464 321.019 211.52 313.44 191.078C309.772 181.186 306.476 171.121 303.431 159.528C302.044 154.25 301.867 145.027 301.123 139.797C300.379 134.566 299.71 133.478 297.092 133.117C289.991 132.138 283.581 134.282 278.562 136.162C257.864 143.917 238.712 143.989 232.473 145.412C224.903 147.138 211.663 151.565 194.473 153.946C184.522 155.324 165.858 163.073 146.786 167.954C127.969 172.77 102.971 180.174 97.9779 182.642C90.6952 186.243 84.9378 185.815 81.8093 186.375C80.3517 186.636 79.2992 187.454 79.3325 188.033C79.3657 188.611 80.5528 189.081 81.5232 190.15C82.4936 191.22 83.2115 192.876 83.9652 194.842C85.5611 199.004 87.3221 213.266 89.264 232.187C90.5203 244.428 93.7057 253.286 96.428 261.182C98.8882 268.318 100.795 287.878 103.342 300.513C105.072 309.099 109.975 320.17 112.83 326.31C116.373 333.928 117.591 340.93 120.034 349.111C122.319 356.761 124.385 365.79 125.885 372.917C127.053 378.465 129.54 385.029 131.89 401.866C133.617 414.24 136.756 427.806 138.539 434.891C141.503 446.669 144.69 458.957 147.233 464.803C148.271 467.189 148.099 471.334 152.828 472.986C165.906 477.556 181.516 470.25 194.037 467.688C206.714 465.093 224.591 460.092 239.533 455.33C248.818 452.37 257.249 449.144 263.43 447.153C276.068 443.083 291.561 444.405 304.107 442.431C308.755 441.699 313.191 440.186 318.327 439.45C326.195 438.323 333.3 432.072 340.302 429.141C345.79 426.844 355.749 424.309 363.112 421.937C364.848 421.377 367.009 420.441 367.733 415.212C371.294 389.461 363.819 376.826 361.477 366.534C359.928 359.727 355.384 346.31 351.821 335.552C348.901 326.737 348.499 320.797 346.44 313.737C343.588 303.958 339.879 294.916 337.286 288.493C334.347 281.215 334.089 275.177 331.857 266.135C325.627 240.898 325.737 232.499 322.568 219.502C316.679 195.347 317.586 185.776 315.19 178.137C313.305 172.127 311.19 165.464 308.422 157.042C306.449 151.038 306.603 146.176 305.232 143.7C304.478 142.339 303.811 140.655 302.848 139.568C301.884 138.48 300.697 138.011 299.492 137.535C298.287 137.058 297.1 136.589 295.351 136.447C293.603 136.305 291.328 136.504 289.613 136.94C284.202 138.317 277.944 142.293 272.088 145.124C260.867 150.548 242.762 150.58 232.516 152.354C221.651 154.234 204.602 157.392 197.032 160.372C188.438 163.755 179.259 165.408 173.068 167.678C164.663 170.758 156.824 173.726 150.408 176.605C143.337 179.779 132.316 184.552 124.077 186.436C110.577 189.523 101.668 191.869 99.1419 192.672C95.9482 192.387 89.0215 192.403 82.1452 193.291C80.3866 193.731 82.1423 194.151 83.9512 194.583" stroke="#77CFE0" stroke-width="4" stroke-linecap="round" stroke-linejoin="round"/>
<rect x="282.531" y="86.9941" width="224" height="296" rx="6" fill="white"/>
<path d="M293.898 56.9957C293.998 56.4336 294.097 55.8714 294.512 56.8052C294.927 57.739 295.654 60.1858 294.642 69.3163C293.629 78.4467 290.854 94.1866 288.335 118.332C285.816 142.478 283.638 174.552 282.682 193.423C281.489 216.968 282.168 226.423 281.983 235.735C281.797 245.152 281.91 254.481 280.313 268.47C277.602 292.212 278.067 309.446 278.45 313.896C279.328 324.083 274.885 337.55 271.088 357.343C270.314 361.378 271.021 362.653 271.391 363.895C271.76 365.137 272.124 366.36 273.105 367.42C275.283 369.773 280.583 371.382 287.51 373.482C291.122 374.576 295.099 375.118 309.179 376.152C323.259 377.185 347.364 378.538 363.998 379.978C380.632 381.418 389.064 382.905 401.427 384.215C413.789 385.526 429.826 386.615 440.717 387.059C464.513 388.032 479.61 387.77 491.856 388.445C496.529 388.703 502.89 388.924 508.72 389.083C510.688 389.136 510.35 386.762 510.031 385.23C508.345 377.12 508.264 365.317 508.352 356.55C508.457 346.074 507.334 334.135 507.408 305.527C507.432 296.205 508.957 281.799 509.653 262.908C510.029 252.715 511.323 241.783 511.64 228.385C511.998 213.221 513.926 197.138 514.723 187.591C515.381 179.694 514.201 169.083 512.171 147.376C511.189 136.872 510.61 126.296 510.668 114.31C510.695 108.854 512.911 99.8991 513.546 94.654C514.181 89.409 513.817 88.1856 511.381 87.1588C504.776 84.3749 498.029 84.787 492.695 85.3042C470.695 87.4376 452.177 82.5508 445.782 82.3103C438.023 82.0183 424.089 82.8674 406.868 80.718C396.899 79.4737 376.866 82.1285 357.181 81.9068C337.758 81.688 311.696 82.37 306.234 83.462C298.267 85.0546 292.817 83.1512 289.65 82.8826C288.175 82.7575 286.946 83.2753 286.829 83.8429C286.711 84.4106 287.736 85.1709 288.397 86.4554C289.057 87.7399 289.322 89.5254 289.541 91.6191C290.005 96.0528 288.015 110.284 284.994 129.063C283.039 141.213 283.823 150.592 284.409 158.925C284.939 166.454 281.718 185.841 280.908 198.705C280.357 207.446 282.228 219.408 283.396 226.078C284.847 234.353 284.211 241.432 284.453 249.967C284.68 257.948 284.339 267.204 283.943 274.476C283.636 280.138 284.339 287.122 282.251 303.993C280.717 316.393 280.237 330.309 280.126 337.613C279.941 349.757 279.839 362.451 280.782 368.756C281.167 371.33 279.929 375.289 284.068 378.109C295.517 385.908 312.487 382.891 325.244 383.657C338.161 384.431 356.724 384.228 372.388 383.495C382.123 383.039 391.102 382.105 397.588 381.782C410.849 381.121 425.472 386.409 438.101 387.749C442.78 388.245 447.457 387.932 452.608 388.55C460.5 389.498 468.981 385.298 476.502 384.28C482.398 383.481 492.674 383.61 500.4 383.224C502.222 383.134 504.551 382.788 506.603 377.925C516.709 353.973 512.758 339.833 513.16 329.287C513.425 322.31 512.509 308.174 511.852 296.861C511.313 287.591 512.461 281.749 512.3 274.396C512.076 264.213 510.834 254.519 509.991 247.643C509.037 239.853 510.35 233.954 510.534 224.642C511.048 198.652 513.328 190.569 513.631 177.194C514.195 152.338 517.548 143.327 517.211 135.329C516.945 129.036 516.627 122.053 516.133 113.201C515.781 106.891 517.189 102.234 516.505 99.4878C516.129 97.9777 515.92 96.1793 515.271 94.8793C514.622 93.5792 513.597 92.8189 512.556 92.047C511.516 91.2751 510.491 90.5147 508.838 89.9247C507.186 89.3348 504.937 88.9383 503.167 88.916C497.585 88.8457 490.511 91.0666 484.122 92.2849C471.879 94.6196 454.382 89.9654 444.027 89.0264C433.045 88.0307 415.761 86.6682 407.677 87.5876C398.5 88.6314 389.206 87.8522 382.638 88.4418C373.722 89.2422 365.382 90.08 358.44 91.2007C350.788 92.4359 338.908 94.1939 330.462 93.8814C316.623 93.3695 307.41 93.3295 304.762 93.4512C301.751 92.3494 295.056 90.5717 288.185 89.6499C286.372 89.62 287.959 90.4795 289.595 91.3651" stroke="#77CFE0" stroke-width="4" stroke-linecap="round" stroke-linejoin="round"/>
<rect x="514.734" y="130.918" width="224" height="296" rx="6" transform="rotate(15 514.734 130.918)" fill="white"/>
<path d="M533.478 104.883C533.719 104.366 533.961 103.849 534.12 104.858C534.279 105.867 534.349 108.419 531.007 116.976C527.666 125.534 520.911 140.019 512.229 162.69C503.547 185.361 493.142 215.779 487.334 233.759C480.088 256.192 478.296 265.502 475.708 274.448C473.091 283.496 470.785 292.536 465.622 305.635C456.859 327.867 452.847 344.634 452.066 349.032C450.277 359.099 442.5 370.957 433.71 389.092C431.917 392.79 432.271 394.204 432.306 395.499C432.341 396.795 432.376 398.071 433.05 399.348C434.544 402.185 439.247 405.111 445.395 408.932C448.6 410.924 452.302 412.477 465.634 417.119C478.967 421.762 501.901 429.307 517.595 435.003C533.29 440.699 541.05 444.318 552.652 448.783C564.254 453.249 579.463 458.451 589.867 461.7C612.601 468.798 627.251 472.452 638.905 476.274C643.352 477.732 649.439 479.592 655.029 481.254C656.916 481.815 657.204 479.434 657.293 477.873C657.764 469.603 660.74 458.181 663.094 449.736C665.907 439.643 667.912 427.82 675.388 400.206C677.824 391.208 683.026 377.688 688.587 359.621C691.589 349.872 695.668 339.648 699.441 326.788C703.712 312.234 709.737 297.197 712.977 288.183C715.658 280.724 717.264 270.17 720.921 248.677C722.691 238.276 724.869 227.912 728.028 216.349C729.466 211.085 733.924 203.009 735.895 198.107C737.866 193.205 737.831 191.929 735.743 190.307C730.084 185.909 723.46 184.56 718.174 183.68C696.372 180.046 679.749 170.533 673.635 168.646C666.216 166.356 652.536 163.569 636.459 157.036C627.152 153.254 607.114 150.633 588.157 145.324C569.453 140.086 544.102 133.999 538.543 133.64C530.436 133.117 525.664 129.868 522.675 128.789C521.282 128.286 519.961 128.468 519.701 128.986C519.44 129.504 520.234 130.504 520.539 131.915C520.845 133.327 520.638 135.12 520.308 137.199C519.609 141.602 514.003 154.833 506.224 172.19C501.192 183.42 499.522 192.683 497.931 200.883C496.494 208.293 488.365 226.186 484.253 238.401C481.459 246.702 480.17 258.741 479.572 265.486C478.831 273.855 476.385 280.528 474.41 288.835C472.564 296.602 469.838 305.454 467.574 312.376C465.812 317.766 464.684 324.694 458.301 340.45C453.609 352.03 449.544 365.348 447.546 372.374C444.224 384.057 440.84 396.292 440.119 402.626C439.825 405.212 437.604 408.715 440.873 412.511C449.913 423.007 467.085 424.485 479.21 428.526C491.486 432.618 509.469 437.226 524.79 440.572C534.311 442.651 543.225 444.073 549.573 445.439C562.553 448.234 575.31 457.125 587.162 461.689C591.553 463.379 596.152 464.287 600.967 466.217C608.345 469.175 617.624 467.314 625.152 468.277C631.054 469.032 640.946 471.815 648.509 473.443C650.292 473.826 652.632 474.096 655.873 469.929C671.833 449.409 671.676 434.728 674.794 424.645C676.857 417.975 679.63 404.084 681.923 392.986C683.802 383.892 686.423 378.547 688.17 371.403C690.59 361.508 691.899 351.823 692.865 344.964C693.959 337.191 696.755 331.834 699.342 322.887C706.565 297.916 710.86 290.697 714.614 277.857C721.592 253.994 727.163 246.158 728.907 238.345C730.28 232.198 731.78 225.37 733.593 216.692C734.886 210.506 737.451 206.372 737.502 203.542C737.53 201.986 737.793 200.195 737.503 198.772C737.213 197.348 736.419 196.348 735.614 195.333C734.808 194.318 734.015 193.318 732.571 192.321C731.128 191.323 729.059 190.358 727.355 189.879C721.981 188.366 714.573 188.68 708.087 188.204C695.657 187.29 679.961 178.266 670.201 174.679C659.851 170.875 643.508 165.085 635.462 163.881C626.328 162.514 617.552 159.356 611.055 158.225C602.236 156.691 593.963 155.342 586.968 154.627C579.257 153.84 567.326 152.463 559.249 149.975C546.014 145.899 537.125 143.476 534.537 142.908C531.913 141.065 525.907 137.615 519.508 134.946C517.764 134.448 519.075 135.689 520.426 136.968" stroke="#77CFE0" stroke-width="4" stroke-linecap="round" stroke-linejoin="round"/>
</svg>
