<svg width="1456" height="856" viewBox="0 0 1456 856" fill="none" xmlns="http://www.w3.org/2000/svg">
<rect x="31" y="60" width="465" height="784" rx="6" fill="white" stroke="#1E1E1E" stroke-width="4" stroke-linecap="round"/>
<rect x="496" y="60" width="464" height="784" rx="6" fill="white" stroke="#1E1E1E" stroke-width="4" stroke-linecap="round"/>
<rect x="960" y="60" width="465" height="784" rx="6" fill="white" stroke="#1E1E1E" stroke-width="4" stroke-linecap="round"/>
<path d="M2 147.172H1453.72" stroke="#1E1E1E" stroke-width="4" stroke-linecap="round" stroke-linejoin="bevel"/>
<path d="M2 234.275H1453.72" stroke="#1E1E1E" stroke-width="4" stroke-linecap="round" stroke-linejoin="bevel"/>
<path d="M2 321.379H1453.72" stroke="#1E1E1E" stroke-width="4" stroke-linecap="round" stroke-linejoin="bevel"/>
<path d="M2 408.482H1453.72" stroke="#1E1E1E" stroke-width="4" stroke-linecap="round" stroke-linejoin="bevel"/>
<path d="M2 495.586H1453.72" stroke="#1E1E1E" stroke-width="4" stroke-linecap="round" stroke-linejoin="bevel"/>
<path d="M2 582.688H1453.72" stroke="#1E1E1E" stroke-width="4" stroke-linecap="round" stroke-linejoin="bevel"/>
<path d="M2 669.791H1453.72" stroke="#1E1E1E" stroke-width="4" stroke-linecap="round" stroke-linejoin="bevel"/>
<path d="M2 756.895H1453.72" stroke="#1E1E1E" stroke-width="4" stroke-linecap="round" stroke-linejoin="bevel"/>
<path d="M102.118 82C96.124 86.7539 76.7602 113.199 70.3388 129.855C69.3466 132.429 70.6204 134.383 73.0273 135.305C75.4341 136.227 79.6302 136.227 83.8899 135.332C92.5742 133.508 115.252 112.909 142.508 87.8836C150.777 80.2915 149.384 84.9283 146.359 90.6583C139.464 103.721 134.216 113.307 135.406 117.22C136.088 119.466 141.391 119.344 146.25 118.16C174.646 111.242 198.32 85.6513 210.463 82.6055C212.832 82.0113 214.705 83.193 215.631 85.588C218.026 91.78 214.759 100.636 214.432 104.577C215.904 104.342 220.699 99.5696 218.374 101.287C216.049 103.004 206.458 111.355 194.76 119.959" stroke="#7D7D7D" stroke-width="4" stroke-linecap="round" stroke-linejoin="round"/>
<path d="M200 100C212.662 106.126 229.612 116.027 244.145 115.435C253.873 115.038 261.73 105.589 265.382 102.48C265.802 102.122 261.839 107.921 260.286 111.354C258.733 114.787 259.332 116.619 260.84 117.868C270.95 126.244 299.19 108.106 311.089 103.072C318.461 99.9537 321.081 116.638 328.021 119.719C346.641 127.987 374.273 111.789 393.048 102.832C398.993 99.9953 398.634 103.035 398.326 105.515C397.716 110.409 399.216 115.398 402.531 119.404C404.216 121.441 407.645 121.579 410.088 121.588C412.532 121.597 414.33 120.987 415.557 119.756C416.783 118.525 417.382 116.693 418 116.656" stroke="#7D7D7D" stroke-width="4" stroke-linecap="round" stroke-linejoin="round"/>
<path d="M114.524 229.021C115.723 222.364 119.356 204.114 117.567 192.181C116.601 185.739 110.309 180.889 104.277 176.326C96.8401 170.701 87.3077 170.501 80.3584 171.407C76.9165 171.855 74.0086 174.122 71.8648 176.564C67.6457 181.368 68.4855 191.77 71.8012 204.242C74.8417 215.678 85.4001 223.498 97.173 229.588C109.673 236.054 129.549 232.697 158.799 224.824C202.15 213.156 228.347 194.915 233.488 189.438C235.721 187.06 236.831 185.168 236.55 183.028C236.268 180.889 234.469 178.475 231.744 176.929C225.93 173.633 215.12 176.573 204.229 181.739C199.621 183.924 198.133 187.509 197.506 190.27C196.88 193.031 197.479 195.445 200.186 197.896C206.822 203.903 222.224 205.247 238.557 204.342C249.225 203.751 254.4 197.951 257.425 196.415C258.546 195.845 259.251 199.103 261.358 198.838C267.879 198.017 272.568 188.222 274.394 182.726C274.981 180.96 268.371 189.959 264.737 199.688C261.309 208.869 264.701 218.615 267.417 225.318C268.509 228.013 270.733 228.399 272.859 228.408C283.7 228.455 293.734 212.014 300.12 201.626C301.629 199.171 303.436 196.762 306.161 195.518C308.886 194.275 312.483 194.275 314.636 196.085C319.285 199.994 315.608 208.868 315.872 215.589C316.318 226.988 342.751 212.599 359.43 206.793C367.23 204.077 373.092 200.986 377.925 200.675C387.817 200.039 406.267 207.076 425.444 205.558C429.395 205.247 433.592 205.247 436.953 204.946C440.314 204.644 442.712 204.04 447 203.419" stroke="#7D7D7D" stroke-width="4" stroke-linecap="round" stroke-linejoin="round"/>
<path d="M63.8288 298.027C62.632 295.603 61.4171 291.931 62.3056 285.533C65.2827 264.095 87.3295 257.672 104.257 252.752C108.957 251.386 114.493 252.128 117.567 253.036C135.539 258.35 129.689 302.874 134.222 310.851C137.586 316.771 147.804 316.387 155.946 315.478C163.907 314.589 169.582 308.455 173.807 303.269C182.774 292.261 181.695 279.08 182.592 274.499C183.042 272.203 185.285 270.524 187.407 269.891C189.528 269.257 191.922 269.863 193.454 271.69C204.126 284.414 196.8 308.4 200.399 312.081C212.637 324.597 226.375 295.016 232.749 287.342C234.131 285.677 236.058 284.588 237.881 284.569C241.685 284.531 245.143 288.223 248.761 290.059C256.926 294.203 268.698 283.963 275.96 282.724C280.233 281.995 283.821 289.435 288.944 293.409C298.46 300.794 319.979 289.508 336.371 283.055C358.334 274.408 373.835 276.619 388.658 275.692C404.697 274.159 414.979 274.765 423.102 275.683C428.234 275.995 435.415 275.995 441 277.831" stroke="#7D7D7D" stroke-width="4" stroke-linecap="round" stroke-linejoin="round"/>
<path d="M94.905 353.912C88.9232 361.172 85.2435 367.937 86.1317 373.428C87.1987 380.025 99.6904 379.579 110.231 378.369C122.996 376.904 131.14 371.036 134.457 368.295C136.12 366.921 137.176 364.949 135.998 364.317C134.82 363.684 131.231 364.289 127.886 366.416C120.677 371.001 116.077 381.358 112.751 390.516C111.445 394.112 112.415 396.043 113.92 397.281C117.257 400.026 123.871 399.142 131.702 397.015C151.184 391.724 164.91 365.059 168.327 352.711C168.736 351.233 165.635 350.869 163.813 351.767C159.425 353.931 157.75 360.604 157.442 367.305C157.072 375.349 162.554 381.395 167.375 384.75C171.936 387.923 177.653 388.746 184.877 387.536C204.886 384.184 211.496 368.616 218.139 360.054C224.56 351.779 236.257 349.035 253.096 350.227C263.433 350.958 281.247 355.672 289.893 358.45C298.54 361.227 297.343 363.042 296.129 365.187C293.586 369.679 291.887 374.666 290.383 376.82C289.838 377.6 288.28 373.529 287.963 371.063C287.646 368.597 288.244 366.782 289.449 365.242C295.709 357.245 309.343 352.702 318.742 351.464C326.405 350.455 319.694 369.753 318.47 377.389C318.018 380.207 322.032 380.79 325.068 380.496C349.834 378.103 381.234 349.659 390.641 349.017C395.487 348.686 399.415 353.289 403.031 356.937C412.041 366.027 409.692 375.876 418.121 383.219C430.828 389.351 438.079 390.58 442.601 390.277C444.731 389.975 446.526 389.37 452 388.746" stroke="#1E1E1E" stroke-width="4" stroke-linecap="round" stroke-linejoin="round"/>
<path d="M78 439.176C78.6009 443.407 94.2424 483.203 107.407 503.31C113.306 512.319 119.261 483.02 123.796 469.323C127.429 458.348 138.672 454.988 143.215 454.076C145.335 453.651 147.158 453.766 146.584 455.572C142.351 468.896 136.269 474.412 136.87 478.962C137.161 481.169 138.672 482.911 140.193 484.142C141.713 485.373 143.516 485.975 145.045 485.382C153.818 481.983 159.867 458.143 172.641 443.471C177.503 437.886 183.594 436.75 186.626 437.042C190.378 437.403 189.075 445.231 189.976 449.48C190.877 451.322 192.68 452.526 194.51 453.447C196.34 454.368 198.143 454.97 200 455.59" stroke="#858585" stroke-width="4" stroke-linecap="round" stroke-linejoin="round"/>
<path d="M225.231 434.041C226.428 432.836 227.626 431.63 228.842 430.104C230.058 428.579 231.256 426.77 228.579 429.154C207.295 448.111 199.842 462.632 197.419 468.104C196.393 470.421 197.392 472.37 198.898 473.301C207.901 478.87 257.498 449.497 273.649 443.45C279.438 441.283 263.976 455.306 260.937 462.614C254.178 478.862 306.243 448.693 316.233 445.012C321.728 442.987 327.44 443.779 332.567 446.802C347.918 455.856 351.05 466.907 353.754 469.648C357.823 473.771 364.952 469.976 368.572 468.159C377.036 463.909 383.68 454.192 390.93 445.67C393.752 442.353 395.785 441.97 398.507 443.468C411.519 454.722 427.181 464.441 449.884 469.958C454.475 470.579 456.871 470.579 455.709 470.579" stroke="#858585" stroke-width="4" stroke-linecap="round" stroke-linejoin="round"/>
<path d="M76 524.904C91.6319 534.892 125.68 558.109 135.079 561.678C138.3 562.902 139.073 560.548 139.383 556.115C140.183 544.654 138.491 531.491 133.969 523.177C120.822 499.005 82.6786 553.373 82.6695 556.337C82.6442 564.578 114.652 560.512 142.886 554.023C176.139 546.379 202.129 540.945 207.597 538.862C208.862 538.542 207.06 539.717 203.43 541.791C199.799 543.865 194.395 546.803 188.826 553.39" stroke="#1E1E1E" stroke-width="4" stroke-linecap="round" stroke-linejoin="round"/>
<path d="M234 527.842C234.601 527.236 235.202 526.63 235.812 527.227C242.131 533.406 239.464 556.488 241.878 566.698C242.605 569.777 255.766 548.813 270.328 525.849C275.202 518.164 277.678 520.46 278.907 526.85C280.137 533.241 280.738 544.148 281.949 549.767C283.16 555.387 284.964 555.387 286.794 555.084C290.489 554.472 300.1 549.308 313.141 543.79C327.591 537.676 343.832 554.762 363.54 554.781C383.339 551.108 394.213 548.666 407.874 546.517C414.212 546.205 425.031 546.205 438 546.205" stroke="#1E1E1E" stroke-width="4" stroke-linecap="round" stroke-linejoin="round"/>
<path d="M95.9329 606.703C91.7139 608.486 83.2395 619.243 76.8564 636.964C75.2878 641.319 75.929 645.658 78.3294 649.883C83.7812 659.48 96.4785 664.343 108.872 667.046C121.594 669.82 134.668 666.181 146.161 660.803C158.541 655.009 162.601 642.775 163.819 635.586C165.036 628.402 158.4 621.748 151.453 616.054C143.633 609.645 132.358 607.91 121.774 607.604C111.684 607.312 103.243 612.685 97.7878 618.072C95.2673 620.561 95.9329 624.649 98.3334 628.568C110.073 647.734 140.051 648.721 164.037 648.757C178.091 648.778 189.842 639.766 195.916 634.964C197.669 633.579 194.789 632.541 192.352 632.235C187.543 631.63 183.241 631.334 182.614 631.622C164.855 639.782 221.958 646.343 232.587 643.955C238.906 642.536 243.817 636.757 246.253 633.748C246.652 633.255 243.889 634.307 242.353 635.811C240.816 637.316 240.216 639.1 241.407 639.721C245.116 641.657 251.091 637.352 255.628 633.163C260.534 628.633 262.02 622.937 262.029 621.424C262.051 617.87 256.583 630.09 254.764 636.982C253.149 643.104 254.746 648.127 256.556 650.829C257.398 652.088 259.565 651.748 261.693 650.559C275.349 642.926 280.187 619.388 285.643 611.225C286.77 609.539 289.862 610.306 291.999 610.901C300.99 613.403 306.847 628.253 313.821 636.712C315.708 639.001 320.741 638.523 324.405 637.64C339.445 634.016 347.455 615.784 355.02 606.459C363.087 596.516 377.152 619.892 400.738 620.523C413.45 618.739 421.434 616.919 425.362 616.315C427.489 616.306 429.89 616.901 436 619.315" stroke="#1E1E1E" stroke-width="4" stroke-linecap="round" stroke-linejoin="round"/>
<path d="M99.6656 699C91.8628 709.199 73.1177 737.599 66.1314 750.946C53.0219 775.991 104.474 715.35 109.31 713.527C120.359 709.36 113.566 743.134 116.578 747.362C119.588 751.587 125.052 751.626 128.672 751.327C137.427 750.603 156.971 720.994 170.409 711.086C172.165 709.791 174.029 714.679 175.853 715.314C179.312 716.519 183.12 711.122 186.74 707.792C188.249 706.405 190.36 707.457 192.184 709.262C202.557 719.532 199.47 739.468 201.874 747.67C202.421 749.536 204.877 750.392 208.498 748.315C232.791 734.371 236.361 709.308 237.268 711.966C238.904 716.758 237.577 729.596 239.074 736.374C240.571 743.152 243.565 743.751 252.593 741.065C295.32 728.353 304.065 724.406 323.654 722.6C370.471 718.285 392.292 718.962 405.393 720.468C411.674 721.19 417.206 721.375 420.228 723.48C423.761 725.942 423.267 731.646 425.073 733.171C431.723 726.239 435.97 720.795 436.877 717.174C437.185 715.35 437.185 713.554 439 711.703" stroke="#858585" stroke-width="4" stroke-linecap="round" stroke-linejoin="round"/>
<path d="M78 786C81.6126 787.196 92.4505 795.608 108.789 814.905C123.647 832.453 129.43 847.616 127.043 847.942C101.702 851.406 96.1902 815.675 91.6426 805.406C90.0997 801.921 92.4868 801.118 95.5094 800.81C111.778 799.152 150.325 805.324 175.078 804.137C177.891 804.002 179.625 802.931 180.851 803.52C187.669 806.799 189.319 819.192 195.047 823.443C201.936 828.556 211.086 809.62 218.338 802.36C231.868 788.816 226.843 853.67 231.064 853.979C246.664 855.118 256.452 810.364 262.543 796.587C263.284 794.91 267.345 797.457 269.786 799.868C275.015 805.031 275.877 814.352 277.075 821.603C277.522 824.306 280.67 824.068 283.102 823.47C297.789 819.858 313.346 805.36 322.133 804.427C341.687 802.349 371.983 802.351 407.066 794.484C413.828 793.251 415.625 793.251 418.648 792.952C421.67 792.653 425.864 792.055 432 791.438" stroke="#1E1E1E" stroke-width="4" stroke-linecap="round" stroke-linejoin="round"/>
<path d="M540.905 88.8138C534.923 95.9288 531.243 102.559 532.132 107.94C533.199 114.405 545.69 113.968 556.231 112.782C568.996 111.346 577.14 105.595 580.457 102.909C582.12 101.563 583.176 99.63 581.998 99.0102C580.82 98.3903 577.231 98.9832 573.886 101.067C566.677 105.561 562.077 115.711 558.751 124.685C557.445 128.209 558.415 130.102 559.92 131.315C563.257 134.006 569.871 133.139 577.702 131.055C597.184 125.869 610.91 99.7378 614.327 87.6369C614.736 86.1886 611.635 85.8312 609.813 86.7116C605.425 88.8327 603.75 95.3718 603.442 101.939C603.072 109.822 608.554 115.747 613.375 119.035C617.936 122.145 623.653 122.952 630.877 121.766C650.886 118.481 657.496 103.223 664.139 94.8328C670.56 86.7234 682.257 84.0345 699.096 85.2023C709.433 85.9192 727.247 90.5386 735.893 93.2607C744.54 95.9827 743.343 97.7614 742.129 99.8636C739.586 104.265 737.887 109.153 736.383 111.264C735.838 112.028 734.28 108.039 733.963 105.622C733.646 103.206 734.244 101.427 735.449 99.9175C741.709 92.0797 755.343 87.6279 764.742 86.4151C772.405 85.4263 765.694 104.337 764.47 111.821C764.018 114.583 768.032 115.154 771.068 114.866C795.834 112.521 827.234 84.6454 836.641 84.0165C841.487 83.6926 845.415 88.2029 849.031 91.7784C858.041 100.686 855.692 110.339 864.121 117.534C876.828 123.544 884.079 124.748 888.601 124.452C890.731 124.155 892.526 123.562 898 122.952" stroke="#1E1E1E" stroke-width="4" stroke-linecap="round" stroke-linejoin="round"/>
<path d="M532 179.079C547.632 189.289 581.68 213.022 591.079 216.671C594.3 217.922 595.073 215.516 595.383 210.984C596.183 199.268 594.491 185.813 589.969 177.314C576.822 152.605 538.679 208.181 538.669 211.211C538.644 219.635 570.652 215.479 598.886 208.845C632.139 201.032 658.129 195.477 663.597 193.348C664.862 193.02 663.06 194.222 659.43 196.342C655.799 198.462 650.395 201.465 644.826 208.199" stroke="#1E1E1E" stroke-width="4" stroke-linecap="round" stroke-linejoin="round"/>
<path d="M690 182.693C690.598 182.1 691.196 181.507 691.803 182.091C698.091 188.137 695.437 210.717 697.839 220.705C698.563 223.716 711.659 203.208 726.15 180.744C731 173.225 733.464 175.472 734.687 181.723C735.911 187.974 736.509 198.645 737.714 204.142C738.919 209.639 740.714 209.639 742.535 209.343C746.212 208.744 755.776 203.693 768.753 198.295C783.132 192.314 799.294 209.028 818.905 209.046C838.607 205.453 849.427 203.064 863.021 200.962C869.329 200.657 880.095 200.657 893 200.657" stroke="#1E1E1E" stroke-width="4" stroke-linecap="round" stroke-linejoin="round"/>
<path d="M556.933 253.703C552.714 255.486 544.24 266.243 537.856 283.964C536.288 288.319 536.929 292.658 539.329 296.883C544.781 306.48 557.478 311.343 569.872 314.046C582.594 316.82 595.668 313.181 607.161 307.803C619.541 302.009 623.601 289.775 624.819 282.586C626.036 275.402 619.4 268.748 612.453 263.054C604.633 256.645 593.358 254.91 582.774 254.604C572.684 254.312 564.243 259.685 558.788 265.072C556.267 267.561 556.933 271.649 559.333 275.568C571.073 294.734 601.051 295.721 625.037 295.757C639.091 295.778 650.842 286.766 656.916 281.964C658.669 280.579 655.789 279.541 653.352 279.235C648.543 278.63 644.241 278.334 643.614 278.622C625.855 286.782 682.958 293.343 693.587 290.955C699.906 289.536 704.817 283.757 707.253 280.748C707.652 280.255 704.889 281.307 703.353 282.811C701.816 284.316 701.216 286.1 702.407 286.721C706.116 288.657 712.091 284.352 716.628 280.163C721.534 275.633 723.02 269.937 723.029 268.424C723.051 264.87 717.583 277.09 715.764 283.982C714.149 290.104 715.746 295.127 717.556 297.829C718.398 299.088 720.565 298.748 722.693 297.559C736.349 289.926 741.187 266.388 746.643 258.225C747.77 256.539 750.862 257.306 752.999 257.901C761.99 260.403 767.847 275.253 774.821 283.712C776.708 286.001 781.741 285.523 785.405 284.64C800.445 281.016 808.455 262.784 816.02 253.459C824.087 243.516 838.152 266.892 861.738 267.523C874.45 265.739 882.434 263.919 886.362 263.315C888.489 263.306 890.89 263.901 897 266.315" stroke="#1E1E1E" stroke-width="4" stroke-linecap="round" stroke-linejoin="round"/>
<path d="M539 345C542.613 346.196 553.45 354.608 569.789 373.905C584.647 391.453 590.43 406.616 588.043 406.942C562.702 410.406 557.19 374.675 552.643 364.406C551.1 360.921 553.487 360.118 556.509 359.81C572.778 358.152 611.325 364.324 636.078 363.137C638.891 363.002 640.625 361.931 641.851 362.52C648.669 365.799 650.319 378.192 656.047 382.443C662.936 387.556 672.086 368.62 679.338 361.36C692.868 347.816 687.843 412.67 692.064 412.979C707.664 414.118 717.452 369.364 723.543 355.587C724.284 353.91 728.345 356.457 730.786 358.868C736.015 364.031 736.877 373.352 738.075 380.603C738.522 383.306 741.67 383.068 744.102 382.47C758.789 378.858 774.346 364.36 783.133 363.427C802.687 361.349 832.983 361.351 868.066 353.484C874.828 352.251 876.625 352.251 879.648 351.952C882.67 351.653 886.864 351.055 893 350.438" stroke="#1E1E1E" stroke-width="4" stroke-linecap="round" stroke-linejoin="round"/>
<path d="M461.105 711.344C460.001 711.344 459.105 712.239 459.105 713.344C459.105 714.448 460.001 715.344 461.105 715.344V711.344ZM996.016 453.447C996.797 452.666 996.797 451.4 996.016 450.619L983.288 437.891C982.507 437.11 981.24 437.11 980.459 437.891C979.678 438.672 979.678 439.938 980.459 440.719L991.773 452.033L980.459 463.347C979.678 464.128 979.678 465.394 980.459 466.175C981.24 466.956 982.507 466.956 983.288 466.175L996.016 453.447ZM461.105 713.344V715.344C595.343 715.344 662.539 649.471 729.253 584.117C795.913 518.816 862.091 454.033 994.602 454.033V452.033V450.033C860.364 450.033 793.168 515.906 726.454 581.26C659.794 646.561 593.616 711.344 461.105 711.344V713.344Z" fill="#E8A302"/>
<path d="M1045.12 82C1039.12 86.7539 1019.76 113.199 1013.34 129.855C1012.35 132.429 1013.62 134.383 1016.03 135.305C1018.43 136.227 1022.63 136.227 1026.89 135.332C1035.57 133.508 1058.25 112.909 1085.51 87.8836C1093.78 80.2915 1092.38 84.9283 1089.36 90.6583C1082.46 103.721 1077.22 113.307 1078.41 117.22C1079.09 119.466 1084.39 119.344 1089.25 118.16C1117.65 111.242 1141.32 85.6513 1153.46 82.6055C1155.83 82.0113 1157.7 83.193 1158.63 85.588C1161.03 91.78 1157.76 100.636 1157.43 104.577C1158.9 104.342 1163.7 99.5696 1161.37 101.287C1159.05 103.004 1149.46 111.355 1137.76 119.959" stroke="#FF9E42" stroke-width="4" stroke-linecap="round" stroke-linejoin="round"/>
<path d="M1143 100C1155.66 106.126 1172.61 116.027 1187.14 115.435C1196.87 115.038 1204.73 105.589 1208.38 102.48C1208.8 102.122 1204.84 107.921 1203.29 111.354C1201.73 114.787 1202.33 116.619 1203.84 117.868C1213.95 126.244 1242.19 108.106 1254.09 103.072C1261.46 99.9537 1264.08 116.638 1271.02 119.719C1289.64 127.987 1317.27 111.789 1336.05 102.832C1341.99 99.9953 1341.63 103.035 1341.33 105.515C1340.72 110.409 1342.22 115.398 1345.53 119.404C1347.22 121.441 1350.65 121.579 1353.09 121.588C1355.53 121.597 1357.33 120.987 1358.56 119.756C1359.78 118.525 1360.38 116.693 1361 116.656" stroke="#FF9E42" stroke-width="4" stroke-linecap="round" stroke-linejoin="round"/>
<path d="M1052.52 219.085C1053.72 212.536 1057.36 194.579 1055.57 182.839C1054.6 176.501 1048.31 171.729 1042.28 167.24C1034.84 161.705 1025.31 161.509 1018.36 162.4C1014.92 162.841 1012.01 165.072 1009.86 167.474C1005.65 172.201 1006.49 182.435 1009.8 194.705C1012.84 205.958 1023.4 213.651 1035.17 219.643C1047.67 226.004 1067.55 222.701 1096.8 214.956C1140.15 203.476 1166.35 185.529 1171.49 180.141C1173.72 177.801 1174.83 175.939 1174.55 173.834C1174.27 171.729 1172.47 169.354 1169.74 167.834C1163.93 164.59 1153.12 167.483 1142.23 172.566C1137.62 174.716 1136.13 178.242 1135.51 180.959C1134.88 183.676 1135.48 186.051 1138.19 188.462C1144.82 194.372 1160.22 195.695 1176.56 194.804C1187.23 194.223 1192.4 188.516 1195.42 187.005C1196.55 186.444 1197.25 189.65 1199.36 189.389C1205.88 188.581 1210.57 178.944 1212.39 173.537C1212.98 171.799 1206.37 180.653 1202.74 190.225C1199.31 199.258 1202.7 208.847 1205.42 215.442C1206.51 218.093 1208.73 218.473 1210.86 218.482C1221.7 218.528 1231.73 202.352 1238.12 192.132C1239.63 189.717 1241.44 187.346 1244.16 186.123C1246.89 184.9 1250.48 184.9 1252.64 186.681C1257.28 190.527 1253.61 199.257 1253.87 205.87C1254.32 217.085 1280.75 202.928 1297.43 197.215C1305.23 194.544 1311.09 191.503 1315.92 191.197C1325.82 190.571 1344.27 197.494 1363.44 196.001C1367.4 195.695 1371.59 195.695 1374.95 195.398C1378.31 195.101 1380.71 194.507 1385 193.896" stroke="#FF9E42" stroke-width="4" stroke-linecap="round" stroke-linejoin="round"/>
<path d="M1001.83 288.308C1000.63 285.922 999.417 282.308 1000.31 276.009C1003.28 254.906 1025.33 248.584 1042.26 243.74C1046.96 242.395 1052.49 243.126 1055.57 244.02C1073.54 249.251 1067.69 293.079 1072.22 300.932C1075.59 306.759 1085.8 306.381 1093.95 305.486C1101.91 304.611 1107.58 298.573 1111.81 293.468C1120.77 282.632 1119.69 269.657 1120.59 265.147C1121.04 262.887 1123.29 261.235 1125.41 260.611C1127.53 259.988 1129.92 260.584 1131.45 262.382C1142.13 274.907 1134.8 298.519 1138.4 302.143C1150.64 314.462 1164.38 285.344 1170.75 277.789C1172.13 276.151 1174.06 275.078 1175.88 275.06C1179.69 275.023 1183.14 278.657 1186.76 280.464C1194.93 284.544 1206.7 274.464 1213.96 273.244C1218.23 272.526 1221.82 279.85 1226.94 283.762C1236.46 291.031 1257.98 279.922 1274.37 273.569C1296.33 265.058 1311.83 267.235 1326.66 266.322C1342.7 264.813 1352.98 265.409 1361.1 266.313C1366.23 266.62 1373.41 266.62 1379 268.428" stroke="#FF9E42" stroke-width="4" stroke-linecap="round" stroke-linejoin="round"/>
<path d="M1004 344.144C1004.6 348.313 1020.11 387.523 1033.17 407.335C1039.02 416.212 1044.92 387.344 1049.42 373.848C1053.02 363.034 1064.17 359.724 1068.68 358.825C1070.78 358.406 1072.59 358.52 1072.02 360.299C1067.82 373.427 1061.79 378.862 1062.39 383.345C1062.68 385.519 1064.17 387.236 1065.68 388.449C1067.19 389.662 1068.98 390.255 1070.5 389.671C1079.2 386.321 1085.2 362.833 1097.87 348.376C1102.69 342.873 1108.73 341.754 1111.74 342.041C1115.46 342.397 1114.16 350.11 1115.06 354.297C1115.95 356.112 1117.74 357.298 1119.56 358.205C1121.37 359.113 1123.16 359.706 1125 360.317" stroke="#FF9E42" stroke-width="4" stroke-linecap="round" stroke-linejoin="round"/>
<path d="M1150.23 338.041C1151.43 336.836 1152.63 335.63 1153.84 334.104C1155.06 332.579 1156.26 330.77 1153.58 333.154C1132.3 352.111 1124.84 366.632 1122.42 372.104C1121.39 374.421 1122.39 376.37 1123.9 377.301C1132.9 382.87 1182.5 353.497 1198.65 347.45C1204.44 345.283 1188.98 359.306 1185.94 366.614C1179.18 382.862 1231.24 352.693 1241.23 349.012C1246.73 346.987 1252.44 347.779 1257.57 350.802C1272.92 359.856 1276.05 370.907 1278.75 373.648C1282.82 377.771 1289.95 373.976 1293.57 372.159C1302.04 367.909 1308.68 358.192 1315.93 349.67C1318.75 346.353 1320.78 345.97 1323.51 347.468C1336.52 358.722 1352.18 368.441 1374.88 373.958C1379.48 374.579 1381.87 374.579 1380.71 374.579" stroke="#FF9E42" stroke-width="4" stroke-linecap="round" stroke-linejoin="round"/>
<path d="M1039.67 430C1031.86 440.199 1013.12 468.599 1006.13 481.946C993.022 506.991 1044.47 446.35 1049.31 444.527C1060.36 440.36 1053.57 474.134 1056.58 478.362C1059.59 482.587 1065.05 482.626 1068.67 482.327C1077.43 481.603 1096.97 451.994 1110.41 442.086C1112.16 440.791 1114.03 445.679 1115.85 446.314C1119.31 447.519 1123.12 442.122 1126.74 438.792C1128.25 437.405 1130.36 438.457 1132.18 440.262C1142.56 450.532 1139.47 470.468 1141.87 478.67C1142.42 480.536 1144.88 481.392 1148.5 479.315C1172.79 465.371 1176.36 440.308 1177.27 442.966C1178.9 447.758 1177.58 460.596 1179.07 467.374C1180.57 474.152 1183.57 474.751 1192.59 472.065C1235.32 459.353 1244.06 455.406 1263.65 453.6C1310.47 449.285 1332.29 449.962 1345.39 451.468C1351.67 452.19 1357.21 452.375 1360.23 454.48C1363.76 456.942 1363.27 462.646 1365.07 464.171C1371.72 457.239 1375.97 451.795 1376.88 448.174C1377.19 446.35 1377.19 444.554 1379 442.703" stroke="#FF9E42" stroke-width="4" stroke-linecap="round" stroke-linejoin="round"/>
<path d="M466.551 471.738C465.446 471.738 464.551 472.634 464.551 473.738C464.551 474.843 465.446 475.738 466.551 475.738V471.738ZM990.586 380.861C991.367 380.08 991.367 378.814 990.586 378.033L977.858 365.305C977.077 364.524 975.811 364.524 975.03 365.305C974.249 366.086 974.249 367.353 975.03 368.134L986.343 379.447L975.03 390.761C974.249 391.542 974.249 392.808 975.03 393.589C975.811 394.37 977.077 394.37 977.858 393.589L990.586 380.861ZM466.551 473.738V475.738C597.534 475.738 663.108 452.084 728.54 428.474C793.764 404.939 858.844 381.447 989.172 381.447V379.447V377.447C858.189 377.447 792.614 401.101 727.182 424.712C661.959 448.247 596.879 471.738 466.551 471.738V473.738Z" fill="#E8A302"/>
<path d="M476.152 285.442C475.086 285.151 473.987 285.779 473.696 286.844C473.405 287.91 474.033 289.01 475.098 289.3L476.152 285.442ZM981.8 264.335C982.366 263.386 982.055 262.159 981.106 261.593L965.647 252.373C964.698 251.808 963.47 252.118 962.905 253.067C962.339 254.015 962.649 255.243 963.598 255.809L977.34 264.004L969.145 277.746C968.579 278.694 968.889 279.922 969.838 280.488C970.787 281.054 972.014 280.743 972.58 279.795L981.8 264.335ZM475.625 287.371L475.098 289.3C596.387 322.416 657.334 333.053 720.785 327C752.478 323.976 784.738 316.796 825.38 306.256C866.088 295.7 915.07 281.812 980.572 265.25L980.082 263.311L979.592 261.372C914.141 277.921 864.908 291.874 824.376 302.385C783.776 312.913 751.769 320.026 720.405 323.018C657.742 328.995 597.414 318.55 476.152 285.442L475.625 287.371Z" fill="#E8A302"/>
<path d="M466.154 203.279C465.072 203.498 464.371 204.553 464.591 205.636C464.81 206.719 465.865 207.419 466.947 207.2L466.154 203.279ZM990.278 209.994C991.198 209.383 991.449 208.142 990.838 207.222L980.887 192.222C980.277 191.302 979.035 191.051 978.115 191.662C977.195 192.272 976.943 193.513 977.554 194.434L986.4 207.766L973.067 216.612C972.147 217.223 971.896 218.464 972.506 219.384C973.117 220.305 974.358 220.556 975.278 219.945L990.278 209.994ZM466.551 205.239L466.947 207.2C597.66 180.752 662.759 168.362 727.83 169.131C792.922 169.9 858.023 183.834 988.775 210.288L989.172 208.327L989.568 206.367C859 179.951 793.442 165.906 727.878 165.132C662.294 164.357 596.742 176.857 466.154 203.279L466.551 205.239Z" fill="#E8A302"/>
<path d="M474.529 105.112C473.605 105.717 473.347 106.957 473.952 107.881C474.558 108.805 475.797 109.063 476.721 108.458L474.529 105.112ZM980.892 84.5507C981.902 84.1031 982.358 82.9216 981.91 81.9118L974.616 65.4559C974.169 64.4461 972.987 63.9903 971.977 64.4379C970.968 64.8856 970.512 66.067 970.959 67.0768L977.443 81.7043L962.816 88.1879C961.806 88.6355 961.35 89.817 961.798 90.8268C962.245 91.8366 963.427 92.2924 964.437 91.8448L980.892 84.5507ZM475.625 106.785L476.721 108.458C523.526 77.7825 558.456 53.3876 589.622 35.864C620.724 18.3767 647.896 7.84405 679.052 4.87167C710.239 1.89627 745.585 6.48057 793.048 19.5058C840.518 32.5329 899.976 53.9641 979.362 84.5882L980.082 82.7223L980.802 80.8563C901.413 50.2314 841.789 28.7339 794.107 15.6485C746.418 2.56124 710.542 -2.15073 678.672 0.889747C646.771 3.93324 619.051 14.7286 587.662 32.3773C556.337 49.9898 521.177 74.539 474.529 105.112L475.625 106.785Z" fill="#E8A302"/>
</svg>
