<svg width="832" height="528" viewBox="0 0 832 528" fill="none" xmlns="http://www.w3.org/2000/svg">
<rect x="32" y="48" width="256" height="448" rx="6" fill="white" stroke="#1E1E1E" stroke-width="4" stroke-linecap="round"/>
<rect x="288" y="48" width="256" height="448" rx="6" fill="white" stroke="#1E1E1E" stroke-width="4" stroke-linecap="round"/>
<rect x="544" y="48" width="256" height="448" rx="6" fill="white" stroke="#1E1E1E" stroke-width="4" stroke-linecap="round"/>
<path d="M16 96H816" stroke="#1E1E1E" stroke-width="4" stroke-linecap="round" stroke-linejoin="bevel"/>
<path d="M16 144H816" stroke="#1E1E1E" stroke-width="4" stroke-linecap="round" stroke-linejoin="bevel"/>
<path d="M16 192H816" stroke="#1E1E1E" stroke-width="4" stroke-linecap="round" stroke-linejoin="bevel"/>
<path d="M16 240H816" stroke="#1E1E1E" stroke-width="4" stroke-linecap="round" stroke-linejoin="bevel"/>
<path d="M16 288H816" stroke="#1E1E1E" stroke-width="4" stroke-linecap="round" stroke-linejoin="bevel"/>
<path d="M16 336H816" stroke="#1E1E1E" stroke-width="4" stroke-linecap="round" stroke-linejoin="bevel"/>
<path d="M16 384H816" stroke="#1E1E1E" stroke-width="4" stroke-linecap="round" stroke-linejoin="bevel"/>
<path d="M16 432H816" stroke="#1E1E1E" stroke-width="4" stroke-linecap="round" stroke-linejoin="bevel"/>
<path d="M71.0018 60C67.7018 62.63 57.0418 77.26 53.5068 86.475C52.9606 87.8989 53.6618 88.98 54.9868 89.49C56.3118 90 58.6218 90 60.9668 89.505C65.7476 88.4958 78.2318 77.1 93.2368 63.255C97.789 59.0548 97.0218 61.62 95.3568 64.79C91.561 72.017 88.6718 77.32 89.3268 79.485C89.7027 80.7272 92.6218 80.66 95.2968 80.005C110.929 76.1773 123.962 62.02 130.647 60.335C131.951 60.0063 132.982 60.66 133.492 61.985C134.81 65.4106 133.012 70.31 132.832 72.49C133.642 72.36 136.282 69.72 135.002 70.67C133.722 71.62 128.442 76.24 122.002 81" stroke="#7D7D7D" stroke-width="4" stroke-linecap="round" stroke-linejoin="round"/>
<path d="M125 70C131.97 73.31 141.3 78.66 149.3 78.34C154.655 78.1258 158.98 73.02 160.99 71.34C161.221 71.1466 159.04 74.28 158.185 76.135C157.33 77.99 157.66 78.98 158.49 79.655C164.055 84.1806 179.6 74.38 186.15 71.66C190.208 69.975 191.65 78.99 195.47 80.655C205.72 85.1225 220.93 76.37 231.265 71.53C234.538 69.9974 234.34 71.64 234.17 72.98C233.835 75.6242 234.66 78.32 236.485 80.485C237.413 81.5854 239.3 81.66 240.645 81.665C241.99 81.67 242.98 81.34 243.655 80.675C244.33 80.01 244.66 79.02 245 79" stroke="#7D7D7D" stroke-width="4" stroke-linecap="round" stroke-linejoin="round"/>
<path d="M77.9982 141.001C78.6582 137.361 80.6582 127.381 79.6732 120.856C79.1414 117.333 75.6782 114.681 72.3582 112.186C68.265 109.11 63.0182 109.001 59.1932 109.496C57.2988 109.741 55.6982 110.981 54.5182 112.316C52.196 114.943 52.6582 120.631 54.4832 127.451C56.1568 133.705 61.9682 137.981 68.4482 141.311C75.3286 144.847 86.2682 143.011 102.368 138.706C126.229 132.326 140.648 122.351 143.478 119.356C144.707 118.055 145.318 117.021 145.163 115.851C145.008 114.681 144.018 113.361 142.518 112.516C139.318 110.713 133.368 112.321 127.373 115.146C124.837 116.341 124.018 118.301 123.673 119.811C123.328 121.321 123.658 122.641 125.148 123.981C128.801 127.266 137.278 128.001 146.268 127.506C152.14 127.182 154.988 124.011 156.653 123.171C157.271 122.859 157.658 124.641 158.818 124.496C162.407 124.047 164.988 118.691 165.993 115.686C166.316 114.72 162.678 119.641 160.678 124.961C158.791 129.981 160.658 135.311 162.153 138.976C162.754 140.45 163.978 140.661 165.148 140.666C171.116 140.691 176.638 131.701 180.153 126.021C180.984 124.678 181.978 123.361 183.478 122.681C184.978 122.001 186.958 122.001 188.143 122.991C190.702 125.128 188.678 129.981 188.823 133.656C189.069 139.889 203.618 132.021 212.798 128.846C217.091 127.361 220.318 125.671 222.978 125.501C228.423 125.153 238.578 129.001 249.133 128.171C251.308 128.001 253.618 128.001 255.468 127.836C257.318 127.671 258.638 127.341 260.998 127.001" stroke="#7D7D7D" stroke-width="4" stroke-linecap="round" stroke-linejoin="round"/>
<path d="M50.0007 178.999C49.3407 177.679 48.6707 175.679 49.1607 172.194C50.8025 160.517 62.9607 157.019 72.2957 154.339C74.8875 153.595 77.9407 153.999 79.6357 154.494C89.547 157.389 86.3207 181.639 88.8207 185.984C90.676 189.209 96.3107 188.999 100.801 188.504C105.191 188.02 108.321 184.679 110.651 181.854C115.596 175.859 115.001 168.679 115.496 166.184C115.744 164.934 116.981 164.019 118.151 163.674C119.321 163.329 120.641 163.659 121.486 164.654C127.371 171.584 123.331 184.649 125.316 186.654C132.064 193.471 139.641 177.359 143.156 173.179C143.918 172.273 144.981 171.679 145.986 171.669C148.084 171.648 149.991 173.659 151.986 174.659C156.489 176.916 162.981 171.339 166.986 170.664C169.342 170.267 171.321 174.319 174.146 176.484C179.394 180.506 191.261 174.359 200.301 170.844C212.413 166.135 220.961 167.339 229.136 166.834C237.981 165.999 243.651 166.329 248.131 166.829C250.961 166.999 254.921 166.999 258.001 167.999" stroke="#7D7D7D" stroke-width="4" stroke-linecap="round" stroke-linejoin="round"/>
<path d="M66.9986 209.999C63.6986 213.959 61.6686 217.649 62.1586 220.644C62.7472 224.243 69.6386 223.999 75.4536 223.339C82.4956 222.54 86.9886 219.339 88.8186 217.844C89.7358 217.095 90.3186 216.019 89.6686 215.674C89.0186 215.329 87.0386 215.659 85.1936 216.819C81.2161 219.32 78.6786 224.969 76.8436 229.964C76.1231 231.926 76.6586 232.979 77.4886 233.654C79.3299 235.152 82.9786 234.669 87.2986 233.509C98.0463 230.624 105.619 216.079 107.504 209.344C107.729 208.538 106.019 208.339 105.014 208.829C102.592 210.01 101.669 213.649 101.499 217.304C101.295 221.692 104.319 224.989 106.979 226.819C109.494 228.55 112.649 228.999 116.634 228.339C127.673 226.511 131.319 218.019 134.984 213.349C138.526 208.836 144.979 207.339 154.269 207.989C159.971 208.388 169.799 210.959 174.569 212.474C179.339 213.989 178.679 214.979 178.009 216.149C176.606 218.599 175.669 221.319 174.839 222.494C174.538 222.92 173.679 220.699 173.504 219.354C173.329 218.009 173.659 217.019 174.324 216.179C177.777 211.817 185.299 209.339 190.484 208.664C194.711 208.114 191.009 218.639 190.334 222.804C190.084 224.342 192.299 224.659 193.974 224.499C207.636 223.194 224.959 207.679 230.149 207.329C232.822 207.149 234.989 209.659 236.984 211.649C241.954 216.607 240.659 221.979 245.309 225.984C252.319 229.329 256.319 229.999 258.814 229.834C259.989 229.669 260.979 229.339 263.999 228.999" stroke="#1E1E1E" stroke-width="4" stroke-linecap="round" stroke-linejoin="round"/>
<path d="M58 257C58.33 259.32 66.92 281.14 74.15 292.165C77.3894 297.104 80.66 281.04 83.15 273.53C85.1452 267.512 91.32 265.67 93.815 265.17C94.9791 264.936 95.98 265 95.665 265.99C93.3405 273.295 90 276.32 90.33 278.815C90.49 280.025 91.32 280.98 92.155 281.655C92.99 282.33 93.98 282.66 94.82 282.335C99.6377 280.471 102.96 267.4 109.975 259.355C112.645 256.292 115.99 255.67 117.655 255.83C119.716 256.028 119 260.32 119.495 262.65C119.99 263.66 120.98 264.32 121.985 264.825C122.99 265.33 123.98 265.66 125 266" stroke="#858585" stroke-width="4" stroke-linecap="round" stroke-linejoin="round"/>
<path d="M139.001 254C139.661 253.34 140.321 252.68 140.991 251.845C141.661 251.01 142.321 250.02 140.846 251.325C129.118 261.701 125.011 269.65 123.676 272.645C123.111 273.913 123.661 274.98 124.491 275.49C129.452 278.539 156.781 262.46 165.681 259.15C168.871 257.964 160.351 265.64 158.676 269.64C154.952 278.534 183.641 262.02 189.146 260.005C192.174 258.897 195.321 259.33 198.146 260.985C206.605 265.941 208.331 271.99 209.821 273.49C212.063 275.747 215.991 273.67 217.986 272.675C222.65 270.349 226.311 265.03 230.306 260.365C231.861 258.55 232.981 258.34 234.481 259.16C241.651 265.32 250.281 270.64 262.791 273.66C265.321 274 266.641 274 266.001 274" stroke="#858585" stroke-width="4" stroke-linecap="round" stroke-linejoin="round"/>
<path d="M57 304C65.59 309.61 84.3 322.65 89.465 324.655C91.2348 325.342 91.66 324.02 91.83 321.53C92.2695 315.093 91.34 307.7 88.855 303.03C81.6307 289.453 60.67 319.99 60.665 321.655C60.6511 326.283 78.24 324 93.755 320.355C112.028 316.062 126.31 313.01 129.315 311.84C130.01 311.66 129.02 312.32 127.025 313.485C125.03 314.65 122.06 316.3 119 320" stroke="#1E1E1E" stroke-width="4" stroke-linecap="round" stroke-linejoin="round"/>
<path d="M144 305.999C144.33 305.669 144.66 305.339 144.995 305.664C148.464 309.03 147 321.599 148.325 327.159C148.724 328.836 155.95 317.419 163.945 304.914C166.621 300.729 167.98 301.979 168.655 305.459C169.33 308.939 169.66 314.879 170.325 317.939C170.99 320.999 171.98 320.999 172.985 320.834C175.013 320.501 180.29 317.689 187.45 314.684C195.383 311.355 204.3 320.659 215.12 320.669C225.99 318.669 231.96 317.339 239.46 316.169C242.94 315.999 248.88 315.999 256 315.999" stroke="#1E1E1E" stroke-width="4" stroke-linecap="round" stroke-linejoin="round"/>
<path d="M68 349C65.68 349.99 61.02 355.96 57.51 365.795C56.6474 368.212 57 370.62 58.32 372.965C61.3179 378.291 68.3 380.99 75.115 382.49C82.1107 384.03 89.3 382.01 95.62 379.025C102.428 375.81 104.66 369.02 105.33 365.03C105.999 361.043 102.35 357.35 98.53 354.19C94.2298 350.633 88.03 349.67 82.21 349.5C76.6615 349.338 72.02 352.32 69.02 355.31C67.634 356.691 68 358.96 69.32 361.135C75.7756 371.772 92.26 372.32 105.45 372.34C113.178 372.352 119.64 367.35 122.98 364.685C123.944 363.916 122.36 363.34 121.02 363.17C118.376 362.834 116.01 362.67 115.665 362.83C105.9 367.359 137.3 371 143.145 369.675C146.62 368.887 149.32 365.68 150.66 364.01C150.879 363.737 149.36 364.32 148.515 365.155C147.67 365.99 147.34 366.98 147.995 367.325C150.034 368.399 153.32 366.01 155.815 363.685C158.513 361.171 159.33 358.01 159.335 357.17C159.347 355.198 156.34 361.98 155.34 365.805C154.452 369.202 155.33 371.99 156.325 373.49C156.788 374.188 157.98 374 159.15 373.34C166.66 369.104 169.32 356.04 172.32 351.51C172.94 350.574 174.64 351 175.815 351.33C180.759 352.718 183.98 360.96 187.815 365.655C188.853 366.925 191.62 366.66 193.635 366.17C201.905 364.159 206.31 354.04 210.47 348.865C214.906 343.347 222.64 356.32 235.61 356.67C242.6 355.68 246.99 354.67 249.15 354.335C250.32 354.33 251.64 354.66 255 356" stroke="#1E1E1E" stroke-width="4" stroke-linecap="round" stroke-linejoin="round"/>
<path d="M69.9983 400C65.6983 405.62 55.3683 421.27 51.5183 428.625C44.294 442.426 72.6483 409.01 75.3133 408.005C81.4017 405.709 77.6583 424.32 79.3183 426.65C80.977 428.978 83.9883 429 85.9833 428.835C90.808 428.436 101.578 412.12 108.983 406.66C109.951 405.946 110.978 408.64 111.983 408.99C113.89 409.654 115.988 406.68 117.983 404.845C118.814 404.081 119.978 404.66 120.983 405.655C126.699 411.314 124.998 422.3 126.323 426.82C126.625 427.848 127.978 428.32 129.973 427.175C143.361 419.492 145.328 405.68 145.828 407.145C146.73 409.786 145.998 416.86 146.823 420.595C147.648 424.33 149.298 424.66 154.273 423.18C177.82 416.175 182.638 414 193.433 413.005C219.233 410.627 231.258 411 238.478 411.83C241.94 412.228 244.988 412.33 246.653 413.49C248.601 414.847 248.328 417.99 249.323 418.83C252.988 415.01 255.328 412.01 255.828 410.015C255.998 409.01 255.998 408.02 256.998 407" stroke="#858585" stroke-width="4" stroke-linecap="round" stroke-linejoin="round"/>
<path d="M58 448C59.99 448.66 65.96 453.3 74.96 463.945C83.1445 473.625 86.33 481.99 85.015 482.17C71.0559 484.081 68.02 464.37 65.515 458.705C64.6651 456.783 65.98 456.34 67.645 456.17C76.6067 455.255 97.84 458.66 111.475 458.005C113.025 457.931 113.98 457.34 114.655 457.665C118.411 459.473 119.32 466.31 122.475 468.655C126.27 471.476 131.31 461.03 135.305 457.025C142.758 449.554 139.99 485.33 142.315 485.5C150.908 486.128 156.3 461.44 159.655 453.84C160.063 452.915 162.3 454.32 163.645 455.65C166.525 458.498 167 463.64 167.66 467.64C167.906 469.132 169.64 469 170.98 468.67C179.07 466.678 187.64 458.68 192.48 458.165C203.251 457.019 219.94 457.02 239.265 452.68C242.99 452 243.98 452 245.645 451.835C247.31 451.67 249.62 451.34 253 451" stroke="#1E1E1E" stroke-width="4" stroke-linecap="round" stroke-linejoin="round"/>
<path d="M312.913 63.6792C309.613 67.6392 307.583 71.3292 308.073 74.3242C308.661 77.9222 315.553 77.6792 321.368 77.0192C328.41 76.2199 332.903 73.0192 334.733 71.5242C335.65 70.7749 336.233 69.6992 335.583 69.3542C334.933 69.0092 332.953 69.3392 331.108 70.4992C327.13 73 324.593 78.6492 322.758 83.6442C322.037 85.6055 322.573 86.6592 323.403 87.3342C325.244 88.8316 328.893 88.3492 333.213 87.1892C343.96 84.3032 351.533 69.7592 353.418 63.0242C353.643 62.2181 351.933 62.0192 350.928 62.5092C348.506 63.6897 347.583 67.3292 347.413 70.9842C347.209 75.3717 350.233 78.6692 352.893 80.4992C355.409 82.23 358.563 82.6792 362.548 82.0192C373.587 80.1909 377.233 71.6992 380.898 67.0292C384.44 62.5157 390.893 61.0192 400.183 61.6692C405.885 62.0682 415.713 64.6392 420.483 66.1542C425.253 67.6692 424.593 68.6592 423.923 69.8292C422.52 72.2789 421.583 74.9992 420.753 76.1742C420.452 76.5994 419.593 74.3792 419.418 73.0342C419.243 71.6892 419.573 70.6992 420.238 69.8592C423.691 65.4969 431.213 63.0192 436.398 62.3442C440.625 61.7938 436.923 72.3192 436.248 76.4842C435.999 78.0213 438.213 78.3392 439.888 78.1792C453.55 76.8741 470.873 61.3592 476.063 61.0092C478.736 60.8289 480.903 63.3392 482.898 65.3292C487.868 70.2871 486.573 75.6592 491.223 79.6642C498.233 83.0092 502.233 83.6792 504.728 83.5142C505.903 83.3492 506.893 83.0192 509.913 82.6792" stroke="#1E1E1E" stroke-width="4" stroke-linecap="round" stroke-linejoin="round"/>
<path d="M308 113.439C316.59 119.049 335.3 132.089 340.465 134.094C342.235 134.781 342.66 133.459 342.83 130.969C343.269 124.532 342.34 117.139 339.855 112.469C332.631 98.8928 311.67 129.429 311.665 131.094C311.651 135.723 329.24 133.439 344.755 129.794C363.028 125.501 377.31 122.449 380.315 121.279C381.01 121.099 380.02 121.759 378.025 122.924C376.03 124.089 373.06 125.739 370 129.439" stroke="#1E1E1E" stroke-width="4" stroke-linecap="round" stroke-linejoin="round"/>
<path d="M395 115.439C395.33 115.109 395.66 114.779 395.995 115.104C399.464 118.469 398 131.039 399.325 136.599C399.724 138.275 406.95 126.859 414.945 114.354C417.621 110.168 418.98 111.419 419.655 114.899C420.33 118.379 420.66 124.319 421.325 127.379C421.99 130.439 422.98 130.439 423.985 130.274C426.013 129.941 431.29 127.129 438.45 124.124C446.383 120.794 455.3 130.099 466.12 130.109C476.99 128.109 482.96 126.779 490.46 125.609C493.94 125.439 499.88 125.439 507 125.439" stroke="#1E1E1E" stroke-width="4" stroke-linecap="round" stroke-linejoin="round"/>
<path d="M321.961 154.5C319.641 155.49 314.981 161.46 311.471 171.295C310.608 173.712 310.961 176.12 312.281 178.465C315.279 183.791 322.261 186.49 329.076 187.99C336.072 189.53 343.261 187.51 349.581 184.525C356.389 181.31 358.621 174.52 359.291 170.53C359.96 166.543 356.311 162.85 352.491 159.69C348.191 156.133 341.991 155.17 336.171 155C330.622 154.838 325.981 157.82 322.981 160.81C321.595 162.191 321.961 164.46 323.281 166.635C329.737 177.272 346.221 177.82 359.411 177.84C367.139 177.852 373.601 172.85 376.941 170.185C377.905 169.416 376.321 168.84 374.981 168.67C372.337 168.334 369.971 168.17 369.626 168.33C359.861 172.859 391.261 176.5 397.106 175.175C400.581 174.387 403.281 171.18 404.621 169.51C404.84 169.237 403.321 169.82 402.476 170.655C401.631 171.49 401.301 172.48 401.956 172.825C403.995 173.899 407.281 171.51 409.776 169.185C412.474 166.671 413.291 163.51 413.296 162.67C413.308 160.698 410.301 167.48 409.301 171.305C408.413 174.702 409.291 177.49 410.286 178.99C410.749 179.688 411.941 179.5 413.111 178.84C420.621 174.604 423.281 161.54 426.281 157.01C426.901 156.074 428.601 156.5 429.776 156.83C434.72 158.218 437.941 166.46 441.776 171.155C442.814 172.425 445.581 172.16 447.596 171.67C455.866 169.659 460.271 159.54 464.431 154.365C468.867 148.847 476.601 161.82 489.571 162.17C496.561 161.18 500.951 160.17 503.111 159.835C504.281 159.83 505.601 160.16 508.961 161.5" stroke="#1E1E1E" stroke-width="4" stroke-linecap="round" stroke-linejoin="round"/>
<path d="M312 205C313.99 205.66 319.96 210.3 328.96 220.945C337.144 230.625 340.33 238.99 339.015 239.17C325.056 241.081 322.02 221.37 319.515 215.705C318.665 213.783 319.98 213.34 321.645 213.17C330.607 212.255 351.84 215.66 365.475 215.005C367.025 214.931 367.98 214.34 368.655 214.665C372.411 216.473 373.32 223.31 376.475 225.655C380.27 228.476 385.31 218.03 389.305 214.025C396.758 206.554 393.99 242.33 396.315 242.5C404.908 243.128 410.3 218.44 413.655 210.84C414.063 209.915 416.3 211.32 417.645 212.65C420.525 215.498 421 220.64 421.66 224.64C421.906 226.132 423.64 226 424.98 225.67C433.07 223.678 441.64 215.68 446.48 215.165C457.251 214.019 473.94 214.02 493.265 209.68C496.99 209 497.98 209 499.645 208.835C501.31 208.67 503.62 208.34 507 208" stroke="#1E1E1E" stroke-width="4" stroke-linecap="round" stroke-linejoin="round"/>
<path d="M269 406C267.895 406 267 406.895 267 408C267 409.105 267.895 410 269 410V406ZM564.406 265.414C565.187 264.633 565.187 263.367 564.406 262.586L551.678 249.858C550.897 249.077 549.631 249.077 548.85 249.858C548.069 250.639 548.069 251.905 548.85 252.686L560.164 264L548.85 275.314C548.069 276.095 548.069 277.361 548.85 278.142C549.631 278.923 550.897 278.923 551.678 278.142L564.406 265.414ZM269 408V410C343.361 410 380.62 373.455 417.396 337.429C454.118 301.455 490.357 266 562.992 266V264V262C488.631 262 451.372 298.545 414.597 334.571C377.874 370.545 341.635 406 269 406V408Z" fill="#77CFE0"/>
<path d="M590.682 60C587.382 62.63 576.722 77.26 573.187 86.475C572.64 87.8989 573.342 88.98 574.667 89.49C575.992 90 578.302 90 580.647 89.505C585.427 88.4958 597.912 77.1 612.917 63.255C617.469 59.0548 616.702 61.62 615.037 64.79C611.241 72.017 608.352 77.32 609.007 79.485C609.382 80.7272 612.302 80.66 614.977 80.005C630.609 76.1773 643.642 62.02 650.327 60.335C651.631 60.0063 652.662 60.66 653.172 61.985C654.49 65.4106 652.692 70.31 652.512 72.49C653.322 72.36 655.962 69.72 654.682 70.67C653.402 71.62 648.122 76.24 641.682 81" stroke="#77CFE0" stroke-width="4" stroke-linecap="round" stroke-linejoin="round"/>
<path d="M644.68 70C651.65 73.31 660.98 78.66 668.98 78.34C674.335 78.1258 678.66 73.02 680.67 71.34C680.901 71.1466 678.72 74.28 677.865 76.135C677.01 77.99 677.34 78.98 678.17 79.655C683.735 84.1806 699.28 74.38 705.83 71.66C709.887 69.975 711.33 78.99 715.15 80.655C725.399 85.1225 740.61 76.37 750.945 71.53C754.217 69.9974 754.02 71.64 753.85 72.98C753.514 75.6242 754.34 78.32 756.165 80.485C757.092 81.5854 758.98 81.66 760.325 81.665C761.67 81.67 762.66 81.34 763.335 80.675C764.01 80.01 764.34 79.02 764.68 79" stroke="#77CFE0" stroke-width="4" stroke-linecap="round" stroke-linejoin="round"/>
<path d="M595.01 135.727C595.67 132.087 597.67 122.107 596.685 115.582C596.153 112.06 592.69 109.407 589.37 106.912C585.277 103.836 580.03 103.727 576.205 104.222C574.311 104.468 572.71 105.707 571.53 107.042C569.208 109.67 569.67 115.357 571.495 122.177C573.168 128.431 578.98 132.707 585.46 136.037C592.34 139.573 603.28 137.737 619.38 133.432C643.241 127.052 657.66 117.077 660.49 114.082C661.719 112.782 662.33 111.747 662.175 110.577C662.02 109.407 661.03 108.087 659.53 107.242C656.33 105.44 650.38 107.047 644.385 109.872C641.849 111.067 641.03 113.027 640.685 114.537C640.34 116.047 640.67 117.367 642.16 118.707C645.813 121.992 654.29 122.727 663.28 122.232C669.152 121.909 672 118.737 673.665 117.897C674.282 117.586 674.67 119.367 675.83 119.222C679.419 118.774 682 113.417 683.005 110.412C683.328 109.446 679.69 114.367 677.69 119.687C675.803 124.708 677.67 130.037 679.165 133.702C679.766 135.176 680.99 135.387 682.16 135.392C688.127 135.418 693.65 126.427 697.165 120.747C697.996 119.405 698.99 118.087 700.49 117.407C701.99 116.727 703.97 116.727 705.155 117.717C707.714 119.855 705.69 124.707 705.835 128.382C706.081 134.616 720.63 126.747 729.81 123.572C734.103 122.088 737.33 120.397 739.99 120.227C745.435 119.879 755.59 123.727 766.145 122.897C768.32 122.727 770.63 122.727 772.48 122.562C774.33 122.397 775.65 122.067 778.01 121.727" stroke="#77CFE0" stroke-width="4" stroke-linecap="round" stroke-linejoin="round"/>
<path d="M567.009 173.728C566.349 172.408 565.679 170.408 566.169 166.923C567.81 155.246 579.969 151.748 589.304 149.068C591.895 148.324 594.949 148.728 596.644 149.223C606.555 152.117 603.329 176.368 605.829 180.713C607.684 183.937 613.319 183.728 617.809 183.233C622.199 182.749 625.329 179.408 627.659 176.583C632.603 170.587 632.009 163.408 632.504 160.913C632.752 159.662 633.989 158.748 635.159 158.403C636.329 158.058 637.649 158.388 638.494 159.383C644.379 166.313 640.339 179.378 642.324 181.383C649.072 188.199 656.649 172.088 660.164 167.908C660.926 167.001 661.989 166.408 662.994 166.398C665.092 166.377 666.999 168.388 668.994 169.388C673.497 171.645 679.989 166.068 683.994 165.393C686.35 164.996 688.329 169.048 691.154 171.213C696.402 175.235 708.269 169.088 717.309 165.573C729.42 160.863 737.969 162.068 746.144 161.563C754.989 160.728 760.659 161.058 765.139 161.558C767.969 161.728 771.929 161.728 775.009 162.728" stroke="#77CFE0" stroke-width="4" stroke-linecap="round" stroke-linejoin="round"/>
<path d="M568 204.306C568.33 206.626 576.92 228.446 584.15 239.471C587.389 244.411 590.66 228.346 593.15 220.836C595.145 214.819 601.32 212.976 603.815 212.476C604.979 212.243 605.98 212.306 605.665 213.296C603.341 220.602 600 223.626 600.33 226.121C600.49 227.331 601.32 228.286 602.155 228.961C602.99 229.636 603.98 229.966 604.82 229.641C609.638 227.777 612.96 214.706 619.975 206.661C622.645 203.599 625.99 202.976 627.655 203.136C629.716 203.334 629 207.626 629.495 209.956C629.99 210.966 630.98 211.626 631.985 212.131C632.99 212.636 633.98 212.966 635 213.306" stroke="#77CFE0" stroke-width="4" stroke-linecap="round" stroke-linejoin="round"/>
<path d="M649.001 201.307C649.661 200.647 650.321 199.987 650.991 199.152C651.661 198.317 652.321 197.327 650.846 198.632C639.118 209.008 635.011 216.957 633.676 219.952C633.111 221.22 633.661 222.287 634.491 222.797C639.452 225.845 666.781 209.767 675.681 206.457C678.871 205.271 670.351 212.947 668.676 216.947C664.952 225.841 693.641 209.327 699.146 207.312C702.174 206.204 705.321 206.637 708.146 208.292C716.605 213.248 718.331 219.297 719.821 220.797C722.063 223.054 725.991 220.977 727.986 219.982C732.65 217.656 736.311 212.337 740.306 207.672C741.861 205.857 742.981 205.647 744.481 206.467C751.651 212.627 760.281 217.947 772.791 220.967C775.321 221.307 776.641 221.307 776.001 221.307" stroke="#77CFE0" stroke-width="4" stroke-linecap="round" stroke-linejoin="round"/>
<path d="M587.655 252C583.355 257.62 573.025 273.27 569.175 280.625C561.95 294.426 590.305 261.01 592.97 260.005C599.058 257.709 595.315 276.32 596.975 278.65C598.633 280.978 601.645 281 603.64 280.835C608.464 280.436 619.235 264.12 626.64 258.66C627.607 257.946 628.635 260.64 629.64 260.99C631.546 261.654 633.645 258.68 635.64 256.845C636.471 256.081 637.635 256.66 638.64 257.655C644.356 263.314 642.655 274.3 643.98 278.82C644.281 279.848 645.635 280.32 647.63 279.175C661.017 271.492 662.985 257.68 663.485 259.145C664.386 261.786 663.655 268.86 664.48 272.595C665.305 276.33 666.955 276.66 671.93 275.18C695.476 268.175 700.295 266 711.09 265.005C736.89 262.627 748.915 263 756.135 263.83C759.596 264.228 762.645 264.33 764.31 265.49C766.257 266.847 765.985 269.99 766.98 270.83C770.645 267.01 772.985 264.01 773.485 262.015C773.655 261.01 773.655 260.02 774.655 259" stroke="#77CFE0" stroke-width="4" stroke-linecap="round" stroke-linejoin="round"/>
<path d="M272 273.961C270.895 273.961 270 274.856 270 275.961C270 277.066 270.895 277.961 272 277.961V273.961ZM561.414 225.414C562.195 224.633 562.195 223.367 561.414 222.586L548.686 209.858C547.905 209.077 546.639 209.077 545.858 209.858C545.077 210.639 545.077 211.905 545.858 212.686L557.172 224L545.858 235.314C545.077 236.095 545.077 237.361 545.858 238.142C546.639 238.923 547.905 238.923 548.686 238.142L561.414 225.414ZM272 275.961V277.961C344.327 277.961 380.575 264.89 416.679 251.862C452.575 238.909 488.327 226 560 226V224V222C487.673 222 451.425 235.071 415.321 248.099C379.425 261.052 343.673 273.961 272 273.961V275.961Z" fill="#77CFE0"/>
<path d="M277.527 171.33C276.461 171.039 275.362 171.667 275.071 172.733C274.78 173.799 275.408 174.898 276.473 175.189L277.527 171.33ZM556.71 161.024C557.276 160.076 556.965 158.848 556.017 158.282L540.557 149.063C539.608 148.497 538.381 148.807 537.815 149.756C537.249 150.705 537.559 151.933 538.508 152.498L552.25 160.693L544.055 174.435C543.489 175.384 543.8 176.612 544.748 177.177C545.697 177.743 546.925 177.433 547.49 176.484L556.71 161.024ZM277 173.26L276.473 175.189C343.318 193.44 377.044 199.344 412.187 195.991C429.726 194.318 447.56 190.346 469.966 184.536C492.438 178.708 519.374 171.069 555.482 161.939L554.992 160L554.502 158.061C518.446 167.178 491.259 174.882 468.962 180.664C446.598 186.463 429.017 190.368 411.807 192.01C377.452 195.287 344.346 189.574 277.527 171.33L277 173.26Z" fill="#77CFE0"/>
<path d="M271.603 126.039C270.521 126.258 269.821 127.314 270.04 128.396C270.259 129.479 271.314 130.179 272.397 129.96L271.603 126.039ZM561.106 131.367C562.026 130.757 562.277 129.515 561.667 128.595L551.715 113.596C551.105 112.676 549.864 112.424 548.943 113.035C548.023 113.646 547.772 114.887 548.382 115.807L557.228 129.14L543.895 137.985C542.975 138.596 542.724 139.837 543.334 140.758C543.945 141.678 545.186 141.929 546.107 141.319L561.106 131.367ZM272 128L272.397 129.96C344.457 115.38 380.229 108.577 415.973 108.999C451.737 109.421 487.51 117.075 559.603 131.661L560 129.701L560.397 127.74C488.487 113.192 452.257 105.427 416.021 104.999C379.765 104.571 343.539 111.485 271.603 126.039L272 128Z" fill="#77CFE0"/>
<path d="M275.904 72.0711C274.98 72.6766 274.722 73.9163 275.327 74.8402C275.933 75.764 277.172 76.0221 278.096 75.4166L275.904 72.0711ZM555.803 62.3125C556.812 61.8649 557.268 60.6835 556.821 59.6737L549.527 43.2177C549.079 42.2079 547.898 41.7522 546.888 42.1998C545.878 42.6474 545.422 43.8288 545.87 44.8386L552.353 59.4661L537.726 65.9497C536.716 66.3973 536.26 67.5788 536.708 68.5886C537.155 69.5984 538.337 70.0542 539.347 69.6066L555.803 62.3125ZM277 73.7439L278.096 75.4166C303.924 58.4896 323.122 45.081 340.261 35.4442C357.336 25.8436 372.187 20.0983 389.189 18.4763C406.222 16.8512 425.581 19.3489 451.686 26.5129C477.797 33.6786 510.525 45.474 554.272 62.3501L554.992 60.4841L555.712 58.6181C511.963 41.7413 479.069 29.8797 452.745 22.6555C426.414 15.4295 406.525 12.8042 388.809 14.4944C371.062 16.1875 355.663 22.1955 338.301 31.9575C321.003 41.6831 301.576 55.2462 275.904 72.0711L277 73.7439Z" fill="#77CFE0"/>
</svg>
