<svg width="832" height="528" viewBox="0 0 832 528" fill="none" xmlns="http://www.w3.org/2000/svg">
<rect x="32" y="96" width="512" height="400" rx="6" fill="white" stroke="#1E1E1E" stroke-width="4" stroke-linecap="round"/>
<rect x="32" y="48" width="768" height="48" rx="3" fill="white" stroke="#1E1E1E" stroke-width="4" stroke-linecap="round"/>
<rect x="544" y="96" width="256" height="96" rx="6" fill="white" stroke="#1E1E1E" stroke-width="4" stroke-linecap="round"/>
<rect x="544" y="192" width="256" height="129" rx="6" fill="white" stroke="#1E1E1E" stroke-width="4" stroke-linecap="round"/>
<rect x="544" y="321" width="256" height="174.545" rx="6" fill="white" stroke="#1E1E1E" stroke-width="4" stroke-linecap="round"/>
<path d="M208.001 173.135C204.351 172.475 197.701 170.475 189.706 169.805C182.379 169.191 174.041 168.135 162.266 169.785C142.471 172.558 127.371 179.785 118.241 184.925C104.749 192.521 95.6906 202.105 91.3656 208.255C87.0831 214.344 82.0406 229.685 75.7106 249.66C71.5678 262.733 73.3206 275.065 78.7856 291.505C82.0581 301.349 89.8606 312.895 96.4006 322.81C108.238 340.756 117.641 350.445 124.116 355.595C132.504 362.267 141.961 367.115 150.106 370.775C158.306 374.46 173.231 376.785 192.526 379.285C209.064 381.428 219.971 379.805 230.411 377.655C250.015 373.617 265.631 367.485 275.091 362.345C289.421 354.559 303.271 342.195 313.761 331.545C320.869 324.328 322.991 314.525 324.161 303.715C325.219 293.94 321.351 284.515 312.581 266.79C305.967 253.422 292.921 232.235 284.481 218.71C272.701 199.833 264.371 192.495 256.891 187.505C249.462 182.549 236.091 178.825 218.631 175.16C202.428 171.759 190.701 173.795 174.811 179.91C162.005 184.838 140.441 195.595 127.736 201.855C111.85 209.682 106.691 214.445 102.036 219.43C97.0419 224.777 92.6906 232.425 88.3656 241.565C83.7579 251.302 82.3406 264.395 81.5056 277.705C80.8375 288.355 84.6406 302.375 92.1056 324.295C96.4792 337.137 103.861 352.815 108.751 362.79C115.595 376.752 121.641 382.775 128.446 388.095C137.213 394.949 152.581 398.445 169.046 402.44C183.676 405.99 195.951 406.135 205.926 405.475C216.073 404.803 226.611 399.825 237.751 394.84C248.882 389.859 258.621 382.505 268.096 374.2C278.782 364.833 285.311 354.175 290.461 344.05C297.564 330.084 300.991 316.845 302.491 305.56C304.674 289.131 302.671 276.495 301.511 269.855C298.479 252.503 293.021 241.535 285.201 225.195C283.347 221.321 281.041 218.855 272.101 212.215C263.161 205.575 247.321 195.015 236.026 188.09C218.838 177.552 206.061 173.155 192.111 169.33C162.662 161.255 154.701 163.475 143.711 163.3C139.015 163.225 135.021 164.795 130.866 166.95C118.361 173.436 119.341 193.755 115.521 204.425C113.092 211.209 109.011 216.445 106.026 222.42C101.582 231.315 94.0406 244.715 87.7106 258.705C82.7209 269.733 81.0206 279.415 79.8356 287.11C78.3121 297.003 79.6606 311.095 85.6306 325.23C91.5201 339.174 99.6506 347.785 103.471 352.43C109.016 359.172 113.641 367.435 120.281 373.92C128.247 381.7 139.621 385.115 149.921 388.94C171.091 396.802 182.281 397.795 194.946 397.805C203.955 397.812 212.961 395.145 220.776 392.985C228.379 390.883 237.941 386.165 250.241 379.685C256.668 376.299 263.201 372.215 273.366 363.905C283.531 355.595 297.061 343.055 305.021 335.275C318.756 321.85 319.661 314.835 321.331 303.355C322.552 294.958 316.041 279.245 309.876 261.92C307.035 253.937 302.381 241.245 294.886 223.92C289.72 211.979 282.701 206.495 263.906 195.84C256.846 191.838 248.721 188.155 238.706 185.81C228.292 183.372 221.701 182.475 199.271 181.475C185.669 180.868 177.021 178.135 171.876 178.465C164.371 178.946 154.061 182.445 137.966 190.73C127.811 196.705 113.621 206.275 104.991 212.36C96.3606 218.445 93.7206 220.755 91.0006 223.135" stroke="#77CFE0" stroke-width="4" stroke-linecap="round" stroke-linejoin="round"/>
<path d="M338.001 153C338.001 151.01 338.991 148.01 340.161 147.005C340.985 146.297 338.341 151.64 337.176 157.125C335.956 162.871 335.671 173.92 334.346 201.925C333.396 222.012 331.701 254.02 331.676 270.675C331.651 287.33 333.301 287.66 335.636 287.83C340.93 288.215 345.981 287.67 357.231 287.17C366.493 286.758 383.001 287 407.341 286.01C431.681 285.02 463.361 283.04 480.176 281.855C496.991 280.67 497.981 280.34 497.996 280.335C498.011 280.33 497.021 280.66 496.676 280.335C492.512 276.412 499.001 264.04 496.511 238.145C495.427 226.87 496.001 210.66 496.661 198.205C497.762 177.435 500.001 161.41 498.846 149.91C498.439 145.853 495.381 146 493.366 146.165C486.652 146.715 480.701 147.66 471.371 148.165C469.019 148.292 467.041 148.66 448.861 148.83C430.681 149 396.361 149 378.021 148.835C356.011 148 350.701 147.34 343.361 147.165C341.681 147.33 340.361 147.66 341.001 148" stroke="#77CFE0" stroke-width="4" stroke-linecap="round" stroke-linejoin="round"/>
<path d="M346.998 165.135C346.008 167.125 342.018 172.435 339.008 179.44C337.226 183.588 335.678 197.355 333.678 218.48C331.966 236.567 333.328 248.105 333.828 253.76C334.268 258.738 333.008 267.405 330.848 279.71C327.428 299.195 328.318 310.395 330.818 316.955C333.371 323.654 342.978 319.795 356.553 321.455C367.132 322.748 387.258 325.415 405.548 326.61C423.838 327.805 439.678 327.475 448.333 327.47C460.337 327.463 466.958 327.475 473.643 326.805C478.403 326.328 481.648 324.135 484.148 321.99C489.074 317.763 483.678 304.535 481.843 289.75C479.656 272.129 481.338 255.865 480.338 244.55C479.1 230.539 480.998 223.835 480.168 212.69C478.816 194.526 476.018 184.515 474.833 177.49C474.436 175.136 473.338 173.145 471.513 171.48C469.305 169.465 459.738 170.135 447.418 169.97C439.703 169.866 427.428 169.135 410.123 168.805C402.383 168.657 396.778 167.815 387.288 167.31C364.598 166.475 350.008 165.805 348.013 165.14C347.008 164.805 346.018 164.475 344.998 164.135" stroke="#77CFE0" stroke-width="4" stroke-linecap="round" stroke-linejoin="round"/>
<path d="M394.999 283.136C394.689 285.446 388.019 292.776 373.254 309.531C365.762 318.032 355.219 332.516 346.969 343.786C338.719 355.056 333.439 362.976 325.604 373.326C317.769 383.676 307.539 396.216 301.444 404.161C293.298 414.78 291.669 419.126 291.169 421.121C290.921 422.11 290.999 423.116 291.659 423.956C294.751 427.891 308.559 427.136 333.384 428.966C342.186 429.615 354.419 427.496 366.649 427.146C390.751 426.456 407.289 427.806 415.604 426.976C430.992 425.44 447.579 426.456 461.114 426.806C469.951 427.034 476.319 424.806 477.824 424.306C482.811 422.649 464.029 414.176 452.929 392.336C444.03 374.826 431.599 342.776 424.634 325.796C415.689 303.988 415.679 291.536 409.689 280.171C406.907 274.894 403.009 273.476 401.014 272.806C400.061 272.486 399.019 273.456 391.414 283.036C383.809 292.616 369.619 311.096 359.669 323.586C349.719 336.076 344.439 342.016 340.069 348.541C331.451 361.409 328.009 370.126 324.034 374.926C309.338 392.672 308.339 398.776 306.009 404.781C304.029 409.884 298.679 413.776 297.169 418.616C296.719 420.057 296.999 422.096 297.494 423.281C300.951 431.557 321.639 424.806 337.189 424.141C350.091 423.589 373.199 423.476 386.419 423.471C402.282 423.465 408.299 424.136 417.589 423.146C444.498 420.278 455.619 420.136 462.639 419.306C464.632 419.07 467.279 419.136 468.474 418.641C473.042 416.749 460.699 399.896 457.839 389.001C456.663 384.52 454.679 375.206 452.184 363.056C450.416 354.445 443.389 340.906 434.724 324.581C427.32 310.632 419.719 293.196 416.004 287.151C415.339 285.156 414.009 282.816 412.014 280.321C411.009 279.146 410.019 278.156 408.999 276.136" stroke="#77CFE0" stroke-width="4" stroke-linecap="round" stroke-linejoin="round"/>
<path d="M580.001 136C580.661 135.34 581.991 134.01 582.501 133.5C589.978 126.023 562.081 162.52 559.651 172.66C558.458 177.637 573.941 164.39 584.261 154.075C598.849 139.494 606.651 129.68 608.821 128.34C613.921 125.191 594.081 151.54 590.161 163.31C589.662 164.809 592.961 165.32 595.631 164.505C602.076 162.538 610.281 152.73 621.746 140.095C633.984 126.608 643.981 120.34 646.651 120.825C650.7 121.56 640.721 136.91 632.061 153.215C625.575 165.427 626.001 172.99 626.661 173.83C630.958 179.299 644.581 163.36 652.651 158.185C654.953 156.709 656.321 153.35 658.156 151.675C659.364 150.572 657.341 156.98 656.341 160.64C655.889 162.293 656.001 163.64 658.311 163.66C673.373 163.79 681.961 151.04 687.136 147.515C691.601 144.473 685.001 159.98 685.991 163.31C686.468 164.915 688.961 165.32 691.136 165.33C706.217 165.399 722.981 155 732.441 156.825C737.581 157.33 746.161 157.66 753.881 157.335C761.601 157.01 768.201 156.02 774.001 156" stroke="#858585" stroke-width="4" stroke-linecap="round" stroke-linejoin="round"/>
<path d="M612.999 219.999C612.339 218.679 610.679 217.009 607.854 215.509C601.233 211.994 587.079 221.619 570.554 236.274C564.385 241.745 563.999 247.979 564.659 252.134C565.016 254.379 566.639 256.619 568.804 258.304C579.009 266.246 599.239 258.359 614.284 250.864C620.523 247.756 622.989 241.359 624.159 236.699C624.653 234.732 623.679 233.359 622.514 232.679C616.328 229.068 604.719 234.979 597.189 241.304C595.267 242.919 594.359 245.619 594.009 247.304C593.659 248.989 594.319 249.979 595.484 251.149C602.152 257.846 617.279 255.339 626.634 253.009C630.418 252.067 634.309 250.339 638.469 249.834C640.312 249.611 641.639 250.979 642.649 252.644C646.925 259.693 647.659 263.989 649.484 265.654C650.479 266.562 652.299 266.659 654.139 265.839C658.466 263.911 660.659 259.019 661.659 253.874C664.178 240.918 659.999 236.679 660.824 234.844C661.223 233.957 663.299 234.659 664.644 235.489C668.659 242.629 669.669 251.979 669.169 255.969C668.999 257.979 668.999 259.959 668.999 261.999" stroke="#858585" stroke-width="4" stroke-linecap="round" stroke-linejoin="round"/>
<path d="M678 257.001C680.64 253.701 688.6 246.721 697.94 239.711C701.435 237.088 694.34 250.641 693.67 255.136C693.397 256.971 694.32 257.981 695.155 258.821C695.99 259.661 696.98 260.321 698.315 260.496C705.086 261.383 714.28 252.051 721.95 246.861C725.85 244.222 723.66 258.311 725.155 262.636C725.868 264.697 726.98 266.301 728.81 266.491C739.709 267.622 746.3 247.741 755.47 232.046C756.762 229.834 757 230.981 757.495 233.306C760.99 244.321 763.66 248.321 765.65 250.321C766.98 251.001 768.96 251.001 771 251.001" stroke="#858585" stroke-width="4" stroke-linecap="round" stroke-linejoin="round"/>
<path d="M591.002 345C591.002 344.34 591.332 343.01 592.987 341.015C594.049 339.735 596.622 339.02 613.817 335.87C631.012 332.72 663.022 327.44 684.462 324.555C705.902 321.67 715.802 321.34 719.582 321.83C723.362 322.32 720.722 323.64 711.937 326.63C703.152 329.62 688.302 334.24 667.617 339.095C646.932 343.95 620.862 348.9 606.112 352.11C591.362 355.32 588.722 356.64 587.527 357.815C586.332 358.99 586.662 359.98 591.287 360.655C595.912 361.33 604.822 361.66 622.612 359.355C640.402 357.05 666.802 352.1 681.887 349.055C696.972 346.01 699.942 345.02 701.967 344.015C703.992 343.01 704.982 342.02 703.842 341.18C699.402 339.68 692.372 339.66 681.757 342.31C674.772 344.3 664.542 347.6 654.002 351" stroke="#858585" stroke-width="4" stroke-linecap="round" stroke-linejoin="round"/>
<path d="M590 402C590.33 402.33 590.66 402.66 591.325 402.83C591.99 403 592.98 403 608.34 398.38C623.7 393.76 653.4 384.52 667.71 380.75C682.02 376.98 680.04 378.96 673.41 384.105C655.779 397.787 643.34 406.99 643.99 408.49C645.834 412.745 665.2 405.7 686.52 400.205C694.665 398.105 697.28 397.02 699.3 396.345C701.32 395.67 702.64 395.34 699.195 397.15C687.65 403.215 678.01 407.66 678.16 408.165C679.466 412.56 700.19 397.09 721.195 384.91C727.734 381.118 727.02 384.28 725.025 388.28C715.9 406.575 714 419.28 716.315 425.155C718.012 429.461 726.64 422.69 731.96 417.375C737.976 411.364 746.93 395.78 757.925 378.285C761.903 371.954 762.98 371.02 763.82 371.005C772.496 370.85 763.66 394.65 765.32 397.645C766.916 400.524 769.99 401.33 771.985 401.665C773.98 401.34 775.99 400.67 777.985 400.005C778.99 399.67 779.98 399.34 782 399" stroke="#858585" stroke-width="4" stroke-linecap="round" stroke-linejoin="round"/>
<path d="M82.9989 60C81.0489 65.59 70.3389 82.98 69.5039 86.64C69.1282 88.2868 69.6589 89.64 70.6539 90.32C76.4449 94.2777 91.9089 79.41 105.244 68.57C109.504 65.1069 109.339 66.64 108.179 69.795C105.179 77.9531 102.999 84.65 104.484 86.655C107.162 90.2712 120.249 75.76 131.759 65.72C148.282 51.307 129.329 103.31 130.489 106.81C130.945 108.187 132.639 108 133.484 107.34C134.329 106.68 134.659 105.36 134.829 103.525C134.999 101.69 134.999 99.38 134.999 97" stroke="#858585" stroke-width="4" stroke-linecap="round" stroke-linejoin="round"/>
<path d="M141 78.9991C144.99 75.3391 150.96 70.0391 156.15 66.0091C157.32 65.3391 158.64 64.6791 159.815 64.3391C160.99 63.9991 161.98 63.9991 162 64.9991" stroke="#858585" stroke-width="4" stroke-linecap="round" stroke-linejoin="round"/>
<path d="M196.001 73.0002C196.661 72.3402 197.321 71.6802 197.166 72.3302C197.011 72.9802 196.021 74.9602 195.181 75.4852C194.341 76.0102 193.681 75.0202 193.506 73.6852C193.117 70.7215 195.321 67.3502 197.981 64.3552C199.242 62.9357 200.641 62.0202 199.836 64.6452C197.003 73.8835 192.341 82.3102 191.671 86.3052C191.392 87.967 192.321 88.9802 193.486 89.4902C200.683 92.641 213.281 82.7002 224.461 74.2002C229.339 70.4912 231.991 66.6802 232.171 66.3302C234.682 61.4484 225.671 75.6502 225.336 78.6452C225.186 79.9819 225.661 80.9802 226.326 81.6552C226.991 82.3302 227.981 82.6602 229.646 82.5002C245.674 80.96 262.321 64.3402 264.321 63.8352C268.989 62.6564 262.001 75.6502 262.826 78.4802C263.689 81.441 269.641 81.0002 275.621 79.8452C290.823 76.9091 296.301 65.3602 300.821 63.3252C305.524 61.2077 303.991 73.3202 306.316 75.6502C307.651 76.6602 309.301 77.3202 310.646 77.6602C311.991 78.0002 312.981 78.0002 314.001 77.0002" stroke="#858585" stroke-width="4" stroke-linecap="round" stroke-linejoin="round"/>
<path d="M349 80.0006C352.98 78.6706 358.98 77.3406 365.475 77.6606C368.664 77.8178 371.64 81.6606 377.125 82.4956C393.263 84.9524 406.68 77.9806 416.59 79.6756C434.845 82.7979 447.65 71.0006 450.975 71.4956C458.025 72.5453 462.3 81.3006 475.1 86.3206C486.68 90.8621 504.57 84.0306 521.545 79.0356C533.745 75.4456 541.64 75.0006 549.435 75.9906C575.61 81.6606 588.65 83.0006 591.645 82.8356C592.99 82.6706 593.98 82.3406 594 82.0006" stroke="#858585" stroke-width="4" stroke-linecap="round" stroke-linejoin="round"/>
</svg>
