<svg width="772" height="404" viewBox="0 0 772 404" fill="none" xmlns="http://www.w3.org/2000/svg">
<rect x="2" y="50" width="512" height="352" rx="6" fill="white" stroke="#1E1E1E" stroke-width="4" stroke-linecap="round"/>
<rect x="2" y="2" width="768" height="48" rx="3" fill="white" stroke="#1E1E1E" stroke-width="4" stroke-linecap="round"/>
<rect x="514" y="50" width="256" height="96" rx="6" fill="white" stroke="#1E1E1E" stroke-width="4" stroke-linecap="round"/>
<rect x="514" y="146" width="256" height="96" rx="6" fill="white" stroke="#1E1E1E" stroke-width="4" stroke-linecap="round"/>
<rect x="514" y="242" width="256" height="160" rx="6" fill="white" stroke="#1E1E1E" stroke-width="4" stroke-linecap="round"/>
<path d="M178.001 97C174.351 96.34 167.701 94.34 159.706 93.67C152.379 93.056 144.041 92 132.266 93.65C112.471 96.4237 97.3706 103.65 88.2406 108.79C74.7486 116.386 65.6906 125.97 61.3656 132.12C57.0831 138.21 52.0406 153.55 45.7106 173.525C41.5678 186.598 43.3206 198.93 48.7856 215.37C52.0581 225.214 59.8606 236.76 66.4006 246.675C78.2378 264.621 87.6406 274.31 94.1156 279.46C102.504 286.132 111.961 290.98 120.106 294.64C128.306 298.325 143.231 300.65 162.526 303.15C179.064 305.293 189.971 303.67 200.411 301.52C220.015 297.483 235.631 291.35 245.091 286.21C259.421 278.424 273.271 266.06 283.761 255.41C290.869 248.194 292.991 238.39 294.161 227.58C295.219 217.805 291.351 208.38 282.581 190.655C275.967 177.287 262.921 156.1 254.481 142.575C242.701 123.698 234.371 116.36 226.891 111.37C219.462 106.414 206.091 102.69 188.631 99.025C172.428 95.6239 160.701 97.66 144.811 103.775C132.005 108.703 110.441 119.46 97.7356 125.72C81.8503 133.547 76.6906 138.31 72.0356 143.295C67.0419 148.643 62.6906 156.29 58.3656 165.43C53.7579 175.167 52.3406 188.26 51.5056 201.57C50.8375 212.22 54.6406 226.24 62.1056 248.16C66.4792 261.003 73.8606 276.68 78.7506 286.655C85.5953 300.617 91.6406 306.64 98.4456 311.96C107.213 318.814 122.581 322.31 139.046 326.305C153.676 329.855 165.951 330 175.926 329.34C186.073 328.669 196.611 323.69 207.751 318.705C218.882 313.724 228.621 306.37 238.096 298.065C248.782 288.699 255.311 278.04 260.461 267.915C267.564 253.95 270.991 240.71 272.491 229.425C274.674 212.997 272.671 200.36 271.511 193.72C268.479 176.368 263.021 165.4 255.201 149.06C253.347 145.186 251.041 142.72 242.101 136.08C233.161 129.44 217.321 118.88 206.026 111.955C188.838 101.417 176.061 97.02 162.111 93.195C132.662 85.1205 124.701 87.34 113.711 87.165C109.015 87.0902 105.021 88.66 100.866 90.815C88.3606 97.3008 89.3406 117.62 85.5206 128.29C83.0917 135.074 79.0106 140.31 76.0256 146.285C71.5818 155.18 64.0406 168.58 57.7106 182.57C52.7209 193.598 51.0206 203.28 49.8356 210.975C48.3121 220.868 49.6606 234.96 55.6306 249.095C61.5201 263.039 69.6506 271.65 73.4706 276.295C79.0155 283.037 83.6406 291.3 90.2806 297.785C98.2471 305.566 109.621 308.98 119.921 312.805C141.091 320.667 152.281 321.66 164.946 321.67C173.955 321.677 182.961 319.01 190.776 316.85C198.379 314.749 207.941 310.03 220.241 303.55C226.668 300.164 233.201 296.08 243.366 287.77C253.531 279.46 267.061 266.92 275.021 259.14C288.756 245.716 289.661 238.7 291.331 227.22C292.552 218.823 286.041 203.11 279.876 185.785C277.035 177.802 272.381 165.11 264.886 147.785C259.72 135.844 252.701 130.36 233.906 119.705C226.846 115.703 218.721 112.02 208.706 109.675C198.292 107.237 191.701 106.34 169.271 105.34C155.669 104.734 147.021 102 141.876 102.33C134.371 102.811 124.061 106.31 107.966 114.595C97.8106 120.57 83.6206 130.14 74.9906 136.225C66.3606 142.31 63.7206 144.62 61.0006 147" stroke="#77CFE0" stroke-width="4" stroke-linecap="round" stroke-linejoin="round"/>
<path d="M308.001 107C308.001 105.01 308.991 102.01 310.161 101.005C310.985 100.297 308.341 105.64 307.176 111.125C305.956 116.871 305.671 127.92 304.346 155.925C303.396 176.012 301.701 208.02 301.676 224.675C301.651 241.33 303.301 241.66 305.636 241.83C310.93 242.215 315.981 241.67 327.231 241.17C336.493 240.758 353.001 241 377.341 240.01C401.681 239.02 433.361 237.04 450.176 235.855C466.991 234.67 467.981 234.34 467.996 234.335C468.011 234.33 467.021 234.66 466.676 234.335C462.512 230.412 469.001 218.04 466.511 192.145C465.427 180.87 466.001 164.66 466.661 152.205C467.762 131.435 470.001 115.41 468.846 103.91C468.439 99.8533 465.381 100 463.366 100.165C456.652 100.715 450.701 101.66 441.371 102.165C439.019 102.292 437.041 102.66 418.861 102.83C400.681 103 366.361 103 348.021 102.835C326.011 102 320.701 101.34 313.361 101.165C311.681 101.33 310.361 101.66 311.001 102" stroke="#77CFE0" stroke-width="4" stroke-linecap="round" stroke-linejoin="round"/>
<path d="M316.998 89C316.008 90.99 312.018 96.3 309.008 103.305C307.226 107.454 305.678 121.22 303.678 142.345C301.966 160.432 303.328 171.97 303.828 177.625C304.268 182.603 303.008 191.27 300.848 203.575C297.428 223.06 298.318 234.26 300.818 240.82C303.371 247.519 312.978 243.66 326.553 245.32C337.132 246.614 357.258 249.28 375.548 250.475C393.838 251.67 409.678 251.34 418.333 251.335C430.337 251.328 436.958 251.34 443.643 250.67C448.403 250.193 451.648 248 454.148 245.855C459.074 241.628 453.678 228.4 451.843 213.615C449.656 195.994 451.338 179.73 450.338 168.415C449.1 154.405 450.998 147.7 450.168 136.555C448.816 118.391 446.018 108.38 444.833 101.355C444.436 99.0014 443.338 97.01 441.513 95.345C439.305 93.3305 429.738 94 417.418 93.835C409.703 93.7317 397.428 93 380.123 92.67C372.383 92.5224 366.778 91.68 357.288 91.175C334.598 90.34 320.008 89.67 318.013 89.005C317.008 88.67 316.018 88.34 314.998 88" stroke="#77CFE0" stroke-width="4" stroke-linecap="round" stroke-linejoin="round"/>
<path d="M364.999 206.999C364.689 209.309 358.019 216.639 343.254 233.394C335.762 241.896 325.219 256.379 316.969 267.649C308.719 278.919 303.439 286.839 295.604 297.189C287.769 307.539 277.539 320.079 271.444 328.024C263.298 338.643 261.669 342.989 261.169 344.984C260.921 345.973 260.999 346.979 261.659 347.819C264.751 351.755 278.559 350.999 303.384 352.829C312.186 353.478 324.419 351.359 336.649 351.009C360.751 350.319 377.289 351.669 385.604 350.839C400.992 349.303 417.579 350.319 431.114 350.669C439.951 350.898 446.319 348.669 447.824 348.169C452.811 346.512 434.029 338.039 422.929 316.199C414.03 298.689 401.599 266.639 394.634 249.659C385.689 227.852 385.679 215.399 379.689 204.034C376.907 198.757 373.009 197.339 371.014 196.669C370.061 196.349 369.019 197.319 361.414 206.899C353.809 216.479 339.619 234.959 329.669 247.449C319.719 259.939 314.439 265.879 310.069 272.404C301.451 285.272 298.009 293.989 294.034 298.789C279.338 316.536 278.339 322.639 276.009 328.644C274.029 333.748 268.679 337.639 267.169 342.479C266.719 343.92 266.999 345.959 267.494 347.144C270.951 355.42 291.639 348.669 307.189 348.004C320.091 347.452 343.199 347.339 356.419 347.334C372.282 347.328 378.299 347.999 387.589 347.009C414.498 344.142 425.619 343.999 432.639 343.169C434.632 342.933 437.279 342.999 438.474 342.504C443.042 340.612 430.699 323.759 427.839 312.864C426.663 308.383 424.679 299.069 422.184 286.919C420.416 278.308 413.389 264.769 404.724 248.444C397.32 234.496 389.719 217.059 386.004 211.014C385.339 209.019 384.009 206.679 382.014 204.184C381.009 203.009 380.019 202.019 378.999 199.999" stroke="#77CFE0" stroke-width="4" stroke-linecap="round" stroke-linejoin="round"/>
<path d="M550.001 89.9999C550.661 89.3399 551.991 88.0099 552.501 87.4999C559.978 80.0226 532.081 116.52 529.651 126.66C528.458 131.637 543.941 118.39 554.261 108.075C568.849 93.4942 576.651 83.6799 578.821 82.3399C583.921 79.1905 564.081 105.54 560.161 117.31C559.662 118.809 562.961 119.32 565.631 118.505C572.076 116.538 580.281 106.73 591.746 94.0949C603.984 80.6084 613.981 74.3399 616.651 74.8249C620.7 75.5604 610.721 90.9099 602.061 107.215C595.575 119.427 596.001 126.99 596.661 127.83C600.958 133.299 614.581 117.36 622.651 112.185C624.953 110.709 626.321 107.35 628.156 105.675C629.364 104.572 627.341 110.98 626.341 114.64C625.889 116.293 626.001 117.64 628.311 117.66C643.373 117.79 651.961 105.04 657.136 101.515C661.601 98.4735 655.001 113.98 655.991 117.31C656.468 118.915 658.961 119.32 661.136 119.33C676.217 119.399 692.981 109 702.441 110.825C707.581 111.33 716.161 111.66 723.881 111.335C731.601 111.01 738.201 110.02 744.001 110" stroke="#858585" stroke-width="4" stroke-linecap="round" stroke-linejoin="round"/>
<path d="M582.999 173.999C582.339 172.679 580.679 171.009 577.854 169.509C571.233 165.994 557.079 175.619 540.554 190.274C534.385 195.745 533.999 201.979 534.659 206.134C535.016 208.379 536.639 210.619 538.804 212.304C549.009 220.246 569.239 212.359 584.284 204.864C590.523 201.756 592.989 195.359 594.159 190.699C594.653 188.732 593.679 187.359 592.514 186.679C586.328 183.068 574.719 188.979 567.189 195.304C565.267 196.919 564.359 199.619 564.009 201.304C563.659 202.989 564.319 203.979 565.484 205.149C572.152 211.846 587.279 209.339 596.634 207.009C600.418 206.067 604.309 204.339 608.469 203.834C610.312 203.611 611.639 204.979 612.649 206.644C616.925 213.693 617.659 217.989 619.484 219.654C620.479 220.562 622.299 220.659 624.139 219.839C628.466 217.911 630.659 213.019 631.659 207.874C634.178 194.918 629.999 190.679 630.824 188.844C631.223 187.957 633.299 188.659 634.644 189.489C638.659 196.629 639.669 205.979 639.169 209.969C638.999 211.979 638.999 213.959 638.999 215.999" stroke="#858585" stroke-width="4" stroke-linecap="round" stroke-linejoin="round"/>
<path d="M648 211.001C650.64 207.701 658.6 200.721 667.94 193.711C671.435 191.088 664.34 204.641 663.67 209.136C663.397 210.971 664.32 211.981 665.155 212.821C665.99 213.661 666.98 214.321 668.315 214.496C675.086 215.383 684.28 206.051 691.95 200.861C695.85 198.222 693.66 212.311 695.155 216.636C695.868 218.697 696.98 220.301 698.81 220.491C709.709 221.622 716.3 201.741 725.47 186.046C726.762 183.834 727 184.981 727.495 187.306C730.99 198.321 733.66 202.321 735.65 204.321C736.98 205.001 738.96 205.001 741 205.001" stroke="#858585" stroke-width="4" stroke-linecap="round" stroke-linejoin="round"/>
<path d="M561.002 299C561.002 298.34 561.332 297.01 562.987 295.015C564.049 293.735 566.622 293.02 583.817 289.87C601.012 286.72 633.022 281.44 654.462 278.555C675.902 275.67 685.802 275.34 689.582 275.83C693.362 276.32 690.722 277.64 681.937 280.63C673.152 283.62 658.302 288.24 637.617 293.095C616.932 297.95 590.862 302.9 576.112 306.11C561.362 309.32 558.722 310.64 557.527 311.815C556.332 312.99 556.662 313.98 561.287 314.655C565.912 315.33 574.822 315.66 592.612 313.355C610.402 311.05 636.802 306.1 651.887 303.055C666.972 300.01 669.942 299.02 671.967 298.015C673.992 297.01 674.982 296.02 673.842 295.18C669.402 293.68 662.372 293.66 651.757 296.31C644.772 298.3 634.542 301.6 624.002 305" stroke="#858585" stroke-width="4" stroke-linecap="round" stroke-linejoin="round"/>
<path d="M560 356C560.33 356.33 560.66 356.66 561.325 356.83C561.99 357 562.98 357 578.34 352.38C593.7 347.76 623.4 338.52 637.71 334.75C652.02 330.98 650.04 332.96 643.41 338.105C625.779 351.787 613.34 360.99 613.99 362.49C615.834 366.745 635.2 359.7 656.52 354.205C664.665 352.105 667.28 351.02 669.3 350.345C671.32 349.67 672.64 349.34 669.195 351.15C657.65 357.215 648.01 361.66 648.16 362.165C649.466 366.56 670.19 351.09 691.195 338.91C697.734 335.118 697.02 338.28 695.025 342.28C685.9 360.575 684 373.28 686.315 379.155C688.012 383.461 696.64 376.69 701.96 371.375C707.976 365.364 716.93 349.78 727.925 332.285C731.903 325.954 732.98 325.02 733.82 325.005C742.496 324.85 733.66 348.65 735.32 351.645C736.916 354.524 739.99 355.33 741.985 355.665C743.98 355.34 745.99 354.67 747.985 354.005C748.99 353.67 749.98 353.34 752 353" stroke="#858585" stroke-width="4" stroke-linecap="round" stroke-linejoin="round"/>
<path d="M52.9989 14C51.0489 19.59 40.3389 36.98 39.5039 40.64C39.1282 42.2868 39.6589 43.64 40.6539 44.32C46.4449 48.2777 61.9089 33.41 75.2439 22.57C79.5041 19.1069 79.3389 20.64 78.1789 23.795C75.1794 31.9531 72.9989 38.65 74.4839 40.655C77.1622 44.2712 90.2489 29.76 101.759 19.72C118.282 5.30703 99.3289 57.31 100.489 60.81C100.945 62.1872 102.639 62 103.484 61.34C104.329 60.68 104.659 59.36 104.829 57.525C104.999 55.69 104.999 53.38 104.999 51" stroke="#858585" stroke-width="4" stroke-linecap="round" stroke-linejoin="round"/>
<path d="M111 32.9991C114.99 29.3391 120.96 24.0391 126.15 20.0091C127.32 19.3391 128.64 18.6791 129.815 18.3391C130.99 17.9991 131.98 17.9991 132 18.9991" stroke="#858585" stroke-width="4" stroke-linecap="round" stroke-linejoin="round"/>
<path d="M166.001 27.0002C166.661 26.3402 167.321 25.6802 167.166 26.3302C167.011 26.9802 166.021 28.9602 165.181 29.4852C164.341 30.0102 163.681 29.0202 163.506 27.6852C163.117 24.7215 165.321 21.3502 167.981 18.3552C169.242 16.9357 170.641 16.0202 169.836 18.6452C167.003 27.8835 162.341 36.3102 161.671 40.3052C161.392 41.967 162.321 42.9802 163.486 43.4902C170.683 46.641 183.281 36.7002 194.461 28.2002C199.339 24.4912 201.991 20.6802 202.171 20.3302C204.682 15.4484 195.671 29.6502 195.336 32.6452C195.186 33.9819 195.661 34.9802 196.326 35.6552C196.991 36.3302 197.981 36.6602 199.646 36.5002C215.674 34.96 232.321 18.3402 234.321 17.8352C238.989 16.6564 232.001 29.6502 232.826 32.4802C233.689 35.441 239.641 35.0002 245.621 33.8452C260.823 30.9091 266.301 19.3602 270.821 17.3252C275.524 15.2077 273.991 27.3202 276.316 29.6502C277.651 30.6602 279.301 31.3202 280.646 31.6602C281.991 32.0002 282.981 32.0002 284.001 31.0002" stroke="#858585" stroke-width="4" stroke-linecap="round" stroke-linejoin="round"/>
<path d="M319 34.0006C322.98 32.6706 328.98 31.3406 335.475 31.6606C338.664 31.8178 341.64 35.6606 347.125 36.4956C363.263 38.9524 376.68 31.9806 386.59 33.6756C404.845 36.7979 417.65 25.0006 420.975 25.4956C428.025 26.5453 432.3 35.3006 445.1 40.3206C456.68 44.8621 474.57 38.0306 491.545 33.0356C503.745 29.4456 511.64 29.0006 519.435 29.9906C545.61 35.6606 558.65 37.0006 561.645 36.8356C562.99 36.6706 563.98 36.3406 564 36.0006" stroke="#858585" stroke-width="4" stroke-linecap="round" stroke-linejoin="round"/>
</svg>
