<svg width="832" height="528" viewBox="0 0 832 528" fill="none" xmlns="http://www.w3.org/2000/svg">
<rect x="32" y="96" width="144" height="80" rx="6" fill="white" stroke="#1E1E1E" stroke-width="4" stroke-linecap="round"/>
<rect x="176" y="96" width="224" height="80" rx="6" fill="white" stroke="#1E1E1E" stroke-width="4" stroke-linecap="round"/>
<rect x="400" y="96" width="192" height="80" rx="6" fill="white" stroke="#1E1E1E" stroke-width="4" stroke-linecap="round"/>
<rect x="592" y="96" width="208" height="80" rx="6" fill="white" stroke="#1E1E1E" stroke-width="4" stroke-linecap="round"/>
<rect x="32" y="48" width="144" height="48" rx="3" fill="white" stroke="#1E1E1E" stroke-width="4" stroke-linecap="round"/>
<rect x="176" y="48" width="624" height="48" rx="3" fill="white" stroke="#1E1E1E" stroke-width="4" stroke-linecap="round"/>
<rect x="32" y="176" width="144" height="80" rx="6" fill="white" stroke="#1E1E1E" stroke-width="4" stroke-linecap="round"/>
<rect x="176" y="176" width="224" height="80" rx="6" fill="white" stroke="#1E1E1E" stroke-width="4" stroke-linecap="round"/>
<rect x="400" y="176" width="192" height="80" rx="6" fill="white" stroke="#1E1E1E" stroke-width="4" stroke-linecap="round"/>
<rect x="592" y="176" width="208" height="80" rx="6" fill="white" stroke="#1E1E1E" stroke-width="4" stroke-linecap="round"/>
<rect x="32" y="256" width="144" height="80" rx="6" fill="white" stroke="#1E1E1E" stroke-width="4" stroke-linecap="round"/>
<rect x="176" y="256" width="224" height="80" rx="6" fill="white" stroke="#1E1E1E" stroke-width="4" stroke-linecap="round"/>
<rect x="400" y="256" width="192" height="80" rx="6" fill="white" stroke="#1E1E1E" stroke-width="4" stroke-linecap="round"/>
<rect x="592" y="256" width="208" height="80" rx="6" fill="white" stroke="#1E1E1E" stroke-width="4" stroke-linecap="round"/>
<rect x="32" y="336" width="144" height="80" rx="6" fill="white" stroke="#1E1E1E" stroke-width="4" stroke-linecap="round"/>
<rect x="176" y="336" width="224" height="80" rx="6" fill="white" stroke="#1E1E1E" stroke-width="4" stroke-linecap="round"/>
<rect x="400" y="336" width="192" height="80" rx="6" fill="white" stroke="#1E1E1E" stroke-width="4" stroke-linecap="round"/>
<rect x="592" y="336" width="208" height="80" rx="6" fill="white" stroke="#1E1E1E" stroke-width="4" stroke-linecap="round"/>
<rect x="32" y="416" width="144" height="80" rx="6" fill="white" stroke="#1E1E1E" stroke-width="4" stroke-linecap="round"/>
<rect x="176" y="416" width="224" height="80" rx="6" fill="white" stroke="#1E1E1E" stroke-width="4" stroke-linecap="round"/>
<rect x="400" y="416" width="192" height="80" rx="6" fill="white" stroke="#1E1E1E" stroke-width="4" stroke-linecap="round"/>
<rect x="592" y="416" width="208" height="80" rx="6" fill="white" stroke="#1E1E1E" stroke-width="4" stroke-linecap="round"/>
<path d="M63.5316 62.1899C61.2119 64.5096 56.1709 70.5447 56.1659 71.8903C56.1387 79.1899 67.5383 60.8543 67.5534 61.8434C67.7631 75.6188 55.4981 80.5866 55.9952 82.9263C56.2299 84.0312 57.4864 84.6033 59.1584 84.282C72.8304 78.9498 89.289 75.2343 96.1074 76.7405C101.269 77.2527 109.885 77.2527 118.762 78.2569" stroke="#77CFE0" stroke-width="4" stroke-linecap="round" stroke-linejoin="round"/>
<path d="M204.117 67.2115C204.117 66.5487 205.443 64.8818 207.12 63.7019C211.745 60.4475 205.453 74.5621 206.452 76.9019C206.929 78.0186 208.114 78.5789 209.454 78.9203C210.795 79.2617 212.452 79.2617 213.803 78.7647C219.908 76.5177 221.851 68.2358 222.69 64.7261C223.045 63.2366 222.534 62.2106 221.7 61.8642C220.867 61.5178 219.541 61.8491 218.362 63.1797C217.182 64.5102 216.188 66.8299 216.007 69.1847C215.647 73.8702 218.166 77.2433 220.169 79.081C221.138 79.9701 222.172 80.5872 223.182 80.9287C227.973 82.5497 235.548 75.6065 244.42 70.9069C249.032 68.4641 253.312 70.8969 254.984 69.8977C255.801 69.4096 255.993 68.2358 255.667 67.3922C255.341 66.5487 254.347 65.886 254.994 65.5445C255.642 65.2031 257.962 65.2031 259.322 65.7002C264.828 67.7116 262.019 78.2475 263.685 79.9195C265.478 81.7174 274.671 76.9621 285.883 70.932C291.219 68.0621 298.47 74.9036 329.349 75.4107C336.308 75.5764 338.959 75.9077 342.479 76.0785C345.999 76.2492 350.307 76.2492 354.745 75.245" stroke="#77CFE0" stroke-width="4" stroke-linecap="round" stroke-linejoin="round"/>
<path d="M68.553 127.463C68.553 127.794 68.553 128.126 67.5589 132.936C66.5647 137.746 64.5764 147.024 63.3865 152.301C62.1965 157.578 61.8651 158.573 60.5195 160.601" stroke="#1E1E1E" stroke-width="4" stroke-linecap="round" stroke-linejoin="round"/>
<path d="M98.6765 132.484C99.3393 131.49 100.002 130.495 100.343 130.646C105.706 133.012 95.0213 146.502 92.9828 151.719C89.1096 161.631 113.729 138.177 116.064 137.675C117.405 137.505 119.061 137.505 120.578 138.002C122.094 138.499 123.42 139.493 125.79 142.526" stroke="#1E1E1E" stroke-width="4" stroke-linecap="round" stroke-linejoin="round"/>
<path d="M138.846 133.488C136.868 139.774 130.482 156.564 130.477 159.743C130.475 160.977 131.797 161.264 133.469 160.441C141.839 152.929 147.201 144.896 149.375 140.051C150.224 137.856 150.555 136.2 149.892 133.488" stroke="#1E1E1E" stroke-width="4" stroke-linecap="round" stroke-linejoin="round"/>
<path d="M71.5641 201.773C72.2268 201.773 71.5741 203.762 69.7365 207.934C68.2302 212.438 67.216 217.148 67.2109 220.994C67.5373 222.52 68.5314 223.183 70.5599 222.861" stroke="#1E1E1E" stroke-width="4" stroke-linecap="round" stroke-linejoin="round"/>
<path d="M93.6562 200.768C96.3073 199.443 98.9985 198.428 101.67 198.258C103.022 198.171 104.341 199.081 105.355 200.251C111.186 206.977 101.047 222.479 96.3475 226.706C95.8276 227.174 95.6646 225.23 96.4931 223.387C100.816 213.772 112.013 206.833 119.409 203.118C120.653 202.493 121.753 202.776 122.266 203.274C125.499 206.412 120.769 214.134 121.598 217.648C121.931 219.064 124.083 218.843 125.434 218.678C131.054 217.988 136.153 214.827 138.659 215.158C139.874 215.319 140.833 216.152 140.185 216.991C139.537 217.829 137.218 218.823 135.691 219.833C134.165 220.842 133.502 221.836 132.819 222.86" stroke="#1E1E1E" stroke-width="4" stroke-linecap="round" stroke-linejoin="round"/>
<path d="M81.6055 280.1H81.6056" stroke="#1E1E1E" stroke-width="4" stroke-linecap="round" stroke-linejoin="round"/>
<path d="M81.6063 280.1C80.2808 280.431 74.2758 282.429 67.4021 288.941C65.8036 290.456 65.8808 292.451 66.3728 294.299C67.4652 298.401 70.5502 301.177 71.2281 303.181C70.9117 304.19 69.2548 305.184 67.9042 305.696C66.5536 306.208 65.5594 306.208 64.5352 306.208" stroke="#1E1E1E" stroke-width="4" stroke-linecap="round" stroke-linejoin="round"/>
<path d="M102.694 286.124C103.055 290.081 97.01 305.505 96.6686 309.697C95.5146 323.868 115.738 278.101 117.741 276.429C118.675 275.65 119.745 275.42 120.423 276.74C124.893 285.449 122.436 294.459 124.274 298.501C129.787 296.849 135.812 293.164 139.156 292.32C140.511 292.471 141.174 293.796 142.861 295.162" stroke="#1E1E1E" stroke-width="4" stroke-linecap="round" stroke-linejoin="round"/>
<path d="M62.5273 364.451C64.5257 365.445 69.1951 372.766 74.2261 386.829C75.2027 389.56 75.9031 390.54 76.9073 390.721C77.9115 390.901 79.237 390.239 80.4169 388.572C86.561 379.892 84.9508 371.491 86.2814 369.321C87.2805 368.147 88.9374 366.821 90.1224 367.298C91.3073 367.775 91.9701 370.095 92.6529 372.485" stroke="#1E1E1E" stroke-width="4" stroke-linecap="round" stroke-linejoin="round"/>
<path d="M103.7 369.473C103.71 369.794 98.3778 375.799 95.1694 381.337C94.5714 382.369 95.3251 383.511 96.3242 384.686C98.6875 387.465 102.676 388.884 106.848 389.054C116.068 389.431 126.395 379.233 134.81 370.994C135.834 373.108 136.828 376.161 138.831 377.496C139.841 378.169 140.835 378.832 141.859 379.515" stroke="#1E1E1E" stroke-width="4" stroke-linecap="round" stroke-linejoin="round"/>
<path d="M56.5 473.908C58.8197 467.933 71.4825 449.225 83.0708 440.956C85.583 439.163 89.2365 438.782 90.9436 439.264C103.961 442.939 84.6072 471.227 86.6105 471.232C91.9578 465.242 98.9871 452.87 102.833 447.493C104.359 447.086 105.022 451.394 105.705 455.833" stroke="#1E1E1E" stroke-width="4" stroke-linecap="round" stroke-linejoin="round"/>
<path d="M115.75 453.823C117.748 453.491 121.092 449.505 124.276 445.794C129.043 440.238 121.444 464.859 121.936 465.702C123.536 468.445 128.122 462.198 130.627 462.353C132.06 462.442 132.801 465.491 133.81 466.521C134.819 467.55 135.814 467.219 136.657 466.551C137.501 465.883 138.163 464.889 138.846 463.865" stroke="#1E1E1E" stroke-width="4" stroke-linecap="round" stroke-linejoin="round"/>
<path d="M250.31 124.451C249.979 126.45 247.318 131.119 244.626 137.149C244.059 138.421 244.285 139.494 245.445 139.675C248.916 140.216 255.291 135.527 261.316 132.003C266.549 128.941 262.692 144.515 263.857 148.19C264.425 149.984 266.016 151.203 267.361 151.886C268.707 152.568 270.032 152.568 271.544 152.071C281.278 148.87 287.786 137.516 290.623 136.009C296.102 133.101 302.166 140.157 308.362 144.52C309.851 145.569 311.204 146.523 313.378 146.87C326.909 143.892 342.976 136.853 354.158 134.342C360.038 133.489 366.334 133.489 372.821 133.489" stroke="#1E1E1E" stroke-width="4" stroke-linecap="round" stroke-linejoin="round"/>
<path d="M233.236 205.788C233.236 205.457 233.236 205.126 232.739 204.955C232.242 204.784 231.248 204.784 229.908 205.447C220.332 210.181 218.515 228.503 220.338 236.225C220.964 238.879 224.851 239.258 228.522 239.594C232.849 239.991 238.89 237.27 246.898 232.605C257.146 226.637 265.662 215.881 272.189 208.846C274.25 206.625 274.408 207.777 273.911 211.106C271.36 228.187 271.727 234.89 272.726 238.234C273.159 239.682 274.388 240.252 275.729 240.594C277.069 240.935 278.726 240.935 279.248 240.272C282.627 235.984 271.737 231.907 271.23 230.07C269.959 225.466 282.401 225.209 301.772 221.534C307.112 220.521 311.804 220.851 314.691 221.348C317.578 221.845 318.572 222.84 318.919 224.346C319.702 227.751 317.598 231.546 315.76 234.553C314.917 235.904 314.254 236.898 318.386 234.759C322.519 232.62 331.466 227.318 342.693 221.855" stroke="#1E1E1E" stroke-width="4" stroke-linecap="round" stroke-linejoin="round"/>
<path d="M242.276 285.12C242.276 284.789 242.276 284.458 241.779 284.618C237.044 286.149 232.595 295.785 230.562 303.171C230.115 304.792 230.888 306.509 231.556 307.86C232.224 309.211 233.218 310.205 234.393 310.551C241.027 312.507 252.92 296.909 259.001 291.984C262.533 289.122 257.017 304.501 256.997 308.874C256.993 309.822 258.985 309.884 260.331 309.557C267.094 307.917 277.342 292.25 287.76 283.298C290.211 281.192 295.076 281.124 298.621 281.274C302.165 281.425 304.816 282.75 306.514 284.427C312.544 290.387 306.564 300.484 305.7 304.692C304.107 312.456 322.912 298.858 349.784 294.007C357.717 293.154 361.091 293.817 363.762 295.152C365.108 295.825 366.433 296.488 367.799 299.179" stroke="#1E1E1E" stroke-width="4" stroke-linecap="round" stroke-linejoin="round"/>
<path d="M237.256 366.458C237.256 365.796 237.256 365.133 237.256 364.294C237.256 363.456 237.256 362.462 234.771 364.601C232.285 366.74 227.314 372.042 225.417 374.607C220.509 381.241 245.279 354.76 245.791 353.575C249.488 345.022 236.935 372.072 236.749 384.614C236.674 389.664 241.534 391.523 247.057 391.222C252.58 390.92 259.87 388.269 265.283 383.921C275.815 375.46 277.423 365.474 277.92 362.462C278.106 361.338 279.412 361.437 280.918 361.935C284.526 363.125 287.455 364.781 289.459 365.781C290.541 366.321 291.462 367.443 290.648 369.446C289.835 371.449 287.184 374.432 286.481 376.299C285.778 378.167 287.104 378.83 288.946 378.84C297.48 378.887 304.828 370.184 311.355 364.154C313.418 362.248 313.574 363.426 313.243 364.932C312.462 368.48 311.566 374.452 312.394 381.305C313.015 386.438 318.575 388.54 322.747 390.047C331.629 390.228 350.91 381.602 362.593 375.004C363.773 374.492 364.767 374.492 365.792 374.492" stroke="#1E1E1E" stroke-width="4" stroke-linecap="round" stroke-linejoin="round"/>
<path d="M210.141 470.895C215.413 464.609 236.209 447.156 243.59 444.952C252.102 442.41 241.27 465.854 241.933 469.364C242.241 470.994 243.921 471.879 245.598 472.391C249.138 473.472 254.295 471.578 263.619 466.753C279.943 458.305 290.465 451.484 292.469 450.982C293.462 450.733 294.472 450.811 295.15 451.64C296.849 453.716 296.501 457.158 297.495 459.829C298.891 463.581 306.502 463.866 316.173 463.203C342.005 461.433 354.382 455.832 358.896 456.164C360.783 456.302 361.753 457.158 362.099 458.328C363.68 463.666 359.443 467.863 357.761 470.89C354.101 467.561 347.061 464.87 344.054 464.704C342.703 464.539 341.709 464.207 338.676 464.87" stroke="#1E1E1E" stroke-width="4" stroke-linecap="round" stroke-linejoin="round"/>
<path d="M479.266 138.51C479.928 138.51 485.241 138.51 494.263 138.675C498.315 138.841 501.297 139.173 505.982 139.343C510.667 139.514 516.963 139.514 523.45 139.514" stroke="#1E1E1E" stroke-width="4" stroke-linecap="round" stroke-linejoin="round"/>
<path d="M484.284 211.815C483.953 211.815 483.621 211.815 493.392 211.318C503.163 210.821 523.046 209.827 543.531 208.803" stroke="#1E1E1E" stroke-width="4" stroke-linecap="round" stroke-linejoin="round"/>
<path d="M469.222 295.161C469.222 293.836 469.222 291.496 468.89 290.311C466.188 280.648 466.872 309.541 468.373 311.715C469.051 312.697 470.206 312.895 471.546 312.734C479.823 311.742 485.269 298.877 488.447 294.353C489.422 292.964 489.968 294.137 489.973 295.643C489.985 299.153 489.637 303.175 490.636 306.519C491.069 307.966 492.298 308.537 493.638 308.878C500.194 310.548 508.345 301.226 514.37 297.355C518.463 294.725 517.081 307.201 519.245 309.039C520.746 309.883 523.066 310.545 525.421 310.555C527.776 310.565 530.095 309.903 532.485 309.22" stroke="#1E1E1E" stroke-width="4" stroke-linecap="round" stroke-linejoin="round"/>
<path d="M489.305 374.493C489.967 374.493 491.303 374.161 501.922 372.499C511.547 371.169 529.773 368.849 539.66 367.489C549.546 366.128 550.54 365.797 551.564 365.455" stroke="#1E1E1E" stroke-width="4" stroke-linecap="round" stroke-linejoin="round"/>
<path d="M475.246 453.823C474.915 453.823 474.583 453.823 484.188 452.001C493.793 450.178 513.345 446.533 533.489 443.781" stroke="#1E1E1E" stroke-width="4" stroke-linecap="round" stroke-linejoin="round"/>
<path d="M660.017 122.441C657.386 124.751 643.327 136.118 639.436 143.339C638.712 144.682 639.592 146.18 640.922 147.692C651.271 153.23 661.674 154.575 664.847 155.072C666.363 155.569 667.689 156.564 671.063 157.588" stroke="#1E1E1E" stroke-width="4" stroke-linecap="round" stroke-linejoin="round"/>
<path d="M691.148 148.551C692.815 145.548 694.824 142.536 695.165 141.858C695.368 141.455 693.518 143.831 693.83 144.353C696.88 149.471 703.189 139.523 705.192 138.183C706.079 137.589 707.195 138.168 707.873 138.835C709.258 140.2 710.218 143.51 712.387 146.688C713.33 148.069 714.887 148.209 716.233 148.214C718.904 147.888 721.927 146.884 725.928 145.051C728.273 143.881 731.256 142.224 735.333 140.517" stroke="#1E1E1E" stroke-width="4" stroke-linecap="round" stroke-linejoin="round"/>
<path d="M660.015 204.785C659.704 205.106 650.355 211.112 644.134 216.815C642.815 218.025 641.96 219.486 641.448 220.832C640.936 222.178 640.936 223.503 641.93 224.517C644.912 226.194 648.618 226.877 651.791 226.712C653.307 226.546 654.633 226.214 654.994 227.881" stroke="#1E1E1E" stroke-width="4" stroke-linecap="round" stroke-linejoin="round"/>
<path d="M698.177 220.853C698.508 218.533 698.839 216.214 698.347 216.344C695.136 217.196 694.833 223.514 694.496 226.522C694.346 227.864 694.823 228.866 695.656 229.378C696.49 229.891 697.815 229.891 699.326 229.062C708.683 223.933 710.558 211.163 710.895 210.143C712.034 206.692 710.558 218.493 711.557 221.501C712.032 222.93 713.219 223.845 714.56 224.523C715.9 225.201 717.557 225.532 719.405 225.04C729.72 222.294 734.639 208.491 738.982 205.474C740.739 204.253 742.662 205.77 743.847 207.111C745.695 210.108 746.709 214.135 747.377 218.147C747.713 219.839 748.044 220.833 748.386 223.865" stroke="#1E1E1E" stroke-width="4" stroke-linecap="round" stroke-linejoin="round"/>
<path d="M634.914 287.129C634.904 287.46 646.201 294.098 654.812 299.335C656.049 300.087 656.986 301.167 656.504 302.177C656.022 303.186 654.034 304.18 652.015 305.355C649.997 306.53 648.009 307.855 647.968 311.229" stroke="#1E1E1E" stroke-width="4" stroke-linecap="round" stroke-linejoin="round"/>
<path d="M691.145 282.107C689.498 288.072 683.785 301.84 684.608 304.019C685.954 307.581 696.779 297.893 704.817 290.854C707.794 288.247 704.862 299.5 706.364 301.508C709.908 306.25 719.252 297.17 722.084 298.33C731.293 305.525 739.969 309.542 747.023 310.059C748.374 309.893 749.368 309.562 750.392 309.22" stroke="#1E1E1E" stroke-width="4" stroke-linecap="round" stroke-linejoin="round"/>
<path d="M637.926 359.43C637.264 359.43 644.213 362.744 655.093 368.759C659.025 370.932 658.351 373.448 657.849 375.135C656.928 378.231 654.676 381.502 652.005 385.177C649.334 388.19 645.649 389.887 641.471 390.554C639.613 390.891 638.288 391.222 635.918 391.564" stroke="#1E1E1E" stroke-width="4" stroke-linecap="round" stroke-linejoin="round"/>
<path d="M689.14 365.455C688.809 365.445 686.147 376.742 685.786 384.188C685.74 385.135 687.774 385.197 688.954 384.871C694.82 383.248 701.15 373.87 705.031 370.471C708.077 367.803 706.211 380.488 707.04 385.172C707.369 387.036 709.525 387.206 711.041 386.879C721.697 384.586 732.31 375.497 734.148 376.657C737.354 378.68 737.331 384.515 739.5 387.858C740.476 389.364 742 389.877 743.512 390.218C746.68 390.56 753.689 388.903 762.22 386.227C765.448 385.207 766.442 384.876 768.471 384.535" stroke="#1E1E1E" stroke-width="4" stroke-linecap="round" stroke-linejoin="round"/>
<path d="M645.959 435.748C645.306 437.405 635.977 445.408 626.071 455.129C624.257 456.909 624.208 458.483 624.203 459.994C624.198 461.505 624.53 463.162 625.694 464.182C626.859 465.201 628.848 465.532 633.351 465.703C637.855 465.874 644.814 465.874 651.984 465.874" stroke="#1E1E1E" stroke-width="4" stroke-linecap="round" stroke-linejoin="round"/>
<path d="M687.132 440.77C687.473 444.083 684.802 454.788 682.949 460.005C682.559 461.102 688.106 455.21 692.459 449.34C693.356 448.131 692.494 455.471 692.153 459.985C692.01 461.87 693.799 462.842 696.471 462.028C714.379 456.575 724.929 443.451 729.609 443.28C739.256 442.928 749.351 456.816 757.394 458.508C761.401 458.182 764.444 457.509 766.447 456.51C767.456 455.842 768.451 454.848 770.479 453.824" stroke="#1E1E1E" stroke-width="4" stroke-linecap="round" stroke-linejoin="round"/>
</svg>
