<svg width="772" height="452" viewBox="0 0 772 452" fill="none" xmlns="http://www.w3.org/2000/svg">
<rect x="2" y="50" width="144" height="80" rx="6" fill="white" stroke="#1E1E1E" stroke-width="4" stroke-linecap="round"/>
<rect x="146" y="50" width="224" height="80" rx="6" fill="white" stroke="#1E1E1E" stroke-width="4" stroke-linecap="round"/>
<rect x="370" y="50" width="192" height="80" rx="6" fill="white" stroke="#1E1E1E" stroke-width="4" stroke-linecap="round"/>
<rect x="562" y="50" width="208" height="80" rx="6" fill="white" stroke="#1E1E1E" stroke-width="4" stroke-linecap="round"/>
<rect x="2" y="2" width="144" height="48" rx="3" fill="white" stroke="#1E1E1E" stroke-width="4" stroke-linecap="round"/>
<rect x="146" y="2" width="624" height="48" rx="3" fill="white" stroke="#1E1E1E" stroke-width="4" stroke-linecap="round"/>
<rect x="2" y="130" width="144" height="80" rx="6" fill="white" stroke="#1E1E1E" stroke-width="4" stroke-linecap="round"/>
<rect x="146" y="130" width="224" height="80" rx="6" fill="white" stroke="#1E1E1E" stroke-width="4" stroke-linecap="round"/>
<rect x="370" y="130" width="192" height="80" rx="6" fill="white" stroke="#1E1E1E" stroke-width="4" stroke-linecap="round"/>
<rect x="562" y="130" width="208" height="80" rx="6" fill="white" stroke="#1E1E1E" stroke-width="4" stroke-linecap="round"/>
<rect x="2" y="210" width="144" height="80" rx="6" fill="white" stroke="#1E1E1E" stroke-width="4" stroke-linecap="round"/>
<rect x="146" y="210" width="224" height="80" rx="6" fill="white" stroke="#1E1E1E" stroke-width="4" stroke-linecap="round"/>
<rect x="370" y="210" width="192" height="80" rx="6" fill="white" stroke="#1E1E1E" stroke-width="4" stroke-linecap="round"/>
<rect x="562" y="210" width="208" height="80" rx="6" fill="white" stroke="#1E1E1E" stroke-width="4" stroke-linecap="round"/>
<rect x="2" y="290" width="144" height="80" rx="6" fill="white" stroke="#1E1E1E" stroke-width="4" stroke-linecap="round"/>
<rect x="146" y="290" width="224" height="80" rx="6" fill="white" stroke="#1E1E1E" stroke-width="4" stroke-linecap="round"/>
<rect x="370" y="290" width="192" height="80" rx="6" fill="white" stroke="#1E1E1E" stroke-width="4" stroke-linecap="round"/>
<rect x="562" y="290" width="208" height="80" rx="6" fill="white" stroke="#1E1E1E" stroke-width="4" stroke-linecap="round"/>
<rect x="2" y="370" width="144" height="80" rx="6" fill="white" stroke="#1E1E1E" stroke-width="4" stroke-linecap="round"/>
<rect x="146" y="370" width="224" height="80" rx="6" fill="white" stroke="#1E1E1E" stroke-width="4" stroke-linecap="round"/>
<rect x="370" y="370" width="192" height="80" rx="6" fill="white" stroke="#1E1E1E" stroke-width="4" stroke-linecap="round"/>
<rect x="562" y="370" width="208" height="80" rx="6" fill="white" stroke="#1E1E1E" stroke-width="4" stroke-linecap="round"/>
<path d="M33.5316 16.1899C31.2119 18.5096 26.1709 24.5447 26.1659 25.8903C26.1387 33.1899 37.5383 14.8543 37.5534 15.8434C37.7631 29.6188 25.4981 34.5866 25.9952 36.9263C26.2299 38.0312 27.4864 38.6033 29.1584 38.282C42.8304 32.9498 59.289 29.2343 66.1074 30.7405C71.2689 31.2527 79.8848 31.2527 88.7618 32.2569" stroke="#77CFE0" stroke-width="4" stroke-linecap="round" stroke-linejoin="round"/>
<path d="M174.117 21.2115C174.117 20.5487 175.443 18.8818 177.12 17.7019C181.745 14.4475 175.453 28.5621 176.452 30.9019C176.929 32.0186 178.114 32.5789 179.454 32.9203C180.795 33.2617 182.452 33.2617 183.803 32.7647C189.908 30.5177 191.851 22.2358 192.69 18.7261C193.045 17.2366 192.534 16.2106 191.7 15.8642C190.867 15.5178 189.541 15.8491 188.362 17.1797C187.182 18.5102 186.188 20.8299 186.007 23.1847C185.647 27.8702 188.166 31.2433 190.169 33.081C191.138 33.9701 192.172 34.5872 193.182 34.9287C197.973 36.5497 205.548 29.6065 214.42 24.9069C219.032 22.4641 223.312 24.8969 224.984 23.8977C225.801 23.4096 225.993 22.2358 225.667 21.3922C225.341 20.5487 224.347 19.886 224.994 19.5445C225.642 19.2031 227.962 19.2031 229.322 19.7002C234.828 21.7116 232.019 32.2475 233.685 33.9195C235.478 35.7174 244.671 30.9621 255.883 24.932C261.219 22.0621 268.47 28.9036 299.349 29.4107C306.308 29.5764 308.959 29.9077 312.479 30.0785C315.999 30.2492 320.307 30.2492 324.745 29.245" stroke="#77CFE0" stroke-width="4" stroke-linecap="round" stroke-linejoin="round"/>
<path d="M38.553 81.4629C38.553 81.7943 38.553 82.1257 37.5589 86.9357C36.5647 91.7458 34.5764 101.024 33.3865 106.301C32.1965 111.578 31.8651 112.573 30.5195 114.601" stroke="#1E1E1E" stroke-width="4" stroke-linecap="round" stroke-linejoin="round"/>
<path d="M68.6765 86.4837C69.3393 85.4896 70.002 84.4954 70.3435 84.6461C75.7056 87.0117 65.0213 100.502 62.9828 105.719C59.1096 115.631 83.7293 92.1775 86.064 91.6754C87.4046 91.5047 89.0615 91.5047 90.5778 92.0017C92.0941 92.4988 93.4196 93.4929 95.7895 96.5256" stroke="#1E1E1E" stroke-width="4" stroke-linecap="round" stroke-linejoin="round"/>
<path d="M108.846 87.4883C106.868 93.7745 100.482 110.564 100.477 113.743C100.475 114.977 101.797 115.264 103.469 114.441C111.839 106.929 117.201 98.8958 119.375 94.0506C120.224 91.8565 120.555 90.1996 119.892 87.4883" stroke="#1E1E1E" stroke-width="4" stroke-linecap="round" stroke-linejoin="round"/>
<path d="M41.5641 155.773C42.2268 155.773 41.5741 157.762 39.7365 161.934C38.2302 166.438 37.216 171.148 37.2109 174.994C37.5373 176.52 38.5314 177.183 40.5599 176.861" stroke="#1E1E1E" stroke-width="4" stroke-linecap="round" stroke-linejoin="round"/>
<path d="M63.6562 154.768C66.3073 153.443 68.9985 152.428 71.6697 152.258C73.0221 152.171 74.3408 153.081 75.355 154.251C81.1864 160.977 71.0471 176.479 66.3475 180.706C65.8276 181.174 65.6646 179.23 66.4931 177.387C70.8161 167.772 82.0128 160.833 89.4086 157.118C90.6535 156.493 91.7534 156.776 92.2655 157.274C95.4991 160.412 90.7693 168.134 91.5977 171.648C91.9313 173.064 94.0831 172.843 95.4337 172.678C101.054 171.988 106.153 168.827 108.659 169.158C109.874 169.319 110.833 170.152 110.185 170.991C109.537 171.829 107.218 172.823 105.691 173.833C104.165 174.842 103.502 175.836 102.819 176.86" stroke="#1E1E1E" stroke-width="4" stroke-linecap="round" stroke-linejoin="round"/>
<path d="M51.6055 234.1H51.6056" stroke="#1E1E1E" stroke-width="4" stroke-linecap="round" stroke-linejoin="round"/>
<path d="M51.6063 234.1C50.2808 234.431 44.2758 236.429 37.4021 242.941C35.8036 244.456 35.8808 246.451 36.3728 248.299C37.4652 252.401 40.5502 255.177 41.2281 257.181C40.9117 258.19 39.2548 259.184 37.9042 259.696C36.5536 260.208 35.5594 260.208 34.5352 260.208" stroke="#1E1E1E" stroke-width="4" stroke-linecap="round" stroke-linejoin="round"/>
<path d="M72.6937 240.124C73.0552 244.081 67.01 259.505 66.6686 263.697C65.5146 277.868 85.7381 232.101 87.7415 230.429C88.6748 229.65 89.7448 229.42 90.4226 230.74C94.8929 239.449 92.436 248.459 94.2737 252.501C99.7867 250.849 105.812 247.164 109.156 246.32C110.511 246.471 111.174 247.796 112.861 249.162" stroke="#1E1E1E" stroke-width="4" stroke-linecap="round" stroke-linejoin="round"/>
<path d="M32.5273 318.451C34.5257 319.445 39.1951 326.766 44.2261 340.829C45.2027 343.56 45.9031 344.54 46.9073 344.721C47.9115 344.901 49.237 344.239 50.4169 342.572C56.561 333.892 54.9508 325.491 56.2814 323.321C57.2805 322.147 58.9374 320.821 60.1224 321.298C61.3073 321.775 61.9701 324.095 62.6529 326.485" stroke="#1E1E1E" stroke-width="4" stroke-linecap="round" stroke-linejoin="round"/>
<path d="M73.7 323.473C73.71 323.794 68.3778 329.799 65.1694 335.337C64.5714 336.369 65.3251 337.511 66.3242 338.686C68.6875 341.465 72.6757 342.884 76.8481 343.054C86.0677 343.431 96.3946 333.233 104.81 324.994C105.834 327.108 106.828 330.161 108.831 331.496C109.841 332.169 110.835 332.832 111.859 333.515" stroke="#1E1E1E" stroke-width="4" stroke-linecap="round" stroke-linejoin="round"/>
<path d="M26.5 427.908C28.8197 421.933 41.4825 403.225 53.0708 394.956C55.583 393.163 59.2365 392.782 60.9436 393.264C73.961 396.939 54.6072 425.227 56.6105 425.232C61.9578 419.242 68.9871 406.87 72.8331 401.493C74.3595 401.086 75.0223 405.394 75.7051 409.833" stroke="#1E1E1E" stroke-width="4" stroke-linecap="round" stroke-linejoin="round"/>
<path d="M85.75 407.823C87.7483 407.491 91.0923 403.505 94.2755 399.794C99.0427 394.238 91.4437 418.859 91.9358 419.702C93.5359 422.445 98.1216 416.198 100.627 416.353C102.06 416.442 102.801 419.491 103.81 420.521C104.819 421.55 105.814 421.219 106.657 420.551C107.501 419.883 108.163 418.889 108.846 417.865" stroke="#1E1E1E" stroke-width="4" stroke-linecap="round" stroke-linejoin="round"/>
<path d="M220.31 78.4512C219.979 80.4495 217.318 85.119 214.626 91.1491C214.059 92.4213 214.285 93.4939 215.445 93.6746C218.916 94.2155 225.291 89.5273 231.316 86.0026C236.549 82.9414 232.692 98.5148 233.857 102.19C234.425 103.984 236.016 105.203 237.361 105.886C238.707 106.568 240.032 106.568 241.544 106.071C251.278 102.87 257.786 91.5156 260.623 90.0094C266.102 87.1005 272.166 94.1566 278.362 98.5198C279.851 99.5686 281.204 100.523 283.378 100.87C296.909 97.8922 312.976 90.8529 324.158 88.3424C330.038 87.4888 336.334 87.4888 342.821 87.4888" stroke="#1E1E1E" stroke-width="4" stroke-linecap="round" stroke-linejoin="round"/>
<path d="M203.236 159.788C203.236 159.457 203.236 159.126 202.739 158.955C202.242 158.784 201.248 158.784 199.908 159.447C190.332 164.181 188.515 182.503 190.338 190.225C190.964 192.879 194.851 193.258 198.522 193.594C202.849 193.991 208.89 191.27 216.898 186.605C227.146 180.637 235.662 169.881 242.189 162.846C244.25 160.625 244.408 161.777 243.911 165.106C241.36 182.187 241.727 188.89 242.726 192.234C243.159 193.682 244.388 194.252 245.729 194.594C247.069 194.935 248.726 194.935 249.248 194.272C252.627 189.984 241.737 185.907 241.23 184.07C239.959 179.466 252.401 179.209 271.772 175.534C277.112 174.521 281.804 174.851 284.691 175.348C287.578 175.845 288.572 176.84 288.919 178.346C289.702 181.751 287.598 185.546 285.76 188.553C284.917 189.904 284.254 190.898 288.386 188.759C292.519 186.62 301.466 181.318 312.693 175.855" stroke="#1E1E1E" stroke-width="4" stroke-linecap="round" stroke-linejoin="round"/>
<path d="M212.276 239.12C212.276 238.789 212.276 238.458 211.779 238.618C207.044 240.149 202.595 249.785 200.562 257.171C200.115 258.792 200.888 260.509 201.556 261.86C202.224 263.211 203.218 264.205 204.393 264.551C211.027 266.507 222.92 250.909 229.001 245.984C232.533 243.122 227.017 258.501 226.997 262.874C226.993 263.822 228.985 263.884 230.331 263.557C237.094 261.917 247.342 246.25 257.76 237.298C260.211 235.192 265.076 235.124 268.621 235.274C272.165 235.425 274.816 236.75 276.514 238.427C282.544 244.387 276.564 254.484 275.7 258.692C274.107 266.456 292.912 252.858 319.784 248.007C327.717 247.154 331.091 247.817 333.762 249.152C335.108 249.825 336.433 250.488 337.799 253.179" stroke="#1E1E1E" stroke-width="4" stroke-linecap="round" stroke-linejoin="round"/>
<path d="M207.256 320.458C207.256 319.796 207.256 319.133 207.256 318.294C207.256 317.456 207.256 316.462 204.771 318.601C202.285 320.74 197.314 326.042 195.417 328.607C190.509 335.241 215.279 308.76 215.791 307.575C219.488 299.022 206.935 326.072 206.749 338.614C206.674 343.664 211.534 345.523 217.057 345.222C222.58 344.92 229.87 342.269 235.283 337.921C245.815 329.46 247.423 319.474 247.92 316.462C248.106 315.338 249.412 315.437 250.918 315.935C254.526 317.125 257.455 318.781 259.459 319.781C260.541 320.321 261.462 321.443 260.648 323.446C259.835 325.449 257.184 328.432 256.481 330.299C255.778 332.167 257.104 332.83 258.946 332.84C267.48 332.887 274.828 324.184 281.355 318.154C283.418 316.248 283.574 317.426 283.243 318.932C282.462 322.48 281.566 328.452 282.394 335.305C283.015 340.438 288.575 342.54 292.747 344.047C301.629 344.228 320.91 335.602 332.593 329.004C333.773 328.492 334.767 328.492 335.792 328.492" stroke="#1E1E1E" stroke-width="4" stroke-linecap="round" stroke-linejoin="round"/>
<path d="M180.141 424.895C185.413 418.609 206.209 401.156 213.59 398.952C222.102 396.41 211.27 419.854 211.933 423.364C212.241 424.994 213.921 425.879 215.598 426.391C219.138 427.472 224.295 425.578 233.619 420.753C249.943 412.305 260.465 405.484 262.469 404.982C263.462 404.733 264.472 404.811 265.15 405.64C266.849 407.716 266.501 411.158 267.495 413.829C268.891 417.581 276.502 417.866 286.173 417.203C312.005 415.433 324.382 409.832 328.896 410.164C330.783 410.302 331.753 411.158 332.099 412.328C333.68 417.666 329.443 421.863 327.761 424.89C324.101 421.561 317.061 418.87 314.054 418.704C312.703 418.539 311.709 418.207 308.676 418.87" stroke="#1E1E1E" stroke-width="4" stroke-linecap="round" stroke-linejoin="round"/>
<path d="M449.266 92.5098C449.928 92.5098 455.241 92.5098 464.263 92.6755C468.315 92.8411 471.297 93.1725 475.982 93.3432C480.667 93.514 486.963 93.514 493.45 93.514" stroke="#1E1E1E" stroke-width="4" stroke-linecap="round" stroke-linejoin="round"/>
<path d="M454.284 165.815C453.953 165.815 453.621 165.815 463.392 165.318C473.163 164.821 493.046 163.827 513.531 162.803" stroke="#1E1E1E" stroke-width="4" stroke-linecap="round" stroke-linejoin="round"/>
<path d="M439.222 249.161C439.222 247.836 439.222 245.496 438.89 244.311C436.188 234.648 436.872 263.541 438.373 265.715C439.051 266.697 440.206 266.895 441.546 266.734C449.823 265.742 455.269 252.877 458.447 248.353C459.422 246.964 459.968 248.137 459.973 249.643C459.985 253.153 459.637 257.175 460.636 260.519C461.069 261.966 462.298 262.537 463.638 262.878C470.194 264.548 478.345 255.226 484.37 251.355C488.463 248.725 487.081 261.201 489.245 263.039C490.746 263.883 493.066 264.545 495.421 264.555C497.776 264.565 500.095 263.903 502.485 263.22" stroke="#1E1E1E" stroke-width="4" stroke-linecap="round" stroke-linejoin="round"/>
<path d="M459.305 328.493C459.967 328.493 461.303 328.161 471.922 326.499C481.547 325.169 499.773 322.849 509.66 321.489C519.546 320.128 520.54 319.797 521.564 319.455" stroke="#1E1E1E" stroke-width="4" stroke-linecap="round" stroke-linejoin="round"/>
<path d="M445.246 407.823C444.915 407.823 444.583 407.823 454.188 406.001C463.793 404.178 483.345 400.533 503.489 397.781" stroke="#1E1E1E" stroke-width="4" stroke-linecap="round" stroke-linejoin="round"/>
<path d="M630.017 76.4414C627.386 78.751 613.327 90.1184 609.436 97.3385C608.712 98.6823 609.592 100.18 610.922 101.692C621.271 107.23 631.674 108.575 634.847 109.072C636.363 109.569 637.689 110.564 641.063 111.588" stroke="#1E1E1E" stroke-width="4" stroke-linecap="round" stroke-linejoin="round"/>
<path d="M661.148 102.551C662.815 99.5483 664.824 96.5357 665.165 95.8579C665.368 95.4552 663.518 97.8311 663.83 98.3533C666.88 103.471 673.189 93.5232 675.192 92.1826C676.079 91.5892 677.195 92.1675 677.873 92.8353C679.258 94.1999 680.218 97.5098 682.387 100.688C683.33 102.069 684.887 102.209 686.233 102.214C688.904 101.888 691.927 100.884 695.928 99.0512C698.273 97.8814 701.256 96.2244 705.333 94.5173" stroke="#1E1E1E" stroke-width="4" stroke-linecap="round" stroke-linejoin="round"/>
<path d="M630.015 158.785C629.704 159.106 620.355 165.112 614.134 170.815C612.815 172.025 611.96 173.486 611.448 174.832C610.936 176.178 610.936 177.503 611.93 178.517C614.912 180.194 618.618 180.877 621.791 180.712C623.307 180.546 624.633 180.214 624.994 181.881" stroke="#1E1E1E" stroke-width="4" stroke-linecap="round" stroke-linejoin="round"/>
<path d="M668.177 174.853C668.508 172.533 668.839 170.214 668.347 170.344C665.136 171.196 664.833 177.514 664.496 180.522C664.346 181.864 664.823 182.866 665.656 183.378C666.49 183.891 667.815 183.891 669.326 183.062C678.683 177.933 680.558 165.163 680.895 164.143C682.034 160.692 680.558 172.493 681.557 175.501C682.032 176.93 683.219 177.845 684.56 178.523C685.9 179.201 687.557 179.532 689.405 179.04C699.72 176.294 704.639 162.491 708.982 159.474C710.739 158.253 712.662 159.77 713.847 161.111C715.695 164.108 716.709 168.135 717.377 172.147C717.713 173.839 718.044 174.833 718.386 177.865" stroke="#1E1E1E" stroke-width="4" stroke-linecap="round" stroke-linejoin="round"/>
<path d="M604.914 241.129C604.904 241.46 616.201 248.098 624.812 253.335C626.049 254.087 626.986 255.167 626.504 256.177C626.022 257.186 624.034 258.18 622.015 259.355C619.997 260.53 618.009 261.855 617.968 265.229" stroke="#1E1E1E" stroke-width="4" stroke-linecap="round" stroke-linejoin="round"/>
<path d="M661.145 236.107C659.498 242.072 653.785 255.84 654.608 258.019C655.954 261.581 666.779 251.893 674.817 244.854C677.794 242.247 674.862 253.5 676.364 255.508C679.908 260.25 689.252 251.17 692.084 252.33C701.293 259.525 709.969 263.542 717.023 264.059C718.374 263.893 719.368 263.562 720.392 263.22" stroke="#1E1E1E" stroke-width="4" stroke-linecap="round" stroke-linejoin="round"/>
<path d="M607.926 313.43C607.264 313.43 614.213 316.744 625.093 322.759C629.025 324.932 628.351 327.448 627.849 329.135C626.928 332.231 624.676 335.502 622.005 339.177C619.334 342.19 615.649 343.887 611.471 344.554C609.613 344.891 608.288 345.222 605.918 345.564" stroke="#1E1E1E" stroke-width="4" stroke-linecap="round" stroke-linejoin="round"/>
<path d="M659.14 319.455C658.809 319.445 656.147 330.742 655.786 338.188C655.74 339.135 657.774 339.197 658.954 338.871C664.82 337.248 671.15 327.87 675.031 324.471C678.077 321.803 676.211 334.488 677.04 339.172C677.369 341.036 679.525 341.206 681.041 340.879C691.697 338.586 702.31 329.497 704.148 330.657C707.354 332.68 707.331 338.515 709.5 341.858C710.476 343.364 712 343.877 713.512 344.218C716.68 344.56 723.689 342.903 732.22 340.227C735.448 339.207 736.442 338.876 738.471 338.535" stroke="#1E1E1E" stroke-width="4" stroke-linecap="round" stroke-linejoin="round"/>
<path d="M615.959 389.748C615.306 391.405 605.977 399.408 596.071 409.129C594.257 410.909 594.208 412.483 594.203 413.994C594.198 415.505 594.53 417.162 595.694 418.182C596.859 419.201 598.848 419.532 603.351 419.703C607.855 419.874 614.814 419.874 621.984 419.874" stroke="#1E1E1E" stroke-width="4" stroke-linecap="round" stroke-linejoin="round"/>
<path d="M657.132 394.77C657.473 398.083 654.802 408.788 652.949 414.005C652.559 415.102 658.106 409.21 662.459 403.34C663.356 402.131 662.494 409.471 662.153 413.985C662.01 415.87 663.799 416.842 666.471 416.028C684.379 410.575 694.929 397.451 699.609 397.28C709.256 396.928 719.351 410.816 727.394 412.508C731.401 412.182 734.444 411.509 736.447 410.51C737.456 409.842 738.451 408.848 740.479 407.824" stroke="#1E1E1E" stroke-width="4" stroke-linecap="round" stroke-linejoin="round"/>
</svg>
