<svg width="832" height="528" viewBox="0 0 832 528" fill="none" xmlns="http://www.w3.org/2000/svg">
<rect x="28" y="96" width="272" height="80" rx="6" fill="white" stroke="#1E1E1E" stroke-width="4" stroke-linecap="round"/>
<rect x="300" y="96" width="496" height="80" rx="6" fill="white" stroke="#1E1E1E" stroke-width="4" stroke-linecap="round"/>
<rect x="28" y="48" width="272" height="48" rx="3" fill="white" stroke="#1E1E1E" stroke-width="4" stroke-linecap="round"/>
<rect x="300" y="48" width="496" height="48" rx="3" fill="white" stroke="#1E1E1E" stroke-width="4" stroke-linecap="round"/>
<rect x="28" y="176" width="272" height="80" rx="6" fill="white" stroke="#1E1E1E" stroke-width="4" stroke-linecap="round"/>
<rect x="300" y="176" width="496" height="80" rx="6" fill="white" stroke="#1E1E1E" stroke-width="4" stroke-linecap="round"/>
<rect x="28" y="256" width="272" height="80" rx="6" fill="white" stroke="#1E1E1E" stroke-width="4" stroke-linecap="round"/>
<rect x="300" y="256" width="496" height="80" rx="6" fill="white" stroke="#1E1E1E" stroke-width="4" stroke-linecap="round"/>
<rect x="28" y="336" width="272" height="80" rx="6" fill="white" stroke="#1E1E1E" stroke-width="4" stroke-linecap="round"/>
<rect x="300" y="336" width="496" height="80" rx="6" fill="white" stroke="#1E1E1E" stroke-width="4" stroke-linecap="round"/>
<rect x="28" y="416" width="272" height="80" rx="6" fill="white" stroke="#1E1E1E" stroke-width="4" stroke-linecap="round"/>
<rect x="300" y="416" width="496" height="80" rx="6" fill="white" stroke="#1E1E1E" stroke-width="4" stroke-linecap="round"/>
<path d="M77.1401 125.455C77.1401 124.792 75.8146 124.119 73.3091 123.783C71.1302 123.49 69.1166 125.776 66.9476 128.945C64.2045 132.951 62.7501 137.817 62.4137 142.16C62.1284 145.843 65.0698 149.204 68.5794 151.88C70.0356 152.991 71.0949 153.231 72.2698 153.401C80.2068 154.555 88.1761 142.546 88.8539 140.196C88.987 139.735 86.8807 141.16 85.8614 142.34C84.8422 143.52 84.5108 144.514 84.8372 145.689C85.1635 146.864 86.1577 148.19 87.4983 148.873C93.4621 151.91 102.867 144.896 112.422 136.2C114.459 134.346 115.279 132.846 116.123 133.654C124.535 141.716 117.639 156.233 118.638 159.075C119.089 160.358 120.3 160.923 121.806 159.773C131.428 152.428 131.025 139.554 132.195 134.332C133.911 126.671 150.365 141.843 158.128 144.69C159.363 145.143 159.805 146.523 159.98 148.195C160.767 155.679 156.139 158.583 156.3 158.93C160.697 168.411 173.482 138.228 180.385 135.828C185.885 133.916 190.252 145.519 199.781 149.877C203.306 150.56 206.991 150.228 211.003 149.726C212.695 149.555 213.689 149.555 215.718 148.551" stroke="#1E1E1E" stroke-width="4" stroke-linecap="round" stroke-linejoin="round"/>
<path d="M63.082 216.836C66.7272 215.189 75.1222 208.481 76.6285 207.301C76.1465 213.793 74.1281 222.499 74.1281 227.013C74.1281 228.876 74.1281 229.87 74.1281 230.894" stroke="#1E1E1E" stroke-width="4" stroke-linecap="round" stroke-linejoin="round"/>
<path d="M118.311 213.823C117.327 213.482 108.651 218.141 102.762 225.843C100.224 229.161 101.24 233.555 101.572 236.563C101.724 237.945 102.566 238.908 104.233 239.585C108.34 241.256 113.602 240.273 118.276 238.606C133.742 233.091 144.41 216.163 146.413 216.831C147.423 217.167 148.417 217.498 148.101 218.995C147.151 223.488 144.089 227.199 144.084 229.373C144.082 230.282 145.404 230.553 147.076 229.564C155.842 224.378 159.121 217.197 163.65 213.833C169.803 209.263 178.884 209.806 181.224 210.635C182.458 211.072 182.901 213.12 182.911 215.134C182.952 223.426 179.235 226.867 179.727 228.208C183.88 239.521 208.648 215.189 215.692 212.487C224.052 217.468 234.757 226.857 243.137 228.047C244.829 228.213 245.823 228.544 246.847 228.886" stroke="#1E1E1E" stroke-width="4" stroke-linecap="round" stroke-linejoin="round"/>
<path d="M65.09 298.174C67.0883 298.174 71.095 297.842 73.9419 298.334C82.8719 299.878 62.0975 318.217 61.5703 323.097C66.4055 325.287 78.4055 323.961 90.993 320.778C93.1971 320.266 94.1913 320.266 95.2156 319.262" stroke="#1E1E1E" stroke-width="4" stroke-linecap="round" stroke-linejoin="round"/>
<path d="M123.332 286.125C121.364 286.436 111.965 292.471 109.791 294.977C108.838 296.075 108.611 297.151 108.937 297.994C109.263 298.838 110.258 299.501 111.598 299.842C122.562 302.634 136.708 290.483 138.716 292.296C144.757 297.748 140.062 307.866 142.06 310.21C143.035 311.354 145.384 310.567 147.568 308.739C158.078 299.945 158.8 290.162 161.14 287.646C161.918 286.809 162.817 288.113 162.992 289.454C163.382 292.43 161.17 296.81 159.99 300.992C159.572 302.472 161.792 302.855 163.971 302.528C175.74 300.766 183.573 294.5 185.079 293.993C186.272 293.591 185.923 297.161 187.419 298.999C192.881 305.707 211.279 295.866 221.878 293.491C236.062 298.135 253.515 307.203 258.028 309.041C259.891 309.884 260.885 310.547 260.905 311.23" stroke="#1E1E1E" stroke-width="4" stroke-linecap="round" stroke-linejoin="round"/>
<path d="M65.0901 368.468C67.4198 367.133 72.0993 366.46 76.4575 366.455C77.4056 366.454 77.1404 368.77 75.3178 370.783C73.4952 372.797 69.85 375.116 68.4692 375.814C67.0885 376.512 68.0826 375.518 69.0918 374.84C70.954 373.589 73.4449 373.821 76.2818 374.82C84.2381 377.622 86.8408 387.859 87.3479 391.705C87.5485 393.226 86.1981 393.894 84.6918 394.567C83.1856 395.24 81.1973 395.903 77.6876 396.244C74.178 396.586 69.2073 396.586 64.0859 395.581" stroke="#1E1E1E" stroke-width="4" stroke-linecap="round" stroke-linejoin="round"/>
<path d="M132.368 361.437C132.699 361.106 133.03 360.774 132.704 360.935C126.224 364.125 119.323 373.136 117.983 376.309C117.377 377.742 117.968 379.151 118.635 380.165C119.303 381.18 120.297 381.842 121.969 382.184C130.519 383.93 143.333 373.879 154.555 367.332C157.545 365.588 154.46 376.149 155.454 378.825C155.95 380.159 158.436 380.175 160.123 379.849C167.418 378.438 177.476 360.212 185.077 353.057C190.671 347.793 182.577 367.452 183.074 368.959C186.37 378.946 213.657 358.766 223.342 359.75C233.919 360.825 238.129 370.134 241.131 371.138C248.833 371.148 259.498 368.487 264.915 367.794C264.93 368.125 263.936 368.788 261.908 370.475" stroke="#1E1E1E" stroke-width="4" stroke-linecap="round" stroke-linejoin="round"/>
<path d="M59.0642 445.789C58.7328 445.458 58.4014 445.126 58.7278 444.956C61.7183 443.391 71.3755 450.107 79.1278 452.979C80.4746 453.478 81.7989 454.144 80.9906 455.148C77.1998 457.478 69.1562 463.152 62.1219 469.347C60.0583 471.235 61.0525 470.573 62.0767 469.89" stroke="#1E1E1E" stroke-width="4" stroke-linecap="round" stroke-linejoin="round"/>
<path d="M92.2034 439.766C92.8561 439.434 97.2143 439.093 98.7206 440.258C99.4944 440.856 99.2327 442.417 98.7357 443.431C96.3486 448.302 88.8695 448.131 87.6896 448.467C85.928 448.969 92.5248 448.462 95.0302 449.963C99.708 452.766 101.562 458.484 103.079 462.847C103.415 463.814 103.249 464.85 102.421 465.859C99.9357 467.863 96.5716 469.218 93.2327 469.721C91.5507 469.891 89.8938 469.891 88.1867 469.891" stroke="#1E1E1E" stroke-width="4" stroke-linecap="round" stroke-linejoin="round"/>
<path d="M143.415 438.76C143.415 441.089 137.45 451.071 132.043 459.823C131.14 461.283 132.027 463.161 133.358 464.181C136.448 466.548 141.718 465.21 146.227 463.543C160.302 458.339 168.51 439.774 170.347 438.93C172.264 438.051 172.536 446.08 173.033 452.442C173.198 454.548 174.525 454.164 175.534 453.662C180.357 451.262 186.555 445.146 192.6 442.114C193.841 441.491 195.271 441.772 196.451 442.269C203.198 445.112 206.669 453.481 208.672 454.32C210.526 455.095 213.025 451.834 216.871 447.978C220.947 443.892 228.068 444.785 240.766 447.28C255.612 450.198 264.881 454.827 275.927 453.16C279.623 452.818 281.983 452.487 284.649 451.985C286.321 451.814 288.64 451.814 291.03 451.814" stroke="#1E1E1E" stroke-width="4" stroke-linecap="round" stroke-linejoin="round"/>
<path d="M346.262 129.471C342.255 131.8 339.243 137.805 338.565 142.661C338.245 144.953 345.559 140.547 350.414 136.691C355.214 132.879 349.274 153.22 349.772 156.227C350.006 157.647 351.263 158.572 352.438 158.918C357.961 157.929 362.982 154.927 367.48 151.257C370.322 149.243 374.299 146.923 379.4 143.529" stroke="#1E1E1E" stroke-width="4" stroke-linecap="round" stroke-linejoin="round"/>
<path d="M393.459 134.492C392.796 135.817 392.123 138.488 391.621 142.164C391.392 143.844 391.45 145.176 393.107 144.865C405.054 142.62 408.843 132.835 411.017 130.821C411.692 130.196 412.197 131.459 412.202 132.468C412.227 137.583 410.53 142.846 411.855 144.689C419.838 155.787 437.633 128.808 439.305 128.964C447.777 129.752 444.331 143.851 445.998 146.025C446.798 147.068 448.327 147.205 449.342 146.878C450.356 146.552 451.019 145.558 452.023 145.377C458.373 144.234 467.066 145.879 474.436 145.703C483.568 145.486 494.52 152.567 500.716 151.402C506.669 150.283 511.933 149.896 520.122 141.722C521.989 139.858 522.979 139.191 524.651 138.85C532.358 139.171 536.043 141.179 538.212 143.178C539.387 144.513 540.713 146.502 543.082 150.559" stroke="#1E1E1E" stroke-width="4" stroke-linecap="round" stroke-linejoin="round"/>
<path d="M555.133 145.538C558.467 144.534 564.472 143.871 573.514 144.358C579.686 144.691 572.204 156.564 572.701 159.742C572.9 161.016 574.192 161.264 576.693 159.777C583.623 155.658 590.581 146.924 595.602 142.38C596.869 141.233 597.309 147.446 598.634 150.504C599.96 153.562 602.611 154.556 604.971 154.902C616.127 156.54 629.402 147.888 636.612 147.712C644.95 147.509 655.491 150.559 661.561 152.226C663.521 152.764 665.583 152.899 667.421 152.904C672.276 152.917 670.273 142.546 674.104 138.188C688.639 139.162 700.72 143.851 704.229 145.859C705.751 146.542 706.745 146.542 709.777 148.551" stroke="#1E1E1E" stroke-width="4" stroke-linecap="round" stroke-linejoin="round"/>
<path d="M349.275 209.807C347.276 210.801 344.264 214.476 343.089 217.484C342.593 218.753 343.571 219.828 344.741 220.341C351.021 223.09 366.908 211.554 374.374 207.452C387.129 200.444 371.698 231.216 373.36 233.224C381.389 233.244 395.367 224.608 402.989 218.182C403.501 218.162 403.501 219.487 403.501 220.853" stroke="#1E1E1E" stroke-width="4" stroke-linecap="round" stroke-linejoin="round"/>
<path d="M438.644 213.823C437.319 211.172 434.316 206.824 429.973 201.974C428.136 199.922 426.293 199.443 425.108 200.262C422.111 202.331 422.908 207.778 423.742 211.785C424.592 215.87 427.578 220.16 431.419 224.171C434.475 227.364 439.287 227.882 443.966 227.385C446.043 227.164 447.32 225.894 447.837 224.884C448.755 223.094 447.019 220.863 445.518 219.191C444.797 218.388 443.685 218.181 443.67 218.176C440.449 217.103 458.969 216.193 466.746 212.995C467.791 212.565 468.75 212.156 469.427 212.483C473.803 214.589 471.772 224.839 473.941 229.689C474.842 231.704 476.442 232.22 477.787 231.733C485.081 229.093 484.164 219.527 485.494 217.353C487.011 214.874 491.183 215.832 493.689 215.997C495.914 216.145 497.881 217.499 499.553 219C500.562 220.833 500.904 223.514 501.069 226.521C501.235 227.872 501.566 228.866 501.908 229.89" stroke="#1E1E1E" stroke-width="4" stroke-linecap="round" stroke-linejoin="round"/>
<path d="M528.02 212.819C527.026 212.487 526.032 212.156 526.679 212.151C529.664 212.128 534.356 212.819 537.871 213.316C542.734 214.004 538.062 228.825 540.055 233.902C543.823 243.497 559.109 220.872 563.824 220.009C566.763 219.47 565.506 226.194 566.505 227.706C569.854 224.879 572.194 222.529 574.86 221.861C576.532 221.525 578.852 221.194 581.242 220.852" stroke="#1E1E1E" stroke-width="4" stroke-linecap="round" stroke-linejoin="round"/>
<path d="M599.318 214.828C598.333 218.132 593.634 230.855 594.949 237.237C597.249 248.391 625.627 229.288 641.78 223.208C659.83 222.852 679.602 226.196 688.293 228.701C692.014 229.881 694.334 230.875 696.724 231.899" stroke="#1E1E1E" stroke-width="4" stroke-linecap="round" stroke-linejoin="round"/>
<path d="M361.323 293.154C360.992 292.823 360.66 292.491 359.993 292.321C353.919 290.768 346.27 299.5 344.764 302.503C343.978 304.07 344.252 306.168 345.08 307.855C345.909 309.542 347.566 310.868 349.745 311.716C354.378 313.521 360.289 312.575 366.299 310.411C378.522 306.01 378.726 296.849 379.062 294.344C379.219 293.175 378.736 292.17 377.902 291.658C377.069 291.146 375.743 291.146 374.563 291.477C373.383 291.808 372.389 292.471 371.546 293.641C370.702 294.811 370.039 296.468 370.029 297.818C370.011 300.252 375.01 302.513 381.362 304.521C390.672 307.465 405.768 292.893 410.358 287.631C411.985 285.765 410.86 294.138 411.693 297.813C412.407 300.963 415.529 303.517 419.701 305.526C421.886 306.208 424.205 306.208 426.063 306.043C427.921 305.877 429.246 305.546 430.612 305.204" stroke="#1E1E1E" stroke-width="4" stroke-linecap="round" stroke-linejoin="round"/>
<path d="M450.696 291.145C451.028 293.474 451.7 300.142 450.033 309.853C449.63 312.203 449.692 314.201 450.355 315.391C451.018 316.581 452.343 316.912 454.02 316.089C462.84 311.758 466.723 296.909 472.266 291.15C478.339 284.84 483.493 304.179 486.164 307.538C489.997 312.358 506.167 302.211 515.777 301.021C517.291 300.833 518.619 300.524 519.302 301.347C519.985 302.171 519.985 304.159 521.311 304.189C525.742 304.29 531.001 297.2 535.685 295.995C544.06 293.841 539.054 313.548 541.389 317.063C542.383 318.559 544.387 318.258 546.4 317.098C557.774 310.546 562.803 294.218 565.168 287.806C566.883 283.157 569.18 296.487 571.68 298.495C577.043 302.802 583.891 298.174 591.754 304.174C596.946 308.136 605.301 305.545 616.342 302.372C622.297 300.66 626.419 300.182 630.079 300.514C637.095 301.149 650.107 304.179 668.298 307.523C677.873 308.879 688.146 309.541 693.935 310.38C699.724 311.218 700.718 312.213 701.743 313.237" stroke="#1E1E1E" stroke-width="4" stroke-linecap="round" stroke-linejoin="round"/>
<path d="M361.325 368.467C359.005 371.46 353.301 377.153 352.126 380.161C351.63 381.43 352.608 382.506 353.447 383.183C358.768 387.485 380.946 373.568 391.606 364.139C392.632 363.231 390.145 362.121 388.628 361.779C385.836 361.15 383.095 361.769 380.59 362.768C378.048 363.782 376.066 367.111 374.223 370.947C372.13 375.304 376.036 380.829 379.706 385.172C383.376 389.514 390.074 391.222 396.757 392.226C402.066 393.024 406.493 391.573 410.334 389.239C418.56 384.238 418.563 375.175 418.232 372.67C418.071 371.455 417.238 370.496 416.565 370.978C414.282 372.613 414.546 377.153 415.044 380.161C415.278 381.581 416.535 382.506 418.207 383.183C419.879 383.861 422.198 384.193 424.056 384.363C425.914 384.534 427.239 384.534 428.605 384.534" stroke="#1E1E1E" stroke-width="4" stroke-linecap="round" stroke-linejoin="round"/>
<path d="M454.711 369.472C454.711 368.81 454.711 368.147 454.877 367.143C455.264 364.792 455.715 371.732 458.863 380.308C463.054 391.724 476.12 363.126 479.951 364.266C490.212 367.318 490.852 380.508 493.021 382.015C495.117 383.471 498.875 382.195 502.55 381.196C507.923 377.185 511.598 370.848 513.777 365.822C514.299 364.441 513.637 365.436 512.954 366.46" stroke="#1E1E1E" stroke-width="4" stroke-linecap="round" stroke-linejoin="round"/>
<path d="M532.035 370.476C532.035 375.788 532.367 386.192 533.2 389.199C533.585 390.588 534.365 391.544 535.369 391.062C543.093 387.355 542.74 374.533 543.578 370.476C545.167 362.791 550.432 381.502 554.278 383.36C559.85 386.051 573.789 379.875 583.726 375.678C585.328 375.001 586.241 374.172 586.753 374.99C591.29 382.24 590.258 392.87 595.444 397.911C596.634 399.067 598.613 398.593 600.129 397.931C608.679 394.194 613.354 379.896 616.542 375.171C618.996 371.535 627.393 379.173 636.767 381.844C647.788 384.984 655.51 386.543 670.648 385.383C681.837 384.526 700.035 381.904 710.419 380.709C720.802 379.514 722.79 379.514 723.483 380.011C724.176 380.508 723.513 381.502 720.822 383.531" stroke="#1E1E1E" stroke-width="4" stroke-linecap="round" stroke-linejoin="round"/>
<path d="M356.302 447.798C361.303 445.8 367.328 443.119 369.678 442.114C374.297 440.14 354.676 447.437 348.118 453.467C346.942 454.548 347.265 455.812 347.762 456.821C350.541 462.463 363.934 463.524 378.003 462.203C387.027 461.356 394.1 455.852 398.614 451.845C400.668 450.022 401.471 447.838 401.32 446.98C401.169 446.121 399.844 446.453 398.333 447.617C394.792 450.346 392.794 453.813 392.122 455.982C391.774 457.104 392.774 458.483 394.441 459.331C398.759 460.511 403.81 460.521 407.822 459.853C409.514 459.517 410.508 459.186 411.533 458.844" stroke="#1E1E1E" stroke-width="4" stroke-linecap="round" stroke-linejoin="round"/>
<path d="M430.613 446.794C431.276 446.131 431.286 447.447 430.95 451.449C431.276 456.776 432.28 461.174 433.781 463.514C434.62 464.528 435.614 465.191 436.638 465.874" stroke="#1E1E1E" stroke-width="4" stroke-linecap="round" stroke-linejoin="round"/>
<path d="M447.683 445.79C448.687 449.103 448.025 459.145 445.354 464.854C444.838 465.956 443.024 465.21 441.678 463.714C435.463 456.803 436.637 451.162 437.3 448.817C440.875 436.169 475.399 461.174 485.144 460.36C487.024 460.203 487.831 458.201 487.68 457.021C487.529 455.841 486.204 454.847 484.858 454.335C483.513 453.823 482.187 453.823 482.167 453.989C482.147 454.154 483.472 454.486 485.842 454.827" stroke="#1E1E1E" stroke-width="4" stroke-linecap="round" stroke-linejoin="round"/>
<path d="M552.118 445.789C550.793 443.801 549.116 442.114 546.284 441.607C541.723 440.79 536.081 446.763 531.563 452.11C529.742 454.264 530.026 456.132 530.358 457.483C530.689 458.833 531.352 459.828 532.687 460.671C535.773 462.62 539.385 462.529 543.051 461.198C556.745 456.227 563.154 446.462 563.832 447.782C566.414 452.811 560.152 458.492 561.643 461.334C563.134 462.519 566.117 463.182 569.31 463.192C572.503 463.202 575.817 462.539 579.231 461.856" stroke="#1E1E1E" stroke-width="4" stroke-linecap="round" stroke-linejoin="round"/>
<path d="M591.282 454.827C592.276 454.164 593.271 453.502 592.954 452.994C591.82 451.175 588.28 452.146 587.602 451.82C584.861 450.5 592.608 446.804 596.439 444.8C602.171 441.803 609.659 441.773 615.508 442.601C620.334 443.285 622.733 448.451 624.907 451.789C626.84 454.757 626.76 457.83 626.102 459.833C624.896 463.508 619.078 462.861 617.07 462.032C616.077 461.623 616.387 459.547 617.547 457.368C620.344 452.113 625.073 448.481 629.24 445.975C634.569 442.772 642.124 442.777 650.795 445.925C664.654 450.957 669.599 462.519 671.602 463.523C676.095 465.776 683.306 459.868 691.831 456.012C704.14 450.445 721.766 451.815 730 453.145C733.836 454.807 737.211 456.163 739.716 456.83C740.896 457.167 741.89 457.498 743.918 458.844" stroke="#1E1E1E" stroke-width="4" stroke-linecap="round" stroke-linejoin="round"/>
<path d="M76.1348 64.1999C75.4721 64.1999 74.7993 65.194 74.2972 67.363C73.732 69.8047 75.1206 73.2174 77.621 76.7271C80.1194 80.2339 85.1524 80.5982 89.1591 80.9346C93.165 81.2709 96.2085 79.2727 98.0462 77.1036C98.9811 76.0001 99.5525 74.6032 99.8939 73.2576C100.235 71.912 100.235 70.5865 99.4068 69.5722C97.5101 67.2502 93.8888 67.2124 90.8863 67.5438C87.1115 67.9604 84.1784 70.2149 82.6721 72.2183C81.4294 73.871 82.4913 76.5714 83.9876 79.2426C89.1715 88.4971 106.883 85.2878 117.096 82.461C124.917 80.296 130.009 74.2618 132.851 70.4208C134.159 68.6528 134.699 66.9112 134.709 65.3948C134.719 63.8785 134.056 62.553 133.218 61.8701C132.379 61.1873 131.385 61.1873 131.039 61.8501C130.692 62.5128 131.024 63.8383 131.691 64.8526C132.359 65.8668 133.353 66.5296 135.382 68.2166" stroke="#77CFE0" stroke-width="4" stroke-linecap="round" stroke-linejoin="round"/>
<path d="M146.427 69.2209C147.1 71.2091 146.427 77.897 146.422 81.1004C146.407 90.8753 160.475 65.5455 163.142 64.5414C166.891 63.1293 171.18 64.5313 174.022 65.5305C176.366 66.3548 177.547 70.205 178.224 74.046C178.924 78.011 173.55 79.9255 170.718 80.9297C168.957 81.5544 166.229 81.2711 164.864 80.4426C163.498 79.6142 163.498 77.9573 164.492 76.6066C170.425 68.5461 193.503 70.225 203.48 72.2234C205.982 72.7245 208.004 75.5673 210.178 78.2384C211.182 79.4722 211.358 80.9096 211.031 81.5924C210.705 82.2753 209.711 82.2753 210.855 81.4468C212 80.6184 215.314 78.9615 218.728 77.2543" stroke="#77CFE0" stroke-width="4" stroke-linecap="round" stroke-linejoin="round"/>
<path d="M241.824 64.1992C244.827 64.1992 253.473 65.5247 259.392 69.5365C265.948 73.9788 248.532 78.9105 246.524 82.0838C245.841 83.6001 245.841 84.9256 246.338 85.7742C246.835 86.6227 247.829 86.9541 249.858 87.2955" stroke="#77CFE0" stroke-width="4" stroke-linecap="round" stroke-linejoin="round"/>
<path d="M352.286 62.1915C348.62 61.1873 341.942 61.85 337.735 65.3546C335.774 66.9881 339.542 72.2032 344.051 77.3848C347.639 81.5081 353.26 82.6066 358.607 83.1086C362.615 83.485 366.987 81.9538 371.335 79.4484C373.126 78.4164 373.695 77.2743 374.036 76.0994C374.378 74.9245 374.378 73.599 373.881 72.5848C372.893 70.5697 370.04 69.8936 367.368 69.5572C366.033 69.389 364.697 69.8835 363.849 71.0484C363 72.2132 362.669 74.2015 363.327 75.7229C369.668 80.2568 376.697 82.6066 381.869 82.7773C384.721 82.6166 388.035 81.9538 391.449 81.271" stroke="#77CFE0" stroke-width="4" stroke-linecap="round" stroke-linejoin="round"/>
<path d="M408.519 68.2159C407.194 71.1883 404.503 80.5875 405.331 81.9331C408.987 87.8702 415.187 69.2603 420.715 65.8762C422.004 65.0871 423.884 66.5289 425.234 67.6988C428.01 70.1033 428.935 73.5582 430.431 75.0695C436.264 80.9617 444.65 67.2218 447.994 66.3783C453.524 64.9833 452.362 76.2394 454.361 78.077C457.047 80.5472 466.029 78.9406 476.894 76.4352C484.115 74.2611 494.136 72.2427 512.473 70.7364C523.519 70.2243 538.1 70.2243 552.118 70.2243" stroke="#77CFE0" stroke-width="4" stroke-linecap="round" stroke-linejoin="round"/>
</svg>
