<svg width="772" height="452" viewBox="0 0 772 452" fill="none" xmlns="http://www.w3.org/2000/svg">
<rect x="2" y="50" width="272" height="80" rx="6" fill="white" stroke="#1E1E1E" stroke-width="4" stroke-linecap="round"/>
<rect x="274" y="50" width="496" height="80" rx="6" fill="white" stroke="#1E1E1E" stroke-width="4" stroke-linecap="round"/>
<rect x="2" y="2" width="272" height="48" rx="3" fill="white" stroke="#1E1E1E" stroke-width="4" stroke-linecap="round"/>
<rect x="274" y="2" width="496" height="48" rx="3" fill="white" stroke="#1E1E1E" stroke-width="4" stroke-linecap="round"/>
<rect x="2" y="130" width="272" height="80" rx="6" fill="white" stroke="#1E1E1E" stroke-width="4" stroke-linecap="round"/>
<rect x="274" y="130" width="496" height="80" rx="6" fill="white" stroke="#1E1E1E" stroke-width="4" stroke-linecap="round"/>
<rect x="2" y="210" width="272" height="80" rx="6" fill="white" stroke="#1E1E1E" stroke-width="4" stroke-linecap="round"/>
<rect x="274" y="210" width="496" height="80" rx="6" fill="white" stroke="#1E1E1E" stroke-width="4" stroke-linecap="round"/>
<rect x="2" y="290" width="272" height="80" rx="6" fill="white" stroke="#1E1E1E" stroke-width="4" stroke-linecap="round"/>
<rect x="274" y="290" width="496" height="80" rx="6" fill="white" stroke="#1E1E1E" stroke-width="4" stroke-linecap="round"/>
<rect x="2" y="370" width="272" height="80" rx="6" fill="white" stroke="#1E1E1E" stroke-width="4" stroke-linecap="round"/>
<rect x="274" y="370" width="496" height="80" rx="6" fill="white" stroke="#1E1E1E" stroke-width="4" stroke-linecap="round"/>
<path d="M51.1401 79.455C51.1401 78.7922 49.8146 78.1194 47.3091 77.783C45.1302 77.4905 43.1166 79.7763 40.9476 82.9445C38.2045 86.9512 36.7501 91.8165 36.4137 96.1596C36.1284 99.8434 39.0698 103.204 42.5794 105.88C44.0356 106.991 45.0949 107.231 46.2698 107.401C54.2068 108.555 62.1761 96.5462 62.8539 94.1964C62.987 93.7349 60.8807 95.1605 59.8614 96.3404C58.8422 97.5203 58.5108 98.5144 58.8372 99.6893C59.1635 100.864 60.1577 102.19 61.4983 102.873C67.4621 105.91 76.8673 98.896 86.4221 90.1998C88.4589 88.3461 89.2791 86.8458 90.1226 87.6542C98.5352 95.7163 91.6389 110.233 92.6381 113.075C93.0892 114.358 94.3 114.923 95.8063 113.773C105.428 106.428 105.025 93.5538 106.195 88.332C107.911 80.6715 124.365 95.8433 132.128 98.6902C133.363 99.1433 133.805 100.523 133.98 102.195C134.767 109.679 130.139 112.583 130.3 112.93C134.697 122.411 147.482 92.2282 154.385 89.8282C159.885 87.9164 164.252 99.5186 173.781 103.877C177.306 104.56 180.991 104.228 185.003 103.726C186.695 103.555 187.689 103.555 189.718 102.551" stroke="#1E1E1E" stroke-width="4" stroke-linecap="round" stroke-linejoin="round"/>
<path d="M37.082 170.836C40.7272 169.189 49.1222 162.481 50.6285 161.301C50.1465 167.793 48.1281 176.499 48.1281 181.013C48.1281 182.876 48.1281 183.87 48.1281 184.894" stroke="#1E1E1E" stroke-width="4" stroke-linecap="round" stroke-linejoin="round"/>
<path d="M92.3113 167.823C91.3272 167.482 82.6511 172.141 76.7615 179.843C74.2244 183.161 75.2402 187.555 75.5716 190.563C75.7239 191.945 76.5657 192.908 78.2327 193.585C82.3404 195.256 87.6017 194.273 92.2762 192.606C107.742 187.091 118.41 170.163 120.413 170.831C121.423 171.167 122.417 171.498 122.101 172.995C121.151 177.488 118.089 181.199 118.084 183.373C118.082 184.282 119.404 184.553 121.076 183.564C129.842 178.378 133.121 171.197 137.65 167.833C143.803 163.263 152.884 163.806 155.224 164.635C156.458 165.072 156.901 167.12 156.911 169.134C156.952 177.426 153.235 180.867 153.727 182.208C157.88 193.521 182.648 169.189 189.692 166.487C198.052 171.468 208.757 180.857 217.137 182.047C218.829 182.213 219.823 182.544 220.847 182.886" stroke="#1E1E1E" stroke-width="4" stroke-linecap="round" stroke-linejoin="round"/>
<path d="M39.09 252.174C41.0883 252.174 45.095 251.842 47.9419 252.334C56.8719 253.878 36.0975 272.217 35.5703 277.097C40.4055 279.287 52.4055 277.961 64.993 274.778C67.1971 274.266 68.1913 274.266 69.2156 273.262" stroke="#1E1E1E" stroke-width="4" stroke-linecap="round" stroke-linejoin="round"/>
<path d="M97.332 240.125C95.3638 240.436 85.9646 246.471 83.7906 248.977C82.8381 250.075 82.6107 251.151 82.937 251.994C83.2634 252.838 84.2575 253.501 85.5981 253.842C96.5616 256.634 110.708 244.483 112.716 246.296C118.757 251.748 114.062 261.866 116.06 264.21C117.035 265.354 119.384 264.567 121.568 262.739C132.078 253.945 132.8 244.162 135.14 241.646C135.918 240.809 136.817 242.113 136.992 243.454C137.382 246.43 135.17 250.81 133.99 254.992C133.572 256.472 135.792 256.855 137.971 256.528C149.74 254.766 157.573 248.5 159.079 247.993C160.272 247.591 159.923 251.161 161.419 252.999C166.881 259.707 185.279 249.866 195.878 247.491C210.062 252.135 227.515 261.203 232.028 263.041C233.891 263.884 234.885 264.547 234.905 265.23" stroke="#1E1E1E" stroke-width="4" stroke-linecap="round" stroke-linejoin="round"/>
<path d="M39.0901 322.468C41.4198 321.133 46.0993 320.46 50.4575 320.455C51.4056 320.454 51.1404 322.77 49.3178 324.783C47.4952 326.797 43.85 329.116 42.4692 329.814C41.0885 330.512 42.0826 329.518 43.0918 328.84C44.954 327.589 47.4449 327.821 50.2818 328.82C58.2381 331.622 60.8408 341.859 61.3479 345.705C61.5485 347.226 60.1981 347.894 58.6918 348.567C57.1856 349.24 55.1973 349.903 51.6876 350.244C48.178 350.586 43.2073 350.586 38.0859 349.581" stroke="#1E1E1E" stroke-width="4" stroke-linecap="round" stroke-linejoin="round"/>
<path d="M106.368 315.437C106.699 315.106 107.03 314.774 106.704 314.935C100.224 318.125 93.3233 327.136 91.9827 330.309C91.3774 331.742 91.9677 333.151 92.6355 334.165C93.3032 335.18 94.2974 335.842 95.9694 336.184C104.519 337.93 117.333 327.879 128.555 321.332C131.545 319.588 128.46 330.149 129.454 332.825C129.95 334.159 132.436 334.175 134.123 333.849C141.418 332.438 151.476 314.212 159.077 307.057C164.671 301.793 156.577 321.452 157.074 322.959C160.37 332.946 187.657 312.766 197.342 313.75C207.919 314.825 212.129 324.134 215.131 325.138C222.833 325.148 233.498 322.487 238.915 321.794C238.93 322.125 237.936 322.788 235.908 324.475" stroke="#1E1E1E" stroke-width="4" stroke-linecap="round" stroke-linejoin="round"/>
<path d="M33.0642 399.789C32.7328 399.458 32.4014 399.126 32.7278 398.956C35.7183 397.391 45.3755 404.107 53.1278 406.979C54.4746 407.478 55.7989 408.144 54.9906 409.148C51.1998 411.478 43.1562 417.152 36.1219 423.347C34.0583 425.235 35.0525 424.573 36.0767 423.89" stroke="#1E1E1E" stroke-width="4" stroke-linecap="round" stroke-linejoin="round"/>
<path d="M66.2034 393.766C66.8561 393.434 71.2143 393.093 72.7206 394.258C73.4944 394.856 73.2327 396.417 72.7357 397.431C70.3486 402.302 62.8695 402.131 61.6896 402.467C59.928 402.969 66.5248 402.462 69.0302 403.963C73.708 406.766 75.5624 412.484 77.0788 416.847C77.4148 417.814 77.2495 418.85 76.421 419.859C73.9357 421.863 70.5716 423.218 67.2327 423.721C65.5507 423.891 63.8938 423.891 62.1867 423.891" stroke="#1E1E1E" stroke-width="4" stroke-linecap="round" stroke-linejoin="round"/>
<path d="M117.415 392.76C117.415 395.089 111.45 405.071 106.043 413.823C105.14 415.283 106.027 417.161 107.358 418.181C110.448 420.548 115.718 419.21 120.227 417.543C134.302 412.339 142.51 393.774 144.347 392.93C146.264 392.051 146.536 400.08 147.033 406.442C147.198 408.548 148.525 408.164 149.534 407.662C154.357 405.262 160.555 399.146 166.6 396.114C167.841 395.491 169.271 395.772 170.451 396.269C177.198 399.112 180.669 407.481 182.672 408.32C184.526 409.095 187.025 405.834 190.871 401.978C194.947 397.892 202.068 398.785 214.766 401.28C229.612 404.198 238.881 408.827 249.927 407.16C253.623 406.818 255.983 406.487 258.649 405.985C260.321 405.814 262.64 405.814 265.03 405.814" stroke="#1E1E1E" stroke-width="4" stroke-linecap="round" stroke-linejoin="round"/>
<path d="M320.262 83.4707C316.255 85.8004 313.243 91.8054 312.565 96.6607C312.245 98.9531 319.559 94.5469 324.414 90.6908C329.214 86.879 323.274 107.22 323.772 110.227C324.006 111.647 325.263 112.572 326.438 112.918C331.961 111.929 336.982 108.927 341.48 105.257C344.322 103.243 348.299 100.923 353.4 97.5293" stroke="#1E1E1E" stroke-width="4" stroke-linecap="round" stroke-linejoin="round"/>
<path d="M367.459 88.4916C366.796 89.8171 366.123 92.4883 365.621 96.1636C365.392 97.8436 365.45 99.1761 367.107 98.8648C379.054 96.6204 382.843 86.8347 385.017 84.8213C385.692 84.1959 386.197 85.459 386.202 86.4682C386.227 91.5826 384.53 96.8464 385.855 98.6891C393.838 109.787 411.633 82.8079 413.305 82.9636C421.777 83.7522 418.331 97.8506 419.998 100.025C420.798 101.068 422.327 101.205 423.342 100.878C424.356 100.552 425.019 99.5577 426.023 99.377C432.373 98.2339 441.066 99.8791 448.436 99.7033C457.568 99.4856 468.52 106.567 474.716 105.402C480.669 104.283 485.933 103.896 494.122 95.7217C495.989 93.8582 496.979 93.1912 498.651 92.8498C506.358 93.1711 510.043 95.1795 512.212 97.1778C513.387 98.5134 514.713 100.502 517.082 104.559" stroke="#1E1E1E" stroke-width="4" stroke-linecap="round" stroke-linejoin="round"/>
<path d="M529.133 99.5381C532.467 98.534 538.472 97.8712 547.514 98.3582C553.686 98.6906 546.204 110.564 546.701 113.742C546.9 115.016 548.192 115.264 550.693 113.777C557.623 109.658 564.581 100.924 569.602 96.38C570.869 95.2327 571.309 101.446 572.634 104.504C573.96 107.562 576.611 108.556 578.971 108.902C590.127 110.54 603.402 101.888 610.612 101.712C618.95 101.509 629.491 104.559 635.561 106.226C637.521 106.764 639.583 106.899 641.421 106.904C646.276 106.917 644.273 96.5457 648.104 92.1875C662.639 93.1616 674.72 97.8511 678.229 99.8595C679.751 100.542 680.745 100.542 683.777 102.551" stroke="#1E1E1E" stroke-width="4" stroke-linecap="round" stroke-linejoin="round"/>
<path d="M323.275 163.807C321.276 164.801 318.264 168.476 317.089 171.484C316.593 172.753 317.571 173.828 318.741 174.341C325.021 177.09 340.908 165.554 348.374 161.452C361.129 154.444 345.698 185.216 347.36 187.224C355.389 187.244 369.367 178.608 376.989 172.182C377.501 172.162 377.501 173.487 377.501 174.853" stroke="#1E1E1E" stroke-width="4" stroke-linecap="round" stroke-linejoin="round"/>
<path d="M412.644 167.823C411.319 165.172 408.316 160.824 403.973 155.974C402.136 153.922 400.293 153.443 399.108 154.262C396.111 156.331 396.908 161.778 397.742 165.785C398.592 169.87 401.578 174.16 405.419 178.171C408.475 181.364 413.287 181.882 417.966 181.385C420.043 181.164 421.32 179.894 421.837 178.884C422.755 177.094 421.019 174.863 419.518 173.191C418.797 172.388 417.685 172.181 417.67 172.176C414.449 171.103 432.969 170.193 440.746 166.995C441.791 166.565 442.75 166.156 443.427 166.483C447.803 168.589 445.772 178.839 447.941 183.689C448.842 185.704 450.442 186.22 451.787 185.733C459.081 183.093 458.164 173.527 459.494 171.353C461.011 168.874 465.183 169.832 467.689 169.997C469.914 170.145 471.881 171.499 473.553 173C474.562 174.833 474.904 177.514 475.069 180.521C475.235 181.872 475.566 182.866 475.908 183.89" stroke="#1E1E1E" stroke-width="4" stroke-linecap="round" stroke-linejoin="round"/>
<path d="M502.02 166.819C501.026 166.487 500.032 166.156 500.679 166.151C503.664 166.128 508.356 166.819 511.871 167.316C516.734 168.004 512.062 182.825 514.055 187.902C517.823 197.497 533.109 174.872 537.824 174.009C540.763 173.47 539.506 180.194 540.505 181.706C543.854 178.879 546.194 176.529 548.86 175.861C550.532 175.525 552.852 175.194 555.242 174.852" stroke="#1E1E1E" stroke-width="4" stroke-linecap="round" stroke-linejoin="round"/>
<path d="M573.318 168.828C572.333 172.132 567.634 184.855 568.949 191.237C571.249 202.391 599.627 183.288 615.78 177.208C633.83 176.852 653.602 180.196 662.293 182.701C666.014 183.881 668.334 184.875 670.724 185.899" stroke="#1E1E1E" stroke-width="4" stroke-linecap="round" stroke-linejoin="round"/>
<path d="M335.323 247.154C334.992 246.823 334.66 246.491 333.993 246.321C327.919 244.768 320.27 253.5 318.764 256.503C317.978 258.07 318.252 260.168 319.08 261.855C319.909 263.542 321.566 264.868 323.745 265.716C328.378 267.521 334.289 266.575 340.299 264.411C352.522 260.01 352.726 250.849 353.062 248.344C353.219 247.175 352.736 246.17 351.902 245.658C351.069 245.146 349.743 245.146 348.563 245.477C347.383 245.808 346.389 246.471 345.546 247.641C344.702 248.811 344.039 250.468 344.029 251.818C344.011 254.252 349.01 256.513 355.362 258.521C364.672 261.465 379.768 246.893 384.358 241.631C385.985 239.765 384.86 248.138 385.693 251.813C386.407 254.963 389.529 257.517 393.701 259.526C395.886 260.208 398.205 260.208 400.063 260.043C401.921 259.877 403.246 259.546 404.612 259.204" stroke="#1E1E1E" stroke-width="4" stroke-linecap="round" stroke-linejoin="round"/>
<path d="M424.696 245.145C425.028 247.474 425.7 254.142 424.033 263.853C423.63 266.203 423.692 268.201 424.355 269.391C425.018 270.581 426.343 270.912 428.02 270.089C436.84 265.758 440.723 250.909 446.266 245.15C452.339 238.84 457.493 258.179 460.164 261.538C463.997 266.358 480.167 256.211 489.777 255.021C491.291 254.833 492.619 254.524 493.302 255.347C493.985 256.171 493.985 258.159 495.311 258.189C499.742 258.29 505.001 251.2 509.685 249.995C518.06 247.841 513.054 267.548 515.389 271.063C516.383 272.559 518.387 272.258 520.4 271.098C531.774 264.546 536.803 248.218 539.168 241.806C540.883 237.157 543.18 250.487 545.68 252.495C551.043 256.802 557.891 252.174 565.754 258.174C570.946 262.136 579.301 259.545 590.342 256.372C596.297 254.66 600.419 254.182 604.079 254.514C611.095 255.149 624.107 258.179 642.298 261.523C651.873 262.879 662.146 263.541 667.935 264.38C673.724 265.218 674.718 266.213 675.743 267.237" stroke="#1E1E1E" stroke-width="4" stroke-linecap="round" stroke-linejoin="round"/>
<path d="M335.325 322.467C333.005 325.46 327.301 331.153 326.126 334.161C325.63 335.43 326.608 336.506 327.447 337.183C332.768 341.485 354.946 327.568 365.606 318.139C366.632 317.231 364.145 316.121 362.628 315.779C359.836 315.15 357.095 315.769 354.59 316.768C352.048 317.782 350.066 321.111 348.223 324.947C346.13 329.304 350.036 334.829 353.706 339.172C357.376 343.514 364.074 345.222 370.757 346.226C376.066 347.024 380.493 345.573 384.334 343.239C392.56 338.238 392.563 329.175 392.232 326.67C392.071 325.455 391.238 324.496 390.565 324.978C388.282 326.613 388.546 331.153 389.044 334.161C389.278 335.581 390.535 336.506 392.207 337.183C393.879 337.861 396.198 338.193 398.056 338.363C399.914 338.534 401.239 338.534 402.605 338.534" stroke="#1E1E1E" stroke-width="4" stroke-linecap="round" stroke-linejoin="round"/>
<path d="M428.711 323.472C428.711 322.81 428.711 322.147 428.877 321.143C429.264 318.792 429.715 325.732 432.863 334.308C437.054 345.724 450.12 317.126 453.951 318.266C464.212 321.318 464.852 334.508 467.021 336.015C469.117 337.471 472.875 336.195 476.55 335.196C481.923 331.185 485.598 324.848 487.777 319.822C488.299 318.441 487.637 319.436 486.954 320.46" stroke="#1E1E1E" stroke-width="4" stroke-linecap="round" stroke-linejoin="round"/>
<path d="M506.035 324.476C506.035 329.788 506.367 340.192 507.2 343.199C507.585 344.588 508.365 345.544 509.369 345.062C517.093 341.355 516.74 328.533 517.578 324.476C519.167 316.791 524.432 335.502 528.278 337.36C533.85 340.051 547.789 333.875 557.726 329.678C559.328 329.001 560.241 328.172 560.753 328.99C565.29 336.24 564.258 346.87 569.444 351.911C570.634 353.067 572.613 352.593 574.129 351.931C582.679 348.194 587.354 333.896 590.542 329.171C592.996 325.535 601.393 333.173 610.767 335.844C621.788 338.984 629.51 340.543 644.648 339.383C655.837 338.526 674.035 335.904 684.419 334.709C694.802 333.514 696.79 333.514 697.483 334.011C698.176 334.508 697.513 335.502 694.822 337.531" stroke="#1E1E1E" stroke-width="4" stroke-linecap="round" stroke-linejoin="round"/>
<path d="M330.302 401.798C335.303 399.8 341.328 397.119 343.678 396.114C348.297 394.14 328.676 401.437 322.118 407.467C320.942 408.548 321.265 409.812 321.762 410.821C324.541 416.463 337.934 417.524 352.003 416.203C361.027 415.356 368.1 409.852 372.614 405.845C374.668 404.022 375.471 401.838 375.32 400.98C375.169 400.121 373.844 400.453 372.333 401.617C368.792 404.346 366.794 407.813 366.122 409.982C365.774 411.104 366.774 412.483 368.441 413.331C372.759 414.511 377.81 414.521 381.822 413.853C383.514 413.517 384.508 413.186 385.533 412.844" stroke="#1E1E1E" stroke-width="4" stroke-linecap="round" stroke-linejoin="round"/>
<path d="M404.613 400.794C405.276 400.131 405.286 401.447 404.95 405.449C405.276 410.776 406.28 415.174 407.781 417.514C408.62 418.528 409.614 419.191 410.638 419.874" stroke="#1E1E1E" stroke-width="4" stroke-linecap="round" stroke-linejoin="round"/>
<path d="M421.683 399.79C422.687 403.103 422.025 413.145 419.354 418.854C418.838 419.956 417.024 419.21 415.678 417.714C409.463 410.803 410.637 405.162 411.3 402.817C414.875 390.169 449.399 415.174 459.144 414.36C461.024 414.203 461.831 412.201 461.68 411.021C461.529 409.841 460.204 408.847 458.858 408.335C457.513 407.823 456.187 407.823 456.167 407.989C456.147 408.154 457.472 408.486 459.842 408.827" stroke="#1E1E1E" stroke-width="4" stroke-linecap="round" stroke-linejoin="round"/>
<path d="M526.118 399.789C524.793 397.801 523.116 396.114 520.284 395.607C515.723 394.79 510.081 400.763 505.563 406.11C503.742 408.264 504.026 410.132 504.358 411.483C504.689 412.833 505.352 413.828 506.687 414.671C509.773 416.62 513.385 416.529 517.051 415.198C530.745 410.227 537.154 400.462 537.832 401.782C540.414 406.811 534.152 412.492 535.643 415.334C537.134 416.519 540.117 417.182 543.31 417.192C546.503 417.202 549.817 416.539 553.231 415.856" stroke="#1E1E1E" stroke-width="4" stroke-linecap="round" stroke-linejoin="round"/>
<path d="M565.282 408.827C566.276 408.164 567.271 407.502 566.954 406.994C565.82 405.175 562.28 406.146 561.602 405.82C558.861 404.5 566.608 400.804 570.439 398.8C576.171 395.803 583.659 395.773 589.508 396.601C594.334 397.285 596.733 402.451 598.907 405.789C600.84 408.757 600.76 411.83 600.102 413.833C598.896 417.508 593.078 416.861 591.07 416.032C590.077 415.623 590.387 413.547 591.547 411.368C594.344 406.113 599.073 402.481 603.24 399.975C608.569 396.772 616.124 396.777 624.795 399.925C638.654 404.957 643.599 416.519 645.602 417.523C650.095 419.776 657.306 413.868 665.831 410.012C678.14 404.445 695.766 405.815 704 407.145C707.836 408.807 711.211 410.163 713.716 410.83C714.896 411.167 715.89 411.498 717.918 412.844" stroke="#1E1E1E" stroke-width="4" stroke-linecap="round" stroke-linejoin="round"/>
<path d="M50.1348 18.1999C49.4721 18.1999 48.7993 19.194 48.2972 21.363C47.732 23.8047 49.1206 27.2174 51.621 30.7271C54.1194 34.2339 59.1524 34.5982 63.1591 34.9346C67.165 35.2709 70.2085 33.2727 72.0462 31.1036C72.9811 30.0001 73.5525 28.6032 73.8939 27.2576C74.2353 25.912 74.2353 24.5865 73.4068 23.5722C71.5101 21.2502 67.8888 21.2124 64.8863 21.5438C61.1115 21.9604 58.1784 24.2149 56.6721 26.2183C55.4294 27.871 56.4913 30.5714 57.9876 33.2426C63.1715 42.4971 80.883 39.2878 91.0956 36.461C98.9171 34.296 104.009 28.2618 106.851 24.4208C108.159 22.6528 108.699 20.9112 108.709 19.3948C108.719 17.8785 108.056 16.553 107.218 15.8701C106.379 15.1873 105.385 15.1873 105.039 15.8501C104.692 16.5128 105.024 17.8383 105.691 18.8526C106.359 19.8668 107.353 20.5296 109.382 22.2166" stroke="#77CFE0" stroke-width="4" stroke-linecap="round" stroke-linejoin="round"/>
<path d="M120.427 23.2209C121.1 25.2091 120.427 31.897 120.422 35.1004C120.407 44.8753 134.475 19.5455 137.142 18.5414C140.891 17.1293 145.18 18.5313 148.022 19.5305C150.366 20.3548 151.547 24.205 152.224 28.046C152.924 32.011 147.55 33.9255 144.718 34.9297C142.957 35.5544 140.229 35.2711 138.864 34.4426C137.498 33.6142 137.498 31.9573 138.492 30.6066C144.425 22.5461 167.503 24.225 177.48 26.2234C179.982 26.7245 182.004 29.5673 184.178 32.2384C185.182 33.4722 185.358 34.9096 185.031 35.5924C184.705 36.2753 183.711 36.2753 184.855 35.4468C186 34.6184 189.314 32.9615 192.728 31.2543" stroke="#77CFE0" stroke-width="4" stroke-linecap="round" stroke-linejoin="round"/>
<path d="M215.824 18.1992C218.827 18.1992 227.473 19.5247 233.392 23.5365C239.948 27.9788 222.532 32.9105 220.524 36.0838C219.841 37.6001 219.841 38.9256 220.338 39.7742C220.835 40.6227 221.829 40.9541 223.858 41.2955" stroke="#77CFE0" stroke-width="4" stroke-linecap="round" stroke-linejoin="round"/>
<path d="M326.286 16.1915C322.62 15.1873 315.942 15.85 311.735 19.3546C309.774 20.9881 313.542 26.2032 318.051 31.3848C321.639 35.5081 327.26 36.6066 332.607 37.1086C336.615 37.485 340.987 35.9538 345.335 33.4484C347.126 32.4164 347.695 31.2743 348.036 30.0994C348.378 28.9245 348.378 27.599 347.881 26.5848C346.893 24.5697 344.04 23.8936 341.368 23.5572C340.033 23.389 338.697 23.8835 337.849 25.0484C337 26.2132 336.669 28.2015 337.327 29.7229C343.668 34.2568 350.697 36.6066 355.869 36.7773C358.721 36.6166 362.035 35.9538 365.449 35.271" stroke="#77CFE0" stroke-width="4" stroke-linecap="round" stroke-linejoin="round"/>
<path d="M382.519 22.2159C381.194 25.1883 378.503 34.5875 379.331 35.9331C382.987 41.8702 389.187 23.2603 394.715 19.8762C396.004 19.0871 397.884 20.5289 399.234 21.6988C402.01 24.1033 402.935 27.5582 404.431 29.0695C410.264 34.9617 418.65 21.2218 421.994 20.3783C427.524 18.9833 426.362 30.2394 428.361 32.077C431.047 34.5472 440.029 32.9406 450.894 30.4352C458.115 28.2611 468.136 26.2427 486.473 24.7364C497.519 24.2243 512.1 24.2243 526.118 24.2243" stroke="#77CFE0" stroke-width="4" stroke-linecap="round" stroke-linejoin="round"/>
</svg>
