<svg width="832" height="528" viewBox="0 0 832 528" fill="none" xmlns="http://www.w3.org/2000/svg">
<rect x="36" y="48" width="760" height="448" rx="6" fill="white" stroke="#1E1E1E" stroke-width="4" stroke-linecap="round"/>
<path d="M92 332.018C90.8954 332.018 90 332.913 90 334.018C90 335.122 90.8954 336.018 92 336.018V332.018ZM747.445 188.223C748.227 187.442 748.227 186.175 747.445 185.394L734.718 172.666C733.936 171.885 732.67 171.885 731.889 172.666C731.108 173.448 731.108 174.714 731.889 175.495L743.203 186.809L731.889 198.122C731.108 198.903 731.108 200.17 731.889 200.951C732.67 201.732 733.936 201.732 734.718 200.951L747.445 188.223ZM92 334.018V336.018C255.916 336.018 337.97 299.09 419.837 262.237C501.478 225.485 582.932 188.809 746.031 188.809V186.809V184.809C582.115 184.809 500.061 221.737 418.195 258.589C336.553 295.341 255.1 332.018 92 332.018V334.018Z" fill="#77CFE0"/>
<path d="M252.434 281.943C252.434 281.373 252.434 280.802 253.004 280.793C253.575 280.784 254.717 281.355 255.876 282.791C257.035 284.227 258.176 286.51 261.904 297.961C265.631 309.411 271.91 329.961 275.43 341.117C278.95 352.274 279.521 353.416 280.109 354.592" stroke="#1E1E1E" stroke-width="4" stroke-linecap="round" stroke-linejoin="round"/>
<path d="M494.595 190.268C493.454 189.126 498.574 202.238 507.793 224.992C512.446 238.043 516.476 249.581 521.086 261.395C522.842 265.788 523.413 266.93 524.001 268.106" stroke="#1E1E1E" stroke-width="4" stroke-linecap="round" stroke-linejoin="round"/>
<path d="M262.812 240.43H261.082" stroke="#1E1E1E" stroke-width="4" stroke-linecap="round" stroke-linejoin="round"/>
<path d="M262.812 240.429C262.812 239.288 262.812 238.146 263.669 239.27C272.017 250.232 272.032 262.898 273.182 264.066C273.762 263.521 274.333 260.667 274.627 257.77C274.921 254.872 274.921 252.018 273.191 247.348" stroke="#1E1E1E" stroke-width="4" stroke-linecap="round" stroke-linejoin="round"/>
<path d="M273.191 257.727C272.62 257.727 272.049 257.727 272.326 257.442C273.479 256.252 285.766 252.002 320.179 240.24C343.66 232.214 379.708 221.057 400.802 214.034C421.896 207.011 427.033 204.728 432.819 202.696C455.141 194.855 468.028 190.856 472.681 188.547C477.421 186.194 464.62 180.477 464.041 179.318C460.803 172.843 469.221 197.169 469.801 198.622C469.238 196.08 468.079 191.444 467.215 187.128C466.921 185.096 466.921 183.383 466.921 183.349" stroke="#1E1E1E" stroke-width="4" stroke-linecap="round" stroke-linejoin="round"/>
<path d="M361.406 140.105C356.234 140.105 336.774 142.388 314.487 148.442C304.463 151.165 292.857 155.067 281.345 160.533C271.909 165.014 265.146 170.064 259.395 174.95C253.353 180.084 247.849 185.631 240.1 193.087C227.387 205.317 219.585 217.908 216.42 224.524C213.581 230.459 211.507 238.077 209.778 245.852C208.701 250.69 208.619 259.387 208.325 273.19C208.029 287.063 212.632 300.33 217.224 314.41C222.892 331.786 231.642 345.891 238.829 355.958C245.953 365.938 255.84 374.726 268.762 383.928C276.141 389.183 286.82 393.13 299.248 397.48C311.676 401.83 325.946 405.826 336.723 408.455C354.234 412.728 367.685 413.402 383.192 412.831C392.431 412.491 404.407 411.119 421.427 407.391C438.448 403.664 460.139 397.385 479.59 391.011C499.04 384.637 515.594 378.358 527.261 373.126C538.928 367.893 545.207 363.897 550.439 359.556C560.31 351.366 567.209 340.806 573.254 328.741C576.573 322.119 577.587 313.251 578.47 302.847C579.352 292.442 579.352 280.455 577.925 270.855C575.426 254.042 566.137 238.786 557.791 223.53C551.518 212.064 543.65 202.998 533.877 194.081C528.865 189.508 522.963 185.735 512.031 179.681C501.099 173.627 485.116 165.636 474.029 160.377C457.393 152.488 445.644 149.342 434.426 147.327C428.936 146.34 423.78 145.882 411.144 145.588C398.509 145.294 378.53 145.294 361.389 145.865C344.247 146.436 330.547 147.577 320.922 148.736C306.087 150.522 294.016 155.067 281.639 160.819C271.551 165.507 265.146 172.935 253.687 185.26C245.257 194.326 230.811 208.429 222.318 217.208C213.825 225.986 211.542 228.84 209.795 232.023C208.048 235.206 206.906 238.63 206.318 242.678C205.73 246.726 205.73 251.292 206.301 256.784C206.872 262.276 208.013 268.555 212.883 281.779C217.752 295.002 226.314 314.981 234.15 330.124C241.985 345.268 248.835 354.972 254.076 361.683C262.284 372.194 269.125 379.344 277.159 387.681C287.868 398.793 304.256 403.577 318.344 407.608C325.504 409.656 333.004 410.496 342.534 411.655C352.065 412.814 363.482 413.956 372.502 414.259C381.523 414.561 387.802 413.99 396.744 411.984C405.687 409.977 417.103 406.553 434.4 399.08C451.698 391.608 474.53 380.191 490.288 371.456C506.046 362.721 514.037 357.013 519.866 352.36C529.467 344.697 536.645 336.187 543.84 328.127C549.145 322.185 555.101 314.86 561.146 304.507C566.806 294.816 567.814 285.437 568.679 275.681C570.045 260.275 568.403 245.1 567.252 234.739C566.735 230.078 566.102 226.661 564.666 222.899C561.599 214.861 555.741 207.028 549.704 199.262C543.709 191.549 533.289 183.4 521.492 174.475C512.105 167.373 503.278 163.768 494.664 158.596C483.01 151.598 473.285 147.041 468.684 143.876C464.332 140.882 456.022 137.822 443.378 133.791C417.753 125.624 404.13 128.585 392.013 128.282C377.915 127.93 370.089 135.469 363.447 138.652C357.393 142.406 345.907 146.989 338.937 151.91C337.778 152.784 336.636 153.355 333.73 153.943" stroke="#77CFE0" stroke-width="4" stroke-linecap="round" stroke-linejoin="round"/>
</svg>
