<svg width="764" height="436" viewBox="0 0 764 436" fill="none" xmlns="http://www.w3.org/2000/svg">
<rect x="2" y="2" width="760" height="432" rx="6" fill="white" stroke="#1E1E1E" stroke-width="4" stroke-linecap="round"/>
<path d="M58 286.018C56.8954 286.018 56 286.913 56 288.018C56 289.122 56.8954 290.018 58 290.018V286.018ZM713.445 142.223C714.227 141.442 714.227 140.175 713.445 139.394L700.718 126.666C699.936 125.885 698.67 125.885 697.889 126.666C697.108 127.448 697.108 128.714 697.889 129.495L709.203 140.809L697.889 152.122C697.108 152.903 697.108 154.17 697.889 154.951C698.67 155.732 699.936 155.732 700.718 154.951L713.445 142.223ZM58 288.018V290.018C221.916 290.018 303.97 253.09 385.837 216.237C467.478 179.485 548.932 142.809 712.031 142.809V140.809V138.809C548.115 138.809 466.061 175.737 384.195 212.589C302.553 249.341 221.1 286.018 58 286.018V288.018Z" fill="#1E1E1E"/>
<path d="M218.43 235.943C218.43 235.373 218.43 234.802 219 234.793C219.571 234.784 220.713 235.355 221.872 236.791C223.031 238.227 224.172 240.51 227.9 251.961C231.628 263.411 237.906 283.961 241.426 295.117C244.946 306.274 245.517 307.416 246.105 308.592" stroke="#7D7D7D" stroke-width="4" stroke-linecap="round" stroke-linejoin="round"/>
<path d="M460.595 144.268C459.454 143.126 464.574 156.238 473.793 178.992C478.446 192.043 482.476 203.581 487.086 215.395C488.842 219.788 489.413 220.93 490.001 222.106" stroke="#7D7D7D" stroke-width="4" stroke-linecap="round" stroke-linejoin="round"/>
<path d="M228.808 194.43H227.078" stroke="#1E1E1E" stroke-width="4" stroke-linecap="round" stroke-linejoin="round"/>
<path d="M228.812 194.429C228.812 193.288 228.812 192.146 229.669 193.27C238.017 204.232 238.032 216.898 239.182 218.066C239.762 217.521 240.333 214.667 240.627 211.77C240.921 208.872 240.921 206.018 239.191 201.348" stroke="#7D7D7D" stroke-width="4" stroke-linecap="round" stroke-linejoin="round"/>
<path d="M239.187 211.727C238.616 211.727 238.045 211.727 238.322 211.442C239.475 210.252 251.762 206.002 286.175 194.24C309.656 186.214 345.704 175.057 366.798 168.034C387.892 161.011 393.029 158.728 398.815 156.696C421.137 148.855 434.024 144.856 438.677 142.547C443.418 140.194 430.616 134.477 430.037 133.318C426.799 126.843 435.217 151.169 435.797 152.622C435.234 150.08 434.076 145.444 433.211 141.128C432.917 139.096 432.917 137.383 432.917 137.349" stroke="#7D7D7D" stroke-width="4" stroke-linecap="round" stroke-linejoin="round"/>
<path d="M327.406 94.105C322.234 94.105 302.774 96.3882 280.487 102.442C270.463 105.165 258.857 109.067 247.345 114.533C237.909 119.014 231.146 124.064 225.395 128.95C219.353 134.084 213.849 139.631 206.1 147.087C193.387 159.317 185.585 171.908 182.42 178.524C179.581 184.459 177.507 192.077 175.778 199.852C174.701 204.69 174.619 213.387 174.325 227.19C174.029 241.063 178.632 254.33 183.224 268.41C188.892 285.786 197.642 299.891 204.829 309.958C211.953 319.938 221.84 328.726 234.762 337.928C242.141 343.183 252.82 347.13 265.248 351.48C277.676 355.83 291.946 359.826 302.723 362.455C320.234 366.728 333.685 367.402 349.192 366.831C358.431 366.491 370.407 365.119 387.427 361.391C404.448 357.664 426.139 351.385 445.59 345.011C465.04 338.637 481.594 332.358 493.261 327.126C504.928 321.893 511.207 317.897 516.439 313.556C526.31 305.366 533.209 294.806 539.254 282.741C542.573 276.119 543.587 267.251 544.47 256.847C545.352 246.442 545.352 234.455 543.925 224.855C541.426 208.042 532.137 192.786 523.791 177.53C517.518 166.064 509.65 156.998 499.877 148.081C494.865 143.508 488.963 139.735 478.031 133.681C467.099 127.627 451.116 119.636 440.029 114.377C423.393 106.488 411.644 103.342 400.426 101.327C394.936 100.34 389.78 99.8823 377.144 99.5882C364.509 99.2942 344.53 99.2942 327.389 99.865C310.247 100.436 296.547 101.577 286.922 102.736C272.087 104.522 260.016 109.067 247.639 114.819C237.551 119.507 231.146 126.935 219.687 139.26C211.257 148.326 196.811 162.429 188.318 171.208C179.825 179.986 177.542 182.84 175.795 186.023C174.048 189.206 172.906 192.63 172.318 196.678C171.73 200.726 171.73 205.292 172.301 210.784C172.872 216.276 174.013 222.555 178.883 235.779C183.752 249.002 192.314 268.981 200.15 284.124C207.985 299.268 214.835 308.972 220.076 315.683C228.284 326.194 235.125 333.344 243.159 341.681C253.868 352.793 270.256 357.577 284.344 361.608C291.504 363.656 299.004 364.496 308.534 365.655C318.065 366.814 329.482 367.956 338.502 368.259C347.523 368.561 353.802 367.99 362.744 365.984C371.687 363.977 383.103 360.553 400.4 353.08C417.698 345.608 440.53 334.191 456.288 325.456C472.046 316.721 480.037 311.013 485.866 306.36C495.467 298.697 502.645 290.187 509.84 282.127C515.145 276.185 521.101 268.86 527.146 258.507C532.806 248.816 533.814 239.437 534.679 229.681C536.045 214.275 534.403 199.1 533.252 188.739C532.735 184.078 532.102 180.661 530.666 176.899C527.599 168.861 521.741 161.028 515.704 153.262C509.709 145.549 499.289 137.4 487.492 128.475C478.105 121.373 469.278 117.768 460.664 112.596C449.01 105.598 439.285 101.041 434.684 97.8758C430.332 94.8819 422.022 91.8218 409.378 87.7915C383.753 79.6238 370.13 82.585 358.013 82.2823C343.915 81.9301 336.089 89.4693 329.447 92.652C323.393 96.4055 311.907 100.989 304.937 105.91C303.778 106.784 302.636 107.355 299.73 107.943" stroke="#77CFE0" stroke-width="4" stroke-linecap="round" stroke-linejoin="round"/>
</svg>
