<svg width="1566" height="1566" viewBox="0 0 1566 1566" fill="none" xmlns="http://www.w3.org/2000/svg">
<path fill-rule="evenodd" clip-rule="evenodd" d="M1566 0H0V1566H1566V0ZM602.186 1039H578.186C563 1039 550.684 1034.11 541.234 1024.33C531.449 1014.88 526.555 1002.57 526.555 987.395V834.1C526.555 824.318 522 819.428 512.889 819.428H505H481V746.572H505H512.889C522 746.572 526.555 741.682 526.555 731.9V578.605C526.555 563.428 531.449 551.115 541.234 541.672C550.684 531.891 563 527 578.186 527H602.186H645H669V587.711H645H628C618.889 587.711 614.334 592.771 614.334 602.889V738.984C614.334 750.451 610.791 759.896 603.703 767.316C596.279 774.736 586.662 778.447 574.852 778.447H571.814V787.553H574.852C586.662 787.553 596.279 791.264 603.703 798.684C610.791 806.104 614.334 815.549 614.334 827.016V963.111C614.334 973.229 618.889 978.289 628 978.289H645H669V1039H645H602.186ZM963.814 527H987.814C1003 527 1015.32 531.891 1024.77 541.672C1034.55 551.115 1039.45 563.428 1039.45 578.605V731.9C1039.45 741.682 1044 746.572 1053.11 746.572H1061H1085V819.428H1061H1053.11C1044 819.428 1039.45 824.318 1039.45 834.1V987.395C1039.45 1002.57 1034.55 1014.88 1024.77 1024.33C1015.32 1034.11 1003 1039 987.814 1039H963.814H921H897V978.289H921H938C947.111 978.289 951.666 973.229 951.666 963.111V827.016C951.666 815.549 955.209 806.104 962.297 798.684C969.721 791.264 979.338 787.553 991.148 787.553H994.186V778.447H991.148C979.338 778.447 969.721 774.736 962.297 767.316C955.209 759.896 951.666 750.451 951.666 738.984V602.889C951.666 592.771 947.111 587.711 938 587.711H921H897V527H921H963.814Z" fill="white"/>
</svg>
