<svg width="3745" height="1780" viewBox="0 0 3745 1780" fill="none" xmlns="http://www.w3.org/2000/svg">
<path d="M430 676L461.6 536H488.2L518.6 676H502.2L492.4 634.8H456L447 676H430ZM459 621.2H489.4L475 549.2H473.6L459 621.2ZM586.758 676C579.424 676 573.558 673.8 569.158 669.4C564.891 665 562.758 659.067 562.758 651.6V598.4C562.758 590 564.958 583.533 569.358 579C573.758 574.333 580.158 572 588.558 572H610.758V584H588.958C585.891 584 583.424 585.067 581.558 587.2C579.691 589.2 578.758 591.8 578.758 595V653C578.758 656.2 579.691 658.867 581.558 661C583.558 663 586.091 664 589.158 664H610.758V676H586.758ZM650.119 677.4C640.785 677.4 633.519 675.067 628.319 670.4C623.252 665.6 620.719 659 620.719 650.6V597.4C620.719 589 623.252 582.467 628.319 577.8C633.519 573 640.785 570.6 650.119 570.6C659.452 570.6 666.652 573 671.719 577.8C676.919 582.467 679.519 589 679.519 597.4V650.6C679.519 659 676.919 665.6 671.719 670.4C666.652 675.067 659.452 677.4 650.119 677.4ZM650.119 665C654.385 665 657.719 663.8 660.119 661.4C662.652 658.867 663.919 655.267 663.919 650.6V597.4C663.919 592.733 662.652 589.2 660.119 586.8C657.719 584.267 654.385 583 650.119 583C645.852 583 642.452 584.267 639.919 586.8C637.519 589.2 636.319 592.733 636.319 597.4V650.6C636.319 655.267 637.519 658.867 639.919 661.4C642.452 663.8 645.852 665 650.119 665ZM699.523 572H711.923L713.723 577.8L721.923 575.4C727.523 573.667 731.923 572.467 735.123 571.8C738.457 571 741.59 570.6 744.523 570.6C750.257 570.6 754.257 573.133 756.523 578.2C760.257 576.867 765.523 575.267 772.323 573.4C779.123 571.533 784.123 570.6 787.323 570.6C792.123 570.6 795.657 572.267 797.923 575.6C800.323 578.933 801.523 583.267 801.523 588.6V676H785.523V593.8C785.523 589.933 785.257 587.267 784.723 585.8C784.19 584.2 782.857 583.4 780.723 583.4C779.657 583.4 772.323 585.533 758.723 589.8V676H742.723V593.8C742.723 589.933 742.457 587.267 741.923 585.8C741.39 584.2 740.057 583.4 737.923 583.4C736.857 583.4 729.39 585.533 715.523 589.8V676H699.523V572ZM835.747 677.4C830.947 677.4 827.347 675.733 824.947 672.4C822.68 669.067 821.547 664.733 821.547 659.4V572H837.547V654.2C837.547 657.933 837.814 660.6 838.347 662.2C838.88 663.8 840.147 664.6 842.147 664.6C843.08 664.6 850.614 662.6 864.747 658.6V572H880.747V676H869.347L866.347 669.2C864.214 670 862.614 670.533 861.547 670.8C855.28 673.067 850.214 674.733 846.347 675.8C842.48 676.867 838.947 677.4 835.747 677.4ZM904.797 572H917.197L918.997 577.8L927.197 575.4C932.797 573.667 937.197 572.467 940.397 571.8C943.73 571 946.864 570.6 949.797 570.6C954.597 570.6 958.13 572.267 960.397 575.6C962.664 578.933 963.797 583.267 963.797 588.6V676H947.797V593.8C947.797 589.933 947.53 587.267 946.997 585.8C946.464 584.2 945.13 583.4 942.997 583.4C941.93 583.4 934.53 585.533 920.797 589.8V676H904.797V572ZM986.047 555V539H1002.05V555H986.047ZM986.047 676V572H1002.05V676H986.047ZM1048.09 676C1040.75 676 1034.89 673.8 1030.49 669.4C1026.22 665 1024.09 659.067 1024.09 651.6V598.4C1024.09 590 1026.29 583.533 1030.69 579C1035.09 574.333 1041.49 572 1049.89 572H1072.09V584H1050.29C1047.22 584 1044.75 585.067 1042.89 587.2C1041.02 589.2 1040.09 591.8 1040.09 595V653C1040.09 656.2 1041.02 658.867 1042.89 661C1044.89 663 1047.42 664 1050.49 664H1072.09V676H1048.09ZM1107.25 676C1102.45 676 1097.98 674.8 1093.85 672.4C1089.85 670 1086.65 666.733 1084.25 662.6C1081.98 658.467 1080.85 653.8 1080.85 648.6V638.2C1080.85 631.933 1082.38 626.667 1085.45 622.4C1088.65 618.133 1092.58 615.133 1097.25 613.4L1122.05 604.2V594.8C1122.05 591.6 1121.05 589 1119.05 587C1117.18 584.867 1114.71 583.8 1111.65 583.8H1089.05V572H1113.05C1120.38 572 1126.18 574.2 1130.45 578.6C1134.85 582.867 1137.05 588.733 1137.05 596.2V676H1107.25ZM1122.05 663.8V616.8L1104.45 623.4C1100.98 624.733 1098.51 626.533 1097.05 628.8C1095.71 631.067 1095.05 634.667 1095.05 639.6V650.8C1095.05 654.4 1096.38 657.467 1099.05 660C1101.71 662.533 1104.91 663.8 1108.65 663.8H1122.05ZM1191.29 682.4C1196.09 682.4 1199.76 683.267 1202.29 685C1204.83 686.733 1206.09 689.867 1206.09 694.4C1206.09 703.467 1200.89 708 1190.49 708H1169.09V698.6H1185.09C1188.16 698.6 1190.43 698.267 1191.89 697.6C1193.36 696.933 1194.09 695.8 1194.09 694.2C1194.09 692.467 1193.56 691.333 1192.49 690.8C1191.43 690.267 1189.69 690 1187.29 690H1176.89L1180.29 676H1181.09C1173.76 676 1167.89 673.8 1163.49 669.4C1159.23 665 1157.09 659.067 1157.09 651.6V598.4C1157.09 590 1159.29 583.533 1163.69 579C1168.09 574.333 1174.49 572 1182.89 572H1205.09V584H1183.29C1180.23 584 1177.76 585.067 1175.89 587.2C1174.03 589.2 1173.09 591.8 1173.09 595V653C1173.09 656.2 1174.03 658.867 1175.89 661C1177.89 663 1180.43 664 1183.49 664H1205.09V676H1192.69L1191.29 682.4ZM1214.45 562C1214.59 556 1215.72 551.467 1217.85 548.4C1219.99 545.2 1223.85 543.6 1229.45 543.6C1230.92 543.6 1235.25 544.667 1242.45 546.8C1249.52 549.067 1254.05 550.2 1256.05 550.2C1257.65 550.2 1258.72 549.733 1259.25 548.8C1259.79 547.733 1260.12 546.467 1260.25 545C1260.52 543.533 1260.72 542.4 1260.85 541.6H1273.45C1273.32 546.133 1272.99 549.8 1272.45 552.6C1271.92 555.267 1270.52 557.533 1268.25 559.4C1266.12 561.133 1262.85 562 1258.45 562C1256.45 562 1251.92 560.867 1244.85 558.6C1237.65 556.467 1233.32 555.4 1231.85 555.4C1230.12 555.4 1228.99 555.733 1228.45 556.4C1228.05 557.067 1227.72 558 1227.45 559.2C1227.32 560.4 1227.19 561.333 1227.05 562H1214.45ZM1240.25 676C1235.45 676 1230.99 674.8 1226.85 672.4C1222.85 670 1219.65 666.733 1217.25 662.6C1214.99 658.467 1213.85 653.8 1213.85 648.6V638.2C1213.85 631.933 1215.39 626.667 1218.45 622.4C1221.65 618.133 1225.59 615.133 1230.25 613.4L1255.05 604.2V594.8C1255.05 591.6 1254.05 589 1252.05 587C1250.19 584.867 1247.72 583.8 1244.65 583.8H1222.05V572H1246.05C1253.39 572 1259.19 574.2 1263.45 578.6C1267.85 582.867 1270.05 588.733 1270.05 596.2V676H1240.25ZM1255.05 663.8V616.8L1237.45 623.4C1233.99 624.733 1231.52 626.533 1230.05 628.8C1228.72 631.067 1228.05 634.667 1228.05 639.6V650.8C1228.05 654.4 1229.39 657.467 1232.05 660C1234.72 662.533 1237.92 663.8 1241.65 663.8H1255.05ZM1317.5 677.4C1308.17 677.4 1300.9 675.067 1295.7 670.4C1290.63 665.6 1288.1 659 1288.1 650.6V597.4C1288.1 589 1290.63 582.467 1295.7 577.8C1300.9 573 1308.17 570.6 1317.5 570.6C1326.83 570.6 1334.03 573 1339.1 577.8C1344.3 582.467 1346.9 589 1346.9 597.4V650.6C1346.9 659 1344.3 665.6 1339.1 670.4C1334.03 675.067 1326.83 677.4 1317.5 677.4ZM1317.5 665C1321.77 665 1325.1 663.8 1327.5 661.4C1330.03 658.867 1331.3 655.267 1331.3 650.6V597.4C1331.3 592.733 1330.03 589.2 1327.5 586.8C1325.1 584.267 1321.77 583 1317.5 583C1313.23 583 1309.83 584.267 1307.3 586.8C1304.9 589.2 1303.7 592.733 1303.7 597.4V650.6C1303.7 655.267 1304.9 658.867 1307.3 661.4C1309.83 663.8 1313.23 665 1317.5 665ZM1423.38 676C1414.98 676 1408.18 673.533 1402.98 668.6C1397.78 663.667 1395.18 657.067 1395.18 648.8V599C1395.18 593.267 1396.72 588.4 1399.78 584.4C1402.98 580.4 1406.92 577.667 1411.58 576.2L1438.38 566.8V536H1454.38V676H1423.38ZM1438.38 664V580L1420.58 586C1417.12 587.067 1414.65 588.8 1413.18 591.2C1411.85 593.467 1411.18 597.133 1411.18 602.2V648.8C1411.18 653.6 1412.58 657.333 1415.38 660C1418.18 662.667 1421.98 664 1426.78 664H1438.38ZM1478.43 555V539H1494.43V555H1478.43ZM1478.43 676V572H1494.43V676H1478.43ZM1526.87 696H1547.47C1550.54 696 1552.94 694.933 1554.67 692.8C1556.54 690.8 1557.47 688.2 1557.47 685V676.2H1540.87C1533.54 676.2 1527.34 673.8 1522.27 669C1517.2 664.2 1514.67 658.2 1514.67 651V597.2C1514.67 590 1517.2 584 1522.27 579.2C1527.47 574.4 1533.74 572 1541.07 572H1573.67V683.6C1573.67 691.067 1571.6 697 1567.47 701.4C1563.47 705.8 1557.8 708 1550.47 708H1526.87V696ZM1557.67 664.2V584H1544.27C1540.54 584 1537.34 585.267 1534.67 587.8C1532 590.333 1530.67 593.467 1530.67 597.2V651C1530.67 654.733 1532 657.867 1534.67 660.4C1537.34 662.933 1540.54 664.2 1544.27 664.2H1557.67ZM1595.62 555V539H1611.62V555H1595.62ZM1595.62 676V572H1611.62V676H1595.62ZM1664.66 676C1657.32 676 1651.52 673.8 1647.26 669.4C1642.99 665 1640.86 659.067 1640.86 651.6V584H1628.86V572H1640.86V541.8L1656.86 535.8V572H1672.86V584H1656.86V653C1656.86 656.2 1657.72 658.867 1659.46 661C1661.32 663 1663.79 664 1666.86 664H1672.86V676H1664.66ZM1709.98 676C1705.18 676 1700.71 674.8 1696.58 672.4C1692.58 670 1689.38 666.733 1686.98 662.6C1684.71 658.467 1683.58 653.8 1683.58 648.6V638.2C1683.58 631.933 1685.11 626.667 1688.18 622.4C1691.38 618.133 1695.31 615.133 1699.98 613.4L1724.78 604.2V594.8C1724.78 591.6 1723.78 589 1721.78 587C1719.91 584.867 1717.45 583.8 1714.38 583.8H1691.78V572H1715.78C1723.11 572 1728.91 574.2 1733.18 578.6C1737.58 582.867 1739.78 588.733 1739.78 596.2V676H1709.98ZM1724.78 663.8V616.8L1707.18 623.4C1703.71 624.733 1701.25 626.533 1699.78 628.8C1698.45 631.067 1697.78 634.667 1697.78 639.6V650.8C1697.78 654.4 1699.11 657.467 1701.78 660C1704.45 662.533 1707.65 663.8 1711.38 663.8H1724.78ZM1762.03 676V536H1778.03V676H1762.03Z" fill="#34D320"/>
<path d="M435.1 890V792H455.68L478.5 876.7V792H490.96V890H473.32L447.42 800.96V890H435.1ZM526.282 890.98C519.748 890.98 514.662 889.347 511.022 886.08C507.475 882.72 505.702 878.1 505.702 872.22V834.98C505.702 829.1 507.475 824.527 511.022 821.26C514.662 817.9 519.748 816.22 526.282 816.22C532.815 816.22 537.855 817.9 541.402 821.26C545.042 824.527 546.862 829.1 546.862 834.98V872.22C546.862 878.1 545.042 882.72 541.402 886.08C537.855 889.347 532.815 890.98 526.282 890.98ZM526.282 882.3C529.268 882.3 531.602 881.46 533.282 879.78C535.055 878.007 535.942 875.487 535.942 872.22V834.98C535.942 831.713 535.055 829.24 533.282 827.56C531.602 825.787 529.268 824.9 526.282 824.9C523.295 824.9 520.915 825.787 519.142 827.56C517.462 829.24 516.622 831.713 516.622 834.98V872.22C516.622 875.487 517.462 878.007 519.142 879.78C520.915 881.46 523.295 882.3 526.282 882.3ZM556.665 881.6H568.565C572.578 881.6 575.472 880.527 577.245 878.38C579.112 876.14 580.045 873.247 580.045 869.7C580.045 866.9 579.205 864.52 577.525 862.56C575.845 860.6 573.325 858.313 569.965 855.7C567.072 853.367 564.738 851.36 562.965 849.68C561.285 847.907 559.792 845.76 558.485 843.24C557.272 840.627 556.665 837.64 556.665 834.28C556.665 829.333 558.298 825.273 561.565 822.1C564.925 818.833 569.405 817.2 575.005 817.2H587.185V825.6H577.105C570.478 825.6 567.165 828.727 567.165 834.98C567.165 837.407 567.912 839.507 569.405 841.28C570.898 843.053 573.232 845.153 576.405 847.58C579.298 849.82 581.678 851.873 583.545 853.74C585.412 855.513 586.998 857.8 588.305 860.6C589.612 863.307 590.265 866.527 590.265 870.26C590.265 876.887 588.492 881.833 584.945 885.1C581.492 888.367 576.592 890 570.245 890H556.665V881.6ZM644.192 890C639.059 890 634.999 888.46 632.012 885.38C629.026 882.3 627.532 878.147 627.532 872.92V825.6H619.132V817.2H627.532V796.06L638.732 791.86V817.2H649.932V825.6H638.732V873.9C638.732 876.14 639.339 878.007 640.552 879.5C641.859 880.9 643.586 881.6 645.732 881.6H649.932V890H644.192ZM675.64 890C670.506 890 666.4 888.46 663.32 885.38C660.333 882.3 658.84 878.147 658.84 872.92V835.68C658.84 829.613 660.52 824.853 663.88 821.4C667.24 817.947 672.233 816.22 678.86 816.22C685.486 816.22 690.433 817.947 693.7 821.4C697.06 824.853 698.74 829.613 698.74 835.68V842.12C698.74 846.04 697.62 849.027 695.38 851.08C693.14 853.04 690.2 854.533 686.56 855.56L670.04 860.18V873.9C670.04 876.14 670.693 878.007 672 879.5C673.4 880.9 675.173 881.6 677.32 881.6H692.44V890H675.64ZM678.58 848.98C681.66 848.14 683.713 847.533 684.74 847.16C685.86 846.693 686.606 846.04 686.98 845.2C687.353 844.36 687.54 842.96 687.54 841V833.3C687.54 830.313 686.746 828.12 685.16 826.72C683.666 825.32 681.566 824.62 678.86 824.62C676.246 824.62 674.1 825.367 672.42 826.86C670.833 828.353 670.04 830.5 670.04 833.3V851.36L678.58 848.98ZM709.888 817.2H718.568L719.828 821.26L725.568 819.58C729.488 818.367 732.568 817.527 734.808 817.06C737.142 816.5 739.335 816.22 741.388 816.22C745.402 816.22 748.202 817.993 749.788 821.54C752.402 820.607 756.088 819.487 760.848 818.18C765.608 816.873 769.108 816.22 771.348 816.22C774.708 816.22 777.182 817.387 778.768 819.72C780.448 822.053 781.288 825.087 781.288 828.82V890H770.088V832.46C770.088 829.753 769.902 827.887 769.528 826.86C769.155 825.74 768.222 825.18 766.728 825.18C765.982 825.18 760.848 826.673 751.328 829.66V890H740.128V832.46C740.128 829.753 739.942 827.887 739.568 826.86C739.195 825.74 738.262 825.18 736.768 825.18C736.022 825.18 730.795 826.673 721.088 829.66V890H709.888V817.2ZM796.705 817.2H819.385C824.518 817.2 828.858 818.88 832.405 822.24C836.045 825.6 837.865 829.8 837.865 834.84V872.5C837.865 877.54 836.091 881.74 832.545 885.1C828.998 888.367 824.658 890 819.525 890H807.905V912.4H796.705V817.2ZM817.145 881.74C819.758 881.74 821.998 880.853 823.865 879.08C825.731 877.307 826.665 875.113 826.665 872.5V834.84C826.665 832.227 825.731 830.033 823.865 828.26C821.998 826.487 819.758 825.6 817.145 825.6H807.905V881.74H817.145ZM868.899 890.98C862.365 890.98 857.279 889.347 853.639 886.08C850.092 882.72 848.319 878.1 848.319 872.22V834.98C848.319 829.1 850.092 824.527 853.639 821.26C857.279 817.9 862.365 816.22 868.899 816.22C875.432 816.22 880.472 817.9 884.019 821.26C887.659 824.527 889.479 829.1 889.479 834.98V872.22C889.479 878.1 887.659 882.72 884.019 886.08C880.472 889.347 875.432 890.98 868.899 890.98ZM868.899 882.3C871.885 882.3 874.219 881.46 875.899 879.78C877.672 878.007 878.559 875.487 878.559 872.22V834.98C878.559 831.713 877.672 829.24 875.899 827.56C874.219 825.787 871.885 824.9 868.899 824.9C865.912 824.9 863.532 825.787 861.759 827.56C860.079 829.24 859.239 831.713 859.239 834.98V872.22C859.239 875.487 860.079 878.007 861.759 879.78C863.532 881.46 865.912 882.3 868.899 882.3ZM899.282 881.6H911.182C915.195 881.6 918.089 880.527 919.862 878.38C921.729 876.14 922.662 873.247 922.662 869.7C922.662 866.9 921.822 864.52 920.142 862.56C918.462 860.6 915.942 858.313 912.582 855.7C909.689 853.367 907.355 851.36 905.582 849.68C903.902 847.907 902.409 845.76 901.102 843.24C899.889 840.627 899.282 837.64 899.282 834.28C899.282 829.333 900.915 825.273 904.182 822.1C907.542 818.833 912.022 817.2 917.622 817.2H929.802V825.6H919.722C913.095 825.6 909.782 828.727 909.782 834.98C909.782 837.407 910.529 839.507 912.022 841.28C913.515 843.053 915.849 845.153 919.022 847.58C921.915 849.82 924.295 851.873 926.162 853.74C928.029 855.513 929.615 857.8 930.922 860.6C932.229 863.307 932.882 866.527 932.882 870.26C932.882 876.887 931.109 881.833 927.562 885.1C924.109 888.367 919.209 890 912.862 890H899.282V881.6ZM981.069 890C975.936 890 971.829 888.46 968.749 885.38C965.763 882.3 964.269 878.147 964.269 872.92V835.68C964.269 829.613 965.949 824.853 969.309 821.4C972.669 817.947 977.663 816.22 984.289 816.22C990.916 816.22 995.863 817.947 999.129 821.4C1002.49 824.853 1004.17 829.613 1004.17 835.68V842.12C1004.17 846.04 1003.05 849.027 1000.81 851.08C998.569 853.04 995.629 854.533 991.989 855.56L975.469 860.18V873.9C975.469 876.14 976.123 878.007 977.429 879.5C978.829 880.9 980.603 881.6 982.749 881.6H997.869V890H981.069ZM984.009 848.98C987.089 848.14 989.143 847.533 990.169 847.16C991.289 846.693 992.036 846.04 992.409 845.2C992.783 844.36 992.969 842.96 992.969 841V833.3C992.969 830.313 992.176 828.12 990.589 826.72C989.096 825.32 986.996 824.62 984.289 824.62C981.676 824.62 979.529 825.367 977.849 826.86C976.263 828.353 975.469 830.5 975.469 833.3V851.36L984.009 848.98ZM1015.32 817.2H1024L1025.26 821.26L1031 819.58C1034.92 818.367 1038 817.527 1040.24 817.06C1042.57 816.5 1044.76 816.22 1046.82 816.22C1050.83 816.22 1053.63 817.993 1055.22 821.54C1057.83 820.607 1061.52 819.487 1066.28 818.18C1071.04 816.873 1074.54 816.22 1076.78 816.22C1080.14 816.22 1082.61 817.387 1084.2 819.72C1085.88 822.053 1086.72 825.087 1086.72 828.82V890H1075.52V832.46C1075.52 829.753 1075.33 827.887 1074.96 826.86C1074.58 825.74 1073.65 825.18 1072.16 825.18C1071.41 825.18 1066.28 826.673 1056.76 829.66V890H1045.56V832.46C1045.56 829.753 1045.37 827.887 1045 826.86C1044.62 825.74 1043.69 825.18 1042.2 825.18C1041.45 825.18 1036.22 826.673 1026.52 829.66V890H1015.32V817.2ZM1150.49 890H1138.87C1133.74 890 1129.4 888.367 1125.85 885.1C1122.3 881.74 1120.53 877.54 1120.53 872.5V834.84C1120.53 829.8 1122.3 825.6 1125.85 822.24C1129.49 818.88 1133.88 817.2 1139.01 817.2H1161.83V912.4H1150.49V890ZM1150.63 881.6V825.6H1141.25C1138.64 825.6 1136.4 826.487 1134.53 828.26C1132.66 830.033 1131.73 832.227 1131.73 834.84V872.36C1131.73 874.973 1132.66 877.167 1134.53 878.94C1136.4 880.713 1138.64 881.6 1141.25 881.6H1150.63ZM1187.24 890.98C1183.88 890.98 1181.36 889.813 1179.68 887.48C1178.09 885.147 1177.3 882.113 1177.3 878.38V817.2H1188.5V874.74C1188.5 877.353 1188.68 879.22 1189.06 880.34C1189.43 881.46 1190.32 882.02 1191.72 882.02C1192.37 882.02 1197.64 880.62 1207.54 877.82V817.2H1218.74V890H1210.76L1208.66 885.24C1207.16 885.8 1206.04 886.173 1205.3 886.36C1200.91 887.947 1197.36 889.113 1194.66 889.86C1191.95 890.607 1189.48 890.98 1187.24 890.98ZM1250.13 890C1245 890 1240.89 888.46 1237.81 885.38C1234.83 882.3 1233.33 878.147 1233.33 872.92V835.68C1233.33 829.613 1235.01 824.853 1238.37 821.4C1241.73 817.947 1246.73 816.22 1253.35 816.22C1259.98 816.22 1264.93 817.947 1268.19 821.4C1271.55 824.853 1273.23 829.613 1273.23 835.68V842.12C1273.23 846.04 1272.11 849.027 1269.87 851.08C1267.63 853.04 1264.69 854.533 1261.05 855.56L1244.53 860.18V873.9C1244.53 876.14 1245.19 878.007 1246.49 879.5C1247.89 880.9 1249.67 881.6 1251.81 881.6H1266.93V890H1250.13ZM1253.07 848.98C1256.15 848.14 1258.21 847.533 1259.23 847.16C1260.35 846.693 1261.1 846.04 1261.47 845.2C1261.85 844.36 1262.03 842.96 1262.03 841V833.3C1262.03 830.313 1261.24 828.12 1259.65 826.72C1258.16 825.32 1256.06 824.62 1253.35 824.62C1250.74 824.62 1248.59 825.367 1246.91 826.86C1245.33 828.353 1244.53 830.5 1244.53 833.3V851.36L1253.07 848.98ZM1320.84 890C1315.7 890 1311.6 888.46 1308.52 885.38C1305.53 882.3 1304.04 878.147 1304.04 872.92V835.68C1304.04 829.8 1305.58 825.273 1308.66 822.1C1311.74 818.833 1316.22 817.2 1322.1 817.2H1337.64V825.6H1322.38C1320.23 825.6 1318.5 826.347 1317.2 827.84C1315.89 829.24 1315.24 831.06 1315.24 833.3V873.9C1315.24 876.14 1315.89 878.007 1317.2 879.5C1318.6 880.9 1320.37 881.6 1322.52 881.6H1337.64V890H1320.84ZM1365.19 890.98C1358.65 890.98 1353.57 889.347 1349.93 886.08C1346.38 882.72 1344.61 878.1 1344.61 872.22V834.98C1344.61 829.1 1346.38 824.527 1349.93 821.26C1353.57 817.9 1358.65 816.22 1365.19 816.22C1371.72 816.22 1376.76 817.9 1380.31 821.26C1383.95 824.527 1385.77 829.1 1385.77 834.98V872.22C1385.77 878.1 1383.95 882.72 1380.31 886.08C1376.76 889.347 1371.72 890.98 1365.19 890.98ZM1365.19 882.3C1368.17 882.3 1370.51 881.46 1372.19 879.78C1373.96 878.007 1374.85 875.487 1374.85 872.22V834.98C1374.85 831.713 1373.96 829.24 1372.19 827.56C1370.51 825.787 1368.17 824.9 1365.19 824.9C1362.2 824.9 1359.82 825.787 1358.05 827.56C1356.37 829.24 1355.53 831.713 1355.53 834.98V872.22C1355.53 875.487 1356.37 878.007 1358.05 879.78C1359.82 881.46 1362.2 882.3 1365.19 882.3ZM1399.77 817.2H1408.45L1409.71 821.26L1415.45 819.58C1419.37 818.367 1422.45 817.527 1424.69 817.06C1427.02 816.5 1429.22 816.22 1431.27 816.22C1435.28 816.22 1438.08 817.993 1439.67 821.54C1442.28 820.607 1445.97 819.487 1450.73 818.18C1455.49 816.873 1458.99 816.22 1461.23 816.22C1464.59 816.22 1467.06 817.387 1468.65 819.72C1470.33 822.053 1471.17 825.087 1471.17 828.82V890H1459.97V832.46C1459.97 829.753 1459.78 827.887 1459.41 826.86C1459.04 825.74 1458.1 825.18 1456.61 825.18C1455.86 825.18 1450.73 826.673 1441.21 829.66V890H1430.01V832.46C1430.01 829.753 1429.82 827.887 1429.45 826.86C1429.08 825.74 1428.14 825.18 1426.65 825.18C1425.9 825.18 1420.68 826.673 1410.97 829.66V890H1399.77V817.2ZM1486.59 817.2H1509.27C1514.4 817.2 1518.74 818.88 1522.29 822.24C1525.93 825.6 1527.75 829.8 1527.75 834.84V872.5C1527.75 877.54 1525.97 881.74 1522.43 885.1C1518.88 888.367 1514.54 890 1509.41 890H1497.79V912.4H1486.59V817.2ZM1507.03 881.74C1509.64 881.74 1511.88 880.853 1513.75 879.08C1515.61 877.307 1516.55 875.113 1516.55 872.5V834.84C1516.55 832.227 1515.61 830.033 1513.75 828.26C1511.88 826.487 1509.64 825.6 1507.03 825.6H1497.79V881.74H1507.03ZM1549.54 890.98C1546.18 890.98 1543.66 889.813 1541.98 887.48C1540.39 885.147 1539.6 882.113 1539.6 878.38V817.2H1550.8V874.74C1550.8 877.353 1550.99 879.22 1551.36 880.34C1551.73 881.46 1552.62 882.02 1554.02 882.02C1554.67 882.02 1559.95 880.62 1569.84 877.82V817.2H1581.04V890H1573.06L1570.96 885.24C1569.47 885.8 1568.35 886.173 1567.6 886.36C1563.21 887.947 1559.67 889.113 1556.96 889.86C1554.25 890.607 1551.78 890.98 1549.54 890.98ZM1618.18 890C1613.04 890 1608.98 888.46 1606 885.38C1603.01 882.3 1601.52 878.147 1601.52 872.92V825.6H1593.12V817.2H1601.52V796.06L1612.72 791.86V817.2H1623.92V825.6H1612.72V873.9C1612.72 876.14 1613.32 878.007 1614.54 879.5C1615.84 880.9 1617.57 881.6 1619.72 881.6H1623.92V890H1618.18ZM1649.9 890C1646.54 890 1643.42 889.16 1640.52 887.48C1637.72 885.8 1635.48 883.513 1633.8 880.62C1632.22 877.727 1631.42 874.46 1631.42 870.82V863.54C1631.42 859.153 1632.5 855.467 1634.64 852.48C1636.88 849.493 1639.64 847.393 1642.9 846.18L1660.26 839.74V833.16C1660.26 830.92 1659.56 829.1 1658.16 827.7C1656.86 826.207 1655.13 825.46 1652.98 825.46H1637.16V817.2H1653.96C1659.1 817.2 1663.16 818.74 1666.14 821.82C1669.22 824.807 1670.76 828.913 1670.76 834.14V890H1649.9ZM1660.26 881.46V848.56L1647.94 853.18C1645.52 854.113 1643.79 855.373 1642.76 856.96C1641.83 858.547 1641.36 861.067 1641.36 864.52V872.36C1641.36 874.88 1642.3 877.027 1644.16 878.8C1646.03 880.573 1648.27 881.46 1650.88 881.46H1660.26ZM1704.68 890C1698.8 890 1694.04 888.273 1690.4 884.82C1686.76 881.367 1684.94 876.747 1684.94 870.96V836.1C1684.94 832.087 1686.01 828.68 1688.16 825.88C1690.4 823.08 1693.15 821.167 1696.42 820.14L1715.18 813.56V792H1726.38V890H1704.68ZM1715.18 881.6V822.8L1702.72 827C1700.29 827.747 1698.56 828.96 1697.54 830.64C1696.6 832.227 1696.14 834.793 1696.14 838.34V870.96C1696.14 874.32 1697.12 876.933 1699.08 878.8C1701.04 880.667 1703.7 881.6 1707.06 881.6H1715.18ZM1760.99 890.98C1754.46 890.98 1749.37 889.347 1745.73 886.08C1742.18 882.72 1740.41 878.1 1740.41 872.22V834.98C1740.41 829.1 1742.18 824.527 1745.73 821.26C1749.37 817.9 1754.46 816.22 1760.99 816.22C1767.52 816.22 1772.56 817.9 1776.11 821.26C1779.75 824.527 1781.57 829.1 1781.57 834.98V872.22C1781.57 878.1 1779.75 882.72 1776.11 886.08C1772.56 889.347 1767.52 890.98 1760.99 890.98ZM1760.99 882.3C1763.98 882.3 1766.31 881.46 1767.99 879.78C1769.76 878.007 1770.65 875.487 1770.65 872.22V834.98C1770.65 831.713 1769.76 829.24 1767.99 827.56C1766.31 825.787 1763.98 824.9 1760.99 824.9C1758 824.9 1755.62 825.787 1753.85 827.56C1752.17 829.24 1751.33 831.713 1751.33 834.98V872.22C1751.33 875.487 1752.17 878.007 1753.85 879.78C1755.62 881.46 1758 882.3 1760.99 882.3ZM1795.57 817.2H1804.25L1805.51 822.38L1809.01 820.7C1812 819.207 1814.47 818.087 1816.43 817.34C1818.49 816.593 1820.54 816.22 1822.59 816.22V824.48C1821.38 824.48 1819.75 824.853 1817.69 825.6C1815.64 826.253 1812 827.84 1806.77 830.36V890H1795.57V817.2ZM1847.59 890C1842.46 890 1838.35 888.46 1835.27 885.38C1832.29 882.3 1830.79 878.147 1830.79 872.92V835.68C1830.79 829.613 1832.47 824.853 1835.83 821.4C1839.19 817.947 1844.19 816.22 1850.81 816.22C1857.44 816.22 1862.39 817.947 1865.65 821.4C1869.01 824.853 1870.69 829.613 1870.69 835.68V842.12C1870.69 846.04 1869.57 849.027 1867.33 851.08C1865.09 853.04 1862.15 854.533 1858.51 855.56L1841.99 860.18V873.9C1841.99 876.14 1842.65 878.007 1843.95 879.5C1845.35 880.9 1847.13 881.6 1849.27 881.6H1864.39V890H1847.59ZM1850.53 848.98C1853.61 848.14 1855.67 847.533 1856.69 847.16C1857.81 846.693 1858.56 846.04 1858.93 845.2C1859.31 844.36 1859.49 842.96 1859.49 841V833.3C1859.49 830.313 1858.7 828.12 1857.11 826.72C1855.62 825.32 1853.52 824.62 1850.81 824.62C1848.2 824.62 1846.05 825.367 1844.37 826.86C1842.79 828.353 1841.99 830.5 1841.99 833.3V851.36L1850.53 848.98ZM1877.64 881.6H1889.54C1893.55 881.6 1896.45 880.527 1898.22 878.38C1900.09 876.14 1901.02 873.247 1901.02 869.7C1901.02 866.9 1900.18 864.52 1898.5 862.56C1896.82 860.6 1894.3 858.313 1890.94 855.7C1888.05 853.367 1885.71 851.36 1883.94 849.68C1882.26 847.907 1880.77 845.76 1879.46 843.24C1878.25 840.627 1877.64 837.64 1877.64 834.28C1877.64 829.333 1879.27 825.273 1882.54 822.1C1885.9 818.833 1890.38 817.2 1895.98 817.2H1908.16V825.6H1898.08C1891.45 825.6 1888.14 828.727 1888.14 834.98C1888.14 837.407 1888.89 839.507 1890.38 841.28C1891.87 843.053 1894.21 845.153 1897.38 847.58C1900.27 849.82 1902.65 851.873 1904.52 853.74C1906.39 855.513 1907.97 857.8 1909.28 860.6C1910.59 863.307 1911.24 866.527 1911.24 870.26C1911.24 876.887 1909.47 881.833 1905.92 885.1C1902.47 888.367 1897.57 890 1891.22 890H1877.64V881.6ZM1959.71 890C1956.35 890 1953.22 889.16 1950.33 887.48C1947.53 885.8 1945.29 883.513 1943.61 880.62C1942.02 877.727 1941.23 874.46 1941.23 870.82V863.54C1941.23 859.153 1942.3 855.467 1944.45 852.48C1946.69 849.493 1949.44 847.393 1952.71 846.18L1970.07 839.74V833.16C1970.07 830.92 1969.37 829.1 1967.97 827.7C1966.66 826.207 1964.94 825.46 1962.79 825.46H1946.97V817.2H1963.77C1968.9 817.2 1972.96 818.74 1975.95 821.82C1979.03 824.807 1980.57 828.913 1980.57 834.14V890H1959.71ZM1970.07 881.46V848.56L1957.75 853.18C1955.32 854.113 1953.6 855.373 1952.57 856.96C1951.64 858.547 1951.17 861.067 1951.17 864.52V872.36C1951.17 874.88 1952.1 877.027 1953.97 878.8C1955.84 880.573 1958.08 881.46 1960.69 881.46H1970.07ZM1996 805.3V794.1H2007.2V805.3H1996ZM1996 890V817.2H2007.2V890H1996ZM2024.03 817.2H2032.71L2033.97 821.26L2039.71 819.58C2043.63 818.367 2046.71 817.527 2048.95 817.06C2051.28 816.5 2053.48 816.22 2055.53 816.22C2058.89 816.22 2061.36 817.387 2062.95 819.72C2064.54 822.053 2065.33 825.087 2065.33 828.82V890H2054.13V832.46C2054.13 829.753 2053.94 827.887 2053.57 826.86C2053.2 825.74 2052.26 825.18 2050.77 825.18C2050.02 825.18 2044.84 826.673 2035.23 829.66V890H2024.03V817.2ZM2099.38 890C2093.5 890 2088.74 888.273 2085.1 884.82C2081.46 881.367 2079.64 876.747 2079.64 870.96V836.1C2079.64 832.087 2080.72 828.68 2082.86 825.88C2085.1 823.08 2087.86 821.167 2091.12 820.14L2109.88 813.56V792H2121.08V890H2099.38ZM2109.88 881.6V822.8L2097.42 827C2095 827.747 2093.27 828.96 2092.24 830.64C2091.31 832.227 2090.84 834.793 2090.84 838.34V870.96C2090.84 874.32 2091.82 876.933 2093.78 878.8C2095.74 880.667 2098.4 881.6 2101.76 881.6H2109.88ZM2152.76 890C2149.4 890 2146.27 889.16 2143.38 887.48C2140.58 885.8 2138.34 883.513 2136.66 880.62C2135.07 877.727 2134.28 874.46 2134.28 870.82V863.54C2134.28 859.153 2135.35 855.467 2137.5 852.48C2139.74 849.493 2142.49 847.393 2145.76 846.18L2163.12 839.74V833.16C2163.12 830.92 2162.42 829.1 2161.02 827.7C2159.71 826.207 2157.98 825.46 2155.84 825.46H2140.02V817.2H2156.82C2161.95 817.2 2166.01 818.74 2169 821.82C2172.08 824.807 2173.62 828.913 2173.62 834.14V890H2152.76ZM2163.12 881.46V848.56L2150.8 853.18C2148.37 854.113 2146.64 855.373 2145.62 856.96C2144.68 858.547 2144.22 861.067 2144.22 864.52V872.36C2144.22 874.88 2145.15 877.027 2147.02 878.8C2148.88 880.573 2151.12 881.46 2153.74 881.46H2163.12ZM2210.1 817.2H2218.78L2220.04 821.26L2225.78 819.58C2229.7 818.367 2232.78 817.527 2235.02 817.06C2237.36 816.5 2239.55 816.22 2241.6 816.22C2244.96 816.22 2247.44 817.387 2249.02 819.72C2250.61 822.053 2251.4 825.087 2251.4 828.82V890H2240.2V832.46C2240.2 829.753 2240.02 827.887 2239.64 826.86C2239.27 825.74 2238.34 825.18 2236.84 825.18C2236.1 825.18 2230.92 826.673 2221.3 829.66V890H2210.1V817.2ZM2263.76 810.2C2263.85 806 2264.64 802.827 2266.14 800.68C2267.63 798.44 2270.34 797.32 2274.26 797.32C2275.28 797.32 2278.32 798.067 2283.36 799.56C2288.3 801.147 2291.48 801.94 2292.88 801.94C2294 801.94 2294.74 801.613 2295.12 800.96C2295.49 800.213 2295.72 799.327 2295.82 798.3C2296 797.273 2296.14 796.48 2296.24 795.92H2305.06C2304.96 799.093 2304.73 801.66 2304.36 803.62C2303.98 805.487 2303 807.073 2301.42 808.38C2299.92 809.593 2297.64 810.2 2294.56 810.2C2293.16 810.2 2289.98 809.407 2285.04 807.82C2280 806.327 2276.96 805.58 2275.94 805.58C2274.72 805.58 2273.93 805.813 2273.56 806.28C2273.28 806.747 2273.04 807.4 2272.86 808.24C2272.76 809.08 2272.67 809.733 2272.58 810.2H2263.76ZM2281.82 890C2278.46 890 2275.33 889.16 2272.44 887.48C2269.64 885.8 2267.4 883.513 2265.72 880.62C2264.13 877.727 2263.34 874.46 2263.34 870.82V863.54C2263.34 859.153 2264.41 855.467 2266.56 852.48C2268.8 849.493 2271.55 847.393 2274.82 846.18L2292.18 839.74V833.16C2292.18 830.92 2291.48 829.1 2290.08 827.7C2288.77 826.207 2287.04 825.46 2284.9 825.46H2269.08V817.2H2285.88C2291.01 817.2 2295.07 818.74 2298.06 821.82C2301.14 824.807 2302.68 828.913 2302.68 834.14V890H2281.82ZM2292.18 881.46V848.56L2279.86 853.18C2277.43 854.113 2275.7 855.373 2274.68 856.96C2273.74 858.547 2273.28 861.067 2273.28 864.52V872.36C2273.28 874.88 2274.21 877.027 2276.08 878.8C2277.94 880.573 2280.18 881.46 2282.8 881.46H2292.18ZM2335.89 890.98C2329.36 890.98 2324.27 889.347 2320.63 886.08C2317.08 882.72 2315.31 878.1 2315.31 872.22V834.98C2315.31 829.1 2317.08 824.527 2320.63 821.26C2324.27 817.9 2329.36 816.22 2335.89 816.22C2342.42 816.22 2347.46 817.9 2351.01 821.26C2354.65 824.527 2356.47 829.1 2356.47 834.98V872.22C2356.47 878.1 2354.65 882.72 2351.01 886.08C2347.46 889.347 2342.42 890.98 2335.89 890.98ZM2335.89 882.3C2338.88 882.3 2341.21 881.46 2342.89 879.78C2344.66 878.007 2345.55 875.487 2345.55 872.22V834.98C2345.55 831.713 2344.66 829.24 2342.89 827.56C2341.21 825.787 2338.88 824.9 2335.89 824.9C2332.9 824.9 2330.52 825.787 2328.75 827.56C2327.07 829.24 2326.23 831.713 2326.23 834.98V872.22C2326.23 875.487 2327.07 878.007 2328.75 879.78C2330.52 881.46 2332.9 882.3 2335.89 882.3ZM442.94 1070.98C439.58 1070.98 437.06 1069.81 435.38 1067.48C433.793 1065.15 433 1062.11 433 1058.38V997.2H444.2V1054.74C444.2 1057.35 444.387 1059.22 444.76 1060.34C445.133 1061.46 446.02 1062.02 447.42 1062.02C448.073 1062.02 453.347 1060.62 463.24 1057.82V997.2H474.44V1070H466.46L464.36 1065.24C462.867 1065.8 461.747 1066.17 461 1066.36C456.613 1067.95 453.067 1069.11 450.36 1069.86C447.653 1070.61 445.18 1070.98 442.94 1070.98ZM511.575 1070C506.442 1070 502.382 1068.46 499.395 1065.38C496.408 1062.3 494.915 1058.15 494.915 1052.92V1005.6H486.515V997.2H494.915V976.06L506.115 971.86V997.2H517.315V1005.6H506.115V1053.9C506.115 1056.14 506.722 1058.01 507.935 1059.5C509.242 1060.9 510.968 1061.6 513.115 1061.6H517.315V1070H511.575ZM528.463 985.3V974.1H539.663V985.3H528.463ZM528.463 1070V997.2H539.663V1070H528.463ZM556.63 1070V972H567.83V1070H556.63ZM584.517 985.3V974.1H595.717V985.3H584.517ZM584.517 1070V997.2H595.717V1070H584.517ZM608.345 1070V1061.6L633.125 1005.6H608.905V997.2H645.025V1005.46L619.265 1061.6H644.885V1070H608.345ZM670.998 1070C667.638 1070 664.511 1069.16 661.618 1067.48C658.818 1065.8 656.578 1063.51 654.898 1060.62C653.311 1057.73 652.518 1054.46 652.518 1050.82V1043.54C652.518 1039.15 653.591 1035.47 655.738 1032.48C657.978 1029.49 660.731 1027.39 663.998 1026.18L681.358 1019.74V1013.16C681.358 1010.92 680.658 1009.1 679.258 1007.7C677.951 1006.21 676.224 1005.46 674.078 1005.46H658.258V997.2H675.058C680.191 997.2 684.251 998.74 687.238 1001.82C690.318 1004.81 691.858 1008.91 691.858 1014.14V1070H670.998ZM681.358 1061.46V1028.56L669.038 1033.18C666.611 1034.11 664.884 1035.37 663.858 1036.96C662.924 1038.55 662.458 1041.07 662.458 1044.52V1052.36C662.458 1054.88 663.391 1057.03 665.258 1058.8C667.124 1060.57 669.364 1061.46 671.978 1061.46H681.358ZM717.651 1070L700.991 997.2H712.611L723.391 1055.86L734.031 997.2H745.651L728.991 1070H717.651ZM770.939 1070C767.579 1070 764.453 1069.16 761.559 1067.48C758.759 1065.8 756.519 1063.51 754.839 1060.62C753.253 1057.73 752.459 1054.46 752.459 1050.82V1043.54C752.459 1039.15 753.533 1035.47 755.679 1032.48C757.919 1029.49 760.673 1027.39 763.939 1026.18L781.299 1019.74V1013.16C781.299 1010.92 780.599 1009.1 779.199 1007.7C777.893 1006.21 776.166 1005.46 774.019 1005.46H758.199V997.2H774.999C780.133 997.2 784.193 998.74 787.179 1001.82C790.259 1004.81 791.799 1008.91 791.799 1014.14V1070H770.939ZM781.299 1061.46V1028.56L768.979 1033.18C766.553 1034.11 764.826 1035.37 763.799 1036.96C762.866 1038.55 762.399 1041.07 762.399 1044.52V1052.36C762.399 1054.88 763.333 1057.03 765.199 1058.8C767.066 1060.57 769.306 1061.46 771.919 1061.46H781.299ZM807.232 997.2H815.912L817.172 1001.26L822.912 999.58C826.832 998.367 829.912 997.527 832.152 997.06C834.485 996.5 836.679 996.22 838.732 996.22C842.745 996.22 845.545 997.993 847.132 1001.54C849.745 1000.61 853.432 999.487 858.192 998.18C862.952 996.873 866.452 996.22 868.692 996.22C872.052 996.22 874.525 997.387 876.112 999.72C877.792 1002.05 878.632 1005.09 878.632 1008.82V1070H867.432V1012.46C867.432 1009.75 867.245 1007.89 866.872 1006.86C866.499 1005.74 865.565 1005.18 864.072 1005.18C863.325 1005.18 858.192 1006.67 848.672 1009.66V1070H837.472V1012.46C837.472 1009.75 837.285 1007.89 836.912 1006.86C836.539 1005.74 835.605 1005.18 834.112 1005.18C833.365 1005.18 828.139 1006.67 818.432 1009.66V1070H807.232V997.2ZM915.103 985.3V974.1H926.303V985.3H915.103ZM915.103 1070V997.2H926.303V1070H915.103ZM943.13 997.2H951.81L953.07 1001.26L958.81 999.58C962.73 998.367 965.81 997.527 968.05 997.06C970.384 996.5 972.577 996.22 974.63 996.22C977.99 996.22 980.464 997.387 982.05 999.72C983.637 1002.05 984.43 1005.09 984.43 1008.82V1070H973.23V1012.46C973.23 1009.75 973.044 1007.89 972.67 1006.86C972.297 1005.74 971.364 1005.18 969.87 1005.18C969.124 1005.18 963.944 1006.67 954.33 1009.66V1070H943.13V997.2ZM1020.31 1070C1015.17 1070 1011.11 1068.46 1008.13 1065.38C1005.14 1062.3 1003.65 1058.15 1003.65 1052.92V1005.6H995.245V997.2H1003.65V976.06L1014.85 971.86V997.2H1026.05V1005.6H1014.85V1053.9C1014.85 1056.14 1015.45 1058.01 1016.67 1059.5C1017.97 1060.9 1019.7 1061.6 1021.85 1061.6H1026.05V1070H1020.31ZM1051.75 1070C1046.62 1070 1042.51 1068.46 1039.43 1065.38C1036.45 1062.3 1034.95 1058.15 1034.95 1052.92V1015.68C1034.95 1009.61 1036.63 1004.85 1039.99 1001.4C1043.35 997.947 1048.35 996.22 1054.97 996.22C1061.6 996.22 1066.55 997.947 1069.81 1001.4C1073.17 1004.85 1074.85 1009.61 1074.85 1015.68V1022.12C1074.85 1026.04 1073.73 1029.03 1071.49 1031.08C1069.25 1033.04 1066.31 1034.53 1062.67 1035.56L1046.15 1040.18V1053.9C1046.15 1056.14 1046.81 1058.01 1048.11 1059.5C1049.51 1060.9 1051.29 1061.6 1053.43 1061.6H1068.55V1070H1051.75ZM1054.69 1028.98C1057.77 1028.14 1059.83 1027.53 1060.85 1027.16C1061.97 1026.69 1062.72 1026.04 1063.09 1025.2C1063.47 1024.36 1063.65 1022.96 1063.65 1021V1013.3C1063.65 1010.31 1062.86 1008.12 1061.27 1006.72C1059.78 1005.32 1057.68 1004.62 1054.97 1004.62C1052.36 1004.62 1050.21 1005.37 1048.53 1006.86C1046.95 1008.35 1046.15 1010.5 1046.15 1013.3V1031.36L1054.69 1028.98ZM1086 997.2H1094.68L1095.94 1002.38L1099.44 1000.7C1102.43 999.207 1104.9 998.087 1106.86 997.34C1108.91 996.593 1110.97 996.22 1113.02 996.22V1004.48C1111.81 1004.48 1110.17 1004.85 1108.12 1005.6C1106.07 1006.25 1102.43 1007.84 1097.2 1010.36V1070H1086V997.2ZM1126.96 1006.44H1118.56V997.2H1126.96V989.08C1126.96 983.853 1128.46 979.7 1131.44 976.62C1134.43 973.54 1138.49 972 1143.62 972H1149.78V980.4H1145.58C1143.44 980.4 1141.66 981.147 1140.26 982.64C1138.86 984.133 1138.16 985.953 1138.16 988.1V997.2H1149.5V1006.44H1138.16V1070H1126.96V1006.44ZM1173.44 1070C1170.08 1070 1166.95 1069.16 1164.06 1067.48C1161.26 1065.8 1159.02 1063.51 1157.34 1060.62C1155.75 1057.73 1154.96 1054.46 1154.96 1050.82V1043.54C1154.96 1039.15 1156.03 1035.47 1158.18 1032.48C1160.42 1029.49 1163.17 1027.39 1166.44 1026.18L1183.8 1019.74V1013.16C1183.8 1010.92 1183.1 1009.1 1181.7 1007.7C1180.39 1006.21 1178.67 1005.46 1176.52 1005.46H1160.7V997.2H1177.5C1182.63 997.2 1186.69 998.74 1189.68 1001.82C1192.76 1004.81 1194.3 1008.91 1194.3 1014.14V1070H1173.44ZM1183.8 1061.46V1028.56L1171.48 1033.18C1169.05 1034.11 1167.33 1035.37 1166.3 1036.96C1165.37 1038.55 1164.9 1041.07 1164.9 1044.52V1052.36C1164.9 1054.88 1165.83 1057.03 1167.7 1058.8C1169.57 1060.57 1171.81 1061.46 1174.42 1061.46H1183.8ZM1225.13 1070C1220 1070 1215.89 1068.46 1212.81 1065.38C1209.83 1062.3 1208.33 1058.15 1208.33 1052.92V1015.68C1208.33 1009.8 1209.87 1005.27 1212.95 1002.1C1216.03 998.833 1220.51 997.2 1226.39 997.2H1241.93V1005.6H1226.67C1224.53 1005.6 1222.8 1006.35 1221.49 1007.84C1220.19 1009.24 1219.53 1011.06 1219.53 1013.3V1053.9C1219.53 1056.14 1220.19 1058.01 1221.49 1059.5C1222.89 1060.9 1224.67 1061.6 1226.81 1061.6H1241.93V1070H1225.13ZM1266.26 1070C1261.13 1070 1257.02 1068.46 1253.94 1065.38C1250.96 1062.3 1249.46 1058.15 1249.46 1052.92V1015.68C1249.46 1009.61 1251.14 1004.85 1254.5 1001.4C1257.86 997.947 1262.86 996.22 1269.48 996.22C1276.11 996.22 1281.06 997.947 1284.32 1001.4C1287.68 1004.85 1289.36 1009.61 1289.36 1015.68V1022.12C1289.36 1026.04 1288.24 1029.03 1286 1031.08C1283.76 1033.04 1280.82 1034.53 1277.18 1035.56L1260.66 1040.18V1053.9C1260.66 1056.14 1261.32 1058.01 1262.62 1059.5C1264.02 1060.9 1265.8 1061.6 1267.94 1061.6H1283.06V1070H1266.26ZM1269.2 1028.98C1272.28 1028.14 1274.34 1027.53 1275.36 1027.16C1276.48 1026.69 1277.23 1026.04 1277.6 1025.2C1277.98 1024.36 1278.16 1022.96 1278.16 1021V1013.3C1278.16 1010.31 1277.37 1008.12 1275.78 1006.72C1274.29 1005.32 1272.19 1004.62 1269.48 1004.62C1266.87 1004.62 1264.72 1005.37 1263.04 1006.86C1261.46 1008.35 1260.66 1010.5 1260.66 1013.3V1031.36L1269.2 1028.98ZM1296.31 1061.6H1308.21C1312.23 1061.6 1315.12 1060.53 1316.89 1058.38C1318.76 1056.14 1319.69 1053.25 1319.69 1049.7C1319.69 1046.9 1318.85 1044.52 1317.17 1042.56C1315.49 1040.6 1312.97 1038.31 1309.61 1035.7C1306.72 1033.37 1304.39 1031.36 1302.61 1029.68C1300.93 1027.91 1299.44 1025.76 1298.13 1023.24C1296.92 1020.63 1296.31 1017.64 1296.31 1014.28C1296.31 1009.33 1297.95 1005.27 1301.21 1002.1C1304.57 998.833 1309.05 997.2 1314.65 997.2H1326.83V1005.6H1316.75C1310.13 1005.6 1306.81 1008.73 1306.81 1014.98C1306.81 1017.41 1307.56 1019.51 1309.05 1021.28C1310.55 1023.05 1312.88 1025.15 1316.05 1027.58C1318.95 1029.82 1321.33 1031.87 1323.19 1033.74C1325.06 1035.51 1326.65 1037.8 1327.95 1040.6C1329.26 1043.31 1329.91 1046.53 1329.91 1050.26C1329.91 1056.89 1328.14 1061.83 1324.59 1065.1C1321.14 1068.37 1316.24 1070 1309.89 1070H1296.31V1061.6ZM1369.42 1084H1383.84C1385.99 1084 1387.67 1083.25 1388.88 1081.76C1390.19 1080.36 1390.84 1078.54 1390.84 1076.3V1070.14H1379.22C1374.09 1070.14 1369.75 1068.46 1366.2 1065.1C1362.65 1061.74 1360.88 1057.54 1360.88 1052.5V1014.84C1360.88 1009.8 1362.65 1005.6 1366.2 1002.24C1369.84 998.88 1374.23 997.2 1379.36 997.2H1402.18V1075.32C1402.18 1080.55 1400.73 1084.7 1397.84 1087.78C1395.04 1090.86 1391.07 1092.4 1385.94 1092.4H1369.42V1084ZM1390.98 1061.74V1005.6H1381.6C1378.99 1005.6 1376.75 1006.49 1374.88 1008.26C1373.01 1010.03 1372.08 1012.23 1372.08 1014.84V1052.5C1372.08 1055.11 1373.01 1057.31 1374.88 1059.08C1376.75 1060.85 1378.99 1061.74 1381.6 1061.74H1390.98ZM1417.54 997.2H1426.22L1427.48 1002.38L1430.98 1000.7C1433.97 999.207 1436.44 998.087 1438.4 997.34C1440.46 996.593 1442.51 996.22 1444.56 996.22V1004.48C1443.35 1004.48 1441.72 1004.85 1439.66 1005.6C1437.61 1006.25 1433.97 1007.84 1428.74 1010.36V1070H1417.54V997.2ZM1469.85 1070C1466.49 1070 1463.36 1069.16 1460.47 1067.48C1457.67 1065.8 1455.43 1063.51 1453.75 1060.62C1452.16 1057.73 1451.37 1054.46 1451.37 1050.82V1043.54C1451.37 1039.15 1452.44 1035.47 1454.59 1032.48C1456.83 1029.49 1459.58 1027.39 1462.85 1026.18L1480.21 1019.74V1013.16C1480.21 1010.92 1479.51 1009.1 1478.11 1007.7C1476.8 1006.21 1475.07 1005.46 1472.93 1005.46H1457.11V997.2H1473.91C1479.04 997.2 1483.1 998.74 1486.09 1001.82C1489.17 1004.81 1490.71 1008.91 1490.71 1014.14V1070H1469.85ZM1480.21 1061.46V1028.56L1467.89 1033.18C1465.46 1034.11 1463.73 1035.37 1462.71 1036.96C1461.77 1038.55 1461.31 1041.07 1461.31 1044.52V1052.36C1461.31 1054.88 1462.24 1057.03 1464.11 1058.8C1465.97 1060.57 1468.21 1061.46 1470.83 1061.46H1480.21ZM1468.45 991.74L1463.83 987.54L1480.07 973.68L1487.21 980.26L1468.45 991.74ZM1509.64 1006.44H1501.24V997.2H1509.64V989.08C1509.64 983.853 1511.13 979.7 1514.12 976.62C1517.1 973.54 1521.16 972 1526.3 972H1532.46V980.4H1528.26C1526.11 980.4 1524.34 981.147 1522.94 982.64C1521.54 984.133 1520.84 985.953 1520.84 988.1V997.2H1532.18V1006.44H1520.84V1070H1509.64V1006.44ZM1541.28 985.3V974.1H1552.48V985.3H1541.28ZM1541.28 1070V997.2H1552.48V1070H1541.28ZM1584.7 1070C1579.57 1070 1575.46 1068.46 1572.38 1065.38C1569.4 1062.3 1567.9 1058.15 1567.9 1052.92V1015.68C1567.9 1009.8 1569.44 1005.27 1572.52 1002.1C1575.6 998.833 1580.08 997.2 1585.96 997.2H1601.5V1005.6H1586.24C1584.1 1005.6 1582.37 1006.35 1581.06 1007.84C1579.76 1009.24 1579.1 1011.06 1579.1 1013.3V1053.9C1579.1 1056.14 1579.76 1058.01 1581.06 1059.5C1582.46 1060.9 1584.24 1061.6 1586.38 1061.6H1601.5V1070H1584.7ZM1626.12 1070C1622.76 1070 1619.63 1069.16 1616.74 1067.48C1613.94 1065.8 1611.7 1063.51 1610.02 1060.62C1608.43 1057.73 1607.64 1054.46 1607.64 1050.82V1043.54C1607.64 1039.15 1608.71 1035.47 1610.86 1032.48C1613.1 1029.49 1615.85 1027.39 1619.12 1026.18L1636.48 1019.74V1013.16C1636.48 1010.92 1635.78 1009.1 1634.38 1007.7C1633.07 1006.21 1631.34 1005.46 1629.2 1005.46H1613.38V997.2H1630.18C1635.31 997.2 1639.37 998.74 1642.36 1001.82C1645.44 1004.81 1646.98 1008.91 1646.98 1014.14V1070H1626.12ZM1636.48 1061.46V1028.56L1624.16 1033.18C1621.73 1034.11 1620 1035.37 1618.98 1036.96C1618.04 1038.55 1617.58 1041.07 1617.58 1044.52V1052.36C1617.58 1054.88 1618.51 1057.03 1620.38 1058.8C1622.24 1060.57 1624.48 1061.46 1627.1 1061.46H1636.48ZM1658.21 1061.6H1670.11C1674.12 1061.6 1677.01 1060.53 1678.79 1058.38C1680.65 1056.14 1681.59 1053.25 1681.59 1049.7C1681.59 1046.9 1680.75 1044.52 1679.07 1042.56C1677.39 1040.6 1674.87 1038.31 1671.51 1035.7C1668.61 1033.37 1666.28 1031.36 1664.51 1029.68C1662.83 1027.91 1661.33 1025.76 1660.03 1023.24C1658.81 1020.63 1658.21 1017.64 1658.21 1014.28C1658.21 1009.33 1659.84 1005.27 1663.11 1002.1C1666.47 998.833 1670.95 997.2 1676.55 997.2H1688.73V1005.6H1678.65C1672.02 1005.6 1668.71 1008.73 1668.71 1014.98C1668.71 1017.41 1669.45 1019.51 1670.95 1021.28C1672.44 1023.05 1674.77 1025.15 1677.95 1027.58C1680.84 1029.82 1683.22 1031.87 1685.09 1033.74C1686.95 1035.51 1688.54 1037.8 1689.85 1040.6C1691.15 1043.31 1691.81 1046.53 1691.81 1050.26C1691.81 1056.89 1690.03 1061.83 1686.49 1065.1C1683.03 1068.37 1678.13 1070 1671.79 1070H1658.21V1061.6ZM1740.84 1070C1735.7 1070 1731.6 1068.46 1728.52 1065.38C1725.53 1062.3 1724.04 1058.15 1724.04 1052.92V1015.68C1724.04 1009.8 1725.58 1005.27 1728.66 1002.1C1731.74 998.833 1736.22 997.2 1742.1 997.2H1757.64V1005.6H1742.38C1740.23 1005.6 1738.5 1006.35 1737.2 1007.84C1735.89 1009.24 1735.24 1011.06 1735.24 1013.3V1053.9C1735.24 1056.14 1735.89 1058.01 1737.2 1059.5C1738.6 1060.9 1740.37 1061.6 1742.52 1061.6H1757.64V1070H1740.84ZM1785.19 1070.98C1778.65 1070.98 1773.57 1069.35 1769.93 1066.08C1766.38 1062.72 1764.61 1058.1 1764.61 1052.22V1014.98C1764.61 1009.1 1766.38 1004.53 1769.93 1001.26C1773.57 997.9 1778.65 996.22 1785.19 996.22C1791.72 996.22 1796.76 997.9 1800.31 1001.26C1803.95 1004.53 1805.77 1009.1 1805.77 1014.98V1052.22C1805.77 1058.1 1803.95 1062.72 1800.31 1066.08C1796.76 1069.35 1791.72 1070.98 1785.19 1070.98ZM1785.19 1062.3C1788.17 1062.3 1790.51 1061.46 1792.19 1059.78C1793.96 1058.01 1794.85 1055.49 1794.85 1052.22V1014.98C1794.85 1011.71 1793.96 1009.24 1792.19 1007.56C1790.51 1005.79 1788.17 1004.9 1785.19 1004.9C1782.2 1004.9 1779.82 1005.79 1778.05 1007.56C1776.37 1009.24 1775.53 1011.71 1775.53 1014.98V1052.22C1775.53 1055.49 1776.37 1058.01 1778.05 1059.78C1779.82 1061.46 1782.2 1062.3 1785.19 1062.3ZM1819.77 997.2H1828.45L1829.71 1001.26L1835.45 999.58C1839.37 998.367 1842.45 997.527 1844.69 997.06C1847.02 996.5 1849.22 996.22 1851.27 996.22C1855.28 996.22 1858.08 997.993 1859.67 1001.54C1862.28 1000.61 1865.97 999.487 1870.73 998.18C1875.49 996.873 1878.99 996.22 1881.23 996.22C1884.59 996.22 1887.06 997.387 1888.65 999.72C1890.33 1002.05 1891.17 1005.09 1891.17 1008.82V1070H1879.97V1012.46C1879.97 1009.75 1879.78 1007.89 1879.41 1006.86C1879.04 1005.74 1878.1 1005.18 1876.61 1005.18C1875.86 1005.18 1870.73 1006.67 1861.21 1009.66V1070H1850.01V1012.46C1850.01 1009.75 1849.82 1007.89 1849.45 1006.86C1849.08 1005.74 1848.14 1005.18 1846.65 1005.18C1845.9 1005.18 1840.68 1006.67 1830.97 1009.66V1070H1819.77V997.2ZM1945.42 1070.98C1938.89 1070.98 1933.8 1069.35 1930.16 1066.08C1926.62 1062.72 1924.84 1058.1 1924.84 1052.22V1014.98C1924.84 1009.1 1926.62 1004.53 1930.16 1001.26C1933.8 997.9 1938.89 996.22 1945.42 996.22C1951.96 996.22 1957 997.9 1960.54 1001.26C1964.18 1004.53 1966 1009.1 1966 1014.98V1052.22C1966 1058.1 1964.18 1062.72 1960.54 1066.08C1957 1069.35 1951.96 1070.98 1945.42 1070.98ZM1945.42 1062.3C1948.41 1062.3 1950.74 1061.46 1952.42 1059.78C1954.2 1058.01 1955.08 1055.49 1955.08 1052.22V1014.98C1955.08 1011.71 1954.2 1009.24 1952.42 1007.56C1950.74 1005.79 1948.41 1004.9 1945.42 1004.9C1942.44 1004.9 1940.06 1005.79 1938.28 1007.56C1936.6 1009.24 1935.76 1011.71 1935.76 1014.98V1052.22C1935.76 1055.49 1936.6 1058.01 1938.28 1059.78C1940.06 1061.46 1942.44 1062.3 1945.42 1062.3ZM2009.6 1070.98C2006.24 1070.98 2003.72 1069.81 2002.04 1067.48C2000.45 1065.15 1999.66 1062.11 1999.66 1058.38V997.2H2010.86V1054.74C2010.86 1057.35 2011.05 1059.22 2011.42 1060.34C2011.79 1061.46 2012.68 1062.02 2014.08 1062.02C2014.73 1062.02 2020.01 1060.62 2029.9 1057.82V997.2H2041.1V1070H2033.12L2031.02 1065.24C2029.53 1065.8 2028.41 1066.17 2027.66 1066.36C2023.27 1067.95 2019.73 1069.11 2017.02 1069.86C2014.31 1070.61 2011.84 1070.98 2009.6 1070.98ZM2053.74 1061.6H2065.64C2069.65 1061.6 2072.54 1060.53 2074.32 1058.38C2076.18 1056.14 2077.12 1053.25 2077.12 1049.7C2077.12 1046.9 2076.28 1044.52 2074.6 1042.56C2072.92 1040.6 2070.4 1038.31 2067.04 1035.7C2064.14 1033.37 2061.81 1031.36 2060.04 1029.68C2058.36 1027.91 2056.86 1025.76 2055.56 1023.24C2054.34 1020.63 2053.74 1017.64 2053.74 1014.28C2053.74 1009.33 2055.37 1005.27 2058.64 1002.1C2062 998.833 2066.48 997.2 2072.08 997.2H2084.26V1005.6H2074.18C2067.55 1005.6 2064.24 1008.73 2064.24 1014.98C2064.24 1017.41 2064.98 1019.51 2066.48 1021.28C2067.97 1023.05 2070.3 1025.15 2073.48 1027.58C2076.37 1029.82 2078.75 1031.87 2080.62 1033.74C2082.48 1035.51 2084.07 1037.8 2085.38 1040.6C2086.68 1043.31 2087.34 1046.53 2087.34 1050.26C2087.34 1056.89 2085.56 1061.83 2082.02 1065.1C2078.56 1068.37 2073.66 1070 2067.32 1070H2053.74V1061.6ZM2108.45 1070.98C2105.09 1070.98 2102.57 1069.81 2100.89 1067.48C2099.3 1065.15 2098.51 1062.11 2098.51 1058.38V997.2H2109.71V1054.74C2109.71 1057.35 2109.89 1059.22 2110.27 1060.34C2110.64 1061.46 2111.53 1062.02 2112.93 1062.02C2113.58 1062.02 2118.85 1060.62 2128.75 1057.82V997.2H2139.95V1070H2131.97L2129.87 1065.24C2128.37 1065.8 2127.25 1066.17 2126.51 1066.36C2122.12 1067.95 2118.57 1069.11 2115.87 1069.86C2113.16 1070.61 2110.69 1070.98 2108.45 1070.98ZM2171.62 1070C2168.26 1070 2165.14 1069.16 2162.24 1067.48C2159.44 1065.8 2157.2 1063.51 2155.52 1060.62C2153.94 1057.73 2153.14 1054.46 2153.14 1050.82V1043.54C2153.14 1039.15 2154.22 1035.47 2156.36 1032.48C2158.6 1029.49 2161.36 1027.39 2164.62 1026.18L2181.98 1019.74V1013.16C2181.98 1010.92 2181.28 1009.1 2179.88 1007.7C2178.58 1006.21 2176.85 1005.46 2174.7 1005.46H2158.88V997.2H2175.68C2180.82 997.2 2184.88 998.74 2187.86 1001.82C2190.94 1004.81 2192.48 1008.91 2192.48 1014.14V1070H2171.62ZM2181.98 1061.46V1028.56L2169.66 1033.18C2167.24 1034.11 2165.51 1035.37 2164.48 1036.96C2163.55 1038.55 2163.08 1041.07 2163.08 1044.52V1052.36C2163.08 1054.88 2164.02 1057.03 2165.88 1058.8C2167.75 1060.57 2169.99 1061.46 2172.6 1061.46H2181.98ZM2170.22 991.74L2165.6 987.54L2181.84 973.68L2188.98 980.26L2170.22 991.74ZM2207.92 997.2H2216.6L2217.86 1002.38L2221.36 1000.7C2224.34 999.207 2226.82 998.087 2228.78 997.34C2230.83 996.593 2232.88 996.22 2234.94 996.22V1004.48C2233.72 1004.48 2232.09 1004.85 2230.04 1005.6C2227.98 1006.25 2224.34 1007.84 2219.12 1010.36V1070H2207.92V997.2ZM2245.38 985.3V974.1H2256.58V985.3H2245.38ZM2245.38 1070V997.2H2256.58V1070H2245.38ZM2291.18 1070.98C2284.65 1070.98 2279.56 1069.35 2275.92 1066.08C2272.38 1062.72 2270.6 1058.1 2270.6 1052.22V1014.98C2270.6 1009.1 2272.38 1004.53 2275.92 1001.26C2279.56 997.9 2284.65 996.22 2291.18 996.22C2297.72 996.22 2302.76 997.9 2306.3 1001.26C2309.94 1004.53 2311.76 1009.1 2311.76 1014.98V1052.22C2311.76 1058.1 2309.94 1062.72 2306.3 1066.08C2302.76 1069.35 2297.72 1070.98 2291.18 1070.98ZM2291.18 1062.3C2294.17 1062.3 2296.5 1061.46 2298.18 1059.78C2299.96 1058.01 2300.84 1055.49 2300.84 1052.22V1014.98C2300.84 1011.71 2299.96 1009.24 2298.18 1007.56C2296.5 1005.79 2294.17 1004.9 2291.18 1004.9C2288.2 1004.9 2285.82 1005.79 2284.04 1007.56C2282.36 1009.24 2281.52 1011.71 2281.52 1014.98V1052.22C2281.52 1055.49 2282.36 1058.01 2284.04 1059.78C2285.82 1061.46 2288.2 1062.3 2291.18 1062.3Z" fill="#34D320"/>
</svg>
