<svg width="3745" height="1780" viewBox="0 0 3745 1780" fill="none" xmlns="http://www.w3.org/2000/svg">
<path d="M472.8 677.4C460.4 677.4 450.933 674.267 444.4 668C437.867 661.6 434.6 652.733 434.6 641.4V570.6C434.6 559.267 437.867 550.467 444.4 544.2C450.933 537.8 460.4 534.6 472.8 534.6C485.333 534.6 494.867 537.8 501.4 544.2C507.933 550.467 511.2 559.267 511.2 570.6V641.4C511.2 652.733 507.933 661.6 501.4 668C494.867 674.267 485.333 677.4 472.8 677.4ZM472.8 664.2C478.667 664.2 483.6 662.533 487.6 659.2C491.6 655.733 493.6 650.933 493.6 644.8V567.2C493.6 561.067 491.6 556.333 487.6 553C483.6 549.533 478.667 547.8 472.8 547.8C466.933 547.8 462 549.533 458 553C454.133 556.333 452.2 561.067 452.2 567.2V644.8C452.2 650.933 454.133 655.733 458 659.2C462 662.533 466.933 664.2 472.8 664.2ZM561.828 536H577.828V577.4L586.628 574.8C592.095 573.2 596.095 572.133 598.628 571.6C601.295 570.933 604.028 570.6 606.828 570.6C611.628 570.6 615.161 572.267 617.428 575.6C619.695 578.933 620.828 583.267 620.828 588.6V676H604.828V593.8C604.828 589.933 604.561 587.267 604.028 585.8C603.495 584.2 602.161 583.4 600.028 583.4C598.961 583.4 591.561 585.533 577.828 589.8V676H561.828V536ZM645.031 555V539H661.031V555H645.031ZM645.031 676V572H661.031V676H645.031ZM685.07 572H717.47C724.804 572 731.004 574.4 736.07 579.2C741.27 584 743.87 590 743.87 597.2V651C743.87 658.2 741.337 664.2 736.27 669C731.204 673.667 725.004 676 717.67 676H701.07V708H685.07V572ZM714.27 664.2C718.004 664.2 721.204 662.933 723.87 660.4C726.537 657.867 727.87 654.733 727.87 651V597.2C727.87 593.467 726.537 590.333 723.87 587.8C721.204 585.267 718.004 584 714.27 584H701.07V664.2H714.27ZM783.605 676C776.271 676 770.405 673.8 766.005 669.4C761.738 665 759.605 659.067 759.605 651.6V598.4C759.605 589.733 762.005 582.933 766.805 578C771.605 573.067 778.738 570.6 788.205 570.6C797.671 570.6 804.738 573.067 809.405 578C814.205 582.933 816.605 589.733 816.605 598.4V607.6C816.605 613.2 815.005 617.467 811.805 620.4C808.605 623.2 804.405 625.333 799.205 626.8L775.605 633.4V653C775.605 656.2 776.538 658.867 778.405 661C780.405 663 782.938 664 786.005 664H807.605V676H783.605ZM787.805 617.4C792.205 616.2 795.138 615.333 796.605 614.8C798.205 614.133 799.271 613.2 799.805 612C800.338 610.8 800.605 608.8 800.605 606V595C800.605 590.733 799.471 587.6 797.205 585.6C795.071 583.6 792.071 582.6 788.205 582.6C784.471 582.6 781.405 583.667 779.005 585.8C776.738 587.933 775.605 591 775.605 595V620.8L787.805 617.4ZM832.531 572H844.931L846.731 579.4L851.731 577C855.998 574.867 859.531 573.267 862.331 572.2C865.265 571.133 868.198 570.6 871.131 570.6V582.4C869.398 582.4 867.065 582.933 864.131 584C861.198 584.933 855.998 587.2 848.531 590.8V676H832.531V572ZM915.047 676C907.714 676 901.914 673.8 897.647 669.4C893.38 665 891.247 659.067 891.247 651.6V584H879.247V572H891.247V541.8L907.247 535.8V572H923.247V584H907.247V653C907.247 656.2 908.114 658.867 909.847 661C911.714 663 914.18 664 917.247 664H923.247V676H915.047ZM959.972 676C952.639 676 946.772 673.8 942.372 669.4C938.105 665 935.972 659.067 935.972 651.6V598.4C935.972 589.733 938.372 582.933 943.172 578C947.972 573.067 955.105 570.6 964.572 570.6C974.039 570.6 981.105 573.067 985.772 578C990.572 582.933 992.972 589.733 992.972 598.4V607.6C992.972 613.2 991.372 617.467 988.172 620.4C984.972 623.2 980.772 625.333 975.572 626.8L951.972 633.4V653C951.972 656.2 952.905 658.867 954.772 661C956.772 663 959.305 664 962.372 664H983.972V676H959.972ZM964.172 617.4C968.572 616.2 971.505 615.333 972.972 614.8C974.572 614.133 975.639 613.2 976.172 612C976.705 610.8 976.972 608.8 976.972 606V595C976.972 590.733 975.839 587.6 973.572 585.6C971.439 583.6 968.439 582.6 964.572 582.6C960.839 582.6 957.772 583.667 955.372 585.8C953.105 587.933 951.972 591 951.972 595V620.8L964.172 617.4ZM998.898 676L1027.7 623.8L1000.9 572H1016.3L1035.1 608.8L1054.1 572H1069.5L1042.7 623.8L1071.5 676H1054.7L1035.1 638L1015.7 676H998.898ZM1113.48 676C1106.15 676 1100.35 673.8 1096.08 669.4C1091.82 665 1089.68 659.067 1089.68 651.6V584H1077.68V572H1089.68V541.8L1105.68 535.8V572H1121.68V584H1105.68V653C1105.68 656.2 1106.55 658.867 1108.28 661C1110.15 663 1112.62 664 1115.68 664H1121.68V676H1113.48ZM1163.01 677.4C1153.68 677.4 1146.41 675.067 1141.21 670.4C1136.14 665.6 1133.61 659 1133.61 650.6V597.4C1133.61 589 1136.14 582.467 1141.21 577.8C1146.41 573 1153.68 570.6 1163.01 570.6C1172.34 570.6 1179.54 573 1184.61 577.8C1189.81 582.467 1192.41 589 1192.41 597.4V650.6C1192.41 659 1189.81 665.6 1184.61 670.4C1179.54 675.067 1172.34 677.4 1163.01 677.4ZM1163.01 665C1167.28 665 1170.61 663.8 1173.01 661.4C1175.54 658.867 1176.81 655.267 1176.81 650.6V597.4C1176.81 592.733 1175.54 589.2 1173.01 586.8C1170.61 584.267 1167.28 583 1163.01 583C1158.74 583 1155.34 584.267 1152.81 586.8C1150.41 589.2 1149.21 592.733 1149.21 597.4V650.6C1149.21 655.267 1150.41 658.867 1152.81 661.4C1155.34 663.8 1158.74 665 1163.01 665Z" fill="#34D320"/>
<path d="M456.8 890.98C440.28 890.98 432.02 882.58 432.02 865.78V792H444.34V868.16C444.34 872.64 445.413 876.047 447.56 878.38C449.8 880.62 452.88 881.74 456.8 881.74C460.72 881.74 463.8 880.62 466.04 878.38C468.28 876.047 469.4 872.64 469.4 868.16V792H481.72V865.78C481.72 882.58 473.413 890.98 456.8 890.98ZM496.197 817.2H504.877L506.137 821.26L511.877 819.58C515.797 818.367 518.877 817.527 521.117 817.06C523.45 816.5 525.644 816.22 527.697 816.22C531.71 816.22 534.51 817.993 536.097 821.54C538.71 820.607 542.397 819.487 547.157 818.18C551.917 816.873 555.417 816.22 557.657 816.22C561.017 816.22 563.49 817.387 565.077 819.72C566.757 822.053 567.597 825.087 567.597 828.82V890H556.397V832.46C556.397 829.753 556.21 827.887 555.837 826.86C555.464 825.74 554.53 825.18 553.037 825.18C552.29 825.18 547.157 826.673 537.637 829.66V890H526.437V832.46C526.437 829.753 526.25 827.887 525.877 826.86C525.504 825.74 524.57 825.18 523.077 825.18C522.33 825.18 517.104 826.673 507.397 829.66V890H496.197V817.2ZM597.853 890C594.493 890 591.367 889.16 588.473 887.48C585.673 885.8 583.433 883.513 581.753 880.62C580.167 877.727 579.373 874.46 579.373 870.82V863.54C579.373 859.153 580.447 855.467 582.593 852.48C584.833 849.493 587.587 847.393 590.853 846.18L608.213 839.74V833.16C608.213 830.92 607.513 829.1 606.113 827.7C604.807 826.207 603.08 825.46 600.933 825.46H585.113V817.2H601.913C607.047 817.2 611.107 818.74 614.093 821.82C617.173 824.807 618.713 828.913 618.713 834.14V890H597.853ZM608.213 881.46V848.56L595.893 853.18C593.467 854.113 591.74 855.373 590.713 856.96C589.78 858.547 589.313 861.067 589.313 864.52V872.36C589.313 874.88 590.247 877.027 592.113 878.8C593.98 880.573 596.22 881.46 598.833 881.46H608.213ZM655.201 817.2H663.881L665.141 822.38L668.641 820.7C671.627 819.207 674.101 818.087 676.061 817.34C678.114 816.593 680.167 816.22 682.221 816.22V824.48C681.007 824.48 679.374 824.853 677.321 825.6C675.267 826.253 671.627 827.84 666.401 830.36V890H655.201V817.2ZM707.222 890C702.088 890 697.982 888.46 694.902 885.38C691.915 882.3 690.422 878.147 690.422 872.92V835.68C690.422 829.613 692.102 824.853 695.462 821.4C698.822 817.947 703.815 816.22 710.442 816.22C717.068 816.22 722.015 817.947 725.282 821.4C728.642 824.853 730.322 829.613 730.322 835.68V842.12C730.322 846.04 729.202 849.027 726.962 851.08C724.722 853.04 721.782 854.533 718.142 855.56L701.622 860.18V873.9C701.622 876.14 702.275 878.007 703.582 879.5C704.982 880.9 706.755 881.6 708.902 881.6H724.022V890H707.222ZM710.162 848.98C713.242 848.14 715.295 847.533 716.322 847.16C717.442 846.693 718.188 846.04 718.562 845.2C718.935 844.36 719.122 842.96 719.122 841V833.3C719.122 830.313 718.328 828.12 716.742 826.72C715.248 825.32 713.148 824.62 710.442 824.62C707.828 824.62 705.682 825.367 704.002 826.86C702.415 828.353 701.622 830.5 701.622 833.3V851.36L710.162 848.98ZM759.95 890C754.07 890 749.31 888.273 745.67 884.82C742.03 881.367 740.21 876.747 740.21 870.96V836.1C740.21 832.087 741.284 828.68 743.43 825.88C745.67 823.08 748.424 821.167 751.69 820.14L770.45 813.56V792H781.65V890H759.95ZM770.45 881.6V822.8L757.99 827C755.564 827.747 753.837 828.96 752.81 830.64C751.877 832.227 751.41 834.793 751.41 838.34V870.96C751.41 874.32 752.39 876.933 754.35 878.8C756.31 880.667 758.97 881.6 762.33 881.6H770.45ZM813.042 890C807.909 890 803.802 888.46 800.722 885.38C797.735 882.3 796.242 878.147 796.242 872.92V835.68C796.242 829.613 797.922 824.853 801.282 821.4C804.642 817.947 809.635 816.22 816.262 816.22C822.889 816.22 827.835 817.947 831.102 821.4C834.462 824.853 836.142 829.613 836.142 835.68V842.12C836.142 846.04 835.022 849.027 832.782 851.08C830.542 853.04 827.602 854.533 823.962 855.56L807.442 860.18V873.9C807.442 876.14 808.095 878.007 809.402 879.5C810.802 880.9 812.575 881.6 814.722 881.6H829.842V890H813.042ZM815.982 848.98C819.062 848.14 821.115 847.533 822.142 847.16C823.262 846.693 824.009 846.04 824.382 845.2C824.755 844.36 824.942 842.96 824.942 841V833.3C824.942 830.313 824.149 828.12 822.562 826.72C821.069 825.32 818.969 824.62 816.262 824.62C813.649 824.62 811.502 825.367 809.822 826.86C808.235 828.353 807.442 830.5 807.442 833.3V851.36L815.982 848.98ZM886.825 890C880.945 890 876.185 888.273 872.545 884.82C868.905 881.367 867.085 876.747 867.085 870.96V836.1C867.085 832.087 868.159 828.68 870.305 825.88C872.545 823.08 875.299 821.167 878.565 820.14L897.325 813.56V792H908.525V890H886.825ZM897.325 881.6V822.8L884.865 827C882.439 827.747 880.712 828.96 879.685 830.64C878.752 832.227 878.285 834.793 878.285 838.34V870.96C878.285 874.32 879.265 876.933 881.225 878.8C883.185 880.667 885.845 881.6 889.205 881.6H897.325ZM939.917 890C934.784 890 930.677 888.46 927.597 885.38C924.61 882.3 923.117 878.147 923.117 872.92V835.68C923.117 829.613 924.797 824.853 928.157 821.4C931.517 817.947 936.51 816.22 943.137 816.22C949.764 816.22 954.71 817.947 957.977 821.4C961.337 824.853 963.017 829.613 963.017 835.68V842.12C963.017 846.04 961.897 849.027 959.657 851.08C957.417 853.04 954.477 854.533 950.837 855.56L934.317 860.18V873.9C934.317 876.14 934.97 878.007 936.277 879.5C937.677 880.9 939.45 881.6 941.597 881.6H956.717V890H939.917ZM942.857 848.98C945.937 848.14 947.99 847.533 949.017 847.16C950.137 846.693 950.884 846.04 951.257 845.2C951.63 844.36 951.817 842.96 951.817 841V833.3C951.817 830.313 951.024 828.12 949.437 826.72C947.944 825.32 945.844 824.62 943.137 824.62C940.524 824.62 938.377 825.367 936.697 826.86C935.11 828.353 934.317 830.5 934.317 833.3V851.36L942.857 848.98ZM995.22 805.3V794.1H1006.42V805.3H995.22ZM995.22 890V817.2H1006.42V890H995.22ZM1023.25 817.2H1031.93L1033.19 821.26L1038.93 819.58C1042.85 818.367 1045.93 817.527 1048.17 817.06C1050.5 816.5 1052.69 816.22 1054.75 816.22C1058.11 816.22 1060.58 817.387 1062.17 819.72C1063.75 822.053 1064.55 825.087 1064.55 828.82V890H1053.35V832.46C1053.35 829.753 1053.16 827.887 1052.79 826.86C1052.41 825.74 1051.48 825.18 1049.99 825.18C1049.24 825.18 1044.06 826.673 1034.45 829.66V890H1023.25V817.2ZM1083.62 826.44H1075.22V817.2H1083.62V809.08C1083.62 803.853 1085.12 799.7 1088.1 796.62C1091.09 793.54 1095.15 792 1100.28 792H1106.44V800.4H1102.24C1100.1 800.4 1098.32 801.147 1096.92 802.64C1095.52 804.133 1094.82 805.953 1094.82 808.1V817.2H1106.16V826.44H1094.82V890H1083.62V826.44ZM1133.04 890.98C1126.51 890.98 1121.42 889.347 1117.78 886.08C1114.23 882.72 1112.46 878.1 1112.46 872.22V834.98C1112.46 829.1 1114.23 824.527 1117.78 821.26C1121.42 817.9 1126.51 816.22 1133.04 816.22C1139.57 816.22 1144.61 817.9 1148.16 821.26C1151.8 824.527 1153.62 829.1 1153.62 834.98V872.22C1153.62 878.1 1151.8 882.72 1148.16 886.08C1144.61 889.347 1139.57 890.98 1133.04 890.98ZM1133.04 882.3C1136.03 882.3 1138.36 881.46 1140.04 879.78C1141.81 878.007 1142.7 875.487 1142.7 872.22V834.98C1142.7 831.713 1141.81 829.24 1140.04 827.56C1138.36 825.787 1136.03 824.9 1133.04 824.9C1130.05 824.9 1127.67 825.787 1125.9 827.56C1124.22 829.24 1123.38 831.713 1123.38 834.98V872.22C1123.38 875.487 1124.22 878.007 1125.9 879.78C1127.67 881.46 1130.05 882.3 1133.04 882.3ZM1167.62 817.2H1176.3L1177.56 822.38L1181.06 820.7C1184.05 819.207 1186.52 818.087 1188.48 817.34C1190.54 816.593 1192.59 816.22 1194.64 816.22V824.48C1193.43 824.48 1191.8 824.853 1189.74 825.6C1187.69 826.253 1184.05 827.84 1178.82 830.36V890H1167.62V817.2ZM1205.08 817.2H1213.76L1215.02 821.26L1220.76 819.58C1224.68 818.367 1227.76 817.527 1230 817.06C1232.34 816.5 1234.53 816.22 1236.58 816.22C1240.6 816.22 1243.4 817.993 1244.98 821.54C1247.6 820.607 1251.28 819.487 1256.04 818.18C1260.8 816.873 1264.3 816.22 1266.54 816.22C1269.9 816.22 1272.38 817.387 1273.96 819.72C1275.64 822.053 1276.48 825.087 1276.48 828.82V890H1265.28V832.46C1265.28 829.753 1265.1 827.887 1264.72 826.86C1264.35 825.74 1263.42 825.18 1261.92 825.18C1261.18 825.18 1256.04 826.673 1246.52 829.66V890H1235.32V832.46C1235.32 829.753 1235.14 827.887 1234.76 826.86C1234.39 825.74 1233.46 825.18 1231.96 825.18C1231.22 825.18 1225.99 826.673 1216.28 829.66V890H1205.08V817.2ZM1306.74 890C1303.38 890 1300.25 889.16 1297.36 887.48C1294.56 885.8 1292.32 883.513 1290.64 880.62C1289.05 877.727 1288.26 874.46 1288.26 870.82V863.54C1288.26 859.153 1289.33 855.467 1291.48 852.48C1293.72 849.493 1296.47 847.393 1299.74 846.18L1317.1 839.74V833.16C1317.1 830.92 1316.4 829.1 1315 827.7C1313.69 826.207 1311.97 825.46 1309.82 825.46H1294V817.2H1310.8C1315.93 817.2 1319.99 818.74 1322.98 821.82C1326.06 824.807 1327.6 828.913 1327.6 834.14V890H1306.74ZM1317.1 881.46V848.56L1304.78 853.18C1302.35 854.113 1300.63 855.373 1299.6 856.96C1298.67 858.547 1298.2 861.067 1298.2 864.52V872.36C1298.2 874.88 1299.13 877.027 1301 878.8C1302.87 880.573 1305.11 881.46 1307.72 881.46H1317.1ZM1365.57 894.48C1368.93 894.48 1371.5 895.087 1373.27 896.3C1375.05 897.513 1375.93 899.707 1375.93 902.88C1375.93 909.227 1372.29 912.4 1365.01 912.4H1350.03V905.82H1361.23C1363.38 905.82 1364.97 905.587 1365.99 905.12C1367.02 904.653 1367.53 903.86 1367.53 902.74C1367.53 901.527 1367.16 900.733 1366.41 900.36C1365.67 899.987 1364.45 899.8 1362.77 899.8H1355.49L1357.87 890H1358.43C1353.3 890 1349.19 888.46 1346.11 885.38C1343.13 882.3 1341.63 878.147 1341.63 872.92V835.68C1341.63 829.8 1343.17 825.273 1346.25 822.1C1349.33 818.833 1353.81 817.2 1359.69 817.2H1375.23V825.6H1359.97C1357.83 825.6 1356.1 826.347 1354.79 827.84C1353.49 829.24 1352.83 831.06 1352.83 833.3V873.9C1352.83 876.14 1353.49 878.007 1354.79 879.5C1356.19 880.9 1357.97 881.6 1360.11 881.6H1375.23V890H1366.55L1365.57 894.48ZM1381.79 810.2C1381.88 806 1382.67 802.827 1384.17 800.68C1385.66 798.44 1388.37 797.32 1392.29 797.32C1393.31 797.32 1396.35 798.067 1401.39 799.56C1406.33 801.147 1409.51 801.94 1410.91 801.94C1412.03 801.94 1412.77 801.613 1413.15 800.96C1413.52 800.213 1413.75 799.327 1413.85 798.3C1414.03 797.273 1414.17 796.48 1414.27 795.92H1423.09C1422.99 799.093 1422.76 801.66 1422.39 803.62C1422.01 805.487 1421.03 807.073 1419.45 808.38C1417.95 809.593 1415.67 810.2 1412.59 810.2C1411.19 810.2 1408.01 809.407 1403.07 807.82C1398.03 806.327 1394.99 805.58 1393.97 805.58C1392.75 805.58 1391.96 805.813 1391.59 806.28C1391.31 806.747 1391.07 807.4 1390.89 808.24C1390.79 809.08 1390.7 809.733 1390.61 810.2H1381.79ZM1399.85 890C1396.49 890 1393.36 889.16 1390.47 887.48C1387.67 885.8 1385.43 883.513 1383.75 880.62C1382.16 877.727 1381.37 874.46 1381.37 870.82V863.54C1381.37 859.153 1382.44 855.467 1384.59 852.48C1386.83 849.493 1389.58 847.393 1392.85 846.18L1410.21 839.74V833.16C1410.21 830.92 1409.51 829.1 1408.11 827.7C1406.8 826.207 1405.07 825.46 1402.93 825.46H1387.11V817.2H1403.91C1409.04 817.2 1413.1 818.74 1416.09 821.82C1419.17 824.807 1420.71 828.913 1420.71 834.14V890H1399.85ZM1410.21 881.46V848.56L1397.89 853.18C1395.46 854.113 1393.73 855.373 1392.71 856.96C1391.77 858.547 1391.31 861.067 1391.31 864.52V872.36C1391.31 874.88 1392.24 877.027 1394.11 878.8C1395.97 880.573 1398.21 881.46 1400.83 881.46H1410.21ZM1453.92 890.98C1447.38 890.98 1442.3 889.347 1438.66 886.08C1435.11 882.72 1433.34 878.1 1433.34 872.22V834.98C1433.34 829.1 1435.11 824.527 1438.66 821.26C1442.3 817.9 1447.38 816.22 1453.92 816.22C1460.45 816.22 1465.49 817.9 1469.04 821.26C1472.68 824.527 1474.5 829.1 1474.5 834.98V872.22C1474.5 878.1 1472.68 882.72 1469.04 886.08C1465.49 889.347 1460.45 890.98 1453.92 890.98ZM1453.92 882.3C1456.9 882.3 1459.24 881.46 1460.92 879.78C1462.69 878.007 1463.58 875.487 1463.58 872.22V834.98C1463.58 831.713 1462.69 829.24 1460.92 827.56C1459.24 825.787 1456.9 824.9 1453.92 824.9C1450.93 824.9 1448.55 825.787 1446.78 827.56C1445.1 829.24 1444.26 831.713 1444.26 834.98V872.22C1444.26 875.487 1445.1 878.007 1446.78 879.78C1448.55 881.46 1450.93 882.3 1453.92 882.3ZM1524.96 890C1519.82 890 1515.72 888.46 1512.64 885.38C1509.65 882.3 1508.16 878.147 1508.16 872.92V835.68C1508.16 829.8 1509.7 825.273 1512.78 822.1C1515.86 818.833 1520.34 817.2 1526.22 817.2H1541.76V825.6H1526.5C1524.35 825.6 1522.62 826.347 1521.32 827.84C1520.01 829.24 1519.36 831.06 1519.36 833.3V873.9C1519.36 876.14 1520.01 878.007 1521.32 879.5C1522.72 880.9 1524.49 881.6 1526.64 881.6H1541.76V890H1524.96ZM1569.31 890.98C1562.78 890.98 1557.69 889.347 1554.05 886.08C1550.5 882.72 1548.73 878.1 1548.73 872.22V834.98C1548.73 829.1 1550.5 824.527 1554.05 821.26C1557.69 817.9 1562.78 816.22 1569.31 816.22C1575.84 816.22 1580.88 817.9 1584.43 821.26C1588.07 824.527 1589.89 829.1 1589.89 834.98V872.22C1589.89 878.1 1588.07 882.72 1584.43 886.08C1580.88 889.347 1575.84 890.98 1569.31 890.98ZM1569.31 882.3C1572.3 882.3 1574.63 881.46 1576.31 879.78C1578.08 878.007 1578.97 875.487 1578.97 872.22V834.98C1578.97 831.713 1578.08 829.24 1576.31 827.56C1574.63 825.787 1572.3 824.9 1569.31 824.9C1566.32 824.9 1563.94 825.787 1562.17 827.56C1560.49 829.24 1559.65 831.713 1559.65 834.98V872.22C1559.65 875.487 1560.49 878.007 1562.17 879.78C1563.94 881.46 1566.32 882.3 1569.31 882.3ZM1603.89 817.2H1612.57L1613.83 821.26L1619.57 819.58C1623.49 818.367 1626.57 817.527 1628.81 817.06C1631.15 816.5 1633.34 816.22 1635.39 816.22C1638.75 816.22 1641.23 817.387 1642.81 819.72C1644.4 822.053 1645.19 825.087 1645.19 828.82V890H1633.99V832.46C1633.99 829.753 1633.81 827.887 1633.43 826.86C1633.06 825.74 1632.13 825.18 1630.63 825.18C1629.89 825.18 1624.71 826.673 1615.09 829.66V890H1603.89V817.2ZM1675.33 890C1670.19 890 1666.09 888.46 1663.01 885.38C1660.02 882.3 1658.53 878.147 1658.53 872.92V835.68C1658.53 829.613 1660.21 824.853 1663.57 821.4C1666.93 817.947 1671.92 816.22 1678.55 816.22C1685.17 816.22 1690.12 817.947 1693.39 821.4C1696.75 824.853 1698.43 829.613 1698.43 835.68V842.12C1698.43 846.04 1697.31 849.027 1695.07 851.08C1692.83 853.04 1689.89 854.533 1686.25 855.56L1669.73 860.18V873.9C1669.73 876.14 1670.38 878.007 1671.69 879.5C1673.09 880.9 1674.86 881.6 1677.01 881.6H1692.13V890H1675.33ZM1678.27 848.98C1681.35 848.14 1683.4 847.533 1684.43 847.16C1685.55 846.693 1686.29 846.04 1686.67 845.2C1687.04 844.36 1687.23 842.96 1687.23 841V833.3C1687.23 830.313 1686.43 828.12 1684.85 826.72C1683.35 825.32 1681.25 824.62 1678.55 824.62C1675.93 824.62 1673.79 825.367 1672.11 826.86C1670.52 828.353 1669.73 830.5 1669.73 833.3V851.36L1678.27 848.98ZM1724.98 890C1719.84 890 1715.74 888.46 1712.66 885.38C1709.67 882.3 1708.18 878.147 1708.18 872.92V835.68C1708.18 829.8 1709.72 825.273 1712.8 822.1C1715.88 818.833 1720.36 817.2 1726.24 817.2H1741.78V825.6H1726.52C1724.37 825.6 1722.64 826.347 1721.34 827.84C1720.03 829.24 1719.38 831.06 1719.38 833.3V873.9C1719.38 876.14 1720.03 878.007 1721.34 879.5C1722.74 880.9 1724.51 881.6 1726.66 881.6H1741.78V890H1724.98ZM1771.85 890C1766.72 890 1762.66 888.46 1759.67 885.38C1756.68 882.3 1755.19 878.147 1755.19 872.92V825.6H1746.79V817.2H1755.19V796.06L1766.39 791.86V817.2H1777.59V825.6H1766.39V873.9C1766.39 876.14 1767 878.007 1768.21 879.5C1769.52 880.9 1771.24 881.6 1773.39 881.6H1777.59V890H1771.85ZM1803.58 890C1800.22 890 1797.09 889.16 1794.2 887.48C1791.4 885.8 1789.16 883.513 1787.48 880.62C1785.89 877.727 1785.1 874.46 1785.1 870.82V863.54C1785.1 859.153 1786.17 855.467 1788.32 852.48C1790.56 849.493 1793.31 847.393 1796.58 846.18L1813.94 839.74V833.16C1813.94 830.92 1813.24 829.1 1811.84 827.7C1810.53 826.207 1808.8 825.46 1806.66 825.46H1790.84V817.2H1807.64C1812.77 817.2 1816.83 818.74 1819.82 821.82C1822.9 824.807 1824.44 828.913 1824.44 834.14V890H1803.58ZM1813.94 881.46V848.56L1801.62 853.18C1799.19 854.113 1797.46 855.373 1796.44 856.96C1795.5 858.547 1795.04 861.067 1795.04 864.52V872.36C1795.04 874.88 1795.97 877.027 1797.84 878.8C1799.7 880.573 1801.94 881.46 1804.56 881.46H1813.94ZM1858.35 890C1852.47 890 1847.71 888.273 1844.07 884.82C1840.43 881.367 1838.61 876.747 1838.61 870.96V836.1C1838.61 832.087 1839.68 828.68 1841.83 825.88C1844.07 823.08 1846.82 821.167 1850.09 820.14L1868.85 813.56V792H1880.05V890H1858.35ZM1868.85 881.6V822.8L1856.39 827C1853.96 827.747 1852.24 828.96 1851.21 830.64C1850.28 832.227 1849.81 834.793 1849.81 838.34V870.96C1849.81 874.32 1850.79 876.933 1852.75 878.8C1854.71 880.667 1857.37 881.6 1860.73 881.6H1868.85ZM1911.72 890C1908.36 890 1905.23 889.16 1902.34 887.48C1899.54 885.8 1897.3 883.513 1895.62 880.62C1894.03 877.727 1893.24 874.46 1893.24 870.82V863.54C1893.24 859.153 1894.31 855.467 1896.46 852.48C1898.7 849.493 1901.45 847.393 1904.72 846.18L1922.08 839.74V833.16C1922.08 830.92 1921.38 829.1 1919.98 827.7C1918.67 826.207 1916.95 825.46 1914.8 825.46H1898.98V817.2H1915.78C1920.91 817.2 1924.97 818.74 1927.96 821.82C1931.04 824.807 1932.58 828.913 1932.58 834.14V890H1911.72ZM1922.08 881.46V848.56L1909.76 853.18C1907.33 854.113 1905.61 855.373 1904.58 856.96C1903.65 858.547 1903.18 861.067 1903.18 864.52V872.36C1903.18 874.88 1904.11 877.027 1905.98 878.8C1907.85 880.573 1910.09 881.46 1912.7 881.46H1922.08ZM1983.63 890C1978.49 890 1974.39 888.46 1971.31 885.38C1968.32 882.3 1966.83 878.147 1966.83 872.92V835.68C1966.83 829.613 1968.51 824.853 1971.87 821.4C1975.23 817.947 1980.22 816.22 1986.85 816.22C1993.47 816.22 1998.42 817.947 2001.69 821.4C2005.05 824.853 2006.73 829.613 2006.73 835.68V842.12C2006.73 846.04 2005.61 849.027 2003.37 851.08C2001.13 853.04 1998.19 854.533 1994.55 855.56L1978.03 860.18V873.9C1978.03 876.14 1978.68 878.007 1979.99 879.5C1981.39 880.9 1983.16 881.6 1985.31 881.6H2000.43V890H1983.63ZM1986.57 848.98C1989.65 848.14 1991.7 847.533 1992.73 847.16C1993.85 846.693 1994.59 846.04 1994.97 845.2C1995.34 844.36 1995.53 842.96 1995.53 841V833.3C1995.53 830.313 1994.73 828.12 1993.15 826.72C1991.65 825.32 1989.55 824.62 1986.85 824.62C1984.23 824.62 1982.09 825.367 1980.41 826.86C1978.82 828.353 1978.03 830.5 1978.03 833.3V851.36L1986.57 848.98ZM2038.93 817.2H2047.61L2048.87 821.26L2054.61 819.58C2058.53 818.367 2061.61 817.527 2063.85 817.06C2066.18 816.5 2068.38 816.22 2070.43 816.22C2073.79 816.22 2076.26 817.387 2077.85 819.72C2079.44 822.053 2080.23 825.087 2080.23 828.82V890H2069.03V832.46C2069.03 829.753 2068.84 827.887 2068.47 826.86C2068.1 825.74 2067.16 825.18 2065.67 825.18C2064.92 825.18 2059.74 826.673 2050.13 829.66V890H2038.93V817.2ZM2110.65 890C2107.29 890 2104.16 889.16 2101.27 887.48C2098.47 885.8 2096.23 883.513 2094.55 880.62C2092.96 877.727 2092.17 874.46 2092.17 870.82V863.54C2092.17 859.153 2093.24 855.467 2095.39 852.48C2097.63 849.493 2100.38 847.393 2103.65 846.18L2121.01 839.74V833.16C2121.01 830.92 2120.31 829.1 2118.91 827.7C2117.6 826.207 2115.87 825.46 2113.73 825.46H2097.91V817.2H2114.71C2119.84 817.2 2123.9 818.74 2126.89 821.82C2129.97 824.807 2131.51 828.913 2131.51 834.14V890H2110.65ZM2121.01 881.46V848.56L2108.69 853.18C2106.26 854.113 2104.53 855.373 2103.51 856.96C2102.57 858.547 2102.11 861.067 2102.11 864.52V872.36C2102.11 874.88 2103.04 877.027 2104.91 878.8C2106.77 880.573 2109.01 881.46 2111.63 881.46H2121.01ZM2157.3 890L2140.64 817.2H2152.26L2163.04 875.86L2173.68 817.2H2185.3L2168.64 890H2157.3ZM2210.31 890C2205.17 890 2201.07 888.46 2197.99 885.38C2195 882.3 2193.51 878.147 2193.51 872.92V835.68C2193.51 829.613 2195.19 824.853 2198.55 821.4C2201.91 817.947 2206.9 816.22 2213.53 816.22C2220.15 816.22 2225.1 817.947 2228.37 821.4C2231.73 824.853 2233.41 829.613 2233.41 835.68V842.12C2233.41 846.04 2232.29 849.027 2230.05 851.08C2227.81 853.04 2224.87 854.533 2221.23 855.56L2204.71 860.18V873.9C2204.71 876.14 2205.36 878.007 2206.67 879.5C2208.07 880.9 2209.84 881.6 2211.99 881.6H2227.11V890H2210.31ZM2213.25 848.98C2216.33 848.14 2218.38 847.533 2219.41 847.16C2220.53 846.693 2221.27 846.04 2221.65 845.2C2222.02 844.36 2222.21 842.96 2222.21 841V833.3C2222.21 830.313 2221.41 828.12 2219.83 826.72C2218.33 825.32 2216.23 824.62 2213.53 824.62C2210.91 824.62 2208.77 825.367 2207.09 826.86C2205.5 828.353 2204.71 830.5 2204.71 833.3V851.36L2213.25 848.98ZM2250.44 904H2264.86C2267 904 2268.68 903.253 2269.9 901.76C2271.2 900.36 2271.86 898.54 2271.86 896.3V890.14H2260.24C2255.1 890.14 2250.76 888.46 2247.22 885.1C2243.67 881.74 2241.9 877.54 2241.9 872.5V834.84C2241.9 829.8 2243.67 825.6 2247.22 822.24C2250.86 818.88 2255.24 817.2 2260.38 817.2H2283.2V895.32C2283.2 900.547 2281.75 904.7 2278.86 907.78C2276.06 910.86 2272.09 912.4 2266.96 912.4H2250.44V904ZM2272 881.74V825.6H2262.62C2260 825.6 2257.76 826.487 2255.9 828.26C2254.03 830.033 2253.1 832.227 2253.1 834.84V872.5C2253.1 875.113 2254.03 877.307 2255.9 879.08C2257.76 880.853 2260 881.74 2262.62 881.74H2272ZM2313.4 890C2310.04 890 2306.91 889.16 2304.02 887.48C2301.22 885.8 2298.98 883.513 2297.3 880.62C2295.71 877.727 2294.92 874.46 2294.92 870.82V863.54C2294.92 859.153 2295.99 855.467 2298.14 852.48C2300.38 849.493 2303.13 847.393 2306.4 846.18L2323.76 839.74V833.16C2323.76 830.92 2323.06 829.1 2321.66 827.7C2320.35 826.207 2318.63 825.46 2316.48 825.46H2300.66V817.2H2317.46C2322.59 817.2 2326.65 818.74 2329.64 821.82C2332.72 824.807 2334.26 828.913 2334.26 834.14V890H2313.4ZM2323.76 881.46V848.56L2311.44 853.18C2309.01 854.113 2307.29 855.373 2306.26 856.96C2305.33 858.547 2304.86 861.067 2304.86 864.52V872.36C2304.86 874.88 2305.79 877.027 2307.66 878.8C2309.53 880.573 2311.77 881.46 2314.38 881.46H2323.76ZM2312 811.74L2307.38 807.54L2323.62 793.68L2330.76 800.26L2312 811.74ZM2360.05 890L2343.39 817.2H2355.01L2365.79 875.86L2376.43 817.2H2388.05L2371.39 890H2360.05ZM2413.06 890C2407.93 890 2403.82 888.46 2400.74 885.38C2397.75 882.3 2396.26 878.147 2396.26 872.92V835.68C2396.26 829.613 2397.94 824.853 2401.3 821.4C2404.66 817.947 2409.65 816.22 2416.28 816.22C2422.91 816.22 2427.85 817.947 2431.12 821.4C2434.48 824.853 2436.16 829.613 2436.16 835.68V842.12C2436.16 846.04 2435.04 849.027 2432.8 851.08C2430.56 853.04 2427.62 854.533 2423.98 855.56L2407.46 860.18V873.9C2407.46 876.14 2408.11 878.007 2409.42 879.5C2410.82 880.9 2412.59 881.6 2414.74 881.6H2429.86V890H2413.06ZM2416 848.98C2419.08 848.14 2421.13 847.533 2422.16 847.16C2423.28 846.693 2424.03 846.04 2424.4 845.2C2424.77 844.36 2424.96 842.96 2424.96 841V833.3C2424.96 830.313 2424.17 828.12 2422.58 826.72C2421.09 825.32 2418.99 824.62 2416.28 824.62C2413.67 824.62 2411.52 825.367 2409.84 826.86C2408.25 828.353 2407.46 830.5 2407.46 833.3V851.36L2416 848.98ZM2447.45 890V792H2458.65V890H2447.45Z" fill="#34D320"/>
</svg>
