<svg width="3745" height="1780" viewBox="0 0 3745 1780" fill="none" xmlns="http://www.w3.org/2000/svg">
<path d="M440.6 676V536H458.2V595.2H498V536H515.6V676H498V608.4H458.2V676H440.6ZM541.697 696H547.897C551.497 696 554.764 694.267 557.697 690.8C560.63 687.467 562.097 682.467 562.097 675.8L534.297 572H550.897L568.297 656.4L582.297 572H598.097L573.697 688C570.897 701.333 563.164 708 550.497 708H541.697V696ZM613 572H645.4C652.733 572 658.933 574.4 664 579.2C669.2 584 671.8 590 671.8 597.2V651C671.8 658.2 669.267 664.2 664.2 669C659.133 673.667 652.933 676 645.6 676H629V708H613V572ZM642.2 664.2C645.933 664.2 649.133 662.933 651.8 660.4C654.467 657.867 655.8 654.733 655.8 651V597.2C655.8 593.467 654.467 590.333 651.8 587.8C649.133 585.267 645.933 584 642.2 584H629V664.2H642.2ZM711.534 676C704.201 676 698.334 673.8 693.934 669.4C689.668 665 687.534 659.067 687.534 651.6V598.4C687.534 589.733 689.934 582.933 694.734 578C699.534 573.067 706.668 570.6 716.134 570.6C725.601 570.6 732.668 573.067 737.334 578C742.134 582.933 744.534 589.733 744.534 598.4V607.6C744.534 613.2 742.934 617.467 739.734 620.4C736.534 623.2 732.334 625.333 727.134 626.8L703.534 633.4V653C703.534 656.2 704.468 658.867 706.334 661C708.334 663 710.868 664 713.934 664H735.534V676H711.534ZM715.734 617.4C720.134 616.2 723.068 615.333 724.534 614.8C726.134 614.133 727.201 613.2 727.734 612C728.268 610.8 728.534 608.8 728.534 606V595C728.534 590.733 727.401 587.6 725.134 585.6C723.001 583.6 720.001 582.6 716.134 582.6C712.401 582.6 709.334 583.667 706.934 585.8C704.668 587.933 703.534 591 703.534 595V620.8L715.734 617.4ZM760.461 572H772.861L774.661 579.4L779.661 577C783.928 574.867 787.461 573.267 790.261 572.2C793.194 571.133 796.128 570.6 799.061 570.6V582.4C797.328 582.4 794.994 582.933 792.061 584C789.128 584.933 783.928 587.2 776.461 590.8V676H760.461V572ZM842.977 676C835.643 676 829.843 673.8 825.577 669.4C821.31 665 819.177 659.067 819.177 651.6V584H807.177V572H819.177V541.8L835.177 535.8V572H851.177V584H835.177V653C835.177 656.2 836.043 658.867 837.777 661C839.643 663 842.11 664 845.177 664H851.177V676H842.977ZM887.902 676C880.568 676 874.702 673.8 870.302 669.4C866.035 665 863.902 659.067 863.902 651.6V598.4C863.902 589.733 866.302 582.933 871.102 578C875.902 573.067 883.035 570.6 892.502 570.6C901.968 570.6 909.035 573.067 913.702 578C918.502 582.933 920.902 589.733 920.902 598.4V607.6C920.902 613.2 919.302 617.467 916.102 620.4C912.902 623.2 908.702 625.333 903.502 626.8L879.902 633.4V653C879.902 656.2 880.835 658.867 882.702 661C884.702 663 887.235 664 890.302 664H911.902V676H887.902ZM892.102 617.4C896.502 616.2 899.435 615.333 900.902 614.8C902.502 614.133 903.568 613.2 904.102 612C904.635 610.8 904.902 608.8 904.902 606V595C904.902 590.733 903.768 587.6 901.502 585.6C899.368 583.6 896.368 582.6 892.502 582.6C888.768 582.6 885.702 583.667 883.302 585.8C881.035 587.933 879.902 591 879.902 595V620.8L892.102 617.4ZM926.828 676L955.628 623.8L928.828 572H944.228L963.028 608.8L982.028 572H997.428L970.628 623.8L999.428 676H982.628L963.028 638L943.628 676H926.828ZM1041.41 676C1034.08 676 1028.28 673.8 1024.01 669.4C1019.75 665 1017.61 659.067 1017.61 651.6V584H1005.61V572H1017.61V541.8L1033.61 535.8V572H1049.61V584H1033.61V653C1033.61 656.2 1034.48 658.867 1036.21 661C1038.08 663 1040.55 664 1043.61 664H1049.61V676H1041.41ZM1096.22 676V536H1122.82L1149.62 618.8H1151.02L1178.42 536H1204.02V676H1186.42V557L1159.62 638.8H1140.62L1113.82 556.8V676H1096.22ZM1249.83 676C1245.03 676 1240.56 674.8 1236.43 672.4C1232.43 670 1229.23 666.733 1226.83 662.6C1224.56 658.467 1223.43 653.8 1223.43 648.6V638.2C1223.43 631.933 1224.96 626.667 1228.03 622.4C1231.23 618.133 1235.16 615.133 1239.83 613.4L1264.63 604.2V594.8C1264.63 591.6 1263.63 589 1261.63 587C1259.76 584.867 1257.29 583.8 1254.23 583.8H1231.63V572H1255.63C1262.96 572 1268.76 574.2 1273.03 578.6C1277.43 582.867 1279.63 588.733 1279.63 596.2V676H1249.83ZM1264.63 663.8V616.8L1247.03 623.4C1243.56 624.733 1241.09 626.533 1239.63 628.8C1238.29 631.067 1237.63 634.667 1237.63 639.6V650.8C1237.63 654.4 1238.96 657.467 1241.62 660C1244.29 662.533 1247.49 663.8 1251.23 663.8H1264.63ZM1301.67 572H1314.07L1315.87 579.4L1320.87 577C1325.14 574.867 1328.67 573.267 1331.47 572.2C1334.41 571.133 1337.34 570.6 1340.27 570.6V582.4C1338.54 582.4 1336.21 582.933 1333.27 584C1330.34 584.933 1325.14 587.2 1317.67 590.8V676H1301.67V572ZM1354.79 676V536H1370.79V614.4L1401.79 572H1416.79L1387.19 614.4L1418.19 676H1403.19L1377.79 623.6L1370.79 633V676H1354.79ZM1443.95 677.4C1439.15 677.4 1435.55 675.733 1433.15 672.4C1430.88 669.067 1429.75 664.733 1429.75 659.4V572H1445.75V654.2C1445.75 657.933 1446.02 660.6 1446.55 662.2C1447.08 663.8 1448.35 664.6 1450.35 664.6C1451.28 664.6 1458.82 662.6 1472.95 658.6V572H1488.95V676H1477.55L1474.55 669.2C1472.42 670 1470.82 670.533 1469.75 670.8C1463.48 673.067 1458.42 674.733 1454.55 675.8C1450.68 676.867 1447.15 677.4 1443.95 677.4ZM1513 572H1545.4C1552.73 572 1558.93 574.4 1564 579.2C1569.2 584 1571.8 590 1571.8 597.2V651C1571.8 658.2 1569.27 664.2 1564.2 669C1559.13 673.667 1552.93 676 1545.6 676H1529V708H1513V572ZM1542.2 664.2C1545.93 664.2 1549.13 662.933 1551.8 660.4C1554.47 657.867 1555.8 654.733 1555.8 651V597.2C1555.8 593.467 1554.47 590.333 1551.8 587.8C1549.13 585.267 1545.93 584 1542.2 584H1529V664.2H1542.2ZM1623.41 676V536H1641.01V662.8H1682.01V676H1623.41ZM1717.79 676C1712.99 676 1708.53 674.8 1704.39 672.4C1700.39 670 1697.19 666.733 1694.79 662.6C1692.53 658.467 1691.39 653.8 1691.39 648.6V638.2C1691.39 631.933 1692.93 626.667 1695.99 622.4C1699.19 618.133 1703.13 615.133 1707.79 613.4L1732.59 604.2V594.8C1732.59 591.6 1731.59 589 1729.59 587C1727.73 584.867 1725.26 583.8 1722.19 583.8H1699.59V572H1723.59C1730.93 572 1736.73 574.2 1740.99 578.6C1745.39 582.867 1747.59 588.733 1747.59 596.2V676H1717.79ZM1732.59 663.8V616.8L1714.99 623.4C1711.53 624.733 1709.06 626.533 1707.59 628.8C1706.26 631.067 1705.59 634.667 1705.59 639.6V650.8C1705.59 654.4 1706.93 657.467 1709.59 660C1712.26 662.533 1715.46 663.8 1719.19 663.8H1732.59ZM1769.64 572H1782.04L1783.84 577.8L1792.04 575.4C1797.64 573.667 1802.04 572.467 1805.24 571.8C1808.57 571 1811.71 570.6 1814.64 570.6C1819.44 570.6 1822.97 572.267 1825.24 575.6C1827.51 578.933 1828.64 583.267 1828.64 588.6V676H1812.64V593.8C1812.64 589.933 1812.37 587.267 1811.84 585.8C1811.31 584.2 1809.97 583.4 1807.84 583.4C1806.77 583.4 1799.37 585.533 1785.64 589.8V676H1769.64V572ZM1859.29 696H1879.89C1882.96 696 1885.36 694.933 1887.09 692.8C1888.96 690.8 1889.89 688.2 1889.89 685V676.2H1873.29C1865.96 676.2 1859.76 673.8 1854.69 669C1849.62 664.2 1847.09 658.2 1847.09 651V597.2C1847.09 590 1849.62 584 1854.69 579.2C1859.89 574.4 1866.16 572 1873.49 572H1906.09V683.6C1906.09 691.067 1904.02 697 1899.89 701.4C1895.89 705.8 1890.22 708 1882.89 708H1859.29V696ZM1890.09 664.2V584H1876.69C1872.96 584 1869.76 585.267 1867.09 587.8C1864.42 590.333 1863.09 593.467 1863.09 597.2V651C1863.09 654.733 1864.42 657.867 1867.09 660.4C1869.76 662.933 1872.96 664.2 1876.69 664.2H1890.09ZM1940.24 677.4C1935.44 677.4 1931.84 675.733 1929.44 672.4C1927.17 669.067 1926.04 664.733 1926.04 659.4V572H1942.04V654.2C1942.04 657.933 1942.31 660.6 1942.84 662.2C1943.37 663.8 1944.64 664.6 1946.64 664.6C1947.57 664.6 1955.11 662.6 1969.24 658.6V572H1985.24V676H1973.84L1970.84 669.2C1968.71 670 1967.11 670.533 1966.04 670.8C1959.77 673.067 1954.71 674.733 1950.84 675.8C1946.97 676.867 1943.44 677.4 1940.24 677.4ZM2030.49 676C2025.69 676 2021.22 674.8 2017.09 672.4C2013.09 670 2009.89 666.733 2007.49 662.6C2005.22 658.467 2004.09 653.8 2004.09 648.6V638.2C2004.09 631.933 2005.62 626.667 2008.69 622.4C2011.89 618.133 2015.82 615.133 2020.49 613.4L2045.29 604.2V594.8C2045.29 591.6 2044.29 589 2042.29 587C2040.42 584.867 2037.96 583.8 2034.89 583.8H2012.29V572H2036.29C2043.62 572 2049.42 574.2 2053.69 578.6C2058.09 582.867 2060.29 588.733 2060.29 596.2V676H2030.49ZM2045.29 663.8V616.8L2027.69 623.4C2024.22 624.733 2021.76 626.533 2020.29 628.8C2018.96 631.067 2018.29 634.667 2018.29 639.6V650.8C2018.29 654.4 2019.62 657.467 2022.29 660C2024.96 662.533 2028.16 663.8 2031.89 663.8H2045.29ZM2090.74 696H2111.34C2114.4 696 2116.8 694.933 2118.54 692.8C2120.4 690.8 2121.34 688.2 2121.34 685V676.2H2104.74C2097.4 676.2 2091.2 673.8 2086.14 669C2081.07 664.2 2078.54 658.2 2078.54 651V597.2C2078.54 590 2081.07 584 2086.14 579.2C2091.34 574.4 2097.6 572 2104.94 572H2137.54V683.6C2137.54 691.067 2135.47 697 2131.34 701.4C2127.34 705.8 2121.67 708 2114.34 708H2090.74V696ZM2121.54 664.2V584H2108.14C2104.4 584 2101.2 585.267 2098.54 587.8C2095.87 590.333 2094.54 593.467 2094.54 597.2V651C2094.54 654.733 2095.87 657.867 2098.54 660.4C2101.2 662.933 2104.4 664.2 2108.14 664.2H2121.54ZM2180.28 676C2172.95 676 2167.08 673.8 2162.68 669.4C2158.42 665 2156.28 659.067 2156.28 651.6V598.4C2156.28 589.733 2158.68 582.933 2163.48 578C2168.28 573.067 2175.42 570.6 2184.88 570.6C2194.35 570.6 2201.42 573.067 2206.08 578C2210.88 582.933 2213.28 589.733 2213.28 598.4V607.6C2213.28 613.2 2211.68 617.467 2208.48 620.4C2205.28 623.2 2201.08 625.333 2195.88 626.8L2172.28 633.4V653C2172.28 656.2 2173.22 658.867 2175.08 661C2177.08 663 2179.62 664 2182.68 664H2204.28V676H2180.28ZM2184.48 617.4C2188.88 616.2 2191.82 615.333 2193.28 614.8C2194.88 614.133 2195.95 613.2 2196.48 612C2197.02 610.8 2197.28 608.8 2197.28 606V595C2197.28 590.733 2196.15 587.6 2193.88 585.6C2191.75 583.6 2188.75 582.6 2184.88 582.6C2181.15 582.6 2178.08 583.667 2175.68 585.8C2173.42 587.933 2172.28 591 2172.28 595V620.8L2184.48 617.4Z" fill="#34D320"/>
<path d="M458.76 890.98C450.08 890.98 443.453 888.787 438.88 884.4C434.307 879.92 432.02 873.713 432.02 865.78V816.22C432.02 808.287 434.307 802.127 438.88 797.74C443.453 793.26 450.08 791.02 458.76 791.02C467.533 791.02 474.207 793.26 478.78 797.74C483.353 802.127 485.64 808.287 485.64 816.22V865.78C485.64 873.713 483.353 879.92 478.78 884.4C474.207 888.787 467.533 890.98 458.76 890.98ZM458.76 881.74C462.867 881.74 466.32 880.573 469.12 878.24C471.92 875.813 473.32 872.453 473.32 868.16V813.84C473.32 809.547 471.92 806.233 469.12 803.9C466.32 801.473 462.867 800.26 458.76 800.26C454.653 800.26 451.2 801.473 448.4 803.9C445.693 806.233 444.34 809.547 444.34 813.84V868.16C444.34 872.453 445.693 875.813 448.4 878.24C451.2 880.573 454.653 881.74 458.76 881.74ZM536.48 890C531.346 890 527.24 888.46 524.16 885.38C521.173 882.3 519.68 878.147 519.68 872.92V835.68C519.68 829.8 521.22 825.273 524.3 822.1C527.38 818.833 531.86 817.2 537.74 817.2H553.28V825.6H538.02C535.873 825.6 534.146 826.347 532.84 827.84C531.533 829.24 530.88 831.06 530.88 833.3V873.9C530.88 876.14 531.533 878.007 532.84 879.5C534.24 880.9 536.013 881.6 538.16 881.6H553.28V890H536.48ZM580.972 811.74L576.352 807.54L592.592 793.68L599.732 800.26L580.972 811.74ZM580.832 890.98C574.299 890.98 569.212 889.347 565.572 886.08C562.026 882.72 560.252 878.1 560.252 872.22V834.98C560.252 829.1 562.026 824.527 565.572 821.26C569.212 817.9 574.299 816.22 580.832 816.22C587.366 816.22 592.406 817.9 595.952 821.26C599.592 824.527 601.412 829.1 601.412 834.98V872.22C601.412 878.1 599.592 882.72 595.952 886.08C592.406 889.347 587.366 890.98 580.832 890.98ZM580.832 882.3C583.819 882.3 586.152 881.46 587.832 879.78C589.606 878.007 590.492 875.487 590.492 872.22V834.98C590.492 831.713 589.606 829.24 587.832 827.56C586.152 825.787 583.819 824.9 580.832 824.9C577.846 824.9 575.466 825.787 573.692 827.56C572.012 829.24 571.172 831.713 571.172 834.98V872.22C571.172 875.487 572.012 878.007 573.692 879.78C575.466 881.46 577.846 882.3 580.832 882.3ZM633.896 890C628.016 890 623.256 888.273 619.616 884.82C615.976 881.367 614.156 876.747 614.156 870.96V836.1C614.156 832.087 615.229 828.68 617.376 825.88C619.616 823.08 622.369 821.167 625.636 820.14L644.396 813.56V792H655.596V890H633.896ZM644.396 881.6V822.8L631.936 827C629.509 827.747 627.782 828.96 626.756 830.64C625.822 832.227 625.356 834.793 625.356 838.34V870.96C625.356 874.32 626.336 876.933 628.296 878.8C630.256 880.667 632.916 881.6 636.276 881.6H644.396ZM672.427 805.3V794.1H683.627V805.3H672.427ZM672.427 890V817.2H683.627V890H672.427ZM706.335 904H720.755C722.901 904 724.581 903.253 725.795 901.76C727.101 900.36 727.755 898.54 727.755 896.3V890.14H716.135C711.001 890.14 706.661 888.46 703.115 885.1C699.568 881.74 697.795 877.54 697.795 872.5V834.84C697.795 829.8 699.568 825.6 703.115 822.24C706.755 818.88 711.141 817.2 716.275 817.2H739.095V895.32C739.095 900.547 737.648 904.7 734.755 907.78C731.955 910.86 727.988 912.4 722.855 912.4H706.335V904ZM727.895 881.74V825.6H718.515C715.901 825.6 713.661 826.487 711.795 828.26C709.928 830.033 708.995 832.227 708.995 834.84V872.5C708.995 875.113 709.928 877.307 711.795 879.08C713.661 880.853 715.901 881.74 718.515 881.74H727.895ZM772.239 890.98C765.705 890.98 760.619 889.347 756.979 886.08C753.432 882.72 751.659 878.1 751.659 872.22V834.98C751.659 829.1 753.432 824.527 756.979 821.26C760.619 817.9 765.705 816.22 772.239 816.22C778.772 816.22 783.812 817.9 787.359 821.26C790.999 824.527 792.819 829.1 792.819 834.98V872.22C792.819 878.1 790.999 882.72 787.359 886.08C783.812 889.347 778.772 890.98 772.239 890.98ZM772.239 882.3C775.225 882.3 777.559 881.46 779.239 879.78C781.012 878.007 781.899 875.487 781.899 872.22V834.98C781.899 831.713 781.012 829.24 779.239 827.56C777.559 825.787 775.225 824.9 772.239 824.9C769.252 824.9 766.872 825.787 765.099 827.56C763.419 829.24 762.579 831.713 762.579 834.98V872.22C762.579 875.487 763.419 878.007 765.099 879.78C766.872 881.46 769.252 882.3 772.239 882.3ZM855.177 890H843.557C838.423 890 834.083 888.367 830.537 885.1C826.99 881.74 825.217 877.54 825.217 872.5V834.84C825.217 829.8 826.99 825.6 830.537 822.24C834.177 818.88 838.563 817.2 843.697 817.2H866.517V912.4H855.177V890ZM855.317 881.6V825.6H845.937C843.323 825.6 841.083 826.487 839.217 828.26C837.35 830.033 836.417 832.227 836.417 834.84V872.36C836.417 874.973 837.35 877.167 839.217 878.94C841.083 880.713 843.323 881.6 845.937 881.6H855.317ZM891.924 890.98C888.564 890.98 886.044 889.813 884.364 887.48C882.778 885.147 881.984 882.113 881.984 878.38V817.2H893.184V874.74C893.184 877.353 893.371 879.22 893.744 880.34C894.118 881.46 895.004 882.02 896.404 882.02C897.058 882.02 902.331 880.62 912.224 877.82V817.2H923.424V890H915.444L913.344 885.24C911.851 885.8 910.731 886.173 909.984 886.36C905.598 887.947 902.051 889.113 899.344 889.86C896.638 890.607 894.164 890.98 891.924 890.98ZM954.819 890C949.686 890 945.579 888.46 942.499 885.38C939.513 882.3 938.019 878.147 938.019 872.92V835.68C938.019 829.613 939.699 824.853 943.059 821.4C946.419 817.947 951.413 816.22 958.039 816.22C964.666 816.22 969.613 817.947 972.879 821.4C976.239 824.853 977.919 829.613 977.919 835.68V842.12C977.919 846.04 976.799 849.027 974.559 851.08C972.319 853.04 969.379 854.533 965.739 855.56L949.219 860.18V873.9C949.219 876.14 949.873 878.007 951.179 879.5C952.579 880.9 954.353 881.6 956.499 881.6H971.619V890H954.819ZM957.759 848.98C960.839 848.14 962.893 847.533 963.919 847.16C965.039 846.693 965.786 846.04 966.159 845.2C966.533 844.36 966.719 842.96 966.719 841V833.3C966.719 830.313 965.926 828.12 964.339 826.72C962.846 825.32 960.746 824.62 958.039 824.62C955.426 824.62 953.279 825.367 951.599 826.86C950.013 828.353 949.219 830.5 949.219 833.3V851.36L957.759 848.98ZM1018.66 890.98C1015.3 890.98 1012.78 889.813 1011.1 887.48C1009.52 885.147 1008.72 882.113 1008.72 878.38V817.2H1019.92V874.74C1019.92 877.353 1020.11 879.22 1020.48 880.34C1020.86 881.46 1021.74 882.02 1023.14 882.02C1023.8 882.02 1029.07 880.62 1038.96 877.82V817.2H1050.16V890H1042.18L1040.08 885.24C1038.59 885.8 1037.47 886.173 1036.72 886.36C1032.34 887.947 1028.79 889.113 1026.08 889.86C1023.38 890.607 1020.9 890.98 1018.66 890.98ZM1067 817.2H1075.68L1076.94 821.26L1082.68 819.58C1086.6 818.367 1089.68 817.527 1091.92 817.06C1094.25 816.5 1096.44 816.22 1098.5 816.22C1101.86 816.22 1104.33 817.387 1105.92 819.72C1107.5 822.053 1108.3 825.087 1108.3 828.82V890H1097.1V832.46C1097.1 829.753 1096.91 827.887 1096.54 826.86C1096.16 825.74 1095.23 825.18 1093.74 825.18C1092.99 825.18 1087.81 826.673 1078.2 829.66V890H1067V817.2ZM1123.87 805.3V794.1H1135.07V805.3H1123.87ZM1123.87 890V817.2H1135.07V890H1123.87ZM1155.4 826.44H1147V817.2H1155.4V809.08C1155.4 803.853 1156.89 799.7 1159.88 796.62C1162.87 793.54 1166.93 792 1172.06 792H1178.22V800.4H1174.02C1171.87 800.4 1170.1 801.147 1168.7 802.64C1167.3 804.133 1166.6 805.953 1166.6 808.1V817.2H1177.94V826.44H1166.6V890H1155.4V826.44ZM1187.04 805.3V794.1H1198.24V805.3H1187.04ZM1187.04 890V817.2H1198.24V890H1187.04ZM1230.46 890C1225.33 890 1221.22 888.46 1218.14 885.38C1215.16 882.3 1213.66 878.147 1213.66 872.92V835.68C1213.66 829.8 1215.2 825.273 1218.28 822.1C1221.36 818.833 1225.84 817.2 1231.72 817.2H1247.26V825.6H1232C1229.86 825.6 1228.13 826.347 1226.82 827.84C1225.52 829.24 1224.86 831.06 1224.86 833.3V873.9C1224.86 876.14 1225.52 878.007 1226.82 879.5C1228.22 880.9 1230 881.6 1232.14 881.6H1247.26V890H1230.46ZM1274.82 890.98C1268.28 890.98 1263.2 889.347 1259.56 886.08C1256.01 882.72 1254.24 878.1 1254.24 872.22V834.98C1254.24 829.1 1256.01 824.527 1259.56 821.26C1263.2 817.9 1268.28 816.22 1274.82 816.22C1281.35 816.22 1286.39 817.9 1289.94 821.26C1293.58 824.527 1295.4 829.1 1295.4 834.98V872.22C1295.4 878.1 1293.58 882.72 1289.94 886.08C1286.39 889.347 1281.35 890.98 1274.82 890.98ZM1274.82 882.3C1277.8 882.3 1280.14 881.46 1281.82 879.78C1283.59 878.007 1284.48 875.487 1284.48 872.22V834.98C1284.48 831.713 1283.59 829.24 1281.82 827.56C1280.14 825.787 1277.8 824.9 1274.82 824.9C1271.83 824.9 1269.45 825.787 1267.68 827.56C1266 829.24 1265.16 831.713 1265.16 834.98V872.22C1265.16 875.487 1266 878.007 1267.68 879.78C1269.45 881.46 1271.83 882.3 1274.82 882.3ZM1317.94 890.98C1314.58 890.98 1312.06 889.813 1310.38 887.48C1308.79 885.147 1308 882.113 1308 878.38V817.2H1319.2V874.74C1319.2 877.353 1319.39 879.22 1319.76 880.34C1320.13 881.46 1321.02 882.02 1322.42 882.02C1323.07 882.02 1328.35 880.62 1338.24 877.82V817.2H1349.44V890H1341.46L1339.36 885.24C1337.87 885.8 1336.75 886.173 1336 886.36C1331.61 887.947 1328.07 889.113 1325.36 889.86C1322.65 890.607 1320.18 890.98 1317.94 890.98ZM1402.17 890C1398.81 890 1395.68 889.16 1392.79 887.48C1389.99 885.8 1387.75 883.513 1386.07 880.62C1384.48 877.727 1383.69 874.46 1383.69 870.82V863.54C1383.69 859.153 1384.76 855.467 1386.91 852.48C1389.15 849.493 1391.9 847.393 1395.17 846.18L1412.53 839.74V833.16C1412.53 830.92 1411.83 829.1 1410.43 827.7C1409.12 826.207 1407.4 825.46 1405.25 825.46H1389.43V817.2H1406.23C1411.36 817.2 1415.42 818.74 1418.41 821.82C1421.49 824.807 1423.03 828.913 1423.03 834.14V890H1402.17ZM1412.53 881.46V848.56L1400.21 853.18C1397.78 854.113 1396.06 855.373 1395.03 856.96C1394.1 858.547 1393.63 861.067 1393.63 864.52V872.36C1393.63 874.88 1394.56 877.027 1396.43 878.8C1398.3 880.573 1400.54 881.46 1403.15 881.46H1412.53ZM1474.92 890C1469.78 890 1465.68 888.46 1462.6 885.38C1459.61 882.3 1458.12 878.147 1458.12 872.92V835.68C1458.12 829.8 1459.66 825.273 1462.74 822.1C1465.82 818.833 1470.3 817.2 1476.18 817.2H1491.72V825.6H1476.46C1474.31 825.6 1472.58 826.347 1471.28 827.84C1469.97 829.24 1469.32 831.06 1469.32 833.3V873.9C1469.32 876.14 1469.97 878.007 1471.28 879.5C1472.68 880.9 1474.45 881.6 1476.6 881.6H1491.72V890H1474.92ZM1519.27 890.98C1512.74 890.98 1507.65 889.347 1504.01 886.08C1500.46 882.72 1498.69 878.1 1498.69 872.22V834.98C1498.69 829.1 1500.46 824.527 1504.01 821.26C1507.65 817.9 1512.74 816.22 1519.27 816.22C1525.8 816.22 1530.84 817.9 1534.39 821.26C1538.03 824.527 1539.85 829.1 1539.85 834.98V872.22C1539.85 878.1 1538.03 882.72 1534.39 886.08C1530.84 889.347 1525.8 890.98 1519.27 890.98ZM1519.27 882.3C1522.26 882.3 1524.59 881.46 1526.27 879.78C1528.04 878.007 1528.93 875.487 1528.93 872.22V834.98C1528.93 831.713 1528.04 829.24 1526.27 827.56C1524.59 825.787 1522.26 824.9 1519.27 824.9C1516.28 824.9 1513.9 825.787 1512.13 827.56C1510.45 829.24 1509.61 831.713 1509.61 834.98V872.22C1509.61 875.487 1510.45 878.007 1512.13 879.78C1513.9 881.46 1516.28 882.3 1519.27 882.3ZM1553.85 817.2H1562.53L1563.79 821.26L1569.53 819.58C1573.45 818.367 1576.53 817.527 1578.77 817.06C1581.11 816.5 1583.3 816.22 1585.35 816.22C1588.71 816.22 1591.19 817.387 1592.77 819.72C1594.36 822.053 1595.15 825.087 1595.15 828.82V890H1583.95V832.46C1583.95 829.753 1583.77 827.887 1583.39 826.86C1583.02 825.74 1582.09 825.18 1580.59 825.18C1579.85 825.18 1574.67 826.673 1565.05 829.66V890H1553.85V817.2ZM1606.53 881.6H1618.43C1622.44 881.6 1625.33 880.527 1627.11 878.38C1628.97 876.14 1629.91 873.247 1629.91 869.7C1629.91 866.9 1629.07 864.52 1627.39 862.56C1625.71 860.6 1623.19 858.313 1619.83 855.7C1616.93 853.367 1614.6 851.36 1612.83 849.68C1611.15 847.907 1609.65 845.76 1608.35 843.24C1607.13 840.627 1606.53 837.64 1606.53 834.28C1606.53 829.333 1608.16 825.273 1611.43 822.1C1614.79 818.833 1619.27 817.2 1624.87 817.2H1637.05V825.6H1626.97C1620.34 825.6 1617.03 828.727 1617.03 834.98C1617.03 837.407 1617.77 839.507 1619.27 841.28C1620.76 843.053 1623.09 845.153 1626.27 847.58C1629.16 849.82 1631.54 851.873 1633.41 853.74C1635.27 855.513 1636.86 857.8 1638.17 860.6C1639.47 863.307 1640.13 866.527 1640.13 870.26C1640.13 876.887 1638.35 881.833 1634.81 885.1C1631.35 888.367 1626.45 890 1620.11 890H1606.53V881.6ZM1673 890C1667.87 890 1663.81 888.46 1660.82 885.38C1657.83 882.3 1656.34 878.147 1656.34 872.92V825.6H1647.94V817.2H1656.34V796.06L1667.54 791.86V817.2H1678.74V825.6H1667.54V873.9C1667.54 876.14 1668.15 878.007 1669.36 879.5C1670.67 880.9 1672.39 881.6 1674.54 881.6H1678.74V890H1673ZM1689.89 817.2H1698.57L1699.83 822.38L1703.33 820.7C1706.31 819.207 1708.79 818.087 1710.75 817.34C1712.8 816.593 1714.85 816.22 1716.91 816.22V824.48C1715.69 824.48 1714.06 824.853 1712.01 825.6C1709.95 826.253 1706.31 827.84 1701.09 830.36V890H1689.89V817.2ZM1735.89 890.98C1732.53 890.98 1730.01 889.813 1728.33 887.48C1726.74 885.147 1725.95 882.113 1725.95 878.38V817.2H1737.15V874.74C1737.15 877.353 1737.34 879.22 1737.71 880.34C1738.08 881.46 1738.97 882.02 1740.37 882.02C1741.02 882.02 1746.3 880.62 1756.19 877.82V817.2H1767.39V890H1759.41L1757.31 885.24C1755.82 885.8 1754.7 886.173 1753.95 886.36C1749.56 887.947 1746.02 889.113 1743.31 889.86C1740.6 890.607 1738.13 890.98 1735.89 890.98ZM1806.76 894.48C1810.12 894.48 1812.69 895.087 1814.46 896.3C1816.24 897.513 1817.12 899.707 1817.12 902.88C1817.12 909.227 1813.48 912.4 1806.2 912.4H1791.22V905.82H1802.42C1804.57 905.82 1806.16 905.587 1807.18 905.12C1808.21 904.653 1808.72 903.86 1808.72 902.74C1808.72 901.527 1808.35 900.733 1807.6 900.36C1806.86 899.987 1805.64 899.8 1803.96 899.8H1796.68L1799.06 890H1799.62C1794.49 890 1790.38 888.46 1787.3 885.38C1784.32 882.3 1782.82 878.147 1782.82 872.92V835.68C1782.82 829.8 1784.36 825.273 1787.44 822.1C1790.52 818.833 1795 817.2 1800.88 817.2H1816.42V825.6H1801.16C1799.02 825.6 1797.29 826.347 1795.98 827.84C1794.68 829.24 1794.02 831.06 1794.02 833.3V873.9C1794.02 876.14 1794.68 878.007 1795.98 879.5C1797.38 880.9 1799.16 881.6 1801.3 881.6H1816.42V890H1807.74L1806.76 894.48ZM1822.98 810.2C1823.07 806 1823.86 802.827 1825.36 800.68C1826.85 798.44 1829.56 797.32 1833.48 797.32C1834.5 797.32 1837.54 798.067 1842.58 799.56C1847.52 801.147 1850.7 801.94 1852.1 801.94C1853.22 801.94 1853.96 801.613 1854.34 800.96C1854.71 800.213 1854.94 799.327 1855.04 798.3C1855.22 797.273 1855.36 796.48 1855.46 795.92H1864.28C1864.18 799.093 1863.95 801.66 1863.58 803.62C1863.2 805.487 1862.22 807.073 1860.64 808.38C1859.14 809.593 1856.86 810.2 1853.78 810.2C1852.38 810.2 1849.2 809.407 1844.26 807.82C1839.22 806.327 1836.18 805.58 1835.16 805.58C1833.94 805.58 1833.15 805.813 1832.78 806.28C1832.5 806.747 1832.26 807.4 1832.08 808.24C1831.98 809.08 1831.89 809.733 1831.8 810.2H1822.98ZM1841.04 890C1837.68 890 1834.55 889.16 1831.66 887.48C1828.86 885.8 1826.62 883.513 1824.94 880.62C1823.35 877.727 1822.56 874.46 1822.56 870.82V863.54C1822.56 859.153 1823.63 855.467 1825.78 852.48C1828.02 849.493 1830.77 847.393 1834.04 846.18L1851.4 839.74V833.16C1851.4 830.92 1850.7 829.1 1849.3 827.7C1847.99 826.207 1846.26 825.46 1844.12 825.46H1828.3V817.2H1845.1C1850.23 817.2 1854.29 818.74 1857.28 821.82C1860.36 824.807 1861.9 828.913 1861.9 834.14V890H1841.04ZM1851.4 881.46V848.56L1839.08 853.18C1836.65 854.113 1834.92 855.373 1833.9 856.96C1832.96 858.547 1832.5 861.067 1832.5 864.52V872.36C1832.5 874.88 1833.43 877.027 1835.3 878.8C1837.16 880.573 1839.4 881.46 1842.02 881.46H1851.4ZM1895.11 890.98C1888.58 890.98 1883.49 889.347 1879.85 886.08C1876.3 882.72 1874.53 878.1 1874.53 872.22V834.98C1874.53 829.1 1876.3 824.527 1879.85 821.26C1883.49 817.9 1888.58 816.22 1895.11 816.22C1901.64 816.22 1906.68 817.9 1910.23 821.26C1913.87 824.527 1915.69 829.1 1915.69 834.98V872.22C1915.69 878.1 1913.87 882.72 1910.23 886.08C1906.68 889.347 1901.64 890.98 1895.11 890.98ZM1895.11 882.3C1898.1 882.3 1900.43 881.46 1902.11 879.78C1903.88 878.007 1904.77 875.487 1904.77 872.22V834.98C1904.77 831.713 1903.88 829.24 1902.11 827.56C1900.43 825.787 1898.1 824.9 1895.11 824.9C1892.12 824.9 1889.74 825.787 1887.97 827.56C1886.29 829.24 1885.45 831.713 1885.45 834.98V872.22C1885.45 875.487 1886.29 878.007 1887.97 879.78C1889.74 881.46 1892.12 882.3 1895.11 882.3ZM1969.23 890C1963.35 890 1958.59 888.273 1954.95 884.82C1951.31 881.367 1949.49 876.747 1949.49 870.96V836.1C1949.49 832.087 1950.56 828.68 1952.71 825.88C1954.95 823.08 1957.7 821.167 1960.97 820.14L1979.73 813.56V792H1990.93V890H1969.23ZM1979.73 881.6V822.8L1967.27 827C1964.84 827.747 1963.11 828.96 1962.09 830.64C1961.15 832.227 1960.69 834.793 1960.69 838.34V870.96C1960.69 874.32 1961.67 876.933 1963.63 878.8C1965.59 880.667 1968.25 881.6 1971.61 881.6H1979.73ZM2022.32 890C2017.19 890 2013.08 888.46 2010 885.38C2007.01 882.3 2005.52 878.147 2005.52 872.92V835.68C2005.52 829.613 2007.2 824.853 2010.56 821.4C2013.92 817.947 2018.91 816.22 2025.54 816.22C2032.17 816.22 2037.11 817.947 2040.38 821.4C2043.74 824.853 2045.42 829.613 2045.42 835.68V842.12C2045.42 846.04 2044.3 849.027 2042.06 851.08C2039.82 853.04 2036.88 854.533 2033.24 855.56L2016.72 860.18V873.9C2016.72 876.14 2017.37 878.007 2018.68 879.5C2020.08 880.9 2021.85 881.6 2024 881.6H2039.12V890H2022.32ZM2025.26 848.98C2028.34 848.14 2030.39 847.533 2031.42 847.16C2032.54 846.693 2033.29 846.04 2033.66 845.2C2034.03 844.36 2034.22 842.96 2034.22 841V833.3C2034.22 830.313 2033.43 828.12 2031.84 826.72C2030.35 825.32 2028.25 824.62 2025.54 824.62C2022.93 824.62 2020.78 825.367 2019.1 826.86C2017.51 828.353 2016.72 830.5 2016.72 833.3V851.36L2025.26 848.98ZM452.88 1070C447 1070 442.24 1068.27 438.6 1064.82C434.96 1061.37 433.14 1056.75 433.14 1050.96V1016.1C433.14 1012.09 434.213 1008.68 436.36 1005.88C438.6 1003.08 441.353 1001.17 444.62 1000.14L463.38 993.56V972H474.58V1070H452.88ZM463.38 1061.6V1002.8L450.92 1007C448.493 1007.75 446.767 1008.96 445.74 1010.64C444.807 1012.23 444.34 1014.79 444.34 1018.34V1050.96C444.34 1054.32 445.32 1056.93 447.28 1058.8C449.24 1060.67 451.9 1061.6 455.26 1061.6H463.38ZM509.192 1070.98C502.658 1070.98 497.572 1069.35 493.932 1066.08C490.385 1062.72 488.612 1058.1 488.612 1052.22V1014.98C488.612 1009.1 490.385 1004.53 493.932 1001.26C497.572 997.9 502.658 996.22 509.192 996.22C515.725 996.22 520.765 997.9 524.312 1001.26C527.952 1004.53 529.772 1009.1 529.772 1014.98V1052.22C529.772 1058.1 527.952 1062.72 524.312 1066.08C520.765 1069.35 515.725 1070.98 509.192 1070.98ZM509.192 1062.3C512.178 1062.3 514.512 1061.46 516.192 1059.78C517.965 1058.01 518.852 1055.49 518.852 1052.22V1014.98C518.852 1011.71 517.965 1009.24 516.192 1007.56C514.512 1005.79 512.178 1004.9 509.192 1004.9C506.205 1004.9 503.825 1005.79 502.052 1007.56C500.372 1009.24 499.532 1011.71 499.532 1014.98V1052.22C499.532 1055.49 500.372 1058.01 502.052 1059.78C503.825 1061.46 506.205 1062.3 509.192 1062.3ZM559.175 1070C554.042 1070 549.935 1068.46 546.855 1065.38C543.868 1062.3 542.375 1058.15 542.375 1052.92V1015.68C542.375 1009.8 543.915 1005.27 546.995 1002.1C550.075 998.833 554.555 997.2 560.435 997.2H575.975V1005.6H560.715C558.568 1005.6 556.842 1006.35 555.535 1007.84C554.228 1009.24 553.575 1011.06 553.575 1013.3V1053.9C553.575 1056.14 554.228 1058.01 555.535 1059.5C556.935 1060.9 558.708 1061.6 560.855 1061.6H575.975V1070H559.175ZM594.288 1070.98C590.928 1070.98 588.408 1069.81 586.728 1067.48C585.141 1065.15 584.348 1062.11 584.348 1058.38V997.2H595.548V1054.74C595.548 1057.35 595.734 1059.22 596.108 1060.34C596.481 1061.46 597.368 1062.02 598.768 1062.02C599.421 1062.02 604.694 1060.62 614.588 1057.82V997.2H625.788V1070H617.808L615.708 1065.24C614.214 1065.8 613.094 1066.17 612.348 1066.36C607.961 1067.95 604.414 1069.11 601.708 1069.86C599.001 1070.61 596.528 1070.98 594.288 1070.98ZM642.623 997.2H651.303L652.563 1001.26L658.303 999.58C662.223 998.367 665.303 997.527 667.543 997.06C669.876 996.5 672.069 996.22 674.123 996.22C678.136 996.22 680.936 997.993 682.523 1001.54C685.136 1000.61 688.823 999.487 693.583 998.18C698.343 996.873 701.843 996.22 704.083 996.22C707.443 996.22 709.916 997.387 711.503 999.72C713.183 1002.05 714.023 1005.09 714.023 1008.82V1070H702.823V1012.46C702.823 1009.75 702.636 1007.89 702.263 1006.86C701.889 1005.74 700.956 1005.18 699.463 1005.18C698.716 1005.18 693.583 1006.67 684.063 1009.66V1070H672.863V1012.46C672.863 1009.75 672.676 1007.89 672.303 1006.86C671.929 1005.74 670.996 1005.18 669.503 1005.18C668.756 1005.18 663.529 1006.67 653.823 1009.66V1070H642.623V997.2ZM743.999 1070C738.866 1070 734.759 1068.46 731.679 1065.38C728.692 1062.3 727.199 1058.15 727.199 1052.92V1015.68C727.199 1009.61 728.879 1004.85 732.239 1001.4C735.599 997.947 740.592 996.22 747.219 996.22C753.846 996.22 758.792 997.947 762.059 1001.4C765.419 1004.85 767.099 1009.61 767.099 1015.68V1022.12C767.099 1026.04 765.979 1029.03 763.739 1031.08C761.499 1033.04 758.559 1034.53 754.919 1035.56L738.399 1040.18V1053.9C738.399 1056.14 739.052 1058.01 740.359 1059.5C741.759 1060.9 743.532 1061.6 745.679 1061.6H760.799V1070H743.999ZM746.939 1028.98C750.019 1028.14 752.072 1027.53 753.099 1027.16C754.219 1026.69 754.966 1026.04 755.339 1025.2C755.712 1024.36 755.899 1022.96 755.899 1021V1013.3C755.899 1010.31 755.106 1008.12 753.519 1006.72C752.026 1005.32 749.926 1004.62 747.219 1004.62C744.606 1004.62 742.459 1005.37 740.779 1006.86C739.192 1008.35 738.399 1010.5 738.399 1013.3V1031.36L746.939 1028.98ZM778.248 997.2H786.928L788.188 1001.26L793.928 999.58C797.848 998.367 800.928 997.527 803.168 997.06C805.501 996.5 807.694 996.22 809.748 996.22C813.108 996.22 815.581 997.387 817.168 999.72C818.754 1002.05 819.548 1005.09 819.548 1008.82V1070H808.348V1012.46C808.348 1009.75 808.161 1007.89 807.788 1006.86C807.414 1005.74 806.481 1005.18 804.988 1005.18C804.241 1005.18 799.061 1006.67 789.448 1009.66V1070H778.248V997.2ZM855.423 1070C850.289 1070 846.229 1068.46 843.243 1065.38C840.256 1062.3 838.763 1058.15 838.763 1052.92V1005.6H830.363V997.2H838.763V976.06L849.963 971.86V997.2H861.163V1005.6H849.963V1053.9C849.963 1056.14 850.569 1058.01 851.783 1059.5C853.089 1060.9 854.816 1061.6 856.963 1061.6H861.163V1070H855.423ZM890.09 1070.98C883.557 1070.98 878.47 1069.35 874.83 1066.08C871.283 1062.72 869.51 1058.1 869.51 1052.22V1014.98C869.51 1009.1 871.283 1004.53 874.83 1001.26C878.47 997.9 883.557 996.22 890.09 996.22C896.623 996.22 901.663 997.9 905.21 1001.26C908.85 1004.53 910.67 1009.1 910.67 1014.98V1052.22C910.67 1058.1 908.85 1062.72 905.21 1066.08C901.663 1069.35 896.623 1070.98 890.09 1070.98ZM890.09 1062.3C893.077 1062.3 895.41 1061.46 897.09 1059.78C898.863 1058.01 899.75 1055.49 899.75 1052.22V1014.98C899.75 1011.71 898.863 1009.24 897.09 1007.56C895.41 1005.79 893.077 1004.9 890.09 1004.9C887.103 1004.9 884.723 1005.79 882.95 1007.56C881.27 1009.24 880.43 1011.71 880.43 1014.98V1052.22C880.43 1055.49 881.27 1058.01 882.95 1059.78C884.723 1061.46 887.103 1062.3 890.09 1062.3ZM920.473 1061.6H932.373C936.387 1061.6 939.28 1060.53 941.053 1058.38C942.92 1056.14 943.853 1053.25 943.853 1049.7C943.853 1046.9 943.013 1044.52 941.333 1042.56C939.653 1040.6 937.133 1038.31 933.773 1035.7C930.88 1033.37 928.547 1031.36 926.773 1029.68C925.093 1027.91 923.6 1025.76 922.293 1023.24C921.08 1020.63 920.473 1017.64 920.473 1014.28C920.473 1009.33 922.107 1005.27 925.373 1002.1C928.733 998.833 933.213 997.2 938.813 997.2H950.993V1005.6H940.913C934.287 1005.6 930.973 1008.73 930.973 1014.98C930.973 1017.41 931.72 1019.51 933.213 1021.28C934.707 1023.05 937.04 1025.15 940.213 1027.58C943.107 1029.82 945.487 1031.87 947.353 1033.74C949.22 1035.51 950.807 1037.8 952.113 1040.6C953.42 1043.31 954.073 1046.53 954.073 1050.26C954.073 1056.89 952.3 1061.83 948.753 1065.1C945.3 1068.37 940.4 1070 934.053 1070H920.473V1061.6ZM987.701 972H998.901V1000.98L1005.06 999.16C1008.89 998.04 1011.69 997.293 1013.46 996.92C1015.33 996.453 1017.24 996.22 1019.2 996.22C1022.56 996.22 1025.03 997.387 1026.62 999.72C1028.21 1002.05 1029 1005.09 1029 1008.82V1070H1017.8V1012.46C1017.8 1009.75 1017.61 1007.89 1017.24 1006.86C1016.87 1005.74 1015.93 1005.18 1014.44 1005.18C1013.69 1005.18 1008.51 1006.67 998.901 1009.66V1070H987.701V972ZM1045.94 985.3V974.1H1057.14V985.3H1045.94ZM1045.94 1070V997.2H1057.14V1070H1045.94ZM1073.97 997.2H1096.65C1101.78 997.2 1106.12 998.88 1109.67 1002.24C1113.31 1005.6 1115.13 1009.8 1115.13 1014.84V1052.5C1115.13 1057.54 1113.36 1061.74 1109.81 1065.1C1106.26 1068.37 1101.92 1070 1096.79 1070H1085.17V1092.4H1073.97V997.2ZM1094.41 1061.74C1097.02 1061.74 1099.26 1060.85 1101.13 1059.08C1103 1057.31 1103.93 1055.11 1103.93 1052.5V1014.84C1103.93 1012.23 1103 1010.03 1101.13 1008.26C1099.26 1006.49 1097.02 1005.6 1094.41 1005.6H1085.17V1061.74H1094.41ZM1142.94 1070C1137.81 1070 1133.7 1068.46 1130.62 1065.38C1127.64 1062.3 1126.14 1058.15 1126.14 1052.92V1015.68C1126.14 1009.61 1127.82 1004.85 1131.18 1001.4C1134.54 997.947 1139.54 996.22 1146.16 996.22C1152.79 996.22 1157.74 997.947 1161 1001.4C1164.36 1004.85 1166.04 1009.61 1166.04 1015.68V1022.12C1166.04 1026.04 1164.92 1029.03 1162.68 1031.08C1160.44 1033.04 1157.5 1034.53 1153.86 1035.56L1137.34 1040.18V1053.9C1137.34 1056.14 1138 1058.01 1139.3 1059.5C1140.7 1060.9 1142.48 1061.6 1144.62 1061.6H1159.74V1070H1142.94ZM1145.88 1028.98C1148.96 1028.14 1151.02 1027.53 1152.04 1027.16C1153.16 1026.69 1153.91 1026.04 1154.28 1025.2C1154.66 1024.36 1154.84 1022.96 1154.84 1021V1013.3C1154.84 1010.31 1154.05 1008.12 1152.46 1006.72C1150.97 1005.32 1148.87 1004.62 1146.16 1004.62C1143.55 1004.62 1141.4 1005.37 1139.72 1006.86C1138.14 1008.35 1137.34 1010.5 1137.34 1013.3V1031.36L1145.88 1028.98ZM1177.19 997.2H1185.87L1187.13 1002.38L1190.63 1000.7C1193.62 999.207 1196.09 998.087 1198.05 997.34C1200.11 996.593 1202.16 996.22 1204.21 996.22V1004.48C1203 1004.48 1201.37 1004.85 1199.31 1005.6C1197.26 1006.25 1193.62 1007.84 1188.39 1010.36V1070H1177.19V997.2ZM1234.95 1070C1229.82 1070 1225.76 1068.46 1222.77 1065.38C1219.79 1062.3 1218.29 1058.15 1218.29 1052.92V1005.6H1209.89V997.2H1218.29V976.06L1229.49 971.86V997.2H1240.69V1005.6H1229.49V1053.9C1229.49 1056.14 1230.1 1058.01 1231.31 1059.5C1232.62 1060.9 1234.35 1061.6 1236.49 1061.6H1240.69V1070H1234.95ZM1266.4 1070C1261.27 1070 1257.16 1068.46 1254.08 1065.38C1251.09 1062.3 1249.6 1058.15 1249.6 1052.92V1015.68C1249.6 1009.61 1251.28 1004.85 1254.64 1001.4C1258 997.947 1262.99 996.22 1269.62 996.22C1276.25 996.22 1281.19 997.947 1284.46 1001.4C1287.82 1004.85 1289.5 1009.61 1289.5 1015.68V1022.12C1289.5 1026.04 1288.38 1029.03 1286.14 1031.08C1283.9 1033.04 1280.96 1034.53 1277.32 1035.56L1260.8 1040.18V1053.9C1260.8 1056.14 1261.45 1058.01 1262.76 1059.5C1264.16 1060.9 1265.93 1061.6 1268.08 1061.6H1283.2V1070H1266.4ZM1269.34 1028.98C1272.42 1028.14 1274.47 1027.53 1275.5 1027.16C1276.62 1026.69 1277.37 1026.04 1277.74 1025.2C1278.11 1024.36 1278.3 1022.96 1278.3 1021V1013.3C1278.3 1010.31 1277.51 1008.12 1275.92 1006.72C1274.43 1005.32 1272.33 1004.62 1269.62 1004.62C1267.01 1004.62 1264.86 1005.37 1263.18 1006.86C1261.59 1008.35 1260.8 1010.5 1260.8 1013.3V1031.36L1269.34 1028.98ZM1293.65 1070L1313.81 1033.46L1295.05 997.2H1305.83L1318.99 1022.96L1332.29 997.2H1343.07L1324.31 1033.46L1344.47 1070H1332.71L1318.99 1043.4L1305.41 1070H1293.65ZM1373.86 1070C1368.73 1070 1364.67 1068.46 1361.68 1065.38C1358.69 1062.3 1357.2 1058.15 1357.2 1052.92V1005.6H1348.8V997.2H1357.2V976.06L1368.4 971.86V997.2H1379.6V1005.6H1368.4V1053.9C1368.4 1056.14 1369.01 1058.01 1370.22 1059.5C1371.53 1060.9 1373.25 1061.6 1375.4 1061.6H1379.6V1070H1373.86ZM1399.29 1070.98C1395.93 1070.98 1393.41 1069.81 1391.73 1067.48C1390.14 1065.15 1389.35 1062.11 1389.35 1058.38V997.2H1400.55V1054.74C1400.55 1057.35 1400.73 1059.22 1401.11 1060.34C1401.48 1061.46 1402.37 1062.02 1403.77 1062.02C1404.42 1062.02 1409.69 1060.62 1419.59 1057.82V997.2H1430.79V1070H1422.81L1420.71 1065.24C1419.21 1065.8 1418.09 1066.17 1417.35 1066.36C1412.96 1067.95 1409.41 1069.11 1406.71 1069.86C1404 1070.61 1401.53 1070.98 1399.29 1070.98ZM1462.46 1070C1459.1 1070 1455.98 1069.16 1453.08 1067.48C1450.28 1065.8 1448.04 1063.51 1446.36 1060.62C1444.78 1057.73 1443.98 1054.46 1443.98 1050.82V1043.54C1443.98 1039.15 1445.06 1035.47 1447.2 1032.48C1449.44 1029.49 1452.2 1027.39 1455.46 1026.18L1472.82 1019.74V1013.16C1472.82 1010.92 1472.12 1009.1 1470.72 1007.7C1469.42 1006.21 1467.69 1005.46 1465.54 1005.46H1449.72V997.2H1466.52C1471.66 997.2 1475.72 998.74 1478.7 1001.82C1481.78 1004.81 1483.32 1008.91 1483.32 1014.14V1070H1462.46ZM1472.82 1061.46V1028.56L1460.5 1033.18C1458.08 1034.11 1456.35 1035.37 1455.32 1036.96C1454.39 1038.55 1453.92 1041.07 1453.92 1044.52V1052.36C1453.92 1054.88 1454.86 1057.03 1456.72 1058.8C1458.59 1060.57 1460.83 1061.46 1463.44 1061.46H1472.82ZM1498.76 985.3V974.1H1509.96V985.3H1498.76ZM1498.76 1070V997.2H1509.96V1070H1498.76ZM1522.58 1061.6H1534.48C1538.5 1061.6 1541.39 1060.53 1543.16 1058.38C1545.03 1056.14 1545.96 1053.25 1545.96 1049.7C1545.96 1046.9 1545.12 1044.52 1543.44 1042.56C1541.76 1040.6 1539.24 1038.31 1535.88 1035.7C1532.99 1033.37 1530.66 1031.36 1528.88 1029.68C1527.2 1027.91 1525.71 1025.76 1524.4 1023.24C1523.19 1020.63 1522.58 1017.64 1522.58 1014.28C1522.58 1009.33 1524.22 1005.27 1527.48 1002.1C1530.84 998.833 1535.32 997.2 1540.92 997.2H1553.1V1005.6H1543.02C1536.4 1005.6 1533.08 1008.73 1533.08 1014.98C1533.08 1017.41 1533.83 1019.51 1535.32 1021.28C1536.82 1023.05 1539.15 1025.15 1542.32 1027.58C1545.22 1029.82 1547.6 1031.87 1549.46 1033.74C1551.33 1035.51 1552.92 1037.8 1554.22 1040.6C1555.53 1043.31 1556.18 1046.53 1556.18 1050.26C1556.18 1056.89 1554.41 1061.83 1550.86 1065.1C1547.41 1068.37 1542.51 1070 1536.16 1070H1522.58V1061.6Z" fill="#34D320"/>
</svg>
