<svg width="544" height="980" viewBox="0 0 544 980" fill="none" xmlns="http://www.w3.org/2000/svg">
<path d="M259.5 975.5C414.5 880.5 535 801.5 535 723C535 652 348.5 598.5 282.5 577C216.5 555.5 77 514 77 455.5C77 397 213.5 348 259.5 332.5C305.5 317 391.5 292 391.5 275.5C391.5 259 262.5 221 234.5 217" stroke="#574242" stroke-width="10"/>
<path d="M55.5275 917C8.52487 885.5 13.4988 879.5 13.4997 873.5C13.5042 844.612 232.028 718 267.528 694C303.028 670 466.528 553 466.528 493.5C466.528 444 309.028 406.5 285.028 398.5C261.028 390.5 153.028 348 153.028 280.5C153.028 213 280.028 170 348.528 153.5" stroke="#574242" stroke-width="10"/>
<line x1="44.8695" y1="838.289" x2="90.8695" y2="959.289" stroke="#574242" stroke-width="4"/>
<line x1="84.8612" y1="814.268" x2="143.861" y2="964.268" stroke="#574242" stroke-width="4"/>
<line x1="138.842" y1="777.222" x2="217.842" y2="964.222" stroke="#574242" stroke-width="4"/>
<line x1="197.889" y1="740.342" x2="275.889" y2="964.342" stroke="#574242" stroke-width="4"/>
<line x1="267.943" y1="694.525" x2="323.943" y2="923.525" stroke="#574242" stroke-width="4"/>
<line x1="323.955" y1="656.579" x2="371.955" y2="879.579" stroke="#574242" stroke-width="4"/>
<line x1="387.983" y1="603.738" x2="418.983" y2="838.738" stroke="#574242" stroke-width="4"/>
<line x1="430.994" y1="558.85" x2="445.994" y2="758.85" stroke="#574242" stroke-width="4"/>
<line x1="457.997" y1="523.888" x2="468.997" y2="720.888" stroke="#574242" stroke-width="4"/>
<line x1="468.999" y1="496.927" x2="475.999" y2="688.927" stroke="#574242" stroke-width="4"/>
<line x1="306.211" y1="916.546" x2="334.211" y2="929.547" stroke="#574242"/>
<line x1="334.135" y1="870.518" x2="402.135" y2="889.518" stroke="#574242"/>
<line x1="370" y1="838.5" x2="462" y2="838.5" stroke="#574242"/>
<line x1="386.008" y1="795.5" x2="504.008" y2="797.5" stroke="#574242"/>
<line x1="386" y1="758.5" x2="535" y2="758.5" stroke="#574242"/>
<line x1="402" y1="720.5" x2="535" y2="720.5" stroke="#574242"/>
<line x1="401.978" y1="688.5" x2="516.978" y2="683.5" stroke="#574242"/>
<line x1="401.986" y1="658.5" x2="473.986" y2="656.5" stroke="#574242"/>
<line x1="26" y1="889.5" x2="164" y2="889.5" stroke="#574242"/>
<line x1="12.9801" y1="870.5" x2="163.98" y2="864.5" stroke="#574242"/>
<line x1="35.9698" y1="844.501" x2="167.97" y2="836.501" stroke="#574242"/>
<line x1="82.9464" y1="814.503" x2="184.946" y2="803.503" stroke="#574242"/>
<line x1="141.918" y1="777.507" x2="195.918" y2="768.507" stroke="#574242"/>
<line x1="195.944" y1="740.503" x2="239.944" y2="735.503" stroke="#574242"/>
<line x1="78.9607" y1="445.605" x2="143.961" y2="768.605" stroke="#574242" stroke-width="4"/>
<line x1="126.972" y1="388.664" x2="186.972" y2="740.664" stroke="#574242" stroke-width="4"/>
<line x1="170.965" y1="365.628" x2="236.965" y2="714.628" stroke="#574242" stroke-width="4"/>
<line x1="219.974" y1="346.677" x2="275.974" y2="688.677" stroke="#574242" stroke-width="4"/>
<line x1="275.991" y1="328.811" x2="307.991" y2="665.811" stroke="#574242" stroke-width="4"/>
<line x1="318.999" y1="312.934" x2="329.999" y2="647.934" stroke="#574242" stroke-width="4"/>
<line x1="359" y1="299.987" x2="361.038" y2="622.987" stroke="#574242" stroke-width="4"/>
<line x1="388" y1="286.037" x2="381.981" y2="611.037" stroke="#574242" stroke-width="4"/>
<line x1="394.999" y1="274.048" x2="386.999" y2="604.049" stroke="#574242" stroke-width="4"/>
<line x1="151.481" y1="273.864" x2="177.481" y2="365.864" stroke="#574242"/>
<line x1="178.878" y1="234.312" x2="219.878" y2="346.312" stroke="#574242" stroke-width="4"/>
<line x1="203.881" y1="216.321" x2="247.881" y2="338.321" stroke="#574242" stroke-width="4"/>
<line x1="241.966" y1="189.632" x2="267.966" y2="328.632" stroke="#574242" stroke-width="4"/>
<line x1="283.997" y1="174.89" x2="291.997" y2="319.89" stroke="#574242" stroke-width="4"/>
<path d="M325.269 14.3818C327.06 15.4401 327.691 16.1799 327.906 16.5C327.691 16.8201 327.06 17.5599 325.269 18.6182C322.523 20.2414 318.216 21.8765 312.456 23.3165C301.013 26.1773 284.94 28 267 28C249.06 28 232.987 26.1773 221.544 23.3165C215.784 21.8765 211.477 20.2414 208.731 18.6182C206.94 17.5599 206.309 16.8201 206.094 16.5C206.309 16.1799 206.94 15.4401 208.731 14.3818C211.477 12.7586 215.784 11.1235 221.544 9.68345C232.987 6.82267 249.06 5 267 5C284.94 5 301.013 6.82267 312.456 9.68345C318.216 11.1235 322.523 12.7586 325.269 14.3818Z" stroke="#574242" stroke-width="10"/>
<line x1="204" y1="15" x2="204" y2="648" stroke="#574242" stroke-width="4"/>
<line x1="330" y1="15" x2="330" y2="648" stroke="#574242" stroke-width="4"/>
<line x1="164" y1="652" x2="380" y2="652" stroke="#574242" stroke-width="10"/>
<path d="M375.418 931.131C375.421 931.131 375.406 931.15 375.368 931.188C375.397 931.15 375.416 931.131 375.418 931.131ZM369.906 931.202C371.258 931.66 372.345 932.098 373.198 932.5C372.345 932.902 371.258 933.34 369.906 933.798C364.872 935.507 357.317 937.125 347.657 938.511C328.413 941.273 301.662 943 272 943C242.338 943 215.587 941.273 196.343 938.511C186.683 937.125 179.128 935.507 174.094 933.798C172.742 933.34 171.655 932.902 170.802 932.5C171.655 932.098 172.742 931.66 174.094 931.202C179.128 929.493 186.683 927.875 196.343 926.489C215.587 923.727 242.338 922 272 922C301.662 922 328.413 923.727 347.657 926.489C357.317 927.875 364.872 929.493 369.906 931.202ZM168.582 931.131C168.584 931.131 168.603 931.15 168.632 931.188C168.594 931.15 168.579 931.131 168.582 931.131ZM168.582 933.869C168.579 933.869 168.594 933.85 168.632 933.812C168.603 933.85 168.584 933.869 168.582 933.869ZM375.368 933.812C375.406 933.85 375.421 933.869 375.418 933.869C375.416 933.869 375.397 933.85 375.368 933.812Z" stroke="#574242" stroke-width="10"/>
<path d="M539 937.5C539 937.737 538.802 939.097 535.58 941.383C532.525 943.552 527.698 945.847 521.001 948.146C507.672 952.723 488.112 956.925 463.614 960.483C414.696 967.587 346.948 972 272 972C197.052 972 129.304 967.587 80.3855 960.483C55.8882 956.925 36.3279 952.723 22.9988 948.146C16.3021 945.847 11.4754 943.552 8.4198 941.383C5.19813 939.097 5 937.737 5 937.5C5 937.263 5.19813 935.903 8.4198 933.617C11.4754 931.448 16.3021 929.153 22.9988 926.854C36.3279 922.277 55.8882 918.075 80.3855 914.517C129.304 907.413 197.052 903 272 903C346.948 903 414.696 907.413 463.614 914.517C488.112 918.075 507.672 922.277 521.001 926.854C527.698 929.153 532.525 931.448 535.58 933.617C538.802 935.903 539 937.263 539 937.5Z" stroke="#574242" stroke-width="10"/>
<line x1="166" y1="932" x2="166" y2="654" stroke="#574242" stroke-width="4"/>
<line x1="378" y1="932" x2="378" y2="654" stroke="#574242" stroke-width="4"/>
</svg>
