<svg width="387" height="722" viewBox="0 0 387 722" fill="none" xmlns="http://www.w3.org/2000/svg">
<path d="M117 88.5491C117 140.697 135 172.659 193.5 342C252 175.463 271 133.856 271 88.5491C271 31.9151 224 5 193.5 5C163 5 117 36.401 117 88.5491Z" stroke="#574242" stroke-width="10"/>
<path d="M194 342C167.336 179.383 153.997 132.838 154 85.7358C154.004 21.3302 177.212 4.42942 194 6.11167" stroke="#574242" stroke-width="10"/>
<path d="M194 342C218.664 179.383 231.003 132.838 231 85.7358C230.996 21.3302 209.529 4.42942 194 6.11167" stroke="#574242" stroke-width="10"/>
<path d="M193.5 340.5L189 6" stroke="#574242" stroke-width="10"/>
<path d="M292.436 225C285.719 229.859 261.875 246.202 220.232 272.703L204 317.094C268.372 280.654 287.153 267.024 287.962 268.728C384.234 471.468 381.996 772.927 381.996 706.672C381.996 436.856 326.579 271.378 292.436 225Z" stroke="#574242" stroke-width="10"/>
<path d="M94.5641 225C101.281 229.859 125.125 246.202 166.768 272.703L183 317.094C118.628 280.654 99.8469 267.024 99.0375 268.728C2.76555 471.468 5.00443 772.927 5.00443 706.672C5.00443 436.856 60.4212 271.378 94.5641 225Z" stroke="#574242" stroke-width="10"/>
<path d="M194 721.5L175.5 313L183.5 317.5L194 344L203 317.5L215.5 310.5L194 721.5Z" stroke="#574242" stroke-width="10"/>
</svg>
