<svg width="3745" height="1780" viewBox="0 0 3745 1780" fill="none" xmlns="http://www.w3.org/2000/svg">
<path d="M1850.18 787V715.28H1866.35V787H1850.18ZM1881.94 787V732.44H1895.14L1896.24 739.37H1896.68C1898.95 737.097 1901.52 735.153 1904.38 733.54C1907.24 731.927 1910.5 731.12 1914.17 731.12C1920.18 731.12 1924.51 733.1 1927.15 737.06C1929.79 740.947 1931.11 746.3 1931.11 753.12V787H1914.94V755.21C1914.94 751.25 1914.39 748.537 1913.29 747.07C1912.26 745.603 1910.58 744.87 1908.23 744.87C1906.18 744.87 1904.42 745.347 1902.95 746.3C1901.48 747.18 1899.87 748.463 1898.11 750.15V787H1881.94ZM1968.98 788.32C1963.85 788.32 1959.19 787.183 1955.01 784.91C1950.9 782.637 1947.64 779.373 1945.22 775.12C1942.87 770.867 1941.7 765.733 1941.7 759.72C1941.7 753.707 1943.02 748.573 1945.66 744.32C1948.3 740.067 1951.78 736.803 1956.11 734.53C1960.44 732.257 1965.09 731.12 1970.08 731.12C1973.45 731.12 1976.46 731.67 1979.1 732.77C1981.81 733.797 1984.12 735.19 1986.03 736.95L1978.44 746.96C1977.49 746.153 1976.39 745.493 1975.14 744.98C1973.97 744.467 1972.61 744.21 1971.07 744.21C1968.5 744.21 1966.27 744.833 1964.36 746.08C1962.45 747.327 1960.95 749.123 1959.85 751.47C1958.75 753.817 1958.2 756.567 1958.2 759.72C1958.2 762.873 1958.75 765.623 1959.85 767.97C1960.95 770.317 1962.42 772.113 1964.25 773.36C1966.16 774.607 1968.28 775.23 1970.63 775.23C1972.46 775.23 1974.19 774.9 1975.8 774.24C1977.41 773.58 1978.92 772.737 1980.31 771.71L1986.69 781.61C1984.42 783.663 1981.74 785.313 1978.66 786.56C1975.58 787.733 1972.35 788.32 1968.98 788.32ZM2011.2 788.21C2007.53 788.21 2004.6 787.477 2002.4 786.01C2000.27 784.47 1998.73 782.343 1997.78 779.63C1996.82 776.843 1996.35 773.617 1996.35 769.95V710H2012.52V770.61C2012.52 772.37 2012.81 773.58 2013.4 774.24C2014.06 774.827 2014.75 775.12 2015.49 775.12C2015.78 775.12 2016.04 775.12 2016.26 775.12C2016.55 775.047 2016.92 774.973 2017.36 774.9L2019.34 786.89C2018.46 787.257 2017.32 787.55 2015.93 787.77C2014.61 788.063 2013.03 788.21 2011.2 788.21ZM2044.21 788.32C2038.27 788.32 2033.94 786.377 2031.23 782.49C2028.59 778.53 2027.27 773.14 2027.27 766.32V732.44H2043.44V764.23C2043.44 768.19 2043.99 770.903 2045.09 772.37C2046.19 773.837 2047.91 774.57 2050.26 774.57C2052.24 774.57 2053.96 774.093 2055.43 773.14C2056.9 772.187 2058.4 770.647 2059.94 768.52V732.44H2076.11V787H2062.91L2061.7 779.41H2061.37C2059.1 782.123 2056.6 784.287 2053.89 785.9C2051.18 787.513 2047.95 788.32 2044.21 788.32ZM2090.34 787V732.44H2106.51V787H2090.34ZM2098.37 724.41C2095.66 724.41 2093.46 723.64 2091.77 722.1C2090.08 720.56 2089.24 718.507 2089.24 715.94C2089.24 713.373 2090.08 711.32 2091.77 709.78C2093.46 708.24 2095.66 707.47 2098.37 707.47C2101.08 707.47 2103.28 708.24 2104.97 709.78C2106.66 711.32 2107.5 713.373 2107.5 715.94C2107.5 718.507 2106.66 720.56 2104.97 722.1C2103.28 723.64 2101.08 724.41 2098.37 724.41ZM2120.74 787V732.44H2133.94L2135.04 739.37H2135.48C2137.75 737.097 2140.32 735.153 2143.18 733.54C2146.04 731.927 2149.3 731.12 2152.97 731.12C2158.98 731.12 2163.31 733.1 2165.95 737.06C2168.59 740.947 2169.91 746.3 2169.91 753.12V787H2153.74V755.21C2153.74 751.25 2153.19 748.537 2152.09 747.07C2151.06 745.603 2149.38 744.87 2147.03 744.87C2144.98 744.87 2143.22 745.347 2141.75 746.3C2140.28 747.18 2138.67 748.463 2136.91 750.15V787H2120.74ZM2203.16 788.32C2196.41 788.32 2190.99 785.79 2186.88 780.73C2182.85 775.597 2180.83 768.593 2180.83 759.72C2180.83 753.78 2181.89 748.683 2184.02 744.43C2186.22 740.177 2189.04 736.913 2192.49 734.64C2196.01 732.293 2199.68 731.12 2203.49 731.12C2206.5 731.12 2209.03 731.633 2211.08 732.66C2213.13 733.687 2215.08 735.08 2216.91 736.84L2216.25 728.48V709.89H2232.42V787H2219.22L2218.12 781.61H2217.68C2215.77 783.517 2213.54 785.13 2210.97 786.45C2208.4 787.697 2205.8 788.32 2203.16 788.32ZM2207.34 775.12C2209.1 775.12 2210.71 774.753 2212.18 774.02C2213.65 773.287 2215 772.003 2216.25 770.17V747.84C2214.86 746.52 2213.39 745.603 2211.85 745.09C2210.31 744.577 2208.77 744.32 2207.23 744.32C2205.47 744.32 2203.86 744.87 2202.39 745.97C2200.92 747.07 2199.71 748.757 2198.76 751.03C2197.88 753.23 2197.44 756.053 2197.44 759.5C2197.44 764.853 2198.32 768.813 2200.08 771.38C2201.84 773.873 2204.26 775.12 2207.34 775.12ZM2270.18 788.32C2265.56 788.32 2261.23 787.22 2257.2 785.02C2253.16 782.747 2249.86 779.483 2247.3 775.23C2244.8 770.903 2243.56 765.733 2243.56 759.72C2243.56 753.707 2244.8 748.573 2247.3 744.32C2249.86 739.993 2253.16 736.73 2257.2 734.53C2261.23 732.257 2265.56 731.12 2270.18 731.12C2274.72 731.12 2279.01 732.257 2283.05 734.53C2287.08 736.73 2290.34 739.993 2292.84 744.32C2295.4 748.573 2296.69 753.707 2296.69 759.72C2296.69 765.733 2295.4 770.903 2292.84 775.23C2290.34 779.483 2287.08 782.747 2283.05 785.02C2279.01 787.22 2274.72 788.32 2270.18 788.32ZM2270.18 775.23C2272.38 775.23 2274.21 774.607 2275.68 773.36C2277.22 772.113 2278.35 770.317 2279.09 767.97C2279.82 765.623 2280.19 762.873 2280.19 759.72C2280.19 756.567 2279.82 753.817 2279.09 751.47C2278.35 749.123 2277.22 747.327 2275.68 746.08C2274.21 744.833 2272.38 744.21 2270.18 744.21C2267.9 744.21 2266.03 744.833 2264.57 746.08C2263.1 747.327 2262 749.123 2261.27 751.47C2260.53 753.817 2260.17 756.567 2260.17 759.72C2260.17 762.873 2260.53 765.623 2261.27 767.97C2262 770.317 2263.1 772.113 2264.57 773.36C2266.03 774.607 2267.9 775.23 2270.18 775.23ZM2343.53 788.32C2340.23 788.32 2337.34 787.587 2334.84 786.12C2332.42 784.653 2330.55 782.673 2329.23 780.18C2327.91 777.687 2327.25 774.9 2327.25 771.82C2327.25 765.953 2329.67 761.443 2334.51 758.29C2339.35 755.063 2347.16 752.9 2357.94 751.8C2357.87 750.187 2357.5 748.83 2356.84 747.73C2356.26 746.557 2355.34 745.677 2354.09 745.09C2352.85 744.43 2351.27 744.1 2349.36 744.1C2347.09 744.1 2344.78 744.503 2342.43 745.31C2340.09 746.117 2337.56 747.29 2334.84 748.83L2329.12 738.27C2331.47 736.803 2333.89 735.557 2336.38 734.53C2338.88 733.43 2341.44 732.587 2344.08 732C2346.8 731.413 2349.58 731.12 2352.44 731.12C2357.14 731.12 2361.06 732.037 2364.21 733.87C2367.44 735.63 2369.9 738.343 2371.58 742.01C2373.27 745.603 2374.11 750.223 2374.11 755.87V787H2360.91L2359.81 781.39H2359.37C2357.03 783.443 2354.57 785.13 2352 786.45C2349.44 787.697 2346.61 788.32 2343.53 788.32ZM2348.92 775.67C2350.76 775.67 2352.37 775.267 2353.76 774.46C2355.16 773.653 2356.55 772.553 2357.94 771.16V761.92C2354.13 762.433 2351.09 763.093 2348.81 763.9C2346.61 764.707 2345.04 765.697 2344.08 766.87C2343.2 767.97 2342.76 769.217 2342.76 770.61C2342.76 772.297 2343.31 773.58 2344.41 774.46C2345.59 775.267 2347.09 775.67 2348.92 775.67ZM2387.79 787V732.44H2403.96V787H2387.79ZM2395.82 724.41C2393.11 724.41 2390.91 723.64 2389.22 722.1C2387.53 720.56 2386.69 718.507 2386.69 715.94C2386.69 713.373 2387.53 711.32 2389.22 709.78C2390.91 708.24 2393.11 707.47 2395.82 707.47C2398.53 707.47 2400.73 708.24 2402.42 709.78C2404.11 711.32 2404.95 713.373 2404.95 715.94C2404.95 718.507 2404.11 720.56 2402.42 722.1C2400.73 723.64 2398.53 724.41 2395.82 724.41ZM2418.19 787V732.44H2431.39L2432.49 739.37H2432.93C2435.2 737.097 2437.77 735.153 2440.63 733.54C2443.49 731.927 2446.75 731.12 2450.42 731.12C2456.43 731.12 2460.76 733.1 2463.4 737.06C2466.04 740.947 2467.36 746.3 2467.36 753.12V787H2451.19V755.21C2451.19 751.25 2450.64 748.537 2449.54 747.07C2448.51 745.603 2446.83 744.87 2444.48 744.87C2442.43 744.87 2440.67 745.347 2439.2 746.3C2437.73 747.18 2436.12 748.463 2434.36 750.15V787H2418.19ZM2500.61 788.32C2493.86 788.32 2488.44 785.79 2484.33 780.73C2480.3 775.597 2478.28 768.593 2478.28 759.72C2478.28 753.78 2479.34 748.683 2481.47 744.43C2483.67 740.177 2486.49 736.913 2489.94 734.64C2493.46 732.293 2497.13 731.12 2500.94 731.12C2503.95 731.12 2506.48 731.633 2508.53 732.66C2510.58 733.687 2512.53 735.08 2514.36 736.84L2513.7 728.48V709.89H2529.87V787H2516.67L2515.57 781.61H2515.13C2513.22 783.517 2510.99 785.13 2508.42 786.45C2505.85 787.697 2503.25 788.32 2500.61 788.32ZM2504.79 775.12C2506.55 775.12 2508.16 774.753 2509.63 774.02C2511.1 773.287 2512.45 772.003 2513.7 770.17V747.84C2512.31 746.52 2510.84 745.603 2509.3 745.09C2507.76 744.577 2506.22 744.32 2504.68 744.32C2502.92 744.32 2501.31 744.87 2499.84 745.97C2498.37 747.07 2497.16 748.757 2496.21 751.03C2495.33 753.23 2494.89 756.053 2494.89 759.5C2494.89 764.853 2495.77 768.813 2497.53 771.38C2499.29 773.873 2501.71 775.12 2504.79 775.12ZM2557.95 788.32C2554.65 788.32 2551.75 787.587 2549.26 786.12C2546.84 784.653 2544.97 782.673 2543.65 780.18C2542.33 777.687 2541.67 774.9 2541.67 771.82C2541.67 765.953 2544.09 761.443 2548.93 758.29C2553.77 755.063 2561.58 752.9 2572.36 751.8C2572.28 750.187 2571.92 748.83 2571.26 747.73C2570.67 746.557 2569.75 745.677 2568.51 745.09C2567.26 744.43 2565.68 744.1 2563.78 744.1C2561.5 744.1 2559.19 744.503 2556.85 745.31C2554.5 746.117 2551.97 747.29 2549.26 748.83L2543.54 738.27C2545.88 736.803 2548.3 735.557 2550.8 734.53C2553.29 733.43 2555.86 732.587 2558.5 732C2561.21 731.413 2564 731.12 2566.86 731.12C2571.55 731.12 2575.47 732.037 2578.63 733.87C2581.85 735.63 2584.31 738.343 2586 742.01C2587.68 745.603 2588.53 750.223 2588.53 755.87V787H2575.33L2574.23 781.39H2573.79C2571.44 783.443 2568.98 785.13 2566.42 786.45C2563.85 787.697 2561.03 788.32 2557.95 788.32ZM2563.34 775.67C2565.17 775.67 2566.78 775.267 2568.18 774.46C2569.57 773.653 2570.96 772.553 2572.36 771.16V761.92C2568.54 762.433 2565.5 763.093 2563.23 763.9C2561.03 764.707 2559.45 765.697 2558.5 766.87C2557.62 767.97 2557.18 769.217 2557.18 770.61C2557.18 772.297 2557.73 773.58 2558.83 774.46C2560 775.267 2561.5 775.67 2563.34 775.67ZM2624.23 787V732.44H2637.43L2638.53 739.48H2638.97C2641.17 737.207 2643.55 735.263 2646.12 733.65C2648.76 731.963 2651.87 731.12 2655.47 731.12C2659.35 731.12 2662.51 731.927 2664.93 733.54C2667.35 735.08 2669.22 737.317 2670.54 740.25C2672.96 737.757 2675.52 735.63 2678.24 733.87C2680.95 732.037 2684.1 731.12 2687.7 731.12C2693.64 731.12 2697.96 733.1 2700.68 737.06C2703.39 740.947 2704.75 746.3 2704.75 753.12V787H2688.58V755.21C2688.58 751.25 2688.03 748.537 2686.93 747.07C2685.9 745.603 2684.21 744.87 2681.87 744.87C2680.47 744.87 2679.01 745.31 2677.47 746.19C2675.93 746.997 2674.28 748.317 2672.52 750.15V787H2656.35V755.21C2656.35 751.25 2655.8 748.537 2654.7 747.07C2653.67 745.603 2651.98 744.87 2649.64 744.87C2646.85 744.87 2643.77 746.63 2640.4 750.15V787H2624.23ZM2732.29 788.32C2728.99 788.32 2726.1 787.587 2723.6 786.12C2721.18 784.653 2719.31 782.673 2717.99 780.18C2716.67 777.687 2716.01 774.9 2716.01 771.82C2716.01 765.953 2718.43 761.443 2723.27 758.29C2728.11 755.063 2735.92 752.9 2746.7 751.8C2746.63 750.187 2746.26 748.83 2745.6 747.73C2745.02 746.557 2744.1 745.677 2742.85 745.09C2741.61 744.43 2740.03 744.1 2738.12 744.1C2735.85 744.1 2733.54 744.503 2731.19 745.31C2728.85 746.117 2726.32 747.29 2723.6 748.83L2717.88 738.27C2720.23 736.803 2722.65 735.557 2725.14 734.53C2727.64 733.43 2730.2 732.587 2732.84 732C2735.56 731.413 2738.34 731.12 2741.2 731.12C2745.9 731.12 2749.82 732.037 2752.97 733.87C2756.2 735.63 2758.66 738.343 2760.34 742.01C2762.03 745.603 2762.87 750.223 2762.87 755.87V787H2749.67L2748.57 781.39H2748.13C2745.79 783.443 2743.33 785.13 2740.76 786.45C2738.2 787.697 2735.37 788.32 2732.29 788.32ZM2737.68 775.67C2739.52 775.67 2741.13 775.267 2742.52 774.46C2743.92 773.653 2745.31 772.553 2746.7 771.16V761.92C2742.89 762.433 2739.85 763.093 2737.57 763.9C2735.37 764.707 2733.8 765.697 2732.84 766.87C2731.96 767.97 2731.52 769.217 2731.52 770.61C2731.52 772.297 2732.07 773.58 2733.17 774.46C2734.35 775.267 2735.85 775.67 2737.68 775.67ZM2776.55 787V732.44H2792.72V787H2776.55ZM2784.58 724.41C2781.87 724.41 2779.67 723.64 2777.98 722.1C2776.29 720.56 2775.45 718.507 2775.45 715.94C2775.45 713.373 2776.29 711.32 2777.98 709.78C2779.67 708.24 2781.87 707.47 2784.58 707.47C2787.29 707.47 2789.49 708.24 2791.18 709.78C2792.87 711.32 2793.71 713.373 2793.71 715.94C2793.71 718.507 2792.87 720.56 2791.18 722.1C2789.49 723.64 2787.29 724.41 2784.58 724.41ZM2823.01 788.32C2819.42 788.32 2815.71 787.623 2811.9 786.23C2808.09 784.837 2804.82 782.82 2802.11 780.18L2808.93 771.05C2811.42 773.03 2813.88 774.423 2816.3 775.23C2818.79 775.963 2821.18 776.33 2823.45 776.33C2825.87 776.33 2827.63 775.927 2828.73 775.12C2829.83 774.24 2830.38 773.103 2830.38 771.71C2830.38 770.463 2829.87 769.437 2828.84 768.63C2827.89 767.823 2826.6 767.127 2824.99 766.54C2823.45 765.88 2821.69 765.183 2819.71 764.45C2817.07 763.497 2814.65 762.287 2812.45 760.82C2810.25 759.353 2808.45 757.593 2807.06 755.54C2805.74 753.487 2805.08 751.03 2805.08 748.17C2805.08 743.037 2806.99 738.93 2810.8 735.85C2814.69 732.697 2819.75 731.12 2825.98 731.12C2829.94 731.12 2833.53 731.78 2836.76 733.1C2840.06 734.347 2842.88 735.997 2845.23 738.05L2838.3 747.07C2836.32 745.677 2834.34 744.687 2832.36 744.1C2830.38 743.44 2828.44 743.11 2826.53 743.11C2824.4 743.11 2822.83 743.513 2821.8 744.32C2820.77 745.127 2820.26 746.153 2820.26 747.4C2820.26 748.427 2820.63 749.307 2821.36 750.04C2822.09 750.773 2823.19 751.47 2824.66 752.13C2826.2 752.717 2828.11 753.377 2830.38 754.11C2833.17 755.063 2835.7 756.273 2837.97 757.74C2840.32 759.133 2842.15 760.893 2843.47 763.02C2844.79 765.147 2845.45 767.713 2845.45 770.72C2845.45 774.02 2844.57 776.99 2842.81 779.63C2841.12 782.27 2838.63 784.397 2835.33 786.01C2832.03 787.55 2827.92 788.32 2823.01 788.32ZM2891.49 788.32C2888.19 788.32 2885.3 787.587 2882.8 786.12C2880.38 784.653 2878.51 782.673 2877.19 780.18C2875.87 777.687 2875.21 774.9 2875.21 771.82C2875.21 765.953 2877.63 761.443 2882.47 758.29C2887.31 755.063 2895.12 752.9 2905.9 751.8C2905.83 750.187 2905.46 748.83 2904.8 747.73C2904.22 746.557 2903.3 745.677 2902.05 745.09C2900.81 744.43 2899.23 744.1 2897.32 744.1C2895.05 744.1 2892.74 744.503 2890.39 745.31C2888.05 746.117 2885.52 747.29 2882.8 748.83L2877.08 738.27C2879.43 736.803 2881.85 735.557 2884.34 734.53C2886.84 733.43 2889.4 732.587 2892.04 732C2894.76 731.413 2897.54 731.12 2900.4 731.12C2905.1 731.12 2909.02 732.037 2912.17 733.87C2915.4 735.63 2917.86 738.343 2919.54 742.01C2921.23 745.603 2922.07 750.223 2922.07 755.87V787H2908.87L2907.77 781.39H2907.33C2904.99 783.443 2902.53 785.13 2899.96 786.45C2897.4 787.697 2894.57 788.32 2891.49 788.32ZM2896.88 775.67C2898.72 775.67 2900.33 775.267 2901.72 774.46C2903.12 773.653 2904.51 772.553 2905.9 771.16V761.92C2902.09 762.433 2899.05 763.093 2896.77 763.9C2894.57 764.707 2893 765.697 2892.04 766.87C2891.16 767.97 2890.72 769.217 2890.72 770.61C2890.72 772.297 2891.27 773.58 2892.37 774.46C2893.55 775.267 2895.05 775.67 2896.88 775.67ZM2952.14 788.32C2946.2 788.32 2941.87 786.377 2939.16 782.49C2936.52 778.53 2935.2 773.14 2935.2 766.32V732.44H2951.37V764.23C2951.37 768.19 2951.92 770.903 2953.02 772.37C2954.12 773.837 2955.84 774.57 2958.19 774.57C2960.17 774.57 2961.89 774.093 2963.36 773.14C2964.83 772.187 2966.33 770.647 2967.87 768.52V732.44H2984.04V787H2970.84L2969.63 779.41H2969.3C2967.03 782.123 2964.53 784.287 2961.82 785.9C2959.11 787.513 2955.88 788.32 2952.14 788.32ZM3019.28 788.21C3012.53 788.21 3007.69 786.267 3004.76 782.38C3001.83 778.42 3000.36 773.323 3000.36 767.09V745.09H2992.99V733.1L3001.35 732.44L3003.22 715.72H3016.64V732.44H3029.73V745.09H3016.64V766.87C3016.64 769.95 3017.26 772.187 3018.51 773.58C3019.83 774.9 3021.55 775.56 3023.68 775.56C3024.56 775.56 3025.44 775.487 3026.32 775.34C3027.2 775.193 3028.04 774.973 3028.85 774.68L3031.49 786.01C3030.1 786.597 3028.34 787.11 3026.21 787.55C3024.16 787.99 3021.85 788.21 3019.28 788.21ZM3061.87 788.32C3057.25 788.32 3052.93 787.22 3048.89 785.02C3044.86 782.747 3041.56 779.483 3038.99 775.23C3036.5 770.903 3035.25 765.733 3035.25 759.72C3035.25 753.707 3036.5 748.573 3038.99 744.32C3041.56 739.993 3044.86 736.73 3048.89 734.53C3052.93 732.257 3057.25 731.12 3061.87 731.12C3066.42 731.12 3070.71 732.257 3074.74 734.53C3078.78 736.73 3082.04 739.993 3084.53 744.32C3087.1 748.573 3088.38 753.707 3088.38 759.72C3088.38 765.733 3087.1 770.903 3084.53 775.23C3082.04 779.483 3078.78 782.747 3074.74 785.02C3070.71 787.22 3066.42 788.32 3061.87 788.32ZM3061.87 775.23C3064.07 775.23 3065.91 774.607 3067.37 773.36C3068.91 772.113 3070.05 770.317 3070.78 767.97C3071.52 765.623 3071.88 762.873 3071.88 759.72C3071.88 756.567 3071.52 753.817 3070.78 751.47C3070.05 749.123 3068.91 747.327 3067.37 746.08C3065.91 744.833 3064.07 744.21 3061.87 744.21C3059.6 744.21 3057.73 744.833 3056.26 746.08C3054.8 747.327 3053.7 749.123 3052.96 751.47C3052.23 753.817 3051.86 756.567 3051.86 759.72C3051.86 762.873 3052.23 765.623 3052.96 767.97C3053.7 770.317 3054.8 772.113 3056.26 773.36C3057.73 774.607 3059.6 775.23 3061.87 775.23ZM3099.46 787V732.44H3112.66L3113.76 739.37H3114.2C3116.47 737.097 3119.04 735.153 3121.9 733.54C3124.76 731.927 3128.02 731.12 3131.69 731.12C3137.7 731.12 3142.03 733.1 3144.67 737.06C3147.31 740.947 3148.63 746.3 3148.63 753.12V787H3132.46V755.21C3132.46 751.25 3131.91 748.537 3130.81 747.07C3129.78 745.603 3128.1 744.87 3125.75 744.87C3123.7 744.87 3121.94 745.347 3120.47 746.3C3119 747.18 3117.39 748.463 3115.63 750.15V787H3099.46ZM3185.84 788.32C3181.22 788.32 3176.89 787.22 3172.86 785.02C3168.83 782.747 3165.53 779.483 3162.96 775.23C3160.47 770.903 3159.22 765.733 3159.22 759.72C3159.22 753.707 3160.47 748.573 3162.96 744.32C3165.53 739.993 3168.83 736.73 3172.86 734.53C3176.89 732.257 3181.22 731.12 3185.84 731.12C3190.39 731.12 3194.68 732.257 3198.71 734.53C3202.74 736.73 3206.01 739.993 3208.5 744.32C3211.07 748.573 3212.35 753.707 3212.35 759.72C3212.35 765.733 3211.07 770.903 3208.5 775.23C3206.01 779.483 3202.74 782.747 3198.71 785.02C3194.68 787.22 3190.39 788.32 3185.84 788.32ZM3185.84 775.23C3188.04 775.23 3189.87 774.607 3191.34 773.36C3192.88 772.113 3194.02 770.317 3194.75 767.97C3195.48 765.623 3195.85 762.873 3195.85 759.72C3195.85 756.567 3195.48 753.817 3194.75 751.47C3194.02 749.123 3192.88 747.327 3191.34 746.08C3189.87 744.833 3188.04 744.21 3185.84 744.21C3183.57 744.21 3181.7 744.833 3180.23 746.08C3178.76 747.327 3177.66 749.123 3176.93 751.47C3176.2 753.817 3175.83 756.567 3175.83 759.72C3175.83 762.873 3176.2 765.623 3176.93 767.97C3177.66 770.317 3178.76 772.113 3180.23 773.36C3181.7 774.607 3183.57 775.23 3185.84 775.23ZM3223.43 787V732.44H3236.63L3237.73 739.48H3238.17C3240.37 737.207 3242.75 735.263 3245.32 733.65C3247.96 731.963 3251.07 731.12 3254.67 731.12C3258.55 731.12 3261.71 731.927 3264.13 733.54C3266.55 735.08 3268.42 737.317 3269.74 740.25C3272.16 737.757 3274.72 735.63 3277.44 733.87C3280.15 732.037 3283.3 731.12 3286.9 731.12C3292.84 731.12 3297.16 733.1 3299.88 737.06C3302.59 740.947 3303.95 746.3 3303.95 753.12V787H3287.78V755.21C3287.78 751.25 3287.23 748.537 3286.13 747.07C3285.1 745.603 3283.41 744.87 3281.07 744.87C3279.67 744.87 3278.21 745.31 3276.67 746.19C3275.13 746.997 3273.48 748.317 3271.72 750.15V787H3255.55V755.21C3255.55 751.25 3255 748.537 3253.9 747.07C3252.87 745.603 3251.18 744.87 3248.84 744.87C3246.05 744.87 3242.97 746.63 3239.6 750.15V787H3223.43ZM3317.74 787V732.44H3333.91V787H3317.74ZM3325.77 724.41C3323.06 724.41 3320.86 723.64 3319.17 722.1C3317.49 720.56 3316.64 718.507 3316.64 715.94C3316.64 713.373 3317.49 711.32 3319.17 709.78C3320.86 708.24 3323.06 707.47 3325.77 707.47C3328.49 707.47 3330.69 708.24 3332.37 709.78C3334.06 711.32 3334.9 713.373 3334.9 715.94C3334.9 718.507 3334.06 720.56 3332.37 722.1C3330.69 723.64 3328.49 724.41 3325.77 724.41ZM3361.89 788.32C3358.59 788.32 3355.7 787.587 3353.2 786.12C3350.78 784.653 3348.91 782.673 3347.59 780.18C3346.27 777.687 3345.61 774.9 3345.61 771.82C3345.61 765.953 3348.03 761.443 3352.87 758.29C3357.71 755.063 3365.52 752.9 3376.3 751.8C3376.23 750.187 3375.86 748.83 3375.2 747.73C3374.62 746.557 3373.7 745.677 3372.45 745.09C3371.21 744.43 3369.63 744.1 3367.72 744.1C3365.45 744.1 3363.14 744.503 3360.79 745.31C3358.45 746.117 3355.92 747.29 3353.2 748.83L3347.48 738.27C3349.83 736.803 3352.25 735.557 3354.74 734.53C3357.24 733.43 3359.8 732.587 3362.44 732C3365.16 731.413 3367.94 731.12 3370.8 731.12C3375.5 731.12 3379.42 732.037 3382.57 733.87C3385.8 735.63 3388.26 738.343 3389.94 742.01C3391.63 745.603 3392.47 750.223 3392.47 755.87V787H3379.27L3378.17 781.39H3377.73C3375.39 783.443 3372.93 785.13 3370.36 786.45C3367.8 787.697 3364.97 788.32 3361.89 788.32ZM3367.28 775.67C3369.12 775.67 3370.73 775.267 3372.12 774.46C3373.52 773.653 3374.91 772.553 3376.3 771.16V761.92C3372.49 762.433 3369.45 763.093 3367.17 763.9C3364.97 764.707 3363.4 765.697 3362.44 766.87C3361.56 767.97 3361.12 769.217 3361.12 770.61C3361.12 772.297 3361.67 773.58 3362.77 774.46C3363.95 775.267 3365.45 775.67 3367.28 775.67Z" fill="black" fill-opacity="0.44"/>
<path d="M1198.48 904V831.84H1240.06V839.54H1207.61V862.2H1235V870.01H1207.61V896.19H1241.16V904H1198.48ZM1269.86 904.99C1264.21 904.99 1260.25 903.34 1257.98 900.04C1255.71 896.74 1254.57 892.45 1254.57 887.17V857.91H1246.65V851.09L1255.01 850.54L1256.11 833.38H1263.7V850.54H1278.22V857.91H1263.7V887.28C1263.7 890.507 1264.29 893.037 1265.46 894.87C1266.71 896.703 1268.87 897.62 1271.95 897.62C1272.9 897.62 1273.89 897.547 1274.92 897.4C1275.95 897.18 1276.97 896.813 1278 896.3L1279.98 902.68C1278.59 903.34 1277.01 903.89 1275.25 904.33C1273.49 904.77 1271.69 904.99 1269.86 904.99ZM1300.15 905.32C1297.22 905.32 1294.54 904.733 1292.12 903.56C1289.78 902.313 1287.91 900.59 1286.51 898.39C1285.12 896.117 1284.42 893.367 1284.42 890.14C1284.42 884.127 1287.06 879.58 1292.34 876.5C1297.62 873.42 1305.98 871.257 1317.42 870.01C1317.35 867.81 1316.98 865.683 1316.32 863.63C1315.74 861.577 1314.64 859.927 1313.02 858.68C1311.41 857.433 1309.17 856.81 1306.31 856.81C1303.23 856.81 1300.34 857.397 1297.62 858.57C1294.91 859.67 1292.49 860.917 1290.36 862.31L1286.84 856.15C1288.46 855.05 1290.36 853.987 1292.56 852.96C1294.76 851.86 1297.15 850.98 1299.71 850.32C1302.28 849.587 1304.99 849.22 1307.85 849.22C1312.18 849.22 1315.7 850.137 1318.41 851.97C1321.2 853.73 1323.22 856.26 1324.46 859.56C1325.78 862.86 1326.44 866.747 1326.44 871.22V904H1318.96L1318.19 897.62H1317.86C1315.3 899.747 1312.55 901.58 1309.61 903.12C1306.68 904.587 1303.53 905.32 1300.15 905.32ZM1302.68 897.84C1305.32 897.84 1307.78 897.253 1310.05 896.08C1312.4 894.907 1314.86 893.183 1317.42 890.91V876.5C1311.41 877.233 1306.64 878.187 1303.12 879.36C1299.68 880.46 1297.18 881.853 1295.64 883.54C1294.1 885.227 1293.33 887.243 1293.33 889.59C1293.33 892.523 1294.25 894.65 1296.08 895.97C1297.92 897.217 1300.12 897.84 1302.68 897.84ZM1343.26 926.55V850.54H1350.74L1351.51 856.7H1351.84C1354.26 854.647 1356.94 852.887 1359.87 851.42C1362.81 849.953 1365.81 849.22 1368.89 849.22C1373.44 849.22 1377.29 850.357 1380.44 852.63C1383.6 854.83 1385.98 857.983 1387.59 862.09C1389.21 866.123 1390.01 870.927 1390.01 876.5C1390.01 882.513 1388.91 887.683 1386.71 892.01C1384.59 896.337 1381.76 899.637 1378.24 901.91C1374.72 904.183 1370.95 905.32 1366.91 905.32C1364.49 905.32 1362.04 904.77 1359.54 903.67C1357.05 902.57 1354.56 901.067 1352.06 899.16L1352.28 908.51V926.55H1343.26ZM1365.37 897.73C1368.31 897.73 1370.91 896.887 1373.18 895.2C1375.53 893.513 1377.36 891.093 1378.68 887.94C1380 884.713 1380.66 880.9 1380.66 876.5C1380.66 872.613 1380.19 869.203 1379.23 866.27C1378.28 863.263 1376.78 860.953 1374.72 859.34C1372.67 857.653 1369.96 856.81 1366.58 856.81C1364.38 856.81 1362.11 857.433 1359.76 858.68C1357.42 859.853 1354.92 861.65 1352.28 864.07V892.12C1354.78 894.173 1357.12 895.64 1359.32 896.52C1361.6 897.327 1363.61 897.73 1365.37 897.73ZM1415.1 905.32C1412.16 905.32 1409.49 904.733 1407.07 903.56C1404.72 902.313 1402.85 900.59 1401.46 898.39C1400.06 896.117 1399.37 893.367 1399.37 890.14C1399.37 884.127 1402.01 879.58 1407.29 876.5C1412.57 873.42 1420.93 871.257 1432.37 870.01C1432.29 867.81 1431.93 865.683 1431.27 863.63C1430.68 861.577 1429.58 859.927 1427.97 858.68C1426.35 857.433 1424.12 856.81 1421.26 856.81C1418.18 856.81 1415.28 857.397 1412.57 858.57C1409.85 859.67 1407.43 860.917 1405.31 862.31L1401.79 856.15C1403.4 855.05 1405.31 853.987 1407.51 852.96C1409.71 851.86 1412.09 850.98 1414.66 850.32C1417.22 849.587 1419.94 849.22 1422.8 849.22C1427.12 849.22 1430.64 850.137 1433.36 851.97C1436.14 853.73 1438.16 856.26 1439.41 859.56C1440.73 862.86 1441.39 866.747 1441.39 871.22V904H1433.91L1433.14 897.62H1432.81C1430.24 899.747 1427.49 901.58 1424.56 903.12C1421.62 904.587 1418.47 905.32 1415.1 905.32ZM1417.63 897.84C1420.27 897.84 1422.72 897.253 1425 896.08C1427.34 894.907 1429.8 893.183 1432.37 890.91V876.5C1426.35 877.233 1421.59 878.187 1418.07 879.36C1414.62 880.46 1412.13 881.853 1410.59 883.54C1409.05 885.227 1408.28 887.243 1408.28 889.59C1408.28 892.523 1409.19 894.65 1411.03 895.97C1412.86 897.217 1415.06 897.84 1417.63 897.84ZM1497.17 905.32C1493.43 905.32 1490.09 904.843 1487.16 903.89C1484.3 902.937 1481.8 901.727 1479.68 900.26C1477.55 898.793 1475.68 897.18 1474.07 895.42L1478.69 889.48C1480.81 891.68 1483.27 893.623 1486.06 895.31C1488.92 896.997 1492.44 897.84 1496.62 897.84C1500.87 897.84 1504.35 896.667 1507.07 894.32C1509.78 891.973 1511.14 888.857 1511.14 884.97C1511.14 882.183 1510.4 879.763 1508.94 877.71C1507.54 875.583 1505.2 873.933 1501.9 872.76C1498.67 871.587 1494.27 871 1488.7 871V864.07C1493.68 864.07 1497.61 863.483 1500.47 862.31C1503.4 861.137 1505.49 859.597 1506.74 857.69C1507.98 855.71 1508.61 853.473 1508.61 850.98C1508.61 847.533 1507.51 844.82 1505.31 842.84C1503.18 840.86 1500.25 839.87 1496.51 839.87C1493.57 839.87 1490.86 840.53 1488.37 841.85C1485.87 843.17 1483.6 844.893 1481.55 847.02L1476.71 841.3C1479.42 838.733 1482.43 836.643 1485.73 835.03C1489.03 833.343 1492.73 832.5 1496.84 832.5C1500.94 832.5 1504.57 833.197 1507.73 834.59C1510.88 835.983 1513.34 838 1515.1 840.64C1516.93 843.28 1517.85 846.507 1517.85 850.32C1517.85 854.573 1516.67 858.057 1514.33 860.77C1511.98 863.483 1508.9 865.573 1505.09 867.04V867.48C1507.95 868.14 1510.51 869.277 1512.79 870.89C1515.06 872.43 1516.86 874.41 1518.18 876.83C1519.57 879.25 1520.27 882.073 1520.27 885.3C1520.27 889.48 1519.24 893.073 1517.19 896.08C1515.13 899.013 1512.35 901.287 1508.83 902.9C1505.31 904.513 1501.42 905.32 1497.17 905.32ZM1575.19 905.32C1568.44 905.32 1563.05 902.9 1559.02 898.06C1555.06 893.147 1553.08 886.253 1553.08 877.38C1553.08 871.587 1554.14 866.6 1556.27 862.42C1558.47 858.167 1561.33 854.903 1564.85 852.63C1568.37 850.357 1572.18 849.22 1576.29 849.22C1579.44 849.22 1582.12 849.77 1584.32 850.87C1586.59 851.897 1588.9 853.4 1591.25 855.38L1590.81 846.25V825.68H1599.94V904H1592.46L1591.69 897.73H1591.36C1589.3 899.783 1586.88 901.58 1584.1 903.12C1581.31 904.587 1578.34 905.32 1575.19 905.32ZM1577.17 897.73C1579.66 897.73 1582.01 897.107 1584.21 895.86C1586.41 894.613 1588.61 892.78 1590.81 890.36V862.42C1588.61 860.367 1586.44 858.937 1584.32 858.13C1582.19 857.25 1580.03 856.81 1577.83 856.81C1574.97 856.81 1572.36 857.69 1570.02 859.45C1567.74 861.137 1565.91 863.52 1564.52 866.6C1563.12 869.607 1562.43 873.163 1562.43 877.27C1562.43 883.65 1563.71 888.673 1566.28 892.34C1568.84 895.933 1572.47 897.73 1577.17 897.73ZM1630.26 905.32C1627.33 905.32 1624.65 904.733 1622.23 903.56C1619.89 902.313 1618.02 900.59 1616.62 898.39C1615.23 896.117 1614.53 893.367 1614.53 890.14C1614.53 884.127 1617.17 879.58 1622.45 876.5C1627.73 873.42 1636.09 871.257 1647.53 870.01C1647.46 867.81 1647.09 865.683 1646.43 863.63C1645.85 861.577 1644.75 859.927 1643.13 858.68C1641.52 857.433 1639.28 856.81 1636.42 856.81C1633.34 856.81 1630.45 857.397 1627.73 858.57C1625.02 859.67 1622.6 860.917 1620.47 862.31L1616.95 856.15C1618.57 855.05 1620.47 853.987 1622.67 852.96C1624.87 851.86 1627.26 850.98 1629.82 850.32C1632.39 849.587 1635.1 849.22 1637.96 849.22C1642.29 849.22 1645.81 850.137 1648.52 851.97C1651.31 853.73 1653.33 856.26 1654.57 859.56C1655.89 862.86 1656.55 866.747 1656.55 871.22V904H1649.07L1648.3 897.62H1647.97C1645.41 899.747 1642.66 901.58 1639.72 903.12C1636.79 904.587 1633.64 905.32 1630.26 905.32ZM1632.79 897.84C1635.43 897.84 1637.89 897.253 1640.16 896.08C1642.51 894.907 1644.97 893.183 1647.53 890.91V876.5C1641.52 877.233 1636.75 878.187 1633.23 879.36C1629.79 880.46 1627.29 881.853 1625.75 883.54C1624.21 885.227 1623.44 887.243 1623.44 889.59C1623.44 892.523 1624.36 894.65 1626.19 895.97C1628.03 897.217 1630.23 897.84 1632.79 897.84ZM1695.39 904V850.54H1702.87L1703.64 858.24H1703.97C1706.32 855.747 1708.85 853.62 1711.56 851.86C1714.35 850.1 1717.36 849.22 1720.58 849.22C1724.69 849.22 1727.88 850.137 1730.15 851.97C1732.5 853.803 1734.22 856.297 1735.32 859.45C1738.11 856.37 1740.93 853.913 1743.79 852.08C1746.65 850.173 1749.7 849.22 1752.92 849.22C1758.5 849.22 1762.6 851.017 1765.24 854.61C1767.88 858.13 1769.2 863.3 1769.2 870.12V904H1760.18V871.33C1760.18 866.27 1759.38 862.64 1757.76 860.44C1756.15 858.167 1753.66 857.03 1750.28 857.03C1748.16 857.03 1745.99 857.727 1743.79 859.12C1741.67 860.44 1739.36 862.493 1736.86 865.28V904H1727.84V871.33C1727.84 866.27 1727.04 862.64 1725.42 860.44C1723.81 858.167 1721.28 857.03 1717.83 857.03C1713.8 857.03 1709.33 859.78 1704.41 865.28V904H1695.39ZM1786.59 904V850.54H1795.61V904H1786.59ZM1791.1 839.54C1789.34 839.54 1787.88 838.99 1786.7 837.89C1785.6 836.79 1785.05 835.36 1785.05 833.6C1785.05 831.84 1785.6 830.41 1786.7 829.31C1787.88 828.21 1789.34 827.66 1791.1 827.66C1792.86 827.66 1794.29 828.21 1795.39 829.31C1796.57 830.41 1797.15 831.84 1797.15 833.6C1797.15 835.36 1796.57 836.79 1795.39 837.89C1794.29 838.99 1792.86 839.54 1791.1 839.54ZM1831.7 928.64C1827.38 928.64 1823.53 928.053 1820.15 926.88C1816.85 925.78 1814.25 924.167 1812.34 922.04C1810.51 919.913 1809.59 917.31 1809.59 914.23C1809.59 911.957 1810.29 909.757 1811.68 907.63C1813.08 905.577 1814.98 903.743 1817.4 902.13V901.69C1816.08 900.81 1814.95 899.673 1813.99 898.28C1813.11 896.813 1812.67 895.053 1812.67 893C1812.67 890.727 1813.3 888.747 1814.54 887.06C1815.86 885.373 1817.18 884.053 1818.5 883.1V882.66C1816.82 881.193 1815.24 879.213 1813.77 876.72C1812.31 874.227 1811.57 871.403 1811.57 868.25C1811.57 864.363 1812.49 860.99 1814.32 858.13C1816.23 855.27 1818.69 853.07 1821.69 851.53C1824.77 849.99 1828.11 849.22 1831.7 849.22C1833.17 849.22 1834.56 849.367 1835.88 849.66C1837.2 849.88 1838.34 850.173 1839.29 850.54H1857.88V857.47H1846.77V857.91C1848.09 859.083 1849.16 860.55 1849.96 862.31C1850.84 864.07 1851.28 866.16 1851.28 868.58C1851.28 872.393 1850.4 875.693 1848.64 878.48C1846.88 881.193 1844.54 883.32 1841.6 884.86C1838.67 886.327 1835.37 887.06 1831.7 887.06C1830.38 887.06 1829.03 886.913 1827.63 886.62C1826.24 886.253 1824.92 885.777 1823.67 885.19C1822.79 885.997 1821.99 886.877 1821.25 887.83C1820.59 888.783 1820.26 890.03 1820.26 891.57C1820.26 893.257 1820.92 894.65 1822.24 895.75C1823.64 896.85 1826.13 897.4 1829.72 897.4H1840.06C1846.3 897.4 1850.95 898.427 1854.03 900.48C1857.19 902.46 1858.76 905.687 1858.76 910.16C1858.76 913.46 1857.66 916.503 1855.46 919.29C1853.26 922.077 1850.11 924.313 1846 926C1841.97 927.76 1837.2 928.64 1831.7 928.64ZM1831.7 881.01C1833.76 881.01 1835.63 880.497 1837.31 879.47C1839.07 878.37 1840.47 876.867 1841.49 874.96C1842.52 873.053 1843.03 870.817 1843.03 868.25C1843.03 864.29 1841.93 861.247 1839.73 859.12C1837.53 856.92 1834.86 855.82 1831.7 855.82C1828.55 855.82 1825.87 856.92 1823.67 859.12C1821.47 861.247 1820.37 864.29 1820.37 868.25C1820.37 870.817 1820.89 873.053 1821.91 874.96C1822.94 876.867 1824.3 878.37 1825.98 879.47C1827.74 880.497 1829.65 881.01 1831.7 881.01ZM1833.02 922.37C1836.4 922.37 1839.33 921.857 1841.82 920.83C1844.39 919.803 1846.37 918.447 1847.76 916.76C1849.23 915.073 1849.96 913.313 1849.96 911.48C1849.96 908.987 1849.01 907.263 1847.1 906.31C1845.27 905.357 1842.63 904.88 1839.18 904.88H1829.94C1828.92 904.88 1827.78 904.807 1826.53 904.66C1825.36 904.513 1824.19 904.293 1823.01 904C1821.03 905.393 1819.6 906.86 1818.72 908.4C1817.92 909.94 1817.51 911.48 1817.51 913.02C1817.51 915.88 1818.87 918.153 1821.58 919.84C1824.37 921.527 1828.18 922.37 1833.02 922.37ZM1869.09 904V850.54H1876.57L1877.34 860.22H1877.67C1879.43 856.847 1881.63 854.17 1884.27 852.19C1886.91 850.21 1889.77 849.22 1892.85 849.22C1894.03 849.22 1895.05 849.293 1895.93 849.44C1896.81 849.587 1897.69 849.88 1898.57 850.32L1896.59 858.02C1895.79 857.8 1895.02 857.653 1894.28 857.58C1893.62 857.433 1892.74 857.36 1891.64 857.36C1889.37 857.36 1886.99 858.277 1884.49 860.11C1882.07 861.943 1879.95 865.133 1878.11 869.68V904H1869.09ZM1916.97 905.32C1914.04 905.32 1911.36 904.733 1908.94 903.56C1906.59 902.313 1904.72 900.59 1903.33 898.39C1901.94 896.117 1901.24 893.367 1901.24 890.14C1901.24 884.127 1903.88 879.58 1909.16 876.5C1914.44 873.42 1922.8 871.257 1934.24 870.01C1934.17 867.81 1933.8 865.683 1933.14 863.63C1932.55 861.577 1931.45 859.927 1929.84 858.68C1928.23 857.433 1925.99 856.81 1923.13 856.81C1920.05 856.81 1917.15 857.397 1914.44 858.57C1911.73 859.67 1909.31 860.917 1907.18 862.31L1903.66 856.15C1905.27 855.05 1907.18 853.987 1909.38 852.96C1911.58 851.86 1913.96 850.98 1916.53 850.32C1919.1 849.587 1921.81 849.22 1924.67 849.22C1929 849.22 1932.52 850.137 1935.23 851.97C1938.02 853.73 1940.03 856.26 1941.28 859.56C1942.6 862.86 1943.26 866.747 1943.26 871.22V904H1935.78L1935.01 897.62H1934.68C1932.11 899.747 1929.36 901.58 1926.43 903.12C1923.5 904.587 1920.34 905.32 1916.97 905.32ZM1919.5 897.84C1922.14 897.84 1924.6 897.253 1926.87 896.08C1929.22 894.907 1931.67 893.183 1934.24 890.91V876.5C1928.23 877.233 1923.46 878.187 1919.94 879.36C1916.49 880.46 1914 881.853 1912.46 883.54C1910.92 885.227 1910.15 887.243 1910.15 889.59C1910.15 892.523 1911.07 894.65 1912.9 895.97C1914.73 897.217 1916.93 897.84 1919.5 897.84ZM1981.31 905.32C1976.54 905.32 1972.25 904.22 1968.44 902.02C1964.63 899.82 1961.62 896.63 1959.42 892.45C1957.22 888.27 1956.12 883.247 1956.12 877.38C1956.12 871.367 1957.29 866.27 1959.64 862.09C1962.06 857.91 1965.21 854.72 1969.1 852.52C1973.06 850.32 1977.31 849.22 1981.86 849.22C1985.38 849.22 1988.39 849.807 1990.88 850.98C1993.45 852.153 1995.65 853.657 1997.48 855.49L1992.97 861.1C1991.65 859.78 1990.07 858.753 1988.24 858.02C1986.48 857.213 1984.46 856.81 1982.19 856.81C1979.04 856.81 1976.18 857.69 1973.61 859.45C1971.12 861.137 1969.14 863.52 1967.67 866.6C1966.2 869.68 1965.47 873.273 1965.47 877.38C1965.47 881.413 1966.17 884.97 1967.56 888.05C1968.95 891.13 1970.9 893.55 1973.39 895.31C1975.88 896.997 1978.78 897.84 1982.08 897.84C1984.57 897.84 1986.88 897.363 1989.01 896.41C1991.14 895.457 1992.97 894.247 1994.51 892.78L1998.47 898.28C1996.2 900.407 1993.63 902.13 1990.77 903.45C1987.91 904.697 1984.76 905.32 1981.31 905.32ZM1970.75 928.86L1969.87 924.46C1974.49 924.093 1977.64 923.47 1979.33 922.59C1981.02 921.783 1981.86 920.573 1981.86 918.96C1981.86 917.493 1981.24 916.357 1979.99 915.55C1978.74 914.743 1976.54 914.12 1973.39 913.68L1978.23 903.67H1984.06L1980.87 911.04C1983.44 911.627 1985.42 912.507 1986.81 913.68C1988.2 914.853 1988.9 916.577 1988.9 918.85C1988.9 922.003 1987.32 924.387 1984.17 926C1981.09 927.613 1976.62 928.567 1970.75 928.86ZM2021.49 905.32C2018.56 905.32 2015.88 904.733 2013.46 903.56C2011.12 902.313 2009.25 900.59 2007.85 898.39C2006.46 896.117 2005.76 893.367 2005.76 890.14C2005.76 884.127 2008.4 879.58 2013.68 876.5C2018.96 873.42 2027.32 871.257 2038.76 870.01C2038.69 867.81 2038.32 865.683 2037.66 863.63C2037.08 861.577 2035.98 859.927 2034.36 858.68C2032.75 857.433 2030.51 856.81 2027.65 856.81C2024.57 856.81 2021.68 857.397 2018.96 858.57C2016.25 859.67 2013.83 860.917 2011.7 862.31L2008.18 856.15C2009.8 855.05 2011.7 853.987 2013.9 852.96C2016.1 851.86 2018.49 850.98 2021.05 850.32C2023.62 849.587 2026.33 849.22 2029.19 849.22C2033.52 849.22 2037.04 850.137 2039.75 851.97C2042.54 853.73 2044.56 856.26 2045.8 859.56C2047.12 862.86 2047.78 866.747 2047.78 871.22V904H2040.3L2039.53 897.62H2039.2C2036.64 899.747 2033.89 901.58 2030.95 903.12C2028.02 904.587 2024.87 905.32 2021.49 905.32ZM2024.02 897.84C2026.66 897.84 2029.12 897.253 2031.39 896.08C2033.74 894.907 2036.2 893.183 2038.76 890.91V876.5C2032.75 877.233 2027.98 878.187 2024.46 879.36C2021.02 880.46 2018.52 881.853 2016.98 883.54C2015.44 885.227 2014.67 887.243 2014.67 889.59C2014.67 892.523 2015.59 894.65 2017.42 895.97C2019.26 897.217 2021.46 897.84 2024.02 897.84ZM2037.44 840.53C2035.54 840.53 2033.85 840.09 2032.38 839.21C2030.99 838.257 2029.71 837.157 2028.53 835.91C2027.36 834.663 2026.22 833.6 2025.12 832.72C2024.1 831.767 2022.96 831.29 2021.71 831.29C2020.1 831.29 2018.89 832.097 2018.08 833.71C2017.28 835.25 2016.76 837.34 2016.54 839.98L2010.49 839.65C2010.57 836.717 2011.01 834.15 2011.81 831.95C2012.62 829.677 2013.79 827.917 2015.33 826.67C2016.95 825.35 2019.04 824.69 2021.6 824.69C2023.58 824.69 2025.27 825.167 2026.66 826.12C2028.06 827 2029.34 828.063 2030.51 829.31C2031.69 830.557 2032.79 831.657 2033.81 832.61C2034.91 833.49 2036.12 833.93 2037.44 833.93C2039.06 833.93 2040.27 833.123 2041.07 831.51C2041.88 829.897 2042.36 827.807 2042.5 825.24L2048.55 825.68C2048.48 828.467 2048.04 830.997 2047.23 833.27C2046.43 835.47 2045.22 837.23 2043.6 838.55C2042.06 839.87 2040.01 840.53 2037.44 840.53ZM2085.39 905.32C2081.07 905.32 2077 904.22 2073.18 902.02C2069.44 899.82 2066.4 896.63 2064.05 892.45C2061.78 888.27 2060.64 883.247 2060.64 877.38C2060.64 871.367 2061.78 866.27 2064.05 862.09C2066.4 857.91 2069.44 854.72 2073.18 852.52C2077 850.32 2081.07 849.22 2085.39 849.22C2089.79 849.22 2093.86 850.32 2097.6 852.52C2101.34 854.72 2104.35 857.91 2106.62 862.09C2108.97 866.27 2110.14 871.367 2110.14 877.38C2110.14 883.247 2108.97 888.27 2106.62 892.45C2104.35 896.63 2101.34 899.82 2097.6 902.02C2093.86 904.22 2089.79 905.32 2085.39 905.32ZM2085.39 897.84C2088.47 897.84 2091.19 896.997 2093.53 895.31C2095.88 893.55 2097.68 891.13 2098.92 888.05C2100.17 884.97 2100.79 881.413 2100.79 877.38C2100.79 873.273 2100.17 869.68 2098.92 866.6C2097.68 863.447 2095.88 861.027 2093.53 859.34C2091.19 857.58 2088.47 856.7 2085.39 856.7C2082.31 856.7 2079.6 857.58 2077.25 859.34C2074.98 861.027 2073.18 863.447 2071.86 866.6C2070.62 869.68 2069.99 873.273 2069.99 877.38C2069.99 881.413 2070.62 884.97 2071.86 888.05C2073.18 891.13 2074.98 893.55 2077.25 895.31C2079.6 896.997 2082.31 897.84 2085.39 897.84ZM2128.95 865.61C2127.19 865.61 2125.65 864.987 2124.33 863.74C2123.01 862.42 2122.35 860.77 2122.35 858.79C2122.35 856.663 2123.01 854.977 2124.33 853.73C2125.65 852.41 2127.19 851.75 2128.95 851.75C2130.78 851.75 2132.32 852.41 2133.57 853.73C2134.82 854.977 2135.44 856.663 2135.44 858.79C2135.44 860.77 2134.82 862.42 2133.57 863.74C2132.32 864.987 2130.78 865.61 2128.95 865.61ZM2128.95 905.32C2127.19 905.32 2125.65 904.697 2124.33 903.45C2123.01 902.13 2122.35 900.48 2122.35 898.5C2122.35 896.373 2123.01 894.687 2124.33 893.44C2125.65 892.12 2127.19 891.46 2128.95 891.46C2130.78 891.46 2132.32 892.12 2133.57 893.44C2134.82 894.687 2135.44 896.373 2135.44 898.5C2135.44 900.48 2134.82 902.13 2133.57 903.45C2132.32 904.697 2130.78 905.32 2128.95 905.32ZM2191.9 905.32C2185.15 905.32 2179.76 902.9 2175.73 898.06C2171.77 893.147 2169.79 886.253 2169.79 877.38C2169.79 871.587 2170.85 866.6 2172.98 862.42C2175.18 858.167 2178.04 854.903 2181.56 852.63C2185.08 850.357 2188.89 849.22 2193 849.22C2196.15 849.22 2198.83 849.77 2201.03 850.87C2203.3 851.897 2205.61 853.4 2207.96 855.38L2207.52 846.25V825.68H2216.65V904H2209.17L2208.4 897.73H2208.07C2206.01 899.783 2203.59 901.58 2200.81 903.12C2198.02 904.587 2195.05 905.32 2191.9 905.32ZM2193.88 897.73C2196.37 897.73 2198.72 897.107 2200.92 895.86C2203.12 894.613 2205.32 892.78 2207.52 890.36V862.42C2205.32 860.367 2203.15 858.937 2201.03 858.13C2198.9 857.25 2196.74 856.81 2194.54 856.81C2191.68 856.81 2189.07 857.69 2186.73 859.45C2184.45 861.137 2182.62 863.52 2181.23 866.6C2179.83 869.607 2179.14 873.163 2179.14 877.27C2179.14 883.65 2180.42 888.673 2182.99 892.34C2185.55 895.933 2189.18 897.73 2193.88 897.73ZM2256.32 905.32C2251.55 905.32 2247.19 904.22 2243.23 902.02C2239.34 899.747 2236.26 896.557 2233.99 892.45C2231.72 888.27 2230.58 883.21 2230.58 877.27C2230.58 871.477 2231.75 866.49 2234.1 862.31C2236.45 858.13 2239.45 854.903 2243.12 852.63C2246.79 850.357 2250.67 849.22 2254.78 849.22C2259.33 849.22 2263.18 850.283 2266.33 852.41C2269.56 854.463 2271.98 857.36 2273.59 861.1C2275.2 864.84 2276.01 869.24 2276.01 874.3C2276.01 875.253 2275.97 876.17 2275.9 877.05C2275.9 877.93 2275.79 878.81 2275.57 879.69H2237.07V872.54H2267.87C2267.87 867.407 2266.73 863.483 2264.46 860.77C2262.26 857.983 2259.07 856.59 2254.89 856.59C2252.47 856.59 2250.09 857.287 2247.74 858.68C2245.39 860 2243.45 862.163 2241.91 865.17C2240.44 868.177 2239.71 872.173 2239.71 877.16C2239.71 881.707 2240.48 885.52 2242.02 888.6C2243.63 891.68 2245.8 894.027 2248.51 895.64C2251.22 897.18 2254.19 897.95 2257.42 897.95C2259.99 897.95 2262.37 897.583 2264.57 896.85C2266.84 896.117 2268.9 895.127 2270.73 893.88L2274.03 899.82C2271.68 901.433 2269.04 902.753 2266.11 903.78C2263.25 904.807 2259.99 905.32 2256.32 905.32ZM2289.22 904V850.54H2298.24V904H2289.22ZM2293.73 839.54C2291.97 839.54 2290.5 838.99 2289.33 837.89C2288.23 836.79 2287.68 835.36 2287.68 833.6C2287.68 831.84 2288.23 830.41 2289.33 829.31C2290.5 828.21 2291.97 827.66 2293.73 827.66C2295.49 827.66 2296.92 828.21 2298.02 829.31C2299.19 830.41 2299.78 831.84 2299.78 833.6C2299.78 835.36 2299.19 836.79 2298.02 837.89C2296.92 838.99 2295.49 839.54 2293.73 839.54ZM2308.81 904L2326.3 876.06L2310.13 850.54H2319.92L2327.07 862.31C2327.88 863.703 2328.72 865.17 2329.6 866.71C2330.55 868.177 2331.47 869.68 2332.35 871.22H2332.79C2333.6 869.68 2334.4 868.177 2335.21 866.71C2336.02 865.17 2336.82 863.703 2337.63 862.31L2344.12 850.54H2353.58L2337.41 877.05L2354.79 904H2345L2337.19 891.57C2336.24 889.957 2335.25 888.343 2334.22 886.73C2333.27 885.117 2332.31 883.54 2331.36 882H2330.92C2329.97 883.54 2329.05 885.117 2328.17 886.73C2327.29 888.27 2326.41 889.883 2325.53 891.57L2318.27 904H2308.81ZM2376.63 905.32C2373.7 905.32 2371.02 904.733 2368.6 903.56C2366.25 902.313 2364.38 900.59 2362.99 898.39C2361.6 896.117 2360.9 893.367 2360.9 890.14C2360.9 884.127 2363.54 879.58 2368.82 876.5C2374.1 873.42 2382.46 871.257 2393.9 870.01C2393.83 867.81 2393.46 865.683 2392.8 863.63C2392.21 861.577 2391.11 859.927 2389.5 858.68C2387.89 857.433 2385.65 856.81 2382.79 856.81C2379.71 856.81 2376.81 857.397 2374.1 858.57C2371.39 859.67 2368.97 860.917 2366.84 862.31L2363.32 856.15C2364.93 855.05 2366.84 853.987 2369.04 852.96C2371.24 851.86 2373.62 850.98 2376.19 850.32C2378.76 849.587 2381.47 849.22 2384.33 849.22C2388.66 849.22 2392.18 850.137 2394.89 851.97C2397.68 853.73 2399.69 856.26 2400.94 859.56C2402.26 862.86 2402.92 866.747 2402.92 871.22V904H2395.44L2394.67 897.62H2394.34C2391.77 899.747 2389.02 901.58 2386.09 903.12C2383.16 904.587 2380 905.32 2376.63 905.32ZM2379.16 897.84C2381.8 897.84 2384.26 897.253 2386.53 896.08C2388.88 894.907 2391.33 893.183 2393.9 890.91V876.5C2387.89 877.233 2383.12 878.187 2379.6 879.36C2376.15 880.46 2373.66 881.853 2372.12 883.54C2370.58 885.227 2369.81 887.243 2369.81 889.59C2369.81 892.523 2370.73 894.65 2372.56 895.97C2374.39 897.217 2376.59 897.84 2379.16 897.84ZM2419.74 904V850.54H2427.22L2427.99 858.24H2428.32C2430.89 855.673 2433.6 853.547 2436.46 851.86C2439.32 850.1 2442.58 849.22 2446.25 849.22C2451.9 849.22 2456 851.017 2458.57 854.61C2461.21 858.13 2462.53 863.3 2462.53 870.12V904H2453.51V871.33C2453.51 866.27 2452.7 862.64 2451.09 860.44C2449.55 858.167 2446.98 857.03 2443.39 857.03C2440.68 857.03 2438.22 857.727 2436.02 859.12C2433.89 860.513 2431.47 862.567 2428.76 865.28V904H2419.74ZM2498.16 905.32C2491.41 905.32 2486.02 902.9 2481.99 898.06C2478.03 893.147 2476.05 886.253 2476.05 877.38C2476.05 871.587 2477.11 866.6 2479.24 862.42C2481.44 858.167 2484.3 854.903 2487.82 852.63C2491.34 850.357 2495.15 849.22 2499.26 849.22C2502.41 849.22 2505.09 849.77 2507.29 850.87C2509.56 851.897 2511.87 853.4 2514.22 855.38L2513.78 846.25V825.68H2522.91V904H2515.43L2514.66 897.73H2514.33C2512.27 899.783 2509.85 901.58 2507.07 903.12C2504.28 904.587 2501.31 905.32 2498.16 905.32ZM2500.14 897.73C2502.63 897.73 2504.98 897.107 2507.18 895.86C2509.38 894.613 2511.58 892.78 2513.78 890.36V862.42C2511.58 860.367 2509.41 858.937 2507.29 858.13C2505.16 857.25 2503 856.81 2500.8 856.81C2497.94 856.81 2495.33 857.69 2492.99 859.45C2490.71 861.137 2488.88 863.52 2487.49 866.6C2486.09 869.607 2485.39 873.163 2485.39 877.27C2485.39 883.65 2486.68 888.673 2489.25 892.34C2491.81 895.933 2495.44 897.73 2500.14 897.73ZM2561.7 905.32C2557.37 905.32 2553.3 904.22 2549.49 902.02C2545.75 899.82 2542.71 896.63 2540.36 892.45C2538.09 888.27 2536.95 883.247 2536.95 877.38C2536.95 871.367 2538.09 866.27 2540.36 862.09C2542.71 857.91 2545.75 854.72 2549.49 852.52C2553.3 850.32 2557.37 849.22 2561.7 849.22C2566.1 849.22 2570.17 850.32 2573.91 852.52C2577.65 854.72 2580.66 857.91 2582.93 862.09C2585.28 866.27 2586.45 871.367 2586.45 877.38C2586.45 883.247 2585.28 888.27 2582.93 892.45C2580.66 896.63 2577.65 899.82 2573.91 902.02C2570.17 904.22 2566.1 905.32 2561.7 905.32ZM2561.7 897.84C2564.78 897.84 2567.49 896.997 2569.84 895.31C2572.19 893.55 2573.98 891.13 2575.23 888.05C2576.48 884.97 2577.1 881.413 2577.1 877.38C2577.1 873.273 2576.48 869.68 2575.23 866.6C2573.98 863.447 2572.19 861.027 2569.84 859.34C2567.49 857.58 2564.78 856.7 2561.7 856.7C2558.62 856.7 2555.91 857.58 2553.56 859.34C2551.29 861.027 2549.49 863.447 2548.17 866.6C2546.92 869.68 2546.3 873.273 2546.3 877.38C2546.3 881.413 2546.92 884.97 2548.17 888.05C2549.49 891.13 2551.29 893.55 2553.56 895.31C2555.91 896.997 2558.62 897.84 2561.7 897.84ZM2656.43 926.55V907.52L2656.87 897.84C2654.74 899.893 2652.29 901.653 2649.5 903.12C2646.79 904.587 2643.89 905.32 2640.81 905.32C2634.06 905.32 2628.67 902.9 2624.64 898.06C2620.68 893.147 2618.7 886.253 2618.7 877.38C2618.7 871.587 2619.76 866.6 2621.89 862.42C2624.09 858.167 2626.95 854.903 2630.47 852.63C2633.99 850.357 2637.8 849.22 2641.91 849.22C2644.99 849.22 2647.7 849.77 2650.05 850.87C2652.47 851.97 2654.85 853.547 2657.2 855.6H2657.42L2658.3 850.54H2665.56V926.55H2656.43ZM2642.79 897.73C2645.28 897.73 2647.63 897.107 2649.83 895.86C2652.03 894.613 2654.23 892.78 2656.43 890.36V862.42C2654.23 860.367 2652.07 858.937 2649.94 858.13C2647.81 857.25 2645.65 856.81 2643.45 856.81C2640.59 856.81 2637.99 857.69 2635.64 859.45C2633.37 861.137 2631.53 863.52 2630.14 866.6C2628.75 869.607 2628.05 873.163 2628.05 877.27C2628.05 883.65 2629.33 888.673 2631.9 892.34C2634.47 895.933 2638.1 897.73 2642.79 897.73ZM2699.19 905.32C2693.54 905.32 2689.4 903.56 2686.76 900.04C2684.19 896.447 2682.91 891.24 2682.91 884.42V850.54H2691.93V883.21C2691.93 888.197 2692.7 891.827 2694.24 894.1C2695.85 896.3 2698.42 897.4 2701.94 897.4C2704.65 897.4 2707.07 896.703 2709.2 895.31C2711.4 893.843 2713.78 891.57 2716.35 888.49V850.54H2725.37V904H2717.89L2717.12 895.64H2716.79C2714.37 898.573 2711.73 900.92 2708.87 902.68C2706.08 904.44 2702.85 905.32 2699.19 905.32ZM2765.07 905.32C2760.3 905.32 2755.94 904.22 2751.98 902.02C2748.09 899.747 2745.01 896.557 2742.74 892.45C2740.47 888.27 2739.33 883.21 2739.33 877.27C2739.33 871.477 2740.5 866.49 2742.85 862.31C2745.2 858.13 2748.2 854.903 2751.87 852.63C2755.54 850.357 2759.42 849.22 2763.53 849.22C2768.08 849.22 2771.93 850.283 2775.08 852.41C2778.31 854.463 2780.73 857.36 2782.34 861.1C2783.95 864.84 2784.76 869.24 2784.76 874.3C2784.76 875.253 2784.72 876.17 2784.65 877.05C2784.65 877.93 2784.54 878.81 2784.32 879.69H2745.82V872.54H2776.62C2776.62 867.407 2775.48 863.483 2773.21 860.77C2771.01 857.983 2767.82 856.59 2763.64 856.59C2761.22 856.59 2758.84 857.287 2756.49 858.68C2754.14 860 2752.2 862.163 2750.66 865.17C2749.19 868.177 2748.46 872.173 2748.46 877.16C2748.46 881.707 2749.23 885.52 2750.77 888.6C2752.38 891.68 2754.55 894.027 2757.26 895.64C2759.97 897.18 2762.94 897.95 2766.17 897.95C2768.74 897.95 2771.12 897.583 2773.32 896.85C2775.59 896.117 2777.65 895.127 2779.48 893.88L2782.78 899.82C2780.43 901.433 2777.79 902.753 2774.86 903.78C2772 904.807 2768.74 905.32 2765.07 905.32ZM2836.82 904.99C2831.18 904.99 2827.22 903.34 2824.94 900.04C2822.67 896.74 2821.53 892.45 2821.53 887.17V857.91H2813.61V851.09L2821.97 850.54L2823.07 833.38H2830.66V850.54H2845.18V857.91H2830.66V887.28C2830.66 890.507 2831.25 893.037 2832.42 894.87C2833.67 896.703 2835.83 897.62 2838.91 897.62C2839.87 897.62 2840.86 897.547 2841.88 897.4C2842.91 897.18 2843.94 896.813 2844.96 896.3L2846.94 902.68C2845.55 903.34 2843.97 903.89 2842.21 904.33C2840.45 904.77 2838.66 904.99 2836.82 904.99ZM2872.78 905.32C2867.13 905.32 2862.99 903.56 2860.35 900.04C2857.78 896.447 2856.5 891.24 2856.5 884.42V850.54H2865.52V883.21C2865.52 888.197 2866.29 891.827 2867.83 894.1C2869.44 896.3 2872.01 897.4 2875.53 897.4C2878.24 897.4 2880.66 896.703 2882.79 895.31C2884.99 893.843 2887.37 891.57 2889.94 888.49V850.54H2898.96V904H2891.48L2890.71 895.64H2890.38C2887.96 898.573 2885.32 900.92 2882.46 902.68C2879.67 904.44 2876.45 905.32 2872.78 905.32ZM2935.25 905.32C2928.51 905.32 2923.12 902.9 2919.08 898.06C2915.12 893.147 2913.14 886.253 2913.14 877.38C2913.14 871.587 2914.21 866.6 2916.33 862.42C2918.53 858.167 2921.39 854.903 2924.91 852.63C2928.43 850.357 2932.25 849.22 2936.35 849.22C2939.51 849.22 2942.18 849.77 2944.38 850.87C2946.66 851.897 2948.97 853.4 2951.31 855.38L2950.87 846.25V825.68H2960V904H2952.52L2951.75 897.73H2951.42C2949.37 899.783 2946.95 901.58 2944.16 903.12C2941.38 904.587 2938.41 905.32 2935.25 905.32ZM2937.23 897.73C2939.73 897.73 2942.07 897.107 2944.27 895.86C2946.47 894.613 2948.67 892.78 2950.87 890.36V862.42C2948.67 860.367 2946.51 858.937 2944.38 858.13C2942.26 857.25 2940.09 856.81 2937.89 856.81C2935.03 856.81 2932.43 857.69 2930.08 859.45C2927.81 861.137 2925.98 863.52 2924.58 866.6C2923.19 869.607 2922.49 873.163 2922.49 877.27C2922.49 883.65 2923.78 888.673 2926.34 892.34C2928.91 895.933 2932.54 897.73 2937.23 897.73ZM2998.8 905.32C2994.47 905.32 2990.4 904.22 2986.59 902.02C2982.85 899.82 2979.81 896.63 2977.46 892.45C2975.19 888.27 2974.05 883.247 2974.05 877.38C2974.05 871.367 2975.19 866.27 2977.46 862.09C2979.81 857.91 2982.85 854.72 2986.59 852.52C2990.4 850.32 2994.47 849.22 2998.8 849.22C3003.2 849.22 3007.27 850.32 3011.01 852.52C3014.75 854.72 3017.76 857.91 3020.03 862.09C3022.38 866.27 3023.55 871.367 3023.55 877.38C3023.55 883.247 3022.38 888.27 3020.03 892.45C3017.76 896.63 3014.75 899.82 3011.01 902.02C3007.27 904.22 3003.2 905.32 2998.8 905.32ZM2998.8 897.84C3001.88 897.84 3004.59 896.997 3006.94 895.31C3009.29 893.55 3011.08 891.13 3012.33 888.05C3013.58 884.97 3014.2 881.413 3014.2 877.38C3014.2 873.273 3013.58 869.68 3012.33 866.6C3011.08 863.447 3009.29 861.027 3006.94 859.34C3004.59 857.58 3001.88 856.7 2998.8 856.7C2995.72 856.7 2993.01 857.58 2990.66 859.34C2988.39 861.027 2986.59 863.447 2985.27 866.6C2984.02 869.68 2983.4 873.273 2983.4 877.38C2983.4 881.413 2984.02 884.97 2985.27 888.05C2986.59 891.13 2988.39 893.55 2990.66 895.31C2993.01 896.997 2995.72 897.84 2998.8 897.84ZM3059.65 904V850.54H3067.13L3067.9 860.22H3068.23C3069.99 856.847 3072.19 854.17 3074.83 852.19C3077.47 850.21 3080.33 849.22 3083.41 849.22C3084.58 849.22 3085.61 849.293 3086.49 849.44C3087.37 849.587 3088.25 849.88 3089.13 850.32L3087.15 858.02C3086.34 857.8 3085.57 857.653 3084.84 857.58C3084.18 857.433 3083.3 857.36 3082.2 857.36C3079.93 857.36 3077.54 858.277 3075.05 860.11C3072.63 861.943 3070.5 865.133 3068.67 869.68V904H3059.65ZM3118.38 905.32C3113.61 905.32 3109.25 904.22 3105.29 902.02C3101.4 899.747 3098.32 896.557 3096.05 892.45C3093.78 888.27 3092.64 883.21 3092.64 877.27C3092.64 871.477 3093.81 866.49 3096.16 862.31C3098.51 858.13 3101.51 854.903 3105.18 852.63C3108.85 850.357 3112.73 849.22 3116.84 849.22C3121.39 849.22 3125.24 850.283 3128.39 852.41C3131.62 854.463 3134.04 857.36 3135.65 861.1C3137.26 864.84 3138.07 869.24 3138.07 874.3C3138.07 875.253 3138.03 876.17 3137.96 877.05C3137.96 877.93 3137.85 878.81 3137.63 879.69H3099.13V872.54H3129.93C3129.93 867.407 3128.79 863.483 3126.52 860.77C3124.32 857.983 3121.13 856.59 3116.95 856.59C3114.53 856.59 3112.15 857.287 3109.8 858.68C3107.45 860 3105.51 862.163 3103.97 865.17C3102.5 868.177 3101.77 872.173 3101.77 877.16C3101.77 881.707 3102.54 885.52 3104.08 888.6C3105.69 891.68 3107.86 894.027 3110.57 895.64C3113.28 897.18 3116.25 897.95 3119.48 897.95C3122.05 897.95 3124.43 897.583 3126.63 896.85C3128.9 896.117 3130.96 895.127 3132.79 893.88L3136.09 899.82C3133.74 901.433 3131.1 902.753 3128.17 903.78C3125.31 904.807 3122.05 905.32 3118.38 905.32ZM3160.85 904.99C3158.58 904.99 3156.75 904.55 3155.35 903.67C3153.96 902.717 3152.93 901.36 3152.27 899.6C3151.61 897.767 3151.28 895.567 3151.28 893V825.68H3160.3V893.66C3160.3 895.127 3160.56 896.153 3161.07 896.74C3161.59 897.253 3162.21 897.51 3162.94 897.51C3163.24 897.51 3163.49 897.51 3163.71 897.51C3164.01 897.437 3164.37 897.363 3164.81 897.29L3166.13 904.11C3165.47 904.33 3164.7 904.513 3163.82 904.66C3163.02 904.88 3162.03 904.99 3160.85 904.99ZM3191.64 905.32C3188.71 905.32 3186.03 904.733 3183.61 903.56C3181.26 902.313 3179.39 900.59 3178 898.39C3176.61 896.117 3175.91 893.367 3175.91 890.14C3175.91 884.127 3178.55 879.58 3183.83 876.5C3189.11 873.42 3197.47 871.257 3208.91 870.01C3208.84 867.81 3208.47 865.683 3207.81 863.63C3207.22 861.577 3206.12 859.927 3204.51 858.68C3202.9 857.433 3200.66 856.81 3197.8 856.81C3194.72 856.81 3191.82 857.397 3189.11 858.57C3186.4 859.67 3183.98 860.917 3181.85 862.31L3178.33 856.15C3179.94 855.05 3181.85 853.987 3184.05 852.96C3186.25 851.86 3188.63 850.98 3191.2 850.32C3193.77 849.587 3196.48 849.22 3199.34 849.22C3203.67 849.22 3207.19 850.137 3209.9 851.97C3212.69 853.73 3214.7 856.26 3215.95 859.56C3217.27 862.86 3217.93 866.747 3217.93 871.22V904H3210.45L3209.68 897.62H3209.35C3206.78 899.747 3204.03 901.58 3201.1 903.12C3198.17 904.587 3195.01 905.32 3191.64 905.32ZM3194.17 897.84C3196.81 897.84 3199.27 897.253 3201.54 896.08C3203.89 894.907 3206.34 893.183 3208.91 890.91V876.5C3202.9 877.233 3198.13 878.187 3194.61 879.36C3191.16 880.46 3188.67 881.853 3187.13 883.54C3185.59 885.227 3184.82 887.243 3184.82 889.59C3184.82 892.523 3185.74 894.65 3187.57 895.97C3189.4 897.217 3191.6 897.84 3194.17 897.84ZM3250.07 904.99C3244.43 904.99 3240.47 903.34 3238.19 900.04C3235.92 896.74 3234.78 892.45 3234.78 887.17V857.91H3226.86V851.09L3235.22 850.54L3236.32 833.38H3243.91V850.54H3258.43V857.91H3243.91V887.28C3243.91 890.507 3244.5 893.037 3245.67 894.87C3246.92 896.703 3249.08 897.62 3252.16 897.62C3253.12 897.62 3254.11 897.547 3255.13 897.4C3256.16 897.18 3257.19 896.813 3258.21 896.3L3260.19 902.68C3258.8 903.34 3257.22 903.89 3255.46 904.33C3253.7 904.77 3251.91 904.99 3250.07 904.99ZM3270.41 904V850.54H3279.43V904H3270.41ZM3274.92 839.54C3273.16 839.54 3271.7 838.99 3270.52 837.89C3269.42 836.79 3268.87 835.36 3268.87 833.6C3268.87 831.84 3269.42 830.41 3270.52 829.31C3271.7 828.21 3273.16 827.66 3274.92 827.66C3276.68 827.66 3278.11 828.21 3279.21 829.31C3280.39 830.41 3280.97 831.84 3280.97 833.6C3280.97 835.36 3280.39 836.79 3279.21 837.89C3278.11 838.99 3276.68 839.54 3274.92 839.54ZM3309.03 904L3289.78 850.54H3299.13L3309.25 880.9C3310.06 883.467 3310.87 886.107 3311.67 888.82C3312.55 891.46 3313.4 894.063 3314.2 896.63H3314.64C3315.38 894.063 3316.18 891.46 3317.06 888.82C3317.94 886.107 3318.75 883.467 3319.48 880.9L3329.6 850.54H3338.51L3319.59 904H3309.03ZM3369.19 905.32C3364.86 905.32 3360.79 904.22 3356.98 902.02C3353.24 899.82 3350.2 896.63 3347.85 892.45C3345.58 888.27 3344.44 883.247 3344.44 877.38C3344.44 871.367 3345.58 866.27 3347.85 862.09C3350.2 857.91 3353.24 854.72 3356.98 852.52C3360.79 850.32 3364.86 849.22 3369.19 849.22C3373.59 849.22 3377.66 850.32 3381.4 852.52C3385.14 854.72 3388.15 857.91 3390.42 862.09C3392.77 866.27 3393.94 871.367 3393.94 877.38C3393.94 883.247 3392.77 888.27 3390.42 892.45C3388.15 896.63 3385.14 899.82 3381.4 902.02C3377.66 904.22 3373.59 905.32 3369.19 905.32ZM3369.19 897.84C3372.27 897.84 3374.98 896.997 3377.33 895.31C3379.68 893.55 3381.47 891.13 3382.72 888.05C3383.97 884.97 3384.59 881.413 3384.59 877.38C3384.59 873.273 3383.97 869.68 3382.72 866.6C3381.47 863.447 3379.68 861.027 3377.33 859.34C3374.98 857.58 3372.27 856.7 3369.19 856.7C3366.11 856.7 3363.4 857.58 3361.05 859.34C3358.78 861.027 3356.98 863.447 3355.66 866.6C3354.41 869.68 3353.79 873.273 3353.79 877.38C3353.79 881.413 3354.41 884.97 3355.66 888.05C3356.98 891.13 3358.78 893.55 3361.05 895.31C3363.4 896.997 3366.11 897.84 3369.19 897.84ZM1630.48 1025.32C1627.54 1025.32 1624.87 1024.73 1622.45 1023.56C1620.1 1022.31 1618.23 1020.59 1616.84 1018.39C1615.44 1016.12 1614.75 1013.37 1614.75 1010.14C1614.75 1004.13 1617.39 999.58 1622.67 996.5C1627.95 993.42 1636.31 991.257 1647.75 990.01C1647.67 987.81 1647.31 985.683 1646.65 983.63C1646.06 981.577 1644.96 979.927 1643.35 978.68C1641.73 977.433 1639.5 976.81 1636.64 976.81C1633.56 976.81 1630.66 977.397 1627.95 978.57C1625.23 979.67 1622.81 980.917 1620.69 982.31L1617.17 976.15C1618.78 975.05 1620.69 973.987 1622.89 972.96C1625.09 971.86 1627.47 970.98 1630.04 970.32C1632.6 969.587 1635.32 969.22 1638.18 969.22C1642.5 969.22 1646.02 970.137 1648.74 971.97C1651.52 973.73 1653.54 976.26 1654.79 979.56C1656.11 982.86 1656.77 986.747 1656.77 991.22V1024H1649.29L1648.52 1017.62H1648.19C1645.62 1019.75 1642.87 1021.58 1639.94 1023.12C1637 1024.59 1633.85 1025.32 1630.48 1025.32ZM1633.01 1017.84C1635.65 1017.84 1638.1 1017.25 1640.38 1016.08C1642.72 1014.91 1645.18 1013.18 1647.75 1010.91V996.5C1641.73 997.233 1636.97 998.187 1633.45 999.36C1630 1000.46 1627.51 1001.85 1625.97 1003.54C1624.43 1005.23 1623.66 1007.24 1623.66 1009.59C1623.66 1012.52 1624.57 1014.65 1626.41 1015.97C1628.24 1017.22 1630.44 1017.84 1633.01 1017.84ZM1694.38 1025.32C1690.05 1025.32 1685.98 1024.22 1682.17 1022.02C1678.43 1019.82 1675.38 1016.63 1673.04 1012.45C1670.76 1008.27 1669.63 1003.25 1669.63 997.38C1669.63 991.367 1670.76 986.27 1673.04 982.09C1675.38 977.91 1678.43 974.72 1682.17 972.52C1685.98 970.32 1690.05 969.22 1694.38 969.22C1698.78 969.22 1702.85 970.32 1706.59 972.52C1710.33 974.72 1713.33 977.91 1715.61 982.09C1717.95 986.27 1719.13 991.367 1719.13 997.38C1719.13 1003.25 1717.95 1008.27 1715.61 1012.45C1713.33 1016.63 1710.33 1019.82 1706.59 1022.02C1702.85 1024.22 1698.78 1025.32 1694.38 1025.32ZM1694.38 1017.84C1697.46 1017.84 1700.17 1017 1702.52 1015.31C1704.86 1013.55 1706.66 1011.13 1707.91 1008.05C1709.15 1004.97 1709.78 1001.41 1709.78 997.38C1709.78 993.273 1709.15 989.68 1707.91 986.6C1706.66 983.447 1704.86 981.027 1702.52 979.34C1700.17 977.58 1697.46 976.7 1694.38 976.7C1691.3 976.7 1688.58 977.58 1686.24 979.34C1683.96 981.027 1682.17 983.447 1680.85 986.6C1679.6 989.68 1678.98 993.273 1678.98 997.38C1678.98 1001.41 1679.6 1004.97 1680.85 1008.05C1682.17 1011.13 1683.96 1013.55 1686.24 1015.31C1688.58 1017 1691.3 1017.84 1694.38 1017.84ZM1776.02 1025.32C1771.69 1025.32 1767.62 1024.22 1763.81 1022.02C1760.07 1019.82 1757.02 1016.63 1754.68 1012.45C1752.4 1008.27 1751.27 1003.25 1751.27 997.38C1751.27 991.367 1752.4 986.27 1754.68 982.09C1757.02 977.91 1760.07 974.72 1763.81 972.52C1767.62 970.32 1771.69 969.22 1776.02 969.22C1780.42 969.22 1784.49 970.32 1788.23 972.52C1791.97 974.72 1794.97 977.91 1797.25 982.09C1799.59 986.27 1800.77 991.367 1800.77 997.38C1800.77 1003.25 1799.59 1008.27 1797.25 1012.45C1794.97 1016.63 1791.97 1019.82 1788.23 1022.02C1784.49 1024.22 1780.42 1025.32 1776.02 1025.32ZM1776.02 1017.84C1779.1 1017.84 1781.81 1017 1784.16 1015.31C1786.5 1013.55 1788.3 1011.13 1789.55 1008.05C1790.79 1004.97 1791.42 1001.41 1791.42 997.38C1791.42 993.273 1790.79 989.68 1789.55 986.6C1788.3 983.447 1786.5 981.027 1784.16 979.34C1781.81 977.58 1779.1 976.7 1776.02 976.7C1772.94 976.7 1770.22 977.58 1767.88 979.34C1765.6 981.027 1763.81 983.447 1762.49 986.6C1761.24 989.68 1760.62 993.273 1760.62 997.38C1760.62 1001.41 1761.24 1004.97 1762.49 1008.05C1763.81 1011.13 1765.6 1013.55 1767.88 1015.31C1770.22 1017 1772.94 1017.84 1776.02 1017.84ZM1838.5 1025.32C1836 1025.32 1833.44 1024.73 1830.8 1023.56C1828.16 1022.31 1825.63 1020.63 1823.21 1018.5H1822.88L1822.11 1024H1814.85V945.68H1823.87V967.02L1823.65 976.7C1826.07 974.573 1828.71 972.813 1831.57 971.42C1834.5 969.953 1837.43 969.22 1840.37 969.22C1844.99 969.22 1848.87 970.357 1852.03 972.63C1855.18 974.83 1857.56 977.983 1859.18 982.09C1860.79 986.123 1861.6 990.89 1861.6 996.39C1861.6 1002.48 1860.5 1007.68 1858.3 1012.01C1856.17 1016.34 1853.35 1019.64 1849.83 1021.91C1846.31 1024.18 1842.53 1025.32 1838.5 1025.32ZM1836.96 1017.73C1839.89 1017.73 1842.49 1016.89 1844.77 1015.2C1847.11 1013.51 1848.95 1011.09 1850.27 1007.94C1851.59 1004.71 1852.25 1000.9 1852.25 996.5C1852.25 992.613 1851.77 989.203 1850.82 986.27C1849.86 983.263 1848.36 980.953 1846.31 979.34C1844.25 977.653 1841.54 976.81 1838.17 976.81C1835.97 976.81 1833.66 977.433 1831.24 978.68C1828.89 979.853 1826.43 981.65 1823.87 984.07V1012.12C1826.21 1014.17 1828.52 1015.64 1830.8 1016.52C1833.14 1017.33 1835.2 1017.73 1836.96 1017.73ZM1870.15 1047.87C1868.61 1047.87 1867.14 1047.72 1865.75 1047.43C1864.35 1047.14 1863.18 1046.77 1862.23 1046.33L1864.1 1039.51C1864.76 1039.73 1865.56 1039.95 1866.52 1040.17C1867.4 1040.39 1868.28 1040.5 1869.16 1040.5C1871.8 1040.5 1873.56 1039.55 1874.44 1037.64C1875.32 1035.81 1875.76 1033.24 1875.76 1029.94V970.54H1884.78V1030.05C1884.78 1033.64 1884.26 1036.76 1883.24 1039.4C1882.28 1042.11 1880.74 1044.2 1878.62 1045.67C1876.49 1047.14 1873.67 1047.87 1870.15 1047.87ZM1880.16 959.54C1878.4 959.54 1876.93 958.99 1875.76 957.89C1874.66 956.79 1874.11 955.36 1874.11 953.6C1874.11 951.84 1874.66 950.41 1875.76 949.31C1876.93 948.21 1878.4 947.66 1880.16 947.66C1881.92 947.66 1883.35 948.21 1884.45 949.31C1885.62 950.41 1886.21 951.84 1886.21 953.6C1886.21 955.36 1885.62 956.79 1884.45 957.89C1883.35 958.99 1881.92 959.54 1880.16 959.54ZM1924.49 1025.32C1919.73 1025.32 1915.36 1024.22 1911.4 1022.02C1907.52 1019.75 1904.44 1016.56 1902.16 1012.45C1899.89 1008.27 1898.75 1003.21 1898.75 997.27C1898.75 991.477 1899.93 986.49 1902.27 982.31C1904.62 978.13 1907.63 974.903 1911.29 972.63C1914.96 970.357 1918.85 969.22 1922.95 969.22C1927.5 969.22 1931.35 970.283 1934.5 972.41C1937.73 974.463 1940.15 977.36 1941.76 981.1C1943.38 984.84 1944.18 989.24 1944.18 994.3C1944.18 995.253 1944.15 996.17 1944.07 997.05C1944.07 997.93 1943.96 998.81 1943.74 999.69H1905.24V992.54H1936.04C1936.04 987.407 1934.91 983.483 1932.63 980.77C1930.43 977.983 1927.24 976.59 1923.06 976.59C1920.64 976.59 1918.26 977.287 1915.91 978.68C1913.57 980 1911.62 982.163 1910.08 985.17C1908.62 988.177 1907.88 992.173 1907.88 997.16C1907.88 1001.71 1908.65 1005.52 1910.19 1008.6C1911.81 1011.68 1913.97 1014.03 1916.68 1015.64C1919.4 1017.18 1922.37 1017.95 1925.59 1017.95C1928.16 1017.95 1930.54 1017.58 1932.74 1016.85C1935.02 1016.12 1937.07 1015.13 1938.9 1013.88L1942.2 1019.82C1939.86 1021.43 1937.22 1022.75 1934.28 1023.78C1931.42 1024.81 1928.16 1025.32 1924.49 1025.32ZM1973.15 1024.99C1967.5 1024.99 1963.54 1023.34 1961.27 1020.04C1959 1016.74 1957.86 1012.45 1957.86 1007.17V977.91H1949.94V971.09L1958.3 970.54L1959.4 953.38H1966.99V970.54H1981.51V977.91H1966.99V1007.28C1966.99 1010.51 1967.58 1013.04 1968.75 1014.87C1970 1016.7 1972.16 1017.62 1975.24 1017.62C1976.19 1017.62 1977.18 1017.55 1978.21 1017.4C1979.24 1017.18 1980.26 1016.81 1981.29 1016.3L1983.27 1022.68C1981.88 1023.34 1980.3 1023.89 1978.54 1024.33C1976.78 1024.77 1974.98 1024.99 1973.15 1024.99ZM2012.77 1025.32C2008.45 1025.32 2004.38 1024.22 2000.56 1022.02C1996.82 1019.82 1993.78 1016.63 1991.43 1012.45C1989.16 1008.27 1988.02 1003.25 1988.02 997.38C1988.02 991.367 1989.16 986.27 1991.43 982.09C1993.78 977.91 1996.82 974.72 2000.56 972.52C2004.38 970.32 2008.45 969.22 2012.77 969.22C2017.17 969.22 2021.24 970.32 2024.98 972.52C2028.72 974.72 2031.73 977.91 2034 982.09C2036.35 986.27 2037.52 991.367 2037.52 997.38C2037.52 1003.25 2036.35 1008.27 2034 1012.45C2031.73 1016.63 2028.72 1019.82 2024.98 1022.02C2021.24 1024.22 2017.17 1025.32 2012.77 1025.32ZM2012.77 1017.84C2015.85 1017.84 2018.57 1017 2020.91 1015.31C2023.26 1013.55 2025.06 1011.13 2026.3 1008.05C2027.55 1004.97 2028.17 1001.41 2028.17 997.38C2028.17 993.273 2027.55 989.68 2026.3 986.6C2025.06 983.447 2023.26 981.027 2020.91 979.34C2018.57 977.58 2015.85 976.7 2012.77 976.7C2009.69 976.7 2006.98 977.58 2004.63 979.34C2002.36 981.027 2000.56 983.447 1999.24 986.6C1998 989.68 1997.37 993.273 1997.37 997.38C1997.37 1001.41 1998 1004.97 1999.24 1008.05C2000.56 1011.13 2002.36 1013.55 2004.63 1015.31C2006.98 1017 2009.69 1017.84 2012.77 1017.84ZM2087.6 1025.32C2083.71 1025.32 2080.01 1024.66 2076.49 1023.34C2073.04 1021.95 2070.11 1020.04 2067.69 1017.62L2071.87 1012.34C2074.21 1014.25 2076.63 1015.71 2079.13 1016.74C2081.69 1017.77 2084.63 1018.28 2087.93 1018.28C2091.45 1018.28 2094.09 1017.47 2095.85 1015.86C2097.61 1014.17 2098.49 1012.19 2098.49 1009.92C2098.49 1008.09 2097.86 1006.58 2096.62 1005.41C2095.44 1004.16 2093.94 1003.14 2092.11 1002.33C2090.35 1001.45 2088.44 1000.64 2086.39 999.91C2083.75 998.957 2081.22 997.857 2078.8 996.61C2076.38 995.29 2074.4 993.677 2072.86 991.77C2071.39 989.79 2070.66 987.333 2070.66 984.4C2070.66 980.073 2072.27 976.48 2075.5 973.62C2078.8 970.687 2083.34 969.22 2089.14 969.22C2092.44 969.22 2095.52 969.807 2098.38 970.98C2101.24 972.08 2103.69 973.51 2105.75 975.27L2101.57 980.44C2099.66 979.12 2097.72 978.093 2095.74 977.36C2093.76 976.627 2091.56 976.26 2089.14 976.26C2085.76 976.26 2083.27 977.03 2081.66 978.57C2080.12 980.11 2079.35 981.907 2079.35 983.96C2079.35 985.573 2079.82 986.93 2080.78 988.03C2081.73 989.057 2083.05 989.973 2084.74 990.78C2086.5 991.587 2088.48 992.357 2090.68 993.09C2093.46 994.117 2096.1 995.29 2098.6 996.61C2101.16 997.857 2103.22 999.507 2104.76 1001.56C2106.37 1003.54 2107.18 1006.14 2107.18 1009.37C2107.18 1012.3 2106.41 1014.98 2104.87 1017.4C2103.4 1019.75 2101.2 1021.65 2098.27 1023.12C2095.41 1024.59 2091.85 1025.32 2087.6 1025.32ZM2141.38 1025.32C2136.61 1025.32 2132.25 1024.22 2128.29 1022.02C2124.4 1019.75 2121.32 1016.56 2119.05 1012.45C2116.78 1008.27 2115.64 1003.21 2115.64 997.27C2115.64 991.477 2116.81 986.49 2119.16 982.31C2121.51 978.13 2124.51 974.903 2128.18 972.63C2131.85 970.357 2135.73 969.22 2139.84 969.22C2144.39 969.22 2148.24 970.283 2151.39 972.41C2154.62 974.463 2157.04 977.36 2158.65 981.1C2160.26 984.84 2161.07 989.24 2161.07 994.3C2161.07 995.253 2161.03 996.17 2160.96 997.05C2160.96 997.93 2160.85 998.81 2160.63 999.69H2122.13V992.54H2152.93C2152.93 987.407 2151.79 983.483 2149.52 980.77C2147.32 977.983 2144.13 976.59 2139.95 976.59C2137.53 976.59 2135.15 977.287 2132.8 978.68C2130.45 980 2128.51 982.163 2126.97 985.17C2125.5 988.177 2124.77 992.173 2124.77 997.16C2124.77 1001.71 2125.54 1005.52 2127.08 1008.6C2128.69 1011.68 2130.86 1014.03 2133.57 1015.64C2136.28 1017.18 2139.25 1017.95 2142.48 1017.95C2145.05 1017.95 2147.43 1017.58 2149.63 1016.85C2151.9 1016.12 2153.96 1015.13 2155.79 1013.88L2159.09 1019.82C2156.74 1021.43 2154.1 1022.75 2151.17 1023.78C2148.31 1024.81 2145.05 1025.32 2141.38 1025.32ZM2168.78 1047.87C2167.24 1047.87 2165.77 1047.72 2164.38 1047.43C2162.99 1047.14 2161.81 1046.77 2160.86 1046.33L2162.73 1039.51C2163.39 1039.73 2164.2 1039.95 2165.15 1040.17C2166.03 1040.39 2166.91 1040.5 2167.79 1040.5C2170.43 1040.5 2172.19 1039.55 2173.07 1037.64C2173.95 1035.81 2174.39 1033.24 2174.39 1029.94V970.54H2183.41V1030.05C2183.41 1033.64 2182.9 1036.76 2181.87 1039.4C2180.92 1042.11 2179.38 1044.2 2177.25 1045.67C2175.12 1047.14 2172.3 1047.87 2168.78 1047.87ZM2178.79 959.54C2177.03 959.54 2175.56 958.99 2174.39 957.89C2173.29 956.79 2172.74 955.36 2172.74 953.6C2172.74 951.84 2173.29 950.41 2174.39 949.31C2175.56 948.21 2177.03 947.66 2178.79 947.66C2180.55 947.66 2181.98 948.21 2183.08 949.31C2184.25 950.41 2184.84 951.84 2184.84 953.6C2184.84 955.36 2184.25 956.79 2183.08 957.89C2181.98 958.99 2180.55 959.54 2178.79 959.54ZM2213.78 1025.32C2210.84 1025.32 2208.17 1024.73 2205.75 1023.56C2203.4 1022.31 2201.53 1020.59 2200.14 1018.39C2198.74 1016.12 2198.05 1013.37 2198.05 1010.14C2198.05 1004.13 2200.69 999.58 2205.97 996.5C2211.25 993.42 2219.61 991.257 2231.05 990.01C2230.97 987.81 2230.61 985.683 2229.95 983.63C2229.36 981.577 2228.26 979.927 2226.65 978.68C2225.03 977.433 2222.8 976.81 2219.94 976.81C2216.86 976.81 2213.96 977.397 2211.25 978.57C2208.53 979.67 2206.11 980.917 2203.99 982.31L2200.47 976.15C2202.08 975.05 2203.99 973.987 2206.19 972.96C2208.39 971.86 2210.77 970.98 2213.34 970.32C2215.9 969.587 2218.62 969.22 2221.48 969.22C2225.8 969.22 2229.32 970.137 2232.04 971.97C2234.82 973.73 2236.84 976.26 2238.09 979.56C2239.41 982.86 2240.07 986.747 2240.07 991.22V1024H2232.59L2231.82 1017.62H2231.49C2228.92 1019.75 2226.17 1021.58 2223.24 1023.12C2220.3 1024.59 2217.15 1025.32 2213.78 1025.32ZM2216.31 1017.84C2218.95 1017.84 2221.4 1017.25 2223.68 1016.08C2226.02 1014.91 2228.48 1013.18 2231.05 1010.91V996.5C2225.03 997.233 2220.27 998.187 2216.75 999.36C2213.3 1000.46 2210.81 1001.85 2209.27 1003.54C2207.73 1005.23 2206.96 1007.24 2206.96 1009.59C2206.96 1012.52 2207.87 1014.65 2209.71 1015.97C2211.54 1017.22 2213.74 1017.84 2216.31 1017.84ZM2278.91 1024V970.54H2286.39L2287.16 980.22H2287.49C2289.25 976.847 2291.45 974.17 2294.09 972.19C2296.73 970.21 2299.59 969.22 2302.67 969.22C2303.84 969.22 2304.87 969.293 2305.75 969.44C2306.63 969.587 2307.51 969.88 2308.39 970.32L2306.41 978.02C2305.6 977.8 2304.83 977.653 2304.1 977.58C2303.44 977.433 2302.56 977.36 2301.46 977.36C2299.19 977.36 2296.8 978.277 2294.31 980.11C2291.89 981.943 2289.76 985.133 2287.93 989.68V1024H2278.91ZM2337.64 1025.32C2332.87 1025.32 2328.51 1024.22 2324.55 1022.02C2320.66 1019.75 2317.58 1016.56 2315.31 1012.45C2313.04 1008.27 2311.9 1003.21 2311.9 997.27C2311.9 991.477 2313.07 986.49 2315.42 982.31C2317.77 978.13 2320.77 974.903 2324.44 972.63C2328.11 970.357 2331.99 969.22 2336.1 969.22C2340.65 969.22 2344.5 970.283 2347.65 972.41C2350.88 974.463 2353.3 977.36 2354.91 981.1C2356.52 984.84 2357.33 989.24 2357.33 994.3C2357.33 995.253 2357.29 996.17 2357.22 997.05C2357.22 997.93 2357.11 998.81 2356.89 999.69H2318.39V992.54H2349.19C2349.19 987.407 2348.05 983.483 2345.78 980.77C2343.58 977.983 2340.39 976.59 2336.21 976.59C2333.79 976.59 2331.41 977.287 2329.06 978.68C2326.71 980 2324.77 982.163 2323.23 985.17C2321.76 988.177 2321.03 992.173 2321.03 997.16C2321.03 1001.71 2321.8 1005.52 2323.34 1008.6C2324.95 1011.68 2327.12 1014.03 2329.83 1015.64C2332.54 1017.18 2335.51 1017.95 2338.74 1017.95C2341.31 1017.95 2343.69 1017.58 2345.89 1016.85C2348.16 1016.12 2350.22 1015.13 2352.05 1013.88L2355.35 1019.82C2353 1021.43 2350.36 1022.75 2347.43 1023.78C2344.57 1024.81 2341.31 1025.32 2337.64 1025.32ZM2384.51 1025.32C2380.62 1025.32 2376.92 1024.66 2373.4 1023.34C2369.95 1021.95 2367.02 1020.04 2364.6 1017.62L2368.78 1012.34C2371.13 1014.25 2373.55 1015.71 2376.04 1016.74C2378.61 1017.77 2381.54 1018.28 2384.84 1018.28C2388.36 1018.28 2391 1017.47 2392.76 1015.86C2394.52 1014.17 2395.4 1012.19 2395.4 1009.92C2395.4 1008.09 2394.78 1006.58 2393.53 1005.41C2392.36 1004.16 2390.85 1003.14 2389.02 1002.33C2387.26 1001.45 2385.35 1000.64 2383.3 999.91C2380.66 998.957 2378.13 997.857 2375.71 996.61C2373.29 995.29 2371.31 993.677 2369.77 991.77C2368.3 989.79 2367.57 987.333 2367.57 984.4C2367.57 980.073 2369.18 976.48 2372.41 973.62C2375.71 970.687 2380.26 969.22 2386.05 969.22C2389.35 969.22 2392.43 969.807 2395.29 970.98C2398.15 972.08 2400.61 973.51 2402.66 975.27L2398.48 980.44C2396.57 979.12 2394.63 978.093 2392.65 977.36C2390.67 976.627 2388.47 976.26 2386.05 976.26C2382.68 976.26 2380.18 977.03 2378.57 978.57C2377.03 980.11 2376.26 981.907 2376.26 983.96C2376.26 985.573 2376.74 986.93 2377.69 988.03C2378.64 989.057 2379.96 989.973 2381.65 990.78C2383.41 991.587 2385.39 992.357 2387.59 993.09C2390.38 994.117 2393.02 995.29 2395.51 996.61C2398.08 997.857 2400.13 999.507 2401.67 1001.56C2403.28 1003.54 2404.09 1006.14 2404.09 1009.37C2404.09 1012.3 2403.32 1014.98 2401.78 1017.4C2400.31 1019.75 2398.11 1021.65 2395.18 1023.12C2392.32 1024.59 2388.76 1025.32 2384.51 1025.32ZM2437.41 1025.32C2433.09 1025.32 2429.02 1024.22 2425.2 1022.02C2421.46 1019.82 2418.42 1016.63 2416.07 1012.45C2413.8 1008.27 2412.66 1003.25 2412.66 997.38C2412.66 991.367 2413.8 986.27 2416.07 982.09C2418.42 977.91 2421.46 974.72 2425.2 972.52C2429.02 970.32 2433.09 969.22 2437.41 969.22C2441.81 969.22 2445.88 970.32 2449.62 972.52C2453.36 974.72 2456.37 977.91 2458.64 982.09C2460.99 986.27 2462.16 991.367 2462.16 997.38C2462.16 1003.25 2460.99 1008.27 2458.64 1012.45C2456.37 1016.63 2453.36 1019.82 2449.62 1022.02C2445.88 1024.22 2441.81 1025.32 2437.41 1025.32ZM2437.41 1017.84C2440.49 1017.84 2443.21 1017 2445.55 1015.31C2447.9 1013.55 2449.7 1011.13 2450.94 1008.05C2452.19 1004.97 2452.81 1001.41 2452.81 997.38C2452.81 993.273 2452.19 989.68 2450.94 986.6C2449.7 983.447 2447.9 981.027 2445.55 979.34C2443.21 977.58 2440.49 976.7 2437.41 976.7C2434.33 976.7 2431.62 977.58 2429.27 979.34C2427 981.027 2425.2 983.447 2423.88 986.6C2422.64 989.68 2422.01 993.273 2422.01 997.38C2422.01 1001.41 2422.64 1004.97 2423.88 1008.05C2425.2 1011.13 2427 1013.55 2429.27 1015.31C2431.62 1017 2434.33 1017.84 2437.41 1017.84ZM2485.81 1024.99C2483.54 1024.99 2481.71 1024.55 2480.31 1023.67C2478.92 1022.72 2477.89 1021.36 2477.23 1019.6C2476.57 1017.77 2476.24 1015.57 2476.24 1013V945.68H2485.26V1013.66C2485.26 1015.13 2485.52 1016.15 2486.03 1016.74C2486.55 1017.25 2487.17 1017.51 2487.9 1017.51C2488.2 1017.51 2488.45 1017.51 2488.67 1017.51C2488.97 1017.44 2489.33 1017.36 2489.77 1017.29L2491.09 1024.11C2490.43 1024.33 2489.66 1024.51 2488.78 1024.66C2487.98 1024.88 2486.99 1024.99 2485.81 1024.99ZM2515.83 1024L2496.58 970.54H2505.93L2516.05 1000.9C2516.86 1003.47 2517.66 1006.11 2518.47 1008.82C2519.35 1011.46 2520.19 1014.06 2521 1016.63H2521.44C2522.17 1014.06 2522.98 1011.46 2523.86 1008.82C2524.74 1006.11 2525.55 1003.47 2526.28 1000.9L2536.4 970.54H2545.31L2526.39 1024H2515.83ZM2555.63 1024V970.54H2564.65V1024H2555.63ZM2560.14 959.54C2558.38 959.54 2556.91 958.99 2555.74 957.89C2554.64 956.79 2554.09 955.36 2554.09 953.6C2554.09 951.84 2554.64 950.41 2555.74 949.31C2556.91 948.21 2558.38 947.66 2560.14 947.66C2561.9 947.66 2563.33 948.21 2564.43 949.31C2565.6 950.41 2566.19 951.84 2566.19 953.6C2566.19 955.36 2565.6 956.79 2564.43 957.89C2563.33 958.99 2561.9 959.54 2560.14 959.54ZM2600.96 1025.32C2594.21 1025.32 2588.82 1022.9 2584.79 1018.06C2580.83 1013.15 2578.85 1006.25 2578.85 997.38C2578.85 991.587 2579.91 986.6 2582.04 982.42C2584.24 978.167 2587.1 974.903 2590.62 972.63C2594.14 970.357 2597.95 969.22 2602.06 969.22C2605.21 969.22 2607.89 969.77 2610.09 970.87C2612.36 971.897 2614.67 973.4 2617.02 975.38L2616.58 966.25V945.68H2625.71V1024H2618.23L2617.46 1017.73H2617.13C2615.07 1019.78 2612.65 1021.58 2609.87 1023.12C2607.08 1024.59 2604.11 1025.32 2600.96 1025.32ZM2602.94 1017.73C2605.43 1017.73 2607.78 1017.11 2609.98 1015.86C2612.18 1014.61 2614.38 1012.78 2616.58 1010.36V982.42C2614.38 980.367 2612.21 978.937 2610.09 978.13C2607.96 977.25 2605.8 976.81 2603.6 976.81C2600.74 976.81 2598.13 977.69 2595.79 979.45C2593.51 981.137 2591.68 983.52 2590.29 986.6C2588.89 989.607 2588.2 993.163 2588.2 997.27C2588.2 1003.65 2589.48 1008.67 2592.05 1012.34C2594.61 1015.93 2598.24 1017.73 2602.94 1017.73ZM2664.5 1025.32C2660.18 1025.32 2656.11 1024.22 2652.29 1022.02C2648.55 1019.82 2645.51 1016.63 2643.16 1012.45C2640.89 1008.27 2639.75 1003.25 2639.75 997.38C2639.75 991.367 2640.89 986.27 2643.16 982.09C2645.51 977.91 2648.55 974.72 2652.29 972.52C2656.11 970.32 2660.18 969.22 2664.5 969.22C2668.9 969.22 2672.97 970.32 2676.71 972.52C2680.45 974.72 2683.46 977.91 2685.73 982.09C2688.08 986.27 2689.25 991.367 2689.25 997.38C2689.25 1003.25 2688.08 1008.27 2685.73 1012.45C2683.46 1016.63 2680.45 1019.82 2676.71 1022.02C2672.97 1024.22 2668.9 1025.32 2664.5 1025.32ZM2664.5 1017.84C2667.58 1017.84 2670.3 1017 2672.64 1015.31C2674.99 1013.55 2676.79 1011.13 2678.03 1008.05C2679.28 1004.97 2679.9 1001.41 2679.9 997.38C2679.9 993.273 2679.28 989.68 2678.03 986.6C2676.79 983.447 2674.99 981.027 2672.64 979.34C2670.3 977.58 2667.58 976.7 2664.5 976.7C2661.42 976.7 2658.71 977.58 2656.36 979.34C2654.09 981.027 2652.29 983.447 2650.97 986.6C2649.73 989.68 2649.1 993.273 2649.1 997.38C2649.1 1001.41 2649.73 1004.97 2650.97 1008.05C2652.29 1011.13 2654.09 1013.55 2656.36 1015.31C2658.71 1017 2661.42 1017.84 2664.5 1017.84ZM2725.35 1046.55V970.54H2732.83L2733.6 976.7H2733.93C2736.35 974.647 2739.03 972.887 2741.96 971.42C2744.9 969.953 2747.9 969.22 2750.98 969.22C2755.53 969.22 2759.38 970.357 2762.53 972.63C2765.69 974.83 2768.07 977.983 2769.68 982.09C2771.3 986.123 2772.1 990.927 2772.1 996.5C2772.1 1002.51 2771 1007.68 2768.8 1012.01C2766.68 1016.34 2763.85 1019.64 2760.33 1021.91C2756.81 1024.18 2753.04 1025.32 2749 1025.32C2746.58 1025.32 2744.13 1024.77 2741.63 1023.67C2739.14 1022.57 2736.65 1021.07 2734.15 1019.16L2734.37 1028.51V1046.55H2725.35ZM2747.46 1017.73C2750.4 1017.73 2753 1016.89 2755.27 1015.2C2757.62 1013.51 2759.45 1011.09 2760.77 1007.94C2762.09 1004.71 2762.75 1000.9 2762.75 996.5C2762.75 992.613 2762.28 989.203 2761.32 986.27C2760.37 983.263 2758.87 980.953 2756.81 979.34C2754.76 977.653 2752.05 976.81 2748.67 976.81C2746.47 976.81 2744.2 977.433 2741.85 978.68C2739.51 979.853 2737.01 981.65 2734.37 984.07V1012.12C2736.87 1014.17 2739.21 1015.64 2741.41 1016.52C2743.69 1017.33 2745.7 1017.73 2747.46 1017.73ZM2807.16 1025.32C2802.83 1025.32 2798.76 1024.22 2794.95 1022.02C2791.21 1019.82 2788.17 1016.63 2785.82 1012.45C2783.55 1008.27 2782.41 1003.25 2782.41 997.38C2782.41 991.367 2783.55 986.27 2785.82 982.09C2788.17 977.91 2791.21 974.72 2794.95 972.52C2798.76 970.32 2802.83 969.22 2807.16 969.22C2811.56 969.22 2815.63 970.32 2819.37 972.52C2823.11 974.72 2826.12 977.91 2828.39 982.09C2830.74 986.27 2831.91 991.367 2831.91 997.38C2831.91 1003.25 2830.74 1008.27 2828.39 1012.45C2826.12 1016.63 2823.11 1019.82 2819.37 1022.02C2815.63 1024.22 2811.56 1025.32 2807.16 1025.32ZM2807.16 1017.84C2810.24 1017.84 2812.95 1017 2815.3 1015.31C2817.65 1013.55 2819.44 1011.13 2820.69 1008.05C2821.94 1004.97 2822.56 1001.41 2822.56 997.38C2822.56 993.273 2821.94 989.68 2820.69 986.6C2819.44 983.447 2817.65 981.027 2815.3 979.34C2812.95 977.58 2810.24 976.7 2807.16 976.7C2804.08 976.7 2801.37 977.58 2799.02 979.34C2796.75 981.027 2794.95 983.447 2793.63 986.6C2792.38 989.68 2791.76 993.273 2791.76 997.38C2791.76 1001.41 2792.38 1004.97 2793.63 1008.05C2794.95 1011.13 2796.75 1013.55 2799.02 1015.31C2801.37 1017 2804.08 1017.84 2807.16 1017.84ZM2845.99 1024V970.54H2853.47L2854.24 980.22H2854.57C2856.33 976.847 2858.53 974.17 2861.17 972.19C2863.81 970.21 2866.67 969.22 2869.75 969.22C2870.92 969.22 2871.95 969.293 2872.83 969.44C2873.71 969.587 2874.59 969.88 2875.47 970.32L2873.49 978.02C2872.68 977.8 2871.91 977.653 2871.18 977.58C2870.52 977.433 2869.64 977.36 2868.54 977.36C2866.27 977.36 2863.88 978.277 2861.39 980.11C2858.97 981.943 2856.84 985.133 2855.01 989.68V1024H2845.99ZM2927.82 1025.32C2923.05 1025.32 2918.69 1024.22 2914.73 1022.02C2910.84 1019.75 2907.76 1016.56 2905.49 1012.45C2903.21 1008.27 2902.08 1003.21 2902.08 997.27C2902.08 991.477 2903.25 986.49 2905.6 982.31C2907.94 978.13 2910.95 974.903 2914.62 972.63C2918.28 970.357 2922.17 969.22 2926.28 969.22C2930.82 969.22 2934.67 970.283 2937.83 972.41C2941.05 974.463 2943.47 977.36 2945.09 981.1C2946.7 984.84 2947.51 989.24 2947.51 994.3C2947.51 995.253 2947.47 996.17 2947.4 997.05C2947.4 997.93 2947.29 998.81 2947.07 999.69H2908.57V992.54H2939.37C2939.37 987.407 2938.23 983.483 2935.96 980.77C2933.76 977.983 2930.57 976.59 2926.39 976.59C2923.97 976.59 2921.58 977.287 2919.24 978.68C2916.89 980 2914.95 982.163 2913.41 985.17C2911.94 988.177 2911.21 992.173 2911.21 997.16C2911.21 1001.71 2911.98 1005.52 2913.52 1008.6C2915.13 1011.68 2917.29 1014.03 2920.01 1015.64C2922.72 1017.18 2925.69 1017.95 2928.92 1017.95C2931.48 1017.95 2933.87 1017.58 2936.07 1016.85C2938.34 1016.12 2940.39 1015.13 2942.23 1013.88L2945.53 1019.82C2943.18 1021.43 2940.54 1022.75 2937.61 1023.78C2934.75 1024.81 2931.48 1025.32 2927.82 1025.32ZM2970.29 1024.99C2968.01 1024.99 2966.18 1024.55 2964.79 1023.67C2963.39 1022.72 2962.37 1021.36 2961.71 1019.6C2961.05 1017.77 2960.72 1015.57 2960.72 1013V945.68H2969.74V1013.66C2969.74 1015.13 2969.99 1016.15 2970.51 1016.74C2971.02 1017.25 2971.64 1017.51 2972.38 1017.51C2972.67 1017.51 2972.93 1017.51 2973.15 1017.51C2973.44 1017.44 2973.81 1017.36 2974.25 1017.29L2975.57 1024.11C2974.91 1024.33 2974.14 1024.51 2973.26 1024.66C2972.45 1024.88 2971.46 1024.99 2970.29 1024.99ZM3010.42 1025.32C3005.66 1025.32 3001.29 1024.22 2997.33 1022.02C2993.45 1019.75 2990.37 1016.56 2988.09 1012.45C2985.82 1008.27 2984.68 1003.21 2984.68 997.27C2984.68 991.477 2985.86 986.49 2988.2 982.31C2990.55 978.13 2993.56 974.903 2997.22 972.63C3000.89 970.357 3004.78 969.22 3008.88 969.22C3013.43 969.22 3017.28 970.283 3020.43 972.41C3023.66 974.463 3026.08 977.36 3027.69 981.1C3029.31 984.84 3030.11 989.24 3030.11 994.3C3030.11 995.253 3030.08 996.17 3030 997.05C3030 997.93 3029.89 998.81 3029.67 999.69H2991.17V992.54H3021.97C3021.97 987.407 3020.84 983.483 3018.56 980.77C3016.36 977.983 3013.17 976.59 3008.99 976.59C3006.57 976.59 3004.19 977.287 3001.84 978.68C2999.5 980 2997.55 982.163 2996.01 985.17C2994.55 988.177 2993.81 992.173 2993.81 997.16C2993.81 1001.71 2994.58 1005.52 2996.12 1008.6C2997.74 1011.68 2999.9 1014.03 3002.61 1015.64C3005.33 1017.18 3008.3 1017.95 3011.52 1017.95C3014.09 1017.95 3016.47 1017.58 3018.67 1016.85C3020.95 1016.12 3023 1015.13 3024.83 1013.88L3028.13 1019.82C3025.79 1021.43 3023.15 1022.75 3020.21 1023.78C3017.35 1024.81 3014.09 1025.32 3010.42 1025.32ZM3065.34 1024V970.54H3072.82L3073.59 978.24H3073.92C3076.27 975.747 3078.8 973.62 3081.51 971.86C3084.3 970.1 3087.31 969.22 3090.53 969.22C3094.64 969.22 3097.83 970.137 3100.1 971.97C3102.45 973.803 3104.17 976.297 3105.27 979.45C3108.06 976.37 3110.88 973.913 3113.74 972.08C3116.6 970.173 3119.65 969.22 3122.87 969.22C3128.45 969.22 3132.55 971.017 3135.19 974.61C3137.83 978.13 3139.15 983.3 3139.15 990.12V1024H3130.13V991.33C3130.13 986.27 3129.33 982.64 3127.71 980.44C3126.1 978.167 3123.61 977.03 3120.23 977.03C3118.11 977.03 3115.94 977.727 3113.74 979.12C3111.62 980.44 3109.31 982.493 3106.81 985.28V1024H3097.79V991.33C3097.79 986.27 3096.99 982.64 3095.37 980.44C3093.76 978.167 3091.23 977.03 3087.78 977.03C3083.75 977.03 3079.28 979.78 3074.36 985.28V1024H3065.34ZM3178.22 1025.32C3173.45 1025.32 3169.09 1024.22 3165.13 1022.02C3161.24 1019.75 3158.16 1016.56 3155.89 1012.45C3153.61 1008.27 3152.48 1003.21 3152.48 997.27C3152.48 991.477 3153.65 986.49 3156 982.31C3158.34 978.13 3161.35 974.903 3165.02 972.63C3168.68 970.357 3172.57 969.22 3176.68 969.22C3181.22 969.22 3185.07 970.283 3188.23 972.41C3191.45 974.463 3193.87 977.36 3195.49 981.1C3197.1 984.84 3197.91 989.24 3197.91 994.3C3197.91 995.253 3197.87 996.17 3197.8 997.05C3197.8 997.93 3197.69 998.81 3197.47 999.69H3158.97V992.54H3189.77C3189.77 987.407 3188.63 983.483 3186.36 980.77C3184.16 977.983 3180.97 976.59 3176.79 976.59C3174.37 976.59 3171.98 977.287 3169.64 978.68C3167.29 980 3165.35 982.163 3163.81 985.17C3162.34 988.177 3161.61 992.173 3161.61 997.16C3161.61 1001.71 3162.38 1005.52 3163.92 1008.6C3165.53 1011.68 3167.69 1014.03 3170.41 1015.64C3173.12 1017.18 3176.09 1017.95 3179.32 1017.95C3181.88 1017.95 3184.27 1017.58 3186.47 1016.85C3188.74 1016.12 3190.79 1015.13 3192.63 1013.88L3195.93 1019.82C3193.58 1021.43 3190.94 1022.75 3188.01 1023.78C3185.15 1024.81 3181.88 1025.32 3178.22 1025.32ZM3225.09 1025.32C3221.2 1025.32 3217.5 1024.66 3213.98 1023.34C3210.53 1021.95 3207.6 1020.04 3205.18 1017.62L3209.36 1012.34C3211.7 1014.25 3214.12 1015.71 3216.62 1016.74C3219.18 1017.77 3222.12 1018.28 3225.42 1018.28C3228.94 1018.28 3231.58 1017.47 3233.34 1015.86C3235.1 1014.17 3235.98 1012.19 3235.98 1009.92C3235.98 1008.09 3235.35 1006.58 3234.11 1005.41C3232.93 1004.16 3231.43 1003.14 3229.6 1002.33C3227.84 1001.45 3225.93 1000.64 3223.88 999.91C3221.24 998.957 3218.71 997.857 3216.29 996.61C3213.87 995.29 3211.89 993.677 3210.35 991.77C3208.88 989.79 3208.15 987.333 3208.15 984.4C3208.15 980.073 3209.76 976.48 3212.99 973.62C3216.29 970.687 3220.83 969.22 3226.63 969.22C3229.93 969.22 3233.01 969.807 3235.87 970.98C3238.73 972.08 3241.18 973.51 3243.24 975.27L3239.06 980.44C3237.15 979.12 3235.21 978.093 3233.23 977.36C3231.25 976.627 3229.05 976.26 3226.63 976.26C3223.25 976.26 3220.76 977.03 3219.15 978.57C3217.61 980.11 3216.84 981.907 3216.84 983.96C3216.84 985.573 3217.31 986.93 3218.27 988.03C3219.22 989.057 3220.54 989.973 3222.23 990.78C3223.99 991.587 3225.97 992.357 3228.17 993.09C3230.95 994.117 3233.59 995.29 3236.09 996.61C3238.65 997.857 3240.71 999.507 3242.25 1001.56C3243.86 1003.54 3244.67 1006.14 3244.67 1009.37C3244.67 1012.3 3243.9 1014.98 3242.36 1017.4C3240.89 1019.75 3238.69 1021.65 3235.76 1023.12C3232.9 1024.59 3229.34 1025.32 3225.09 1025.32ZM3257.2 1024V970.54H3264.68L3265.45 978.24H3265.78C3268.13 975.747 3270.66 973.62 3273.37 971.86C3276.16 970.1 3279.16 969.22 3282.39 969.22C3286.5 969.22 3289.69 970.137 3291.96 971.97C3294.31 973.803 3296.03 976.297 3297.13 979.45C3299.92 976.37 3302.74 973.913 3305.6 972.08C3308.46 970.173 3311.5 969.22 3314.73 969.22C3320.3 969.22 3324.41 971.017 3327.05 974.61C3329.69 978.13 3331.01 983.3 3331.01 990.12V1024H3321.99V991.33C3321.99 986.27 3321.18 982.64 3319.57 980.44C3317.96 978.167 3315.46 977.03 3312.09 977.03C3309.96 977.03 3307.8 977.727 3305.6 979.12C3303.47 980.44 3301.16 982.493 3298.67 985.28V1024H3289.65V991.33C3289.65 986.27 3288.84 982.64 3287.23 980.44C3285.62 978.167 3283.09 977.03 3279.64 977.03C3275.61 977.03 3271.13 979.78 3266.22 985.28V1024H3257.2ZM3369.19 1025.32C3364.86 1025.32 3360.79 1024.22 3356.98 1022.02C3353.24 1019.82 3350.2 1016.63 3347.85 1012.45C3345.58 1008.27 3344.44 1003.25 3344.44 997.38C3344.44 991.367 3345.58 986.27 3347.85 982.09C3350.2 977.91 3353.24 974.72 3356.98 972.52C3360.79 970.32 3364.86 969.22 3369.19 969.22C3373.59 969.22 3377.66 970.32 3381.4 972.52C3385.14 974.72 3388.15 977.91 3390.42 982.09C3392.77 986.27 3393.94 991.367 3393.94 997.38C3393.94 1003.25 3392.77 1008.27 3390.42 1012.45C3388.15 1016.63 3385.14 1019.82 3381.4 1022.02C3377.66 1024.22 3373.59 1025.32 3369.19 1025.32ZM3369.19 1017.84C3372.27 1017.84 3374.98 1017 3377.33 1015.31C3379.68 1013.55 3381.47 1011.13 3382.72 1008.05C3383.97 1004.97 3384.59 1001.41 3384.59 997.38C3384.59 993.273 3383.97 989.68 3382.72 986.6C3381.47 983.447 3379.68 981.027 3377.33 979.34C3374.98 977.58 3372.27 976.7 3369.19 976.7C3366.11 976.7 3363.4 977.58 3361.05 979.34C3358.78 981.027 3356.98 983.447 3355.66 986.6C3354.41 989.68 3353.79 993.273 3353.79 997.38C3353.79 1001.41 3354.41 1004.97 3355.66 1008.05C3356.98 1011.13 3358.78 1013.55 3361.05 1015.31C3363.4 1017 3366.11 1017.84 3369.19 1017.84Z" fill="black" fill-opacity="0.44"/>
</svg>
