<svg width="3745" height="1780" viewBox="0 0 3745 1780" fill="none" xmlns="http://www.w3.org/2000/svg">
<path d="M2389.61 848.32C2383.45 848.32 2377.8 846.963 2372.67 844.25C2367.61 841.463 2363.54 837.32 2360.46 831.82C2357.38 826.32 2355.84 819.573 2355.84 811.58C2355.84 805.64 2356.72 800.36 2358.48 795.74C2360.31 791.047 2362.8 787.087 2365.96 783.86C2369.11 780.633 2372.7 778.177 2376.74 776.49C2380.84 774.803 2385.17 773.96 2389.72 773.96C2394.34 773.96 2398.48 774.877 2402.15 776.71C2405.81 778.543 2408.86 780.743 2411.28 783.31L2402.7 793.1C2400.94 791.413 2399.03 790.167 2396.98 789.36C2394.92 788.48 2392.61 788.04 2390.05 788.04C2386.89 788.04 2383.96 788.993 2381.25 790.9C2378.61 792.733 2376.48 795.373 2374.87 798.82C2373.25 802.267 2372.45 806.337 2372.45 811.03C2372.45 815.943 2373.22 820.16 2374.76 823.68C2376.3 827.127 2378.42 829.767 2381.14 831.6C2383.92 833.433 2387.11 834.35 2390.71 834.35C2393.49 834.35 2395.99 833.763 2398.19 832.59C2400.39 831.417 2402.33 830.023 2404.02 828.41L2412.16 837.98C2409.08 841.427 2405.67 844.03 2401.93 845.79C2398.19 847.477 2394.08 848.32 2389.61 848.32ZM2445.38 848.32C2440.76 848.32 2436.43 847.22 2432.4 845.02C2428.37 842.747 2425.07 839.483 2422.5 835.23C2420.01 830.903 2418.76 825.733 2418.76 819.72C2418.76 813.707 2420.01 808.573 2422.5 804.32C2425.07 799.993 2428.37 796.73 2432.4 794.53C2436.43 792.257 2440.76 791.12 2445.38 791.12C2449.93 791.12 2454.22 792.257 2458.25 794.53C2462.28 796.73 2465.55 799.993 2468.04 804.32C2470.61 808.573 2471.89 813.707 2471.89 819.72C2471.89 825.733 2470.61 830.903 2468.04 835.23C2465.55 839.483 2462.28 842.747 2458.25 845.02C2454.22 847.22 2449.93 848.32 2445.38 848.32ZM2445.38 835.23C2447.58 835.23 2449.41 834.607 2450.88 833.36C2452.42 832.113 2453.56 830.317 2454.29 827.97C2455.02 825.623 2455.39 822.873 2455.39 819.72C2455.39 816.567 2455.02 813.817 2454.29 811.47C2453.56 809.123 2452.42 807.327 2450.88 806.08C2449.41 804.833 2447.58 804.21 2445.38 804.21C2443.11 804.21 2441.24 804.833 2439.77 806.08C2438.3 807.327 2437.2 809.123 2436.47 811.47C2435.74 813.817 2435.37 816.567 2435.37 819.72C2435.37 822.873 2435.74 825.623 2436.47 827.97C2437.2 830.317 2438.3 832.113 2439.77 833.36C2441.24 834.607 2443.11 835.23 2445.38 835.23ZM2482.97 847V792.44H2496.17L2497.27 799.48H2497.71C2499.91 797.207 2502.29 795.263 2504.86 793.65C2507.5 791.963 2510.61 791.12 2514.21 791.12C2518.09 791.12 2521.25 791.927 2523.67 793.54C2526.09 795.08 2527.96 797.317 2529.28 800.25C2531.7 797.757 2534.26 795.63 2536.98 793.87C2539.69 792.037 2542.84 791.12 2546.44 791.12C2552.38 791.12 2556.7 793.1 2559.42 797.06C2562.13 800.947 2563.49 806.3 2563.49 813.12V847H2547.32V815.21C2547.32 811.25 2546.77 808.537 2545.67 807.07C2544.64 805.603 2542.95 804.87 2540.61 804.87C2539.21 804.87 2537.75 805.31 2536.21 806.19C2534.67 806.997 2533.02 808.317 2531.26 810.15V847H2515.09V815.21C2515.09 811.25 2514.54 808.537 2513.44 807.07C2512.41 805.603 2510.72 804.87 2508.38 804.87C2505.59 804.87 2502.51 806.63 2499.14 810.15V847H2482.97ZM2601.7 848.32C2596.5 848.32 2591.8 847.183 2587.62 844.91C2583.44 842.637 2580.14 839.373 2577.72 835.12C2575.3 830.867 2574.09 825.733 2574.09 819.72C2574.09 813.78 2575.3 808.683 2577.72 804.43C2580.22 800.177 2583.44 796.913 2587.4 794.64C2591.36 792.293 2595.51 791.12 2599.83 791.12C2605.04 791.12 2609.37 792.293 2612.81 794.64C2616.26 796.913 2618.83 800.03 2620.51 803.99C2622.2 807.95 2623.04 812.387 2623.04 817.3C2623.04 818.693 2622.97 820.087 2622.82 821.48C2622.68 822.8 2622.53 823.863 2622.38 824.67H2586.63L2586.41 813.45H2609.18C2609.18 810.59 2608.49 808.243 2607.09 806.41C2605.7 804.503 2603.39 803.55 2600.16 803.55C2598.4 803.55 2596.68 804.027 2594.99 804.98C2593.31 805.933 2591.91 807.583 2590.81 809.93C2589.71 812.277 2589.2 815.54 2589.27 819.72C2589.35 823.827 2590.08 827.053 2591.47 829.4C2592.94 831.747 2594.77 833.433 2596.97 834.46C2599.17 835.413 2601.48 835.89 2603.9 835.89C2606.03 835.89 2608.05 835.597 2609.95 835.01C2611.93 834.35 2613.88 833.47 2615.78 832.37L2621.06 842.27C2618.35 844.177 2615.27 845.68 2611.82 846.78C2608.38 847.807 2605 848.32 2601.7 848.32ZM2658.31 848.32C2653.17 848.32 2648.52 847.183 2644.34 844.91C2640.23 842.637 2636.97 839.373 2634.55 835.12C2632.2 830.867 2631.03 825.733 2631.03 819.72C2631.03 813.707 2632.35 808.573 2634.99 804.32C2637.63 800.067 2641.11 796.803 2645.44 794.53C2649.76 792.257 2654.42 791.12 2659.41 791.12C2662.78 791.12 2665.79 791.67 2668.43 792.77C2671.14 793.797 2673.45 795.19 2675.36 796.95L2667.77 806.96C2666.81 806.153 2665.71 805.493 2664.47 804.98C2663.29 804.467 2661.94 804.21 2660.4 804.21C2657.83 804.21 2655.59 804.833 2653.69 806.08C2651.78 807.327 2650.28 809.123 2649.18 811.47C2648.08 813.817 2647.53 816.567 2647.53 819.72C2647.53 822.873 2648.08 825.623 2649.18 827.97C2650.28 830.317 2651.74 832.113 2653.58 833.36C2655.48 834.607 2657.61 835.23 2659.96 835.23C2661.79 835.23 2663.51 834.9 2665.13 834.24C2666.74 833.58 2668.24 832.737 2669.64 831.71L2676.02 841.61C2673.74 843.663 2671.07 845.313 2667.99 846.56C2664.91 847.733 2661.68 848.32 2658.31 848.32ZM2644.67 873.29L2643.46 866.8C2647.78 866.58 2650.75 866.103 2652.37 865.37C2653.98 864.637 2654.79 863.5 2654.79 861.96C2654.79 860.787 2654.2 859.833 2653.03 859.1C2651.93 858.367 2649.69 857.78 2646.32 857.34L2651.6 846.56H2661.06L2657.98 853.71C2660.69 854.37 2662.74 855.323 2664.14 856.57C2665.6 857.817 2666.34 859.613 2666.34 861.96C2666.34 865.7 2664.43 868.45 2660.62 870.21C2656.88 872.043 2651.56 873.07 2644.67 873.29ZM2698.24 848.32C2694.94 848.32 2692.04 847.587 2689.55 846.12C2687.13 844.653 2685.26 842.673 2683.94 840.18C2682.62 837.687 2681.96 834.9 2681.96 831.82C2681.96 825.953 2684.38 821.443 2689.22 818.29C2694.06 815.063 2701.87 812.9 2712.65 811.8C2712.58 810.187 2712.21 808.83 2711.55 807.73C2710.96 806.557 2710.05 805.677 2708.8 805.09C2707.55 804.43 2705.98 804.1 2704.07 804.1C2701.8 804.1 2699.49 804.503 2697.14 805.31C2694.79 806.117 2692.26 807.29 2689.55 808.83L2683.83 798.27C2686.18 796.803 2688.6 795.557 2691.09 794.53C2693.58 793.43 2696.15 792.587 2698.79 792C2701.5 791.413 2704.29 791.12 2707.15 791.12C2711.84 791.12 2715.77 792.037 2718.92 793.87C2722.15 795.63 2724.6 798.343 2726.29 802.01C2727.98 805.603 2728.82 810.223 2728.82 815.87V847H2715.62L2714.52 841.39H2714.08C2711.73 843.443 2709.28 845.13 2706.71 846.45C2704.14 847.697 2701.32 848.32 2698.24 848.32ZM2703.63 835.67C2705.46 835.67 2707.08 835.267 2708.47 834.46C2709.86 833.653 2711.26 832.553 2712.65 831.16V821.92C2708.84 822.433 2705.79 823.093 2703.52 823.9C2701.32 824.707 2699.74 825.697 2698.79 826.87C2697.91 827.97 2697.47 829.217 2697.47 830.61C2697.47 832.297 2698.02 833.58 2699.12 834.46C2700.29 835.267 2701.8 835.67 2703.63 835.67ZM2742.5 847V792.44H2755.7L2756.8 799.37H2757.24C2759.51 797.097 2762.08 795.153 2764.94 793.54C2767.8 791.927 2771.06 791.12 2774.73 791.12C2780.74 791.12 2785.07 793.1 2787.71 797.06C2790.35 800.947 2791.67 806.3 2791.67 813.12V847H2775.5V815.21C2775.5 811.25 2774.95 808.537 2773.85 807.07C2772.82 805.603 2771.13 804.87 2768.79 804.87C2766.73 804.87 2764.97 805.347 2763.51 806.3C2762.04 807.18 2760.43 808.463 2758.67 810.15V847H2742.5ZM2824.92 848.32C2818.17 848.32 2812.74 845.79 2808.64 840.73C2804.6 835.597 2802.59 828.593 2802.59 819.72C2802.59 813.78 2803.65 808.683 2805.78 804.43C2807.98 800.177 2810.8 796.913 2814.25 794.64C2817.77 792.293 2821.43 791.12 2825.25 791.12C2828.25 791.12 2830.78 791.633 2832.84 792.66C2834.89 793.687 2836.83 795.08 2838.67 796.84L2838.01 788.48V769.89H2854.18V847H2840.98L2839.88 841.61H2839.44C2837.53 843.517 2835.29 845.13 2832.73 846.45C2830.16 847.697 2827.56 848.32 2824.92 848.32ZM2829.1 835.12C2830.86 835.12 2832.47 834.753 2833.94 834.02C2835.4 833.287 2836.76 832.003 2838.01 830.17V807.84C2836.61 806.52 2835.15 805.603 2833.61 805.09C2832.07 804.577 2830.53 804.32 2828.99 804.32C2827.23 804.32 2825.61 804.87 2824.15 805.97C2822.68 807.07 2821.47 808.757 2820.52 811.03C2819.64 813.23 2819.2 816.053 2819.2 819.5C2819.2 824.853 2820.08 828.813 2821.84 831.38C2823.6 833.873 2826.02 835.12 2829.1 835.12ZM2891.93 848.32C2887.31 848.32 2882.99 847.22 2878.95 845.02C2874.92 842.747 2871.62 839.483 2869.05 835.23C2866.56 830.903 2865.31 825.733 2865.31 819.72C2865.31 813.707 2866.56 808.573 2869.05 804.32C2871.62 799.993 2874.92 796.73 2878.95 794.53C2882.99 792.257 2887.31 791.12 2891.93 791.12C2896.48 791.12 2900.77 792.257 2904.8 794.53C2908.84 796.73 2912.1 799.993 2914.59 804.32C2917.16 808.573 2918.44 813.707 2918.44 819.72C2918.44 825.733 2917.16 830.903 2914.59 835.23C2912.1 839.483 2908.84 842.747 2904.8 845.02C2900.77 847.22 2896.48 848.32 2891.93 848.32ZM2891.93 835.23C2894.13 835.23 2895.97 834.607 2897.43 833.36C2898.97 832.113 2900.11 830.317 2900.84 827.97C2901.58 825.623 2901.94 822.873 2901.94 819.72C2901.94 816.567 2901.58 813.817 2900.84 811.47C2900.11 809.123 2898.97 807.327 2897.43 806.08C2895.97 804.833 2894.13 804.21 2891.93 804.21C2889.66 804.21 2887.79 804.833 2886.32 806.08C2884.86 807.327 2883.76 809.123 2883.02 811.47C2882.29 813.817 2881.92 816.567 2881.92 819.72C2881.92 822.873 2882.29 825.623 2883.02 827.97C2883.76 830.317 2884.86 832.113 2886.32 833.36C2887.79 834.607 2889.66 835.23 2891.93 835.23ZM2971.01 848.32C2964.26 848.32 2958.84 845.79 2954.73 840.73C2950.7 835.597 2948.68 828.593 2948.68 819.72C2948.68 813.78 2949.74 808.683 2951.87 804.43C2954.07 800.177 2956.89 796.913 2960.34 794.64C2963.86 792.293 2967.53 791.12 2971.34 791.12C2974.35 791.12 2976.88 791.633 2978.93 792.66C2980.98 793.687 2982.93 795.08 2984.76 796.84L2984.1 788.48V769.89H3000.27V847H2987.07L2985.97 841.61H2985.53C2983.62 843.517 2981.39 845.13 2978.82 846.45C2976.25 847.697 2973.65 848.32 2971.01 848.32ZM2975.19 835.12C2976.95 835.12 2978.56 834.753 2980.03 834.02C2981.5 833.287 2982.85 832.003 2984.1 830.17V807.84C2982.71 806.52 2981.24 805.603 2979.7 805.09C2978.16 804.577 2976.62 804.32 2975.08 804.32C2973.32 804.32 2971.71 804.87 2970.24 805.97C2968.77 807.07 2967.56 808.757 2966.61 811.03C2965.73 813.23 2965.29 816.053 2965.29 819.5C2965.29 824.853 2966.17 828.813 2967.93 831.38C2969.69 833.873 2972.11 835.12 2975.19 835.12ZM3038.03 848.32C3033.41 848.32 3029.08 847.22 3025.05 845.02C3021.01 842.747 3017.71 839.483 3015.15 835.23C3012.65 830.903 3011.41 825.733 3011.41 819.72C3011.41 813.707 3012.65 808.573 3015.15 804.32C3017.71 799.993 3021.01 796.73 3025.05 794.53C3029.08 792.257 3033.41 791.12 3038.03 791.12C3042.57 791.12 3046.86 792.257 3050.9 794.53C3054.93 796.73 3058.19 799.993 3060.69 804.32C3063.25 808.573 3064.54 813.707 3064.54 819.72C3064.54 825.733 3063.25 830.903 3060.69 835.23C3058.19 839.483 3054.93 842.747 3050.9 845.02C3046.86 847.22 3042.57 848.32 3038.03 848.32ZM3038.03 835.23C3040.23 835.23 3042.06 834.607 3043.53 833.36C3045.07 832.113 3046.2 830.317 3046.94 827.97C3047.67 825.623 3048.04 822.873 3048.04 819.72C3048.04 816.567 3047.67 813.817 3046.94 811.47C3046.2 809.123 3045.07 807.327 3043.53 806.08C3042.06 804.833 3040.23 804.21 3038.03 804.21C3035.75 804.21 3033.88 804.833 3032.42 806.08C3030.95 807.327 3029.85 809.123 3029.12 811.47C3028.38 813.817 3028.02 816.567 3028.02 819.72C3028.02 822.873 3028.38 825.623 3029.12 827.97C3029.85 830.317 3030.95 832.113 3032.42 833.36C3033.88 834.607 3035.75 835.23 3038.03 835.23ZM3126.23 848.32C3123.81 848.32 3121.39 847.733 3118.97 846.56C3116.55 845.313 3114.24 843.517 3112.04 841.17H3111.6L3110.28 847H3097.63V769.89H3113.8V788.81L3113.36 797.17C3115.42 795.263 3117.69 793.797 3120.18 792.77C3122.68 791.67 3125.21 791.12 3127.77 791.12C3132.17 791.12 3135.99 792.257 3139.21 794.53C3142.44 796.803 3144.9 800.03 3146.58 804.21C3148.34 808.317 3149.22 813.157 3149.22 818.73C3149.22 824.963 3148.12 830.317 3145.92 834.79C3143.72 839.19 3140.86 842.563 3137.34 844.91C3133.9 847.183 3130.19 848.32 3126.23 848.32ZM3122.49 835.12C3124.33 835.12 3126.01 834.57 3127.55 833.47C3129.17 832.37 3130.41 830.647 3131.29 828.3C3132.17 825.88 3132.61 822.8 3132.61 819.06C3132.61 815.76 3132.25 813.047 3131.51 810.92C3130.85 808.72 3129.83 807.07 3128.43 805.97C3127.04 804.87 3125.28 804.32 3123.15 804.32C3121.54 804.32 3119.96 804.723 3118.42 805.53C3116.96 806.263 3115.42 807.51 3113.8 809.27V831.6C3115.2 832.847 3116.66 833.763 3118.2 834.35C3119.74 834.863 3121.17 835.12 3122.49 835.12ZM3173.26 848.32C3169.96 848.32 3167.06 847.587 3164.57 846.12C3162.15 844.653 3160.28 842.673 3158.96 840.18C3157.64 837.687 3156.98 834.9 3156.98 831.82C3156.98 825.953 3159.4 821.443 3164.24 818.29C3169.08 815.063 3176.89 812.9 3187.67 811.8C3187.6 810.187 3187.23 808.83 3186.57 807.73C3185.98 806.557 3185.07 805.677 3183.82 805.09C3182.57 804.43 3181 804.1 3179.09 804.1C3176.82 804.1 3174.51 804.503 3172.16 805.31C3169.81 806.117 3167.28 807.29 3164.57 808.83L3158.85 798.27C3161.2 796.803 3163.62 795.557 3166.11 794.53C3168.6 793.43 3171.17 792.587 3173.81 792C3176.52 791.413 3179.31 791.12 3182.17 791.12C3186.86 791.12 3190.79 792.037 3193.94 793.87C3197.17 795.63 3199.62 798.343 3201.31 802.01C3203 805.603 3203.84 810.223 3203.84 815.87V847H3190.64L3189.54 841.39H3189.1C3186.75 843.443 3184.3 845.13 3181.73 846.45C3179.16 847.697 3176.34 848.32 3173.26 848.32ZM3178.65 835.67C3180.48 835.67 3182.1 835.267 3183.49 834.46C3184.88 833.653 3186.28 832.553 3187.67 831.16V821.92C3183.86 822.433 3180.81 823.093 3178.54 823.9C3176.34 824.707 3174.76 825.697 3173.81 826.87C3172.93 827.97 3172.49 829.217 3172.49 830.61C3172.49 832.297 3173.04 833.58 3174.14 834.46C3175.31 835.267 3176.82 835.67 3178.65 835.67ZM3173.26 784.3L3185.91 764.17H3202.96L3203.84 765.93L3185.58 784.3H3173.26ZM3233.58 848.32C3229.98 848.32 3226.28 847.623 3222.47 846.23C3218.65 844.837 3215.39 842.82 3212.68 840.18L3219.5 831.05C3221.99 833.03 3224.45 834.423 3226.87 835.23C3229.36 835.963 3231.74 836.33 3234.02 836.33C3236.44 836.33 3238.2 835.927 3239.3 835.12C3240.4 834.24 3240.95 833.103 3240.95 831.71C3240.95 830.463 3240.43 829.437 3239.41 828.63C3238.45 827.823 3237.17 827.127 3235.56 826.54C3234.02 825.88 3232.26 825.183 3230.28 824.45C3227.64 823.497 3225.22 822.287 3223.02 820.82C3220.82 819.353 3219.02 817.593 3217.63 815.54C3216.31 813.487 3215.65 811.03 3215.65 808.17C3215.65 803.037 3217.55 798.93 3221.37 795.85C3225.25 792.697 3230.31 791.12 3236.55 791.12C3240.51 791.12 3244.1 791.78 3247.33 793.1C3250.63 794.347 3253.45 795.997 3255.8 798.05L3248.87 807.07C3246.89 805.677 3244.91 804.687 3242.93 804.1C3240.95 803.44 3239 803.11 3237.1 803.11C3234.97 803.11 3233.39 803.513 3232.37 804.32C3231.34 805.127 3230.83 806.153 3230.83 807.4C3230.83 808.427 3231.19 809.307 3231.93 810.04C3232.66 810.773 3233.76 811.47 3235.23 812.13C3236.77 812.717 3238.67 813.377 3240.95 814.11C3243.73 815.063 3246.26 816.273 3248.54 817.74C3250.88 819.133 3252.72 820.893 3254.04 823.02C3255.36 825.147 3256.02 827.713 3256.02 830.72C3256.02 834.02 3255.14 836.99 3253.38 839.63C3251.69 842.27 3249.2 844.397 3245.9 846.01C3242.6 847.55 3238.49 848.32 3233.58 848.32ZM3266.29 847V792.44H3282.46V847H3266.29ZM3274.32 784.41C3271.6 784.41 3269.4 783.64 3267.72 782.1C3266.03 780.56 3265.19 778.507 3265.19 775.94C3265.19 773.373 3266.03 771.32 3267.72 769.78C3269.4 768.24 3271.6 767.47 3274.32 767.47C3277.03 767.47 3279.23 768.24 3280.92 769.78C3282.6 771.32 3283.45 773.373 3283.45 775.94C3283.45 778.507 3282.6 780.56 3280.92 782.1C3279.23 783.64 3277.03 784.41 3274.32 784.41ZM3320.78 848.32C3315.64 848.32 3310.99 847.183 3306.81 844.91C3302.7 842.637 3299.44 839.373 3297.02 835.12C3294.67 830.867 3293.5 825.733 3293.5 819.72C3293.5 813.707 3294.82 808.573 3297.46 804.32C3300.1 800.067 3303.58 796.803 3307.91 794.53C3312.23 792.257 3316.89 791.12 3321.88 791.12C3325.25 791.12 3328.26 791.67 3330.9 792.77C3333.61 793.797 3335.92 795.19 3337.83 796.95L3330.24 806.96C3329.28 806.153 3328.18 805.493 3326.94 804.98C3325.76 804.467 3324.41 804.21 3322.87 804.21C3320.3 804.21 3318.06 804.833 3316.16 806.08C3314.25 807.327 3312.75 809.123 3311.65 811.47C3310.55 813.817 3310 816.567 3310 819.72C3310 822.873 3310.55 825.623 3311.65 827.97C3312.75 830.317 3314.21 832.113 3316.05 833.36C3317.95 834.607 3320.08 835.23 3322.43 835.23C3324.26 835.23 3325.98 834.9 3327.6 834.24C3329.21 833.58 3330.71 832.737 3332.11 831.71L3338.49 841.61C3336.21 843.663 3333.54 845.313 3330.46 846.56C3327.38 847.733 3324.15 848.32 3320.78 848.32ZM3368.56 848.32C3363.94 848.32 3359.62 847.22 3355.58 845.02C3351.55 842.747 3348.25 839.483 3345.68 835.23C3343.19 830.903 3341.94 825.733 3341.94 819.72C3341.94 813.707 3343.19 808.573 3345.68 804.32C3348.25 799.993 3351.55 796.73 3355.58 794.53C3359.62 792.257 3363.94 791.12 3368.56 791.12C3373.11 791.12 3377.4 792.257 3381.43 794.53C3385.47 796.73 3388.73 799.993 3391.22 804.32C3393.79 808.573 3395.07 813.707 3395.07 819.72C3395.07 825.733 3393.79 830.903 3391.22 835.23C3388.73 839.483 3385.47 842.747 3381.43 845.02C3377.4 847.22 3373.11 848.32 3368.56 848.32ZM3368.56 835.23C3370.76 835.23 3372.6 834.607 3374.06 833.36C3375.6 832.113 3376.74 830.317 3377.47 827.97C3378.21 825.623 3378.57 822.873 3378.57 819.72C3378.57 816.567 3378.21 813.817 3377.47 811.47C3376.74 809.123 3375.6 807.327 3374.06 806.08C3372.6 804.833 3370.76 804.21 3368.56 804.21C3366.29 804.21 3364.42 804.833 3362.95 806.08C3361.49 807.327 3360.39 809.123 3359.65 811.47C3358.92 813.817 3358.55 816.567 3358.55 819.72C3358.55 822.873 3358.92 825.623 3359.65 827.97C3360.39 830.317 3361.49 832.113 3362.95 833.36C3364.42 834.607 3366.29 835.23 3368.56 835.23Z" fill="black" fill-opacity="0.44"/>
<path d="M1958.92 964V891.84H1976.96C1984.37 891.84 1990.6 893.233 1995.66 896.02C2000.72 898.807 2004.53 902.877 2007.1 908.23C2009.74 913.51 2011.06 919.963 2011.06 927.59C2011.06 935.217 2009.74 941.78 2007.1 947.28C2004.53 952.707 2000.76 956.85 1995.77 959.71C1990.78 962.57 1984.66 964 1977.4 964H1958.92ZM1968.05 956.52H1976.3C1981.95 956.52 1986.64 955.383 1990.38 953.11C1994.12 950.763 1996.91 947.463 1998.74 943.21C2000.57 938.957 2001.49 933.75 2001.49 927.59C2001.49 921.577 2000.57 916.443 1998.74 912.19C1996.91 907.937 1994.12 904.747 1990.38 902.62C1986.64 900.42 1981.95 899.32 1976.3 899.32H1968.05V956.52ZM2047.39 965.32C2042.62 965.32 2038.26 964.22 2034.3 962.02C2030.41 959.747 2027.33 956.557 2025.06 952.45C2022.78 948.27 2021.65 943.21 2021.65 937.27C2021.65 931.477 2022.82 926.49 2025.17 922.31C2027.51 918.13 2030.52 914.903 2034.19 912.63C2037.85 910.357 2041.74 909.22 2045.85 909.22C2050.39 909.22 2054.24 910.283 2057.4 912.41C2060.62 914.463 2063.04 917.36 2064.66 921.1C2066.27 924.84 2067.08 929.24 2067.08 934.3C2067.08 935.253 2067.04 936.17 2066.97 937.05C2066.97 937.93 2066.86 938.81 2066.64 939.69H2028.14V932.54H2058.94C2058.94 927.407 2057.8 923.483 2055.53 920.77C2053.33 917.983 2050.14 916.59 2045.96 916.59C2043.54 916.59 2041.15 917.287 2038.81 918.68C2036.46 920 2034.52 922.163 2032.98 925.17C2031.51 928.177 2030.78 932.173 2030.78 937.16C2030.78 941.707 2031.55 945.52 2033.09 948.6C2034.7 951.68 2036.86 954.027 2039.58 955.64C2042.29 957.18 2045.26 957.95 2048.49 957.95C2051.05 957.95 2053.44 957.583 2055.64 956.85C2057.91 956.117 2059.96 955.127 2061.8 953.88L2065.1 959.82C2062.75 961.433 2060.11 962.753 2057.18 963.78C2054.32 964.807 2051.05 965.32 2047.39 965.32ZM2094.26 965.32C2090.37 965.32 2086.67 964.66 2083.15 963.34C2079.7 961.947 2076.77 960.04 2074.35 957.62L2078.53 952.34C2080.87 954.247 2083.29 955.713 2085.79 956.74C2088.35 957.767 2091.29 958.28 2094.59 958.28C2098.11 958.28 2100.75 957.473 2102.51 955.86C2104.27 954.173 2105.15 952.193 2105.15 949.92C2105.15 948.087 2104.52 946.583 2103.28 945.41C2102.1 944.163 2100.6 943.137 2098.77 942.33C2097.01 941.45 2095.1 940.643 2093.05 939.91C2090.41 938.957 2087.88 937.857 2085.46 936.61C2083.04 935.29 2081.06 933.677 2079.52 931.77C2078.05 929.79 2077.32 927.333 2077.32 924.4C2077.32 920.073 2078.93 916.48 2082.16 913.62C2085.46 910.687 2090 909.22 2095.8 909.22C2099.1 909.22 2102.18 909.807 2105.04 910.98C2107.9 912.08 2110.35 913.51 2112.41 915.27L2108.23 920.44C2106.32 919.12 2104.38 918.093 2102.4 917.36C2100.42 916.627 2098.22 916.26 2095.8 916.26C2092.42 916.26 2089.93 917.03 2088.32 918.57C2086.78 920.11 2086.01 921.907 2086.01 923.96C2086.01 925.573 2086.48 926.93 2087.44 928.03C2088.39 929.057 2089.71 929.973 2091.4 930.78C2093.16 931.587 2095.14 932.357 2097.34 933.09C2100.12 934.117 2102.76 935.29 2105.26 936.61C2107.82 937.857 2109.88 939.507 2111.42 941.56C2113.03 943.54 2113.84 946.143 2113.84 949.37C2113.84 952.303 2113.07 954.98 2111.53 957.4C2110.06 959.747 2107.86 961.653 2104.93 963.12C2102.07 964.587 2098.51 965.32 2094.26 965.32ZM2148.04 965.32C2143.27 965.32 2138.91 964.22 2134.95 962.02C2131.06 959.747 2127.98 956.557 2125.71 952.45C2123.44 948.27 2122.3 943.21 2122.3 937.27C2122.3 931.477 2123.47 926.49 2125.82 922.31C2128.17 918.13 2131.17 914.903 2134.84 912.63C2138.51 910.357 2142.39 909.22 2146.5 909.22C2151.05 909.22 2154.9 910.283 2158.05 912.41C2161.28 914.463 2163.7 917.36 2165.31 921.1C2166.92 924.84 2167.73 929.24 2167.73 934.3C2167.73 935.253 2167.69 936.17 2167.62 937.05C2167.62 937.93 2167.51 938.81 2167.29 939.69H2128.79V932.54H2159.59C2159.59 927.407 2158.45 923.483 2156.18 920.77C2153.98 917.983 2150.79 916.59 2146.61 916.59C2144.19 916.59 2141.81 917.287 2139.46 918.68C2137.11 920 2135.17 922.163 2133.63 925.17C2132.16 928.177 2131.43 932.173 2131.43 937.16C2131.43 941.707 2132.2 945.52 2133.74 948.6C2135.35 951.68 2137.52 954.027 2140.23 955.64C2142.94 957.18 2145.91 957.95 2149.14 957.95C2151.71 957.95 2154.09 957.583 2156.29 956.85C2158.56 956.117 2160.62 955.127 2162.45 953.88L2165.75 959.82C2163.4 961.433 2160.76 962.753 2157.83 963.78C2154.97 964.807 2151.71 965.32 2148.04 965.32ZM2180.94 964V910.54H2188.42L2189.19 918.24H2189.52C2192.09 915.673 2194.8 913.547 2197.66 911.86C2200.52 910.1 2203.78 909.22 2207.45 909.22C2213.1 909.22 2217.2 911.017 2219.77 914.61C2222.41 918.13 2223.73 923.3 2223.73 930.12V964H2214.71V931.33C2214.71 926.27 2213.9 922.64 2212.29 920.44C2210.75 918.167 2208.18 917.03 2204.59 917.03C2201.88 917.03 2199.42 917.727 2197.22 919.12C2195.09 920.513 2192.67 922.567 2189.96 925.28V964H2180.94ZM2241.1 964V885.68H2250.12V907.02L2249.79 918.02C2252.35 915.6 2255.03 913.547 2257.82 911.86C2260.68 910.1 2263.94 909.22 2267.61 909.22C2273.25 909.22 2277.36 911.017 2279.93 914.61C2282.57 918.13 2283.89 923.3 2283.89 930.12V964H2274.87V931.33C2274.87 926.27 2274.06 922.64 2272.45 920.44C2270.91 918.167 2268.34 917.03 2264.75 917.03C2262.03 917.03 2259.58 917.727 2257.38 919.12C2255.25 920.513 2252.83 922.567 2250.12 925.28V964H2241.1ZM2313.25 965.32C2310.32 965.32 2307.64 964.733 2305.22 963.56C2302.87 962.313 2301 960.59 2299.61 958.39C2298.22 956.117 2297.52 953.367 2297.52 950.14C2297.52 944.127 2300.16 939.58 2305.44 936.5C2310.72 933.42 2319.08 931.257 2330.52 930.01C2330.45 927.81 2330.08 925.683 2329.42 923.63C2328.83 921.577 2327.73 919.927 2326.12 918.68C2324.51 917.433 2322.27 916.81 2319.41 916.81C2316.33 916.81 2313.43 917.397 2310.72 918.57C2308.01 919.67 2305.59 920.917 2303.46 922.31L2299.94 916.15C2301.55 915.05 2303.46 913.987 2305.66 912.96C2307.86 911.86 2310.24 910.98 2312.81 910.32C2315.38 909.587 2318.09 909.22 2320.95 909.22C2325.28 909.22 2328.8 910.137 2331.51 911.97C2334.3 913.73 2336.31 916.26 2337.56 919.56C2338.88 922.86 2339.54 926.747 2339.54 931.22V964H2332.06L2331.29 957.62H2330.96C2328.39 959.747 2325.64 961.58 2322.71 963.12C2319.78 964.587 2316.62 965.32 2313.25 965.32ZM2315.78 957.84C2318.42 957.84 2320.88 957.253 2323.15 956.08C2325.5 954.907 2327.95 953.183 2330.52 950.91V936.5C2324.51 937.233 2319.74 938.187 2316.22 939.36C2312.77 940.46 2310.28 941.853 2308.74 943.54C2307.2 945.227 2306.43 947.243 2306.43 949.59C2306.43 952.523 2307.35 954.65 2309.18 955.97C2311.01 957.217 2313.21 957.84 2315.78 957.84ZM2356.36 964V910.54H2363.84L2364.61 918.24H2364.94C2367.51 915.673 2370.22 913.547 2373.08 911.86C2375.94 910.1 2379.2 909.22 2382.87 909.22C2388.52 909.22 2392.62 911.017 2395.19 914.61C2397.83 918.13 2399.15 923.3 2399.15 930.12V964H2390.13V931.33C2390.13 926.27 2389.32 922.64 2387.71 920.44C2386.17 918.167 2383.6 917.03 2380.01 917.03C2377.3 917.03 2374.84 917.727 2372.64 919.12C2370.51 920.513 2368.09 922.567 2365.38 925.28V964H2356.36ZM2434.78 965.32C2428.03 965.32 2422.64 962.9 2418.61 958.06C2414.65 953.147 2412.67 946.253 2412.67 937.38C2412.67 931.587 2413.73 926.6 2415.86 922.42C2418.06 918.167 2420.92 914.903 2424.44 912.63C2427.96 910.357 2431.77 909.22 2435.88 909.22C2439.03 909.22 2441.71 909.77 2443.91 910.87C2446.18 911.897 2448.49 913.4 2450.84 915.38L2450.4 906.25V885.68H2459.53V964H2452.05L2451.28 957.73H2450.95C2448.89 959.783 2446.47 961.58 2443.69 963.12C2440.9 964.587 2437.93 965.32 2434.78 965.32ZM2436.76 957.73C2439.25 957.73 2441.6 957.107 2443.8 955.86C2446 954.613 2448.2 952.78 2450.4 950.36V922.42C2448.2 920.367 2446.03 918.937 2443.91 918.13C2441.78 917.25 2439.62 916.81 2437.42 916.81C2434.56 916.81 2431.95 917.69 2429.61 919.45C2427.33 921.137 2425.5 923.52 2424.11 926.6C2422.71 929.607 2422.02 933.163 2422.02 937.27C2422.02 943.65 2423.3 948.673 2425.87 952.34C2428.43 955.933 2432.06 957.73 2436.76 957.73ZM2498.32 965.32C2494 965.32 2489.93 964.22 2486.11 962.02C2482.37 959.82 2479.33 956.63 2476.98 952.45C2474.71 948.27 2473.57 943.247 2473.57 937.38C2473.57 931.367 2474.71 926.27 2476.98 922.09C2479.33 917.91 2482.37 914.72 2486.11 912.52C2489.93 910.32 2494 909.22 2498.32 909.22C2502.72 909.22 2506.79 910.32 2510.53 912.52C2514.27 914.72 2517.28 917.91 2519.55 922.09C2521.9 926.27 2523.07 931.367 2523.07 937.38C2523.07 943.247 2521.9 948.27 2519.55 952.45C2517.28 956.63 2514.27 959.82 2510.53 962.02C2506.79 964.22 2502.72 965.32 2498.32 965.32ZM2498.32 957.84C2501.4 957.84 2504.12 956.997 2506.46 955.31C2508.81 953.55 2510.61 951.13 2511.85 948.05C2513.1 944.97 2513.72 941.413 2513.72 937.38C2513.72 933.273 2513.1 929.68 2511.85 926.6C2510.61 923.447 2508.81 921.027 2506.46 919.34C2504.12 917.58 2501.4 916.7 2498.32 916.7C2495.24 916.7 2492.53 917.58 2490.18 919.34C2487.91 921.027 2486.11 923.447 2484.79 926.6C2483.55 929.68 2482.92 933.273 2482.92 937.38C2482.92 941.413 2483.55 944.97 2484.79 948.05C2486.11 951.13 2487.91 953.55 2490.18 955.31C2492.53 956.997 2495.24 957.84 2498.32 957.84ZM2554.55 964V958.5C2561.52 951.607 2567.46 945.52 2572.37 940.24C2577.36 934.887 2581.14 930.047 2583.7 925.72C2586.27 921.393 2587.55 917.36 2587.55 913.62C2587.55 909.587 2586.45 906.287 2584.25 903.72C2582.05 901.153 2578.72 899.87 2574.24 899.87C2571.31 899.87 2568.6 900.677 2566.1 902.29C2563.61 903.903 2561.34 905.92 2559.28 908.34L2554.22 903.39C2557.16 900.09 2560.27 897.45 2563.57 895.47C2566.95 893.49 2570.87 892.5 2575.34 892.5C2579.67 892.5 2583.41 893.38 2586.56 895.14C2589.72 896.827 2592.14 899.21 2593.82 902.29C2595.51 905.37 2596.35 908.963 2596.35 913.07C2596.35 917.617 2595.07 922.127 2592.5 926.6C2590.01 931.073 2586.56 935.767 2582.16 940.68C2577.76 945.593 2572.7 950.983 2566.98 956.85C2568.89 956.63 2570.87 956.483 2572.92 956.41C2574.98 956.263 2576.92 956.19 2578.75 956.19H2599.87V964H2554.55ZM2657.1 965.32C2652.33 965.32 2648.04 964.22 2644.23 962.02C2640.42 959.82 2637.41 956.63 2635.21 952.45C2633.01 948.27 2631.91 943.247 2631.91 937.38C2631.91 931.367 2633.08 926.27 2635.43 922.09C2637.85 917.91 2641 914.72 2644.89 912.52C2648.85 910.32 2653.1 909.22 2657.65 909.22C2661.17 909.22 2664.18 909.807 2666.67 910.98C2669.24 912.153 2671.44 913.657 2673.27 915.49L2668.76 921.1C2667.44 919.78 2665.86 918.753 2664.03 918.02C2662.27 917.213 2660.25 916.81 2657.98 916.81C2654.83 916.81 2651.97 917.69 2649.4 919.45C2646.91 921.137 2644.93 923.52 2643.46 926.6C2641.99 929.68 2641.26 933.273 2641.26 937.38C2641.26 941.413 2641.96 944.97 2643.35 948.05C2644.74 951.13 2646.69 953.55 2649.18 955.31C2651.67 956.997 2654.57 957.84 2657.87 957.84C2660.36 957.84 2662.67 957.363 2664.8 956.41C2666.93 955.457 2668.76 954.247 2670.3 952.78L2674.26 958.28C2671.99 960.407 2669.42 962.13 2666.56 963.45C2663.7 964.697 2660.55 965.32 2657.1 965.32ZM2697.28 965.32C2694.35 965.32 2691.67 964.733 2689.25 963.56C2686.91 962.313 2685.04 960.59 2683.64 958.39C2682.25 956.117 2681.55 953.367 2681.55 950.14C2681.55 944.127 2684.19 939.58 2689.47 936.5C2694.75 933.42 2703.11 931.257 2714.55 930.01C2714.48 927.81 2714.11 925.683 2713.45 923.63C2712.87 921.577 2711.77 919.927 2710.15 918.68C2708.54 917.433 2706.3 916.81 2703.44 916.81C2700.36 916.81 2697.47 917.397 2694.75 918.57C2692.04 919.67 2689.62 920.917 2687.49 922.31L2683.97 916.15C2685.59 915.05 2687.49 913.987 2689.69 912.96C2691.89 911.86 2694.28 910.98 2696.84 910.32C2699.41 909.587 2702.12 909.22 2704.98 909.22C2709.31 909.22 2712.83 910.137 2715.54 911.97C2718.33 913.73 2720.35 916.26 2721.59 919.56C2722.91 922.86 2723.57 926.747 2723.57 931.22V964H2716.09L2715.32 957.62H2714.99C2712.43 959.747 2709.68 961.58 2706.74 963.12C2703.81 964.587 2700.66 965.32 2697.28 965.32ZM2699.81 957.84C2702.45 957.84 2704.91 957.253 2707.18 956.08C2709.53 954.907 2711.99 953.183 2714.55 950.91V936.5C2708.54 937.233 2703.77 938.187 2700.25 939.36C2696.81 940.46 2694.31 941.853 2692.77 943.54C2691.23 945.227 2690.46 947.243 2690.46 949.59C2690.46 952.523 2691.38 954.65 2693.21 955.97C2695.05 957.217 2697.25 957.84 2699.81 957.84ZM2740.39 964V910.54H2747.87L2748.64 920.22H2748.97C2750.73 916.847 2752.93 914.17 2755.57 912.19C2758.21 910.21 2761.07 909.22 2764.15 909.22C2765.33 909.22 2766.35 909.293 2767.23 909.44C2768.11 909.587 2768.99 909.88 2769.87 910.32L2767.89 918.02C2767.09 917.8 2766.32 917.653 2765.58 917.58C2764.92 917.433 2764.04 917.36 2762.94 917.36C2760.67 917.36 2758.29 918.277 2755.79 920.11C2753.37 921.943 2751.25 925.133 2749.41 929.68V964H2740.39ZM2778.53 964V910.54H2786.01L2786.78 920.22H2787.11C2788.87 916.847 2791.07 914.17 2793.71 912.19C2796.35 910.21 2799.21 909.22 2802.29 909.22C2803.46 909.22 2804.49 909.293 2805.37 909.44C2806.25 909.587 2807.13 909.88 2808.01 910.32L2806.03 918.02C2805.22 917.8 2804.45 917.653 2803.72 917.58C2803.06 917.433 2802.18 917.36 2801.08 917.36C2798.8 917.36 2796.42 918.277 2793.93 920.11C2791.51 921.943 2789.38 925.133 2787.55 929.68V964H2778.53ZM2836.38 965.32C2832.05 965.32 2827.98 964.22 2824.17 962.02C2820.43 959.82 2817.39 956.63 2815.04 952.45C2812.77 948.27 2811.63 943.247 2811.63 937.38C2811.63 931.367 2812.77 926.27 2815.04 922.09C2817.39 917.91 2820.43 914.72 2824.17 912.52C2827.98 910.32 2832.05 909.22 2836.38 909.22C2840.78 909.22 2844.85 910.32 2848.59 912.52C2852.33 914.72 2855.34 917.91 2857.61 922.09C2859.96 926.27 2861.13 931.367 2861.13 937.38C2861.13 943.247 2859.96 948.27 2857.61 952.45C2855.34 956.63 2852.33 959.82 2848.59 962.02C2844.85 964.22 2840.78 965.32 2836.38 965.32ZM2836.38 957.84C2839.46 957.84 2842.17 956.997 2844.52 955.31C2846.87 953.55 2848.66 951.13 2849.91 948.05C2851.16 944.97 2851.78 941.413 2851.78 937.38C2851.78 933.273 2851.16 929.68 2849.91 926.6C2848.66 923.447 2846.87 921.027 2844.52 919.34C2842.17 917.58 2839.46 916.7 2836.38 916.7C2833.3 916.7 2830.59 917.58 2828.24 919.34C2825.97 921.027 2824.17 923.447 2822.85 926.6C2821.6 929.68 2820.98 933.273 2820.98 937.38C2820.98 941.413 2821.6 944.97 2822.85 948.05C2824.17 951.13 2825.97 953.55 2828.24 955.31C2830.59 956.997 2833.3 957.84 2836.38 957.84ZM2888.96 965.32C2885.08 965.32 2881.37 964.66 2877.85 963.34C2874.41 961.947 2871.47 960.04 2869.05 957.62L2873.23 952.34C2875.58 954.247 2878 955.713 2880.49 956.74C2883.06 957.767 2885.99 958.28 2889.29 958.28C2892.81 958.28 2895.45 957.473 2897.21 955.86C2898.97 954.173 2899.85 952.193 2899.85 949.92C2899.85 948.087 2899.23 946.583 2897.98 945.41C2896.81 944.163 2895.31 943.137 2893.47 942.33C2891.71 941.45 2889.81 940.643 2887.75 939.91C2885.11 938.957 2882.58 937.857 2880.16 936.61C2877.74 935.29 2875.76 933.677 2874.22 931.77C2872.76 929.79 2872.02 927.333 2872.02 924.4C2872.02 920.073 2873.64 916.48 2876.86 913.62C2880.16 910.687 2884.71 909.22 2890.5 909.22C2893.8 909.22 2896.88 909.807 2899.74 910.98C2902.6 912.08 2905.06 913.51 2907.11 915.27L2902.93 920.44C2901.03 919.12 2899.08 918.093 2897.1 917.36C2895.12 916.627 2892.92 916.26 2890.5 916.26C2887.13 916.26 2884.64 917.03 2883.02 918.57C2881.48 920.11 2880.71 921.907 2880.71 923.96C2880.71 925.573 2881.19 926.93 2882.14 928.03C2883.1 929.057 2884.42 929.973 2886.1 930.78C2887.86 931.587 2889.84 932.357 2892.04 933.09C2894.83 934.117 2897.47 935.29 2899.96 936.61C2902.53 937.857 2904.58 939.507 2906.12 941.56C2907.74 943.54 2908.54 946.143 2908.54 949.37C2908.54 952.303 2907.77 954.98 2906.23 957.4C2904.77 959.747 2902.57 961.653 2899.63 963.12C2896.77 964.587 2893.22 965.32 2888.96 965.32ZM2961.36 965.32C2954.61 965.32 2949.22 962.9 2945.19 958.06C2941.23 953.147 2939.25 946.253 2939.25 937.38C2939.25 931.587 2940.31 926.6 2942.44 922.42C2944.64 918.167 2947.5 914.903 2951.02 912.63C2954.54 910.357 2958.35 909.22 2962.46 909.22C2965.61 909.22 2968.29 909.77 2970.49 910.87C2972.76 911.897 2975.07 913.4 2977.42 915.38L2976.98 906.25V885.68H2986.11V964H2978.63L2977.86 957.73H2977.53C2975.47 959.783 2973.05 961.58 2970.27 963.12C2967.48 964.587 2964.51 965.32 2961.36 965.32ZM2963.34 957.73C2965.83 957.73 2968.18 957.107 2970.38 955.86C2972.58 954.613 2974.78 952.78 2976.98 950.36V922.42C2974.78 920.367 2972.61 918.937 2970.49 918.13C2968.36 917.25 2966.2 916.81 2964 916.81C2961.14 916.81 2958.53 917.69 2956.19 919.45C2953.91 921.137 2952.08 923.52 2950.69 926.6C2949.29 929.607 2948.6 933.163 2948.6 937.27C2948.6 943.65 2949.88 948.673 2952.45 952.34C2955.01 955.933 2958.64 957.73 2963.34 957.73ZM3025.78 965.32C3021.02 965.32 3016.65 964.22 3012.69 962.02C3008.81 959.747 3005.73 956.557 3003.45 952.45C3001.18 948.27 3000.04 943.21 3000.04 937.27C3000.04 931.477 3001.22 926.49 3003.56 922.31C3005.91 918.13 3008.92 914.903 3012.58 912.63C3016.25 910.357 3020.14 909.22 3024.24 909.22C3028.79 909.22 3032.64 910.283 3035.79 912.41C3039.02 914.463 3041.44 917.36 3043.05 921.1C3044.67 924.84 3045.47 929.24 3045.47 934.3C3045.47 935.253 3045.44 936.17 3045.36 937.05C3045.36 937.93 3045.25 938.81 3045.03 939.69H3006.53V932.54H3037.33C3037.33 927.407 3036.2 923.483 3033.92 920.77C3031.72 917.983 3028.53 916.59 3024.35 916.59C3021.93 916.59 3019.55 917.287 3017.2 918.68C3014.86 920 3012.91 922.163 3011.37 925.17C3009.91 928.177 3009.17 932.173 3009.17 937.16C3009.17 941.707 3009.94 945.52 3011.48 948.6C3013.1 951.68 3015.26 954.027 3017.97 955.64C3020.69 957.18 3023.66 957.95 3026.88 957.95C3029.45 957.95 3031.83 957.583 3034.03 956.85C3036.31 956.117 3038.36 955.127 3040.19 953.88L3043.49 959.82C3041.15 961.433 3038.51 962.753 3035.57 963.78C3032.71 964.807 3029.45 965.32 3025.78 965.32ZM3101.94 965.32C3097.17 965.32 3092.88 964.22 3089.07 962.02C3085.25 959.82 3082.25 956.63 3080.05 952.45C3077.85 948.27 3076.75 943.247 3076.75 937.38C3076.75 931.367 3077.92 926.27 3080.27 922.09C3082.69 917.91 3085.84 914.72 3089.73 912.52C3093.69 910.32 3097.94 909.22 3102.49 909.22C3106.01 909.22 3109.01 909.807 3111.51 910.98C3114.07 912.153 3116.27 913.657 3118.11 915.49L3113.6 921.1C3112.28 919.78 3110.7 918.753 3108.87 918.02C3107.11 917.213 3105.09 916.81 3102.82 916.81C3099.66 916.81 3096.8 917.69 3094.24 919.45C3091.74 921.137 3089.76 923.52 3088.3 926.6C3086.83 929.68 3086.1 933.273 3086.1 937.38C3086.1 941.413 3086.79 944.97 3088.19 948.05C3089.58 951.13 3091.52 953.55 3094.02 955.31C3096.51 956.997 3099.41 957.84 3102.71 957.84C3105.2 957.84 3107.51 957.363 3109.64 956.41C3111.76 955.457 3113.6 954.247 3115.14 952.78L3119.1 958.28C3116.82 960.407 3114.26 962.13 3111.4 963.45C3108.54 964.697 3105.38 965.32 3101.94 965.32ZM3149.41 965.32C3145.08 965.32 3141.01 964.22 3137.2 962.02C3133.46 959.82 3130.41 956.63 3128.07 952.45C3125.79 948.27 3124.66 943.247 3124.66 937.38C3124.66 931.367 3125.79 926.27 3128.07 922.09C3130.41 917.91 3133.46 914.72 3137.2 912.52C3141.01 910.32 3145.08 909.22 3149.41 909.22C3153.81 909.22 3157.88 910.32 3161.62 912.52C3165.36 914.72 3168.36 917.91 3170.64 922.09C3172.98 926.27 3174.16 931.367 3174.16 937.38C3174.16 943.247 3172.98 948.27 3170.64 952.45C3168.36 956.63 3165.36 959.82 3161.62 962.02C3157.88 964.22 3153.81 965.32 3149.41 965.32ZM3149.41 957.84C3152.49 957.84 3155.2 956.997 3157.55 955.31C3159.89 953.55 3161.69 951.13 3162.94 948.05C3164.18 944.97 3164.81 941.413 3164.81 937.38C3164.81 933.273 3164.18 929.68 3162.94 926.6C3161.69 923.447 3159.89 921.027 3157.55 919.34C3155.2 917.58 3152.49 916.7 3149.41 916.7C3146.33 916.7 3143.61 917.58 3141.27 919.34C3138.99 921.027 3137.2 923.447 3135.88 926.6C3134.63 929.68 3134.01 933.273 3134.01 937.38C3134.01 941.413 3134.63 944.97 3135.88 948.05C3137.2 951.13 3138.99 953.55 3141.27 955.31C3143.61 956.997 3146.33 957.84 3149.41 957.84ZM3188.23 964V910.54H3195.71L3196.48 920.22H3196.81C3198.57 916.847 3200.77 914.17 3203.41 912.19C3206.05 910.21 3208.91 909.22 3211.99 909.22C3213.17 909.22 3214.19 909.293 3215.07 909.44C3215.95 909.587 3216.83 909.88 3217.71 910.32L3215.73 918.02C3214.93 917.8 3214.16 917.653 3213.42 917.58C3212.76 917.433 3211.88 917.36 3210.78 917.36C3208.51 917.36 3206.13 918.277 3203.63 920.11C3201.21 921.943 3199.09 925.133 3197.25 929.68V964H3188.23ZM3226.37 964V910.54H3233.85L3234.62 920.22H3234.95C3236.71 916.847 3238.91 914.17 3241.55 912.19C3244.19 910.21 3247.05 909.22 3250.13 909.22C3251.3 909.22 3252.33 909.293 3253.21 909.44C3254.09 909.587 3254.97 909.88 3255.85 910.32L3253.87 918.02C3253.06 917.8 3252.29 917.653 3251.56 917.58C3250.9 917.433 3250.02 917.36 3248.92 917.36C3246.65 917.36 3244.26 918.277 3241.77 920.11C3239.35 921.943 3237.22 925.133 3235.39 929.68V964H3226.37ZM3264.5 964V910.54H3273.52V964H3264.5ZM3269.01 899.54C3267.25 899.54 3265.79 898.99 3264.61 897.89C3263.51 896.79 3262.96 895.36 3262.96 893.6C3262.96 891.84 3263.51 890.41 3264.61 889.31C3265.79 888.21 3267.25 887.66 3269.01 887.66C3270.77 887.66 3272.2 888.21 3273.3 889.31C3274.48 890.41 3275.06 891.84 3275.06 893.6C3275.06 895.36 3274.48 896.79 3273.3 897.89C3272.2 898.99 3270.77 899.54 3269.01 899.54ZM3309.83 965.32C3303.09 965.32 3297.7 962.9 3293.66 958.06C3289.7 953.147 3287.72 946.253 3287.72 937.38C3287.72 931.587 3288.79 926.6 3290.91 922.42C3293.11 918.167 3295.97 914.903 3299.49 912.63C3303.01 910.357 3306.83 909.22 3310.93 909.22C3314.09 909.22 3316.76 909.77 3318.96 910.87C3321.24 911.897 3323.55 913.4 3325.89 915.38L3325.45 906.25V885.68H3334.58V964H3327.1L3326.33 957.73H3326C3323.95 959.783 3321.53 961.58 3318.74 963.12C3315.96 964.587 3312.99 965.32 3309.83 965.32ZM3311.81 957.73C3314.31 957.73 3316.65 957.107 3318.85 955.86C3321.05 954.613 3323.25 952.78 3325.45 950.36V922.42C3323.25 920.367 3321.09 918.937 3318.96 918.13C3316.84 917.25 3314.67 916.81 3312.47 916.81C3309.61 916.81 3307.01 917.69 3304.66 919.45C3302.39 921.137 3300.56 923.52 3299.16 926.6C3297.77 929.607 3297.07 933.163 3297.07 937.27C3297.07 943.65 3298.36 948.673 3300.92 952.34C3303.49 955.933 3307.12 957.73 3311.81 957.73ZM3364.91 965.32C3361.98 965.32 3359.3 964.733 3356.88 963.56C3354.53 962.313 3352.66 960.59 3351.27 958.39C3349.88 956.117 3349.18 953.367 3349.18 950.14C3349.18 944.127 3351.82 939.58 3357.1 936.5C3362.38 933.42 3370.74 931.257 3382.18 930.01C3382.11 927.81 3381.74 925.683 3381.08 923.63C3380.49 921.577 3379.39 919.927 3377.78 918.68C3376.17 917.433 3373.93 916.81 3371.07 916.81C3367.99 916.81 3365.09 917.397 3362.38 918.57C3359.67 919.67 3357.25 920.917 3355.12 922.31L3351.6 916.15C3353.21 915.05 3355.12 913.987 3357.32 912.96C3359.52 911.86 3361.9 910.98 3364.47 910.32C3367.04 909.587 3369.75 909.22 3372.61 909.22C3376.94 909.22 3380.46 910.137 3383.17 911.97C3385.96 913.73 3387.97 916.26 3389.22 919.56C3390.54 922.86 3391.2 926.747 3391.2 931.22V964H3383.72L3382.95 957.62H3382.62C3380.05 959.747 3377.3 961.58 3374.37 963.12C3371.44 964.587 3368.28 965.32 3364.91 965.32ZM3367.44 957.84C3370.08 957.84 3372.54 957.253 3374.81 956.08C3377.16 954.907 3379.61 953.183 3382.18 950.91V936.5C3376.17 937.233 3371.4 938.187 3367.88 939.36C3364.43 940.46 3361.94 941.853 3360.4 943.54C3358.86 945.227 3358.09 947.243 3358.09 949.59C3358.09 952.523 3359.01 954.65 3360.84 955.97C3362.67 957.217 3364.87 957.84 3367.44 957.84Z" fill="black" fill-opacity="0.44"/>
</svg>
