<svg width="3745" height="1780" viewBox="0 0 3745 1780" fill="none" xmlns="http://www.w3.org/2000/svg">
<path d="M1661.01 847V788.92H1641.32V775.28H1696.98V788.92H1677.29V847H1661.01ZM1702.22 847V792.44H1715.42L1716.52 802.01H1716.96C1718.94 798.343 1721.29 795.63 1724 793.87C1726.79 792.037 1729.61 791.12 1732.47 791.12C1734.01 791.12 1735.3 791.23 1736.32 791.45C1737.35 791.597 1738.23 791.853 1738.96 792.22L1735.88 805.97C1735 805.75 1734.16 805.603 1733.35 805.53C1732.55 805.383 1731.56 805.31 1730.38 805.31C1728.33 805.31 1726.17 806.043 1723.89 807.51C1721.69 808.977 1719.86 811.58 1718.39 815.32V847H1702.22ZM1756.79 848.32C1753.49 848.32 1750.6 847.587 1748.1 846.12C1745.68 844.653 1743.81 842.673 1742.49 840.18C1741.17 837.687 1740.51 834.9 1740.51 831.82C1740.51 825.953 1742.93 821.443 1747.77 818.29C1752.61 815.063 1760.42 812.9 1771.2 811.8C1771.13 810.187 1770.76 808.83 1770.1 807.73C1769.52 806.557 1768.6 805.677 1767.35 805.09C1766.11 804.43 1764.53 804.1 1762.62 804.1C1760.35 804.1 1758.04 804.503 1755.69 805.31C1753.35 806.117 1750.82 807.29 1748.1 808.83L1742.38 798.27C1744.73 796.803 1747.15 795.557 1749.64 794.53C1752.14 793.43 1754.7 792.587 1757.34 792C1760.06 791.413 1762.84 791.12 1765.7 791.12C1770.4 791.12 1774.32 792.037 1777.47 793.87C1780.7 795.63 1783.16 798.343 1784.84 802.01C1786.53 805.603 1787.37 810.223 1787.37 815.87V847H1774.17L1773.07 841.39H1772.63C1770.29 843.443 1767.83 845.13 1765.26 846.45C1762.7 847.697 1759.87 848.32 1756.79 848.32ZM1762.18 835.67C1764.02 835.67 1765.63 835.267 1767.02 834.46C1768.42 833.653 1769.81 832.553 1771.2 831.16V821.92C1767.39 822.433 1764.35 823.093 1762.07 823.9C1759.87 824.707 1758.3 825.697 1757.34 826.87C1756.46 827.97 1756.02 829.217 1756.02 830.61C1756.02 832.297 1756.57 833.58 1757.67 834.46C1758.85 835.267 1760.35 835.67 1762.18 835.67ZM1801.05 847V792.44H1814.25L1815.35 799.37H1815.79C1818.07 797.097 1820.63 795.153 1823.49 793.54C1826.35 791.927 1829.62 791.12 1833.28 791.12C1839.3 791.12 1843.62 793.1 1846.26 797.06C1848.9 800.947 1850.22 806.3 1850.22 813.12V847H1834.05V815.21C1834.05 811.25 1833.5 808.537 1832.4 807.07C1831.38 805.603 1829.69 804.87 1827.34 804.87C1825.29 804.87 1823.53 805.347 1822.06 806.3C1820.6 807.18 1818.98 808.463 1817.22 810.15V847H1801.05ZM1880.06 848.32C1876.47 848.32 1872.76 847.623 1868.95 846.23C1865.14 844.837 1861.87 842.82 1859.16 840.18L1865.98 831.05C1868.47 833.03 1870.93 834.423 1873.35 835.23C1875.84 835.963 1878.23 836.33 1880.5 836.33C1882.92 836.33 1884.68 835.927 1885.78 835.12C1886.88 834.24 1887.43 833.103 1887.43 831.71C1887.43 830.463 1886.92 829.437 1885.89 828.63C1884.94 827.823 1883.65 827.127 1882.04 826.54C1880.5 825.88 1878.74 825.183 1876.76 824.45C1874.12 823.497 1871.7 822.287 1869.5 820.82C1867.3 819.353 1865.5 817.593 1864.11 815.54C1862.79 813.487 1862.13 811.03 1862.13 808.17C1862.13 803.037 1864.04 798.93 1867.85 795.85C1871.74 792.697 1876.8 791.12 1883.03 791.12C1886.99 791.12 1890.58 791.78 1893.81 793.1C1897.11 794.347 1899.93 795.997 1902.28 798.05L1895.35 807.07C1893.37 805.677 1891.39 804.687 1889.41 804.1C1887.43 803.44 1885.49 803.11 1883.58 803.11C1881.45 803.11 1879.88 803.513 1878.85 804.32C1877.82 805.127 1877.31 806.153 1877.31 807.4C1877.31 808.427 1877.68 809.307 1878.41 810.04C1879.14 810.773 1880.24 811.47 1881.71 812.13C1883.25 812.717 1885.16 813.377 1887.43 814.11C1890.22 815.063 1892.75 816.273 1895.02 817.74C1897.37 819.133 1899.2 820.893 1900.52 823.02C1901.84 825.147 1902.5 827.713 1902.5 830.72C1902.5 834.02 1901.62 836.99 1899.86 839.63C1898.17 842.27 1895.68 844.397 1892.38 846.01C1889.08 847.55 1884.97 848.32 1880.06 848.32ZM1915.52 847V789.58C1915.52 785.693 1916.14 782.173 1917.39 779.02C1918.71 775.867 1920.84 773.337 1923.77 771.43C1926.78 769.523 1930.74 768.57 1935.65 768.57C1937.92 768.57 1940.01 768.79 1941.92 769.23C1943.83 769.67 1945.37 770.11 1946.54 770.55L1943.35 782.1C1941.52 781.587 1939.72 781.33 1937.96 781.33C1935.98 781.33 1934.44 781.953 1933.34 783.2C1932.24 784.373 1931.69 786.353 1931.69 789.14V847H1915.52ZM1907.49 805.09V793.1L1916.62 792.44H1941.48V805.09H1907.49ZM1972.62 848.32C1968 848.32 1963.67 847.22 1959.64 845.02C1955.6 842.747 1952.3 839.483 1949.74 835.23C1947.24 830.903 1946 825.733 1946 819.72C1946 813.707 1947.24 808.573 1949.74 804.32C1952.3 799.993 1955.6 796.73 1959.64 794.53C1963.67 792.257 1968 791.12 1972.62 791.12C1977.16 791.12 1981.45 792.257 1985.49 794.53C1989.52 796.73 1992.78 799.993 1995.28 804.32C1997.84 808.573 1999.13 813.707 1999.13 819.72C1999.13 825.733 1997.84 830.903 1995.28 835.23C1992.78 839.483 1989.52 842.747 1985.49 845.02C1981.45 847.22 1977.16 848.32 1972.62 848.32ZM1972.62 835.23C1974.82 835.23 1976.65 834.607 1978.12 833.36C1979.66 832.113 1980.79 830.317 1981.53 827.97C1982.26 825.623 1982.63 822.873 1982.63 819.72C1982.63 816.567 1982.26 813.817 1981.53 811.47C1980.79 809.123 1979.66 807.327 1978.12 806.08C1976.65 804.833 1974.82 804.21 1972.62 804.21C1970.34 804.21 1968.47 804.833 1967.01 806.08C1965.54 807.327 1964.44 809.123 1963.71 811.47C1962.97 813.817 1962.61 816.567 1962.61 819.72C1962.61 822.873 1962.97 825.623 1963.71 827.97C1964.44 830.317 1965.54 832.113 1967.01 833.36C1968.47 834.607 1970.34 835.23 1972.62 835.23ZM2010.2 847V792.44H2023.4L2024.5 802.01H2024.94C2026.92 798.343 2029.27 795.63 2031.98 793.87C2034.77 792.037 2037.59 791.12 2040.45 791.12C2041.99 791.12 2043.28 791.23 2044.3 791.45C2045.33 791.597 2046.21 791.853 2046.94 792.22L2043.86 805.97C2042.98 805.75 2042.14 805.603 2041.33 805.53C2040.53 805.383 2039.54 805.31 2038.36 805.31C2036.31 805.31 2034.15 806.043 2031.87 807.51C2029.67 808.977 2027.84 811.58 2026.37 815.32V847H2010.2ZM2054.03 847V792.44H2067.23L2068.33 799.48H2068.77C2070.97 797.207 2073.35 795.263 2075.92 793.65C2078.56 791.963 2081.68 791.12 2085.27 791.12C2089.16 791.12 2092.31 791.927 2094.73 793.54C2097.15 795.08 2099.02 797.317 2100.34 800.25C2102.76 797.757 2105.33 795.63 2108.04 793.87C2110.75 792.037 2113.91 791.12 2117.5 791.12C2123.44 791.12 2127.77 793.1 2130.48 797.06C2133.19 800.947 2134.55 806.3 2134.55 813.12V847H2118.38V815.21C2118.38 811.25 2117.83 808.537 2116.73 807.07C2115.7 805.603 2114.02 804.87 2111.67 804.87C2110.28 804.87 2108.81 805.31 2107.27 806.19C2105.73 806.997 2104.08 808.317 2102.32 810.15V847H2086.15V815.21C2086.15 811.25 2085.6 808.537 2084.5 807.07C2083.47 805.603 2081.79 804.87 2079.44 804.87C2076.65 804.87 2073.57 806.63 2070.2 810.15V847H2054.03ZM2162.1 848.32C2158.8 848.32 2155.9 847.587 2153.41 846.12C2150.99 844.653 2149.12 842.673 2147.8 840.18C2146.48 837.687 2145.82 834.9 2145.82 831.82C2145.82 825.953 2148.24 821.443 2153.08 818.29C2157.92 815.063 2165.73 812.9 2176.51 811.8C2176.43 810.187 2176.07 808.83 2175.41 807.73C2174.82 806.557 2173.9 805.677 2172.66 805.09C2171.41 804.43 2169.83 804.1 2167.93 804.1C2165.65 804.1 2163.34 804.503 2161 805.31C2158.65 806.117 2156.12 807.29 2153.41 808.83L2147.69 798.27C2150.03 796.803 2152.45 795.557 2154.95 794.53C2157.44 793.43 2160.01 792.587 2162.65 792C2165.36 791.413 2168.15 791.12 2171.01 791.12C2175.7 791.12 2179.62 792.037 2182.78 793.87C2186 795.63 2188.46 798.343 2190.15 802.01C2191.83 805.603 2192.68 810.223 2192.68 815.87V847H2179.48L2178.38 841.39H2177.94C2175.59 843.443 2173.13 845.13 2170.57 846.45C2168 847.697 2165.18 848.32 2162.1 848.32ZM2167.49 835.67C2169.32 835.67 2170.93 835.267 2172.33 834.46C2173.72 833.653 2175.11 832.553 2176.51 831.16V821.92C2172.69 822.433 2169.65 823.093 2167.38 823.9C2165.18 824.707 2163.6 825.697 2162.65 826.87C2161.77 827.97 2161.33 829.217 2161.33 830.61C2161.33 832.297 2161.88 833.58 2162.98 834.46C2164.15 835.267 2165.65 835.67 2167.49 835.67ZM2206.36 847V792.44H2219.56L2220.66 799.37H2221.1C2223.37 797.097 2225.94 795.153 2228.8 793.54C2231.66 791.927 2234.92 791.12 2238.59 791.12C2244.6 791.12 2248.93 793.1 2251.57 797.06C2254.21 800.947 2255.53 806.3 2255.53 813.12V847H2239.36V815.21C2239.36 811.25 2238.81 808.537 2237.71 807.07C2236.68 805.603 2234.99 804.87 2232.65 804.87C2230.59 804.87 2228.83 805.347 2227.37 806.3C2225.9 807.18 2224.29 808.463 2222.53 810.15V847H2206.36ZM2288.77 848.32C2282.03 848.32 2276.6 845.79 2272.49 840.73C2268.46 835.597 2266.44 828.593 2266.44 819.72C2266.44 813.78 2267.51 808.683 2269.63 804.43C2271.83 800.177 2274.66 796.913 2278.1 794.64C2281.62 792.293 2285.29 791.12 2289.1 791.12C2292.11 791.12 2294.64 791.633 2296.69 792.66C2298.75 793.687 2300.69 795.08 2302.52 796.84L2301.86 788.48V769.89H2318.03V847H2304.83L2303.73 841.61H2303.29C2301.39 843.517 2299.15 845.13 2296.58 846.45C2294.02 847.697 2291.41 848.32 2288.77 848.32ZM2292.95 835.12C2294.71 835.12 2296.33 834.753 2297.79 834.02C2299.26 833.287 2300.62 832.003 2301.86 830.17V807.84C2300.47 806.52 2299 805.603 2297.46 805.09C2295.92 804.577 2294.38 804.32 2292.84 804.32C2291.08 804.32 2289.47 804.87 2288 805.97C2286.54 807.07 2285.33 808.757 2284.37 811.03C2283.49 813.23 2283.05 816.053 2283.05 819.5C2283.05 824.853 2283.93 828.813 2285.69 831.38C2287.45 833.873 2289.87 835.12 2292.95 835.12ZM2355.79 848.32C2351.17 848.32 2346.84 847.22 2342.81 845.02C2338.78 842.747 2335.48 839.483 2332.91 835.23C2330.42 830.903 2329.17 825.733 2329.17 819.72C2329.17 813.707 2330.42 808.573 2332.91 804.32C2335.48 799.993 2338.78 796.73 2342.81 794.53C2346.84 792.257 2351.17 791.12 2355.79 791.12C2360.34 791.12 2364.63 792.257 2368.66 794.53C2372.69 796.73 2375.96 799.993 2378.45 804.32C2381.02 808.573 2382.3 813.707 2382.3 819.72C2382.3 825.733 2381.02 830.903 2378.45 835.23C2375.96 839.483 2372.69 842.747 2368.66 845.02C2364.63 847.22 2360.34 848.32 2355.79 848.32ZM2355.79 835.23C2357.99 835.23 2359.82 834.607 2361.29 833.36C2362.83 832.113 2363.97 830.317 2364.7 827.97C2365.43 825.623 2365.8 822.873 2365.8 819.72C2365.8 816.567 2365.43 813.817 2364.7 811.47C2363.97 809.123 2362.83 807.327 2361.29 806.08C2359.82 804.833 2357.99 804.21 2355.79 804.21C2353.52 804.21 2351.65 804.833 2350.18 806.08C2348.71 807.327 2347.61 809.123 2346.88 811.47C2346.15 813.817 2345.78 816.567 2345.78 819.72C2345.78 822.873 2346.15 825.623 2346.88 827.97C2347.61 830.317 2348.71 832.113 2350.18 833.36C2351.65 834.607 2353.52 835.23 2355.79 835.23ZM2438.83 848.32C2434.21 848.32 2429.88 847.22 2425.85 845.02C2421.81 842.747 2418.51 839.483 2415.95 835.23C2413.45 830.903 2412.21 825.733 2412.21 819.72C2412.21 813.707 2413.45 808.573 2415.95 804.32C2418.51 799.993 2421.81 796.73 2425.85 794.53C2429.88 792.257 2434.21 791.12 2438.83 791.12C2443.37 791.12 2447.66 792.257 2451.7 794.53C2455.73 796.73 2458.99 799.993 2461.49 804.32C2464.05 808.573 2465.34 813.707 2465.34 819.72C2465.34 825.733 2464.05 830.903 2461.49 835.23C2458.99 839.483 2455.73 842.747 2451.7 845.02C2447.66 847.22 2443.37 848.32 2438.83 848.32ZM2438.83 835.23C2441.03 835.23 2442.86 834.607 2444.33 833.36C2445.87 832.113 2447 830.317 2447.74 827.97C2448.47 825.623 2448.84 822.873 2448.84 819.72C2448.84 816.567 2448.47 813.817 2447.74 811.47C2447 809.123 2445.87 807.327 2444.33 806.08C2442.86 804.833 2441.03 804.21 2438.83 804.21C2436.55 804.21 2434.68 804.833 2433.22 806.08C2431.75 807.327 2430.65 809.123 2429.92 811.47C2429.18 813.817 2428.82 816.567 2428.82 819.72C2428.82 822.873 2429.18 825.623 2429.92 827.97C2430.65 830.317 2431.75 832.113 2433.22 833.36C2434.68 834.607 2436.55 835.23 2438.83 835.23ZM2491.94 848.32C2488.34 848.32 2484.64 847.623 2480.83 846.23C2477.01 844.837 2473.75 842.82 2471.04 840.18L2477.86 831.05C2480.35 833.03 2482.81 834.423 2485.23 835.23C2487.72 835.963 2490.1 836.33 2492.38 836.33C2494.8 836.33 2496.56 835.927 2497.66 835.12C2498.76 834.24 2499.31 833.103 2499.31 831.71C2499.31 830.463 2498.79 829.437 2497.77 828.63C2496.81 827.823 2495.53 827.127 2493.92 826.54C2492.38 825.88 2490.62 825.183 2488.64 824.45C2486 823.497 2483.58 822.287 2481.38 820.82C2479.18 819.353 2477.38 817.593 2475.99 815.54C2474.67 813.487 2474.01 811.03 2474.01 808.17C2474.01 803.037 2475.91 798.93 2479.73 795.85C2483.61 792.697 2488.67 791.12 2494.91 791.12C2498.87 791.12 2502.46 791.78 2505.69 793.1C2508.99 794.347 2511.81 795.997 2514.16 798.05L2507.23 807.07C2505.25 805.677 2503.27 804.687 2501.29 804.1C2499.31 803.44 2497.36 803.11 2495.46 803.11C2493.33 803.11 2491.75 803.513 2490.73 804.32C2489.7 805.127 2489.19 806.153 2489.19 807.4C2489.19 808.427 2489.55 809.307 2490.29 810.04C2491.02 810.773 2492.12 811.47 2493.59 812.13C2495.13 812.717 2497.03 813.377 2499.31 814.11C2502.09 815.063 2504.62 816.273 2506.9 817.74C2509.24 819.133 2511.08 820.893 2512.4 823.02C2513.72 825.147 2514.38 827.713 2514.38 830.72C2514.38 834.02 2513.5 836.99 2511.74 839.63C2510.05 842.27 2507.56 844.397 2504.26 846.01C2500.96 847.55 2496.85 848.32 2491.94 848.32ZM2570.76 848.32C2565.62 848.32 2560.97 847.183 2556.79 844.91C2552.68 842.637 2549.42 839.373 2547 835.12C2544.65 830.867 2543.48 825.733 2543.48 819.72C2543.48 813.707 2544.8 808.573 2547.44 804.32C2550.08 800.067 2553.56 796.803 2557.89 794.53C2562.21 792.257 2566.87 791.12 2571.86 791.12C2575.23 791.12 2578.24 791.67 2580.88 792.77C2583.59 793.797 2585.9 795.19 2587.81 796.95L2580.22 806.96C2579.26 806.153 2578.16 805.493 2576.92 804.98C2575.74 804.467 2574.39 804.21 2572.85 804.21C2570.28 804.21 2568.04 804.833 2566.14 806.08C2564.23 807.327 2562.73 809.123 2561.63 811.47C2560.53 813.817 2559.98 816.567 2559.98 819.72C2559.98 822.873 2560.53 825.623 2561.63 827.97C2562.73 830.317 2564.19 832.113 2566.03 833.36C2567.93 834.607 2570.06 835.23 2572.41 835.23C2574.24 835.23 2575.96 834.9 2577.58 834.24C2579.19 833.58 2580.69 832.737 2582.09 831.71L2588.47 841.61C2586.19 843.663 2583.52 845.313 2580.44 846.56C2577.36 847.733 2574.13 848.32 2570.76 848.32ZM2610.8 848.32C2607.5 848.32 2604.6 847.587 2602.11 846.12C2599.69 844.653 2597.82 842.673 2596.5 840.18C2595.18 837.687 2594.52 834.9 2594.52 831.82C2594.52 825.953 2596.94 821.443 2601.78 818.29C2606.62 815.063 2614.43 812.9 2625.21 811.8C2625.14 810.187 2624.77 808.83 2624.11 807.73C2623.52 806.557 2622.61 805.677 2621.36 805.09C2620.11 804.43 2618.54 804.1 2616.63 804.1C2614.36 804.1 2612.05 804.503 2609.7 805.31C2607.35 806.117 2604.82 807.29 2602.11 808.83L2596.39 798.27C2598.74 796.803 2601.16 795.557 2603.65 794.53C2606.14 793.43 2608.71 792.587 2611.35 792C2614.06 791.413 2616.85 791.12 2619.71 791.12C2624.4 791.12 2628.33 792.037 2631.48 793.87C2634.71 795.63 2637.16 798.343 2638.85 802.01C2640.54 805.603 2641.38 810.223 2641.38 815.87V847H2628.18L2627.08 841.39H2626.64C2624.29 843.443 2621.84 845.13 2619.27 846.45C2616.7 847.697 2613.88 848.32 2610.8 848.32ZM2616.19 835.67C2618.02 835.67 2619.64 835.267 2621.03 834.46C2622.42 833.653 2623.82 832.553 2625.21 831.16V821.92C2621.4 822.433 2618.35 823.093 2616.08 823.9C2613.88 824.707 2612.3 825.697 2611.35 826.87C2610.47 827.97 2610.03 829.217 2610.03 830.61C2610.03 832.297 2610.58 833.58 2611.68 834.46C2612.85 835.267 2614.36 835.67 2616.19 835.67ZM2655.06 847V792.44H2668.26L2669.36 802.01H2669.8C2671.78 798.343 2674.12 795.63 2676.84 793.87C2679.62 792.037 2682.45 791.12 2685.31 791.12C2686.85 791.12 2688.13 791.23 2689.16 791.45C2690.18 791.597 2691.06 791.853 2691.8 792.22L2688.72 805.97C2687.84 805.75 2686.99 805.603 2686.19 805.53C2685.38 805.383 2684.39 805.31 2683.22 805.31C2681.16 805.31 2679 806.043 2676.73 807.51C2674.53 808.977 2672.69 811.58 2671.23 815.32V847H2655.06ZM2698.88 847V792.44H2712.08L2713.18 802.01H2713.62C2715.6 798.343 2717.95 795.63 2720.66 793.87C2723.45 792.037 2726.27 791.12 2729.13 791.12C2730.67 791.12 2731.96 791.23 2732.98 791.45C2734.01 791.597 2734.89 791.853 2735.62 792.22L2732.54 805.97C2731.66 805.75 2730.82 805.603 2730.01 805.53C2729.21 805.383 2728.22 805.31 2727.04 805.31C2724.99 805.31 2722.83 806.043 2720.55 807.51C2718.35 808.977 2716.52 811.58 2715.05 815.32V847H2698.88ZM2765.07 848.32C2760.45 848.32 2756.12 847.22 2752.09 845.02C2748.05 842.747 2744.75 839.483 2742.19 835.23C2739.69 830.903 2738.45 825.733 2738.45 819.72C2738.45 813.707 2739.69 808.573 2742.19 804.32C2744.75 799.993 2748.05 796.73 2752.09 794.53C2756.12 792.257 2760.45 791.12 2765.07 791.12C2769.61 791.12 2773.9 792.257 2777.94 794.53C2781.97 796.73 2785.23 799.993 2787.73 804.32C2790.29 808.573 2791.58 813.707 2791.58 819.72C2791.58 825.733 2790.29 830.903 2787.73 835.23C2785.23 839.483 2781.97 842.747 2777.94 845.02C2773.9 847.22 2769.61 848.32 2765.07 848.32ZM2765.07 835.23C2767.27 835.23 2769.1 834.607 2770.57 833.36C2772.11 832.113 2773.24 830.317 2773.98 827.97C2774.71 825.623 2775.08 822.873 2775.08 819.72C2775.08 816.567 2774.71 813.817 2773.98 811.47C2773.24 809.123 2772.11 807.327 2770.57 806.08C2769.1 804.833 2767.27 804.21 2765.07 804.21C2762.79 804.21 2760.92 804.833 2759.46 806.08C2757.99 807.327 2756.89 809.123 2756.16 811.47C2755.42 813.817 2755.06 816.567 2755.06 819.72C2755.06 822.873 2755.42 825.623 2756.16 827.97C2756.89 830.317 2757.99 832.113 2759.46 833.36C2760.92 834.607 2762.79 835.23 2765.07 835.23ZM2818.18 848.32C2814.58 848.32 2810.88 847.623 2807.07 846.23C2803.25 844.837 2799.99 842.82 2797.28 840.18L2804.1 831.05C2806.59 833.03 2809.05 834.423 2811.47 835.23C2813.96 835.963 2816.34 836.33 2818.62 836.33C2821.04 836.33 2822.8 835.927 2823.9 835.12C2825 834.24 2825.55 833.103 2825.55 831.71C2825.55 830.463 2825.03 829.437 2824.01 828.63C2823.05 827.823 2821.77 827.127 2820.16 826.54C2818.62 825.88 2816.86 825.183 2814.88 824.45C2812.24 823.497 2809.82 822.287 2807.62 820.82C2805.42 819.353 2803.62 817.593 2802.23 815.54C2800.91 813.487 2800.25 811.03 2800.25 808.17C2800.25 803.037 2802.15 798.93 2805.97 795.85C2809.85 792.697 2814.91 791.12 2821.15 791.12C2825.11 791.12 2828.7 791.78 2831.93 793.1C2835.23 794.347 2838.05 795.997 2840.4 798.05L2833.47 807.07C2831.49 805.677 2829.51 804.687 2827.53 804.1C2825.55 803.44 2823.6 803.11 2821.7 803.11C2819.57 803.11 2817.99 803.513 2816.97 804.32C2815.94 805.127 2815.43 806.153 2815.43 807.4C2815.43 808.427 2815.79 809.307 2816.53 810.04C2817.26 810.773 2818.36 811.47 2819.83 812.13C2821.37 812.717 2823.27 813.377 2825.55 814.11C2828.33 815.063 2830.86 816.273 2833.14 817.74C2835.48 819.133 2837.32 820.893 2838.64 823.02C2839.96 825.147 2840.62 827.713 2840.62 830.72C2840.62 834.02 2839.74 836.99 2837.98 839.63C2836.29 842.27 2833.8 844.397 2830.5 846.01C2827.2 847.55 2823.09 848.32 2818.18 848.32ZM2897.33 848.32C2892.12 848.32 2887.43 847.183 2883.25 844.91C2879.07 842.637 2875.77 839.373 2873.35 835.12C2870.93 830.867 2869.72 825.733 2869.72 819.72C2869.72 813.78 2870.93 808.683 2873.35 804.43C2875.84 800.177 2879.07 796.913 2883.03 794.64C2886.99 792.293 2891.13 791.12 2895.46 791.12C2900.66 791.12 2904.99 792.293 2908.44 794.64C2911.88 796.913 2914.45 800.03 2916.14 803.99C2917.82 807.95 2918.67 812.387 2918.67 817.3C2918.67 818.693 2918.59 820.087 2918.45 821.48C2918.3 822.8 2918.15 823.863 2918.01 824.67H2882.26L2882.04 813.45H2904.81C2904.81 810.59 2904.11 808.243 2902.72 806.41C2901.32 804.503 2899.01 803.55 2895.79 803.55C2894.03 803.55 2892.3 804.027 2890.62 804.98C2888.93 805.933 2887.54 807.583 2886.44 809.93C2885.34 812.277 2884.82 815.54 2884.9 819.72C2884.97 823.827 2885.7 827.053 2887.1 829.4C2888.56 831.747 2890.4 833.433 2892.6 834.46C2894.8 835.413 2897.11 835.89 2899.53 835.89C2901.65 835.89 2903.67 835.597 2905.58 835.01C2907.56 834.35 2909.5 833.47 2911.41 832.37L2916.69 842.27C2913.97 844.177 2910.89 845.68 2907.45 846.78C2904 847.807 2900.63 848.32 2897.33 848.32ZM2929.84 847V792.44H2943.04L2944.14 799.48H2944.58C2946.78 797.207 2949.16 795.263 2951.73 793.65C2954.37 791.963 2957.49 791.12 2961.08 791.12C2964.97 791.12 2968.12 791.927 2970.54 793.54C2972.96 795.08 2974.83 797.317 2976.15 800.25C2978.57 797.757 2981.14 795.63 2983.85 793.87C2986.56 792.037 2989.72 791.12 2993.31 791.12C2999.25 791.12 3003.58 793.1 3006.29 797.06C3009 800.947 3010.36 806.3 3010.36 813.12V847H2994.19V815.21C2994.19 811.25 2993.64 808.537 2992.54 807.07C2991.51 805.603 2989.83 804.87 2987.48 804.87C2986.09 804.87 2984.62 805.31 2983.08 806.19C2981.54 806.997 2979.89 808.317 2978.13 810.15V847H2961.96V815.21C2961.96 811.25 2961.41 808.537 2960.31 807.07C2959.28 805.603 2957.6 804.87 2955.25 804.87C2952.46 804.87 2949.38 806.63 2946.01 810.15V847H2929.84ZM3069.61 848.32C3064.99 848.32 3060.66 847.22 3056.63 845.02C3052.6 842.747 3049.3 839.483 3046.73 835.23C3044.24 830.903 3042.99 825.733 3042.99 819.72C3042.99 813.707 3044.24 808.573 3046.73 804.32C3049.3 799.993 3052.6 796.73 3056.63 794.53C3060.66 792.257 3064.99 791.12 3069.61 791.12C3074.16 791.12 3078.45 792.257 3082.48 794.53C3086.51 796.73 3089.78 799.993 3092.27 804.32C3094.84 808.573 3096.12 813.707 3096.12 819.72C3096.12 825.733 3094.84 830.903 3092.27 835.23C3089.78 839.483 3086.51 842.747 3082.48 845.02C3078.45 847.22 3074.16 848.32 3069.61 848.32ZM3069.61 835.23C3071.81 835.23 3073.64 834.607 3075.11 833.36C3076.65 832.113 3077.79 830.317 3078.52 827.97C3079.25 825.623 3079.62 822.873 3079.62 819.72C3079.62 816.567 3079.25 813.817 3078.52 811.47C3077.79 809.123 3076.65 807.327 3075.11 806.08C3073.64 804.833 3071.81 804.21 3069.61 804.21C3067.34 804.21 3065.47 804.833 3064 806.08C3062.53 807.327 3061.43 809.123 3060.7 811.47C3059.97 813.817 3059.6 816.567 3059.6 819.72C3059.6 822.873 3059.97 825.623 3060.7 827.97C3061.43 830.317 3062.53 832.113 3064 833.36C3065.47 834.607 3067.34 835.23 3069.61 835.23ZM3135.79 848.32C3133.37 848.32 3130.95 847.733 3128.53 846.56C3126.11 845.313 3123.8 843.517 3121.6 841.17H3121.16L3119.84 847H3107.19V769.89H3123.36V788.81L3122.92 797.17C3124.98 795.263 3127.25 793.797 3129.74 792.77C3132.24 791.67 3134.77 791.12 3137.33 791.12C3141.73 791.12 3145.55 792.257 3148.77 794.53C3152 796.803 3154.46 800.03 3156.14 804.21C3157.9 808.317 3158.78 813.157 3158.78 818.73C3158.78 824.963 3157.68 830.317 3155.48 834.79C3153.28 839.19 3150.42 842.563 3146.9 844.91C3143.46 847.183 3139.75 848.32 3135.79 848.32ZM3132.05 835.12C3133.89 835.12 3135.57 834.57 3137.11 833.47C3138.73 832.37 3139.97 830.647 3140.85 828.3C3141.73 825.88 3142.17 822.8 3142.17 819.06C3142.17 815.76 3141.81 813.047 3141.07 810.92C3140.41 808.72 3139.39 807.07 3137.99 805.97C3136.6 804.87 3134.84 804.32 3132.71 804.32C3131.1 804.32 3129.52 804.723 3127.98 805.53C3126.52 806.263 3124.98 807.51 3123.36 809.27V831.6C3124.76 832.847 3126.22 833.763 3127.76 834.35C3129.3 834.863 3130.73 835.12 3132.05 835.12ZM3167.06 868.56C3164.86 868.56 3162.99 868.413 3161.45 868.12C3159.91 867.827 3158.55 867.46 3157.38 867.02L3160.35 855.14C3161.08 855.36 3161.82 855.543 3162.55 855.69C3163.21 855.837 3163.91 855.91 3164.64 855.91C3166.77 855.91 3168.23 855.177 3169.04 853.71C3169.92 852.317 3170.36 850.117 3170.36 847.11V792.44H3186.64V846.56C3186.64 850.593 3186.02 854.26 3184.77 857.56C3183.6 860.933 3181.58 863.61 3178.72 865.59C3175.93 867.57 3172.05 868.56 3167.06 868.56ZM3178.5 784.41C3175.79 784.41 3173.59 783.64 3171.9 782.1C3170.21 780.56 3169.37 778.507 3169.37 775.94C3169.37 773.373 3170.21 771.32 3171.9 769.78C3173.59 768.24 3175.79 767.47 3178.5 767.47C3181.21 767.47 3183.41 768.24 3185.1 769.78C3186.79 771.32 3187.63 773.373 3187.63 775.94C3187.63 778.507 3186.79 780.56 3185.1 782.1C3183.41 783.64 3181.21 784.41 3178.5 784.41ZM3225.29 848.32C3220.08 848.32 3215.39 847.183 3211.21 844.91C3207.03 842.637 3203.73 839.373 3201.31 835.12C3198.89 830.867 3197.68 825.733 3197.68 819.72C3197.68 813.78 3198.89 808.683 3201.31 804.43C3203.8 800.177 3207.03 796.913 3210.99 794.64C3214.95 792.293 3219.09 791.12 3223.42 791.12C3228.62 791.12 3232.95 792.293 3236.4 794.64C3239.84 796.913 3242.41 800.03 3244.1 803.99C3245.78 807.95 3246.63 812.387 3246.63 817.3C3246.63 818.693 3246.55 820.087 3246.41 821.48C3246.26 822.8 3246.11 823.863 3245.97 824.67H3210.22L3210 813.45H3232.77C3232.77 810.59 3232.07 808.243 3230.68 806.41C3229.28 804.503 3226.97 803.55 3223.75 803.55C3221.99 803.55 3220.26 804.027 3218.58 804.98C3216.89 805.933 3215.5 807.583 3214.4 809.93C3213.3 812.277 3212.78 815.54 3212.86 819.72C3212.93 823.827 3213.66 827.053 3215.06 829.4C3216.52 831.747 3218.36 833.433 3220.56 834.46C3222.76 835.413 3225.07 835.89 3227.49 835.89C3229.61 835.89 3231.63 835.597 3233.54 835.01C3235.52 834.35 3237.46 833.47 3239.37 832.37L3244.65 842.27C3241.93 844.177 3238.85 845.68 3235.41 846.78C3231.96 847.807 3228.59 848.32 3225.29 848.32ZM3277.74 848.21C3270.99 848.21 3266.15 846.267 3263.22 842.38C3260.28 838.42 3258.82 833.323 3258.82 827.09V805.09H3251.45V793.1L3259.81 792.44L3261.68 775.72H3275.1V792.44H3288.19V805.09H3275.1V826.87C3275.1 829.95 3275.72 832.187 3276.97 833.58C3278.29 834.9 3280.01 835.56 3282.14 835.56C3283.02 835.56 3283.9 835.487 3284.78 835.34C3285.66 835.193 3286.5 834.973 3287.31 834.68L3289.95 846.01C3288.55 846.597 3286.79 847.11 3284.67 847.55C3282.61 847.99 3280.3 848.21 3277.74 848.21ZM3320.33 848.32C3315.71 848.32 3311.39 847.22 3307.35 845.02C3303.32 842.747 3300.02 839.483 3297.45 835.23C3294.96 830.903 3293.71 825.733 3293.71 819.72C3293.71 813.707 3294.96 808.573 3297.45 804.32C3300.02 799.993 3303.32 796.73 3307.35 794.53C3311.39 792.257 3315.71 791.12 3320.33 791.12C3324.88 791.12 3329.17 792.257 3333.2 794.53C3337.24 796.73 3340.5 799.993 3342.99 804.32C3345.56 808.573 3346.84 813.707 3346.84 819.72C3346.84 825.733 3345.56 830.903 3342.99 835.23C3340.5 839.483 3337.24 842.747 3333.2 845.02C3329.17 847.22 3324.88 848.32 3320.33 848.32ZM3320.33 835.23C3322.53 835.23 3324.37 834.607 3325.83 833.36C3327.37 832.113 3328.51 830.317 3329.24 827.97C3329.98 825.623 3330.34 822.873 3330.34 819.72C3330.34 816.567 3329.98 813.817 3329.24 811.47C3328.51 809.123 3327.37 807.327 3325.83 806.08C3324.37 804.833 3322.53 804.21 3320.33 804.21C3318.06 804.21 3316.19 804.833 3314.72 806.08C3313.26 807.327 3312.16 809.123 3311.42 811.47C3310.69 813.817 3310.32 816.567 3310.32 819.72C3310.32 822.873 3310.69 825.623 3311.42 827.97C3312.16 830.317 3313.26 832.113 3314.72 833.36C3316.19 834.607 3318.06 835.23 3320.33 835.23ZM3373.44 848.32C3369.85 848.32 3366.14 847.623 3362.33 846.23C3358.52 844.837 3355.25 842.82 3352.54 840.18L3359.36 831.05C3361.85 833.03 3364.31 834.423 3366.73 835.23C3369.22 835.963 3371.61 836.33 3373.88 836.33C3376.3 836.33 3378.06 835.927 3379.16 835.12C3380.26 834.24 3380.81 833.103 3380.81 831.71C3380.81 830.463 3380.3 829.437 3379.27 828.63C3378.32 827.823 3377.03 827.127 3375.42 826.54C3373.88 825.88 3372.12 825.183 3370.14 824.45C3367.5 823.497 3365.08 822.287 3362.88 820.82C3360.68 819.353 3358.88 817.593 3357.49 815.54C3356.17 813.487 3355.51 811.03 3355.51 808.17C3355.51 803.037 3357.42 798.93 3361.23 795.85C3365.12 792.697 3370.18 791.12 3376.41 791.12C3380.37 791.12 3383.96 791.78 3387.19 793.1C3390.49 794.347 3393.31 795.997 3395.66 798.05L3388.73 807.07C3386.75 805.677 3384.77 804.687 3382.79 804.1C3380.81 803.44 3378.87 803.11 3376.96 803.11C3374.83 803.11 3373.26 803.513 3372.23 804.32C3371.2 805.127 3370.69 806.153 3370.69 807.4C3370.69 808.427 3371.06 809.307 3371.79 810.04C3372.52 810.773 3373.62 811.47 3375.09 812.13C3376.63 812.717 3378.54 813.377 3380.81 814.11C3383.6 815.063 3386.13 816.273 3388.4 817.74C3390.75 819.133 3392.58 820.893 3393.9 823.02C3395.22 825.147 3395.88 827.713 3395.88 830.72C3395.88 834.02 3395 836.99 3393.24 839.63C3391.55 842.27 3389.06 844.397 3385.76 846.01C3382.46 847.55 3378.35 848.32 3373.44 848.32Z" fill="black" fill-opacity="0.44"/>
<path d="M1303.97 964V891.84H1345.55V899.54H1313.1V922.2H1340.49V930.01H1313.1V956.19H1346.65V964H1303.97ZM1375.35 964.99C1369.7 964.99 1365.74 963.34 1363.47 960.04C1361.19 956.74 1360.06 952.45 1360.06 947.17V917.91H1352.14V911.09L1360.5 910.54L1361.6 893.38H1369.19V910.54H1383.71V917.91H1369.19V947.28C1369.19 950.507 1369.77 953.037 1370.95 954.87C1372.19 956.703 1374.36 957.62 1377.44 957.62C1378.39 957.62 1379.38 957.547 1380.41 957.4C1381.43 957.18 1382.46 956.813 1383.49 956.3L1385.47 962.68C1384.07 963.34 1382.5 963.89 1380.74 964.33C1378.98 964.77 1377.18 964.99 1375.35 964.99ZM1405.64 965.32C1402.71 965.32 1400.03 964.733 1397.61 963.56C1395.27 962.313 1393.4 960.59 1392 958.39C1390.61 956.117 1389.91 953.367 1389.91 950.14C1389.91 944.127 1392.55 939.58 1397.83 936.5C1403.11 933.42 1411.47 931.257 1422.91 930.01C1422.84 927.81 1422.47 925.683 1421.81 923.63C1421.23 921.577 1420.13 919.927 1418.51 918.68C1416.9 917.433 1414.66 916.81 1411.8 916.81C1408.72 916.81 1405.83 917.397 1403.11 918.57C1400.4 919.67 1397.98 920.917 1395.85 922.31L1392.33 916.15C1393.95 915.05 1395.85 913.987 1398.05 912.96C1400.25 911.86 1402.64 910.98 1405.2 910.32C1407.77 909.587 1410.48 909.22 1413.34 909.22C1417.67 909.22 1421.19 910.137 1423.9 911.97C1426.69 913.73 1428.71 916.26 1429.95 919.56C1431.27 922.86 1431.93 926.747 1431.93 931.22V964H1424.45L1423.68 957.62H1423.35C1420.79 959.747 1418.04 961.58 1415.1 963.12C1412.17 964.587 1409.02 965.32 1405.64 965.32ZM1408.17 957.84C1410.81 957.84 1413.27 957.253 1415.54 956.08C1417.89 954.907 1420.35 953.183 1422.91 950.91V936.5C1416.9 937.233 1412.13 938.187 1408.61 939.36C1405.17 940.46 1402.67 941.853 1401.13 943.54C1399.59 945.227 1398.82 947.243 1398.82 949.59C1398.82 952.523 1399.74 954.65 1401.57 955.97C1403.41 957.217 1405.61 957.84 1408.17 957.84ZM1448.75 986.55V910.54H1456.23L1457 916.7H1457.33C1459.75 914.647 1462.43 912.887 1465.36 911.42C1468.3 909.953 1471.3 909.22 1474.38 909.22C1478.93 909.22 1482.78 910.357 1485.93 912.63C1489.09 914.83 1491.47 917.983 1493.08 922.09C1494.7 926.123 1495.5 930.927 1495.5 936.5C1495.5 942.513 1494.4 947.683 1492.2 952.01C1490.08 956.337 1487.25 959.637 1483.73 961.91C1480.21 964.183 1476.44 965.32 1472.4 965.32C1469.98 965.32 1467.53 964.77 1465.03 963.67C1462.54 962.57 1460.05 961.067 1457.55 959.16L1457.77 968.51V986.55H1448.75ZM1470.86 957.73C1473.8 957.73 1476.4 956.887 1478.67 955.2C1481.02 953.513 1482.85 951.093 1484.17 947.94C1485.49 944.713 1486.15 940.9 1486.15 936.5C1486.15 932.613 1485.68 929.203 1484.72 926.27C1483.77 923.263 1482.27 920.953 1480.21 919.34C1478.16 917.653 1475.45 916.81 1472.07 916.81C1469.87 916.81 1467.6 917.433 1465.25 918.68C1462.91 919.853 1460.41 921.65 1457.77 924.07V952.12C1460.27 954.173 1462.61 955.64 1464.81 956.52C1467.09 957.327 1469.1 957.73 1470.86 957.73ZM1520.58 965.32C1517.65 965.32 1514.97 964.733 1512.55 963.56C1510.21 962.313 1508.34 960.59 1506.94 958.39C1505.55 956.117 1504.85 953.367 1504.85 950.14C1504.85 944.127 1507.49 939.58 1512.77 936.5C1518.05 933.42 1526.41 931.257 1537.85 930.01C1537.78 927.81 1537.41 925.683 1536.75 923.63C1536.17 921.577 1535.07 919.927 1533.45 918.68C1531.84 917.433 1529.6 916.81 1526.74 916.81C1523.66 916.81 1520.77 917.397 1518.05 918.57C1515.34 919.67 1512.92 920.917 1510.79 922.31L1507.27 916.15C1508.89 915.05 1510.79 913.987 1512.99 912.96C1515.19 911.86 1517.58 910.98 1520.14 910.32C1522.71 909.587 1525.42 909.22 1528.28 909.22C1532.61 909.22 1536.13 910.137 1538.84 911.97C1541.63 913.73 1543.65 916.26 1544.89 919.56C1546.21 922.86 1546.87 926.747 1546.87 931.22V964H1539.39L1538.62 957.62H1538.29C1535.73 959.747 1532.98 961.58 1530.04 963.12C1527.11 964.587 1523.96 965.32 1520.58 965.32ZM1523.11 957.84C1525.75 957.84 1528.21 957.253 1530.48 956.08C1532.83 954.907 1535.29 953.183 1537.85 950.91V936.5C1531.84 937.233 1527.07 938.187 1523.55 939.36C1520.11 940.46 1517.61 941.853 1516.07 943.54C1514.53 945.227 1513.76 947.243 1513.76 949.59C1513.76 952.523 1514.68 954.65 1516.51 955.97C1518.35 957.217 1520.55 957.84 1523.11 957.84ZM1585.39 964V956.52H1601.45V904.82H1588.69V898.99C1591.84 898.403 1594.63 897.707 1597.05 896.9C1599.47 896.02 1601.63 894.993 1603.54 893.82H1610.47V956.52H1624.99V964H1585.39ZM1680.67 965.32C1673.93 965.32 1668.54 962.9 1664.5 958.06C1660.54 953.147 1658.56 946.253 1658.56 937.38C1658.56 931.587 1659.63 926.6 1661.75 922.42C1663.95 918.167 1666.81 914.903 1670.33 912.63C1673.85 910.357 1677.67 909.22 1681.77 909.22C1684.93 909.22 1687.6 909.77 1689.8 910.87C1692.08 911.897 1694.39 913.4 1696.73 915.38L1696.29 906.25V885.68H1705.42V964H1697.94L1697.17 957.73H1696.84C1694.79 959.783 1692.37 961.58 1689.58 963.12C1686.8 964.587 1683.83 965.32 1680.67 965.32ZM1682.65 957.73C1685.15 957.73 1687.49 957.107 1689.69 955.86C1691.89 954.613 1694.09 952.78 1696.29 950.36V922.42C1694.09 920.367 1691.93 918.937 1689.8 918.13C1687.68 917.25 1685.51 916.81 1683.31 916.81C1680.45 916.81 1677.85 917.69 1675.5 919.45C1673.23 921.137 1671.4 923.52 1670 926.6C1668.61 929.607 1667.91 933.163 1667.91 937.27C1667.91 943.65 1669.2 948.673 1671.76 952.34C1674.33 955.933 1677.96 957.73 1682.65 957.73ZM1735.75 965.32C1732.82 965.32 1730.14 964.733 1727.72 963.56C1725.37 962.313 1723.5 960.59 1722.11 958.39C1720.72 956.117 1720.02 953.367 1720.02 950.14C1720.02 944.127 1722.66 939.58 1727.94 936.5C1733.22 933.42 1741.58 931.257 1753.02 930.01C1752.95 927.81 1752.58 925.683 1751.92 923.63C1751.33 921.577 1750.23 919.927 1748.62 918.68C1747.01 917.433 1744.77 916.81 1741.91 916.81C1738.83 916.81 1735.93 917.397 1733.22 918.57C1730.51 919.67 1728.09 920.917 1725.96 922.31L1722.44 916.15C1724.05 915.05 1725.96 913.987 1728.16 912.96C1730.36 911.86 1732.74 910.98 1735.31 910.32C1737.88 909.587 1740.59 909.22 1743.45 909.22C1747.78 909.22 1751.3 910.137 1754.01 911.97C1756.8 913.73 1758.81 916.26 1760.06 919.56C1761.38 922.86 1762.04 926.747 1762.04 931.22V964H1754.56L1753.79 957.62H1753.46C1750.89 959.747 1748.14 961.58 1745.21 963.12C1742.28 964.587 1739.12 965.32 1735.75 965.32ZM1738.28 957.84C1740.92 957.84 1743.38 957.253 1745.65 956.08C1748 954.907 1750.45 953.183 1753.02 950.91V936.5C1747.01 937.233 1742.24 938.187 1738.72 939.36C1735.27 940.46 1732.78 941.853 1731.24 943.54C1729.7 945.227 1728.93 947.243 1728.93 949.59C1728.93 952.523 1729.85 954.65 1731.68 955.97C1733.51 957.217 1735.71 957.84 1738.28 957.84ZM1800.88 964V910.54H1808.36L1809.13 918.24H1809.46C1811.81 915.747 1814.34 913.62 1817.05 911.86C1819.84 910.1 1822.84 909.22 1826.07 909.22C1830.18 909.22 1833.37 910.137 1835.64 911.97C1837.99 913.803 1839.71 916.297 1840.81 919.45C1843.6 916.37 1846.42 913.913 1849.28 912.08C1852.14 910.173 1855.18 909.22 1858.41 909.22C1863.98 909.22 1868.09 911.017 1870.73 914.61C1873.37 918.13 1874.69 923.3 1874.69 930.12V964H1865.67V931.33C1865.67 926.27 1864.86 922.64 1863.25 920.44C1861.64 918.167 1859.14 917.03 1855.77 917.03C1853.64 917.03 1851.48 917.727 1849.28 919.12C1847.15 920.44 1844.84 922.493 1842.35 925.28V964H1833.33V931.33C1833.33 926.27 1832.52 922.64 1830.91 920.44C1829.3 918.167 1826.77 917.03 1823.32 917.03C1819.29 917.03 1814.81 919.78 1809.9 925.28V964H1800.88ZM1892.08 964V910.54H1901.1V964H1892.08ZM1896.59 899.54C1894.83 899.54 1893.37 898.99 1892.19 897.89C1891.09 896.79 1890.54 895.36 1890.54 893.6C1890.54 891.84 1891.09 890.41 1892.19 889.31C1893.37 888.21 1894.83 887.66 1896.59 887.66C1898.35 887.66 1899.78 888.21 1900.88 889.31C1902.06 890.41 1902.64 891.84 1902.64 893.6C1902.64 895.36 1902.06 896.79 1900.88 897.89C1899.78 898.99 1898.35 899.54 1896.59 899.54ZM1937.19 988.64C1932.87 988.64 1929.02 988.053 1925.64 986.88C1922.34 985.78 1919.74 984.167 1917.83 982.04C1916 979.913 1915.08 977.31 1915.08 974.23C1915.08 971.957 1915.78 969.757 1917.17 967.63C1918.57 965.577 1920.47 963.743 1922.89 962.13V961.69C1921.57 960.81 1920.44 959.673 1919.48 958.28C1918.6 956.813 1918.16 955.053 1918.16 953C1918.16 950.727 1918.79 948.747 1920.03 947.06C1921.35 945.373 1922.67 944.053 1923.99 943.1V942.66C1922.31 941.193 1920.73 939.213 1919.26 936.72C1917.8 934.227 1917.06 931.403 1917.06 928.25C1917.06 924.363 1917.98 920.99 1919.81 918.13C1921.72 915.27 1924.18 913.07 1927.18 911.53C1930.26 909.99 1933.6 909.22 1937.19 909.22C1938.66 909.22 1940.05 909.367 1941.37 909.66C1942.69 909.88 1943.83 910.173 1944.78 910.54H1963.37V917.47H1952.26V917.91C1953.58 919.083 1954.65 920.55 1955.45 922.31C1956.33 924.07 1956.77 926.16 1956.77 928.58C1956.77 932.393 1955.89 935.693 1954.13 938.48C1952.37 941.193 1950.03 943.32 1947.09 944.86C1944.16 946.327 1940.86 947.06 1937.19 947.06C1935.87 947.06 1934.52 946.913 1933.12 946.62C1931.73 946.253 1930.41 945.777 1929.16 945.19C1928.28 945.997 1927.48 946.877 1926.74 947.83C1926.08 948.783 1925.75 950.03 1925.75 951.57C1925.75 953.257 1926.41 954.65 1927.73 955.75C1929.13 956.85 1931.62 957.4 1935.21 957.4H1945.55C1951.79 957.4 1956.44 958.427 1959.52 960.48C1962.68 962.46 1964.25 965.687 1964.25 970.16C1964.25 973.46 1963.15 976.503 1960.95 979.29C1958.75 982.077 1955.6 984.313 1951.49 986C1947.46 987.76 1942.69 988.64 1937.19 988.64ZM1937.19 941.01C1939.25 941.01 1941.12 940.497 1942.8 939.47C1944.56 938.37 1945.96 936.867 1946.98 934.96C1948.01 933.053 1948.52 930.817 1948.52 928.25C1948.52 924.29 1947.42 921.247 1945.22 919.12C1943.02 916.92 1940.35 915.82 1937.19 915.82C1934.04 915.82 1931.36 916.92 1929.16 919.12C1926.96 921.247 1925.86 924.29 1925.86 928.25C1925.86 930.817 1926.38 933.053 1927.4 934.96C1928.43 936.867 1929.79 938.37 1931.47 939.47C1933.23 940.497 1935.14 941.01 1937.19 941.01ZM1938.51 982.37C1941.89 982.37 1944.82 981.857 1947.31 980.83C1949.88 979.803 1951.86 978.447 1953.25 976.76C1954.72 975.073 1955.45 973.313 1955.45 971.48C1955.45 968.987 1954.5 967.263 1952.59 966.31C1950.76 965.357 1948.12 964.88 1944.67 964.88H1935.43C1934.41 964.88 1933.27 964.807 1932.02 964.66C1930.85 964.513 1929.68 964.293 1928.5 964C1926.52 965.393 1925.09 966.86 1924.21 968.4C1923.41 969.94 1923 971.48 1923 973.02C1923 975.88 1924.36 978.153 1927.07 979.84C1929.86 981.527 1933.67 982.37 1938.51 982.37ZM1974.58 964V910.54H1982.06L1982.83 920.22H1983.16C1984.92 916.847 1987.12 914.17 1989.76 912.19C1992.4 910.21 1995.26 909.22 1998.34 909.22C1999.52 909.22 2000.54 909.293 2001.42 909.44C2002.3 909.587 2003.18 909.88 2004.06 910.32L2002.08 918.02C2001.28 917.8 2000.51 917.653 1999.77 917.58C1999.11 917.433 1998.23 917.36 1997.13 917.36C1994.86 917.36 1992.48 918.277 1989.98 920.11C1987.56 921.943 1985.44 925.133 1983.6 929.68V964H1974.58ZM2022.46 965.32C2019.53 965.32 2016.85 964.733 2014.43 963.56C2012.08 962.313 2010.21 960.59 2008.82 958.39C2007.43 956.117 2006.73 953.367 2006.73 950.14C2006.73 944.127 2009.37 939.58 2014.65 936.5C2019.93 933.42 2028.29 931.257 2039.73 930.01C2039.66 927.81 2039.29 925.683 2038.63 923.63C2038.04 921.577 2036.94 919.927 2035.33 918.68C2033.72 917.433 2031.48 916.81 2028.62 916.81C2025.54 916.81 2022.64 917.397 2019.93 918.57C2017.22 919.67 2014.8 920.917 2012.67 922.31L2009.15 916.15C2010.76 915.05 2012.67 913.987 2014.87 912.96C2017.07 911.86 2019.45 910.98 2022.02 910.32C2024.59 909.587 2027.3 909.22 2030.16 909.22C2034.49 909.22 2038.01 910.137 2040.72 911.97C2043.51 913.73 2045.52 916.26 2046.77 919.56C2048.09 922.86 2048.75 926.747 2048.75 931.22V964H2041.27L2040.5 957.62H2040.17C2037.6 959.747 2034.85 961.58 2031.92 963.12C2028.99 964.587 2025.83 965.32 2022.46 965.32ZM2024.99 957.84C2027.63 957.84 2030.09 957.253 2032.36 956.08C2034.71 954.907 2037.16 953.183 2039.73 950.91V936.5C2033.72 937.233 2028.95 938.187 2025.43 939.36C2021.98 940.46 2019.49 941.853 2017.95 943.54C2016.41 945.227 2015.64 947.243 2015.64 949.59C2015.64 952.523 2016.56 954.65 2018.39 955.97C2020.22 957.217 2022.42 957.84 2024.99 957.84ZM2086.8 965.32C2082.03 965.32 2077.74 964.22 2073.93 962.02C2070.12 959.82 2067.11 956.63 2064.91 952.45C2062.71 948.27 2061.61 943.247 2061.61 937.38C2061.61 931.367 2062.78 926.27 2065.13 922.09C2067.55 917.91 2070.7 914.72 2074.59 912.52C2078.55 910.32 2082.8 909.22 2087.35 909.22C2090.87 909.22 2093.88 909.807 2096.37 910.98C2098.94 912.153 2101.14 913.657 2102.97 915.49L2098.46 921.1C2097.14 919.78 2095.56 918.753 2093.73 918.02C2091.97 917.213 2089.95 916.81 2087.68 916.81C2084.53 916.81 2081.67 917.69 2079.1 919.45C2076.61 921.137 2074.63 923.52 2073.16 926.6C2071.69 929.68 2070.96 933.273 2070.96 937.38C2070.96 941.413 2071.66 944.97 2073.05 948.05C2074.44 951.13 2076.39 953.55 2078.88 955.31C2081.37 956.997 2084.27 957.84 2087.57 957.84C2090.06 957.84 2092.37 957.363 2094.5 956.41C2096.63 955.457 2098.46 954.247 2100 952.78L2103.96 958.28C2101.69 960.407 2099.12 962.13 2096.26 963.45C2093.4 964.697 2090.25 965.32 2086.8 965.32ZM2076.24 988.86L2075.36 984.46C2079.98 984.093 2083.13 983.47 2084.82 982.59C2086.51 981.783 2087.35 980.573 2087.35 978.96C2087.35 977.493 2086.73 976.357 2085.48 975.55C2084.23 974.743 2082.03 974.12 2078.88 973.68L2083.72 963.67H2089.55L2086.36 971.04C2088.93 971.627 2090.91 972.507 2092.3 973.68C2093.69 974.853 2094.39 976.577 2094.39 978.85C2094.39 982.003 2092.81 984.387 2089.66 986C2086.58 987.613 2082.11 988.567 2076.24 988.86ZM2126.98 965.32C2124.05 965.32 2121.37 964.733 2118.95 963.56C2116.6 962.313 2114.73 960.59 2113.34 958.39C2111.95 956.117 2111.25 953.367 2111.25 950.14C2111.25 944.127 2113.89 939.58 2119.17 936.5C2124.45 933.42 2132.81 931.257 2144.25 930.01C2144.18 927.81 2143.81 925.683 2143.15 923.63C2142.56 921.577 2141.46 919.927 2139.85 918.68C2138.24 917.433 2136 916.81 2133.14 916.81C2130.06 916.81 2127.16 917.397 2124.45 918.57C2121.74 919.67 2119.32 920.917 2117.19 922.31L2113.67 916.15C2115.28 915.05 2117.19 913.987 2119.39 912.96C2121.59 911.86 2123.97 910.98 2126.54 910.32C2129.11 909.587 2131.82 909.22 2134.68 909.22C2139.01 909.22 2142.53 910.137 2145.24 911.97C2148.03 913.73 2150.04 916.26 2151.29 919.56C2152.61 922.86 2153.27 926.747 2153.27 931.22V964H2145.79L2145.02 957.62H2144.69C2142.12 959.747 2139.37 961.58 2136.44 963.12C2133.51 964.587 2130.35 965.32 2126.98 965.32ZM2129.51 957.84C2132.15 957.84 2134.61 957.253 2136.88 956.08C2139.23 954.907 2141.68 953.183 2144.25 950.91V936.5C2138.24 937.233 2133.47 938.187 2129.95 939.36C2126.5 940.46 2124.01 941.853 2122.47 943.54C2120.93 945.227 2120.16 947.243 2120.16 949.59C2120.16 952.523 2121.08 954.65 2122.91 955.97C2124.74 957.217 2126.94 957.84 2129.51 957.84ZM2142.93 900.53C2141.02 900.53 2139.34 900.09 2137.87 899.21C2136.48 898.257 2135.19 897.157 2134.02 895.91C2132.85 894.663 2131.71 893.6 2130.61 892.72C2129.58 891.767 2128.45 891.29 2127.2 891.29C2125.59 891.29 2124.38 892.097 2123.57 893.71C2122.76 895.25 2122.25 897.34 2122.03 899.98L2115.98 899.65C2116.05 896.717 2116.49 894.15 2117.3 891.95C2118.11 889.677 2119.28 887.917 2120.82 886.67C2122.43 885.35 2124.52 884.69 2127.09 884.69C2129.07 884.69 2130.76 885.167 2132.15 886.12C2133.54 887 2134.83 888.063 2136 889.31C2137.17 890.557 2138.27 891.657 2139.3 892.61C2140.4 893.49 2141.61 893.93 2142.93 893.93C2144.54 893.93 2145.75 893.123 2146.56 891.51C2147.37 889.897 2147.84 887.807 2147.99 885.24L2154.04 885.68C2153.97 888.467 2153.53 890.997 2152.72 893.27C2151.91 895.47 2150.7 897.23 2149.09 898.55C2147.55 899.87 2145.5 900.53 2142.93 900.53ZM2190.88 965.32C2186.55 965.32 2182.48 964.22 2178.67 962.02C2174.93 959.82 2171.89 956.63 2169.54 952.45C2167.27 948.27 2166.13 943.247 2166.13 937.38C2166.13 931.367 2167.27 926.27 2169.54 922.09C2171.89 917.91 2174.93 914.72 2178.67 912.52C2182.48 910.32 2186.55 909.22 2190.88 909.22C2195.28 909.22 2199.35 910.32 2203.09 912.52C2206.83 914.72 2209.84 917.91 2212.11 922.09C2214.46 926.27 2215.63 931.367 2215.63 937.38C2215.63 943.247 2214.46 948.27 2212.11 952.45C2209.84 956.63 2206.83 959.82 2203.09 962.02C2199.35 964.22 2195.28 965.32 2190.88 965.32ZM2190.88 957.84C2193.96 957.84 2196.67 956.997 2199.02 955.31C2201.37 953.55 2203.16 951.13 2204.41 948.05C2205.66 944.97 2206.28 941.413 2206.28 937.38C2206.28 933.273 2205.66 929.68 2204.41 926.6C2203.16 923.447 2201.37 921.027 2199.02 919.34C2196.67 917.58 2193.96 916.7 2190.88 916.7C2187.8 916.7 2185.09 917.58 2182.74 919.34C2180.47 921.027 2178.67 923.447 2177.35 926.6C2176.1 929.68 2175.48 933.273 2175.48 937.38C2175.48 941.413 2176.1 944.97 2177.35 948.05C2178.67 951.13 2180.47 953.55 2182.74 955.31C2185.09 956.997 2187.8 957.84 2190.88 957.84ZM2234.44 925.61C2232.68 925.61 2231.14 924.987 2229.82 923.74C2228.5 922.42 2227.84 920.77 2227.84 918.79C2227.84 916.663 2228.5 914.977 2229.82 913.73C2231.14 912.41 2232.68 911.75 2234.44 911.75C2236.27 911.75 2237.81 912.41 2239.06 913.73C2240.31 914.977 2240.93 916.663 2240.93 918.79C2240.93 920.77 2240.31 922.42 2239.06 923.74C2237.81 924.987 2236.27 925.61 2234.44 925.61ZM2234.44 965.32C2232.68 965.32 2231.14 964.697 2229.82 963.45C2228.5 962.13 2227.84 960.48 2227.84 958.5C2227.84 956.373 2228.5 954.687 2229.82 953.44C2231.14 952.12 2232.68 951.46 2234.44 951.46C2236.27 951.46 2237.81 952.12 2239.06 953.44C2240.31 954.687 2240.93 956.373 2240.93 958.5C2240.93 960.48 2240.31 962.13 2239.06 963.45C2237.81 964.697 2236.27 965.32 2234.44 965.32ZM2300.79 965.32C2296.03 965.32 2291.66 964.22 2287.7 962.02C2283.82 959.747 2280.74 956.557 2278.46 952.45C2276.19 948.27 2275.05 943.21 2275.05 937.27C2275.05 931.477 2276.23 926.49 2278.57 922.31C2280.92 918.13 2283.93 914.903 2287.59 912.63C2291.26 910.357 2295.15 909.22 2299.25 909.22C2303.8 909.22 2307.65 910.283 2310.8 912.41C2314.03 914.463 2316.45 917.36 2318.06 921.1C2319.68 924.84 2320.48 929.24 2320.48 934.3C2320.48 935.253 2320.45 936.17 2320.37 937.05C2320.37 937.93 2320.26 938.81 2320.04 939.69H2281.54V932.54H2312.34C2312.34 927.407 2311.21 923.483 2308.93 920.77C2306.73 917.983 2303.54 916.59 2299.36 916.59C2296.94 916.59 2294.56 917.287 2292.21 918.68C2289.87 920 2287.92 922.163 2286.38 925.17C2284.92 928.177 2284.18 932.173 2284.18 937.16C2284.18 941.707 2284.95 945.52 2286.49 948.6C2288.11 951.68 2290.27 954.027 2292.98 955.64C2295.7 957.18 2298.67 957.95 2301.89 957.95C2304.46 957.95 2306.84 957.583 2309.04 956.85C2311.32 956.117 2313.37 955.127 2315.2 953.88L2318.5 959.82C2316.16 961.433 2313.52 962.753 2310.58 963.78C2307.72 964.807 2304.46 965.32 2300.79 965.32ZM2343.26 964.99C2340.99 964.99 2339.16 964.55 2337.76 963.67C2336.37 962.717 2335.34 961.36 2334.68 959.6C2334.02 957.767 2333.69 955.567 2333.69 953V885.68H2342.71V953.66C2342.71 955.127 2342.97 956.153 2343.48 956.74C2344 957.253 2344.62 957.51 2345.35 957.51C2345.65 957.51 2345.9 957.51 2346.12 957.51C2346.42 957.437 2346.78 957.363 2347.22 957.29L2348.54 964.11C2347.88 964.33 2347.11 964.513 2346.23 964.66C2345.43 964.88 2344.44 964.99 2343.26 964.99ZM2383.4 965.32C2378.63 965.32 2374.27 964.22 2370.31 962.02C2366.42 959.747 2363.34 956.557 2361.07 952.45C2358.8 948.27 2357.66 943.21 2357.66 937.27C2357.66 931.477 2358.83 926.49 2361.18 922.31C2363.53 918.13 2366.53 914.903 2370.2 912.63C2373.87 910.357 2377.75 909.22 2381.86 909.22C2386.41 909.22 2390.26 910.283 2393.41 912.41C2396.64 914.463 2399.06 917.36 2400.67 921.1C2402.28 924.84 2403.09 929.24 2403.09 934.3C2403.09 935.253 2403.05 936.17 2402.98 937.05C2402.98 937.93 2402.87 938.81 2402.65 939.69H2364.15V932.54H2394.95C2394.95 927.407 2393.81 923.483 2391.54 920.77C2389.34 917.983 2386.15 916.59 2381.97 916.59C2379.55 916.59 2377.17 917.287 2374.82 918.68C2372.47 920 2370.53 922.163 2368.99 925.17C2367.52 928.177 2366.79 932.173 2366.79 937.16C2366.79 941.707 2367.56 945.52 2369.1 948.6C2370.71 951.68 2372.88 954.027 2375.59 955.64C2378.3 957.18 2381.27 957.95 2384.5 957.95C2387.07 957.95 2389.45 957.583 2391.65 956.85C2393.92 956.117 2395.98 955.127 2397.81 953.88L2401.11 959.82C2398.76 961.433 2396.12 962.753 2393.19 963.78C2390.33 964.807 2387.07 965.32 2383.4 965.32ZM2416.3 964V910.54H2423.78L2424.55 918.24H2424.88C2427.23 915.747 2429.76 913.62 2432.47 911.86C2435.26 910.1 2438.26 909.22 2441.49 909.22C2445.6 909.22 2448.79 910.137 2451.06 911.97C2453.41 913.803 2455.13 916.297 2456.23 919.45C2459.02 916.37 2461.84 913.913 2464.7 912.08C2467.56 910.173 2470.6 909.22 2473.83 909.22C2479.4 909.22 2483.51 911.017 2486.15 914.61C2488.79 918.13 2490.11 923.3 2490.11 930.12V964H2481.09V931.33C2481.09 926.27 2480.28 922.64 2478.67 920.44C2477.06 918.167 2474.56 917.03 2471.19 917.03C2469.06 917.03 2466.9 917.727 2464.7 919.12C2462.57 920.44 2460.26 922.493 2457.77 925.28V964H2448.75V931.33C2448.75 926.27 2447.94 922.64 2446.33 920.44C2444.72 918.167 2442.19 917.03 2438.74 917.03C2434.71 917.03 2430.23 919.78 2425.32 925.28V964H2416.3ZM2529.17 965.32C2524.41 965.32 2520.04 964.22 2516.08 962.02C2512.2 959.747 2509.12 956.557 2506.84 952.45C2504.57 948.27 2503.43 943.21 2503.43 937.27C2503.43 931.477 2504.61 926.49 2506.95 922.31C2509.3 918.13 2512.31 914.903 2515.97 912.63C2519.64 910.357 2523.53 909.22 2527.63 909.22C2532.18 909.22 2536.03 910.283 2539.18 912.41C2542.41 914.463 2544.83 917.36 2546.44 921.1C2548.06 924.84 2548.86 929.24 2548.86 934.3C2548.86 935.253 2548.83 936.17 2548.75 937.05C2548.75 937.93 2548.64 938.81 2548.42 939.69H2509.92V932.54H2540.72C2540.72 927.407 2539.59 923.483 2537.31 920.77C2535.11 917.983 2531.92 916.59 2527.74 916.59C2525.32 916.59 2522.94 917.287 2520.59 918.68C2518.25 920 2516.3 922.163 2514.76 925.17C2513.3 928.177 2512.56 932.173 2512.56 937.16C2512.56 941.707 2513.33 945.52 2514.87 948.6C2516.49 951.68 2518.65 954.027 2521.36 955.64C2524.08 957.18 2527.05 957.95 2530.27 957.95C2532.84 957.95 2535.22 957.583 2537.42 956.85C2539.7 956.117 2541.75 955.127 2543.58 953.88L2546.88 959.82C2544.54 961.433 2541.9 962.753 2538.96 963.78C2536.1 964.807 2532.84 965.32 2529.17 965.32ZM2562.07 964V910.54H2569.55L2570.32 918.24H2570.65C2573.22 915.673 2575.93 913.547 2578.79 911.86C2581.65 910.1 2584.92 909.22 2588.58 909.22C2594.23 909.22 2598.34 911.017 2600.9 914.61C2603.54 918.13 2604.86 923.3 2604.86 930.12V964H2595.84V931.33C2595.84 926.27 2595.04 922.64 2593.42 920.44C2591.88 918.167 2589.32 917.03 2585.72 917.03C2583.01 917.03 2580.55 917.727 2578.35 919.12C2576.23 920.513 2573.81 922.567 2571.09 925.28V964H2562.07ZM2639.06 964.99C2633.41 964.99 2629.45 963.34 2627.18 960.04C2624.91 956.74 2623.77 952.45 2623.77 947.17V917.91H2615.85V911.09L2624.21 910.54L2625.31 893.38H2632.9V910.54H2647.42V917.91H2632.9V947.28C2632.9 950.507 2633.49 953.037 2634.66 954.87C2635.91 956.703 2638.07 957.62 2641.15 957.62C2642.1 957.62 2643.09 957.547 2644.12 957.4C2645.15 957.18 2646.17 956.813 2647.2 956.3L2649.18 962.68C2647.79 963.34 2646.21 963.89 2644.45 964.33C2642.69 964.77 2640.89 964.99 2639.06 964.99ZM2678.68 965.32C2674.36 965.32 2670.29 964.22 2666.47 962.02C2662.73 959.82 2659.69 956.63 2657.34 952.45C2655.07 948.27 2653.93 943.247 2653.93 937.38C2653.93 931.367 2655.07 926.27 2657.34 922.09C2659.69 917.91 2662.73 914.72 2666.47 912.52C2670.29 910.32 2674.36 909.22 2678.68 909.22C2683.08 909.22 2687.15 910.32 2690.89 912.52C2694.63 914.72 2697.64 917.91 2699.91 922.09C2702.26 926.27 2703.43 931.367 2703.43 937.38C2703.43 943.247 2702.26 948.27 2699.91 952.45C2697.64 956.63 2694.63 959.82 2690.89 962.02C2687.15 964.22 2683.08 965.32 2678.68 965.32ZM2678.68 957.84C2681.76 957.84 2684.48 956.997 2686.82 955.31C2689.17 953.55 2690.97 951.13 2692.21 948.05C2693.46 944.97 2694.08 941.413 2694.08 937.38C2694.08 933.273 2693.46 929.68 2692.21 926.6C2690.97 923.447 2689.17 921.027 2686.82 919.34C2684.48 917.58 2681.76 916.7 2678.68 916.7C2675.6 916.7 2672.89 917.58 2670.54 919.34C2668.27 921.027 2666.47 923.447 2665.15 926.6C2663.91 929.68 2663.28 933.273 2663.28 937.38C2663.28 941.413 2663.91 944.97 2665.15 948.05C2666.47 951.13 2668.27 953.55 2670.54 955.31C2672.89 956.997 2675.6 957.84 2678.68 957.84ZM2731.27 965.32C2727.38 965.32 2723.68 964.66 2720.16 963.34C2716.71 961.947 2713.78 960.04 2711.36 957.62L2715.54 952.34C2717.88 954.247 2720.3 955.713 2722.8 956.74C2725.36 957.767 2728.3 958.28 2731.6 958.28C2735.12 958.28 2737.76 957.473 2739.52 955.86C2741.28 954.173 2742.16 952.193 2742.16 949.92C2742.16 948.087 2741.53 946.583 2740.29 945.41C2739.11 944.163 2737.61 943.137 2735.78 942.33C2734.02 941.45 2732.11 940.643 2730.06 939.91C2727.42 938.957 2724.89 937.857 2722.47 936.61C2720.05 935.29 2718.07 933.677 2716.53 931.77C2715.06 929.79 2714.33 927.333 2714.33 924.4C2714.33 920.073 2715.94 916.48 2719.17 913.62C2722.47 910.687 2727.01 909.22 2732.81 909.22C2736.11 909.22 2739.19 909.807 2742.05 910.98C2744.91 912.08 2747.36 913.51 2749.42 915.27L2745.24 920.44C2743.33 919.12 2741.39 918.093 2739.41 917.36C2737.43 916.627 2735.23 916.26 2732.81 916.26C2729.43 916.26 2726.94 917.03 2725.33 918.57C2723.79 920.11 2723.02 921.907 2723.02 923.96C2723.02 925.573 2723.49 926.93 2724.45 928.03C2725.4 929.057 2726.72 929.973 2728.41 930.78C2730.17 931.587 2732.15 932.357 2734.35 933.09C2737.13 934.117 2739.77 935.29 2742.27 936.61C2744.83 937.857 2746.89 939.507 2748.43 941.56C2750.04 943.54 2750.85 946.143 2750.85 949.37C2750.85 952.303 2750.08 954.98 2748.54 957.4C2747.07 959.747 2744.87 961.653 2741.94 963.12C2739.08 964.587 2735.52 965.32 2731.27 965.32ZM2806.63 965.32C2801.87 965.32 2797.58 964.22 2793.76 962.02C2789.95 959.82 2786.94 956.63 2784.74 952.45C2782.54 948.27 2781.44 943.247 2781.44 937.38C2781.44 931.367 2782.62 926.27 2784.96 922.09C2787.38 917.91 2790.54 914.72 2794.42 912.52C2798.38 910.32 2802.64 909.22 2807.18 909.22C2810.7 909.22 2813.71 909.807 2816.2 910.98C2818.77 912.153 2820.97 913.657 2822.8 915.49L2818.29 921.1C2816.97 919.78 2815.4 918.753 2813.56 918.02C2811.8 917.213 2809.79 916.81 2807.51 916.81C2804.36 916.81 2801.5 917.69 2798.93 919.45C2796.44 921.137 2794.46 923.52 2792.99 926.6C2791.53 929.68 2790.79 933.273 2790.79 937.38C2790.79 941.413 2791.49 944.97 2792.88 948.05C2794.28 951.13 2796.22 953.55 2798.71 955.31C2801.21 956.997 2804.1 957.84 2807.4 957.84C2809.9 957.84 2812.21 957.363 2814.33 956.41C2816.46 955.457 2818.29 954.247 2819.83 952.78L2823.79 958.28C2821.52 960.407 2818.95 962.13 2816.09 963.45C2813.23 964.697 2810.08 965.32 2806.63 965.32ZM2854.1 965.32C2849.78 965.32 2845.71 964.22 2841.89 962.02C2838.15 959.82 2835.11 956.63 2832.76 952.45C2830.49 948.27 2829.35 943.247 2829.35 937.38C2829.35 931.367 2830.49 926.27 2832.76 922.09C2835.11 917.91 2838.15 914.72 2841.89 912.52C2845.71 910.32 2849.78 909.22 2854.1 909.22C2858.5 909.22 2862.57 910.32 2866.31 912.52C2870.05 914.72 2873.06 917.91 2875.33 922.09C2877.68 926.27 2878.85 931.367 2878.85 937.38C2878.85 943.247 2877.68 948.27 2875.33 952.45C2873.06 956.63 2870.05 959.82 2866.31 962.02C2862.57 964.22 2858.5 965.32 2854.1 965.32ZM2854.1 957.84C2857.18 957.84 2859.9 956.997 2862.24 955.31C2864.59 953.55 2866.39 951.13 2867.63 948.05C2868.88 944.97 2869.5 941.413 2869.5 937.38C2869.5 933.273 2868.88 929.68 2867.63 926.6C2866.39 923.447 2864.59 921.027 2862.24 919.34C2859.9 917.58 2857.18 916.7 2854.1 916.7C2851.02 916.7 2848.31 917.58 2845.96 919.34C2843.69 921.027 2841.89 923.447 2840.57 926.6C2839.33 929.68 2838.7 933.273 2838.7 937.38C2838.7 941.413 2839.33 944.97 2840.57 948.05C2841.89 951.13 2843.69 953.55 2845.96 955.31C2848.31 956.997 2851.02 957.84 2854.1 957.84ZM2892.93 964V910.54H2900.41L2901.18 918.24H2901.51C2903.86 915.747 2906.39 913.62 2909.1 911.86C2911.89 910.1 2914.9 909.22 2918.12 909.22C2922.23 909.22 2925.42 910.137 2927.69 911.97C2930.04 913.803 2931.76 916.297 2932.86 919.45C2935.65 916.37 2938.47 913.913 2941.33 912.08C2944.19 910.173 2947.24 909.22 2950.46 909.22C2956.04 909.22 2960.14 911.017 2962.78 914.61C2965.42 918.13 2966.74 923.3 2966.74 930.12V964H2957.72V931.33C2957.72 926.27 2956.92 922.64 2955.3 920.44C2953.69 918.167 2951.2 917.03 2947.82 917.03C2945.7 917.03 2943.53 917.727 2941.33 919.12C2939.21 920.44 2936.9 922.493 2934.4 925.28V964H2925.38V931.33C2925.38 926.27 2924.58 922.64 2922.96 920.44C2921.35 918.167 2918.82 917.03 2915.37 917.03C2911.34 917.03 2906.87 919.78 2901.95 925.28V964H2892.93ZM3004.92 965.32C3000.6 965.32 2996.53 964.22 2992.71 962.02C2988.97 959.82 2985.93 956.63 2983.58 952.45C2981.31 948.27 2980.17 943.247 2980.17 937.38C2980.17 931.367 2981.31 926.27 2983.58 922.09C2985.93 917.91 2988.97 914.72 2992.71 912.52C2996.53 910.32 3000.6 909.22 3004.92 909.22C3009.32 909.22 3013.39 910.32 3017.13 912.52C3020.87 914.72 3023.88 917.91 3026.15 922.09C3028.5 926.27 3029.67 931.367 3029.67 937.38C3029.67 943.247 3028.5 948.27 3026.15 952.45C3023.88 956.63 3020.87 959.82 3017.13 962.02C3013.39 964.22 3009.32 965.32 3004.92 965.32ZM3004.92 957.84C3008 957.84 3010.72 956.997 3013.06 955.31C3015.41 953.55 3017.21 951.13 3018.45 948.05C3019.7 944.97 3020.32 941.413 3020.32 937.38C3020.32 933.273 3019.7 929.68 3018.45 926.6C3017.21 923.447 3015.41 921.027 3013.06 919.34C3010.72 917.58 3008 916.7 3004.92 916.7C3001.84 916.7 2999.13 917.58 2996.78 919.34C2994.51 921.027 2992.71 923.447 2991.39 926.6C2990.15 929.68 2989.52 933.273 2989.52 937.38C2989.52 941.413 2990.15 944.97 2991.39 948.05C2992.71 951.13 2994.51 953.55 2996.78 955.31C2999.13 956.997 3001.84 957.84 3004.92 957.84ZM3086.56 965.32C3082.24 965.32 3078.17 964.22 3074.35 962.02C3070.61 959.82 3067.57 956.63 3065.22 952.45C3062.95 948.27 3061.81 943.247 3061.81 937.38C3061.81 931.367 3062.95 926.27 3065.22 922.09C3067.57 917.91 3070.61 914.72 3074.35 912.52C3078.17 910.32 3082.24 909.22 3086.56 909.22C3090.96 909.22 3095.03 910.32 3098.77 912.52C3102.51 914.72 3105.52 917.91 3107.79 922.09C3110.14 926.27 3111.31 931.367 3111.31 937.38C3111.31 943.247 3110.14 948.27 3107.79 952.45C3105.52 956.63 3102.51 959.82 3098.77 962.02C3095.03 964.22 3090.96 965.32 3086.56 965.32ZM3086.56 957.84C3089.64 957.84 3092.36 956.997 3094.7 955.31C3097.05 953.55 3098.85 951.13 3100.09 948.05C3101.34 944.97 3101.96 941.413 3101.96 937.38C3101.96 933.273 3101.34 929.68 3100.09 926.6C3098.85 923.447 3097.05 921.027 3094.7 919.34C3092.36 917.58 3089.64 916.7 3086.56 916.7C3083.48 916.7 3080.77 917.58 3078.42 919.34C3076.15 921.027 3074.35 923.447 3073.03 926.6C3071.79 929.68 3071.16 933.273 3071.16 937.38C3071.16 941.413 3071.79 944.97 3073.03 948.05C3074.35 951.13 3076.15 953.55 3078.42 955.31C3080.77 956.997 3083.48 957.84 3086.56 957.84ZM3149.04 965.32C3146.55 965.32 3143.98 964.733 3141.34 963.56C3138.7 962.313 3136.17 960.627 3133.75 958.5H3133.42L3132.65 964H3125.39V885.68H3134.41V907.02L3134.19 916.7C3136.61 914.573 3139.25 912.813 3142.11 911.42C3145.05 909.953 3147.98 909.22 3150.91 909.22C3155.53 909.22 3159.42 910.357 3162.57 912.63C3165.73 914.83 3168.11 917.983 3169.72 922.09C3171.34 926.123 3172.14 930.89 3172.14 936.39C3172.14 942.477 3171.04 947.683 3168.84 952.01C3166.72 956.337 3163.89 959.637 3160.37 961.91C3156.85 964.183 3153.08 965.32 3149.04 965.32ZM3147.5 957.73C3150.44 957.73 3153.04 956.887 3155.31 955.2C3157.66 953.513 3159.49 951.093 3160.81 947.94C3162.13 944.713 3162.79 940.9 3162.79 936.5C3162.79 932.613 3162.32 929.203 3161.36 926.27C3160.41 923.263 3158.91 920.953 3156.85 919.34C3154.8 917.653 3152.09 916.81 3148.71 916.81C3146.51 916.81 3144.2 917.433 3141.78 918.68C3139.44 919.853 3136.98 921.65 3134.41 924.07V952.12C3136.76 954.173 3139.07 955.64 3141.34 956.52C3143.69 957.327 3145.74 957.73 3147.5 957.73ZM3180.69 987.87C3179.15 987.87 3177.69 987.723 3176.29 987.43C3174.9 987.137 3173.73 986.77 3172.77 986.33L3174.64 979.51C3175.3 979.73 3176.11 979.95 3177.06 980.17C3177.94 980.39 3178.82 980.5 3179.7 980.5C3182.34 980.5 3184.1 979.547 3184.98 977.64C3185.86 975.807 3186.3 973.24 3186.3 969.94V910.54H3195.32V970.05C3195.32 973.643 3194.81 976.76 3193.78 979.4C3192.83 982.113 3191.29 984.203 3189.16 985.67C3187.04 987.137 3184.21 987.87 3180.69 987.87ZM3190.7 899.54C3188.94 899.54 3187.48 898.99 3186.3 897.89C3185.2 896.79 3184.65 895.36 3184.65 893.6C3184.65 891.84 3185.2 890.41 3186.3 889.31C3187.48 888.21 3188.94 887.66 3190.7 887.66C3192.46 887.66 3193.89 888.21 3194.99 889.31C3196.17 890.41 3196.75 891.84 3196.75 893.6C3196.75 895.36 3196.17 896.79 3194.99 897.89C3193.89 898.99 3192.46 899.54 3190.7 899.54ZM3235.04 965.32C3230.27 965.32 3225.91 964.22 3221.95 962.02C3218.06 959.747 3214.98 956.557 3212.71 952.45C3210.44 948.27 3209.3 943.21 3209.3 937.27C3209.3 931.477 3210.47 926.49 3212.82 922.31C3215.17 918.13 3218.17 914.903 3221.84 912.63C3225.51 910.357 3229.39 909.22 3233.5 909.22C3238.05 909.22 3241.9 910.283 3245.05 912.41C3248.28 914.463 3250.7 917.36 3252.31 921.1C3253.92 924.84 3254.73 929.24 3254.73 934.3C3254.73 935.253 3254.69 936.17 3254.62 937.05C3254.62 937.93 3254.51 938.81 3254.29 939.69H3215.79V932.54H3246.59C3246.59 927.407 3245.45 923.483 3243.18 920.77C3240.98 917.983 3237.79 916.59 3233.61 916.59C3231.19 916.59 3228.81 917.287 3226.46 918.68C3224.11 920 3222.17 922.163 3220.63 925.17C3219.16 928.177 3218.43 932.173 3218.43 937.16C3218.43 941.707 3219.2 945.52 3220.74 948.6C3222.35 951.68 3224.52 954.027 3227.23 955.64C3229.94 957.18 3232.91 957.95 3236.14 957.95C3238.71 957.95 3241.09 957.583 3243.29 956.85C3245.56 956.117 3247.62 955.127 3249.45 953.88L3252.75 959.82C3250.4 961.433 3247.76 962.753 3244.83 963.78C3241.97 964.807 3238.71 965.32 3235.04 965.32ZM3283.7 964.99C3278.05 964.99 3274.09 963.34 3271.82 960.04C3269.54 956.74 3268.41 952.45 3268.41 947.17V917.91H3260.49V911.09L3268.85 910.54L3269.95 893.38H3277.54V910.54H3292.06V917.91H3277.54V947.28C3277.54 950.507 3278.12 953.037 3279.3 954.87C3280.54 956.703 3282.71 957.62 3285.79 957.62C3286.74 957.62 3287.73 957.547 3288.76 957.4C3289.78 957.18 3290.81 956.813 3291.84 956.3L3293.82 962.68C3292.42 963.34 3290.85 963.89 3289.09 964.33C3287.33 964.77 3285.53 964.99 3283.7 964.99ZM3323.32 965.32C3319 965.32 3314.93 964.22 3311.11 962.02C3307.37 959.82 3304.33 956.63 3301.98 952.45C3299.71 948.27 3298.57 943.247 3298.57 937.38C3298.57 931.367 3299.71 926.27 3301.98 922.09C3304.33 917.91 3307.37 914.72 3311.11 912.52C3314.93 910.32 3319 909.22 3323.32 909.22C3327.72 909.22 3331.79 910.32 3335.53 912.52C3339.27 914.72 3342.28 917.91 3344.55 922.09C3346.9 926.27 3348.07 931.367 3348.07 937.38C3348.07 943.247 3346.9 948.27 3344.55 952.45C3342.28 956.63 3339.27 959.82 3335.53 962.02C3331.79 964.22 3327.72 965.32 3323.32 965.32ZM3323.32 957.84C3326.4 957.84 3329.12 956.997 3331.46 955.31C3333.81 953.55 3335.61 951.13 3336.85 948.05C3338.1 944.97 3338.72 941.413 3338.72 937.38C3338.72 933.273 3338.1 929.68 3336.85 926.6C3335.61 923.447 3333.81 921.027 3331.46 919.34C3329.12 917.58 3326.4 916.7 3323.32 916.7C3320.24 916.7 3317.53 917.58 3315.18 919.34C3312.91 921.027 3311.11 923.447 3309.79 926.6C3308.55 929.68 3307.92 933.273 3307.92 937.38C3307.92 941.413 3308.55 944.97 3309.79 948.05C3311.11 951.13 3312.91 953.55 3315.18 955.31C3317.53 956.997 3320.24 957.84 3323.32 957.84ZM3375.91 965.32C3372.02 965.32 3368.32 964.66 3364.8 963.34C3361.35 961.947 3358.42 960.04 3356 957.62L3360.18 952.34C3362.52 954.247 3364.94 955.713 3367.44 956.74C3370 957.767 3372.94 958.28 3376.24 958.28C3379.76 958.28 3382.4 957.473 3384.16 955.86C3385.92 954.173 3386.8 952.193 3386.8 949.92C3386.8 948.087 3386.17 946.583 3384.93 945.41C3383.75 944.163 3382.25 943.137 3380.42 942.33C3378.66 941.45 3376.75 940.643 3374.7 939.91C3372.06 938.957 3369.53 937.857 3367.11 936.61C3364.69 935.29 3362.71 933.677 3361.17 931.77C3359.7 929.79 3358.97 927.333 3358.97 924.4C3358.97 920.073 3360.58 916.48 3363.81 913.62C3367.11 910.687 3371.65 909.22 3377.45 909.22C3380.75 909.22 3383.83 909.807 3386.69 910.98C3389.55 912.08 3392 913.51 3394.06 915.27L3389.88 920.44C3387.97 919.12 3386.03 918.093 3384.05 917.36C3382.07 916.627 3379.87 916.26 3377.45 916.26C3374.07 916.26 3371.58 917.03 3369.97 918.57C3368.43 920.11 3367.66 921.907 3367.66 923.96C3367.66 925.573 3368.13 926.93 3369.09 928.03C3370.04 929.057 3371.36 929.973 3373.05 930.78C3374.81 931.587 3376.79 932.357 3378.99 933.09C3381.77 934.117 3384.41 935.29 3386.91 936.61C3389.47 937.857 3391.53 939.507 3393.07 941.56C3394.68 943.54 3395.49 946.143 3395.49 949.37C3395.49 952.303 3394.72 954.98 3393.18 957.4C3391.71 959.747 3389.51 961.653 3386.58 963.12C3383.72 964.587 3380.16 965.32 3375.91 965.32Z" fill="black" fill-opacity="0.44"/>
</svg>
