<svg width="3745" height="1780" viewBox="0 0 3745 1780" fill="none" xmlns="http://www.w3.org/2000/svg">
<path d="M2828.4 835.68C2820.56 835.68 2813.37 833.953 2806.84 830.5C2800.4 826.953 2795.22 821.68 2791.3 814.68C2787.38 807.68 2785.42 799.093 2785.42 788.92C2785.42 781.36 2786.54 774.64 2788.78 768.76C2791.11 762.787 2794.29 757.747 2798.3 753.64C2802.31 749.533 2806.89 746.407 2812.02 744.26C2817.25 742.113 2822.75 741.04 2828.54 741.04C2834.42 741.04 2839.69 742.207 2844.36 744.54C2849.03 746.873 2852.9 749.673 2855.98 752.94L2845.06 765.4C2842.82 763.253 2840.39 761.667 2837.78 760.64C2835.17 759.52 2832.23 758.96 2828.96 758.96C2824.95 758.96 2821.21 760.173 2817.76 762.6C2814.4 764.933 2811.69 768.293 2809.64 772.68C2807.59 777.067 2806.56 782.247 2806.56 788.22C2806.56 794.473 2807.54 799.84 2809.5 804.32C2811.46 808.707 2814.17 812.067 2817.62 814.4C2821.17 816.733 2825.23 817.9 2829.8 817.9C2833.35 817.9 2836.52 817.153 2839.32 815.66C2842.12 814.167 2844.59 812.393 2846.74 810.34L2857.1 822.52C2853.18 826.907 2848.84 830.22 2844.08 832.46C2839.32 834.607 2834.09 835.68 2828.4 835.68ZM2899.38 835.68C2893.5 835.68 2888 834.28 2882.86 831.48C2877.73 828.587 2873.53 824.433 2870.26 819.02C2867.09 813.513 2865.5 806.933 2865.5 799.28C2865.5 791.627 2867.09 785.093 2870.26 779.68C2873.53 774.173 2877.73 770.02 2882.86 767.22C2888 764.327 2893.5 762.88 2899.38 762.88C2905.17 762.88 2910.63 764.327 2915.76 767.22C2920.9 770.02 2925.05 774.173 2928.22 779.68C2931.49 785.093 2933.12 791.627 2933.12 799.28C2933.12 806.933 2931.49 813.513 2928.22 819.02C2925.05 824.433 2920.9 828.587 2915.76 831.48C2910.63 834.28 2905.17 835.68 2899.38 835.68ZM2899.38 819.02C2902.18 819.02 2904.52 818.227 2906.38 816.64C2908.34 815.053 2909.79 812.767 2910.72 809.78C2911.66 806.793 2912.12 803.293 2912.12 799.28C2912.12 795.267 2911.66 791.767 2910.72 788.78C2909.79 785.793 2908.34 783.507 2906.38 781.92C2904.52 780.333 2902.18 779.54 2899.38 779.54C2896.49 779.54 2894.11 780.333 2892.24 781.92C2890.38 783.507 2888.98 785.793 2888.04 788.78C2887.11 791.767 2886.64 795.267 2886.64 799.28C2886.64 803.293 2887.11 806.793 2888.04 809.78C2888.98 812.767 2890.38 815.053 2892.24 816.64C2894.11 818.227 2896.49 819.02 2899.38 819.02ZM2972 835.68C2963.41 835.68 2956.51 832.46 2951.28 826.02C2946.15 819.487 2943.58 810.573 2943.58 799.28C2943.58 791.72 2944.93 785.233 2947.64 779.82C2950.44 774.407 2954.03 770.253 2958.42 767.36C2962.9 764.373 2967.57 762.88 2972.42 762.88C2976.25 762.88 2979.47 763.533 2982.08 764.84C2984.69 766.147 2987.17 767.92 2989.5 770.16L2988.66 759.52V735.86H3009.24V834H2992.44L2991.04 827.14H2990.48C2988.05 829.567 2985.21 831.62 2981.94 833.3C2978.67 834.887 2975.36 835.68 2972 835.68ZM2977.32 818.88C2979.56 818.88 2981.61 818.413 2983.48 817.48C2985.35 816.547 2987.07 814.913 2988.66 812.58V784.16C2986.89 782.48 2985.02 781.313 2983.06 780.66C2981.1 780.007 2979.14 779.68 2977.18 779.68C2974.94 779.68 2972.89 780.38 2971.02 781.78C2969.15 783.18 2967.61 785.327 2966.4 788.22C2965.28 791.02 2964.72 794.613 2964.72 799C2964.72 805.813 2965.84 810.853 2968.08 814.12C2970.32 817.293 2973.4 818.88 2977.32 818.88ZM3058.56 835.68C3051.93 835.68 3045.96 834.233 3040.64 831.34C3035.32 828.447 3031.12 824.293 3028.04 818.88C3024.96 813.467 3023.42 806.933 3023.42 799.28C3023.42 791.72 3024.96 785.233 3028.04 779.82C3031.21 774.407 3035.32 770.253 3040.36 767.36C3045.4 764.373 3050.67 762.88 3056.18 762.88C3062.8 762.88 3068.31 764.373 3072.7 767.36C3077.08 770.253 3080.35 774.22 3082.5 779.26C3084.64 784.3 3085.72 789.947 3085.72 796.2C3085.72 797.973 3085.62 799.747 3085.44 801.52C3085.25 803.2 3085.06 804.553 3084.88 805.58H3039.38L3039.1 791.3H3068.08C3068.08 787.66 3067.19 784.673 3065.42 782.34C3063.64 779.913 3060.7 778.7 3056.6 778.7C3054.36 778.7 3052.16 779.307 3050.02 780.52C3047.87 781.733 3046.1 783.833 3044.7 786.82C3043.3 789.807 3042.64 793.96 3042.74 799.28C3042.83 804.507 3043.76 808.613 3045.54 811.6C3047.4 814.587 3049.74 816.733 3052.54 818.04C3055.34 819.253 3058.28 819.86 3061.36 819.86C3064.06 819.86 3066.63 819.487 3069.06 818.74C3071.58 817.9 3074.05 816.78 3076.48 815.38L3083.2 827.98C3079.74 830.407 3075.82 832.32 3071.44 833.72C3067.05 835.027 3062.76 835.68 3058.56 835.68ZM3147.42 834V760.08H3122.36V742.72H3193.2V760.08H3168.14V834H3147.42ZM3224.91 835.68C3219.03 835.68 3213.53 834.28 3208.39 831.48C3203.26 828.587 3199.06 824.433 3195.79 819.02C3192.62 813.513 3191.03 806.933 3191.03 799.28C3191.03 791.627 3192.62 785.093 3195.79 779.68C3199.06 774.173 3203.26 770.02 3208.39 767.22C3213.53 764.327 3219.03 762.88 3224.91 762.88C3230.7 762.88 3236.16 764.327 3241.29 767.22C3246.43 770.02 3250.58 774.173 3253.75 779.68C3257.02 785.093 3258.65 791.627 3258.65 799.28C3258.65 806.933 3257.02 813.513 3253.75 819.02C3250.58 824.433 3246.43 828.587 3241.29 831.48C3236.16 834.28 3230.7 835.68 3224.91 835.68ZM3224.91 819.02C3227.71 819.02 3230.05 818.227 3231.91 816.64C3233.87 815.053 3235.32 812.767 3236.25 809.78C3237.19 806.793 3237.65 803.293 3237.65 799.28C3237.65 795.267 3237.19 791.767 3236.25 788.78C3235.32 785.793 3233.87 783.507 3231.91 781.92C3230.05 780.333 3227.71 779.54 3224.91 779.54C3222.02 779.54 3219.64 780.333 3217.77 781.92C3215.91 783.507 3214.51 785.793 3213.57 788.78C3212.64 791.767 3212.17 795.267 3212.17 799.28C3212.17 803.293 3212.64 806.793 3213.57 809.78C3214.51 812.767 3215.91 815.053 3217.77 816.64C3219.64 818.227 3222.02 819.02 3224.91 819.02ZM3293.61 835.68C3286.05 835.68 3280.54 833.207 3277.09 828.26C3273.73 823.22 3272.05 816.36 3272.05 807.68V764.56H3292.63V805.02C3292.63 810.06 3293.33 813.513 3294.73 815.38C3296.13 817.247 3298.32 818.18 3301.31 818.18C3303.83 818.18 3306.02 817.573 3307.89 816.36C3309.76 815.147 3311.67 813.187 3313.63 810.48V764.56H3334.21V834H3317.41L3315.87 824.34H3315.45C3312.56 827.793 3309.38 830.547 3305.93 832.6C3302.48 834.653 3298.37 835.68 3293.61 835.68ZM3352.32 834V764.56H3369.12L3370.52 776.74H3371.08C3373.6 772.073 3376.59 768.62 3380.04 766.38C3383.59 764.047 3387.18 762.88 3390.82 762.88C3392.78 762.88 3394.41 763.02 3395.72 763.3C3397.03 763.487 3398.15 763.813 3399.08 764.28L3395.16 781.78C3394.04 781.5 3392.97 781.313 3391.94 781.22C3390.91 781.033 3389.65 780.94 3388.16 780.94C3385.55 780.94 3382.79 781.873 3379.9 783.74C3377.1 785.607 3374.77 788.92 3372.9 793.68V834H3352.32Z" fill="black" fill-opacity="0.44"/>
<path d="M1840.95 953V881.06H1863.61C1868.97 881.06 1873.73 881.757 1877.91 883.15C1882.09 884.543 1885.39 886.853 1887.81 890.08C1890.23 893.307 1891.44 897.707 1891.44 903.28C1891.44 908.56 1890.23 912.923 1887.81 916.37C1885.47 919.817 1882.2 922.383 1878.02 924.07C1873.92 925.757 1869.26 926.6 1864.05 926.6H1853.71V953H1840.95ZM1853.71 916.37H1863.06C1868.42 916.37 1872.38 915.27 1874.94 913.07C1877.58 910.87 1878.9 907.607 1878.9 903.28C1878.9 898.733 1877.51 895.617 1874.72 893.93C1872.01 892.17 1867.98 891.29 1862.62 891.29H1853.71V916.37ZM1903.88 953V898.99H1914.33L1915.21 908.56H1915.65C1917.55 905.04 1919.83 902.363 1922.47 900.53C1925.18 898.623 1928 897.67 1930.94 897.67C1932.33 897.67 1933.5 897.743 1934.46 897.89C1935.41 898.037 1936.29 898.33 1937.1 898.77L1934.57 909.55C1933.69 909.33 1932.88 909.183 1932.15 909.11C1931.41 908.963 1930.46 908.89 1929.29 908.89C1927.16 908.89 1924.92 909.733 1922.58 911.42C1920.23 913.033 1918.21 915.893 1916.53 920V953H1903.88ZM1965.95 954.32C1961.47 954.32 1957.29 953.22 1953.41 951.02C1949.52 948.747 1946.37 945.52 1943.95 941.34C1941.53 937.087 1940.32 931.99 1940.32 926.05C1940.32 920.037 1941.53 914.94 1943.95 910.76C1946.37 906.507 1949.52 903.28 1953.41 901.08C1957.29 898.807 1961.47 897.67 1965.95 897.67C1970.49 897.67 1974.71 898.807 1978.6 901.08C1982.48 903.28 1985.64 906.507 1988.06 910.76C1990.48 914.94 1991.69 920.037 1991.69 926.05C1991.69 931.99 1990.48 937.087 1988.06 941.34C1985.64 945.52 1982.48 948.747 1978.6 951.02C1974.71 953.22 1970.49 954.32 1965.95 954.32ZM1965.95 943.98C1968.59 943.98 1970.86 943.247 1972.77 941.78C1974.67 940.313 1976.14 938.223 1977.17 935.51C1978.19 932.797 1978.71 929.643 1978.71 926.05C1978.71 922.457 1978.19 919.303 1977.17 916.59C1976.14 913.877 1974.67 911.787 1972.77 910.32C1970.86 908.78 1968.59 908.01 1965.95 908.01C1963.31 908.01 1961.03 908.78 1959.13 910.32C1957.29 911.787 1955.86 913.877 1954.84 916.59C1953.81 919.303 1953.3 922.457 1953.3 926.05C1953.3 929.643 1953.81 932.797 1954.84 935.51C1955.86 938.223 1957.29 940.313 1959.13 941.78C1961.03 943.247 1963.31 943.98 1965.95 943.98ZM2023.02 976.87C2018.69 976.87 2014.84 976.357 2011.47 975.33C2008.09 974.303 2005.42 972.727 2003.44 970.6C2001.53 968.547 2000.58 965.943 2000.58 962.79C2000.58 960.517 2001.24 958.39 2002.56 956.41C2003.95 954.503 2005.86 952.78 2008.28 951.24V950.8C2006.96 949.92 2005.82 948.747 2004.87 947.28C2003.91 945.813 2003.44 943.98 2003.44 941.78C2003.44 939.727 2004.02 937.82 2005.2 936.06C2006.44 934.3 2007.84 932.87 2009.38 931.77V931.33C2007.54 929.937 2005.89 927.993 2004.43 925.5C2003.03 923.007 2002.34 920.183 2002.34 917.03C2002.34 912.923 2003.33 909.44 2005.31 906.58C2007.29 903.647 2009.89 901.447 2013.12 899.98C2016.34 898.44 2019.86 897.67 2023.68 897.67C2025.14 897.67 2026.57 897.78 2027.97 898C2029.36 898.22 2030.57 898.55 2031.6 898.99H2050.96V908.34H2040.84V908.78C2041.86 909.88 2042.67 911.163 2043.26 912.63C2043.84 914.023 2044.14 915.673 2044.14 917.58C2044.14 921.54 2043.22 924.877 2041.39 927.59C2039.55 930.303 2037.1 932.357 2034.02 933.75C2030.94 935.143 2027.49 935.84 2023.68 935.84C2022.5 935.84 2021.29 935.73 2020.05 935.51C2018.8 935.29 2017.55 934.923 2016.31 934.41C2015.57 935.143 2014.95 935.877 2014.44 936.61C2013.92 937.343 2013.67 938.333 2013.67 939.58C2013.67 941.12 2014.33 942.33 2015.65 943.21C2016.97 944.09 2019.24 944.53 2022.47 944.53H2032.04C2038.56 944.53 2043.48 945.593 2046.78 947.72C2050.15 949.773 2051.84 953.147 2051.84 957.84C2051.84 961.36 2050.66 964.55 2048.32 967.41C2045.97 970.343 2042.63 972.653 2038.31 974.34C2033.98 976.027 2028.88 976.87 2023.02 976.87ZM2023.68 927.92C2025.36 927.92 2026.9 927.517 2028.3 926.71C2029.76 925.83 2030.9 924.583 2031.71 922.97C2032.59 921.283 2033.03 919.303 2033.03 917.03C2033.03 913.583 2032.11 910.943 2030.28 909.11C2028.52 907.277 2026.32 906.36 2023.68 906.36C2021.04 906.36 2018.8 907.277 2016.97 909.11C2015.13 910.943 2014.22 913.583 2014.22 917.03C2014.22 919.303 2014.66 921.283 2015.54 922.97C2016.42 924.583 2017.55 925.83 2018.95 926.71C2020.34 927.517 2021.92 927.92 2023.68 927.92ZM2025 968.62C2027.86 968.62 2030.39 968.217 2032.59 967.41C2034.79 966.677 2036.51 965.613 2037.76 964.22C2039 962.9 2039.63 961.47 2039.63 959.93C2039.63 957.803 2038.78 956.373 2037.1 955.64C2035.48 954.907 2033.14 954.54 2030.06 954.54H2022.69C2021.22 954.54 2019.9 954.467 2018.73 954.32C2017.55 954.173 2016.42 953.99 2015.32 953.77C2013.92 954.87 2012.86 956.007 2012.13 957.18C2011.47 958.353 2011.14 959.6 2011.14 960.92C2011.14 963.34 2012.38 965.21 2014.88 966.53C2017.37 967.923 2020.74 968.62 2025 968.62ZM2061.36 953V898.99H2071.81L2072.69 908.56H2073.13C2075.03 905.04 2077.31 902.363 2079.95 900.53C2082.66 898.623 2085.48 897.67 2088.42 897.67C2089.81 897.67 2090.98 897.743 2091.94 897.89C2092.89 898.037 2093.77 898.33 2094.58 898.77L2092.05 909.55C2091.17 909.33 2090.36 909.183 2089.63 909.11C2088.89 908.963 2087.94 908.89 2086.77 908.89C2084.64 908.89 2082.4 909.733 2080.06 911.42C2077.71 913.033 2075.69 915.893 2074.01 920V953H2061.36ZM2112.69 954.32C2109.54 954.32 2106.75 953.66 2104.33 952.34C2101.91 951.02 2100 949.187 2098.61 946.84C2097.29 944.42 2096.63 941.633 2096.63 938.48C2096.63 932.393 2099.16 927.81 2104.22 924.73C2109.35 921.577 2117.46 919.413 2128.53 918.24C2128.46 916.407 2128.09 914.72 2127.43 913.18C2126.84 911.64 2125.82 910.43 2124.35 909.55C2122.96 908.597 2121.05 908.12 2118.63 908.12C2115.99 908.12 2113.39 908.597 2110.82 909.55C2108.33 910.503 2105.87 911.713 2103.45 913.18L2098.83 904.6C2100.81 903.353 2102.97 902.217 2105.32 901.19C2107.67 900.09 2110.16 899.247 2112.8 898.66C2115.44 898 2118.19 897.67 2121.05 897.67C2125.52 897.67 2129.23 898.587 2132.16 900.42C2135.17 902.18 2137.4 904.82 2138.87 908.34C2140.41 911.787 2141.18 916.04 2141.18 921.1V953H2130.73L2129.85 947.06H2129.41C2126.92 949.113 2124.31 950.837 2121.6 952.23C2118.89 953.623 2115.92 954.32 2112.69 954.32ZM2116.65 943.98C2118.85 943.98 2120.87 943.54 2122.7 942.66C2124.61 941.707 2126.55 940.313 2128.53 938.48V927.04C2123.62 927.627 2119.73 928.397 2116.87 929.35C2114.01 930.303 2111.96 931.477 2110.71 932.87C2109.54 934.19 2108.95 935.767 2108.95 937.6C2108.95 939.873 2109.68 941.523 2111.15 942.55C2112.62 943.503 2114.45 943.98 2116.65 943.98ZM2156.32 953V898.99H2166.77L2167.65 906.36H2168.09C2170.36 903.94 2172.82 901.887 2175.46 900.2C2178.17 898.513 2181.21 897.67 2184.59 897.67C2188.62 897.67 2191.81 898.513 2194.16 900.2C2196.5 901.887 2198.3 904.27 2199.55 907.35C2202.11 904.563 2204.79 902.253 2207.58 900.42C2210.36 898.587 2213.48 897.67 2216.93 897.67C2222.65 897.67 2226.86 899.54 2229.58 903.28C2232.29 907.02 2233.65 912.3 2233.65 919.12V953H2220.89V920.77C2220.89 916.297 2220.23 913.143 2218.91 911.31C2217.59 909.477 2215.5 908.56 2212.64 908.56C2210.88 908.56 2209.08 909.11 2207.25 910.21C2205.41 911.31 2203.43 912.997 2201.31 915.27V953H2188.66V920.77C2188.66 916.297 2187.96 913.143 2186.57 911.31C2185.25 909.477 2183.16 908.56 2180.3 908.56C2176.92 908.56 2173.15 910.797 2168.97 915.27V953H2156.32ZM2262.11 954.32C2258.96 954.32 2256.17 953.66 2253.75 952.34C2251.33 951.02 2249.43 949.187 2248.03 946.84C2246.71 944.42 2246.05 941.633 2246.05 938.48C2246.05 932.393 2248.58 927.81 2253.64 924.73C2258.78 921.577 2266.88 919.413 2277.95 918.24C2277.88 916.407 2277.51 914.72 2276.85 913.18C2276.27 911.64 2275.24 910.43 2273.77 909.55C2272.38 908.597 2270.47 908.12 2268.05 908.12C2265.41 908.12 2262.81 908.597 2260.24 909.55C2257.75 910.503 2255.29 911.713 2252.87 913.18L2248.25 904.6C2250.23 903.353 2252.4 902.217 2254.74 901.19C2257.09 900.09 2259.58 899.247 2262.22 898.66C2264.86 898 2267.61 897.67 2270.47 897.67C2274.95 897.67 2278.65 898.587 2281.58 900.42C2284.59 902.18 2286.83 904.82 2288.29 908.34C2289.83 911.787 2290.6 916.04 2290.6 921.1V953H2280.15L2279.27 947.06H2278.83C2276.34 949.113 2273.74 950.837 2271.02 952.23C2268.31 953.623 2265.34 954.32 2262.11 954.32ZM2266.07 943.98C2268.27 943.98 2270.29 943.54 2272.12 942.66C2274.03 941.707 2275.97 940.313 2277.95 938.48V927.04C2273.04 927.627 2269.15 928.397 2266.29 929.35C2263.43 930.303 2261.38 931.477 2260.13 932.87C2258.96 934.19 2258.37 935.767 2258.37 937.6C2258.37 939.873 2259.11 941.523 2260.57 942.55C2262.04 943.503 2263.87 943.98 2266.07 943.98ZM2328.51 954.32C2323.52 954.32 2319.05 953.22 2315.09 951.02C2311.13 948.747 2307.98 945.52 2305.63 941.34C2303.36 937.087 2302.22 931.99 2302.22 926.05C2302.22 920.037 2303.47 914.94 2305.96 910.76C2308.45 906.507 2311.75 903.28 2315.86 901.08C2320.04 898.807 2324.51 897.67 2329.28 897.67C2332.73 897.67 2335.73 898.257 2338.3 899.43C2340.94 900.53 2343.21 901.96 2345.12 903.72L2339.07 911.64C2337.9 910.54 2336.54 909.66 2335 909C2333.53 908.34 2331.85 908.01 2329.94 908.01C2327.08 908.01 2324.55 908.78 2322.35 910.32C2320.15 911.787 2318.39 913.877 2317.07 916.59C2315.82 919.23 2315.2 922.383 2315.2 926.05C2315.2 929.643 2315.82 932.797 2317.07 935.51C2318.32 938.15 2320 940.24 2322.13 941.78C2324.33 943.247 2326.86 943.98 2329.72 943.98C2331.85 943.98 2333.83 943.577 2335.66 942.77C2337.57 941.963 2339.25 940.937 2340.72 939.69L2345.89 947.5C2343.62 949.553 2340.98 951.203 2337.97 952.45C2335.04 953.697 2331.88 954.32 2328.51 954.32ZM2316.41 978.63L2315.31 973.13C2319.78 972.837 2322.83 972.287 2324.44 971.48C2326.13 970.673 2326.97 969.5 2326.97 967.96C2326.97 966.64 2326.35 965.577 2325.1 964.77C2323.93 964.037 2321.73 963.45 2318.5 963.01L2323.56 952.67H2331.26L2328.07 959.82C2330.71 960.48 2332.73 961.397 2334.12 962.57C2335.59 963.817 2336.32 965.577 2336.32 967.85C2336.32 971.297 2334.56 973.863 2331.04 975.55C2327.59 977.31 2322.72 978.337 2316.41 978.63ZM2368.57 954.32C2365.41 954.32 2362.63 953.66 2360.21 952.34C2357.79 951.02 2355.88 949.187 2354.49 946.84C2353.17 944.42 2352.51 941.633 2352.51 938.48C2352.51 932.393 2355.04 927.81 2360.1 924.73C2365.23 921.577 2373.33 919.413 2384.41 918.24C2384.33 916.407 2383.97 914.72 2383.31 913.18C2382.72 911.64 2381.69 910.43 2380.23 909.55C2378.83 908.597 2376.93 908.12 2374.51 908.12C2371.87 908.12 2369.26 908.597 2366.7 909.55C2364.2 910.503 2361.75 911.713 2359.33 913.18L2354.71 904.6C2356.69 903.353 2358.85 902.217 2361.2 901.19C2363.54 900.09 2366.04 899.247 2368.68 898.66C2371.32 898 2374.07 897.67 2376.93 897.67C2381.4 897.67 2385.1 898.587 2388.04 900.42C2391.04 902.18 2393.28 904.82 2394.75 908.34C2396.29 911.787 2397.06 916.04 2397.06 921.1V953H2386.61L2385.73 947.06H2385.29C2382.79 949.113 2380.19 950.837 2377.48 952.23C2374.76 953.623 2371.79 954.32 2368.57 954.32ZM2372.53 943.98C2374.73 943.98 2376.74 943.54 2378.58 942.66C2380.48 941.707 2382.43 940.313 2384.41 938.48V927.04C2379.49 927.627 2375.61 928.397 2372.75 929.35C2369.89 930.303 2367.83 931.477 2366.59 932.87C2365.41 934.19 2364.83 935.767 2364.83 937.6C2364.83 939.873 2365.56 941.523 2367.03 942.55C2368.49 943.503 2370.33 943.98 2372.53 943.98ZM2384.96 889.75C2383.12 889.75 2381.51 889.347 2380.12 888.54C2378.72 887.733 2377.44 886.78 2376.27 885.68C2375.17 884.58 2374.1 883.627 2373.08 882.82C2372.12 882.013 2371.1 881.61 2370 881.61C2368.6 881.61 2367.54 882.233 2366.81 883.48C2366.15 884.727 2365.71 886.56 2365.49 888.98L2357.35 888.54C2357.49 885.167 2358.04 882.307 2359 879.96C2359.95 877.613 2361.31 875.817 2363.07 874.57C2364.83 873.323 2367.06 872.7 2369.78 872.7C2371.68 872.7 2373.3 873.103 2374.62 873.91C2376.01 874.717 2377.26 875.67 2378.36 876.77C2379.53 877.797 2380.63 878.75 2381.66 879.63C2382.68 880.437 2383.75 880.84 2384.85 880.84C2386.17 880.84 2387.16 880.217 2387.82 878.97C2388.55 877.65 2389.03 875.817 2389.25 873.47L2397.39 873.91C2397.24 877.21 2396.69 880.033 2395.74 882.38C2394.86 884.727 2393.5 886.56 2391.67 887.88C2389.91 889.127 2387.67 889.75 2384.96 889.75ZM2434.31 954.32C2429.83 954.32 2425.65 953.22 2421.77 951.02C2417.88 948.747 2414.73 945.52 2412.31 941.34C2409.89 937.087 2408.68 931.99 2408.68 926.05C2408.68 920.037 2409.89 914.94 2412.31 910.76C2414.73 906.507 2417.88 903.28 2421.77 901.08C2425.65 898.807 2429.83 897.67 2434.31 897.67C2438.85 897.67 2443.07 898.807 2446.96 901.08C2450.84 903.28 2454 906.507 2456.42 910.76C2458.84 914.94 2460.05 920.037 2460.05 926.05C2460.05 931.99 2458.84 937.087 2456.42 941.34C2454 945.52 2450.84 948.747 2446.96 951.02C2443.07 953.22 2438.85 954.32 2434.31 954.32ZM2434.31 943.98C2436.95 943.98 2439.22 943.247 2441.13 941.78C2443.03 940.313 2444.5 938.223 2445.53 935.51C2446.55 932.797 2447.07 929.643 2447.07 926.05C2447.07 922.457 2446.55 919.303 2445.53 916.59C2444.5 913.877 2443.03 911.787 2441.13 910.32C2439.22 908.78 2436.95 908.01 2434.31 908.01C2431.67 908.01 2429.39 908.78 2427.49 910.32C2425.65 911.787 2424.22 913.877 2423.2 916.59C2422.17 919.303 2421.66 922.457 2421.66 926.05C2421.66 929.643 2422.17 932.797 2423.2 935.51C2424.22 938.223 2425.65 940.313 2427.49 941.78C2429.39 943.247 2431.67 943.98 2434.31 943.98ZM2516.7 954.32C2512.23 954.32 2508.05 953.22 2504.16 951.02C2500.27 948.747 2497.12 945.52 2494.7 941.34C2492.28 937.087 2491.07 931.99 2491.07 926.05C2491.07 920.037 2492.28 914.94 2494.7 910.76C2497.12 906.507 2500.27 903.28 2504.16 901.08C2508.05 898.807 2512.23 897.67 2516.7 897.67C2521.25 897.67 2525.46 898.807 2529.35 901.08C2533.24 903.28 2536.39 906.507 2538.81 910.76C2541.23 914.94 2542.44 920.037 2542.44 926.05C2542.44 931.99 2541.23 937.087 2538.81 941.34C2536.39 945.52 2533.24 948.747 2529.35 951.02C2525.46 953.22 2521.25 954.32 2516.7 954.32ZM2516.7 943.98C2519.34 943.98 2521.61 943.247 2523.52 941.78C2525.43 940.313 2526.89 938.223 2527.92 935.51C2528.95 932.797 2529.46 929.643 2529.46 926.05C2529.46 922.457 2528.95 919.303 2527.92 916.59C2526.89 913.877 2525.43 911.787 2523.52 910.32C2521.61 908.78 2519.34 908.01 2516.7 908.01C2514.06 908.01 2511.79 908.78 2509.88 910.32C2508.05 911.787 2506.62 913.877 2505.59 916.59C2504.56 919.303 2504.05 922.457 2504.05 926.05C2504.05 929.643 2504.56 932.797 2505.59 935.51C2506.62 938.223 2508.05 940.313 2509.88 941.78C2511.79 943.247 2514.06 943.98 2516.7 943.98ZM2554.96 953V898.99H2565.41L2566.29 908.56H2566.73C2568.64 905.04 2570.91 902.363 2573.55 900.53C2576.26 898.623 2579.09 897.67 2582.02 897.67C2583.41 897.67 2584.59 897.743 2585.54 897.89C2586.49 898.037 2587.37 898.33 2588.18 898.77L2585.65 909.55C2584.77 909.33 2583.96 909.183 2583.23 909.11C2582.5 908.963 2581.54 908.89 2580.37 908.89C2578.24 908.89 2576.01 909.733 2573.66 911.42C2571.31 913.033 2569.3 915.893 2567.61 920V953H2554.96ZM2595.99 953V898.99H2608.64V953H2595.99ZM2602.26 889.53C2600.06 889.53 2598.23 888.87 2596.76 887.55C2595.37 886.23 2594.67 884.47 2594.67 882.27C2594.67 880.07 2595.37 878.347 2596.76 877.1C2598.23 875.78 2600.06 875.12 2602.26 875.12C2604.54 875.12 2606.37 875.78 2607.76 877.1C2609.16 878.347 2609.85 880.07 2609.85 882.27C2609.85 884.47 2609.16 886.23 2607.76 887.55C2606.37 888.87 2604.54 889.53 2602.26 889.53ZM2647.99 954.32C2642.93 954.32 2638.35 953.22 2634.24 951.02C2630.21 948.747 2627.02 945.52 2624.67 941.34C2622.33 937.087 2621.15 931.953 2621.15 925.94C2621.15 920.073 2622.36 915.05 2624.78 910.87C2627.2 906.617 2630.32 903.353 2634.13 901.08C2637.95 898.807 2641.98 897.67 2646.23 897.67C2651.15 897.67 2655.25 898.77 2658.55 900.97C2661.85 903.17 2664.31 906.213 2665.92 910.1C2667.61 913.913 2668.45 918.313 2668.45 923.3C2668.45 924.473 2668.38 925.61 2668.23 926.71C2668.16 927.81 2668.01 928.873 2667.79 929.9H2630.61V920.22H2657.23C2657.23 916.333 2656.35 913.29 2654.59 911.09C2652.83 908.817 2650.12 907.68 2646.45 907.68C2644.4 907.68 2642.38 908.23 2640.4 909.33C2638.5 910.43 2636.88 912.3 2635.56 914.94C2634.32 917.58 2633.69 921.247 2633.69 925.94C2633.69 930.193 2634.43 933.677 2635.89 936.39C2637.36 939.03 2639.3 941.01 2641.72 942.33C2644.14 943.577 2646.75 944.2 2649.53 944.2C2651.88 944.2 2654.08 943.87 2656.13 943.21C2658.26 942.55 2660.24 941.633 2662.07 940.46L2666.47 948.6C2663.98 950.36 2661.12 951.753 2657.89 952.78C2654.74 953.807 2651.44 954.32 2647.99 954.32ZM2680.54 953V898.99H2690.99L2691.87 906.25H2692.31C2694.73 903.903 2697.37 901.887 2700.23 900.2C2703.09 898.513 2706.35 897.67 2710.02 897.67C2715.81 897.67 2720.03 899.54 2722.67 903.28C2725.31 907.02 2726.63 912.3 2726.63 919.12V953H2713.98V920.77C2713.98 916.297 2713.32 913.143 2712 911.31C2710.68 909.477 2708.51 908.56 2705.51 908.56C2703.16 908.56 2701.07 909.147 2699.24 910.32C2697.48 911.42 2695.46 913.07 2693.19 915.27V953H2680.54ZM2761.12 954.1C2754.89 954.1 2750.45 952.303 2747.81 948.71C2745.24 945.043 2743.96 940.313 2743.96 934.52V909H2736.26V899.54L2744.62 898.99L2746.16 882.05H2756.72V898.99H2770.47V909H2756.72V934.52C2756.72 937.673 2757.34 940.057 2758.59 941.67C2759.84 943.21 2761.74 943.98 2764.31 943.98C2765.26 943.98 2766.22 943.907 2767.17 943.76C2768.12 943.613 2769.04 943.32 2769.92 942.88L2772.23 951.79C2770.84 952.45 2769.19 953 2767.28 953.44C2765.37 953.88 2763.32 954.1 2761.12 954.1ZM2792.56 954.32C2789.41 954.32 2786.62 953.66 2784.2 952.34C2781.78 951.02 2779.87 949.187 2778.48 946.84C2777.16 944.42 2776.5 941.633 2776.5 938.48C2776.5 932.393 2779.03 927.81 2784.09 924.73C2789.22 921.577 2797.33 919.413 2808.4 918.24C2808.33 916.407 2807.96 914.72 2807.3 913.18C2806.71 911.64 2805.69 910.43 2804.22 909.55C2802.83 908.597 2800.92 908.12 2798.5 908.12C2795.86 908.12 2793.26 908.597 2790.69 909.55C2788.2 910.503 2785.74 911.713 2783.32 913.18L2778.7 904.6C2780.68 903.353 2782.84 902.217 2785.19 901.19C2787.54 900.09 2790.03 899.247 2792.67 898.66C2795.31 898 2798.06 897.67 2800.92 897.67C2805.39 897.67 2809.1 898.587 2812.03 900.42C2815.04 902.18 2817.27 904.82 2818.74 908.34C2820.28 911.787 2821.05 916.04 2821.05 921.1V953H2810.6L2809.72 947.06H2809.28C2806.79 949.113 2804.18 950.837 2801.47 952.23C2798.76 953.623 2795.79 954.32 2792.56 954.32ZM2796.52 943.98C2798.72 943.98 2800.74 943.54 2802.57 942.66C2804.48 941.707 2806.42 940.313 2808.4 938.48V927.04C2803.49 927.627 2799.6 928.397 2796.74 929.35C2793.88 930.303 2791.83 931.477 2790.58 932.87C2789.41 934.19 2788.82 935.767 2788.82 937.6C2788.82 939.873 2789.55 941.523 2791.02 942.55C2792.49 943.503 2794.32 943.98 2796.52 943.98ZM2855.11 954.32C2848.36 954.32 2842.97 951.827 2838.94 946.84C2834.91 941.853 2832.89 934.923 2832.89 926.05C2832.89 920.183 2833.95 915.123 2836.08 910.87C2838.28 906.617 2841.1 903.353 2844.55 901.08C2848.07 898.807 2851.81 897.67 2855.77 897.67C2858.85 897.67 2861.45 898.183 2863.58 899.21C2865.78 900.237 2867.91 901.703 2869.96 903.61L2869.52 894.92V875.34H2882.17V953H2871.72L2870.84 947.17H2870.4C2868.42 949.15 2866.11 950.837 2863.47 952.23C2860.83 953.623 2858.04 954.32 2855.11 954.32ZM2858.19 943.87C2860.32 943.87 2862.3 943.393 2864.13 942.44C2865.96 941.413 2867.76 939.873 2869.52 937.82V912.63C2867.69 910.943 2865.85 909.77 2864.02 909.11C2862.19 908.45 2860.35 908.12 2858.52 908.12C2856.17 908.12 2854.05 908.817 2852.14 910.21C2850.31 911.603 2848.8 913.62 2847.63 916.26C2846.53 918.9 2845.98 922.127 2845.98 925.94C2845.98 931.733 2847.04 936.17 2849.17 939.25C2851.3 942.33 2854.3 943.87 2858.19 943.87ZM2911.37 954.32C2908.22 954.32 2905.43 953.66 2903.01 952.34C2900.59 951.02 2898.68 949.187 2897.29 946.84C2895.97 944.42 2895.31 941.633 2895.31 938.48C2895.31 932.393 2897.84 927.81 2902.9 924.73C2908.03 921.577 2916.14 919.413 2927.21 918.24C2927.14 916.407 2926.77 914.72 2926.11 913.18C2925.52 911.64 2924.5 910.43 2923.03 909.55C2921.64 908.597 2919.73 908.12 2917.31 908.12C2914.67 908.12 2912.07 908.597 2909.5 909.55C2907.01 910.503 2904.55 911.713 2902.13 913.18L2897.51 904.6C2899.49 903.353 2901.65 902.217 2904 901.19C2906.35 900.09 2908.84 899.247 2911.48 898.66C2914.12 898 2916.87 897.67 2919.73 897.67C2924.2 897.67 2927.91 898.587 2930.84 900.42C2933.85 902.18 2936.08 904.82 2937.55 908.34C2939.09 911.787 2939.86 916.04 2939.86 921.1V953H2929.41L2928.53 947.06H2928.09C2925.6 949.113 2922.99 950.837 2920.28 952.23C2917.57 953.623 2914.6 954.32 2911.37 954.32ZM2915.33 943.98C2917.53 943.98 2919.55 943.54 2921.38 942.66C2923.29 941.707 2925.23 940.313 2927.21 938.48V927.04C2922.3 927.627 2918.41 928.397 2915.55 929.35C2912.69 930.303 2910.64 931.477 2909.39 932.87C2908.22 934.19 2907.63 935.767 2907.63 937.6C2907.63 939.873 2908.36 941.523 2909.83 942.55C2911.3 943.503 2913.13 943.98 2915.33 943.98ZM2990.11 954.32C2986.96 954.32 2984.17 953.66 2981.75 952.34C2979.33 951.02 2977.42 949.187 2976.03 946.84C2974.71 944.42 2974.05 941.633 2974.05 938.48C2974.05 932.393 2976.58 927.81 2981.64 924.73C2986.77 921.577 2994.88 919.413 3005.95 918.24C3005.88 916.407 3005.51 914.72 3004.85 913.18C3004.26 911.64 3003.24 910.43 3001.77 909.55C3000.38 908.597 2998.47 908.12 2996.05 908.12C2993.41 908.12 2990.81 908.597 2988.24 909.55C2985.75 910.503 2983.29 911.713 2980.87 913.18L2976.25 904.6C2978.23 903.353 2980.39 902.217 2982.74 901.19C2985.09 900.09 2987.58 899.247 2990.22 898.66C2992.86 898 2995.61 897.67 2998.47 897.67C3002.94 897.67 3006.65 898.587 3009.58 900.42C3012.59 902.18 3014.82 904.82 3016.29 908.34C3017.83 911.787 3018.6 916.04 3018.6 921.1V953H3008.15L3007.27 947.06H3006.83C3004.34 949.113 3001.73 950.837 2999.02 952.23C2996.31 953.623 2993.34 954.32 2990.11 954.32ZM2994.07 943.98C2996.27 943.98 2998.29 943.54 3000.12 942.66C3002.03 941.707 3003.97 940.313 3005.95 938.48V927.04C3001.04 927.627 2997.15 928.397 2994.29 929.35C2991.43 930.303 2989.38 931.477 2988.13 932.87C2986.96 934.19 2986.37 935.767 2986.37 937.6C2986.37 939.873 2987.1 941.523 2988.57 942.55C2990.04 943.503 2991.87 943.98 2994.07 943.98ZM3077.87 954.32C3073.4 954.32 3069.22 953.22 3065.33 951.02C3061.44 948.747 3058.29 945.52 3055.87 941.34C3053.45 937.087 3052.24 931.99 3052.24 926.05C3052.24 920.037 3053.45 914.94 3055.87 910.76C3058.29 906.507 3061.44 903.28 3065.33 901.08C3069.22 898.807 3073.4 897.67 3077.87 897.67C3082.42 897.67 3086.63 898.807 3090.52 901.08C3094.41 903.28 3097.56 906.507 3099.98 910.76C3102.4 914.94 3103.61 920.037 3103.61 926.05C3103.61 931.99 3102.4 937.087 3099.98 941.34C3097.56 945.52 3094.41 948.747 3090.52 951.02C3086.63 953.22 3082.42 954.32 3077.87 954.32ZM3077.87 943.98C3080.51 943.98 3082.78 943.247 3084.69 941.78C3086.6 940.313 3088.06 938.223 3089.09 935.51C3090.12 932.797 3090.63 929.643 3090.63 926.05C3090.63 922.457 3090.12 919.303 3089.09 916.59C3088.06 913.877 3086.6 911.787 3084.69 910.32C3082.78 908.78 3080.51 908.01 3077.87 908.01C3075.23 908.01 3072.96 908.78 3071.05 910.32C3069.22 911.787 3067.79 913.877 3066.76 916.59C3065.73 919.303 3065.22 922.457 3065.22 926.05C3065.22 929.643 3065.73 932.797 3066.76 935.51C3067.79 938.223 3069.22 940.313 3071.05 941.78C3072.96 943.247 3075.23 943.98 3077.87 943.98ZM3142.31 954.32C3139.89 954.32 3137.4 953.733 3134.83 952.56C3132.34 951.313 3129.92 949.553 3127.57 947.28H3127.24L3126.14 953H3116.13V875.34H3128.78V895.36L3128.45 904.38C3130.72 902.4 3133.18 900.787 3135.82 899.54C3138.53 898.293 3141.28 897.67 3144.07 897.67C3148.54 897.67 3152.36 898.807 3155.51 901.08C3158.74 903.353 3161.19 906.543 3162.88 910.65C3164.57 914.683 3165.41 919.487 3165.41 925.06C3165.41 931.22 3164.31 936.5 3162.11 940.9C3159.91 945.227 3157.05 948.563 3153.53 950.91C3150.08 953.183 3146.34 954.32 3142.31 954.32ZM3139.67 943.87C3142.09 943.87 3144.25 943.173 3146.16 941.78C3148.07 940.387 3149.57 938.333 3150.67 935.62C3151.77 932.833 3152.32 929.387 3152.32 925.28C3152.32 921.687 3151.92 918.607 3151.11 916.04C3150.3 913.473 3149.02 911.53 3147.26 910.21C3145.57 908.817 3143.37 908.12 3140.66 908.12C3138.68 908.12 3136.74 908.633 3134.83 909.66C3132.92 910.613 3130.91 912.117 3128.78 914.17V939.36C3130.69 940.973 3132.59 942.147 3134.5 942.88C3136.41 943.54 3138.13 943.87 3139.67 943.87ZM3173.82 975.66C3171.92 975.66 3170.23 975.513 3168.76 975.22C3167.3 974.927 3166.05 974.56 3165.02 974.12L3167.44 964.77C3168.18 964.99 3168.95 965.173 3169.75 965.32C3170.56 965.54 3171.33 965.65 3172.06 965.65C3174.48 965.65 3176.1 964.807 3176.9 963.12C3177.78 961.507 3178.22 959.123 3178.22 955.97V898.99H3190.98V955.75C3190.98 959.563 3190.43 962.973 3189.33 965.98C3188.23 968.987 3186.44 971.333 3183.94 973.02C3181.45 974.78 3178.08 975.66 3173.82 975.66ZM3184.6 889.53C3182.4 889.53 3180.57 888.87 3179.1 887.55C3177.71 886.23 3177.01 884.47 3177.01 882.27C3177.01 880.07 3177.71 878.347 3179.1 877.1C3180.57 875.78 3182.4 875.12 3184.6 875.12C3186.88 875.12 3188.71 875.78 3190.1 877.1C3191.5 878.347 3192.19 880.07 3192.19 882.27C3192.19 884.47 3191.5 886.23 3190.1 887.55C3188.71 888.87 3186.88 889.53 3184.6 889.53ZM3230.22 954.32C3225.16 954.32 3220.58 953.22 3216.47 951.02C3212.44 948.747 3209.25 945.52 3206.9 941.34C3204.55 937.087 3203.38 931.953 3203.38 925.94C3203.38 920.073 3204.59 915.05 3207.01 910.87C3209.43 906.617 3212.55 903.353 3216.36 901.08C3220.17 898.807 3224.21 897.67 3228.46 897.67C3233.37 897.67 3237.48 898.77 3240.78 900.97C3244.08 903.17 3246.54 906.213 3248.15 910.1C3249.84 913.913 3250.68 918.313 3250.68 923.3C3250.68 924.473 3250.61 925.61 3250.46 926.71C3250.39 927.81 3250.24 928.873 3250.02 929.9H3212.84V920.22H3239.46C3239.46 916.333 3238.58 913.29 3236.82 911.09C3235.06 908.817 3232.35 907.68 3228.68 907.68C3226.63 907.68 3224.61 908.23 3222.63 909.33C3220.72 910.43 3219.11 912.3 3217.79 914.94C3216.54 917.58 3215.92 921.247 3215.92 925.94C3215.92 930.193 3216.65 933.677 3218.12 936.39C3219.59 939.03 3221.53 941.01 3223.95 942.33C3226.37 943.577 3228.97 944.2 3231.76 944.2C3234.11 944.2 3236.31 943.87 3238.36 943.21C3240.49 942.55 3242.47 941.633 3244.3 940.46L3248.7 948.6C3246.21 950.36 3243.35 951.753 3240.12 952.78C3236.97 953.807 3233.67 954.32 3230.22 954.32ZM3280.72 954.1C3274.48 954.1 3270.05 952.303 3267.41 948.71C3264.84 945.043 3263.56 940.313 3263.56 934.52V909H3255.86V899.54L3264.22 898.99L3265.76 882.05H3276.32V898.99H3290.07V909H3276.32V934.52C3276.32 937.673 3276.94 940.057 3278.19 941.67C3279.43 943.21 3281.34 943.98 3283.91 943.98C3284.86 943.98 3285.81 943.907 3286.77 943.76C3287.72 943.613 3288.64 943.32 3289.52 942.88L3291.83 951.79C3290.43 952.45 3288.78 953 3286.88 953.44C3284.97 953.88 3282.92 954.1 3280.72 954.1ZM3321.83 954.32C3317.35 954.32 3313.17 953.22 3309.29 951.02C3305.4 948.747 3302.25 945.52 3299.83 941.34C3297.41 937.087 3296.2 931.99 3296.2 926.05C3296.2 920.037 3297.41 914.94 3299.83 910.76C3302.25 906.507 3305.4 903.28 3309.29 901.08C3313.17 898.807 3317.35 897.67 3321.83 897.67C3326.37 897.67 3330.59 898.807 3334.48 901.08C3338.36 903.28 3341.52 906.507 3343.94 910.76C3346.36 914.94 3347.57 920.037 3347.57 926.05C3347.57 931.99 3346.36 937.087 3343.94 941.34C3341.52 945.52 3338.36 948.747 3334.48 951.02C3330.59 953.22 3326.37 954.32 3321.83 954.32ZM3321.83 943.98C3324.47 943.98 3326.74 943.247 3328.65 941.78C3330.55 940.313 3332.02 938.223 3333.05 935.51C3334.07 932.797 3334.59 929.643 3334.59 926.05C3334.59 922.457 3334.07 919.303 3333.05 916.59C3332.02 913.877 3330.55 911.787 3328.65 910.32C3326.74 908.78 3324.47 908.01 3321.83 908.01C3319.19 908.01 3316.91 908.78 3315.01 910.32C3313.17 911.787 3311.74 913.877 3310.72 916.59C3309.69 919.303 3309.18 922.457 3309.18 926.05C3309.18 929.643 3309.69 932.797 3310.72 935.51C3311.74 938.223 3313.17 940.313 3315.01 941.78C3316.91 943.247 3319.19 943.98 3321.83 943.98ZM3374.73 954.32C3370.99 954.32 3367.28 953.623 3363.62 952.23C3360.02 950.837 3356.91 948.893 3354.27 946.4L3359.88 939.14C3362.3 941.12 3364.75 942.55 3367.25 943.43C3369.74 944.31 3372.38 944.75 3375.17 944.75C3378.1 944.75 3380.26 944.127 3381.66 942.88C3383.05 941.633 3383.75 940.093 3383.75 938.26C3383.75 936.793 3383.2 935.547 3382.1 934.52C3381.07 933.493 3379.71 932.613 3378.03 931.88C3376.34 931.147 3374.47 930.413 3372.42 929.68C3369.78 928.727 3367.32 927.59 3365.05 926.27C3362.77 924.877 3360.9 923.19 3359.44 921.21C3358.04 919.157 3357.35 916.7 3357.35 913.84C3357.35 909.073 3359.11 905.187 3362.63 902.18C3366.15 899.173 3370.91 897.67 3376.93 897.67C3380.59 897.67 3383.97 898.293 3387.05 899.54C3390.13 900.713 3392.77 902.253 3394.97 904.16L3389.36 911.31C3387.45 909.917 3385.51 908.89 3383.53 908.23C3381.55 907.57 3379.46 907.24 3377.26 907.24C3374.54 907.24 3372.53 907.827 3371.21 909C3369.89 910.173 3369.23 911.567 3369.23 913.18C3369.23 914.5 3369.63 915.637 3370.44 916.59C3371.32 917.47 3372.56 918.277 3374.18 919.01C3375.79 919.67 3377.73 920.367 3380.01 921.1C3382.79 922.053 3385.4 923.227 3387.82 924.62C3390.24 925.94 3392.14 927.663 3393.54 929.79C3395 931.843 3395.74 934.447 3395.74 937.6C3395.74 940.68 3394.93 943.503 3393.32 946.07C3391.7 948.563 3389.32 950.58 3386.17 952.12C3383.09 953.587 3379.27 954.32 3374.73 954.32ZM2452.91 1074.32C2447.92 1074.32 2443.45 1073.22 2439.49 1071.02C2435.53 1068.75 2432.37 1065.52 2430.03 1061.34C2427.75 1057.09 2426.62 1051.99 2426.62 1046.05C2426.62 1040.04 2427.86 1034.94 2430.36 1030.76C2432.85 1026.51 2436.15 1023.28 2440.26 1021.08C2444.44 1018.81 2448.91 1017.67 2453.68 1017.67C2457.12 1017.67 2460.13 1018.26 2462.7 1019.43C2465.34 1020.53 2467.61 1021.96 2469.52 1023.72L2463.47 1031.64C2462.29 1030.54 2460.94 1029.66 2459.4 1029C2457.93 1028.34 2456.24 1028.01 2454.34 1028.01C2451.48 1028.01 2448.95 1028.78 2446.75 1030.32C2444.55 1031.79 2442.79 1033.88 2441.47 1036.59C2440.22 1039.23 2439.6 1042.38 2439.6 1046.05C2439.6 1049.64 2440.22 1052.8 2441.47 1055.51C2442.71 1058.15 2444.4 1060.24 2446.53 1061.78C2448.73 1063.25 2451.26 1063.98 2454.12 1063.98C2456.24 1063.98 2458.22 1063.58 2460.06 1062.77C2461.96 1061.96 2463.65 1060.94 2465.12 1059.69L2470.29 1067.5C2468.01 1069.55 2465.37 1071.2 2462.37 1072.45C2459.43 1073.7 2456.28 1074.32 2452.91 1074.32ZM2500.37 1074.32C2495.9 1074.32 2491.72 1073.22 2487.83 1071.02C2483.94 1068.75 2480.79 1065.52 2478.37 1061.34C2475.95 1057.09 2474.74 1051.99 2474.74 1046.05C2474.74 1040.04 2475.95 1034.94 2478.37 1030.76C2480.79 1026.51 2483.94 1023.28 2487.83 1021.08C2491.72 1018.81 2495.9 1017.67 2500.37 1017.67C2504.92 1017.67 2509.13 1018.81 2513.02 1021.08C2516.91 1023.28 2520.06 1026.51 2522.48 1030.76C2524.9 1034.94 2526.11 1040.04 2526.11 1046.05C2526.11 1051.99 2524.9 1057.09 2522.48 1061.34C2520.06 1065.52 2516.91 1068.75 2513.02 1071.02C2509.13 1073.22 2504.92 1074.32 2500.37 1074.32ZM2500.37 1063.98C2503.01 1063.98 2505.28 1063.25 2507.19 1061.78C2509.1 1060.31 2510.56 1058.22 2511.59 1055.51C2512.62 1052.8 2513.13 1049.64 2513.13 1046.05C2513.13 1042.46 2512.62 1039.3 2511.59 1036.59C2510.56 1033.88 2509.1 1031.79 2507.19 1030.32C2505.28 1028.78 2503.01 1028.01 2500.37 1028.01C2497.73 1028.01 2495.46 1028.78 2493.55 1030.32C2491.72 1031.79 2490.29 1033.88 2489.26 1036.59C2488.23 1039.3 2487.72 1042.46 2487.72 1046.05C2487.72 1049.64 2488.23 1052.8 2489.26 1055.51C2490.29 1058.22 2491.72 1060.31 2493.55 1061.78C2495.46 1063.25 2497.73 1063.98 2500.37 1063.98ZM2538.63 1073V1018.99H2549.08L2549.96 1026.36H2550.4C2552.67 1023.94 2555.13 1021.89 2557.77 1020.2C2560.48 1018.51 2563.53 1017.67 2566.9 1017.67C2570.93 1017.67 2574.12 1018.51 2576.47 1020.2C2578.82 1021.89 2580.61 1024.27 2581.86 1027.35C2584.43 1024.56 2587.1 1022.25 2589.89 1020.42C2592.68 1018.59 2595.79 1017.67 2599.24 1017.67C2604.96 1017.67 2609.18 1019.54 2611.89 1023.28C2614.6 1027.02 2615.96 1032.3 2615.96 1039.12V1073H2603.2V1040.77C2603.2 1036.3 2602.54 1033.14 2601.22 1031.31C2599.9 1029.48 2597.81 1028.56 2594.95 1028.56C2593.19 1028.56 2591.39 1029.11 2589.56 1030.21C2587.73 1031.31 2585.75 1033 2583.62 1035.27V1073H2570.97V1040.77C2570.97 1036.3 2570.27 1033.14 2568.88 1031.31C2567.56 1029.48 2565.47 1028.56 2562.61 1028.56C2559.24 1028.56 2555.46 1030.8 2551.28 1035.27V1073H2538.63ZM2649.07 1095.66C2647.16 1095.66 2645.47 1095.51 2644.01 1095.22C2642.54 1094.93 2641.29 1094.56 2640.27 1094.12L2642.69 1084.77C2643.42 1084.99 2644.19 1085.17 2645 1085.32C2645.8 1085.54 2646.57 1085.65 2647.31 1085.65C2649.73 1085.65 2651.34 1084.81 2652.15 1083.12C2653.03 1081.51 2653.47 1079.12 2653.47 1075.97V1018.99H2666.23V1075.75C2666.23 1079.56 2665.68 1082.97 2664.58 1085.98C2663.48 1088.99 2661.68 1091.33 2659.19 1093.02C2656.69 1094.78 2653.32 1095.66 2649.07 1095.66ZM2659.85 1009.53C2657.65 1009.53 2655.81 1008.87 2654.35 1007.55C2652.95 1006.23 2652.26 1004.47 2652.26 1002.27C2652.26 1000.07 2652.95 998.347 2654.35 997.1C2655.81 995.78 2657.65 995.12 2659.85 995.12C2662.12 995.12 2663.95 995.78 2665.35 997.1C2666.74 998.347 2667.44 1000.07 2667.44 1002.27C2667.44 1004.47 2666.74 1006.23 2665.35 1007.55C2663.95 1008.87 2662.12 1009.53 2659.85 1009.53ZM2695.34 1074.32C2692.19 1074.32 2689.4 1073.66 2686.98 1072.34C2684.56 1071.02 2682.66 1069.19 2681.26 1066.84C2679.94 1064.42 2679.28 1061.63 2679.28 1058.48C2679.28 1052.39 2681.81 1047.81 2686.87 1044.73C2692.01 1041.58 2700.11 1039.41 2711.18 1038.24C2711.11 1036.41 2710.74 1034.72 2710.08 1033.18C2709.5 1031.64 2708.47 1030.43 2707 1029.55C2705.61 1028.6 2703.7 1028.12 2701.28 1028.12C2698.64 1028.12 2696.04 1028.6 2693.47 1029.55C2690.98 1030.5 2688.52 1031.71 2686.1 1033.18L2681.48 1024.6C2683.46 1023.35 2685.63 1022.22 2687.97 1021.19C2690.32 1020.09 2692.81 1019.25 2695.45 1018.66C2698.09 1018 2700.84 1017.67 2703.7 1017.67C2708.18 1017.67 2711.88 1018.59 2714.81 1020.42C2717.82 1022.18 2720.06 1024.82 2721.52 1028.34C2723.06 1031.79 2723.83 1036.04 2723.83 1041.1V1073H2713.38L2712.5 1067.06H2712.06C2709.57 1069.11 2706.97 1070.84 2704.25 1072.23C2701.54 1073.62 2698.57 1074.32 2695.34 1074.32ZM2699.3 1063.98C2701.5 1063.98 2703.52 1063.54 2705.35 1062.66C2707.26 1061.71 2709.2 1060.31 2711.18 1058.48V1047.04C2706.27 1047.63 2702.38 1048.4 2699.52 1049.35C2696.66 1050.3 2694.61 1051.48 2693.36 1052.87C2692.19 1054.19 2691.6 1055.77 2691.6 1057.6C2691.6 1059.87 2692.34 1061.52 2693.8 1062.55C2695.27 1063.5 2697.1 1063.98 2699.3 1063.98ZM2751.07 1073L2732.26 1018.99H2745.13L2753.71 1047.04C2754.45 1049.61 2755.18 1052.28 2755.91 1055.07C2756.72 1057.78 2757.49 1060.53 2758.22 1063.32H2758.66C2759.47 1060.53 2760.24 1057.78 2760.97 1055.07C2761.78 1052.28 2762.55 1049.61 2763.28 1047.04L2771.86 1018.99H2784.07L2765.7 1073H2751.07ZM2804.38 1074.32C2801.22 1074.32 2798.44 1073.66 2796.02 1072.34C2793.6 1071.02 2791.69 1069.19 2790.3 1066.84C2788.98 1064.42 2788.32 1061.63 2788.32 1058.48C2788.32 1052.39 2790.85 1047.81 2795.91 1044.73C2801.04 1041.58 2809.14 1039.41 2820.22 1038.24C2820.14 1036.41 2819.78 1034.72 2819.12 1033.18C2818.53 1031.64 2817.5 1030.43 2816.04 1029.55C2814.64 1028.6 2812.74 1028.12 2810.32 1028.12C2807.68 1028.12 2805.07 1028.6 2802.51 1029.55C2800.01 1030.5 2797.56 1031.71 2795.14 1033.18L2790.52 1024.6C2792.5 1023.35 2794.66 1022.22 2797.01 1021.19C2799.35 1020.09 2801.85 1019.25 2804.49 1018.66C2807.13 1018 2809.88 1017.67 2812.74 1017.67C2817.21 1017.67 2820.91 1018.59 2823.85 1020.42C2826.85 1022.18 2829.09 1024.82 2830.56 1028.34C2832.1 1031.79 2832.87 1036.04 2832.87 1041.1V1073H2822.42L2821.54 1067.06H2821.1C2818.6 1069.11 2816 1070.84 2813.29 1072.23C2810.57 1073.62 2807.6 1074.32 2804.38 1074.32ZM2808.34 1063.98C2810.54 1063.98 2812.55 1063.54 2814.39 1062.66C2816.29 1061.71 2818.24 1060.31 2820.22 1058.48V1047.04C2815.3 1047.63 2811.42 1048.4 2808.56 1049.35C2805.7 1050.3 2803.64 1051.48 2802.4 1052.87C2801.22 1054.19 2800.64 1055.77 2800.64 1057.6C2800.64 1059.87 2801.37 1061.52 2802.84 1062.55C2804.3 1063.5 2806.14 1063.98 2808.34 1063.98ZM2863.08 1074.32C2859.34 1074.32 2855.63 1073.62 2851.97 1072.23C2848.37 1070.84 2845.26 1068.89 2842.62 1066.4L2848.23 1059.14C2850.65 1061.12 2853.1 1062.55 2855.6 1063.43C2858.09 1064.31 2860.73 1064.75 2863.52 1064.75C2866.45 1064.75 2868.61 1064.13 2870.01 1062.88C2871.4 1061.63 2872.1 1060.09 2872.1 1058.26C2872.1 1056.79 2871.55 1055.55 2870.45 1054.52C2869.42 1053.49 2868.06 1052.61 2866.38 1051.88C2864.69 1051.15 2862.82 1050.41 2860.77 1049.68C2858.13 1048.73 2855.67 1047.59 2853.4 1046.27C2851.12 1044.88 2849.25 1043.19 2847.79 1041.21C2846.39 1039.16 2845.7 1036.7 2845.7 1033.84C2845.7 1029.07 2847.46 1025.19 2850.98 1022.18C2854.5 1019.17 2859.26 1017.67 2865.28 1017.67C2868.94 1017.67 2872.32 1018.29 2875.4 1019.54C2878.48 1020.71 2881.12 1022.25 2883.32 1024.16L2877.71 1031.31C2875.8 1029.92 2873.86 1028.89 2871.88 1028.23C2869.9 1027.57 2867.81 1027.24 2865.61 1027.24C2862.89 1027.24 2860.88 1027.83 2859.56 1029C2858.24 1030.17 2857.58 1031.57 2857.58 1033.18C2857.58 1034.5 2857.98 1035.64 2858.79 1036.59C2859.67 1037.47 2860.91 1038.28 2862.53 1039.01C2864.14 1039.67 2866.08 1040.37 2868.36 1041.1C2871.14 1042.05 2873.75 1043.23 2876.17 1044.62C2878.59 1045.94 2880.49 1047.66 2881.89 1049.79C2883.35 1051.84 2884.09 1054.45 2884.09 1057.6C2884.09 1060.68 2883.28 1063.5 2881.67 1066.07C2880.05 1068.56 2877.67 1070.58 2874.52 1072.12C2871.44 1073.59 2867.62 1074.32 2863.08 1074.32ZM2918.15 1074.32C2913.16 1074.32 2908.69 1073.22 2904.73 1071.02C2900.77 1068.75 2897.62 1065.52 2895.27 1061.34C2893 1057.09 2891.86 1051.99 2891.86 1046.05C2891.86 1040.04 2893.11 1034.94 2895.6 1030.76C2898.09 1026.51 2901.39 1023.28 2905.5 1021.08C2909.68 1018.81 2914.15 1017.67 2918.92 1017.67C2922.37 1017.67 2925.37 1018.26 2927.94 1019.43C2930.58 1020.53 2932.85 1021.96 2934.76 1023.72L2928.71 1031.64C2927.54 1030.54 2926.18 1029.66 2924.64 1029C2923.17 1028.34 2921.49 1028.01 2919.58 1028.01C2916.72 1028.01 2914.19 1028.78 2911.99 1030.32C2909.79 1031.79 2908.03 1033.88 2906.71 1036.59C2905.46 1039.23 2904.84 1042.38 2904.84 1046.05C2904.84 1049.64 2905.46 1052.8 2906.71 1055.51C2907.96 1058.15 2909.64 1060.24 2911.77 1061.78C2913.97 1063.25 2916.5 1063.98 2919.36 1063.98C2921.49 1063.98 2923.47 1063.58 2925.3 1062.77C2927.21 1061.96 2928.89 1060.94 2930.36 1059.69L2935.53 1067.5C2933.26 1069.55 2930.62 1071.2 2927.61 1072.45C2924.68 1073.7 2921.52 1074.32 2918.15 1074.32ZM2946.19 1073V1018.99H2956.64L2957.52 1028.56H2957.96C2959.87 1025.04 2962.14 1022.36 2964.78 1020.53C2967.49 1018.62 2970.32 1017.67 2973.25 1017.67C2974.64 1017.67 2975.82 1017.74 2976.77 1017.89C2977.72 1018.04 2978.6 1018.33 2979.41 1018.77L2976.88 1029.55C2976 1029.33 2975.19 1029.18 2974.46 1029.11C2973.73 1028.96 2972.77 1028.89 2971.6 1028.89C2969.47 1028.89 2967.24 1029.73 2964.89 1031.42C2962.54 1033.03 2960.53 1035.89 2958.84 1040V1073H2946.19ZM2987.23 1073V1018.99H2999.88V1073H2987.23ZM2993.5 1009.53C2991.3 1009.53 2989.46 1008.87 2988 1007.55C2986.6 1006.23 2985.91 1004.47 2985.91 1002.27C2985.91 1000.07 2986.6 998.347 2988 997.1C2989.46 995.78 2991.3 995.12 2993.5 995.12C2995.77 995.12 2997.6 995.78 2999 997.1C3000.39 998.347 3001.09 1000.07 3001.09 1002.27C3001.09 1004.47 3000.39 1006.23 2999 1007.55C2997.6 1008.87 2995.77 1009.53 2993.5 1009.53ZM3016.01 1094.34V1018.99H3026.46L3027.34 1024.71H3027.78C3030.06 1022.73 3032.59 1021.08 3035.37 1019.76C3038.16 1018.37 3041.06 1017.67 3044.06 1017.67C3048.54 1017.67 3052.35 1018.81 3055.5 1021.08C3058.66 1023.35 3061.08 1026.54 3062.76 1030.65C3064.45 1034.76 3065.29 1039.6 3065.29 1045.17C3065.29 1051.33 3064.19 1056.57 3061.99 1060.9C3059.79 1065.23 3056.93 1068.56 3053.41 1070.91C3049.97 1073.18 3046.23 1074.32 3042.19 1074.32C3039.85 1074.32 3037.5 1073.81 3035.15 1072.78C3032.81 1071.75 3030.53 1070.29 3028.33 1068.38L3028.66 1077.4V1094.34H3016.01ZM3039.55 1063.87C3041.97 1063.87 3044.14 1063.17 3046.04 1061.78C3047.95 1060.39 3049.45 1058.33 3050.55 1055.62C3051.65 1052.83 3052.2 1049.39 3052.2 1045.28C3052.2 1041.69 3051.8 1038.61 3050.99 1036.04C3050.19 1033.47 3048.9 1031.53 3047.14 1030.21C3045.46 1028.82 3043.26 1028.12 3040.54 1028.12C3038.56 1028.12 3036.62 1028.63 3034.71 1029.66C3032.81 1030.61 3030.79 1032.12 3028.66 1034.17V1059.36C3030.64 1060.97 3032.55 1062.15 3034.38 1062.88C3036.29 1063.54 3038.01 1063.87 3039.55 1063.87ZM3094.77 1074.1C3088.54 1074.1 3084.1 1072.3 3081.46 1068.71C3078.89 1065.04 3077.61 1060.31 3077.61 1054.52V1029H3069.91V1019.54L3078.27 1018.99L3079.81 1002.05H3090.37V1018.99H3104.12V1029H3090.37V1054.52C3090.37 1057.67 3090.99 1060.06 3092.24 1061.67C3093.49 1063.21 3095.39 1063.98 3097.96 1063.98C3098.91 1063.98 3099.87 1063.91 3100.82 1063.76C3101.77 1063.61 3102.69 1063.32 3103.57 1062.88L3105.88 1071.79C3104.49 1072.45 3102.84 1073 3100.93 1073.44C3099.02 1073.88 3096.97 1074.1 3094.77 1074.1ZM3152.47 1092.58C3147.92 1085.1 3144.37 1077.29 3141.8 1069.15C3139.23 1061.01 3137.95 1052.1 3137.95 1042.42C3137.95 1032.74 3139.23 1023.83 3141.8 1015.69C3144.37 1007.55 3147.92 999.74 3152.47 992.26L3160.39 995.78C3156.21 1002.75 3153.13 1010.26 3151.15 1018.33C3149.24 1026.32 3148.29 1034.35 3148.29 1042.42C3148.29 1050.49 3149.24 1058.52 3151.15 1066.51C3153.13 1074.5 3156.21 1082.02 3160.39 1089.06L3152.47 1092.58ZM3196.38 1074.32C3191.32 1074.32 3186.74 1073.22 3182.63 1071.02C3178.6 1068.75 3175.41 1065.52 3173.06 1061.34C3170.72 1057.09 3169.54 1051.95 3169.54 1045.94C3169.54 1040.07 3170.75 1035.05 3173.17 1030.87C3175.59 1026.62 3178.71 1023.35 3182.52 1021.08C3186.34 1018.81 3190.37 1017.67 3194.62 1017.67C3199.54 1017.67 3203.64 1018.77 3206.94 1020.97C3210.24 1023.17 3212.7 1026.21 3214.31 1030.1C3216 1033.91 3216.84 1038.31 3216.84 1043.3C3216.84 1044.47 3216.77 1045.61 3216.62 1046.71C3216.55 1047.81 3216.4 1048.87 3216.18 1049.9H3179V1040.22H3205.62C3205.62 1036.33 3204.74 1033.29 3202.98 1031.09C3201.22 1028.82 3198.51 1027.68 3194.84 1027.68C3192.79 1027.68 3190.77 1028.23 3188.79 1029.33C3186.89 1030.43 3185.27 1032.3 3183.95 1034.94C3182.71 1037.58 3182.08 1041.25 3182.08 1045.94C3182.08 1050.19 3182.82 1053.68 3184.28 1056.39C3185.75 1059.03 3187.69 1061.01 3190.11 1062.33C3192.53 1063.58 3195.14 1064.2 3197.92 1064.2C3200.27 1064.2 3202.47 1063.87 3204.52 1063.21C3206.65 1062.55 3208.63 1061.63 3210.46 1060.46L3214.86 1068.6C3212.37 1070.36 3209.51 1071.75 3206.28 1072.78C3203.13 1073.81 3199.83 1074.32 3196.38 1074.32ZM3252.05 1073V1001.06H3274.71C3280.06 1001.06 3284.83 1001.76 3289.01 1003.15C3293.19 1004.54 3296.49 1006.85 3298.91 1010.08C3301.33 1013.31 3302.54 1017.71 3302.54 1023.28C3302.54 1028.56 3301.33 1032.92 3298.91 1036.37C3296.56 1039.82 3293.3 1042.38 3289.12 1044.07C3285.01 1045.76 3280.35 1046.6 3275.15 1046.6H3264.81V1073H3252.05ZM3264.81 1036.37H3274.16C3279.51 1036.37 3283.47 1035.27 3286.04 1033.07C3288.68 1030.87 3290 1027.61 3290 1023.28C3290 1018.73 3288.6 1015.62 3285.82 1013.93C3283.1 1012.17 3279.07 1011.29 3273.72 1011.29H3264.81V1036.37ZM3333.45 1074.32C3329.64 1074.32 3326.26 1073.88 3323.33 1073C3320.4 1072.12 3317.79 1070.95 3315.52 1069.48C3313.25 1067.94 3311.27 1066.33 3309.58 1064.64L3315.41 1056.5C3317.54 1058.48 3319.92 1060.24 3322.56 1061.78C3325.2 1063.25 3328.28 1063.98 3331.8 1063.98C3334.44 1063.98 3336.75 1063.47 3338.73 1062.44C3340.78 1061.34 3342.4 1059.8 3343.57 1057.82C3344.74 1055.77 3345.33 1053.35 3345.33 1050.56C3345.33 1046.38 3344.12 1043.15 3341.7 1040.88C3339.35 1038.61 3336.27 1037.47 3332.46 1037.47C3330.26 1037.47 3328.35 1037.8 3326.74 1038.46C3325.2 1039.05 3323.37 1040.04 3321.24 1041.43L3315.19 1037.58L3317.28 1003.04H3354.68V1013.71H3328.28L3326.85 1030.65C3328.32 1029.92 3329.75 1029.37 3331.14 1029C3332.61 1028.56 3334.26 1028.34 3336.09 1028.34C3340.05 1028.34 3343.68 1029.15 3346.98 1030.76C3350.35 1032.3 3353.03 1034.68 3355.01 1037.91C3357.06 1041.14 3358.09 1045.24 3358.09 1050.23C3358.09 1055.36 3356.92 1059.73 3354.57 1063.32C3352.3 1066.91 3349.29 1069.66 3345.55 1071.57C3341.81 1073.4 3337.78 1074.32 3333.45 1074.32ZM3375.99 1092.58L3368.07 1089.06C3372.25 1082.02 3375.29 1074.5 3377.2 1066.51C3379.18 1058.52 3380.17 1050.49 3380.17 1042.42C3380.17 1034.35 3379.18 1026.32 3377.2 1018.33C3375.29 1010.26 3372.25 1002.75 3368.07 995.78L3375.99 992.26C3380.61 999.74 3384.16 1007.55 3386.66 1015.69C3389.22 1023.83 3390.51 1032.74 3390.51 1042.42C3390.51 1052.1 3389.22 1061.01 3386.66 1069.15C3384.16 1077.29 3380.61 1085.1 3375.99 1092.58Z" fill="black" fill-opacity="0.44"/>
</svg>
