<svg width="3745" height="1780" viewBox="0 0 3745 1780" fill="none" xmlns="http://www.w3.org/2000/svg">
<path d="M1899.59 847V775.28H1919.83C1927.16 775.28 1933.51 776.527 1938.86 779.02C1944.29 781.513 1948.47 785.4 1951.4 790.68C1954.33 795.887 1955.8 802.597 1955.8 810.81C1955.8 819.023 1954.33 825.807 1951.4 831.16C1948.47 836.513 1944.36 840.51 1939.08 843.15C1933.87 845.717 1927.79 847 1920.82 847H1899.59ZM1915.76 833.91H1918.84C1922.95 833.91 1926.5 833.177 1929.51 831.71C1932.59 830.243 1934.97 827.823 1936.66 824.45C1938.35 821.077 1939.19 816.53 1939.19 810.81C1939.19 805.09 1938.35 800.617 1936.66 797.39C1934.97 794.09 1932.59 791.78 1929.51 790.46C1926.5 789.067 1922.95 788.37 1918.84 788.37H1915.76V833.91ZM1992.51 848.32C1987.31 848.32 1982.61 847.183 1978.43 844.91C1974.25 842.637 1970.95 839.373 1968.53 835.12C1966.11 830.867 1964.9 825.733 1964.9 819.72C1964.9 813.78 1966.11 808.683 1968.53 804.43C1971.03 800.177 1974.25 796.913 1978.21 794.64C1982.17 792.293 1986.32 791.12 1990.64 791.12C1995.85 791.12 2000.18 792.293 2003.62 794.64C2007.07 796.913 2009.64 800.03 2011.32 803.99C2013.01 807.95 2013.85 812.387 2013.85 817.3C2013.85 818.693 2013.78 820.087 2013.63 821.48C2013.49 822.8 2013.34 823.863 2013.19 824.67H1977.44L1977.22 813.45H1999.99C1999.99 810.59 1999.3 808.243 1997.9 806.41C1996.51 804.503 1994.2 803.55 1990.97 803.55C1989.21 803.55 1987.49 804.027 1985.8 804.98C1984.12 805.933 1982.72 807.583 1981.62 809.93C1980.52 812.277 1980.01 815.54 1980.08 819.72C1980.16 823.827 1980.89 827.053 1982.28 829.4C1983.75 831.747 1985.58 833.433 1987.78 834.46C1989.98 835.413 1992.29 835.89 1994.71 835.89C1996.84 835.89 1998.86 835.597 2000.76 835.01C2002.74 834.35 2004.69 833.47 2006.59 832.37L2011.87 842.27C2009.16 844.177 2006.08 845.68 2002.63 846.78C1999.19 847.807 1995.81 848.32 1992.51 848.32ZM2027.24 847V789.58C2027.24 785.693 2027.86 782.173 2029.11 779.02C2030.43 775.867 2032.56 773.337 2035.49 771.43C2038.5 769.523 2042.46 768.57 2047.37 768.57C2049.64 768.57 2051.73 768.79 2053.64 769.23C2055.55 769.67 2057.09 770.11 2058.26 770.55L2055.07 782.1C2053.24 781.587 2051.44 781.33 2049.68 781.33C2047.7 781.33 2046.16 781.953 2045.06 783.2C2043.96 784.373 2043.41 786.353 2043.41 789.14V847H2027.24ZM2019.21 805.09V793.1L2028.34 792.44H2053.2V805.09H2019.21ZM2061.98 847V792.44H2078.15V847H2061.98ZM2070.01 784.41C2067.3 784.41 2065.1 783.64 2063.41 782.1C2061.72 780.56 2060.88 778.507 2060.88 775.94C2060.88 773.373 2061.72 771.32 2063.41 769.78C2065.1 768.24 2067.3 767.47 2070.01 767.47C2072.72 767.47 2074.92 768.24 2076.61 769.78C2078.3 771.32 2079.14 773.373 2079.14 775.94C2079.14 778.507 2078.3 780.56 2076.61 782.1C2074.92 783.64 2072.72 784.41 2070.01 784.41ZM2092.38 847V792.44H2105.58L2106.68 799.37H2107.12C2109.39 797.097 2111.96 795.153 2114.82 793.54C2117.68 791.927 2120.94 791.12 2124.61 791.12C2130.62 791.12 2134.95 793.1 2137.59 797.06C2140.23 800.947 2141.55 806.3 2141.55 813.12V847H2125.38V815.21C2125.38 811.25 2124.83 808.537 2123.73 807.07C2122.7 805.603 2121.02 804.87 2118.67 804.87C2116.62 804.87 2114.86 805.347 2113.39 806.3C2111.92 807.18 2110.31 808.463 2108.55 810.15V847H2092.38ZM2155.33 847V792.44H2171.5V847H2155.33ZM2163.36 784.41C2160.65 784.41 2158.45 783.64 2156.76 782.1C2155.07 780.56 2154.23 778.507 2154.23 775.94C2154.23 773.373 2155.07 771.32 2156.76 769.78C2158.45 768.24 2160.65 767.47 2163.36 767.47C2166.07 767.47 2168.27 768.24 2169.96 769.78C2171.65 771.32 2172.49 773.373 2172.49 775.94C2172.49 778.507 2171.65 780.56 2169.96 782.1C2168.27 783.64 2166.07 784.41 2163.36 784.41ZM2185.73 847V792.44H2198.93L2200.03 799.37H2200.47C2202.74 797.097 2205.31 795.153 2208.17 793.54C2211.03 791.927 2214.29 791.12 2217.96 791.12C2223.97 791.12 2228.3 793.1 2230.94 797.06C2233.58 800.947 2234.9 806.3 2234.9 813.12V847H2218.73V815.21C2218.73 811.25 2218.18 808.537 2217.08 807.07C2216.05 805.603 2214.37 804.87 2212.02 804.87C2209.97 804.87 2208.21 805.347 2206.74 806.3C2205.27 807.18 2203.66 808.463 2201.9 810.15V847H2185.73ZM2268.15 848.32C2261.4 848.32 2255.98 845.79 2251.87 840.73C2247.84 835.597 2245.82 828.593 2245.82 819.72C2245.82 813.78 2246.88 808.683 2249.01 804.43C2251.21 800.177 2254.03 796.913 2257.48 794.64C2261 792.293 2264.67 791.12 2268.48 791.12C2271.49 791.12 2274.02 791.633 2276.07 792.66C2278.12 793.687 2280.07 795.08 2281.9 796.84L2281.24 788.48V769.89H2297.41V847H2284.21L2283.11 841.61H2282.67C2280.76 843.517 2278.53 845.13 2275.96 846.45C2273.39 847.697 2270.79 848.32 2268.15 848.32ZM2272.33 835.12C2274.09 835.12 2275.7 834.753 2277.17 834.02C2278.64 833.287 2279.99 832.003 2281.24 830.17V807.84C2279.85 806.52 2278.38 805.603 2276.84 805.09C2275.3 804.577 2273.76 804.32 2272.22 804.32C2270.46 804.32 2268.85 804.87 2267.38 805.97C2265.91 807.07 2264.7 808.757 2263.75 811.03C2262.87 813.23 2262.43 816.053 2262.43 819.5C2262.43 824.853 2263.31 828.813 2265.07 831.38C2266.83 833.873 2269.25 835.12 2272.33 835.12ZM2335.17 848.32C2330.55 848.32 2326.22 847.22 2322.19 845.02C2318.15 842.747 2314.85 839.483 2312.29 835.23C2309.79 830.903 2308.55 825.733 2308.55 819.72C2308.55 813.707 2309.79 808.573 2312.29 804.32C2314.85 799.993 2318.15 796.73 2322.19 794.53C2326.22 792.257 2330.55 791.12 2335.17 791.12C2339.71 791.12 2344 792.257 2348.04 794.53C2352.07 796.73 2355.33 799.993 2357.83 804.32C2360.39 808.573 2361.68 813.707 2361.68 819.72C2361.68 825.733 2360.39 830.903 2357.83 835.23C2355.33 839.483 2352.07 842.747 2348.04 845.02C2344 847.22 2339.71 848.32 2335.17 848.32ZM2335.17 835.23C2337.37 835.23 2339.2 834.607 2340.67 833.36C2342.21 832.113 2343.34 830.317 2344.08 827.97C2344.81 825.623 2345.18 822.873 2345.18 819.72C2345.18 816.567 2344.81 813.817 2344.08 811.47C2343.34 809.123 2342.21 807.327 2340.67 806.08C2339.2 804.833 2337.37 804.21 2335.17 804.21C2332.89 804.21 2331.02 804.833 2329.56 806.08C2328.09 807.327 2326.99 809.123 2326.26 811.47C2325.52 813.817 2325.16 816.567 2325.16 819.72C2325.16 822.873 2325.52 825.623 2326.26 827.97C2326.99 830.317 2328.09 832.113 2329.56 833.36C2331.02 834.607 2332.89 835.23 2335.17 835.23ZM2391.69 847V836.99C2397.56 831.783 2402.77 826.907 2407.31 822.36C2411.93 817.813 2415.53 813.597 2418.09 809.71C2420.73 805.823 2422.05 802.267 2422.05 799.04C2422.05 795.593 2421.17 792.99 2419.41 791.23C2417.65 789.397 2415.23 788.48 2412.15 788.48C2409.66 788.48 2407.39 789.213 2405.33 790.68C2403.35 792.073 2401.48 793.723 2399.72 795.63L2391.25 787.27C2394.63 783.457 2398.07 780.597 2401.59 778.69C2405.19 776.783 2409.44 775.83 2414.35 775.83C2418.9 775.83 2422.9 776.747 2426.34 778.58C2429.86 780.413 2432.58 782.98 2434.48 786.28C2436.46 789.58 2437.45 793.467 2437.45 797.94C2437.45 802.12 2436.32 806.227 2434.04 810.26C2431.84 814.22 2428.91 818.18 2425.24 822.14C2421.58 826.1 2417.69 830.133 2413.58 834.24C2415.34 834.02 2417.32 833.837 2419.52 833.69C2421.72 833.47 2423.63 833.36 2425.24 833.36H2440.86V847H2391.69ZM2498.34 848.32C2493.72 848.32 2489.39 847.22 2485.36 845.02C2481.33 842.747 2478.03 839.483 2475.46 835.23C2472.97 830.903 2471.72 825.733 2471.72 819.72C2471.72 813.707 2472.97 808.573 2475.46 804.32C2478.03 799.993 2481.33 796.73 2485.36 794.53C2489.39 792.257 2493.72 791.12 2498.34 791.12C2502.89 791.12 2507.18 792.257 2511.21 794.53C2515.24 796.73 2518.51 799.993 2521 804.32C2523.57 808.573 2524.85 813.707 2524.85 819.72C2524.85 825.733 2523.57 830.903 2521 835.23C2518.51 839.483 2515.24 842.747 2511.21 845.02C2507.18 847.22 2502.89 848.32 2498.34 848.32ZM2498.34 835.23C2500.54 835.23 2502.37 834.607 2503.84 833.36C2505.38 832.113 2506.52 830.317 2507.25 827.97C2507.98 825.623 2508.35 822.873 2508.35 819.72C2508.35 816.567 2507.98 813.817 2507.25 811.47C2506.52 809.123 2505.38 807.327 2503.84 806.08C2502.37 804.833 2500.54 804.21 2498.34 804.21C2496.07 804.21 2494.2 804.833 2492.73 806.08C2491.26 807.327 2490.16 809.123 2489.43 811.47C2488.7 813.817 2488.33 816.567 2488.33 819.72C2488.33 822.873 2488.7 825.623 2489.43 827.97C2490.16 830.317 2491.26 832.113 2492.73 833.36C2494.2 834.607 2496.07 835.23 2498.34 835.23ZM2564.53 848.32C2562.11 848.32 2559.69 847.733 2557.27 846.56C2554.85 845.313 2552.54 843.517 2550.34 841.17H2549.9L2548.58 847H2535.93V769.89H2552.1V788.81L2551.66 797.17C2553.71 795.263 2555.98 793.797 2558.48 792.77C2560.97 791.67 2563.5 791.12 2566.07 791.12C2570.47 791.12 2574.28 792.257 2577.51 794.53C2580.73 796.803 2583.19 800.03 2584.88 804.21C2586.64 808.317 2587.52 813.157 2587.52 818.73C2587.52 824.963 2586.42 830.317 2584.22 834.79C2582.02 839.19 2579.16 842.563 2575.64 844.91C2572.19 847.183 2568.49 848.32 2564.53 848.32ZM2560.79 835.12C2562.62 835.12 2564.31 834.57 2565.85 833.47C2567.46 832.37 2568.71 830.647 2569.59 828.3C2570.47 825.88 2570.91 822.8 2570.91 819.06C2570.91 815.76 2570.54 813.047 2569.81 810.92C2569.15 808.72 2568.12 807.07 2566.73 805.97C2565.33 804.87 2563.57 804.32 2561.45 804.32C2559.83 804.32 2558.26 804.723 2556.72 805.53C2555.25 806.263 2553.71 807.51 2552.1 809.27V831.6C2553.49 832.847 2554.96 833.763 2556.5 834.35C2558.04 834.863 2559.47 835.12 2560.79 835.12ZM2595.79 868.56C2593.59 868.56 2591.72 868.413 2590.18 868.12C2588.64 867.827 2587.29 867.46 2586.11 867.02L2589.08 855.14C2589.82 855.36 2590.55 855.543 2591.28 855.69C2591.94 855.837 2592.64 855.91 2593.37 855.91C2595.5 855.91 2596.97 855.177 2597.77 853.71C2598.65 852.317 2599.09 850.117 2599.09 847.11V792.44H2615.37V846.56C2615.37 850.593 2614.75 854.26 2613.5 857.56C2612.33 860.933 2610.31 863.61 2607.45 865.59C2604.67 867.57 2600.78 868.56 2595.79 868.56ZM2607.23 784.41C2604.52 784.41 2602.32 783.64 2600.63 782.1C2598.95 780.56 2598.1 778.507 2598.1 775.94C2598.1 773.373 2598.95 771.32 2600.63 769.78C2602.32 768.24 2604.52 767.47 2607.23 767.47C2609.95 767.47 2612.15 768.24 2613.83 769.78C2615.52 771.32 2616.36 773.373 2616.36 775.94C2616.36 778.507 2615.52 780.56 2613.83 782.1C2612.15 783.64 2609.95 784.41 2607.23 784.41ZM2654.02 848.32C2648.81 848.32 2644.12 847.183 2639.94 844.91C2635.76 842.637 2632.46 839.373 2630.04 835.12C2627.62 830.867 2626.41 825.733 2626.41 819.72C2626.41 813.78 2627.62 808.683 2630.04 804.43C2632.53 800.177 2635.76 796.913 2639.72 794.64C2643.68 792.293 2647.82 791.12 2652.15 791.12C2657.35 791.12 2661.68 792.293 2665.13 794.64C2668.57 796.913 2671.14 800.03 2672.83 803.99C2674.51 807.95 2675.36 812.387 2675.36 817.3C2675.36 818.693 2675.28 820.087 2675.14 821.48C2674.99 822.8 2674.84 823.863 2674.7 824.67H2638.95L2638.73 813.45H2661.5C2661.5 810.59 2660.8 808.243 2659.41 806.41C2658.01 804.503 2655.7 803.55 2652.48 803.55C2650.72 803.55 2648.99 804.027 2647.31 804.98C2645.62 805.933 2644.23 807.583 2643.13 809.93C2642.03 812.277 2641.51 815.54 2641.59 819.72C2641.66 823.827 2642.39 827.053 2643.79 829.4C2645.25 831.747 2647.09 833.433 2649.29 834.46C2651.49 835.413 2653.8 835.89 2656.22 835.89C2658.34 835.89 2660.36 835.597 2662.27 835.01C2664.25 834.35 2666.19 833.47 2668.1 832.37L2673.38 842.27C2670.66 844.177 2667.58 845.68 2664.14 846.78C2660.69 847.807 2657.32 848.32 2654.02 848.32ZM2706.47 848.21C2699.72 848.21 2694.88 846.267 2691.95 842.38C2689.01 838.42 2687.55 833.323 2687.55 827.09V805.09H2680.18V793.1L2688.54 792.44L2690.41 775.72H2703.83V792.44H2716.92V805.09H2703.83V826.87C2703.83 829.95 2704.45 832.187 2705.7 833.58C2707.02 834.9 2708.74 835.56 2710.87 835.56C2711.75 835.56 2712.63 835.487 2713.51 835.34C2714.39 835.193 2715.23 834.973 2716.04 834.68L2718.68 846.01C2717.28 846.597 2715.52 847.11 2713.4 847.55C2711.34 847.99 2709.03 848.21 2706.47 848.21ZM2749.06 848.32C2744.44 848.32 2740.12 847.22 2736.08 845.02C2732.05 842.747 2728.75 839.483 2726.18 835.23C2723.69 830.903 2722.44 825.733 2722.44 819.72C2722.44 813.707 2723.69 808.573 2726.18 804.32C2728.75 799.993 2732.05 796.73 2736.08 794.53C2740.12 792.257 2744.44 791.12 2749.06 791.12C2753.61 791.12 2757.9 792.257 2761.93 794.53C2765.97 796.73 2769.23 799.993 2771.72 804.32C2774.29 808.573 2775.57 813.707 2775.57 819.72C2775.57 825.733 2774.29 830.903 2771.72 835.23C2769.23 839.483 2765.97 842.747 2761.93 845.02C2757.9 847.22 2753.61 848.32 2749.06 848.32ZM2749.06 835.23C2751.26 835.23 2753.1 834.607 2754.56 833.36C2756.1 832.113 2757.24 830.317 2757.97 827.97C2758.71 825.623 2759.07 822.873 2759.07 819.72C2759.07 816.567 2758.71 813.817 2757.97 811.47C2757.24 809.123 2756.1 807.327 2754.56 806.08C2753.1 804.833 2751.26 804.21 2749.06 804.21C2746.79 804.21 2744.92 804.833 2743.45 806.08C2741.99 807.327 2740.89 809.123 2740.15 811.47C2739.42 813.817 2739.05 816.567 2739.05 819.72C2739.05 822.873 2739.42 825.623 2740.15 827.97C2740.89 830.317 2741.99 832.113 2743.45 833.36C2744.92 834.607 2746.79 835.23 2749.06 835.23ZM2802.17 848.32C2798.58 848.32 2794.87 847.623 2791.06 846.23C2787.25 844.837 2783.98 842.82 2781.27 840.18L2788.09 831.05C2790.58 833.03 2793.04 834.423 2795.46 835.23C2797.95 835.963 2800.34 836.33 2802.61 836.33C2805.03 836.33 2806.79 835.927 2807.89 835.12C2808.99 834.24 2809.54 833.103 2809.54 831.71C2809.54 830.463 2809.03 829.437 2808 828.63C2807.05 827.823 2805.76 827.127 2804.15 826.54C2802.61 825.88 2800.85 825.183 2798.87 824.45C2796.23 823.497 2793.81 822.287 2791.61 820.82C2789.41 819.353 2787.61 817.593 2786.22 815.54C2784.9 813.487 2784.24 811.03 2784.24 808.17C2784.24 803.037 2786.15 798.93 2789.96 795.85C2793.85 792.697 2798.91 791.12 2805.14 791.12C2809.1 791.12 2812.69 791.78 2815.92 793.1C2819.22 794.347 2822.04 795.997 2824.39 798.05L2817.46 807.07C2815.48 805.677 2813.5 804.687 2811.52 804.1C2809.54 803.44 2807.6 803.11 2805.69 803.11C2803.56 803.11 2801.99 803.513 2800.96 804.32C2799.93 805.127 2799.42 806.153 2799.42 807.4C2799.42 808.427 2799.79 809.307 2800.52 810.04C2801.25 810.773 2802.35 811.47 2803.82 812.13C2805.36 812.717 2807.27 813.377 2809.54 814.11C2812.33 815.063 2814.86 816.273 2817.13 817.74C2819.48 819.133 2821.31 820.893 2822.63 823.02C2823.95 825.147 2824.61 827.713 2824.61 830.72C2824.61 834.02 2823.73 836.99 2821.97 839.63C2820.28 842.27 2817.79 844.397 2814.49 846.01C2811.19 847.55 2807.08 848.32 2802.17 848.32ZM2870.65 848.32C2867.35 848.32 2864.46 847.587 2861.96 846.12C2859.54 844.653 2857.67 842.673 2856.35 840.18C2855.03 837.687 2854.37 834.9 2854.37 831.82C2854.37 825.953 2856.79 821.443 2861.63 818.29C2866.47 815.063 2874.28 812.9 2885.06 811.8C2884.99 810.187 2884.62 808.83 2883.96 807.73C2883.38 806.557 2882.46 805.677 2881.21 805.09C2879.97 804.43 2878.39 804.1 2876.48 804.1C2874.21 804.1 2871.9 804.503 2869.55 805.31C2867.21 806.117 2864.68 807.29 2861.96 808.83L2856.24 798.27C2858.59 796.803 2861.01 795.557 2863.5 794.53C2866 793.43 2868.56 792.587 2871.2 792C2873.92 791.413 2876.7 791.12 2879.56 791.12C2884.26 791.12 2888.18 792.037 2891.33 793.87C2894.56 795.63 2897.02 798.343 2898.7 802.01C2900.39 805.603 2901.23 810.223 2901.23 815.87V847H2888.03L2886.93 841.39H2886.49C2884.15 843.443 2881.69 845.13 2879.12 846.45C2876.56 847.697 2873.73 848.32 2870.65 848.32ZM2876.04 835.67C2877.88 835.67 2879.49 835.267 2880.88 834.46C2882.28 833.653 2883.67 832.553 2885.06 831.16V821.92C2881.25 822.433 2878.21 823.093 2875.93 823.9C2873.73 824.707 2872.16 825.697 2871.2 826.87C2870.32 827.97 2869.88 829.217 2869.88 830.61C2869.88 832.297 2870.43 833.58 2871.53 834.46C2872.71 835.267 2874.21 835.67 2876.04 835.67ZM2931.3 848.32C2925.36 848.32 2921.03 846.377 2918.32 842.49C2915.68 838.53 2914.36 833.14 2914.36 826.32V792.44H2930.53V824.23C2930.53 828.19 2931.08 830.903 2932.18 832.37C2933.28 833.837 2935 834.57 2937.35 834.57C2939.33 834.57 2941.05 834.093 2942.52 833.14C2943.99 832.187 2945.49 830.647 2947.03 828.52V792.44H2963.2V847H2950L2948.79 839.41H2948.46C2946.19 842.123 2943.69 844.287 2940.98 845.9C2938.27 847.513 2935.04 848.32 2931.3 848.32ZM2998.44 848.21C2991.69 848.21 2986.85 846.267 2983.92 842.38C2980.99 838.42 2979.52 833.323 2979.52 827.09V805.09H2972.15V793.1L2980.51 792.44L2982.38 775.72H2995.8V792.44H3008.89V805.09H2995.8V826.87C2995.8 829.95 2996.42 832.187 2997.67 833.58C2998.99 834.9 3000.71 835.56 3002.84 835.56C3003.72 835.56 3004.6 835.487 3005.48 835.34C3006.36 835.193 3007.2 834.973 3008.01 834.68L3010.65 846.01C3009.26 846.597 3007.5 847.11 3005.37 847.55C3003.32 847.99 3001.01 848.21 2998.44 848.21ZM3041.04 848.32C3036.42 848.32 3032.09 847.22 3028.06 845.02C3024.02 842.747 3020.72 839.483 3018.16 835.23C3015.66 830.903 3014.42 825.733 3014.42 819.72C3014.42 813.707 3015.66 808.573 3018.16 804.32C3020.72 799.993 3024.02 796.73 3028.06 794.53C3032.09 792.257 3036.42 791.12 3041.04 791.12C3045.58 791.12 3049.87 792.257 3053.91 794.53C3057.94 796.73 3061.2 799.993 3063.7 804.32C3066.26 808.573 3067.55 813.707 3067.55 819.72C3067.55 825.733 3066.26 830.903 3063.7 835.23C3061.2 839.483 3057.94 842.747 3053.91 845.02C3049.87 847.22 3045.58 848.32 3041.04 848.32ZM3041.04 835.23C3043.24 835.23 3045.07 834.607 3046.54 833.36C3048.08 832.113 3049.21 830.317 3049.95 827.97C3050.68 825.623 3051.05 822.873 3051.05 819.72C3051.05 816.567 3050.68 813.817 3049.95 811.47C3049.21 809.123 3048.08 807.327 3046.54 806.08C3045.07 804.833 3043.24 804.21 3041.04 804.21C3038.76 804.21 3036.89 804.833 3035.43 806.08C3033.96 807.327 3032.86 809.123 3032.13 811.47C3031.39 813.817 3031.03 816.567 3031.03 819.72C3031.03 822.873 3031.39 825.623 3032.13 827.97C3032.86 830.317 3033.96 832.113 3035.43 833.36C3036.89 834.607 3038.76 835.23 3041.04 835.23ZM3019.15 784.3L3033.56 764.17H3048.52L3062.93 784.3H3050.61L3041.26 774.84H3040.82L3031.47 784.3H3019.15ZM3078.62 847V792.44H3091.82L3092.92 799.37H3093.36C3095.63 797.097 3098.2 795.153 3101.06 793.54C3103.92 791.927 3107.18 791.12 3110.85 791.12C3116.86 791.12 3121.19 793.1 3123.83 797.06C3126.47 800.947 3127.79 806.3 3127.79 813.12V847H3111.62V815.21C3111.62 811.25 3111.07 808.537 3109.97 807.07C3108.94 805.603 3107.26 804.87 3104.91 804.87C3102.86 804.87 3101.1 805.347 3099.63 806.3C3098.16 807.18 3096.55 808.463 3094.79 810.15V847H3078.62ZM3165 848.32C3160.38 848.32 3156.05 847.22 3152.02 845.02C3147.99 842.747 3144.69 839.483 3142.12 835.23C3139.63 830.903 3138.38 825.733 3138.38 819.72C3138.38 813.707 3139.63 808.573 3142.12 804.32C3144.69 799.993 3147.99 796.73 3152.02 794.53C3156.05 792.257 3160.38 791.12 3165 791.12C3169.55 791.12 3173.84 792.257 3177.87 794.53C3181.9 796.73 3185.17 799.993 3187.66 804.32C3190.23 808.573 3191.51 813.707 3191.51 819.72C3191.51 825.733 3190.23 830.903 3187.66 835.23C3185.17 839.483 3181.9 842.747 3177.87 845.02C3173.84 847.22 3169.55 848.32 3165 848.32ZM3165 835.23C3167.2 835.23 3169.03 834.607 3170.5 833.36C3172.04 832.113 3173.18 830.317 3173.91 827.97C3174.64 825.623 3175.01 822.873 3175.01 819.72C3175.01 816.567 3174.64 813.817 3173.91 811.47C3173.18 809.123 3172.04 807.327 3170.5 806.08C3169.03 804.833 3167.2 804.21 3165 804.21C3162.73 804.21 3160.86 804.833 3159.39 806.08C3157.92 807.327 3156.82 809.123 3156.09 811.47C3155.36 813.817 3154.99 816.567 3154.99 819.72C3154.99 822.873 3155.36 825.623 3156.09 827.97C3156.82 830.317 3157.92 832.113 3159.39 833.36C3160.86 834.607 3162.73 835.23 3165 835.23ZM3202.59 847V792.44H3215.79L3216.89 799.48H3217.33C3219.53 797.207 3221.91 795.263 3224.48 793.65C3227.12 791.963 3230.23 791.12 3233.83 791.12C3237.71 791.12 3240.87 791.927 3243.29 793.54C3245.71 795.08 3247.58 797.317 3248.9 800.25C3251.32 797.757 3253.88 795.63 3256.6 793.87C3259.31 792.037 3262.46 791.12 3266.06 791.12C3272 791.12 3276.32 793.1 3279.04 797.06C3281.75 800.947 3283.11 806.3 3283.11 813.12V847H3266.94V815.21C3266.94 811.25 3266.39 808.537 3265.29 807.07C3264.26 805.603 3262.57 804.87 3260.23 804.87C3258.83 804.87 3257.37 805.31 3255.83 806.19C3254.29 806.997 3252.64 808.317 3250.88 810.15V847H3234.71V815.21C3234.71 811.25 3234.16 808.537 3233.06 807.07C3232.03 805.603 3230.34 804.87 3228 804.87C3225.21 804.87 3222.13 806.63 3218.76 810.15V847H3202.59ZM3320.33 848.32C3315.71 848.32 3311.39 847.22 3307.35 845.02C3303.32 842.747 3300.02 839.483 3297.45 835.23C3294.96 830.903 3293.71 825.733 3293.71 819.72C3293.71 813.707 3294.96 808.573 3297.45 804.32C3300.02 799.993 3303.32 796.73 3307.35 794.53C3311.39 792.257 3315.71 791.12 3320.33 791.12C3324.88 791.12 3329.17 792.257 3333.2 794.53C3337.24 796.73 3340.5 799.993 3342.99 804.32C3345.56 808.573 3346.84 813.707 3346.84 819.72C3346.84 825.733 3345.56 830.903 3342.99 835.23C3340.5 839.483 3337.24 842.747 3333.2 845.02C3329.17 847.22 3324.88 848.32 3320.33 848.32ZM3320.33 835.23C3322.53 835.23 3324.37 834.607 3325.83 833.36C3327.37 832.113 3328.51 830.317 3329.24 827.97C3329.98 825.623 3330.34 822.873 3330.34 819.72C3330.34 816.567 3329.98 813.817 3329.24 811.47C3328.51 809.123 3327.37 807.327 3325.83 806.08C3324.37 804.833 3322.53 804.21 3320.33 804.21C3318.06 804.21 3316.19 804.833 3314.72 806.08C3313.26 807.327 3312.16 809.123 3311.42 811.47C3310.69 813.817 3310.32 816.567 3310.32 819.72C3310.32 822.873 3310.69 825.623 3311.42 827.97C3312.16 830.317 3313.26 832.113 3314.72 833.36C3316.19 834.607 3318.06 835.23 3320.33 835.23ZM3373.44 848.32C3369.85 848.32 3366.14 847.623 3362.33 846.23C3358.52 844.837 3355.25 842.82 3352.54 840.18L3359.36 831.05C3361.85 833.03 3364.31 834.423 3366.73 835.23C3369.22 835.963 3371.61 836.33 3373.88 836.33C3376.3 836.33 3378.06 835.927 3379.16 835.12C3380.26 834.24 3380.81 833.103 3380.81 831.71C3380.81 830.463 3380.3 829.437 3379.27 828.63C3378.32 827.823 3377.03 827.127 3375.42 826.54C3373.88 825.88 3372.12 825.183 3370.14 824.45C3367.5 823.497 3365.08 822.287 3362.88 820.82C3360.68 819.353 3358.88 817.593 3357.49 815.54C3356.17 813.487 3355.51 811.03 3355.51 808.17C3355.51 803.037 3357.42 798.93 3361.23 795.85C3365.12 792.697 3370.18 791.12 3376.41 791.12C3380.37 791.12 3383.96 791.78 3387.19 793.1C3390.49 794.347 3393.31 795.997 3395.66 798.05L3388.73 807.07C3386.75 805.677 3384.77 804.687 3382.79 804.1C3380.81 803.44 3378.87 803.11 3376.96 803.11C3374.83 803.11 3373.26 803.513 3372.23 804.32C3371.2 805.127 3370.69 806.153 3370.69 807.4C3370.69 808.427 3371.06 809.307 3371.79 810.04C3372.52 810.773 3373.62 811.47 3375.09 812.13C3376.63 812.717 3378.54 813.377 3380.81 814.11C3383.6 815.063 3386.13 816.273 3388.4 817.74C3390.75 819.133 3392.58 820.893 3393.9 823.02C3395.22 825.147 3395.88 827.713 3395.88 830.72C3395.88 834.02 3395 836.99 3393.24 839.63C3391.55 842.27 3389.06 844.397 3385.76 846.01C3382.46 847.55 3378.35 848.32 3373.44 848.32Z" fill="black" fill-opacity="0.44"/>
<path d="M824.867 964V891.84H866.447V899.54H833.997V922.2H861.387V930.01H833.997V956.19H867.547V964H824.867ZM896.246 964.99C890.6 964.99 886.64 963.34 884.366 960.04C882.093 956.74 880.956 952.45 880.956 947.17V917.91H873.036V911.09L881.396 910.54L882.496 893.38H890.086V910.54H904.606V917.91H890.086V947.28C890.086 950.507 890.673 953.037 891.846 954.87C893.093 956.703 895.256 957.62 898.336 957.62C899.29 957.62 900.28 957.547 901.306 957.4C902.333 957.18 903.36 956.813 904.386 956.3L906.366 962.68C904.973 963.34 903.396 963.89 901.636 964.33C899.876 964.77 898.08 964.99 896.246 964.99ZM926.541 965.32C923.608 965.32 920.931 964.733 918.511 963.56C916.165 962.313 914.295 960.59 912.901 958.39C911.508 956.117 910.811 953.367 910.811 950.14C910.811 944.127 913.451 939.58 918.731 936.5C924.011 933.42 932.371 931.257 943.811 930.01C943.738 927.81 943.371 925.683 942.711 923.63C942.125 921.577 941.025 919.927 939.411 918.68C937.798 917.433 935.561 916.81 932.701 916.81C929.621 916.81 926.725 917.397 924.011 918.57C921.298 919.67 918.878 920.917 916.751 922.31L913.231 916.15C914.845 915.05 916.751 913.987 918.951 912.96C921.151 911.86 923.535 910.98 926.101 910.32C928.668 909.587 931.381 909.22 934.241 909.22C938.568 909.22 942.088 910.137 944.801 911.97C947.588 913.73 949.605 916.26 950.851 919.56C952.171 922.86 952.831 926.747 952.831 931.22V964H945.351L944.581 957.62H944.251C941.685 959.747 938.935 961.58 936.001 963.12C933.068 964.587 929.915 965.32 926.541 965.32ZM929.071 957.84C931.711 957.84 934.168 957.253 936.441 956.08C938.788 954.907 941.245 953.183 943.811 950.91V936.5C937.798 937.233 933.031 938.187 929.511 939.36C926.065 940.46 923.571 941.853 922.031 943.54C920.491 945.227 919.721 947.243 919.721 949.59C919.721 952.523 920.638 954.65 922.471 955.97C924.305 957.217 926.505 957.84 929.071 957.84ZM969.651 986.55V910.54H977.131L977.901 916.7H978.231C980.651 914.647 983.328 912.887 986.261 911.42C989.194 909.953 992.201 909.22 995.281 909.22C999.828 909.22 1003.68 910.357 1006.83 912.63C1009.98 914.83 1012.37 917.983 1013.98 922.09C1015.59 926.123 1016.4 930.927 1016.4 936.5C1016.4 942.513 1015.3 947.683 1013.1 952.01C1010.97 956.337 1008.15 959.637 1004.63 961.91C1001.11 964.183 997.334 965.32 993.301 965.32C990.881 965.32 988.424 964.77 985.931 963.67C983.438 962.57 980.944 961.067 978.451 959.16L978.671 968.51V986.55H969.651ZM991.761 957.73C994.694 957.73 997.298 956.887 999.571 955.2C1001.92 953.513 1003.75 951.093 1005.07 947.94C1006.39 944.713 1007.05 940.9 1007.05 936.5C1007.05 932.613 1006.57 929.203 1005.62 926.27C1004.67 923.263 1003.16 920.953 1001.11 919.34C999.058 917.653 996.344 916.81 992.971 916.81C990.771 916.81 988.498 917.433 986.151 918.68C983.804 919.853 981.311 921.65 978.671 924.07V952.12C981.164 954.173 983.511 955.64 985.711 956.52C987.984 957.327 990.001 957.73 991.761 957.73ZM1041.48 965.32C1038.55 965.32 1035.87 964.733 1033.45 963.56C1031.11 962.313 1029.24 960.59 1027.84 958.39C1026.45 956.117 1025.75 953.367 1025.75 950.14C1025.75 944.127 1028.39 939.58 1033.67 936.5C1038.95 933.42 1047.31 931.257 1058.75 930.01C1058.68 927.81 1058.31 925.683 1057.65 923.63C1057.07 921.577 1055.97 919.927 1054.35 918.68C1052.74 917.433 1050.5 916.81 1047.64 916.81C1044.56 916.81 1041.67 917.397 1038.95 918.57C1036.24 919.67 1033.82 920.917 1031.69 922.31L1028.17 916.15C1029.79 915.05 1031.69 913.987 1033.89 912.96C1036.09 911.86 1038.48 910.98 1041.04 910.32C1043.61 909.587 1046.32 909.22 1049.18 909.22C1053.51 909.22 1057.03 910.137 1059.74 911.97C1062.53 913.73 1064.55 916.26 1065.79 919.56C1067.11 922.86 1067.77 926.747 1067.77 931.22V964H1060.29L1059.52 957.62H1059.19C1056.63 959.747 1053.88 961.58 1050.94 963.12C1048.01 964.587 1044.86 965.32 1041.48 965.32ZM1044.01 957.84C1046.65 957.84 1049.11 957.253 1051.38 956.08C1053.73 954.907 1056.19 953.183 1058.75 950.91V936.5C1052.74 937.233 1047.97 938.187 1044.45 939.36C1041.01 940.46 1038.51 941.853 1036.97 943.54C1035.43 945.227 1034.66 947.243 1034.66 949.59C1034.66 952.523 1035.58 954.65 1037.41 955.97C1039.25 957.217 1041.45 957.84 1044.01 957.84ZM1101.99 964V958.5C1108.96 951.607 1114.9 945.52 1119.81 940.24C1124.8 934.887 1128.58 930.047 1131.14 925.72C1133.71 921.393 1134.99 917.36 1134.99 913.62C1134.99 909.587 1133.89 906.287 1131.69 903.72C1129.49 901.153 1126.16 899.87 1121.68 899.87C1118.75 899.87 1116.04 900.677 1113.54 902.29C1111.05 903.903 1108.78 905.92 1106.72 908.34L1101.66 903.39C1104.6 900.09 1107.71 897.45 1111.01 895.47C1114.39 893.49 1118.31 892.5 1122.78 892.5C1127.11 892.5 1130.85 893.38 1134 895.14C1137.16 896.827 1139.58 899.21 1141.26 902.29C1142.95 905.37 1143.79 908.963 1143.79 913.07C1143.79 917.617 1142.51 922.127 1139.94 926.6C1137.45 931.073 1134 935.767 1129.6 940.68C1125.2 945.593 1120.14 950.983 1114.42 956.85C1116.33 956.63 1118.31 956.483 1120.36 956.41C1122.42 956.263 1124.36 956.19 1126.19 956.19H1147.31V964H1101.99ZM1201.57 965.32C1194.83 965.32 1189.44 962.9 1185.4 958.06C1181.44 953.147 1179.46 946.253 1179.46 937.38C1179.46 931.587 1180.53 926.6 1182.65 922.42C1184.85 918.167 1187.71 914.903 1191.23 912.63C1194.75 910.357 1198.57 909.22 1202.67 909.22C1205.83 909.22 1208.5 909.77 1210.7 910.87C1212.98 911.897 1215.29 913.4 1217.63 915.38L1217.19 906.25V885.68H1226.32V964H1218.84L1218.07 957.73H1217.74C1215.69 959.783 1213.27 961.58 1210.48 963.12C1207.7 964.587 1204.73 965.32 1201.57 965.32ZM1203.55 957.73C1206.05 957.73 1208.39 957.107 1210.59 955.86C1212.79 954.613 1214.99 952.78 1217.19 950.36V922.42C1214.99 920.367 1212.83 918.937 1210.7 918.13C1208.58 917.25 1206.41 916.81 1204.21 916.81C1201.35 916.81 1198.75 917.69 1196.4 919.45C1194.13 921.137 1192.3 923.52 1190.9 926.6C1189.51 929.607 1188.81 933.163 1188.81 937.27C1188.81 943.65 1190.1 948.673 1192.66 952.34C1195.23 955.933 1198.86 957.73 1203.55 957.73ZM1256.65 965.32C1253.72 965.32 1251.04 964.733 1248.62 963.56C1246.27 962.313 1244.4 960.59 1243.01 958.39C1241.62 956.117 1240.92 953.367 1240.92 950.14C1240.92 944.127 1243.56 939.58 1248.84 936.5C1254.12 933.42 1262.48 931.257 1273.92 930.01C1273.85 927.81 1273.48 925.683 1272.82 923.63C1272.23 921.577 1271.13 919.927 1269.52 918.68C1267.91 917.433 1265.67 916.81 1262.81 916.81C1259.73 916.81 1256.83 917.397 1254.12 918.57C1251.41 919.67 1248.99 920.917 1246.86 922.31L1243.34 916.15C1244.95 915.05 1246.86 913.987 1249.06 912.96C1251.26 911.86 1253.64 910.98 1256.21 910.32C1258.78 909.587 1261.49 909.22 1264.35 909.22C1268.68 909.22 1272.2 910.137 1274.91 911.97C1277.7 913.73 1279.71 916.26 1280.96 919.56C1282.28 922.86 1282.94 926.747 1282.94 931.22V964H1275.46L1274.69 957.62H1274.36C1271.79 959.747 1269.04 961.58 1266.11 963.12C1263.18 964.587 1260.02 965.32 1256.65 965.32ZM1259.18 957.84C1261.82 957.84 1264.28 957.253 1266.55 956.08C1268.9 954.907 1271.35 953.183 1273.92 950.91V936.5C1267.91 937.233 1263.14 938.187 1259.62 939.36C1256.17 940.46 1253.68 941.853 1252.14 943.54C1250.6 945.227 1249.83 947.243 1249.83 949.59C1249.83 952.523 1250.75 954.65 1252.58 955.97C1254.41 957.217 1256.61 957.84 1259.18 957.84ZM1321.78 964V910.54H1329.26L1330.03 918.24H1330.36C1332.71 915.747 1335.24 913.62 1337.95 911.86C1340.74 910.1 1343.74 909.22 1346.97 909.22C1351.08 909.22 1354.27 910.137 1356.54 911.97C1358.89 913.803 1360.61 916.297 1361.71 919.45C1364.5 916.37 1367.32 913.913 1370.18 912.08C1373.04 910.173 1376.08 909.22 1379.31 909.22C1384.88 909.22 1388.99 911.017 1391.63 914.61C1394.27 918.13 1395.59 923.3 1395.59 930.12V964H1386.57V931.33C1386.57 926.27 1385.76 922.64 1384.15 920.44C1382.54 918.167 1380.04 917.03 1376.67 917.03C1374.54 917.03 1372.38 917.727 1370.18 919.12C1368.05 920.44 1365.74 922.493 1363.25 925.28V964H1354.23V931.33C1354.23 926.27 1353.42 922.64 1351.81 920.44C1350.2 918.167 1347.67 917.03 1344.22 917.03C1340.19 917.03 1335.71 919.78 1330.8 925.28V964H1321.78ZM1412.98 964V910.54H1422V964H1412.98ZM1417.49 899.54C1415.73 899.54 1414.26 898.99 1413.09 897.89C1411.99 896.79 1411.44 895.36 1411.44 893.6C1411.44 891.84 1411.99 890.41 1413.09 889.31C1414.26 888.21 1415.73 887.66 1417.49 887.66C1419.25 887.66 1420.68 888.21 1421.78 889.31C1422.95 890.41 1423.54 891.84 1423.54 893.6C1423.54 895.36 1422.95 896.79 1421.78 897.89C1420.68 898.99 1419.25 899.54 1417.49 899.54ZM1458.09 988.64C1453.76 988.64 1449.91 988.053 1446.54 986.88C1443.24 985.78 1440.64 984.167 1438.73 982.04C1436.9 979.913 1435.98 977.31 1435.98 974.23C1435.98 971.957 1436.68 969.757 1438.07 967.63C1439.46 965.577 1441.37 963.743 1443.79 962.13V961.69C1442.47 960.81 1441.33 959.673 1440.38 958.28C1439.5 956.813 1439.06 955.053 1439.06 953C1439.06 950.727 1439.68 948.747 1440.93 947.06C1442.25 945.373 1443.57 944.053 1444.89 943.1V942.66C1443.2 941.193 1441.63 939.213 1440.16 936.72C1438.69 934.227 1437.96 931.403 1437.96 928.25C1437.96 924.363 1438.88 920.99 1440.71 918.13C1442.62 915.27 1445.07 913.07 1448.08 911.53C1451.16 909.99 1454.5 909.22 1458.09 909.22C1459.56 909.22 1460.95 909.367 1462.27 909.66C1463.59 909.88 1464.73 910.173 1465.68 910.54H1484.27V917.47H1473.16V917.91C1474.48 919.083 1475.54 920.55 1476.35 922.31C1477.23 924.07 1477.67 926.16 1477.67 928.58C1477.67 932.393 1476.79 935.693 1475.03 938.48C1473.27 941.193 1470.92 943.32 1467.99 944.86C1465.06 946.327 1461.76 947.06 1458.09 947.06C1456.77 947.06 1455.41 946.913 1454.02 946.62C1452.63 946.253 1451.31 945.777 1450.06 945.19C1449.18 945.997 1448.37 946.877 1447.64 947.83C1446.98 948.783 1446.65 950.03 1446.65 951.57C1446.65 953.257 1447.31 954.65 1448.63 955.75C1450.02 956.85 1452.52 957.4 1456.11 957.4H1466.45C1472.68 957.4 1477.34 958.427 1480.42 960.48C1483.57 962.46 1485.15 965.687 1485.15 970.16C1485.15 973.46 1484.05 976.503 1481.85 979.29C1479.65 982.077 1476.5 984.313 1472.39 986C1468.36 987.76 1463.59 988.64 1458.09 988.64ZM1458.09 941.01C1460.14 941.01 1462.01 940.497 1463.7 939.47C1465.46 938.37 1466.85 936.867 1467.88 934.96C1468.91 933.053 1469.42 930.817 1469.42 928.25C1469.42 924.29 1468.32 921.247 1466.12 919.12C1463.92 916.92 1461.24 915.82 1458.09 915.82C1454.94 915.82 1452.26 916.92 1450.06 919.12C1447.86 921.247 1446.76 924.29 1446.76 928.25C1446.76 930.817 1447.27 933.053 1448.3 934.96C1449.33 936.867 1450.68 938.37 1452.37 939.47C1454.13 940.497 1456.04 941.01 1458.09 941.01ZM1459.41 982.37C1462.78 982.37 1465.72 981.857 1468.21 980.83C1470.78 979.803 1472.76 978.447 1474.15 976.76C1475.62 975.073 1476.35 973.313 1476.35 971.48C1476.35 968.987 1475.4 967.263 1473.49 966.31C1471.66 965.357 1469.02 964.88 1465.57 964.88H1456.33C1455.3 964.88 1454.17 964.807 1452.92 964.66C1451.75 964.513 1450.57 964.293 1449.4 964C1447.42 965.393 1445.99 966.86 1445.11 968.4C1444.3 969.94 1443.9 971.48 1443.9 973.02C1443.9 975.88 1445.26 978.153 1447.97 979.84C1450.76 981.527 1454.57 982.37 1459.41 982.37ZM1495.48 964V910.54H1502.96L1503.73 920.22H1504.06C1505.82 916.847 1508.02 914.17 1510.66 912.19C1513.3 910.21 1516.16 909.22 1519.24 909.22C1520.41 909.22 1521.44 909.293 1522.32 909.44C1523.2 909.587 1524.08 909.88 1524.96 910.32L1522.98 918.02C1522.17 917.8 1521.4 917.653 1520.67 917.58C1520.01 917.433 1519.13 917.36 1518.03 917.36C1515.76 917.36 1513.37 918.277 1510.88 920.11C1508.46 921.943 1506.33 925.133 1504.5 929.68V964H1495.48ZM1543.36 965.32C1540.42 965.32 1537.75 964.733 1535.33 963.56C1532.98 962.313 1531.11 960.59 1529.72 958.39C1528.32 956.117 1527.63 953.367 1527.63 950.14C1527.63 944.127 1530.27 939.58 1535.55 936.5C1540.83 933.42 1549.19 931.257 1560.63 930.01C1560.55 927.81 1560.19 925.683 1559.53 923.63C1558.94 921.577 1557.84 919.927 1556.23 918.68C1554.61 917.433 1552.38 916.81 1549.52 916.81C1546.44 916.81 1543.54 917.397 1540.83 918.57C1538.11 919.67 1535.69 920.917 1533.57 922.31L1530.05 916.15C1531.66 915.05 1533.57 913.987 1535.77 912.96C1537.97 911.86 1540.35 910.98 1542.92 910.32C1545.48 909.587 1548.2 909.22 1551.06 909.22C1555.38 909.22 1558.9 910.137 1561.62 911.97C1564.4 913.73 1566.42 916.26 1567.67 919.56C1568.99 922.86 1569.65 926.747 1569.65 931.22V964H1562.17L1561.4 957.62H1561.07C1558.5 959.747 1555.75 961.58 1552.82 963.12C1549.88 964.587 1546.73 965.32 1543.36 965.32ZM1545.89 957.84C1548.53 957.84 1550.98 957.253 1553.26 956.08C1555.6 954.907 1558.06 953.183 1560.63 950.91V936.5C1554.61 937.233 1549.85 938.187 1546.33 939.36C1542.88 940.46 1540.39 941.853 1538.85 943.54C1537.31 945.227 1536.54 947.243 1536.54 949.59C1536.54 952.523 1537.45 954.65 1539.29 955.97C1541.12 957.217 1543.32 957.84 1545.89 957.84ZM1607.7 965.32C1602.93 965.32 1598.64 964.22 1594.83 962.02C1591.01 959.82 1588.01 956.63 1585.81 952.45C1583.61 948.27 1582.51 943.247 1582.51 937.38C1582.51 931.367 1583.68 926.27 1586.03 922.09C1588.45 917.91 1591.6 914.72 1595.49 912.52C1599.45 910.32 1603.7 909.22 1608.25 909.22C1611.77 909.22 1614.77 909.807 1617.27 910.98C1619.83 912.153 1622.03 913.657 1623.87 915.49L1619.36 921.1C1618.04 919.78 1616.46 918.753 1614.63 918.02C1612.87 917.213 1610.85 916.81 1608.58 916.81C1605.42 916.81 1602.56 917.69 1600 919.45C1597.5 921.137 1595.52 923.52 1594.06 926.6C1592.59 929.68 1591.86 933.273 1591.86 937.38C1591.86 941.413 1592.55 944.97 1593.95 948.05C1595.34 951.13 1597.28 953.55 1599.78 955.31C1602.27 956.997 1605.17 957.84 1608.47 957.84C1610.96 957.84 1613.27 957.363 1615.4 956.41C1617.52 955.457 1619.36 954.247 1620.9 952.78L1624.86 958.28C1622.58 960.407 1620.02 962.13 1617.16 963.45C1614.3 964.697 1611.14 965.32 1607.7 965.32ZM1597.14 988.86L1596.26 984.46C1600.88 984.093 1604.03 983.47 1605.72 982.59C1607.4 981.783 1608.25 980.573 1608.25 978.96C1608.25 977.493 1607.62 976.357 1606.38 975.55C1605.13 974.743 1602.93 974.12 1599.78 973.68L1604.62 963.67H1610.45L1607.26 971.04C1609.82 971.627 1611.8 972.507 1613.2 973.68C1614.59 974.853 1615.29 976.577 1615.29 978.85C1615.29 982.003 1613.71 984.387 1610.56 986C1607.48 987.613 1603 988.567 1597.14 988.86ZM1647.88 965.32C1644.95 965.32 1642.27 964.733 1639.85 963.56C1637.5 962.313 1635.63 960.59 1634.24 958.39C1632.85 956.117 1632.15 953.367 1632.15 950.14C1632.15 944.127 1634.79 939.58 1640.07 936.5C1645.35 933.42 1653.71 931.257 1665.15 930.01C1665.08 927.81 1664.71 925.683 1664.05 923.63C1663.46 921.577 1662.36 919.927 1660.75 918.68C1659.14 917.433 1656.9 916.81 1654.04 916.81C1650.96 916.81 1648.06 917.397 1645.35 918.57C1642.64 919.67 1640.22 920.917 1638.09 922.31L1634.57 916.15C1636.18 915.05 1638.09 913.987 1640.29 912.96C1642.49 911.86 1644.87 910.98 1647.44 910.32C1650.01 909.587 1652.72 909.22 1655.58 909.22C1659.91 909.22 1663.43 910.137 1666.14 911.97C1668.93 913.73 1670.94 916.26 1672.19 919.56C1673.51 922.86 1674.17 926.747 1674.17 931.22V964H1666.69L1665.92 957.62H1665.59C1663.02 959.747 1660.27 961.58 1657.34 963.12C1654.41 964.587 1651.25 965.32 1647.88 965.32ZM1650.41 957.84C1653.05 957.84 1655.51 957.253 1657.78 956.08C1660.13 954.907 1662.58 953.183 1665.15 950.91V936.5C1659.14 937.233 1654.37 938.187 1650.85 939.36C1647.4 940.46 1644.91 941.853 1643.37 943.54C1641.83 945.227 1641.06 947.243 1641.06 949.59C1641.06 952.523 1641.98 954.65 1643.81 955.97C1645.64 957.217 1647.84 957.84 1650.41 957.84ZM1663.83 900.53C1661.92 900.53 1660.24 900.09 1658.77 899.21C1657.38 898.257 1656.09 897.157 1654.92 895.91C1653.75 894.663 1652.61 893.6 1651.51 892.72C1650.48 891.767 1649.35 891.29 1648.1 891.29C1646.49 891.29 1645.28 892.097 1644.47 893.71C1643.66 895.25 1643.15 897.34 1642.93 899.98L1636.88 899.65C1636.95 896.717 1637.39 894.15 1638.2 891.95C1639.01 889.677 1640.18 887.917 1641.72 886.67C1643.33 885.35 1645.42 884.69 1647.99 884.69C1649.97 884.69 1651.66 885.167 1653.05 886.12C1654.44 887 1655.73 888.063 1656.9 889.31C1658.07 890.557 1659.17 891.657 1660.2 892.61C1661.3 893.49 1662.51 893.93 1663.83 893.93C1665.44 893.93 1666.65 893.123 1667.46 891.51C1668.27 889.897 1668.74 887.807 1668.89 885.24L1674.94 885.68C1674.87 888.467 1674.43 890.997 1673.62 893.27C1672.81 895.47 1671.6 897.23 1669.99 898.55C1668.45 899.87 1666.4 900.53 1663.83 900.53ZM1711.78 965.32C1707.45 965.32 1703.38 964.22 1699.57 962.02C1695.83 959.82 1692.79 956.63 1690.44 952.45C1688.17 948.27 1687.03 943.247 1687.03 937.38C1687.03 931.367 1688.17 926.27 1690.44 922.09C1692.79 917.91 1695.83 914.72 1699.57 912.52C1703.38 910.32 1707.45 909.22 1711.78 909.22C1716.18 909.22 1720.25 910.32 1723.99 912.52C1727.73 914.72 1730.74 917.91 1733.01 922.09C1735.36 926.27 1736.53 931.367 1736.53 937.38C1736.53 943.247 1735.36 948.27 1733.01 952.45C1730.74 956.63 1727.73 959.82 1723.99 962.02C1720.25 964.22 1716.18 965.32 1711.78 965.32ZM1711.78 957.84C1714.86 957.84 1717.57 956.997 1719.92 955.31C1722.27 953.55 1724.06 951.13 1725.31 948.05C1726.56 944.97 1727.18 941.413 1727.18 937.38C1727.18 933.273 1726.56 929.68 1725.31 926.6C1724.06 923.447 1722.27 921.027 1719.92 919.34C1717.57 917.58 1714.86 916.7 1711.78 916.7C1708.7 916.7 1705.99 917.58 1703.64 919.34C1701.37 921.027 1699.57 923.447 1698.25 926.6C1697 929.68 1696.38 933.273 1696.38 937.38C1696.38 941.413 1697 944.97 1698.25 948.05C1699.57 951.13 1701.37 953.55 1703.64 955.31C1705.99 956.997 1708.7 957.84 1711.78 957.84ZM1755.34 925.61C1753.58 925.61 1752.04 924.987 1750.72 923.74C1749.4 922.42 1748.74 920.77 1748.74 918.79C1748.74 916.663 1749.4 914.977 1750.72 913.73C1752.04 912.41 1753.58 911.75 1755.34 911.75C1757.17 911.75 1758.71 912.41 1759.96 913.73C1761.2 914.977 1761.83 916.663 1761.83 918.79C1761.83 920.77 1761.2 922.42 1759.96 923.74C1758.71 924.987 1757.17 925.61 1755.34 925.61ZM1755.34 965.32C1753.58 965.32 1752.04 964.697 1750.72 963.45C1749.4 962.13 1748.74 960.48 1748.74 958.5C1748.74 956.373 1749.4 954.687 1750.72 953.44C1752.04 952.12 1753.58 951.46 1755.34 951.46C1757.17 951.46 1758.71 952.12 1759.96 953.44C1761.2 954.687 1761.83 956.373 1761.83 958.5C1761.83 960.48 1761.2 962.13 1759.96 963.45C1758.71 964.697 1757.17 965.32 1755.34 965.32ZM1821.69 965.32C1816.93 965.32 1812.56 964.22 1808.6 962.02C1804.72 959.747 1801.64 956.557 1799.36 952.45C1797.09 948.27 1795.95 943.21 1795.95 937.27C1795.95 931.477 1797.13 926.49 1799.47 922.31C1801.82 918.13 1804.83 914.903 1808.49 912.63C1812.16 910.357 1816.05 909.22 1820.15 909.22C1824.7 909.22 1828.55 910.283 1831.7 912.41C1834.93 914.463 1837.35 917.36 1838.96 921.1C1840.58 924.84 1841.38 929.24 1841.38 934.3C1841.38 935.253 1841.35 936.17 1841.27 937.05C1841.27 937.93 1841.16 938.81 1840.94 939.69H1802.44V932.54H1833.24C1833.24 927.407 1832.11 923.483 1829.83 920.77C1827.63 917.983 1824.44 916.59 1820.26 916.59C1817.84 916.59 1815.46 917.287 1813.11 918.68C1810.77 920 1808.82 922.163 1807.28 925.17C1805.82 928.177 1805.08 932.173 1805.08 937.16C1805.08 941.707 1805.85 945.52 1807.39 948.6C1809.01 951.68 1811.17 954.027 1813.88 955.64C1816.6 957.18 1819.57 957.95 1822.79 957.95C1825.36 957.95 1827.74 957.583 1829.94 956.85C1832.22 956.117 1834.27 955.127 1836.1 953.88L1839.4 959.82C1837.06 961.433 1834.42 962.753 1831.48 963.78C1828.62 964.807 1825.36 965.32 1821.69 965.32ZM1864.16 964.99C1861.89 964.99 1860.06 964.55 1858.66 963.67C1857.27 962.717 1856.24 961.36 1855.58 959.6C1854.92 957.767 1854.59 955.567 1854.59 953V885.68H1863.61V953.66C1863.61 955.127 1863.87 956.153 1864.38 956.74C1864.9 957.253 1865.52 957.51 1866.25 957.51C1866.55 957.51 1866.8 957.51 1867.02 957.51C1867.32 957.437 1867.68 957.363 1868.12 957.29L1869.44 964.11C1868.78 964.33 1868.01 964.513 1867.13 964.66C1866.33 964.88 1865.34 964.99 1864.16 964.99ZM1904.3 965.32C1899.53 965.32 1895.17 964.22 1891.21 962.02C1887.32 959.747 1884.24 956.557 1881.97 952.45C1879.7 948.27 1878.56 943.21 1878.56 937.27C1878.56 931.477 1879.73 926.49 1882.08 922.31C1884.43 918.13 1887.43 914.903 1891.1 912.63C1894.77 910.357 1898.65 909.22 1902.76 909.22C1907.31 909.22 1911.16 910.283 1914.31 912.41C1917.54 914.463 1919.96 917.36 1921.57 921.1C1923.18 924.84 1923.99 929.24 1923.99 934.3C1923.99 935.253 1923.95 936.17 1923.88 937.05C1923.88 937.93 1923.77 938.81 1923.55 939.69H1885.05V932.54H1915.85C1915.85 927.407 1914.71 923.483 1912.44 920.77C1910.24 917.983 1907.05 916.59 1902.87 916.59C1900.45 916.59 1898.07 917.287 1895.72 918.68C1893.37 920 1891.43 922.163 1889.89 925.17C1888.42 928.177 1887.69 932.173 1887.69 937.16C1887.69 941.707 1888.46 945.52 1890 948.6C1891.61 951.68 1893.78 954.027 1896.49 955.64C1899.2 957.18 1902.17 957.95 1905.4 957.95C1907.97 957.95 1910.35 957.583 1912.55 956.85C1914.82 956.117 1916.88 955.127 1918.71 953.88L1922.01 959.82C1919.66 961.433 1917.02 962.753 1914.09 963.78C1911.23 964.807 1907.97 965.32 1904.3 965.32ZM1951.17 965.32C1947.28 965.32 1943.58 964.66 1940.06 963.34C1936.61 961.947 1933.68 960.04 1931.26 957.62L1935.44 952.34C1937.79 954.247 1940.21 955.713 1942.7 956.74C1945.27 957.767 1948.2 958.28 1951.5 958.28C1955.02 958.28 1957.66 957.473 1959.42 955.86C1961.18 954.173 1962.06 952.193 1962.06 949.92C1962.06 948.087 1961.44 946.583 1960.19 945.41C1959.02 944.163 1957.51 943.137 1955.68 942.33C1953.92 941.45 1952.01 940.643 1949.96 939.91C1947.32 938.957 1944.79 937.857 1942.37 936.61C1939.95 935.29 1937.97 933.677 1936.43 931.77C1934.96 929.79 1934.23 927.333 1934.23 924.4C1934.23 920.073 1935.84 916.48 1939.07 913.62C1942.37 910.687 1946.92 909.22 1952.71 909.22C1956.01 909.22 1959.09 909.807 1961.95 910.98C1964.81 912.08 1967.27 913.51 1969.32 915.27L1965.14 920.44C1963.23 919.12 1961.29 918.093 1959.31 917.36C1957.33 916.627 1955.13 916.26 1952.71 916.26C1949.34 916.26 1946.84 917.03 1945.23 918.57C1943.69 920.11 1942.92 921.907 1942.92 923.96C1942.92 925.573 1943.4 926.93 1944.35 928.03C1945.3 929.057 1946.62 929.973 1948.31 930.78C1950.07 931.587 1952.05 932.357 1954.25 933.09C1957.04 934.117 1959.68 935.29 1962.17 936.61C1964.74 937.857 1966.79 939.507 1968.33 941.56C1969.94 943.54 1970.75 946.143 1970.75 949.37C1970.75 952.303 1969.98 954.98 1968.44 957.4C1966.97 959.747 1964.77 961.653 1961.84 963.12C1958.98 964.587 1955.42 965.32 1951.17 965.32ZM2005.31 986.55V910.54H2012.79L2013.56 916.7H2013.89C2016.31 914.647 2018.98 912.887 2021.92 911.42C2024.85 909.953 2027.86 909.22 2030.94 909.22C2035.48 909.22 2039.33 910.357 2042.49 912.63C2045.64 914.83 2048.02 917.983 2049.64 922.09C2051.25 926.123 2052.06 930.927 2052.06 936.5C2052.06 942.513 2050.96 947.683 2048.76 952.01C2046.63 956.337 2043.81 959.637 2040.29 961.91C2036.77 964.183 2032.99 965.32 2028.96 965.32C2026.54 965.32 2024.08 964.77 2021.59 963.67C2019.09 962.57 2016.6 961.067 2014.11 959.16L2014.33 968.51V986.55H2005.31ZM2027.42 957.73C2030.35 957.73 2032.95 956.887 2035.23 955.2C2037.57 953.513 2039.41 951.093 2040.73 947.94C2042.05 944.713 2042.71 940.9 2042.71 936.5C2042.71 932.613 2042.23 929.203 2041.28 926.27C2040.32 923.263 2038.82 920.953 2036.77 919.34C2034.71 917.653 2032 916.81 2028.63 916.81C2026.43 916.81 2024.15 917.433 2021.81 918.68C2019.46 919.853 2016.97 921.65 2014.33 924.07V952.12C2016.82 954.173 2019.17 955.64 2021.37 956.52C2023.64 957.327 2025.66 957.73 2027.42 957.73ZM2066.32 964V910.54H2073.8L2074.57 920.22H2074.9C2076.66 916.847 2078.86 914.17 2081.5 912.19C2084.14 910.21 2087 909.22 2090.08 909.22C2091.25 909.22 2092.28 909.293 2093.16 909.44C2094.04 909.587 2094.92 909.88 2095.8 910.32L2093.82 918.02C2093.01 917.8 2092.24 917.653 2091.51 917.58C2090.85 917.433 2089.97 917.36 2088.87 917.36C2086.6 917.36 2084.21 918.277 2081.72 920.11C2079.3 921.943 2077.17 925.133 2075.34 929.68V964H2066.32ZM2124.17 965.32C2119.84 965.32 2115.77 964.22 2111.96 962.02C2108.22 959.82 2105.18 956.63 2102.83 952.45C2100.56 948.27 2099.42 943.247 2099.42 937.38C2099.42 931.367 2100.56 926.27 2102.83 922.09C2105.18 917.91 2108.22 914.72 2111.96 912.52C2115.77 910.32 2119.84 909.22 2124.17 909.22C2128.57 909.22 2132.64 910.32 2136.38 912.52C2140.12 914.72 2143.13 917.91 2145.4 922.09C2147.75 926.27 2148.92 931.367 2148.92 937.38C2148.92 943.247 2147.75 948.27 2145.4 952.45C2143.13 956.63 2140.12 959.82 2136.38 962.02C2132.64 964.22 2128.57 965.32 2124.17 965.32ZM2124.17 957.84C2127.25 957.84 2129.96 956.997 2132.31 955.31C2134.66 953.55 2136.45 951.13 2137.7 948.05C2138.95 944.97 2139.57 941.413 2139.57 937.38C2139.57 933.273 2138.95 929.68 2137.7 926.6C2136.45 923.447 2134.66 921.027 2132.31 919.34C2129.96 917.58 2127.25 916.7 2124.17 916.7C2121.09 916.7 2118.38 917.58 2116.03 919.34C2113.76 921.027 2111.96 923.447 2110.64 926.6C2109.39 929.68 2108.77 933.273 2108.77 937.38C2108.77 941.413 2109.39 944.97 2110.64 948.05C2111.96 951.13 2113.76 953.55 2116.03 955.31C2118.38 956.997 2121.09 957.84 2124.17 957.84ZM2115.7 901.3L2129.89 883.15H2139.79L2140.34 884.14L2122.96 901.3H2115.7ZM2163 986.55V910.54H2170.48L2171.25 916.7H2171.58C2174 914.647 2176.68 912.887 2179.61 911.42C2182.54 909.953 2185.55 909.22 2188.63 909.22C2193.18 909.22 2197.03 910.357 2200.18 912.63C2203.33 914.83 2205.72 917.983 2207.33 922.09C2208.94 926.123 2209.75 930.927 2209.75 936.5C2209.75 942.513 2208.65 947.683 2206.45 952.01C2204.32 956.337 2201.5 959.637 2197.98 961.91C2194.46 964.183 2190.68 965.32 2186.65 965.32C2184.23 965.32 2181.77 964.77 2179.28 963.67C2176.79 962.57 2174.29 961.067 2171.8 959.16L2172.02 968.51V986.55H2163ZM2185.11 957.73C2188.04 957.73 2190.65 956.887 2192.92 955.2C2195.27 953.513 2197.1 951.093 2198.42 947.94C2199.74 944.713 2200.4 940.9 2200.4 936.5C2200.4 932.613 2199.92 929.203 2198.97 926.27C2198.02 923.263 2196.51 920.953 2194.46 919.34C2192.41 917.653 2189.69 916.81 2186.32 916.81C2184.12 916.81 2181.85 917.433 2179.5 918.68C2177.15 919.853 2174.66 921.65 2172.02 924.07V952.12C2174.51 954.173 2176.86 955.64 2179.06 956.52C2181.33 957.327 2183.35 957.73 2185.11 957.73ZM2224.02 964V910.54H2231.5L2232.27 920.22H2232.6C2234.36 916.847 2236.56 914.17 2239.2 912.19C2241.84 910.21 2244.7 909.22 2247.78 909.22C2248.95 909.22 2249.98 909.293 2250.86 909.44C2251.74 909.587 2252.62 909.88 2253.5 910.32L2251.52 918.02C2250.71 917.8 2249.94 917.653 2249.21 917.58C2248.55 917.433 2247.67 917.36 2246.57 917.36C2244.29 917.36 2241.91 918.277 2239.42 920.11C2237 921.943 2234.87 925.133 2233.04 929.68V964H2224.02ZM2262.15 964V910.54H2271.17V964H2262.15ZM2266.66 899.54C2264.9 899.54 2263.43 898.99 2262.26 897.89C2261.16 896.79 2260.61 895.36 2260.61 893.6C2260.61 891.84 2261.16 890.41 2262.26 889.31C2263.43 888.21 2264.9 887.66 2266.66 887.66C2268.42 887.66 2269.85 888.21 2270.95 889.31C2272.12 890.41 2272.71 891.84 2272.71 893.6C2272.71 895.36 2272.12 896.79 2270.95 897.89C2269.85 898.99 2268.42 899.54 2266.66 899.54ZM2310.01 965.32C2305.68 965.32 2301.61 964.22 2297.8 962.02C2294.06 959.82 2291.02 956.63 2288.67 952.45C2286.4 948.27 2285.26 943.247 2285.26 937.38C2285.26 931.367 2286.4 926.27 2288.67 922.09C2291.02 917.91 2294.06 914.72 2297.8 912.52C2301.61 910.32 2305.68 909.22 2310.01 909.22C2314.41 909.22 2318.48 910.32 2322.22 912.52C2325.96 914.72 2328.97 917.91 2331.24 922.09C2333.59 926.27 2334.76 931.367 2334.76 937.38C2334.76 943.247 2333.59 948.27 2331.24 952.45C2328.97 956.63 2325.96 959.82 2322.22 962.02C2318.48 964.22 2314.41 965.32 2310.01 965.32ZM2310.01 957.84C2313.09 957.84 2315.8 956.997 2318.15 955.31C2320.5 953.55 2322.29 951.13 2323.54 948.05C2324.79 944.97 2325.41 941.413 2325.41 937.38C2325.41 933.273 2324.79 929.68 2323.54 926.6C2322.29 923.447 2320.5 921.027 2318.15 919.34C2315.8 917.58 2313.09 916.7 2310.01 916.7C2306.93 916.7 2304.22 917.58 2301.87 919.34C2299.6 921.027 2297.8 923.447 2296.48 926.6C2295.23 929.68 2294.61 933.273 2294.61 937.38C2294.61 941.413 2295.23 944.97 2296.48 948.05C2297.8 951.13 2299.6 953.55 2301.87 955.31C2304.22 956.997 2306.93 957.84 2310.01 957.84ZM2362.6 965.32C2358.71 965.32 2355.01 964.66 2351.49 963.34C2348.04 961.947 2345.11 960.04 2342.69 957.62L2346.87 952.34C2349.21 954.247 2351.63 955.713 2354.13 956.74C2356.69 957.767 2359.63 958.28 2362.93 958.28C2366.45 958.28 2369.09 957.473 2370.85 955.86C2372.61 954.173 2373.49 952.193 2373.49 949.92C2373.49 948.087 2372.86 946.583 2371.62 945.41C2370.44 944.163 2368.94 943.137 2367.11 942.33C2365.35 941.45 2363.44 940.643 2361.39 939.91C2358.75 938.957 2356.22 937.857 2353.8 936.61C2351.38 935.29 2349.4 933.677 2347.86 931.77C2346.39 929.79 2345.66 927.333 2345.66 924.4C2345.66 920.073 2347.27 916.48 2350.5 913.62C2353.8 910.687 2358.34 909.22 2364.14 909.22C2367.44 909.22 2370.52 909.807 2373.38 910.98C2376.24 912.08 2378.69 913.51 2380.75 915.27L2376.57 920.44C2374.66 919.12 2372.72 918.093 2370.74 917.36C2368.76 916.627 2366.56 916.26 2364.14 916.26C2360.76 916.26 2358.27 917.03 2356.66 918.57C2355.12 920.11 2354.35 921.907 2354.35 923.96C2354.35 925.573 2354.82 926.93 2355.78 928.03C2356.73 929.057 2358.05 929.973 2359.74 930.78C2361.5 931.587 2363.48 932.357 2365.68 933.09C2368.46 934.117 2371.1 935.29 2373.6 936.61C2376.16 937.857 2378.22 939.507 2379.76 941.56C2381.37 943.54 2382.18 946.143 2382.18 949.37C2382.18 952.303 2381.41 954.98 2379.87 957.4C2378.4 959.747 2376.2 961.653 2373.27 963.12C2370.41 964.587 2366.85 965.32 2362.6 965.32ZM2437.96 965.32C2433.19 965.32 2428.9 964.22 2425.09 962.02C2421.28 959.82 2418.27 956.63 2416.07 952.45C2413.87 948.27 2412.77 943.247 2412.77 937.38C2412.77 931.367 2413.94 926.27 2416.29 922.09C2418.71 917.91 2421.86 914.72 2425.75 912.52C2429.71 910.32 2433.96 909.22 2438.51 909.22C2442.03 909.22 2445.04 909.807 2447.53 910.98C2450.1 912.153 2452.3 913.657 2454.13 915.49L2449.62 921.1C2448.3 919.78 2446.72 918.753 2444.89 918.02C2443.13 917.213 2441.11 916.81 2438.84 916.81C2435.69 916.81 2432.83 917.69 2430.26 919.45C2427.77 921.137 2425.79 923.52 2424.32 926.6C2422.85 929.68 2422.12 933.273 2422.12 937.38C2422.12 941.413 2422.82 944.97 2424.21 948.05C2425.6 951.13 2427.55 953.55 2430.04 955.31C2432.53 956.997 2435.43 957.84 2438.73 957.84C2441.22 957.84 2443.53 957.363 2445.66 956.41C2447.79 955.457 2449.62 954.247 2451.16 952.78L2455.12 958.28C2452.85 960.407 2450.28 962.13 2447.42 963.45C2444.56 964.697 2441.41 965.32 2437.96 965.32ZM2485.43 965.32C2481.1 965.32 2477.03 964.22 2473.22 962.02C2469.48 959.82 2466.44 956.63 2464.09 952.45C2461.82 948.27 2460.68 943.247 2460.68 937.38C2460.68 931.367 2461.82 926.27 2464.09 922.09C2466.44 917.91 2469.48 914.72 2473.22 912.52C2477.03 910.32 2481.1 909.22 2485.43 909.22C2489.83 909.22 2493.9 910.32 2497.64 912.52C2501.38 914.72 2504.39 917.91 2506.66 922.09C2509.01 926.27 2510.18 931.367 2510.18 937.38C2510.18 943.247 2509.01 948.27 2506.66 952.45C2504.39 956.63 2501.38 959.82 2497.64 962.02C2493.9 964.22 2489.83 965.32 2485.43 965.32ZM2485.43 957.84C2488.51 957.84 2491.22 956.997 2493.57 955.31C2495.92 953.55 2497.71 951.13 2498.96 948.05C2500.21 944.97 2500.83 941.413 2500.83 937.38C2500.83 933.273 2500.21 929.68 2498.96 926.6C2497.71 923.447 2495.92 921.027 2493.57 919.34C2491.22 917.58 2488.51 916.7 2485.43 916.7C2482.35 916.7 2479.64 917.58 2477.29 919.34C2475.02 921.027 2473.22 923.447 2471.9 926.6C2470.65 929.68 2470.03 933.273 2470.03 937.38C2470.03 941.413 2470.65 944.97 2471.9 948.05C2473.22 951.13 2475.02 953.55 2477.29 955.31C2479.64 956.997 2482.35 957.84 2485.43 957.84ZM2524.26 964V910.54H2531.74L2532.51 918.24H2532.84C2535.41 915.673 2538.12 913.547 2540.98 911.86C2543.84 910.1 2547.1 909.22 2550.77 909.22C2556.42 909.22 2560.52 911.017 2563.09 914.61C2565.73 918.13 2567.05 923.3 2567.05 930.12V964H2558.03V931.33C2558.03 926.27 2557.22 922.64 2555.61 920.44C2554.07 918.167 2551.5 917.03 2547.91 917.03C2545.2 917.03 2542.74 917.727 2540.54 919.12C2538.41 920.513 2535.99 922.567 2533.28 925.28V964H2524.26ZM2601.25 964.99C2595.6 964.99 2591.64 963.34 2589.37 960.04C2587.09 956.74 2585.96 952.45 2585.96 947.17V917.91H2578.04V911.09L2586.4 910.54L2587.5 893.38H2595.09V910.54H2609.61V917.91H2595.09V947.28C2595.09 950.507 2595.67 953.037 2596.85 954.87C2598.09 956.703 2600.26 957.62 2603.34 957.62C2604.29 957.62 2605.28 957.547 2606.31 957.4C2607.33 957.18 2608.36 956.813 2609.39 956.3L2611.37 962.68C2609.97 963.34 2608.4 963.89 2606.64 964.33C2604.88 964.77 2603.08 964.99 2601.25 964.99ZM2621.58 964V910.54H2629.06L2629.83 920.22H2630.16C2631.92 916.847 2634.12 914.17 2636.76 912.19C2639.4 910.21 2642.26 909.22 2645.34 909.22C2646.52 909.22 2647.54 909.293 2648.42 909.44C2649.3 909.587 2650.18 909.88 2651.06 910.32L2649.08 918.02C2648.28 917.8 2647.51 917.653 2646.77 917.58C2646.11 917.433 2645.23 917.36 2644.13 917.36C2641.86 917.36 2639.48 918.277 2636.98 920.11C2634.56 921.943 2632.44 925.133 2630.6 929.68V964H2621.58ZM2679.44 965.32C2675.11 965.32 2671.04 964.22 2667.23 962.02C2663.49 959.82 2660.44 956.63 2658.1 952.45C2655.82 948.27 2654.69 943.247 2654.69 937.38C2654.69 931.367 2655.82 926.27 2658.1 922.09C2660.44 917.91 2663.49 914.72 2667.23 912.52C2671.04 910.32 2675.11 909.22 2679.44 909.22C2683.84 909.22 2687.91 910.32 2691.65 912.52C2695.39 914.72 2698.39 917.91 2700.67 922.09C2703.01 926.27 2704.19 931.367 2704.19 937.38C2704.19 943.247 2703.01 948.27 2700.67 952.45C2698.39 956.63 2695.39 959.82 2691.65 962.02C2687.91 964.22 2683.84 965.32 2679.44 965.32ZM2679.44 957.84C2682.52 957.84 2685.23 956.997 2687.58 955.31C2689.92 953.55 2691.72 951.13 2692.97 948.05C2694.21 944.97 2694.84 941.413 2694.84 937.38C2694.84 933.273 2694.21 929.68 2692.97 926.6C2691.72 923.447 2689.92 921.027 2687.58 919.34C2685.23 917.58 2682.52 916.7 2679.44 916.7C2676.36 916.7 2673.64 917.58 2671.3 919.34C2669.02 921.027 2667.23 923.447 2665.91 926.6C2664.66 929.68 2664.04 933.273 2664.04 937.38C2664.04 941.413 2664.66 944.97 2665.91 948.05C2667.23 951.13 2669.02 953.55 2671.3 955.31C2673.64 956.997 2676.36 957.84 2679.44 957.84ZM2727.83 964.99C2725.56 964.99 2723.73 964.55 2722.33 963.67C2720.94 962.717 2719.91 961.36 2719.25 959.6C2718.59 957.767 2718.26 955.567 2718.26 953V885.68H2727.28V953.66C2727.28 955.127 2727.54 956.153 2728.05 956.74C2728.57 957.253 2729.19 957.51 2729.92 957.51C2730.22 957.51 2730.47 957.51 2730.69 957.51C2730.99 957.437 2731.35 957.363 2731.79 957.29L2733.11 964.11C2732.45 964.33 2731.68 964.513 2730.8 964.66C2730 964.88 2729.01 964.99 2727.83 964.99ZM2758.62 965.32C2755.69 965.32 2753.01 964.733 2750.59 963.56C2748.24 962.313 2746.37 960.59 2744.98 958.39C2743.59 956.117 2742.89 953.367 2742.89 950.14C2742.89 944.127 2745.53 939.58 2750.81 936.5C2756.09 933.42 2764.45 931.257 2775.89 930.01C2775.82 927.81 2775.45 925.683 2774.79 923.63C2774.2 921.577 2773.1 919.927 2771.49 918.68C2769.88 917.433 2767.64 916.81 2764.78 916.81C2761.7 916.81 2758.8 917.397 2756.09 918.57C2753.38 919.67 2750.96 920.917 2748.83 922.31L2745.31 916.15C2746.92 915.05 2748.83 913.987 2751.03 912.96C2753.23 911.86 2755.61 910.98 2758.18 910.32C2760.75 909.587 2763.46 909.22 2766.32 909.22C2770.65 909.22 2774.17 910.137 2776.88 911.97C2779.67 913.73 2781.68 916.26 2782.93 919.56C2784.25 922.86 2784.91 926.747 2784.91 931.22V964H2777.43L2776.66 957.62H2776.33C2773.76 959.747 2771.01 961.58 2768.08 963.12C2765.15 964.587 2761.99 965.32 2758.62 965.32ZM2761.15 957.84C2763.79 957.84 2766.25 957.253 2768.52 956.08C2770.87 954.907 2773.32 953.183 2775.89 950.91V936.5C2769.88 937.233 2765.11 938.187 2761.59 939.36C2758.14 940.46 2755.65 941.853 2754.11 943.54C2752.57 945.227 2751.8 947.243 2751.8 949.59C2751.8 952.523 2752.72 954.65 2754.55 955.97C2756.38 957.217 2758.58 957.84 2761.15 957.84ZM2801.73 964V910.54H2809.21L2809.98 918.24H2810.31C2812.66 915.747 2815.19 913.62 2817.9 911.86C2820.69 910.1 2823.69 909.22 2826.92 909.22C2831.03 909.22 2834.22 910.137 2836.49 911.97C2838.84 913.803 2840.56 916.297 2841.66 919.45C2844.45 916.37 2847.27 913.913 2850.13 912.08C2852.99 910.173 2856.03 909.22 2859.26 909.22C2864.83 909.22 2868.94 911.017 2871.58 914.61C2874.22 918.13 2875.54 923.3 2875.54 930.12V964H2866.52V931.33C2866.52 926.27 2865.71 922.64 2864.1 920.44C2862.49 918.167 2859.99 917.03 2856.62 917.03C2854.49 917.03 2852.33 917.727 2850.13 919.12C2848 920.44 2845.69 922.493 2843.2 925.28V964H2834.18V931.33C2834.18 926.27 2833.37 922.64 2831.76 920.44C2830.15 918.167 2827.62 917.03 2824.17 917.03C2820.14 917.03 2815.66 919.78 2810.75 925.28V964H2801.73ZM2928.92 965.32C2925.04 965.32 2921.33 964.66 2917.81 963.34C2914.37 961.947 2911.43 960.04 2909.01 957.62L2913.19 952.34C2915.54 954.247 2917.96 955.713 2920.45 956.74C2923.02 957.767 2925.95 958.28 2929.25 958.28C2932.77 958.28 2935.41 957.473 2937.17 955.86C2938.93 954.173 2939.81 952.193 2939.81 949.92C2939.81 948.087 2939.19 946.583 2937.94 945.41C2936.77 944.163 2935.27 943.137 2933.43 942.33C2931.67 941.45 2929.77 940.643 2927.71 939.91C2925.07 938.957 2922.54 937.857 2920.12 936.61C2917.7 935.29 2915.72 933.677 2914.18 931.77C2912.72 929.79 2911.98 927.333 2911.98 924.4C2911.98 920.073 2913.6 916.48 2916.82 913.62C2920.12 910.687 2924.67 909.22 2930.46 909.22C2933.76 909.22 2936.84 909.807 2939.7 910.98C2942.56 912.08 2945.02 913.51 2947.07 915.27L2942.89 920.44C2940.99 919.12 2939.04 918.093 2937.06 917.36C2935.08 916.627 2932.88 916.26 2930.46 916.26C2927.09 916.26 2924.6 917.03 2922.98 918.57C2921.44 920.11 2920.67 921.907 2920.67 923.96C2920.67 925.573 2921.15 926.93 2922.1 928.03C2923.06 929.057 2924.38 929.973 2926.06 930.78C2927.82 931.587 2929.8 932.357 2932 933.09C2934.79 934.117 2937.43 935.29 2939.92 936.61C2942.49 937.857 2944.54 939.507 2946.08 941.56C2947.7 943.54 2948.5 946.143 2948.5 949.37C2948.5 952.303 2947.73 954.98 2946.19 957.4C2944.73 959.747 2942.53 961.653 2939.59 963.12C2936.73 964.587 2933.18 965.32 2928.92 965.32ZM2976.66 965.32C2971.01 965.32 2966.87 963.56 2964.23 960.04C2961.66 956.447 2960.38 951.24 2960.38 944.42V910.54H2969.4V943.21C2969.4 948.197 2970.17 951.827 2971.71 954.1C2973.32 956.3 2975.89 957.4 2979.41 957.4C2982.12 957.4 2984.54 956.703 2986.67 955.31C2988.87 953.843 2991.25 951.57 2993.82 948.49V910.54H3002.84V964H2995.36L2994.59 955.64H2994.26C2991.84 958.573 2989.2 960.92 2986.34 962.68C2983.55 964.44 2980.32 965.32 2976.66 965.32ZM3033.19 965.32C3030.26 965.32 3027.58 964.733 3025.16 963.56C3022.81 962.313 3020.94 960.59 3019.55 958.39C3018.16 956.117 3017.46 953.367 3017.46 950.14C3017.46 944.127 3020.1 939.58 3025.38 936.5C3030.66 933.42 3039.02 931.257 3050.46 930.01C3050.39 927.81 3050.02 925.683 3049.36 923.63C3048.77 921.577 3047.67 919.927 3046.06 918.68C3044.45 917.433 3042.21 916.81 3039.35 916.81C3036.27 916.81 3033.37 917.397 3030.66 918.57C3027.95 919.67 3025.53 920.917 3023.4 922.31L3019.88 916.15C3021.49 915.05 3023.4 913.987 3025.6 912.96C3027.8 911.86 3030.18 910.98 3032.75 910.32C3035.32 909.587 3038.03 909.22 3040.89 909.22C3045.22 909.22 3048.74 910.137 3051.45 911.97C3054.24 913.73 3056.25 916.26 3057.5 919.56C3058.82 922.86 3059.48 926.747 3059.48 931.22V964H3052L3051.23 957.62H3050.9C3048.33 959.747 3045.58 961.58 3042.65 963.12C3039.72 964.587 3036.56 965.32 3033.19 965.32ZM3035.72 957.84C3038.36 957.84 3040.82 957.253 3043.09 956.08C3045.44 954.907 3047.89 953.183 3050.46 950.91V936.5C3044.45 937.233 3039.68 938.187 3036.16 939.36C3032.71 940.46 3030.22 941.853 3028.68 943.54C3027.14 945.227 3026.37 947.243 3026.37 949.59C3026.37 952.523 3027.29 954.65 3029.12 955.97C3030.95 957.217 3033.15 957.84 3035.72 957.84ZM3090.27 965.32C3086.38 965.32 3082.68 964.66 3079.16 963.34C3075.71 961.947 3072.78 960.04 3070.36 957.62L3074.54 952.34C3076.89 954.247 3079.31 955.713 3081.8 956.74C3084.37 957.767 3087.3 958.28 3090.6 958.28C3094.12 958.28 3096.76 957.473 3098.52 955.86C3100.28 954.173 3101.16 952.193 3101.16 949.92C3101.16 948.087 3100.54 946.583 3099.29 945.41C3098.12 944.163 3096.61 943.137 3094.78 942.33C3093.02 941.45 3091.11 940.643 3089.06 939.91C3086.42 938.957 3083.89 937.857 3081.47 936.61C3079.05 935.29 3077.07 933.677 3075.53 931.77C3074.06 929.79 3073.33 927.333 3073.33 924.4C3073.33 920.073 3074.94 916.48 3078.17 913.62C3081.47 910.687 3086.02 909.22 3091.81 909.22C3095.11 909.22 3098.19 909.807 3101.05 910.98C3103.91 912.08 3106.37 913.51 3108.42 915.27L3104.24 920.44C3102.33 919.12 3100.39 918.093 3098.41 917.36C3096.43 916.627 3094.23 916.26 3091.81 916.26C3088.44 916.26 3085.94 917.03 3084.33 918.57C3082.79 920.11 3082.02 921.907 3082.02 923.96C3082.02 925.573 3082.5 926.93 3083.45 928.03C3084.4 929.057 3085.72 929.973 3087.41 930.78C3089.17 931.587 3091.15 932.357 3093.35 933.09C3096.14 934.117 3098.78 935.29 3101.27 936.61C3103.84 937.857 3105.89 939.507 3107.43 941.56C3109.04 943.54 3109.85 946.143 3109.85 949.37C3109.85 952.303 3109.08 954.98 3107.54 957.4C3106.07 959.747 3103.87 961.653 3100.94 963.12C3098.08 964.587 3094.52 965.32 3090.27 965.32ZM3156.73 965.32C3153.79 965.32 3151.12 964.733 3148.7 963.56C3146.35 962.313 3144.48 960.59 3143.09 958.39C3141.69 956.117 3141 953.367 3141 950.14C3141 944.127 3143.64 939.58 3148.92 936.5C3154.2 933.42 3162.56 931.257 3174 930.01C3173.92 927.81 3173.56 925.683 3172.9 923.63C3172.31 921.577 3171.21 919.927 3169.6 918.68C3167.98 917.433 3165.75 916.81 3162.89 916.81C3159.81 916.81 3156.91 917.397 3154.2 918.57C3151.48 919.67 3149.06 920.917 3146.94 922.31L3143.42 916.15C3145.03 915.05 3146.94 913.987 3149.14 912.96C3151.34 911.86 3153.72 910.98 3156.29 910.32C3158.85 909.587 3161.57 909.22 3164.43 909.22C3168.75 909.22 3172.27 910.137 3174.99 911.97C3177.77 913.73 3179.79 916.26 3181.04 919.56C3182.36 922.86 3183.02 926.747 3183.02 931.22V964H3175.54L3174.77 957.62H3174.44C3171.87 959.747 3169.12 961.58 3166.19 963.12C3163.25 964.587 3160.1 965.32 3156.73 965.32ZM3159.26 957.84C3161.9 957.84 3164.35 957.253 3166.63 956.08C3168.97 954.907 3171.43 953.183 3174 950.91V936.5C3167.98 937.233 3163.22 938.187 3159.7 939.36C3156.25 940.46 3153.76 941.853 3152.22 943.54C3150.68 945.227 3149.91 947.243 3149.91 949.59C3149.91 952.523 3150.82 954.65 3152.66 955.97C3154.49 957.217 3156.69 957.84 3159.26 957.84ZM3221.07 965.32C3216.3 965.32 3212.01 964.22 3208.2 962.02C3204.38 959.82 3201.38 956.63 3199.18 952.45C3196.98 948.27 3195.88 943.247 3195.88 937.38C3195.88 931.367 3197.05 926.27 3199.4 922.09C3201.82 917.91 3204.97 914.72 3208.86 912.52C3212.82 910.32 3217.07 909.22 3221.62 909.22C3225.14 909.22 3228.14 909.807 3230.64 910.98C3233.2 912.153 3235.4 913.657 3237.24 915.49L3232.73 921.1C3231.41 919.78 3229.83 918.753 3228 918.02C3226.24 917.213 3224.22 916.81 3221.95 916.81C3218.79 916.81 3215.93 917.69 3213.37 919.45C3210.87 921.137 3208.89 923.52 3207.43 926.6C3205.96 929.68 3205.23 933.273 3205.23 937.38C3205.23 941.413 3205.92 944.97 3207.32 948.05C3208.71 951.13 3210.65 953.55 3213.15 955.31C3215.64 956.997 3218.54 957.84 3221.84 957.84C3224.33 957.84 3226.64 957.363 3228.77 956.41C3230.89 955.457 3232.73 954.247 3234.27 952.78L3238.23 958.28C3235.95 960.407 3233.39 962.13 3230.53 963.45C3227.67 964.697 3224.51 965.32 3221.07 965.32ZM3210.51 988.86L3209.63 984.46C3214.25 984.093 3217.4 983.47 3219.09 982.59C3220.77 981.783 3221.62 980.573 3221.62 978.96C3221.62 977.493 3220.99 976.357 3219.75 975.55C3218.5 974.743 3216.3 974.12 3213.15 973.68L3217.99 963.67H3223.82L3220.63 971.04C3223.19 971.627 3225.17 972.507 3226.57 973.68C3227.96 974.853 3228.66 976.577 3228.66 978.85C3228.66 982.003 3227.08 984.387 3223.93 986C3220.85 987.613 3216.37 988.567 3210.51 988.86ZM3268.54 965.32C3264.21 965.32 3260.14 964.22 3256.33 962.02C3252.59 959.82 3249.54 956.63 3247.2 952.45C3244.92 948.27 3243.79 943.247 3243.79 937.38C3243.79 931.367 3244.92 926.27 3247.2 922.09C3249.54 917.91 3252.59 914.72 3256.33 912.52C3260.14 910.32 3264.21 909.22 3268.54 909.22C3272.94 909.22 3277.01 910.32 3280.75 912.52C3284.49 914.72 3287.49 917.91 3289.77 922.09C3292.11 926.27 3293.29 931.367 3293.29 937.38C3293.29 943.247 3292.11 948.27 3289.77 952.45C3287.49 956.63 3284.49 959.82 3280.75 962.02C3277.01 964.22 3272.94 965.32 3268.54 965.32ZM3268.54 957.84C3271.62 957.84 3274.33 956.997 3276.68 955.31C3279.02 953.55 3280.82 951.13 3282.07 948.05C3283.31 944.97 3283.94 941.413 3283.94 937.38C3283.94 933.273 3283.31 929.68 3282.07 926.6C3280.82 923.447 3279.02 921.027 3276.68 919.34C3274.33 917.58 3271.62 916.7 3268.54 916.7C3265.46 916.7 3262.74 917.58 3260.4 919.34C3258.12 921.027 3256.33 923.447 3255.01 926.6C3253.76 929.68 3253.14 933.273 3253.14 937.38C3253.14 941.413 3253.76 944.97 3255.01 948.05C3256.33 951.13 3258.12 953.55 3260.4 955.31C3262.74 956.997 3265.46 957.84 3268.54 957.84ZM3276.46 900.53C3274.55 900.53 3272.86 900.09 3271.4 899.21C3270 898.257 3268.72 897.157 3267.55 895.91C3266.37 894.663 3265.24 893.6 3264.14 892.72C3263.11 891.767 3261.97 891.29 3260.73 891.29C3259.11 891.29 3257.9 892.097 3257.1 893.71C3256.29 895.25 3255.78 897.34 3255.56 899.98L3249.51 899.65C3249.58 896.717 3250.02 894.15 3250.83 891.95C3251.63 889.677 3252.81 887.917 3254.35 886.67C3255.96 885.35 3258.05 884.69 3260.62 884.69C3262.6 884.69 3264.28 885.167 3265.68 886.12C3267.07 887 3268.35 888.063 3269.53 889.31C3270.7 890.557 3271.8 891.657 3272.83 892.61C3273.93 893.49 3275.14 893.93 3276.46 893.93C3278.07 893.93 3279.28 893.123 3280.09 891.51C3280.89 889.897 3281.37 887.807 3281.52 885.24L3287.57 885.68C3287.49 888.467 3287.05 890.997 3286.25 893.27C3285.44 895.47 3284.23 897.23 3282.62 898.55C3281.08 899.87 3279.02 900.53 3276.46 900.53ZM3329.04 965.32C3324.27 965.32 3319.91 964.22 3315.95 962.02C3312.06 959.747 3308.98 956.557 3306.71 952.45C3304.43 948.27 3303.3 943.21 3303.3 937.27C3303.3 931.477 3304.47 926.49 3306.82 922.31C3309.16 918.13 3312.17 914.903 3315.84 912.63C3319.5 910.357 3323.39 909.22 3327.5 909.22C3332.04 909.22 3335.89 910.283 3339.05 912.41C3342.27 914.463 3344.69 917.36 3346.31 921.1C3347.92 924.84 3348.73 929.24 3348.73 934.3C3348.73 935.253 3348.69 936.17 3348.62 937.05C3348.62 937.93 3348.51 938.81 3348.29 939.69H3309.79V932.54H3340.59C3340.59 927.407 3339.45 923.483 3337.18 920.77C3334.98 917.983 3331.79 916.59 3327.61 916.59C3325.19 916.59 3322.8 917.287 3320.46 918.68C3318.11 920 3316.17 922.163 3314.63 925.17C3313.16 928.177 3312.43 932.173 3312.43 937.16C3312.43 941.707 3313.2 945.52 3314.74 948.6C3316.35 951.68 3318.51 954.027 3321.23 955.64C3323.94 957.18 3326.91 957.95 3330.14 957.95C3332.7 957.95 3335.09 957.583 3337.29 956.85C3339.56 956.117 3341.61 955.127 3343.45 953.88L3346.75 959.82C3344.4 961.433 3341.76 962.753 3338.83 963.78C3335.97 964.807 3332.7 965.32 3329.04 965.32ZM3375.91 965.32C3372.02 965.32 3368.32 964.66 3364.8 963.34C3361.35 961.947 3358.42 960.04 3356 957.62L3360.18 952.34C3362.52 954.247 3364.94 955.713 3367.44 956.74C3370 957.767 3372.94 958.28 3376.24 958.28C3379.76 958.28 3382.4 957.473 3384.16 955.86C3385.92 954.173 3386.8 952.193 3386.8 949.92C3386.8 948.087 3386.17 946.583 3384.93 945.41C3383.75 944.163 3382.25 943.137 3380.42 942.33C3378.66 941.45 3376.75 940.643 3374.7 939.91C3372.06 938.957 3369.53 937.857 3367.11 936.61C3364.69 935.29 3362.71 933.677 3361.17 931.77C3359.7 929.79 3358.97 927.333 3358.97 924.4C3358.97 920.073 3360.58 916.48 3363.81 913.62C3367.11 910.687 3371.65 909.22 3377.45 909.22C3380.75 909.22 3383.83 909.807 3386.69 910.98C3389.55 912.08 3392 913.51 3394.06 915.27L3389.88 920.44C3387.97 919.12 3386.03 918.093 3384.05 917.36C3382.07 916.627 3379.87 916.26 3377.45 916.26C3374.07 916.26 3371.58 917.03 3369.97 918.57C3368.43 920.11 3367.66 921.907 3367.66 923.96C3367.66 925.573 3368.13 926.93 3369.09 928.03C3370.04 929.057 3371.36 929.973 3373.05 930.78C3374.81 931.587 3376.79 932.357 3378.99 933.09C3381.77 934.117 3384.41 935.29 3386.91 936.61C3389.47 937.857 3391.53 939.507 3393.07 941.56C3394.68 943.54 3395.49 946.143 3395.49 949.37C3395.49 952.303 3394.72 954.98 3393.18 957.4C3391.71 959.747 3389.51 961.653 3386.58 963.12C3383.72 964.587 3380.16 965.32 3375.91 965.32Z" fill="black" fill-opacity="0.44"/>
</svg>
