<svg width="2044" height="1962" viewBox="0 0 2044 1962" fill="none" xmlns="http://www.w3.org/2000/svg">
<rect x="48" y="645" width="1942" height="172" fill="black" fill-opacity="0.2"/>
<path d="M100.24 756L118 703.52H125.52L143.28 756H136.24L127.04 726.64C126.08 723.707 125.173 720.8 124.32 717.92C123.467 714.987 122.613 712 121.76 708.96H121.44C120.64 712 119.813 714.987 118.96 717.92C118.107 720.8 117.2 723.707 116.24 726.64L106.96 756H100.24ZM109.52 740V734.72H133.76V740H109.52ZM174.638 772.4V758.56L174.958 751.52C173.411 753.013 171.624 754.293 169.598 755.36C167.624 756.427 165.518 756.96 163.278 756.96C158.371 756.96 154.451 755.2 151.518 751.68C148.638 748.107 147.198 743.093 147.198 736.64C147.198 732.427 147.971 728.8 149.518 725.76C151.118 722.667 153.198 720.293 155.758 718.64C158.318 716.987 161.091 716.16 164.078 716.16C166.318 716.16 168.291 716.56 169.998 717.36C171.758 718.16 173.491 719.307 175.198 720.8H175.358L175.998 717.12H181.278V772.4H174.638ZM164.718 751.44C166.531 751.44 168.238 750.987 169.838 750.08C171.438 749.173 173.038 747.84 174.638 746.08V725.76C173.038 724.267 171.464 723.227 169.918 722.64C168.371 722 166.798 721.68 165.198 721.68C163.118 721.68 161.224 722.32 159.518 723.6C157.864 724.827 156.531 726.56 155.518 728.8C154.504 730.987 153.997 733.573 153.997 736.56C153.997 741.2 154.931 744.853 156.798 747.52C158.664 750.133 161.304 751.44 164.718 751.44ZM205.733 756.96C201.626 756.96 198.613 755.68 196.693 753.12C194.826 750.507 193.893 746.72 193.893 741.76V717.12H200.453V740.88C200.453 744.507 201.013 747.147 202.133 748.8C203.306 750.4 205.173 751.2 207.733 751.2C209.706 751.2 211.466 750.693 213.013 749.68C214.613 748.613 216.346 746.96 218.213 744.72V717.12H224.773V756H219.333L218.773 749.92H218.533C216.773 752.053 214.853 753.76 212.773 755.04C210.746 756.32 208.399 756.96 205.733 756.96ZM237.888 756V717.12H244.448V756H237.888ZM241.168 709.12C239.888 709.12 238.821 708.72 237.968 707.92C237.168 707.12 236.768 706.08 236.768 704.8C236.768 703.52 237.168 702.48 237.968 701.68C238.821 700.88 239.888 700.48 241.168 700.48C242.448 700.48 243.488 700.88 244.288 701.68C245.141 702.48 245.568 703.52 245.568 704.8C245.568 706.08 245.141 707.12 244.288 707.92C243.488 708.72 242.448 709.12 241.168 709.12ZM273.591 756V717.12H279.031L279.591 722.72H279.831C281.538 720.907 283.378 719.36 285.351 718.08C287.378 716.8 289.565 716.16 291.911 716.16C294.898 716.16 297.218 716.827 298.871 718.16C300.578 719.493 301.831 721.307 302.631 723.6C304.658 721.36 306.711 719.573 308.791 718.24C310.871 716.853 313.085 716.16 315.431 716.16C319.485 716.16 322.471 717.467 324.391 720.08C326.311 722.64 327.271 726.4 327.271 731.36V756H320.711V732.24C320.711 728.56 320.125 725.92 318.951 724.32C317.778 722.667 315.965 721.84 313.511 721.84C311.965 721.84 310.391 722.347 308.791 723.36C307.245 724.32 305.565 725.813 303.751 727.84V756H297.191V732.24C297.191 728.56 296.605 725.92 295.431 724.32C294.258 722.667 292.418 721.84 289.911 721.84C286.978 721.84 283.725 723.84 280.151 727.84V756H273.591ZM355.039 756.96C351.893 756.96 348.933 756.16 346.159 754.56C343.439 752.96 341.226 750.64 339.519 747.6C337.866 744.56 337.039 740.907 337.039 736.64C337.039 732.267 337.866 728.56 339.519 725.52C341.226 722.48 343.439 720.16 346.159 718.56C348.933 716.96 351.893 716.16 355.039 716.16C358.239 716.16 361.199 716.96 363.919 718.56C366.639 720.16 368.826 722.48 370.479 725.52C372.186 728.56 373.039 732.267 373.039 736.64C373.039 740.907 372.186 744.56 370.479 747.6C368.826 750.64 366.639 752.96 363.919 754.56C361.199 756.16 358.239 756.96 355.039 756.96ZM355.039 751.52C357.279 751.52 359.253 750.907 360.959 749.68C362.666 748.4 363.973 746.64 364.879 744.4C365.786 742.16 366.239 739.573 366.239 736.64C366.239 733.653 365.786 731.04 364.879 728.8C363.973 726.507 362.666 724.747 360.959 723.52C359.253 722.24 357.279 721.6 355.039 721.6C352.799 721.6 350.826 722.24 349.119 723.52C347.466 724.747 346.159 726.507 345.199 728.8C344.293 731.04 343.839 733.653 343.839 736.64C343.839 739.573 344.293 742.16 345.199 744.4C346.159 746.64 347.466 748.4 349.119 749.68C350.826 750.907 352.799 751.52 355.039 751.52ZM391.366 756L377.366 717.12H384.166L391.526 739.2C392.113 741.067 392.7 742.987 393.286 744.96C393.926 746.88 394.54 748.773 395.126 750.64H395.446C395.98 748.773 396.566 746.88 397.206 744.96C397.846 742.987 398.433 741.067 398.966 739.2L406.326 717.12H412.806L399.046 756H391.366ZM420.31 756V717.12H426.87V756H420.31ZM423.59 709.12C422.31 709.12 421.243 708.72 420.39 707.92C419.59 707.12 419.19 706.08 419.19 704.8C419.19 703.52 419.59 702.48 420.39 701.68C421.243 700.88 422.31 700.48 423.59 700.48C424.87 700.48 425.91 700.88 426.71 701.68C427.563 702.48 427.99 703.52 427.99 704.8C427.99 706.08 427.563 707.12 426.71 707.92C425.91 708.72 424.87 709.12 423.59 709.12ZM439.998 756V717.12H445.438L445.998 722.72H446.238C447.944 720.907 449.784 719.36 451.758 718.08C453.784 716.8 455.971 716.16 458.318 716.16C461.304 716.16 463.624 716.827 465.278 718.16C466.984 719.493 468.238 721.307 469.038 723.6C471.064 721.36 473.118 719.573 475.198 718.24C477.278 716.853 479.491 716.16 481.838 716.16C485.891 716.16 488.878 717.467 490.798 720.08C492.718 722.64 493.678 726.4 493.678 731.36V756H487.118V732.24C487.118 728.56 486.531 725.92 485.358 724.32C484.184 722.667 482.371 721.84 479.918 721.84C478.371 721.84 476.798 722.347 475.198 723.36C473.651 724.32 471.971 725.813 470.158 727.84V756H463.598V732.24C463.598 728.56 463.011 725.92 461.838 724.32C460.664 722.667 458.824 721.84 456.318 721.84C453.384 721.84 450.131 723.84 446.558 727.84V756H439.998ZM522.086 756.96C518.619 756.96 515.446 756.16 512.566 754.56C509.739 752.907 507.499 750.587 505.846 747.6C504.192 744.56 503.366 740.88 503.366 736.56C503.366 732.347 504.219 728.72 505.926 725.68C507.632 722.64 509.819 720.293 512.486 718.64C515.152 716.987 517.979 716.16 520.966 716.16C524.272 716.16 527.072 716.933 529.366 718.48C531.712 719.973 533.472 722.08 534.646 724.8C535.819 727.52 536.406 730.72 536.406 734.4C536.406 735.093 536.379 735.76 536.326 736.4C536.326 737.04 536.246 737.68 536.086 738.32H508.086V733.12H530.486C530.486 729.387 529.659 726.533 528.006 724.56C526.406 722.533 524.086 721.52 521.046 721.52C519.286 721.52 517.552 722.027 515.846 723.04C514.139 724 512.726 725.573 511.606 727.76C510.539 729.947 510.006 732.853 510.006 736.48C510.006 739.787 510.566 742.56 511.686 744.8C512.859 747.04 514.432 748.747 516.406 749.92C518.379 751.04 520.539 751.6 522.886 751.6C524.752 751.6 526.486 751.333 528.086 750.8C529.739 750.267 531.232 749.547 532.566 748.64L534.966 752.96C533.259 754.133 531.339 755.093 529.206 755.84C527.126 756.587 524.752 756.96 522.086 756.96ZM546.013 756V717.12H551.453L552.013 722.72H552.253C554.12 720.853 556.093 719.307 558.173 718.08C560.253 716.8 562.626 716.16 565.293 716.16C569.4 716.16 572.386 717.467 574.253 720.08C576.173 722.64 577.133 726.4 577.133 731.36V756H570.573V732.24C570.573 728.56 569.986 725.92 568.813 724.32C567.693 722.667 565.826 721.84 563.213 721.84C561.24 721.84 559.453 722.347 557.853 723.36C556.306 724.373 554.546 725.867 552.573 727.84V756H546.013ZM602.003 756.72C597.896 756.72 595.016 755.52 593.363 753.12C591.71 750.72 590.883 747.6 590.883 743.76V722.48H585.123V717.52L591.203 717.12L592.003 704.64H597.523V717.12H608.083V722.48H597.523V743.84C597.523 746.187 597.95 748.027 598.803 749.36C599.71 750.693 601.283 751.36 603.523 751.36C604.216 751.36 604.936 751.307 605.683 751.2C606.43 751.04 607.176 750.773 607.923 750.4L609.363 755.04C608.35 755.52 607.203 755.92 605.923 756.24C604.643 756.56 603.336 756.72 602.003 756.72ZM624.036 756.96C621.902 756.96 619.956 756.533 618.196 755.68C616.489 754.773 615.129 753.52 614.116 751.92C613.102 750.267 612.596 748.267 612.596 745.92C612.596 741.547 614.516 738.24 618.356 736C622.196 733.76 628.276 732.187 636.596 731.28C636.542 729.68 636.276 728.133 635.796 726.64C635.369 725.147 634.569 723.947 633.396 723.04C632.222 722.133 630.596 721.68 628.516 721.68C626.276 721.68 624.169 722.107 622.196 722.96C620.222 723.76 618.462 724.667 616.916 725.68L614.356 721.2C615.529 720.4 616.916 719.627 618.516 718.88C620.116 718.08 621.849 717.44 623.716 716.96C625.582 716.427 627.556 716.16 629.636 716.16C632.782 716.16 635.342 716.827 637.316 718.16C639.342 719.44 640.809 721.28 641.716 723.68C642.676 726.08 643.156 728.907 643.156 732.16V756H637.716L637.156 751.36H636.916C635.049 752.907 633.049 754.24 630.916 755.36C628.782 756.427 626.489 756.96 624.036 756.96ZM625.876 751.52C627.796 751.52 629.582 751.093 631.236 750.24C632.942 749.387 634.729 748.133 636.596 746.48V736C632.222 736.533 628.756 737.227 626.196 738.08C623.689 738.88 621.876 739.893 620.756 741.12C619.636 742.347 619.076 743.813 619.076 745.52C619.076 747.653 619.742 749.2 621.076 750.16C622.409 751.067 624.009 751.52 625.876 751.52ZM655.388 756V717.12H660.828L661.388 722.72H661.628C663.335 720.907 665.175 719.36 667.148 718.08C669.175 716.8 671.361 716.16 673.708 716.16C676.695 716.16 679.015 716.827 680.668 718.16C682.375 719.493 683.628 721.307 684.428 723.6C686.455 721.36 688.508 719.573 690.588 718.24C692.668 716.853 694.881 716.16 697.228 716.16C701.281 716.16 704.268 717.467 706.188 720.08C708.108 722.64 709.068 726.4 709.068 731.36V756H702.508V732.24C702.508 728.56 701.921 725.92 700.748 724.32C699.575 722.667 697.761 721.84 695.308 721.84C693.761 721.84 692.188 722.347 690.588 723.36C689.041 724.32 687.361 725.813 685.548 727.84V756H678.988V732.24C678.988 728.56 678.401 725.92 677.228 724.32C676.055 722.667 674.215 721.84 671.708 721.84C668.775 721.84 665.521 723.84 661.948 727.84V756H655.388ZM736.836 756.96C733.69 756.96 730.73 756.16 727.956 754.56C725.236 752.96 723.023 750.64 721.316 747.6C719.663 744.56 718.836 740.907 718.836 736.64C718.836 732.267 719.663 728.56 721.316 725.52C723.023 722.48 725.236 720.16 727.956 718.56C730.73 716.96 733.69 716.16 736.836 716.16C740.036 716.16 742.996 716.96 745.716 718.56C748.436 720.16 750.623 722.48 752.276 725.52C753.983 728.56 754.836 732.267 754.836 736.64C754.836 740.907 753.983 744.56 752.276 747.6C750.623 750.64 748.436 752.96 745.716 754.56C742.996 756.16 740.036 756.96 736.836 756.96ZM736.836 751.52C739.076 751.52 741.05 750.907 742.756 749.68C744.463 748.4 745.77 746.64 746.676 744.4C747.583 742.16 748.036 739.573 748.036 736.64C748.036 733.653 747.583 731.04 746.676 728.8C745.77 726.507 744.463 724.747 742.756 723.52C741.05 722.24 739.076 721.6 736.836 721.6C734.596 721.6 732.623 722.24 730.916 723.52C729.263 724.747 727.956 726.507 726.996 728.8C726.09 731.04 725.636 733.653 725.636 736.64C725.636 739.573 726.09 742.16 726.996 744.4C727.956 746.64 729.263 748.4 730.916 749.68C732.623 750.907 734.596 751.52 736.836 751.52ZM775.079 756.96C772.253 756.96 769.559 756.48 766.999 755.52C764.493 754.507 762.359 753.12 760.599 751.36L763.639 747.52C765.346 748.907 767.106 749.973 768.919 750.72C770.786 751.467 772.919 751.84 775.319 751.84C777.879 751.84 779.799 751.253 781.079 750.08C782.359 748.853 782.999 747.413 782.999 745.76C782.999 744.427 782.546 743.333 781.639 742.48C780.786 741.573 779.693 740.827 778.359 740.24C777.079 739.6 775.693 739.013 774.199 738.48C772.279 737.787 770.439 736.987 768.679 736.08C766.919 735.12 765.479 733.947 764.359 732.56C763.293 731.12 762.759 729.333 762.759 727.2C762.759 724.053 763.933 721.44 766.279 719.36C768.679 717.227 771.986 716.16 776.199 716.16C778.599 716.16 780.839 716.587 782.919 717.44C784.999 718.24 786.786 719.28 788.279 720.56L785.239 724.32C783.853 723.36 782.439 722.613 780.999 722.08C779.559 721.547 777.959 721.28 776.199 721.28C773.746 721.28 771.933 721.84 770.759 722.96C769.639 724.08 769.079 725.387 769.079 726.88C769.079 728.053 769.426 729.04 770.119 729.84C770.813 730.587 771.773 731.253 772.999 731.84C774.279 732.427 775.719 732.987 777.319 733.52C779.346 734.267 781.266 735.12 783.079 736.08C784.946 736.987 786.439 738.187 787.559 739.68C788.733 741.12 789.319 743.013 789.319 745.36C789.319 747.493 788.759 749.44 787.639 751.2C786.573 752.907 784.973 754.293 782.839 755.36C780.759 756.427 778.173 756.96 775.079 756.96ZM829.571 756.96C826.424 756.96 823.464 756.16 820.691 754.56C817.971 752.96 815.757 750.64 814.051 747.6C812.397 744.56 811.571 740.907 811.571 736.64C811.571 732.267 812.397 728.56 814.051 725.52C815.757 722.48 817.971 720.16 820.691 718.56C823.464 716.96 826.424 716.16 829.571 716.16C832.771 716.16 835.731 716.96 838.451 718.56C841.171 720.16 843.357 722.48 845.011 725.52C846.717 728.56 847.571 732.267 847.571 736.64C847.571 740.907 846.717 744.56 845.011 747.6C843.357 750.64 841.171 752.96 838.451 754.56C835.731 756.16 832.771 756.96 829.571 756.96ZM829.571 751.52C831.811 751.52 833.784 750.907 835.491 749.68C837.197 748.4 838.504 746.64 839.411 744.4C840.317 742.16 840.771 739.573 840.771 736.64C840.771 733.653 840.317 731.04 839.411 728.8C838.504 726.507 837.197 724.747 835.491 723.52C833.784 722.24 831.811 721.6 829.571 721.6C827.331 721.6 825.357 722.24 823.651 723.52C821.997 724.747 820.691 726.507 819.731 728.8C818.824 731.04 818.371 733.653 818.371 736.64C818.371 739.573 818.824 742.16 819.731 744.4C820.691 746.64 821.997 748.4 823.651 749.68C825.357 750.907 827.331 751.52 829.571 751.52ZM867.814 756.96C864.987 756.96 862.294 756.48 859.734 755.52C857.227 754.507 855.094 753.12 853.334 751.36L856.374 747.52C858.08 748.907 859.84 749.973 861.654 750.72C863.52 751.467 865.654 751.84 868.054 751.84C870.614 751.84 872.534 751.253 873.814 750.08C875.094 748.853 875.734 747.413 875.734 745.76C875.734 744.427 875.28 743.333 874.374 742.48C873.52 741.573 872.427 740.827 871.094 740.24C869.814 739.6 868.427 739.013 866.934 738.48C865.014 737.787 863.174 736.987 861.414 736.08C859.654 735.12 858.214 733.947 857.094 732.56C856.027 731.12 855.494 729.333 855.494 727.2C855.494 724.053 856.667 721.44 859.014 719.36C861.414 717.227 864.72 716.16 868.934 716.16C871.334 716.16 873.574 716.587 875.654 717.44C877.734 718.24 879.52 719.28 881.014 720.56L877.974 724.32C876.587 723.36 875.174 722.613 873.734 722.08C872.294 721.547 870.694 721.28 868.934 721.28C866.48 721.28 864.667 721.84 863.494 722.96C862.374 724.08 861.814 725.387 861.814 726.88C861.814 728.053 862.16 729.04 862.854 729.84C863.547 730.587 864.507 731.253 865.734 731.84C867.014 732.427 868.454 732.987 870.054 733.52C872.08 734.267 874 735.12 875.814 736.08C877.68 736.987 879.174 738.187 880.294 739.68C881.467 741.12 882.054 743.013 882.054 745.36C882.054 747.493 881.494 749.44 880.374 751.2C879.307 752.907 877.707 754.293 875.574 755.36C873.494 756.427 870.907 756.96 867.814 756.96ZM920.465 756.96C915.558 756.96 911.638 755.2 908.705 751.68C905.825 748.107 904.385 743.093 904.385 736.64C904.385 732.427 905.158 728.8 906.705 725.76C908.305 722.667 910.385 720.293 912.945 718.64C915.505 716.987 918.278 716.16 921.265 716.16C923.558 716.16 925.505 716.56 927.105 717.36C928.758 718.107 930.438 719.2 932.145 720.64L931.825 714V699.04H938.465V756H933.025L932.465 751.44H932.225C930.732 752.933 928.972 754.24 926.945 755.36C924.918 756.427 922.758 756.96 920.465 756.96ZM921.905 751.44C923.718 751.44 925.425 750.987 927.025 750.08C928.625 749.173 930.225 747.84 931.825 746.08V725.76C930.225 724.267 928.652 723.227 927.105 722.64C925.558 722 923.985 721.68 922.385 721.68C920.305 721.68 918.412 722.32 916.705 723.6C915.052 724.827 913.718 726.56 912.705 728.8C911.692 730.987 911.185 733.573 911.185 736.56C911.185 741.2 912.118 744.853 913.985 747.52C915.852 750.133 918.492 751.44 921.905 751.44ZM966.68 756.96C963.533 756.96 960.573 756.16 957.8 754.56C955.08 752.96 952.867 750.64 951.16 747.6C949.507 744.56 948.68 740.907 948.68 736.64C948.68 732.267 949.507 728.56 951.16 725.52C952.867 722.48 955.08 720.16 957.8 718.56C960.573 716.96 963.533 716.16 966.68 716.16C969.88 716.16 972.84 716.96 975.56 718.56C978.28 720.16 980.467 722.48 982.12 725.52C983.827 728.56 984.68 732.267 984.68 736.64C984.68 740.907 983.827 744.56 982.12 747.6C980.467 750.64 978.28 752.96 975.56 754.56C972.84 756.16 969.88 756.96 966.68 756.96ZM966.68 751.52C968.92 751.52 970.893 750.907 972.6 749.68C974.307 748.4 975.613 746.64 976.52 744.4C977.427 742.16 977.88 739.573 977.88 736.64C977.88 733.653 977.427 731.04 976.52 728.8C975.613 726.507 974.307 724.747 972.6 723.52C970.893 722.24 968.92 721.6 966.68 721.6C964.44 721.6 962.467 722.24 960.76 723.52C959.107 724.747 957.8 726.507 956.84 728.8C955.933 731.04 955.48 733.653 955.48 736.64C955.48 739.573 955.933 742.16 956.84 744.4C957.8 746.64 959.107 748.4 960.76 749.68C962.467 750.907 964.44 751.52 966.68 751.52ZM994.919 756V717.12H1001.48V756H994.919ZM998.199 709.12C996.919 709.12 995.853 708.72 994.999 707.92C994.199 707.12 993.799 706.08 993.799 704.8C993.799 703.52 994.199 702.48 994.999 701.68C995.853 700.88 996.919 700.48 998.199 700.48C999.479 700.48 1000.52 700.88 1001.32 701.68C1002.17 702.48 1002.6 703.52 1002.6 704.8C1002.6 706.08 1002.17 707.12 1001.32 707.92C1000.52 708.72 999.479 709.12 998.199 709.12ZM1024.77 756.96C1021.94 756.96 1019.25 756.48 1016.69 755.52C1014.18 754.507 1012.05 753.12 1010.29 751.36L1013.33 747.52C1015.03 748.907 1016.79 749.973 1018.61 750.72C1020.47 751.467 1022.61 751.84 1025.01 751.84C1027.57 751.84 1029.49 751.253 1030.77 750.08C1032.05 748.853 1032.69 747.413 1032.69 745.76C1032.69 744.427 1032.23 743.333 1031.33 742.48C1030.47 741.573 1029.38 740.827 1028.05 740.24C1026.77 739.6 1025.38 739.013 1023.89 738.48C1021.97 737.787 1020.13 736.987 1018.37 736.08C1016.61 735.12 1015.17 733.947 1014.05 732.56C1012.98 731.12 1012.45 729.333 1012.45 727.2C1012.45 724.053 1013.62 721.44 1015.97 719.36C1018.37 717.227 1021.67 716.16 1025.89 716.16C1028.29 716.16 1030.53 716.587 1032.61 717.44C1034.69 718.24 1036.47 719.28 1037.97 720.56L1034.93 724.32C1033.54 723.36 1032.13 722.613 1030.69 722.08C1029.25 721.547 1027.65 721.28 1025.89 721.28C1023.43 721.28 1021.62 721.84 1020.45 722.96C1019.33 724.08 1018.77 725.387 1018.77 726.88C1018.77 728.053 1019.11 729.04 1019.81 729.84C1020.5 730.587 1021.46 731.253 1022.69 731.84C1023.97 732.427 1025.41 732.987 1027.01 733.52C1029.03 734.267 1030.95 735.12 1032.77 736.08C1034.63 736.987 1036.13 738.187 1037.25 739.68C1038.42 741.12 1039.01 743.013 1039.01 745.36C1039.01 747.493 1038.45 749.44 1037.33 751.2C1036.26 752.907 1034.66 754.293 1032.53 755.36C1030.45 756.427 1027.86 756.96 1024.77 756.96ZM1079.58 756.96C1076.11 756.96 1072.99 756.16 1070.22 754.56C1067.44 752.96 1065.26 750.64 1063.66 747.6C1062.06 744.56 1061.26 740.907 1061.26 736.64C1061.26 732.267 1062.11 728.56 1063.82 725.52C1065.58 722.48 1067.87 720.16 1070.7 718.56C1073.58 716.96 1076.67 716.16 1079.98 716.16C1082.54 716.16 1084.72 716.587 1086.54 717.44C1088.4 718.293 1090 719.387 1091.34 720.72L1088.06 724.8C1087.1 723.84 1085.95 723.093 1084.62 722.56C1083.34 721.973 1081.87 721.68 1080.22 721.68C1077.92 721.68 1075.84 722.32 1073.98 723.6C1072.16 724.827 1070.72 726.56 1069.66 728.8C1068.59 731.04 1068.06 733.653 1068.06 736.64C1068.06 739.573 1068.56 742.16 1069.58 744.4C1070.59 746.64 1072 748.4 1073.82 749.68C1075.63 750.907 1077.74 751.52 1080.14 751.52C1081.95 751.52 1083.63 751.173 1085.18 750.48C1086.72 749.787 1088.06 748.907 1089.18 747.84L1092.06 751.84C1090.4 753.387 1088.54 754.64 1086.46 755.6C1084.38 756.507 1082.08 756.96 1079.58 756.96ZM1108.8 756.96C1106.67 756.96 1104.72 756.533 1102.96 755.68C1101.25 754.773 1099.89 753.52 1098.88 751.92C1097.87 750.267 1097.36 748.267 1097.36 745.92C1097.36 741.547 1099.28 738.24 1103.12 736C1106.96 733.76 1113.04 732.187 1121.36 731.28C1121.31 729.68 1121.04 728.133 1120.56 726.64C1120.13 725.147 1119.33 723.947 1118.16 723.04C1116.99 722.133 1115.36 721.68 1113.28 721.68C1111.04 721.68 1108.93 722.107 1106.96 722.96C1104.99 723.76 1103.23 724.667 1101.68 725.68L1099.12 721.2C1100.29 720.4 1101.68 719.627 1103.28 718.88C1104.88 718.08 1106.61 717.44 1108.48 716.96C1110.35 716.427 1112.32 716.16 1114.4 716.16C1117.55 716.16 1120.11 716.827 1122.08 718.16C1124.11 719.44 1125.57 721.28 1126.48 723.68C1127.44 726.08 1127.92 728.907 1127.92 732.16V756H1122.48L1121.92 751.36H1121.68C1119.81 752.907 1117.81 754.24 1115.68 755.36C1113.55 756.427 1111.25 756.96 1108.8 756.96ZM1110.64 751.52C1112.56 751.52 1114.35 751.093 1116 750.24C1117.71 749.387 1119.49 748.133 1121.36 746.48V736C1116.99 736.533 1113.52 737.227 1110.96 738.08C1108.45 738.88 1106.64 739.893 1105.52 741.12C1104.4 742.347 1103.84 743.813 1103.84 745.52C1103.84 747.653 1104.51 749.2 1105.84 750.16C1107.17 751.067 1108.77 751.52 1110.64 751.52ZM1140.15 756V717.12H1145.59L1146.15 724.16H1146.39C1147.67 721.707 1149.27 719.76 1151.19 718.32C1153.11 716.88 1155.19 716.16 1157.43 716.16C1158.29 716.16 1159.03 716.213 1159.67 716.32C1160.31 716.427 1160.95 716.64 1161.59 716.96L1160.15 722.56C1159.57 722.4 1159.01 722.293 1158.47 722.24C1157.99 722.133 1157.35 722.08 1156.55 722.08C1154.9 722.08 1153.17 722.747 1151.35 724.08C1149.59 725.413 1148.05 727.733 1146.71 731.04V756H1140.15ZM1167.89 756V717.12H1173.33L1173.89 724.16H1174.13C1175.41 721.707 1177.01 719.76 1178.93 718.32C1180.85 716.88 1182.93 716.16 1185.17 716.16C1186.02 716.16 1186.77 716.213 1187.41 716.32C1188.05 716.427 1188.69 716.64 1189.33 716.96L1187.89 722.56C1187.3 722.4 1186.74 722.293 1186.21 722.24C1185.73 722.133 1185.09 722.08 1184.29 722.08C1182.63 722.08 1180.9 722.747 1179.09 724.08C1177.33 725.413 1175.78 727.733 1174.45 731.04V756H1167.89ZM1209.96 756.96C1206.81 756.96 1203.85 756.16 1201.08 754.56C1198.36 752.96 1196.15 750.64 1194.44 747.6C1192.79 744.56 1191.96 740.907 1191.96 736.64C1191.96 732.267 1192.79 728.56 1194.44 725.52C1196.15 722.48 1198.36 720.16 1201.08 718.56C1203.85 716.96 1206.81 716.16 1209.96 716.16C1213.16 716.16 1216.12 716.96 1218.84 718.56C1221.56 720.16 1223.75 722.48 1225.4 725.52C1227.11 728.56 1227.96 732.267 1227.96 736.64C1227.96 740.907 1227.11 744.56 1225.4 747.6C1223.75 750.64 1221.56 752.96 1218.84 754.56C1216.12 756.16 1213.16 756.96 1209.96 756.96ZM1209.96 751.52C1212.2 751.52 1214.17 750.907 1215.88 749.68C1217.59 748.4 1218.89 746.64 1219.8 744.4C1220.71 742.16 1221.16 739.573 1221.16 736.64C1221.16 733.653 1220.71 731.04 1219.8 728.8C1218.89 726.507 1217.59 724.747 1215.88 723.52C1214.17 722.24 1212.2 721.6 1209.96 721.6C1207.72 721.6 1205.75 722.24 1204.04 723.52C1202.39 724.747 1201.08 726.507 1200.12 728.8C1199.21 731.04 1198.76 733.653 1198.76 736.64C1198.76 739.573 1199.21 742.16 1200.12 744.4C1201.08 746.64 1202.39 748.4 1204.04 749.68C1205.75 750.907 1207.72 751.52 1209.96 751.52ZM1248.2 756.96C1245.38 756.96 1242.68 756.48 1240.12 755.52C1237.62 754.507 1235.48 753.12 1233.72 751.36L1236.76 747.52C1238.47 748.907 1240.23 749.973 1242.04 750.72C1243.91 751.467 1246.04 751.84 1248.44 751.84C1251 751.84 1252.92 751.253 1254.2 750.08C1255.48 748.853 1256.12 747.413 1256.12 745.76C1256.12 744.427 1255.67 743.333 1254.76 742.48C1253.91 741.573 1252.82 740.827 1251.48 740.24C1250.2 739.6 1248.82 739.013 1247.32 738.48C1245.4 737.787 1243.56 736.987 1241.8 736.08C1240.04 735.12 1238.6 733.947 1237.48 732.56C1236.42 731.12 1235.88 729.333 1235.88 727.2C1235.88 724.053 1237.06 721.44 1239.4 719.36C1241.8 717.227 1245.11 716.16 1249.32 716.16C1251.72 716.16 1253.96 716.587 1256.04 717.44C1258.12 718.24 1259.91 719.28 1261.4 720.56L1258.36 724.32C1256.98 723.36 1255.56 722.613 1254.12 722.08C1252.68 721.547 1251.08 721.28 1249.32 721.28C1246.87 721.28 1245.06 721.84 1243.88 722.96C1242.76 724.08 1242.2 725.387 1242.2 726.88C1242.2 728.053 1242.55 729.04 1243.24 729.84C1243.94 730.587 1244.9 731.253 1246.12 731.84C1247.4 732.427 1248.84 732.987 1250.44 733.52C1252.47 734.267 1254.39 735.12 1256.2 736.08C1258.07 736.987 1259.56 738.187 1260.68 739.68C1261.86 741.12 1262.44 743.013 1262.44 745.36C1262.44 747.493 1261.88 749.44 1260.76 751.2C1259.7 752.907 1258.1 754.293 1255.96 755.36C1253.88 756.427 1251.3 756.96 1248.2 756.96Z" fill="black" fill-opacity="0.44"/>
<path d="M236.927 919.39L231.587 916.99L257.087 864.28L262.367 866.77L236.927 919.39ZM266.927 919.39L261.587 916.99L287.087 864.28L292.367 866.77L266.927 919.39ZM366.06 871.6L368.4 913H362.04L361.05 892.84C360.99 891.32 360.94 889.85 360.9 888.43C360.88 887.01 360.87 885.65 360.87 884.35C360.87 883.05 360.88 881.85 360.9 880.75C360.94 879.63 360.98 878.62 361.02 877.72L354.93 905.71H348.87L342.33 877.72C342.39 878.58 342.44 879.59 342.48 880.75C342.52 881.89 342.55 883.12 342.57 884.44C342.59 885.76 342.59 887.14 342.57 888.58C342.57 890.02 342.55 891.46 342.51 892.9L341.7 913H335.46L337.8 871.6H346.14L352.05 899.35L357.69 871.6H366.06ZM387.936 880.48C391.036 880.48 393.646 881.17 395.766 882.55C397.886 883.93 399.486 885.86 400.566 888.34C401.666 890.82 402.216 893.74 402.216 897.1C402.216 900.44 401.656 903.37 400.536 905.89C399.436 908.39 397.816 910.34 395.676 911.74C393.556 913.12 390.966 913.81 387.906 913.81C384.846 913.81 382.246 913.14 380.106 911.8C377.986 910.44 376.366 908.51 375.246 906.01C374.146 903.51 373.596 900.56 373.596 897.16C373.596 893.86 374.146 890.96 375.246 888.46C376.366 885.96 377.996 884.01 380.136 882.61C382.276 881.19 384.876 880.48 387.936 880.48ZM387.936 885.7C385.516 885.7 383.696 886.63 382.476 888.49C381.256 890.33 380.646 893.22 380.646 897.16C380.646 901.08 381.246 903.97 382.446 905.83C383.666 907.69 385.486 908.62 387.906 908.62C390.326 908.62 392.136 907.69 393.336 905.83C394.556 903.97 395.166 901.06 395.166 897.1C395.166 893.2 394.566 890.33 393.366 888.49C392.166 886.63 390.356 885.7 387.936 885.7ZM438.973 881.32L427.813 913H419.953L408.793 881.32H415.993L424.033 907.42L432.103 881.32H438.973ZM464.509 881.32V908.08H473.119V913H448.309V908.08H457.789V886.24H448.609V881.32H464.509ZM459.829 865.81C461.149 865.81 462.209 866.21 463.009 867.01C463.829 867.81 464.239 868.81 464.239 870.01C464.239 871.21 463.829 872.22 463.009 873.04C462.209 873.86 461.149 874.27 459.829 874.27C458.549 874.27 457.499 873.86 456.679 873.04C455.859 872.22 455.449 871.21 455.449 870.01C455.449 868.81 455.859 867.81 456.679 867.01C457.499 866.21 458.549 865.81 459.829 865.81ZM505.016 880.48C506.216 880.48 507.296 880.74 508.256 881.26C509.216 881.78 509.966 882.69 510.506 883.99C511.066 885.29 511.346 887.11 511.346 889.45V913H505.376V890.38C505.376 888.72 505.256 887.53 505.016 886.81C504.796 886.09 504.206 885.73 503.246 885.73C502.486 885.73 501.716 885.97 500.936 886.45C500.156 886.91 499.366 887.71 498.566 888.85V913H493.136V890.38C493.136 888.72 493.016 887.53 492.776 886.81C492.556 886.09 491.966 885.73 491.006 885.73C490.226 885.73 489.446 885.97 488.666 886.45C487.906 886.91 487.126 887.71 486.326 888.85V913H480.326V881.32H485.396L485.846 884.74C486.746 883.48 487.726 882.46 488.786 881.68C489.846 880.88 491.126 880.48 492.626 880.48C493.826 880.48 494.916 880.78 495.896 881.38C496.876 881.98 497.596 883.03 498.056 884.53C498.936 883.33 499.936 882.36 501.056 881.62C502.176 880.86 503.496 880.48 505.016 880.48ZM524.733 899.32C524.873 901.48 525.333 903.25 526.113 904.63C526.893 905.99 527.913 906.99 529.173 907.63C530.453 908.27 531.853 908.59 533.373 908.59C534.933 908.59 536.373 908.35 537.693 907.87C539.013 907.39 540.343 906.71 541.683 905.83L544.593 909.85C543.113 911.05 541.383 912.01 539.403 912.73C537.423 913.45 535.303 913.81 533.043 913.81C529.763 913.81 526.983 913.11 524.703 911.71C522.443 910.31 520.723 908.36 519.543 905.86C518.363 903.36 517.772 900.47 517.772 897.19C517.772 894.01 518.353 891.17 519.513 888.67C520.673 886.15 522.333 884.16 524.493 882.7C526.653 881.22 529.233 880.48 532.233 880.48C535.053 880.48 537.473 881.12 539.493 882.4C541.533 883.68 543.103 885.5 544.203 887.86C545.323 890.2 545.883 893.02 545.883 896.32C545.883 896.86 545.863 897.4 545.823 897.94C545.803 898.46 545.773 898.92 545.733 899.32H524.733ZM532.293 885.46C530.193 885.46 528.453 886.21 527.073 887.71C525.713 889.21 524.923 891.55 524.703 894.73H539.373C539.313 891.75 538.673 889.46 537.453 887.86C536.253 886.26 534.533 885.46 532.293 885.46ZM555.129 913V881.32H560.919L561.429 885.43C562.749 883.81 564.309 882.58 566.109 881.74C567.909 880.9 569.759 880.48 571.659 880.48C574.619 880.48 576.829 881.31 578.289 882.97C579.769 884.61 580.509 886.92 580.509 889.9V913H573.789V893.23C573.789 891.39 573.679 889.91 573.459 888.79C573.239 887.67 572.799 886.86 572.139 886.36C571.499 885.86 570.539 885.61 569.259 885.61C568.239 885.61 567.269 885.83 566.349 886.27C565.429 886.71 564.589 887.29 563.829 888.01C563.069 888.71 562.409 889.46 561.849 890.26V913H555.129ZM617.566 911.32C616.406 912.06 615.016 912.66 613.396 913.12C611.776 913.58 610.086 913.81 608.326 913.81C604.646 913.81 601.846 912.86 599.926 910.96C598.026 909.04 597.076 906.52 597.076 903.4V886.21H590.026V881.32H597.076V874.24L603.796 873.43V881.32H614.476L613.726 886.21H603.796V903.34C603.796 905.04 604.216 906.31 605.056 907.15C605.916 907.97 607.316 908.38 609.256 908.38C610.416 908.38 611.486 908.24 612.466 907.96C613.446 907.68 614.336 907.32 615.136 906.88L617.566 911.32ZM651.292 905.23C651.292 906.47 651.482 907.38 651.862 907.96C652.242 908.52 652.852 908.94 653.692 909.22L652.192 913.78C650.632 913.6 649.292 913.17 648.172 912.49C647.052 911.81 646.202 910.78 645.622 909.4C644.462 910.86 642.992 911.96 641.212 912.7C639.432 913.44 637.532 913.81 635.512 913.81C632.312 913.81 629.772 912.91 627.892 911.11C626.032 909.29 625.102 906.91 625.102 903.97C625.102 900.63 626.402 898.06 629.002 896.26C631.602 894.46 635.322 893.56 640.162 893.56H644.692V891.49C644.692 889.45 644.072 887.98 642.832 887.08C641.612 886.18 639.882 885.73 637.642 885.73C636.602 885.73 635.342 885.87 633.862 886.15C632.382 886.41 630.832 886.82 629.212 887.38L627.562 882.64C629.542 881.9 631.482 881.36 633.382 881.02C635.282 880.66 637.042 880.48 638.662 880.48C642.902 880.48 646.062 881.42 648.142 883.3C650.242 885.18 651.292 887.78 651.292 891.1V905.23ZM637.552 908.86C638.912 908.86 640.242 908.5 641.542 907.78C642.842 907.06 643.892 906.05 644.692 904.75V897.76H640.972C637.812 897.76 635.552 898.29 634.192 899.35C632.832 900.39 632.152 901.83 632.152 903.67C632.152 905.35 632.602 906.64 633.502 907.54C634.422 908.42 635.772 908.86 637.552 908.86ZM711.725 880.48C714.825 880.48 717.435 881.17 719.555 882.55C721.675 883.93 723.275 885.86 724.355 888.34C725.455 890.82 726.005 893.74 726.005 897.1C726.005 900.44 725.445 903.37 724.325 905.89C723.225 908.39 721.605 910.34 719.465 911.74C717.345 913.12 714.755 913.81 711.695 913.81C708.635 913.81 706.035 913.14 703.895 911.8C701.775 910.44 700.155 908.51 699.035 906.01C697.935 903.51 697.385 900.56 697.385 897.16C697.385 893.86 697.935 890.96 699.035 888.46C700.155 885.96 701.785 884.01 703.925 882.61C706.065 881.19 708.665 880.48 711.725 880.48ZM711.725 885.7C709.305 885.7 707.485 886.63 706.265 888.49C705.045 890.33 704.435 893.22 704.435 897.16C704.435 901.08 705.035 903.97 706.235 905.83C707.455 907.69 709.275 908.62 711.695 908.62C714.115 908.62 715.925 907.69 717.125 905.83C718.345 903.97 718.955 901.06 718.955 897.1C718.955 893.2 718.355 890.33 717.155 888.49C715.955 886.63 714.145 885.7 711.725 885.7ZM746.532 908.65C748.632 908.65 750.302 908.28 751.542 907.54C752.782 906.78 753.402 905.74 753.402 904.42C753.402 903.56 753.222 902.83 752.862 902.23C752.502 901.61 751.782 901.05 750.702 900.55C749.622 900.03 747.982 899.49 745.782 898.93C743.702 898.39 741.872 897.75 740.292 897.01C738.732 896.27 737.522 895.31 736.662 894.13C735.802 892.95 735.372 891.43 735.372 889.57C735.372 887.75 735.882 886.16 736.902 884.8C737.922 883.44 739.382 882.38 741.282 881.62C743.202 880.86 745.452 880.48 748.032 880.48C750.692 880.48 753.012 880.83 754.992 881.53C756.972 882.23 758.662 883.1 760.062 884.14L757.242 888.37C756.002 887.55 754.642 886.88 753.162 886.36C751.702 885.84 750.052 885.58 748.212 885.58C746.072 885.58 744.532 885.9 743.592 886.54C742.672 887.18 742.212 888.03 742.212 889.09C742.212 889.87 742.442 890.53 742.902 891.07C743.382 891.59 744.202 892.08 745.362 892.54C746.522 892.98 748.162 893.5 750.282 894.1C752.342 894.66 754.132 895.32 755.652 896.08C757.192 896.84 758.382 897.85 759.222 899.11C760.082 900.35 760.512 901.97 760.512 903.97C760.512 906.25 759.852 908.12 758.532 909.58C757.232 911.02 755.512 912.09 753.372 912.79C751.252 913.47 748.972 913.81 746.532 913.81C743.592 913.81 741.052 913.39 738.912 912.55C736.772 911.69 734.972 910.62 733.512 909.34L737.082 905.26C738.322 906.26 739.742 907.08 741.342 907.72C742.942 908.34 744.672 908.65 746.532 908.65ZM825.565 867.85L832.285 868.6V913H826.375L825.895 909.1C824.815 910.6 823.525 911.76 822.025 912.58C820.525 913.4 818.845 913.81 816.985 913.81C814.265 913.81 812.025 913.12 810.265 911.74C808.505 910.34 807.195 908.39 806.335 905.89C805.495 903.37 805.075 900.46 805.075 897.16C805.075 893.94 805.575 891.08 806.575 888.58C807.575 886.06 809.005 884.08 810.865 882.64C812.725 881.2 814.965 880.48 817.585 880.48C819.245 880.48 820.735 880.78 822.055 881.38C823.375 881.96 824.545 882.81 825.565 883.93V867.85ZM819.355 885.64C817.095 885.64 815.335 886.58 814.075 888.46C812.815 890.32 812.185 893.22 812.185 897.16C812.185 899.86 812.445 902.06 812.965 903.76C813.485 905.44 814.235 906.68 815.215 907.48C816.195 908.26 817.375 908.65 818.755 908.65C820.275 908.65 821.595 908.21 822.715 907.33C823.835 906.45 824.785 905.39 825.565 904.15V889.15C824.785 888.03 823.875 887.17 822.835 886.57C821.795 885.95 820.635 885.64 819.355 885.64ZM855.632 880.48C858.732 880.48 861.342 881.17 863.462 882.55C865.582 883.93 867.182 885.86 868.262 888.34C869.362 890.82 869.912 893.74 869.912 897.1C869.912 900.44 869.352 903.37 868.232 905.89C867.132 908.39 865.512 910.34 863.372 911.74C861.252 913.12 858.662 913.81 855.602 913.81C852.542 913.81 849.942 913.14 847.802 911.8C845.682 910.44 844.062 908.51 842.942 906.01C841.842 903.51 841.292 900.56 841.292 897.16C841.292 893.86 841.842 890.96 842.942 888.46C844.062 885.96 845.692 884.01 847.832 882.61C849.972 881.19 852.572 880.48 855.632 880.48ZM855.632 885.7C853.212 885.7 851.392 886.63 850.172 888.49C848.952 890.33 848.342 893.22 848.342 897.16C848.342 901.08 848.942 903.97 850.142 905.83C851.362 907.69 853.182 908.62 855.602 908.62C858.022 908.62 859.832 907.69 861.032 905.83C862.252 903.97 862.862 901.06 862.862 897.1C862.862 893.2 862.262 890.33 861.062 888.49C859.862 886.63 858.052 885.7 855.632 885.7ZM896.228 881.32V908.08H904.838V913H880.028V908.08H889.508V886.24H880.328V881.32H896.228ZM891.548 865.81C892.868 865.81 893.928 866.21 894.728 867.01C895.548 867.81 895.958 868.81 895.958 870.01C895.958 871.21 895.548 872.22 894.728 873.04C893.928 873.86 892.868 874.27 891.548 874.27C890.268 874.27 889.218 873.86 888.398 873.04C887.578 872.22 887.168 871.21 887.168 870.01C887.168 868.81 887.578 867.81 888.398 867.01C889.218 866.21 890.268 865.81 891.548 865.81ZM926.415 908.65C928.515 908.65 930.185 908.28 931.425 907.54C932.665 906.78 933.285 905.74 933.285 904.42C933.285 903.56 933.105 902.83 932.745 902.23C932.385 901.61 931.665 901.05 930.585 900.55C929.505 900.03 927.865 899.49 925.665 898.93C923.585 898.39 921.755 897.75 920.175 897.01C918.615 896.27 917.405 895.31 916.545 894.13C915.685 892.95 915.255 891.43 915.255 889.57C915.255 887.75 915.765 886.16 916.785 884.8C917.805 883.44 919.265 882.38 921.165 881.62C923.085 880.86 925.335 880.48 927.915 880.48C930.575 880.48 932.895 880.83 934.875 881.53C936.855 882.23 938.545 883.1 939.945 884.14L937.125 888.37C935.885 887.55 934.525 886.88 933.045 886.36C931.585 885.84 929.935 885.58 928.095 885.58C925.955 885.58 924.415 885.9 923.475 886.54C922.555 887.18 922.095 888.03 922.095 889.09C922.095 889.87 922.325 890.53 922.785 891.07C923.265 891.59 924.085 892.08 925.245 892.54C926.405 892.98 928.045 893.5 930.165 894.1C932.225 894.66 934.015 895.32 935.535 896.08C937.075 896.84 938.265 897.85 939.105 899.11C939.965 900.35 940.395 901.97 940.395 903.97C940.395 906.25 939.735 908.12 938.415 909.58C937.115 911.02 935.395 912.09 933.255 912.79C931.135 913.47 928.855 913.81 926.415 913.81C923.475 913.81 920.935 913.39 918.795 912.55C916.655 911.69 914.855 910.62 913.395 909.34L916.965 905.26C918.205 906.26 919.625 907.08 921.225 907.72C922.825 908.34 924.555 908.65 926.415 908.65ZM1002.12 908.29C1003.6 908.29 1004.98 908.04 1006.26 907.54C1007.54 907.02 1008.76 906.35 1009.92 905.53L1013.04 909.85C1011.66 911.03 1009.98 911.99 1008 912.73C1006.04 913.45 1004.01 913.81 1001.91 913.81C998.668 913.81 995.898 913.13 993.598 911.77C991.298 910.39 989.538 908.46 988.318 905.98C987.098 903.5 986.488 900.61 986.488 897.31C986.488 894.09 987.098 891.22 988.318 888.7C989.558 886.16 991.338 884.16 993.658 882.7C995.978 881.22 998.768 880.48 1002.03 880.48C1004.19 880.48 1006.18 880.8 1008 881.44C1009.82 882.08 1011.49 883.03 1013.01 884.29L1009.92 888.52C1008.68 887.66 1007.41 887.01 1006.11 886.57C1004.83 886.11 1003.51 885.88 1002.15 885.88C999.648 885.88 997.598 886.8 995.998 888.64C994.418 890.48 993.628 893.37 993.628 897.31C993.628 899.95 993.988 902.08 994.708 903.7C995.448 905.3 996.458 906.47 997.738 907.21C999.018 907.93 1000.48 908.29 1002.12 908.29ZM1047.03 905.23C1047.03 906.47 1047.22 907.38 1047.6 907.96C1047.98 908.52 1048.59 908.94 1049.43 909.22L1047.93 913.78C1046.37 913.6 1045.03 913.17 1043.91 912.49C1042.79 911.81 1041.94 910.78 1041.36 909.4C1040.2 910.86 1038.73 911.96 1036.95 912.7C1035.17 913.44 1033.27 913.81 1031.25 913.81C1028.05 913.81 1025.51 912.91 1023.63 911.11C1021.77 909.29 1020.84 906.91 1020.84 903.97C1020.84 900.63 1022.14 898.06 1024.74 896.26C1027.34 894.46 1031.06 893.56 1035.9 893.56H1040.43V891.49C1040.43 889.45 1039.81 887.98 1038.57 887.08C1037.35 886.18 1035.62 885.73 1033.38 885.73C1032.34 885.73 1031.08 885.87 1029.6 886.15C1028.12 886.41 1026.57 886.82 1024.95 887.38L1023.3 882.64C1025.28 881.9 1027.22 881.36 1029.12 881.02C1031.02 880.66 1032.78 880.48 1034.4 880.48C1038.64 880.48 1041.8 881.42 1043.88 883.3C1045.98 885.18 1047.03 887.78 1047.03 891.1V905.23ZM1033.29 908.86C1034.65 908.86 1035.98 908.5 1037.28 907.78C1038.58 907.06 1039.63 906.05 1040.43 904.75V897.76H1036.71C1033.55 897.76 1031.29 898.29 1029.93 899.35C1028.57 900.39 1027.89 901.83 1027.89 903.67C1027.89 905.35 1028.34 906.64 1029.24 907.54C1030.16 908.42 1031.51 908.86 1033.29 908.86ZM1059.1 913V908.2H1063.75V886.09H1059.1V881.32H1068.88L1070.11 888.67C1071.29 886.01 1072.75 883.99 1074.49 882.61C1076.25 881.21 1078.51 880.51 1081.27 880.51C1082.21 880.51 1083.05 880.59 1083.79 880.75C1084.55 880.89 1085.3 881.08 1086.04 881.32L1084.03 887.08C1083.39 886.9 1082.79 886.77 1082.23 886.69C1081.67 886.59 1081.05 886.54 1080.37 886.54C1078.07 886.54 1076.08 887.4 1074.4 889.12C1072.74 890.84 1071.43 893.28 1070.47 896.44V908.2H1076.86V913H1059.1ZM1080.1 892.99V885.19L1080.94 881.32H1086.04L1084.9 892.99H1080.1ZM1095.08 913V908.2H1099.73V886.09H1095.08V881.32H1104.86L1106.09 888.67C1107.27 886.01 1108.73 883.99 1110.47 882.61C1112.23 881.21 1114.49 880.51 1117.25 880.51C1118.19 880.51 1119.03 880.59 1119.77 880.75C1120.53 880.89 1121.28 881.08 1122.02 881.32L1120.01 887.08C1119.37 886.9 1118.77 886.77 1118.21 886.69C1117.65 886.59 1117.03 886.54 1116.35 886.54C1114.05 886.54 1112.06 887.4 1110.38 889.12C1108.72 890.84 1107.41 893.28 1106.45 896.44V908.2H1112.84V913H1095.08ZM1116.08 892.99V885.19L1116.92 881.32H1122.02L1120.88 892.99H1116.08ZM1143.44 880.48C1146.54 880.48 1149.15 881.17 1151.27 882.55C1153.39 883.93 1154.99 885.86 1156.07 888.34C1157.17 890.82 1157.72 893.74 1157.72 897.1C1157.72 900.44 1157.16 903.37 1156.04 905.89C1154.94 908.39 1153.32 910.34 1151.18 911.74C1149.06 913.12 1146.47 913.81 1143.41 913.81C1140.35 913.81 1137.75 913.14 1135.61 911.8C1133.49 910.44 1131.87 908.51 1130.75 906.01C1129.65 903.51 1129.1 900.56 1129.1 897.16C1129.1 893.86 1129.65 890.96 1130.75 888.46C1131.87 885.96 1133.5 884.01 1135.64 882.61C1137.78 881.19 1140.38 880.48 1143.44 880.48ZM1143.44 885.7C1141.02 885.7 1139.2 886.63 1137.98 888.49C1136.76 890.33 1136.15 893.22 1136.15 897.16C1136.15 901.08 1136.75 903.97 1137.95 905.83C1139.17 907.69 1140.99 908.62 1143.41 908.62C1145.83 908.62 1147.64 907.69 1148.84 905.83C1150.06 903.97 1150.67 901.06 1150.67 897.1C1150.67 893.2 1150.07 890.33 1148.87 888.49C1147.67 886.63 1145.86 885.7 1143.44 885.7ZM1178.25 908.65C1180.35 908.65 1182.02 908.28 1183.26 907.54C1184.5 906.78 1185.12 905.74 1185.12 904.42C1185.12 903.56 1184.94 902.83 1184.58 902.23C1184.22 901.61 1183.5 901.05 1182.42 900.55C1181.34 900.03 1179.7 899.49 1177.5 898.93C1175.42 898.39 1173.59 897.75 1172.01 897.01C1170.45 896.27 1169.24 895.31 1168.38 894.13C1167.52 892.95 1167.09 891.43 1167.09 889.57C1167.09 887.75 1167.6 886.16 1168.62 884.8C1169.64 883.44 1171.1 882.38 1173 881.62C1174.92 880.86 1177.17 880.48 1179.75 880.48C1182.41 880.48 1184.73 880.83 1186.71 881.53C1188.69 882.23 1190.38 883.1 1191.78 884.14L1188.96 888.37C1187.72 887.55 1186.36 886.88 1184.88 886.36C1183.42 885.84 1181.77 885.58 1179.93 885.58C1177.79 885.58 1176.25 885.9 1175.31 886.54C1174.39 887.18 1173.93 888.03 1173.93 889.09C1173.93 889.87 1174.16 890.53 1174.62 891.07C1175.1 891.59 1175.92 892.08 1177.08 892.54C1178.24 892.98 1179.88 893.5 1182 894.1C1184.06 894.66 1185.85 895.32 1187.37 896.08C1188.91 896.84 1190.1 897.85 1190.94 899.11C1191.8 900.35 1192.23 901.97 1192.23 903.97C1192.23 906.25 1191.57 908.12 1190.25 909.58C1188.95 911.02 1187.23 912.09 1185.09 912.79C1182.97 913.47 1180.69 913.81 1178.25 913.81C1175.31 913.81 1172.77 913.39 1170.63 912.55C1168.49 911.69 1166.69 910.62 1165.23 909.34L1168.8 905.26C1170.04 906.26 1171.46 907.08 1173.06 907.72C1174.66 908.34 1176.39 908.65 1178.25 908.65ZM247.84 950.09C250.62 950.09 252.86 950.78 254.56 952.16C256.26 953.54 257.5 955.49 258.28 958.01C259.08 960.53 259.48 963.52 259.48 966.98C259.48 970.26 259 973.19 258.04 975.77C257.08 978.33 255.69 980.35 253.87 981.83C252.05 983.29 249.84 984.02 247.24 984.02C244.14 984.02 241.62 982.91 239.68 980.69V995.3L230.2 996.29V951.14H238.6L239.02 954.71C240.32 953.05 241.74 951.87 243.28 951.17C244.82 950.45 246.34 950.09 247.84 950.09ZM244.9 957.08C243.8 957.08 242.83 957.41 241.99 958.07C241.15 958.73 240.38 959.63 239.68 960.77V974.21C240.34 975.19 241.03 975.91 241.75 976.37C242.49 976.83 243.36 977.06 244.36 977.06C246.04 977.06 247.35 976.3 248.29 974.78C249.23 973.24 249.7 970.68 249.7 967.1C249.7 964.46 249.51 962.42 249.13 960.98C248.75 959.52 248.2 958.51 247.48 957.95C246.76 957.37 245.9 957.08 244.9 957.08ZM279.977 950.09C283.257 950.09 286.047 950.79 288.347 952.19C290.647 953.59 292.407 955.56 293.627 958.1C294.847 960.62 295.457 963.58 295.457 966.98C295.457 970.52 294.837 973.57 293.597 976.13C292.377 978.67 290.617 980.62 288.317 981.98C286.017 983.34 283.237 984.02 279.977 984.02C276.737 984.02 273.957 983.35 271.637 982.01C269.337 980.67 267.567 978.73 266.327 976.19C265.107 973.65 264.497 970.6 264.497 967.04C264.497 963.66 265.107 960.7 266.327 958.16C267.567 955.62 269.337 953.64 271.637 952.22C273.957 950.8 276.737 950.09 279.977 950.09ZM279.977 957.08C278.037 957.08 276.597 957.88 275.657 959.48C274.737 961.06 274.277 963.58 274.277 967.04C274.277 970.56 274.737 973.11 275.657 974.69C276.597 976.27 278.037 977.06 279.977 977.06C281.917 977.06 283.347 976.27 284.267 974.69C285.207 973.11 285.677 970.54 285.677 966.98C285.677 963.54 285.207 961.03 284.267 959.45C283.347 957.87 281.917 957.08 279.977 957.08ZM314.933 977.24C316.513 977.24 317.783 976.99 318.743 976.49C319.723 975.99 320.213 975.24 320.213 974.24C320.213 973.56 320.023 972.99 319.643 972.53C319.263 972.07 318.533 971.63 317.453 971.21C316.373 970.79 314.773 970.29 312.653 969.71C310.713 969.19 308.993 968.53 307.493 967.73C306.013 966.93 304.853 965.9 304.013 964.64C303.193 963.38 302.783 961.81 302.783 959.93C302.783 958.03 303.313 956.34 304.373 954.86C305.433 953.38 306.993 952.22 309.053 951.38C311.113 950.52 313.633 950.09 316.613 950.09C319.453 950.09 321.923 950.46 324.023 951.2C326.143 951.92 327.973 952.84 329.513 953.96L325.733 959.54C324.413 958.72 322.993 958.07 321.473 957.59C319.953 957.09 318.423 956.84 316.883 956.84C315.343 956.84 314.193 957.05 313.433 957.47C312.693 957.87 312.323 958.48 312.323 959.3C312.323 959.84 312.513 960.31 312.893 960.71C313.293 961.09 314.033 961.49 315.113 961.91C316.193 962.31 317.773 962.81 319.853 963.41C321.913 963.99 323.703 964.66 325.223 965.42C326.763 966.18 327.953 967.2 328.793 968.48C329.633 969.74 330.053 971.41 330.053 973.49C330.053 975.81 329.363 977.76 327.983 979.34C326.603 980.9 324.773 982.07 322.493 982.85C320.213 983.63 317.713 984.02 314.993 984.02C311.913 984.02 309.193 983.58 306.833 982.7C304.473 981.82 302.463 980.66 300.803 979.22L305.573 973.88C306.813 974.84 308.213 975.64 309.773 976.28C311.353 976.92 313.073 977.24 314.933 977.24ZM357.6 951.14V976.52H365.7V983H339.09V976.52H348.12V957.62H339.39V951.14H357.6ZM351.87 934.46C353.51 934.46 354.85 934.97 355.89 935.99C356.93 937.01 357.45 938.28 357.45 939.8C357.45 941.32 356.93 942.6 355.89 943.64C354.85 944.66 353.51 945.17 351.87 945.17C350.21 945.17 348.85 944.66 347.79 943.64C346.75 942.6 346.23 941.32 346.23 939.8C346.23 938.28 346.75 937.01 347.79 935.99C348.85 934.97 350.21 934.46 351.87 934.46ZM390.996 976.55C392.296 976.55 393.516 976.3 394.656 975.8C395.816 975.28 396.966 974.62 398.106 973.82L402.336 979.82C400.936 981.02 399.226 982.02 397.206 982.82C395.206 983.62 392.966 984.02 390.486 984.02C387.066 984.02 384.126 983.32 381.666 981.92C379.206 980.5 377.316 978.54 375.996 976.04C374.676 973.52 374.016 970.6 374.016 967.28C374.016 963.96 374.686 961.01 376.026 958.43C377.386 955.83 379.306 953.79 381.786 952.31C384.286 950.83 387.246 950.09 390.666 950.09C393.086 950.09 395.236 950.43 397.116 951.11C399.016 951.77 400.756 952.76 402.336 954.08L398.226 959.78C397.146 959.02 396.006 958.43 394.806 958.01C393.606 957.59 392.356 957.38 391.056 957.38C388.916 957.38 387.186 958.14 385.866 959.66C384.566 961.16 383.916 963.7 383.916 967.28C383.916 969.62 384.226 971.47 384.846 972.83C385.466 974.17 386.306 975.13 387.366 975.71C388.446 976.27 389.656 976.55 390.996 976.55ZM436.903 973.82C436.903 975.02 437.063 975.89 437.383 976.43C437.723 976.97 438.263 977.38 439.003 977.66L437.053 983.9C435.173 983.72 433.583 983.31 432.283 982.67C431.003 982.01 429.993 981.02 429.253 979.7C428.033 981.16 426.473 982.25 424.573 982.97C422.673 983.67 420.733 984.02 418.753 984.02C415.473 984.02 412.853 983.09 410.893 981.23C408.953 979.35 407.983 976.94 407.983 974C407.983 970.54 409.333 967.87 412.033 965.99C414.753 964.11 418.573 963.17 423.493 963.17H427.783V961.97C427.783 960.31 427.243 959.08 426.163 958.28C425.103 957.48 423.543 957.08 421.483 957.08C420.463 957.08 419.153 957.23 417.553 957.53C415.953 957.81 414.353 958.22 412.753 958.76L410.563 952.46C412.623 951.68 414.763 951.09 416.983 950.69C419.223 950.29 421.223 950.09 422.983 950.09C427.723 950.09 431.223 951.06 433.483 953C435.763 954.92 436.903 957.7 436.903 961.34V973.82ZM422.023 977.24C423.043 977.24 424.113 976.94 425.233 976.34C426.353 975.72 427.203 974.85 427.783 973.73V968.57H425.443C422.803 968.57 420.863 968.98 419.623 969.8C418.383 970.6 417.763 971.78 417.763 973.34C417.763 974.56 418.133 975.52 418.873 976.22C419.633 976.9 420.683 977.24 422.023 977.24ZM459.859 950.09C463.139 950.09 465.929 950.79 468.229 952.19C470.529 953.59 472.289 955.56 473.509 958.1C474.729 960.62 475.339 963.58 475.339 966.98C475.339 970.52 474.719 973.57 473.479 976.13C472.259 978.67 470.499 980.62 468.199 981.98C465.899 983.34 463.119 984.02 459.859 984.02C456.619 984.02 453.839 983.35 451.519 982.01C449.219 980.67 447.449 978.73 446.209 976.19C444.989 973.65 444.379 970.6 444.379 967.04C444.379 963.66 444.989 960.7 446.209 958.16C447.449 955.62 449.219 953.64 451.519 952.22C453.839 950.8 456.619 950.09 459.859 950.09ZM459.859 957.08C457.919 957.08 456.479 957.88 455.539 959.48C454.619 961.06 454.159 963.58 454.159 967.04C454.159 970.56 454.619 973.11 455.539 974.69C456.479 976.27 457.919 977.06 459.859 977.06C461.799 977.06 463.229 976.27 464.149 974.69C465.089 973.11 465.559 970.54 465.559 966.98C465.559 963.54 465.089 961.03 464.149 959.45C463.229 957.87 461.799 957.08 459.859 957.08ZM480.836 994.16V986.72H510.836V994.16H480.836ZM534.903 976.55C536.203 976.55 537.423 976.3 538.563 975.8C539.723 975.28 540.873 974.62 542.013 973.82L546.243 979.82C544.843 981.02 543.133 982.02 541.113 982.82C539.113 983.62 536.873 984.02 534.393 984.02C530.973 984.02 528.033 983.32 525.573 981.92C523.113 980.5 521.223 978.54 519.903 976.04C518.583 973.52 517.923 970.6 517.923 967.28C517.923 963.96 518.593 961.01 519.933 958.43C521.293 955.83 523.213 953.79 525.693 952.31C528.193 950.83 531.153 950.09 534.573 950.09C536.993 950.09 539.143 950.43 541.023 951.11C542.923 951.77 544.663 952.76 546.243 954.08L542.133 959.78C541.053 959.02 539.913 958.43 538.713 958.01C537.513 957.59 536.263 957.38 534.963 957.38C532.823 957.38 531.093 958.14 529.773 959.66C528.473 961.16 527.823 963.7 527.823 967.28C527.823 969.62 528.133 971.47 528.753 972.83C529.373 974.17 530.213 975.13 531.273 975.71C532.353 976.27 533.563 976.55 534.903 976.55ZM580.809 973.82C580.809 975.02 580.969 975.89 581.289 976.43C581.629 976.97 582.169 977.38 582.909 977.66L580.959 983.9C579.079 983.72 577.489 983.31 576.189 982.67C574.909 982.01 573.899 981.02 573.159 979.7C571.939 981.16 570.379 982.25 568.479 982.97C566.579 983.67 564.639 984.02 562.659 984.02C559.379 984.02 556.759 983.09 554.799 981.23C552.859 979.35 551.889 976.94 551.889 974C551.889 970.54 553.239 967.87 555.939 965.99C558.659 964.11 562.479 963.17 567.399 963.17H571.689V961.97C571.689 960.31 571.149 959.08 570.069 958.28C569.009 957.48 567.449 957.08 565.389 957.08C564.369 957.08 563.059 957.23 561.459 957.53C559.859 957.81 558.259 958.22 556.659 958.76L554.469 952.46C556.529 951.68 558.669 951.09 560.889 950.69C563.129 950.29 565.129 950.09 566.889 950.09C571.629 950.09 575.129 951.06 577.389 953C579.669 954.92 580.809 957.7 580.809 961.34V973.82ZM565.929 977.24C566.949 977.24 568.019 976.94 569.139 976.34C570.259 975.72 571.109 974.85 571.689 973.73V968.57H569.349C566.709 968.57 564.769 968.98 563.529 969.8C562.289 970.6 561.669 971.78 561.669 973.34C561.669 974.56 562.039 975.52 562.779 976.22C563.539 976.9 564.589 977.24 565.929 977.24ZM590.266 983V976.64H594.466V957.44H590.266V951.14H601.696L603.436 958.31C604.576 955.57 606.026 953.53 607.786 952.19C609.566 950.85 611.736 950.18 614.296 950.18C615.376 950.18 616.336 950.27 617.176 950.45C618.016 950.61 618.806 950.84 619.546 951.14L616.666 958.97C616.086 958.81 615.506 958.69 614.926 958.61C614.346 958.53 613.706 958.49 613.006 958.49C610.926 958.49 609.096 959.34 607.516 961.04C605.956 962.74 604.766 964.9 603.946 967.52V976.64H610.246V983H590.266ZM611.836 964.46V955.16L613.246 951.14H619.546L617.776 964.46H611.836ZM626.242 983V976.64H630.442V957.44H626.242V951.14H637.672L639.412 958.31C640.552 955.57 642.002 953.53 643.762 952.19C645.542 950.85 647.712 950.18 650.272 950.18C651.352 950.18 652.312 950.27 653.152 950.45C653.992 950.61 654.782 950.84 655.522 951.14L652.642 958.97C652.062 958.81 651.482 958.69 650.902 958.61C650.322 958.53 649.682 958.49 648.982 958.49C646.902 958.49 645.072 959.34 643.492 961.04C641.932 962.74 640.742 964.9 639.922 967.52V976.64H646.222V983H626.242ZM647.812 964.46V955.16L649.222 951.14H655.522L653.752 964.46H647.812ZM675.719 950.09C678.999 950.09 681.789 950.79 684.089 952.19C686.389 953.59 688.149 955.56 689.369 958.1C690.589 960.62 691.199 963.58 691.199 966.98C691.199 970.52 690.579 973.57 689.339 976.13C688.119 978.67 686.359 980.62 684.059 981.98C681.759 983.34 678.979 984.02 675.719 984.02C672.479 984.02 669.699 983.35 667.379 982.01C665.079 980.67 663.309 978.73 662.069 976.19C660.849 973.65 660.239 970.6 660.239 967.04C660.239 963.66 660.849 960.7 662.069 958.16C663.309 955.62 665.079 953.64 667.379 952.22C669.699 950.8 672.479 950.09 675.719 950.09ZM675.719 957.08C673.779 957.08 672.339 957.88 671.399 959.48C670.479 961.06 670.019 963.58 670.019 967.04C670.019 970.56 670.479 973.11 671.399 974.69C672.339 976.27 673.779 977.06 675.719 977.06C677.659 977.06 679.089 976.27 680.009 974.69C680.949 973.11 681.419 970.54 681.419 966.98C681.419 963.54 680.949 961.03 680.009 959.45C679.089 957.87 677.659 957.08 675.719 957.08ZM718.985 941.42V981.8H709.745V950.75L701.195 956.09L697.175 949.58L710.585 941.42H718.985ZM726.755 975.83V983H699.725V975.83H726.755ZM797.268 954.32V961.73H770.028V954.32H797.268ZM797.268 966.95V974.3H770.028V966.95H797.268ZM859.442 950.09C862.222 950.09 864.462 950.78 866.162 952.16C867.862 953.54 869.102 955.49 869.882 958.01C870.682 960.53 871.082 963.52 871.082 966.98C871.082 970.26 870.602 973.19 869.642 975.77C868.682 978.33 867.292 980.35 865.472 981.83C863.652 983.29 861.442 984.02 858.842 984.02C855.742 984.02 853.222 982.91 851.282 980.69V995.3L841.802 996.29V951.14H850.202L850.622 954.71C851.922 953.05 853.342 951.87 854.882 951.17C856.422 950.45 857.942 950.09 859.442 950.09ZM856.502 957.08C855.402 957.08 854.432 957.41 853.592 958.07C852.752 958.73 851.982 959.63 851.282 960.77V974.21C851.942 975.19 852.632 975.91 853.352 976.37C854.092 976.83 854.962 977.06 855.962 977.06C857.642 977.06 858.952 976.3 859.892 974.78C860.832 973.24 861.302 970.68 861.302 967.1C861.302 964.46 861.112 962.42 860.732 960.98C860.352 959.52 859.802 958.51 859.082 957.95C858.362 957.37 857.502 957.08 856.502 957.08ZM891.578 950.09C894.858 950.09 897.648 950.79 899.948 952.19C902.248 953.59 904.008 955.56 905.228 958.1C906.448 960.62 907.058 963.58 907.058 966.98C907.058 970.52 906.438 973.57 905.198 976.13C903.978 978.67 902.218 980.62 899.918 981.98C897.618 983.34 894.838 984.02 891.578 984.02C888.338 984.02 885.558 983.35 883.238 982.01C880.938 980.67 879.168 978.73 877.928 976.19C876.708 973.65 876.098 970.6 876.098 967.04C876.098 963.66 876.708 960.7 877.928 958.16C879.168 955.62 880.938 953.64 883.238 952.22C885.558 950.8 888.338 950.09 891.578 950.09ZM891.578 957.08C889.638 957.08 888.198 957.88 887.258 959.48C886.338 961.06 885.878 963.58 885.878 967.04C885.878 970.56 886.338 973.11 887.258 974.69C888.198 976.27 889.638 977.06 891.578 977.06C893.518 977.06 894.948 976.27 895.868 974.69C896.808 973.11 897.278 970.54 897.278 966.98C897.278 963.54 896.808 961.03 895.868 959.45C894.948 957.87 893.518 957.08 891.578 957.08ZM926.535 977.24C928.115 977.24 929.385 976.99 930.345 976.49C931.325 975.99 931.815 975.24 931.815 974.24C931.815 973.56 931.625 972.99 931.245 972.53C930.865 972.07 930.135 971.63 929.055 971.21C927.975 970.79 926.375 970.29 924.255 969.71C922.315 969.19 920.595 968.53 919.095 967.73C917.615 966.93 916.455 965.9 915.615 964.64C914.795 963.38 914.385 961.81 914.385 959.93C914.385 958.03 914.915 956.34 915.975 954.86C917.035 953.38 918.595 952.22 920.655 951.38C922.715 950.52 925.235 950.09 928.215 950.09C931.055 950.09 933.525 950.46 935.625 951.2C937.745 951.92 939.575 952.84 941.115 953.96L937.335 959.54C936.015 958.72 934.595 958.07 933.075 957.59C931.555 957.09 930.025 956.84 928.485 956.84C926.945 956.84 925.795 957.05 925.035 957.47C924.295 957.87 923.925 958.48 923.925 959.3C923.925 959.84 924.115 960.31 924.495 960.71C924.895 961.09 925.635 961.49 926.715 961.91C927.795 962.31 929.375 962.81 931.455 963.41C933.515 963.99 935.305 964.66 936.825 965.42C938.365 966.18 939.555 967.2 940.395 968.48C941.235 969.74 941.655 971.41 941.655 973.49C941.655 975.81 940.965 977.76 939.585 979.34C938.205 980.9 936.375 982.07 934.095 982.85C931.815 983.63 929.315 984.02 926.595 984.02C923.515 984.02 920.795 983.58 918.435 982.7C916.075 981.82 914.065 980.66 912.405 979.22L917.175 973.88C918.415 974.84 919.815 975.64 921.375 976.28C922.955 976.92 924.675 977.24 926.535 977.24ZM969.201 951.14V976.52H977.301V983H950.691V976.52H959.721V957.62H950.991V951.14H969.201ZM963.471 934.46C965.111 934.46 966.451 934.97 967.491 935.99C968.531 937.01 969.051 938.28 969.051 939.8C969.051 941.32 968.531 942.6 967.491 943.64C966.451 944.66 965.111 945.17 963.471 945.17C961.811 945.17 960.451 944.66 959.391 943.64C958.351 942.6 957.831 941.32 957.831 939.8C957.831 938.28 958.351 937.01 959.391 935.99C960.451 934.97 961.811 934.46 963.471 934.46ZM1002.6 976.55C1003.9 976.55 1005.12 976.3 1006.26 975.8C1007.42 975.28 1008.57 974.62 1009.71 973.82L1013.94 979.82C1012.54 981.02 1010.83 982.02 1008.81 982.82C1006.81 983.62 1004.57 984.02 1002.09 984.02C998.668 984.02 995.728 983.32 993.268 981.92C990.808 980.5 988.918 978.54 987.598 976.04C986.278 973.52 985.618 970.6 985.618 967.28C985.618 963.96 986.288 961.01 987.628 958.43C988.988 955.83 990.908 953.79 993.388 952.31C995.888 950.83 998.848 950.09 1002.27 950.09C1004.69 950.09 1006.84 950.43 1008.72 951.11C1010.62 951.77 1012.36 952.76 1013.94 954.08L1009.83 959.78C1008.75 959.02 1007.61 958.43 1006.41 958.01C1005.21 957.59 1003.96 957.38 1002.66 957.38C1000.52 957.38 998.788 958.14 997.468 959.66C996.168 961.16 995.518 963.7 995.518 967.28C995.518 969.62 995.828 971.47 996.448 972.83C997.068 974.17 997.908 975.13 998.968 975.71C1000.05 976.27 1001.26 976.55 1002.6 976.55ZM1048.5 973.82C1048.5 975.02 1048.66 975.89 1048.98 976.43C1049.32 976.97 1049.86 977.38 1050.6 977.66L1048.65 983.9C1046.77 983.72 1045.18 983.31 1043.88 982.67C1042.6 982.01 1041.59 981.02 1040.85 979.7C1039.63 981.16 1038.07 982.25 1036.17 982.97C1034.27 983.67 1032.33 984.02 1030.35 984.02C1027.07 984.02 1024.45 983.09 1022.49 981.23C1020.55 979.35 1019.58 976.94 1019.58 974C1019.58 970.54 1020.93 967.87 1023.63 965.99C1026.35 964.11 1030.17 963.17 1035.09 963.17H1039.38V961.97C1039.38 960.31 1038.84 959.08 1037.76 958.28C1036.7 957.48 1035.14 957.08 1033.08 957.08C1032.06 957.08 1030.75 957.23 1029.15 957.53C1027.55 957.81 1025.95 958.22 1024.35 958.76L1022.16 952.46C1024.22 951.68 1026.36 951.09 1028.58 950.69C1030.82 950.29 1032.82 950.09 1034.58 950.09C1039.32 950.09 1042.82 951.06 1045.08 953C1047.36 954.92 1048.5 957.7 1048.5 961.34V973.82ZM1033.62 977.24C1034.64 977.24 1035.71 976.94 1036.83 976.34C1037.95 975.72 1038.8 974.85 1039.38 973.73V968.57H1037.04C1034.4 968.57 1032.46 968.98 1031.22 969.8C1029.98 970.6 1029.36 971.78 1029.36 973.34C1029.36 974.56 1029.73 975.52 1030.47 976.22C1031.23 976.9 1032.28 977.24 1033.62 977.24ZM1071.46 950.09C1074.74 950.09 1077.53 950.79 1079.83 952.19C1082.13 953.59 1083.89 955.56 1085.11 958.1C1086.33 960.62 1086.94 963.58 1086.94 966.98C1086.94 970.52 1086.32 973.57 1085.08 976.13C1083.86 978.67 1082.1 980.62 1079.8 981.98C1077.5 983.34 1074.72 984.02 1071.46 984.02C1068.22 984.02 1065.44 983.35 1063.12 982.01C1060.82 980.67 1059.05 978.73 1057.81 976.19C1056.59 973.65 1055.98 970.6 1055.98 967.04C1055.98 963.66 1056.59 960.7 1057.81 958.16C1059.05 955.62 1060.82 953.64 1063.12 952.22C1065.44 950.8 1068.22 950.09 1071.46 950.09ZM1071.46 957.08C1069.52 957.08 1068.08 957.88 1067.14 959.48C1066.22 961.06 1065.76 963.58 1065.76 967.04C1065.76 970.56 1066.22 973.11 1067.14 974.69C1068.08 976.27 1069.52 977.06 1071.46 977.06C1073.4 977.06 1074.83 976.27 1075.75 974.69C1076.69 973.11 1077.16 970.54 1077.16 966.98C1077.16 963.54 1076.69 961.03 1075.75 959.45C1074.83 957.87 1073.4 957.08 1071.46 957.08ZM1092.44 994.16V986.72H1122.44V994.16H1092.44ZM1146.5 976.55C1147.8 976.55 1149.02 976.3 1150.16 975.8C1151.32 975.28 1152.47 974.62 1153.61 973.82L1157.84 979.82C1156.44 981.02 1154.73 982.02 1152.71 982.82C1150.71 983.62 1148.47 984.02 1145.99 984.02C1142.57 984.02 1139.63 983.32 1137.17 981.92C1134.71 980.5 1132.82 978.54 1131.5 976.04C1130.18 973.52 1129.52 970.6 1129.52 967.28C1129.52 963.96 1130.19 961.01 1131.53 958.43C1132.89 955.83 1134.81 953.79 1137.29 952.31C1139.79 950.83 1142.75 950.09 1146.17 950.09C1148.59 950.09 1150.74 950.43 1152.62 951.11C1154.52 951.77 1156.26 952.76 1157.84 954.08L1153.73 959.78C1152.65 959.02 1151.51 958.43 1150.31 958.01C1149.11 957.59 1147.86 957.38 1146.56 957.38C1144.42 957.38 1142.69 958.14 1141.37 959.66C1140.07 961.16 1139.42 963.7 1139.42 967.28C1139.42 969.62 1139.73 971.47 1140.35 972.83C1140.97 974.17 1141.81 975.13 1142.87 975.71C1143.95 976.27 1145.16 976.55 1146.5 976.55ZM1192.41 973.82C1192.41 975.02 1192.57 975.89 1192.89 976.43C1193.23 976.97 1193.77 977.38 1194.51 977.66L1192.56 983.9C1190.68 983.72 1189.09 983.31 1187.79 982.67C1186.51 982.01 1185.5 981.02 1184.76 979.7C1183.54 981.16 1181.98 982.25 1180.08 982.97C1178.18 983.67 1176.24 984.02 1174.26 984.02C1170.98 984.02 1168.36 983.09 1166.4 981.23C1164.46 979.35 1163.49 976.94 1163.49 974C1163.49 970.54 1164.84 967.87 1167.54 965.99C1170.26 964.11 1174.08 963.17 1179 963.17H1183.29V961.97C1183.29 960.31 1182.75 959.08 1181.67 958.28C1180.61 957.48 1179.05 957.08 1176.99 957.08C1175.97 957.08 1174.66 957.23 1173.06 957.53C1171.46 957.81 1169.86 958.22 1168.26 958.76L1166.07 952.46C1168.13 951.68 1170.27 951.09 1172.49 950.69C1174.73 950.29 1176.73 950.09 1178.49 950.09C1183.23 950.09 1186.73 951.06 1188.99 953C1191.27 954.92 1192.41 957.7 1192.41 961.34V973.82ZM1177.53 977.24C1178.55 977.24 1179.62 976.94 1180.74 976.34C1181.86 975.72 1182.71 974.85 1183.29 973.73V968.57H1180.95C1178.31 968.57 1176.37 968.98 1175.13 969.8C1173.89 970.6 1173.27 971.78 1173.27 973.34C1173.27 974.56 1173.64 975.52 1174.38 976.22C1175.14 976.9 1176.19 977.24 1177.53 977.24ZM1201.87 983V976.64H1206.07V957.44H1201.87V951.14H1213.3L1215.04 958.31C1216.18 955.57 1217.63 953.53 1219.39 952.19C1221.17 950.85 1223.34 950.18 1225.9 950.18C1226.98 950.18 1227.94 950.27 1228.78 950.45C1229.62 950.61 1230.41 950.84 1231.15 951.14L1228.27 958.97C1227.69 958.81 1227.11 958.69 1226.53 958.61C1225.95 958.53 1225.31 958.49 1224.61 958.49C1222.53 958.49 1220.7 959.34 1219.12 961.04C1217.56 962.74 1216.37 964.9 1215.55 967.52V976.64H1221.85V983H1201.87ZM1223.44 964.46V955.16L1224.85 951.14H1231.15L1229.38 964.46H1223.44ZM1237.84 983V976.64H1242.04V957.44H1237.84V951.14H1249.27L1251.01 958.31C1252.15 955.57 1253.6 953.53 1255.36 952.19C1257.14 950.85 1259.31 950.18 1261.87 950.18C1262.95 950.18 1263.91 950.27 1264.75 950.45C1265.59 950.61 1266.38 950.84 1267.12 951.14L1264.24 958.97C1263.66 958.81 1263.08 958.69 1262.5 958.61C1261.92 958.53 1261.28 958.49 1260.58 958.49C1258.5 958.49 1256.67 959.34 1255.09 961.04C1253.53 962.74 1252.34 964.9 1251.52 967.52V976.64H1257.82V983H1237.84ZM1259.41 964.46V955.16L1260.82 951.14H1267.12L1265.35 964.46H1259.41ZM1287.32 950.09C1290.6 950.09 1293.39 950.79 1295.69 952.19C1297.99 953.59 1299.75 955.56 1300.97 958.1C1302.19 960.62 1302.8 963.58 1302.8 966.98C1302.8 970.52 1302.18 973.57 1300.94 976.13C1299.72 978.67 1297.96 980.62 1295.66 981.98C1293.36 983.34 1290.58 984.02 1287.32 984.02C1284.08 984.02 1281.3 983.35 1278.98 982.01C1276.68 980.67 1274.91 978.73 1273.67 976.19C1272.45 973.65 1271.84 970.6 1271.84 967.04C1271.84 963.66 1272.45 960.7 1273.67 958.16C1274.91 955.62 1276.68 953.64 1278.98 952.22C1281.3 950.8 1284.08 950.09 1287.32 950.09ZM1287.32 957.08C1285.38 957.08 1283.94 957.88 1283 959.48C1282.08 961.06 1281.62 963.58 1281.62 967.04C1281.62 970.56 1282.08 973.11 1283 974.69C1283.94 976.27 1285.38 977.06 1287.32 977.06C1289.26 977.06 1290.69 976.27 1291.61 974.69C1292.55 973.11 1293.02 970.54 1293.02 966.98C1293.02 963.54 1292.55 961.03 1291.61 959.45C1290.69 957.87 1289.26 957.08 1287.32 957.08ZM1330.59 941.42V981.8H1321.35V950.75L1312.8 956.09L1308.78 949.58L1322.19 941.42H1330.59ZM1338.36 975.83V983H1311.33V975.83H1338.36ZM1399.18 948.26V960.59H1411.27V967.91H1399.18V980.24H1391.26V967.91H1379.23V960.59H1391.26V948.26H1399.18ZM1480.1 941.42L1479.05 948.2H1463.84V957.17C1464.86 956.69 1465.91 956.35 1466.99 956.15C1468.07 955.95 1469.07 955.85 1469.99 955.85C1472.13 955.85 1474.08 956.39 1475.84 957.47C1477.62 958.55 1479.03 960.1 1480.07 962.12C1481.13 964.14 1481.66 966.55 1481.66 969.35C1481.66 972.15 1480.97 974.66 1479.59 976.88C1478.23 979.1 1476.33 980.85 1473.89 982.13C1471.45 983.39 1468.6 984.02 1465.34 984.02C1462.32 984.02 1459.65 983.46 1457.33 982.34C1455.01 981.2 1453.08 979.69 1451.54 977.81L1457 972.83C1458 974.11 1459.15 975.09 1460.45 975.77C1461.77 976.43 1463.15 976.76 1464.59 976.76C1466.79 976.76 1468.55 976.09 1469.87 974.75C1471.21 973.41 1471.88 971.66 1471.88 969.5C1471.88 967.78 1471.64 966.4 1471.16 965.36C1470.7 964.32 1470.05 963.57 1469.21 963.11C1468.37 962.63 1467.39 962.39 1466.27 962.39C1465.51 962.39 1464.7 962.49 1463.84 962.69C1462.98 962.89 1462.09 963.25 1461.17 963.77H1454.78V941.42H1480.1ZM1503.18 971.18C1504.96 971.18 1506.45 971.78 1507.65 972.98C1508.85 974.16 1509.45 975.64 1509.45 977.42C1509.45 978.52 1509.23 979.67 1508.79 980.87C1508.37 982.05 1507.76 983.56 1506.96 985.4L1502.79 994.85H1496.67L1499.61 982.55C1497.77 981.37 1496.85 979.64 1496.85 977.36C1496.85 975.6 1497.46 974.13 1498.68 972.95C1499.9 971.77 1501.4 971.18 1503.18 971.18ZM1503.18 950.66C1504.94 950.66 1506.42 951.29 1507.62 952.55C1508.84 953.79 1509.45 955.26 1509.45 956.96C1509.45 958.66 1508.84 960.13 1507.62 961.37C1506.42 962.61 1504.94 963.23 1503.18 963.23C1501.42 963.23 1499.92 962.61 1498.68 961.37C1497.46 960.13 1496.85 958.66 1496.85 956.96C1496.85 955.82 1497.13 954.78 1497.69 953.84C1498.27 952.88 1499.04 952.11 1500 951.53C1500.96 950.95 1502.02 950.66 1503.18 950.66ZM247.84 1020.09C250.62 1020.09 252.86 1020.78 254.56 1022.16C256.26 1023.54 257.5 1025.49 258.28 1028.01C259.08 1030.53 259.48 1033.52 259.48 1036.98C259.48 1040.26 259 1043.19 258.04 1045.77C257.08 1048.33 255.69 1050.35 253.87 1051.83C252.05 1053.29 249.84 1054.02 247.24 1054.02C244.14 1054.02 241.62 1052.91 239.68 1050.69V1065.3L230.2 1066.29V1021.14H238.6L239.02 1024.71C240.32 1023.05 241.74 1021.87 243.28 1021.17C244.82 1020.45 246.34 1020.09 247.84 1020.09ZM244.9 1027.08C243.8 1027.08 242.83 1027.41 241.99 1028.07C241.15 1028.73 240.38 1029.63 239.68 1030.77V1044.21C240.34 1045.19 241.03 1045.91 241.75 1046.37C242.49 1046.83 243.36 1047.06 244.36 1047.06C246.04 1047.06 247.35 1046.3 248.29 1044.78C249.23 1043.24 249.7 1040.68 249.7 1037.1C249.7 1034.46 249.51 1032.42 249.13 1030.98C248.75 1029.52 248.2 1028.51 247.48 1027.95C246.76 1027.37 245.9 1027.08 244.9 1027.08ZM279.977 1020.09C283.257 1020.09 286.047 1020.79 288.347 1022.19C290.647 1023.59 292.407 1025.56 293.627 1028.1C294.847 1030.62 295.457 1033.58 295.457 1036.98C295.457 1040.52 294.837 1043.57 293.597 1046.13C292.377 1048.67 290.617 1050.62 288.317 1051.98C286.017 1053.34 283.237 1054.02 279.977 1054.02C276.737 1054.02 273.957 1053.35 271.637 1052.01C269.337 1050.67 267.567 1048.73 266.327 1046.19C265.107 1043.65 264.497 1040.6 264.497 1037.04C264.497 1033.66 265.107 1030.7 266.327 1028.16C267.567 1025.62 269.337 1023.64 271.637 1022.22C273.957 1020.8 276.737 1020.09 279.977 1020.09ZM279.977 1027.08C278.037 1027.08 276.597 1027.88 275.657 1029.48C274.737 1031.06 274.277 1033.58 274.277 1037.04C274.277 1040.56 274.737 1043.11 275.657 1044.69C276.597 1046.27 278.037 1047.06 279.977 1047.06C281.917 1047.06 283.347 1046.27 284.267 1044.69C285.207 1043.11 285.677 1040.54 285.677 1036.98C285.677 1033.54 285.207 1031.03 284.267 1029.45C283.347 1027.87 281.917 1027.08 279.977 1027.08ZM314.933 1047.24C316.513 1047.24 317.783 1046.99 318.743 1046.49C319.723 1045.99 320.213 1045.24 320.213 1044.24C320.213 1043.56 320.023 1042.99 319.643 1042.53C319.263 1042.07 318.533 1041.63 317.453 1041.21C316.373 1040.79 314.773 1040.29 312.653 1039.71C310.713 1039.19 308.993 1038.53 307.493 1037.73C306.013 1036.93 304.853 1035.9 304.013 1034.64C303.193 1033.38 302.783 1031.81 302.783 1029.93C302.783 1028.03 303.313 1026.34 304.373 1024.86C305.433 1023.38 306.993 1022.22 309.053 1021.38C311.113 1020.52 313.633 1020.09 316.613 1020.09C319.453 1020.09 321.923 1020.46 324.023 1021.2C326.143 1021.92 327.973 1022.84 329.513 1023.96L325.733 1029.54C324.413 1028.72 322.993 1028.07 321.473 1027.59C319.953 1027.09 318.423 1026.84 316.883 1026.84C315.343 1026.84 314.193 1027.05 313.433 1027.47C312.693 1027.87 312.323 1028.48 312.323 1029.3C312.323 1029.84 312.513 1030.31 312.893 1030.71C313.293 1031.09 314.033 1031.49 315.113 1031.91C316.193 1032.31 317.773 1032.81 319.853 1033.41C321.913 1033.99 323.703 1034.66 325.223 1035.42C326.763 1036.18 327.953 1037.2 328.793 1038.48C329.633 1039.74 330.053 1041.41 330.053 1043.49C330.053 1045.81 329.363 1047.76 327.983 1049.34C326.603 1050.9 324.773 1052.07 322.493 1052.85C320.213 1053.63 317.713 1054.02 314.993 1054.02C311.913 1054.02 309.193 1053.58 306.833 1052.7C304.473 1051.82 302.463 1050.66 300.803 1049.22L305.573 1043.88C306.813 1044.84 308.213 1045.64 309.773 1046.28C311.353 1046.92 313.073 1047.24 314.933 1047.24ZM357.6 1021.14V1046.52H365.7V1053H339.09V1046.52H348.12V1027.62H339.39V1021.14H357.6ZM351.87 1004.46C353.51 1004.46 354.85 1004.97 355.89 1005.99C356.93 1007.01 357.45 1008.28 357.45 1009.8C357.45 1011.32 356.93 1012.6 355.89 1013.64C354.85 1014.66 353.51 1015.17 351.87 1015.17C350.21 1015.17 348.85 1014.66 347.79 1013.64C346.75 1012.6 346.23 1011.32 346.23 1009.8C346.23 1008.28 346.75 1007.01 347.79 1005.99C348.85 1004.97 350.21 1004.46 351.87 1004.46ZM390.996 1046.55C392.296 1046.55 393.516 1046.3 394.656 1045.8C395.816 1045.28 396.966 1044.62 398.106 1043.82L402.336 1049.82C400.936 1051.02 399.226 1052.02 397.206 1052.82C395.206 1053.62 392.966 1054.02 390.486 1054.02C387.066 1054.02 384.126 1053.32 381.666 1051.92C379.206 1050.5 377.316 1048.54 375.996 1046.04C374.676 1043.52 374.016 1040.6 374.016 1037.28C374.016 1033.96 374.686 1031.01 376.026 1028.43C377.386 1025.83 379.306 1023.79 381.786 1022.31C384.286 1020.83 387.246 1020.09 390.666 1020.09C393.086 1020.09 395.236 1020.43 397.116 1021.11C399.016 1021.77 400.756 1022.76 402.336 1024.08L398.226 1029.78C397.146 1029.02 396.006 1028.43 394.806 1028.01C393.606 1027.59 392.356 1027.38 391.056 1027.38C388.916 1027.38 387.186 1028.14 385.866 1029.66C384.566 1031.16 383.916 1033.7 383.916 1037.28C383.916 1039.62 384.226 1041.47 384.846 1042.83C385.466 1044.17 386.306 1045.13 387.366 1045.71C388.446 1046.27 389.656 1046.55 390.996 1046.55ZM436.903 1043.82C436.903 1045.02 437.063 1045.89 437.383 1046.43C437.723 1046.97 438.263 1047.38 439.003 1047.66L437.053 1053.9C435.173 1053.72 433.583 1053.31 432.283 1052.67C431.003 1052.01 429.993 1051.02 429.253 1049.7C428.033 1051.16 426.473 1052.25 424.573 1052.97C422.673 1053.67 420.733 1054.02 418.753 1054.02C415.473 1054.02 412.853 1053.09 410.893 1051.23C408.953 1049.35 407.983 1046.94 407.983 1044C407.983 1040.54 409.333 1037.87 412.033 1035.99C414.753 1034.11 418.573 1033.17 423.493 1033.17H427.783V1031.97C427.783 1030.31 427.243 1029.08 426.163 1028.28C425.103 1027.48 423.543 1027.08 421.483 1027.08C420.463 1027.08 419.153 1027.23 417.553 1027.53C415.953 1027.81 414.353 1028.22 412.753 1028.76L410.563 1022.46C412.623 1021.68 414.763 1021.09 416.983 1020.69C419.223 1020.29 421.223 1020.09 422.983 1020.09C427.723 1020.09 431.223 1021.06 433.483 1023C435.763 1024.92 436.903 1027.7 436.903 1031.34V1043.82ZM422.023 1047.24C423.043 1047.24 424.113 1046.94 425.233 1046.34C426.353 1045.72 427.203 1044.85 427.783 1043.73V1038.57H425.443C422.803 1038.57 420.863 1038.98 419.623 1039.8C418.383 1040.6 417.763 1041.78 417.763 1043.34C417.763 1044.56 418.133 1045.52 418.873 1046.22C419.633 1046.9 420.683 1047.24 422.023 1047.24ZM459.859 1020.09C463.139 1020.09 465.929 1020.79 468.229 1022.19C470.529 1023.59 472.289 1025.56 473.509 1028.1C474.729 1030.62 475.339 1033.58 475.339 1036.98C475.339 1040.52 474.719 1043.57 473.479 1046.13C472.259 1048.67 470.499 1050.62 468.199 1051.98C465.899 1053.34 463.119 1054.02 459.859 1054.02C456.619 1054.02 453.839 1053.35 451.519 1052.01C449.219 1050.67 447.449 1048.73 446.209 1046.19C444.989 1043.65 444.379 1040.6 444.379 1037.04C444.379 1033.66 444.989 1030.7 446.209 1028.16C447.449 1025.62 449.219 1023.64 451.519 1022.22C453.839 1020.8 456.619 1020.09 459.859 1020.09ZM459.859 1027.08C457.919 1027.08 456.479 1027.88 455.539 1029.48C454.619 1031.06 454.159 1033.58 454.159 1037.04C454.159 1040.56 454.619 1043.11 455.539 1044.69C456.479 1046.27 457.919 1047.06 459.859 1047.06C461.799 1047.06 463.229 1046.27 464.149 1044.69C465.089 1043.11 465.559 1040.54 465.559 1036.98C465.559 1033.54 465.089 1031.03 464.149 1029.45C463.229 1027.87 461.799 1027.08 459.859 1027.08ZM480.836 1064.16V1056.72H510.836V1064.16H480.836ZM534.903 1046.55C536.203 1046.55 537.423 1046.3 538.563 1045.8C539.723 1045.28 540.873 1044.62 542.013 1043.82L546.243 1049.82C544.843 1051.02 543.133 1052.02 541.113 1052.82C539.113 1053.62 536.873 1054.02 534.393 1054.02C530.973 1054.02 528.033 1053.32 525.573 1051.92C523.113 1050.5 521.223 1048.54 519.903 1046.04C518.583 1043.52 517.923 1040.6 517.923 1037.28C517.923 1033.96 518.593 1031.01 519.933 1028.43C521.293 1025.83 523.213 1023.79 525.693 1022.31C528.193 1020.83 531.153 1020.09 534.573 1020.09C536.993 1020.09 539.143 1020.43 541.023 1021.11C542.923 1021.77 544.663 1022.76 546.243 1024.08L542.133 1029.78C541.053 1029.02 539.913 1028.43 538.713 1028.01C537.513 1027.59 536.263 1027.38 534.963 1027.38C532.823 1027.38 531.093 1028.14 529.773 1029.66C528.473 1031.16 527.823 1033.7 527.823 1037.28C527.823 1039.62 528.133 1041.47 528.753 1042.83C529.373 1044.17 530.213 1045.13 531.273 1045.71C532.353 1046.27 533.563 1046.55 534.903 1046.55ZM580.809 1043.82C580.809 1045.02 580.969 1045.89 581.289 1046.43C581.629 1046.97 582.169 1047.38 582.909 1047.66L580.959 1053.9C579.079 1053.72 577.489 1053.31 576.189 1052.67C574.909 1052.01 573.899 1051.02 573.159 1049.7C571.939 1051.16 570.379 1052.25 568.479 1052.97C566.579 1053.67 564.639 1054.02 562.659 1054.02C559.379 1054.02 556.759 1053.09 554.799 1051.23C552.859 1049.35 551.889 1046.94 551.889 1044C551.889 1040.54 553.239 1037.87 555.939 1035.99C558.659 1034.11 562.479 1033.17 567.399 1033.17H571.689V1031.97C571.689 1030.31 571.149 1029.08 570.069 1028.28C569.009 1027.48 567.449 1027.08 565.389 1027.08C564.369 1027.08 563.059 1027.23 561.459 1027.53C559.859 1027.81 558.259 1028.22 556.659 1028.76L554.469 1022.46C556.529 1021.68 558.669 1021.09 560.889 1020.69C563.129 1020.29 565.129 1020.09 566.889 1020.09C571.629 1020.09 575.129 1021.06 577.389 1023C579.669 1024.92 580.809 1027.7 580.809 1031.34V1043.82ZM565.929 1047.24C566.949 1047.24 568.019 1046.94 569.139 1046.34C570.259 1045.72 571.109 1044.85 571.689 1043.73V1038.57H569.349C566.709 1038.57 564.769 1038.98 563.529 1039.8C562.289 1040.6 561.669 1041.78 561.669 1043.34C561.669 1044.56 562.039 1045.52 562.779 1046.22C563.539 1046.9 564.589 1047.24 565.929 1047.24ZM590.266 1053V1046.64H594.466V1027.44H590.266V1021.14H601.696L603.436 1028.31C604.576 1025.57 606.026 1023.53 607.786 1022.19C609.566 1020.85 611.736 1020.18 614.296 1020.18C615.376 1020.18 616.336 1020.27 617.176 1020.45C618.016 1020.61 618.806 1020.84 619.546 1021.14L616.666 1028.97C616.086 1028.81 615.506 1028.69 614.926 1028.61C614.346 1028.53 613.706 1028.49 613.006 1028.49C610.926 1028.49 609.096 1029.34 607.516 1031.04C605.956 1032.74 604.766 1034.9 603.946 1037.52V1046.64H610.246V1053H590.266ZM611.836 1034.46V1025.16L613.246 1021.14H619.546L617.776 1034.46H611.836ZM626.242 1053V1046.64H630.442V1027.44H626.242V1021.14H637.672L639.412 1028.31C640.552 1025.57 642.002 1023.53 643.762 1022.19C645.542 1020.85 647.712 1020.18 650.272 1020.18C651.352 1020.18 652.312 1020.27 653.152 1020.45C653.992 1020.61 654.782 1020.84 655.522 1021.14L652.642 1028.97C652.062 1028.81 651.482 1028.69 650.902 1028.61C650.322 1028.53 649.682 1028.49 648.982 1028.49C646.902 1028.49 645.072 1029.34 643.492 1031.04C641.932 1032.74 640.742 1034.9 639.922 1037.52V1046.64H646.222V1053H626.242ZM647.812 1034.46V1025.16L649.222 1021.14H655.522L653.752 1034.46H647.812ZM675.719 1020.09C678.999 1020.09 681.789 1020.79 684.089 1022.19C686.389 1023.59 688.149 1025.56 689.369 1028.1C690.589 1030.62 691.199 1033.58 691.199 1036.98C691.199 1040.52 690.579 1043.57 689.339 1046.13C688.119 1048.67 686.359 1050.62 684.059 1051.98C681.759 1053.34 678.979 1054.02 675.719 1054.02C672.479 1054.02 669.699 1053.35 667.379 1052.01C665.079 1050.67 663.309 1048.73 662.069 1046.19C660.849 1043.65 660.239 1040.6 660.239 1037.04C660.239 1033.66 660.849 1030.7 662.069 1028.16C663.309 1025.62 665.079 1023.64 667.379 1022.22C669.699 1020.8 672.479 1020.09 675.719 1020.09ZM675.719 1027.08C673.779 1027.08 672.339 1027.88 671.399 1029.48C670.479 1031.06 670.019 1033.58 670.019 1037.04C670.019 1040.56 670.479 1043.11 671.399 1044.69C672.339 1046.27 673.779 1047.06 675.719 1047.06C677.659 1047.06 679.089 1046.27 680.009 1044.69C680.949 1043.11 681.419 1040.54 681.419 1036.98C681.419 1033.54 680.949 1031.03 680.009 1029.45C679.089 1027.87 677.659 1027.08 675.719 1027.08ZM710.255 1010.37C713.415 1010.37 716.055 1010.92 718.175 1012.02C720.315 1013.12 721.915 1014.58 722.975 1016.4C724.055 1018.2 724.595 1020.16 724.595 1022.28C724.595 1023.96 724.305 1025.61 723.725 1027.23C723.165 1028.83 722.235 1030.53 720.935 1032.33C719.635 1034.11 717.905 1036.09 715.745 1038.27C713.605 1040.45 710.955 1042.95 707.795 1045.77H725.555L724.535 1053H696.905V1046.28C699.645 1043.64 702.025 1041.3 704.045 1039.26C706.065 1037.22 707.765 1035.41 709.145 1033.83C710.545 1032.25 711.665 1030.84 712.505 1029.6C713.365 1028.36 713.985 1027.22 714.365 1026.18C714.745 1025.12 714.935 1024.1 714.935 1023.12C714.935 1021.44 714.445 1020.11 713.465 1019.13C712.505 1018.15 711.135 1017.66 709.355 1017.66C707.775 1017.66 706.405 1017.99 705.245 1018.65C704.085 1019.31 702.965 1020.38 701.885 1021.86L696.065 1017.48C697.625 1015.32 699.545 1013.6 701.825 1012.32C704.105 1011.02 706.915 1010.37 710.255 1010.37ZM797.268 1024.32V1031.73H770.028V1024.32H797.268ZM797.268 1036.95V1044.3H770.028V1036.95H797.268ZM859.442 1020.09C862.222 1020.09 864.462 1020.78 866.162 1022.16C867.862 1023.54 869.102 1025.49 869.882 1028.01C870.682 1030.53 871.082 1033.52 871.082 1036.98C871.082 1040.26 870.602 1043.19 869.642 1045.77C868.682 1048.33 867.292 1050.35 865.472 1051.83C863.652 1053.29 861.442 1054.02 858.842 1054.02C855.742 1054.02 853.222 1052.91 851.282 1050.69V1065.3L841.802 1066.29V1021.14H850.202L850.622 1024.71C851.922 1023.05 853.342 1021.87 854.882 1021.17C856.422 1020.45 857.942 1020.09 859.442 1020.09ZM856.502 1027.08C855.402 1027.08 854.432 1027.41 853.592 1028.07C852.752 1028.73 851.982 1029.63 851.282 1030.77V1044.21C851.942 1045.19 852.632 1045.91 853.352 1046.37C854.092 1046.83 854.962 1047.06 855.962 1047.06C857.642 1047.06 858.952 1046.3 859.892 1044.78C860.832 1043.24 861.302 1040.68 861.302 1037.1C861.302 1034.46 861.112 1032.42 860.732 1030.98C860.352 1029.52 859.802 1028.51 859.082 1027.95C858.362 1027.37 857.502 1027.08 856.502 1027.08ZM891.578 1020.09C894.858 1020.09 897.648 1020.79 899.948 1022.19C902.248 1023.59 904.008 1025.56 905.228 1028.1C906.448 1030.62 907.058 1033.58 907.058 1036.98C907.058 1040.52 906.438 1043.57 905.198 1046.13C903.978 1048.67 902.218 1050.62 899.918 1051.98C897.618 1053.34 894.838 1054.02 891.578 1054.02C888.338 1054.02 885.558 1053.35 883.238 1052.01C880.938 1050.67 879.168 1048.73 877.928 1046.19C876.708 1043.65 876.098 1040.6 876.098 1037.04C876.098 1033.66 876.708 1030.7 877.928 1028.16C879.168 1025.62 880.938 1023.64 883.238 1022.22C885.558 1020.8 888.338 1020.09 891.578 1020.09ZM891.578 1027.08C889.638 1027.08 888.198 1027.88 887.258 1029.48C886.338 1031.06 885.878 1033.58 885.878 1037.04C885.878 1040.56 886.338 1043.11 887.258 1044.69C888.198 1046.27 889.638 1047.06 891.578 1047.06C893.518 1047.06 894.948 1046.27 895.868 1044.69C896.808 1043.11 897.278 1040.54 897.278 1036.98C897.278 1033.54 896.808 1031.03 895.868 1029.45C894.948 1027.87 893.518 1027.08 891.578 1027.08ZM926.535 1047.24C928.115 1047.24 929.385 1046.99 930.345 1046.49C931.325 1045.99 931.815 1045.24 931.815 1044.24C931.815 1043.56 931.625 1042.99 931.245 1042.53C930.865 1042.07 930.135 1041.63 929.055 1041.21C927.975 1040.79 926.375 1040.29 924.255 1039.71C922.315 1039.19 920.595 1038.53 919.095 1037.73C917.615 1036.93 916.455 1035.9 915.615 1034.64C914.795 1033.38 914.385 1031.81 914.385 1029.93C914.385 1028.03 914.915 1026.34 915.975 1024.86C917.035 1023.38 918.595 1022.22 920.655 1021.38C922.715 1020.52 925.235 1020.09 928.215 1020.09C931.055 1020.09 933.525 1020.46 935.625 1021.2C937.745 1021.92 939.575 1022.84 941.115 1023.96L937.335 1029.54C936.015 1028.72 934.595 1028.07 933.075 1027.59C931.555 1027.09 930.025 1026.84 928.485 1026.84C926.945 1026.84 925.795 1027.05 925.035 1027.47C924.295 1027.87 923.925 1028.48 923.925 1029.3C923.925 1029.84 924.115 1030.31 924.495 1030.71C924.895 1031.09 925.635 1031.49 926.715 1031.91C927.795 1032.31 929.375 1032.81 931.455 1033.41C933.515 1033.99 935.305 1034.66 936.825 1035.42C938.365 1036.18 939.555 1037.2 940.395 1038.48C941.235 1039.74 941.655 1041.41 941.655 1043.49C941.655 1045.81 940.965 1047.76 939.585 1049.34C938.205 1050.9 936.375 1052.07 934.095 1052.85C931.815 1053.63 929.315 1054.02 926.595 1054.02C923.515 1054.02 920.795 1053.58 918.435 1052.7C916.075 1051.82 914.065 1050.66 912.405 1049.22L917.175 1043.88C918.415 1044.84 919.815 1045.64 921.375 1046.28C922.955 1046.92 924.675 1047.24 926.535 1047.24ZM969.201 1021.14V1046.52H977.301V1053H950.691V1046.52H959.721V1027.62H950.991V1021.14H969.201ZM963.471 1004.46C965.111 1004.46 966.451 1004.97 967.491 1005.99C968.531 1007.01 969.051 1008.28 969.051 1009.8C969.051 1011.32 968.531 1012.6 967.491 1013.64C966.451 1014.66 965.111 1015.17 963.471 1015.17C961.811 1015.17 960.451 1014.66 959.391 1013.64C958.351 1012.6 957.831 1011.32 957.831 1009.8C957.831 1008.28 958.351 1007.01 959.391 1005.99C960.451 1004.97 961.811 1004.46 963.471 1004.46ZM1002.6 1046.55C1003.9 1046.55 1005.12 1046.3 1006.26 1045.8C1007.42 1045.28 1008.57 1044.62 1009.71 1043.82L1013.94 1049.82C1012.54 1051.02 1010.83 1052.02 1008.81 1052.82C1006.81 1053.62 1004.57 1054.02 1002.09 1054.02C998.668 1054.02 995.728 1053.32 993.268 1051.92C990.808 1050.5 988.918 1048.54 987.598 1046.04C986.278 1043.52 985.618 1040.6 985.618 1037.28C985.618 1033.96 986.288 1031.01 987.628 1028.43C988.988 1025.83 990.908 1023.79 993.388 1022.31C995.888 1020.83 998.848 1020.09 1002.27 1020.09C1004.69 1020.09 1006.84 1020.43 1008.72 1021.11C1010.62 1021.77 1012.36 1022.76 1013.94 1024.08L1009.83 1029.78C1008.75 1029.02 1007.61 1028.43 1006.41 1028.01C1005.21 1027.59 1003.96 1027.38 1002.66 1027.38C1000.52 1027.38 998.788 1028.14 997.468 1029.66C996.168 1031.16 995.518 1033.7 995.518 1037.28C995.518 1039.62 995.828 1041.47 996.448 1042.83C997.068 1044.17 997.908 1045.13 998.968 1045.71C1000.05 1046.27 1001.26 1046.55 1002.6 1046.55ZM1048.5 1043.82C1048.5 1045.02 1048.66 1045.89 1048.98 1046.43C1049.32 1046.97 1049.86 1047.38 1050.6 1047.66L1048.65 1053.9C1046.77 1053.72 1045.18 1053.31 1043.88 1052.67C1042.6 1052.01 1041.59 1051.02 1040.85 1049.7C1039.63 1051.16 1038.07 1052.25 1036.17 1052.97C1034.27 1053.67 1032.33 1054.02 1030.35 1054.02C1027.07 1054.02 1024.45 1053.09 1022.49 1051.23C1020.55 1049.35 1019.58 1046.94 1019.58 1044C1019.58 1040.54 1020.93 1037.87 1023.63 1035.99C1026.35 1034.11 1030.17 1033.17 1035.09 1033.17H1039.38V1031.97C1039.38 1030.31 1038.84 1029.08 1037.76 1028.28C1036.7 1027.48 1035.14 1027.08 1033.08 1027.08C1032.06 1027.08 1030.75 1027.23 1029.15 1027.53C1027.55 1027.81 1025.95 1028.22 1024.35 1028.76L1022.16 1022.46C1024.22 1021.68 1026.36 1021.09 1028.58 1020.69C1030.82 1020.29 1032.82 1020.09 1034.58 1020.09C1039.32 1020.09 1042.82 1021.06 1045.08 1023C1047.36 1024.92 1048.5 1027.7 1048.5 1031.34V1043.82ZM1033.62 1047.24C1034.64 1047.24 1035.71 1046.94 1036.83 1046.34C1037.95 1045.72 1038.8 1044.85 1039.38 1043.73V1038.57H1037.04C1034.4 1038.57 1032.46 1038.98 1031.22 1039.8C1029.98 1040.6 1029.36 1041.78 1029.36 1043.34C1029.36 1044.56 1029.73 1045.52 1030.47 1046.22C1031.23 1046.9 1032.28 1047.24 1033.62 1047.24ZM1071.46 1020.09C1074.74 1020.09 1077.53 1020.79 1079.83 1022.19C1082.13 1023.59 1083.89 1025.56 1085.11 1028.1C1086.33 1030.62 1086.94 1033.58 1086.94 1036.98C1086.94 1040.52 1086.32 1043.57 1085.08 1046.13C1083.86 1048.67 1082.1 1050.62 1079.8 1051.98C1077.5 1053.34 1074.72 1054.02 1071.46 1054.02C1068.22 1054.02 1065.44 1053.35 1063.12 1052.01C1060.82 1050.67 1059.05 1048.73 1057.81 1046.19C1056.59 1043.65 1055.98 1040.6 1055.98 1037.04C1055.98 1033.66 1056.59 1030.7 1057.81 1028.16C1059.05 1025.62 1060.82 1023.64 1063.12 1022.22C1065.44 1020.8 1068.22 1020.09 1071.46 1020.09ZM1071.46 1027.08C1069.52 1027.08 1068.08 1027.88 1067.14 1029.48C1066.22 1031.06 1065.76 1033.58 1065.76 1037.04C1065.76 1040.56 1066.22 1043.11 1067.14 1044.69C1068.08 1046.27 1069.52 1047.06 1071.46 1047.06C1073.4 1047.06 1074.83 1046.27 1075.75 1044.69C1076.69 1043.11 1077.16 1040.54 1077.16 1036.98C1077.16 1033.54 1076.69 1031.03 1075.75 1029.45C1074.83 1027.87 1073.4 1027.08 1071.46 1027.08ZM1092.44 1064.16V1056.72H1122.44V1064.16H1092.44ZM1146.5 1046.55C1147.8 1046.55 1149.02 1046.3 1150.16 1045.8C1151.32 1045.28 1152.47 1044.62 1153.61 1043.82L1157.84 1049.82C1156.44 1051.02 1154.73 1052.02 1152.71 1052.82C1150.71 1053.62 1148.47 1054.02 1145.99 1054.02C1142.57 1054.02 1139.63 1053.32 1137.17 1051.92C1134.71 1050.5 1132.82 1048.54 1131.5 1046.04C1130.18 1043.52 1129.52 1040.6 1129.52 1037.28C1129.52 1033.96 1130.19 1031.01 1131.53 1028.43C1132.89 1025.83 1134.81 1023.79 1137.29 1022.31C1139.79 1020.83 1142.75 1020.09 1146.17 1020.09C1148.59 1020.09 1150.74 1020.43 1152.62 1021.11C1154.52 1021.77 1156.26 1022.76 1157.84 1024.08L1153.73 1029.78C1152.65 1029.02 1151.51 1028.43 1150.31 1028.01C1149.11 1027.59 1147.86 1027.38 1146.56 1027.38C1144.42 1027.38 1142.69 1028.14 1141.37 1029.66C1140.07 1031.16 1139.42 1033.7 1139.42 1037.28C1139.42 1039.62 1139.73 1041.47 1140.35 1042.83C1140.97 1044.17 1141.81 1045.13 1142.87 1045.71C1143.95 1046.27 1145.16 1046.55 1146.5 1046.55ZM1192.41 1043.82C1192.41 1045.02 1192.57 1045.89 1192.89 1046.43C1193.23 1046.97 1193.77 1047.38 1194.51 1047.66L1192.56 1053.9C1190.68 1053.72 1189.09 1053.31 1187.79 1052.67C1186.51 1052.01 1185.5 1051.02 1184.76 1049.7C1183.54 1051.16 1181.98 1052.25 1180.08 1052.97C1178.18 1053.67 1176.24 1054.02 1174.26 1054.02C1170.98 1054.02 1168.36 1053.09 1166.4 1051.23C1164.46 1049.35 1163.49 1046.94 1163.49 1044C1163.49 1040.54 1164.84 1037.87 1167.54 1035.99C1170.26 1034.11 1174.08 1033.17 1179 1033.17H1183.29V1031.97C1183.29 1030.31 1182.75 1029.08 1181.67 1028.28C1180.61 1027.48 1179.05 1027.08 1176.99 1027.08C1175.97 1027.08 1174.66 1027.23 1173.06 1027.53C1171.46 1027.81 1169.86 1028.22 1168.26 1028.76L1166.07 1022.46C1168.13 1021.68 1170.27 1021.09 1172.49 1020.69C1174.73 1020.29 1176.73 1020.09 1178.49 1020.09C1183.23 1020.09 1186.73 1021.06 1188.99 1023C1191.27 1024.92 1192.41 1027.7 1192.41 1031.34V1043.82ZM1177.53 1047.24C1178.55 1047.24 1179.62 1046.94 1180.74 1046.34C1181.86 1045.72 1182.71 1044.85 1183.29 1043.73V1038.57H1180.95C1178.31 1038.57 1176.37 1038.98 1175.13 1039.8C1173.89 1040.6 1173.27 1041.78 1173.27 1043.34C1173.27 1044.56 1173.64 1045.52 1174.38 1046.22C1175.14 1046.9 1176.19 1047.24 1177.53 1047.24ZM1201.87 1053V1046.64H1206.07V1027.44H1201.87V1021.14H1213.3L1215.04 1028.31C1216.18 1025.57 1217.63 1023.53 1219.39 1022.19C1221.17 1020.85 1223.34 1020.18 1225.9 1020.18C1226.98 1020.18 1227.94 1020.27 1228.78 1020.45C1229.62 1020.61 1230.41 1020.84 1231.15 1021.14L1228.27 1028.97C1227.69 1028.81 1227.11 1028.69 1226.53 1028.61C1225.95 1028.53 1225.31 1028.49 1224.61 1028.49C1222.53 1028.49 1220.7 1029.34 1219.12 1031.04C1217.56 1032.74 1216.37 1034.9 1215.55 1037.52V1046.64H1221.85V1053H1201.87ZM1223.44 1034.46V1025.16L1224.85 1021.14H1231.15L1229.38 1034.46H1223.44ZM1237.84 1053V1046.64H1242.04V1027.44H1237.84V1021.14H1249.27L1251.01 1028.31C1252.15 1025.57 1253.6 1023.53 1255.36 1022.19C1257.14 1020.85 1259.31 1020.18 1261.87 1020.18C1262.95 1020.18 1263.91 1020.27 1264.75 1020.45C1265.59 1020.61 1266.38 1020.84 1267.12 1021.14L1264.24 1028.97C1263.66 1028.81 1263.08 1028.69 1262.5 1028.61C1261.92 1028.53 1261.28 1028.49 1260.58 1028.49C1258.5 1028.49 1256.67 1029.34 1255.09 1031.04C1253.53 1032.74 1252.34 1034.9 1251.52 1037.52V1046.64H1257.82V1053H1237.84ZM1259.41 1034.46V1025.16L1260.82 1021.14H1267.12L1265.35 1034.46H1259.41ZM1287.32 1020.09C1290.6 1020.09 1293.39 1020.79 1295.69 1022.19C1297.99 1023.59 1299.75 1025.56 1300.97 1028.1C1302.19 1030.62 1302.8 1033.58 1302.8 1036.98C1302.8 1040.52 1302.18 1043.57 1300.94 1046.13C1299.72 1048.67 1297.96 1050.62 1295.66 1051.98C1293.36 1053.34 1290.58 1054.02 1287.32 1054.02C1284.08 1054.02 1281.3 1053.35 1278.98 1052.01C1276.68 1050.67 1274.91 1048.73 1273.67 1046.19C1272.45 1043.65 1271.84 1040.6 1271.84 1037.04C1271.84 1033.66 1272.45 1030.7 1273.67 1028.16C1274.91 1025.62 1276.68 1023.64 1278.98 1022.22C1281.3 1020.8 1284.08 1020.09 1287.32 1020.09ZM1287.32 1027.08C1285.38 1027.08 1283.94 1027.88 1283 1029.48C1282.08 1031.06 1281.62 1033.58 1281.62 1037.04C1281.62 1040.56 1282.08 1043.11 1283 1044.69C1283.94 1046.27 1285.38 1047.06 1287.32 1047.06C1289.26 1047.06 1290.69 1046.27 1291.61 1044.69C1292.55 1043.11 1293.02 1040.54 1293.02 1036.98C1293.02 1033.54 1292.55 1031.03 1291.61 1029.45C1290.69 1027.87 1289.26 1027.08 1287.32 1027.08ZM1321.86 1010.37C1325.02 1010.37 1327.66 1010.92 1329.78 1012.02C1331.92 1013.12 1333.52 1014.58 1334.58 1016.4C1335.66 1018.2 1336.2 1020.16 1336.2 1022.28C1336.2 1023.96 1335.91 1025.61 1335.33 1027.23C1334.77 1028.83 1333.84 1030.53 1332.54 1032.33C1331.24 1034.11 1329.51 1036.09 1327.35 1038.27C1325.21 1040.45 1322.56 1042.95 1319.4 1045.77H1337.16L1336.14 1053H1308.51V1046.28C1311.25 1043.64 1313.63 1041.3 1315.65 1039.26C1317.67 1037.22 1319.37 1035.41 1320.75 1033.83C1322.15 1032.25 1323.27 1030.84 1324.11 1029.6C1324.97 1028.36 1325.59 1027.22 1325.97 1026.18C1326.35 1025.12 1326.54 1024.1 1326.54 1023.12C1326.54 1021.44 1326.05 1020.11 1325.07 1019.13C1324.11 1018.15 1322.74 1017.66 1320.96 1017.66C1319.38 1017.66 1318.01 1017.99 1316.85 1018.65C1315.69 1019.31 1314.57 1020.38 1313.49 1021.86L1307.67 1017.48C1309.23 1015.32 1311.15 1013.6 1313.43 1012.32C1315.71 1011.02 1318.52 1010.37 1321.86 1010.37ZM1399.18 1018.26V1030.59H1411.27V1037.91H1399.18V1050.24H1391.26V1037.91H1379.23V1030.59H1391.26V1018.26H1399.18ZM1465.52 1010.37C1468.52 1010.37 1471.07 1010.86 1473.17 1011.84C1475.29 1012.8 1476.9 1014.09 1478 1015.71C1479.12 1017.31 1479.68 1019.08 1479.68 1021.02C1479.68 1022.78 1479.33 1024.32 1478.63 1025.64C1477.93 1026.94 1476.94 1028.03 1475.66 1028.91C1474.4 1029.79 1472.91 1030.48 1471.19 1030.98C1473.11 1031.24 1474.8 1031.76 1476.26 1032.54C1477.74 1033.3 1478.9 1034.39 1479.74 1035.81C1480.58 1037.23 1481 1039.06 1481 1041.3C1481 1043.64 1480.35 1045.77 1479.05 1047.69C1477.77 1049.61 1475.93 1051.15 1473.53 1052.31C1471.13 1053.45 1468.26 1054.02 1464.92 1054.02C1461.82 1054.02 1459.04 1053.48 1456.58 1052.4C1454.12 1051.3 1452.02 1049.76 1450.28 1047.78L1455.62 1042.8C1456.82 1044.18 1458.15 1045.19 1459.61 1045.83C1461.09 1046.45 1462.65 1046.76 1464.29 1046.76C1466.35 1046.76 1468.03 1046.24 1469.33 1045.2C1470.63 1044.14 1471.28 1042.62 1471.28 1040.64C1471.28 1039.16 1471 1037.97 1470.44 1037.07C1469.9 1036.15 1469.1 1035.48 1468.04 1035.06C1467 1034.64 1465.73 1034.43 1464.23 1034.43H1460.45L1461.53 1027.89H1464.23C1465.45 1027.89 1466.53 1027.69 1467.47 1027.29C1468.41 1026.89 1469.15 1026.29 1469.69 1025.49C1470.23 1024.67 1470.5 1023.66 1470.5 1022.46C1470.5 1020.9 1469.94 1019.67 1468.82 1018.77C1467.7 1017.87 1466.25 1017.42 1464.47 1017.42C1462.81 1017.42 1461.3 1017.74 1459.94 1018.38C1458.6 1019.02 1457.34 1019.9 1456.16 1021.02L1451.3 1015.98C1453.2 1014.14 1455.33 1012.75 1457.69 1011.81C1460.05 1010.85 1462.66 1010.37 1465.52 1010.37ZM1503.18 1041.18C1504.96 1041.18 1506.45 1041.78 1507.65 1042.98C1508.85 1044.16 1509.45 1045.64 1509.45 1047.42C1509.45 1048.52 1509.23 1049.67 1508.79 1050.87C1508.37 1052.05 1507.76 1053.56 1506.96 1055.4L1502.79 1064.85H1496.67L1499.61 1052.55C1497.77 1051.37 1496.85 1049.64 1496.85 1047.36C1496.85 1045.6 1497.46 1044.13 1498.68 1042.95C1499.9 1041.77 1501.4 1041.18 1503.18 1041.18ZM1503.18 1020.66C1504.94 1020.66 1506.42 1021.29 1507.62 1022.55C1508.84 1023.79 1509.45 1025.26 1509.45 1026.96C1509.45 1028.66 1508.84 1030.13 1507.62 1031.37C1506.42 1032.61 1504.94 1033.23 1503.18 1033.23C1501.42 1033.23 1499.92 1032.61 1498.68 1031.37C1497.46 1030.13 1496.85 1028.66 1496.85 1026.96C1496.85 1025.82 1497.13 1024.78 1497.69 1023.84C1498.27 1022.88 1499.04 1022.11 1500 1021.53C1500.96 1020.95 1502.02 1020.66 1503.18 1020.66Z" fill="black" fill-opacity="0.44"/>
<path d="M116.05 871.21C118.49 871.21 120.59 871.7 122.35 872.68C124.13 873.66 125.5 875.01 126.46 876.73C127.44 878.45 127.93 880.42 127.93 882.64C127.93 884.6 127.59 886.52 126.91 888.4C126.23 890.26 125.14 892.22 123.64 894.28C122.14 896.32 120.18 898.59 117.76 901.09C115.36 903.57 112.42 906.4 108.94 909.58H128.89L128.38 913H104.74V909.67C107.96 906.59 110.69 903.9 112.93 901.6C115.17 899.3 117.01 897.29 118.45 895.57C119.89 893.83 121.01 892.25 121.81 890.83C122.61 889.41 123.16 888.05 123.46 886.75C123.78 885.45 123.94 884.07 123.94 882.61C123.94 880.09 123.23 878.11 121.81 876.67C120.41 875.23 118.48 874.51 116.02 874.51C113.84 874.51 112.08 874.87 110.74 875.59C109.4 876.29 108.04 877.42 106.66 878.98L103.9 876.79C105.56 874.83 107.34 873.41 109.24 872.53C111.16 871.65 113.43 871.21 116.05 871.21ZM155.837 871.21C157.357 871.21 158.767 871.41 160.067 871.81C161.367 872.21 162.597 872.79 163.757 873.55L162.257 876.28C161.277 875.7 160.237 875.26 159.137 874.96C158.037 874.66 156.877 874.51 155.657 874.51C153.277 874.51 151.277 875.31 149.657 876.91C148.037 878.51 146.827 880.75 146.027 883.63C145.227 886.51 144.847 889.87 144.887 893.71L144.947 895.36C144.967 900.56 145.717 904.35 147.197 906.73C148.697 909.11 151.097 910.3 154.397 910.3C157.257 910.3 159.407 909.33 160.847 907.39C162.307 905.43 163.037 902.69 163.037 899.17C163.037 896.79 162.697 894.92 162.017 893.56C161.337 892.2 160.387 891.24 159.167 890.68C157.947 890.1 156.537 889.81 154.937 889.81C152.517 889.81 150.427 890.54 148.667 892C146.907 893.44 145.507 895.27 144.467 897.49L144.317 893.5C145.697 890.96 147.267 889.14 149.027 888.04C150.787 886.94 152.847 886.39 155.207 886.39C157.327 886.39 159.267 886.84 161.027 887.74C162.807 888.64 164.237 890.04 165.317 891.94C166.397 893.82 166.937 896.23 166.937 899.17C166.937 902.29 166.357 904.92 165.197 907.06C164.037 909.2 162.507 910.83 160.607 911.95C158.707 913.05 156.657 913.6 154.457 913.6C152.017 913.6 149.957 913.14 148.277 912.22C146.597 911.3 145.237 909.97 144.197 908.23C143.177 906.47 142.427 904.33 141.947 901.81C141.487 899.29 141.257 896.44 141.257 893.26C141.257 888.72 141.827 884.81 142.967 881.53C144.127 878.23 145.787 875.69 147.947 873.91C150.127 872.11 152.757 871.21 155.837 871.21ZM116.05 941.21C118.49 941.21 120.59 941.7 122.35 942.68C124.13 943.66 125.5 945.01 126.46 946.73C127.44 948.45 127.93 950.42 127.93 952.64C127.93 954.6 127.59 956.52 126.91 958.4C126.23 960.26 125.14 962.22 123.64 964.28C122.14 966.32 120.18 968.59 117.76 971.09C115.36 973.57 112.42 976.4 108.94 979.58H128.89L128.38 983H104.74V979.67C107.96 976.59 110.69 973.9 112.93 971.6C115.17 969.3 117.01 967.29 118.45 965.57C119.89 963.83 121.01 962.25 121.81 960.83C122.61 959.41 123.16 958.05 123.46 956.75C123.78 955.45 123.94 954.07 123.94 952.61C123.94 950.09 123.23 948.11 121.81 946.67C120.41 945.23 118.48 944.51 116.02 944.51C113.84 944.51 112.08 944.87 110.74 945.59C109.4 946.29 108.04 947.42 106.66 948.98L103.9 946.79C105.56 944.83 107.34 943.41 109.24 942.53C111.16 941.65 113.43 941.21 116.05 941.21ZM149.207 983.45L145.787 982.43L162.047 945.08H142.337V941.78H165.797V944.87L149.207 983.45ZM116.05 1011.21C118.49 1011.21 120.59 1011.7 122.35 1012.68C124.13 1013.66 125.5 1015.01 126.46 1016.73C127.44 1018.45 127.93 1020.42 127.93 1022.64C127.93 1024.6 127.59 1026.52 126.91 1028.4C126.23 1030.26 125.14 1032.22 123.64 1034.28C122.14 1036.32 120.18 1038.59 117.76 1041.09C115.36 1043.57 112.42 1046.4 108.94 1049.58H128.89L128.38 1053H104.74V1049.67C107.96 1046.59 110.69 1043.9 112.93 1041.6C115.17 1039.3 117.01 1037.29 118.45 1035.57C119.89 1033.83 121.01 1032.25 121.81 1030.83C122.61 1029.41 123.16 1028.05 123.46 1026.75C123.78 1025.45 123.94 1024.07 123.94 1022.61C123.94 1020.09 123.23 1018.11 121.81 1016.67C120.41 1015.23 118.48 1014.51 116.02 1014.51C113.84 1014.51 112.08 1014.87 110.74 1015.59C109.4 1016.29 108.04 1017.42 106.66 1018.98L103.9 1016.79C105.56 1014.83 107.34 1013.41 109.24 1012.53C111.16 1011.65 113.43 1011.21 116.05 1011.21ZM165.947 1021.56C165.947 1023.6 165.297 1025.37 163.997 1026.87C162.697 1028.35 160.887 1029.72 158.567 1030.98C161.227 1032 163.397 1033.44 165.077 1035.3C166.777 1037.14 167.627 1039.37 167.627 1041.99C167.627 1044.27 167.047 1046.29 165.887 1048.05C164.747 1049.79 163.147 1051.15 161.087 1052.13C159.027 1053.11 156.627 1053.6 153.887 1053.6C151.067 1053.6 148.637 1053.1 146.597 1052.1C144.577 1051.08 143.027 1049.7 141.947 1047.96C140.867 1046.22 140.327 1044.25 140.327 1042.05C140.327 1039.45 141.097 1037.28 142.637 1035.54C144.197 1033.8 146.247 1032.34 148.787 1031.16C146.587 1030.2 144.907 1028.97 143.747 1027.47C142.587 1025.97 142.007 1024.07 142.007 1021.77C142.007 1019.85 142.397 1018.22 143.177 1016.88C143.977 1015.54 144.987 1014.45 146.207 1013.61C147.447 1012.77 148.757 1012.16 150.137 1011.78C151.517 1011.4 152.787 1011.21 153.947 1011.21C155.307 1011.21 156.687 1011.4 158.087 1011.78C159.487 1012.16 160.777 1012.76 161.957 1013.58C163.157 1014.4 164.117 1015.47 164.837 1016.79C165.577 1018.11 165.947 1019.7 165.947 1021.56ZM163.577 1042.08C163.577 1040.08 163.047 1038.51 161.987 1037.37C160.927 1036.23 159.487 1035.29 157.667 1034.55C155.867 1033.79 153.837 1033.03 151.577 1032.27C150.337 1032.79 149.167 1033.46 148.067 1034.28C146.967 1035.1 146.077 1036.15 145.397 1037.43C144.717 1038.71 144.377 1040.31 144.377 1042.23C144.377 1044.77 145.167 1046.75 146.747 1048.17C148.327 1049.59 150.667 1050.3 153.767 1050.3C156.887 1050.3 159.297 1049.53 160.997 1047.99C162.717 1046.43 163.577 1044.46 163.577 1042.08ZM145.787 1021.86C145.787 1023.62 146.197 1024.98 147.017 1025.94C147.837 1026.88 148.997 1027.64 150.497 1028.22C151.997 1028.78 153.747 1029.38 155.747 1030.02C157.827 1028.9 159.417 1027.75 160.517 1026.57C161.617 1025.39 162.167 1023.75 162.167 1021.65C162.167 1019.39 161.447 1017.61 160.007 1016.31C158.567 1015.01 156.547 1014.36 153.947 1014.36C151.387 1014.36 149.387 1015.03 147.947 1016.37C146.507 1017.69 145.787 1019.52 145.787 1021.86Z" fill="black" fill-opacity="0.44"/>
</svg>
