<svg width="3745" height="1780" viewBox="0 0 3745 1780" fill="none" xmlns="http://www.w3.org/2000/svg">
<path d="M2275.89 727V668.92H2256.2V655.28H2311.86V668.92H2292.17V727H2275.89ZM2317.11 727V672.44H2330.31L2331.41 682.01H2331.85C2333.83 678.343 2336.17 675.63 2338.89 673.87C2341.67 672.037 2344.5 671.12 2347.36 671.12C2348.9 671.12 2350.18 671.23 2351.21 671.45C2352.23 671.597 2353.11 671.853 2353.85 672.22L2350.77 685.97C2349.89 685.75 2349.04 685.603 2348.24 685.53C2347.43 685.383 2346.44 685.31 2345.27 685.31C2343.21 685.31 2341.05 686.043 2338.78 687.51C2336.58 688.977 2334.74 691.58 2333.28 695.32V727H2317.11ZM2371.68 728.32C2368.38 728.32 2365.48 727.587 2362.99 726.12C2360.57 724.653 2358.7 722.673 2357.38 720.18C2356.06 717.687 2355.4 714.9 2355.4 711.82C2355.4 705.953 2357.82 701.443 2362.66 698.29C2367.5 695.063 2375.31 692.9 2386.09 691.8C2386.01 690.187 2385.65 688.83 2384.99 687.73C2384.4 686.557 2383.48 685.677 2382.24 685.09C2380.99 684.43 2379.41 684.1 2377.51 684.1C2375.23 684.1 2372.92 684.503 2370.58 685.31C2368.23 686.117 2365.7 687.29 2362.99 688.83L2357.27 678.27C2359.61 676.803 2362.03 675.557 2364.53 674.53C2367.02 673.43 2369.59 672.587 2372.23 672C2374.94 671.413 2377.73 671.12 2380.59 671.12C2385.28 671.12 2389.2 672.037 2392.36 673.87C2395.58 675.63 2398.04 678.343 2399.73 682.01C2401.41 685.603 2402.26 690.223 2402.26 695.87V727H2389.06L2387.96 721.39H2387.52C2385.17 723.443 2382.71 725.13 2380.15 726.45C2377.58 727.697 2374.76 728.32 2371.68 728.32ZM2377.07 715.67C2378.9 715.67 2380.51 715.267 2381.91 714.46C2383.3 713.653 2384.69 712.553 2386.09 711.16V701.92C2382.27 702.433 2379.23 703.093 2376.96 703.9C2374.76 704.707 2373.18 705.697 2372.23 706.87C2371.35 707.97 2370.91 709.217 2370.91 710.61C2370.91 712.297 2371.46 713.58 2372.56 714.46C2373.73 715.267 2375.23 715.67 2377.07 715.67ZM2412.97 727V718.31L2435.85 685.09H2415.5V672.44H2455.98V681.02L2433.1 714.35H2456.75V727H2412.97ZM2489.88 728.32C2484.67 728.32 2479.98 727.183 2475.8 724.91C2471.62 722.637 2468.32 719.373 2465.9 715.12C2463.48 710.867 2462.27 705.733 2462.27 699.72C2462.27 693.78 2463.48 688.683 2465.9 684.43C2468.39 680.177 2471.62 676.913 2475.58 674.64C2479.54 672.293 2483.68 671.12 2488.01 671.12C2493.21 671.12 2497.54 672.293 2500.99 674.64C2504.43 676.913 2507 680.03 2508.69 683.99C2510.37 687.95 2511.22 692.387 2511.22 697.3C2511.22 698.693 2511.14 700.087 2511 701.48C2510.85 702.8 2510.7 703.863 2510.56 704.67H2474.81L2474.59 693.45H2497.36C2497.36 690.59 2496.66 688.243 2495.27 686.41C2493.87 684.503 2491.56 683.55 2488.34 683.55C2486.58 683.55 2484.85 684.027 2483.17 684.98C2481.48 685.933 2480.09 687.583 2478.99 689.93C2477.89 692.277 2477.37 695.54 2477.45 699.72C2477.52 703.827 2478.25 707.053 2479.65 709.4C2481.11 711.747 2482.95 713.433 2485.15 714.46C2487.35 715.413 2489.66 715.89 2492.08 715.89C2494.2 715.89 2496.22 715.597 2498.13 715.01C2500.11 714.35 2502.05 713.47 2503.96 712.37L2509.24 722.27C2506.52 724.177 2503.44 725.68 2500 726.78C2496.55 727.807 2493.18 728.32 2489.88 728.32ZM2522.39 727V672.44H2535.59L2536.69 679.37H2537.13C2539.4 677.097 2541.97 675.153 2544.83 673.54C2547.69 671.927 2550.95 671.12 2554.62 671.12C2560.63 671.12 2564.96 673.1 2567.6 677.06C2570.24 680.947 2571.56 686.3 2571.56 693.12V727H2555.39V695.21C2555.39 691.25 2554.84 688.537 2553.74 687.07C2552.71 685.603 2551.03 684.87 2548.68 684.87C2546.63 684.87 2544.87 685.347 2543.4 686.3C2541.93 687.18 2540.32 688.463 2538.56 690.15V727H2522.39ZM2604.81 728.32C2598.06 728.32 2592.64 725.79 2588.53 720.73C2584.5 715.597 2582.48 708.593 2582.48 699.72C2582.48 693.78 2583.54 688.683 2585.67 684.43C2587.87 680.177 2590.69 676.913 2594.14 674.64C2597.66 672.293 2601.33 671.12 2605.14 671.12C2608.15 671.12 2610.68 671.633 2612.73 672.66C2614.78 673.687 2616.73 675.08 2618.56 676.84L2617.9 668.48V649.89H2634.07V727H2620.87L2619.77 721.61H2619.33C2617.42 723.517 2615.19 725.13 2612.62 726.45C2610.05 727.697 2607.45 728.32 2604.81 728.32ZM2608.99 715.12C2610.75 715.12 2612.36 714.753 2613.83 714.02C2615.3 713.287 2616.65 712.003 2617.9 710.17V687.84C2616.51 686.52 2615.04 685.603 2613.5 685.09C2611.96 684.577 2610.42 684.32 2608.88 684.32C2607.12 684.32 2605.51 684.87 2604.04 685.97C2602.57 687.07 2601.36 688.757 2600.41 691.03C2599.53 693.23 2599.09 696.053 2599.09 699.5C2599.09 704.853 2599.97 708.813 2601.73 711.38C2603.49 713.873 2605.91 715.12 2608.99 715.12ZM2671.83 728.32C2667.21 728.32 2662.88 727.22 2658.85 725.02C2654.81 722.747 2651.51 719.483 2648.95 715.23C2646.45 710.903 2645.21 705.733 2645.21 699.72C2645.21 693.707 2646.45 688.573 2648.95 684.32C2651.51 679.993 2654.81 676.73 2658.85 674.53C2662.88 672.257 2667.21 671.12 2671.83 671.12C2676.37 671.12 2680.66 672.257 2684.7 674.53C2688.73 676.73 2691.99 679.993 2694.49 684.32C2697.05 688.573 2698.34 693.707 2698.34 699.72C2698.34 705.733 2697.05 710.903 2694.49 715.23C2691.99 719.483 2688.73 722.747 2684.7 725.02C2680.66 727.22 2676.37 728.32 2671.83 728.32ZM2671.83 715.23C2674.03 715.23 2675.86 714.607 2677.33 713.36C2678.87 712.113 2680 710.317 2680.74 707.97C2681.47 705.623 2681.84 702.873 2681.84 699.72C2681.84 696.567 2681.47 693.817 2680.74 691.47C2680 689.123 2678.87 687.327 2677.33 686.08C2675.86 684.833 2674.03 684.21 2671.83 684.21C2669.55 684.21 2667.68 684.833 2666.22 686.08C2664.75 687.327 2663.65 689.123 2662.92 691.47C2662.18 693.817 2661.82 696.567 2661.82 699.72C2661.82 702.873 2662.18 705.623 2662.92 707.97C2663.65 710.317 2664.75 712.113 2666.22 713.36C2667.68 714.607 2669.55 715.23 2671.83 715.23ZM2745.18 728.32C2741.88 728.32 2738.99 727.587 2736.49 726.12C2734.07 724.653 2732.2 722.673 2730.88 720.18C2729.56 717.687 2728.9 714.9 2728.9 711.82C2728.9 705.953 2731.32 701.443 2736.16 698.29C2741 695.063 2748.81 692.9 2759.59 691.8C2759.52 690.187 2759.15 688.83 2758.49 687.73C2757.91 686.557 2756.99 685.677 2755.74 685.09C2754.5 684.43 2752.92 684.1 2751.01 684.1C2748.74 684.1 2746.43 684.503 2744.08 685.31C2741.74 686.117 2739.21 687.29 2736.49 688.83L2730.77 678.27C2733.12 676.803 2735.54 675.557 2738.03 674.53C2740.53 673.43 2743.09 672.587 2745.73 672C2748.45 671.413 2751.23 671.12 2754.09 671.12C2758.79 671.12 2762.71 672.037 2765.86 673.87C2769.09 675.63 2771.55 678.343 2773.23 682.01C2774.92 685.603 2775.76 690.223 2775.76 695.87V727H2762.56L2761.46 721.39H2761.02C2758.68 723.443 2756.22 725.13 2753.65 726.45C2751.09 727.697 2748.26 728.32 2745.18 728.32ZM2750.57 715.67C2752.41 715.67 2754.02 715.267 2755.41 714.46C2756.81 713.653 2758.2 712.553 2759.59 711.16V701.92C2755.78 702.433 2752.74 703.093 2750.46 703.9C2748.26 704.707 2746.69 705.697 2745.73 706.87C2744.85 707.97 2744.41 709.217 2744.41 710.61C2744.41 712.297 2744.96 713.58 2746.06 714.46C2747.24 715.267 2748.74 715.67 2750.57 715.67ZM2804.29 728.21C2800.62 728.21 2797.69 727.477 2795.49 726.01C2793.36 724.47 2791.82 722.343 2790.87 719.63C2789.92 716.843 2789.44 713.617 2789.44 709.95V650H2805.61V710.61C2805.61 712.37 2805.9 713.58 2806.49 714.24C2807.15 714.827 2807.85 715.12 2808.58 715.12C2808.87 715.12 2809.13 715.12 2809.35 715.12C2809.64 715.047 2810.01 714.973 2810.45 714.9L2812.43 726.89C2811.55 727.257 2810.41 727.55 2809.02 727.77C2807.7 728.063 2806.12 728.21 2804.29 728.21ZM2845.34 728.32C2840.13 728.32 2835.44 727.183 2831.26 724.91C2827.08 722.637 2823.78 719.373 2821.36 715.12C2818.94 710.867 2817.73 705.733 2817.73 699.72C2817.73 693.78 2818.94 688.683 2821.36 684.43C2823.85 680.177 2827.08 676.913 2831.04 674.64C2835 672.293 2839.14 671.12 2843.47 671.12C2848.67 671.12 2853 672.293 2856.45 674.64C2859.89 676.913 2862.46 680.03 2864.15 683.99C2865.83 687.95 2866.68 692.387 2866.68 697.3C2866.68 698.693 2866.6 700.087 2866.46 701.48C2866.31 702.8 2866.16 703.863 2866.02 704.67H2830.27L2830.05 693.45H2852.82C2852.82 690.59 2852.12 688.243 2850.73 686.41C2849.33 684.503 2847.02 683.55 2843.8 683.55C2842.04 683.55 2840.31 684.027 2838.63 684.98C2836.94 685.933 2835.55 687.583 2834.45 689.93C2833.35 692.277 2832.83 695.54 2832.91 699.72C2832.98 703.827 2833.71 707.053 2835.11 709.4C2836.57 711.747 2838.41 713.433 2840.61 714.46C2842.81 715.413 2845.12 715.89 2847.54 715.89C2849.66 715.89 2851.68 715.597 2853.59 715.01C2855.57 714.35 2857.51 713.47 2859.42 712.37L2864.7 722.27C2861.98 724.177 2858.9 725.68 2855.46 726.78C2852.01 727.807 2848.64 728.32 2845.34 728.32ZM2890.42 728.32C2887.12 728.32 2884.22 727.587 2881.73 726.12C2879.31 724.653 2877.44 722.673 2876.12 720.18C2874.8 717.687 2874.14 714.9 2874.14 711.82C2874.14 705.953 2876.56 701.443 2881.4 698.29C2886.24 695.063 2894.05 692.9 2904.83 691.8C2904.75 690.187 2904.39 688.83 2903.73 687.73C2903.14 686.557 2902.22 685.677 2900.98 685.09C2899.73 684.43 2898.15 684.1 2896.25 684.1C2893.97 684.1 2891.66 684.503 2889.32 685.31C2886.97 686.117 2884.44 687.29 2881.73 688.83L2876.01 678.27C2878.35 676.803 2880.77 675.557 2883.27 674.53C2885.76 673.43 2888.33 672.587 2890.97 672C2893.68 671.413 2896.47 671.12 2899.33 671.12C2904.02 671.12 2907.94 672.037 2911.1 673.87C2914.32 675.63 2916.78 678.343 2918.47 682.01C2920.15 685.603 2921 690.223 2921 695.87V727H2907.8L2906.7 721.39H2906.26C2903.91 723.443 2901.45 725.13 2898.89 726.45C2896.32 727.697 2893.5 728.32 2890.42 728.32ZM2895.81 715.67C2897.64 715.67 2899.25 715.267 2900.65 714.46C2902.04 713.653 2903.43 712.553 2904.83 711.16V701.92C2901.01 702.433 2897.97 703.093 2895.7 703.9C2893.5 704.707 2891.92 705.697 2890.97 706.87C2890.09 707.97 2889.65 709.217 2889.65 710.61C2889.65 712.297 2890.2 713.58 2891.3 714.46C2892.47 715.267 2893.97 715.67 2895.81 715.67ZM2953.75 728.21C2947.01 728.21 2942.17 726.267 2939.23 722.38C2936.3 718.42 2934.83 713.323 2934.83 707.09V685.09H2927.46V673.1L2935.82 672.44L2937.69 655.72H2951.11V672.44H2964.2V685.09H2951.11V706.87C2951.11 709.95 2951.74 712.187 2952.98 713.58C2954.3 714.9 2956.03 715.56 2958.15 715.56C2959.03 715.56 2959.91 715.487 2960.79 715.34C2961.67 715.193 2962.52 714.973 2963.32 714.68L2965.96 726.01C2964.57 726.597 2962.81 727.11 2960.68 727.55C2958.63 727.99 2956.32 728.21 2953.75 728.21ZM2996.35 728.32C2991.73 728.32 2987.4 727.22 2983.37 725.02C2979.33 722.747 2976.03 719.483 2973.47 715.23C2970.97 710.903 2969.73 705.733 2969.73 699.72C2969.73 693.707 2970.97 688.573 2973.47 684.32C2976.03 679.993 2979.33 676.73 2983.37 674.53C2987.4 672.257 2991.73 671.12 2996.35 671.12C3000.89 671.12 3005.18 672.257 3009.22 674.53C3013.25 676.73 3016.51 679.993 3019.01 684.32C3021.57 688.573 3022.86 693.707 3022.86 699.72C3022.86 705.733 3021.57 710.903 3019.01 715.23C3016.51 719.483 3013.25 722.747 3009.22 725.02C3005.18 727.22 3000.89 728.32 2996.35 728.32ZM2996.35 715.23C2998.55 715.23 3000.38 714.607 3001.85 713.36C3003.39 712.113 3004.52 710.317 3005.26 707.97C3005.99 705.623 3006.36 702.873 3006.36 699.72C3006.36 696.567 3005.99 693.817 3005.26 691.47C3004.52 689.123 3003.39 687.327 3001.85 686.08C3000.38 684.833 2998.55 684.21 2996.35 684.21C2994.07 684.21 2992.2 684.833 2990.74 686.08C2989.27 687.327 2988.17 689.123 2987.44 691.47C2986.7 693.817 2986.34 696.567 2986.34 699.72C2986.34 702.873 2986.7 705.623 2987.44 707.97C2988.17 710.317 2989.27 712.113 2990.74 713.36C2992.2 714.607 2994.07 715.23 2996.35 715.23ZM3033.93 727V672.44H3047.13L3048.23 682.01H3048.67C3050.65 678.343 3053 675.63 3055.71 673.87C3058.5 672.037 3061.32 671.12 3064.18 671.12C3065.72 671.12 3067.01 671.23 3068.03 671.45C3069.06 671.597 3069.94 671.853 3070.67 672.22L3067.59 685.97C3066.71 685.75 3065.87 685.603 3065.06 685.53C3064.26 685.383 3063.27 685.31 3062.09 685.31C3060.04 685.31 3057.88 686.043 3055.6 687.51C3053.4 688.977 3051.57 691.58 3050.1 695.32V727H3033.93ZM3077.76 727V672.44H3093.93V727H3077.76ZM3085.79 664.41C3083.08 664.41 3080.88 663.64 3079.19 662.1C3077.5 660.56 3076.66 658.507 3076.66 655.94C3076.66 653.373 3077.5 651.32 3079.19 649.78C3080.88 648.24 3083.08 647.47 3085.79 647.47C3088.5 647.47 3090.7 648.24 3092.39 649.78C3094.08 651.32 3094.92 653.373 3094.92 655.94C3094.92 658.507 3094.08 660.56 3092.39 662.1C3090.7 663.64 3088.5 664.41 3085.79 664.41ZM3132.58 728.32C3127.38 728.32 3122.68 727.183 3118.5 724.91C3114.32 722.637 3111.02 719.373 3108.6 715.12C3106.18 710.867 3104.97 705.733 3104.97 699.72C3104.97 693.78 3106.18 688.683 3108.6 684.43C3111.1 680.177 3114.32 676.913 3118.28 674.64C3122.24 672.293 3126.39 671.12 3130.71 671.12C3135.92 671.12 3140.25 672.293 3143.69 674.64C3147.14 676.913 3149.71 680.03 3151.39 683.99C3153.08 687.95 3153.92 692.387 3153.92 697.3C3153.92 698.693 3153.85 700.087 3153.7 701.48C3153.56 702.8 3153.41 703.863 3153.26 704.67H3117.51L3117.29 693.45H3140.06C3140.06 690.59 3139.37 688.243 3137.97 686.41C3136.58 684.503 3134.27 683.55 3131.04 683.55C3129.28 683.55 3127.56 684.027 3125.87 684.98C3124.19 685.933 3122.79 687.583 3121.69 689.93C3120.59 692.277 3120.08 695.54 3120.15 699.72C3120.23 703.827 3120.96 707.053 3122.35 709.4C3123.82 711.747 3125.65 713.433 3127.85 714.46C3130.05 715.413 3132.36 715.89 3134.78 715.89C3136.91 715.89 3138.93 715.597 3140.83 715.01C3142.81 714.35 3144.76 713.47 3146.66 712.37L3151.94 722.27C3149.23 724.177 3146.15 725.68 3142.7 726.78C3139.26 727.807 3135.88 728.32 3132.58 728.32ZM3184.57 728.32C3177.82 728.32 3172.39 725.79 3168.29 720.73C3164.25 715.597 3162.24 708.593 3162.24 699.72C3162.24 693.78 3163.3 688.683 3165.43 684.43C3167.63 680.177 3170.45 676.913 3173.9 674.64C3177.42 672.293 3181.08 671.12 3184.9 671.12C3187.9 671.12 3190.43 671.633 3192.49 672.66C3194.54 673.687 3196.48 675.08 3198.32 676.84L3197.66 668.48V649.89H3213.83V727H3200.63L3199.53 721.61H3199.09C3197.18 723.517 3194.94 725.13 3192.38 726.45C3189.81 727.697 3187.21 728.32 3184.57 728.32ZM3188.75 715.12C3190.51 715.12 3192.12 714.753 3193.59 714.02C3195.05 713.287 3196.41 712.003 3197.66 710.17V687.84C3196.26 686.52 3194.8 685.603 3193.26 685.09C3191.72 684.577 3190.18 684.32 3188.64 684.32C3186.88 684.32 3185.26 684.87 3183.8 685.97C3182.33 687.07 3181.12 688.757 3180.17 691.03C3179.29 693.23 3178.85 696.053 3178.85 699.5C3178.85 704.853 3179.73 708.813 3181.49 711.38C3183.25 713.873 3185.67 715.12 3188.75 715.12ZM3241.9 728.32C3238.6 728.32 3235.71 727.587 3233.21 726.12C3230.79 724.653 3228.92 722.673 3227.6 720.18C3226.28 717.687 3225.62 714.9 3225.62 711.82C3225.62 705.953 3228.04 701.443 3232.88 698.29C3237.72 695.063 3245.53 692.9 3256.31 691.8C3256.24 690.187 3255.87 688.83 3255.21 687.73C3254.63 686.557 3253.71 685.677 3252.46 685.09C3251.22 684.43 3249.64 684.1 3247.73 684.1C3245.46 684.1 3243.15 684.503 3240.8 685.31C3238.46 686.117 3235.93 687.29 3233.21 688.83L3227.49 678.27C3229.84 676.803 3232.26 675.557 3234.75 674.53C3237.25 673.43 3239.81 672.587 3242.45 672C3245.17 671.413 3247.95 671.12 3250.81 671.12C3255.51 671.12 3259.43 672.037 3262.58 673.87C3265.81 675.63 3268.27 678.343 3269.95 682.01C3271.64 685.603 3272.48 690.223 3272.48 695.87V727H3259.28L3258.18 721.39H3257.74C3255.4 723.443 3252.94 725.13 3250.37 726.45C3247.81 727.697 3244.98 728.32 3241.9 728.32ZM3247.29 715.67C3249.13 715.67 3250.74 715.267 3252.13 714.46C3253.53 713.653 3254.92 712.553 3256.31 711.16V701.92C3252.5 702.433 3249.46 703.093 3247.18 703.9C3244.98 704.707 3243.41 705.697 3242.45 706.87C3241.57 707.97 3241.13 709.217 3241.13 710.61C3241.13 712.297 3241.68 713.58 3242.78 714.46C3243.96 715.267 3245.46 715.67 3247.29 715.67ZM3305.63 728.32C3298.88 728.32 3293.46 725.79 3289.35 720.73C3285.32 715.597 3283.3 708.593 3283.3 699.72C3283.3 693.78 3284.36 688.683 3286.49 684.43C3288.69 680.177 3291.51 676.913 3294.96 674.64C3298.48 672.293 3302.15 671.12 3305.96 671.12C3308.97 671.12 3311.5 671.633 3313.55 672.66C3315.6 673.687 3317.55 675.08 3319.38 676.84L3318.72 668.48V649.89H3334.89V727H3321.69L3320.59 721.61H3320.15C3318.24 723.517 3316.01 725.13 3313.44 726.45C3310.87 727.697 3308.27 728.32 3305.63 728.32ZM3309.81 715.12C3311.57 715.12 3313.18 714.753 3314.65 714.02C3316.12 713.287 3317.47 712.003 3318.72 710.17V687.84C3317.33 686.52 3315.86 685.603 3314.32 685.09C3312.78 684.577 3311.24 684.32 3309.7 684.32C3307.94 684.32 3306.33 684.87 3304.86 685.97C3303.39 687.07 3302.18 688.757 3301.23 691.03C3300.35 693.23 3299.91 696.053 3299.91 699.5C3299.91 704.853 3300.79 708.813 3302.55 711.38C3304.31 713.873 3306.73 715.12 3309.81 715.12ZM3373.64 728.32C3368.43 728.32 3363.74 727.183 3359.56 724.91C3355.38 722.637 3352.08 719.373 3349.66 715.12C3347.24 710.867 3346.03 705.733 3346.03 699.72C3346.03 693.78 3347.24 688.683 3349.66 684.43C3352.15 680.177 3355.38 676.913 3359.34 674.64C3363.3 672.293 3367.44 671.12 3371.77 671.12C3376.97 671.12 3381.3 672.293 3384.75 674.64C3388.19 676.913 3390.76 680.03 3392.45 683.99C3394.13 687.95 3394.98 692.387 3394.98 697.3C3394.98 698.693 3394.9 700.087 3394.76 701.48C3394.61 702.8 3394.46 703.863 3394.32 704.67H3358.57L3358.35 693.45H3381.12C3381.12 690.59 3380.42 688.243 3379.03 686.41C3377.63 684.503 3375.32 683.55 3372.1 683.55C3370.34 683.55 3368.61 684.027 3366.93 684.98C3365.24 685.933 3363.85 687.583 3362.75 689.93C3361.65 692.277 3361.13 695.54 3361.21 699.72C3361.28 703.827 3362.01 707.053 3363.41 709.4C3364.87 711.747 3366.71 713.433 3368.91 714.46C3371.11 715.413 3373.42 715.89 3375.84 715.89C3377.96 715.89 3379.98 715.597 3381.89 715.01C3383.87 714.35 3385.81 713.47 3387.72 712.37L3393 722.27C3390.28 724.177 3387.2 725.68 3383.76 726.78C3380.31 727.807 3376.94 728.32 3373.64 728.32Z" fill="black" fill-opacity="0.44"/>
<path d="M1417.84 844V771.84H1459.42V779.54H1426.97V802.2H1454.36V810.01H1426.97V836.19H1460.52V844H1417.84ZM1489.22 844.99C1483.57 844.99 1479.61 843.34 1477.34 840.04C1475.06 836.74 1473.93 832.45 1473.93 827.17V797.91H1466.01V791.09L1474.37 790.54L1475.47 773.38H1483.06V790.54H1497.58V797.91H1483.06V827.28C1483.06 830.507 1483.64 833.037 1484.82 834.87C1486.06 836.703 1488.23 837.62 1491.31 837.62C1492.26 837.62 1493.25 837.547 1494.28 837.4C1495.3 837.18 1496.33 836.813 1497.36 836.3L1499.34 842.68C1497.94 843.34 1496.37 843.89 1494.61 844.33C1492.85 844.77 1491.05 844.99 1489.22 844.99ZM1519.51 845.32C1516.58 845.32 1513.9 844.733 1511.48 843.56C1509.13 842.313 1507.26 840.59 1505.87 838.39C1504.48 836.117 1503.78 833.367 1503.78 830.14C1503.78 824.127 1506.42 819.58 1511.7 816.5C1516.98 813.42 1525.34 811.257 1536.78 810.01C1536.71 807.81 1536.34 805.683 1535.68 803.63C1535.09 801.577 1533.99 799.927 1532.38 798.68C1530.77 797.433 1528.53 796.81 1525.67 796.81C1522.59 796.81 1519.69 797.397 1516.98 798.57C1514.27 799.67 1511.85 800.917 1509.72 802.31L1506.2 796.15C1507.81 795.05 1509.72 793.987 1511.92 792.96C1514.12 791.86 1516.5 790.98 1519.07 790.32C1521.64 789.587 1524.35 789.22 1527.21 789.22C1531.54 789.22 1535.06 790.137 1537.77 791.97C1540.56 793.73 1542.57 796.26 1543.82 799.56C1545.14 802.86 1545.8 806.747 1545.8 811.22V844H1538.32L1537.55 837.62H1537.22C1534.65 839.747 1531.9 841.58 1528.97 843.12C1526.04 844.587 1522.88 845.32 1519.51 845.32ZM1522.04 837.84C1524.68 837.84 1527.14 837.253 1529.41 836.08C1531.76 834.907 1534.21 833.183 1536.78 830.91V816.5C1530.77 817.233 1526 818.187 1522.48 819.36C1519.03 820.46 1516.54 821.853 1515 823.54C1513.46 825.227 1512.69 827.243 1512.69 829.59C1512.69 832.523 1513.61 834.65 1515.44 835.97C1517.27 837.217 1519.47 837.84 1522.04 837.84ZM1562.62 866.55V790.54H1570.1L1570.87 796.7H1571.2C1573.62 794.647 1576.3 792.887 1579.23 791.42C1582.16 789.953 1585.17 789.22 1588.25 789.22C1592.8 789.22 1596.65 790.357 1599.8 792.63C1602.95 794.83 1605.34 797.983 1606.95 802.09C1608.56 806.123 1609.37 810.927 1609.37 816.5C1609.37 822.513 1608.27 827.683 1606.07 832.01C1603.94 836.337 1601.12 839.637 1597.6 841.91C1594.08 844.183 1590.3 845.32 1586.27 845.32C1583.85 845.32 1581.39 844.77 1578.9 843.67C1576.41 842.57 1573.91 841.067 1571.42 839.16L1571.64 848.51V866.55H1562.62ZM1584.73 837.73C1587.66 837.73 1590.27 836.887 1592.54 835.2C1594.89 833.513 1596.72 831.093 1598.04 827.94C1599.36 824.713 1600.02 820.9 1600.02 816.5C1600.02 812.613 1599.54 809.203 1598.59 806.27C1597.64 803.263 1596.13 800.953 1594.08 799.34C1592.03 797.653 1589.31 796.81 1585.94 796.81C1583.74 796.81 1581.47 797.433 1579.12 798.68C1576.77 799.853 1574.28 801.65 1571.64 804.07V832.12C1574.13 834.173 1576.48 835.64 1578.68 836.52C1580.95 837.327 1582.97 837.73 1584.73 837.73ZM1634.45 845.32C1631.52 845.32 1628.84 844.733 1626.42 843.56C1624.07 842.313 1622.2 840.59 1620.81 838.39C1619.42 836.117 1618.72 833.367 1618.72 830.14C1618.72 824.127 1621.36 819.58 1626.64 816.5C1631.92 813.42 1640.28 811.257 1651.72 810.01C1651.65 807.81 1651.28 805.683 1650.62 803.63C1650.03 801.577 1648.93 799.927 1647.32 798.68C1645.71 797.433 1643.47 796.81 1640.61 796.81C1637.53 796.81 1634.63 797.397 1631.92 798.57C1629.21 799.67 1626.79 800.917 1624.66 802.31L1621.14 796.15C1622.75 795.05 1624.66 793.987 1626.86 792.96C1629.06 791.86 1631.44 790.98 1634.01 790.32C1636.58 789.587 1639.29 789.22 1642.15 789.22C1646.48 789.22 1650 790.137 1652.71 791.97C1655.5 793.73 1657.51 796.26 1658.76 799.56C1660.08 802.86 1660.74 806.747 1660.74 811.22V844H1653.26L1652.49 837.62H1652.16C1649.59 839.747 1646.84 841.58 1643.91 843.12C1640.98 844.587 1637.82 845.32 1634.45 845.32ZM1636.98 837.84C1639.62 837.84 1642.08 837.253 1644.35 836.08C1646.7 834.907 1649.15 833.183 1651.72 830.91V816.5C1645.71 817.233 1640.94 818.187 1637.42 819.36C1633.97 820.46 1631.48 821.853 1629.94 823.54C1628.4 825.227 1627.63 827.243 1627.63 829.59C1627.63 832.523 1628.55 834.65 1630.38 835.97C1632.21 837.217 1634.41 837.84 1636.98 837.84ZM1716.3 845.32C1712.56 845.32 1709.26 844.88 1706.4 844C1703.54 843.047 1701.05 841.837 1698.92 840.37C1696.8 838.903 1694.93 837.363 1693.31 835.75L1697.71 829.81C1699.84 831.863 1702.3 833.733 1705.08 835.42C1707.87 837.033 1711.32 837.84 1715.42 837.84C1718.28 837.84 1720.85 837.18 1723.12 835.86C1725.47 834.54 1727.34 832.707 1728.73 830.36C1730.13 827.94 1730.82 825.08 1730.82 821.78C1730.82 816.94 1729.47 813.163 1726.75 810.45C1724.04 807.737 1720.41 806.38 1715.86 806.38C1713.52 806.38 1711.46 806.747 1709.7 807.48C1707.94 808.213 1706 809.277 1703.87 810.67L1699.03 807.59L1701.34 773.82H1736.43V781.63H1709.26L1707.39 802.42C1709.08 801.54 1710.77 800.843 1712.45 800.33C1714.14 799.817 1716.05 799.56 1718.17 799.56C1722.21 799.56 1725.87 800.33 1729.17 801.87C1732.47 803.41 1735.08 805.83 1736.98 809.13C1738.96 812.357 1739.95 816.5 1739.95 821.56C1739.95 826.62 1738.82 830.947 1736.54 834.54C1734.34 838.06 1731.45 840.737 1727.85 842.57C1724.26 844.403 1720.41 845.32 1716.3 845.32ZM1794.54 845.32C1787.8 845.32 1782.41 842.9 1778.37 838.06C1774.41 833.147 1772.43 826.253 1772.43 817.38C1772.43 811.587 1773.5 806.6 1775.62 802.42C1777.82 798.167 1780.68 794.903 1784.2 792.63C1787.72 790.357 1791.54 789.22 1795.64 789.22C1798.8 789.22 1801.47 789.77 1803.67 790.87C1805.95 791.897 1808.26 793.4 1810.6 795.38L1810.16 786.25V765.68H1819.29V844H1811.81L1811.04 837.73H1810.71C1808.66 839.783 1806.24 841.58 1803.45 843.12C1800.67 844.587 1797.7 845.32 1794.54 845.32ZM1796.52 837.73C1799.02 837.73 1801.36 837.107 1803.56 835.86C1805.76 834.613 1807.96 832.78 1810.16 830.36V802.42C1807.96 800.367 1805.8 798.937 1803.67 798.13C1801.55 797.25 1799.38 796.81 1797.18 796.81C1794.32 796.81 1791.72 797.69 1789.37 799.45C1787.1 801.137 1785.27 803.52 1783.87 806.6C1782.48 809.607 1781.78 813.163 1781.78 817.27C1781.78 823.65 1783.07 828.673 1785.63 832.34C1788.2 835.933 1791.83 837.73 1796.52 837.73ZM1849.62 845.32C1846.68 845.32 1844.01 844.733 1841.59 843.56C1839.24 842.313 1837.37 840.59 1835.98 838.39C1834.58 836.117 1833.89 833.367 1833.89 830.14C1833.89 824.127 1836.53 819.58 1841.81 816.5C1847.09 813.42 1855.45 811.257 1866.89 810.01C1866.81 807.81 1866.45 805.683 1865.79 803.63C1865.2 801.577 1864.1 799.927 1862.49 798.68C1860.87 797.433 1858.64 796.81 1855.78 796.81C1852.7 796.81 1849.8 797.397 1847.09 798.57C1844.37 799.67 1841.95 800.917 1839.83 802.31L1836.31 796.15C1837.92 795.05 1839.83 793.987 1842.03 792.96C1844.23 791.86 1846.61 790.98 1849.18 790.32C1851.74 789.587 1854.46 789.22 1857.32 789.22C1861.64 789.22 1865.16 790.137 1867.88 791.97C1870.66 793.73 1872.68 796.26 1873.93 799.56C1875.25 802.86 1875.91 806.747 1875.91 811.22V844H1868.43L1867.66 837.62H1867.33C1864.76 839.747 1862.01 841.58 1859.08 843.12C1856.14 844.587 1852.99 845.32 1849.62 845.32ZM1852.15 837.84C1854.79 837.84 1857.24 837.253 1859.52 836.08C1861.86 834.907 1864.32 833.183 1866.89 830.91V816.5C1860.87 817.233 1856.11 818.187 1852.59 819.36C1849.14 820.46 1846.65 821.853 1845.11 823.54C1843.57 825.227 1842.8 827.243 1842.8 829.59C1842.8 832.523 1843.71 834.65 1845.55 835.97C1847.38 837.217 1849.58 837.84 1852.15 837.84ZM1914.75 844V790.54H1922.23L1923 798.24H1923.33C1925.68 795.747 1928.21 793.62 1930.92 791.86C1933.71 790.1 1936.71 789.22 1939.94 789.22C1944.05 789.22 1947.24 790.137 1949.51 791.97C1951.86 793.803 1953.58 796.297 1954.68 799.45C1957.47 796.37 1960.29 793.913 1963.15 792.08C1966.01 790.173 1969.05 789.22 1972.28 789.22C1977.85 789.22 1981.96 791.017 1984.6 794.61C1987.24 798.13 1988.56 803.3 1988.56 810.12V844H1979.54V811.33C1979.54 806.27 1978.73 802.64 1977.12 800.44C1975.51 798.167 1973.01 797.03 1969.64 797.03C1967.51 797.03 1965.35 797.727 1963.15 799.12C1961.02 800.44 1958.71 802.493 1956.22 805.28V844H1947.2V811.33C1947.2 806.27 1946.39 802.64 1944.78 800.44C1943.17 798.167 1940.64 797.03 1937.19 797.03C1933.16 797.03 1928.68 799.78 1923.77 805.28V844H1914.75ZM2005.95 844V790.54H2014.97V844H2005.95ZM2010.46 779.54C2008.7 779.54 2007.23 778.99 2006.06 777.89C2004.96 776.79 2004.41 775.36 2004.41 773.6C2004.41 771.84 2004.96 770.41 2006.06 769.31C2007.23 768.21 2008.7 767.66 2010.46 767.66C2012.22 767.66 2013.65 768.21 2014.75 769.31C2015.92 770.41 2016.51 771.84 2016.51 773.6C2016.51 775.36 2015.92 776.79 2014.75 777.89C2013.65 778.99 2012.22 779.54 2010.46 779.54ZM2051.06 868.64C2046.73 868.64 2042.88 868.053 2039.51 866.88C2036.21 865.78 2033.61 864.167 2031.7 862.04C2029.87 859.913 2028.95 857.31 2028.95 854.23C2028.95 851.957 2029.65 849.757 2031.04 847.63C2032.43 845.577 2034.34 843.743 2036.76 842.13V841.69C2035.44 840.81 2034.3 839.673 2033.35 838.28C2032.47 836.813 2032.03 835.053 2032.03 833C2032.03 830.727 2032.65 828.747 2033.9 827.06C2035.22 825.373 2036.54 824.053 2037.86 823.1V822.66C2036.17 821.193 2034.6 819.213 2033.13 816.72C2031.66 814.227 2030.93 811.403 2030.93 808.25C2030.93 804.363 2031.85 800.99 2033.68 798.13C2035.59 795.27 2038.04 793.07 2041.05 791.53C2044.13 789.99 2047.47 789.22 2051.06 789.22C2052.53 789.22 2053.92 789.367 2055.24 789.66C2056.56 789.88 2057.7 790.173 2058.65 790.54H2077.24V797.47H2066.13V797.91C2067.45 799.083 2068.51 800.55 2069.32 802.31C2070.2 804.07 2070.64 806.16 2070.64 808.58C2070.64 812.393 2069.76 815.693 2068 818.48C2066.24 821.193 2063.89 823.32 2060.96 824.86C2058.03 826.327 2054.73 827.06 2051.06 827.06C2049.74 827.06 2048.38 826.913 2046.99 826.62C2045.6 826.253 2044.28 825.777 2043.03 825.19C2042.15 825.997 2041.34 826.877 2040.61 827.83C2039.95 828.783 2039.62 830.03 2039.62 831.57C2039.62 833.257 2040.28 834.65 2041.6 835.75C2042.99 836.85 2045.49 837.4 2049.08 837.4H2059.42C2065.65 837.4 2070.31 838.427 2073.39 840.48C2076.54 842.46 2078.12 845.687 2078.12 850.16C2078.12 853.46 2077.02 856.503 2074.82 859.29C2072.62 862.077 2069.47 864.313 2065.36 866C2061.33 867.76 2056.56 868.64 2051.06 868.64ZM2051.06 821.01C2053.11 821.01 2054.98 820.497 2056.67 819.47C2058.43 818.37 2059.82 816.867 2060.85 814.96C2061.88 813.053 2062.39 810.817 2062.39 808.25C2062.39 804.29 2061.29 801.247 2059.09 799.12C2056.89 796.92 2054.21 795.82 2051.06 795.82C2047.91 795.82 2045.23 796.92 2043.03 799.12C2040.83 801.247 2039.73 804.29 2039.73 808.25C2039.73 810.817 2040.24 813.053 2041.27 814.96C2042.3 816.867 2043.65 818.37 2045.34 819.47C2047.1 820.497 2049.01 821.01 2051.06 821.01ZM2052.38 862.37C2055.75 862.37 2058.69 861.857 2061.18 860.83C2063.75 859.803 2065.73 858.447 2067.12 856.76C2068.59 855.073 2069.32 853.313 2069.32 851.48C2069.32 848.987 2068.37 847.263 2066.46 846.31C2064.63 845.357 2061.99 844.88 2058.54 844.88H2049.3C2048.27 844.88 2047.14 844.807 2045.89 844.66C2044.72 844.513 2043.54 844.293 2042.37 844C2040.39 845.393 2038.96 846.86 2038.08 848.4C2037.27 849.94 2036.87 851.48 2036.87 853.02C2036.87 855.88 2038.23 858.153 2040.94 859.84C2043.73 861.527 2047.54 862.37 2052.38 862.37ZM2088.45 844V790.54H2095.93L2096.7 800.22H2097.03C2098.79 796.847 2100.99 794.17 2103.63 792.19C2106.27 790.21 2109.13 789.22 2112.21 789.22C2113.38 789.22 2114.41 789.293 2115.29 789.44C2116.17 789.587 2117.05 789.88 2117.93 790.32L2115.95 798.02C2115.14 797.8 2114.37 797.653 2113.64 797.58C2112.98 797.433 2112.1 797.36 2111 797.36C2108.73 797.36 2106.34 798.277 2103.85 800.11C2101.43 801.943 2099.3 805.133 2097.47 809.68V844H2088.45ZM2136.33 845.32C2133.39 845.32 2130.72 844.733 2128.3 843.56C2125.95 842.313 2124.08 840.59 2122.69 838.39C2121.29 836.117 2120.6 833.367 2120.6 830.14C2120.6 824.127 2123.24 819.58 2128.52 816.5C2133.8 813.42 2142.16 811.257 2153.6 810.01C2153.52 807.81 2153.16 805.683 2152.5 803.63C2151.91 801.577 2150.81 799.927 2149.2 798.68C2147.58 797.433 2145.35 796.81 2142.49 796.81C2139.41 796.81 2136.51 797.397 2133.8 798.57C2131.08 799.67 2128.66 800.917 2126.54 802.31L2123.02 796.15C2124.63 795.05 2126.54 793.987 2128.74 792.96C2130.94 791.86 2133.32 790.98 2135.89 790.32C2138.45 789.587 2141.17 789.22 2144.03 789.22C2148.35 789.22 2151.87 790.137 2154.59 791.97C2157.37 793.73 2159.39 796.26 2160.64 799.56C2161.96 802.86 2162.62 806.747 2162.62 811.22V844H2155.14L2154.37 837.62H2154.04C2151.47 839.747 2148.72 841.58 2145.79 843.12C2142.85 844.587 2139.7 845.32 2136.33 845.32ZM2138.86 837.84C2141.5 837.84 2143.95 837.253 2146.23 836.08C2148.57 834.907 2151.03 833.183 2153.6 830.91V816.5C2147.58 817.233 2142.82 818.187 2139.3 819.36C2135.85 820.46 2133.36 821.853 2131.82 823.54C2130.28 825.227 2129.51 827.243 2129.51 829.59C2129.51 832.523 2130.42 834.65 2132.26 835.97C2134.09 837.217 2136.29 837.84 2138.86 837.84ZM2200.67 845.32C2195.9 845.32 2191.61 844.22 2187.8 842.02C2183.98 839.82 2180.98 836.63 2178.78 832.45C2176.58 828.27 2175.48 823.247 2175.48 817.38C2175.48 811.367 2176.65 806.27 2179 802.09C2181.42 797.91 2184.57 794.72 2188.46 792.52C2192.42 790.32 2196.67 789.22 2201.22 789.22C2204.74 789.22 2207.74 789.807 2210.24 790.98C2212.8 792.153 2215 793.657 2216.84 795.49L2212.33 801.1C2211.01 799.78 2209.43 798.753 2207.6 798.02C2205.84 797.213 2203.82 796.81 2201.55 796.81C2198.39 796.81 2195.53 797.69 2192.97 799.45C2190.47 801.137 2188.49 803.52 2187.03 806.6C2185.56 809.68 2184.83 813.273 2184.83 817.38C2184.83 821.413 2185.52 824.97 2186.92 828.05C2188.31 831.13 2190.25 833.55 2192.75 835.31C2195.24 836.997 2198.14 837.84 2201.44 837.84C2203.93 837.84 2206.24 837.363 2208.37 836.41C2210.49 835.457 2212.33 834.247 2213.87 832.78L2217.83 838.28C2215.55 840.407 2212.99 842.13 2210.13 843.45C2207.27 844.697 2204.11 845.32 2200.67 845.32ZM2190.11 868.86L2189.23 864.46C2193.85 864.093 2197 863.47 2198.69 862.59C2200.37 861.783 2201.22 860.573 2201.22 858.96C2201.22 857.493 2200.59 856.357 2199.35 855.55C2198.1 854.743 2195.9 854.12 2192.75 853.68L2197.59 843.67H2203.42L2200.23 851.04C2202.79 851.627 2204.77 852.507 2206.17 853.68C2207.56 854.853 2208.26 856.577 2208.26 858.85C2208.26 862.003 2206.68 864.387 2203.53 866C2200.45 867.613 2195.97 868.567 2190.11 868.86ZM2240.85 845.32C2237.91 845.32 2235.24 844.733 2232.82 843.56C2230.47 842.313 2228.6 840.59 2227.21 838.39C2225.81 836.117 2225.12 833.367 2225.12 830.14C2225.12 824.127 2227.76 819.58 2233.04 816.5C2238.32 813.42 2246.68 811.257 2258.12 810.01C2258.04 807.81 2257.68 805.683 2257.02 803.63C2256.43 801.577 2255.33 799.927 2253.72 798.68C2252.1 797.433 2249.87 796.81 2247.01 796.81C2243.93 796.81 2241.03 797.397 2238.32 798.57C2235.6 799.67 2233.18 800.917 2231.06 802.31L2227.54 796.15C2229.15 795.05 2231.06 793.987 2233.26 792.96C2235.46 791.86 2237.84 790.98 2240.41 790.32C2242.97 789.587 2245.69 789.22 2248.55 789.22C2252.87 789.22 2256.39 790.137 2259.11 791.97C2261.89 793.73 2263.91 796.26 2265.16 799.56C2266.48 802.86 2267.14 806.747 2267.14 811.22V844H2259.66L2258.89 837.62H2258.56C2255.99 839.747 2253.24 841.58 2250.31 843.12C2247.37 844.587 2244.22 845.32 2240.85 845.32ZM2243.38 837.84C2246.02 837.84 2248.47 837.253 2250.75 836.08C2253.09 834.907 2255.55 833.183 2258.12 830.91V816.5C2252.1 817.233 2247.34 818.187 2243.82 819.36C2240.37 820.46 2237.88 821.853 2236.34 823.54C2234.8 825.227 2234.03 827.243 2234.03 829.59C2234.03 832.523 2234.94 834.65 2236.78 835.97C2238.61 837.217 2240.81 837.84 2243.38 837.84ZM2256.8 780.53C2254.89 780.53 2253.2 780.09 2251.74 779.21C2250.34 778.257 2249.06 777.157 2247.89 775.91C2246.71 774.663 2245.58 773.6 2244.48 772.72C2243.45 771.767 2242.31 771.29 2241.07 771.29C2239.45 771.29 2238.24 772.097 2237.44 773.71C2236.63 775.25 2236.12 777.34 2235.9 779.98L2229.85 779.65C2229.92 776.717 2230.36 774.15 2231.17 771.95C2231.97 769.677 2233.15 767.917 2234.69 766.67C2236.3 765.35 2238.39 764.69 2240.96 764.69C2242.94 764.69 2244.62 765.167 2246.02 766.12C2247.41 767 2248.69 768.063 2249.87 769.31C2251.04 770.557 2252.14 771.657 2253.17 772.61C2254.27 773.49 2255.48 773.93 2256.8 773.93C2258.41 773.93 2259.62 773.123 2260.43 771.51C2261.23 769.897 2261.71 767.807 2261.86 765.24L2267.91 765.68C2267.83 768.467 2267.39 770.997 2266.59 773.27C2265.78 775.47 2264.57 777.23 2262.96 778.55C2261.42 779.87 2259.36 780.53 2256.8 780.53ZM2304.75 845.32C2300.42 845.32 2296.35 844.22 2292.54 842.02C2288.8 839.82 2285.75 836.63 2283.41 832.45C2281.13 828.27 2280 823.247 2280 817.38C2280 811.367 2281.13 806.27 2283.41 802.09C2285.75 797.91 2288.8 794.72 2292.54 792.52C2296.35 790.32 2300.42 789.22 2304.75 789.22C2309.15 789.22 2313.22 790.32 2316.96 792.52C2320.7 794.72 2323.7 797.91 2325.98 802.09C2328.32 806.27 2329.5 811.367 2329.5 817.38C2329.5 823.247 2328.32 828.27 2325.98 832.45C2323.7 836.63 2320.7 839.82 2316.96 842.02C2313.22 844.22 2309.15 845.32 2304.75 845.32ZM2304.75 837.84C2307.83 837.84 2310.54 836.997 2312.89 835.31C2315.23 833.55 2317.03 831.13 2318.28 828.05C2319.52 824.97 2320.15 821.413 2320.15 817.38C2320.15 813.273 2319.52 809.68 2318.28 806.6C2317.03 803.447 2315.23 801.027 2312.89 799.34C2310.54 797.58 2307.83 796.7 2304.75 796.7C2301.67 796.7 2298.95 797.58 2296.61 799.34C2294.33 801.027 2292.54 803.447 2291.22 806.6C2289.97 809.68 2289.35 813.273 2289.35 817.38C2289.35 821.413 2289.97 824.97 2291.22 828.05C2292.54 831.13 2294.33 833.55 2296.61 835.31C2298.95 836.997 2301.67 837.84 2304.75 837.84ZM2348.31 805.61C2346.55 805.61 2345.01 804.987 2343.69 803.74C2342.37 802.42 2341.71 800.77 2341.71 798.79C2341.71 796.663 2342.37 794.977 2343.69 793.73C2345.01 792.41 2346.55 791.75 2348.31 791.75C2350.14 791.75 2351.68 792.41 2352.93 793.73C2354.17 794.977 2354.8 796.663 2354.8 798.79C2354.8 800.77 2354.17 802.42 2352.93 803.74C2351.68 804.987 2350.14 805.61 2348.31 805.61ZM2348.31 845.32C2346.55 845.32 2345.01 844.697 2343.69 843.45C2342.37 842.13 2341.71 840.48 2341.71 838.5C2341.71 836.373 2342.37 834.687 2343.69 833.44C2345.01 832.12 2346.55 831.46 2348.31 831.46C2350.14 831.46 2351.68 832.12 2352.93 833.44C2354.17 834.687 2354.8 836.373 2354.8 838.5C2354.8 840.48 2354.17 842.13 2352.93 843.45C2351.68 844.697 2350.14 845.32 2348.31 845.32ZM2392.99 844V790.54H2402.01V844H2392.99ZM2397.5 779.54C2395.74 779.54 2394.27 778.99 2393.1 777.89C2392 776.79 2391.45 775.36 2391.45 773.6C2391.45 771.84 2392 770.41 2393.1 769.31C2394.27 768.21 2395.74 767.66 2397.5 767.66C2399.26 767.66 2400.69 768.21 2401.79 769.31C2402.96 770.41 2403.55 771.84 2403.55 773.6C2403.55 775.36 2402.96 776.79 2401.79 777.89C2400.69 778.99 2399.26 779.54 2397.5 779.54ZM2420.06 844V790.54H2427.54L2428.31 798.24H2428.64C2431.21 795.673 2433.92 793.547 2436.78 791.86C2439.64 790.1 2442.9 789.22 2446.57 789.22C2452.22 789.22 2456.32 791.017 2458.89 794.61C2461.53 798.13 2462.85 803.3 2462.85 810.12V844H2453.83V811.33C2453.83 806.27 2453.02 802.64 2451.41 800.44C2449.87 798.167 2447.3 797.03 2443.71 797.03C2441 797.03 2438.54 797.727 2436.34 799.12C2434.21 800.513 2431.79 802.567 2429.08 805.28V844H2420.06ZM2480.22 844V790.54H2489.24V844H2480.22ZM2484.73 779.54C2482.97 779.54 2481.5 778.99 2480.33 777.89C2479.23 776.79 2478.68 775.36 2478.68 773.6C2478.68 771.84 2479.23 770.41 2480.33 769.31C2481.5 768.21 2482.97 767.66 2484.73 767.66C2486.49 767.66 2487.92 768.21 2489.02 769.31C2490.19 770.41 2490.78 771.84 2490.78 773.6C2490.78 775.36 2490.19 776.79 2489.02 777.89C2487.92 778.99 2486.49 779.54 2484.73 779.54ZM2528.52 845.32C2523.75 845.32 2519.46 844.22 2515.65 842.02C2511.83 839.82 2508.83 836.63 2506.63 832.45C2504.43 828.27 2503.33 823.247 2503.33 817.38C2503.33 811.367 2504.5 806.27 2506.85 802.09C2509.27 797.91 2512.42 794.72 2516.31 792.52C2520.27 790.32 2524.52 789.22 2529.07 789.22C2532.59 789.22 2535.59 789.807 2538.09 790.98C2540.65 792.153 2542.85 793.657 2544.69 795.49L2540.18 801.1C2538.86 799.78 2537.28 798.753 2535.45 798.02C2533.69 797.213 2531.67 796.81 2529.4 796.81C2526.24 796.81 2523.38 797.69 2520.82 799.45C2518.32 801.137 2516.34 803.52 2514.88 806.6C2513.41 809.68 2512.68 813.273 2512.68 817.38C2512.68 821.413 2513.37 824.97 2514.77 828.05C2516.16 831.13 2518.1 833.55 2520.6 835.31C2523.09 836.997 2525.99 837.84 2529.29 837.84C2531.78 837.84 2534.09 837.363 2536.22 836.41C2538.34 835.457 2540.18 834.247 2541.72 832.78L2545.68 838.28C2543.4 840.407 2540.84 842.13 2537.98 843.45C2535.12 844.697 2531.96 845.32 2528.52 845.32ZM2557.45 844V790.54H2566.47V844H2557.45ZM2561.96 779.54C2560.2 779.54 2558.74 778.99 2557.56 777.89C2556.46 776.79 2555.91 775.36 2555.91 773.6C2555.91 771.84 2556.46 770.41 2557.56 769.31C2558.74 768.21 2560.2 767.66 2561.96 767.66C2563.72 767.66 2565.15 768.21 2566.25 769.31C2567.43 770.41 2568.01 771.84 2568.01 773.6C2568.01 775.36 2567.43 776.79 2566.25 777.89C2565.15 778.99 2563.72 779.54 2561.96 779.54ZM2596.84 845.32C2593.91 845.32 2591.23 844.733 2588.81 843.56C2586.47 842.313 2584.6 840.59 2583.2 838.39C2581.81 836.117 2581.11 833.367 2581.11 830.14C2581.11 824.127 2583.75 819.58 2589.03 816.5C2594.31 813.42 2602.67 811.257 2614.11 810.01C2614.04 807.81 2613.67 805.683 2613.01 803.63C2612.43 801.577 2611.33 799.927 2609.71 798.68C2608.1 797.433 2605.86 796.81 2603 796.81C2599.92 796.81 2597.03 797.397 2594.31 798.57C2591.6 799.67 2589.18 800.917 2587.05 802.31L2583.53 796.15C2585.15 795.05 2587.05 793.987 2589.25 792.96C2591.45 791.86 2593.84 790.98 2596.4 790.32C2598.97 789.587 2601.68 789.22 2604.54 789.22C2608.87 789.22 2612.39 790.137 2615.1 791.97C2617.89 793.73 2619.91 796.26 2621.15 799.56C2622.47 802.86 2623.13 806.747 2623.13 811.22V844H2615.65L2614.88 837.62H2614.55C2611.99 839.747 2609.24 841.58 2606.3 843.12C2603.37 844.587 2600.22 845.32 2596.84 845.32ZM2599.37 837.84C2602.01 837.84 2604.47 837.253 2606.74 836.08C2609.09 834.907 2611.55 833.183 2614.11 830.91V816.5C2608.1 817.233 2603.33 818.187 2599.81 819.36C2596.37 820.46 2593.87 821.853 2592.33 823.54C2590.79 825.227 2590.02 827.243 2590.02 829.59C2590.02 832.523 2590.94 834.65 2592.77 835.97C2594.61 837.217 2596.81 837.84 2599.37 837.84ZM2649.52 844.99C2647.25 844.99 2645.42 844.55 2644.02 843.67C2642.63 842.717 2641.6 841.36 2640.94 839.6C2640.28 837.767 2639.95 835.567 2639.95 833V765.68H2648.97V833.66C2648.97 835.127 2649.23 836.153 2649.74 836.74C2650.26 837.253 2650.88 837.51 2651.61 837.51C2651.91 837.51 2652.16 837.51 2652.38 837.51C2652.68 837.437 2653.04 837.363 2653.48 837.29L2654.8 844.11C2654.14 844.33 2653.37 844.513 2652.49 844.66C2651.69 844.88 2650.7 844.99 2649.52 844.99ZM2667.99 844V790.54H2677.01V844H2667.99ZM2672.5 779.54C2670.74 779.54 2669.27 778.99 2668.1 777.89C2667 776.79 2666.45 775.36 2666.45 773.6C2666.45 771.84 2667 770.41 2668.1 769.31C2669.27 768.21 2670.74 767.66 2672.5 767.66C2674.26 767.66 2675.69 768.21 2676.79 769.31C2677.96 770.41 2678.55 771.84 2678.55 773.6C2678.55 775.36 2677.96 776.79 2676.79 777.89C2675.69 778.99 2674.26 779.54 2672.5 779.54ZM2689.45 844V839.16L2717.61 797.91H2692.53V790.54H2729.05V795.38L2700.89 836.63H2729.93V844H2689.45ZM2751.64 845.32C2748.71 845.32 2746.03 844.733 2743.61 843.56C2741.26 842.313 2739.39 840.59 2738 838.39C2736.61 836.117 2735.91 833.367 2735.91 830.14C2735.91 824.127 2738.55 819.58 2743.83 816.5C2749.11 813.42 2757.47 811.257 2768.91 810.01C2768.84 807.81 2768.47 805.683 2767.81 803.63C2767.22 801.577 2766.12 799.927 2764.51 798.68C2762.9 797.433 2760.66 796.81 2757.8 796.81C2754.72 796.81 2751.82 797.397 2749.11 798.57C2746.4 799.67 2743.98 800.917 2741.85 802.31L2738.33 796.15C2739.94 795.05 2741.85 793.987 2744.05 792.96C2746.25 791.86 2748.63 790.98 2751.2 790.32C2753.77 789.587 2756.48 789.22 2759.34 789.22C2763.67 789.22 2767.19 790.137 2769.9 791.97C2772.69 793.73 2774.7 796.26 2775.95 799.56C2777.27 802.86 2777.93 806.747 2777.93 811.22V844H2770.45L2769.68 837.62H2769.35C2766.78 839.747 2764.03 841.58 2761.1 843.12C2758.17 844.587 2755.01 845.32 2751.64 845.32ZM2754.17 837.84C2756.81 837.84 2759.27 837.253 2761.54 836.08C2763.89 834.907 2766.34 833.183 2768.91 830.91V816.5C2762.9 817.233 2758.13 818.187 2754.61 819.36C2751.16 820.46 2748.67 821.853 2747.13 823.54C2745.59 825.227 2744.82 827.243 2744.82 829.59C2744.82 832.523 2745.74 834.65 2747.57 835.97C2749.4 837.217 2751.6 837.84 2754.17 837.84ZM2794.75 844V790.54H2802.23L2803 798.24H2803.33C2805.9 795.673 2808.61 793.547 2811.47 791.86C2814.33 790.1 2817.59 789.22 2821.26 789.22C2826.91 789.22 2831.01 791.017 2833.58 794.61C2836.22 798.13 2837.54 803.3 2837.54 810.12V844H2828.52V811.33C2828.52 806.27 2827.71 802.64 2826.1 800.44C2824.56 798.167 2821.99 797.03 2818.4 797.03C2815.69 797.03 2813.23 797.727 2811.03 799.12C2808.9 800.513 2806.48 802.567 2803.77 805.28V844H2794.75ZM2873.16 845.32C2866.42 845.32 2861.03 842.9 2856.99 838.06C2853.03 833.147 2851.05 826.253 2851.05 817.38C2851.05 811.587 2852.12 806.6 2854.24 802.42C2856.44 798.167 2859.3 794.903 2862.82 792.63C2866.34 790.357 2870.16 789.22 2874.26 789.22C2877.42 789.22 2880.09 789.77 2882.29 790.87C2884.57 791.897 2886.88 793.4 2889.22 795.38L2888.78 786.25V765.68H2897.91V844H2890.43L2889.66 837.73H2889.33C2887.28 839.783 2884.86 841.58 2882.07 843.12C2879.29 844.587 2876.32 845.32 2873.16 845.32ZM2875.14 837.73C2877.64 837.73 2879.98 837.107 2882.18 835.86C2884.38 834.613 2886.58 832.78 2888.78 830.36V802.42C2886.58 800.367 2884.42 798.937 2882.29 798.13C2880.17 797.25 2878 796.81 2875.8 796.81C2872.94 796.81 2870.34 797.69 2867.99 799.45C2865.72 801.137 2863.89 803.52 2862.49 806.6C2861.1 809.607 2860.4 813.163 2860.4 817.27C2860.4 823.65 2861.69 828.673 2864.25 832.34C2866.82 835.933 2870.45 837.73 2875.14 837.73ZM2936.71 845.32C2932.38 845.32 2928.31 844.22 2924.5 842.02C2920.76 839.82 2917.72 836.63 2915.37 832.45C2913.1 828.27 2911.96 823.247 2911.96 817.38C2911.96 811.367 2913.1 806.27 2915.37 802.09C2917.72 797.91 2920.76 794.72 2924.5 792.52C2928.31 790.32 2932.38 789.22 2936.71 789.22C2941.11 789.22 2945.18 790.32 2948.92 792.52C2952.66 794.72 2955.67 797.91 2957.94 802.09C2960.29 806.27 2961.46 811.367 2961.46 817.38C2961.46 823.247 2960.29 828.27 2957.94 832.45C2955.67 836.63 2952.66 839.82 2948.92 842.02C2945.18 844.22 2941.11 845.32 2936.71 845.32ZM2936.71 837.84C2939.79 837.84 2942.5 836.997 2944.85 835.31C2947.2 833.55 2948.99 831.13 2950.24 828.05C2951.49 824.97 2952.11 821.413 2952.11 817.38C2952.11 813.273 2951.49 809.68 2950.24 806.6C2948.99 803.447 2947.2 801.027 2944.85 799.34C2942.5 797.58 2939.79 796.7 2936.71 796.7C2933.63 796.7 2930.92 797.58 2928.57 799.34C2926.3 801.027 2924.5 803.447 2923.18 806.6C2921.93 809.68 2921.31 813.273 2921.31 817.38C2921.31 821.413 2921.93 824.97 2923.18 828.05C2924.5 831.13 2926.3 833.55 2928.57 835.31C2930.92 836.997 2933.63 837.84 2936.71 837.84ZM3018.35 845.32C3014.02 845.32 3009.95 844.22 3006.14 842.02C3002.4 839.82 2999.36 836.63 2997.01 832.45C2994.74 828.27 2993.6 823.247 2993.6 817.38C2993.6 811.367 2994.74 806.27 2997.01 802.09C2999.36 797.91 3002.4 794.72 3006.14 792.52C3009.95 790.32 3014.02 789.22 3018.35 789.22C3022.75 789.22 3026.82 790.32 3030.56 792.52C3034.3 794.72 3037.31 797.91 3039.58 802.09C3041.93 806.27 3043.1 811.367 3043.1 817.38C3043.1 823.247 3041.93 828.27 3039.58 832.45C3037.31 836.63 3034.3 839.82 3030.56 842.02C3026.82 844.22 3022.75 845.32 3018.35 845.32ZM3018.35 837.84C3021.43 837.84 3024.14 836.997 3026.49 835.31C3028.84 833.55 3030.63 831.13 3031.88 828.05C3033.13 824.97 3033.75 821.413 3033.75 817.38C3033.75 813.273 3033.13 809.68 3031.88 806.6C3030.63 803.447 3028.84 801.027 3026.49 799.34C3024.14 797.58 3021.43 796.7 3018.35 796.7C3015.27 796.7 3012.56 797.58 3010.21 799.34C3007.94 801.027 3006.14 803.447 3004.82 806.6C3003.57 809.68 3002.95 813.273 3002.95 817.38C3002.95 821.413 3003.57 824.97 3004.82 828.05C3006.14 831.13 3007.94 833.55 3010.21 835.31C3012.56 836.997 3015.27 837.84 3018.35 837.84ZM3070.94 845.32C3067.05 845.32 3063.35 844.66 3059.83 843.34C3056.38 841.947 3053.45 840.04 3051.03 837.62L3055.21 832.34C3057.55 834.247 3059.97 835.713 3062.47 836.74C3065.03 837.767 3067.97 838.28 3071.27 838.28C3074.79 838.28 3077.43 837.473 3079.19 835.86C3080.95 834.173 3081.83 832.193 3081.83 829.92C3081.83 828.087 3081.2 826.583 3079.96 825.41C3078.78 824.163 3077.28 823.137 3075.45 822.33C3073.69 821.45 3071.78 820.643 3069.73 819.91C3067.09 818.957 3064.56 817.857 3062.14 816.61C3059.72 815.29 3057.74 813.677 3056.2 811.77C3054.73 809.79 3054 807.333 3054 804.4C3054 800.073 3055.61 796.48 3058.84 793.62C3062.14 790.687 3066.68 789.22 3072.48 789.22C3075.78 789.22 3078.86 789.807 3081.72 790.98C3084.58 792.08 3087.03 793.51 3089.09 795.27L3084.91 800.44C3083 799.12 3081.06 798.093 3079.08 797.36C3077.1 796.627 3074.9 796.26 3072.48 796.26C3069.1 796.26 3066.61 797.03 3065 798.57C3063.46 800.11 3062.69 801.907 3062.69 803.96C3062.69 805.573 3063.16 806.93 3064.12 808.03C3065.07 809.057 3066.39 809.973 3068.08 810.78C3069.84 811.587 3071.82 812.357 3074.02 813.09C3076.8 814.117 3079.44 815.29 3081.94 816.61C3084.5 817.857 3086.56 819.507 3088.1 821.56C3089.71 823.54 3090.52 826.143 3090.52 829.37C3090.52 832.303 3089.75 834.98 3088.21 837.4C3086.74 839.747 3084.54 841.653 3081.61 843.12C3078.75 844.587 3075.19 845.32 3070.94 845.32ZM3143.33 845.32C3136.58 845.32 3131.19 842.9 3127.16 838.06C3123.2 833.147 3121.22 826.253 3121.22 817.38C3121.22 811.587 3122.28 806.6 3124.41 802.42C3126.61 798.167 3129.47 794.903 3132.99 792.63C3136.51 790.357 3140.32 789.22 3144.43 789.22C3147.58 789.22 3150.26 789.77 3152.46 790.87C3154.73 791.897 3157.04 793.4 3159.39 795.38L3158.95 786.25V765.68H3168.08V844H3160.6L3159.83 837.73H3159.5C3157.45 839.783 3155.03 841.58 3152.24 843.12C3149.45 844.587 3146.48 845.32 3143.33 845.32ZM3145.31 837.73C3147.8 837.73 3150.15 837.107 3152.35 835.86C3154.55 834.613 3156.75 832.78 3158.95 830.36V802.42C3156.75 800.367 3154.59 798.937 3152.46 798.13C3150.33 797.25 3148.17 796.81 3145.97 796.81C3143.11 796.81 3140.51 797.69 3138.16 799.45C3135.89 801.137 3134.05 803.52 3132.66 806.6C3131.27 809.607 3130.57 813.163 3130.57 817.27C3130.57 823.65 3131.85 828.673 3134.42 832.34C3136.99 835.933 3140.62 837.73 3145.31 837.73ZM3198.41 845.32C3195.47 845.32 3192.8 844.733 3190.38 843.56C3188.03 842.313 3186.16 840.59 3184.77 838.39C3183.37 836.117 3182.68 833.367 3182.68 830.14C3182.68 824.127 3185.32 819.58 3190.6 816.5C3195.88 813.42 3204.24 811.257 3215.68 810.01C3215.6 807.81 3215.24 805.683 3214.58 803.63C3213.99 801.577 3212.89 799.927 3211.28 798.68C3209.66 797.433 3207.43 796.81 3204.57 796.81C3201.49 796.81 3198.59 797.397 3195.88 798.57C3193.16 799.67 3190.74 800.917 3188.62 802.31L3185.1 796.15C3186.71 795.05 3188.62 793.987 3190.82 792.96C3193.02 791.86 3195.4 790.98 3197.97 790.32C3200.53 789.587 3203.25 789.22 3206.11 789.22C3210.43 789.22 3213.95 790.137 3216.67 791.97C3219.45 793.73 3221.47 796.26 3222.72 799.56C3224.04 802.86 3224.7 806.747 3224.7 811.22V844H3217.22L3216.45 837.62H3216.12C3213.55 839.747 3210.8 841.58 3207.87 843.12C3204.93 844.587 3201.78 845.32 3198.41 845.32ZM3200.94 837.84C3203.58 837.84 3206.03 837.253 3208.31 836.08C3210.65 834.907 3213.11 833.183 3215.68 830.91V816.5C3209.66 817.233 3204.9 818.187 3201.38 819.36C3197.93 820.46 3195.44 821.853 3193.9 823.54C3192.36 825.227 3191.59 827.243 3191.59 829.59C3191.59 832.523 3192.5 834.65 3194.34 835.97C3196.17 837.217 3198.37 837.84 3200.94 837.84ZM3259.78 845.32C3253.03 845.32 3247.64 842.9 3243.61 838.06C3239.65 833.147 3237.67 826.253 3237.67 817.38C3237.67 811.587 3238.73 806.6 3240.86 802.42C3243.06 798.167 3245.92 794.903 3249.44 792.63C3252.96 790.357 3256.77 789.22 3260.88 789.22C3264.03 789.22 3266.71 789.77 3268.91 790.87C3271.18 791.897 3273.49 793.4 3275.84 795.38L3275.4 786.25V765.68H3284.53V844H3277.05L3276.28 837.73H3275.95C3273.89 839.783 3271.47 841.58 3268.69 843.12C3265.9 844.587 3262.93 845.32 3259.78 845.32ZM3261.76 837.73C3264.25 837.73 3266.6 837.107 3268.8 835.86C3271 834.613 3273.2 832.78 3275.4 830.36V802.42C3273.2 800.367 3271.03 798.937 3268.91 798.13C3266.78 797.25 3264.62 796.81 3262.42 796.81C3259.56 796.81 3256.95 797.69 3254.61 799.45C3252.33 801.137 3250.5 803.52 3249.11 806.6C3247.71 809.607 3247.02 813.163 3247.02 817.27C3247.02 823.65 3248.3 828.673 3250.87 832.34C3253.43 835.933 3257.06 837.73 3261.76 837.73ZM3323.32 845.32C3319 845.32 3314.93 844.22 3311.11 842.02C3307.37 839.82 3304.33 836.63 3301.98 832.45C3299.71 828.27 3298.57 823.247 3298.57 817.38C3298.57 811.367 3299.71 806.27 3301.98 802.09C3304.33 797.91 3307.37 794.72 3311.11 792.52C3314.93 790.32 3319 789.22 3323.32 789.22C3327.72 789.22 3331.79 790.32 3335.53 792.52C3339.27 794.72 3342.28 797.91 3344.55 802.09C3346.9 806.27 3348.07 811.367 3348.07 817.38C3348.07 823.247 3346.9 828.27 3344.55 832.45C3342.28 836.63 3339.27 839.82 3335.53 842.02C3331.79 844.22 3327.72 845.32 3323.32 845.32ZM3323.32 837.84C3326.4 837.84 3329.12 836.997 3331.46 835.31C3333.81 833.55 3335.61 831.13 3336.85 828.05C3338.1 824.97 3338.72 821.413 3338.72 817.38C3338.72 813.273 3338.1 809.68 3336.85 806.6C3335.61 803.447 3333.81 801.027 3331.46 799.34C3329.12 797.58 3326.4 796.7 3323.32 796.7C3320.24 796.7 3317.53 797.58 3315.18 799.34C3312.91 801.027 3311.11 803.447 3309.79 806.6C3308.55 809.68 3307.92 813.273 3307.92 817.38C3307.92 821.413 3308.55 824.97 3309.79 828.05C3311.11 831.13 3312.91 833.55 3315.18 835.31C3317.53 836.997 3320.24 837.84 3323.32 837.84ZM3375.91 845.32C3372.02 845.32 3368.32 844.66 3364.8 843.34C3361.35 841.947 3358.42 840.04 3356 837.62L3360.18 832.34C3362.52 834.247 3364.94 835.713 3367.44 836.74C3370 837.767 3372.94 838.28 3376.24 838.28C3379.76 838.28 3382.4 837.473 3384.16 835.86C3385.92 834.173 3386.8 832.193 3386.8 829.92C3386.8 828.087 3386.17 826.583 3384.93 825.41C3383.75 824.163 3382.25 823.137 3380.42 822.33C3378.66 821.45 3376.75 820.643 3374.7 819.91C3372.06 818.957 3369.53 817.857 3367.11 816.61C3364.69 815.29 3362.71 813.677 3361.17 811.77C3359.7 809.79 3358.97 807.333 3358.97 804.4C3358.97 800.073 3360.58 796.48 3363.81 793.62C3367.11 790.687 3371.65 789.22 3377.45 789.22C3380.75 789.22 3383.83 789.807 3386.69 790.98C3389.55 792.08 3392 793.51 3394.06 795.27L3389.88 800.44C3387.97 799.12 3386.03 798.093 3384.05 797.36C3382.07 796.627 3379.87 796.26 3377.45 796.26C3374.07 796.26 3371.58 797.03 3369.97 798.57C3368.43 800.11 3367.66 801.907 3367.66 803.96C3367.66 805.573 3368.13 806.93 3369.09 808.03C3370.04 809.057 3371.36 809.973 3373.05 810.78C3374.81 811.587 3376.79 812.357 3378.99 813.09C3381.77 814.117 3384.41 815.29 3386.91 816.61C3389.47 817.857 3391.53 819.507 3393.07 821.56C3394.68 823.54 3395.49 826.143 3395.49 829.37C3395.49 832.303 3394.72 834.98 3393.18 837.4C3391.71 839.747 3389.51 841.653 3386.58 843.12C3383.72 844.587 3380.16 845.32 3375.91 845.32ZM1506.76 965.32C1500.01 965.32 1494.62 962.9 1490.59 958.06C1486.63 953.147 1484.65 946.253 1484.65 937.38C1484.65 931.587 1485.71 926.6 1487.84 922.42C1490.04 918.167 1492.9 914.903 1496.42 912.63C1499.94 910.357 1503.75 909.22 1507.86 909.22C1511.01 909.22 1513.69 909.77 1515.89 910.87C1518.16 911.897 1520.47 913.4 1522.82 915.38L1522.38 906.25V885.68H1531.51V964H1524.03L1523.26 957.73H1522.93C1520.88 959.783 1518.46 961.58 1515.67 963.12C1512.88 964.587 1509.91 965.32 1506.76 965.32ZM1508.74 957.73C1511.23 957.73 1513.58 957.107 1515.78 955.86C1517.98 954.613 1520.18 952.78 1522.38 950.36V922.42C1520.18 920.367 1518.02 918.937 1515.89 918.13C1513.76 917.25 1511.6 916.81 1509.4 916.81C1506.54 916.81 1503.94 917.69 1501.59 919.45C1499.32 921.137 1497.48 923.52 1496.09 926.6C1494.7 929.607 1494 933.163 1494 937.27C1494 943.65 1495.28 948.673 1497.85 952.34C1500.42 955.933 1504.05 957.73 1508.74 957.73ZM1571.18 965.32C1566.42 965.32 1562.05 964.22 1558.09 962.02C1554.21 959.747 1551.13 956.557 1548.85 952.45C1546.58 948.27 1545.44 943.21 1545.44 937.27C1545.44 931.477 1546.62 926.49 1548.96 922.31C1551.31 918.13 1554.32 914.903 1557.98 912.63C1561.65 910.357 1565.54 909.22 1569.64 909.22C1574.19 909.22 1578.04 910.283 1581.19 912.41C1584.42 914.463 1586.84 917.36 1588.45 921.1C1590.07 924.84 1590.87 929.24 1590.87 934.3C1590.87 935.253 1590.84 936.17 1590.76 937.05C1590.76 937.93 1590.65 938.81 1590.43 939.69H1551.93V932.54H1582.73C1582.73 927.407 1581.6 923.483 1579.32 920.77C1577.12 917.983 1573.93 916.59 1569.75 916.59C1567.33 916.59 1564.95 917.287 1562.6 918.68C1560.26 920 1558.31 922.163 1556.77 925.17C1555.31 928.177 1554.57 932.173 1554.57 937.16C1554.57 941.707 1555.34 945.52 1556.88 948.6C1558.5 951.68 1560.66 954.027 1563.37 955.64C1566.09 957.18 1569.06 957.95 1572.28 957.95C1574.85 957.95 1577.23 957.583 1579.43 956.85C1581.71 956.117 1583.76 955.127 1585.59 953.88L1588.89 959.82C1586.55 961.433 1583.91 962.753 1580.97 963.78C1578.11 964.807 1574.85 965.32 1571.18 965.32ZM1647.34 965.32C1642.57 965.32 1638.28 964.22 1634.47 962.02C1630.65 959.82 1627.65 956.63 1625.45 952.45C1623.25 948.27 1622.15 943.247 1622.15 937.38C1622.15 931.367 1623.32 926.27 1625.67 922.09C1628.09 917.91 1631.24 914.72 1635.13 912.52C1639.09 910.32 1643.34 909.22 1647.89 909.22C1651.41 909.22 1654.41 909.807 1656.91 910.98C1659.47 912.153 1661.67 913.657 1663.51 915.49L1659 921.1C1657.68 919.78 1656.1 918.753 1654.27 918.02C1652.51 917.213 1650.49 916.81 1648.22 916.81C1645.06 916.81 1642.2 917.69 1639.64 919.45C1637.14 921.137 1635.16 923.52 1633.7 926.6C1632.23 929.68 1631.5 933.273 1631.5 937.38C1631.5 941.413 1632.19 944.97 1633.59 948.05C1634.98 951.13 1636.92 953.55 1639.42 955.31C1641.91 956.997 1644.81 957.84 1648.11 957.84C1650.6 957.84 1652.91 957.363 1655.04 956.41C1657.16 955.457 1659 954.247 1660.54 952.78L1664.5 958.28C1662.22 960.407 1659.66 962.13 1656.8 963.45C1653.94 964.697 1650.78 965.32 1647.34 965.32ZM1687.52 965.32C1684.58 965.32 1681.91 964.733 1679.49 963.56C1677.14 962.313 1675.27 960.59 1673.88 958.39C1672.48 956.117 1671.79 953.367 1671.79 950.14C1671.79 944.127 1674.43 939.58 1679.71 936.5C1684.99 933.42 1693.35 931.257 1704.79 930.01C1704.71 927.81 1704.35 925.683 1703.69 923.63C1703.1 921.577 1702 919.927 1700.39 918.68C1698.77 917.433 1696.54 916.81 1693.68 916.81C1690.6 916.81 1687.7 917.397 1684.99 918.57C1682.27 919.67 1679.85 920.917 1677.73 922.31L1674.21 916.15C1675.82 915.05 1677.73 913.987 1679.93 912.96C1682.13 911.86 1684.51 910.98 1687.08 910.32C1689.64 909.587 1692.36 909.22 1695.22 909.22C1699.54 909.22 1703.06 910.137 1705.78 911.97C1708.56 913.73 1710.58 916.26 1711.83 919.56C1713.15 922.86 1713.81 926.747 1713.81 931.22V964H1706.33L1705.56 957.62H1705.23C1702.66 959.747 1699.91 961.58 1696.98 963.12C1694.04 964.587 1690.89 965.32 1687.52 965.32ZM1690.05 957.84C1692.69 957.84 1695.14 957.253 1697.42 956.08C1699.76 954.907 1702.22 953.183 1704.79 950.91V936.5C1698.77 937.233 1694.01 938.187 1690.49 939.36C1687.04 940.46 1684.55 941.853 1683.01 943.54C1681.47 945.227 1680.7 947.243 1680.7 949.59C1680.7 952.523 1681.61 954.65 1683.45 955.97C1685.28 957.217 1687.48 957.84 1690.05 957.84ZM1748.89 965.32C1742.14 965.32 1736.75 962.9 1732.72 958.06C1728.76 953.147 1726.78 946.253 1726.78 937.38C1726.78 931.587 1727.84 926.6 1729.97 922.42C1732.17 918.167 1735.03 914.903 1738.55 912.63C1742.07 910.357 1745.88 909.22 1749.99 909.22C1753.14 909.22 1755.82 909.77 1758.02 910.87C1760.29 911.897 1762.6 913.4 1764.95 915.38L1764.51 906.25V885.68H1773.64V964H1766.16L1765.39 957.73H1765.06C1763 959.783 1760.58 961.58 1757.8 963.12C1755.01 964.587 1752.04 965.32 1748.89 965.32ZM1750.87 957.73C1753.36 957.73 1755.71 957.107 1757.91 955.86C1760.11 954.613 1762.31 952.78 1764.51 950.36V922.42C1762.31 920.367 1760.14 918.937 1758.02 918.13C1755.89 917.25 1753.73 916.81 1751.53 916.81C1748.67 916.81 1746.06 917.69 1743.72 919.45C1741.44 921.137 1739.61 923.52 1738.22 926.6C1736.82 929.607 1736.13 933.163 1736.13 937.27C1736.13 943.65 1737.41 948.673 1739.98 952.34C1742.54 955.933 1746.17 957.73 1750.87 957.73ZM1803.96 965.32C1801.03 965.32 1798.35 964.733 1795.93 963.56C1793.59 962.313 1791.72 960.59 1790.32 958.39C1788.93 956.117 1788.23 953.367 1788.23 950.14C1788.23 944.127 1790.87 939.58 1796.15 936.5C1801.43 933.42 1809.79 931.257 1821.23 930.01C1821.16 927.81 1820.79 925.683 1820.13 923.63C1819.55 921.577 1818.45 919.927 1816.83 918.68C1815.22 917.433 1812.98 916.81 1810.12 916.81C1807.04 916.81 1804.15 917.397 1801.43 918.57C1798.72 919.67 1796.3 920.917 1794.17 922.31L1790.65 916.15C1792.27 915.05 1794.17 913.987 1796.37 912.96C1798.57 911.86 1800.96 910.98 1803.52 910.32C1806.09 909.587 1808.8 909.22 1811.66 909.22C1815.99 909.22 1819.51 910.137 1822.22 911.97C1825.01 913.73 1827.03 916.26 1828.27 919.56C1829.59 922.86 1830.25 926.747 1830.25 931.22V964H1822.77L1822 957.62H1821.67C1819.11 959.747 1816.36 961.58 1813.42 963.12C1810.49 964.587 1807.34 965.32 1803.96 965.32ZM1806.49 957.84C1809.13 957.84 1811.59 957.253 1813.86 956.08C1816.21 954.907 1818.67 953.183 1821.23 950.91V936.5C1815.22 937.233 1810.45 938.187 1806.93 939.36C1803.49 940.46 1800.99 941.853 1799.45 943.54C1797.91 945.227 1797.14 947.243 1797.14 949.59C1797.14 952.523 1798.06 954.65 1799.89 955.97C1801.73 957.217 1803.93 957.84 1806.49 957.84ZM1890.32 965.32C1885.56 965.32 1881.27 964.22 1877.45 962.02C1873.64 959.82 1870.63 956.63 1868.43 952.45C1866.23 948.27 1865.13 943.247 1865.13 937.38C1865.13 931.367 1866.31 926.27 1868.65 922.09C1871.07 917.91 1874.23 914.72 1878.11 912.52C1882.07 910.32 1886.33 909.22 1890.87 909.22C1894.39 909.22 1897.4 909.807 1899.89 910.98C1902.46 912.153 1904.66 913.657 1906.49 915.49L1901.98 921.1C1900.66 919.78 1899.09 918.753 1897.25 918.02C1895.49 917.213 1893.48 916.81 1891.2 916.81C1888.05 916.81 1885.19 917.69 1882.62 919.45C1880.13 921.137 1878.15 923.52 1876.68 926.6C1875.22 929.68 1874.48 933.273 1874.48 937.38C1874.48 941.413 1875.18 944.97 1876.57 948.05C1877.97 951.13 1879.91 953.55 1882.4 955.31C1884.9 956.997 1887.79 957.84 1891.09 957.84C1893.59 957.84 1895.9 957.363 1898.02 956.41C1900.15 955.457 1901.98 954.247 1903.52 952.78L1907.48 958.28C1905.21 960.407 1902.64 962.13 1899.78 963.45C1896.92 964.697 1893.77 965.32 1890.32 965.32ZM1930.51 965.32C1927.57 965.32 1924.9 964.733 1922.48 963.56C1920.13 962.313 1918.26 960.59 1916.87 958.39C1915.47 956.117 1914.78 953.367 1914.78 950.14C1914.78 944.127 1917.42 939.58 1922.7 936.5C1927.98 933.42 1936.34 931.257 1947.78 930.01C1947.7 927.81 1947.34 925.683 1946.68 923.63C1946.09 921.577 1944.99 919.927 1943.38 918.68C1941.76 917.433 1939.53 916.81 1936.67 916.81C1933.59 916.81 1930.69 917.397 1927.98 918.57C1925.26 919.67 1922.84 920.917 1920.72 922.31L1917.2 916.15C1918.81 915.05 1920.72 913.987 1922.92 912.96C1925.12 911.86 1927.5 910.98 1930.07 910.32C1932.63 909.587 1935.35 909.22 1938.21 909.22C1942.53 909.22 1946.05 910.137 1948.77 911.97C1951.55 913.73 1953.57 916.26 1954.82 919.56C1956.14 922.86 1956.8 926.747 1956.8 931.22V964H1949.32L1948.55 957.62H1948.22C1945.65 959.747 1942.9 961.58 1939.97 963.12C1937.03 964.587 1933.88 965.32 1930.51 965.32ZM1933.04 957.84C1935.68 957.84 1938.13 957.253 1940.41 956.08C1942.75 954.907 1945.21 953.183 1947.78 950.91V936.5C1941.76 937.233 1937 938.187 1933.48 939.36C1930.03 940.46 1927.54 941.853 1926 943.54C1924.46 945.227 1923.69 947.243 1923.69 949.59C1923.69 952.523 1924.6 954.65 1926.44 955.97C1928.27 957.217 1930.47 957.84 1933.04 957.84ZM1973.62 964V910.54H1981.1L1981.87 920.22H1982.2C1983.96 916.847 1986.16 914.17 1988.8 912.19C1991.44 910.21 1994.3 909.22 1997.38 909.22C1998.55 909.22 1999.58 909.293 2000.46 909.44C2001.34 909.587 2002.22 909.88 2003.1 910.32L2001.12 918.02C2000.31 917.8 1999.54 917.653 1998.81 917.58C1998.15 917.433 1997.27 917.36 1996.17 917.36C1993.89 917.36 1991.51 918.277 1989.02 920.11C1986.6 921.943 1984.47 925.133 1982.64 929.68V964H1973.62ZM2011.75 964V910.54H2019.23L2020 920.22H2020.33C2022.09 916.847 2024.29 914.17 2026.93 912.19C2029.57 910.21 2032.43 909.22 2035.51 909.22C2036.68 909.22 2037.71 909.293 2038.59 909.44C2039.47 909.587 2040.35 909.88 2041.23 910.32L2039.25 918.02C2038.44 917.8 2037.67 917.653 2036.94 917.58C2036.28 917.433 2035.4 917.36 2034.3 917.36C2032.03 917.36 2029.64 918.277 2027.15 920.11C2024.73 921.943 2022.6 925.133 2020.77 929.68V964H2011.75ZM2069.6 965.32C2065.27 965.32 2061.2 964.22 2057.39 962.02C2053.65 959.82 2050.61 956.63 2048.26 952.45C2045.99 948.27 2044.85 943.247 2044.85 937.38C2044.85 931.367 2045.99 926.27 2048.26 922.09C2050.61 917.91 2053.65 914.72 2057.39 912.52C2061.2 910.32 2065.27 909.22 2069.6 909.22C2074 909.22 2078.07 910.32 2081.81 912.52C2085.55 914.72 2088.56 917.91 2090.83 922.09C2093.18 926.27 2094.35 931.367 2094.35 937.38C2094.35 943.247 2093.18 948.27 2090.83 952.45C2088.56 956.63 2085.55 959.82 2081.81 962.02C2078.07 964.22 2074 965.32 2069.6 965.32ZM2069.6 957.84C2072.68 957.84 2075.39 956.997 2077.74 955.31C2080.09 953.55 2081.88 951.13 2083.13 948.05C2084.38 944.97 2085 941.413 2085 937.38C2085 933.273 2084.38 929.68 2083.13 926.6C2081.88 923.447 2080.09 921.027 2077.74 919.34C2075.39 917.58 2072.68 916.7 2069.6 916.7C2066.52 916.7 2063.81 917.58 2061.46 919.34C2059.19 921.027 2057.39 923.447 2056.07 926.6C2054.82 929.68 2054.2 933.273 2054.2 937.38C2054.2 941.413 2054.82 944.97 2056.07 948.05C2057.39 951.13 2059.19 953.55 2061.46 955.31C2063.81 956.997 2066.52 957.84 2069.6 957.84ZM2151.68 965.32C2146.91 965.32 2142.62 964.22 2138.81 962.02C2135 959.82 2131.99 956.63 2129.79 952.45C2127.59 948.27 2126.49 943.247 2126.49 937.38C2126.49 931.367 2127.66 926.27 2130.01 922.09C2132.43 917.91 2135.58 914.72 2139.47 912.52C2143.43 910.32 2147.68 909.22 2152.23 909.22C2155.75 909.22 2158.76 909.807 2161.25 910.98C2163.82 912.153 2166.02 913.657 2167.85 915.49L2163.34 921.1C2162.02 919.78 2160.44 918.753 2158.61 918.02C2156.85 917.213 2154.83 916.81 2152.56 916.81C2149.41 916.81 2146.55 917.69 2143.98 919.45C2141.49 921.137 2139.51 923.52 2138.04 926.6C2136.57 929.68 2135.84 933.273 2135.84 937.38C2135.84 941.413 2136.54 944.97 2137.93 948.05C2139.32 951.13 2141.27 953.55 2143.76 955.31C2146.25 956.997 2149.15 957.84 2152.45 957.84C2154.94 957.84 2157.25 957.363 2159.38 956.41C2161.51 955.457 2163.34 954.247 2164.88 952.78L2168.84 958.28C2166.57 960.407 2164 962.13 2161.14 963.45C2158.28 964.697 2155.13 965.32 2151.68 965.32ZM2199.15 965.32C2194.83 965.32 2190.76 964.22 2186.94 962.02C2183.2 959.82 2180.16 956.63 2177.81 952.45C2175.54 948.27 2174.4 943.247 2174.4 937.38C2174.4 931.367 2175.54 926.27 2177.81 922.09C2180.16 917.91 2183.2 914.72 2186.94 912.52C2190.76 910.32 2194.83 909.22 2199.15 909.22C2203.55 909.22 2207.62 910.32 2211.36 912.52C2215.1 914.72 2218.11 917.91 2220.38 922.09C2222.73 926.27 2223.9 931.367 2223.9 937.38C2223.9 943.247 2222.73 948.27 2220.38 952.45C2218.11 956.63 2215.1 959.82 2211.36 962.02C2207.62 964.22 2203.55 965.32 2199.15 965.32ZM2199.15 957.84C2202.23 957.84 2204.95 956.997 2207.29 955.31C2209.64 953.55 2211.44 951.13 2212.68 948.05C2213.93 944.97 2214.55 941.413 2214.55 937.38C2214.55 933.273 2213.93 929.68 2212.68 926.6C2211.44 923.447 2209.64 921.027 2207.29 919.34C2204.95 917.58 2202.23 916.7 2199.15 916.7C2196.07 916.7 2193.36 917.58 2191.01 919.34C2188.74 921.027 2186.94 923.447 2185.62 926.6C2184.38 929.68 2183.75 933.273 2183.75 937.38C2183.75 941.413 2184.38 944.97 2185.62 948.05C2186.94 951.13 2188.74 953.55 2191.01 955.31C2193.36 956.997 2196.07 957.84 2199.15 957.84ZM2237.98 964V910.54H2245.46L2246.23 918.24H2246.56C2248.91 915.747 2251.44 913.62 2254.15 911.86C2256.94 910.1 2259.94 909.22 2263.17 909.22C2267.28 909.22 2270.47 910.137 2272.74 911.97C2275.09 913.803 2276.81 916.297 2277.91 919.45C2280.7 916.37 2283.52 913.913 2286.38 912.08C2289.24 910.173 2292.28 909.22 2295.51 909.22C2301.08 909.22 2305.19 911.017 2307.83 914.61C2310.47 918.13 2311.79 923.3 2311.79 930.12V964H2302.77V931.33C2302.77 926.27 2301.96 922.64 2300.35 920.44C2298.74 918.167 2296.24 917.03 2292.87 917.03C2290.74 917.03 2288.58 917.727 2286.38 919.12C2284.25 920.44 2281.94 922.493 2279.45 925.28V964H2270.43V931.33C2270.43 926.27 2269.62 922.64 2268.01 920.44C2266.4 918.167 2263.87 917.03 2260.42 917.03C2256.39 917.03 2251.91 919.78 2247 925.28V964H2237.98ZM2362.75 964L2343.5 910.54H2352.85L2362.97 940.9C2363.78 943.467 2364.59 946.107 2365.39 948.82C2366.27 951.46 2367.12 954.063 2367.92 956.63H2368.36C2369.1 954.063 2369.9 951.46 2370.78 948.82C2371.66 946.107 2372.47 943.467 2373.2 940.9L2383.32 910.54H2392.23L2373.31 964H2362.75ZM2412.72 965.32C2409.79 965.32 2407.11 964.733 2404.69 963.56C2402.35 962.313 2400.48 960.59 2399.08 958.39C2397.69 956.117 2396.99 953.367 2396.99 950.14C2396.99 944.127 2399.63 939.58 2404.91 936.5C2410.19 933.42 2418.55 931.257 2429.99 930.01C2429.92 927.81 2429.55 925.683 2428.89 923.63C2428.31 921.577 2427.21 919.927 2425.59 918.68C2423.98 917.433 2421.74 916.81 2418.88 916.81C2415.8 916.81 2412.91 917.397 2410.19 918.57C2407.48 919.67 2405.06 920.917 2402.93 922.31L2399.41 916.15C2401.03 915.05 2402.93 913.987 2405.13 912.96C2407.33 911.86 2409.72 910.98 2412.28 910.32C2414.85 909.587 2417.56 909.22 2420.42 909.22C2424.75 909.22 2428.27 910.137 2430.98 911.97C2433.77 913.73 2435.79 916.26 2437.03 919.56C2438.35 922.86 2439.01 926.747 2439.01 931.22V964H2431.53L2430.76 957.62H2430.43C2427.87 959.747 2425.12 961.58 2422.18 963.12C2419.25 964.587 2416.1 965.32 2412.72 965.32ZM2415.25 957.84C2417.89 957.84 2420.35 957.253 2422.62 956.08C2424.97 954.907 2427.43 953.183 2429.99 950.91V936.5C2423.98 937.233 2419.21 938.187 2415.69 939.36C2412.25 940.46 2409.75 941.853 2408.21 943.54C2406.67 945.227 2405.9 947.243 2405.9 949.59C2405.9 952.523 2406.82 954.65 2408.65 955.97C2410.49 957.217 2412.69 957.84 2415.25 957.84ZM2465.4 964.99C2463.13 964.99 2461.3 964.55 2459.9 963.67C2458.51 962.717 2457.48 961.36 2456.82 959.6C2456.16 957.767 2455.83 955.567 2455.83 953V885.68H2464.85V953.66C2464.85 955.127 2465.11 956.153 2465.62 956.74C2466.14 957.253 2466.76 957.51 2467.49 957.51C2467.79 957.51 2468.04 957.51 2468.26 957.51C2468.56 957.437 2468.92 957.363 2469.36 957.29L2470.68 964.11C2470.02 964.33 2469.25 964.513 2468.37 964.66C2467.57 964.88 2466.58 964.99 2465.4 964.99ZM2504.66 965.32C2500.33 965.32 2496.26 964.22 2492.45 962.02C2488.71 959.82 2485.67 956.63 2483.32 952.45C2481.05 948.27 2479.91 943.247 2479.91 937.38C2479.91 931.367 2481.05 926.27 2483.32 922.09C2485.67 917.91 2488.71 914.72 2492.45 912.52C2496.26 910.32 2500.33 909.22 2504.66 909.22C2509.06 909.22 2513.13 910.32 2516.87 912.52C2520.61 914.72 2523.62 917.91 2525.89 922.09C2528.24 926.27 2529.41 931.367 2529.41 937.38C2529.41 943.247 2528.24 948.27 2525.89 952.45C2523.62 956.63 2520.61 959.82 2516.87 962.02C2513.13 964.22 2509.06 965.32 2504.66 965.32ZM2504.66 957.84C2507.74 957.84 2510.45 956.997 2512.8 955.31C2515.15 953.55 2516.94 951.13 2518.19 948.05C2519.44 944.97 2520.06 941.413 2520.06 937.38C2520.06 933.273 2519.44 929.68 2518.19 926.6C2516.94 923.447 2515.15 921.027 2512.8 919.34C2510.45 917.58 2507.74 916.7 2504.66 916.7C2501.58 916.7 2498.87 917.58 2496.52 919.34C2494.25 921.027 2492.45 923.447 2491.13 926.6C2489.88 929.68 2489.26 933.273 2489.26 937.38C2489.26 941.413 2489.88 944.97 2491.13 948.05C2492.45 951.13 2494.25 953.55 2496.52 955.31C2498.87 956.997 2501.58 957.84 2504.66 957.84ZM2543.49 964V910.54H2550.97L2551.74 920.22H2552.07C2553.83 916.847 2556.03 914.17 2558.67 912.19C2561.31 910.21 2564.17 909.22 2567.25 909.22C2568.42 909.22 2569.45 909.293 2570.33 909.44C2571.21 909.587 2572.09 909.88 2572.97 910.32L2570.99 918.02C2570.18 917.8 2569.41 917.653 2568.68 917.58C2568.02 917.433 2567.14 917.36 2566.04 917.36C2563.77 917.36 2561.38 918.277 2558.89 920.11C2556.47 921.943 2554.34 925.133 2552.51 929.68V964H2543.49ZM2602.22 965.32C2597.45 965.32 2593.09 964.22 2589.13 962.02C2585.24 959.747 2582.16 956.557 2579.89 952.45C2577.62 948.27 2576.48 943.21 2576.48 937.27C2576.48 931.477 2577.65 926.49 2580 922.31C2582.35 918.13 2585.35 914.903 2589.02 912.63C2592.69 910.357 2596.57 909.22 2600.68 909.22C2605.23 909.22 2609.08 910.283 2612.23 912.41C2615.46 914.463 2617.88 917.36 2619.49 921.1C2621.1 924.84 2621.91 929.24 2621.91 934.3C2621.91 935.253 2621.87 936.17 2621.8 937.05C2621.8 937.93 2621.69 938.81 2621.47 939.69H2582.97V932.54H2613.77C2613.77 927.407 2612.63 923.483 2610.36 920.77C2608.16 917.983 2604.97 916.59 2600.79 916.59C2598.37 916.59 2595.99 917.287 2593.64 918.68C2591.29 920 2589.35 922.163 2587.81 925.17C2586.34 928.177 2585.61 932.173 2585.61 937.16C2585.61 941.707 2586.38 945.52 2587.92 948.6C2589.53 951.68 2591.7 954.027 2594.41 955.64C2597.12 957.18 2600.09 957.95 2603.32 957.95C2605.89 957.95 2608.27 957.583 2610.47 956.85C2612.74 956.117 2614.8 955.127 2616.63 953.88L2619.93 959.82C2617.58 961.433 2614.94 962.753 2612.01 963.78C2609.15 964.807 2605.89 965.32 2602.22 965.32ZM2649.09 965.32C2645.2 965.32 2641.5 964.66 2637.98 963.34C2634.53 961.947 2631.6 960.04 2629.18 957.62L2633.36 952.34C2635.71 954.247 2638.13 955.713 2640.62 956.74C2643.19 957.767 2646.12 958.28 2649.42 958.28C2652.94 958.28 2655.58 957.473 2657.34 955.86C2659.1 954.173 2659.98 952.193 2659.98 949.92C2659.98 948.087 2659.36 946.583 2658.11 945.41C2656.94 944.163 2655.43 943.137 2653.6 942.33C2651.84 941.45 2649.93 940.643 2647.88 939.91C2645.24 938.957 2642.71 937.857 2640.29 936.61C2637.87 935.29 2635.89 933.677 2634.35 931.77C2632.88 929.79 2632.15 927.333 2632.15 924.4C2632.15 920.073 2633.76 916.48 2636.99 913.62C2640.29 910.687 2644.84 909.22 2650.63 909.22C2653.93 909.22 2657.01 909.807 2659.87 910.98C2662.73 912.08 2665.19 913.51 2667.24 915.27L2663.06 920.44C2661.15 919.12 2659.21 918.093 2657.23 917.36C2655.25 916.627 2653.05 916.26 2650.63 916.26C2647.26 916.26 2644.76 917.03 2643.15 918.57C2641.61 920.11 2640.84 921.907 2640.84 923.96C2640.84 925.573 2641.32 926.93 2642.27 928.03C2643.22 929.057 2644.54 929.973 2646.23 930.78C2647.99 931.587 2649.97 932.357 2652.17 933.09C2654.96 934.117 2657.6 935.29 2660.09 936.61C2662.66 937.857 2664.71 939.507 2666.25 941.56C2667.86 943.54 2668.67 946.143 2668.67 949.37C2668.67 952.303 2667.9 954.98 2666.36 957.4C2664.89 959.747 2662.69 961.653 2659.76 963.12C2656.9 964.587 2653.34 965.32 2649.09 965.32ZM2721.49 965.32C2714.74 965.32 2709.35 962.9 2705.32 958.06C2701.36 953.147 2699.38 946.253 2699.38 937.38C2699.38 931.587 2700.44 926.6 2702.57 922.42C2704.77 918.167 2707.63 914.903 2711.15 912.63C2714.67 910.357 2718.48 909.22 2722.59 909.22C2725.74 909.22 2728.42 909.77 2730.62 910.87C2732.89 911.897 2735.2 913.4 2737.55 915.38L2737.11 906.25V885.68H2746.24V964H2738.76L2737.99 957.73H2737.66C2735.6 959.783 2733.18 961.58 2730.4 963.12C2727.61 964.587 2724.64 965.32 2721.49 965.32ZM2723.47 957.73C2725.96 957.73 2728.31 957.107 2730.51 955.86C2732.71 954.613 2734.91 952.78 2737.11 950.36V922.42C2734.91 920.367 2732.74 918.937 2730.62 918.13C2728.49 917.25 2726.33 916.81 2724.13 916.81C2721.27 916.81 2718.66 917.69 2716.32 919.45C2714.04 921.137 2712.21 923.52 2710.82 926.6C2709.42 929.607 2708.73 933.163 2708.73 937.27C2708.73 943.65 2710.01 948.673 2712.58 952.34C2715.14 955.933 2718.77 957.73 2723.47 957.73ZM2764.24 964V910.54H2773.26V964H2764.24ZM2768.75 899.54C2766.99 899.54 2765.52 898.99 2764.35 897.89C2763.25 896.79 2762.7 895.36 2762.7 893.6C2762.7 891.84 2763.25 890.41 2764.35 889.31C2765.52 888.21 2766.99 887.66 2768.75 887.66C2770.51 887.66 2771.94 888.21 2773.04 889.31C2774.21 890.41 2774.8 891.84 2774.8 893.6C2774.8 895.36 2774.21 896.79 2773.04 897.89C2771.94 898.99 2770.51 899.54 2768.75 899.54ZM2792.85 964V902.07C2792.85 898.477 2793.4 895.36 2794.5 892.72C2795.6 890.007 2797.29 887.953 2799.56 886.56C2801.91 885.093 2804.88 884.36 2808.47 884.36C2810.08 884.36 2811.66 884.543 2813.2 884.91C2814.81 885.203 2816.21 885.607 2817.38 886.12L2815.4 892.72C2813.27 892.06 2811.26 891.73 2809.35 891.73C2806.86 891.73 2804.99 892.61 2803.74 894.37C2802.49 896.057 2801.87 898.623 2801.87 902.07V964H2792.85ZM2784.93 917.91V911.09L2793.29 910.54H2813.2V917.91H2784.93ZM2844.03 965.32C2839.26 965.32 2834.9 964.22 2830.94 962.02C2827.05 959.747 2823.97 956.557 2821.7 952.45C2819.42 948.27 2818.29 943.21 2818.29 937.27C2818.29 931.477 2819.46 926.49 2821.81 922.31C2824.15 918.13 2827.16 914.903 2830.83 912.63C2834.49 910.357 2838.38 909.22 2842.49 909.22C2847.03 909.22 2850.88 910.283 2854.04 912.41C2857.26 914.463 2859.68 917.36 2861.3 921.1C2862.91 924.84 2863.72 929.24 2863.72 934.3C2863.72 935.253 2863.68 936.17 2863.61 937.05C2863.61 937.93 2863.5 938.81 2863.28 939.69H2824.78V932.54H2855.58C2855.58 927.407 2854.44 923.483 2852.17 920.77C2849.97 917.983 2846.78 916.59 2842.6 916.59C2840.18 916.59 2837.79 917.287 2835.45 918.68C2833.1 920 2831.16 922.163 2829.62 925.17C2828.15 928.177 2827.42 932.173 2827.42 937.16C2827.42 941.707 2828.19 945.52 2829.73 948.6C2831.34 951.68 2833.5 954.027 2836.22 955.64C2838.93 957.18 2841.9 957.95 2845.13 957.95C2847.69 957.95 2850.08 957.583 2852.28 956.85C2854.55 956.117 2856.6 955.127 2858.44 953.88L2861.74 959.82C2859.39 961.433 2856.75 962.753 2853.82 963.78C2850.96 964.807 2847.69 965.32 2844.03 965.32ZM2876.93 964V910.54H2884.41L2885.18 920.22H2885.51C2887.27 916.847 2889.47 914.17 2892.11 912.19C2894.75 910.21 2897.61 909.22 2900.69 909.22C2901.86 909.22 2902.89 909.293 2903.77 909.44C2904.65 909.587 2905.53 909.88 2906.41 910.32L2904.43 918.02C2903.62 917.8 2902.85 917.653 2902.12 917.58C2901.46 917.433 2900.58 917.36 2899.48 917.36C2897.2 917.36 2894.82 918.277 2892.33 920.11C2889.91 921.943 2887.78 925.133 2885.95 929.68V964H2876.93ZM2935.66 965.32C2930.89 965.32 2926.53 964.22 2922.57 962.02C2918.68 959.747 2915.6 956.557 2913.33 952.45C2911.05 948.27 2909.92 943.21 2909.92 937.27C2909.92 931.477 2911.09 926.49 2913.44 922.31C2915.78 918.13 2918.79 914.903 2922.46 912.63C2926.12 910.357 2930.01 909.22 2934.12 909.22C2938.66 909.22 2942.51 910.283 2945.67 912.41C2948.89 914.463 2951.31 917.36 2952.93 921.1C2954.54 924.84 2955.35 929.24 2955.35 934.3C2955.35 935.253 2955.31 936.17 2955.24 937.05C2955.24 937.93 2955.13 938.81 2954.91 939.69H2916.41V932.54H2947.21C2947.21 927.407 2946.07 923.483 2943.8 920.77C2941.6 917.983 2938.41 916.59 2934.23 916.59C2931.81 916.59 2929.42 917.287 2927.08 918.68C2924.73 920 2922.79 922.163 2921.25 925.17C2919.78 928.177 2919.05 932.173 2919.05 937.16C2919.05 941.707 2919.82 945.52 2921.36 948.6C2922.97 951.68 2925.13 954.027 2927.85 955.64C2930.56 957.18 2933.53 957.95 2936.76 957.95C2939.32 957.95 2941.71 957.583 2943.91 956.85C2946.18 956.117 2948.23 955.127 2950.07 953.88L2953.37 959.82C2951.02 961.433 2948.38 962.753 2945.45 963.78C2942.59 964.807 2939.32 965.32 2935.66 965.32ZM2968.56 964V910.54H2976.04L2976.81 918.24H2977.14C2979.7 915.673 2982.42 913.547 2985.28 911.86C2988.14 910.1 2991.4 909.22 2995.07 909.22C3000.71 909.22 3004.82 911.017 3007.39 914.61C3010.03 918.13 3011.35 923.3 3011.35 930.12V964H3002.33V931.33C3002.33 926.27 3001.52 922.64 2999.91 920.44C2998.37 918.167 2995.8 917.03 2992.21 917.03C2989.49 917.03 2987.04 917.727 2984.84 919.12C2982.71 920.513 2980.29 922.567 2977.58 925.28V964H2968.56ZM3045.54 964.99C3039.9 964.99 3035.94 963.34 3033.66 960.04C3031.39 956.74 3030.25 952.45 3030.25 947.17V917.91H3022.33V911.09L3030.69 910.54L3031.79 893.38H3039.38V910.54H3053.9V917.91H3039.38V947.28C3039.38 950.507 3039.97 953.037 3041.14 954.87C3042.39 956.703 3044.55 957.62 3047.63 957.62C3048.59 957.62 3049.58 957.547 3050.6 957.4C3051.63 957.18 3052.66 956.813 3053.68 956.3L3055.66 962.68C3054.27 963.34 3052.69 963.89 3050.93 964.33C3049.17 964.77 3047.38 964.99 3045.54 964.99ZM3086.05 965.32C3081.28 965.32 3076.92 964.22 3072.96 962.02C3069.07 959.747 3065.99 956.557 3063.72 952.45C3061.44 948.27 3060.31 943.21 3060.31 937.27C3060.31 931.477 3061.48 926.49 3063.83 922.31C3066.17 918.13 3069.18 914.903 3072.85 912.63C3076.51 910.357 3080.4 909.22 3084.51 909.22C3089.05 909.22 3092.9 910.283 3096.06 912.41C3099.28 914.463 3101.7 917.36 3103.32 921.1C3104.93 924.84 3105.74 929.24 3105.74 934.3C3105.74 935.253 3105.7 936.17 3105.63 937.05C3105.63 937.93 3105.52 938.81 3105.3 939.69H3066.8V932.54H3097.6C3097.6 927.407 3096.46 923.483 3094.19 920.77C3091.99 917.983 3088.8 916.59 3084.62 916.59C3082.2 916.59 3079.81 917.287 3077.47 918.68C3075.12 920 3073.18 922.163 3071.64 925.17C3070.17 928.177 3069.44 932.173 3069.44 937.16C3069.44 941.707 3070.21 945.52 3071.75 948.6C3073.36 951.68 3075.52 954.027 3078.24 955.64C3080.95 957.18 3083.92 957.95 3087.15 957.95C3089.71 957.95 3092.1 957.583 3094.3 956.85C3096.57 956.117 3098.62 955.127 3100.46 953.88L3103.76 959.82C3101.41 961.433 3098.77 962.753 3095.84 963.78C3092.98 964.807 3089.71 965.32 3086.05 965.32ZM3132.92 965.32C3129.03 965.32 3125.33 964.66 3121.81 963.34C3118.36 961.947 3115.43 960.04 3113.01 957.62L3117.19 952.34C3119.53 954.247 3121.95 955.713 3124.45 956.74C3127.01 957.767 3129.95 958.28 3133.25 958.28C3136.77 958.28 3139.41 957.473 3141.17 955.86C3142.93 954.173 3143.81 952.193 3143.81 949.92C3143.81 948.087 3143.18 946.583 3141.94 945.41C3140.76 944.163 3139.26 943.137 3137.43 942.33C3135.67 941.45 3133.76 940.643 3131.71 939.91C3129.07 938.957 3126.54 937.857 3124.12 936.61C3121.7 935.29 3119.72 933.677 3118.18 931.77C3116.71 929.79 3115.98 927.333 3115.98 924.4C3115.98 920.073 3117.59 916.48 3120.82 913.62C3124.12 910.687 3128.66 909.22 3134.46 909.22C3137.76 909.22 3140.84 909.807 3143.7 910.98C3146.56 912.08 3149.01 913.51 3151.07 915.27L3146.89 920.44C3144.98 919.12 3143.04 918.093 3141.06 917.36C3139.08 916.627 3136.88 916.26 3134.46 916.26C3131.08 916.26 3128.59 917.03 3126.98 918.57C3125.44 920.11 3124.67 921.907 3124.67 923.96C3124.67 925.573 3125.14 926.93 3126.1 928.03C3127.05 929.057 3128.37 929.973 3130.06 930.78C3131.82 931.587 3133.8 932.357 3136 933.09C3138.78 934.117 3141.42 935.29 3143.92 936.61C3146.48 937.857 3148.54 939.507 3150.08 941.56C3151.69 943.54 3152.5 946.143 3152.5 949.37C3152.5 952.303 3151.73 954.98 3150.19 957.4C3148.72 959.747 3146.52 961.653 3143.59 963.12C3140.73 964.587 3137.17 965.32 3132.92 965.32ZM3208.28 965.32C3203.52 965.32 3199.23 964.22 3195.41 962.02C3191.6 959.82 3188.59 956.63 3186.39 952.45C3184.19 948.27 3183.09 943.247 3183.09 937.38C3183.09 931.367 3184.27 926.27 3186.61 922.09C3189.03 917.91 3192.19 914.72 3196.07 912.52C3200.03 910.32 3204.29 909.22 3208.83 909.22C3212.35 909.22 3215.36 909.807 3217.85 910.98C3220.42 912.153 3222.62 913.657 3224.45 915.49L3219.94 921.1C3218.62 919.78 3217.05 918.753 3215.21 918.02C3213.45 917.213 3211.44 916.81 3209.16 916.81C3206.01 916.81 3203.15 917.69 3200.58 919.45C3198.09 921.137 3196.11 923.52 3194.64 926.6C3193.18 929.68 3192.44 933.273 3192.44 937.38C3192.44 941.413 3193.14 944.97 3194.53 948.05C3195.93 951.13 3197.87 953.55 3200.36 955.31C3202.86 956.997 3205.75 957.84 3209.05 957.84C3211.55 957.84 3213.86 957.363 3215.98 956.41C3218.11 955.457 3219.94 954.247 3221.48 952.78L3225.44 958.28C3223.17 960.407 3220.6 962.13 3217.74 963.45C3214.88 964.697 3211.73 965.32 3208.28 965.32ZM3248.47 965.32C3245.53 965.32 3242.86 964.733 3240.44 963.56C3238.09 962.313 3236.22 960.59 3234.83 958.39C3233.43 956.117 3232.74 953.367 3232.74 950.14C3232.74 944.127 3235.38 939.58 3240.66 936.5C3245.94 933.42 3254.3 931.257 3265.74 930.01C3265.66 927.81 3265.3 925.683 3264.64 923.63C3264.05 921.577 3262.95 919.927 3261.34 918.68C3259.72 917.433 3257.49 916.81 3254.62 916.81C3251.55 916.81 3248.65 917.397 3245.94 918.57C3243.22 919.67 3240.8 920.917 3238.68 922.31L3235.16 916.15C3236.77 915.05 3238.68 913.987 3240.88 912.96C3243.08 911.86 3245.46 910.98 3248.03 910.32C3250.59 909.587 3253.31 909.22 3256.16 909.22C3260.49 909.22 3264.01 910.137 3266.73 911.97C3269.51 913.73 3271.53 916.26 3272.78 919.56C3274.1 922.86 3274.76 926.747 3274.76 931.22V964H3267.28L3266.51 957.62H3266.18C3263.61 959.747 3260.86 961.58 3257.93 963.12C3254.99 964.587 3251.84 965.32 3248.47 965.32ZM3251 957.84C3253.64 957.84 3256.09 957.253 3258.37 956.08C3260.71 954.907 3263.17 953.183 3265.74 950.91V936.5C3259.72 937.233 3254.96 938.187 3251.44 939.36C3247.99 940.46 3245.5 941.853 3243.96 943.54C3242.42 945.227 3241.64 947.243 3241.64 949.59C3241.64 952.523 3242.56 954.65 3244.4 955.97C3246.23 957.217 3248.43 957.84 3251 957.84ZM3309.83 965.32C3303.09 965.32 3297.7 962.9 3293.66 958.06C3289.7 953.147 3287.72 946.253 3287.72 937.38C3287.72 931.587 3288.79 926.6 3290.91 922.42C3293.11 918.167 3295.97 914.903 3299.49 912.63C3303.01 910.357 3306.83 909.22 3310.93 909.22C3314.09 909.22 3316.76 909.77 3318.96 910.87C3321.24 911.897 3323.55 913.4 3325.89 915.38L3325.45 906.25V885.68H3334.58V964H3327.1L3326.33 957.73H3326C3323.95 959.783 3321.53 961.58 3318.74 963.12C3315.96 964.587 3312.99 965.32 3309.83 965.32ZM3311.81 957.73C3314.31 957.73 3316.65 957.107 3318.85 955.86C3321.05 954.613 3323.25 952.78 3325.45 950.36V922.42C3323.25 920.367 3321.09 918.937 3318.96 918.13C3316.84 917.25 3314.67 916.81 3312.47 916.81C3309.61 916.81 3307.01 917.69 3304.66 919.45C3302.39 921.137 3300.56 923.52 3299.16 926.6C3297.77 929.607 3297.07 933.163 3297.07 937.27C3297.07 943.65 3298.36 948.673 3300.92 952.34C3303.49 955.933 3307.12 957.73 3311.81 957.73ZM3364.91 965.32C3361.98 965.32 3359.3 964.733 3356.88 963.56C3354.53 962.313 3352.66 960.59 3351.27 958.39C3349.88 956.117 3349.18 953.367 3349.18 950.14C3349.18 944.127 3351.82 939.58 3357.1 936.5C3362.38 933.42 3370.74 931.257 3382.18 930.01C3382.11 927.81 3381.74 925.683 3381.08 923.63C3380.49 921.577 3379.39 919.927 3377.78 918.68C3376.17 917.433 3373.93 916.81 3371.07 916.81C3367.99 916.81 3365.09 917.397 3362.38 918.57C3359.67 919.67 3357.25 920.917 3355.12 922.31L3351.6 916.15C3353.21 915.05 3355.12 913.987 3357.32 912.96C3359.52 911.86 3361.9 910.98 3364.47 910.32C3367.04 909.587 3369.75 909.22 3372.61 909.22C3376.94 909.22 3380.46 910.137 3383.17 911.97C3385.96 913.73 3387.97 916.26 3389.22 919.56C3390.54 922.86 3391.2 926.747 3391.2 931.22V964H3383.72L3382.95 957.62H3382.62C3380.05 959.747 3377.3 961.58 3374.37 963.12C3371.44 964.587 3368.28 965.32 3364.91 965.32ZM3367.44 957.84C3370.08 957.84 3372.54 957.253 3374.81 956.08C3377.16 954.907 3379.61 953.183 3382.18 950.91V936.5C3376.17 937.233 3371.4 938.187 3367.88 939.36C3364.43 940.46 3361.94 941.853 3360.4 943.54C3358.86 945.227 3358.09 947.243 3358.09 949.59C3358.09 952.523 3359.01 954.65 3360.84 955.97C3362.67 957.217 3364.87 957.84 3367.44 957.84ZM2538.28 1084L2519.03 1030.54H2528.38L2538.5 1060.9C2539.31 1063.47 2540.11 1066.11 2540.92 1068.82C2541.8 1071.46 2542.64 1074.06 2543.45 1076.63H2543.89C2544.62 1074.06 2545.43 1071.46 2546.31 1068.82C2547.19 1066.11 2548 1063.47 2548.73 1060.9L2558.85 1030.54H2567.76L2548.84 1084H2538.28ZM2599.32 1085.32C2594.55 1085.32 2590.19 1084.22 2586.23 1082.02C2582.34 1079.75 2579.26 1076.56 2576.99 1072.45C2574.72 1068.27 2573.58 1063.21 2573.58 1057.27C2573.58 1051.48 2574.75 1046.49 2577.1 1042.31C2579.45 1038.13 2582.45 1034.9 2586.12 1032.63C2589.79 1030.36 2593.67 1029.22 2597.78 1029.22C2602.33 1029.22 2606.18 1030.28 2609.33 1032.41C2612.56 1034.46 2614.98 1037.36 2616.59 1041.1C2618.2 1044.84 2619.01 1049.24 2619.01 1054.3C2619.01 1055.25 2618.97 1056.17 2618.9 1057.05C2618.9 1057.93 2618.79 1058.81 2618.57 1059.69H2580.07V1052.54H2610.87C2610.87 1047.41 2609.73 1043.48 2607.46 1040.77C2605.26 1037.98 2602.07 1036.59 2597.89 1036.59C2595.47 1036.59 2593.09 1037.29 2590.74 1038.68C2588.39 1040 2586.45 1042.16 2584.91 1045.17C2583.44 1048.18 2582.71 1052.17 2582.71 1057.16C2582.71 1061.71 2583.48 1065.52 2585.02 1068.6C2586.63 1071.68 2588.8 1074.03 2591.51 1075.64C2594.22 1077.18 2597.19 1077.95 2600.42 1077.95C2602.99 1077.95 2605.37 1077.58 2607.57 1076.85C2609.84 1076.12 2611.9 1075.13 2613.73 1073.88L2617.03 1079.82C2614.68 1081.43 2612.04 1082.75 2609.11 1083.78C2606.25 1084.81 2602.99 1085.32 2599.32 1085.32ZM2626.61 1084V1079.16L2654.77 1037.91H2629.69V1030.54H2666.21V1035.38L2638.05 1076.63H2667.09V1084H2626.61ZM2734.85 1106.55V1087.52L2735.29 1077.84C2733.16 1079.89 2730.71 1081.65 2727.92 1083.12C2725.21 1084.59 2722.31 1085.32 2719.23 1085.32C2712.48 1085.32 2707.09 1082.9 2703.06 1078.06C2699.1 1073.15 2697.12 1066.25 2697.12 1057.38C2697.12 1051.59 2698.18 1046.6 2700.31 1042.42C2702.51 1038.17 2705.37 1034.9 2708.89 1032.63C2712.41 1030.36 2716.22 1029.22 2720.33 1029.22C2723.41 1029.22 2726.12 1029.77 2728.47 1030.87C2730.89 1031.97 2733.27 1033.55 2735.62 1035.6H2735.84L2736.72 1030.54H2743.98V1106.55H2734.85ZM2721.21 1077.73C2723.7 1077.73 2726.05 1077.11 2728.25 1075.86C2730.45 1074.61 2732.65 1072.78 2734.85 1070.36V1042.42C2732.65 1040.37 2730.49 1038.94 2728.36 1038.13C2726.23 1037.25 2724.07 1036.81 2721.87 1036.81C2719.01 1036.81 2716.41 1037.69 2714.06 1039.45C2711.79 1041.14 2709.95 1043.52 2708.56 1046.6C2707.17 1049.61 2706.47 1053.16 2706.47 1057.27C2706.47 1063.65 2707.75 1068.67 2710.32 1072.34C2712.89 1075.93 2716.52 1077.73 2721.21 1077.73ZM2777.6 1085.32C2771.96 1085.32 2767.81 1083.56 2765.17 1080.04C2762.61 1076.45 2761.32 1071.24 2761.32 1064.42V1030.54H2770.34V1063.21C2770.34 1068.2 2771.11 1071.83 2772.65 1074.1C2774.27 1076.3 2776.83 1077.4 2780.35 1077.4C2783.07 1077.4 2785.49 1076.7 2787.61 1075.31C2789.81 1073.84 2792.2 1071.57 2794.76 1068.49V1030.54H2803.78V1084H2796.3L2795.53 1075.64H2795.2C2792.78 1078.57 2790.14 1080.92 2787.28 1082.68C2784.5 1084.44 2781.27 1085.32 2777.6 1085.32ZM2843.49 1085.32C2838.72 1085.32 2834.36 1084.22 2830.4 1082.02C2826.51 1079.75 2823.43 1076.56 2821.16 1072.45C2818.89 1068.27 2817.75 1063.21 2817.75 1057.27C2817.75 1051.48 2818.92 1046.49 2821.27 1042.31C2823.62 1038.13 2826.62 1034.9 2830.29 1032.63C2833.96 1030.36 2837.84 1029.22 2841.95 1029.22C2846.5 1029.22 2850.35 1030.28 2853.5 1032.41C2856.73 1034.46 2859.15 1037.36 2860.76 1041.1C2862.37 1044.84 2863.18 1049.24 2863.18 1054.3C2863.18 1055.25 2863.14 1056.17 2863.07 1057.05C2863.07 1057.93 2862.96 1058.81 2862.74 1059.69H2824.24V1052.54H2855.04C2855.04 1047.41 2853.9 1043.48 2851.63 1040.77C2849.43 1037.98 2846.24 1036.59 2842.06 1036.59C2839.64 1036.59 2837.26 1037.29 2834.91 1038.68C2832.56 1040 2830.62 1042.16 2829.08 1045.17C2827.61 1048.18 2826.88 1052.17 2826.88 1057.16C2826.88 1061.71 2827.65 1065.52 2829.19 1068.6C2830.8 1071.68 2832.97 1074.03 2835.68 1075.64C2838.39 1077.18 2841.36 1077.95 2844.59 1077.95C2847.16 1077.95 2849.54 1077.58 2851.74 1076.85C2854.01 1076.12 2856.07 1075.13 2857.9 1073.88L2861.2 1079.82C2858.85 1081.43 2856.21 1082.75 2853.28 1083.78C2850.42 1084.81 2847.16 1085.32 2843.49 1085.32ZM2920.08 1085.32C2915.31 1085.32 2910.95 1084.22 2906.99 1082.02C2903.1 1079.75 2900.02 1076.56 2897.75 1072.45C2895.48 1068.27 2894.34 1063.21 2894.34 1057.27C2894.34 1051.48 2895.51 1046.49 2897.86 1042.31C2900.21 1038.13 2903.21 1034.9 2906.88 1032.63C2910.55 1030.36 2914.43 1029.22 2918.54 1029.22C2923.09 1029.22 2926.94 1030.28 2930.09 1032.41C2933.32 1034.46 2935.74 1037.36 2937.35 1041.1C2938.96 1044.84 2939.77 1049.24 2939.77 1054.3C2939.77 1055.25 2939.73 1056.17 2939.66 1057.05C2939.66 1057.93 2939.55 1058.81 2939.33 1059.69H2900.83V1052.54H2931.63C2931.63 1047.41 2930.49 1043.48 2928.22 1040.77C2926.02 1037.98 2922.83 1036.59 2918.65 1036.59C2916.23 1036.59 2913.85 1037.29 2911.5 1038.68C2909.15 1040 2907.21 1042.16 2905.67 1045.17C2904.2 1048.18 2903.47 1052.17 2903.47 1057.16C2903.47 1061.71 2904.24 1065.52 2905.78 1068.6C2907.39 1071.68 2909.56 1074.03 2912.27 1075.64C2914.98 1077.18 2917.95 1077.95 2921.18 1077.95C2923.75 1077.95 2926.13 1077.58 2928.33 1076.85C2930.6 1076.12 2932.66 1075.13 2934.49 1073.88L2937.79 1079.82C2935.44 1081.43 2932.8 1082.75 2929.87 1083.78C2927.01 1084.81 2923.75 1085.32 2920.08 1085.32ZM2962.55 1084.99C2960.28 1084.99 2958.44 1084.55 2957.05 1083.67C2955.66 1082.72 2954.63 1081.36 2953.97 1079.6C2953.31 1077.77 2952.98 1075.57 2952.98 1073V1005.68H2962V1073.66C2962 1075.13 2962.26 1076.15 2962.77 1076.74C2963.28 1077.25 2963.91 1077.51 2964.64 1077.51C2964.93 1077.51 2965.19 1077.51 2965.41 1077.51C2965.7 1077.44 2966.07 1077.36 2966.51 1077.29L2967.83 1084.11C2967.17 1084.33 2966.4 1084.51 2965.52 1084.66C2964.71 1084.88 2963.72 1084.99 2962.55 1084.99ZM3002.69 1085.32C2997.92 1085.32 2993.56 1084.22 2989.6 1082.02C2985.71 1079.75 2982.63 1076.56 2980.36 1072.45C2978.08 1068.27 2976.95 1063.21 2976.95 1057.27C2976.95 1051.48 2978.12 1046.49 2980.47 1042.31C2982.81 1038.13 2985.82 1034.9 2989.49 1032.63C2993.15 1030.36 2997.04 1029.22 3001.15 1029.22C3005.69 1029.22 3009.54 1030.28 3012.7 1032.41C3015.92 1034.46 3018.34 1037.36 3019.96 1041.1C3021.57 1044.84 3022.38 1049.24 3022.38 1054.3C3022.38 1055.25 3022.34 1056.17 3022.27 1057.05C3022.27 1057.93 3022.16 1058.81 3021.94 1059.69H2983.44V1052.54H3014.24C3014.24 1047.41 3013.1 1043.48 3010.83 1040.77C3008.63 1037.98 3005.44 1036.59 3001.26 1036.59C2998.84 1036.59 2996.45 1037.29 2994.11 1038.68C2991.76 1040 2989.82 1042.16 2988.28 1045.17C2986.81 1048.18 2986.08 1052.17 2986.08 1057.16C2986.08 1061.71 2986.85 1065.52 2988.39 1068.6C2990 1071.68 2992.16 1074.03 2994.88 1075.64C2997.59 1077.18 3000.56 1077.95 3003.79 1077.95C3006.35 1077.95 3008.74 1077.58 3010.94 1076.85C3013.21 1076.12 3015.26 1075.13 3017.1 1073.88L3020.4 1079.82C3018.05 1081.43 3015.41 1082.75 3012.48 1083.78C3009.62 1084.81 3006.35 1085.32 3002.69 1085.32ZM3049.56 1085.32C3045.67 1085.32 3041.97 1084.66 3038.45 1083.34C3035 1081.95 3032.07 1080.04 3029.65 1077.62L3033.83 1072.34C3036.18 1074.25 3038.6 1075.71 3041.09 1076.74C3043.66 1077.77 3046.59 1078.28 3049.89 1078.28C3053.41 1078.28 3056.05 1077.47 3057.81 1075.86C3059.57 1074.17 3060.45 1072.19 3060.45 1069.92C3060.45 1068.09 3059.83 1066.58 3058.58 1065.41C3057.41 1064.16 3055.9 1063.14 3054.07 1062.33C3052.31 1061.45 3050.4 1060.64 3048.35 1059.91C3045.71 1058.96 3043.18 1057.86 3040.76 1056.61C3038.34 1055.29 3036.36 1053.68 3034.82 1051.77C3033.35 1049.79 3032.62 1047.33 3032.62 1044.4C3032.62 1040.07 3034.23 1036.48 3037.46 1033.62C3040.76 1030.69 3045.31 1029.22 3051.1 1029.22C3054.4 1029.22 3057.48 1029.81 3060.34 1030.98C3063.2 1032.08 3065.66 1033.51 3067.71 1035.27L3063.53 1040.44C3061.62 1039.12 3059.68 1038.09 3057.7 1037.36C3055.72 1036.63 3053.52 1036.26 3051.1 1036.26C3047.73 1036.26 3045.23 1037.03 3043.62 1038.57C3042.08 1040.11 3041.31 1041.91 3041.31 1043.96C3041.31 1045.57 3041.79 1046.93 3042.74 1048.03C3043.69 1049.06 3045.01 1049.97 3046.7 1050.78C3048.46 1051.59 3050.44 1052.36 3052.64 1053.09C3055.43 1054.12 3058.07 1055.29 3060.56 1056.61C3063.13 1057.86 3065.18 1059.51 3066.72 1061.56C3068.33 1063.54 3069.14 1066.14 3069.14 1069.37C3069.14 1072.3 3068.37 1074.98 3066.83 1077.4C3065.36 1079.75 3063.16 1081.65 3060.23 1083.12C3057.37 1084.59 3053.81 1085.32 3049.56 1085.32ZM3103.69 1084V1030.54H3111.17L3111.94 1040.22H3112.27C3114.03 1036.85 3116.23 1034.17 3118.87 1032.19C3121.51 1030.21 3124.37 1029.22 3127.45 1029.22C3128.63 1029.22 3129.65 1029.29 3130.53 1029.44C3131.41 1029.59 3132.29 1029.88 3133.17 1030.32L3131.19 1038.02C3130.39 1037.8 3129.62 1037.65 3128.88 1037.58C3128.22 1037.43 3127.34 1037.36 3126.24 1037.36C3123.97 1037.36 3121.59 1038.28 3119.09 1040.11C3116.67 1041.94 3114.55 1045.13 3112.71 1049.68V1084H3103.69ZM3161.54 1085.32C3157.22 1085.32 3153.15 1084.22 3149.33 1082.02C3145.59 1079.82 3142.55 1076.63 3140.2 1072.45C3137.93 1068.27 3136.79 1063.25 3136.79 1057.38C3136.79 1051.37 3137.93 1046.27 3140.2 1042.09C3142.55 1037.91 3145.59 1034.72 3149.33 1032.52C3153.15 1030.32 3157.22 1029.22 3161.54 1029.22C3165.94 1029.22 3170.01 1030.32 3173.75 1032.52C3177.49 1034.72 3180.5 1037.91 3182.77 1042.09C3185.12 1046.27 3186.29 1051.37 3186.29 1057.38C3186.29 1063.25 3185.12 1068.27 3182.77 1072.45C3180.5 1076.63 3177.49 1079.82 3173.75 1082.02C3170.01 1084.22 3165.94 1085.32 3161.54 1085.32ZM3161.54 1077.84C3164.62 1077.84 3167.34 1077 3169.68 1075.31C3172.03 1073.55 3173.83 1071.13 3175.07 1068.05C3176.32 1064.97 3176.94 1061.41 3176.94 1057.38C3176.94 1053.27 3176.32 1049.68 3175.07 1046.6C3173.83 1043.45 3172.03 1041.03 3169.68 1039.34C3167.34 1037.58 3164.62 1036.7 3161.54 1036.7C3158.46 1036.7 3155.75 1037.58 3153.4 1039.34C3151.13 1041.03 3149.33 1043.45 3148.01 1046.6C3146.77 1049.68 3146.14 1053.27 3146.14 1057.38C3146.14 1061.41 3146.77 1064.97 3148.01 1068.05C3149.33 1071.13 3151.13 1073.55 3153.4 1075.31C3155.75 1077 3158.46 1077.84 3161.54 1077.84ZM3218.63 1085.32C3211.89 1085.32 3206.5 1082.9 3202.46 1078.06C3198.5 1073.15 3196.52 1066.25 3196.52 1057.38C3196.52 1051.59 3197.59 1046.6 3199.71 1042.42C3201.91 1038.17 3204.77 1034.9 3208.29 1032.63C3211.81 1030.36 3215.63 1029.22 3219.73 1029.22C3222.89 1029.22 3225.56 1029.77 3227.76 1030.87C3230.04 1031.9 3232.35 1033.4 3234.69 1035.38L3234.25 1026.25V1005.68H3243.38V1084H3235.9L3235.13 1077.73H3234.8C3232.75 1079.78 3230.33 1081.58 3227.54 1083.12C3224.76 1084.59 3221.79 1085.32 3218.63 1085.32ZM3220.61 1077.73C3223.11 1077.73 3225.45 1077.11 3227.65 1075.86C3229.85 1074.61 3232.05 1072.78 3234.25 1070.36V1042.42C3232.05 1040.37 3229.89 1038.94 3227.76 1038.13C3225.64 1037.25 3223.47 1036.81 3221.27 1036.81C3218.41 1036.81 3215.81 1037.69 3213.46 1039.45C3211.19 1041.14 3209.36 1043.52 3207.96 1046.6C3206.57 1049.61 3205.87 1053.16 3205.87 1057.27C3205.87 1063.65 3207.16 1068.67 3209.72 1072.34C3212.29 1075.93 3215.92 1077.73 3220.61 1077.73ZM3273.71 1085.32C3270.78 1085.32 3268.1 1084.73 3265.68 1083.56C3263.33 1082.31 3261.46 1080.59 3260.07 1078.39C3258.68 1076.12 3257.98 1073.37 3257.98 1070.14C3257.98 1064.13 3260.62 1059.58 3265.9 1056.5C3271.18 1053.42 3279.54 1051.26 3290.98 1050.01C3290.91 1047.81 3290.54 1045.68 3289.88 1043.63C3289.29 1041.58 3288.19 1039.93 3286.58 1038.68C3284.97 1037.43 3282.73 1036.81 3279.87 1036.81C3276.79 1036.81 3273.89 1037.4 3271.18 1038.57C3268.47 1039.67 3266.05 1040.92 3263.92 1042.31L3260.4 1036.15C3262.01 1035.05 3263.92 1033.99 3266.12 1032.96C3268.32 1031.86 3270.7 1030.98 3273.27 1030.32C3275.84 1029.59 3278.55 1029.22 3281.41 1029.22C3285.74 1029.22 3289.26 1030.14 3291.97 1031.97C3294.76 1033.73 3296.77 1036.26 3298.02 1039.56C3299.34 1042.86 3300 1046.75 3300 1051.22V1084H3292.52L3291.75 1077.62H3291.42C3288.85 1079.75 3286.1 1081.58 3283.17 1083.12C3280.24 1084.59 3277.08 1085.32 3273.71 1085.32ZM3276.24 1077.84C3278.88 1077.84 3281.34 1077.25 3283.61 1076.08C3285.96 1074.91 3288.41 1073.18 3290.98 1070.91V1056.5C3284.97 1057.23 3280.2 1058.19 3276.68 1059.36C3273.23 1060.46 3270.74 1061.85 3269.2 1063.54C3267.66 1065.23 3266.89 1067.24 3266.89 1069.59C3266.89 1072.52 3267.81 1074.65 3269.64 1075.97C3271.47 1077.22 3273.67 1077.84 3276.24 1077.84ZM3316.82 1084V1030.54H3324.3L3325.07 1038.24H3325.4C3327.75 1035.75 3330.28 1033.62 3332.99 1031.86C3335.78 1030.1 3338.78 1029.22 3342.01 1029.22C3346.12 1029.22 3349.31 1030.14 3351.58 1031.97C3353.93 1033.8 3355.65 1036.3 3356.75 1039.45C3359.54 1036.37 3362.36 1033.91 3365.22 1032.08C3368.08 1030.17 3371.12 1029.22 3374.35 1029.22C3379.92 1029.22 3384.03 1031.02 3386.67 1034.61C3389.31 1038.13 3390.63 1043.3 3390.63 1050.12V1084H3381.61V1051.33C3381.61 1046.27 3380.8 1042.64 3379.19 1040.44C3377.58 1038.17 3375.08 1037.03 3371.71 1037.03C3369.58 1037.03 3367.42 1037.73 3365.22 1039.12C3363.09 1040.44 3360.78 1042.49 3358.29 1045.28V1084H3349.27V1051.33C3349.27 1046.27 3348.46 1042.64 3346.85 1040.44C3345.24 1038.17 3342.71 1037.03 3339.26 1037.03C3335.23 1037.03 3330.75 1039.78 3325.84 1045.28V1084H3316.82Z" fill="black" fill-opacity="0.44"/>
</svg>
