<svg width="5201" height="2446" viewBox="0 0 5201 2446" fill="none" xmlns="http://www.w3.org/2000/svg">
<rect width="409.954" height="258.387" transform="matrix(0.864645 0.502384 -0.762169 0.647379 3512.37 1283.64)" fill="#7B7B7B"/>
<path d="M1728.07 1878.98L1440.83 1712.08L1322.04 1812.98L868.5 1549.45L1340.52 1148.53L2081.3 1578.95L1728.07 1878.98Z" fill="#9EC2C2"/>
<path d="M4734.65 1595.86L4583.47 1508.02L5049.23 1112.41L5200.41 1200.25L4734.65 1595.86Z" fill="#FF8000"/>
<path d="M4443.62 1426.77L4205.52 1288.42L4790.07 791.911L5028.18 930.259L4443.62 1426.77Z" fill="#FF8000"/>
<path d="M4729.59 756.775L4535.78 921.394L4191.85 721.558L4298.13 631.283L4252.78 604.932L4102.73 732.378L3932.65 633.558L4170.23 431.767L4729.59 756.775Z" fill="#FF8000"/>
<path d="M3101.78 982.478L3200.05 1039.57L2959.35 1244.02L3004.7 1270.37L2657.72 1565.09L2612.37 1538.74L3322.91 1951.59L3426.07 1863.97L4008.12 2202.16L3764.29 2409.26L3556.42 2288.48L3371.99 2445.13L2721.91 2067.42L2803.19 1998.38L2368.55 1745.84L2168.49 1915.77L1881.24 1748.88L2325.13 1371.85L2468.75 1455.29L2934.51 1059.68L2651.05 894.977L2772.96 791.426L2416.6 1094.11L2118.02 920.627L2352.47 721.492L2193.73 629.259L2434.43 424.813L3220.56 881.583L3101.78 982.478Z" fill="#424242"/>
<path d="M3382.65 1489.97L3250.37 1413.11L3447.3 1245.84L3579.59 1322.7L3382.65 1489.97Z" fill="#424242"/>
<path d="M3968.48 1830.35L3730.37 1692.01L4127.36 1354.8L4365.47 1493.15L3968.48 1830.35Z" fill="#424242"/>
<path d="M4259.5 1999.45L4108.32 1911.61L4505.31 1574.4L4592.24 1624.91L4670.39 1558.53L4734.64 1595.87L4259.5 1999.45Z" fill="#424242"/>
<path d="M3526.27 1573.42L3393.99 1496.56L3590.93 1329.29L3723.21 1406.15L3526.27 1573.42Z" fill="#424242"/>
<path d="M3669.9 1656.87L3537.61 1580.01L3734.55 1412.73L3866.83 1489.59L3669.9 1656.87Z" fill="#424242"/>
<path d="M3907.47 1455.08L3487.94 1211.32L3575.47 1136.98L3995 1380.73L3907.47 1455.08Z" fill="#424242"/>
<path d="M4012.76 1176.43L4145.04 1253.29L4029.38 1351.53L3609.85 1107.77L3725.51 1009.53L3865.36 1090.78L4099.8 891.647L4247.2 977.291L4012.76 1176.43Z" fill="#424242"/>
<path d="M3186.55 861.817L3031.59 771.781L3312.92 532.818L3467.88 622.854L3186.55 861.817Z" fill="#424242"/>
<rect width="450.231" height="311.705" transform="matrix(0.864645 0.502384 -0.762169 0.647379 3336.23 783.341)" fill="#9EC2C2"/>
<path d="M4108.32 1911.6L4259.5 1999.44L4015.68 2206.55L3486.55 1899.1L3730.37 1692L3968.48 1830.35L4365.48 1493.15L4505.32 1574.4L4108.32 1911.6Z" fill="#8BBD7B"/>
<path d="M4583.47 1508.02L4443.62 1426.77L4909.39 1031.15L5049.23 1112.41L4583.47 1508.02Z" fill="#8BBD7B"/>
<path d="M2081.3 1578.95L1340.52 1148.53L1815.66 744.948L2556.44 1175.37L2081.3 1578.95Z" fill="#7FBC6D"/>
<path d="M3250.37 1413.11L3669.9 1656.87L3322.92 1951.59L2657.72 1565.09L3004.7 1270.37L2959.35 1244.02L3196.92 1042.23L3487.94 1211.32L3250.37 1413.11Z" fill="#7FBC6D"/>
<path d="M2118.02 920.627L1815.66 744.946L2053.23 543.155L2355.59 718.836L2118.02 920.627Z" fill="#7FBC6D"/>
<path d="M2700.07 1258.81L2416.6 1094.11L2651.05 894.976L2934.51 1059.68L2700.07 1258.81Z" fill="#7FBC6D"/>
<path d="M4492.02 958.566L4145.04 1253.29L4012.75 1176.43L4247.2 977.29L4099.8 891.647L3865.35 1090.78L3725.51 1009.53L4072.49 714.809L4492.02 958.566Z" fill="#7FBC6D"/>
<path d="M2657.72 1565.09L2612.37 1538.74L2168.48 1915.77L1881.24 1748.88L2134.44 1533.81L1393.66 1103.39L1496.81 1015.77L2237.6 1446.19L2325.13 1371.84L2468.75 1455.29L2612.54 1333.16L2801.52 1442.96L2657.72 1565.09Z" fill="#BECDD2"/>
<path d="M4205.51 1288.42L4670.39 1558.53L4592.24 1624.91L4127.36 1354.8L3220.84 2124.79L2449.82 1676.81L2499.84 1634.33L3210.38 2047.18L3994.99 1380.73L3530.12 1110.63L3570.75 1076.11L4035.63 1346.22L4492.02 958.568L4102.73 732.379L4252.77 604.932L4298.13 631.284L4191.85 721.559L4535.78 921.396L4729.59 756.775L4790.06 791.911L4205.51 1288.42Z" fill="#BECDD2"/>
<path d="M3098.65 985.133L3442.59 1184.97L3530.11 1110.63L3575.47 1136.98L3487.94 1211.32L3907.47 1455.08L3866.83 1489.6L3156.28 1076.75L2959.35 1244.02L2921.55 1222.06L2718.37 1394.64L2657.89 1359.51L2979.87 1086.03L2424.28 763.216L2464.91 728.7L3020.5 1051.51L3020.5 1051.51L2986.49 1031.75L3302.21 763.578L3336.23 783.342L3098.65 985.133Z" fill="#BECDD2"/>
<rect width="288.497" height="254.286" transform="matrix(0.864645 0.502384 -0.762169 0.647379 2057.81 577.113)" fill="black" fill-opacity="0.1"/>
<rect width="244.786" height="213.272" transform="matrix(0.864645 0.502384 -0.762169 0.647379 2061.08 614.038)" fill="black" fill-opacity="0.1"/>
<rect width="201.074" height="172.258" transform="matrix(0.864645 0.502384 -0.762169 0.647379 2064.34 650.961)" fill="black" fill-opacity="0.1"/>
<rect width="201.074" height="172.258" transform="matrix(0.864645 0.502384 -0.762169 0.647379 2185.37 1187.8)" fill="black" fill-opacity="0.1"/>
<rect width="176.274" height="150.47" transform="matrix(0.864645 0.502384 -0.762169 0.647379 2190.21 1214.36)" fill="black" fill-opacity="0.1"/>
<path d="M1507.85 1091.5L2400.96 1606.61L3106.15 1017.61L3914.8 1490.5L4351.85 1106.28" stroke="black" stroke-width="10"/>
<rect width="218.937" height="303.502" transform="matrix(0.864645 0.502384 -0.762169 0.647379 2556.45 1175.36)" fill="#9EC2C2"/>
<path d="M1334.38 1533.61V1504.52H1346.03C1348.17 1504.52 1349.96 1504.84 1351.39 1505.47C1352.82 1506.11 1353.89 1506.99 1354.61 1508.11C1355.33 1509.23 1355.69 1510.52 1355.69 1511.98C1355.69 1513.11 1355.46 1514.11 1355.01 1514.97C1354.55 1515.83 1353.93 1516.53 1353.13 1517.08C1352.35 1517.62 1351.45 1518 1350.43 1518.23V1518.51C1351.54 1518.56 1352.58 1518.87 1353.54 1519.45C1354.52 1520.03 1355.31 1520.84 1355.92 1521.88C1356.52 1522.91 1356.83 1524.14 1356.83 1525.57C1356.83 1527.12 1356.44 1528.49 1355.68 1529.71C1354.92 1530.91 1353.8 1531.86 1352.31 1532.56C1350.82 1533.26 1348.99 1533.61 1346.81 1533.61H1334.38ZM1340.53 1528.58H1345.55C1347.26 1528.58 1348.51 1528.26 1349.3 1527.6C1350.08 1526.94 1350.48 1526.06 1350.48 1524.96C1350.48 1524.16 1350.28 1523.45 1349.89 1522.83C1349.51 1522.21 1348.95 1521.73 1348.23 1521.38C1347.52 1521.03 1346.67 1520.86 1345.69 1520.86H1340.53V1528.58ZM1340.53 1516.69H1345.09C1345.94 1516.69 1346.68 1516.55 1347.34 1516.25C1348 1515.95 1348.52 1515.52 1348.9 1514.97C1349.29 1514.43 1349.48 1513.77 1349.48 1513C1349.48 1511.95 1349.11 1511.1 1348.36 1510.46C1347.62 1509.81 1346.57 1509.49 1345.21 1509.49H1340.53V1516.69ZM1366.98 1504.52V1533.61H1360.83V1504.52H1366.98ZM1372.04 1533.61V1504.52H1383.69C1385.83 1504.52 1387.61 1504.84 1389.04 1505.47C1390.47 1506.11 1391.55 1506.99 1392.27 1508.11C1392.99 1509.23 1393.35 1510.52 1393.35 1511.98C1393.35 1513.11 1393.12 1514.11 1392.66 1514.97C1392.21 1515.83 1391.58 1516.53 1390.79 1517.08C1390 1517.62 1389.1 1518 1388.09 1518.23V1518.51C1389.2 1518.56 1390.23 1518.87 1391.2 1519.45C1392.18 1520.03 1392.97 1520.84 1393.57 1521.88C1394.18 1522.91 1394.48 1524.14 1394.48 1525.57C1394.48 1527.12 1394.1 1528.49 1393.33 1529.71C1392.57 1530.91 1391.45 1531.86 1389.97 1532.56C1388.48 1533.26 1386.65 1533.61 1384.47 1533.61H1372.04ZM1378.19 1528.58H1383.2C1384.92 1528.58 1386.17 1528.26 1386.95 1527.6C1387.74 1526.94 1388.13 1526.06 1388.13 1524.96C1388.13 1524.16 1387.94 1523.45 1387.55 1522.83C1387.16 1522.21 1386.61 1521.73 1385.89 1521.38C1385.18 1521.03 1384.33 1520.86 1383.35 1520.86H1378.19V1528.58ZM1378.19 1516.69H1382.75C1383.59 1516.69 1384.34 1516.55 1384.99 1516.25C1385.66 1515.95 1386.18 1515.52 1386.56 1514.97C1386.94 1514.43 1387.14 1513.77 1387.14 1513C1387.14 1511.95 1386.76 1511.1 1386.02 1510.46C1385.28 1509.81 1384.23 1509.49 1382.86 1509.49H1378.19V1516.69ZM1398.48 1533.61V1504.52H1404.63V1528.54H1417.11V1533.61H1398.48ZM1427.33 1504.52V1533.61H1421.18V1504.52H1427.33ZM1459.12 1519.07C1459.12 1522.24 1458.52 1524.94 1457.32 1527.16C1456.13 1529.39 1454.5 1531.09 1452.43 1532.26C1450.38 1533.43 1448.07 1534.01 1445.5 1534.01C1442.92 1534.01 1440.6 1533.42 1438.54 1532.25C1436.49 1531.07 1434.86 1529.37 1433.67 1527.15C1432.48 1524.92 1431.88 1522.23 1431.88 1519.07C1431.88 1515.89 1432.48 1513.19 1433.67 1510.97C1434.86 1508.74 1436.49 1507.05 1438.54 1505.88C1440.6 1504.71 1442.92 1504.12 1445.5 1504.12C1448.07 1504.12 1450.38 1504.71 1452.43 1505.88C1454.5 1507.05 1456.13 1508.74 1457.32 1510.97C1458.52 1513.19 1459.12 1515.89 1459.12 1519.07ZM1452.89 1519.07C1452.89 1517.01 1452.58 1515.28 1451.96 1513.87C1451.36 1512.46 1450.5 1511.39 1449.39 1510.66C1448.29 1509.93 1446.99 1509.56 1445.5 1509.56C1444.01 1509.56 1442.72 1509.93 1441.61 1510.66C1440.5 1511.39 1439.64 1512.46 1439.02 1513.87C1438.42 1515.28 1438.11 1517.01 1438.11 1519.07C1438.11 1521.12 1438.42 1522.85 1439.02 1524.26C1439.64 1525.68 1440.5 1526.75 1441.61 1527.47C1442.72 1528.2 1444.01 1528.57 1445.5 1528.57C1446.99 1528.57 1448.29 1528.2 1449.39 1527.47C1450.5 1526.75 1451.36 1525.68 1451.96 1524.26C1452.58 1522.85 1452.89 1521.12 1452.89 1519.07ZM1461.24 1509.59V1504.52H1485.14V1509.59H1476.23V1533.61H1470.15V1509.59H1461.24ZM1489.07 1533.61V1504.52H1508.67V1509.59H1495.22V1516.52H1507.66V1521.59H1495.22V1528.54H1508.73V1533.61H1489.07ZM1539.23 1514.71H1533.01C1532.89 1513.9 1532.66 1513.19 1532.31 1512.56C1531.96 1511.93 1531.51 1511.39 1530.96 1510.94C1530.41 1510.5 1529.78 1510.15 1529.06 1509.92C1528.35 1509.68 1527.58 1509.56 1526.74 1509.56C1525.24 1509.56 1523.93 1509.94 1522.81 1510.69C1521.69 1511.42 1520.83 1512.5 1520.21 1513.92C1519.59 1515.33 1519.29 1517.05 1519.29 1519.07C1519.29 1521.14 1519.59 1522.88 1520.21 1524.29C1520.84 1525.7 1521.71 1526.77 1522.82 1527.49C1523.94 1528.21 1525.23 1528.57 1526.7 1528.57C1527.53 1528.57 1528.29 1528.46 1528.99 1528.24C1529.7 1528.02 1530.33 1527.71 1530.88 1527.29C1531.43 1526.86 1531.88 1526.35 1532.24 1525.74C1532.61 1525.14 1532.87 1524.44 1533.01 1523.67L1539.23 1523.7C1539.07 1525.03 1538.67 1526.32 1538.02 1527.56C1537.39 1528.79 1536.53 1529.89 1535.45 1530.87C1534.38 1531.84 1533.1 1532.6 1531.62 1533.17C1530.14 1533.73 1528.47 1534.01 1526.6 1534.01C1524.01 1534.01 1521.69 1533.42 1519.64 1532.25C1517.61 1531.07 1516 1529.37 1514.81 1527.15C1513.64 1524.92 1513.05 1522.23 1513.05 1519.07C1513.05 1515.89 1513.65 1513.19 1514.84 1510.97C1516.03 1508.74 1517.65 1507.05 1519.7 1505.88C1521.74 1504.71 1524.05 1504.12 1526.6 1504.12C1528.29 1504.12 1529.85 1504.36 1531.29 1504.83C1532.74 1505.31 1534.02 1506 1535.14 1506.91C1536.26 1507.81 1537.17 1508.91 1537.87 1510.22C1538.58 1511.52 1539.03 1513.02 1539.23 1514.71ZM1548.11 1533.61H1541.52L1551.56 1504.52H1559.49L1569.51 1533.61H1562.92L1555.64 1511.17H1555.41L1548.11 1533.61ZM1547.7 1522.18H1563.26V1526.98H1547.7V1522.18Z" fill="white"/>
<path d="M2467.67 1323.92C2467.47 1323.23 2467.19 1322.62 2466.83 1322.09C2466.47 1321.55 2466.03 1321.1 2465.51 1320.73C2465 1320.35 2464.41 1320.06 2463.75 1319.86C2463.1 1319.66 2462.37 1319.56 2461.58 1319.56C2460.09 1319.56 2458.78 1319.93 2457.66 1320.67C2456.54 1321.41 2455.67 1322.48 2455.04 1323.9C2454.42 1325.3 2454.11 1327.01 2454.11 1329.04C2454.11 1331.06 2454.41 1332.79 2455.03 1334.21C2455.64 1335.63 2456.52 1336.71 2457.64 1337.46C2458.77 1338.2 2460.1 1338.57 2461.63 1338.57C2463.03 1338.57 2464.22 1338.32 2465.2 1337.83C2466.19 1337.33 2466.95 1336.62 2467.47 1335.71C2468 1334.8 2468.27 1333.73 2468.27 1332.49L2469.52 1332.67H2462.02V1328.04H2474.19V1331.71C2474.19 1334.27 2473.65 1336.46 2472.57 1338.3C2471.49 1340.13 2470.01 1341.54 2468.11 1342.53C2466.22 1343.52 2464.05 1344.01 2461.61 1344.01C2458.88 1344.01 2456.48 1343.41 2454.42 1342.21C2452.35 1340.99 2450.74 1339.27 2449.59 1337.05C2448.44 1334.81 2447.87 1332.16 2447.87 1329.09C2447.87 1326.74 2448.21 1324.63 2448.89 1322.79C2449.58 1320.93 2450.55 1319.36 2451.79 1318.07C2453.03 1316.78 2454.48 1315.8 2456.12 1315.13C2457.77 1314.46 2459.56 1314.12 2461.48 1314.12C2463.13 1314.12 2464.66 1314.36 2466.08 1314.85C2467.5 1315.32 2468.76 1315.99 2469.86 1316.86C2470.97 1317.74 2471.87 1318.77 2472.57 1319.98C2473.27 1321.17 2473.72 1322.48 2473.92 1323.92H2467.67ZM2482.93 1343.61H2476.34L2486.38 1314.52H2494.3L2504.33 1343.61H2497.74L2490.46 1321.17H2490.23L2482.93 1343.61ZM2482.52 1332.18H2498.08V1336.98H2482.52V1332.18ZM2507.83 1343.61V1314.52H2513.99V1338.54H2526.46V1343.61H2507.83ZM2530.53 1343.61V1314.52H2550.13V1319.59H2536.68V1326.52H2549.12V1331.59H2536.68V1338.54H2550.19V1343.61H2530.53ZM2555.02 1343.61V1314.52H2566.5C2568.7 1314.52 2570.57 1314.91 2572.12 1315.7C2573.69 1316.48 2574.88 1317.58 2575.69 1319.01C2576.51 1320.43 2576.93 1322.1 2576.93 1324.02C2576.93 1325.96 2576.51 1327.62 2575.68 1329.01C2574.84 1330.39 2573.63 1331.45 2572.05 1332.19C2570.48 1332.93 2568.58 1333.3 2566.34 1333.3H2558.66V1328.36H2565.35C2566.52 1328.36 2567.5 1328.2 2568.28 1327.87C2569.05 1327.55 2569.63 1327.07 2570.01 1326.42C2570.4 1325.78 2570.59 1324.98 2570.59 1324.02C2570.59 1323.06 2570.4 1322.24 2570.01 1321.58C2569.63 1320.92 2569.05 1320.42 2568.26 1320.07C2567.48 1319.72 2566.5 1319.55 2565.32 1319.55H2561.17V1343.61H2555.02ZM2570.73 1330.37L2577.96 1343.61H2571.17L2564.1 1330.37H2570.73ZM2587.42 1314.52V1343.61H2581.27V1314.52H2587.42ZM2597.5 1343.61H2590.91L2600.95 1314.52H2608.88L2618.9 1343.61H2612.31L2605.03 1321.17H2604.8L2597.5 1343.61ZM2597.09 1332.18H2612.65V1336.98H2597.09V1332.18Z" fill="white"/>
<path d="M2110.16 1685.89C2110.05 1684.74 2109.56 1683.85 2108.7 1683.22C2107.84 1682.58 2106.67 1682.27 2105.19 1682.27C2104.19 1682.27 2103.34 1682.41 2102.65 1682.69C2101.96 1682.97 2101.43 1683.35 2101.06 1683.84C2100.7 1684.33 2100.52 1684.89 2100.52 1685.52C2100.5 1686.04 2100.61 1686.49 2100.84 1686.88C2101.09 1687.27 2101.43 1687.61 2101.85 1687.89C2102.28 1688.16 2102.77 1688.41 2103.33 1688.61C2103.89 1688.81 2104.49 1688.98 2105.12 1689.13L2107.73 1689.75C2109 1690.04 2110.17 1690.41 2111.23 1690.89C2112.29 1691.36 2113.21 1691.94 2113.98 1692.63C2114.76 1693.33 2115.36 1694.14 2115.79 1695.08C2116.22 1696.02 2116.45 1697.09 2116.46 1698.3C2116.45 1700.08 2115.99 1701.63 2115.09 1702.93C2114.2 1704.23 2112.91 1705.24 2111.23 1705.96C2109.55 1706.67 2107.53 1707.02 2105.16 1707.02C2102.81 1707.02 2100.77 1706.66 2099.03 1705.94C2097.29 1705.22 2095.94 1704.16 2094.96 1702.75C2094 1701.33 2093.49 1699.57 2093.44 1697.48H2099.4C2099.46 1698.45 2099.74 1699.27 2100.23 1699.92C2100.74 1700.57 2101.4 1701.05 2102.24 1701.38C2103.08 1701.71 2104.03 1701.87 2105.09 1701.87C2106.13 1701.87 2107.04 1701.72 2107.8 1701.41C2108.58 1701.11 2109.18 1700.69 2109.61 1700.15C2110.04 1699.61 2110.25 1698.99 2110.25 1698.29C2110.25 1697.63 2110.05 1697.09 2109.67 1696.64C2109.29 1696.2 2108.73 1695.82 2107.99 1695.5C2107.26 1695.19 2106.37 1694.91 2105.3 1694.65L2102.14 1693.86C2099.68 1693.26 2097.75 1692.33 2096.33 1691.06C2094.91 1689.79 2094.2 1688.08 2094.21 1685.93C2094.2 1684.17 2094.67 1682.63 2095.62 1681.31C2096.57 1680 2097.89 1678.97 2099.55 1678.23C2101.22 1677.49 2103.11 1677.12 2105.23 1677.12C2107.39 1677.12 2109.28 1677.49 2110.89 1678.23C2112.51 1678.97 2113.77 1680 2114.67 1681.31C2115.57 1682.63 2116.03 1684.15 2116.06 1685.89H2110.16ZM2124.94 1706.61H2118.35L2128.39 1677.52H2136.32L2146.35 1706.61H2139.76L2132.47 1684.17H2132.24L2124.94 1706.61ZM2124.53 1695.18H2140.1V1699.98H2124.53V1695.18ZM2167.77 1686.92C2167.57 1686.23 2167.29 1685.62 2166.93 1685.09C2166.58 1684.55 2166.13 1684.1 2165.61 1683.73C2165.1 1683.35 2164.52 1683.06 2163.85 1682.86C2163.2 1682.66 2162.47 1682.56 2161.68 1682.56C2160.19 1682.56 2158.89 1682.93 2157.76 1683.67C2156.64 1684.41 2155.77 1685.48 2155.15 1686.9C2154.52 1688.3 2154.21 1690.01 2154.21 1692.04C2154.21 1694.06 2154.52 1695.79 2155.13 1697.21C2155.75 1698.63 2156.62 1699.71 2157.74 1700.46C2158.87 1701.2 2160.2 1701.57 2161.74 1701.57C2163.13 1701.57 2164.32 1701.32 2165.3 1700.83C2166.3 1700.33 2167.05 1699.62 2167.57 1698.71C2168.1 1697.8 2168.37 1696.73 2168.37 1695.49L2169.62 1695.67H2162.12V1691.04H2174.29V1694.71C2174.29 1697.27 2173.75 1699.46 2172.67 1701.3C2171.59 1703.13 2170.11 1704.54 2168.21 1705.53C2166.32 1706.52 2164.15 1707.01 2161.71 1707.01C2158.98 1707.01 2156.58 1706.41 2154.52 1705.21C2152.46 1703.99 2150.85 1702.27 2149.69 1700.05C2148.54 1697.81 2147.97 1695.16 2147.97 1692.09C2147.97 1689.74 2148.31 1687.63 2148.99 1685.79C2149.69 1683.93 2150.65 1682.36 2151.89 1681.07C2153.13 1679.78 2154.58 1678.8 2156.22 1678.13C2157.87 1677.46 2159.66 1677.12 2161.58 1677.12C2163.23 1677.12 2164.76 1677.36 2166.18 1677.85C2167.6 1678.32 2168.86 1678.99 2169.96 1679.86C2171.07 1680.74 2171.97 1681.77 2172.67 1682.98C2173.37 1684.17 2173.82 1685.48 2174.02 1686.92H2167.77ZM2196.88 1677.52H2203.03V1696.41C2203.03 1698.53 2202.53 1700.39 2201.51 1701.98C2200.51 1703.57 2199.1 1704.81 2197.29 1705.7C2195.48 1706.58 2193.38 1707.02 2190.97 1707.02C2188.56 1707.02 2186.45 1706.58 2184.64 1705.7C2182.83 1704.81 2181.42 1703.57 2180.42 1701.98C2179.41 1700.39 2178.91 1698.53 2178.91 1696.41V1677.52H2185.06V1695.89C2185.06 1697 2185.3 1697.98 2185.79 1698.84C2186.28 1699.7 2186.97 1700.38 2187.86 1700.87C2188.75 1701.37 2189.79 1701.61 2190.97 1701.61C2192.17 1701.61 2193.2 1701.37 2194.08 1700.87C2194.97 1700.38 2195.66 1699.7 2196.14 1698.84C2196.64 1697.98 2196.88 1697 2196.88 1695.89V1677.52ZM2213.11 1706.61H2206.52L2216.56 1677.52H2224.48L2234.51 1706.61H2227.92L2220.64 1684.17H2220.41L2213.11 1706.61ZM2212.69 1695.18H2228.26V1699.98H2212.69V1695.18ZM2216.44 1674.65L2213.09 1674.61C2213.09 1672.8 2213.54 1671.41 2214.43 1670.45C2215.32 1669.48 2216.41 1668.99 2217.71 1668.98C2218.37 1668.98 2218.94 1669.09 2219.41 1669.31C2219.89 1669.52 2220.32 1669.77 2220.71 1670.05C2221.09 1670.33 2221.46 1670.58 2221.81 1670.8C2222.16 1671.01 2222.54 1671.11 2222.95 1671.11C2223.5 1671.11 2223.92 1670.9 2224.2 1670.5C2224.49 1670.1 2224.64 1669.57 2224.64 1668.91L2227.95 1669.01C2227.93 1670.8 2227.48 1672.18 2226.59 1673.16C2225.7 1674.13 2224.61 1674.61 2223.32 1674.62C2222.62 1674.63 2222.03 1674.53 2221.54 1674.31C2221.07 1674.09 2220.65 1673.85 2220.29 1673.57C2219.93 1673.29 2219.58 1673.04 2219.24 1672.82C2218.9 1672.6 2218.52 1672.49 2218.09 1672.49C2217.6 1672.49 2217.2 1672.69 2216.9 1673.07C2216.6 1673.46 2216.44 1673.99 2216.44 1674.65ZM2263.38 1692.07C2263.38 1695.24 2262.78 1697.94 2261.58 1700.16C2260.38 1702.39 2258.75 1704.09 2256.69 1705.26C2254.63 1706.43 2252.32 1707.01 2249.76 1707.01C2247.17 1707.01 2244.85 1706.42 2242.8 1705.25C2240.74 1704.07 2239.12 1702.37 2237.93 1700.15C2236.73 1697.92 2236.14 1695.23 2236.14 1692.07C2236.14 1688.89 2236.73 1686.2 2237.93 1683.97C2239.12 1681.74 2240.74 1680.05 2242.8 1678.88C2244.85 1677.71 2247.17 1677.12 2249.76 1677.12C2252.32 1677.12 2254.63 1677.71 2256.69 1678.88C2258.75 1680.05 2260.38 1681.74 2261.58 1683.97C2262.78 1686.2 2263.38 1688.89 2263.38 1692.07ZM2257.14 1692.07C2257.14 1690.01 2256.84 1688.28 2256.22 1686.87C2255.62 1685.46 2254.76 1684.39 2253.65 1683.66C2252.54 1682.93 2251.24 1682.56 2249.76 1682.56C2248.27 1682.56 2246.97 1682.93 2245.87 1683.66C2244.76 1684.39 2243.9 1685.46 2243.28 1686.87C2242.67 1688.28 2242.37 1690.01 2242.37 1692.07C2242.37 1694.12 2242.67 1695.85 2243.28 1697.27C2243.9 1698.68 2244.76 1699.75 2245.87 1700.48C2246.97 1701.2 2248.27 1701.57 2249.76 1701.57C2251.24 1701.57 2252.54 1701.2 2253.65 1700.48C2254.76 1699.75 2255.62 1698.68 2256.22 1697.27C2256.84 1695.85 2257.14 1694.12 2257.14 1692.07Z" fill="white"/>
<path d="M1776.03 1073.52H1782.11V1093.8C1782.11 1095.68 1781.69 1097.31 1780.85 1098.69C1780.01 1100.07 1778.85 1101.14 1777.37 1101.89C1775.88 1102.64 1774.15 1103.01 1772.18 1103.01C1770.43 1103.01 1768.84 1102.7 1767.41 1102.09C1765.99 1101.46 1764.86 1100.51 1764.03 1099.24C1763.19 1097.97 1762.78 1096.36 1762.79 1094.43H1768.91C1768.93 1095.2 1769.09 1095.85 1769.38 1096.4C1769.69 1096.94 1770.1 1097.36 1770.62 1097.65C1771.15 1097.94 1771.77 1098.08 1772.49 1098.08C1773.25 1098.08 1773.89 1097.92 1774.41 1097.6C1774.94 1097.27 1775.34 1096.78 1775.62 1096.15C1775.89 1095.51 1776.03 1094.73 1776.03 1093.8V1073.52ZM1792.21 1102.61H1785.62L1795.66 1073.52H1803.59L1813.62 1102.61H1807.02L1799.74 1080.17H1799.51L1792.21 1102.61ZM1791.8 1091.18H1807.37V1095.98H1791.8V1091.18ZM1817.12 1102.61V1073.52H1828.59C1830.79 1073.52 1832.67 1073.91 1834.22 1074.7C1835.78 1075.48 1836.97 1076.58 1837.78 1078.01C1838.61 1079.43 1839.02 1081.1 1839.02 1083.02C1839.02 1084.96 1838.6 1086.62 1837.77 1088.01C1836.94 1089.39 1835.73 1090.45 1834.15 1091.19C1832.58 1091.93 1830.67 1092.3 1828.44 1092.3H1820.75V1087.36H1827.44C1828.62 1087.36 1829.59 1087.19 1830.37 1086.87C1831.15 1086.55 1831.72 1086.07 1832.1 1085.42C1832.49 1084.78 1832.69 1083.98 1832.69 1083.02C1832.69 1082.06 1832.49 1081.24 1832.1 1080.58C1831.72 1079.92 1831.14 1079.42 1830.36 1079.07C1829.58 1078.72 1828.6 1078.55 1827.42 1078.55H1823.27V1102.61H1817.12ZM1832.83 1089.37L1840.06 1102.61H1833.27L1826.19 1089.37H1832.83ZM1853.68 1102.61H1843.37V1073.52H1853.76C1856.69 1073.52 1859.21 1074.1 1861.32 1075.27C1863.43 1076.42 1865.06 1078.08 1866.19 1080.25C1867.34 1082.42 1867.91 1085.02 1867.91 1088.04C1867.91 1091.07 1867.34 1093.67 1866.19 1095.85C1865.06 1098.03 1863.42 1099.7 1861.29 1100.86C1859.17 1102.03 1856.63 1102.61 1853.68 1102.61ZM1849.52 1097.34H1853.42C1855.24 1097.34 1856.77 1097.02 1858.01 1096.38C1859.26 1095.72 1860.2 1094.71 1860.82 1093.35C1861.46 1091.98 1861.78 1090.21 1861.78 1088.04C1861.78 1085.89 1861.46 1084.13 1860.82 1082.77C1860.2 1081.4 1859.27 1080.4 1858.03 1079.76C1856.79 1079.11 1855.26 1078.79 1853.44 1078.79H1849.52V1097.34ZM1878.62 1073.52V1102.61H1872.47V1073.52H1878.62ZM1883.68 1073.52H1891.26L1899.28 1093.07H1899.62L1907.63 1073.52H1915.21V1102.61H1909.25V1083.68H1909.01L1901.48 1102.47H1897.42L1889.89 1083.61H1889.65V1102.61H1883.68V1073.52ZM1939.85 1102.61H1929.54V1073.52H1939.94C1942.86 1073.52 1945.38 1074.1 1947.49 1075.27C1949.61 1076.42 1951.23 1078.08 1952.37 1080.25C1953.51 1082.42 1954.08 1085.02 1954.08 1088.04C1954.08 1091.07 1953.51 1093.67 1952.37 1095.85C1951.23 1098.03 1949.6 1099.7 1947.47 1100.86C1945.34 1102.03 1942.81 1102.61 1939.85 1102.61ZM1935.69 1097.34H1939.6C1941.41 1097.34 1942.94 1097.02 1944.18 1096.38C1945.43 1095.72 1946.37 1094.71 1947 1093.35C1947.63 1091.98 1947.95 1090.21 1947.95 1088.04C1947.95 1085.89 1947.63 1084.13 1947 1082.77C1946.37 1081.4 1945.44 1080.4 1944.2 1079.76C1942.96 1079.11 1941.43 1078.79 1939.61 1078.79H1935.69V1097.34ZM1962.01 1102.61H1955.42L1965.47 1073.52H1973.39L1983.42 1102.61H1976.83L1969.54 1080.17H1969.32L1962.01 1102.61ZM1961.6 1091.18H1977.17V1095.98H1961.6V1091.18ZM1996.18 1102.61V1073.52H2015.78V1078.59H2002.33V1085.52H2014.77V1090.59H2002.33V1097.54H2015.84V1102.61H1996.18ZM2045 1073.52V1102.61H2039.69L2027.04 1084.3H2026.82V1102.61H2020.67V1073.52H2026.07L2038.63 1091.82H2038.88V1073.52H2045ZM2048.98 1078.59V1073.52H2072.87V1078.59H2063.96V1102.61H2057.88V1078.59H2048.98ZM2076.8 1102.61V1073.52H2088.28C2090.48 1073.52 2092.35 1073.91 2093.91 1074.7C2095.47 1075.48 2096.66 1076.58 2097.47 1078.01C2098.3 1079.43 2098.71 1081.1 2098.71 1083.02C2098.71 1084.96 2098.29 1086.62 2097.46 1088.01C2096.62 1089.39 2095.42 1090.45 2093.84 1091.19C2092.26 1091.93 2090.36 1092.3 2088.13 1092.3H2080.44V1087.36H2087.13C2088.31 1087.36 2089.28 1087.19 2090.06 1086.87C2090.83 1086.55 2091.41 1086.07 2091.79 1085.42C2092.18 1084.78 2092.37 1083.98 2092.37 1083.02C2092.37 1082.06 2092.18 1081.24 2091.79 1080.58C2091.41 1079.92 2090.83 1079.42 2090.04 1079.07C2089.27 1078.72 2088.29 1078.55 2087.1 1078.55H2082.96V1102.61H2076.8ZM2092.51 1089.37L2099.74 1102.61H2092.96L2085.88 1089.37H2092.51ZM2108.07 1102.61H2101.48L2111.52 1073.52H2119.45L2129.47 1102.61H2122.88L2115.6 1080.17H2115.37L2108.07 1102.61ZM2107.66 1091.18H2123.22V1095.98H2107.66V1091.18ZM2143.29 1102.61H2132.98V1073.52H2143.37C2146.3 1073.52 2148.82 1074.1 2150.93 1075.27C2153.04 1076.42 2154.67 1078.08 2155.8 1080.25C2156.95 1082.42 2157.52 1085.02 2157.52 1088.04C2157.52 1091.07 2156.95 1093.67 2155.8 1095.85C2154.67 1098.03 2153.03 1099.7 2150.9 1100.86C2148.78 1102.03 2146.24 1102.61 2143.29 1102.61ZM2139.13 1097.34H2143.03C2144.85 1097.34 2146.38 1097.02 2147.62 1096.38C2148.87 1095.72 2149.81 1094.71 2150.43 1093.35C2151.07 1091.98 2151.39 1090.21 2151.39 1088.04C2151.39 1085.89 2151.07 1084.13 2150.43 1082.77C2149.81 1081.4 2148.88 1080.4 2147.64 1079.76C2146.39 1079.11 2144.87 1078.79 2143.05 1078.79H2139.13V1097.34ZM2165.45 1102.61H2158.86L2168.9 1073.52H2176.83L2186.86 1102.61H2180.27L2172.98 1080.17H2172.75L2165.45 1102.61ZM2165.04 1091.18H2180.61V1095.98H2165.04V1091.18Z" fill="white"/>
<path d="M2980.03 1572.52H2986.11V1592.8C2986.11 1594.68 2985.69 1596.31 2984.84 1597.69C2984.01 1599.07 2982.85 1600.14 2981.36 1600.89C2979.88 1601.64 2978.15 1602.01 2976.18 1602.01C2974.43 1602.01 2972.84 1601.7 2971.41 1601.09C2969.99 1600.46 2968.86 1599.51 2968.03 1598.25C2967.19 1596.97 2966.78 1595.36 2966.79 1593.43H2972.91C2972.93 1594.2 2973.09 1594.86 2973.38 1595.4C2973.68 1595.94 2974.1 1596.36 2974.62 1596.65C2975.15 1596.94 2975.77 1597.08 2976.49 1597.08C2977.25 1597.08 2977.89 1596.92 2978.41 1596.6C2978.94 1596.27 2979.34 1595.78 2979.62 1595.15C2979.89 1594.51 2980.03 1593.73 2980.03 1592.8V1572.52ZM2996.21 1601.61H2989.62L2999.66 1572.52H3007.59L3017.61 1601.61H3011.02L3003.74 1579.17H3003.51L2996.21 1601.61ZM2995.8 1590.18H3011.36V1594.98H2995.8V1590.18ZM3021.12 1601.61V1572.52H3032.59C3034.79 1572.52 3036.67 1572.91 3038.22 1573.7C3039.78 1574.48 3040.97 1575.58 3041.78 1577.01C3042.61 1578.43 3043.02 1580.1 3043.02 1582.02C3043.02 1583.96 3042.6 1585.62 3041.77 1587.01C3040.94 1588.39 3039.73 1589.45 3038.15 1590.19C3036.58 1590.93 3034.67 1591.3 3032.44 1591.3H3024.75V1586.36H3031.44C3032.62 1586.36 3033.59 1586.2 3034.37 1585.87C3035.15 1585.55 3035.72 1585.07 3036.1 1584.42C3036.49 1583.78 3036.68 1582.98 3036.68 1582.02C3036.68 1581.06 3036.49 1580.24 3036.1 1579.58C3035.72 1578.92 3035.14 1578.42 3034.35 1578.07C3033.58 1577.72 3032.6 1577.55 3031.41 1577.55H3027.27V1601.61H3021.12ZM3036.83 1588.37L3044.06 1601.61H3037.27L3030.19 1588.37H3036.83ZM3057.68 1601.61H3047.37V1572.52H3057.76C3060.69 1572.52 3063.21 1573.1 3065.32 1574.27C3067.43 1575.42 3069.06 1577.09 3070.19 1579.25C3071.34 1581.42 3071.91 1584.02 3071.91 1587.04C3071.91 1590.07 3071.34 1592.67 3070.19 1594.85C3069.06 1597.03 3067.42 1598.7 3065.29 1599.86C3063.17 1601.03 3060.63 1601.61 3057.68 1601.61ZM3053.52 1596.34H3057.42C3059.24 1596.34 3060.77 1596.02 3062.01 1595.38C3063.26 1594.72 3064.2 1593.71 3064.82 1592.35C3065.46 1590.98 3065.78 1589.21 3065.78 1587.04C3065.78 1584.89 3065.46 1583.13 3064.82 1581.77C3064.2 1580.4 3063.27 1579.4 3062.03 1578.76C3060.78 1578.11 3059.26 1577.79 3057.44 1577.79H3053.52V1596.34ZM3082.62 1572.52V1601.61H3076.47V1572.52H3082.62ZM3087.68 1572.52H3095.26L3103.28 1592.07H3103.62L3111.63 1572.52H3119.21V1601.61H3113.25V1582.68H3113.01L3105.48 1601.47H3101.41L3093.89 1582.61H3093.64V1601.61H3087.68V1572.52ZM3139.69 1572.52V1601.61H3133.54V1572.52H3139.69ZM3169.08 1572.52V1601.61H3163.77L3151.11 1583.3H3150.9V1601.61H3144.75V1572.52H3150.15L3162.7 1590.82H3162.96V1572.52H3169.08ZM3173.06 1577.59V1572.52H3196.95V1577.59H3188.04V1601.61H3181.96V1577.59H3173.06ZM3200.88 1601.61V1572.52H3220.48V1577.59H3207.03V1584.52H3219.48V1589.59H3207.03V1596.54H3220.54V1601.61H3200.88ZM3225.37 1601.61V1572.52H3236.85C3239.05 1572.52 3240.92 1572.91 3242.48 1573.7C3244.04 1574.48 3245.23 1575.58 3246.04 1577.01C3246.87 1578.43 3247.28 1580.1 3247.28 1582.02C3247.28 1583.96 3246.86 1585.62 3246.03 1587.01C3245.19 1588.39 3243.99 1589.45 3242.41 1590.19C3240.83 1590.93 3238.93 1591.3 3236.7 1591.3H3229.01V1586.36H3235.7C3236.88 1586.36 3237.85 1586.2 3238.63 1585.87C3239.4 1585.55 3239.98 1585.07 3240.36 1584.42C3240.75 1583.78 3240.94 1582.98 3240.94 1582.02C3240.94 1581.06 3240.75 1580.24 3240.36 1579.58C3239.98 1578.92 3239.4 1578.42 3238.61 1578.07C3237.84 1577.72 3236.86 1577.55 3235.67 1577.55H3231.52V1601.61H3225.37ZM3241.08 1588.37L3248.31 1601.61H3241.52L3234.45 1588.37H3241.08ZM3275.96 1572.52V1601.61H3270.64L3257.99 1583.3H3257.77V1601.61H3251.62V1572.52H3257.02L3269.58 1590.82H3269.83V1572.52H3275.96ZM3307.77 1587.07C3307.77 1590.24 3307.17 1592.94 3305.97 1595.16C3304.77 1597.39 3303.15 1599.09 3301.08 1600.26C3299.03 1601.43 3296.72 1602.01 3294.15 1602.01C3291.56 1602.01 3289.24 1601.42 3287.19 1600.25C3285.13 1599.07 3283.51 1597.37 3282.32 1595.15C3281.12 1592.92 3280.53 1590.23 3280.53 1587.07C3280.53 1583.89 3281.12 1581.2 3282.32 1578.97C3283.51 1576.74 3285.13 1575.05 3287.19 1573.88C3289.24 1572.71 3291.56 1572.12 3294.15 1572.12C3296.72 1572.12 3299.03 1572.71 3301.08 1573.88C3303.15 1575.05 3304.77 1576.74 3305.97 1578.97C3307.17 1581.2 3307.77 1583.89 3307.77 1587.07ZM3301.54 1587.07C3301.54 1585.01 3301.23 1583.28 3300.61 1581.87C3300.01 1580.46 3299.15 1579.39 3298.04 1578.66C3296.93 1577.93 3295.64 1577.56 3294.15 1577.56C3292.66 1577.56 3291.36 1577.93 3290.26 1578.66C3289.15 1579.39 3288.29 1580.46 3287.67 1581.87C3287.07 1583.28 3286.76 1585.01 3286.76 1587.07C3286.76 1589.12 3287.07 1590.85 3287.67 1592.27C3288.29 1593.68 3289.15 1594.75 3290.26 1595.48C3291.36 1596.2 3292.66 1596.57 3294.15 1596.57C3295.64 1596.57 3296.93 1596.2 3298.04 1595.48C3299.15 1594.75 3300.01 1593.68 3300.61 1592.27C3301.23 1590.85 3301.54 1589.12 3301.54 1587.07Z" fill="white"/>
<path d="M3501.4 1478.61H3494.81L3504.85 1449.52H3512.77L3522.8 1478.61H3516.21L3508.92 1456.17H3508.7L3501.4 1478.61ZM3500.98 1467.18H3516.55V1471.98H3500.98V1467.18ZM3521.64 1454.59V1449.52H3545.53V1454.59H3536.63V1478.61H3530.55V1454.59H3521.64ZM3549.47 1478.61V1449.52H3569.07V1454.59H3555.62V1461.52H3568.06V1466.59H3555.62V1473.54H3569.13V1478.61H3549.47ZM3573.96 1478.61V1449.52H3580.11V1473.54H3592.58V1478.61H3573.96ZM3602.81 1449.52V1478.61H3596.66V1449.52H3602.81ZM3607.87 1478.61V1449.52H3627.47V1454.59H3614.02V1461.52H3626.46V1466.59H3614.02V1473.54H3627.53V1478.61H3607.87ZM3620.57 1446.91L3617.71 1443.44L3614.85 1446.91H3609.7V1446.71L3615.45 1440.46H3619.95L3625.72 1446.71V1446.91H3620.57ZM3648.14 1457.89C3648.03 1456.74 3647.54 1455.85 3646.68 1455.22C3645.81 1454.58 3644.65 1454.27 3643.17 1454.27C3642.16 1454.27 3641.32 1454.41 3640.63 1454.69C3639.93 1454.97 3639.4 1455.35 3639.03 1455.84C3638.67 1456.33 3638.49 1456.89 3638.49 1457.52C3638.48 1458.04 3638.58 1458.49 3638.82 1458.88C3639.07 1459.27 3639.4 1459.61 3639.83 1459.89C3640.26 1460.16 3640.75 1460.41 3641.31 1460.61C3641.87 1460.81 3642.46 1460.98 3643.1 1461.13L3645.71 1461.75C3646.98 1462.04 3648.14 1462.41 3649.21 1462.89C3650.27 1463.36 3651.18 1463.94 3651.96 1464.63C3652.74 1465.33 3653.34 1466.14 3653.76 1467.08C3654.2 1468.02 3654.42 1469.09 3654.43 1470.3C3654.42 1472.08 3653.97 1473.63 3653.07 1474.93C3652.18 1476.23 3650.89 1477.24 3649.21 1477.96C3647.53 1478.67 3645.51 1479.02 3643.14 1479.02C3640.79 1479.02 3638.75 1478.66 3637 1477.94C3635.27 1477.22 3633.92 1476.16 3632.94 1474.75C3631.97 1473.33 3631.47 1471.57 3631.42 1469.48H3637.37C3637.44 1470.45 3637.72 1471.27 3638.21 1471.92C3638.71 1472.57 3639.38 1473.05 3640.21 1473.38C3641.06 1473.71 3642.01 1473.87 3643.07 1473.87C3644.11 1473.87 3645.01 1473.72 3645.78 1473.41C3646.56 1473.11 3647.16 1472.69 3647.59 1472.15C3648.01 1471.61 3648.22 1470.99 3648.22 1470.29C3648.22 1469.63 3648.03 1469.09 3647.64 1468.64C3647.26 1468.2 3646.71 1467.82 3645.97 1467.5C3645.24 1467.19 3644.34 1466.91 3643.28 1466.65L3640.11 1465.86C3637.66 1465.26 3635.72 1464.33 3634.3 1463.06C3632.88 1461.79 3632.18 1460.08 3632.19 1457.93C3632.18 1456.17 3632.65 1454.63 3633.59 1453.31C3634.55 1452 3635.86 1450.97 3637.53 1450.23C3639.2 1449.49 3641.09 1449.12 3643.21 1449.12C3645.37 1449.12 3647.25 1449.49 3648.86 1450.23C3650.48 1450.97 3651.74 1452 3652.64 1453.31C3653.54 1454.63 3654.01 1456.15 3654.03 1457.89H3648.14Z" fill="white"/>
<path d="M3238.38 997.612V968.521H3249.86C3252.06 968.521 3253.93 968.914 3255.48 969.7C3257.05 970.476 3258.24 971.58 3259.05 973.01C3259.87 974.43 3260.29 976.101 3260.29 978.024C3260.29 979.956 3259.87 981.617 3259.04 983.01C3258.2 984.392 3256.99 985.453 3255.41 986.191C3253.84 986.93 3251.94 987.299 3249.7 987.299H3242.02V982.356H3248.71C3249.88 982.356 3250.86 982.195 3251.63 981.873C3252.41 981.551 3252.99 981.068 3253.37 980.424C3253.76 979.78 3253.95 978.98 3253.95 978.024C3253.95 977.058 3253.76 976.243 3253.37 975.581C3252.99 974.918 3252.41 974.416 3251.62 974.075C3250.84 973.725 3249.86 973.549 3248.68 973.549H3244.53V997.612H3238.38ZM3254.09 984.373L3261.32 997.612H3254.53L3247.46 984.373H3254.09ZM3264.63 997.612V968.521H3284.23V973.592H3270.78V980.524H3283.23V985.595H3270.78V992.541H3284.29V997.612H3264.63ZM3304.91 976.887C3304.79 975.742 3304.3 974.851 3303.44 974.217C3302.58 973.582 3301.41 973.265 3299.93 973.265C3298.93 973.265 3298.08 973.407 3297.39 973.691C3296.7 973.966 3296.17 974.35 3295.8 974.842C3295.44 975.334 3295.26 975.893 3295.26 976.518C3295.24 977.039 3295.35 977.493 3295.59 977.882C3295.83 978.27 3296.17 978.606 3296.6 978.89C3297.02 979.165 3297.51 979.406 3298.07 979.615C3298.63 979.814 3299.23 979.984 3299.86 980.126L3302.48 980.751C3303.75 981.035 3304.91 981.414 3305.97 981.887C3307.03 982.361 3307.95 982.943 3308.73 983.635C3309.5 984.326 3310.1 985.14 3310.53 986.078C3310.97 987.015 3311.19 988.09 3311.2 989.302C3311.19 991.082 3310.73 992.626 3309.83 993.933C3308.94 995.23 3307.66 996.239 3305.97 996.958C3304.29 997.669 3302.27 998.024 3299.91 998.024C3297.56 998.024 3295.51 997.664 3293.77 996.944C3292.04 996.225 3290.68 995.159 3289.71 993.748C3288.74 992.328 3288.23 990.571 3288.19 988.478H3294.14C3294.2 989.454 3294.48 990.268 3294.98 990.921C3295.48 991.565 3296.15 992.053 3296.98 992.385C3297.82 992.707 3298.77 992.867 3299.83 992.867C3300.88 992.867 3301.78 992.716 3302.55 992.413C3303.32 992.11 3303.93 991.689 3304.35 991.149C3304.78 990.609 3304.99 989.989 3304.99 989.288C3304.99 988.635 3304.8 988.085 3304.41 987.64C3304.03 987.195 3303.47 986.816 3302.73 986.504C3302 986.191 3301.11 985.907 3300.05 985.652L3296.88 984.856C3294.43 984.26 3292.49 983.327 3291.07 982.058C3289.65 980.789 3288.94 979.08 3288.95 976.93C3288.94 975.169 3289.41 973.63 3290.36 972.314C3291.32 970.997 3292.63 969.97 3294.29 969.231C3295.96 968.492 3297.86 968.123 3299.98 968.123C3302.14 968.123 3304.02 968.492 3305.63 969.231C3307.25 969.97 3308.51 970.997 3309.41 972.314C3310.31 973.63 3310.77 975.154 3310.8 976.887H3304.91ZM3314.23 973.592V968.521H3338.12V973.592H3329.21V997.612H3323.13V973.592H3314.23ZM3343.51 997.612H3336.92L3346.97 968.521H3354.89L3364.92 997.612H3358.33L3351.04 975.169H3350.81L3343.51 997.612ZM3343.1 986.177H3358.67V990.978H3343.1V986.177ZM3386.39 968.521H3392.54V987.413C3392.54 989.534 3392.03 991.39 3391.02 992.981C3390.02 994.572 3388.61 995.813 3386.8 996.703C3384.99 997.583 3382.89 998.024 3380.48 998.024C3378.07 998.024 3375.95 997.583 3374.15 996.703C3372.34 995.813 3370.93 994.572 3369.93 992.981C3368.92 991.39 3368.42 989.534 3368.42 987.413V968.521H3374.57V986.887C3374.57 987.995 3374.81 988.98 3375.3 989.842C3375.79 990.704 3376.48 991.381 3377.37 991.873C3378.26 992.366 3379.3 992.612 3380.48 992.612C3381.67 992.612 3382.71 992.366 3383.59 991.873C3384.48 991.381 3385.17 990.704 3385.65 989.842C3386.14 988.98 3386.39 987.995 3386.39 986.887V968.521ZM3397.6 997.612V968.521H3409.08C3411.27 968.521 3413.15 968.914 3414.7 969.7C3416.27 970.476 3417.45 971.58 3418.27 973.01C3419.09 974.43 3419.5 976.101 3419.5 978.024C3419.5 979.956 3419.09 981.617 3418.25 983.01C3417.42 984.392 3416.21 985.453 3414.63 986.191C3413.06 986.93 3411.16 987.299 3408.92 987.299H3401.24V982.356H3407.93C3409.1 982.356 3410.08 982.195 3410.85 981.873C3411.63 981.551 3412.21 981.068 3412.59 980.424C3412.97 979.78 3413.17 978.98 3413.17 978.024C3413.17 977.058 3412.97 976.243 3412.59 975.581C3412.21 974.918 3411.63 974.416 3410.84 974.075C3410.06 973.725 3409.08 973.549 3407.9 973.549H3403.75V997.612H3397.6ZM3413.31 984.373L3420.54 997.612H3413.75L3406.68 984.373H3413.31ZM3428.86 997.612H3422.27L3432.32 968.521H3440.24L3450.27 997.612H3443.68L3436.39 975.169H3436.17L3428.86 997.612ZM3428.45 986.177H3444.02V990.978H3428.45V986.177ZM3478.1 968.521V997.612H3472.79L3460.14 979.302H3459.92V997.612H3453.77V968.521H3459.17L3471.73 986.816H3471.98V968.521H3478.1ZM3482.08 973.592V968.521H3505.97V973.592H3497.06V997.612H3490.98V973.592H3482.08ZM3509.91 997.612V968.521H3529.51V973.592H3516.06V980.524H3528.5V985.595H3516.06V992.541H3529.56V997.612H3509.91Z" fill="white"/>
<path d="M4734.65 1571.93L4583.47 1484.09L5049.23 1088.47L5200.41 1176.31L4734.65 1571.93Z" fill="#B8732E"/>
<path d="M4443.62 1402.83L4205.52 1264.49L4790.07 767.973L5028.18 906.321L4443.62 1402.83Z" fill="#B8732E"/>
<path d="M4102.73 708.44L3932.65 609.62L4170.23 407.829L4340.3 506.649L4102.73 708.44Z" fill="#B8732E"/>
<path d="M4729.59 732.837L4535.78 897.456L4191.85 697.619L4298.13 607.345L4252.78 580.994L4340.3 506.65L4729.59 732.837Z" fill="#B8732E"/>
<path d="M4536.46 889.891L4470.58 851.611L4490.44 834.74L4556.32 873.02L4536.46 889.891Z" fill="#734619"/>
<path d="M4549.02 872.582L4483.14 834.302L4503 817.43L4568.88 855.71L4549.02 872.582Z" fill="#734619"/>
<path d="M4561.69 855.691L4495.81 817.411L4515.67 800.54L4581.55 838.82L4561.69 855.691Z" fill="#734619"/>
<path d="M4574.36 838.8L4508.47 800.519L4528.34 783.648L4594.22 821.929L4574.36 838.8Z" fill="#734619"/>
<path d="M4587.03 821.909L4521.14 783.629L4541 766.758L4606.89 805.038L4587.03 821.909Z" fill="#734619"/>
<path d="M4523.68 775.459L4457.8 737.179L4477.66 720.308L4543.55 758.588L4523.68 775.459Z" fill="#734619"/>
<path d="M4502.57 783.905L4436.69 745.624L4456.55 728.753L4522.43 767.034L4502.57 783.905Z" fill="#734619"/>
<path d="M4465.59 805.826L4399.71 767.546L4435.44 737.199L4501.32 775.479L4465.59 805.826Z" fill="#734619"/>
<path d="M4400.45 767.518L4361.31 744.781L4541.7 591.563L4580.83 614.301L4400.45 767.518Z" fill="#734619"/>
<path d="M4586.45 611.109L4457.8 536.357L4499.75 500.728L4628.4 575.479L4586.45 611.109Z" fill="#734619"/>
<path d="M4626.02 736.282L4519.88 674.615L4632.9 578.621L4739.03 640.288L4626.02 736.282Z" fill="#734619"/>
<path d="M4599.69 805.018L4478.76 734.753L4519.17 700.43L4640.1 770.694L4599.69 805.018Z" fill="#734619"/>
<path d="M4470.34 1226.61H4460.03V1197.52H4470.43C4473.35 1197.52 4475.87 1198.1 4477.98 1199.27C4480.09 1200.42 4481.72 1202.09 4482.86 1204.25C4484 1206.42 4484.57 1209.02 4484.57 1212.04C4484.57 1215.07 4484 1217.67 4482.86 1219.85C4481.72 1222.03 4480.09 1223.7 4477.95 1224.86C4475.83 1226.03 4473.3 1226.61 4470.34 1226.61ZM4466.18 1221.34H4470.09C4471.9 1221.34 4473.43 1221.02 4474.67 1220.38C4475.92 1219.72 4476.86 1218.71 4477.49 1217.35C4478.12 1215.98 4478.44 1214.21 4478.44 1212.04C4478.44 1209.89 4478.12 1208.13 4477.49 1206.77C4476.86 1205.4 4475.93 1204.4 4474.69 1203.76C4473.45 1203.11 4471.92 1202.79 4470.1 1202.79H4466.18V1221.34ZM4489.13 1226.61V1197.52H4508.73V1202.59H4495.28V1209.52H4507.72V1214.59H4495.28V1221.54H4508.79V1226.61H4489.13ZM4513.62 1226.61V1197.52H4525.1C4527.31 1197.52 4529.19 1197.94 4530.74 1198.79C4532.29 1199.62 4533.48 1200.78 4534.29 1202.27C4535.11 1203.74 4535.53 1205.45 4535.53 1207.38C4535.53 1209.31 4535.11 1211.02 4534.28 1212.49C4533.44 1213.97 4532.23 1215.12 4530.65 1215.94C4529.08 1216.77 4527.18 1217.18 4524.94 1217.18H4517.63V1212.25H4523.95C4525.13 1212.25 4526.11 1212.05 4526.88 1211.64C4527.65 1211.22 4528.23 1210.65 4528.61 1209.92C4529 1209.18 4529.19 1208.34 4529.19 1207.38C4529.19 1206.41 4529 1205.57 4528.61 1204.85C4528.23 1204.12 4527.65 1203.56 4526.88 1203.16C4526.1 1202.75 4525.11 1202.55 4523.92 1202.55H4519.77V1226.61H4513.62ZM4541.18 1226.61H4534.58L4544.63 1197.52H4552.55L4562.58 1226.61H4555.99L4548.7 1204.17H4548.48L4541.18 1226.61ZM4540.76 1215.18H4556.33V1219.98H4540.76V1215.18ZM4566.08 1226.61V1197.52H4577.56C4579.76 1197.52 4581.63 1197.91 4583.19 1198.7C4584.75 1199.48 4585.94 1200.58 4586.75 1202.01C4587.57 1203.43 4587.99 1205.1 4587.99 1207.02C4587.99 1208.96 4587.57 1210.62 4586.74 1212.01C4585.9 1213.39 4584.7 1214.45 4583.11 1215.19C4581.54 1215.93 4579.64 1216.3 4577.4 1216.3H4569.72V1211.36H4576.41C4577.58 1211.36 4578.56 1211.2 4579.34 1210.87C4580.11 1210.55 4580.69 1210.07 4581.07 1209.42C4581.46 1208.78 4581.65 1207.98 4581.65 1207.02C4581.65 1206.06 4581.46 1205.24 4581.07 1204.58C4580.69 1203.92 4580.11 1203.42 4579.32 1203.07C4578.55 1202.72 4577.57 1202.55 4576.38 1202.55H4572.23V1226.61H4566.08ZM4581.79 1213.37L4589.02 1226.61H4582.23L4575.16 1213.37H4581.79ZM4591.23 1202.59V1197.52H4615.12V1202.59H4606.21V1226.61H4600.13V1202.59H4591.23ZM4620.51 1226.61H4613.92L4623.96 1197.52H4631.89L4641.92 1226.61H4635.33L4628.04 1204.17H4627.81L4620.51 1226.61ZM4620.1 1215.18H4635.67V1219.98H4620.1V1215.18ZM4645.42 1197.52H4653L4661.02 1217.07H4661.36L4669.37 1197.52H4676.95V1226.61H4670.99V1207.68H4670.75L4663.22 1226.47H4659.15L4651.63 1207.61H4651.38V1226.61H4645.42V1197.52ZM4682.02 1226.61V1197.52H4701.62V1202.59H4688.17V1209.52H4700.61V1214.59H4688.17V1221.54H4701.68V1226.61H4682.02ZM4730.85 1197.52V1226.61H4725.53L4712.88 1208.3H4712.66V1226.61H4706.51V1197.52H4711.91L4724.47 1215.82H4724.72V1197.52H4730.85ZM4734.82 1202.59V1197.52H4758.71V1202.59H4749.8V1226.61H4743.73V1202.59H4734.82ZM4788.05 1212.07C4788.05 1215.24 4787.45 1217.94 4786.25 1220.16C4785.05 1222.39 4783.42 1224.09 4781.36 1225.26C4779.31 1226.43 4776.99 1227.01 4774.43 1227.01C4771.84 1227.01 4769.52 1226.42 4767.47 1225.25C4765.41 1224.07 4763.79 1222.37 4762.6 1220.15C4761.4 1217.92 4760.81 1215.23 4760.81 1212.07C4760.81 1208.89 4761.4 1206.2 4762.6 1203.97C4763.79 1201.74 4765.41 1200.05 4767.47 1198.88C4769.52 1197.71 4771.84 1197.12 4774.43 1197.12C4776.99 1197.12 4779.31 1197.71 4781.36 1198.88C4783.42 1200.05 4785.05 1201.74 4786.25 1203.97C4787.45 1206.2 4788.05 1208.89 4788.05 1212.07ZM4781.81 1212.07C4781.81 1210.01 4781.51 1208.28 4780.89 1206.87C4780.29 1205.46 4779.43 1204.39 4778.32 1203.66C4777.21 1202.93 4775.92 1202.56 4774.43 1202.56C4772.94 1202.56 4771.64 1202.93 4770.54 1203.66C4769.43 1204.39 4768.57 1205.46 4767.95 1206.87C4767.34 1208.28 4767.04 1210.01 4767.04 1212.07C4767.04 1214.12 4767.34 1215.85 4767.95 1217.27C4768.57 1218.68 4769.43 1219.75 4770.54 1220.48C4771.64 1221.2 4772.94 1221.57 4774.43 1221.57C4775.92 1221.57 4777.21 1221.2 4778.32 1220.48C4779.43 1219.75 4780.29 1218.68 4780.89 1217.27C4781.51 1215.85 4781.81 1214.12 4781.81 1212.07ZM4470.34 1274.61H4460.03V1245.52H4470.43C4473.35 1245.52 4475.87 1246.1 4477.98 1247.27C4480.09 1248.42 4481.72 1250.09 4482.86 1252.25C4484 1254.42 4484.57 1257.02 4484.57 1260.04C4484.57 1263.07 4484 1265.67 4482.86 1267.85C4481.72 1270.03 4480.09 1271.7 4477.95 1272.86C4475.83 1274.03 4473.3 1274.61 4470.34 1274.61ZM4466.18 1269.34H4470.09C4471.9 1269.34 4473.43 1269.02 4474.67 1268.38C4475.92 1267.72 4476.86 1266.71 4477.49 1265.35C4478.12 1263.98 4478.44 1262.21 4478.44 1260.04C4478.44 1257.89 4478.12 1256.13 4477.49 1254.77C4476.86 1253.4 4475.93 1252.4 4474.69 1251.76C4473.45 1251.11 4471.92 1250.79 4470.1 1250.79H4466.18V1269.34ZM4489.13 1274.61V1245.52H4508.73V1250.59H4495.28V1257.52H4507.72V1262.59H4495.28V1269.54H4508.79V1274.61H4489.13ZM4533.19 1274.61H4522.88V1245.52H4533.28C4536.2 1245.52 4538.72 1246.1 4540.83 1247.27C4542.95 1248.42 4544.57 1250.09 4545.71 1252.25C4546.85 1254.42 4547.43 1257.02 4547.43 1260.04C4547.43 1263.07 4546.85 1265.67 4545.71 1267.85C4544.57 1270.03 4542.94 1271.7 4540.81 1272.86C4538.68 1274.03 4536.15 1274.61 4533.19 1274.61ZM4529.03 1269.34H4532.94C4534.75 1269.34 4536.28 1269.02 4537.52 1268.38C4538.77 1267.72 4539.71 1266.71 4540.34 1265.35C4540.97 1263.98 4541.29 1262.21 4541.29 1260.04C4541.29 1257.89 4540.97 1256.13 4540.34 1254.77C4539.71 1253.4 4538.78 1252.4 4537.54 1251.76C4536.3 1251.11 4534.77 1250.79 4532.95 1250.79H4529.03V1269.34ZM4551.98 1274.61V1245.52H4571.58V1250.59H4558.13V1257.52H4570.58V1262.59H4558.13V1269.54H4571.64V1274.61H4551.98ZM4592.25 1253.89C4592.14 1252.74 4591.65 1251.85 4590.79 1251.22C4589.93 1250.58 4588.76 1250.27 4587.28 1250.27C4586.28 1250.27 4585.43 1250.41 4584.74 1250.69C4584.05 1250.97 4583.52 1251.35 4583.15 1251.84C4582.79 1252.33 4582.61 1252.89 4582.61 1253.52C4582.59 1254.04 4582.7 1254.49 4582.94 1254.88C4583.18 1255.27 4583.52 1255.61 4583.95 1255.89C4584.37 1256.16 4584.86 1256.41 4585.42 1256.61C4585.98 1256.81 4586.58 1256.98 4587.21 1257.13L4589.83 1257.75C4591.09 1258.04 4592.26 1258.41 4593.32 1258.89C4594.38 1259.36 4595.3 1259.94 4596.08 1260.63C4596.85 1261.33 4597.45 1262.14 4597.88 1263.08C4598.32 1264.02 4598.54 1265.09 4598.55 1266.3C4598.54 1268.08 4598.08 1269.63 4597.18 1270.93C4596.29 1272.23 4595.01 1273.24 4593.32 1273.96C4591.64 1274.67 4589.62 1275.02 4587.25 1275.02C4584.91 1275.02 4582.86 1274.66 4581.12 1273.94C4579.39 1273.22 4578.03 1272.16 4577.06 1270.75C4576.09 1269.33 4575.58 1267.57 4575.54 1265.48H4581.49C4581.55 1266.45 4581.83 1267.27 4582.33 1267.92C4582.83 1268.57 4583.5 1269.05 4584.33 1269.38C4585.17 1269.71 4586.12 1269.87 4587.18 1269.87C4588.23 1269.87 4589.13 1269.72 4589.9 1269.41C4590.67 1269.11 4591.27 1268.69 4591.7 1268.15C4592.13 1267.61 4592.34 1266.99 4592.34 1266.29C4592.34 1265.63 4592.15 1265.09 4591.76 1264.64C4591.38 1264.2 4590.82 1263.82 4590.08 1263.5C4589.35 1263.19 4588.46 1262.91 4587.4 1262.65L4584.23 1261.86C4581.78 1261.26 4579.84 1260.33 4578.42 1259.06C4577 1257.79 4576.29 1256.08 4576.3 1253.93C4576.29 1252.17 4576.76 1250.63 4577.71 1249.31C4578.67 1248 4579.98 1246.97 4581.64 1246.23C4583.31 1245.49 4585.2 1245.12 4587.33 1245.12C4589.49 1245.12 4591.37 1245.49 4592.98 1246.23C4594.6 1246.97 4595.86 1248 4596.76 1249.31C4597.66 1250.63 4598.12 1252.15 4598.15 1253.89H4592.25ZM4608.84 1245.52V1274.61H4602.68V1245.52H4608.84ZM4633.19 1254.92C4632.99 1254.23 4632.71 1253.62 4632.35 1253.09C4631.99 1252.55 4631.55 1252.1 4631.03 1251.73C4630.51 1251.35 4629.93 1251.06 4629.26 1250.86C4628.61 1250.66 4627.89 1250.56 4627.09 1250.56C4625.6 1250.56 4624.3 1250.93 4623.17 1251.67C4622.05 1252.41 4621.18 1253.48 4620.56 1254.9C4619.93 1256.3 4619.62 1258.01 4619.62 1260.04C4619.62 1262.06 4619.93 1263.79 4620.54 1265.21C4621.16 1266.63 4622.03 1267.71 4623.16 1268.46C4624.28 1269.2 4625.61 1269.57 4627.15 1269.57C4628.54 1269.57 4629.73 1269.32 4630.71 1268.83C4631.71 1268.33 4632.47 1267.62 4632.99 1266.71C4633.52 1265.8 4633.78 1264.73 4633.78 1263.49L4635.03 1263.67H4627.53V1259.04H4639.71V1262.71C4639.71 1265.27 4639.17 1267.46 4638.09 1269.3C4637.01 1271.13 4635.52 1272.54 4633.63 1273.53C4631.73 1274.52 4629.56 1275.01 4627.12 1275.01C4624.39 1275.01 4622 1274.41 4619.93 1273.21C4617.87 1271.99 4616.26 1270.27 4615.1 1268.05C4613.96 1265.81 4613.38 1263.16 4613.38 1260.09C4613.38 1257.74 4613.73 1255.63 4614.41 1253.79C4615.1 1251.93 4616.06 1250.36 4617.3 1249.07C4618.55 1247.78 4619.99 1246.8 4621.64 1246.13C4623.28 1245.46 4625.07 1245.12 4626.99 1245.12C4628.64 1245.12 4630.17 1245.36 4631.59 1245.85C4633.01 1246.32 4634.27 1246.99 4635.37 1247.86C4636.48 1248.74 4637.39 1249.77 4638.09 1250.98C4638.79 1252.17 4639.24 1253.48 4639.44 1254.92H4633.19ZM4668.66 1245.52V1274.61H4663.35L4650.69 1256.3H4650.48V1274.61H4644.33V1245.52H4649.72L4662.28 1263.82H4662.54V1245.52H4668.66Z" fill="white"/>
<path d="M4372.03 464.612V435.521H4383.51C4385.71 435.521 4387.59 435.942 4389.14 436.785C4390.7 437.618 4391.88 438.778 4392.7 440.265C4393.52 441.742 4393.93 443.447 4393.93 445.379C4393.93 447.311 4393.52 449.015 4392.68 450.492C4391.85 451.97 4390.64 453.12 4389.06 453.944C4387.49 454.768 4385.58 455.18 4383.35 455.18H4376.03V450.251H4382.36C4383.54 450.251 4384.51 450.047 4385.28 449.64C4386.06 449.224 4386.64 448.651 4387.01 447.921C4387.4 447.183 4387.6 446.335 4387.6 445.379C4387.6 444.413 4387.4 443.57 4387.01 442.85C4386.64 442.121 4386.06 441.558 4385.28 441.16C4384.5 440.753 4383.52 440.549 4382.33 440.549H4378.18V464.612H4372.03ZM4397.93 464.612V435.521H4409.4C4411.61 435.521 4413.49 435.942 4415.04 436.785C4416.6 437.618 4417.78 438.778 4418.59 440.265C4419.42 441.742 4419.83 443.447 4419.83 445.379C4419.83 447.311 4419.41 449.015 4418.58 450.492C4417.75 451.97 4416.54 453.12 4414.96 453.944C4413.39 454.768 4411.48 455.18 4409.25 455.18H4401.93V450.251H4408.25C4409.44 450.251 4410.41 450.047 4411.18 449.64C4411.96 449.224 4412.53 448.651 4412.91 447.921C4413.3 447.183 4413.5 446.335 4413.5 445.379C4413.5 444.413 4413.3 443.57 4412.91 442.85C4412.53 442.121 4411.96 441.558 4411.18 441.16C4410.4 440.753 4409.42 440.549 4408.23 440.549H4404.08V464.612H4397.93ZM4443.12 444.924C4442.92 444.233 4442.64 443.622 4442.28 443.092C4441.92 442.552 4441.48 442.098 4440.96 441.728C4440.44 441.35 4439.86 441.061 4439.19 440.862C4438.54 440.663 4437.82 440.564 4437.02 440.564C4435.53 440.564 4434.23 440.933 4433.1 441.671C4431.98 442.41 4431.11 443.485 4430.49 444.896C4429.86 446.297 4429.55 448.011 4429.55 450.038C4429.55 452.064 4429.86 453.788 4430.47 455.208C4431.09 456.629 4431.96 457.713 4433.09 458.461C4434.21 459.2 4435.54 459.569 4437.08 459.569C4438.47 459.569 4439.66 459.323 4440.64 458.831C4441.64 458.329 4442.4 457.623 4442.92 456.714C4443.45 455.805 4443.71 454.73 4443.71 453.49L4444.96 453.674H4437.46V449.044H4449.63V452.708C4449.63 455.265 4449.1 457.462 4448.02 459.299C4446.94 461.127 4445.45 462.538 4443.56 463.532C4441.66 464.517 4439.49 465.01 4437.05 465.01C4434.32 465.01 4431.93 464.408 4429.86 463.206C4427.8 461.993 4426.19 460.275 4425.03 458.049C4423.89 455.814 4423.31 453.163 4423.31 450.095C4423.31 447.737 4423.65 445.635 4424.34 443.788C4425.03 441.932 4425.99 440.36 4427.23 439.072C4428.47 437.784 4429.92 436.804 4431.57 436.132C4433.21 435.459 4435 435.123 4436.92 435.123C4438.57 435.123 4440.1 435.365 4441.52 435.848C4442.94 436.321 4444.2 436.993 4445.3 437.865C4446.41 438.736 4447.31 439.773 4448.02 440.975C4448.72 442.169 4449.17 443.485 4449.37 444.924H4443.12ZM4464.57 464.612H4454.25V435.521H4464.65C4467.58 435.521 4470.1 436.103 4472.21 437.268C4474.32 438.423 4475.95 440.085 4477.08 442.254C4478.23 444.422 4478.8 447.017 4478.8 450.038C4478.8 453.068 4478.23 455.672 4477.08 457.85C4475.95 460.028 4474.31 461.7 4472.18 462.865C4470.06 464.029 4467.52 464.612 4464.57 464.612ZM4460.41 459.342H4464.31C4466.13 459.342 4467.66 459.02 4468.9 458.376C4470.15 457.723 4471.09 456.714 4471.71 455.35C4472.35 453.977 4472.66 452.207 4472.66 450.038C4472.66 447.888 4472.35 446.132 4471.71 444.768C4471.09 443.404 4470.15 442.401 4468.91 441.757C4467.67 441.113 4466.14 440.791 4464.33 440.791H4460.41V459.342ZM4483.36 464.612V435.521H4502.96V440.592H4489.51V447.524H4501.95V452.595H4489.51V459.541H4503.02V464.612H4483.36ZM4523.63 443.887C4523.52 442.742 4523.03 441.851 4522.17 441.217C4521.31 440.582 4520.14 440.265 4518.66 440.265C4517.65 440.265 4516.81 440.407 4516.12 440.691C4515.42 440.966 4514.89 441.35 4514.52 441.842C4514.17 442.334 4513.99 442.893 4513.99 443.518C4513.97 444.039 4514.08 444.493 4514.31 444.882C4514.56 445.27 4514.89 445.606 4515.32 445.89C4515.75 446.165 4516.24 446.406 4516.8 446.615C4517.36 446.814 4517.95 446.984 4518.59 447.126L4521.2 447.751C4522.47 448.035 4523.63 448.414 4524.7 448.887C4525.76 449.361 4526.67 449.943 4527.45 450.635C4528.23 451.326 4528.83 452.14 4529.25 453.078C4529.69 454.015 4529.91 455.09 4529.92 456.302C4529.91 458.082 4529.46 459.626 4528.56 460.933C4527.67 462.23 4526.38 463.239 4524.7 463.958C4523.02 464.669 4521 465.024 4518.63 465.024C4516.28 465.024 4514.24 464.664 4512.49 463.944C4510.76 463.225 4509.41 462.159 4508.43 460.748C4507.47 459.328 4506.96 457.571 4506.91 455.478H4512.86C4512.93 456.454 4513.21 457.268 4513.7 457.921C4514.2 458.565 4514.87 459.053 4515.7 459.385C4516.55 459.707 4517.5 459.867 4518.56 459.867C4519.6 459.867 4520.5 459.716 4521.27 459.413C4522.05 459.11 4522.65 458.689 4523.08 458.149C4523.5 457.609 4523.72 456.989 4523.72 456.288C4523.72 455.635 4523.52 455.085 4523.13 454.64C4522.75 454.195 4522.2 453.816 4521.46 453.504C4520.73 453.191 4519.83 452.907 4518.77 452.652L4515.6 451.856C4513.15 451.26 4511.22 450.327 4509.79 449.058C4508.37 447.789 4507.67 446.08 4507.68 443.93C4507.67 442.169 4508.14 440.63 4509.08 439.314C4510.04 437.997 4511.35 436.97 4513.02 436.231C4514.69 435.492 4516.58 435.123 4518.7 435.123C4520.86 435.123 4522.74 435.492 4524.35 436.231C4525.97 436.97 4527.23 437.997 4528.13 439.314C4529.03 440.63 4529.5 442.154 4529.52 443.887H4523.63ZM4540.21 435.521V464.612H4534.06V435.521H4540.21ZM4564.56 444.924C4564.36 444.233 4564.08 443.622 4563.72 443.092C4563.36 442.552 4562.92 442.098 4562.4 441.728C4561.89 441.35 4561.3 441.061 4560.64 440.862C4559.99 440.663 4559.26 440.564 4558.47 440.564C4556.98 440.564 4555.67 440.933 4554.55 441.671C4553.43 442.41 4552.56 443.485 4551.93 444.896C4551.31 446.297 4551 448.011 4551 450.038C4551 452.064 4551.3 453.788 4551.92 455.208C4552.53 456.629 4553.41 457.713 4554.53 458.461C4555.66 459.2 4556.99 459.569 4558.52 459.569C4559.92 459.569 4561.1 459.323 4562.09 458.831C4563.08 458.329 4563.84 457.623 4564.36 456.714C4564.89 455.805 4565.16 454.73 4565.16 453.49L4566.41 453.674H4558.91V449.044H4571.08V452.708C4571.08 455.265 4570.54 457.462 4569.46 459.299C4568.38 461.127 4566.89 462.538 4565 463.532C4563.11 464.517 4560.94 465.01 4558.5 465.01C4555.77 465.01 4553.37 464.408 4551.31 463.206C4549.24 461.993 4547.63 460.275 4546.48 458.049C4545.33 455.814 4544.76 453.163 4544.76 450.095C4544.76 447.737 4545.1 445.635 4545.78 443.788C4546.47 441.932 4547.44 440.36 4548.68 439.072C4549.92 437.784 4551.36 436.804 4553.01 436.132C4554.66 435.459 4556.44 435.123 4558.37 435.123C4560.01 435.123 4561.55 435.365 4562.97 435.848C4564.39 436.321 4565.65 436.993 4566.75 437.865C4567.86 438.736 4568.76 439.773 4569.46 440.975C4570.16 442.169 4570.61 443.485 4570.81 444.924H4564.56ZM4600.03 435.521V464.612H4594.72L4582.06 446.302H4581.85V464.612H4575.7V435.521H4581.1L4593.65 453.816H4593.91V435.521H4600.03Z" fill="#734619"/>
<path d="M4610.16 528.887C4610.05 527.742 4609.56 526.851 4608.7 526.217C4607.84 525.582 4606.67 525.265 4605.19 525.265C4604.19 525.265 4603.34 525.407 4602.65 525.691C4601.96 525.966 4601.43 526.35 4601.06 526.842C4600.7 527.334 4600.52 527.893 4600.52 528.518C4600.5 529.039 4600.61 529.493 4600.84 529.882C4601.09 530.27 4601.43 530.606 4601.85 530.89C4602.28 531.165 4602.77 531.406 4603.33 531.615C4603.89 531.814 4604.49 531.984 4605.12 532.126L4607.73 532.751C4609 533.035 4610.17 533.414 4611.23 533.887C4612.29 534.361 4613.21 534.943 4613.98 535.635C4614.76 536.326 4615.36 537.14 4615.79 538.078C4616.22 539.015 4616.45 540.09 4616.46 541.302C4616.45 543.082 4615.99 544.626 4615.09 545.933C4614.2 547.23 4612.91 548.239 4611.23 548.958C4609.55 549.669 4607.53 550.024 4605.16 550.024C4602.81 550.024 4600.77 549.664 4599.03 548.944C4597.29 548.225 4595.94 547.159 4594.96 545.748C4594 544.328 4593.49 542.571 4593.44 540.478H4599.4C4599.46 541.454 4599.74 542.268 4600.23 542.921C4600.74 543.565 4601.4 544.053 4602.24 544.385C4603.08 544.707 4604.03 544.867 4605.09 544.867C4606.13 544.867 4607.04 544.716 4607.81 544.413C4608.58 544.11 4609.18 543.689 4609.61 543.149C4610.04 542.609 4610.25 541.989 4610.25 541.288C4610.25 540.635 4610.05 540.085 4609.67 539.64C4609.29 539.195 4608.73 538.816 4607.99 538.504C4607.26 538.191 4606.37 537.907 4605.31 537.652L4602.14 536.856C4599.68 536.26 4597.75 535.327 4596.33 534.058C4594.91 532.789 4594.2 531.08 4594.21 528.93C4594.2 527.169 4594.67 525.63 4595.62 524.314C4596.57 522.997 4597.89 521.97 4599.55 521.231C4601.22 520.492 4603.11 520.123 4605.23 520.123C4607.39 520.123 4609.28 520.492 4610.89 521.231C4612.51 521.97 4613.77 522.997 4614.67 524.314C4615.57 525.63 4616.03 527.154 4616.06 528.887H4610.16ZM4620.59 549.612V520.521H4640.2V525.592H4626.74V532.524H4639.19V537.595H4626.74V544.541H4640.25V549.612H4620.59ZM4670.75 530.706H4664.53C4664.42 529.901 4664.19 529.186 4663.84 528.561C4663.48 527.926 4663.03 527.386 4662.49 526.941C4661.94 526.496 4661.3 526.155 4660.58 525.919C4659.87 525.682 4659.1 525.564 4658.27 525.564C4656.76 525.564 4655.45 525.938 4654.33 526.686C4653.21 527.424 4652.35 528.504 4651.73 529.924C4651.12 531.335 4650.81 533.049 4650.81 535.066C4650.81 537.14 4651.12 538.883 4651.73 540.294C4652.36 541.705 4653.23 542.77 4654.35 543.49C4655.46 544.209 4656.76 544.569 4658.22 544.569C4659.05 544.569 4659.81 544.46 4660.51 544.242C4661.22 544.025 4661.85 543.707 4662.4 543.291C4662.95 542.865 4663.4 542.349 4663.76 541.742C4664.13 541.136 4664.39 540.445 4664.53 539.669L4670.75 539.697C4670.59 541.032 4670.19 542.32 4669.55 543.561C4668.91 544.792 4668.05 545.895 4666.97 546.87C4665.9 547.836 4664.63 548.603 4663.14 549.171C4661.66 549.73 4659.99 550.01 4658.12 550.01C4655.53 550.01 4653.21 549.422 4651.16 548.248C4649.13 547.074 4647.52 545.374 4646.34 543.149C4645.16 540.923 4644.57 538.229 4644.57 535.066C4644.57 531.894 4645.17 529.195 4646.36 526.97C4647.56 524.744 4649.18 523.049 4651.22 521.885C4653.27 520.71 4655.57 520.123 4658.12 520.123C4659.81 520.123 4661.37 520.36 4662.81 520.833C4664.26 521.307 4665.54 521.998 4666.66 522.907C4667.78 523.807 4668.69 524.91 4669.39 526.217C4670.1 527.524 4670.55 529.02 4670.75 530.706ZM4675.16 549.612V520.521H4686.64C4688.84 520.521 4690.71 520.914 4692.27 521.7C4693.83 522.476 4695.02 523.58 4695.83 525.01C4696.65 526.43 4697.07 528.101 4697.07 530.024C4697.07 531.956 4696.65 533.617 4695.82 535.01C4694.98 536.392 4693.78 537.453 4692.19 538.191C4690.62 538.93 4688.72 539.299 4686.48 539.299H4678.8V534.356H4685.49C4686.66 534.356 4687.64 534.195 4688.42 533.873C4689.19 533.551 4689.77 533.068 4690.15 532.424C4690.54 531.78 4690.73 530.98 4690.73 530.024C4690.73 529.058 4690.54 528.243 4690.15 527.581C4689.77 526.918 4689.19 526.416 4688.4 526.075C4687.63 525.725 4686.65 525.549 4685.46 525.549H4681.31V549.612H4675.16ZM4690.87 536.373L4698.1 549.612H4691.31L4684.24 536.373H4690.87ZM4701.41 549.612V520.521H4721.02V525.592H4707.56V532.524H4720.01V537.595H4707.56V544.541H4721.07V549.612H4701.41ZM4724.8 525.592V520.521H4748.69V525.592H4739.78V549.612H4733.7V525.592H4724.8ZM4754.08 549.612H4747.49L4757.54 520.521H4765.46L4775.49 549.612H4768.9L4761.61 527.169H4761.38L4754.08 549.612ZM4753.67 538.177H4769.24V542.978H4753.67V538.177ZM4778.99 549.612V520.521H4790.47C4792.67 520.521 4794.54 520.914 4796.09 521.7C4797.66 522.476 4798.84 523.58 4799.66 525.01C4800.48 526.43 4800.89 528.101 4800.89 530.024C4800.89 531.956 4800.48 533.617 4799.64 535.01C4798.81 536.392 4797.6 537.453 4796.02 538.191C4794.45 538.93 4792.55 539.299 4790.31 539.299H4782.63V534.356H4789.32C4790.49 534.356 4791.47 534.195 4792.24 533.873C4793.02 533.551 4793.6 533.068 4793.98 532.424C4794.37 531.78 4794.56 530.98 4794.56 530.024C4794.56 529.058 4794.37 528.243 4793.98 527.581C4793.6 526.918 4793.02 526.416 4792.23 526.075C4791.45 525.725 4790.47 525.549 4789.29 525.549H4785.14V549.612H4778.99ZM4794.7 536.373L4801.93 549.612H4795.14L4788.07 536.373H4794.7ZM4811.39 520.521V549.612H4805.24V520.521H4811.39ZM4821.47 549.612H4814.88L4824.92 520.521H4832.84L4842.87 549.612H4836.28L4828.99 527.169H4828.77L4821.47 549.612ZM4821.05 538.177H4836.62V542.978H4821.05V538.177Z" fill="#734619"/>
<path d="M4724.16 596.887C4724.05 595.742 4723.56 594.851 4722.7 594.217C4721.84 593.582 4720.67 593.265 4719.19 593.265C4718.19 593.265 4717.34 593.407 4716.65 593.691C4715.96 593.966 4715.43 594.35 4715.06 594.842C4714.7 595.334 4714.52 595.893 4714.52 596.518C4714.5 597.039 4714.61 597.493 4714.84 597.882C4715.09 598.27 4715.43 598.606 4715.85 598.89C4716.28 599.165 4716.77 599.406 4717.33 599.615C4717.89 599.814 4718.49 599.984 4719.12 600.126L4721.73 600.751C4723 601.035 4724.17 601.414 4725.23 601.887C4726.29 602.361 4727.21 602.943 4727.98 603.635C4728.76 604.326 4729.36 605.14 4729.79 606.078C4730.22 607.015 4730.45 608.09 4730.46 609.302C4730.45 611.082 4729.99 612.626 4729.09 613.933C4728.2 615.23 4726.91 616.239 4725.23 616.958C4723.55 617.669 4721.53 618.024 4719.16 618.024C4716.81 618.024 4714.77 617.664 4713.03 616.944C4711.29 616.225 4709.94 615.159 4708.96 613.748C4708 612.328 4707.49 610.571 4707.44 608.478H4713.4C4713.46 609.454 4713.74 610.268 4714.23 610.921C4714.74 611.565 4715.4 612.053 4716.24 612.385C4717.08 612.707 4718.03 612.867 4719.09 612.867C4720.13 612.867 4721.04 612.716 4721.81 612.413C4722.58 612.11 4723.18 611.689 4723.61 611.149C4724.04 610.609 4724.25 609.989 4724.25 609.288C4724.25 608.635 4724.05 608.085 4723.67 607.64C4723.29 607.195 4722.73 606.816 4721.99 606.504C4721.26 606.191 4720.37 605.907 4719.31 605.652L4716.14 604.856C4713.68 604.26 4711.75 603.327 4710.33 602.058C4708.91 600.789 4708.2 599.08 4708.21 596.93C4708.2 595.169 4708.67 593.63 4709.62 592.314C4710.57 590.997 4711.89 589.97 4713.55 589.231C4715.22 588.492 4717.11 588.123 4719.23 588.123C4721.39 588.123 4723.28 588.492 4724.89 589.231C4726.51 589.97 4727.77 590.997 4728.67 592.314C4729.57 593.63 4730.03 595.154 4730.06 596.887H4724.16ZM4738.94 617.612H4732.35L4742.39 588.521H4750.32L4760.35 617.612H4753.76L4746.47 595.169H4746.24L4738.94 617.612ZM4738.53 606.177H4754.1V610.978H4738.53V606.177ZM4763.85 617.612V588.521H4770V612.541H4782.47V617.612H4763.85ZM4792.3 617.612H4785.71L4795.75 588.521H4803.68L4813.71 617.612H4807.12L4799.83 595.169H4799.6L4792.3 617.612ZM4791.89 606.177H4807.46V610.978H4791.89V606.177ZM4836.78 617.612H4826.47V588.521H4836.87C4839.79 588.521 4842.31 589.103 4844.42 590.268C4846.53 591.423 4848.16 593.085 4849.29 595.254C4850.44 597.422 4851.01 600.017 4851.01 603.038C4851.01 606.068 4850.44 608.672 4849.29 610.85C4848.16 613.028 4846.52 614.7 4844.39 615.865C4842.27 617.029 4839.73 617.612 4836.78 617.612ZM4832.62 612.342H4836.52C4838.34 612.342 4839.87 612.02 4841.11 611.376C4842.36 610.723 4843.3 609.714 4843.93 608.35C4844.56 606.977 4844.88 605.207 4844.88 603.038C4844.88 600.888 4844.56 599.132 4843.93 597.768C4843.3 596.404 4842.37 595.401 4841.13 594.757C4839.89 594.113 4838.36 593.791 4836.54 593.791H4832.62V612.342ZM4855.57 617.612V588.521H4875.17V593.592H4861.72V600.524H4874.16V605.595H4861.72V612.541H4875.23V617.612H4855.57ZM4894.33 617.612H4887.74L4897.79 588.521H4905.71L4915.74 617.612H4909.15L4901.86 595.169H4901.63L4894.33 617.612ZM4893.92 606.177H4909.49V610.978H4893.92V606.177ZM4937.21 588.521H4943.36V607.413C4943.36 609.534 4942.85 611.39 4941.84 612.981C4940.84 614.572 4939.43 615.813 4937.62 616.703C4935.81 617.583 4933.71 618.024 4931.3 618.024C4928.89 618.024 4926.77 617.583 4924.97 616.703C4923.16 615.813 4921.75 614.572 4920.75 612.981C4919.74 611.39 4919.24 609.534 4919.24 607.413V588.521H4925.39V606.887C4925.39 607.995 4925.63 608.98 4926.12 609.842C4926.61 610.704 4927.3 611.381 4928.19 611.873C4929.08 612.366 4930.12 612.612 4931.3 612.612C4932.49 612.612 4933.53 612.366 4934.41 611.873C4935.3 611.381 4935.99 610.704 4936.47 609.842C4936.96 608.98 4937.21 607.995 4937.21 606.887V588.521ZM4948.42 617.612V588.521H4954.57V612.541H4967.04V617.612H4948.42ZM4976.87 617.612H4970.28L4980.32 588.521H4988.25L4998.28 617.612H4991.69L4984.4 595.169H4984.17L4976.87 617.612ZM4976.46 606.177H4992.03V610.978H4976.46V606.177Z" fill="#734619"/>
<path d="M4536.04 950.539L4539.28 954.354L4544.69 949.765L4538.55 946.211L4536.04 950.539ZM4470.41 912.575L4466.46 909.506L4462.95 914.033L4467.91 916.904L4470.41 912.575ZM4586.85 762.83L4590.8 765.899L4594.43 761.235L4589.23 758.43L4586.85 762.83ZM4536.04 735.412L4538.42 731.012L4536.52 729.986L4534.47 730.667L4536.04 735.412ZM4440.77 767.048L4438.3 771.393L4440.23 772.495L4442.35 771.793L4440.77 767.048ZM4396.31 741.739L4393.11 737.903L4387.58 742.522L4393.84 746.084L4396.31 741.739ZM4519.85 643.056C4520.1 640.306 4518.07 637.877 4515.32 637.632L4470.49 633.631C4467.74 633.385 4465.32 635.416 4465.07 638.166C4464.82 640.917 4466.85 643.346 4469.61 643.591L4509.45 647.147L4505.89 686.989C4505.64 689.74 4507.68 692.168 4510.43 692.414C4513.18 692.659 4515.61 690.629 4515.85 687.878L4519.85 643.056ZM4351.85 1106.61L4355.09 1110.43L4539.28 954.354L4536.04 950.539L4532.81 946.724L4348.62 1102.8L4351.85 1106.61ZM4536.04 950.539L4538.55 946.211L4472.92 908.247L4470.41 912.575L4467.91 916.904L4533.54 954.867L4536.04 950.539ZM4470.41 912.575L4474.36 915.645L4590.8 765.899L4586.85 762.83L4582.91 759.761L4466.46 909.506L4470.41 912.575ZM4586.85 762.83L4589.23 758.43L4538.42 731.012L4536.04 735.412L4533.67 739.812L4584.48 767.23L4586.85 762.83ZM4536.04 735.412L4534.47 730.667L4439.2 762.303L4440.77 767.048L4442.35 771.793L4537.62 740.157L4536.04 735.412ZM4440.77 767.048L4443.25 762.703L4398.79 737.394L4396.31 741.739L4393.84 746.084L4438.3 771.393L4440.77 767.048ZM4396.31 741.739L4399.52 745.575L4518.08 646.448L4514.87 642.612L4511.66 638.776L4393.11 737.903L4396.31 741.739Z" fill="black"/>
<rect width="23.6003" height="58.2675" transform="matrix(0.864645 0.502384 -0.762169 0.647379 2551.32 1594.41)" fill="#868686"/>
<rect width="23.6003" height="58.2675" transform="matrix(0.864645 0.502384 -0.762169 0.647379 2563.99 1594.41)" fill="#868686"/>
<rect width="23.6003" height="58.2675" transform="matrix(0.864645 0.502384 -0.762169 0.647379 2576.65 1594.41)" fill="#868686"/>
<rect width="23.6003" height="58.2675" transform="matrix(0.864645 0.502384 -0.762169 0.647379 2593.55 1594.41)" fill="#868686"/>
<rect width="23.6003" height="58.2675" transform="matrix(0.864645 0.502384 -0.762169 0.647379 2606.21 1594.41)" fill="#868686"/>
<rect width="23.6003" height="58.2675" transform="matrix(0.864645 0.502384 -0.762169 0.647379 2618.88 1594.41)" fill="#868686"/>
<rect width="23.6003" height="58.2675" transform="matrix(0.864645 0.502384 -0.762169 0.647379 2669.55 1543.74)" fill="#868686"/>
<rect width="23.6003" height="58.2675" transform="matrix(0.864645 0.502384 -0.762169 0.647379 2656.89 1531.07)" fill="#868686"/>
<rect width="23.6003" height="58.2675" transform="matrix(0.864645 0.502384 -0.762169 0.647379 2644.22 1514.18)" fill="#868686"/>
<rect width="23.6003" height="58.2675" transform="matrix(0.864645 0.502384 -0.762169 0.647379 2631.55 1501.51)" fill="#868686"/>
<rect width="23.6003" height="58.2675" transform="matrix(0.864645 0.502384 -0.762169 0.647379 2618.88 1488.84)" fill="#868686"/>
<rect width="23.6003" height="58.2675" transform="matrix(0.864645 0.502384 -0.762169 0.647379 2606.21 1471.95)" fill="#868686"/>
<rect width="52.9543" height="119.338" transform="matrix(0.864645 0.502384 -0.762169 0.647379 2682.32 1554.87)" fill="#868686"/>
<path d="M2400.85 1606.72L3213.81 2079.61L3914.85 1490.61" stroke="black" stroke-width="10"/>
<circle cx="1507.85" cy="1089.61" r="19" fill="black"/>
<g clip-path="url(#clip0_10_1218)">
<mask id="mask0_10_1218" style="mask-type:luminance" maskUnits="userSpaceOnUse" x="4330" y="1150" width="120" height="179">
<path d="M4449.85 1150.61H4330.85V1328.61H4449.85V1150.61Z" fill="white"/>
</mask>
<g mask="url(#mask0_10_1218)">
<path d="M4380.72 1201.73L4426.14 1227.71L4426.07 1176.97L4380.72 1150.61V1201.73Z" fill="#734619"/>
<path d="M4377.49 1258L4377.35 1206.1L4332.2 1231.98L4377.49 1258Z" fill="#734619"/>
<path d="M4380.46 1257.79L4425.8 1231.73L4380.58 1205.97L4380.46 1257.79Z" fill="#734619"/>
<path d="M4381.8 1260.59L4427.28 1286.42L4427.21 1234.78L4381.8 1260.59Z" fill="#734619"/>
<path d="M4330.86 1234.65L4330.99 1286.54L4376.15 1260.66L4330.86 1234.65Z" fill="#734619"/>
<path d="M4380.35 1263.21L4381.44 1315.09L4426.11 1288.4L4380.35 1263.21Z" fill="#734619"/>
<path d="M4377.39 1263.45L4332.54 1290.33L4378.23 1315.27L4377.39 1263.45Z" fill="#734619"/>
</g>
</g>
<path d="M0 1677.11L1870.63 86.1725L2156.71 241.066L286.081 1832.01L0 1677.11Z" fill="#696969"/>
<path d="M293.5 1823.32L2164.13 232.382L2308.85 307.785L438.214 1898.72L293.5 1823.32Z" fill="#D9D9D9"/>
<path d="M512.5 1636.26L609.649 1553.63L1577.65 2121.99L1480.5 2204.61L512.5 1636.26Z" fill="#696969"/>
<path d="M739.5 1629.26L836.649 1546.63L1709.96 2063.57L1612.81 2146.19L739.5 1629.26Z" fill="#D9D9D9"/>
<path d="M1142.79 900.252H1133.46C1133.29 899.045 1132.94 897.973 1132.42 897.035C1131.89 896.083 1131.22 895.274 1130.39 894.606C1129.57 893.939 1128.62 893.427 1127.54 893.072C1126.47 892.717 1125.32 892.539 1124.07 892.539C1121.81 892.539 1119.84 893.1 1118.16 894.223C1116.49 895.331 1115.19 896.95 1114.26 899.081C1113.34 901.197 1112.88 903.768 1112.88 906.794C1112.88 909.904 1113.34 912.518 1114.26 914.635C1115.2 916.751 1116.51 918.349 1118.18 919.429C1119.86 920.508 1121.8 921.048 1124 921.048C1125.24 921.048 1126.38 920.885 1127.43 920.558C1128.5 920.231 1129.44 919.755 1130.27 919.13C1131.09 918.491 1131.77 917.717 1132.31 916.808C1132.87 915.899 1133.25 914.862 1133.46 913.697L1142.79 913.74C1142.55 915.742 1141.95 917.674 1140.98 919.535C1140.03 921.382 1138.75 923.037 1137.13 924.5C1135.52 925.948 1133.6 927.099 1131.37 927.951C1129.16 928.789 1126.65 929.208 1123.85 929.208C1119.96 929.208 1116.48 928.328 1113.41 926.566C1110.36 924.805 1107.94 922.255 1106.17 918.917C1104.41 915.579 1103.53 911.538 1103.53 906.794C1103.53 902.035 1104.42 897.987 1106.21 894.649C1108 891.311 1110.43 888.768 1113.5 887.021C1116.57 885.26 1120.02 884.379 1123.85 884.379C1126.38 884.379 1128.72 884.734 1130.88 885.444C1133.06 886.154 1134.98 887.191 1136.66 888.555C1138.33 889.904 1139.7 891.559 1140.75 893.519C1141.81 895.48 1142.5 897.724 1142.79 900.252ZM1156.11 928.612H1146.22L1161.29 884.975H1173.18L1188.22 928.612H1178.33L1167.4 894.947H1167.06L1156.11 928.612ZM1155.49 911.46H1178.85V918.662H1155.49V911.46ZM1229.92 900.252H1220.59C1220.42 899.045 1220.07 897.973 1219.55 897.035C1219.02 896.083 1218.35 895.274 1217.52 894.606C1216.7 893.939 1215.75 893.427 1214.67 893.072C1213.6 892.717 1212.44 892.539 1211.19 892.539C1208.94 892.539 1206.97 893.1 1205.29 894.223C1203.62 895.331 1202.32 896.95 1201.39 899.081C1200.47 901.197 1200.01 903.768 1200.01 906.794C1200.01 909.904 1200.47 912.518 1201.39 914.635C1202.33 916.751 1203.64 918.349 1205.31 919.429C1206.99 920.508 1208.93 921.048 1211.13 921.048C1212.37 921.048 1213.51 920.885 1214.56 920.558C1215.63 920.231 1216.57 919.755 1217.39 919.13C1218.22 918.491 1218.9 917.717 1219.44 916.808C1219.99 915.899 1220.38 914.862 1220.59 913.697L1229.92 913.74C1229.68 915.742 1229.08 917.674 1228.11 919.535C1227.16 921.382 1225.87 923.037 1224.26 924.5C1222.65 925.948 1220.73 927.099 1218.5 927.951C1216.29 928.789 1213.78 929.208 1210.98 929.208C1207.09 929.208 1203.61 928.328 1200.54 926.566C1197.49 924.805 1195.07 922.255 1193.3 918.917C1191.54 915.579 1190.65 911.538 1190.65 906.794C1190.65 902.035 1191.55 897.987 1193.34 894.649C1195.13 891.311 1197.56 888.768 1200.63 887.021C1203.69 885.26 1207.15 884.379 1210.98 884.379C1213.51 884.379 1215.85 884.734 1218.01 885.444C1220.19 886.154 1222.11 887.191 1223.79 888.555C1225.46 889.904 1226.83 891.559 1227.88 893.519C1228.94 895.48 1229.62 897.724 1229.92 900.252Z" fill="white"/>
<defs>
<clipPath id="clip0_10_1218">
<rect width="119" height="178" fill="white" transform="translate(4330.85 1150.61)"/>
</clipPath>
</defs>
</svg>
