<svg width="3745" height="1780" viewBox="0 0 3745 1780" fill="none" xmlns="http://www.w3.org/2000/svg">
<path d="M1198.82 443.68C1190.98 443.68 1183.47 442.653 1176.28 440.6C1169.09 438.453 1163.31 435.7 1158.92 432.34L1166.62 415.26C1170.82 418.247 1175.77 420.72 1181.46 422.68C1187.25 424.547 1193.08 425.48 1198.96 425.48C1203.44 425.48 1207.03 425.06 1209.74 424.22C1212.54 423.287 1214.59 422.027 1215.9 420.44C1217.21 418.853 1217.86 417.033 1217.86 414.98C1217.86 412.367 1216.83 410.313 1214.78 408.82C1212.73 407.233 1210.02 405.973 1206.66 405.04C1203.3 404.013 1199.57 403.08 1195.46 402.24C1191.45 401.307 1187.39 400.187 1183.28 398.88C1179.27 397.573 1175.58 395.893 1172.22 393.84C1168.86 391.787 1166.11 389.08 1163.96 385.72C1161.91 382.36 1160.88 378.067 1160.88 372.84C1160.88 367.24 1162.37 362.153 1165.36 357.58C1168.44 352.913 1173.01 349.227 1179.08 346.52C1185.24 343.72 1192.94 342.32 1202.18 342.32C1208.34 342.32 1214.41 343.067 1220.38 344.56C1226.35 345.96 1231.63 348.107 1236.2 351L1229.2 368.22C1224.63 365.607 1220.05 363.693 1215.48 362.48C1210.91 361.173 1206.43 360.52 1202.04 360.52C1197.65 360.52 1194.06 361.033 1191.26 362.06C1188.46 363.087 1186.45 364.44 1185.24 366.12C1184.03 367.707 1183.42 369.573 1183.42 371.72C1183.42 374.24 1184.45 376.293 1186.5 377.88C1188.55 379.373 1191.26 380.587 1194.62 381.52C1197.98 382.453 1201.67 383.387 1205.68 384.32C1209.79 385.253 1213.85 386.327 1217.86 387.54C1221.97 388.753 1225.7 390.387 1229.06 392.44C1232.42 394.493 1235.13 397.2 1237.18 400.56C1239.33 403.92 1240.4 408.167 1240.4 413.3C1240.4 418.807 1238.86 423.847 1235.78 428.42C1232.7 432.993 1228.08 436.68 1221.92 439.48C1215.85 442.28 1208.15 443.68 1198.82 443.68ZM1254.36 442V366.68H1276.2V442H1254.36ZM1265.28 356.18C1261.26 356.18 1258 355.013 1255.48 352.68C1252.96 350.347 1251.7 347.453 1251.7 344C1251.7 340.547 1252.96 337.653 1255.48 335.32C1258 332.987 1261.26 331.82 1265.28 331.82C1269.29 331.82 1272.56 332.94 1275.08 335.18C1277.6 337.327 1278.86 340.127 1278.86 343.58C1278.86 347.22 1277.6 350.253 1275.08 352.68C1272.65 355.013 1269.38 356.18 1265.28 356.18ZM1392.93 365.56C1398.9 365.56 1404.17 366.773 1408.75 369.2C1413.41 371.533 1417.05 375.173 1419.67 380.12C1422.37 384.973 1423.73 391.227 1423.73 398.88V442H1401.89V402.24C1401.89 396.173 1400.63 391.693 1398.11 388.8C1395.59 385.907 1392.04 384.46 1387.47 384.46C1384.29 384.46 1381.45 385.207 1378.93 386.7C1376.41 388.1 1374.45 390.247 1373.05 393.14C1371.65 396.033 1370.95 399.72 1370.95 404.2V442H1349.11V402.24C1349.11 396.173 1347.85 391.693 1345.33 388.8C1342.9 385.907 1339.4 384.46 1334.83 384.46C1331.65 384.46 1328.81 385.207 1326.29 386.7C1323.77 388.1 1321.81 390.247 1320.41 393.14C1319.01 396.033 1318.31 399.72 1318.31 404.2V442H1296.47V366.68H1317.33V387.26L1313.41 381.24C1316.02 376.107 1319.71 372.233 1324.47 369.62C1329.32 366.913 1334.83 365.56 1340.99 365.56C1347.89 365.56 1353.91 367.333 1359.05 370.88C1364.27 374.333 1367.73 379.653 1369.41 386.84L1361.71 384.74C1364.23 378.86 1368.24 374.193 1373.75 370.74C1379.35 367.287 1385.74 365.56 1392.93 365.56ZM1439.52 463.56L1448.76 429.96L1451.84 442.56C1447.83 442.56 1444.52 441.393 1441.9 439.06C1439.38 436.727 1438.12 433.507 1438.12 429.4C1438.12 425.293 1439.43 422.027 1442.04 419.6C1444.66 417.173 1447.88 415.96 1451.7 415.96C1455.62 415.96 1458.84 417.22 1461.36 419.74C1463.88 422.167 1465.14 425.387 1465.14 429.4C1465.14 430.613 1465.05 431.827 1464.86 433.04C1464.68 434.16 1464.3 435.56 1463.74 437.24C1463.28 438.827 1462.48 440.88 1461.36 443.4L1453.38 463.56H1439.52ZM1564.11 443.12C1557.77 443.12 1552.21 441.72 1547.45 438.92C1542.69 436.12 1538.96 431.873 1536.25 426.18C1533.64 420.393 1532.33 413.113 1532.33 404.34C1532.33 395.473 1533.59 388.193 1536.11 382.5C1538.63 376.807 1542.27 372.56 1547.03 369.76C1551.79 366.96 1557.49 365.56 1564.11 365.56C1571.21 365.56 1577.55 367.193 1583.15 370.46C1588.85 373.633 1593.33 378.113 1596.59 383.9C1599.95 389.687 1601.63 396.5 1601.63 404.34C1601.63 412.273 1599.95 419.133 1596.59 424.92C1593.33 430.707 1588.85 435.187 1583.15 438.36C1577.55 441.533 1571.21 443.12 1564.11 443.12ZM1519.59 469.16V366.68H1540.45V382.08L1540.03 404.48L1541.43 426.74V469.16H1519.59ZM1560.33 425.2C1563.97 425.2 1567.19 424.36 1569.99 422.68C1572.89 421 1575.17 418.62 1576.85 415.54C1578.63 412.367 1579.51 408.633 1579.51 404.34C1579.51 399.953 1578.63 396.22 1576.85 393.14C1575.17 390.06 1572.89 387.68 1569.99 386C1567.19 384.32 1563.97 383.48 1560.33 383.48C1556.69 383.48 1553.43 384.32 1550.53 386C1547.64 387.68 1545.35 390.06 1543.67 393.14C1541.99 396.22 1541.15 399.953 1541.15 404.34C1541.15 408.633 1541.99 412.367 1543.67 415.54C1545.35 418.62 1547.64 421 1550.53 422.68C1553.43 424.36 1556.69 425.2 1560.33 425.2ZM1616.25 442V366.68H1637.11V387.96L1634.17 381.8C1636.41 376.48 1640.01 372.467 1644.95 369.76C1649.9 366.96 1655.92 365.56 1663.01 365.56V385.72C1662.08 385.627 1661.24 385.58 1660.49 385.58C1659.75 385.487 1658.95 385.44 1658.11 385.44C1652.14 385.44 1647.29 387.167 1643.55 390.62C1639.91 393.98 1638.09 399.253 1638.09 406.44V442H1616.25ZM1712.83 443.12C1704.24 443.12 1696.68 441.44 1690.15 438.08C1683.71 434.72 1678.72 430.147 1675.17 424.36C1671.62 418.48 1669.85 411.807 1669.85 404.34C1669.85 396.78 1671.58 390.107 1675.03 384.32C1678.58 378.44 1683.38 373.867 1689.45 370.6C1695.52 367.24 1702.38 365.56 1710.03 365.56C1717.4 365.56 1724.03 367.147 1729.91 370.32C1735.88 373.4 1740.6 377.88 1744.05 383.76C1747.5 389.547 1749.23 396.5 1749.23 404.62C1749.23 405.46 1749.18 406.44 1749.09 407.56C1749 408.587 1748.9 409.567 1748.81 410.5H1687.63V397.76H1737.33L1728.93 401.54C1728.93 397.62 1728.14 394.213 1726.55 391.32C1724.96 388.427 1722.77 386.187 1719.97 384.6C1717.17 382.92 1713.9 382.08 1710.17 382.08C1706.44 382.08 1703.12 382.92 1700.23 384.6C1697.43 386.187 1695.24 388.473 1693.65 391.46C1692.06 394.353 1691.27 397.807 1691.27 401.82V405.18C1691.27 409.287 1692.16 412.927 1693.93 416.1C1695.8 419.18 1698.36 421.56 1701.63 423.24C1704.99 424.827 1708.91 425.62 1713.39 425.62C1717.4 425.62 1720.9 425.013 1723.89 423.8C1726.97 422.587 1729.77 420.767 1732.29 418.34L1743.91 430.94C1740.46 434.86 1736.12 437.893 1730.89 440.04C1725.66 442.093 1719.64 443.12 1712.83 443.12ZM1800.17 443.12C1792.05 443.12 1784.82 441.487 1778.47 438.22C1772.12 434.86 1767.13 430.24 1763.49 424.36C1759.94 418.48 1758.17 411.807 1758.17 404.34C1758.17 396.78 1759.94 390.107 1763.49 384.32C1767.13 378.44 1772.12 373.867 1778.47 370.6C1784.82 367.24 1792.05 365.56 1800.17 365.56C1808.1 365.56 1815.01 367.24 1820.89 370.6C1826.77 373.867 1831.11 378.58 1833.91 384.74L1816.97 393.84C1815.01 390.293 1812.54 387.68 1809.55 386C1806.66 384.32 1803.48 383.48 1800.03 383.48C1796.3 383.48 1792.94 384.32 1789.95 386C1786.96 387.68 1784.58 390.06 1782.81 393.14C1781.13 396.22 1780.29 399.953 1780.29 404.34C1780.29 408.727 1781.13 412.46 1782.81 415.54C1784.58 418.62 1786.96 421 1789.95 422.68C1792.94 424.36 1796.3 425.2 1800.03 425.2C1803.48 425.2 1806.66 424.407 1809.55 422.82C1812.54 421.14 1815.01 418.48 1816.97 414.84L1833.91 424.08C1831.11 430.147 1826.77 434.86 1820.89 438.22C1815.01 441.487 1808.1 443.12 1800.17 443.12ZM1846.08 442V366.68H1867.92V442H1846.08ZM1857 356.18C1852.98 356.18 1849.72 355.013 1847.2 352.68C1844.68 350.347 1843.42 347.453 1843.42 344C1843.42 340.547 1844.68 337.653 1847.2 335.32C1849.72 332.987 1852.98 331.82 1857 331.82C1861.01 331.82 1864.28 332.94 1866.8 335.18C1869.32 337.327 1870.58 340.127 1870.58 343.58C1870.58 347.22 1869.32 350.253 1866.8 352.68C1864.37 355.013 1861.1 356.18 1857 356.18ZM1913.53 443.12C1907.09 443.12 1900.88 442.373 1894.91 440.88C1889.03 439.293 1884.36 437.333 1880.91 435L1888.19 419.32C1891.64 421.467 1895.7 423.24 1900.37 424.64C1905.13 425.947 1909.79 426.6 1914.37 426.6C1919.41 426.6 1922.95 425.993 1925.01 424.78C1927.15 423.567 1928.23 421.887 1928.23 419.74C1928.23 417.967 1927.39 416.66 1925.71 415.82C1924.12 414.887 1921.97 414.187 1919.27 413.72C1916.56 413.253 1913.57 412.787 1910.31 412.32C1907.13 411.853 1903.91 411.247 1900.65 410.5C1897.38 409.66 1894.39 408.447 1891.69 406.86C1888.98 405.273 1886.79 403.127 1885.11 400.42C1883.52 397.713 1882.73 394.213 1882.73 389.92C1882.73 385.16 1884.08 380.96 1886.79 377.32C1889.59 373.68 1893.6 370.833 1898.83 368.78C1904.05 366.633 1910.31 365.56 1917.59 365.56C1922.72 365.56 1927.95 366.12 1933.27 367.24C1938.59 368.36 1943.02 369.993 1946.57 372.14L1939.29 387.68C1935.65 385.533 1931.96 384.087 1928.23 383.34C1924.59 382.5 1921.04 382.08 1917.59 382.08C1912.73 382.08 1909.19 382.733 1906.95 384.04C1904.71 385.347 1903.59 387.027 1903.59 389.08C1903.59 390.947 1904.38 392.347 1905.97 393.28C1907.65 394.213 1909.84 394.96 1912.55 395.52C1915.25 396.08 1918.19 396.593 1921.37 397.06C1924.63 397.433 1927.9 398.04 1931.17 398.88C1934.43 399.72 1937.37 400.933 1939.99 402.52C1942.69 404.013 1944.89 406.113 1946.57 408.82C1948.25 411.433 1949.09 414.887 1949.09 419.18C1949.09 423.847 1947.69 428 1944.89 431.64C1942.09 435.187 1938.03 437.987 1932.71 440.04C1927.48 442.093 1921.09 443.12 1913.53 443.12ZM2008.76 442V427.3L2007.36 424.08V397.76C2007.36 393.093 2005.91 389.453 2003.02 386.84C2000.22 384.227 1995.88 382.92 1990 382.92C1985.99 382.92 1982.02 383.573 1978.1 384.88C1974.27 386.093 1971.01 387.773 1968.3 389.92L1960.46 374.66C1964.57 371.767 1969.51 369.527 1975.3 367.94C1981.09 366.353 1986.97 365.56 1992.94 365.56C2004.42 365.56 2013.33 368.267 2019.68 373.68C2026.03 379.093 2029.2 387.54 2029.2 399.02V442H2008.76ZM1985.8 443.12C1979.92 443.12 1974.88 442.14 1970.68 440.18C1966.48 438.127 1963.26 435.373 1961.02 431.92C1958.78 428.467 1957.66 424.593 1957.66 420.3C1957.66 415.82 1958.73 411.9 1960.88 408.54C1963.12 405.18 1966.62 402.567 1971.38 400.7C1976.14 398.74 1982.35 397.76 1990 397.76H2010.02V410.5H1992.38C1987.25 410.5 1983.7 411.34 1981.74 413.02C1979.87 414.7 1978.94 416.8 1978.94 419.32C1978.94 422.12 1980.01 424.36 1982.16 426.04C1984.4 427.627 1987.43 428.42 1991.26 428.42C1994.9 428.42 1998.17 427.58 2001.06 425.9C2003.95 424.127 2006.05 421.56 2007.36 418.2L2010.72 428.28C2009.13 433.133 2006.24 436.82 2002.04 439.34C1997.84 441.86 1992.43 443.12 1985.8 443.12ZM2145.43 365.56C2151.4 365.56 2156.67 366.773 2161.25 369.2C2165.91 371.533 2169.55 375.173 2172.17 380.12C2174.87 384.973 2176.23 391.227 2176.23 398.88V442H2154.39V402.24C2154.39 396.173 2153.13 391.693 2150.61 388.8C2148.09 385.907 2144.54 384.46 2139.97 384.46C2136.79 384.46 2133.95 385.207 2131.43 386.7C2128.91 388.1 2126.95 390.247 2125.55 393.14C2124.15 396.033 2123.45 399.72 2123.45 404.2V442H2101.61V402.24C2101.61 396.173 2100.35 391.693 2097.83 388.8C2095.4 385.907 2091.9 384.46 2087.33 384.46C2084.15 384.46 2081.31 385.207 2078.79 386.7C2076.27 388.1 2074.31 390.247 2072.91 393.14C2071.51 396.033 2070.81 399.72 2070.81 404.2V442H2048.97V366.68H2069.83V387.26L2065.91 381.24C2068.52 376.107 2072.21 372.233 2076.97 369.62C2081.82 366.913 2087.33 365.56 2093.49 365.56C2100.39 365.56 2106.41 367.333 2111.55 370.88C2116.77 374.333 2120.23 379.653 2121.91 386.84L2114.21 384.74C2116.73 378.86 2120.74 374.193 2126.25 370.74C2131.85 367.287 2138.24 365.56 2145.43 365.56ZM2204.06 443.12C2200.33 443.12 2197.11 441.86 2194.4 439.34C2191.79 436.727 2190.48 433.413 2190.48 429.4C2190.48 425.387 2191.79 422.167 2194.4 419.74C2197.11 417.22 2200.33 415.96 2204.06 415.96C2207.89 415.96 2211.11 417.22 2213.72 419.74C2216.34 422.167 2217.64 425.387 2217.64 429.4C2217.64 433.413 2216.34 436.727 2213.72 439.34C2211.11 441.86 2207.89 443.12 2204.06 443.12Z" fill="white"/>
<path d="M1163.3 653V583H1176.7L1218 633.4H1211.5V583H1227.5V653H1214.2L1172.8 602.6H1179.3V653H1163.3ZM1275.96 653V642.5L1274.96 640.2V621.4C1274.96 618.067 1273.93 615.467 1271.86 613.6C1269.86 611.733 1266.76 610.8 1262.56 610.8C1259.7 610.8 1256.86 611.267 1254.06 612.2C1251.33 613.067 1249 614.267 1247.06 615.8L1241.46 604.9C1244.4 602.833 1247.93 601.233 1252.06 600.1C1256.2 598.967 1260.4 598.4 1264.66 598.4C1272.86 598.4 1279.23 600.333 1283.76 604.2C1288.3 608.067 1290.56 614.1 1290.56 622.3V653H1275.96ZM1259.56 653.8C1255.36 653.8 1251.76 653.1 1248.76 651.7C1245.76 650.233 1243.46 648.267 1241.86 645.8C1240.26 643.333 1239.46 640.567 1239.46 637.5C1239.46 634.3 1240.23 631.5 1241.76 629.1C1243.36 626.7 1245.86 624.833 1249.26 623.5C1252.66 622.1 1257.1 621.4 1262.56 621.4H1276.86V630.5H1264.26C1260.6 630.5 1258.06 631.1 1256.66 632.3C1255.33 633.5 1254.66 635 1254.66 636.8C1254.66 638.8 1255.43 640.4 1256.96 641.6C1258.56 642.733 1260.73 643.3 1263.46 643.3C1266.06 643.3 1268.4 642.7 1270.46 641.5C1272.53 640.233 1274.03 638.4 1274.96 636L1277.36 643.2C1276.23 646.667 1274.16 649.3 1271.16 651.1C1268.16 652.9 1264.3 653.8 1259.56 653.8ZM1273.76 592.6C1272.03 592.6 1270.5 592.3 1269.16 591.7C1267.83 591.033 1266.63 590.3 1265.56 589.5C1264.5 588.633 1263.5 587.9 1262.56 587.3C1261.63 586.633 1260.7 586.3 1259.76 586.3C1258.43 586.3 1257.33 586.8 1256.46 587.8C1255.6 588.733 1255.1 590.1 1254.96 591.9H1247.06C1247.2 587.433 1248.3 583.9 1250.36 581.3C1252.43 578.633 1255.23 577.3 1258.76 577.3C1260.5 577.3 1262.03 577.633 1263.36 578.3C1264.7 578.9 1265.9 579.633 1266.96 580.5C1268.1 581.367 1269.13 582.133 1270.06 582.8C1271 583.4 1271.9 583.7 1272.76 583.7C1274.16 583.7 1275.3 583.233 1276.16 582.3C1277.03 581.3 1277.5 579.967 1277.56 578.3H1285.46C1285.4 582.567 1284.3 586.033 1282.16 588.7C1280.1 591.3 1277.3 592.6 1273.76 592.6ZM1330.67 653.8C1324.94 653.8 1319.84 652.6 1315.37 650.2C1310.97 647.8 1307.47 644.533 1304.87 640.4C1302.34 636.2 1301.07 631.433 1301.07 626.1C1301.07 620.7 1302.34 615.933 1304.87 611.8C1307.47 607.6 1310.97 604.333 1315.37 602C1319.84 599.6 1324.94 598.4 1330.67 598.4C1336.34 598.4 1341.4 599.6 1345.87 602C1350.34 604.333 1353.84 607.567 1356.37 611.7C1358.9 615.833 1360.17 620.633 1360.17 626.1C1360.17 631.433 1358.9 636.2 1356.37 640.4C1353.84 644.533 1350.34 647.8 1345.87 650.2C1341.4 652.6 1336.34 653.8 1330.67 653.8ZM1330.67 641C1333.27 641 1335.6 640.4 1337.67 639.2C1339.74 638 1341.37 636.3 1342.57 634.1C1343.77 631.833 1344.37 629.167 1344.37 626.1C1344.37 622.967 1343.77 620.3 1342.57 618.1C1341.37 615.9 1339.74 614.2 1337.67 613C1335.6 611.8 1333.27 611.2 1330.67 611.2C1328.07 611.2 1325.74 611.8 1323.67 613C1321.6 614.2 1319.94 615.9 1318.67 618.1C1317.47 620.3 1316.87 622.967 1316.87 626.1C1316.87 629.167 1317.47 631.833 1318.67 634.1C1319.94 636.3 1321.6 638 1323.67 639.2C1325.74 640.4 1328.07 641 1330.67 641ZM1430.72 653.8C1426.19 653.8 1422.22 652.8 1418.82 650.8C1415.42 648.8 1412.75 645.767 1410.82 641.7C1408.95 637.567 1408.02 632.367 1408.02 626.1C1408.02 619.767 1408.92 614.567 1410.72 610.5C1412.52 606.433 1415.12 603.4 1418.52 601.4C1421.92 599.4 1425.99 598.4 1430.72 598.4C1435.79 598.4 1440.32 599.567 1444.32 601.9C1448.39 604.167 1451.59 607.367 1453.92 611.5C1456.32 615.633 1457.52 620.5 1457.52 626.1C1457.52 631.767 1456.32 636.667 1453.92 640.8C1451.59 644.933 1448.39 648.133 1444.32 650.4C1440.32 652.667 1435.79 653.8 1430.72 653.8ZM1398.92 672.4V599.2H1413.82V610.2L1413.52 626.2L1414.52 642.1V672.4H1398.92ZM1428.02 641C1430.62 641 1432.92 640.4 1434.92 639.2C1436.99 638 1438.62 636.3 1439.82 634.1C1441.09 631.833 1441.72 629.167 1441.72 626.1C1441.72 622.967 1441.09 620.3 1439.82 618.1C1438.62 615.9 1436.99 614.2 1434.92 613C1432.92 611.8 1430.62 611.2 1428.02 611.2C1425.42 611.2 1423.09 611.8 1421.02 613C1418.95 614.2 1417.32 615.9 1416.12 618.1C1414.92 620.3 1414.32 622.967 1414.32 626.1C1414.32 629.167 1414.92 631.833 1416.12 634.1C1417.32 636.3 1418.95 638 1421.02 639.2C1423.09 640.4 1425.42 641 1428.02 641ZM1500.08 653V642.5L1499.08 640.2V621.4C1499.08 618.067 1498.05 615.467 1495.98 613.6C1493.98 611.733 1490.88 610.8 1486.68 610.8C1483.82 610.8 1480.98 611.267 1478.18 612.2C1475.45 613.067 1473.12 614.267 1471.18 615.8L1465.58 604.9C1468.52 602.833 1472.05 601.233 1476.18 600.1C1480.32 598.967 1484.52 598.4 1488.78 598.4C1496.98 598.4 1503.35 600.333 1507.88 604.2C1512.42 608.067 1514.68 614.1 1514.68 622.3V653H1500.08ZM1483.68 653.8C1479.48 653.8 1475.88 653.1 1472.88 651.7C1469.88 650.233 1467.58 648.267 1465.98 645.8C1464.38 643.333 1463.58 640.567 1463.58 637.5C1463.58 634.3 1464.35 631.5 1465.88 629.1C1467.48 626.7 1469.98 624.833 1473.38 623.5C1476.78 622.1 1481.22 621.4 1486.68 621.4H1500.98V630.5H1488.38C1484.72 630.5 1482.18 631.1 1480.78 632.3C1479.45 633.5 1478.78 635 1478.78 636.8C1478.78 638.8 1479.55 640.4 1481.08 641.6C1482.68 642.733 1484.85 643.3 1487.58 643.3C1490.18 643.3 1492.52 642.7 1494.58 641.5C1496.65 640.233 1498.15 638.4 1499.08 636L1501.48 643.2C1500.35 646.667 1498.28 649.3 1495.28 651.1C1492.28 652.9 1488.42 653.8 1483.68 653.8ZM1528.8 653V599.2H1543.7V614.4L1541.6 610C1543.2 606.2 1545.77 603.333 1549.3 601.4C1552.83 599.4 1557.13 598.4 1562.2 598.4V612.8C1561.53 612.733 1560.93 612.7 1560.4 612.7C1559.87 612.633 1559.3 612.6 1558.7 612.6C1554.43 612.6 1550.97 613.833 1548.3 616.3C1545.7 618.7 1544.4 622.467 1544.4 627.6V653H1528.8ZM1600.96 653V642.5L1599.96 640.2V621.4C1599.96 618.067 1598.93 615.467 1596.86 613.6C1594.86 611.733 1591.76 610.8 1587.56 610.8C1584.7 610.8 1581.86 611.267 1579.06 612.2C1576.33 613.067 1574 614.267 1572.06 615.8L1566.46 604.9C1569.4 602.833 1572.93 601.233 1577.06 600.1C1581.2 598.967 1585.4 598.4 1589.66 598.4C1597.86 598.4 1604.23 600.333 1608.76 604.2C1613.3 608.067 1615.56 614.1 1615.56 622.3V653H1600.96ZM1584.56 653.8C1580.36 653.8 1576.76 653.1 1573.76 651.7C1570.76 650.233 1568.46 648.267 1566.86 645.8C1565.26 643.333 1564.46 640.567 1564.46 637.5C1564.46 634.3 1565.23 631.5 1566.76 629.1C1568.36 626.7 1570.86 624.833 1574.26 623.5C1577.66 622.1 1582.1 621.4 1587.56 621.4H1601.86V630.5H1589.26C1585.6 630.5 1583.06 631.1 1581.66 632.3C1580.33 633.5 1579.66 635 1579.66 636.8C1579.66 638.8 1580.43 640.4 1581.96 641.6C1583.56 642.733 1585.73 643.3 1588.46 643.3C1591.06 643.3 1593.4 642.7 1595.46 641.5C1597.53 640.233 1599.03 638.4 1599.96 636L1602.36 643.2C1601.23 646.667 1599.16 649.3 1596.16 651.1C1593.16 652.9 1589.3 653.8 1584.56 653.8ZM1676.1 653.8C1671.5 653.8 1667.07 653.267 1662.8 652.2C1658.6 651.067 1655.27 649.667 1652.8 648L1658 636.8C1660.47 638.333 1663.37 639.6 1666.7 640.6C1670.1 641.533 1673.43 642 1676.7 642C1680.3 642 1682.83 641.567 1684.3 640.7C1685.83 639.833 1686.6 638.633 1686.6 637.1C1686.6 635.833 1686 634.9 1684.8 634.3C1683.67 633.633 1682.13 633.133 1680.2 632.8C1678.27 632.467 1676.13 632.133 1673.8 631.8C1671.53 631.467 1669.23 631.033 1666.9 630.5C1664.57 629.9 1662.43 629.033 1660.5 627.9C1658.57 626.767 1657 625.233 1655.8 623.3C1654.67 621.367 1654.1 618.867 1654.1 615.8C1654.1 612.4 1655.07 609.4 1657 606.8C1659 604.2 1661.87 602.167 1665.6 600.7C1669.33 599.167 1673.8 598.4 1679 598.4C1682.67 598.4 1686.4 598.8 1690.2 599.6C1694 600.4 1697.17 601.567 1699.7 603.1L1694.5 614.2C1691.9 612.667 1689.27 611.633 1686.6 611.1C1684 610.5 1681.47 610.2 1679 610.2C1675.53 610.2 1673 610.667 1671.4 611.6C1669.8 612.533 1669 613.733 1669 615.2C1669 616.533 1669.57 617.533 1670.7 618.2C1671.9 618.867 1673.47 619.4 1675.4 619.8C1677.33 620.2 1679.43 620.567 1681.7 620.9C1684.03 621.167 1686.37 621.6 1688.7 622.2C1691.03 622.8 1693.13 623.667 1695 624.8C1696.93 625.867 1698.5 627.367 1699.7 629.3C1700.9 631.167 1701.5 633.633 1701.5 636.7C1701.5 640.033 1700.5 643 1698.5 645.6C1696.5 648.133 1693.6 650.133 1689.8 651.6C1686.07 653.067 1681.5 653.8 1676.1 653.8ZM1737.83 653.8C1731.69 653.8 1726.29 652.6 1721.63 650.2C1717.03 647.8 1713.46 644.533 1710.93 640.4C1708.39 636.2 1707.13 631.433 1707.13 626.1C1707.13 620.7 1708.36 615.933 1710.83 611.8C1713.36 607.6 1716.79 604.333 1721.13 602C1725.46 599.6 1730.36 598.4 1735.83 598.4C1741.09 598.4 1745.83 599.533 1750.03 601.8C1754.29 604 1757.66 607.2 1760.13 611.4C1762.59 615.533 1763.83 620.5 1763.83 626.3C1763.83 626.9 1763.79 627.6 1763.73 628.4C1763.66 629.133 1763.59 629.833 1763.53 630.5H1719.83V621.4H1755.33L1749.33 624.1C1749.33 621.3 1748.76 618.867 1747.63 616.8C1746.49 614.733 1744.93 613.133 1742.93 612C1740.93 610.8 1738.59 610.2 1735.93 610.2C1733.26 610.2 1730.89 610.8 1728.83 612C1726.83 613.133 1725.26 614.767 1724.13 616.9C1722.99 618.967 1722.43 621.433 1722.43 624.3V626.7C1722.43 629.633 1723.06 632.233 1724.33 634.5C1725.66 636.7 1727.49 638.4 1729.83 639.6C1732.23 640.733 1735.03 641.3 1738.23 641.3C1741.09 641.3 1743.59 640.867 1745.73 640C1747.93 639.133 1749.93 637.833 1751.73 636.1L1760.03 645.1C1757.56 647.9 1754.46 650.067 1750.73 651.6C1746.99 653.067 1742.69 653.8 1737.83 653.8ZM1824.53 653.8C1818.2 653.8 1813.27 652.2 1809.73 649C1806.2 645.733 1804.43 640.9 1804.43 634.5V587.3H1820.03V634.3C1820.03 636.567 1820.63 638.333 1821.83 639.6C1823.03 640.8 1824.67 641.4 1826.73 641.4C1829.2 641.4 1831.3 640.733 1833.03 639.4L1837.23 650.4C1835.63 651.533 1833.7 652.4 1831.43 653C1829.23 653.533 1826.93 653.8 1824.53 653.8ZM1796.13 612.4V600.4H1833.43V612.4H1796.13ZM1869.93 653.8C1864.2 653.8 1859.1 652.6 1854.63 650.2C1850.23 647.8 1846.73 644.533 1844.13 640.4C1841.6 636.2 1840.33 631.433 1840.33 626.1C1840.33 620.7 1841.6 615.933 1844.13 611.8C1846.73 607.6 1850.23 604.333 1854.63 602C1859.1 599.6 1864.2 598.4 1869.93 598.4C1875.6 598.4 1880.66 599.6 1885.13 602C1889.6 604.333 1893.1 607.567 1895.63 611.7C1898.16 615.833 1899.43 620.633 1899.43 626.1C1899.43 631.433 1898.16 636.2 1895.63 640.4C1893.1 644.533 1889.6 647.8 1885.13 650.2C1880.66 652.6 1875.6 653.8 1869.93 653.8ZM1869.93 641C1872.53 641 1874.86 640.4 1876.93 639.2C1879 638 1880.63 636.3 1881.83 634.1C1883.03 631.833 1883.63 629.167 1883.63 626.1C1883.63 622.967 1883.03 620.3 1881.83 618.1C1880.63 615.9 1879 614.2 1876.93 613C1874.86 611.8 1872.53 611.2 1869.93 611.2C1867.33 611.2 1865 611.8 1862.93 613C1860.86 614.2 1859.2 615.9 1857.93 618.1C1856.73 620.3 1856.13 622.967 1856.13 626.1C1856.13 629.167 1856.73 631.833 1857.93 634.1C1859.2 636.3 1860.86 638 1862.93 639.2C1865 640.4 1867.33 641 1869.93 641ZM1909.86 653V599.2H1924.76V614.4L1922.66 610C1924.26 606.2 1926.82 603.333 1930.36 601.4C1933.89 599.4 1938.19 598.4 1943.26 598.4V612.8C1942.59 612.733 1941.99 612.7 1941.46 612.7C1940.92 612.633 1940.36 612.6 1939.76 612.6C1935.49 612.6 1932.02 613.833 1929.36 616.3C1926.76 618.7 1925.46 622.467 1925.46 627.6V653H1909.86ZM1985.33 598.4C1989.6 598.4 1993.4 599.267 1996.73 601C2000.13 602.667 2002.8 605.267 2004.73 608.8C2006.66 612.267 2007.63 616.733 2007.63 622.2V653H1992.03V624.6C1992.03 620.267 1991.06 617.067 1989.13 615C1987.26 612.933 1984.6 611.9 1981.13 611.9C1978.66 611.9 1976.43 612.433 1974.43 613.5C1972.5 614.5 1970.96 616.067 1969.83 618.2C1968.76 620.333 1968.23 623.067 1968.23 626.4V653H1952.63V599.2H1967.53V614.1L1964.73 609.6C1966.66 606 1969.43 603.233 1973.03 601.3C1976.63 599.367 1980.73 598.4 1985.33 598.4ZM2054.77 653V642.5L2053.77 640.2V621.4C2053.77 618.067 2052.74 615.467 2050.67 613.6C2048.67 611.733 2045.57 610.8 2041.37 610.8C2038.5 610.8 2035.67 611.267 2032.87 612.2C2030.14 613.067 2027.8 614.267 2025.87 615.8L2020.27 604.9C2023.2 602.833 2026.74 601.233 2030.87 600.1C2035 598.967 2039.2 598.4 2043.47 598.4C2051.67 598.4 2058.04 600.333 2062.57 604.2C2067.1 608.067 2069.37 614.1 2069.37 622.3V653H2054.77ZM2038.37 653.8C2034.17 653.8 2030.57 653.1 2027.57 651.7C2024.57 650.233 2022.27 648.267 2020.67 645.8C2019.07 643.333 2018.27 640.567 2018.27 637.5C2018.27 634.3 2019.04 631.5 2020.57 629.1C2022.17 626.7 2024.67 624.833 2028.07 623.5C2031.47 622.1 2035.9 621.4 2041.37 621.4H2055.67V630.5H2043.07C2039.4 630.5 2036.87 631.1 2035.47 632.3C2034.14 633.5 2033.47 635 2033.47 636.8C2033.47 638.8 2034.24 640.4 2035.77 641.6C2037.37 642.733 2039.54 643.3 2042.27 643.3C2044.87 643.3 2047.2 642.7 2049.27 641.5C2051.34 640.233 2052.84 638.4 2053.77 636L2056.17 643.2C2055.04 646.667 2052.97 649.3 2049.97 651.1C2046.97 652.9 2043.1 653.8 2038.37 653.8ZM2083.49 653V599.2H2098.39V614.4L2096.29 610C2097.89 606.2 2100.46 603.333 2103.99 601.4C2107.52 599.4 2111.82 598.4 2116.89 598.4V612.8C2116.22 612.733 2115.62 612.7 2115.09 612.7C2114.56 612.633 2113.99 612.6 2113.39 612.6C2109.12 612.6 2105.66 613.833 2102.99 616.3C2100.39 618.7 2099.09 622.467 2099.09 627.6V653H2083.49ZM2152.47 653.8C2146.34 653.8 2140.94 652.6 2136.27 650.2C2131.67 647.8 2128.11 644.533 2125.57 640.4C2123.04 636.2 2121.77 631.433 2121.77 626.1C2121.77 620.7 2123.01 615.933 2125.47 611.8C2128.01 607.6 2131.44 604.333 2135.77 602C2140.11 599.6 2145.01 598.4 2150.47 598.4C2155.74 598.4 2160.47 599.533 2164.67 601.8C2168.94 604 2172.31 607.2 2174.77 611.4C2177.24 615.533 2178.47 620.5 2178.47 626.3C2178.47 626.9 2178.44 627.6 2178.37 628.4C2178.31 629.133 2178.24 629.833 2178.17 630.5H2134.47V621.4H2169.97L2163.97 624.1C2163.97 621.3 2163.41 618.867 2162.27 616.8C2161.14 614.733 2159.57 613.133 2157.57 612C2155.57 610.8 2153.24 610.2 2150.57 610.2C2147.91 610.2 2145.54 610.8 2143.47 612C2141.47 613.133 2139.91 614.767 2138.77 616.9C2137.64 618.967 2137.07 621.433 2137.07 624.3V626.7C2137.07 629.633 2137.71 632.233 2138.97 634.5C2140.31 636.7 2142.14 638.4 2144.47 639.6C2146.87 640.733 2149.67 641.3 2152.87 641.3C2155.74 641.3 2158.24 640.867 2160.37 640C2162.57 639.133 2164.57 637.833 2166.37 636.1L2174.67 645.1C2172.21 647.9 2169.11 650.067 2165.37 651.6C2161.64 653.067 2157.34 653.8 2152.47 653.8ZM2257.76 598.4C2262.03 598.4 2265.79 599.267 2269.06 601C2272.39 602.667 2274.99 605.267 2276.86 608.8C2278.79 612.267 2279.76 616.733 2279.76 622.2V653H2264.16V624.6C2264.16 620.267 2263.26 617.067 2261.46 615C2259.66 612.933 2257.13 611.9 2253.86 611.9C2251.59 611.9 2249.56 612.433 2247.76 613.5C2245.96 614.5 2244.56 616.033 2243.56 618.1C2242.56 620.167 2242.06 622.8 2242.06 626V653H2226.46V624.6C2226.46 620.267 2225.56 617.067 2223.76 615C2222.03 612.933 2219.53 611.9 2216.26 611.9C2213.99 611.9 2211.96 612.433 2210.16 613.5C2208.36 614.5 2206.96 616.033 2205.96 618.1C2204.96 620.167 2204.46 622.8 2204.46 626V653H2188.86V599.2H2203.76V613.9L2200.96 609.6C2202.83 605.933 2205.46 603.167 2208.86 601.3C2212.33 599.367 2216.26 598.4 2220.66 598.4C2225.59 598.4 2229.89 599.667 2233.56 602.2C2237.29 604.667 2239.76 608.467 2240.96 613.6L2235.46 612.1C2237.26 607.9 2240.13 604.567 2244.06 602.1C2248.06 599.633 2252.63 598.4 2257.76 598.4ZM1185.3 763.8C1180.23 763.8 1175.67 762.667 1171.6 760.4C1167.53 758.067 1164.3 754.833 1161.9 750.7C1159.57 746.567 1158.4 741.7 1158.4 736.1C1158.4 730.433 1159.57 725.533 1161.9 721.4C1164.3 717.267 1167.53 714.067 1171.6 711.8C1175.67 709.533 1180.23 708.4 1185.3 708.4C1189.83 708.4 1193.8 709.4 1197.2 711.4C1200.6 713.4 1203.23 716.433 1205.1 720.5C1206.97 724.567 1207.9 729.767 1207.9 736.1C1207.9 742.367 1207 747.567 1205.2 751.7C1203.4 755.767 1200.8 758.8 1197.4 760.8C1194.07 762.8 1190.03 763.8 1185.3 763.8ZM1188 751C1190.53 751 1192.83 750.4 1194.9 749.2C1196.97 748 1198.6 746.3 1199.8 744.1C1201.07 741.833 1201.7 739.167 1201.7 736.1C1201.7 732.967 1201.07 730.3 1199.8 728.1C1198.6 725.9 1196.97 724.2 1194.9 723C1192.83 721.8 1190.53 721.2 1188 721.2C1185.4 721.2 1183.07 721.8 1181 723C1178.93 724.2 1177.27 725.9 1176 728.1C1174.8 730.3 1174.2 732.967 1174.2 736.1C1174.2 739.167 1174.8 741.833 1176 744.1C1177.27 746.3 1178.93 748 1181 749.2C1183.07 750.4 1185.4 751 1188 751ZM1202.1 763V752L1202.4 736L1201.4 720.1V688.8H1217V763H1202.1ZM1258.14 763.8C1252 763.8 1246.6 762.6 1241.94 760.2C1237.34 757.8 1233.77 754.533 1231.24 750.4C1228.7 746.2 1227.44 741.433 1227.44 736.1C1227.44 730.7 1228.67 725.933 1231.14 721.8C1233.67 717.6 1237.1 714.333 1241.44 712C1245.77 709.6 1250.67 708.4 1256.14 708.4C1261.4 708.4 1266.14 709.533 1270.34 711.8C1274.6 714 1277.97 717.2 1280.44 721.4C1282.9 725.533 1284.14 730.5 1284.14 736.3C1284.14 736.9 1284.1 737.6 1284.04 738.4C1283.97 739.133 1283.9 739.833 1283.84 740.5H1240.14V731.4H1275.64L1269.64 734.1C1269.64 731.3 1269.07 728.867 1267.94 726.8C1266.8 724.733 1265.24 723.133 1263.24 722C1261.24 720.8 1258.9 720.2 1256.24 720.2C1253.57 720.2 1251.2 720.8 1249.14 722C1247.14 723.133 1245.57 724.767 1244.44 726.9C1243.3 728.967 1242.74 731.433 1242.74 734.3V736.7C1242.74 739.633 1243.37 742.233 1244.64 744.5C1245.97 746.7 1247.8 748.4 1250.14 749.6C1252.54 750.733 1255.34 751.3 1258.54 751.3C1261.4 751.3 1263.9 750.867 1266.04 750C1268.24 749.133 1270.24 747.833 1272.04 746.1L1280.34 755.1C1277.87 757.9 1274.77 760.067 1271.04 761.6C1267.3 763.067 1263 763.8 1258.14 763.8ZM1312.62 763.8C1308.02 763.8 1303.59 763.267 1299.32 762.2C1295.12 761.067 1291.79 759.667 1289.32 758L1294.52 746.8C1296.99 748.333 1299.89 749.6 1303.22 750.6C1306.62 751.533 1309.96 752 1313.22 752C1316.82 752 1319.36 751.567 1320.82 750.7C1322.36 749.833 1323.12 748.633 1323.12 747.1C1323.12 745.833 1322.52 744.9 1321.32 744.3C1320.19 743.633 1318.66 743.133 1316.72 742.8C1314.79 742.467 1312.66 742.133 1310.32 741.8C1308.06 741.467 1305.76 741.033 1303.42 740.5C1301.09 739.9 1298.96 739.033 1297.02 737.9C1295.09 736.767 1293.52 735.233 1292.32 733.3C1291.19 731.367 1290.62 728.867 1290.62 725.8C1290.62 722.4 1291.59 719.4 1293.52 716.8C1295.52 714.2 1298.39 712.167 1302.12 710.7C1305.86 709.167 1310.32 708.4 1315.52 708.4C1319.19 708.4 1322.92 708.8 1326.72 709.6C1330.52 710.4 1333.69 711.567 1336.22 713.1L1331.02 724.2C1328.42 722.667 1325.79 721.633 1323.12 721.1C1320.52 720.5 1317.99 720.2 1315.52 720.2C1312.06 720.2 1309.52 720.667 1307.92 721.6C1306.32 722.533 1305.52 723.733 1305.52 725.2C1305.52 726.533 1306.09 727.533 1307.22 728.2C1308.42 728.867 1309.99 729.4 1311.92 729.8C1313.86 730.2 1315.96 730.567 1318.22 730.9C1320.56 731.167 1322.89 731.6 1325.22 732.2C1327.56 732.8 1329.66 733.667 1331.52 734.8C1333.46 735.867 1335.02 737.367 1336.22 739.3C1337.42 741.167 1338.02 743.633 1338.02 746.7C1338.02 750.033 1337.02 753 1335.02 755.6C1333.02 758.133 1330.12 760.133 1326.32 761.6C1322.59 763.067 1318.02 763.8 1312.62 763.8ZM1374.35 763.8C1368.22 763.8 1362.82 762.6 1358.15 760.2C1353.55 757.8 1349.98 754.533 1347.45 750.4C1344.92 746.2 1343.65 741.433 1343.65 736.1C1343.65 730.7 1344.88 725.933 1347.35 721.8C1349.88 717.6 1353.32 714.333 1357.65 712C1361.98 709.6 1366.88 708.4 1372.35 708.4C1377.62 708.4 1382.35 709.533 1386.55 711.8C1390.82 714 1394.18 717.2 1396.65 721.4C1399.12 725.533 1400.35 730.5 1400.35 736.3C1400.35 736.9 1400.32 737.6 1400.25 738.4C1400.18 739.133 1400.12 739.833 1400.05 740.5H1356.35V731.4H1391.85L1385.85 734.1C1385.85 731.3 1385.28 728.867 1384.15 726.8C1383.02 724.733 1381.45 723.133 1379.45 722C1377.45 720.8 1375.12 720.2 1372.45 720.2C1369.78 720.2 1367.42 720.8 1365.35 722C1363.35 723.133 1361.78 724.767 1360.65 726.9C1359.52 728.967 1358.95 731.433 1358.95 734.3V736.7C1358.95 739.633 1359.58 742.233 1360.85 744.5C1362.18 746.7 1364.02 748.4 1366.35 749.6C1368.75 750.733 1371.55 751.3 1374.75 751.3C1377.62 751.3 1380.12 750.867 1382.25 750C1384.45 749.133 1386.45 747.833 1388.25 746.1L1396.55 755.1C1394.08 757.9 1390.98 760.067 1387.25 761.6C1383.52 763.067 1379.22 763.8 1374.35 763.8ZM1443.44 708.4C1447.7 708.4 1451.5 709.267 1454.84 711C1458.24 712.667 1460.9 715.267 1462.84 718.8C1464.77 722.267 1465.74 726.733 1465.74 732.2V763H1450.14V734.6C1450.14 730.267 1449.17 727.067 1447.24 725C1445.37 722.933 1442.7 721.9 1439.24 721.9C1436.77 721.9 1434.54 722.433 1432.54 723.5C1430.6 724.5 1429.07 726.067 1427.94 728.2C1426.87 730.333 1426.34 733.067 1426.34 736.4V763H1410.74V709.2H1425.64V724.1L1422.84 719.6C1424.77 716 1427.54 713.233 1431.14 711.3C1434.74 709.367 1438.84 708.4 1443.44 708.4ZM1493.5 763L1470.9 709.2H1487L1505.8 755.5H1497.8L1517.3 709.2H1532.3L1509.6 763H1493.5ZM1562.8 763.8C1557.07 763.8 1551.97 762.6 1547.5 760.2C1543.1 757.8 1539.6 754.533 1537 750.4C1534.47 746.2 1533.2 741.433 1533.2 736.1C1533.2 730.7 1534.47 725.933 1537 721.8C1539.6 717.6 1543.1 714.333 1547.5 712C1551.97 709.6 1557.07 708.4 1562.8 708.4C1568.47 708.4 1573.53 709.6 1578 712C1582.47 714.333 1585.97 717.567 1588.5 721.7C1591.03 725.833 1592.3 730.633 1592.3 736.1C1592.3 741.433 1591.03 746.2 1588.5 750.4C1585.97 754.533 1582.47 757.8 1578 760.2C1573.53 762.6 1568.47 763.8 1562.8 763.8ZM1562.8 751C1565.4 751 1567.73 750.4 1569.8 749.2C1571.87 748 1573.5 746.3 1574.7 744.1C1575.9 741.833 1576.5 739.167 1576.5 736.1C1576.5 732.967 1575.9 730.3 1574.7 728.1C1573.5 725.9 1571.87 724.2 1569.8 723C1567.73 721.8 1565.4 721.2 1562.8 721.2C1560.2 721.2 1557.87 721.8 1555.8 723C1553.73 724.2 1552.07 725.9 1550.8 728.1C1549.6 730.3 1549 732.967 1549 736.1C1549 739.167 1549.6 741.833 1550.8 744.1C1552.07 746.3 1553.73 748 1555.8 749.2C1557.87 750.4 1560.2 751 1562.8 751ZM1602.73 763V688.8H1618.33V763H1602.73ZM1647.41 763L1624.81 709.2H1640.91L1659.71 755.5H1651.71L1671.21 709.2H1686.21L1663.51 763H1647.41ZM1717.81 763.8C1711.67 763.8 1706.27 762.6 1701.61 760.2C1697.01 757.8 1693.44 754.533 1690.91 750.4C1688.37 746.2 1687.11 741.433 1687.11 736.1C1687.11 730.7 1688.34 725.933 1690.81 721.8C1693.34 717.6 1696.77 714.333 1701.11 712C1705.44 709.6 1710.34 708.4 1715.81 708.4C1721.07 708.4 1725.81 709.533 1730.01 711.8C1734.27 714 1737.64 717.2 1740.11 721.4C1742.57 725.533 1743.81 730.5 1743.81 736.3C1743.81 736.9 1743.77 737.6 1743.71 738.4C1743.64 739.133 1743.57 739.833 1743.51 740.5H1699.81V731.4H1735.31L1729.31 734.1C1729.31 731.3 1728.74 728.867 1727.61 726.8C1726.47 724.733 1724.91 723.133 1722.91 722C1720.91 720.8 1718.57 720.2 1715.91 720.2C1713.24 720.2 1710.87 720.8 1708.81 722C1706.81 723.133 1705.24 724.767 1704.11 726.9C1702.97 728.967 1702.41 731.433 1702.41 734.3V736.7C1702.41 739.633 1703.04 742.233 1704.31 744.5C1705.64 746.7 1707.47 748.4 1709.81 749.6C1712.21 750.733 1715.01 751.3 1718.21 751.3C1721.07 751.3 1723.57 750.867 1725.71 750C1727.91 749.133 1729.91 747.833 1731.71 746.1L1740.01 755.1C1737.54 757.9 1734.44 760.067 1730.71 761.6C1726.97 763.067 1722.67 763.8 1717.81 763.8ZM1777.29 763.8C1772.23 763.8 1767.66 762.667 1763.59 760.4C1759.53 758.067 1756.29 754.833 1753.89 750.7C1751.56 746.567 1750.39 741.7 1750.39 736.1C1750.39 730.433 1751.56 725.533 1753.89 721.4C1756.29 717.267 1759.53 714.067 1763.59 711.8C1767.66 709.533 1772.23 708.4 1777.29 708.4C1781.83 708.4 1785.79 709.4 1789.19 711.4C1792.59 713.4 1795.23 716.433 1797.09 720.5C1798.96 724.567 1799.89 729.767 1799.89 736.1C1799.89 742.367 1798.99 747.567 1797.19 751.7C1795.39 755.767 1792.79 758.8 1789.39 760.8C1786.06 762.8 1782.03 763.8 1777.29 763.8ZM1779.99 751C1782.53 751 1784.83 750.4 1786.89 749.2C1788.96 748 1790.59 746.3 1791.79 744.1C1793.06 741.833 1793.69 739.167 1793.69 736.1C1793.69 732.967 1793.06 730.3 1791.79 728.1C1790.59 725.9 1788.96 724.2 1786.89 723C1784.83 721.8 1782.53 721.2 1779.99 721.2C1777.39 721.2 1775.06 721.8 1772.99 723C1770.93 724.2 1769.26 725.9 1767.99 728.1C1766.79 730.3 1766.19 732.967 1766.19 736.1C1766.19 739.167 1766.79 741.833 1767.99 744.1C1769.26 746.3 1770.93 748 1772.99 749.2C1775.06 750.4 1777.39 751 1779.99 751ZM1794.09 763V752L1794.39 736L1793.39 720.1V688.8H1808.99V763H1794.09ZM1849.03 763.8C1843.3 763.8 1838.2 762.6 1833.73 760.2C1829.33 757.8 1825.83 754.533 1823.23 750.4C1820.7 746.2 1819.43 741.433 1819.43 736.1C1819.43 730.7 1820.7 725.933 1823.23 721.8C1825.83 717.6 1829.33 714.333 1833.73 712C1838.2 709.6 1843.3 708.4 1849.03 708.4C1854.7 708.4 1859.76 709.6 1864.23 712C1868.7 714.333 1872.2 717.567 1874.73 721.7C1877.26 725.833 1878.53 730.633 1878.53 736.1C1878.53 741.433 1877.26 746.2 1874.73 750.4C1872.2 754.533 1868.7 757.8 1864.23 760.2C1859.76 762.6 1854.7 763.8 1849.03 763.8ZM1849.03 751C1851.63 751 1853.96 750.4 1856.03 749.2C1858.1 748 1859.73 746.3 1860.93 744.1C1862.13 741.833 1862.73 739.167 1862.73 736.1C1862.73 732.967 1862.13 730.3 1860.93 728.1C1859.73 725.9 1858.1 724.2 1856.03 723C1853.96 721.8 1851.63 721.2 1849.03 721.2C1846.43 721.2 1844.1 721.8 1842.03 723C1839.96 724.2 1838.3 725.9 1837.03 728.1C1835.83 730.3 1835.23 732.967 1835.23 736.1C1835.23 739.167 1835.83 741.833 1837.03 744.1C1838.3 746.3 1839.96 748 1842.03 749.2C1844.1 750.4 1846.43 751 1849.03 751ZM1888.96 763V709.2H1903.86V724.4L1901.76 720C1903.36 716.2 1905.92 713.333 1909.46 711.4C1912.99 709.4 1917.29 708.4 1922.36 708.4V722.8C1921.69 722.733 1921.09 722.7 1920.56 722.7C1920.02 722.633 1919.46 722.6 1918.86 722.6C1914.59 722.6 1911.12 723.833 1908.46 726.3C1905.86 728.7 1904.56 732.467 1904.56 737.6V763H1888.96ZM1957.94 763.8C1951.81 763.8 1946.41 762.6 1941.74 760.2C1937.14 757.8 1933.58 754.533 1931.04 750.4C1928.51 746.2 1927.24 741.433 1927.24 736.1C1927.24 730.7 1928.48 725.933 1930.94 721.8C1933.48 717.6 1936.91 714.333 1941.24 712C1945.58 709.6 1950.48 708.4 1955.94 708.4C1961.21 708.4 1965.94 709.533 1970.14 711.8C1974.41 714 1977.78 717.2 1980.24 721.4C1982.71 725.533 1983.94 730.5 1983.94 736.3C1983.94 736.9 1983.91 737.6 1983.84 738.4C1983.78 739.133 1983.71 739.833 1983.64 740.5H1939.94V731.4H1975.44L1969.44 734.1C1969.44 731.3 1968.88 728.867 1967.74 726.8C1966.61 724.733 1965.04 723.133 1963.04 722C1961.04 720.8 1958.71 720.2 1956.04 720.2C1953.38 720.2 1951.01 720.8 1948.94 722C1946.94 723.133 1945.38 724.767 1944.24 726.9C1943.11 728.967 1942.54 731.433 1942.54 734.3V736.7C1942.54 739.633 1943.18 742.233 1944.44 744.5C1945.78 746.7 1947.61 748.4 1949.94 749.6C1952.34 750.733 1955.14 751.3 1958.34 751.3C1961.21 751.3 1963.71 750.867 1965.84 750C1968.04 749.133 1970.04 747.833 1971.84 746.1L1980.14 755.1C1977.68 757.9 1974.58 760.067 1970.84 761.6C1967.11 763.067 1962.81 763.8 1957.94 763.8ZM2012.43 763.8C2007.83 763.8 2003.4 763.267 1999.13 762.2C1994.93 761.067 1991.6 759.667 1989.13 758L1994.33 746.8C1996.8 748.333 1999.7 749.6 2003.03 750.6C2006.43 751.533 2009.76 752 2013.03 752C2016.63 752 2019.16 751.567 2020.63 750.7C2022.16 749.833 2022.93 748.633 2022.93 747.1C2022.93 745.833 2022.33 744.9 2021.13 744.3C2020 743.633 2018.46 743.133 2016.53 742.8C2014.6 742.467 2012.46 742.133 2010.13 741.8C2007.86 741.467 2005.56 741.033 2003.23 740.5C2000.9 739.9 1998.76 739.033 1996.83 737.9C1994.9 736.767 1993.33 735.233 1992.13 733.3C1991 731.367 1990.43 728.867 1990.43 725.8C1990.43 722.4 1991.4 719.4 1993.33 716.8C1995.33 714.2 1998.2 712.167 2001.93 710.7C2005.66 709.167 2010.13 708.4 2015.33 708.4C2019 708.4 2022.73 708.8 2026.53 709.6C2030.33 710.4 2033.5 711.567 2036.03 713.1L2030.83 724.2C2028.23 722.667 2025.6 721.633 2022.93 721.1C2020.33 720.5 2017.8 720.2 2015.33 720.2C2011.86 720.2 2009.33 720.667 2007.73 721.6C2006.13 722.533 2005.33 723.733 2005.33 725.2C2005.33 726.533 2005.9 727.533 2007.03 728.2C2008.23 728.867 2009.8 729.4 2011.73 729.8C2013.66 730.2 2015.76 730.567 2018.03 730.9C2020.36 731.167 2022.7 731.6 2025.03 732.2C2027.36 732.8 2029.46 733.667 2031.33 734.8C2033.26 735.867 2034.83 737.367 2036.03 739.3C2037.23 741.167 2037.83 743.633 2037.83 746.7C2037.83 750.033 2036.83 753 2034.83 755.6C2032.83 758.133 2029.93 760.133 2026.13 761.6C2022.4 763.067 2017.83 763.8 2012.43 763.8ZM2098.87 763.8C2093.81 763.8 2089.24 762.667 2085.17 760.4C2081.11 758.067 2077.87 754.833 2075.47 750.7C2073.14 746.567 2071.97 741.7 2071.97 736.1C2071.97 730.433 2073.14 725.533 2075.47 721.4C2077.87 717.267 2081.11 714.067 2085.17 711.8C2089.24 709.533 2093.81 708.4 2098.87 708.4C2103.41 708.4 2107.37 709.4 2110.77 711.4C2114.17 713.4 2116.81 716.433 2118.67 720.5C2120.54 724.567 2121.47 729.767 2121.47 736.1C2121.47 742.367 2120.57 747.567 2118.77 751.7C2116.97 755.767 2114.37 758.8 2110.97 760.8C2107.64 762.8 2103.61 763.8 2098.87 763.8ZM2101.57 751C2104.11 751 2106.41 750.4 2108.47 749.2C2110.54 748 2112.17 746.3 2113.37 744.1C2114.64 741.833 2115.27 739.167 2115.27 736.1C2115.27 732.967 2114.64 730.3 2113.37 728.1C2112.17 725.9 2110.54 724.2 2108.47 723C2106.41 721.8 2104.11 721.2 2101.57 721.2C2098.97 721.2 2096.64 721.8 2094.57 723C2092.51 724.2 2090.84 725.9 2089.57 728.1C2088.37 730.3 2087.77 732.967 2087.77 736.1C2087.77 739.167 2088.37 741.833 2089.57 744.1C2090.84 746.3 2092.51 748 2094.57 749.2C2096.64 750.4 2098.97 751 2101.57 751ZM2115.67 763V752L2115.97 736L2114.97 720.1V688.8H2130.57V763H2115.67ZM2171.71 763.8C2165.58 763.8 2160.18 762.6 2155.51 760.2C2150.91 757.8 2147.35 754.533 2144.81 750.4C2142.28 746.2 2141.01 741.433 2141.01 736.1C2141.01 730.7 2142.25 725.933 2144.71 721.8C2147.25 717.6 2150.68 714.333 2155.01 712C2159.35 709.6 2164.25 708.4 2169.71 708.4C2174.98 708.4 2179.71 709.533 2183.91 711.8C2188.18 714 2191.55 717.2 2194.01 721.4C2196.48 725.533 2197.71 730.5 2197.71 736.3C2197.71 736.9 2197.68 737.6 2197.61 738.4C2197.55 739.133 2197.48 739.833 2197.41 740.5H2153.71V731.4H2189.21L2183.21 734.1C2183.21 731.3 2182.65 728.867 2181.51 726.8C2180.38 724.733 2178.81 723.133 2176.81 722C2174.81 720.8 2172.48 720.2 2169.81 720.2C2167.15 720.2 2164.78 720.8 2162.71 722C2160.71 723.133 2159.15 724.767 2158.01 726.9C2156.88 728.967 2156.31 731.433 2156.31 734.3V736.7C2156.31 739.633 2156.95 742.233 2158.21 744.5C2159.55 746.7 2161.38 748.4 2163.71 749.6C2166.11 750.733 2168.91 751.3 2172.11 751.3C2174.98 751.3 2177.48 750.867 2179.61 750C2181.81 749.133 2183.81 747.833 2185.61 746.1L2193.91 755.1C2191.45 757.9 2188.35 760.067 2184.61 761.6C2180.88 763.067 2176.58 763.8 2171.71 763.8ZM2254.52 763.8C2249.92 763.8 2245.49 763.267 2241.22 762.2C2237.02 761.067 2233.69 759.667 2231.22 758L2236.42 746.8C2238.89 748.333 2241.79 749.6 2245.12 750.6C2248.52 751.533 2251.85 752 2255.12 752C2258.72 752 2261.25 751.567 2262.72 750.7C2264.25 749.833 2265.02 748.633 2265.02 747.1C2265.02 745.833 2264.42 744.9 2263.22 744.3C2262.09 743.633 2260.55 743.133 2258.62 742.8C2256.69 742.467 2254.55 742.133 2252.22 741.8C2249.95 741.467 2247.65 741.033 2245.32 740.5C2242.99 739.9 2240.85 739.033 2238.92 737.9C2236.99 736.767 2235.42 735.233 2234.22 733.3C2233.09 731.367 2232.52 728.867 2232.52 725.8C2232.52 722.4 2233.49 719.4 2235.42 716.8C2237.42 714.2 2240.29 712.167 2244.02 710.7C2247.75 709.167 2252.22 708.4 2257.42 708.4C2261.09 708.4 2264.82 708.8 2268.62 709.6C2272.42 710.4 2275.59 711.567 2278.12 713.1L2272.92 724.2C2270.32 722.667 2267.69 721.633 2265.02 721.1C2262.42 720.5 2259.89 720.2 2257.42 720.2C2253.95 720.2 2251.42 720.667 2249.82 721.6C2248.22 722.533 2247.42 723.733 2247.42 725.2C2247.42 726.533 2247.99 727.533 2249.12 728.2C2250.32 728.867 2251.89 729.4 2253.82 729.8C2255.75 730.2 2257.85 730.567 2260.12 730.9C2262.45 731.167 2264.79 731.6 2267.12 732.2C2269.45 732.8 2271.55 733.667 2273.42 734.8C2275.35 735.867 2276.92 737.367 2278.12 739.3C2279.32 741.167 2279.92 743.633 2279.92 746.7C2279.92 750.033 2278.92 753 2276.92 755.6C2274.92 758.133 2272.02 760.133 2268.22 761.6C2264.49 763.067 2259.92 763.8 2254.52 763.8ZM2315.14 763.8C2309.41 763.8 2304.31 762.6 2299.84 760.2C2295.44 757.8 2291.94 754.533 2289.34 750.4C2286.81 746.2 2285.54 741.433 2285.54 736.1C2285.54 730.7 2286.81 725.933 2289.34 721.8C2291.94 717.6 2295.44 714.333 2299.84 712C2304.31 709.6 2309.41 708.4 2315.14 708.4C2320.81 708.4 2325.88 709.6 2330.34 712C2334.81 714.333 2338.31 717.567 2340.84 721.7C2343.38 725.833 2344.64 730.633 2344.64 736.1C2344.64 741.433 2343.38 746.2 2340.84 750.4C2338.31 754.533 2334.81 757.8 2330.34 760.2C2325.88 762.6 2320.81 763.8 2315.14 763.8ZM2315.14 751C2317.74 751 2320.08 750.4 2322.14 749.2C2324.21 748 2325.84 746.3 2327.04 744.1C2328.24 741.833 2328.84 739.167 2328.84 736.1C2328.84 732.967 2328.24 730.3 2327.04 728.1C2325.84 725.9 2324.21 724.2 2322.14 723C2320.08 721.8 2317.74 721.2 2315.14 721.2C2312.54 721.2 2310.21 721.8 2308.14 723C2306.08 724.2 2304.41 725.9 2303.14 728.1C2301.94 730.3 2301.34 732.967 2301.34 736.1C2301.34 739.167 2301.94 741.833 2303.14 744.1C2304.41 746.3 2306.08 748 2308.14 749.2C2310.21 750.4 2312.54 751 2315.14 751ZM2356.97 763V708C2356.97 701.933 2358.77 697.1 2362.37 693.5C2365.97 689.833 2371.1 688 2377.77 688C2380.04 688 2382.2 688.233 2384.27 688.7C2386.4 689.167 2388.2 689.9 2389.67 690.9L2385.57 702.2C2384.7 701.6 2383.74 701.133 2382.67 700.8C2381.6 700.467 2380.47 700.3 2379.27 700.3C2377 700.3 2375.24 700.967 2373.97 702.3C2372.77 703.567 2372.17 705.5 2372.17 708.1V713.1L2372.57 719.8V763H2356.97ZM2348.67 722.4V710.4H2385.97V722.4H2348.67ZM2415.74 763.8C2409.41 763.8 2404.48 762.2 2400.94 759C2397.41 755.733 2395.64 750.9 2395.64 744.5V697.3H2411.24V744.3C2411.24 746.567 2411.84 748.333 2413.04 749.6C2414.24 750.8 2415.88 751.4 2417.94 751.4C2420.41 751.4 2422.51 750.733 2424.24 749.4L2428.44 760.4C2426.84 761.533 2424.91 762.4 2422.64 763C2420.44 763.533 2418.14 763.8 2415.74 763.8ZM2387.34 722.4V710.4H2424.64V722.4H2387.34ZM2448.52 763L2429.12 709.2H2443.82L2459.92 755.5H2452.92L2469.72 709.2H2482.92L2499.22 755.5H2492.22L2508.82 709.2H2522.62L2503.12 763H2488.02L2473.72 723.3H2478.32L2463.52 763H2448.52ZM2561.12 763V752.5L2560.12 750.2V731.4C2560.12 728.067 2559.08 725.467 2557.02 723.6C2555.02 721.733 2551.92 720.8 2547.72 720.8C2544.85 720.8 2542.02 721.267 2539.22 722.2C2536.48 723.067 2534.15 724.267 2532.22 725.8L2526.62 714.9C2529.55 712.833 2533.08 711.233 2537.22 710.1C2541.35 708.967 2545.55 708.4 2549.82 708.4C2558.02 708.4 2564.38 710.333 2568.92 714.2C2573.45 718.067 2575.72 724.1 2575.72 732.3V763H2561.12ZM2544.72 763.8C2540.52 763.8 2536.92 763.1 2533.92 761.7C2530.92 760.233 2528.62 758.267 2527.02 755.8C2525.42 753.333 2524.62 750.567 2524.62 747.5C2524.62 744.3 2525.38 741.5 2526.92 739.1C2528.52 736.7 2531.02 734.833 2534.42 733.5C2537.82 732.1 2542.25 731.4 2547.72 731.4H2562.02V740.5H2549.42C2545.75 740.5 2543.22 741.1 2541.82 742.3C2540.48 743.5 2539.82 745 2539.82 746.8C2539.82 748.8 2540.58 750.4 2542.12 751.6C2543.72 752.733 2545.88 753.3 2548.62 753.3C2551.22 753.3 2553.55 752.7 2555.62 751.5C2557.68 750.233 2559.18 748.4 2560.12 746L2562.52 753.2C2561.38 756.667 2559.32 759.3 2556.32 761.1C2553.32 762.9 2549.45 763.8 2544.72 763.8ZM2589.84 763V709.2H2604.74V724.4L2602.64 720C2604.24 716.2 2606.8 713.333 2610.34 711.4C2613.87 709.4 2618.17 708.4 2623.24 708.4V722.8C2622.57 722.733 2621.97 722.7 2621.44 722.7C2620.9 722.633 2620.34 722.6 2619.74 722.6C2615.47 722.6 2612 723.833 2609.34 726.3C2606.74 728.7 2605.44 732.467 2605.44 737.6V763H2589.84ZM2658.82 763.8C2652.69 763.8 2647.29 762.6 2642.62 760.2C2638.02 757.8 2634.46 754.533 2631.92 750.4C2629.39 746.2 2628.12 741.433 2628.12 736.1C2628.12 730.7 2629.36 725.933 2631.82 721.8C2634.36 717.6 2637.79 714.333 2642.12 712C2646.46 709.6 2651.36 708.4 2656.82 708.4C2662.09 708.4 2666.82 709.533 2671.02 711.8C2675.29 714 2678.66 717.2 2681.12 721.4C2683.59 725.533 2684.82 730.5 2684.82 736.3C2684.82 736.9 2684.79 737.6 2684.72 738.4C2684.66 739.133 2684.59 739.833 2684.52 740.5H2640.82V731.4H2676.32L2670.32 734.1C2670.32 731.3 2669.76 728.867 2668.62 726.8C2667.49 724.733 2665.92 723.133 2663.92 722C2661.92 720.8 2659.59 720.2 2656.92 720.2C2654.26 720.2 2651.89 720.8 2649.82 722C2647.82 723.133 2646.26 724.767 2645.12 726.9C2643.99 728.967 2643.42 731.433 2643.42 734.3V736.7C2643.42 739.633 2644.06 742.233 2645.32 744.5C2646.66 746.7 2648.49 748.4 2650.82 749.6C2653.22 750.733 2656.02 751.3 2659.22 751.3C2662.09 751.3 2664.59 750.867 2666.72 750C2668.92 749.133 2670.92 747.833 2672.72 746.1L2681.02 755.1C2678.56 757.9 2675.46 760.067 2671.72 761.6C2667.99 763.067 2663.69 763.8 2658.82 763.8ZM2701.11 763.8C2698.44 763.8 2696.14 762.9 2694.21 761.1C2692.34 759.233 2691.41 756.867 2691.41 754C2691.41 751.133 2692.34 748.833 2694.21 747.1C2696.14 745.3 2698.44 744.4 2701.11 744.4C2703.84 744.4 2706.14 745.3 2708.01 747.1C2709.87 748.833 2710.81 751.133 2710.81 754C2710.81 756.867 2709.87 759.233 2708.01 761.1C2706.14 762.9 2703.84 763.8 2701.11 763.8ZM2727.28 763.8C2724.61 763.8 2722.31 762.9 2720.38 761.1C2718.51 759.233 2717.58 756.867 2717.58 754C2717.58 751.133 2718.51 748.833 2720.38 747.1C2722.31 745.3 2724.61 744.4 2727.28 744.4C2730.01 744.4 2732.31 745.3 2734.18 747.1C2736.05 748.833 2736.98 751.133 2736.98 754C2736.98 756.867 2736.05 759.233 2734.18 761.1C2732.31 762.9 2730.01 763.8 2727.28 763.8ZM2753.45 763.8C2750.78 763.8 2748.48 762.9 2746.55 761.1C2744.68 759.233 2743.75 756.867 2743.75 754C2743.75 751.133 2744.68 748.833 2746.55 747.1C2748.48 745.3 2750.78 744.4 2753.45 744.4C2756.18 744.4 2758.48 745.3 2760.35 747.1C2762.22 748.833 2763.15 751.133 2763.15 754C2763.15 756.867 2762.22 759.233 2760.35 761.1C2758.48 762.9 2756.18 763.8 2753.45 763.8ZM1231.1 928.4C1235.37 928.4 1239.13 929.267 1242.4 931C1245.73 932.667 1248.33 935.267 1250.2 938.8C1252.13 942.267 1253.1 946.733 1253.1 952.2V983H1237.5V954.6C1237.5 950.267 1236.6 947.067 1234.8 945C1233 942.933 1230.47 941.9 1227.2 941.9C1224.93 941.9 1222.9 942.433 1221.1 943.5C1219.3 944.5 1217.9 946.033 1216.9 948.1C1215.9 950.167 1215.4 952.8 1215.4 956V983H1199.8V954.6C1199.8 950.267 1198.9 947.067 1197.1 945C1195.37 942.933 1192.87 941.9 1189.6 941.9C1187.33 941.9 1185.3 942.433 1183.5 943.5C1181.7 944.5 1180.3 946.033 1179.3 948.1C1178.3 950.167 1177.8 952.8 1177.8 956V983H1162.2V929.2H1177.1V943.9L1174.3 939.6C1176.17 935.933 1178.8 933.167 1182.2 931.3C1185.67 929.367 1189.6 928.4 1194 928.4C1198.93 928.4 1203.23 929.667 1206.9 932.2C1210.63 934.667 1213.1 938.467 1214.3 943.6L1208.8 942.1C1210.6 937.9 1213.47 934.567 1217.4 932.1C1221.4 929.633 1225.97 928.4 1231.1 928.4ZM1300.08 983V972.5L1299.08 970.2V951.4C1299.08 948.067 1298.05 945.467 1295.98 943.6C1293.98 941.733 1290.88 940.8 1286.68 940.8C1283.82 940.8 1280.98 941.267 1278.18 942.2C1275.45 943.067 1273.12 944.267 1271.18 945.8L1265.58 934.9C1268.52 932.833 1272.05 931.233 1276.18 930.1C1280.32 928.967 1284.52 928.4 1288.78 928.4C1296.98 928.4 1303.35 930.333 1307.88 934.2C1312.42 938.067 1314.68 944.1 1314.68 952.3V983H1300.08ZM1283.68 983.8C1279.48 983.8 1275.88 983.1 1272.88 981.7C1269.88 980.233 1267.58 978.267 1265.98 975.8C1264.38 973.333 1263.58 970.567 1263.58 967.5C1263.58 964.3 1264.35 961.5 1265.88 959.1C1267.48 956.7 1269.98 954.833 1273.38 953.5C1276.78 952.1 1281.22 951.4 1286.68 951.4H1300.98V960.5H1288.38C1284.72 960.5 1282.18 961.1 1280.78 962.3C1279.45 963.5 1278.78 965 1278.78 966.8C1278.78 968.8 1279.55 970.4 1281.08 971.6C1282.68 972.733 1284.85 973.3 1287.58 973.3C1290.18 973.3 1292.52 972.7 1294.58 971.5C1296.65 970.233 1298.15 968.4 1299.08 966L1301.48 973.2C1300.35 976.667 1298.28 979.3 1295.28 981.1C1292.28 982.9 1288.42 983.8 1283.68 983.8ZM1346.9 983.8C1342.3 983.8 1337.87 983.267 1333.6 982.2C1329.4 981.067 1326.07 979.667 1323.6 978L1328.8 966.8C1331.27 968.333 1334.17 969.6 1337.5 970.6C1340.9 971.533 1344.23 972 1347.5 972C1351.1 972 1353.63 971.567 1355.1 970.7C1356.63 969.833 1357.4 968.633 1357.4 967.1C1357.4 965.833 1356.8 964.9 1355.6 964.3C1354.47 963.633 1352.93 963.133 1351 962.8C1349.07 962.467 1346.93 962.133 1344.6 961.8C1342.33 961.467 1340.03 961.033 1337.7 960.5C1335.37 959.9 1333.23 959.033 1331.3 957.9C1329.37 956.767 1327.8 955.233 1326.6 953.3C1325.47 951.367 1324.9 948.867 1324.9 945.8C1324.9 942.4 1325.87 939.4 1327.8 936.8C1329.8 934.2 1332.67 932.167 1336.4 930.7C1340.13 929.167 1344.6 928.4 1349.8 928.4C1353.47 928.4 1357.2 928.8 1361 929.6C1364.8 930.4 1367.97 931.567 1370.5 933.1L1365.3 944.2C1362.7 942.667 1360.07 941.633 1357.4 941.1C1354.8 940.5 1352.27 940.2 1349.8 940.2C1346.33 940.2 1343.8 940.667 1342.2 941.6C1340.6 942.533 1339.8 943.733 1339.8 945.2C1339.8 946.533 1340.37 947.533 1341.5 948.2C1342.7 948.867 1344.27 949.4 1346.2 949.8C1348.13 950.2 1350.23 950.567 1352.5 950.9C1354.83 951.167 1357.17 951.6 1359.5 952.2C1361.83 952.8 1363.93 953.667 1365.8 954.8C1367.73 955.867 1369.3 957.367 1370.5 959.3C1371.7 961.167 1372.3 963.633 1372.3 966.7C1372.3 970.033 1371.3 973 1369.3 975.6C1367.3 978.133 1364.4 980.133 1360.6 981.6C1356.87 983.067 1352.3 983.8 1346.9 983.8ZM1442.05 983.8C1437.51 983.8 1433.55 982.8 1430.15 980.8C1426.75 978.8 1424.08 975.767 1422.15 971.7C1420.28 967.567 1419.35 962.367 1419.35 956.1C1419.35 949.767 1420.25 944.567 1422.05 940.5C1423.85 936.433 1426.45 933.4 1429.85 931.4C1433.25 929.4 1437.31 928.4 1442.05 928.4C1447.11 928.4 1451.65 929.567 1455.65 931.9C1459.71 934.167 1462.91 937.367 1465.25 941.5C1467.65 945.633 1468.85 950.5 1468.85 956.1C1468.85 961.767 1467.65 966.667 1465.25 970.8C1462.91 974.933 1459.71 978.133 1455.65 980.4C1451.65 982.667 1447.11 983.8 1442.05 983.8ZM1410.25 1002.4V929.2H1425.15V940.2L1424.85 956.2L1425.85 972.1V1002.4H1410.25ZM1439.35 971C1441.95 971 1444.25 970.4 1446.25 969.2C1448.31 968 1449.95 966.3 1451.15 964.1C1452.41 961.833 1453.05 959.167 1453.05 956.1C1453.05 952.967 1452.41 950.3 1451.15 948.1C1449.95 945.9 1448.31 944.2 1446.25 943C1444.25 941.8 1441.95 941.2 1439.35 941.2C1436.75 941.2 1434.41 941.8 1432.35 943C1430.28 944.2 1428.65 945.9 1427.45 948.1C1426.25 950.3 1425.65 952.967 1425.65 956.1C1425.65 959.167 1426.25 961.833 1427.45 964.1C1428.65 966.3 1430.28 968 1432.35 969.2C1434.41 970.4 1436.75 971 1439.35 971ZM1511.41 983V972.5L1510.41 970.2V951.4C1510.41 948.067 1509.38 945.467 1507.31 943.6C1505.31 941.733 1502.21 940.8 1498.01 940.8C1495.14 940.8 1492.31 941.267 1489.51 942.2C1486.78 943.067 1484.44 944.267 1482.51 945.8L1476.91 934.9C1479.84 932.833 1483.38 931.233 1487.51 930.1C1491.64 928.967 1495.84 928.4 1500.11 928.4C1508.31 928.4 1514.68 930.333 1519.21 934.2C1523.74 938.067 1526.01 944.1 1526.01 952.3V983H1511.41ZM1495.01 983.8C1490.81 983.8 1487.21 983.1 1484.21 981.7C1481.21 980.233 1478.91 978.267 1477.31 975.8C1475.71 973.333 1474.91 970.567 1474.91 967.5C1474.91 964.3 1475.68 961.5 1477.21 959.1C1478.81 956.7 1481.31 954.833 1484.71 953.5C1488.11 952.1 1492.54 951.4 1498.01 951.4H1512.31V960.5H1499.71C1496.04 960.5 1493.51 961.1 1492.11 962.3C1490.78 963.5 1490.11 965 1490.11 966.8C1490.11 968.8 1490.88 970.4 1492.41 971.6C1494.01 972.733 1496.18 973.3 1498.91 973.3C1501.51 973.3 1503.84 972.7 1505.91 971.5C1507.98 970.233 1509.48 968.4 1510.41 966L1512.81 973.2C1511.68 976.667 1509.61 979.3 1506.61 981.1C1503.61 982.9 1499.74 983.8 1495.01 983.8ZM1540.13 983V929.2H1555.03V944.4L1552.93 940C1554.53 936.2 1557.1 933.333 1560.63 931.4C1564.16 929.4 1568.46 928.4 1573.53 928.4V942.8C1572.86 942.733 1572.26 942.7 1571.73 942.7C1571.2 942.633 1570.63 942.6 1570.03 942.6C1565.76 942.6 1562.3 943.833 1559.63 946.3C1557.03 948.7 1555.73 952.467 1555.73 957.6V983H1540.13ZM1612.29 983V972.5L1611.29 970.2V951.4C1611.29 948.067 1610.26 945.467 1608.19 943.6C1606.19 941.733 1603.09 940.8 1598.89 940.8C1596.02 940.8 1593.19 941.267 1590.39 942.2C1587.66 943.067 1585.32 944.267 1583.39 945.8L1577.79 934.9C1580.72 932.833 1584.26 931.233 1588.39 930.1C1592.52 928.967 1596.72 928.4 1600.99 928.4C1609.19 928.4 1615.56 930.333 1620.09 934.2C1624.62 938.067 1626.89 944.1 1626.89 952.3V983H1612.29ZM1595.89 983.8C1591.69 983.8 1588.09 983.1 1585.09 981.7C1582.09 980.233 1579.79 978.267 1578.19 975.8C1576.59 973.333 1575.79 970.567 1575.79 967.5C1575.79 964.3 1576.56 961.5 1578.09 959.1C1579.69 956.7 1582.19 954.833 1585.59 953.5C1588.99 952.1 1593.42 951.4 1598.89 951.4H1613.19V960.5H1600.59C1596.92 960.5 1594.39 961.1 1592.99 962.3C1591.66 963.5 1590.99 965 1590.99 966.8C1590.99 968.8 1591.76 970.4 1593.29 971.6C1594.89 972.733 1597.06 973.3 1599.79 973.3C1602.39 973.3 1604.72 972.7 1606.79 971.5C1608.86 970.233 1610.36 968.4 1611.29 966L1613.69 973.2C1612.56 976.667 1610.49 979.3 1607.49 981.1C1604.49 982.9 1600.62 983.8 1595.89 983.8ZM1687.43 983.8C1682.83 983.8 1678.4 983.267 1674.13 982.2C1669.93 981.067 1666.6 979.667 1664.13 978L1669.33 966.8C1671.8 968.333 1674.7 969.6 1678.03 970.6C1681.43 971.533 1684.76 972 1688.03 972C1691.63 972 1694.16 971.567 1695.63 970.7C1697.16 969.833 1697.93 968.633 1697.93 967.1C1697.93 965.833 1697.33 964.9 1696.13 964.3C1695 963.633 1693.46 963.133 1691.53 962.8C1689.6 962.467 1687.46 962.133 1685.13 961.8C1682.86 961.467 1680.56 961.033 1678.23 960.5C1675.9 959.9 1673.76 959.033 1671.83 957.9C1669.9 956.767 1668.33 955.233 1667.13 953.3C1666 951.367 1665.43 948.867 1665.43 945.8C1665.43 942.4 1666.4 939.4 1668.33 936.8C1670.33 934.2 1673.2 932.167 1676.93 930.7C1680.66 929.167 1685.13 928.4 1690.33 928.4C1694 928.4 1697.73 928.8 1701.53 929.6C1705.33 930.4 1708.5 931.567 1711.03 933.1L1705.83 944.2C1703.23 942.667 1700.6 941.633 1697.93 941.1C1695.33 940.5 1692.8 940.2 1690.33 940.2C1686.86 940.2 1684.33 940.667 1682.73 941.6C1681.13 942.533 1680.33 943.733 1680.33 945.2C1680.33 946.533 1680.9 947.533 1682.03 948.2C1683.23 948.867 1684.8 949.4 1686.73 949.8C1688.66 950.2 1690.76 950.567 1693.03 950.9C1695.36 951.167 1697.7 951.6 1700.03 952.2C1702.36 952.8 1704.46 953.667 1706.33 954.8C1708.26 955.867 1709.83 957.367 1711.03 959.3C1712.23 961.167 1712.83 963.633 1712.83 966.7C1712.83 970.033 1711.83 973 1709.83 975.6C1707.83 978.133 1704.93 980.133 1701.13 981.6C1697.4 983.067 1692.83 983.8 1687.43 983.8ZM1749.15 983.8C1743.02 983.8 1737.62 982.6 1732.95 980.2C1728.35 977.8 1724.79 974.533 1722.25 970.4C1719.72 966.2 1718.45 961.433 1718.45 956.1C1718.45 950.7 1719.69 945.933 1722.15 941.8C1724.69 937.6 1728.12 934.333 1732.45 932C1736.79 929.6 1741.69 928.4 1747.15 928.4C1752.42 928.4 1757.15 929.533 1761.35 931.8C1765.62 934 1768.99 937.2 1771.45 941.4C1773.92 945.533 1775.15 950.5 1775.15 956.3C1775.15 956.9 1775.12 957.6 1775.05 958.4C1774.99 959.133 1774.92 959.833 1774.85 960.5H1731.15V951.4H1766.65L1760.65 954.1C1760.65 951.3 1760.09 948.867 1758.95 946.8C1757.82 944.733 1756.25 943.133 1754.25 942C1752.25 940.8 1749.92 940.2 1747.25 940.2C1744.59 940.2 1742.22 940.8 1740.15 942C1738.15 943.133 1736.59 944.767 1735.45 946.9C1734.32 948.967 1733.75 951.433 1733.75 954.3V956.7C1733.75 959.633 1734.39 962.233 1735.65 964.5C1736.99 966.7 1738.82 968.4 1741.15 969.6C1743.55 970.733 1746.35 971.3 1749.55 971.3C1752.42 971.3 1754.92 970.867 1757.05 970C1759.25 969.133 1761.25 967.833 1763.05 966.1L1771.35 975.1C1768.89 977.9 1765.79 980.067 1762.05 981.6C1758.32 983.067 1754.02 983.8 1749.15 983.8ZM1835.86 983.8C1829.53 983.8 1824.59 982.2 1821.06 979C1817.53 975.733 1815.76 970.9 1815.76 964.5V917.3H1831.36V964.3C1831.36 966.567 1831.96 968.333 1833.16 969.6C1834.36 970.8 1835.99 971.4 1838.06 971.4C1840.53 971.4 1842.63 970.733 1844.36 969.4L1848.56 980.4C1846.96 981.533 1845.03 982.4 1842.76 983C1840.56 983.533 1838.26 983.8 1835.86 983.8ZM1807.46 942.4V930.4H1844.76V942.4H1807.46ZM1881.26 983.8C1875.52 983.8 1870.42 982.6 1865.96 980.2C1861.56 977.8 1858.06 974.533 1855.46 970.4C1852.92 966.2 1851.66 961.433 1851.66 956.1C1851.66 950.7 1852.92 945.933 1855.46 941.8C1858.06 937.6 1861.56 934.333 1865.96 932C1870.42 929.6 1875.52 928.4 1881.26 928.4C1886.92 928.4 1891.99 929.6 1896.46 932C1900.92 934.333 1904.42 937.567 1906.96 941.7C1909.49 945.833 1910.76 950.633 1910.76 956.1C1910.76 961.433 1909.49 966.2 1906.96 970.4C1904.42 974.533 1900.92 977.8 1896.46 980.2C1891.99 982.6 1886.92 983.8 1881.26 983.8ZM1881.26 971C1883.86 971 1886.19 970.4 1888.26 969.2C1890.32 968 1891.96 966.3 1893.16 964.1C1894.36 961.833 1894.96 959.167 1894.96 956.1C1894.96 952.967 1894.36 950.3 1893.16 948.1C1891.96 945.9 1890.32 944.2 1888.26 943C1886.19 941.8 1883.86 941.2 1881.26 941.2C1878.66 941.2 1876.32 941.8 1874.26 943C1872.19 944.2 1870.52 945.9 1869.26 948.1C1868.06 950.3 1867.46 952.967 1867.46 956.1C1867.46 959.167 1868.06 961.833 1869.26 964.1C1870.52 966.3 1872.19 968 1874.26 969.2C1876.32 970.4 1878.66 971 1881.26 971ZM1921.18 983V929.2H1936.08V944.4L1933.98 940C1935.58 936.2 1938.15 933.333 1941.68 931.4C1945.22 929.4 1949.52 928.4 1954.58 928.4V942.8C1953.92 942.733 1953.32 942.7 1952.78 942.7C1952.25 942.633 1951.68 942.6 1951.08 942.6C1946.82 942.6 1943.35 943.833 1940.68 946.3C1938.08 948.7 1936.78 952.467 1936.78 957.6V983H1921.18ZM1996.66 928.4C2000.92 928.4 2004.72 929.267 2008.06 931C2011.46 932.667 2014.12 935.267 2016.06 938.8C2017.99 942.267 2018.96 946.733 2018.96 952.2V983H2003.36V954.6C2003.36 950.267 2002.39 947.067 2000.46 945C1998.59 942.933 1995.92 941.9 1992.46 941.9C1989.99 941.9 1987.76 942.433 1985.76 943.5C1983.82 944.5 1982.29 946.067 1981.16 948.2C1980.09 950.333 1979.56 953.067 1979.56 956.4V983H1963.96V929.2H1978.86V944.1L1976.06 939.6C1977.99 936 1980.76 933.233 1984.36 931.3C1987.96 929.367 1992.06 928.4 1996.66 928.4ZM2066.1 983V972.5L2065.1 970.2V951.4C2065.1 948.067 2064.07 945.467 2062 943.6C2060 941.733 2056.9 940.8 2052.7 940.8C2049.83 940.8 2047 941.267 2044.2 942.2C2041.47 943.067 2039.13 944.267 2037.2 945.8L2031.6 934.9C2034.53 932.833 2038.07 931.233 2042.2 930.1C2046.33 928.967 2050.53 928.4 2054.8 928.4C2063 928.4 2069.37 930.333 2073.9 934.2C2078.43 938.067 2080.7 944.1 2080.7 952.3V983H2066.1ZM2049.7 983.8C2045.5 983.8 2041.9 983.1 2038.9 981.7C2035.9 980.233 2033.6 978.267 2032 975.8C2030.4 973.333 2029.6 970.567 2029.6 967.5C2029.6 964.3 2030.37 961.5 2031.9 959.1C2033.5 956.7 2036 954.833 2039.4 953.5C2042.8 952.1 2047.23 951.4 2052.7 951.4H2067V960.5H2054.4C2050.73 960.5 2048.2 961.1 2046.8 962.3C2045.47 963.5 2044.8 965 2044.8 966.8C2044.8 968.8 2045.57 970.4 2047.1 971.6C2048.7 972.733 2050.87 973.3 2053.6 973.3C2056.2 973.3 2058.53 972.7 2060.6 971.5C2062.67 970.233 2064.17 968.4 2065.1 966L2067.5 973.2C2066.37 976.667 2064.3 979.3 2061.3 981.1C2058.3 982.9 2054.43 983.8 2049.7 983.8ZM2094.82 983V929.2H2109.72V944.4L2107.62 940C2109.22 936.2 2111.78 933.333 2115.32 931.4C2118.85 929.4 2123.15 928.4 2128.22 928.4V942.8C2127.55 942.733 2126.95 942.7 2126.42 942.7C2125.88 942.633 2125.32 942.6 2124.72 942.6C2120.45 942.6 2116.98 943.833 2114.32 946.3C2111.72 948.7 2110.42 952.467 2110.42 957.6V983H2094.82ZM2163.8 983.8C2157.67 983.8 2152.27 982.6 2147.6 980.2C2143 977.8 2139.44 974.533 2136.9 970.4C2134.37 966.2 2133.1 961.433 2133.1 956.1C2133.1 950.7 2134.34 945.933 2136.8 941.8C2139.34 937.6 2142.77 934.333 2147.1 932C2151.44 929.6 2156.34 928.4 2161.8 928.4C2167.07 928.4 2171.8 929.533 2176 931.8C2180.27 934 2183.64 937.2 2186.1 941.4C2188.57 945.533 2189.8 950.5 2189.8 956.3C2189.8 956.9 2189.77 957.6 2189.7 958.4C2189.64 959.133 2189.57 959.833 2189.5 960.5H2145.8V951.4H2181.3L2175.3 954.1C2175.3 951.3 2174.74 948.867 2173.6 946.8C2172.47 944.733 2170.9 943.133 2168.9 942C2166.9 940.8 2164.57 940.2 2161.9 940.2C2159.24 940.2 2156.87 940.8 2154.8 942C2152.8 943.133 2151.24 944.767 2150.1 946.9C2148.97 948.967 2148.4 951.433 2148.4 954.3V956.7C2148.4 959.633 2149.04 962.233 2150.3 964.5C2151.64 966.7 2153.47 968.4 2155.8 969.6C2158.2 970.733 2161 971.3 2164.2 971.3C2167.07 971.3 2169.57 970.867 2171.7 970C2173.9 969.133 2175.9 967.833 2177.7 966.1L2186 975.1C2183.54 977.9 2180.44 980.067 2176.7 981.6C2172.97 983.067 2168.67 983.8 2163.8 983.8ZM2269.09 928.4C2273.35 928.4 2277.12 929.267 2280.39 931C2283.72 932.667 2286.32 935.267 2288.19 938.8C2290.12 942.267 2291.09 946.733 2291.09 952.2V983H2275.49V954.6C2275.49 950.267 2274.59 947.067 2272.79 945C2270.99 942.933 2268.45 941.9 2265.19 941.9C2262.92 941.9 2260.89 942.433 2259.09 943.5C2257.29 944.5 2255.89 946.033 2254.89 948.1C2253.89 950.167 2253.39 952.8 2253.39 956V983H2237.79V954.6C2237.79 950.267 2236.89 947.067 2235.09 945C2233.35 942.933 2230.85 941.9 2227.59 941.9C2225.32 941.9 2223.29 942.433 2221.49 943.5C2219.69 944.5 2218.29 946.033 2217.29 948.1C2216.29 950.167 2215.79 952.8 2215.79 956V983H2200.19V929.2H2215.09V943.9L2212.29 939.6C2214.15 935.933 2216.79 933.167 2220.19 931.3C2223.65 929.367 2227.59 928.4 2231.99 928.4C2236.92 928.4 2241.22 929.667 2244.89 932.2C2248.62 934.667 2251.09 938.467 2252.29 943.6L2246.79 942.1C2248.59 937.9 2251.45 934.567 2255.39 932.1C2259.39 929.633 2263.95 928.4 2269.09 928.4ZM1185.3 1093.8C1180.23 1093.8 1175.67 1092.67 1171.6 1090.4C1167.53 1088.07 1164.3 1084.83 1161.9 1080.7C1159.57 1076.57 1158.4 1071.7 1158.4 1066.1C1158.4 1060.43 1159.57 1055.53 1161.9 1051.4C1164.3 1047.27 1167.53 1044.07 1171.6 1041.8C1175.67 1039.53 1180.23 1038.4 1185.3 1038.4C1189.83 1038.4 1193.8 1039.4 1197.2 1041.4C1200.6 1043.4 1203.23 1046.43 1205.1 1050.5C1206.97 1054.57 1207.9 1059.77 1207.9 1066.1C1207.9 1072.37 1207 1077.57 1205.2 1081.7C1203.4 1085.77 1200.8 1088.8 1197.4 1090.8C1194.07 1092.8 1190.03 1093.8 1185.3 1093.8ZM1188 1081C1190.53 1081 1192.83 1080.4 1194.9 1079.2C1196.97 1078 1198.6 1076.3 1199.8 1074.1C1201.07 1071.83 1201.7 1069.17 1201.7 1066.1C1201.7 1062.97 1201.07 1060.3 1199.8 1058.1C1198.6 1055.9 1196.97 1054.2 1194.9 1053C1192.83 1051.8 1190.53 1051.2 1188 1051.2C1185.4 1051.2 1183.07 1051.8 1181 1053C1178.93 1054.2 1177.27 1055.9 1176 1058.1C1174.8 1060.3 1174.2 1062.97 1174.2 1066.1C1174.2 1069.17 1174.8 1071.83 1176 1074.1C1177.27 1076.3 1178.93 1078 1181 1079.2C1183.07 1080.4 1185.4 1081 1188 1081ZM1202.1 1093V1082L1202.4 1066L1201.4 1050.1V1018.8H1217V1093H1202.1ZM1258.14 1093.8C1252 1093.8 1246.6 1092.6 1241.94 1090.2C1237.34 1087.8 1233.77 1084.53 1231.24 1080.4C1228.7 1076.2 1227.44 1071.43 1227.44 1066.1C1227.44 1060.7 1228.67 1055.93 1231.14 1051.8C1233.67 1047.6 1237.1 1044.33 1241.44 1042C1245.77 1039.6 1250.67 1038.4 1256.14 1038.4C1261.4 1038.4 1266.14 1039.53 1270.34 1041.8C1274.6 1044 1277.97 1047.2 1280.44 1051.4C1282.9 1055.53 1284.14 1060.5 1284.14 1066.3C1284.14 1066.9 1284.1 1067.6 1284.04 1068.4C1283.97 1069.13 1283.9 1069.83 1283.84 1070.5H1240.14V1061.4H1275.64L1269.64 1064.1C1269.64 1061.3 1269.07 1058.87 1267.94 1056.8C1266.8 1054.73 1265.24 1053.13 1263.24 1052C1261.24 1050.8 1258.9 1050.2 1256.24 1050.2C1253.57 1050.2 1251.2 1050.8 1249.14 1052C1247.14 1053.13 1245.57 1054.77 1244.44 1056.9C1243.3 1058.97 1242.74 1061.43 1242.74 1064.3V1066.7C1242.74 1069.63 1243.37 1072.23 1244.64 1074.5C1245.97 1076.7 1247.8 1078.4 1250.14 1079.6C1252.54 1080.73 1255.34 1081.3 1258.54 1081.3C1261.4 1081.3 1263.9 1080.87 1266.04 1080C1268.24 1079.13 1270.24 1077.83 1272.04 1076.1L1280.34 1085.1C1277.87 1087.9 1274.77 1090.07 1271.04 1091.6C1267.3 1093.07 1263 1093.8 1258.14 1093.8ZM1312.62 1093.8C1308.02 1093.8 1303.59 1093.27 1299.32 1092.2C1295.12 1091.07 1291.79 1089.67 1289.32 1088L1294.52 1076.8C1296.99 1078.33 1299.89 1079.6 1303.22 1080.6C1306.62 1081.53 1309.96 1082 1313.22 1082C1316.82 1082 1319.36 1081.57 1320.82 1080.7C1322.36 1079.83 1323.12 1078.63 1323.12 1077.1C1323.12 1075.83 1322.52 1074.9 1321.32 1074.3C1320.19 1073.63 1318.66 1073.13 1316.72 1072.8C1314.79 1072.47 1312.66 1072.13 1310.32 1071.8C1308.06 1071.47 1305.76 1071.03 1303.42 1070.5C1301.09 1069.9 1298.96 1069.03 1297.02 1067.9C1295.09 1066.77 1293.52 1065.23 1292.32 1063.3C1291.19 1061.37 1290.62 1058.87 1290.62 1055.8C1290.62 1052.4 1291.59 1049.4 1293.52 1046.8C1295.52 1044.2 1298.39 1042.17 1302.12 1040.7C1305.86 1039.17 1310.32 1038.4 1315.52 1038.4C1319.19 1038.4 1322.92 1038.8 1326.72 1039.6C1330.52 1040.4 1333.69 1041.57 1336.22 1043.1L1331.02 1054.2C1328.42 1052.67 1325.79 1051.63 1323.12 1051.1C1320.52 1050.5 1317.99 1050.2 1315.52 1050.2C1312.06 1050.2 1309.52 1050.67 1307.92 1051.6C1306.32 1052.53 1305.52 1053.73 1305.52 1055.2C1305.52 1056.53 1306.09 1057.53 1307.22 1058.2C1308.42 1058.87 1309.99 1059.4 1311.92 1059.8C1313.86 1060.2 1315.96 1060.57 1318.22 1060.9C1320.56 1061.17 1322.89 1061.6 1325.22 1062.2C1327.56 1062.8 1329.66 1063.67 1331.52 1064.8C1333.46 1065.87 1335.02 1067.37 1336.22 1069.3C1337.42 1071.17 1338.02 1073.63 1338.02 1076.7C1338.02 1080.03 1337.02 1083 1335.02 1085.6C1333.02 1088.13 1330.12 1090.13 1326.32 1091.6C1322.59 1093.07 1318.02 1093.8 1312.62 1093.8ZM1347.65 1093V1039.2H1363.25V1093H1347.65ZM1355.45 1031.7C1352.58 1031.7 1350.25 1030.87 1348.45 1029.2C1346.65 1027.53 1345.75 1025.47 1345.75 1023C1345.75 1020.53 1346.65 1018.47 1348.45 1016.8C1350.25 1015.13 1352.58 1014.3 1355.45 1014.3C1358.32 1014.3 1360.65 1015.1 1362.45 1016.7C1364.25 1018.23 1365.15 1020.23 1365.15 1022.7C1365.15 1025.3 1364.25 1027.47 1362.45 1029.2C1360.72 1030.87 1358.38 1031.7 1355.45 1031.7ZM1403.03 1113.2C1397.96 1113.2 1393.06 1112.57 1388.33 1111.3C1383.66 1110.1 1379.76 1108.27 1376.63 1105.8L1382.83 1094.6C1385.09 1096.47 1387.96 1097.93 1391.43 1099C1394.96 1100.13 1398.43 1100.7 1401.83 1100.7C1407.36 1100.7 1411.36 1099.47 1413.83 1097C1416.36 1094.53 1417.63 1090.87 1417.63 1086V1077.9L1418.63 1064.4L1418.43 1050.8V1039.2H1433.23V1084C1433.23 1094 1430.63 1101.37 1425.43 1106.1C1420.23 1110.83 1412.76 1113.2 1403.03 1113.2ZM1400.63 1090.4C1395.63 1090.4 1391.09 1089.33 1387.03 1087.2C1383.03 1085 1379.79 1081.97 1377.33 1078.1C1374.93 1074.17 1373.73 1069.6 1373.73 1064.4C1373.73 1059.13 1374.93 1054.57 1377.33 1050.7C1379.79 1046.77 1383.03 1043.73 1387.03 1041.6C1391.09 1039.47 1395.63 1038.4 1400.63 1038.4C1405.16 1038.4 1409.16 1039.33 1412.63 1041.2C1416.09 1043 1418.79 1045.83 1420.73 1049.7C1422.66 1053.5 1423.63 1058.4 1423.63 1064.4C1423.63 1070.33 1422.66 1075.23 1420.73 1079.1C1418.79 1082.9 1416.09 1085.73 1412.63 1087.6C1409.16 1089.47 1405.16 1090.4 1400.63 1090.4ZM1403.73 1077.6C1406.46 1077.6 1408.89 1077.07 1411.03 1076C1413.16 1074.87 1414.83 1073.3 1416.03 1071.3C1417.23 1069.3 1417.83 1067 1417.83 1064.4C1417.83 1061.73 1417.23 1059.43 1416.03 1057.5C1414.83 1055.5 1413.16 1053.97 1411.03 1052.9C1408.89 1051.77 1406.46 1051.2 1403.73 1051.2C1400.99 1051.2 1398.56 1051.77 1396.43 1052.9C1394.29 1053.97 1392.59 1055.5 1391.33 1057.5C1390.13 1059.43 1389.53 1061.73 1389.53 1064.4C1389.53 1067 1390.13 1069.3 1391.33 1071.3C1392.59 1073.3 1394.29 1074.87 1396.43 1076C1398.56 1077.07 1400.99 1077.6 1403.73 1077.6ZM1480.45 1038.4C1484.71 1038.4 1488.51 1039.27 1491.85 1041C1495.25 1042.67 1497.91 1045.27 1499.85 1048.8C1501.78 1052.27 1502.75 1056.73 1502.75 1062.2V1093H1487.15V1064.6C1487.15 1060.27 1486.18 1057.07 1484.25 1055C1482.38 1052.93 1479.71 1051.9 1476.25 1051.9C1473.78 1051.9 1471.55 1052.43 1469.55 1053.5C1467.61 1054.5 1466.08 1056.07 1464.95 1058.2C1463.88 1060.33 1463.35 1063.07 1463.35 1066.4V1093H1447.75V1039.2H1462.65V1054.1L1459.85 1049.6C1461.78 1046 1464.55 1043.23 1468.15 1041.3C1471.75 1039.37 1475.85 1038.4 1480.45 1038.4ZM1543.98 1093.8C1537.84 1093.8 1532.44 1092.6 1527.78 1090.2C1523.18 1087.8 1519.61 1084.53 1517.08 1080.4C1514.54 1076.2 1513.28 1071.43 1513.28 1066.1C1513.28 1060.7 1514.51 1055.93 1516.98 1051.8C1519.51 1047.6 1522.94 1044.33 1527.28 1042C1531.61 1039.6 1536.51 1038.4 1541.98 1038.4C1547.24 1038.4 1551.98 1039.53 1556.18 1041.8C1560.44 1044 1563.81 1047.2 1566.28 1051.4C1568.74 1055.53 1569.98 1060.5 1569.98 1066.3C1569.98 1066.9 1569.94 1067.6 1569.88 1068.4C1569.81 1069.13 1569.74 1069.83 1569.68 1070.5H1525.98V1061.4H1561.48L1555.48 1064.1C1555.48 1061.3 1554.91 1058.87 1553.78 1056.8C1552.64 1054.73 1551.08 1053.13 1549.08 1052C1547.08 1050.8 1544.74 1050.2 1542.08 1050.2C1539.41 1050.2 1537.04 1050.8 1534.98 1052C1532.98 1053.13 1531.41 1054.77 1530.28 1056.9C1529.14 1058.97 1528.58 1061.43 1528.58 1064.3V1066.7C1528.58 1069.63 1529.21 1072.23 1530.48 1074.5C1531.81 1076.7 1533.64 1078.4 1535.98 1079.6C1538.38 1080.73 1541.18 1081.3 1544.38 1081.3C1547.24 1081.3 1549.74 1080.87 1551.88 1080C1554.08 1079.13 1556.08 1077.83 1557.88 1076.1L1566.18 1085.1C1563.71 1087.9 1560.61 1090.07 1556.88 1091.6C1553.14 1093.07 1548.84 1093.8 1543.98 1093.8ZM1580.36 1093V1039.2H1595.26V1054.4L1593.16 1050C1594.76 1046.2 1597.33 1043.33 1600.86 1041.4C1604.4 1039.4 1608.7 1038.4 1613.76 1038.4V1052.8C1613.1 1052.73 1612.5 1052.7 1611.96 1052.7C1611.43 1052.63 1610.86 1052.6 1610.26 1052.6C1606 1052.6 1602.53 1053.83 1599.86 1056.3C1597.26 1058.7 1595.96 1062.47 1595.96 1067.6V1093H1580.36ZM1641.53 1093.8C1636.93 1093.8 1632.5 1093.27 1628.23 1092.2C1624.03 1091.07 1620.7 1089.67 1618.23 1088L1623.43 1076.8C1625.9 1078.33 1628.8 1079.6 1632.13 1080.6C1635.53 1081.53 1638.86 1082 1642.13 1082C1645.73 1082 1648.26 1081.57 1649.73 1080.7C1651.26 1079.83 1652.03 1078.63 1652.03 1077.1C1652.03 1075.83 1651.43 1074.9 1650.23 1074.3C1649.1 1073.63 1647.56 1073.13 1645.63 1072.8C1643.7 1072.47 1641.56 1072.13 1639.23 1071.8C1636.96 1071.47 1634.66 1071.03 1632.33 1070.5C1630 1069.9 1627.86 1069.03 1625.93 1067.9C1624 1066.77 1622.43 1065.23 1621.23 1063.3C1620.1 1061.37 1619.53 1058.87 1619.53 1055.8C1619.53 1052.4 1620.5 1049.4 1622.43 1046.8C1624.43 1044.2 1627.3 1042.17 1631.03 1040.7C1634.76 1039.17 1639.23 1038.4 1644.43 1038.4C1648.1 1038.4 1651.83 1038.8 1655.63 1039.6C1659.43 1040.4 1662.6 1041.57 1665.13 1043.1L1659.93 1054.2C1657.33 1052.67 1654.7 1051.63 1652.03 1051.1C1649.43 1050.5 1646.9 1050.2 1644.43 1050.2C1640.96 1050.2 1638.43 1050.67 1636.83 1051.6C1635.23 1052.53 1634.43 1053.73 1634.43 1055.2C1634.43 1056.53 1635 1057.53 1636.13 1058.2C1637.33 1058.87 1638.9 1059.4 1640.83 1059.8C1642.76 1060.2 1644.86 1060.57 1647.13 1060.9C1649.46 1061.17 1651.8 1061.6 1654.13 1062.2C1656.46 1062.8 1658.56 1063.67 1660.43 1064.8C1662.36 1065.87 1663.93 1067.37 1665.13 1069.3C1666.33 1071.17 1666.93 1073.63 1666.93 1076.7C1666.93 1080.03 1665.93 1083 1663.93 1085.6C1661.93 1088.13 1659.03 1090.13 1655.23 1091.6C1651.5 1093.07 1646.93 1093.8 1641.53 1093.8ZM1773.78 1038.4C1778.04 1038.4 1781.81 1039.27 1785.08 1041C1788.41 1042.67 1791.01 1045.27 1792.88 1048.8C1794.81 1052.27 1795.78 1056.73 1795.78 1062.2V1093H1780.18V1064.6C1780.18 1060.27 1779.28 1057.07 1777.48 1055C1775.68 1052.93 1773.14 1051.9 1769.88 1051.9C1767.61 1051.9 1765.58 1052.43 1763.78 1053.5C1761.98 1054.5 1760.58 1056.03 1759.58 1058.1C1758.58 1060.17 1758.08 1062.8 1758.08 1066V1093H1742.48V1064.6C1742.48 1060.27 1741.58 1057.07 1739.78 1055C1738.04 1052.93 1735.54 1051.9 1732.28 1051.9C1730.01 1051.9 1727.98 1052.43 1726.18 1053.5C1724.38 1054.5 1722.98 1056.03 1721.98 1058.1C1720.98 1060.17 1720.48 1062.8 1720.48 1066V1093H1704.88V1039.2H1719.78V1053.9L1716.98 1049.6C1718.84 1045.93 1721.48 1043.17 1724.88 1041.3C1728.34 1039.37 1732.28 1038.4 1736.68 1038.4C1741.61 1038.4 1745.91 1039.67 1749.58 1042.2C1753.31 1044.67 1755.78 1048.47 1756.98 1053.6L1751.48 1052.1C1753.28 1047.9 1756.14 1044.57 1760.08 1042.1C1764.08 1039.63 1768.64 1038.4 1773.78 1038.4ZM1836.85 1093.8C1830.72 1093.8 1825.32 1092.6 1820.65 1090.2C1816.05 1087.8 1812.48 1084.53 1809.95 1080.4C1807.42 1076.2 1806.15 1071.43 1806.15 1066.1C1806.15 1060.7 1807.38 1055.93 1809.85 1051.8C1812.38 1047.6 1815.82 1044.33 1820.15 1042C1824.48 1039.6 1829.38 1038.4 1834.85 1038.4C1840.12 1038.4 1844.85 1039.53 1849.05 1041.8C1853.32 1044 1856.68 1047.2 1859.15 1051.4C1861.62 1055.53 1862.85 1060.5 1862.85 1066.3C1862.85 1066.9 1862.82 1067.6 1862.75 1068.4C1862.68 1069.13 1862.62 1069.83 1862.55 1070.5H1818.85V1061.4H1854.35L1848.35 1064.1C1848.35 1061.3 1847.78 1058.87 1846.65 1056.8C1845.52 1054.73 1843.95 1053.13 1841.95 1052C1839.95 1050.8 1837.62 1050.2 1834.95 1050.2C1832.28 1050.2 1829.92 1050.8 1827.85 1052C1825.85 1053.13 1824.28 1054.77 1823.15 1056.9C1822.02 1058.97 1821.45 1061.43 1821.45 1064.3V1066.7C1821.45 1069.63 1822.08 1072.23 1823.35 1074.5C1824.68 1076.7 1826.52 1078.4 1828.85 1079.6C1831.25 1080.73 1834.05 1081.3 1837.25 1081.3C1840.12 1081.3 1842.62 1080.87 1844.75 1080C1846.95 1079.13 1848.95 1077.83 1850.75 1076.1L1859.05 1085.1C1856.58 1087.9 1853.48 1090.07 1849.75 1091.6C1846.02 1093.07 1841.72 1093.8 1836.85 1093.8ZM1873.24 1093V1018.8H1888.84V1093H1873.24ZM1936.01 1038.4C1940.28 1038.4 1944.08 1039.27 1947.41 1041C1950.81 1042.67 1953.48 1045.27 1955.41 1048.8C1957.35 1052.27 1958.31 1056.73 1958.31 1062.2V1093H1942.71V1064.6C1942.71 1060.27 1941.75 1057.07 1939.81 1055C1937.95 1052.93 1935.28 1051.9 1931.81 1051.9C1929.35 1051.9 1927.11 1052.43 1925.11 1053.5C1923.18 1054.5 1921.65 1056.07 1920.51 1058.2C1919.45 1060.33 1918.91 1063.07 1918.91 1066.4V1093H1903.31V1018.8H1918.91V1054.1L1915.41 1049.6C1917.35 1046 1920.11 1043.23 1923.71 1041.3C1927.31 1039.37 1931.41 1038.4 1936.01 1038.4ZM1998.44 1093.8C1992.71 1093.8 1987.61 1092.6 1983.14 1090.2C1978.74 1087.8 1975.24 1084.53 1972.64 1080.4C1970.11 1076.2 1968.84 1071.43 1968.84 1066.1C1968.84 1060.7 1970.11 1055.93 1972.64 1051.8C1975.24 1047.6 1978.74 1044.33 1983.14 1042C1987.61 1039.6 1992.71 1038.4 1998.44 1038.4C2004.11 1038.4 2009.18 1039.6 2013.64 1042C2018.11 1044.33 2021.61 1047.57 2024.14 1051.7C2026.68 1055.83 2027.94 1060.63 2027.94 1066.1C2027.94 1071.43 2026.68 1076.2 2024.14 1080.4C2021.61 1084.53 2018.11 1087.8 2013.64 1090.2C2009.18 1092.6 2004.11 1093.8 1998.44 1093.8ZM1998.44 1081C2001.04 1081 2003.38 1080.4 2005.44 1079.2C2007.51 1078 2009.14 1076.3 2010.34 1074.1C2011.54 1071.83 2012.14 1069.17 2012.14 1066.1C2012.14 1062.97 2011.54 1060.3 2010.34 1058.1C2009.14 1055.9 2007.51 1054.2 2005.44 1053C2003.38 1051.8 2001.04 1051.2 1998.44 1051.2C1995.84 1051.2 1993.51 1051.8 1991.44 1053C1989.38 1054.2 1987.71 1055.9 1986.44 1058.1C1985.24 1060.3 1984.64 1062.97 1984.64 1066.1C1984.64 1069.17 1985.24 1071.83 1986.44 1074.1C1987.71 1076.3 1989.38 1078 1991.44 1079.2C1993.51 1080.4 1995.84 1081 1998.44 1081ZM2038.37 1093V1039.2H2053.27V1054.4L2051.17 1050C2052.77 1046.2 2055.34 1043.33 2058.87 1041.4C2062.41 1039.4 2066.71 1038.4 2071.77 1038.4V1052.8C2071.11 1052.73 2070.51 1052.7 2069.97 1052.7C2069.44 1052.63 2068.87 1052.6 2068.27 1052.6C2064.01 1052.6 2060.54 1053.83 2057.87 1056.3C2055.27 1058.7 2053.97 1062.47 2053.97 1067.6V1093H2038.37ZM2107.36 1093.8C2101.22 1093.8 2095.82 1092.6 2091.16 1090.2C2086.56 1087.8 2082.99 1084.53 2080.46 1080.4C2077.92 1076.2 2076.66 1071.43 2076.66 1066.1C2076.66 1060.7 2077.89 1055.93 2080.36 1051.8C2082.89 1047.6 2086.32 1044.33 2090.66 1042C2094.99 1039.6 2099.89 1038.4 2105.36 1038.4C2110.62 1038.4 2115.36 1039.53 2119.56 1041.8C2123.82 1044 2127.19 1047.2 2129.66 1051.4C2132.12 1055.53 2133.36 1060.5 2133.36 1066.3C2133.36 1066.9 2133.32 1067.6 2133.26 1068.4C2133.19 1069.13 2133.12 1069.83 2133.06 1070.5H2089.36V1061.4H2124.86L2118.86 1064.1C2118.86 1061.3 2118.29 1058.87 2117.16 1056.8C2116.02 1054.73 2114.46 1053.13 2112.46 1052C2110.46 1050.8 2108.12 1050.2 2105.46 1050.2C2102.79 1050.2 2100.42 1050.8 2098.36 1052C2096.36 1053.13 2094.79 1054.77 2093.66 1056.9C2092.52 1058.97 2091.96 1061.43 2091.96 1064.3V1066.7C2091.96 1069.63 2092.59 1072.23 2093.86 1074.5C2095.19 1076.7 2097.02 1078.4 2099.36 1079.6C2101.76 1080.73 2104.56 1081.3 2107.76 1081.3C2110.62 1081.3 2113.12 1080.87 2115.26 1080C2117.46 1079.13 2119.46 1077.83 2121.26 1076.1L2129.56 1085.1C2127.09 1087.9 2123.99 1090.07 2120.26 1091.6C2116.52 1093.07 2112.22 1093.8 2107.36 1093.8ZM2161.84 1093.8C2157.24 1093.8 2152.81 1093.27 2148.54 1092.2C2144.34 1091.07 2141.01 1089.67 2138.54 1088L2143.74 1076.8C2146.21 1078.33 2149.11 1079.6 2152.44 1080.6C2155.84 1081.53 2159.18 1082 2162.44 1082C2166.04 1082 2168.58 1081.57 2170.04 1080.7C2171.58 1079.83 2172.34 1078.63 2172.34 1077.1C2172.34 1075.83 2171.74 1074.9 2170.54 1074.3C2169.41 1073.63 2167.88 1073.13 2165.94 1072.8C2164.01 1072.47 2161.88 1072.13 2159.54 1071.8C2157.28 1071.47 2154.98 1071.03 2152.64 1070.5C2150.31 1069.9 2148.18 1069.03 2146.24 1067.9C2144.31 1066.77 2142.74 1065.23 2141.54 1063.3C2140.41 1061.37 2139.84 1058.87 2139.84 1055.8C2139.84 1052.4 2140.81 1049.4 2142.74 1046.8C2144.74 1044.2 2147.61 1042.17 2151.34 1040.7C2155.08 1039.17 2159.54 1038.4 2164.74 1038.4C2168.41 1038.4 2172.14 1038.8 2175.94 1039.6C2179.74 1040.4 2182.91 1041.57 2185.44 1043.1L2180.24 1054.2C2177.64 1052.67 2175.01 1051.63 2172.34 1051.1C2169.74 1050.5 2167.21 1050.2 2164.74 1050.2C2161.28 1050.2 2158.74 1050.67 2157.14 1051.6C2155.54 1052.53 2154.74 1053.73 2154.74 1055.2C2154.74 1056.53 2155.31 1057.53 2156.44 1058.2C2157.64 1058.87 2159.21 1059.4 2161.14 1059.8C2163.08 1060.2 2165.18 1060.57 2167.44 1060.9C2169.78 1061.17 2172.11 1061.6 2174.44 1062.2C2176.78 1062.8 2178.88 1063.67 2180.74 1064.8C2182.68 1065.87 2184.24 1067.37 2185.44 1069.3C2186.64 1071.17 2187.24 1073.63 2187.24 1076.7C2187.24 1080.03 2186.24 1083 2184.24 1085.6C2182.24 1088.13 2179.34 1090.13 2175.54 1091.6C2171.81 1093.07 2167.24 1093.8 2161.84 1093.8ZM2202.77 1093.8C2200.1 1093.8 2197.8 1092.9 2195.87 1091.1C2194 1089.23 2193.07 1086.87 2193.07 1084C2193.07 1081.13 2194 1078.83 2195.87 1077.1C2197.8 1075.3 2200.1 1074.4 2202.77 1074.4C2205.5 1074.4 2207.8 1075.3 2209.67 1077.1C2211.53 1078.83 2212.47 1081.13 2212.47 1084C2212.47 1086.87 2211.53 1089.23 2209.67 1091.1C2207.8 1092.9 2205.5 1093.8 2202.77 1093.8Z" fill="white"/>
</svg>
