<svg width="3745" height="1780" viewBox="0 0 3745 1780" fill="none" xmlns="http://www.w3.org/2000/svg">
<path d="M2216.79 841.68C2202.88 841.68 2192.01 837.807 2184.17 830.06C2176.33 822.313 2172.41 811.253 2172.41 796.88V742H2195.09V796.04C2195.09 805.373 2197 812.093 2200.83 816.2C2204.66 820.307 2210.02 822.36 2216.93 822.36C2223.84 822.36 2229.2 820.307 2233.03 816.2C2236.86 812.093 2238.77 805.373 2238.77 796.04V742H2261.17V796.88C2261.17 811.253 2257.25 822.313 2249.41 830.06C2241.57 837.807 2230.7 841.68 2216.79 841.68ZM2307.38 841.12C2300.94 841.12 2294.73 840.373 2288.76 838.88C2282.88 837.293 2278.21 835.333 2274.76 833L2282.04 817.32C2285.49 819.467 2289.55 821.24 2294.22 822.64C2298.98 823.947 2303.65 824.6 2308.22 824.6C2313.26 824.6 2316.81 823.993 2318.86 822.78C2321.01 821.567 2322.08 819.887 2322.08 817.74C2322.08 815.967 2321.24 814.66 2319.56 813.82C2317.97 812.887 2315.83 812.187 2313.12 811.72C2310.41 811.253 2307.43 810.787 2304.16 810.32C2300.99 809.853 2297.77 809.247 2294.5 808.5C2291.23 807.66 2288.25 806.447 2285.54 804.86C2282.83 803.273 2280.64 801.127 2278.96 798.42C2277.37 795.713 2276.58 792.213 2276.58 787.92C2276.58 783.16 2277.93 778.96 2280.64 775.32C2283.44 771.68 2287.45 768.833 2292.68 766.78C2297.91 764.633 2304.16 763.56 2311.44 763.56C2316.57 763.56 2321.8 764.12 2327.12 765.24C2332.44 766.36 2336.87 767.993 2340.42 770.14L2333.14 785.68C2329.5 783.533 2325.81 782.087 2322.08 781.34C2318.44 780.5 2314.89 780.08 2311.44 780.08C2306.59 780.08 2303.04 780.733 2300.8 782.04C2298.56 783.347 2297.44 785.027 2297.44 787.08C2297.44 788.947 2298.23 790.347 2299.82 791.28C2301.5 792.213 2303.69 792.96 2306.4 793.52C2309.11 794.08 2312.05 794.593 2315.22 795.06C2318.49 795.433 2321.75 796.04 2325.02 796.88C2328.29 797.72 2331.23 798.933 2333.84 800.52C2336.55 802.013 2338.74 804.113 2340.42 806.82C2342.1 809.433 2342.94 812.887 2342.94 817.18C2342.94 821.847 2341.54 826 2338.74 829.64C2335.94 833.187 2331.88 835.987 2326.56 838.04C2321.33 840.093 2314.94 841.12 2307.38 841.12ZM2392.26 841.12C2384.23 841.12 2377.09 839.44 2370.84 836.08C2364.68 832.72 2359.78 828.147 2356.14 822.36C2352.59 816.48 2350.82 809.807 2350.82 802.34C2350.82 794.78 2352.59 788.107 2356.14 782.32C2359.78 776.44 2364.68 771.867 2370.84 768.6C2377.09 765.24 2384.23 763.56 2392.26 763.56C2400.19 763.56 2407.28 765.24 2413.54 768.6C2419.79 771.867 2424.69 776.393 2428.24 782.18C2431.78 787.967 2433.56 794.687 2433.56 802.34C2433.56 809.807 2431.78 816.48 2428.24 822.36C2424.69 828.147 2419.79 832.72 2413.54 836.08C2407.28 839.44 2400.19 841.12 2392.26 841.12ZM2392.26 823.2C2395.9 823.2 2399.16 822.36 2402.06 820.68C2404.95 819 2407.24 816.62 2408.92 813.54C2410.6 810.367 2411.44 806.633 2411.44 802.34C2411.44 797.953 2410.6 794.22 2408.92 791.14C2407.24 788.06 2404.95 785.68 2402.06 784C2399.16 782.32 2395.9 781.48 2392.26 781.48C2388.62 781.48 2385.35 782.32 2382.46 784C2379.56 785.68 2377.23 788.06 2375.46 791.14C2373.78 794.22 2372.94 797.953 2372.94 802.34C2372.94 806.633 2373.78 810.367 2375.46 813.54C2377.23 816.62 2379.56 819 2382.46 820.68C2385.35 822.36 2388.62 823.2 2392.26 823.2ZM2473.49 841.12C2467.05 841.12 2460.85 840.373 2454.87 838.88C2448.99 837.293 2444.33 835.333 2440.87 833L2448.15 817.32C2451.61 819.467 2455.67 821.24 2460.33 822.64C2465.09 823.947 2469.76 824.6 2474.33 824.6C2479.37 824.6 2482.92 823.993 2484.97 822.78C2487.12 821.567 2488.19 819.887 2488.19 817.74C2488.19 815.967 2487.35 814.66 2485.67 813.82C2484.09 812.887 2481.94 812.187 2479.23 811.72C2476.53 811.253 2473.54 810.787 2470.27 810.32C2467.1 809.853 2463.88 809.247 2460.61 808.5C2457.35 807.66 2454.36 806.447 2451.65 804.86C2448.95 803.273 2446.75 801.127 2445.07 798.42C2443.49 795.713 2442.69 792.213 2442.69 787.92C2442.69 783.16 2444.05 778.96 2446.75 775.32C2449.55 771.68 2453.57 768.833 2458.79 766.78C2464.02 764.633 2470.27 763.56 2477.55 763.56C2482.69 763.56 2487.91 764.12 2493.23 765.24C2498.55 766.36 2502.99 767.993 2506.53 770.14L2499.25 785.68C2495.61 783.533 2491.93 782.087 2488.19 781.34C2484.55 780.5 2481.01 780.08 2477.55 780.08C2472.7 780.08 2469.15 780.733 2466.91 782.04C2464.67 783.347 2463.55 785.027 2463.55 787.08C2463.55 788.947 2464.35 790.347 2465.93 791.28C2467.61 792.213 2469.81 792.96 2472.51 793.52C2475.22 794.08 2478.16 794.593 2481.33 795.06C2484.6 795.433 2487.87 796.04 2491.13 796.88C2494.4 797.72 2497.34 798.933 2499.95 800.52C2502.66 802.013 2504.85 804.113 2506.53 806.82C2508.21 809.433 2509.05 812.887 2509.05 817.18C2509.05 821.847 2507.65 826 2504.85 829.64C2502.05 833.187 2497.99 835.987 2492.67 838.04C2487.45 840.093 2481.05 841.12 2473.49 841.12ZM2563.72 840V742H2606.14C2614.91 742 2622.47 743.447 2628.82 746.34C2635.16 749.14 2640.06 753.2 2643.52 758.52C2646.97 763.84 2648.7 770.187 2648.7 777.56C2648.7 784.84 2646.97 791.14 2643.52 796.46C2640.06 801.78 2635.16 805.887 2628.82 808.78C2622.47 811.58 2614.91 812.98 2606.14 812.98H2576.32L2586.4 802.76V840H2563.72ZM2586.4 805.28L2576.32 794.5H2604.88C2611.88 794.5 2617.1 793.007 2620.56 790.02C2624.01 787.033 2625.74 782.88 2625.74 777.56C2625.74 772.147 2624.01 767.947 2620.56 764.96C2617.1 761.973 2611.88 760.48 2604.88 760.48H2576.32L2586.4 749.7V805.28ZM2663.21 840V764.68H2684.07V785.96L2681.13 779.8C2683.37 774.48 2686.97 770.467 2691.91 767.76C2696.86 764.96 2702.88 763.56 2709.97 763.56V783.72C2709.04 783.627 2708.2 783.58 2707.45 783.58C2706.71 783.487 2705.91 783.44 2705.07 783.44C2699.1 783.44 2694.25 785.167 2690.51 788.62C2686.87 791.98 2685.05 797.253 2685.05 804.44V840H2663.21ZM2764.24 840V825.3L2762.84 822.08V795.76C2762.84 791.093 2761.39 787.453 2758.5 784.84C2755.7 782.227 2751.36 780.92 2745.48 780.92C2741.46 780.92 2737.5 781.573 2733.58 782.88C2729.75 784.093 2726.48 785.773 2723.78 787.92L2715.94 772.66C2720.04 769.767 2724.99 767.527 2730.78 765.94C2736.56 764.353 2742.44 763.56 2748.42 763.56C2759.9 763.56 2768.81 766.267 2775.16 771.68C2781.5 777.093 2784.68 785.54 2784.68 797.02V840H2764.24ZM2741.28 841.12C2735.4 841.12 2730.36 840.14 2726.16 838.18C2721.96 836.127 2718.74 833.373 2716.5 829.92C2714.26 826.467 2713.14 822.593 2713.14 818.3C2713.14 813.82 2714.21 809.9 2716.36 806.54C2718.6 803.18 2722.1 800.567 2726.86 798.7C2731.62 796.74 2737.82 795.76 2745.48 795.76H2765.5V808.5H2747.86C2742.72 808.5 2739.18 809.34 2737.22 811.02C2735.35 812.7 2734.42 814.8 2734.42 817.32C2734.42 820.12 2735.49 822.36 2737.64 824.04C2739.88 825.627 2742.91 826.42 2746.74 826.42C2750.38 826.42 2753.64 825.58 2756.54 823.9C2759.43 822.127 2761.53 819.56 2762.84 816.2L2766.2 826.28C2764.61 831.133 2761.72 834.82 2757.52 837.34C2753.32 839.86 2747.9 841.12 2741.28 841.12ZM2840.41 868.28C2833.32 868.28 2826.46 867.393 2819.83 865.62C2813.3 863.94 2807.84 861.373 2803.45 857.92L2812.13 842.24C2815.3 844.853 2819.32 846.907 2824.17 848.4C2829.12 849.987 2833.97 850.78 2838.73 850.78C2846.48 850.78 2852.08 849.053 2855.53 845.6C2859.08 842.147 2860.85 837.013 2860.85 830.2V818.86L2862.25 799.96L2861.97 780.92V764.68H2882.69V827.4C2882.69 841.4 2879.05 851.713 2871.77 858.34C2864.49 864.967 2854.04 868.28 2840.41 868.28ZM2837.05 836.36C2830.05 836.36 2823.7 834.867 2818.01 831.88C2812.41 828.8 2807.88 824.553 2804.43 819.14C2801.07 813.633 2799.39 807.24 2799.39 799.96C2799.39 792.587 2801.07 786.193 2804.43 780.78C2807.88 775.273 2812.41 771.027 2818.01 768.04C2823.7 765.053 2830.05 763.56 2837.05 763.56C2843.4 763.56 2849 764.867 2853.85 767.48C2858.7 770 2862.48 773.967 2865.19 779.38C2867.9 784.7 2869.25 791.56 2869.25 799.96C2869.25 808.267 2867.9 815.127 2865.19 820.54C2862.48 825.86 2858.7 829.827 2853.85 832.44C2849 835.053 2843.4 836.36 2837.05 836.36ZM2841.39 818.44C2845.22 818.44 2848.62 817.693 2851.61 816.2C2854.6 814.613 2856.93 812.42 2858.61 809.62C2860.29 806.82 2861.13 803.6 2861.13 799.96C2861.13 796.227 2860.29 793.007 2858.61 790.3C2856.93 787.5 2854.6 785.353 2851.61 783.86C2848.62 782.273 2845.22 781.48 2841.39 781.48C2837.56 781.48 2834.16 782.273 2831.17 783.86C2828.18 785.353 2825.8 787.5 2824.03 790.3C2822.35 793.007 2821.51 796.227 2821.51 799.96C2821.51 803.6 2822.35 806.82 2824.03 809.62C2825.8 812.42 2828.18 814.613 2831.17 816.2C2834.16 817.693 2837.56 818.44 2841.39 818.44ZM2999.48 763.56C3005.45 763.56 3010.72 764.773 3015.3 767.2C3019.96 769.533 3023.6 773.173 3026.22 778.12C3028.92 782.973 3030.28 789.227 3030.28 796.88V840H3008.44V800.24C3008.44 794.173 3007.18 789.693 3004.66 786.8C3002.14 783.907 2998.59 782.46 2994.02 782.46C2990.84 782.46 2988 783.207 2985.48 784.7C2982.96 786.1 2981 788.247 2979.6 791.14C2978.2 794.033 2977.5 797.72 2977.5 802.2V840H2955.66V800.24C2955.66 794.173 2954.4 789.693 2951.88 786.8C2949.45 783.907 2945.95 782.46 2941.38 782.46C2938.2 782.46 2935.36 783.207 2932.84 784.7C2930.32 786.1 2928.36 788.247 2926.96 791.14C2925.56 794.033 2924.86 797.72 2924.86 802.2V840H2903.02V764.68H2923.88V785.26L2919.96 779.24C2922.57 774.107 2926.26 770.233 2931.02 767.62C2935.87 764.913 2941.38 763.56 2947.54 763.56C2954.44 763.56 2960.46 765.333 2965.6 768.88C2970.82 772.333 2974.28 777.653 2975.96 784.84L2968.26 782.74C2970.78 776.86 2974.79 772.193 2980.3 768.74C2985.9 765.287 2992.29 763.56 2999.48 763.56ZM3096.05 840V825.3L3094.65 822.08V795.76C3094.65 791.093 3093.21 787.453 3090.31 784.84C3087.51 782.227 3083.17 780.92 3077.29 780.92C3073.28 780.92 3069.31 781.573 3065.39 782.88C3061.57 784.093 3058.3 785.773 3055.59 787.92L3047.75 772.66C3051.86 769.767 3056.81 767.527 3062.59 765.94C3068.38 764.353 3074.26 763.56 3080.23 763.56C3091.71 763.56 3100.63 766.267 3106.97 771.68C3113.32 777.093 3116.49 785.54 3116.49 797.02V840H3096.05ZM3073.09 841.12C3067.21 841.12 3062.17 840.14 3057.97 838.18C3053.77 836.127 3050.55 833.373 3048.31 829.92C3046.07 826.467 3044.95 822.593 3044.95 818.3C3044.95 813.82 3046.03 809.9 3048.17 806.54C3050.41 803.18 3053.91 800.567 3058.67 798.7C3063.43 796.74 3069.64 795.76 3077.29 795.76H3097.31V808.5H3079.67C3074.54 808.5 3070.99 809.34 3069.03 811.02C3067.17 812.7 3066.23 814.8 3066.23 817.32C3066.23 820.12 3067.31 822.36 3069.45 824.04C3071.69 825.627 3074.73 826.42 3078.55 826.42C3082.19 826.42 3085.46 825.58 3088.35 823.9C3091.25 822.127 3093.35 819.56 3094.65 816.2L3098.01 826.28C3096.43 831.133 3093.53 834.82 3089.33 837.34C3085.13 839.86 3079.72 841.12 3073.09 841.12ZM3069.73 755.02L3088.63 734.86H3112.15L3086.81 755.02H3069.73ZM3167.06 841.12C3158.19 841.12 3151.29 838.88 3146.34 834.4C3141.39 829.827 3138.92 823.06 3138.92 814.1V748.02H3160.76V813.82C3160.76 816.993 3161.6 819.467 3163.28 821.24C3164.96 822.92 3167.25 823.76 3170.14 823.76C3173.59 823.76 3176.53 822.827 3178.96 820.96L3184.84 836.36C3182.6 837.947 3179.89 839.16 3176.72 840C3173.64 840.747 3170.42 841.12 3167.06 841.12ZM3127.3 783.16V766.36H3179.52V783.16H3127.3ZM3197.1 840V764.68H3218.94V840H3197.1ZM3208.02 754.18C3204.01 754.18 3200.74 753.013 3198.22 750.68C3195.7 748.347 3194.44 745.453 3194.44 742C3194.44 738.547 3195.7 735.653 3198.22 733.32C3200.74 730.987 3204.01 729.82 3208.02 729.82C3212.03 729.82 3215.3 730.94 3217.82 733.18C3220.34 735.327 3221.6 738.127 3221.6 741.58C3221.6 745.22 3220.34 748.253 3217.82 750.68C3215.39 753.013 3212.13 754.18 3208.02 754.18ZM3275.61 841.12C3267.49 841.12 3260.26 839.487 3253.91 836.22C3247.56 832.86 3242.57 828.24 3238.93 822.36C3235.38 816.48 3233.61 809.807 3233.61 802.34C3233.61 794.78 3235.38 788.107 3238.93 782.32C3242.57 776.44 3247.56 771.867 3253.91 768.6C3260.26 765.24 3267.49 763.56 3275.61 763.56C3283.54 763.56 3290.45 765.24 3296.33 768.6C3302.21 771.867 3306.55 776.58 3309.35 782.74L3292.41 791.84C3290.45 788.293 3287.98 785.68 3284.99 784C3282.1 782.32 3278.92 781.48 3275.47 781.48C3271.74 781.48 3268.38 782.32 3265.39 784C3262.4 785.68 3260.02 788.06 3258.25 791.14C3256.57 794.22 3255.73 797.953 3255.73 802.34C3255.73 806.727 3256.57 810.46 3258.25 813.54C3260.02 816.62 3262.4 819 3265.39 820.68C3268.38 822.36 3271.74 823.2 3275.47 823.2C3278.92 823.2 3282.1 822.407 3284.99 820.82C3287.98 819.14 3290.45 816.48 3292.41 812.84L3309.35 822.08C3306.55 828.147 3302.21 832.86 3296.33 836.22C3290.45 839.487 3283.54 841.12 3275.61 841.12ZM3356.81 841.12C3348.78 841.12 3341.64 839.44 3335.39 836.08C3329.23 832.72 3324.33 828.147 3320.69 822.36C3317.14 816.48 3315.37 809.807 3315.37 802.34C3315.37 794.78 3317.14 788.107 3320.69 782.32C3324.33 776.44 3329.23 771.867 3335.39 768.6C3341.64 765.24 3348.78 763.56 3356.81 763.56C3364.74 763.56 3371.83 765.24 3378.09 768.6C3384.34 771.867 3389.24 776.393 3392.79 782.18C3396.33 787.967 3398.11 794.687 3398.11 802.34C3398.11 809.807 3396.33 816.48 3392.79 822.36C3389.24 828.147 3384.34 832.72 3378.09 836.08C3371.83 839.44 3364.74 841.12 3356.81 841.12ZM3356.81 823.2C3360.45 823.2 3363.71 822.36 3366.61 820.68C3369.5 819 3371.79 816.62 3373.47 813.54C3375.15 810.367 3375.99 806.633 3375.99 802.34C3375.99 797.953 3375.15 794.22 3373.47 791.14C3371.79 788.06 3369.5 785.68 3366.61 784C3363.71 782.32 3360.45 781.48 3356.81 781.48C3353.17 781.48 3349.9 782.32 3347.01 784C3344.11 785.68 3341.78 788.06 3340.01 791.14C3338.33 794.22 3337.49 797.953 3337.49 802.34C3337.49 806.633 3338.33 810.367 3340.01 813.54C3341.78 816.62 3344.11 819 3347.01 820.68C3349.9 822.36 3353.17 823.2 3356.81 823.2ZM3438.05 841.12C3431.61 841.12 3425.4 840.373 3419.43 838.88C3413.55 837.293 3408.88 835.333 3405.43 833L3412.71 817.32C3416.16 819.467 3420.22 821.24 3424.89 822.64C3429.65 823.947 3434.31 824.6 3438.89 824.6C3443.93 824.6 3447.47 823.993 3449.53 822.78C3451.67 821.567 3452.75 819.887 3452.75 817.74C3452.75 815.967 3451.91 814.66 3450.23 813.82C3448.64 812.887 3446.49 812.187 3443.78 811.72C3441.08 811.253 3438.09 810.787 3434.83 810.32C3431.65 809.853 3428.43 809.247 3425.17 808.5C3421.9 807.66 3418.91 806.447 3416.21 804.86C3413.5 803.273 3411.31 801.127 3409.63 798.42C3408.04 795.713 3407.24 792.213 3407.24 787.92C3407.24 783.16 3408.6 778.96 3411.31 775.32C3414.11 771.68 3418.12 768.833 3423.35 766.78C3428.57 764.633 3434.83 763.56 3442.11 763.56C3447.24 763.56 3452.47 764.12 3457.79 765.24C3463.11 766.36 3467.54 767.993 3471.09 770.14L3463.81 785.68C3460.17 783.533 3456.48 782.087 3452.75 781.34C3449.11 780.5 3445.56 780.08 3442.11 780.08C3437.25 780.08 3433.71 780.733 3431.47 782.04C3429.23 783.347 3428.11 785.027 3428.11 787.08C3428.11 788.947 3428.9 790.347 3430.49 791.28C3432.17 792.213 3434.36 792.96 3437.07 793.52C3439.77 794.08 3442.71 794.593 3445.89 795.06C3449.15 795.433 3452.42 796.04 3455.69 796.88C3458.95 797.72 3461.89 798.933 3464.51 800.52C3467.21 802.013 3469.41 804.113 3471.09 806.82C3472.77 809.433 3473.61 812.887 3473.61 817.18C3473.61 821.847 3472.21 826 3469.41 829.64C3466.61 833.187 3462.55 835.987 3457.23 838.04C3452 840.093 3445.61 841.12 3438.05 841.12Z" fill="#DDDDDD"/>
<path d="M1781.97 974.72C1777.89 974.72 1774.32 973.82 1771.26 972.02C1768.2 970.22 1765.8 967.49 1764.06 963.83C1762.38 960.11 1761.54 955.43 1761.54 949.79C1761.54 944.09 1762.35 939.41 1763.97 935.75C1765.59 932.09 1767.93 929.36 1770.99 927.56C1774.05 925.76 1777.71 924.86 1781.97 924.86C1786.53 924.86 1790.61 925.91 1794.21 928.01C1797.87 930.05 1800.75 932.93 1802.85 936.65C1805.01 940.37 1806.09 944.75 1806.09 949.79C1806.09 954.89 1805.01 959.3 1802.85 963.02C1800.75 966.74 1797.87 969.62 1794.21 971.66C1790.61 973.7 1786.53 974.72 1781.97 974.72ZM1753.35 991.46V925.58H1766.76V935.48L1766.49 949.88L1767.39 964.19V991.46H1753.35ZM1779.54 963.2C1781.88 963.2 1783.95 962.66 1785.75 961.58C1787.61 960.5 1789.08 958.97 1790.16 956.99C1791.3 954.95 1791.87 952.55 1791.87 949.79C1791.87 946.97 1791.3 944.57 1790.16 942.59C1789.08 940.61 1787.61 939.08 1785.75 938C1783.95 936.92 1781.88 936.38 1779.54 936.38C1777.2 936.38 1775.1 936.92 1773.24 938C1771.38 939.08 1769.91 940.61 1768.83 942.59C1767.75 944.57 1767.21 946.97 1767.21 949.79C1767.21 952.55 1767.75 954.95 1768.83 956.99C1769.91 958.97 1771.38 960.5 1773.24 961.58C1775.1 962.66 1777.2 963.2 1779.54 963.2ZM1844.4 974V964.55L1843.5 962.48V945.56C1843.5 942.56 1842.57 940.22 1840.71 938.54C1838.91 936.86 1836.12 936.02 1832.34 936.02C1829.76 936.02 1827.21 936.44 1824.69 937.28C1822.23 938.06 1820.13 939.14 1818.39 940.52L1813.35 930.71C1815.99 928.85 1819.17 927.41 1822.89 926.39C1826.61 925.37 1830.39 924.86 1834.23 924.86C1841.61 924.86 1847.34 926.6 1851.42 930.08C1855.5 933.56 1857.54 938.99 1857.54 946.37V974H1844.4ZM1829.64 974.72C1825.86 974.72 1822.62 974.09 1819.92 972.83C1817.22 971.51 1815.15 969.74 1813.71 967.52C1812.27 965.3 1811.55 962.81 1811.55 960.05C1811.55 957.17 1812.24 954.65 1813.62 952.49C1815.06 950.33 1817.31 948.65 1820.37 947.45C1823.43 946.19 1827.42 945.56 1832.34 945.56H1845.21V953.75H1833.87C1830.57 953.75 1828.29 954.29 1827.03 955.37C1825.83 956.45 1825.23 957.8 1825.23 959.42C1825.23 961.22 1825.92 962.66 1827.3 963.74C1828.74 964.76 1830.69 965.27 1833.15 965.27C1835.49 965.27 1837.59 964.73 1839.45 963.65C1841.31 962.51 1842.66 960.86 1843.5 958.7L1845.66 965.18C1844.64 968.3 1842.78 970.67 1840.08 972.29C1837.38 973.91 1833.9 974.72 1829.64 974.72ZM1870.25 974V925.58H1883.66V939.26L1881.77 935.3C1883.21 931.88 1885.52 929.3 1888.7 927.56C1891.88 925.76 1895.75 924.86 1900.31 924.86V937.82C1899.71 937.76 1899.17 937.73 1898.69 937.73C1898.21 937.67 1897.7 937.64 1897.16 937.64C1893.32 937.64 1890.2 938.75 1887.8 940.97C1885.46 943.13 1884.29 946.52 1884.29 951.14V974H1870.25ZM1935.19 974V964.55L1934.29 962.48V945.56C1934.29 942.56 1933.36 940.22 1931.5 938.54C1929.7 936.86 1926.91 936.02 1923.13 936.02C1920.55 936.02 1918 936.44 1915.48 937.28C1913.02 938.06 1910.92 939.14 1909.18 940.52L1904.14 930.71C1906.78 928.85 1909.96 927.41 1913.68 926.39C1917.4 925.37 1921.18 924.86 1925.02 924.86C1932.4 924.86 1938.13 926.6 1942.21 930.08C1946.29 933.56 1948.33 938.99 1948.33 946.37V974H1935.19ZM1920.43 974.72C1916.65 974.72 1913.41 974.09 1910.71 972.83C1908.01 971.51 1905.94 969.74 1904.5 967.52C1903.06 965.3 1902.34 962.81 1902.34 960.05C1902.34 957.17 1903.03 954.65 1904.41 952.49C1905.85 950.33 1908.1 948.65 1911.16 947.45C1914.22 946.19 1918.21 945.56 1923.13 945.56H1936V953.75H1924.66C1921.36 953.75 1919.08 954.29 1917.82 955.37C1916.62 956.45 1916.02 957.8 1916.02 959.42C1916.02 961.22 1916.71 962.66 1918.09 963.74C1919.53 964.76 1921.48 965.27 1923.94 965.27C1926.28 965.27 1928.38 964.73 1930.24 963.65C1932.1 962.51 1933.45 960.86 1934.29 958.7L1936.45 965.18C1935.43 968.3 1933.57 970.67 1930.87 972.29C1928.17 973.91 1924.69 974.72 1920.43 974.72ZM2009.57 974.72C2004.41 974.72 1999.82 973.64 1995.8 971.48C1991.84 969.32 1988.69 966.38 1986.35 962.66C1984.07 958.88 1982.93 954.59 1982.93 949.79C1982.93 944.93 1984.07 940.64 1986.35 936.92C1988.69 933.14 1991.84 930.2 1995.8 928.1C1999.82 925.94 2004.41 924.86 2009.57 924.86C2014.67 924.86 2019.23 925.94 2023.25 928.1C2027.27 930.2 2030.42 933.11 2032.7 936.83C2034.98 940.55 2036.12 944.87 2036.12 949.79C2036.12 954.59 2034.98 958.88 2032.7 962.66C2030.42 966.38 2027.27 969.32 2023.25 971.48C2019.23 973.64 2014.67 974.72 2009.57 974.72ZM2009.57 963.2C2011.91 963.2 2014.01 962.66 2015.87 961.58C2017.73 960.5 2019.2 958.97 2020.28 956.99C2021.36 954.95 2021.9 952.55 2021.9 949.79C2021.9 946.97 2021.36 944.57 2020.28 942.59C2019.2 940.61 2017.73 939.08 2015.87 938C2014.01 936.92 2011.91 936.38 2009.57 936.38C2007.23 936.38 2005.13 936.92 2003.27 938C2001.41 939.08 1999.91 940.61 1998.77 942.59C1997.69 944.57 1997.15 946.97 1997.15 949.79C1997.15 952.55 1997.69 954.95 1998.77 956.99C1999.91 958.97 2001.41 960.5 2003.27 961.58C2005.13 962.66 2007.23 963.2 2009.57 963.2ZM2091.78 974.72C2087.22 974.72 2083.11 973.7 2079.45 971.66C2075.79 969.56 2072.88 966.65 2070.72 962.93C2068.62 959.21 2067.57 954.83 2067.57 949.79C2067.57 944.69 2068.62 940.28 2070.72 936.56C2072.88 932.84 2075.79 929.96 2079.45 927.92C2083.11 925.88 2087.22 924.86 2091.78 924.86C2095.86 924.86 2099.43 925.76 2102.49 927.56C2105.55 929.36 2107.92 932.09 2109.6 935.75C2111.28 939.41 2112.12 944.09 2112.12 949.79C2112.12 955.43 2111.31 960.11 2109.69 963.83C2108.07 967.49 2105.73 970.22 2102.67 972.02C2099.67 973.82 2096.04 974.72 2091.78 974.72ZM2094.21 963.2C2096.49 963.2 2098.56 962.66 2100.42 961.58C2102.28 960.5 2103.75 958.97 2104.83 956.99C2105.97 954.95 2106.54 952.55 2106.54 949.79C2106.54 946.97 2105.97 944.57 2104.83 942.59C2103.75 940.61 2102.28 939.08 2100.42 938C2098.56 936.92 2096.49 936.38 2094.21 936.38C2091.87 936.38 2089.77 936.92 2087.91 938C2086.05 939.08 2084.55 940.61 2083.41 942.59C2082.33 944.57 2081.79 946.97 2081.79 949.79C2081.79 952.55 2082.33 954.95 2083.41 956.99C2084.55 958.97 2086.05 960.5 2087.91 961.58C2089.77 962.66 2091.87 963.2 2094.21 963.2ZM2106.9 974V964.1L2107.17 949.7L2106.27 935.39V907.22H2120.31V974H2106.9ZM2157.33 974.72C2151.81 974.72 2146.95 973.64 2142.75 971.48C2138.61 969.32 2135.4 966.38 2133.12 962.66C2130.84 958.88 2129.7 954.59 2129.7 949.79C2129.7 944.93 2130.81 940.64 2133.03 936.92C2135.31 933.14 2138.4 930.2 2142.3 928.1C2146.2 925.94 2150.61 924.86 2155.53 924.86C2160.27 924.86 2164.53 925.88 2168.31 927.92C2172.15 929.9 2175.18 932.78 2177.4 936.56C2179.62 940.28 2180.73 944.75 2180.73 949.97C2180.73 950.51 2180.7 951.14 2180.64 951.86C2180.58 952.52 2180.52 953.15 2180.46 953.75H2141.13V945.56H2173.08L2167.68 947.99C2167.68 945.47 2167.17 943.28 2166.15 941.42C2165.13 939.56 2163.72 938.12 2161.92 937.1C2160.12 936.02 2158.02 935.48 2155.62 935.48C2153.22 935.48 2151.09 936.02 2149.23 937.1C2147.43 938.12 2146.02 939.59 2145 941.51C2143.98 943.37 2143.47 945.59 2143.47 948.17V950.33C2143.47 952.97 2144.04 955.31 2145.18 957.35C2146.38 959.33 2148.03 960.86 2150.13 961.94C2152.29 962.96 2154.81 963.47 2157.69 963.47C2160.27 963.47 2162.52 963.08 2164.44 962.3C2166.42 961.52 2168.22 960.35 2169.84 958.79L2177.31 966.89C2175.09 969.41 2172.3 971.36 2168.94 972.74C2165.58 974.06 2161.71 974.72 2157.33 974.72ZM2206.37 974.72C2202.23 974.72 2198.24 974.24 2194.4 973.28C2190.62 972.26 2187.62 971 2185.4 969.5L2190.08 959.42C2192.3 960.8 2194.91 961.94 2197.91 962.84C2200.97 963.68 2203.97 964.1 2206.91 964.1C2210.15 964.1 2212.43 963.71 2213.75 962.93C2215.13 962.15 2215.82 961.07 2215.82 959.69C2215.82 958.55 2215.28 957.71 2214.2 957.17C2213.18 956.57 2211.8 956.12 2210.06 955.82C2208.32 955.52 2206.4 955.22 2204.3 954.92C2202.26 954.62 2200.19 954.23 2198.09 953.75C2195.99 953.21 2194.07 952.43 2192.33 951.41C2190.59 950.39 2189.18 949.01 2188.1 947.27C2187.08 945.53 2186.57 943.28 2186.57 940.52C2186.57 937.46 2187.44 934.76 2189.18 932.42C2190.98 930.08 2193.56 928.25 2196.92 926.93C2200.28 925.55 2204.3 924.86 2208.98 924.86C2212.28 924.86 2215.64 925.22 2219.06 925.94C2222.48 926.66 2225.33 927.71 2227.61 929.09L2222.93 939.08C2220.59 937.7 2218.22 936.77 2215.82 936.29C2213.48 935.75 2211.2 935.48 2208.98 935.48C2205.86 935.48 2203.58 935.9 2202.14 936.74C2200.7 937.58 2199.98 938.66 2199.98 939.98C2199.98 941.18 2200.49 942.08 2201.51 942.68C2202.59 943.28 2204 943.76 2205.74 944.12C2207.48 944.48 2209.37 944.81 2211.41 945.11C2213.51 945.35 2215.61 945.74 2217.71 946.28C2219.81 946.82 2221.7 947.6 2223.38 948.62C2225.12 949.58 2226.53 950.93 2227.61 952.67C2228.69 954.35 2229.23 956.57 2229.23 959.33C2229.23 962.33 2228.33 965 2226.53 967.34C2224.73 969.62 2222.12 971.42 2218.7 972.74C2215.34 974.06 2211.23 974.72 2206.37 974.72ZM2261.92 974.72C2256.4 974.72 2251.54 973.64 2247.34 971.48C2243.2 969.32 2239.99 966.38 2237.71 962.66C2235.43 958.88 2234.29 954.59 2234.29 949.79C2234.29 944.93 2235.4 940.64 2237.62 936.92C2239.9 933.14 2242.99 930.2 2246.89 928.1C2250.79 925.94 2255.2 924.86 2260.12 924.86C2264.86 924.86 2269.12 925.88 2272.9 927.92C2276.74 929.9 2279.77 932.78 2281.99 936.56C2284.21 940.28 2285.32 944.75 2285.32 949.97C2285.32 950.51 2285.29 951.14 2285.23 951.86C2285.17 952.52 2285.11 953.15 2285.05 953.75H2245.72V945.56H2277.67L2272.27 947.99C2272.27 945.47 2271.76 943.28 2270.74 941.42C2269.72 939.56 2268.31 938.12 2266.51 937.1C2264.71 936.02 2262.61 935.48 2260.21 935.48C2257.81 935.48 2255.68 936.02 2253.82 937.1C2252.02 938.12 2250.61 939.59 2249.59 941.51C2248.57 943.37 2248.06 945.59 2248.06 948.17V950.33C2248.06 952.97 2248.63 955.31 2249.77 957.35C2250.97 959.33 2252.62 960.86 2254.72 961.94C2256.88 962.96 2259.4 963.47 2262.28 963.47C2264.86 963.47 2267.11 963.08 2269.03 962.3C2271.01 961.52 2272.81 960.35 2274.43 958.79L2281.9 966.89C2279.68 969.41 2276.89 971.36 2273.53 972.74C2270.17 974.06 2266.3 974.72 2261.92 974.72ZM2324.1 924.86C2327.94 924.86 2331.36 925.64 2334.36 927.2C2337.42 928.7 2339.82 931.04 2341.56 934.22C2343.3 937.34 2344.17 941.36 2344.17 946.28V974H2330.13V948.44C2330.13 944.54 2329.26 941.66 2327.52 939.8C2325.84 937.94 2323.44 937.01 2320.32 937.01C2318.1 937.01 2316.09 937.49 2314.29 938.45C2312.55 939.35 2311.17 940.76 2310.15 942.68C2309.19 944.6 2308.71 947.06 2308.71 950.06V974H2294.67V925.58H2308.08V938.99L2305.56 934.94C2307.3 931.7 2309.79 929.21 2313.03 927.47C2316.27 925.73 2319.96 924.86 2324.1 924.86ZM2369.16 974L2348.82 925.58H2363.31L2380.23 967.25H2373.03L2390.58 925.58H2404.08L2383.65 974H2369.16ZM2431.53 974.72C2426.37 974.72 2421.78 973.64 2417.76 971.48C2413.8 969.32 2410.65 966.38 2408.31 962.66C2406.03 958.88 2404.89 954.59 2404.89 949.79C2404.89 944.93 2406.03 940.64 2408.31 936.92C2410.65 933.14 2413.8 930.2 2417.76 928.1C2421.78 925.94 2426.37 924.86 2431.53 924.86C2436.63 924.86 2441.19 925.94 2445.21 928.1C2449.23 930.2 2452.38 933.11 2454.66 936.83C2456.94 940.55 2458.08 944.87 2458.08 949.79C2458.08 954.59 2456.94 958.88 2454.66 962.66C2452.38 966.38 2449.23 969.32 2445.21 971.48C2441.19 973.64 2436.63 974.72 2431.53 974.72ZM2431.53 963.2C2433.87 963.2 2435.97 962.66 2437.83 961.58C2439.69 960.5 2441.16 958.97 2442.24 956.99C2443.32 954.95 2443.86 952.55 2443.86 949.79C2443.86 946.97 2443.32 944.57 2442.24 942.59C2441.16 940.61 2439.69 939.08 2437.83 938C2435.97 936.92 2433.87 936.38 2431.53 936.38C2429.19 936.38 2427.09 936.92 2425.23 938C2423.37 939.08 2421.87 940.61 2420.73 942.59C2419.65 944.57 2419.11 946.97 2419.11 949.79C2419.11 952.55 2419.65 954.95 2420.73 956.99C2421.87 958.97 2423.37 960.5 2425.23 961.58C2427.09 962.66 2429.19 963.2 2431.53 963.2ZM2467.46 974V907.22H2481.5V974H2467.46ZM2507.67 974L2487.33 925.58H2501.82L2518.74 967.25H2511.54L2529.09 925.58H2542.59L2522.16 974H2507.67ZM2548.32 974V925.58H2562.36V974H2548.32ZM2555.34 918.83C2552.76 918.83 2550.66 918.08 2549.04 916.58C2547.42 915.08 2546.61 913.22 2546.61 911C2546.61 908.78 2547.42 906.92 2549.04 905.42C2550.66 903.92 2552.76 903.17 2555.34 903.17C2557.92 903.17 2560.02 903.89 2561.64 905.33C2563.26 906.71 2564.07 908.51 2564.07 910.73C2564.07 913.07 2563.26 915.02 2561.64 916.58C2560.08 918.08 2557.98 918.83 2555.34 918.83ZM2637.4 924.86C2641.24 924.86 2644.63 925.64 2647.57 927.2C2650.57 928.7 2652.91 931.04 2654.59 934.22C2656.33 937.34 2657.2 941.36 2657.2 946.28V974H2643.16V948.44C2643.16 944.54 2642.35 941.66 2640.73 939.8C2639.11 937.94 2636.83 937.01 2633.89 937.01C2631.85 937.01 2630.02 937.49 2628.4 938.45C2626.78 939.35 2625.52 940.73 2624.62 942.59C2623.72 944.45 2623.27 946.82 2623.27 949.7V974H2609.23V948.44C2609.23 944.54 2608.42 941.66 2606.8 939.8C2605.24 937.94 2602.99 937.01 2600.05 937.01C2598.01 937.01 2596.18 937.49 2594.56 938.45C2592.94 939.35 2591.68 940.73 2590.78 942.59C2589.88 944.45 2589.43 946.82 2589.43 949.7V974H2575.39V925.58H2588.8V938.81L2586.28 934.94C2587.96 931.64 2590.33 929.15 2593.39 927.47C2596.51 925.73 2600.05 924.86 2604.01 924.86C2608.45 924.86 2612.32 926 2615.62 928.28C2618.98 930.5 2621.2 933.92 2622.28 938.54L2617.33 937.19C2618.95 933.41 2621.53 930.41 2625.07 928.19C2628.67 925.97 2632.78 924.86 2637.4 924.86ZM2694.17 974.72C2688.65 974.72 2683.79 973.64 2679.59 971.48C2675.45 969.32 2672.24 966.38 2669.96 962.66C2667.68 958.88 2666.54 954.59 2666.54 949.79C2666.54 944.93 2667.65 940.64 2669.87 936.92C2672.15 933.14 2675.24 930.2 2679.14 928.1C2683.04 925.94 2687.45 924.86 2692.37 924.86C2697.11 924.86 2701.37 925.88 2705.15 927.92C2708.99 929.9 2712.02 932.78 2714.24 936.56C2716.46 940.28 2717.57 944.75 2717.57 949.97C2717.57 950.51 2717.54 951.14 2717.48 951.86C2717.42 952.52 2717.36 953.15 2717.3 953.75H2677.97V945.56H2709.92L2704.52 947.99C2704.52 945.47 2704.01 943.28 2702.99 941.42C2701.97 939.56 2700.56 938.12 2698.76 937.1C2696.96 936.02 2694.86 935.48 2692.46 935.48C2690.06 935.48 2687.93 936.02 2686.07 937.1C2684.27 938.12 2682.86 939.59 2681.84 941.51C2680.82 943.37 2680.31 945.59 2680.31 948.17V950.33C2680.31 952.97 2680.88 955.31 2682.02 957.35C2683.22 959.33 2684.87 960.86 2686.97 961.94C2689.13 962.96 2691.65 963.47 2694.53 963.47C2697.11 963.47 2699.36 963.08 2701.28 962.3C2703.26 961.52 2705.06 960.35 2706.68 958.79L2714.15 966.89C2711.93 969.41 2709.14 971.36 2705.78 972.74C2702.42 974.06 2698.55 974.72 2694.17 974.72ZM2756.35 924.86C2760.19 924.86 2763.61 925.64 2766.61 927.2C2769.67 928.7 2772.07 931.04 2773.81 934.22C2775.55 937.34 2776.42 941.36 2776.42 946.28V974H2762.38V948.44C2762.38 944.54 2761.51 941.66 2759.77 939.8C2758.09 937.94 2755.69 937.01 2752.57 937.01C2750.35 937.01 2748.34 937.49 2746.54 938.45C2744.8 939.35 2743.42 940.76 2742.4 942.68C2741.44 944.6 2740.96 947.06 2740.96 950.06V974H2726.92V925.58H2740.33V938.99L2737.81 934.94C2739.55 931.7 2742.04 929.21 2745.28 927.47C2748.52 925.73 2752.21 924.86 2756.35 924.86ZM2808.94 974.72C2803.24 974.72 2798.8 973.28 2795.62 970.4C2792.44 967.46 2790.85 963.11 2790.85 957.35V914.87H2804.89V957.17C2804.89 959.21 2805.43 960.8 2806.51 961.94C2807.59 963.02 2809.06 963.56 2810.92 963.56C2813.14 963.56 2815.03 962.96 2816.59 961.76L2820.37 971.66C2818.93 972.68 2817.19 973.46 2815.15 974C2813.17 974.48 2811.1 974.72 2808.94 974.72ZM2783.38 937.46V926.66H2816.95V937.46H2783.38ZM2849.8 974.72C2844.64 974.72 2840.05 973.64 2836.03 971.48C2832.07 969.32 2828.92 966.38 2826.58 962.66C2824.3 958.88 2823.16 954.59 2823.16 949.79C2823.16 944.93 2824.3 940.64 2826.58 936.92C2828.92 933.14 2832.07 930.2 2836.03 928.1C2840.05 925.94 2844.64 924.86 2849.8 924.86C2854.9 924.86 2859.46 925.94 2863.48 928.1C2867.5 930.2 2870.65 933.11 2872.93 936.83C2875.21 940.55 2876.35 944.87 2876.35 949.79C2876.35 954.59 2875.21 958.88 2872.93 962.66C2870.65 966.38 2867.5 969.32 2863.48 971.48C2859.46 973.64 2854.9 974.72 2849.8 974.72ZM2849.8 963.2C2852.14 963.2 2854.24 962.66 2856.1 961.58C2857.96 960.5 2859.43 958.97 2860.51 956.99C2861.59 954.95 2862.13 952.55 2862.13 949.79C2862.13 946.97 2861.59 944.57 2860.51 942.59C2859.43 940.61 2857.96 939.08 2856.1 938C2854.24 936.92 2852.14 936.38 2849.8 936.38C2847.46 936.38 2845.36 936.92 2843.5 938C2841.64 939.08 2840.14 940.61 2839 942.59C2837.92 944.57 2837.38 946.97 2837.38 949.79C2837.38 952.55 2837.92 954.95 2839 956.99C2840.14 958.97 2841.64 960.5 2843.5 961.58C2845.36 962.66 2847.46 963.2 2849.8 963.2ZM2932.01 974.72C2927.45 974.72 2923.34 973.7 2919.68 971.66C2916.02 969.56 2913.11 966.65 2910.95 962.93C2908.85 959.21 2907.8 954.83 2907.8 949.79C2907.8 944.69 2908.85 940.28 2910.95 936.56C2913.11 932.84 2916.02 929.96 2919.68 927.92C2923.34 925.88 2927.45 924.86 2932.01 924.86C2936.09 924.86 2939.66 925.76 2942.72 927.56C2945.78 929.36 2948.15 932.09 2949.83 935.75C2951.51 939.41 2952.35 944.09 2952.35 949.79C2952.35 955.43 2951.54 960.11 2949.92 963.83C2948.3 967.49 2945.96 970.22 2942.9 972.02C2939.9 973.82 2936.27 974.72 2932.01 974.72ZM2934.44 963.2C2936.72 963.2 2938.79 962.66 2940.65 961.58C2942.51 960.5 2943.98 958.97 2945.06 956.99C2946.2 954.95 2946.77 952.55 2946.77 949.79C2946.77 946.97 2946.2 944.57 2945.06 942.59C2943.98 940.61 2942.51 939.08 2940.65 938C2938.79 936.92 2936.72 936.38 2934.44 936.38C2932.1 936.38 2930 936.92 2928.14 938C2926.28 939.08 2924.78 940.61 2923.64 942.59C2922.56 944.57 2922.02 946.97 2922.02 949.79C2922.02 952.55 2922.56 954.95 2923.64 956.99C2924.78 958.97 2926.28 960.5 2928.14 961.58C2930 962.66 2932.1 963.2 2934.44 963.2ZM2947.13 974V964.1L2947.4 949.7L2946.5 935.39V907.22H2960.54V974H2947.13ZM2997.57 974.72C2992.05 974.72 2987.19 973.64 2982.99 971.48C2978.85 969.32 2975.64 966.38 2973.36 962.66C2971.08 958.88 2969.94 954.59 2969.94 949.79C2969.94 944.93 2971.05 940.64 2973.27 936.92C2975.55 933.14 2978.64 930.2 2982.54 928.1C2986.44 925.94 2990.85 924.86 2995.77 924.86C3000.51 924.86 3004.77 925.88 3008.55 927.92C3012.39 929.9 3015.42 932.78 3017.64 936.56C3019.86 940.28 3020.97 944.75 3020.97 949.97C3020.97 950.51 3020.94 951.14 3020.88 951.86C3020.82 952.52 3020.76 953.15 3020.7 953.75H2981.37V945.56H3013.32L3007.92 947.99C3007.92 945.47 3007.41 943.28 3006.39 941.42C3005.37 939.56 3003.96 938.12 3002.16 937.1C3000.36 936.02 2998.26 935.48 2995.86 935.48C2993.46 935.48 2991.33 936.02 2989.47 937.1C2987.67 938.12 2986.26 939.59 2985.24 941.51C2984.22 943.37 2983.71 945.59 2983.71 948.17V950.33C2983.71 952.97 2984.28 955.31 2985.42 957.35C2986.62 959.33 2988.27 960.86 2990.37 961.94C2992.53 962.96 2995.05 963.47 2997.93 963.47C3000.51 963.47 3002.76 963.08 3004.68 962.3C3006.66 961.52 3008.46 960.35 3010.08 958.79L3017.55 966.89C3015.33 969.41 3012.54 971.36 3009.18 972.74C3005.82 974.06 3001.95 974.72 2997.57 974.72ZM3084.42 974.72C3080.34 974.72 3076.77 973.82 3073.71 972.02C3070.65 970.22 3068.25 967.49 3066.51 963.83C3064.83 960.11 3063.99 955.43 3063.99 949.79C3063.99 944.09 3064.8 939.41 3066.42 935.75C3068.04 932.09 3070.38 929.36 3073.44 927.56C3076.5 925.76 3080.16 924.86 3084.42 924.86C3088.98 924.86 3093.06 925.91 3096.66 928.01C3100.32 930.05 3103.2 932.93 3105.3 936.65C3107.46 940.37 3108.54 944.75 3108.54 949.79C3108.54 954.89 3107.46 959.3 3105.3 963.02C3103.2 966.74 3100.32 969.62 3096.66 971.66C3093.06 973.7 3088.98 974.72 3084.42 974.72ZM3055.8 991.46V925.58H3069.21V935.48L3068.94 949.88L3069.84 964.19V991.46H3055.8ZM3081.99 963.2C3084.33 963.2 3086.4 962.66 3088.2 961.58C3090.06 960.5 3091.53 958.97 3092.61 956.99C3093.75 954.95 3094.32 952.55 3094.32 949.79C3094.32 946.97 3093.75 944.57 3092.61 942.59C3091.53 940.61 3090.06 939.08 3088.2 938C3086.4 936.92 3084.33 936.38 3081.99 936.38C3079.65 936.38 3077.55 936.92 3075.69 938C3073.83 939.08 3072.36 940.61 3071.28 942.59C3070.2 944.57 3069.66 946.97 3069.66 949.79C3069.66 952.55 3070.2 954.95 3071.28 956.99C3072.36 958.97 3073.83 960.5 3075.69 961.58C3077.55 962.66 3079.65 963.2 3081.99 963.2ZM3117.94 974V925.58H3131.35V939.26L3129.46 935.3C3130.9 931.88 3133.21 929.3 3136.39 927.56C3139.57 925.76 3143.44 924.86 3148 924.86V937.82C3147.4 937.76 3146.86 937.73 3146.38 937.73C3145.9 937.67 3145.39 937.64 3144.85 937.64C3141.01 937.64 3137.89 938.75 3135.49 940.97C3133.15 943.13 3131.98 946.52 3131.98 951.14V974H3117.94ZM3179.04 974.72C3173.88 974.72 3169.29 973.64 3165.27 971.48C3161.31 969.32 3158.16 966.38 3155.82 962.66C3153.54 958.88 3152.4 954.59 3152.4 949.79C3152.4 944.93 3153.54 940.64 3155.82 936.92C3158.16 933.14 3161.31 930.2 3165.27 928.1C3169.29 925.94 3173.88 924.86 3179.04 924.86C3184.14 924.86 3188.7 925.94 3192.72 928.1C3196.74 930.2 3199.89 933.11 3202.17 936.83C3204.45 940.55 3205.59 944.87 3205.59 949.79C3205.59 954.59 3204.45 958.88 3202.17 962.66C3199.89 966.38 3196.74 969.32 3192.72 971.48C3188.7 973.64 3184.14 974.72 3179.04 974.72ZM3179.04 963.2C3181.38 963.2 3183.48 962.66 3185.34 961.58C3187.2 960.5 3188.67 958.97 3189.75 956.99C3190.83 954.95 3191.37 952.55 3191.37 949.79C3191.37 946.97 3190.83 944.57 3189.75 942.59C3188.67 940.61 3187.2 939.08 3185.34 938C3183.48 936.92 3181.38 936.38 3179.04 936.38C3176.7 936.38 3174.6 936.92 3172.74 938C3170.88 939.08 3169.38 940.61 3168.24 942.59C3167.16 944.57 3166.62 946.97 3166.62 949.79C3166.62 952.55 3167.16 954.95 3168.24 956.99C3169.38 958.97 3170.88 960.5 3172.74 961.58C3174.6 962.66 3176.7 963.2 3179.04 963.2ZM3235.76 974.72C3231.2 974.72 3227.09 973.7 3223.43 971.66C3219.77 969.56 3216.86 966.65 3214.7 962.93C3212.6 959.21 3211.55 954.83 3211.55 949.79C3211.55 944.69 3212.6 940.28 3214.7 936.56C3216.86 932.84 3219.77 929.96 3223.43 927.92C3227.09 925.88 3231.2 924.86 3235.76 924.86C3239.84 924.86 3243.41 925.76 3246.47 927.56C3249.53 929.36 3251.9 932.09 3253.58 935.75C3255.26 939.41 3256.1 944.09 3256.1 949.79C3256.1 955.43 3255.29 960.11 3253.67 963.83C3252.05 967.49 3249.71 970.22 3246.65 972.02C3243.65 973.82 3240.02 974.72 3235.76 974.72ZM3238.19 963.2C3240.47 963.2 3242.54 962.66 3244.4 961.58C3246.26 960.5 3247.73 958.97 3248.81 956.99C3249.95 954.95 3250.52 952.55 3250.52 949.79C3250.52 946.97 3249.95 944.57 3248.81 942.59C3247.73 940.61 3246.26 939.08 3244.4 938C3242.54 936.92 3240.47 936.38 3238.19 936.38C3235.85 936.38 3233.75 936.92 3231.89 938C3230.03 939.08 3228.53 940.61 3227.39 942.59C3226.31 944.57 3225.77 946.97 3225.77 949.79C3225.77 952.55 3226.31 954.95 3227.39 956.99C3228.53 958.97 3230.03 960.5 3231.89 961.58C3233.75 962.66 3235.85 963.2 3238.19 963.2ZM3250.88 974V964.1L3251.15 949.7L3250.25 935.39V907.22H3264.29V974H3250.88ZM3297.72 974.72C3293.7 974.72 3290.1 973.94 3286.92 972.38C3283.8 970.82 3281.37 968.45 3279.63 965.27C3277.89 962.03 3277.02 957.92 3277.02 952.94V925.58H3291.06V950.87C3291.06 954.89 3291.9 957.86 3293.58 959.78C3295.32 961.64 3297.75 962.57 3300.87 962.57C3303.03 962.57 3304.95 962.12 3306.63 961.22C3308.31 960.26 3309.63 958.82 3310.59 956.9C3311.55 954.92 3312.03 952.46 3312.03 949.52V925.58H3326.07V974H3312.75V960.68L3315.18 964.55C3313.56 967.91 3311.16 970.46 3307.98 972.2C3304.86 973.88 3301.44 974.72 3297.72 974.72ZM3358.88 974.72C3353.18 974.72 3348.74 973.28 3345.56 970.4C3342.38 967.46 3340.79 963.11 3340.79 957.35V914.87H3354.83V957.17C3354.83 959.21 3355.37 960.8 3356.45 961.94C3357.53 963.02 3359 963.56 3360.86 963.56C3363.08 963.56 3364.97 962.96 3366.53 961.76L3370.31 971.66C3368.87 972.68 3367.13 973.46 3365.09 974C3363.11 974.48 3361.04 974.72 3358.88 974.72ZM3333.32 937.46V926.66H3366.89V937.46H3333.32ZM3399.73 974.72C3394.57 974.72 3389.98 973.64 3385.96 971.48C3382 969.32 3378.85 966.38 3376.51 962.66C3374.23 958.88 3373.09 954.59 3373.09 949.79C3373.09 944.93 3374.23 940.64 3376.51 936.92C3378.85 933.14 3382 930.2 3385.96 928.1C3389.98 925.94 3394.57 924.86 3399.73 924.86C3404.83 924.86 3409.39 925.94 3413.41 928.1C3417.43 930.2 3420.58 933.11 3422.86 936.83C3425.14 940.55 3426.28 944.87 3426.28 949.79C3426.28 954.59 3425.14 958.88 3422.86 962.66C3420.58 966.38 3417.43 969.32 3413.41 971.48C3409.39 973.64 3404.83 974.72 3399.73 974.72ZM3399.73 963.2C3402.07 963.2 3404.17 962.66 3406.03 961.58C3407.89 960.5 3409.36 958.97 3410.44 956.99C3411.52 954.95 3412.06 952.55 3412.06 949.79C3412.06 946.97 3411.52 944.57 3410.44 942.59C3409.36 940.61 3407.89 939.08 3406.03 938C3404.17 936.92 3402.07 936.38 3399.73 936.38C3397.39 936.38 3395.29 936.92 3393.43 938C3391.57 939.08 3390.07 940.61 3388.93 942.59C3387.85 944.57 3387.31 946.97 3387.31 949.79C3387.31 952.55 3387.85 954.95 3388.93 956.99C3390.07 958.97 3391.57 960.5 3393.43 961.58C3395.29 962.66 3397.39 963.2 3399.73 963.2ZM3451.96 974.72C3447.82 974.72 3443.83 974.24 3439.99 973.28C3436.21 972.26 3433.21 971 3430.99 969.5L3435.67 959.42C3437.89 960.8 3440.5 961.94 3443.5 962.84C3446.56 963.68 3449.56 964.1 3452.5 964.1C3455.74 964.1 3458.02 963.71 3459.34 962.93C3460.72 962.15 3461.41 961.07 3461.41 959.69C3461.41 958.55 3460.87 957.71 3459.79 957.17C3458.77 956.57 3457.39 956.12 3455.65 955.82C3453.91 955.52 3451.99 955.22 3449.89 954.92C3447.85 954.62 3445.78 954.23 3443.68 953.75C3441.58 953.21 3439.66 952.43 3437.92 951.41C3436.18 950.39 3434.77 949.01 3433.69 947.27C3432.67 945.53 3432.16 943.28 3432.16 940.52C3432.16 937.46 3433.03 934.76 3434.77 932.42C3436.57 930.08 3439.15 928.25 3442.51 926.93C3445.87 925.55 3449.89 924.86 3454.57 924.86C3457.87 924.86 3461.23 925.22 3464.65 925.94C3468.07 926.66 3470.92 927.71 3473.2 929.09L3468.52 939.08C3466.18 937.7 3463.81 936.77 3461.41 936.29C3459.07 935.75 3456.79 935.48 3454.57 935.48C3451.45 935.48 3449.17 935.9 3447.73 936.74C3446.29 937.58 3445.57 938.66 3445.57 939.98C3445.57 941.18 3446.08 942.08 3447.1 942.68C3448.18 943.28 3449.59 943.76 3451.33 944.12C3453.07 944.48 3454.96 944.81 3457 945.11C3459.1 945.35 3461.2 945.74 3463.3 946.28C3465.4 946.82 3467.29 947.6 3468.97 948.62C3470.71 949.58 3472.12 950.93 3473.2 952.67C3474.28 954.35 3474.82 956.57 3474.82 959.33C3474.82 962.33 3473.92 965 3472.12 967.34C3470.32 969.62 3467.71 971.42 3464.29 972.74C3460.93 974.06 3456.82 974.72 3451.96 974.72Z" fill="#DDDDDD"/>
</svg>
