<svg width="3745" height="1780" viewBox="0 0 3745 1780" fill="none" xmlns="http://www.w3.org/2000/svg">
<path d="M1182.51 841.68C1168.6 841.68 1157.73 837.807 1149.89 830.06C1142.05 822.313 1138.13 811.253 1138.13 796.88V742H1160.81V796.04C1160.81 805.373 1162.72 812.093 1166.55 816.2C1170.38 820.307 1175.74 822.36 1182.65 822.36C1189.56 822.36 1194.92 820.307 1198.75 816.2C1202.58 812.093 1204.49 805.373 1204.49 796.04V742H1226.89V796.88C1226.89 811.253 1222.97 822.313 1215.13 830.06C1207.29 837.807 1196.42 841.68 1182.51 841.68ZM1273.1 841.12C1266.66 841.12 1260.46 840.373 1254.48 838.88C1248.6 837.293 1243.94 835.333 1240.48 833L1247.76 817.32C1251.22 819.467 1255.28 821.24 1259.94 822.64C1264.7 823.947 1269.37 824.6 1273.94 824.6C1278.98 824.6 1282.53 823.993 1284.58 822.78C1286.73 821.567 1287.8 819.887 1287.8 817.74C1287.8 815.967 1286.96 814.66 1285.28 813.82C1283.7 812.887 1281.55 812.187 1278.84 811.72C1276.14 811.253 1273.15 810.787 1269.88 810.32C1266.71 809.853 1263.49 809.247 1260.22 808.5C1256.96 807.66 1253.97 806.447 1251.26 804.86C1248.56 803.273 1246.36 801.127 1244.68 798.42C1243.1 795.713 1242.3 792.213 1242.3 787.92C1242.3 783.16 1243.66 778.96 1246.36 775.32C1249.16 771.68 1253.18 768.833 1258.4 766.78C1263.63 764.633 1269.88 763.56 1277.16 763.56C1282.3 763.56 1287.52 764.12 1292.84 765.24C1298.16 766.36 1302.6 767.993 1306.14 770.14L1298.86 785.68C1295.22 783.533 1291.54 782.087 1287.8 781.34C1284.16 780.5 1280.62 780.08 1277.16 780.08C1272.31 780.08 1268.76 780.733 1266.52 782.04C1264.28 783.347 1263.16 785.027 1263.16 787.08C1263.16 788.947 1263.96 790.347 1265.54 791.28C1267.22 792.213 1269.42 792.96 1272.12 793.52C1274.83 794.08 1277.77 794.593 1280.94 795.06C1284.21 795.433 1287.48 796.04 1290.74 796.88C1294.01 797.72 1296.95 798.933 1299.56 800.52C1302.27 802.013 1304.46 804.113 1306.14 806.82C1307.82 809.433 1308.66 812.887 1308.66 817.18C1308.66 821.847 1307.26 826 1304.46 829.64C1301.66 833.187 1297.6 835.987 1292.28 838.04C1287.06 840.093 1280.66 841.12 1273.1 841.12ZM1357.98 841.12C1349.95 841.12 1342.81 839.44 1336.56 836.08C1330.4 832.72 1325.5 828.147 1321.86 822.36C1318.31 816.48 1316.54 809.807 1316.54 802.34C1316.54 794.78 1318.31 788.107 1321.86 782.32C1325.5 776.44 1330.4 771.867 1336.56 768.6C1342.81 765.24 1349.95 763.56 1357.98 763.56C1365.91 763.56 1373.01 765.24 1379.26 768.6C1385.51 771.867 1390.41 776.393 1393.96 782.18C1397.51 787.967 1399.28 794.687 1399.28 802.34C1399.28 809.807 1397.51 816.48 1393.96 822.36C1390.41 828.147 1385.51 832.72 1379.26 836.08C1373.01 839.44 1365.91 841.12 1357.98 841.12ZM1357.98 823.2C1361.62 823.2 1364.89 822.36 1367.78 820.68C1370.67 819 1372.96 816.62 1374.64 813.54C1376.32 810.367 1377.16 806.633 1377.16 802.34C1377.16 797.953 1376.32 794.22 1374.64 791.14C1372.96 788.06 1370.67 785.68 1367.78 784C1364.89 782.32 1361.62 781.48 1357.98 781.48C1354.34 781.48 1351.07 782.32 1348.18 784C1345.29 785.68 1342.95 788.06 1341.18 791.14C1339.5 794.22 1338.66 797.953 1338.66 802.34C1338.66 806.633 1339.5 810.367 1341.18 813.54C1342.95 816.62 1345.29 819 1348.18 820.68C1351.07 822.36 1354.34 823.2 1357.98 823.2ZM1439.22 841.12C1432.78 841.12 1426.57 840.373 1420.6 838.88C1414.72 837.293 1410.05 835.333 1406.6 833L1413.88 817.32C1417.33 819.467 1421.39 821.24 1426.06 822.64C1430.82 823.947 1435.48 824.6 1440.06 824.6C1445.1 824.6 1448.64 823.993 1450.7 822.78C1452.84 821.567 1453.92 819.887 1453.92 817.74C1453.92 815.967 1453.08 814.66 1451.4 813.82C1449.81 812.887 1447.66 812.187 1444.96 811.72C1442.25 811.253 1439.26 810.787 1436 810.32C1432.82 809.853 1429.6 809.247 1426.34 808.5C1423.07 807.66 1420.08 806.447 1417.38 804.86C1414.67 803.273 1412.48 801.127 1410.8 798.42C1409.21 795.713 1408.42 792.213 1408.42 787.92C1408.42 783.16 1409.77 778.96 1412.48 775.32C1415.28 771.68 1419.29 768.833 1424.52 766.78C1429.74 764.633 1436 763.56 1443.28 763.56C1448.41 763.56 1453.64 764.12 1458.96 765.24C1464.28 766.36 1468.71 767.993 1472.26 770.14L1464.98 785.68C1461.34 783.533 1457.65 782.087 1453.92 781.34C1450.28 780.5 1446.73 780.08 1443.28 780.08C1438.42 780.08 1434.88 780.733 1432.64 782.04C1430.4 783.347 1429.28 785.027 1429.28 787.08C1429.28 788.947 1430.07 790.347 1431.66 791.28C1433.34 792.213 1435.53 792.96 1438.24 793.52C1440.94 794.08 1443.88 794.593 1447.06 795.06C1450.32 795.433 1453.59 796.04 1456.86 796.88C1460.12 797.72 1463.06 798.933 1465.68 800.52C1468.38 802.013 1470.58 804.113 1472.26 806.82C1473.94 809.433 1474.78 812.887 1474.78 817.18C1474.78 821.847 1473.38 826 1470.58 829.64C1467.78 833.187 1463.72 835.987 1458.4 838.04C1453.17 840.093 1446.78 841.12 1439.22 841.12ZM1564.3 841.12C1556.18 841.12 1548.95 839.487 1542.6 836.22C1536.25 832.86 1531.26 828.24 1527.62 822.36C1524.07 816.48 1522.3 809.807 1522.3 802.34C1522.3 794.78 1524.07 788.107 1527.62 782.32C1531.26 776.44 1536.25 771.867 1542.6 768.6C1548.95 765.24 1556.18 763.56 1564.3 763.56C1572.23 763.56 1579.14 765.24 1585.02 768.6C1590.9 771.867 1595.24 776.58 1598.04 782.74L1581.1 791.84C1579.14 788.293 1576.67 785.68 1573.68 784C1570.79 782.32 1567.61 781.48 1564.16 781.48C1560.43 781.48 1557.07 782.32 1554.08 784C1551.09 785.68 1548.71 788.06 1546.94 791.14C1545.26 794.22 1544.42 797.953 1544.42 802.34C1544.42 806.727 1545.26 810.46 1546.94 813.54C1548.71 816.62 1551.09 819 1554.08 820.68C1557.07 822.36 1560.43 823.2 1564.16 823.2C1567.61 823.2 1570.79 822.407 1573.68 820.82C1576.67 819.14 1579.14 816.48 1581.1 812.84L1598.04 822.08C1595.24 828.147 1590.9 832.86 1585.02 836.22C1579.14 839.487 1572.23 841.12 1564.3 841.12ZM1645.5 841.12C1637.47 841.12 1630.33 839.44 1624.08 836.08C1617.92 832.72 1613.02 828.147 1609.38 822.36C1605.83 816.48 1604.06 809.807 1604.06 802.34C1604.06 794.78 1605.83 788.107 1609.38 782.32C1613.02 776.44 1617.92 771.867 1624.08 768.6C1630.33 765.24 1637.47 763.56 1645.5 763.56C1653.43 763.56 1660.52 765.24 1666.78 768.6C1673.03 771.867 1677.93 776.393 1681.48 782.18C1685.02 787.967 1686.8 794.687 1686.8 802.34C1686.8 809.807 1685.02 816.48 1681.48 822.36C1677.93 828.147 1673.03 832.72 1666.78 836.08C1660.52 839.44 1653.43 841.12 1645.5 841.12ZM1645.5 823.2C1649.14 823.2 1652.4 822.36 1655.3 820.68C1658.19 819 1660.48 816.62 1662.16 813.54C1663.84 810.367 1664.68 806.633 1664.68 802.34C1664.68 797.953 1663.84 794.22 1662.16 791.14C1660.48 788.06 1658.19 785.68 1655.3 784C1652.4 782.32 1649.14 781.48 1645.5 781.48C1641.86 781.48 1638.59 782.32 1635.7 784C1632.8 785.68 1630.47 788.06 1628.7 791.14C1627.02 794.22 1626.18 797.953 1626.18 802.34C1626.18 806.633 1627.02 810.367 1628.7 813.54C1630.47 816.62 1632.8 819 1635.7 820.68C1638.59 822.36 1641.86 823.2 1645.5 823.2ZM1797.86 763.56C1803.83 763.56 1809.1 764.773 1813.68 767.2C1818.34 769.533 1821.98 773.173 1824.6 778.12C1827.3 782.973 1828.66 789.227 1828.66 796.88V840H1806.82V800.24C1806.82 794.173 1805.56 789.693 1803.04 786.8C1800.52 783.907 1796.97 782.46 1792.4 782.46C1789.22 782.46 1786.38 783.207 1783.86 784.7C1781.34 786.1 1779.38 788.247 1777.98 791.14C1776.58 794.033 1775.88 797.72 1775.88 802.2V840H1754.04V800.24C1754.04 794.173 1752.78 789.693 1750.26 786.8C1747.83 783.907 1744.33 782.46 1739.76 782.46C1736.58 782.46 1733.74 783.207 1731.22 784.7C1728.7 786.1 1726.74 788.247 1725.34 791.14C1723.94 794.033 1723.24 797.72 1723.24 802.2V840H1701.4V764.68H1722.26V785.26L1718.34 779.24C1720.95 774.107 1724.64 770.233 1729.4 767.62C1734.25 764.913 1739.76 763.56 1745.92 763.56C1752.82 763.56 1758.84 765.333 1763.98 768.88C1769.2 772.333 1772.66 777.653 1774.34 784.84L1766.64 782.74C1769.16 776.86 1773.17 772.193 1778.68 768.74C1784.28 765.287 1790.67 763.56 1797.86 763.56ZM1884.62 841.12C1876.59 841.12 1869.45 839.44 1863.2 836.08C1857.04 832.72 1852.14 828.147 1848.5 822.36C1844.95 816.48 1843.18 809.807 1843.18 802.34C1843.18 794.78 1844.95 788.107 1848.5 782.32C1852.14 776.44 1857.04 771.867 1863.2 768.6C1869.45 765.24 1876.59 763.56 1884.62 763.56C1892.55 763.56 1899.65 765.24 1905.9 768.6C1912.15 771.867 1917.05 776.393 1920.6 782.18C1924.15 787.967 1925.92 794.687 1925.92 802.34C1925.92 809.807 1924.15 816.48 1920.6 822.36C1917.05 828.147 1912.15 832.72 1905.9 836.08C1899.65 839.44 1892.55 841.12 1884.62 841.12ZM1884.62 823.2C1888.26 823.2 1891.53 822.36 1894.42 820.68C1897.31 819 1899.6 816.62 1901.28 813.54C1902.96 810.367 1903.8 806.633 1903.8 802.34C1903.8 797.953 1902.96 794.22 1901.28 791.14C1899.6 788.06 1897.31 785.68 1894.42 784C1891.53 782.32 1888.26 781.48 1884.62 781.48C1880.98 781.48 1877.71 782.32 1874.82 784C1871.93 785.68 1869.59 788.06 1867.82 791.14C1866.14 794.22 1865.3 797.953 1865.3 802.34C1865.3 806.633 1866.14 810.367 1867.82 813.54C1869.59 816.62 1871.93 819 1874.82 820.68C1877.71 822.36 1880.98 823.2 1884.62 823.2ZM2013.91 841.68C2006.07 841.68 1998.55 840.653 1991.37 838.6C1984.18 836.453 1978.39 833.7 1974.01 830.34L1981.71 813.26C1985.91 816.247 1990.85 818.72 1996.55 820.68C2002.33 822.547 2008.17 823.48 2014.05 823.48C2018.53 823.48 2022.12 823.06 2024.83 822.22C2027.63 821.287 2029.68 820.027 2030.99 818.44C2032.29 816.853 2032.95 815.033 2032.95 812.98C2032.95 810.367 2031.92 808.313 2029.87 806.82C2027.81 805.233 2025.11 803.973 2021.75 803.04C2018.39 802.013 2014.65 801.08 2010.55 800.24C2006.53 799.307 2002.47 798.187 1998.37 796.88C1994.35 795.573 1990.67 793.893 1987.31 791.84C1983.95 789.787 1981.19 787.08 1979.05 783.72C1976.99 780.36 1975.97 776.067 1975.97 770.84C1975.97 765.24 1977.46 760.153 1980.45 755.58C1983.53 750.913 1988.1 747.227 1994.17 744.52C2000.33 741.72 2008.03 740.32 2017.27 740.32C2023.43 740.32 2029.49 741.067 2035.47 742.56C2041.44 743.96 2046.71 746.107 2051.29 749L2044.29 766.22C2039.71 763.607 2035.14 761.693 2030.57 760.48C2025.99 759.173 2021.51 758.52 2017.13 758.52C2012.74 758.52 2009.15 759.033 2006.35 760.06C2003.55 761.087 2001.54 762.44 2000.33 764.12C1999.11 765.707 1998.51 767.573 1998.51 769.72C1998.51 772.24 1999.53 774.293 2001.59 775.88C2003.64 777.373 2006.35 778.587 2009.71 779.52C2013.07 780.453 2016.75 781.387 2020.77 782.32C2024.87 783.253 2028.93 784.327 2032.95 785.54C2037.05 786.753 2040.79 788.387 2044.15 790.44C2047.51 792.493 2050.21 795.2 2052.27 798.56C2054.41 801.92 2055.49 806.167 2055.49 811.3C2055.49 816.807 2053.95 821.847 2050.87 826.42C2047.79 830.993 2043.17 834.68 2037.01 837.48C2030.94 840.28 2023.24 841.68 2013.91 841.68ZM2101.22 841.12C2094.97 841.12 2089.37 839.907 2084.42 837.48C2079.57 835.053 2075.79 831.367 2073.08 826.42C2070.38 821.38 2069.02 814.987 2069.02 807.24V764.68H2090.86V804.02C2090.86 810.273 2092.17 814.893 2094.78 817.88C2097.49 820.773 2101.27 822.22 2106.12 822.22C2109.48 822.22 2112.47 821.52 2115.08 820.12C2117.7 818.627 2119.75 816.387 2121.24 813.4C2122.74 810.32 2123.48 806.493 2123.48 801.92V764.68H2145.32V840H2124.6V819.28L2128.38 825.3C2125.86 830.527 2122.13 834.493 2117.18 837.2C2112.33 839.813 2107.01 841.12 2101.22 841.12ZM2210.08 841.12C2203.73 841.12 2198.18 839.72 2193.42 836.92C2188.66 834.12 2184.92 829.873 2182.22 824.18C2179.6 818.393 2178.3 811.113 2178.3 802.34C2178.3 793.473 2179.56 786.193 2182.08 780.5C2184.6 774.807 2188.24 770.56 2193 767.76C2197.76 764.96 2203.45 763.56 2210.08 763.56C2217.17 763.56 2223.52 765.193 2229.12 768.46C2234.81 771.633 2239.29 776.113 2242.56 781.9C2245.92 787.687 2247.6 794.5 2247.6 802.34C2247.6 810.273 2245.92 817.133 2242.56 822.92C2239.29 828.707 2234.81 833.187 2229.12 836.36C2223.52 839.533 2217.17 841.12 2210.08 841.12ZM2165.56 867.16V764.68H2186.42V780.08L2186 802.48L2187.4 824.74V867.16H2165.56ZM2206.3 823.2C2209.94 823.2 2213.16 822.36 2215.96 820.68C2218.85 819 2221.14 816.62 2222.82 813.54C2224.59 810.367 2225.48 806.633 2225.48 802.34C2225.48 797.953 2224.59 794.22 2222.82 791.14C2221.14 788.06 2218.85 785.68 2215.96 784C2213.16 782.32 2209.94 781.48 2206.3 781.48C2202.66 781.48 2199.39 782.32 2196.5 784C2193.6 785.68 2191.32 788.06 2189.64 791.14C2187.96 794.22 2187.12 797.953 2187.12 802.34C2187.12 806.633 2187.96 810.367 2189.64 813.54C2191.32 816.62 2193.6 819 2196.5 820.68C2199.39 822.36 2202.66 823.2 2206.3 823.2ZM2298.06 841.12C2290.03 841.12 2282.89 839.44 2276.64 836.08C2270.48 832.72 2265.58 828.147 2261.94 822.36C2258.39 816.48 2256.62 809.807 2256.62 802.34C2256.62 794.78 2258.39 788.107 2261.94 782.32C2265.58 776.44 2270.48 771.867 2276.64 768.6C2282.89 765.24 2290.03 763.56 2298.06 763.56C2305.99 763.56 2313.08 765.24 2319.34 768.6C2325.59 771.867 2330.49 776.393 2334.04 782.18C2337.58 787.967 2339.36 794.687 2339.36 802.34C2339.36 809.807 2337.58 816.48 2334.04 822.36C2330.49 828.147 2325.59 832.72 2319.34 836.08C2313.08 839.44 2305.99 841.12 2298.06 841.12ZM2298.06 823.2C2301.7 823.2 2304.96 822.36 2307.86 820.68C2310.75 819 2313.04 816.62 2314.72 813.54C2316.4 810.367 2317.24 806.633 2317.24 802.34C2317.24 797.953 2316.4 794.22 2314.72 791.14C2313.04 788.06 2310.75 785.68 2307.86 784C2304.96 782.32 2301.7 781.48 2298.06 781.48C2294.42 781.48 2291.15 782.32 2288.26 784C2285.36 785.68 2283.03 788.06 2281.26 791.14C2279.58 794.22 2278.74 797.953 2278.74 802.34C2278.74 806.633 2279.58 810.367 2281.26 813.54C2283.03 816.62 2285.36 819 2288.26 820.68C2291.15 822.36 2294.42 823.2 2298.06 823.2ZM2353.96 840V764.68H2374.82V785.96L2371.88 779.8C2374.12 774.48 2377.71 770.467 2382.66 767.76C2387.6 764.96 2393.62 763.56 2400.72 763.56V783.72C2399.78 783.627 2398.94 783.58 2398.2 783.58C2397.45 783.487 2396.66 783.44 2395.82 783.44C2389.84 783.44 2384.99 785.167 2381.26 788.62C2377.62 791.98 2375.8 797.253 2375.8 804.44V840H2353.96ZM2447.1 841.12C2438.23 841.12 2431.33 838.88 2426.38 834.4C2421.43 829.827 2418.96 823.06 2418.96 814.1V748.02H2440.8V813.82C2440.8 816.993 2441.64 819.467 2443.32 821.24C2445 822.92 2447.29 823.76 2450.18 823.76C2453.63 823.76 2456.57 822.827 2459 820.96L2464.88 836.36C2462.64 837.947 2459.93 839.16 2456.76 840C2453.68 840.747 2450.46 841.12 2447.1 841.12ZM2407.34 783.16V766.36H2459.56V783.16H2407.34ZM2512.19 841.12C2503.61 841.12 2496.05 839.44 2489.51 836.08C2483.07 832.72 2478.08 828.147 2474.53 822.36C2470.99 816.48 2469.21 809.807 2469.21 802.34C2469.21 794.78 2470.94 788.107 2474.39 782.32C2477.94 776.44 2482.75 771.867 2488.81 768.6C2494.88 765.24 2501.74 763.56 2509.39 763.56C2516.77 763.56 2523.39 765.147 2529.27 768.32C2535.25 771.4 2539.96 775.88 2543.41 781.76C2546.87 787.547 2548.59 794.5 2548.59 802.62C2548.59 803.46 2548.55 804.44 2548.45 805.56C2548.36 806.587 2548.27 807.567 2548.17 808.5H2486.99V795.76H2536.69L2528.29 799.54C2528.29 795.62 2527.5 792.213 2525.91 789.32C2524.33 786.427 2522.13 784.187 2519.33 782.6C2516.53 780.92 2513.27 780.08 2509.53 780.08C2505.8 780.08 2502.49 780.92 2499.59 782.6C2496.79 784.187 2494.6 786.473 2493.01 789.46C2491.43 792.353 2490.63 795.807 2490.63 799.82V803.18C2490.63 807.287 2491.52 810.927 2493.29 814.1C2495.16 817.18 2497.73 819.56 2500.99 821.24C2504.35 822.827 2508.27 823.62 2512.75 823.62C2516.77 823.62 2520.27 823.013 2523.25 821.8C2526.33 820.587 2529.13 818.767 2531.65 816.34L2543.27 828.94C2539.82 832.86 2535.48 835.893 2530.25 838.04C2525.03 840.093 2519.01 841.12 2512.19 841.12ZM2635.12 841.12C2628.03 841.12 2621.64 839.533 2615.94 836.36C2610.25 833.093 2605.72 828.567 2602.36 822.78C2599.1 816.993 2597.46 810.18 2597.46 802.34C2597.46 794.407 2599.1 787.547 2602.36 781.76C2605.72 775.973 2610.25 771.493 2615.94 768.32C2621.64 765.147 2628.03 763.56 2635.12 763.56C2641.47 763.56 2647.02 764.96 2651.78 767.76C2656.54 770.56 2660.23 774.807 2662.84 780.5C2665.46 786.193 2666.76 793.473 2666.76 802.34C2666.76 811.113 2665.5 818.393 2662.98 824.18C2660.46 829.873 2656.82 834.12 2652.06 836.92C2647.4 839.72 2641.75 841.12 2635.12 841.12ZM2638.9 823.2C2642.45 823.2 2645.67 822.36 2648.56 820.68C2651.46 819 2653.74 816.62 2655.42 813.54C2657.2 810.367 2658.08 806.633 2658.08 802.34C2658.08 797.953 2657.2 794.22 2655.42 791.14C2653.74 788.06 2651.46 785.68 2648.56 784C2645.67 782.32 2642.45 781.48 2638.9 781.48C2635.26 781.48 2632 782.32 2629.1 784C2626.21 785.68 2623.88 788.06 2622.1 791.14C2620.42 794.22 2619.58 797.953 2619.58 802.34C2619.58 806.633 2620.42 810.367 2622.1 813.54C2623.88 816.62 2626.21 819 2629.1 820.68C2632 822.36 2635.26 823.2 2638.9 823.2ZM2658.64 840V824.6L2659.06 802.2L2657.66 779.94V736.12H2679.5V840H2658.64ZM2737.1 841.12C2728.51 841.12 2720.95 839.44 2714.42 836.08C2707.98 832.72 2702.98 828.147 2699.44 822.36C2695.89 816.48 2694.12 809.807 2694.12 802.34C2694.12 794.78 2695.84 788.107 2699.3 782.32C2702.84 776.44 2707.65 771.867 2713.72 768.6C2719.78 765.24 2726.64 763.56 2734.3 763.56C2741.67 763.56 2748.3 765.147 2754.18 768.32C2760.15 771.4 2764.86 775.88 2768.32 781.76C2771.77 787.547 2773.5 794.5 2773.5 802.62C2773.5 803.46 2773.45 804.44 2773.36 805.56C2773.26 806.587 2773.17 807.567 2773.08 808.5H2711.9V795.76H2761.6L2753.2 799.54C2753.2 795.62 2752.4 792.213 2750.82 789.32C2749.23 786.427 2747.04 784.187 2744.24 782.6C2741.44 780.92 2738.17 780.08 2734.44 780.08C2730.7 780.08 2727.39 780.92 2724.5 782.6C2721.7 784.187 2719.5 786.473 2717.92 789.46C2716.33 792.353 2715.54 795.807 2715.54 799.82V803.18C2715.54 807.287 2716.42 810.927 2718.2 814.1C2720.06 817.18 2722.63 819.56 2725.9 821.24C2729.26 822.827 2733.18 823.62 2737.66 823.62C2741.67 823.62 2745.17 823.013 2748.16 821.8C2751.24 820.587 2754.04 818.767 2756.56 816.34L2768.18 828.94C2764.72 832.86 2760.38 835.893 2755.16 838.04C2749.93 840.093 2743.91 841.12 2737.1 841.12ZM2829.23 840V742H2871.65C2880.42 742 2887.98 743.447 2894.33 746.34C2900.67 749.14 2905.57 753.2 2909.03 758.52C2912.48 763.84 2914.21 770.187 2914.21 777.56C2914.21 784.84 2912.48 791.14 2909.03 796.46C2905.57 801.78 2900.67 805.887 2894.33 808.78C2887.98 811.58 2880.42 812.98 2871.65 812.98H2841.83L2851.91 802.76V840H2829.23ZM2851.91 805.28L2841.83 794.5H2870.39C2877.39 794.5 2882.61 793.007 2886.07 790.02C2889.52 787.033 2891.25 782.88 2891.25 777.56C2891.25 772.147 2889.52 767.947 2886.07 764.96C2882.61 761.973 2877.39 760.48 2870.39 760.48H2841.83L2851.91 749.7V805.28ZM2966.1 841.12C2957.51 841.12 2949.95 839.44 2943.42 836.08C2936.98 832.72 2931.99 828.147 2928.44 822.36C2924.89 816.48 2923.12 809.807 2923.12 802.34C2923.12 794.78 2924.85 788.107 2928.3 782.32C2931.85 776.44 2936.65 771.867 2942.72 768.6C2948.79 765.24 2955.65 763.56 2963.3 763.56C2970.67 763.56 2977.3 765.147 2983.18 768.32C2989.15 771.4 2993.87 775.88 2997.32 781.76C3000.77 787.547 3002.5 794.5 3002.5 802.62C3002.5 803.46 3002.45 804.44 3002.36 805.56C3002.27 806.587 3002.17 807.567 3002.08 808.5H2940.9V795.76H2990.6L2982.2 799.54C2982.2 795.62 2981.41 792.213 2979.82 789.32C2978.23 786.427 2976.04 784.187 2973.24 782.6C2970.44 780.92 2967.17 780.08 2963.44 780.08C2959.71 780.08 2956.39 780.92 2953.5 782.6C2950.7 784.187 2948.51 786.473 2946.92 789.46C2945.33 792.353 2944.54 795.807 2944.54 799.82V803.18C2944.54 807.287 2945.43 810.927 2947.2 814.1C2949.07 817.18 2951.63 819.56 2954.9 821.24C2958.26 822.827 2962.18 823.62 2966.66 823.62C2970.67 823.62 2974.17 823.013 2977.16 821.8C2980.24 820.587 2983.04 818.767 2985.56 816.34L2997.18 828.94C2993.73 832.86 2989.39 835.893 2984.16 838.04C2978.93 840.093 2972.91 841.12 2966.1 841.12ZM3042.38 841.12C3035.94 841.12 3029.73 840.373 3023.76 838.88C3017.88 837.293 3013.21 835.333 3009.76 833L3017.04 817.32C3020.49 819.467 3024.55 821.24 3029.22 822.64C3033.98 823.947 3038.65 824.6 3043.22 824.6C3048.26 824.6 3051.81 823.993 3053.86 822.78C3056.01 821.567 3057.08 819.887 3057.08 817.74C3057.08 815.967 3056.24 814.66 3054.56 813.82C3052.97 812.887 3050.83 812.187 3048.12 811.72C3045.41 811.253 3042.43 810.787 3039.16 810.32C3035.99 809.853 3032.77 809.247 3029.5 808.5C3026.23 807.66 3023.25 806.447 3020.54 804.86C3017.83 803.273 3015.64 801.127 3013.96 798.42C3012.37 795.713 3011.58 792.213 3011.58 787.92C3011.58 783.16 3012.93 778.96 3015.64 775.32C3018.44 771.68 3022.45 768.833 3027.68 766.78C3032.91 764.633 3039.16 763.56 3046.44 763.56C3051.57 763.56 3056.8 764.12 3062.12 765.24C3067.44 766.36 3071.87 767.993 3075.42 770.14L3068.14 785.68C3064.5 783.533 3060.81 782.087 3057.08 781.34C3053.44 780.5 3049.89 780.08 3046.44 780.08C3041.59 780.08 3038.04 780.733 3035.8 782.04C3033.56 783.347 3032.44 785.027 3032.44 787.08C3032.44 788.947 3033.23 790.347 3034.82 791.28C3036.5 792.213 3038.69 792.96 3041.4 793.52C3044.11 794.08 3047.05 794.593 3050.22 795.06C3053.49 795.433 3056.75 796.04 3060.02 796.88C3063.29 797.72 3066.23 798.933 3068.84 800.52C3071.55 802.013 3073.74 804.113 3075.42 806.82C3077.1 809.433 3077.94 812.887 3077.94 817.18C3077.94 821.847 3076.54 826 3073.74 829.64C3070.94 833.187 3066.88 835.987 3061.56 838.04C3056.33 840.093 3049.94 841.12 3042.38 841.12ZM3123.48 841.12C3116.38 841.12 3109.99 839.533 3104.3 836.36C3098.6 833.187 3094.08 828.707 3090.72 822.92C3087.45 817.133 3085.82 810.273 3085.82 802.34C3085.82 794.5 3087.45 787.687 3090.72 781.9C3094.08 776.113 3098.6 771.633 3104.3 768.46C3109.99 765.193 3116.38 763.56 3123.48 763.56C3130.1 763.56 3135.75 764.96 3140.42 767.76C3145.18 770.56 3148.82 774.807 3151.34 780.5C3153.86 786.193 3155.12 793.473 3155.12 802.34C3155.12 811.113 3153.81 818.393 3151.2 824.18C3148.58 829.873 3144.9 834.12 3140.14 836.92C3135.38 839.72 3129.82 841.12 3123.48 841.12ZM3127.26 823.2C3130.8 823.2 3134.02 822.36 3136.92 820.68C3139.81 819 3142.1 816.62 3143.78 813.54C3145.55 810.367 3146.44 806.633 3146.44 802.34C3146.44 797.953 3145.55 794.22 3143.78 791.14C3142.1 788.06 3139.81 785.68 3136.92 784C3134.02 782.32 3130.8 781.48 3127.26 781.48C3123.62 781.48 3120.35 782.32 3117.46 784C3114.56 785.68 3112.23 788.06 3110.46 791.14C3108.78 794.22 3107.94 797.953 3107.94 802.34C3107.94 806.633 3108.78 810.367 3110.46 813.54C3112.23 816.62 3114.56 819 3117.46 820.68C3120.35 822.36 3123.62 823.2 3127.26 823.2ZM3146.02 867.16V824.74L3147.42 802.48L3147 780.08V764.68H3167.86V867.16H3146.02ZM3219.86 841.12C3213.6 841.12 3208 839.907 3203.06 837.48C3198.2 835.053 3194.42 831.367 3191.72 826.42C3189.01 821.38 3187.66 814.987 3187.66 807.24V764.68H3209.5V804.02C3209.5 810.273 3210.8 814.893 3213.42 817.88C3216.12 820.773 3219.9 822.22 3224.76 822.22C3228.12 822.22 3231.1 821.52 3233.72 820.12C3236.33 818.627 3238.38 816.387 3239.88 813.4C3241.37 810.32 3242.12 806.493 3242.12 801.92V764.68H3263.96V840H3243.24V819.28L3247.02 825.3C3244.5 830.527 3240.76 834.493 3235.82 837.2C3230.96 839.813 3225.64 841.12 3219.86 841.12ZM3284.19 840V764.68H3306.03V840H3284.19ZM3295.11 754.18C3291.1 754.18 3287.83 753.013 3285.31 750.68C3282.79 748.347 3281.53 745.453 3281.53 742C3281.53 738.547 3282.79 735.653 3285.31 733.32C3287.83 730.987 3291.1 729.82 3295.11 729.82C3299.12 729.82 3302.39 730.94 3304.91 733.18C3307.43 735.327 3308.69 738.127 3308.69 741.58C3308.69 745.22 3307.43 748.253 3304.91 750.68C3302.48 753.013 3299.22 754.18 3295.11 754.18ZM3351.64 841.12C3345.2 841.12 3338.99 840.373 3333.02 838.88C3327.14 837.293 3322.47 835.333 3319.02 833L3326.3 817.32C3329.75 819.467 3333.81 821.24 3338.48 822.64C3343.24 823.947 3347.91 824.6 3352.48 824.6C3357.52 824.6 3361.07 823.993 3363.12 822.78C3365.27 821.567 3366.34 819.887 3366.34 817.74C3366.34 815.967 3365.5 814.66 3363.82 813.82C3362.23 812.887 3360.09 812.187 3357.38 811.72C3354.67 811.253 3351.69 810.787 3348.42 810.32C3345.25 809.853 3342.03 809.247 3338.76 808.5C3335.49 807.66 3332.51 806.447 3329.8 804.86C3327.09 803.273 3324.9 801.127 3323.22 798.42C3321.63 795.713 3320.84 792.213 3320.84 787.92C3320.84 783.16 3322.19 778.96 3324.9 775.32C3327.7 771.68 3331.71 768.833 3336.94 766.78C3342.17 764.633 3348.42 763.56 3355.7 763.56C3360.83 763.56 3366.06 764.12 3371.38 765.24C3376.7 766.36 3381.13 767.993 3384.68 770.14L3377.4 785.68C3373.76 783.533 3370.07 782.087 3366.34 781.34C3362.7 780.5 3359.15 780.08 3355.7 780.08C3350.85 780.08 3347.3 780.733 3345.06 782.04C3342.82 783.347 3341.7 785.027 3341.7 787.08C3341.7 788.947 3342.49 790.347 3344.08 791.28C3345.76 792.213 3347.95 792.96 3350.66 793.52C3353.37 794.08 3356.31 794.593 3359.48 795.06C3362.75 795.433 3366.01 796.04 3369.28 796.88C3372.55 797.72 3375.49 798.933 3378.1 800.52C3380.81 802.013 3383 804.113 3384.68 806.82C3386.36 809.433 3387.2 812.887 3387.2 817.18C3387.2 821.847 3385.8 826 3383 829.64C3380.2 833.187 3376.14 835.987 3370.82 838.04C3365.59 840.093 3359.2 841.12 3351.64 841.12ZM3446.87 840V825.3L3445.47 822.08V795.76C3445.47 791.093 3444.03 787.453 3441.13 784.84C3438.33 782.227 3433.99 780.92 3428.11 780.92C3424.1 780.92 3420.13 781.573 3416.21 782.88C3412.39 784.093 3409.12 785.773 3406.41 787.92L3398.57 772.66C3402.68 769.767 3407.63 767.527 3413.41 765.94C3419.2 764.353 3425.08 763.56 3431.05 763.56C3442.53 763.56 3451.45 766.267 3457.79 771.68C3464.14 777.093 3467.31 785.54 3467.31 797.02V840H3446.87ZM3423.91 841.12C3418.03 841.12 3412.99 840.14 3408.79 838.18C3404.59 836.127 3401.37 833.373 3399.13 829.92C3396.89 826.467 3395.77 822.593 3395.77 818.3C3395.77 813.82 3396.85 809.9 3398.99 806.54C3401.23 803.18 3404.73 800.567 3409.49 798.7C3414.25 796.74 3420.46 795.76 3428.11 795.76H3448.13V808.5H3430.49C3425.36 808.5 3421.81 809.34 3419.85 811.02C3417.99 812.7 3417.05 814.8 3417.05 817.32C3417.05 820.12 3418.13 822.36 3420.27 824.04C3422.51 825.627 3425.55 826.42 3429.37 826.42C3433.01 826.42 3436.28 825.58 3439.17 823.9C3442.07 822.127 3444.17 819.56 3445.47 816.2L3448.83 826.28C3447.25 831.133 3444.35 834.82 3440.15 837.34C3435.95 839.86 3430.54 841.12 3423.91 841.12Z" fill="#DDDDDD"/>
<path d="M725 974.72C720.92 974.72 717.35 973.82 714.29 972.02C711.23 970.22 708.83 967.49 707.09 963.83C705.41 960.11 704.57 955.43 704.57 949.79C704.57 944.09 705.38 939.41 707 935.75C708.62 932.09 710.96 929.36 714.02 927.56C717.08 925.76 720.74 924.86 725 924.86C729.56 924.86 733.64 925.91 737.24 928.01C740.9 930.05 743.78 932.93 745.88 936.65C748.04 940.37 749.12 944.75 749.12 949.79C749.12 954.89 748.04 959.3 745.88 963.02C743.78 966.74 740.9 969.62 737.24 971.66C733.64 973.7 729.56 974.72 725 974.72ZM696.38 991.46V925.58H709.79V935.48L709.52 949.88L710.42 964.19V991.46H696.38ZM722.57 963.2C724.91 963.2 726.98 962.66 728.78 961.58C730.64 960.5 732.11 958.97 733.19 956.99C734.33 954.95 734.9 952.55 734.9 949.79C734.9 946.97 734.33 944.57 733.19 942.59C732.11 940.61 730.64 939.08 728.78 938C726.98 936.92 724.91 936.38 722.57 936.38C720.23 936.38 718.13 936.92 716.27 938C714.41 939.08 712.94 940.61 711.86 942.59C710.78 944.57 710.24 946.97 710.24 949.79C710.24 952.55 710.78 954.95 711.86 956.99C712.94 958.97 714.41 960.5 716.27 961.58C718.13 962.66 720.23 963.2 722.57 963.2ZM787.428 974V964.55L786.528 962.48V945.56C786.528 942.56 785.598 940.22 783.738 938.54C781.938 936.86 779.148 936.02 775.368 936.02C772.788 936.02 770.238 936.44 767.718 937.28C765.258 938.06 763.158 939.14 761.418 940.52L756.378 930.71C759.018 928.85 762.198 927.41 765.918 926.39C769.638 925.37 773.418 924.86 777.258 924.86C784.638 924.86 790.368 926.6 794.448 930.08C798.528 933.56 800.568 938.99 800.568 946.37V974H787.428ZM772.668 974.72C768.888 974.72 765.648 974.09 762.948 972.83C760.248 971.51 758.178 969.74 756.738 967.52C755.298 965.3 754.578 962.81 754.578 960.05C754.578 957.17 755.268 954.65 756.648 952.49C758.088 950.33 760.338 948.65 763.398 947.45C766.458 946.19 770.448 945.56 775.368 945.56H788.238V953.75H776.898C773.598 953.75 771.318 954.29 770.058 955.37C768.858 956.45 768.258 957.8 768.258 959.42C768.258 961.22 768.948 962.66 770.328 963.74C771.768 964.76 773.718 965.27 776.178 965.27C778.518 965.27 780.618 964.73 782.478 963.65C784.338 962.51 785.688 960.86 786.528 958.7L788.688 965.18C787.668 968.3 785.808 970.67 783.108 972.29C780.408 973.91 776.928 974.72 772.668 974.72ZM813.275 974V925.58H826.685V939.26L824.795 935.3C826.235 931.88 828.545 929.3 831.725 927.56C834.905 925.76 838.775 924.86 843.335 924.86V937.82C842.735 937.76 842.195 937.73 841.715 937.73C841.235 937.67 840.725 937.64 840.185 937.64C836.345 937.64 833.225 938.75 830.825 940.97C828.485 943.13 827.315 946.52 827.315 951.14V974H813.275ZM878.219 974V964.55L877.319 962.48V945.56C877.319 942.56 876.389 940.22 874.529 938.54C872.729 936.86 869.939 936.02 866.159 936.02C863.579 936.02 861.029 936.44 858.509 937.28C856.049 938.06 853.949 939.14 852.209 940.52L847.169 930.71C849.809 928.85 852.989 927.41 856.709 926.39C860.429 925.37 864.209 924.86 868.049 924.86C875.429 924.86 881.159 926.6 885.239 930.08C889.319 933.56 891.359 938.99 891.359 946.37V974H878.219ZM863.459 974.72C859.679 974.72 856.439 974.09 853.739 972.83C851.039 971.51 848.969 969.74 847.529 967.52C846.089 965.3 845.369 962.81 845.369 960.05C845.369 957.17 846.059 954.65 847.439 952.49C848.879 950.33 851.129 948.65 854.189 947.45C857.249 946.19 861.239 945.56 866.159 945.56H879.029V953.75H867.689C864.389 953.75 862.109 954.29 860.849 955.37C859.649 956.45 859.049 957.8 859.049 959.42C859.049 961.22 859.739 962.66 861.119 963.74C862.559 964.76 864.509 965.27 866.969 965.27C869.309 965.27 871.409 964.73 873.269 963.65C875.129 962.51 876.479 960.86 877.319 958.7L879.479 965.18C878.459 968.3 876.599 970.67 873.899 972.29C871.199 973.91 867.719 974.72 863.459 974.72ZM931.264 974V924.5C931.264 919.04 932.884 914.69 936.124 911.45C939.364 908.15 943.984 906.5 949.984 906.5C952.024 906.5 953.974 906.71 955.834 907.13C957.754 907.55 959.374 908.21 960.694 909.11L957.004 919.28C956.224 918.74 955.354 918.32 954.394 918.02C953.434 917.72 952.414 917.57 951.334 917.57C949.294 917.57 947.704 918.17 946.564 919.37C945.484 920.51 944.944 922.25 944.944 924.59V929.09L945.304 935.12V974H931.264ZM923.794 937.46V926.66H957.364V937.46H923.794ZM993.18 974V964.55L992.28 962.48V945.56C992.28 942.56 991.35 940.22 989.49 938.54C987.69 936.86 984.9 936.02 981.12 936.02C978.54 936.02 975.99 936.44 973.47 937.28C971.01 938.06 968.91 939.14 967.17 940.52L962.13 930.71C964.77 928.85 967.95 927.41 971.67 926.39C975.39 925.37 979.17 924.86 983.01 924.86C990.39 924.86 996.12 926.6 1000.2 930.08C1004.28 933.56 1006.32 938.99 1006.32 946.37V974H993.18ZM978.42 974.72C974.64 974.72 971.4 974.09 968.7 972.83C966 971.51 963.93 969.74 962.49 967.52C961.05 965.3 960.33 962.81 960.33 960.05C960.33 957.17 961.02 954.65 962.4 952.49C963.84 950.33 966.09 948.65 969.15 947.45C972.21 946.19 976.2 945.56 981.12 945.56H993.99V953.75H982.65C979.35 953.75 977.07 954.29 975.81 955.37C974.61 956.45 974.01 957.8 974.01 959.42C974.01 961.22 974.7 962.66 976.08 963.74C977.52 964.76 979.47 965.27 981.93 965.27C984.27 965.27 986.37 964.73 988.23 963.65C990.09 962.51 991.44 960.86 992.28 958.7L994.44 965.18C993.42 968.3 991.56 970.67 988.86 972.29C986.16 973.91 982.68 974.72 978.42 974.72ZM1042.78 974.72C1037.56 974.72 1032.91 973.67 1028.83 971.57C1024.75 969.41 1021.54 966.44 1019.2 962.66C1016.92 958.88 1015.78 954.59 1015.78 949.79C1015.78 944.93 1016.92 940.64 1019.2 936.92C1021.54 933.14 1024.75 930.2 1028.83 928.1C1032.91 925.94 1037.56 924.86 1042.78 924.86C1047.88 924.86 1052.32 925.94 1056.1 928.1C1059.88 930.2 1062.67 933.23 1064.47 937.19L1053.58 943.04C1052.32 940.76 1050.73 939.08 1048.81 938C1046.95 936.92 1044.91 936.38 1042.69 936.38C1040.29 936.38 1038.13 936.92 1036.21 938C1034.29 939.08 1032.76 940.61 1031.62 942.59C1030.54 944.57 1030 946.97 1030 949.79C1030 952.61 1030.54 955.01 1031.62 956.99C1032.76 958.97 1034.29 960.5 1036.21 961.58C1038.13 962.66 1040.29 963.2 1042.69 963.2C1044.91 963.2 1046.95 962.69 1048.81 961.67C1050.73 960.59 1052.32 958.88 1053.58 956.54L1064.47 962.48C1062.67 966.38 1059.88 969.41 1056.1 971.57C1052.32 973.67 1047.88 974.72 1042.78 974.72ZM1072.29 974V925.58H1086.33V974H1072.29ZM1079.31 918.83C1076.73 918.83 1074.63 918.08 1073.01 916.58C1071.39 915.08 1070.58 913.22 1070.58 911C1070.58 908.78 1071.39 906.92 1073.01 905.42C1074.63 903.92 1076.73 903.17 1079.31 903.17C1081.89 903.17 1083.99 903.89 1085.61 905.33C1087.23 906.71 1088.04 908.51 1088.04 910.73C1088.04 913.07 1087.23 915.02 1085.61 916.58C1084.05 918.08 1081.95 918.83 1079.31 918.83ZM1099.36 974V907.22H1113.4V974H1099.36ZM1126.43 974V925.58H1140.47V974H1126.43ZM1133.45 918.83C1130.87 918.83 1128.77 918.08 1127.15 916.58C1125.53 915.08 1124.72 913.22 1124.72 911C1124.72 908.78 1125.53 906.92 1127.15 905.42C1128.77 903.92 1130.87 903.17 1133.45 903.17C1136.03 903.17 1138.13 903.89 1139.75 905.33C1141.37 906.71 1142.18 908.51 1142.18 910.73C1142.18 913.07 1141.37 915.02 1139.75 916.58C1138.19 918.08 1136.09 918.83 1133.45 918.83ZM1173.3 974.72C1167.6 974.72 1163.16 973.28 1159.98 970.4C1156.8 967.46 1155.21 963.11 1155.21 957.35V914.87H1169.25V957.17C1169.25 959.21 1169.79 960.8 1170.87 961.94C1171.95 963.02 1173.42 963.56 1175.28 963.56C1177.5 963.56 1179.39 962.96 1180.95 961.76L1184.73 971.66C1183.29 972.68 1181.55 973.46 1179.51 974C1177.53 974.48 1175.46 974.72 1173.3 974.72ZM1147.74 937.46V926.66H1181.31V937.46H1147.74ZM1222.31 974V964.55L1221.41 962.48V945.56C1221.41 942.56 1220.48 940.22 1218.62 938.54C1216.82 936.86 1214.03 936.02 1210.25 936.02C1207.67 936.02 1205.12 936.44 1202.6 937.28C1200.14 938.06 1198.04 939.14 1196.3 940.52L1191.26 930.71C1193.9 928.85 1197.08 927.41 1200.8 926.39C1204.52 925.37 1208.3 924.86 1212.14 924.86C1219.52 924.86 1225.25 926.6 1229.33 930.08C1233.41 933.56 1235.45 938.99 1235.45 946.37V974H1222.31ZM1207.55 974.72C1203.77 974.72 1200.53 974.09 1197.83 972.83C1195.13 971.51 1193.06 969.74 1191.62 967.52C1190.18 965.3 1189.46 962.81 1189.46 960.05C1189.46 957.17 1190.15 954.65 1191.53 952.49C1192.97 950.33 1195.22 948.65 1198.28 947.45C1201.34 946.19 1205.33 945.56 1210.25 945.56H1223.12V953.75H1211.78C1208.48 953.75 1206.2 954.29 1204.94 955.37C1203.74 956.45 1203.14 957.8 1203.14 959.42C1203.14 961.22 1203.83 962.66 1205.21 963.74C1206.65 964.76 1208.6 965.27 1211.06 965.27C1213.4 965.27 1215.5 964.73 1217.36 963.65C1219.22 962.51 1220.57 960.86 1221.41 958.7L1223.57 965.18C1222.55 968.3 1220.69 970.67 1217.99 972.29C1215.29 973.91 1211.81 974.72 1207.55 974.72ZM1248.16 974V925.58H1261.57V939.26L1259.68 935.3C1261.12 931.88 1263.43 929.3 1266.61 927.56C1269.79 925.76 1273.66 924.86 1278.22 924.86V937.82C1277.62 937.76 1277.08 937.73 1276.6 937.73C1276.12 937.67 1275.61 937.64 1275.07 937.64C1271.23 937.64 1268.11 938.75 1265.71 940.97C1263.37 943.13 1262.2 946.52 1262.2 951.14V974H1248.16ZM1341.03 974.72C1336.95 974.72 1333.38 973.82 1330.32 972.02C1327.26 970.22 1324.86 967.49 1323.12 963.83C1321.44 960.11 1320.6 955.43 1320.6 949.79C1320.6 944.09 1321.41 939.41 1323.03 935.75C1324.65 932.09 1326.99 929.36 1330.05 927.56C1333.11 925.76 1336.77 924.86 1341.03 924.86C1345.59 924.86 1349.67 925.91 1353.27 928.01C1356.93 930.05 1359.81 932.93 1361.91 936.65C1364.07 940.37 1365.15 944.75 1365.15 949.79C1365.15 954.89 1364.07 959.3 1361.91 963.02C1359.81 966.74 1356.93 969.62 1353.27 971.66C1349.67 973.7 1345.59 974.72 1341.03 974.72ZM1312.41 991.46V925.58H1325.82V935.48L1325.55 949.88L1326.45 964.19V991.46H1312.41ZM1338.6 963.2C1340.94 963.2 1343.01 962.66 1344.81 961.58C1346.67 960.5 1348.14 958.97 1349.22 956.99C1350.36 954.95 1350.93 952.55 1350.93 949.79C1350.93 946.97 1350.36 944.57 1349.22 942.59C1348.14 940.61 1346.67 939.08 1344.81 938C1343.01 936.92 1340.94 936.38 1338.6 936.38C1336.26 936.38 1334.16 936.92 1332.3 938C1330.44 939.08 1328.97 940.61 1327.89 942.59C1326.81 944.57 1326.27 946.97 1326.27 949.79C1326.27 952.55 1326.81 954.95 1327.89 956.99C1328.97 958.97 1330.44 960.5 1332.3 961.58C1334.16 962.66 1336.26 963.2 1338.6 963.2ZM1374.54 974V925.58H1387.95V939.26L1386.06 935.3C1387.5 931.88 1389.81 929.3 1392.99 927.56C1396.17 925.76 1400.04 924.86 1404.6 924.86V937.82C1404 937.76 1403.46 937.73 1402.98 937.73C1402.5 937.67 1401.99 937.64 1401.45 937.64C1397.61 937.64 1394.49 938.75 1392.09 940.97C1389.75 943.13 1388.58 946.52 1388.58 951.14V974H1374.54ZM1435.64 974.72C1430.48 974.72 1425.89 973.64 1421.87 971.48C1417.91 969.32 1414.76 966.38 1412.42 962.66C1410.14 958.88 1409 954.59 1409 949.79C1409 944.93 1410.14 940.64 1412.42 936.92C1414.76 933.14 1417.91 930.2 1421.87 928.1C1425.89 925.94 1430.48 924.86 1435.64 924.86C1440.74 924.86 1445.3 925.94 1449.32 928.1C1453.34 930.2 1456.49 933.11 1458.77 936.83C1461.05 940.55 1462.19 944.87 1462.19 949.79C1462.19 954.59 1461.05 958.88 1458.77 962.66C1456.49 966.38 1453.34 969.32 1449.32 971.48C1445.3 973.64 1440.74 974.72 1435.64 974.72ZM1435.64 963.2C1437.98 963.2 1440.08 962.66 1441.94 961.58C1443.8 960.5 1445.27 958.97 1446.35 956.99C1447.43 954.95 1447.97 952.55 1447.97 949.79C1447.97 946.97 1447.43 944.57 1446.35 942.59C1445.27 940.61 1443.8 939.08 1441.94 938C1440.08 936.92 1437.98 936.38 1435.64 936.38C1433.3 936.38 1431.2 936.92 1429.34 938C1427.48 939.08 1425.98 940.61 1424.84 942.59C1423.76 944.57 1423.22 946.97 1423.22 949.79C1423.22 952.55 1423.76 954.95 1424.84 956.99C1425.98 958.97 1427.48 960.5 1429.34 961.58C1431.2 962.66 1433.3 963.2 1435.64 963.2ZM1494.98 974.72C1489.76 974.72 1485.11 973.67 1481.03 971.57C1476.95 969.41 1473.74 966.44 1471.4 962.66C1469.12 958.88 1467.98 954.59 1467.98 949.79C1467.98 944.93 1469.12 940.64 1471.4 936.92C1473.74 933.14 1476.95 930.2 1481.03 928.1C1485.11 925.94 1489.76 924.86 1494.98 924.86C1500.08 924.86 1504.52 925.94 1508.3 928.1C1512.08 930.2 1514.87 933.23 1516.67 937.19L1505.78 943.04C1504.52 940.76 1502.93 939.08 1501.01 938C1499.15 936.92 1497.11 936.38 1494.89 936.38C1492.49 936.38 1490.33 936.92 1488.41 938C1486.49 939.08 1484.96 940.61 1483.82 942.59C1482.74 944.57 1482.2 946.97 1482.2 949.79C1482.2 952.61 1482.74 955.01 1483.82 956.99C1484.96 958.97 1486.49 960.5 1488.41 961.58C1490.33 962.66 1492.49 963.2 1494.89 963.2C1497.11 963.2 1499.15 962.69 1501.01 961.67C1502.93 960.59 1504.52 958.88 1505.78 956.54L1516.67 962.48C1514.87 966.38 1512.08 969.41 1508.3 971.57C1504.52 973.67 1500.08 974.72 1494.98 974.72ZM1548.16 974.72C1542.64 974.72 1537.78 973.64 1533.58 971.48C1529.44 969.32 1526.23 966.38 1523.95 962.66C1521.67 958.88 1520.53 954.59 1520.53 949.79C1520.53 944.93 1521.64 940.64 1523.86 936.92C1526.14 933.14 1529.23 930.2 1533.13 928.1C1537.03 925.94 1541.44 924.86 1546.36 924.86C1551.1 924.86 1555.36 925.88 1559.14 927.92C1562.98 929.9 1566.01 932.78 1568.23 936.56C1570.45 940.28 1571.56 944.75 1571.56 949.97C1571.56 950.51 1571.53 951.14 1571.47 951.86C1571.41 952.52 1571.35 953.15 1571.29 953.75H1531.96V945.56H1563.91L1558.51 947.99C1558.51 945.47 1558 943.28 1556.98 941.42C1555.96 939.56 1554.55 938.12 1552.75 937.1C1550.95 936.02 1548.85 935.48 1546.45 935.48C1544.05 935.48 1541.92 936.02 1540.06 937.1C1538.26 938.12 1536.85 939.59 1535.83 941.51C1534.81 943.37 1534.3 945.59 1534.3 948.17V950.33C1534.3 952.97 1534.87 955.31 1536.01 957.35C1537.21 959.33 1538.86 960.86 1540.96 961.94C1543.12 962.96 1545.64 963.47 1548.52 963.47C1551.1 963.47 1553.35 963.08 1555.27 962.3C1557.25 961.52 1559.05 960.35 1560.67 958.79L1568.14 966.89C1565.92 969.41 1563.13 971.36 1559.77 972.74C1556.41 974.06 1552.54 974.72 1548.16 974.72ZM1597.2 974.72C1593.06 974.72 1589.07 974.24 1585.23 973.28C1581.45 972.26 1578.45 971 1576.23 969.5L1580.91 959.42C1583.13 960.8 1585.74 961.94 1588.74 962.84C1591.8 963.68 1594.8 964.1 1597.74 964.1C1600.98 964.1 1603.26 963.71 1604.58 962.93C1605.96 962.15 1606.65 961.07 1606.65 959.69C1606.65 958.55 1606.11 957.71 1605.03 957.17C1604.01 956.57 1602.63 956.12 1600.89 955.82C1599.15 955.52 1597.23 955.22 1595.13 954.92C1593.09 954.62 1591.02 954.23 1588.92 953.75C1586.82 953.21 1584.9 952.43 1583.16 951.41C1581.42 950.39 1580.01 949.01 1578.93 947.27C1577.91 945.53 1577.4 943.28 1577.4 940.52C1577.4 937.46 1578.27 934.76 1580.01 932.42C1581.81 930.08 1584.39 928.25 1587.75 926.93C1591.11 925.55 1595.13 924.86 1599.81 924.86C1603.11 924.86 1606.47 925.22 1609.89 925.94C1613.31 926.66 1616.16 927.71 1618.44 929.09L1613.76 939.08C1611.42 937.7 1609.05 936.77 1606.65 936.29C1604.31 935.75 1602.03 935.48 1599.81 935.48C1596.69 935.48 1594.41 935.9 1592.97 936.74C1591.53 937.58 1590.81 938.66 1590.81 939.98C1590.81 941.18 1591.32 942.08 1592.34 942.68C1593.42 943.28 1594.83 943.76 1596.57 944.12C1598.31 944.48 1600.2 944.81 1602.24 945.11C1604.34 945.35 1606.44 945.74 1608.54 946.28C1610.64 946.82 1612.53 947.6 1614.21 948.62C1615.95 949.58 1617.36 950.93 1618.44 952.67C1619.52 954.35 1620.06 956.57 1620.06 959.33C1620.06 962.33 1619.16 965 1617.36 967.34C1615.56 969.62 1612.95 971.42 1609.53 972.74C1606.17 974.06 1602.06 974.72 1597.2 974.72ZM1645.01 974.72C1640.87 974.72 1636.88 974.24 1633.04 973.28C1629.26 972.26 1626.26 971 1624.04 969.5L1628.72 959.42C1630.94 960.8 1633.55 961.94 1636.55 962.84C1639.61 963.68 1642.61 964.1 1645.55 964.1C1648.79 964.1 1651.07 963.71 1652.39 962.93C1653.77 962.15 1654.46 961.07 1654.46 959.69C1654.46 958.55 1653.92 957.71 1652.84 957.17C1651.82 956.57 1650.44 956.12 1648.7 955.82C1646.96 955.52 1645.04 955.22 1642.94 954.92C1640.9 954.62 1638.83 954.23 1636.73 953.75C1634.63 953.21 1632.71 952.43 1630.97 951.41C1629.23 950.39 1627.82 949.01 1626.74 947.27C1625.72 945.53 1625.21 943.28 1625.21 940.52C1625.21 937.46 1626.08 934.76 1627.82 932.42C1629.62 930.08 1632.2 928.25 1635.56 926.93C1638.92 925.55 1642.94 924.86 1647.62 924.86C1650.92 924.86 1654.28 925.22 1657.7 925.94C1661.12 926.66 1663.97 927.71 1666.25 929.09L1661.57 939.08C1659.23 937.7 1656.86 936.77 1654.46 936.29C1652.12 935.75 1649.84 935.48 1647.62 935.48C1644.5 935.48 1642.22 935.9 1640.78 936.74C1639.34 937.58 1638.62 938.66 1638.62 939.98C1638.62 941.18 1639.13 942.08 1640.15 942.68C1641.23 943.28 1642.64 943.76 1644.38 944.12C1646.12 944.48 1648.01 944.81 1650.05 945.11C1652.15 945.35 1654.25 945.74 1656.35 946.28C1658.45 946.82 1660.34 947.6 1662.02 948.62C1663.76 949.58 1665.17 950.93 1666.25 952.67C1667.33 954.35 1667.87 956.57 1667.87 959.33C1667.87 962.33 1666.97 965 1665.17 967.34C1663.37 969.62 1660.76 971.42 1657.34 972.74C1653.98 974.06 1649.87 974.72 1645.01 974.72ZM1699.58 974.72C1694.42 974.72 1689.83 973.64 1685.81 971.48C1681.85 969.32 1678.7 966.38 1676.36 962.66C1674.08 958.88 1672.94 954.59 1672.94 949.79C1672.94 944.93 1674.08 940.64 1676.36 936.92C1678.7 933.14 1681.85 930.2 1685.81 928.1C1689.83 925.94 1694.42 924.86 1699.58 924.86C1704.68 924.86 1709.24 925.94 1713.26 928.1C1717.28 930.2 1720.43 933.11 1722.71 936.83C1724.99 940.55 1726.13 944.87 1726.13 949.79C1726.13 954.59 1724.99 958.88 1722.71 962.66C1720.43 966.38 1717.28 969.32 1713.26 971.48C1709.24 973.64 1704.68 974.72 1699.58 974.72ZM1699.58 963.2C1701.92 963.2 1704.02 962.66 1705.88 961.58C1707.74 960.5 1709.21 958.97 1710.29 956.99C1711.37 954.95 1711.91 952.55 1711.91 949.79C1711.91 946.97 1711.37 944.57 1710.29 942.59C1709.21 940.61 1707.74 939.08 1705.88 938C1704.02 936.92 1701.92 936.38 1699.58 936.38C1697.24 936.38 1695.14 936.92 1693.28 938C1691.42 939.08 1689.92 940.61 1688.78 942.59C1687.7 944.57 1687.16 946.97 1687.16 949.79C1687.16 952.55 1687.7 954.95 1688.78 956.99C1689.92 958.97 1691.42 960.5 1693.28 961.58C1695.14 962.66 1697.24 963.2 1699.58 963.2ZM1751.8 974.72C1747.66 974.72 1743.67 974.24 1739.83 973.28C1736.05 972.26 1733.05 971 1730.83 969.5L1735.51 959.42C1737.73 960.8 1740.34 961.94 1743.34 962.84C1746.4 963.68 1749.4 964.1 1752.34 964.1C1755.58 964.1 1757.86 963.71 1759.18 962.93C1760.56 962.15 1761.25 961.07 1761.25 959.69C1761.25 958.55 1760.71 957.71 1759.63 957.17C1758.61 956.57 1757.23 956.12 1755.49 955.82C1753.75 955.52 1751.83 955.22 1749.73 954.92C1747.69 954.62 1745.62 954.23 1743.52 953.75C1741.42 953.21 1739.5 952.43 1737.76 951.41C1736.02 950.39 1734.61 949.01 1733.53 947.27C1732.51 945.53 1732 943.28 1732 940.52C1732 937.46 1732.87 934.76 1734.61 932.42C1736.41 930.08 1738.99 928.25 1742.35 926.93C1745.71 925.55 1749.73 924.86 1754.41 924.86C1757.71 924.86 1761.07 925.22 1764.49 925.94C1767.91 926.66 1770.76 927.71 1773.04 929.09L1768.36 939.08C1766.02 937.7 1763.65 936.77 1761.25 936.29C1758.91 935.75 1756.63 935.48 1754.41 935.48C1751.29 935.48 1749.01 935.9 1747.57 936.74C1746.13 937.58 1745.41 938.66 1745.41 939.98C1745.41 941.18 1745.92 942.08 1746.94 942.68C1748.02 943.28 1749.43 943.76 1751.17 944.12C1752.91 944.48 1754.8 944.81 1756.84 945.11C1758.94 945.35 1761.04 945.74 1763.14 946.28C1765.24 946.82 1767.13 947.6 1768.81 948.62C1770.55 949.58 1771.96 950.93 1773.04 952.67C1774.12 954.35 1774.66 956.57 1774.66 959.33C1774.66 962.33 1773.76 965 1771.96 967.34C1770.16 969.62 1767.55 971.42 1764.13 972.74C1760.77 974.06 1756.66 974.72 1751.8 974.72ZM1832.84 974.72C1827.32 974.72 1822.46 973.64 1818.26 971.48C1814.12 969.32 1810.91 966.38 1808.63 962.66C1806.35 958.88 1805.21 954.59 1805.21 949.79C1805.21 944.93 1806.32 940.64 1808.54 936.92C1810.82 933.14 1813.91 930.2 1817.81 928.1C1821.71 925.94 1826.12 924.86 1831.04 924.86C1835.78 924.86 1840.04 925.88 1843.82 927.92C1847.66 929.9 1850.69 932.78 1852.91 936.56C1855.13 940.28 1856.24 944.75 1856.24 949.97C1856.24 950.51 1856.21 951.14 1856.15 951.86C1856.09 952.52 1856.03 953.15 1855.97 953.75H1816.64V945.56H1848.59L1843.19 947.99C1843.19 945.47 1842.68 943.28 1841.66 941.42C1840.64 939.56 1839.23 938.12 1837.43 937.1C1835.63 936.02 1833.53 935.48 1831.13 935.48C1828.73 935.48 1826.6 936.02 1824.74 937.1C1822.94 938.12 1821.53 939.59 1820.51 941.51C1819.49 943.37 1818.98 945.59 1818.98 948.17V950.33C1818.98 952.97 1819.55 955.31 1820.69 957.35C1821.89 959.33 1823.54 960.86 1825.64 961.94C1827.8 962.96 1830.32 963.47 1833.2 963.47C1835.78 963.47 1838.03 963.08 1839.95 962.3C1841.93 961.52 1843.73 960.35 1845.35 958.79L1852.82 966.89C1850.6 969.41 1847.81 971.36 1844.45 972.74C1841.09 974.06 1837.22 974.72 1832.84 974.72ZM1914.12 974.72C1908.96 974.72 1904.37 973.64 1900.35 971.48C1896.39 969.32 1893.24 966.38 1890.9 962.66C1888.62 958.88 1887.48 954.59 1887.48 949.79C1887.48 944.93 1888.62 940.64 1890.9 936.92C1893.24 933.14 1896.39 930.2 1900.35 928.1C1904.37 925.94 1908.96 924.86 1914.12 924.86C1919.22 924.86 1923.78 925.94 1927.8 928.1C1931.82 930.2 1934.97 933.11 1937.25 936.83C1939.53 940.55 1940.67 944.87 1940.67 949.79C1940.67 954.59 1939.53 958.88 1937.25 962.66C1934.97 966.38 1931.82 969.32 1927.8 971.48C1923.78 973.64 1919.22 974.72 1914.12 974.72ZM1914.12 963.2C1916.46 963.2 1918.56 962.66 1920.42 961.58C1922.28 960.5 1923.75 958.97 1924.83 956.99C1925.91 954.95 1926.45 952.55 1926.45 949.79C1926.45 946.97 1925.91 944.57 1924.83 942.59C1923.75 940.61 1922.28 939.08 1920.42 938C1918.56 936.92 1916.46 936.38 1914.12 936.38C1911.78 936.38 1909.68 936.92 1907.82 938C1905.96 939.08 1904.46 940.61 1903.32 942.59C1902.24 944.57 1901.7 946.97 1901.7 949.79C1901.7 952.55 1902.24 954.95 1903.32 956.99C1904.46 958.97 1905.96 960.5 1907.82 961.58C1909.68 962.66 1911.78 963.2 1914.12 963.2ZM1995.34 974.72C1989.64 974.72 1985.2 973.28 1982.02 970.4C1978.84 967.46 1977.25 963.11 1977.25 957.35V914.87H1991.29V957.17C1991.29 959.21 1991.83 960.8 1992.91 961.94C1993.99 963.02 1995.46 963.56 1997.32 963.56C1999.54 963.56 2001.43 962.96 2002.99 961.76L2006.77 971.66C2005.33 972.68 2003.59 973.46 2001.55 974C1999.57 974.48 1997.5 974.72 1995.34 974.72ZM1969.78 937.46V926.66H2003.35V937.46H1969.78ZM2014.65 974V925.58H2028.06V939.26L2026.17 935.3C2027.61 931.88 2029.92 929.3 2033.1 927.56C2036.28 925.76 2040.15 924.86 2044.71 924.86V937.82C2044.11 937.76 2043.57 937.73 2043.09 937.73C2042.61 937.67 2042.1 937.64 2041.56 937.64C2037.72 937.64 2034.6 938.75 2032.2 940.97C2029.86 943.13 2028.69 946.52 2028.69 951.14V974H2014.65ZM2079.6 974V964.55L2078.7 962.48V945.56C2078.7 942.56 2077.77 940.22 2075.91 938.54C2074.11 936.86 2071.32 936.02 2067.54 936.02C2064.96 936.02 2062.41 936.44 2059.89 937.28C2057.43 938.06 2055.33 939.14 2053.59 940.52L2048.55 930.71C2051.19 928.85 2054.37 927.41 2058.09 926.39C2061.81 925.37 2065.59 924.86 2069.43 924.86C2076.81 924.86 2082.54 926.6 2086.62 930.08C2090.7 933.56 2092.74 938.99 2092.74 946.37V974H2079.6ZM2064.84 974.72C2061.06 974.72 2057.82 974.09 2055.12 972.83C2052.42 971.51 2050.35 969.74 2048.91 967.52C2047.47 965.3 2046.75 962.81 2046.75 960.05C2046.75 957.17 2047.44 954.65 2048.82 952.49C2050.26 950.33 2052.51 948.65 2055.57 947.45C2058.63 946.19 2062.62 945.56 2067.54 945.56H2080.41V953.75H2069.07C2065.77 953.75 2063.49 954.29 2062.23 955.37C2061.03 956.45 2060.43 957.8 2060.43 959.42C2060.43 961.22 2061.12 962.66 2062.5 963.74C2063.94 964.76 2065.89 965.27 2068.35 965.27C2070.69 965.27 2072.79 964.73 2074.65 963.65C2076.51 962.51 2077.86 960.86 2078.7 958.7L2080.86 965.18C2079.84 968.3 2077.98 970.67 2075.28 972.29C2072.58 973.91 2069.1 974.72 2064.84 974.72ZM2134.06 974.72C2129.8 974.72 2126.14 973.82 2123.08 972.02C2120.02 970.22 2117.68 967.49 2116.06 963.83C2114.44 960.11 2113.63 955.43 2113.63 949.79C2113.63 944.09 2114.47 939.41 2116.15 935.75C2117.89 932.09 2120.29 929.36 2123.35 927.56C2126.41 925.76 2129.98 924.86 2134.06 924.86C2138.62 924.86 2142.7 925.88 2146.3 927.92C2149.96 929.96 2152.84 932.84 2154.94 936.56C2157.1 940.28 2158.18 944.69 2158.18 949.79C2158.18 954.83 2157.1 959.21 2154.94 962.93C2152.84 966.65 2149.96 969.56 2146.3 971.66C2142.7 973.7 2138.62 974.72 2134.06 974.72ZM2105.44 974V907.22H2119.48V935.39L2118.58 949.7L2118.85 964.1V974H2105.44ZM2131.63 963.2C2133.97 963.2 2136.04 962.66 2137.84 961.58C2139.7 960.5 2141.17 958.97 2142.25 956.99C2143.39 954.95 2143.96 952.55 2143.96 949.79C2143.96 946.97 2143.39 944.57 2142.25 942.59C2141.17 940.61 2139.7 939.08 2137.84 938C2136.04 936.92 2133.97 936.38 2131.63 936.38C2129.29 936.38 2127.19 936.92 2125.33 938C2123.47 939.08 2122 940.61 2120.92 942.59C2119.84 944.57 2119.3 946.97 2119.3 949.79C2119.3 952.55 2119.84 954.95 2120.92 956.99C2122 958.97 2123.47 960.5 2125.33 961.58C2127.19 962.66 2129.29 963.2 2131.63 963.2ZM2196.49 974V964.55L2195.59 962.48V945.56C2195.59 942.56 2194.66 940.22 2192.8 938.54C2191 936.86 2188.21 936.02 2184.43 936.02C2181.85 936.02 2179.3 936.44 2176.78 937.28C2174.32 938.06 2172.22 939.14 2170.48 940.52L2165.44 930.71C2168.08 928.85 2171.26 927.41 2174.98 926.39C2178.7 925.37 2182.48 924.86 2186.32 924.86C2193.7 924.86 2199.43 926.6 2203.51 930.08C2207.59 933.56 2209.63 938.99 2209.63 946.37V974H2196.49ZM2181.73 974.72C2177.95 974.72 2174.71 974.09 2172.01 972.83C2169.31 971.51 2167.24 969.74 2165.8 967.52C2164.36 965.3 2163.64 962.81 2163.64 960.05C2163.64 957.17 2164.33 954.65 2165.71 952.49C2167.15 950.33 2169.4 948.65 2172.46 947.45C2175.52 946.19 2179.51 945.56 2184.43 945.56H2197.3V953.75H2185.96C2182.66 953.75 2180.38 954.29 2179.12 955.37C2177.92 956.45 2177.32 957.8 2177.32 959.42C2177.32 961.22 2178.01 962.66 2179.39 963.74C2180.83 964.76 2182.78 965.27 2185.24 965.27C2187.58 965.27 2189.68 964.73 2191.54 963.65C2193.4 962.51 2194.75 960.86 2195.59 958.7L2197.75 965.18C2196.73 968.3 2194.87 970.67 2192.17 972.29C2189.47 973.91 2185.99 974.72 2181.73 974.72ZM2222.34 974V907.22H2236.38V974H2222.34ZM2278.84 924.86C2282.68 924.86 2286.1 925.64 2289.1 927.2C2292.16 928.7 2294.56 931.04 2296.3 934.22C2298.04 937.34 2298.91 941.36 2298.91 946.28V974H2284.87V948.44C2284.87 944.54 2284 941.66 2282.26 939.8C2280.58 937.94 2278.18 937.01 2275.06 937.01C2272.84 937.01 2270.83 937.49 2269.03 938.45C2267.29 939.35 2265.91 940.76 2264.89 942.68C2263.93 944.6 2263.45 947.06 2263.45 950.06V974H2249.41V907.22H2263.45V938.99L2260.3 934.94C2262.04 931.7 2264.53 929.21 2267.77 927.47C2271.01 925.73 2274.7 924.86 2278.84 924.86ZM2335.03 974.72C2329.87 974.72 2325.28 973.64 2321.26 971.48C2317.3 969.32 2314.15 966.38 2311.81 962.66C2309.53 958.88 2308.39 954.59 2308.39 949.79C2308.39 944.93 2309.53 940.64 2311.81 936.92C2314.15 933.14 2317.3 930.2 2321.26 928.1C2325.28 925.94 2329.87 924.86 2335.03 924.86C2340.13 924.86 2344.69 925.94 2348.71 928.1C2352.73 930.2 2355.88 933.11 2358.16 936.83C2360.44 940.55 2361.58 944.87 2361.58 949.79C2361.58 954.59 2360.44 958.88 2358.16 962.66C2355.88 966.38 2352.73 969.32 2348.71 971.48C2344.69 973.64 2340.13 974.72 2335.03 974.72ZM2335.03 963.2C2337.37 963.2 2339.47 962.66 2341.33 961.58C2343.19 960.5 2344.66 958.97 2345.74 956.99C2346.82 954.95 2347.36 952.55 2347.36 949.79C2347.36 946.97 2346.82 944.57 2345.74 942.59C2344.66 940.61 2343.19 939.08 2341.33 938C2339.47 936.92 2337.37 936.38 2335.03 936.38C2332.69 936.38 2330.59 936.92 2328.73 938C2326.87 939.08 2325.37 940.61 2324.23 942.59C2323.15 944.57 2322.61 946.97 2322.61 949.79C2322.61 952.55 2323.15 954.95 2324.23 956.99C2325.37 958.97 2326.87 960.5 2328.73 961.58C2330.59 962.66 2332.69 963.2 2335.03 963.2ZM2417.24 974.72C2412.68 974.72 2408.57 973.7 2404.91 971.66C2401.25 969.56 2398.34 966.65 2396.18 962.93C2394.08 959.21 2393.03 954.83 2393.03 949.79C2393.03 944.69 2394.08 940.28 2396.18 936.56C2398.34 932.84 2401.25 929.96 2404.91 927.92C2408.57 925.88 2412.68 924.86 2417.24 924.86C2421.32 924.86 2424.89 925.76 2427.95 927.56C2431.01 929.36 2433.38 932.09 2435.06 935.75C2436.74 939.41 2437.58 944.09 2437.58 949.79C2437.58 955.43 2436.77 960.11 2435.15 963.83C2433.53 967.49 2431.19 970.22 2428.13 972.02C2425.13 973.82 2421.5 974.72 2417.24 974.72ZM2419.67 963.2C2421.95 963.2 2424.02 962.66 2425.88 961.58C2427.74 960.5 2429.21 958.97 2430.29 956.99C2431.43 954.95 2432 952.55 2432 949.79C2432 946.97 2431.43 944.57 2430.29 942.59C2429.21 940.61 2427.74 939.08 2425.88 938C2424.02 936.92 2421.95 936.38 2419.67 936.38C2417.33 936.38 2415.23 936.92 2413.37 938C2411.51 939.08 2410.01 940.61 2408.87 942.59C2407.79 944.57 2407.25 946.97 2407.25 949.79C2407.25 952.55 2407.79 954.95 2408.87 956.99C2410.01 958.97 2411.51 960.5 2413.37 961.58C2415.23 962.66 2417.33 963.2 2419.67 963.2ZM2432.36 974V964.1L2432.63 949.7L2431.73 935.39V907.22H2445.77V974H2432.36ZM2482.79 974.72C2477.27 974.72 2472.41 973.64 2468.21 971.48C2464.07 969.32 2460.86 966.38 2458.58 962.66C2456.3 958.88 2455.16 954.59 2455.16 949.79C2455.16 944.93 2456.27 940.64 2458.49 936.92C2460.77 933.14 2463.86 930.2 2467.76 928.1C2471.66 925.94 2476.07 924.86 2480.99 924.86C2485.73 924.86 2489.99 925.88 2493.77 927.92C2497.61 929.9 2500.64 932.78 2502.86 936.56C2505.08 940.28 2506.19 944.75 2506.19 949.97C2506.19 950.51 2506.16 951.14 2506.1 951.86C2506.04 952.52 2505.98 953.15 2505.92 953.75H2466.59V945.56H2498.54L2493.14 947.99C2493.14 945.47 2492.63 943.28 2491.61 941.42C2490.59 939.56 2489.18 938.12 2487.38 937.1C2485.58 936.02 2483.48 935.48 2481.08 935.48C2478.68 935.48 2476.55 936.02 2474.69 937.1C2472.89 938.12 2471.48 939.59 2470.46 941.51C2469.44 943.37 2468.93 945.59 2468.93 948.17V950.33C2468.93 952.97 2469.5 955.31 2470.64 957.35C2471.84 959.33 2473.49 960.86 2475.59 961.94C2477.75 962.96 2480.27 963.47 2483.15 963.47C2485.73 963.47 2487.98 963.08 2489.9 962.3C2491.88 961.52 2493.68 960.35 2495.3 958.79L2502.77 966.89C2500.55 969.41 2497.76 971.36 2494.4 972.74C2491.04 974.06 2487.17 974.72 2482.79 974.72ZM2569.65 974.72C2565.57 974.72 2562 973.82 2558.94 972.02C2555.88 970.22 2553.48 967.49 2551.74 963.83C2550.06 960.11 2549.22 955.43 2549.22 949.79C2549.22 944.09 2550.03 939.41 2551.65 935.75C2553.27 932.09 2555.61 929.36 2558.67 927.56C2561.73 925.76 2565.39 924.86 2569.65 924.86C2574.21 924.86 2578.29 925.91 2581.89 928.01C2585.55 930.05 2588.43 932.93 2590.53 936.65C2592.69 940.37 2593.77 944.75 2593.77 949.79C2593.77 954.89 2592.69 959.3 2590.53 963.02C2588.43 966.74 2585.55 969.62 2581.89 971.66C2578.29 973.7 2574.21 974.72 2569.65 974.72ZM2541.03 991.46V925.58H2554.44V935.48L2554.17 949.88L2555.07 964.19V991.46H2541.03ZM2567.22 963.2C2569.56 963.2 2571.63 962.66 2573.43 961.58C2575.29 960.5 2576.76 958.97 2577.84 956.99C2578.98 954.95 2579.55 952.55 2579.55 949.79C2579.55 946.97 2578.98 944.57 2577.84 942.59C2576.76 940.61 2575.29 939.08 2573.43 938C2571.63 936.92 2569.56 936.38 2567.22 936.38C2564.88 936.38 2562.78 936.92 2560.92 938C2559.06 939.08 2557.59 940.61 2556.51 942.59C2555.43 944.57 2554.89 946.97 2554.89 949.79C2554.89 952.55 2555.43 954.95 2556.51 956.99C2557.59 958.97 2559.06 960.5 2560.92 961.58C2562.78 962.66 2564.88 963.2 2567.22 963.2ZM2627.2 974.72C2621.68 974.72 2616.82 973.64 2612.62 971.48C2608.48 969.32 2605.27 966.38 2602.99 962.66C2600.71 958.88 2599.57 954.59 2599.57 949.79C2599.57 944.93 2600.68 940.64 2602.9 936.92C2605.18 933.14 2608.27 930.2 2612.17 928.1C2616.07 925.94 2620.48 924.86 2625.4 924.86C2630.14 924.86 2634.4 925.88 2638.18 927.92C2642.02 929.9 2645.05 932.78 2647.27 936.56C2649.49 940.28 2650.6 944.75 2650.6 949.97C2650.6 950.51 2650.57 951.14 2650.51 951.86C2650.45 952.52 2650.39 953.15 2650.33 953.75H2611V945.56H2642.95L2637.55 947.99C2637.55 945.47 2637.04 943.28 2636.02 941.42C2635 939.56 2633.59 938.12 2631.79 937.1C2629.99 936.02 2627.89 935.48 2625.49 935.48C2623.09 935.48 2620.96 936.02 2619.1 937.1C2617.3 938.12 2615.89 939.59 2614.87 941.51C2613.85 943.37 2613.34 945.59 2613.34 948.17V950.33C2613.34 952.97 2613.91 955.31 2615.05 957.35C2616.25 959.33 2617.9 960.86 2620 961.94C2622.16 962.96 2624.68 963.47 2627.56 963.47C2630.14 963.47 2632.39 963.08 2634.31 962.3C2636.29 961.52 2638.09 960.35 2639.71 958.79L2647.18 966.89C2644.96 969.41 2642.17 971.36 2638.81 972.74C2635.45 974.06 2631.58 974.72 2627.2 974.72ZM2676.23 974.72C2672.09 974.72 2668.1 974.24 2664.26 973.28C2660.48 972.26 2657.48 971 2655.26 969.5L2659.94 959.42C2662.16 960.8 2664.77 961.94 2667.77 962.84C2670.83 963.68 2673.83 964.1 2676.77 964.1C2680.01 964.1 2682.29 963.71 2683.61 962.93C2684.99 962.15 2685.68 961.07 2685.68 959.69C2685.68 958.55 2685.14 957.71 2684.06 957.17C2683.04 956.57 2681.66 956.12 2679.92 955.82C2678.18 955.52 2676.26 955.22 2674.16 954.92C2672.12 954.62 2670.05 954.23 2667.95 953.75C2665.85 953.21 2663.93 952.43 2662.19 951.41C2660.45 950.39 2659.04 949.01 2657.96 947.27C2656.94 945.53 2656.43 943.28 2656.43 940.52C2656.43 937.46 2657.3 934.76 2659.04 932.42C2660.84 930.08 2663.42 928.25 2666.78 926.93C2670.14 925.55 2674.16 924.86 2678.84 924.86C2682.14 924.86 2685.5 925.22 2688.92 925.94C2692.34 926.66 2695.19 927.71 2697.47 929.09L2692.79 939.08C2690.45 937.7 2688.08 936.77 2685.68 936.29C2683.34 935.75 2681.06 935.48 2678.84 935.48C2675.72 935.48 2673.44 935.9 2672 936.74C2670.56 937.58 2669.84 938.66 2669.84 939.98C2669.84 941.18 2670.35 942.08 2671.37 942.68C2672.45 943.28 2673.86 943.76 2675.6 944.12C2677.34 944.48 2679.23 944.81 2681.27 945.11C2683.37 945.35 2685.47 945.74 2687.57 946.28C2689.67 946.82 2691.56 947.6 2693.24 948.62C2694.98 949.58 2696.39 950.93 2697.47 952.67C2698.55 954.35 2699.09 956.57 2699.09 959.33C2699.09 962.33 2698.19 965 2696.39 967.34C2694.59 969.62 2691.98 971.42 2688.56 972.74C2685.2 974.06 2681.09 974.72 2676.23 974.72ZM2728.37 974.72C2723.81 974.72 2719.7 973.7 2716.04 971.66C2712.38 969.62 2709.47 966.74 2707.31 963.02C2705.21 959.3 2704.16 954.89 2704.16 949.79C2704.16 944.75 2705.21 940.37 2707.31 936.65C2709.47 932.93 2712.38 930.05 2716.04 928.01C2719.7 925.91 2723.81 924.86 2728.37 924.86C2732.63 924.86 2736.26 925.76 2739.26 927.56C2742.32 929.36 2744.66 932.09 2746.28 935.75C2747.9 939.41 2748.71 944.09 2748.71 949.79C2748.71 955.43 2747.87 960.11 2746.19 963.83C2744.51 967.49 2742.14 970.22 2739.08 972.02C2736.02 973.82 2732.45 974.72 2728.37 974.72ZM2730.8 963.2C2733.08 963.2 2735.15 962.66 2737.01 961.58C2738.87 960.5 2740.34 958.97 2741.42 956.99C2742.56 954.95 2743.13 952.55 2743.13 949.79C2743.13 946.97 2742.56 944.57 2741.42 942.59C2740.34 940.61 2738.87 939.08 2737.01 938C2735.15 936.92 2733.08 936.38 2730.8 936.38C2728.46 936.38 2726.36 936.92 2724.5 938C2722.64 939.08 2721.14 940.61 2720 942.59C2718.92 944.57 2718.38 946.97 2718.38 949.79C2718.38 952.55 2718.92 954.95 2720 956.99C2721.14 958.97 2722.64 960.5 2724.5 961.58C2726.36 962.66 2728.46 963.2 2730.8 963.2ZM2742.86 991.46V964.19L2743.76 949.88L2743.49 935.48V925.58H2756.9V991.46H2742.86ZM2790.33 974.72C2786.31 974.72 2782.71 973.94 2779.53 972.38C2776.41 970.82 2773.98 968.45 2772.24 965.27C2770.5 962.03 2769.63 957.92 2769.63 952.94V925.58H2783.67V950.87C2783.67 954.89 2784.51 957.86 2786.19 959.78C2787.93 961.64 2790.36 962.57 2793.48 962.57C2795.64 962.57 2797.56 962.12 2799.24 961.22C2800.92 960.26 2802.24 958.82 2803.2 956.9C2804.16 954.92 2804.64 952.46 2804.64 949.52V925.58H2818.68V974H2805.36V960.68L2807.79 964.55C2806.17 967.91 2803.77 970.46 2800.59 972.2C2797.47 973.88 2794.05 974.72 2790.33 974.72ZM2831.68 974V925.58H2845.72V974H2831.68ZM2838.7 918.83C2836.12 918.83 2834.02 918.08 2832.4 916.58C2830.78 915.08 2829.97 913.22 2829.97 911C2829.97 908.78 2830.78 906.92 2832.4 905.42C2834.02 903.92 2836.12 903.17 2838.7 903.17C2841.28 903.17 2843.38 903.89 2845 905.33C2846.62 906.71 2847.43 908.51 2847.43 910.73C2847.43 913.07 2846.62 915.02 2845 916.58C2843.44 918.08 2841.34 918.83 2838.7 918.83ZM2875.04 974.72C2870.9 974.72 2866.91 974.24 2863.07 973.28C2859.29 972.26 2856.29 971 2854.07 969.5L2858.75 959.42C2860.97 960.8 2863.58 961.94 2866.58 962.84C2869.64 963.68 2872.64 964.1 2875.58 964.1C2878.82 964.1 2881.1 963.71 2882.42 962.93C2883.8 962.15 2884.49 961.07 2884.49 959.69C2884.49 958.55 2883.95 957.71 2882.87 957.17C2881.85 956.57 2880.47 956.12 2878.73 955.82C2876.99 955.52 2875.07 955.22 2872.97 954.92C2870.93 954.62 2868.86 954.23 2866.76 953.75C2864.66 953.21 2862.74 952.43 2861 951.41C2859.26 950.39 2857.85 949.01 2856.77 947.27C2855.75 945.53 2855.24 943.28 2855.24 940.52C2855.24 937.46 2856.11 934.76 2857.85 932.42C2859.65 930.08 2862.23 928.25 2865.59 926.93C2868.95 925.55 2872.97 924.86 2877.65 924.86C2880.95 924.86 2884.31 925.22 2887.73 925.94C2891.15 926.66 2894 927.71 2896.28 929.09L2891.6 939.08C2889.26 937.7 2886.89 936.77 2884.49 936.29C2882.15 935.75 2879.87 935.48 2877.65 935.48C2874.53 935.48 2872.25 935.9 2870.81 936.74C2869.37 937.58 2868.65 938.66 2868.65 939.98C2868.65 941.18 2869.16 942.08 2870.18 942.68C2871.26 943.28 2872.67 943.76 2874.41 944.12C2876.15 944.48 2878.04 944.81 2880.08 945.11C2882.18 945.35 2884.28 945.74 2886.38 946.28C2888.48 946.82 2890.37 947.6 2892.05 948.62C2893.79 949.58 2895.2 950.93 2896.28 952.67C2897.36 954.35 2897.9 956.57 2897.9 959.33C2897.9 962.33 2897 965 2895.2 967.34C2893.4 969.62 2890.79 971.42 2887.37 972.74C2884.01 974.06 2879.9 974.72 2875.04 974.72ZM2936.27 974V964.55L2935.37 962.48V945.56C2935.37 942.56 2934.44 940.22 2932.58 938.54C2930.78 936.86 2927.99 936.02 2924.21 936.02C2921.63 936.02 2919.08 936.44 2916.56 937.28C2914.1 938.06 2912 939.14 2910.26 940.52L2905.22 930.71C2907.86 928.85 2911.04 927.41 2914.76 926.39C2918.48 925.37 2922.26 924.86 2926.1 924.86C2933.48 924.86 2939.21 926.6 2943.29 930.08C2947.37 933.56 2949.41 938.99 2949.41 946.37V974H2936.27ZM2921.51 974.72C2917.73 974.72 2914.49 974.09 2911.79 972.83C2909.09 971.51 2907.02 969.74 2905.58 967.52C2904.14 965.3 2903.42 962.81 2903.42 960.05C2903.42 957.17 2904.11 954.65 2905.49 952.49C2906.93 950.33 2909.18 948.65 2912.24 947.45C2915.3 946.19 2919.29 945.56 2924.21 945.56H2937.08V953.75H2925.74C2922.44 953.75 2920.16 954.29 2918.9 955.37C2917.7 956.45 2917.1 957.8 2917.1 959.42C2917.1 961.22 2917.79 962.66 2919.17 963.74C2920.61 964.76 2922.56 965.27 2925.02 965.27C2927.36 965.27 2929.46 964.73 2931.32 963.65C2933.18 962.51 2934.53 960.86 2935.37 958.7L2937.53 965.18C2936.51 968.3 2934.65 970.67 2931.95 972.29C2929.25 973.91 2925.77 974.72 2921.51 974.72ZM3011.63 974.72C3006.11 974.72 3001.25 973.64 2997.05 971.48C2992.91 969.32 2989.7 966.38 2987.42 962.66C2985.14 958.88 2984 954.59 2984 949.79C2984 944.93 2985.11 940.64 2987.33 936.92C2989.61 933.14 2992.7 930.2 2996.6 928.1C3000.5 925.94 3004.91 924.86 3009.83 924.86C3014.57 924.86 3018.83 925.88 3022.61 927.92C3026.45 929.9 3029.48 932.78 3031.7 936.56C3033.92 940.28 3035.03 944.75 3035.03 949.97C3035.03 950.51 3035 951.14 3034.94 951.86C3034.88 952.52 3034.82 953.15 3034.76 953.75H2995.43V945.56H3027.38L3021.98 947.99C3021.98 945.47 3021.47 943.28 3020.45 941.42C3019.43 939.56 3018.02 938.12 3016.22 937.1C3014.42 936.02 3012.32 935.48 3009.92 935.48C3007.52 935.48 3005.39 936.02 3003.53 937.1C3001.73 938.12 3000.32 939.59 2999.3 941.51C2998.28 943.37 2997.77 945.59 2997.77 948.17V950.33C2997.77 952.97 2998.34 955.31 2999.48 957.35C3000.68 959.33 3002.33 960.86 3004.43 961.94C3006.59 962.96 3009.11 963.47 3011.99 963.47C3014.57 963.47 3016.82 963.08 3018.74 962.3C3020.72 961.52 3022.52 960.35 3024.14 958.79L3031.61 966.89C3029.39 969.41 3026.6 971.36 3023.24 972.74C3019.88 974.06 3016.01 974.72 3011.63 974.72ZM3106.39 924.86C3110.23 924.86 3113.62 925.64 3116.56 927.2C3119.56 928.7 3121.9 931.04 3123.58 934.22C3125.32 937.34 3126.19 941.36 3126.19 946.28V974H3112.15V948.44C3112.15 944.54 3111.34 941.66 3109.72 939.8C3108.1 937.94 3105.82 937.01 3102.88 937.01C3100.84 937.01 3099.01 937.49 3097.39 938.45C3095.77 939.35 3094.51 940.73 3093.61 942.59C3092.71 944.45 3092.26 946.82 3092.26 949.7V974H3078.22V948.44C3078.22 944.54 3077.41 941.66 3075.79 939.8C3074.23 937.94 3071.98 937.01 3069.04 937.01C3067 937.01 3065.17 937.49 3063.55 938.45C3061.93 939.35 3060.67 940.73 3059.77 942.59C3058.87 944.45 3058.42 946.82 3058.42 949.7V974H3044.38V925.58H3057.79V938.81L3055.27 934.94C3056.95 931.64 3059.32 929.15 3062.38 927.47C3065.5 925.73 3069.04 924.86 3073 924.86C3077.44 924.86 3081.31 926 3084.61 928.28C3087.97 930.5 3090.19 933.92 3091.27 938.54L3086.32 937.19C3087.94 933.41 3090.52 930.41 3094.06 928.19C3097.66 925.97 3101.77 924.86 3106.39 924.86ZM3185.05 974.72C3180.49 974.72 3176.38 973.7 3172.72 971.66C3169.06 969.56 3166.15 966.65 3163.99 962.93C3161.89 959.21 3160.84 954.83 3160.84 949.79C3160.84 944.69 3161.89 940.28 3163.99 936.56C3166.15 932.84 3169.06 929.96 3172.72 927.92C3176.38 925.88 3180.49 924.86 3185.05 924.86C3189.13 924.86 3192.7 925.76 3195.76 927.56C3198.82 929.36 3201.19 932.09 3202.87 935.75C3204.55 939.41 3205.39 944.09 3205.39 949.79C3205.39 955.43 3204.58 960.11 3202.96 963.83C3201.34 967.49 3199 970.22 3195.94 972.02C3192.94 973.82 3189.31 974.72 3185.05 974.72ZM3187.48 963.2C3189.76 963.2 3191.83 962.66 3193.69 961.58C3195.55 960.5 3197.02 958.97 3198.1 956.99C3199.24 954.95 3199.81 952.55 3199.81 949.79C3199.81 946.97 3199.24 944.57 3198.1 942.59C3197.02 940.61 3195.55 939.08 3193.69 938C3191.83 936.92 3189.76 936.38 3187.48 936.38C3185.14 936.38 3183.04 936.92 3181.18 938C3179.32 939.08 3177.82 940.61 3176.68 942.59C3175.6 944.57 3175.06 946.97 3175.06 949.79C3175.06 952.55 3175.6 954.95 3176.68 956.99C3177.82 958.97 3179.32 960.5 3181.18 961.58C3183.04 962.66 3185.14 963.2 3187.48 963.2ZM3200.17 974V964.1L3200.44 949.7L3199.54 935.39V907.22H3213.58V974H3200.17ZM3250.61 974.72C3245.09 974.72 3240.23 973.64 3236.03 971.48C3231.89 969.32 3228.68 966.38 3226.4 962.66C3224.12 958.88 3222.98 954.59 3222.98 949.79C3222.98 944.93 3224.09 940.64 3226.31 936.92C3228.59 933.14 3231.68 930.2 3235.58 928.1C3239.48 925.94 3243.89 924.86 3248.81 924.86C3253.55 924.86 3257.81 925.88 3261.59 927.92C3265.43 929.9 3268.46 932.78 3270.68 936.56C3272.9 940.28 3274.01 944.75 3274.01 949.97C3274.01 950.51 3273.98 951.14 3273.92 951.86C3273.86 952.52 3273.8 953.15 3273.74 953.75H3234.41V945.56H3266.36L3260.96 947.99C3260.96 945.47 3260.45 943.28 3259.43 941.42C3258.41 939.56 3257 938.12 3255.2 937.1C3253.4 936.02 3251.3 935.48 3248.9 935.48C3246.5 935.48 3244.37 936.02 3242.51 937.1C3240.71 938.12 3239.3 939.59 3238.28 941.51C3237.26 943.37 3236.75 945.59 3236.75 948.17V950.33C3236.75 952.97 3237.32 955.31 3238.46 957.35C3239.66 959.33 3241.31 960.86 3243.41 961.94C3245.57 962.96 3248.09 963.47 3250.97 963.47C3253.55 963.47 3255.8 963.08 3257.72 962.3C3259.7 961.52 3261.5 960.35 3263.12 958.79L3270.59 966.89C3268.37 969.41 3265.58 971.36 3262.22 972.74C3258.86 974.06 3254.99 974.72 3250.61 974.72ZM3299.64 974.72C3295.5 974.72 3291.51 974.24 3287.67 973.28C3283.89 972.26 3280.89 971 3278.67 969.5L3283.35 959.42C3285.57 960.8 3288.18 961.94 3291.18 962.84C3294.24 963.68 3297.24 964.1 3300.18 964.1C3303.42 964.1 3305.7 963.71 3307.02 962.93C3308.4 962.15 3309.09 961.07 3309.09 959.69C3309.09 958.55 3308.55 957.71 3307.47 957.17C3306.45 956.57 3305.07 956.12 3303.33 955.82C3301.59 955.52 3299.67 955.22 3297.57 954.92C3295.53 954.62 3293.46 954.23 3291.36 953.75C3289.26 953.21 3287.34 952.43 3285.6 951.41C3283.86 950.39 3282.45 949.01 3281.37 947.27C3280.35 945.53 3279.84 943.28 3279.84 940.52C3279.84 937.46 3280.71 934.76 3282.45 932.42C3284.25 930.08 3286.83 928.25 3290.19 926.93C3293.55 925.55 3297.57 924.86 3302.25 924.86C3305.55 924.86 3308.91 925.22 3312.33 925.94C3315.75 926.66 3318.6 927.71 3320.88 929.09L3316.2 939.08C3313.86 937.7 3311.49 936.77 3309.09 936.29C3306.75 935.75 3304.47 935.48 3302.25 935.48C3299.13 935.48 3296.85 935.9 3295.41 936.74C3293.97 937.58 3293.25 938.66 3293.25 939.98C3293.25 941.18 3293.76 942.08 3294.78 942.68C3295.86 943.28 3297.27 943.76 3299.01 944.12C3300.75 944.48 3302.64 944.81 3304.68 945.11C3306.78 945.35 3308.88 945.74 3310.98 946.28C3313.08 946.82 3314.97 947.6 3316.65 948.62C3318.39 949.58 3319.8 950.93 3320.88 952.67C3321.96 954.35 3322.5 956.57 3322.5 959.33C3322.5 962.33 3321.6 965 3319.8 967.34C3318 969.62 3315.39 971.42 3311.97 972.74C3308.61 974.06 3304.5 974.72 3299.64 974.72ZM3331.17 974V925.58H3345.21V974H3331.17ZM3338.19 918.83C3335.61 918.83 3333.51 918.08 3331.89 916.58C3330.27 915.08 3329.46 913.22 3329.46 911C3329.46 908.78 3330.27 906.92 3331.89 905.42C3333.51 903.92 3335.61 903.17 3338.19 903.17C3340.77 903.17 3342.87 903.89 3344.49 905.33C3346.11 906.71 3346.92 908.51 3346.92 910.73C3346.92 913.07 3346.11 915.02 3344.49 916.58C3342.93 918.08 3340.83 918.83 3338.19 918.83ZM3381.01 992.18C3376.45 992.18 3372.04 991.61 3367.78 990.47C3363.58 989.39 3360.07 987.74 3357.25 985.52L3362.83 975.44C3364.87 977.12 3367.45 978.44 3370.57 979.4C3373.75 980.42 3376.87 980.93 3379.93 980.93C3384.91 980.93 3388.51 979.82 3390.73 977.6C3393.01 975.38 3394.15 972.08 3394.15 967.7V960.41L3395.05 948.26L3394.87 936.02V925.58H3408.19V965.9C3408.19 974.9 3405.85 981.53 3401.17 985.79C3396.49 990.05 3389.77 992.18 3381.01 992.18ZM3378.85 971.66C3374.35 971.66 3370.27 970.7 3366.61 968.78C3363.01 966.8 3360.1 964.07 3357.88 960.59C3355.72 957.05 3354.64 952.94 3354.64 948.26C3354.64 943.52 3355.72 939.41 3357.88 935.93C3360.1 932.39 3363.01 929.66 3366.61 927.74C3370.27 925.82 3374.35 924.86 3378.85 924.86C3382.93 924.86 3386.53 925.7 3389.65 927.38C3392.77 929 3395.2 931.55 3396.94 935.03C3398.68 938.45 3399.55 942.86 3399.55 948.26C3399.55 953.6 3398.68 958.01 3396.94 961.49C3395.2 964.91 3392.77 967.46 3389.65 969.14C3386.53 970.82 3382.93 971.66 3378.85 971.66ZM3381.64 960.14C3384.1 960.14 3386.29 959.66 3388.21 958.7C3390.13 957.68 3391.63 956.27 3392.71 954.47C3393.79 952.67 3394.33 950.6 3394.33 948.26C3394.33 945.86 3393.79 943.79 3392.71 942.05C3391.63 940.25 3390.13 938.87 3388.21 937.91C3386.29 936.89 3384.1 936.38 3381.64 936.38C3379.18 936.38 3376.99 936.89 3375.07 937.91C3373.15 938.87 3371.62 940.25 3370.48 942.05C3369.4 943.79 3368.86 945.86 3368.86 948.26C3368.86 950.6 3369.4 952.67 3370.48 954.47C3371.62 956.27 3373.15 957.68 3375.07 958.7C3376.99 959.66 3379.18 960.14 3381.64 960.14ZM3450.68 924.86C3454.52 924.86 3457.94 925.64 3460.94 927.2C3464 928.7 3466.4 931.04 3468.14 934.22C3469.88 937.34 3470.75 941.36 3470.75 946.28V974H3456.71V948.44C3456.71 944.54 3455.84 941.66 3454.1 939.8C3452.42 937.94 3450.02 937.01 3446.9 937.01C3444.68 937.01 3442.67 937.49 3440.87 938.45C3439.13 939.35 3437.75 940.76 3436.73 942.68C3435.77 944.6 3435.29 947.06 3435.29 950.06V974H3421.25V925.58H3434.66V938.99L3432.14 934.94C3433.88 931.7 3436.37 929.21 3439.61 927.47C3442.85 925.73 3446.54 924.86 3450.68 924.86Z" fill="#DDDDDD"/>
</svg>
