<svg width="3745" height="1780" viewBox="0 0 3745 1780" fill="none" xmlns="http://www.w3.org/2000/svg">
<path d="M2106.46 841.68C2092.55 841.68 2081.68 837.807 2073.84 830.06C2066 822.313 2062.08 811.253 2062.08 796.88V742H2084.76V796.04C2084.76 805.373 2086.67 812.093 2090.5 816.2C2094.32 820.307 2099.69 822.36 2106.6 822.36C2113.5 822.36 2118.87 820.307 2122.7 816.2C2126.52 812.093 2128.44 805.373 2128.44 796.04V742H2150.84V796.88C2150.84 811.253 2146.92 822.313 2139.08 830.06C2131.24 837.807 2120.36 841.68 2106.46 841.68ZM2197.05 841.12C2190.61 841.12 2184.4 840.373 2178.43 838.88C2172.55 837.293 2167.88 835.333 2164.43 833L2171.71 817.32C2175.16 819.467 2179.22 821.24 2183.89 822.64C2188.65 823.947 2193.32 824.6 2197.89 824.6C2202.93 824.6 2206.48 823.993 2208.53 822.78C2210.68 821.567 2211.75 819.887 2211.75 817.74C2211.75 815.967 2210.91 814.66 2209.23 813.82C2207.64 812.887 2205.5 812.187 2202.79 811.72C2200.08 811.253 2197.1 810.787 2193.83 810.32C2190.66 809.853 2187.44 809.247 2184.17 808.5C2180.9 807.66 2177.92 806.447 2175.21 804.86C2172.5 803.273 2170.31 801.127 2168.63 798.42C2167.04 795.713 2166.25 792.213 2166.25 787.92C2166.25 783.16 2167.6 778.96 2170.31 775.32C2173.11 771.68 2177.12 768.833 2182.35 766.78C2187.58 764.633 2193.83 763.56 2201.11 763.56C2206.24 763.56 2211.47 764.12 2216.79 765.24C2222.11 766.36 2226.54 767.993 2230.09 770.14L2222.81 785.68C2219.17 783.533 2215.48 782.087 2211.75 781.34C2208.11 780.5 2204.56 780.08 2201.11 780.08C2196.26 780.08 2192.71 780.733 2190.47 782.04C2188.23 783.347 2187.11 785.027 2187.11 787.08C2187.11 788.947 2187.9 790.347 2189.49 791.28C2191.17 792.213 2193.36 792.96 2196.07 793.52C2198.78 794.08 2201.72 794.593 2204.89 795.06C2208.16 795.433 2211.42 796.04 2214.69 796.88C2217.96 797.72 2220.9 798.933 2223.51 800.52C2226.22 802.013 2228.41 804.113 2230.09 806.82C2231.77 809.433 2232.61 812.887 2232.61 817.18C2232.61 821.847 2231.21 826 2228.41 829.64C2225.61 833.187 2221.55 835.987 2216.23 838.04C2211 840.093 2204.61 841.12 2197.05 841.12ZM2281.92 841.12C2273.9 841.12 2266.76 839.44 2260.5 836.08C2254.34 832.72 2249.44 828.147 2245.8 822.36C2242.26 816.48 2240.48 809.807 2240.48 802.34C2240.48 794.78 2242.26 788.107 2245.8 782.32C2249.44 776.44 2254.34 771.867 2260.5 768.6C2266.76 765.24 2273.9 763.56 2281.92 763.56C2289.86 763.56 2296.95 765.24 2303.2 768.6C2309.46 771.867 2314.36 776.393 2317.9 782.18C2321.45 787.967 2323.22 794.687 2323.22 802.34C2323.22 809.807 2321.45 816.48 2317.9 822.36C2314.36 828.147 2309.46 832.72 2303.2 836.08C2296.95 839.44 2289.86 841.12 2281.92 841.12ZM2281.92 823.2C2285.56 823.2 2288.83 822.36 2291.72 820.68C2294.62 819 2296.9 816.62 2298.58 813.54C2300.26 810.367 2301.1 806.633 2301.1 802.34C2301.1 797.953 2300.26 794.22 2298.58 791.14C2296.9 788.06 2294.62 785.68 2291.72 784C2288.83 782.32 2285.56 781.48 2281.92 781.48C2278.28 781.48 2275.02 782.32 2272.12 784C2269.23 785.68 2266.9 788.06 2265.12 791.14C2263.44 794.22 2262.6 797.953 2262.6 802.34C2262.6 806.633 2263.44 810.367 2265.12 813.54C2266.9 816.62 2269.23 819 2272.12 820.68C2275.02 822.36 2278.28 823.2 2281.92 823.2ZM2363.16 841.12C2356.72 841.12 2350.52 840.373 2344.54 838.88C2338.66 837.293 2334 835.333 2330.54 833L2337.82 817.32C2341.28 819.467 2345.34 821.24 2350 822.64C2354.76 823.947 2359.43 824.6 2364 824.6C2369.04 824.6 2372.59 823.993 2374.64 822.78C2376.79 821.567 2377.86 819.887 2377.86 817.74C2377.86 815.967 2377.02 814.66 2375.34 813.82C2373.76 812.887 2371.61 812.187 2368.9 811.72C2366.2 811.253 2363.21 810.787 2359.94 810.32C2356.77 809.853 2353.55 809.247 2350.28 808.5C2347.02 807.66 2344.03 806.447 2341.32 804.86C2338.62 803.273 2336.42 801.127 2334.74 798.42C2333.16 795.713 2332.36 792.213 2332.36 787.92C2332.36 783.16 2333.72 778.96 2336.42 775.32C2339.22 771.68 2343.24 768.833 2348.46 766.78C2353.69 764.633 2359.94 763.56 2367.22 763.56C2372.36 763.56 2377.58 764.12 2382.9 765.24C2388.22 766.36 2392.66 767.993 2396.2 770.14L2388.92 785.68C2385.28 783.533 2381.6 782.087 2377.86 781.34C2374.22 780.5 2370.68 780.08 2367.22 780.08C2362.37 780.08 2358.82 780.733 2356.58 782.04C2354.34 783.347 2353.22 785.027 2353.22 787.08C2353.22 788.947 2354.02 790.347 2355.6 791.28C2357.28 792.213 2359.48 792.96 2362.18 793.52C2364.89 794.08 2367.83 794.593 2371 795.06C2374.27 795.433 2377.54 796.04 2380.8 796.88C2384.07 797.72 2387.01 798.933 2389.62 800.52C2392.33 802.013 2394.52 804.113 2396.2 806.82C2397.88 809.433 2398.72 812.887 2398.72 817.18C2398.72 821.847 2397.32 826 2394.52 829.64C2391.72 833.187 2387.66 835.987 2382.34 838.04C2377.12 840.093 2370.72 841.12 2363.16 841.12ZM2488.25 841.12C2480.13 841.12 2472.89 839.487 2466.55 836.22C2460.2 832.86 2455.21 828.24 2451.57 822.36C2448.02 816.48 2446.25 809.807 2446.25 802.34C2446.25 794.78 2448.02 788.107 2451.57 782.32C2455.21 776.44 2460.2 771.867 2466.55 768.6C2472.89 765.24 2480.13 763.56 2488.25 763.56C2496.18 763.56 2503.09 765.24 2508.97 768.6C2514.85 771.867 2519.19 776.58 2521.99 782.74L2505.05 791.84C2503.09 788.293 2500.61 785.68 2497.63 784C2494.73 782.32 2491.56 781.48 2488.11 781.48C2484.37 781.48 2481.01 782.32 2478.03 784C2475.04 785.68 2472.66 788.06 2470.89 791.14C2469.21 794.22 2468.37 797.953 2468.37 802.34C2468.37 806.727 2469.21 810.46 2470.89 813.54C2472.66 816.62 2475.04 819 2478.03 820.68C2481.01 822.36 2484.37 823.2 2488.11 823.2C2491.56 823.2 2494.73 822.407 2497.63 820.82C2500.61 819.14 2503.09 816.48 2505.05 812.84L2521.99 822.08C2519.19 828.147 2514.85 832.86 2508.97 836.22C2503.09 839.487 2496.18 841.12 2488.25 841.12ZM2569.44 841.12C2561.42 841.12 2554.28 839.44 2548.02 836.08C2541.86 832.72 2536.96 828.147 2533.32 822.36C2529.78 816.48 2528 809.807 2528 802.34C2528 794.78 2529.78 788.107 2533.32 782.32C2536.96 776.44 2541.86 771.867 2548.02 768.6C2554.28 765.24 2561.42 763.56 2569.44 763.56C2577.38 763.56 2584.47 765.24 2590.72 768.6C2596.98 771.867 2601.88 776.393 2605.42 782.18C2608.97 787.967 2610.74 794.687 2610.74 802.34C2610.74 809.807 2608.97 816.48 2605.42 822.36C2601.88 828.147 2596.98 832.72 2590.72 836.08C2584.47 839.44 2577.38 841.12 2569.44 841.12ZM2569.44 823.2C2573.08 823.2 2576.35 822.36 2579.24 820.68C2582.14 819 2584.42 816.62 2586.1 813.54C2587.78 810.367 2588.62 806.633 2588.62 802.34C2588.62 797.953 2587.78 794.22 2586.1 791.14C2584.42 788.06 2582.14 785.68 2579.24 784C2576.35 782.32 2573.08 781.48 2569.44 781.48C2565.8 781.48 2562.54 782.32 2559.64 784C2556.75 785.68 2554.42 788.06 2552.64 791.14C2550.96 794.22 2550.12 797.953 2550.12 802.34C2550.12 806.633 2550.96 810.367 2552.64 813.54C2554.42 816.62 2556.75 819 2559.64 820.68C2562.54 822.36 2565.8 823.2 2569.44 823.2ZM2721.8 763.56C2727.78 763.56 2733.05 764.773 2737.62 767.2C2742.29 769.533 2745.93 773.173 2748.54 778.12C2751.25 782.973 2752.6 789.227 2752.6 796.88V840H2730.76V800.24C2730.76 794.173 2729.5 789.693 2726.98 786.8C2724.46 783.907 2720.92 782.46 2716.34 782.46C2713.17 782.46 2710.32 783.207 2707.8 784.7C2705.28 786.1 2703.32 788.247 2701.92 791.14C2700.52 794.033 2699.82 797.72 2699.82 802.2V840H2677.98V800.24C2677.98 794.173 2676.72 789.693 2674.2 786.8C2671.78 783.907 2668.28 782.46 2663.7 782.46C2660.53 782.46 2657.68 783.207 2655.16 784.7C2652.64 786.1 2650.68 788.247 2649.28 791.14C2647.88 794.033 2647.18 797.72 2647.18 802.2V840H2625.34V764.68H2646.2V785.26L2642.28 779.24C2644.9 774.107 2648.58 770.233 2653.34 767.62C2658.2 764.913 2663.7 763.56 2669.86 763.56C2676.77 763.56 2682.79 765.333 2687.92 768.88C2693.15 772.333 2696.6 777.653 2698.28 784.84L2690.58 782.74C2693.1 776.86 2697.12 772.193 2702.62 768.74C2708.22 765.287 2714.62 763.56 2721.8 763.56ZM2808.56 841.12C2800.54 841.12 2793.4 839.44 2787.14 836.08C2780.98 832.72 2776.08 828.147 2772.44 822.36C2768.9 816.48 2767.12 809.807 2767.12 802.34C2767.12 794.78 2768.9 788.107 2772.44 782.32C2776.08 776.44 2780.98 771.867 2787.14 768.6C2793.4 765.24 2800.54 763.56 2808.56 763.56C2816.5 763.56 2823.59 765.24 2829.84 768.6C2836.1 771.867 2841 776.393 2844.54 782.18C2848.09 787.967 2849.86 794.687 2849.86 802.34C2849.86 809.807 2848.09 816.48 2844.54 822.36C2841 828.147 2836.1 832.72 2829.84 836.08C2823.59 839.44 2816.5 841.12 2808.56 841.12ZM2808.56 823.2C2812.2 823.2 2815.47 822.36 2818.36 820.68C2821.26 819 2823.54 816.62 2825.22 813.54C2826.9 810.367 2827.74 806.633 2827.74 802.34C2827.74 797.953 2826.9 794.22 2825.22 791.14C2823.54 788.06 2821.26 785.68 2818.36 784C2815.47 782.32 2812.2 781.48 2808.56 781.48C2804.92 781.48 2801.66 782.32 2798.76 784C2795.87 785.68 2793.54 788.06 2791.76 791.14C2790.08 794.22 2789.24 797.953 2789.24 802.34C2789.24 806.633 2790.08 810.367 2791.76 813.54C2793.54 816.62 2795.87 819 2798.76 820.68C2801.66 822.36 2804.92 823.2 2808.56 823.2ZM2937.85 841.68C2930.01 841.68 2922.5 840.653 2915.31 838.6C2908.12 836.453 2902.34 833.7 2897.95 830.34L2905.65 813.26C2909.85 816.247 2914.8 818.72 2920.49 820.68C2926.28 822.547 2932.11 823.48 2937.99 823.48C2942.47 823.48 2946.06 823.06 2948.77 822.22C2951.57 821.287 2953.62 820.027 2954.93 818.44C2956.24 816.853 2956.89 815.033 2956.89 812.98C2956.89 810.367 2955.86 808.313 2953.81 806.82C2951.76 805.233 2949.05 803.973 2945.69 803.04C2942.33 802.013 2938.6 801.08 2934.49 800.24C2930.48 799.307 2926.42 798.187 2922.31 796.88C2918.3 795.573 2914.61 793.893 2911.25 791.84C2907.89 789.787 2905.14 787.08 2902.99 783.72C2900.94 780.36 2899.91 776.067 2899.91 770.84C2899.91 765.24 2901.4 760.153 2904.39 755.58C2907.47 750.913 2912.04 747.227 2918.11 744.52C2924.27 741.72 2931.97 740.32 2941.21 740.32C2947.37 740.32 2953.44 741.067 2959.41 742.56C2965.38 743.96 2970.66 746.107 2975.23 749L2968.23 766.22C2963.66 763.607 2959.08 761.693 2954.51 760.48C2949.94 759.173 2945.46 758.52 2941.07 758.52C2936.68 758.52 2933.09 759.033 2930.29 760.06C2927.49 761.087 2925.48 762.44 2924.27 764.12C2923.06 765.707 2922.45 767.573 2922.45 769.72C2922.45 772.24 2923.48 774.293 2925.53 775.88C2927.58 777.373 2930.29 778.587 2933.65 779.52C2937.01 780.453 2940.7 781.387 2944.71 782.32C2948.82 783.253 2952.88 784.327 2956.89 785.54C2961 786.753 2964.73 788.387 2968.09 790.44C2971.45 792.493 2974.16 795.2 2976.21 798.56C2978.36 801.92 2979.43 806.167 2979.43 811.3C2979.43 816.807 2977.89 821.847 2974.81 826.42C2971.73 830.993 2967.11 834.68 2960.95 837.48C2954.88 840.28 2947.18 841.68 2937.85 841.68ZM3025.17 841.12C3018.92 841.12 3013.32 839.907 3008.37 837.48C3003.52 835.053 2999.74 831.367 2997.03 826.42C2994.32 821.38 2992.97 814.987 2992.97 807.24V764.68H3014.81V804.02C3014.81 810.273 3016.12 814.893 3018.73 817.88C3021.44 820.773 3025.22 822.22 3030.07 822.22C3033.43 822.22 3036.42 821.52 3039.03 820.12C3041.64 818.627 3043.7 816.387 3045.19 813.4C3046.68 810.32 3047.43 806.493 3047.43 801.92V764.68H3069.27V840H3048.55V819.28L3052.33 825.3C3049.81 830.527 3046.08 834.493 3041.13 837.2C3036.28 839.813 3030.96 841.12 3025.17 841.12ZM3134.02 841.12C3127.68 841.12 3122.12 839.72 3117.36 836.92C3112.6 834.12 3108.87 829.873 3106.16 824.18C3103.55 818.393 3102.24 811.113 3102.24 802.34C3102.24 793.473 3103.5 786.193 3106.02 780.5C3108.54 774.807 3112.18 770.56 3116.94 767.76C3121.7 764.96 3127.4 763.56 3134.02 763.56C3141.12 763.56 3147.46 765.193 3153.06 768.46C3158.76 771.633 3163.24 776.113 3166.5 781.9C3169.86 787.687 3171.54 794.5 3171.54 802.34C3171.54 810.273 3169.86 817.133 3166.5 822.92C3163.24 828.707 3158.76 833.187 3153.06 836.36C3147.46 839.533 3141.12 841.12 3134.02 841.12ZM3089.5 867.16V764.68H3110.36V780.08L3109.94 802.48L3111.34 824.74V867.16H3089.5ZM3130.24 823.2C3133.88 823.2 3137.1 822.36 3139.9 820.68C3142.8 819 3145.08 816.62 3146.76 813.54C3148.54 810.367 3149.42 806.633 3149.42 802.34C3149.42 797.953 3148.54 794.22 3146.76 791.14C3145.08 788.06 3142.8 785.68 3139.9 784C3137.1 782.32 3133.88 781.48 3130.24 781.48C3126.6 781.48 3123.34 782.32 3120.44 784C3117.55 785.68 3115.26 788.06 3113.58 791.14C3111.9 794.22 3111.06 797.953 3111.06 802.34C3111.06 806.633 3111.9 810.367 3113.58 813.54C3115.26 816.62 3117.55 819 3120.44 820.68C3123.34 822.36 3126.6 823.2 3130.24 823.2ZM3222 841.12C3213.98 841.12 3206.84 839.44 3200.58 836.08C3194.42 832.72 3189.52 828.147 3185.88 822.36C3182.34 816.48 3180.56 809.807 3180.56 802.34C3180.56 794.78 3182.34 788.107 3185.88 782.32C3189.52 776.44 3194.42 771.867 3200.58 768.6C3206.84 765.24 3213.98 763.56 3222 763.56C3229.94 763.56 3237.03 765.24 3243.28 768.6C3249.54 771.867 3254.44 776.393 3257.98 782.18C3261.53 787.967 3263.3 794.687 3263.3 802.34C3263.3 809.807 3261.53 816.48 3257.98 822.36C3254.44 828.147 3249.54 832.72 3243.28 836.08C3237.03 839.44 3229.94 841.12 3222 841.12ZM3222 823.2C3225.64 823.2 3228.91 822.36 3231.8 820.68C3234.7 819 3236.98 816.62 3238.66 813.54C3240.34 810.367 3241.18 806.633 3241.18 802.34C3241.18 797.953 3240.34 794.22 3238.66 791.14C3236.98 788.06 3234.7 785.68 3231.8 784C3228.91 782.32 3225.64 781.48 3222 781.48C3218.36 781.48 3215.1 782.32 3212.2 784C3209.31 785.68 3206.98 788.06 3205.2 791.14C3203.52 794.22 3202.68 797.953 3202.68 802.34C3202.68 806.633 3203.52 810.367 3205.2 813.54C3206.98 816.62 3209.31 819 3212.2 820.68C3215.1 822.36 3218.36 823.2 3222 823.2ZM3277.9 840V764.68H3298.76V785.96L3295.82 779.8C3298.06 774.48 3301.65 770.467 3306.6 767.76C3311.55 764.96 3317.57 763.56 3324.66 763.56V783.72C3323.73 783.627 3322.89 783.58 3322.14 783.58C3321.39 783.487 3320.6 783.44 3319.76 783.44C3313.79 783.44 3308.93 785.167 3305.2 788.62C3301.56 791.98 3299.74 797.253 3299.74 804.44V840H3277.9ZM3371.04 841.12C3362.18 841.12 3355.27 838.88 3350.32 834.4C3345.38 829.827 3342.9 823.06 3342.9 814.1V748.02H3364.74V813.82C3364.74 816.993 3365.58 819.467 3367.26 821.24C3368.94 822.92 3371.23 823.76 3374.12 823.76C3377.58 823.76 3380.52 822.827 3382.94 820.96L3388.82 836.36C3386.58 837.947 3383.88 839.16 3380.7 840C3377.62 840.747 3374.4 841.12 3371.04 841.12ZM3331.28 783.16V766.36H3383.5V783.16H3331.28ZM3436.14 841.12C3427.55 841.12 3419.99 839.44 3413.46 836.08C3407.02 832.72 3402.03 828.147 3398.48 822.36C3394.93 816.48 3393.16 809.807 3393.16 802.34C3393.16 794.78 3394.89 788.107 3398.34 782.32C3401.89 776.44 3406.69 771.867 3412.76 768.6C3418.83 765.24 3425.69 763.56 3433.34 763.56C3440.71 763.56 3447.34 765.147 3453.22 768.32C3459.19 771.4 3463.91 775.88 3467.36 781.76C3470.81 787.547 3472.54 794.5 3472.54 802.62C3472.54 803.46 3472.49 804.44 3472.4 805.56C3472.31 806.587 3472.21 807.567 3472.12 808.5H3410.94V795.76H3460.64L3452.24 799.54C3452.24 795.62 3451.45 792.213 3449.86 789.32C3448.27 786.427 3446.08 784.187 3443.28 782.6C3440.48 780.92 3437.21 780.08 3433.48 780.08C3429.75 780.08 3426.43 780.92 3423.54 782.6C3420.74 784.187 3418.55 786.473 3416.96 789.46C3415.37 792.353 3414.58 795.807 3414.58 799.82V803.18C3414.58 807.287 3415.47 810.927 3417.24 814.1C3419.11 817.18 3421.67 819.56 3424.94 821.24C3428.3 822.827 3432.22 823.62 3436.7 823.62C3440.71 823.62 3444.21 823.013 3447.2 821.8C3450.28 820.587 3453.08 818.767 3455.6 816.34L3467.22 828.94C3463.77 832.86 3459.43 835.893 3454.2 838.04C3448.97 840.093 3442.95 841.12 3436.14 841.12Z" fill="#DDDDDD"/>
<path d="M1384.97 974.72C1380.89 974.72 1377.32 973.82 1374.26 972.02C1371.2 970.22 1368.8 967.49 1367.06 963.83C1365.38 960.11 1364.54 955.43 1364.54 949.79C1364.54 944.09 1365.35 939.41 1366.97 935.75C1368.59 932.09 1370.93 929.36 1373.99 927.56C1377.05 925.76 1380.71 924.86 1384.97 924.86C1389.53 924.86 1393.61 925.91 1397.21 928.01C1400.87 930.05 1403.75 932.93 1405.85 936.65C1408.01 940.37 1409.09 944.75 1409.09 949.79C1409.09 954.89 1408.01 959.3 1405.85 963.02C1403.75 966.74 1400.87 969.62 1397.21 971.66C1393.61 973.7 1389.53 974.72 1384.97 974.72ZM1356.35 991.46V925.58H1369.76V935.48L1369.49 949.88L1370.39 964.19V991.46H1356.35ZM1382.54 963.2C1384.88 963.2 1386.95 962.66 1388.75 961.58C1390.61 960.5 1392.08 958.97 1393.16 956.99C1394.3 954.95 1394.87 952.55 1394.87 949.79C1394.87 946.97 1394.3 944.57 1393.16 942.59C1392.08 940.61 1390.61 939.08 1388.75 938C1386.95 936.92 1384.88 936.38 1382.54 936.38C1380.2 936.38 1378.1 936.92 1376.24 938C1374.38 939.08 1372.91 940.61 1371.83 942.59C1370.75 944.57 1370.21 946.97 1370.21 949.79C1370.21 952.55 1370.75 954.95 1371.83 956.99C1372.91 958.97 1374.38 960.5 1376.24 961.58C1378.1 962.66 1380.2 963.2 1382.54 963.2ZM1447.4 974V964.55L1446.5 962.48V945.56C1446.5 942.56 1445.57 940.22 1443.71 938.54C1441.91 936.86 1439.12 936.02 1435.34 936.02C1432.76 936.02 1430.21 936.44 1427.69 937.28C1425.23 938.06 1423.13 939.14 1421.39 940.52L1416.35 930.71C1418.99 928.85 1422.17 927.41 1425.89 926.39C1429.61 925.37 1433.39 924.86 1437.23 924.86C1444.61 924.86 1450.34 926.6 1454.42 930.08C1458.5 933.56 1460.54 938.99 1460.54 946.37V974H1447.4ZM1432.64 974.72C1428.86 974.72 1425.62 974.09 1422.92 972.83C1420.22 971.51 1418.15 969.74 1416.71 967.52C1415.27 965.3 1414.55 962.81 1414.55 960.05C1414.55 957.17 1415.24 954.65 1416.62 952.49C1418.06 950.33 1420.31 948.65 1423.37 947.45C1426.43 946.19 1430.42 945.56 1435.34 945.56H1448.21V953.75H1436.87C1433.57 953.75 1431.29 954.29 1430.03 955.37C1428.83 956.45 1428.23 957.8 1428.23 959.42C1428.23 961.22 1428.92 962.66 1430.3 963.74C1431.74 964.76 1433.69 965.27 1436.15 965.27C1438.49 965.27 1440.59 964.73 1442.45 963.65C1444.31 962.51 1445.66 960.86 1446.5 958.7L1448.66 965.18C1447.64 968.3 1445.78 970.67 1443.08 972.29C1440.38 973.91 1436.9 974.72 1432.64 974.72ZM1473.25 974V925.58H1486.66V939.26L1484.77 935.3C1486.21 931.88 1488.52 929.3 1491.7 927.56C1494.88 925.76 1498.75 924.86 1503.31 924.86V937.82C1502.71 937.76 1502.17 937.73 1501.69 937.73C1501.21 937.67 1500.7 937.64 1500.16 937.64C1496.32 937.64 1493.2 938.75 1490.8 940.97C1488.46 943.13 1487.29 946.52 1487.29 951.14V974H1473.25ZM1538.19 974V964.55L1537.29 962.48V945.56C1537.29 942.56 1536.36 940.22 1534.5 938.54C1532.7 936.86 1529.91 936.02 1526.13 936.02C1523.55 936.02 1521 936.44 1518.48 937.28C1516.02 938.06 1513.92 939.14 1512.18 940.52L1507.14 930.71C1509.78 928.85 1512.96 927.41 1516.68 926.39C1520.4 925.37 1524.18 924.86 1528.02 924.86C1535.4 924.86 1541.13 926.6 1545.21 930.08C1549.29 933.56 1551.33 938.99 1551.33 946.37V974H1538.19ZM1523.43 974.72C1519.65 974.72 1516.41 974.09 1513.71 972.83C1511.01 971.51 1508.94 969.74 1507.5 967.52C1506.06 965.3 1505.34 962.81 1505.34 960.05C1505.34 957.17 1506.03 954.65 1507.41 952.49C1508.85 950.33 1511.1 948.65 1514.16 947.45C1517.22 946.19 1521.21 945.56 1526.13 945.56H1539V953.75H1527.66C1524.36 953.75 1522.08 954.29 1520.82 955.37C1519.62 956.45 1519.02 957.8 1519.02 959.42C1519.02 961.22 1519.71 962.66 1521.09 963.74C1522.53 964.76 1524.48 965.27 1526.94 965.27C1529.28 965.27 1531.38 964.73 1533.24 963.65C1535.1 962.51 1536.45 960.86 1537.29 958.7L1539.45 965.18C1538.43 968.3 1536.57 970.67 1533.87 972.29C1531.17 973.91 1527.69 974.72 1523.43 974.72ZM1591.23 974V924.5C1591.23 919.04 1592.85 914.69 1596.09 911.45C1599.33 908.15 1603.95 906.5 1609.95 906.5C1611.99 906.5 1613.94 906.71 1615.8 907.13C1617.72 907.55 1619.34 908.21 1620.66 909.11L1616.97 919.28C1616.19 918.74 1615.32 918.32 1614.36 918.02C1613.4 917.72 1612.38 917.57 1611.3 917.57C1609.26 917.57 1607.67 918.17 1606.53 919.37C1605.45 920.51 1604.91 922.25 1604.91 924.59V929.09L1605.27 935.12V974H1591.23ZM1583.76 937.46V926.66H1617.33V937.46H1583.76ZM1653.15 974V964.55L1652.25 962.48V945.56C1652.25 942.56 1651.32 940.22 1649.46 938.54C1647.66 936.86 1644.87 936.02 1641.09 936.02C1638.51 936.02 1635.96 936.44 1633.44 937.28C1630.98 938.06 1628.88 939.14 1627.14 940.52L1622.1 930.71C1624.74 928.85 1627.92 927.41 1631.64 926.39C1635.36 925.37 1639.14 924.86 1642.98 924.86C1650.36 924.86 1656.09 926.6 1660.17 930.08C1664.25 933.56 1666.29 938.99 1666.29 946.37V974H1653.15ZM1638.39 974.72C1634.61 974.72 1631.37 974.09 1628.67 972.83C1625.97 971.51 1623.9 969.74 1622.46 967.52C1621.02 965.3 1620.3 962.81 1620.3 960.05C1620.3 957.17 1620.99 954.65 1622.37 952.49C1623.81 950.33 1626.06 948.65 1629.12 947.45C1632.18 946.19 1636.17 945.56 1641.09 945.56H1653.96V953.75H1642.62C1639.32 953.75 1637.04 954.29 1635.78 955.37C1634.58 956.45 1633.98 957.8 1633.98 959.42C1633.98 961.22 1634.67 962.66 1636.05 963.74C1637.49 964.76 1639.44 965.27 1641.9 965.27C1644.24 965.27 1646.34 964.73 1648.2 963.65C1650.06 962.51 1651.41 960.86 1652.25 958.7L1654.41 965.18C1653.39 968.3 1651.53 970.67 1648.83 972.29C1646.13 973.91 1642.65 974.72 1638.39 974.72ZM1702.75 974.72C1697.53 974.72 1692.88 973.67 1688.8 971.57C1684.72 969.41 1681.51 966.44 1679.17 962.66C1676.89 958.88 1675.75 954.59 1675.75 949.79C1675.75 944.93 1676.89 940.64 1679.17 936.92C1681.51 933.14 1684.72 930.2 1688.8 928.1C1692.88 925.94 1697.53 924.86 1702.75 924.86C1707.85 924.86 1712.29 925.94 1716.07 928.1C1719.85 930.2 1722.64 933.23 1724.44 937.19L1713.55 943.04C1712.29 940.76 1710.7 939.08 1708.78 938C1706.92 936.92 1704.88 936.38 1702.66 936.38C1700.26 936.38 1698.1 936.92 1696.18 938C1694.26 939.08 1692.73 940.61 1691.59 942.59C1690.51 944.57 1689.97 946.97 1689.97 949.79C1689.97 952.61 1690.51 955.01 1691.59 956.99C1692.73 958.97 1694.26 960.5 1696.18 961.58C1698.1 962.66 1700.26 963.2 1702.66 963.2C1704.88 963.2 1706.92 962.69 1708.78 961.67C1710.7 960.59 1712.29 958.88 1713.55 956.54L1724.44 962.48C1722.64 966.38 1719.85 969.41 1716.07 971.57C1712.29 973.67 1707.85 974.72 1702.75 974.72ZM1732.26 974V925.58H1746.3V974H1732.26ZM1739.28 918.83C1736.7 918.83 1734.6 918.08 1732.98 916.58C1731.36 915.08 1730.55 913.22 1730.55 911C1730.55 908.78 1731.36 906.92 1732.98 905.42C1734.6 903.92 1736.7 903.17 1739.28 903.17C1741.86 903.17 1743.96 903.89 1745.58 905.33C1747.2 906.71 1748.01 908.51 1748.01 910.73C1748.01 913.07 1747.2 915.02 1745.58 916.58C1744.02 918.08 1741.92 918.83 1739.28 918.83ZM1759.33 974V907.22H1773.37V974H1759.33ZM1786.4 974V925.58H1800.44V974H1786.4ZM1793.42 918.83C1790.84 918.83 1788.74 918.08 1787.12 916.58C1785.5 915.08 1784.69 913.22 1784.69 911C1784.69 908.78 1785.5 906.92 1787.12 905.42C1788.74 903.92 1790.84 903.17 1793.42 903.17C1796 903.17 1798.1 903.89 1799.72 905.33C1801.34 906.71 1802.15 908.51 1802.15 910.73C1802.15 913.07 1801.34 915.02 1799.72 916.58C1798.16 918.08 1796.06 918.83 1793.42 918.83ZM1833.27 974.72C1827.57 974.72 1823.13 973.28 1819.95 970.4C1816.77 967.46 1815.18 963.11 1815.18 957.35V914.87H1829.22V957.17C1829.22 959.21 1829.76 960.8 1830.84 961.94C1831.92 963.02 1833.39 963.56 1835.25 963.56C1837.47 963.56 1839.36 962.96 1840.92 961.76L1844.7 971.66C1843.26 972.68 1841.52 973.46 1839.48 974C1837.5 974.48 1835.43 974.72 1833.27 974.72ZM1807.71 937.46V926.66H1841.28V937.46H1807.71ZM1882.28 974V964.55L1881.38 962.48V945.56C1881.38 942.56 1880.45 940.22 1878.59 938.54C1876.79 936.86 1874 936.02 1870.22 936.02C1867.64 936.02 1865.09 936.44 1862.57 937.28C1860.11 938.06 1858.01 939.14 1856.27 940.52L1851.23 930.71C1853.87 928.85 1857.05 927.41 1860.77 926.39C1864.49 925.37 1868.27 924.86 1872.11 924.86C1879.49 924.86 1885.22 926.6 1889.3 930.08C1893.38 933.56 1895.42 938.99 1895.42 946.37V974H1882.28ZM1867.52 974.72C1863.74 974.72 1860.5 974.09 1857.8 972.83C1855.1 971.51 1853.03 969.74 1851.59 967.52C1850.15 965.3 1849.43 962.81 1849.43 960.05C1849.43 957.17 1850.12 954.65 1851.5 952.49C1852.94 950.33 1855.19 948.65 1858.25 947.45C1861.31 946.19 1865.3 945.56 1870.22 945.56H1883.09V953.75H1871.75C1868.45 953.75 1866.17 954.29 1864.91 955.37C1863.71 956.45 1863.11 957.8 1863.11 959.42C1863.11 961.22 1863.8 962.66 1865.18 963.74C1866.62 964.76 1868.57 965.27 1871.03 965.27C1873.37 965.27 1875.47 964.73 1877.33 963.65C1879.19 962.51 1880.54 960.86 1881.38 958.7L1883.54 965.18C1882.52 968.3 1880.66 970.67 1877.96 972.29C1875.26 973.91 1871.78 974.72 1867.52 974.72ZM1908.13 974V925.58H1921.54V939.26L1919.65 935.3C1921.09 931.88 1923.4 929.3 1926.58 927.56C1929.76 925.76 1933.63 924.86 1938.19 924.86V937.82C1937.59 937.76 1937.05 937.73 1936.57 937.73C1936.09 937.67 1935.58 937.64 1935.04 937.64C1931.2 937.64 1928.08 938.75 1925.68 940.97C1923.34 943.13 1922.17 946.52 1922.17 951.14V974H1908.13ZM2001 974.72C1996.92 974.72 1993.35 973.82 1990.29 972.02C1987.23 970.22 1984.83 967.49 1983.09 963.83C1981.41 960.11 1980.57 955.43 1980.57 949.79C1980.57 944.09 1981.38 939.41 1983 935.75C1984.62 932.09 1986.96 929.36 1990.02 927.56C1993.08 925.76 1996.74 924.86 2001 924.86C2005.56 924.86 2009.64 925.91 2013.24 928.01C2016.9 930.05 2019.78 932.93 2021.88 936.65C2024.04 940.37 2025.12 944.75 2025.12 949.79C2025.12 954.89 2024.04 959.3 2021.88 963.02C2019.78 966.74 2016.9 969.62 2013.24 971.66C2009.64 973.7 2005.56 974.72 2001 974.72ZM1972.38 991.46V925.58H1985.79V935.48L1985.52 949.88L1986.42 964.19V991.46H1972.38ZM1998.57 963.2C2000.91 963.2 2002.98 962.66 2004.78 961.58C2006.64 960.5 2008.11 958.97 2009.19 956.99C2010.33 954.95 2010.9 952.55 2010.9 949.79C2010.9 946.97 2010.33 944.57 2009.19 942.59C2008.11 940.61 2006.64 939.08 2004.78 938C2002.98 936.92 2000.91 936.38 1998.57 936.38C1996.23 936.38 1994.13 936.92 1992.27 938C1990.41 939.08 1988.94 940.61 1987.86 942.59C1986.78 944.57 1986.24 946.97 1986.24 949.79C1986.24 952.55 1986.78 954.95 1987.86 956.99C1988.94 958.97 1990.41 960.5 1992.27 961.58C1994.13 962.66 1996.23 963.2 1998.57 963.2ZM2034.52 974V925.58H2047.93V939.26L2046.04 935.3C2047.48 931.88 2049.79 929.3 2052.97 927.56C2056.15 925.76 2060.02 924.86 2064.58 924.86V937.82C2063.98 937.76 2063.44 937.73 2062.96 937.73C2062.48 937.67 2061.97 937.64 2061.43 937.64C2057.59 937.64 2054.47 938.75 2052.07 940.97C2049.73 943.13 2048.56 946.52 2048.56 951.14V974H2034.52ZM2095.61 974.72C2090.45 974.72 2085.86 973.64 2081.84 971.48C2077.88 969.32 2074.73 966.38 2072.39 962.66C2070.11 958.88 2068.97 954.59 2068.97 949.79C2068.97 944.93 2070.11 940.64 2072.39 936.92C2074.73 933.14 2077.88 930.2 2081.84 928.1C2085.86 925.94 2090.45 924.86 2095.61 924.86C2100.71 924.86 2105.27 925.94 2109.29 928.1C2113.31 930.2 2116.46 933.11 2118.74 936.83C2121.02 940.55 2122.16 944.87 2122.16 949.79C2122.16 954.59 2121.02 958.88 2118.74 962.66C2116.46 966.38 2113.31 969.32 2109.29 971.48C2105.27 973.64 2100.71 974.72 2095.61 974.72ZM2095.61 963.2C2097.95 963.2 2100.05 962.66 2101.91 961.58C2103.77 960.5 2105.24 958.97 2106.32 956.99C2107.4 954.95 2107.94 952.55 2107.94 949.79C2107.94 946.97 2107.4 944.57 2106.32 942.59C2105.24 940.61 2103.77 939.08 2101.91 938C2100.05 936.92 2097.95 936.38 2095.61 936.38C2093.27 936.38 2091.17 936.92 2089.31 938C2087.45 939.08 2085.95 940.61 2084.81 942.59C2083.73 944.57 2083.19 946.97 2083.19 949.79C2083.19 952.55 2083.73 954.95 2084.81 956.99C2085.95 958.97 2087.45 960.5 2089.31 961.58C2091.17 962.66 2093.27 963.2 2095.61 963.2ZM2154.95 974.72C2149.73 974.72 2145.08 973.67 2141 971.57C2136.92 969.41 2133.71 966.44 2131.37 962.66C2129.09 958.88 2127.95 954.59 2127.95 949.79C2127.95 944.93 2129.09 940.64 2131.37 936.92C2133.71 933.14 2136.92 930.2 2141 928.1C2145.08 925.94 2149.73 924.86 2154.95 924.86C2160.05 924.86 2164.49 925.94 2168.27 928.1C2172.05 930.2 2174.84 933.23 2176.64 937.19L2165.75 943.04C2164.49 940.76 2162.9 939.08 2160.98 938C2159.12 936.92 2157.08 936.38 2154.86 936.38C2152.46 936.38 2150.3 936.92 2148.38 938C2146.46 939.08 2144.93 940.61 2143.79 942.59C2142.71 944.57 2142.17 946.97 2142.17 949.79C2142.17 952.61 2142.71 955.01 2143.79 956.99C2144.93 958.97 2146.46 960.5 2148.38 961.58C2150.3 962.66 2152.46 963.2 2154.86 963.2C2157.08 963.2 2159.12 962.69 2160.98 961.67C2162.9 960.59 2164.49 958.88 2165.75 956.54L2176.64 962.48C2174.84 966.38 2172.05 969.41 2168.27 971.57C2164.49 973.67 2160.05 974.72 2154.95 974.72ZM2208.14 974.72C2202.62 974.72 2197.76 973.64 2193.56 971.48C2189.42 969.32 2186.21 966.38 2183.93 962.66C2181.65 958.88 2180.51 954.59 2180.51 949.79C2180.51 944.93 2181.62 940.64 2183.84 936.92C2186.12 933.14 2189.21 930.2 2193.11 928.1C2197.01 925.94 2201.42 924.86 2206.34 924.86C2211.08 924.86 2215.34 925.88 2219.12 927.92C2222.96 929.9 2225.99 932.78 2228.21 936.56C2230.43 940.28 2231.54 944.75 2231.54 949.97C2231.54 950.51 2231.51 951.14 2231.45 951.86C2231.39 952.52 2231.33 953.15 2231.27 953.75H2191.94V945.56H2223.88L2218.49 947.99C2218.49 945.47 2217.98 943.28 2216.96 941.42C2215.94 939.56 2214.53 938.12 2212.73 937.1C2210.93 936.02 2208.83 935.48 2206.43 935.48C2204.03 935.48 2201.9 936.02 2200.04 937.1C2198.24 938.12 2196.83 939.59 2195.81 941.51C2194.79 943.37 2194.28 945.59 2194.28 948.17V950.33C2194.28 952.97 2194.85 955.31 2195.99 957.35C2197.19 959.33 2198.84 960.86 2200.94 961.94C2203.1 962.96 2205.62 963.47 2208.5 963.47C2211.08 963.47 2213.33 963.08 2215.25 962.3C2217.23 961.52 2219.03 960.35 2220.65 958.79L2228.12 966.89C2225.9 969.41 2223.11 971.36 2219.75 972.74C2216.39 974.06 2212.52 974.72 2208.14 974.72ZM2257.17 974.72C2253.03 974.72 2249.04 974.24 2245.2 973.28C2241.42 972.26 2238.42 971 2236.2 969.5L2240.88 959.42C2243.1 960.8 2245.71 961.94 2248.71 962.84C2251.77 963.68 2254.77 964.1 2257.71 964.1C2260.95 964.1 2263.23 963.71 2264.55 962.93C2265.93 962.15 2266.62 961.07 2266.62 959.69C2266.62 958.55 2266.08 957.71 2265 957.17C2263.98 956.57 2262.6 956.12 2260.86 955.82C2259.12 955.52 2257.2 955.22 2255.1 954.92C2253.06 954.62 2250.99 954.23 2248.89 953.75C2246.79 953.21 2244.87 952.43 2243.13 951.41C2241.39 950.39 2239.98 949.01 2238.9 947.27C2237.88 945.53 2237.37 943.28 2237.37 940.52C2237.37 937.46 2238.24 934.76 2239.98 932.42C2241.78 930.08 2244.36 928.25 2247.72 926.93C2251.08 925.55 2255.1 924.86 2259.78 924.86C2263.08 924.86 2266.44 925.22 2269.86 925.94C2273.28 926.66 2276.13 927.71 2278.41 929.09L2273.73 939.08C2271.39 937.7 2269.02 936.77 2266.62 936.29C2264.28 935.75 2262 935.48 2259.78 935.48C2256.66 935.48 2254.38 935.9 2252.94 936.74C2251.5 937.58 2250.78 938.66 2250.78 939.98C2250.78 941.18 2251.29 942.08 2252.31 942.68C2253.39 943.28 2254.8 943.76 2256.54 944.12C2258.28 944.48 2260.17 944.81 2262.21 945.11C2264.31 945.35 2266.41 945.74 2268.51 946.28C2270.61 946.82 2272.5 947.6 2274.18 948.62C2275.92 949.58 2277.33 950.93 2278.41 952.67C2279.49 954.35 2280.03 956.57 2280.03 959.33C2280.03 962.33 2279.13 965 2277.33 967.34C2275.53 969.62 2272.92 971.42 2269.5 972.74C2266.14 974.06 2262.03 974.72 2257.17 974.72ZM2304.98 974.72C2300.84 974.72 2296.85 974.24 2293.01 973.28C2289.23 972.26 2286.23 971 2284.01 969.5L2288.69 959.42C2290.91 960.8 2293.52 961.94 2296.52 962.84C2299.58 963.68 2302.58 964.1 2305.52 964.1C2308.76 964.1 2311.04 963.71 2312.36 962.93C2313.74 962.15 2314.43 961.07 2314.43 959.69C2314.43 958.55 2313.89 957.71 2312.81 957.17C2311.79 956.57 2310.41 956.12 2308.67 955.82C2306.93 955.52 2305.01 955.22 2302.91 954.92C2300.87 954.62 2298.8 954.23 2296.7 953.75C2294.6 953.21 2292.68 952.43 2290.94 951.41C2289.2 950.39 2287.79 949.01 2286.71 947.27C2285.69 945.53 2285.18 943.28 2285.18 940.52C2285.18 937.46 2286.05 934.76 2287.79 932.42C2289.59 930.08 2292.17 928.25 2295.53 926.93C2298.89 925.55 2302.91 924.86 2307.59 924.86C2310.89 924.86 2314.25 925.22 2317.67 925.94C2321.09 926.66 2323.94 927.71 2326.22 929.09L2321.54 939.08C2319.2 937.7 2316.83 936.77 2314.43 936.29C2312.09 935.75 2309.81 935.48 2307.59 935.48C2304.47 935.48 2302.19 935.9 2300.75 936.74C2299.31 937.58 2298.59 938.66 2298.59 939.98C2298.59 941.18 2299.1 942.08 2300.12 942.68C2301.2 943.28 2302.61 943.76 2304.35 944.12C2306.09 944.48 2307.98 944.81 2310.02 945.11C2312.12 945.35 2314.22 945.74 2316.32 946.28C2318.42 946.82 2320.31 947.6 2321.99 948.62C2323.73 949.58 2325.14 950.93 2326.22 952.67C2327.3 954.35 2327.84 956.57 2327.84 959.33C2327.84 962.33 2326.94 965 2325.14 967.34C2323.34 969.62 2320.73 971.42 2317.31 972.74C2313.95 974.06 2309.84 974.72 2304.98 974.72ZM2359.55 974.72C2354.39 974.72 2349.8 973.64 2345.78 971.48C2341.82 969.32 2338.67 966.38 2336.33 962.66C2334.05 958.88 2332.91 954.59 2332.91 949.79C2332.91 944.93 2334.05 940.64 2336.33 936.92C2338.67 933.14 2341.82 930.2 2345.78 928.1C2349.8 925.94 2354.39 924.86 2359.55 924.86C2364.65 924.86 2369.21 925.94 2373.23 928.1C2377.25 930.2 2380.4 933.11 2382.68 936.83C2384.96 940.55 2386.1 944.87 2386.1 949.79C2386.1 954.59 2384.96 958.88 2382.68 962.66C2380.4 966.38 2377.25 969.32 2373.23 971.48C2369.21 973.64 2364.65 974.72 2359.55 974.72ZM2359.55 963.2C2361.89 963.2 2363.99 962.66 2365.85 961.58C2367.71 960.5 2369.18 958.97 2370.26 956.99C2371.34 954.95 2371.88 952.55 2371.88 949.79C2371.88 946.97 2371.34 944.57 2370.26 942.59C2369.18 940.61 2367.71 939.08 2365.85 938C2363.99 936.92 2361.89 936.38 2359.55 936.38C2357.21 936.38 2355.11 936.92 2353.25 938C2351.39 939.08 2349.89 940.61 2348.75 942.59C2347.67 944.57 2347.13 946.97 2347.13 949.79C2347.13 952.55 2347.67 954.95 2348.75 956.99C2349.89 958.97 2351.39 960.5 2353.25 961.58C2355.11 962.66 2357.21 963.2 2359.55 963.2ZM2411.77 974.72C2407.63 974.72 2403.64 974.24 2399.8 973.28C2396.02 972.26 2393.02 971 2390.8 969.5L2395.48 959.42C2397.7 960.8 2400.31 961.94 2403.31 962.84C2406.37 963.68 2409.37 964.1 2412.31 964.1C2415.55 964.1 2417.83 963.71 2419.15 962.93C2420.53 962.15 2421.22 961.07 2421.22 959.69C2421.22 958.55 2420.68 957.71 2419.6 957.17C2418.58 956.57 2417.2 956.12 2415.46 955.82C2413.72 955.52 2411.8 955.22 2409.7 954.92C2407.66 954.62 2405.59 954.23 2403.49 953.75C2401.39 953.21 2399.47 952.43 2397.73 951.41C2395.99 950.39 2394.58 949.01 2393.5 947.27C2392.48 945.53 2391.97 943.28 2391.97 940.52C2391.97 937.46 2392.84 934.76 2394.58 932.42C2396.38 930.08 2398.96 928.25 2402.32 926.93C2405.68 925.55 2409.7 924.86 2414.38 924.86C2417.68 924.86 2421.04 925.22 2424.46 925.94C2427.88 926.66 2430.73 927.71 2433.01 929.09L2428.33 939.08C2425.99 937.7 2423.62 936.77 2421.22 936.29C2418.88 935.75 2416.6 935.48 2414.38 935.48C2411.26 935.48 2408.98 935.9 2407.54 936.74C2406.1 937.58 2405.38 938.66 2405.38 939.98C2405.38 941.18 2405.89 942.08 2406.91 942.68C2407.99 943.28 2409.4 943.76 2411.14 944.12C2412.88 944.48 2414.77 944.81 2416.81 945.11C2418.91 945.35 2421.01 945.74 2423.11 946.28C2425.21 946.82 2427.1 947.6 2428.78 948.62C2430.52 949.58 2431.93 950.93 2433.01 952.67C2434.09 954.35 2434.63 956.57 2434.63 959.33C2434.63 962.33 2433.73 965 2431.93 967.34C2430.13 969.62 2427.52 971.42 2424.1 972.74C2420.74 974.06 2416.63 974.72 2411.77 974.72ZM2492.81 974.72C2487.29 974.72 2482.43 973.64 2478.23 971.48C2474.09 969.32 2470.88 966.38 2468.6 962.66C2466.32 958.88 2465.18 954.59 2465.18 949.79C2465.18 944.93 2466.29 940.64 2468.51 936.92C2470.79 933.14 2473.88 930.2 2477.78 928.1C2481.68 925.94 2486.09 924.86 2491.01 924.86C2495.75 924.86 2500.01 925.88 2503.79 927.92C2507.63 929.9 2510.66 932.78 2512.88 936.56C2515.1 940.28 2516.21 944.75 2516.21 949.97C2516.21 950.51 2516.18 951.14 2516.12 951.86C2516.06 952.52 2516 953.15 2515.94 953.75H2476.61V945.56H2508.56L2503.16 947.99C2503.16 945.47 2502.65 943.28 2501.63 941.42C2500.61 939.56 2499.2 938.12 2497.4 937.1C2495.6 936.02 2493.5 935.48 2491.1 935.48C2488.7 935.48 2486.57 936.02 2484.71 937.1C2482.91 938.12 2481.5 939.59 2480.48 941.51C2479.46 943.37 2478.95 945.59 2478.95 948.17V950.33C2478.95 952.97 2479.52 955.31 2480.66 957.35C2481.86 959.33 2483.51 960.86 2485.61 961.94C2487.77 962.96 2490.29 963.47 2493.17 963.47C2495.75 963.47 2498 963.08 2499.92 962.3C2501.9 961.52 2503.7 960.35 2505.32 958.79L2512.79 966.89C2510.57 969.41 2507.78 971.36 2504.42 972.74C2501.06 974.06 2497.19 974.72 2492.81 974.72ZM2574.09 974.72C2568.93 974.72 2564.34 973.64 2560.32 971.48C2556.36 969.32 2553.21 966.38 2550.87 962.66C2548.59 958.88 2547.45 954.59 2547.45 949.79C2547.45 944.93 2548.59 940.64 2550.87 936.92C2553.21 933.14 2556.36 930.2 2560.32 928.1C2564.34 925.94 2568.93 924.86 2574.09 924.86C2579.19 924.86 2583.75 925.94 2587.77 928.1C2591.79 930.2 2594.94 933.11 2597.22 936.83C2599.5 940.55 2600.64 944.87 2600.64 949.79C2600.64 954.59 2599.5 958.88 2597.22 962.66C2594.94 966.38 2591.79 969.32 2587.77 971.48C2583.75 973.64 2579.19 974.72 2574.09 974.72ZM2574.09 963.2C2576.43 963.2 2578.53 962.66 2580.39 961.58C2582.25 960.5 2583.72 958.97 2584.8 956.99C2585.88 954.95 2586.42 952.55 2586.42 949.79C2586.42 946.97 2585.88 944.57 2584.8 942.59C2583.72 940.61 2582.25 939.08 2580.39 938C2578.53 936.92 2576.43 936.38 2574.09 936.38C2571.75 936.38 2569.65 936.92 2567.79 938C2565.93 939.08 2564.43 940.61 2563.29 942.59C2562.21 944.57 2561.67 946.97 2561.67 949.79C2561.67 952.55 2562.21 954.95 2563.29 956.99C2564.43 958.97 2565.93 960.5 2567.79 961.58C2569.65 962.66 2571.75 963.2 2574.09 963.2ZM2655.31 974.72C2649.61 974.72 2645.17 973.28 2641.99 970.4C2638.81 967.46 2637.22 963.11 2637.22 957.35V914.87H2651.26V957.17C2651.26 959.21 2651.8 960.8 2652.88 961.94C2653.96 963.02 2655.43 963.56 2657.29 963.56C2659.51 963.56 2661.4 962.96 2662.96 961.76L2666.74 971.66C2665.3 972.68 2663.56 973.46 2661.52 974C2659.54 974.48 2657.47 974.72 2655.31 974.72ZM2629.75 937.46V926.66H2663.32V937.46H2629.75ZM2674.62 974V925.58H2688.03V939.26L2686.14 935.3C2687.58 931.88 2689.89 929.3 2693.07 927.56C2696.25 925.76 2700.12 924.86 2704.68 924.86V937.82C2704.08 937.76 2703.54 937.73 2703.06 937.73C2702.58 937.67 2702.07 937.64 2701.53 937.64C2697.69 937.64 2694.57 938.75 2692.17 940.97C2689.83 943.13 2688.66 946.52 2688.66 951.14V974H2674.62ZM2739.57 974V964.55L2738.67 962.48V945.56C2738.67 942.56 2737.74 940.22 2735.88 938.54C2734.08 936.86 2731.29 936.02 2727.51 936.02C2724.93 936.02 2722.38 936.44 2719.86 937.28C2717.4 938.06 2715.3 939.14 2713.56 940.52L2708.52 930.71C2711.16 928.85 2714.34 927.41 2718.06 926.39C2721.78 925.37 2725.56 924.86 2729.4 924.86C2736.78 924.86 2742.51 926.6 2746.59 930.08C2750.67 933.56 2752.71 938.99 2752.71 946.37V974H2739.57ZM2724.81 974.72C2721.03 974.72 2717.79 974.09 2715.09 972.83C2712.39 971.51 2710.32 969.74 2708.88 967.52C2707.44 965.3 2706.72 962.81 2706.72 960.05C2706.72 957.17 2707.41 954.65 2708.79 952.49C2710.23 950.33 2712.48 948.65 2715.54 947.45C2718.6 946.19 2722.59 945.56 2727.51 945.56H2740.38V953.75H2729.04C2725.74 953.75 2723.46 954.29 2722.2 955.37C2721 956.45 2720.4 957.8 2720.4 959.42C2720.4 961.22 2721.09 962.66 2722.47 963.74C2723.91 964.76 2725.86 965.27 2728.32 965.27C2730.66 965.27 2732.76 964.73 2734.62 963.65C2736.48 962.51 2737.83 960.86 2738.67 958.7L2740.83 965.18C2739.81 968.3 2737.95 970.67 2735.25 972.29C2732.55 973.91 2729.07 974.72 2724.81 974.72ZM2794.03 974.72C2789.77 974.72 2786.11 973.82 2783.05 972.02C2779.99 970.22 2777.65 967.49 2776.03 963.83C2774.41 960.11 2773.6 955.43 2773.6 949.79C2773.6 944.09 2774.44 939.41 2776.12 935.75C2777.86 932.09 2780.26 929.36 2783.32 927.56C2786.38 925.76 2789.95 924.86 2794.03 924.86C2798.59 924.86 2802.67 925.88 2806.27 927.92C2809.93 929.96 2812.81 932.84 2814.91 936.56C2817.07 940.28 2818.15 944.69 2818.15 949.79C2818.15 954.83 2817.07 959.21 2814.91 962.93C2812.81 966.65 2809.93 969.56 2806.27 971.66C2802.67 973.7 2798.59 974.72 2794.03 974.72ZM2765.41 974V907.22H2779.45V935.39L2778.55 949.7L2778.82 964.1V974H2765.41ZM2791.6 963.2C2793.94 963.2 2796.01 962.66 2797.81 961.58C2799.67 960.5 2801.14 958.97 2802.22 956.99C2803.36 954.95 2803.93 952.55 2803.93 949.79C2803.93 946.97 2803.36 944.57 2802.22 942.59C2801.14 940.61 2799.67 939.08 2797.81 938C2796.01 936.92 2793.94 936.38 2791.6 936.38C2789.26 936.38 2787.16 936.92 2785.3 938C2783.44 939.08 2781.97 940.61 2780.89 942.59C2779.81 944.57 2779.27 946.97 2779.27 949.79C2779.27 952.55 2779.81 954.95 2780.89 956.99C2781.97 958.97 2783.44 960.5 2785.3 961.58C2787.16 962.66 2789.26 963.2 2791.6 963.2ZM2856.46 974V964.55L2855.56 962.48V945.56C2855.56 942.56 2854.63 940.22 2852.77 938.54C2850.97 936.86 2848.18 936.02 2844.4 936.02C2841.82 936.02 2839.27 936.44 2836.75 937.28C2834.29 938.06 2832.19 939.14 2830.45 940.52L2825.41 930.71C2828.05 928.85 2831.23 927.41 2834.95 926.39C2838.67 925.37 2842.45 924.86 2846.29 924.86C2853.67 924.86 2859.4 926.6 2863.48 930.08C2867.56 933.56 2869.6 938.99 2869.6 946.37V974H2856.46ZM2841.7 974.72C2837.92 974.72 2834.68 974.09 2831.98 972.83C2829.28 971.51 2827.21 969.74 2825.77 967.52C2824.33 965.3 2823.61 962.81 2823.61 960.05C2823.61 957.17 2824.3 954.65 2825.68 952.49C2827.12 950.33 2829.37 948.65 2832.43 947.45C2835.49 946.19 2839.48 945.56 2844.4 945.56H2857.27V953.75H2845.93C2842.63 953.75 2840.35 954.29 2839.09 955.37C2837.89 956.45 2837.29 957.8 2837.29 959.42C2837.29 961.22 2837.98 962.66 2839.36 963.74C2840.8 964.76 2842.75 965.27 2845.21 965.27C2847.55 965.27 2849.65 964.73 2851.51 963.65C2853.37 962.51 2854.72 960.86 2855.56 958.7L2857.72 965.18C2856.7 968.3 2854.84 970.67 2852.14 972.29C2849.44 973.91 2845.96 974.72 2841.7 974.72ZM2882.31 974V907.22H2896.35V974H2882.31ZM2938.81 924.86C2942.65 924.86 2946.07 925.64 2949.07 927.2C2952.13 928.7 2954.53 931.04 2956.27 934.22C2958.01 937.34 2958.88 941.36 2958.88 946.28V974H2944.84V948.44C2944.84 944.54 2943.97 941.66 2942.23 939.8C2940.55 937.94 2938.15 937.01 2935.03 937.01C2932.81 937.01 2930.8 937.49 2929 938.45C2927.26 939.35 2925.88 940.76 2924.86 942.68C2923.9 944.6 2923.42 947.06 2923.42 950.06V974H2909.38V907.22H2923.42V938.99L2920.27 934.94C2922.01 931.7 2924.5 929.21 2927.74 927.47C2930.98 925.73 2934.67 924.86 2938.81 924.86ZM2995 974.72C2989.84 974.72 2985.25 973.64 2981.23 971.48C2977.27 969.32 2974.12 966.38 2971.78 962.66C2969.5 958.88 2968.36 954.59 2968.36 949.79C2968.36 944.93 2969.5 940.64 2971.78 936.92C2974.12 933.14 2977.27 930.2 2981.23 928.1C2985.25 925.94 2989.84 924.86 2995 924.86C3000.1 924.86 3004.66 925.94 3008.68 928.1C3012.7 930.2 3015.85 933.11 3018.13 936.83C3020.41 940.55 3021.55 944.87 3021.55 949.79C3021.55 954.59 3020.41 958.88 3018.13 962.66C3015.85 966.38 3012.7 969.32 3008.68 971.48C3004.66 973.64 3000.1 974.72 2995 974.72ZM2995 963.2C2997.34 963.2 2999.44 962.66 3001.3 961.58C3003.16 960.5 3004.63 958.97 3005.71 956.99C3006.79 954.95 3007.33 952.55 3007.33 949.79C3007.33 946.97 3006.79 944.57 3005.71 942.59C3004.63 940.61 3003.16 939.08 3001.3 938C2999.44 936.92 2997.34 936.38 2995 936.38C2992.66 936.38 2990.56 936.92 2988.7 938C2986.84 939.08 2985.34 940.61 2984.2 942.59C2983.12 944.57 2982.58 946.97 2982.58 949.79C2982.58 952.55 2983.12 954.95 2984.2 956.99C2985.34 958.97 2986.84 960.5 2988.7 961.58C2990.56 962.66 2992.66 963.2 2995 963.2ZM3085.04 974.72C3080.96 974.72 3077.39 973.82 3074.33 972.02C3071.27 970.22 3068.87 967.49 3067.13 963.83C3065.45 960.11 3064.61 955.43 3064.61 949.79C3064.61 944.09 3065.42 939.41 3067.04 935.75C3068.66 932.09 3071 929.36 3074.06 927.56C3077.12 925.76 3080.78 924.86 3085.04 924.86C3089.6 924.86 3093.68 925.91 3097.28 928.01C3100.94 930.05 3103.82 932.93 3105.92 936.65C3108.08 940.37 3109.16 944.75 3109.16 949.79C3109.16 954.89 3108.08 959.3 3105.92 963.02C3103.82 966.74 3100.94 969.62 3097.28 971.66C3093.68 973.7 3089.6 974.72 3085.04 974.72ZM3056.42 991.46V925.58H3069.83V935.48L3069.56 949.88L3070.46 964.19V991.46H3056.42ZM3082.61 963.2C3084.95 963.2 3087.02 962.66 3088.82 961.58C3090.68 960.5 3092.15 958.97 3093.23 956.99C3094.37 954.95 3094.94 952.55 3094.94 949.79C3094.94 946.97 3094.37 944.57 3093.23 942.59C3092.15 940.61 3090.68 939.08 3088.82 938C3087.02 936.92 3084.95 936.38 3082.61 936.38C3080.27 936.38 3078.17 936.92 3076.31 938C3074.45 939.08 3072.98 940.61 3071.9 942.59C3070.82 944.57 3070.28 946.97 3070.28 949.79C3070.28 952.55 3070.82 954.95 3071.9 956.99C3072.98 958.97 3074.45 960.5 3076.31 961.58C3078.17 962.66 3080.27 963.2 3082.61 963.2ZM3118.56 974V925.58H3131.97V939.26L3130.08 935.3C3131.52 931.88 3133.83 929.3 3137.01 927.56C3140.19 925.76 3144.06 924.86 3148.62 924.86V937.82C3148.02 937.76 3147.48 937.73 3147 937.73C3146.52 937.67 3146.01 937.64 3145.47 937.64C3141.63 937.64 3138.51 938.75 3136.11 940.97C3133.77 943.13 3132.6 946.52 3132.6 951.14V974H3118.56ZM3179.65 974.72C3174.49 974.72 3169.9 973.64 3165.88 971.48C3161.92 969.32 3158.77 966.38 3156.43 962.66C3154.15 958.88 3153.01 954.59 3153.01 949.79C3153.01 944.93 3154.15 940.64 3156.43 936.92C3158.77 933.14 3161.92 930.2 3165.88 928.1C3169.9 925.94 3174.49 924.86 3179.65 924.86C3184.75 924.86 3189.31 925.94 3193.33 928.1C3197.35 930.2 3200.5 933.11 3202.78 936.83C3205.06 940.55 3206.2 944.87 3206.2 949.79C3206.2 954.59 3205.06 958.88 3202.78 962.66C3200.5 966.38 3197.35 969.32 3193.33 971.48C3189.31 973.64 3184.75 974.72 3179.65 974.72ZM3179.65 963.2C3181.99 963.2 3184.09 962.66 3185.95 961.58C3187.81 960.5 3189.28 958.97 3190.36 956.99C3191.44 954.95 3191.98 952.55 3191.98 949.79C3191.98 946.97 3191.44 944.57 3190.36 942.59C3189.28 940.61 3187.81 939.08 3185.95 938C3184.09 936.92 3181.99 936.38 3179.65 936.38C3177.31 936.38 3175.21 936.92 3173.35 938C3171.49 939.08 3169.99 940.61 3168.85 942.59C3167.77 944.57 3167.23 946.97 3167.23 949.79C3167.23 952.55 3167.77 954.95 3168.85 956.99C3169.99 958.97 3171.49 960.5 3173.35 961.58C3175.21 962.66 3177.31 963.2 3179.65 963.2ZM3211.99 992.18C3209.83 992.18 3207.76 991.94 3205.78 991.46C3203.8 991.04 3202.12 990.38 3200.74 989.48L3204.52 979.31C3206.14 980.45 3208.12 981.02 3210.46 981.02C3212.2 981.02 3213.58 980.42 3214.6 979.22C3215.68 978.08 3216.22 976.34 3216.22 974V925.58H3230.26V973.91C3230.26 979.49 3228.67 983.93 3225.49 987.23C3222.31 990.53 3217.81 992.18 3211.99 992.18ZM3223.24 918.83C3220.66 918.83 3218.56 918.08 3216.94 916.58C3215.32 915.08 3214.51 913.22 3214.51 911C3214.51 908.78 3215.32 906.92 3216.94 905.42C3218.56 903.92 3220.66 903.17 3223.24 903.17C3225.82 903.17 3227.92 903.89 3229.54 905.33C3231.16 906.71 3231.97 908.51 3231.97 910.73C3231.97 913.07 3231.16 915.02 3229.54 916.58C3227.98 918.08 3225.88 918.83 3223.24 918.83ZM3267.22 974.72C3261.7 974.72 3256.84 973.64 3252.64 971.48C3248.5 969.32 3245.29 966.38 3243.01 962.66C3240.73 958.88 3239.59 954.59 3239.59 949.79C3239.59 944.93 3240.7 940.64 3242.92 936.92C3245.2 933.14 3248.29 930.2 3252.19 928.1C3256.09 925.94 3260.5 924.86 3265.42 924.86C3270.16 924.86 3274.42 925.88 3278.2 927.92C3282.04 929.9 3285.07 932.78 3287.29 936.56C3289.51 940.28 3290.62 944.75 3290.62 949.97C3290.62 950.51 3290.59 951.14 3290.53 951.86C3290.47 952.52 3290.41 953.15 3290.35 953.75H3251.02V945.56H3282.97L3277.57 947.99C3277.57 945.47 3277.06 943.28 3276.04 941.42C3275.02 939.56 3273.61 938.12 3271.81 937.1C3270.01 936.02 3267.91 935.48 3265.51 935.48C3263.11 935.48 3260.98 936.02 3259.12 937.1C3257.32 938.12 3255.91 939.59 3254.89 941.51C3253.87 943.37 3253.36 945.59 3253.36 948.17V950.33C3253.36 952.97 3253.93 955.31 3255.07 957.35C3256.27 959.33 3257.92 960.86 3260.02 961.94C3262.18 962.96 3264.7 963.47 3267.58 963.47C3270.16 963.47 3272.41 963.08 3274.33 962.3C3276.31 961.52 3278.11 960.35 3279.73 958.79L3287.2 966.89C3284.98 969.41 3282.19 971.36 3278.83 972.74C3275.47 974.06 3271.6 974.72 3267.22 974.72ZM3319.76 974.72C3314.06 974.72 3309.62 973.28 3306.44 970.4C3303.26 967.46 3301.67 963.11 3301.67 957.35V914.87H3315.71V957.17C3315.71 959.21 3316.25 960.8 3317.33 961.94C3318.41 963.02 3319.88 963.56 3321.74 963.56C3323.96 963.56 3325.85 962.96 3327.41 961.76L3331.19 971.66C3329.75 972.68 3328.01 973.46 3325.97 974C3323.99 974.48 3321.92 974.72 3319.76 974.72ZM3294.2 937.46V926.66H3327.77V937.46H3294.2ZM3359.51 974.72C3355.49 974.72 3351.89 973.94 3348.71 972.38C3345.59 970.82 3343.16 968.45 3341.42 965.27C3339.68 962.03 3338.81 957.92 3338.81 952.94V925.58H3352.85V950.87C3352.85 954.89 3353.69 957.86 3355.37 959.78C3357.11 961.64 3359.54 962.57 3362.66 962.57C3364.82 962.57 3366.74 962.12 3368.42 961.22C3370.1 960.26 3371.42 958.82 3372.38 956.9C3373.34 954.92 3373.82 952.46 3373.82 949.52V925.58H3387.86V974H3374.54V960.68L3376.97 964.55C3375.35 967.91 3372.95 970.46 3369.77 972.2C3366.65 973.88 3363.23 974.72 3359.51 974.72ZM3430.56 974V964.55L3429.66 962.48V945.56C3429.66 942.56 3428.73 940.22 3426.87 938.54C3425.07 936.86 3422.28 936.02 3418.5 936.02C3415.92 936.02 3413.37 936.44 3410.85 937.28C3408.39 938.06 3406.29 939.14 3404.55 940.52L3399.51 930.71C3402.15 928.85 3405.33 927.41 3409.05 926.39C3412.77 925.37 3416.55 924.86 3420.39 924.86C3427.77 924.86 3433.5 926.6 3437.58 930.08C3441.66 933.56 3443.7 938.99 3443.7 946.37V974H3430.56ZM3415.8 974.72C3412.02 974.72 3408.78 974.09 3406.08 972.83C3403.38 971.51 3401.31 969.74 3399.87 967.52C3398.43 965.3 3397.71 962.81 3397.71 960.05C3397.71 957.17 3398.4 954.65 3399.78 952.49C3401.22 950.33 3403.47 948.65 3406.53 947.45C3409.59 946.19 3413.58 945.56 3418.5 945.56H3431.37V953.75H3420.03C3416.73 953.75 3414.45 954.29 3413.19 955.37C3411.99 956.45 3411.39 957.8 3411.39 959.42C3411.39 961.22 3412.08 962.66 3413.46 963.74C3414.9 964.76 3416.85 965.27 3419.31 965.27C3421.65 965.27 3423.75 964.73 3425.61 963.65C3427.47 962.51 3428.82 960.86 3429.66 958.7L3431.82 965.18C3430.8 968.3 3428.94 970.67 3426.24 972.29C3423.54 973.91 3420.06 974.72 3415.8 974.72ZM3456.41 974V907.22H3470.45V974H3456.41Z" fill="#DDDDDD"/>
</svg>
