<svg width="3745" height="1780" viewBox="0 0 3745 1780" fill="none" xmlns="http://www.w3.org/2000/svg">
<path d="M1210.16 652.68C1196.25 652.68 1185.38 648.807 1177.54 641.06C1169.7 633.313 1165.78 622.253 1165.78 607.88V553H1188.46V607.04C1188.46 616.373 1190.37 623.093 1194.2 627.2C1198.03 631.307 1203.39 633.36 1210.3 633.36C1217.21 633.36 1222.57 631.307 1226.4 627.2C1230.23 623.093 1232.14 616.373 1232.14 607.04V553H1254.54V607.88C1254.54 622.253 1250.62 633.313 1242.78 641.06C1234.94 648.807 1224.07 652.68 1210.16 652.68ZM1300.75 652.12C1294.31 652.12 1288.11 651.373 1282.13 649.88C1276.25 648.293 1271.59 646.333 1268.13 644L1275.41 628.32C1278.87 630.467 1282.93 632.24 1287.59 633.64C1292.35 634.947 1297.02 635.6 1301.59 635.6C1306.63 635.6 1310.18 634.993 1312.23 633.78C1314.38 632.567 1315.45 630.887 1315.45 628.74C1315.45 626.967 1314.61 625.66 1312.93 624.82C1311.35 623.887 1309.2 623.187 1306.49 622.72C1303.79 622.253 1300.8 621.787 1297.53 621.32C1294.36 620.853 1291.14 620.247 1287.87 619.5C1284.61 618.66 1281.62 617.447 1278.91 615.86C1276.21 614.273 1274.01 612.127 1272.33 609.42C1270.75 606.713 1269.95 603.213 1269.95 598.92C1269.95 594.16 1271.31 589.96 1274.01 586.32C1276.81 582.68 1280.83 579.833 1286.05 577.78C1291.28 575.633 1297.53 574.56 1304.81 574.56C1309.95 574.56 1315.17 575.12 1320.49 576.24C1325.81 577.36 1330.25 578.993 1333.79 581.14L1326.51 596.68C1322.87 594.533 1319.19 593.087 1315.45 592.34C1311.81 591.5 1308.27 591.08 1304.81 591.08C1299.96 591.08 1296.41 591.733 1294.17 593.04C1291.93 594.347 1290.81 596.027 1290.81 598.08C1290.81 599.947 1291.61 601.347 1293.19 602.28C1294.87 603.213 1297.07 603.96 1299.77 604.52C1302.48 605.08 1305.42 605.593 1308.59 606.06C1311.86 606.433 1315.13 607.04 1318.39 607.88C1321.66 608.72 1324.6 609.933 1327.21 611.52C1329.92 613.013 1332.11 615.113 1333.79 617.82C1335.47 620.433 1336.31 623.887 1336.31 628.18C1336.31 632.847 1334.91 637 1332.11 640.64C1329.31 644.187 1325.25 646.987 1319.93 649.04C1314.71 651.093 1308.31 652.12 1300.75 652.12ZM1385.63 652.12C1377.6 652.12 1370.46 650.44 1364.21 647.08C1358.05 643.72 1353.15 639.147 1349.51 633.36C1345.96 627.48 1344.19 620.807 1344.19 613.34C1344.19 605.78 1345.96 599.107 1349.51 593.32C1353.15 587.44 1358.05 582.867 1364.21 579.6C1370.46 576.24 1377.6 574.56 1385.63 574.56C1393.56 574.56 1400.65 576.24 1406.91 579.6C1413.16 582.867 1418.06 587.393 1421.61 593.18C1425.15 598.967 1426.93 605.687 1426.93 613.34C1426.93 620.807 1425.15 627.48 1421.61 633.36C1418.06 639.147 1413.16 643.72 1406.91 647.08C1400.65 650.44 1393.56 652.12 1385.63 652.12ZM1385.63 634.2C1389.27 634.2 1392.53 633.36 1395.43 631.68C1398.32 630 1400.61 627.62 1402.29 624.54C1403.97 621.367 1404.81 617.633 1404.81 613.34C1404.81 608.953 1403.97 605.22 1402.29 602.14C1400.61 599.06 1398.32 596.68 1395.43 595C1392.53 593.32 1389.27 592.48 1385.63 592.48C1381.99 592.48 1378.72 593.32 1375.83 595C1372.93 596.68 1370.6 599.06 1368.83 602.14C1367.15 605.22 1366.31 608.953 1366.31 613.34C1366.31 617.633 1367.15 621.367 1368.83 624.54C1370.6 627.62 1372.93 630 1375.83 631.68C1378.72 633.36 1381.99 634.2 1385.63 634.2ZM1466.87 652.12C1460.43 652.12 1454.22 651.373 1448.25 649.88C1442.37 648.293 1437.7 646.333 1434.25 644L1441.53 628.32C1444.98 630.467 1449.04 632.24 1453.71 633.64C1458.47 634.947 1463.13 635.6 1467.71 635.6C1472.75 635.6 1476.29 634.993 1478.35 633.78C1480.49 632.567 1481.57 630.887 1481.57 628.74C1481.57 626.967 1480.73 625.66 1479.05 624.82C1477.46 623.887 1475.31 623.187 1472.61 622.72C1469.9 622.253 1466.91 621.787 1463.65 621.32C1460.47 620.853 1457.25 620.247 1453.99 619.5C1450.72 618.66 1447.73 617.447 1445.03 615.86C1442.32 614.273 1440.13 612.127 1438.45 609.42C1436.86 606.713 1436.07 603.213 1436.07 598.92C1436.07 594.16 1437.42 589.96 1440.13 586.32C1442.93 582.68 1446.94 579.833 1452.17 577.78C1457.39 575.633 1463.65 574.56 1470.93 574.56C1476.06 574.56 1481.29 575.12 1486.61 576.24C1491.93 577.36 1496.36 578.993 1499.91 581.14L1492.63 596.68C1488.99 594.533 1485.3 593.087 1481.57 592.34C1477.93 591.5 1474.38 591.08 1470.93 591.08C1466.07 591.08 1462.53 591.733 1460.29 593.04C1458.05 594.347 1456.93 596.027 1456.93 598.08C1456.93 599.947 1457.72 601.347 1459.31 602.28C1460.99 603.213 1463.18 603.96 1465.89 604.52C1468.59 605.08 1471.53 605.593 1474.71 606.06C1477.97 606.433 1481.24 607.04 1484.51 607.88C1487.77 608.72 1490.71 609.933 1493.33 611.52C1496.03 613.013 1498.23 615.113 1499.91 617.82C1501.59 620.433 1502.43 623.887 1502.43 628.18C1502.43 632.847 1501.03 637 1498.23 640.64C1495.43 644.187 1491.37 646.987 1486.05 649.04C1480.82 651.093 1474.43 652.12 1466.87 652.12ZM1587.89 652.12C1580.8 652.12 1574.4 650.533 1568.71 647.36C1563.02 644.093 1558.49 639.567 1555.13 633.78C1551.86 627.993 1550.23 621.18 1550.23 613.34C1550.23 605.407 1551.86 598.547 1555.13 592.76C1558.49 586.973 1563.02 582.493 1568.71 579.32C1574.4 576.147 1580.8 574.56 1587.89 574.56C1594.24 574.56 1599.79 575.96 1604.55 578.76C1609.31 581.56 1613 585.807 1615.61 591.5C1618.22 597.193 1619.53 604.473 1619.53 613.34C1619.53 622.113 1618.27 629.393 1615.75 635.18C1613.23 640.873 1609.59 645.12 1604.83 647.92C1600.16 650.72 1594.52 652.12 1587.89 652.12ZM1591.67 634.2C1595.22 634.2 1598.44 633.36 1601.33 631.68C1604.22 630 1606.51 627.62 1608.19 624.54C1609.96 621.367 1610.85 617.633 1610.85 613.34C1610.85 608.953 1609.96 605.22 1608.19 602.14C1606.51 599.06 1604.22 596.68 1601.33 595C1598.44 593.32 1595.22 592.48 1591.67 592.48C1588.03 592.48 1584.76 593.32 1581.87 595C1578.98 596.68 1576.64 599.06 1574.87 602.14C1573.19 605.22 1572.35 608.953 1572.35 613.34C1572.35 617.633 1573.19 621.367 1574.87 624.54C1576.64 627.62 1578.98 630 1581.87 631.68C1584.76 633.36 1588.03 634.2 1591.67 634.2ZM1611.41 651V635.6L1611.83 613.2L1610.43 590.94V547.12H1632.27V651H1611.41ZM1698.68 651V636.3L1697.28 633.08V606.76C1697.28 602.093 1695.84 598.453 1692.94 595.84C1690.14 593.227 1685.8 591.92 1679.92 591.92C1675.91 591.92 1671.94 592.573 1668.02 593.88C1664.2 595.093 1660.93 596.773 1658.22 598.92L1650.38 583.66C1654.49 580.767 1659.44 578.527 1665.22 576.94C1671.01 575.353 1676.89 574.56 1682.86 574.56C1694.34 574.56 1703.26 577.267 1709.6 582.68C1715.95 588.093 1719.12 596.54 1719.12 608.02V651H1698.68ZM1675.72 652.12C1669.84 652.12 1664.8 651.14 1660.6 649.18C1656.4 647.127 1653.18 644.373 1650.94 640.92C1648.7 637.467 1647.58 633.593 1647.58 629.3C1647.58 624.82 1648.66 620.9 1650.8 617.54C1653.04 614.18 1656.54 611.567 1661.3 609.7C1666.06 607.74 1672.27 606.76 1679.92 606.76H1699.94V619.5H1682.3C1677.17 619.5 1673.62 620.34 1671.66 622.02C1669.8 623.7 1668.86 625.8 1668.86 628.32C1668.86 631.12 1669.94 633.36 1672.08 635.04C1674.32 636.627 1677.36 637.42 1681.18 637.42C1684.82 637.42 1688.09 636.58 1690.98 634.9C1693.88 633.127 1695.98 630.56 1697.28 627.2L1700.64 637.28C1699.06 642.133 1696.16 645.82 1691.96 648.34C1687.76 650.86 1682.35 652.12 1675.72 652.12ZM1823.06 652.12C1816.71 652.12 1811.16 650.72 1806.4 647.92C1801.64 645.12 1797.9 640.873 1795.2 635.18C1792.58 629.393 1791.28 622.113 1791.28 613.34C1791.28 604.473 1792.54 597.193 1795.06 591.5C1797.58 585.807 1801.22 581.56 1805.98 578.76C1810.74 575.96 1816.43 574.56 1823.06 574.56C1830.15 574.56 1836.5 576.193 1842.1 579.46C1847.79 582.633 1852.27 587.113 1855.54 592.9C1858.9 598.687 1860.58 605.5 1860.58 613.34C1860.58 621.273 1858.9 628.133 1855.54 633.92C1852.27 639.707 1847.79 644.187 1842.1 647.36C1836.5 650.533 1830.15 652.12 1823.06 652.12ZM1778.54 678.16V575.68H1799.4V591.08L1798.98 613.48L1800.38 635.74V678.16H1778.54ZM1819.28 634.2C1822.92 634.2 1826.14 633.36 1828.94 631.68C1831.83 630 1834.12 627.62 1835.8 624.54C1837.57 621.367 1838.46 617.633 1838.46 613.34C1838.46 608.953 1837.57 605.22 1835.8 602.14C1834.12 599.06 1831.83 596.68 1828.94 595C1826.14 593.32 1822.92 592.48 1819.28 592.48C1815.64 592.48 1812.37 593.32 1809.48 595C1806.58 596.68 1804.3 599.06 1802.62 602.14C1800.94 605.22 1800.1 608.953 1800.1 613.34C1800.1 617.633 1800.94 621.367 1802.62 624.54C1804.3 627.62 1806.58 630 1809.48 631.68C1812.37 633.36 1815.64 634.2 1819.28 634.2ZM1875.2 651V575.68H1896.06V596.96L1893.12 590.8C1895.36 585.48 1898.95 581.467 1903.9 578.76C1908.84 575.96 1914.86 574.56 1921.96 574.56V594.72C1921.02 594.627 1920.18 594.58 1919.44 594.58C1918.69 594.487 1917.9 594.44 1917.06 594.44C1911.08 594.44 1906.23 596.167 1902.5 599.62C1898.86 602.98 1897.04 608.253 1897.04 615.44V651H1875.2ZM1970.24 652.12C1962.21 652.12 1955.07 650.44 1948.82 647.08C1942.66 643.72 1937.76 639.147 1934.12 633.36C1930.57 627.48 1928.8 620.807 1928.8 613.34C1928.8 605.78 1930.57 599.107 1934.12 593.32C1937.76 587.44 1942.66 582.867 1948.82 579.6C1955.07 576.24 1962.21 574.56 1970.24 574.56C1978.17 574.56 1985.26 576.24 1991.52 579.6C1997.77 582.867 2002.67 587.393 2006.22 593.18C2009.76 598.967 2011.54 605.687 2011.54 613.34C2011.54 620.807 2009.76 627.48 2006.22 633.36C2002.67 639.147 1997.77 643.72 1991.52 647.08C1985.26 650.44 1978.17 652.12 1970.24 652.12ZM1970.24 634.2C1973.88 634.2 1977.14 633.36 1980.04 631.68C1982.93 630 1985.22 627.62 1986.9 624.54C1988.58 621.367 1989.42 617.633 1989.42 613.34C1989.42 608.953 1988.58 605.22 1986.9 602.14C1985.22 599.06 1982.93 596.68 1980.04 595C1977.14 593.32 1973.88 592.48 1970.24 592.48C1966.6 592.48 1963.33 593.32 1960.44 595C1957.54 596.68 1955.21 599.06 1953.44 602.14C1951.76 605.22 1950.92 608.953 1950.92 613.34C1950.92 617.633 1951.76 621.367 1953.44 624.54C1955.21 627.62 1957.54 630 1960.44 631.68C1963.33 633.36 1966.6 634.2 1970.24 634.2ZM2061.55 679.28C2054.46 679.28 2047.6 678.393 2040.97 676.62C2034.44 674.94 2028.98 672.373 2024.59 668.92L2033.27 653.24C2036.45 655.853 2040.46 657.907 2045.31 659.4C2050.26 660.987 2055.11 661.78 2059.87 661.78C2067.62 661.78 2073.22 660.053 2076.67 656.6C2080.22 653.147 2081.99 648.013 2081.99 641.2V629.86L2083.39 610.96L2083.11 591.92V575.68H2103.83V638.4C2103.83 652.4 2100.19 662.713 2092.91 669.34C2085.63 675.967 2075.18 679.28 2061.55 679.28ZM2058.19 647.36C2051.19 647.36 2044.85 645.867 2039.15 642.88C2033.55 639.8 2029.03 635.553 2025.57 630.14C2022.21 624.633 2020.53 618.24 2020.53 610.96C2020.53 603.587 2022.21 597.193 2025.57 591.78C2029.03 586.273 2033.55 582.027 2039.15 579.04C2044.85 576.053 2051.19 574.56 2058.19 574.56C2064.54 574.56 2070.14 575.867 2074.99 578.48C2079.85 581 2083.63 584.967 2086.33 590.38C2089.04 595.7 2090.39 602.56 2090.39 610.96C2090.39 619.267 2089.04 626.127 2086.33 631.54C2083.63 636.86 2079.85 640.827 2074.99 643.44C2070.14 646.053 2064.54 647.36 2058.19 647.36ZM2062.53 629.44C2066.36 629.44 2069.77 628.693 2072.75 627.2C2075.74 625.613 2078.07 623.42 2079.75 620.62C2081.43 617.82 2082.27 614.6 2082.27 610.96C2082.27 607.227 2081.43 604.007 2079.75 601.3C2078.07 598.5 2075.74 596.353 2072.75 594.86C2069.77 593.273 2066.36 592.48 2062.53 592.48C2058.71 592.48 2055.3 593.273 2052.31 594.86C2049.33 596.353 2046.95 598.5 2045.17 601.3C2043.49 604.007 2042.65 607.227 2042.65 610.96C2042.65 614.6 2043.49 617.82 2045.17 620.62C2046.95 623.42 2049.33 625.613 2052.31 627.2C2055.3 628.693 2058.71 629.44 2062.53 629.44ZM2124.16 651V575.68H2145.02V596.96L2142.08 590.8C2144.32 585.48 2147.92 581.467 2152.86 578.76C2157.81 575.96 2163.83 574.56 2170.92 574.56V594.72C2169.99 594.627 2169.15 594.58 2168.4 594.58C2167.66 594.487 2166.86 594.44 2166.02 594.44C2160.05 594.44 2155.2 596.167 2151.46 599.62C2147.82 602.98 2146 608.253 2146 615.44V651H2124.16ZM2225.19 651V636.3L2223.79 633.08V606.76C2223.79 602.093 2222.34 598.453 2219.45 595.84C2216.65 593.227 2212.31 591.92 2206.43 591.92C2202.41 591.92 2198.45 592.573 2194.53 593.88C2190.7 595.093 2187.43 596.773 2184.73 598.92L2176.89 583.66C2180.99 580.767 2185.94 578.527 2191.73 576.94C2197.51 575.353 2203.39 574.56 2209.37 574.56C2220.85 574.56 2229.76 577.267 2236.11 582.68C2242.45 588.093 2245.63 596.54 2245.63 608.02V651H2225.19ZM2202.23 652.12C2196.35 652.12 2191.31 651.14 2187.11 649.18C2182.91 647.127 2179.69 644.373 2177.45 640.92C2175.21 637.467 2174.09 633.593 2174.09 629.3C2174.09 624.82 2175.16 620.9 2177.31 617.54C2179.55 614.18 2183.05 611.567 2187.81 609.7C2192.57 607.74 2198.77 606.76 2206.43 606.76H2226.45V619.5H2208.81C2203.67 619.5 2200.13 620.34 2198.17 622.02C2196.3 623.7 2195.37 625.8 2195.37 628.32C2195.37 631.12 2196.44 633.36 2198.59 635.04C2200.83 636.627 2203.86 637.42 2207.69 637.42C2211.33 637.42 2214.59 636.58 2217.49 634.9C2220.38 633.127 2222.48 630.56 2223.79 627.2L2227.15 637.28C2225.56 642.133 2222.67 645.82 2218.47 648.34C2214.27 650.86 2208.85 652.12 2202.23 652.12ZM2361.85 574.56C2367.83 574.56 2373.1 575.773 2377.67 578.2C2382.34 580.533 2385.98 584.173 2388.59 589.12C2391.3 593.973 2392.65 600.227 2392.65 607.88V651H2370.81V611.24C2370.81 605.173 2369.55 600.693 2367.03 597.8C2364.51 594.907 2360.97 593.46 2356.39 593.46C2353.22 593.46 2350.37 594.207 2347.85 595.7C2345.33 597.1 2343.37 599.247 2341.97 602.14C2340.57 605.033 2339.87 608.72 2339.87 613.2V651H2318.03V611.24C2318.03 605.173 2316.77 600.693 2314.25 597.8C2311.83 594.907 2308.33 593.46 2303.75 593.46C2300.58 593.46 2297.73 594.207 2295.21 595.7C2292.69 597.1 2290.73 599.247 2289.33 602.14C2287.93 605.033 2287.23 608.72 2287.23 613.2V651H2265.39V575.68H2286.25V596.26L2282.33 590.24C2284.95 585.107 2288.63 581.233 2293.39 578.62C2298.25 575.913 2303.75 574.56 2309.91 574.56C2316.82 574.56 2322.84 576.333 2327.97 579.88C2333.2 583.333 2336.65 588.653 2338.33 595.84L2330.63 593.74C2333.15 587.86 2337.17 583.193 2342.67 579.74C2348.27 576.287 2354.67 574.56 2361.85 574.56ZM2458.43 651V636.3L2457.03 633.08V606.76C2457.03 602.093 2455.58 598.453 2452.69 595.84C2449.89 593.227 2445.55 591.92 2439.67 591.92C2435.66 591.92 2431.69 592.573 2427.77 593.88C2423.94 595.093 2420.68 596.773 2417.97 598.92L2410.13 583.66C2414.24 580.767 2419.18 578.527 2424.97 576.94C2430.76 575.353 2436.64 574.56 2442.61 574.56C2454.09 574.56 2463 577.267 2469.35 582.68C2475.7 588.093 2478.87 596.54 2478.87 608.02V651H2458.43ZM2435.47 652.12C2429.59 652.12 2424.55 651.14 2420.35 649.18C2416.15 647.127 2412.93 644.373 2410.69 640.92C2408.45 637.467 2407.33 633.593 2407.33 629.3C2407.33 624.82 2408.4 620.9 2410.55 617.54C2412.79 614.18 2416.29 611.567 2421.05 609.7C2425.81 607.74 2432.02 606.76 2439.67 606.76H2459.69V619.5H2442.05C2436.92 619.5 2433.37 620.34 2431.41 622.02C2429.54 623.7 2428.61 625.8 2428.61 628.32C2428.61 631.12 2429.68 633.36 2431.83 635.04C2434.07 636.627 2437.1 637.42 2440.93 637.42C2444.57 637.42 2447.84 636.58 2450.73 634.9C2453.62 633.127 2455.72 630.56 2457.03 627.2L2460.39 637.28C2458.8 642.133 2455.91 645.82 2451.71 648.34C2447.51 650.86 2442.1 652.12 2435.47 652.12ZM2535.58 652.12C2527.46 652.12 2520.23 650.487 2513.88 647.22C2507.53 643.86 2502.54 639.24 2498.9 633.36C2495.35 627.48 2493.58 620.807 2493.58 613.34C2493.58 605.78 2495.35 599.107 2498.9 593.32C2502.54 587.44 2507.53 582.867 2513.88 579.6C2520.23 576.24 2527.46 574.56 2535.58 574.56C2543.51 574.56 2550.42 576.24 2556.3 579.6C2562.18 582.867 2566.52 587.58 2569.32 593.74L2552.38 602.84C2550.42 599.293 2547.95 596.68 2544.96 595C2542.07 593.32 2538.89 592.48 2535.44 592.48C2531.71 592.48 2528.35 593.32 2525.36 595C2522.37 596.68 2519.99 599.06 2518.22 602.14C2516.54 605.22 2515.7 608.953 2515.7 613.34C2515.7 617.727 2516.54 621.46 2518.22 624.54C2519.99 627.62 2522.37 630 2525.36 631.68C2528.35 633.36 2531.71 634.2 2535.44 634.2C2538.89 634.2 2542.07 633.407 2544.96 631.82C2547.95 630.14 2550.42 627.48 2552.38 623.84L2569.32 633.08C2566.52 639.147 2562.18 643.86 2556.3 647.22C2550.42 650.487 2543.51 652.12 2535.58 652.12ZM2527.6 683.48C2525.17 683.48 2522.79 683.2 2520.46 682.64C2518.22 682.08 2516.26 681.38 2514.58 680.54L2517.94 671.16C2519.34 671.813 2520.79 672.327 2522.28 672.7C2523.77 673.073 2525.36 673.26 2527.04 673.26C2529.65 673.26 2531.52 672.84 2532.64 672C2533.76 671.16 2534.32 670.087 2534.32 668.78C2534.32 667.567 2533.76 666.587 2532.64 665.84C2531.61 665.093 2529.89 664.72 2527.46 664.72H2522.7L2526.34 649.88H2537.96L2536 658C2540.2 658.467 2543.28 659.773 2545.24 661.92C2547.2 664.16 2548.18 666.727 2548.18 669.62C2548.18 673.82 2546.31 677.18 2542.58 679.7C2538.85 682.22 2533.85 683.48 2527.6 683.48ZM2628.1 651V636.3L2626.7 633.08V606.76C2626.7 602.093 2625.25 598.453 2622.36 595.84C2619.56 593.227 2615.22 591.92 2609.34 591.92C2605.32 591.92 2601.36 592.573 2597.44 593.88C2593.61 595.093 2590.34 596.773 2587.64 598.92L2579.8 583.66C2583.9 580.767 2588.85 578.527 2594.64 576.94C2600.42 575.353 2606.3 574.56 2612.28 574.56C2623.76 574.56 2632.67 577.267 2639.02 582.68C2645.36 588.093 2648.54 596.54 2648.54 608.02V651H2628.1ZM2605.14 652.12C2599.26 652.12 2594.22 651.14 2590.02 649.18C2585.82 647.127 2582.6 644.373 2580.36 640.92C2578.12 637.467 2577 633.593 2577 629.3C2577 624.82 2578.07 620.9 2580.22 617.54C2582.46 614.18 2585.96 611.567 2590.72 609.7C2595.48 607.74 2601.68 606.76 2609.34 606.76H2629.36V619.5H2611.72C2606.58 619.5 2603.04 620.34 2601.08 622.02C2599.21 623.7 2598.28 625.8 2598.28 628.32C2598.28 631.12 2599.35 633.36 2601.5 635.04C2603.74 636.627 2606.77 637.42 2610.6 637.42C2614.24 637.42 2617.5 636.58 2620.4 634.9C2623.29 633.127 2625.39 630.56 2626.7 627.2L2630.06 637.28C2628.47 642.133 2625.58 645.82 2621.38 648.34C2617.18 650.86 2611.76 652.12 2605.14 652.12ZM2625.02 566.44C2622.59 566.44 2620.44 566.02 2618.58 565.18C2616.71 564.247 2615.03 563.22 2613.54 562.1C2612.04 560.887 2610.64 559.86 2609.34 559.02C2608.03 558.087 2606.72 557.62 2605.42 557.62C2603.55 557.62 2602.01 558.32 2600.8 559.72C2599.58 561.027 2598.88 562.94 2598.7 565.46H2587.64C2587.82 559.207 2589.36 554.26 2592.26 550.62C2595.15 546.887 2599.07 545.02 2604.02 545.02C2606.44 545.02 2608.59 545.487 2610.46 546.42C2612.32 547.26 2614 548.287 2615.5 549.5C2617.08 550.713 2618.53 551.787 2619.84 552.72C2621.14 553.56 2622.4 553.98 2623.62 553.98C2625.58 553.98 2627.16 553.327 2628.38 552.02C2629.59 550.62 2630.24 548.753 2630.34 546.42H2641.4C2641.3 552.393 2639.76 557.247 2636.78 560.98C2633.88 564.62 2629.96 566.44 2625.02 566.44ZM2704.69 652.12C2696.66 652.12 2689.52 650.44 2683.27 647.08C2677.11 643.72 2672.21 639.147 2668.57 633.36C2665.02 627.48 2663.25 620.807 2663.25 613.34C2663.25 605.78 2665.02 599.107 2668.57 593.32C2672.21 587.44 2677.11 582.867 2683.27 579.6C2689.52 576.24 2696.66 574.56 2704.69 574.56C2712.62 574.56 2719.72 576.24 2725.97 579.6C2732.22 582.867 2737.12 587.393 2740.67 593.18C2744.22 598.967 2745.99 605.687 2745.99 613.34C2745.99 620.807 2744.22 627.48 2740.67 633.36C2737.12 639.147 2732.22 643.72 2725.97 647.08C2719.72 650.44 2712.62 652.12 2704.69 652.12ZM2704.69 634.2C2708.33 634.2 2711.6 633.36 2714.49 631.68C2717.38 630 2719.67 627.62 2721.35 624.54C2723.03 621.367 2723.87 617.633 2723.87 613.34C2723.87 608.953 2723.03 605.22 2721.35 602.14C2719.67 599.06 2717.38 596.68 2714.49 595C2711.6 593.32 2708.33 592.48 2704.69 592.48C2701.05 592.48 2697.78 593.32 2694.89 595C2692 596.68 2689.66 599.06 2687.89 602.14C2686.21 605.22 2685.37 608.953 2685.37 613.34C2685.37 617.633 2686.21 621.367 2687.89 624.54C2689.66 627.62 2692 630 2694.89 631.68C2697.78 633.36 2701.05 634.2 2704.69 634.2ZM2844.76 652.12C2838.41 652.12 2832.86 650.72 2828.1 647.92C2823.34 645.12 2819.6 640.873 2816.9 635.18C2814.28 629.393 2812.98 622.113 2812.98 613.34C2812.98 604.473 2814.24 597.193 2816.76 591.5C2819.28 585.807 2822.92 581.56 2827.68 578.76C2832.44 575.96 2838.13 574.56 2844.76 574.56C2851.85 574.56 2858.2 576.193 2863.8 579.46C2869.49 582.633 2873.97 587.113 2877.24 592.9C2880.6 598.687 2882.28 605.5 2882.28 613.34C2882.28 621.273 2880.6 628.133 2877.24 633.92C2873.97 639.707 2869.49 644.187 2863.8 647.36C2858.2 650.533 2851.85 652.12 2844.76 652.12ZM2800.24 678.16V575.68H2821.1V591.08L2820.68 613.48L2822.08 635.74V678.16H2800.24ZM2840.98 634.2C2844.62 634.2 2847.84 633.36 2850.64 631.68C2853.53 630 2855.82 627.62 2857.5 624.54C2859.27 621.367 2860.16 617.633 2860.16 613.34C2860.16 608.953 2859.27 605.22 2857.5 602.14C2855.82 599.06 2853.53 596.68 2850.64 595C2847.84 593.32 2844.62 592.48 2840.98 592.48C2837.34 592.48 2834.07 593.32 2831.18 595C2828.28 596.68 2826 599.06 2824.32 602.14C2822.64 605.22 2821.8 608.953 2821.8 613.34C2821.8 617.633 2822.64 621.367 2824.32 624.54C2826 627.62 2828.28 630 2831.18 631.68C2834.07 633.36 2837.34 634.2 2840.98 634.2ZM2941.87 651V636.3L2940.47 633.08V606.76C2940.47 602.093 2939.02 598.453 2936.13 595.84C2933.33 593.227 2928.99 591.92 2923.11 591.92C2919.09 591.92 2915.13 592.573 2911.21 593.88C2907.38 595.093 2904.11 596.773 2901.41 598.92L2893.57 583.66C2897.67 580.767 2902.62 578.527 2908.41 576.94C2914.19 575.353 2920.07 574.56 2926.05 574.56C2937.53 574.56 2946.44 577.267 2952.79 582.68C2959.13 588.093 2962.31 596.54 2962.31 608.02V651H2941.87ZM2918.91 652.12C2913.03 652.12 2907.99 651.14 2903.79 649.18C2899.59 647.127 2896.37 644.373 2894.13 640.92C2891.89 637.467 2890.77 633.593 2890.77 629.3C2890.77 624.82 2891.84 620.9 2893.99 617.54C2896.23 614.18 2899.73 611.567 2904.49 609.7C2909.25 607.74 2915.45 606.76 2923.11 606.76H2943.13V619.5H2925.49C2920.35 619.5 2916.81 620.34 2914.85 622.02C2912.98 623.7 2912.05 625.8 2912.05 628.32C2912.05 631.12 2913.12 633.36 2915.27 635.04C2917.51 636.627 2920.54 637.42 2924.37 637.42C2928.01 637.42 2931.27 636.58 2934.17 634.9C2937.06 633.127 2939.16 630.56 2940.47 627.2L2943.83 637.28C2942.24 642.133 2939.35 645.82 2935.15 648.34C2930.95 650.86 2925.53 652.12 2918.91 652.12ZM2982.07 651V575.68H3002.93V596.96L2999.99 590.8C3002.23 585.48 3005.83 581.467 3010.77 578.76C3015.72 575.96 3021.74 574.56 3028.83 574.56V594.72C3027.9 594.627 3027.06 594.58 3026.31 594.58C3025.57 594.487 3024.77 594.44 3023.93 594.44C3017.96 594.44 3013.11 596.167 3009.37 599.62C3005.73 602.98 3003.91 608.253 3003.91 615.44V651H2982.07ZM3083.1 651V636.3L3081.7 633.08V606.76C3081.7 602.093 3080.25 598.453 3077.36 595.84C3074.56 593.227 3070.22 591.92 3064.34 591.92C3060.32 591.92 3056.36 592.573 3052.44 593.88C3048.61 595.093 3045.34 596.773 3042.64 598.92L3034.8 583.66C3038.9 580.767 3043.85 578.527 3049.64 576.94C3055.42 575.353 3061.3 574.56 3067.28 574.56C3078.76 574.56 3087.67 577.267 3094.02 582.68C3100.36 588.093 3103.54 596.54 3103.54 608.02V651H3083.1ZM3060.14 652.12C3054.26 652.12 3049.22 651.14 3045.02 649.18C3040.82 647.127 3037.6 644.373 3035.36 640.92C3033.12 637.467 3032 633.593 3032 629.3C3032 624.82 3033.07 620.9 3035.22 617.54C3037.46 614.18 3040.96 611.567 3045.72 609.7C3050.48 607.74 3056.68 606.76 3064.34 606.76H3084.36V619.5H3066.72C3061.58 619.5 3058.04 620.34 3056.08 622.02C3054.21 623.7 3053.28 625.8 3053.28 628.32C3053.28 631.12 3054.35 633.36 3056.5 635.04C3058.74 636.627 3061.77 637.42 3065.6 637.42C3069.24 637.42 3072.5 636.58 3075.4 634.9C3078.29 633.127 3080.39 630.56 3081.7 627.2L3085.06 637.28C3083.47 642.133 3080.58 645.82 3076.38 648.34C3072.18 650.86 3066.76 652.12 3060.14 652.12ZM1209.6 832.12C1203.25 832.12 1197.7 830.72 1192.94 827.92C1188.18 825.12 1184.45 820.873 1181.74 815.18C1179.13 809.393 1177.82 802.113 1177.82 793.34C1177.82 784.473 1179.08 777.193 1181.6 771.5C1184.12 765.807 1187.76 761.56 1192.52 758.76C1197.28 755.96 1202.97 754.56 1209.6 754.56C1216.69 754.56 1223.04 756.193 1228.64 759.46C1234.33 762.633 1238.81 767.113 1242.08 772.9C1245.44 778.687 1247.12 785.5 1247.12 793.34C1247.12 801.273 1245.44 808.133 1242.08 813.92C1238.81 819.707 1234.33 824.187 1228.64 827.36C1223.04 830.533 1216.69 832.12 1209.6 832.12ZM1165.08 858.16V755.68H1185.94V771.08L1185.52 793.48L1186.92 815.74V858.16H1165.08ZM1205.82 814.2C1209.46 814.2 1212.68 813.36 1215.48 811.68C1218.37 810 1220.66 807.62 1222.34 804.54C1224.11 801.367 1225 797.633 1225 793.34C1225 788.953 1224.11 785.22 1222.34 782.14C1220.66 779.06 1218.37 776.68 1215.48 775C1212.68 773.32 1209.46 772.48 1205.82 772.48C1202.18 772.48 1198.91 773.32 1196.02 775C1193.13 776.68 1190.84 779.06 1189.16 782.14C1187.48 785.22 1186.64 788.953 1186.64 793.34C1186.64 797.633 1187.48 801.367 1189.16 804.54C1190.84 807.62 1193.13 810 1196.02 811.68C1198.91 813.36 1202.18 814.2 1205.82 814.2ZM1261.74 831V755.68H1282.6V776.96L1279.66 770.8C1281.9 765.48 1285.49 761.467 1290.44 758.76C1295.39 755.96 1301.41 754.56 1308.5 754.56V774.72C1307.57 774.627 1306.73 774.58 1305.98 774.58C1305.23 774.487 1304.44 774.44 1303.6 774.44C1297.63 774.44 1292.77 776.167 1289.04 779.62C1285.4 782.98 1283.58 788.253 1283.58 795.44V831H1261.74ZM1356.78 832.12C1348.75 832.12 1341.61 830.44 1335.36 827.08C1329.2 823.72 1324.3 819.147 1320.66 813.36C1317.11 807.48 1315.34 800.807 1315.34 793.34C1315.34 785.78 1317.11 779.107 1320.66 773.32C1324.3 767.44 1329.2 762.867 1335.36 759.6C1341.61 756.24 1348.75 754.56 1356.78 754.56C1364.71 754.56 1371.81 756.24 1378.06 759.6C1384.31 762.867 1389.21 767.393 1392.76 773.18C1396.31 778.967 1398.08 785.687 1398.08 793.34C1398.08 800.807 1396.31 807.48 1392.76 813.36C1389.21 819.147 1384.31 823.72 1378.06 827.08C1371.81 830.44 1364.71 832.12 1356.78 832.12ZM1356.78 814.2C1360.42 814.2 1363.69 813.36 1366.58 811.68C1369.47 810 1371.76 807.62 1373.44 804.54C1375.12 801.367 1375.96 797.633 1375.96 793.34C1375.96 788.953 1375.12 785.22 1373.44 782.14C1371.76 779.06 1369.47 776.68 1366.58 775C1363.69 773.32 1360.42 772.48 1356.78 772.48C1353.14 772.48 1349.87 773.32 1346.98 775C1344.09 776.68 1341.75 779.06 1339.98 782.14C1338.3 785.22 1337.46 788.953 1337.46 793.34C1337.46 797.633 1338.3 801.367 1339.98 804.54C1341.75 807.62 1344.09 810 1346.98 811.68C1349.87 813.36 1353.14 814.2 1356.78 814.2ZM1415.34 831V754C1415.34 745.507 1417.86 738.74 1422.9 733.7C1427.94 728.567 1435.12 726 1444.46 726C1447.63 726 1450.66 726.327 1453.56 726.98C1456.54 727.633 1459.06 728.66 1461.12 730.06L1455.38 745.88C1454.16 745.04 1452.81 744.387 1451.32 743.92C1449.82 743.453 1448.24 743.22 1446.56 743.22C1443.38 743.22 1440.91 744.153 1439.14 746.02C1437.46 747.793 1436.62 750.5 1436.62 754.14V761.14L1437.18 770.52V831H1415.34ZM1403.72 774.16V757.36H1455.94V774.16H1403.72ZM1468.26 831V755.68H1490.1V831H1468.26ZM1479.18 745.18C1475.16 745.18 1471.9 744.013 1469.38 741.68C1466.86 739.347 1465.6 736.453 1465.6 733C1465.6 729.547 1466.86 726.653 1469.38 724.32C1471.9 721.987 1475.16 720.82 1479.18 720.82C1483.19 720.82 1486.46 721.94 1488.98 724.18C1491.5 726.327 1492.76 729.127 1492.76 732.58C1492.76 736.22 1491.5 739.253 1488.98 741.68C1486.55 744.013 1483.28 745.18 1479.18 745.18ZM1535.63 832.12C1529.19 832.12 1522.99 831.373 1517.01 829.88C1511.13 828.293 1506.47 826.333 1503.01 824L1510.29 808.32C1513.75 810.467 1517.81 812.24 1522.47 813.64C1527.23 814.947 1531.9 815.6 1536.47 815.6C1541.51 815.6 1545.06 814.993 1547.11 813.78C1549.26 812.567 1550.33 810.887 1550.33 808.74C1550.33 806.967 1549.49 805.66 1547.81 804.82C1546.23 803.887 1544.08 803.187 1541.37 802.72C1538.67 802.253 1535.68 801.787 1532.41 801.32C1529.24 800.853 1526.02 800.247 1522.75 799.5C1519.49 798.66 1516.5 797.447 1513.79 795.86C1511.09 794.273 1508.89 792.127 1507.21 789.42C1505.63 786.713 1504.83 783.213 1504.83 778.92C1504.83 774.16 1506.19 769.96 1508.89 766.32C1511.69 762.68 1515.71 759.833 1520.93 757.78C1526.16 755.633 1532.41 754.56 1539.69 754.56C1544.83 754.56 1550.05 755.12 1555.37 756.24C1560.69 757.36 1565.13 758.993 1568.67 761.14L1561.39 776.68C1557.75 774.533 1554.07 773.087 1550.33 772.34C1546.69 771.5 1543.15 771.08 1539.69 771.08C1534.84 771.08 1531.29 771.733 1529.05 773.04C1526.81 774.347 1525.69 776.027 1525.69 778.08C1525.69 779.947 1526.49 781.347 1528.07 782.28C1529.75 783.213 1531.95 783.96 1534.65 784.52C1537.36 785.08 1540.3 785.593 1543.47 786.06C1546.74 786.433 1550.01 787.04 1553.27 787.88C1556.54 788.72 1559.48 789.933 1562.09 791.52C1564.8 793.013 1566.99 795.113 1568.67 797.82C1570.35 800.433 1571.19 803.887 1571.19 808.18C1571.19 812.847 1569.79 817 1566.99 820.64C1564.19 824.187 1560.13 826.987 1554.81 829.04C1549.59 831.093 1543.19 832.12 1535.63 832.12ZM1610.01 832.12C1603.57 832.12 1597.36 831.373 1591.39 829.88C1585.51 828.293 1580.84 826.333 1577.39 824L1584.67 808.32C1588.12 810.467 1592.18 812.24 1596.85 813.64C1601.61 814.947 1606.28 815.6 1610.85 815.6C1615.89 815.6 1619.44 814.993 1621.49 813.78C1623.64 812.567 1624.71 810.887 1624.71 808.74C1624.71 806.967 1623.87 805.66 1622.19 804.82C1620.6 803.887 1618.46 803.187 1615.75 802.72C1613.04 802.253 1610.06 801.787 1606.79 801.32C1603.62 800.853 1600.4 800.247 1597.13 799.5C1593.86 798.66 1590.88 797.447 1588.17 795.86C1585.46 794.273 1583.27 792.127 1581.59 789.42C1580 786.713 1579.21 783.213 1579.21 778.92C1579.21 774.16 1580.56 769.96 1583.27 766.32C1586.07 762.68 1590.08 759.833 1595.31 757.78C1600.54 755.633 1606.79 754.56 1614.07 754.56C1619.2 754.56 1624.43 755.12 1629.75 756.24C1635.07 757.36 1639.5 758.993 1643.05 761.14L1635.77 776.68C1632.13 774.533 1628.44 773.087 1624.71 772.34C1621.07 771.5 1617.52 771.08 1614.07 771.08C1609.22 771.08 1605.67 771.733 1603.43 773.04C1601.19 774.347 1600.07 776.027 1600.07 778.08C1600.07 779.947 1600.86 781.347 1602.45 782.28C1604.13 783.213 1606.32 783.96 1609.03 784.52C1611.74 785.08 1614.68 785.593 1617.85 786.06C1621.12 786.433 1624.38 787.04 1627.65 787.88C1630.92 788.72 1633.86 789.933 1636.47 791.52C1639.18 793.013 1641.37 795.113 1643.05 797.82C1644.73 800.433 1645.57 803.887 1645.57 808.18C1645.57 812.847 1644.17 817 1641.37 820.64C1638.57 824.187 1634.51 826.987 1629.19 829.04C1623.96 831.093 1617.57 832.12 1610.01 832.12ZM1659.04 831V755.68H1680.88V831H1659.04ZM1669.96 745.18C1665.95 745.18 1662.68 744.013 1660.16 741.68C1657.64 739.347 1656.38 736.453 1656.38 733C1656.38 729.547 1657.64 726.653 1660.16 724.32C1662.68 721.987 1665.95 720.82 1669.96 720.82C1673.98 720.82 1677.24 721.94 1679.76 724.18C1682.28 726.327 1683.54 729.127 1683.54 732.58C1683.54 736.22 1682.28 739.253 1679.76 741.68C1677.34 744.013 1674.07 745.18 1669.96 745.18ZM1736.99 832.12C1728.97 832.12 1721.83 830.44 1715.57 827.08C1709.41 823.72 1704.51 819.147 1700.87 813.36C1697.33 807.48 1695.55 800.807 1695.55 793.34C1695.55 785.78 1697.33 779.107 1700.87 773.32C1704.51 767.44 1709.41 762.867 1715.57 759.6C1721.83 756.24 1728.97 754.56 1736.99 754.56C1744.93 754.56 1752.02 756.24 1758.27 759.6C1764.53 762.867 1769.43 767.393 1772.97 773.18C1776.52 778.967 1778.29 785.687 1778.29 793.34C1778.29 800.807 1776.52 807.48 1772.97 813.36C1769.43 819.147 1764.53 823.72 1758.27 827.08C1752.02 830.44 1744.93 832.12 1736.99 832.12ZM1736.99 814.2C1740.63 814.2 1743.9 813.36 1746.79 811.68C1749.69 810 1751.97 807.62 1753.65 804.54C1755.33 801.367 1756.17 797.633 1756.17 793.34C1756.17 788.953 1755.33 785.22 1753.65 782.14C1751.97 779.06 1749.69 776.68 1746.79 775C1743.9 773.32 1740.63 772.48 1736.99 772.48C1733.35 772.48 1730.09 773.32 1727.19 775C1724.3 776.68 1721.97 779.06 1720.19 782.14C1718.51 785.22 1717.67 788.953 1717.67 793.34C1717.67 797.633 1718.51 801.367 1720.19 804.54C1721.97 807.62 1724.3 810 1727.19 811.68C1730.09 813.36 1733.35 814.2 1736.99 814.2ZM1838.67 754.56C1844.65 754.56 1849.97 755.773 1854.63 758.2C1859.39 760.533 1863.13 764.173 1865.83 769.12C1868.54 773.973 1869.89 780.227 1869.89 787.88V831H1848.05V791.24C1848.05 785.173 1846.7 780.693 1843.99 777.8C1841.38 774.907 1837.65 773.46 1832.79 773.46C1829.34 773.46 1826.21 774.207 1823.41 775.7C1820.71 777.1 1818.56 779.293 1816.97 782.28C1815.48 785.267 1814.73 789.093 1814.73 793.76V831H1792.89V755.68H1813.75V776.54L1809.83 770.24C1812.54 765.2 1816.41 761.327 1821.45 758.62C1826.49 755.913 1832.23 754.56 1838.67 754.56ZM1935.89 831V816.3L1934.49 813.08V786.76C1934.49 782.093 1933.04 778.453 1930.15 775.84C1927.35 773.227 1923.01 771.92 1917.13 771.92C1913.12 771.92 1909.15 772.573 1905.23 773.88C1901.4 775.093 1898.14 776.773 1895.43 778.92L1887.59 763.66C1891.7 760.767 1896.64 758.527 1902.43 756.94C1908.22 755.353 1914.1 754.56 1920.07 754.56C1931.55 754.56 1940.46 757.267 1946.81 762.68C1953.16 768.093 1956.33 776.54 1956.33 788.02V831H1935.89ZM1912.93 832.12C1907.05 832.12 1902.01 831.14 1897.81 829.18C1893.61 827.127 1890.39 824.373 1888.15 820.92C1885.91 817.467 1884.79 813.593 1884.79 809.3C1884.79 804.82 1885.86 800.9 1888.01 797.54C1890.25 794.18 1893.75 791.567 1898.51 789.7C1903.27 787.74 1909.48 786.76 1917.13 786.76H1937.15V799.5H1919.51C1914.38 799.5 1910.83 800.34 1908.87 802.02C1907 803.7 1906.07 805.8 1906.07 808.32C1906.07 811.12 1907.14 813.36 1909.29 815.04C1911.53 816.627 1914.56 817.42 1918.39 817.42C1922.03 817.42 1925.3 816.58 1928.19 814.9C1931.08 813.127 1933.18 810.56 1934.49 807.2L1937.85 817.28C1936.26 822.133 1933.37 825.82 1929.17 828.34C1924.97 830.86 1919.56 832.12 1912.93 832.12ZM1976.1 831V755.68H1997.94V831H1976.1ZM1987.02 745.18C1983 745.18 1979.74 744.013 1977.22 741.68C1974.7 739.347 1973.44 736.453 1973.44 733C1973.44 729.547 1974.7 726.653 1977.22 724.32C1979.74 721.987 1983 720.82 1987.02 720.82C1991.03 720.82 1994.3 721.94 1996.82 724.18C1999.34 726.327 2000.6 729.127 2000.6 732.58C2000.6 736.22 1999.34 739.253 1996.82 741.68C1994.39 744.013 1991.12 745.18 1987.02 745.18ZM2043.55 832.12C2037.11 832.12 2030.9 831.373 2024.93 829.88C2019.05 828.293 2014.38 826.333 2010.93 824L2018.21 808.32C2021.66 810.467 2025.72 812.24 2030.39 813.64C2035.15 814.947 2039.81 815.6 2044.39 815.6C2049.43 815.6 2052.97 814.993 2055.03 813.78C2057.17 812.567 2058.25 810.887 2058.25 808.74C2058.25 806.967 2057.41 805.66 2055.73 804.82C2054.14 803.887 2051.99 803.187 2049.28 802.72C2046.58 802.253 2043.59 801.787 2040.33 801.32C2037.15 800.853 2033.93 800.247 2030.67 799.5C2027.4 798.66 2024.41 797.447 2021.71 795.86C2019 794.273 2016.81 792.127 2015.13 789.42C2013.54 786.713 2012.74 783.213 2012.74 778.92C2012.74 774.16 2014.1 769.96 2016.81 766.32C2019.61 762.68 2023.62 759.833 2028.85 757.78C2034.07 755.633 2040.33 754.56 2047.61 754.56C2052.74 754.56 2057.97 755.12 2063.29 756.24C2068.61 757.36 2073.04 758.993 2076.59 761.14L2069.31 776.68C2065.67 774.533 2061.98 773.087 2058.25 772.34C2054.61 771.5 2051.06 771.08 2047.61 771.08C2042.75 771.08 2039.21 771.733 2036.97 773.04C2034.73 774.347 2033.61 776.027 2033.61 778.08C2033.61 779.947 2034.4 781.347 2035.99 782.28C2037.67 783.213 2039.86 783.96 2042.57 784.52C2045.27 785.08 2048.21 785.593 2051.39 786.06C2054.65 786.433 2057.92 787.04 2061.19 787.88C2064.45 788.72 2067.39 789.933 2070.01 791.52C2072.71 793.013 2074.91 795.113 2076.59 797.82C2078.27 800.433 2079.11 803.887 2079.11 808.18C2079.11 812.847 2077.71 817 2074.91 820.64C2072.11 824.187 2068.05 826.987 2062.73 829.04C2057.5 831.093 2051.11 832.12 2043.55 832.12ZM2164.57 832.12C2157.48 832.12 2151.08 830.533 2145.39 827.36C2139.7 824.093 2135.17 819.567 2131.81 813.78C2128.54 807.993 2126.91 801.18 2126.91 793.34C2126.91 785.407 2128.54 778.547 2131.81 772.76C2135.17 766.973 2139.7 762.493 2145.39 759.32C2151.08 756.147 2157.48 754.56 2164.57 754.56C2170.92 754.56 2176.47 755.96 2181.23 758.76C2185.99 761.56 2189.68 765.807 2192.29 771.5C2194.9 777.193 2196.21 784.473 2196.21 793.34C2196.21 802.113 2194.95 809.393 2192.43 815.18C2189.91 820.873 2186.27 825.12 2181.51 827.92C2176.84 830.72 2171.2 832.12 2164.57 832.12ZM2168.35 814.2C2171.9 814.2 2175.12 813.36 2178.01 811.68C2180.9 810 2183.19 807.62 2184.87 804.54C2186.64 801.367 2187.53 797.633 2187.53 793.34C2187.53 788.953 2186.64 785.22 2184.87 782.14C2183.19 779.06 2180.9 776.68 2178.01 775C2175.12 773.32 2171.9 772.48 2168.35 772.48C2164.71 772.48 2161.44 773.32 2158.55 775C2155.66 776.68 2153.32 779.06 2151.55 782.14C2149.87 785.22 2149.03 788.953 2149.03 793.34C2149.03 797.633 2149.87 801.367 2151.55 804.54C2153.32 807.62 2155.66 810 2158.55 811.68C2161.44 813.36 2164.71 814.2 2168.35 814.2ZM2188.09 831V815.6L2188.51 793.2L2187.11 770.94V727.12H2208.95V831H2188.09ZM2266.54 832.12C2257.96 832.12 2250.4 830.44 2243.86 827.08C2237.42 823.72 2232.43 819.147 2228.88 813.36C2225.34 807.48 2223.56 800.807 2223.56 793.34C2223.56 785.78 2225.29 779.107 2228.74 773.32C2232.29 767.44 2237.1 762.867 2243.16 759.6C2249.23 756.24 2256.09 754.56 2263.74 754.56C2271.12 754.56 2277.74 756.147 2283.62 759.32C2289.6 762.4 2294.31 766.88 2297.76 772.76C2301.22 778.547 2302.94 785.5 2302.94 793.62C2302.94 794.46 2302.9 795.44 2302.8 796.56C2302.71 797.587 2302.62 798.567 2302.52 799.5H2241.34V786.76H2291.04L2282.64 790.54C2282.64 786.62 2281.85 783.213 2280.26 780.32C2278.68 777.427 2276.48 775.187 2273.68 773.6C2270.88 771.92 2267.62 771.08 2263.88 771.08C2260.15 771.08 2256.84 771.92 2253.94 773.6C2251.14 775.187 2248.95 777.473 2247.36 780.46C2245.78 783.353 2244.98 786.807 2244.98 790.82V794.18C2244.98 798.287 2245.87 801.927 2247.64 805.1C2249.51 808.18 2252.08 810.56 2255.34 812.24C2258.7 813.827 2262.62 814.62 2267.1 814.62C2271.12 814.62 2274.62 814.013 2277.6 812.8C2280.68 811.587 2283.48 809.767 2286 807.34L2297.62 819.94C2294.17 823.86 2289.83 826.893 2284.6 829.04C2279.38 831.093 2273.36 832.12 2266.54 832.12ZM2389.47 832.12C2382.38 832.12 2375.98 830.533 2370.29 827.36C2364.6 824.093 2360.07 819.567 2356.71 813.78C2353.44 807.993 2351.81 801.18 2351.81 793.34C2351.81 785.407 2353.44 778.547 2356.71 772.76C2360.07 766.973 2364.6 762.493 2370.29 759.32C2375.98 756.147 2382.38 754.56 2389.47 754.56C2395.82 754.56 2401.37 755.96 2406.13 758.76C2410.89 761.56 2414.58 765.807 2417.19 771.5C2419.8 777.193 2421.11 784.473 2421.11 793.34C2421.11 802.113 2419.85 809.393 2417.33 815.18C2414.81 820.873 2411.17 825.12 2406.41 827.92C2401.74 830.72 2396.1 832.12 2389.47 832.12ZM2393.25 814.2C2396.8 814.2 2400.02 813.36 2402.91 811.68C2405.8 810 2408.09 807.62 2409.77 804.54C2411.54 801.367 2412.43 797.633 2412.43 793.34C2412.43 788.953 2411.54 785.22 2409.77 782.14C2408.09 779.06 2405.8 776.68 2402.91 775C2400.02 773.32 2396.8 772.48 2393.25 772.48C2389.61 772.48 2386.34 773.32 2383.45 775C2380.56 776.68 2378.22 779.06 2376.45 782.14C2374.77 785.22 2373.93 788.953 2373.93 793.34C2373.93 797.633 2374.77 801.367 2376.45 804.54C2378.22 807.62 2380.56 810 2383.45 811.68C2386.34 813.36 2389.61 814.2 2393.25 814.2ZM2412.99 831V815.6L2413.41 793.2L2412.01 770.94V727.12H2433.85V831H2412.99ZM2491.44 832.12C2482.86 832.12 2475.3 830.44 2468.76 827.08C2462.32 823.72 2457.33 819.147 2453.78 813.36C2450.24 807.48 2448.46 800.807 2448.46 793.34C2448.46 785.78 2450.19 779.107 2453.64 773.32C2457.19 767.44 2462 762.867 2468.06 759.6C2474.13 756.24 2480.99 754.56 2488.64 754.56C2496.02 754.56 2502.64 756.147 2508.52 759.32C2514.5 762.4 2519.21 766.88 2522.66 772.76C2526.12 778.547 2527.84 785.5 2527.84 793.62C2527.84 794.46 2527.8 795.44 2527.7 796.56C2527.61 797.587 2527.52 798.567 2527.42 799.5H2466.24V786.76H2515.94L2507.54 790.54C2507.54 786.62 2506.75 783.213 2505.16 780.32C2503.58 777.427 2501.38 775.187 2498.58 773.6C2495.78 771.92 2492.52 771.08 2488.78 771.08C2485.05 771.08 2481.74 771.92 2478.84 773.6C2476.04 775.187 2473.85 777.473 2472.26 780.46C2470.68 783.353 2469.88 786.807 2469.88 790.82V794.18C2469.88 798.287 2470.77 801.927 2472.54 805.1C2474.41 808.18 2476.98 810.56 2480.24 812.24C2483.6 813.827 2487.52 814.62 2492 814.62C2496.02 814.62 2499.52 814.013 2502.5 812.8C2505.58 811.587 2508.38 809.767 2510.9 807.34L2522.52 819.94C2519.07 823.86 2514.73 826.893 2509.5 829.04C2504.28 831.093 2498.26 832.12 2491.44 832.12ZM2567.72 832.12C2561.28 832.12 2555.08 831.373 2549.1 829.88C2543.22 828.293 2538.56 826.333 2535.1 824L2542.38 808.32C2545.84 810.467 2549.9 812.24 2554.56 813.64C2559.32 814.947 2563.99 815.6 2568.56 815.6C2573.6 815.6 2577.15 814.993 2579.2 813.78C2581.35 812.567 2582.42 810.887 2582.42 808.74C2582.42 806.967 2581.58 805.66 2579.9 804.82C2578.32 803.887 2576.17 803.187 2573.46 802.72C2570.76 802.253 2567.77 801.787 2564.5 801.32C2561.33 800.853 2558.11 800.247 2554.84 799.5C2551.58 798.66 2548.59 797.447 2545.88 795.86C2543.18 794.273 2540.98 792.127 2539.3 789.42C2537.72 786.713 2536.92 783.213 2536.92 778.92C2536.92 774.16 2538.28 769.96 2540.98 766.32C2543.78 762.68 2547.8 759.833 2553.02 757.78C2558.25 755.633 2564.5 754.56 2571.78 754.56C2576.92 754.56 2582.14 755.12 2587.46 756.24C2592.78 757.36 2597.22 758.993 2600.76 761.14L2593.48 776.68C2589.84 774.533 2586.16 773.087 2582.42 772.34C2578.78 771.5 2575.24 771.08 2571.78 771.08C2566.93 771.08 2563.38 771.733 2561.14 773.04C2558.9 774.347 2557.78 776.027 2557.78 778.08C2557.78 779.947 2558.58 781.347 2560.16 782.28C2561.84 783.213 2564.04 783.96 2566.74 784.52C2569.45 785.08 2572.39 785.593 2575.56 786.06C2578.83 786.433 2582.1 787.04 2585.36 787.88C2588.63 788.72 2591.57 789.933 2594.18 791.52C2596.89 793.013 2599.08 795.113 2600.76 797.82C2602.44 800.433 2603.28 803.887 2603.28 808.18C2603.28 812.847 2601.88 817 2599.08 820.64C2596.28 824.187 2592.22 826.987 2586.9 829.04C2581.68 831.093 2575.28 832.12 2567.72 832.12ZM2616.76 831V755.68H2638.6V831H2616.76ZM2627.68 745.18C2623.67 745.18 2620.4 744.013 2617.88 741.68C2615.36 739.347 2614.1 736.453 2614.1 733C2614.1 729.547 2615.36 726.653 2617.88 724.32C2620.4 721.987 2623.67 720.82 2627.68 720.82C2631.69 720.82 2634.96 721.94 2637.48 724.18C2640 726.327 2641.26 729.127 2641.26 732.58C2641.26 736.22 2640 739.253 2637.48 741.68C2635.05 744.013 2631.79 745.18 2627.68 745.18ZM2694.29 859.28C2687.2 859.28 2680.34 858.393 2673.71 856.62C2667.18 854.94 2661.72 852.373 2657.33 848.92L2666.01 833.24C2669.18 835.853 2673.2 837.907 2678.05 839.4C2683 840.987 2687.85 841.78 2692.61 841.78C2700.36 841.78 2705.96 840.053 2709.41 836.6C2712.96 833.147 2714.73 828.013 2714.73 821.2V809.86L2716.13 790.96L2715.85 771.92V755.68H2736.57V818.4C2736.57 832.4 2732.93 842.713 2725.65 849.34C2718.37 855.967 2707.92 859.28 2694.29 859.28ZM2690.93 827.36C2683.93 827.36 2677.58 825.867 2671.89 822.88C2666.29 819.8 2661.76 815.553 2658.31 810.14C2654.95 804.633 2653.27 798.24 2653.27 790.96C2653.27 783.587 2654.95 777.193 2658.31 771.78C2661.76 766.273 2666.29 762.027 2671.89 759.04C2677.58 756.053 2683.93 754.56 2690.93 754.56C2697.28 754.56 2702.88 755.867 2707.73 758.48C2712.58 761 2716.36 764.967 2719.07 770.38C2721.78 775.7 2723.13 782.56 2723.13 790.96C2723.13 799.267 2721.78 806.127 2719.07 811.54C2716.36 816.86 2712.58 820.827 2707.73 823.44C2702.88 826.053 2697.28 827.36 2690.93 827.36ZM2695.27 809.44C2699.1 809.44 2702.5 808.693 2705.49 807.2C2708.48 805.613 2710.81 803.42 2712.49 800.62C2714.17 797.82 2715.01 794.6 2715.01 790.96C2715.01 787.227 2714.17 784.007 2712.49 781.3C2710.81 778.5 2708.48 776.353 2705.49 774.86C2702.5 773.273 2699.1 772.48 2695.27 772.48C2691.44 772.48 2688.04 773.273 2685.05 774.86C2682.06 776.353 2679.68 778.5 2677.91 781.3C2676.23 784.007 2675.39 787.227 2675.39 790.96C2675.39 794.6 2676.23 797.82 2677.91 800.62C2679.68 803.42 2682.06 805.613 2685.05 807.2C2688.04 808.693 2691.44 809.44 2695.27 809.44ZM2802.68 754.56C2808.65 754.56 2813.97 755.773 2818.64 758.2C2823.4 760.533 2827.13 764.173 2829.84 769.12C2832.54 773.973 2833.9 780.227 2833.9 787.88V831H2812.06V791.24C2812.06 785.173 2810.7 780.693 2808 777.8C2805.38 774.907 2801.65 773.46 2796.8 773.46C2793.34 773.46 2790.22 774.207 2787.42 775.7C2784.71 777.1 2782.56 779.293 2780.98 782.28C2779.48 785.267 2778.74 789.093 2778.74 793.76V831H2756.9V755.68H2777.76V776.54L2773.84 770.24C2776.54 765.2 2780.42 761.327 2785.46 758.62C2790.5 755.913 2796.24 754.56 2802.68 754.56Z" fill="white"/>
<path d="M738.044 593.174C745.609 585.609 757.875 585.609 765.44 593.174C773.006 600.739 773.006 613.006 765.44 620.571L688.27 697.742L688.623 698.096L765.44 774.914C773.006 782.48 773.006 794.745 765.44 802.311C757.875 809.876 745.609 809.876 738.044 802.311L647.174 711.44C639.609 703.875 639.609 691.609 647.174 684.044L738.044 593.174Z" fill="white" stroke="white"/>
<path d="M894.339 802.311C886.773 809.876 874.508 809.876 866.942 802.311C859.377 794.745 859.377 782.479 866.942 774.913L944.113 697.742L943.76 697.389L866.942 620.57C859.377 613.005 859.377 600.739 866.942 593.174C874.508 585.609 886.773 585.608 894.339 593.174L985.209 684.044C992.774 691.609 992.774 703.875 985.209 711.44L894.339 802.311Z" fill="white" stroke="white"/>
<line x1="847" y1="666.284" x2="784.284" y2="729" stroke="white" stroke-width="40" stroke-linecap="round"/>
</svg>
