<svg width="3745" height="1780" viewBox="0 0 3745 1780" fill="none" xmlns="http://www.w3.org/2000/svg">
<path d="M1166.62 651V553H1211.14C1221.78 553 1231.16 555.053 1239.28 559.16C1247.4 563.173 1253.75 568.82 1258.32 576.1C1262.89 583.38 1265.18 592.013 1265.18 602C1265.18 611.893 1262.89 620.527 1258.32 627.9C1253.75 635.18 1247.4 640.873 1239.28 644.98C1231.16 648.993 1221.78 651 1211.14 651H1166.62ZM1189.3 632.38H1210.02C1216.55 632.38 1222.2 631.167 1226.96 628.74C1231.81 626.22 1235.55 622.673 1238.16 618.1C1240.87 613.527 1242.22 608.16 1242.22 602C1242.22 595.747 1240.87 590.38 1238.16 585.9C1235.55 581.327 1231.81 577.827 1226.96 575.4C1222.2 572.88 1216.55 571.62 1210.02 571.62H1189.3V632.38ZM1318.12 652.12C1309.54 652.12 1301.98 650.44 1295.44 647.08C1289 643.72 1284.01 639.147 1280.46 633.36C1276.92 627.48 1275.14 620.807 1275.14 613.34C1275.14 605.78 1276.87 599.107 1280.32 593.32C1283.87 587.44 1288.68 582.867 1294.74 579.6C1300.81 576.24 1307.67 574.56 1315.32 574.56C1322.7 574.56 1329.32 576.147 1335.2 579.32C1341.18 582.4 1345.89 586.88 1349.34 592.76C1352.8 598.547 1354.52 605.5 1354.52 613.62C1354.52 614.46 1354.48 615.44 1354.38 616.56C1354.29 617.587 1354.2 618.567 1354.1 619.5H1292.92V606.76H1342.62L1334.22 610.54C1334.22 606.62 1333.43 603.213 1331.84 600.32C1330.26 597.427 1328.06 595.187 1325.26 593.6C1322.46 591.92 1319.2 591.08 1315.46 591.08C1311.73 591.08 1308.42 591.92 1305.52 593.6C1302.72 595.187 1300.53 597.473 1298.94 600.46C1297.36 603.353 1296.56 606.807 1296.56 610.82V614.18C1296.56 618.287 1297.45 621.927 1299.22 625.1C1301.09 628.18 1303.66 630.56 1306.92 632.24C1310.28 633.827 1314.2 634.62 1318.68 634.62C1322.7 634.62 1326.2 634.013 1329.18 632.8C1332.26 631.587 1335.06 629.767 1337.58 627.34L1349.2 639.94C1345.75 643.86 1341.41 646.893 1336.18 649.04C1330.96 651.093 1324.94 652.12 1318.12 652.12ZM1394.4 652.12C1387.96 652.12 1381.76 651.373 1375.78 649.88C1369.9 648.293 1365.24 646.333 1361.78 644L1369.06 628.32C1372.52 630.467 1376.58 632.24 1381.24 633.64C1386 634.947 1390.67 635.6 1395.24 635.6C1400.28 635.6 1403.83 634.993 1405.88 633.78C1408.03 632.567 1409.1 630.887 1409.1 628.74C1409.1 626.967 1408.26 625.66 1406.58 624.82C1405 623.887 1402.85 623.187 1400.14 622.72C1397.44 622.253 1394.45 621.787 1391.18 621.32C1388.01 620.853 1384.79 620.247 1381.52 619.5C1378.26 618.66 1375.27 617.447 1372.56 615.86C1369.86 614.273 1367.66 612.127 1365.98 609.42C1364.4 606.713 1363.6 603.213 1363.6 598.92C1363.6 594.16 1364.96 589.96 1367.66 586.32C1370.46 582.68 1374.48 579.833 1379.7 577.78C1384.93 575.633 1391.18 574.56 1398.46 574.56C1403.6 574.56 1408.82 575.12 1414.14 576.24C1419.46 577.36 1423.9 578.993 1427.44 581.14L1420.16 596.68C1416.52 594.533 1412.84 593.087 1409.1 592.34C1405.46 591.5 1401.92 591.08 1398.46 591.08C1393.61 591.08 1390.06 591.733 1387.82 593.04C1385.58 594.347 1384.46 596.027 1384.46 598.08C1384.46 599.947 1385.26 601.347 1386.84 602.28C1388.52 603.213 1390.72 603.96 1393.42 604.52C1396.13 605.08 1399.07 605.593 1402.24 606.06C1405.51 606.433 1408.78 607.04 1412.04 607.88C1415.31 608.72 1418.25 609.933 1420.86 611.52C1423.57 613.013 1425.76 615.113 1427.44 617.82C1429.12 620.433 1429.96 623.887 1429.96 628.18C1429.96 632.847 1428.56 637 1425.76 640.64C1422.96 644.187 1418.9 646.987 1413.58 649.04C1408.36 651.093 1401.96 652.12 1394.4 652.12ZM1443.44 651V575.68H1465.28V651H1443.44ZM1454.36 565.18C1450.35 565.18 1447.08 564.013 1444.56 561.68C1442.04 559.347 1440.78 556.453 1440.78 553C1440.78 549.547 1442.04 546.653 1444.56 544.32C1447.08 541.987 1450.35 540.82 1454.36 540.82C1458.37 540.82 1461.64 541.94 1464.16 544.18C1466.68 546.327 1467.94 549.127 1467.94 552.58C1467.94 556.22 1466.68 559.253 1464.16 561.68C1461.73 564.013 1458.47 565.18 1454.36 565.18ZM1520.97 679.28C1513.88 679.28 1507.02 678.393 1500.39 676.62C1493.86 674.94 1488.4 672.373 1484.01 668.92L1492.69 653.24C1495.86 655.853 1499.88 657.907 1504.73 659.4C1509.68 660.987 1514.53 661.78 1519.29 661.78C1527.04 661.78 1532.64 660.053 1536.09 656.6C1539.64 653.147 1541.41 648.013 1541.41 641.2V629.86L1542.81 610.96L1542.53 591.92V575.68H1563.25V638.4C1563.25 652.4 1559.61 662.713 1552.33 669.34C1545.05 675.967 1534.6 679.28 1520.97 679.28ZM1517.61 647.36C1510.61 647.36 1504.26 645.867 1498.57 642.88C1492.97 639.8 1488.44 635.553 1484.99 630.14C1481.63 624.633 1479.95 618.24 1479.95 610.96C1479.95 603.587 1481.63 597.193 1484.99 591.78C1488.44 586.273 1492.97 582.027 1498.57 579.04C1504.26 576.053 1510.61 574.56 1517.61 574.56C1523.96 574.56 1529.56 575.867 1534.41 578.48C1539.26 581 1543.04 584.967 1545.75 590.38C1548.46 595.7 1549.81 602.56 1549.81 610.96C1549.81 619.267 1548.46 626.127 1545.75 631.54C1543.04 636.86 1539.26 640.827 1534.41 643.44C1529.56 646.053 1523.96 647.36 1517.61 647.36ZM1521.95 629.44C1525.78 629.44 1529.18 628.693 1532.17 627.2C1535.16 625.613 1537.49 623.42 1539.17 620.62C1540.85 617.82 1541.69 614.6 1541.69 610.96C1541.69 607.227 1540.85 604.007 1539.17 601.3C1537.49 598.5 1535.16 596.353 1532.17 594.86C1529.18 593.273 1525.78 592.48 1521.95 592.48C1518.12 592.48 1514.72 593.273 1511.73 594.86C1508.74 596.353 1506.36 598.5 1504.59 601.3C1502.91 604.007 1502.07 607.227 1502.07 610.96C1502.07 614.6 1502.91 617.82 1504.59 620.62C1506.36 623.42 1508.74 625.613 1511.73 627.2C1514.72 628.693 1518.12 629.44 1521.95 629.44ZM1629.36 574.56C1635.33 574.56 1640.65 575.773 1645.32 578.2C1650.08 580.533 1653.81 584.173 1656.52 589.12C1659.22 593.973 1660.58 600.227 1660.58 607.88V651H1638.74V611.24C1638.74 605.173 1637.38 600.693 1634.68 597.8C1632.06 594.907 1628.33 593.46 1623.48 593.46C1620.02 593.46 1616.9 594.207 1614.1 595.7C1611.39 597.1 1609.24 599.293 1607.66 602.28C1606.16 605.267 1605.42 609.093 1605.42 613.76V651H1583.58V575.68H1604.44V596.54L1600.52 590.24C1603.22 585.2 1607.1 581.327 1612.14 578.62C1617.18 575.913 1622.92 574.56 1629.36 574.56ZM1718.3 652.12C1709.71 652.12 1702.15 650.44 1695.62 647.08C1689.18 643.72 1684.19 639.147 1680.64 633.36C1677.09 627.48 1675.32 620.807 1675.32 613.34C1675.32 605.78 1677.05 599.107 1680.5 593.32C1684.05 587.44 1688.85 582.867 1694.92 579.6C1700.99 576.24 1707.85 574.56 1715.5 574.56C1722.87 574.56 1729.5 576.147 1735.38 579.32C1741.35 582.4 1746.07 586.88 1749.52 592.76C1752.97 598.547 1754.7 605.5 1754.7 613.62C1754.7 614.46 1754.65 615.44 1754.56 616.56C1754.47 617.587 1754.37 618.567 1754.28 619.5H1693.1V606.76H1742.8L1734.4 610.54C1734.4 606.62 1733.61 603.213 1732.02 600.32C1730.43 597.427 1728.24 595.187 1725.44 593.6C1722.64 591.92 1719.37 591.08 1715.64 591.08C1711.91 591.08 1708.59 591.92 1705.7 593.6C1702.9 595.187 1700.71 597.473 1699.12 600.46C1697.53 603.353 1696.74 606.807 1696.74 610.82V614.18C1696.74 618.287 1697.63 621.927 1699.4 625.1C1701.27 628.18 1703.83 630.56 1707.1 632.24C1710.46 633.827 1714.38 634.62 1718.86 634.62C1722.87 634.62 1726.37 634.013 1729.36 632.8C1732.44 631.587 1735.24 629.767 1737.76 627.34L1749.38 639.94C1745.93 643.86 1741.59 646.893 1736.36 649.04C1731.13 651.093 1725.11 652.12 1718.3 652.12ZM1769.24 651V575.68H1790.1V596.96L1787.16 590.8C1789.4 585.48 1792.99 581.467 1797.94 578.76C1802.89 575.96 1808.91 574.56 1816 574.56V594.72C1815.07 594.627 1814.23 594.58 1813.48 594.58C1812.73 594.487 1811.94 594.44 1811.1 594.44C1805.13 594.44 1800.27 596.167 1796.54 599.62C1792.9 602.98 1791.08 608.253 1791.08 615.44V651H1769.24ZM1854.87 652.12C1848.43 652.12 1842.23 651.373 1836.25 649.88C1830.37 648.293 1825.71 646.333 1822.25 644L1829.53 628.32C1832.99 630.467 1837.05 632.24 1841.71 633.64C1846.47 634.947 1851.14 635.6 1855.71 635.6C1860.75 635.6 1864.3 634.993 1866.35 633.78C1868.5 632.567 1869.57 630.887 1869.57 628.74C1869.57 626.967 1868.73 625.66 1867.05 624.82C1865.47 623.887 1863.32 623.187 1860.61 622.72C1857.91 622.253 1854.92 621.787 1851.65 621.32C1848.48 620.853 1845.26 620.247 1841.99 619.5C1838.73 618.66 1835.74 617.447 1833.03 615.86C1830.33 614.273 1828.13 612.127 1826.45 609.42C1824.87 606.713 1824.07 603.213 1824.07 598.92C1824.07 594.16 1825.43 589.96 1828.13 586.32C1830.93 582.68 1834.95 579.833 1840.17 577.78C1845.4 575.633 1851.65 574.56 1858.93 574.56C1864.07 574.56 1869.29 575.12 1874.61 576.24C1879.93 577.36 1884.37 578.993 1887.91 581.14L1880.63 596.68C1876.99 594.533 1873.31 593.087 1869.57 592.34C1865.93 591.5 1862.39 591.08 1858.93 591.08C1854.08 591.08 1850.53 591.733 1848.29 593.04C1846.05 594.347 1844.93 596.027 1844.93 598.08C1844.93 599.947 1845.73 601.347 1847.31 602.28C1848.99 603.213 1851.19 603.96 1853.89 604.52C1856.6 605.08 1859.54 605.593 1862.71 606.06C1865.98 606.433 1869.25 607.04 1872.51 607.88C1875.78 608.72 1878.72 609.933 1881.33 611.52C1884.04 613.013 1886.23 615.113 1887.91 617.82C1889.59 620.433 1890.43 623.887 1890.43 628.18C1890.43 632.847 1889.03 637 1886.23 640.64C1883.43 644.187 1879.37 646.987 1874.05 649.04C1868.83 651.093 1862.43 652.12 1854.87 652.12ZM1988.08 652.12C1981.73 652.12 1976.18 650.72 1971.42 647.92C1966.66 645.12 1962.92 640.873 1960.22 635.18C1957.6 629.393 1956.3 622.113 1956.3 613.34C1956.3 604.473 1957.56 597.193 1960.08 591.5C1962.6 585.807 1966.24 581.56 1971 578.76C1975.76 575.96 1981.45 574.56 1988.08 574.56C1995.17 574.56 2001.52 576.193 2007.12 579.46C2012.81 582.633 2017.29 587.113 2020.56 592.9C2023.92 598.687 2025.6 605.5 2025.6 613.34C2025.6 621.273 2023.92 628.133 2020.56 633.92C2017.29 639.707 2012.81 644.187 2007.12 647.36C2001.52 650.533 1995.17 652.12 1988.08 652.12ZM1943.56 678.16V575.68H1964.42V591.08L1964 613.48L1965.4 635.74V678.16H1943.56ZM1984.3 634.2C1987.94 634.2 1991.16 633.36 1993.96 631.68C1996.85 630 1999.14 627.62 2000.82 624.54C2002.59 621.367 2003.48 617.633 2003.48 613.34C2003.48 608.953 2002.59 605.22 2000.82 602.14C1999.14 599.06 1996.85 596.68 1993.96 595C1991.16 593.32 1987.94 592.48 1984.3 592.48C1980.66 592.48 1977.39 593.32 1974.5 595C1971.6 596.68 1969.32 599.06 1967.64 602.14C1965.96 605.22 1965.12 608.953 1965.12 613.34C1965.12 617.633 1965.96 621.367 1967.64 624.54C1969.32 627.62 1971.6 630 1974.5 631.68C1977.39 633.36 1980.66 634.2 1984.3 634.2ZM2040.22 651V575.68H2061.08V596.96L2058.14 590.8C2060.38 585.48 2063.97 581.467 2068.92 578.76C2073.86 575.96 2079.88 574.56 2086.98 574.56V594.72C2086.04 594.627 2085.2 594.58 2084.46 594.58C2083.71 594.487 2082.92 594.44 2082.08 594.44C2076.1 594.44 2071.25 596.167 2067.52 599.62C2063.88 602.98 2062.06 608.253 2062.06 615.44V651H2040.22ZM2136.8 652.12C2128.21 652.12 2120.65 650.44 2114.12 647.08C2107.68 643.72 2102.68 639.147 2099.14 633.36C2095.59 627.48 2093.82 620.807 2093.82 613.34C2093.82 605.78 2095.54 599.107 2099 593.32C2102.54 587.44 2107.35 582.867 2113.42 579.6C2119.48 576.24 2126.34 574.56 2134 574.56C2141.37 574.56 2148 576.147 2153.88 579.32C2159.85 582.4 2164.56 586.88 2168.02 592.76C2171.47 598.547 2173.2 605.5 2173.2 613.62C2173.2 614.46 2173.15 615.44 2173.06 616.56C2172.96 617.587 2172.87 618.567 2172.78 619.5H2111.6V606.76H2161.3L2152.9 610.54C2152.9 606.62 2152.1 603.213 2150.52 600.32C2148.93 597.427 2146.74 595.187 2143.94 593.6C2141.14 591.92 2137.87 591.08 2134.14 591.08C2130.4 591.08 2127.09 591.92 2124.2 593.6C2121.4 595.187 2119.2 597.473 2117.62 600.46C2116.03 603.353 2115.24 606.807 2115.24 610.82V614.18C2115.24 618.287 2116.12 621.927 2117.9 625.1C2119.76 628.18 2122.33 630.56 2125.6 632.24C2128.96 633.827 2132.88 634.62 2137.36 634.62C2141.37 634.62 2144.87 634.013 2147.86 632.8C2150.94 631.587 2153.74 629.767 2156.26 627.34L2167.88 639.94C2164.42 643.86 2160.08 646.893 2154.86 649.04C2149.63 651.093 2143.61 652.12 2136.8 652.12ZM2224.14 652.12C2216.02 652.12 2208.78 650.487 2202.44 647.22C2196.09 643.86 2191.1 639.24 2187.46 633.36C2183.91 627.48 2182.14 620.807 2182.14 613.34C2182.14 605.78 2183.91 599.107 2187.46 593.32C2191.1 587.44 2196.09 582.867 2202.44 579.6C2208.78 576.24 2216.02 574.56 2224.14 574.56C2232.07 574.56 2238.98 576.24 2244.86 579.6C2250.74 582.867 2255.08 587.58 2257.88 593.74L2240.94 602.84C2238.98 599.293 2236.5 596.68 2233.52 595C2230.62 593.32 2227.45 592.48 2224 592.48C2220.26 592.48 2216.9 593.32 2213.92 595C2210.93 596.68 2208.55 599.06 2206.78 602.14C2205.1 605.22 2204.26 608.953 2204.26 613.34C2204.26 617.727 2205.1 621.46 2206.78 624.54C2208.55 627.62 2210.93 630 2213.92 631.68C2216.9 633.36 2220.26 634.2 2224 634.2C2227.45 634.2 2230.62 633.407 2233.52 631.82C2236.5 630.14 2238.98 627.48 2240.94 623.84L2257.88 633.08C2255.08 639.147 2250.74 643.86 2244.86 647.22C2238.98 650.487 2232.07 652.12 2224.14 652.12ZM2270.04 651V575.68H2291.88V651H2270.04ZM2280.96 565.18C2276.95 565.18 2273.68 564.013 2271.16 561.68C2268.64 559.347 2267.38 556.453 2267.38 553C2267.38 549.547 2268.64 546.653 2271.16 544.32C2273.68 541.987 2276.95 540.82 2280.96 540.82C2284.97 540.82 2288.24 541.94 2290.76 544.18C2293.28 546.327 2294.54 549.127 2294.54 552.58C2294.54 556.22 2293.28 559.253 2290.76 561.68C2288.33 564.013 2285.07 565.18 2280.96 565.18ZM2337.49 652.12C2331.05 652.12 2324.84 651.373 2318.87 649.88C2312.99 648.293 2308.32 646.333 2304.87 644L2312.15 628.32C2315.6 630.467 2319.66 632.24 2324.33 633.64C2329.09 634.947 2333.76 635.6 2338.33 635.6C2343.37 635.6 2346.92 634.993 2348.97 633.78C2351.12 632.567 2352.19 630.887 2352.19 628.74C2352.19 626.967 2351.35 625.66 2349.67 624.82C2348.08 623.887 2345.94 623.187 2343.23 622.72C2340.52 622.253 2337.54 621.787 2334.27 621.32C2331.1 620.853 2327.88 620.247 2324.61 619.5C2321.34 618.66 2318.36 617.447 2315.65 615.86C2312.94 614.273 2310.75 612.127 2309.07 609.42C2307.48 606.713 2306.69 603.213 2306.69 598.92C2306.69 594.16 2308.04 589.96 2310.75 586.32C2313.55 582.68 2317.56 579.833 2322.79 577.78C2328.02 575.633 2334.27 574.56 2341.55 574.56C2346.68 574.56 2351.91 575.12 2357.23 576.24C2362.55 577.36 2366.98 578.993 2370.53 581.14L2363.25 596.68C2359.61 594.533 2355.92 593.087 2352.19 592.34C2348.55 591.5 2345 591.08 2341.55 591.08C2336.7 591.08 2333.15 591.733 2330.91 593.04C2328.67 594.347 2327.55 596.027 2327.55 598.08C2327.55 599.947 2328.34 601.347 2329.93 602.28C2331.61 603.213 2333.8 603.96 2336.51 604.52C2339.22 605.08 2342.16 605.593 2345.33 606.06C2348.6 606.433 2351.86 607.04 2355.13 607.88C2358.4 608.72 2361.34 609.933 2363.95 611.52C2366.66 613.013 2368.85 615.113 2370.53 617.82C2372.21 620.433 2373.05 623.887 2373.05 628.18C2373.05 632.847 2371.65 637 2368.85 640.64C2366.05 644.187 2361.99 646.987 2356.67 649.04C2351.44 651.093 2345.05 652.12 2337.49 652.12ZM2432.73 651V636.3L2431.33 633.08V606.76C2431.33 602.093 2429.88 598.453 2426.99 595.84C2424.19 593.227 2419.85 591.92 2413.97 591.92C2409.95 591.92 2405.99 592.573 2402.07 593.88C2398.24 595.093 2394.97 596.773 2392.27 598.92L2384.43 583.66C2388.53 580.767 2393.48 578.527 2399.27 576.94C2405.05 575.353 2410.93 574.56 2416.91 574.56C2428.39 574.56 2437.3 577.267 2443.65 582.68C2449.99 588.093 2453.17 596.54 2453.17 608.02V651H2432.73ZM2409.77 652.12C2403.89 652.12 2398.85 651.14 2394.65 649.18C2390.45 647.127 2387.23 644.373 2384.99 640.92C2382.75 637.467 2381.63 633.593 2381.63 629.3C2381.63 624.82 2382.7 620.9 2384.85 617.54C2387.09 614.18 2390.59 611.567 2395.35 609.7C2400.11 607.74 2406.31 606.76 2413.97 606.76H2433.99V619.5H2416.35C2411.21 619.5 2407.67 620.34 2405.71 622.02C2403.84 623.7 2402.91 625.8 2402.91 628.32C2402.91 631.12 2403.98 633.36 2406.13 635.04C2408.37 636.627 2411.4 637.42 2415.23 637.42C2418.87 637.42 2422.13 636.58 2425.03 634.9C2427.92 633.127 2430.02 630.56 2431.33 627.2L2434.69 637.28C2433.1 642.133 2430.21 645.82 2426.01 648.34C2421.81 650.86 2416.39 652.12 2409.77 652.12ZM2569.39 574.56C2575.36 574.56 2580.64 575.773 2585.21 578.2C2589.88 580.533 2593.52 584.173 2596.13 589.12C2598.84 593.973 2600.19 600.227 2600.19 607.88V651H2578.35V611.24C2578.35 605.173 2577.09 600.693 2574.57 597.8C2572.05 594.907 2568.5 593.46 2563.93 593.46C2560.76 593.46 2557.91 594.207 2555.39 595.7C2552.87 597.1 2550.91 599.247 2549.51 602.14C2548.11 605.033 2547.41 608.72 2547.41 613.2V651H2525.57V611.24C2525.57 605.173 2524.31 600.693 2521.79 597.8C2519.36 594.907 2515.86 593.46 2511.29 593.46C2508.12 593.46 2505.27 594.207 2502.75 595.7C2500.23 597.1 2498.27 599.247 2496.87 602.14C2495.47 605.033 2494.77 608.72 2494.77 613.2V651H2472.93V575.68H2493.79V596.26L2489.87 590.24C2492.48 585.107 2496.17 581.233 2500.93 578.62C2505.78 575.913 2511.29 574.56 2517.45 574.56C2524.36 574.56 2530.38 576.333 2535.51 579.88C2540.74 583.333 2544.19 588.653 2545.87 595.84L2538.17 593.74C2540.69 587.86 2544.7 583.193 2550.21 579.74C2555.81 576.287 2562.2 574.56 2569.39 574.56ZM1209.6 832.12C1203.25 832.12 1197.7 830.72 1192.94 827.92C1188.18 825.12 1184.45 820.873 1181.74 815.18C1179.13 809.393 1177.82 802.113 1177.82 793.34C1177.82 784.473 1179.08 777.193 1181.6 771.5C1184.12 765.807 1187.76 761.56 1192.52 758.76C1197.28 755.96 1202.97 754.56 1209.6 754.56C1216.69 754.56 1223.04 756.193 1228.64 759.46C1234.33 762.633 1238.81 767.113 1242.08 772.9C1245.44 778.687 1247.12 785.5 1247.12 793.34C1247.12 801.273 1245.44 808.133 1242.08 813.92C1238.81 819.707 1234.33 824.187 1228.64 827.36C1223.04 830.533 1216.69 832.12 1209.6 832.12ZM1165.08 858.16V755.68H1185.94V771.08L1185.52 793.48L1186.92 815.74V858.16H1165.08ZM1205.82 814.2C1209.46 814.2 1212.68 813.36 1215.48 811.68C1218.37 810 1220.66 807.62 1222.34 804.54C1224.11 801.367 1225 797.633 1225 793.34C1225 788.953 1224.11 785.22 1222.34 782.14C1220.66 779.06 1218.37 776.68 1215.48 775C1212.68 773.32 1209.46 772.48 1205.82 772.48C1202.18 772.48 1198.91 773.32 1196.02 775C1193.13 776.68 1190.84 779.06 1189.16 782.14C1187.48 785.22 1186.64 788.953 1186.64 793.34C1186.64 797.633 1187.48 801.367 1189.16 804.54C1190.84 807.62 1193.13 810 1196.02 811.68C1198.91 813.36 1202.18 814.2 1205.82 814.2ZM1261.74 831V755.68H1282.6V776.96L1279.66 770.8C1281.9 765.48 1285.49 761.467 1290.44 758.76C1295.39 755.96 1301.41 754.56 1308.5 754.56V774.72C1307.57 774.627 1306.73 774.58 1305.98 774.58C1305.23 774.487 1304.44 774.44 1303.6 774.44C1297.63 774.44 1292.77 776.167 1289.04 779.62C1285.4 782.98 1283.58 788.253 1283.58 795.44V831H1261.74ZM1356.78 832.12C1348.75 832.12 1341.61 830.44 1335.36 827.08C1329.2 823.72 1324.3 819.147 1320.66 813.36C1317.11 807.48 1315.34 800.807 1315.34 793.34C1315.34 785.78 1317.11 779.107 1320.66 773.32C1324.3 767.44 1329.2 762.867 1335.36 759.6C1341.61 756.24 1348.75 754.56 1356.78 754.56C1364.71 754.56 1371.81 756.24 1378.06 759.6C1384.31 762.867 1389.21 767.393 1392.76 773.18C1396.31 778.967 1398.08 785.687 1398.08 793.34C1398.08 800.807 1396.31 807.48 1392.76 813.36C1389.21 819.147 1384.31 823.72 1378.06 827.08C1371.81 830.44 1364.71 832.12 1356.78 832.12ZM1356.78 814.2C1360.42 814.2 1363.69 813.36 1366.58 811.68C1369.47 810 1371.76 807.62 1373.44 804.54C1375.12 801.367 1375.96 797.633 1375.96 793.34C1375.96 788.953 1375.12 785.22 1373.44 782.14C1371.76 779.06 1369.47 776.68 1366.58 775C1363.69 773.32 1360.42 772.48 1356.78 772.48C1353.14 772.48 1349.87 773.32 1346.98 775C1344.09 776.68 1341.75 779.06 1339.98 782.14C1338.3 785.22 1337.46 788.953 1337.46 793.34C1337.46 797.633 1338.3 801.367 1339.98 804.54C1341.75 807.62 1344.09 810 1346.98 811.68C1349.87 813.36 1353.14 814.2 1356.78 814.2ZM1448.1 859.28C1441 859.28 1434.14 858.393 1427.52 856.62C1420.98 854.94 1415.52 852.373 1411.14 848.92L1419.82 833.24C1422.99 835.853 1427 837.907 1431.86 839.4C1436.8 840.987 1441.66 841.78 1446.42 841.78C1454.16 841.78 1459.76 840.053 1463.22 836.6C1466.76 833.147 1468.54 828.013 1468.54 821.2V809.86L1469.94 790.96L1469.66 771.92V755.68H1490.38V818.4C1490.38 832.4 1486.74 842.713 1479.46 849.34C1472.18 855.967 1461.72 859.28 1448.1 859.28ZM1444.74 827.36C1437.74 827.36 1431.39 825.867 1425.7 822.88C1420.1 819.8 1415.57 815.553 1412.12 810.14C1408.76 804.633 1407.08 798.24 1407.08 790.96C1407.08 783.587 1408.76 777.193 1412.12 771.78C1415.57 766.273 1420.1 762.027 1425.7 759.04C1431.39 756.053 1437.74 754.56 1444.74 754.56C1451.08 754.56 1456.68 755.867 1461.54 758.48C1466.39 761 1470.17 764.967 1472.88 770.38C1475.58 775.7 1476.94 782.56 1476.94 790.96C1476.94 799.267 1475.58 806.127 1472.88 811.54C1470.17 816.86 1466.39 820.827 1461.54 823.44C1456.68 826.053 1451.08 827.36 1444.74 827.36ZM1449.08 809.44C1452.9 809.44 1456.31 808.693 1459.3 807.2C1462.28 805.613 1464.62 803.42 1466.3 800.62C1467.98 797.82 1468.82 794.6 1468.82 790.96C1468.82 787.227 1467.98 784.007 1466.3 781.3C1464.62 778.5 1462.28 776.353 1459.3 774.86C1456.31 773.273 1452.9 772.48 1449.08 772.48C1445.25 772.48 1441.84 773.273 1438.86 774.86C1435.87 776.353 1433.49 778.5 1431.72 781.3C1430.04 784.007 1429.2 787.227 1429.2 790.96C1429.2 794.6 1430.04 797.82 1431.72 800.62C1433.49 803.42 1435.87 805.613 1438.86 807.2C1441.84 808.693 1445.25 809.44 1449.08 809.44ZM1510.71 831V755.68H1531.57V776.96L1528.63 770.8C1530.87 765.48 1534.46 761.467 1539.41 758.76C1544.35 755.96 1550.37 754.56 1557.47 754.56V774.72C1556.53 774.627 1555.69 774.58 1554.95 774.58C1554.2 774.487 1553.41 774.44 1552.57 774.44C1546.59 774.44 1541.74 776.167 1538.01 779.62C1534.37 782.98 1532.55 788.253 1532.55 795.44V831H1510.71ZM1611.73 831V816.3L1610.33 813.08V786.76C1610.33 782.093 1608.88 778.453 1605.99 775.84C1603.19 773.227 1598.85 771.92 1592.97 771.92C1588.96 771.92 1584.99 772.573 1581.07 773.88C1577.24 775.093 1573.98 776.773 1571.27 778.92L1563.43 763.66C1567.54 760.767 1572.48 758.527 1578.27 756.94C1584.06 755.353 1589.94 754.56 1595.91 754.56C1607.39 754.56 1616.3 757.267 1622.65 762.68C1629 768.093 1632.17 776.54 1632.17 788.02V831H1611.73ZM1588.77 832.12C1582.89 832.12 1577.85 831.14 1573.65 829.18C1569.45 827.127 1566.23 824.373 1563.99 820.92C1561.75 817.467 1560.63 813.593 1560.63 809.3C1560.63 804.82 1561.7 800.9 1563.85 797.54C1566.09 794.18 1569.59 791.567 1574.35 789.7C1579.11 787.74 1585.32 786.76 1592.97 786.76H1612.99V799.5H1595.35C1590.22 799.5 1586.67 800.34 1584.71 802.02C1582.84 803.7 1581.91 805.8 1581.91 808.32C1581.91 811.12 1582.98 813.36 1585.13 815.04C1587.37 816.627 1590.4 817.42 1594.23 817.42C1597.87 817.42 1601.14 816.58 1604.03 814.9C1606.92 813.127 1609.02 810.56 1610.33 807.2L1613.69 817.28C1612.1 822.133 1609.21 825.82 1605.01 828.34C1600.81 830.86 1595.4 832.12 1588.77 832.12ZM1748.4 754.56C1754.37 754.56 1759.64 755.773 1764.22 758.2C1768.88 760.533 1772.52 764.173 1775.14 769.12C1777.84 773.973 1779.2 780.227 1779.2 787.88V831H1757.36V791.24C1757.36 785.173 1756.1 780.693 1753.58 777.8C1751.06 774.907 1747.51 773.46 1742.94 773.46C1739.76 773.46 1736.92 774.207 1734.4 775.7C1731.88 777.1 1729.92 779.247 1728.52 782.14C1727.12 785.033 1726.42 788.72 1726.42 793.2V831H1704.58V791.24C1704.58 785.173 1703.32 780.693 1700.8 777.8C1698.37 774.907 1694.87 773.46 1690.3 773.46C1687.12 773.46 1684.28 774.207 1681.76 775.7C1679.24 777.1 1677.28 779.247 1675.88 782.14C1674.48 785.033 1673.78 788.72 1673.78 793.2V831H1651.94V755.68H1672.8V776.26L1668.88 770.24C1671.49 765.107 1675.18 761.233 1679.94 758.62C1684.79 755.913 1690.3 754.56 1696.46 754.56C1703.36 754.56 1709.38 756.333 1714.52 759.88C1719.74 763.333 1723.2 768.653 1724.88 775.84L1717.18 773.74C1719.7 767.86 1723.71 763.193 1729.22 759.74C1734.82 756.287 1741.21 754.56 1748.4 754.56ZM1844.97 831V816.3L1843.57 813.08V786.76C1843.57 782.093 1842.12 778.453 1839.23 775.84C1836.43 773.227 1832.09 771.92 1826.21 771.92C1822.2 771.92 1818.23 772.573 1814.31 773.88C1810.48 775.093 1807.22 776.773 1804.51 778.92L1796.67 763.66C1800.78 760.767 1805.72 758.527 1811.51 756.94C1817.3 755.353 1823.18 754.56 1829.15 754.56C1840.63 754.56 1849.54 757.267 1855.89 762.68C1862.24 768.093 1865.41 776.54 1865.41 788.02V831H1844.97ZM1822.01 832.12C1816.13 832.12 1811.09 831.14 1806.89 829.18C1802.69 827.127 1799.47 824.373 1797.23 820.92C1794.99 817.467 1793.87 813.593 1793.87 809.3C1793.87 804.82 1794.94 800.9 1797.09 797.54C1799.33 794.18 1802.83 791.567 1807.59 789.7C1812.35 787.74 1818.56 786.76 1826.21 786.76H1846.23V799.5H1828.59C1823.46 799.5 1819.91 800.34 1817.95 802.02C1816.08 803.7 1815.15 805.8 1815.15 808.32C1815.15 811.12 1816.22 813.36 1818.37 815.04C1820.61 816.627 1823.64 817.42 1827.47 817.42C1831.11 817.42 1834.38 816.58 1837.27 814.9C1840.16 813.127 1842.26 810.56 1843.57 807.2L1846.93 817.28C1845.34 822.133 1842.45 825.82 1838.25 828.34C1834.05 830.86 1828.64 832.12 1822.01 832.12ZM1885.18 831V755.68H1906.04V776.96L1903.1 770.8C1905.34 765.48 1908.93 761.467 1913.88 758.76C1918.82 755.96 1924.84 754.56 1931.94 754.56V774.72C1931 774.627 1930.16 774.58 1929.42 774.58C1928.67 774.487 1927.88 774.44 1927.04 774.44C1921.06 774.44 1916.21 776.167 1912.48 779.62C1908.84 782.98 1907.02 788.253 1907.02 795.44V831H1885.18ZM1967.68 796.98C1967.68 793.713 1968.2 790.82 1969.22 788.3C1970.34 785.78 1971.7 783.54 1973.28 781.58C1974.96 779.62 1976.74 777.8 1978.6 776.12C1980.47 774.44 1982.2 772.853 1983.78 771.36C1985.46 769.773 1986.82 768.14 1987.84 766.46C1988.96 764.78 1989.52 762.913 1989.52 760.86C1989.52 757.5 1988.12 754.793 1985.32 752.74C1982.62 750.687 1978.98 749.66 1974.4 749.66C1970.02 749.66 1966.1 750.593 1962.64 752.46C1959.19 754.233 1956.34 756.753 1954.1 760.02L1937.16 750.08C1940.9 744.387 1946.08 739.86 1952.7 736.5C1959.33 733.047 1967.36 731.32 1976.78 731.32C1983.78 731.32 1989.94 732.347 1995.26 734.4C2000.58 736.36 2004.74 739.253 2007.72 743.08C2010.8 746.907 2012.34 751.62 2012.34 757.22C2012.34 760.86 2011.78 764.08 2010.66 766.88C2009.54 769.68 2008.1 772.107 2006.32 774.16C2004.55 776.213 2002.64 778.127 2000.58 779.9C1998.62 781.673 1996.76 783.4 1994.98 785.08C1993.21 786.76 1991.72 788.533 1990.5 790.4C1989.38 792.267 1988.82 794.46 1988.82 796.98H1967.68ZM1978.32 832.12C1974.4 832.12 1971.18 830.86 1968.66 828.34C1966.14 825.82 1964.88 822.833 1964.88 819.38C1964.88 815.833 1966.14 812.893 1968.66 810.56C1971.18 808.133 1974.4 806.92 1978.32 806.92C1982.34 806.92 1985.56 808.133 1987.98 810.56C1990.5 812.893 1991.76 815.833 1991.76 819.38C1991.76 822.833 1990.5 825.82 1987.98 828.34C1985.56 830.86 1982.34 832.12 1978.32 832.12Z" fill="white"/>
</svg>
