<svg width="3745" height="1780" viewBox="0 0 3745 1780" fill="none" xmlns="http://www.w3.org/2000/svg">
<path d="M2499.93 841.68C2486.03 841.68 2475.15 837.807 2467.31 830.06C2459.47 822.313 2455.55 811.253 2455.55 796.88V742H2478.23V796.04C2478.23 805.373 2480.15 812.093 2483.97 816.2C2487.8 820.307 2493.17 822.36 2500.07 822.36C2506.98 822.36 2512.35 820.307 2516.17 816.2C2520 812.093 2521.91 805.373 2521.91 796.04V742H2544.31V796.88C2544.31 811.253 2540.39 822.313 2532.55 830.06C2524.71 837.807 2513.84 841.68 2499.93 841.68ZM2590.53 841.12C2584.09 841.12 2577.88 840.373 2571.91 838.88C2566.03 837.293 2561.36 835.333 2557.91 833L2565.19 817.32C2568.64 819.467 2572.7 821.24 2577.37 822.64C2582.13 823.947 2586.79 824.6 2591.37 824.6C2596.41 824.6 2599.95 823.993 2602.01 822.78C2604.15 821.567 2605.23 819.887 2605.23 817.74C2605.23 815.967 2604.39 814.66 2602.71 813.82C2601.12 812.887 2598.97 812.187 2596.27 811.72C2593.56 811.253 2590.57 810.787 2587.31 810.32C2584.13 809.853 2580.91 809.247 2577.65 808.5C2574.38 807.66 2571.39 806.447 2568.69 804.86C2565.98 803.273 2563.79 801.127 2562.11 798.42C2560.52 795.713 2559.73 792.213 2559.73 787.92C2559.73 783.16 2561.08 778.96 2563.79 775.32C2566.59 771.68 2570.6 768.833 2575.83 766.78C2581.05 764.633 2587.31 763.56 2594.59 763.56C2599.72 763.56 2604.95 764.12 2610.27 765.24C2615.59 766.36 2620.02 767.993 2623.57 770.14L2616.29 785.68C2612.65 783.533 2608.96 782.087 2605.23 781.34C2601.59 780.5 2598.04 780.08 2594.59 780.08C2589.73 780.08 2586.19 780.733 2583.95 782.04C2581.71 783.347 2580.59 785.027 2580.59 787.08C2580.59 788.947 2581.38 790.347 2582.97 791.28C2584.65 792.213 2586.84 792.96 2589.55 793.52C2592.25 794.08 2595.19 794.593 2598.37 795.06C2601.63 795.433 2604.9 796.04 2608.17 796.88C2611.43 797.72 2614.37 798.933 2616.99 800.52C2619.69 802.013 2621.89 804.113 2623.57 806.82C2625.25 809.433 2626.09 812.887 2626.09 817.18C2626.09 821.847 2624.69 826 2621.89 829.64C2619.09 833.187 2615.03 835.987 2609.71 838.04C2604.48 840.093 2598.09 841.12 2590.53 841.12ZM2675.4 841.12C2667.37 841.12 2660.23 839.44 2653.98 836.08C2647.82 832.72 2642.92 828.147 2639.28 822.36C2635.73 816.48 2633.96 809.807 2633.96 802.34C2633.96 794.78 2635.73 788.107 2639.28 782.32C2642.92 776.44 2647.82 771.867 2653.98 768.6C2660.23 765.24 2667.37 763.56 2675.4 763.56C2683.33 763.56 2690.43 765.24 2696.68 768.6C2702.93 771.867 2707.83 776.393 2711.38 782.18C2714.93 787.967 2716.7 794.687 2716.7 802.34C2716.7 809.807 2714.93 816.48 2711.38 822.36C2707.83 828.147 2702.93 832.72 2696.68 836.08C2690.43 839.44 2683.33 841.12 2675.4 841.12ZM2675.4 823.2C2679.04 823.2 2682.31 822.36 2685.2 820.68C2688.09 819 2690.38 816.62 2692.06 813.54C2693.74 810.367 2694.58 806.633 2694.58 802.34C2694.58 797.953 2693.74 794.22 2692.06 791.14C2690.38 788.06 2688.09 785.68 2685.2 784C2682.31 782.32 2679.04 781.48 2675.4 781.48C2671.76 781.48 2668.49 782.32 2665.6 784C2662.71 785.68 2660.37 788.06 2658.6 791.14C2656.92 794.22 2656.08 797.953 2656.08 802.34C2656.08 806.633 2656.92 810.367 2658.6 813.54C2660.37 816.62 2662.71 819 2665.6 820.68C2668.49 822.36 2671.76 823.2 2675.4 823.2ZM2756.64 841.12C2750.2 841.12 2743.99 840.373 2738.02 838.88C2732.14 837.293 2727.47 835.333 2724.02 833L2731.3 817.32C2734.75 819.467 2738.81 821.24 2743.48 822.64C2748.24 823.947 2752.91 824.6 2757.48 824.6C2762.52 824.6 2766.07 823.993 2768.12 822.78C2770.27 821.567 2771.34 819.887 2771.34 817.74C2771.34 815.967 2770.5 814.66 2768.82 813.82C2767.23 812.887 2765.09 812.187 2762.38 811.72C2759.67 811.253 2756.69 810.787 2753.42 810.32C2750.25 809.853 2747.03 809.247 2743.76 808.5C2740.49 807.66 2737.51 806.447 2734.8 804.86C2732.09 803.273 2729.9 801.127 2728.22 798.42C2726.63 795.713 2725.84 792.213 2725.84 787.92C2725.84 783.16 2727.19 778.96 2729.9 775.32C2732.7 771.68 2736.71 768.833 2741.94 766.78C2747.17 764.633 2753.42 763.56 2760.7 763.56C2765.83 763.56 2771.06 764.12 2776.38 765.24C2781.7 766.36 2786.13 767.993 2789.68 770.14L2782.4 785.68C2778.76 783.533 2775.07 782.087 2771.34 781.34C2767.7 780.5 2764.15 780.08 2760.7 780.08C2755.85 780.08 2752.3 780.733 2750.06 782.04C2747.82 783.347 2746.7 785.027 2746.7 787.08C2746.7 788.947 2747.49 790.347 2749.08 791.28C2750.76 792.213 2752.95 792.96 2755.66 793.52C2758.37 794.08 2761.31 794.593 2764.48 795.06C2767.75 795.433 2771.01 796.04 2774.28 796.88C2777.55 797.72 2780.49 798.933 2783.1 800.52C2785.81 802.013 2788 804.113 2789.68 806.82C2791.36 809.433 2792.2 812.887 2792.2 817.18C2792.2 821.847 2790.8 826 2788 829.64C2785.2 833.187 2781.14 835.987 2775.82 838.04C2770.59 840.093 2764.2 841.12 2756.64 841.12ZM2893.76 841.68C2886.2 841.68 2879.16 840.467 2872.62 838.04C2866.18 835.52 2860.58 831.973 2855.82 827.4C2851.06 822.827 2847.33 817.46 2844.62 811.3C2842.01 805.14 2840.7 798.373 2840.7 791C2840.7 783.627 2842.01 776.86 2844.62 770.7C2847.33 764.54 2851.06 759.173 2855.82 754.6C2860.68 750.027 2866.32 746.527 2872.76 744.1C2879.2 741.58 2886.25 740.32 2893.9 740.32C2902.4 740.32 2910.05 741.813 2916.86 744.8C2923.77 747.693 2929.56 751.987 2934.22 757.68L2919.66 771.12C2916.3 767.293 2912.57 764.447 2908.46 762.58C2904.36 760.62 2899.88 759.64 2895.02 759.64C2890.45 759.64 2886.25 760.387 2882.42 761.88C2878.6 763.373 2875.28 765.52 2872.48 768.32C2869.68 771.12 2867.49 774.433 2865.9 778.26C2864.41 782.087 2863.66 786.333 2863.66 791C2863.66 795.667 2864.41 799.913 2865.9 803.74C2867.49 807.567 2869.68 810.88 2872.48 813.68C2875.28 816.48 2878.6 818.627 2882.42 820.12C2886.25 821.613 2890.45 822.36 2895.02 822.36C2899.88 822.36 2904.36 821.427 2908.46 819.56C2912.57 817.6 2916.3 814.66 2919.66 810.74L2934.22 824.18C2929.56 829.873 2923.77 834.213 2916.86 837.2C2910.05 840.187 2902.35 841.68 2893.76 841.68ZM2948 840V764.68H2968.86V785.96L2965.92 779.8C2968.16 774.48 2971.75 770.467 2976.7 767.76C2981.64 764.96 2987.66 763.56 2994.76 763.56V783.72C2993.82 783.627 2992.98 783.58 2992.24 783.58C2991.49 783.487 2990.7 783.44 2989.86 783.44C2983.88 783.44 2979.03 785.167 2975.3 788.62C2971.66 791.98 2969.84 797.253 2969.84 804.44V840H2948ZM3007.88 840V764.68H3029.72V840H3007.88ZM3018.8 754.18C3014.79 754.18 3011.52 753.013 3009 750.68C3006.48 748.347 3005.22 745.453 3005.22 742C3005.22 738.547 3006.48 735.653 3009 733.32C3011.52 730.987 3014.79 729.82 3018.8 729.82C3022.81 729.82 3026.08 730.94 3028.6 733.18C3031.12 735.327 3032.38 738.127 3032.38 741.58C3032.38 745.22 3031.12 748.253 3028.6 750.68C3026.17 753.013 3022.91 754.18 3018.8 754.18ZM3096.19 840V825.3L3094.79 822.08V795.76C3094.79 791.093 3093.34 787.453 3090.45 784.84C3087.65 782.227 3083.31 780.92 3077.43 780.92C3073.42 780.92 3069.45 781.573 3065.53 782.88C3061.7 784.093 3058.44 785.773 3055.73 787.92L3047.89 772.66C3052 769.767 3056.94 767.527 3062.73 765.94C3068.52 764.353 3074.4 763.56 3080.37 763.56C3091.85 763.56 3100.76 766.267 3107.11 771.68C3113.46 777.093 3116.63 785.54 3116.63 797.02V840H3096.19ZM3073.23 841.12C3067.35 841.12 3062.31 840.14 3058.11 838.18C3053.91 836.127 3050.69 833.373 3048.45 829.92C3046.21 826.467 3045.09 822.593 3045.09 818.3C3045.09 813.82 3046.16 809.9 3048.31 806.54C3050.55 803.18 3054.05 800.567 3058.81 798.7C3063.57 796.74 3069.78 795.76 3077.43 795.76H3097.45V808.5H3079.81C3074.68 808.5 3071.13 809.34 3069.17 811.02C3067.3 812.7 3066.37 814.8 3066.37 817.32C3066.37 820.12 3067.44 822.36 3069.59 824.04C3071.83 825.627 3074.86 826.42 3078.69 826.42C3082.33 826.42 3085.6 825.58 3088.49 823.9C3091.38 822.127 3093.48 819.56 3094.79 816.2L3098.15 826.28C3096.56 831.133 3093.67 834.82 3089.47 837.34C3085.27 839.86 3079.86 841.12 3073.23 841.12ZM3167.2 841.12C3158.33 841.12 3151.42 838.88 3146.48 834.4C3141.53 829.827 3139.06 823.06 3139.06 814.1V748.02H3160.9V813.82C3160.9 816.993 3161.74 819.467 3163.42 821.24C3165.1 822.92 3167.38 823.76 3170.28 823.76C3173.73 823.76 3176.67 822.827 3179.1 820.96L3184.98 836.36C3182.74 837.947 3180.03 839.16 3176.86 840C3173.78 840.747 3170.56 841.12 3167.2 841.12ZM3127.44 783.16V766.36H3179.66V783.16H3127.44ZM3197.24 840V764.68H3219.08V840H3197.24ZM3208.16 754.18C3204.14 754.18 3200.88 753.013 3198.36 750.68C3195.84 748.347 3194.58 745.453 3194.58 742C3194.58 738.547 3195.84 735.653 3198.36 733.32C3200.88 730.987 3204.14 729.82 3208.16 729.82C3212.17 729.82 3215.44 730.94 3217.96 733.18C3220.48 735.327 3221.74 738.127 3221.74 741.58C3221.74 745.22 3220.48 748.253 3217.96 750.68C3215.53 753.013 3212.26 754.18 3208.16 754.18ZM3259.79 840L3228.15 764.68H3250.69L3277.01 829.5H3265.81L3293.11 764.68H3314.11L3282.33 840H3259.79ZM3356.81 841.12C3348.78 841.12 3341.64 839.44 3335.39 836.08C3329.23 832.72 3324.33 828.147 3320.69 822.36C3317.14 816.48 3315.37 809.807 3315.37 802.34C3315.37 794.78 3317.14 788.107 3320.69 782.32C3324.33 776.44 3329.23 771.867 3335.39 768.6C3341.64 765.24 3348.78 763.56 3356.81 763.56C3364.74 763.56 3371.83 765.24 3378.09 768.6C3384.34 771.867 3389.24 776.393 3392.79 782.18C3396.33 787.967 3398.11 794.687 3398.11 802.34C3398.11 809.807 3396.33 816.48 3392.79 822.36C3389.24 828.147 3384.34 832.72 3378.09 836.08C3371.83 839.44 3364.74 841.12 3356.81 841.12ZM3356.81 823.2C3360.45 823.2 3363.71 822.36 3366.61 820.68C3369.5 819 3371.79 816.62 3373.47 813.54C3375.15 810.367 3375.99 806.633 3375.99 802.34C3375.99 797.953 3375.15 794.22 3373.47 791.14C3371.79 788.06 3369.5 785.68 3366.61 784C3363.71 782.32 3360.45 781.48 3356.81 781.48C3353.17 781.48 3349.9 782.32 3347.01 784C3344.11 785.68 3341.78 788.06 3340.01 791.14C3338.33 794.22 3337.49 797.953 3337.49 802.34C3337.49 806.633 3338.33 810.367 3340.01 813.54C3341.78 816.62 3344.11 819 3347.01 820.68C3349.9 822.36 3353.17 823.2 3356.81 823.2ZM3438.05 841.12C3431.61 841.12 3425.4 840.373 3419.43 838.88C3413.55 837.293 3408.88 835.333 3405.43 833L3412.71 817.32C3416.16 819.467 3420.22 821.24 3424.89 822.64C3429.65 823.947 3434.31 824.6 3438.89 824.6C3443.93 824.6 3447.47 823.993 3449.53 822.78C3451.67 821.567 3452.75 819.887 3452.75 817.74C3452.75 815.967 3451.91 814.66 3450.23 813.82C3448.64 812.887 3446.49 812.187 3443.78 811.72C3441.08 811.253 3438.09 810.787 3434.83 810.32C3431.65 809.853 3428.43 809.247 3425.17 808.5C3421.9 807.66 3418.91 806.447 3416.21 804.86C3413.5 803.273 3411.31 801.127 3409.63 798.42C3408.04 795.713 3407.24 792.213 3407.24 787.92C3407.24 783.16 3408.6 778.96 3411.31 775.32C3414.11 771.68 3418.12 768.833 3423.35 766.78C3428.57 764.633 3434.83 763.56 3442.11 763.56C3447.24 763.56 3452.47 764.12 3457.79 765.24C3463.11 766.36 3467.54 767.993 3471.09 770.14L3463.81 785.68C3460.17 783.533 3456.48 782.087 3452.75 781.34C3449.11 780.5 3445.56 780.08 3442.11 780.08C3437.25 780.08 3433.71 780.733 3431.47 782.04C3429.23 783.347 3428.11 785.027 3428.11 787.08C3428.11 788.947 3428.9 790.347 3430.49 791.28C3432.17 792.213 3434.36 792.96 3437.07 793.52C3439.77 794.08 3442.71 794.593 3445.89 795.06C3449.15 795.433 3452.42 796.04 3455.69 796.88C3458.95 797.72 3461.89 798.933 3464.51 800.52C3467.21 802.013 3469.41 804.113 3471.09 806.82C3472.77 809.433 3473.61 812.887 3473.61 817.18C3473.61 821.847 3472.21 826 3469.41 829.64C3466.61 833.187 3462.55 835.987 3457.23 838.04C3452 840.093 3445.61 841.12 3438.05 841.12Z" fill="#DDDDDD"/>
<path d="M2802.47 974.72C2798.39 974.72 2794.82 973.82 2791.76 972.02C2788.7 970.22 2786.3 967.49 2784.56 963.83C2782.88 960.11 2782.04 955.43 2782.04 949.79C2782.04 944.09 2782.85 939.41 2784.47 935.75C2786.09 932.09 2788.43 929.36 2791.49 927.56C2794.55 925.76 2798.21 924.86 2802.47 924.86C2807.03 924.86 2811.11 925.91 2814.71 928.01C2818.37 930.05 2821.25 932.93 2823.35 936.65C2825.51 940.37 2826.59 944.75 2826.59 949.79C2826.59 954.89 2825.51 959.3 2823.35 963.02C2821.25 966.74 2818.37 969.62 2814.71 971.66C2811.11 973.7 2807.03 974.72 2802.47 974.72ZM2773.85 991.46V925.58H2787.26V935.48L2786.99 949.88L2787.89 964.19V991.46H2773.85ZM2800.04 963.2C2802.38 963.2 2804.45 962.66 2806.25 961.58C2808.11 960.5 2809.58 958.97 2810.66 956.99C2811.8 954.95 2812.37 952.55 2812.37 949.79C2812.37 946.97 2811.8 944.57 2810.66 942.59C2809.58 940.61 2808.11 939.08 2806.25 938C2804.45 936.92 2802.38 936.38 2800.04 936.38C2797.7 936.38 2795.6 936.92 2793.74 938C2791.88 939.08 2790.41 940.61 2789.33 942.59C2788.25 944.57 2787.71 946.97 2787.71 949.79C2787.71 952.55 2788.25 954.95 2789.33 956.99C2790.41 958.97 2791.88 960.5 2793.74 961.58C2795.6 962.66 2797.7 963.2 2800.04 963.2ZM2864.9 974V964.55L2864 962.48V945.56C2864 942.56 2863.07 940.22 2861.21 938.54C2859.41 936.86 2856.62 936.02 2852.84 936.02C2850.26 936.02 2847.71 936.44 2845.19 937.28C2842.73 938.06 2840.63 939.14 2838.89 940.52L2833.85 930.71C2836.49 928.85 2839.67 927.41 2843.39 926.39C2847.11 925.37 2850.89 924.86 2854.73 924.86C2862.11 924.86 2867.84 926.6 2871.92 930.08C2876 933.56 2878.04 938.99 2878.04 946.37V974H2864.9ZM2850.14 974.72C2846.36 974.72 2843.12 974.09 2840.42 972.83C2837.72 971.51 2835.65 969.74 2834.21 967.52C2832.77 965.3 2832.05 962.81 2832.05 960.05C2832.05 957.17 2832.74 954.65 2834.12 952.49C2835.56 950.33 2837.81 948.65 2840.87 947.45C2843.93 946.19 2847.92 945.56 2852.84 945.56H2865.71V953.75H2854.37C2851.07 953.75 2848.79 954.29 2847.53 955.37C2846.33 956.45 2845.73 957.8 2845.73 959.42C2845.73 961.22 2846.42 962.66 2847.8 963.74C2849.24 964.76 2851.19 965.27 2853.65 965.27C2855.99 965.27 2858.09 964.73 2859.95 963.65C2861.81 962.51 2863.16 960.86 2864 958.7L2866.16 965.18C2865.14 968.3 2863.28 970.67 2860.58 972.29C2857.88 973.91 2854.4 974.72 2850.14 974.72ZM2890.75 974V925.58H2904.16V939.26L2902.27 935.3C2903.71 931.88 2906.02 929.3 2909.2 927.56C2912.38 925.76 2916.25 924.86 2920.81 924.86V937.82C2920.21 937.76 2919.67 937.73 2919.19 937.73C2918.71 937.67 2918.2 937.64 2917.66 937.64C2913.82 937.64 2910.7 938.75 2908.3 940.97C2905.96 943.13 2904.79 946.52 2904.79 951.14V974H2890.75ZM2955.69 974V964.55L2954.79 962.48V945.56C2954.79 942.56 2953.86 940.22 2952 938.54C2950.2 936.86 2947.41 936.02 2943.63 936.02C2941.05 936.02 2938.5 936.44 2935.98 937.28C2933.52 938.06 2931.42 939.14 2929.68 940.52L2924.64 930.71C2927.28 928.85 2930.46 927.41 2934.18 926.39C2937.9 925.37 2941.68 924.86 2945.52 924.86C2952.9 924.86 2958.63 926.6 2962.71 930.08C2966.79 933.56 2968.83 938.99 2968.83 946.37V974H2955.69ZM2940.93 974.72C2937.15 974.72 2933.91 974.09 2931.21 972.83C2928.51 971.51 2926.44 969.74 2925 967.52C2923.56 965.3 2922.84 962.81 2922.84 960.05C2922.84 957.17 2923.53 954.65 2924.91 952.49C2926.35 950.33 2928.6 948.65 2931.66 947.45C2934.72 946.19 2938.71 945.56 2943.63 945.56H2956.5V953.75H2945.16C2941.86 953.75 2939.58 954.29 2938.32 955.37C2937.12 956.45 2936.52 957.8 2936.52 959.42C2936.52 961.22 2937.21 962.66 2938.59 963.74C2940.03 964.76 2941.98 965.27 2944.44 965.27C2946.78 965.27 2948.88 964.73 2950.74 963.65C2952.6 962.51 2953.95 960.86 2954.79 958.7L2956.95 965.18C2955.93 968.3 2954.07 970.67 2951.37 972.29C2948.67 973.91 2945.19 974.72 2940.93 974.72ZM3031.05 974.72C3025.53 974.72 3020.67 973.64 3016.47 971.48C3012.33 969.32 3009.12 966.38 3006.84 962.66C3004.56 958.88 3003.42 954.59 3003.42 949.79C3003.42 944.93 3004.53 940.64 3006.75 936.92C3009.03 933.14 3012.12 930.2 3016.02 928.1C3019.92 925.94 3024.33 924.86 3029.25 924.86C3033.99 924.86 3038.25 925.88 3042.03 927.92C3045.87 929.9 3048.9 932.78 3051.12 936.56C3053.34 940.28 3054.45 944.75 3054.45 949.97C3054.45 950.51 3054.42 951.14 3054.36 951.86C3054.3 952.52 3054.24 953.15 3054.18 953.75H3014.85V945.56H3046.8L3041.4 947.99C3041.4 945.47 3040.89 943.28 3039.87 941.42C3038.85 939.56 3037.44 938.12 3035.64 937.1C3033.84 936.02 3031.74 935.48 3029.34 935.48C3026.94 935.48 3024.81 936.02 3022.95 937.1C3021.15 938.12 3019.74 939.59 3018.72 941.51C3017.7 943.37 3017.19 945.59 3017.19 948.17V950.33C3017.19 952.97 3017.76 955.31 3018.9 957.35C3020.1 959.33 3021.75 960.86 3023.85 961.94C3026.01 962.96 3028.53 963.47 3031.41 963.47C3033.99 963.47 3036.24 963.08 3038.16 962.3C3040.14 961.52 3041.94 960.35 3043.56 958.79L3051.03 966.89C3048.81 969.41 3046.02 971.36 3042.66 972.74C3039.3 974.06 3035.43 974.72 3031.05 974.72ZM3056.36 974L3078.05 945.56L3077.78 953.3L3056.99 925.58H3072.74L3085.88 943.67L3079.94 943.85L3093.53 925.58H3108.47L3087.59 953.03V945.47L3109.19 974H3093.26L3079.49 954.74L3085.34 955.55L3071.66 974H3056.36ZM3144.63 974.72C3140.55 974.72 3136.98 973.82 3133.92 972.02C3130.86 970.22 3128.46 967.49 3126.72 963.83C3125.04 960.11 3124.2 955.43 3124.2 949.79C3124.2 944.09 3125.01 939.41 3126.63 935.75C3128.25 932.09 3130.59 929.36 3133.65 927.56C3136.71 925.76 3140.37 924.86 3144.63 924.86C3149.19 924.86 3153.27 925.91 3156.87 928.01C3160.53 930.05 3163.41 932.93 3165.51 936.65C3167.67 940.37 3168.75 944.75 3168.75 949.79C3168.75 954.89 3167.67 959.3 3165.51 963.02C3163.41 966.74 3160.53 969.62 3156.87 971.66C3153.27 973.7 3149.19 974.72 3144.63 974.72ZM3116.01 991.46V925.58H3129.42V935.48L3129.15 949.88L3130.05 964.19V991.46H3116.01ZM3142.2 963.2C3144.54 963.2 3146.61 962.66 3148.41 961.58C3150.27 960.5 3151.74 958.97 3152.82 956.99C3153.96 954.95 3154.53 952.55 3154.53 949.79C3154.53 946.97 3153.96 944.57 3152.82 942.59C3151.74 940.61 3150.27 939.08 3148.41 938C3146.61 936.92 3144.54 936.38 3142.2 936.38C3139.86 936.38 3137.76 936.92 3135.9 938C3134.04 939.08 3132.57 940.61 3131.49 942.59C3130.41 944.57 3129.87 946.97 3129.87 949.79C3129.87 952.55 3130.41 954.95 3131.49 956.99C3132.57 958.97 3134.04 960.5 3135.9 961.58C3137.76 962.66 3139.86 963.2 3142.2 963.2ZM3178.15 974V925.58H3191.56V939.26L3189.67 935.3C3191.11 931.88 3193.42 929.3 3196.6 927.56C3199.78 925.76 3203.65 924.86 3208.21 924.86V937.82C3207.61 937.76 3207.07 937.73 3206.59 937.73C3206.11 937.67 3205.6 937.64 3205.06 937.64C3201.22 937.64 3198.1 938.75 3195.7 940.97C3193.36 943.13 3192.19 946.52 3192.19 951.14V974H3178.15ZM3240.23 974.72C3234.71 974.72 3229.85 973.64 3225.65 971.48C3221.51 969.32 3218.3 966.38 3216.02 962.66C3213.74 958.88 3212.6 954.59 3212.6 949.79C3212.6 944.93 3213.71 940.64 3215.93 936.92C3218.21 933.14 3221.3 930.2 3225.2 928.1C3229.1 925.94 3233.51 924.86 3238.43 924.86C3243.17 924.86 3247.43 925.88 3251.21 927.92C3255.05 929.9 3258.08 932.78 3260.3 936.56C3262.52 940.28 3263.63 944.75 3263.63 949.97C3263.63 950.51 3263.6 951.14 3263.54 951.86C3263.48 952.52 3263.42 953.15 3263.36 953.75H3224.03V945.56H3255.98L3250.58 947.99C3250.58 945.47 3250.07 943.28 3249.05 941.42C3248.03 939.56 3246.62 938.12 3244.82 937.1C3243.02 936.02 3240.92 935.48 3238.52 935.48C3236.12 935.48 3233.99 936.02 3232.13 937.1C3230.33 938.12 3228.92 939.59 3227.9 941.51C3226.88 943.37 3226.37 945.59 3226.37 948.17V950.33C3226.37 952.97 3226.94 955.31 3228.08 957.35C3229.28 959.33 3230.93 960.86 3233.03 961.94C3235.19 962.96 3237.71 963.47 3240.59 963.47C3243.17 963.47 3245.42 963.08 3247.34 962.3C3249.32 961.52 3251.12 960.35 3252.74 958.79L3260.21 966.89C3257.99 969.41 3255.2 971.36 3251.84 972.74C3248.48 974.06 3244.61 974.72 3240.23 974.72ZM3289.27 974.72C3285.13 974.72 3281.14 974.24 3277.3 973.28C3273.52 972.26 3270.52 971 3268.3 969.5L3272.98 959.42C3275.2 960.8 3277.81 961.94 3280.81 962.84C3283.87 963.68 3286.87 964.1 3289.81 964.1C3293.05 964.1 3295.33 963.71 3296.65 962.93C3298.03 962.15 3298.72 961.07 3298.72 959.69C3298.72 958.55 3298.18 957.71 3297.1 957.17C3296.08 956.57 3294.7 956.12 3292.96 955.82C3291.22 955.52 3289.3 955.22 3287.2 954.92C3285.16 954.62 3283.09 954.23 3280.99 953.75C3278.89 953.21 3276.97 952.43 3275.23 951.41C3273.49 950.39 3272.08 949.01 3271 947.27C3269.98 945.53 3269.47 943.28 3269.47 940.52C3269.47 937.46 3270.34 934.76 3272.08 932.42C3273.88 930.08 3276.46 928.25 3279.82 926.93C3283.18 925.55 3287.2 924.86 3291.88 924.86C3295.18 924.86 3298.54 925.22 3301.96 925.94C3305.38 926.66 3308.23 927.71 3310.51 929.09L3305.83 939.08C3303.49 937.7 3301.12 936.77 3298.72 936.29C3296.38 935.75 3294.1 935.48 3291.88 935.48C3288.76 935.48 3286.48 935.9 3285.04 936.74C3283.6 937.58 3282.88 938.66 3282.88 939.98C3282.88 941.18 3283.39 942.08 3284.41 942.68C3285.49 943.28 3286.9 943.76 3288.64 944.12C3290.38 944.48 3292.27 944.81 3294.31 945.11C3296.41 945.35 3298.51 945.74 3300.61 946.28C3302.71 946.82 3304.6 947.6 3306.28 948.62C3308.02 949.58 3309.43 950.93 3310.51 952.67C3311.59 954.35 3312.13 956.57 3312.13 959.33C3312.13 962.33 3311.23 965 3309.43 967.34C3307.63 969.62 3305.02 971.42 3301.6 972.74C3298.24 974.06 3294.13 974.72 3289.27 974.72ZM3337.08 974.72C3332.94 974.72 3328.95 974.24 3325.11 973.28C3321.33 972.26 3318.33 971 3316.11 969.5L3320.79 959.42C3323.01 960.8 3325.62 961.94 3328.62 962.84C3331.68 963.68 3334.68 964.1 3337.62 964.1C3340.86 964.1 3343.14 963.71 3344.46 962.93C3345.84 962.15 3346.53 961.07 3346.53 959.69C3346.53 958.55 3345.99 957.71 3344.91 957.17C3343.89 956.57 3342.51 956.12 3340.77 955.82C3339.03 955.52 3337.11 955.22 3335.01 954.92C3332.97 954.62 3330.9 954.23 3328.8 953.75C3326.7 953.21 3324.78 952.43 3323.04 951.41C3321.3 950.39 3319.89 949.01 3318.81 947.27C3317.79 945.53 3317.28 943.28 3317.28 940.52C3317.28 937.46 3318.15 934.76 3319.89 932.42C3321.69 930.08 3324.27 928.25 3327.63 926.93C3330.99 925.55 3335.01 924.86 3339.69 924.86C3342.99 924.86 3346.35 925.22 3349.77 925.94C3353.19 926.66 3356.04 927.71 3358.32 929.09L3353.64 939.08C3351.3 937.7 3348.93 936.77 3346.53 936.29C3344.19 935.75 3341.91 935.48 3339.69 935.48C3336.57 935.48 3334.29 935.9 3332.85 936.74C3331.41 937.58 3330.69 938.66 3330.69 939.98C3330.69 941.18 3331.2 942.08 3332.22 942.68C3333.3 943.28 3334.71 943.76 3336.45 944.12C3338.19 944.48 3340.08 944.81 3342.12 945.11C3344.22 945.35 3346.32 945.74 3348.42 946.28C3350.52 946.82 3352.41 947.6 3354.09 948.62C3355.83 949.58 3357.24 950.93 3358.32 952.67C3359.4 954.35 3359.94 956.57 3359.94 959.33C3359.94 962.33 3359.04 965 3357.24 967.34C3355.44 969.62 3352.83 971.42 3349.41 972.74C3346.05 974.06 3341.94 974.72 3337.08 974.72ZM3398.31 974V964.55L3397.41 962.48V945.56C3397.41 942.56 3396.48 940.22 3394.62 938.54C3392.82 936.86 3390.03 936.02 3386.25 936.02C3383.67 936.02 3381.12 936.44 3378.6 937.28C3376.14 938.06 3374.04 939.14 3372.3 940.52L3367.26 930.71C3369.9 928.85 3373.08 927.41 3376.8 926.39C3380.52 925.37 3384.3 924.86 3388.14 924.86C3395.52 924.86 3401.25 926.6 3405.33 930.08C3409.41 933.56 3411.45 938.99 3411.45 946.37V974H3398.31ZM3383.55 974.72C3379.77 974.72 3376.53 974.09 3373.83 972.83C3371.13 971.51 3369.06 969.74 3367.62 967.52C3366.18 965.3 3365.46 962.81 3365.46 960.05C3365.46 957.17 3366.15 954.65 3367.53 952.49C3368.97 950.33 3371.22 948.65 3374.28 947.45C3377.34 946.19 3381.33 945.56 3386.25 945.56H3399.12V953.75H3387.78C3384.48 953.75 3382.2 954.29 3380.94 955.37C3379.74 956.45 3379.14 957.8 3379.14 959.42C3379.14 961.22 3379.83 962.66 3381.21 963.74C3382.65 964.76 3384.6 965.27 3387.06 965.27C3389.4 965.27 3391.5 964.73 3393.36 963.65C3395.22 962.51 3396.57 960.86 3397.41 958.7L3399.57 965.18C3398.55 968.3 3396.69 970.67 3393.99 972.29C3391.29 973.91 3387.81 974.72 3383.55 974.72ZM3396.33 919.64C3394.77 919.64 3393.39 919.37 3392.19 918.83C3390.99 918.23 3389.91 917.57 3388.95 916.85C3387.99 916.07 3387.09 915.41 3386.25 914.87C3385.41 914.27 3384.57 913.97 3383.73 913.97C3382.53 913.97 3381.54 914.42 3380.76 915.32C3379.98 916.16 3379.53 917.39 3379.41 919.01H3372.3C3372.42 914.99 3373.41 911.81 3375.27 909.47C3377.13 907.07 3379.65 905.87 3382.83 905.87C3384.39 905.87 3385.77 906.17 3386.97 906.77C3388.17 907.31 3389.25 907.97 3390.21 908.75C3391.23 909.53 3392.16 910.22 3393 910.82C3393.84 911.36 3394.65 911.63 3395.43 911.63C3396.69 911.63 3397.71 911.21 3398.49 910.37C3399.27 909.47 3399.69 908.27 3399.75 906.77H3406.86C3406.8 910.61 3405.81 913.73 3403.89 916.13C3402.03 918.47 3399.51 919.64 3396.33 919.64ZM3447.55 974.72C3442.39 974.72 3437.8 973.64 3433.78 971.48C3429.82 969.32 3426.67 966.38 3424.33 962.66C3422.05 958.88 3420.91 954.59 3420.91 949.79C3420.91 944.93 3422.05 940.64 3424.33 936.92C3426.67 933.14 3429.82 930.2 3433.78 928.1C3437.8 925.94 3442.39 924.86 3447.55 924.86C3452.65 924.86 3457.21 925.94 3461.23 928.1C3465.25 930.2 3468.4 933.11 3470.68 936.83C3472.96 940.55 3474.1 944.87 3474.1 949.79C3474.1 954.59 3472.96 958.88 3470.68 962.66C3468.4 966.38 3465.25 969.32 3461.23 971.48C3457.21 973.64 3452.65 974.72 3447.55 974.72ZM3447.55 963.2C3449.89 963.2 3451.99 962.66 3453.85 961.58C3455.71 960.5 3457.18 958.97 3458.26 956.99C3459.34 954.95 3459.88 952.55 3459.88 949.79C3459.88 946.97 3459.34 944.57 3458.26 942.59C3457.18 940.61 3455.71 939.08 3453.85 938C3451.99 936.92 3449.89 936.38 3447.55 936.38C3445.21 936.38 3443.11 936.92 3441.25 938C3439.39 939.08 3437.89 940.61 3436.75 942.59C3435.67 944.57 3435.13 946.97 3435.13 949.79C3435.13 952.55 3435.67 954.95 3436.75 956.99C3437.89 958.97 3439.39 960.5 3441.25 961.58C3443.11 962.66 3445.21 963.2 3447.55 963.2Z" fill="#DDDDDD"/>
</svg>
