<svg width="2967" height="1410" viewBox="0 0 2967 1410" fill="none" xmlns="http://www.w3.org/2000/svg">
<path d="M1124 576L1171.4 366H1211.3L1256.9 576H1232.3L1217.6 514.2H1163L1149.5 576H1124ZM1167.5 493.8H1213.1L1191.5 385.8H1189.4L1167.5 493.8ZM1281.02 420H1299.62L1302.32 431.1L1309.82 427.5C1316.22 424.3 1321.52 421.9 1325.72 420.3C1330.12 418.7 1334.52 417.9 1338.92 417.9V435.6C1336.32 435.6 1332.82 436.4 1328.42 438C1324.02 439.4 1316.22 442.8 1305.02 448.2V576H1281.02V420ZM1404.79 576C1393.79 576 1385.09 572.7 1378.69 566.1C1372.29 559.5 1369.09 550.6 1369.09 539.4V438H1351.09V420H1369.09V374.7L1393.09 365.7V420H1417.09V438H1393.09V541.5C1393.09 546.3 1394.39 550.3 1396.99 553.5C1399.79 556.5 1403.49 558 1408.09 558H1417.09V576H1404.79ZM1472.18 576C1461.18 576 1452.38 572.7 1445.78 566.1C1439.38 559.5 1436.18 550.6 1436.18 539.4V459.6C1436.18 446.6 1439.78 436.4 1446.98 429C1454.18 421.6 1464.88 417.9 1479.08 417.9C1493.28 417.9 1503.88 421.6 1510.88 429C1518.08 436.4 1521.68 446.6 1521.68 459.6V473.4C1521.68 481.8 1519.28 488.2 1514.48 492.6C1509.68 496.8 1503.38 500 1495.58 502.2L1460.18 512.1V541.5C1460.18 546.3 1461.58 550.3 1464.38 553.5C1467.38 556.5 1471.18 558 1475.78 558H1508.18V576H1472.18ZM1478.48 488.1C1485.08 486.3 1489.48 485 1491.68 484.2C1494.08 483.2 1495.68 481.8 1496.48 480C1497.28 478.2 1497.68 475.2 1497.68 471V454.5C1497.68 448.1 1495.98 443.4 1492.58 440.4C1489.38 437.4 1484.88 435.9 1479.08 435.9C1473.48 435.9 1468.88 437.5 1465.28 440.7C1461.88 443.9 1460.18 448.5 1460.18 454.5V493.2L1478.48 488.1ZM1642.89 576C1624.69 576 1610.59 571.4 1600.59 562.2C1590.59 553 1585.59 539.5 1585.59 521.7V420C1585.59 402.4 1590.99 389 1601.79 379.8C1612.59 370.6 1627.29 366 1645.89 366H1689.99V386.1H1642.89C1633.69 386.1 1626.19 388.8 1620.39 394.2C1614.79 399.4 1611.99 406.4 1611.99 415.2V527.1C1611.99 536.1 1614.69 543.2 1620.09 548.4C1625.49 553.6 1632.69 556.2 1641.69 556.2H1669.59V473.7H1642.59V453.9H1695.99V576H1642.89ZM1760.17 576C1749.17 576 1740.37 572.7 1733.77 566.1C1727.37 559.5 1724.17 550.6 1724.17 539.4V459.6C1724.17 446.6 1727.77 436.4 1734.97 429C1742.17 421.6 1752.87 417.9 1767.07 417.9C1781.27 417.9 1791.87 421.6 1798.87 429C1806.07 436.4 1809.67 446.6 1809.67 459.6V473.4C1809.67 481.8 1807.27 488.2 1802.47 492.6C1797.67 496.8 1791.37 500 1783.57 502.2L1748.17 512.1V541.5C1748.17 546.3 1749.57 550.3 1752.37 553.5C1755.37 556.5 1759.17 558 1763.77 558H1796.17V576H1760.17ZM1766.47 488.1C1773.07 486.3 1777.47 485 1779.67 484.2C1782.07 483.2 1783.67 481.8 1784.47 480C1785.27 478.2 1785.67 475.2 1785.67 471V454.5C1785.67 448.1 1783.97 443.4 1780.57 440.4C1777.37 437.4 1772.87 435.9 1767.07 435.9C1761.47 435.9 1756.87 437.5 1753.27 440.7C1749.87 443.9 1748.17 448.5 1748.17 454.5V493.2L1766.47 488.1ZM1833.56 420H1852.16L1854.86 428.7L1867.16 425.1C1875.56 422.5 1882.16 420.7 1886.96 419.7C1891.96 418.5 1896.66 417.9 1901.06 417.9C1908.26 417.9 1913.56 420.4 1916.96 425.4C1920.36 430.4 1922.06 436.9 1922.06 444.9V576H1898.06V452.7C1898.06 446.9 1897.66 442.9 1896.86 440.7C1896.06 438.3 1894.06 437.1 1890.86 437.1C1889.26 437.1 1878.16 440.3 1857.56 446.7V576H1833.56V420ZM1986.63 576C1975.63 576 1966.83 572.7 1960.23 566.1C1953.83 559.5 1950.63 550.6 1950.63 539.4V459.6C1950.63 446.6 1954.23 436.4 1961.43 429C1968.63 421.6 1979.33 417.9 1993.53 417.9C2007.73 417.9 2018.33 421.6 2025.33 429C2032.53 436.4 2036.13 446.6 2036.13 459.6V473.4C2036.13 481.8 2033.73 488.2 2028.93 492.6C2024.13 496.8 2017.83 500 2010.03 502.2L1974.63 512.1V541.5C1974.63 546.3 1976.03 550.3 1978.83 553.5C1981.83 556.5 1985.63 558 1990.23 558H2022.63V576H1986.63ZM1992.93 488.1C1999.53 486.3 2003.93 485 2006.13 484.2C2008.53 483.2 2010.13 481.8 2010.93 480C2011.73 478.2 2012.13 475.2 2012.13 471V454.5C2012.13 448.1 2010.43 443.4 2007.03 440.4C2003.83 437.4 1999.33 435.9 1993.53 435.9C1987.93 435.9 1983.33 437.5 1979.73 440.7C1976.33 443.9 1974.63 448.5 1974.63 454.5V493.2L1992.93 488.1ZM2060.02 420H2078.62L2081.32 431.1L2088.82 427.5C2095.22 424.3 2100.52 421.9 2104.72 420.3C2109.12 418.7 2113.52 417.9 2117.92 417.9V435.6C2115.32 435.6 2111.82 436.4 2107.42 438C2103.02 439.4 2095.22 442.8 2084.02 448.2V576H2060.02V420ZM2172.1 576C2164.9 576 2158.2 574.2 2152 570.6C2146 567 2141.2 562.1 2137.6 555.9C2134.2 549.7 2132.5 542.7 2132.5 534.9V519.3C2132.5 509.9 2134.8 502 2139.4 495.6C2144.2 489.2 2150.1 484.7 2157.1 482.1L2194.3 468.3V454.2C2194.3 449.4 2192.8 445.5 2189.8 442.5C2187 439.3 2183.3 437.7 2178.7 437.7H2144.8V420H2180.8C2191.8 420 2200.5 423.3 2206.9 429.9C2213.5 436.3 2216.8 445.1 2216.8 456.3V576H2172.1ZM2194.3 557.7V487.2L2167.9 497.1C2162.7 499.1 2159 501.8 2156.8 505.2C2154.8 508.6 2153.8 514 2153.8 521.4V538.2C2153.8 543.6 2155.8 548.2 2159.8 552C2163.8 555.8 2168.6 557.7 2174.2 557.7H2194.3ZM2293.37 576C2282.37 576 2273.67 572.7 2267.27 566.1C2260.87 559.5 2257.67 550.6 2257.67 539.4V438H2239.67V420H2257.67V374.7L2281.67 365.7V420H2305.67V438H2281.67V541.5C2281.67 546.3 2282.97 550.3 2285.57 553.5C2288.37 556.5 2292.07 558 2296.67 558H2305.67V576H2293.37ZM2329.55 394.5V370.5H2353.55V394.5H2329.55ZM2329.55 576V420H2353.55V576H2329.55ZM2411.81 576L2376.11 420H2401.01L2424.11 545.7L2446.91 420H2471.81L2436.11 576H2411.81ZM2526 576C2518.8 576 2512.1 574.2 2505.9 570.6C2499.9 567 2495.1 562.1 2491.5 555.9C2488.1 549.7 2486.4 542.7 2486.4 534.9V519.3C2486.4 509.9 2488.7 502 2493.3 495.6C2498.1 489.2 2504 484.7 2511 482.1L2548.2 468.3V454.2C2548.2 449.4 2546.7 445.5 2543.7 442.5C2540.9 439.3 2537.2 437.7 2532.6 437.7H2498.7V420H2534.7C2545.7 420 2554.4 423.3 2560.8 429.9C2567.4 436.3 2570.7 445.1 2570.7 456.3V576H2526ZM2548.2 557.7V487.2L2521.8 497.1C2516.6 499.1 2512.9 501.8 2510.7 505.2C2508.7 508.6 2507.7 514 2507.7 521.4V538.2C2507.7 543.6 2509.7 548.2 2513.7 552C2517.7 555.8 2522.5 557.7 2528.1 557.7H2548.2Z" fill="white"/>
<path d="M1128.22 658H1153C1170.08 658 1178.62 666.68 1178.62 684.04C1178.62 693.093 1176.15 700.187 1171.2 705.32C1166.35 710.36 1159.39 712.88 1150.34 712.88H1140.54V756H1128.22V658ZM1149.5 703.64C1154.82 703.64 1158.93 701.82 1161.82 698.18C1164.81 694.54 1166.3 689.827 1166.3 684.04C1166.3 678.533 1164.85 674.38 1161.96 671.58C1159.16 668.687 1155.01 667.24 1149.5 667.24H1140.54V703.64H1149.5ZM1207.62 756.98C1201.08 756.98 1196 755.347 1192.36 752.08C1188.81 748.72 1187.04 744.1 1187.04 738.22V700.98C1187.04 695.1 1188.81 690.527 1192.36 687.26C1196 683.9 1201.08 682.22 1207.62 682.22C1214.15 682.22 1219.19 683.9 1222.74 687.26C1226.38 690.527 1228.2 695.1 1228.2 700.98V738.22C1228.2 744.1 1226.38 748.72 1222.74 752.08C1219.19 755.347 1214.15 756.98 1207.62 756.98ZM1207.62 748.3C1210.6 748.3 1212.94 747.46 1214.62 745.78C1216.39 744.007 1217.28 741.487 1217.28 738.22V700.98C1217.28 697.713 1216.39 695.24 1214.62 693.56C1212.94 691.787 1210.6 690.9 1207.62 690.9C1204.63 690.9 1202.25 691.787 1200.48 693.56C1198.8 695.24 1197.96 697.713 1197.96 700.98V738.22C1197.96 741.487 1198.8 744.007 1200.48 745.78C1202.25 747.46 1204.63 748.3 1207.62 748.3ZM1257.6 677.74L1252.98 673.54L1269.22 659.68L1276.36 666.26L1257.6 677.74ZM1256.76 756C1251.63 756 1247.52 754.46 1244.44 751.38C1241.45 748.3 1239.96 744.147 1239.96 738.92V701.68C1239.96 695.613 1241.64 690.853 1245 687.4C1248.36 683.947 1253.35 682.22 1259.98 682.22C1266.61 682.22 1271.55 683.947 1274.82 687.4C1278.18 690.853 1279.86 695.613 1279.86 701.68V708.12C1279.86 712.04 1278.74 715.027 1276.5 717.08C1274.26 719.04 1271.32 720.533 1267.68 721.56L1251.16 726.18V739.9C1251.16 742.14 1251.81 744.007 1253.12 745.5C1254.52 746.9 1256.29 747.6 1258.44 747.6H1273.56V756H1256.76ZM1259.7 714.98C1262.78 714.14 1264.83 713.533 1265.86 713.16C1266.98 712.693 1267.73 712.04 1268.1 711.2C1268.47 710.36 1268.66 708.96 1268.66 707V699.3C1268.66 696.313 1267.87 694.12 1266.28 692.72C1264.79 691.32 1262.69 690.62 1259.98 690.62C1257.37 690.62 1255.22 691.367 1253.54 692.86C1251.95 694.353 1251.16 696.5 1251.16 699.3V717.36L1259.7 714.98ZM1311.31 756C1306.18 756 1302.12 754.46 1299.13 751.38C1296.14 748.3 1294.65 744.147 1294.65 738.92V691.6H1286.25V683.2H1294.65V662.06L1305.85 657.86V683.2H1317.05V691.6H1305.85V739.9C1305.85 742.14 1306.46 744.007 1307.67 745.5C1308.98 746.9 1310.7 747.6 1312.85 747.6H1317.05V756H1311.31ZM1328.2 671.3V660.1H1339.4V671.3H1328.2ZM1328.2 756V683.2H1339.4V756H1328.2ZM1371.62 756C1366.49 756 1362.38 754.46 1359.3 751.38C1356.32 748.3 1354.82 744.147 1354.82 738.92V701.68C1354.82 695.8 1356.36 691.273 1359.44 688.1C1362.52 684.833 1367 683.2 1372.88 683.2H1388.42V691.6H1373.16C1371.02 691.6 1369.29 692.347 1367.98 693.84C1366.68 695.24 1366.02 697.06 1366.02 699.3V739.9C1366.02 742.14 1366.68 744.007 1367.98 745.5C1369.38 746.9 1371.16 747.6 1373.3 747.6H1388.42V756H1371.62ZM1413.04 756C1409.68 756 1406.55 755.16 1403.66 753.48C1400.86 751.8 1398.62 749.513 1396.94 746.62C1395.35 743.727 1394.56 740.46 1394.56 736.82V729.54C1394.56 725.153 1395.63 721.467 1397.78 718.48C1400.02 715.493 1402.77 713.393 1406.04 712.18L1423.4 705.74V699.16C1423.4 696.92 1422.7 695.1 1421.3 693.7C1419.99 692.207 1418.26 691.46 1416.12 691.46H1400.3V683.2H1417.1C1422.23 683.2 1426.29 684.74 1429.28 687.82C1432.36 690.807 1433.9 694.913 1433.9 700.14V756H1413.04ZM1423.4 747.46V714.56L1411.08 719.18C1408.65 720.113 1406.92 721.373 1405.9 722.96C1404.96 724.547 1404.5 727.067 1404.5 730.52V738.36C1404.5 740.88 1405.43 743.027 1407.3 744.8C1409.16 746.573 1411.4 747.46 1414.02 747.46H1423.4ZM1445.13 747.6H1457.03C1461.04 747.6 1463.94 746.527 1465.71 744.38C1467.58 742.14 1468.51 739.247 1468.51 735.7C1468.51 732.9 1467.67 730.52 1465.99 728.56C1464.31 726.6 1461.79 724.313 1458.43 721.7C1455.54 719.367 1453.2 717.36 1451.43 715.68C1449.75 713.907 1448.26 711.76 1446.95 709.24C1445.74 706.627 1445.13 703.64 1445.13 700.28C1445.13 695.333 1446.76 691.273 1450.03 688.1C1453.39 684.833 1457.87 683.2 1463.47 683.2H1475.65V691.6H1465.57C1458.94 691.6 1455.63 694.727 1455.63 700.98C1455.63 703.407 1456.38 705.507 1457.87 707.28C1459.36 709.053 1461.7 711.153 1464.87 713.58C1467.76 715.82 1470.14 717.873 1472.01 719.74C1473.88 721.513 1475.46 723.8 1476.77 726.6C1478.08 729.307 1478.73 732.527 1478.73 736.26C1478.73 742.887 1476.96 747.833 1473.41 751.1C1469.96 754.367 1465.06 756 1458.71 756H1445.13V747.6ZM1536.72 756C1528.22 756 1521.64 753.853 1516.98 749.56C1512.31 745.267 1509.98 738.967 1509.98 730.66V683.34C1509.98 675.033 1512.31 668.733 1516.98 664.44C1521.64 660.147 1528.22 658 1536.72 658H1555.48V667.24H1536.72C1532.42 667.24 1528.92 668.5 1526.22 671.02C1523.6 673.447 1522.3 676.713 1522.3 680.82V733.18C1522.3 737.287 1523.6 740.6 1526.22 743.12C1528.92 745.547 1532.42 746.76 1536.72 746.76H1555.48V756H1536.72ZM1584.41 756.98C1577.88 756.98 1572.79 755.347 1569.15 752.08C1565.61 748.72 1563.83 744.1 1563.83 738.22V700.98C1563.83 695.1 1565.61 690.527 1569.15 687.26C1572.79 683.9 1577.88 682.22 1584.41 682.22C1590.95 682.22 1595.99 683.9 1599.53 687.26C1603.17 690.527 1604.99 695.1 1604.99 700.98V738.22C1604.99 744.1 1603.17 748.72 1599.53 752.08C1595.99 755.347 1590.95 756.98 1584.41 756.98ZM1584.41 748.3C1587.4 748.3 1589.73 747.46 1591.41 745.78C1593.19 744.007 1594.07 741.487 1594.07 738.22V700.98C1594.07 697.713 1593.19 695.24 1591.41 693.56C1589.73 691.787 1587.4 690.9 1584.41 690.9C1581.43 690.9 1579.05 691.787 1577.27 693.56C1575.59 695.24 1574.75 697.713 1574.75 700.98V738.22C1574.75 741.487 1575.59 744.007 1577.27 745.78C1579.05 747.46 1581.43 748.3 1584.41 748.3ZM1619 683.2H1627.68L1628.94 687.26L1634.68 685.58C1638.6 684.367 1641.68 683.527 1643.92 683.06C1646.25 682.5 1648.44 682.22 1650.5 682.22C1654.51 682.22 1657.31 683.993 1658.9 687.54C1661.51 686.607 1665.2 685.487 1669.96 684.18C1674.72 682.873 1678.22 682.22 1680.46 682.22C1683.82 682.22 1686.29 683.387 1687.88 685.72C1689.56 688.053 1690.4 691.087 1690.4 694.82V756H1679.2V698.46C1679.2 695.753 1679.01 693.887 1678.64 692.86C1678.26 691.74 1677.33 691.18 1675.84 691.18C1675.09 691.18 1669.96 692.673 1660.44 695.66V756H1649.24V698.46C1649.24 695.753 1649.05 693.887 1648.68 692.86C1648.3 691.74 1647.37 691.18 1645.88 691.18C1645.13 691.18 1639.9 692.673 1630.2 695.66V756H1619V683.2ZM1705.81 683.2H1728.49C1733.63 683.2 1737.97 684.88 1741.51 688.24C1745.15 691.6 1746.97 695.8 1746.97 700.84V738.5C1746.97 743.54 1745.2 747.74 1741.65 751.1C1738.11 754.367 1733.77 756 1728.63 756H1717.01V778.4H1705.81V683.2ZM1726.25 747.74C1728.87 747.74 1731.11 746.853 1732.97 745.08C1734.84 743.307 1735.77 741.113 1735.77 738.5V700.84C1735.77 698.227 1734.84 696.033 1732.97 694.26C1731.11 692.487 1728.87 691.6 1726.25 691.6H1717.01V747.74H1726.25ZM1768.77 756.98C1765.41 756.98 1762.89 755.813 1761.21 753.48C1759.62 751.147 1758.83 748.113 1758.83 744.38V683.2H1770.03V740.74C1770.03 743.353 1770.21 745.22 1770.59 746.34C1770.96 747.46 1771.85 748.02 1773.25 748.02C1773.9 748.02 1779.17 746.62 1789.07 743.82V683.2H1800.27V756H1792.29L1790.19 751.24C1788.69 751.8 1787.57 752.173 1786.83 752.36C1782.44 753.947 1778.89 755.113 1776.19 755.86C1773.48 756.607 1771.01 756.98 1768.77 756.98ZM1837.4 756C1832.27 756 1828.21 754.46 1825.22 751.38C1822.24 748.3 1820.74 744.147 1820.74 738.92V691.6H1812.34V683.2H1820.74V662.06L1831.94 657.86V683.2H1843.14V691.6H1831.94V739.9C1831.94 742.14 1832.55 744.007 1833.76 745.5C1835.07 746.9 1836.8 747.6 1838.94 747.6H1843.14V756H1837.4ZM1869.13 756C1865.77 756 1862.64 755.16 1859.75 753.48C1856.95 751.8 1854.71 749.513 1853.03 746.62C1851.44 743.727 1850.65 740.46 1850.65 736.82V729.54C1850.65 725.153 1851.72 721.467 1853.87 718.48C1856.11 715.493 1858.86 713.393 1862.13 712.18L1879.49 705.74V699.16C1879.49 696.92 1878.79 695.1 1877.39 693.7C1876.08 692.207 1874.36 691.46 1872.21 691.46H1856.39V683.2H1873.19C1878.32 683.2 1882.38 684.74 1885.37 687.82C1888.45 690.807 1889.99 694.913 1889.99 700.14V756H1869.13ZM1879.49 747.46V714.56L1867.17 719.18C1864.74 720.113 1863.02 721.373 1861.99 722.96C1861.06 724.547 1860.59 727.067 1860.59 730.52V738.36C1860.59 740.88 1861.52 743.027 1863.39 744.8C1865.26 746.573 1867.5 747.46 1870.11 747.46H1879.49ZM1920.82 756C1915.69 756 1911.58 754.46 1908.5 751.38C1905.52 748.3 1904.02 744.147 1904.02 738.92V701.68C1904.02 695.8 1905.56 691.273 1908.64 688.1C1911.72 684.833 1916.2 683.2 1922.08 683.2H1937.62V691.6H1922.36C1920.22 691.6 1918.49 692.347 1917.18 693.84C1915.88 695.24 1915.22 697.06 1915.22 699.3V739.9C1915.22 742.14 1915.88 744.007 1917.18 745.5C1918.58 746.9 1920.36 747.6 1922.5 747.6H1937.62V756H1920.82ZM1947.4 671.3V660.1H1958.6V671.3H1947.4ZM1947.4 756V683.2H1958.6V756H1947.4ZM1993.2 756.98C1986.67 756.98 1981.58 755.347 1977.94 752.08C1974.4 748.72 1972.62 744.1 1972.62 738.22V700.98C1972.62 695.1 1974.4 690.527 1977.94 687.26C1981.58 683.9 1986.67 682.22 1993.2 682.22C1999.74 682.22 2004.78 683.9 2008.32 687.26C2011.96 690.527 2013.78 695.1 2013.78 700.98V738.22C2013.78 744.1 2011.96 748.72 2008.32 752.08C2004.78 755.347 1999.74 756.98 1993.2 756.98ZM1993.2 748.3C1996.19 748.3 1998.52 747.46 2000.2 745.78C2001.98 744.007 2002.86 741.487 2002.86 738.22V700.98C2002.86 697.713 2001.98 695.24 2000.2 693.56C1998.52 691.787 1996.19 690.9 1993.2 690.9C1990.22 690.9 1987.84 691.787 1986.06 693.56C1984.38 695.24 1983.54 697.713 1983.54 700.98V738.22C1983.54 741.487 1984.38 744.007 1986.06 745.78C1987.84 747.46 1990.22 748.3 1993.2 748.3ZM2027.79 683.2H2036.47L2037.73 687.26L2043.47 685.58C2047.39 684.367 2050.47 683.527 2052.71 683.06C2055.04 682.5 2057.23 682.22 2059.29 682.22C2062.65 682.22 2065.12 683.387 2066.71 685.72C2068.29 688.053 2069.09 691.087 2069.09 694.82V756H2057.89V698.46C2057.89 695.753 2057.7 693.887 2057.33 692.86C2056.95 691.74 2056.02 691.18 2054.53 691.18C2053.78 691.18 2048.6 692.673 2038.99 695.66V756H2027.79V683.2ZM2099.5 756C2096.14 756 2093.02 755.16 2090.12 753.48C2087.32 751.8 2085.08 749.513 2083.4 746.62C2081.82 743.727 2081.02 740.46 2081.02 736.82V729.54C2081.02 725.153 2082.1 721.467 2084.24 718.48C2086.48 715.493 2089.24 713.393 2092.5 712.18L2109.86 705.74V699.16C2109.86 696.92 2109.16 695.1 2107.76 693.7C2106.46 692.207 2104.73 691.46 2102.58 691.46H2086.76V683.2H2103.56C2108.7 683.2 2112.76 684.74 2115.74 687.82C2118.82 690.807 2120.36 694.913 2120.36 700.14V756H2099.5ZM2109.86 747.46V714.56L2097.54 719.18C2095.12 720.113 2093.39 721.373 2092.36 722.96C2091.43 724.547 2090.96 727.067 2090.96 730.52V738.36C2090.96 740.88 2091.9 743.027 2093.76 744.8C2095.63 746.573 2097.87 747.46 2100.48 747.46H2109.86ZM2135.79 671.3V660.1H2146.99V671.3H2135.79ZM2135.79 756V683.2H2146.99V756H2135.79ZM2159.62 747.6H2171.52C2175.54 747.6 2178.43 746.527 2180.2 744.38C2182.07 742.14 2183 739.247 2183 735.7C2183 732.9 2182.16 730.52 2180.48 728.56C2178.8 726.6 2176.28 724.313 2172.92 721.7C2170.03 719.367 2167.7 717.36 2165.92 715.68C2164.24 713.907 2162.75 711.76 2161.44 709.24C2160.23 706.627 2159.62 703.64 2159.62 700.28C2159.62 695.333 2161.26 691.273 2164.52 688.1C2167.88 684.833 2172.36 683.2 2177.96 683.2H2190.14V691.6H2180.06C2173.44 691.6 2170.12 694.727 2170.12 700.98C2170.12 703.407 2170.87 705.507 2172.36 707.28C2173.86 709.053 2176.19 711.153 2179.36 713.58C2182.26 715.82 2184.64 717.873 2186.5 719.74C2188.37 721.513 2189.96 723.8 2191.26 726.6C2192.57 729.307 2193.22 732.527 2193.22 736.26C2193.22 742.887 2191.45 747.833 2187.9 751.1C2184.45 754.367 2179.55 756 2173.2 756H2159.62V747.6ZM1150.76 936C1142.27 936 1135.69 933.853 1131.02 929.56C1126.35 925.267 1124.02 918.967 1124.02 910.66V863.34C1124.02 855.033 1126.35 848.733 1131.02 844.44C1135.69 840.147 1142.27 838 1150.76 838H1169.52V847.24H1150.76C1146.47 847.24 1142.97 848.5 1140.26 851.02C1137.65 853.447 1136.34 856.713 1136.34 860.82V913.18C1136.34 917.287 1137.65 920.6 1140.26 923.12C1142.97 925.547 1146.47 926.76 1150.76 926.76H1169.52V936H1150.76ZM1198.46 936.98C1191.92 936.98 1186.84 935.347 1183.2 932.08C1179.65 928.72 1177.88 924.1 1177.88 918.22V880.98C1177.88 875.1 1179.65 870.527 1183.2 867.26C1186.84 863.9 1191.92 862.22 1198.46 862.22C1204.99 862.22 1210.03 863.9 1213.58 867.26C1217.22 870.527 1219.04 875.1 1219.04 880.98V918.22C1219.04 924.1 1217.22 928.72 1213.58 932.08C1210.03 935.347 1204.99 936.98 1198.46 936.98ZM1198.46 928.3C1201.44 928.3 1203.78 927.46 1205.46 925.78C1207.23 924.007 1208.12 921.487 1208.12 918.22V880.98C1208.12 877.713 1207.23 875.24 1205.46 873.56C1203.78 871.787 1201.44 870.9 1198.46 870.9C1195.47 870.9 1193.09 871.787 1191.32 873.56C1189.64 875.24 1188.8 877.713 1188.8 880.98V918.22C1188.8 921.487 1189.64 924.007 1191.32 925.78C1193.09 927.46 1195.47 928.3 1198.46 928.3ZM1233.04 863.2H1241.72L1242.98 867.26L1248.72 865.58C1252.64 864.367 1255.72 863.527 1257.96 863.06C1260.29 862.5 1262.49 862.22 1264.54 862.22C1267.9 862.22 1270.37 863.387 1271.96 865.72C1273.55 868.053 1274.34 871.087 1274.34 874.82V936H1263.14V878.46C1263.14 875.753 1262.95 873.887 1262.58 872.86C1262.21 871.74 1261.27 871.18 1259.78 871.18C1259.03 871.18 1253.85 872.673 1244.24 875.66V936H1233.04V863.2ZM1310.22 936C1305.08 936 1301.02 934.46 1298.04 931.38C1295.05 928.3 1293.56 924.147 1293.56 918.92V871.6H1285.16V863.2H1293.56V842.06L1304.76 837.86V863.2H1315.96V871.6H1304.76V919.9C1304.76 922.14 1305.36 924.007 1306.58 925.5C1307.88 926.9 1309.61 927.6 1311.76 927.6H1315.96V936H1310.22ZM1341.66 936C1336.53 936 1332.42 934.46 1329.34 931.38C1326.36 928.3 1324.86 924.147 1324.86 918.92V881.68C1324.86 875.613 1326.54 870.853 1329.9 867.4C1333.26 863.947 1338.26 862.22 1344.88 862.22C1351.51 862.22 1356.46 863.947 1359.72 867.4C1363.08 870.853 1364.76 875.613 1364.76 881.68V888.12C1364.76 892.04 1363.64 895.027 1361.4 897.08C1359.16 899.04 1356.22 900.533 1352.58 901.56L1336.06 906.18V919.9C1336.06 922.14 1336.72 924.007 1338.02 925.5C1339.42 926.9 1341.2 927.6 1343.34 927.6H1358.46V936H1341.66ZM1344.6 894.98C1347.68 894.14 1349.74 893.533 1350.76 893.16C1351.88 892.693 1352.63 892.04 1353 891.2C1353.38 890.36 1353.56 888.96 1353.56 887V879.3C1353.56 876.313 1352.77 874.12 1351.18 872.72C1349.69 871.32 1347.59 870.62 1344.88 870.62C1342.27 870.62 1340.12 871.367 1338.44 872.86C1336.86 874.353 1336.06 876.5 1336.06 879.3V897.36L1344.6 894.98ZM1375.91 863.2H1384.59L1385.85 867.26L1391.59 865.58C1395.51 864.367 1398.59 863.527 1400.83 863.06C1403.17 862.5 1405.36 862.22 1407.41 862.22C1411.43 862.22 1414.23 863.993 1415.81 867.54C1418.43 866.607 1422.11 865.487 1426.87 864.18C1431.63 862.873 1435.13 862.22 1437.37 862.22C1440.73 862.22 1443.21 863.387 1444.79 865.72C1446.47 868.053 1447.31 871.087 1447.31 874.82V936H1436.11V878.46C1436.11 875.753 1435.93 873.887 1435.55 872.86C1435.18 871.74 1434.25 871.18 1432.75 871.18C1432.01 871.18 1426.87 872.673 1417.35 875.66V936H1406.15V878.46C1406.15 875.753 1405.97 873.887 1405.59 872.86C1405.22 871.74 1404.29 871.18 1402.79 871.18C1402.05 871.18 1396.82 872.673 1387.11 875.66V936H1375.91V863.2ZM1462.73 863.2H1485.41C1490.54 863.2 1494.88 864.88 1498.43 868.24C1502.07 871.6 1503.89 875.8 1503.89 880.84V918.5C1503.89 923.54 1502.11 927.74 1498.57 931.1C1495.02 934.367 1490.68 936 1485.55 936H1473.93V958.4H1462.73V863.2ZM1483.17 927.74C1485.78 927.74 1488.02 926.853 1489.89 925.08C1491.75 923.307 1492.69 921.113 1492.69 918.5V880.84C1492.69 878.227 1491.75 876.033 1489.89 874.26C1488.02 872.487 1485.78 871.6 1483.17 871.6H1473.93V927.74H1483.17ZM1534.92 936.98C1528.39 936.98 1523.3 935.347 1519.66 932.08C1516.12 928.72 1514.34 924.1 1514.34 918.22V880.98C1514.34 875.1 1516.12 870.527 1519.66 867.26C1523.3 863.9 1528.39 862.22 1534.92 862.22C1541.46 862.22 1546.5 863.9 1550.04 867.26C1553.68 870.527 1555.5 875.1 1555.5 880.98V918.22C1555.5 924.1 1553.68 928.72 1550.04 932.08C1546.5 935.347 1541.46 936.98 1534.92 936.98ZM1534.92 928.3C1537.91 928.3 1540.24 927.46 1541.92 925.78C1543.7 924.007 1544.58 921.487 1544.58 918.22V880.98C1544.58 877.713 1543.7 875.24 1541.92 873.56C1540.24 871.787 1537.91 870.9 1534.92 870.9C1531.94 870.9 1529.56 871.787 1527.78 873.56C1526.1 875.24 1525.26 877.713 1525.26 880.98V918.22C1525.26 921.487 1526.1 924.007 1527.78 925.78C1529.56 927.46 1531.94 928.3 1534.92 928.3ZM1569.51 863.2H1578.19L1579.45 868.38L1582.95 866.7C1585.93 865.207 1588.41 864.087 1590.37 863.34C1592.42 862.593 1594.47 862.22 1596.53 862.22V870.48C1595.31 870.48 1593.68 870.853 1591.63 871.6C1589.57 872.253 1585.93 873.84 1580.71 876.36V936H1569.51V863.2ZM1621.81 936C1618.45 936 1615.32 935.16 1612.43 933.48C1609.63 931.8 1607.39 929.513 1605.71 926.62C1604.12 923.727 1603.33 920.46 1603.33 916.82V909.54C1603.33 905.153 1604.4 901.467 1606.55 898.48C1608.79 895.493 1611.54 893.393 1614.81 892.18L1632.17 885.74V879.16C1632.17 876.92 1631.47 875.1 1630.07 873.7C1628.76 872.207 1627.03 871.46 1624.89 871.46H1609.07V863.2H1625.87C1631 863.2 1635.06 864.74 1638.05 867.82C1641.13 870.807 1642.67 874.913 1642.67 880.14V936H1621.81ZM1632.17 927.46V894.56L1619.85 899.18C1617.42 900.113 1615.69 901.373 1614.67 902.96C1613.73 904.547 1613.27 907.067 1613.27 910.52V918.36C1613.27 920.88 1614.2 923.027 1616.07 924.8C1617.93 926.573 1620.17 927.46 1622.79 927.46H1632.17ZM1658.1 863.2H1666.78L1668.04 867.26L1673.78 865.58C1677.7 864.367 1680.78 863.527 1683.02 863.06C1685.35 862.5 1687.55 862.22 1689.6 862.22C1692.96 862.22 1695.43 863.387 1697.02 865.72C1698.61 868.053 1699.4 871.087 1699.4 874.82V936H1688.2V878.46C1688.2 875.753 1688.01 873.887 1687.64 872.86C1687.27 871.74 1686.33 871.18 1684.84 871.18C1684.09 871.18 1678.91 872.673 1669.3 875.66V936H1658.1V863.2ZM1729.53 936C1724.4 936 1720.29 934.46 1717.21 931.38C1714.23 928.3 1712.73 924.147 1712.73 918.92V881.68C1712.73 875.613 1714.41 870.853 1717.77 867.4C1721.13 863.947 1726.13 862.22 1732.75 862.22C1739.38 862.22 1744.33 863.947 1747.59 867.4C1750.95 870.853 1752.63 875.613 1752.63 881.68V888.12C1752.63 892.04 1751.51 895.027 1749.27 897.08C1747.03 899.04 1744.09 900.533 1740.45 901.56L1723.93 906.18V919.9C1723.93 922.14 1724.59 924.007 1725.89 925.5C1727.29 926.9 1729.07 927.6 1731.21 927.6H1746.33V936H1729.53ZM1732.47 894.98C1735.55 894.14 1737.61 893.533 1738.63 893.16C1739.75 892.693 1740.5 892.04 1740.87 891.2C1741.25 890.36 1741.43 888.96 1741.43 887V879.3C1741.43 876.313 1740.64 874.12 1739.05 872.72C1737.56 871.32 1735.46 870.62 1732.75 870.62C1730.14 870.62 1727.99 871.367 1726.31 872.86C1724.73 874.353 1723.93 876.5 1723.93 879.3V897.36L1732.47 894.98ZM1778.62 936C1775.26 936 1772.14 935.16 1769.24 933.48C1766.44 931.8 1764.2 929.513 1762.52 926.62C1760.94 923.727 1760.14 920.46 1760.14 916.82V909.54C1760.14 905.153 1761.22 901.467 1763.36 898.48C1765.6 895.493 1768.36 893.393 1771.62 892.18L1788.98 885.74V879.16C1788.98 876.92 1788.28 875.1 1786.88 873.7C1785.58 872.207 1783.85 871.46 1781.7 871.46H1765.88V863.2H1782.68C1787.82 863.2 1791.88 864.74 1794.86 867.82C1797.94 870.807 1799.48 874.913 1799.48 880.14V936H1778.62ZM1788.98 927.46V894.56L1776.66 899.18C1774.24 900.113 1772.51 901.373 1771.48 902.96C1770.55 904.547 1770.08 907.067 1770.08 910.52V918.36C1770.08 920.88 1771.02 923.027 1772.88 924.8C1774.75 926.573 1776.99 927.46 1779.6 927.46H1788.98ZM1810.72 927.6H1822.62C1826.63 927.6 1829.52 926.527 1831.3 924.38C1833.16 922.14 1834.1 919.247 1834.1 915.7C1834.1 912.9 1833.26 910.52 1831.58 908.56C1829.9 906.6 1827.38 904.313 1824.02 901.7C1821.12 899.367 1818.79 897.36 1817.02 895.68C1815.34 893.907 1813.84 891.76 1812.54 889.24C1811.32 886.627 1810.72 883.64 1810.72 880.28C1810.72 875.333 1812.35 871.273 1815.62 868.1C1818.98 864.833 1823.46 863.2 1829.06 863.2H1841.24V871.6H1831.16C1824.53 871.6 1821.22 874.727 1821.22 880.98C1821.22 883.407 1821.96 885.507 1823.46 887.28C1824.95 889.053 1827.28 891.153 1830.46 893.58C1833.35 895.82 1835.73 897.873 1837.6 899.74C1839.46 901.513 1841.05 903.8 1842.36 906.6C1843.66 909.307 1844.32 912.527 1844.32 916.26C1844.32 922.887 1842.54 927.833 1839 931.1C1835.54 934.367 1830.64 936 1824.3 936H1810.72V927.6Z" fill="white" fill-opacity="0.6"/>
<path fill-rule="evenodd" clip-rule="evenodd" d="M969.43 553.24L529.074 299L274.834 739.356L715.191 993.596L969.43 553.24ZM937.722 564.633L538.489 334.135L307.991 733.369L707.225 963.866L937.722 564.633Z" fill="white"/>
<path fill-rule="evenodd" clip-rule="evenodd" d="M911.757 646.298L622.132 356.673L332.507 646.298L622.132 935.923L911.757 646.298ZM884.71 648.552L622.132 385.974L359.554 648.552L622.132 911.13L884.71 648.552Z" fill="white"/>
<path fill-rule="evenodd" clip-rule="evenodd" d="M833.652 702.975L678.809 434.779L410.614 589.622L565.457 857.817L833.652 702.975ZM813.458 699.328L673.075 456.178L429.926 596.561L570.308 839.71L813.458 699.328Z" fill="white"/>
<path fill-rule="evenodd" clip-rule="evenodd" d="M770.346 731.869L707.703 498.085L473.919 560.727L536.561 794.511L770.346 731.869ZM755.839 725.031L699.046 513.079L487.094 569.871L543.887 781.824L755.839 725.031Z" fill="white"/>
<path fill-rule="evenodd" clip-rule="evenodd" d="M714.193 738.358L714.193 554.238L530.072 554.238L530.072 738.358L714.193 738.358ZM704.879 730.478L704.879 563.551L537.953 563.551L537.953 730.478L704.879 730.478Z" fill="white"/>
<rect x="565" y="589.165" width="114" height="114" fill="white"/>
</svg>
