<svg width="5201" height="2435" viewBox="0 0 5201 2435" fill="none" xmlns="http://www.w3.org/2000/svg">
<rect width="409.705" height="258.23" transform="matrix(0.864645 0.502384 -0.762169 0.647379 3513.26 1274.1)" fill="#7B7B7B"/>
<path d="M1730.05 1869.08L1442.98 1702.28L1324.27 1803.11L871 1539.75L1342.73 1139.07L2083.06 1569.23L1730.05 1869.08Z" fill="#9EC2C2"/>
<path d="M0 1667.11L1870.63 76.173L2156.71 231.067L286.081 1822.01L0 1667.11Z" fill="#696969"/>
<path d="M293.5 1813.32L2164.13 222.382L2308.85 297.785L438.214 1888.72L293.5 1813.32Z" fill="#D9D9D9"/>
<path d="M512.5 1626.26L609.649 1543.63L1577.65 2111.99L1480.5 2194.61L512.5 1626.26Z" fill="#696969"/>
<path d="M739.5 1619.26L836.649 1536.63L1709.96 2053.57L1612.81 2136.19L739.5 1619.26Z" fill="#D9D9D9"/>
<path d="M1142.79 890.253H1133.46C1133.29 889.046 1132.94 887.973 1132.42 887.036C1131.89 886.084 1131.22 885.274 1130.39 884.607C1129.57 883.939 1128.62 883.428 1127.54 883.073C1126.47 882.717 1125.32 882.54 1124.07 882.54C1121.81 882.54 1119.84 883.101 1118.16 884.223C1116.49 885.331 1115.19 886.95 1114.26 889.081C1113.34 891.198 1112.88 893.769 1112.88 896.794C1112.88 899.905 1113.34 902.519 1114.26 904.635C1115.2 906.752 1116.51 908.35 1118.18 909.429C1119.86 910.509 1121.8 911.048 1124 911.048C1125.24 911.048 1126.38 910.885 1127.43 910.558C1128.5 910.232 1129.44 909.756 1130.27 909.131C1131.09 908.492 1131.77 907.717 1132.31 906.808C1132.87 905.899 1133.25 904.862 1133.46 903.698L1142.79 903.74C1142.55 905.743 1141.95 907.675 1140.98 909.536C1140.03 911.382 1138.75 913.037 1137.13 914.5C1135.52 915.949 1133.6 917.1 1131.37 917.952C1129.16 918.79 1126.65 919.209 1123.85 919.209C1119.96 919.209 1116.48 918.328 1113.41 916.567C1110.36 914.805 1107.94 912.256 1106.17 908.918C1104.41 905.58 1103.53 901.538 1103.53 896.794C1103.53 892.036 1104.42 887.987 1106.21 884.649C1108 881.311 1110.43 878.769 1113.5 877.021C1116.57 875.26 1120.02 874.379 1123.85 874.379C1126.38 874.379 1128.72 874.734 1130.88 875.445C1133.06 876.155 1134.98 877.192 1136.66 878.555C1138.33 879.905 1139.7 881.56 1140.75 883.52C1141.81 885.48 1142.5 887.725 1142.79 890.253ZM1156.11 918.612H1146.22L1161.29 874.976H1173.18L1188.22 918.612H1178.33L1167.4 884.948H1167.06L1156.11 918.612ZM1155.49 901.46H1178.85V908.662H1155.49V901.46ZM1229.92 890.253H1220.59C1220.42 889.046 1220.07 887.973 1219.55 887.036C1219.02 886.084 1218.35 885.274 1217.52 884.607C1216.7 883.939 1215.75 883.428 1214.67 883.073C1213.6 882.717 1212.44 882.54 1211.19 882.54C1208.94 882.54 1206.97 883.101 1205.29 884.223C1203.62 885.331 1202.32 886.95 1201.39 889.081C1200.47 891.198 1200.01 893.769 1200.01 896.794C1200.01 899.905 1200.47 902.519 1201.39 904.635C1202.33 906.752 1203.64 908.35 1205.31 909.429C1206.99 910.509 1208.93 911.048 1211.13 911.048C1212.37 911.048 1213.51 910.885 1214.56 910.558C1215.63 910.232 1216.57 909.756 1217.39 909.131C1218.22 908.492 1218.9 907.717 1219.44 906.808C1219.99 905.899 1220.38 904.862 1220.59 903.698L1229.92 903.74C1229.68 905.743 1229.08 907.675 1228.11 909.536C1227.16 911.382 1225.87 913.037 1224.26 914.5C1222.65 915.949 1220.73 917.1 1218.5 917.952C1216.29 918.79 1213.78 919.209 1210.98 919.209C1207.09 919.209 1203.61 918.328 1200.54 916.567C1197.49 914.805 1195.07 912.256 1193.3 908.918C1191.54 905.58 1190.65 901.538 1190.65 896.794C1190.65 892.036 1191.55 887.987 1193.34 884.649C1195.13 881.311 1197.56 878.769 1200.63 877.021C1203.69 875.26 1207.15 874.379 1210.98 874.379C1213.51 874.379 1215.85 874.734 1218.01 875.445C1220.19 876.155 1222.11 877.192 1223.79 878.555C1225.46 879.905 1226.83 881.56 1227.88 883.52C1228.94 885.48 1229.62 887.725 1229.92 890.253Z" fill="white"/>
<path d="M4443.96 1417.14L4205.99 1278.88L4790.19 782.668L5028.15 920.932L4443.96 1417.14Z" fill="#FF8000"/>
<path d="M4734.8 1586.13L4583.71 1498.35L5049.2 1102.97L5200.29 1190.76L4734.8 1586.13Z" fill="#FF8000"/>
<path d="M4729.75 747.551L4536.06 912.07L4192.33 712.355L4298.55 622.135L4253.23 595.8L4103.27 723.169L3933.3 624.409L4170.72 422.74L4729.75 747.551Z" fill="#FF8000"/>
<path fill-rule="evenodd" clip-rule="evenodd" d="M3187.65 852.537L3221.64 872.288L3102.93 973.122L3057.6 946.787L3201.13 1030.18L2960.58 1234.51L3005.91 1260.84L2659.14 1555.39L3323.93 1941.65L3427.02 1854.08L4008.71 2192.06L3765.04 2399.04L3557.29 2278.33L3372.97 2434.89L2723.29 2057.4L2804.52 1988.41L2370.14 1736.03L2170.2 1905.85L1883.13 1739.05L2326.74 1362.25L2470.28 1445.65L2935.76 1050.27L2652.47 885.672L2418.17 1084.69L2119.77 911.308L2354.07 712.293L2195.43 620.117L2435.98 415.795L3032.78 762.556L3313.94 523.739L3468.81 613.72L3187.65 852.537Z" fill="#424242"/>
<path d="M3383.63 1480.31L3251.43 1403.5L3448.24 1236.32L3580.44 1313.14L3383.63 1480.31Z" fill="#424242"/>
<path d="M3527.16 1563.71L3394.96 1486.89L3591.78 1319.72L3723.98 1396.54L3527.16 1563.71Z" fill="#424242"/>
<path d="M3670.7 1647.11L3538.49 1570.29L3735.31 1403.12L3867.51 1479.93L3670.7 1647.11Z" fill="#424242"/>
<path d="M3969.1 1820.48L3731.13 1682.22L4127.89 1345.22L4365.85 1483.48L3969.1 1820.48Z" fill="#424242"/>
<path d="M4656.7 1652.48L4656.7 1652.48L4259.94 1989.47L4108.86 1901.69L4505.61 1564.69L4592.49 1615.17L4670.59 1548.83L4734.8 1586.14L4656.7 1652.48Z" fill="#424242"/>
<path d="M3908.13 1445.44L3488.86 1201.83L3576.33 1127.53L3995.6 1371.14L3908.13 1445.44Z" fill="#424242"/>
<path d="M4029.96 1341.95L3610.69 1098.34L3726.28 1000.16L4145.55 1243.77L4029.96 1341.95Z" fill="#424242"/>
<path d="M4013.35 1166.95L3866.04 1081.36L4100.34 882.347L4247.66 967.94L4013.35 1166.95Z" fill="#424242"/>
<rect width="449.958" height="311.516" transform="matrix(0.864645 0.502384 -0.762169 0.647379 3337.23 774.105)" fill="#9EC2C2"/>
<path d="M4016.27 2196.44L3487.46 1889.19L3731.14 1682.21L4259.95 1989.47L4016.27 2196.44Z" fill="#8BBD7B"/>
<path d="M4108.86 1901.68L3969.1 1820.47L4365.85 1483.48L4505.61 1564.68L4108.86 1901.68Z" fill="#8BBD7B"/>
<path d="M4583.71 1498.34L4443.96 1417.14L4909.44 1021.76L5049.2 1102.96L4583.71 1498.34Z" fill="#8BBD7B"/>
<path d="M2119.77 911.303L2418.17 1084.68L2652.47 885.668L2935.76 1050.27L2701.46 1249.28L2557.92 1165.89L2083.07 1569.22L1342.73 1139.07L2055.02 534.061L2357.19 709.635L2119.77 911.303Z" fill="#7FBC6D"/>
<path d="M3323.93 1941.64L2659.14 1555.38L3005.91 1260.84L3670.7 1647.1L3323.93 1941.64Z" fill="#7FBC6D"/>
<path d="M3251.43 1403.49L2960.58 1234.5L3198.01 1032.83L3488.86 1201.82L3251.43 1403.49Z" fill="#7FBC6D"/>
<path d="M4145.55 1243.76L4013.35 1166.95L4247.65 967.934L4100.34 882.342L3866.04 1081.36L3726.28 1000.15L4073.05 705.612L4492.32 949.22L4145.55 1243.76Z" fill="#7FBC6D"/>
<path d="M2659.14 1555.38L2613.81 1529.04L2170.2 1905.84L1883.13 1739.05L2136.18 1524.11L1395.84 1093.96L1498.93 1006.39L2239.27 1436.55L2326.74 1362.25L2470.28 1445.65L2613.98 1323.58L2802.84 1433.32L2659.14 1555.38Z" fill="#BECDD2"/>
<path d="M3221.91 2114.74L2451.36 1667.03L2501.35 1624.57L3211.46 2037.17L3867.51 1479.93L3157.39 1067.33L2960.58 1234.5L2922.81 1212.56L2719.74 1385.03L2659.31 1349.92L2862.37 1177.44L2862.37 1177.44L3021.7 1042.11L2981.09 1076.61L2425.83 753.989L2466.45 719.493L2987.7 1022.36L3303.23 754.352L3337.23 774.104L3099.8 975.773L3443.53 1175.49L3531 1101.19L3576.32 1127.52L3488.85 1201.82L3908.12 1445.43L4492.32 949.221L4103.27 723.17L4253.22 595.801L4298.55 622.137L4192.33 712.357L4536.06 912.072L4729.75 747.551L4790.18 782.665L3221.91 2114.74Z" fill="#BECDD2"/>
<path d="M3995.6 1371.13L3531 1101.19L3571.61 1066.69L4036.21 1336.63L3995.6 1371.13Z" fill="#BECDD2"/>
<path d="M4592.48 1615.16L4127.89 1345.22L4205.99 1278.88L4670.59 1548.82L4592.48 1615.16Z" fill="#BECDD2"/>
<rect width="288.322" height="254.131" transform="matrix(0.864645 0.502384 -0.762169 0.647379 2059.59 568)" fill="black" fill-opacity="0.1"/>
<rect width="244.637" height="213.142" transform="matrix(0.864645 0.502384 -0.762169 0.647379 2062.85 604.904)" fill="black" fill-opacity="0.1"/>
<rect width="200.952" height="172.153" transform="matrix(0.864645 0.502384 -0.762169 0.647379 2066.12 641.805)" fill="black" fill-opacity="0.1"/>
<rect width="200.952" height="172.153" transform="matrix(0.864645 0.502384 -0.762169 0.647379 2187.07 1178.32)" fill="black" fill-opacity="0.1"/>
<rect width="176.167" height="150.378" transform="matrix(0.864645 0.502384 -0.762169 0.647379 2191.91 1204.86)" fill="black" fill-opacity="0.1"/>
<path d="M1511 1082.22L2403.5 1597.05L3108.22 1008.37L3916.32 1481L4486 983.053" stroke="black" stroke-width="10"/>
<rect width="218.804" height="303.318" transform="matrix(0.864645 0.502384 -0.762169 0.647379 2557.93 1165.89)" fill="#9EC2C2"/>
<path d="M1329.53 1514.05V1484.96H1341.18C1343.32 1484.96 1345.1 1485.28 1346.53 1485.91C1347.96 1486.55 1349.04 1487.43 1349.76 1488.56C1350.48 1489.67 1350.84 1490.96 1350.84 1492.42C1350.84 1493.56 1350.61 1494.55 1350.15 1495.42C1349.7 1496.27 1349.07 1496.97 1348.28 1497.52C1347.49 1498.06 1346.59 1498.44 1345.58 1498.67V1498.95C1346.69 1499 1347.72 1499.31 1348.69 1499.89C1349.67 1500.47 1350.46 1501.28 1351.06 1502.32C1351.67 1503.35 1351.97 1504.58 1351.97 1506.01C1351.97 1507.56 1351.59 1508.93 1350.82 1510.15C1350.06 1511.35 1348.94 1512.3 1347.45 1513C1345.97 1513.7 1344.14 1514.05 1341.96 1514.05H1329.53ZM1335.68 1509.02H1340.69C1342.41 1509.02 1343.66 1508.7 1344.44 1508.04C1345.23 1507.38 1345.62 1506.5 1345.62 1505.4C1345.62 1504.6 1345.43 1503.89 1345.04 1503.27C1344.65 1502.66 1344.1 1502.17 1343.38 1501.82C1342.67 1501.47 1341.82 1501.3 1340.84 1501.3H1335.68V1509.02ZM1335.68 1497.14H1340.24C1341.08 1497.14 1341.83 1496.99 1342.48 1496.69C1343.15 1496.39 1343.67 1495.97 1344.05 1495.42C1344.43 1494.87 1344.63 1494.21 1344.63 1493.44C1344.63 1492.39 1344.25 1491.54 1343.51 1490.9C1342.77 1490.26 1341.72 1489.93 1340.35 1489.93H1335.68V1497.14ZM1362.12 1484.96V1514.05H1355.97V1484.96H1362.12ZM1367.18 1514.05V1484.96H1378.83C1380.97 1484.96 1382.76 1485.28 1384.19 1485.91C1385.62 1486.55 1386.69 1487.43 1387.41 1488.56C1388.13 1489.67 1388.49 1490.96 1388.49 1492.42C1388.49 1493.56 1388.26 1494.55 1387.81 1495.42C1387.36 1496.27 1386.73 1496.97 1385.93 1497.52C1385.15 1498.06 1384.25 1498.44 1383.24 1498.67V1498.95C1384.34 1499 1385.38 1499.31 1386.35 1499.89C1387.32 1500.47 1388.11 1501.28 1388.72 1502.32C1389.32 1503.35 1389.63 1504.58 1389.63 1506.01C1389.63 1507.56 1389.24 1508.93 1388.48 1510.15C1387.72 1511.35 1386.6 1512.3 1385.11 1513C1383.62 1513.7 1381.79 1514.05 1379.61 1514.05H1367.18ZM1373.34 1509.02H1378.35C1380.06 1509.02 1381.31 1508.7 1382.1 1508.04C1382.89 1507.38 1383.28 1506.5 1383.28 1505.4C1383.28 1504.6 1383.08 1503.89 1382.7 1503.27C1382.31 1502.66 1381.75 1502.17 1381.03 1501.82C1380.32 1501.47 1379.48 1501.3 1378.49 1501.3H1373.34V1509.02ZM1373.34 1497.14H1377.89C1378.74 1497.14 1379.49 1496.99 1380.14 1496.69C1380.8 1496.39 1381.32 1495.97 1381.7 1495.42C1382.09 1494.87 1382.28 1494.21 1382.28 1493.44C1382.28 1492.39 1381.91 1491.54 1381.16 1490.9C1380.42 1490.26 1379.37 1489.93 1378.01 1489.93H1373.34V1497.14ZM1393.63 1514.05V1484.96H1399.78V1508.98H1412.25V1514.05H1393.63ZM1422.48 1484.96V1514.05H1416.33V1484.96H1422.48ZM1454.27 1499.51C1454.27 1502.68 1453.67 1505.38 1452.47 1507.6C1451.27 1509.83 1449.64 1511.53 1447.58 1512.7C1445.52 1513.87 1443.21 1514.45 1440.65 1514.45C1438.06 1514.45 1435.74 1513.86 1433.69 1512.69C1431.63 1511.51 1430.01 1509.82 1428.81 1507.59C1427.62 1505.36 1427.02 1502.67 1427.02 1499.51C1427.02 1496.33 1427.62 1493.64 1428.81 1491.41C1430.01 1489.19 1431.63 1487.49 1433.69 1486.33C1435.74 1485.15 1438.06 1484.56 1440.65 1484.56C1443.21 1484.56 1445.52 1485.15 1447.58 1486.33C1449.64 1487.49 1451.27 1489.19 1452.47 1491.41C1453.67 1493.64 1454.27 1496.33 1454.27 1499.51ZM1448.03 1499.51C1448.03 1497.45 1447.73 1495.72 1447.11 1494.31C1446.5 1492.9 1445.65 1491.83 1444.54 1491.1C1443.43 1490.37 1442.13 1490 1440.65 1490C1439.16 1490 1437.86 1490.37 1436.75 1491.1C1435.65 1491.83 1434.79 1492.9 1434.17 1494.31C1433.56 1495.72 1433.26 1497.45 1433.26 1499.51C1433.26 1501.56 1433.56 1503.3 1434.17 1504.71C1434.79 1506.12 1435.65 1507.19 1436.75 1507.92C1437.86 1508.65 1439.16 1509.01 1440.65 1509.01C1442.13 1509.01 1443.43 1508.65 1444.54 1507.92C1445.65 1507.19 1446.5 1506.12 1447.11 1504.71C1447.73 1503.3 1448.03 1501.56 1448.03 1499.51ZM1456.39 1490.03V1484.96H1480.28V1490.03H1471.38V1514.05H1465.3V1490.03H1456.39ZM1484.22 1514.05V1484.96H1503.82V1490.03H1490.37V1496.96H1502.81V1502.04H1490.37V1508.98H1503.88V1514.05H1484.22ZM1534.38 1495.15H1528.15C1528.04 1494.34 1527.81 1493.63 1527.46 1493C1527.11 1492.37 1526.66 1491.83 1526.11 1491.38C1525.56 1490.94 1524.92 1490.6 1524.21 1490.36C1523.5 1490.12 1522.72 1490 1521.89 1490C1520.38 1490 1519.07 1490.38 1517.96 1491.13C1516.84 1491.87 1515.97 1492.94 1515.36 1494.37C1514.74 1495.78 1514.43 1497.49 1514.43 1499.51C1514.43 1501.58 1514.74 1503.32 1515.36 1504.73C1515.98 1506.15 1516.85 1507.21 1517.97 1507.93C1519.09 1508.65 1520.38 1509.01 1521.85 1509.01C1522.67 1509.01 1523.43 1508.9 1524.13 1508.68C1524.84 1508.47 1525.47 1508.15 1526.02 1507.73C1526.57 1507.31 1527.03 1506.79 1527.39 1506.18C1527.76 1505.58 1528.01 1504.89 1528.15 1504.11L1534.38 1504.14C1534.21 1505.47 1533.81 1506.76 1533.17 1508C1532.53 1509.23 1531.68 1510.34 1530.6 1511.31C1529.53 1512.28 1528.25 1513.04 1526.76 1513.61C1525.28 1514.17 1523.61 1514.45 1521.75 1514.45C1519.15 1514.45 1516.83 1513.86 1514.79 1512.69C1512.75 1511.51 1511.14 1509.82 1509.96 1507.59C1508.78 1505.36 1508.2 1502.67 1508.2 1499.51C1508.2 1496.33 1508.79 1493.64 1509.99 1491.41C1511.18 1489.19 1512.8 1487.49 1514.84 1486.33C1516.89 1485.15 1519.19 1484.56 1521.75 1484.56C1523.43 1484.56 1525 1484.8 1526.44 1485.27C1527.88 1485.75 1529.17 1486.44 1530.28 1487.35C1531.4 1488.25 1532.31 1489.35 1533.01 1490.66C1533.72 1491.96 1534.18 1493.46 1534.38 1495.15ZM1543.25 1514.05H1536.66L1546.71 1484.96H1554.63L1564.66 1514.05H1558.07L1550.78 1491.61H1550.55L1543.25 1514.05ZM1542.84 1502.62H1558.41V1507.42H1542.84V1502.62Z" fill="white"/>
<path d="M2473.82 1312.37C2473.62 1311.67 2473.34 1311.06 2472.98 1310.53C2472.62 1309.99 2472.18 1309.54 2471.66 1309.17C2471.15 1308.79 2470.56 1308.5 2469.9 1308.3C2469.24 1308.1 2468.52 1308 2467.72 1308C2466.24 1308 2464.93 1308.37 2463.8 1309.11C2462.69 1309.85 2461.82 1310.93 2461.19 1312.34C2460.57 1313.74 2460.25 1315.45 2460.25 1317.48C2460.25 1319.51 2460.56 1321.23 2461.18 1322.65C2461.79 1324.07 2462.66 1325.15 2463.79 1325.9C2464.92 1326.64 2466.25 1327.01 2467.78 1327.01C2469.17 1327.01 2470.36 1326.76 2471.35 1326.27C2472.34 1325.77 2473.1 1325.06 2473.62 1324.16C2474.15 1323.25 2474.41 1322.17 2474.41 1320.93L2475.66 1321.12H2468.16V1316.48H2480.34V1320.15C2480.34 1322.71 2479.8 1324.9 2478.72 1326.74C2477.64 1328.57 2476.15 1329.98 2474.26 1330.97C2472.36 1331.96 2470.2 1332.45 2467.75 1332.45C2465.03 1332.45 2462.63 1331.85 2460.57 1330.65C2458.5 1329.43 2456.89 1327.72 2455.74 1325.49C2454.59 1323.26 2454.02 1320.6 2454.02 1317.54C2454.02 1315.18 2454.36 1313.08 2455.04 1311.23C2455.73 1309.37 2456.7 1307.8 2457.94 1306.51C2459.18 1305.23 2460.62 1304.24 2462.27 1303.57C2463.92 1302.9 2465.7 1302.56 2467.62 1302.56C2469.27 1302.56 2470.81 1302.81 2472.23 1303.29C2473.65 1303.76 2474.91 1304.43 2476.01 1305.31C2477.11 1306.18 2478.02 1307.21 2478.72 1308.42C2479.42 1309.61 2479.87 1310.93 2480.07 1312.37H2473.82ZM2489.07 1332.05H2482.48L2492.53 1302.96H2500.45L2510.48 1332.05H2503.89L2496.6 1309.61H2496.38L2489.07 1332.05ZM2488.66 1320.62H2504.23V1325.42H2488.66V1320.62ZM2513.98 1332.05V1302.96H2520.13V1326.98H2532.6V1332.05H2513.98ZM2536.68 1332.05V1302.96H2556.28V1308.03H2542.83V1314.96H2555.27V1320.04H2542.83V1326.98H2556.34V1332.05H2536.68ZM2561.17 1332.05V1302.96H2572.65C2574.84 1302.96 2576.72 1303.35 2578.27 1304.14C2579.83 1304.92 2581.02 1306.02 2581.84 1307.45C2582.66 1308.87 2583.07 1310.54 2583.07 1312.46C2583.07 1314.4 2582.66 1316.06 2581.82 1317.45C2580.99 1318.83 2579.78 1319.89 2578.2 1320.63C2576.63 1321.37 2574.72 1321.74 2572.49 1321.74H2564.81V1316.8H2571.5C2572.67 1316.8 2573.65 1316.64 2574.42 1316.31C2575.2 1315.99 2575.78 1315.51 2576.15 1314.87C2576.54 1314.22 2576.74 1313.42 2576.74 1312.46C2576.74 1311.5 2576.54 1310.68 2576.15 1310.02C2575.78 1309.36 2575.19 1308.86 2574.41 1308.52C2573.63 1308.17 2572.65 1307.99 2571.47 1307.99H2567.32V1332.05H2561.17ZM2576.88 1318.81L2584.11 1332.05H2577.32L2570.25 1318.81H2576.88ZM2593.57 1302.96V1332.05H2587.42V1302.96H2593.57ZM2603.64 1332.05H2597.05L2607.1 1302.96H2615.02L2625.05 1332.05H2618.46L2611.17 1309.61H2610.95L2603.64 1332.05ZM2603.23 1320.62H2618.8V1325.42H2603.23V1320.62Z" fill="white"/>
<path d="M2105.31 1666.33C2105.2 1665.18 2104.71 1664.29 2103.85 1663.66C2102.98 1663.02 2101.82 1662.71 2100.34 1662.71C2099.33 1662.71 2098.49 1662.85 2097.8 1663.13C2097.1 1663.41 2096.57 1663.79 2096.2 1664.28C2095.84 1664.78 2095.66 1665.33 2095.66 1665.96C2095.65 1666.48 2095.75 1666.93 2095.99 1667.32C2096.24 1667.71 2096.57 1668.05 2097 1668.33C2097.43 1668.61 2097.92 1668.85 2098.48 1669.06C2099.04 1669.25 2099.63 1669.42 2100.27 1669.57L2102.88 1670.19C2104.15 1670.48 2105.31 1670.85 2106.38 1671.33C2107.44 1671.8 2108.35 1672.38 2109.13 1673.08C2109.91 1673.77 2110.51 1674.58 2110.93 1675.52C2111.37 1676.46 2111.59 1677.53 2111.6 1678.74C2111.59 1680.52 2111.14 1682.07 2110.24 1683.37C2109.35 1684.67 2108.06 1685.68 2106.38 1686.4C2104.7 1687.11 2102.68 1687.46 2100.31 1687.46C2097.96 1687.46 2095.92 1687.1 2094.17 1686.39C2092.44 1685.67 2091.09 1684.6 2090.11 1683.19C2089.14 1681.77 2088.64 1680.01 2088.59 1677.92H2094.54C2094.61 1678.89 2094.89 1679.71 2095.38 1680.36C2095.88 1681.01 2096.55 1681.49 2097.38 1681.83C2098.23 1682.15 2099.18 1682.31 2100.24 1682.31C2101.28 1682.31 2102.18 1682.16 2102.95 1681.85C2103.73 1681.55 2104.33 1681.13 2104.76 1680.59C2105.18 1680.05 2105.39 1679.43 2105.39 1678.73C2105.39 1678.08 2105.2 1677.53 2104.81 1677.08C2104.43 1676.64 2103.88 1676.26 2103.14 1675.94C2102.41 1675.63 2101.51 1675.35 2100.45 1675.09L2097.28 1674.3C2094.83 1673.7 2092.89 1672.77 2091.47 1671.5C2090.05 1670.23 2089.35 1668.52 2089.36 1666.37C2089.35 1664.61 2089.82 1663.07 2090.76 1661.75C2091.72 1660.44 2093.03 1659.41 2094.7 1658.67C2096.37 1657.93 2098.26 1657.56 2100.38 1657.56C2102.54 1657.56 2104.42 1657.93 2106.03 1658.67C2107.65 1659.41 2108.91 1660.44 2109.81 1661.75C2110.71 1663.07 2111.18 1664.6 2111.2 1666.33H2105.31ZM2120.09 1687.05H2113.5L2123.54 1657.96H2131.47L2141.5 1687.05H2134.9L2127.62 1664.61H2127.39L2120.09 1687.05ZM2119.68 1675.62H2135.25V1680.42H2119.68V1675.62ZM2162.92 1667.37C2162.72 1666.67 2162.44 1666.06 2162.08 1665.53C2161.72 1664.99 2161.28 1664.54 2160.76 1664.17C2160.25 1663.79 2159.66 1663.5 2159 1663.3C2158.35 1663.1 2157.62 1663 2156.83 1663C2155.34 1663 2154.03 1663.37 2152.91 1664.11C2151.79 1664.85 2150.92 1665.93 2150.29 1667.34C2149.67 1668.74 2149.35 1670.45 2149.35 1672.48C2149.35 1674.51 2149.66 1676.23 2150.28 1677.65C2150.89 1679.07 2151.76 1680.15 2152.89 1680.9C2154.02 1681.64 2155.35 1682.01 2156.88 1682.01C2158.27 1682.01 2159.46 1681.76 2160.45 1681.27C2161.44 1680.77 2162.2 1680.06 2162.72 1679.16C2163.25 1678.25 2163.52 1677.17 2163.52 1675.93L2164.77 1676.12H2157.27V1671.48H2169.44V1675.15C2169.44 1677.71 2168.9 1679.9 2167.82 1681.74C2166.74 1683.57 2165.25 1684.98 2163.36 1685.97C2161.47 1686.96 2159.3 1687.45 2156.85 1687.45C2154.13 1687.45 2151.73 1686.85 2149.67 1685.65C2147.6 1684.43 2145.99 1682.72 2144.84 1680.49C2143.69 1678.26 2143.12 1675.6 2143.12 1672.54C2143.12 1670.18 2143.46 1668.08 2144.14 1666.23C2144.83 1664.37 2145.8 1662.8 2147.04 1661.51C2148.28 1660.23 2149.72 1659.24 2151.37 1658.57C2153.02 1657.9 2154.8 1657.56 2156.73 1657.56C2158.37 1657.56 2159.91 1657.81 2161.33 1658.29C2162.75 1658.76 2164.01 1659.43 2165.11 1660.31C2166.22 1661.18 2167.12 1662.21 2167.82 1663.42C2168.52 1664.61 2168.97 1665.93 2169.17 1667.37H2162.92ZM2192.03 1657.96H2198.18V1676.85C2198.18 1678.98 2197.67 1680.83 2196.66 1682.42C2195.66 1684.01 2194.25 1685.25 2192.44 1686.14C2190.63 1687.02 2188.52 1687.46 2186.12 1687.46C2183.7 1687.46 2181.59 1687.02 2179.78 1686.14C2177.98 1685.25 2176.57 1684.01 2175.57 1682.42C2174.56 1680.83 2174.06 1678.98 2174.06 1676.85V1657.96H2180.21V1676.33C2180.21 1677.44 2180.45 1678.42 2180.93 1679.28C2181.43 1680.14 2182.12 1680.82 2183.01 1681.31C2183.9 1681.81 2184.94 1682.05 2186.12 1682.05C2187.31 1682.05 2188.35 1681.81 2189.23 1681.31C2190.12 1680.82 2190.81 1680.14 2191.29 1679.28C2191.78 1678.42 2192.03 1677.44 2192.03 1676.33V1657.96ZM2208.25 1687.05H2201.66L2211.71 1657.96H2219.63L2229.66 1687.05H2223.07L2215.78 1664.61H2215.55L2208.25 1687.05ZM2207.84 1675.62H2223.41V1680.42H2207.84V1675.62ZM2211.59 1655.09L2208.24 1655.05C2208.24 1653.24 2208.68 1651.85 2209.57 1650.89C2210.46 1649.92 2211.56 1649.43 2212.86 1649.42C2213.52 1649.42 2214.09 1649.53 2214.56 1649.75C2215.03 1649.96 2215.46 1650.21 2215.85 1650.49C2216.24 1650.77 2216.61 1651.03 2216.96 1651.24C2217.31 1651.45 2217.69 1651.56 2218.1 1651.56C2218.65 1651.55 2219.06 1651.34 2219.35 1650.94C2219.64 1650.54 2219.79 1650.01 2219.79 1649.35L2223.1 1649.45C2223.08 1651.24 2222.62 1652.63 2221.73 1653.6C2220.84 1654.57 2219.75 1655.05 2218.47 1655.06C2217.77 1655.07 2217.17 1654.97 2216.69 1654.75C2216.22 1654.53 2215.8 1654.29 2215.44 1654.01C2215.08 1653.73 2214.73 1653.48 2214.39 1653.26C2214.05 1653.04 2213.67 1652.93 2213.24 1652.93C2212.75 1652.93 2212.35 1653.13 2212.05 1653.52C2211.74 1653.9 2211.59 1654.43 2211.59 1655.09ZM2258.53 1672.51C2258.53 1675.68 2257.93 1678.38 2256.72 1680.6C2255.53 1682.83 2253.9 1684.53 2251.84 1685.7C2249.78 1686.87 2247.47 1687.45 2244.9 1687.45C2242.32 1687.45 2240 1686.86 2237.94 1685.69C2235.89 1684.51 2234.27 1682.82 2233.07 1680.59C2231.88 1678.36 2231.28 1675.67 2231.28 1672.51C2231.28 1669.33 2231.88 1666.64 2233.07 1664.41C2234.27 1662.19 2235.89 1660.49 2237.94 1659.33C2240 1658.15 2242.32 1657.56 2244.9 1657.56C2247.47 1657.56 2249.78 1658.15 2251.84 1659.33C2253.9 1660.49 2255.53 1662.19 2256.72 1664.41C2257.93 1666.64 2258.53 1669.33 2258.53 1672.51ZM2252.29 1672.51C2252.29 1670.45 2251.98 1668.72 2251.37 1667.31C2250.76 1665.9 2249.9 1664.83 2248.8 1664.1C2247.69 1663.37 2246.39 1663 2244.9 1663C2243.42 1663 2242.12 1663.37 2241.01 1664.1C2239.9 1664.83 2239.04 1665.9 2238.43 1667.31C2237.82 1668.72 2237.52 1670.45 2237.52 1672.51C2237.52 1674.56 2237.82 1676.3 2238.43 1677.71C2239.04 1679.12 2239.9 1680.19 2241.01 1680.92C2242.12 1681.65 2243.42 1682.01 2244.9 1682.01C2246.39 1682.01 2247.69 1681.65 2248.8 1680.92C2249.9 1680.19 2250.76 1679.12 2251.37 1677.71C2251.98 1676.3 2252.29 1674.56 2252.29 1672.51Z" fill="white"/>
<path d="M1771.18 1054.96H1777.26V1075.25C1777.26 1077.12 1776.83 1078.75 1775.99 1080.13C1775.16 1081.51 1774 1082.58 1772.51 1083.33C1771.02 1084.08 1769.3 1084.45 1767.33 1084.45C1765.57 1084.45 1763.98 1084.14 1762.55 1083.53C1761.13 1082.9 1760.01 1081.96 1759.17 1080.69C1758.34 1079.41 1757.93 1077.8 1757.94 1075.87H1764.06C1764.08 1076.64 1764.23 1077.3 1764.53 1077.85C1764.83 1078.39 1765.24 1078.8 1765.76 1079.1C1766.29 1079.38 1766.92 1079.52 1767.64 1079.52C1768.4 1079.52 1769.04 1079.36 1769.56 1079.04C1770.09 1078.71 1770.49 1078.22 1770.76 1077.59C1771.04 1076.96 1771.18 1076.17 1771.18 1075.25V1054.96ZM1787.36 1084.05H1780.76L1790.81 1054.96H1798.73L1808.76 1084.05H1802.17L1794.88 1061.61H1794.66L1787.36 1084.05ZM1786.94 1072.62H1802.51V1077.42H1786.94V1072.62ZM1812.26 1084.05V1054.96H1823.74C1825.94 1054.96 1827.81 1055.35 1829.37 1056.14C1830.93 1056.92 1832.12 1058.02 1832.93 1059.45C1833.75 1060.87 1834.17 1062.54 1834.17 1064.46C1834.17 1066.4 1833.75 1068.06 1832.92 1069.45C1832.08 1070.83 1830.88 1071.89 1829.29 1072.63C1827.72 1073.37 1825.82 1073.74 1823.58 1073.74H1815.9V1068.8H1822.59C1823.76 1068.8 1824.74 1068.64 1825.52 1068.31C1826.29 1067.99 1826.87 1067.51 1827.25 1066.87C1827.64 1066.22 1827.83 1065.42 1827.83 1064.46C1827.83 1063.5 1827.64 1062.68 1827.25 1062.02C1826.87 1061.36 1826.29 1060.86 1825.5 1060.52C1824.72 1060.17 1823.74 1059.99 1822.56 1059.99H1818.41V1084.05H1812.26ZM1827.97 1070.81L1835.2 1084.05H1828.41L1821.34 1070.81H1827.97ZM1848.83 1084.05H1838.51V1054.96H1848.91C1851.84 1054.96 1854.36 1055.54 1856.47 1056.71C1858.58 1057.86 1860.2 1059.53 1861.34 1061.69C1862.49 1063.86 1863.06 1066.46 1863.06 1069.48C1863.06 1072.51 1862.49 1075.11 1861.34 1077.29C1860.2 1079.47 1858.57 1081.14 1856.44 1082.31C1854.32 1083.47 1851.78 1084.05 1848.83 1084.05ZM1844.66 1078.78H1848.57C1850.39 1078.78 1851.92 1078.46 1853.16 1077.82C1854.41 1077.16 1855.35 1076.16 1855.97 1074.79C1856.6 1073.42 1856.92 1071.65 1856.92 1069.48C1856.92 1067.33 1856.6 1065.57 1855.97 1064.21C1855.35 1062.85 1854.41 1061.84 1853.17 1061.2C1851.93 1060.55 1850.4 1060.23 1848.58 1060.23H1844.66V1078.78ZM1873.76 1054.96V1084.05H1867.61V1054.96H1873.76ZM1878.83 1054.96H1886.41L1894.42 1074.51H1894.76L1902.77 1054.96H1910.36V1084.05H1904.39V1065.12H1904.15L1896.62 1083.91H1892.56L1885.03 1065.05H1884.79V1084.05H1878.83V1054.96ZM1935 1084.05H1924.68V1054.96H1935.08C1938.01 1054.96 1940.53 1055.54 1942.64 1056.71C1944.75 1057.86 1946.38 1059.53 1947.51 1061.69C1948.66 1063.86 1949.23 1066.46 1949.23 1069.48C1949.23 1072.51 1948.66 1075.11 1947.51 1077.29C1946.38 1079.47 1944.74 1081.14 1942.61 1082.31C1940.49 1083.47 1937.95 1084.05 1935 1084.05ZM1930.84 1078.78H1934.74C1936.56 1078.78 1938.09 1078.46 1939.33 1077.82C1940.58 1077.16 1941.52 1076.16 1942.14 1074.79C1942.78 1073.42 1943.09 1071.65 1943.09 1069.48C1943.09 1067.33 1942.78 1065.57 1942.14 1064.21C1941.52 1062.85 1940.58 1061.84 1939.34 1061.2C1938.1 1060.55 1936.57 1060.23 1934.76 1060.23H1930.84V1078.78ZM1957.16 1084.05H1950.57L1960.61 1054.96H1968.54L1978.57 1084.05H1971.98L1964.69 1061.61H1964.46L1957.16 1084.05ZM1956.75 1072.62H1972.32V1077.42H1956.75V1072.62ZM1991.33 1084.05V1054.96H2010.93V1060.03H1997.48V1066.96H2009.92V1072.04H1997.48V1078.98H2010.98V1084.05H1991.33ZM2040.15 1054.96V1084.05H2034.84L2022.18 1065.74H2021.97V1084.05H2015.82V1054.96H2021.22L2033.77 1073.26H2034.03V1054.96H2040.15ZM2044.12 1060.03V1054.96H2068.02V1060.03H2059.11V1084.05H2053.03V1060.03H2044.12ZM2071.95 1084.05V1054.96H2083.43C2085.62 1054.96 2087.5 1055.35 2089.05 1056.14C2090.62 1056.92 2091.8 1058.02 2092.62 1059.45C2093.44 1060.87 2093.85 1062.54 2093.85 1064.46C2093.85 1066.4 2093.44 1068.06 2092.6 1069.45C2091.77 1070.83 2090.56 1071.89 2088.98 1072.63C2087.41 1073.37 2085.51 1073.74 2083.27 1073.74H2075.59V1068.8H2082.28C2083.45 1068.8 2084.43 1068.64 2085.2 1068.31C2085.98 1067.99 2086.56 1067.51 2086.94 1066.87C2087.32 1066.22 2087.52 1065.42 2087.52 1064.46C2087.52 1063.5 2087.32 1062.68 2086.94 1062.02C2086.56 1061.36 2085.97 1060.86 2085.19 1060.52C2084.41 1060.17 2083.43 1059.99 2082.25 1059.99H2078.1V1084.05H2071.95ZM2087.66 1070.81L2094.89 1084.05H2088.1L2081.03 1070.81H2087.66ZM2103.21 1084.05H2096.62L2106.67 1054.96H2114.59L2124.62 1084.05H2118.03L2110.74 1061.61H2110.52L2103.21 1084.05ZM2102.8 1072.62H2118.37V1077.42H2102.8V1072.62ZM2138.43 1084.05H2128.12V1054.96H2138.52C2141.45 1054.96 2143.96 1055.54 2146.08 1056.71C2148.19 1057.86 2149.81 1059.53 2150.95 1061.69C2152.09 1063.86 2152.67 1066.46 2152.67 1069.48C2152.67 1072.51 2152.09 1075.11 2150.95 1077.29C2149.81 1079.47 2148.18 1081.14 2146.05 1082.31C2143.93 1083.47 2141.39 1084.05 2138.43 1084.05ZM2134.27 1078.78H2138.18C2140 1078.78 2141.53 1078.46 2142.77 1077.82C2144.02 1077.16 2144.95 1076.16 2145.58 1074.79C2146.21 1073.42 2146.53 1071.65 2146.53 1069.48C2146.53 1067.33 2146.21 1065.57 2145.58 1064.21C2144.95 1062.85 2144.02 1061.84 2142.78 1061.2C2141.54 1060.55 2140.01 1060.23 2138.19 1060.23H2134.27V1078.78ZM2160.6 1084.05H2154.01L2164.05 1054.96H2171.98L2182 1084.05H2175.41L2168.13 1061.61H2167.9L2160.6 1084.05ZM2160.19 1072.62H2175.75V1077.42H2160.19V1072.62Z" fill="white"/>
<path d="M2974.18 1551.96H2980.26V1572.25C2980.26 1574.12 2979.83 1575.75 2978.99 1577.13C2978.16 1578.51 2977 1579.58 2975.51 1580.33C2974.02 1581.08 2972.3 1581.45 2970.33 1581.45C2968.57 1581.45 2966.98 1581.14 2965.55 1580.53C2964.13 1579.9 2963.01 1578.96 2962.17 1577.69C2961.34 1576.41 2960.93 1574.8 2960.94 1572.87H2967.06C2967.08 1573.64 2967.23 1574.3 2967.53 1574.85C2967.83 1575.39 2968.24 1575.8 2968.76 1576.1C2969.29 1576.38 2969.92 1576.52 2970.64 1576.52C2971.4 1576.52 2972.04 1576.36 2972.56 1576.04C2973.09 1575.71 2973.49 1575.22 2973.76 1574.59C2974.04 1573.96 2974.18 1573.17 2974.18 1572.25V1551.96ZM2990.36 1581.05H2983.76L2993.81 1551.96H3001.73L3011.76 1581.05H3005.17L2997.88 1558.61H2997.66L2990.36 1581.05ZM2989.94 1569.62H3005.51V1574.42H2989.94V1569.62ZM3015.26 1581.05V1551.96H3026.74C3028.94 1551.96 3030.81 1552.35 3032.37 1553.14C3033.93 1553.92 3035.12 1555.02 3035.93 1556.45C3036.75 1557.87 3037.17 1559.54 3037.17 1561.46C3037.17 1563.4 3036.75 1565.06 3035.92 1566.45C3035.08 1567.83 3033.88 1568.89 3032.29 1569.63C3030.72 1570.37 3028.82 1570.74 3026.58 1570.74H3018.9V1565.8H3025.59C3026.76 1565.8 3027.74 1565.64 3028.52 1565.31C3029.29 1564.99 3029.87 1564.51 3030.25 1563.87C3030.64 1563.22 3030.83 1562.42 3030.83 1561.46C3030.83 1560.5 3030.64 1559.68 3030.25 1559.02C3029.87 1558.36 3029.29 1557.86 3028.5 1557.52C3027.72 1557.17 3026.74 1556.99 3025.56 1556.99H3021.41V1581.05H3015.26ZM3030.97 1567.81L3038.2 1581.05H3031.41L3024.34 1567.81H3030.97ZM3051.83 1581.05H3041.51V1551.96H3051.91C3054.84 1551.96 3057.36 1552.54 3059.47 1553.71C3061.58 1554.86 3063.2 1556.53 3064.34 1558.69C3065.49 1560.86 3066.06 1563.46 3066.06 1566.48C3066.06 1569.51 3065.49 1572.11 3064.34 1574.29C3063.2 1576.47 3061.57 1578.14 3059.44 1579.31C3057.32 1580.47 3054.78 1581.05 3051.83 1581.05ZM3047.66 1575.78H3051.57C3053.39 1575.78 3054.92 1575.46 3056.16 1574.82C3057.41 1574.16 3058.35 1573.16 3058.97 1571.79C3059.6 1570.42 3059.92 1568.65 3059.92 1566.48C3059.92 1564.33 3059.6 1562.57 3058.97 1561.21C3058.35 1559.85 3057.41 1558.84 3056.17 1558.2C3054.93 1557.55 3053.4 1557.23 3051.58 1557.23H3047.66V1575.78ZM3076.76 1551.96V1581.05H3070.61V1551.96H3076.76ZM3081.83 1551.96H3089.41L3097.42 1571.51H3097.76L3105.77 1551.96H3113.36V1581.05H3107.39V1562.12H3107.15L3099.62 1580.91H3095.56L3088.03 1562.05H3087.79V1581.05H3081.83V1551.96ZM3133.84 1551.96V1581.05H3127.68V1551.96H3133.84ZM3163.23 1551.96V1581.05H3157.92L3145.26 1562.74H3145.05V1581.05H3138.9V1551.96H3144.29L3156.85 1570.26H3157.11V1551.96H3163.23ZM3167.2 1557.03V1551.96H3191.09V1557.03H3182.19V1581.05H3176.11V1557.03H3167.2ZM3195.03 1581.05V1551.96H3214.63V1557.03H3201.18V1563.96H3213.62V1569.04H3201.18V1575.98H3214.69V1581.05H3195.03ZM3219.52 1581.05V1551.96H3231C3233.19 1551.96 3235.07 1552.35 3236.62 1553.14C3238.19 1553.92 3239.37 1555.02 3240.19 1556.45C3241.01 1557.87 3241.42 1559.54 3241.42 1561.46C3241.42 1563.4 3241.01 1565.06 3240.17 1566.45C3239.34 1567.83 3238.13 1568.89 3236.55 1569.63C3234.98 1570.37 3233.08 1570.74 3230.84 1570.74H3223.16V1565.8H3229.85C3231.02 1565.8 3232 1565.64 3232.77 1565.31C3233.55 1564.99 3234.13 1564.51 3234.51 1563.87C3234.89 1563.22 3235.09 1562.42 3235.09 1561.46C3235.09 1560.5 3234.89 1559.68 3234.51 1559.02C3234.13 1558.36 3233.55 1557.86 3232.76 1557.52C3231.98 1557.17 3231 1556.99 3229.82 1556.99H3225.67V1581.05H3219.52ZM3235.23 1567.81L3242.46 1581.05H3235.67L3228.6 1567.81H3235.23ZM3270.1 1551.96V1581.05H3264.79L3252.13 1562.74H3251.92V1581.05H3245.77V1551.96H3251.17L3263.73 1570.26H3263.98V1551.96H3270.1ZM3301.92 1566.51C3301.92 1569.68 3301.32 1572.38 3300.11 1574.6C3298.92 1576.83 3297.29 1578.53 3295.23 1579.7C3293.17 1580.87 3290.86 1581.45 3288.3 1581.45C3285.71 1581.45 3283.39 1580.86 3281.34 1579.69C3279.28 1578.51 3277.66 1576.82 3276.46 1574.59C3275.27 1572.36 3274.67 1569.67 3274.67 1566.51C3274.67 1563.33 3275.27 1560.64 3276.46 1558.41C3277.66 1556.19 3279.28 1554.49 3281.34 1553.33C3283.39 1552.15 3285.71 1551.56 3288.3 1551.56C3290.86 1551.56 3293.17 1552.15 3295.23 1553.33C3297.29 1554.49 3298.92 1556.19 3300.11 1558.41C3301.32 1560.64 3301.92 1563.33 3301.92 1566.51ZM3295.68 1566.51C3295.68 1564.45 3295.37 1562.72 3294.76 1561.31C3294.15 1559.9 3293.3 1558.83 3292.19 1558.1C3291.08 1557.37 3289.78 1557 3288.3 1557C3286.81 1557 3285.51 1557.37 3284.4 1558.1C3283.3 1558.83 3282.43 1559.9 3281.82 1561.31C3281.21 1562.72 3280.91 1564.45 3280.91 1566.51C3280.91 1568.56 3281.21 1570.3 3281.82 1571.71C3282.43 1573.12 3283.3 1574.19 3284.4 1574.92C3285.51 1575.65 3286.81 1576.01 3288.3 1576.01C3289.78 1576.01 3291.08 1575.65 3292.19 1574.92C3293.3 1574.19 3294.15 1573.12 3294.76 1571.71C3295.37 1570.3 3295.68 1568.56 3295.68 1566.51Z" fill="white"/>
<path d="M3494.54 1459.05H3487.95L3497.99 1429.96H3505.92L3515.95 1459.05H3509.36L3502.07 1436.61H3501.84L3494.54 1459.05ZM3494.13 1447.62H3509.7V1452.42H3494.13V1447.62ZM3514.79 1435.03V1429.96H3538.68V1435.03H3529.77V1459.05H3523.69V1435.03H3514.79ZM3542.61 1459.05V1429.96H3562.22V1435.03H3548.76V1441.96H3561.21V1447.04H3548.76V1453.98H3562.27V1459.05H3542.61ZM3567.11 1459.05V1429.96H3573.26V1453.98H3585.73V1459.05H3567.11ZM3595.95 1429.96V1459.05H3589.8V1429.96H3595.95ZM3601.01 1459.05V1429.96H3620.62V1435.03H3607.16V1441.96H3619.61V1447.04H3607.16V1453.98H3620.67V1459.05H3601.01ZM3613.71 1427.35L3610.86 1423.88L3608 1427.35H3602.85V1427.15L3608.6 1420.9H3613.1L3618.87 1427.15V1427.35H3613.71ZM3641.29 1438.33C3641.17 1437.18 3640.68 1436.29 3639.82 1435.66C3638.96 1435.02 3637.79 1434.71 3636.31 1434.71C3635.31 1434.71 3634.46 1434.85 3633.77 1435.13C3633.08 1435.41 3632.55 1435.79 3632.18 1436.28C3631.82 1436.78 3631.64 1437.33 3631.64 1437.96C3631.62 1438.48 3631.73 1438.93 3631.97 1439.32C3632.21 1439.71 3632.55 1440.05 3632.98 1440.33C3633.4 1440.61 3633.9 1440.85 3634.45 1441.06C3635.01 1441.25 3635.61 1441.42 3636.24 1441.57L3638.86 1442.19C3640.13 1442.48 3641.29 1442.85 3642.35 1443.33C3643.41 1443.8 3644.33 1444.38 3645.11 1445.08C3645.88 1445.77 3646.49 1446.58 3646.91 1447.52C3647.35 1448.46 3647.57 1449.53 3647.58 1450.74C3647.57 1452.52 3647.11 1454.07 3646.22 1455.37C3645.33 1456.67 3644.04 1457.68 3642.35 1458.4C3640.68 1459.11 3638.65 1459.46 3636.29 1459.46C3633.94 1459.46 3631.89 1459.1 3630.15 1458.39C3628.42 1457.67 3627.06 1456.6 3626.09 1455.19C3625.12 1453.77 3624.61 1452.01 3624.57 1449.92H3630.52C3630.59 1450.89 3630.86 1451.71 3631.36 1452.36C3631.86 1453.01 3632.53 1453.49 3633.36 1453.83C3634.2 1454.15 3635.15 1454.31 3636.22 1454.31C3637.26 1454.31 3638.16 1454.16 3638.93 1453.85C3639.7 1453.55 3640.31 1453.13 3640.73 1452.59C3641.16 1452.05 3641.37 1451.43 3641.37 1450.73C3641.37 1450.08 3641.18 1449.53 3640.79 1449.08C3640.41 1448.64 3639.85 1448.26 3639.11 1447.94C3638.38 1447.63 3637.49 1447.35 3636.43 1447.09L3633.26 1446.3C3630.81 1445.7 3628.87 1444.77 3627.45 1443.5C3626.03 1442.23 3625.33 1440.52 3625.33 1438.37C3625.33 1436.61 3625.79 1435.07 3626.74 1433.75C3627.7 1432.44 3629.01 1431.41 3630.68 1430.67C3632.34 1429.93 3634.24 1429.56 3636.36 1429.56C3638.52 1429.56 3640.4 1429.93 3642.01 1430.67C3643.63 1431.41 3644.89 1432.44 3645.79 1433.75C3646.69 1435.07 3647.15 1436.6 3647.18 1438.33H3641.29Z" fill="white"/>
<path d="M3232.53 978.053V948.962H3244.01C3246.2 948.962 3248.08 949.355 3249.63 950.141C3251.19 950.917 3252.38 952.021 3253.2 953.45C3254.02 954.871 3254.43 956.542 3254.43 958.465C3254.43 960.396 3254.02 962.058 3253.18 963.45C3252.35 964.833 3251.14 965.894 3249.56 966.632C3247.99 967.371 3246.08 967.74 3243.85 967.74H3236.16V962.797H3242.86C3244.03 962.797 3245 962.636 3245.78 962.314C3246.56 961.992 3247.14 961.509 3247.51 960.865C3247.9 960.221 3248.1 959.421 3248.1 958.465C3248.1 957.499 3247.9 956.684 3247.51 956.021C3247.14 955.359 3246.55 954.857 3245.77 954.516C3244.99 954.165 3244.01 953.99 3242.83 953.99H3238.68V978.053H3232.53ZM3248.24 964.814L3255.47 978.053H3248.68L3241.61 964.814H3248.24ZM3258.78 978.053V948.962H3278.38V954.033H3264.93V960.965H3277.37V966.036H3264.93V972.982H3278.44V978.053H3258.78ZM3299.05 957.328C3298.94 956.182 3298.45 955.292 3297.59 954.658C3296.73 954.023 3295.56 953.706 3294.08 953.706C3293.08 953.706 3292.23 953.848 3291.54 954.132C3290.85 954.407 3290.32 954.79 3289.95 955.283C3289.59 955.775 3289.41 956.334 3289.41 956.959C3289.39 957.48 3289.5 957.934 3289.73 958.323C3289.98 958.711 3290.32 959.047 3290.74 959.331C3291.17 959.606 3291.66 959.847 3292.22 960.056C3292.78 960.254 3293.37 960.425 3294.01 960.567L3296.62 961.192C3297.89 961.476 3299.06 961.855 3300.12 962.328C3301.18 962.802 3302.1 963.384 3302.87 964.075C3303.65 964.767 3304.25 965.581 3304.68 966.519C3305.11 967.456 3305.33 968.531 3305.34 969.743C3305.33 971.523 3304.88 973.067 3303.98 974.374C3303.09 975.671 3301.8 976.68 3300.12 977.399C3298.44 978.11 3296.42 978.465 3294.05 978.465C3291.7 978.465 3289.66 978.105 3287.92 977.385C3286.18 976.665 3284.83 975.6 3283.85 974.189C3282.89 972.769 3282.38 971.012 3282.33 968.919H3288.28C3288.35 969.895 3288.63 970.709 3289.12 971.362C3289.62 972.006 3290.29 972.494 3291.13 972.825C3291.97 973.147 3292.92 973.308 3293.98 973.308C3295.02 973.308 3295.93 973.157 3296.69 972.854C3297.47 972.551 3298.07 972.129 3298.5 971.59C3298.92 971.05 3299.14 970.43 3299.14 969.729C3299.14 969.075 3298.94 968.526 3298.55 968.081C3298.18 967.636 3297.62 967.257 3296.88 966.945C3296.15 966.632 3295.25 966.348 3294.19 966.093L3291.03 965.297C3288.57 964.7 3286.64 963.768 3285.22 962.499C3283.8 961.23 3283.09 959.521 3283.1 957.371C3283.09 955.61 3283.56 954.071 3284.51 952.754C3285.46 951.438 3286.77 950.411 3288.44 949.672C3290.11 948.933 3292 948.564 3294.12 948.564C3296.28 948.564 3298.17 948.933 3299.78 949.672C3301.4 950.411 3302.66 951.438 3303.55 952.754C3304.45 954.071 3304.92 955.595 3304.95 957.328H3299.05ZM3308.37 954.033V948.962H3332.27V954.033H3323.36V978.053H3317.28V954.033H3308.37ZM3337.66 978.053H3331.07L3341.11 948.962H3349.04L3359.07 978.053H3352.48L3345.19 955.61H3344.96L3337.66 978.053ZM3337.25 966.618H3352.82V971.419H3337.25V966.618ZM3380.54 948.962H3386.69V967.854C3386.69 969.975 3386.18 971.831 3385.17 973.422C3384.16 975.013 3382.76 976.253 3380.95 977.144C3379.14 978.024 3377.03 978.465 3374.63 978.465C3372.21 978.465 3370.1 978.024 3368.29 977.144C3366.48 976.253 3365.08 975.013 3364.07 973.422C3363.07 971.831 3362.57 969.975 3362.57 967.854V948.962H3368.72V967.328C3368.72 968.436 3368.96 969.421 3369.44 970.283C3369.93 971.145 3370.63 971.822 3371.52 972.314C3372.41 972.807 3373.44 973.053 3374.63 973.053C3375.82 973.053 3376.86 972.807 3377.74 972.314C3378.63 971.822 3379.31 971.145 3379.8 970.283C3380.29 969.421 3380.54 968.436 3380.54 967.328V948.962ZM3391.75 978.053V948.962H3403.22C3405.42 948.962 3407.3 949.355 3408.85 950.141C3410.41 950.917 3411.6 952.021 3412.41 953.45C3413.24 954.871 3413.65 956.542 3413.65 958.465C3413.65 960.396 3413.23 962.058 3412.4 963.45C3411.57 964.833 3410.36 965.894 3408.78 966.632C3407.21 967.371 3405.3 967.74 3403.07 967.74H3395.38V962.797H3402.07C3403.25 962.797 3404.22 962.636 3405 962.314C3405.78 961.992 3406.35 961.509 3406.73 960.865C3407.12 960.221 3407.32 959.421 3407.32 958.465C3407.32 957.499 3407.12 956.684 3406.73 956.021C3406.35 955.359 3405.77 954.857 3404.99 954.516C3404.21 954.165 3403.23 953.99 3402.05 953.99H3397.9V978.053H3391.75ZM3407.46 964.814L3414.69 978.053H3407.9L3400.82 964.814H3407.46ZM3423.01 978.053H3416.42L3426.46 948.962H3434.39L3444.42 978.053H3437.83L3430.54 955.61H3430.31L3423.01 978.053ZM3422.6 966.618H3438.17V971.419H3422.6V966.618ZM3472.25 948.962V978.053H3466.94L3454.28 959.743H3454.07V978.053H3447.92V948.962H3453.32L3465.87 967.257H3466.13V948.962H3472.25ZM3476.23 954.033V948.962H3500.12V954.033H3491.21V978.053H3485.13V954.033H3476.23ZM3504.05 978.053V948.962H3523.65V954.033H3510.2V960.965H3522.65V966.036H3510.2V972.982H3523.71V978.053H3504.05Z" fill="white"/>
<path d="M4443.96 1393.22L4205.99 1254.95L4790.19 758.743L5028.15 897.007L4443.96 1393.22Z" fill="#B8732E"/>
<path d="M4734.8 1562.21L4583.71 1474.42L5049.2 1079.04L5200.29 1166.83L4734.8 1562.21Z" fill="#B8732E"/>
<path d="M4103.27 699.243L3933.3 600.483L4170.72 398.814L4340.7 497.575L4103.27 699.243Z" fill="#B8732E"/>
<path d="M4536.06 888.145L4192.33 688.429L4298.55 598.209L4253.23 571.874L4340.7 497.576L4729.75 723.625L4536.06 888.145Z" fill="#B8732E"/>
<path d="M4503.49 1175.08L4382.67 1104.88L4552.52 960.615L4673.34 1030.81L4503.49 1175.08Z" fill="#734619"/>
<path d="M4538.78 1036.96L4545.82 1059.06H4546.09L4553.13 1036.96H4559.95L4549.92 1066.05H4541.99L4531.95 1036.96H4538.78ZM4569.6 1036.96V1066.05H4563.45V1036.96H4569.6ZM4590.44 1045.33C4590.33 1044.18 4589.84 1043.29 4588.98 1042.66C4588.12 1042.02 4586.95 1041.71 4585.47 1041.71C4584.47 1041.71 4583.62 1041.85 4582.93 1042.13C4582.24 1042.41 4581.71 1042.79 4581.34 1043.28C4580.98 1043.78 4580.8 1044.33 4580.8 1044.96C4580.78 1045.48 4580.89 1045.93 4581.12 1046.32C4581.37 1046.71 4581.71 1047.05 4582.13 1047.33C4582.56 1047.61 4583.05 1047.85 4583.61 1048.06C4584.17 1048.25 4584.77 1048.42 4585.4 1048.57L4588.01 1049.19C4589.28 1049.48 4590.45 1049.85 4591.51 1050.33C4592.57 1050.8 4593.49 1051.38 4594.26 1052.08C4595.04 1052.77 4595.64 1053.58 4596.07 1054.52C4596.5 1055.46 4596.73 1056.53 4596.74 1057.74C4596.73 1059.52 4596.27 1061.07 4595.37 1062.37C4594.48 1063.67 4593.19 1064.68 4591.51 1065.4C4589.83 1066.11 4587.81 1066.46 4585.44 1066.46C4583.09 1066.46 4581.05 1066.1 4579.31 1065.39C4577.57 1064.67 4576.22 1063.6 4575.24 1062.19C4574.28 1060.77 4573.77 1059.01 4573.72 1056.92H4579.68C4579.74 1057.89 4580.02 1058.71 4580.51 1059.36C4581.02 1060.01 4581.68 1060.49 4582.52 1060.83C4583.36 1061.15 4584.31 1061.31 4585.37 1061.31C4586.41 1061.31 4587.32 1061.16 4588.08 1060.85C4588.86 1060.55 4589.46 1060.13 4589.89 1059.59C4590.31 1059.05 4590.53 1058.43 4590.53 1057.73C4590.53 1057.08 4590.33 1056.53 4589.95 1056.08C4589.57 1055.64 4589.01 1055.26 4588.27 1054.94C4587.54 1054.63 4586.65 1054.35 4585.58 1054.09L4582.42 1053.3C4579.96 1052.7 4578.03 1051.77 4576.61 1050.5C4575.19 1049.23 4574.48 1047.52 4574.49 1045.37C4574.48 1043.61 4574.95 1042.07 4575.9 1040.75C4576.85 1039.44 4578.17 1038.41 4579.83 1037.67C4581.5 1036.93 4583.39 1036.56 4585.51 1036.56C4587.67 1036.56 4589.56 1036.93 4591.17 1037.67C4592.79 1038.41 4594.05 1039.44 4594.95 1040.75C4595.84 1042.07 4596.31 1043.6 4596.34 1045.33H4590.44ZM4616.65 1045.33C4616.54 1044.18 4616.05 1043.29 4615.19 1042.66C4614.33 1042.02 4613.16 1041.71 4611.68 1041.71C4610.68 1041.71 4609.83 1041.85 4609.14 1042.13C4608.45 1042.41 4607.92 1042.79 4607.55 1043.28C4607.19 1043.78 4607.01 1044.33 4607.01 1044.96C4606.99 1045.48 4607.1 1045.93 4607.34 1046.32C4607.58 1046.71 4607.92 1047.05 4608.34 1047.33C4608.77 1047.61 4609.26 1047.85 4609.82 1048.06C4610.38 1048.25 4610.98 1048.42 4611.61 1048.57L4614.22 1049.19C4615.49 1049.48 4616.66 1049.85 4617.72 1050.33C4618.78 1050.8 4619.7 1051.38 4620.47 1052.08C4621.25 1052.77 4621.85 1053.58 4622.28 1054.52C4622.71 1055.46 4622.94 1056.53 4622.95 1057.74C4622.94 1059.52 4622.48 1061.07 4621.58 1062.37C4620.69 1063.67 4619.4 1064.68 4617.72 1065.4C4616.04 1066.11 4614.02 1066.46 4611.65 1066.46C4609.3 1066.46 4607.26 1066.1 4605.52 1065.39C4603.78 1064.67 4602.43 1063.6 4601.45 1062.19C4600.49 1060.77 4599.98 1059.01 4599.93 1056.92H4605.89C4605.95 1057.89 4606.23 1058.71 4606.72 1059.36C4607.23 1060.01 4607.89 1060.49 4608.73 1060.83C4609.57 1061.15 4610.52 1061.31 4611.58 1061.31C4612.62 1061.31 4613.53 1061.16 4614.3 1060.85C4615.07 1060.55 4615.67 1060.13 4616.1 1059.59C4616.53 1059.05 4616.74 1058.43 4616.74 1057.73C4616.74 1057.08 4616.54 1056.53 4616.16 1056.08C4615.78 1055.64 4615.22 1055.26 4614.48 1054.94C4613.75 1054.63 4612.86 1054.35 4611.8 1054.09L4608.63 1053.3C4606.18 1052.7 4604.24 1051.77 4602.82 1050.5C4601.4 1049.23 4600.69 1047.52 4600.7 1045.37C4600.69 1043.61 4601.16 1042.07 4602.11 1040.75C4603.06 1039.44 4604.38 1038.41 4606.04 1037.67C4607.71 1036.93 4609.6 1036.56 4611.72 1036.56C4613.88 1036.56 4615.77 1036.93 4617.38 1037.67C4619 1038.41 4620.26 1039.44 4621.16 1040.75C4622.06 1042.07 4622.52 1043.6 4622.55 1045.33H4616.65ZM4627.08 1066.05V1036.96H4646.69V1042.03H4633.23V1048.96H4645.68V1054.04H4633.23V1060.98H4646.74V1066.05H4627.08Z" fill="white"/>
<path d="M4462.84 1227.05H4452.53V1197.96H4462.93C4465.85 1197.96 4468.37 1198.54 4470.48 1199.71C4472.59 1200.86 4474.22 1202.53 4475.36 1204.69C4476.5 1206.86 4477.07 1209.46 4477.07 1212.48C4477.07 1215.51 4476.5 1218.11 4475.36 1220.29C4474.22 1222.47 4472.59 1224.14 4470.45 1225.31C4468.33 1226.47 4465.8 1227.05 4462.84 1227.05ZM4458.68 1221.78H4462.59C4464.4 1221.78 4465.93 1221.46 4467.17 1220.82C4468.42 1220.16 4469.36 1219.16 4469.99 1217.79C4470.62 1216.42 4470.94 1214.65 4470.94 1212.48C4470.94 1210.33 4470.62 1208.57 4469.99 1207.21C4469.36 1205.85 4468.43 1204.84 4467.19 1204.2C4465.95 1203.55 4464.42 1203.23 4462.6 1203.23H4458.68V1221.78ZM4481.63 1227.05V1197.96H4501.23V1203.03H4487.78V1209.96H4500.22V1215.04H4487.78V1221.98H4501.29V1227.05H4481.63ZM4506.12 1227.05V1197.96H4517.6C4519.81 1197.96 4521.69 1198.38 4523.24 1199.23C4524.79 1200.06 4525.98 1201.22 4526.79 1202.71C4527.61 1204.18 4528.03 1205.89 4528.03 1207.82C4528.03 1209.75 4527.61 1211.46 4526.78 1212.93C4525.94 1214.41 4524.73 1215.56 4523.15 1216.39C4521.58 1217.21 4519.68 1217.62 4517.44 1217.62H4510.13V1212.69H4516.45C4517.63 1212.69 4518.61 1212.49 4519.38 1212.08C4520.15 1211.66 4520.73 1211.09 4521.11 1210.36C4521.5 1209.62 4521.69 1208.78 4521.69 1207.82C4521.69 1206.85 4521.5 1206.01 4521.11 1205.29C4520.73 1204.56 4520.15 1204 4519.38 1203.6C4518.6 1203.19 4517.61 1202.99 4516.42 1202.99H4512.27V1227.05H4506.12ZM4533.68 1227.05H4527.08L4537.13 1197.96H4545.05L4555.08 1227.05H4548.49L4541.2 1204.61H4540.98L4533.68 1227.05ZM4533.26 1215.62H4548.83V1220.42H4533.26V1215.62ZM4558.58 1227.05V1197.96H4570.06C4572.26 1197.96 4574.13 1198.35 4575.69 1199.14C4577.25 1199.92 4578.44 1201.02 4579.25 1202.45C4580.07 1203.87 4580.49 1205.54 4580.49 1207.46C4580.49 1209.4 4580.07 1211.06 4579.24 1212.45C4578.4 1213.83 4577.2 1214.89 4575.61 1215.63C4574.04 1216.37 4572.14 1216.74 4569.9 1216.74H4562.22V1211.8H4568.91C4570.08 1211.8 4571.06 1211.64 4571.84 1211.31C4572.61 1210.99 4573.19 1210.51 4573.57 1209.87C4573.96 1209.22 4574.15 1208.42 4574.15 1207.46C4574.15 1206.5 4573.96 1205.68 4573.57 1205.02C4573.19 1204.36 4572.61 1203.86 4571.82 1203.52C4571.05 1203.17 4570.07 1202.99 4568.88 1202.99H4564.73V1227.05H4558.58ZM4574.29 1213.81L4581.52 1227.05H4574.73L4567.66 1213.81H4574.29ZM4583.73 1203.03V1197.96H4607.62V1203.03H4598.71V1227.05H4592.63V1203.03H4583.73ZM4613.01 1227.05H4606.42L4616.46 1197.96H4624.39L4634.42 1227.05H4627.83L4620.54 1204.61H4620.31L4613.01 1227.05ZM4612.6 1215.62H4628.17V1220.42H4612.6V1215.62ZM4637.92 1197.96H4645.5L4653.52 1217.51H4653.86L4661.87 1197.96H4669.45V1227.05H4663.49V1208.12H4663.25L4655.72 1226.91H4651.65L4644.13 1208.05H4643.88V1227.05H4637.92V1197.96ZM4674.52 1227.05V1197.96H4694.12V1203.03H4680.67V1209.96H4693.11V1215.04H4680.67V1221.98H4694.18V1227.05H4674.52ZM4723.35 1197.96V1227.05H4718.03L4705.38 1208.74H4705.16V1227.05H4699.01V1197.96H4704.41L4716.97 1216.26H4717.22V1197.96H4723.35ZM4727.32 1203.03V1197.96H4751.21V1203.03H4742.3V1227.05H4736.23V1203.03H4727.32ZM4780.55 1212.51C4780.55 1215.68 4779.95 1218.38 4778.75 1220.6C4777.55 1222.83 4775.92 1224.53 4773.86 1225.7C4771.81 1226.87 4769.49 1227.45 4766.93 1227.45C4764.34 1227.45 4762.02 1226.86 4759.97 1225.69C4757.91 1224.51 4756.29 1222.82 4755.1 1220.59C4753.9 1218.36 4753.31 1215.67 4753.31 1212.51C4753.31 1209.33 4753.9 1206.64 4755.1 1204.41C4756.29 1202.19 4757.91 1200.49 4759.97 1199.33C4762.02 1198.15 4764.34 1197.56 4766.93 1197.56C4769.49 1197.56 4771.81 1198.15 4773.86 1199.33C4775.92 1200.49 4777.55 1202.19 4778.75 1204.41C4779.95 1206.64 4780.55 1209.33 4780.55 1212.51ZM4774.31 1212.51C4774.31 1210.45 4774.01 1208.72 4773.39 1207.31C4772.79 1205.9 4771.93 1204.83 4770.82 1204.1C4769.71 1203.37 4768.42 1203 4766.93 1203C4765.44 1203 4764.14 1203.37 4763.04 1204.1C4761.93 1204.83 4761.07 1205.9 4760.45 1207.31C4759.84 1208.72 4759.54 1210.45 4759.54 1212.51C4759.54 1214.56 4759.84 1216.3 4760.45 1217.71C4761.07 1219.12 4761.93 1220.19 4763.04 1220.92C4764.14 1221.65 4765.44 1222.01 4766.93 1222.01C4768.42 1222.01 4769.71 1221.65 4770.82 1220.92C4771.93 1220.19 4772.79 1219.12 4773.39 1217.71C4774.01 1216.3 4774.31 1214.56 4774.31 1212.51ZM4462.84 1275.05H4452.53V1245.96H4462.93C4465.85 1245.96 4468.37 1246.54 4470.48 1247.71C4472.59 1248.86 4474.22 1250.53 4475.36 1252.69C4476.5 1254.86 4477.07 1257.46 4477.07 1260.48C4477.07 1263.51 4476.5 1266.11 4475.36 1268.29C4474.22 1270.47 4472.59 1272.14 4470.45 1273.31C4468.33 1274.47 4465.8 1275.05 4462.84 1275.05ZM4458.68 1269.78H4462.59C4464.4 1269.78 4465.93 1269.46 4467.17 1268.82C4468.42 1268.16 4469.36 1267.16 4469.99 1265.79C4470.62 1264.42 4470.94 1262.65 4470.94 1260.48C4470.94 1258.33 4470.62 1256.57 4469.99 1255.21C4469.36 1253.85 4468.43 1252.84 4467.19 1252.2C4465.95 1251.55 4464.42 1251.23 4462.6 1251.23H4458.68V1269.78ZM4481.63 1275.05V1245.96H4501.23V1251.03H4487.78V1257.96H4500.22V1263.04H4487.78V1269.98H4501.29V1275.05H4481.63ZM4525.69 1275.05H4515.38V1245.96H4525.78C4528.7 1245.96 4531.22 1246.54 4533.33 1247.71C4535.45 1248.86 4537.07 1250.53 4538.21 1252.69C4539.35 1254.86 4539.93 1257.46 4539.93 1260.48C4539.93 1263.51 4539.35 1266.11 4538.21 1268.29C4537.07 1270.47 4535.44 1272.14 4533.31 1273.31C4531.18 1274.47 4528.65 1275.05 4525.69 1275.05ZM4521.53 1269.78H4525.44C4527.25 1269.78 4528.78 1269.46 4530.02 1268.82C4531.27 1268.16 4532.21 1267.16 4532.84 1265.79C4533.47 1264.42 4533.79 1262.65 4533.79 1260.48C4533.79 1258.33 4533.47 1256.57 4532.84 1255.21C4532.21 1253.85 4531.28 1252.84 4530.04 1252.2C4528.8 1251.55 4527.27 1251.23 4525.45 1251.23H4521.53V1269.78ZM4544.48 1275.05V1245.96H4564.08V1251.03H4550.63V1257.96H4563.08V1263.04H4550.63V1269.98H4564.14V1275.05H4544.48ZM4584.75 1254.33C4584.64 1253.18 4584.15 1252.29 4583.29 1251.66C4582.43 1251.02 4581.26 1250.71 4579.78 1250.71C4578.78 1250.71 4577.93 1250.85 4577.24 1251.13C4576.55 1251.41 4576.02 1251.79 4575.65 1252.28C4575.29 1252.78 4575.11 1253.33 4575.11 1253.96C4575.09 1254.48 4575.2 1254.93 4575.44 1255.32C4575.68 1255.71 4576.02 1256.05 4576.45 1256.33C4576.87 1256.61 4577.36 1256.85 4577.92 1257.06C4578.48 1257.25 4579.08 1257.42 4579.71 1257.57L4582.33 1258.19C4583.59 1258.48 4584.76 1258.85 4585.82 1259.33C4586.88 1259.8 4587.8 1260.38 4588.58 1261.08C4589.35 1261.77 4589.95 1262.58 4590.38 1263.52C4590.82 1264.46 4591.04 1265.53 4591.05 1266.74C4591.04 1268.52 4590.58 1270.07 4589.68 1271.37C4588.79 1272.67 4587.51 1273.68 4585.82 1274.4C4584.14 1275.11 4582.12 1275.46 4579.75 1275.46C4577.41 1275.46 4575.36 1275.1 4573.62 1274.39C4571.89 1273.67 4570.53 1272.6 4569.56 1271.19C4568.59 1269.77 4568.08 1268.01 4568.04 1265.92H4573.99C4574.05 1266.89 4574.33 1267.71 4574.83 1268.36C4575.33 1269.01 4576 1269.49 4576.83 1269.83C4577.67 1270.15 4578.62 1270.31 4579.68 1270.31C4580.73 1270.31 4581.63 1270.16 4582.4 1269.85C4583.17 1269.55 4583.77 1269.13 4584.2 1268.59C4584.63 1268.05 4584.84 1267.43 4584.84 1266.73C4584.84 1266.08 4584.65 1265.53 4584.26 1265.08C4583.88 1264.64 4583.32 1264.26 4582.58 1263.94C4581.85 1263.63 4580.96 1263.35 4579.9 1263.09L4576.73 1262.3C4574.28 1261.7 4572.34 1260.77 4570.92 1259.5C4569.5 1258.23 4568.79 1256.52 4568.8 1254.37C4568.79 1252.61 4569.26 1251.07 4570.21 1249.75C4571.17 1248.44 4572.48 1247.41 4574.14 1246.67C4575.81 1245.93 4577.7 1245.56 4579.83 1245.56C4581.99 1245.56 4583.87 1245.93 4585.48 1246.67C4587.1 1247.41 4588.36 1248.44 4589.26 1249.75C4590.16 1251.07 4590.62 1252.6 4590.65 1254.33H4584.75ZM4601.34 1245.96V1275.05H4595.18V1245.96H4601.34ZM4625.69 1255.37C4625.49 1254.67 4625.21 1254.06 4624.85 1253.53C4624.49 1252.99 4624.05 1252.54 4623.53 1252.17C4623.01 1251.79 4622.43 1251.5 4621.76 1251.3C4621.11 1251.1 4620.39 1251 4619.59 1251C4618.1 1251 4616.8 1251.37 4615.67 1252.11C4614.55 1252.85 4613.68 1253.93 4613.06 1255.34C4612.43 1256.74 4612.12 1258.45 4612.12 1260.48C4612.12 1262.51 4612.43 1264.23 4613.04 1265.65C4613.66 1267.07 4614.53 1268.15 4615.66 1268.9C4616.78 1269.64 4618.11 1270.01 4619.65 1270.01C4621.04 1270.01 4622.23 1269.76 4623.21 1269.27C4624.21 1268.77 4624.97 1268.06 4625.49 1267.16C4626.02 1266.25 4626.28 1265.17 4626.28 1263.93L4627.53 1264.12H4620.03V1259.48H4632.21V1263.15C4632.21 1265.71 4631.67 1267.9 4630.59 1269.74C4629.51 1271.57 4628.02 1272.98 4626.13 1273.97C4624.23 1274.96 4622.06 1275.45 4619.62 1275.45C4616.89 1275.45 4614.5 1274.85 4612.43 1273.65C4610.37 1272.43 4608.76 1270.72 4607.6 1268.49C4606.46 1266.26 4605.88 1263.6 4605.88 1260.54C4605.88 1258.18 4606.23 1256.08 4606.91 1254.23C4607.6 1252.37 4608.56 1250.8 4609.8 1249.51C4611.05 1248.23 4612.49 1247.24 4614.14 1246.57C4615.78 1245.9 4617.57 1245.56 4619.49 1245.56C4621.14 1245.56 4622.67 1245.81 4624.09 1246.29C4625.51 1246.76 4626.77 1247.43 4627.87 1248.31C4628.98 1249.18 4629.89 1250.21 4630.59 1251.42C4631.29 1252.61 4631.74 1253.93 4631.94 1255.37H4625.69ZM4661.16 1245.96V1275.05H4655.85L4643.19 1256.74H4642.98V1275.05H4636.83V1245.96H4642.22L4654.78 1264.26H4655.04V1245.96H4661.16Z" fill="white"/>
<path d="M4543.36 1022.86C4546.02 1022.11 4547.56 1019.35 4546.81 1016.69L4534.57 973.389C4533.82 970.732 4531.06 969.186 4528.4 969.937C4525.74 970.688 4524.2 973.451 4524.95 976.109L4535.83 1014.6L4497.34 1025.48C4494.68 1026.23 4493.13 1028.99 4493.88 1031.65C4494.64 1034.31 4497.4 1035.85 4500.06 1035.1L4543.36 1022.86ZM4483 985.053L4480.56 989.417L4539.56 1022.42L4542 1018.05L4544.44 1013.69L4485.44 980.689L4483 985.053Z" fill="black"/>
<rect width="23.586" height="58.2322" transform="matrix(0.864645 0.502384 -0.762169 0.647379 2552.8 1584.68)" fill="#868686"/>
<rect width="23.586" height="58.2322" transform="matrix(0.864645 0.502384 -0.762169 0.647379 2565.46 1584.68)" fill="#868686"/>
<rect width="23.586" height="58.2322" transform="matrix(0.864645 0.502384 -0.762169 0.647379 2578.12 1584.68)" fill="#868686"/>
<rect width="23.586" height="58.2322" transform="matrix(0.864645 0.502384 -0.762169 0.647379 2595 1584.68)" fill="#868686"/>
<rect width="23.586" height="58.2322" transform="matrix(0.864645 0.502384 -0.762169 0.647379 2607.66 1584.68)" fill="#868686"/>
<rect width="23.586" height="58.2322" transform="matrix(0.864645 0.502384 -0.762169 0.647379 2620.32 1584.68)" fill="#868686"/>
<rect width="23.586" height="58.2322" transform="matrix(0.864645 0.502384 -0.762169 0.647379 2670.96 1534.04)" fill="#868686"/>
<rect width="23.586" height="58.2322" transform="matrix(0.864645 0.502384 -0.762169 0.647379 2658.3 1521.38)" fill="#868686"/>
<rect width="23.586" height="58.2322" transform="matrix(0.864645 0.502384 -0.762169 0.647379 2645.64 1504.5)" fill="#868686"/>
<rect width="23.586" height="58.2322" transform="matrix(0.864645 0.502384 -0.762169 0.647379 2632.98 1491.83)" fill="#868686"/>
<rect width="23.586" height="58.2322" transform="matrix(0.864645 0.502384 -0.762169 0.647379 2620.32 1479.17)" fill="#868686"/>
<rect width="23.586" height="58.2322" transform="matrix(0.864645 0.502384 -0.762169 0.647379 2607.66 1462.29)" fill="#868686"/>
<rect width="52.9221" height="119.265" transform="matrix(0.864645 0.502384 -0.762169 0.647379 2683.72 1545.16)" fill="#868686"/>
<path d="M2403 1597.16L3215.42 2070.05L3916 1481.05" stroke="black" stroke-width="10"/>
<circle cx="1510" cy="1080.05" r="19" fill="black"/>
<g clip-path="url(#clip0_10_1350)">
<mask id="mask0_10_1350" style="mask-type:luminance" maskUnits="userSpaceOnUse" x="4332" y="1142" width="118" height="178">
<path d="M4450 1142.05H4332V1319.05H4450V1142.05Z" fill="white"/>
</mask>
<g mask="url(#mask0_10_1350)">
<path d="M4381.45 1192.88L4426.49 1218.72L4426.41 1168.27L4381.45 1142.05V1192.88Z" fill="#734619"/>
<path d="M4378.24 1248.83L4378.11 1197.23L4333.34 1222.97L4378.24 1248.83Z" fill="#734619"/>
<path d="M4381.19 1248.63L4426.15 1222.72L4381.3 1197.1L4381.19 1248.63Z" fill="#734619"/>
<path d="M4382.52 1251.42L4427.61 1277.1L4427.55 1225.75L4382.52 1251.42Z" fill="#734619"/>
<path d="M4332 1225.62L4332.14 1277.22L4376.91 1251.49L4332 1225.62Z" fill="#734619"/>
<path d="M4381.08 1254.02L4382.16 1305.61L4426.46 1279.07L4381.08 1254.02Z" fill="#734619"/>
<path d="M4378.15 1254.26L4333.67 1280.98L4378.98 1305.78L4378.15 1254.26Z" fill="#734619"/>
</g>
</g>
<defs>
<clipPath id="clip0_10_1350">
<rect width="118" height="177" fill="white" transform="translate(4332 1142.05)"/>
</clipPath>
</defs>
</svg>
