<svg width="3745" height="1780" viewBox="0 0 3745 1780" fill="none" xmlns="http://www.w3.org/2000/svg">
<path d="M1048.08 619.8C1039.97 619.8 1032.67 617.987 1026.16 614.36C1019.76 610.627 1014.69 605.56 1010.96 599.16C1007.23 592.653 1005.36 585.24 1005.36 576.92C1005.36 568.493 1007.23 561.08 1010.96 554.68C1014.69 548.28 1019.76 543.267 1026.16 539.64C1032.56 536.013 1039.87 534.2 1048.08 534.2C1056.4 534.2 1063.76 536.013 1070.16 539.64C1076.67 543.267 1081.73 548.28 1085.36 554.68C1089.09 561.08 1090.96 568.493 1090.96 576.92C1090.96 585.24 1089.09 592.653 1085.36 599.16C1081.73 605.56 1076.67 610.627 1070.16 614.36C1063.65 617.987 1056.29 619.8 1048.08 619.8ZM1048.08 609.72C1054.16 609.72 1059.55 608.387 1064.24 605.72C1068.93 602.947 1072.61 599.107 1075.28 594.2C1078.05 589.187 1079.44 583.427 1079.44 576.92C1079.44 570.307 1078.05 564.547 1075.28 559.64C1072.61 554.733 1068.93 550.947 1064.24 548.28C1059.55 545.507 1054.21 544.12 1048.24 544.12C1042.27 544.12 1036.93 545.507 1032.24 548.28C1027.55 550.947 1023.81 554.733 1021.04 559.64C1018.27 564.547 1016.88 570.307 1016.88 576.92C1016.88 583.427 1018.27 589.187 1021.04 594.2C1023.81 599.107 1027.55 602.947 1032.24 605.72C1036.93 608.387 1042.21 609.72 1048.08 609.72ZM1189.47 619.8C1181.47 619.8 1174.27 617.987 1167.87 614.36C1161.57 610.733 1156.61 605.72 1152.99 599.32C1149.36 592.92 1147.55 585.453 1147.55 576.92C1147.55 568.493 1149.36 561.08 1152.99 554.68C1156.61 548.173 1161.57 543.16 1167.87 539.64C1174.27 536.013 1181.47 534.2 1189.47 534.2C1196.93 534.2 1203.55 535.853 1209.31 539.16C1215.17 542.467 1219.81 547.32 1223.23 553.72C1226.64 560.013 1228.35 567.747 1228.35 576.92C1228.35 586.093 1226.59 593.88 1223.07 600.28C1219.65 606.573 1215.01 611.427 1209.15 614.84C1203.39 618.147 1196.83 619.8 1189.47 619.8ZM1190.27 609.72C1196.24 609.72 1201.57 608.387 1206.27 605.72C1211.07 602.947 1214.8 599.107 1217.47 594.2C1220.24 589.187 1221.63 583.427 1221.63 576.92C1221.63 570.413 1220.24 564.707 1217.47 559.8C1214.8 554.893 1211.07 551.053 1206.27 548.28C1201.57 545.507 1196.24 544.12 1190.27 544.12C1184.4 544.12 1179.12 545.507 1174.43 548.28C1169.73 551.053 1166 554.893 1163.23 559.8C1160.45 564.707 1159.07 570.413 1159.07 576.92C1159.07 583.427 1160.45 589.187 1163.23 594.2C1166 599.107 1169.73 602.947 1174.43 605.72C1179.12 608.387 1184.4 609.72 1190.27 609.72ZM1221.47 650.04V594.04L1223.07 577.08L1221.95 560.28V535H1232.83V650.04H1221.47ZM1299.19 619.8C1292.04 619.8 1285.8 618.467 1280.47 615.8C1275.13 613.133 1270.97 609.133 1267.99 603.8C1265.11 598.467 1263.67 591.8 1263.67 583.8V535H1275.03V582.52C1275.03 591.48 1277.21 598.253 1281.59 602.84C1286.07 607.32 1292.31 609.56 1300.31 609.56C1306.17 609.56 1311.24 608.387 1315.51 606.04C1319.88 603.587 1323.19 600.067 1325.43 595.48C1327.77 590.893 1328.95 585.4 1328.95 579V535H1340.31V619H1329.42V595.96L1331.19 600.12C1328.52 606.307 1324.36 611.16 1318.71 614.68C1313.16 618.093 1306.65 619.8 1299.19 619.8ZM1407.65 619.8C1398.9 619.8 1391.22 617.987 1384.61 614.36C1377.99 610.627 1372.82 605.56 1369.09 599.16C1365.35 592.653 1363.49 585.24 1363.49 576.92C1363.49 568.6 1365.25 561.24 1368.77 554.84C1372.39 548.44 1377.3 543.427 1383.49 539.8C1389.78 536.067 1396.82 534.2 1404.61 534.2C1412.5 534.2 1419.49 536.013 1425.57 539.64C1431.75 543.16 1436.61 548.173 1440.13 554.68C1443.65 561.08 1445.41 568.493 1445.41 576.92C1445.41 577.453 1445.35 578.04 1445.25 578.68C1445.25 579.213 1445.25 579.8 1445.25 580.44H1372.13V571.96H1439.17L1434.69 575.32C1434.69 569.24 1433.35 563.853 1430.69 559.16C1428.13 554.36 1424.61 550.627 1420.13 547.96C1415.65 545.293 1410.47 543.96 1404.61 543.96C1398.85 543.96 1393.67 545.293 1389.09 547.96C1384.5 550.627 1380.93 554.36 1378.37 559.16C1375.81 563.96 1374.53 569.453 1374.53 575.64V577.4C1374.53 583.8 1375.91 589.453 1378.69 594.36C1381.57 599.16 1385.51 602.947 1390.53 605.72C1395.65 608.387 1401.46 609.72 1407.97 609.72C1413.09 609.72 1417.83 608.813 1422.21 607C1426.69 605.187 1430.53 602.413 1433.73 598.68L1440.13 606.04C1436.39 610.52 1431.7 613.933 1426.05 616.28C1420.5 618.627 1414.37 619.8 1407.65 619.8ZM1546.08 619.8C1537.34 619.8 1529.66 617.987 1523.04 614.36C1516.43 610.627 1511.26 605.56 1507.52 599.16C1503.79 592.653 1501.92 585.24 1501.92 576.92C1501.92 568.6 1503.68 561.24 1507.2 554.84C1510.83 548.44 1515.74 543.427 1521.92 539.8C1528.22 536.067 1535.26 534.2 1543.04 534.2C1550.94 534.2 1557.92 536.013 1564 539.64C1570.19 543.16 1575.04 548.173 1578.56 554.68C1582.08 561.08 1583.84 568.493 1583.84 576.92C1583.84 577.453 1583.79 578.04 1583.68 578.68C1583.68 579.213 1583.68 579.8 1583.68 580.44H1510.56V571.96H1577.6L1573.12 575.32C1573.12 569.24 1571.79 563.853 1569.12 559.16C1566.56 554.36 1563.04 550.627 1558.56 547.96C1554.08 545.293 1548.91 543.96 1543.04 543.96C1537.28 543.96 1532.11 545.293 1527.52 547.96C1522.94 550.627 1519.36 554.36 1516.8 559.16C1514.24 563.96 1512.96 569.453 1512.96 575.64V577.4C1512.96 583.8 1514.35 589.453 1517.12 594.36C1520 599.16 1523.95 602.947 1528.96 605.72C1534.08 608.387 1539.9 609.72 1546.4 609.72C1551.52 609.72 1556.27 608.813 1560.64 607C1565.12 605.187 1568.96 602.413 1572.16 598.68L1578.56 606.04C1574.83 610.52 1570.14 613.933 1564.48 616.28C1558.94 618.627 1552.8 619.8 1546.08 619.8ZM1532.48 521.88L1554.4 502.04H1569.6L1543.68 521.88H1532.48ZM1701.48 619V600.44L1701 597.4V566.36C1701 559.213 1698.97 553.72 1694.92 549.88C1690.97 546.04 1685.05 544.12 1677.16 544.12C1671.72 544.12 1666.55 545.027 1661.64 546.84C1656.73 548.653 1652.57 551.053 1649.16 554.04L1644.04 545.56C1648.31 541.933 1653.43 539.16 1659.4 537.24C1665.37 535.213 1671.67 534.2 1678.28 534.2C1689.16 534.2 1697.53 536.92 1703.4 542.36C1709.37 547.693 1712.36 555.853 1712.36 566.84V619H1701.48ZM1672.52 619.8C1666.23 619.8 1660.73 618.787 1656.04 616.76C1651.45 614.627 1647.93 611.747 1645.48 608.12C1643.03 604.387 1641.8 600.12 1641.8 595.32C1641.8 590.947 1642.81 587 1644.84 583.48C1646.97 579.853 1650.39 576.973 1655.08 574.84C1659.88 572.6 1666.28 571.48 1674.28 571.48H1703.24V579.96H1674.6C1666.49 579.96 1660.84 581.4 1657.64 584.28C1654.55 587.16 1653 590.733 1653 595C1653 599.8 1654.87 603.64 1658.6 606.52C1662.33 609.4 1667.56 610.84 1674.28 610.84C1680.68 610.84 1686.17 609.4 1690.76 606.52C1695.45 603.533 1698.87 599.267 1701 593.72L1703.56 601.56C1701.43 607.107 1697.69 611.533 1692.36 614.84C1687.13 618.147 1680.52 619.8 1672.52 619.8ZM1818.53 619.8C1810.53 619.8 1803.33 617.987 1796.93 614.36C1790.64 610.733 1785.68 605.72 1782.05 599.32C1778.42 592.813 1776.61 585.347 1776.61 576.92C1776.61 568.387 1778.42 560.92 1782.05 554.52C1785.68 548.12 1790.64 543.16 1796.93 539.64C1803.33 536.013 1810.53 534.2 1818.53 534.2C1825.89 534.2 1832.45 535.853 1838.21 539.16C1844.08 542.467 1848.72 547.32 1852.13 553.72C1855.65 560.013 1857.41 567.747 1857.41 576.92C1857.41 585.987 1855.7 593.72 1852.29 600.12C1848.88 606.52 1844.24 611.427 1838.37 614.84C1832.61 618.147 1826 619.8 1818.53 619.8ZM1819.33 609.72C1825.3 609.72 1830.64 608.387 1835.33 605.72C1840.13 602.947 1843.86 599.107 1846.53 594.2C1849.3 589.187 1850.69 583.427 1850.69 576.92C1850.69 570.307 1849.3 564.547 1846.53 559.64C1843.86 554.733 1840.13 550.947 1835.33 548.28C1830.64 545.507 1825.3 544.12 1819.33 544.12C1813.46 544.12 1808.18 545.507 1803.49 548.28C1798.8 550.947 1795.06 554.733 1792.29 559.64C1789.52 564.547 1788.13 570.307 1788.13 576.92C1788.13 583.427 1789.52 589.187 1792.29 594.2C1795.06 599.107 1798.8 602.947 1803.49 605.72C1808.18 608.387 1813.46 609.72 1819.33 609.72ZM1851.01 619V593.72L1852.13 576.76L1850.53 559.8V500.28H1861.89V619H1851.01ZM1893.53 619V535H1904.89V619H1893.53ZM1899.29 516.44C1896.94 516.44 1894.97 515.64 1893.37 514.04C1891.77 512.44 1890.97 510.52 1890.97 508.28C1890.97 506.04 1891.77 504.173 1893.37 502.68C1894.97 501.08 1896.94 500.28 1899.29 500.28C1901.63 500.28 1903.61 501.027 1905.21 502.52C1906.81 504.013 1907.61 505.88 1907.61 508.12C1907.61 510.467 1906.81 512.44 1905.21 514.04C1903.71 515.64 1901.74 516.44 1899.29 516.44ZM1959.06 619.8C1952.12 619.8 1945.56 618.84 1939.38 616.92C1933.19 614.893 1928.34 612.387 1924.82 609.4L1929.94 600.44C1933.35 603 1937.72 605.24 1943.06 607.16C1948.39 608.973 1953.99 609.88 1959.86 609.88C1967.86 609.88 1973.62 608.653 1977.14 606.2C1980.66 603.64 1982.42 600.28 1982.42 596.12C1982.42 593.027 1981.4 590.627 1979.38 588.92C1977.46 587.107 1974.9 585.773 1971.7 584.92C1968.5 583.96 1964.92 583.16 1960.98 582.52C1957.03 581.88 1953.08 581.133 1949.14 580.28C1945.3 579.427 1941.78 578.2 1938.58 576.6C1935.38 574.893 1932.76 572.6 1930.74 569.72C1928.82 566.84 1927.86 563 1927.86 558.2C1927.86 553.613 1929.14 549.507 1931.7 545.88C1934.26 542.253 1937.99 539.427 1942.9 537.4C1947.91 535.267 1953.99 534.2 1961.14 534.2C1966.58 534.2 1972.02 534.947 1977.46 536.44C1982.9 537.827 1987.38 539.693 1990.9 542.04L1985.94 551.16C1982.2 548.6 1978.2 546.787 1973.94 545.72C1969.67 544.547 1965.4 543.96 1961.14 543.96C1953.56 543.96 1947.96 545.293 1944.34 547.96C1940.82 550.52 1939.06 553.827 1939.06 557.88C1939.06 561.08 1940.02 563.587 1941.94 565.4C1943.96 567.213 1946.58 568.653 1949.78 569.72C1953.08 570.68 1956.66 571.48 1960.5 572.12C1964.44 572.76 1968.34 573.56 1972.18 574.52C1976.12 575.373 1979.7 576.6 1982.9 578.2C1986.2 579.693 1988.82 581.88 1990.74 584.76C1992.76 587.533 1993.78 591.213 1993.78 595.8C1993.78 600.707 1992.39 604.973 1989.62 608.6C1986.95 612.12 1983 614.893 1977.78 616.92C1972.66 618.84 1966.42 619.8 1959.06 619.8ZM2049.5 619.8C2041.18 619.8 2033.71 617.987 2027.1 614.36C2020.59 610.627 2015.47 605.56 2011.74 599.16C2008.01 592.653 2006.14 585.24 2006.14 576.92C2006.14 568.493 2008.01 561.08 2011.74 554.68C2015.47 548.28 2020.59 543.267 2027.1 539.64C2033.71 536.013 2041.18 534.2 2049.5 534.2C2056.65 534.2 2063.1 535.587 2068.86 538.36C2074.62 541.133 2079.15 545.293 2082.46 550.84L2073.98 556.6C2071.1 552.333 2067.53 549.187 2063.26 547.16C2058.99 545.133 2054.35 544.12 2049.34 544.12C2043.37 544.12 2037.98 545.507 2033.18 548.28C2028.38 550.947 2024.59 554.733 2021.82 559.64C2019.05 564.547 2017.66 570.307 2017.66 576.92C2017.66 583.533 2019.05 589.293 2021.82 594.2C2024.59 599.107 2028.38 602.947 2033.18 605.72C2037.98 608.387 2043.37 609.72 2049.34 609.72C2054.35 609.72 2058.99 608.707 2063.26 606.68C2067.53 604.653 2071.1 601.56 2073.98 597.4L2082.46 603.16C2079.15 608.6 2074.62 612.76 2068.86 615.64C2063.1 618.413 2056.65 619.8 2049.5 619.8ZM2103.53 619V535H2114.89V619H2103.53ZM2109.29 516.44C2106.94 516.44 2104.97 515.64 2103.37 514.04C2101.77 512.44 2100.97 510.52 2100.97 508.28C2100.97 506.04 2101.77 504.173 2103.37 502.68C2104.97 501.08 2106.94 500.28 2109.29 500.28C2111.63 500.28 2113.61 501.027 2115.21 502.52C2116.81 504.013 2117.61 505.88 2117.61 508.12C2117.61 510.467 2116.81 512.44 2115.21 514.04C2113.71 515.64 2111.74 516.44 2109.29 516.44ZM2189.86 619.8C2182.6 619.8 2176.04 618.147 2170.18 614.84C2164.31 611.427 2159.62 606.573 2156.1 600.28C2152.68 593.88 2150.98 586.093 2150.98 576.92C2150.98 567.747 2152.68 560.013 2156.1 553.72C2159.51 547.32 2164.15 542.467 2170.02 539.16C2175.88 535.853 2182.5 534.2 2189.86 534.2C2197.86 534.2 2205 536.013 2211.3 539.64C2217.7 543.16 2222.71 548.173 2226.34 554.68C2229.96 561.08 2231.78 568.493 2231.78 576.92C2231.78 585.453 2229.96 592.92 2226.34 599.32C2222.71 605.72 2217.7 610.733 2211.3 614.36C2205 617.987 2197.86 619.8 2189.86 619.8ZM2146.5 650.04V535H2157.38V560.28L2156.26 577.08L2157.86 594.04V650.04H2146.5ZM2189.06 609.72C2195.03 609.72 2200.36 608.387 2205.06 605.72C2209.75 602.947 2213.48 599.107 2216.26 594.2C2219.03 589.187 2220.42 583.427 2220.42 576.92C2220.42 570.413 2219.03 564.707 2216.26 559.8C2213.48 554.893 2209.75 551.053 2205.06 548.28C2200.36 545.507 2195.03 544.12 2189.06 544.12C2183.08 544.12 2177.7 545.507 2172.9 548.28C2168.2 551.053 2164.47 554.893 2161.7 559.8C2159.03 564.707 2157.7 570.413 2157.7 576.92C2157.7 583.427 2159.03 589.187 2161.7 594.2C2164.47 599.107 2168.2 602.947 2172.9 605.72C2177.7 608.387 2183.08 609.72 2189.06 609.72ZM2254.93 619V500.28H2266.29V619H2254.93ZM2297.9 619V535H2309.26V619H2297.9ZM2303.66 516.44C2301.32 516.44 2299.34 515.64 2297.74 514.04C2296.14 512.44 2295.34 510.52 2295.34 508.28C2295.34 506.04 2296.14 504.173 2297.74 502.68C2299.34 501.08 2301.32 500.28 2303.66 500.28C2306.01 500.28 2307.98 501.027 2309.58 502.52C2311.18 504.013 2311.98 505.88 2311.98 508.12C2311.98 510.467 2311.18 512.44 2309.58 514.04C2308.09 515.64 2306.12 516.44 2303.66 516.44ZM2383.75 534.2C2390.58 534.2 2396.55 535.533 2401.67 538.2C2406.9 540.76 2410.95 544.707 2413.83 550.04C2416.82 555.373 2418.31 562.093 2418.31 570.2V619H2406.95V571.32C2406.95 562.467 2404.71 555.8 2400.23 551.32C2395.86 546.733 2389.67 544.44 2381.67 544.44C2375.7 544.44 2370.47 545.667 2365.99 548.12C2361.62 550.467 2358.2 553.933 2355.75 558.52C2353.4 563 2352.23 568.44 2352.23 574.84V619H2340.87V535H2351.75V558.04L2349.99 553.72C2352.66 547.64 2356.92 542.893 2362.79 539.48C2368.66 535.96 2375.64 534.2 2383.75 534.2ZM2501.64 619V600.44L2501.16 597.4V566.36C2501.16 559.213 2499.13 553.72 2495.08 549.88C2491.13 546.04 2485.21 544.12 2477.32 544.12C2471.88 544.12 2466.7 545.027 2461.8 546.84C2456.89 548.653 2452.73 551.053 2449.32 554.04L2444.2 545.56C2448.46 541.933 2453.58 539.16 2459.56 537.24C2465.53 535.213 2471.82 534.2 2478.44 534.2C2489.32 534.2 2497.69 536.92 2503.56 542.36C2509.53 547.693 2512.52 555.853 2512.52 566.84V619H2501.64ZM2472.68 619.8C2466.38 619.8 2460.89 618.787 2456.2 616.76C2451.61 614.627 2448.09 611.747 2445.64 608.12C2443.18 604.387 2441.96 600.12 2441.96 595.32C2441.96 590.947 2442.97 587 2445 583.48C2447.13 579.853 2450.54 576.973 2455.24 574.84C2460.04 572.6 2466.44 571.48 2474.44 571.48H2503.4V579.96H2474.76C2466.65 579.96 2461 581.4 2457.8 584.28C2454.7 587.16 2453.16 590.733 2453.16 595C2453.16 599.8 2455.02 603.64 2458.76 606.52C2462.49 609.4 2467.72 610.84 2474.44 610.84C2480.84 610.84 2486.33 609.4 2490.92 606.52C2495.61 603.533 2499.02 599.267 2501.16 593.72L2503.72 601.56C2501.58 607.107 2497.85 611.533 2492.52 614.84C2487.29 618.147 2480.68 619.8 2472.68 619.8ZM2618.69 619.8C2610.69 619.8 2603.49 617.987 2597.09 614.36C2590.79 610.733 2585.83 605.72 2582.21 599.32C2578.58 592.813 2576.77 585.347 2576.77 576.92C2576.77 568.387 2578.58 560.92 2582.21 554.52C2585.83 548.12 2590.79 543.16 2597.09 539.64C2603.49 536.013 2610.69 534.2 2618.69 534.2C2626.05 534.2 2632.61 535.853 2638.37 539.16C2644.23 542.467 2648.87 547.32 2652.29 553.72C2655.81 560.013 2657.57 567.747 2657.57 576.92C2657.57 585.987 2655.86 593.72 2652.45 600.12C2649.03 606.52 2644.39 611.427 2638.53 614.84C2632.77 618.147 2626.15 619.8 2618.69 619.8ZM2619.49 609.72C2625.46 609.72 2630.79 608.387 2635.49 605.72C2640.29 602.947 2644.02 599.107 2646.69 594.2C2649.46 589.187 2650.85 583.427 2650.85 576.92C2650.85 570.307 2649.46 564.547 2646.69 559.64C2644.02 554.733 2640.29 550.947 2635.49 548.28C2630.79 545.507 2625.46 544.12 2619.49 544.12C2613.62 544.12 2608.34 545.507 2603.65 548.28C2598.95 550.947 2595.22 554.733 2592.45 559.64C2589.67 564.547 2588.29 570.307 2588.29 576.92C2588.29 583.427 2589.67 589.187 2592.45 594.2C2595.22 599.107 2598.95 602.947 2603.65 605.72C2608.34 608.387 2613.62 609.72 2619.49 609.72ZM2651.17 619V593.72L2652.29 576.76L2650.69 559.8V500.28H2662.05V619H2651.17ZM2729.36 619.8C2720.62 619.8 2712.94 617.987 2706.32 614.36C2699.71 610.627 2694.54 605.56 2690.8 599.16C2687.07 592.653 2685.2 585.24 2685.2 576.92C2685.2 568.6 2686.96 561.24 2690.48 554.84C2694.11 548.44 2699.02 543.427 2705.2 539.8C2711.5 536.067 2718.54 534.2 2726.32 534.2C2734.22 534.2 2741.2 536.013 2747.28 539.64C2753.47 543.16 2758.32 548.173 2761.84 554.68C2765.36 561.08 2767.12 568.493 2767.12 576.92C2767.12 577.453 2767.07 578.04 2766.96 578.68C2766.96 579.213 2766.96 579.8 2766.96 580.44H2693.84V571.96H2760.88L2756.4 575.32C2756.4 569.24 2755.07 563.853 2752.4 559.16C2749.84 554.36 2746.32 550.627 2741.84 547.96C2737.36 545.293 2732.19 543.96 2726.32 543.96C2720.56 543.96 2715.39 545.293 2710.8 547.96C2706.22 550.627 2702.64 554.36 2700.08 559.16C2697.52 563.96 2696.24 569.453 2696.24 575.64V577.4C2696.24 583.8 2697.63 589.453 2700.4 594.36C2703.28 599.16 2707.23 602.947 2712.24 605.72C2717.36 608.387 2723.18 609.72 2729.68 609.72C2734.8 609.72 2739.55 608.813 2743.92 607C2748.4 605.187 2752.24 602.413 2755.44 598.68L2761.84 606.04C2758.11 610.52 2753.42 613.933 2747.76 616.28C2742.22 618.627 2736.08 619.8 2729.36 619.8ZM1009.52 824V737.92H1034.48V824H1009.52ZM1022 725.92C1017.41 725.92 1013.68 724.587 1010.8 721.92C1007.92 719.253 1006.48 715.947 1006.48 712C1006.48 708.053 1007.92 704.747 1010.8 702.08C1013.68 699.413 1017.41 698.08 1022 698.08C1026.59 698.08 1030.32 699.36 1033.2 701.92C1036.08 704.373 1037.52 707.573 1037.52 711.52C1037.52 715.68 1036.08 719.147 1033.2 721.92C1030.43 724.587 1026.69 725.92 1022 725.92ZM1109.97 736.64C1116.79 736.64 1122.87 738.027 1128.21 740.8C1133.65 743.467 1137.91 747.627 1141.01 753.28C1144.1 758.827 1145.65 765.973 1145.65 774.72V824H1120.69V778.56C1120.69 771.627 1119.14 766.507 1116.05 763.2C1113.06 759.893 1108.79 758.24 1103.25 758.24C1099.3 758.24 1095.73 759.093 1092.53 760.8C1089.43 762.4 1086.98 764.907 1085.17 768.32C1083.46 771.733 1082.61 776.107 1082.61 781.44V824H1057.65V737.92H1081.49V761.76L1077.01 754.56C1080.1 748.8 1084.53 744.373 1090.29 741.28C1096.05 738.187 1102.61 736.64 1109.97 736.64ZM1203.47 825.28C1193.34 825.28 1185.44 822.72 1179.79 817.6C1174.14 812.373 1171.31 804.64 1171.31 794.4V718.88H1196.27V794.08C1196.27 797.707 1197.23 800.533 1199.15 802.56C1201.07 804.48 1203.68 805.44 1206.99 805.44C1210.94 805.44 1214.3 804.373 1217.07 802.24L1223.79 819.84C1221.23 821.653 1218.14 823.04 1214.51 824C1210.99 824.853 1207.31 825.28 1203.47 825.28ZM1158.03 759.04V739.84H1217.71V759.04H1158.03ZM1237.8 824V737.92H1261.64V762.24L1258.28 755.2C1260.84 749.12 1264.95 744.533 1270.6 741.44C1276.25 738.24 1283.13 736.64 1291.24 736.64V759.68C1290.17 759.573 1289.21 759.52 1288.36 759.52C1287.51 759.413 1286.6 759.36 1285.64 759.36C1278.81 759.36 1273.27 761.333 1269 765.28C1264.84 769.12 1262.76 775.147 1262.76 783.36V824H1237.8ZM1346.42 825.28C1337.24 825.28 1329.08 823.36 1321.94 819.52C1314.9 815.68 1309.3 810.453 1305.14 803.84C1301.08 797.12 1299.06 789.493 1299.06 780.96C1299.06 772.32 1301.08 764.693 1305.14 758.08C1309.3 751.36 1314.9 746.133 1321.94 742.4C1329.08 738.56 1337.24 736.64 1346.42 736.64C1355.48 736.64 1363.59 738.56 1370.74 742.4C1377.88 746.133 1383.48 751.307 1387.54 757.92C1391.59 764.533 1393.62 772.213 1393.62 780.96C1393.62 789.493 1391.59 797.12 1387.54 803.84C1383.48 810.453 1377.88 815.68 1370.74 819.52C1363.59 823.36 1355.48 825.28 1346.42 825.28ZM1346.42 804.8C1350.58 804.8 1354.31 803.84 1357.62 801.92C1360.92 800 1363.54 797.28 1365.46 793.76C1367.38 790.133 1368.34 785.867 1368.34 780.96C1368.34 775.947 1367.38 771.68 1365.46 768.16C1363.54 764.64 1360.92 761.92 1357.62 760C1354.31 758.08 1350.58 757.12 1346.42 757.12C1342.26 757.12 1338.52 758.08 1335.22 760C1331.91 761.92 1329.24 764.64 1327.22 768.16C1325.3 771.68 1324.34 775.947 1324.34 780.96C1324.34 785.867 1325.3 790.133 1327.22 793.76C1329.24 797.28 1331.91 800 1335.22 801.92C1338.52 803.84 1342.26 804.8 1346.42 804.8ZM1447.26 825.28C1439.15 825.28 1431.85 823.467 1425.34 819.84C1418.83 816.107 1413.66 810.933 1409.82 804.32C1406.09 797.707 1404.22 789.92 1404.22 780.96C1404.22 771.893 1406.09 764.053 1409.82 757.44C1413.66 750.827 1418.83 745.707 1425.34 742.08C1431.85 738.453 1439.15 736.64 1447.26 736.64C1454.51 736.64 1460.86 738.24 1466.3 741.44C1471.74 744.64 1475.95 749.493 1478.94 756C1481.93 762.507 1483.42 770.827 1483.42 780.96C1483.42 790.987 1481.98 799.307 1479.1 805.92C1476.22 812.427 1472.06 817.28 1466.62 820.48C1461.29 823.68 1454.83 825.28 1447.26 825.28ZM1451.58 804.8C1455.63 804.8 1459.31 803.84 1462.62 801.92C1465.93 800 1468.54 797.28 1470.46 793.76C1472.49 790.133 1473.5 785.867 1473.5 780.96C1473.5 775.947 1472.49 771.68 1470.46 768.16C1468.54 764.64 1465.93 761.92 1462.62 760C1459.31 758.08 1455.63 757.12 1451.58 757.12C1447.42 757.12 1443.69 758.08 1440.38 760C1437.07 761.92 1434.41 764.64 1432.38 768.16C1430.46 771.68 1429.5 775.947 1429.5 780.96C1429.5 785.867 1430.46 790.133 1432.38 793.76C1434.41 797.28 1437.07 800 1440.38 801.92C1443.69 803.84 1447.42 804.8 1451.58 804.8ZM1474.14 824V806.4L1474.62 780.8L1473.02 755.36V705.28H1497.98V824H1474.14ZM1557.4 825.28C1550.26 825.28 1543.86 823.893 1538.2 821.12C1532.66 818.347 1528.34 814.133 1525.24 808.48C1522.15 802.72 1520.6 795.413 1520.6 786.56V737.92H1545.56V782.88C1545.56 790.027 1547.06 795.307 1550.04 798.72C1553.14 802.027 1557.46 803.68 1563 803.68C1566.84 803.68 1570.26 802.88 1573.24 801.28C1576.23 799.573 1578.58 797.013 1580.28 793.6C1581.99 790.08 1582.84 785.707 1582.84 780.48V737.92H1607.8V824H1584.12V800.32L1588.44 807.2C1585.56 813.173 1581.3 817.707 1575.64 820.8C1570.1 823.787 1564.02 825.28 1557.4 825.28ZM1672.53 825.28C1663.25 825.28 1654.98 823.413 1647.73 819.68C1640.47 815.84 1634.77 810.56 1630.61 803.84C1626.55 797.12 1624.53 789.493 1624.53 780.96C1624.53 772.32 1626.55 764.693 1630.61 758.08C1634.77 751.36 1640.47 746.133 1647.73 742.4C1654.98 738.56 1663.25 736.64 1672.53 736.64C1681.59 736.64 1689.49 738.56 1696.21 742.4C1702.93 746.133 1707.89 751.52 1711.09 758.56L1691.73 768.96C1689.49 764.907 1686.66 761.92 1683.25 760C1679.94 758.08 1676.31 757.12 1672.37 757.12C1668.1 757.12 1664.26 758.08 1660.85 760C1657.43 761.92 1654.71 764.64 1652.69 768.16C1650.77 771.68 1649.81 775.947 1649.81 780.96C1649.81 785.973 1650.77 790.24 1652.69 793.76C1654.71 797.28 1657.43 800 1660.85 801.92C1664.26 803.84 1668.1 804.8 1672.37 804.8C1676.31 804.8 1679.94 803.893 1683.25 802.08C1686.66 800.16 1689.49 797.12 1691.73 792.96L1711.09 803.52C1707.89 810.453 1702.93 815.84 1696.21 819.68C1689.49 823.413 1681.59 825.28 1672.53 825.28ZM1663.41 861.12C1660.63 861.12 1657.91 860.8 1655.25 860.16C1652.69 859.52 1650.45 858.72 1648.53 857.76L1652.37 847.04C1653.97 847.787 1655.62 848.373 1657.33 848.8C1659.03 849.227 1660.85 849.44 1662.77 849.44C1665.75 849.44 1667.89 848.96 1669.17 848C1670.45 847.04 1671.09 845.813 1671.09 844.32C1671.09 842.933 1670.45 841.813 1669.17 840.96C1667.99 840.107 1666.02 839.68 1663.25 839.68H1657.81L1661.97 822.72H1675.25L1673.01 832C1677.81 832.533 1681.33 834.027 1683.57 836.48C1685.81 839.04 1686.93 841.973 1686.93 845.28C1686.93 850.08 1684.79 853.92 1680.53 856.8C1676.26 859.68 1670.55 861.12 1663.41 861.12ZM1778.26 824V807.2L1776.66 803.52V773.44C1776.66 768.107 1775 763.947 1771.7 760.96C1768.5 757.973 1763.54 756.48 1756.82 756.48C1752.23 756.48 1747.7 757.227 1743.22 758.72C1738.84 760.107 1735.11 762.027 1732.02 764.48L1723.06 747.04C1727.75 743.733 1733.4 741.173 1740.02 739.36C1746.63 737.547 1753.35 736.64 1760.18 736.64C1773.3 736.64 1783.48 739.733 1790.74 745.92C1797.99 752.107 1801.62 761.76 1801.62 774.88V824H1778.26ZM1752.02 825.28C1745.3 825.28 1739.54 824.16 1734.74 821.92C1729.94 819.573 1726.26 816.427 1723.7 812.48C1721.14 808.533 1719.86 804.107 1719.86 799.2C1719.86 794.08 1721.08 789.6 1723.54 785.76C1726.1 781.92 1730.1 778.933 1735.54 776.8C1740.98 774.56 1748.07 773.44 1756.82 773.44H1779.7V788H1759.54C1753.67 788 1749.62 788.96 1747.38 790.88C1745.24 792.8 1744.18 795.2 1744.18 798.08C1744.18 801.28 1745.4 803.84 1747.86 805.76C1750.42 807.573 1753.88 808.48 1758.26 808.48C1762.42 808.48 1766.15 807.52 1769.46 805.6C1772.76 803.573 1775.16 800.64 1776.66 796.8L1780.5 808.32C1778.68 813.867 1775.38 818.08 1770.58 820.96C1765.78 823.84 1759.59 825.28 1752.02 825.28ZM1774.74 727.36C1771.96 727.36 1769.51 726.88 1767.38 725.92C1765.24 724.853 1763.32 723.68 1761.62 722.4C1759.91 721.013 1758.31 719.84 1756.82 718.88C1755.32 717.813 1753.83 717.28 1752.34 717.28C1750.2 717.28 1748.44 718.08 1747.06 719.68C1745.67 721.173 1744.87 723.36 1744.66 726.24H1732.02C1732.23 719.093 1733.99 713.44 1737.3 709.28C1740.6 705.013 1745.08 702.88 1750.74 702.88C1753.51 702.88 1755.96 703.413 1758.1 704.48C1760.23 705.44 1762.15 706.613 1763.86 708C1765.67 709.387 1767.32 710.613 1768.82 711.68C1770.31 712.64 1771.75 713.12 1773.14 713.12C1775.38 713.12 1777.19 712.373 1778.58 710.88C1779.96 709.28 1780.71 707.147 1780.82 704.48H1793.46C1793.35 711.307 1791.59 716.853 1788.18 721.12C1784.87 725.28 1780.39 727.36 1774.74 727.36ZM1865.79 825.28C1856.62 825.28 1848.46 823.36 1841.31 819.52C1834.27 815.68 1828.67 810.453 1824.51 803.84C1820.46 797.12 1818.43 789.493 1818.43 780.96C1818.43 772.32 1820.46 764.693 1824.51 758.08C1828.67 751.36 1834.27 746.133 1841.31 742.4C1848.46 738.56 1856.62 736.64 1865.79 736.64C1874.86 736.64 1882.97 738.56 1890.11 742.4C1897.26 746.133 1902.86 751.307 1906.91 757.92C1910.97 764.533 1912.99 772.213 1912.99 780.96C1912.99 789.493 1910.97 797.12 1906.91 803.84C1902.86 810.453 1897.26 815.68 1890.11 819.52C1882.97 823.36 1874.86 825.28 1865.79 825.28ZM1865.79 804.8C1869.95 804.8 1873.69 803.84 1876.99 801.92C1880.3 800 1882.91 797.28 1884.83 793.76C1886.75 790.133 1887.71 785.867 1887.71 780.96C1887.71 775.947 1886.75 771.68 1884.83 768.16C1882.91 764.64 1880.3 761.92 1876.99 760C1873.69 758.08 1869.95 757.12 1865.79 757.12C1861.63 757.12 1857.9 758.08 1854.59 760C1851.29 761.92 1848.62 764.64 1846.59 768.16C1844.67 771.68 1843.71 775.947 1843.71 780.96C1843.71 785.867 1844.67 790.133 1846.59 793.76C1848.62 797.28 1851.29 800 1854.59 801.92C1857.9 803.84 1861.63 804.8 1865.79 804.8ZM2027.79 824V807.2L2026.19 803.52V773.44C2026.19 768.107 2024.54 763.947 2021.23 760.96C2018.03 757.973 2013.07 756.48 2006.35 756.48C2001.76 756.48 1997.23 757.227 1992.75 758.72C1988.38 760.107 1984.64 762.027 1981.55 764.48L1972.59 747.04C1977.28 743.733 1982.94 741.173 1989.55 739.36C1996.16 737.547 2002.88 736.64 2009.71 736.64C2022.83 736.64 2033.02 739.733 2040.27 745.92C2047.52 752.107 2051.15 761.76 2051.15 774.88V824H2027.79ZM2001.55 825.28C1994.83 825.28 1989.07 824.16 1984.27 821.92C1979.47 819.573 1975.79 816.427 1973.23 812.48C1970.67 808.533 1969.39 804.107 1969.39 799.2C1969.39 794.08 1970.62 789.6 1973.07 785.76C1975.63 781.92 1979.63 778.933 1985.07 776.8C1990.51 774.56 1997.6 773.44 2006.35 773.44H2029.23V788H2009.07C2003.2 788 1999.15 788.96 1996.91 790.88C1994.78 792.8 1993.71 795.2 1993.71 798.08C1993.71 801.28 1994.94 803.84 1997.39 805.76C1999.95 807.573 2003.42 808.48 2007.79 808.48C2011.95 808.48 2015.68 807.52 2018.99 805.6C2022.3 803.573 2024.7 800.64 2026.19 796.8L2030.03 808.32C2028.22 813.867 2024.91 818.08 2020.11 820.96C2015.31 823.84 2009.12 825.28 2001.55 825.28ZM2115.32 825.28C2106.15 825.28 2097.99 823.36 2090.84 819.52C2083.8 815.68 2078.2 810.453 2074.04 803.84C2069.99 797.12 2067.96 789.493 2067.96 780.96C2067.96 772.32 2069.99 764.693 2074.04 758.08C2078.2 751.36 2083.8 746.133 2090.84 742.4C2097.99 738.56 2106.15 736.64 2115.32 736.64C2124.39 736.64 2132.5 738.56 2139.64 742.4C2146.79 746.133 2152.39 751.307 2156.44 757.92C2160.5 764.533 2162.52 772.213 2162.52 780.96C2162.52 789.493 2160.5 797.12 2156.44 803.84C2152.39 810.453 2146.79 815.68 2139.64 819.52C2132.5 823.36 2124.39 825.28 2115.32 825.28ZM2115.32 804.8C2119.48 804.8 2123.22 803.84 2126.52 801.92C2129.83 800 2132.44 797.28 2134.36 793.76C2136.28 790.133 2137.24 785.867 2137.24 780.96C2137.24 775.947 2136.28 771.68 2134.36 768.16C2132.44 764.64 2129.83 761.92 2126.52 760C2123.22 758.08 2119.48 757.12 2115.32 757.12C2111.16 757.12 2107.43 758.08 2104.12 760C2100.82 761.92 2098.15 764.64 2096.12 768.16C2094.2 771.68 2093.24 775.947 2093.24 780.96C2093.24 785.867 2094.2 790.133 2096.12 793.76C2098.15 797.28 2100.82 800 2104.12 801.92C2107.43 803.84 2111.16 804.8 2115.32 804.8ZM2208.17 825.28C2200.81 825.28 2193.71 824.427 2186.89 822.72C2180.17 820.907 2174.83 818.667 2170.89 816L2179.21 798.08C2183.15 800.533 2187.79 802.56 2193.13 804.16C2198.57 805.653 2203.9 806.4 2209.13 806.4C2214.89 806.4 2218.94 805.707 2221.29 804.32C2223.74 802.933 2224.97 801.013 2224.97 798.56C2224.97 796.533 2224.01 795.04 2222.09 794.08C2220.27 793.013 2217.82 792.213 2214.73 791.68C2211.63 791.147 2208.22 790.613 2204.49 790.08C2200.86 789.547 2197.18 788.853 2193.45 788C2189.71 787.04 2186.3 785.653 2183.21 783.84C2180.11 782.027 2177.61 779.573 2175.69 776.48C2173.87 773.387 2172.97 769.387 2172.97 764.48C2172.97 759.04 2174.51 754.24 2177.61 750.08C2180.81 745.92 2185.39 742.667 2191.37 740.32C2197.34 737.867 2204.49 736.64 2212.81 736.64C2218.67 736.64 2224.65 737.28 2230.73 738.56C2236.81 739.84 2241.87 741.707 2245.93 744.16L2237.61 761.92C2233.45 759.467 2229.23 757.813 2224.97 756.96C2220.81 756 2216.75 755.52 2212.81 755.52C2207.26 755.52 2203.21 756.267 2200.65 757.76C2198.09 759.253 2196.81 761.173 2196.81 763.52C2196.81 765.653 2197.71 767.253 2199.53 768.32C2201.45 769.387 2203.95 770.24 2207.05 770.88C2210.14 771.52 2213.5 772.107 2217.13 772.64C2220.86 773.067 2224.59 773.76 2228.33 774.72C2232.06 775.68 2235.42 777.067 2238.41 778.88C2241.5 780.587 2244.01 782.987 2245.93 786.08C2247.85 789.067 2248.81 793.013 2248.81 797.92C2248.81 803.253 2247.21 808 2244.01 812.16C2240.81 816.213 2236.17 819.413 2230.09 821.76C2224.11 824.107 2216.81 825.28 2208.17 825.28ZM2419.76 736.64C2426.59 736.64 2432.61 738.027 2437.84 740.8C2443.17 743.467 2447.33 747.627 2450.32 753.28C2453.41 758.827 2454.96 765.973 2454.96 774.72V824H2430V778.56C2430 771.627 2428.56 766.507 2425.68 763.2C2422.8 759.893 2418.75 758.24 2413.52 758.24C2409.89 758.24 2406.64 759.093 2403.76 760.8C2400.88 762.4 2398.64 764.853 2397.04 768.16C2395.44 771.467 2394.64 775.68 2394.64 780.8V824H2369.68V778.56C2369.68 771.627 2368.24 766.507 2365.36 763.2C2362.59 759.893 2358.59 758.24 2353.36 758.24C2349.73 758.24 2346.48 759.093 2343.6 760.8C2340.72 762.4 2338.48 764.853 2336.88 768.16C2335.28 771.467 2334.48 775.68 2334.48 780.8V824H2309.52V737.92H2333.36V761.44L2328.88 754.56C2331.87 748.693 2336.08 744.267 2341.52 741.28C2347.07 738.187 2353.36 736.64 2360.4 736.64C2368.29 736.64 2375.17 738.667 2381.04 742.72C2387.01 746.667 2390.96 752.747 2392.88 760.96L2384.08 758.56C2386.96 751.84 2391.55 746.507 2397.84 742.56C2404.24 738.613 2411.55 736.64 2419.76 736.64ZM2530.13 824V807.2L2528.53 803.52V773.44C2528.53 768.107 2526.88 763.947 2523.57 760.96C2520.37 757.973 2515.41 756.48 2508.69 756.48C2504.11 756.48 2499.57 757.227 2495.09 758.72C2490.72 760.107 2486.99 762.027 2483.89 764.48L2474.93 747.04C2479.63 743.733 2485.28 741.173 2491.89 739.36C2498.51 737.547 2505.23 736.64 2512.05 736.64C2525.17 736.64 2535.36 739.733 2542.61 745.92C2549.87 752.107 2553.49 761.76 2553.49 774.88V824H2530.13ZM2503.89 825.28C2497.17 825.28 2491.41 824.16 2486.61 821.92C2481.81 819.573 2478.13 816.427 2475.57 812.48C2473.01 808.533 2471.73 804.107 2471.73 799.2C2471.73 794.08 2472.96 789.6 2475.41 785.76C2477.97 781.92 2481.97 778.933 2487.41 776.8C2492.85 774.56 2499.95 773.44 2508.69 773.44H2531.57V788H2511.41C2505.55 788 2501.49 788.96 2499.25 790.88C2497.12 792.8 2496.05 795.2 2496.05 798.08C2496.05 801.28 2497.28 803.84 2499.73 805.76C2502.29 807.573 2505.76 808.48 2510.13 808.48C2514.29 808.48 2518.03 807.52 2521.33 805.6C2524.64 803.573 2527.04 800.64 2528.53 796.8L2532.37 808.32C2530.56 813.867 2527.25 818.08 2522.45 820.96C2517.65 823.84 2511.47 825.28 2503.89 825.28ZM2611.28 825.28C2601.15 825.28 2593.26 822.72 2587.6 817.6C2581.95 812.373 2579.12 804.64 2579.12 794.4V718.88H2604.08V794.08C2604.08 797.707 2605.04 800.533 2606.96 802.56C2608.88 804.48 2611.5 805.44 2614.8 805.44C2618.75 805.44 2622.11 804.373 2624.88 802.24L2631.6 819.84C2629.04 821.653 2625.95 823.04 2622.32 824C2618.8 824.853 2615.12 825.28 2611.28 825.28ZM2565.84 759.04V739.84H2625.52V759.04H2565.84ZM2685.68 825.28C2675.86 825.28 2667.22 823.36 2659.76 819.52C2652.4 815.68 2646.69 810.453 2642.64 803.84C2638.58 797.12 2636.56 789.493 2636.56 780.96C2636.56 772.32 2638.53 764.693 2642.48 758.08C2646.53 751.36 2652.02 746.133 2658.96 742.4C2665.89 738.56 2673.73 736.64 2682.48 736.64C2690.9 736.64 2698.48 738.453 2705.2 742.08C2712.02 745.6 2717.41 750.72 2721.36 757.44C2725.3 764.053 2727.28 772 2727.28 781.28C2727.28 782.24 2727.22 783.36 2727.12 784.64C2727.01 785.813 2726.9 786.933 2726.8 788H2656.88V773.44H2713.68L2704.08 777.76C2704.08 773.28 2703.17 769.387 2701.36 766.08C2699.54 762.773 2697.04 760.213 2693.84 758.4C2690.64 756.48 2686.9 755.52 2682.64 755.52C2678.37 755.52 2674.58 756.48 2671.28 758.4C2668.08 760.213 2665.57 762.827 2663.76 766.24C2661.94 769.547 2661.04 773.493 2661.04 778.08V781.92C2661.04 786.613 2662.05 790.773 2664.08 794.4C2666.21 797.92 2669.14 800.64 2672.88 802.56C2676.72 804.373 2681.2 805.28 2686.32 805.28C2690.9 805.28 2694.9 804.587 2698.32 803.2C2701.84 801.813 2705.04 799.733 2707.92 796.96L2721.2 811.36C2717.25 815.84 2712.29 819.307 2706.32 821.76C2700.34 824.107 2693.46 825.28 2685.68 825.28ZM2743.9 824V737.92H2767.74V762.24L2764.38 755.2C2766.94 749.12 2771.04 744.533 2776.7 741.44C2782.35 738.24 2789.23 736.64 2797.34 736.64V759.68C2796.27 759.573 2795.31 759.52 2794.46 759.52C2793.6 759.413 2792.7 759.36 2791.74 759.36C2784.91 759.36 2779.36 761.333 2775.1 765.28C2770.94 769.12 2768.86 775.147 2768.86 783.36V824H2743.9ZM2812.33 824V737.92H2837.29V824H2812.33ZM2824.81 725.92C2820.23 725.92 2816.49 724.587 2813.61 721.92C2810.73 719.253 2809.29 715.947 2809.29 712C2809.29 708.053 2810.73 704.747 2813.61 702.08C2816.49 699.413 2820.23 698.08 2824.81 698.08C2829.4 698.08 2833.13 699.36 2836.01 701.92C2838.89 704.373 2840.33 707.573 2840.33 711.52C2840.33 715.68 2838.89 719.147 2836.01 721.92C2833.24 724.587 2829.51 725.92 2824.81 725.92ZM2913.26 824V807.2L2911.66 803.52V773.44C2911.66 768.107 2910 763.947 2906.7 760.96C2903.5 757.973 2898.54 756.48 2891.82 756.48C2887.23 756.48 2882.7 757.227 2878.22 758.72C2873.84 760.107 2870.11 762.027 2867.02 764.48L2858.06 747.04C2862.75 743.733 2868.4 741.173 2875.02 739.36C2881.63 737.547 2888.35 736.64 2895.18 736.64C2908.3 736.64 2918.48 739.733 2925.74 745.92C2932.99 752.107 2936.62 761.76 2936.62 774.88V824H2913.26ZM2887.02 825.28C2880.3 825.28 2874.54 824.16 2869.74 821.92C2864.94 819.573 2861.26 816.427 2858.7 812.48C2856.14 808.533 2854.86 804.107 2854.86 799.2C2854.86 794.08 2856.08 789.6 2858.54 785.76C2861.1 781.92 2865.1 778.933 2870.54 776.8C2875.98 774.56 2883.07 773.44 2891.82 773.44H2914.7V788H2894.54C2888.67 788 2884.62 788.96 2882.38 790.88C2880.24 792.8 2879.18 795.2 2879.18 798.08C2879.18 801.28 2880.4 803.84 2882.86 805.76C2885.42 807.573 2888.88 808.48 2893.26 808.48C2897.42 808.48 2901.15 807.52 2904.46 805.6C2907.76 803.573 2910.16 800.64 2911.66 796.8L2915.5 808.32C2913.68 813.867 2910.38 818.08 2905.58 820.96C2900.78 823.84 2894.59 825.28 2887.02 825.28ZM2959.21 824V737.92H2984.17V824H2959.21ZM2971.69 725.92C2967.1 725.92 2963.37 724.587 2960.49 721.92C2957.61 719.253 2956.17 715.947 2956.17 712C2956.17 708.053 2957.61 704.747 2960.49 702.08C2963.37 699.413 2967.1 698.08 2971.69 698.08C2976.27 698.08 2980.01 699.36 2982.89 701.92C2985.77 704.373 2987.21 707.573 2987.21 711.52C2987.21 715.68 2985.77 719.147 2982.89 721.92C2980.11 724.587 2976.38 725.92 2971.69 725.92ZM3036.29 825.28C3028.93 825.28 3021.84 824.427 3015.01 822.72C3008.29 820.907 3002.96 818.667 2999.01 816L3007.33 798.08C3011.28 800.533 3015.92 802.56 3021.25 804.16C3026.69 805.653 3032.03 806.4 3037.25 806.4C3043.01 806.4 3047.07 805.707 3049.41 804.32C3051.87 802.933 3053.09 801.013 3053.09 798.56C3053.09 796.533 3052.13 795.04 3050.21 794.08C3048.4 793.013 3045.95 792.213 3042.85 791.68C3039.76 791.147 3036.35 790.613 3032.61 790.08C3028.99 789.547 3025.31 788.853 3021.57 788C3017.84 787.04 3014.43 785.653 3011.33 783.84C3008.24 782.027 3005.73 779.573 3003.81 776.48C3002 773.387 3001.09 769.387 3001.09 764.48C3001.09 759.04 3002.64 754.24 3005.73 750.08C3008.93 745.92 3013.52 742.667 3019.49 740.32C3025.47 737.867 3032.61 736.64 3040.93 736.64C3046.8 736.64 3052.77 737.28 3058.85 738.56C3064.93 739.84 3070 741.707 3074.05 744.16L3065.73 761.92C3061.57 759.467 3057.36 757.813 3053.09 756.96C3048.93 756 3044.88 755.52 3040.93 755.52C3035.39 755.52 3031.33 756.267 3028.77 757.76C3026.21 759.253 3024.93 761.173 3024.93 763.52C3024.93 765.653 3025.84 767.253 3027.65 768.32C3029.57 769.387 3032.08 770.24 3035.17 770.88C3038.27 771.52 3041.63 772.107 3045.25 772.64C3048.99 773.067 3052.72 773.76 3056.45 774.72C3060.19 775.68 3063.55 777.067 3066.53 778.88C3069.63 780.587 3072.13 782.987 3074.05 786.08C3075.97 789.067 3076.93 793.013 3076.93 797.92C3076.93 803.253 3075.33 808 3072.13 812.16C3068.93 816.213 3064.29 819.413 3058.21 821.76C3052.24 824.107 3044.93 825.28 3036.29 825.28ZM1046.48 1030.28C1038.37 1030.28 1031.07 1028.47 1024.56 1024.84C1018.05 1021.11 1012.88 1015.93 1009.04 1009.32C1005.31 1002.71 1003.44 994.92 1003.44 985.96C1003.44 976.893 1005.31 969.053 1009.04 962.44C1012.88 955.827 1018.05 950.707 1024.56 947.08C1031.07 943.453 1038.37 941.64 1046.48 941.64C1053.73 941.64 1060.08 943.24 1065.52 946.44C1070.96 949.64 1075.17 954.493 1078.16 961C1081.15 967.507 1082.64 975.827 1082.64 985.96C1082.64 995.987 1081.2 1004.31 1078.32 1010.92C1075.44 1017.43 1071.28 1022.28 1065.84 1025.48C1060.51 1028.68 1054.05 1030.28 1046.48 1030.28ZM1050.8 1009.8C1054.85 1009.8 1058.53 1008.84 1061.84 1006.92C1065.15 1005 1067.76 1002.28 1069.68 998.76C1071.71 995.133 1072.72 990.867 1072.72 985.96C1072.72 980.947 1071.71 976.68 1069.68 973.16C1067.76 969.64 1065.15 966.92 1061.84 965C1058.53 963.08 1054.85 962.12 1050.8 962.12C1046.64 962.12 1042.91 963.08 1039.6 965C1036.29 966.92 1033.63 969.64 1031.6 973.16C1029.68 976.68 1028.72 980.947 1028.72 985.96C1028.72 990.867 1029.68 995.133 1031.6 998.76C1033.63 1002.28 1036.29 1005 1039.6 1006.92C1042.91 1008.84 1046.64 1009.8 1050.8 1009.8ZM1073.36 1029V1011.4L1073.84 985.8L1072.24 960.36V910.28H1097.2V1029H1073.36ZM1173.1 1029V1012.2L1171.5 1008.52V978.44C1171.5 973.107 1169.85 968.947 1166.54 965.96C1163.34 962.973 1158.38 961.48 1151.66 961.48C1147.07 961.48 1142.54 962.227 1138.06 963.72C1133.69 965.107 1129.95 967.027 1126.86 969.48L1117.9 952.04C1122.59 948.733 1128.25 946.173 1134.86 944.36C1141.47 942.547 1148.19 941.64 1155.02 941.64C1168.14 941.64 1178.33 944.733 1185.58 950.92C1192.83 957.107 1196.46 966.76 1196.46 979.88V1029H1173.1ZM1146.86 1030.28C1140.14 1030.28 1134.38 1029.16 1129.58 1026.92C1124.78 1024.57 1121.1 1021.43 1118.54 1017.48C1115.98 1013.53 1114.7 1009.11 1114.7 1004.2C1114.7 999.08 1115.93 994.6 1118.38 990.76C1120.94 986.92 1124.94 983.933 1130.38 981.8C1135.82 979.56 1142.91 978.44 1151.66 978.44H1174.54V993H1154.38C1148.51 993 1144.46 993.96 1142.22 995.88C1140.09 997.8 1139.02 1000.2 1139.02 1003.08C1139.02 1006.28 1140.25 1008.84 1142.7 1010.76C1145.26 1012.57 1148.73 1013.48 1153.1 1013.48C1157.26 1013.48 1160.99 1012.52 1164.3 1010.6C1167.61 1008.57 1170.01 1005.64 1171.5 1001.8L1175.34 1013.32C1173.53 1018.87 1170.22 1023.08 1165.42 1025.96C1160.62 1028.84 1154.43 1030.28 1146.86 1030.28ZM1374.6 941.64C1381.43 941.64 1387.46 943.027 1392.68 945.8C1398.02 948.467 1402.18 952.627 1405.16 958.28C1408.26 963.827 1409.8 970.973 1409.8 979.72V1029H1384.84V983.56C1384.84 976.627 1383.4 971.507 1380.52 968.2C1377.64 964.893 1373.59 963.24 1368.36 963.24C1364.74 963.24 1361.48 964.093 1358.6 965.8C1355.72 967.4 1353.48 969.853 1351.88 973.16C1350.28 976.467 1349.48 980.68 1349.48 985.8V1029H1324.52V983.56C1324.52 976.627 1323.08 971.507 1320.2 968.2C1317.43 964.893 1313.43 963.24 1308.2 963.24C1304.58 963.24 1301.32 964.093 1298.44 965.8C1295.56 967.4 1293.32 969.853 1291.72 973.16C1290.12 976.467 1289.32 980.68 1289.32 985.8V1029H1264.36V942.92H1288.2V966.44L1283.72 959.56C1286.71 953.693 1290.92 949.267 1296.36 946.28C1301.91 943.187 1308.2 941.64 1315.24 941.64C1323.14 941.64 1330.02 943.667 1335.88 947.72C1341.86 951.667 1345.8 957.747 1347.72 965.96L1338.92 963.56C1341.8 956.84 1346.39 951.507 1352.68 947.56C1359.08 943.613 1366.39 941.64 1374.6 941.64ZM1432.18 1029V942.92H1457.14V1029H1432.18ZM1430.1 931.88L1451.7 908.84H1478.58L1449.62 931.88H1430.1ZM1517.26 1030.28C1509.15 1030.28 1501.85 1028.47 1495.34 1024.84C1488.83 1021.11 1483.66 1015.93 1479.82 1009.32C1476.09 1002.71 1474.22 994.92 1474.22 985.96C1474.22 976.893 1476.09 969.053 1479.82 962.44C1483.66 955.827 1488.83 950.707 1495.34 947.08C1501.85 943.453 1509.15 941.64 1517.26 941.64C1524.51 941.64 1530.86 943.24 1536.3 946.44C1541.74 949.64 1545.95 954.493 1548.94 961C1551.93 967.507 1553.42 975.827 1553.42 985.96C1553.42 995.987 1551.98 1004.31 1549.1 1010.92C1546.22 1017.43 1542.06 1022.28 1536.62 1025.48C1531.29 1028.68 1524.83 1030.28 1517.26 1030.28ZM1521.58 1009.8C1525.63 1009.8 1529.31 1008.84 1532.62 1006.92C1535.93 1005 1538.54 1002.28 1540.46 998.76C1542.49 995.133 1543.5 990.867 1543.5 985.96C1543.5 980.947 1542.49 976.68 1540.46 973.16C1538.54 969.64 1535.93 966.92 1532.62 965C1529.31 963.08 1525.63 962.12 1521.58 962.12C1517.42 962.12 1513.69 963.08 1510.38 965C1507.07 966.92 1504.41 969.64 1502.38 973.16C1500.46 976.68 1499.5 980.947 1499.5 985.96C1499.5 990.867 1500.46 995.133 1502.38 998.76C1504.41 1002.28 1507.07 1005 1510.38 1006.92C1513.69 1008.84 1517.42 1009.8 1521.58 1009.8ZM1544.14 1029V1011.4L1544.62 985.8L1543.02 960.36V910.28H1567.98V1029H1544.14ZM1591.08 1029V942.92H1616.04V1029H1591.08ZM1603.56 930.92C1598.98 930.92 1595.24 929.587 1592.36 926.92C1589.48 924.253 1588.04 920.947 1588.04 917C1588.04 913.053 1589.48 909.747 1592.36 907.08C1595.24 904.413 1598.98 903.08 1603.56 903.08C1608.15 903.08 1611.88 904.36 1614.76 906.92C1617.64 909.373 1619.08 912.573 1619.08 916.52C1619.08 920.68 1617.64 924.147 1614.76 926.92C1611.99 929.587 1608.26 930.92 1603.56 930.92ZM1692.01 1029V1012.2L1690.41 1008.52V978.44C1690.41 973.107 1688.75 968.947 1685.45 965.96C1682.25 962.973 1677.29 961.48 1670.57 961.48C1665.98 961.48 1661.45 962.227 1656.97 963.72C1652.59 965.107 1648.86 967.027 1645.77 969.48L1636.81 952.04C1641.5 948.733 1647.15 946.173 1653.77 944.36C1660.38 942.547 1667.1 941.64 1673.93 941.64C1687.05 941.64 1697.23 944.733 1704.49 950.92C1711.74 957.107 1715.37 966.76 1715.37 979.88V1029H1692.01ZM1665.77 1030.28C1659.05 1030.28 1653.29 1029.16 1648.49 1026.92C1643.69 1024.57 1640.01 1021.43 1637.45 1017.48C1634.89 1013.53 1633.61 1009.11 1633.61 1004.2C1633.61 999.08 1634.83 994.6 1637.29 990.76C1639.85 986.92 1643.85 983.933 1649.29 981.8C1654.73 979.56 1661.82 978.44 1670.57 978.44H1693.45V993H1673.29C1667.42 993 1663.37 993.96 1661.13 995.88C1658.99 997.8 1657.93 1000.2 1657.93 1003.08C1657.93 1006.28 1659.15 1008.84 1661.61 1010.76C1664.17 1012.57 1667.63 1013.48 1672.01 1013.48C1676.17 1013.48 1679.9 1012.52 1683.21 1010.6C1686.51 1008.57 1688.91 1005.64 1690.41 1001.8L1694.25 1013.32C1692.43 1018.87 1689.13 1023.08 1684.33 1025.96C1679.53 1028.84 1673.34 1030.28 1665.77 1030.28ZM1824.87 1030.28C1815.59 1030.28 1807.32 1028.41 1800.07 1024.68C1792.82 1020.84 1787.11 1015.56 1782.95 1008.84C1778.9 1002.12 1776.87 994.493 1776.87 985.96C1776.87 977.32 1778.9 969.693 1782.95 963.08C1787.11 956.36 1792.82 951.133 1800.07 947.4C1807.32 943.56 1815.59 941.64 1824.87 941.64C1833.94 941.64 1841.83 943.56 1848.55 947.4C1855.27 951.133 1860.23 956.52 1863.43 963.56L1844.07 973.96C1841.83 969.907 1839 966.92 1835.59 965C1832.28 963.08 1828.66 962.12 1824.71 962.12C1820.44 962.12 1816.6 963.08 1813.19 965C1809.78 966.92 1807.06 969.64 1805.03 973.16C1803.11 976.68 1802.15 980.947 1802.15 985.96C1802.15 990.973 1803.11 995.24 1805.03 998.76C1807.06 1002.28 1809.78 1005 1813.19 1006.92C1816.6 1008.84 1820.44 1009.8 1824.71 1009.8C1828.66 1009.8 1832.28 1008.89 1835.59 1007.08C1839 1005.16 1841.83 1002.12 1844.07 997.96L1863.43 1008.52C1860.23 1015.45 1855.27 1020.84 1848.55 1024.68C1841.83 1028.41 1833.94 1030.28 1824.87 1030.28ZM1917.67 1030.28C1908.49 1030.28 1900.33 1028.36 1893.19 1024.52C1886.15 1020.68 1880.55 1015.45 1876.39 1008.84C1872.33 1002.12 1870.31 994.493 1870.31 985.96C1870.31 977.32 1872.33 969.693 1876.39 963.08C1880.55 956.36 1886.15 951.133 1893.19 947.4C1900.33 943.56 1908.49 941.64 1917.67 941.64C1926.73 941.64 1934.84 943.56 1941.99 947.4C1949.13 951.133 1954.73 956.307 1958.79 962.92C1962.84 969.533 1964.87 977.213 1964.87 985.96C1964.87 994.493 1962.84 1002.12 1958.79 1008.84C1954.73 1015.45 1949.13 1020.68 1941.99 1024.52C1934.84 1028.36 1926.73 1030.28 1917.67 1030.28ZM1917.67 1009.8C1921.83 1009.8 1925.56 1008.84 1928.87 1006.92C1932.17 1005 1934.79 1002.28 1936.71 998.76C1938.63 995.133 1939.59 990.867 1939.59 985.96C1939.59 980.947 1938.63 976.68 1936.71 973.16C1934.79 969.64 1932.17 966.92 1928.87 965C1925.56 963.08 1921.83 962.12 1917.67 962.12C1913.51 962.12 1909.77 963.08 1906.47 965C1903.16 966.92 1900.49 969.64 1898.47 973.16C1896.55 976.68 1895.59 980.947 1895.59 985.96C1895.59 990.867 1896.55 995.133 1898.47 998.76C1900.49 1002.28 1903.16 1005 1906.47 1006.92C1909.77 1008.84 1913.51 1009.8 1917.67 1009.8ZM2091.79 941.64C2098.62 941.64 2104.64 943.027 2109.87 945.8C2115.2 948.467 2119.36 952.627 2122.35 958.28C2125.44 963.827 2126.99 970.973 2126.99 979.72V1029H2102.03V983.56C2102.03 976.627 2100.59 971.507 2097.71 968.2C2094.83 964.893 2090.78 963.24 2085.55 963.24C2081.92 963.24 2078.67 964.093 2075.79 965.8C2072.91 967.4 2070.67 969.853 2069.07 973.16C2067.47 976.467 2066.67 980.68 2066.67 985.8V1029H2041.71V983.56C2041.71 976.627 2040.27 971.507 2037.39 968.2C2034.62 964.893 2030.62 963.24 2025.39 963.24C2021.76 963.24 2018.51 964.093 2015.63 965.8C2012.75 967.4 2010.51 969.853 2008.91 973.16C2007.31 976.467 2006.51 980.68 2006.51 985.8V1029H1981.55V942.92H2005.39V966.44L2000.91 959.56C2003.9 953.693 2008.11 949.267 2013.55 946.28C2019.1 943.187 2025.39 941.64 2032.43 941.64C2040.32 941.64 2047.2 943.667 2053.07 947.72C2059.04 951.667 2062.99 957.747 2064.91 965.96L2056.11 963.56C2058.99 956.84 2063.58 951.507 2069.87 947.56C2076.27 943.613 2083.58 941.64 2091.79 941.64ZM2200.24 1030.28C2192.99 1030.28 2186.64 1028.68 2181.2 1025.48C2175.76 1022.28 2171.5 1017.43 2168.4 1010.92C2165.42 1004.31 2163.92 995.987 2163.92 985.96C2163.92 975.827 2165.36 967.507 2168.24 961C2171.12 954.493 2175.28 949.64 2180.72 946.44C2186.16 943.24 2192.67 941.64 2200.24 941.64C2208.35 941.64 2215.6 943.507 2222 947.24C2228.51 950.867 2233.63 955.987 2237.36 962.6C2241.2 969.213 2243.12 977 2243.12 985.96C2243.12 995.027 2241.2 1002.87 2237.36 1009.48C2233.63 1016.09 2228.51 1021.21 2222 1024.84C2215.6 1028.47 2208.35 1030.28 2200.24 1030.28ZM2149.36 1060.04V942.92H2173.2V960.52L2172.72 986.12L2174.32 1011.56V1060.04H2149.36ZM2195.92 1009.8C2200.08 1009.8 2203.76 1008.84 2206.96 1006.92C2210.27 1005 2212.88 1002.28 2214.8 998.76C2216.83 995.133 2217.84 990.867 2217.84 985.96C2217.84 980.947 2216.83 976.68 2214.8 973.16C2212.88 969.64 2210.27 966.92 2206.96 965C2203.76 963.08 2200.08 962.12 2195.92 962.12C2191.76 962.12 2188.03 963.08 2184.72 965C2181.42 966.92 2178.8 969.64 2176.88 973.16C2174.96 976.68 2174 980.947 2174 985.96C2174 990.867 2174.96 995.133 2176.88 998.76C2178.8 1002.28 2181.42 1005 2184.72 1006.92C2188.03 1008.84 2191.76 1009.8 2195.92 1009.8ZM2296.15 1030.28C2289.01 1030.28 2282.61 1028.89 2276.95 1026.12C2271.41 1023.35 2267.09 1019.13 2263.99 1013.48C2260.9 1007.72 2259.35 1000.41 2259.35 991.56V942.92H2284.31V987.88C2284.31 995.027 2285.81 1000.31 2288.79 1003.72C2291.89 1007.03 2296.21 1008.68 2301.75 1008.68C2305.59 1008.68 2309.01 1007.88 2311.99 1006.28C2314.98 1004.57 2317.33 1002.01 2319.03 998.6C2320.74 995.08 2321.59 990.707 2321.59 985.48V942.92H2346.55V1029H2322.87V1005.32L2327.19 1012.2C2324.31 1018.17 2320.05 1022.71 2314.39 1025.8C2308.85 1028.79 2302.77 1030.28 2296.15 1030.28ZM2404.88 1030.28C2394.74 1030.28 2386.85 1027.72 2381.2 1022.6C2375.54 1017.37 2372.72 1009.64 2372.72 999.4V923.88H2397.68V999.08C2397.68 1002.71 2398.64 1005.53 2400.56 1007.56C2402.48 1009.48 2405.09 1010.44 2408.4 1010.44C2412.34 1010.44 2415.7 1009.37 2418.48 1007.24L2425.2 1024.84C2422.64 1026.65 2419.54 1028.04 2415.92 1029C2412.4 1029.85 2408.72 1030.28 2404.88 1030.28ZM2359.44 964.04V944.84H2419.12V964.04H2359.44ZM2492.01 1029V1012.2L2490.41 1008.52V978.44C2490.41 973.107 2488.75 968.947 2485.45 965.96C2482.25 962.973 2477.29 961.48 2470.57 961.48C2465.98 961.48 2461.45 962.227 2456.97 963.72C2452.59 965.107 2448.86 967.027 2445.77 969.48L2436.81 952.04C2441.5 948.733 2447.15 946.173 2453.77 944.36C2460.38 942.547 2467.1 941.64 2473.93 941.64C2487.05 941.64 2497.23 944.733 2504.49 950.92C2511.74 957.107 2515.37 966.76 2515.37 979.88V1029H2492.01ZM2465.77 1030.28C2459.05 1030.28 2453.29 1029.16 2448.49 1026.92C2443.69 1024.57 2440.01 1021.43 2437.45 1017.48C2434.89 1013.53 2433.61 1009.11 2433.61 1004.2C2433.61 999.08 2434.83 994.6 2437.29 990.76C2439.85 986.92 2443.85 983.933 2449.29 981.8C2454.73 979.56 2461.82 978.44 2470.57 978.44H2493.45V993H2473.29C2467.42 993 2463.37 993.96 2461.13 995.88C2458.99 997.8 2457.93 1000.2 2457.93 1003.08C2457.93 1006.28 2459.15 1008.84 2461.61 1010.76C2464.17 1012.57 2467.63 1013.48 2472.01 1013.48C2476.17 1013.48 2479.9 1012.52 2483.21 1010.6C2486.51 1008.57 2488.91 1005.64 2490.41 1001.8L2494.25 1013.32C2492.43 1018.87 2489.13 1023.08 2484.33 1025.96C2479.53 1028.84 2473.34 1030.28 2465.77 1030.28ZM2580.18 1030.28C2570.9 1030.28 2562.64 1028.41 2555.38 1024.68C2548.13 1020.84 2542.42 1015.56 2538.26 1008.84C2534.21 1002.12 2532.18 994.493 2532.18 985.96C2532.18 977.32 2534.21 969.693 2538.26 963.08C2542.42 956.36 2548.13 951.133 2555.38 947.4C2562.64 943.56 2570.9 941.64 2580.18 941.64C2589.25 941.64 2597.14 943.56 2603.86 947.4C2610.58 951.133 2615.54 956.52 2618.74 963.56L2599.38 973.96C2597.14 969.907 2594.32 966.92 2590.9 965C2587.6 963.08 2583.97 962.12 2580.02 962.12C2575.76 962.12 2571.92 963.08 2568.5 965C2565.09 966.92 2562.37 969.64 2560.34 973.16C2558.42 976.68 2557.46 980.947 2557.46 985.96C2557.46 990.973 2558.42 995.24 2560.34 998.76C2562.37 1002.28 2565.09 1005 2568.5 1006.92C2571.92 1008.84 2575.76 1009.8 2580.02 1009.8C2583.97 1009.8 2587.6 1008.89 2590.9 1007.08C2594.32 1005.16 2597.14 1002.12 2599.38 997.96L2618.74 1008.52C2615.54 1015.45 2610.58 1020.84 2603.86 1024.68C2597.14 1028.41 2589.25 1030.28 2580.18 1030.28ZM2632.65 1029V942.92H2657.61V1029H2632.65ZM2645.13 930.92C2640.54 930.92 2636.81 929.587 2633.93 926.92C2631.05 924.253 2629.61 920.947 2629.61 917C2629.61 913.053 2631.05 909.747 2633.93 907.08C2636.81 904.413 2640.54 903.08 2645.13 903.08C2649.71 903.08 2653.45 904.36 2656.33 906.92C2659.21 909.373 2660.65 912.573 2660.65 916.52C2660.65 920.68 2659.21 924.147 2656.33 926.92C2653.55 929.587 2649.82 930.92 2645.13 930.92ZM2721.73 1030.28C2712.56 1030.28 2704.4 1028.36 2697.25 1024.52C2690.21 1020.68 2684.61 1015.45 2680.45 1008.84C2676.4 1002.12 2674.37 994.493 2674.37 985.96C2674.37 977.32 2676.4 969.693 2680.45 963.08C2684.61 956.36 2690.21 951.133 2697.25 947.4C2704.4 943.56 2712.56 941.64 2721.73 941.64C2730.8 941.64 2738.9 943.56 2746.05 947.4C2753.2 951.133 2758.8 956.307 2762.85 962.92C2766.9 969.533 2768.93 977.213 2768.93 985.96C2768.93 994.493 2766.9 1002.12 2762.85 1008.84C2758.8 1015.45 2753.2 1020.68 2746.05 1024.52C2738.9 1028.36 2730.8 1030.28 2721.73 1030.28ZM2721.73 1009.8C2725.89 1009.8 2729.62 1008.84 2732.93 1006.92C2736.24 1005 2738.85 1002.28 2740.77 998.76C2742.69 995.133 2743.65 990.867 2743.65 985.96C2743.65 980.947 2742.69 976.68 2740.77 973.16C2738.85 969.64 2736.24 966.92 2732.93 965C2729.62 963.08 2725.89 962.12 2721.73 962.12C2717.57 962.12 2713.84 963.08 2710.53 965C2707.22 966.92 2704.56 969.64 2702.53 973.16C2700.61 976.68 2699.65 980.947 2699.65 985.96C2699.65 990.867 2700.61 995.133 2702.53 998.76C2704.56 1002.28 2707.22 1005 2710.53 1006.92C2713.84 1008.84 2717.57 1009.8 2721.73 1009.8ZM2837.93 941.64C2844.76 941.64 2850.84 943.027 2856.17 945.8C2861.61 948.467 2865.88 952.627 2868.97 958.28C2872.07 963.827 2873.61 970.973 2873.61 979.72V1029H2848.65V983.56C2848.65 976.627 2847.11 971.507 2844.01 968.2C2841.03 964.893 2836.76 963.24 2831.21 963.24C2827.27 963.24 2823.69 964.093 2820.49 965.8C2817.4 967.4 2814.95 969.907 2813.13 973.32C2811.43 976.733 2810.57 981.107 2810.57 986.44V1029H2785.61V942.92H2809.45V966.76L2804.97 959.56C2808.07 953.8 2812.49 949.373 2818.25 946.28C2824.01 943.187 2830.57 941.64 2837.93 941.64ZM2949.04 1029V1012.2L2947.44 1008.52V978.44C2947.44 973.107 2945.79 968.947 2942.48 965.96C2939.28 962.973 2934.32 961.48 2927.6 961.48C2923.01 961.48 2918.48 962.227 2914 963.72C2909.63 965.107 2905.89 967.027 2902.8 969.48L2893.84 952.04C2898.53 948.733 2904.19 946.173 2910.8 944.36C2917.41 942.547 2924.13 941.64 2930.96 941.64C2944.08 941.64 2954.27 944.733 2961.52 950.92C2968.77 957.107 2972.4 966.76 2972.4 979.88V1029H2949.04ZM2922.8 1030.28C2916.08 1030.28 2910.32 1029.16 2905.52 1026.92C2900.72 1024.57 2897.04 1021.43 2894.48 1017.48C2891.92 1013.53 2890.64 1009.11 2890.64 1004.2C2890.64 999.08 2891.87 994.6 2894.32 990.76C2896.88 986.92 2900.88 983.933 2906.32 981.8C2911.76 979.56 2918.85 978.44 2927.6 978.44H2950.48V993H2930.32C2924.45 993 2920.4 993.96 2918.16 995.88C2916.03 997.8 2914.96 1000.2 2914.96 1003.08C2914.96 1006.28 2916.19 1008.84 2918.64 1010.76C2921.2 1012.57 2924.67 1013.48 2929.04 1013.48C2933.2 1013.48 2936.93 1012.52 2940.24 1010.6C2943.55 1008.57 2945.95 1005.64 2947.44 1001.8L2951.28 1013.32C2949.47 1018.87 2946.16 1023.08 2941.36 1025.96C2936.56 1028.84 2930.37 1030.28 2922.8 1030.28ZM2994.99 1029V910.28H3019.95V1029H2994.99ZM3066.31 990.12C3066.31 986.387 3066.9 983.08 3068.07 980.2C3069.35 977.32 3070.9 974.76 3072.71 972.52C3074.63 970.28 3076.66 968.2 3078.79 966.28C3080.93 964.36 3082.9 962.547 3084.71 960.84C3086.63 959.027 3088.18 957.16 3089.35 955.24C3090.63 953.32 3091.27 951.187 3091.27 948.84C3091.27 945 3089.67 941.907 3086.47 939.56C3083.38 937.213 3079.22 936.04 3073.99 936.04C3068.98 936.04 3064.5 937.107 3060.55 939.24C3056.61 941.267 3053.35 944.147 3050.79 947.88L3031.43 936.52C3035.7 930.013 3041.62 924.84 3049.19 921C3056.77 917.053 3065.94 915.08 3076.71 915.08C3084.71 915.08 3091.75 916.253 3097.83 918.6C3103.91 920.84 3108.66 924.147 3112.07 928.52C3115.59 932.893 3117.35 938.28 3117.35 944.68C3117.35 948.84 3116.71 952.52 3115.43 955.72C3114.15 958.92 3112.5 961.693 3110.47 964.04C3108.45 966.387 3106.26 968.573 3103.91 970.6C3101.67 972.627 3099.54 974.6 3097.51 976.52C3095.49 978.44 3093.78 980.467 3092.39 982.6C3091.11 984.733 3090.47 987.24 3090.47 990.12H3066.31ZM3078.47 1030.28C3073.99 1030.28 3070.31 1028.84 3067.43 1025.96C3064.55 1023.08 3063.11 1019.67 3063.11 1015.72C3063.11 1011.67 3064.55 1008.31 3067.43 1005.64C3070.31 1002.87 3073.99 1001.48 3078.47 1001.48C3083.06 1001.48 3086.74 1002.87 3089.51 1005.64C3092.39 1008.31 3093.83 1011.67 3093.83 1015.72C3093.83 1019.67 3092.39 1023.08 3089.51 1025.96C3086.74 1028.84 3083.06 1030.28 3078.47 1030.28Z" fill="white"/>
<path d="M574.044 663.174C581.609 655.609 593.875 655.609 601.44 663.174C609.006 670.739 609.006 683.006 601.44 690.571L524.27 767.742L524.623 768.096L601.44 844.914C609.006 852.48 609.006 864.745 601.44 872.311C593.875 879.876 581.609 879.876 574.044 872.311L483.174 781.44C475.609 773.875 475.609 761.609 483.174 754.044L574.044 663.174Z" fill="white" stroke="white"/>
<path d="M730.339 872.311C722.773 879.876 710.508 879.876 702.942 872.311C695.377 864.745 695.377 852.479 702.942 844.913L780.113 767.742L779.76 767.389L702.942 690.57C695.377 683.005 695.377 670.739 702.942 663.174C710.508 655.609 722.773 655.608 730.339 663.174L821.209 754.044C828.774 761.609 828.774 773.875 821.209 781.44L730.339 872.311Z" fill="white" stroke="white"/>
<line x1="683" y1="736.284" x2="620.284" y2="799" stroke="white" stroke-width="40" stroke-linecap="round"/>
</svg>
