<svg width="1300" height="976" viewBox="0 0 1300 976" fill="none" xmlns="http://www.w3.org/2000/svg">
<path d="M804.714 629.124C786.902 629.124 771.53 626.684 758.598 621.804C745.666 616.68 734.93 609.726 726.39 600.942C718.094 591.914 711.872 581.3 707.724 569.1C703.82 556.656 701.868 542.992 701.868 528.108V370.362H758.964V523.35C758.964 533.598 760.062 542.382 762.258 549.702C764.698 556.778 767.87 562.634 771.774 567.27C775.922 571.662 780.802 574.834 786.414 576.786C792.27 578.738 798.614 579.714 805.446 579.714C819.354 579.714 830.578 575.444 839.118 566.904C847.902 558.364 852.294 543.846 852.294 523.35V370.362H909.39V528.108C909.39 542.992 907.316 556.656 903.168 569.1C899.02 581.544 892.676 592.28 884.136 601.308C875.596 610.092 864.738 616.924 851.562 621.804C838.386 626.684 822.77 629.124 804.714 629.124ZM1109.97 624C1102.89 609.848 1095.09 595.574 1086.55 581.178C1078.25 566.538 1068.61 551.654 1057.63 536.526C1054.22 540.918 1049.82 547.018 1044.46 554.826C1039.33 562.634 1034.09 570.93 1028.72 579.714C1023.59 588.498 1018.71 596.916 1014.08 604.968C1009.44 613.02 1006.03 619.364 1003.83 624H938.681C949.417 604.236 961.861 583.496 976.013 561.78C990.409 540.064 1006.39 517.006 1023.96 492.606L942.341 370.362H1011.52L1060.93 449.418L1109.24 370.362H1174.39L1093.87 493.338C1114.36 519.934 1131.56 544.578 1145.47 567.27C1159.38 589.718 1170.36 608.628 1178.41 624H1109.97Z" fill="black"/>
<path d="M135 302.15C127.46 302.15 121.87 303.84 118.23 307.22C114.677 310.513 112.9 315.107 112.9 321C112.9 324.9 113.853 327.933 115.76 330.1C117.667 332.267 119.747 333.35 122 333.35C124.08 333.35 125.9 332.743 127.46 331.53C129.107 330.317 130.493 328.973 131.62 327.5C132.92 325.853 134.047 323.903 135 321.65V302.15ZM125.25 274.2C122.65 274.2 120.483 275.11 118.75 276.93C117.017 278.663 116.15 281.003 116.15 283.95C116.15 284.643 116.15 285.25 116.15 285.77C116.237 286.29 116.323 286.767 116.41 287.2C116.497 287.633 116.627 288.067 116.8 288.5L106.4 291.1C106.227 290.84 106.097 290.493 106.01 290.06C105.923 289.627 105.837 289.15 105.75 288.63C105.75 288.11 105.75 287.417 105.75 286.55C105.75 284.73 106.183 282.997 107.05 281.35C107.917 279.617 109.173 278.1 110.82 276.8C112.553 275.413 114.59 274.33 116.93 273.55C119.357 272.683 122.13 272.25 125.25 272.25C131.49 272.25 136.387 274.027 139.94 277.58C143.58 281.133 145.4 285.857 145.4 291.75V330.75L153.2 332.7V334H135V326.2C134.047 328.02 132.833 329.667 131.36 331.14C130.147 332.353 128.587 333.437 126.68 334.39C124.86 335.43 122.65 335.95 120.05 335.95C113.81 335.95 109.087 334.477 105.88 331.53C102.76 328.583 101.2 324.64 101.2 319.7C101.2 317.273 101.85 314.847 103.15 312.42C104.537 309.993 106.573 307.827 109.26 305.92C112.033 304.013 115.543 302.497 119.79 301.37C124.037 300.157 129.107 299.55 135 299.55V291.75C135 285.25 134.003 280.7 132.01 278.1C130.103 275.5 127.85 274.2 125.25 274.2ZM168.78 330.75V277.45L160.98 275.5V274.2H179.18V330.75L186.98 332.7V334H160.98V332.7L168.78 330.75ZM179.83 259.25C179.83 260.897 179.136 262.413 177.75 263.8C176.45 265.1 174.976 265.75 173.33 265.75C171.683 265.75 170.166 265.1 168.78 263.8C167.48 262.413 166.83 260.897 166.83 259.25C166.83 257.603 167.48 256.13 168.78 254.83C170.166 253.443 171.683 252.75 173.33 252.75C174.976 252.75 176.45 253.443 177.75 254.83C179.136 256.13 179.83 257.603 179.83 259.25ZM202.549 330.75V277.45L194.749 275.5V274.2H212.949V282C213.816 280.267 214.986 278.663 216.459 277.19C217.673 275.977 219.233 274.85 221.139 273.81C223.046 272.77 225.299 272.25 227.899 272.25C230.499 272.25 232.883 272.727 235.049 273.68C237.303 274.633 239.253 275.977 240.899 277.71C242.546 279.357 243.803 281.393 244.669 283.82C245.623 286.16 246.099 288.803 246.099 291.75V330.75L253.899 332.7V334H228.549V332.7L235.699 330.75V291.75C235.699 285.597 234.703 281.263 232.709 278.75C230.803 276.15 228.549 274.85 225.949 274.85C223.783 274.85 221.919 275.457 220.359 276.67C218.799 277.883 217.456 279.227 216.329 280.7C215.029 282.433 213.903 284.383 212.949 286.55V330.75L220.099 332.7V334H194.749V332.7L202.549 330.75ZM288.304 274.85C286.484 274.85 284.707 275.37 282.974 276.41C281.327 277.363 279.81 278.967 278.424 281.22C277.124 283.473 276.04 286.463 275.174 290.19C274.394 293.917 274.004 298.553 274.004 304.1C274.004 309.647 274.394 314.283 275.174 318.01C276.04 321.737 277.08 324.77 278.294 327.11C279.594 329.363 280.98 330.967 282.454 331.92C284.014 332.873 285.53 333.35 287.004 333.35C289.084 333.35 290.904 332.743 292.464 331.53C294.11 330.317 295.497 328.973 296.624 327.5C297.924 325.853 299.05 323.903 300.004 321.65V282.65C299.137 281.177 298.14 279.877 297.014 278.75C296.06 277.797 294.847 276.93 293.374 276.15C291.987 275.283 290.297 274.85 288.304 274.85ZM310.404 330.75L318.204 332.7V334H300.004V326.2C299.05 328.02 297.837 329.667 296.364 331.14C295.15 332.353 293.59 333.437 291.684 334.39C289.864 335.43 287.654 335.95 285.054 335.95C282.28 335.95 279.507 335.257 276.734 333.87C274.047 332.397 271.62 330.317 269.454 327.63C267.374 324.857 265.64 321.52 264.254 317.62C262.954 313.633 262.304 309.127 262.304 304.1C262.304 299.073 262.954 294.61 264.254 290.71C265.64 286.723 267.46 283.387 269.714 280.7C271.967 277.927 274.524 275.847 277.384 274.46C280.244 272.987 283.234 272.25 286.354 272.25C288.78 272.25 290.86 272.597 292.594 273.29C294.327 273.983 295.757 274.72 296.884 275.5C298.184 276.453 299.224 277.537 300.004 278.75V246.25L292.204 244.3V243H310.404V330.75ZM361.104 302.15C353.564 302.15 347.974 303.84 344.334 307.22C340.78 310.513 339.004 315.107 339.004 321C339.004 324.9 339.957 327.933 341.864 330.1C343.77 332.267 345.85 333.35 348.104 333.35C350.184 333.35 352.004 332.743 353.564 331.53C355.21 330.317 356.597 328.973 357.724 327.5C359.024 325.853 360.15 323.903 361.104 321.65V302.15ZM351.354 274.2C348.754 274.2 346.587 275.11 344.854 276.93C343.12 278.663 342.254 281.003 342.254 283.95C342.254 284.643 342.254 285.25 342.254 285.77C342.34 286.29 342.427 286.767 342.514 287.2C342.6 287.633 342.73 288.067 342.904 288.5L332.504 291.1C332.33 290.84 332.2 290.493 332.114 290.06C332.027 289.627 331.94 289.15 331.854 288.63C331.854 288.11 331.854 287.417 331.854 286.55C331.854 284.73 332.287 282.997 333.154 281.35C334.02 279.617 335.277 278.1 336.924 276.8C338.657 275.413 340.694 274.33 343.034 273.55C345.46 272.683 348.234 272.25 351.354 272.25C357.594 272.25 362.49 274.027 366.044 277.58C369.684 281.133 371.504 285.857 371.504 291.75V330.75L379.304 332.7V334H361.104V326.2C360.15 328.02 358.937 329.667 357.464 331.14C356.25 332.353 354.69 333.437 352.784 334.39C350.964 335.43 348.754 335.95 346.154 335.95C339.914 335.95 335.19 334.477 331.984 331.53C328.864 328.583 327.304 324.64 327.304 319.7C327.304 317.273 327.954 314.847 329.254 312.42C330.64 309.993 332.677 307.827 335.364 305.92C338.137 304.013 341.647 302.497 345.894 301.37C350.14 300.157 355.21 299.55 361.104 299.55V291.75C361.104 285.25 360.107 280.7 358.114 278.1C356.207 275.5 353.954 274.2 351.354 274.2ZM431.314 304.1C431.314 309.647 431.704 314.283 432.484 318.01C433.35 321.737 434.434 324.77 435.734 327.11C437.12 329.363 438.637 330.967 440.284 331.92C442.017 332.873 443.794 333.35 445.614 333.35C447.867 333.35 449.99 332.917 451.984 332.05C453.977 331.183 455.754 330.013 457.314 328.54C458.874 327.067 460.13 325.29 461.084 323.21C462.124 321.13 462.817 318.877 463.164 316.45H465.114C464.767 319.223 463.987 321.823 462.774 324.25C461.647 326.59 460.174 328.627 458.354 330.36C456.534 332.093 454.41 333.437 451.984 334.39C449.644 335.43 447.087 335.95 444.314 335.95C441.02 335.95 437.9 335.257 434.954 333.87C432.007 332.397 429.364 330.317 427.024 327.63C424.77 324.857 422.95 321.52 421.564 317.62C420.264 313.633 419.614 309.127 419.614 304.1C419.614 298.9 420.264 294.307 421.564 290.32C422.864 286.333 424.554 283.04 426.634 280.44C428.8 277.753 431.27 275.717 434.044 274.33C436.904 272.943 439.894 272.25 443.014 272.25C446.134 272.25 449.08 272.943 451.854 274.33C454.714 275.717 457.184 277.753 459.264 280.44C461.43 283.04 463.164 286.333 464.464 290.32C465.764 294.307 466.414 298.9 466.414 304.1H431.314ZM443.014 274.2C441.714 274.2 440.414 274.633 439.114 275.5C437.814 276.28 436.6 277.71 435.474 279.79C434.347 281.87 433.394 284.687 432.614 288.24C431.92 291.707 431.487 296.127 431.314 301.5H454.714C454.54 296.127 454.064 291.707 453.284 288.24C452.59 284.687 451.68 281.87 450.554 279.79C449.427 277.71 448.214 276.28 446.914 275.5C445.614 274.633 444.314 274.2 443.014 274.2ZM499.604 335.95C496.831 335.95 494.448 335.603 492.454 334.91C490.461 334.303 488.858 333.567 487.644 332.7C486.171 331.747 484.958 330.663 484.004 329.45C483.658 330.75 482.921 331.963 481.794 333.09C480.754 334.217 479.758 334.953 478.804 335.3H476.854C476.941 334.173 477.028 333.003 477.114 331.79C477.201 330.75 477.288 329.667 477.374 328.54C477.461 327.327 477.504 326.113 477.504 324.9C477.504 323.6 477.461 322.3 477.374 321C477.288 319.7 477.201 318.53 477.114 317.49C477.028 316.277 476.941 315.063 476.854 313.85H478.804C480.451 320.09 482.964 324.9 486.344 328.28C489.724 331.66 493.711 333.35 498.304 333.35C501.944 333.35 504.891 332.223 507.144 329.97C509.484 327.717 510.654 324.943 510.654 321.65C510.654 319.31 509.831 317.273 508.184 315.54C506.624 313.807 504.631 312.247 502.204 310.86C499.778 309.387 497.178 307.957 494.404 306.57C491.631 305.183 489.031 303.623 486.604 301.89C484.178 300.157 482.141 298.12 480.494 295.78C478.934 293.44 478.154 290.58 478.154 287.2C478.154 285.293 478.588 283.43 479.454 281.61C480.321 279.79 481.491 278.187 482.964 276.8C484.524 275.413 486.388 274.33 488.554 273.55C490.721 272.683 493.104 272.25 495.704 272.25C497.958 272.25 499.908 272.597 501.554 273.29C503.288 273.983 504.761 274.72 505.974 275.5C507.274 276.453 508.401 277.537 509.354 278.75C509.701 277.45 510.394 276.237 511.434 275.11C512.561 273.983 513.601 273.247 514.554 272.9H516.504C516.331 274.027 516.201 275.197 516.114 276.41C516.028 277.45 515.941 278.577 515.854 279.79C515.854 281.003 515.854 282.173 515.854 283.3C515.854 284.6 515.854 285.943 515.854 287.33C515.941 288.63 516.028 289.8 516.114 290.84C516.201 292.053 516.331 293.223 516.504 294.35H514.554C512.908 288.11 510.481 283.3 507.274 279.92C504.068 276.54 500.644 274.85 497.004 274.85C494.058 274.85 491.588 275.847 489.594 277.84C487.601 279.747 486.604 282 486.604 284.6C486.604 286.767 487.428 288.63 489.074 290.19C490.721 291.75 492.758 293.223 495.184 294.61C497.611 295.91 500.254 297.253 503.114 298.64C506.061 300.027 508.748 301.63 511.174 303.45C513.601 305.27 515.638 307.437 517.284 309.95C518.931 312.463 519.754 315.497 519.754 319.05C519.754 321.13 519.234 323.21 518.194 325.29C517.241 327.283 515.854 329.103 514.034 330.75C512.301 332.31 510.178 333.567 507.664 334.52C505.238 335.473 502.551 335.95 499.604 335.95ZM562.04 274.2V276.8H547.09V318.27C547.09 323.557 548.043 327.413 549.95 329.84C551.857 332.18 553.937 333.35 556.19 333.35C559.137 333.35 561.607 332.267 563.6 330.1C565.68 327.847 566.893 324.597 567.24 320.35H569.19C568.843 325.29 567.327 329.147 564.64 331.92C562.04 334.607 558.79 335.95 554.89 335.95C549.343 335.95 544.923 334.347 541.63 331.14C538.337 327.847 536.69 323.6 536.69 318.4V276.8H525.64V274.2H536.69V259.25L547.09 252.1V274.2H562.04ZM609.551 302.15C602.011 302.15 596.421 303.84 592.781 307.22C589.227 310.513 587.451 315.107 587.451 321C587.451 324.9 588.404 327.933 590.311 330.1C592.217 332.267 594.297 333.35 596.551 333.35C598.631 333.35 600.451 332.743 602.011 331.53C603.657 330.317 605.044 328.973 606.171 327.5C607.471 325.853 608.597 323.903 609.551 321.65V302.15ZM599.801 274.2C597.201 274.2 595.034 275.11 593.301 276.93C591.567 278.663 590.701 281.003 590.701 283.95C590.701 284.643 590.701 285.25 590.701 285.77C590.787 286.29 590.874 286.767 590.961 287.2C591.047 287.633 591.177 288.067 591.351 288.5L580.951 291.1C580.777 290.84 580.647 290.493 580.561 290.06C580.474 289.627 580.387 289.15 580.301 288.63C580.301 288.11 580.301 287.417 580.301 286.55C580.301 284.73 580.734 282.997 581.601 281.35C582.467 279.617 583.724 278.1 585.371 276.8C587.104 275.413 589.141 274.33 591.481 273.55C593.907 272.683 596.681 272.25 599.801 272.25C606.041 272.25 610.937 274.027 614.491 277.58C618.131 281.133 619.951 285.857 619.951 291.75V330.75L627.751 332.7V334H609.551V326.2C608.597 328.02 607.384 329.667 605.911 331.14C604.697 332.353 603.137 333.437 601.231 334.39C599.411 335.43 597.201 335.95 594.601 335.95C588.361 335.95 583.637 334.477 580.431 331.53C577.311 328.583 575.751 324.64 575.751 319.7C575.751 317.273 576.401 314.847 577.701 312.42C579.087 309.993 581.124 307.827 583.811 305.92C586.584 304.013 590.094 302.497 594.341 301.37C598.587 300.157 603.657 299.55 609.551 299.55V291.75C609.551 285.25 608.554 280.7 606.561 278.1C604.654 275.5 602.401 274.2 599.801 274.2ZM643.33 330.75V277.45L635.53 275.5V274.2H653.73V282C654.597 280.267 655.767 278.663 657.24 277.19C658.454 275.977 660.014 274.85 661.92 273.81C663.827 272.77 666.08 272.25 668.68 272.25C671.974 272.25 674.66 272.857 676.74 274.07C678.907 275.283 680.64 276.627 681.94 278.1C683.5 279.833 684.714 281.783 685.58 283.95C686.707 281.783 688.05 279.833 689.61 278.1C690.997 276.627 692.687 275.283 694.68 274.07C696.674 272.857 699.057 272.25 701.83 272.25C704.43 272.25 706.814 272.727 708.98 273.68C711.234 274.633 713.184 275.977 714.83 277.71C716.477 279.357 717.734 281.393 718.6 283.82C719.554 286.16 720.03 288.803 720.03 291.75V330.75L727.83 332.7V334H702.48V332.7L709.63 330.75V291.75C709.63 285.597 708.634 281.263 706.64 278.75C704.734 276.15 702.48 274.85 699.88 274.85C697.714 274.85 695.85 275.457 694.29 276.67C692.73 277.883 691.387 279.227 690.26 280.7C688.96 282.433 687.834 284.383 686.88 286.55V330.75L694.03 332.7V334H669.33V332.7L676.48 330.75V291.75C676.48 285.597 675.484 281.263 673.49 278.75C671.584 276.15 669.33 274.85 666.73 274.85C664.564 274.85 662.7 275.457 661.14 276.67C659.58 277.883 658.237 279.227 657.11 280.7C655.81 282.433 654.684 284.383 653.73 286.55V330.75L660.88 332.7V334H635.53V332.7L643.33 330.75ZM761.57 274.2C760.096 274.2 758.58 274.72 757.02 275.76C755.546 276.713 754.16 278.36 752.86 280.7C751.646 282.953 750.606 285.987 749.74 289.8C748.96 293.613 748.57 298.38 748.57 304.1C748.57 309.82 748.96 314.587 749.74 318.4C750.606 322.213 751.646 325.29 752.86 327.63C754.16 329.883 755.546 331.53 757.02 332.57C758.58 333.523 760.096 334 761.57 334C763.043 334 764.516 333.523 765.99 332.57C767.55 331.53 768.936 329.883 770.15 327.63C771.45 325.29 772.49 322.213 773.27 318.4C774.136 314.587 774.57 309.82 774.57 304.1C774.57 298.38 774.136 293.613 773.27 289.8C772.49 285.987 771.45 282.953 770.15 280.7C768.936 278.36 767.55 276.713 765.99 275.76C764.516 274.72 763.043 274.2 761.57 274.2ZM761.57 272.25C764.776 272.25 767.853 272.987 770.8 274.46C773.833 275.847 776.476 277.927 778.73 280.7C781.07 283.387 782.89 286.723 784.19 290.71C785.576 294.61 786.27 299.073 786.27 304.1C786.27 309.127 785.576 313.633 784.19 317.62C782.89 321.52 781.07 324.857 778.73 327.63C776.476 330.317 773.833 332.397 770.8 333.87C767.853 335.257 764.776 335.95 761.57 335.95C758.276 335.95 755.156 335.257 752.21 333.87C749.263 332.397 746.62 330.317 744.28 327.63C742.026 324.857 740.206 321.52 738.82 317.62C737.52 313.633 736.87 309.127 736.87 304.1C736.87 299.073 737.52 294.61 738.82 290.71C740.206 286.723 742.026 283.387 744.28 280.7C746.62 277.927 749.263 275.847 752.21 274.46C755.156 272.987 758.276 272.25 761.57 272.25ZM820.034 335.95C817.261 335.95 814.877 335.603 812.884 334.91C810.891 334.303 809.287 333.567 808.074 332.7C806.601 331.747 805.387 330.663 804.434 329.45C804.087 330.75 803.351 331.963 802.224 333.09C801.184 334.217 800.187 334.953 799.234 335.3H797.284C797.371 334.173 797.457 333.003 797.544 331.79C797.631 330.75 797.717 329.667 797.804 328.54C797.891 327.327 797.934 326.113 797.934 324.9C797.934 323.6 797.891 322.3 797.804 321C797.717 319.7 797.631 318.53 797.544 317.49C797.457 316.277 797.371 315.063 797.284 313.85H799.234C800.881 320.09 803.394 324.9 806.774 328.28C810.154 331.66 814.141 333.35 818.734 333.35C822.374 333.35 825.321 332.223 827.574 329.97C829.914 327.717 831.084 324.943 831.084 321.65C831.084 319.31 830.261 317.273 828.614 315.54C827.054 313.807 825.061 312.247 822.634 310.86C820.207 309.387 817.607 307.957 814.834 306.57C812.061 305.183 809.461 303.623 807.034 301.89C804.607 300.157 802.571 298.12 800.924 295.78C799.364 293.44 798.584 290.58 798.584 287.2C798.584 285.293 799.017 283.43 799.884 281.61C800.751 279.79 801.921 278.187 803.394 276.8C804.954 275.413 806.817 274.33 808.984 273.55C811.151 272.683 813.534 272.25 816.134 272.25C818.387 272.25 820.337 272.597 821.984 273.29C823.717 273.983 825.191 274.72 826.404 275.5C827.704 276.453 828.831 277.537 829.784 278.75C830.131 277.45 830.824 276.237 831.864 275.11C832.991 273.983 834.031 273.247 834.984 272.9H836.934C836.761 274.027 836.631 275.197 836.544 276.41C836.457 277.45 836.371 278.577 836.284 279.79C836.284 281.003 836.284 282.173 836.284 283.3C836.284 284.6 836.284 285.943 836.284 287.33C836.371 288.63 836.457 289.8 836.544 290.84C836.631 292.053 836.761 293.223 836.934 294.35H834.984C833.337 288.11 830.911 283.3 827.704 279.92C824.497 276.54 821.074 274.85 817.434 274.85C814.487 274.85 812.017 275.847 810.024 277.84C808.031 279.747 807.034 282 807.034 284.6C807.034 286.767 807.857 288.63 809.504 290.19C811.151 291.75 813.187 293.223 815.614 294.61C818.041 295.91 820.684 297.253 823.544 298.64C826.491 300.027 829.177 301.63 831.604 303.45C834.031 305.27 836.067 307.437 837.714 309.95C839.361 312.463 840.184 315.497 840.184 319.05C840.184 321.13 839.664 323.21 838.624 325.29C837.671 327.283 836.284 329.103 834.464 330.75C832.731 332.31 830.607 333.567 828.094 334.52C825.667 335.473 822.981 335.95 820.034 335.95ZM142.8 354.05C142.8 355.523 142.54 356.867 142.02 358.08C141.587 359.207 141.067 360.203 140.46 361.07C139.767 362.023 139.03 362.933 138.25 363.8L128.5 359.9C129.28 359.033 130.017 358.123 130.71 357.17C131.317 356.303 131.837 355.307 132.27 354.18C132.79 352.967 133.05 351.623 133.05 350.15C133.05 347.897 132.443 346.163 131.23 344.95C130.103 343.65 128.543 343 126.55 343C125.597 343 124.687 343.26 123.82 343.78C122.953 344.213 122.173 345.037 121.48 346.25C120.873 347.377 120.353 348.937 119.92 350.93C119.573 352.923 119.4 355.48 119.4 358.6V374.2H137.6V376.8H119.4V430.75L127.2 432.7V434H101.2V432.7L109 430.75V376.8H101.2V374.2H109V358.6C109 353.4 110.603 349.197 113.81 345.99C117.103 342.697 121.35 341.05 126.55 341.05C128.977 341.05 131.187 341.44 133.18 342.22C135.173 342.913 136.863 343.867 138.25 345.08C139.723 346.293 140.85 347.68 141.63 349.24C142.41 350.8 142.8 352.403 142.8 354.05ZM177.91 402.15C170.37 402.15 164.78 403.84 161.14 407.22C157.587 410.513 155.81 415.107 155.81 421C155.81 424.9 156.763 427.933 158.67 430.1C160.577 432.267 162.657 433.35 164.91 433.35C166.99 433.35 168.81 432.743 170.37 431.53C172.017 430.317 173.403 428.973 174.53 427.5C175.83 425.853 176.957 423.903 177.91 421.65V402.15ZM168.16 374.2C165.56 374.2 163.393 375.11 161.66 376.93C159.927 378.663 159.06 381.003 159.06 383.95C159.06 384.643 159.06 385.25 159.06 385.77C159.147 386.29 159.233 386.767 159.32 387.2C159.407 387.633 159.537 388.067 159.71 388.5L149.31 391.1C149.137 390.84 149.007 390.493 148.92 390.06C148.833 389.627 148.747 389.15 148.66 388.63C148.66 388.11 148.66 387.417 148.66 386.55C148.66 384.73 149.093 382.997 149.96 381.35C150.827 379.617 152.083 378.1 153.73 376.8C155.463 375.413 157.5 374.33 159.84 373.55C162.267 372.683 165.04 372.25 168.16 372.25C174.4 372.25 179.297 374.027 182.85 377.58C186.49 381.133 188.31 385.857 188.31 391.75V430.75L196.11 432.7V434H177.91V426.2C176.957 428.02 175.743 429.667 174.27 431.14C173.057 432.353 171.497 433.437 169.59 434.39C167.77 435.43 165.56 435.95 162.96 435.95C156.72 435.95 151.997 434.477 148.79 431.53C145.67 428.583 144.11 424.64 144.11 419.7C144.11 417.273 144.76 414.847 146.06 412.42C147.447 409.993 149.483 407.827 152.17 405.92C154.943 404.013 158.453 402.497 162.7 401.37C166.947 400.157 172.017 399.55 177.91 399.55V391.75C177.91 385.25 176.913 380.7 174.92 378.1C173.013 375.5 170.76 374.2 168.16 374.2ZM209.77 430.75V346.25L201.97 344.3V343H220.17V430.75L227.97 432.7V434H201.97V432.7L209.77 430.75ZM270.205 402.15C262.665 402.15 257.075 403.84 253.435 407.22C249.882 410.513 248.105 415.107 248.105 421C248.105 424.9 249.058 427.933 250.965 430.1C252.872 432.267 254.952 433.35 257.205 433.35C259.285 433.35 261.105 432.743 262.665 431.53C264.312 430.317 265.698 428.973 266.825 427.5C268.125 425.853 269.252 423.903 270.205 421.65V402.15ZM260.455 374.2C257.855 374.2 255.688 375.11 253.955 376.93C252.222 378.663 251.355 381.003 251.355 383.95C251.355 384.643 251.355 385.25 251.355 385.77C251.442 386.29 251.528 386.767 251.615 387.2C251.702 387.633 251.832 388.067 252.005 388.5L241.605 391.1C241.432 390.84 241.302 390.493 241.215 390.06C241.128 389.627 241.042 389.15 240.955 388.63C240.955 388.11 240.955 387.417 240.955 386.55C240.955 384.73 241.388 382.997 242.255 381.35C243.122 379.617 244.378 378.1 246.025 376.8C247.758 375.413 249.795 374.33 252.135 373.55C254.562 372.683 257.335 372.25 260.455 372.25C266.695 372.25 271.592 374.027 275.145 377.58C278.785 381.133 280.605 385.857 280.605 391.75V430.75L288.405 432.7V434H270.205V426.2C269.252 428.02 268.038 429.667 266.565 431.14C265.352 432.353 263.792 433.437 261.885 434.39C260.065 435.43 257.855 435.95 255.255 435.95C249.015 435.95 244.292 434.477 241.085 431.53C237.965 428.583 236.405 424.64 236.405 419.7C236.405 417.273 237.055 414.847 238.355 412.42C239.742 409.993 241.778 407.827 244.465 405.92C247.238 404.013 250.748 402.497 254.995 401.37C259.242 400.157 264.312 399.55 270.205 399.55V391.75C270.205 385.25 269.208 380.7 267.215 378.1C265.308 375.5 263.055 374.2 260.455 374.2ZM303.985 430.75V377.45L296.185 375.5V374.2H314.385V382C315.251 380.267 316.421 378.663 317.895 377.19C319.108 375.977 320.668 374.85 322.575 373.81C324.481 372.77 326.735 372.25 329.335 372.25C331.935 372.25 334.318 372.727 336.485 373.68C338.738 374.633 340.688 375.977 342.335 377.71C343.981 379.357 345.238 381.393 346.105 383.82C347.058 386.16 347.535 388.803 347.535 391.75V430.75L355.335 432.7V434H329.985V432.7L337.135 430.75V391.75C337.135 385.597 336.138 381.263 334.145 378.75C332.238 376.15 329.985 374.85 327.385 374.85C325.218 374.85 323.355 375.457 321.795 376.67C320.235 377.883 318.891 379.227 317.765 380.7C316.465 382.433 315.338 384.383 314.385 386.55V430.75L321.535 432.7V434H296.185V432.7L303.985 430.75ZM389.739 374.85C387.919 374.85 386.142 375.37 384.409 376.41C382.762 377.363 381.246 378.967 379.859 381.22C378.559 383.473 377.476 386.463 376.609 390.19C375.829 393.917 375.439 398.553 375.439 404.1C375.439 409.647 375.829 414.283 376.609 418.01C377.476 421.737 378.516 424.77 379.729 427.11C381.029 429.363 382.416 430.967 383.889 431.92C385.449 432.873 386.966 433.35 388.439 433.35C390.519 433.35 392.339 432.743 393.899 431.53C395.546 430.317 396.932 428.973 398.059 427.5C399.359 425.853 400.486 423.903 401.439 421.65V382.65C400.572 381.177 399.576 379.877 398.449 378.75C397.496 377.797 396.282 376.93 394.809 376.15C393.422 375.283 391.732 374.85 389.739 374.85ZM411.839 430.75L419.639 432.7V434H401.439V426.2C400.486 428.02 399.272 429.667 397.799 431.14C396.586 432.353 395.026 433.437 393.119 434.39C391.299 435.43 389.089 435.95 386.489 435.95C383.716 435.95 380.942 435.257 378.169 433.87C375.482 432.397 373.056 430.317 370.889 427.63C368.809 424.857 367.076 421.52 365.689 417.62C364.389 413.633 363.739 409.127 363.739 404.1C363.739 399.073 364.389 394.61 365.689 390.71C367.076 386.723 368.896 383.387 371.149 380.7C373.402 377.927 375.959 375.847 378.819 374.46C381.679 372.987 384.669 372.25 387.789 372.25C390.216 372.25 392.296 372.597 394.029 373.29C395.762 373.983 397.192 374.72 398.319 375.5C399.619 376.453 400.659 377.537 401.439 378.75V346.25L393.639 344.3V343H411.839V430.75ZM454.089 374.2C452.616 374.2 451.099 374.72 449.539 375.76C448.066 376.713 446.679 378.36 445.379 380.7C444.166 382.953 443.126 385.987 442.259 389.8C441.479 393.613 441.089 398.38 441.089 404.1C441.089 409.82 441.479 414.587 442.259 418.4C443.126 422.213 444.166 425.29 445.379 427.63C446.679 429.883 448.066 431.53 449.539 432.57C451.099 433.523 452.616 434 454.089 434C455.562 434 457.036 433.523 458.509 432.57C460.069 431.53 461.456 429.883 462.669 427.63C463.969 425.29 465.009 422.213 465.789 418.4C466.656 414.587 467.089 409.82 467.089 404.1C467.089 398.38 466.656 393.613 465.789 389.8C465.009 385.987 463.969 382.953 462.669 380.7C461.456 378.36 460.069 376.713 458.509 375.76C457.036 374.72 455.562 374.2 454.089 374.2ZM454.089 372.25C457.296 372.25 460.372 372.987 463.319 374.46C466.352 375.847 468.996 377.927 471.249 380.7C473.589 383.387 475.409 386.723 476.709 390.71C478.096 394.61 478.789 399.073 478.789 404.1C478.789 409.127 478.096 413.633 476.709 417.62C475.409 421.52 473.589 424.857 471.249 427.63C468.996 430.317 466.352 432.397 463.319 433.87C460.372 435.257 457.296 435.95 454.089 435.95C450.796 435.95 447.676 435.257 444.729 433.87C441.782 432.397 439.139 430.317 436.799 427.63C434.546 424.857 432.726 421.52 431.339 417.62C430.039 413.633 429.389 409.127 429.389 404.1C429.389 399.073 430.039 394.61 431.339 390.71C432.726 386.723 434.546 383.387 436.799 380.7C439.139 377.927 441.782 375.847 444.729 374.46C447.676 372.987 450.796 372.25 454.089 372.25ZM547.034 374.85C545.214 374.85 543.437 375.37 541.704 376.41C540.057 377.363 538.541 378.967 537.154 381.22C535.854 383.473 534.771 386.463 533.904 390.19C533.124 393.917 532.734 398.553 532.734 404.1C532.734 409.647 533.124 414.283 533.904 418.01C534.771 421.737 535.811 424.77 537.024 427.11C538.324 429.363 539.711 430.967 541.184 431.92C542.744 432.873 544.261 433.35 545.734 433.35C547.814 433.35 549.634 432.743 551.194 431.53C552.841 430.317 554.227 428.973 555.354 427.5C556.654 425.853 557.781 423.903 558.734 421.65V382.65C557.867 381.177 556.871 379.877 555.744 378.75C554.791 377.797 553.577 376.93 552.104 376.15C550.717 375.283 549.027 374.85 547.034 374.85ZM569.134 430.75L576.934 432.7V434H558.734V426.2C557.781 428.02 556.567 429.667 555.094 431.14C553.881 432.353 552.321 433.437 550.414 434.39C548.594 435.43 546.384 435.95 543.784 435.95C541.011 435.95 538.237 435.257 535.464 433.87C532.777 432.397 530.351 430.317 528.184 427.63C526.104 424.857 524.371 421.52 522.984 417.62C521.684 413.633 521.034 409.127 521.034 404.1C521.034 399.073 521.684 394.61 522.984 390.71C524.371 386.723 526.191 383.387 528.444 380.7C530.697 377.927 533.254 375.847 536.114 374.46C538.974 372.987 541.964 372.25 545.084 372.25C547.511 372.25 549.591 372.597 551.324 373.29C553.057 373.983 554.487 374.72 555.614 375.5C556.914 376.453 557.954 377.537 558.734 378.75V346.25L550.934 344.3V343H569.134V430.75ZM598.384 404.1C598.384 409.647 598.774 414.283 599.554 418.01C600.421 421.737 601.504 424.77 602.804 427.11C604.191 429.363 605.707 430.967 607.354 431.92C609.087 432.873 610.864 433.35 612.684 433.35C614.937 433.35 617.061 432.917 619.054 432.05C621.047 431.183 622.824 430.013 624.384 428.54C625.944 427.067 627.201 425.29 628.154 423.21C629.194 421.13 629.887 418.877 630.234 416.45H632.184C631.837 419.223 631.057 421.823 629.844 424.25C628.717 426.59 627.244 428.627 625.424 430.36C623.604 432.093 621.481 433.437 619.054 434.39C616.714 435.43 614.157 435.95 611.384 435.95C608.091 435.95 604.971 435.257 602.024 433.87C599.077 432.397 596.434 430.317 594.094 427.63C591.841 424.857 590.021 421.52 588.634 417.62C587.334 413.633 586.684 409.127 586.684 404.1C586.684 398.9 587.334 394.307 588.634 390.32C589.934 386.333 591.624 383.04 593.704 380.44C595.871 377.753 598.341 375.717 601.114 374.33C603.974 372.943 606.964 372.25 610.084 372.25C613.204 372.25 616.151 372.943 618.924 374.33C621.784 375.717 624.254 377.753 626.334 380.44C628.501 383.04 630.234 386.333 631.534 390.32C632.834 394.307 633.484 398.9 633.484 404.1H598.384ZM610.084 374.2C608.784 374.2 607.484 374.633 606.184 375.5C604.884 376.28 603.671 377.71 602.544 379.79C601.417 381.87 600.464 384.687 599.684 388.24C598.991 391.707 598.557 396.127 598.384 401.5H621.784C621.611 396.127 621.134 391.707 620.354 388.24C619.661 384.687 618.751 381.87 617.624 379.79C616.497 377.71 615.284 376.28 613.984 375.5C612.684 374.633 611.384 374.2 610.084 374.2Z" fill="white"/>
<path d="M349.55 571.1C349.55 576.647 349.94 581.283 350.72 585.01C351.587 588.737 352.67 591.77 353.97 594.11C355.357 596.363 356.873 597.967 358.52 598.92C360.253 599.873 362.03 600.35 363.85 600.35C366.103 600.35 368.227 599.917 370.22 599.05C372.213 598.183 373.99 597.013 375.55 595.54C377.11 594.067 378.367 592.29 379.32 590.21C380.36 588.13 381.053 585.877 381.4 583.45H383.35C383.003 586.223 382.223 588.823 381.01 591.25C379.883 593.59 378.41 595.627 376.59 597.36C374.77 599.093 372.647 600.437 370.22 601.39C367.88 602.43 365.323 602.95 362.55 602.95C359.257 602.95 356.137 602.257 353.19 600.87C350.243 599.397 347.6 597.317 345.26 594.63C343.007 591.857 341.187 588.52 339.8 584.62C338.5 580.633 337.85 576.127 337.85 571.1C337.85 565.9 338.5 561.307 339.8 557.32C341.1 553.333 342.79 550.04 344.87 547.44C347.037 544.753 349.507 542.717 352.28 541.33C355.14 539.943 358.13 539.25 361.25 539.25C364.37 539.25 367.317 539.943 370.09 541.33C372.95 542.717 375.42 544.753 377.5 547.44C379.667 550.04 381.4 553.333 382.7 557.32C384 561.307 384.65 565.9 384.65 571.1H349.55ZM361.25 541.2C359.95 541.2 358.65 541.633 357.35 542.5C356.05 543.28 354.837 544.71 353.71 546.79C352.583 548.87 351.63 551.687 350.85 555.24C350.157 558.707 349.723 563.127 349.55 568.5H372.95C372.777 563.127 372.3 558.707 371.52 555.24C370.827 551.687 369.917 548.87 368.79 546.79C367.663 544.71 366.45 543.28 365.15 542.5C363.85 541.633 362.55 541.2 361.25 541.2ZM402.241 597.75V544.45L394.441 542.5V541.2H412.641V549C413.507 547.267 414.677 545.663 416.151 544.19C417.364 542.977 418.924 541.85 420.831 540.81C422.737 539.77 424.991 539.25 427.591 539.25C430.884 539.25 433.571 539.857 435.651 541.07C437.817 542.283 439.551 543.627 440.851 545.1C442.411 546.833 443.624 548.783 444.491 550.95C445.617 548.783 446.961 546.833 448.521 545.1C449.907 543.627 451.597 542.283 453.591 541.07C455.584 539.857 457.967 539.25 460.741 539.25C463.341 539.25 465.724 539.727 467.891 540.68C470.144 541.633 472.094 542.977 473.741 544.71C475.387 546.357 476.644 548.393 477.511 550.82C478.464 553.16 478.941 555.803 478.941 558.75V597.75L486.741 599.7V601H461.391V599.7L468.541 597.75V558.75C468.541 552.597 467.544 548.263 465.551 545.75C463.644 543.15 461.391 541.85 458.791 541.85C456.624 541.85 454.761 542.457 453.201 543.67C451.641 544.883 450.297 546.227 449.171 547.7C447.871 549.433 446.744 551.383 445.791 553.55V597.75L452.941 599.7V601H428.241V599.7L435.391 597.75V558.75C435.391 552.597 434.394 548.263 432.401 545.75C430.494 543.15 428.241 541.85 425.641 541.85C423.474 541.85 421.611 542.457 420.051 543.67C418.491 544.883 417.147 546.227 416.021 547.7C414.721 549.433 413.594 551.383 412.641 553.55V597.75L419.791 599.7V601H394.441V599.7L402.241 597.75ZM352 621C350.133 621 348.333 621.4 346.6 622.2C344.867 623 343.3 624.1 341.9 625.5C340.567 626.833 339.5 628.367 338.7 630.1C337.9 631.833 337.5 633.633 337.5 635.5C337.5 637.233 338.167 638.667 339.5 639.8C340.9 640.933 343.233 641.5 346.5 641.5L348.5 649.5C348.233 649.633 347.933 649.733 347.6 649.8C347.267 649.867 346.9 649.933 346.5 650C346.167 650 345.833 650 345.5 650C342.7 650 340.333 648.9 338.4 646.7C336.467 644.433 335.5 641.033 335.5 636.5C335.5 634.1 335.967 631.867 336.9 629.8C337.833 627.667 339.1 625.8 340.7 624.2C342.3 622.6 344.133 621.333 346.2 620.4C348.333 619.467 350.6 619 353 619C356.133 619 359 619.533 361.6 620.6C364.267 621.667 366.533 623.133 368.4 625C370.333 626.8 371.833 628.967 372.9 631.5C373.967 633.967 374.5 636.633 374.5 639.5C374.5 642.233 373.933 645.067 372.8 648C371.667 650.867 370.133 653.733 368.2 656.6C366.333 659.467 364.2 662.267 361.8 665C359.4 667.733 356.933 670.3 354.4 672.7C351.867 675.1 349.4 677.333 347 679.4C344.6 681.4 342.433 683.1 340.5 684.5H372L374 675H375.5V691H331.5C336.1 686 340.433 681.333 344.5 677C348.567 672.667 352.1 668.467 355.1 664.4C358.167 660.267 360.567 656.2 362.3 652.2C364.1 648.133 365 643.9 365 639.5C365 636.233 364.667 633.433 364 631.1C363.333 628.767 362.433 626.867 361.3 625.4C360.167 623.867 358.8 622.767 357.2 622.1C355.6 621.367 353.867 621 352 621ZM417.961 656C417.961 649 417.561 643.233 416.761 638.7C415.961 634.167 414.961 630.6 413.761 628C412.561 625.4 411.228 623.6 409.761 622.6C408.294 621.533 406.861 621 405.461 621C404.061 621 402.628 621.533 401.161 622.6C399.694 623.6 398.361 625.4 397.161 628C395.961 630.6 394.961 634.167 394.161 638.7C393.361 643.233 392.961 649 392.961 656C392.961 663 393.361 668.767 394.161 673.3C394.961 677.833 395.961 681.4 397.161 684C398.361 686.6 399.694 688.433 401.161 689.5C402.628 690.5 404.061 691 405.461 691C406.861 691 408.294 690.5 409.761 689.5C411.228 688.433 412.561 686.6 413.761 684C414.961 681.4 415.961 677.833 416.761 673.3C417.561 668.767 417.961 663 417.961 656ZM427.461 656C427.461 662.4 426.828 667.9 425.561 672.5C424.294 677.1 422.628 680.9 420.561 683.9C418.494 686.833 416.128 689 413.461 690.4C410.861 691.8 408.194 692.5 405.461 692.5C402.728 692.5 400.028 691.8 397.361 690.4C394.761 689 392.428 686.833 390.361 683.9C388.294 680.9 386.628 677.1 385.361 672.5C384.094 667.9 383.461 662.4 383.461 656C383.461 649.6 384.094 644.1 385.361 639.5C386.628 634.9 388.294 631.133 390.361 628.2C392.428 625.2 394.761 623 397.361 621.6C400.028 620.2 402.728 619.5 405.461 619.5C408.194 619.5 410.861 620.2 413.461 621.6C416.128 623 418.494 625.2 420.561 628.2C422.628 631.133 424.294 634.9 425.561 639.5C426.828 644.1 427.461 649.6 427.461 656ZM451.414 621C449.547 621 447.747 621.4 446.014 622.2C444.281 623 442.714 624.1 441.314 625.5C439.981 626.833 438.914 628.367 438.114 630.1C437.314 631.833 436.914 633.633 436.914 635.5C436.914 637.233 437.581 638.667 438.914 639.8C440.314 640.933 442.647 641.5 445.914 641.5L447.914 649.5C447.647 649.633 447.347 649.733 447.014 649.8C446.681 649.867 446.314 649.933 445.914 650C445.581 650 445.247 650 444.914 650C442.114 650 439.747 648.9 437.814 646.7C435.881 644.433 434.914 641.033 434.914 636.5C434.914 634.1 435.381 631.867 436.314 629.8C437.247 627.667 438.514 625.8 440.114 624.2C441.714 622.6 443.547 621.333 445.614 620.4C447.747 619.467 450.014 619 452.414 619C455.547 619 458.414 619.533 461.014 620.6C463.681 621.667 465.947 623.133 467.814 625C469.747 626.8 471.247 628.967 472.314 631.5C473.381 633.967 473.914 636.633 473.914 639.5C473.914 642.233 473.347 645.067 472.214 648C471.081 650.867 469.547 653.733 467.614 656.6C465.747 659.467 463.614 662.267 461.214 665C458.814 667.733 456.347 670.3 453.814 672.7C451.281 675.1 448.814 677.333 446.414 679.4C444.014 681.4 441.847 683.1 439.914 684.5H471.414L473.414 675H474.914V691H430.914C435.514 686 439.847 681.333 443.914 677C447.981 672.667 451.514 668.467 454.514 664.4C457.581 660.267 459.981 656.2 461.714 652.2C463.514 648.133 464.414 643.9 464.414 639.5C464.414 636.233 464.081 633.433 463.414 631.1C462.747 628.767 461.847 626.867 460.714 625.4C459.581 623.867 458.214 622.767 456.614 622.1C455.014 621.367 453.281 621 451.414 621ZM500.875 621C497.875 621 495.542 621.867 493.875 623.6C492.208 625.333 491.375 627.967 491.375 631.5C491.375 632.5 491.542 633.5 491.875 634.5C492.008 635.033 492.175 635.533 492.375 636L483.875 638C483.675 637.733 483.508 637.367 483.375 636.9C483.042 636.1 482.875 634.967 482.875 633.5C482.875 631.633 483.275 629.867 484.075 628.2C484.875 626.467 486.042 624.967 487.575 623.7C489.108 622.433 490.975 621.433 493.175 620.7C495.442 619.9 498.008 619.5 500.875 619.5C503.875 619.5 506.542 619.933 508.875 620.8C511.275 621.6 513.275 622.733 514.875 624.2C516.475 625.667 517.708 627.4 518.575 629.4C519.442 631.4 519.875 633.6 519.875 636C519.875 639.667 519.075 642.533 517.475 644.6C515.942 646.667 514.242 648.267 512.375 649.4C510.175 650.667 507.675 651.533 504.875 652C508.342 652.467 511.408 653.5 514.075 655.1C515.208 655.767 516.342 656.6 517.475 657.6C518.608 658.6 519.608 659.8 520.475 661.2C521.342 662.533 522.042 664.1 522.575 665.9C523.108 667.7 523.375 669.733 523.375 672C523.375 674.867 522.808 677.567 521.675 680.1C520.608 682.567 519.075 684.733 517.075 686.6C515.075 688.4 512.642 689.833 509.775 690.9C506.975 691.967 503.842 692.5 500.375 692.5C497.508 692.5 494.875 692.033 492.475 691.1C490.075 690.167 488.008 688.9 486.275 687.3C484.608 685.7 483.275 683.867 482.275 681.8C481.342 679.667 480.875 677.4 480.875 675C480.875 669.733 481.842 665.933 483.775 663.6C485.775 661.2 488.142 660 490.875 660C491.208 660 491.542 660.033 491.875 660.1C492.275 660.167 492.642 660.233 492.975 660.3C493.308 660.367 493.608 660.433 493.875 660.5L491.875 668.5C485.875 668.5 482.875 671.333 482.875 677C482.875 678.6 483.275 680.233 484.075 681.9C484.942 683.5 486.108 684.933 487.575 686.2C489.042 687.467 490.775 688.5 492.775 689.3C494.775 690.1 496.975 690.5 499.375 690.5C503.908 690.5 507.442 689.067 509.975 686.2C512.575 683.267 513.875 678.533 513.875 672C513.875 665.267 512.608 660.433 510.075 657.5C507.542 654.5 504.142 653 499.875 653H495.875V651H499.875C503.408 651 506.208 649.833 508.275 647.5C510.342 645.1 511.375 641.267 511.375 636C511.375 633.533 511.075 631.367 510.475 629.5C509.942 627.567 509.175 626 508.175 624.8C507.242 623.533 506.142 622.6 504.875 622C503.608 621.333 502.275 621 500.875 621Z" fill="white"/>
<path d="M740.14 590.29C740.14 597.55 739.15 604.7 737.17 611.74C735.41 618.78 732.22 625.38 727.6 631.54C722.98 637.7 716.49 643.2 708.13 648.04C699.77 652.88 688.99 656.73 675.79 659.59C662.59 662.23 646.42 663.55 627.28 663.55L658.63 641.77V687.31H596.26V622.3H627.28C641.14 622.3 651.37 619.99 657.97 615.37C664.79 610.53 668.2 603.27 668.2 593.59V587.98C668.2 581.82 666.88 576.65 664.24 572.47C661.6 568.07 657.75 564.77 652.69 562.57C647.63 560.37 641.36 559.27 633.88 559.27C621.56 559.27 612.43 562.35 606.49 568.51C600.55 574.45 596.37 582.37 593.95 592.27L524.65 585.01C528.39 563.23 539.17 546.29 556.99 534.19C575.03 522.09 600.66 516.04 633.88 516.04C668.2 516.04 694.49 521.98 712.75 533.86C731.01 545.52 740.14 562.35 740.14 584.35V590.29ZM658.63 704.8V751H596.26V704.8H658.63Z" fill="white"/>
</svg>
