<svg width="1300" height="976" viewBox="0 0 1300 976" fill="none" xmlns="http://www.w3.org/2000/svg">
<path d="M804.714 629.124C786.902 629.124 771.53 626.684 758.598 621.804C745.666 616.68 734.93 609.726 726.39 600.942C718.094 591.914 711.872 581.3 707.724 569.1C703.82 556.656 701.868 542.992 701.868 528.108V370.362H758.964V523.35C758.964 533.598 760.062 542.382 762.258 549.702C764.698 556.778 767.87 562.634 771.774 567.27C775.922 571.662 780.802 574.834 786.414 576.786C792.27 578.738 798.614 579.714 805.446 579.714C819.354 579.714 830.578 575.444 839.118 566.904C847.902 558.364 852.294 543.846 852.294 523.35V370.362H909.39V528.108C909.39 542.992 907.316 556.656 903.168 569.1C899.02 581.544 892.676 592.28 884.136 601.308C875.596 610.092 864.738 616.924 851.562 621.804C838.386 626.684 822.77 629.124 804.714 629.124ZM1109.97 624C1102.89 609.848 1095.09 595.574 1086.55 581.178C1078.25 566.538 1068.61 551.654 1057.63 536.526C1054.22 540.918 1049.82 547.018 1044.46 554.826C1039.33 562.634 1034.09 570.93 1028.72 579.714C1023.59 588.498 1018.71 596.916 1014.08 604.968C1009.44 613.02 1006.03 619.364 1003.83 624H938.681C949.417 604.236 961.861 583.496 976.013 561.78C990.409 540.064 1006.39 517.006 1023.96 492.606L942.341 370.362H1011.52L1060.93 449.418L1109.24 370.362H1174.39L1093.87 493.338C1114.36 519.934 1131.56 544.578 1145.47 567.27C1159.38 589.718 1170.36 608.628 1178.41 624H1109.97Z" fill="black"/>
<path d="M135 302.15C127.46 302.15 121.87 303.84 118.23 307.22C114.677 310.513 112.9 315.107 112.9 321C112.9 324.9 113.853 327.933 115.76 330.1C117.667 332.267 119.747 333.35 122 333.35C124.08 333.35 125.9 332.743 127.46 331.53C129.107 330.317 130.493 328.973 131.62 327.5C132.92 325.853 134.047 323.903 135 321.65V302.15ZM125.25 274.2C122.65 274.2 120.483 275.11 118.75 276.93C117.017 278.663 116.15 281.003 116.15 283.95C116.15 284.643 116.15 285.25 116.15 285.77C116.237 286.29 116.323 286.767 116.41 287.2C116.497 287.633 116.627 288.067 116.8 288.5L106.4 291.1C106.227 290.84 106.097 290.493 106.01 290.06C105.923 289.627 105.837 289.15 105.75 288.63C105.75 288.11 105.75 287.417 105.75 286.55C105.75 284.73 106.183 282.997 107.05 281.35C107.917 279.617 109.173 278.1 110.82 276.8C112.553 275.413 114.59 274.33 116.93 273.55C119.357 272.683 122.13 272.25 125.25 272.25C131.49 272.25 136.387 274.027 139.94 277.58C143.58 281.133 145.4 285.857 145.4 291.75V330.75L153.2 332.7V334H135V326.2C134.047 328.02 132.833 329.667 131.36 331.14C130.147 332.353 128.587 333.437 126.68 334.39C124.86 335.43 122.65 335.95 120.05 335.95C113.81 335.95 109.087 334.477 105.88 331.53C102.76 328.583 101.2 324.64 101.2 319.7C101.2 317.273 101.85 314.847 103.15 312.42C104.537 309.993 106.573 307.827 109.26 305.92C112.033 304.013 115.543 302.497 119.79 301.37C124.037 300.157 129.107 299.55 135 299.55V291.75C135 285.25 134.003 280.7 132.01 278.1C130.103 275.5 127.85 274.2 125.25 274.2ZM168.78 330.75V277.45L160.98 275.5V274.2H179.18V330.75L186.98 332.7V334H160.98V332.7L168.78 330.75ZM179.83 259.25C179.83 260.897 179.136 262.413 177.75 263.8C176.45 265.1 174.976 265.75 173.33 265.75C171.683 265.75 170.166 265.1 168.78 263.8C167.48 262.413 166.83 260.897 166.83 259.25C166.83 257.603 167.48 256.13 168.78 254.83C170.166 253.443 171.683 252.75 173.33 252.75C174.976 252.75 176.45 253.443 177.75 254.83C179.136 256.13 179.83 257.603 179.83 259.25ZM202.549 330.75V277.45L194.749 275.5V274.2H212.949V282C213.816 280.267 214.986 278.663 216.459 277.19C217.673 275.977 219.233 274.85 221.139 273.81C223.046 272.77 225.299 272.25 227.899 272.25C230.499 272.25 232.883 272.727 235.049 273.68C237.303 274.633 239.253 275.977 240.899 277.71C242.546 279.357 243.803 281.393 244.669 283.82C245.623 286.16 246.099 288.803 246.099 291.75V330.75L253.899 332.7V334H228.549V332.7L235.699 330.75V291.75C235.699 285.597 234.703 281.263 232.709 278.75C230.803 276.15 228.549 274.85 225.949 274.85C223.783 274.85 221.919 275.457 220.359 276.67C218.799 277.883 217.456 279.227 216.329 280.7C215.029 282.433 213.903 284.383 212.949 286.55V330.75L220.099 332.7V334H194.749V332.7L202.549 330.75ZM288.304 274.85C286.484 274.85 284.707 275.37 282.974 276.41C281.327 277.363 279.81 278.967 278.424 281.22C277.124 283.473 276.04 286.463 275.174 290.19C274.394 293.917 274.004 298.553 274.004 304.1C274.004 309.647 274.394 314.283 275.174 318.01C276.04 321.737 277.08 324.77 278.294 327.11C279.594 329.363 280.98 330.967 282.454 331.92C284.014 332.873 285.53 333.35 287.004 333.35C289.084 333.35 290.904 332.743 292.464 331.53C294.11 330.317 295.497 328.973 296.624 327.5C297.924 325.853 299.05 323.903 300.004 321.65V282.65C299.137 281.177 298.14 279.877 297.014 278.75C296.06 277.797 294.847 276.93 293.374 276.15C291.987 275.283 290.297 274.85 288.304 274.85ZM310.404 330.75L318.204 332.7V334H300.004V326.2C299.05 328.02 297.837 329.667 296.364 331.14C295.15 332.353 293.59 333.437 291.684 334.39C289.864 335.43 287.654 335.95 285.054 335.95C282.28 335.95 279.507 335.257 276.734 333.87C274.047 332.397 271.62 330.317 269.454 327.63C267.374 324.857 265.64 321.52 264.254 317.62C262.954 313.633 262.304 309.127 262.304 304.1C262.304 299.073 262.954 294.61 264.254 290.71C265.64 286.723 267.46 283.387 269.714 280.7C271.967 277.927 274.524 275.847 277.384 274.46C280.244 272.987 283.234 272.25 286.354 272.25C288.78 272.25 290.86 272.597 292.594 273.29C294.327 273.983 295.757 274.72 296.884 275.5C298.184 276.453 299.224 277.537 300.004 278.75V246.25L292.204 244.3V243H310.404V330.75ZM361.104 302.15C353.564 302.15 347.974 303.84 344.334 307.22C340.78 310.513 339.004 315.107 339.004 321C339.004 324.9 339.957 327.933 341.864 330.1C343.77 332.267 345.85 333.35 348.104 333.35C350.184 333.35 352.004 332.743 353.564 331.53C355.21 330.317 356.597 328.973 357.724 327.5C359.024 325.853 360.15 323.903 361.104 321.65V302.15ZM351.354 274.2C348.754 274.2 346.587 275.11 344.854 276.93C343.12 278.663 342.254 281.003 342.254 283.95C342.254 284.643 342.254 285.25 342.254 285.77C342.34 286.29 342.427 286.767 342.514 287.2C342.6 287.633 342.73 288.067 342.904 288.5L332.504 291.1C332.33 290.84 332.2 290.493 332.114 290.06C332.027 289.627 331.94 289.15 331.854 288.63C331.854 288.11 331.854 287.417 331.854 286.55C331.854 284.73 332.287 282.997 333.154 281.35C334.02 279.617 335.277 278.1 336.924 276.8C338.657 275.413 340.694 274.33 343.034 273.55C345.46 272.683 348.234 272.25 351.354 272.25C357.594 272.25 362.49 274.027 366.044 277.58C369.684 281.133 371.504 285.857 371.504 291.75V330.75L379.304 332.7V334H361.104V326.2C360.15 328.02 358.937 329.667 357.464 331.14C356.25 332.353 354.69 333.437 352.784 334.39C350.964 335.43 348.754 335.95 346.154 335.95C339.914 335.95 335.19 334.477 331.984 331.53C328.864 328.583 327.304 324.64 327.304 319.7C327.304 317.273 327.954 314.847 329.254 312.42C330.64 309.993 332.677 307.827 335.364 305.92C338.137 304.013 341.647 302.497 345.894 301.37C350.14 300.157 355.21 299.55 361.104 299.55V291.75C361.104 285.25 360.107 280.7 358.114 278.1C356.207 275.5 353.954 274.2 351.354 274.2ZM431.314 304.1C431.314 309.647 431.704 314.283 432.484 318.01C433.35 321.737 434.434 324.77 435.734 327.11C437.12 329.363 438.637 330.967 440.284 331.92C442.017 332.873 443.794 333.35 445.614 333.35C447.867 333.35 449.99 332.917 451.984 332.05C453.977 331.183 455.754 330.013 457.314 328.54C458.874 327.067 460.13 325.29 461.084 323.21C462.124 321.13 462.817 318.877 463.164 316.45H465.114C464.767 319.223 463.987 321.823 462.774 324.25C461.647 326.59 460.174 328.627 458.354 330.36C456.534 332.093 454.41 333.437 451.984 334.39C449.644 335.43 447.087 335.95 444.314 335.95C441.02 335.95 437.9 335.257 434.954 333.87C432.007 332.397 429.364 330.317 427.024 327.63C424.77 324.857 422.95 321.52 421.564 317.62C420.264 313.633 419.614 309.127 419.614 304.1C419.614 298.9 420.264 294.307 421.564 290.32C422.864 286.333 424.554 283.04 426.634 280.44C428.8 277.753 431.27 275.717 434.044 274.33C436.904 272.943 439.894 272.25 443.014 272.25C446.134 272.25 449.08 272.943 451.854 274.33C454.714 275.717 457.184 277.753 459.264 280.44C461.43 283.04 463.164 286.333 464.464 290.32C465.764 294.307 466.414 298.9 466.414 304.1H431.314ZM443.014 274.2C441.714 274.2 440.414 274.633 439.114 275.5C437.814 276.28 436.6 277.71 435.474 279.79C434.347 281.87 433.394 284.687 432.614 288.24C431.92 291.707 431.487 296.127 431.314 301.5H454.714C454.54 296.127 454.064 291.707 453.284 288.24C452.59 284.687 451.68 281.87 450.554 279.79C449.427 277.71 448.214 276.28 446.914 275.5C445.614 274.633 444.314 274.2 443.014 274.2ZM499.604 335.95C496.831 335.95 494.448 335.603 492.454 334.91C490.461 334.303 488.858 333.567 487.644 332.7C486.171 331.747 484.958 330.663 484.004 329.45C483.658 330.75 482.921 331.963 481.794 333.09C480.754 334.217 479.758 334.953 478.804 335.3H476.854C476.941 334.173 477.028 333.003 477.114 331.79C477.201 330.75 477.288 329.667 477.374 328.54C477.461 327.327 477.504 326.113 477.504 324.9C477.504 323.6 477.461 322.3 477.374 321C477.288 319.7 477.201 318.53 477.114 317.49C477.028 316.277 476.941 315.063 476.854 313.85H478.804C480.451 320.09 482.964 324.9 486.344 328.28C489.724 331.66 493.711 333.35 498.304 333.35C501.944 333.35 504.891 332.223 507.144 329.97C509.484 327.717 510.654 324.943 510.654 321.65C510.654 319.31 509.831 317.273 508.184 315.54C506.624 313.807 504.631 312.247 502.204 310.86C499.778 309.387 497.178 307.957 494.404 306.57C491.631 305.183 489.031 303.623 486.604 301.89C484.178 300.157 482.141 298.12 480.494 295.78C478.934 293.44 478.154 290.58 478.154 287.2C478.154 285.293 478.588 283.43 479.454 281.61C480.321 279.79 481.491 278.187 482.964 276.8C484.524 275.413 486.388 274.33 488.554 273.55C490.721 272.683 493.104 272.25 495.704 272.25C497.958 272.25 499.908 272.597 501.554 273.29C503.288 273.983 504.761 274.72 505.974 275.5C507.274 276.453 508.401 277.537 509.354 278.75C509.701 277.45 510.394 276.237 511.434 275.11C512.561 273.983 513.601 273.247 514.554 272.9H516.504C516.331 274.027 516.201 275.197 516.114 276.41C516.028 277.45 515.941 278.577 515.854 279.79C515.854 281.003 515.854 282.173 515.854 283.3C515.854 284.6 515.854 285.943 515.854 287.33C515.941 288.63 516.028 289.8 516.114 290.84C516.201 292.053 516.331 293.223 516.504 294.35H514.554C512.908 288.11 510.481 283.3 507.274 279.92C504.068 276.54 500.644 274.85 497.004 274.85C494.058 274.85 491.588 275.847 489.594 277.84C487.601 279.747 486.604 282 486.604 284.6C486.604 286.767 487.428 288.63 489.074 290.19C490.721 291.75 492.758 293.223 495.184 294.61C497.611 295.91 500.254 297.253 503.114 298.64C506.061 300.027 508.748 301.63 511.174 303.45C513.601 305.27 515.638 307.437 517.284 309.95C518.931 312.463 519.754 315.497 519.754 319.05C519.754 321.13 519.234 323.21 518.194 325.29C517.241 327.283 515.854 329.103 514.034 330.75C512.301 332.31 510.178 333.567 507.664 334.52C505.238 335.473 502.551 335.95 499.604 335.95ZM562.04 274.2V276.8H547.09V318.27C547.09 323.557 548.043 327.413 549.95 329.84C551.857 332.18 553.937 333.35 556.19 333.35C559.137 333.35 561.607 332.267 563.6 330.1C565.68 327.847 566.893 324.597 567.24 320.35H569.19C568.843 325.29 567.327 329.147 564.64 331.92C562.04 334.607 558.79 335.95 554.89 335.95C549.343 335.95 544.923 334.347 541.63 331.14C538.337 327.847 536.69 323.6 536.69 318.4V276.8H525.64V274.2H536.69V259.25L547.09 252.1V274.2H562.04ZM609.551 302.15C602.011 302.15 596.421 303.84 592.781 307.22C589.227 310.513 587.451 315.107 587.451 321C587.451 324.9 588.404 327.933 590.311 330.1C592.217 332.267 594.297 333.35 596.551 333.35C598.631 333.35 600.451 332.743 602.011 331.53C603.657 330.317 605.044 328.973 606.171 327.5C607.471 325.853 608.597 323.903 609.551 321.65V302.15ZM599.801 274.2C597.201 274.2 595.034 275.11 593.301 276.93C591.567 278.663 590.701 281.003 590.701 283.95C590.701 284.643 590.701 285.25 590.701 285.77C590.787 286.29 590.874 286.767 590.961 287.2C591.047 287.633 591.177 288.067 591.351 288.5L580.951 291.1C580.777 290.84 580.647 290.493 580.561 290.06C580.474 289.627 580.387 289.15 580.301 288.63C580.301 288.11 580.301 287.417 580.301 286.55C580.301 284.73 580.734 282.997 581.601 281.35C582.467 279.617 583.724 278.1 585.371 276.8C587.104 275.413 589.141 274.33 591.481 273.55C593.907 272.683 596.681 272.25 599.801 272.25C606.041 272.25 610.937 274.027 614.491 277.58C618.131 281.133 619.951 285.857 619.951 291.75V330.75L627.751 332.7V334H609.551V326.2C608.597 328.02 607.384 329.667 605.911 331.14C604.697 332.353 603.137 333.437 601.231 334.39C599.411 335.43 597.201 335.95 594.601 335.95C588.361 335.95 583.637 334.477 580.431 331.53C577.311 328.583 575.751 324.64 575.751 319.7C575.751 317.273 576.401 314.847 577.701 312.42C579.087 309.993 581.124 307.827 583.811 305.92C586.584 304.013 590.094 302.497 594.341 301.37C598.587 300.157 603.657 299.55 609.551 299.55V291.75C609.551 285.25 608.554 280.7 606.561 278.1C604.654 275.5 602.401 274.2 599.801 274.2ZM643.33 330.75V277.45L635.53 275.5V274.2H653.73V282C654.597 280.267 655.767 278.663 657.24 277.19C658.454 275.977 660.014 274.85 661.92 273.81C663.827 272.77 666.08 272.25 668.68 272.25C671.974 272.25 674.66 272.857 676.74 274.07C678.907 275.283 680.64 276.627 681.94 278.1C683.5 279.833 684.714 281.783 685.58 283.95C686.707 281.783 688.05 279.833 689.61 278.1C690.997 276.627 692.687 275.283 694.68 274.07C696.674 272.857 699.057 272.25 701.83 272.25C704.43 272.25 706.814 272.727 708.98 273.68C711.234 274.633 713.184 275.977 714.83 277.71C716.477 279.357 717.734 281.393 718.6 283.82C719.554 286.16 720.03 288.803 720.03 291.75V330.75L727.83 332.7V334H702.48V332.7L709.63 330.75V291.75C709.63 285.597 708.634 281.263 706.64 278.75C704.734 276.15 702.48 274.85 699.88 274.85C697.714 274.85 695.85 275.457 694.29 276.67C692.73 277.883 691.387 279.227 690.26 280.7C688.96 282.433 687.834 284.383 686.88 286.55V330.75L694.03 332.7V334H669.33V332.7L676.48 330.75V291.75C676.48 285.597 675.484 281.263 673.49 278.75C671.584 276.15 669.33 274.85 666.73 274.85C664.564 274.85 662.7 275.457 661.14 276.67C659.58 277.883 658.237 279.227 657.11 280.7C655.81 282.433 654.684 284.383 653.73 286.55V330.75L660.88 332.7V334H635.53V332.7L643.33 330.75ZM761.57 274.2C760.096 274.2 758.58 274.72 757.02 275.76C755.546 276.713 754.16 278.36 752.86 280.7C751.646 282.953 750.606 285.987 749.74 289.8C748.96 293.613 748.57 298.38 748.57 304.1C748.57 309.82 748.96 314.587 749.74 318.4C750.606 322.213 751.646 325.29 752.86 327.63C754.16 329.883 755.546 331.53 757.02 332.57C758.58 333.523 760.096 334 761.57 334C763.043 334 764.516 333.523 765.99 332.57C767.55 331.53 768.936 329.883 770.15 327.63C771.45 325.29 772.49 322.213 773.27 318.4C774.136 314.587 774.57 309.82 774.57 304.1C774.57 298.38 774.136 293.613 773.27 289.8C772.49 285.987 771.45 282.953 770.15 280.7C768.936 278.36 767.55 276.713 765.99 275.76C764.516 274.72 763.043 274.2 761.57 274.2ZM761.57 272.25C764.776 272.25 767.853 272.987 770.8 274.46C773.833 275.847 776.476 277.927 778.73 280.7C781.07 283.387 782.89 286.723 784.19 290.71C785.576 294.61 786.27 299.073 786.27 304.1C786.27 309.127 785.576 313.633 784.19 317.62C782.89 321.52 781.07 324.857 778.73 327.63C776.476 330.317 773.833 332.397 770.8 333.87C767.853 335.257 764.776 335.95 761.57 335.95C758.276 335.95 755.156 335.257 752.21 333.87C749.263 332.397 746.62 330.317 744.28 327.63C742.026 324.857 740.206 321.52 738.82 317.62C737.52 313.633 736.87 309.127 736.87 304.1C736.87 299.073 737.52 294.61 738.82 290.71C740.206 286.723 742.026 283.387 744.28 280.7C746.62 277.927 749.263 275.847 752.21 274.46C755.156 272.987 758.276 272.25 761.57 272.25ZM820.034 335.95C817.261 335.95 814.877 335.603 812.884 334.91C810.891 334.303 809.287 333.567 808.074 332.7C806.601 331.747 805.387 330.663 804.434 329.45C804.087 330.75 803.351 331.963 802.224 333.09C801.184 334.217 800.187 334.953 799.234 335.3H797.284C797.371 334.173 797.457 333.003 797.544 331.79C797.631 330.75 797.717 329.667 797.804 328.54C797.891 327.327 797.934 326.113 797.934 324.9C797.934 323.6 797.891 322.3 797.804 321C797.717 319.7 797.631 318.53 797.544 317.49C797.457 316.277 797.371 315.063 797.284 313.85H799.234C800.881 320.09 803.394 324.9 806.774 328.28C810.154 331.66 814.141 333.35 818.734 333.35C822.374 333.35 825.321 332.223 827.574 329.97C829.914 327.717 831.084 324.943 831.084 321.65C831.084 319.31 830.261 317.273 828.614 315.54C827.054 313.807 825.061 312.247 822.634 310.86C820.207 309.387 817.607 307.957 814.834 306.57C812.061 305.183 809.461 303.623 807.034 301.89C804.607 300.157 802.571 298.12 800.924 295.78C799.364 293.44 798.584 290.58 798.584 287.2C798.584 285.293 799.017 283.43 799.884 281.61C800.751 279.79 801.921 278.187 803.394 276.8C804.954 275.413 806.817 274.33 808.984 273.55C811.151 272.683 813.534 272.25 816.134 272.25C818.387 272.25 820.337 272.597 821.984 273.29C823.717 273.983 825.191 274.72 826.404 275.5C827.704 276.453 828.831 277.537 829.784 278.75C830.131 277.45 830.824 276.237 831.864 275.11C832.991 273.983 834.031 273.247 834.984 272.9H836.934C836.761 274.027 836.631 275.197 836.544 276.41C836.457 277.45 836.371 278.577 836.284 279.79C836.284 281.003 836.284 282.173 836.284 283.3C836.284 284.6 836.284 285.943 836.284 287.33C836.371 288.63 836.457 289.8 836.544 290.84C836.631 292.053 836.761 293.223 836.934 294.35H834.984C833.337 288.11 830.911 283.3 827.704 279.92C824.497 276.54 821.074 274.85 817.434 274.85C814.487 274.85 812.017 275.847 810.024 277.84C808.031 279.747 807.034 282 807.034 284.6C807.034 286.767 807.857 288.63 809.504 290.19C811.151 291.75 813.187 293.223 815.614 294.61C818.041 295.91 820.684 297.253 823.544 298.64C826.491 300.027 829.177 301.63 831.604 303.45C834.031 305.27 836.067 307.437 837.714 309.95C839.361 312.463 840.184 315.497 840.184 319.05C840.184 321.13 839.664 323.21 838.624 325.29C837.671 327.283 836.284 329.103 834.464 330.75C832.731 332.31 830.607 333.567 828.094 334.52C825.667 335.473 822.981 335.95 820.034 335.95ZM142.8 354.05C142.8 355.523 142.54 356.867 142.02 358.08C141.587 359.207 141.067 360.203 140.46 361.07C139.767 362.023 139.03 362.933 138.25 363.8L128.5 359.9C129.28 359.033 130.017 358.123 130.71 357.17C131.317 356.303 131.837 355.307 132.27 354.18C132.79 352.967 133.05 351.623 133.05 350.15C133.05 347.897 132.443 346.163 131.23 344.95C130.103 343.65 128.543 343 126.55 343C125.597 343 124.687 343.26 123.82 343.78C122.953 344.213 122.173 345.037 121.48 346.25C120.873 347.377 120.353 348.937 119.92 350.93C119.573 352.923 119.4 355.48 119.4 358.6V374.2H137.6V376.8H119.4V430.75L127.2 432.7V434H101.2V432.7L109 430.75V376.8H101.2V374.2H109V358.6C109 353.4 110.603 349.197 113.81 345.99C117.103 342.697 121.35 341.05 126.55 341.05C128.977 341.05 131.187 341.44 133.18 342.22C135.173 342.913 136.863 343.867 138.25 345.08C139.723 346.293 140.85 347.68 141.63 349.24C142.41 350.8 142.8 352.403 142.8 354.05ZM177.91 402.15C170.37 402.15 164.78 403.84 161.14 407.22C157.587 410.513 155.81 415.107 155.81 421C155.81 424.9 156.763 427.933 158.67 430.1C160.577 432.267 162.657 433.35 164.91 433.35C166.99 433.35 168.81 432.743 170.37 431.53C172.017 430.317 173.403 428.973 174.53 427.5C175.83 425.853 176.957 423.903 177.91 421.65V402.15ZM168.16 374.2C165.56 374.2 163.393 375.11 161.66 376.93C159.927 378.663 159.06 381.003 159.06 383.95C159.06 384.643 159.06 385.25 159.06 385.77C159.147 386.29 159.233 386.767 159.32 387.2C159.407 387.633 159.537 388.067 159.71 388.5L149.31 391.1C149.137 390.84 149.007 390.493 148.92 390.06C148.833 389.627 148.747 389.15 148.66 388.63C148.66 388.11 148.66 387.417 148.66 386.55C148.66 384.73 149.093 382.997 149.96 381.35C150.827 379.617 152.083 378.1 153.73 376.8C155.463 375.413 157.5 374.33 159.84 373.55C162.267 372.683 165.04 372.25 168.16 372.25C174.4 372.25 179.297 374.027 182.85 377.58C186.49 381.133 188.31 385.857 188.31 391.75V430.75L196.11 432.7V434H177.91V426.2C176.957 428.02 175.743 429.667 174.27 431.14C173.057 432.353 171.497 433.437 169.59 434.39C167.77 435.43 165.56 435.95 162.96 435.95C156.72 435.95 151.997 434.477 148.79 431.53C145.67 428.583 144.11 424.64 144.11 419.7C144.11 417.273 144.76 414.847 146.06 412.42C147.447 409.993 149.483 407.827 152.17 405.92C154.943 404.013 158.453 402.497 162.7 401.37C166.947 400.157 172.017 399.55 177.91 399.55V391.75C177.91 385.25 176.913 380.7 174.92 378.1C173.013 375.5 170.76 374.2 168.16 374.2ZM209.77 430.75V346.25L201.97 344.3V343H220.17V430.75L227.97 432.7V434H201.97V432.7L209.77 430.75ZM270.205 402.15C262.665 402.15 257.075 403.84 253.435 407.22C249.882 410.513 248.105 415.107 248.105 421C248.105 424.9 249.058 427.933 250.965 430.1C252.872 432.267 254.952 433.35 257.205 433.35C259.285 433.35 261.105 432.743 262.665 431.53C264.312 430.317 265.698 428.973 266.825 427.5C268.125 425.853 269.252 423.903 270.205 421.65V402.15ZM260.455 374.2C257.855 374.2 255.688 375.11 253.955 376.93C252.222 378.663 251.355 381.003 251.355 383.95C251.355 384.643 251.355 385.25 251.355 385.77C251.442 386.29 251.528 386.767 251.615 387.2C251.702 387.633 251.832 388.067 252.005 388.5L241.605 391.1C241.432 390.84 241.302 390.493 241.215 390.06C241.128 389.627 241.042 389.15 240.955 388.63C240.955 388.11 240.955 387.417 240.955 386.55C240.955 384.73 241.388 382.997 242.255 381.35C243.122 379.617 244.378 378.1 246.025 376.8C247.758 375.413 249.795 374.33 252.135 373.55C254.562 372.683 257.335 372.25 260.455 372.25C266.695 372.25 271.592 374.027 275.145 377.58C278.785 381.133 280.605 385.857 280.605 391.75V430.75L288.405 432.7V434H270.205V426.2C269.252 428.02 268.038 429.667 266.565 431.14C265.352 432.353 263.792 433.437 261.885 434.39C260.065 435.43 257.855 435.95 255.255 435.95C249.015 435.95 244.292 434.477 241.085 431.53C237.965 428.583 236.405 424.64 236.405 419.7C236.405 417.273 237.055 414.847 238.355 412.42C239.742 409.993 241.778 407.827 244.465 405.92C247.238 404.013 250.748 402.497 254.995 401.37C259.242 400.157 264.312 399.55 270.205 399.55V391.75C270.205 385.25 269.208 380.7 267.215 378.1C265.308 375.5 263.055 374.2 260.455 374.2ZM303.985 430.75V377.45L296.185 375.5V374.2H314.385V382C315.251 380.267 316.421 378.663 317.895 377.19C319.108 375.977 320.668 374.85 322.575 373.81C324.481 372.77 326.735 372.25 329.335 372.25C331.935 372.25 334.318 372.727 336.485 373.68C338.738 374.633 340.688 375.977 342.335 377.71C343.981 379.357 345.238 381.393 346.105 383.82C347.058 386.16 347.535 388.803 347.535 391.75V430.75L355.335 432.7V434H329.985V432.7L337.135 430.75V391.75C337.135 385.597 336.138 381.263 334.145 378.75C332.238 376.15 329.985 374.85 327.385 374.85C325.218 374.85 323.355 375.457 321.795 376.67C320.235 377.883 318.891 379.227 317.765 380.7C316.465 382.433 315.338 384.383 314.385 386.55V430.75L321.535 432.7V434H296.185V432.7L303.985 430.75ZM389.739 374.85C387.919 374.85 386.142 375.37 384.409 376.41C382.762 377.363 381.246 378.967 379.859 381.22C378.559 383.473 377.476 386.463 376.609 390.19C375.829 393.917 375.439 398.553 375.439 404.1C375.439 409.647 375.829 414.283 376.609 418.01C377.476 421.737 378.516 424.77 379.729 427.11C381.029 429.363 382.416 430.967 383.889 431.92C385.449 432.873 386.966 433.35 388.439 433.35C390.519 433.35 392.339 432.743 393.899 431.53C395.546 430.317 396.932 428.973 398.059 427.5C399.359 425.853 400.486 423.903 401.439 421.65V382.65C400.572 381.177 399.576 379.877 398.449 378.75C397.496 377.797 396.282 376.93 394.809 376.15C393.422 375.283 391.732 374.85 389.739 374.85ZM411.839 430.75L419.639 432.7V434H401.439V426.2C400.486 428.02 399.272 429.667 397.799 431.14C396.586 432.353 395.026 433.437 393.119 434.39C391.299 435.43 389.089 435.95 386.489 435.95C383.716 435.95 380.942 435.257 378.169 433.87C375.482 432.397 373.056 430.317 370.889 427.63C368.809 424.857 367.076 421.52 365.689 417.62C364.389 413.633 363.739 409.127 363.739 404.1C363.739 399.073 364.389 394.61 365.689 390.71C367.076 386.723 368.896 383.387 371.149 380.7C373.402 377.927 375.959 375.847 378.819 374.46C381.679 372.987 384.669 372.25 387.789 372.25C390.216 372.25 392.296 372.597 394.029 373.29C395.762 373.983 397.192 374.72 398.319 375.5C399.619 376.453 400.659 377.537 401.439 378.75V346.25L393.639 344.3V343H411.839V430.75ZM454.089 374.2C452.616 374.2 451.099 374.72 449.539 375.76C448.066 376.713 446.679 378.36 445.379 380.7C444.166 382.953 443.126 385.987 442.259 389.8C441.479 393.613 441.089 398.38 441.089 404.1C441.089 409.82 441.479 414.587 442.259 418.4C443.126 422.213 444.166 425.29 445.379 427.63C446.679 429.883 448.066 431.53 449.539 432.57C451.099 433.523 452.616 434 454.089 434C455.562 434 457.036 433.523 458.509 432.57C460.069 431.53 461.456 429.883 462.669 427.63C463.969 425.29 465.009 422.213 465.789 418.4C466.656 414.587 467.089 409.82 467.089 404.1C467.089 398.38 466.656 393.613 465.789 389.8C465.009 385.987 463.969 382.953 462.669 380.7C461.456 378.36 460.069 376.713 458.509 375.76C457.036 374.72 455.562 374.2 454.089 374.2ZM454.089 372.25C457.296 372.25 460.372 372.987 463.319 374.46C466.352 375.847 468.996 377.927 471.249 380.7C473.589 383.387 475.409 386.723 476.709 390.71C478.096 394.61 478.789 399.073 478.789 404.1C478.789 409.127 478.096 413.633 476.709 417.62C475.409 421.52 473.589 424.857 471.249 427.63C468.996 430.317 466.352 432.397 463.319 433.87C460.372 435.257 457.296 435.95 454.089 435.95C450.796 435.95 447.676 435.257 444.729 433.87C441.782 432.397 439.139 430.317 436.799 427.63C434.546 424.857 432.726 421.52 431.339 417.62C430.039 413.633 429.389 409.127 429.389 404.1C429.389 399.073 430.039 394.61 431.339 390.71C432.726 386.723 434.546 383.387 436.799 380.7C439.139 377.927 441.782 375.847 444.729 374.46C447.676 372.987 450.796 372.25 454.089 372.25ZM533.384 404.1C533.384 409.647 533.774 414.283 534.554 418.01C535.421 421.737 536.504 424.77 537.804 427.11C539.191 429.363 540.707 430.967 542.354 431.92C544.087 432.873 545.864 433.35 547.684 433.35C549.937 433.35 552.061 432.917 554.054 432.05C556.047 431.183 557.824 430.013 559.384 428.54C560.944 427.067 562.201 425.29 563.154 423.21C564.194 421.13 564.887 418.877 565.234 416.45H567.184C566.837 419.223 566.057 421.823 564.844 424.25C563.717 426.59 562.244 428.627 560.424 430.36C558.604 432.093 556.481 433.437 554.054 434.39C551.714 435.43 549.157 435.95 546.384 435.95C543.091 435.95 539.971 435.257 537.024 433.87C534.077 432.397 531.434 430.317 529.094 427.63C526.841 424.857 525.021 421.52 523.634 417.62C522.334 413.633 521.684 409.127 521.684 404.1C521.684 398.9 522.334 394.307 523.634 390.32C524.934 386.333 526.624 383.04 528.704 380.44C530.871 377.753 533.341 375.717 536.114 374.33C538.974 372.943 541.964 372.25 545.084 372.25C548.204 372.25 551.151 372.943 553.924 374.33C556.784 375.717 559.254 377.753 561.334 380.44C563.501 383.04 565.234 386.333 566.534 390.32C567.834 394.307 568.484 398.9 568.484 404.1H533.384ZM545.084 374.2C543.784 374.2 542.484 374.633 541.184 375.5C539.884 376.28 538.671 377.71 537.544 379.79C536.417 381.87 535.464 384.687 534.684 388.24C533.991 391.707 533.557 396.127 533.384 401.5H556.784C556.611 396.127 556.134 391.707 555.354 388.24C554.661 384.687 553.751 381.87 552.624 379.79C551.497 377.71 550.284 376.28 548.984 375.5C547.684 374.633 546.384 374.2 545.084 374.2ZM586.075 430.75V377.45L578.275 375.5V374.2H596.475V382C597.341 380.267 598.511 378.663 599.985 377.19C601.198 375.977 602.758 374.85 604.665 373.81C606.571 372.77 608.825 372.25 611.425 372.25C614.718 372.25 617.405 372.857 619.485 374.07C621.651 375.283 623.385 376.627 624.685 378.1C626.245 379.833 627.458 381.783 628.325 383.95C629.451 381.783 630.795 379.833 632.355 378.1C633.741 376.627 635.431 375.283 637.425 374.07C639.418 372.857 641.801 372.25 644.575 372.25C647.175 372.25 649.558 372.727 651.725 373.68C653.978 374.633 655.928 375.977 657.575 377.71C659.221 379.357 660.478 381.393 661.345 383.82C662.298 386.16 662.775 388.803 662.775 391.75V430.75L670.575 432.7V434H645.225V432.7L652.375 430.75V391.75C652.375 385.597 651.378 381.263 649.385 378.75C647.478 376.15 645.225 374.85 642.625 374.85C640.458 374.85 638.595 375.457 637.035 376.67C635.475 377.883 634.131 379.227 633.005 380.7C631.705 382.433 630.578 384.383 629.625 386.55V430.75L636.775 432.7V434H612.075V432.7L619.225 430.75V391.75C619.225 385.597 618.228 381.263 616.235 378.75C614.328 376.15 612.075 374.85 609.475 374.85C607.308 374.85 605.445 375.457 603.885 376.67C602.325 377.883 600.981 379.227 599.855 380.7C598.555 382.433 597.428 384.383 596.475 386.55V430.75L603.625 432.7V434H578.275V432.7L586.075 430.75Z" fill="white"/>
<path d="M118.55 559.1C118.55 564.647 118.94 569.283 119.72 573.01C120.587 576.737 121.67 579.77 122.97 582.11C124.357 584.363 125.873 585.967 127.52 586.92C129.253 587.873 131.03 588.35 132.85 588.35C135.103 588.35 137.227 587.917 139.22 587.05C141.213 586.183 142.99 585.013 144.55 583.54C146.11 582.067 147.367 580.29 148.32 578.21C149.36 576.13 150.053 573.877 150.4 571.45H152.35C152.003 574.223 151.223 576.823 150.01 579.25C148.883 581.59 147.41 583.627 145.59 585.36C143.77 587.093 141.647 588.437 139.22 589.39C136.88 590.43 134.323 590.95 131.55 590.95C128.257 590.95 125.137 590.257 122.19 588.87C119.243 587.397 116.6 585.317 114.26 582.63C112.007 579.857 110.187 576.52 108.8 572.62C107.5 568.633 106.85 564.127 106.85 559.1C106.85 553.9 107.5 549.307 108.8 545.32C110.1 541.333 111.79 538.04 113.87 535.44C116.037 532.753 118.507 530.717 121.28 529.33C124.14 527.943 127.13 527.25 130.25 527.25C133.37 527.25 136.317 527.943 139.09 529.33C141.95 530.717 144.42 532.753 146.5 535.44C148.667 538.04 150.4 541.333 151.7 545.32C153 549.307 153.65 553.9 153.65 559.1H118.55ZM130.25 529.2C128.95 529.2 127.65 529.633 126.35 530.5C125.05 531.28 123.837 532.71 122.71 534.79C121.583 536.87 120.63 539.687 119.85 543.24C119.157 546.707 118.723 551.127 118.55 556.5H141.95C141.777 551.127 141.3 546.707 140.52 543.24C139.827 539.687 138.917 536.87 137.79 534.79C136.663 532.71 135.45 531.28 134.15 530.5C132.85 529.633 131.55 529.2 130.25 529.2ZM171.241 585.75V532.45L163.441 530.5V529.2H181.641V537C182.507 535.267 183.677 533.663 185.151 532.19C186.364 530.977 187.924 529.85 189.831 528.81C191.737 527.77 193.991 527.25 196.591 527.25C199.884 527.25 202.571 527.857 204.651 529.07C206.817 530.283 208.551 531.627 209.851 533.1C211.411 534.833 212.624 536.783 213.491 538.95C214.617 536.783 215.961 534.833 217.521 533.1C218.907 531.627 220.597 530.283 222.591 529.07C224.584 527.857 226.967 527.25 229.741 527.25C232.341 527.25 234.724 527.727 236.891 528.68C239.144 529.633 241.094 530.977 242.741 532.71C244.387 534.357 245.644 536.393 246.511 538.82C247.464 541.16 247.941 543.803 247.941 546.75V585.75L255.741 587.7V589H230.391V587.7L237.541 585.75V546.75C237.541 540.597 236.544 536.263 234.551 533.75C232.644 531.15 230.391 529.85 227.791 529.85C225.624 529.85 223.761 530.457 222.201 531.67C220.641 532.883 219.297 534.227 218.171 535.7C216.871 537.433 215.744 539.383 214.791 541.55V585.75L221.941 587.7V589H197.241V587.7L204.391 585.75V546.75C204.391 540.597 203.394 536.263 201.401 533.75C199.494 531.15 197.241 529.85 194.641 529.85C192.474 529.85 190.611 530.457 189.051 531.67C187.491 532.883 186.147 534.227 185.021 535.7C183.721 537.433 182.594 539.383 181.641 541.55V585.75L188.791 587.7V589H163.441V587.7L171.241 585.75ZM127 598C124.573 598 122.233 598.52 119.98 599.56C117.727 600.6 115.69 602.03 113.87 603.85C112.137 605.583 110.75 607.577 109.71 609.83C108.67 612.083 108.15 614.423 108.15 616.85C108.15 619.103 109.017 620.967 110.75 622.44C112.57 623.913 115.603 624.65 119.85 624.65L122.45 635.05C122.103 635.223 121.713 635.353 121.28 635.44C120.847 635.527 120.37 635.613 119.85 635.7C119.417 635.7 118.983 635.7 118.55 635.7C114.91 635.7 111.833 634.27 109.32 631.41C106.807 628.463 105.55 624.043 105.55 618.15C105.55 615.03 106.157 612.127 107.37 609.44C108.583 606.667 110.23 604.24 112.31 602.16C114.39 600.08 116.773 598.433 119.46 597.22C122.233 596.007 125.18 595.4 128.3 595.4C132.373 595.4 136.1 596.093 139.48 597.48C142.947 598.867 145.893 600.773 148.32 603.2C150.833 605.54 152.783 608.357 154.17 611.65C155.557 614.857 156.25 618.323 156.25 622.05C156.25 625.603 155.513 629.287 154.04 633.1C152.567 636.827 150.573 640.553 148.06 644.28C145.633 648.007 142.86 651.647 139.74 655.2C136.62 658.753 133.413 662.09 130.12 665.21C126.827 668.33 123.62 671.233 120.5 673.92C117.38 676.52 114.563 678.73 112.05 680.55H153L155.6 668.2H157.55V689H100.35C106.33 682.5 111.963 676.433 117.25 670.8C122.537 665.167 127.13 659.707 131.03 654.42C135.017 649.047 138.137 643.76 140.39 638.56C142.73 633.273 143.9 627.77 143.9 622.05C143.9 617.803 143.467 614.163 142.6 611.13C141.733 608.097 140.563 605.627 139.09 603.72C137.617 601.727 135.84 600.297 133.76 599.43C131.68 598.477 129.427 598 127 598ZM212.749 643.5C212.749 634.4 212.229 626.903 211.189 621.01C210.149 615.117 208.849 610.48 207.289 607.1C205.729 603.72 203.996 601.38 202.089 600.08C200.183 598.693 198.319 598 196.499 598C194.679 598 192.816 598.693 190.909 600.08C189.003 601.38 187.269 603.72 185.709 607.1C184.149 610.48 182.849 615.117 181.809 621.01C180.769 626.903 180.249 634.4 180.249 643.5C180.249 652.6 180.769 660.097 181.809 665.99C182.849 671.883 184.149 676.52 185.709 679.9C187.269 683.28 189.003 685.663 190.909 687.05C192.816 688.35 194.679 689 196.499 689C198.319 689 200.183 688.35 202.089 687.05C203.996 685.663 205.729 683.28 207.289 679.9C208.849 676.52 210.149 671.883 211.189 665.99C212.229 660.097 212.749 652.6 212.749 643.5ZM225.099 643.5C225.099 651.82 224.276 658.97 222.629 664.95C220.983 670.93 218.816 675.87 216.129 679.77C213.443 683.583 210.366 686.4 206.899 688.22C203.519 690.04 200.053 690.95 196.499 690.95C192.946 690.95 189.436 690.04 185.969 688.22C182.589 686.4 179.556 683.583 176.869 679.77C174.183 675.87 172.016 670.93 170.369 664.95C168.723 658.97 167.899 651.82 167.899 643.5C167.899 635.18 168.723 628.03 170.369 622.05C172.016 616.07 174.183 611.173 176.869 607.36C179.556 603.46 182.589 600.6 185.969 598.78C189.436 596.96 192.946 596.05 196.499 596.05C200.053 596.05 203.519 596.96 206.899 598.78C210.366 600.6 213.443 603.46 216.129 607.36C218.816 611.173 220.983 616.07 222.629 622.05C224.276 628.03 225.099 635.18 225.099 643.5ZM256.238 598C253.812 598 251.472 598.52 249.218 599.56C246.965 600.6 244.928 602.03 243.108 603.85C241.375 605.583 239.988 607.577 238.948 609.83C237.908 612.083 237.388 614.423 237.388 616.85C237.388 619.103 238.255 620.967 239.988 622.44C241.808 623.913 244.842 624.65 249.088 624.65L251.688 635.05C251.342 635.223 250.952 635.353 250.518 635.44C250.085 635.527 249.608 635.613 249.088 635.7C248.655 635.7 248.222 635.7 247.788 635.7C244.148 635.7 241.072 634.27 238.558 631.41C236.045 628.463 234.788 624.043 234.788 618.15C234.788 615.03 235.395 612.127 236.608 609.44C237.822 606.667 239.468 604.24 241.548 602.16C243.628 600.08 246.012 598.433 248.698 597.22C251.472 596.007 254.418 595.4 257.538 595.4C261.612 595.4 265.338 596.093 268.718 597.48C272.185 598.867 275.132 600.773 277.558 603.2C280.072 605.54 282.022 608.357 283.408 611.65C284.795 614.857 285.488 618.323 285.488 622.05C285.488 625.603 284.752 629.287 283.278 633.1C281.805 636.827 279.812 640.553 277.298 644.28C274.872 648.007 272.098 651.647 268.978 655.2C265.858 658.753 262.652 662.09 259.358 665.21C256.065 668.33 252.858 671.233 249.738 673.92C246.618 676.52 243.802 678.73 241.288 680.55H282.238L284.838 668.2H286.788V689H229.588C235.568 682.5 241.202 676.433 246.488 670.8C251.775 665.167 256.368 659.707 260.268 654.42C264.255 649.047 267.375 643.76 269.628 638.56C271.968 633.273 273.138 627.77 273.138 622.05C273.138 617.803 272.705 614.163 271.838 611.13C270.972 608.097 269.802 605.627 268.328 603.72C266.855 601.727 265.078 600.297 262.998 599.43C260.918 598.477 258.665 598 256.238 598ZM320.538 598C316.638 598 313.604 599.127 311.438 601.38C309.271 603.633 308.188 607.057 308.188 611.65C308.188 612.95 308.404 614.25 308.838 615.55C309.011 616.243 309.228 616.893 309.488 617.5L298.438 620.1C298.178 619.753 297.961 619.277 297.788 618.67C297.354 617.63 297.138 616.157 297.138 614.25C297.138 611.823 297.658 609.527 298.698 607.36C299.738 605.107 301.254 603.157 303.248 601.51C305.241 599.863 307.668 598.563 310.528 597.61C313.474 596.57 316.811 596.05 320.538 596.05C324.438 596.05 327.904 596.613 330.938 597.74C334.058 598.78 336.658 600.253 338.738 602.16C340.818 604.067 342.421 606.32 343.548 608.92C344.674 611.52 345.238 614.38 345.238 617.5C345.238 622.267 344.198 625.993 342.118 628.68C340.124 631.367 337.914 633.447 335.488 634.92C332.628 636.567 329.378 637.693 325.738 638.3C330.244 638.907 334.231 640.25 337.698 642.33C339.171 643.197 340.644 644.28 342.118 645.58C343.591 646.88 344.891 648.44 346.018 650.26C347.144 651.993 348.054 654.03 348.748 656.37C349.441 658.71 349.788 661.353 349.788 664.3C349.788 668.027 349.051 671.537 347.578 674.83C346.191 678.037 344.198 680.853 341.598 683.28C338.998 685.62 335.834 687.483 332.108 688.87C328.468 690.257 324.394 690.95 319.888 690.95C316.161 690.95 312.738 690.343 309.618 689.13C306.498 687.917 303.811 686.27 301.558 684.19C299.391 682.11 297.658 679.727 296.358 677.04C295.144 674.267 294.538 671.32 294.538 668.2C294.538 661.353 295.794 656.413 298.308 653.38C300.908 650.26 303.984 648.7 307.538 648.7C307.971 648.7 308.404 648.743 308.838 648.83C309.358 648.917 309.834 649.003 310.268 649.09C310.701 649.177 311.091 649.263 311.438 649.35L308.838 659.75C301.038 659.75 297.138 663.433 297.138 670.8C297.138 672.88 297.658 675.003 298.698 677.17C299.824 679.25 301.341 681.113 303.248 682.76C305.154 684.407 307.408 685.75 310.008 686.79C312.608 687.83 315.468 688.35 318.588 688.35C324.481 688.35 329.074 686.487 332.368 682.76C335.748 678.947 337.438 672.793 337.438 664.3C337.438 655.547 335.791 649.263 332.498 645.45C329.204 641.55 324.784 639.6 319.238 639.6H314.038V637H319.238C323.831 637 327.471 635.483 330.157 632.45C332.844 629.33 334.188 624.347 334.188 617.5C334.188 614.293 333.798 611.477 333.018 609.05C332.324 606.537 331.328 604.5 330.028 602.94C328.814 601.293 327.384 600.08 325.738 599.3C324.091 598.433 322.358 598 320.538 598Z" fill="white"/>
<path d="M740.14 590.29C740.14 597.55 739.15 604.7 737.17 611.74C735.41 618.78 732.22 625.38 727.6 631.54C722.98 637.7 716.49 643.2 708.13 648.04C699.77 652.88 688.99 656.73 675.79 659.59C662.59 662.23 646.42 663.55 627.28 663.55L658.63 641.77V687.31H596.26V622.3H627.28C641.14 622.3 651.37 619.99 657.97 615.37C664.79 610.53 668.2 603.27 668.2 593.59V587.98C668.2 581.82 666.88 576.65 664.24 572.47C661.6 568.07 657.75 564.77 652.69 562.57C647.63 560.37 641.36 559.27 633.88 559.27C621.56 559.27 612.43 562.35 606.49 568.51C600.55 574.45 596.37 582.37 593.95 592.27L524.65 585.01C528.39 563.23 539.17 546.29 556.99 534.19C575.03 522.09 600.66 516.04 633.88 516.04C668.2 516.04 694.49 521.98 712.75 533.86C731.01 545.52 740.14 562.35 740.14 584.35V590.29ZM658.63 704.8V751H596.26V704.8H658.63Z" fill="white"/>
</svg>
