<svg width="1300" height="976" viewBox="0 0 1300 976" fill="none" xmlns="http://www.w3.org/2000/svg">
<path d="M253.53 464.2C253.53 461.68 254.04 459.34 255.06 457.18C256.08 455.02 257.37 453.16 258.93 451.6H259.83C259.71 452.38 259.62 453.19 259.56 454.03C259.5 454.75 259.44 455.53 259.38 456.37C259.38 457.21 259.38 458.02 259.38 458.8C259.38 459.94 259.38 460.96 259.38 461.86C259.44 462.7 259.5 463.45 259.56 464.11C259.62 464.83 259.71 465.46 259.83 466H222.48V465.1L227.88 463.75V405.25L222.48 403.9V403H258.93C258.81 403.54 258.72 404.17 258.66 404.89C258.6 405.55 258.54 406.33 258.48 407.23C258.48 408.07 258.48 409.06 258.48 410.2C258.48 411.04 258.48 411.88 258.48 412.72C258.54 413.5 258.6 414.25 258.66 414.97C258.72 415.81 258.81 416.62 258.93 417.4H258.03C256.47 415.84 255.18 413.98 254.16 411.82C253.14 409.66 252.63 407.32 252.63 404.8H235.53V431.8H244.08L248.13 423.7H249.03V441.7H248.13L244.08 433.6H235.53V464.2H253.53ZM283.219 467.35C281.299 467.35 279.649 467.11 278.269 466.63C276.889 466.21 275.779 465.7 274.939 465.1C273.919 464.44 273.079 463.69 272.419 462.85C272.179 463.75 271.669 464.59 270.889 465.37C270.169 466.15 269.479 466.66 268.819 466.9H267.469C267.529 466.12 267.589 465.31 267.649 464.47C267.709 463.75 267.769 463 267.829 462.22C267.889 461.38 267.919 460.54 267.919 459.7C267.919 458.8 267.889 457.9 267.829 457C267.769 456.1 267.709 455.29 267.649 454.57C267.589 453.73 267.529 452.89 267.469 452.05H268.819C269.959 456.37 271.699 459.7 274.039 462.04C276.379 464.38 279.139 465.55 282.319 465.55C284.839 465.55 286.879 464.77 288.439 463.21C290.059 461.65 290.869 459.73 290.869 457.45C290.869 455.83 290.299 454.42 289.159 453.22C288.079 452.02 286.699 450.94 285.019 449.98C283.339 448.96 281.539 447.97 279.619 447.01C277.699 446.05 275.899 444.97 274.219 443.77C272.539 442.57 271.129 441.16 269.989 439.54C268.909 437.92 268.369 435.94 268.369 433.6C268.369 432.28 268.669 430.99 269.269 429.73C269.869 428.47 270.679 427.36 271.699 426.4C272.779 425.44 274.069 424.69 275.569 424.15C277.069 423.55 278.719 423.25 280.519 423.25C282.079 423.25 283.429 423.49 284.569 423.97C285.769 424.45 286.789 424.96 287.629 425.5C288.529 426.16 289.309 426.91 289.969 427.75C290.209 426.85 290.689 426.01 291.409 425.23C292.189 424.45 292.909 423.94 293.569 423.7H294.919C294.799 424.48 294.709 425.29 294.649 426.13C294.589 426.85 294.529 427.63 294.469 428.47C294.469 429.31 294.469 430.12 294.469 430.9C294.469 431.8 294.469 432.73 294.469 433.69C294.529 434.59 294.589 435.4 294.649 436.12C294.709 436.96 294.799 437.77 294.919 438.55H293.569C292.429 434.23 290.749 430.9 288.529 428.56C286.309 426.22 283.939 425.05 281.419 425.05C279.379 425.05 277.669 425.74 276.289 427.12C274.909 428.44 274.219 430 274.219 431.8C274.219 433.3 274.789 434.59 275.929 435.67C277.069 436.75 278.479 437.77 280.159 438.73C281.839 439.63 283.669 440.56 285.649 441.52C287.689 442.48 289.549 443.59 291.229 444.85C292.909 446.11 294.319 447.61 295.459 449.35C296.599 451.09 297.169 453.19 297.169 455.65C297.169 457.09 296.809 458.53 296.089 459.97C295.429 461.35 294.469 462.61 293.209 463.75C292.009 464.83 290.539 465.7 288.799 466.36C287.119 467.02 285.259 467.35 283.219 467.35ZM326.444 424.6V426.4H316.094V455.11C316.094 458.77 316.754 461.44 318.074 463.12C319.394 464.74 320.834 465.55 322.394 465.55C324.434 465.55 326.144 464.8 327.524 463.3C328.964 461.74 329.804 459.49 330.044 456.55H331.394C331.154 459.97 330.104 462.64 328.244 464.56C326.444 466.42 324.194 467.35 321.494 467.35C317.654 467.35 314.594 466.24 312.314 464.02C310.034 461.74 308.894 458.8 308.894 455.2V426.4H301.244V424.6H308.894V414.25L316.094 409.3V424.6H326.444ZM343.607 445.3C343.607 449.14 343.877 452.35 344.417 454.93C345.017 457.51 345.767 459.61 346.667 461.23C347.627 462.79 348.677 463.9 349.817 464.56C351.017 465.22 352.247 465.55 353.507 465.55C355.067 465.55 356.537 465.25 357.917 464.65C359.297 464.05 360.527 463.24 361.607 462.22C362.687 461.2 363.557 459.97 364.217 458.53C364.937 457.09 365.417 455.53 365.657 453.85H367.007C366.767 455.77 366.227 457.57 365.387 459.25C364.607 460.87 363.587 462.28 362.327 463.48C361.067 464.68 359.597 465.61 357.917 466.27C356.297 466.99 354.527 467.35 352.607 467.35C350.327 467.35 348.167 466.87 346.127 465.91C344.087 464.89 342.257 463.45 340.637 461.59C339.077 459.67 337.817 457.36 336.857 454.66C335.957 451.9 335.507 448.78 335.507 445.3C335.507 441.7 335.957 438.52 336.857 435.76C337.757 433 338.927 430.72 340.367 428.92C341.867 427.06 343.577 425.65 345.497 424.69C347.477 423.73 349.547 423.25 351.707 423.25C353.867 423.25 355.907 423.73 357.827 424.69C359.807 425.65 361.517 427.06 362.957 428.92C364.457 430.72 365.657 433 366.557 435.76C367.457 438.52 367.907 441.7 367.907 445.3H343.607ZM351.707 424.6C350.807 424.6 349.907 424.9 349.007 425.5C348.107 426.04 347.267 427.03 346.487 428.47C345.707 429.91 345.047 431.86 344.507 434.32C344.027 436.72 343.727 439.78 343.607 443.5H359.807C359.687 439.78 359.357 436.72 358.817 434.32C358.337 431.86 357.707 429.91 356.927 428.47C356.147 427.03 355.307 426.04 354.407 425.5C353.507 424.9 352.607 424.6 351.707 424.6ZM390.885 467.35C388.965 467.35 387.315 467.11 385.935 466.63C384.555 466.21 383.445 465.7 382.605 465.1C381.585 464.44 380.745 463.69 380.085 462.85C379.845 463.75 379.335 464.59 378.555 465.37C377.835 466.15 377.145 466.66 376.485 466.9H375.135C375.195 466.12 375.255 465.31 375.315 464.47C375.375 463.75 375.435 463 375.495 462.22C375.555 461.38 375.585 460.54 375.585 459.7C375.585 458.8 375.555 457.9 375.495 457C375.435 456.1 375.375 455.29 375.315 454.57C375.255 453.73 375.195 452.89 375.135 452.05H376.485C377.625 456.37 379.365 459.7 381.705 462.04C384.045 464.38 386.805 465.55 389.985 465.55C392.505 465.55 394.545 464.77 396.105 463.21C397.725 461.65 398.535 459.73 398.535 457.45C398.535 455.83 397.965 454.42 396.825 453.22C395.745 452.02 394.365 450.94 392.685 449.98C391.005 448.96 389.205 447.97 387.285 447.01C385.365 446.05 383.565 444.97 381.885 443.77C380.205 442.57 378.795 441.16 377.655 439.54C376.575 437.92 376.035 435.94 376.035 433.6C376.035 432.28 376.335 430.99 376.935 429.73C377.535 428.47 378.345 427.36 379.365 426.4C380.445 425.44 381.735 424.69 383.235 424.15C384.735 423.55 386.385 423.25 388.185 423.25C389.745 423.25 391.095 423.49 392.235 423.97C393.435 424.45 394.455 424.96 395.295 425.5C396.195 426.16 396.975 426.91 397.635 427.75C397.875 426.85 398.355 426.01 399.075 425.23C399.855 424.45 400.575 423.94 401.235 423.7H402.585C402.465 424.48 402.375 425.29 402.315 426.13C402.255 426.85 402.195 427.63 402.135 428.47C402.135 429.31 402.135 430.12 402.135 430.9C402.135 431.8 402.135 432.73 402.135 433.69C402.195 434.59 402.255 435.4 402.315 436.12C402.375 436.96 402.465 437.77 402.585 438.55H401.235C400.095 434.23 398.415 430.9 396.195 428.56C393.975 426.22 391.605 425.05 389.085 425.05C387.045 425.05 385.335 425.74 383.955 427.12C382.575 428.44 381.885 430 381.885 431.8C381.885 433.3 382.455 434.59 383.595 435.67C384.735 436.75 386.145 437.77 387.825 438.73C389.505 439.63 391.335 440.56 393.315 441.52C395.355 442.48 397.215 443.59 398.895 444.85C400.575 446.11 401.985 447.61 403.125 449.35C404.265 451.09 404.835 453.19 404.835 455.65C404.835 457.09 404.475 458.53 403.755 459.97C403.095 461.35 402.135 462.61 400.875 463.75C399.675 464.83 398.205 465.7 396.465 466.36C394.785 467.02 392.925 467.35 390.885 467.35ZM448.981 467.35C447.061 467.35 445.411 467.11 444.031 466.63C442.651 466.21 441.541 465.7 440.701 465.1C439.681 464.44 438.841 463.69 438.181 462.85C437.941 463.75 437.431 464.59 436.651 465.37C435.931 466.15 435.241 466.66 434.581 466.9H433.231C433.291 466.12 433.351 465.31 433.411 464.47C433.471 463.75 433.531 463 433.591 462.22C433.651 461.38 433.681 460.54 433.681 459.7C433.681 458.8 433.651 457.9 433.591 457C433.531 456.1 433.471 455.29 433.411 454.57C433.351 453.73 433.291 452.89 433.231 452.05H434.581C435.721 456.37 437.461 459.7 439.801 462.04C442.141 464.38 444.901 465.55 448.081 465.55C450.601 465.55 452.641 464.77 454.201 463.21C455.821 461.65 456.631 459.73 456.631 457.45C456.631 455.83 456.061 454.42 454.921 453.22C453.841 452.02 452.461 450.94 450.781 449.98C449.101 448.96 447.301 447.97 445.381 447.01C443.461 446.05 441.661 444.97 439.981 443.77C438.301 442.57 436.891 441.16 435.751 439.54C434.671 437.92 434.131 435.94 434.131 433.6C434.131 432.28 434.431 430.99 435.031 429.73C435.631 428.47 436.441 427.36 437.461 426.4C438.541 425.44 439.831 424.69 441.331 424.15C442.831 423.55 444.481 423.25 446.281 423.25C447.841 423.25 449.191 423.49 450.331 423.97C451.531 424.45 452.551 424.96 453.391 425.5C454.291 426.16 455.071 426.91 455.731 427.75C455.971 426.85 456.451 426.01 457.171 425.23C457.951 424.45 458.671 423.94 459.331 423.7H460.681C460.561 424.48 460.471 425.29 460.411 426.13C460.351 426.85 460.291 427.63 460.231 428.47C460.231 429.31 460.231 430.12 460.231 430.9C460.231 431.8 460.231 432.73 460.231 433.69C460.291 434.59 460.351 435.4 460.411 436.12C460.471 436.96 460.561 437.77 460.681 438.55H459.331C458.191 434.23 456.511 430.9 454.291 428.56C452.071 426.22 449.701 425.05 447.181 425.05C445.141 425.05 443.431 425.74 442.051 427.12C440.671 428.44 439.981 430 439.981 431.8C439.981 433.3 440.551 434.59 441.691 435.67C442.831 436.75 444.241 437.77 445.921 438.73C447.601 439.63 449.431 440.56 451.411 441.52C453.451 442.48 455.311 443.59 456.991 444.85C458.671 446.11 460.081 447.61 461.221 449.35C462.361 451.09 462.931 453.19 462.931 455.65C462.931 457.09 462.571 458.53 461.851 459.97C461.191 461.35 460.231 462.61 458.971 463.75C457.771 464.83 456.301 465.7 454.561 466.36C452.881 467.02 451.021 467.35 448.981 467.35ZM493.105 443.95C487.885 443.95 484.015 445.12 481.495 447.46C479.035 449.74 477.805 452.92 477.805 457C477.805 459.7 478.465 461.8 479.785 463.3C481.105 464.8 482.545 465.55 484.105 465.55C485.545 465.55 486.805 465.13 487.885 464.29C489.025 463.45 489.985 462.52 490.765 461.5C491.665 460.36 492.445 459.01 493.105 457.45V443.95ZM486.355 424.6C484.555 424.6 483.055 425.23 481.855 426.49C480.655 427.69 480.055 429.31 480.055 431.35C480.055 431.83 480.055 432.25 480.055 432.61C480.115 432.97 480.175 433.3 480.235 433.6C480.295 433.9 480.385 434.2 480.505 434.5L473.305 436.3C473.185 436.12 473.095 435.88 473.035 435.58C472.975 435.28 472.915 434.95 472.855 434.59C472.855 434.23 472.855 433.75 472.855 433.15C472.855 431.89 473.155 430.69 473.755 429.55C474.355 428.35 475.225 427.3 476.365 426.4C477.565 425.44 478.975 424.69 480.595 424.15C482.275 423.55 484.195 423.25 486.355 423.25C490.675 423.25 494.065 424.48 496.525 426.94C499.045 429.4 500.305 432.67 500.305 436.75V463.75L505.705 465.1V466H493.105V460.6C492.445 461.86 491.605 463 490.585 464.02C489.745 464.86 488.665 465.61 487.345 466.27C486.085 466.99 484.555 467.35 482.755 467.35C478.435 467.35 475.165 466.33 472.945 464.29C470.785 462.25 469.705 459.52 469.705 456.1C469.705 454.42 470.155 452.74 471.055 451.06C472.015 449.38 473.425 447.88 475.285 446.56C477.205 445.24 479.635 444.19 482.575 443.41C485.515 442.57 489.025 442.15 493.105 442.15V436.75C493.105 432.25 492.415 429.1 491.035 427.3C489.715 425.5 488.155 424.6 486.355 424.6ZM496.075 409.21C496.075 412.39 495.475 414.7 494.275 416.14C493.135 417.52 491.785 418.21 490.225 418.21C489.325 418.21 488.515 417.97 487.795 417.49C487.075 416.95 486.385 416.38 485.725 415.78C485.125 415.12 484.525 414.55 483.925 414.07C483.385 413.53 482.785 413.26 482.125 413.26C481.225 413.26 480.475 413.59 479.875 414.25C479.275 414.91 478.975 415.93 478.975 417.31H477.625C477.625 414.13 478.195 411.85 479.335 410.47C480.535 409.03 481.915 408.31 483.475 408.31C484.375 408.31 485.185 408.58 485.905 409.12C486.625 409.6 487.285 410.17 487.885 410.83C488.545 411.43 489.145 412 489.685 412.54C490.285 413.02 490.915 413.26 491.575 413.26C492.475 413.26 493.225 412.93 493.825 412.27C494.425 411.61 494.725 410.59 494.725 409.21H496.075ZM529.091 424.6C528.071 424.6 527.021 424.96 525.941 425.68C524.921 426.34 523.961 427.48 523.061 429.1C522.221 430.66 521.501 432.76 520.901 435.4C520.361 438.04 520.091 441.34 520.091 445.3C520.091 449.26 520.361 452.56 520.901 455.2C521.501 457.84 522.221 459.97 523.061 461.59C523.961 463.15 524.921 464.29 525.941 465.01C527.021 465.67 528.071 466 529.091 466C530.111 466 531.131 465.67 532.151 465.01C533.231 464.29 534.191 463.15 535.031 461.59C535.931 459.97 536.651 457.84 537.191 455.2C537.791 452.56 538.091 449.26 538.091 445.3C538.091 441.34 537.791 438.04 537.191 435.4C536.651 432.76 535.931 430.66 535.031 429.1C534.191 427.48 533.231 426.34 532.151 425.68C531.131 424.96 530.111 424.6 529.091 424.6ZM529.091 423.25C531.311 423.25 533.441 423.76 535.481 424.78C537.581 425.74 539.411 427.18 540.971 429.1C542.591 430.96 543.851 433.27 544.751 436.03C545.711 438.73 546.191 441.82 546.191 445.3C546.191 448.78 545.711 451.9 544.751 454.66C543.851 457.36 542.591 459.67 540.971 461.59C539.411 463.45 537.581 464.89 535.481 465.91C533.441 466.87 531.311 467.35 529.091 467.35C526.811 467.35 524.651 466.87 522.611 465.91C520.571 464.89 518.741 463.45 517.121 461.59C515.561 459.67 514.301 457.36 513.341 454.66C512.441 451.9 511.991 448.78 511.991 445.3C511.991 441.82 512.441 438.73 513.341 436.03C514.301 433.27 515.561 430.96 517.121 429.1C518.741 427.18 520.571 425.74 522.611 424.78C524.651 423.76 526.811 423.25 529.091 423.25ZM592.988 424.6C591.968 424.6 590.918 424.96 589.838 425.68C588.818 426.34 587.858 427.48 586.958 429.1C586.118 430.66 585.398 432.76 584.798 435.4C584.258 438.04 583.988 441.34 583.988 445.3C583.988 449.26 584.258 452.56 584.798 455.2C585.398 457.84 586.118 459.97 586.958 461.59C587.858 463.15 588.818 464.29 589.838 465.01C590.918 465.67 591.968 466 592.988 466C594.008 466 595.028 465.67 596.048 465.01C597.128 464.29 598.088 463.15 598.928 461.59C599.828 459.97 600.548 457.84 601.088 455.2C601.688 452.56 601.988 449.26 601.988 445.3C601.988 441.34 601.688 438.04 601.088 435.4C600.548 432.76 599.828 430.66 598.928 429.1C598.088 427.48 597.128 426.34 596.048 425.68C595.028 424.96 594.008 424.6 592.988 424.6ZM592.988 423.25C595.208 423.25 597.338 423.76 599.378 424.78C601.478 425.74 603.308 427.18 604.868 429.1C606.488 430.96 607.748 433.27 608.648 436.03C609.608 438.73 610.088 441.82 610.088 445.3C610.088 448.78 609.608 451.9 608.648 454.66C607.748 457.36 606.488 459.67 604.868 461.59C603.308 463.45 601.478 464.89 599.378 465.91C597.338 466.87 595.208 467.35 592.988 467.35C590.708 467.35 588.548 466.87 586.508 465.91C584.468 464.89 582.638 463.45 581.018 461.59C579.458 459.67 578.198 457.36 577.238 454.66C576.338 451.9 575.888 448.78 575.888 445.3C575.888 441.82 576.338 438.73 577.238 436.03C578.198 433.27 579.458 430.96 581.018 429.1C582.638 427.18 584.468 425.74 586.508 424.78C588.548 423.76 590.708 423.25 592.988 423.25ZM633.463 467.35C631.543 467.35 629.893 467.11 628.513 466.63C627.133 466.21 626.023 465.7 625.183 465.1C624.163 464.44 623.323 463.69 622.663 462.85C622.423 463.75 621.913 464.59 621.133 465.37C620.413 466.15 619.723 466.66 619.063 466.9H617.713C617.773 466.12 617.833 465.31 617.893 464.47C617.953 463.75 618.013 463 618.073 462.22C618.133 461.38 618.163 460.54 618.163 459.7C618.163 458.8 618.133 457.9 618.073 457C618.013 456.1 617.953 455.29 617.893 454.57C617.833 453.73 617.773 452.89 617.713 452.05H619.063C620.203 456.37 621.943 459.7 624.283 462.04C626.623 464.38 629.383 465.55 632.563 465.55C635.083 465.55 637.123 464.77 638.683 463.21C640.303 461.65 641.113 459.73 641.113 457.45C641.113 455.83 640.543 454.42 639.403 453.22C638.323 452.02 636.943 450.94 635.263 449.98C633.583 448.96 631.783 447.97 629.863 447.01C627.943 446.05 626.143 444.97 624.463 443.77C622.783 442.57 621.373 441.16 620.233 439.54C619.153 437.92 618.613 435.94 618.613 433.6C618.613 432.28 618.913 430.99 619.513 429.73C620.113 428.47 620.923 427.36 621.943 426.4C623.023 425.44 624.313 424.69 625.813 424.15C627.313 423.55 628.963 423.25 630.763 423.25C632.323 423.25 633.673 423.49 634.813 423.97C636.013 424.45 637.033 424.96 637.873 425.5C638.773 426.16 639.553 426.91 640.213 427.75C640.453 426.85 640.933 426.01 641.653 425.23C642.433 424.45 643.153 423.94 643.813 423.7H645.163C645.043 424.48 644.953 425.29 644.893 426.13C644.833 426.85 644.773 427.63 644.713 428.47C644.713 429.31 644.713 430.12 644.713 430.9C644.713 431.8 644.713 432.73 644.713 433.69C644.773 434.59 644.833 435.4 644.893 436.12C644.953 436.96 645.043 437.77 645.163 438.55H643.813C642.673 434.23 640.993 430.9 638.773 428.56C636.553 426.22 634.183 425.05 631.663 425.05C629.623 425.05 627.913 425.74 626.533 427.12C625.153 428.44 624.463 430 624.463 431.8C624.463 433.3 625.033 434.59 626.173 435.67C627.313 436.75 628.723 437.77 630.403 438.73C632.083 439.63 633.913 440.56 635.893 441.52C637.933 442.48 639.793 443.59 641.473 444.85C643.153 446.11 644.563 447.61 645.703 449.35C646.843 451.09 647.413 453.19 647.413 455.65C647.413 457.09 647.053 458.53 646.333 459.97C645.673 461.35 644.713 462.61 643.453 463.75C642.253 464.83 640.783 465.7 639.043 466.36C637.363 467.02 635.503 467.35 633.463 467.35ZM693.809 425.05C692.669 425.05 691.529 425.41 690.389 426.13C689.309 426.79 688.319 427.9 687.419 429.46C686.519 431.02 685.769 433.09 685.169 435.67C684.629 438.25 684.359 441.46 684.359 445.3C684.359 449.14 684.629 452.35 685.169 454.93C685.769 457.51 686.549 459.61 687.509 461.23C688.469 462.79 689.549 463.9 690.749 464.56C692.009 465.22 693.329 465.55 694.709 465.55C696.269 465.55 697.739 465.25 699.119 464.65C700.499 464.05 701.729 463.24 702.809 462.22C703.889 461.2 704.759 459.97 705.419 458.53C706.139 457.09 706.619 455.53 706.859 453.85H708.209C707.969 455.77 707.429 457.57 706.589 459.25C705.809 460.87 704.789 462.28 703.529 463.48C702.269 464.68 700.799 465.61 699.119 466.27C697.499 466.99 695.729 467.35 693.809 467.35C691.469 467.35 689.219 466.87 687.059 465.91C684.959 464.89 683.099 463.45 681.479 461.59C679.859 459.67 678.569 457.36 677.609 454.66C676.709 451.9 676.259 448.78 676.259 445.3C676.259 441.82 676.709 438.73 677.609 436.03C678.569 433.27 679.829 430.96 681.389 429.1C682.949 427.18 684.719 425.74 686.699 424.78C688.679 423.76 690.749 423.25 692.909 423.25C694.349 423.25 695.609 423.49 696.689 423.97C697.829 424.45 698.789 424.96 699.569 425.5C700.469 426.16 701.249 426.91 701.909 427.75C702.149 426.85 702.629 426.01 703.349 425.23C704.129 424.45 704.849 423.94 705.509 423.7H706.859C706.739 424.48 706.649 425.29 706.589 426.13C706.529 426.85 706.469 427.63 706.409 428.47C706.409 429.31 706.409 430.12 706.409 430.9C706.409 431.8 706.409 432.73 706.409 433.69C706.469 434.59 706.529 435.4 706.589 436.12C706.649 436.96 706.739 437.77 706.859 438.55H705.509C704.369 434.23 702.689 430.9 700.469 428.56C698.309 426.22 696.089 425.05 693.809 425.05ZM732.031 424.6C731.011 424.6 729.961 424.96 728.881 425.68C727.861 426.34 726.901 427.48 726.001 429.1C725.161 430.66 724.441 432.76 723.841 435.4C723.301 438.04 723.031 441.34 723.031 445.3C723.031 449.26 723.301 452.56 723.841 455.2C724.441 457.84 725.161 459.97 726.001 461.59C726.901 463.15 727.861 464.29 728.881 465.01C729.961 465.67 731.011 466 732.031 466C733.051 466 734.071 465.67 735.091 465.01C736.171 464.29 737.131 463.15 737.971 461.59C738.871 459.97 739.591 457.84 740.131 455.2C740.731 452.56 741.031 449.26 741.031 445.3C741.031 441.34 740.731 438.04 740.131 435.4C739.591 432.76 738.871 430.66 737.971 429.1C737.131 427.48 736.171 426.34 735.091 425.68C734.071 424.96 733.051 424.6 732.031 424.6ZM732.031 423.25C734.251 423.25 736.381 423.76 738.421 424.78C740.521 425.74 742.351 427.18 743.911 429.1C745.531 430.96 746.791 433.27 747.691 436.03C748.651 438.73 749.131 441.82 749.131 445.3C749.131 448.78 748.651 451.9 747.691 454.66C746.791 457.36 745.531 459.67 743.911 461.59C742.351 463.45 740.521 464.89 738.421 465.91C736.381 466.87 734.251 467.35 732.031 467.35C729.751 467.35 727.591 466.87 725.551 465.91C723.511 464.89 721.681 463.45 720.061 461.59C718.501 459.67 717.241 457.36 716.281 454.66C715.381 451.9 714.931 448.78 714.931 445.3C714.931 441.82 715.381 438.73 716.281 436.03C717.241 433.27 718.501 430.96 720.061 429.1C721.681 427.18 723.511 425.74 725.551 424.78C727.591 423.76 729.751 423.25 732.031 423.25ZM761.706 463.75V426.85L756.306 425.5V424.6H768.906V430C769.506 428.8 770.316 427.69 771.336 426.67C772.176 425.83 773.256 425.05 774.576 424.33C775.896 423.61 777.456 423.25 779.256 423.25C781.056 423.25 782.706 423.58 784.206 424.24C785.766 424.9 787.116 425.83 788.256 427.03C789.396 428.17 790.266 429.58 790.866 431.26C791.526 432.88 791.856 434.71 791.856 436.75V463.75L797.256 465.1V466H779.706V465.1L784.656 463.75V436.75C784.656 432.49 783.966 429.49 782.586 427.75C781.266 425.95 779.706 425.05 777.906 425.05C776.406 425.05 775.116 425.47 774.036 426.31C772.956 427.15 772.026 428.08 771.246 429.1C770.346 430.3 769.566 431.65 768.906 433.15V463.75L773.856 465.1V466H756.306V465.1L761.706 463.75ZM807.575 463.75V405.25L802.175 403.9V403H814.775V430C815.375 428.8 816.185 427.69 817.205 426.67C818.045 425.83 819.125 425.05 820.445 424.33C821.765 423.61 823.325 423.25 825.125 423.25C826.925 423.25 828.575 423.58 830.075 424.24C831.635 424.9 832.985 425.83 834.125 427.03C835.265 428.17 836.135 429.58 836.735 431.26C837.395 432.88 837.725 434.71 837.725 436.75V463.75L843.125 465.1V466H825.575V465.1L830.525 463.75V436.75C830.525 432.49 829.835 429.49 828.455 427.75C827.135 425.95 825.575 425.05 823.775 425.05C822.275 425.05 820.985 425.47 819.905 426.31C818.825 427.15 817.895 428.08 817.115 429.1C816.215 430.3 815.435 431.65 814.775 433.15V463.75L819.725 465.1V466H802.175V465.1L807.575 463.75ZM857.504 445.3C857.504 449.14 857.774 452.35 858.314 454.93C858.914 457.51 859.664 459.61 860.564 461.23C861.524 462.79 862.574 463.9 863.714 464.56C864.914 465.22 866.144 465.55 867.404 465.55C868.964 465.55 870.434 465.25 871.814 464.65C873.194 464.05 874.424 463.24 875.504 462.22C876.584 461.2 877.454 459.97 878.114 458.53C878.834 457.09 879.314 455.53 879.554 453.85H880.904C880.664 455.77 880.124 457.57 879.284 459.25C878.504 460.87 877.484 462.28 876.224 463.48C874.964 464.68 873.494 465.61 871.814 466.27C870.194 466.99 868.424 467.35 866.504 467.35C864.224 467.35 862.064 466.87 860.024 465.91C857.984 464.89 856.154 463.45 854.534 461.59C852.974 459.67 851.714 457.36 850.754 454.66C849.854 451.9 849.404 448.78 849.404 445.3C849.404 441.7 849.854 438.52 850.754 435.76C851.654 433 852.824 430.72 854.264 428.92C855.764 427.06 857.474 425.65 859.394 424.69C861.374 423.73 863.444 423.25 865.604 423.25C867.764 423.25 869.804 423.73 871.724 424.69C873.704 425.65 875.414 427.06 876.854 428.92C878.354 430.72 879.554 433 880.454 435.76C881.354 438.52 881.804 441.7 881.804 445.3H857.504ZM865.604 424.6C864.704 424.6 863.804 424.9 862.904 425.5C862.004 426.04 861.164 427.03 860.384 428.47C859.604 429.91 858.944 431.86 858.404 434.32C857.924 436.72 857.624 439.78 857.504 443.5H873.704C873.584 439.78 873.254 436.72 872.714 434.32C872.234 431.86 871.604 429.91 870.824 428.47C870.044 427.03 869.204 426.04 868.304 425.5C867.404 424.9 866.504 424.6 865.604 424.6ZM907.032 425.05C905.892 425.05 904.752 425.41 903.612 426.13C902.532 426.79 901.542 427.9 900.642 429.46C899.742 431.02 898.992 433.09 898.392 435.67C897.852 438.25 897.582 441.46 897.582 445.3C897.582 449.14 897.852 452.35 898.392 454.93C898.992 457.51 899.772 459.61 900.732 461.23C901.692 462.79 902.772 463.9 903.972 464.56C905.232 465.22 906.552 465.55 907.932 465.55C909.492 465.55 910.962 465.25 912.342 464.65C913.722 464.05 914.952 463.24 916.032 462.22C917.112 461.2 917.982 459.97 918.642 458.53C919.362 457.09 919.842 455.53 920.082 453.85H921.432C921.192 455.77 920.652 457.57 919.812 459.25C919.032 460.87 918.012 462.28 916.752 463.48C915.492 464.68 914.022 465.61 912.342 466.27C910.722 466.99 908.952 467.35 907.032 467.35C904.692 467.35 902.442 466.87 900.282 465.91C898.182 464.89 896.322 463.45 894.702 461.59C893.082 459.67 891.792 457.36 890.832 454.66C889.932 451.9 889.482 448.78 889.482 445.3C889.482 441.82 889.932 438.73 890.832 436.03C891.792 433.27 893.052 430.96 894.612 429.1C896.172 427.18 897.942 425.74 899.922 424.78C901.902 423.76 903.972 423.25 906.132 423.25C907.572 423.25 908.832 423.49 909.912 423.97C911.052 424.45 912.012 424.96 912.792 425.5C913.692 426.16 914.472 426.91 915.132 427.75C915.372 426.85 915.852 426.01 916.572 425.23C917.352 424.45 918.072 423.94 918.732 423.7H920.082C919.962 424.48 919.872 425.29 919.812 426.13C919.752 426.85 919.692 427.63 919.632 428.47C919.632 429.31 919.632 430.12 919.632 430.9C919.632 431.8 919.632 432.73 919.632 433.69C919.692 434.59 919.752 435.4 919.812 436.12C919.872 436.96 919.962 437.77 920.082 438.55H918.732C917.592 434.23 915.912 430.9 913.692 428.56C911.532 426.22 909.312 425.05 907.032 425.05ZM932.654 463.75V426.85L927.254 425.5V424.6H939.854V463.75L945.254 465.1V466H927.254V465.1L932.654 463.75ZM940.304 414.25C940.304 415.39 939.824 416.44 938.864 417.4C937.964 418.3 936.944 418.75 935.804 418.75C934.664 418.75 933.614 418.3 932.654 417.4C931.754 416.44 931.304 415.39 931.304 414.25C931.304 413.11 931.754 412.09 932.654 411.19C933.614 410.23 934.664 409.75 935.804 409.75C936.944 409.75 937.964 410.23 938.864 411.19C939.824 412.09 940.304 413.11 940.304 414.25ZM956.032 463.75V426.85L950.632 425.5V424.6H963.232V430C963.832 428.8 964.642 427.69 965.662 426.67C966.502 425.83 967.582 425.05 968.902 424.33C970.222 423.61 971.782 423.25 973.582 423.25C975.862 423.25 977.722 423.67 979.162 424.51C980.662 425.35 981.862 426.28 982.762 427.3C983.842 428.5 984.682 429.85 985.282 431.35C986.062 429.85 986.992 428.5 988.072 427.3C989.032 426.28 990.202 425.35 991.582 424.51C992.962 423.67 994.612 423.25 996.532 423.25C998.332 423.25 999.982 423.58 1001.48 424.24C1003.04 424.9 1004.39 425.83 1005.53 427.03C1006.67 428.17 1007.54 429.58 1008.14 431.26C1008.8 432.88 1009.13 434.71 1009.13 436.75V463.75L1014.53 465.1V466H996.982V465.1L1001.93 463.75V436.75C1001.93 432.49 1001.24 429.49 999.862 427.75C998.542 425.95 996.982 425.05 995.182 425.05C993.682 425.05 992.392 425.47 991.312 426.31C990.232 427.15 989.302 428.08 988.522 429.1C987.622 430.3 986.842 431.65 986.182 433.15V463.75L991.132 465.1V466H974.032V465.1L978.982 463.75V436.75C978.982 432.49 978.292 429.49 976.912 427.75C975.592 425.95 974.032 425.05 972.232 425.05C970.732 425.05 969.442 425.47 968.362 426.31C967.282 427.15 966.352 428.08 965.572 429.1C964.672 430.3 963.892 431.65 963.232 433.15V463.75L968.182 465.1V466H950.632V465.1L956.032 463.75ZM1028.89 445.3C1028.89 449.14 1029.16 452.35 1029.7 454.93C1030.3 457.51 1031.05 459.61 1031.95 461.23C1032.91 462.79 1033.96 463.9 1035.1 464.56C1036.3 465.22 1037.53 465.55 1038.79 465.55C1040.35 465.55 1041.82 465.25 1043.2 464.65C1044.58 464.05 1045.81 463.24 1046.89 462.22C1047.97 461.2 1048.84 459.97 1049.5 458.53C1050.22 457.09 1050.7 455.53 1050.94 453.85H1052.29C1052.05 455.77 1051.51 457.57 1050.67 459.25C1049.89 460.87 1048.87 462.28 1047.61 463.48C1046.35 464.68 1044.88 465.61 1043.2 466.27C1041.58 466.99 1039.81 467.35 1037.89 467.35C1035.61 467.35 1033.45 466.87 1031.41 465.91C1029.37 464.89 1027.54 463.45 1025.92 461.59C1024.36 459.67 1023.1 457.36 1022.14 454.66C1021.24 451.9 1020.79 448.78 1020.79 445.3C1020.79 441.7 1021.24 438.52 1022.14 435.76C1023.04 433 1024.21 430.72 1025.65 428.92C1027.15 427.06 1028.86 425.65 1030.78 424.69C1032.76 423.73 1034.83 423.25 1036.99 423.25C1039.15 423.25 1041.19 423.73 1043.11 424.69C1045.09 425.65 1046.8 427.06 1048.24 428.92C1049.74 430.72 1050.94 433 1051.84 435.76C1052.74 438.52 1053.19 441.7 1053.19 445.3H1028.89ZM1036.99 424.6C1036.09 424.6 1035.19 424.9 1034.29 425.5C1033.39 426.04 1032.55 427.03 1031.77 428.47C1030.99 429.91 1030.33 431.86 1029.79 434.32C1029.31 436.72 1029.01 439.78 1028.89 443.5H1045.09C1044.97 439.78 1044.64 436.72 1044.1 434.32C1043.62 431.86 1042.99 429.91 1042.21 428.47C1041.43 427.03 1040.59 426.04 1039.69 425.5C1038.79 424.9 1037.89 424.6 1036.99 424.6ZM1065.37 463.75V426.85L1059.97 425.5V424.6H1072.57V430C1073.17 428.8 1073.98 427.69 1075 426.67C1075.84 425.83 1076.92 425.05 1078.24 424.33C1079.56 423.61 1081.12 423.25 1082.92 423.25C1084.72 423.25 1086.37 423.58 1087.87 424.24C1089.43 424.9 1090.78 425.83 1091.92 427.03C1093.06 428.17 1093.93 429.58 1094.53 431.26C1095.19 432.88 1095.52 434.71 1095.52 436.75V463.75L1100.92 465.1V466H1083.37V465.1L1088.32 463.75V436.75C1088.32 432.49 1087.63 429.49 1086.25 427.75C1084.93 425.95 1083.37 425.05 1081.57 425.05C1080.07 425.05 1078.78 425.47 1077.7 426.31C1076.62 427.15 1075.69 428.08 1074.91 429.1C1074.01 430.3 1073.23 431.65 1072.57 433.15V463.75L1077.52 465.1V466H1059.97V465.1L1065.37 463.75ZM1129.24 424.6V426.4H1118.89V455.11C1118.89 458.77 1119.55 461.44 1120.87 463.12C1122.19 464.74 1123.63 465.55 1125.19 465.55C1127.23 465.55 1128.94 464.8 1130.32 463.3C1131.76 461.74 1132.6 459.49 1132.84 456.55H1134.19C1133.95 459.97 1132.9 462.64 1131.04 464.56C1129.24 466.42 1126.99 467.35 1124.29 467.35C1120.45 467.35 1117.39 466.24 1115.11 464.02C1112.83 461.74 1111.69 458.8 1111.69 455.2V426.4H1104.04V424.6H1111.69V414.25L1118.89 409.3V424.6H1129.24ZM1155.4 424.6C1154.38 424.6 1153.33 424.96 1152.25 425.68C1151.23 426.34 1150.27 427.48 1149.37 429.1C1148.53 430.66 1147.81 432.76 1147.21 435.4C1146.67 438.04 1146.4 441.34 1146.4 445.3C1146.4 449.26 1146.67 452.56 1147.21 455.2C1147.81 457.84 1148.53 459.97 1149.37 461.59C1150.27 463.15 1151.23 464.29 1152.25 465.01C1153.33 465.67 1154.38 466 1155.4 466C1156.42 466 1157.44 465.67 1158.46 465.01C1159.54 464.29 1160.5 463.15 1161.34 461.59C1162.24 459.97 1162.96 457.84 1163.5 455.2C1164.1 452.56 1164.4 449.26 1164.4 445.3C1164.4 441.34 1164.1 438.04 1163.5 435.4C1162.96 432.76 1162.24 430.66 1161.34 429.1C1160.5 427.48 1159.54 426.34 1158.46 425.68C1157.44 424.96 1156.42 424.6 1155.4 424.6ZM1155.4 423.25C1157.62 423.25 1159.75 423.76 1161.79 424.78C1163.89 425.74 1165.72 427.18 1167.28 429.1C1168.9 430.96 1170.16 433.27 1171.06 436.03C1172.02 438.73 1172.5 441.82 1172.5 445.3C1172.5 448.78 1172.02 451.9 1171.06 454.66C1170.16 457.36 1168.9 459.67 1167.28 461.59C1165.72 463.45 1163.89 464.89 1161.79 465.91C1159.75 466.87 1157.62 467.35 1155.4 467.35C1153.12 467.35 1150.96 466.87 1148.92 465.91C1146.88 464.89 1145.05 463.45 1143.43 461.59C1141.87 459.67 1140.61 457.36 1139.65 454.66C1138.75 451.9 1138.3 448.78 1138.3 445.3C1138.3 441.82 1138.75 438.73 1139.65 436.03C1140.61 433.27 1141.87 430.96 1143.43 429.1C1145.05 427.18 1146.88 425.74 1148.92 424.78C1150.96 423.76 1153.12 423.25 1155.4 423.25ZM1195.88 467.35C1193.96 467.35 1192.31 467.11 1190.93 466.63C1189.55 466.21 1188.44 465.7 1187.6 465.1C1186.58 464.44 1185.74 463.69 1185.08 462.85C1184.84 463.75 1184.33 464.59 1183.55 465.37C1182.83 466.15 1182.14 466.66 1181.48 466.9H1180.13C1180.19 466.12 1180.25 465.31 1180.31 464.47C1180.37 463.75 1180.43 463 1180.49 462.22C1180.55 461.38 1180.58 460.54 1180.58 459.7C1180.58 458.8 1180.55 457.9 1180.49 457C1180.43 456.1 1180.37 455.29 1180.31 454.57C1180.25 453.73 1180.19 452.89 1180.13 452.05H1181.48C1182.62 456.37 1184.36 459.7 1186.7 462.04C1189.04 464.38 1191.8 465.55 1194.98 465.55C1197.5 465.55 1199.54 464.77 1201.1 463.21C1202.72 461.65 1203.53 459.73 1203.53 457.45C1203.53 455.83 1202.96 454.42 1201.82 453.22C1200.74 452.02 1199.36 450.94 1197.68 449.98C1196 448.96 1194.2 447.97 1192.28 447.01C1190.36 446.05 1188.56 444.97 1186.88 443.77C1185.2 442.57 1183.79 441.16 1182.65 439.54C1181.57 437.92 1181.03 435.94 1181.03 433.6C1181.03 432.28 1181.33 430.99 1181.93 429.73C1182.53 428.47 1183.34 427.36 1184.36 426.4C1185.44 425.44 1186.73 424.69 1188.23 424.15C1189.73 423.55 1191.38 423.25 1193.18 423.25C1194.74 423.25 1196.09 423.49 1197.23 423.97C1198.43 424.45 1199.45 424.96 1200.29 425.5C1201.19 426.16 1201.97 426.91 1202.63 427.75C1202.87 426.85 1203.35 426.01 1204.07 425.23C1204.85 424.45 1205.57 423.94 1206.23 423.7H1207.58C1207.46 424.48 1207.37 425.29 1207.31 426.13C1207.25 426.85 1207.19 427.63 1207.13 428.47C1207.13 429.31 1207.13 430.12 1207.13 430.9C1207.13 431.8 1207.13 432.73 1207.13 433.69C1207.19 434.59 1207.25 435.4 1207.31 436.12C1207.37 436.96 1207.46 437.77 1207.58 438.55H1206.23C1205.09 434.23 1203.41 430.9 1201.19 428.56C1198.97 426.22 1196.6 425.05 1194.08 425.05C1192.04 425.05 1190.33 425.74 1188.95 427.12C1187.57 428.44 1186.88 430 1186.88 431.8C1186.88 433.3 1187.45 434.59 1188.59 435.67C1189.73 436.75 1191.14 437.77 1192.82 438.73C1194.5 439.63 1196.33 440.56 1198.31 441.52C1200.35 442.48 1202.21 443.59 1203.89 444.85C1205.57 446.11 1206.98 447.61 1208.12 449.35C1209.26 451.09 1209.83 453.19 1209.83 455.65C1209.83 457.09 1209.47 458.53 1208.75 459.97C1208.09 461.35 1207.13 462.61 1205.87 463.75C1204.67 464.83 1203.2 465.7 1201.46 466.36C1199.78 467.02 1197.92 467.35 1195.88 467.35ZM372.228 565.55C373.608 565.55 374.778 565.28 375.738 564.74C376.758 564.14 377.598 563.51 378.258 562.85C379.038 562.07 379.728 561.17 380.328 560.15V533.15C379.668 531.65 378.888 530.3 377.988 529.1C377.208 528.08 376.248 527.15 375.108 526.31C374.028 525.47 372.768 525.05 371.328 525.05C370.308 525.05 369.258 525.41 368.178 526.13C367.158 526.79 366.198 527.9 365.298 529.46C364.458 531.02 363.738 533.09 363.138 535.67C362.598 538.25 362.328 541.46 362.328 545.3C362.328 549.14 362.598 552.35 363.138 554.93C363.738 557.51 364.488 559.61 365.388 561.23C366.348 562.79 367.398 563.9 368.538 564.56C369.738 565.22 370.968 565.55 372.228 565.55ZM387.528 585.35L392.928 586.7V587.6H374.928V586.7L380.328 585.35V562.85C379.788 563.69 379.068 564.44 378.168 565.1C377.388 565.7 376.398 566.21 375.198 566.63C373.998 567.11 372.558 567.35 370.878 567.35C368.718 567.35 366.648 566.87 364.668 565.91C362.688 564.89 360.918 563.45 359.358 561.59C357.798 559.67 356.538 557.36 355.578 554.66C354.678 551.9 354.228 548.78 354.228 545.3C354.228 541.82 354.678 538.73 355.578 536.03C356.538 533.27 357.738 530.96 359.178 529.1C360.678 527.18 362.358 525.74 364.218 524.78C366.138 523.76 368.058 523.25 369.978 523.25C371.778 523.25 373.308 523.61 374.568 524.33C375.888 525.05 376.968 525.83 377.808 526.67C378.828 527.69 379.668 528.8 380.328 530V524.6H392.928V525.5L387.528 526.85V585.35ZM432.078 526.85V563.75L437.478 565.1V566H424.878V560.6C424.218 561.86 423.378 563 422.358 564.02C421.518 564.86 420.438 565.61 419.118 566.27C417.858 566.99 416.328 567.35 414.528 567.35C412.728 567.35 411.048 567.02 409.488 566.36C407.988 565.7 406.668 564.8 405.528 563.66C404.388 562.46 403.488 561.05 402.828 559.43C402.228 557.75 401.928 555.89 401.928 553.85V526.85L396.528 525.5V524.6H414.078V525.5L409.128 526.85V553.85C409.128 558.11 409.788 561.14 411.108 562.94C412.488 564.68 414.078 565.55 415.878 565.55C417.318 565.55 418.578 565.13 419.658 564.29C420.798 563.45 421.758 562.52 422.538 561.5C423.438 560.36 424.218 559.01 424.878 557.45V526.85L419.928 525.5V524.6H437.478V525.5L432.078 526.85ZM452.767 545.3C452.767 549.14 453.037 552.35 453.577 554.93C454.177 557.51 454.927 559.61 455.827 561.23C456.787 562.79 457.837 563.9 458.977 564.56C460.177 565.22 461.407 565.55 462.667 565.55C464.227 565.55 465.697 565.25 467.077 564.65C468.457 564.05 469.687 563.24 470.767 562.22C471.847 561.2 472.717 559.97 473.377 558.53C474.097 557.09 474.577 555.53 474.817 553.85H476.167C475.927 555.77 475.387 557.57 474.547 559.25C473.767 560.87 472.747 562.28 471.487 563.48C470.227 564.68 468.757 565.61 467.077 566.27C465.457 566.99 463.687 567.35 461.767 567.35C459.487 567.35 457.327 566.87 455.287 565.91C453.247 564.89 451.417 563.45 449.797 561.59C448.237 559.67 446.977 557.36 446.017 554.66C445.117 551.9 444.667 548.78 444.667 545.3C444.667 541.7 445.117 538.52 446.017 535.76C446.917 533 448.087 530.72 449.527 528.92C451.027 527.06 452.737 525.65 454.657 524.69C456.637 523.73 458.707 523.25 460.867 523.25C463.027 523.25 465.067 523.73 466.987 524.69C468.967 525.65 470.677 527.06 472.117 528.92C473.617 530.72 474.817 533 475.717 535.76C476.617 538.52 477.067 541.7 477.067 545.3H452.767ZM460.867 524.6C459.967 524.6 459.067 524.9 458.167 525.5C457.267 526.04 456.427 527.03 455.647 528.47C454.867 529.91 454.207 531.86 453.667 534.32C453.187 536.72 452.887 539.78 452.767 543.5H468.967C468.847 539.78 468.517 536.72 467.977 534.32C467.497 531.86 466.867 529.91 466.087 528.47C465.307 527.03 464.467 526.04 463.567 525.5C462.667 524.9 461.767 524.6 460.867 524.6ZM514.466 545.3C514.466 549.14 514.736 552.35 515.276 554.93C515.876 557.51 516.626 559.61 517.526 561.23C518.486 562.79 519.536 563.9 520.676 564.56C521.876 565.22 523.106 565.55 524.366 565.55C525.926 565.55 527.396 565.25 528.776 564.65C530.156 564.05 531.386 563.24 532.466 562.22C533.546 561.2 534.416 559.97 535.076 558.53C535.796 557.09 536.276 555.53 536.516 553.85H537.866C537.626 555.77 537.086 557.57 536.246 559.25C535.466 560.87 534.446 562.28 533.186 563.48C531.926 564.68 530.456 565.61 528.776 566.27C527.156 566.99 525.386 567.35 523.466 567.35C521.186 567.35 519.026 566.87 516.986 565.91C514.946 564.89 513.116 563.45 511.496 561.59C509.936 559.67 508.676 557.36 507.716 554.66C506.816 551.9 506.366 548.78 506.366 545.3C506.366 541.7 506.816 538.52 507.716 535.76C508.616 533 509.786 530.72 511.226 528.92C512.726 527.06 514.436 525.65 516.356 524.69C518.336 523.73 520.406 523.25 522.566 523.25C524.726 523.25 526.766 523.73 528.686 524.69C530.666 525.65 532.376 527.06 533.816 528.92C535.316 530.72 536.516 533 537.416 535.76C538.316 538.52 538.766 541.7 538.766 545.3H514.466ZM522.566 524.6C521.666 524.6 520.766 524.9 519.866 525.5C518.966 526.04 518.126 527.03 517.346 528.47C516.566 529.91 515.906 531.86 515.366 534.32C514.886 536.72 514.586 539.78 514.466 543.5H530.666C530.546 539.78 530.216 536.72 529.676 534.32C529.196 531.86 528.566 529.91 527.786 528.47C527.006 527.03 526.166 526.04 525.266 525.5C524.366 524.9 523.466 524.6 522.566 524.6ZM561.745 567.35C559.825 567.35 558.175 567.11 556.795 566.63C555.415 566.21 554.305 565.7 553.465 565.1C552.445 564.44 551.605 563.69 550.945 562.85C550.705 563.75 550.195 564.59 549.415 565.37C548.695 566.15 548.005 566.66 547.345 566.9H545.995C546.055 566.12 546.115 565.31 546.175 564.47C546.235 563.75 546.295 563 546.355 562.22C546.415 561.38 546.445 560.54 546.445 559.7C546.445 558.8 546.415 557.9 546.355 557C546.295 556.1 546.235 555.29 546.175 554.57C546.115 553.73 546.055 552.89 545.995 552.05H547.345C548.485 556.37 550.225 559.7 552.565 562.04C554.905 564.38 557.665 565.55 560.845 565.55C563.365 565.55 565.405 564.77 566.965 563.21C568.585 561.65 569.395 559.73 569.395 557.45C569.395 555.83 568.825 554.42 567.685 553.22C566.605 552.02 565.225 550.94 563.545 549.98C561.865 548.96 560.065 547.97 558.145 547.01C556.225 546.05 554.425 544.97 552.745 543.77C551.065 542.57 549.655 541.16 548.515 539.54C547.435 537.92 546.895 535.94 546.895 533.6C546.895 532.28 547.195 530.99 547.795 529.73C548.395 528.47 549.205 527.36 550.225 526.4C551.305 525.44 552.595 524.69 554.095 524.15C555.595 523.55 557.245 523.25 559.045 523.25C560.605 523.25 561.955 523.49 563.095 523.97C564.295 524.45 565.315 524.96 566.155 525.5C567.055 526.16 567.835 526.91 568.495 527.75C568.735 526.85 569.215 526.01 569.935 525.23C570.715 524.45 571.435 523.94 572.095 523.7H573.445C573.325 524.48 573.235 525.29 573.175 526.13C573.115 526.85 573.055 527.63 572.995 528.47C572.995 529.31 572.995 530.12 572.995 530.9C572.995 531.8 572.995 532.73 572.995 533.69C573.055 534.59 573.115 535.4 573.175 536.12C573.235 536.96 573.325 537.77 573.445 538.55H572.095C570.955 534.23 569.275 530.9 567.055 528.56C564.835 526.22 562.465 525.05 559.945 525.05C557.905 525.05 556.195 525.74 554.815 527.12C553.435 528.44 552.745 530 552.745 531.8C552.745 533.3 553.315 534.59 554.455 535.67C555.595 536.75 557.005 537.77 558.685 538.73C560.365 539.63 562.195 540.56 564.175 541.52C566.215 542.48 568.075 543.59 569.755 544.85C571.435 546.11 572.845 547.61 573.985 549.35C575.125 551.09 575.695 553.19 575.695 555.65C575.695 557.09 575.335 558.53 574.615 559.97C573.955 561.35 572.995 562.61 571.735 563.75C570.535 564.83 569.065 565.7 567.325 566.36C565.645 567.02 563.785 567.35 561.745 567.35ZM604.969 524.6V526.4H594.619V555.11C594.619 558.77 595.279 561.44 596.599 563.12C597.919 564.74 599.359 565.55 600.919 565.55C602.959 565.55 604.669 564.8 606.049 563.3C607.489 561.74 608.329 559.49 608.569 556.55H609.919C609.679 559.97 608.629 562.64 606.769 564.56C604.969 566.42 602.719 567.35 600.019 567.35C596.179 567.35 593.119 566.24 590.839 564.02C588.559 561.74 587.419 558.8 587.419 555.2V526.4H579.769V524.6H587.419V514.25L594.619 509.3V524.6H604.969ZM637.861 543.95C632.641 543.95 628.771 545.12 626.251 547.46C623.791 549.74 622.561 552.92 622.561 557C622.561 559.7 623.221 561.8 624.541 563.3C625.861 564.8 627.301 565.55 628.861 565.55C630.301 565.55 631.561 565.13 632.641 564.29C633.781 563.45 634.741 562.52 635.521 561.5C636.421 560.36 637.201 559.01 637.861 557.45V543.95ZM631.111 524.6C629.311 524.6 627.811 525.23 626.611 526.49C625.411 527.69 624.811 529.31 624.811 531.35C624.811 531.83 624.811 532.25 624.811 532.61C624.871 532.97 624.931 533.3 624.991 533.6C625.051 533.9 625.141 534.2 625.261 534.5L618.061 536.3C617.941 536.12 617.851 535.88 617.791 535.58C617.731 535.28 617.671 534.95 617.611 534.59C617.611 534.23 617.611 533.75 617.611 533.15C617.611 531.89 617.911 530.69 618.511 529.55C619.111 528.35 619.981 527.3 621.121 526.4C622.321 525.44 623.731 524.69 625.351 524.15C627.031 523.55 628.951 523.25 631.111 523.25C635.431 523.25 638.821 524.48 641.281 526.94C643.801 529.4 645.061 532.67 645.061 536.75V563.75L650.461 565.1V566H637.861V560.6C637.201 561.86 636.361 563 635.341 564.02C634.501 564.86 633.421 565.61 632.101 566.27C630.841 566.99 629.311 567.35 627.511 567.35C623.191 567.35 619.921 566.33 617.701 564.29C615.541 562.25 614.461 559.52 614.461 556.1C614.461 554.42 614.911 552.74 615.811 551.06C616.771 549.38 618.181 547.88 620.041 546.56C621.961 545.24 624.391 544.19 627.331 543.41C630.271 542.57 633.781 542.15 637.861 542.15V536.75C637.861 532.25 637.171 529.1 635.791 527.3C634.471 525.5 632.911 524.6 631.111 524.6ZM701.318 543.95C696.098 543.95 692.228 545.12 689.708 547.46C687.248 549.74 686.018 552.92 686.018 557C686.018 559.7 686.678 561.8 687.998 563.3C689.318 564.8 690.758 565.55 692.318 565.55C693.758 565.55 695.018 565.13 696.098 564.29C697.238 563.45 698.198 562.52 698.978 561.5C699.878 560.36 700.658 559.01 701.318 557.45V543.95ZM694.568 524.6C692.768 524.6 691.268 525.23 690.068 526.49C688.868 527.69 688.268 529.31 688.268 531.35C688.268 531.83 688.268 532.25 688.268 532.61C688.328 532.97 688.388 533.3 688.448 533.6C688.508 533.9 688.598 534.2 688.718 534.5L681.518 536.3C681.398 536.12 681.308 535.88 681.248 535.58C681.188 535.28 681.128 534.95 681.068 534.59C681.068 534.23 681.068 533.75 681.068 533.15C681.068 531.89 681.368 530.69 681.968 529.55C682.568 528.35 683.438 527.3 684.578 526.4C685.778 525.44 687.188 524.69 688.808 524.15C690.488 523.55 692.408 523.25 694.568 523.25C698.888 523.25 702.278 524.48 704.738 526.94C707.258 529.4 708.518 532.67 708.518 536.75V563.75L713.918 565.1V566H701.318V560.6C700.658 561.86 699.818 563 698.798 564.02C697.958 564.86 696.878 565.61 695.558 566.27C694.298 566.99 692.768 567.35 690.968 567.35C686.648 567.35 683.378 566.33 681.158 564.29C678.998 562.25 677.918 559.52 677.918 556.1C677.918 554.42 678.368 552.74 679.268 551.06C680.228 549.38 681.638 547.88 683.498 546.56C685.418 545.24 687.848 544.19 690.788 543.41C693.728 542.57 697.238 542.15 701.318 542.15V536.75C701.318 532.25 700.628 529.1 699.248 527.3C697.928 525.5 696.368 524.6 694.568 524.6ZM695.918 508.76H704.018L695.018 519.56H692.318L695.918 508.76ZM731.904 563.75L737.304 565.1V566H719.304V565.1L724.704 563.75V526.85L719.304 525.5V524.6H731.904V535.4C732.684 533.18 733.614 531.17 734.694 529.37C735.654 527.81 736.824 526.4 738.204 525.14C739.584 523.88 741.234 523.25 743.154 523.25C743.814 523.25 744.444 523.31 745.044 523.43C745.644 523.49 746.184 523.58 746.664 523.7C747.204 523.88 747.684 524.03 748.104 524.15L745.404 530.9C745.044 530.72 744.654 530.51 744.234 530.27C743.874 530.09 743.424 529.94 742.884 529.82C742.404 529.64 741.894 529.55 741.354 529.55C739.794 529.55 738.414 529.97 737.214 530.81C736.014 531.65 735.024 532.58 734.244 533.6C733.284 534.8 732.504 536.15 731.904 537.65V563.75ZM759.857 545.3C759.857 549.14 760.127 552.35 760.667 554.93C761.267 557.51 762.017 559.61 762.917 561.23C763.877 562.79 764.927 563.9 766.067 564.56C767.267 565.22 768.497 565.55 769.757 565.55C771.317 565.55 772.787 565.25 774.167 564.65C775.547 564.05 776.777 563.24 777.857 562.22C778.937 561.2 779.807 559.97 780.467 558.53C781.187 557.09 781.667 555.53 781.907 553.85H783.257C783.017 555.77 782.477 557.57 781.637 559.25C780.857 560.87 779.837 562.28 778.577 563.48C777.317 564.68 775.847 565.61 774.167 566.27C772.547 566.99 770.777 567.35 768.857 567.35C766.577 567.35 764.417 566.87 762.377 565.91C760.337 564.89 758.507 563.45 756.887 561.59C755.327 559.67 754.067 557.36 753.107 554.66C752.207 551.9 751.757 548.78 751.757 545.3C751.757 541.7 752.207 538.52 753.107 535.76C754.007 533 755.177 530.72 756.617 528.92C758.117 527.06 759.827 525.65 761.747 524.69C763.727 523.73 765.797 523.25 767.957 523.25C770.117 523.25 772.157 523.73 774.077 524.69C776.057 525.65 777.767 527.06 779.207 528.92C780.707 530.72 781.907 533 782.807 535.76C783.707 538.52 784.157 541.7 784.157 545.3H759.857ZM767.957 524.6C767.057 524.6 766.157 524.9 765.257 525.5C764.357 526.04 763.517 527.03 762.737 528.47C761.957 529.91 761.297 531.86 760.757 534.32C760.277 536.72 759.977 539.78 759.857 543.5H776.057C775.937 539.78 775.607 536.72 775.067 534.32C774.587 531.86 773.957 529.91 773.177 528.47C772.397 527.03 771.557 526.04 770.657 525.5C769.757 524.9 768.857 524.6 767.957 524.6ZM814.785 543.95C809.565 543.95 805.695 545.12 803.175 547.46C800.715 549.74 799.485 552.92 799.485 557C799.485 559.7 800.145 561.8 801.465 563.3C802.785 564.8 804.225 565.55 805.785 565.55C807.225 565.55 808.485 565.13 809.565 564.29C810.705 563.45 811.665 562.52 812.445 561.5C813.345 560.36 814.125 559.01 814.785 557.45V543.95ZM808.035 524.6C806.235 524.6 804.735 525.23 803.535 526.49C802.335 527.69 801.735 529.31 801.735 531.35C801.735 531.83 801.735 532.25 801.735 532.61C801.795 532.97 801.855 533.3 801.915 533.6C801.975 533.9 802.065 534.2 802.185 534.5L794.985 536.3C794.865 536.12 794.775 535.88 794.715 535.58C794.655 535.28 794.595 534.95 794.535 534.59C794.535 534.23 794.535 533.75 794.535 533.15C794.535 531.89 794.835 530.69 795.435 529.55C796.035 528.35 796.905 527.3 798.045 526.4C799.245 525.44 800.655 524.69 802.275 524.15C803.955 523.55 805.875 523.25 808.035 523.25C812.355 523.25 815.745 524.48 818.205 526.94C820.725 529.4 821.985 532.67 821.985 536.75V563.75L827.385 565.1V566H814.785V560.6C814.125 561.86 813.285 563 812.265 564.02C811.425 564.86 810.345 565.61 809.025 566.27C807.765 566.99 806.235 567.35 804.435 567.35C800.115 567.35 796.845 566.33 794.625 564.29C792.465 562.25 791.385 559.52 791.385 556.1C791.385 554.42 791.835 552.74 792.735 551.06C793.695 549.38 795.105 547.88 796.965 546.56C798.885 545.24 801.315 544.19 804.255 543.41C807.195 542.57 810.705 542.15 814.785 542.15V536.75C814.785 532.25 814.095 529.1 812.715 527.3C811.395 525.5 809.835 524.6 808.035 524.6ZM859.792 563.75V526.85L854.392 525.5V524.6H866.992V563.75L872.392 565.1V566H854.392V565.1L859.792 563.75ZM867.442 514.25C867.442 515.39 866.962 516.44 866.002 517.4C865.102 518.3 864.082 518.75 862.942 518.75C861.802 518.75 860.752 518.3 859.792 517.4C858.892 516.44 858.442 515.39 858.442 514.25C858.442 513.11 858.892 512.09 859.792 511.19C860.752 510.23 861.802 509.75 862.942 509.75C864.082 509.75 865.102 510.23 866.002 511.19C866.962 512.09 867.442 513.11 867.442 514.25ZM883.171 563.75V526.85L877.771 525.5V524.6H890.371V530C890.971 528.8 891.781 527.69 892.801 526.67C893.641 525.83 894.721 525.05 896.041 524.33C897.361 523.61 898.921 523.25 900.721 523.25C902.521 523.25 904.171 523.58 905.671 524.24C907.231 524.9 908.581 525.83 909.721 527.03C910.861 528.17 911.731 529.58 912.331 531.26C912.991 532.88 913.321 534.71 913.321 536.75V563.75L918.721 565.1V566H901.171V565.1L906.121 563.75V536.75C906.121 532.49 905.431 529.49 904.051 527.75C902.731 525.95 901.171 525.05 899.371 525.05C897.871 525.05 896.581 525.47 895.501 526.31C894.421 527.15 893.491 528.08 892.711 529.1C891.811 530.3 891.031 531.65 890.371 533.15V563.75L895.321 565.1V566H877.771V565.1L883.171 563.75ZM942.539 525.05C941.399 525.05 940.259 525.41 939.119 526.13C938.039 526.79 937.049 527.9 936.149 529.46C935.249 531.02 934.499 533.09 933.899 535.67C933.359 538.25 933.089 541.46 933.089 545.3C933.089 549.14 933.359 552.35 933.899 554.93C934.499 557.51 935.279 559.61 936.239 561.23C937.199 562.79 938.279 563.9 939.479 564.56C940.739 565.22 942.059 565.55 943.439 565.55C944.999 565.55 946.469 565.25 947.849 564.65C949.229 564.05 950.459 563.24 951.539 562.22C952.619 561.2 953.489 559.97 954.149 558.53C954.869 557.09 955.349 555.53 955.589 553.85H956.939C956.699 555.77 956.159 557.57 955.319 559.25C954.539 560.87 953.519 562.28 952.259 563.48C950.999 564.68 949.529 565.61 947.849 566.27C946.229 566.99 944.459 567.35 942.539 567.35C940.199 567.35 937.949 566.87 935.789 565.91C933.689 564.89 931.829 563.45 930.209 561.59C928.589 559.67 927.299 557.36 926.339 554.66C925.439 551.9 924.989 548.78 924.989 545.3C924.989 541.82 925.439 538.73 926.339 536.03C927.299 533.27 928.559 530.96 930.119 529.1C931.679 527.18 933.449 525.74 935.429 524.78C937.409 523.76 939.479 523.25 941.639 523.25C943.079 523.25 944.339 523.49 945.419 523.97C946.559 524.45 947.519 524.96 948.299 525.5C949.199 526.16 949.979 526.91 950.639 527.75C950.879 526.85 951.359 526.01 952.079 525.23C952.859 524.45 953.579 523.94 954.239 523.7H955.589C955.469 524.48 955.379 525.29 955.319 526.13C955.259 526.85 955.199 527.63 955.139 528.47C955.139 529.31 955.139 530.12 955.139 530.9C955.139 531.8 955.139 532.73 955.139 533.69C955.199 534.59 955.259 535.4 955.319 536.12C955.379 536.96 955.469 537.77 955.589 538.55H954.239C953.099 534.23 951.419 530.9 949.199 528.56C947.039 526.22 944.819 525.05 942.539 525.05ZM980.761 524.6C979.741 524.6 978.691 524.96 977.611 525.68C976.591 526.34 975.631 527.48 974.731 529.1C973.891 530.66 973.171 532.76 972.571 535.4C972.031 538.04 971.761 541.34 971.761 545.3C971.761 549.26 972.031 552.56 972.571 555.2C973.171 557.84 973.891 559.97 974.731 561.59C975.631 563.15 976.591 564.29 977.611 565.01C978.691 565.67 979.741 566 980.761 566C981.781 566 982.801 565.67 983.821 565.01C984.901 564.29 985.861 563.15 986.701 561.59C987.601 559.97 988.321 557.84 988.861 555.2C989.461 552.56 989.761 549.26 989.761 545.3C989.761 541.34 989.461 538.04 988.861 535.4C988.321 532.76 987.601 530.66 986.701 529.1C985.861 527.48 984.901 526.34 983.821 525.68C982.801 524.96 981.781 524.6 980.761 524.6ZM980.761 523.25C982.981 523.25 985.111 523.76 987.151 524.78C989.251 525.74 991.081 527.18 992.641 529.1C994.261 530.96 995.521 533.27 996.421 536.03C997.381 538.73 997.861 541.82 997.861 545.3C997.861 548.78 997.381 551.9 996.421 554.66C995.521 557.36 994.261 559.67 992.641 561.59C991.081 563.45 989.251 564.89 987.151 565.91C985.111 566.87 982.981 567.35 980.761 567.35C978.481 567.35 976.321 566.87 974.281 565.91C972.241 564.89 970.411 563.45 968.791 561.59C967.231 559.67 965.971 557.36 965.011 554.66C964.111 551.9 963.661 548.78 963.661 545.3C963.661 541.82 964.111 538.73 965.011 536.03C965.971 533.27 967.231 530.96 968.791 529.1C970.411 527.18 972.241 525.74 974.281 524.78C976.321 523.76 978.481 523.25 980.761 523.25ZM1017.64 563.75L1023.04 565.1V566H1005.04V565.1L1010.44 563.75V526.85L1005.04 525.5V524.6H1017.64V535.4C1018.42 533.18 1019.35 531.17 1020.43 529.37C1021.39 527.81 1022.56 526.4 1023.94 525.14C1025.32 523.88 1026.97 523.25 1028.89 523.25C1029.55 523.25 1030.18 523.31 1030.78 523.43C1031.38 523.49 1031.92 523.58 1032.4 523.7C1032.94 523.88 1033.42 524.03 1033.84 524.15L1031.14 530.9C1030.78 530.72 1030.39 530.51 1029.97 530.27C1029.61 530.09 1029.16 529.94 1028.62 529.82C1028.14 529.64 1027.63 529.55 1027.09 529.55C1025.53 529.55 1024.15 529.97 1022.95 530.81C1021.75 531.65 1020.76 532.58 1019.98 533.6C1019.02 534.8 1018.24 536.15 1017.64 537.65V563.75ZM1041.97 526.85L1036.57 525.5V524.6H1049.17V530C1049.77 528.8 1050.58 527.69 1051.6 526.67C1052.44 525.83 1053.52 525.05 1054.84 524.33C1056.16 523.61 1057.72 523.25 1059.52 523.25C1061.44 523.25 1063.33 523.76 1065.19 524.78C1067.11 525.74 1068.79 527.18 1070.23 529.1C1071.73 530.96 1072.93 533.27 1073.83 536.03C1074.79 538.73 1075.27 541.82 1075.27 545.3C1075.27 548.78 1074.79 551.9 1073.83 554.66C1072.93 557.36 1071.7 559.67 1070.14 561.59C1068.58 563.45 1066.81 564.89 1064.83 565.91C1062.85 566.87 1060.78 567.35 1058.62 567.35C1056.88 567.35 1055.41 567.11 1054.21 566.63C1053.07 566.21 1052.11 565.7 1051.33 565.1C1050.43 564.44 1049.71 563.69 1049.17 562.85V585.35L1054.57 586.7V587.6H1036.57V586.7L1041.97 585.35V526.85ZM1057.27 565.55C1058.53 565.55 1059.73 565.22 1060.87 564.56C1062.07 563.9 1063.12 562.79 1064.02 561.23C1064.98 559.61 1065.73 557.51 1066.27 554.93C1066.87 552.35 1067.17 549.14 1067.17 545.3C1067.17 541.46 1066.87 538.25 1066.27 535.67C1065.73 533.09 1065.01 531.02 1064.11 529.46C1063.27 527.9 1062.31 526.79 1061.23 526.13C1060.21 525.41 1059.19 525.05 1058.17 525.05C1056.67 525.05 1055.38 525.47 1054.3 526.31C1053.22 527.15 1052.29 528.08 1051.51 529.1C1050.61 530.3 1049.83 531.65 1049.17 533.15V560.15C1049.71 561.17 1050.37 562.07 1051.15 562.85C1051.81 563.51 1052.65 564.14 1053.67 564.74C1054.69 565.28 1055.89 565.55 1057.27 565.55ZM1100.47 524.6C1099.45 524.6 1098.4 524.96 1097.32 525.68C1096.3 526.34 1095.34 527.48 1094.44 529.1C1093.6 530.66 1092.88 532.76 1092.28 535.4C1091.74 538.04 1091.47 541.34 1091.47 545.3C1091.47 549.26 1091.74 552.56 1092.28 555.2C1092.88 557.84 1093.6 559.97 1094.44 561.59C1095.34 563.15 1096.3 564.29 1097.32 565.01C1098.4 565.67 1099.45 566 1100.47 566C1101.49 566 1102.51 565.67 1103.53 565.01C1104.61 564.29 1105.57 563.15 1106.41 561.59C1107.31 559.97 1108.03 557.84 1108.57 555.2C1109.17 552.56 1109.47 549.26 1109.47 545.3C1109.47 541.34 1109.17 538.04 1108.57 535.4C1108.03 532.76 1107.31 530.66 1106.41 529.1C1105.57 527.48 1104.61 526.34 1103.53 525.68C1102.51 524.96 1101.49 524.6 1100.47 524.6ZM1100.47 523.25C1102.69 523.25 1104.82 523.76 1106.86 524.78C1108.96 525.74 1110.79 527.18 1112.35 529.1C1113.97 530.96 1115.23 533.27 1116.13 536.03C1117.09 538.73 1117.57 541.82 1117.57 545.3C1117.57 548.78 1117.09 551.9 1116.13 554.66C1115.23 557.36 1113.97 559.67 1112.35 561.59C1110.79 563.45 1108.96 564.89 1106.86 565.91C1104.82 566.87 1102.69 567.35 1100.47 567.35C1098.19 567.35 1096.03 566.87 1093.99 565.91C1091.95 564.89 1090.12 563.45 1088.5 561.59C1086.94 559.67 1085.68 557.36 1084.72 554.66C1083.82 551.9 1083.37 548.78 1083.37 545.3C1083.37 541.82 1083.82 538.73 1084.72 536.03C1085.68 533.27 1086.94 530.96 1088.5 529.1C1090.12 527.18 1091.95 525.74 1093.99 524.78C1096.03 523.76 1098.19 523.25 1100.47 523.25ZM1137.34 563.75L1142.74 565.1V566H1124.74V565.1L1130.14 563.75V526.85L1124.74 525.5V524.6H1137.34V535.4C1138.12 533.18 1139.05 531.17 1140.13 529.37C1141.09 527.81 1142.26 526.4 1143.64 525.14C1145.02 523.88 1146.67 523.25 1148.59 523.25C1149.25 523.25 1149.88 523.31 1150.48 523.43C1151.08 523.49 1151.62 523.58 1152.1 523.7C1152.64 523.88 1153.12 524.03 1153.54 524.15L1150.84 530.9C1150.48 530.72 1150.09 530.51 1149.67 530.27C1149.31 530.09 1148.86 529.94 1148.32 529.82C1147.84 529.64 1147.33 529.55 1146.79 529.55C1145.23 529.55 1143.85 529.97 1142.65 530.81C1141.45 531.65 1140.46 532.58 1139.68 533.6C1138.72 534.8 1137.94 536.15 1137.34 537.65V563.75ZM1181.03 543.95C1175.81 543.95 1171.94 545.12 1169.42 547.46C1166.96 549.74 1165.73 552.92 1165.73 557C1165.73 559.7 1166.39 561.8 1167.71 563.3C1169.03 564.8 1170.47 565.55 1172.03 565.55C1173.47 565.55 1174.73 565.13 1175.81 564.29C1176.95 563.45 1177.91 562.52 1178.69 561.5C1179.59 560.36 1180.37 559.01 1181.03 557.45V543.95ZM1174.28 524.6C1172.48 524.6 1170.98 525.23 1169.78 526.49C1168.58 527.69 1167.98 529.31 1167.98 531.35C1167.98 531.83 1167.98 532.25 1167.98 532.61C1168.04 532.97 1168.1 533.3 1168.16 533.6C1168.22 533.9 1168.31 534.2 1168.43 534.5L1161.23 536.3C1161.11 536.12 1161.02 535.88 1160.96 535.58C1160.9 535.28 1160.84 534.95 1160.78 534.59C1160.78 534.23 1160.78 533.75 1160.78 533.15C1160.78 531.89 1161.08 530.69 1161.68 529.55C1162.28 528.35 1163.15 527.3 1164.29 526.4C1165.49 525.44 1166.9 524.69 1168.52 524.15C1170.2 523.55 1172.12 523.25 1174.28 523.25C1178.6 523.25 1181.99 524.48 1184.45 526.94C1186.97 529.4 1188.23 532.67 1188.23 536.75V563.75L1193.63 565.1V566H1181.03V560.6C1180.37 561.86 1179.53 563 1178.51 564.02C1177.67 564.86 1176.59 565.61 1175.27 566.27C1174.01 566.99 1172.48 567.35 1170.68 567.35C1166.36 567.35 1163.09 566.33 1160.87 564.29C1158.71 562.25 1157.63 559.52 1157.63 556.1C1157.63 554.42 1158.08 552.74 1158.98 551.06C1159.94 549.38 1161.35 547.88 1163.21 546.56C1165.13 545.24 1167.56 544.19 1170.5 543.41C1173.44 542.57 1176.95 542.15 1181.03 542.15V536.75C1181.03 532.25 1180.34 529.1 1178.96 527.3C1177.64 525.5 1176.08 524.6 1174.28 524.6ZM1199.46 561.95C1199.46 560.57 1199.94 559.4 1200.9 558.44C1201.86 557.48 1203.03 557 1204.41 557C1205.79 557 1206.96 557.48 1207.92 558.44C1208.88 559.4 1209.36 560.57 1209.36 561.95C1209.36 563.33 1208.88 564.5 1207.92 565.46C1206.96 566.42 1205.79 566.9 1204.41 566.9C1203.03 566.9 1201.86 566.42 1200.9 565.46C1199.94 564.5 1199.46 563.33 1199.46 561.95ZM1199.46 528.65C1199.46 527.27 1199.94 526.1 1200.9 525.14C1201.86 524.18 1203.03 523.7 1204.41 523.7C1205.79 523.7 1206.96 524.18 1207.92 525.14C1208.88 526.1 1209.36 527.27 1209.36 528.65C1209.36 530.03 1208.88 531.2 1207.92 532.16C1206.96 533.12 1205.79 533.6 1204.41 533.6C1203.03 533.6 1201.86 533.12 1200.9 532.16C1199.94 531.2 1199.46 530.03 1199.46 528.65Z" fill="white"/>
</svg>
