<svg width="1300" height="976" viewBox="0 0 1300 976" fill="none" xmlns="http://www.w3.org/2000/svg">
<g clip-path="url(#clip0_399_281)">
<path d="M636.954 772.273C639.194 772.273 640.958 771.741 642.246 770.677C643.506 769.613 644.136 768.143 644.136 766.267C644.136 765.455 644.108 764.769 644.052 764.209C643.968 763.621 643.884 763.145 643.8 762.781L631.2 762.781C630.892 763.229 630.612 763.831 630.36 764.587C630.08 765.315 629.94 766.099 629.94 766.939C629.94 768.787 630.57 770.145 631.83 771.013C633.09 771.853 634.798 772.273 636.954 772.273ZM647.328 757.699C647.636 758.707 647.916 759.981 648.168 761.521C648.42 763.033 648.546 764.629 648.546 766.309C648.546 768.045 648.28 769.599 647.748 770.971C647.216 772.343 646.46 773.519 645.48 774.499C644.472 775.451 643.268 776.193 641.868 776.725C640.44 777.229 638.844 777.481 637.08 777.481C635.344 777.481 633.776 777.271 632.376 776.851C630.948 776.403 629.73 775.759 628.722 774.919C627.714 774.079 626.944 773.057 626.412 771.853C625.852 770.649 625.572 769.263 625.572 767.695C625.572 766.631 625.698 765.693 625.95 764.881C626.202 764.069 626.482 763.369 626.79 762.781L616.248 762.781L615.408 757.699L647.328 757.699ZM637.122 752.462C635.19 752.462 633.496 752.182 632.04 751.622C630.584 751.034 629.38 750.264 628.428 749.312C627.448 748.36 626.72 747.268 626.244 746.036C625.74 744.804 625.488 743.544 625.488 742.256C625.488 739.232 626.426 736.88 628.302 735.2C630.178 733.492 632.978 732.638 636.702 732.638C636.982 732.638 637.304 732.652 637.668 732.68C638.004 732.68 638.312 732.694 638.592 732.722L638.592 747.212C640.356 747.072 641.728 746.456 642.708 745.364C643.66 744.244 644.136 742.634 644.136 740.534C644.136 739.302 644.024 738.182 643.8 737.174C643.576 736.138 643.338 735.326 643.086 734.738L647.244 734.066C647.384 734.346 647.538 734.738 647.706 735.242C647.846 735.718 647.972 736.278 648.084 736.922C648.224 737.538 648.336 738.21 648.42 738.938C648.504 739.666 648.546 740.408 648.546 741.164C648.546 743.096 648.266 744.776 647.706 746.204C647.118 747.632 646.32 748.808 645.312 749.732C644.276 750.656 643.072 751.342 641.7 751.79C640.3 752.238 638.774 752.462 637.122 752.462ZM634.854 737.72C634.154 737.72 633.496 737.818 632.88 738.014C632.236 738.21 631.69 738.504 631.242 738.896C630.766 739.26 630.402 739.722 630.15 740.282C629.87 740.814 629.73 741.458 629.73 742.214C629.73 742.998 629.884 743.684 630.192 744.272C630.472 744.86 630.85 745.364 631.326 745.784C631.802 746.176 632.348 746.484 632.964 746.708C633.58 746.932 634.21 747.086 634.854 747.17L634.854 737.72ZM644.346 721.747C644.346 720.403 644.192 719.423 643.884 718.807C643.548 718.191 642.988 717.883 642.204 717.883C641.476 717.883 640.874 718.219 640.398 718.891C639.922 719.535 639.404 720.613 638.844 722.125C638.508 723.049 638.158 723.903 637.794 724.687C637.402 725.443 636.954 726.101 636.45 726.661C635.946 727.221 635.344 727.669 634.644 728.005C633.916 728.313 633.034 728.467 631.998 728.467C629.982 728.467 628.4 727.725 627.252 726.241C626.076 724.757 625.488 722.741 625.488 720.193C625.488 718.905 625.614 717.673 625.866 716.497C626.09 715.321 626.314 714.439 626.538 713.851L630.654 714.775C630.402 715.335 630.178 716.049 629.982 716.917C629.758 717.785 629.646 718.793 629.646 719.941C629.646 720.977 629.828 721.817 630.192 722.461C630.528 723.105 631.06 723.427 631.788 723.427C632.152 723.427 632.474 723.371 632.754 723.259C633.034 723.119 633.3 722.895 633.552 722.587C633.776 722.279 634.014 721.873 634.266 721.369C634.49 720.865 634.728 720.249 634.98 719.521C635.428 718.317 635.876 717.295 636.324 716.455C636.744 715.615 637.234 714.929 637.794 714.397C638.326 713.837 638.942 713.431 639.642 713.179C640.342 712.927 641.182 712.801 642.162 712.801C644.262 712.801 645.858 713.585 646.95 715.153C648.014 716.693 648.546 718.905 648.546 721.789C648.546 723.721 648.378 725.275 648.042 726.451C647.734 727.627 647.482 728.453 647.286 728.929L643.044 728.047C643.352 727.291 643.646 726.395 643.926 725.359C644.206 724.295 644.346 723.091 644.346 721.747ZM648 702.93L648 708.012L626.034 708.012L626.034 702.93L648 702.93ZM619.608 702.384C620.56 702.384 621.316 702.692 621.876 703.308C622.436 703.924 622.716 704.652 622.716 705.492C622.716 706.36 622.436 707.102 621.876 707.718C621.316 708.334 620.56 708.642 619.608 708.642C618.628 708.642 617.858 708.334 617.298 707.718C616.738 707.102 616.458 706.36 616.458 705.492C616.458 704.652 616.738 703.924 617.298 703.308C617.858 702.692 618.628 702.384 619.608 702.384ZM636.45 692.457C638.606 692.457 640.188 691.995 641.196 691.071C642.176 690.119 642.666 688.901 642.666 687.417C642.666 686.605 642.554 685.849 642.33 685.149C642.106 684.421 641.84 683.833 641.532 683.385L630.15 683.385C630.066 683.749 629.996 684.197 629.94 684.729C629.856 685.261 629.814 685.933 629.814 686.745C629.814 688.593 630.43 690.007 631.662 690.987C632.866 691.967 634.462 692.457 636.45 692.457ZM645.774 678.303C649.274 678.303 651.836 679.199 653.46 680.991C655.084 682.755 655.896 685.471 655.896 689.139C655.896 690.483 655.784 691.799 655.56 693.087C655.336 694.347 655.042 695.495 654.678 696.531L650.352 695.607C650.716 694.739 651.01 693.759 651.234 692.667C651.458 691.547 651.57 690.343 651.57 689.055C651.57 687.011 651.15 685.555 650.31 684.687C649.47 683.819 648.224 683.385 646.572 683.385L645.732 683.385C645.984 683.889 646.236 684.561 646.488 685.401C646.74 686.213 646.866 687.151 646.866 688.215C646.866 689.615 646.642 690.903 646.194 692.079C645.746 693.227 645.088 694.221 644.22 695.061C643.352 695.873 642.274 696.517 640.986 696.993C639.67 697.441 638.158 697.665 636.45 697.665C634.854 697.665 633.384 697.427 632.04 696.951C630.696 696.447 629.548 695.733 628.596 694.809C627.644 693.857 626.902 692.709 626.37 691.365C625.838 690.021 625.572 688.495 625.572 686.787C625.572 685.135 625.698 683.567 625.95 682.083C626.202 680.599 626.468 679.339 626.748 678.303L645.774 678.303ZM626.748 671.837C626.468 670.857 626.202 669.583 625.95 668.015C625.698 666.447 625.572 664.711 625.572 662.807C625.572 661.015 625.824 659.517 626.328 658.313C626.804 657.109 627.49 656.157 628.386 655.457C629.254 654.729 630.318 654.225 631.578 653.945C632.81 653.637 634.168 653.483 635.652 653.483L648 653.483L648 658.565L636.45 658.565C635.274 658.565 634.28 658.649 633.468 658.817C632.628 658.957 631.956 659.209 631.452 659.573C630.92 659.909 630.542 660.385 630.318 661.001C630.066 661.589 629.94 662.317 629.94 663.185C629.94 663.829 629.982 664.501 630.066 665.201C630.15 665.901 630.22 666.419 630.276 666.755L648 666.755L648 671.837L626.748 671.837Z" fill="white"/>
<path d="M357.017 697.601C354.362 695.803 351.461 693.663 348.314 691.18C345.177 688.658 342.016 685.844 338.832 682.736L343.524 680.027C344.407 680.939 345.375 681.916 346.428 682.957C347.492 683.959 348.575 684.967 349.677 685.98C350.789 686.954 351.887 687.904 352.971 688.83C354.066 689.718 355.061 690.517 355.957 691.229C355.789 690.097 355.581 688.843 355.336 687.465C355.076 686.063 354.79 684.644 354.478 683.208C354.176 681.733 353.857 680.284 353.521 678.862C353.171 677.415 352.821 676.081 352.472 674.861L357.018 672.236C358.118 676.548 358.963 680.699 359.553 684.691C360.155 688.644 360.57 692.219 360.799 695.417L357.017 697.601ZM375.726 686.799L371.325 689.34L360.342 670.317L364.743 667.776L375.726 686.799ZM362.003 661.938C362.479 662.762 362.59 663.571 362.336 664.364C362.083 665.157 361.592 665.763 360.865 666.183C360.113 666.617 359.331 666.746 358.517 666.569C357.704 666.392 357.059 665.891 356.583 665.067C356.093 664.218 355.975 663.397 356.228 662.604C356.482 661.811 356.984 661.198 357.736 660.764C358.463 660.344 359.234 660.222 360.047 660.399C360.861 660.576 361.513 661.089 362.003 661.938ZM384.278 677.642C385.442 676.97 386.214 676.346 386.594 675.772C386.959 675.173 386.946 674.534 386.554 673.855C386.19 673.224 385.598 672.871 384.778 672.795C383.982 672.704 382.79 672.795 381.2 673.066C380.232 673.237 379.317 673.361 378.456 673.438C377.606 673.476 376.812 673.417 376.075 673.261C375.338 673.104 374.649 672.807 374.008 672.369C373.377 671.892 372.803 671.205 372.285 670.308C371.277 668.562 371.128 666.821 371.84 665.085C372.537 663.324 373.989 661.807 376.195 660.533C377.311 659.889 378.441 659.382 379.585 659.013C380.716 658.619 381.591 658.372 382.213 658.272L383.47 662.298C382.859 662.36 382.129 662.523 381.279 662.787C380.416 663.027 379.487 663.434 378.492 664.008C377.595 664.526 376.959 665.104 376.583 665.741C376.193 666.354 376.181 666.976 376.545 667.606C376.727 667.921 376.936 668.172 377.173 668.359C377.434 668.531 377.761 668.65 378.154 668.714C378.533 668.754 379.003 668.757 379.566 668.723C380.114 668.665 380.767 668.563 381.523 668.418C382.79 668.204 383.899 668.081 384.85 668.049C385.788 667.992 386.627 668.074 387.368 668.293C388.119 668.473 388.778 668.804 389.347 669.284C389.915 669.764 390.444 670.429 390.934 671.277C391.984 673.096 392.103 674.87 391.291 676.6C390.489 678.291 388.84 679.858 386.342 681.3C384.669 682.266 383.239 682.898 382.053 683.195C380.88 683.516 380.039 683.711 379.529 683.779L378.171 679.664C378.98 679.553 379.903 679.36 380.94 679.084C382.002 678.795 383.114 678.314 384.278 677.642ZM413.232 664.369C412.51 665.077 411.532 665.932 410.3 666.934C409.082 667.961 407.661 668.943 406.036 669.881C404.509 670.763 403.098 671.287 401.803 671.452C400.532 671.604 399.358 671.474 398.279 671.062C397.225 670.636 396.257 669.966 395.374 669.053C394.477 668.116 393.658 667.005 392.916 665.72L386.763 655.062L391.164 652.521L396.918 662.488C398.094 664.525 399.225 665.812 400.311 666.348C401.421 666.871 402.716 666.706 404.195 665.852C404.729 665.544 405.272 665.198 405.826 664.813C406.405 664.415 406.818 664.095 407.067 663.854L398.184 648.468L402.585 645.927L413.232 664.369ZM424.078 654.761C425.436 653.977 426.424 653.309 427.043 652.757L424.229 647.883C423.945 647.951 423.551 648.081 423.049 648.274C422.546 648.467 422.016 648.725 421.458 649.047C420.973 649.327 420.497 649.65 420.03 650.017C419.587 650.37 419.215 650.762 418.915 651.194C418.639 651.612 418.485 652.073 418.452 652.577C418.406 653.056 418.536 653.563 418.844 654.096C419.446 655.139 420.194 655.678 421.086 655.712C421.965 655.722 422.962 655.405 424.078 654.761ZM414.243 638.566C415.698 637.726 417.027 637.201 418.232 636.991C419.436 636.781 420.518 636.835 421.478 637.154C422.462 637.458 423.348 638.014 424.137 638.819C424.936 639.587 425.657 640.528 426.301 641.644L432.958 653.174C432.363 653.711 431.43 654.476 430.16 655.468C428.928 656.47 427.452 657.469 425.73 658.463C424.59 659.121 423.485 659.613 422.413 659.941C421.341 660.269 420.326 660.386 419.367 660.293C418.432 660.186 417.547 659.857 416.711 659.305C415.899 658.739 415.164 657.886 414.506 656.746C413.876 655.655 413.55 654.615 413.529 653.625C413.531 652.621 413.763 651.679 414.224 650.798C414.672 649.893 415.312 649.071 416.146 648.331C416.99 647.553 417.933 646.863 418.976 646.261C419.461 645.981 419.991 645.723 420.567 645.488C421.128 645.228 421.754 644.996 422.444 644.792L422.024 644.064C421.73 643.555 421.39 643.105 421.002 642.714C420.615 642.324 420.166 642.05 419.655 641.892C419.154 641.696 418.593 641.648 417.971 641.748C417.374 641.835 416.7 642.095 415.948 642.529C414.93 643.117 414.038 643.728 413.274 644.364C412.509 644.999 411.916 645.568 411.494 646.07L408.891 642.82C409.337 642.304 410.037 641.641 410.992 640.831C411.947 640.021 413.03 639.266 414.243 638.566ZM445.43 647.04C444.106 647.772 442.931 648.257 441.904 648.494C440.901 648.717 440.005 648.733 439.216 648.542C438.413 648.327 437.692 647.919 437.054 647.317C436.426 646.678 435.839 645.885 435.293 644.939L422.651 623.043L426.632 619.774L439.211 641.562C439.519 642.095 439.814 642.523 440.097 642.844C440.404 643.152 440.744 643.376 441.116 643.517C441.474 643.634 441.877 643.66 442.325 643.595C442.783 643.492 443.324 643.309 443.948 643.046L445.43 647.04ZM453.835 641.702L449.434 644.243L438.451 625.22L442.852 622.679L453.835 641.702ZM440.112 616.841C440.588 617.666 440.7 618.474 440.446 619.267C440.193 620.06 439.702 620.667 438.975 621.087C438.223 621.521 437.44 621.649 436.627 621.472C435.813 621.295 435.169 620.795 434.693 619.97C434.203 619.121 434.084 618.301 434.338 617.508C434.591 616.715 435.094 616.101 435.846 615.667C436.573 615.247 437.344 615.126 438.157 615.303C438.971 615.48 439.622 615.992 440.112 616.841ZM463.565 614.843C463.374 615.632 463.144 616.719 462.876 618.102C462.632 619.472 462.391 620.985 462.151 622.643C461.898 624.276 461.668 625.977 461.46 627.746C461.263 629.476 461.123 631.109 461.039 632.645L470.86 626.975L472.981 630.649L457.85 639.385L456.275 636.657C456.248 635.379 456.306 633.939 456.448 632.337C456.591 630.735 456.757 629.12 456.948 627.49C457.124 625.836 457.324 624.25 457.547 622.731C457.793 621.198 458.02 619.855 458.227 618.701L449.461 623.762L447.34 620.088L461.78 611.751L463.565 614.843ZM481.976 621.333C483.334 620.549 484.323 619.881 484.942 619.33L482.128 614.456C481.843 614.523 481.45 614.653 480.947 614.847C480.444 615.04 479.914 615.297 479.356 615.619C478.871 615.899 478.395 616.223 477.928 616.59C477.485 616.942 477.114 617.335 476.813 617.767C476.537 618.185 476.383 618.645 476.351 619.149C476.304 619.629 476.435 620.135 476.743 620.669C477.345 621.711 478.092 622.25 478.985 622.284C479.864 622.294 480.861 621.977 481.976 621.333ZM472.141 605.139C473.596 604.299 474.926 603.774 476.13 603.563C477.334 603.353 478.416 603.407 479.376 603.726C480.361 604.031 481.247 604.586 482.035 605.392C482.834 606.159 483.556 607.101 484.2 608.216L490.857 619.746C490.262 620.284 489.329 621.048 488.059 622.04C486.827 623.043 485.35 624.041 483.628 625.035C482.489 625.693 481.383 626.186 480.311 626.513C479.24 626.841 478.224 626.959 477.265 626.866C476.331 626.759 475.445 626.429 474.609 625.877C473.798 625.311 473.063 624.458 472.405 623.319C471.775 622.228 471.449 621.187 471.427 620.197C471.43 619.194 471.661 618.251 472.123 617.371C472.57 616.466 473.211 615.643 474.045 614.903C474.889 614.125 475.832 613.435 476.875 612.833C477.36 612.553 477.89 612.295 478.465 612.06C479.027 611.801 479.653 611.569 480.343 611.364L479.923 610.637C479.629 610.127 479.288 609.677 478.901 609.287C478.514 608.896 478.065 608.622 477.553 608.464C477.052 608.269 476.491 608.221 475.87 608.321C475.273 608.407 474.599 608.667 473.847 609.101C472.828 609.689 471.937 610.301 471.172 610.936C470.408 611.572 469.814 612.14 469.393 612.642L466.789 609.393C467.235 608.877 467.935 608.214 468.89 607.404C469.845 606.594 470.929 605.839 472.141 605.139ZM506.047 613.449C507.033 613.365 507.804 613.469 508.361 613.762C508.942 614.041 509.429 614.52 509.821 615.199C510.311 616.047 510.367 616.985 509.99 618.011C509.612 619.037 508.696 619.97 507.241 620.81C506.077 621.482 504.956 621.92 503.877 622.123L502.874 619.21C503.158 619.142 503.523 619.045 503.967 618.918C504.41 618.791 504.839 618.609 505.251 618.371C505.663 618.133 505.936 617.878 506.071 617.607C506.229 617.321 506.224 617.033 506.056 616.742C505.832 616.354 505.495 616.161 505.043 616.163C504.606 616.189 504.182 616.24 503.773 616.314L503.346 616.415C503.261 616.044 503.184 615.603 503.116 615.093C503.062 614.607 503.021 614.145 502.995 613.708C501.608 614.218 500.293 614.46 499.05 614.434C497.806 614.408 496.636 614.146 495.54 613.647C494.43 613.124 493.402 612.408 492.457 611.499C491.536 610.576 490.704 609.472 489.962 608.187C489.15 606.78 488.613 605.345 488.349 603.88C488.072 602.392 488.074 600.968 488.356 599.608C488.663 598.235 489.251 596.958 490.121 595.777C490.991 594.596 492.153 593.585 493.608 592.745C495.402 591.709 497.289 591.056 499.267 590.787L500.401 594.934C499.765 595.01 499.078 595.164 498.34 595.396C497.625 595.615 496.904 595.934 496.177 596.354C494.455 597.348 493.461 598.65 493.194 600.259C492.912 601.844 493.339 603.618 494.473 605.583C495.565 607.474 496.857 608.732 498.35 609.358C499.828 609.959 501.574 609.679 503.587 608.517C504.338 608.083 505.036 607.583 505.68 607.017C506.323 606.452 506.848 605.906 507.256 605.38L509.974 608.66C509.664 609.13 509.133 609.695 508.383 610.355C507.632 611.015 506.81 611.635 505.916 612.215C505.931 612.465 505.951 612.696 505.977 612.908C506.002 613.12 506.025 613.3 506.047 613.449ZM518.562 600.21C519.92 599.426 520.909 598.758 521.528 598.207L518.714 593.333C518.43 593.4 518.036 593.53 517.533 593.723C517.031 593.917 516.5 594.174 515.943 594.496C515.458 594.776 514.981 595.1 514.514 595.466C514.071 595.819 513.7 596.212 513.399 596.644C513.123 597.062 512.969 597.522 512.937 598.026C512.89 598.506 513.021 599.012 513.329 599.546C513.931 600.588 514.678 601.127 515.571 601.161C516.45 601.171 517.447 600.854 518.562 600.21ZM508.728 584.016C510.183 583.176 511.512 582.651 512.716 582.44C513.92 582.23 515.003 582.284 515.963 582.603C516.947 582.908 517.833 583.463 518.622 584.269C519.42 585.036 520.142 585.977 520.786 587.093L527.443 598.623C526.848 599.161 525.915 599.925 524.645 600.917C523.413 601.92 521.936 602.918 520.215 603.912C519.075 604.57 517.969 605.063 516.898 605.39C515.826 605.718 514.81 605.836 513.852 605.743C512.917 605.636 512.031 605.306 511.195 604.754C510.384 604.188 509.649 603.335 508.991 602.196C508.361 601.104 508.035 600.064 508.013 599.074C508.016 598.071 508.248 597.128 508.709 596.248C509.157 595.343 509.797 594.52 510.631 593.78C511.475 593.002 512.418 592.312 513.461 591.71C513.946 591.43 514.476 591.172 515.052 590.937C515.613 590.677 516.239 590.445 516.929 590.241L516.509 589.514C516.215 589.004 515.874 588.554 515.487 588.164C515.1 587.773 514.651 587.499 514.139 587.341C513.638 587.146 513.077 587.098 512.456 587.198C511.859 587.284 511.185 587.544 510.433 587.978C509.415 588.566 508.523 589.177 507.758 589.813C506.994 590.448 506.401 591.017 505.979 591.519L503.376 588.27C503.821 587.754 504.522 587.091 505.477 586.281C506.431 585.471 507.515 584.716 508.728 584.016ZM512.094 573.634C512.144 574.057 512.167 574.545 512.163 575.097C512.168 575.611 512.107 576.148 511.977 576.708C511.834 577.243 511.614 577.758 511.317 578.253C511.021 578.747 510.606 579.149 510.072 579.457C509.636 579.709 509.188 579.886 508.731 579.989C508.259 580.067 507.78 580.134 507.294 580.188C506.832 580.228 506.384 580.293 505.95 580.381C505.527 580.432 505.145 580.555 504.806 580.751C504.345 581.017 504.036 581.406 503.879 581.917C503.745 582.414 503.701 582.925 503.745 583.449L500.77 583.421C500.695 583.011 500.655 582.55 500.649 582.036C500.654 581.483 500.728 580.939 500.871 580.404C501.025 579.83 501.25 579.296 501.547 578.802C501.843 578.307 502.258 577.906 502.791 577.598C503.228 577.346 503.682 577.181 504.154 577.102C504.626 577.024 505.093 576.964 505.555 576.924C506.027 576.846 506.474 576.781 506.898 576.731C507.346 576.666 507.739 576.536 508.079 576.34C508.539 576.074 508.836 575.692 508.97 575.195C509.113 574.659 509.163 574.13 509.119 573.605L512.094 573.634ZM544.787 576.485C545.655 577.989 546.228 579.485 546.505 580.973C546.783 582.462 546.773 583.874 546.477 585.209C546.181 586.544 545.603 587.783 544.743 588.926C543.908 590.055 542.811 591.011 541.453 591.795C540.095 592.579 538.719 593.051 537.323 593.21C535.928 593.369 534.578 593.243 533.274 592.832C531.97 592.421 530.73 591.73 529.555 590.759C528.405 589.775 527.396 588.531 526.528 587.027C525.66 585.524 525.094 584.04 524.83 582.575C524.577 581.073 524.599 579.654 524.895 578.319C525.215 576.97 525.8 575.743 526.65 574.638C527.485 573.509 528.57 572.56 529.903 571.79C531.237 571.02 532.602 570.555 533.997 570.396C535.403 570.199 536.758 570.306 538.062 570.717C539.366 571.128 540.593 571.826 541.744 572.81C542.905 573.757 543.919 574.982 544.787 576.485ZM540.277 579.089C539.185 577.198 537.911 575.944 536.457 575.329C535.013 574.676 533.563 574.769 532.108 575.609C530.653 576.449 529.836 577.665 529.655 579.256C529.485 580.809 529.946 582.532 531.038 584.423C532.144 586.339 533.419 587.623 534.863 588.277C536.332 588.916 537.793 588.816 539.248 587.976C540.703 587.136 541.509 585.927 541.665 584.35C541.845 582.758 541.383 581.005 540.277 579.089Z" fill="white"/>
<path d="M121.041 216.287L116.64 213.746L127.623 194.723L132.024 197.264L121.041 216.287ZM135.71 191.972C135.234 192.796 134.589 193.297 133.776 193.474C132.962 193.651 132.192 193.529 131.464 193.109C130.713 192.675 130.21 192.062 129.957 191.269C129.703 190.476 129.814 189.667 130.29 188.843C130.78 187.994 131.432 187.481 132.246 187.304C133.059 187.127 133.842 187.256 134.593 187.69C135.321 188.11 135.811 188.716 136.065 189.509C136.318 190.302 136.2 191.123 135.71 191.972ZM137.282 201.124C138.271 201.371 139.507 201.778 140.991 202.344C142.475 202.91 144.041 203.669 145.69 204.621C147.242 205.517 148.413 206.484 149.204 207.522C150.009 208.536 150.49 209.607 150.649 210.733C150.845 211.848 150.749 213.022 150.362 214.253C150.013 215.474 149.467 216.727 148.725 218.012L142.551 228.706L138.15 226.165L143.925 216.162C144.513 215.144 144.937 214.241 145.198 213.454C145.496 212.656 145.614 211.948 145.551 211.33C145.526 210.701 145.303 210.136 144.881 209.634C144.498 209.121 143.931 208.648 143.179 208.214C142.621 207.892 142.018 207.593 141.37 207.315C140.722 207.038 140.238 206.84 139.919 206.72L131.057 222.07L126.656 219.529L137.282 201.124ZM161.596 207.644L166.417 209.458L163.099 215.205L169.864 219.111L167.743 222.784L160.978 218.878L156.505 226.626C155.623 228.154 155.235 229.385 155.342 230.32C155.449 231.254 156.085 232.058 157.249 232.73C158.049 233.192 158.801 233.513 159.505 233.693C160.234 233.887 160.822 234.017 161.27 234.081L159.981 237.993C159.346 237.917 158.553 237.75 157.602 237.493C156.638 237.259 155.598 236.82 154.483 236.176C153.125 235.392 152.09 234.553 151.379 233.657C150.691 232.775 150.277 231.841 150.136 230.854C150.008 229.843 150.115 228.789 150.457 227.693C150.813 226.573 151.355 225.382 152.083 224.121L161.596 207.644ZM167.2 230.376C168.166 228.703 169.256 227.376 170.469 226.395C171.706 225.428 172.975 224.77 174.275 224.422C175.59 224.049 176.899 223.965 178.204 224.168C179.523 224.348 180.74 224.76 181.856 225.404C184.475 226.916 186.043 228.904 186.559 231.369C187.101 233.847 186.44 236.699 184.578 239.924C184.438 240.167 184.265 240.439 184.059 240.74C183.891 241.031 183.725 241.291 183.56 241.519L171.012 234.274C170.251 235.872 170.098 237.368 170.554 238.763C171.048 240.147 172.204 241.364 174.023 242.414C175.09 243.03 176.116 243.493 177.101 243.803C178.11 244.127 178.932 244.327 179.568 244.403L178.071 248.34C177.758 248.321 177.342 248.259 176.821 248.152C176.339 248.035 175.791 247.864 175.177 247.639C174.574 247.453 173.936 247.214 173.263 246.922C172.591 246.631 171.927 246.297 171.272 245.919C169.599 244.953 168.284 243.87 167.328 242.671C166.385 241.448 165.766 240.169 165.469 238.834C165.187 237.475 165.195 236.089 165.493 234.677C165.805 233.24 166.374 231.807 167.2 230.376ZM181.101 235.783C181.451 235.177 181.695 234.558 181.833 233.926C181.986 233.271 182.004 232.651 181.889 232.067C181.811 231.473 181.593 230.926 181.234 230.428C180.914 229.92 180.426 229.476 179.771 229.098C179.092 228.706 178.421 228.497 177.758 228.47C177.109 228.418 176.483 228.493 175.881 228.696C175.304 228.912 174.764 229.231 174.262 229.652C173.76 230.074 173.312 230.542 172.917 231.058L181.101 235.783ZM203.129 243.602C202.835 243.271 202.396 242.856 201.811 242.357C201.265 241.847 200.567 241.347 199.718 240.857C199.233 240.577 198.684 240.325 198.07 240.1C197.481 239.889 197.056 239.757 196.796 239.703L187.997 254.944L183.595 252.403L194.053 234.289C195.084 234.464 196.307 234.782 197.722 235.243C199.175 235.694 200.678 236.368 202.23 237.264C202.521 237.432 202.846 237.652 203.206 237.924C203.58 238.173 203.94 238.445 204.286 238.742C204.646 239.014 204.98 239.304 205.288 239.611C205.609 239.894 205.858 240.135 206.034 240.333L203.129 243.602ZM206.743 261.645C208.101 262.429 209.174 262.951 209.961 263.212L212.775 258.338C212.574 258.125 212.265 257.849 211.846 257.51C211.427 257.172 210.939 256.841 210.381 256.519C209.896 256.239 209.378 255.989 208.827 255.767C208.3 255.56 207.774 255.434 207.25 255.39C206.75 255.36 206.274 255.457 205.822 255.681C205.383 255.88 205.01 256.247 204.702 256.78C204.1 257.823 204.007 258.74 204.424 259.53C204.855 260.296 205.628 261.001 206.743 261.645ZM215.85 245.031C217.305 245.871 218.425 246.759 219.209 247.697C219.993 248.635 220.487 249.599 220.691 250.59C220.92 251.595 220.882 252.64 220.578 253.725C220.313 254.801 219.858 255.896 219.214 257.012L212.557 268.542C211.795 268.296 210.666 267.87 209.172 267.266C207.688 266.7 206.085 265.921 204.363 264.927C203.224 264.269 202.244 263.557 201.424 262.793C200.605 262.029 199.995 261.208 199.596 260.331C199.222 259.468 199.064 258.537 199.124 257.537C199.209 256.551 199.58 255.488 200.238 254.349C200.868 253.257 201.606 252.455 202.452 251.941C203.323 251.441 204.254 251.171 205.248 251.131C206.255 251.066 207.288 251.209 208.346 251.561C209.442 251.903 210.511 252.375 211.554 252.977C212.039 253.257 212.527 253.587 213.018 253.968C213.524 254.324 214.038 254.75 214.56 255.246L214.98 254.518C215.274 254.009 215.493 253.489 215.638 252.958C215.783 252.428 215.795 251.902 215.676 251.38C215.595 250.848 215.356 250.339 214.959 249.851C214.586 249.377 214.024 248.923 213.272 248.489C212.253 247.901 211.278 247.434 210.345 247.09C209.412 246.745 208.623 246.516 207.978 246.402L209.49 242.522C210.16 242.651 211.084 242.926 212.263 243.348C213.442 243.77 214.638 244.331 215.85 245.031ZM225.606 278.549C226.172 279.361 226.467 280.081 226.492 280.71C226.541 281.352 226.37 282.013 225.978 282.692C225.488 283.541 224.704 284.058 223.627 284.244C222.549 284.431 221.283 284.104 219.828 283.264C218.664 282.592 217.725 281.839 217.01 281.006L219.031 278.681C219.231 278.894 219.498 279.161 219.829 279.482C220.161 279.803 220.534 280.082 220.946 280.32C221.358 280.558 221.715 280.667 222.017 280.648C222.344 280.642 222.591 280.494 222.759 280.203C222.983 279.815 222.981 279.426 222.754 279.036C222.513 278.671 222.257 278.329 221.988 278.012L221.687 277.693C221.966 277.433 222.309 277.147 222.717 276.832C223.111 276.542 223.49 276.277 223.856 276.035C222.721 275.089 221.854 274.071 221.255 272.981C220.655 271.892 220.297 270.747 220.181 269.549C220.079 268.326 220.185 267.078 220.5 265.804C220.839 264.545 221.379 263.273 222.121 261.988C222.933 260.581 223.908 259.398 225.044 258.438C226.195 257.453 227.429 256.743 228.747 256.308C230.09 255.887 231.49 255.757 232.948 255.92C234.406 256.083 235.862 256.584 237.317 257.424C239.111 258.46 240.62 259.768 241.842 261.346L238.818 264.401C238.434 263.889 237.957 263.371 237.387 262.848C236.84 262.338 236.203 261.873 235.476 261.453C233.754 260.459 232.13 260.249 230.602 260.822C229.089 261.371 227.766 262.628 226.632 264.592C225.54 266.483 225.096 268.232 225.301 269.837C225.519 271.418 226.635 272.79 228.648 273.952C229.399 274.386 230.181 274.74 230.993 275.015C231.804 275.289 232.539 275.471 233.199 275.561L231.717 279.555C231.155 279.522 230.4 279.345 229.453 279.024C228.507 278.704 227.559 278.302 226.609 277.819C226.4 277.957 226.21 278.09 226.04 278.217C225.869 278.345 225.724 278.456 225.606 278.549ZM243.329 282.768C244.687 283.552 245.76 284.074 246.547 284.335L249.361 279.461C249.161 279.248 248.851 278.972 248.432 278.633C248.013 278.295 247.525 277.964 246.968 277.642C246.483 277.362 245.964 277.112 245.413 276.89C244.886 276.683 244.361 276.557 243.836 276.513C243.336 276.483 242.86 276.58 242.408 276.804C241.969 277.004 241.596 277.37 241.288 277.903C240.686 278.946 240.593 279.863 241.01 280.653C241.441 281.419 242.214 282.124 243.329 282.768ZM252.437 266.154C253.892 266.994 255.011 267.882 255.795 268.82C256.579 269.758 257.074 270.722 257.278 271.713C257.506 272.718 257.468 273.763 257.165 274.848C256.899 275.924 256.445 277.019 255.801 278.135L249.144 289.665C248.381 289.419 247.252 288.993 245.758 288.389C244.274 287.824 242.671 287.044 240.95 286.05C239.81 285.392 238.83 284.681 238.011 283.916C237.191 283.152 236.581 282.331 236.183 281.454C235.808 280.592 235.65 279.66 235.71 278.66C235.795 277.674 236.166 276.611 236.824 275.472C237.454 274.38 238.192 273.578 239.038 273.064C239.909 272.565 240.841 272.294 241.834 272.254C242.842 272.189 243.874 272.332 244.932 272.684C246.028 273.026 247.097 273.498 248.14 274.1C248.625 274.38 249.113 274.71 249.604 275.091C250.11 275.447 250.624 275.873 251.146 276.369L251.566 275.641C251.86 275.132 252.079 274.612 252.224 274.082C252.369 273.551 252.382 273.025 252.262 272.503C252.181 271.971 251.942 271.462 251.545 270.974C251.172 270.5 250.61 270.046 249.858 269.612C248.84 269.024 247.864 268.557 246.931 268.213C245.999 267.868 245.21 267.639 244.564 267.525L246.077 263.646C246.746 263.774 247.671 264.049 248.85 264.471C250.028 264.893 251.224 265.454 252.437 266.154ZM263.111 263.878C262.769 264.133 262.358 264.397 261.878 264.669C261.435 264.931 260.94 265.146 260.39 265.314C259.855 265.457 259.299 265.524 258.722 265.515C258.146 265.505 257.591 265.346 257.057 265.038C256.621 264.786 256.243 264.488 255.925 264.143C255.622 263.773 255.325 263.392 255.035 262.998C254.769 262.618 254.489 262.263 254.195 261.931C253.94 261.59 253.642 261.321 253.303 261.125C252.842 260.859 252.351 260.786 251.83 260.905C251.332 261.038 250.868 261.255 250.436 261.555L248.973 258.965C249.29 258.695 249.67 258.429 250.112 258.167C250.593 257.895 251.101 257.687 251.636 257.544C252.21 257.39 252.785 257.318 253.362 257.328C253.938 257.337 254.493 257.496 255.026 257.804C255.463 258.056 255.833 258.367 256.137 258.736C256.441 259.106 256.726 259.48 256.992 259.86C257.296 260.229 257.575 260.585 257.831 260.926C258.111 261.282 258.42 261.558 258.76 261.754C259.22 262.02 259.699 262.086 260.197 261.953C260.732 261.809 261.216 261.587 261.648 261.287L263.111 263.878ZM276.988 293.617C276.12 295.12 275.111 296.364 273.96 297.349C272.81 298.333 271.582 299.031 270.278 299.442C268.974 299.853 267.612 299.972 266.192 299.799C264.797 299.64 263.42 299.169 262.062 298.385C260.704 297.601 259.608 296.644 258.772 295.515C257.937 294.386 257.371 293.154 257.075 291.819C256.779 290.484 256.757 289.065 257.01 287.563C257.288 286.074 257.861 284.578 258.729 283.075C259.597 281.571 260.599 280.339 261.735 279.379C262.91 278.408 264.15 277.717 265.454 277.306C266.782 276.909 268.137 276.803 269.519 276.986C270.914 277.145 272.279 277.609 273.612 278.379C274.946 279.149 276.03 280.099 276.866 281.228C277.74 282.347 278.325 283.573 278.621 284.908C278.917 286.243 278.926 287.655 278.649 289.144C278.41 290.622 277.856 292.113 276.988 293.617ZM272.478 291.013C273.57 289.121 274.018 287.392 273.824 285.825C273.668 284.247 272.862 283.039 271.407 282.199C269.952 281.359 268.491 281.258 267.022 281.898C265.592 282.527 264.331 283.787 263.239 285.679C262.133 287.594 261.658 289.341 261.814 290.918C261.995 292.51 262.812 293.725 264.267 294.565C265.722 295.405 267.172 295.499 268.616 294.845C270.084 294.206 271.372 292.928 272.478 291.013ZM284.509 310.665L300.385 283.167L305.207 284.981L299.768 294.402C300.351 294.512 300.992 294.688 301.693 294.931C302.417 295.188 303.095 295.498 303.726 295.862C305.253 296.744 306.388 297.69 307.13 298.701C307.911 299.701 308.38 300.764 308.538 301.89C308.711 302.992 308.61 304.146 308.236 305.353C307.887 306.574 307.334 307.839 306.578 309.149L300.404 319.842L296.003 317.301L301.778 307.299C302.366 306.28 302.791 305.378 303.051 304.59C303.35 303.793 303.468 303.085 303.404 302.466C303.379 301.838 303.168 301.279 302.771 300.791C302.388 300.279 301.82 299.806 301.069 299.372C300.487 299.036 299.858 298.754 299.181 298.525C298.505 298.296 297.994 298.146 297.647 298.075L288.911 313.206L284.509 310.665ZM328.386 323.291C327.518 324.795 326.509 326.039 325.358 327.024C324.208 328.008 322.981 328.706 321.676 329.117C320.372 329.528 319.01 329.647 317.591 329.474C316.195 329.315 314.818 328.843 313.461 328.059C312.103 327.275 311.006 326.319 310.17 325.19C309.335 324.061 308.769 322.829 308.473 321.494C308.177 320.159 308.155 318.74 308.409 317.238C308.686 315.749 309.259 314.253 310.127 312.749C310.995 311.246 311.997 310.014 313.134 309.054C314.308 308.083 315.548 307.392 316.852 306.981C318.18 306.584 319.535 306.477 320.917 306.661C322.312 306.82 323.677 307.284 325.011 308.054C326.344 308.824 327.429 309.774 328.264 310.903C329.138 312.021 329.723 313.248 330.019 314.583C330.315 315.918 330.325 317.33 330.047 318.819C329.808 320.297 329.254 321.788 328.386 323.291ZM323.876 320.687C324.968 318.796 325.417 317.067 325.222 315.499C325.066 313.922 324.26 312.713 322.806 311.873C321.351 311.033 319.889 310.933 318.42 311.572C316.99 312.202 315.729 313.462 314.637 315.353C313.531 317.269 313.056 319.016 313.212 320.593C313.393 322.184 314.211 323.4 315.666 324.24C317.12 325.08 318.57 325.173 320.014 324.52C321.483 323.881 322.77 322.603 323.876 320.687ZM344.032 331.694C345.18 329.706 345.752 328.128 345.747 326.961C345.78 325.784 345.117 324.803 343.759 324.019C343.274 323.739 342.72 323.468 342.096 323.205C341.472 322.941 341 322.75 340.681 322.63L331.819 337.98L327.418 335.439L338.044 317.034C339.033 317.282 340.269 317.688 341.753 318.254C343.261 318.834 344.779 319.565 346.307 320.447C347.616 321.203 348.585 321.988 349.214 322.804C349.867 323.633 350.311 324.488 350.546 325.368C350.925 325.328 351.384 325.318 351.922 325.337C352.46 325.357 353.033 325.429 353.64 325.553C354.261 325.653 354.886 325.804 355.514 326.005C356.165 326.219 356.782 326.495 357.364 326.831C358.844 327.685 359.93 328.603 360.624 329.585C361.356 330.558 361.764 331.586 361.85 332.67C361.974 333.743 361.817 334.882 361.381 336.085C360.984 337.278 360.414 338.517 359.672 339.802L353.498 350.496L349.097 347.955L354.872 337.952C356.02 335.964 356.603 334.393 356.622 333.24C356.655 332.063 355.981 331.075 354.598 330.277C353.895 329.871 353.158 329.608 352.388 329.486C351.631 329.34 351.033 329.286 350.591 329.322C350.435 330.04 350.198 330.76 349.878 331.481C349.559 332.202 349.176 332.95 348.728 333.726L342.659 344.238L338.257 341.697L344.032 331.694ZM363.274 343.579C364.24 341.906 365.329 340.579 366.542 339.598C367.779 338.631 369.048 337.973 370.349 337.625C371.663 337.252 372.973 337.168 374.278 337.372C375.597 337.551 376.814 337.963 377.929 338.607C380.548 340.119 382.116 342.107 382.633 344.572C383.174 347.051 382.514 349.902 380.652 353.127C380.512 353.37 380.339 353.642 380.132 353.943C379.964 354.234 379.798 354.494 379.634 354.722L367.085 347.477C366.325 349.075 366.172 350.571 366.628 351.966C367.122 353.35 368.278 354.568 370.097 355.618C371.164 356.234 372.19 356.697 373.174 357.007C374.184 357.331 375.006 357.53 375.641 357.606L374.144 361.543C373.832 361.524 373.415 361.462 372.895 361.355C372.412 361.238 371.864 361.068 371.251 360.843C370.647 360.656 370.009 360.417 369.337 360.126C368.664 359.834 368.001 359.5 367.346 359.122C365.673 358.156 364.358 357.073 363.401 355.874C362.459 354.651 361.839 353.372 361.543 352.037C361.261 350.678 361.269 349.292 361.567 347.88C361.879 346.443 362.448 345.01 363.274 343.579ZM377.175 348.986C377.525 348.38 377.769 347.761 377.907 347.13C378.059 346.474 378.078 345.854 377.962 345.27C377.885 344.676 377.667 344.13 377.308 343.631C376.987 343.123 376.499 342.68 375.845 342.302C375.166 341.91 374.495 341.7 373.831 341.673C373.182 341.621 372.557 341.696 371.955 341.899C371.378 342.115 370.838 342.434 370.336 342.855C369.834 343.277 369.385 343.745 368.991 344.261L377.175 348.986ZM396.283 361.861C397.431 359.873 398.003 358.295 397.997 357.128C398.03 355.951 397.368 354.97 396.01 354.186C395.525 353.906 394.971 353.635 394.347 353.372C393.723 353.108 393.251 352.917 392.932 352.797L384.07 368.147L379.669 365.606L390.295 347.201C391.284 347.449 392.52 347.855 394.004 348.421C395.512 349.001 397.03 349.732 398.558 350.614C399.867 351.37 400.836 352.155 401.465 352.971C402.117 353.8 402.562 354.655 402.797 355.535C403.176 355.495 403.634 355.485 404.173 355.504C404.711 355.524 405.284 355.596 405.891 355.72C406.512 355.82 407.137 355.971 407.764 356.172C408.416 356.386 409.033 356.662 409.615 356.998C411.094 357.852 412.181 358.77 412.874 359.752C413.606 360.725 414.015 361.753 414.101 362.837C414.224 363.91 414.068 365.049 413.632 366.252C413.234 367.445 412.665 368.684 411.923 369.969L405.749 380.663L401.347 378.122L407.122 368.119C408.27 366.131 408.854 364.56 408.873 363.407C408.906 362.23 408.231 361.242 406.849 360.444C406.146 360.038 405.409 359.775 404.639 359.653C403.882 359.507 403.283 359.453 402.842 359.489C402.686 360.207 402.449 360.927 402.129 361.648C401.81 362.369 401.426 363.117 400.978 363.893L394.909 374.405L390.508 371.864L396.283 361.861ZM416.337 370.239L426.121 375.888L423.79 379.925L414.006 374.276L416.337 370.239ZM439.228 386.655C440.376 384.667 440.947 383.089 440.942 381.922C440.975 380.745 440.312 379.764 438.954 378.98C438.469 378.7 437.915 378.429 437.291 378.166C436.667 377.902 436.196 377.711 435.877 377.591L427.015 392.941L422.613 390.4L433.239 371.995C434.228 372.243 435.464 372.649 436.948 373.215C438.457 373.795 439.974 374.526 441.502 375.408C442.812 376.164 443.781 376.949 444.409 377.765C445.062 378.594 445.506 379.449 445.742 380.329C446.12 380.289 446.579 380.279 447.117 380.298C447.655 380.318 448.228 380.39 448.835 380.514C449.456 380.614 450.081 380.765 450.709 380.965C451.361 381.18 451.978 381.456 452.56 381.792C454.039 382.646 455.125 383.564 455.819 384.546C456.551 385.519 456.96 386.547 457.045 387.631C457.169 388.704 457.013 389.843 456.577 391.046C456.179 392.239 455.609 393.478 454.867 394.763L448.693 405.457L444.292 402.916L450.067 392.913C451.215 390.925 451.798 389.354 451.817 388.201C451.85 387.024 451.176 386.036 449.794 385.238C449.09 384.832 448.354 384.569 447.583 384.447C446.827 384.301 446.228 384.247 445.787 384.283C445.631 385.001 445.393 385.721 445.074 386.442C444.754 387.163 444.371 387.911 443.923 388.687L437.854 399.199L433.453 396.658L439.228 386.655ZM462.562 409.342C463.92 410.126 464.993 410.648 465.78 410.909L468.594 406.035C468.394 405.822 468.084 405.546 467.665 405.208C467.246 404.869 466.758 404.538 466.201 404.216C465.716 403.936 465.197 403.686 464.646 403.465C464.119 403.257 463.594 403.132 463.069 403.088C462.569 403.058 462.093 403.155 461.641 403.378C461.202 403.578 460.829 403.944 460.521 404.478C459.919 405.52 459.826 406.437 460.243 407.227C460.674 407.993 461.447 408.698 462.562 409.342ZM471.67 392.728C473.124 393.568 474.244 394.457 475.028 395.394C475.812 396.332 476.307 397.296 476.51 398.287C476.739 399.292 476.701 400.337 476.398 401.423C476.132 402.498 475.678 403.594 475.034 404.709L468.377 416.239C467.614 415.993 466.485 415.568 464.991 414.964C463.507 414.398 461.904 413.618 460.183 412.624C459.043 411.966 458.063 411.255 457.243 410.491C456.424 409.726 455.814 408.906 455.415 408.029C455.041 407.166 454.883 406.234 454.943 405.234C455.028 404.248 455.399 403.186 456.057 402.046C456.687 400.955 457.425 400.152 458.271 399.638C459.142 399.139 460.074 398.869 461.067 398.828C462.075 398.763 463.107 398.906 464.165 399.258C465.261 399.6 466.33 400.072 467.373 400.674C467.858 400.954 468.346 401.284 468.837 401.665C469.343 402.022 469.857 402.448 470.379 402.943L470.799 402.216C471.093 401.706 471.312 401.186 471.457 400.656C471.602 400.125 471.615 399.599 471.495 399.077C471.414 398.546 471.175 398.036 470.778 397.548C470.405 397.074 469.843 396.62 469.091 396.186C468.073 395.598 467.097 395.132 466.164 394.787C465.232 394.443 464.443 394.213 463.797 394.099L465.31 390.22C465.979 390.348 466.904 390.623 468.082 391.045C469.261 391.467 470.457 392.028 471.67 392.728ZM481.383 388.588L472.136 390.912L471.088 387.688L480.11 384.409L481.383 388.588ZM482.409 412.362C481.345 414.205 480.862 415.882 480.959 417.393C481.081 418.918 481.942 420.143 483.542 421.067C484.27 421.487 485.012 421.77 485.768 421.915C486.563 422.051 487.231 422.097 487.773 422.055L494.052 411.179C493.779 410.924 493.414 410.633 492.957 410.304C492.538 409.965 491.953 409.579 491.201 409.145C489.577 408.207 487.981 408.03 486.416 408.613C484.865 409.172 483.529 410.422 482.409 412.362ZM477.941 409.685C478.809 408.182 479.811 406.95 480.947 405.989C482.122 405.019 483.367 404.347 484.681 403.974C486.034 403.591 487.437 403.513 488.891 403.738C490.36 403.939 491.845 404.473 493.349 405.341C494.852 406.209 496.196 407.13 497.379 408.105C498.563 409.079 499.509 409.932 500.217 410.665L485.706 435.799L481.305 433.258L485.568 425.874C484.905 425.847 484.134 425.725 483.257 425.509C482.403 425.308 481.528 424.948 480.631 424.43C479.273 423.646 478.206 422.722 477.429 421.66C476.666 420.573 476.185 419.39 475.986 418.111C475.787 416.832 475.843 415.474 476.155 414.038C476.491 412.615 477.087 411.164 477.941 409.685ZM511.122 440.724C510.147 440.453 508.918 440.034 507.434 439.468C505.936 438.927 504.375 438.187 502.75 437.249C501.222 436.367 500.063 435.407 499.273 434.368C498.506 433.344 498.032 432.261 497.849 431.121C497.691 429.995 497.787 428.822 498.136 427.601C498.499 426.356 499.052 425.091 499.794 423.806L505.947 413.148L510.348 415.689L504.594 425.655C503.418 427.692 502.869 429.315 502.947 430.524C503.049 431.747 503.84 432.786 505.319 433.64C505.852 433.948 506.424 434.245 507.034 434.533C507.668 434.834 508.152 435.033 508.485 435.128L517.368 419.742L521.769 422.283L511.122 440.724ZM520.825 447.102L516.424 444.561L527.407 425.538L531.808 428.079L520.825 447.102ZM535.494 422.787C535.018 423.612 534.373 424.112 533.56 424.289C532.746 424.466 531.976 424.345 531.248 423.925C530.497 423.491 529.994 422.877 529.741 422.084C529.487 421.291 529.599 420.483 530.075 419.658C530.565 418.81 531.216 418.297 532.03 418.12C532.843 417.943 533.626 418.071 534.377 418.505C535.105 418.925 535.595 419.532 535.849 420.325C536.102 421.118 535.984 421.939 535.494 422.787ZM537.066 431.939C538.055 432.187 539.291 432.594 540.775 433.159C542.259 433.725 543.825 434.484 545.474 435.436C547.026 436.332 548.197 437.299 548.988 438.338C549.793 439.352 550.274 440.422 550.433 441.548C550.629 442.664 550.533 443.837 550.146 445.068C549.797 446.289 549.251 447.542 548.509 448.828L542.335 459.521L537.934 456.98L543.709 446.978C544.297 445.959 544.721 445.056 544.982 444.269C545.28 443.472 545.398 442.764 545.335 442.145C545.31 441.516 545.087 440.951 544.665 440.449C544.282 439.937 543.715 439.464 542.963 439.03C542.405 438.708 541.802 438.408 541.154 438.131C540.506 437.854 540.022 437.655 539.703 437.536L530.841 452.885L526.44 450.344L537.066 431.939ZM556.195 463.401C557.552 464.185 558.625 464.707 559.412 464.967L562.226 460.093C562.026 459.881 561.716 459.605 561.297 459.266C560.879 458.927 560.39 458.597 559.833 458.275C559.348 457.995 558.83 457.744 558.278 457.523C557.751 457.316 557.226 457.19 556.702 457.146C556.202 457.116 555.725 457.213 555.273 457.437C554.834 457.636 554.461 458.003 554.153 458.536C553.551 459.579 553.459 460.495 553.875 461.286C554.306 462.052 555.079 462.757 556.195 463.401ZM565.302 446.786C566.757 447.626 567.876 448.515 568.66 449.453C569.445 450.391 569.939 451.355 570.143 452.346C570.371 453.35 570.333 454.396 570.03 455.481C569.765 456.557 569.31 457.652 568.666 458.768L562.009 470.298C561.246 470.051 560.117 469.626 558.623 469.022C557.139 468.456 555.536 467.676 553.815 466.682C552.675 466.024 551.695 465.313 550.876 464.549C550.056 463.785 549.447 462.964 549.048 462.087C548.673 461.224 548.516 460.293 548.576 459.293C548.66 458.307 549.031 457.244 549.689 456.104C550.319 455.013 551.057 454.211 551.903 453.697C552.774 453.197 553.706 452.927 554.699 452.886C555.707 452.821 556.739 452.965 557.797 453.317C558.893 453.659 559.962 454.131 561.005 454.733C561.49 455.013 561.978 455.343 562.47 455.724C562.975 456.08 563.489 456.506 564.011 457.002L564.431 456.274C564.725 455.765 564.945 455.245 565.089 454.714C565.234 454.184 565.247 453.657 565.128 453.136C565.047 452.604 564.808 452.094 564.41 451.606C564.037 451.132 563.475 450.678 562.723 450.244C561.705 449.656 560.729 449.19 559.797 448.846C558.864 448.501 558.075 448.272 557.429 448.158L558.942 444.278C559.611 444.406 560.536 444.681 561.715 445.103C562.894 445.525 564.089 446.086 565.302 446.786ZM513.49 464.685L518.073 467.331L503.52 492.537L498.937 489.891L505.384 478.725L494.436 472.404L487.989 483.57L483.406 480.924L497.959 455.718L502.542 458.364L496.725 468.439L507.673 474.76L513.49 464.685ZM520.437 503.032C518.546 501.94 517.016 500.669 515.849 499.219C514.682 497.769 513.898 496.185 513.5 494.467C513.115 492.726 513.113 490.882 513.493 488.935C513.873 486.988 514.673 484.96 515.891 482.85C517.109 480.741 518.502 479.056 520.07 477.795C521.663 476.548 523.339 475.689 525.099 475.218C526.872 474.722 528.678 474.617 530.518 474.903C532.357 475.189 534.138 475.829 535.859 476.823C536.902 477.425 537.799 478.056 538.55 478.716C539.314 479.352 539.956 479.948 540.474 480.506C540.993 481.064 541.395 481.571 541.681 482.028C541.968 482.484 542.168 482.809 542.281 483.004L538.772 485.974C538.401 485.274 537.76 484.452 536.851 483.506C535.98 482.551 534.914 481.709 533.653 480.981C532.562 480.351 531.431 479.957 530.262 479.799C529.106 479.617 527.959 479.699 526.822 480.044C525.709 480.404 524.63 481.042 523.584 481.957C522.538 482.873 521.581 484.083 520.713 485.586C519.943 486.92 519.381 488.228 519.028 489.512C518.7 490.809 518.612 492.052 518.767 493.241C518.935 494.405 519.372 495.497 520.075 496.518C520.793 497.514 521.831 498.405 523.189 499.189C524.814 500.127 526.227 500.732 527.427 501.005C528.641 501.253 529.611 501.393 530.337 501.424L529.411 505.885C529.008 505.911 528.496 505.874 527.875 505.774C527.278 505.688 526.584 505.546 525.793 505.348C525.016 505.125 524.175 504.818 523.27 504.425C522.351 504.056 521.407 503.592 520.437 503.032ZM547.297 484.203L551.88 486.849L537.327 512.056L532.744 509.41L547.297 484.203Z" fill="white"/>
<path d="M738.102 575.837L733.701 573.296L744.684 554.273L749.085 556.814L738.102 575.837ZM752.771 551.522C752.295 552.346 751.651 552.847 750.837 553.024C750.024 553.201 749.253 553.08 748.526 552.66C747.774 552.226 747.271 551.612 747.018 550.819C746.764 550.026 746.876 549.217 747.352 548.393C747.842 547.544 748.493 547.031 749.307 546.854C750.12 546.677 750.903 546.806 751.655 547.24C752.382 547.66 752.873 548.266 753.126 549.059C753.38 549.852 753.261 550.673 752.771 551.522ZM754.343 560.674C755.332 560.922 756.568 561.328 758.052 561.894C759.536 562.46 761.103 563.219 762.752 564.171C764.303 565.067 765.475 566.034 766.265 567.072C767.07 568.087 767.552 569.157 767.71 570.283C767.906 571.398 767.811 572.572 767.423 573.803C767.074 575.024 766.528 576.277 765.786 577.562L759.612 588.256L755.211 585.715L760.986 575.712C761.574 574.694 761.998 573.791 762.259 573.004C762.558 572.206 762.675 571.498 762.612 570.88C762.587 570.251 762.364 569.686 761.943 569.184C761.559 568.672 760.992 568.198 760.24 567.764C759.682 567.442 759.079 567.143 758.431 566.866C757.783 566.588 757.299 566.39 756.98 566.27L748.118 581.62L743.717 579.079L754.343 560.674ZM778.657 567.194L783.478 569.008L780.16 574.755L786.925 578.661L784.804 582.335L778.039 578.429L773.566 586.176C772.684 587.704 772.297 588.935 772.403 589.87C772.51 590.804 773.146 591.608 774.31 592.28C775.11 592.742 775.862 593.063 776.567 593.243C777.295 593.437 777.883 593.567 778.331 593.631L777.042 597.543C776.407 597.467 775.614 597.301 774.664 597.043C773.699 596.809 772.659 596.371 771.544 595.727C770.186 594.943 769.151 594.103 768.44 593.207C767.753 592.325 767.338 591.391 767.197 590.404C767.069 589.393 767.176 588.339 767.518 587.243C767.874 586.123 768.416 584.932 769.144 583.671L778.657 567.194ZM784.261 589.926C785.227 588.253 786.317 586.926 787.53 585.945C788.767 584.978 790.036 584.32 791.336 583.972C792.651 583.599 793.961 583.515 795.266 583.719C796.584 583.898 797.802 584.31 798.917 584.954C801.536 586.466 803.104 588.454 803.621 590.919C804.162 593.398 803.502 596.249 801.64 599.474C801.5 599.717 801.326 599.989 801.12 600.29C800.952 600.581 800.786 600.841 800.622 601.069L788.073 593.824C787.312 595.422 787.16 596.918 787.615 598.313C788.109 599.697 789.266 600.915 791.084 601.965C792.151 602.581 793.177 603.044 794.162 603.354C795.171 603.678 795.994 603.877 796.629 603.953L795.132 607.89C794.819 607.871 794.403 607.809 793.882 607.702C793.4 607.585 792.852 607.415 792.238 607.19C791.635 607.003 790.997 606.764 790.325 606.473C789.652 606.181 788.989 605.847 788.334 605.469C786.661 604.503 785.346 603.42 784.389 602.221C783.446 600.998 782.827 599.719 782.531 598.384C782.248 597.025 782.256 595.639 782.554 594.227C782.866 592.79 783.435 591.357 784.261 589.926ZM798.162 595.333C798.512 594.727 798.757 594.108 798.895 593.477C799.047 592.821 799.065 592.201 798.95 591.617C798.873 591.023 798.655 590.477 798.296 589.978C797.975 589.47 797.487 589.027 796.832 588.649C796.153 588.257 795.482 588.047 794.819 588.02C794.17 587.968 793.544 588.044 792.943 588.246C792.365 588.462 791.826 588.781 791.324 589.202C790.822 589.624 790.373 590.092 789.978 590.608L798.162 595.333ZM807.067 616.139C805.771 615.358 804.764 614.583 804.045 613.812C803.35 613.055 802.888 612.288 802.659 611.509C802.444 610.705 802.437 609.877 802.639 609.024C802.879 608.16 803.272 607.255 803.818 606.309L816.46 584.413L821.281 586.226L808.702 608.014C808.394 608.547 808.172 609.017 808.034 609.423C807.921 609.842 807.897 610.249 807.961 610.641C808.039 611.01 808.218 611.372 808.498 611.727C808.816 612.073 809.245 612.45 809.785 612.858L807.067 616.139ZM815.893 620.749L811.491 618.208L822.474 599.185L826.876 601.726L815.893 620.749ZM830.561 596.434C830.085 597.259 829.441 597.759 828.627 597.936C827.814 598.113 827.043 597.992 826.316 597.572C825.564 597.138 825.061 596.524 824.808 595.731C824.555 594.938 824.666 594.13 825.142 593.305C825.632 592.456 826.284 591.944 827.097 591.767C827.91 591.59 828.693 591.718 829.445 592.152C830.172 592.572 830.663 593.179 830.916 593.972C831.17 594.765 831.051 595.585 830.561 596.434ZM830.738 615.983C829.66 617.851 829.269 619.452 829.565 620.787C829.9 622.111 830.709 623.145 831.995 623.887C832.698 624.293 833.408 624.574 834.127 624.73C834.869 624.9 835.511 624.963 836.053 624.921L841.744 615.063C841.471 614.809 841.118 614.524 840.685 614.21C840.267 613.871 839.706 613.498 839.003 613.092C837.402 612.168 835.87 611.995 834.405 612.572C832.954 613.125 831.732 614.262 830.738 615.983ZM838.334 631.135C836.584 634.166 834.527 635.937 832.163 636.448C829.823 636.972 827.065 636.317 823.888 634.483C822.724 633.811 821.641 633.056 820.637 632.218C819.658 631.394 818.811 630.566 818.096 629.732L821.059 626.448C821.629 627.197 822.33 627.942 823.164 628.682C824.022 629.436 825.009 630.135 826.124 630.779C827.894 631.801 829.365 632.165 830.537 631.872C831.709 631.578 832.707 630.716 833.533 629.285L833.953 628.558C833.391 628.524 832.683 628.406 831.829 628.205C831 628.017 830.125 627.657 829.203 627.125C827.991 626.425 826.988 625.587 826.193 624.611C825.423 623.649 824.891 622.582 824.598 621.41C824.328 620.253 824.31 618.997 824.542 617.644C824.812 616.28 825.374 614.859 826.228 613.379C827.026 611.997 827.967 610.843 829.051 609.917C830.159 609.005 831.352 608.368 832.628 608.006C833.928 607.657 835.294 607.589 836.724 607.8C838.153 608.011 839.608 608.544 841.087 609.398C842.518 610.224 843.813 611.117 844.972 612.077C846.131 613.037 847.089 613.898 847.847 614.658L838.334 631.135ZM847.204 626.266C848.17 624.593 849.259 623.266 850.472 622.285C851.71 621.318 852.978 620.66 854.279 620.312C855.593 619.939 856.903 619.855 858.208 620.058C859.527 620.238 860.744 620.65 861.86 621.294C864.478 622.806 866.046 624.794 866.563 627.259C867.104 629.737 866.444 632.589 864.582 635.814C864.442 636.057 864.269 636.329 864.063 636.63C863.895 636.921 863.728 637.181 863.564 637.409L851.016 630.164C850.255 631.762 850.102 633.258 850.558 634.653C851.052 636.037 852.208 637.254 854.027 638.304C855.094 638.92 856.12 639.383 857.105 639.693C858.114 640.017 858.936 640.217 859.571 640.293L858.074 644.23C857.762 644.211 857.345 644.149 856.825 644.042C856.343 643.925 855.795 643.754 855.181 643.529C854.577 643.343 853.939 643.104 853.267 642.812C852.595 642.521 851.931 642.187 851.276 641.809C849.603 640.843 848.288 639.76 847.331 638.561C846.389 637.338 845.769 636.059 845.473 634.724C845.191 633.365 845.199 631.979 845.497 630.567C845.809 629.13 846.378 627.697 847.204 626.266ZM861.105 631.673C861.455 631.067 861.699 630.448 861.837 629.816C861.989 629.161 862.008 628.541 861.892 627.957C861.815 627.363 861.597 626.816 861.238 626.318C860.917 625.81 860.43 625.366 859.775 624.988C859.096 624.596 858.425 624.387 857.762 624.36C857.112 624.308 856.487 624.383 855.885 624.586C855.308 624.802 854.768 625.121 854.266 625.542C853.764 625.964 853.316 626.432 852.921 626.948L861.105 631.673ZM869.104 620.675L866.281 621.616L864.381 616.59L859.115 617.479L858.483 614.543L866.733 612.517L869.104 620.675ZM874.225 629.888C875.214 630.136 876.45 630.542 877.934 631.108C879.418 631.674 880.985 632.433 882.633 633.385C884.185 634.281 885.357 635.248 886.147 636.286C886.952 637.3 887.434 638.371 887.592 639.497C887.788 640.612 887.693 641.786 887.305 643.017C886.956 644.238 886.41 645.491 885.668 646.776L879.494 657.47L875.093 654.929L880.868 644.926C881.456 643.908 881.88 643.005 882.141 642.218C882.44 641.42 882.557 640.712 882.494 640.094C882.469 639.465 882.246 638.9 881.824 638.398C881.441 637.885 880.874 637.412 880.122 636.978C879.564 636.656 878.961 636.357 878.313 636.079C877.665 635.802 877.181 635.604 876.862 635.484L868 650.834L863.599 648.293L874.225 629.888ZM889.302 650.475C890.114 649.068 891.088 647.885 892.225 646.924C893.375 645.94 894.61 645.23 895.928 644.794C897.27 644.373 898.671 644.244 900.129 644.407C901.587 644.57 903.043 645.071 904.498 645.911C906.292 646.947 907.801 648.254 909.023 649.833L905.998 652.888C905.615 652.376 905.138 651.858 904.567 651.334C904.021 650.825 903.384 650.36 902.657 649.94C900.935 648.946 899.311 648.736 897.783 649.309C896.27 649.858 894.947 651.114 893.813 653.079C892.721 654.97 892.277 656.718 892.482 658.324C892.7 659.905 893.816 661.277 895.829 662.439C896.58 662.873 897.362 663.227 898.173 663.501C898.985 663.776 899.72 663.958 900.38 664.048L898.898 668.042C898.273 668.005 897.408 667.796 896.301 667.416C895.219 667.05 894.157 666.566 893.114 665.964C891.49 665.026 890.211 663.964 889.279 662.779C888.385 661.584 887.789 660.319 887.493 658.984C887.235 657.639 887.262 656.248 887.574 654.812C887.9 653.351 888.476 651.905 889.302 650.475ZM906.47 673.044L902.069 670.503L913.052 651.48L917.453 654.021L906.47 673.044ZM921.139 648.729C920.663 649.553 920.018 650.054 919.205 650.231C918.391 650.408 917.621 650.287 916.893 649.867C916.142 649.433 915.639 648.819 915.385 648.026C915.132 647.233 915.243 646.424 915.719 645.6C916.209 644.751 916.861 644.238 917.674 644.062C918.488 643.885 919.271 644.013 920.022 644.447C920.75 644.867 921.24 645.474 921.494 646.267C921.747 647.059 921.629 647.88 921.139 648.729ZM920.562 677.058C921.92 677.842 922.993 678.364 923.78 678.625L926.594 673.751C926.394 673.538 926.084 673.262 925.665 672.924C925.247 672.585 924.758 672.255 924.201 671.933C923.716 671.653 923.198 671.402 922.646 671.181C922.119 670.973 921.594 670.848 921.07 670.804C920.57 670.774 920.093 670.871 919.641 671.094C919.202 671.294 918.829 671.66 918.521 672.194C917.919 673.237 917.827 674.153 918.243 674.943C918.674 675.709 919.447 676.414 920.562 677.058ZM929.67 660.444C931.125 661.284 932.244 662.173 933.028 663.111C933.813 664.048 934.307 665.013 934.511 666.003C934.739 667.008 934.701 668.053 934.398 669.139C934.132 670.214 933.678 671.31 933.034 672.425L926.377 683.955C925.614 683.709 924.485 683.284 922.991 682.68C921.507 682.114 919.904 681.334 918.183 680.34C917.043 679.682 916.063 678.971 915.244 678.207C914.424 677.442 913.815 676.622 913.416 675.745C913.041 674.882 912.884 673.95 912.944 672.95C913.028 671.964 913.399 670.902 914.057 669.762C914.687 668.671 915.425 667.868 916.271 667.355C917.142 666.855 918.074 666.585 919.067 666.544C920.075 666.479 921.107 666.623 922.165 666.975C923.261 667.316 924.33 667.788 925.373 668.39C925.858 668.67 926.346 669.001 926.838 669.381C927.343 669.738 927.857 670.164 928.379 670.659L928.799 669.932C929.093 669.423 929.313 668.903 929.457 668.372C929.602 667.841 929.615 667.315 929.496 666.794C929.415 666.262 929.176 665.752 928.778 665.264C928.405 664.79 927.843 664.336 927.091 663.902C926.073 663.314 925.097 662.848 924.165 662.503C923.232 662.159 922.443 661.929 921.797 661.815L923.31 657.936C923.979 658.064 924.904 658.339 926.083 658.761C927.262 659.183 928.457 659.744 929.67 660.444ZM948.482 693.177C949.84 693.961 950.912 694.484 951.699 694.744L954.513 689.87C954.313 689.657 954.003 689.382 953.585 689.043C953.166 688.704 952.678 688.374 952.12 688.052C951.635 687.772 951.117 687.521 950.566 687.3C950.039 687.093 949.513 686.967 948.989 686.923C948.489 686.893 948.013 686.99 947.56 687.214C947.122 687.413 946.748 687.78 946.44 688.313C945.838 689.356 945.746 690.272 946.162 691.062C946.593 691.828 947.366 692.533 948.482 693.177ZM957.589 676.563C959.044 677.403 960.163 678.292 960.948 679.23C961.732 680.167 962.226 681.132 962.43 682.122C962.658 683.127 962.62 684.172 962.317 685.258C962.052 686.333 961.597 687.429 960.953 688.544L954.296 700.075C953.533 699.828 952.404 699.403 950.91 698.799C949.426 698.233 947.824 697.453 946.102 696.459C944.962 695.801 943.983 695.09 943.163 694.326C942.343 693.562 941.734 692.741 941.335 691.864C940.96 691.001 940.803 690.07 940.863 689.07C940.947 688.084 941.318 687.021 941.976 685.881C942.606 684.79 943.344 683.987 944.191 683.474C945.061 682.974 945.993 682.704 946.986 682.663C947.994 682.598 949.026 682.742 950.084 683.094C951.18 683.435 952.249 683.907 953.292 684.509C953.777 684.789 954.265 685.12 954.757 685.5C955.262 685.857 955.776 686.283 956.298 686.778L956.718 686.051C957.012 685.542 957.232 685.022 957.376 684.491C957.521 683.96 957.534 683.434 957.415 682.913C957.334 682.381 957.095 681.871 956.697 681.383C956.324 680.909 955.762 680.455 955.01 680.021C953.992 679.433 953.016 678.967 952.084 678.622C951.151 678.278 950.362 678.049 949.716 677.935L951.229 674.055C951.899 674.183 952.823 674.458 954.002 674.88C955.181 675.302 956.376 675.863 957.589 676.563ZM978.967 694.822C978.673 694.491 978.234 694.076 977.649 693.577C977.103 693.067 976.405 692.567 975.556 692.077C975.072 691.797 974.522 691.545 973.908 691.32C973.319 691.109 972.894 690.977 972.634 690.924L963.835 706.164L959.434 703.623L969.892 685.509C970.922 685.684 972.145 686.002 973.56 686.463C975.013 686.914 976.516 687.588 978.068 688.484C978.359 688.652 978.684 688.872 979.044 689.144C979.418 689.393 979.778 689.665 980.124 689.962C980.484 690.234 980.818 690.524 981.126 690.831C981.448 691.114 981.697 691.355 981.873 691.553L978.967 694.822ZM987.767 687.924L992.588 689.738L989.27 695.484L996.035 699.39L993.914 703.064L987.149 699.158L982.676 706.906C981.794 708.433 981.406 709.664 981.513 710.599C981.62 711.534 982.256 712.337 983.419 713.009C984.22 713.471 984.972 713.792 985.676 713.973C986.405 714.167 986.993 714.296 987.44 714.361L986.152 718.273C985.517 718.197 984.724 718.03 983.773 717.772C982.809 717.539 981.769 717.1 980.654 716.456C979.296 715.672 978.261 714.832 977.549 713.936C976.862 713.055 976.448 712.12 976.306 711.133C976.179 710.122 976.286 709.069 976.628 707.973C976.984 706.852 977.526 705.662 978.254 704.401L987.767 687.924ZM993.744 723.432L989.343 720.891L1000.33 701.868L1004.73 704.409L993.744 723.432ZM1008.41 699.117C1007.94 699.941 1007.29 700.442 1006.48 700.619C1005.67 700.796 1004.89 700.674 1004.17 700.254C1003.42 699.82 1002.91 699.207 1002.66 698.414C1002.41 697.621 1002.52 696.812 1002.99 695.988C1003.48 695.139 1004.14 694.626 1004.95 694.449C1005.76 694.272 1006.54 694.401 1007.3 694.835C1008.02 695.255 1008.51 695.861 1008.77 696.654C1009.02 697.447 1008.9 698.268 1008.41 699.117ZM1018.45 737.699L1014.05 735.158L1025.04 716.135L1029.44 718.676L1018.45 737.699ZM1033.16 713.404C1032.68 714.229 1032.04 714.73 1031.23 714.907C1030.41 715.084 1029.64 714.962 1028.91 714.542C1028.16 714.108 1027.66 713.495 1027.41 712.702C1027.15 711.909 1027.26 711.1 1027.74 710.275C1028.23 709.427 1028.88 708.914 1029.7 708.737C1030.51 708.56 1031.29 708.688 1032.04 709.122C1032.77 709.542 1033.26 710.149 1033.51 710.942C1033.77 711.735 1033.65 712.556 1033.16 713.404ZM1023.48 702.963C1024.4 703.495 1025.13 704.016 1025.68 704.525C1026.25 705.049 1026.67 705.488 1026.95 705.844L1024.2 709.009C1023.93 708.692 1023.58 708.345 1023.16 707.968C1022.75 707.605 1022.27 707.263 1021.71 706.941C1020.26 706.101 1019.03 705.908 1018.02 706.361C1017.04 706.829 1016.19 707.682 1015.48 708.918L1014.74 710.192L1021.73 714.224L1019.61 717.897L1012.62 713.865L1003.76 729.215L999.359 726.674L1011.12 706.305C1012.55 703.831 1014.3 702.275 1016.39 701.634C1018.47 700.994 1020.83 701.437 1023.48 702.963ZM1028.51 730.845C1029.32 729.438 1030.29 728.255 1031.43 727.294C1032.58 726.31 1033.81 725.6 1035.13 725.165C1036.48 724.743 1037.88 724.614 1039.33 724.777C1040.79 724.94 1042.25 725.441 1043.7 726.281C1045.5 727.317 1047.01 728.624 1048.23 730.203L1045.2 733.258C1044.82 732.746 1044.34 732.228 1043.77 731.705C1043.23 731.195 1042.59 730.73 1041.86 730.31C1040.14 729.316 1038.52 729.106 1036.99 729.679C1035.48 730.228 1034.15 731.485 1033.02 733.449C1031.93 735.34 1031.48 737.089 1031.69 738.694C1031.91 740.275 1033.02 741.647 1035.03 742.809C1035.79 743.243 1036.57 743.597 1037.38 743.871C1038.19 744.146 1038.93 744.328 1039.58 744.418L1038.1 748.412C1037.48 748.375 1036.61 748.166 1035.51 747.786C1034.42 747.42 1033.36 746.936 1032.32 746.334C1030.69 745.396 1029.42 744.334 1028.48 743.149C1027.59 741.954 1026.99 740.689 1026.7 739.354C1026.44 738.009 1026.47 736.618 1026.78 735.182C1027.11 733.721 1027.68 732.275 1028.51 730.845ZM1045.68 753.414L1041.27 750.873L1052.26 731.85L1056.66 734.391L1045.68 753.414ZM1060.34 729.099C1059.87 729.924 1059.22 730.424 1058.41 730.601C1057.6 730.778 1056.83 730.657 1056.1 730.237C1055.35 729.803 1054.84 729.189 1054.59 728.396C1054.34 727.603 1054.45 726.795 1054.92 725.97C1055.41 725.121 1056.07 724.609 1056.88 724.432C1057.69 724.255 1058.48 724.383 1059.23 724.817C1059.95 725.237 1060.45 725.844 1060.7 726.637C1060.95 727.43 1060.83 728.25 1060.34 729.099ZM1059.77 757.428C1061.13 758.212 1062.2 758.735 1062.99 758.995L1065.8 754.121C1065.6 753.908 1065.29 753.633 1064.87 753.294C1064.45 752.955 1063.96 752.625 1063.41 752.303C1062.92 752.023 1062.4 751.772 1061.85 751.551C1061.32 751.344 1060.8 751.218 1060.27 751.174C1059.77 751.144 1059.3 751.241 1058.85 751.465C1058.41 751.664 1058.03 752.031 1057.73 752.564C1057.12 753.607 1057.03 754.523 1057.45 755.313C1057.88 756.079 1058.65 756.784 1059.77 757.428ZM1068.87 740.814C1070.33 741.654 1071.45 742.543 1072.23 743.481C1073.02 744.418 1073.51 745.383 1073.72 746.373C1073.94 747.378 1073.91 748.423 1073.6 749.509C1073.34 750.584 1072.88 751.68 1072.24 752.795L1065.58 764.326C1064.82 764.079 1063.69 763.654 1062.2 763.05C1060.71 762.484 1059.11 761.704 1057.39 760.71C1056.25 760.052 1055.27 759.341 1054.45 758.577C1053.63 757.813 1053.02 756.992 1052.62 756.115C1052.25 755.252 1052.09 754.321 1052.15 753.321C1052.23 752.335 1052.6 751.272 1053.26 750.132C1053.89 749.041 1054.63 748.238 1055.48 747.725C1056.35 747.225 1057.28 746.955 1058.27 746.914C1059.28 746.849 1060.31 746.993 1061.37 747.345C1062.47 747.686 1063.54 748.158 1064.58 748.76C1065.06 749.04 1065.55 749.371 1066.04 749.751C1066.55 750.108 1067.06 750.534 1067.58 751.029L1068 750.302C1068.3 749.793 1068.52 749.273 1068.66 748.742C1068.81 748.211 1068.82 747.685 1068.7 747.164C1068.62 746.632 1068.38 746.122 1067.98 745.634C1067.61 745.16 1067.05 744.706 1066.3 744.272C1065.28 743.684 1064.3 743.218 1063.37 742.873C1062.44 742.529 1061.65 742.3 1061 742.186L1062.51 738.306C1063.18 738.434 1064.11 738.709 1065.29 739.131C1066.47 739.553 1067.66 740.114 1068.87 740.814ZM1077.13 772.06C1075.83 771.279 1074.83 770.504 1074.11 769.733C1073.41 768.976 1072.95 768.208 1072.72 767.43C1072.51 766.626 1072.5 765.798 1072.7 764.944C1072.94 764.081 1073.33 763.176 1073.88 762.23L1086.52 740.334L1091.34 742.147L1078.77 763.935C1078.46 764.468 1078.23 764.938 1078.1 765.344C1077.98 765.763 1077.96 766.17 1078.02 766.562C1078.1 766.931 1078.28 767.293 1078.56 767.648C1078.88 767.993 1079.31 768.37 1079.85 768.779L1077.13 772.06ZM724.436 589.764L729.019 592.41L714.466 617.616L709.883 614.97L724.436 589.764ZM737.235 630.762C737.47 629.572 737.685 628.387 737.882 627.207C738.078 626.027 738.3 624.83 738.549 623.615L727.928 617.483C727 618.306 726.068 619.109 725.13 619.893C724.231 620.667 723.331 621.441 722.432 622.215L717.667 619.464C720.166 617.319 722.499 615.351 724.663 613.562C726.828 611.772 728.899 610.09 730.875 608.515C732.875 606.954 734.808 605.484 736.672 604.103C738.536 602.722 740.41 601.379 742.295 600.075L746.624 602.574C746.436 604.858 746.211 607.153 745.947 609.458C745.683 611.763 745.363 614.164 744.988 616.663C744.636 619.176 744.227 621.817 743.759 624.587C743.316 627.37 742.791 630.381 742.182 633.618L737.235 630.762ZM741.554 606.146C740.255 607.109 738.709 608.302 736.918 609.725C735.15 611.162 733.256 612.735 731.234 614.445L739.527 619.233C739.997 616.627 740.407 614.181 740.758 611.893C741.108 609.606 741.374 607.69 741.554 606.146Z" fill="white"/>
<path d="M641.038 403.806C639.414 403.806 637.902 403.554 636.502 403.05C635.074 402.546 633.842 401.832 632.806 400.908C631.77 399.956 630.958 398.808 630.37 397.464C629.782 396.12 629.488 394.608 629.488 392.928C629.488 390.856 629.866 388.896 630.622 387.048L634.78 388.14C634.528 388.728 634.318 389.4 634.15 390.156C633.982 390.884 633.898 391.668 633.898 392.508C633.898 394.496 634.528 396.008 635.788 397.044C637.02 398.08 638.77 398.598 641.038 398.598C643.222 398.598 644.958 398.108 646.246 397.128C647.506 396.148 648.136 394.496 648.136 392.172C648.136 391.304 648.052 390.45 647.884 389.61C647.716 388.77 647.506 388.042 647.254 387.426L651.454 386.712C651.734 387.272 651.986 388.126 652.21 389.274C652.434 390.394 652.546 391.556 652.546 392.76C652.546 394.636 652.266 396.274 651.706 397.674C651.118 399.046 650.32 400.194 649.312 401.118C648.276 402.014 647.058 402.686 645.658 403.134C644.23 403.582 642.69 403.806 641.038 403.806ZM640.996 363.363C642.732 363.363 644.314 363.615 645.742 364.119C647.17 364.623 648.388 365.337 649.396 366.261C650.404 367.185 651.188 368.305 651.748 369.621C652.308 370.909 652.588 372.337 652.588 373.905C652.588 375.473 652.308 376.901 651.748 378.189C651.188 379.477 650.404 380.583 649.396 381.507C648.388 382.431 647.17 383.159 645.742 383.691C644.314 384.195 642.732 384.447 640.996 384.447C639.26 384.447 637.692 384.195 636.292 383.691C634.864 383.159 633.646 382.431 632.638 381.507C631.63 380.555 630.86 379.435 630.328 378.147C629.768 376.859 629.488 375.445 629.488 373.905C629.488 372.365 629.768 370.951 630.328 369.663C630.86 368.347 631.63 367.227 632.638 366.303C633.646 365.379 634.864 364.665 636.292 364.161C637.692 363.629 639.26 363.363 640.996 363.363ZM640.996 368.571C638.812 368.571 637.09 369.047 635.83 369.999C634.542 370.923 633.898 372.225 633.898 373.905C633.898 375.585 634.542 376.901 635.83 377.853C637.09 378.777 638.812 379.239 640.996 379.239C643.208 379.239 644.958 378.777 646.246 377.853C647.534 376.901 648.178 375.585 648.178 373.905C648.178 372.225 647.534 370.923 646.246 369.999C644.958 369.047 643.208 368.571 640.996 368.571ZM640.45 345.611C638.154 345.611 636.502 345.905 635.494 346.493C634.458 347.053 633.94 348.117 633.94 349.685C633.94 350.245 633.982 350.861 634.066 351.533C634.15 352.205 634.22 352.709 634.276 353.045L652 353.045L652 358.127L630.748 358.127C630.468 357.147 630.202 355.873 629.95 354.305C629.698 352.709 629.572 351.029 629.572 349.265C629.572 347.753 629.768 346.521 630.16 345.569C630.552 344.589 631.07 343.777 631.714 343.133C631.49 342.825 631.252 342.433 631 341.957C630.748 341.481 630.524 340.949 630.328 340.361C630.104 339.773 629.922 339.157 629.782 338.513C629.642 337.841 629.572 337.169 629.572 336.497C629.572 334.789 629.824 333.389 630.328 332.297C630.804 331.177 631.49 330.309 632.386 329.693C633.254 329.049 634.318 328.615 635.578 328.391C636.81 328.139 638.168 328.013 639.652 328.013L652 328.013L652 333.095L640.45 333.095C638.154 333.095 636.502 333.375 635.494 333.935C634.458 334.495 633.94 335.573 633.94 337.169C633.94 337.981 634.08 338.751 634.36 339.479C634.612 340.207 634.864 340.753 635.116 341.117C635.816 340.893 636.558 340.739 637.342 340.655C638.126 340.571 638.966 340.529 639.862 340.529L652 340.529L652 345.611L640.45 345.611ZM641.122 307.213C638.854 307.213 637.09 307.731 635.83 308.767C634.57 309.775 633.94 311.413 633.94 313.681C633.94 314.157 633.968 314.661 634.024 315.193C634.052 315.697 634.136 316.201 634.276 316.705L646.834 316.705C647.142 316.257 647.436 315.669 647.716 314.941C647.968 314.185 648.094 313.387 648.094 312.547C648.094 310.699 647.464 309.355 646.204 308.515C644.944 307.647 643.25 307.213 641.122 307.213ZM641.038 302.005C642.718 302.005 644.258 302.229 645.658 302.677C647.058 303.097 648.262 303.713 649.27 304.525C650.278 305.337 651.062 306.359 651.622 307.591C652.182 308.795 652.462 310.167 652.462 311.707C652.462 312.743 652.336 313.695 652.084 314.563C651.832 315.431 651.552 316.145 651.244 316.705L659.77 316.705L659.77 321.787L630.748 321.787C630.468 320.751 630.202 319.477 629.95 317.965C629.698 316.453 629.572 314.857 629.572 313.177C629.572 311.441 629.838 309.887 630.37 308.515C630.902 307.143 631.672 305.981 632.68 305.029C633.66 304.049 634.864 303.307 636.292 302.803C637.692 302.271 639.274 302.005 641.038 302.005ZM651.328 278.75C651.58 279.73 651.832 281.004 652.084 282.572C652.364 284.14 652.504 285.862 652.504 287.738C652.504 289.502 652.252 290.986 651.748 292.19C651.244 293.366 650.544 294.318 649.648 295.046C648.752 295.746 647.688 296.25 646.456 296.558C645.196 296.866 643.824 297.02 642.34 297.02L630.034 297.02L630.034 291.938L641.542 291.938C643.894 291.938 645.574 291.602 646.582 290.93C647.59 290.23 648.094 289.026 648.094 287.318C648.094 286.702 648.066 286.058 648.01 285.386C647.954 284.686 647.884 284.168 647.8 283.832L630.034 283.832L630.034 278.75L651.328 278.75ZM624.238 272.534L623.398 267.452L630.034 267.452L630.034 259.64L634.276 259.64L634.276 267.452L643.222 267.452C644.986 267.452 646.246 267.172 647.002 266.612C647.758 266.052 648.136 265.1 648.136 263.756C648.136 262.832 648.038 262.02 647.842 261.32C647.646 260.592 647.464 260.018 647.296 259.598L651.328 258.758C651.58 259.346 651.832 260.116 652.084 261.068C652.364 262.02 652.504 263.14 652.504 264.428C652.504 265.996 652.294 267.312 651.874 268.376C651.454 269.412 650.852 270.238 650.068 270.854C649.256 271.47 648.29 271.904 647.17 272.156C646.022 272.408 644.72 272.534 643.264 272.534L624.238 272.534ZM648.43 246.999C648.43 245.431 648.346 244.241 648.178 243.429L642.55 243.429C642.466 243.709 642.382 244.115 642.298 244.647C642.214 245.179 642.172 245.767 642.172 246.411C642.172 246.971 642.214 247.545 642.298 248.133C642.382 248.693 642.536 249.211 642.76 249.687C642.984 250.135 643.306 250.499 643.726 250.779C644.118 251.059 644.622 251.199 645.238 251.199C646.442 251.199 647.282 250.821 647.758 250.065C648.206 249.309 648.43 248.287 648.43 246.999ZM629.488 247.419C629.488 245.739 629.698 244.325 630.118 243.177C630.538 242.029 631.126 241.119 631.882 240.447C632.638 239.747 633.562 239.257 634.654 238.977C635.718 238.669 636.894 238.515 638.182 238.515L651.496 238.515C651.664 239.299 651.86 240.489 652.084 242.085C652.336 243.653 652.462 245.431 652.462 247.419C652.462 248.735 652.336 249.939 652.084 251.031C651.832 252.123 651.426 253.061 650.866 253.845C650.306 254.601 649.578 255.203 648.682 255.651C647.786 256.071 646.68 256.281 645.364 256.281C644.104 256.281 643.04 256.043 642.172 255.567C641.304 255.063 640.604 254.391 640.072 253.551C639.512 252.711 639.12 251.745 638.896 250.653C638.644 249.533 638.518 248.371 638.518 247.167C638.518 246.607 638.56 246.019 638.644 245.403C638.7 244.787 638.812 244.129 638.98 243.429L638.14 243.429C637.552 243.429 636.992 243.499 636.46 243.639C635.928 243.779 635.466 244.031 635.074 244.395C634.654 244.731 634.332 245.193 634.108 245.781C633.884 246.341 633.772 247.055 633.772 247.923C633.772 249.099 633.856 250.177 634.024 251.157C634.192 252.137 634.388 252.935 634.612 253.551L630.496 254.181C630.272 253.537 630.048 252.599 629.824 251.367C629.6 250.135 629.488 248.819 629.488 247.419ZM653.638 222.211C654.058 221.315 654.534 220.699 655.066 220.363C655.598 219.999 656.256 219.817 657.04 219.817C658.02 219.817 658.86 220.237 659.56 221.077C660.26 221.917 660.61 223.177 660.61 224.857C660.61 226.201 660.428 227.391 660.064 228.427L657.04 227.839C657.124 227.559 657.222 227.195 657.334 226.747C657.446 226.299 657.502 225.837 657.502 225.361C657.502 224.885 657.418 224.521 657.25 224.269C657.082 223.989 656.83 223.849 656.494 223.849C656.046 223.849 655.71 224.045 655.486 224.437C655.29 224.829 655.122 225.221 654.982 225.613L654.856 226.033C654.492 225.921 654.072 225.767 653.596 225.571C653.148 225.375 652.728 225.179 652.336 224.983C652.084 226.439 651.636 227.699 650.992 228.763C650.348 229.827 649.536 230.709 648.556 231.409C647.548 232.109 646.414 232.641 645.154 233.005C643.894 233.341 642.522 233.509 641.038 233.509C639.414 233.509 637.902 233.257 636.502 232.753C635.074 232.249 633.842 231.535 632.806 230.611C631.77 229.659 630.958 228.511 630.37 227.167C629.782 225.823 629.488 224.311 629.488 222.631C629.488 220.559 629.866 218.599 630.622 216.751L634.78 217.843C634.528 218.431 634.318 219.103 634.15 219.859C633.982 220.587 633.898 221.371 633.898 222.211C633.898 224.199 634.528 225.711 635.788 226.747C637.02 227.783 638.77 228.301 641.038 228.301C643.222 228.301 644.958 227.811 646.246 226.831C647.506 225.851 648.136 224.199 648.136 221.875C648.136 221.007 648.052 220.153 647.884 219.313C647.716 218.473 647.506 217.745 647.254 217.129L651.454 216.415C651.706 216.919 651.93 217.661 652.126 218.641C652.322 219.621 652.448 220.643 652.504 221.707C652.728 221.819 652.938 221.917 653.134 222.001C653.33 222.085 653.498 222.155 653.638 222.211ZM648.43 204.753C648.43 203.185 648.346 201.995 648.178 201.183L642.55 201.183C642.466 201.463 642.382 201.869 642.298 202.401C642.214 202.933 642.172 203.521 642.172 204.165C642.172 204.725 642.214 205.299 642.298 205.887C642.382 206.447 642.536 206.965 642.76 207.441C642.984 207.889 643.306 208.253 643.726 208.533C644.118 208.813 644.622 208.953 645.238 208.953C646.442 208.953 647.282 208.575 647.758 207.819C648.206 207.063 648.43 206.041 648.43 204.753ZM629.488 205.173C629.488 203.493 629.698 202.079 630.118 200.931C630.538 199.783 631.126 198.873 631.882 198.201C632.638 197.501 633.562 197.011 634.654 196.731C635.718 196.423 636.894 196.269 638.182 196.269L651.496 196.269C651.664 197.053 651.86 198.243 652.084 199.839C652.336 201.407 652.462 203.185 652.462 205.173C652.462 206.489 652.336 207.693 652.084 208.785C651.832 209.877 651.426 210.815 650.866 211.599C650.306 212.355 649.578 212.957 648.682 213.405C647.786 213.825 646.68 214.035 645.364 214.035C644.104 214.035 643.04 213.797 642.172 213.321C641.304 212.817 640.604 212.145 640.072 211.305C639.512 210.465 639.12 209.499 638.896 208.407C638.644 207.287 638.518 206.125 638.518 204.921C638.518 204.361 638.56 203.773 638.644 203.157C638.7 202.541 638.812 201.883 638.98 201.183L638.14 201.183C637.552 201.183 636.992 201.253 636.46 201.393C635.928 201.533 635.466 201.785 635.074 202.149C634.654 202.485 634.332 202.947 634.108 203.535C633.884 204.095 633.772 204.809 633.772 205.677C633.772 206.853 633.856 207.931 634.024 208.911C634.192 209.891 634.388 210.689 634.612 211.305L630.496 211.935C630.272 211.291 630.048 210.353 629.824 209.121C629.6 207.889 629.488 206.573 629.488 205.173ZM622.18 197.067C622.572 197.235 623.006 197.459 623.482 197.739C623.93 197.991 624.364 198.313 624.784 198.705C625.176 199.097 625.512 199.545 625.792 200.049C626.072 200.553 626.212 201.113 626.212 201.729C626.212 202.233 626.142 202.709 626.002 203.157C625.834 203.605 625.652 204.053 625.456 204.501C625.26 204.921 625.092 205.341 624.952 205.761C624.784 206.153 624.7 206.545 624.7 206.937C624.7 207.469 624.882 207.931 625.246 208.323C625.61 208.687 626.03 208.981 626.506 209.205L624.994 211.767C624.602 211.627 624.182 211.431 623.734 211.179C623.258 210.899 622.824 210.563 622.432 210.171C622.012 209.751 621.662 209.289 621.382 208.785C621.102 208.281 620.962 207.721 620.962 207.105C620.962 206.601 621.046 206.125 621.214 205.677C621.382 205.229 621.564 204.795 621.76 204.375C621.928 203.927 622.096 203.507 622.264 203.115C622.432 202.695 622.516 202.289 622.516 201.897C622.516 201.365 622.334 200.917 621.97 200.553C621.578 200.161 621.144 199.853 620.668 199.629L622.18 197.067ZM640.996 170.179C642.732 170.179 644.314 170.431 645.742 170.935C647.17 171.439 648.388 172.153 649.396 173.077C650.404 174.001 651.188 175.121 651.748 176.437C652.308 177.725 652.588 179.153 652.588 180.721C652.588 182.289 652.308 183.717 651.748 185.005C651.188 186.293 650.404 187.399 649.396 188.323C648.388 189.247 647.17 189.975 645.742 190.507C644.314 191.011 642.732 191.263 640.996 191.263C639.26 191.263 637.692 191.011 636.292 190.507C634.864 189.975 633.646 189.247 632.638 188.323C631.63 187.371 630.86 186.251 630.328 184.963C629.768 183.675 629.488 182.261 629.488 180.721C629.488 179.181 629.768 177.767 630.328 176.479C630.86 175.163 631.63 174.043 632.638 173.119C633.646 172.195 634.864 171.481 636.292 170.977C637.692 170.445 639.26 170.179 640.996 170.179ZM640.996 175.387C638.812 175.387 637.09 175.863 635.83 176.815C634.542 177.739 633.898 179.041 633.898 180.721C633.898 182.401 634.542 183.717 635.83 184.669C637.09 185.593 638.812 186.055 640.996 186.055C643.208 186.055 644.958 185.593 646.246 184.669C647.534 183.717 648.178 182.401 648.178 180.721C648.178 179.041 647.534 177.739 646.246 176.815C644.958 175.863 643.208 175.387 640.996 175.387Z" fill="white"/>
<path d="M731.59 475.118C730.778 473.711 730.24 472.276 729.977 470.811C729.699 469.323 729.702 467.899 729.984 466.54C730.29 465.166 730.879 463.889 731.748 462.708C732.618 461.527 733.781 460.516 735.236 459.676C737.03 458.64 738.917 457.987 740.895 457.718L742.028 461.865C741.393 461.941 740.706 462.095 739.967 462.328C739.253 462.546 738.532 462.865 737.804 463.285C736.083 464.279 735.088 465.581 734.821 467.19C734.54 468.775 734.966 470.55 736.1 472.514C737.192 474.405 738.485 475.664 739.977 476.289C741.456 476.89 743.202 476.61 745.214 475.448C745.966 475.014 746.664 474.514 747.307 473.949C747.951 473.383 748.476 472.837 748.884 472.311L751.602 475.591C751.257 476.114 750.643 476.759 749.761 477.527C748.903 478.281 747.953 478.959 746.91 479.561C745.286 480.499 743.727 481.075 742.235 481.29C740.752 481.467 739.359 481.35 738.055 480.939C736.761 480.49 735.57 479.771 734.482 478.783C733.38 477.77 732.416 476.548 731.59 475.118ZM759.72 471.535L755.319 474.076L744.336 455.053L748.737 452.512L759.72 471.535ZM745.997 446.674C746.473 447.498 746.584 448.307 746.331 449.1C746.077 449.893 745.587 450.499 744.859 450.919C744.107 451.353 743.325 451.482 742.511 451.305C741.698 451.128 741.053 450.627 740.577 449.803C740.087 448.954 739.969 448.133 740.222 447.34C740.476 446.547 740.978 445.934 741.73 445.5C742.458 445.08 743.228 444.958 744.042 445.135C744.855 445.312 745.507 445.825 745.997 446.674ZM758.841 459.481C757.875 457.808 757.27 456.201 757.027 454.66C756.809 453.105 756.873 451.678 757.222 450.377C757.556 449.053 758.138 447.876 758.967 446.848C759.782 445.795 760.747 444.947 761.863 444.303C764.481 442.791 766.987 442.427 769.38 443.212C771.797 443.983 773.937 445.981 775.799 449.206C775.939 449.448 776.088 449.734 776.246 450.063C776.414 450.354 776.555 450.628 776.671 450.885L764.123 458.13C765.126 459.587 766.345 460.467 767.781 460.77C769.227 461.035 770.859 460.642 772.678 459.592C773.745 458.976 774.659 458.319 775.42 457.621C776.205 456.909 776.789 456.297 777.172 455.784L779.833 459.049C779.661 459.311 779.398 459.64 779.046 460.037C778.704 460.397 778.282 460.786 777.78 461.205C777.316 461.634 776.79 462.067 776.202 462.504C775.614 462.941 774.992 463.348 774.337 463.726C772.664 464.692 771.069 465.289 769.552 465.518C768.022 465.723 766.604 465.62 765.3 465.209C763.982 464.774 762.786 464.074 761.712 463.11C760.624 462.122 759.667 460.912 758.841 459.481ZM770.474 450.146C770.124 449.54 769.71 449.019 769.232 448.584C768.74 448.124 768.213 447.798 767.649 447.606C767.096 447.376 766.514 447.292 765.903 447.354C765.302 447.377 764.675 447.578 764.02 447.956C763.341 448.348 762.824 448.824 762.469 449.385C762.099 449.921 761.852 450.501 761.726 451.123C761.625 451.731 761.631 452.358 761.745 453.004C761.859 453.649 762.041 454.272 762.29 454.871L770.474 450.146ZM764.949 437.72L764.352 440.635L759.05 439.768L757.186 444.772L754.328 443.852L756.698 435.694L764.949 437.72ZM775.488 437.891C776.197 437.159 777.167 436.291 778.399 435.289C779.631 434.287 781.072 433.31 782.72 432.358C784.272 431.462 785.696 430.931 786.99 430.766C788.271 430.576 789.439 430.694 790.493 431.12C791.557 431.507 792.526 432.177 793.398 433.128C794.281 434.041 795.093 435.14 795.835 436.425L802.009 447.119L797.608 449.66L791.833 439.657C791.245 438.639 790.675 437.82 790.124 437.201C789.583 436.543 789.028 436.087 788.461 435.833C787.904 435.54 787.303 435.451 786.657 435.565C786.022 435.641 785.329 435.896 784.577 436.33C784.019 436.652 783.458 437.024 782.894 437.447C782.33 437.869 781.916 438.189 781.653 438.406L790.515 453.755L786.114 456.296L775.488 437.891ZM800.855 435.127C800.043 433.721 799.505 432.286 799.242 430.821C798.964 429.332 798.967 427.909 799.249 426.549C799.555 425.176 800.144 423.899 801.014 422.718C801.884 421.536 803.046 420.526 804.501 419.686C806.295 418.65 808.182 417.997 810.16 417.728L811.293 421.875C810.658 421.951 809.971 422.105 809.232 422.337C808.518 422.556 807.797 422.875 807.07 423.295C805.348 424.289 804.353 425.591 804.086 427.2C803.805 428.785 804.231 430.559 805.365 432.523C806.457 434.415 807.75 435.673 809.243 436.299C810.721 436.9 812.467 436.62 814.48 435.458C815.231 435.024 815.929 434.524 816.572 433.958C817.216 433.393 817.741 432.847 818.149 432.321L820.867 435.601C820.522 436.123 819.909 436.769 819.026 437.537C818.168 438.291 817.218 438.969 816.175 439.571C814.551 440.509 812.992 441.085 811.5 441.3C810.018 441.477 808.624 441.36 807.32 440.949C806.026 440.5 804.835 439.781 803.747 438.792C802.645 437.78 801.681 436.558 800.855 435.127ZM828.985 431.545L824.584 434.086L813.601 415.062L818.002 412.521L828.985 431.545ZM815.262 406.683C815.738 407.508 815.849 408.317 815.596 409.11C815.342 409.902 814.852 410.509 814.124 410.929C813.373 411.363 812.59 411.491 811.776 411.315C810.963 411.138 810.318 410.637 809.842 409.812C809.352 408.964 809.234 408.143 809.487 407.35C809.741 406.557 810.244 405.943 810.995 405.509C811.723 405.089 812.493 404.968 813.307 405.145C814.12 405.322 814.772 405.835 815.262 406.683ZM839.507 421.347C840.865 420.563 841.854 419.895 842.473 419.344L839.659 414.47C839.375 414.537 838.981 414.667 838.478 414.861C837.976 415.054 837.445 415.312 836.888 415.634C836.403 415.914 835.927 416.237 835.459 416.604C835.016 416.956 834.645 417.349 834.345 417.781C834.069 418.199 833.914 418.66 833.882 419.163C833.835 419.643 833.966 420.149 834.274 420.683C834.876 421.725 835.624 422.264 836.516 422.298C837.395 422.308 838.392 421.991 839.507 421.347ZM829.673 405.153C831.128 404.313 832.457 403.788 833.661 403.577C834.866 403.367 835.948 403.421 836.908 403.74C837.892 404.045 838.778 404.6 839.567 405.406C840.365 406.173 841.087 407.115 841.731 408.23L848.388 419.76C847.793 420.298 846.86 421.063 845.59 422.055C844.358 423.057 842.881 424.055 841.16 425.049C840.02 425.707 838.914 426.2 837.843 426.528C836.771 426.855 835.756 426.973 834.797 426.88C833.862 426.773 832.977 426.443 832.141 425.891C831.329 425.325 830.594 424.473 829.936 423.333C829.306 422.242 828.98 421.201 828.958 420.212C828.961 419.208 829.193 418.266 829.654 417.385C830.102 416.48 830.742 415.657 831.576 414.917C832.42 414.139 833.363 413.449 834.406 412.847C834.891 412.567 835.421 412.309 835.997 412.074C836.558 411.815 837.184 411.583 837.874 411.378L837.454 410.651C837.16 410.142 836.82 409.692 836.432 409.301C836.045 408.91 835.596 408.636 835.085 408.478C834.584 408.283 834.022 408.235 833.401 408.335C832.804 408.421 832.13 408.681 831.378 409.115C830.36 409.703 829.468 410.315 828.704 410.95C827.939 411.586 827.346 412.154 826.924 412.656L824.321 409.407C824.766 408.891 825.467 408.228 826.422 407.418C827.377 406.608 828.46 405.853 829.673 405.153ZM856.967 411.17C858.131 410.498 858.903 409.874 859.283 409.3C859.648 408.701 859.635 408.062 859.243 407.383C858.879 406.752 858.287 406.399 857.467 406.323C856.671 406.232 855.479 406.323 853.889 406.594C852.921 406.765 852.006 406.889 851.145 406.965C850.295 407.004 849.501 406.945 848.764 406.788C848.027 406.632 847.338 406.335 846.697 405.896C846.066 405.42 845.492 404.733 844.974 403.836C843.966 402.09 843.817 400.349 844.529 398.613C845.226 396.852 846.678 395.335 848.884 394.061C850 393.417 851.13 392.91 852.274 392.54C853.405 392.146 854.28 391.899 854.902 391.799L856.159 395.826C855.548 395.888 854.818 396.051 853.968 396.315C853.105 396.555 852.176 396.962 851.181 397.536C850.284 398.054 849.648 398.632 849.272 399.269C848.882 399.882 848.87 400.504 849.234 401.134C849.416 401.449 849.625 401.7 849.862 401.887C850.123 402.059 850.45 402.177 850.843 402.242C851.222 402.282 851.692 402.285 852.255 402.251C852.803 402.193 853.456 402.091 854.212 401.945C855.479 401.731 856.588 401.608 857.539 401.576C858.477 401.52 859.316 401.601 860.057 401.82C860.808 402.001 861.467 402.332 862.036 402.812C862.604 403.292 863.133 403.957 863.623 404.805C864.673 406.624 864.792 408.398 863.98 410.128C863.178 411.819 861.529 413.386 859.031 414.828C857.358 415.794 855.928 416.425 854.742 416.722C853.569 417.044 852.728 417.238 852.218 417.307L850.86 413.192C851.669 413.081 852.592 412.887 853.629 412.612C854.691 412.322 855.803 411.842 856.967 411.17ZM877.075 391.025C878.195 392.965 879.538 394.226 881.103 394.81C882.655 395.369 884.243 395.18 885.867 394.242C886.571 393.836 887.151 393.468 887.608 393.14C888.075 392.773 888.445 392.462 888.718 392.208L882.418 381.296C881.876 381.253 881.215 381.312 880.434 381.471C879.664 381.593 878.915 381.864 878.187 382.284C876.587 383.208 875.726 384.432 875.604 385.957C875.507 387.469 875.997 389.158 877.075 391.025ZM894.884 392.722C894.165 393.493 893.201 394.372 891.994 395.361C890.81 396.335 889.491 397.242 888.036 398.082C886.533 398.95 885.054 399.497 883.6 399.722C882.145 399.947 880.749 399.88 879.41 399.522C878.082 399.125 876.837 398.453 875.677 397.507C874.526 396.522 873.51 395.266 872.628 393.738C871.76 392.235 871.158 390.772 870.821 389.349C870.495 387.889 870.444 386.512 870.668 385.219C870.891 383.926 871.391 382.748 872.168 381.685C872.93 380.598 873.991 379.663 875.349 378.879C876.27 378.347 877.145 377.987 877.975 377.799C878.804 377.611 879.55 377.504 880.213 377.477L874.942 368.347L878.924 365.079L894.884 392.722ZM894.316 381.265C893.35 379.591 892.746 377.984 892.503 376.444C892.284 374.889 892.349 373.461 892.697 372.16C893.032 370.836 893.613 369.659 894.442 368.631C895.257 367.579 896.223 366.73 897.338 366.086C899.957 364.574 902.463 364.211 904.856 364.995C907.273 365.766 909.412 367.764 911.274 370.989C911.414 371.231 911.563 371.517 911.721 371.847C911.889 372.137 912.031 372.411 912.147 372.668L899.598 379.913C900.601 381.37 901.821 382.251 903.256 382.553C904.702 382.818 906.335 382.425 908.153 381.375C909.22 380.759 910.134 380.102 910.895 379.404C911.68 378.692 912.265 378.08 912.648 377.568L915.309 380.833C915.136 381.094 914.874 381.423 914.521 381.821C914.179 382.18 913.757 382.569 913.255 382.988C912.792 383.417 912.266 383.85 911.677 384.287C911.089 384.724 910.467 385.131 909.813 385.509C908.14 386.475 906.545 387.073 905.028 387.302C903.497 387.506 902.08 387.403 900.776 386.992C899.457 386.557 898.261 385.858 897.187 384.893C896.099 383.905 895.142 382.695 894.316 381.265ZM905.949 371.93C905.599 371.323 905.185 370.802 904.708 370.367C904.216 369.907 903.688 369.581 903.125 369.389C902.572 369.159 901.99 369.075 901.379 369.137C900.778 369.16 900.15 369.361 899.495 369.739C898.816 370.131 898.299 370.607 897.944 371.168C897.575 371.705 897.327 372.284 897.202 372.906C897.1 373.514 897.106 374.141 897.22 374.787C897.334 375.432 897.516 376.055 897.765 376.655L905.949 371.93ZM928.012 361.617C929.132 363.557 930.474 364.818 932.04 365.402C933.591 365.961 935.179 365.772 936.804 364.834C937.507 364.428 938.087 364.06 938.544 363.732C939.011 363.365 939.382 363.054 939.655 362.8L933.355 351.888C932.813 351.845 932.152 351.903 931.371 352.063C930.6 352.185 929.851 352.455 929.124 352.875C927.524 353.799 926.662 355.024 926.541 356.549C926.443 358.06 926.934 359.75 928.012 361.617ZM945.82 363.314C945.101 364.085 944.138 364.964 942.93 365.952C941.747 366.927 940.427 367.834 938.973 368.674C937.469 369.542 935.99 370.088 934.536 370.314C933.082 370.539 931.685 370.472 930.347 370.113C929.018 369.717 927.774 369.045 926.613 368.098C925.463 367.114 924.446 365.858 923.564 364.33C922.696 362.826 922.094 361.363 921.758 359.941C921.432 358.48 921.381 357.104 921.604 355.811C921.828 354.518 922.328 353.34 923.104 352.277C923.867 351.19 924.927 350.255 926.285 349.471C927.207 348.939 928.082 348.579 928.911 348.391C929.74 348.203 930.487 348.096 931.15 348.068L925.879 338.939L929.86 335.67L945.82 363.314ZM956.654 353.712C958.012 352.928 959.001 352.261 959.62 351.709L956.806 346.835C956.522 346.902 956.128 347.033 955.625 347.226C955.122 347.419 954.592 347.677 954.035 347.999C953.55 348.279 953.073 348.602 952.606 348.969C952.163 349.322 951.792 349.714 951.491 350.146C951.215 350.564 951.061 351.025 951.029 351.529C950.982 352.008 951.113 352.515 951.421 353.048C952.023 354.091 952.77 354.629 953.663 354.663C954.542 354.673 955.539 354.356 956.654 353.712ZM946.82 337.518C948.274 336.678 949.604 336.153 950.808 335.943C952.012 335.732 953.095 335.787 954.055 336.105C955.039 336.41 955.925 336.965 956.714 337.771C957.512 338.538 958.234 339.48 958.878 340.595L965.535 352.126C964.94 352.663 964.007 353.428 962.737 354.42C961.505 355.422 960.028 356.42 958.307 357.414C957.167 358.072 956.061 358.565 954.989 358.893C953.918 359.221 952.902 359.338 951.943 359.245C951.009 359.138 950.123 358.809 949.287 358.257C948.476 357.691 947.741 356.838 947.083 355.698C946.453 354.607 946.127 353.566 946.105 352.577C946.108 351.573 946.34 350.631 946.801 349.75C947.249 348.845 947.889 348.023 948.723 347.283C949.567 346.504 950.51 345.814 951.553 345.212C952.038 344.932 952.568 344.675 953.143 344.439C953.705 344.18 954.331 343.948 955.021 343.743L954.601 343.016C954.307 342.507 953.966 342.057 953.579 341.666C953.192 341.275 952.743 341.001 952.231 340.844C951.73 340.648 951.169 340.6 950.548 340.7C949.951 340.786 949.277 341.046 948.525 341.48C947.507 342.068 946.615 342.68 945.85 343.315C945.086 343.951 944.493 344.52 944.071 345.022L941.468 341.772C941.913 341.256 942.614 340.593 943.569 339.783C944.523 338.973 945.607 338.218 946.82 337.518ZM969.109 337.889C970.229 339.829 971.572 341.091 973.137 341.674C974.688 342.233 976.277 342.044 977.901 341.106C978.604 340.7 979.185 340.333 979.641 340.004C980.109 339.637 980.479 339.327 980.752 339.072L974.452 328.16C973.91 328.117 973.249 328.176 972.468 328.336C971.698 328.457 970.949 328.728 970.221 329.148C968.621 330.072 967.76 331.296 967.638 332.822C967.541 334.333 968.031 336.022 969.109 337.889ZM986.917 339.586C986.198 340.357 985.235 341.237 984.027 342.225C982.844 343.199 981.525 344.106 980.07 344.946C978.566 345.814 977.088 346.361 975.633 346.586C974.179 346.811 972.783 346.745 971.444 346.386C970.116 345.989 968.871 345.317 967.71 344.371C966.56 343.386 965.544 342.13 964.662 340.602C963.794 339.099 963.191 337.636 962.855 336.214C962.529 334.753 962.478 333.376 962.701 332.083C962.925 330.79 963.425 329.612 964.202 328.55C964.964 327.463 966.025 326.527 967.383 325.743C968.304 325.211 969.179 324.851 970.009 324.663C970.838 324.476 971.584 324.368 972.247 324.341L966.976 315.211L970.957 311.943L986.917 339.586ZM1004.55 317.478C1005.41 318.981 1005.99 320.477 1006.26 321.966C1006.54 323.455 1006.53 324.866 1006.24 326.201C1005.94 327.536 1005.36 328.775 1004.5 329.918C1003.67 331.047 1002.57 332.004 1001.21 332.788C999.855 333.572 998.478 334.043 997.083 334.202C995.687 334.361 994.337 334.235 993.033 333.824C991.729 333.413 990.49 332.723 989.315 331.752C988.164 330.767 987.155 329.523 986.287 328.02C985.419 326.516 984.853 325.032 984.59 323.568C984.337 322.065 984.358 320.647 984.654 319.312C984.975 317.963 985.56 316.736 986.409 315.631C987.245 314.502 988.329 313.553 989.663 312.783C990.996 312.013 992.361 311.548 993.756 311.389C995.162 311.192 996.517 311.299 997.821 311.71C999.126 312.121 1000.35 312.818 1001.5 313.803C1002.66 314.749 1003.68 315.974 1004.55 317.478ZM1000.04 320.082C998.944 318.19 997.671 316.937 996.216 316.322C994.772 315.668 993.323 315.762 991.868 316.602C990.413 317.442 989.595 318.657 989.415 320.249C989.245 321.802 989.705 323.524 990.797 325.416C991.903 327.331 993.179 328.616 994.623 329.269C996.091 329.909 997.553 329.809 999.008 328.969C1000.46 328.129 1001.27 326.92 1001.42 325.342C1001.6 323.751 1001.14 321.997 1000.04 320.082ZM1017.52 318.474C1018.68 317.802 1019.46 317.179 1019.84 316.604C1020.2 316.005 1020.19 315.366 1019.8 314.687C1019.43 314.057 1018.84 313.703 1018.02 313.627C1017.22 313.537 1016.03 313.627 1014.44 313.898C1013.47 314.069 1012.56 314.193 1011.7 314.27C1010.85 314.309 1010.05 314.25 1009.32 314.093C1008.58 313.937 1007.89 313.639 1007.25 313.201C1006.62 312.725 1006.04 312.038 1005.53 311.141C1004.52 309.395 1004.37 307.654 1005.08 305.917C1005.78 304.157 1007.23 302.64 1009.44 301.366C1010.55 300.722 1011.68 300.215 1012.83 299.845C1013.96 299.451 1014.83 299.204 1015.45 299.104L1016.71 303.131C1016.1 303.192 1015.37 303.355 1014.52 303.62C1013.66 303.86 1012.73 304.267 1011.73 304.841C1010.84 305.359 1010.2 305.936 1009.83 306.574C1009.44 307.187 1009.42 307.808 1009.79 308.439C1009.97 308.754 1010.18 309.005 1010.41 309.191C1010.68 309.364 1011 309.482 1011.4 309.546C1011.77 309.586 1012.25 309.59 1012.81 309.556C1013.36 309.498 1014.01 309.396 1014.77 309.25C1016.03 309.036 1017.14 308.913 1018.09 308.881C1019.03 308.825 1019.87 308.906 1020.61 309.125C1021.36 309.306 1022.02 309.636 1022.59 310.117C1023.16 310.597 1023.69 311.261 1024.18 312.11C1025.23 313.929 1025.34 315.703 1024.53 317.432C1023.73 319.124 1022.08 320.691 1019.58 322.133C1017.91 323.099 1016.48 323.73 1015.29 324.027C1014.12 324.348 1013.28 324.543 1012.77 324.611L1011.41 320.497C1012.22 320.385 1013.15 320.192 1014.18 319.917C1015.24 319.627 1016.36 319.146 1017.52 318.474Z" fill="white"/>
<path d="M641 448L710.282 488V568L641 608L571.718 568V488L641 448Z" fill="black"/>
</g>
<defs>
<clipPath id="clip0_399_281">
<rect width="1300" height="976" fill="white"/>
</clipPath>
</defs>
</svg>
