<svg width="1300" height="976" viewBox="0 0 1300 976" fill="none" xmlns="http://www.w3.org/2000/svg">
<path d="M108.15 395.3C108.15 399.14 108.42 402.35 108.96 404.93C109.56 407.51 110.31 409.61 111.21 411.23C112.17 412.79 113.22 413.9 114.36 414.56C115.56 415.22 116.79 415.55 118.05 415.55C119.61 415.55 121.08 415.25 122.46 414.65C123.84 414.05 125.07 413.24 126.15 412.22C127.23 411.2 128.1 409.97 128.76 408.53C129.48 407.09 129.96 405.53 130.2 403.85H131.55C131.31 405.77 130.77 407.57 129.93 409.25C129.15 410.87 128.13 412.28 126.87 413.48C125.61 414.68 124.14 415.61 122.46 416.27C120.84 416.99 119.07 417.35 117.15 417.35C114.87 417.35 112.71 416.87 110.67 415.91C108.63 414.89 106.8 413.45 105.18 411.59C103.62 409.67 102.36 407.36 101.4 404.66C100.5 401.9 100.05 398.78 100.05 395.3C100.05 391.7 100.5 388.52 101.4 385.76C102.3 383 103.47 380.72 104.91 378.92C106.41 377.06 108.12 375.65 110.04 374.69C112.02 373.73 114.09 373.25 116.25 373.25C118.41 373.25 120.45 373.73 122.37 374.69C124.35 375.65 126.06 377.06 127.5 378.92C129 380.72 130.2 383 131.1 385.76C132 388.52 132.45 391.7 132.45 395.3H108.15ZM116.25 374.6C115.35 374.6 114.45 374.9 113.55 375.5C112.65 376.04 111.81 377.03 111.03 378.47C110.25 379.91 109.59 381.86 109.05 384.32C108.57 386.72 108.27 389.78 108.15 393.5H124.35C124.23 389.78 123.9 386.72 123.36 384.32C122.88 381.86 122.25 379.91 121.47 378.47C120.69 377.03 119.85 376.04 118.95 375.5C118.05 374.9 117.15 374.6 116.25 374.6ZM144.628 413.75V376.85L139.228 375.5V374.6H151.828V380C152.428 378.8 153.238 377.69 154.258 376.67C155.098 375.83 156.178 375.05 157.498 374.33C158.818 373.61 160.378 373.25 162.178 373.25C164.458 373.25 166.318 373.67 167.758 374.51C169.258 375.35 170.458 376.28 171.358 377.3C172.438 378.5 173.278 379.85 173.878 381.35C174.658 379.85 175.588 378.5 176.668 377.3C177.628 376.28 178.798 375.35 180.178 374.51C181.558 373.67 183.208 373.25 185.128 373.25C186.928 373.25 188.578 373.58 190.078 374.24C191.638 374.9 192.988 375.83 194.128 377.03C195.268 378.17 196.138 379.58 196.738 381.26C197.398 382.88 197.728 384.71 197.728 386.75V413.75L203.128 415.1V416H185.578V415.1L190.528 413.75V386.75C190.528 382.49 189.838 379.49 188.458 377.75C187.138 375.95 185.578 375.05 183.778 375.05C182.278 375.05 180.988 375.47 179.908 376.31C178.828 377.15 177.898 378.08 177.118 379.1C176.218 380.3 175.438 381.65 174.778 383.15V413.75L179.728 415.1V416H162.628V415.1L167.578 413.75V386.75C167.578 382.49 166.888 379.49 165.508 377.75C164.188 375.95 162.628 375.05 160.828 375.05C159.328 375.05 158.038 375.47 156.958 376.31C155.878 377.15 154.948 378.08 154.168 379.1C153.268 380.3 152.488 381.65 151.828 383.15V413.75L156.778 415.1V416H139.228V415.1L144.628 413.75ZM244.957 353C243.277 353 241.657 353.36 240.097 354.08C238.537 354.8 237.127 355.79 235.867 357.05C234.667 358.25 233.707 359.63 232.987 361.19C232.267 362.75 231.907 364.37 231.907 366.05C231.907 367.61 232.507 368.9 233.707 369.92C234.967 370.94 237.067 371.45 240.007 371.45L241.807 378.65C241.567 378.77 241.297 378.86 240.997 378.92C240.697 378.98 240.367 379.04 240.007 379.1C239.707 379.1 239.407 379.1 239.107 379.1C236.587 379.1 234.457 378.11 232.717 376.13C230.977 374.09 230.107 371.03 230.107 366.95C230.107 364.79 230.527 362.78 231.367 360.92C232.207 359 233.347 357.32 234.787 355.88C236.227 354.44 237.877 353.3 239.737 352.46C241.657 351.62 243.697 351.2 245.857 351.2C248.677 351.2 251.257 351.68 253.597 352.64C255.997 353.6 258.037 354.92 259.717 356.6C261.457 358.22 262.807 360.17 263.767 362.45C264.727 364.67 265.207 367.07 265.207 369.65C265.207 372.11 264.697 374.66 263.677 377.3C262.657 379.88 261.277 382.46 259.537 385.04C257.857 387.62 255.937 390.14 253.777 392.6C251.617 395.06 249.397 397.37 247.117 399.53C244.837 401.69 242.617 403.7 240.457 405.56C238.297 407.36 236.347 408.89 234.607 410.15H262.957L264.757 401.6H266.107V416H226.507C230.647 411.5 234.547 407.3 238.207 403.4C241.867 399.5 245.047 395.72 247.747 392.06C250.507 388.34 252.667 384.68 254.227 381.08C255.847 377.42 256.657 373.61 256.657 369.65C256.657 366.71 256.357 364.19 255.757 362.09C255.157 359.99 254.347 358.28 253.327 356.96C252.307 355.58 251.077 354.59 249.637 353.99C248.197 353.33 246.637 353 244.957 353ZM304.322 384.5C304.322 378.2 303.962 373.01 303.242 368.93C302.522 364.85 301.622 361.64 300.542 359.3C299.462 356.96 298.262 355.34 296.942 354.44C295.622 353.48 294.332 353 293.072 353C291.812 353 290.522 353.48 289.202 354.44C287.882 355.34 286.682 356.96 285.602 359.3C284.522 361.64 283.622 364.85 282.902 368.93C282.182 373.01 281.822 378.2 281.822 384.5C281.822 390.8 282.182 395.99 282.902 400.07C283.622 404.15 284.522 407.36 285.602 409.7C286.682 412.04 287.882 413.69 289.202 414.65C290.522 415.55 291.812 416 293.072 416C294.332 416 295.622 415.55 296.942 414.65C298.262 413.69 299.462 412.04 300.542 409.7C301.622 407.36 302.522 404.15 303.242 400.07C303.962 395.99 304.322 390.8 304.322 384.5ZM312.872 384.5C312.872 390.26 312.302 395.21 311.162 399.35C310.022 403.49 308.522 406.91 306.662 409.61C304.802 412.25 302.672 414.2 300.272 415.46C297.932 416.72 295.532 417.35 293.072 417.35C290.612 417.35 288.182 416.72 285.782 415.46C283.442 414.2 281.342 412.25 279.482 409.61C277.622 406.91 276.122 403.49 274.982 399.35C273.842 395.21 273.272 390.26 273.272 384.5C273.272 378.74 273.842 373.79 274.982 369.65C276.122 365.51 277.622 362.12 279.482 359.48C281.342 356.78 283.442 354.8 285.782 353.54C288.182 352.28 290.612 351.65 293.072 351.65C295.532 351.65 297.932 352.28 300.272 353.54C302.672 354.8 304.802 356.78 306.662 359.48C308.522 362.12 310.022 365.51 311.162 369.65C312.302 373.79 312.872 378.74 312.872 384.5ZM334.43 353C332.75 353 331.13 353.36 329.57 354.08C328.01 354.8 326.6 355.79 325.34 357.05C324.14 358.25 323.18 359.63 322.46 361.19C321.74 362.75 321.38 364.37 321.38 366.05C321.38 367.61 321.98 368.9 323.18 369.92C324.44 370.94 326.54 371.45 329.48 371.45L331.28 378.65C331.04 378.77 330.77 378.86 330.47 378.92C330.17 378.98 329.84 379.04 329.48 379.1C329.18 379.1 328.88 379.1 328.58 379.1C326.06 379.1 323.93 378.11 322.19 376.13C320.45 374.09 319.58 371.03 319.58 366.95C319.58 364.79 320 362.78 320.84 360.92C321.68 359 322.82 357.32 324.26 355.88C325.7 354.44 327.35 353.3 329.21 352.46C331.13 351.62 333.17 351.2 335.33 351.2C338.15 351.2 340.73 351.68 343.07 352.64C345.47 353.6 347.51 354.92 349.19 356.6C350.93 358.22 352.28 360.17 353.24 362.45C354.2 364.67 354.68 367.07 354.68 369.65C354.68 372.11 354.17 374.66 353.15 377.3C352.13 379.88 350.75 382.46 349.01 385.04C347.33 387.62 345.41 390.14 343.25 392.6C341.09 395.06 338.87 397.37 336.59 399.53C334.31 401.69 332.09 403.7 329.93 405.56C327.77 407.36 325.82 408.89 324.08 410.15H352.43L354.23 401.6H355.58V416H315.98C320.12 411.5 324.02 407.3 327.68 403.4C331.34 399.5 334.52 395.72 337.22 392.06C339.98 388.34 342.14 384.68 343.7 381.08C345.32 377.42 346.13 373.61 346.13 369.65C346.13 366.71 345.83 364.19 345.23 362.09C344.63 359.99 343.82 358.28 342.8 356.96C341.78 355.58 340.55 354.59 339.11 353.99C337.67 353.33 336.11 353 334.43 353ZM378.945 353C376.245 353 374.145 353.78 372.645 355.34C371.145 356.9 370.395 359.27 370.395 362.45C370.395 363.35 370.545 364.25 370.845 365.15C370.965 365.63 371.115 366.08 371.295 366.5L363.645 368.3C363.465 368.06 363.315 367.73 363.195 367.31C362.895 366.59 362.745 365.57 362.745 364.25C362.745 362.57 363.105 360.98 363.825 359.48C364.545 357.92 365.595 356.57 366.975 355.43C368.355 354.29 370.035 353.39 372.015 352.73C374.055 352.01 376.365 351.65 378.945 351.65C381.645 351.65 384.045 352.04 386.145 352.82C388.305 353.54 390.105 354.56 391.545 355.88C392.985 357.2 394.095 358.76 394.875 360.56C395.655 362.36 396.045 364.34 396.045 366.5C396.045 369.8 395.325 372.38 393.885 374.24C392.505 376.1 390.975 377.54 389.295 378.56C387.315 379.7 385.065 380.48 382.545 380.9C385.665 381.32 388.425 382.25 390.825 383.69C391.845 384.29 392.865 385.04 393.885 385.94C394.905 386.84 395.805 387.92 396.585 389.18C397.365 390.38 397.995 391.79 398.475 393.41C398.955 395.03 399.195 396.86 399.195 398.9C399.195 401.48 398.685 403.91 397.665 406.19C396.705 408.41 395.325 410.36 393.525 412.04C391.725 413.66 389.535 414.95 386.955 415.91C384.435 416.87 381.615 417.35 378.495 417.35C375.915 417.35 373.545 416.93 371.385 416.09C369.225 415.25 367.365 414.11 365.805 412.67C364.305 411.23 363.105 409.58 362.205 407.72C361.365 405.8 360.945 403.76 360.945 401.6C360.945 396.86 361.815 393.44 363.555 391.34C365.355 389.18 367.485 388.1 369.945 388.1C370.245 388.1 370.545 388.13 370.845 388.19C371.205 388.25 371.535 388.31 371.835 388.37C372.135 388.43 372.405 388.49 372.645 388.55L370.845 395.75C365.445 395.75 362.745 398.3 362.745 403.4C362.745 404.84 363.105 406.31 363.825 407.81C364.605 409.25 365.655 410.54 366.975 411.68C368.295 412.82 369.855 413.75 371.655 414.47C373.455 415.19 375.435 415.55 377.595 415.55C381.675 415.55 384.855 414.26 387.135 411.68C389.475 409.04 390.645 404.78 390.645 398.9C390.645 392.84 389.505 388.49 387.225 385.85C384.945 383.15 381.885 381.8 378.045 381.8H374.445V380H378.045C381.225 380 383.745 378.95 385.605 376.85C387.465 374.69 388.395 371.24 388.395 366.5C388.395 364.28 388.125 362.33 387.585 360.65C387.105 358.91 386.415 357.5 385.515 356.42C384.675 355.28 383.685 354.44 382.545 353.9C381.405 353.3 380.205 353 378.945 353ZM451.008 393.95C445.788 393.95 441.918 395.12 439.398 397.46C436.938 399.74 435.708 402.92 435.708 407C435.708 409.7 436.368 411.8 437.688 413.3C439.008 414.8 440.448 415.55 442.008 415.55C443.448 415.55 444.708 415.13 445.788 414.29C446.928 413.45 447.888 412.52 448.668 411.5C449.568 410.36 450.348 409.01 451.008 407.45V393.95ZM444.258 374.6C442.458 374.6 440.958 375.23 439.758 376.49C438.558 377.69 437.958 379.31 437.958 381.35C437.958 381.83 437.958 382.25 437.958 382.61C438.018 382.97 438.078 383.3 438.138 383.6C438.198 383.9 438.288 384.2 438.408 384.5L431.208 386.3C431.088 386.12 430.998 385.88 430.938 385.58C430.878 385.28 430.818 384.95 430.758 384.59C430.758 384.23 430.758 383.75 430.758 383.15C430.758 381.89 431.058 380.69 431.658 379.55C432.258 378.35 433.128 377.3 434.268 376.4C435.468 375.44 436.878 374.69 438.498 374.15C440.178 373.55 442.098 373.25 444.258 373.25C448.578 373.25 451.968 374.48 454.428 376.94C456.948 379.4 458.208 382.67 458.208 386.75V413.75L463.608 415.1V416H451.008V410.6C450.348 411.86 449.508 413 448.488 414.02C447.648 414.86 446.568 415.61 445.248 416.27C443.988 416.99 442.458 417.35 440.658 417.35C436.338 417.35 433.068 416.33 430.848 414.29C428.688 412.25 427.608 409.52 427.608 406.1C427.608 404.42 428.058 402.74 428.958 401.06C429.918 399.38 431.328 397.88 433.188 396.56C435.108 395.24 437.538 394.19 440.478 393.41C443.418 392.57 446.928 392.15 451.008 392.15V386.75C451.008 382.25 450.318 379.1 448.938 377.3C447.618 375.5 446.058 374.6 444.258 374.6ZM509.065 375.05C507.925 375.05 506.785 375.41 505.645 376.13C504.565 376.79 503.575 377.9 502.675 379.46C501.775 381.02 501.025 383.09 500.425 385.67C499.885 388.25 499.615 391.46 499.615 395.3C499.615 399.14 499.885 402.35 500.425 404.93C501.025 407.51 501.805 409.61 502.765 411.23C503.725 412.79 504.805 413.9 506.005 414.56C507.265 415.22 508.585 415.55 509.965 415.55C511.525 415.55 512.995 415.25 514.375 414.65C515.755 414.05 516.985 413.24 518.065 412.22C519.145 411.2 520.015 409.97 520.675 408.53C521.395 407.09 521.875 405.53 522.115 403.85H523.465C523.225 405.77 522.685 407.57 521.845 409.25C521.065 410.87 520.045 412.28 518.785 413.48C517.525 414.68 516.055 415.61 514.375 416.27C512.755 416.99 510.985 417.35 509.065 417.35C506.725 417.35 504.475 416.87 502.315 415.91C500.215 414.89 498.355 413.45 496.735 411.59C495.115 409.67 493.825 407.36 492.865 404.66C491.965 401.9 491.515 398.78 491.515 395.3C491.515 391.82 491.965 388.73 492.865 386.03C493.825 383.27 495.085 380.96 496.645 379.1C498.205 377.18 499.975 375.74 501.955 374.78C503.935 373.76 506.005 373.25 508.165 373.25C509.605 373.25 510.865 373.49 511.945 373.97C513.085 374.45 514.045 374.96 514.825 375.5C515.725 376.16 516.505 376.91 517.165 377.75C517.405 376.85 517.885 376.01 518.605 375.23C519.385 374.45 520.105 373.94 520.765 373.7H522.115C521.995 374.48 521.905 375.29 521.845 376.13C521.785 376.85 521.725 377.63 521.665 378.47C521.665 379.31 521.665 380.12 521.665 380.9C521.665 381.8 521.665 382.73 521.665 383.69C521.725 384.59 521.785 385.4 521.845 386.12C521.905 386.96 521.995 387.77 522.115 388.55H520.765C519.625 384.23 517.945 380.9 515.725 378.56C513.565 376.22 511.345 375.05 509.065 375.05ZM547.287 374.6C546.267 374.6 545.217 374.96 544.137 375.68C543.117 376.34 542.157 377.48 541.257 379.1C540.417 380.66 539.697 382.76 539.097 385.4C538.557 388.04 538.287 391.34 538.287 395.3C538.287 399.26 538.557 402.56 539.097 405.2C539.697 407.84 540.417 409.97 541.257 411.59C542.157 413.15 543.117 414.29 544.137 415.01C545.217 415.67 546.267 416 547.287 416C548.307 416 549.327 415.67 550.347 415.01C551.427 414.29 552.387 413.15 553.227 411.59C554.127 409.97 554.847 407.84 555.387 405.2C555.987 402.56 556.287 399.26 556.287 395.3C556.287 391.34 555.987 388.04 555.387 385.4C554.847 382.76 554.127 380.66 553.227 379.1C552.387 377.48 551.427 376.34 550.347 375.68C549.327 374.96 548.307 374.6 547.287 374.6ZM547.287 373.25C549.507 373.25 551.637 373.76 553.677 374.78C555.777 375.74 557.607 377.18 559.167 379.1C560.787 380.96 562.047 383.27 562.947 386.03C563.907 388.73 564.387 391.82 564.387 395.3C564.387 398.78 563.907 401.9 562.947 404.66C562.047 407.36 560.787 409.67 559.167 411.59C557.607 413.45 555.777 414.89 553.677 415.91C551.637 416.87 549.507 417.35 547.287 417.35C545.007 417.35 542.847 416.87 540.807 415.91C538.767 414.89 536.937 413.45 535.317 411.59C533.757 409.67 532.497 407.36 531.537 404.66C530.637 401.9 530.187 398.78 530.187 395.3C530.187 391.82 530.637 388.73 531.537 386.03C532.497 383.27 533.757 380.96 535.317 379.1C536.937 377.18 538.767 375.74 540.807 374.78C542.847 373.76 545.007 373.25 547.287 373.25ZM576.962 413.75V376.85L571.562 375.5V374.6H584.162V380C584.762 378.8 585.572 377.69 586.592 376.67C587.432 375.83 588.512 375.05 589.832 374.33C591.152 373.61 592.712 373.25 594.512 373.25C596.312 373.25 597.962 373.58 599.462 374.24C601.022 374.9 602.372 375.83 603.512 377.03C604.652 378.17 605.522 379.58 606.122 381.26C606.782 382.88 607.112 384.71 607.112 386.75V413.75L612.512 415.1V416H594.962V415.1L599.912 413.75V386.75C599.912 382.49 599.222 379.49 597.842 377.75C596.522 375.95 594.962 375.05 593.162 375.05C591.662 375.05 590.372 375.47 589.292 376.31C588.212 377.15 587.282 378.08 586.502 379.1C585.602 380.3 584.822 381.65 584.162 383.15V413.75L589.112 415.1V416H571.562V415.1L576.962 413.75ZM645.373 360.65C645.373 361.67 645.193 362.6 644.833 363.44C644.533 364.22 644.173 364.91 643.753 365.51C643.273 366.17 642.763 366.8 642.223 367.4L635.473 364.7C636.013 364.1 636.523 363.47 637.003 362.81C637.423 362.21 637.783 361.52 638.083 360.74C638.443 359.9 638.623 358.97 638.623 357.95C638.623 356.39 638.203 355.19 637.363 354.35C636.583 353.45 635.503 353 634.123 353C633.463 353 632.833 353.18 632.233 353.54C631.633 353.84 631.093 354.41 630.613 355.25C630.193 356.03 629.833 357.11 629.533 358.49C629.293 359.87 629.173 361.64 629.173 363.8V374.6H641.773V376.4H629.173V413.75L634.573 415.1V416H616.573V415.1L621.973 413.75V376.4H616.573V374.6H621.973V363.8C621.973 360.2 623.083 357.29 625.303 355.07C627.583 352.79 630.523 351.65 634.123 351.65C635.803 351.65 637.333 351.92 638.713 352.46C640.093 352.94 641.263 353.6 642.223 354.44C643.243 355.28 644.023 356.24 644.563 357.32C645.103 358.4 645.373 359.51 645.373 360.65ZM653.072 395.3C653.072 399.14 653.342 402.35 653.882 404.93C654.482 407.51 655.232 409.61 656.132 411.23C657.092 412.79 658.142 413.9 659.282 414.56C660.482 415.22 661.712 415.55 662.972 415.55C664.532 415.55 666.002 415.25 667.382 414.65C668.762 414.05 669.992 413.24 671.072 412.22C672.152 411.2 673.022 409.97 673.682 408.53C674.402 407.09 674.882 405.53 675.122 403.85H676.472C676.232 405.77 675.692 407.57 674.852 409.25C674.072 410.87 673.052 412.28 671.792 413.48C670.532 414.68 669.062 415.61 667.382 416.27C665.762 416.99 663.992 417.35 662.072 417.35C659.792 417.35 657.632 416.87 655.592 415.91C653.552 414.89 651.722 413.45 650.102 411.59C648.542 409.67 647.282 407.36 646.322 404.66C645.422 401.9 644.972 398.78 644.972 395.3C644.972 391.7 645.422 388.52 646.322 385.76C647.222 383 648.392 380.72 649.832 378.92C651.332 377.06 653.042 375.65 654.962 374.69C656.942 373.73 659.012 373.25 661.172 373.25C663.332 373.25 665.372 373.73 667.292 374.69C669.272 375.65 670.982 377.06 672.422 378.92C673.922 380.72 675.122 383 676.022 385.76C676.922 388.52 677.372 391.7 677.372 395.3H653.072ZM661.172 374.6C660.272 374.6 659.372 374.9 658.472 375.5C657.572 376.04 656.732 377.03 655.952 378.47C655.172 379.91 654.512 381.86 653.972 384.32C653.492 386.72 653.192 389.78 653.072 393.5H669.272C669.152 389.78 668.822 386.72 668.282 384.32C667.802 381.86 667.172 379.91 666.392 378.47C665.612 377.03 664.772 376.04 663.872 375.5C662.972 374.9 662.072 374.6 661.172 374.6ZM696.75 413.75L702.15 415.1V416H684.15V415.1L689.55 413.75V376.85L684.15 375.5V374.6H696.75V385.4C697.53 383.18 698.46 381.17 699.54 379.37C700.5 377.81 701.67 376.4 703.05 375.14C704.43 373.88 706.08 373.25 708 373.25C708.66 373.25 709.29 373.31 709.89 373.43C710.49 373.49 711.03 373.58 711.51 373.7C712.05 373.88 712.53 374.03 712.95 374.15L710.25 380.9C709.89 380.72 709.5 380.51 709.08 380.27C708.72 380.09 708.27 379.94 707.73 379.82C707.25 379.64 706.74 379.55 706.2 379.55C704.64 379.55 703.26 379.97 702.06 380.81C700.86 381.65 699.87 382.58 699.09 383.6C698.13 384.8 697.35 386.15 696.75 387.65V413.75ZM724.703 395.3C724.703 399.14 724.973 402.35 725.513 404.93C726.113 407.51 726.863 409.61 727.763 411.23C728.723 412.79 729.773 413.9 730.913 414.56C732.113 415.22 733.343 415.55 734.603 415.55C736.163 415.55 737.633 415.25 739.013 414.65C740.393 414.05 741.623 413.24 742.703 412.22C743.783 411.2 744.653 409.97 745.313 408.53C746.033 407.09 746.513 405.53 746.753 403.85H748.103C747.863 405.77 747.323 407.57 746.483 409.25C745.703 410.87 744.683 412.28 743.423 413.48C742.163 414.68 740.693 415.61 739.013 416.27C737.393 416.99 735.623 417.35 733.703 417.35C731.423 417.35 729.263 416.87 727.223 415.91C725.183 414.89 723.353 413.45 721.733 411.59C720.173 409.67 718.913 407.36 717.953 404.66C717.053 401.9 716.603 398.78 716.603 395.3C716.603 391.7 717.053 388.52 717.953 385.76C718.853 383 720.023 380.72 721.463 378.92C722.963 377.06 724.673 375.65 726.593 374.69C728.573 373.73 730.643 373.25 732.803 373.25C734.963 373.25 737.003 373.73 738.923 374.69C740.903 375.65 742.613 377.06 744.053 378.92C745.553 380.72 746.753 383 747.653 385.76C748.553 388.52 749.003 391.7 749.003 395.3H724.703ZM732.803 374.6C731.903 374.6 731.003 374.9 730.103 375.5C729.203 376.04 728.363 377.03 727.583 378.47C726.803 379.91 726.143 381.86 725.603 384.32C725.123 386.72 724.823 389.78 724.703 393.5H740.903C740.783 389.78 740.453 386.72 739.913 384.32C739.433 381.86 738.803 379.91 738.023 378.47C737.243 377.03 736.403 376.04 735.503 375.5C734.603 374.9 733.703 374.6 732.803 374.6ZM725.333 368.75H723.083L733.433 357.05L743.783 368.75H741.533L733.433 363.35L725.333 368.75ZM761.181 413.75V376.85L755.781 375.5V374.6H768.381V380C768.981 378.8 769.791 377.69 770.811 376.67C771.651 375.83 772.731 375.05 774.051 374.33C775.371 373.61 776.931 373.25 778.731 373.25C780.531 373.25 782.181 373.58 783.681 374.24C785.241 374.9 786.591 375.83 787.731 377.03C788.871 378.17 789.741 379.58 790.341 381.26C791.001 382.88 791.331 384.71 791.331 386.75V413.75L796.731 415.1V416H779.181V415.1L784.131 413.75V386.75C784.131 382.49 783.441 379.49 782.061 377.75C780.741 375.95 779.181 375.05 777.381 375.05C775.881 375.05 774.591 375.47 773.511 376.31C772.431 377.15 771.501 378.08 770.721 379.1C769.821 380.3 769.041 381.65 768.381 383.15V413.75L773.331 415.1V416H755.781V415.1L761.181 413.75ZM820.549 375.05C819.409 375.05 818.269 375.41 817.129 376.13C816.049 376.79 815.059 377.9 814.159 379.46C813.259 381.02 812.509 383.09 811.909 385.67C811.369 388.25 811.099 391.46 811.099 395.3C811.099 399.14 811.369 402.35 811.909 404.93C812.509 407.51 813.289 409.61 814.249 411.23C815.209 412.79 816.289 413.9 817.489 414.56C818.749 415.22 820.069 415.55 821.449 415.55C823.009 415.55 824.479 415.25 825.859 414.65C827.239 414.05 828.469 413.24 829.549 412.22C830.629 411.2 831.499 409.97 832.159 408.53C832.879 407.09 833.359 405.53 833.599 403.85H834.949C834.709 405.77 834.169 407.57 833.329 409.25C832.549 410.87 831.529 412.28 830.269 413.48C829.009 414.68 827.539 415.61 825.859 416.27C824.239 416.99 822.469 417.35 820.549 417.35C818.209 417.35 815.959 416.87 813.799 415.91C811.699 414.89 809.839 413.45 808.219 411.59C806.599 409.67 805.309 407.36 804.349 404.66C803.449 401.9 802.999 398.78 802.999 395.3C802.999 391.82 803.449 388.73 804.349 386.03C805.309 383.27 806.569 380.96 808.129 379.1C809.689 377.18 811.459 375.74 813.439 374.78C815.419 373.76 817.489 373.25 819.649 373.25C821.089 373.25 822.349 373.49 823.429 373.97C824.569 374.45 825.529 374.96 826.309 375.5C827.209 376.16 827.989 376.91 828.649 377.75C828.889 376.85 829.369 376.01 830.089 375.23C830.869 374.45 831.589 373.94 832.249 373.7H833.599C833.479 374.48 833.389 375.29 833.329 376.13C833.269 376.85 833.209 377.63 833.149 378.47C833.149 379.31 833.149 380.12 833.149 380.9C833.149 381.8 833.149 382.73 833.149 383.69C833.209 384.59 833.269 385.4 833.329 386.12C833.389 386.96 833.479 387.77 833.599 388.55H832.249C831.109 384.23 829.429 380.9 827.209 378.56C825.049 376.22 822.829 375.05 820.549 375.05ZM846.171 413.75V376.85L840.771 375.5V374.6H853.371V413.75L858.771 415.1V416H840.771V415.1L846.171 413.75ZM853.821 364.25C853.821 365.39 853.341 366.44 852.381 367.4C851.481 368.3 850.461 368.75 849.321 368.75C848.181 368.75 847.131 368.3 846.171 367.4C845.271 366.44 844.821 365.39 844.821 364.25C844.821 363.11 845.271 362.09 846.171 361.19C847.131 360.23 848.181 359.75 849.321 359.75C850.461 359.75 851.481 360.23 852.381 361.19C853.341 362.09 853.821 363.11 853.821 364.25ZM888 393.95C882.78 393.95 878.91 395.12 876.39 397.46C873.93 399.74 872.7 402.92 872.7 407C872.7 409.7 873.36 411.8 874.68 413.3C876 414.8 877.44 415.55 879 415.55C880.44 415.55 881.7 415.13 882.78 414.29C883.92 413.45 884.88 412.52 885.66 411.5C886.56 410.36 887.34 409.01 888 407.45V393.95ZM881.25 374.6C879.45 374.6 877.95 375.23 876.75 376.49C875.55 377.69 874.95 379.31 874.95 381.35C874.95 381.83 874.95 382.25 874.95 382.61C875.01 382.97 875.07 383.3 875.13 383.6C875.19 383.9 875.28 384.2 875.4 384.5L868.2 386.3C868.08 386.12 867.99 385.88 867.93 385.58C867.87 385.28 867.81 384.95 867.75 384.59C867.75 384.23 867.75 383.75 867.75 383.15C867.75 381.89 868.05 380.69 868.65 379.55C869.25 378.35 870.12 377.3 871.26 376.4C872.46 375.44 873.87 374.69 875.49 374.15C877.17 373.55 879.09 373.25 881.25 373.25C885.57 373.25 888.96 374.48 891.42 376.94C893.94 379.4 895.2 382.67 895.2 386.75V413.75L900.6 415.1V416H888V410.6C887.34 411.86 886.5 413 885.48 414.02C884.64 414.86 883.56 415.61 882.24 416.27C880.98 416.99 879.45 417.35 877.65 417.35C873.33 417.35 870.06 416.33 867.84 414.29C865.68 412.25 864.6 409.52 864.6 406.1C864.6 404.42 865.05 402.74 865.95 401.06C866.91 399.38 868.32 397.88 870.18 396.56C872.1 395.24 874.53 394.19 877.47 393.41C880.41 392.57 883.92 392.15 888 392.15V386.75C888 382.25 887.31 379.1 885.93 377.3C884.61 375.5 883.05 374.6 881.25 374.6ZM113.1 513.75L118.5 515.1V516H100.05V515.1L105.45 513.75V455.25L100.05 453.9V453H118.5V453.9L113.1 455.25V513.75ZM131.093 513.75V476.85L125.693 475.5V474.6H138.293V480C138.893 478.8 139.703 477.69 140.723 476.67C141.563 475.83 142.643 475.05 143.963 474.33C145.283 473.61 146.843 473.25 148.643 473.25C150.443 473.25 152.093 473.58 153.593 474.24C155.153 474.9 156.503 475.83 157.643 477.03C158.783 478.17 159.653 479.58 160.253 481.26C160.913 482.88 161.243 484.71 161.243 486.75V513.75L166.643 515.1V516H149.093V515.1L154.043 513.75V486.75C154.043 482.49 153.353 479.49 151.973 477.75C150.653 475.95 149.093 475.05 147.293 475.05C145.793 475.05 144.503 475.47 143.423 476.31C142.343 477.15 141.413 478.08 140.633 479.1C139.733 480.3 138.953 481.65 138.293 483.15V513.75L143.243 515.1V516H125.693V515.1L131.093 513.75ZM199.504 460.65C199.504 461.67 199.324 462.6 198.964 463.44C198.664 464.22 198.304 464.91 197.884 465.51C197.404 466.17 196.894 466.8 196.354 467.4L189.604 464.7C190.144 464.1 190.654 463.47 191.134 462.81C191.554 462.21 191.914 461.52 192.214 460.74C192.574 459.9 192.754 458.97 192.754 457.95C192.754 456.39 192.334 455.19 191.494 454.35C190.714 453.45 189.634 453 188.254 453C187.594 453 186.964 453.18 186.364 453.54C185.764 453.84 185.224 454.41 184.744 455.25C184.324 456.03 183.964 457.11 183.664 458.49C183.424 459.87 183.304 461.64 183.304 463.8V474.6H195.904V476.4H183.304V513.75L188.704 515.1V516H170.704V515.1L176.104 513.75V476.4H170.704V474.6H176.104V463.8C176.104 460.2 177.214 457.29 179.434 455.07C181.714 452.79 184.654 451.65 188.254 451.65C189.934 451.65 191.464 451.92 192.844 452.46C194.224 452.94 195.394 453.6 196.354 454.44C197.374 455.28 198.154 456.24 198.694 457.32C199.234 458.4 199.504 459.51 199.504 460.65ZM216.203 474.6C215.183 474.6 214.133 474.96 213.053 475.68C212.033 476.34 211.073 477.48 210.173 479.1C209.333 480.66 208.613 482.76 208.013 485.4C207.473 488.04 207.203 491.34 207.203 495.3C207.203 499.26 207.473 502.56 208.013 505.2C208.613 507.84 209.333 509.97 210.173 511.59C211.073 513.15 212.033 514.29 213.053 515.01C214.133 515.67 215.183 516 216.203 516C217.223 516 218.243 515.67 219.263 515.01C220.343 514.29 221.303 513.15 222.143 511.59C223.043 509.97 223.763 507.84 224.303 505.2C224.903 502.56 225.203 499.26 225.203 495.3C225.203 491.34 224.903 488.04 224.303 485.4C223.763 482.76 223.043 480.66 222.143 479.1C221.303 477.48 220.343 476.34 219.263 475.68C218.243 474.96 217.223 474.6 216.203 474.6ZM216.203 473.25C218.423 473.25 220.553 473.76 222.593 474.78C224.693 475.74 226.523 477.18 228.083 479.1C229.703 480.96 230.963 483.27 231.863 486.03C232.823 488.73 233.303 491.82 233.303 495.3C233.303 498.78 232.823 501.9 231.863 504.66C230.963 507.36 229.703 509.67 228.083 511.59C226.523 513.45 224.693 514.89 222.593 515.91C220.553 516.87 218.423 517.35 216.203 517.35C213.923 517.35 211.763 516.87 209.723 515.91C207.683 514.89 205.853 513.45 204.233 511.59C202.673 509.67 201.413 507.36 200.453 504.66C199.553 501.9 199.103 498.78 199.103 495.3C199.103 491.82 199.553 488.73 200.453 486.03C201.413 483.27 202.673 480.96 204.233 479.1C205.853 477.18 207.683 475.74 209.723 474.78C211.763 473.76 213.923 473.25 216.203 473.25ZM253.078 513.75L258.478 515.1V516H240.478V515.1L245.878 513.75V476.85L240.478 475.5V474.6H253.078V485.4C253.858 483.18 254.788 481.17 255.868 479.37C256.828 477.81 257.998 476.4 259.378 475.14C260.758 473.88 262.408 473.25 264.328 473.25C264.988 473.25 265.618 473.31 266.218 473.43C266.818 473.49 267.358 473.58 267.838 473.7C268.378 473.88 268.858 474.03 269.278 474.15L266.578 480.9C266.218 480.72 265.828 480.51 265.408 480.27C265.048 480.09 264.598 479.94 264.058 479.82C263.578 479.64 263.068 479.55 262.528 479.55C260.968 479.55 259.588 479.97 258.388 480.81C257.188 481.65 256.198 482.58 255.418 483.6C254.458 484.8 253.678 486.15 253.078 487.65V513.75ZM278.31 513.75V476.85L272.91 475.5V474.6H285.51V480C286.11 478.8 286.92 477.69 287.94 476.67C288.78 475.83 289.86 475.05 291.18 474.33C292.5 473.61 294.06 473.25 295.86 473.25C298.14 473.25 300 473.67 301.44 474.51C302.94 475.35 304.14 476.28 305.04 477.3C306.12 478.5 306.96 479.85 307.56 481.35C308.34 479.85 309.27 478.5 310.35 477.3C311.31 476.28 312.48 475.35 313.86 474.51C315.24 473.67 316.89 473.25 318.81 473.25C320.61 473.25 322.26 473.58 323.76 474.24C325.32 474.9 326.67 475.83 327.81 477.03C328.95 478.17 329.82 479.58 330.42 481.26C331.08 482.88 331.41 484.71 331.41 486.75V513.75L336.81 515.1V516H319.26V515.1L324.21 513.75V486.75C324.21 482.49 323.52 479.49 322.14 477.75C320.82 475.95 319.26 475.05 317.46 475.05C315.96 475.05 314.67 475.47 313.59 476.31C312.51 477.15 311.58 478.08 310.8 479.1C309.9 480.3 309.12 481.65 308.46 483.15V513.75L313.41 515.1V516H296.31V515.1L301.26 513.75V486.75C301.26 482.49 300.57 479.49 299.19 477.75C297.87 475.95 296.31 475.05 294.51 475.05C293.01 475.05 291.72 475.47 290.64 476.31C289.56 477.15 288.63 478.08 287.85 479.1C286.95 480.3 286.17 481.65 285.51 483.15V513.75L290.46 515.1V516H272.91V515.1L278.31 513.75ZM366.018 493.95C360.798 493.95 356.928 495.12 354.408 497.46C351.948 499.74 350.718 502.92 350.718 507C350.718 509.7 351.378 511.8 352.698 513.3C354.018 514.8 355.458 515.55 357.018 515.55C358.458 515.55 359.718 515.13 360.798 514.29C361.938 513.45 362.898 512.52 363.678 511.5C364.578 510.36 365.358 509.01 366.018 507.45V493.95ZM359.268 474.6C357.468 474.6 355.968 475.23 354.768 476.49C353.568 477.69 352.968 479.31 352.968 481.35C352.968 481.83 352.968 482.25 352.968 482.61C353.028 482.97 353.088 483.3 353.148 483.6C353.208 483.9 353.298 484.2 353.418 484.5L346.218 486.3C346.098 486.12 346.008 485.88 345.948 485.58C345.888 485.28 345.828 484.95 345.768 484.59C345.768 484.23 345.768 483.75 345.768 483.15C345.768 481.89 346.068 480.69 346.668 479.55C347.268 478.35 348.138 477.3 349.278 476.4C350.478 475.44 351.888 474.69 353.508 474.15C355.188 473.55 357.108 473.25 359.268 473.25C363.588 473.25 366.978 474.48 369.438 476.94C371.958 479.4 373.218 482.67 373.218 486.75V513.75L378.618 515.1V516H366.018V510.6C365.358 511.86 364.518 513 363.498 514.02C362.658 514.86 361.578 515.61 360.258 516.27C358.998 516.99 357.468 517.35 355.668 517.35C351.348 517.35 348.078 516.33 345.858 514.29C343.698 512.25 342.618 509.52 342.618 506.1C342.618 504.42 343.068 502.74 343.968 501.06C344.928 499.38 346.338 497.88 348.198 496.56C350.118 495.24 352.548 494.19 355.488 493.41C358.428 492.57 361.938 492.15 366.018 492.15V486.75C366.018 482.25 365.328 479.1 363.948 477.3C362.628 475.5 361.068 474.6 359.268 474.6ZM406.954 474.6V476.4H396.604V505.11C396.604 508.77 397.264 511.44 398.584 513.12C399.904 514.74 401.344 515.55 402.904 515.55C404.944 515.55 406.654 514.8 408.034 513.3C409.474 511.74 410.314 509.49 410.554 506.55H411.904C411.664 509.97 410.614 512.64 408.754 514.56C406.954 516.42 404.704 517.35 402.004 517.35C398.164 517.35 395.104 516.24 392.824 514.02C390.544 511.74 389.404 508.8 389.404 505.2V476.4H381.754V474.6H389.404V464.25L396.604 459.3V474.6H406.954ZM421.396 513.75V476.85L415.996 475.5V474.6H428.596V513.75L433.996 515.1V516H415.996V515.1L421.396 513.75ZM429.046 464.25C429.046 465.39 428.566 466.44 427.606 467.4C426.706 468.3 425.686 468.75 424.546 468.75C423.406 468.75 422.356 468.3 421.396 467.4C420.496 466.44 420.046 465.39 420.046 464.25C420.046 463.11 420.496 462.09 421.396 461.19C422.356 460.23 423.406 459.75 424.546 459.75C425.686 459.75 426.706 460.23 427.606 461.19C428.566 462.09 429.046 463.11 429.046 464.25ZM457.375 474.6C456.355 474.6 455.305 474.96 454.225 475.68C453.205 476.34 452.245 477.48 451.345 479.1C450.505 480.66 449.785 482.76 449.185 485.4C448.645 488.04 448.375 491.34 448.375 495.3C448.375 499.26 448.645 502.56 449.185 505.2C449.785 507.84 450.505 509.97 451.345 511.59C452.245 513.15 453.205 514.29 454.225 515.01C455.305 515.67 456.355 516 457.375 516C458.395 516 459.415 515.67 460.435 515.01C461.515 514.29 462.475 513.15 463.315 511.59C464.215 509.97 464.935 507.84 465.475 505.2C466.075 502.56 466.375 499.26 466.375 495.3C466.375 491.34 466.075 488.04 465.475 485.4C464.935 482.76 464.215 480.66 463.315 479.1C462.475 477.48 461.515 476.34 460.435 475.68C459.415 474.96 458.395 474.6 457.375 474.6ZM457.375 473.25C459.595 473.25 461.725 473.76 463.765 474.78C465.865 475.74 467.695 477.18 469.255 479.1C470.875 480.96 472.135 483.27 473.035 486.03C473.995 488.73 474.475 491.82 474.475 495.3C474.475 498.78 473.995 501.9 473.035 504.66C472.135 507.36 470.875 509.67 469.255 511.59C467.695 513.45 465.865 514.89 463.765 515.91C461.725 516.87 459.595 517.35 457.375 517.35C455.095 517.35 452.935 516.87 450.895 515.91C448.855 514.89 447.025 513.45 445.405 511.59C443.845 509.67 442.585 507.36 441.625 504.66C440.725 501.9 440.275 498.78 440.275 495.3C440.275 491.82 440.725 488.73 441.625 486.03C442.585 483.27 443.845 480.96 445.405 479.1C447.025 477.18 448.855 475.74 450.895 474.78C452.935 473.76 455.095 473.25 457.375 473.25ZM487.05 513.75V476.85L481.65 475.5V474.6H494.25V480C494.85 478.8 495.66 477.69 496.68 476.67C497.52 475.83 498.6 475.05 499.92 474.33C501.24 473.61 502.8 473.25 504.6 473.25C506.4 473.25 508.05 473.58 509.55 474.24C511.11 474.9 512.46 475.83 513.6 477.03C514.74 478.17 515.61 479.58 516.21 481.26C516.87 482.88 517.2 484.71 517.2 486.75V513.75L522.6 515.1V516H505.05V515.1L510 513.75V486.75C510 482.49 509.31 479.49 507.93 477.75C506.61 475.95 505.05 475.05 503.25 475.05C501.75 475.05 500.46 475.47 499.38 476.31C498.3 477.15 497.37 478.08 496.59 479.1C495.69 480.3 494.91 481.65 494.25 483.15V513.75L499.2 515.1V516H481.65V515.1L487.05 513.75ZM542.818 487.2V471.45H546.418V487.2H561.718V490.8H546.418V506.55H542.818V490.8H527.518V487.2H542.818ZM613.078 493.95C607.858 493.95 603.988 495.12 601.468 497.46C599.008 499.74 597.778 502.92 597.778 507C597.778 509.7 598.438 511.8 599.758 513.3C601.078 514.8 602.518 515.55 604.078 515.55C605.518 515.55 606.778 515.13 607.858 514.29C608.998 513.45 609.958 512.52 610.738 511.5C611.638 510.36 612.418 509.01 613.078 507.45V493.95ZM606.328 474.6C604.528 474.6 603.028 475.23 601.828 476.49C600.628 477.69 600.028 479.31 600.028 481.35C600.028 481.83 600.028 482.25 600.028 482.61C600.088 482.97 600.148 483.3 600.208 483.6C600.268 483.9 600.358 484.2 600.478 484.5L593.278 486.3C593.158 486.12 593.068 485.88 593.008 485.58C592.948 485.28 592.888 484.95 592.828 484.59C592.828 484.23 592.828 483.75 592.828 483.15C592.828 481.89 593.128 480.69 593.728 479.55C594.328 478.35 595.198 477.3 596.338 476.4C597.538 475.44 598.948 474.69 600.568 474.15C602.248 473.55 604.168 473.25 606.328 473.25C610.648 473.25 614.038 474.48 616.498 476.94C619.018 479.4 620.278 482.67 620.278 486.75V513.75L625.678 515.1V516H613.078V510.6C612.418 511.86 611.578 513 610.558 514.02C609.718 514.86 608.638 515.61 607.318 516.27C606.058 516.99 604.528 517.35 602.728 517.35C598.408 517.35 595.138 516.33 592.918 514.29C590.758 512.25 589.678 509.52 589.678 506.1C589.678 504.42 590.128 502.74 591.028 501.06C591.988 499.38 593.398 497.88 595.258 496.56C597.178 495.24 599.608 494.19 602.548 493.41C605.488 492.57 608.998 492.15 613.078 492.15V486.75C613.078 482.25 612.388 479.1 611.008 477.3C609.688 475.5 608.128 474.6 606.328 474.6ZM649.514 475.05C648.374 475.05 647.234 475.41 646.094 476.13C645.014 476.79 644.024 477.9 643.124 479.46C642.224 481.02 641.474 483.09 640.874 485.67C640.334 488.25 640.064 491.46 640.064 495.3C640.064 499.14 640.334 502.35 640.874 504.93C641.474 507.51 642.254 509.61 643.214 511.23C644.174 512.79 645.254 513.9 646.454 514.56C647.714 515.22 649.034 515.55 650.414 515.55C651.974 515.55 653.444 515.25 654.824 514.65C656.204 514.05 657.434 513.24 658.514 512.22C659.594 511.2 660.464 509.97 661.124 508.53C661.844 507.09 662.324 505.53 662.564 503.85H663.914C663.674 505.77 663.134 507.57 662.294 509.25C661.514 510.87 660.494 512.28 659.234 513.48C657.974 514.68 656.504 515.61 654.824 516.27C653.204 516.99 651.434 517.35 649.514 517.35C647.174 517.35 644.924 516.87 642.764 515.91C640.664 514.89 638.804 513.45 637.184 511.59C635.564 509.67 634.274 507.36 633.314 504.66C632.414 501.9 631.964 498.78 631.964 495.3C631.964 491.82 632.414 488.73 633.314 486.03C634.274 483.27 635.534 480.96 637.094 479.1C638.654 477.18 640.424 475.74 642.404 474.78C644.384 473.76 646.454 473.25 648.614 473.25C650.054 473.25 651.314 473.49 652.394 473.97C653.534 474.45 654.494 474.96 655.274 475.5C656.174 476.16 656.954 476.91 657.614 477.75C657.854 476.85 658.334 476.01 659.054 475.23C659.834 474.45 660.554 473.94 661.214 473.7H662.564C662.444 474.48 662.354 475.29 662.294 476.13C662.234 476.85 662.174 477.63 662.114 478.47C662.114 479.31 662.114 480.12 662.114 480.9C662.114 481.8 662.114 482.73 662.114 483.69C662.174 484.59 662.234 485.4 662.294 486.12C662.354 486.96 662.444 487.77 662.564 488.55H661.214C660.074 484.23 658.394 480.9 656.174 478.56C654.014 476.22 651.794 475.05 649.514 475.05ZM687.736 474.6C686.716 474.6 685.666 474.96 684.586 475.68C683.566 476.34 682.606 477.48 681.706 479.1C680.866 480.66 680.146 482.76 679.546 485.4C679.006 488.04 678.736 491.34 678.736 495.3C678.736 499.26 679.006 502.56 679.546 505.2C680.146 507.84 680.866 509.97 681.706 511.59C682.606 513.15 683.566 514.29 684.586 515.01C685.666 515.67 686.716 516 687.736 516C688.756 516 689.776 515.67 690.796 515.01C691.876 514.29 692.836 513.15 693.676 511.59C694.576 509.97 695.296 507.84 695.836 505.2C696.436 502.56 696.736 499.26 696.736 495.3C696.736 491.34 696.436 488.04 695.836 485.4C695.296 482.76 694.576 480.66 693.676 479.1C692.836 477.48 691.876 476.34 690.796 475.68C689.776 474.96 688.756 474.6 687.736 474.6ZM687.736 473.25C689.956 473.25 692.086 473.76 694.126 474.78C696.226 475.74 698.056 477.18 699.616 479.1C701.236 480.96 702.496 483.27 703.396 486.03C704.356 488.73 704.836 491.82 704.836 495.3C704.836 498.78 704.356 501.9 703.396 504.66C702.496 507.36 701.236 509.67 699.616 511.59C698.056 513.45 696.226 514.89 694.126 515.91C692.086 516.87 689.956 517.35 687.736 517.35C685.456 517.35 683.296 516.87 681.256 515.91C679.216 514.89 677.386 513.45 675.766 511.59C674.206 509.67 672.946 507.36 671.986 504.66C671.086 501.9 670.636 498.78 670.636 495.3C670.636 491.82 671.086 488.73 671.986 486.03C672.946 483.27 674.206 480.96 675.766 479.1C677.386 477.18 679.216 475.74 681.256 474.78C683.296 473.76 685.456 473.25 687.736 473.25ZM717.411 513.75V476.85L712.011 475.5V474.6H724.611V480C725.211 478.8 726.021 477.69 727.041 476.67C727.881 475.83 728.961 475.05 730.281 474.33C731.601 473.61 733.161 473.25 734.961 473.25C736.761 473.25 738.411 473.58 739.911 474.24C741.471 474.9 742.821 475.83 743.961 477.03C745.101 478.17 745.971 479.58 746.571 481.26C747.231 482.88 747.561 484.71 747.561 486.75V513.75L752.961 515.1V516H735.411V515.1L740.361 513.75V486.75C740.361 482.49 739.671 479.49 738.291 477.75C736.971 475.95 735.411 475.05 733.611 475.05C732.111 475.05 730.821 475.47 729.741 476.31C728.661 477.15 727.731 478.08 726.951 479.1C726.051 480.3 725.271 481.65 724.611 483.15V513.75L729.561 515.1V516H712.011V515.1L717.411 513.75ZM781.28 474.6V476.4H770.93V505.11C770.93 508.77 771.59 511.44 772.91 513.12C774.23 514.74 775.67 515.55 777.23 515.55C779.27 515.55 780.98 514.8 782.36 513.3C783.8 511.74 784.64 509.49 784.88 506.55H786.23C785.99 509.97 784.94 512.64 783.08 514.56C781.28 516.42 779.03 517.35 776.33 517.35C772.49 517.35 769.43 516.24 767.15 514.02C764.87 511.74 763.73 508.8 763.73 505.2V476.4H756.08V474.6H763.73V464.25L770.93 459.3V474.6H781.28ZM798.443 495.3C798.443 499.14 798.713 502.35 799.253 504.93C799.853 507.51 800.603 509.61 801.503 511.23C802.463 512.79 803.513 513.9 804.653 514.56C805.853 515.22 807.083 515.55 808.343 515.55C809.903 515.55 811.373 515.25 812.753 514.65C814.133 514.05 815.363 513.24 816.443 512.22C817.523 511.2 818.393 509.97 819.053 508.53C819.773 507.09 820.253 505.53 820.493 503.85H821.843C821.603 505.77 821.063 507.57 820.223 509.25C819.443 510.87 818.423 512.28 817.163 513.48C815.903 514.68 814.433 515.61 812.753 516.27C811.133 516.99 809.363 517.35 807.443 517.35C805.163 517.35 803.003 516.87 800.963 515.91C798.923 514.89 797.093 513.45 795.473 511.59C793.913 509.67 792.653 507.36 791.693 504.66C790.793 501.9 790.343 498.78 790.343 495.3C790.343 491.7 790.793 488.52 791.693 485.76C792.593 483 793.763 480.72 795.203 478.92C796.703 477.06 798.413 475.65 800.333 474.69C802.313 473.73 804.383 473.25 806.543 473.25C808.703 473.25 810.743 473.73 812.663 474.69C814.643 475.65 816.353 477.06 817.793 478.92C819.293 480.72 820.493 483 821.393 485.76C822.293 488.52 822.743 491.7 822.743 495.3H798.443ZM806.543 474.6C805.643 474.6 804.743 474.9 803.843 475.5C802.943 476.04 802.103 477.03 801.323 478.47C800.543 479.91 799.883 481.86 799.343 484.32C798.863 486.72 798.563 489.78 798.443 493.5H814.643C814.523 489.78 814.193 486.72 813.653 484.32C813.173 481.86 812.543 479.91 811.763 478.47C810.983 477.03 810.143 476.04 809.243 475.5C808.343 474.9 807.443 474.6 806.543 474.6ZM847.971 475.05C846.831 475.05 845.691 475.41 844.551 476.13C843.471 476.79 842.481 477.9 841.581 479.46C840.681 481.02 839.931 483.09 839.331 485.67C838.791 488.25 838.521 491.46 838.521 495.3C838.521 499.14 838.791 502.35 839.331 504.93C839.931 507.51 840.711 509.61 841.671 511.23C842.631 512.79 843.711 513.9 844.911 514.56C846.171 515.22 847.491 515.55 848.871 515.55C850.431 515.55 851.901 515.25 853.281 514.65C854.661 514.05 855.891 513.24 856.971 512.22C858.051 511.2 858.921 509.97 859.581 508.53C860.301 507.09 860.781 505.53 861.021 503.85H862.371C862.131 505.77 861.591 507.57 860.751 509.25C859.971 510.87 858.951 512.28 857.691 513.48C856.431 514.68 854.961 515.61 853.281 516.27C851.661 516.99 849.891 517.35 847.971 517.35C845.631 517.35 843.381 516.87 841.221 515.91C839.121 514.89 837.261 513.45 835.641 511.59C834.021 509.67 832.731 507.36 831.771 504.66C830.871 501.9 830.421 498.78 830.421 495.3C830.421 491.82 830.871 488.73 831.771 486.03C832.731 483.27 833.991 480.96 835.551 479.1C837.111 477.18 838.881 475.74 840.861 474.78C842.841 473.76 844.911 473.25 847.071 473.25C848.511 473.25 849.771 473.49 850.851 473.97C851.991 474.45 852.951 474.96 853.731 475.5C854.631 476.16 855.411 476.91 856.071 477.75C856.311 476.85 856.791 476.01 857.511 475.23C858.291 474.45 859.011 473.94 859.671 473.7H861.021C860.901 474.48 860.811 475.29 860.751 476.13C860.691 476.85 860.631 477.63 860.571 478.47C860.571 479.31 860.571 480.12 860.571 480.9C860.571 481.8 860.571 482.73 860.571 483.69C860.631 484.59 860.691 485.4 860.751 486.12C860.811 486.96 860.901 487.77 861.021 488.55H859.671C858.531 484.23 856.851 480.9 854.631 478.56C852.471 476.22 850.251 475.05 847.971 475.05ZM877.193 495.3C877.193 499.14 877.463 502.35 878.003 504.93C878.603 507.51 879.353 509.61 880.253 511.23C881.213 512.79 882.263 513.9 883.403 514.56C884.603 515.22 885.833 515.55 887.093 515.55C888.653 515.55 890.123 515.25 891.503 514.65C892.883 514.05 894.113 513.24 895.193 512.22C896.273 511.2 897.143 509.97 897.803 508.53C898.523 507.09 899.003 505.53 899.243 503.85H900.593C900.353 505.77 899.813 507.57 898.973 509.25C898.193 510.87 897.173 512.28 895.913 513.48C894.653 514.68 893.183 515.61 891.503 516.27C889.883 516.99 888.113 517.35 886.193 517.35C883.913 517.35 881.753 516.87 879.713 515.91C877.673 514.89 875.843 513.45 874.223 511.59C872.663 509.67 871.403 507.36 870.443 504.66C869.543 501.9 869.093 498.78 869.093 495.3C869.093 491.7 869.543 488.52 870.443 485.76C871.343 483 872.513 480.72 873.953 478.92C875.453 477.06 877.163 475.65 879.083 474.69C881.063 473.73 883.133 473.25 885.293 473.25C887.453 473.25 889.493 473.73 891.413 474.69C893.393 475.65 895.103 477.06 896.543 478.92C898.043 480.72 899.243 483 900.143 485.76C901.043 488.52 901.493 491.7 901.493 495.3H877.193ZM885.293 474.6C884.393 474.6 883.493 474.9 882.593 475.5C881.693 476.04 880.853 477.03 880.073 478.47C879.293 479.91 878.633 481.86 878.093 484.32C877.613 486.72 877.313 489.78 877.193 493.5H893.393C893.273 489.78 892.943 486.72 892.403 484.32C891.923 481.86 891.293 479.91 890.513 478.47C889.733 477.03 888.893 476.04 887.993 475.5C887.093 474.9 886.193 474.6 885.293 474.6ZM942.021 476.85V513.75L947.421 515.1V516H934.821V510.6C934.161 511.86 933.321 513 932.301 514.02C931.461 514.86 930.381 515.61 929.061 516.27C927.801 516.99 926.271 517.35 924.471 517.35C922.671 517.35 920.991 517.02 919.431 516.36C917.931 515.7 916.611 514.8 915.471 513.66C914.331 512.46 913.431 511.05 912.771 509.43C912.171 507.75 911.871 505.89 911.871 503.85V476.85L906.471 475.5V474.6H924.021V475.5L919.071 476.85V503.85C919.071 508.11 919.731 511.14 921.051 512.94C922.431 514.68 924.021 515.55 925.821 515.55C927.261 515.55 928.521 515.13 929.601 514.29C930.741 513.45 931.701 512.52 932.481 511.5C933.381 510.36 934.161 509.01 934.821 507.45V476.85L929.871 475.5V474.6H947.421V475.5L942.021 476.85ZM980.732 513.75V476.85L975.332 475.5V474.6H987.932V480C988.532 478.8 989.342 477.69 990.362 476.67C991.202 475.83 992.282 475.05 993.602 474.33C994.922 473.61 996.482 473.25 998.282 473.25C1000.08 473.25 1001.73 473.58 1003.23 474.24C1004.79 474.9 1006.14 475.83 1007.28 477.03C1008.42 478.17 1009.29 479.58 1009.89 481.26C1010.55 482.88 1010.88 484.71 1010.88 486.75V513.75L1016.28 515.1V516H998.732V515.1L1003.68 513.75V486.75C1003.68 482.49 1002.99 479.49 1001.61 477.75C1000.29 475.95 998.732 475.05 996.932 475.05C995.432 475.05 994.142 475.47 993.062 476.31C991.982 477.15 991.052 478.08 990.272 479.1C989.372 480.3 988.592 481.65 987.932 483.15V513.75L992.882 515.1V516H975.332V515.1L980.732 513.75ZM1045.5 493.95C1040.28 493.95 1036.41 495.12 1033.89 497.46C1031.43 499.74 1030.2 502.92 1030.2 507C1030.2 509.7 1030.86 511.8 1032.18 513.3C1033.5 514.8 1034.94 515.55 1036.5 515.55C1037.94 515.55 1039.2 515.13 1040.28 514.29C1041.42 513.45 1042.38 512.52 1043.16 511.5C1044.06 510.36 1044.84 509.01 1045.5 507.45V493.95ZM1038.75 474.6C1036.95 474.6 1035.45 475.23 1034.25 476.49C1033.05 477.69 1032.45 479.31 1032.45 481.35C1032.45 481.83 1032.45 482.25 1032.45 482.61C1032.51 482.97 1032.57 483.3 1032.63 483.6C1032.69 483.9 1032.78 484.2 1032.9 484.5L1025.7 486.3C1025.58 486.12 1025.49 485.88 1025.43 485.58C1025.37 485.28 1025.31 484.95 1025.25 484.59C1025.25 484.23 1025.25 483.75 1025.25 483.15C1025.25 481.89 1025.55 480.69 1026.15 479.55C1026.75 478.35 1027.62 477.3 1028.76 476.4C1029.96 475.44 1031.37 474.69 1032.99 474.15C1034.67 473.55 1036.59 473.25 1038.75 473.25C1043.07 473.25 1046.46 474.48 1048.92 476.94C1051.44 479.4 1052.7 482.67 1052.7 486.75V513.75L1058.1 515.1V516H1045.5V510.6C1044.84 511.86 1044 513 1042.98 514.02C1042.14 514.86 1041.06 515.61 1039.74 516.27C1038.48 516.99 1036.95 517.35 1035.15 517.35C1030.83 517.35 1027.56 516.33 1025.34 514.29C1023.18 512.25 1022.1 509.52 1022.1 506.1C1022.1 504.42 1022.55 502.74 1023.45 501.06C1024.41 499.38 1025.82 497.88 1027.68 496.56C1029.6 495.24 1032.03 494.19 1034.97 493.41C1037.91 492.57 1041.42 492.15 1045.5 492.15V486.75C1045.5 482.25 1044.81 479.1 1043.43 477.3C1042.11 475.5 1040.55 474.6 1038.75 474.6ZM139.65 598C139.65 604.78 138.24 609.7 135.42 612.76C132.66 615.82 128.67 617.35 123.45 617.35C117.33 617.35 112.56 615.67 109.14 612.31C105.78 608.89 104.1 604.12 104.1 598V555.25L98.7 553.9V553H117.15V553.9L111.75 555.25V598C111.75 604.06 112.95 608.5 115.35 611.32C117.75 614.14 120.75 615.55 124.35 615.55C126.39 615.55 128.22 615.22 129.84 614.56C131.52 613.84 132.93 612.76 134.07 611.32C135.27 609.88 136.2 608.08 136.86 605.92C137.52 603.7 137.85 601.06 137.85 598V556.15L132 553.9V553H145.5V553.9L139.65 556.15V598ZM154.12 613.75V576.85L148.72 575.5V574.6H161.32V580C161.92 578.8 162.73 577.69 163.75 576.67C164.59 575.83 165.67 575.05 166.99 574.33C168.31 573.61 169.87 573.25 171.67 573.25C173.47 573.25 175.12 573.58 176.62 574.24C178.18 574.9 179.53 575.83 180.67 577.03C181.81 578.17 182.68 579.58 183.28 581.26C183.94 582.88 184.27 584.71 184.27 586.75V613.75L189.67 615.1V616H172.12V615.1L177.07 613.75V586.75C177.07 582.49 176.38 579.49 175 577.75C173.68 575.95 172.12 575.05 170.32 575.05C168.82 575.05 167.53 575.47 166.45 576.31C165.37 577.15 164.44 578.08 163.66 579.1C162.76 580.3 161.98 581.65 161.32 583.15V613.75L166.27 615.1V616H148.72V615.1L154.12 613.75ZM200.439 613.75V576.85L195.039 575.5V574.6H207.639V613.75L213.039 615.1V616H195.039V615.1L200.439 613.75ZM208.089 564.25C208.089 565.39 207.609 566.44 206.649 567.4C205.749 568.3 204.729 568.75 203.589 568.75C202.449 568.75 201.399 568.3 200.439 567.4C199.539 566.44 199.089 565.39 199.089 564.25C199.089 563.11 199.539 562.09 200.439 561.19C201.399 560.23 202.449 559.75 203.589 559.75C204.729 559.75 205.749 560.23 206.649 561.19C207.609 562.09 208.089 563.11 208.089 564.25ZM219.768 576.85L214.368 575.5V574.6H232.368V575.5L227.418 576.85L238.758 606.1L248.118 577.75L242.268 575.5V574.6H255.768V575.5L249.918 577.75L236.868 617.35H235.518L219.768 576.85ZM265.65 595.3C265.65 599.14 265.92 602.35 266.46 604.93C267.06 607.51 267.81 609.61 268.71 611.23C269.67 612.79 270.72 613.9 271.86 614.56C273.06 615.22 274.29 615.55 275.55 615.55C277.11 615.55 278.58 615.25 279.96 614.65C281.34 614.05 282.57 613.24 283.65 612.22C284.73 611.2 285.6 609.97 286.26 608.53C286.98 607.09 287.46 605.53 287.7 603.85H289.05C288.81 605.77 288.27 607.57 287.43 609.25C286.65 610.87 285.63 612.28 284.37 613.48C283.11 614.68 281.64 615.61 279.96 616.27C278.34 616.99 276.57 617.35 274.65 617.35C272.37 617.35 270.21 616.87 268.17 615.91C266.13 614.89 264.3 613.45 262.68 611.59C261.12 609.67 259.86 607.36 258.9 604.66C258 601.9 257.55 598.78 257.55 595.3C257.55 591.7 258 588.52 258.9 585.76C259.8 583 260.97 580.72 262.41 578.92C263.91 577.06 265.62 575.65 267.54 574.69C269.52 573.73 271.59 573.25 273.75 573.25C275.91 573.25 277.95 573.73 279.87 574.69C281.85 575.65 283.56 577.06 285 578.92C286.5 580.72 287.7 583 288.6 585.76C289.5 588.52 289.95 591.7 289.95 595.3H265.65ZM273.75 574.6C272.85 574.6 271.95 574.9 271.05 575.5C270.15 576.04 269.31 577.03 268.53 578.47C267.75 579.91 267.09 581.86 266.55 584.32C266.07 586.72 265.77 589.78 265.65 593.5H281.85C281.73 589.78 281.4 586.72 280.86 584.32C280.38 581.86 279.75 579.91 278.97 578.47C278.19 577.03 277.35 576.04 276.45 575.5C275.55 574.9 274.65 574.6 273.75 574.6ZM309.328 613.75L314.728 615.1V616H296.728V615.1L302.128 613.75V576.85L296.728 575.5V574.6H309.328V585.4C310.108 583.18 311.038 581.17 312.118 579.37C313.078 577.81 314.248 576.4 315.628 575.14C317.008 573.88 318.658 573.25 320.578 573.25C321.238 573.25 321.868 573.31 322.468 573.43C323.068 573.49 323.608 573.58 324.088 573.7C324.628 573.88 325.108 574.03 325.528 574.15L322.828 580.9C322.468 580.72 322.078 580.51 321.658 580.27C321.298 580.09 320.848 579.94 320.308 579.82C319.828 579.64 319.318 579.55 318.778 579.55C317.218 579.55 315.838 579.97 314.638 580.81C313.438 581.65 312.448 582.58 311.668 583.6C310.708 584.8 309.928 586.15 309.328 587.65V613.75ZM345.36 617.35C343.44 617.35 341.79 617.11 340.41 616.63C339.03 616.21 337.92 615.7 337.08 615.1C336.06 614.44 335.22 613.69 334.56 612.85C334.32 613.75 333.81 614.59 333.03 615.37C332.31 616.15 331.62 616.66 330.96 616.9H329.61C329.67 616.12 329.73 615.31 329.79 614.47C329.85 613.75 329.91 613 329.97 612.22C330.03 611.38 330.06 610.54 330.06 609.7C330.06 608.8 330.03 607.9 329.97 607C329.91 606.1 329.85 605.29 329.79 604.57C329.73 603.73 329.67 602.89 329.61 602.05H330.96C332.1 606.37 333.84 609.7 336.18 612.04C338.52 614.38 341.28 615.55 344.46 615.55C346.98 615.55 349.02 614.77 350.58 613.21C352.2 611.65 353.01 609.73 353.01 607.45C353.01 605.83 352.44 604.42 351.3 603.22C350.22 602.02 348.84 600.94 347.16 599.98C345.48 598.96 343.68 597.97 341.76 597.01C339.84 596.05 338.04 594.97 336.36 593.77C334.68 592.57 333.27 591.16 332.13 589.54C331.05 587.92 330.51 585.94 330.51 583.6C330.51 582.28 330.81 580.99 331.41 579.73C332.01 578.47 332.82 577.36 333.84 576.4C334.92 575.44 336.21 574.69 337.71 574.15C339.21 573.55 340.86 573.25 342.66 573.25C344.22 573.25 345.57 573.49 346.71 573.97C347.91 574.45 348.93 574.96 349.77 575.5C350.67 576.16 351.45 576.91 352.11 577.75C352.35 576.85 352.83 576.01 353.55 575.23C354.33 574.45 355.05 573.94 355.71 573.7H357.06C356.94 574.48 356.85 575.29 356.79 576.13C356.73 576.85 356.67 577.63 356.61 578.47C356.61 579.31 356.61 580.12 356.61 580.9C356.61 581.8 356.61 582.73 356.61 583.69C356.67 584.59 356.73 585.4 356.79 586.12C356.85 586.96 356.94 587.77 357.06 588.55H355.71C354.57 584.23 352.89 580.9 350.67 578.56C348.45 576.22 346.08 575.05 343.56 575.05C341.52 575.05 339.81 575.74 338.43 577.12C337.05 578.44 336.36 580 336.36 581.8C336.36 583.3 336.93 584.59 338.07 585.67C339.21 586.75 340.62 587.77 342.3 588.73C343.98 589.63 345.81 590.56 347.79 591.52C349.83 592.48 351.69 593.59 353.37 594.85C355.05 596.11 356.46 597.61 357.6 599.35C358.74 601.09 359.31 603.19 359.31 605.65C359.31 607.09 358.95 608.53 358.23 609.97C357.57 611.35 356.61 612.61 355.35 613.75C354.15 614.83 352.68 615.7 350.94 616.36C349.26 617.02 347.4 617.35 345.36 617.35ZM371.034 613.75V576.85L365.634 575.5V574.6H378.234V613.75L383.634 615.1V616H365.634V615.1L371.034 613.75ZM378.684 564.25C378.684 565.39 378.204 566.44 377.244 567.4C376.344 568.3 375.324 568.75 374.184 568.75C373.044 568.75 371.994 568.3 371.034 567.4C370.134 566.44 369.684 565.39 369.684 564.25C369.684 563.11 370.134 562.09 371.034 561.19C371.994 560.23 373.044 559.75 374.184 559.75C375.324 559.75 376.344 560.23 377.244 561.19C378.204 562.09 378.684 563.11 378.684 564.25ZM407.463 575.05C406.203 575.05 404.973 575.41 403.773 576.13C402.633 576.79 401.583 577.9 400.623 579.46C399.723 581.02 398.973 583.09 398.373 585.67C397.833 588.25 397.563 591.46 397.563 595.3C397.563 599.14 397.833 602.35 398.373 604.93C398.973 607.51 399.693 609.61 400.533 611.23C401.433 612.79 402.393 613.9 403.413 614.56C404.493 615.22 405.543 615.55 406.563 615.55C408.003 615.55 409.263 615.13 410.343 614.29C411.483 613.45 412.443 612.52 413.223 611.5C414.123 610.36 414.903 609.01 415.563 607.45V580.45C414.963 579.43 414.273 578.53 413.493 577.75C412.833 577.09 411.993 576.49 410.973 575.95C410.013 575.35 408.843 575.05 407.463 575.05ZM422.763 613.75L428.163 615.1V616H415.563V610.6C414.903 611.86 414.063 613 413.043 614.02C412.203 614.86 411.123 615.61 409.803 616.27C408.543 616.99 407.013 617.35 405.213 617.35C403.293 617.35 401.373 616.87 399.453 615.91C397.593 614.89 395.913 613.45 394.413 611.59C392.973 609.67 391.773 607.36 390.813 604.66C389.913 601.9 389.463 598.78 389.463 595.3C389.463 591.82 389.913 588.73 390.813 586.03C391.773 583.27 393.033 580.96 394.593 579.1C396.153 577.18 397.923 575.74 399.903 574.78C401.883 573.76 403.953 573.25 406.113 573.25C407.793 573.25 409.233 573.49 410.433 573.97C411.633 574.45 412.623 574.96 413.403 575.5C414.303 576.16 415.023 576.91 415.563 577.75V555.25L410.163 553.9V553H422.763V613.75ZM457.863 593.95C452.643 593.95 448.773 595.12 446.253 597.46C443.793 599.74 442.563 602.92 442.563 607C442.563 609.7 443.223 611.8 444.543 613.3C445.863 614.8 447.303 615.55 448.863 615.55C450.303 615.55 451.563 615.13 452.643 614.29C453.783 613.45 454.743 612.52 455.523 611.5C456.423 610.36 457.203 609.01 457.863 607.45V593.95ZM451.113 574.6C449.313 574.6 447.813 575.23 446.613 576.49C445.413 577.69 444.813 579.31 444.813 581.35C444.813 581.83 444.813 582.25 444.813 582.61C444.873 582.97 444.933 583.3 444.993 583.6C445.053 583.9 445.143 584.2 445.263 584.5L438.063 586.3C437.943 586.12 437.853 585.88 437.793 585.58C437.733 585.28 437.673 584.95 437.613 584.59C437.613 584.23 437.613 583.75 437.613 583.15C437.613 581.89 437.913 580.69 438.513 579.55C439.113 578.35 439.983 577.3 441.123 576.4C442.323 575.44 443.733 574.69 445.353 574.15C447.033 573.55 448.953 573.25 451.113 573.25C455.433 573.25 458.823 574.48 461.283 576.94C463.803 579.4 465.063 582.67 465.063 586.75V613.75L470.463 615.1V616H457.863V610.6C457.203 611.86 456.363 613 455.343 614.02C454.503 614.86 453.423 615.61 452.103 616.27C450.843 616.99 449.313 617.35 447.513 617.35C443.193 617.35 439.923 616.33 437.703 614.29C435.543 612.25 434.463 609.52 434.463 606.1C434.463 604.42 434.913 602.74 435.813 601.06C436.773 599.38 438.183 597.88 440.043 596.56C441.963 595.24 444.393 594.19 447.333 593.41C450.273 592.57 453.783 592.15 457.863 592.15V586.75C457.863 582.25 457.173 579.1 455.793 577.3C454.473 575.5 452.913 574.6 451.113 574.6ZM494.299 575.05C493.039 575.05 491.809 575.41 490.609 576.13C489.469 576.79 488.419 577.9 487.459 579.46C486.559 581.02 485.809 583.09 485.209 585.67C484.669 588.25 484.399 591.46 484.399 595.3C484.399 599.14 484.669 602.35 485.209 604.93C485.809 607.51 486.529 609.61 487.369 611.23C488.269 612.79 489.229 613.9 490.249 614.56C491.329 615.22 492.379 615.55 493.399 615.55C494.839 615.55 496.099 615.13 497.179 614.29C498.319 613.45 499.279 612.52 500.059 611.5C500.959 610.36 501.739 609.01 502.399 607.45V580.45C501.799 579.43 501.109 578.53 500.329 577.75C499.669 577.09 498.829 576.49 497.809 575.95C496.849 575.35 495.679 575.05 494.299 575.05ZM509.599 613.75L514.999 615.1V616H502.399V610.6C501.739 611.86 500.899 613 499.879 614.02C499.039 614.86 497.959 615.61 496.639 616.27C495.379 616.99 493.849 617.35 492.049 617.35C490.129 617.35 488.209 616.87 486.289 615.91C484.429 614.89 482.749 613.45 481.249 611.59C479.809 609.67 478.609 607.36 477.649 604.66C476.749 601.9 476.299 598.78 476.299 595.3C476.299 591.82 476.749 588.73 477.649 586.03C478.609 583.27 479.869 580.96 481.429 579.1C482.989 577.18 484.759 575.74 486.739 574.78C488.719 573.76 490.789 573.25 492.949 573.25C494.629 573.25 496.069 573.49 497.269 573.97C498.469 574.45 499.459 574.96 500.239 575.5C501.139 576.16 501.859 576.91 502.399 577.75V555.25L496.999 553.9V553H509.599V613.75ZM529.849 595.3C529.849 599.14 530.119 602.35 530.659 604.93C531.259 607.51 532.009 609.61 532.909 611.23C533.869 612.79 534.919 613.9 536.059 614.56C537.259 615.22 538.489 615.55 539.749 615.55C541.309 615.55 542.779 615.25 544.159 614.65C545.539 614.05 546.769 613.24 547.849 612.22C548.929 611.2 549.799 609.97 550.459 608.53C551.179 607.09 551.659 605.53 551.899 603.85H553.249C553.009 605.77 552.469 607.57 551.629 609.25C550.849 610.87 549.829 612.28 548.569 613.48C547.309 614.68 545.839 615.61 544.159 616.27C542.539 616.99 540.769 617.35 538.849 617.35C536.569 617.35 534.409 616.87 532.369 615.91C530.329 614.89 528.499 613.45 526.879 611.59C525.319 609.67 524.059 607.36 523.099 604.66C522.199 601.9 521.749 598.78 521.749 595.3C521.749 591.7 522.199 588.52 523.099 585.76C523.999 583 525.169 580.72 526.609 578.92C528.109 577.06 529.819 575.65 531.739 574.69C533.719 573.73 535.789 573.25 537.949 573.25C540.109 573.25 542.149 573.73 544.069 574.69C546.049 575.65 547.759 577.06 549.199 578.92C550.699 580.72 551.899 583 552.799 585.76C553.699 588.52 554.149 591.7 554.149 595.3H529.849ZM537.949 574.6C537.049 574.6 536.149 574.9 535.249 575.5C534.349 576.04 533.509 577.03 532.729 578.47C531.949 579.91 531.289 581.86 530.749 584.32C530.269 586.72 529.969 589.78 529.849 593.5H546.049C545.929 589.78 545.599 586.72 545.059 584.32C544.579 581.86 543.949 579.91 543.169 578.47C542.389 577.03 541.549 576.04 540.649 575.5C539.749 574.9 538.849 574.6 537.949 574.6ZM600.998 575.05C599.738 575.05 598.508 575.41 597.308 576.13C596.168 576.79 595.118 577.9 594.158 579.46C593.258 581.02 592.508 583.09 591.908 585.67C591.368 588.25 591.098 591.46 591.098 595.3C591.098 599.14 591.368 602.35 591.908 604.93C592.508 607.51 593.228 609.61 594.068 611.23C594.968 612.79 595.928 613.9 596.948 614.56C598.028 615.22 599.078 615.55 600.098 615.55C601.538 615.55 602.798 615.13 603.878 614.29C605.018 613.45 605.978 612.52 606.758 611.5C607.658 610.36 608.438 609.01 609.098 607.45V580.45C608.498 579.43 607.808 578.53 607.028 577.75C606.368 577.09 605.528 576.49 604.508 575.95C603.548 575.35 602.378 575.05 600.998 575.05ZM616.298 613.75L621.698 615.1V616H609.098V610.6C608.438 611.86 607.598 613 606.578 614.02C605.738 614.86 604.658 615.61 603.338 616.27C602.078 616.99 600.548 617.35 598.748 617.35C596.828 617.35 594.908 616.87 592.988 615.91C591.128 614.89 589.448 613.45 587.948 611.59C586.508 609.67 585.308 607.36 584.348 604.66C583.448 601.9 582.998 598.78 582.998 595.3C582.998 591.82 583.448 588.73 584.348 586.03C585.308 583.27 586.568 580.96 588.128 579.1C589.688 577.18 591.458 575.74 593.438 574.78C595.418 573.76 597.488 573.25 599.648 573.25C601.328 573.25 602.768 573.49 603.968 573.97C605.168 574.45 606.158 574.96 606.938 575.5C607.838 576.16 608.558 576.91 609.098 577.75V555.25L603.698 553.9V553H616.298V613.75ZM636.548 595.3C636.548 599.14 636.818 602.35 637.358 604.93C637.958 607.51 638.708 609.61 639.608 611.23C640.568 612.79 641.618 613.9 642.758 614.56C643.958 615.22 645.188 615.55 646.448 615.55C648.008 615.55 649.478 615.25 650.858 614.65C652.238 614.05 653.468 613.24 654.548 612.22C655.628 611.2 656.498 609.97 657.158 608.53C657.878 607.09 658.358 605.53 658.598 603.85H659.948C659.708 605.77 659.168 607.57 658.328 609.25C657.548 610.87 656.528 612.28 655.268 613.48C654.008 614.68 652.538 615.61 650.858 616.27C649.238 616.99 647.468 617.35 645.548 617.35C643.268 617.35 641.108 616.87 639.068 615.91C637.028 614.89 635.198 613.45 633.578 611.59C632.018 609.67 630.758 607.36 629.798 604.66C628.898 601.9 628.448 598.78 628.448 595.3C628.448 591.7 628.898 588.52 629.798 585.76C630.698 583 631.868 580.72 633.308 578.92C634.808 577.06 636.518 575.65 638.438 574.69C640.418 573.73 642.488 573.25 644.648 573.25C646.808 573.25 648.848 573.73 650.768 574.69C652.748 575.65 654.458 577.06 655.898 578.92C657.398 580.72 658.598 583 659.498 585.76C660.398 588.52 660.848 591.7 660.848 595.3H636.548ZM644.648 574.6C643.748 574.6 642.848 574.9 641.948 575.5C641.048 576.04 640.208 577.03 639.428 578.47C638.648 579.91 637.988 581.86 637.448 584.32C636.968 586.72 636.668 589.78 636.548 593.5H652.748C652.628 589.78 652.298 586.72 651.758 584.32C651.278 581.86 650.648 579.91 649.868 578.47C649.088 577.03 648.248 576.04 647.348 575.5C646.448 574.9 645.548 574.6 644.648 574.6ZM721.198 614.2C721.198 611.68 721.708 609.34 722.728 607.18C723.748 605.02 725.038 603.16 726.598 601.6H727.498C727.378 602.38 727.288 603.19 727.228 604.03C727.168 604.75 727.108 605.53 727.048 606.37C727.048 607.21 727.048 608.02 727.048 608.8C727.048 609.94 727.048 610.96 727.048 611.86C727.108 612.7 727.168 613.45 727.228 614.11C727.288 614.83 727.378 615.46 727.498 616H690.148V615.1L695.548 613.75V555.25L690.148 553.9V553H726.598C726.478 553.54 726.388 554.17 726.328 554.89C726.268 555.55 726.208 556.33 726.148 557.23C726.148 558.07 726.148 559.06 726.148 560.2C726.148 561.04 726.148 561.88 726.148 562.72C726.208 563.5 726.268 564.25 726.328 564.97C726.388 565.81 726.478 566.62 726.598 567.4H725.698C724.138 565.84 722.848 563.98 721.828 561.82C720.808 559.66 720.298 557.32 720.298 554.8H703.198V581.8H711.748L715.798 573.7H716.698V591.7H715.798L711.748 583.6H703.198V614.2H721.198ZM753.137 575.05C751.877 575.05 750.647 575.41 749.447 576.13C748.307 576.79 747.257 577.9 746.297 579.46C745.397 581.02 744.647 583.09 744.047 585.67C743.507 588.25 743.237 591.46 743.237 595.3C743.237 599.14 743.507 602.35 744.047 604.93C744.647 607.51 745.367 609.61 746.207 611.23C747.107 612.79 748.067 613.9 749.087 614.56C750.167 615.22 751.217 615.55 752.237 615.55C753.677 615.55 754.937 615.13 756.017 614.29C757.157 613.45 758.117 612.52 758.897 611.5C759.797 610.36 760.577 609.01 761.237 607.45V580.45C760.637 579.43 759.947 578.53 759.167 577.75C758.507 577.09 757.667 576.49 756.647 575.95C755.687 575.35 754.517 575.05 753.137 575.05ZM768.437 613.75L773.837 615.1V616H761.237V610.6C760.577 611.86 759.737 613 758.717 614.02C757.877 614.86 756.797 615.61 755.477 616.27C754.217 616.99 752.687 617.35 750.887 617.35C748.967 617.35 747.047 616.87 745.127 615.91C743.267 614.89 741.587 613.45 740.087 611.59C738.647 609.67 737.447 607.36 736.487 604.66C735.587 601.9 735.137 598.78 735.137 595.3C735.137 591.82 735.587 588.73 736.487 586.03C737.447 583.27 738.707 580.96 740.267 579.1C741.827 577.18 743.597 575.74 745.577 574.78C747.557 573.76 749.627 573.25 751.787 573.25C753.467 573.25 754.907 573.49 756.107 573.97C757.307 574.45 758.297 574.96 759.077 575.5C759.977 576.16 760.697 576.91 761.237 577.75V555.25L755.837 553.9V553H768.437V613.75ZM785.087 613.75V576.85L779.687 575.5V574.6H792.287V613.75L797.687 615.1V616H779.687V615.1L785.087 613.75ZM792.737 564.25C792.737 565.39 792.257 566.44 791.297 567.4C790.397 568.3 789.377 568.75 788.237 568.75C787.097 568.75 786.047 568.3 785.087 567.4C784.187 566.44 783.737 565.39 783.737 564.25C783.737 563.11 784.187 562.09 785.087 561.19C786.047 560.23 787.097 559.75 788.237 559.75C789.377 559.75 790.397 560.23 791.297 561.19C792.257 562.09 792.737 563.11 792.737 564.25ZM808.466 613.75V576.85L803.066 575.5V574.6H815.666V580C816.266 578.8 817.076 577.69 818.096 576.67C818.936 575.83 820.016 575.05 821.336 574.33C822.656 573.61 824.216 573.25 826.016 573.25C828.296 573.25 830.156 573.67 831.596 574.51C833.096 575.35 834.296 576.28 835.196 577.3C836.276 578.5 837.116 579.85 837.716 581.35C838.496 579.85 839.426 578.5 840.506 577.3C841.466 576.28 842.636 575.35 844.016 574.51C845.396 573.67 847.046 573.25 848.966 573.25C850.766 573.25 852.416 573.58 853.916 574.24C855.476 574.9 856.826 575.83 857.966 577.03C859.106 578.17 859.976 579.58 860.576 581.26C861.236 582.88 861.566 584.71 861.566 586.75V613.75L866.966 615.1V616H849.416V615.1L854.366 613.75V586.75C854.366 582.49 853.676 579.49 852.296 577.75C850.976 575.95 849.416 575.05 847.616 575.05C846.116 575.05 844.826 575.47 843.746 576.31C842.666 577.15 841.736 578.08 840.956 579.1C840.056 580.3 839.276 581.65 838.616 583.15V613.75L843.566 615.1V616H826.466V615.1L831.416 613.75V586.75C831.416 582.49 830.726 579.49 829.346 577.75C828.026 575.95 826.466 575.05 824.666 575.05C823.166 575.05 821.876 575.47 820.796 576.31C819.716 577.15 818.786 578.08 818.006 579.1C817.106 580.3 816.326 581.65 815.666 583.15V613.75L820.616 615.1V616H803.066V615.1L808.466 613.75ZM892.574 575.05C891.194 575.05 889.994 575.35 888.974 575.95C887.954 576.49 887.114 577.09 886.454 577.75C885.674 578.53 885.014 579.43 884.474 580.45V607.45C885.134 609.01 885.914 610.36 886.814 611.5C887.594 612.52 888.524 613.45 889.604 614.29C890.684 615.13 891.974 615.55 893.474 615.55C894.494 615.55 895.514 615.22 896.534 614.56C897.614 613.9 898.574 612.79 899.414 611.23C900.314 609.61 901.034 607.51 901.574 604.93C902.174 602.35 902.474 599.14 902.474 595.3C902.474 591.46 902.174 588.25 901.574 585.67C901.034 583.09 900.284 581.02 899.324 579.46C898.424 577.9 897.374 576.79 896.174 576.13C895.034 575.41 893.834 575.05 892.574 575.05ZM893.924 573.25C896.084 573.25 898.154 573.76 900.134 574.78C902.114 575.74 903.884 577.18 905.444 579.1C907.004 580.96 908.234 583.27 909.134 586.03C910.094 588.73 910.574 591.82 910.574 595.3C910.574 598.78 910.094 601.9 909.134 604.66C908.234 607.36 907.034 609.67 905.534 611.59C904.094 613.45 902.414 614.89 900.494 615.91C898.634 616.87 896.744 617.35 894.824 617.35C893.024 617.35 891.464 616.99 890.144 616.27C888.824 615.61 887.744 614.86 886.904 614.02C885.884 613 885.074 611.86 884.474 610.6V616H871.874V615.1L877.274 613.75V555.25L871.874 553.9V553H884.474V577.75C885.014 576.91 885.734 576.16 886.634 575.5C887.414 574.96 888.374 574.45 889.514 573.97C890.714 573.49 892.184 573.25 893.924 573.25ZM951.513 576.85V613.75L956.913 615.1V616H944.313V610.6C943.653 611.86 942.813 613 941.793 614.02C940.953 614.86 939.873 615.61 938.553 616.27C937.293 616.99 935.763 617.35 933.963 617.35C932.163 617.35 930.483 617.02 928.923 616.36C927.423 615.7 926.103 614.8 924.963 613.66C923.823 612.46 922.923 611.05 922.263 609.43C921.663 607.75 921.363 605.89 921.363 603.85V576.85L915.963 575.5V574.6H933.513V575.5L928.563 576.85V603.85C928.563 608.11 929.223 611.14 930.543 612.94C931.923 614.68 933.513 615.55 935.313 615.55C936.753 615.55 938.013 615.13 939.093 614.29C940.233 613.45 941.193 612.52 941.973 611.5C942.873 610.36 943.653 609.01 944.313 607.45V576.85L939.363 575.5V574.6H956.913V575.5L951.513 576.85ZM975.803 613.75L981.203 615.1V616H963.203V615.1L968.603 613.75V576.85L963.203 575.5V574.6H975.803V585.4C976.583 583.18 977.513 581.17 978.593 579.37C979.553 577.81 980.723 576.4 982.103 575.14C983.483 573.88 985.133 573.25 987.053 573.25C987.713 573.25 988.343 573.31 988.943 573.43C989.543 573.49 990.083 573.58 990.563 573.7C991.103 573.88 991.583 574.03 992.003 574.15L989.303 580.9C988.943 580.72 988.553 580.51 988.133 580.27C987.773 580.09 987.323 579.94 986.783 579.82C986.303 579.64 985.793 579.55 985.253 579.55C983.693 579.55 982.313 579.97 981.113 580.81C979.913 581.65 978.923 582.58 978.143 583.6C977.183 584.8 976.403 586.15 975.803 587.65V613.75ZM1011.41 602.5C1012.43 602.5 1013.42 602.26 1014.38 601.78C1015.34 601.24 1016.21 600.4 1016.99 599.26C1017.77 598.12 1018.37 596.68 1018.79 594.94C1019.27 593.14 1019.51 591.01 1019.51 588.55C1019.51 586.09 1019.27 583.99 1018.79 582.25C1018.37 580.45 1017.77 579.01 1016.99 577.93C1016.21 576.79 1015.34 575.95 1014.38 575.41C1013.42 574.87 1012.43 574.6 1011.41 574.6C1010.39 574.6 1009.4 574.87 1008.44 575.41C1007.48 575.95 1006.61 576.79 1005.83 577.93C1005.05 579.01 1004.42 580.45 1003.94 582.25C1003.52 583.99 1003.31 586.09 1003.31 588.55C1003.31 591.01 1003.52 593.14 1003.94 594.94C1004.42 596.68 1005.05 598.12 1005.83 599.26C1006.61 600.4 1007.48 601.24 1008.44 601.78C1009.4 602.26 1010.39 602.5 1011.41 602.5ZM1013.21 637.24C1015.43 637.24 1017.44 636.91 1019.24 636.25C1021.04 635.65 1022.54 634.81 1023.74 633.73C1025 632.65 1025.96 631.39 1026.62 629.95C1027.28 628.51 1027.61 627.01 1027.61 625.45C1027.61 619.75 1024.76 616.9 1019.06 616.9H1004.66C1001.24 616.9 998.715 616.21 997.095 614.83C995.535 613.45 994.755 611.74 994.755 609.7C994.755 608.32 995.085 607.12 995.745 606.1C996.465 605.02 997.245 604.06 998.085 603.22C999.105 602.32 1000.25 601.48 1001.51 600.7C1000.31 599.92 999.255 598.96 998.355 597.82C997.515 596.8 996.765 595.54 996.105 594.04C995.505 592.54 995.205 590.71 995.205 588.55C995.205 586.39 995.595 584.38 996.375 582.52C997.215 580.66 998.355 579.04 999.795 577.66C1001.24 576.28 1002.95 575.2 1004.93 574.42C1006.91 573.64 1009.07 573.25 1011.41 573.25C1012.43 573.25 1013.42 573.34 1014.38 573.52C1015.34 573.7 1016.21 573.91 1016.99 574.15C1017.89 574.39 1018.73 574.69 1019.51 575.05C1019.99 574.39 1020.56 573.79 1021.22 573.25C1021.82 572.77 1022.57 572.35 1023.47 571.99C1024.37 571.63 1025.45 571.45 1026.71 571.45C1028.75 571.45 1030.34 571.84 1031.48 572.62C1032.68 573.34 1033.61 574.15 1034.27 575.05C1034.99 576.13 1035.47 577.33 1035.71 578.65L1028.96 580C1028.78 578.8 1028.51 577.69 1028.15 576.67C1027.85 575.83 1027.43 575.05 1026.89 574.33C1026.35 573.61 1025.69 573.25 1024.91 573.25C1024.25 573.25 1023.65 573.4 1023.11 573.7C1022.57 574 1022.15 574.3 1021.85 574.6C1021.43 575.02 1021.1 575.47 1020.86 575.95C1023.14 577.33 1024.82 579.1 1025.9 581.26C1027.04 583.42 1027.61 585.85 1027.61 588.55C1027.61 590.71 1027.19 592.72 1026.35 594.58C1025.57 596.44 1024.46 598.06 1023.02 599.44C1021.58 600.82 1019.87 601.9 1017.89 602.68C1015.91 603.46 1013.75 603.85 1011.41 603.85C1010.15 603.85 1009.01 603.76 1007.99 603.58C1006.97 603.34 1006.07 603.07 1005.29 602.77C1004.39 602.47 1003.58 602.08 1002.86 601.6C1002.02 602.14 1001.27 602.71 1000.61 603.31C1000.01 603.79 999.465 604.36 998.985 605.02C998.565 605.68 998.355 606.34 998.355 607C998.355 607.9 998.775 608.65 999.615 609.25C1000.46 609.79 1002.14 610.06 1004.66 610.06H1019.06C1022.66 610.06 1025.57 611.23 1027.79 613.57C1030.07 615.85 1031.21 618.91 1031.21 622.75C1031.21 625.03 1030.76 627.13 1029.86 629.05C1029.02 631.03 1027.82 632.74 1026.26 634.18C1024.7 635.68 1022.81 636.85 1020.59 637.69C1018.37 638.53 1015.91 638.95 1013.21 638.95C1009.85 638.95 1006.91 638.56 1004.39 637.78C1001.93 637.06 999.885 636.04 998.265 634.72C996.645 633.46 995.415 631.96 994.575 630.22C993.795 628.48 993.405 626.59 993.405 624.55C993.405 623.77 993.495 623.05 993.675 622.39C993.855 621.79 994.065 621.28 994.305 620.86C994.545 620.38 994.845 619.96 995.205 619.6L1001.96 622.3C1001.78 622.72 1001.63 623.17 1001.51 623.65C1001.21 624.55 1001.06 625.45 1001.06 626.35C1001.06 629.53 1002.11 632.14 1004.21 634.18C1006.37 636.22 1009.37 637.24 1013.21 637.24ZM1056.44 574.6C1055.42 574.6 1054.37 574.96 1053.29 575.68C1052.27 576.34 1051.31 577.48 1050.41 579.1C1049.57 580.66 1048.85 582.76 1048.25 585.4C1047.71 588.04 1047.44 591.34 1047.44 595.3C1047.44 599.26 1047.71 602.56 1048.25 605.2C1048.85 607.84 1049.57 609.97 1050.41 611.59C1051.31 613.15 1052.27 614.29 1053.29 615.01C1054.37 615.67 1055.42 616 1056.44 616C1057.46 616 1058.48 615.67 1059.5 615.01C1060.58 614.29 1061.54 613.15 1062.38 611.59C1063.28 609.97 1064 607.84 1064.54 605.2C1065.14 602.56 1065.44 599.26 1065.44 595.3C1065.44 591.34 1065.14 588.04 1064.54 585.4C1064 582.76 1063.28 580.66 1062.38 579.1C1061.54 577.48 1060.58 576.34 1059.5 575.68C1058.48 574.96 1057.46 574.6 1056.44 574.6ZM1056.44 573.25C1058.66 573.25 1060.79 573.76 1062.83 574.78C1064.93 575.74 1066.76 577.18 1068.32 579.1C1069.94 580.96 1071.2 583.27 1072.1 586.03C1073.06 588.73 1073.54 591.82 1073.54 595.3C1073.54 598.78 1073.06 601.9 1072.1 604.66C1071.2 607.36 1069.94 609.67 1068.32 611.59C1066.76 613.45 1064.93 614.89 1062.83 615.91C1060.79 616.87 1058.66 617.35 1056.44 617.35C1054.16 617.35 1052 616.87 1049.96 615.91C1047.92 614.89 1046.09 613.45 1044.47 611.59C1042.91 609.67 1041.65 607.36 1040.69 604.66C1039.79 601.9 1039.34 598.78 1039.34 595.3C1039.34 591.82 1039.79 588.73 1040.69 586.03C1041.65 583.27 1042.91 580.96 1044.47 579.1C1046.09 577.18 1047.92 575.74 1049.96 574.78C1052 573.76 1054.16 573.25 1056.44 573.25Z" fill="white"/>
</svg>
