<svg width="1300" height="976" viewBox="0 0 1300 976" fill="none" xmlns="http://www.w3.org/2000/svg">
<path d="M108.15 445.3C108.15 449.14 108.42 452.35 108.96 454.93C109.56 457.51 110.31 459.61 111.21 461.23C112.17 462.79 113.22 463.9 114.36 464.56C115.56 465.22 116.79 465.55 118.05 465.55C119.61 465.55 121.08 465.25 122.46 464.65C123.84 464.05 125.07 463.24 126.15 462.22C127.23 461.2 128.1 459.97 128.76 458.53C129.48 457.09 129.96 455.53 130.2 453.85H131.55C131.31 455.77 130.77 457.57 129.93 459.25C129.15 460.87 128.13 462.28 126.87 463.48C125.61 464.68 124.14 465.61 122.46 466.27C120.84 466.99 119.07 467.35 117.15 467.35C114.87 467.35 112.71 466.87 110.67 465.91C108.63 464.89 106.8 463.45 105.18 461.59C103.62 459.67 102.36 457.36 101.4 454.66C100.5 451.9 100.05 448.78 100.05 445.3C100.05 441.7 100.5 438.52 101.4 435.76C102.3 433 103.47 430.72 104.91 428.92C106.41 427.06 108.12 425.65 110.04 424.69C112.02 423.73 114.09 423.25 116.25 423.25C118.41 423.25 120.45 423.73 122.37 424.69C124.35 425.65 126.06 427.06 127.5 428.92C129 430.72 130.2 433 131.1 435.76C132 438.52 132.45 441.7 132.45 445.3H108.15ZM116.25 424.6C115.35 424.6 114.45 424.9 113.55 425.5C112.65 426.04 111.81 427.03 111.03 428.47C110.25 429.91 109.59 431.86 109.05 434.32C108.57 436.72 108.27 439.78 108.15 443.5H124.35C124.23 439.78 123.9 436.72 123.36 434.32C122.88 431.86 122.25 429.91 121.47 428.47C120.69 427.03 119.85 426.04 118.95 425.5C118.05 424.9 117.15 424.6 116.25 424.6ZM166.249 463.75V426.85L160.849 425.5V424.6H173.449V430C174.049 428.8 174.859 427.69 175.879 426.67C176.719 425.83 177.799 425.05 179.119 424.33C180.439 423.61 181.999 423.25 183.799 423.25C186.079 423.25 187.939 423.67 189.379 424.51C190.879 425.35 192.079 426.28 192.979 427.3C194.059 428.5 194.899 429.85 195.499 431.35C196.279 429.85 197.209 428.5 198.289 427.3C199.249 426.28 200.419 425.35 201.799 424.51C203.179 423.67 204.829 423.25 206.749 423.25C208.549 423.25 210.199 423.58 211.699 424.24C213.259 424.9 214.609 425.83 215.749 427.03C216.889 428.17 217.759 429.58 218.359 431.26C219.019 432.88 219.349 434.71 219.349 436.75V463.75L224.749 465.1V466H207.199V465.1L212.149 463.75V436.75C212.149 432.49 211.459 429.49 210.079 427.75C208.759 425.95 207.199 425.05 205.399 425.05C203.899 425.05 202.609 425.47 201.529 426.31C200.449 427.15 199.519 428.08 198.739 429.1C197.839 430.3 197.059 431.65 196.399 433.15V463.75L201.349 465.1V466H184.249V465.1L189.199 463.75V436.75C189.199 432.49 188.509 429.49 187.129 427.75C185.809 425.95 184.249 425.05 182.449 425.05C180.949 425.05 179.659 425.47 178.579 426.31C177.499 427.15 176.569 428.08 175.789 429.1C174.889 430.3 174.109 431.65 173.449 433.15V463.75L178.399 465.1V466H160.849V465.1L166.249 463.75ZM253.957 443.95C248.737 443.95 244.867 445.12 242.347 447.46C239.887 449.74 238.657 452.92 238.657 457C238.657 459.7 239.317 461.8 240.637 463.3C241.957 464.8 243.397 465.55 244.957 465.55C246.397 465.55 247.657 465.13 248.737 464.29C249.877 463.45 250.837 462.52 251.617 461.5C252.517 460.36 253.297 459.01 253.957 457.45V443.95ZM247.207 424.6C245.407 424.6 243.907 425.23 242.707 426.49C241.507 427.69 240.907 429.31 240.907 431.35C240.907 431.83 240.907 432.25 240.907 432.61C240.967 432.97 241.027 433.3 241.087 433.6C241.147 433.9 241.237 434.2 241.357 434.5L234.157 436.3C234.037 436.12 233.947 435.88 233.887 435.58C233.827 435.28 233.767 434.95 233.707 434.59C233.707 434.23 233.707 433.75 233.707 433.15C233.707 431.89 234.007 430.69 234.607 429.55C235.207 428.35 236.077 427.3 237.217 426.4C238.417 425.44 239.827 424.69 241.447 424.15C243.127 423.55 245.047 423.25 247.207 423.25C251.527 423.25 254.917 424.48 257.377 426.94C259.897 429.4 261.157 432.67 261.157 436.75V463.75L266.557 465.1V466H253.957V460.6C253.297 461.86 252.457 463 251.437 464.02C250.597 464.86 249.517 465.61 248.197 466.27C246.937 466.99 245.407 467.35 243.607 467.35C239.287 467.35 236.017 466.33 233.797 464.29C231.637 462.25 230.557 459.52 230.557 456.1C230.557 454.42 231.007 452.74 231.907 451.06C232.867 449.38 234.277 447.88 236.137 446.56C238.057 445.24 240.487 444.19 243.427 443.41C246.367 442.57 249.877 442.15 253.957 442.15V436.75C253.957 432.25 253.267 429.1 251.887 427.3C250.567 425.5 249.007 424.6 247.207 424.6ZM277.343 463.75V426.85L271.943 425.5V424.6H284.543V463.75L289.943 465.1V466H271.943V465.1L277.343 463.75ZM284.993 414.25C284.993 415.39 284.513 416.44 283.553 417.4C282.653 418.3 281.633 418.75 280.493 418.75C279.353 418.75 278.303 418.3 277.343 417.4C276.443 416.44 275.993 415.39 275.993 414.25C275.993 413.11 276.443 412.09 277.343 411.19C278.303 410.23 279.353 409.75 280.493 409.75C281.633 409.75 282.653 410.23 283.553 411.19C284.513 412.09 284.993 413.11 284.993 414.25ZM311.522 467.35C309.602 467.35 307.952 467.11 306.572 466.63C305.192 466.21 304.082 465.7 303.242 465.1C302.222 464.44 301.382 463.69 300.722 462.85C300.482 463.75 299.972 464.59 299.192 465.37C298.472 466.15 297.782 466.66 297.122 466.9H295.772C295.832 466.12 295.892 465.31 295.952 464.47C296.012 463.75 296.072 463 296.132 462.22C296.192 461.38 296.222 460.54 296.222 459.7C296.222 458.8 296.192 457.9 296.132 457C296.072 456.1 296.012 455.29 295.952 454.57C295.892 453.73 295.832 452.89 295.772 452.05H297.122C298.262 456.37 300.002 459.7 302.342 462.04C304.682 464.38 307.442 465.55 310.622 465.55C313.142 465.55 315.182 464.77 316.742 463.21C318.362 461.65 319.172 459.73 319.172 457.45C319.172 455.83 318.602 454.42 317.462 453.22C316.382 452.02 315.002 450.94 313.322 449.98C311.642 448.96 309.842 447.97 307.922 447.01C306.002 446.05 304.202 444.97 302.522 443.77C300.842 442.57 299.432 441.16 298.292 439.54C297.212 437.92 296.672 435.94 296.672 433.6C296.672 432.28 296.972 430.99 297.572 429.73C298.172 428.47 298.982 427.36 300.002 426.4C301.082 425.44 302.372 424.69 303.872 424.15C305.372 423.55 307.022 423.25 308.822 423.25C310.382 423.25 311.732 423.49 312.872 423.97C314.072 424.45 315.092 424.96 315.932 425.5C316.832 426.16 317.612 426.91 318.272 427.75C318.512 426.85 318.992 426.01 319.712 425.23C320.492 424.45 321.212 423.94 321.872 423.7H323.222C323.102 424.48 323.012 425.29 322.952 426.13C322.892 426.85 322.832 427.63 322.772 428.47C322.772 429.31 322.772 430.12 322.772 430.9C322.772 431.8 322.772 432.73 322.772 433.69C322.832 434.59 322.892 435.4 322.952 436.12C323.012 436.96 323.102 437.77 323.222 438.55H321.872C320.732 434.23 319.052 430.9 316.832 428.56C314.612 426.22 312.242 425.05 309.722 425.05C307.682 425.05 305.972 425.74 304.592 427.12C303.212 428.44 302.522 430 302.522 431.8C302.522 433.3 303.092 434.59 304.232 435.67C305.372 436.75 306.782 437.77 308.462 438.73C310.142 439.63 311.972 440.56 313.952 441.52C315.992 442.48 317.852 443.59 319.532 444.85C321.212 446.11 322.622 447.61 323.762 449.35C324.902 451.09 325.472 453.19 325.472 455.65C325.472 457.09 325.112 458.53 324.392 459.97C323.732 461.35 322.772 462.61 321.512 463.75C320.312 464.83 318.842 465.7 317.102 466.36C315.422 467.02 313.562 467.35 311.522 467.35ZM366.018 463.75L371.418 465.1V466H353.418V465.1L358.818 463.75V426.85L353.418 425.5V424.6H366.018V435.4C366.798 433.18 367.728 431.17 368.808 429.37C369.768 427.81 370.938 426.4 372.318 425.14C373.698 423.88 375.348 423.25 377.268 423.25C377.928 423.25 378.558 423.31 379.158 423.43C379.758 423.49 380.298 423.58 380.778 423.7C381.318 423.88 381.798 424.03 382.218 424.15L379.518 430.9C379.158 430.72 378.768 430.51 378.348 430.27C377.988 430.09 377.538 429.94 376.998 429.82C376.518 429.64 376.008 429.55 375.468 429.55C373.908 429.55 372.528 429.97 371.328 430.81C370.128 431.65 369.138 432.58 368.358 433.6C367.398 434.8 366.618 436.15 366.018 437.65V463.75ZM393.97 445.3C393.97 449.14 394.24 452.35 394.78 454.93C395.38 457.51 396.13 459.61 397.03 461.23C397.99 462.79 399.04 463.9 400.18 464.56C401.38 465.22 402.61 465.55 403.87 465.55C405.43 465.55 406.9 465.25 408.28 464.65C409.66 464.05 410.89 463.24 411.97 462.22C413.05 461.2 413.92 459.97 414.58 458.53C415.3 457.09 415.78 455.53 416.02 453.85H417.37C417.13 455.77 416.59 457.57 415.75 459.25C414.97 460.87 413.95 462.28 412.69 463.48C411.43 464.68 409.96 465.61 408.28 466.27C406.66 466.99 404.89 467.35 402.97 467.35C400.69 467.35 398.53 466.87 396.49 465.91C394.45 464.89 392.62 463.45 391 461.59C389.44 459.67 388.18 457.36 387.22 454.66C386.32 451.9 385.87 448.78 385.87 445.3C385.87 441.7 386.32 438.52 387.22 435.76C388.12 433 389.29 430.72 390.73 428.92C392.23 427.06 393.94 425.65 395.86 424.69C397.84 423.73 399.91 423.25 402.07 423.25C404.23 423.25 406.27 423.73 408.19 424.69C410.17 425.65 411.88 427.06 413.32 428.92C414.82 430.72 416.02 433 416.92 435.76C417.82 438.52 418.27 441.7 418.27 445.3H393.97ZM402.07 424.6C401.17 424.6 400.27 424.9 399.37 425.5C398.47 426.04 397.63 427.03 396.85 428.47C396.07 429.91 395.41 431.86 394.87 434.32C394.39 436.72 394.09 439.78 393.97 443.5H410.17C410.05 439.78 409.72 436.72 409.18 434.32C408.7 431.86 408.07 429.91 407.29 428.47C406.51 427.03 405.67 426.04 404.77 425.5C403.87 424.9 402.97 424.6 402.07 424.6ZM443.498 425.05C442.358 425.05 441.218 425.41 440.078 426.13C438.998 426.79 438.008 427.9 437.108 429.46C436.208 431.02 435.458 433.09 434.858 435.67C434.318 438.25 434.048 441.46 434.048 445.3C434.048 449.14 434.318 452.35 434.858 454.93C435.458 457.51 436.238 459.61 437.198 461.23C438.158 462.79 439.238 463.9 440.438 464.56C441.698 465.22 443.018 465.55 444.398 465.55C445.958 465.55 447.428 465.25 448.808 464.65C450.188 464.05 451.418 463.24 452.498 462.22C453.578 461.2 454.448 459.97 455.108 458.53C455.828 457.09 456.308 455.53 456.548 453.85H457.898C457.658 455.77 457.118 457.57 456.278 459.25C455.498 460.87 454.478 462.28 453.218 463.48C451.958 464.68 450.488 465.61 448.808 466.27C447.188 466.99 445.418 467.35 443.498 467.35C441.158 467.35 438.908 466.87 436.748 465.91C434.648 464.89 432.788 463.45 431.168 461.59C429.548 459.67 428.258 457.36 427.298 454.66C426.398 451.9 425.948 448.78 425.948 445.3C425.948 441.82 426.398 438.73 427.298 436.03C428.258 433.27 429.518 430.96 431.078 429.1C432.638 427.18 434.408 425.74 436.388 424.78C438.368 423.76 440.438 423.25 442.598 423.25C444.038 423.25 445.298 423.49 446.378 423.97C447.518 424.45 448.478 424.96 449.258 425.5C450.158 426.16 450.938 426.91 451.598 427.75C451.838 426.85 452.318 426.01 453.038 425.23C453.818 424.45 454.538 423.94 455.198 423.7H456.548C456.428 424.48 456.338 425.29 456.278 426.13C456.218 426.85 456.158 427.63 456.098 428.47C456.098 429.31 456.098 430.12 456.098 430.9C456.098 431.8 456.098 432.73 456.098 433.69C456.158 434.59 456.218 435.4 456.278 436.12C456.338 436.96 456.428 437.77 456.548 438.55H455.198C454.058 434.23 452.378 430.9 450.158 428.56C447.998 426.22 445.778 425.05 443.498 425.05ZM472.72 445.3C472.72 449.14 472.99 452.35 473.53 454.93C474.13 457.51 474.88 459.61 475.78 461.23C476.74 462.79 477.79 463.9 478.93 464.56C480.13 465.22 481.36 465.55 482.62 465.55C484.18 465.55 485.65 465.25 487.03 464.65C488.41 464.05 489.64 463.24 490.72 462.22C491.8 461.2 492.67 459.97 493.33 458.53C494.05 457.09 494.53 455.53 494.77 453.85H496.12C495.88 455.77 495.34 457.57 494.5 459.25C493.72 460.87 492.7 462.28 491.44 463.48C490.18 464.68 488.71 465.61 487.03 466.27C485.41 466.99 483.64 467.35 481.72 467.35C479.44 467.35 477.28 466.87 475.24 465.91C473.2 464.89 471.37 463.45 469.75 461.59C468.19 459.67 466.93 457.36 465.97 454.66C465.07 451.9 464.62 448.78 464.62 445.3C464.62 441.7 465.07 438.52 465.97 435.76C466.87 433 468.04 430.72 469.48 428.92C470.98 427.06 472.69 425.65 474.61 424.69C476.59 423.73 478.66 423.25 480.82 423.25C482.98 423.25 485.02 423.73 486.94 424.69C488.92 425.65 490.63 427.06 492.07 428.92C493.57 430.72 494.77 433 495.67 435.76C496.57 438.52 497.02 441.7 497.02 445.3H472.72ZM480.82 424.6C479.92 424.6 479.02 424.9 478.12 425.5C477.22 426.04 476.38 427.03 475.6 428.47C474.82 429.91 474.16 431.86 473.62 434.32C473.14 436.72 472.84 439.78 472.72 443.5H488.92C488.8 439.78 488.47 436.72 487.93 434.32C487.45 431.86 486.82 429.91 486.04 428.47C485.26 427.03 484.42 426.04 483.52 425.5C482.62 424.9 481.72 424.6 480.82 424.6ZM509.198 463.75V426.85L503.798 425.5V424.6H516.398V430C516.998 428.8 517.808 427.69 518.828 426.67C519.668 425.83 520.748 425.05 522.068 424.33C523.388 423.61 524.948 423.25 526.748 423.25C528.548 423.25 530.198 423.58 531.698 424.24C533.258 424.9 534.608 425.83 535.748 427.03C536.888 428.17 537.758 429.58 538.358 431.26C539.018 432.88 539.348 434.71 539.348 436.75V463.75L544.748 465.1V466H527.198V465.1L532.148 463.75V436.75C532.148 432.49 531.458 429.49 530.078 427.75C528.758 425.95 527.198 425.05 525.398 425.05C523.898 425.05 522.608 425.47 521.528 426.31C520.448 427.15 519.518 428.08 518.738 429.1C517.838 430.3 517.058 431.65 516.398 433.15V463.75L521.348 465.1V466H503.798V465.1L509.198 463.75ZM573.067 424.6V426.4H562.717V455.11C562.717 458.77 563.377 461.44 564.697 463.12C566.017 464.74 567.457 465.55 569.017 465.55C571.057 465.55 572.767 464.8 574.147 463.3C575.587 461.74 576.427 459.49 576.667 456.55H578.017C577.777 459.97 576.727 462.64 574.867 464.56C573.067 466.42 570.817 467.35 568.117 467.35C564.277 467.35 561.217 466.24 558.937 464.02C556.657 461.74 555.517 458.8 555.517 455.2V426.4H547.867V424.6H555.517V414.25L562.717 409.3V424.6H573.067ZM590.23 445.3C590.23 449.14 590.5 452.35 591.04 454.93C591.64 457.51 592.39 459.61 593.29 461.23C594.25 462.79 595.3 463.9 596.44 464.56C597.64 465.22 598.87 465.55 600.13 465.55C601.69 465.55 603.16 465.25 604.54 464.65C605.92 464.05 607.15 463.24 608.23 462.22C609.31 461.2 610.18 459.97 610.84 458.53C611.56 457.09 612.04 455.53 612.28 453.85H613.63C613.39 455.77 612.85 457.57 612.01 459.25C611.23 460.87 610.21 462.28 608.95 463.48C607.69 464.68 606.22 465.61 604.54 466.27C602.92 466.99 601.15 467.35 599.23 467.35C596.95 467.35 594.79 466.87 592.75 465.91C590.71 464.89 588.88 463.45 587.26 461.59C585.7 459.67 584.44 457.36 583.48 454.66C582.58 451.9 582.13 448.78 582.13 445.3C582.13 441.7 582.58 438.52 583.48 435.76C584.38 433 585.55 430.72 586.99 428.92C588.49 427.06 590.2 425.65 592.12 424.69C594.1 423.73 596.17 423.25 598.33 423.25C600.49 423.25 602.53 423.73 604.45 424.69C606.43 425.65 608.14 427.06 609.58 428.92C611.08 430.72 612.28 433 613.18 435.76C614.08 438.52 614.53 441.7 614.53 445.3H590.23ZM598.33 424.6C597.43 424.6 596.53 424.9 595.63 425.5C594.73 426.04 593.89 427.03 593.11 428.47C592.33 429.91 591.67 431.86 591.13 434.32C590.65 436.72 590.35 439.78 590.23 443.5H606.43C606.31 439.78 605.98 436.72 605.44 434.32C604.96 431.86 604.33 429.91 603.55 428.47C602.77 427.03 601.93 426.04 601.03 425.5C600.13 424.9 599.23 424.6 598.33 424.6ZM626.708 463.75V426.85L621.308 425.5V424.6H633.908V430C634.508 428.8 635.318 427.69 636.338 426.67C637.178 425.83 638.258 425.05 639.578 424.33C640.898 423.61 642.458 423.25 644.258 423.25C646.538 423.25 648.398 423.67 649.838 424.51C651.338 425.35 652.538 426.28 653.438 427.3C654.518 428.5 655.358 429.85 655.958 431.35C656.738 429.85 657.668 428.5 658.748 427.3C659.708 426.28 660.878 425.35 662.258 424.51C663.638 423.67 665.288 423.25 667.208 423.25C669.008 423.25 670.658 423.58 672.158 424.24C673.718 424.9 675.068 425.83 676.208 427.03C677.348 428.17 678.218 429.58 678.818 431.26C679.478 432.88 679.808 434.71 679.808 436.75V463.75L685.208 465.1V466H667.658V465.1L672.608 463.75V436.75C672.608 432.49 671.918 429.49 670.538 427.75C669.218 425.95 667.658 425.05 665.858 425.05C664.358 425.05 663.068 425.47 661.988 426.31C660.908 427.15 659.978 428.08 659.198 429.1C658.298 430.3 657.518 431.65 656.858 433.15V463.75L661.808 465.1V466H644.708V465.1L649.658 463.75V436.75C649.658 432.49 648.968 429.49 647.588 427.75C646.268 425.95 644.708 425.05 642.908 425.05C641.408 425.05 640.118 425.47 639.038 426.31C637.958 427.15 637.028 428.08 636.248 429.1C635.348 430.3 634.568 431.65 633.908 433.15V463.75L638.858 465.1V466H621.308V465.1L626.708 463.75ZM699.566 445.3C699.566 449.14 699.836 452.35 700.376 454.93C700.976 457.51 701.726 459.61 702.626 461.23C703.586 462.79 704.636 463.9 705.776 464.56C706.976 465.22 708.206 465.55 709.466 465.55C711.026 465.55 712.496 465.25 713.876 464.65C715.256 464.05 716.486 463.24 717.566 462.22C718.646 461.2 719.516 459.97 720.176 458.53C720.896 457.09 721.376 455.53 721.616 453.85H722.966C722.726 455.77 722.186 457.57 721.346 459.25C720.566 460.87 719.546 462.28 718.286 463.48C717.026 464.68 715.556 465.61 713.876 466.27C712.256 466.99 710.486 467.35 708.566 467.35C706.286 467.35 704.126 466.87 702.086 465.91C700.046 464.89 698.216 463.45 696.596 461.59C695.036 459.67 693.776 457.36 692.816 454.66C691.916 451.9 691.466 448.78 691.466 445.3C691.466 441.7 691.916 438.52 692.816 435.76C693.716 433 694.886 430.72 696.326 428.92C697.826 427.06 699.536 425.65 701.456 424.69C703.436 423.73 705.506 423.25 707.666 423.25C709.826 423.25 711.866 423.73 713.786 424.69C715.766 425.65 717.476 427.06 718.916 428.92C720.416 430.72 721.616 433 722.516 435.76C723.416 438.52 723.866 441.7 723.866 445.3H699.566ZM707.666 424.6C706.766 424.6 705.866 424.9 704.966 425.5C704.066 426.04 703.226 427.03 702.446 428.47C701.666 429.91 701.006 431.86 700.466 434.32C699.986 436.72 699.686 439.78 699.566 443.5H715.766C715.646 439.78 715.316 436.72 714.776 434.32C714.296 431.86 713.666 429.91 712.886 428.47C712.106 427.03 711.266 426.04 710.366 425.5C709.466 424.9 708.566 424.6 707.666 424.6ZM736.044 463.75V426.85L730.644 425.5V424.6H743.244V430C743.844 428.8 744.654 427.69 745.674 426.67C746.514 425.83 747.594 425.05 748.914 424.33C750.234 423.61 751.794 423.25 753.594 423.25C755.394 423.25 757.044 423.58 758.544 424.24C760.104 424.9 761.454 425.83 762.594 427.03C763.734 428.17 764.604 429.58 765.204 431.26C765.864 432.88 766.194 434.71 766.194 436.75V463.75L771.594 465.1V466H754.044V465.1L758.994 463.75V436.75C758.994 432.49 758.304 429.49 756.924 427.75C755.604 425.95 754.044 425.05 752.244 425.05C750.744 425.05 749.454 425.47 748.374 426.31C747.294 427.15 746.364 428.08 745.584 429.1C744.684 430.3 743.904 431.65 743.244 433.15V463.75L748.194 465.1V466H730.644V465.1L736.044 463.75ZM799.913 424.6V426.4H789.563V455.11C789.563 458.77 790.223 461.44 791.543 463.12C792.863 464.74 794.303 465.55 795.863 465.55C797.903 465.55 799.613 464.8 800.993 463.3C802.433 461.74 803.273 459.49 803.513 456.55H804.863C804.623 459.97 803.573 462.64 801.713 464.56C799.913 466.42 797.663 467.35 794.963 467.35C791.123 467.35 788.063 466.24 785.783 464.02C783.503 461.74 782.363 458.8 782.363 455.2V426.4H774.713V424.6H782.363V414.25L789.563 409.3V424.6H799.913ZM817.076 445.3C817.076 449.14 817.346 452.35 817.886 454.93C818.486 457.51 819.236 459.61 820.136 461.23C821.096 462.79 822.146 463.9 823.286 464.56C824.486 465.22 825.716 465.55 826.976 465.55C828.536 465.55 830.006 465.25 831.386 464.65C832.766 464.05 833.996 463.24 835.076 462.22C836.156 461.2 837.026 459.97 837.686 458.53C838.406 457.09 838.886 455.53 839.126 453.85H840.476C840.236 455.77 839.696 457.57 838.856 459.25C838.076 460.87 837.056 462.28 835.796 463.48C834.536 464.68 833.066 465.61 831.386 466.27C829.766 466.99 827.996 467.35 826.076 467.35C823.796 467.35 821.636 466.87 819.596 465.91C817.556 464.89 815.726 463.45 814.106 461.59C812.546 459.67 811.286 457.36 810.326 454.66C809.426 451.9 808.976 448.78 808.976 445.3C808.976 441.7 809.426 438.52 810.326 435.76C811.226 433 812.396 430.72 813.836 428.92C815.336 427.06 817.046 425.65 818.966 424.69C820.946 423.73 823.016 423.25 825.176 423.25C827.336 423.25 829.376 423.73 831.296 424.69C833.276 425.65 834.986 427.06 836.426 428.92C837.926 430.72 839.126 433 840.026 435.76C840.926 438.52 841.376 441.7 841.376 445.3H817.076ZM825.176 424.6C824.276 424.6 823.376 424.9 822.476 425.5C821.576 426.04 820.736 427.03 819.956 428.47C819.176 429.91 818.516 431.86 817.976 434.32C817.496 436.72 817.196 439.78 817.076 443.5H833.276C833.156 439.78 832.826 436.72 832.286 434.32C831.806 431.86 831.176 429.91 830.396 428.47C829.616 427.03 828.776 426.04 827.876 425.5C826.976 424.9 826.076 424.6 825.176 424.6ZM848.604 461.95C848.604 460.57 849.084 459.4 850.044 458.44C851.004 457.48 852.174 457 853.554 457C854.934 457 856.104 457.48 857.064 458.44C858.024 459.4 858.504 460.57 858.504 461.95C858.504 463.33 858.024 464.5 857.064 465.46C856.104 466.42 854.934 466.9 853.554 466.9C852.174 466.9 851.004 466.42 850.044 465.46C849.084 464.5 848.604 463.33 848.604 461.95ZM848.604 428.65C848.604 427.27 849.084 426.1 850.044 425.14C851.004 424.18 852.174 423.7 853.554 423.7C854.934 423.7 856.104 424.18 857.064 425.14C858.024 426.1 858.504 427.27 858.504 428.65C858.504 430.03 858.024 431.2 857.064 432.16C856.104 433.12 854.934 433.6 853.554 433.6C852.174 433.6 851.004 433.12 850.044 432.16C849.084 431.2 848.604 430.03 848.604 428.65Z" fill="white"/>
<path d="M131.1 564.2C131.1 561.68 131.61 559.34 132.63 557.18C133.65 555.02 134.94 553.16 136.5 551.6H137.4C137.28 552.38 137.19 553.19 137.13 554.03C137.07 554.75 137.01 555.53 136.95 556.37C136.95 557.21 136.95 558.02 136.95 558.8C136.95 559.94 136.95 560.96 136.95 561.86C137.01 562.7 137.07 563.45 137.13 564.11C137.19 564.83 137.28 565.46 137.4 566H100.05V565.1L105.45 563.75V505.25L100.05 503.9V503H136.5C136.38 503.54 136.29 504.17 136.23 504.89C136.17 505.55 136.11 506.33 136.05 507.23C136.05 508.07 136.05 509.06 136.05 510.2C136.05 511.04 136.05 511.88 136.05 512.72C136.11 513.5 136.17 514.25 136.23 514.97C136.29 515.81 136.38 516.62 136.5 517.4H135.6C134.04 515.84 132.75 513.98 131.73 511.82C130.71 509.66 130.2 507.32 130.2 504.8H113.1V531.8H121.65L125.7 523.7H126.6V541.7H125.7L121.65 533.6H113.1V564.2H131.1ZM158.539 548.81L149.539 562.85L155.389 565.1V566H141.889V565.1L147.739 562.85L157.639 547.37L145.939 526.85L140.539 525.5V524.6H158.989V525.5L154.039 526.85L161.959 540.71L170.239 527.75L164.389 525.5V524.6H177.889V525.5L172.039 527.75L162.769 542.15L175.189 563.75L180.589 565.1V566H162.139V565.1L167.089 563.75L158.539 548.81ZM187.322 526.85L181.922 525.5V524.6H194.522V530C195.122 528.8 195.932 527.69 196.952 526.67C197.792 525.83 198.872 525.05 200.192 524.33C201.512 523.61 203.072 523.25 204.872 523.25C206.792 523.25 208.682 523.76 210.542 524.78C212.462 525.74 214.142 527.18 215.582 529.1C217.082 530.96 218.282 533.27 219.182 536.03C220.142 538.73 220.622 541.82 220.622 545.3C220.622 548.78 220.142 551.9 219.182 554.66C218.282 557.36 217.052 559.67 215.492 561.59C213.932 563.45 212.162 564.89 210.182 565.91C208.202 566.87 206.132 567.35 203.972 567.35C202.232 567.35 200.762 567.11 199.562 566.63C198.422 566.21 197.462 565.7 196.682 565.1C195.782 564.44 195.062 563.69 194.522 562.85V585.35L199.922 586.7V587.6H181.922V586.7L187.322 585.35V526.85ZM202.622 565.55C203.882 565.55 205.082 565.22 206.222 564.56C207.422 563.9 208.472 562.79 209.372 561.23C210.332 559.61 211.082 557.51 211.622 554.93C212.222 552.35 212.522 549.14 212.522 545.3C212.522 541.46 212.222 538.25 211.622 535.67C211.082 533.09 210.362 531.02 209.462 529.46C208.622 527.9 207.662 526.79 206.582 526.13C205.562 525.41 204.542 525.05 203.522 525.05C202.022 525.05 200.732 525.47 199.652 526.31C198.572 527.15 197.642 528.08 196.862 529.1C195.962 530.3 195.182 531.65 194.522 533.15V560.15C195.062 561.17 195.722 562.07 196.502 562.85C197.162 563.51 198.002 564.14 199.022 564.74C200.042 565.28 201.242 565.55 202.622 565.55ZM236.822 545.3C236.822 549.14 237.092 552.35 237.632 554.93C238.232 557.51 238.982 559.61 239.882 561.23C240.842 562.79 241.892 563.9 243.032 564.56C244.232 565.22 245.462 565.55 246.722 565.55C248.282 565.55 249.752 565.25 251.132 564.65C252.512 564.05 253.742 563.24 254.822 562.22C255.902 561.2 256.772 559.97 257.432 558.53C258.152 557.09 258.632 555.53 258.872 553.85H260.222C259.982 555.77 259.442 557.57 258.602 559.25C257.822 560.87 256.802 562.28 255.542 563.48C254.282 564.68 252.812 565.61 251.132 566.27C249.512 566.99 247.742 567.35 245.822 567.35C243.542 567.35 241.382 566.87 239.342 565.91C237.302 564.89 235.472 563.45 233.852 561.59C232.292 559.67 231.032 557.36 230.072 554.66C229.172 551.9 228.722 548.78 228.722 545.3C228.722 541.7 229.172 538.52 230.072 535.76C230.972 533 232.142 530.72 233.582 528.92C235.082 527.06 236.792 525.65 238.712 524.69C240.692 523.73 242.762 523.25 244.922 523.25C247.082 523.25 249.122 523.73 251.042 524.69C253.022 525.65 254.732 527.06 256.172 528.92C257.672 530.72 258.872 533 259.772 535.76C260.672 538.52 261.122 541.7 261.122 545.3H236.822ZM244.922 524.6C244.022 524.6 243.122 524.9 242.222 525.5C241.322 526.04 240.482 527.03 239.702 528.47C238.922 529.91 238.262 531.86 237.722 534.32C237.242 536.72 236.942 539.78 236.822 543.5H253.022C252.902 539.78 252.572 536.72 252.032 534.32C251.552 531.86 250.922 529.91 250.142 528.47C249.362 527.03 248.522 526.04 247.622 525.5C246.722 524.9 245.822 524.6 244.922 524.6ZM280.5 563.75L285.9 565.1V566H267.9V565.1L273.3 563.75V526.85L267.9 525.5V524.6H280.5V535.4C281.28 533.18 282.21 531.17 283.29 529.37C284.25 527.81 285.42 526.4 286.8 525.14C288.18 523.88 289.83 523.25 291.75 523.25C292.41 523.25 293.04 523.31 293.64 523.43C294.24 523.49 294.78 523.58 295.26 523.7C295.8 523.88 296.28 524.03 296.7 524.15L294 530.9C293.64 530.72 293.25 530.51 292.83 530.27C292.47 530.09 292.02 529.94 291.48 529.82C291 529.64 290.49 529.55 289.95 529.55C288.39 529.55 287.01 529.97 285.81 530.81C284.61 531.65 283.62 532.58 282.84 533.6C281.88 534.8 281.1 536.15 280.5 537.65V563.75ZM305.732 563.75V526.85L300.332 525.5V524.6H312.932V563.75L318.332 565.1V566H300.332V565.1L305.732 563.75ZM313.382 514.25C313.382 515.39 312.902 516.44 311.942 517.4C311.042 518.3 310.022 518.75 308.882 518.75C307.742 518.75 306.692 518.3 305.732 517.4C304.832 516.44 304.382 515.39 304.382 514.25C304.382 513.11 304.832 512.09 305.732 511.19C306.692 510.23 307.742 509.75 308.882 509.75C310.022 509.75 311.042 510.23 311.942 511.19C312.902 512.09 313.382 513.11 313.382 514.25ZM332.711 545.3C332.711 549.14 332.981 552.35 333.521 554.93C334.121 557.51 334.871 559.61 335.771 561.23C336.731 562.79 337.781 563.9 338.921 564.56C340.121 565.22 341.351 565.55 342.611 565.55C344.171 565.55 345.641 565.25 347.021 564.65C348.401 564.05 349.631 563.24 350.711 562.22C351.791 561.2 352.661 559.97 353.321 558.53C354.041 557.09 354.521 555.53 354.761 553.85H356.111C355.871 555.77 355.331 557.57 354.491 559.25C353.711 560.87 352.691 562.28 351.431 563.48C350.171 564.68 348.701 565.61 347.021 566.27C345.401 566.99 343.631 567.35 341.711 567.35C339.431 567.35 337.271 566.87 335.231 565.91C333.191 564.89 331.361 563.45 329.741 561.59C328.181 559.67 326.921 557.36 325.961 554.66C325.061 551.9 324.611 548.78 324.611 545.3C324.611 541.7 325.061 538.52 325.961 535.76C326.861 533 328.031 530.72 329.471 528.92C330.971 527.06 332.681 525.65 334.601 524.69C336.581 523.73 338.651 523.25 340.811 523.25C342.971 523.25 345.011 523.73 346.931 524.69C348.911 525.65 350.621 527.06 352.061 528.92C353.561 530.72 354.761 533 355.661 535.76C356.561 538.52 357.011 541.7 357.011 545.3H332.711ZM340.811 524.6C339.911 524.6 339.011 524.9 338.111 525.5C337.211 526.04 336.371 527.03 335.591 528.47C334.811 529.91 334.151 531.86 333.611 534.32C333.131 536.72 332.831 539.78 332.711 543.5H348.911C348.791 539.78 348.461 536.72 347.921 534.32C347.441 531.86 346.811 529.91 346.031 528.47C345.251 527.03 344.411 526.04 343.511 525.5C342.611 524.9 341.711 524.6 340.811 524.6ZM333.341 518.75H331.091L341.441 507.05L351.791 518.75H349.541L341.441 513.35L333.341 518.75ZM369.189 563.75V526.85L363.789 525.5V524.6H376.389V530C376.989 528.8 377.799 527.69 378.819 526.67C379.659 525.83 380.739 525.05 382.059 524.33C383.379 523.61 384.939 523.25 386.739 523.25C388.539 523.25 390.189 523.58 391.689 524.24C393.249 524.9 394.599 525.83 395.739 527.03C396.879 528.17 397.749 529.58 398.349 531.26C399.009 532.88 399.339 534.71 399.339 536.75V563.75L404.739 565.1V566H387.189V565.1L392.139 563.75V536.75C392.139 532.49 391.449 529.49 390.069 527.75C388.749 525.95 387.189 525.05 385.389 525.05C383.889 525.05 382.599 525.47 381.519 526.31C380.439 527.15 379.509 528.08 378.729 529.1C377.829 530.3 377.049 531.65 376.389 533.15V563.75L381.339 565.1V566H363.789V565.1L369.189 563.75ZM428.557 525.05C427.417 525.05 426.277 525.41 425.137 526.13C424.057 526.79 423.067 527.9 422.167 529.46C421.267 531.02 420.517 533.09 419.917 535.67C419.377 538.25 419.107 541.46 419.107 545.3C419.107 549.14 419.377 552.35 419.917 554.93C420.517 557.51 421.297 559.61 422.257 561.23C423.217 562.79 424.297 563.9 425.497 564.56C426.757 565.22 428.077 565.55 429.457 565.55C431.017 565.55 432.487 565.25 433.867 564.65C435.247 564.05 436.477 563.24 437.557 562.22C438.637 561.2 439.507 559.97 440.167 558.53C440.887 557.09 441.367 555.53 441.607 553.85H442.957C442.717 555.77 442.177 557.57 441.337 559.25C440.557 560.87 439.537 562.28 438.277 563.48C437.017 564.68 435.547 565.61 433.867 566.27C432.247 566.99 430.477 567.35 428.557 567.35C426.217 567.35 423.967 566.87 421.807 565.91C419.707 564.89 417.847 563.45 416.227 561.59C414.607 559.67 413.317 557.36 412.357 554.66C411.457 551.9 411.007 548.78 411.007 545.3C411.007 541.82 411.457 538.73 412.357 536.03C413.317 533.27 414.577 530.96 416.137 529.1C417.697 527.18 419.467 525.74 421.447 524.78C423.427 523.76 425.497 523.25 427.657 523.25C429.097 523.25 430.357 523.49 431.437 523.97C432.577 524.45 433.537 524.96 434.317 525.5C435.217 526.16 435.997 526.91 436.657 527.75C436.897 526.85 437.377 526.01 438.097 525.23C438.877 524.45 439.597 523.94 440.257 523.7H441.607C441.487 524.48 441.397 525.29 441.337 526.13C441.277 526.85 441.217 527.63 441.157 528.47C441.157 529.31 441.157 530.12 441.157 530.9C441.157 531.8 441.157 532.73 441.157 533.69C441.217 534.59 441.277 535.4 441.337 536.12C441.397 536.96 441.487 537.77 441.607 538.55H440.257C439.117 534.23 437.437 530.9 435.217 528.56C433.057 526.22 430.837 525.05 428.557 525.05ZM454.179 563.75V526.85L448.779 525.5V524.6H461.379V563.75L466.779 565.1V566H448.779V565.1L454.179 563.75ZM461.829 514.25C461.829 515.39 461.349 516.44 460.389 517.4C459.489 518.3 458.469 518.75 457.329 518.75C456.189 518.75 455.139 518.3 454.179 517.4C453.279 516.44 452.829 515.39 452.829 514.25C452.829 513.11 453.279 512.09 454.179 511.19C455.139 510.23 456.189 509.75 457.329 509.75C458.469 509.75 459.489 510.23 460.389 511.19C461.349 512.09 461.829 513.11 461.829 514.25ZM496.008 543.95C490.788 543.95 486.918 545.12 484.398 547.46C481.938 549.74 480.708 552.92 480.708 557C480.708 559.7 481.368 561.8 482.688 563.3C484.008 564.8 485.448 565.55 487.008 565.55C488.448 565.55 489.708 565.13 490.788 564.29C491.928 563.45 492.888 562.52 493.668 561.5C494.568 560.36 495.348 559.01 496.008 557.45V543.95ZM489.258 524.6C487.458 524.6 485.958 525.23 484.758 526.49C483.558 527.69 482.958 529.31 482.958 531.35C482.958 531.83 482.958 532.25 482.958 532.61C483.018 532.97 483.078 533.3 483.138 533.6C483.198 533.9 483.288 534.2 483.408 534.5L476.208 536.3C476.088 536.12 475.998 535.88 475.938 535.58C475.878 535.28 475.818 534.95 475.758 534.59C475.758 534.23 475.758 533.75 475.758 533.15C475.758 531.89 476.058 530.69 476.658 529.55C477.258 528.35 478.128 527.3 479.268 526.4C480.468 525.44 481.878 524.69 483.498 524.15C485.178 523.55 487.098 523.25 489.258 523.25C493.578 523.25 496.968 524.48 499.428 526.94C501.948 529.4 503.208 532.67 503.208 536.75V563.75L508.608 565.1V566H496.008V560.6C495.348 561.86 494.508 563 493.488 564.02C492.648 564.86 491.568 565.61 490.248 566.27C488.988 566.99 487.458 567.35 485.658 567.35C481.338 567.35 478.068 566.33 475.848 564.29C473.688 562.25 472.608 559.52 472.608 556.1C472.608 554.42 473.058 552.74 473.958 551.06C474.918 549.38 476.328 547.88 478.188 546.56C480.108 545.24 482.538 544.19 485.478 543.41C488.418 542.57 491.928 542.15 496.008 542.15V536.75C496.008 532.25 495.318 529.1 493.938 527.3C492.618 525.5 491.058 524.6 489.258 524.6ZM554.065 525.05C552.805 525.05 551.575 525.41 550.375 526.13C549.235 526.79 548.185 527.9 547.225 529.46C546.325 531.02 545.575 533.09 544.975 535.67C544.435 538.25 544.165 541.46 544.165 545.3C544.165 549.14 544.435 552.35 544.975 554.93C545.575 557.51 546.295 559.61 547.135 561.23C548.035 562.79 548.995 563.9 550.015 564.56C551.095 565.22 552.145 565.55 553.165 565.55C554.605 565.55 555.865 565.13 556.945 564.29C558.085 563.45 559.045 562.52 559.825 561.5C560.725 560.36 561.505 559.01 562.165 557.45V530.45C561.565 529.43 560.875 528.53 560.095 527.75C559.435 527.09 558.595 526.49 557.575 525.95C556.615 525.35 555.445 525.05 554.065 525.05ZM569.365 563.75L574.765 565.1V566H562.165V560.6C561.505 561.86 560.665 563 559.645 564.02C558.805 564.86 557.725 565.61 556.405 566.27C555.145 566.99 553.615 567.35 551.815 567.35C549.895 567.35 547.975 566.87 546.055 565.91C544.195 564.89 542.515 563.45 541.015 561.59C539.575 559.67 538.375 557.36 537.415 554.66C536.515 551.9 536.065 548.78 536.065 545.3C536.065 541.82 536.515 538.73 537.415 536.03C538.375 533.27 539.635 530.96 541.195 529.1C542.755 527.18 544.525 525.74 546.505 524.78C548.485 523.76 550.555 523.25 552.715 523.25C554.395 523.25 555.835 523.49 557.035 523.97C558.235 524.45 559.225 524.96 560.005 525.5C560.905 526.16 561.625 526.91 562.165 527.75V505.25L556.765 503.9V503H569.365V563.75ZM598.615 524.6C597.595 524.6 596.545 524.96 595.465 525.68C594.445 526.34 593.485 527.48 592.585 529.1C591.745 530.66 591.025 532.76 590.425 535.4C589.885 538.04 589.615 541.34 589.615 545.3C589.615 549.26 589.885 552.56 590.425 555.2C591.025 557.84 591.745 559.97 592.585 561.59C593.485 563.15 594.445 564.29 595.465 565.01C596.545 565.67 597.595 566 598.615 566C599.635 566 600.655 565.67 601.675 565.01C602.755 564.29 603.715 563.15 604.555 561.59C605.455 559.97 606.175 557.84 606.715 555.2C607.315 552.56 607.615 549.26 607.615 545.3C607.615 541.34 607.315 538.04 606.715 535.4C606.175 532.76 605.455 530.66 604.555 529.1C603.715 527.48 602.755 526.34 601.675 525.68C600.655 524.96 599.635 524.6 598.615 524.6ZM598.615 523.25C600.835 523.25 602.965 523.76 605.005 524.78C607.105 525.74 608.935 527.18 610.495 529.1C612.115 530.96 613.375 533.27 614.275 536.03C615.235 538.73 615.715 541.82 615.715 545.3C615.715 548.78 615.235 551.9 614.275 554.66C613.375 557.36 612.115 559.67 610.495 561.59C608.935 563.45 607.105 564.89 605.005 565.91C602.965 566.87 600.835 567.35 598.615 567.35C596.335 567.35 594.175 566.87 592.135 565.91C590.095 564.89 588.265 563.45 586.645 561.59C585.085 559.67 583.825 557.36 582.865 554.66C581.965 551.9 581.515 548.78 581.515 545.3C581.515 541.82 581.965 538.73 582.865 536.03C583.825 533.27 585.085 530.96 586.645 529.1C588.265 527.18 590.095 525.74 592.135 524.78C594.175 523.76 596.335 523.25 598.615 523.25ZM685.011 548C685.011 554.78 683.601 559.7 680.781 562.76C678.021 565.82 674.031 567.35 668.811 567.35C662.691 567.35 657.921 565.67 654.501 562.31C651.141 558.89 649.461 554.12 649.461 548V505.25L644.061 503.9V503H662.511V503.9L657.111 505.25V548C657.111 554.06 658.311 558.5 660.711 561.32C663.111 564.14 666.111 565.55 669.711 565.55C671.751 565.55 673.581 565.22 675.201 564.56C676.881 563.84 678.291 562.76 679.431 561.32C680.631 559.88 681.561 558.08 682.221 555.92C682.881 553.7 683.211 551.06 683.211 548V506.15L677.361 503.9V503H690.861V503.9L685.011 506.15V548ZM712.039 567.35C710.119 567.35 708.469 567.11 707.089 566.63C705.709 566.21 704.599 565.7 703.759 565.1C702.739 564.44 701.899 563.69 701.239 562.85C700.999 563.75 700.489 564.59 699.709 565.37C698.989 566.15 698.299 566.66 697.639 566.9H696.289C696.349 566.12 696.409 565.31 696.469 564.47C696.529 563.75 696.589 563 696.649 562.22C696.709 561.38 696.739 560.54 696.739 559.7C696.739 558.8 696.709 557.9 696.649 557C696.589 556.1 696.529 555.29 696.469 554.57C696.409 553.73 696.349 552.89 696.289 552.05H697.639C698.779 556.37 700.519 559.7 702.859 562.04C705.199 564.38 707.959 565.55 711.139 565.55C713.659 565.55 715.699 564.77 717.259 563.21C718.879 561.65 719.689 559.73 719.689 557.45C719.689 555.83 719.119 554.42 717.979 553.22C716.899 552.02 715.519 550.94 713.839 549.98C712.159 548.96 710.359 547.97 708.439 547.01C706.519 546.05 704.719 544.97 703.039 543.77C701.359 542.57 699.949 541.16 698.809 539.54C697.729 537.92 697.189 535.94 697.189 533.6C697.189 532.28 697.489 530.99 698.089 529.73C698.689 528.47 699.499 527.36 700.519 526.4C701.599 525.44 702.889 524.69 704.389 524.15C705.889 523.55 707.539 523.25 709.339 523.25C710.899 523.25 712.249 523.49 713.389 523.97C714.589 524.45 715.609 524.96 716.449 525.5C717.349 526.16 718.129 526.91 718.789 527.75C719.029 526.85 719.509 526.01 720.229 525.23C721.009 524.45 721.729 523.94 722.389 523.7H723.739C723.619 524.48 723.529 525.29 723.469 526.13C723.409 526.85 723.349 527.63 723.289 528.47C723.289 529.31 723.289 530.12 723.289 530.9C723.289 531.8 723.289 532.73 723.289 533.69C723.349 534.59 723.409 535.4 723.469 536.12C723.529 536.96 723.619 537.77 723.739 538.55H722.389C721.249 534.23 719.569 530.9 717.349 528.56C715.129 526.22 712.759 525.05 710.239 525.05C708.199 525.05 706.489 525.74 705.109 527.12C703.729 528.44 703.039 530 703.039 531.8C703.039 533.3 703.609 534.59 704.749 535.67C705.889 536.75 707.299 537.77 708.979 538.73C710.659 539.63 712.489 540.56 714.469 541.52C716.509 542.48 718.369 543.59 720.049 544.85C721.729 546.11 723.139 547.61 724.279 549.35C725.419 551.09 725.989 553.19 725.989 555.65C725.989 557.09 725.629 558.53 724.909 559.97C724.249 561.35 723.289 562.61 722.029 563.75C720.829 564.83 719.359 565.7 717.619 566.36C715.939 567.02 714.079 567.35 712.039 567.35ZM766.064 526.85V563.75L771.464 565.1V566H758.864V560.6C758.204 561.86 757.364 563 756.344 564.02C755.504 564.86 754.424 565.61 753.104 566.27C751.844 566.99 750.314 567.35 748.514 567.35C746.714 567.35 745.034 567.02 743.474 566.36C741.974 565.7 740.654 564.8 739.514 563.66C738.374 562.46 737.474 561.05 736.814 559.43C736.214 557.75 735.914 555.89 735.914 553.85V526.85L730.514 525.5V524.6H748.064V525.5L743.114 526.85V553.85C743.114 558.11 743.774 561.14 745.094 562.94C746.474 564.68 748.064 565.55 749.864 565.55C751.304 565.55 752.564 565.13 753.644 564.29C754.784 563.45 755.744 562.52 756.524 561.5C757.424 560.36 758.204 559.01 758.864 557.45V526.85L753.914 525.5V524.6H771.464V525.5L766.064 526.85ZM801.604 543.95C796.384 543.95 792.514 545.12 789.994 547.46C787.534 549.74 786.304 552.92 786.304 557C786.304 559.7 786.964 561.8 788.284 563.3C789.604 564.8 791.044 565.55 792.604 565.55C794.044 565.55 795.304 565.13 796.384 564.29C797.524 563.45 798.484 562.52 799.264 561.5C800.164 560.36 800.944 559.01 801.604 557.45V543.95ZM794.854 524.6C793.054 524.6 791.554 525.23 790.354 526.49C789.154 527.69 788.554 529.31 788.554 531.35C788.554 531.83 788.554 532.25 788.554 532.61C788.614 532.97 788.674 533.3 788.734 533.6C788.794 533.9 788.884 534.2 789.004 534.5L781.804 536.3C781.684 536.12 781.594 535.88 781.534 535.58C781.474 535.28 781.414 534.95 781.354 534.59C781.354 534.23 781.354 533.75 781.354 533.15C781.354 531.89 781.654 530.69 782.254 529.55C782.854 528.35 783.724 527.3 784.864 526.4C786.064 525.44 787.474 524.69 789.094 524.15C790.774 523.55 792.694 523.25 794.854 523.25C799.174 523.25 802.564 524.48 805.024 526.94C807.544 529.4 808.804 532.67 808.804 536.75V563.75L814.204 565.1V566H801.604V560.6C800.944 561.86 800.104 563 799.084 564.02C798.244 564.86 797.164 565.61 795.844 566.27C794.584 566.99 793.054 567.35 791.254 567.35C786.934 567.35 783.664 566.33 781.444 564.29C779.284 562.25 778.204 559.52 778.204 556.1C778.204 554.42 778.654 552.74 779.554 551.06C780.514 549.38 781.924 547.88 783.784 546.56C785.704 545.24 788.134 544.19 791.074 543.41C794.014 542.57 797.524 542.15 801.604 542.15V536.75C801.604 532.25 800.914 529.1 799.534 527.3C798.214 525.5 796.654 524.6 794.854 524.6ZM796.204 508.76H804.304L795.304 519.56H792.604L796.204 508.76ZM832.189 563.75L837.589 565.1V566H819.589V565.1L824.989 563.75V526.85L819.589 525.5V524.6H832.189V535.4C832.969 533.18 833.899 531.17 834.979 529.37C835.939 527.81 837.109 526.4 838.489 525.14C839.869 523.88 841.519 523.25 843.439 523.25C844.099 523.25 844.729 523.31 845.329 523.43C845.929 523.49 846.469 523.58 846.949 523.7C847.489 523.88 847.969 524.03 848.389 524.15L845.689 530.9C845.329 530.72 844.939 530.51 844.519 530.27C844.159 530.09 843.709 529.94 843.169 529.82C842.689 529.64 842.179 529.55 841.639 529.55C840.079 529.55 838.699 529.97 837.499 530.81C836.299 531.65 835.309 532.58 834.529 533.6C833.569 534.8 832.789 536.15 832.189 537.65V563.75ZM857.421 563.75V526.85L852.021 525.5V524.6H864.621V563.75L870.021 565.1V566H852.021V565.1L857.421 563.75ZM865.071 514.25C865.071 515.39 864.591 516.44 863.631 517.4C862.731 518.3 861.711 518.75 860.571 518.75C859.431 518.75 858.381 518.3 857.421 517.4C856.521 516.44 856.071 515.39 856.071 514.25C856.071 513.11 856.521 512.09 857.421 511.19C858.381 510.23 859.431 509.75 860.571 509.75C861.711 509.75 862.731 510.23 863.631 511.19C864.591 512.09 865.071 513.11 865.071 514.25ZM893.4 524.6C892.38 524.6 891.33 524.96 890.25 525.68C889.23 526.34 888.27 527.48 887.37 529.1C886.53 530.66 885.81 532.76 885.21 535.4C884.67 538.04 884.4 541.34 884.4 545.3C884.4 549.26 884.67 552.56 885.21 555.2C885.81 557.84 886.53 559.97 887.37 561.59C888.27 563.15 889.23 564.29 890.25 565.01C891.33 565.67 892.38 566 893.4 566C894.42 566 895.44 565.67 896.46 565.01C897.54 564.29 898.5 563.15 899.34 561.59C900.24 559.97 900.96 557.84 901.5 555.2C902.1 552.56 902.4 549.26 902.4 545.3C902.4 541.34 902.1 538.04 901.5 535.4C900.96 532.76 900.24 530.66 899.34 529.1C898.5 527.48 897.54 526.34 896.46 525.68C895.44 524.96 894.42 524.6 893.4 524.6ZM893.4 523.25C895.62 523.25 897.75 523.76 899.79 524.78C901.89 525.74 903.72 527.18 905.28 529.1C906.9 530.96 908.16 533.27 909.06 536.03C910.02 538.73 910.5 541.82 910.5 545.3C910.5 548.78 910.02 551.9 909.06 554.66C908.16 557.36 906.9 559.67 905.28 561.59C903.72 563.45 901.89 564.89 899.79 565.91C897.75 566.87 895.62 567.35 893.4 567.35C891.12 567.35 888.96 566.87 886.92 565.91C884.88 564.89 883.05 563.45 881.43 561.59C879.87 559.67 878.61 557.36 877.65 554.66C876.75 551.9 876.3 548.78 876.3 545.3C876.3 541.82 876.75 538.73 877.65 536.03C878.61 533.27 879.87 530.96 881.43 529.1C883.05 527.18 884.88 525.74 886.92 524.78C888.96 523.76 891.12 523.25 893.4 523.25Z" fill="black"/>
</svg>
