<svg width="1300" height="976" viewBox="0 0 1300 976" fill="none" xmlns="http://www.w3.org/2000/svg">
<path d="M104.15 445.3C104.15 449.14 104.42 452.35 104.96 454.93C105.56 457.51 106.31 459.61 107.21 461.23C108.17 462.79 109.22 463.9 110.36 464.56C111.56 465.22 112.79 465.55 114.05 465.55C115.61 465.55 117.08 465.25 118.46 464.65C119.84 464.05 121.07 463.24 122.15 462.22C123.23 461.2 124.1 459.97 124.76 458.53C125.48 457.09 125.96 455.53 126.2 453.85H127.55C127.31 455.77 126.77 457.57 125.93 459.25C125.15 460.87 124.13 462.28 122.87 463.48C121.61 464.68 120.14 465.61 118.46 466.27C116.84 466.99 115.07 467.35 113.15 467.35C110.87 467.35 108.71 466.87 106.67 465.91C104.63 464.89 102.8 463.45 101.18 461.59C99.62 459.67 98.36 457.36 97.4 454.66C96.5 451.9 96.05 448.78 96.05 445.3C96.05 441.7 96.5 438.52 97.4 435.76C98.3 433 99.47 430.72 100.91 428.92C102.41 427.06 104.12 425.65 106.04 424.69C108.02 423.73 110.09 423.25 112.25 423.25C114.41 423.25 116.45 423.73 118.37 424.69C120.35 425.65 122.06 427.06 123.5 428.92C125 430.72 126.2 433 127.1 435.76C128 438.52 128.45 441.7 128.45 445.3H104.15ZM112.25 424.6C111.35 424.6 110.45 424.9 109.55 425.5C108.65 426.04 107.81 427.03 107.03 428.47C106.25 429.91 105.59 431.86 105.05 434.32C104.57 436.72 104.27 439.78 104.15 443.5H120.35C120.23 439.78 119.9 436.72 119.36 434.32C118.88 431.86 118.25 429.91 117.47 428.47C116.69 427.03 115.85 426.04 114.95 425.5C114.05 424.9 113.15 424.6 112.25 424.6ZM151.428 467.35C149.508 467.35 147.858 467.11 146.478 466.63C145.098 466.21 143.988 465.7 143.148 465.1C142.128 464.44 141.288 463.69 140.628 462.85C140.388 463.75 139.878 464.59 139.098 465.37C138.378 466.15 137.688 466.66 137.028 466.9H135.678C135.738 466.12 135.798 465.31 135.858 464.47C135.918 463.75 135.978 463 136.038 462.22C136.098 461.38 136.128 460.54 136.128 459.7C136.128 458.8 136.098 457.9 136.038 457C135.978 456.1 135.918 455.29 135.858 454.57C135.798 453.73 135.738 452.89 135.678 452.05H137.028C138.168 456.37 139.908 459.7 142.248 462.04C144.588 464.38 147.348 465.55 150.528 465.55C153.048 465.55 155.088 464.77 156.648 463.21C158.268 461.65 159.078 459.73 159.078 457.45C159.078 455.83 158.508 454.42 157.368 453.22C156.288 452.02 154.908 450.94 153.228 449.98C151.548 448.96 149.748 447.97 147.828 447.01C145.908 446.05 144.108 444.97 142.428 443.77C140.748 442.57 139.338 441.16 138.198 439.54C137.118 437.92 136.578 435.94 136.578 433.6C136.578 432.28 136.878 430.99 137.478 429.73C138.078 428.47 138.888 427.36 139.908 426.4C140.988 425.44 142.278 424.69 143.778 424.15C145.278 423.55 146.928 423.25 148.728 423.25C150.288 423.25 151.638 423.49 152.778 423.97C153.978 424.45 154.998 424.96 155.838 425.5C156.738 426.16 157.518 426.91 158.178 427.75C158.418 426.85 158.898 426.01 159.618 425.23C160.398 424.45 161.118 423.94 161.778 423.7H163.128C163.008 424.48 162.918 425.29 162.858 426.13C162.798 426.85 162.738 427.63 162.678 428.47C162.678 429.31 162.678 430.12 162.678 430.9C162.678 431.8 162.678 432.73 162.678 433.69C162.738 434.59 162.798 435.4 162.858 436.12C162.918 436.96 163.008 437.77 163.128 438.55H161.778C160.638 434.23 158.958 430.9 156.738 428.56C154.518 426.22 152.148 425.05 149.628 425.05C147.588 425.05 145.878 425.74 144.498 427.12C143.118 428.44 142.428 430 142.428 431.8C142.428 433.3 142.998 434.59 144.138 435.67C145.278 436.75 146.688 437.77 148.368 438.73C150.048 439.63 151.878 440.56 153.858 441.52C155.898 442.48 157.758 443.59 159.438 444.85C161.118 446.11 162.528 447.61 163.668 449.35C164.808 451.09 165.378 453.19 165.378 455.65C165.378 457.09 165.018 458.53 164.298 459.97C163.638 461.35 162.678 462.61 161.418 463.75C160.218 464.83 158.748 465.7 157.008 466.36C155.328 467.02 153.468 467.35 151.428 467.35ZM194.653 424.6V426.4H184.303V455.11C184.303 458.77 184.963 461.44 186.283 463.12C187.603 464.74 189.043 465.55 190.603 465.55C192.643 465.55 194.353 464.8 195.733 463.3C197.173 461.74 198.013 459.49 198.253 456.55H199.603C199.363 459.97 198.313 462.64 196.453 464.56C194.653 466.42 192.403 467.35 189.703 467.35C185.863 467.35 182.803 466.24 180.523 464.02C178.243 461.74 177.103 458.8 177.103 455.2V426.4H169.453V424.6H177.103V414.25L184.303 409.3V424.6H194.653ZM227.545 443.95C222.325 443.95 218.455 445.12 215.935 447.46C213.475 449.74 212.245 452.92 212.245 457C212.245 459.7 212.905 461.8 214.225 463.3C215.545 464.8 216.985 465.55 218.545 465.55C219.985 465.55 221.245 465.13 222.325 464.29C223.465 463.45 224.425 462.52 225.205 461.5C226.105 460.36 226.885 459.01 227.545 457.45V443.95ZM220.795 424.6C218.995 424.6 217.495 425.23 216.295 426.49C215.095 427.69 214.495 429.31 214.495 431.35C214.495 431.83 214.495 432.25 214.495 432.61C214.555 432.97 214.615 433.3 214.675 433.6C214.735 433.9 214.825 434.2 214.945 434.5L207.745 436.3C207.625 436.12 207.535 435.88 207.475 435.58C207.415 435.28 207.355 434.95 207.295 434.59C207.295 434.23 207.295 433.75 207.295 433.15C207.295 431.89 207.595 430.69 208.195 429.55C208.795 428.35 209.665 427.3 210.805 426.4C212.005 425.44 213.415 424.69 215.035 424.15C216.715 423.55 218.635 423.25 220.795 423.25C225.115 423.25 228.505 424.48 230.965 426.94C233.485 429.4 234.745 432.67 234.745 436.75V463.75L240.145 465.1V466H227.545V460.6C226.885 461.86 226.045 463 225.025 464.02C224.185 464.86 223.105 465.61 221.785 466.27C220.525 466.99 218.995 467.35 217.195 467.35C212.875 467.35 209.605 466.33 207.385 464.29C205.225 462.25 204.145 459.52 204.145 456.1C204.145 454.42 204.595 452.74 205.495 451.06C206.455 449.38 207.865 447.88 209.725 446.56C211.645 445.24 214.075 444.19 217.015 443.41C219.955 442.57 223.465 442.15 227.545 442.15V436.75C227.545 432.25 226.855 429.1 225.475 427.3C224.155 425.5 222.595 424.6 220.795 424.6ZM271.652 426.85L266.252 425.5V424.6H278.852V430C279.452 428.8 280.262 427.69 281.282 426.67C282.122 425.83 283.202 425.05 284.522 424.33C285.842 423.61 287.402 423.25 289.202 423.25C291.122 423.25 293.012 423.76 294.872 424.78C296.792 425.74 298.472 427.18 299.912 429.1C301.412 430.96 302.612 433.27 303.512 436.03C304.472 438.73 304.952 441.82 304.952 445.3C304.952 448.78 304.472 451.9 303.512 454.66C302.612 457.36 301.382 459.67 299.822 461.59C298.262 463.45 296.492 464.89 294.512 465.91C292.532 466.87 290.462 467.35 288.302 467.35C286.562 467.35 285.092 467.11 283.892 466.63C282.752 466.21 281.792 465.7 281.012 465.1C280.112 464.44 279.392 463.69 278.852 462.85V485.35L284.252 486.7V487.6H266.252V486.7L271.652 485.35V426.85ZM286.952 465.55C288.212 465.55 289.412 465.22 290.552 464.56C291.752 463.9 292.802 462.79 293.702 461.23C294.662 459.61 295.412 457.51 295.952 454.93C296.552 452.35 296.852 449.14 296.852 445.3C296.852 441.46 296.552 438.25 295.952 435.67C295.412 433.09 294.692 431.02 293.792 429.46C292.952 427.9 291.992 426.79 290.912 426.13C289.892 425.41 288.872 425.05 287.852 425.05C286.352 425.05 285.062 425.47 283.982 426.31C282.902 427.15 281.972 428.08 281.192 429.1C280.292 430.3 279.512 431.65 278.852 433.15V460.15C279.392 461.17 280.052 462.07 280.832 462.85C281.492 463.51 282.332 464.14 283.352 464.74C284.372 465.28 285.572 465.55 286.952 465.55ZM324.752 463.75L330.152 465.1V466H312.152V465.1L317.552 463.75V426.85L312.152 425.5V424.6H324.752V435.4C325.532 433.18 326.462 431.17 327.542 429.37C328.502 427.81 329.672 426.4 331.052 425.14C332.432 423.88 334.082 423.25 336.002 423.25C336.662 423.25 337.292 423.31 337.892 423.43C338.492 423.49 339.032 423.58 339.512 423.7C340.052 423.88 340.532 424.03 340.952 424.15L338.252 430.9C337.892 430.72 337.502 430.51 337.082 430.27C336.722 430.09 336.272 429.94 335.732 429.82C335.252 429.64 334.742 429.55 334.202 429.55C332.642 429.55 331.262 429.97 330.062 430.81C328.862 431.65 327.872 432.58 327.092 433.6C326.132 434.8 325.352 436.15 324.752 437.65V463.75ZM368.434 443.95C363.214 443.95 359.344 445.12 356.824 447.46C354.364 449.74 353.134 452.92 353.134 457C353.134 459.7 353.794 461.8 355.114 463.3C356.434 464.8 357.874 465.55 359.434 465.55C360.874 465.55 362.134 465.13 363.214 464.29C364.354 463.45 365.314 462.52 366.094 461.5C366.994 460.36 367.774 459.01 368.434 457.45V443.95ZM361.684 424.6C359.884 424.6 358.384 425.23 357.184 426.49C355.984 427.69 355.384 429.31 355.384 431.35C355.384 431.83 355.384 432.25 355.384 432.61C355.444 432.97 355.504 433.3 355.564 433.6C355.624 433.9 355.714 434.2 355.834 434.5L348.634 436.3C348.514 436.12 348.424 435.88 348.364 435.58C348.304 435.28 348.244 434.95 348.184 434.59C348.184 434.23 348.184 433.75 348.184 433.15C348.184 431.89 348.484 430.69 349.084 429.55C349.684 428.35 350.554 427.3 351.694 426.4C352.894 425.44 354.304 424.69 355.924 424.15C357.604 423.55 359.524 423.25 361.684 423.25C366.004 423.25 369.394 424.48 371.854 426.94C374.374 429.4 375.634 432.67 375.634 436.75V463.75L381.034 465.1V466H368.434V460.6C367.774 461.86 366.934 463 365.914 464.02C365.074 464.86 363.994 465.61 362.674 466.27C361.414 466.99 359.884 467.35 358.084 467.35C353.764 467.35 350.494 466.33 348.274 464.29C346.114 462.25 345.034 459.52 345.034 456.1C345.034 454.42 345.484 452.74 346.384 451.06C347.344 449.38 348.754 447.88 350.614 446.56C352.534 445.24 354.964 444.19 357.904 443.41C360.844 442.57 364.354 442.15 368.434 442.15V436.75C368.434 432.25 367.744 429.1 366.364 427.3C365.044 425.5 363.484 424.6 361.684 424.6ZM363.034 408.76H371.134L362.134 419.56H359.434L363.034 408.76ZM409.37 424.6V426.4H399.02V455.11C399.02 458.77 399.68 461.44 401 463.12C402.32 464.74 403.76 465.55 405.32 465.55C407.36 465.55 409.07 464.8 410.45 463.3C411.89 461.74 412.73 459.49 412.97 456.55H414.32C414.08 459.97 413.03 462.64 411.17 464.56C409.37 466.42 407.12 467.35 404.42 467.35C400.58 467.35 397.52 466.24 395.24 464.02C392.96 461.74 391.82 458.8 391.82 455.2V426.4H384.17V424.6H391.82V414.25L399.02 409.3V424.6H409.37ZM423.812 463.75V426.85L418.412 425.5V424.6H431.012V463.75L436.412 465.1V466H418.412V465.1L423.812 463.75ZM431.462 414.25C431.462 415.39 430.982 416.44 430.022 417.4C429.122 418.3 428.102 418.75 426.962 418.75C425.822 418.75 424.772 418.3 423.812 417.4C422.912 416.44 422.462 415.39 422.462 414.25C422.462 413.11 422.912 412.09 423.812 411.19C424.772 410.23 425.822 409.75 426.962 409.75C428.102 409.75 429.122 410.23 430.022 411.19C430.982 412.09 431.462 413.11 431.462 414.25ZM460.241 425.05C459.101 425.05 457.961 425.41 456.821 426.13C455.741 426.79 454.751 427.9 453.851 429.46C452.951 431.02 452.201 433.09 451.601 435.67C451.061 438.25 450.791 441.46 450.791 445.3C450.791 449.14 451.061 452.35 451.601 454.93C452.201 457.51 452.981 459.61 453.941 461.23C454.901 462.79 455.981 463.9 457.181 464.56C458.441 465.22 459.761 465.55 461.141 465.55C462.701 465.55 464.171 465.25 465.551 464.65C466.931 464.05 468.161 463.24 469.241 462.22C470.321 461.2 471.191 459.97 471.851 458.53C472.571 457.09 473.051 455.53 473.291 453.85H474.641C474.401 455.77 473.861 457.57 473.021 459.25C472.241 460.87 471.221 462.28 469.961 463.48C468.701 464.68 467.231 465.61 465.551 466.27C463.931 466.99 462.161 467.35 460.241 467.35C457.901 467.35 455.651 466.87 453.491 465.91C451.391 464.89 449.531 463.45 447.911 461.59C446.291 459.67 445.001 457.36 444.041 454.66C443.141 451.9 442.691 448.78 442.691 445.3C442.691 441.82 443.141 438.73 444.041 436.03C445.001 433.27 446.261 430.96 447.821 429.1C449.381 427.18 451.151 425.74 453.131 424.78C455.111 423.76 457.181 423.25 459.341 423.25C460.781 423.25 462.041 423.49 463.121 423.97C464.261 424.45 465.221 424.96 466.001 425.5C466.901 426.16 467.681 426.91 468.341 427.75C468.581 426.85 469.061 426.01 469.781 425.23C470.561 424.45 471.281 423.94 471.941 423.7H473.291C473.171 424.48 473.081 425.29 473.021 426.13C472.961 426.85 472.901 427.63 472.841 428.47C472.841 429.31 472.841 430.12 472.841 430.9C472.841 431.8 472.841 432.73 472.841 433.69C472.901 434.59 472.961 435.4 473.021 436.12C473.081 436.96 473.171 437.77 473.291 438.55H471.941C470.801 434.23 469.121 430.9 466.901 428.56C464.741 426.22 462.521 425.05 460.241 425.05ZM504.313 443.95C499.093 443.95 495.223 445.12 492.703 447.46C490.243 449.74 489.013 452.92 489.013 457C489.013 459.7 489.673 461.8 490.993 463.3C492.313 464.8 493.753 465.55 495.313 465.55C496.753 465.55 498.013 465.13 499.093 464.29C500.233 463.45 501.193 462.52 501.973 461.5C502.873 460.36 503.653 459.01 504.313 457.45V443.95ZM497.563 424.6C495.763 424.6 494.263 425.23 493.063 426.49C491.863 427.69 491.263 429.31 491.263 431.35C491.263 431.83 491.263 432.25 491.263 432.61C491.323 432.97 491.383 433.3 491.443 433.6C491.503 433.9 491.593 434.2 491.713 434.5L484.513 436.3C484.393 436.12 484.303 435.88 484.243 435.58C484.183 435.28 484.123 434.95 484.063 434.59C484.063 434.23 484.063 433.75 484.063 433.15C484.063 431.89 484.363 430.69 484.963 429.55C485.563 428.35 486.433 427.3 487.573 426.4C488.773 425.44 490.183 424.69 491.803 424.15C493.483 423.55 495.403 423.25 497.563 423.25C501.883 423.25 505.273 424.48 507.733 426.94C510.253 429.4 511.513 432.67 511.513 436.75V463.75L516.913 465.1V466H504.313V460.6C503.653 461.86 502.813 463 501.793 464.02C500.953 464.86 499.873 465.61 498.553 466.27C497.293 466.99 495.763 467.35 493.963 467.35C489.643 467.35 486.373 466.33 484.153 464.29C481.993 462.25 480.913 459.52 480.913 456.1C480.913 454.42 481.363 452.74 482.263 451.06C483.223 449.38 484.633 447.88 486.493 446.56C488.413 445.24 490.843 444.19 493.783 443.41C496.723 442.57 500.233 442.15 504.313 442.15V436.75C504.313 432.25 503.623 429.1 502.243 427.3C500.923 425.5 499.363 424.6 497.563 424.6ZM535.37 479.5C535.37 478.48 535.52 477.55 535.82 476.71C536.12 475.93 536.48 475.24 536.9 474.64C537.38 473.98 537.92 473.35 538.52 472.75L545.27 475.45C544.67 476.05 544.13 476.68 543.65 477.34C543.23 477.94 542.87 478.63 542.57 479.41C542.27 480.25 542.12 481.18 542.12 482.2C542.12 483.76 542.51 484.96 543.29 485.8C544.07 486.7 545.03 487.15 546.17 487.15C546.71 487.15 547.25 486.97 547.79 486.61C548.33 486.31 548.81 485.74 549.23 484.9C549.65 484.12 549.98 483.04 550.22 481.66C550.52 480.28 550.67 478.51 550.67 476.35V426.85L545.27 425.5V424.6H557.87V476.35C557.87 478.15 557.57 479.8 556.97 481.3C556.37 482.8 555.56 484.06 554.54 485.08C553.52 486.16 552.29 487 550.85 487.6C549.41 488.2 547.85 488.5 546.17 488.5C544.61 488.5 543.17 488.23 541.85 487.69C540.53 487.21 539.39 486.55 538.43 485.71C537.47 484.87 536.72 483.91 536.18 482.83C535.64 481.75 535.37 480.64 535.37 479.5ZM558.32 414.25C558.32 415.39 557.84 416.44 556.88 417.4C555.98 418.3 554.96 418.75 553.82 418.75C552.68 418.75 551.63 418.3 550.67 417.4C549.77 416.44 549.32 415.39 549.32 414.25C549.32 413.11 549.77 412.09 550.67 411.19C551.63 410.23 552.68 409.75 553.82 409.75C554.96 409.75 555.98 410.23 556.88 411.19C557.84 412.09 558.32 413.11 558.32 414.25ZM591.148 443.95C585.928 443.95 582.058 445.12 579.538 447.46C577.078 449.74 575.848 452.92 575.848 457C575.848 459.7 576.508 461.8 577.828 463.3C579.148 464.8 580.588 465.55 582.148 465.55C583.588 465.55 584.848 465.13 585.928 464.29C587.068 463.45 588.028 462.52 588.808 461.5C589.708 460.36 590.488 459.01 591.148 457.45V443.95ZM584.398 424.6C582.598 424.6 581.098 425.23 579.898 426.49C578.698 427.69 578.098 429.31 578.098 431.35C578.098 431.83 578.098 432.25 578.098 432.61C578.158 432.97 578.218 433.3 578.278 433.6C578.338 433.9 578.428 434.2 578.548 434.5L571.348 436.3C571.228 436.12 571.138 435.88 571.078 435.58C571.018 435.28 570.958 434.95 570.898 434.59C570.898 434.23 570.898 433.75 570.898 433.15C570.898 431.89 571.198 430.69 571.798 429.55C572.398 428.35 573.268 427.3 574.408 426.4C575.608 425.44 577.018 424.69 578.638 424.15C580.318 423.55 582.238 423.25 584.398 423.25C588.718 423.25 592.108 424.48 594.568 426.94C597.088 429.4 598.348 432.67 598.348 436.75V463.75L603.748 465.1V466H591.148V460.6C590.488 461.86 589.648 463 588.628 464.02C587.788 464.86 586.708 465.61 585.388 466.27C584.128 466.99 582.598 467.35 580.798 467.35C576.478 467.35 573.208 466.33 570.988 464.29C568.828 462.25 567.748 459.52 567.748 456.1C567.748 454.42 568.198 452.74 569.098 451.06C570.058 449.38 571.468 447.88 573.328 446.56C575.248 445.24 577.678 444.19 580.618 443.41C583.558 442.57 587.068 442.15 591.148 442.15V436.75C591.148 432.25 590.458 429.1 589.078 427.3C587.758 425.5 586.198 424.6 584.398 424.6ZM585.748 408.76H593.848L584.848 419.56H582.148L585.748 408.76ZM653.705 424.6V426.4H643.355V455.11C643.355 458.77 644.015 461.44 645.335 463.12C646.655 464.74 648.095 465.55 649.655 465.55C651.695 465.55 653.405 464.8 654.785 463.3C656.225 461.74 657.065 459.49 657.305 456.55H658.655C658.415 459.97 657.365 462.64 655.505 464.56C653.705 466.42 651.455 467.35 648.755 467.35C644.915 467.35 641.855 466.24 639.575 464.02C637.295 461.74 636.155 458.8 636.155 455.2V426.4H628.505V424.6H636.155V414.25L643.355 409.3V424.6H653.705ZM670.869 445.3C670.869 449.14 671.139 452.35 671.679 454.93C672.279 457.51 673.029 459.61 673.929 461.23C674.889 462.79 675.939 463.9 677.079 464.56C678.279 465.22 679.509 465.55 680.769 465.55C682.329 465.55 683.799 465.25 685.179 464.65C686.559 464.05 687.789 463.24 688.869 462.22C689.949 461.2 690.819 459.97 691.479 458.53C692.199 457.09 692.679 455.53 692.919 453.85H694.269C694.029 455.77 693.489 457.57 692.649 459.25C691.869 460.87 690.849 462.28 689.589 463.48C688.329 464.68 686.859 465.61 685.179 466.27C683.559 466.99 681.789 467.35 679.869 467.35C677.589 467.35 675.429 466.87 673.389 465.91C671.349 464.89 669.519 463.45 667.899 461.59C666.339 459.67 665.079 457.36 664.119 454.66C663.219 451.9 662.769 448.78 662.769 445.3C662.769 441.7 663.219 438.52 664.119 435.76C665.019 433 666.189 430.72 667.629 428.92C669.129 427.06 670.839 425.65 672.759 424.69C674.739 423.73 676.809 423.25 678.969 423.25C681.129 423.25 683.169 423.73 685.089 424.69C687.069 425.65 688.779 427.06 690.219 428.92C691.719 430.72 692.919 433 693.819 435.76C694.719 438.52 695.169 441.7 695.169 445.3H670.869ZM678.969 424.6C678.069 424.6 677.169 424.9 676.269 425.5C675.369 426.04 674.529 427.03 673.749 428.47C672.969 429.91 672.309 431.86 671.769 434.32C671.289 436.72 670.989 439.78 670.869 443.5H687.069C686.949 439.78 686.619 436.72 686.079 434.32C685.599 431.86 684.969 429.91 684.189 428.47C683.409 427.03 682.569 426.04 681.669 425.5C680.769 424.9 679.869 424.6 678.969 424.6ZM702.418 426.85L697.018 425.5V424.6H715.018V425.5L710.068 426.85L721.408 456.1L730.768 427.75L724.918 425.5V424.6H738.418V425.5L732.568 427.75L719.518 467.35H718.168L702.418 426.85ZM748.3 445.3C748.3 449.14 748.57 452.35 749.11 454.93C749.71 457.51 750.46 459.61 751.36 461.23C752.32 462.79 753.37 463.9 754.51 464.56C755.71 465.22 756.94 465.55 758.2 465.55C759.76 465.55 761.23 465.25 762.61 464.65C763.99 464.05 765.22 463.24 766.3 462.22C767.38 461.2 768.25 459.97 768.91 458.53C769.63 457.09 770.11 455.53 770.35 453.85H771.7C771.46 455.77 770.92 457.57 770.08 459.25C769.3 460.87 768.28 462.28 767.02 463.48C765.76 464.68 764.29 465.61 762.61 466.27C760.99 466.99 759.22 467.35 757.3 467.35C755.02 467.35 752.86 466.87 750.82 465.91C748.78 464.89 746.95 463.45 745.33 461.59C743.77 459.67 742.51 457.36 741.55 454.66C740.65 451.9 740.2 448.78 740.2 445.3C740.2 441.7 740.65 438.52 741.55 435.76C742.45 433 743.62 430.72 745.06 428.92C746.56 427.06 748.27 425.65 750.19 424.69C752.17 423.73 754.24 423.25 756.4 423.25C758.56 423.25 760.6 423.73 762.52 424.69C764.5 425.65 766.21 427.06 767.65 428.92C769.15 430.72 770.35 433 771.25 435.76C772.15 438.52 772.6 441.7 772.6 445.3H748.3ZM756.4 424.6C755.5 424.6 754.6 424.9 753.7 425.5C752.8 426.04 751.96 427.03 751.18 428.47C750.4 429.91 749.74 431.86 749.2 434.32C748.72 436.72 748.42 439.78 748.3 443.5H764.5C764.38 439.78 764.05 436.72 763.51 434.32C763.03 431.86 762.4 429.91 761.62 428.47C760.84 427.03 760 426.04 759.1 425.5C758.2 424.9 757.3 424.6 756.4 424.6ZM806.4 463.75V426.85L801 425.5V424.6H813.6V430C814.2 428.8 815.01 427.69 816.03 426.67C816.87 425.83 817.95 425.05 819.27 424.33C820.59 423.61 822.15 423.25 823.95 423.25C826.23 423.25 828.09 423.67 829.53 424.51C831.03 425.35 832.23 426.28 833.13 427.3C834.21 428.5 835.05 429.85 835.65 431.35C836.43 429.85 837.36 428.5 838.44 427.3C839.4 426.28 840.57 425.35 841.95 424.51C843.33 423.67 844.98 423.25 846.9 423.25C848.7 423.25 850.35 423.58 851.85 424.24C853.41 424.9 854.76 425.83 855.9 427.03C857.04 428.17 857.91 429.58 858.51 431.26C859.17 432.88 859.5 434.71 859.5 436.75V463.75L864.9 465.1V466H847.35V465.1L852.3 463.75V436.75C852.3 432.49 851.61 429.49 850.23 427.75C848.91 425.95 847.35 425.05 845.55 425.05C844.05 425.05 842.76 425.47 841.68 426.31C840.6 427.15 839.67 428.08 838.89 429.1C837.99 430.3 837.21 431.65 836.55 433.15V463.75L841.5 465.1V466H824.4V465.1L829.35 463.75V436.75C829.35 432.49 828.66 429.49 827.28 427.75C825.96 425.95 824.4 425.05 822.6 425.05C821.1 425.05 819.81 425.47 818.73 426.31C817.65 427.15 816.72 428.08 815.94 429.1C815.04 430.3 814.26 431.65 813.6 433.15V463.75L818.55 465.1V466H801V465.1L806.4 463.75ZM904.007 426.85V463.75L909.407 465.1V466H896.807V460.6C896.147 461.86 895.307 463 894.287 464.02C893.447 464.86 892.367 465.61 891.047 466.27C889.787 466.99 888.257 467.35 886.457 467.35C884.657 467.35 882.977 467.02 881.417 466.36C879.917 465.7 878.597 464.8 877.457 463.66C876.317 462.46 875.417 461.05 874.757 459.43C874.157 457.75 873.857 455.89 873.857 453.85V426.85L868.457 425.5V424.6H886.007V425.5L881.057 426.85V453.85C881.057 458.11 881.717 461.14 883.037 462.94C884.417 464.68 886.007 465.55 887.807 465.55C889.247 465.55 890.507 465.13 891.587 464.29C892.727 463.45 893.687 462.52 894.467 461.5C895.367 460.36 896.147 459.01 896.807 457.45V426.85L891.857 425.5V424.6H909.407V425.5L904.007 426.85ZM921.097 463.75V426.85L915.697 425.5V424.6H928.297V463.75L933.697 465.1V466H915.697V465.1L921.097 463.75ZM928.747 414.25C928.747 415.39 928.267 416.44 927.307 417.4C926.407 418.3 925.387 418.75 924.247 418.75C923.107 418.75 922.057 418.3 921.097 417.4C920.197 416.44 919.747 415.39 919.747 414.25C919.747 413.11 920.197 412.09 921.097 411.19C922.057 410.23 923.107 409.75 924.247 409.75C925.387 409.75 926.407 410.23 927.307 411.19C928.267 412.09 928.747 413.11 928.747 414.25ZM962.026 424.6V426.4H951.676V455.11C951.676 458.77 952.336 461.44 953.656 463.12C954.976 464.74 956.416 465.55 957.976 465.55C960.016 465.55 961.726 464.8 963.106 463.3C964.546 461.74 965.386 459.49 965.626 456.55H966.976C966.736 459.97 965.686 462.64 963.826 464.56C962.026 466.42 959.776 467.35 957.076 467.35C953.236 467.35 950.176 466.24 947.896 464.02C945.616 461.74 944.476 458.8 944.476 455.2V426.4H936.826V424.6H944.476V414.25L951.676 409.3V424.6H962.026ZM988.189 424.6C987.169 424.6 986.119 424.96 985.039 425.68C984.019 426.34 983.059 427.48 982.159 429.1C981.319 430.66 980.599 432.76 979.999 435.4C979.459 438.04 979.189 441.34 979.189 445.3C979.189 449.26 979.459 452.56 979.999 455.2C980.599 457.84 981.319 459.97 982.159 461.59C983.059 463.15 984.019 464.29 985.039 465.01C986.119 465.67 987.169 466 988.189 466C989.209 466 990.229 465.67 991.249 465.01C992.329 464.29 993.289 463.15 994.129 461.59C995.029 459.97 995.749 457.84 996.289 455.2C996.889 452.56 997.189 449.26 997.189 445.3C997.189 441.34 996.889 438.04 996.289 435.4C995.749 432.76 995.029 430.66 994.129 429.1C993.289 427.48 992.329 426.34 991.249 425.68C990.229 424.96 989.209 424.6 988.189 424.6ZM988.189 423.25C990.409 423.25 992.539 423.76 994.579 424.78C996.679 425.74 998.509 427.18 1000.07 429.1C1001.69 430.96 1002.95 433.27 1003.85 436.03C1004.81 438.73 1005.29 441.82 1005.29 445.3C1005.29 448.78 1004.81 451.9 1003.85 454.66C1002.95 457.36 1001.69 459.67 1000.07 461.59C998.509 463.45 996.679 464.89 994.579 465.91C992.539 466.87 990.409 467.35 988.189 467.35C985.909 467.35 983.749 466.87 981.709 465.91C979.669 464.89 977.839 463.45 976.219 461.59C974.659 459.67 973.399 457.36 972.439 454.66C971.539 451.9 971.089 448.78 971.089 445.3C971.089 441.82 971.539 438.73 972.439 436.03C973.399 433.27 974.659 430.96 976.219 429.1C977.839 427.18 979.669 425.74 981.709 424.78C983.749 423.76 985.909 423.25 988.189 423.25ZM1028.66 467.35C1026.74 467.35 1025.09 467.11 1023.71 466.63C1022.33 466.21 1021.22 465.7 1020.38 465.1C1019.36 464.44 1018.52 463.69 1017.86 462.85C1017.62 463.75 1017.11 464.59 1016.33 465.37C1015.61 466.15 1014.92 466.66 1014.26 466.9H1012.91C1012.97 466.12 1013.03 465.31 1013.09 464.47C1013.15 463.75 1013.21 463 1013.27 462.22C1013.33 461.38 1013.36 460.54 1013.36 459.7C1013.36 458.8 1013.33 457.9 1013.27 457C1013.21 456.1 1013.15 455.29 1013.09 454.57C1013.03 453.73 1012.97 452.89 1012.91 452.05H1014.26C1015.4 456.37 1017.14 459.7 1019.48 462.04C1021.82 464.38 1024.58 465.55 1027.76 465.55C1030.28 465.55 1032.32 464.77 1033.88 463.21C1035.5 461.65 1036.31 459.73 1036.31 457.45C1036.31 455.83 1035.74 454.42 1034.6 453.22C1033.52 452.02 1032.14 450.94 1030.46 449.98C1028.78 448.96 1026.98 447.97 1025.06 447.01C1023.14 446.05 1021.34 444.97 1019.66 443.77C1017.98 442.57 1016.57 441.16 1015.43 439.54C1014.35 437.92 1013.81 435.94 1013.81 433.6C1013.81 432.28 1014.11 430.99 1014.71 429.73C1015.31 428.47 1016.12 427.36 1017.14 426.4C1018.22 425.44 1019.51 424.69 1021.01 424.15C1022.51 423.55 1024.16 423.25 1025.96 423.25C1027.52 423.25 1028.87 423.49 1030.01 423.97C1031.21 424.45 1032.23 424.96 1033.07 425.5C1033.97 426.16 1034.75 426.91 1035.41 427.75C1035.65 426.85 1036.13 426.01 1036.85 425.23C1037.63 424.45 1038.35 423.94 1039.01 423.7H1040.36C1040.24 424.48 1040.15 425.29 1040.09 426.13C1040.03 426.85 1039.97 427.63 1039.91 428.47C1039.91 429.31 1039.91 430.12 1039.91 430.9C1039.91 431.8 1039.91 432.73 1039.91 433.69C1039.97 434.59 1040.03 435.4 1040.09 436.12C1040.15 436.96 1040.24 437.77 1040.36 438.55H1039.01C1037.87 434.23 1036.19 430.9 1033.97 428.56C1031.75 426.22 1029.38 425.05 1026.86 425.05C1024.82 425.05 1023.11 425.74 1021.73 427.12C1020.35 428.44 1019.66 430 1019.66 431.8C1019.66 433.3 1020.23 434.59 1021.37 435.67C1022.51 436.75 1023.92 437.77 1025.6 438.73C1027.28 439.63 1029.11 440.56 1031.09 441.52C1033.13 442.48 1034.99 443.59 1036.67 444.85C1038.35 446.11 1039.76 447.61 1040.9 449.35C1042.04 451.09 1042.61 453.19 1042.61 455.65C1042.61 457.09 1042.25 458.53 1041.53 459.97C1040.87 461.35 1039.91 462.61 1038.65 463.75C1037.45 464.83 1035.98 465.7 1034.24 466.36C1032.56 467.02 1030.7 467.35 1028.66 467.35ZM100.55 563.75V526.85L95.15 525.5V524.6H107.75V530C108.35 528.8 109.16 527.69 110.18 526.67C111.02 525.83 112.1 525.05 113.42 524.33C114.74 523.61 116.3 523.25 118.1 523.25C119.9 523.25 121.55 523.58 123.05 524.24C124.61 524.9 125.96 525.83 127.1 527.03C128.24 528.17 129.11 529.58 129.71 531.26C130.37 532.88 130.7 534.71 130.7 536.75V563.75L136.1 565.1V566H118.55V565.1L123.5 563.75V536.75C123.5 532.49 122.81 529.49 121.43 527.75C120.11 525.95 118.55 525.05 116.75 525.05C115.25 525.05 113.96 525.47 112.88 526.31C111.8 527.15 110.87 528.08 110.09 529.1C109.19 530.3 108.41 531.65 107.75 533.15V563.75L112.7 565.1V566H95.15V565.1L100.55 563.75ZM159.468 524.6C158.448 524.6 157.398 524.96 156.318 525.68C155.298 526.34 154.338 527.48 153.438 529.1C152.598 530.66 151.878 532.76 151.278 535.4C150.738 538.04 150.468 541.34 150.468 545.3C150.468 549.26 150.738 552.56 151.278 555.2C151.878 557.84 152.598 559.97 153.438 561.59C154.338 563.15 155.298 564.29 156.318 565.01C157.398 565.67 158.448 566 159.468 566C160.488 566 161.508 565.67 162.528 565.01C163.608 564.29 164.568 563.15 165.408 561.59C166.308 559.97 167.028 557.84 167.568 555.2C168.168 552.56 168.468 549.26 168.468 545.3C168.468 541.34 168.168 538.04 167.568 535.4C167.028 532.76 166.308 530.66 165.408 529.1C164.568 527.48 163.608 526.34 162.528 525.68C161.508 524.96 160.488 524.6 159.468 524.6ZM159.468 523.25C161.688 523.25 163.818 523.76 165.858 524.78C167.958 525.74 169.788 527.18 171.348 529.1C172.968 530.96 174.228 533.27 175.128 536.03C176.088 538.73 176.568 541.82 176.568 545.3C176.568 548.78 176.088 551.9 175.128 554.66C174.228 557.36 172.968 559.67 171.348 561.59C169.788 563.45 167.958 564.89 165.858 565.91C163.818 566.87 161.688 567.35 159.468 567.35C157.188 567.35 155.028 566.87 152.988 565.91C150.948 564.89 149.118 563.45 147.498 561.59C145.938 559.67 144.678 557.36 143.718 554.66C142.818 551.9 142.368 548.78 142.368 545.3C142.368 541.82 142.818 538.73 143.718 536.03C144.678 533.27 145.938 530.96 147.498 529.1C149.118 527.18 150.948 525.74 152.988 524.78C155.028 523.76 157.188 523.25 159.468 523.25ZM189.144 563.75V526.85L183.744 525.5V524.6H196.344V530C196.944 528.8 197.754 527.69 198.774 526.67C199.614 525.83 200.694 525.05 202.014 524.33C203.334 523.61 204.894 523.25 206.694 523.25C208.974 523.25 210.834 523.67 212.274 524.51C213.774 525.35 214.974 526.28 215.874 527.3C216.954 528.5 217.794 529.85 218.394 531.35C219.174 529.85 220.104 528.5 221.184 527.3C222.144 526.28 223.314 525.35 224.694 524.51C226.074 523.67 227.724 523.25 229.644 523.25C231.444 523.25 233.094 523.58 234.594 524.24C236.154 524.9 237.504 525.83 238.644 527.03C239.784 528.17 240.654 529.58 241.254 531.26C241.914 532.88 242.244 534.71 242.244 536.75V563.75L247.644 565.1V566H230.094V565.1L235.044 563.75V536.75C235.044 532.49 234.354 529.49 232.974 527.75C231.654 525.95 230.094 525.05 228.294 525.05C226.794 525.05 225.504 525.47 224.424 526.31C223.344 527.15 222.414 528.08 221.634 529.1C220.734 530.3 219.954 531.65 219.294 533.15V563.75L224.244 565.1V566H207.144V565.1L212.094 563.75V536.75C212.094 532.49 211.404 529.49 210.024 527.75C208.704 525.95 207.144 525.05 205.344 525.05C203.844 525.05 202.554 525.47 201.474 526.31C200.394 527.15 199.464 528.08 198.684 529.1C197.784 530.3 197.004 531.65 196.344 533.15V563.75L201.294 565.1V566H183.744V565.1L189.144 563.75ZM262.002 545.3C262.002 549.14 262.272 552.35 262.812 554.93C263.412 557.51 264.162 559.61 265.062 561.23C266.022 562.79 267.072 563.9 268.212 564.56C269.412 565.22 270.642 565.55 271.902 565.55C273.462 565.55 274.932 565.25 276.312 564.65C277.692 564.05 278.922 563.24 280.002 562.22C281.082 561.2 281.952 559.97 282.612 558.53C283.332 557.09 283.812 555.53 284.052 553.85H285.402C285.162 555.77 284.622 557.57 283.782 559.25C283.002 560.87 281.982 562.28 280.722 563.48C279.462 564.68 277.992 565.61 276.312 566.27C274.692 566.99 272.922 567.35 271.002 567.35C268.722 567.35 266.562 566.87 264.522 565.91C262.482 564.89 260.652 563.45 259.032 561.59C257.472 559.67 256.212 557.36 255.252 554.66C254.352 551.9 253.902 548.78 253.902 545.3C253.902 541.7 254.352 538.52 255.252 535.76C256.152 533 257.322 530.72 258.762 528.92C260.262 527.06 261.972 525.65 263.892 524.69C265.872 523.73 267.942 523.25 270.102 523.25C272.262 523.25 274.302 523.73 276.222 524.69C278.202 525.65 279.912 527.06 281.352 528.92C282.852 530.72 284.052 533 284.952 535.76C285.852 538.52 286.302 541.7 286.302 545.3H262.002ZM270.102 524.6C269.202 524.6 268.302 524.9 267.402 525.5C266.502 526.04 265.662 527.03 264.882 528.47C264.102 529.91 263.442 531.86 262.902 534.32C262.422 536.72 262.122 539.78 262.002 543.5H278.202C278.082 539.78 277.752 536.72 277.212 534.32C276.732 531.86 276.102 529.91 275.322 528.47C274.542 527.03 273.702 526.04 272.802 525.5C271.902 524.9 271.002 524.6 270.102 524.6ZM309.28 567.35C307.36 567.35 305.71 567.11 304.33 566.63C302.95 566.21 301.84 565.7 301 565.1C299.98 564.44 299.14 563.69 298.48 562.85C298.24 563.75 297.73 564.59 296.95 565.37C296.23 566.15 295.54 566.66 294.88 566.9H293.53C293.59 566.12 293.65 565.31 293.71 564.47C293.77 563.75 293.83 563 293.89 562.22C293.95 561.38 293.98 560.54 293.98 559.7C293.98 558.8 293.95 557.9 293.89 557C293.83 556.1 293.77 555.29 293.71 554.57C293.65 553.73 293.59 552.89 293.53 552.05H294.88C296.02 556.37 297.76 559.7 300.1 562.04C302.44 564.38 305.2 565.55 308.38 565.55C310.9 565.55 312.94 564.77 314.5 563.21C316.12 561.65 316.93 559.73 316.93 557.45C316.93 555.83 316.36 554.42 315.22 553.22C314.14 552.02 312.76 550.94 311.08 549.98C309.4 548.96 307.6 547.97 305.68 547.01C303.76 546.05 301.96 544.97 300.28 543.77C298.6 542.57 297.19 541.16 296.05 539.54C294.97 537.92 294.43 535.94 294.43 533.6C294.43 532.28 294.73 530.99 295.33 529.73C295.93 528.47 296.74 527.36 297.76 526.4C298.84 525.44 300.13 524.69 301.63 524.15C303.13 523.55 304.78 523.25 306.58 523.25C308.14 523.25 309.49 523.49 310.63 523.97C311.83 524.45 312.85 524.96 313.69 525.5C314.59 526.16 315.37 526.91 316.03 527.75C316.27 526.85 316.75 526.01 317.47 525.23C318.25 524.45 318.97 523.94 319.63 523.7H320.98C320.86 524.48 320.77 525.29 320.71 526.13C320.65 526.85 320.59 527.63 320.53 528.47C320.53 529.31 320.53 530.12 320.53 530.9C320.53 531.8 320.53 532.73 320.53 533.69C320.59 534.59 320.65 535.4 320.71 536.12C320.77 536.96 320.86 537.77 320.98 538.55H319.63C318.49 534.23 316.81 530.9 314.59 528.56C312.37 526.22 310 525.05 307.48 525.05C305.44 525.05 303.73 525.74 302.35 527.12C300.97 528.44 300.28 530 300.28 531.8C300.28 533.3 300.85 534.59 301.99 535.67C303.13 536.75 304.54 537.77 306.22 538.73C307.9 539.63 309.73 540.56 311.71 541.52C313.75 542.48 315.61 543.59 317.29 544.85C318.97 546.11 320.38 547.61 321.52 549.35C322.66 551.09 323.23 553.19 323.23 555.65C323.23 557.09 322.87 558.53 322.15 559.97C321.49 561.35 320.53 562.61 319.27 563.75C318.07 564.83 316.6 565.7 314.86 566.36C313.18 567.02 311.32 567.35 309.28 567.35Z" fill="white"/>
</svg>
