<svg width="1300" height="976" viewBox="0 0 1300 976" fill="none" xmlns="http://www.w3.org/2000/svg">
<path d="M384.336 474.6C383.316 474.6 382.266 474.96 381.186 475.68C380.166 476.34 379.206 477.48 378.306 479.1C377.466 480.66 376.746 482.76 376.146 485.4C375.606 488.04 375.336 491.34 375.336 495.3C375.336 499.26 375.606 502.56 376.146 505.2C376.746 507.84 377.466 509.97 378.306 511.59C379.206 513.15 380.166 514.29 381.186 515.01C382.266 515.67 383.316 516 384.336 516C385.356 516 386.376 515.67 387.396 515.01C388.476 514.29 389.436 513.15 390.276 511.59C391.176 509.97 391.896 507.84 392.436 505.2C393.036 502.56 393.336 499.26 393.336 495.3C393.336 491.34 393.036 488.04 392.436 485.4C391.896 482.76 391.176 480.66 390.276 479.1C389.436 477.48 388.476 476.34 387.396 475.68C386.376 474.96 385.356 474.6 384.336 474.6ZM384.336 473.25C386.556 473.25 388.686 473.76 390.726 474.78C392.826 475.74 394.656 477.18 396.216 479.1C397.836 480.96 399.096 483.27 399.996 486.03C400.956 488.73 401.436 491.82 401.436 495.3C401.436 498.78 400.956 501.9 399.996 504.66C399.096 507.36 397.836 509.67 396.216 511.59C394.656 513.45 392.826 514.89 390.726 515.91C388.686 516.87 386.556 517.35 384.336 517.35C382.056 517.35 379.896 516.87 377.856 515.91C375.816 514.89 373.986 513.45 372.366 511.59C370.806 509.67 369.546 507.36 368.586 504.66C367.686 501.9 367.236 498.78 367.236 495.3C367.236 491.82 367.686 488.73 368.586 486.03C369.546 483.27 370.806 480.96 372.366 479.1C373.986 477.18 375.816 475.74 377.856 474.78C379.896 473.76 382.056 473.25 384.336 473.25Z" fill="white"/>
<path d="M448.682 475.05C447.542 475.05 446.402 475.41 445.262 476.13C444.182 476.79 443.192 477.9 442.292 479.46C441.392 481.02 440.642 483.09 440.042 485.67C439.502 488.25 439.232 491.46 439.232 495.3C439.232 499.14 439.502 502.35 440.042 504.93C440.642 507.51 441.422 509.61 442.382 511.23C443.342 512.79 444.422 513.9 445.622 514.56C446.882 515.22 448.202 515.55 449.582 515.55C451.142 515.55 452.612 515.25 453.992 514.65C455.372 514.05 456.602 513.24 457.682 512.22C458.762 511.2 459.632 509.97 460.292 508.53C461.012 507.09 461.492 505.53 461.732 503.85H463.082C462.842 505.77 462.302 507.57 461.462 509.25C460.682 510.87 459.662 512.28 458.402 513.48C457.142 514.68 455.672 515.61 453.992 516.27C452.372 516.99 450.602 517.35 448.682 517.35C446.342 517.35 444.092 516.87 441.932 515.91C439.832 514.89 437.972 513.45 436.352 511.59C434.732 509.67 433.442 507.36 432.482 504.66C431.582 501.9 431.132 498.78 431.132 495.3C431.132 491.82 431.582 488.73 432.482 486.03C433.442 483.27 434.702 480.96 436.262 479.1C437.822 477.18 439.592 475.74 441.572 474.78C443.552 473.76 445.622 473.25 447.782 473.25C449.222 473.25 450.482 473.49 451.562 473.97C452.702 474.45 453.662 474.96 454.442 475.5C455.342 476.16 456.122 476.91 456.782 477.75C457.022 476.85 457.502 476.01 458.222 475.23C459.002 474.45 459.722 473.94 460.382 473.7H461.732C461.612 474.48 461.522 475.29 461.462 476.13C461.402 476.85 461.342 477.63 461.282 478.47C461.282 479.31 461.282 480.12 461.282 480.9C461.282 481.8 461.282 482.73 461.282 483.69C461.342 484.59 461.402 485.4 461.462 486.12C461.522 486.96 461.612 487.77 461.732 488.55H460.382C459.242 484.23 457.562 480.9 455.342 478.56C453.182 476.22 450.962 475.05 448.682 475.05ZM486.904 474.6C485.884 474.6 484.834 474.96 483.754 475.68C482.734 476.34 481.774 477.48 480.874 479.1C480.034 480.66 479.314 482.76 478.714 485.4C478.174 488.04 477.904 491.34 477.904 495.3C477.904 499.26 478.174 502.56 478.714 505.2C479.314 507.84 480.034 509.97 480.874 511.59C481.774 513.15 482.734 514.29 483.754 515.01C484.834 515.67 485.884 516 486.904 516C487.924 516 488.944 515.67 489.964 515.01C491.044 514.29 492.004 513.15 492.844 511.59C493.744 509.97 494.464 507.84 495.004 505.2C495.604 502.56 495.904 499.26 495.904 495.3C495.904 491.34 495.604 488.04 495.004 485.4C494.464 482.76 493.744 480.66 492.844 479.1C492.004 477.48 491.044 476.34 489.964 475.68C488.944 474.96 487.924 474.6 486.904 474.6ZM486.904 473.25C489.124 473.25 491.254 473.76 493.294 474.78C495.394 475.74 497.224 477.18 498.784 479.1C500.404 480.96 501.664 483.27 502.564 486.03C503.524 488.73 504.004 491.82 504.004 495.3C504.004 498.78 503.524 501.9 502.564 504.66C501.664 507.36 500.404 509.67 498.784 511.59C497.224 513.45 495.394 514.89 493.294 515.91C491.254 516.87 489.124 517.35 486.904 517.35C484.624 517.35 482.464 516.87 480.424 515.91C478.384 514.89 476.554 513.45 474.934 511.59C473.374 509.67 472.114 507.36 471.154 504.66C470.254 501.9 469.804 498.78 469.804 495.3C469.804 491.82 470.254 488.73 471.154 486.03C472.114 483.27 473.374 480.96 474.934 479.1C476.554 477.18 478.384 475.74 480.424 474.78C482.464 473.76 484.624 473.25 486.904 473.25ZM488.254 458.85H496.354L487.354 469.65H484.654L488.254 458.85ZM529.629 475.05C528.369 475.05 527.139 475.41 525.939 476.13C524.799 476.79 523.749 477.9 522.789 479.46C521.889 481.02 521.139 483.09 520.539 485.67C519.999 488.25 519.729 491.46 519.729 495.3C519.729 499.14 519.999 502.35 520.539 504.93C521.139 507.51 521.859 509.61 522.699 511.23C523.599 512.79 524.559 513.9 525.579 514.56C526.659 515.22 527.709 515.55 528.729 515.55C530.169 515.55 531.429 515.13 532.509 514.29C533.649 513.45 534.609 512.52 535.389 511.5C536.289 510.36 537.069 509.01 537.729 507.45V480.45C537.129 479.43 536.439 478.53 535.659 477.75C534.999 477.09 534.159 476.49 533.139 475.95C532.179 475.35 531.009 475.05 529.629 475.05ZM544.929 513.75L550.329 515.1V516H537.729V510.6C537.069 511.86 536.229 513 535.209 514.02C534.369 514.86 533.289 515.61 531.969 516.27C530.709 516.99 529.179 517.35 527.379 517.35C525.459 517.35 523.539 516.87 521.619 515.91C519.759 514.89 518.079 513.45 516.579 511.59C515.139 509.67 513.939 507.36 512.979 504.66C512.079 501.9 511.629 498.78 511.629 495.3C511.629 491.82 512.079 488.73 512.979 486.03C513.939 483.27 515.199 480.96 516.759 479.1C518.319 477.18 520.089 475.74 522.069 474.78C524.049 473.76 526.119 473.25 528.279 473.25C529.959 473.25 531.399 473.49 532.599 473.97C533.799 474.45 534.789 474.96 535.569 475.5C536.469 476.16 537.189 476.91 537.729 477.75V455.25L532.329 453.9V453H544.929V513.75ZM561.579 513.75V476.85L556.179 475.5V474.6H568.779V513.75L574.179 515.1V516H556.179V515.1L561.579 513.75ZM569.229 464.25C569.229 465.39 568.749 466.44 567.789 467.4C566.889 468.3 565.869 468.75 564.729 468.75C563.589 468.75 562.539 468.3 561.579 467.4C560.679 466.44 560.229 465.39 560.229 464.25C560.229 463.11 560.679 462.09 561.579 461.19C562.539 460.23 563.589 459.75 564.729 459.75C565.869 459.75 566.889 460.23 567.789 461.19C568.749 462.09 569.229 463.11 569.229 464.25ZM596.208 502.5C597.228 502.5 598.218 502.26 599.178 501.78C600.138 501.24 601.008 500.4 601.788 499.26C602.568 498.12 603.168 496.68 603.588 494.94C604.068 493.14 604.308 491.01 604.308 488.55C604.308 486.09 604.068 483.99 603.588 482.25C603.168 480.45 602.568 479.01 601.788 477.93C601.008 476.79 600.138 475.95 599.178 475.41C598.218 474.87 597.228 474.6 596.208 474.6C595.188 474.6 594.198 474.87 593.238 475.41C592.278 475.95 591.408 476.79 590.628 477.93C589.848 479.01 589.218 480.45 588.738 482.25C588.318 483.99 588.108 486.09 588.108 488.55C588.108 491.01 588.318 493.14 588.738 494.94C589.218 496.68 589.848 498.12 590.628 499.26C591.408 500.4 592.278 501.24 593.238 501.78C594.198 502.26 595.188 502.5 596.208 502.5ZM598.008 537.24C600.228 537.24 602.238 536.91 604.038 536.25C605.838 535.65 607.338 534.81 608.538 533.73C609.798 532.65 610.758 531.39 611.418 529.95C612.078 528.51 612.408 527.01 612.408 525.45C612.408 519.75 609.558 516.9 603.858 516.9H589.458C586.038 516.9 583.518 516.21 581.898 514.83C580.338 513.45 579.558 511.74 579.558 509.7C579.558 508.32 579.888 507.12 580.548 506.1C581.268 505.02 582.048 504.06 582.888 503.22C583.908 502.32 585.048 501.48 586.308 500.7C585.108 499.92 584.058 498.96 583.158 497.82C582.318 496.8 581.568 495.54 580.908 494.04C580.308 492.54 580.008 490.71 580.008 488.55C580.008 486.39 580.398 484.38 581.178 482.52C582.018 480.66 583.158 479.04 584.598 477.66C586.038 476.28 587.748 475.2 589.728 474.42C591.708 473.64 593.868 473.25 596.208 473.25C597.228 473.25 598.218 473.34 599.178 473.52C600.138 473.7 601.008 473.91 601.788 474.15C602.688 474.39 603.528 474.69 604.308 475.05C604.788 474.39 605.358 473.79 606.018 473.25C606.618 472.77 607.368 472.35 608.268 471.99C609.168 471.63 610.248 471.45 611.508 471.45C613.548 471.45 615.138 471.84 616.278 472.62C617.478 473.34 618.408 474.15 619.068 475.05C619.788 476.13 620.268 477.33 620.508 478.65L613.758 480C613.578 478.8 613.308 477.69 612.948 476.67C612.648 475.83 612.228 475.05 611.688 474.33C611.148 473.61 610.488 473.25 609.708 473.25C609.048 473.25 608.448 473.4 607.908 473.7C607.368 474 606.948 474.3 606.648 474.6C606.228 475.02 605.898 475.47 605.658 475.95C607.938 477.33 609.618 479.1 610.698 481.26C611.838 483.42 612.408 485.85 612.408 488.55C612.408 490.71 611.988 492.72 611.148 494.58C610.368 496.44 609.258 498.06 607.818 499.44C606.378 500.82 604.668 501.9 602.688 502.68C600.708 503.46 598.548 503.85 596.208 503.85C594.948 503.85 593.808 503.76 592.788 503.58C591.768 503.34 590.868 503.07 590.088 502.77C589.188 502.47 588.378 502.08 587.658 501.6C586.818 502.14 586.068 502.71 585.408 503.31C584.808 503.79 584.268 504.36 583.788 505.02C583.368 505.68 583.158 506.34 583.158 507C583.158 507.9 583.578 508.65 584.418 509.25C585.258 509.79 586.938 510.06 589.458 510.06H603.858C607.458 510.06 610.368 511.23 612.588 513.57C614.868 515.85 616.008 518.91 616.008 522.75C616.008 525.03 615.558 527.13 614.658 529.05C613.818 531.03 612.618 532.74 611.058 534.18C609.498 535.68 607.608 536.85 605.388 537.69C603.168 538.53 600.708 538.95 598.008 538.95C594.648 538.95 591.708 538.56 589.188 537.78C586.728 537.06 584.688 536.04 583.068 534.72C581.448 533.46 580.218 531.96 579.378 530.22C578.598 528.48 578.208 526.59 578.208 524.55C578.208 523.77 578.298 523.05 578.478 522.39C578.658 521.79 578.868 521.28 579.108 520.86C579.348 520.38 579.648 519.96 580.008 519.6L586.758 522.3C586.578 522.72 586.428 523.17 586.308 523.65C586.008 524.55 585.858 525.45 585.858 526.35C585.858 529.53 586.908 532.14 589.008 534.18C591.168 536.22 594.168 537.24 598.008 537.24ZM641.24 474.6C640.22 474.6 639.17 474.96 638.09 475.68C637.07 476.34 636.11 477.48 635.21 479.1C634.37 480.66 633.65 482.76 633.05 485.4C632.51 488.04 632.24 491.34 632.24 495.3C632.24 499.26 632.51 502.56 633.05 505.2C633.65 507.84 634.37 509.97 635.21 511.59C636.11 513.15 637.07 514.29 638.09 515.01C639.17 515.67 640.22 516 641.24 516C642.26 516 643.28 515.67 644.3 515.01C645.38 514.29 646.34 513.15 647.18 511.59C648.08 509.97 648.8 507.84 649.34 505.2C649.94 502.56 650.24 499.26 650.24 495.3C650.24 491.34 649.94 488.04 649.34 485.4C648.8 482.76 648.08 480.66 647.18 479.1C646.34 477.48 645.38 476.34 644.3 475.68C643.28 474.96 642.26 474.6 641.24 474.6ZM641.24 473.25C643.46 473.25 645.59 473.76 647.63 474.78C649.73 475.74 651.56 477.18 653.12 479.1C654.74 480.96 656 483.27 656.9 486.03C657.86 488.73 658.34 491.82 658.34 495.3C658.34 498.78 657.86 501.9 656.9 504.66C656 507.36 654.74 509.67 653.12 511.59C651.56 513.45 649.73 514.89 647.63 515.91C645.59 516.87 643.46 517.35 641.24 517.35C638.96 517.35 636.8 516.87 634.76 515.91C632.72 514.89 630.89 513.45 629.27 511.59C627.71 509.67 626.45 507.36 625.49 504.66C624.59 501.9 624.14 498.78 624.14 495.3C624.14 491.82 624.59 488.73 625.49 486.03C626.45 483.27 627.71 480.96 629.27 479.1C630.89 477.18 632.72 475.74 634.76 474.78C636.8 473.76 638.96 473.25 641.24 473.25ZM705.586 475.05C704.446 475.05 703.306 475.41 702.166 476.13C701.086 476.79 700.096 477.9 699.196 479.46C698.296 481.02 697.546 483.09 696.946 485.67C696.406 488.25 696.136 491.46 696.136 495.3C696.136 499.14 696.406 502.35 696.946 504.93C697.546 507.51 698.326 509.61 699.286 511.23C700.246 512.79 701.326 513.9 702.526 514.56C703.786 515.22 705.106 515.55 706.486 515.55C708.046 515.55 709.516 515.25 710.896 514.65C712.276 514.05 713.506 513.24 714.586 512.22C715.666 511.2 716.536 509.97 717.196 508.53C717.916 507.09 718.396 505.53 718.636 503.85H719.986C719.746 505.77 719.206 507.57 718.366 509.25C717.586 510.87 716.566 512.28 715.306 513.48C714.046 514.68 712.576 515.61 710.896 516.27C709.276 516.99 707.506 517.35 705.586 517.35C703.246 517.35 700.996 516.87 698.836 515.91C696.736 514.89 694.876 513.45 693.256 511.59C691.636 509.67 690.346 507.36 689.386 504.66C688.486 501.9 688.036 498.78 688.036 495.3C688.036 491.82 688.486 488.73 689.386 486.03C690.346 483.27 691.606 480.96 693.166 479.1C694.726 477.18 696.496 475.74 698.476 474.78C700.456 473.76 702.526 473.25 704.686 473.25C706.126 473.25 707.386 473.49 708.466 473.97C709.606 474.45 710.566 474.96 711.346 475.5C712.246 476.16 713.026 476.91 713.686 477.75C713.926 476.85 714.406 476.01 715.126 475.23C715.906 474.45 716.626 473.94 717.286 473.7H718.636C718.516 474.48 718.426 475.29 718.366 476.13C718.306 476.85 718.246 477.63 718.186 478.47C718.186 479.31 718.186 480.12 718.186 480.9C718.186 481.8 718.186 482.73 718.186 483.69C718.246 484.59 718.306 485.4 718.366 486.12C718.426 486.96 718.516 487.77 718.636 488.55H717.286C716.146 484.23 714.466 480.9 712.246 478.56C710.086 476.22 707.866 475.05 705.586 475.05ZM743.808 474.6C742.788 474.6 741.738 474.96 740.658 475.68C739.638 476.34 738.678 477.48 737.778 479.1C736.938 480.66 736.218 482.76 735.618 485.4C735.078 488.04 734.808 491.34 734.808 495.3C734.808 499.26 735.078 502.56 735.618 505.2C736.218 507.84 736.938 509.97 737.778 511.59C738.678 513.15 739.638 514.29 740.658 515.01C741.738 515.67 742.788 516 743.808 516C744.828 516 745.848 515.67 746.868 515.01C747.948 514.29 748.908 513.15 749.748 511.59C750.648 509.97 751.368 507.84 751.908 505.2C752.508 502.56 752.808 499.26 752.808 495.3C752.808 491.34 752.508 488.04 751.908 485.4C751.368 482.76 750.648 480.66 749.748 479.1C748.908 477.48 747.948 476.34 746.868 475.68C745.848 474.96 744.828 474.6 743.808 474.6ZM743.808 473.25C746.028 473.25 748.158 473.76 750.198 474.78C752.298 475.74 754.128 477.18 755.688 479.1C757.308 480.96 758.568 483.27 759.468 486.03C760.428 488.73 760.908 491.82 760.908 495.3C760.908 498.78 760.428 501.9 759.468 504.66C758.568 507.36 757.308 509.67 755.688 511.59C754.128 513.45 752.298 514.89 750.198 515.91C748.158 516.87 746.028 517.35 743.808 517.35C741.528 517.35 739.368 516.87 737.328 515.91C735.288 514.89 733.458 513.45 731.838 511.59C730.278 509.67 729.018 507.36 728.058 504.66C727.158 501.9 726.708 498.78 726.708 495.3C726.708 491.82 727.158 488.73 728.058 486.03C729.018 483.27 730.278 480.96 731.838 479.1C733.458 477.18 735.288 475.74 737.328 474.78C739.368 473.76 741.528 473.25 743.808 473.25ZM773.484 513.75V476.85L768.084 475.5V474.6H780.684V480C781.284 478.8 782.094 477.69 783.114 476.67C783.954 475.83 785.034 475.05 786.354 474.33C787.674 473.61 789.234 473.25 791.034 473.25C793.314 473.25 795.174 473.67 796.614 474.51C798.114 475.35 799.314 476.28 800.214 477.3C801.294 478.5 802.134 479.85 802.734 481.35C803.514 479.85 804.444 478.5 805.524 477.3C806.484 476.28 807.654 475.35 809.034 474.51C810.414 473.67 812.064 473.25 813.984 473.25C815.784 473.25 817.434 473.58 818.934 474.24C820.494 474.9 821.844 475.83 822.984 477.03C824.124 478.17 824.994 479.58 825.594 481.26C826.254 482.88 826.584 484.71 826.584 486.75V513.75L831.984 515.1V516H814.434V515.1L819.384 513.75V486.75C819.384 482.49 818.694 479.49 817.314 477.75C815.994 475.95 814.434 475.05 812.634 475.05C811.134 475.05 809.844 475.47 808.764 476.31C807.684 477.15 806.754 478.08 805.974 479.1C805.074 480.3 804.294 481.65 803.634 483.15V513.75L808.584 515.1V516H791.484V515.1L796.434 513.75V486.75C796.434 482.49 795.744 479.49 794.364 477.75C793.044 475.95 791.484 475.05 789.684 475.05C788.184 475.05 786.894 475.47 785.814 476.31C784.734 477.15 783.804 478.08 783.024 479.1C782.124 480.3 781.344 481.65 780.684 483.15V513.75L785.634 515.1V516H768.084V515.1L773.484 513.75ZM841.841 476.85L836.441 475.5V474.6H849.041V480C849.641 478.8 850.451 477.69 851.471 476.67C852.311 475.83 853.391 475.05 854.711 474.33C856.031 473.61 857.591 473.25 859.391 473.25C861.311 473.25 863.201 473.76 865.061 474.78C866.981 475.74 868.661 477.18 870.101 479.1C871.601 480.96 872.801 483.27 873.701 486.03C874.661 488.73 875.141 491.82 875.141 495.3C875.141 498.78 874.661 501.9 873.701 504.66C872.801 507.36 871.571 509.67 870.011 511.59C868.451 513.45 866.681 514.89 864.701 515.91C862.721 516.87 860.651 517.35 858.491 517.35C856.751 517.35 855.281 517.11 854.081 516.63C852.941 516.21 851.981 515.7 851.201 515.1C850.301 514.44 849.581 513.69 849.041 512.85V535.35L854.441 536.7V537.6H836.441V536.7L841.841 535.35V476.85ZM857.141 515.55C858.401 515.55 859.601 515.22 860.741 514.56C861.941 513.9 862.991 512.79 863.891 511.23C864.851 509.61 865.601 507.51 866.141 504.93C866.741 502.35 867.041 499.14 867.041 495.3C867.041 491.46 866.741 488.25 866.141 485.67C865.601 483.09 864.881 481.02 863.981 479.46C863.141 477.9 862.181 476.79 861.101 476.13C860.081 475.41 859.061 475.05 858.041 475.05C856.541 475.05 855.251 475.47 854.171 476.31C853.091 477.15 852.161 478.08 851.381 479.1C850.481 480.3 849.701 481.65 849.041 483.15V510.15C849.581 511.17 850.241 512.07 851.021 512.85C851.681 513.51 852.521 514.14 853.541 514.74C854.561 515.28 855.761 515.55 857.141 515.55ZM916.091 476.85V513.75L921.491 515.1V516H908.891V510.6C908.231 511.86 907.391 513 906.371 514.02C905.531 514.86 904.451 515.61 903.131 516.27C901.871 516.99 900.341 517.35 898.541 517.35C896.741 517.35 895.061 517.02 893.501 516.36C892.001 515.7 890.681 514.8 889.541 513.66C888.401 512.46 887.501 511.05 886.841 509.43C886.241 507.75 885.941 505.89 885.941 503.85V476.85L880.541 475.5V474.6H898.091V475.5L893.141 476.85V503.85C893.141 508.11 893.801 511.14 895.121 512.94C896.501 514.68 898.091 515.55 899.891 515.55C901.331 515.55 902.591 515.13 903.671 514.29C904.811 513.45 905.771 512.52 906.551 511.5C907.451 510.36 908.231 509.01 908.891 507.45V476.85L903.941 475.5V474.6H921.491V475.5L916.091 476.85ZM950.731 474.6V476.4H940.381V505.11C940.381 508.77 941.041 511.44 942.361 513.12C943.681 514.74 945.121 515.55 946.681 515.55C948.721 515.55 950.431 514.8 951.811 513.3C953.251 511.74 954.091 509.49 954.331 506.55H955.681C955.441 509.97 954.391 512.64 952.531 514.56C950.731 516.42 948.481 517.35 945.781 517.35C941.941 517.35 938.881 516.24 936.601 514.02C934.321 511.74 933.181 508.8 933.181 505.2V476.4H925.531V474.6H933.181V464.25L940.381 459.3V474.6H950.731ZM983.623 493.95C978.403 493.95 974.533 495.12 972.013 497.46C969.553 499.74 968.323 502.92 968.323 507C968.323 509.7 968.983 511.8 970.303 513.3C971.623 514.8 973.063 515.55 974.623 515.55C976.063 515.55 977.323 515.13 978.403 514.29C979.543 513.45 980.503 512.52 981.283 511.5C982.183 510.36 982.963 509.01 983.623 507.45V493.95ZM976.873 474.6C975.073 474.6 973.573 475.23 972.373 476.49C971.173 477.69 970.573 479.31 970.573 481.35C970.573 481.83 970.573 482.25 970.573 482.61C970.633 482.97 970.693 483.3 970.753 483.6C970.813 483.9 970.903 484.2 971.023 484.5L963.823 486.3C963.703 486.12 963.613 485.88 963.553 485.58C963.493 485.28 963.433 484.95 963.373 484.59C963.373 484.23 963.373 483.75 963.373 483.15C963.373 481.89 963.673 480.69 964.273 479.55C964.873 478.35 965.743 477.3 966.883 476.4C968.083 475.44 969.493 474.69 971.113 474.15C972.793 473.55 974.713 473.25 976.873 473.25C981.193 473.25 984.583 474.48 987.043 476.94C989.563 479.4 990.823 482.67 990.823 486.75V513.75L996.223 515.1V516H983.623V510.6C982.963 511.86 982.123 513 981.103 514.02C980.263 514.86 979.183 515.61 977.863 516.27C976.603 516.99 975.073 517.35 973.273 517.35C968.953 517.35 965.683 516.33 963.463 514.29C961.303 512.25 960.223 509.52 960.223 506.1C960.223 504.42 960.673 502.74 961.573 501.06C962.533 499.38 963.943 497.88 965.803 496.56C967.723 495.24 970.153 494.19 973.093 493.41C976.033 492.57 979.543 492.15 983.623 492.15V486.75C983.623 482.25 982.933 479.1 981.553 477.3C980.233 475.5 978.673 474.6 976.873 474.6ZM1020.06 475.05C1018.92 475.05 1017.78 475.41 1016.64 476.13C1015.56 476.79 1014.57 477.9 1013.67 479.46C1012.77 481.02 1012.02 483.09 1011.42 485.67C1010.88 488.25 1010.61 491.46 1010.61 495.3C1010.61 499.14 1010.88 502.35 1011.42 504.93C1012.02 507.51 1012.8 509.61 1013.76 511.23C1014.72 512.79 1015.8 513.9 1017 514.56C1018.26 515.22 1019.58 515.55 1020.96 515.55C1022.52 515.55 1023.99 515.25 1025.37 514.65C1026.75 514.05 1027.98 513.24 1029.06 512.22C1030.14 511.2 1031.01 509.97 1031.67 508.53C1032.39 507.09 1032.87 505.53 1033.11 503.85H1034.46C1034.22 505.77 1033.68 507.57 1032.84 509.25C1032.06 510.87 1031.04 512.28 1029.78 513.48C1028.52 514.68 1027.05 515.61 1025.37 516.27C1023.75 516.99 1021.98 517.35 1020.06 517.35C1017.72 517.35 1015.47 516.87 1013.31 515.91C1011.21 514.89 1009.35 513.45 1007.73 511.59C1006.11 509.67 1004.82 507.36 1003.86 504.66C1002.96 501.9 1002.51 498.78 1002.51 495.3C1002.51 491.82 1002.96 488.73 1003.86 486.03C1004.82 483.27 1006.08 480.96 1007.64 479.1C1009.2 477.18 1010.97 475.74 1012.95 474.78C1014.93 473.76 1017 473.25 1019.16 473.25C1020.6 473.25 1021.86 473.49 1022.94 473.97C1024.08 474.45 1025.04 474.96 1025.82 475.5C1026.72 476.16 1027.5 476.91 1028.16 477.75C1028.4 476.85 1028.88 476.01 1029.6 475.23C1030.38 474.45 1031.1 473.94 1031.76 473.7H1033.11C1032.99 474.48 1032.9 475.29 1032.84 476.13C1032.78 476.85 1032.72 477.63 1032.66 478.47C1032.66 479.31 1032.66 480.12 1032.66 480.9C1032.66 481.8 1032.66 482.73 1032.66 483.69C1032.72 484.59 1032.78 485.4 1032.84 486.12C1032.9 486.96 1032.99 487.77 1033.11 488.55H1031.76C1030.62 484.23 1028.94 480.9 1026.72 478.56C1024.56 476.22 1022.34 475.05 1020.06 475.05ZM1045.68 513.75V476.85L1040.28 475.5V474.6H1052.88V513.75L1058.28 515.1V516H1040.28V515.1L1045.68 513.75ZM1053.33 464.25C1053.33 465.39 1052.85 466.44 1051.89 467.4C1050.99 468.3 1049.97 468.75 1048.83 468.75C1047.69 468.75 1046.64 468.3 1045.68 467.4C1044.78 466.44 1044.33 465.39 1044.33 464.25C1044.33 463.11 1044.78 462.09 1045.68 461.19C1046.64 460.23 1047.69 459.75 1048.83 459.75C1049.97 459.75 1050.99 460.23 1051.89 461.19C1052.85 462.09 1053.33 463.11 1053.33 464.25ZM1081.66 474.6C1080.64 474.6 1079.59 474.96 1078.51 475.68C1077.49 476.34 1076.53 477.48 1075.63 479.1C1074.79 480.66 1074.07 482.76 1073.47 485.4C1072.93 488.04 1072.66 491.34 1072.66 495.3C1072.66 499.26 1072.93 502.56 1073.47 505.2C1074.07 507.84 1074.79 509.97 1075.63 511.59C1076.53 513.15 1077.49 514.29 1078.51 515.01C1079.59 515.67 1080.64 516 1081.66 516C1082.68 516 1083.7 515.67 1084.72 515.01C1085.8 514.29 1086.76 513.15 1087.6 511.59C1088.5 509.97 1089.22 507.84 1089.76 505.2C1090.36 502.56 1090.66 499.26 1090.66 495.3C1090.66 491.34 1090.36 488.04 1089.76 485.4C1089.22 482.76 1088.5 480.66 1087.6 479.1C1086.76 477.48 1085.8 476.34 1084.72 475.68C1083.7 474.96 1082.68 474.6 1081.66 474.6ZM1081.66 473.25C1083.88 473.25 1086.01 473.76 1088.05 474.78C1090.15 475.74 1091.98 477.18 1093.54 479.1C1095.16 480.96 1096.42 483.27 1097.32 486.03C1098.28 488.73 1098.76 491.82 1098.76 495.3C1098.76 498.78 1098.28 501.9 1097.32 504.66C1096.42 507.36 1095.16 509.67 1093.54 511.59C1091.98 513.45 1090.15 514.89 1088.05 515.91C1086.01 516.87 1083.88 517.35 1081.66 517.35C1079.38 517.35 1077.22 516.87 1075.18 515.91C1073.14 514.89 1071.31 513.45 1069.69 511.59C1068.13 509.67 1066.87 507.36 1065.91 504.66C1065.01 501.9 1064.56 498.78 1064.56 495.3C1064.56 491.82 1065.01 488.73 1065.91 486.03C1066.87 483.27 1068.13 480.96 1069.69 479.1C1071.31 477.18 1073.14 475.74 1075.18 474.78C1077.22 473.76 1079.38 473.25 1081.66 473.25ZM1111.34 513.75V476.85L1105.94 475.5V474.6H1118.54V480C1119.14 478.8 1119.95 477.69 1120.97 476.67C1121.81 475.83 1122.89 475.05 1124.21 474.33C1125.53 473.61 1127.09 473.25 1128.89 473.25C1130.69 473.25 1132.34 473.58 1133.84 474.24C1135.4 474.9 1136.75 475.83 1137.89 477.03C1139.03 478.17 1139.9 479.58 1140.5 481.26C1141.16 482.88 1141.49 484.71 1141.49 486.75V513.75L1146.89 515.1V516H1129.34V515.1L1134.29 513.75V486.75C1134.29 482.49 1133.6 479.49 1132.22 477.75C1130.9 475.95 1129.34 475.05 1127.54 475.05C1126.04 475.05 1124.75 475.47 1123.67 476.31C1122.59 477.15 1121.66 478.08 1120.88 479.1C1119.98 480.3 1119.2 481.65 1118.54 483.15V513.75L1123.49 515.1V516H1105.94V515.1L1111.34 513.75ZM1176.1 493.95C1170.88 493.95 1167.01 495.12 1164.49 497.46C1162.03 499.74 1160.8 502.92 1160.8 507C1160.8 509.7 1161.46 511.8 1162.78 513.3C1164.1 514.8 1165.54 515.55 1167.1 515.55C1168.54 515.55 1169.8 515.13 1170.88 514.29C1172.02 513.45 1172.98 512.52 1173.76 511.5C1174.66 510.36 1175.44 509.01 1176.1 507.45V493.95ZM1169.35 474.6C1167.55 474.6 1166.05 475.23 1164.85 476.49C1163.65 477.69 1163.05 479.31 1163.05 481.35C1163.05 481.83 1163.05 482.25 1163.05 482.61C1163.11 482.97 1163.17 483.3 1163.23 483.6C1163.29 483.9 1163.38 484.2 1163.5 484.5L1156.3 486.3C1156.18 486.12 1156.09 485.88 1156.03 485.58C1155.97 485.28 1155.91 484.95 1155.85 484.59C1155.85 484.23 1155.85 483.75 1155.85 483.15C1155.85 481.89 1156.15 480.69 1156.75 479.55C1157.35 478.35 1158.22 477.3 1159.36 476.4C1160.56 475.44 1161.97 474.69 1163.59 474.15C1165.27 473.55 1167.19 473.25 1169.35 473.25C1173.67 473.25 1177.06 474.48 1179.52 476.94C1182.04 479.4 1183.3 482.67 1183.3 486.75V513.75L1188.7 515.1V516H1176.1V510.6C1175.44 511.86 1174.6 513 1173.58 514.02C1172.74 514.86 1171.66 515.61 1170.34 516.27C1169.08 516.99 1167.55 517.35 1165.75 517.35C1161.43 517.35 1158.16 516.33 1155.94 514.29C1153.78 512.25 1152.7 509.52 1152.7 506.1C1152.7 504.42 1153.15 502.74 1154.05 501.06C1155.01 499.38 1156.42 497.88 1158.28 496.56C1160.2 495.24 1162.63 494.19 1165.57 493.41C1168.51 492.57 1172.02 492.15 1176.1 492.15V486.75C1176.1 482.25 1175.41 479.1 1174.03 477.3C1172.71 475.5 1171.15 474.6 1169.35 474.6ZM1198.16 513.75V455.25L1192.76 453.9V453H1205.36V513.75L1210.76 515.1V516H1192.76V515.1L1198.16 513.75Z" fill="black"/>
</svg>
