<svg width="1300" height="976" viewBox="0 0 1300 976" fill="none" xmlns="http://www.w3.org/2000/svg">
<path d="M191.472 413.75V376.85L186.072 375.5V374.6H198.672V380C199.272 378.8 200.082 377.69 201.102 376.67C201.942 375.83 203.022 375.05 204.342 374.33C205.662 373.61 207.222 373.25 209.022 373.25C211.302 373.25 213.162 373.67 214.602 374.51C216.102 375.35 217.302 376.28 218.202 377.3C219.282 378.5 220.122 379.85 220.722 381.35C221.502 379.85 222.432 378.5 223.512 377.3C224.472 376.28 225.642 375.35 227.022 374.51C228.402 373.67 230.052 373.25 231.972 373.25C233.772 373.25 235.422 373.58 236.922 374.24C238.482 374.9 239.832 375.83 240.972 377.03C242.112 378.17 242.982 379.58 243.582 381.26C244.242 382.88 244.572 384.71 244.572 386.75V413.75L249.972 415.1V416H232.422V415.1L237.372 413.75V386.75C237.372 382.49 236.682 379.49 235.302 377.75C233.982 375.95 232.422 375.05 230.622 375.05C229.122 375.05 227.832 375.47 226.752 376.31C225.672 377.15 224.742 378.08 223.962 379.1C223.062 380.3 222.282 381.65 221.622 383.15V413.75L226.572 415.1V416H209.472V415.1L214.422 413.75V386.75C214.422 382.49 213.732 379.49 212.352 377.75C211.032 375.95 209.472 375.05 207.672 375.05C206.172 375.05 204.882 375.47 203.802 376.31C202.722 377.15 201.792 378.08 201.012 379.1C200.112 380.3 199.332 381.65 198.672 383.15V413.75L203.622 415.1V416H186.072V415.1L191.472 413.75ZM279.18 393.95C273.96 393.95 270.09 395.12 267.57 397.46C265.11 399.74 263.88 402.92 263.88 407C263.88 409.7 264.54 411.8 265.86 413.3C267.18 414.8 268.62 415.55 270.18 415.55C271.62 415.55 272.88 415.13 273.96 414.29C275.1 413.45 276.06 412.52 276.84 411.5C277.74 410.36 278.52 409.01 279.18 407.45V393.95ZM272.43 374.6C270.63 374.6 269.13 375.23 267.93 376.49C266.73 377.69 266.13 379.31 266.13 381.35C266.13 381.83 266.13 382.25 266.13 382.61C266.19 382.97 266.25 383.3 266.31 383.6C266.37 383.9 266.46 384.2 266.58 384.5L259.38 386.3C259.26 386.12 259.17 385.88 259.11 385.58C259.05 385.28 258.99 384.95 258.93 384.59C258.93 384.23 258.93 383.75 258.93 383.15C258.93 381.89 259.23 380.69 259.83 379.55C260.43 378.35 261.3 377.3 262.44 376.4C263.64 375.44 265.05 374.69 266.67 374.15C268.35 373.55 270.27 373.25 272.43 373.25C276.75 373.25 280.14 374.48 282.6 376.94C285.12 379.4 286.38 382.67 286.38 386.75V413.75L291.78 415.1V416H279.18V410.6C278.52 411.86 277.68 413 276.66 414.02C275.82 414.86 274.74 415.61 273.42 416.27C272.16 416.99 270.63 417.35 268.83 417.35C264.51 417.35 261.24 416.33 259.02 414.29C256.86 412.25 255.78 409.52 255.78 406.1C255.78 404.42 256.23 402.74 257.13 401.06C258.09 399.38 259.5 397.88 261.36 396.56C263.28 395.24 265.71 394.19 268.65 393.41C271.59 392.57 275.1 392.15 279.18 392.15V386.75C279.18 382.25 278.49 379.1 277.11 377.3C275.79 375.5 274.23 374.6 272.43 374.6ZM313.366 417.35C311.446 417.35 309.796 417.11 308.416 416.63C307.036 416.21 305.926 415.7 305.086 415.1C304.066 414.44 303.226 413.69 302.566 412.85C302.326 413.75 301.816 414.59 301.036 415.37C300.316 416.15 299.626 416.66 298.966 416.9H297.616C297.676 416.12 297.736 415.31 297.796 414.47C297.856 413.75 297.916 413 297.976 412.22C298.036 411.38 298.066 410.54 298.066 409.7C298.066 408.8 298.036 407.9 297.976 407C297.916 406.1 297.856 405.29 297.796 404.57C297.736 403.73 297.676 402.89 297.616 402.05H298.966C300.106 406.37 301.846 409.7 304.186 412.04C306.526 414.38 309.286 415.55 312.466 415.55C314.986 415.55 317.026 414.77 318.586 413.21C320.206 411.65 321.016 409.73 321.016 407.45C321.016 405.83 320.446 404.42 319.306 403.22C318.226 402.02 316.846 400.94 315.166 399.98C313.486 398.96 311.686 397.97 309.766 397.01C307.846 396.05 306.046 394.97 304.366 393.77C302.686 392.57 301.276 391.16 300.136 389.54C299.056 387.92 298.516 385.94 298.516 383.6C298.516 382.28 298.816 380.99 299.416 379.73C300.016 378.47 300.826 377.36 301.846 376.4C302.926 375.44 304.216 374.69 305.716 374.15C307.216 373.55 308.866 373.25 310.666 373.25C312.226 373.25 313.576 373.49 314.716 373.97C315.916 374.45 316.936 374.96 317.776 375.5C318.676 376.16 319.456 376.91 320.116 377.75C320.356 376.85 320.836 376.01 321.556 375.23C322.336 374.45 323.056 373.94 323.716 373.7H325.066C324.946 374.48 324.856 375.29 324.796 376.13C324.736 376.85 324.676 377.63 324.616 378.47C324.616 379.31 324.616 380.12 324.616 380.9C324.616 381.8 324.616 382.73 324.616 383.69C324.676 384.59 324.736 385.4 324.796 386.12C324.856 386.96 324.946 387.77 325.066 388.55H323.716C322.576 384.23 320.896 380.9 318.676 378.56C316.456 376.22 314.086 375.05 311.566 375.05C309.526 375.05 307.816 375.74 306.436 377.12C305.056 378.44 304.366 380 304.366 381.8C304.366 383.3 304.936 384.59 306.076 385.67C307.216 386.75 308.626 387.77 310.306 388.73C311.986 389.63 313.816 390.56 315.796 391.52C317.836 392.48 319.696 393.59 321.376 394.85C323.056 396.11 324.466 397.61 325.606 399.35C326.746 401.09 327.316 403.19 327.316 405.65C327.316 407.09 326.956 408.53 326.236 409.97C325.576 411.35 324.616 412.61 323.356 413.75C322.156 414.83 320.686 415.7 318.946 416.36C317.266 417.02 315.406 417.35 313.366 417.35ZM379.111 393.95C373.891 393.95 370.021 395.12 367.501 397.46C365.041 399.74 363.811 402.92 363.811 407C363.811 409.7 364.471 411.8 365.791 413.3C367.111 414.8 368.551 415.55 370.111 415.55C371.551 415.55 372.811 415.13 373.891 414.29C375.031 413.45 375.991 412.52 376.771 411.5C377.671 410.36 378.451 409.01 379.111 407.45V393.95ZM372.361 374.6C370.561 374.6 369.061 375.23 367.861 376.49C366.661 377.69 366.061 379.31 366.061 381.35C366.061 381.83 366.061 382.25 366.061 382.61C366.121 382.97 366.181 383.3 366.241 383.6C366.301 383.9 366.391 384.2 366.511 384.5L359.311 386.3C359.191 386.12 359.101 385.88 359.041 385.58C358.981 385.28 358.921 384.95 358.861 384.59C358.861 384.23 358.861 383.75 358.861 383.15C358.861 381.89 359.161 380.69 359.761 379.55C360.361 378.35 361.231 377.3 362.371 376.4C363.571 375.44 364.981 374.69 366.601 374.15C368.281 373.55 370.201 373.25 372.361 373.25C376.681 373.25 380.071 374.48 382.531 376.94C385.051 379.4 386.311 382.67 386.311 386.75V413.75L391.711 415.1V416H379.111V410.6C378.451 411.86 377.611 413 376.591 414.02C375.751 414.86 374.671 415.61 373.351 416.27C372.091 416.99 370.561 417.35 368.761 417.35C364.441 417.35 361.171 416.33 358.951 414.29C356.791 412.25 355.711 409.52 355.711 406.1C355.711 404.42 356.161 402.74 357.061 401.06C358.021 399.38 359.431 397.88 361.291 396.56C363.211 395.24 365.641 394.19 368.581 393.41C371.521 392.57 375.031 392.15 379.111 392.15V386.75C379.111 382.25 378.421 379.1 377.041 377.3C375.721 375.5 374.161 374.6 372.361 374.6ZM415.997 415.55C417.377 415.55 418.547 415.28 419.507 414.74C420.527 414.14 421.367 413.51 422.027 412.85C422.807 412.07 423.497 411.17 424.097 410.15V383.15C423.437 381.65 422.657 380.3 421.757 379.1C420.977 378.08 420.017 377.15 418.877 376.31C417.797 375.47 416.537 375.05 415.097 375.05C414.077 375.05 413.027 375.41 411.947 376.13C410.927 376.79 409.967 377.9 409.067 379.46C408.227 381.02 407.507 383.09 406.907 385.67C406.367 388.25 406.097 391.46 406.097 395.3C406.097 399.14 406.367 402.35 406.907 404.93C407.507 407.51 408.257 409.61 409.157 411.23C410.117 412.79 411.167 413.9 412.307 414.56C413.507 415.22 414.737 415.55 415.997 415.55ZM431.297 435.35L436.697 436.7V437.6H418.697V436.7L424.097 435.35V412.85C423.557 413.69 422.837 414.44 421.937 415.1C421.157 415.7 420.167 416.21 418.967 416.63C417.767 417.11 416.327 417.35 414.647 417.35C412.487 417.35 410.417 416.87 408.437 415.91C406.457 414.89 404.687 413.45 403.127 411.59C401.567 409.67 400.307 407.36 399.347 404.66C398.447 401.9 397.997 398.78 397.997 395.3C397.997 391.82 398.447 388.73 399.347 386.03C400.307 383.27 401.507 380.96 402.947 379.1C404.447 377.18 406.127 375.74 407.987 374.78C409.907 373.76 411.827 373.25 413.747 373.25C415.547 373.25 417.077 373.61 418.337 374.33C419.657 375.05 420.737 375.83 421.577 376.67C422.597 377.69 423.437 378.8 424.097 380V374.6H436.697V375.5L431.297 376.85V435.35ZM475.847 376.85V413.75L481.247 415.1V416H468.647V410.6C467.987 411.86 467.147 413 466.127 414.02C465.287 414.86 464.207 415.61 462.887 416.27C461.627 416.99 460.097 417.35 458.297 417.35C456.497 417.35 454.817 417.02 453.257 416.36C451.757 415.7 450.437 414.8 449.297 413.66C448.157 412.46 447.257 411.05 446.597 409.43C445.997 407.75 445.697 405.89 445.697 403.85V376.85L440.297 375.5V374.6H457.847V375.5L452.897 376.85V403.85C452.897 408.11 453.557 411.14 454.877 412.94C456.257 414.68 457.847 415.55 459.647 415.55C461.087 415.55 462.347 415.13 463.427 414.29C464.567 413.45 465.527 412.52 466.307 411.5C467.207 410.36 467.987 409.01 468.647 407.45V376.85L463.697 375.5V374.6H481.247V375.5L475.847 376.85ZM492.937 413.75V376.85L487.537 375.5V374.6H500.137V413.75L505.537 415.1V416H487.537V415.1L492.937 413.75ZM500.587 364.25C500.587 365.39 500.107 366.44 499.147 367.4C498.247 368.3 497.227 368.75 496.087 368.75C494.947 368.75 493.897 368.3 492.937 367.4C492.037 366.44 491.587 365.39 491.587 364.25C491.587 363.11 492.037 362.09 492.937 361.19C493.897 360.23 494.947 359.75 496.087 359.75C497.227 359.75 498.247 360.23 499.147 361.19C500.107 362.09 500.587 363.11 500.587 364.25ZM515.866 413.75V355.25L510.466 353.9V353H523.066V413.75L528.466 415.1V416H510.466V415.1L515.866 413.75ZM551.855 374.6C550.835 374.6 549.785 374.96 548.705 375.68C547.685 376.34 546.725 377.48 545.825 379.1C544.985 380.66 544.265 382.76 543.665 385.4C543.125 388.04 542.855 391.34 542.855 395.3C542.855 399.26 543.125 402.56 543.665 405.2C544.265 407.84 544.985 409.97 545.825 411.59C546.725 413.15 547.685 414.29 548.705 415.01C549.785 415.67 550.835 416 551.855 416C552.875 416 553.895 415.67 554.915 415.01C555.995 414.29 556.955 413.15 557.795 411.59C558.695 409.97 559.415 407.84 559.955 405.2C560.555 402.56 560.855 399.26 560.855 395.3C560.855 391.34 560.555 388.04 559.955 385.4C559.415 382.76 558.695 380.66 557.795 379.1C556.955 377.48 555.995 376.34 554.915 375.68C553.895 374.96 552.875 374.6 551.855 374.6ZM551.855 373.25C554.075 373.25 556.205 373.76 558.245 374.78C560.345 375.74 562.175 377.18 563.735 379.1C565.355 380.96 566.615 383.27 567.515 386.03C568.475 388.73 568.955 391.82 568.955 395.3C568.955 398.78 568.475 401.9 567.515 404.66C566.615 407.36 565.355 409.67 563.735 411.59C562.175 413.45 560.345 414.89 558.245 415.91C556.205 416.87 554.075 417.35 551.855 417.35C549.575 417.35 547.415 416.87 545.375 415.91C543.335 414.89 541.505 413.45 539.885 411.59C538.325 409.67 537.065 407.36 536.105 404.66C535.205 401.9 534.755 398.78 534.755 395.3C534.755 391.82 535.205 388.73 536.105 386.03C537.065 383.27 538.325 380.96 539.885 379.1C541.505 377.18 543.335 375.74 545.375 374.78C547.415 373.76 549.575 373.25 551.855 373.25ZM616.652 415.55C618.032 415.55 619.202 415.28 620.162 414.74C621.182 414.14 622.022 413.51 622.682 412.85C623.462 412.07 624.152 411.17 624.752 410.15V383.15C624.092 381.65 623.312 380.3 622.412 379.1C621.632 378.08 620.672 377.15 619.532 376.31C618.452 375.47 617.192 375.05 615.752 375.05C614.732 375.05 613.682 375.41 612.602 376.13C611.582 376.79 610.622 377.9 609.722 379.46C608.882 381.02 608.162 383.09 607.562 385.67C607.022 388.25 606.752 391.46 606.752 395.3C606.752 399.14 607.022 402.35 607.562 404.93C608.162 407.51 608.912 409.61 609.812 411.23C610.772 412.79 611.822 413.9 612.962 414.56C614.162 415.22 615.392 415.55 616.652 415.55ZM631.952 435.35L637.352 436.7V437.6H619.352V436.7L624.752 435.35V412.85C624.212 413.69 623.492 414.44 622.592 415.1C621.812 415.7 620.822 416.21 619.622 416.63C618.422 417.11 616.982 417.35 615.302 417.35C613.142 417.35 611.072 416.87 609.092 415.91C607.112 414.89 605.342 413.45 603.782 411.59C602.222 409.67 600.962 407.36 600.002 404.66C599.102 401.9 598.652 398.78 598.652 395.3C598.652 391.82 599.102 388.73 600.002 386.03C600.962 383.27 602.162 380.96 603.602 379.1C605.102 377.18 606.782 375.74 608.642 374.78C610.562 373.76 612.482 373.25 614.402 373.25C616.202 373.25 617.732 373.61 618.992 374.33C620.312 375.05 621.392 375.83 622.232 376.67C623.252 377.69 624.092 378.8 624.752 380V374.6H637.352V375.5L631.952 376.85V435.35ZM676.502 376.85V413.75L681.902 415.1V416H669.302V410.6C668.642 411.86 667.802 413 666.782 414.02C665.942 414.86 664.862 415.61 663.542 416.27C662.282 416.99 660.752 417.35 658.952 417.35C657.152 417.35 655.472 417.02 653.912 416.36C652.412 415.7 651.092 414.8 649.952 413.66C648.812 412.46 647.912 411.05 647.252 409.43C646.652 407.75 646.352 405.89 646.352 403.85V376.85L640.952 375.5V374.6H658.502V375.5L653.552 376.85V403.85C653.552 408.11 654.212 411.14 655.532 412.94C656.912 414.68 658.502 415.55 660.302 415.55C661.742 415.55 663.002 415.13 664.082 414.29C665.222 413.45 666.182 412.52 666.962 411.5C667.862 410.36 668.642 409.01 669.302 407.45V376.85L664.352 375.5V374.6H681.902V375.5L676.502 376.85ZM697.191 395.3C697.191 399.14 697.461 402.35 698.001 404.93C698.601 407.51 699.351 409.61 700.251 411.23C701.211 412.79 702.261 413.9 703.401 414.56C704.601 415.22 705.831 415.55 707.091 415.55C708.651 415.55 710.121 415.25 711.501 414.65C712.881 414.05 714.111 413.24 715.191 412.22C716.271 411.2 717.141 409.97 717.801 408.53C718.521 407.09 719.001 405.53 719.241 403.85H720.591C720.351 405.77 719.811 407.57 718.971 409.25C718.191 410.87 717.171 412.28 715.911 413.48C714.651 414.68 713.181 415.61 711.501 416.27C709.881 416.99 708.111 417.35 706.191 417.35C703.911 417.35 701.751 416.87 699.711 415.91C697.671 414.89 695.841 413.45 694.221 411.59C692.661 409.67 691.401 407.36 690.441 404.66C689.541 401.9 689.091 398.78 689.091 395.3C689.091 391.7 689.541 388.52 690.441 385.76C691.341 383 692.511 380.72 693.951 378.92C695.451 377.06 697.161 375.65 699.081 374.69C701.061 373.73 703.131 373.25 705.291 373.25C707.451 373.25 709.491 373.73 711.411 374.69C713.391 375.65 715.101 377.06 716.541 378.92C718.041 380.72 719.241 383 720.141 385.76C721.041 388.52 721.491 391.7 721.491 395.3H697.191ZM705.291 374.6C704.391 374.6 703.491 374.9 702.591 375.5C701.691 376.04 700.851 377.03 700.071 378.47C699.291 379.91 698.631 381.86 698.091 384.32C697.611 386.72 697.311 389.78 697.191 393.5H713.391C713.271 389.78 712.941 386.72 712.401 384.32C711.921 381.86 711.291 379.91 710.511 378.47C709.731 377.03 708.891 376.04 707.991 375.5C707.091 374.9 706.191 374.6 705.291 374.6ZM755.29 413.75V376.85L749.89 375.5V374.6H762.49V380C763.09 378.8 763.9 377.69 764.92 376.67C765.76 375.83 766.84 375.05 768.16 374.33C769.48 373.61 771.04 373.25 772.84 373.25C774.64 373.25 776.29 373.58 777.79 374.24C779.35 374.9 780.7 375.83 781.84 377.03C782.98 378.17 783.85 379.58 784.45 381.26C785.11 382.88 785.44 384.71 785.44 386.75V413.75L790.84 415.1V416H773.29V415.1L778.24 413.75V386.75C778.24 382.49 777.55 379.49 776.17 377.75C774.85 375.95 773.29 375.05 771.49 375.05C769.99 375.05 768.7 375.47 767.62 376.31C766.54 377.15 765.61 378.08 764.83 379.1C763.93 380.3 763.15 381.65 762.49 383.15V413.75L767.44 415.1V416H749.89V415.1L755.29 413.75ZM805.209 395.3C805.209 399.14 805.479 402.35 806.019 404.93C806.619 407.51 807.369 409.61 808.269 411.23C809.229 412.79 810.279 413.9 811.419 414.56C812.619 415.22 813.849 415.55 815.109 415.55C816.669 415.55 818.139 415.25 819.519 414.65C820.899 414.05 822.129 413.24 823.209 412.22C824.289 411.2 825.159 409.97 825.819 408.53C826.539 407.09 827.019 405.53 827.259 403.85H828.609C828.369 405.77 827.829 407.57 826.989 409.25C826.209 410.87 825.189 412.28 823.929 413.48C822.669 414.68 821.199 415.61 819.519 416.27C817.899 416.99 816.129 417.35 814.209 417.35C811.929 417.35 809.769 416.87 807.729 415.91C805.689 414.89 803.859 413.45 802.239 411.59C800.679 409.67 799.419 407.36 798.459 404.66C797.559 401.9 797.109 398.78 797.109 395.3C797.109 391.7 797.559 388.52 798.459 385.76C799.359 383 800.529 380.72 801.969 378.92C803.469 377.06 805.179 375.65 807.099 374.69C809.079 373.73 811.149 373.25 813.309 373.25C815.469 373.25 817.509 373.73 819.429 374.69C821.409 375.65 823.119 377.06 824.559 378.92C826.059 380.72 827.259 383 828.159 385.76C829.059 388.52 829.509 391.7 829.509 395.3H805.209ZM813.309 374.6C812.409 374.6 811.509 374.9 810.609 375.5C809.709 376.04 808.869 377.03 808.089 378.47C807.309 379.91 806.649 381.86 806.109 384.32C805.629 386.72 805.329 389.78 805.209 393.5H821.409C821.289 389.78 820.959 386.72 820.419 384.32C819.939 381.86 819.309 379.91 818.529 378.47C817.749 377.03 816.909 376.04 816.009 375.5C815.109 374.9 814.209 374.6 813.309 374.6ZM854.737 375.05C853.597 375.05 852.457 375.41 851.317 376.13C850.237 376.79 849.247 377.9 848.347 379.46C847.447 381.02 846.697 383.09 846.097 385.67C845.557 388.25 845.287 391.46 845.287 395.3C845.287 399.14 845.557 402.35 846.097 404.93C846.697 407.51 847.477 409.61 848.437 411.23C849.397 412.79 850.477 413.9 851.677 414.56C852.937 415.22 854.257 415.55 855.637 415.55C857.197 415.55 858.667 415.25 860.047 414.65C861.427 414.05 862.657 413.24 863.737 412.22C864.817 411.2 865.687 409.97 866.347 408.53C867.067 407.09 867.547 405.53 867.787 403.85H869.137C868.897 405.77 868.357 407.57 867.517 409.25C866.737 410.87 865.717 412.28 864.457 413.48C863.197 414.68 861.727 415.61 860.047 416.27C858.427 416.99 856.657 417.35 854.737 417.35C852.397 417.35 850.147 416.87 847.987 415.91C845.887 414.89 844.027 413.45 842.407 411.59C840.787 409.67 839.497 407.36 838.537 404.66C837.637 401.9 837.187 398.78 837.187 395.3C837.187 391.82 837.637 388.73 838.537 386.03C839.497 383.27 840.757 380.96 842.317 379.1C843.877 377.18 845.647 375.74 847.627 374.78C849.607 373.76 851.677 373.25 853.837 373.25C855.277 373.25 856.537 373.49 857.617 373.97C858.757 374.45 859.717 374.96 860.497 375.5C861.397 376.16 862.177 376.91 862.837 377.75C863.077 376.85 863.557 376.01 864.277 375.23C865.057 374.45 865.777 373.94 866.437 373.7H867.787C867.667 374.48 867.577 375.29 867.517 376.13C867.457 376.85 867.397 377.63 867.337 378.47C867.337 379.31 867.337 380.12 867.337 380.9C867.337 381.8 867.337 382.73 867.337 383.69C867.397 384.59 867.457 385.4 867.517 386.12C867.577 386.96 867.667 387.77 867.787 388.55H866.437C865.297 384.23 863.617 380.9 861.397 378.56C859.237 376.22 857.017 375.05 854.737 375.05ZM883.959 395.3C883.959 399.14 884.229 402.35 884.769 404.93C885.369 407.51 886.119 409.61 887.019 411.23C887.979 412.79 889.029 413.9 890.169 414.56C891.369 415.22 892.599 415.55 893.859 415.55C895.419 415.55 896.889 415.25 898.269 414.65C899.649 414.05 900.879 413.24 901.959 412.22C903.039 411.2 903.909 409.97 904.569 408.53C905.289 407.09 905.769 405.53 906.009 403.85H907.359C907.119 405.77 906.579 407.57 905.739 409.25C904.959 410.87 903.939 412.28 902.679 413.48C901.419 414.68 899.949 415.61 898.269 416.27C896.649 416.99 894.879 417.35 892.959 417.35C890.679 417.35 888.519 416.87 886.479 415.91C884.439 414.89 882.609 413.45 880.989 411.59C879.429 409.67 878.169 407.36 877.209 404.66C876.309 401.9 875.859 398.78 875.859 395.3C875.859 391.7 876.309 388.52 877.209 385.76C878.109 383 879.279 380.72 880.719 378.92C882.219 377.06 883.929 375.65 885.849 374.69C887.829 373.73 889.899 373.25 892.059 373.25C894.219 373.25 896.259 373.73 898.179 374.69C900.159 375.65 901.869 377.06 903.309 378.92C904.809 380.72 906.009 383 906.909 385.76C907.809 388.52 908.259 391.7 908.259 395.3H883.959ZM892.059 374.6C891.159 374.6 890.259 374.9 889.359 375.5C888.459 376.04 887.619 377.03 886.839 378.47C886.059 379.91 885.399 381.86 884.859 384.32C884.379 386.72 884.079 389.78 883.959 393.5H900.159C900.039 389.78 899.709 386.72 899.169 384.32C898.689 381.86 898.059 379.91 897.279 378.47C896.499 377.03 895.659 376.04 894.759 375.5C893.859 374.9 892.959 374.6 892.059 374.6ZM931.237 417.35C929.317 417.35 927.667 417.11 926.287 416.63C924.907 416.21 923.797 415.7 922.957 415.1C921.937 414.44 921.097 413.69 920.437 412.85C920.197 413.75 919.687 414.59 918.907 415.37C918.187 416.15 917.497 416.66 916.837 416.9H915.487C915.547 416.12 915.607 415.31 915.667 414.47C915.727 413.75 915.787 413 915.847 412.22C915.907 411.38 915.937 410.54 915.937 409.7C915.937 408.8 915.907 407.9 915.847 407C915.787 406.1 915.727 405.29 915.667 404.57C915.607 403.73 915.547 402.89 915.487 402.05H916.837C917.977 406.37 919.717 409.7 922.057 412.04C924.397 414.38 927.157 415.55 930.337 415.55C932.857 415.55 934.897 414.77 936.457 413.21C938.077 411.65 938.887 409.73 938.887 407.45C938.887 405.83 938.317 404.42 937.177 403.22C936.097 402.02 934.717 400.94 933.037 399.98C931.357 398.96 929.557 397.97 927.637 397.01C925.717 396.05 923.917 394.97 922.237 393.77C920.557 392.57 919.147 391.16 918.007 389.54C916.927 387.92 916.387 385.94 916.387 383.6C916.387 382.28 916.687 380.99 917.287 379.73C917.887 378.47 918.697 377.36 919.717 376.4C920.797 375.44 922.087 374.69 923.587 374.15C925.087 373.55 926.737 373.25 928.537 373.25C930.097 373.25 931.447 373.49 932.587 373.97C933.787 374.45 934.807 374.96 935.647 375.5C936.547 376.16 937.327 376.91 937.987 377.75C938.227 376.85 938.707 376.01 939.427 375.23C940.207 374.45 940.927 373.94 941.587 373.7H942.937C942.817 374.48 942.727 375.29 942.667 376.13C942.607 376.85 942.547 377.63 942.487 378.47C942.487 379.31 942.487 380.12 942.487 380.9C942.487 381.8 942.487 382.73 942.487 383.69C942.547 384.59 942.607 385.4 942.667 386.12C942.727 386.96 942.817 387.77 942.937 388.55H941.587C940.447 384.23 938.767 380.9 936.547 378.56C934.327 376.22 931.957 375.05 929.437 375.05C927.397 375.05 925.687 375.74 924.307 377.12C922.927 378.44 922.237 380 922.237 381.8C922.237 383.3 922.807 384.59 923.947 385.67C925.087 386.75 926.497 387.77 928.177 388.73C929.857 389.63 931.687 390.56 933.667 391.52C935.707 392.48 937.567 393.59 939.247 394.85C940.927 396.11 942.337 397.61 943.477 399.35C944.617 401.09 945.187 403.19 945.187 405.65C945.187 407.09 944.827 408.53 944.107 409.97C943.447 411.35 942.487 412.61 941.227 413.75C940.027 414.83 938.557 415.7 936.817 416.36C935.137 417.02 933.277 417.35 931.237 417.35ZM967.711 417.35C965.791 417.35 964.141 417.11 962.761 416.63C961.381 416.21 960.271 415.7 959.431 415.1C958.411 414.44 957.571 413.69 956.911 412.85C956.671 413.75 956.161 414.59 955.381 415.37C954.661 416.15 953.971 416.66 953.311 416.9H951.961C952.021 416.12 952.081 415.31 952.141 414.47C952.201 413.75 952.261 413 952.321 412.22C952.381 411.38 952.411 410.54 952.411 409.7C952.411 408.8 952.381 407.9 952.321 407C952.261 406.1 952.201 405.29 952.141 404.57C952.081 403.73 952.021 402.89 951.961 402.05H953.311C954.451 406.37 956.191 409.7 958.531 412.04C960.871 414.38 963.631 415.55 966.811 415.55C969.331 415.55 971.371 414.77 972.931 413.21C974.551 411.65 975.361 409.73 975.361 407.45C975.361 405.83 974.791 404.42 973.651 403.22C972.571 402.02 971.191 400.94 969.511 399.98C967.831 398.96 966.031 397.97 964.111 397.01C962.191 396.05 960.391 394.97 958.711 393.77C957.031 392.57 955.621 391.16 954.481 389.54C953.401 387.92 952.861 385.94 952.861 383.6C952.861 382.28 953.161 380.99 953.761 379.73C954.361 378.47 955.171 377.36 956.191 376.4C957.271 375.44 958.561 374.69 960.061 374.15C961.561 373.55 963.211 373.25 965.011 373.25C966.571 373.25 967.921 373.49 969.061 373.97C970.261 374.45 971.281 374.96 972.121 375.5C973.021 376.16 973.801 376.91 974.461 377.75C974.701 376.85 975.181 376.01 975.901 375.23C976.681 374.45 977.401 373.94 978.061 373.7H979.411C979.291 374.48 979.201 375.29 979.141 376.13C979.081 376.85 979.021 377.63 978.961 378.47C978.961 379.31 978.961 380.12 978.961 380.9C978.961 381.8 978.961 382.73 978.961 383.69C979.021 384.59 979.081 385.4 979.141 386.12C979.201 386.96 979.291 387.77 979.411 388.55H978.061C976.921 384.23 975.241 380.9 973.021 378.56C970.801 376.22 968.431 375.05 965.911 375.05C963.871 375.05 962.161 375.74 960.781 377.12C959.401 378.44 958.711 380 958.711 381.8C958.711 383.3 959.281 384.59 960.421 385.67C961.561 386.75 962.971 387.77 964.651 388.73C966.331 389.63 968.161 390.56 970.141 391.52C972.181 392.48 974.041 393.59 975.721 394.85C977.401 396.11 978.811 397.61 979.951 399.35C981.091 401.09 981.661 403.19 981.661 405.65C981.661 407.09 981.301 408.53 980.581 409.97C979.921 411.35 978.961 412.61 977.701 413.75C976.501 414.83 975.031 415.7 973.291 416.36C971.611 417.02 969.751 417.35 967.711 417.35ZM993.386 413.75V376.85L987.986 375.5V374.6H1000.59V413.75L1005.99 415.1V416H987.986V415.1L993.386 413.75ZM1001.04 364.25C1001.04 365.39 1000.56 366.44 999.596 367.4C998.696 368.3 997.676 368.75 996.536 368.75C995.396 368.75 994.346 368.3 993.386 367.4C992.486 366.44 992.036 365.39 992.036 364.25C992.036 363.11 992.486 362.09 993.386 361.19C994.346 360.23 995.396 359.75 996.536 359.75C997.676 359.75 998.696 360.23 999.596 361.19C1000.56 362.09 1001.04 363.11 1001.04 364.25ZM1034.31 374.6V376.4H1023.96V405.11C1023.96 408.77 1024.62 411.44 1025.94 413.12C1027.26 414.74 1028.7 415.55 1030.26 415.55C1032.3 415.55 1034.01 414.8 1035.39 413.3C1036.83 411.74 1037.67 409.49 1037.91 406.55H1039.26C1039.02 409.97 1037.97 412.64 1036.11 414.56C1034.31 416.42 1032.06 417.35 1029.36 417.35C1025.52 417.35 1022.46 416.24 1020.18 414.02C1017.9 411.74 1016.76 408.8 1016.76 405.2V376.4H1009.11V374.6H1016.76V364.25L1023.96 359.3V374.6H1034.31ZM1067.21 393.95C1061.99 393.95 1058.12 395.12 1055.6 397.46C1053.14 399.74 1051.91 402.92 1051.91 407C1051.91 409.7 1052.57 411.8 1053.89 413.3C1055.21 414.8 1056.65 415.55 1058.21 415.55C1059.65 415.55 1060.91 415.13 1061.99 414.29C1063.13 413.45 1064.09 412.52 1064.87 411.5C1065.77 410.36 1066.55 409.01 1067.21 407.45V393.95ZM1060.46 374.6C1058.66 374.6 1057.16 375.23 1055.96 376.49C1054.76 377.69 1054.16 379.31 1054.16 381.35C1054.16 381.83 1054.16 382.25 1054.16 382.61C1054.22 382.97 1054.28 383.3 1054.34 383.6C1054.4 383.9 1054.49 384.2 1054.61 384.5L1047.41 386.3C1047.29 386.12 1047.2 385.88 1047.14 385.58C1047.08 385.28 1047.02 384.95 1046.96 384.59C1046.96 384.23 1046.96 383.75 1046.96 383.15C1046.96 381.89 1047.26 380.69 1047.86 379.55C1048.46 378.35 1049.33 377.3 1050.47 376.4C1051.67 375.44 1053.08 374.69 1054.7 374.15C1056.38 373.55 1058.3 373.25 1060.46 373.25C1064.78 373.25 1068.17 374.48 1070.63 376.94C1073.15 379.4 1074.41 382.67 1074.41 386.75V413.75L1079.81 415.1V416H1067.21V410.6C1066.55 411.86 1065.71 413 1064.69 414.02C1063.85 414.86 1062.77 415.61 1061.45 416.27C1060.19 416.99 1058.66 417.35 1056.86 417.35C1052.54 417.35 1049.27 416.33 1047.05 414.29C1044.89 412.25 1043.81 409.52 1043.81 406.1C1043.81 404.42 1044.26 402.74 1045.16 401.06C1046.12 399.38 1047.53 397.88 1049.39 396.56C1051.31 395.24 1053.74 394.19 1056.68 393.41C1059.62 392.57 1063.13 392.15 1067.21 392.15V386.75C1067.21 382.25 1066.52 379.1 1065.14 377.3C1063.82 375.5 1062.26 374.6 1060.46 374.6ZM1090.59 413.75V376.85L1085.19 375.5V374.6H1097.79V380C1098.39 378.8 1099.2 377.69 1100.22 376.67C1101.06 375.83 1102.14 375.05 1103.46 374.33C1104.78 373.61 1106.34 373.25 1108.14 373.25C1110.42 373.25 1112.28 373.67 1113.72 374.51C1115.22 375.35 1116.42 376.28 1117.32 377.3C1118.4 378.5 1119.24 379.85 1119.84 381.35C1120.62 379.85 1121.55 378.5 1122.63 377.3C1123.59 376.28 1124.76 375.35 1126.14 374.51C1127.52 373.67 1129.17 373.25 1131.09 373.25C1132.89 373.25 1134.54 373.58 1136.04 374.24C1137.6 374.9 1138.95 375.83 1140.09 377.03C1141.23 378.17 1142.1 379.58 1142.7 381.26C1143.36 382.88 1143.69 384.71 1143.69 386.75V413.75L1149.09 415.1V416H1131.54V415.1L1136.49 413.75V386.75C1136.49 382.49 1135.8 379.49 1134.42 377.75C1133.1 375.95 1131.54 375.05 1129.74 375.05C1128.24 375.05 1126.95 375.47 1125.87 376.31C1124.79 377.15 1123.86 378.08 1123.08 379.1C1122.18 380.3 1121.4 381.65 1120.74 383.15V413.75L1125.69 415.1V416H1108.59V415.1L1113.54 413.75V386.75C1113.54 382.49 1112.85 379.49 1111.47 377.75C1110.15 375.95 1108.59 375.05 1106.79 375.05C1105.29 375.05 1104 375.47 1102.92 376.31C1101.84 377.15 1100.91 378.08 1100.13 379.1C1099.23 380.3 1098.45 381.65 1097.79 383.15V413.75L1102.74 415.1V416H1085.19V415.1L1090.59 413.75ZM1185.07 395.3C1185.07 399.14 1185.34 402.35 1185.88 404.93C1186.48 407.51 1187.23 409.61 1188.13 411.23C1189.09 412.79 1190.14 413.9 1191.28 414.56C1192.48 415.22 1193.71 415.55 1194.97 415.55C1196.53 415.55 1198 415.25 1199.38 414.65C1200.76 414.05 1201.99 413.24 1203.07 412.22C1204.15 411.2 1205.02 409.97 1205.68 408.53C1206.4 407.09 1206.88 405.53 1207.12 403.85H1208.47C1208.23 405.77 1207.69 407.57 1206.85 409.25C1206.07 410.87 1205.05 412.28 1203.79 413.48C1202.53 414.68 1201.06 415.61 1199.38 416.27C1197.76 416.99 1195.99 417.35 1194.07 417.35C1191.79 417.35 1189.63 416.87 1187.59 415.91C1185.55 414.89 1183.72 413.45 1182.1 411.59C1180.54 409.67 1179.28 407.36 1178.32 404.66C1177.42 401.9 1176.97 398.78 1176.97 395.3C1176.97 391.7 1177.42 388.52 1178.32 385.76C1179.22 383 1180.39 380.72 1181.83 378.92C1183.33 377.06 1185.04 375.65 1186.96 374.69C1188.94 373.73 1191.01 373.25 1193.17 373.25C1195.33 373.25 1197.37 373.73 1199.29 374.69C1201.27 375.65 1202.98 377.06 1204.42 378.92C1205.92 380.72 1207.12 383 1208.02 385.76C1208.92 388.52 1209.37 391.7 1209.37 395.3H1185.07ZM1193.17 374.6C1192.27 374.6 1191.37 374.9 1190.47 375.5C1189.57 376.04 1188.73 377.03 1187.95 378.47C1187.17 379.91 1186.51 381.86 1185.97 384.32C1185.49 386.72 1185.19 389.78 1185.07 393.5H1201.27C1201.15 389.78 1200.82 386.72 1200.28 384.32C1199.8 381.86 1199.17 379.91 1198.39 378.47C1197.61 377.03 1196.77 376.04 1195.87 375.5C1194.97 374.9 1194.07 374.6 1193.17 374.6ZM1194.52 358.76H1202.62L1193.62 369.56H1190.92L1194.52 358.76ZM219.639 475.05C218.379 475.05 217.149 475.41 215.949 476.13C214.809 476.79 213.759 477.9 212.799 479.46C211.899 481.02 211.149 483.09 210.549 485.67C210.009 488.25 209.739 491.46 209.739 495.3C209.739 499.14 210.009 502.35 210.549 504.93C211.149 507.51 211.869 509.61 212.709 511.23C213.609 512.79 214.569 513.9 215.589 514.56C216.669 515.22 217.719 515.55 218.739 515.55C220.179 515.55 221.439 515.13 222.519 514.29C223.659 513.45 224.619 512.52 225.399 511.5C226.299 510.36 227.079 509.01 227.739 507.45V480.45C227.139 479.43 226.449 478.53 225.669 477.75C225.009 477.09 224.169 476.49 223.149 475.95C222.189 475.35 221.019 475.05 219.639 475.05ZM234.939 513.75L240.339 515.1V516H227.739V510.6C227.079 511.86 226.239 513 225.219 514.02C224.379 514.86 223.299 515.61 221.979 516.27C220.719 516.99 219.189 517.35 217.389 517.35C215.469 517.35 213.549 516.87 211.629 515.91C209.769 514.89 208.089 513.45 206.589 511.59C205.149 509.67 203.949 507.36 202.989 504.66C202.089 501.9 201.639 498.78 201.639 495.3C201.639 491.82 202.089 488.73 202.989 486.03C203.949 483.27 205.209 480.96 206.769 479.1C208.329 477.18 210.099 475.74 212.079 474.78C214.059 473.76 216.129 473.25 218.289 473.25C219.969 473.25 221.409 473.49 222.609 473.97C223.809 474.45 224.799 474.96 225.579 475.5C226.479 476.16 227.199 476.91 227.739 477.75V455.25L222.339 453.9V453H234.939V513.75ZM255.189 495.3C255.189 499.14 255.459 502.35 255.999 504.93C256.599 507.51 257.349 509.61 258.249 511.23C259.209 512.79 260.259 513.9 261.399 514.56C262.599 515.22 263.829 515.55 265.089 515.55C266.649 515.55 268.119 515.25 269.499 514.65C270.879 514.05 272.109 513.24 273.189 512.22C274.269 511.2 275.139 509.97 275.799 508.53C276.519 507.09 276.999 505.53 277.239 503.85H278.589C278.349 505.77 277.809 507.57 276.969 509.25C276.189 510.87 275.169 512.28 273.909 513.48C272.649 514.68 271.179 515.61 269.499 516.27C267.879 516.99 266.109 517.35 264.189 517.35C261.909 517.35 259.749 516.87 257.709 515.91C255.669 514.89 253.839 513.45 252.219 511.59C250.659 509.67 249.399 507.36 248.439 504.66C247.539 501.9 247.089 498.78 247.089 495.3C247.089 491.7 247.539 488.52 248.439 485.76C249.339 483 250.509 480.72 251.949 478.92C253.449 477.06 255.159 475.65 257.079 474.69C259.059 473.73 261.129 473.25 263.289 473.25C265.449 473.25 267.489 473.73 269.409 474.69C271.389 475.65 273.099 477.06 274.539 478.92C276.039 480.72 277.239 483 278.139 485.76C279.039 488.52 279.489 491.7 279.489 495.3H255.189ZM263.289 474.6C262.389 474.6 261.489 474.9 260.589 475.5C259.689 476.04 258.849 477.03 258.069 478.47C257.289 479.91 256.629 481.86 256.089 484.32C255.609 486.72 255.309 489.78 255.189 493.5H271.389C271.269 489.78 270.939 486.72 270.399 484.32C269.919 481.86 269.289 479.91 268.509 478.47C267.729 477.03 266.889 476.04 265.989 475.5C265.089 474.9 264.189 474.6 263.289 474.6ZM341.638 476.85V513.75L347.038 515.1V516H334.438V510.6C333.778 511.86 332.938 513 331.918 514.02C331.078 514.86 329.998 515.61 328.678 516.27C327.418 516.99 325.888 517.35 324.088 517.35C322.288 517.35 320.608 517.02 319.048 516.36C317.548 515.7 316.228 514.8 315.088 513.66C313.948 512.46 313.048 511.05 312.388 509.43C311.788 507.75 311.488 505.89 311.488 503.85V476.85L306.088 475.5V474.6H323.638V475.5L318.688 476.85V503.85C318.688 508.11 319.348 511.14 320.668 512.94C322.048 514.68 323.638 515.55 325.438 515.55C326.878 515.55 328.138 515.13 329.218 514.29C330.358 513.45 331.318 512.52 332.098 511.5C332.998 510.36 333.778 509.01 334.438 507.45V476.85L329.488 475.5V474.6H347.038V475.5L341.638 476.85ZM358.728 513.75V476.85L353.328 475.5V474.6H365.928V480C366.528 478.8 367.338 477.69 368.358 476.67C369.198 475.83 370.278 475.05 371.598 474.33C372.918 473.61 374.478 473.25 376.278 473.25C378.558 473.25 380.418 473.67 381.858 474.51C383.358 475.35 384.558 476.28 385.458 477.3C386.538 478.5 387.378 479.85 387.978 481.35C388.758 479.85 389.688 478.5 390.768 477.3C391.728 476.28 392.898 475.35 394.278 474.51C395.658 473.67 397.308 473.25 399.228 473.25C401.028 473.25 402.678 473.58 404.178 474.24C405.738 474.9 407.088 475.83 408.228 477.03C409.368 478.17 410.238 479.58 410.838 481.26C411.498 482.88 411.828 484.71 411.828 486.75V513.75L417.228 515.1V516H399.678V515.1L404.628 513.75V486.75C404.628 482.49 403.938 479.49 402.558 477.75C401.238 475.95 399.678 475.05 397.878 475.05C396.378 475.05 395.088 475.47 394.008 476.31C392.928 477.15 391.998 478.08 391.218 479.1C390.318 480.3 389.538 481.65 388.878 483.15V513.75L393.828 515.1V516H376.728V515.1L381.678 513.75V486.75C381.678 482.49 380.988 479.49 379.608 477.75C378.288 475.95 376.728 475.05 374.928 475.05C373.428 475.05 372.138 475.47 371.058 476.31C369.978 477.15 369.048 478.08 368.268 479.1C367.368 480.3 366.588 481.65 365.928 483.15V513.75L370.878 515.1V516H353.328V515.1L358.728 513.75ZM792.169 515.55C793.549 515.55 794.719 515.28 795.679 514.74C796.699 514.14 797.539 513.51 798.199 512.85C798.979 512.07 799.669 511.17 800.269 510.15V483.15C799.609 481.65 798.829 480.3 797.929 479.1C797.149 478.08 796.189 477.15 795.049 476.31C793.969 475.47 792.709 475.05 791.269 475.05C790.249 475.05 789.199 475.41 788.119 476.13C787.099 476.79 786.139 477.9 785.239 479.46C784.399 481.02 783.679 483.09 783.079 485.67C782.539 488.25 782.269 491.46 782.269 495.3C782.269 499.14 782.539 502.35 783.079 504.93C783.679 507.51 784.429 509.61 785.329 511.23C786.289 512.79 787.339 513.9 788.479 514.56C789.679 515.22 790.909 515.55 792.169 515.55ZM807.469 535.35L812.869 536.7V537.6H794.869V536.7L800.269 535.35V512.85C799.729 513.69 799.009 514.44 798.109 515.1C797.329 515.7 796.339 516.21 795.139 516.63C793.939 517.11 792.499 517.35 790.819 517.35C788.659 517.35 786.589 516.87 784.609 515.91C782.629 514.89 780.859 513.45 779.299 511.59C777.739 509.67 776.479 507.36 775.519 504.66C774.619 501.9 774.169 498.78 774.169 495.3C774.169 491.82 774.619 488.73 775.519 486.03C776.479 483.27 777.679 480.96 779.119 479.1C780.619 477.18 782.299 475.74 784.159 474.78C786.079 473.76 787.999 473.25 789.919 473.25C791.719 473.25 793.249 473.61 794.509 474.33C795.829 475.05 796.909 475.83 797.749 476.67C798.769 477.69 799.609 478.8 800.269 480V474.6H812.869V475.5L807.469 476.85V535.35ZM852.019 476.85V513.75L857.419 515.1V516H844.819V510.6C844.159 511.86 843.319 513 842.299 514.02C841.459 514.86 840.379 515.61 839.059 516.27C837.799 516.99 836.269 517.35 834.469 517.35C832.669 517.35 830.989 517.02 829.429 516.36C827.929 515.7 826.609 514.8 825.469 513.66C824.329 512.46 823.429 511.05 822.769 509.43C822.169 507.75 821.869 505.89 821.869 503.85V476.85L816.469 475.5V474.6H834.019V475.5L829.069 476.85V503.85C829.069 508.11 829.729 511.14 831.049 512.94C832.429 514.68 834.019 515.55 835.819 515.55C837.259 515.55 838.519 515.13 839.599 514.29C840.739 513.45 841.699 512.52 842.479 511.5C843.379 510.36 844.159 509.01 844.819 507.45V476.85L839.869 475.5V474.6H857.419V475.5L852.019 476.85ZM872.709 495.3C872.709 499.14 872.979 502.35 873.519 504.93C874.119 507.51 874.869 509.61 875.769 511.23C876.729 512.79 877.779 513.9 878.919 514.56C880.119 515.22 881.349 515.55 882.609 515.55C884.169 515.55 885.639 515.25 887.019 514.65C888.399 514.05 889.629 513.24 890.709 512.22C891.789 511.2 892.659 509.97 893.319 508.53C894.039 507.09 894.519 505.53 894.759 503.85H896.109C895.869 505.77 895.329 507.57 894.489 509.25C893.709 510.87 892.689 512.28 891.429 513.48C890.169 514.68 888.699 515.61 887.019 516.27C885.399 516.99 883.629 517.35 881.709 517.35C879.429 517.35 877.269 516.87 875.229 515.91C873.189 514.89 871.359 513.45 869.739 511.59C868.179 509.67 866.919 507.36 865.959 504.66C865.059 501.9 864.609 498.78 864.609 495.3C864.609 491.7 865.059 488.52 865.959 485.76C866.859 483 868.029 480.72 869.469 478.92C870.969 477.06 872.679 475.65 874.599 474.69C876.579 473.73 878.649 473.25 880.809 473.25C882.969 473.25 885.009 473.73 886.929 474.69C888.909 475.65 890.619 477.06 892.059 478.92C893.559 480.72 894.759 483 895.659 485.76C896.559 488.52 897.009 491.7 897.009 495.3H872.709ZM880.809 474.6C879.909 474.6 879.009 474.9 878.109 475.5C877.209 476.04 876.369 477.03 875.589 478.47C874.809 479.91 874.149 481.86 873.609 484.32C873.129 486.72 872.829 489.78 872.709 493.5H888.909C888.789 489.78 888.459 486.72 887.919 484.32C887.439 481.86 886.809 479.91 886.029 478.47C885.249 477.03 884.409 476.04 883.509 475.5C882.609 474.9 881.709 474.6 880.809 474.6ZM934.408 495.3C934.408 499.14 934.678 502.35 935.218 504.93C935.818 507.51 936.568 509.61 937.468 511.23C938.428 512.79 939.478 513.9 940.618 514.56C941.818 515.22 943.048 515.55 944.308 515.55C945.868 515.55 947.338 515.25 948.718 514.65C950.098 514.05 951.328 513.24 952.408 512.22C953.488 511.2 954.358 509.97 955.018 508.53C955.738 507.09 956.218 505.53 956.458 503.85H957.808C957.568 505.77 957.028 507.57 956.188 509.25C955.408 510.87 954.388 512.28 953.128 513.48C951.868 514.68 950.398 515.61 948.718 516.27C947.098 516.99 945.328 517.35 943.408 517.35C941.128 517.35 938.968 516.87 936.928 515.91C934.888 514.89 933.058 513.45 931.438 511.59C929.878 509.67 928.618 507.36 927.658 504.66C926.758 501.9 926.308 498.78 926.308 495.3C926.308 491.7 926.758 488.52 927.658 485.76C928.558 483 929.728 480.72 931.168 478.92C932.668 477.06 934.378 475.65 936.298 474.69C938.278 473.73 940.348 473.25 942.508 473.25C944.668 473.25 946.708 473.73 948.628 474.69C950.608 475.65 952.318 477.06 953.758 478.92C955.258 480.72 956.458 483 957.358 485.76C958.258 488.52 958.708 491.7 958.708 495.3H934.408ZM942.508 474.6C941.608 474.6 940.708 474.9 939.808 475.5C938.908 476.04 938.068 477.03 937.288 478.47C936.508 479.91 935.848 481.86 935.308 484.32C934.828 486.72 934.528 489.78 934.408 493.5H950.608C950.488 489.78 950.158 486.72 949.618 484.32C949.138 481.86 948.508 479.91 947.728 478.47C946.948 477.03 946.108 476.04 945.208 475.5C944.308 474.9 943.408 474.6 942.508 474.6ZM970.886 513.75V476.85L965.486 475.5V474.6H978.086V480C978.686 478.8 979.496 477.69 980.516 476.67C981.356 475.83 982.436 475.05 983.756 474.33C985.076 473.61 986.636 473.25 988.436 473.25C990.236 473.25 991.886 473.58 993.386 474.24C994.946 474.9 996.296 475.83 997.436 477.03C998.576 478.17 999.446 479.58 1000.05 481.26C1000.71 482.88 1001.04 484.71 1001.04 486.75V513.75L1006.44 515.1V516H988.886V515.1L993.836 513.75V486.75C993.836 482.49 993.146 479.49 991.766 477.75C990.446 475.95 988.886 475.05 987.086 475.05C985.586 475.05 984.296 475.47 983.216 476.31C982.136 477.15 981.206 478.08 980.426 479.1C979.526 480.3 978.746 481.65 978.086 483.15V513.75L983.036 515.1V516H965.486V515.1L970.886 513.75ZM1034.75 474.6V476.4H1024.4V505.11C1024.4 508.77 1025.06 511.44 1026.38 513.12C1027.7 514.74 1029.14 515.55 1030.7 515.55C1032.74 515.55 1034.45 514.8 1035.83 513.3C1037.27 511.74 1038.11 509.49 1038.35 506.55H1039.7C1039.46 509.97 1038.41 512.64 1036.55 514.56C1034.75 516.42 1032.5 517.35 1029.8 517.35C1025.96 517.35 1022.9 516.24 1020.62 514.02C1018.34 511.74 1017.2 508.8 1017.2 505.2V476.4H1009.55V474.6H1017.2V464.25L1024.4 459.3V474.6H1034.75ZM1051.92 495.3C1051.92 499.14 1052.19 502.35 1052.73 504.93C1053.33 507.51 1054.08 509.61 1054.98 511.23C1055.94 512.79 1056.99 513.9 1058.13 514.56C1059.33 515.22 1060.56 515.55 1061.82 515.55C1063.38 515.55 1064.85 515.25 1066.23 514.65C1067.61 514.05 1068.84 513.24 1069.92 512.22C1071 511.2 1071.87 509.97 1072.53 508.53C1073.25 507.09 1073.73 505.53 1073.97 503.85H1075.32C1075.08 505.77 1074.54 507.57 1073.7 509.25C1072.92 510.87 1071.9 512.28 1070.64 513.48C1069.38 514.68 1067.91 515.61 1066.23 516.27C1064.61 516.99 1062.84 517.35 1060.92 517.35C1058.64 517.35 1056.48 516.87 1054.44 515.91C1052.4 514.89 1050.57 513.45 1048.95 511.59C1047.39 509.67 1046.13 507.36 1045.17 504.66C1044.27 501.9 1043.82 498.78 1043.82 495.3C1043.82 491.7 1044.27 488.52 1045.17 485.76C1046.07 483 1047.24 480.72 1048.68 478.92C1050.18 477.06 1051.89 475.65 1053.81 474.69C1055.79 473.73 1057.86 473.25 1060.02 473.25C1062.18 473.25 1064.22 473.73 1066.14 474.69C1068.12 475.65 1069.83 477.06 1071.27 478.92C1072.77 480.72 1073.97 483 1074.87 485.76C1075.77 488.52 1076.22 491.7 1076.22 495.3H1051.92ZM1060.02 474.6C1059.12 474.6 1058.22 474.9 1057.32 475.5C1056.42 476.04 1055.58 477.03 1054.8 478.47C1054.02 479.91 1053.36 481.86 1052.82 484.32C1052.34 486.72 1052.04 489.78 1051.92 493.5H1068.12C1068 489.78 1067.67 486.72 1067.13 484.32C1066.65 481.86 1066.02 479.91 1065.24 478.47C1064.46 477.03 1063.62 476.04 1062.72 475.5C1061.82 474.9 1060.92 474.6 1060.02 474.6ZM1088.4 513.75V476.85L1083 475.5V474.6H1095.6V480C1096.2 478.8 1097.01 477.69 1098.03 476.67C1098.87 475.83 1099.95 475.05 1101.27 474.33C1102.59 473.61 1104.15 473.25 1105.95 473.25C1107.75 473.25 1109.4 473.58 1110.9 474.24C1112.46 474.9 1113.81 475.83 1114.95 477.03C1116.09 478.17 1116.96 479.58 1117.56 481.26C1118.22 482.88 1118.55 484.71 1118.55 486.75V513.75L1123.95 515.1V516H1106.4V515.1L1111.35 513.75V486.75C1111.35 482.49 1110.66 479.49 1109.28 477.75C1107.96 475.95 1106.4 475.05 1104.6 475.05C1103.1 475.05 1101.81 475.47 1100.73 476.31C1099.65 477.15 1098.72 478.08 1097.94 479.1C1097.04 480.3 1096.26 481.65 1095.6 483.15V513.75L1100.55 515.1V516H1083V515.1L1088.4 513.75ZM1147.76 475.05C1146.5 475.05 1145.27 475.41 1144.07 476.13C1142.93 476.79 1141.88 477.9 1140.92 479.46C1140.02 481.02 1139.27 483.09 1138.67 485.67C1138.13 488.25 1137.86 491.46 1137.86 495.3C1137.86 499.14 1138.13 502.35 1138.67 504.93C1139.27 507.51 1139.99 509.61 1140.83 511.23C1141.73 512.79 1142.69 513.9 1143.71 514.56C1144.79 515.22 1145.84 515.55 1146.86 515.55C1148.3 515.55 1149.56 515.13 1150.64 514.29C1151.78 513.45 1152.74 512.52 1153.52 511.5C1154.42 510.36 1155.2 509.01 1155.86 507.45V480.45C1155.26 479.43 1154.57 478.53 1153.79 477.75C1153.13 477.09 1152.29 476.49 1151.27 475.95C1150.31 475.35 1149.14 475.05 1147.76 475.05ZM1163.06 513.75L1168.46 515.1V516H1155.86V510.6C1155.2 511.86 1154.36 513 1153.34 514.02C1152.5 514.86 1151.42 515.61 1150.1 516.27C1148.84 516.99 1147.31 517.35 1145.51 517.35C1143.59 517.35 1141.67 516.87 1139.75 515.91C1137.89 514.89 1136.21 513.45 1134.71 511.59C1133.27 509.67 1132.07 507.36 1131.11 504.66C1130.21 501.9 1129.76 498.78 1129.76 495.3C1129.76 491.82 1130.21 488.73 1131.11 486.03C1132.07 483.27 1133.33 480.96 1134.89 479.1C1136.45 477.18 1138.22 475.74 1140.2 474.78C1142.18 473.76 1144.25 473.25 1146.41 473.25C1148.09 473.25 1149.53 473.49 1150.73 473.97C1151.93 474.45 1152.92 474.96 1153.7 475.5C1154.6 476.16 1155.32 476.91 1155.86 477.75V455.25L1150.46 453.9V453H1163.06V513.75ZM1198.16 493.95C1192.94 493.95 1189.07 495.12 1186.55 497.46C1184.09 499.74 1182.86 502.92 1182.86 507C1182.86 509.7 1183.52 511.8 1184.84 513.3C1186.16 514.8 1187.6 515.55 1189.16 515.55C1190.6 515.55 1191.86 515.13 1192.94 514.29C1194.08 513.45 1195.04 512.52 1195.82 511.5C1196.72 510.36 1197.5 509.01 1198.16 507.45V493.95ZM1191.41 474.6C1189.61 474.6 1188.11 475.23 1186.91 476.49C1185.71 477.69 1185.11 479.31 1185.11 481.35C1185.11 481.83 1185.11 482.25 1185.11 482.61C1185.17 482.97 1185.23 483.3 1185.29 483.6C1185.35 483.9 1185.44 484.2 1185.56 484.5L1178.36 486.3C1178.24 486.12 1178.15 485.88 1178.09 485.58C1178.03 485.28 1177.97 484.95 1177.91 484.59C1177.91 484.23 1177.91 483.75 1177.91 483.15C1177.91 481.89 1178.21 480.69 1178.81 479.55C1179.41 478.35 1180.28 477.3 1181.42 476.4C1182.62 475.44 1184.03 474.69 1185.65 474.15C1187.33 473.55 1189.25 473.25 1191.41 473.25C1195.73 473.25 1199.12 474.48 1201.58 476.94C1204.1 479.4 1205.36 482.67 1205.36 486.75V513.75L1210.76 515.1V516H1198.16V510.6C1197.5 511.86 1196.66 513 1195.64 514.02C1194.8 514.86 1193.72 515.61 1192.4 516.27C1191.14 516.99 1189.61 517.35 1187.81 517.35C1183.49 517.35 1180.22 516.33 1178 514.29C1175.84 512.25 1174.76 509.52 1174.76 506.1C1174.76 504.42 1175.21 502.74 1176.11 501.06C1177.07 499.38 1178.48 497.88 1180.34 496.56C1182.26 495.24 1184.69 494.19 1187.63 493.41C1190.57 492.57 1194.08 492.15 1198.16 492.15V486.75C1198.16 482.25 1197.47 479.1 1196.09 477.3C1194.77 475.5 1193.21 474.6 1191.41 474.6ZM372.657 575.05C371.397 575.05 370.167 575.41 368.967 576.13C367.827 576.79 366.777 577.9 365.817 579.46C364.917 581.02 364.167 583.09 363.567 585.67C363.027 588.25 362.757 591.46 362.757 595.3C362.757 599.14 363.027 602.35 363.567 604.93C364.167 607.51 364.887 609.61 365.727 611.23C366.627 612.79 367.587 613.9 368.607 614.56C369.687 615.22 370.737 615.55 371.757 615.55C373.197 615.55 374.457 615.13 375.537 614.29C376.677 613.45 377.637 612.52 378.417 611.5C379.317 610.36 380.097 609.01 380.757 607.45V580.45C380.157 579.43 379.467 578.53 378.687 577.75C378.027 577.09 377.187 576.49 376.167 575.95C375.207 575.35 374.037 575.05 372.657 575.05ZM387.957 613.75L393.357 615.1V616H380.757V610.6C380.097 611.86 379.257 613 378.237 614.02C377.397 614.86 376.317 615.61 374.997 616.27C373.737 616.99 372.207 617.35 370.407 617.35C368.487 617.35 366.567 616.87 364.647 615.91C362.787 614.89 361.107 613.45 359.607 611.59C358.167 609.67 356.967 607.36 356.007 604.66C355.107 601.9 354.657 598.78 354.657 595.3C354.657 591.82 355.107 588.73 356.007 586.03C356.967 583.27 358.227 580.96 359.787 579.1C361.347 577.18 363.117 575.74 365.097 574.78C367.077 573.76 369.147 573.25 371.307 573.25C372.987 573.25 374.427 573.49 375.627 573.97C376.827 574.45 377.817 574.96 378.597 575.5C379.497 576.16 380.217 576.91 380.757 577.75V555.25L375.357 553.9V553H387.957V613.75ZM423.057 593.95C417.837 593.95 413.967 595.12 411.447 597.46C408.987 599.74 407.757 602.92 407.757 607C407.757 609.7 408.417 611.8 409.737 613.3C411.057 614.8 412.497 615.55 414.057 615.55C415.497 615.55 416.757 615.13 417.837 614.29C418.977 613.45 419.937 612.52 420.717 611.5C421.617 610.36 422.397 609.01 423.057 607.45V593.95ZM416.307 574.6C414.507 574.6 413.007 575.23 411.807 576.49C410.607 577.69 410.007 579.31 410.007 581.35C410.007 581.83 410.007 582.25 410.007 582.61C410.067 582.97 410.127 583.3 410.187 583.6C410.247 583.9 410.337 584.2 410.457 584.5L403.257 586.3C403.137 586.12 403.047 585.88 402.987 585.58C402.927 585.28 402.867 584.95 402.807 584.59C402.807 584.23 402.807 583.75 402.807 583.15C402.807 581.89 403.107 580.69 403.707 579.55C404.307 578.35 405.177 577.3 406.317 576.4C407.517 575.44 408.927 574.69 410.547 574.15C412.227 573.55 414.147 573.25 416.307 573.25C420.627 573.25 424.017 574.48 426.477 576.94C428.997 579.4 430.257 582.67 430.257 586.75V613.75L435.657 615.1V616H423.057V610.6C422.397 611.86 421.557 613 420.537 614.02C419.697 614.86 418.617 615.61 417.297 616.27C416.037 616.99 414.507 617.35 412.707 617.35C408.387 617.35 405.117 616.33 402.897 614.29C400.737 612.25 399.657 609.52 399.657 606.1C399.657 604.42 400.107 602.74 401.007 601.06C401.967 599.38 403.377 597.88 405.237 596.56C407.157 595.24 409.587 594.19 412.527 593.41C415.467 592.57 418.977 592.15 423.057 592.15V586.75C423.057 582.25 422.367 579.1 420.987 577.3C419.667 575.5 418.107 574.6 416.307 574.6Z" fill="white"/>
<path d="M462.657 475.05C461.397 475.05 460.167 475.41 458.967 476.13C457.827 476.79 456.777 477.9 455.817 479.46C454.917 481.02 454.167 483.09 453.567 485.67C453.027 488.25 452.757 491.46 452.757 495.3C452.757 499.14 453.027 502.35 453.567 504.93C454.167 507.51 454.887 509.61 455.727 511.23C456.627 512.79 457.587 513.9 458.607 514.56C459.687 515.22 460.737 515.55 461.757 515.55C463.197 515.55 464.457 515.13 465.537 514.29C466.677 513.45 467.637 512.52 468.417 511.5C469.317 510.36 470.097 509.01 470.757 507.45V480.45C470.157 479.43 469.467 478.53 468.687 477.75C468.027 477.09 467.187 476.49 466.167 475.95C465.207 475.35 464.037 475.05 462.657 475.05ZM477.957 513.75L483.357 515.1V516H470.757V510.6C470.097 511.86 469.257 513 468.237 514.02C467.397 514.86 466.317 515.61 464.997 516.27C463.737 516.99 462.207 517.35 460.407 517.35C458.487 517.35 456.567 516.87 454.647 515.91C452.787 514.89 451.107 513.45 449.607 511.59C448.167 509.67 446.967 507.36 446.007 504.66C445.107 501.9 444.657 498.78 444.657 495.3C444.657 491.82 445.107 488.73 446.007 486.03C446.967 483.27 448.227 480.96 449.787 479.1C451.347 477.18 453.117 475.74 455.097 474.78C457.077 473.76 459.147 473.25 461.307 473.25C462.987 473.25 464.427 473.49 465.627 473.97C466.827 474.45 467.817 474.96 468.597 475.5C469.497 476.16 470.217 476.91 470.757 477.75V455.25L465.357 453.9V453H477.957V513.75ZM498.207 495.3C498.207 499.14 498.477 502.35 499.017 504.93C499.617 507.51 500.367 509.61 501.267 511.23C502.227 512.79 503.277 513.9 504.417 514.56C505.617 515.22 506.847 515.55 508.107 515.55C509.667 515.55 511.137 515.25 512.517 514.65C513.897 514.05 515.127 513.24 516.207 512.22C517.287 511.2 518.157 509.97 518.817 508.53C519.537 507.09 520.017 505.53 520.257 503.85H521.607C521.367 505.77 520.827 507.57 519.987 509.25C519.207 510.87 518.187 512.28 516.927 513.48C515.667 514.68 514.197 515.61 512.517 516.27C510.897 516.99 509.127 517.35 507.207 517.35C504.927 517.35 502.767 516.87 500.727 515.91C498.687 514.89 496.857 513.45 495.237 511.59C493.677 509.67 492.417 507.36 491.457 504.66C490.557 501.9 490.107 498.78 490.107 495.3C490.107 491.7 490.557 488.52 491.457 485.76C492.357 483 493.527 480.72 494.967 478.92C496.467 477.06 498.177 475.65 500.097 474.69C502.077 473.73 504.147 473.25 506.307 473.25C508.467 473.25 510.507 473.73 512.427 474.69C514.407 475.65 516.117 477.06 517.557 478.92C519.057 480.72 520.257 483 521.157 485.76C522.057 488.52 522.507 491.7 522.507 495.3H498.207ZM506.307 474.6C505.407 474.6 504.507 474.9 503.607 475.5C502.707 476.04 501.867 477.03 501.087 478.47C500.307 479.91 499.647 481.86 499.107 484.32C498.627 486.72 498.327 489.78 498.207 493.5H514.407C514.287 489.78 513.957 486.72 513.417 484.32C512.937 481.86 512.307 479.91 511.527 478.47C510.747 477.03 509.907 476.04 509.007 475.5C508.107 474.9 507.207 474.6 506.307 474.6ZM545.485 517.35C543.565 517.35 541.915 517.11 540.535 516.63C539.155 516.21 538.045 515.7 537.205 515.1C536.185 514.44 535.345 513.69 534.685 512.85C534.445 513.75 533.935 514.59 533.155 515.37C532.435 516.15 531.745 516.66 531.085 516.9H529.735C529.795 516.12 529.855 515.31 529.915 514.47C529.975 513.75 530.035 513 530.095 512.22C530.155 511.38 530.185 510.54 530.185 509.7C530.185 508.8 530.155 507.9 530.095 507C530.035 506.1 529.975 505.29 529.915 504.57C529.855 503.73 529.795 502.89 529.735 502.05H531.085C532.225 506.37 533.965 509.7 536.305 512.04C538.645 514.38 541.405 515.55 544.585 515.55C547.105 515.55 549.145 514.77 550.705 513.21C552.325 511.65 553.135 509.73 553.135 507.45C553.135 505.83 552.565 504.42 551.425 503.22C550.345 502.02 548.965 500.94 547.285 499.98C545.605 498.96 543.805 497.97 541.885 497.01C539.965 496.05 538.165 494.97 536.485 493.77C534.805 492.57 533.395 491.16 532.255 489.54C531.175 487.92 530.635 485.94 530.635 483.6C530.635 482.28 530.935 480.99 531.535 479.73C532.135 478.47 532.945 477.36 533.965 476.4C535.045 475.44 536.335 474.69 537.835 474.15C539.335 473.55 540.985 473.25 542.785 473.25C544.345 473.25 545.695 473.49 546.835 473.97C548.035 474.45 549.055 474.96 549.895 475.5C550.795 476.16 551.575 476.91 552.235 477.75C552.475 476.85 552.955 476.01 553.675 475.23C554.455 474.45 555.175 473.94 555.835 473.7H557.185C557.065 474.48 556.975 475.29 556.915 476.13C556.855 476.85 556.795 477.63 556.735 478.47C556.735 479.31 556.735 480.12 556.735 480.9C556.735 481.8 556.735 482.73 556.735 483.69C556.795 484.59 556.855 485.4 556.915 486.12C556.975 486.96 557.065 487.77 557.185 488.55H555.835C554.695 484.23 553.015 480.9 550.795 478.56C548.575 476.22 546.205 475.05 543.685 475.05C541.645 475.05 539.935 475.74 538.555 477.12C537.175 478.44 536.485 480 536.485 481.8C536.485 483.3 537.055 484.59 538.195 485.67C539.335 486.75 540.745 487.77 542.425 488.73C544.105 489.63 545.935 490.56 547.915 491.52C549.955 492.48 551.815 493.59 553.495 494.85C555.175 496.11 556.585 497.61 557.725 499.35C558.865 501.09 559.435 503.19 559.435 505.65C559.435 507.09 559.075 508.53 558.355 509.97C557.695 511.35 556.735 512.61 555.475 513.75C554.275 514.83 552.805 515.7 551.065 516.36C549.385 517.02 547.525 517.35 545.485 517.35ZM571.159 513.75V476.85L565.759 475.5V474.6H578.359V513.75L583.759 515.1V516H565.759V515.1L571.159 513.75ZM578.809 464.25C578.809 465.39 578.329 466.44 577.369 467.4C576.469 468.3 575.449 468.75 574.309 468.75C573.169 468.75 572.119 468.3 571.159 467.4C570.259 466.44 569.809 465.39 569.809 464.25C569.809 463.11 570.259 462.09 571.159 461.19C572.119 460.23 573.169 459.75 574.309 459.75C575.449 459.75 576.469 460.23 577.369 461.19C578.329 462.09 578.809 463.11 578.809 464.25ZM605.788 502.5C606.808 502.5 607.798 502.26 608.758 501.78C609.718 501.24 610.588 500.4 611.368 499.26C612.148 498.12 612.748 496.68 613.168 494.94C613.648 493.14 613.888 491.01 613.888 488.55C613.888 486.09 613.648 483.99 613.168 482.25C612.748 480.45 612.148 479.01 611.368 477.93C610.588 476.79 609.718 475.95 608.758 475.41C607.798 474.87 606.808 474.6 605.788 474.6C604.768 474.6 603.778 474.87 602.818 475.41C601.858 475.95 600.988 476.79 600.208 477.93C599.428 479.01 598.798 480.45 598.318 482.25C597.898 483.99 597.688 486.09 597.688 488.55C597.688 491.01 597.898 493.14 598.318 494.94C598.798 496.68 599.428 498.12 600.208 499.26C600.988 500.4 601.858 501.24 602.818 501.78C603.778 502.26 604.768 502.5 605.788 502.5ZM607.588 537.24C609.808 537.24 611.818 536.91 613.618 536.25C615.418 535.65 616.918 534.81 618.118 533.73C619.378 532.65 620.338 531.39 620.998 529.95C621.658 528.51 621.988 527.01 621.988 525.45C621.988 519.75 619.138 516.9 613.438 516.9H599.038C595.618 516.9 593.098 516.21 591.478 514.83C589.918 513.45 589.138 511.74 589.138 509.7C589.138 508.32 589.468 507.12 590.128 506.1C590.848 505.02 591.628 504.06 592.468 503.22C593.488 502.32 594.628 501.48 595.888 500.7C594.688 499.92 593.638 498.96 592.738 497.82C591.898 496.8 591.148 495.54 590.488 494.04C589.888 492.54 589.588 490.71 589.588 488.55C589.588 486.39 589.978 484.38 590.758 482.52C591.598 480.66 592.738 479.04 594.178 477.66C595.618 476.28 597.328 475.2 599.308 474.42C601.288 473.64 603.448 473.25 605.788 473.25C606.808 473.25 607.798 473.34 608.758 473.52C609.718 473.7 610.588 473.91 611.368 474.15C612.268 474.39 613.108 474.69 613.888 475.05C614.368 474.39 614.938 473.79 615.598 473.25C616.198 472.77 616.948 472.35 617.848 471.99C618.748 471.63 619.828 471.45 621.088 471.45C623.128 471.45 624.718 471.84 625.858 472.62C627.058 473.34 627.988 474.15 628.648 475.05C629.368 476.13 629.848 477.33 630.088 478.65L623.338 480C623.158 478.8 622.888 477.69 622.528 476.67C622.228 475.83 621.808 475.05 621.268 474.33C620.728 473.61 620.068 473.25 619.288 473.25C618.628 473.25 618.028 473.4 617.488 473.7C616.948 474 616.528 474.3 616.228 474.6C615.808 475.02 615.478 475.47 615.238 475.95C617.518 477.33 619.198 479.1 620.278 481.26C621.418 483.42 621.988 485.85 621.988 488.55C621.988 490.71 621.568 492.72 620.728 494.58C619.948 496.44 618.838 498.06 617.398 499.44C615.958 500.82 614.248 501.9 612.268 502.68C610.288 503.46 608.128 503.85 605.788 503.85C604.528 503.85 603.388 503.76 602.368 503.58C601.348 503.34 600.448 503.07 599.668 502.77C598.768 502.47 597.958 502.08 597.238 501.6C596.398 502.14 595.648 502.71 594.988 503.31C594.388 503.79 593.848 504.36 593.368 505.02C592.948 505.68 592.738 506.34 592.738 507C592.738 507.9 593.158 508.65 593.998 509.25C594.838 509.79 596.518 510.06 599.038 510.06H613.438C617.038 510.06 619.948 511.23 622.168 513.57C624.448 515.85 625.588 518.91 625.588 522.75C625.588 525.03 625.138 527.13 624.238 529.05C623.398 531.03 622.198 532.74 620.638 534.18C619.078 535.68 617.188 536.85 614.968 537.69C612.748 538.53 610.288 538.95 607.588 538.95C604.228 538.95 601.288 538.56 598.768 537.78C596.308 537.06 594.268 536.04 592.648 534.72C591.028 533.46 589.798 531.96 588.958 530.22C588.178 528.48 587.788 526.59 587.788 524.55C587.788 523.77 587.878 523.05 588.058 522.39C588.238 521.79 588.448 521.28 588.688 520.86C588.928 520.38 589.228 519.96 589.588 519.6L596.338 522.3C596.158 522.72 596.008 523.17 595.888 523.65C595.588 524.55 595.438 525.45 595.438 526.35C595.438 529.53 596.488 532.14 598.588 534.18C600.748 536.22 603.748 537.24 607.588 537.24ZM638.22 513.75V476.85L632.82 475.5V474.6H645.42V480C646.02 478.8 646.83 477.69 647.85 476.67C648.69 475.83 649.77 475.05 651.09 474.33C652.41 473.61 653.97 473.25 655.77 473.25C657.57 473.25 659.22 473.58 660.72 474.24C662.28 474.9 663.63 475.83 664.77 477.03C665.91 478.17 666.78 479.58 667.38 481.26C668.04 482.88 668.37 484.71 668.37 486.75V513.75L673.77 515.1V516H656.22V515.1L661.17 513.75V486.75C661.17 482.49 660.48 479.49 659.1 477.75C657.78 475.95 656.22 475.05 654.42 475.05C652.92 475.05 651.63 475.47 650.55 476.31C649.47 477.15 648.54 478.08 647.76 479.1C646.86 480.3 646.08 481.65 645.42 483.15V513.75L650.37 515.1V516H632.82V515.1L638.22 513.75ZM688.138 495.3C688.138 499.14 688.408 502.35 688.948 504.93C689.548 507.51 690.298 509.61 691.198 511.23C692.158 512.79 693.208 513.9 694.348 514.56C695.548 515.22 696.778 515.55 698.038 515.55C699.598 515.55 701.068 515.25 702.448 514.65C703.828 514.05 705.058 513.24 706.138 512.22C707.218 511.2 708.088 509.97 708.748 508.53C709.468 507.09 709.948 505.53 710.188 503.85H711.538C711.298 505.77 710.758 507.57 709.918 509.25C709.138 510.87 708.118 512.28 706.858 513.48C705.598 514.68 704.128 515.61 702.448 516.27C700.828 516.99 699.058 517.35 697.138 517.35C694.858 517.35 692.698 516.87 690.658 515.91C688.618 514.89 686.788 513.45 685.168 511.59C683.608 509.67 682.348 507.36 681.388 504.66C680.488 501.9 680.038 498.78 680.038 495.3C680.038 491.7 680.488 488.52 681.388 485.76C682.288 483 683.458 480.72 684.898 478.92C686.398 477.06 688.108 475.65 690.028 474.69C692.008 473.73 694.078 473.25 696.238 473.25C698.398 473.25 700.438 473.73 702.358 474.69C704.338 475.65 706.048 477.06 707.488 478.92C708.988 480.72 710.188 483 711.088 485.76C711.988 488.52 712.438 491.7 712.438 495.3H688.138ZM696.238 474.6C695.338 474.6 694.438 474.9 693.538 475.5C692.638 476.04 691.798 477.03 691.018 478.47C690.238 479.91 689.578 481.86 689.038 484.32C688.558 486.72 688.258 489.78 688.138 493.5H704.338C704.218 489.78 703.888 486.72 703.348 484.32C702.868 481.86 702.238 479.91 701.458 478.47C700.678 477.03 699.838 476.04 698.938 475.5C698.038 474.9 697.138 474.6 696.238 474.6ZM731.816 513.75L737.216 515.1V516H719.216V515.1L724.616 513.75V476.85L719.216 475.5V474.6H731.816V485.4C732.596 483.18 733.526 481.17 734.606 479.37C735.566 477.81 736.736 476.4 738.116 475.14C739.496 473.88 741.146 473.25 743.066 473.25C743.726 473.25 744.356 473.31 744.956 473.43C745.556 473.49 746.096 473.58 746.576 473.7C747.116 473.88 747.596 474.03 748.016 474.15L745.316 480.9C744.956 480.72 744.566 480.51 744.146 480.27C743.786 480.09 743.336 479.94 742.796 479.82C742.316 479.64 741.806 479.55 741.266 479.55C739.706 479.55 738.326 479.97 737.126 480.81C735.926 481.65 734.936 482.58 734.156 483.6C733.196 484.8 732.416 486.15 731.816 487.65V513.75ZM468.064 613.75V576.85L462.664 575.5V574.6H475.264V580C475.864 578.8 476.674 577.69 477.694 576.67C478.534 575.83 479.614 575.05 480.934 574.33C482.254 573.61 483.814 573.25 485.614 573.25C487.894 573.25 489.754 573.67 491.194 574.51C492.694 575.35 493.894 576.28 494.794 577.3C495.874 578.5 496.714 579.85 497.314 581.35C498.094 579.85 499.024 578.5 500.104 577.3C501.064 576.28 502.234 575.35 503.614 574.51C504.994 573.67 506.644 573.25 508.564 573.25C510.364 573.25 512.014 573.58 513.514 574.24C515.074 574.9 516.424 575.83 517.564 577.03C518.704 578.17 519.574 579.58 520.174 581.26C520.834 582.88 521.164 584.71 521.164 586.75V613.75L526.564 615.1V616H509.014V615.1L513.964 613.75V586.75C513.964 582.49 513.274 579.49 511.894 577.75C510.574 575.95 509.014 575.05 507.214 575.05C505.714 575.05 504.424 575.47 503.344 576.31C502.264 577.15 501.334 578.08 500.554 579.1C499.654 580.3 498.874 581.65 498.214 583.15V613.75L503.164 615.1V616H486.064V615.1L491.014 613.75V586.75C491.014 582.49 490.324 579.49 488.944 577.75C487.624 575.95 486.064 575.05 484.264 575.05C482.764 575.05 481.474 575.47 480.394 576.31C479.314 577.15 478.384 578.08 477.604 579.1C476.704 580.3 475.924 581.65 475.264 583.15V613.75L480.214 615.1V616H462.664V615.1L468.064 613.75ZM537.321 613.75V576.85L531.921 575.5V574.6H544.521V613.75L549.921 615.1V616H531.921V615.1L537.321 613.75ZM542.721 559.3H550.821L541.821 570.1H539.121L542.721 559.3ZM573.75 575.05C572.49 575.05 571.26 575.41 570.06 576.13C568.92 576.79 567.87 577.9 566.91 579.46C566.01 581.02 565.26 583.09 564.66 585.67C564.12 588.25 563.85 591.46 563.85 595.3C563.85 599.14 564.12 602.35 564.66 604.93C565.26 607.51 565.98 609.61 566.82 611.23C567.72 612.79 568.68 613.9 569.7 614.56C570.78 615.22 571.83 615.55 572.85 615.55C574.29 615.55 575.55 615.13 576.63 614.29C577.77 613.45 578.73 612.52 579.51 611.5C580.41 610.36 581.19 609.01 581.85 607.45V580.45C581.25 579.43 580.56 578.53 579.78 577.75C579.12 577.09 578.28 576.49 577.26 575.95C576.3 575.35 575.13 575.05 573.75 575.05ZM589.05 613.75L594.45 615.1V616H581.85V610.6C581.19 611.86 580.35 613 579.33 614.02C578.49 614.86 577.41 615.61 576.09 616.27C574.83 616.99 573.3 617.35 571.5 617.35C569.58 617.35 567.66 616.87 565.74 615.91C563.88 614.89 562.2 613.45 560.7 611.59C559.26 609.67 558.06 607.36 557.1 604.66C556.2 601.9 555.75 598.78 555.75 595.3C555.75 591.82 556.2 588.73 557.1 586.03C558.06 583.27 559.32 580.96 560.88 579.1C562.44 577.18 564.21 575.74 566.19 574.78C568.17 573.76 570.24 573.25 572.4 573.25C574.08 573.25 575.52 573.49 576.72 573.97C577.92 574.45 578.91 574.96 579.69 575.5C580.59 576.16 581.31 576.91 581.85 577.75V555.25L576.45 553.9V553H589.05V613.75ZM605.7 613.75V576.85L600.3 575.5V574.6H612.9V613.75L618.3 615.1V616H600.3V615.1L605.7 613.75ZM613.35 564.25C613.35 565.39 612.87 566.44 611.91 567.4C611.01 568.3 609.99 568.75 608.85 568.75C607.71 568.75 606.66 568.3 605.7 567.4C604.8 566.44 604.35 565.39 604.35 564.25C604.35 563.11 604.8 562.09 605.7 561.19C606.66 560.23 607.71 559.75 608.85 559.75C609.99 559.75 611.01 560.23 611.91 561.19C612.87 562.09 613.35 563.11 613.35 564.25ZM647.529 593.95C642.309 593.95 638.439 595.12 635.919 597.46C633.459 599.74 632.229 602.92 632.229 607C632.229 609.7 632.889 611.8 634.209 613.3C635.529 614.8 636.969 615.55 638.529 615.55C639.969 615.55 641.229 615.13 642.309 614.29C643.449 613.45 644.409 612.52 645.189 611.5C646.089 610.36 646.869 609.01 647.529 607.45V593.95ZM640.779 574.6C638.979 574.6 637.479 575.23 636.279 576.49C635.079 577.69 634.479 579.31 634.479 581.35C634.479 581.83 634.479 582.25 634.479 582.61C634.539 582.97 634.599 583.3 634.659 583.6C634.719 583.9 634.809 584.2 634.929 584.5L627.729 586.3C627.609 586.12 627.519 585.88 627.459 585.58C627.399 585.28 627.339 584.95 627.279 584.59C627.279 584.23 627.279 583.75 627.279 583.15C627.279 581.89 627.579 580.69 628.179 579.55C628.779 578.35 629.649 577.3 630.789 576.4C631.989 575.44 633.399 574.69 635.019 574.15C636.699 573.55 638.619 573.25 640.779 573.25C645.099 573.25 648.489 574.48 650.949 576.94C653.469 579.4 654.729 582.67 654.729 586.75V613.75L660.129 615.1V616H647.529V610.6C646.869 611.86 646.029 613 645.009 614.02C644.169 614.86 643.089 615.61 641.769 616.27C640.509 616.99 638.979 617.35 637.179 617.35C632.859 617.35 629.589 616.33 627.369 614.29C625.209 612.25 624.129 609.52 624.129 606.1C624.129 604.42 624.579 602.74 625.479 601.06C626.439 599.38 627.849 597.88 629.709 596.56C631.629 595.24 634.059 594.19 636.999 593.41C639.939 592.57 643.449 592.15 647.529 592.15V586.75C647.529 582.25 646.839 579.1 645.459 577.3C644.139 575.5 642.579 574.6 640.779 574.6ZM705.586 575.05C704.446 575.05 703.306 575.41 702.166 576.13C701.086 576.79 700.096 577.9 699.196 579.46C698.296 581.02 697.546 583.09 696.946 585.67C696.406 588.25 696.136 591.46 696.136 595.3C696.136 599.14 696.406 602.35 696.946 604.93C697.546 607.51 698.326 609.61 699.286 611.23C700.246 612.79 701.326 613.9 702.526 614.56C703.786 615.22 705.106 615.55 706.486 615.55C708.046 615.55 709.516 615.25 710.896 614.65C712.276 614.05 713.506 613.24 714.586 612.22C715.666 611.2 716.536 609.97 717.196 608.53C717.916 607.09 718.396 605.53 718.636 603.85H719.986C719.746 605.77 719.206 607.57 718.366 609.25C717.586 610.87 716.566 612.28 715.306 613.48C714.046 614.68 712.576 615.61 710.896 616.27C709.276 616.99 707.506 617.35 705.586 617.35C703.246 617.35 700.996 616.87 698.836 615.91C696.736 614.89 694.876 613.45 693.256 611.59C691.636 609.67 690.346 607.36 689.386 604.66C688.486 601.9 688.036 598.78 688.036 595.3C688.036 591.82 688.486 588.73 689.386 586.03C690.346 583.27 691.606 580.96 693.166 579.1C694.726 577.18 696.496 575.74 698.476 574.78C700.456 573.76 702.526 573.25 704.686 573.25C706.126 573.25 707.386 573.49 708.466 573.97C709.606 574.45 710.566 574.96 711.346 575.5C712.246 576.16 713.026 576.91 713.686 577.75C713.926 576.85 714.406 576.01 715.126 575.23C715.906 574.45 716.626 573.94 717.286 573.7H718.636C718.516 574.48 718.426 575.29 718.366 576.13C718.306 576.85 718.246 577.63 718.186 578.47C718.186 579.31 718.186 580.12 718.186 580.9C718.186 581.8 718.186 582.73 718.186 583.69C718.246 584.59 718.306 585.4 718.366 586.12C718.426 586.96 718.516 587.77 718.636 588.55H717.286C716.146 584.23 714.466 580.9 712.246 578.56C710.086 576.22 707.866 575.05 705.586 575.05ZM743.808 574.6C742.788 574.6 741.738 574.96 740.658 575.68C739.638 576.34 738.678 577.48 737.778 579.1C736.938 580.66 736.218 582.76 735.618 585.4C735.078 588.04 734.808 591.34 734.808 595.3C734.808 599.26 735.078 602.56 735.618 605.2C736.218 607.84 736.938 609.97 737.778 611.59C738.678 613.15 739.638 614.29 740.658 615.01C741.738 615.67 742.788 616 743.808 616C744.828 616 745.848 615.67 746.868 615.01C747.948 614.29 748.908 613.15 749.748 611.59C750.648 609.97 751.368 607.84 751.908 605.2C752.508 602.56 752.808 599.26 752.808 595.3C752.808 591.34 752.508 588.04 751.908 585.4C751.368 582.76 750.648 580.66 749.748 579.1C748.908 577.48 747.948 576.34 746.868 575.68C745.848 574.96 744.828 574.6 743.808 574.6ZM743.808 573.25C746.028 573.25 748.158 573.76 750.198 574.78C752.298 575.74 754.128 577.18 755.688 579.1C757.308 580.96 758.568 583.27 759.468 586.03C760.428 588.73 760.908 591.82 760.908 595.3C760.908 598.78 760.428 601.9 759.468 604.66C758.568 607.36 757.308 609.67 755.688 611.59C754.128 613.45 752.298 614.89 750.198 615.91C748.158 616.87 746.028 617.35 743.808 617.35C741.528 617.35 739.368 616.87 737.328 615.91C735.288 614.89 733.458 613.45 731.838 611.59C730.278 609.67 729.018 607.36 728.058 604.66C727.158 601.9 726.708 598.78 726.708 595.3C726.708 591.82 727.158 588.73 728.058 586.03C729.018 583.27 730.278 580.96 731.838 579.1C733.458 577.18 735.288 575.74 737.328 574.78C739.368 573.76 741.528 573.25 743.808 573.25ZM773.484 613.75V576.85L768.084 575.5V574.6H780.684V580C781.284 578.8 782.094 577.69 783.114 576.67C783.954 575.83 785.034 575.05 786.354 574.33C787.674 573.61 789.234 573.25 791.034 573.25C793.314 573.25 795.174 573.67 796.614 574.51C798.114 575.35 799.314 576.28 800.214 577.3C801.294 578.5 802.134 579.85 802.734 581.35C803.514 579.85 804.444 578.5 805.524 577.3C806.484 576.28 807.654 575.35 809.034 574.51C810.414 573.67 812.064 573.25 813.984 573.25C815.784 573.25 817.434 573.58 818.934 574.24C820.494 574.9 821.844 575.83 822.984 577.03C824.124 578.17 824.994 579.58 825.594 581.26C826.254 582.88 826.584 584.71 826.584 586.75V613.75L831.984 615.1V616H814.434V615.1L819.384 613.75V586.75C819.384 582.49 818.694 579.49 817.314 577.75C815.994 575.95 814.434 575.05 812.634 575.05C811.134 575.05 809.844 575.47 808.764 576.31C807.684 577.15 806.754 578.08 805.974 579.1C805.074 580.3 804.294 581.65 803.634 583.15V613.75L808.584 615.1V616H791.484V615.1L796.434 613.75V586.75C796.434 582.49 795.744 579.49 794.364 577.75C793.044 575.95 791.484 575.05 789.684 575.05C788.184 575.05 786.894 575.47 785.814 576.31C784.734 577.15 783.804 578.08 783.024 579.1C782.124 580.3 781.344 581.65 780.684 583.15V613.75L785.634 615.1V616H768.084V615.1L773.484 613.75ZM841.841 576.85L836.441 575.5V574.6H849.041V580C849.641 578.8 850.451 577.69 851.471 576.67C852.311 575.83 853.391 575.05 854.711 574.33C856.031 573.61 857.591 573.25 859.391 573.25C861.311 573.25 863.201 573.76 865.061 574.78C866.981 575.74 868.661 577.18 870.101 579.1C871.601 580.96 872.801 583.27 873.701 586.03C874.661 588.73 875.141 591.82 875.141 595.3C875.141 598.78 874.661 601.9 873.701 604.66C872.801 607.36 871.571 609.67 870.011 611.59C868.451 613.45 866.681 614.89 864.701 615.91C862.721 616.87 860.651 617.35 858.491 617.35C856.751 617.35 855.281 617.11 854.081 616.63C852.941 616.21 851.981 615.7 851.201 615.1C850.301 614.44 849.581 613.69 849.041 612.85V635.35L854.441 636.7V637.6H836.441V636.7L841.841 635.35V576.85ZM857.141 615.55C858.401 615.55 859.601 615.22 860.741 614.56C861.941 613.9 862.991 612.79 863.891 611.23C864.851 609.61 865.601 607.51 866.141 604.93C866.741 602.35 867.041 599.14 867.041 595.3C867.041 591.46 866.741 588.25 866.141 585.67C865.601 583.09 864.881 581.02 863.981 579.46C863.141 577.9 862.181 576.79 861.101 576.13C860.081 575.41 859.061 575.05 858.041 575.05C856.541 575.05 855.251 575.47 854.171 576.31C853.091 577.15 852.161 578.08 851.381 579.1C850.481 580.3 849.701 581.65 849.041 583.15V610.15C849.581 611.17 850.241 612.07 851.021 612.85C851.681 613.51 852.521 614.14 853.541 614.74C854.561 615.28 855.761 615.55 857.141 615.55ZM916.091 576.85V613.75L921.491 615.1V616H908.891V610.6C908.231 611.86 907.391 613 906.371 614.02C905.531 614.86 904.451 615.61 903.131 616.27C901.871 616.99 900.341 617.35 898.541 617.35C896.741 617.35 895.061 617.02 893.501 616.36C892.001 615.7 890.681 614.8 889.541 613.66C888.401 612.46 887.501 611.05 886.841 609.43C886.241 607.75 885.941 605.89 885.941 603.85V576.85L880.541 575.5V574.6H898.091V575.5L893.141 576.85V603.85C893.141 608.11 893.801 611.14 895.121 612.94C896.501 614.68 898.091 615.55 899.891 615.55C901.331 615.55 902.591 615.13 903.671 614.29C904.811 613.45 905.771 612.52 906.551 611.5C907.451 610.36 908.231 609.01 908.891 607.45V576.85L903.941 575.5V574.6H921.491V575.5L916.091 576.85ZM950.731 574.6V576.4H940.381V605.11C940.381 608.77 941.041 611.44 942.361 613.12C943.681 614.74 945.121 615.55 946.681 615.55C948.721 615.55 950.431 614.8 951.811 613.3C953.251 611.74 954.091 609.49 954.331 606.55H955.681C955.441 609.97 954.391 612.64 952.531 614.56C950.731 616.42 948.481 617.35 945.781 617.35C941.941 617.35 938.881 616.24 936.601 614.02C934.321 611.74 933.181 608.8 933.181 605.2V576.4H925.531V574.6H933.181V564.25L940.381 559.3V574.6H950.731ZM983.623 593.95C978.403 593.95 974.533 595.12 972.013 597.46C969.553 599.74 968.323 602.92 968.323 607C968.323 609.7 968.983 611.8 970.303 613.3C971.623 614.8 973.063 615.55 974.623 615.55C976.063 615.55 977.323 615.13 978.403 614.29C979.543 613.45 980.503 612.52 981.283 611.5C982.183 610.36 982.963 609.01 983.623 607.45V593.95ZM976.873 574.6C975.073 574.6 973.573 575.23 972.373 576.49C971.173 577.69 970.573 579.31 970.573 581.35C970.573 581.83 970.573 582.25 970.573 582.61C970.633 582.97 970.693 583.3 970.753 583.6C970.813 583.9 970.903 584.2 971.023 584.5L963.823 586.3C963.703 586.12 963.613 585.88 963.553 585.58C963.493 585.28 963.433 584.95 963.373 584.59C963.373 584.23 963.373 583.75 963.373 583.15C963.373 581.89 963.673 580.69 964.273 579.55C964.873 578.35 965.743 577.3 966.883 576.4C968.083 575.44 969.493 574.69 971.113 574.15C972.793 573.55 974.713 573.25 976.873 573.25C981.193 573.25 984.583 574.48 987.043 576.94C989.563 579.4 990.823 582.67 990.823 586.75V613.75L996.223 615.1V616H983.623V610.6C982.963 611.86 982.123 613 981.103 614.02C980.263 614.86 979.183 615.61 977.863 616.27C976.603 616.99 975.073 617.35 973.273 617.35C968.953 617.35 965.683 616.33 963.463 614.29C961.303 612.25 960.223 609.52 960.223 606.1C960.223 604.42 960.673 602.74 961.573 601.06C962.533 599.38 963.943 597.88 965.803 596.56C967.723 595.24 970.153 594.19 973.093 593.41C976.033 592.57 979.543 592.15 983.623 592.15V586.75C983.623 582.25 982.933 579.1 981.553 577.3C980.233 575.5 978.673 574.6 976.873 574.6ZM1020.06 575.05C1018.92 575.05 1017.78 575.41 1016.64 576.13C1015.56 576.79 1014.57 577.9 1013.67 579.46C1012.77 581.02 1012.02 583.09 1011.42 585.67C1010.88 588.25 1010.61 591.46 1010.61 595.3C1010.61 599.14 1010.88 602.35 1011.42 604.93C1012.02 607.51 1012.8 609.61 1013.76 611.23C1014.72 612.79 1015.8 613.9 1017 614.56C1018.26 615.22 1019.58 615.55 1020.96 615.55C1022.52 615.55 1023.99 615.25 1025.37 614.65C1026.75 614.05 1027.98 613.24 1029.06 612.22C1030.14 611.2 1031.01 609.97 1031.67 608.53C1032.39 607.09 1032.87 605.53 1033.11 603.85H1034.46C1034.22 605.77 1033.68 607.57 1032.84 609.25C1032.06 610.87 1031.04 612.28 1029.78 613.48C1028.52 614.68 1027.05 615.61 1025.37 616.27C1023.75 616.99 1021.98 617.35 1020.06 617.35C1017.72 617.35 1015.47 616.87 1013.31 615.91C1011.21 614.89 1009.35 613.45 1007.73 611.59C1006.11 609.67 1004.82 607.36 1003.86 604.66C1002.96 601.9 1002.51 598.78 1002.51 595.3C1002.51 591.82 1002.96 588.73 1003.86 586.03C1004.82 583.27 1006.08 580.96 1007.64 579.1C1009.2 577.18 1010.97 575.74 1012.95 574.78C1014.93 573.76 1017 573.25 1019.16 573.25C1020.6 573.25 1021.86 573.49 1022.94 573.97C1024.08 574.45 1025.04 574.96 1025.82 575.5C1026.72 576.16 1027.5 576.91 1028.16 577.75C1028.4 576.85 1028.88 576.01 1029.6 575.23C1030.38 574.45 1031.1 573.94 1031.76 573.7H1033.11C1032.99 574.48 1032.9 575.29 1032.84 576.13C1032.78 576.85 1032.72 577.63 1032.66 578.47C1032.66 579.31 1032.66 580.12 1032.66 580.9C1032.66 581.8 1032.66 582.73 1032.66 583.69C1032.72 584.59 1032.78 585.4 1032.84 586.12C1032.9 586.96 1032.99 587.77 1033.11 588.55H1031.76C1030.62 584.23 1028.94 580.9 1026.72 578.56C1024.56 576.22 1022.34 575.05 1020.06 575.05ZM1045.68 613.75V576.85L1040.28 575.5V574.6H1052.88V613.75L1058.28 615.1V616H1040.28V615.1L1045.68 613.75ZM1053.33 564.25C1053.33 565.39 1052.85 566.44 1051.89 567.4C1050.99 568.3 1049.97 568.75 1048.83 568.75C1047.69 568.75 1046.64 568.3 1045.68 567.4C1044.78 566.44 1044.33 565.39 1044.33 564.25C1044.33 563.11 1044.78 562.09 1045.68 561.19C1046.64 560.23 1047.69 559.75 1048.83 559.75C1049.97 559.75 1050.99 560.23 1051.89 561.19C1052.85 562.09 1053.33 563.11 1053.33 564.25ZM1081.66 574.6C1080.64 574.6 1079.59 574.96 1078.51 575.68C1077.49 576.34 1076.53 577.48 1075.63 579.1C1074.79 580.66 1074.07 582.76 1073.47 585.4C1072.93 588.04 1072.66 591.34 1072.66 595.3C1072.66 599.26 1072.93 602.56 1073.47 605.2C1074.07 607.84 1074.79 609.97 1075.63 611.59C1076.53 613.15 1077.49 614.29 1078.51 615.01C1079.59 615.67 1080.64 616 1081.66 616C1082.68 616 1083.7 615.67 1084.72 615.01C1085.8 614.29 1086.76 613.15 1087.6 611.59C1088.5 609.97 1089.22 607.84 1089.76 605.2C1090.36 602.56 1090.66 599.26 1090.66 595.3C1090.66 591.34 1090.36 588.04 1089.76 585.4C1089.22 582.76 1088.5 580.66 1087.6 579.1C1086.76 577.48 1085.8 576.34 1084.72 575.68C1083.7 574.96 1082.68 574.6 1081.66 574.6ZM1081.66 573.25C1083.88 573.25 1086.01 573.76 1088.05 574.78C1090.15 575.74 1091.98 577.18 1093.54 579.1C1095.16 580.96 1096.42 583.27 1097.32 586.03C1098.28 588.73 1098.76 591.82 1098.76 595.3C1098.76 598.78 1098.28 601.9 1097.32 604.66C1096.42 607.36 1095.16 609.67 1093.54 611.59C1091.98 613.45 1090.15 614.89 1088.05 615.91C1086.01 616.87 1083.88 617.35 1081.66 617.35C1079.38 617.35 1077.22 616.87 1075.18 615.91C1073.14 614.89 1071.31 613.45 1069.69 611.59C1068.13 609.67 1066.87 607.36 1065.91 604.66C1065.01 601.9 1064.56 598.78 1064.56 595.3C1064.56 591.82 1065.01 588.73 1065.91 586.03C1066.87 583.27 1068.13 580.96 1069.69 579.1C1071.31 577.18 1073.14 575.74 1075.18 574.78C1077.22 573.76 1079.38 573.25 1081.66 573.25ZM1111.34 613.75V576.85L1105.94 575.5V574.6H1118.54V580C1119.14 578.8 1119.95 577.69 1120.97 576.67C1121.81 575.83 1122.89 575.05 1124.21 574.33C1125.53 573.61 1127.09 573.25 1128.89 573.25C1130.69 573.25 1132.34 573.58 1133.84 574.24C1135.4 574.9 1136.75 575.83 1137.89 577.03C1139.03 578.17 1139.9 579.58 1140.5 581.26C1141.16 582.88 1141.49 584.71 1141.49 586.75V613.75L1146.89 615.1V616H1129.34V615.1L1134.29 613.75V586.75C1134.29 582.49 1133.6 579.49 1132.22 577.75C1130.9 575.95 1129.34 575.05 1127.54 575.05C1126.04 575.05 1124.75 575.47 1123.67 576.31C1122.59 577.15 1121.66 578.08 1120.88 579.1C1119.98 580.3 1119.2 581.65 1118.54 583.15V613.75L1123.49 615.1V616H1105.94V615.1L1111.34 613.75ZM1176.1 593.95C1170.88 593.95 1167.01 595.12 1164.49 597.46C1162.03 599.74 1160.8 602.92 1160.8 607C1160.8 609.7 1161.46 611.8 1162.78 613.3C1164.1 614.8 1165.54 615.55 1167.1 615.55C1168.54 615.55 1169.8 615.13 1170.88 614.29C1172.02 613.45 1172.98 612.52 1173.76 611.5C1174.66 610.36 1175.44 609.01 1176.1 607.45V593.95ZM1169.35 574.6C1167.55 574.6 1166.05 575.23 1164.85 576.49C1163.65 577.69 1163.05 579.31 1163.05 581.35C1163.05 581.83 1163.05 582.25 1163.05 582.61C1163.11 582.97 1163.17 583.3 1163.23 583.6C1163.29 583.9 1163.38 584.2 1163.5 584.5L1156.3 586.3C1156.18 586.12 1156.09 585.88 1156.03 585.58C1155.97 585.28 1155.91 584.95 1155.85 584.59C1155.85 584.23 1155.85 583.75 1155.85 583.15C1155.85 581.89 1156.15 580.69 1156.75 579.55C1157.35 578.35 1158.22 577.3 1159.36 576.4C1160.56 575.44 1161.97 574.69 1163.59 574.15C1165.27 573.55 1167.19 573.25 1169.35 573.25C1173.67 573.25 1177.06 574.48 1179.52 576.94C1182.04 579.4 1183.3 582.67 1183.3 586.75V613.75L1188.7 615.1V616H1176.1V610.6C1175.44 611.86 1174.6 613 1173.58 614.02C1172.74 614.86 1171.66 615.61 1170.34 616.27C1169.08 616.99 1167.55 617.35 1165.75 617.35C1161.43 617.35 1158.16 616.33 1155.94 614.29C1153.78 612.25 1152.7 609.52 1152.7 606.1C1152.7 604.42 1153.15 602.74 1154.05 601.06C1155.01 599.38 1156.42 597.88 1158.28 596.56C1160.2 595.24 1162.63 594.19 1165.57 593.41C1168.51 592.57 1172.02 592.15 1176.1 592.15V586.75C1176.1 582.25 1175.41 579.1 1174.03 577.3C1172.71 575.5 1171.15 574.6 1169.35 574.6ZM1198.16 613.75V555.25L1192.76 553.9V553H1205.36V613.75L1210.76 615.1V616H1192.76V615.1L1198.16 613.75Z" fill="black"/>
</svg>
