<svg width="1300" height="976" viewBox="0 0 1300 976" fill="none" xmlns="http://www.w3.org/2000/svg">
<path d="M95.1 453.9V453H114V453.9L108.6 455.25L121.65 501.6L134.7 451.65H136.05L150.81 501.6L162.6 456.15L156.75 453.9V453H170.25V453.9L164.4 456.15L148.65 517.35H147.3L132.45 466.95L119.4 517.35H118.05L100.5 455.25L95.1 453.9ZM177.847 495.3C177.847 499.14 178.117 502.35 178.657 504.93C179.257 507.51 180.007 509.61 180.907 511.23C181.867 512.79 182.917 513.9 184.057 514.56C185.257 515.22 186.487 515.55 187.747 515.55C189.307 515.55 190.777 515.25 192.157 514.65C193.537 514.05 194.767 513.24 195.847 512.22C196.927 511.2 197.797 509.97 198.457 508.53C199.177 507.09 199.657 505.53 199.897 503.85H201.247C201.007 505.77 200.467 507.57 199.627 509.25C198.847 510.87 197.827 512.28 196.567 513.48C195.307 514.68 193.837 515.61 192.157 516.27C190.537 516.99 188.767 517.35 186.847 517.35C184.567 517.35 182.407 516.87 180.367 515.91C178.327 514.89 176.497 513.45 174.877 511.59C173.317 509.67 172.057 507.36 171.097 504.66C170.197 501.9 169.747 498.78 169.747 495.3C169.747 491.7 170.197 488.52 171.097 485.76C171.997 483 173.167 480.72 174.607 478.92C176.107 477.06 177.817 475.65 179.737 474.69C181.717 473.73 183.787 473.25 185.947 473.25C188.107 473.25 190.147 473.73 192.067 474.69C194.047 475.65 195.757 477.06 197.197 478.92C198.697 480.72 199.897 483 200.797 485.76C201.697 488.52 202.147 491.7 202.147 495.3H177.847ZM185.947 474.6C185.047 474.6 184.147 474.9 183.247 475.5C182.347 476.04 181.507 477.03 180.727 478.47C179.947 479.91 179.287 481.86 178.747 484.32C178.267 486.72 177.967 489.78 177.847 493.5H194.047C193.927 489.78 193.597 486.72 193.057 484.32C192.577 481.86 191.947 479.91 191.167 478.47C190.387 477.03 189.547 476.04 188.647 475.5C187.747 474.9 186.847 474.6 185.947 474.6ZM229.175 475.05C227.795 475.05 226.595 475.35 225.575 475.95C224.555 476.49 223.715 477.09 223.055 477.75C222.275 478.53 221.615 479.43 221.075 480.45V507.45C221.735 509.01 222.515 510.36 223.415 511.5C224.195 512.52 225.125 513.45 226.205 514.29C227.285 515.13 228.575 515.55 230.075 515.55C231.095 515.55 232.115 515.22 233.135 514.56C234.215 513.9 235.175 512.79 236.015 511.23C236.915 509.61 237.635 507.51 238.175 504.93C238.775 502.35 239.075 499.14 239.075 495.3C239.075 491.46 238.775 488.25 238.175 485.67C237.635 483.09 236.885 481.02 235.925 479.46C235.025 477.9 233.975 476.79 232.775 476.13C231.635 475.41 230.435 475.05 229.175 475.05ZM230.525 473.25C232.685 473.25 234.755 473.76 236.735 474.78C238.715 475.74 240.485 477.18 242.045 479.1C243.605 480.96 244.835 483.27 245.735 486.03C246.695 488.73 247.175 491.82 247.175 495.3C247.175 498.78 246.695 501.9 245.735 504.66C244.835 507.36 243.635 509.67 242.135 511.59C240.695 513.45 239.015 514.89 237.095 515.91C235.235 516.87 233.345 517.35 231.425 517.35C229.625 517.35 228.065 516.99 226.745 516.27C225.425 515.61 224.345 514.86 223.505 514.02C222.485 513 221.675 511.86 221.075 510.6V516H208.475V515.1L213.875 513.75V455.25L208.475 453.9V453H221.075V477.75C221.615 476.91 222.335 476.16 223.235 475.5C224.015 474.96 224.975 474.45 226.115 473.97C227.315 473.49 228.785 473.25 230.525 473.25ZM272.815 475.05C271.555 475.05 270.325 475.41 269.125 476.13C267.985 476.79 266.935 477.9 265.975 479.46C265.075 481.02 264.325 483.09 263.725 485.67C263.185 488.25 262.915 491.46 262.915 495.3C262.915 499.14 263.185 502.35 263.725 504.93C264.325 507.51 265.045 509.61 265.885 511.23C266.785 512.79 267.745 513.9 268.765 514.56C269.845 515.22 270.895 515.55 271.915 515.55C273.355 515.55 274.615 515.13 275.695 514.29C276.835 513.45 277.795 512.52 278.575 511.5C279.475 510.36 280.255 509.01 280.915 507.45V480.45C280.315 479.43 279.625 478.53 278.845 477.75C278.185 477.09 277.345 476.49 276.325 475.95C275.365 475.35 274.195 475.05 272.815 475.05ZM288.115 513.75L293.515 515.1V516H280.915V510.6C280.255 511.86 279.415 513 278.395 514.02C277.555 514.86 276.475 515.61 275.155 516.27C273.895 516.99 272.365 517.35 270.565 517.35C268.645 517.35 266.725 516.87 264.805 515.91C262.945 514.89 261.265 513.45 259.765 511.59C258.325 509.67 257.125 507.36 256.165 504.66C255.265 501.9 254.815 498.78 254.815 495.3C254.815 491.82 255.265 488.73 256.165 486.03C257.125 483.27 258.385 480.96 259.945 479.1C261.505 477.18 263.275 475.74 265.255 474.78C267.235 473.76 269.305 473.25 271.465 473.25C273.145 473.25 274.585 473.49 275.785 473.97C276.985 474.45 277.975 474.96 278.755 475.5C279.655 476.16 280.375 476.91 280.915 477.75V455.25L275.515 453.9V453H288.115V513.75ZM308.365 495.3C308.365 499.14 308.635 502.35 309.175 504.93C309.775 507.51 310.525 509.61 311.425 511.23C312.385 512.79 313.435 513.9 314.575 514.56C315.775 515.22 317.005 515.55 318.265 515.55C319.825 515.55 321.295 515.25 322.675 514.65C324.055 514.05 325.285 513.24 326.365 512.22C327.445 511.2 328.315 509.97 328.975 508.53C329.695 507.09 330.175 505.53 330.415 503.85H331.765C331.525 505.77 330.985 507.57 330.145 509.25C329.365 510.87 328.345 512.28 327.085 513.48C325.825 514.68 324.355 515.61 322.675 516.27C321.055 516.99 319.285 517.35 317.365 517.35C315.085 517.35 312.925 516.87 310.885 515.91C308.845 514.89 307.015 513.45 305.395 511.59C303.835 509.67 302.575 507.36 301.615 504.66C300.715 501.9 300.265 498.78 300.265 495.3C300.265 491.7 300.715 488.52 301.615 485.76C302.515 483 303.685 480.72 305.125 478.92C306.625 477.06 308.335 475.65 310.255 474.69C312.235 473.73 314.305 473.25 316.465 473.25C318.625 473.25 320.665 473.73 322.585 474.69C324.565 475.65 326.275 477.06 327.715 478.92C329.215 480.72 330.415 483 331.315 485.76C332.215 488.52 332.665 491.7 332.665 495.3H308.365ZM316.465 474.6C315.565 474.6 314.665 474.9 313.765 475.5C312.865 476.04 312.025 477.03 311.245 478.47C310.465 479.91 309.805 481.86 309.265 484.32C308.785 486.72 308.485 489.78 308.365 493.5H324.565C324.445 489.78 324.115 486.72 323.575 484.32C323.095 481.86 322.465 479.91 321.685 478.47C320.905 477.03 320.065 476.04 319.165 475.5C318.265 474.9 317.365 474.6 316.465 474.6ZM355.643 517.35C353.723 517.35 352.073 517.11 350.693 516.63C349.313 516.21 348.203 515.7 347.363 515.1C346.343 514.44 345.503 513.69 344.843 512.85C344.603 513.75 344.093 514.59 343.313 515.37C342.593 516.15 341.903 516.66 341.243 516.9H339.893C339.953 516.12 340.013 515.31 340.073 514.47C340.133 513.75 340.193 513 340.253 512.22C340.313 511.38 340.343 510.54 340.343 509.7C340.343 508.8 340.313 507.9 340.253 507C340.193 506.1 340.133 505.29 340.073 504.57C340.013 503.73 339.953 502.89 339.893 502.05H341.243C342.383 506.37 344.123 509.7 346.463 512.04C348.803 514.38 351.563 515.55 354.743 515.55C357.263 515.55 359.303 514.77 360.863 513.21C362.483 511.65 363.293 509.73 363.293 507.45C363.293 505.83 362.723 504.42 361.583 503.22C360.503 502.02 359.123 500.94 357.443 499.98C355.763 498.96 353.963 497.97 352.043 497.01C350.123 496.05 348.323 494.97 346.643 493.77C344.963 492.57 343.553 491.16 342.413 489.54C341.333 487.92 340.793 485.94 340.793 483.6C340.793 482.28 341.093 480.99 341.693 479.73C342.293 478.47 343.103 477.36 344.123 476.4C345.203 475.44 346.493 474.69 347.993 474.15C349.493 473.55 351.143 473.25 352.943 473.25C354.503 473.25 355.853 473.49 356.993 473.97C358.193 474.45 359.213 474.96 360.053 475.5C360.953 476.16 361.733 476.91 362.393 477.75C362.633 476.85 363.113 476.01 363.833 475.23C364.613 474.45 365.333 473.94 365.993 473.7H367.343C367.223 474.48 367.133 475.29 367.073 476.13C367.013 476.85 366.953 477.63 366.893 478.47C366.893 479.31 366.893 480.12 366.893 480.9C366.893 481.8 366.893 482.73 366.893 483.69C366.953 484.59 367.013 485.4 367.073 486.12C367.133 486.96 367.223 487.77 367.343 488.55H365.993C364.853 484.23 363.173 480.9 360.953 478.56C358.733 476.22 356.363 475.05 353.843 475.05C351.803 475.05 350.093 475.74 348.713 477.12C347.333 478.44 346.643 480 346.643 481.8C346.643 483.3 347.213 484.59 348.353 485.67C349.493 486.75 350.903 487.77 352.583 488.73C354.263 489.63 356.093 490.56 358.073 491.52C360.113 492.48 361.973 493.59 363.653 494.85C365.333 496.11 366.743 497.61 367.883 499.35C369.023 501.09 369.593 503.19 369.593 505.65C369.593 507.09 369.233 508.53 368.513 509.97C367.853 511.35 366.893 512.61 365.633 513.75C364.433 514.83 362.963 515.7 361.223 516.36C359.543 517.02 357.683 517.35 355.643 517.35ZM381.318 513.75V476.85L375.918 475.5V474.6H388.518V513.75L393.918 515.1V516H375.918V515.1L381.318 513.75ZM388.968 464.25C388.968 465.39 388.488 466.44 387.528 467.4C386.628 468.3 385.608 468.75 384.468 468.75C383.328 468.75 382.278 468.3 381.318 467.4C380.418 466.44 379.968 465.39 379.968 464.25C379.968 463.11 380.418 462.09 381.318 461.19C382.278 460.23 383.328 459.75 384.468 459.75C385.608 459.75 386.628 460.23 387.528 461.19C388.488 462.09 388.968 463.11 388.968 464.25ZM415.946 502.5C416.966 502.5 417.956 502.26 418.916 501.78C419.876 501.24 420.746 500.4 421.526 499.26C422.306 498.12 422.906 496.68 423.326 494.94C423.806 493.14 424.046 491.01 424.046 488.55C424.046 486.09 423.806 483.99 423.326 482.25C422.906 480.45 422.306 479.01 421.526 477.93C420.746 476.79 419.876 475.95 418.916 475.41C417.956 474.87 416.966 474.6 415.946 474.6C414.926 474.6 413.936 474.87 412.976 475.41C412.016 475.95 411.146 476.79 410.366 477.93C409.586 479.01 408.956 480.45 408.476 482.25C408.056 483.99 407.846 486.09 407.846 488.55C407.846 491.01 408.056 493.14 408.476 494.94C408.956 496.68 409.586 498.12 410.366 499.26C411.146 500.4 412.016 501.24 412.976 501.78C413.936 502.26 414.926 502.5 415.946 502.5ZM417.746 537.24C419.966 537.24 421.976 536.91 423.776 536.25C425.576 535.65 427.076 534.81 428.276 533.73C429.536 532.65 430.496 531.39 431.156 529.95C431.816 528.51 432.146 527.01 432.146 525.45C432.146 519.75 429.296 516.9 423.596 516.9H409.196C405.776 516.9 403.256 516.21 401.636 514.83C400.076 513.45 399.296 511.74 399.296 509.7C399.296 508.32 399.626 507.12 400.286 506.1C401.006 505.02 401.786 504.06 402.626 503.22C403.646 502.32 404.786 501.48 406.046 500.7C404.846 499.92 403.796 498.96 402.896 497.82C402.056 496.8 401.306 495.54 400.646 494.04C400.046 492.54 399.746 490.71 399.746 488.55C399.746 486.39 400.136 484.38 400.916 482.52C401.756 480.66 402.896 479.04 404.336 477.66C405.776 476.28 407.486 475.2 409.466 474.42C411.446 473.64 413.606 473.25 415.946 473.25C416.966 473.25 417.956 473.34 418.916 473.52C419.876 473.7 420.746 473.91 421.526 474.15C422.426 474.39 423.266 474.69 424.046 475.05C424.526 474.39 425.096 473.79 425.756 473.25C426.356 472.77 427.106 472.35 428.006 471.99C428.906 471.63 429.986 471.45 431.246 471.45C433.286 471.45 434.876 471.84 436.016 472.62C437.216 473.34 438.146 474.15 438.806 475.05C439.526 476.13 440.006 477.33 440.246 478.65L433.496 480C433.316 478.8 433.046 477.69 432.686 476.67C432.386 475.83 431.966 475.05 431.426 474.33C430.886 473.61 430.226 473.25 429.446 473.25C428.786 473.25 428.186 473.4 427.646 473.7C427.106 474 426.686 474.3 426.386 474.6C425.966 475.02 425.636 475.47 425.396 475.95C427.676 477.33 429.356 479.1 430.436 481.26C431.576 483.42 432.146 485.85 432.146 488.55C432.146 490.71 431.726 492.72 430.886 494.58C430.106 496.44 428.996 498.06 427.556 499.44C426.116 500.82 424.406 501.9 422.426 502.68C420.446 503.46 418.286 503.85 415.946 503.85C414.686 503.85 413.546 503.76 412.526 503.58C411.506 503.34 410.606 503.07 409.826 502.77C408.926 502.47 408.116 502.08 407.396 501.6C406.556 502.14 405.806 502.71 405.146 503.31C404.546 503.79 404.006 504.36 403.526 505.02C403.106 505.68 402.896 506.34 402.896 507C402.896 507.9 403.316 508.65 404.156 509.25C404.996 509.79 406.676 510.06 409.196 510.06H423.596C427.196 510.06 430.106 511.23 432.326 513.57C434.606 515.85 435.746 518.91 435.746 522.75C435.746 525.03 435.296 527.13 434.396 529.05C433.556 531.03 432.356 532.74 430.796 534.18C429.236 535.68 427.346 536.85 425.126 537.69C422.906 538.53 420.446 538.95 417.746 538.95C414.386 538.95 411.446 538.56 408.926 537.78C406.466 537.06 404.426 536.04 402.806 534.72C401.186 533.46 399.956 531.96 399.116 530.22C398.336 528.48 397.946 526.59 397.946 524.55C397.946 523.77 398.036 523.05 398.216 522.39C398.396 521.79 398.606 521.28 398.846 520.86C399.086 520.38 399.386 519.96 399.746 519.6L406.496 522.3C406.316 522.72 406.166 523.17 406.046 523.65C405.746 524.55 405.596 525.45 405.596 526.35C405.596 529.53 406.646 532.14 408.746 534.18C410.906 536.22 413.906 537.24 417.746 537.24ZM448.378 513.75V476.85L442.978 475.5V474.6H455.578V480C456.178 478.8 456.988 477.69 458.008 476.67C458.848 475.83 459.928 475.05 461.248 474.33C462.568 473.61 464.128 473.25 465.928 473.25C467.728 473.25 469.378 473.58 470.878 474.24C472.438 474.9 473.788 475.83 474.928 477.03C476.068 478.17 476.938 479.58 477.538 481.26C478.198 482.88 478.528 484.71 478.528 486.75V513.75L483.928 515.1V516H466.378V515.1L471.328 513.75V486.75C471.328 482.49 470.638 479.49 469.258 477.75C467.938 475.95 466.378 475.05 464.578 475.05C463.078 475.05 461.788 475.47 460.708 476.31C459.628 477.15 458.698 478.08 457.918 479.1C457.018 480.3 456.238 481.65 455.578 483.15V513.75L460.528 515.1V516H442.978V515.1L448.378 513.75Z" fill="black"/>
</svg>
