<svg width="1300" height="976" viewBox="0 0 1300 976" fill="none" xmlns="http://www.w3.org/2000/svg">
<path d="M117.15 324.6C116.13 324.6 115.08 324.96 114 325.68C112.98 326.34 112.02 327.48 111.12 329.1C110.28 330.66 109.56 332.76 108.96 335.4C108.42 338.04 108.15 341.34 108.15 345.3C108.15 349.26 108.42 352.56 108.96 355.2C109.56 357.84 110.28 359.97 111.12 361.59C112.02 363.15 112.98 364.29 114 365.01C115.08 365.67 116.13 366 117.15 366C118.17 366 119.19 365.67 120.21 365.01C121.29 364.29 122.25 363.15 123.09 361.59C123.99 359.97 124.71 357.84 125.25 355.2C125.85 352.56 126.15 349.26 126.15 345.3C126.15 341.34 125.85 338.04 125.25 335.4C124.71 332.76 123.99 330.66 123.09 329.1C122.25 327.48 121.29 326.34 120.21 325.68C119.19 324.96 118.17 324.6 117.15 324.6ZM117.15 323.25C119.37 323.25 121.5 323.76 123.54 324.78C125.64 325.74 127.47 327.18 129.03 329.1C130.65 330.96 131.91 333.27 132.81 336.03C133.77 338.73 134.25 341.82 134.25 345.3C134.25 348.78 133.77 351.9 132.81 354.66C131.91 357.36 130.65 359.67 129.03 361.59C127.47 363.45 125.64 364.89 123.54 365.91C121.5 366.87 119.37 367.35 117.15 367.35C114.87 367.35 112.71 366.87 110.67 365.91C108.63 364.89 106.8 363.45 105.18 361.59C103.62 359.67 102.36 357.36 101.4 354.66C100.5 351.9 100.05 348.78 100.05 345.3C100.05 341.82 100.5 338.73 101.4 336.03C102.36 333.27 103.62 330.96 105.18 329.1C106.8 327.18 108.63 325.74 110.67 324.78C112.71 323.76 114.87 323.25 117.15 323.25ZM157.625 367.35C155.705 367.35 154.055 367.11 152.675 366.63C151.295 366.21 150.185 365.7 149.345 365.1C148.325 364.44 147.485 363.69 146.825 362.85C146.585 363.75 146.075 364.59 145.295 365.37C144.575 366.15 143.885 366.66 143.225 366.9H141.875C141.935 366.12 141.995 365.31 142.055 364.47C142.115 363.75 142.175 363 142.235 362.22C142.295 361.38 142.325 360.54 142.325 359.7C142.325 358.8 142.295 357.9 142.235 357C142.175 356.1 142.115 355.29 142.055 354.57C141.995 353.73 141.935 352.89 141.875 352.05H143.225C144.365 356.37 146.105 359.7 148.445 362.04C150.785 364.38 153.545 365.55 156.725 365.55C159.245 365.55 161.285 364.77 162.845 363.21C164.465 361.65 165.275 359.73 165.275 357.45C165.275 355.83 164.705 354.42 163.565 353.22C162.485 352.02 161.105 350.94 159.425 349.98C157.745 348.96 155.945 347.97 154.025 347.01C152.105 346.05 150.305 344.97 148.625 343.77C146.945 342.57 145.535 341.16 144.395 339.54C143.315 337.92 142.775 335.94 142.775 333.6C142.775 332.28 143.075 330.99 143.675 329.73C144.275 328.47 145.085 327.36 146.105 326.4C147.185 325.44 148.475 324.69 149.975 324.15C151.475 323.55 153.125 323.25 154.925 323.25C156.485 323.25 157.835 323.49 158.975 323.97C160.175 324.45 161.195 324.96 162.035 325.5C162.935 326.16 163.715 326.91 164.375 327.75C164.615 326.85 165.095 326.01 165.815 325.23C166.595 324.45 167.315 323.94 167.975 323.7H169.325C169.205 324.48 169.115 325.29 169.055 326.13C168.995 326.85 168.935 327.63 168.875 328.47C168.875 329.31 168.875 330.12 168.875 330.9C168.875 331.8 168.875 332.73 168.875 333.69C168.935 334.59 168.995 335.4 169.055 336.12C169.115 336.96 169.205 337.77 169.325 338.55H167.975C166.835 334.23 165.155 330.9 162.935 328.56C160.715 326.22 158.345 325.05 155.825 325.05C153.785 325.05 152.075 325.74 150.695 327.12C149.315 328.44 148.625 330 148.625 331.8C148.625 333.3 149.195 334.59 150.335 335.67C151.475 336.75 152.885 337.77 154.565 338.73C156.245 339.63 158.075 340.56 160.055 341.52C162.095 342.48 163.955 343.59 165.635 344.85C167.315 346.11 168.725 347.61 169.865 349.35C171.005 351.09 171.575 353.19 171.575 355.65C171.575 357.09 171.215 358.53 170.495 359.97C169.835 361.35 168.875 362.61 167.615 363.75C166.415 364.83 164.945 365.7 163.205 366.36C161.525 367.02 159.665 367.35 157.625 367.35ZM204.921 363.75V326.85L199.521 325.5V324.6H212.121V330C212.721 328.8 213.531 327.69 214.551 326.67C215.391 325.83 216.471 325.05 217.791 324.33C219.111 323.61 220.671 323.25 222.471 323.25C224.271 323.25 225.921 323.58 227.421 324.24C228.981 324.9 230.331 325.83 231.471 327.03C232.611 328.17 233.481 329.58 234.081 331.26C234.741 332.88 235.071 334.71 235.071 336.75V363.75L240.471 365.1V366H222.921V365.1L227.871 363.75V336.75C227.871 332.49 227.181 329.49 225.801 327.75C224.481 325.95 222.921 325.05 221.121 325.05C219.621 325.05 218.331 325.47 217.251 326.31C216.171 327.15 215.241 328.08 214.461 329.1C213.561 330.3 212.781 331.65 212.121 333.15V363.75L217.071 365.1V366H199.521V365.1L204.921 363.75ZM263.839 324.6C262.819 324.6 261.769 324.96 260.689 325.68C259.669 326.34 258.709 327.48 257.809 329.1C256.969 330.66 256.249 332.76 255.649 335.4C255.109 338.04 254.839 341.34 254.839 345.3C254.839 349.26 255.109 352.56 255.649 355.2C256.249 357.84 256.969 359.97 257.809 361.59C258.709 363.15 259.669 364.29 260.689 365.01C261.769 365.67 262.819 366 263.839 366C264.859 366 265.879 365.67 266.899 365.01C267.979 364.29 268.939 363.15 269.779 361.59C270.679 359.97 271.399 357.84 271.939 355.2C272.539 352.56 272.839 349.26 272.839 345.3C272.839 341.34 272.539 338.04 271.939 335.4C271.399 332.76 270.679 330.66 269.779 329.1C268.939 327.48 267.979 326.34 266.899 325.68C265.879 324.96 264.859 324.6 263.839 324.6ZM263.839 323.25C266.059 323.25 268.189 323.76 270.229 324.78C272.329 325.74 274.159 327.18 275.719 329.1C277.339 330.96 278.599 333.27 279.499 336.03C280.459 338.73 280.939 341.82 280.939 345.3C280.939 348.78 280.459 351.9 279.499 354.66C278.599 357.36 277.339 359.67 275.719 361.59C274.159 363.45 272.329 364.89 270.229 365.91C268.189 366.87 266.059 367.35 263.839 367.35C261.559 367.35 259.399 366.87 257.359 365.91C255.319 364.89 253.489 363.45 251.869 361.59C250.309 359.67 249.049 357.36 248.089 354.66C247.189 351.9 246.739 348.78 246.739 345.3C246.739 341.82 247.189 338.73 248.089 336.03C249.049 333.27 250.309 330.96 251.869 329.1C253.489 327.18 255.319 325.74 257.359 324.78C259.399 323.76 261.559 323.25 263.839 323.25ZM293.515 363.75V326.85L288.115 325.5V324.6H300.715V330C301.315 328.8 302.125 327.69 303.145 326.67C303.985 325.83 305.065 325.05 306.385 324.33C307.705 323.61 309.265 323.25 311.065 323.25C313.345 323.25 315.205 323.67 316.645 324.51C318.145 325.35 319.345 326.28 320.245 327.3C321.325 328.5 322.165 329.85 322.765 331.35C323.545 329.85 324.475 328.5 325.555 327.3C326.515 326.28 327.685 325.35 329.065 324.51C330.445 323.67 332.095 323.25 334.015 323.25C335.815 323.25 337.465 323.58 338.965 324.24C340.525 324.9 341.875 325.83 343.015 327.03C344.155 328.17 345.025 329.58 345.625 331.26C346.285 332.88 346.615 334.71 346.615 336.75V363.75L352.015 365.1V366H334.465V365.1L339.415 363.75V336.75C339.415 332.49 338.725 329.49 337.345 327.75C336.025 325.95 334.465 325.05 332.665 325.05C331.165 325.05 329.875 325.47 328.795 326.31C327.715 327.15 326.785 328.08 326.005 329.1C325.105 330.3 324.325 331.65 323.665 333.15V363.75L328.615 365.1V366H311.515V365.1L316.465 363.75V336.75C316.465 332.49 315.775 329.49 314.395 327.75C313.075 325.95 311.515 325.05 309.715 325.05C308.215 325.05 306.925 325.47 305.845 326.31C304.765 327.15 303.835 328.08 303.055 329.1C302.155 330.3 301.375 331.65 300.715 333.15V363.75L305.665 365.1V366H288.115V365.1L293.515 363.75ZM366.373 345.3C366.373 349.14 366.643 352.35 367.183 354.93C367.783 357.51 368.533 359.61 369.433 361.23C370.393 362.79 371.443 363.9 372.583 364.56C373.783 365.22 375.013 365.55 376.273 365.55C377.833 365.55 379.303 365.25 380.683 364.65C382.063 364.05 383.293 363.24 384.373 362.22C385.453 361.2 386.323 359.97 386.983 358.53C387.703 357.09 388.183 355.53 388.423 353.85H389.773C389.533 355.77 388.993 357.57 388.153 359.25C387.373 360.87 386.353 362.28 385.093 363.48C383.833 364.68 382.363 365.61 380.683 366.27C379.063 366.99 377.293 367.35 375.373 367.35C373.093 367.35 370.933 366.87 368.893 365.91C366.853 364.89 365.023 363.45 363.403 361.59C361.843 359.67 360.583 357.36 359.623 354.66C358.723 351.9 358.273 348.78 358.273 345.3C358.273 341.7 358.723 338.52 359.623 335.76C360.523 333 361.693 330.72 363.133 328.92C364.633 327.06 366.343 325.65 368.263 324.69C370.243 323.73 372.313 323.25 374.473 323.25C376.633 323.25 378.673 323.73 380.593 324.69C382.573 325.65 384.283 327.06 385.723 328.92C387.223 330.72 388.423 333 389.323 335.76C390.223 338.52 390.673 341.7 390.673 345.3H366.373ZM374.473 324.6C373.573 324.6 372.673 324.9 371.773 325.5C370.873 326.04 370.033 327.03 369.253 328.47C368.473 329.91 367.813 331.86 367.273 334.32C366.793 336.72 366.493 339.78 366.373 343.5H382.573C382.453 339.78 382.123 336.72 381.583 334.32C381.103 331.86 380.473 329.91 379.693 328.47C378.913 327.03 378.073 326.04 377.173 325.5C376.273 324.9 375.373 324.6 374.473 324.6ZM413.651 367.35C411.731 367.35 410.081 367.11 408.701 366.63C407.321 366.21 406.211 365.7 405.371 365.1C404.351 364.44 403.511 363.69 402.851 362.85C402.611 363.75 402.101 364.59 401.321 365.37C400.601 366.15 399.911 366.66 399.251 366.9H397.901C397.961 366.12 398.021 365.31 398.081 364.47C398.141 363.75 398.201 363 398.261 362.22C398.321 361.38 398.351 360.54 398.351 359.7C398.351 358.8 398.321 357.9 398.261 357C398.201 356.1 398.141 355.29 398.081 354.57C398.021 353.73 397.961 352.89 397.901 352.05H399.251C400.391 356.37 402.131 359.7 404.471 362.04C406.811 364.38 409.571 365.55 412.751 365.55C415.271 365.55 417.311 364.77 418.871 363.21C420.491 361.65 421.301 359.73 421.301 357.45C421.301 355.83 420.731 354.42 419.591 353.22C418.511 352.02 417.131 350.94 415.451 349.98C413.771 348.96 411.971 347.97 410.051 347.01C408.131 346.05 406.331 344.97 404.651 343.77C402.971 342.57 401.561 341.16 400.421 339.54C399.341 337.92 398.801 335.94 398.801 333.6C398.801 332.28 399.101 330.99 399.701 329.73C400.301 328.47 401.111 327.36 402.131 326.4C403.211 325.44 404.501 324.69 406.001 324.15C407.501 323.55 409.151 323.25 410.951 323.25C412.511 323.25 413.861 323.49 415.001 323.97C416.201 324.45 417.221 324.96 418.061 325.5C418.961 326.16 419.741 326.91 420.401 327.75C420.641 326.85 421.121 326.01 421.841 325.23C422.621 324.45 423.341 323.94 424.001 323.7H425.351C425.231 324.48 425.141 325.29 425.081 326.13C425.021 326.85 424.961 327.63 424.901 328.47C424.901 329.31 424.901 330.12 424.901 330.9C424.901 331.8 424.901 332.73 424.901 333.69C424.961 334.59 425.021 335.4 425.081 336.12C425.141 336.96 425.231 337.77 425.351 338.55H424.001C422.861 334.23 421.181 330.9 418.961 328.56C416.741 326.22 414.371 325.05 411.851 325.05C409.811 325.05 408.101 325.74 406.721 327.12C405.341 328.44 404.651 330 404.651 331.8C404.651 333.3 405.221 334.59 406.361 335.67C407.501 336.75 408.911 337.77 410.591 338.73C412.271 339.63 414.101 340.56 416.081 341.52C418.121 342.48 419.981 343.59 421.661 344.85C423.341 346.11 424.751 347.61 425.891 349.35C427.031 351.09 427.601 353.19 427.601 355.65C427.601 357.09 427.241 358.53 426.521 359.97C425.861 361.35 424.901 362.61 423.641 363.75C422.441 364.83 420.971 365.7 419.231 366.36C417.551 367.02 415.691 367.35 413.651 367.35ZM460.946 363.75V326.85L455.546 325.5V324.6H468.146V363.75L473.546 365.1V366H455.546V365.1L460.946 363.75ZM468.596 314.25C468.596 315.39 468.116 316.44 467.156 317.4C466.256 318.3 465.236 318.75 464.096 318.75C462.956 318.75 461.906 318.3 460.946 317.4C460.046 316.44 459.596 315.39 459.596 314.25C459.596 313.11 460.046 312.09 460.946 311.19C461.906 310.23 462.956 309.75 464.096 309.75C465.236 309.75 466.256 310.23 467.156 311.19C468.116 312.09 468.596 313.11 468.596 314.25ZM484.325 363.75V326.85L478.925 325.5V324.6H491.525V330C492.125 328.8 492.935 327.69 493.955 326.67C494.795 325.83 495.875 325.05 497.195 324.33C498.515 323.61 500.075 323.25 501.875 323.25C504.155 323.25 506.015 323.67 507.455 324.51C508.955 325.35 510.155 326.28 511.055 327.3C512.135 328.5 512.975 329.85 513.575 331.35C514.355 329.85 515.285 328.5 516.365 327.3C517.325 326.28 518.495 325.35 519.875 324.51C521.255 323.67 522.905 323.25 524.825 323.25C526.625 323.25 528.275 323.58 529.775 324.24C531.335 324.9 532.685 325.83 533.825 327.03C534.965 328.17 535.835 329.58 536.435 331.26C537.095 332.88 537.425 334.71 537.425 336.75V363.75L542.825 365.1V366H525.275V365.1L530.225 363.75V336.75C530.225 332.49 529.535 329.49 528.155 327.75C526.835 325.95 525.275 325.05 523.475 325.05C521.975 325.05 520.685 325.47 519.605 326.31C518.525 327.15 517.595 328.08 516.815 329.1C515.915 330.3 515.135 331.65 514.475 333.15V363.75L519.425 365.1V366H502.325V365.1L507.275 363.75V336.75C507.275 332.49 506.585 329.49 505.205 327.75C503.885 325.95 502.325 325.05 500.525 325.05C499.025 325.05 497.735 325.47 496.655 326.31C495.575 327.15 494.645 328.08 493.865 329.1C492.965 330.3 492.185 331.65 491.525 333.15V363.75L496.475 365.1V366H478.925V365.1L484.325 363.75ZM552.683 326.85L547.283 325.5V324.6H559.883V330C560.483 328.8 561.293 327.69 562.313 326.67C563.153 325.83 564.233 325.05 565.553 324.33C566.873 323.61 568.433 323.25 570.233 323.25C572.153 323.25 574.043 323.76 575.903 324.78C577.823 325.74 579.503 327.18 580.943 329.1C582.443 330.96 583.643 333.27 584.543 336.03C585.503 338.73 585.983 341.82 585.983 345.3C585.983 348.78 585.503 351.9 584.543 354.66C583.643 357.36 582.413 359.67 580.853 361.59C579.293 363.45 577.523 364.89 575.543 365.91C573.563 366.87 571.493 367.35 569.333 367.35C567.593 367.35 566.123 367.11 564.923 366.63C563.783 366.21 562.823 365.7 562.043 365.1C561.143 364.44 560.423 363.69 559.883 362.85V385.35L565.283 386.7V387.6H547.283V386.7L552.683 385.35V326.85ZM567.983 365.55C569.243 365.55 570.443 365.22 571.583 364.56C572.783 363.9 573.833 362.79 574.733 361.23C575.693 359.61 576.443 357.51 576.983 354.93C577.583 352.35 577.883 349.14 577.883 345.3C577.883 341.46 577.583 338.25 576.983 335.67C576.443 333.09 575.723 331.02 574.823 329.46C573.983 327.9 573.023 326.79 571.943 326.13C570.923 325.41 569.903 325.05 568.883 325.05C567.383 325.05 566.093 325.47 565.013 326.31C563.933 327.15 563.003 328.08 562.223 329.1C561.323 330.3 560.543 331.65 559.883 333.15V360.15C560.423 361.17 561.083 362.07 561.863 362.85C562.523 363.51 563.363 364.14 564.383 364.74C565.403 365.28 566.603 365.55 567.983 365.55ZM611.183 324.6C610.163 324.6 609.113 324.96 608.033 325.68C607.013 326.34 606.053 327.48 605.153 329.1C604.313 330.66 603.593 332.76 602.993 335.4C602.453 338.04 602.183 341.34 602.183 345.3C602.183 349.26 602.453 352.56 602.993 355.2C603.593 357.84 604.313 359.97 605.153 361.59C606.053 363.15 607.013 364.29 608.033 365.01C609.113 365.67 610.163 366 611.183 366C612.203 366 613.223 365.67 614.243 365.01C615.323 364.29 616.283 363.15 617.123 361.59C618.023 359.97 618.743 357.84 619.283 355.2C619.883 352.56 620.183 349.26 620.183 345.3C620.183 341.34 619.883 338.04 619.283 335.4C618.743 332.76 618.023 330.66 617.123 329.1C616.283 327.48 615.323 326.34 614.243 325.68C613.223 324.96 612.203 324.6 611.183 324.6ZM611.183 323.25C613.403 323.25 615.533 323.76 617.573 324.78C619.673 325.74 621.503 327.18 623.063 329.1C624.683 330.96 625.943 333.27 626.843 336.03C627.803 338.73 628.283 341.82 628.283 345.3C628.283 348.78 627.803 351.9 626.843 354.66C625.943 357.36 624.683 359.67 623.063 361.59C621.503 363.45 619.673 364.89 617.573 365.91C615.533 366.87 613.403 367.35 611.183 367.35C608.903 367.35 606.743 366.87 604.703 365.91C602.663 364.89 600.833 363.45 599.213 361.59C597.653 359.67 596.393 357.36 595.433 354.66C594.533 351.9 594.083 348.78 594.083 345.3C594.083 341.82 594.533 338.73 595.433 336.03C596.393 333.27 597.653 330.96 599.213 329.1C600.833 327.18 602.663 325.74 604.703 324.78C606.743 323.76 608.903 323.25 611.183 323.25ZM648.059 363.75L653.459 365.1V366H635.459V365.1L640.859 363.75V326.85L635.459 325.5V324.6H648.059V335.4C648.839 333.18 649.769 331.17 650.849 329.37C651.809 327.81 652.979 326.4 654.359 325.14C655.739 323.88 657.389 323.25 659.309 323.25C659.969 323.25 660.599 323.31 661.199 323.43C661.799 323.49 662.339 323.58 662.819 323.7C663.359 323.88 663.839 324.03 664.259 324.15L661.559 330.9C661.199 330.72 660.809 330.51 660.389 330.27C660.029 330.09 659.579 329.94 659.039 329.82C658.559 329.64 658.049 329.55 657.509 329.55C655.949 329.55 654.569 329.97 653.369 330.81C652.169 331.65 651.179 332.58 650.399 333.6C649.439 334.8 648.659 336.15 648.059 337.65V363.75ZM690.84 324.6V326.4H680.49V355.11C680.49 358.77 681.15 361.44 682.47 363.12C683.79 364.74 685.23 365.55 686.79 365.55C688.83 365.55 690.54 364.8 691.92 363.3C693.36 361.74 694.2 359.49 694.44 356.55H695.79C695.55 359.97 694.5 362.64 692.64 364.56C690.84 366.42 688.59 367.35 685.89 367.35C682.05 367.35 678.99 366.24 676.71 364.02C674.43 361.74 673.29 358.8 673.29 355.2V326.4H665.64V324.6H673.29V314.25L680.49 309.3V324.6H690.84ZM723.732 343.95C718.512 343.95 714.642 345.12 712.122 347.46C709.662 349.74 708.432 352.92 708.432 357C708.432 359.7 709.092 361.8 710.412 363.3C711.732 364.8 713.172 365.55 714.732 365.55C716.172 365.55 717.432 365.13 718.512 364.29C719.652 363.45 720.612 362.52 721.392 361.5C722.292 360.36 723.072 359.01 723.732 357.45V343.95ZM716.982 324.6C715.182 324.6 713.682 325.23 712.482 326.49C711.282 327.69 710.682 329.31 710.682 331.35C710.682 331.83 710.682 332.25 710.682 332.61C710.742 332.97 710.802 333.3 710.862 333.6C710.922 333.9 711.012 334.2 711.132 334.5L703.932 336.3C703.812 336.12 703.722 335.88 703.662 335.58C703.602 335.28 703.542 334.95 703.482 334.59C703.482 334.23 703.482 333.75 703.482 333.15C703.482 331.89 703.782 330.69 704.382 329.55C704.982 328.35 705.852 327.3 706.992 326.4C708.192 325.44 709.602 324.69 711.222 324.15C712.902 323.55 714.822 323.25 716.982 323.25C721.302 323.25 724.692 324.48 727.152 326.94C729.672 329.4 730.932 332.67 730.932 336.75V363.75L736.332 365.1V366H723.732V360.6C723.072 361.86 722.232 363 721.212 364.02C720.372 364.86 719.292 365.61 717.972 366.27C716.712 366.99 715.182 367.35 713.382 367.35C709.062 367.35 705.792 366.33 703.572 364.29C701.412 362.25 700.332 359.52 700.332 356.1C700.332 354.42 700.782 352.74 701.682 351.06C702.642 349.38 704.052 347.88 705.912 346.56C707.832 345.24 710.262 344.19 713.202 343.41C716.142 342.57 719.652 342.15 723.732 342.15V336.75C723.732 332.25 723.042 329.1 721.662 327.3C720.342 325.5 718.782 324.6 716.982 324.6ZM747.118 363.75V326.85L741.718 325.5V324.6H754.318V330C754.918 328.8 755.728 327.69 756.748 326.67C757.588 325.83 758.668 325.05 759.988 324.33C761.308 323.61 762.868 323.25 764.668 323.25C766.948 323.25 768.808 323.67 770.248 324.51C771.748 325.35 772.948 326.28 773.848 327.3C774.928 328.5 775.768 329.85 776.368 331.35C777.148 329.85 778.078 328.5 779.158 327.3C780.118 326.28 781.288 325.35 782.668 324.51C784.048 323.67 785.698 323.25 787.618 323.25C789.418 323.25 791.068 323.58 792.568 324.24C794.128 324.9 795.478 325.83 796.618 327.03C797.758 328.17 798.628 329.58 799.228 331.26C799.888 332.88 800.218 334.71 800.218 336.75V363.75L805.618 365.1V366H788.068V365.1L793.018 363.75V336.75C793.018 332.49 792.328 329.49 790.948 327.75C789.628 325.95 788.068 325.05 786.268 325.05C784.768 325.05 783.478 325.47 782.398 326.31C781.318 327.15 780.388 328.08 779.608 329.1C778.708 330.3 777.928 331.65 777.268 333.15V363.75L782.218 365.1V366H765.118V365.1L770.068 363.75V336.75C770.068 332.49 769.378 329.49 767.998 327.75C766.678 325.95 765.118 325.05 763.318 325.05C761.818 325.05 760.528 325.47 759.448 326.31C758.368 327.15 757.438 328.08 756.658 329.1C755.758 330.3 754.978 331.65 754.318 333.15V363.75L759.268 365.1V366H741.718V365.1L747.118 363.75ZM837.097 326.85L831.697 325.5V324.6H844.297V330C844.897 328.8 845.707 327.69 846.727 326.67C847.567 325.83 848.647 325.05 849.967 324.33C851.287 323.61 852.847 323.25 854.647 323.25C856.567 323.25 858.457 323.76 860.317 324.78C862.237 325.74 863.917 327.18 865.357 329.1C866.857 330.96 868.057 333.27 868.957 336.03C869.917 338.73 870.397 341.82 870.397 345.3C870.397 348.78 869.917 351.9 868.957 354.66C868.057 357.36 866.827 359.67 865.267 361.59C863.707 363.45 861.937 364.89 859.957 365.91C857.977 366.87 855.907 367.35 853.747 367.35C852.007 367.35 850.537 367.11 849.337 366.63C848.197 366.21 847.237 365.7 846.457 365.1C845.557 364.44 844.837 363.69 844.297 362.85V385.35L849.697 386.7V387.6H831.697V386.7L837.097 385.35V326.85ZM852.397 365.55C853.657 365.55 854.857 365.22 855.997 364.56C857.197 363.9 858.247 362.79 859.147 361.23C860.107 359.61 860.857 357.51 861.397 354.93C861.997 352.35 862.297 349.14 862.297 345.3C862.297 341.46 861.997 338.25 861.397 335.67C860.857 333.09 860.137 331.02 859.237 329.46C858.397 327.9 857.437 326.79 856.357 326.13C855.337 325.41 854.317 325.05 853.297 325.05C851.797 325.05 850.507 325.47 849.427 326.31C848.347 327.15 847.417 328.08 846.637 329.1C845.737 330.3 844.957 331.65 844.297 333.15V360.15C844.837 361.17 845.497 362.07 846.277 362.85C846.937 363.51 847.777 364.14 848.797 364.74C849.817 365.28 851.017 365.55 852.397 365.55ZM895.597 324.6C894.577 324.6 893.527 324.96 892.447 325.68C891.427 326.34 890.467 327.48 889.567 329.1C888.727 330.66 888.007 332.76 887.407 335.4C886.867 338.04 886.597 341.34 886.597 345.3C886.597 349.26 886.867 352.56 887.407 355.2C888.007 357.84 888.727 359.97 889.567 361.59C890.467 363.15 891.427 364.29 892.447 365.01C893.527 365.67 894.577 366 895.597 366C896.617 366 897.637 365.67 898.657 365.01C899.737 364.29 900.697 363.15 901.537 361.59C902.437 359.97 903.157 357.84 903.697 355.2C904.297 352.56 904.597 349.26 904.597 345.3C904.597 341.34 904.297 338.04 903.697 335.4C903.157 332.76 902.437 330.66 901.537 329.1C900.697 327.48 899.737 326.34 898.657 325.68C897.637 324.96 896.617 324.6 895.597 324.6ZM895.597 323.25C897.817 323.25 899.947 323.76 901.987 324.78C904.087 325.74 905.917 327.18 907.477 329.1C909.097 330.96 910.357 333.27 911.257 336.03C912.217 338.73 912.697 341.82 912.697 345.3C912.697 348.78 912.217 351.9 911.257 354.66C910.357 357.36 909.097 359.67 907.477 361.59C905.917 363.45 904.087 364.89 901.987 365.91C899.947 366.87 897.817 367.35 895.597 367.35C893.317 367.35 891.157 366.87 889.117 365.91C887.077 364.89 885.247 363.45 883.627 361.59C882.067 359.67 880.807 357.36 879.847 354.66C878.947 351.9 878.497 348.78 878.497 345.3C878.497 341.82 878.947 338.73 879.847 336.03C880.807 333.27 882.067 330.96 883.627 329.1C885.247 327.18 887.077 325.74 889.117 324.78C891.157 323.76 893.317 323.25 895.597 323.25ZM953.623 326.85V363.75L959.023 365.1V366H946.423V360.6C945.763 361.86 944.923 363 943.903 364.02C943.063 364.86 941.983 365.61 940.663 366.27C939.403 366.99 937.873 367.35 936.073 367.35C934.273 367.35 932.593 367.02 931.033 366.36C929.533 365.7 928.213 364.8 927.073 363.66C925.933 362.46 925.033 361.05 924.373 359.43C923.773 357.75 923.473 355.89 923.473 353.85V326.85L918.073 325.5V324.6H935.623V325.5L930.673 326.85V353.85C930.673 358.11 931.333 361.14 932.653 362.94C934.033 364.68 935.623 365.55 937.423 365.55C938.863 365.55 940.123 365.13 941.203 364.29C942.343 363.45 943.303 362.52 944.083 361.5C944.983 360.36 945.763 359.01 946.423 357.45V326.85L941.473 325.5V324.6H959.023V325.5L953.623 326.85ZM983.762 325.05C982.622 325.05 981.482 325.41 980.342 326.13C979.262 326.79 978.272 327.9 977.372 329.46C976.472 331.02 975.722 333.09 975.122 335.67C974.582 338.25 974.312 341.46 974.312 345.3C974.312 349.14 974.582 352.35 975.122 354.93C975.722 357.51 976.502 359.61 977.462 361.23C978.422 362.79 979.502 363.9 980.702 364.56C981.962 365.22 983.282 365.55 984.662 365.55C986.222 365.55 987.692 365.25 989.072 364.65C990.452 364.05 991.682 363.24 992.762 362.22C993.842 361.2 994.712 359.97 995.372 358.53C996.092 357.09 996.572 355.53 996.812 353.85H998.162C997.922 355.77 997.382 357.57 996.542 359.25C995.762 360.87 994.742 362.28 993.482 363.48C992.222 364.68 990.752 365.61 989.072 366.27C987.452 366.99 985.682 367.35 983.762 367.35C981.422 367.35 979.172 366.87 977.012 365.91C974.912 364.89 973.052 363.45 971.432 361.59C969.812 359.67 968.522 357.36 967.562 354.66C966.662 351.9 966.212 348.78 966.212 345.3C966.212 341.82 966.662 338.73 967.562 336.03C968.522 333.27 969.782 330.96 971.342 329.1C972.902 327.18 974.672 325.74 976.652 324.78C978.632 323.76 980.702 323.25 982.862 323.25C984.302 323.25 985.562 323.49 986.642 323.97C987.782 324.45 988.742 324.96 989.522 325.5C990.422 326.16 991.202 326.91 991.862 327.75C992.102 326.85 992.582 326.01 993.302 325.23C994.082 324.45 994.802 323.94 995.462 323.7H996.812C996.692 324.48 996.602 325.29 996.542 326.13C996.482 326.85 996.422 327.63 996.362 328.47C996.362 329.31 996.362 330.12 996.362 330.9C996.362 331.8 996.362 332.73 996.362 333.69C996.422 334.59 996.482 335.4 996.542 336.12C996.602 336.96 996.692 337.77 996.812 338.55H995.462C994.322 334.23 992.642 330.9 990.422 328.56C988.262 326.22 986.042 325.05 983.762 325.05ZM1021.98 324.6C1020.96 324.6 1019.91 324.96 1018.83 325.68C1017.81 326.34 1016.85 327.48 1015.95 329.1C1015.11 330.66 1014.39 332.76 1013.79 335.4C1013.25 338.04 1012.98 341.34 1012.98 345.3C1012.98 349.26 1013.25 352.56 1013.79 355.2C1014.39 357.84 1015.11 359.97 1015.95 361.59C1016.85 363.15 1017.81 364.29 1018.83 365.01C1019.91 365.67 1020.96 366 1021.98 366C1023 366 1024.02 365.67 1025.04 365.01C1026.12 364.29 1027.08 363.15 1027.92 361.59C1028.82 359.97 1029.54 357.84 1030.08 355.2C1030.68 352.56 1030.98 349.26 1030.98 345.3C1030.98 341.34 1030.68 338.04 1030.08 335.4C1029.54 332.76 1028.82 330.66 1027.92 329.1C1027.08 327.48 1026.12 326.34 1025.04 325.68C1024.02 324.96 1023 324.6 1021.98 324.6ZM1021.98 323.25C1024.2 323.25 1026.33 323.76 1028.37 324.78C1030.47 325.74 1032.3 327.18 1033.86 329.1C1035.48 330.96 1036.74 333.27 1037.64 336.03C1038.6 338.73 1039.08 341.82 1039.08 345.3C1039.08 348.78 1038.6 351.9 1037.64 354.66C1036.74 357.36 1035.48 359.67 1033.86 361.59C1032.3 363.45 1030.47 364.89 1028.37 365.91C1026.33 366.87 1024.2 367.35 1021.98 367.35C1019.7 367.35 1017.54 366.87 1015.5 365.91C1013.46 364.89 1011.63 363.45 1010.01 361.59C1008.45 359.67 1007.19 357.36 1006.23 354.66C1005.33 351.9 1004.88 348.78 1004.88 345.3C1004.88 341.82 1005.33 338.73 1006.23 336.03C1007.19 333.27 1008.45 330.96 1010.01 329.1C1011.63 327.18 1013.46 325.74 1015.5 324.78C1017.54 323.76 1019.7 323.25 1021.98 323.25ZM1051.66 357C1053.04 357 1054.21 357.54 1055.17 358.62C1056.13 359.64 1056.61 361.05 1056.61 362.85C1056.61 365.49 1056.19 367.62 1055.35 369.24C1054.57 370.86 1053.7 372.15 1052.74 373.11C1051.66 374.19 1050.4 375 1048.96 375.54L1048.06 374.1C1049.08 373.62 1049.98 373.05 1050.76 372.39C1051.42 371.85 1052.02 371.16 1052.56 370.32C1053.16 369.48 1053.46 368.49 1053.46 367.35C1053.46 367.11 1053.43 366.9 1053.37 366.72C1053.31 366.6 1053.25 366.48 1053.19 366.36L1053.01 366C1052.89 366.12 1052.71 366.21 1052.47 366.27C1051.99 366.39 1051.57 366.45 1051.21 366.45C1049.83 366.45 1048.72 366.06 1047.88 365.28C1047.1 364.44 1046.71 363.33 1046.71 361.95C1046.71 360.57 1047.19 359.4 1048.15 358.44C1049.11 357.48 1050.28 357 1051.66 357ZM1094.02 345.3C1094.02 349.14 1094.29 352.35 1094.83 354.93C1095.43 357.51 1096.18 359.61 1097.08 361.23C1098.04 362.79 1099.09 363.9 1100.23 364.56C1101.43 365.22 1102.66 365.55 1103.92 365.55C1105.48 365.55 1106.95 365.25 1108.33 364.65C1109.71 364.05 1110.94 363.24 1112.02 362.22C1113.1 361.2 1113.97 359.97 1114.63 358.53C1115.35 357.09 1115.83 355.53 1116.07 353.85H1117.42C1117.18 355.77 1116.64 357.57 1115.8 359.25C1115.02 360.87 1114 362.28 1112.74 363.48C1111.48 364.68 1110.01 365.61 1108.33 366.27C1106.71 366.99 1104.94 367.35 1103.02 367.35C1100.74 367.35 1098.58 366.87 1096.54 365.91C1094.5 364.89 1092.67 363.45 1091.05 361.59C1089.49 359.67 1088.23 357.36 1087.27 354.66C1086.37 351.9 1085.92 348.78 1085.92 345.3C1085.92 341.7 1086.37 338.52 1087.27 335.76C1088.17 333 1089.34 330.72 1090.78 328.92C1092.28 327.06 1093.99 325.65 1095.91 324.69C1097.89 323.73 1099.96 323.25 1102.12 323.25C1104.28 323.25 1106.32 323.73 1108.24 324.69C1110.22 325.65 1111.93 327.06 1113.37 328.92C1114.87 330.72 1116.07 333 1116.97 335.76C1117.87 338.52 1118.32 341.7 1118.32 345.3H1094.02ZM1102.12 324.6C1101.22 324.6 1100.32 324.9 1099.42 325.5C1098.52 326.04 1097.68 327.03 1096.9 328.47C1096.12 329.91 1095.46 331.86 1094.92 334.32C1094.44 336.72 1094.14 339.78 1094.02 343.5H1110.22C1110.1 339.78 1109.77 336.72 1109.23 334.32C1108.75 331.86 1108.12 329.91 1107.34 328.47C1106.56 327.03 1105.72 326.04 1104.82 325.5C1103.92 324.9 1103.02 324.6 1102.12 324.6ZM122.1 424.6V426.4H111.75V455.11C111.75 458.77 112.41 461.44 113.73 463.12C115.05 464.74 116.49 465.55 118.05 465.55C120.09 465.55 121.8 464.8 123.18 463.3C124.62 461.74 125.46 459.49 125.7 456.55H127.05C126.81 459.97 125.76 462.64 123.9 464.56C122.1 466.42 119.85 467.35 117.15 467.35C113.31 467.35 110.25 466.24 107.97 464.02C105.69 461.74 104.55 458.8 104.55 455.2V426.4H96.9V424.6H104.55V414.25L111.75 409.3V424.6H122.1ZM154.992 443.95C149.772 443.95 145.902 445.12 143.382 447.46C140.922 449.74 139.692 452.92 139.692 457C139.692 459.7 140.352 461.8 141.672 463.3C142.992 464.8 144.432 465.55 145.992 465.55C147.432 465.55 148.692 465.13 149.772 464.29C150.912 463.45 151.872 462.52 152.652 461.5C153.552 460.36 154.332 459.01 154.992 457.45V443.95ZM148.242 424.6C146.442 424.6 144.942 425.23 143.742 426.49C142.542 427.69 141.942 429.31 141.942 431.35C141.942 431.83 141.942 432.25 141.942 432.61C142.002 432.97 142.062 433.3 142.122 433.6C142.182 433.9 142.272 434.2 142.392 434.5L135.192 436.3C135.072 436.12 134.982 435.88 134.922 435.58C134.862 435.28 134.802 434.95 134.742 434.59C134.742 434.23 134.742 433.75 134.742 433.15C134.742 431.89 135.042 430.69 135.642 429.55C136.242 428.35 137.112 427.3 138.252 426.4C139.452 425.44 140.862 424.69 142.482 424.15C144.162 423.55 146.082 423.25 148.242 423.25C152.562 423.25 155.952 424.48 158.412 426.94C160.932 429.4 162.192 432.67 162.192 436.75V463.75L167.592 465.1V466H154.992V460.6C154.332 461.86 153.492 463 152.472 464.02C151.632 464.86 150.552 465.61 149.232 466.27C147.972 466.99 146.442 467.35 144.642 467.35C140.322 467.35 137.052 466.33 134.832 464.29C132.672 462.25 131.592 459.52 131.592 456.1C131.592 454.42 132.042 452.74 132.942 451.06C133.902 449.38 135.312 447.88 137.172 446.56C139.092 445.24 141.522 444.19 144.462 443.41C147.402 442.57 150.912 442.15 154.992 442.15V436.75C154.992 432.25 154.302 429.1 152.922 427.3C151.602 425.5 150.042 424.6 148.242 424.6ZM177.049 463.75V405.25L171.649 403.9V403H184.249V463.75L189.649 465.1V466H171.649V465.1L177.049 463.75ZM196.389 426.85L190.989 425.5V424.6H208.989V425.5L204.039 426.85L215.379 456.1L224.739 427.75L218.889 425.5V424.6H232.389V425.5L226.539 427.75L213.489 467.35H212.139L196.389 426.85ZM242.271 445.3C242.271 449.14 242.541 452.35 243.081 454.93C243.681 457.51 244.431 459.61 245.331 461.23C246.291 462.79 247.341 463.9 248.481 464.56C249.681 465.22 250.911 465.55 252.171 465.55C253.731 465.55 255.201 465.25 256.581 464.65C257.961 464.05 259.191 463.24 260.271 462.22C261.351 461.2 262.221 459.97 262.881 458.53C263.601 457.09 264.081 455.53 264.321 453.85H265.671C265.431 455.77 264.891 457.57 264.051 459.25C263.271 460.87 262.251 462.28 260.991 463.48C259.731 464.68 258.261 465.61 256.581 466.27C254.961 466.99 253.191 467.35 251.271 467.35C248.991 467.35 246.831 466.87 244.791 465.91C242.751 464.89 240.921 463.45 239.301 461.59C237.741 459.67 236.481 457.36 235.521 454.66C234.621 451.9 234.171 448.78 234.171 445.3C234.171 441.7 234.621 438.52 235.521 435.76C236.421 433 237.591 430.72 239.031 428.92C240.531 427.06 242.241 425.65 244.161 424.69C246.141 423.73 248.211 423.25 250.371 423.25C252.531 423.25 254.571 423.73 256.491 424.69C258.471 425.65 260.181 427.06 261.621 428.92C263.121 430.72 264.321 433 265.221 435.76C266.121 438.52 266.571 441.7 266.571 445.3H242.271ZM250.371 424.6C249.471 424.6 248.571 424.9 247.671 425.5C246.771 426.04 245.931 427.03 245.151 428.47C244.371 429.91 243.711 431.86 243.171 434.32C242.691 436.72 242.391 439.78 242.271 443.5H258.471C258.351 439.78 258.021 436.72 257.481 434.32C257.001 431.86 256.371 429.91 255.591 428.47C254.811 427.03 253.971 426.04 253.071 425.5C252.171 424.9 251.271 424.6 250.371 424.6ZM298.999 464.2C298.999 461.68 299.509 459.46 300.529 457.54C301.549 455.56 302.839 453.88 304.399 452.5H305.299C305.179 453.28 305.089 454.06 305.029 454.84C304.969 455.5 304.909 456.25 304.849 457.09C304.849 457.87 304.849 458.59 304.849 459.25C304.849 460.27 304.849 461.2 304.849 462.04C304.909 462.82 304.969 463.51 305.029 464.11C305.089 464.77 305.179 465.4 305.299 466H273.349L295.849 426.4H281.449C281.449 428.92 280.939 431.17 279.919 433.15C278.899 435.07 277.609 436.72 276.049 438.1H275.149C275.209 437.32 275.269 436.54 275.329 435.76C275.389 435.1 275.449 434.38 275.509 433.6C275.569 432.76 275.599 432.01 275.599 431.35C275.599 430.33 275.569 429.43 275.509 428.65C275.449 427.81 275.389 427.09 275.329 426.49C275.269 425.83 275.209 425.2 275.149 424.6H305.299L282.799 464.2H298.999ZM351.642 424.6C350.622 424.6 349.572 424.96 348.492 425.68C347.472 426.34 346.512 427.48 345.612 429.1C344.772 430.66 344.052 432.76 343.452 435.4C342.912 438.04 342.642 441.34 342.642 445.3C342.642 449.26 342.912 452.56 343.452 455.2C344.052 457.84 344.772 459.97 345.612 461.59C346.512 463.15 347.472 464.29 348.492 465.01C349.572 465.67 350.622 466 351.642 466C352.662 466 353.682 465.67 354.702 465.01C355.782 464.29 356.742 463.15 357.582 461.59C358.482 459.97 359.202 457.84 359.742 455.2C360.342 452.56 360.642 449.26 360.642 445.3C360.642 441.34 360.342 438.04 359.742 435.4C359.202 432.76 358.482 430.66 357.582 429.1C356.742 427.48 355.782 426.34 354.702 425.68C353.682 424.96 352.662 424.6 351.642 424.6ZM351.642 423.25C353.862 423.25 355.992 423.76 358.032 424.78C360.132 425.74 361.962 427.18 363.522 429.1C365.142 430.96 366.402 433.27 367.302 436.03C368.262 438.73 368.742 441.82 368.742 445.3C368.742 448.78 368.262 451.9 367.302 454.66C366.402 457.36 365.142 459.67 363.522 461.59C361.962 463.45 360.132 464.89 358.032 465.91C355.992 466.87 353.862 467.35 351.642 467.35C349.362 467.35 347.202 466.87 345.162 465.91C343.122 464.89 341.292 463.45 339.672 461.59C338.112 459.67 336.852 457.36 335.892 454.66C334.992 451.9 334.542 448.78 334.542 445.3C334.542 441.82 334.992 438.73 335.892 436.03C336.852 433.27 338.112 430.96 339.672 429.1C341.292 427.18 343.122 425.74 345.162 424.78C347.202 423.76 349.362 423.25 351.642 423.25ZM402.939 463.75V426.85L397.539 425.5V424.6H410.139V430C410.739 428.8 411.549 427.69 412.569 426.67C413.409 425.83 414.489 425.05 415.809 424.33C417.129 423.61 418.689 423.25 420.489 423.25C422.769 423.25 424.629 423.67 426.069 424.51C427.569 425.35 428.769 426.28 429.669 427.3C430.749 428.5 431.589 429.85 432.189 431.35C432.969 429.85 433.899 428.5 434.979 427.3C435.939 426.28 437.109 425.35 438.489 424.51C439.869 423.67 441.519 423.25 443.439 423.25C445.239 423.25 446.889 423.58 448.389 424.24C449.949 424.9 451.299 425.83 452.439 427.03C453.579 428.17 454.449 429.58 455.049 431.26C455.709 432.88 456.039 434.71 456.039 436.75V463.75L461.439 465.1V466H443.889V465.1L448.839 463.75V436.75C448.839 432.49 448.149 429.49 446.769 427.75C445.449 425.95 443.889 425.05 442.089 425.05C440.589 425.05 439.299 425.47 438.219 426.31C437.139 427.15 436.209 428.08 435.429 429.1C434.529 430.3 433.749 431.65 433.089 433.15V463.75L438.039 465.1V466H420.939V465.1L425.889 463.75V436.75C425.889 432.49 425.199 429.49 423.819 427.75C422.499 425.95 420.939 425.05 419.139 425.05C417.639 425.05 416.349 425.47 415.269 426.31C414.189 427.15 413.259 428.08 412.479 429.1C411.579 430.3 410.799 431.65 410.139 433.15V463.75L415.089 465.1V466H397.539V465.1L402.939 463.75ZM475.796 445.3C475.796 449.14 476.066 452.35 476.606 454.93C477.206 457.51 477.956 459.61 478.856 461.23C479.816 462.79 480.866 463.9 482.006 464.56C483.206 465.22 484.436 465.55 485.696 465.55C487.256 465.55 488.726 465.25 490.106 464.65C491.486 464.05 492.716 463.24 493.796 462.22C494.876 461.2 495.746 459.97 496.406 458.53C497.126 457.09 497.606 455.53 497.846 453.85H499.196C498.956 455.77 498.416 457.57 497.576 459.25C496.796 460.87 495.776 462.28 494.516 463.48C493.256 464.68 491.786 465.61 490.106 466.27C488.486 466.99 486.716 467.35 484.796 467.35C482.516 467.35 480.356 466.87 478.316 465.91C476.276 464.89 474.446 463.45 472.826 461.59C471.266 459.67 470.006 457.36 469.046 454.66C468.146 451.9 467.696 448.78 467.696 445.3C467.696 441.7 468.146 438.52 469.046 435.76C469.946 433 471.116 430.72 472.556 428.92C474.056 427.06 475.766 425.65 477.686 424.69C479.666 423.73 481.736 423.25 483.896 423.25C486.056 423.25 488.096 423.73 490.016 424.69C491.996 425.65 493.706 427.06 495.146 428.92C496.646 430.72 497.846 433 498.746 435.76C499.646 438.52 500.096 441.7 500.096 445.3H475.796ZM483.896 424.6C482.996 424.6 482.096 424.9 481.196 425.5C480.296 426.04 479.456 427.03 478.676 428.47C477.896 429.91 477.236 431.86 476.696 434.32C476.216 436.72 475.916 439.78 475.796 443.5H491.996C491.876 439.78 491.546 436.72 491.006 434.32C490.526 431.86 489.896 429.91 489.116 428.47C488.336 427.03 487.496 426.04 486.596 425.5C485.696 424.9 484.796 424.6 483.896 424.6ZM519.475 463.75L524.875 465.1V466H506.875V465.1L512.275 463.75V426.85L506.875 425.5V424.6H519.475V435.4C520.255 433.18 521.185 431.17 522.265 429.37C523.225 427.81 524.395 426.4 525.775 425.14C527.155 423.88 528.805 423.25 530.725 423.25C531.385 423.25 532.015 423.31 532.615 423.43C533.215 423.49 533.755 423.58 534.235 423.7C534.775 423.88 535.255 424.03 535.675 424.15L532.975 430.9C532.615 430.72 532.225 430.51 531.805 430.27C531.445 430.09 530.995 429.94 530.455 429.82C529.975 429.64 529.465 429.55 528.925 429.55C527.365 429.55 525.985 429.97 524.785 430.81C523.585 431.65 522.595 432.58 521.815 433.6C520.855 434.8 520.075 436.15 519.475 437.65V463.75ZM556.877 425.05C555.737 425.05 554.597 425.41 553.457 426.13C552.377 426.79 551.387 427.9 550.487 429.46C549.587 431.02 548.837 433.09 548.237 435.67C547.697 438.25 547.427 441.46 547.427 445.3C547.427 449.14 547.697 452.35 548.237 454.93C548.837 457.51 549.617 459.61 550.577 461.23C551.537 462.79 552.617 463.9 553.817 464.56C555.077 465.22 556.397 465.55 557.777 465.55C559.337 465.55 560.807 465.25 562.187 464.65C563.567 464.05 564.797 463.24 565.877 462.22C566.957 461.2 567.827 459.97 568.487 458.53C569.207 457.09 569.687 455.53 569.927 453.85H571.277C571.037 455.77 570.497 457.57 569.657 459.25C568.877 460.87 567.857 462.28 566.597 463.48C565.337 464.68 563.867 465.61 562.187 466.27C560.567 466.99 558.797 467.35 556.877 467.35C554.537 467.35 552.287 466.87 550.127 465.91C548.027 464.89 546.167 463.45 544.547 461.59C542.927 459.67 541.637 457.36 540.677 454.66C539.777 451.9 539.327 448.78 539.327 445.3C539.327 441.82 539.777 438.73 540.677 436.03C541.637 433.27 542.897 430.96 544.457 429.1C546.017 427.18 547.787 425.74 549.767 424.78C551.747 423.76 553.817 423.25 555.977 423.25C557.417 423.25 558.677 423.49 559.757 423.97C560.897 424.45 561.857 424.96 562.637 425.5C563.537 426.16 564.317 426.91 564.977 427.75C565.217 426.85 565.697 426.01 566.417 425.23C567.197 424.45 567.917 423.94 568.577 423.7H569.927C569.807 424.48 569.717 425.29 569.657 426.13C569.597 426.85 569.537 427.63 569.477 428.47C569.477 429.31 569.477 430.12 569.477 430.9C569.477 431.8 569.477 432.73 569.477 433.69C569.537 434.59 569.597 435.4 569.657 436.12C569.717 436.96 569.807 437.77 569.927 438.55H568.577C567.437 434.23 565.757 430.9 563.537 428.56C561.377 426.22 559.157 425.05 556.877 425.05ZM600.949 443.95C595.729 443.95 591.859 445.12 589.339 447.46C586.879 449.74 585.649 452.92 585.649 457C585.649 459.7 586.309 461.8 587.629 463.3C588.949 464.8 590.389 465.55 591.949 465.55C593.389 465.55 594.649 465.13 595.729 464.29C596.869 463.45 597.829 462.52 598.609 461.5C599.509 460.36 600.289 459.01 600.949 457.45V443.95ZM594.199 424.6C592.399 424.6 590.899 425.23 589.699 426.49C588.499 427.69 587.899 429.31 587.899 431.35C587.899 431.83 587.899 432.25 587.899 432.61C587.959 432.97 588.019 433.3 588.079 433.6C588.139 433.9 588.229 434.2 588.349 434.5L581.149 436.3C581.029 436.12 580.939 435.88 580.879 435.58C580.819 435.28 580.759 434.95 580.699 434.59C580.699 434.23 580.699 433.75 580.699 433.15C580.699 431.89 580.999 430.69 581.599 429.55C582.199 428.35 583.069 427.3 584.209 426.4C585.409 425.44 586.819 424.69 588.439 424.15C590.119 423.55 592.039 423.25 594.199 423.25C598.519 423.25 601.909 424.48 604.369 426.94C606.889 429.4 608.149 432.67 608.149 436.75V463.75L613.549 465.1V466H600.949V460.6C600.289 461.86 599.449 463 598.429 464.02C597.589 464.86 596.509 465.61 595.189 466.27C593.929 466.99 592.399 467.35 590.599 467.35C586.279 467.35 583.009 466.33 580.789 464.29C578.629 462.25 577.549 459.52 577.549 456.1C577.549 454.42 577.999 452.74 578.899 451.06C579.859 449.38 581.269 447.88 583.129 446.56C585.049 445.24 587.479 444.19 590.419 443.41C593.359 442.57 596.869 442.15 600.949 442.15V436.75C600.949 432.25 600.259 429.1 598.879 427.3C597.559 425.5 595.999 424.6 594.199 424.6ZM637.385 425.05C636.125 425.05 634.895 425.41 633.695 426.13C632.555 426.79 631.505 427.9 630.545 429.46C629.645 431.02 628.895 433.09 628.295 435.67C627.755 438.25 627.485 441.46 627.485 445.3C627.485 449.14 627.755 452.35 628.295 454.93C628.895 457.51 629.615 459.61 630.455 461.23C631.355 462.79 632.315 463.9 633.335 464.56C634.415 465.22 635.465 465.55 636.485 465.55C637.925 465.55 639.185 465.13 640.265 464.29C641.405 463.45 642.365 462.52 643.145 461.5C644.045 460.36 644.825 459.01 645.485 457.45V430.45C644.885 429.43 644.195 428.53 643.415 427.75C642.755 427.09 641.915 426.49 640.895 425.95C639.935 425.35 638.765 425.05 637.385 425.05ZM652.685 463.75L658.085 465.1V466H645.485V460.6C644.825 461.86 643.985 463 642.965 464.02C642.125 464.86 641.045 465.61 639.725 466.27C638.465 466.99 636.935 467.35 635.135 467.35C633.215 467.35 631.295 466.87 629.375 465.91C627.515 464.89 625.835 463.45 624.335 461.59C622.895 459.67 621.695 457.36 620.735 454.66C619.835 451.9 619.385 448.78 619.385 445.3C619.385 441.82 619.835 438.73 620.735 436.03C621.695 433.27 622.955 430.96 624.515 429.1C626.075 427.18 627.845 425.74 629.825 424.78C631.805 423.76 633.875 423.25 636.035 423.25C637.715 423.25 639.155 423.49 640.355 423.97C641.555 424.45 642.545 424.96 643.325 425.5C644.225 426.16 644.945 426.91 645.485 427.75V405.25L640.085 403.9V403H652.685V463.75ZM681.935 424.6C680.915 424.6 679.865 424.96 678.785 425.68C677.765 426.34 676.805 427.48 675.905 429.1C675.065 430.66 674.345 432.76 673.745 435.4C673.205 438.04 672.935 441.34 672.935 445.3C672.935 449.26 673.205 452.56 673.745 455.2C674.345 457.84 675.065 459.97 675.905 461.59C676.805 463.15 677.765 464.29 678.785 465.01C679.865 465.67 680.915 466 681.935 466C682.955 466 683.975 465.67 684.995 465.01C686.075 464.29 687.035 463.15 687.875 461.59C688.775 459.97 689.495 457.84 690.035 455.2C690.635 452.56 690.935 449.26 690.935 445.3C690.935 441.34 690.635 438.04 690.035 435.4C689.495 432.76 688.775 430.66 687.875 429.1C687.035 427.48 686.075 426.34 684.995 425.68C683.975 424.96 682.955 424.6 681.935 424.6ZM681.935 423.25C684.155 423.25 686.285 423.76 688.325 424.78C690.425 425.74 692.255 427.18 693.815 429.1C695.435 430.96 696.695 433.27 697.595 436.03C698.555 438.73 699.035 441.82 699.035 445.3C699.035 448.78 698.555 451.9 697.595 454.66C696.695 457.36 695.435 459.67 693.815 461.59C692.255 463.45 690.425 464.89 688.325 465.91C686.285 466.87 684.155 467.35 681.935 467.35C679.655 467.35 677.495 466.87 675.455 465.91C673.415 464.89 671.585 463.45 669.965 461.59C668.405 459.67 667.145 457.36 666.185 454.66C665.285 451.9 664.835 448.78 664.835 445.3C664.835 441.82 665.285 438.73 666.185 436.03C667.145 433.27 668.405 430.96 669.965 429.1C671.585 427.18 673.415 425.74 675.455 424.78C677.495 423.76 679.655 423.25 681.935 423.25ZM751.682 443.95C746.462 443.95 742.592 445.12 740.072 447.46C737.612 449.74 736.382 452.92 736.382 457C736.382 459.7 737.042 461.8 738.362 463.3C739.682 464.8 741.122 465.55 742.682 465.55C744.122 465.55 745.382 465.13 746.462 464.29C747.602 463.45 748.562 462.52 749.342 461.5C750.242 460.36 751.022 459.01 751.682 457.45V443.95ZM744.932 424.6C743.132 424.6 741.632 425.23 740.432 426.49C739.232 427.69 738.632 429.31 738.632 431.35C738.632 431.83 738.632 432.25 738.632 432.61C738.692 432.97 738.752 433.3 738.812 433.6C738.872 433.9 738.962 434.2 739.082 434.5L731.882 436.3C731.762 436.12 731.672 435.88 731.612 435.58C731.552 435.28 731.492 434.95 731.432 434.59C731.432 434.23 731.432 433.75 731.432 433.15C731.432 431.89 731.732 430.69 732.332 429.55C732.932 428.35 733.802 427.3 734.942 426.4C736.142 425.44 737.552 424.69 739.172 424.15C740.852 423.55 742.772 423.25 744.932 423.25C749.252 423.25 752.642 424.48 755.102 426.94C757.622 429.4 758.882 432.67 758.882 436.75V463.75L764.282 465.1V466H751.682V460.6C751.022 461.86 750.182 463 749.162 464.02C748.322 464.86 747.242 465.61 745.922 466.27C744.662 466.99 743.132 467.35 741.332 467.35C737.012 467.35 733.742 466.33 731.522 464.29C729.362 462.25 728.282 459.52 728.282 456.1C728.282 454.42 728.732 452.74 729.632 451.06C730.592 449.38 732.002 447.88 733.862 446.56C735.782 445.24 738.212 444.19 741.152 443.41C744.092 442.57 747.602 442.15 751.682 442.15V436.75C751.682 432.25 750.992 429.1 749.612 427.3C748.292 425.5 746.732 424.6 744.932 424.6ZM775.068 463.75V426.85L769.668 425.5V424.6H782.268V463.75L787.668 465.1V466H769.668V465.1L775.068 463.75ZM782.718 414.25C782.718 415.39 782.238 416.44 781.278 417.4C780.378 418.3 779.358 418.75 778.218 418.75C777.078 418.75 776.028 418.3 775.068 417.4C774.168 416.44 773.718 415.39 773.718 414.25C773.718 413.11 774.168 412.09 775.068 411.19C776.028 410.23 777.078 409.75 778.218 409.75C779.358 409.75 780.378 410.23 781.278 411.19C782.238 412.09 782.718 413.11 782.718 414.25ZM798.446 463.75V426.85L793.046 425.5V424.6H805.646V430C806.246 428.8 807.056 427.69 808.076 426.67C808.916 425.83 809.996 425.05 811.316 424.33C812.636 423.61 814.196 423.25 815.996 423.25C817.796 423.25 819.446 423.58 820.946 424.24C822.506 424.9 823.856 425.83 824.996 427.03C826.136 428.17 827.006 429.58 827.606 431.26C828.266 432.88 828.596 434.71 828.596 436.75V463.75L833.996 465.1V466H816.446V465.1L821.396 463.75V436.75C821.396 432.49 820.706 429.49 819.326 427.75C818.006 425.95 816.446 425.05 814.646 425.05C813.146 425.05 811.856 425.47 810.776 426.31C809.696 427.15 808.766 428.08 807.986 429.1C807.086 430.3 806.306 431.65 805.646 433.15V463.75L810.596 465.1V466H793.046V465.1L798.446 463.75ZM857.815 425.05C856.555 425.05 855.325 425.41 854.125 426.13C852.985 426.79 851.935 427.9 850.975 429.46C850.075 431.02 849.325 433.09 848.725 435.67C848.185 438.25 847.915 441.46 847.915 445.3C847.915 449.14 848.185 452.35 848.725 454.93C849.325 457.51 850.045 459.61 850.885 461.23C851.785 462.79 852.745 463.9 853.765 464.56C854.845 465.22 855.895 465.55 856.915 465.55C858.355 465.55 859.615 465.13 860.695 464.29C861.835 463.45 862.795 462.52 863.575 461.5C864.475 460.36 865.255 459.01 865.915 457.45V430.45C865.315 429.43 864.625 428.53 863.845 427.75C863.185 427.09 862.345 426.49 861.325 425.95C860.365 425.35 859.195 425.05 857.815 425.05ZM873.115 463.75L878.515 465.1V466H865.915V460.6C865.255 461.86 864.415 463 863.395 464.02C862.555 464.86 861.475 465.61 860.155 466.27C858.895 466.99 857.365 467.35 855.565 467.35C853.645 467.35 851.725 466.87 849.805 465.91C847.945 464.89 846.265 463.45 844.765 461.59C843.325 459.67 842.125 457.36 841.165 454.66C840.265 451.9 839.815 448.78 839.815 445.3C839.815 441.82 840.265 438.73 841.165 436.03C842.125 433.27 843.385 430.96 844.945 429.1C846.505 427.18 848.275 425.74 850.255 424.78C852.235 423.76 854.305 423.25 856.465 423.25C858.145 423.25 859.585 423.49 860.785 423.97C861.985 424.45 862.975 424.96 863.755 425.5C864.655 426.16 865.375 426.91 865.915 427.75V405.25L860.515 403.9V403H873.115V463.75ZM908.215 443.95C902.995 443.95 899.125 445.12 896.605 447.46C894.145 449.74 892.915 452.92 892.915 457C892.915 459.7 893.575 461.8 894.895 463.3C896.215 464.8 897.655 465.55 899.215 465.55C900.655 465.55 901.915 465.13 902.995 464.29C904.135 463.45 905.095 462.52 905.875 461.5C906.775 460.36 907.555 459.01 908.215 457.45V443.95ZM901.465 424.6C899.665 424.6 898.165 425.23 896.965 426.49C895.765 427.69 895.165 429.31 895.165 431.35C895.165 431.83 895.165 432.25 895.165 432.61C895.225 432.97 895.285 433.3 895.345 433.6C895.405 433.9 895.495 434.2 895.615 434.5L888.415 436.3C888.295 436.12 888.205 435.88 888.145 435.58C888.085 435.28 888.025 434.95 887.965 434.59C887.965 434.23 887.965 433.75 887.965 433.15C887.965 431.89 888.265 430.69 888.865 429.55C889.465 428.35 890.335 427.3 891.475 426.4C892.675 425.44 894.085 424.69 895.705 424.15C897.385 423.55 899.305 423.25 901.465 423.25C905.785 423.25 909.175 424.48 911.635 426.94C914.155 429.4 915.415 432.67 915.415 436.75V463.75L920.815 465.1V466H908.215V460.6C907.555 461.86 906.715 463 905.695 464.02C904.855 464.86 903.775 465.61 902.455 466.27C901.195 466.99 899.665 467.35 897.865 467.35C893.545 467.35 890.275 466.33 888.055 464.29C885.895 462.25 884.815 459.52 884.815 456.1C884.815 454.42 885.265 452.74 886.165 451.06C887.125 449.38 888.535 447.88 890.395 446.56C892.315 445.24 894.745 444.19 897.685 443.41C900.625 442.57 904.135 442.15 908.215 442.15V436.75C908.215 432.25 907.525 429.1 906.145 427.3C904.825 425.5 903.265 424.6 901.465 424.6ZM953.222 463.75V426.85L947.822 425.5V424.6H960.422V463.75L965.822 465.1V466H947.822V465.1L953.222 463.75ZM960.872 414.25C960.872 415.39 960.392 416.44 959.432 417.4C958.532 418.3 957.512 418.75 956.372 418.75C955.232 418.75 954.182 418.3 953.222 417.4C952.322 416.44 951.872 415.39 951.872 414.25C951.872 413.11 952.322 412.09 953.222 411.19C954.182 410.23 955.232 409.75 956.372 409.75C957.512 409.75 958.532 410.23 959.432 411.19C960.392 412.09 960.872 413.11 960.872 414.25ZM976.601 463.75V426.85L971.201 425.5V424.6H983.801V430C984.401 428.8 985.211 427.69 986.231 426.67C987.071 425.83 988.151 425.05 989.471 424.33C990.791 423.61 992.351 423.25 994.151 423.25C995.951 423.25 997.601 423.58 999.101 424.24C1000.66 424.9 1002.01 425.83 1003.15 427.03C1004.29 428.17 1005.16 429.58 1005.76 431.26C1006.42 432.88 1006.75 434.71 1006.75 436.75V463.75L1012.15 465.1V466H994.601V465.1L999.551 463.75V436.75C999.551 432.49 998.861 429.49 997.481 427.75C996.161 425.95 994.601 425.05 992.801 425.05C991.301 425.05 990.011 425.47 988.931 426.31C987.851 427.15 986.921 428.08 986.141 429.1C985.241 430.3 984.461 431.65 983.801 433.15V463.75L988.751 465.1V466H971.201V465.1L976.601 463.75ZM1033.72 467.35C1031.8 467.35 1030.15 467.11 1028.77 466.63C1027.39 466.21 1026.28 465.7 1025.44 465.1C1024.42 464.44 1023.58 463.69 1022.92 462.85C1022.68 463.75 1022.17 464.59 1021.39 465.37C1020.67 466.15 1019.98 466.66 1019.32 466.9H1017.97C1018.03 466.12 1018.09 465.31 1018.15 464.47C1018.21 463.75 1018.27 463 1018.33 462.22C1018.39 461.38 1018.42 460.54 1018.42 459.7C1018.42 458.8 1018.39 457.9 1018.33 457C1018.27 456.1 1018.21 455.29 1018.15 454.57C1018.09 453.73 1018.03 452.89 1017.97 452.05H1019.32C1020.46 456.37 1022.2 459.7 1024.54 462.04C1026.88 464.38 1029.64 465.55 1032.82 465.55C1035.34 465.55 1037.38 464.77 1038.94 463.21C1040.56 461.65 1041.37 459.73 1041.37 457.45C1041.37 455.83 1040.8 454.42 1039.66 453.22C1038.58 452.02 1037.2 450.94 1035.52 449.98C1033.84 448.96 1032.04 447.97 1030.12 447.01C1028.2 446.05 1026.4 444.97 1024.72 443.77C1023.04 442.57 1021.63 441.16 1020.49 439.54C1019.41 437.92 1018.87 435.94 1018.87 433.6C1018.87 432.28 1019.17 430.99 1019.77 429.73C1020.37 428.47 1021.18 427.36 1022.2 426.4C1023.28 425.44 1024.57 424.69 1026.07 424.15C1027.57 423.55 1029.22 423.25 1031.02 423.25C1032.58 423.25 1033.93 423.49 1035.07 423.97C1036.27 424.45 1037.29 424.96 1038.13 425.5C1039.03 426.16 1039.81 426.91 1040.47 427.75C1040.71 426.85 1041.19 426.01 1041.91 425.23C1042.69 424.45 1043.41 423.94 1044.07 423.7H1045.42C1045.3 424.48 1045.21 425.29 1045.15 426.13C1045.09 426.85 1045.03 427.63 1044.97 428.47C1044.97 429.31 1044.97 430.12 1044.97 430.9C1044.97 431.8 1044.97 432.73 1044.97 433.69C1045.03 434.59 1045.09 435.4 1045.15 436.12C1045.21 436.96 1045.3 437.77 1045.42 438.55H1044.07C1042.93 434.23 1041.25 430.9 1039.03 428.56C1036.81 426.22 1034.44 425.05 1031.92 425.05C1029.88 425.05 1028.17 425.74 1026.79 427.12C1025.41 428.44 1024.72 430 1024.72 431.8C1024.72 433.3 1025.29 434.59 1026.43 435.67C1027.57 436.75 1028.98 437.77 1030.66 438.73C1032.34 439.63 1034.17 440.56 1036.15 441.52C1038.19 442.48 1040.05 443.59 1041.73 444.85C1043.41 446.11 1044.82 447.61 1045.96 449.35C1047.1 451.09 1047.67 453.19 1047.67 455.65C1047.67 457.09 1047.31 458.53 1046.59 459.97C1045.93 461.35 1044.97 462.61 1043.71 463.75C1042.51 464.83 1041.04 465.7 1039.3 466.36C1037.62 467.02 1035.76 467.35 1033.72 467.35ZM1059.39 463.75V426.85L1053.99 425.5V424.6H1066.59V463.75L1071.99 465.1V466H1053.99V465.1L1059.39 463.75ZM1067.04 414.25C1067.04 415.39 1066.56 416.44 1065.6 417.4C1064.7 418.3 1063.68 418.75 1062.54 418.75C1061.4 418.75 1060.35 418.3 1059.39 417.4C1058.49 416.44 1058.04 415.39 1058.04 414.25C1058.04 413.11 1058.49 412.09 1059.39 411.19C1060.35 410.23 1061.4 409.75 1062.54 409.75C1063.68 409.75 1064.7 410.23 1065.6 411.19C1066.56 412.09 1067.04 413.11 1067.04 414.25ZM1093.57 467.35C1091.65 467.35 1090 467.11 1088.62 466.63C1087.24 466.21 1086.13 465.7 1085.29 465.1C1084.27 464.44 1083.43 463.69 1082.77 462.85C1082.53 463.75 1082.02 464.59 1081.24 465.37C1080.52 466.15 1079.83 466.66 1079.17 466.9H1077.82C1077.88 466.12 1077.94 465.31 1078 464.47C1078.06 463.75 1078.12 463 1078.18 462.22C1078.24 461.38 1078.27 460.54 1078.27 459.7C1078.27 458.8 1078.24 457.9 1078.18 457C1078.12 456.1 1078.06 455.29 1078 454.57C1077.94 453.73 1077.88 452.89 1077.82 452.05H1079.17C1080.31 456.37 1082.05 459.7 1084.39 462.04C1086.73 464.38 1089.49 465.55 1092.67 465.55C1095.19 465.55 1097.23 464.77 1098.79 463.21C1100.41 461.65 1101.22 459.73 1101.22 457.45C1101.22 455.83 1100.65 454.42 1099.51 453.22C1098.43 452.02 1097.05 450.94 1095.37 449.98C1093.69 448.96 1091.89 447.97 1089.97 447.01C1088.05 446.05 1086.25 444.97 1084.57 443.77C1082.89 442.57 1081.48 441.16 1080.34 439.54C1079.26 437.92 1078.72 435.94 1078.72 433.6C1078.72 432.28 1079.02 430.99 1079.62 429.73C1080.22 428.47 1081.03 427.36 1082.05 426.4C1083.13 425.44 1084.42 424.69 1085.92 424.15C1087.42 423.55 1089.07 423.25 1090.87 423.25C1092.43 423.25 1093.78 423.49 1094.92 423.97C1096.12 424.45 1097.14 424.96 1097.98 425.5C1098.88 426.16 1099.66 426.91 1100.32 427.75C1100.56 426.85 1101.04 426.01 1101.76 425.23C1102.54 424.45 1103.26 423.94 1103.92 423.7H1105.27C1105.15 424.48 1105.06 425.29 1105 426.13C1104.94 426.85 1104.88 427.63 1104.82 428.47C1104.82 429.31 1104.82 430.12 1104.82 430.9C1104.82 431.8 1104.82 432.73 1104.82 433.69C1104.88 434.59 1104.94 435.4 1105 436.12C1105.06 436.96 1105.15 437.77 1105.27 438.55H1103.92C1102.78 434.23 1101.1 430.9 1098.88 428.56C1096.66 426.22 1094.29 425.05 1091.77 425.05C1089.73 425.05 1088.02 425.74 1086.64 427.12C1085.26 428.44 1084.57 430 1084.57 431.8C1084.57 433.3 1085.14 434.59 1086.28 435.67C1087.42 436.75 1088.83 437.77 1090.51 438.73C1092.19 439.63 1094.02 440.56 1096 441.52C1098.04 442.48 1099.9 443.59 1101.58 444.85C1103.26 446.11 1104.67 447.61 1105.81 449.35C1106.95 451.09 1107.52 453.19 1107.52 455.65C1107.52 457.09 1107.16 458.53 1106.44 459.97C1105.78 461.35 1104.82 462.61 1103.56 463.75C1102.36 464.83 1100.89 465.7 1099.15 466.36C1097.47 467.02 1095.61 467.35 1093.57 467.35ZM1136.8 424.6V426.4H1126.45V455.11C1126.45 458.77 1127.11 461.44 1128.43 463.12C1129.75 464.74 1131.19 465.55 1132.75 465.55C1134.79 465.55 1136.5 464.8 1137.88 463.3C1139.32 461.74 1140.16 459.49 1140.4 456.55H1141.75C1141.51 459.97 1140.46 462.64 1138.6 464.56C1136.8 466.42 1134.55 467.35 1131.85 467.35C1128.01 467.35 1124.95 466.24 1122.67 464.02C1120.39 461.74 1119.25 458.8 1119.25 455.2V426.4H1111.6V424.6H1119.25V414.25L1126.45 409.3V424.6H1136.8ZM1169.69 443.95C1164.47 443.95 1160.6 445.12 1158.08 447.46C1155.62 449.74 1154.39 452.92 1154.39 457C1154.39 459.7 1155.05 461.8 1156.37 463.3C1157.69 464.8 1159.13 465.55 1160.69 465.55C1162.13 465.55 1163.39 465.13 1164.47 464.29C1165.61 463.45 1166.57 462.52 1167.35 461.5C1168.25 460.36 1169.03 459.01 1169.69 457.45V443.95ZM1162.94 424.6C1161.14 424.6 1159.64 425.23 1158.44 426.49C1157.24 427.69 1156.64 429.31 1156.64 431.35C1156.64 431.83 1156.64 432.25 1156.64 432.61C1156.7 432.97 1156.76 433.3 1156.82 433.6C1156.88 433.9 1156.97 434.2 1157.09 434.5L1149.89 436.3C1149.77 436.12 1149.68 435.88 1149.62 435.58C1149.56 435.28 1149.5 434.95 1149.44 434.59C1149.44 434.23 1149.44 433.75 1149.44 433.15C1149.44 431.89 1149.74 430.69 1150.34 429.55C1150.94 428.35 1151.81 427.3 1152.95 426.4C1154.15 425.44 1155.56 424.69 1157.18 424.15C1158.86 423.55 1160.78 423.25 1162.94 423.25C1167.26 423.25 1170.65 424.48 1173.11 426.94C1175.63 429.4 1176.89 432.67 1176.89 436.75V463.75L1182.29 465.1V466H1169.69V460.6C1169.03 461.86 1168.19 463 1167.17 464.02C1166.33 464.86 1165.25 465.61 1163.93 466.27C1162.67 466.99 1161.14 467.35 1159.34 467.35C1155.02 467.35 1151.75 466.33 1149.53 464.29C1147.37 462.25 1146.29 459.52 1146.29 456.1C1146.29 454.42 1146.74 452.74 1147.64 451.06C1148.6 449.38 1150.01 447.88 1151.87 446.56C1153.79 445.24 1156.22 444.19 1159.16 443.41C1162.1 442.57 1165.61 442.15 1169.69 442.15V436.75C1169.69 432.25 1169 429.1 1167.62 427.3C1166.3 425.5 1164.74 424.6 1162.94 424.6ZM108.15 545.3C108.15 549.14 108.42 552.35 108.96 554.93C109.56 557.51 110.31 559.61 111.21 561.23C112.17 562.79 113.22 563.9 114.36 564.56C115.56 565.22 116.79 565.55 118.05 565.55C119.61 565.55 121.08 565.25 122.46 564.65C123.84 564.05 125.07 563.24 126.15 562.22C127.23 561.2 128.1 559.97 128.76 558.53C129.48 557.09 129.96 555.53 130.2 553.85H131.55C131.31 555.77 130.77 557.57 129.93 559.25C129.15 560.87 128.13 562.28 126.87 563.48C125.61 564.68 124.14 565.61 122.46 566.27C120.84 566.99 119.07 567.35 117.15 567.35C114.87 567.35 112.71 566.87 110.67 565.91C108.63 564.89 106.8 563.45 105.18 561.59C103.62 559.67 102.36 557.36 101.4 554.66C100.5 551.9 100.05 548.78 100.05 545.3C100.05 541.7 100.5 538.52 101.4 535.76C102.3 533 103.47 530.72 104.91 528.92C106.41 527.06 108.12 525.65 110.04 524.69C112.02 523.73 114.09 523.25 116.25 523.25C118.41 523.25 120.45 523.73 122.37 524.69C124.35 525.65 126.06 527.06 127.5 528.92C129 530.72 130.2 533 131.1 535.76C132 538.52 132.45 541.7 132.45 545.3H108.15ZM116.25 524.6C115.35 524.6 114.45 524.9 113.55 525.5C112.65 526.04 111.81 527.03 111.03 528.47C110.25 529.91 109.59 531.86 109.05 534.32C108.57 536.72 108.27 539.78 108.15 543.5H124.35C124.23 539.78 123.9 536.72 123.36 534.32C122.88 531.86 122.25 529.91 121.47 528.47C120.69 527.03 119.85 526.04 118.95 525.5C118.05 524.9 117.15 524.6 116.25 524.6ZM144.628 563.75V526.85L139.228 525.5V524.6H151.828V530C152.428 528.8 153.238 527.69 154.258 526.67C155.098 525.83 156.178 525.05 157.498 524.33C158.818 523.61 160.378 523.25 162.178 523.25C164.458 523.25 166.318 523.67 167.758 524.51C169.258 525.35 170.458 526.28 171.358 527.3C172.438 528.5 173.278 529.85 173.878 531.35C174.658 529.85 175.588 528.5 176.668 527.3C177.628 526.28 178.798 525.35 180.178 524.51C181.558 523.67 183.208 523.25 185.128 523.25C186.928 523.25 188.578 523.58 190.078 524.24C191.638 524.9 192.988 525.83 194.128 527.03C195.268 528.17 196.138 529.58 196.738 531.26C197.398 532.88 197.728 534.71 197.728 536.75V563.75L203.128 565.1V566H185.578V565.1L190.528 563.75V536.75C190.528 532.49 189.838 529.49 188.458 527.75C187.138 525.95 185.578 525.05 183.778 525.05C182.278 525.05 180.988 525.47 179.908 526.31C178.828 527.15 177.898 528.08 177.118 529.1C176.218 530.3 175.438 531.65 174.778 533.15V563.75L179.728 565.1V566H162.628V565.1L167.578 563.75V536.75C167.578 532.49 166.888 529.49 165.508 527.75C164.188 525.95 162.628 525.05 160.828 525.05C159.328 525.05 158.038 525.47 156.958 526.31C155.878 527.15 154.948 528.08 154.168 529.1C153.268 530.3 152.488 531.65 151.828 533.15V563.75L156.778 565.1V566H139.228V565.1L144.628 563.75ZM248.557 525.05C247.417 525.05 246.277 525.41 245.137 526.13C244.057 526.79 243.067 527.9 242.167 529.46C241.267 531.02 240.517 533.09 239.917 535.67C239.377 538.25 239.107 541.46 239.107 545.3C239.107 549.14 239.377 552.35 239.917 554.93C240.517 557.51 241.297 559.61 242.257 561.23C243.217 562.79 244.297 563.9 245.497 564.56C246.757 565.22 248.077 565.55 249.457 565.55C251.017 565.55 252.487 565.25 253.867 564.65C255.247 564.05 256.477 563.24 257.557 562.22C258.637 561.2 259.507 559.97 260.167 558.53C260.887 557.09 261.367 555.53 261.607 553.85H262.957C262.717 555.77 262.177 557.57 261.337 559.25C260.557 560.87 259.537 562.28 258.277 563.48C257.017 564.68 255.547 565.61 253.867 566.27C252.247 566.99 250.477 567.35 248.557 567.35C246.217 567.35 243.967 566.87 241.807 565.91C239.707 564.89 237.847 563.45 236.227 561.59C234.607 559.67 233.317 557.36 232.357 554.66C231.457 551.9 231.007 548.78 231.007 545.3C231.007 541.82 231.457 538.73 232.357 536.03C233.317 533.27 234.577 530.96 236.137 529.1C237.697 527.18 239.467 525.74 241.447 524.78C243.427 523.76 245.497 523.25 247.657 523.25C249.097 523.25 250.357 523.49 251.437 523.97C252.577 524.45 253.537 524.96 254.317 525.5C255.217 526.16 255.997 526.91 256.657 527.75C256.897 526.85 257.377 526.01 258.097 525.23C258.877 524.45 259.597 523.94 260.257 523.7H261.607C261.487 524.48 261.397 525.29 261.337 526.13C261.277 526.85 261.217 527.63 261.157 528.47C261.157 529.31 261.157 530.12 261.157 530.9C261.157 531.8 261.157 532.73 261.157 533.69C261.217 534.59 261.277 535.4 261.337 536.12C261.397 536.96 261.487 537.77 261.607 538.55H260.257C259.117 534.23 257.437 530.9 255.217 528.56C253.057 526.22 250.837 525.05 248.557 525.05ZM272.85 563.75V505.25L267.45 503.9V503H280.05V530C280.65 528.8 281.46 527.69 282.48 526.67C283.32 525.83 284.4 525.05 285.72 524.33C287.04 523.61 288.6 523.25 290.4 523.25C292.2 523.25 293.85 523.58 295.35 524.24C296.91 524.9 298.26 525.83 299.4 527.03C300.54 528.17 301.41 529.58 302.01 531.26C302.67 532.88 303 534.71 303 536.75V563.75L308.4 565.1V566H290.85V565.1L295.8 563.75V536.75C295.8 532.49 295.11 529.49 293.73 527.75C292.41 525.95 290.85 525.05 289.05 525.05C287.55 525.05 286.26 525.47 285.18 526.31C284.1 527.15 283.17 528.08 282.39 529.1C281.49 530.3 280.71 531.65 280.05 533.15V563.75L285 565.1V566H267.45V565.1L272.85 563.75ZM337.629 543.95C332.409 543.95 328.539 545.12 326.019 547.46C323.559 549.74 322.329 552.92 322.329 557C322.329 559.7 322.989 561.8 324.309 563.3C325.629 564.8 327.069 565.55 328.629 565.55C330.069 565.55 331.329 565.13 332.409 564.29C333.549 563.45 334.509 562.52 335.289 561.5C336.189 560.36 336.969 559.01 337.629 557.45V543.95ZM330.879 524.6C329.079 524.6 327.579 525.23 326.379 526.49C325.179 527.69 324.579 529.31 324.579 531.35C324.579 531.83 324.579 532.25 324.579 532.61C324.639 532.97 324.699 533.3 324.759 533.6C324.819 533.9 324.909 534.2 325.029 534.5L317.829 536.3C317.709 536.12 317.619 535.88 317.559 535.58C317.499 535.28 317.439 534.95 317.379 534.59C317.379 534.23 317.379 533.75 317.379 533.15C317.379 531.89 317.679 530.69 318.279 529.55C318.879 528.35 319.749 527.3 320.889 526.4C322.089 525.44 323.499 524.69 325.119 524.15C326.799 523.55 328.719 523.25 330.879 523.25C335.199 523.25 338.589 524.48 341.049 526.94C343.569 529.4 344.829 532.67 344.829 536.75V563.75L350.229 565.1V566H337.629V560.6C336.969 561.86 336.129 563 335.109 564.02C334.269 564.86 333.189 565.61 331.869 566.27C330.609 566.99 329.079 567.35 327.279 567.35C322.959 567.35 319.689 566.33 317.469 564.29C315.309 562.25 314.229 559.52 314.229 556.1C314.229 554.42 314.679 552.74 315.579 551.06C316.539 549.38 317.949 547.88 319.809 546.56C321.729 545.24 324.159 544.19 327.099 543.41C330.039 542.57 333.549 542.15 337.629 542.15V536.75C337.629 532.25 336.939 529.1 335.559 527.3C334.239 525.5 332.679 524.6 330.879 524.6ZM361.015 563.75V526.85L355.615 525.5V524.6H368.215V530C368.815 528.8 369.625 527.69 370.645 526.67C371.485 525.83 372.565 525.05 373.885 524.33C375.205 523.61 376.765 523.25 378.565 523.25C380.845 523.25 382.705 523.67 384.145 524.51C385.645 525.35 386.845 526.28 387.745 527.3C388.825 528.5 389.665 529.85 390.265 531.35C391.045 529.85 391.975 528.5 393.055 527.3C394.015 526.28 395.185 525.35 396.565 524.51C397.945 523.67 399.595 523.25 401.515 523.25C403.315 523.25 404.965 523.58 406.465 524.24C408.025 524.9 409.375 525.83 410.515 527.03C411.655 528.17 412.525 529.58 413.125 531.26C413.785 532.88 414.115 534.71 414.115 536.75V563.75L419.515 565.1V566H401.965V565.1L406.915 563.75V536.75C406.915 532.49 406.225 529.49 404.845 527.75C403.525 525.95 401.965 525.05 400.165 525.05C398.665 525.05 397.375 525.47 396.295 526.31C395.215 527.15 394.285 528.08 393.505 529.1C392.605 530.3 391.825 531.65 391.165 533.15V563.75L396.115 565.1V566H379.015V565.1L383.965 563.75V536.75C383.965 532.49 383.275 529.49 381.895 527.75C380.575 525.95 379.015 525.05 377.215 525.05C375.715 525.05 374.425 525.47 373.345 526.31C372.265 527.15 371.335 528.08 370.555 529.1C369.655 530.3 368.875 531.65 368.215 533.15V563.75L373.165 565.1V566H355.615V565.1L361.015 563.75ZM448.723 543.95C443.503 543.95 439.633 545.12 437.113 547.46C434.653 549.74 433.423 552.92 433.423 557C433.423 559.7 434.083 561.8 435.403 563.3C436.723 564.8 438.163 565.55 439.723 565.55C441.163 565.55 442.423 565.13 443.503 564.29C444.643 563.45 445.603 562.52 446.383 561.5C447.283 560.36 448.063 559.01 448.723 557.45V543.95ZM441.973 524.6C440.173 524.6 438.673 525.23 437.473 526.49C436.273 527.69 435.673 529.31 435.673 531.35C435.673 531.83 435.673 532.25 435.673 532.61C435.733 532.97 435.793 533.3 435.853 533.6C435.913 533.9 436.003 534.2 436.123 534.5L428.923 536.3C428.803 536.12 428.713 535.88 428.653 535.58C428.593 535.28 428.533 534.95 428.473 534.59C428.473 534.23 428.473 533.75 428.473 533.15C428.473 531.89 428.773 530.69 429.373 529.55C429.973 528.35 430.843 527.3 431.983 526.4C433.183 525.44 434.593 524.69 436.213 524.15C437.893 523.55 439.813 523.25 441.973 523.25C446.293 523.25 449.683 524.48 452.143 526.94C454.663 529.4 455.923 532.67 455.923 536.75V563.75L461.323 565.1V566H448.723V560.6C448.063 561.86 447.223 563 446.203 564.02C445.363 564.86 444.283 565.61 442.963 566.27C441.703 566.99 440.173 567.35 438.373 567.35C434.053 567.35 430.783 566.33 428.563 564.29C426.403 562.25 425.323 559.52 425.323 556.1C425.323 554.42 425.773 552.74 426.673 551.06C427.633 549.38 429.043 547.88 430.903 546.56C432.823 545.24 435.253 544.19 438.193 543.41C441.133 542.57 444.643 542.15 448.723 542.15V536.75C448.723 532.25 448.033 529.1 446.653 527.3C445.333 525.5 443.773 524.6 441.973 524.6ZM479.309 563.75L484.709 565.1V566H466.709V565.1L472.109 563.75V526.85L466.709 525.5V524.6H479.309V535.4C480.089 533.18 481.019 531.17 482.099 529.37C483.059 527.81 484.229 526.4 485.609 525.14C486.989 523.88 488.639 523.25 490.559 523.25C491.219 523.25 491.849 523.31 492.449 523.43C493.049 523.49 493.589 523.58 494.069 523.7C494.609 523.88 495.089 524.03 495.509 524.15L492.809 530.9C492.449 530.72 492.059 530.51 491.639 530.27C491.279 530.09 490.829 529.94 490.289 529.82C489.809 529.64 489.299 529.55 488.759 529.55C487.199 529.55 485.819 529.97 484.619 530.81C483.419 531.65 482.429 532.58 481.649 533.6C480.689 534.8 479.909 536.15 479.309 537.65V563.75ZM529.761 545.3C529.761 549.14 530.031 552.35 530.571 554.93C531.171 557.51 531.921 559.61 532.821 561.23C533.781 562.79 534.831 563.9 535.971 564.56C537.171 565.22 538.401 565.55 539.661 565.55C541.221 565.55 542.691 565.25 544.071 564.65C545.451 564.05 546.681 563.24 547.761 562.22C548.841 561.2 549.711 559.97 550.371 558.53C551.091 557.09 551.571 555.53 551.811 553.85H553.161C552.921 555.77 552.381 557.57 551.541 559.25C550.761 560.87 549.741 562.28 548.481 563.48C547.221 564.68 545.751 565.61 544.071 566.27C542.451 566.99 540.681 567.35 538.761 567.35C536.481 567.35 534.321 566.87 532.281 565.91C530.241 564.89 528.411 563.45 526.791 561.59C525.231 559.67 523.971 557.36 523.011 554.66C522.111 551.9 521.661 548.78 521.661 545.3C521.661 541.7 522.111 538.52 523.011 535.76C523.911 533 525.081 530.72 526.521 528.92C528.021 527.06 529.731 525.65 531.651 524.69C533.631 523.73 535.701 523.25 537.861 523.25C540.021 523.25 542.061 523.73 543.981 524.69C545.961 525.65 547.671 527.06 549.111 528.92C550.611 530.72 551.811 533 552.711 535.76C553.611 538.52 554.061 541.7 554.061 545.3H529.761ZM537.861 524.6C536.961 524.6 536.061 524.9 535.161 525.5C534.261 526.04 533.421 527.03 532.641 528.47C531.861 529.91 531.201 531.86 530.661 534.32C530.181 536.72 529.881 539.78 529.761 543.5H545.961C545.841 539.78 545.511 536.72 544.971 534.32C544.491 531.86 543.861 529.91 543.081 528.47C542.301 527.03 541.461 526.04 540.561 525.5C539.661 524.9 538.761 524.6 537.861 524.6ZM577.039 567.35C575.119 567.35 573.469 567.11 572.089 566.63C570.709 566.21 569.599 565.7 568.759 565.1C567.739 564.44 566.899 563.69 566.239 562.85C565.999 563.75 565.489 564.59 564.709 565.37C563.989 566.15 563.299 566.66 562.639 566.9H561.289C561.349 566.12 561.409 565.31 561.469 564.47C561.529 563.75 561.589 563 561.649 562.22C561.709 561.38 561.739 560.54 561.739 559.7C561.739 558.8 561.709 557.9 561.649 557C561.589 556.1 561.529 555.29 561.469 554.57C561.409 553.73 561.349 552.89 561.289 552.05H562.639C563.779 556.37 565.519 559.7 567.859 562.04C570.199 564.38 572.959 565.55 576.139 565.55C578.659 565.55 580.699 564.77 582.259 563.21C583.879 561.65 584.689 559.73 584.689 557.45C584.689 555.83 584.119 554.42 582.979 553.22C581.899 552.02 580.519 550.94 578.839 549.98C577.159 548.96 575.359 547.97 573.439 547.01C571.519 546.05 569.719 544.97 568.039 543.77C566.359 542.57 564.949 541.16 563.809 539.54C562.729 537.92 562.189 535.94 562.189 533.6C562.189 532.28 562.489 530.99 563.089 529.73C563.689 528.47 564.499 527.36 565.519 526.4C566.599 525.44 567.889 524.69 569.389 524.15C570.889 523.55 572.539 523.25 574.339 523.25C575.899 523.25 577.249 523.49 578.389 523.97C579.589 524.45 580.609 524.96 581.449 525.5C582.349 526.16 583.129 526.91 583.789 527.75C584.029 526.85 584.509 526.01 585.229 525.23C586.009 524.45 586.729 523.94 587.389 523.7H588.739C588.619 524.48 588.529 525.29 588.469 526.13C588.409 526.85 588.349 527.63 588.289 528.47C588.289 529.31 588.289 530.12 588.289 530.9C588.289 531.8 588.289 532.73 588.289 533.69C588.349 534.59 588.409 535.4 588.469 536.12C588.529 536.96 588.619 537.77 588.739 538.55H587.389C586.249 534.23 584.569 530.9 582.349 528.56C580.129 526.22 577.759 525.05 575.239 525.05C573.199 525.05 571.489 525.74 570.109 527.12C568.729 528.44 568.039 530 568.039 531.8C568.039 533.3 568.609 534.59 569.749 535.67C570.889 536.75 572.299 537.77 573.979 538.73C575.659 539.63 577.489 540.56 579.469 541.52C581.509 542.48 583.369 543.59 585.049 544.85C586.729 546.11 588.139 547.61 589.279 549.35C590.419 551.09 590.989 553.19 590.989 555.65C590.989 557.09 590.629 558.53 589.909 559.97C589.249 561.35 588.289 562.61 587.029 563.75C585.829 564.83 584.359 565.7 582.619 566.36C580.939 567.02 579.079 567.35 577.039 567.35ZM620.264 524.6V526.4H609.914V555.11C609.914 558.77 610.574 561.44 611.894 563.12C613.214 564.74 614.654 565.55 616.214 565.55C618.254 565.55 619.964 564.8 621.344 563.3C622.784 561.74 623.624 559.49 623.864 556.55H625.214C624.974 559.97 623.924 562.64 622.064 564.56C620.264 566.42 618.014 567.35 615.314 567.35C611.474 567.35 608.414 566.24 606.134 564.02C603.854 561.74 602.714 558.8 602.714 555.2V526.4H595.064V524.6H602.714V514.25L609.914 509.3V524.6H620.264ZM653.156 543.95C647.936 543.95 644.066 545.12 641.546 547.46C639.086 549.74 637.856 552.92 637.856 557C637.856 559.7 638.516 561.8 639.836 563.3C641.156 564.8 642.596 565.55 644.156 565.55C645.596 565.55 646.856 565.13 647.936 564.29C649.076 563.45 650.036 562.52 650.816 561.5C651.716 560.36 652.496 559.01 653.156 557.45V543.95ZM646.406 524.6C644.606 524.6 643.106 525.23 641.906 526.49C640.706 527.69 640.106 529.31 640.106 531.35C640.106 531.83 640.106 532.25 640.106 532.61C640.166 532.97 640.226 533.3 640.286 533.6C640.346 533.9 640.436 534.2 640.556 534.5L633.356 536.3C633.236 536.12 633.146 535.88 633.086 535.58C633.026 535.28 632.966 534.95 632.906 534.59C632.906 534.23 632.906 533.75 632.906 533.15C632.906 531.89 633.206 530.69 633.806 529.55C634.406 528.35 635.276 527.3 636.416 526.4C637.616 525.44 639.026 524.69 640.646 524.15C642.326 523.55 644.246 523.25 646.406 523.25C650.726 523.25 654.116 524.48 656.576 526.94C659.096 529.4 660.356 532.67 660.356 536.75V563.75L665.756 565.1V566H653.156V560.6C652.496 561.86 651.656 563 650.636 564.02C649.796 564.86 648.716 565.61 647.396 566.27C646.136 566.99 644.606 567.35 642.806 567.35C638.486 567.35 635.216 566.33 632.996 564.29C630.836 562.25 629.756 559.52 629.756 556.1C629.756 554.42 630.206 552.74 631.106 551.06C632.066 549.38 633.476 547.88 635.336 546.56C637.256 545.24 639.686 544.19 642.626 543.41C645.566 542.57 649.076 542.15 653.156 542.15V536.75C653.156 532.25 652.466 529.1 651.086 527.3C649.766 525.5 648.206 524.6 646.406 524.6ZM716.613 543.95C711.393 543.95 707.523 545.12 705.003 547.46C702.543 549.74 701.313 552.92 701.313 557C701.313 559.7 701.973 561.8 703.293 563.3C704.613 564.8 706.053 565.55 707.613 565.55C709.053 565.55 710.313 565.13 711.393 564.29C712.533 563.45 713.493 562.52 714.273 561.5C715.173 560.36 715.953 559.01 716.613 557.45V543.95ZM709.863 524.6C708.063 524.6 706.563 525.23 705.363 526.49C704.163 527.69 703.563 529.31 703.563 531.35C703.563 531.83 703.563 532.25 703.563 532.61C703.623 532.97 703.683 533.3 703.743 533.6C703.803 533.9 703.893 534.2 704.013 534.5L696.813 536.3C696.693 536.12 696.603 535.88 696.543 535.58C696.483 535.28 696.423 534.95 696.363 534.59C696.363 534.23 696.363 533.75 696.363 533.15C696.363 531.89 696.663 530.69 697.263 529.55C697.863 528.35 698.733 527.3 699.873 526.4C701.073 525.44 702.483 524.69 704.103 524.15C705.783 523.55 707.703 523.25 709.863 523.25C714.183 523.25 717.573 524.48 720.033 526.94C722.553 529.4 723.813 532.67 723.813 536.75V563.75L729.213 565.1V566H716.613V560.6C715.953 561.86 715.113 563 714.093 564.02C713.253 564.86 712.173 565.61 710.853 566.27C709.593 566.99 708.063 567.35 706.263 567.35C701.943 567.35 698.673 566.33 696.453 564.29C694.293 562.25 693.213 559.52 693.213 556.1C693.213 554.42 693.663 552.74 694.563 551.06C695.523 549.38 696.933 547.88 698.793 546.56C700.713 545.24 703.143 544.19 706.083 543.41C709.023 542.57 712.533 542.15 716.613 542.15V536.75C716.613 532.25 715.923 529.1 714.543 527.3C713.223 525.5 711.663 524.6 709.863 524.6ZM757.549 524.6V526.4H747.199V555.11C747.199 558.77 747.859 561.44 749.179 563.12C750.499 564.74 751.939 565.55 753.499 565.55C755.539 565.55 757.249 564.8 758.629 563.3C760.069 561.74 760.909 559.49 761.149 556.55H762.499C762.259 559.97 761.209 562.64 759.349 564.56C757.549 566.42 755.299 567.35 752.599 567.35C748.759 567.35 745.699 566.24 743.419 564.02C741.139 561.74 739.999 558.8 739.999 555.2V526.4H732.349V524.6H739.999V514.25L747.199 509.3V524.6H757.549ZM771.991 563.75V526.85L766.591 525.5V524.6H779.191V563.75L784.591 565.1V566H766.591V565.1L771.991 563.75ZM779.641 514.25C779.641 515.39 779.161 516.44 778.201 517.4C777.301 518.3 776.281 518.75 775.141 518.75C774.001 518.75 772.951 518.3 771.991 517.4C771.091 516.44 770.641 515.39 770.641 514.25C770.641 513.11 771.091 512.09 771.991 511.19C772.951 510.23 774.001 509.75 775.141 509.75C776.281 509.75 777.301 510.23 778.201 511.19C779.161 512.09 779.641 513.11 779.641 514.25ZM791.32 526.85L785.92 525.5V524.6H803.92V525.5L798.97 526.85L810.31 556.1L819.67 527.75L813.82 525.5V524.6H827.32V525.5L821.47 527.75L808.42 567.35H807.07L791.32 526.85ZM834.482 563.75V526.85L829.082 525.5V524.6H841.682V563.75L847.082 565.1V566H829.082V565.1L834.482 563.75ZM842.132 514.25C842.132 515.39 841.652 516.44 840.692 517.4C839.792 518.3 838.772 518.75 837.632 518.75C836.492 518.75 835.442 518.3 834.482 517.4C833.582 516.44 833.132 515.39 833.132 514.25C833.132 513.11 833.582 512.09 834.482 511.19C835.442 510.23 836.492 509.75 837.632 509.75C838.772 509.75 839.792 510.23 840.692 511.19C841.652 512.09 842.132 513.11 842.132 514.25ZM870.911 525.05C869.651 525.05 868.421 525.41 867.221 526.13C866.081 526.79 865.031 527.9 864.071 529.46C863.171 531.02 862.421 533.09 861.821 535.67C861.281 538.25 861.011 541.46 861.011 545.3C861.011 549.14 861.281 552.35 861.821 554.93C862.421 557.51 863.141 559.61 863.981 561.23C864.881 562.79 865.841 563.9 866.861 564.56C867.941 565.22 868.991 565.55 870.011 565.55C871.451 565.55 872.711 565.13 873.791 564.29C874.931 563.45 875.891 562.52 876.671 561.5C877.571 560.36 878.351 559.01 879.011 557.45V530.45C878.411 529.43 877.721 528.53 876.941 527.75C876.281 527.09 875.441 526.49 874.421 525.95C873.461 525.35 872.291 525.05 870.911 525.05ZM886.211 563.75L891.611 565.1V566H879.011V560.6C878.351 561.86 877.511 563 876.491 564.02C875.651 564.86 874.571 565.61 873.251 566.27C871.991 566.99 870.461 567.35 868.661 567.35C866.741 567.35 864.821 566.87 862.901 565.91C861.041 564.89 859.361 563.45 857.861 561.59C856.421 559.67 855.221 557.36 854.261 554.66C853.361 551.9 852.911 548.78 852.911 545.3C852.911 541.82 853.361 538.73 854.261 536.03C855.221 533.27 856.481 530.96 858.041 529.1C859.601 527.18 861.371 525.74 863.351 524.78C865.331 523.76 867.401 523.25 869.561 523.25C871.241 523.25 872.681 523.49 873.881 523.97C875.081 524.45 876.071 524.96 876.851 525.5C877.751 526.16 878.471 526.91 879.011 527.75V505.25L873.611 503.9V503H886.211V563.75ZM921.311 543.95C916.091 543.95 912.221 545.12 909.701 547.46C907.241 549.74 906.011 552.92 906.011 557C906.011 559.7 906.671 561.8 907.991 563.3C909.311 564.8 910.751 565.55 912.311 565.55C913.751 565.55 915.011 565.13 916.091 564.29C917.231 563.45 918.191 562.52 918.971 561.5C919.871 560.36 920.651 559.01 921.311 557.45V543.95ZM914.561 524.6C912.761 524.6 911.261 525.23 910.061 526.49C908.861 527.69 908.261 529.31 908.261 531.35C908.261 531.83 908.261 532.25 908.261 532.61C908.321 532.97 908.381 533.3 908.441 533.6C908.501 533.9 908.591 534.2 908.711 534.5L901.511 536.3C901.391 536.12 901.301 535.88 901.241 535.58C901.181 535.28 901.121 534.95 901.061 534.59C901.061 534.23 901.061 533.75 901.061 533.15C901.061 531.89 901.361 530.69 901.961 529.55C902.561 528.35 903.431 527.3 904.571 526.4C905.771 525.44 907.181 524.69 908.801 524.15C910.481 523.55 912.401 523.25 914.561 523.25C918.881 523.25 922.271 524.48 924.731 526.94C927.251 529.4 928.511 532.67 928.511 536.75V563.75L933.911 565.1V566H921.311V560.6C920.651 561.86 919.811 563 918.791 564.02C917.951 564.86 916.871 565.61 915.551 566.27C914.291 566.99 912.761 567.35 910.961 567.35C906.641 567.35 903.371 566.33 901.151 564.29C898.991 562.25 897.911 559.52 897.911 556.1C897.911 554.42 898.361 552.74 899.261 551.06C900.221 549.38 901.631 547.88 903.491 546.56C905.411 545.24 907.841 544.19 910.781 543.41C913.721 542.57 917.231 542.15 921.311 542.15V536.75C921.311 532.25 920.621 529.1 919.241 527.3C917.921 525.5 916.361 524.6 914.561 524.6ZM957.746 525.05C956.486 525.05 955.256 525.41 954.056 526.13C952.916 526.79 951.866 527.9 950.906 529.46C950.006 531.02 949.256 533.09 948.656 535.67C948.116 538.25 947.846 541.46 947.846 545.3C947.846 549.14 948.116 552.35 948.656 554.93C949.256 557.51 949.976 559.61 950.816 561.23C951.716 562.79 952.676 563.9 953.696 564.56C954.776 565.22 955.826 565.55 956.846 565.55C958.286 565.55 959.546 565.13 960.626 564.29C961.766 563.45 962.726 562.52 963.506 561.5C964.406 560.36 965.186 559.01 965.846 557.45V530.45C965.246 529.43 964.556 528.53 963.776 527.75C963.116 527.09 962.276 526.49 961.256 525.95C960.296 525.35 959.126 525.05 957.746 525.05ZM973.046 563.75L978.446 565.1V566H965.846V560.6C965.186 561.86 964.346 563 963.326 564.02C962.486 564.86 961.406 565.61 960.086 566.27C958.826 566.99 957.296 567.35 955.496 567.35C953.576 567.35 951.656 566.87 949.736 565.91C947.876 564.89 946.196 563.45 944.696 561.59C943.256 559.67 942.056 557.36 941.096 554.66C940.196 551.9 939.746 548.78 939.746 545.3C939.746 541.82 940.196 538.73 941.096 536.03C942.056 533.27 943.316 530.96 944.876 529.1C946.436 527.18 948.206 525.74 950.186 524.78C952.166 523.76 954.236 523.25 956.396 523.25C958.076 523.25 959.516 523.49 960.716 523.97C961.916 524.45 962.906 524.96 963.686 525.5C964.586 526.16 965.306 526.91 965.846 527.75V505.25L960.446 503.9V503H973.046V563.75ZM993.296 545.3C993.296 549.14 993.566 552.35 994.106 554.93C994.706 557.51 995.456 559.61 996.356 561.23C997.316 562.79 998.366 563.9 999.506 564.56C1000.71 565.22 1001.94 565.55 1003.2 565.55C1004.76 565.55 1006.23 565.25 1007.61 564.65C1008.99 564.05 1010.22 563.24 1011.3 562.22C1012.38 561.2 1013.25 559.97 1013.91 558.53C1014.63 557.09 1015.11 555.53 1015.35 553.85H1016.7C1016.46 555.77 1015.92 557.57 1015.08 559.25C1014.3 560.87 1013.28 562.28 1012.02 563.48C1010.76 564.68 1009.29 565.61 1007.61 566.27C1005.99 566.99 1004.22 567.35 1002.3 567.35C1000.02 567.35 997.856 566.87 995.816 565.91C993.776 564.89 991.946 563.45 990.326 561.59C988.766 559.67 987.506 557.36 986.546 554.66C985.646 551.9 985.196 548.78 985.196 545.3C985.196 541.7 985.646 538.52 986.546 535.76C987.446 533 988.616 530.72 990.056 528.92C991.556 527.06 993.266 525.65 995.186 524.69C997.166 523.73 999.236 523.25 1001.4 523.25C1003.56 523.25 1005.6 523.73 1007.52 524.69C1009.5 525.65 1011.21 527.06 1012.65 528.92C1014.15 530.72 1015.35 533 1016.25 535.76C1017.15 538.52 1017.6 541.7 1017.6 545.3H993.296ZM1001.4 524.6C1000.5 524.6 999.596 524.9 998.696 525.5C997.796 526.04 996.956 527.03 996.176 528.47C995.396 529.91 994.736 531.86 994.196 534.32C993.716 536.72 993.416 539.78 993.296 543.5H1009.5C1009.38 539.78 1009.05 536.72 1008.51 534.32C1008.03 531.86 1007.4 529.91 1006.62 528.47C1005.84 527.03 1005 526.04 1004.1 525.5C1003.2 524.9 1002.3 524.6 1001.4 524.6ZM1064.45 525.05C1063.19 525.05 1061.96 525.41 1060.76 526.13C1059.62 526.79 1058.57 527.9 1057.61 529.46C1056.71 531.02 1055.96 533.09 1055.36 535.67C1054.82 538.25 1054.55 541.46 1054.55 545.3C1054.55 549.14 1054.82 552.35 1055.36 554.93C1055.96 557.51 1056.68 559.61 1057.52 561.23C1058.42 562.79 1059.38 563.9 1060.4 564.56C1061.48 565.22 1062.53 565.55 1063.55 565.55C1064.99 565.55 1066.25 565.13 1067.33 564.29C1068.47 563.45 1069.43 562.52 1070.21 561.5C1071.11 560.36 1071.89 559.01 1072.55 557.45V530.45C1071.95 529.43 1071.26 528.53 1070.48 527.75C1069.82 527.09 1068.98 526.49 1067.96 525.95C1067 525.35 1065.83 525.05 1064.45 525.05ZM1079.75 563.75L1085.15 565.1V566H1072.55V560.6C1071.89 561.86 1071.05 563 1070.03 564.02C1069.19 564.86 1068.11 565.61 1066.79 566.27C1065.53 566.99 1064 567.35 1062.2 567.35C1060.28 567.35 1058.36 566.87 1056.44 565.91C1054.58 564.89 1052.9 563.45 1051.4 561.59C1049.96 559.67 1048.76 557.36 1047.8 554.66C1046.9 551.9 1046.45 548.78 1046.45 545.3C1046.45 541.82 1046.9 538.73 1047.8 536.03C1048.76 533.27 1050.02 530.96 1051.58 529.1C1053.14 527.18 1054.91 525.74 1056.89 524.78C1058.87 523.76 1060.94 523.25 1063.1 523.25C1064.78 523.25 1066.22 523.49 1067.42 523.97C1068.62 524.45 1069.61 524.96 1070.39 525.5C1071.29 526.16 1072.01 526.91 1072.55 527.75V505.25L1067.15 503.9V503H1079.75V563.75ZM1100 545.3C1100 549.14 1100.27 552.35 1100.81 554.93C1101.41 557.51 1102.16 559.61 1103.06 561.23C1104.02 562.79 1105.07 563.9 1106.21 564.56C1107.41 565.22 1108.64 565.55 1109.9 565.55C1111.46 565.55 1112.93 565.25 1114.31 564.65C1115.69 564.05 1116.92 563.24 1118 562.22C1119.08 561.2 1119.95 559.97 1120.61 558.53C1121.33 557.09 1121.81 555.53 1122.05 553.85H1123.4C1123.16 555.77 1122.62 557.57 1121.78 559.25C1121 560.87 1119.98 562.28 1118.72 563.48C1117.46 564.68 1115.99 565.61 1114.31 566.27C1112.69 566.99 1110.92 567.35 1109 567.35C1106.72 567.35 1104.56 566.87 1102.52 565.91C1100.48 564.89 1098.65 563.45 1097.03 561.59C1095.47 559.67 1094.21 557.36 1093.25 554.66C1092.35 551.9 1091.9 548.78 1091.9 545.3C1091.9 541.7 1092.35 538.52 1093.25 535.76C1094.15 533 1095.32 530.72 1096.76 528.92C1098.26 527.06 1099.97 525.65 1101.89 524.69C1103.87 523.73 1105.94 523.25 1108.1 523.25C1110.26 523.25 1112.3 523.73 1114.22 524.69C1116.2 525.65 1117.91 527.06 1119.35 528.92C1120.85 530.72 1122.05 533 1122.95 535.76C1123.85 538.52 1124.3 541.7 1124.3 545.3H1100ZM1108.1 524.6C1107.2 524.6 1106.3 524.9 1105.4 525.5C1104.5 526.04 1103.66 527.03 1102.88 528.47C1102.1 529.91 1101.44 531.86 1100.9 534.32C1100.42 536.72 1100.12 539.78 1100 543.5H1116.2C1116.08 539.78 1115.75 536.72 1115.21 534.32C1114.73 531.86 1114.1 529.91 1113.32 528.47C1112.54 527.03 1111.7 526.04 1110.8 525.5C1109.9 524.9 1109 524.6 1108.1 524.6ZM217.11 661.95C217.11 660.57 217.59 659.4 218.55 658.44C219.51 657.48 220.68 657 222.06 657C223.44 657 224.61 657.48 225.57 658.44C226.53 659.4 227.01 660.57 227.01 661.95C227.01 663.33 226.53 664.5 225.57 665.46C224.61 666.42 223.44 666.9 222.06 666.9C220.68 666.9 219.51 666.42 218.55 665.46C217.59 664.5 217.11 663.33 217.11 661.95ZM234.248 661.95C234.248 660.57 234.728 659.4 235.688 658.44C236.648 657.48 237.818 657 239.198 657C240.578 657 241.748 657.48 242.708 658.44C243.668 659.4 244.148 660.57 244.148 661.95C244.148 663.33 243.668 664.5 242.708 665.46C241.748 666.42 240.578 666.9 239.198 666.9C237.818 666.9 236.648 666.42 235.688 665.46C234.728 664.5 234.248 663.33 234.248 661.95ZM251.387 661.95C251.387 660.57 251.867 659.4 252.827 658.44C253.787 657.48 254.957 657 256.337 657C257.717 657 258.887 657.48 259.847 658.44C260.807 659.4 261.287 660.57 261.287 661.95C261.287 663.33 260.807 664.5 259.847 665.46C258.887 666.42 257.717 666.9 256.337 666.9C254.957 666.9 253.787 666.42 252.827 665.46C251.867 664.5 251.387 663.33 251.387 661.95Z" fill="white"/>
<path d="M139.65 648C139.65 654.78 138.24 659.7 135.42 662.76C132.66 665.82 128.67 667.35 123.45 667.35C117.33 667.35 112.56 665.67 109.14 662.31C105.78 658.89 104.1 654.12 104.1 648V605.25L98.7 603.9V603H117.15V603.9L111.75 605.25V648C111.75 654.06 112.95 658.5 115.35 661.32C117.75 664.14 120.75 665.55 124.35 665.55C126.39 665.55 128.22 665.22 129.84 664.56C131.52 663.84 132.93 662.76 134.07 661.32C135.27 659.88 136.2 658.08 136.86 655.92C137.52 653.7 137.85 651.06 137.85 648V606.15L132 603.9V603H145.5V603.9L139.65 606.15V648ZM166.318 636.66L151.828 605.25L146.428 603.9V603H165.778V603.9L160.378 605.25L170.728 627.75L181.528 606.15L175.678 603.9V603H189.178V603.9L183.328 606.15L171.628 629.64L187.378 663.75L192.778 665.1V666H173.428V665.1L178.828 663.75L167.128 638.46L154.978 662.85L160.828 665.1V666H147.328V665.1L153.178 662.85L166.318 636.66Z" fill="black"/>
</svg>
