<svg width="1300" height="976" viewBox="0 0 1300 976" fill="none" xmlns="http://www.w3.org/2000/svg">
<path d="M122.15 497.55H103.7L99.2 512.85L105.05 515.1V516H91.55V515.1L97.4 512.85L114.95 451.65H116.3L135.2 513.75L140.6 515.1V516H121.7V515.1L127.1 513.75L122.15 497.55ZM104.15 495.84H121.61L112.61 466.05L104.15 495.84ZM154.508 513.75L159.908 515.1V516H141.908V515.1L147.308 513.75V476.85L141.908 475.5V474.6H154.508V485.4C155.288 483.18 156.218 481.17 157.298 479.37C158.258 477.81 159.428 476.4 160.808 475.14C162.188 473.88 163.838 473.25 165.758 473.25C166.418 473.25 167.048 473.31 167.648 473.43C168.248 473.49 168.788 473.58 169.268 473.7C169.808 473.88 170.288 474.03 170.708 474.15L168.008 480.9C167.648 480.72 167.258 480.51 166.838 480.27C166.478 480.09 166.028 479.94 165.488 479.82C165.008 479.64 164.498 479.55 163.958 479.55C162.398 479.55 161.018 479.97 159.818 480.81C158.618 481.65 157.628 482.58 156.848 483.6C155.888 484.8 155.108 486.15 154.508 487.65V513.75ZM192.361 515.55C193.741 515.55 194.911 515.28 195.871 514.74C196.891 514.14 197.731 513.51 198.391 512.85C199.171 512.07 199.861 511.17 200.461 510.15V483.15C199.801 481.65 199.021 480.3 198.121 479.1C197.341 478.08 196.381 477.15 195.241 476.31C194.161 475.47 192.901 475.05 191.461 475.05C190.441 475.05 189.391 475.41 188.311 476.13C187.291 476.79 186.331 477.9 185.431 479.46C184.591 481.02 183.871 483.09 183.271 485.67C182.731 488.25 182.461 491.46 182.461 495.3C182.461 499.14 182.731 502.35 183.271 504.93C183.871 507.51 184.621 509.61 185.521 511.23C186.481 512.79 187.531 513.9 188.671 514.56C189.871 515.22 191.101 515.55 192.361 515.55ZM207.661 535.35L213.061 536.7V537.6H195.061V536.7L200.461 535.35V512.85C199.921 513.69 199.201 514.44 198.301 515.1C197.521 515.7 196.531 516.21 195.331 516.63C194.131 517.11 192.691 517.35 191.011 517.35C188.851 517.35 186.781 516.87 184.801 515.91C182.821 514.89 181.051 513.45 179.491 511.59C177.931 509.67 176.671 507.36 175.711 504.66C174.811 501.9 174.361 498.78 174.361 495.3C174.361 491.82 174.811 488.73 175.711 486.03C176.671 483.27 177.871 480.96 179.311 479.1C180.811 477.18 182.491 475.74 184.351 474.78C186.271 473.76 188.191 473.25 190.111 473.25C191.911 473.25 193.441 473.61 194.701 474.33C196.021 475.05 197.101 475.83 197.941 476.67C198.961 477.69 199.801 478.8 200.461 480V474.6H213.061V475.5L207.661 476.85V535.35ZM252.211 476.85V513.75L257.611 515.1V516H245.011V510.6C244.351 511.86 243.511 513 242.491 514.02C241.651 514.86 240.571 515.61 239.251 516.27C237.991 516.99 236.461 517.35 234.661 517.35C232.861 517.35 231.181 517.02 229.621 516.36C228.121 515.7 226.801 514.8 225.661 513.66C224.521 512.46 223.621 511.05 222.961 509.43C222.361 507.75 222.061 505.89 222.061 503.85V476.85L216.661 475.5V474.6H234.211V475.5L229.261 476.85V503.85C229.261 508.11 229.921 511.14 231.241 512.94C232.621 514.68 234.211 515.55 236.011 515.55C237.451 515.55 238.711 515.13 239.791 514.29C240.931 513.45 241.891 512.52 242.671 511.5C243.571 510.36 244.351 509.01 245.011 507.45V476.85L240.061 475.5V474.6H257.611V475.5L252.211 476.85ZM269.3 513.75V476.85L263.9 475.5V474.6H276.5V513.75L281.9 515.1V516H263.9V515.1L269.3 513.75ZM276.95 464.25C276.95 465.39 276.47 466.44 275.51 467.4C274.61 468.3 273.59 468.75 272.45 468.75C271.31 468.75 270.26 468.3 269.3 467.4C268.4 466.44 267.95 465.39 267.95 464.25C267.95 463.11 268.4 462.09 269.3 461.19C270.26 460.23 271.31 459.75 272.45 459.75C273.59 459.75 274.61 460.23 275.51 461.19C276.47 462.09 276.95 463.11 276.95 464.25ZM310.229 474.6V476.4H299.879V505.11C299.879 508.77 300.539 511.44 301.859 513.12C303.179 514.74 304.619 515.55 306.179 515.55C308.219 515.55 309.929 514.8 311.309 513.3C312.749 511.74 313.589 509.49 313.829 506.55H315.179C314.939 509.97 313.889 512.64 312.029 514.56C310.229 516.42 307.979 517.35 305.279 517.35C301.439 517.35 298.379 516.24 296.099 514.02C293.819 511.74 292.679 508.8 292.679 505.2V476.4H285.029V474.6H292.679V464.25L299.879 459.3V474.6H310.229ZM327.392 495.3C327.392 499.14 327.662 502.35 328.202 504.93C328.802 507.51 329.552 509.61 330.452 511.23C331.412 512.79 332.462 513.9 333.602 514.56C334.802 515.22 336.032 515.55 337.292 515.55C338.852 515.55 340.322 515.25 341.702 514.65C343.082 514.05 344.312 513.24 345.392 512.22C346.472 511.2 347.342 509.97 348.002 508.53C348.722 507.09 349.202 505.53 349.442 503.85H350.792C350.552 505.77 350.012 507.57 349.172 509.25C348.392 510.87 347.372 512.28 346.112 513.48C344.852 514.68 343.382 515.61 341.702 516.27C340.082 516.99 338.312 517.35 336.392 517.35C334.112 517.35 331.952 516.87 329.912 515.91C327.872 514.89 326.042 513.45 324.422 511.59C322.862 509.67 321.602 507.36 320.642 504.66C319.742 501.9 319.292 498.78 319.292 495.3C319.292 491.7 319.742 488.52 320.642 485.76C321.542 483 322.712 480.72 324.152 478.92C325.652 477.06 327.362 475.65 329.282 474.69C331.262 473.73 333.332 473.25 335.492 473.25C337.652 473.25 339.692 473.73 341.612 474.69C343.592 475.65 345.302 477.06 346.742 478.92C348.242 480.72 349.442 483 350.342 485.76C351.242 488.52 351.692 491.7 351.692 495.3H327.392ZM335.492 474.6C334.592 474.6 333.692 474.9 332.792 475.5C331.892 476.04 331.052 477.03 330.272 478.47C329.492 479.91 328.832 481.86 328.292 484.32C327.812 486.72 327.512 489.78 327.392 493.5H343.592C343.472 489.78 343.142 486.72 342.602 484.32C342.122 481.86 341.492 479.91 340.712 478.47C339.932 477.03 339.092 476.04 338.192 475.5C337.292 474.9 336.392 474.6 335.492 474.6ZM381.42 474.6V476.4H371.07V505.11C371.07 508.77 371.73 511.44 373.05 513.12C374.37 514.74 375.81 515.55 377.37 515.55C379.41 515.55 381.12 514.8 382.5 513.3C383.94 511.74 384.78 509.49 385.02 506.55H386.37C386.13 509.97 385.08 512.64 383.22 514.56C381.42 516.42 379.17 517.35 376.47 517.35C372.63 517.35 369.57 516.24 367.29 514.02C365.01 511.74 363.87 508.8 363.87 505.2V476.4H356.22V474.6H363.87V464.25L371.07 459.3V474.6H381.42ZM424.213 476.85V513.75L429.613 515.1V516H417.013V510.6C416.353 511.86 415.513 513 414.493 514.02C413.653 514.86 412.573 515.61 411.253 516.27C409.993 516.99 408.463 517.35 406.663 517.35C404.863 517.35 403.183 517.02 401.623 516.36C400.123 515.7 398.803 514.8 397.663 513.66C396.523 512.46 395.623 511.05 394.963 509.43C394.363 507.75 394.063 505.89 394.063 503.85V476.85L388.663 475.5V474.6H406.213V475.5L401.263 476.85V503.85C401.263 508.11 401.923 511.14 403.243 512.94C404.623 514.68 406.213 515.55 408.013 515.55C409.453 515.55 410.713 515.13 411.793 514.29C412.933 513.45 413.893 512.52 414.673 511.5C415.573 510.36 416.353 509.01 417.013 507.45V476.85L412.063 475.5V474.6H429.613V475.5L424.213 476.85ZM448.502 513.75L453.902 515.1V516H435.902V515.1L441.302 513.75V476.85L435.902 475.5V474.6H448.502V485.4C449.282 483.18 450.212 481.17 451.292 479.37C452.252 477.81 453.422 476.4 454.802 475.14C456.182 473.88 457.832 473.25 459.752 473.25C460.412 473.25 461.042 473.31 461.642 473.43C462.242 473.49 462.782 473.58 463.262 473.7C463.802 473.88 464.282 474.03 464.702 474.15L462.002 480.9C461.642 480.72 461.252 480.51 460.832 480.27C460.472 480.09 460.022 479.94 459.482 479.82C459.002 479.64 458.492 479.55 457.952 479.55C456.392 479.55 455.012 479.97 453.812 480.81C452.612 481.65 451.622 482.58 450.842 483.6C449.882 484.8 449.102 486.15 448.502 487.65V513.75ZM492.184 493.95C486.964 493.95 483.094 495.12 480.574 497.46C478.114 499.74 476.884 502.92 476.884 507C476.884 509.7 477.544 511.8 478.864 513.3C480.184 514.8 481.624 515.55 483.184 515.55C484.624 515.55 485.884 515.13 486.964 514.29C488.104 513.45 489.064 512.52 489.844 511.5C490.744 510.36 491.524 509.01 492.184 507.45V493.95ZM485.434 474.6C483.634 474.6 482.134 475.23 480.934 476.49C479.734 477.69 479.134 479.31 479.134 481.35C479.134 481.83 479.134 482.25 479.134 482.61C479.194 482.97 479.254 483.3 479.314 483.6C479.374 483.9 479.464 484.2 479.584 484.5L472.384 486.3C472.264 486.12 472.174 485.88 472.114 485.58C472.054 485.28 471.994 484.95 471.934 484.59C471.934 484.23 471.934 483.75 471.934 483.15C471.934 481.89 472.234 480.69 472.834 479.55C473.434 478.35 474.304 477.3 475.444 476.4C476.644 475.44 478.054 474.69 479.674 474.15C481.354 473.55 483.274 473.25 485.434 473.25C489.754 473.25 493.144 474.48 495.604 476.94C498.124 479.4 499.384 482.67 499.384 486.75V513.75L504.784 515.1V516H492.184V510.6C491.524 511.86 490.684 513 489.664 514.02C488.824 514.86 487.744 515.61 486.424 516.27C485.164 516.99 483.634 517.35 481.834 517.35C477.514 517.35 474.244 516.33 472.024 514.29C469.864 512.25 468.784 509.52 468.784 506.1C468.784 504.42 469.234 502.74 470.134 501.06C471.094 499.38 472.504 497.88 474.364 496.56C476.284 495.24 478.714 494.19 481.654 493.41C484.594 492.57 488.104 492.15 492.184 492.15V486.75C492.184 482.25 491.494 479.1 490.114 477.3C488.794 475.5 487.234 474.6 485.434 474.6ZM550.241 475.05C548.981 475.05 547.751 475.41 546.551 476.13C545.411 476.79 544.361 477.9 543.401 479.46C542.501 481.02 541.751 483.09 541.151 485.67C540.611 488.25 540.341 491.46 540.341 495.3C540.341 499.14 540.611 502.35 541.151 504.93C541.751 507.51 542.471 509.61 543.311 511.23C544.211 512.79 545.171 513.9 546.191 514.56C547.271 515.22 548.321 515.55 549.341 515.55C550.781 515.55 552.041 515.13 553.121 514.29C554.261 513.45 555.221 512.52 556.001 511.5C556.901 510.36 557.681 509.01 558.341 507.45V480.45C557.741 479.43 557.051 478.53 556.271 477.75C555.611 477.09 554.771 476.49 553.751 475.95C552.791 475.35 551.621 475.05 550.241 475.05ZM565.541 513.75L570.941 515.1V516H558.341V510.6C557.681 511.86 556.841 513 555.821 514.02C554.981 514.86 553.901 515.61 552.581 516.27C551.321 516.99 549.791 517.35 547.991 517.35C546.071 517.35 544.151 516.87 542.231 515.91C540.371 514.89 538.691 513.45 537.191 511.59C535.751 509.67 534.551 507.36 533.591 504.66C532.691 501.9 532.241 498.78 532.241 495.3C532.241 491.82 532.691 488.73 533.591 486.03C534.551 483.27 535.811 480.96 537.371 479.1C538.931 477.18 540.701 475.74 542.681 474.78C544.661 473.76 546.731 473.25 548.891 473.25C550.571 473.25 552.011 473.49 553.211 473.97C554.411 474.45 555.401 474.96 556.181 475.5C557.081 476.16 557.801 476.91 558.341 477.75V455.25L552.941 453.9V453H565.541V513.75ZM585.791 495.3C585.791 499.14 586.061 502.35 586.601 504.93C587.201 507.51 587.951 509.61 588.851 511.23C589.811 512.79 590.861 513.9 592.001 514.56C593.201 515.22 594.431 515.55 595.691 515.55C597.251 515.55 598.721 515.25 600.101 514.65C601.481 514.05 602.711 513.24 603.791 512.22C604.871 511.2 605.741 509.97 606.401 508.53C607.121 507.09 607.601 505.53 607.841 503.85H609.191C608.951 505.77 608.411 507.57 607.571 509.25C606.791 510.87 605.771 512.28 604.511 513.48C603.251 514.68 601.781 515.61 600.101 516.27C598.481 516.99 596.711 517.35 594.791 517.35C592.511 517.35 590.351 516.87 588.311 515.91C586.271 514.89 584.441 513.45 582.821 511.59C581.261 509.67 580.001 507.36 579.041 504.66C578.141 501.9 577.691 498.78 577.691 495.3C577.691 491.7 578.141 488.52 579.041 485.76C579.941 483 581.111 480.72 582.551 478.92C584.051 477.06 585.761 475.65 587.681 474.69C589.661 473.73 591.731 473.25 593.891 473.25C596.051 473.25 598.091 473.73 600.011 474.69C601.991 475.65 603.701 477.06 605.141 478.92C606.641 480.72 607.841 483 608.741 485.76C609.641 488.52 610.091 491.7 610.091 495.3H585.791ZM593.891 474.6C592.991 474.6 592.091 474.9 591.191 475.5C590.291 476.04 589.451 477.03 588.671 478.47C587.891 479.91 587.231 481.86 586.691 484.32C586.211 486.72 585.911 489.78 585.791 493.5H601.991C601.871 489.78 601.541 486.72 601.001 484.32C600.521 481.86 599.891 479.91 599.111 478.47C598.331 477.03 597.491 476.04 596.591 475.5C595.691 474.9 594.791 474.6 593.891 474.6ZM652.44 513.75L657.84 515.1V516H639.39V515.1L644.79 513.75V455.25L639.39 453.9V453H657.84V453.9L652.44 455.25V513.75ZM670.433 513.75V476.85L665.033 475.5V474.6H677.633V480C678.233 478.8 679.043 477.69 680.063 476.67C680.903 475.83 681.983 475.05 683.303 474.33C684.623 473.61 686.183 473.25 687.983 473.25C689.783 473.25 691.433 473.58 692.933 474.24C694.493 474.9 695.843 475.83 696.983 477.03C698.123 478.17 698.993 479.58 699.593 481.26C700.253 482.88 700.583 484.71 700.583 486.75V513.75L705.983 515.1V516H688.433V515.1L693.383 513.75V486.75C693.383 482.49 692.693 479.49 691.313 477.75C689.993 475.95 688.433 475.05 686.633 475.05C685.133 475.05 683.843 475.47 682.763 476.31C681.683 477.15 680.753 478.08 679.973 479.1C679.073 480.3 678.293 481.65 677.633 483.15V513.75L682.583 515.1V516H665.033V515.1L670.433 513.75ZM738.843 460.65C738.843 461.67 738.663 462.6 738.303 463.44C738.003 464.22 737.643 464.91 737.223 465.51C736.743 466.17 736.233 466.8 735.693 467.4L728.943 464.7C729.483 464.1 729.993 463.47 730.473 462.81C730.893 462.21 731.253 461.52 731.553 460.74C731.913 459.9 732.093 458.97 732.093 457.95C732.093 456.39 731.673 455.19 730.833 454.35C730.053 453.45 728.973 453 727.593 453C726.933 453 726.303 453.18 725.703 453.54C725.103 453.84 724.563 454.41 724.083 455.25C723.663 456.03 723.303 457.11 723.003 458.49C722.763 459.87 722.643 461.64 722.643 463.8V474.6H735.243V476.4H722.643V513.75L728.043 515.1V516H710.043V515.1L715.443 513.75V476.4H710.043V474.6H715.443V463.8C715.443 460.2 716.553 457.29 718.773 455.07C721.053 452.79 723.993 451.65 727.593 451.65C729.273 451.65 730.803 451.92 732.183 452.46C733.563 452.94 734.733 453.6 735.693 454.44C736.713 455.28 737.493 456.24 738.033 457.32C738.573 458.4 738.843 459.51 738.843 460.65ZM755.543 474.6C754.523 474.6 753.473 474.96 752.393 475.68C751.373 476.34 750.413 477.48 749.513 479.1C748.673 480.66 747.953 482.76 747.353 485.4C746.813 488.04 746.543 491.34 746.543 495.3C746.543 499.26 746.813 502.56 747.353 505.2C747.953 507.84 748.673 509.97 749.513 511.59C750.413 513.15 751.373 514.29 752.393 515.01C753.473 515.67 754.523 516 755.543 516C756.563 516 757.583 515.67 758.603 515.01C759.683 514.29 760.643 513.15 761.483 511.59C762.383 509.97 763.103 507.84 763.643 505.2C764.243 502.56 764.543 499.26 764.543 495.3C764.543 491.34 764.243 488.04 763.643 485.4C763.103 482.76 762.383 480.66 761.483 479.1C760.643 477.48 759.683 476.34 758.603 475.68C757.583 474.96 756.563 474.6 755.543 474.6ZM755.543 473.25C757.763 473.25 759.893 473.76 761.933 474.78C764.033 475.74 765.863 477.18 767.423 479.1C769.043 480.96 770.303 483.27 771.203 486.03C772.163 488.73 772.643 491.82 772.643 495.3C772.643 498.78 772.163 501.9 771.203 504.66C770.303 507.36 769.043 509.67 767.423 511.59C765.863 513.45 764.033 514.89 761.933 515.91C759.893 516.87 757.763 517.35 755.543 517.35C753.263 517.35 751.103 516.87 749.063 515.91C747.023 514.89 745.193 513.45 743.573 511.59C742.013 509.67 740.753 507.36 739.793 504.66C738.893 501.9 738.443 498.78 738.443 495.3C738.443 491.82 738.893 488.73 739.793 486.03C740.753 483.27 742.013 480.96 743.573 479.1C745.193 477.18 747.023 475.74 749.063 474.78C751.103 473.76 753.263 473.25 755.543 473.25ZM792.418 513.75L797.818 515.1V516H779.818V515.1L785.218 513.75V476.85L779.818 475.5V474.6H792.418V485.4C793.198 483.18 794.128 481.17 795.208 479.37C796.168 477.81 797.338 476.4 798.718 475.14C800.098 473.88 801.748 473.25 803.668 473.25C804.328 473.25 804.958 473.31 805.558 473.43C806.158 473.49 806.698 473.58 807.178 473.7C807.718 473.88 808.198 474.03 808.618 474.15L805.918 480.9C805.558 480.72 805.168 480.51 804.748 480.27C804.388 480.09 803.938 479.94 803.398 479.82C802.918 479.64 802.408 479.55 801.868 479.55C800.308 479.55 798.928 479.97 797.728 480.81C796.528 481.65 795.538 482.58 794.758 483.6C793.798 484.8 793.018 486.15 792.418 487.65V513.75ZM817.65 513.75V476.85L812.25 475.5V474.6H824.85V480C825.45 478.8 826.26 477.69 827.28 476.67C828.12 475.83 829.2 475.05 830.52 474.33C831.84 473.61 833.4 473.25 835.2 473.25C837.48 473.25 839.34 473.67 840.78 474.51C842.28 475.35 843.48 476.28 844.38 477.3C845.46 478.5 846.3 479.85 846.9 481.35C847.68 479.85 848.61 478.5 849.69 477.3C850.65 476.28 851.82 475.35 853.2 474.51C854.58 473.67 856.23 473.25 858.15 473.25C859.95 473.25 861.6 473.58 863.1 474.24C864.66 474.9 866.01 475.83 867.15 477.03C868.29 478.17 869.16 479.58 869.76 481.26C870.42 482.88 870.75 484.71 870.75 486.75V513.75L876.15 515.1V516H858.6V515.1L863.55 513.75V486.75C863.55 482.49 862.86 479.49 861.48 477.75C860.16 475.95 858.6 475.05 856.8 475.05C855.3 475.05 854.01 475.47 852.93 476.31C851.85 477.15 850.92 478.08 850.14 479.1C849.24 480.3 848.46 481.65 847.8 483.15V513.75L852.75 515.1V516H835.65V515.1L840.6 513.75V486.75C840.6 482.49 839.91 479.49 838.53 477.75C837.21 475.95 835.65 475.05 833.85 475.05C832.35 475.05 831.06 475.47 829.98 476.31C828.9 477.15 827.97 478.08 827.19 479.1C826.29 480.3 825.51 481.65 824.85 483.15V513.75L829.8 515.1V516H812.25V515.1L817.65 513.75ZM905.357 493.95C900.137 493.95 896.267 495.12 893.747 497.46C891.287 499.74 890.057 502.92 890.057 507C890.057 509.7 890.717 511.8 892.037 513.3C893.357 514.8 894.797 515.55 896.357 515.55C897.797 515.55 899.057 515.13 900.137 514.29C901.277 513.45 902.237 512.52 903.017 511.5C903.917 510.36 904.697 509.01 905.357 507.45V493.95ZM898.607 474.6C896.807 474.6 895.307 475.23 894.107 476.49C892.907 477.69 892.307 479.31 892.307 481.35C892.307 481.83 892.307 482.25 892.307 482.61C892.367 482.97 892.427 483.3 892.487 483.6C892.547 483.9 892.637 484.2 892.757 484.5L885.557 486.3C885.437 486.12 885.347 485.88 885.287 485.58C885.227 485.28 885.167 484.95 885.107 484.59C885.107 484.23 885.107 483.75 885.107 483.15C885.107 481.89 885.407 480.69 886.007 479.55C886.607 478.35 887.477 477.3 888.617 476.4C889.817 475.44 891.227 474.69 892.847 474.15C894.527 473.55 896.447 473.25 898.607 473.25C902.927 473.25 906.317 474.48 908.777 476.94C911.297 479.4 912.557 482.67 912.557 486.75V513.75L917.957 515.1V516H905.357V510.6C904.697 511.86 903.857 513 902.837 514.02C901.997 514.86 900.917 515.61 899.597 516.27C898.337 516.99 896.807 517.35 895.007 517.35C890.687 517.35 887.417 516.33 885.197 514.29C883.037 512.25 881.957 509.52 881.957 506.1C881.957 504.42 882.407 502.74 883.307 501.06C884.267 499.38 885.677 497.88 887.537 496.56C889.457 495.24 891.887 494.19 894.827 493.41C897.767 492.57 901.277 492.15 905.357 492.15V486.75C905.357 482.25 904.667 479.1 903.287 477.3C901.967 475.5 900.407 474.6 898.607 474.6ZM941.793 475.05C940.653 475.05 939.513 475.41 938.373 476.13C937.293 476.79 936.303 477.9 935.403 479.46C934.503 481.02 933.753 483.09 933.153 485.67C932.613 488.25 932.343 491.46 932.343 495.3C932.343 499.14 932.613 502.35 933.153 504.93C933.753 507.51 934.533 509.61 935.493 511.23C936.453 512.79 937.533 513.9 938.733 514.56C939.993 515.22 941.313 515.55 942.693 515.55C944.253 515.55 945.723 515.25 947.103 514.65C948.483 514.05 949.713 513.24 950.793 512.22C951.873 511.2 952.743 509.97 953.403 508.53C954.123 507.09 954.603 505.53 954.843 503.85H956.193C955.953 505.77 955.413 507.57 954.573 509.25C953.793 510.87 952.773 512.28 951.513 513.48C950.253 514.68 948.783 515.61 947.103 516.27C945.483 516.99 943.713 517.35 941.793 517.35C939.453 517.35 937.203 516.87 935.043 515.91C932.943 514.89 931.083 513.45 929.463 511.59C927.843 509.67 926.553 507.36 925.593 504.66C924.693 501.9 924.243 498.78 924.243 495.3C924.243 491.82 924.693 488.73 925.593 486.03C926.553 483.27 927.813 480.96 929.373 479.1C930.933 477.18 932.703 475.74 934.683 474.78C936.663 473.76 938.733 473.25 940.893 473.25C942.333 473.25 943.593 473.49 944.673 473.97C945.813 474.45 946.773 474.96 947.553 475.5C948.453 476.16 949.233 476.91 949.893 477.75C950.133 476.85 950.613 476.01 951.333 475.23C952.113 474.45 952.833 473.94 953.493 473.7H954.843C954.723 474.48 954.633 475.29 954.573 476.13C954.513 476.85 954.453 477.63 954.393 478.47C954.393 479.31 954.393 480.12 954.393 480.9C954.393 481.8 954.393 482.73 954.393 483.69C954.453 484.59 954.513 485.4 954.573 486.12C954.633 486.96 954.723 487.77 954.843 488.55H953.493C952.353 484.23 950.673 480.9 948.453 478.56C946.293 476.22 944.073 475.05 941.793 475.05ZM939.093 516H941.343V519.15C943.623 519.15 945.303 519.66 946.383 520.68C947.523 521.7 948.093 522.99 948.093 524.55C948.093 526.11 947.463 527.4 946.203 528.42C945.003 529.44 942.933 529.95 939.993 529.95C939.393 529.95 938.883 529.92 938.463 529.86C938.043 529.86 937.683 529.83 937.383 529.77C937.023 529.71 936.693 529.62 936.393 529.5V527.61C936.633 527.73 936.903 527.82 937.203 527.88C937.743 528.06 938.373 528.15 939.093 528.15C940.473 528.15 941.493 527.76 942.153 526.98C942.813 526.26 943.143 525.45 943.143 524.55C943.143 523.41 942.813 522.45 942.153 521.67C941.493 520.89 940.473 520.5 939.093 520.5V516ZM985.865 493.95C980.645 493.95 976.775 495.12 974.255 497.46C971.795 499.74 970.565 502.92 970.565 507C970.565 509.7 971.225 511.8 972.545 513.3C973.865 514.8 975.305 515.55 976.865 515.55C978.305 515.55 979.565 515.13 980.645 514.29C981.785 513.45 982.745 512.52 983.525 511.5C984.425 510.36 985.205 509.01 985.865 507.45V493.95ZM979.115 474.6C977.315 474.6 975.815 475.23 974.615 476.49C973.415 477.69 972.815 479.31 972.815 481.35C972.815 481.83 972.815 482.25 972.815 482.61C972.875 482.97 972.935 483.3 972.995 483.6C973.055 483.9 973.145 484.2 973.265 484.5L966.065 486.3C965.945 486.12 965.855 485.88 965.795 485.58C965.735 485.28 965.675 484.95 965.615 484.59C965.615 484.23 965.615 483.75 965.615 483.15C965.615 481.89 965.915 480.69 966.515 479.55C967.115 478.35 967.985 477.3 969.125 476.4C970.325 475.44 971.735 474.69 973.355 474.15C975.035 473.55 976.955 473.25 979.115 473.25C983.435 473.25 986.825 474.48 989.285 476.94C991.805 479.4 993.065 482.67 993.065 486.75V513.75L998.465 515.1V516H985.865V510.6C985.205 511.86 984.365 513 983.345 514.02C982.505 514.86 981.425 515.61 980.105 516.27C978.845 516.99 977.315 517.35 975.515 517.35C971.195 517.35 967.925 516.33 965.705 514.29C963.545 512.25 962.465 509.52 962.465 506.1C962.465 504.42 962.915 502.74 963.815 501.06C964.775 499.38 966.185 497.88 968.045 496.56C969.965 495.24 972.395 494.19 975.335 493.41C978.275 492.57 981.785 492.15 985.865 492.15V486.75C985.865 482.25 985.175 479.1 983.795 477.3C982.475 475.5 980.915 474.6 979.115 474.6ZM988.835 459.21C988.835 462.39 988.235 464.7 987.035 466.14C985.895 467.52 984.545 468.21 982.985 468.21C982.085 468.21 981.275 467.97 980.555 467.49C979.835 466.95 979.145 466.38 978.485 465.78C977.885 465.12 977.285 464.55 976.685 464.07C976.145 463.53 975.545 463.26 974.885 463.26C973.985 463.26 973.235 463.59 972.635 464.25C972.035 464.91 971.735 465.93 971.735 467.31H970.385C970.385 464.13 970.955 461.85 972.095 460.47C973.295 459.03 974.675 458.31 976.235 458.31C977.135 458.31 977.945 458.58 978.665 459.12C979.385 459.6 980.045 460.17 980.645 460.83C981.305 461.43 981.905 462 982.445 462.54C983.045 463.02 983.675 463.26 984.335 463.26C985.235 463.26 985.985 462.93 986.585 462.27C987.185 461.61 987.485 460.59 987.485 459.21H988.835ZM1021.85 474.6C1020.83 474.6 1019.78 474.96 1018.7 475.68C1017.68 476.34 1016.72 477.48 1015.82 479.1C1014.98 480.66 1014.26 482.76 1013.66 485.4C1013.12 488.04 1012.85 491.34 1012.85 495.3C1012.85 499.26 1013.12 502.56 1013.66 505.2C1014.26 507.84 1014.98 509.97 1015.82 511.59C1016.72 513.15 1017.68 514.29 1018.7 515.01C1019.78 515.67 1020.83 516 1021.85 516C1022.87 516 1023.89 515.67 1024.91 515.01C1025.99 514.29 1026.95 513.15 1027.79 511.59C1028.69 509.97 1029.41 507.84 1029.95 505.2C1030.55 502.56 1030.85 499.26 1030.85 495.3C1030.85 491.34 1030.55 488.04 1029.95 485.4C1029.41 482.76 1028.69 480.66 1027.79 479.1C1026.95 477.48 1025.99 476.34 1024.91 475.68C1023.89 474.96 1022.87 474.6 1021.85 474.6ZM1021.85 473.25C1024.07 473.25 1026.2 473.76 1028.24 474.78C1030.34 475.74 1032.17 477.18 1033.73 479.1C1035.35 480.96 1036.61 483.27 1037.51 486.03C1038.47 488.73 1038.95 491.82 1038.95 495.3C1038.95 498.78 1038.47 501.9 1037.51 504.66C1036.61 507.36 1035.35 509.67 1033.73 511.59C1032.17 513.45 1030.34 514.89 1028.24 515.91C1026.2 516.87 1024.07 517.35 1021.85 517.35C1019.57 517.35 1017.41 516.87 1015.37 515.91C1013.33 514.89 1011.5 513.45 1009.88 511.59C1008.32 509.67 1007.06 507.36 1006.1 504.66C1005.2 501.9 1004.75 498.78 1004.75 495.3C1004.75 491.82 1005.2 488.73 1006.1 486.03C1007.06 483.27 1008.32 480.96 1009.88 479.1C1011.5 477.18 1013.33 475.74 1015.37 474.78C1017.41 473.76 1019.57 473.25 1021.85 473.25Z" fill="black"/>
</svg>
