<svg width="3297" height="1819" viewBox="0 0 3297 1819" fill="none" xmlns="http://www.w3.org/2000/svg">
<rect width="3297" height="1819" fill="#34D4C7"/>
<path d="M777.73 1295V1087H798.4V1295H777.73ZM812.31 1295V1276.41H846.76V1295H812.31ZM812.31 1199.71V1181.12H844.16V1199.71H812.31ZM812.31 1105.59V1087H846.76V1105.59H812.31ZM862.277 1263.02C862.19 1259.03 862.147 1255.22 862.147 1251.58C862.233 1247.94 862.363 1244.21 862.537 1240.4H881.387C881.127 1245.77 880.997 1250.5 880.997 1254.57C881.083 1258.56 881.127 1262.07 881.127 1265.1C881.213 1269.78 882.037 1273.29 883.597 1275.63C885.243 1277.88 887.887 1279.4 891.527 1280.18V1296.69C881.04 1295.82 873.63 1292.75 869.297 1287.46C865.05 1282.09 862.71 1273.94 862.277 1263.02ZM905.307 1296.69V1280.31C909.38 1279.62 912.327 1278.1 914.147 1275.76C915.967 1273.33 916.963 1269.74 917.137 1264.97C917.223 1262.46 917.267 1260.29 917.267 1258.47C917.267 1256.65 917.267 1254.92 917.267 1253.27C917.267 1251.54 917.223 1249.63 917.137 1247.55C916.963 1241.4 916.097 1236.89 914.537 1234.03C912.977 1231.08 909.727 1228.83 904.787 1227.27L890.487 1223.24C883.64 1221.25 878.18 1218.78 874.107 1215.83C870.033 1212.8 867.043 1208.9 865.137 1204.13C863.317 1199.28 862.277 1193.04 862.017 1185.41C861.93 1182.29 861.887 1179.73 861.887 1177.74C861.887 1175.66 861.93 1173.49 862.017 1171.24C862.277 1160.15 864.66 1151.91 869.167 1146.54C873.76 1141.17 881.603 1138.09 892.697 1137.31V1153.69C889.143 1154.47 886.587 1155.99 885.027 1158.24C883.553 1160.49 882.73 1163.96 882.557 1168.64C882.557 1170.2 882.513 1172.28 882.427 1174.88C882.34 1177.48 882.297 1180.3 882.297 1183.33C882.47 1189.48 883.25 1194.42 884.637 1198.15C886.023 1201.88 889.447 1204.52 894.907 1206.08L908.427 1209.59C918.133 1212.1 925.283 1216.18 929.877 1221.81C934.47 1227.36 936.767 1235.72 936.767 1246.9C936.767 1250.02 936.767 1252.79 936.767 1255.22C936.767 1257.56 936.68 1260.33 936.507 1263.54C936.16 1274.37 933.647 1282.43 928.967 1287.72C924.373 1292.92 916.487 1295.91 905.307 1296.69ZM916.097 1193.21C916.27 1190.35 916.357 1187.4 916.357 1184.37C916.357 1181.25 916.357 1178.3 916.357 1175.53C916.357 1172.76 916.313 1170.42 916.227 1168.51C916.14 1164 915.36 1160.62 913.887 1158.37C912.5 1156.03 910.03 1154.56 906.477 1153.95V1137.31C916.79 1138.18 924.157 1141.25 928.577 1146.54C932.997 1151.83 935.423 1159.97 935.857 1170.98C935.857 1172.28 935.857 1174.32 935.857 1177.09C935.857 1179.78 935.813 1182.59 935.727 1185.54C935.727 1188.49 935.597 1191.04 935.337 1193.21H916.097ZM950.106 1155.12V1139H962.586V1094.8H983.386V1264.97C983.386 1271.21 984.513 1275.46 986.766 1277.71C989.106 1279.88 993.743 1280.96 1000.68 1280.96C1003.36 1280.96 1005.62 1280.92 1007.44 1280.83C1009.34 1280.66 1011.51 1280.44 1013.94 1280.18V1295.65C1011.86 1296.08 1009.69 1296.39 1007.44 1296.56C1005.27 1296.82 1002.93 1296.95 1000.42 1296.95C986.463 1296.95 976.669 1294.35 971.036 1289.15C965.403 1283.95 962.586 1275.11 962.586 1262.63V1155.12H950.106ZM993.266 1155.12V1139H1010.95V1155.12H993.266ZM1030.28 1263.8V1139H1051.21L1051.34 1265.49C1051.34 1271.04 1052.47 1275.02 1054.72 1277.45C1057.06 1279.88 1060.83 1281.09 1066.03 1281.09C1069.58 1281.09 1072.7 1280.44 1075.39 1279.14V1292.4C1070.8 1295.43 1065.42 1296.95 1059.27 1296.95C1049.82 1296.95 1042.63 1294.35 1037.69 1289.15C1032.75 1283.95 1030.28 1275.5 1030.28 1263.8ZM1089.17 1295V1139H1110.1V1295H1089.17ZM1063.3 1128.6L1085.01 1098.18H1101.26L1079.03 1128.6H1063.3ZM1136.8 1264.06C1136.54 1256.95 1136.36 1249.33 1136.28 1241.18C1136.19 1232.95 1136.15 1224.67 1136.15 1216.35C1136.23 1207.94 1136.32 1199.75 1136.41 1191.78C1136.49 1183.81 1136.62 1176.53 1136.8 1169.94C1137.14 1157.98 1139.79 1149.53 1144.73 1144.59C1149.75 1139.56 1156.82 1137.05 1165.92 1137.05C1169.38 1137.05 1172.42 1137.4 1175.02 1138.09C1177.62 1138.78 1179.96 1139.87 1182.04 1141.34V1154.6C1179.35 1153.39 1176.27 1152.78 1172.81 1152.78C1167.52 1152.78 1163.75 1153.99 1161.5 1156.42C1159.24 1158.76 1158.03 1162.62 1157.86 1167.99C1157.42 1178.74 1157.12 1189.92 1156.95 1201.53C1156.86 1213.14 1156.86 1224.41 1156.95 1235.33C1157.12 1246.25 1157.34 1256.09 1157.6 1264.84C1157.77 1270.91 1159.07 1275.15 1161.5 1277.58C1163.92 1279.92 1167.65 1281.09 1172.68 1281.09C1176.32 1281.09 1179.44 1280.53 1182.04 1279.4V1292.4C1179.87 1293.87 1177.44 1295 1174.76 1295.78C1172.07 1296.56 1168.95 1296.95 1165.4 1296.95C1155.86 1296.95 1148.8 1294.39 1144.21 1289.28C1139.7 1284.08 1137.23 1275.67 1136.8 1264.06ZM1195.56 1295V1087H1216.62V1295H1195.56ZM1242.14 1107.8V1087H1269.44V1107.8H1242.14ZM1245.52 1295V1139H1266.19V1295H1245.52ZM1293.08 1260.42C1292.82 1255.13 1292.6 1248.89 1292.43 1241.7C1292.34 1234.42 1292.3 1226.79 1292.3 1218.82C1292.3 1210.85 1292.34 1202.96 1292.43 1195.16C1292.6 1187.27 1292.82 1180.12 1293.08 1173.71C1293.69 1161.58 1296.37 1152.69 1301.14 1147.06C1305.99 1141.34 1314.14 1138.09 1325.58 1137.31V1153.82C1321.33 1154.6 1318.3 1156.25 1316.48 1158.76C1314.75 1161.19 1313.79 1164.78 1313.62 1169.55C1313.36 1176.48 1313.14 1183.81 1312.97 1191.52C1312.8 1199.23 1312.71 1207.16 1312.71 1215.31C1312.71 1223.46 1312.75 1231.69 1312.84 1240.01C1313.01 1248.24 1313.27 1256.35 1313.62 1264.32C1313.79 1269.09 1314.79 1272.77 1316.61 1275.37C1318.43 1277.88 1321.42 1279.53 1325.58 1280.31V1296.69C1314.14 1295.82 1305.95 1292.53 1301.01 1286.81C1296.16 1281.09 1293.51 1272.29 1293.08 1260.42ZM1339.36 1296.69V1280.31C1343.52 1279.44 1346.47 1277.75 1348.2 1275.24C1349.93 1272.73 1350.89 1269.22 1351.06 1264.71C1351.32 1256.82 1351.54 1248.98 1351.71 1241.18C1351.88 1233.29 1351.97 1225.41 1351.97 1217.52C1352.06 1209.55 1352.01 1201.53 1351.84 1193.47C1351.67 1185.41 1351.41 1177.31 1351.06 1169.16C1350.89 1164.48 1349.89 1160.93 1348.07 1158.5C1346.34 1156.07 1343.43 1154.47 1339.36 1153.69V1137.31C1347.07 1137.83 1353.23 1139.48 1357.82 1142.25C1362.41 1144.94 1365.79 1148.88 1367.96 1154.08C1370.13 1159.19 1371.38 1165.74 1371.73 1173.71C1371.99 1179.6 1372.16 1186.19 1372.25 1193.47C1372.42 1200.75 1372.51 1208.29 1372.51 1216.09C1372.51 1223.8 1372.42 1231.47 1372.25 1239.1C1372.16 1246.73 1371.99 1253.83 1371.73 1260.42C1371.3 1268.39 1370 1274.94 1367.83 1280.05C1365.75 1285.16 1362.41 1289.11 1357.82 1291.88C1353.23 1294.57 1347.07 1296.17 1339.36 1296.69ZM774.22 1494.06C773.96 1486.95 773.787 1479.33 773.7 1471.18C773.613 1462.95 773.57 1454.67 773.57 1446.35C773.657 1437.94 773.743 1429.75 773.83 1421.78C773.917 1413.81 774.047 1406.53 774.22 1399.94C774.567 1387.98 777.21 1379.53 782.15 1374.59C787.177 1369.56 794.24 1367.05 803.34 1367.05C806.807 1367.05 809.84 1367.4 812.44 1368.09C815.04 1368.78 817.38 1369.87 819.46 1371.34V1384.6C816.773 1383.39 813.697 1382.78 810.23 1382.78C804.943 1382.78 801.173 1383.99 798.92 1386.42C796.667 1388.76 795.453 1392.62 795.28 1397.99C794.847 1408.74 794.543 1419.92 794.37 1431.53C794.283 1443.14 794.283 1454.41 794.37 1465.33C794.543 1476.25 794.76 1486.09 795.02 1494.84C795.193 1500.91 796.493 1505.15 798.92 1507.58C801.347 1509.92 805.073 1511.09 810.1 1511.09C813.74 1511.09 816.86 1510.53 819.46 1509.4V1522.4C817.293 1523.87 814.867 1525 812.18 1525.78C809.493 1526.56 806.373 1526.95 802.82 1526.95C793.287 1526.95 786.223 1524.39 781.63 1519.28C777.123 1514.08 774.653 1505.67 774.22 1494.06ZM832.98 1525V1317H854.04V1525H832.98ZM880.607 1493.02C880.433 1486.78 880.26 1479.8 880.087 1472.09C880 1464.29 879.957 1456.23 879.957 1447.91C879.957 1439.59 880 1431.44 880.087 1423.47C880.173 1415.41 880.347 1408 880.607 1401.24C881.127 1390.15 883.9 1381.96 888.927 1376.67C893.953 1371.3 901.883 1368.18 912.717 1367.31V1383.82C908.73 1384.6 905.87 1386.25 904.137 1388.76C902.49 1391.19 901.623 1394.48 901.537 1398.64C901.277 1406.61 901.103 1414.59 901.017 1422.56C900.93 1430.45 900.887 1438.38 900.887 1446.35C900.887 1454.24 900.93 1462.25 901.017 1470.4C901.103 1478.46 901.277 1486.69 901.537 1495.1C901.623 1499.78 902.577 1503.29 904.397 1505.63C906.217 1507.97 908.99 1509.49 912.717 1510.18V1526.69C901.623 1525.82 893.607 1522.75 888.667 1517.46C883.813 1512.09 881.127 1503.94 880.607 1493.02ZM926.627 1526.69V1510.18C930.18 1509.4 932.737 1507.84 934.297 1505.5C935.943 1503.07 936.853 1499.56 937.027 1494.97C937.2 1492.37 937.287 1488.86 937.287 1484.44C937.287 1480.02 937.157 1475.34 936.897 1470.4H957.307C957.567 1473.35 957.697 1477.16 957.697 1481.84C957.783 1486.52 957.74 1490.25 957.567 1493.02C957.047 1503.94 954.447 1512.09 949.767 1517.46C945.087 1522.83 937.373 1525.91 926.627 1526.69ZM913.107 1451.16V1436.08H937.157C937.33 1431.05 937.417 1425.98 937.417 1420.87C937.417 1415.67 937.373 1411.08 937.287 1407.09C937.287 1403.1 937.2 1400.29 937.027 1398.64C936.853 1394.13 935.9 1390.75 934.167 1388.5C932.433 1386.16 929.92 1384.6 926.627 1383.82V1367.31C937.287 1368.18 945 1371.3 949.767 1376.67C954.533 1382.04 957.133 1390.02 957.567 1400.59C957.653 1402.5 957.74 1406.27 957.827 1411.9C957.913 1417.53 957.913 1423.9 957.827 1431.01C957.827 1438.03 957.653 1444.75 957.307 1451.16H913.107ZM1037.73 1525V1317H1058.4V1525H1037.73ZM1088.48 1525V1369H1109.28V1525H1088.48ZM1147.89 1525V1398.38C1147.8 1392.83 1146.55 1388.85 1144.12 1386.42C1141.69 1383.99 1137.84 1382.78 1132.55 1382.78C1130.82 1382.78 1129.17 1382.95 1127.61 1383.3C1126.05 1383.65 1124.58 1384.12 1123.19 1384.73V1372.12C1125.36 1370.47 1127.83 1369.22 1130.6 1368.35C1133.37 1367.48 1136.54 1367.05 1140.09 1367.05C1149.71 1367.05 1156.82 1369.65 1161.41 1374.85C1166.09 1380.05 1168.47 1388.41 1168.56 1399.94V1525H1147.89ZM1194.56 1490.42C1194.3 1485.13 1194.09 1478.89 1193.91 1471.7C1193.83 1464.42 1193.78 1456.79 1193.78 1448.82C1193.78 1440.85 1193.83 1432.96 1193.91 1425.16C1194.09 1417.27 1194.3 1410.12 1194.56 1403.71C1195.17 1391.58 1197.86 1382.69 1202.62 1377.06C1207.48 1371.34 1215.62 1368.09 1227.06 1367.31V1383.82C1222.82 1384.6 1219.78 1386.25 1217.96 1388.76C1216.23 1391.19 1215.28 1394.78 1215.1 1399.55C1214.84 1406.48 1214.63 1413.81 1214.45 1421.52C1214.28 1429.23 1214.19 1437.16 1214.19 1445.31C1214.19 1453.46 1214.24 1461.69 1214.32 1470.01C1214.5 1478.24 1214.76 1486.35 1215.1 1494.32C1215.28 1499.09 1216.27 1502.77 1218.09 1505.37C1219.91 1507.88 1222.9 1509.53 1227.06 1510.31V1526.69C1215.62 1525.82 1207.43 1522.53 1202.49 1516.81C1197.64 1511.09 1195 1502.29 1194.56 1490.42ZM1240.84 1526.69V1510.31C1245 1509.44 1247.95 1507.75 1249.68 1505.24C1251.42 1502.73 1252.37 1499.22 1252.54 1494.71C1252.8 1486.82 1253.02 1478.98 1253.19 1471.18C1253.37 1463.29 1253.45 1455.41 1253.45 1447.52C1253.54 1439.55 1253.5 1431.53 1253.32 1423.47C1253.15 1415.41 1252.89 1407.31 1252.54 1399.16C1252.37 1394.48 1251.37 1390.93 1249.55 1388.5C1247.82 1386.07 1244.92 1384.47 1240.84 1383.69V1367.31C1248.56 1367.83 1254.71 1369.48 1259.3 1372.25C1263.9 1374.94 1267.28 1378.88 1269.44 1384.08C1271.61 1389.19 1272.87 1395.74 1273.21 1403.71C1273.47 1409.6 1273.65 1416.19 1273.73 1423.47C1273.91 1430.75 1273.99 1438.29 1273.99 1446.09C1273.99 1453.8 1273.91 1461.47 1273.73 1469.1C1273.65 1476.73 1273.47 1483.83 1273.21 1490.42C1272.78 1498.39 1271.48 1504.94 1269.31 1510.05C1267.23 1515.16 1263.9 1519.11 1259.3 1521.88C1254.71 1524.57 1248.56 1526.17 1240.84 1526.69ZM1288.46 1369H1310.04L1320.44 1447.65L1325.25 1497.7H1307.83L1288.46 1369ZM1309.52 1509.14H1332.53L1338.9 1447.65L1349.43 1369H1371.01L1347.48 1525H1311.99L1309.52 1509.14ZM1382.01 1496.01C1381.92 1493.84 1381.84 1491.72 1381.75 1489.64C1381.75 1487.47 1381.79 1485.26 1381.88 1483.01C1382.23 1476.77 1383.35 1471.22 1385.26 1466.37C1387.25 1461.43 1390.42 1456.92 1394.75 1452.85C1399.08 1448.78 1405.02 1444.96 1412.56 1441.41C1414.64 1440.37 1416.76 1439.33 1418.93 1438.29C1421.18 1437.25 1423.48 1436.21 1425.82 1435.17V1449.86C1424.43 1450.55 1422.96 1451.38 1421.4 1452.33C1419.93 1453.2 1418.37 1454.19 1416.72 1455.32C1411.09 1458.61 1407.32 1462.73 1405.41 1467.67C1403.59 1472.61 1402.64 1477.81 1402.55 1483.27C1402.55 1485.61 1402.55 1487.69 1402.55 1489.51C1402.55 1491.24 1402.59 1492.98 1402.68 1494.71C1403.11 1499.82 1404.72 1503.85 1407.49 1506.8C1410.26 1509.66 1414.08 1511.09 1418.93 1511.09C1421.53 1511.09 1423.83 1510.7 1425.82 1509.92V1523.44C1422.27 1525.61 1417.76 1526.69 1412.3 1526.69C1402.68 1526.69 1395.4 1524.18 1390.46 1519.15C1385.61 1514.12 1382.79 1506.41 1382.01 1496.01ZM1385.39 1423.21C1385.13 1419.48 1385 1415.67 1385 1411.77C1385 1407.87 1385.04 1404.14 1385.13 1400.59C1385.56 1390.02 1388.08 1382.04 1392.67 1376.67C1397.35 1371.3 1405.37 1368.18 1416.72 1367.31V1383.69C1413.25 1384.38 1410.52 1385.86 1408.53 1388.11C1406.54 1390.28 1405.45 1393.53 1405.28 1397.86C1405.11 1400.37 1404.98 1403.32 1404.89 1406.7C1404.89 1409.99 1404.93 1413.16 1405.02 1416.19C1405.11 1419.22 1405.19 1421.56 1405.28 1423.21H1385.39ZM1439.6 1525V1399.29C1439.6 1394.96 1438.91 1391.58 1437.52 1389.15C1436.13 1386.72 1433.79 1385.08 1430.5 1384.21V1367.31C1441.68 1368.18 1449.39 1371.51 1453.64 1377.32C1457.89 1383.04 1460.01 1391.71 1460.01 1403.32L1459.75 1525H1439.6ZM1485.92 1493.02C1485.75 1486.78 1485.57 1479.8 1485.4 1472.09C1485.31 1464.29 1485.27 1456.23 1485.27 1447.91C1485.27 1439.59 1485.31 1431.44 1485.4 1423.47C1485.49 1415.41 1485.66 1408 1485.92 1401.24C1486.44 1390.15 1489.17 1381.96 1494.11 1376.67C1499.14 1371.3 1507.02 1368.18 1517.77 1367.31V1383.69C1513.96 1384.47 1511.18 1386.03 1509.45 1388.37C1507.8 1390.62 1506.94 1394.05 1506.85 1398.64C1506.59 1406.7 1506.42 1414.67 1506.33 1422.56C1506.24 1430.45 1506.2 1438.38 1506.2 1446.35C1506.2 1454.32 1506.24 1462.34 1506.33 1470.4C1506.42 1478.46 1506.59 1486.69 1506.85 1495.1C1506.94 1499.69 1507.85 1503.16 1509.58 1505.5C1511.31 1507.84 1514.04 1509.36 1517.77 1510.05V1526.69C1506.76 1525.82 1498.83 1522.75 1493.98 1517.46C1489.13 1512.09 1486.44 1503.94 1485.92 1493.02ZM1531.55 1526.69V1510.18C1535.36 1509.49 1538.09 1507.97 1539.74 1505.63C1541.39 1503.29 1542.25 1499.74 1542.34 1494.97C1542.43 1491.33 1542.47 1487.6 1542.47 1483.79C1542.47 1479.98 1542.38 1475.51 1542.21 1470.4H1562.62C1562.88 1473.52 1563.01 1477.33 1563.01 1481.84C1563.1 1486.26 1563.05 1489.99 1562.88 1493.02C1562.45 1503.94 1559.8 1512.09 1554.95 1517.46C1550.18 1522.83 1542.38 1525.91 1531.55 1526.69ZM1542.21 1423.21C1542.38 1420.35 1542.47 1417.49 1542.47 1414.63C1542.47 1411.77 1542.47 1408.95 1542.47 1406.18C1542.47 1403.41 1542.43 1400.85 1542.34 1398.51C1542.25 1394 1541.34 1390.62 1539.61 1388.37C1537.96 1386.03 1535.28 1384.51 1531.55 1383.82V1367.31C1542.38 1368.09 1550.27 1371.12 1555.21 1376.41C1560.15 1381.7 1562.71 1389.76 1562.88 1400.59C1563.05 1404.14 1563.1 1407.96 1563.01 1412.03C1563.01 1416.1 1562.88 1419.83 1562.62 1423.21H1542.21ZM1505.29 1572.45V1559.97H1511.66C1515.82 1559.97 1518.64 1558.97 1520.11 1556.98C1521.58 1555.07 1521.8 1551.91 1520.76 1547.49L1517.25 1532.41H1530.9L1534.41 1547.49C1536.06 1555.9 1534.97 1562.14 1531.16 1566.21C1527.43 1570.37 1520.98 1572.45 1511.79 1572.45H1505.29ZM1583.36 1496.01C1583.27 1493.84 1583.18 1491.72 1583.1 1489.64C1583.1 1487.47 1583.14 1485.26 1583.23 1483.01C1583.57 1476.77 1584.7 1471.22 1586.61 1466.37C1588.6 1461.43 1591.76 1456.92 1596.1 1452.85C1600.43 1448.78 1606.37 1444.96 1613.91 1441.41C1615.99 1440.37 1618.11 1439.33 1620.28 1438.29C1622.53 1437.25 1624.83 1436.21 1627.17 1435.17V1449.86C1625.78 1450.55 1624.31 1451.38 1622.75 1452.33C1621.27 1453.2 1619.71 1454.19 1618.07 1455.32C1612.43 1458.61 1608.66 1462.73 1606.76 1467.67C1604.94 1472.61 1603.98 1477.81 1603.9 1483.27C1603.9 1485.61 1603.9 1487.69 1603.9 1489.51C1603.9 1491.24 1603.94 1492.98 1604.03 1494.71C1604.46 1499.82 1606.06 1503.85 1608.84 1506.8C1611.61 1509.66 1615.42 1511.09 1620.28 1511.09C1622.88 1511.09 1625.17 1510.7 1627.17 1509.92V1523.44C1623.61 1525.61 1619.11 1526.69 1613.65 1526.69C1604.03 1526.69 1596.75 1524.18 1591.81 1519.15C1586.95 1514.12 1584.14 1506.41 1583.36 1496.01ZM1586.74 1423.21C1586.48 1419.48 1586.35 1415.67 1586.35 1411.77C1586.35 1407.87 1586.39 1404.14 1586.48 1400.59C1586.91 1390.02 1589.42 1382.04 1594.02 1376.67C1598.7 1371.3 1606.71 1368.18 1618.07 1367.31V1383.69C1614.6 1384.38 1611.87 1385.86 1609.88 1388.11C1607.88 1390.28 1606.8 1393.53 1606.63 1397.86C1606.45 1400.37 1606.32 1403.32 1606.24 1406.7C1606.24 1409.99 1606.28 1413.16 1606.37 1416.19C1606.45 1419.22 1606.54 1421.56 1606.63 1423.21H1586.74ZM1640.95 1525V1399.29C1640.95 1394.96 1640.25 1391.58 1638.87 1389.15C1637.48 1386.72 1635.14 1385.08 1631.85 1384.21V1367.31C1643.03 1368.18 1650.74 1371.51 1654.99 1377.32C1659.23 1383.04 1661.36 1391.71 1661.36 1403.32L1661.1 1525H1640.95ZM1646.93 1336.11H1656.94C1656.85 1343.39 1654.86 1348.81 1650.96 1352.36C1647.14 1355.91 1642.16 1357.56 1636.01 1357.3C1632.37 1357.04 1629.42 1356.13 1627.17 1354.57C1624.91 1353.01 1622.83 1351.41 1620.93 1349.76C1619.02 1348.11 1616.77 1347.03 1614.17 1346.51C1611.31 1345.9 1608.84 1346.38 1606.76 1347.94C1604.68 1349.5 1603.38 1352.14 1602.86 1355.87H1592.85C1593.54 1347.9 1595.92 1342.18 1600 1338.71C1604.07 1335.24 1609.31 1333.81 1615.73 1334.42C1618.24 1334.68 1620.41 1335.33 1622.23 1336.37C1624.05 1337.32 1625.69 1338.45 1627.17 1339.75C1628.64 1340.96 1630.11 1342.09 1631.59 1343.13C1633.15 1344.17 1634.88 1344.86 1636.79 1345.21C1639.99 1345.73 1642.46 1345.04 1644.2 1343.13C1645.93 1341.14 1646.84 1338.8 1646.93 1336.11ZM1687.4 1490.42C1687.14 1485.13 1686.92 1478.89 1686.75 1471.7C1686.66 1464.42 1686.62 1456.79 1686.62 1448.82C1686.62 1440.85 1686.66 1432.96 1686.75 1425.16C1686.92 1417.27 1687.14 1410.12 1687.4 1403.71C1688 1391.58 1690.69 1382.69 1695.46 1377.06C1700.31 1371.34 1708.46 1368.09 1719.9 1367.31V1383.82C1715.65 1384.6 1712.62 1386.25 1710.8 1388.76C1709.06 1391.19 1708.11 1394.78 1707.94 1399.55C1707.68 1406.48 1707.46 1413.81 1707.29 1421.52C1707.11 1429.23 1707.03 1437.16 1707.03 1445.31C1707.03 1453.46 1707.07 1461.69 1707.16 1470.01C1707.33 1478.24 1707.59 1486.35 1707.94 1494.32C1708.11 1499.09 1709.11 1502.77 1710.93 1505.37C1712.75 1507.88 1715.74 1509.53 1719.9 1510.31V1526.69C1708.46 1525.82 1700.27 1522.53 1695.33 1516.81C1690.47 1511.09 1687.83 1502.29 1687.4 1490.42ZM1733.68 1526.69V1510.31C1737.84 1509.44 1740.78 1507.75 1742.52 1505.24C1744.25 1502.73 1745.2 1499.22 1745.38 1494.71C1745.64 1486.82 1745.85 1478.98 1746.03 1471.18C1746.2 1463.29 1746.29 1455.41 1746.29 1447.52C1746.37 1439.55 1746.33 1431.53 1746.16 1423.47C1745.98 1415.41 1745.72 1407.31 1745.38 1399.16C1745.2 1394.48 1744.21 1390.93 1742.39 1388.5C1740.65 1386.07 1737.75 1384.47 1733.68 1383.69V1367.31C1741.39 1367.83 1747.54 1369.48 1752.14 1372.25C1756.73 1374.94 1760.11 1378.88 1762.28 1384.08C1764.44 1389.19 1765.7 1395.74 1766.05 1403.71C1766.31 1409.6 1766.48 1416.19 1766.57 1423.47C1766.74 1430.75 1766.83 1438.29 1766.83 1446.09C1766.83 1453.8 1766.74 1461.47 1766.57 1469.1C1766.48 1476.73 1766.31 1483.83 1766.05 1490.42C1765.61 1498.39 1764.31 1504.94 1762.15 1510.05C1760.07 1515.16 1756.73 1519.11 1752.14 1521.88C1747.54 1524.57 1741.39 1526.17 1733.68 1526.69Z" fill="white"/>
<path d="M2027.14 1819H1845.9V1368.06C1896.94 1352.12 1943.84 1326.78 1984.61 1294.06L1984.83 1294.31L1988.39 1290.99C2002.04 1279.77 2014.99 1267.72 2027.14 1254.91V1819ZM2357.85 636.917C2412.87 636.917 2464.52 651.449 2509.2 676.893V677.109C2602.18 730.233 2664.89 830.668 2664.89 945.82C2664.89 1060.97 2602.18 1161.41 2509.2 1214.53V1214.75C2464.52 1240.19 2412.87 1254.72 2357.85 1254.72C2273.02 1254.72 2196.22 1220.2 2140.6 1164.38L2261.37 1043.04C2286.09 1067.8 2320.19 1083.11 2357.85 1083.11C2433.31 1083.11 2494.48 1021.64 2494.48 945.819C2494.48 869.994 2433.31 808.529 2357.85 808.529C2320.05 808.529 2285.83 823.951 2261.1 848.878L2260.95 848.726L1947.5 1163.67L1947.95 1164.11C1892.3 1220.09 1815.39 1254.72 1730.43 1254.72C1560.64 1254.72 1423 1116.42 1423 945.819C1423 775.218 1560.64 636.917 1730.43 636.917C1815.25 636.917 1892.05 671.436 1947.67 727.258L1826.91 848.605C1802.19 823.842 1768.09 808.529 1730.43 808.529C1654.97 808.529 1593.79 869.994 1593.79 945.819C1593.79 1021.64 1654.97 1083.11 1730.43 1083.11C1766.71 1083.11 1799.69 1068.9 1824.15 1045.72L1823.76 1045.32L2142.57 724.971L2142.73 725.137C2198.18 670.564 2274.1 636.917 2357.85 636.917ZM2204.67 0V467H2204.64C2204.64 515.015 2204.64 551.903 2204.61 552.206C2161.19 571.142 2098.65 603.336 2025.02 680.972L2023.67 515.891V0H2204.67Z" fill="#C27777"/>
</svg>
