<svg width="1920" height="2050" viewBox="0 0 1920 2050" fill="none" xmlns="http://www.w3.org/2000/svg">
<rect y="130" width="1920" height="1920" fill="white"/>
<path d="M1212.75 600.153L1251.51 658.564L1081.7 783.541L822.071 661.164L1057.57 635.736L1171.55 717.179L1163.58 668.963L1212.75 600.153Z" fill="#B9306A" fill-opacity="0.3"/>
<path d="M1101.39 375.243L1168.92 356.427L1235.3 556.542L1038.69 765.658L1087.28 533.82L1199.95 450.591L1151.64 443.269L1101.39 375.243Z" fill="#B97A30" fill-opacity="0.3"/>
<path d="M853.075 411.655L856.047 341.616L1066.88 340.316L1205 591.935L999.527 474.078L955.192 341.197L933.298 384.887L853.075 411.655Z" fill="#75B930" fill-opacity="0.3"/>
<path d="M810.972 659.069L745.28 634.599L809.195 433.681L1091.18 380.073L915.595 539.072L775.519 540.176L810.305 574.5L810.972 659.069Z" fill="#30A0B9" fill-opacity="0.3"/>
<path d="M1033.26 775.568L989.686 830.484L818.359 707.608L854.513 422.859L951.47 638.982L909.234 772.546L952.628 750.069L1033.26 775.568Z" fill="#9530B9" fill-opacity="0.3"/>
<path d="M678.915 402.819L709.908 437.273H696.645L665.652 402.819H664.787V437.273H654.841V341.553H679.347C684.921 341.553 690.014 342.947 694.627 345.734C699.336 348.425 703.036 352.125 705.727 356.834C708.514 361.543 709.908 366.684 709.908 372.258C709.908 377.832 708.514 382.974 705.727 387.683C703.036 392.296 699.336 395.996 694.627 398.783C690.014 401.474 684.921 402.819 679.347 402.819H678.915ZM664.787 351.356V393.017H679.347C683.095 393.017 686.555 392.104 689.726 390.278C692.897 388.356 695.396 385.809 697.222 382.638C699.144 379.466 700.105 376.006 700.105 372.258C700.105 368.51 699.144 365.051 697.222 361.879C695.396 358.612 692.897 356.065 689.726 354.239C686.555 352.317 683.095 351.356 679.347 351.356H664.787ZM725.43 351.212V384.8H754.117V394.026H725.43V427.47H768.1V437.273H715.628V341.409H768.1V351.212H725.43ZM775.288 437.273V341.265H799.506C808.251 341.265 816.276 343.427 823.58 347.752C830.883 352.077 836.698 357.891 841.022 365.195C845.347 372.499 847.509 380.523 847.509 389.269C847.509 398.014 845.347 406.039 841.022 413.343C836.698 420.647 830.883 426.461 823.58 430.786C816.276 435.11 808.251 437.273 799.506 437.273H775.288ZM799.506 427.47C806.425 427.47 812.816 425.788 818.678 422.425C824.541 418.965 829.154 414.304 832.517 408.442C835.977 402.579 837.707 396.188 837.707 389.269C837.707 382.349 835.977 375.958 832.517 370.096C829.154 364.234 824.541 359.621 818.678 356.257C812.816 352.797 806.425 351.067 799.506 351.067H785.235V427.47H799.506ZM863.052 351.212V384.8H891.738V394.026H863.052V427.47H905.721V437.273H853.249V341.409H905.721V351.212H863.052Z" fill="black"/>
<path d="M1089.67 552.125L1082.92 549.714L1057.07 622.118L1063.82 624.529L1089.67 552.125Z" fill="#B97A30" fill-opacity="0.5"/>
<path d="M1023.93 471.42L1018.84 476.472L1073.03 531.013L1078.11 525.962L1023.93 471.42Z" fill="#75B930" fill-opacity="0.5"/>
<path d="M288.007 660.07C270.03 660.07 253.518 655.674 238.471 646.88C223.426 638.087 211.505 626.167 202.712 611.12C193.918 596.073 189.521 579.561 189.521 561.583C189.521 543.605 193.918 527.093 202.712 512.046C211.505 496.804 223.426 484.787 238.471 475.993C253.713 467.004 270.226 462.51 288.007 462.51C302.468 462.51 316.244 465.539 329.336 471.596C342.429 477.459 353.568 485.959 362.751 497.097L347.509 509.995C340.084 501.396 331.095 494.752 320.543 490.063C310.187 485.178 299.342 482.735 288.007 482.735C273.938 482.735 260.846 486.35 248.73 493.58C236.811 500.615 227.333 510.19 220.298 522.305C213.264 534.421 209.746 547.513 209.746 561.583C209.746 575.653 213.264 588.745 220.298 600.861C227.333 612.781 236.811 622.258 248.73 629.293C260.846 636.328 273.938 639.845 288.007 639.845C299.342 639.845 310.187 637.5 320.543 632.811C331.095 627.926 340.084 621.184 347.509 612.585L362.751 625.483C353.568 636.426 342.429 644.926 329.336 650.984C316.244 657.041 302.468 660.07 288.007 660.07ZM463.396 659.777C445.615 659.777 429.298 655.381 414.447 646.587C399.596 637.793 387.773 625.971 378.98 611.12C370.187 596.269 365.79 579.951 365.79 562.169C365.79 544.387 370.187 528.07 378.98 513.219C387.773 498.172 399.596 486.252 414.447 477.459C429.493 468.665 445.81 464.268 463.396 464.268C480.983 464.268 497.301 468.665 512.346 477.459C527.393 486.252 539.313 498.172 548.106 513.219C556.899 528.266 561.296 544.582 561.296 562.169C561.296 579.756 556.899 596.073 548.106 611.12C539.313 625.971 527.393 637.793 512.346 646.587C497.496 655.381 481.179 659.777 463.396 659.777ZM463.396 639.845C477.466 639.845 490.461 636.426 502.381 629.586C514.301 622.551 523.681 613.074 530.519 601.154C537.554 589.234 541.071 576.239 541.071 562.169C541.071 548.1 537.554 535.105 530.519 523.185C523.681 511.265 514.301 501.885 502.381 495.046C490.461 488.011 477.466 484.493 463.396 484.493C449.327 484.493 436.333 488.011 424.412 495.046C412.493 501.885 403.015 511.265 395.981 523.185C389.142 535.105 385.722 548.1 385.722 562.169C385.722 576.239 389.142 589.234 395.981 601.154C403.015 613.074 412.493 622.551 424.412 629.586C436.333 636.426 449.327 639.845 463.396 639.845ZM761.513 463.389V657.725H741.289V491.821L675.631 586.791H658.631L592.974 491.821V658.312H573.042V463.389H597.663L667.131 563.928L736.599 463.389H761.513ZM830.736 463.389C842.069 463.389 852.523 466.222 862.099 471.889C871.674 477.557 879.295 485.178 884.962 494.752C890.628 504.327 893.462 514.684 893.462 525.823C893.462 536.961 890.628 547.318 884.962 556.893C879.295 566.468 871.674 574.089 862.099 579.756C852.523 585.228 842.069 587.964 830.736 587.964H796.442V658.312H776.217V463.389H830.736ZM830.736 568.325C838.357 568.325 845.392 566.468 851.84 562.756C858.484 558.847 863.662 553.669 867.375 547.22C871.283 540.577 873.237 533.444 873.237 525.823C873.237 518.202 871.283 511.167 867.375 504.718C863.662 498.27 858.484 493.189 851.84 489.476C845.392 485.568 838.357 483.614 830.736 483.614H796.442V568.325H830.736ZM999.93 659.777C982.149 659.777 965.831 655.381 950.981 646.587C936.13 637.793 924.307 625.971 915.514 611.12C906.721 596.269 902.324 579.951 902.324 562.169C902.324 544.387 906.721 528.07 915.514 513.219C924.307 498.172 936.13 486.252 950.981 477.459C966.027 468.665 982.344 464.268 999.93 464.268C1017.52 464.268 1033.84 468.665 1048.89 477.459C1063.93 486.252 1075.85 498.172 1084.64 513.219C1093.44 528.266 1097.83 544.582 1097.83 562.169C1097.83 579.756 1093.44 596.073 1084.64 611.12C1075.85 625.971 1063.93 637.793 1048.89 646.587C1034.03 655.381 1017.71 659.777 999.93 659.777ZM999.93 639.845C1014 639.845 1026.99 636.426 1038.92 629.586C1050.84 622.551 1060.22 613.074 1067.06 601.154C1074.09 589.234 1077.61 576.239 1077.61 562.169C1077.61 548.1 1074.09 535.105 1067.06 523.185C1060.22 511.265 1050.84 501.885 1038.92 495.046C1026.99 488.011 1014 484.493 999.93 484.493C985.861 484.493 972.866 488.011 960.946 495.046C949.027 501.885 939.549 511.265 932.514 523.185C925.675 535.105 922.255 548.1 922.255 562.169C922.255 576.239 925.675 589.234 932.514 601.154C939.549 613.074 949.027 622.551 960.946 629.586C972.866 636.426 985.861 639.845 999.93 639.845ZM1129.51 483.321V551.617H1187.84V570.377H1129.51V638.38H1216.27V658.312H1109.57V463.389H1216.27V483.321H1129.51ZM1348.13 483.028H1298.01V658.312H1278.08V483.028H1227.95V463.389H1348.13V483.028ZM1379.85 463.389V658.312H1359.92V463.389H1379.85ZM1490.05 660.07C1472.08 660.07 1455.56 655.674 1440.52 646.88C1425.47 638.087 1413.56 626.167 1404.76 611.12C1395.97 596.073 1391.57 579.561 1391.57 561.583C1391.57 543.605 1395.97 527.093 1404.76 512.046C1413.56 496.804 1425.47 484.787 1440.52 475.993C1455.76 467.004 1472.27 462.51 1490.05 462.51C1504.52 462.51 1518.29 465.539 1531.39 471.596C1544.48 477.459 1555.61 485.959 1564.8 497.097L1549.56 509.995C1542.13 501.396 1533.15 494.752 1522.59 490.063C1512.23 485.178 1501.39 482.735 1490.05 482.735C1475.98 482.735 1462.89 486.35 1450.78 493.58C1438.86 500.615 1429.38 510.19 1422.35 522.305C1415.31 534.421 1411.8 547.513 1411.8 561.583C1411.8 575.653 1415.31 588.745 1422.35 600.861C1429.38 612.781 1438.86 622.258 1450.78 629.293C1462.89 636.328 1475.98 639.845 1490.05 639.845C1501.39 639.845 1512.23 637.5 1522.59 632.811C1533.15 627.926 1542.13 621.184 1549.56 612.585L1564.8 625.483C1555.61 636.426 1544.48 644.926 1531.39 650.984C1518.29 657.041 1504.52 660.07 1490.05 660.07ZM1683.04 586.498H1614.45L1589.24 658.312H1567.84L1636.14 463.682H1661.35L1729.64 658.312H1708.24L1683.04 586.498ZM1676.59 567.739L1648.74 488.011L1620.9 567.739H1676.59Z" fill="black"/>
<path d="M384.15 727.506V689.103H393.838C397.336 689.103 400.545 689.968 403.467 691.698C406.389 693.428 408.714 695.754 410.444 698.675C412.174 701.597 413.039 704.807 413.039 708.305C413.039 711.803 412.174 715.013 410.444 717.934C408.714 720.856 406.389 723.182 403.467 724.912C400.545 726.641 397.336 727.506 393.838 727.506H384.15ZM393.838 723.585C396.605 723.585 399.162 722.913 401.507 721.567C403.851 720.183 405.697 718.319 407.042 715.974C408.426 713.629 409.118 711.073 409.118 708.305C409.118 705.537 408.426 702.981 407.042 700.636C405.697 698.291 403.851 696.446 401.507 695.1C399.162 693.716 396.605 693.024 393.838 693.024H388.129V723.585H393.838ZM419.256 693.082V706.517H430.73V710.208H419.256V723.585H436.324V727.506H415.335V689.161H436.324V693.082H419.256ZM481.073 727.852C477.536 727.852 474.288 726.987 471.328 725.258C468.368 723.528 466.023 721.183 464.293 718.223C462.563 715.263 461.698 712.014 461.698 708.478C461.698 704.941 462.563 701.693 464.293 698.733C466.023 695.734 468.368 693.37 471.328 691.64C474.326 689.872 477.575 688.988 481.073 688.988C483.917 688.988 486.627 689.584 489.203 690.776C491.779 691.929 493.97 693.601 495.776 695.792L492.778 698.329C491.317 696.638 489.549 695.331 487.473 694.408C485.436 693.447 483.302 692.967 481.073 692.967C478.305 692.967 475.729 693.678 473.346 695.1C471.001 696.484 469.137 698.368 467.753 700.751C466.369 703.134 465.677 705.71 465.677 708.478C465.677 711.246 466.369 713.821 467.753 716.205C469.137 718.55 471.001 720.414 473.346 721.798C475.729 723.182 478.305 723.874 481.073 723.874C483.302 723.874 485.436 723.412 487.473 722.49C489.549 721.529 491.317 720.203 492.778 718.511L495.776 721.048C493.97 723.201 491.779 724.873 489.203 726.065C486.627 727.257 483.917 727.852 481.073 727.852ZM515.575 727.795C512.077 727.795 508.868 726.93 505.946 725.2C503.024 723.47 500.699 721.144 498.969 718.223C497.239 715.301 496.374 712.091 496.374 708.593C496.374 705.095 497.239 701.885 498.969 698.964C500.699 696.004 503.024 693.659 505.946 691.929C508.906 690.199 512.116 689.334 515.575 689.334C519.035 689.334 522.245 690.199 525.205 691.929C528.165 693.659 530.51 696.004 532.24 698.964C533.97 701.924 534.834 705.133 534.834 708.593C534.834 712.053 533.97 715.263 532.24 718.223C530.51 721.144 528.165 723.47 525.205 725.2C522.283 726.93 519.074 727.795 515.575 727.795ZM515.575 723.874C518.343 723.874 520.9 723.201 523.244 721.856C525.589 720.472 527.434 718.607 528.78 716.262C530.164 713.917 530.856 711.361 530.856 708.593C530.856 705.825 530.164 703.269 528.78 700.924C527.434 698.579 525.589 696.734 523.244 695.389C520.9 694.005 518.343 693.313 515.575 693.313C512.808 693.313 510.251 694.005 507.906 695.389C505.562 696.734 503.697 698.579 502.313 700.924C500.968 703.269 500.295 705.825 500.295 708.593C500.295 711.361 500.968 713.917 502.313 716.262C503.697 718.607 505.562 720.472 507.906 721.856C510.251 723.201 512.808 723.874 515.575 723.874ZM553.636 723.585V727.506H537.145V689.161H541.123V723.585H553.636ZM578.026 713.379H564.533L559.574 727.506H555.365L568.8 689.219H573.759L587.194 727.506H582.985L578.026 713.379ZM576.757 709.689L571.279 694.005L565.802 709.689H576.757ZM607.539 707.786C609.115 708.708 610.364 709.996 611.287 711.649C612.248 713.264 612.728 715.032 612.728 716.954C612.728 718.876 612.248 720.645 611.287 722.259C610.364 723.874 609.077 725.161 607.424 726.123C605.809 727.045 604.041 727.506 602.119 727.506H589.491V689.103L600.735 689.046C602.657 689.046 604.425 689.526 606.04 690.487C607.654 691.448 608.942 692.736 609.903 694.351C610.864 695.965 611.345 697.733 611.345 699.656C611.345 701.27 610.999 702.789 610.307 704.211C609.653 705.595 608.731 706.786 607.539 707.786ZM607.366 699.656C607.366 697.849 606.712 696.292 605.405 694.985C604.098 693.678 602.542 693.024 600.735 693.024H593.412V706.344H600.735C602.542 706.344 604.098 705.691 605.405 704.384C606.712 703.077 607.366 701.501 607.366 699.656ZM602.119 723.585C603.964 723.585 605.54 722.932 606.847 721.625C608.154 720.318 608.807 718.761 608.807 716.954C608.807 715.109 608.154 713.533 606.847 712.226C605.54 710.919 603.964 710.265 602.119 710.265H593.412V723.585H602.119ZM633.669 727.795C630.171 727.795 626.961 726.93 624.04 725.2C621.118 723.47 618.793 721.144 617.063 718.223C615.333 715.301 614.468 712.091 614.468 708.593C614.468 705.095 615.333 701.885 617.063 698.964C618.793 696.004 621.118 693.659 624.04 691.929C627 690.199 630.209 689.334 633.669 689.334C637.129 689.334 640.339 690.199 643.299 691.929C646.259 693.659 648.604 696.004 650.333 698.964C652.063 701.924 652.928 705.133 652.928 708.593C652.928 712.053 652.063 715.263 650.333 718.223C648.604 721.144 646.259 723.47 643.299 725.2C640.377 726.93 637.167 727.795 633.669 727.795ZM633.669 723.874C636.437 723.874 638.993 723.201 641.338 721.856C643.683 720.472 645.528 718.607 646.874 716.262C648.258 713.917 648.949 711.361 648.949 708.593C648.949 705.825 648.258 703.269 646.874 700.924C645.528 698.579 643.683 696.734 641.338 695.389C638.993 694.005 636.437 693.313 633.669 693.313C630.901 693.313 628.345 694.005 626 695.389C623.655 696.734 621.791 698.579 620.407 700.924C619.062 703.269 618.389 705.825 618.389 708.593C618.389 711.361 619.062 713.917 620.407 716.262C621.791 718.607 623.655 720.472 626 721.856C628.345 723.201 630.901 723.874 633.669 723.874ZM664.868 713.725L677.265 727.506H671.96L659.563 713.725H659.217V727.506H655.238V689.219H665.041C667.27 689.219 669.308 689.776 671.153 690.891C673.037 691.967 674.517 693.447 675.593 695.331C676.708 697.215 677.265 699.271 677.265 701.501C677.265 703.73 676.708 705.787 675.593 707.671C674.517 709.516 673.037 710.996 671.153 712.111C669.308 713.187 667.27 713.725 665.041 713.725H664.868ZM659.217 693.14V709.804H665.041C666.54 709.804 667.924 709.439 669.192 708.709C670.461 707.94 671.461 706.921 672.191 705.652C672.96 704.384 673.344 703 673.344 701.501C673.344 700.001 672.96 698.618 672.191 697.349C671.461 696.042 670.461 695.023 669.192 694.293C667.924 693.524 666.54 693.14 665.041 693.14H659.217ZM699.328 713.379H685.836L680.877 727.506H676.667L690.102 689.219H695.061L708.497 727.506H704.287L699.328 713.379ZM698.06 709.689L692.582 694.005L687.104 709.689H698.06ZM729.592 723.874C731.822 723.874 733.955 723.412 735.992 722.49C738.068 721.529 739.837 720.203 741.297 718.511L744.296 721.048C742.643 723.009 740.662 724.585 738.356 725.777C736.089 726.93 733.667 727.603 731.091 727.795L730.745 728.66C732.014 728.929 733.071 729.563 733.917 730.563C734.762 731.6 735.185 732.773 735.185 734.08C735.185 735.618 734.647 736.925 733.571 738.001C732.494 739.077 731.187 739.615 729.65 739.615C728.227 739.615 726.978 739.135 725.902 738.174L727.92 735.983C728.42 736.406 728.996 736.617 729.65 736.617C730.342 736.617 730.937 736.367 731.437 735.867C731.937 735.368 732.187 734.772 732.187 734.08C732.187 733.388 731.937 732.773 731.437 732.235C730.937 731.735 730.342 731.485 729.65 731.485C729.419 731.485 729.073 731.562 728.612 731.716L727.459 729.006L727.92 727.795C724.652 727.526 721.654 726.507 718.925 724.739C716.234 722.932 714.1 720.606 712.524 717.761C710.987 714.878 710.218 711.784 710.218 708.478C710.218 704.941 711.083 701.693 712.813 698.733C714.542 695.734 716.887 693.37 719.847 691.64C722.846 689.872 726.094 688.988 729.592 688.988C732.437 688.988 735.147 689.584 737.722 690.776C740.298 691.929 742.489 693.601 744.296 695.792L741.297 698.329C739.837 696.638 738.068 695.331 735.992 694.408C733.955 693.447 731.822 692.967 729.592 692.967C726.824 692.967 724.249 693.678 721.865 695.1C719.52 696.484 717.656 698.368 716.272 700.751C714.888 703.134 714.196 705.71 714.196 708.478C714.196 711.246 714.888 713.821 716.272 716.205C717.656 718.55 719.52 720.414 721.865 721.798C724.249 723.182 726.824 723.874 729.592 723.874ZM768.68 713.379H755.187L750.228 727.506H746.019L759.454 689.219H764.413L777.848 727.506H773.639L768.68 713.379ZM767.411 709.689L761.933 694.005L756.456 709.689H767.411ZM770.813 683.337C769.968 684.683 769.103 685.682 768.218 686.335C767.334 686.951 766.373 687.258 765.335 687.258C764.682 687.258 764.028 687.143 763.375 686.912C762.76 686.682 762.049 686.355 761.241 685.932C760.55 685.586 759.973 685.336 759.512 685.182C759.05 684.99 758.589 684.875 758.128 684.836C757.359 684.836 756.609 685.471 755.879 686.739L755.648 687.258L753.054 685.182C753.476 684.413 753.995 683.741 754.61 683.164C755.61 682.126 756.763 681.607 758.07 681.607C758.839 681.607 759.55 681.723 760.204 681.953C760.896 682.184 761.741 682.549 762.741 683.049C763.471 683.433 764.028 683.702 764.413 683.856C764.836 683.971 765.22 684.01 765.566 683.971C766.104 683.933 766.566 683.702 766.95 683.279C767.373 682.818 767.796 682.165 768.218 681.319L770.813 683.337ZM798.77 727.795C795.272 727.795 792.062 726.93 789.141 725.2C786.219 723.47 783.894 721.144 782.164 718.223C780.434 715.301 779.569 712.091 779.569 708.593C779.569 705.095 780.434 701.885 782.164 698.964C783.894 696.004 786.219 693.659 789.141 691.929C792.101 690.199 795.311 689.334 798.77 689.334C802.23 689.334 805.44 690.199 808.4 691.929C811.36 693.659 813.705 696.004 815.435 698.964C817.165 701.924 818.029 705.133 818.029 708.593C818.029 712.053 817.165 715.263 815.435 718.223C813.705 721.144 811.36 723.47 808.4 725.2C805.478 726.93 802.269 727.795 798.77 727.795ZM798.77 723.874C801.538 723.874 804.095 723.201 806.439 721.856C808.784 720.472 810.63 718.607 811.975 716.262C813.359 713.917 814.051 711.361 814.051 708.593C814.051 705.825 813.359 703.269 811.975 700.924C810.63 698.579 808.784 696.734 806.439 695.389C804.095 694.005 801.538 693.313 798.77 693.313C796.003 693.313 793.446 694.005 791.102 695.389C788.757 696.734 786.892 698.579 785.508 700.924C784.163 703.269 783.49 705.825 783.49 708.593C783.49 711.361 784.163 713.917 785.508 716.262C786.892 718.607 788.757 720.472 791.102 721.856C793.446 723.201 796.003 723.874 798.77 723.874ZM847.337 693.082V706.517H858.812V710.208H847.337V723.585H864.405V727.506H843.416V689.161H864.405V693.082H847.337ZM904.356 689.161V727.391H900.378V694.754L887.462 713.437H884.117L871.201 694.754V727.506H867.28V689.161H872.124L885.789 708.939L899.455 689.161H904.356ZM941.049 689.161C943.279 689.161 945.336 689.718 947.219 690.833C949.103 691.948 950.602 693.447 951.717 695.331C952.832 697.215 953.389 699.252 953.389 701.443C953.389 703.634 952.832 705.672 951.717 707.555C950.602 709.439 949.103 710.938 947.219 712.053C945.336 713.129 943.279 713.667 941.049 713.667H934.303V727.506H930.324V689.161H941.049ZM941.049 709.804C942.549 709.804 943.932 709.439 945.201 708.709C946.508 707.94 947.527 706.921 948.257 705.652C949.026 704.345 949.41 702.942 949.41 701.443C949.41 699.944 949.026 698.56 948.257 697.291C947.527 696.023 946.508 695.023 945.201 694.293C943.932 693.524 942.549 693.14 941.049 693.14H934.303V709.804H941.049ZM974.333 727.795C970.835 727.795 967.626 726.93 964.704 725.2C961.783 723.47 959.457 721.144 957.727 718.223C955.997 715.301 955.132 712.091 955.132 708.593C955.132 705.095 955.997 701.885 957.727 698.964C959.457 696.004 961.783 693.659 964.704 691.929C967.664 690.199 970.874 689.334 974.333 689.334C977.793 689.334 981.003 690.199 983.963 691.929C986.928 693.659 989.273 696.004 991.003 698.964C992.732 701.924 993.597 705.133 993.597 708.593C993.597 712.053 992.732 715.263 991.003 718.223C989.273 721.144 986.928 723.47 983.963 725.2C981.041 726.93 977.832 727.795 974.333 727.795ZM974.333 723.874C977.101 723.874 979.658 723.201 982.003 721.856C984.352 720.472 986.197 718.607 987.543 716.262C988.927 713.917 989.619 711.361 989.619 708.593C989.619 705.825 988.927 703.269 987.543 700.924C986.197 698.579 984.352 696.734 982.003 695.389C979.658 694.005 977.101 693.313 974.333 693.313C971.566 693.313 969.009 694.005 966.665 695.389C964.32 696.734 962.455 698.579 961.071 700.924C959.726 703.269 959.053 705.825 959.053 708.593C959.053 711.361 959.726 713.917 961.071 716.262C962.455 718.607 964.32 720.472 966.665 721.856C969.009 723.201 971.566 723.874 974.333 723.874ZM999.825 693.082V706.517H1011.3V710.208H999.825V723.585H1016.89V727.506H995.904V689.161H1016.89V693.082H999.825ZM1013.14 678.436L1010.55 686.335H1006.97L1009.22 678.436H1013.14ZM1042.83 693.024H1032.97V727.506H1029.05V693.024H1019.19V689.161H1042.83V693.024ZM1049.08 689.161V727.506H1045.16V689.161H1049.08ZM1070.75 727.852C1067.21 727.852 1063.96 726.987 1061 725.258C1058.04 723.528 1055.7 721.183 1053.97 718.223C1052.24 715.263 1051.37 712.014 1051.37 708.478C1051.37 704.941 1052.24 701.693 1053.97 698.733C1055.7 695.734 1058.04 693.37 1061 691.64C1064 689.872 1067.25 688.988 1070.75 688.988C1073.59 688.988 1076.3 689.584 1078.88 690.776C1081.45 691.929 1083.65 693.601 1085.45 695.792L1082.45 698.329C1080.99 696.638 1079.22 695.331 1077.15 694.408C1075.11 693.447 1072.98 692.967 1070.75 692.967C1067.98 692.967 1065.41 693.678 1063.02 695.1C1060.68 696.484 1058.81 698.368 1057.43 700.751C1056.04 703.134 1055.35 705.71 1055.35 708.478C1055.35 711.246 1056.04 713.821 1057.43 716.205C1058.81 718.55 1060.68 720.414 1063.02 721.798C1065.41 723.182 1067.98 723.874 1070.75 723.874C1072.98 723.874 1075.11 723.412 1077.15 722.49C1079.22 721.529 1080.99 720.203 1082.45 718.511L1085.45 721.048C1083.65 723.201 1081.45 724.873 1078.88 726.065C1076.3 727.257 1073.59 727.852 1070.75 727.852ZM1108.72 713.379H1095.23L1090.27 727.506H1086.06L1099.49 689.219H1104.45L1117.89 727.506H1113.68L1108.72 713.379ZM1107.45 709.689L1101.97 694.005L1096.49 709.689H1107.45ZM1138.88 700.29C1138.68 698.829 1138.22 697.56 1137.49 696.484C1135.99 694.178 1133.51 693.024 1130.05 693.024C1127.17 693.024 1125.08 693.678 1123.77 694.985C1122.58 696.215 1121.98 697.887 1121.98 700.001C1121.98 702.346 1122.63 703.961 1123.94 704.845C1125.25 705.729 1127.07 706.267 1129.42 706.46C1131.65 706.652 1133.53 706.959 1135.07 707.382C1136.61 707.767 1137.9 708.305 1138.93 708.997C1141.66 710.688 1143.03 713.341 1143.03 716.954C1143.03 718.377 1142.74 719.722 1142.16 720.991C1141.62 722.259 1140.84 723.393 1139.8 724.393C1137.45 726.699 1134.24 727.852 1130.17 727.852C1126.06 727.852 1122.81 726.718 1120.42 724.45C1118.39 722.567 1117.16 720.03 1116.73 716.839H1120.71C1121.06 718.761 1121.87 720.337 1123.13 721.567C1124.79 723.105 1127.15 723.874 1130.23 723.874C1132.84 723.874 1134.95 723.239 1136.57 721.971C1138.22 720.664 1139.05 718.992 1139.05 716.954C1139.05 715.647 1138.78 714.571 1138.24 713.725C1137.74 712.841 1136.76 712.13 1135.3 711.592C1133.84 711.053 1131.76 710.669 1129.07 710.438C1121.69 709.785 1118 706.306 1118 700.001C1118 698.425 1118.25 696.984 1118.75 695.677C1119.29 694.331 1120.04 693.178 1121 692.217C1123.11 690.103 1126.11 689.046 1130 689.046H1130.05C1134.01 689.084 1137.03 690.18 1139.11 692.332C1141.22 694.447 1142.47 697.118 1142.85 700.347H1138.88V700.29ZM1187.22 727.852C1183.68 727.852 1180.43 726.987 1177.47 725.258C1174.51 723.528 1172.17 721.183 1170.44 718.223C1168.71 715.263 1167.84 712.014 1167.84 708.478C1167.84 704.941 1168.71 701.693 1170.44 698.733C1172.17 695.734 1174.51 693.37 1177.47 691.64C1180.47 689.872 1183.72 688.988 1187.22 688.988C1190.06 688.988 1192.77 689.584 1195.35 690.776C1197.92 691.929 1200.11 693.601 1201.92 695.792L1198.92 698.329C1197.46 696.638 1195.69 695.331 1193.62 694.408C1191.58 693.447 1189.44 692.967 1187.22 692.967C1184.45 692.967 1181.87 693.678 1179.49 695.1C1177.14 696.484 1175.28 698.368 1173.9 700.751C1172.51 703.134 1171.82 705.71 1171.82 708.478C1171.82 711.246 1172.51 713.821 1173.9 716.205C1175.28 718.55 1177.14 720.414 1179.49 721.798C1181.87 723.182 1184.45 723.874 1187.22 723.874C1189.44 723.874 1191.58 723.412 1193.62 722.49C1195.69 721.529 1197.46 720.203 1198.92 718.511L1201.92 721.048C1200.11 723.201 1197.92 724.873 1195.35 726.065C1192.77 727.257 1190.06 727.852 1187.22 727.852ZM1221.72 727.795C1218.22 727.795 1215.01 726.93 1212.09 725.2C1209.16 723.47 1206.84 721.144 1205.11 718.223C1203.38 715.301 1202.51 712.091 1202.51 708.593C1202.51 705.095 1203.38 701.885 1205.11 698.964C1206.84 696.004 1209.16 693.659 1212.09 691.929C1215.05 690.199 1218.26 689.334 1221.72 689.334C1225.18 689.334 1228.39 690.199 1231.35 691.929C1234.31 693.659 1236.65 696.004 1238.38 698.964C1240.11 701.924 1240.97 705.133 1240.97 708.593C1240.97 712.053 1240.11 715.263 1238.38 718.223C1236.65 721.144 1234.31 723.47 1231.35 725.2C1228.42 726.93 1225.21 727.795 1221.72 727.795ZM1221.72 723.874C1224.48 723.874 1227.04 723.201 1229.38 721.856C1231.73 720.472 1233.57 718.607 1234.92 716.262C1236.3 713.917 1237 711.361 1237 708.593C1237 705.825 1236.3 703.269 1234.92 700.924C1233.57 698.579 1231.73 696.734 1229.38 695.389C1227.04 694.005 1224.48 693.313 1221.72 693.313C1218.95 693.313 1216.39 694.005 1214.05 695.389C1211.7 696.734 1209.84 698.579 1208.45 700.924C1207.11 703.269 1206.44 705.825 1206.44 708.593C1206.44 711.361 1207.11 713.917 1208.45 716.262C1209.84 718.607 1211.7 720.472 1214.05 721.856C1216.39 723.201 1218.95 723.874 1221.72 723.874ZM1280.36 689.161V727.391H1276.38V694.754L1263.46 713.437H1260.12L1247.2 694.754V727.506H1243.28V689.161H1248.12L1261.79 708.939L1275.46 689.161H1280.36ZM1293.98 689.161C1296.21 689.161 1298.26 689.718 1300.15 690.833C1302.03 691.948 1303.53 693.447 1304.64 695.331C1305.76 697.215 1306.31 699.252 1306.31 701.443C1306.31 703.634 1305.76 705.672 1304.64 707.555C1303.53 709.439 1302.03 710.938 1300.15 712.053C1298.26 713.129 1296.21 713.667 1293.98 713.667H1287.23V727.506H1283.25V689.161H1293.98ZM1293.98 709.804C1295.47 709.804 1296.86 709.439 1298.13 708.709C1299.43 707.94 1300.45 706.921 1301.18 705.652C1301.95 704.345 1302.34 702.942 1302.34 701.443C1302.34 699.944 1301.95 698.56 1301.18 697.291C1300.45 696.023 1299.43 695.023 1298.13 694.293C1296.86 693.524 1295.47 693.14 1293.98 693.14H1287.23V709.804H1293.98ZM1322.02 727.91C1319.6 727.91 1317.37 727.314 1315.33 726.123C1313.29 724.892 1311.66 723.259 1310.43 721.221C1309.24 719.184 1308.64 716.954 1308.64 714.532V689.161H1312.5V714.532C1312.5 716.262 1312.93 717.858 1313.77 719.318C1314.62 720.741 1315.77 721.875 1317.23 722.72C1318.69 723.528 1320.29 723.931 1322.02 723.931C1323.75 723.931 1325.34 723.528 1326.8 722.72C1328.3 721.875 1329.48 720.741 1330.32 719.318C1331.17 717.858 1331.59 716.262 1331.59 714.532V689.161H1335.4V714.532C1335.4 716.954 1334.78 719.184 1333.55 721.221C1332.36 723.259 1330.74 724.892 1328.71 726.123C1326.67 727.314 1324.44 727.91 1322.02 727.91ZM1361.36 693.024H1351.5V727.506H1347.58V693.024H1337.72V689.161H1361.36V693.024ZM1380.03 713.379H1366.53L1361.57 727.506H1357.36L1370.8 689.219H1375.76L1389.19 727.506H1384.98L1380.03 713.379ZM1378.76 709.689L1373.28 694.005L1367.8 709.689H1378.76ZM1407.98 727.852C1404.45 727.852 1401.2 726.987 1398.24 725.258C1395.28 723.528 1392.93 721.183 1391.2 718.223C1389.47 715.263 1388.61 712.014 1388.61 708.478C1388.61 704.941 1389.47 701.693 1391.2 698.733C1392.93 695.734 1395.28 693.37 1398.24 691.64C1401.24 689.872 1404.48 688.988 1407.98 688.988C1410.83 688.988 1413.54 689.584 1416.11 690.776C1418.69 691.929 1420.88 693.601 1422.69 695.792L1419.69 698.329C1418.23 696.638 1416.46 695.331 1414.38 694.408C1412.35 693.447 1410.21 692.967 1407.98 692.967C1405.21 692.967 1402.64 693.678 1400.26 695.1C1397.91 696.484 1396.05 698.368 1394.66 700.751C1393.28 703.134 1392.59 705.71 1392.59 708.478C1392.59 711.246 1393.28 713.821 1394.66 716.205C1396.05 718.55 1397.91 720.414 1400.26 721.798C1402.64 723.182 1405.21 723.874 1407.98 723.874C1410.21 723.874 1412.35 723.412 1414.38 722.49C1416.46 721.529 1418.23 720.203 1419.69 718.511L1422.69 721.048C1420.88 723.201 1418.69 724.873 1416.11 726.065C1413.54 727.257 1410.83 727.852 1407.98 727.852ZM1428.9 689.161V727.506H1424.98V689.161H1428.9ZM1450.41 727.795C1446.91 727.795 1443.7 726.93 1440.78 725.2C1437.86 723.47 1435.53 721.144 1433.8 718.223C1432.07 715.301 1431.21 712.091 1431.21 708.593C1431.21 705.095 1432.07 701.885 1433.8 698.964C1435.53 696.004 1437.86 693.659 1440.78 691.929C1443.74 690.199 1446.95 689.334 1450.41 689.334C1453.87 689.334 1457.08 690.199 1460.04 691.929C1463 693.659 1465.35 696.004 1467.08 698.964C1468.81 701.924 1469.67 705.133 1469.67 708.593C1469.67 712.053 1468.81 715.263 1467.08 718.223C1465.35 721.144 1463 723.47 1460.04 725.2C1457.12 726.93 1453.91 727.795 1450.41 727.795ZM1450.41 723.874C1453.18 723.874 1455.74 723.201 1458.08 721.856C1460.43 720.472 1462.27 718.607 1463.62 716.262C1465 713.917 1465.69 711.361 1465.69 708.593C1465.69 705.825 1465 703.269 1463.62 700.924C1462.27 698.579 1460.43 696.734 1458.08 695.389C1455.74 694.005 1453.18 693.313 1450.41 693.313C1447.64 693.313 1445.09 694.005 1442.74 695.389C1440.4 696.734 1438.53 698.579 1437.15 700.924C1435.8 703.269 1435.13 705.825 1435.13 708.593C1435.13 711.361 1435.8 713.917 1437.15 716.262C1438.53 718.607 1440.4 720.472 1442.74 721.856C1445.09 723.201 1447.64 723.874 1450.41 723.874ZM1499.95 689.161V727.506H1495.28L1475.96 696.542V727.506H1471.99V689.161H1476.14L1496.03 720.991V689.161H1499.95ZM1524.91 713.379H1511.42L1506.46 727.506H1502.25L1515.68 689.219H1520.64L1534.08 727.506H1529.87L1524.91 713.379ZM1523.64 709.689L1518.16 694.005L1512.69 709.689H1523.64ZM1540.3 689.161V727.506H1536.37V689.161H1540.3ZM1564.74 700.29C1564.55 698.829 1564.09 697.56 1563.36 696.484C1561.86 694.178 1559.38 693.024 1555.92 693.024C1553.04 693.024 1550.94 693.678 1549.64 694.985C1548.45 696.215 1547.85 697.887 1547.85 700.001C1547.85 702.346 1548.5 703.961 1549.81 704.845C1551.12 705.729 1552.94 706.267 1555.29 706.46C1557.52 706.652 1559.4 706.959 1560.94 707.382C1562.48 707.767 1563.76 708.305 1564.8 708.997C1567.53 710.688 1568.9 713.341 1568.9 716.954C1568.9 718.377 1568.61 719.722 1568.03 720.991C1567.49 722.259 1566.7 723.393 1565.67 724.393C1563.32 726.699 1560.11 727.852 1556.04 727.852C1551.92 727.852 1548.68 726.718 1546.29 724.45C1544.26 722.567 1543.03 720.03 1542.6 716.839H1546.58C1546.93 718.761 1547.73 720.337 1549 721.567C1550.66 723.105 1553.02 723.874 1556.1 723.874C1558.71 723.874 1560.82 723.239 1562.44 721.971C1564.09 720.664 1564.92 718.992 1564.92 716.954C1564.92 715.647 1564.65 714.571 1564.11 713.725C1563.61 712.841 1562.63 712.13 1561.17 711.592C1559.71 711.053 1557.63 710.669 1554.94 710.438C1547.56 709.785 1543.87 706.306 1543.87 700.001C1543.87 698.425 1544.12 696.984 1544.62 695.677C1545.16 694.331 1545.91 693.178 1546.87 692.217C1548.98 690.103 1551.98 689.046 1555.86 689.046H1555.92C1559.88 689.084 1562.9 690.18 1564.98 692.332C1567.09 694.447 1568.34 697.118 1568.72 700.347H1564.74V700.29Z" fill="black"/>
<path d="M1149.32 439.935L1184.66 404.597L1191.61 424.779L1160.37 455.052L1149.32 439.935Z" fill="black"/>
<path d="M1736.73 1789.94L1754.4 1816.6L1676.97 1873.65L1558.57 1817.79L1665.97 1806.18L1717.94 1843.36L1714.31 1821.35L1736.73 1789.94Z" fill="#B9306A" fill-opacity="0.5"/>
<path d="M1685.94 1687.27L1716.74 1678.68L1747.01 1770.03L1657.35 1865.49L1679.51 1759.66L1730.89 1721.66L1708.86 1718.32L1685.94 1687.27Z" fill="#B97A30" fill-opacity="0.5"/>
<path d="M1572.71 1703.89L1574.07 1671.92L1670.21 1671.33L1733.19 1786.18L1639.5 1732.38L1619.28 1671.73L1609.29 1691.67L1572.71 1703.89Z" fill="#75B930" fill-opacity="0.5"/>
<path d="M1553.51 1816.83L1523.56 1805.66L1552.7 1713.94L1681.29 1689.47L1601.22 1762.05L1537.35 1762.56L1553.21 1778.23L1553.51 1816.83Z" fill="#30A0B9" fill-opacity="0.5"/>
<path d="M1654.88 1870.01L1635.01 1895.08L1556.88 1838.99L1573.37 1709L1617.58 1807.66L1598.32 1868.63L1618.11 1858.37L1654.88 1870.01Z" fill="#9530B9" fill-opacity="0.5"/>
<path d="M662.381 1420.73L702.958 1481.87L525.207 1612.69L253.417 1484.59L499.944 1457.97L619.251 1543.23L610.911 1492.75L662.381 1420.73Z" fill="#B9306A" fill-opacity="0.6"/>
<path d="M545.807 1185.3L616.496 1165.6L685.99 1375.07L480.169 1593.97L531.036 1351.29L648.985 1264.17L598.405 1256.5L545.807 1185.3Z" fill="#B97A30" fill-opacity="0.6"/>
<path d="M285.871 1223.41L288.983 1150.09L509.683 1148.73L654.268 1412.12L439.179 1288.75L392.768 1149.66L369.848 1195.39L285.871 1223.41Z" fill="#75B930" fill-opacity="0.6"/>
<path d="M241.798 1482.4L173.031 1456.78L239.938 1246.47L535.117 1190.35L351.318 1356.79L204.686 1357.94L241.1 1393.87L241.798 1482.4Z" fill="#30A0B9" fill-opacity="0.6"/>
<path d="M474.492 1604.34L428.881 1661.83L249.531 1533.21L287.377 1235.14L388.872 1461.37L344.659 1601.18L390.084 1577.65L474.492 1604.34Z" fill="#9530B9" fill-opacity="0.6"/>
<path d="M372.401 1739.22L389.704 1758.45H382.3L364.997 1739.22H364.514V1758.45H358.961V1705.02H372.642C375.754 1705.02 378.598 1705.79 381.173 1707.35C383.802 1708.85 385.867 1710.92 387.37 1713.55C388.926 1716.17 389.704 1719.05 389.704 1722.16C389.704 1725.27 388.926 1728.14 387.37 1730.77C385.867 1733.34 383.802 1735.41 381.173 1736.97C378.598 1738.47 375.754 1739.22 372.642 1739.22H372.401ZM364.514 1710.49V1733.75H372.642C374.735 1733.75 376.666 1733.24 378.437 1732.22C380.208 1731.14 381.602 1729.72 382.622 1727.95C383.694 1726.18 384.232 1724.25 384.232 1722.16C384.232 1720.07 383.694 1718.13 382.622 1716.36C381.602 1714.54 380.208 1713.12 378.437 1712.1C376.666 1711.02 374.735 1710.49 372.642 1710.49H364.514ZM398.37 1710.41V1729.16H414.386V1734.31H398.37V1752.98H422.192V1758.45H392.897V1704.93H422.192V1710.41H398.37ZM426.205 1758.45V1704.85H439.726C444.609 1704.85 449.089 1706.06 453.166 1708.48C457.245 1710.89 460.49 1714.14 462.904 1718.21C465.319 1722.29 466.526 1726.77 466.526 1731.65C466.526 1736.54 465.319 1741.02 462.904 1745.09C460.49 1749.17 457.245 1752.42 453.166 1754.83C449.089 1757.25 444.609 1758.45 439.726 1758.45H426.205ZM439.726 1752.98C443.589 1752.98 447.157 1752.04 450.43 1750.16C453.703 1748.23 456.279 1745.63 458.156 1742.36C460.088 1739.09 461.053 1735.52 461.053 1731.65C461.053 1727.79 460.088 1724.22 458.156 1720.95C456.279 1717.68 453.703 1715.1 450.43 1713.22C447.157 1711.29 443.589 1710.33 439.726 1710.33H431.758V1752.98H439.726ZM475.204 1710.41V1729.16H491.219V1734.31H475.204V1752.98H499.026V1758.45H469.731V1704.93H499.026V1710.41H475.204ZM244.6 1834.39C239.664 1834.39 235.129 1833.18 230.999 1830.76C226.867 1828.35 223.595 1825.08 221.18 1820.95C218.766 1816.81 217.559 1812.28 217.559 1807.35C217.559 1802.41 218.766 1797.88 221.18 1793.74C223.595 1789.56 226.867 1786.26 230.999 1783.85C235.184 1781.38 239.717 1780.14 244.6 1780.14C248.57 1780.14 252.352 1780.97 255.948 1782.64C259.542 1784.25 262.601 1786.58 265.123 1789.64L260.938 1793.18C258.898 1790.82 256.431 1789 253.533 1787.71C250.689 1786.37 247.712 1785.7 244.6 1785.7C240.737 1785.7 237.142 1786.69 233.816 1788.67C230.542 1790.61 227.941 1793.23 226.009 1796.56C224.078 1799.89 223.112 1803.48 223.112 1807.35C223.112 1811.21 224.078 1814.8 226.009 1818.13C227.941 1821.4 230.542 1824 233.816 1825.94C237.142 1827.87 240.737 1828.83 244.6 1828.83C247.712 1828.83 250.689 1828.19 253.533 1826.9C256.431 1825.56 258.898 1823.71 260.938 1821.35L265.123 1824.89C262.601 1827.89 259.542 1830.23 255.948 1831.89C252.352 1833.55 248.57 1834.39 244.6 1834.39ZM292.757 1834.31C287.874 1834.31 283.395 1833.1 279.316 1830.68C275.239 1828.27 271.993 1825.02 269.578 1820.95C267.164 1816.87 265.957 1812.39 265.957 1807.51C265.957 1802.62 267.164 1798.14 269.578 1794.07C271.993 1789.93 275.239 1786.66 279.316 1784.25C283.448 1781.83 287.928 1780.63 292.757 1780.63C297.585 1780.63 302.066 1781.83 306.197 1784.25C310.328 1786.66 313.601 1789.93 316.015 1794.07C318.43 1798.2 319.637 1802.68 319.637 1807.51C319.637 1812.33 318.43 1816.81 316.015 1820.95C313.601 1825.02 310.328 1828.27 306.197 1830.68C302.119 1833.1 297.64 1834.31 292.757 1834.31ZM292.757 1828.83C296.62 1828.83 300.188 1827.89 303.46 1826.02C306.734 1824.08 309.309 1821.48 311.187 1818.21C313.118 1814.94 314.084 1811.37 314.084 1807.51C314.084 1803.64 313.118 1800.07 311.187 1796.8C309.309 1793.53 306.734 1790.95 303.46 1789.08C300.188 1787.14 296.62 1786.18 292.757 1786.18C288.893 1786.18 285.326 1787.14 282.053 1789.08C278.78 1790.95 276.178 1793.53 274.246 1796.8C272.369 1800.07 271.429 1803.64 271.429 1807.51C271.429 1811.37 272.369 1814.94 274.246 1818.21C276.178 1821.48 278.78 1824.08 282.053 1826.02C285.326 1827.89 288.893 1828.83 292.757 1828.83ZM374.611 1780.38V1833.74H369.058V1788.19L351.03 1814.27H346.363L328.335 1788.19V1833.9H322.862V1780.38H329.623L348.697 1807.99L367.77 1780.38H374.611ZM393.618 1780.38C396.729 1780.38 399.6 1781.16 402.229 1782.72C404.858 1784.27 406.95 1786.37 408.507 1789C410.063 1791.62 410.841 1794.47 410.841 1797.53C410.841 1800.58 410.063 1803.43 408.507 1806.06C406.95 1808.69 404.858 1810.78 402.229 1812.33C399.6 1813.84 396.729 1814.59 393.618 1814.59H384.201V1833.9H378.648V1780.38H393.618ZM393.618 1809.2C395.71 1809.2 397.642 1808.69 399.412 1807.67C401.236 1806.59 402.659 1805.17 403.678 1803.4C404.751 1801.58 405.287 1799.62 405.287 1797.53C405.287 1795.43 404.751 1793.5 403.678 1791.73C402.659 1789.96 401.236 1788.57 399.412 1787.55C397.642 1786.47 395.71 1785.94 393.618 1785.94H384.201V1809.2H393.618ZM440.074 1834.31C435.191 1834.31 430.711 1833.1 426.634 1830.68C422.555 1828.27 419.31 1825.02 416.896 1820.95C414.481 1816.87 413.274 1812.39 413.274 1807.51C413.274 1802.62 414.481 1798.14 416.896 1794.07C419.31 1789.93 422.555 1786.66 426.634 1784.25C430.764 1781.83 435.245 1780.63 440.074 1780.63C444.903 1780.63 449.383 1781.83 453.514 1784.25C457.645 1786.66 460.918 1789.93 463.333 1794.07C465.747 1798.2 466.955 1802.68 466.955 1807.51C466.955 1812.33 465.747 1816.81 463.333 1820.95C460.918 1825.02 457.645 1828.27 453.514 1830.68C449.436 1833.1 444.956 1834.31 440.074 1834.31ZM440.074 1828.83C443.937 1828.83 447.504 1827.89 450.778 1826.02C454.05 1824.08 456.626 1821.48 458.504 1818.21C460.436 1814.94 461.401 1811.37 461.401 1807.51C461.401 1803.64 460.436 1800.07 458.504 1796.8C456.626 1793.53 454.05 1790.95 450.778 1789.08C447.504 1787.14 443.937 1786.18 440.074 1786.18C436.211 1786.18 432.643 1787.14 429.37 1789.08C426.097 1790.95 423.495 1793.53 421.564 1796.8C419.685 1800.07 418.747 1803.64 418.747 1807.51C418.747 1811.37 419.685 1814.94 421.564 1818.21C423.495 1821.48 426.097 1824.08 429.37 1826.02C432.643 1827.89 436.211 1828.83 440.074 1828.83ZM475.651 1785.86V1804.61H491.667V1809.76H475.651V1828.43H499.474V1833.9H470.179V1780.38H499.474V1785.86H475.651ZM494.242 1765.42L490.621 1776.44H485.631L488.77 1765.42H494.242ZM535.68 1785.78H521.918V1833.9H516.445V1785.78H502.683V1780.38H535.68V1785.78ZM544.39 1780.38V1833.9H538.917V1780.38H544.39ZM574.648 1834.39C569.712 1834.39 565.179 1833.18 561.047 1830.76C556.916 1828.35 553.643 1825.08 551.229 1820.95C548.814 1816.81 547.607 1812.28 547.607 1807.35C547.607 1802.41 548.814 1797.88 551.229 1793.74C553.643 1789.56 556.916 1786.26 561.047 1783.85C565.232 1781.38 569.766 1780.14 574.648 1780.14C578.619 1780.14 582.402 1780.97 585.996 1782.64C589.591 1784.25 592.649 1786.58 595.171 1789.64L590.986 1793.18C588.947 1790.82 586.479 1789 583.582 1787.71C580.738 1786.37 577.76 1785.7 574.648 1785.7C570.785 1785.7 567.191 1786.69 563.864 1788.67C560.592 1790.61 557.989 1793.23 556.057 1796.56C554.126 1799.89 553.16 1803.48 553.16 1807.35C553.16 1811.21 554.126 1814.8 556.057 1818.13C557.989 1821.4 560.592 1824 563.864 1825.94C567.191 1827.87 570.785 1828.83 574.648 1828.83C577.76 1828.83 580.738 1828.19 583.582 1826.9C586.479 1825.56 588.947 1823.71 590.986 1821.35L595.171 1824.89C592.649 1827.89 589.591 1830.23 585.996 1831.89C582.402 1833.55 578.619 1834.39 574.648 1834.39ZM627.634 1814.19H608.801L601.88 1833.9H596.005L614.757 1780.46H621.678L640.43 1833.9H634.555L627.634 1814.19ZM625.863 1809.04L618.218 1787.14L610.572 1809.04H625.863Z" fill="black"/>
<path fill-rule="evenodd" clip-rule="evenodd" d="M1306.95 1080.57L1288.5 1082.55L1360.63 1116.5L1407.81 1081.83L1397.04 1065.63L1383.38 1084.72L1385.59 1098.09L1365.75 1083.93C1358.55 1090.87 1348.73 1095.14 1337.91 1095.14C1325.42 1095.14 1314.28 1089.46 1306.95 1080.57Z" fill="#B9306A" fill-opacity="0.7"/>
<path fill-rule="evenodd" clip-rule="evenodd" d="M1384.86 998.026L1366.1 1003.24L1380.06 1022.11L1393.49 1024.15L1374.02 1038.5C1376.48 1043.65 1377.87 1049.42 1377.87 1055.5C1377.87 1072.2 1367.45 1086.49 1352.71 1092.33L1348.68 1111.54L1403.31 1053.53L1384.86 998.026Z" fill="#B97A30" fill-opacity="0.7"/>
<path fill-rule="evenodd" clip-rule="evenodd" d="M1297.94 993.918L1297.11 1013.35L1319.4 1005.92L1325.48 993.801L1332.95 1016.16C1334.58 1015.96 1336.23 1015.86 1337.91 1015.86C1359.32 1015.86 1376.81 1032.58 1377.82 1053.58L1394.88 1063.35L1356.51 993.557L1297.94 993.918Z" fill="#75B930" fill-opacity="0.7"/>
<path fill-rule="evenodd" clip-rule="evenodd" d="M1267.16 1075.19L1285.41 1081.97L1285.23 1058.52L1275.56 1048.99L1298.51 1048.81C1301.72 1030.1 1318.13 1015.86 1337.91 1015.86C1341.78 1015.86 1345.52 1016.41 1349.06 1017.42L1363.26 1004.58L1284.92 1019.45L1267.16 1075.19Z" fill="#30A0B9" fill-opacity="0.7"/>
<path fill-rule="evenodd" clip-rule="evenodd" d="M1304.97 1033.05L1297.51 1016.45L1287.47 1095.44L1335.07 1129.52L1347.17 1114.29L1324.77 1107.22L1312.71 1113.45L1319.86 1090.88C1306.86 1084.34 1297.95 1070.95 1297.95 1055.5C1297.95 1047.17 1300.54 1039.43 1304.97 1033.05Z" fill="#9530B9" fill-opacity="0.7"/>
<path d="M961.138 1108.49C951.712 1108.49 943.054 1106.19 935.165 1101.59C927.276 1096.99 921.026 1090.75 916.415 1082.87C911.804 1074.99 909.499 1066.35 909.499 1056.94C909.499 1047.53 911.804 1038.88 916.415 1031.01C921.026 1023.03 927.276 1016.73 935.165 1012.13C943.157 1007.43 951.815 1005.07 961.138 1005.07C968.72 1005.07 975.944 1006.66 982.808 1009.83C989.673 1012.9 995.513 1017.35 1000.33 1023.18L992.337 1029.93C988.444 1025.43 983.731 1021.95 978.198 1019.5C972.767 1016.94 967.081 1015.66 961.138 1015.66C953.761 1015.66 946.897 1017.55 940.544 1021.34C934.294 1025.02 929.325 1030.03 925.636 1036.38C921.948 1042.72 920.104 1049.57 920.104 1056.94C920.104 1064.3 921.948 1071.16 925.636 1077.5C929.325 1083.74 934.294 1088.7 940.544 1092.38C946.897 1096.07 953.761 1097.91 961.138 1097.91C967.081 1097.91 972.767 1096.68 978.198 1094.22C983.731 1091.67 988.444 1088.14 992.337 1083.64L1000.33 1090.39C995.513 1096.12 989.673 1100.57 982.808 1103.74C975.944 1106.91 968.72 1108.49 961.138 1108.49ZM1053.1 1108.34C1043.78 1108.34 1035.22 1106.04 1027.43 1101.44C1019.65 1096.83 1013.45 1090.64 1008.84 1082.87C1004.23 1075.09 1001.92 1066.55 1001.92 1057.24C1001.92 1047.94 1004.23 1039.39 1008.84 1031.62C1013.45 1023.74 1019.65 1017.5 1027.43 1012.9C1035.32 1008.3 1043.88 1005.99 1053.1 1005.99C1062.32 1005.99 1070.88 1008.3 1078.77 1012.9C1086.66 1017.5 1092.91 1023.74 1097.52 1031.62C1102.13 1039.5 1104.43 1048.04 1104.43 1057.24C1104.43 1066.45 1102.13 1074.99 1097.52 1082.87C1092.91 1090.64 1086.66 1096.83 1078.77 1101.44C1070.98 1106.04 1062.42 1108.34 1053.1 1108.34ZM1053.1 1097.91C1060.48 1097.91 1067.29 1096.12 1073.54 1092.54C1079.79 1088.85 1084.71 1083.89 1088.3 1077.65C1091.98 1071.41 1093.83 1064.61 1093.83 1057.24C1093.83 1049.88 1091.98 1043.08 1088.3 1036.84C1084.71 1030.6 1079.79 1025.69 1073.54 1022.11C1067.29 1018.42 1060.48 1016.58 1053.1 1016.58C1045.72 1016.58 1038.91 1018.42 1032.66 1022.11C1026.41 1025.69 1021.44 1030.6 1017.75 1036.84C1014.17 1043.08 1012.37 1049.88 1012.37 1057.24C1012.37 1064.61 1014.17 1071.41 1017.75 1077.65C1021.44 1083.89 1026.41 1088.85 1032.66 1092.54C1038.91 1096.12 1045.72 1097.91 1053.1 1097.91ZM1209.41 1005.53V1107.27H1198.81V1020.42L1164.38 1070.13H1155.47L1121.04 1020.42V1107.57H1110.59V1005.53H1123.5L1159.92 1058.16L1196.35 1005.53H1209.41ZM1245.71 1005.53C1251.65 1005.53 1257.13 1007.02 1262.15 1009.98C1267.17 1012.95 1271.17 1016.94 1274.14 1021.95C1277.11 1026.96 1278.6 1032.39 1278.6 1038.22C1278.6 1044.05 1277.11 1049.47 1274.14 1054.48C1271.17 1059.49 1267.17 1063.48 1262.15 1066.45C1257.13 1069.32 1251.65 1070.75 1245.71 1070.75H1227.73V1107.57H1217.12V1005.53H1245.71ZM1245.71 1060.47C1249.7 1060.47 1253.39 1059.49 1256.77 1057.55C1260.26 1055.51 1262.97 1052.79 1264.92 1049.42C1266.97 1045.94 1267.99 1042.21 1267.99 1038.22C1267.99 1034.23 1266.97 1030.54 1264.92 1027.17C1262.97 1023.79 1260.26 1021.13 1256.77 1019.19C1253.39 1017.14 1249.7 1016.12 1245.71 1016.12H1227.73V1060.47H1245.71ZM1418.24 1015.97V1051.72H1448.83V1061.54H1418.24V1097.14H1463.74V1107.57H1407.79V1005.53H1463.74V1015.97H1418.24ZM1453.75 976.992L1446.83 998.015H1437.3L1443.3 976.992H1453.75ZM1532.88 1015.81H1506.59V1107.57H1496.14V1015.81H1469.86V1005.53H1532.88V1015.81ZM1549.51 1005.53V1107.57H1539.06V1005.53H1549.51ZM1607.29 1108.49C1597.86 1108.49 1589.21 1106.19 1581.32 1101.59C1573.43 1096.99 1567.18 1090.75 1562.57 1082.87C1557.96 1074.99 1555.65 1066.35 1555.65 1056.94C1555.65 1047.53 1557.96 1038.88 1562.57 1031.01C1567.18 1023.03 1573.43 1016.73 1581.32 1012.13C1589.31 1007.43 1597.97 1005.07 1607.29 1005.07C1614.87 1005.07 1622.1 1006.66 1628.96 1009.83C1635.83 1012.9 1641.67 1017.35 1646.48 1023.18L1638.49 1029.93C1634.6 1025.43 1629.88 1021.95 1624.35 1019.5C1618.92 1016.94 1613.23 1015.66 1607.29 1015.66C1599.91 1015.66 1593.05 1017.55 1586.7 1021.34C1580.45 1025.02 1575.48 1030.03 1571.79 1036.38C1568.1 1042.72 1566.26 1049.57 1566.26 1056.94C1566.26 1064.3 1568.1 1071.16 1571.79 1077.5C1575.48 1083.74 1580.45 1088.7 1586.7 1092.38C1593.05 1096.07 1599.91 1097.91 1607.29 1097.91C1613.23 1097.91 1618.92 1096.68 1624.35 1094.22C1629.88 1091.67 1634.6 1088.14 1638.49 1083.64L1646.48 1090.39C1641.67 1096.12 1635.83 1100.57 1628.96 1103.74C1622.1 1106.91 1614.87 1108.49 1607.29 1108.49ZM1708.47 1069.98H1672.51L1659.29 1107.57H1648.07L1683.88 1005.69H1697.1L1732.91 1107.57H1721.69L1708.47 1069.98ZM1705.09 1060.16L1690.49 1018.42L1675.89 1060.16H1705.09Z" fill="black"/>
<path fill-rule="evenodd" clip-rule="evenodd" d="M1337.91 1025.46C1321.08 1025.46 1307.56 1038.98 1307.56 1055.5C1307.56 1072.02 1321.08 1085.54 1337.91 1085.54C1354.73 1085.54 1368.25 1072.02 1368.25 1055.5C1368.25 1038.98 1354.73 1025.46 1337.91 1025.46ZM1297.56 1055.5C1297.56 1033.38 1315.63 1015.46 1337.91 1015.46C1360.18 1015.46 1378.25 1033.38 1378.25 1055.5C1378.25 1077.62 1360.18 1095.54 1337.91 1095.54C1315.63 1095.54 1297.56 1077.62 1297.56 1055.5Z" fill="black"/>
<path d="M962.416 1443.86C952.999 1443.86 944.35 1441.56 936.468 1436.95C928.587 1432.35 922.343 1426.11 917.737 1418.23C913.131 1410.35 910.828 1401.71 910.828 1392.3C910.828 1382.88 913.131 1374.24 917.737 1366.36C922.343 1358.38 928.587 1352.09 936.468 1347.49C944.452 1342.78 953.101 1340.43 962.416 1340.43C969.99 1340.43 977.206 1342.01 984.064 1345.18C990.922 1348.25 996.756 1352.7 1001.57 1358.53L993.583 1365.29C989.694 1360.79 984.985 1357.31 979.458 1354.85C974.033 1352.29 968.353 1351.02 962.416 1351.02C955.046 1351.02 948.188 1352.91 941.842 1356.69C935.598 1360.38 930.634 1365.39 926.949 1371.73C923.264 1378.07 921.422 1384.93 921.422 1392.3C921.422 1399.66 923.264 1406.52 926.949 1412.86C930.634 1419.1 935.598 1424.06 941.842 1427.74C948.188 1431.43 955.046 1433.27 962.416 1433.27C968.353 1433.27 974.033 1432.04 979.458 1429.59C984.985 1427.03 989.694 1423.5 993.583 1419L1001.57 1425.75C996.756 1431.48 990.922 1435.93 984.064 1439.1C977.206 1442.27 969.99 1443.86 962.416 1443.86ZM1054.29 1443.7C1044.97 1443.7 1036.42 1441.4 1028.65 1436.8C1020.87 1432.19 1014.67 1426.01 1010.07 1418.23C1005.46 1410.45 1003.16 1401.91 1003.16 1392.6C1003.16 1383.29 1005.46 1374.75 1010.07 1366.97C1014.67 1359.1 1020.87 1352.86 1028.65 1348.25C1036.53 1343.65 1045.07 1341.35 1054.29 1341.35C1063.5 1341.35 1072.04 1343.65 1079.93 1348.25C1087.81 1352.86 1094.05 1359.1 1098.66 1366.97C1103.26 1374.85 1105.57 1383.39 1105.57 1392.6C1105.57 1401.81 1103.26 1410.35 1098.66 1418.23C1094.05 1426.01 1087.81 1432.19 1079.93 1436.8C1072.15 1441.4 1063.6 1443.7 1054.29 1443.7ZM1054.29 1433.27C1061.66 1433.27 1068.46 1431.48 1074.71 1427.9C1080.95 1424.22 1085.86 1419.25 1089.45 1413.01C1093.13 1406.77 1094.97 1399.97 1094.97 1392.6C1094.97 1385.24 1093.13 1378.43 1089.45 1372.19C1085.86 1365.95 1080.95 1361.04 1074.71 1357.46C1068.46 1353.78 1061.66 1351.94 1054.29 1351.94C1046.92 1351.94 1040.11 1353.78 1033.87 1357.46C1027.62 1361.04 1022.66 1365.95 1018.97 1372.19C1015.39 1378.43 1013.6 1385.24 1013.6 1392.6C1013.6 1399.97 1015.39 1406.77 1018.97 1413.01C1022.66 1419.25 1027.62 1424.22 1033.87 1427.9C1040.11 1431.48 1046.92 1433.27 1054.29 1433.27ZM1210.44 1340.89V1442.63H1199.85V1355.77L1165.46 1405.49H1156.55L1122.16 1355.77V1442.94H1111.72V1340.89H1124.62L1161 1393.52L1197.39 1340.89H1210.44ZM1246.7 1340.89C1252.64 1340.89 1258.11 1342.37 1263.13 1345.34C1268.14 1348.3 1272.14 1352.29 1275.1 1357.31C1278.07 1362.32 1279.56 1367.74 1279.56 1373.57C1279.56 1379.4 1278.07 1384.83 1275.1 1389.84C1272.14 1394.85 1268.14 1398.84 1263.13 1401.81C1258.11 1404.67 1252.64 1406.11 1246.7 1406.11H1228.74V1442.94H1218.14V1340.89H1246.7ZM1246.7 1395.83C1250.69 1395.83 1254.38 1394.85 1257.76 1392.91C1261.24 1390.86 1263.95 1388.15 1265.89 1384.78C1267.94 1381.3 1268.96 1377.56 1268.96 1373.57C1268.96 1369.58 1267.94 1365.9 1265.89 1362.52C1263.95 1359.15 1261.24 1356.49 1257.76 1354.54C1254.38 1352.5 1250.69 1351.48 1246.7 1351.48H1228.74V1395.83H1246.7ZM1419.06 1351.32V1387.08H1449.62V1396.9H1419.06V1432.5H1464.51V1442.94H1408.62V1340.89H1464.51V1351.32H1419.06ZM1454.53 1312.34L1447.62 1333.37H1438.1L1444.09 1312.34H1454.53ZM1533.58 1351.17H1507.33V1442.94H1496.89V1351.17H1470.63V1340.89H1533.58V1351.17ZM1550.2 1340.89V1442.94H1539.76V1340.89H1550.2ZM1607.92 1443.86C1598.51 1443.86 1589.86 1441.56 1581.97 1436.95C1574.09 1432.35 1567.85 1426.11 1563.24 1418.23C1558.64 1410.35 1556.33 1401.71 1556.33 1392.3C1556.33 1382.88 1558.64 1374.24 1563.24 1366.36C1567.85 1358.38 1574.09 1352.09 1581.97 1347.49C1589.96 1342.78 1598.61 1340.43 1607.92 1340.43C1615.5 1340.43 1622.71 1342.01 1629.57 1345.18C1636.43 1348.25 1642.26 1352.7 1647.07 1358.53L1639.09 1365.29C1635.2 1360.79 1630.49 1357.31 1624.96 1354.85C1619.54 1352.29 1613.86 1351.02 1607.92 1351.02C1600.55 1351.02 1593.69 1352.91 1587.35 1356.69C1581.1 1360.38 1576.14 1365.39 1572.46 1371.73C1568.77 1378.07 1566.93 1384.93 1566.93 1392.3C1566.93 1399.66 1568.77 1406.52 1572.46 1412.86C1576.14 1419.1 1581.1 1424.06 1587.35 1427.74C1593.69 1431.43 1600.55 1433.27 1607.92 1433.27C1613.86 1433.27 1619.54 1432.04 1624.96 1429.59C1630.49 1427.03 1635.2 1423.5 1639.09 1419L1647.07 1425.75C1642.26 1431.48 1636.43 1435.93 1629.57 1439.1C1622.71 1442.27 1615.5 1443.86 1607.92 1443.86ZM1709 1405.34H1673.08L1659.87 1442.94H1648.67L1684.44 1341.04H1697.64L1733.42 1442.94H1722.21L1709 1405.34ZM1705.63 1395.52L1691.04 1353.78L1676.46 1395.52H1705.63Z" fill="black"/>
<path fill-rule="evenodd" clip-rule="evenodd" d="M1409.64 1419.86L1398.78 1403.5L1385.01 1422.77L1387.24 1436.28L1372.61 1425.83L1396.07 1400.89L1396.61 1401.2L1396.31 1400.64L1405.1 1391.29L1386.5 1335.24L1367.58 1340.51L1381.66 1359.57L1395.2 1361.62L1380.74 1372.29L1364.25 1342.29L1364.72 1341.87L1364.09 1341.99L1357.91 1330.73L1298.83 1331.1L1298 1350.71L1320.48 1343.22L1326.61 1330.98L1332.31 1348.03L1298.66 1354.42L1298.4 1353.85L1298.32 1354.48L1285.71 1356.88L1267.8 1413.15L1286.2 1420L1286.02 1396.32L1276.27 1386.71L1294.25 1386.56L1289.93 1420.52L1289.31 1420.59L1289.89 1420.86L1288.27 1433.6L1336.28 1468.01L1348.49 1452.63L1325.9 1445.49L1313.74 1451.78L1319.16 1434.65L1350.14 1449.24L1350.01 1449.85L1350.45 1449.39L1362.07 1454.86L1409.64 1419.86ZM1338.29 1427.08C1357.23 1427.08 1372.58 1411.74 1372.58 1392.81C1372.58 1373.88 1357.23 1358.53 1338.29 1358.53C1319.36 1358.53 1304.01 1373.88 1304.01 1392.81C1304.01 1411.74 1319.36 1427.08 1338.29 1427.08Z" fill="black"/>
<path d="M933.542 1693.14C931.318 1693.14 929.275 1692.59 927.413 1691.51C925.551 1690.42 924.076 1688.95 922.988 1687.09C921.9 1685.23 921.355 1683.19 921.355 1680.97C921.355 1678.74 921.9 1676.7 922.988 1674.84C924.076 1672.96 925.551 1671.48 927.413 1670.39C929.299 1669.28 931.342 1668.72 933.542 1668.72C935.332 1668.72 937.036 1669.1 938.656 1669.85C940.277 1670.57 941.655 1671.62 942.791 1673L940.905 1674.59C939.986 1673.53 938.874 1672.71 937.568 1672.13C936.287 1671.52 934.945 1671.22 933.542 1671.22C931.801 1671.22 930.181 1671.67 928.682 1672.56C927.207 1673.43 926.034 1674.61 925.164 1676.11C924.293 1677.61 923.858 1679.23 923.858 1680.97C923.858 1682.7 924.293 1684.32 925.164 1685.82C926.034 1687.29 927.207 1688.46 928.682 1689.33C930.181 1690.2 931.801 1690.64 933.542 1690.64C934.945 1690.64 936.287 1690.35 937.568 1689.77C938.874 1689.16 939.986 1688.33 940.905 1687.27L942.791 1688.86C941.655 1690.21 940.277 1691.26 938.656 1692.01C937.036 1692.76 935.332 1693.14 933.542 1693.14ZM958.872 1693.1C956.672 1693.1 954.653 1692.56 952.815 1691.47C950.978 1690.38 949.515 1688.92 948.427 1687.09C947.338 1685.25 946.794 1683.24 946.794 1681.04C946.794 1678.84 947.338 1676.82 948.427 1674.99C949.515 1673.13 950.978 1671.66 952.815 1670.57C954.677 1669.48 956.696 1668.94 958.872 1668.94C961.049 1668.94 963.068 1669.48 964.93 1670.57C966.792 1671.66 968.267 1673.13 969.355 1674.99C970.443 1676.85 970.987 1678.86 970.987 1681.04C970.987 1683.21 970.443 1685.23 969.355 1687.09C968.267 1688.92 966.792 1690.38 964.93 1691.47C963.092 1692.56 961.073 1693.1 958.872 1693.1ZM958.872 1690.64C960.613 1690.64 962.221 1690.21 963.696 1689.37C965.171 1688.5 966.332 1687.33 967.178 1685.86C968.049 1684.38 968.484 1682.78 968.484 1681.04C968.484 1679.3 968.049 1677.69 967.178 1676.22C966.332 1674.75 965.171 1673.59 963.696 1672.74C962.221 1671.87 960.613 1671.44 958.872 1671.44C957.131 1671.44 955.523 1671.87 954.048 1672.74C952.573 1673.59 951.401 1674.75 950.53 1676.22C949.684 1677.69 949.261 1679.3 949.261 1681.04C949.261 1682.78 949.684 1684.38 950.53 1685.86C951.401 1687.33 952.573 1688.5 954.048 1689.37C955.523 1690.21 957.131 1690.64 958.872 1690.64ZM999.389 1668.83V1692.85H996.886V1672.34L988.762 1684.08H986.658L978.534 1672.34V1692.92H976.067V1668.83H979.114L987.71 1681.26L996.306 1668.83H999.389ZM1011.58 1668.83C1012.98 1668.83 1014.28 1669.18 1015.46 1669.88C1016.65 1670.58 1017.59 1671.52 1018.29 1672.71C1018.99 1673.89 1019.34 1675.17 1019.34 1676.55C1019.34 1677.92 1018.99 1679.2 1018.29 1680.39C1017.59 1681.57 1016.65 1682.51 1015.46 1683.21C1014.28 1683.89 1012.98 1684.23 1011.58 1684.23H1007.34V1692.92H1004.84V1668.83H1011.58ZM1011.58 1681.8C1012.52 1681.8 1013.4 1681.57 1014.19 1681.11C1015.02 1680.63 1015.66 1679.99 1016.12 1679.19C1016.6 1678.37 1016.84 1677.49 1016.84 1676.55C1016.84 1675.6 1016.6 1674.74 1016.12 1673.94C1015.66 1673.14 1015.02 1672.51 1014.19 1672.05C1013.4 1671.57 1012.52 1671.33 1011.58 1671.33H1007.34V1681.8H1011.58ZM1063.18 1671.29V1679.73H1070.4V1682.05H1063.18V1690.46H1073.92V1692.92H1060.72V1668.83H1073.92V1671.29H1063.18ZM1071.56 1662.09L1069.93 1667.06H1067.68L1069.09 1662.09H1071.56ZM1093.86 1671.26H1087.66V1692.92H1085.19V1671.26H1078.99V1668.83H1093.86V1671.26ZM1101.41 1668.83V1692.92H1098.95V1668.83H1101.41ZM1118.68 1693.14C1116.45 1693.14 1114.41 1692.59 1112.55 1691.51C1110.69 1690.42 1109.21 1688.95 1108.12 1687.09C1107.03 1685.23 1106.49 1683.19 1106.49 1680.97C1106.49 1678.74 1107.03 1676.7 1108.12 1674.84C1109.21 1672.96 1110.69 1671.48 1112.55 1670.39C1114.43 1669.28 1116.48 1668.72 1118.68 1668.72C1120.47 1668.72 1122.17 1669.1 1123.79 1669.85C1125.41 1670.57 1126.79 1671.62 1127.93 1673L1126.04 1674.59C1125.12 1673.53 1124.01 1672.71 1122.7 1672.13C1121.42 1671.52 1120.08 1671.22 1118.68 1671.22C1116.94 1671.22 1115.32 1671.67 1113.82 1672.56C1112.34 1673.43 1111.17 1674.61 1110.3 1676.11C1109.43 1677.61 1108.99 1679.23 1108.99 1680.97C1108.99 1682.7 1109.43 1684.32 1110.3 1685.82C1111.17 1687.29 1112.34 1688.46 1113.82 1689.33C1115.32 1690.2 1116.94 1690.64 1118.68 1690.64C1120.08 1690.64 1121.42 1690.35 1122.7 1689.77C1124.01 1689.16 1125.12 1688.33 1126.04 1687.27L1127.93 1688.86C1126.79 1690.21 1125.41 1691.26 1123.79 1692.01C1122.17 1692.76 1120.47 1693.14 1118.68 1693.14ZM1146.18 1684.04H1137.7L1134.58 1692.92H1131.93L1140.38 1668.87H1143.5L1151.95 1692.92H1149.3L1146.18 1684.04ZM1145.39 1681.73L1141.94 1671.87L1138.49 1681.73H1145.39Z" fill="black"/>
<path fill-rule="evenodd" clip-rule="evenodd" d="M1045.56 1691.64L1045.57 1691.65L1050.66 1687.9L1052.95 1686.21L1052.94 1686.21L1053.05 1686.13L1050.19 1682.02L1051.98 1680.12L1050.9 1676.88L1050.95 1676.87L1048 1668.06L1043.18 1669.52L1041.91 1667.22L1037.26 1667.25L1029.24 1667.19L1029.06 1672.31L1026.51 1672.79L1023.43 1682.48L1022.64 1684.84L1027.39 1686.56L1027.06 1689.14L1029.87 1691.15L1029.87 1691.16L1037.4 1696.61L1040.5 1692.59L1042.8 1693.67L1045.56 1691.64ZM1024.53 1679.15L1024.52 1679.17L1024.5 1679.15L1024.53 1679.15ZM1038.18 1687.45C1041.98 1687.45 1045.07 1684.4 1045.07 1680.63C1045.07 1676.86 1041.98 1673.81 1038.18 1673.81C1034.37 1673.81 1031.28 1676.86 1031.28 1680.63C1031.28 1684.4 1034.37 1687.45 1038.18 1687.45Z" fill="black"/>
</svg>
