<svg width="1566" height="1566" viewBox="0 0 1566 1566" fill="none" xmlns="http://www.w3.org/2000/svg">
<g clip-path="url(#clip0_5_222)">
<rect width="1566" height="1566" fill="#11453F"/>
<path d="M963 437H799.897L748 526L963 437Z" fill="white"/>
<path d="M724.5 500L697.22 453.5L751.78 453.5L724.5 500Z" fill="white"/>
<path d="M872.447 838.165L659.925 466.605L457.663 724.694L872.447 1073.74L872.447 838.165Z" fill="white"/>
<path d="M909 1137.4L703 979L909 1387V1137.4Z" fill="white"/>
<line x1="956" y1="1183" x2="956" y2="1623" stroke="white" stroke-width="40"/>
<line x1="470.858" y1="1300.1" x2="304.858" y2="1420.1" stroke="white" stroke-opacity="0.5" stroke-width="20"/>
<line x1="130.28" y1="1395.22" x2="275.28" y2="1512.22" stroke="white" stroke-opacity="0.5" stroke-width="20"/>
<line x1="230.656" y1="1619.44" x2="323.656" y2="1375.44" stroke="white" stroke-opacity="0.5" stroke-width="20"/>
<line x1="676.756" y1="965.342" x2="596.788" y2="1123.48" stroke="white" stroke-width="20"/>
<path d="M109.5 1427L163.627 1458.25V1520.75L109.5 1552L55.3734 1520.75V1458.25L109.5 1427Z" fill="white" fill-opacity="0.3"/>
<path d="M185 1273L236.962 1303V1363L185 1393L133.038 1363V1303L185 1273Z" fill="white" fill-opacity="0.3"/>
<path d="M15 1248L106.799 1301V1407L15 1460L-76.7987 1407V1301L15 1248Z" fill="white" fill-opacity="0.3"/>
<path d="M1211.5 1362L1308.93 1418.25V1530.75L1211.5 1587L1114.07 1530.75V1418.25L1211.5 1362Z" fill="white" fill-opacity="0.3"/>
<path d="M1491 1362L1635.63 1445.5V1612.5L1491 1696L1346.37 1612.5V1445.5L1491 1362Z" fill="white" fill-opacity="0.3"/>
<path d="M613.5 1155L724.784 1219.25V1347.75L613.5 1412L502.216 1347.75V1219.25L613.5 1155Z" fill="white" fill-opacity="0.3"/>
<path d="M403.5 1470L514.784 1534.25V1662.75L403.5 1727L292.216 1662.75V1534.25L403.5 1470Z" fill="white" fill-opacity="0.3"/>
<path d="M602 1459L662.622 1494V1564L602 1599L541.378 1564V1494L602 1459Z" fill="white" fill-opacity="0.3"/>
<path d="M503.5 1045L565.421 1080.75V1152.25L503.5 1188L441.579 1152.25V1080.75L503.5 1045Z" fill="white" fill-opacity="0.3"/>
<path d="M384.5 1145L454.215 1185.25V1265.75L384.5 1306L314.785 1265.75V1185.25L384.5 1145Z" fill="white" fill-opacity="0.3"/>
<path d="M1353.5 1248L1420.62 1286.75V1364.25L1353.5 1403L1286.38 1364.25V1286.75L1353.5 1248Z" fill="white" fill-opacity="0.3"/>
<path d="M1431.5 833L1498.62 871.75V949.25L1431.5 988L1364.38 949.25V871.75L1431.5 833Z" fill="white" fill-opacity="0.1"/>
<path d="M963.5 722L1030.62 760.75V838.25L963.5 877L896.383 838.25V760.75L963.5 722Z" fill="white" fill-opacity="0.1"/>
<path d="M1241.5 688L1338.06 743.75V855.25L1241.5 911L1144.94 855.25V743.75L1241.5 688Z" fill="white" fill-opacity="0.1"/>
<path d="M286 693L398.583 758V888L286 953L173.417 888V758L286 693Z" fill="white" fill-opacity="0.1"/>
<path d="M109.5 953L191.339 1000.25V1094.75L109.5 1142L27.6606 1094.75V1000.25L109.5 953Z" fill="white" fill-opacity="0.1"/>
<path d="M0 787L71.8801 828.5V911.5L0 953L-71.8801 911.5V828.5L0 787Z" fill="white" fill-opacity="0.1"/>
<path d="M1069.5 854L1185.11 920.75V1054.25L1069.5 1121L953.886 1054.25V920.75L1069.5 854Z" fill="white" fill-opacity="0.1"/>
</g>
<defs>
<clipPath id="clip0_5_222">
<rect width="1566" height="1566" fill="white"/>
</clipPath>
</defs>
</svg>
