<svg width="1764" height="924" viewBox="0 0 1764 924" fill="none" xmlns="http://www.w3.org/2000/svg">
<rect width="1764" height="924" fill="url(#paint0_linear_704_886)"/>
<mask id="mask0_704_886" style="mask-type:alpha" maskUnits="userSpaceOnUse" x="0" y="0" width="1764" height="918">
<path d="M0 0H1764V866L1504 906L1104 918L882 866H0V0Z" fill="#14B4D8"/>
</mask>
<g mask="url(#mask0_704_886)">
<path d="M896.243 325.425C871.239 325.425 846.228 325.425 821.223 325.425C820.981 324.675 820.74 323.926 820.498 323.177C847.19 310.562 873.882 297.942 900.58 285.327C900.509 284.614 900.438 283.894 900.362 283.18C868.678 285.239 836.994 287.304 805.287 289.369C805.181 288.862 804.791 288.053 805.004 287.835C813.943 278.719 810.609 270.973 804.072 261.627C780.43 227.807 754.163 196.785 721.759 170.724C691.557 146.439 657.619 140.905 621.186 146.852C578.15 153.879 535.658 164.269 491.749 165.331C438.017 166.635 384.656 162.464 331.467 155.372C314.339 153.088 297.234 150.581 279.322 148.067C288.302 114.95 279.593 87.6444 255.833 64.8051C336.252 64.8051 416.67 64.8051 497.089 64.8051C515.68 68.4396 534.136 73.8205 552.898 75.2719C576.699 77.1127 600.76 75.2778 624.685 75.8855C670.605 77.0537 709.345 94.8602 741.589 127.718C740.303 131.205 738.864 134.438 737.908 137.807C732.309 157.454 746.911 178.199 767.255 177.946C776.3 177.833 780.878 180.943 783.858 188.778C793.204 213.334 802.756 237.808 812.178 262.335C813.211 265.013 813.907 267.828 814.527 269.828C842.682 245.62 877.546 235.259 910.722 221.789C926.434 215.411 942.825 210.703 959.546 205.888C942.559 229.194 926.316 252.7 914.162 280.218C942.099 270.312 968.632 260.907 995.164 251.502C995.448 252.004 995.725 252.499 996.008 253.001C988.975 262.376 981.942 271.751 973.918 282.448C982.379 283.038 989.064 283.605 995.755 283.947C1012.81 284.808 1029.87 285.375 1046.91 286.46C1053.33 286.867 1057.72 284.867 1062.51 280.312C1075.06 268.376 1088.5 257.367 1101.68 246.086C1103.38 244.629 1105.59 243.767 1107.92 242.422C1107.92 260.24 1107.92 277.244 1107.91 294.225C1091.1 292.083 1074.31 289.888 1057.49 287.971C1056.15 287.817 1054.16 289.292 1053.22 290.561C1042.75 304.644 1032.44 318.834 1021.36 333.992C1056.53 339.225 1089.38 344.116 1120.8 348.789C1116.4 330.434 1112.04 312.202 1107.67 293.965C1123.65 295.794 1139.72 296.957 1155.56 299.57C1240.37 313.565 1322.13 337.874 1400.64 372.938C1407.19 375.865 1413.69 378.915 1420.17 382.013C1426.6 385.086 1432.97 388.278 1442.35 392.886C1442.35 374.484 1443.38 358.117 1442.06 341.939C1440.74 325.678 1437.06 309.612 1434.29 292.714C1444.92 289.233 1456.21 285.54 1468.98 281.351C1445.88 246.947 1416.64 219.76 1381.63 194.926C1392.72 194.926 1401.26 194.808 1409.8 194.95C1435.58 195.369 1461.36 195.793 1487.13 196.472C1490.49 196.56 1494.45 197.292 1497.06 199.198C1534.64 226.592 1566.94 259.355 1595.08 296.296C1595.6 296.968 1595.77 297.895 1596.58 299.865C1549.06 302.863 1503.6 313.082 1459.31 331.927C1472.87 358.247 1483 385.629 1486.11 416.788C1470.58 408.498 1456.46 400.958 1442.59 393.553C1436.84 413.437 1431.33 432.464 1425.66 452.047C1443.89 462.856 1463.1 474.243 1482.31 485.63C1482.03 486.81 1481.75 487.996 1481.47 489.176C1457.39 486.61 1433.31 484.043 1407.78 481.323C1413.45 470.968 1418.25 462.201 1424.13 451.457C1392.53 436.842 1361.48 422.481 1331.98 408.84C1326.04 420.941 1320.73 431.78 1314.37 444.748C1297.55 432.099 1282.89 421.077 1267.33 409.377C1272.66 402.81 1277.09 397.371 1282.02 391.293C1230.84 373.357 1178.96 360.442 1127.65 351.143C1126.23 356.282 1126.02 361.014 1123.8 364.448C1075.19 439.574 1065.94 520.11 1090.09 605.373C1090.72 607.597 1091.24 609.857 1092.23 613.763C1079.68 613.078 1068.14 612.595 1056.65 611.674C1054.95 611.539 1053.14 609.597 1051.85 608.087C1018.86 569.571 1000.32 524.943 995.926 474.479C991.76 426.635 998.964 380.791 1020.71 337.602C1020.94 337.136 1020.74 336.452 1020.74 334.393C998.333 332.699 975.783 330.829 953.197 329.555C951.085 329.437 947.692 332.635 946.695 335.042C929.313 377.051 923.508 420.941 926.322 466.101C928.369 498.905 935.29 530.636 948.217 560.998C922.481 556.591 905.748 539.067 893.506 518.948C886.52 507.467 886.142 491.46 884.543 477.293C878.85 426.8 881.623 376.82 896.031 327.802C896.261 327.012 896.019 326.08 896.019 325.23C911.867 326.209 927.679 327.307 943.515 327.991C945.757 328.086 949.244 326.823 950.182 325.112C957.569 311.601 964.472 297.83 972.036 283.139C953.044 283.139 934.582 282.967 916.127 283.386C914.144 283.434 911.383 286.519 910.445 288.803C905.459 300.904 900.928 313.2 896.243 325.425ZM403.318 129.653C420.246 129.706 434.123 115.835 434.123 98.8664C434.123 82.4818 420.34 68.9175 403.643 68.8585C386.857 68.7995 373.039 82.1219 372.838 98.5478C372.632 115.463 386.491 129.606 403.318 129.653ZM1282.1 390.55C1298.43 396.668 1312.71 402.026 1327.59 407.595C1327.59 388.739 1327.59 371.18 1327.59 353.621C1326.76 353.244 1325.92 352.866 1325.09 352.483C1311.22 364.772 1297.34 377.056 1282.1 390.55Z" fill="black"/>
<path d="M66.7998 595.922C99.7283 624.578 159.614 617.852 180.684 559.89C241.897 574.209 296.261 556.515 347.928 522.359C360.602 535.145 376.621 540.437 394.846 538.006C408.54 536.183 419.349 528.737 428.376 518.636C447.564 497.172 445.363 470.922 422.459 441.693C437.38 412.405 451.316 382.922 467.193 354.519C480.805 330.169 498.983 309.324 525.126 297.305C555.353 283.405 586.287 284.945 617.156 294.78C658.681 308.014 693.716 332.618 727.518 359.168C738.333 367.664 748.629 376.827 758.582 386.716C745.407 382.255 732.333 377.482 719.04 373.393C685.291 363.015 651.1 357.51 615.487 361.274C579.502 365.08 554.196 382.373 538.508 414.971C523.233 446.696 513.822 480.321 504.175 513.951C488.009 570.315 463.228 623.027 434.731 675.732C419.379 648.728 398.05 630.443 367.888 624.986C346.235 621.068 324.953 623.074 304.899 633.293C266.188 653.017 245.561 696.277 254.246 739.831C262.335 780.394 298.904 812.125 345.427 816.509C314.233 854.913 284.136 891.96 254.046 929.006C222.238 929.006 190.431 929.006 158.623 929.006C161.184 927.579 163.75 926.151 166.311 924.717C188.614 912.244 200.243 888.16 195.475 864.353C190.655 840.31 172.335 821.872 150.481 819.076C121.63 815.382 99.2858 826.734 88.1995 850.718C77.5852 873.669 82.8245 899.246 102.401 916.722C107.853 921.59 114.644 924.953 120.815 929.012C102.814 929.012 84.8069 929.012 66.8057 929.012C66.7998 817.972 66.7998 706.95 66.7998 595.922ZM558.733 365.511C573.112 365.705 585.136 354.064 585.355 339.733C585.573 325.272 573.997 313.737 559.247 313.725C544.786 313.714 533.428 324.587 533.08 338.777C532.726 353.032 544.514 365.316 558.733 365.511Z" fill="black"/>
<path d="M502.499 928.999C516.046 884.731 522.666 839.86 515.544 793.533C507.656 742.178 522.135 696.334 551.423 654.52C583.986 608.033 627.116 572.822 674.281 542.53C701.687 524.925 730.615 509.667 759.077 493.737C764.004 490.975 765.573 488.922 764.417 482.845C754.452 430.417 761.455 379.805 782.283 330.947C783.197 328.799 786.177 326.291 788.348 326.144C796.608 325.578 804.927 325.914 813.742 327.466C803.706 333.077 793.747 338.829 783.598 344.234C778.979 346.694 776.772 349.131 777.279 355.237C783.41 428.747 813.571 491.613 861.126 546.932C863.799 550.041 866.454 553.157 870.07 557.381C845.874 559.7 824.067 557.204 803.659 546.419C782.294 535.132 771.031 516.523 766.5 491.86C723.895 525.904 685.267 561.895 652.097 603.331C635.252 598.157 627.169 599.543 621.298 608.458C615.115 617.839 616.619 625.852 625.935 636.283C618.855 651.547 610.347 665.884 605.444 681.36C596.984 708.076 600.884 735.476 610.932 760.628C632.614 814.879 640.94 871.237 642.928 929.005C596.122 928.999 549.311 928.999 502.499 928.999ZM573.619 869.762C593.284 869.762 608.961 853.974 608.76 834.367C608.56 815.11 593.019 799.834 573.625 799.834C554.208 799.834 538.673 815.092 538.466 834.362C538.266 853.968 553.942 869.762 573.619 869.762Z" fill="black"/>
<path d="M155.018 64.7993C148.859 72.794 141.613 80.2045 136.846 88.9603C132.262 97.3738 130.244 107.18 126.727 117.475C107.074 112.602 86.9369 107.605 66.7998 102.607C66.7998 90.0046 66.7998 77.4019 66.7998 64.7993C96.206 64.7993 125.612 64.7993 155.018 64.7993Z" fill="black"/>
<path d="M1673.47 566.733C1662.97 555.718 1653.29 545.54 1642.84 534.554C1641.54 537.463 1640.68 539.504 1639.73 541.493C1629.33 563.028 1618.77 584.487 1608.69 606.175C1607.21 609.373 1606.64 614.359 1608.08 617.344C1620.15 642.414 1627.97 668.516 1630.28 696.353C1630.78 702.489 1628.64 705.887 1624.38 709.18C1614.2 717.044 1602.03 717.859 1590.16 717.64C1557.49 717.044 1536.89 733.671 1523.71 761.927C1521.32 767.06 1518.69 772.081 1515.99 777.066C1510.06 788.052 1500.47 794.289 1489.52 800.1C1462.73 814.325 1434.89 823.583 1404.41 820.638C1389.07 819.158 1374.09 814.172 1358.81 811.664C1346.76 809.688 1334.51 808.537 1322.31 808.012C1310.97 807.523 1305.43 814.266 1308.61 825.335C1311.13 834.12 1315.21 842.652 1319.81 850.593C1324.45 858.594 1324.98 866.093 1319.52 873.161C1315.02 879.002 1309.85 884.708 1303.9 888.974C1294.24 895.9 1285.7 895.222 1279.42 885.286C1268.13 867.45 1257.7 848.93 1248.61 829.884C1231.48 794 1216.32 757.171 1198.74 721.529C1192.44 708.761 1181.47 698.294 1173.96 688.5C1217.84 692.105 1255.33 712.802 1281.95 751.147C1289.56 762.104 1298.54 763.702 1311.82 763.443C1264.55 723.529 1231.06 676.67 1217.75 616.89C1239.08 607.916 1260.22 599.019 1281.75 589.956C1284.49 599.078 1286.99 608.872 1290.37 618.353C1306.13 662.539 1335.68 696.394 1372.62 723.8C1392.01 738.19 1413.52 749.731 1433.96 762.723C1439.69 766.369 1444.24 765.809 1450.19 762.222C1496.45 734.302 1535.64 698.742 1568.43 655.825C1579.87 640.845 1592.62 626.861 1605.5 611.545C1596.1 597.343 1586.65 583.041 1576.13 567.129C1550.94 624.678 1515.22 671.791 1468.45 710.289C1454.21 722.006 1438.88 732.402 1422.96 744.214C1419.58 727.806 1418.32 712.95 1413.3 699.497C1406.9 682.358 1411.74 672.534 1425.05 660.451C1466.5 622.832 1494.9 576.445 1509 521.828C1510.09 517.627 1511.32 513.461 1512.76 508.281C1505.5 503.024 1497.34 497.496 1489.69 491.342C1487.62 489.678 1486.02 486.132 1485.98 483.43C1485.69 461.9 1485.82 440.365 1485.82 418.829C1486.7 418.145 1487.59 417.461 1488.47 416.776C1523.3 440.648 1558.12 464.52 1592.95 488.392C1592.75 489.69 1592.54 490.988 1592.33 492.286C1568.04 498.658 1543.74 505.024 1519.14 511.473C1537.6 529.049 1556.44 546.992 1577.11 566.68C1583.93 542.46 1590.58 518.848 1597.57 494.05C1612.06 506.694 1626.79 519.544 1642.13 532.926C1652.97 500.658 1658.5 468.072 1660.69 434.801C1672.42 449.327 1681.2 537.363 1673.47 566.733Z" fill="black"/>
<path d="M998.953 250.741C1026.34 218.916 1057.65 195.84 1092.84 177.656C1092.48 176.677 1092.13 175.691 1091.78 174.712C1049.27 183.916 1006.76 193.126 964.331 202.313C970.638 194.513 976.603 186.288 987.347 181.875C1030.79 164.021 1075.8 159.679 1122.65 165.337C1119.7 166.558 1116.74 167.768 1113.8 169.013C1110.55 170.381 1107.31 171.786 1104.17 173.927C1180.29 163.761 1256.61 164.216 1335.81 168.198C1307.69 145.335 1278.08 130.219 1247.69 116.384C1336.13 123.936 1429.93 144.527 1483.82 189.97C1437.76 182.819 1390.57 175.497 1343.39 168.169C1342.92 169.485 1342.45 170.794 1341.97 172.11C1354.54 179.208 1367.11 186.3 1379.68 193.398C1250.72 195.699 1124.62 213.505 998.953 250.741Z" fill="black"/>
<path d="M428.542 877.245C393.879 877.233 367.499 850.558 367.517 815.524C367.529 780.754 394.156 754.487 429.326 754.534C463.6 754.581 489.868 781.185 489.862 815.86C489.85 850.771 463.394 877.256 428.542 877.245Z" fill="black"/>
<path d="M1394.52 643.317C1379.53 610.442 1360.6 581.23 1333.57 556.645C1340.57 550.945 1347.34 545.694 1353.8 540.095C1360.36 534.413 1367.41 529.02 1372.81 522.336C1379.55 513.975 1387 512.193 1397.51 512.848C1421.96 514.37 1446.54 514.058 1471.06 514.477C1473.71 514.524 1476.37 514.482 1480.05 514.482C1466.21 567.755 1436.43 608.996 1394.52 643.317Z" fill="black"/>
<path d="M208.06 439.243C183.321 442.412 151.921 415.749 153.036 383.977C154.11 353.361 177.238 329.637 208.208 329.643C239.089 329.649 262.194 353.462 263.232 384.125C264.294 415.649 233.047 442.459 208.06 439.243Z" fill="black"/>
<path d="M149.195 257.402C121.482 257.39 100.991 236.427 101.056 208.148C101.115 181.167 122.491 160.333 150.051 160.398C177.262 160.463 198.266 181.662 198.19 209.003C198.113 236.875 177.321 257.414 149.195 257.402Z" fill="black"/>
<path d="M1271.79 309.613C1246.7 309.559 1226.49 289.092 1226.44 263.704C1226.4 238.103 1246.91 217.966 1272.98 218.013C1298.72 218.067 1318.51 237.832 1318.54 263.521C1318.57 290.024 1298.64 309.672 1271.79 309.613Z" fill="black"/>
<path d="M1212.6 579.937C1209.95 539.421 1216.58 500.534 1233.49 463.015C1252.06 472.007 1270.18 480.786 1289.11 489.955C1283.88 507.614 1283.37 527.468 1266.03 540.725C1248.75 553.941 1232.4 568.373 1215.65 582.268C1214.63 581.489 1213.62 580.71 1212.6 579.937Z" fill="black"/>
<path d="M1145 590.482C1121.5 590.505 1103.98 573.171 1104.02 549.924C1104.06 527.227 1121.69 509.709 1144.53 509.686C1168.39 509.662 1185.47 526.696 1185.31 550.343C1185.15 573.666 1168.29 590.452 1145 590.482Z" fill="black"/>
<path d="M1553.75 426.641C1532.81 426.671 1516.53 410.799 1516.32 390.12C1516.1 369.398 1532.33 353.09 1553.22 353.043C1574.64 352.996 1590.37 368.454 1590.4 389.583C1590.43 410.847 1574.84 426.612 1553.75 426.641Z" fill="black"/>
<path d="M380.385 334.818C360.106 334.842 345.887 320.717 345.911 300.58C345.934 280.873 360.106 266.684 379.813 266.625C400.103 266.566 414.299 280.702 414.24 300.922C414.181 320.611 400.009 334.8 380.385 334.818Z" fill="black"/>
<path d="M334.329 505.862C315.944 505.88 302.627 492.557 302.698 474.22C302.763 456.697 316.528 443.079 334.169 443.067C352.159 443.055 365.546 456.242 365.623 474.049C365.711 492.835 352.92 505.838 334.329 505.862Z" fill="black"/>
<path d="M1123.63 670.428C1095.21 667.737 1066.57 666.363 1038.46 661.796C1024.78 659.577 1011.82 651.907 999.053 645.647C994.634 643.482 991.79 638.113 989.088 632.189C994.15 632.72 999.195 633.464 1004.27 633.741C1027.59 635.021 1050.92 636.001 1074.21 637.529C1078.33 637.8 1082.85 639.387 1086.26 641.706C1099.02 650.373 1111.4 659.607 1123.91 668.622C1123.82 669.23 1123.72 669.832 1123.63 670.428Z" fill="black"/>
<path d="M706.62 313.212C691.634 313.165 680.73 302.102 680.783 286.992C680.836 271.982 691.881 261.155 707.074 261.22C722.155 261.291 732.993 272.289 732.911 287.44C732.828 302.421 721.766 313.259 706.62 313.212Z" fill="black"/>
<path d="M641.471 430.24C628.544 430.087 619.351 420.399 619.582 407.165C619.806 394.314 629.694 385.145 643.005 385.452C655.619 385.741 664.983 395.276 664.977 407.826C664.965 421.219 655.336 430.399 641.471 430.24Z" fill="black"/>
<path d="M1141.98 475.252C1129.14 475.052 1119.83 465.11 1120.23 452.053C1120.62 439.356 1130.61 430.205 1143.79 430.464C1156.22 430.712 1165.55 440.388 1165.48 452.967C1165.41 466.331 1155.78 475.465 1141.98 475.252Z" fill="black"/>
<path d="M738.174 649.889C725.671 649.812 716.786 640.897 716.797 628.454C716.809 615.668 726.043 606.706 739.017 606.907C751.343 607.096 760.051 616.241 759.915 628.849C759.78 641.18 750.7 649.972 738.174 649.889Z" fill="black"/>
<path d="M833.679 424.842C821.713 424.736 812.285 415.154 812.356 403.165C812.426 391.217 821.961 381.865 834.074 381.854C846.275 381.842 855.775 391.14 855.798 403.118C855.834 415.632 846.34 424.954 833.679 424.842Z" fill="black"/>
<path d="M121.706 462.649C109.21 462.649 100.991 454.353 101.056 441.816C101.121 429.307 109.44 421.295 122.172 421.46C134.326 421.62 142.315 429.679 142.374 441.833C142.427 454.365 134.208 462.649 121.706 462.649Z" fill="black"/>
<path d="M550.798 520.258C539.428 520.164 531.197 511.697 531.357 500.275C531.516 488.881 539.93 480.745 551.429 480.869C562.84 480.993 570.952 489.354 570.87 500.906C570.793 512.205 562.332 520.359 550.798 520.258Z" fill="black"/>
<path d="M620.549 206.992C609.061 207.003 601.521 199.498 601.568 188.094C601.615 176.689 609.221 169.302 620.803 169.408C631.977 169.514 639.17 176.706 639.282 187.905C639.406 199.392 631.96 206.974 620.549 206.992Z" fill="black"/>
<path d="M1641.64 405.035C1633.12 405.035 1626.25 398.398 1626.15 390.049C1626.05 381.7 1632.8 374.827 1641.27 374.655C1650.59 374.467 1657.12 380.898 1656.98 390.108C1656.85 398.899 1650.54 405.035 1641.64 405.035Z" fill="black"/>
<path d="M1622.74 341.851C1622.94 349.309 1618.26 354.365 1610.94 354.619C1603.24 354.884 1597.52 349.775 1597.37 342.47C1597.21 335.408 1602.33 329.956 1609.4 329.649C1617.36 329.301 1622.54 334.039 1622.74 341.851Z" fill="black"/>
<path d="M1330.6 239.365C1326.01 239.088 1322.4 235.312 1321.97 228.798C1321.56 222.456 1326.8 217.741 1333.41 218.03C1340.39 218.331 1343.56 222.402 1343.63 228.999C1343.69 235.259 1339.13 239.442 1330.6 239.365Z" fill="black"/>
<path d="M1194.1 249.119C1195.18 243.88 1197.95 239.532 1205.06 239.614C1211.8 239.691 1216.38 244.281 1215.8 250.96C1215.22 257.639 1211.41 261.138 1204.59 260.973C1198.52 260.831 1193.95 256.01 1194.1 249.119Z" fill="black"/>
<path d="M1193.46 494.876C1184.79 492.882 1181.25 489.194 1181.66 482.934C1182.02 477.264 1185.48 473.471 1191.66 473.754C1198.11 474.049 1202.18 478.09 1201.02 484.162C1200.27 488.073 1196.09 491.33 1193.46 494.876Z" fill="black"/>
<path d="M1587.35 430.842C1589.54 434.323 1593.08 437.615 1593.58 441.32C1594.3 446.636 1590.38 451.12 1584.93 449.639C1581.36 448.672 1576.76 444.247 1576.38 440.937C1576.03 437.857 1580.64 434.205 1583.08 430.806C1584.5 430.818 1585.93 430.83 1587.35 430.842Z" fill="black"/>
</g>
<defs>
<linearGradient id="paint0_linear_704_886" x1="1206" y1="192" x2="734" y2="980" gradientUnits="userSpaceOnUse">
<stop stop-color="#ED920A"/>
<stop offset="1" stop-color="#CF0697"/>
</linearGradient>
</defs>
</svg>
