<svg width="4792" height="1364" viewBox="0 0 4792 1364" fill="none" xmlns="http://www.w3.org/2000/svg">
<rect width="4792" height="1364" fill="#FFA31A"/>
<g clip-path="url(#clip0_702_1186)">
<path d="M3175.25 1262.93H3347.25L3241.9 1070.59L3231.15 980.328L3153.75 1007.19L3098.93 980.328L3115.05 1043.72L3082.8 1099.6L3175.25 1262.93Z" fill="black"/>
<path d="M2971 610.387L3030.12 518.285L2990.35 459.187L2974.23 465.634L2954.88 477.454L2929.08 497.869L2962.4 546.223C2974.23 519.36 2998.95 528.672 3010.78 538.701L2998.95 559.117L2983.9 572.011L2968.85 577.384L2971 610.387L2947.35 647.227L2949.33 664.419L2957.03 671.399L2965.63 697.73L2968.85 740.71L2997.88 708.475L2957.03 671.399L2949.33 664.419L2947.35 647.227L2971 610.387Z" fill="black"/>
<path d="M3060.23 780.467L3101.08 786.914H3067.75L3037.65 796.585H3014L2992.5 786.914L3016.15 792.287H3035.5L3060.23 780.467Z" fill="black"/>
<path d="M3065.6 1079.18L3164.5 1264H2670L3065.6 1079.18Z" fill="black"/>
<path d="M3383.8 1264L3594.5 1126.46L3788 1264H3383.8Z" fill="black"/>
<path fill-rule="evenodd" clip-rule="evenodd" d="M3001.1 709.549L2949.5 761.126L2992.5 956.688L3100 973.88L3431.1 810.554L3448.3 636.482L3542.9 524.732L3560.1 430.175L3517.1 376.449L3575.15 415.132L3530 348.512L3588.05 376.449L3469.8 249.656L3418.2 260.401L3396.7 183.036L3226.85 170.142L3165.57 96L3117.2 170.142L3063.45 118.565L3057 202.377L2934.45 183.036L3016.15 292.637L2934.45 281.891L3001.1 337.766H2960.25L2977.45 430.175L3044.1 322.723L3100 281.891L3252.65 260.401L3362.3 322.723V415.132L3396.7 447.367V670.867L3205.35 761.126L3057 698.804L3001.1 709.549ZM3180.62 809.479L3050.55 752.53L3020.45 762.201H2982.82L2989.27 797.66L2982.82 820.224L3001.1 865.354L3012.92 827.746L3045.17 825.597L3087.1 865.354L3188.15 842.789L3180.62 809.479Z" fill="black"/>
<path fill-rule="evenodd" clip-rule="evenodd" d="M3397 671V447L3364 416V322L3333 307L3283.38 501.093L3188.15 410.833L3074.2 430.175L3087.1 475.305L3074.2 546.223L3195.67 580.607L3234.37 606.396L3230.07 750L3397 671ZM3118.27 524.732L3113.97 537.626L3138.7 542.999H3164.5L3191.37 537.626L3217.17 529.03L3235.45 521.509H3244.05L3250.5 501.093L3239.75 494.994C3239.75 494.994 3230.43 509.853 3230.07 509.689C3143.91 470.175 3139 505.179 3136.01 526.419C3135.83 527.704 3135.66 528.94 3135.47 530.105C3135.38 530.688 3118.27 524.732 3118.27 524.732Z" fill="black" fill-opacity="0.5"/>
<path d="M3583.75 630.035L3549.35 552.67L3474.1 630.035L3487 649.376L3452.6 688.059V741.785L3497.75 758.977L3583.75 630.035Z" fill="black"/>
<path d="M3549.35 1143.65C3454.75 1006.12 3444.01 883.621 3460.13 766.499L3445.07 823.448L3403.15 839.566V982.476C3484.13 1065.57 3552.06 1147.6 3549.35 1143.65Z" fill="black"/>
<path fill-rule="evenodd" clip-rule="evenodd" d="M3160.7 535.308C3151.14 533.681 3144.93 523.351 3146.82 512.236C3148.71 501.121 3158 493.429 3167.56 495.056C3177.12 496.683 3183.33 507.012 3181.44 518.128C3179.55 529.243 3170.26 536.935 3160.7 535.308ZM3161.27 522.583C3158.31 522.583 3155.9 519.216 3155.9 515.062C3155.9 510.908 3158.31 507.54 3161.27 507.54C3164.24 507.54 3166.65 510.908 3166.65 515.062C3166.65 519.216 3164.24 522.583 3161.27 522.583Z" fill="black" fill-opacity="0.5"/>
<path fill-rule="evenodd" clip-rule="evenodd" d="M2981.39 565.369C2974.41 563.908 2969.86 554.633 2971.25 544.652C2972.63 534.671 2979.42 527.765 2986.41 529.225C2993.39 530.686 2997.94 539.962 2996.55 549.942C2995.17 559.923 2988.38 566.83 2981.39 565.369ZM2981.81 553.943C2979.64 553.943 2977.88 550.919 2977.88 547.189C2977.88 543.459 2979.64 540.435 2981.81 540.435C2983.98 540.435 2985.74 543.459 2985.74 547.189C2985.74 550.919 2983.98 553.943 2981.81 553.943Z" fill="black"/>
<line x1="3229.49" y1="753.03" x2="3066.11" y2="690.334" stroke="black" stroke-opacity="0.7" stroke-width="5"/>
<line x1="3230.01" y1="737.049" x2="3052.13" y2="671.345" stroke="black" stroke-opacity="0.7" stroke-width="5"/>
<line x1="3230.53" y1="720.061" x2="3041.15" y2="651.35" stroke="black" stroke-opacity="0.7" stroke-width="5"/>
<line x1="3231.09" y1="703.084" x2="3048.19" y2="640.365" stroke="black" stroke-opacity="0.7" stroke-width="5"/>
<line x1="3231.58" y1="687.094" x2="3055.2" y2="627.368" stroke="black" stroke-opacity="0.7" stroke-width="5"/>
<line x1="3232.12" y1="670.11" x2="3062.22" y2="614.376" stroke="black" stroke-opacity="0.7" stroke-width="5"/>
<line x1="3232.7" y1="653.138" x2="3069.29" y2="604.396" stroke="black" stroke-opacity="0.7" stroke-width="5"/>
<line x1="3233.22" y1="637.157" x2="3073.33" y2="592.407" stroke="black" stroke-opacity="0.7" stroke-width="5"/>
<line y1="-2.5" x2="165.056" y2="-2.5" transform="matrix(-0.965735 -0.259529 0.350303 -0.936636 3234.38 618.756)" stroke="black" stroke-opacity="0.7" stroke-width="5"/>
<line x1="3233.79" y1="604.187" x2="3085.41" y2="568.43" stroke="black" stroke-opacity="0.7" stroke-width="5"/>
<line x1="3363.8" y1="1264.18" x2="3254.79" y2="1060.18" stroke="black" stroke-width="5"/>
<line x1="3386.82" y1="1262.22" x2="3270.82" y2="1055.22" stroke="black" stroke-width="5"/>
<line x1="3404.83" y1="1254.25" x2="3284.83" y2="1046.25" stroke="black" stroke-width="5"/>
<line x1="3426.87" y1="1243.31" x2="3300.87" y2="1038.31" stroke="black" stroke-width="5"/>
<line x1="3448.89" y1="1231.34" x2="3321.89" y2="1031.34" stroke="black" stroke-width="5"/>
<line x1="3473.93" y1="1211.41" x2="3343.93" y2="1020.41" stroke="black" stroke-width="5"/>
<line x1="3495.96" y1="1193.45" x2="3363.96" y2="1007.45" stroke="black" stroke-width="5"/>
<line x1="3527.04" y1="1174.55" x2="3385.04" y2="995.554" stroke="black" stroke-width="5"/>
<line x1="3412.1" y1="984.244" x2="3235.1" y2="1071.24" stroke="black" stroke-width="5"/>
<line x1="3412.1" y1="964.244" x2="3235.1" y2="1051.24" stroke="black" stroke-width="5"/>
<line x1="3412.1" y1="944.244" x2="3235.1" y2="1031.24" stroke="black" stroke-width="5"/>
<line x1="3412.1" y1="924.244" x2="3235.1" y2="1011.24" stroke="black" stroke-width="5"/>
<line x1="3412.1" y1="904.244" x2="3235.1" y2="991.244" stroke="black" stroke-width="5"/>
<line x1="3412.1" y1="884.244" x2="3235.1" y2="971.244" stroke="black" stroke-width="5"/>
<line x1="3412.1" y1="864.244" x2="3235.1" y2="951.244" stroke="black" stroke-width="5"/>
<line x1="3412.1" y1="904.244" x2="3235.1" y2="991.244" stroke="black" stroke-width="5"/>
<mask id="mask0_702_1186" style="mask-type:alpha" maskUnits="userSpaceOnUse" x="-276" y="-208" width="5328" height="1528">
<path d="M3004 1056L2444 1320H-276V-208H5052V1264H3854L3620 1090L3542 1078L3488 890L3514 792L3620 642L3582 534L3638 384L3514 202H3466L3452 130L3250 118L3168 24L3104 102L3040 62L3020 158L2906 130L2874 158L2928 236L2888 270L2940 322L2952 412L2940 436L2888 494L2940 562V600L2906 642L2928 666L2940 724L2906 754L2966 984L3066 998L3076 1028L3004 1056Z" fill="#C4C4C4"/>
</mask>
<g mask="url(#mask0_702_1186)">
<path fill-rule="evenodd" clip-rule="evenodd" d="M3714.48 368.832L3408.25 627.409L3703.48 406.339L3714.48 368.832ZM3365.78 671.702L3277.52 737.788L3276.89 738.324L3353.72 786.948L3566.38 598.956L3365.78 671.702ZM3259.26 753.206L3336.55 802.121L3192.86 929.143L3152.53 948.96L3038.22 939.845L3259.26 753.206ZM3362.95 818.827L3294.83 879.043L3386.75 833.885L3362.95 818.827ZM3266.46 904.126L3210.51 953.584L3305.62 961.17L3547.03 939.488L3548.06 935.974L3396.66 840.158L3266.46 904.126ZM3588.82 935.734L3567.68 922.36L3624.68 728.126L4952 76L4947.59 67.0248L3628.5 715.107L3674.04 559.915L4294.82 334.802L4288 316L3684 535.032L4244 40.0001L4224.13 17.523L4170.02 65.3558L4166.01 59.9955L3723.51 391.337L3735.26 351.284L4461.36 -261.809L4451.68 -273.27L3742.92 325.186L3768.4 238.366L4092 0.000213623L4083.1 -12.077L3775.37 214.598L3836 8.00006L3821.61 3.77649L3755.43 229.289L3162.58 665.985L2876.02 484.627L2917 24.0001L2907.04 23.1138L2867.61 466.268L2842.6 311.802L2856 96.0001L2846.02 95.3804L2835.36 267.075L2811.9 122.208L2836 -88L2816.13 -90.2779L2800.11 49.4166L2796 24.0001L2786.13 25.5985L2795.92 86.0457L2766.28 344.561L2670 -31.9999L2655.47 -28.2842L2760.34 381.878L2635.89 20.0392L2626.43 23.2916L2758.94 408.565L2758.73 410.4L2641.97 336.508L2513.2 -48.4031L2499.93 -43.9614L2623.25 324.656L2545.92 275.72L2476 23.9999L2466.36 26.6764L2533.33 267.75L2479.4 233.62L2420 40.0001L2410.44 42.933L2461.25 208.542L2336.13 6.6702L2308 -104L2293.46 -100.304L2320.74 6.98117L2306.5 15.8039L2334.44 60.8827L2358.98 157.408L2251.04 89.0982L2212 24L2203.42 29.1431L2232.25 77.2048L1908 -128L1896.23 -109.41L2115.22 29.1807L2153.36 137.248L2012 -7.99997L2001.25 2.46201L2165.27 170.99L2263.78 450.084L1985.26 203.811L1896 68.0002L1887.64 73.4925L1956.69 178.549L1800 40.0001L1793.38 47.4915L1977.64 210.419L2320.17 731.596L1860.83 367.042L1700 144L1691.89 149.849L1851.4 371.057L1844.57 379.666L1875.06 403.864L1977.19 545.508L1116 -47.9998L1110.33 -39.7658L1994.6 569.651L2071.13 675.784L1951.15 589.886L1857 488L1835.97 507.431L1116 -7.99988L1110.18 0.131226L1864.04 539.823L2002.44 689.594L1104 456L1097.71 480.196L2033.86 723.594L2091.25 785.702L1980 759L1973 788.172L2127.88 825.347L2169.68 870.578L2018.44 858.516L1612 632L1604.7 645.103L1982.48 855.649L1212.06 794.207L55.9996 492L53.4705 501.675L1155.16 789.669L-235.899 678.732L-237.092 693.685L1237.99 811.323L1827.53 965.436L1823.96 991.727L2040.79 1021.18L2169.46 1054.82L2168.24 1059.52L2179.15 1062.34L1604 1114L1605.79 1133.92L2170.65 1083.19L2170.42 1083.9L2064.06 1122.47L2070.87 1141.28L2178.7 1102.17L2268.36 1131.07L826.776 1249.05L828 1264L1635.77 1197.89L1635.61 1201.99L2296.39 1227.78L1616.15 1360.75L1621.9 1390.2L2380.81 1241.85L2291.1 1307.92L2300 1320L2415.23 1235.12L2426.74 1232.87L2474.18 1234.72L2499.48 1269.81L2415.59 1311.02L2420 1320L2505.41 1278.04L2517.31 1294.54L2494.01 1312L2500 1320L2523.16 1302.65L2539.89 1325.85L2548 1320L2531.17 1296.66L2550.22 1282.39L2562.05 1295.19L2594.57 1387.33L2604 1384L2579.21 1313.76L2625.97 1364.36L2648 1344L2609.25 1302.06L2642.77 1273.76L2654.48 1319.81L2650.13 1357.72L2670 1360L2679.38 1278.15L2723.64 1345.49L2732 1340L2682.39 1264.51L2739.86 1283.04L2746 1264L2709.97 1243.92L2750.05 1245.49L2773.36 1265.54L2770.02 1319.38L2780 1320L2781.05 1303.09L2792.05 1315.53L2786.04 1383.11L2796 1384L2801.81 1318.66L2826.44 1398.93L2836 1396L2809.12 1308.4L2816.06 1302.27L2822.15 1307.51L2826.36 1322.68L2836 1320L2835.79 1319.25L2845.48 1327.58L2852 1320L2830.98 1301.91L2828.11 1291.61L2866.62 1257.57L2957 1322.27L2957.18 1322.83L2910.22 1346.62L2917 1360L2970.75 1332.77L3006.33 1378.44L3013.68 1372.72L3015.47 1379.72L3030 1376L3026.59 1362.66L3030 1360L3023.91 1352.18L3013.42 1311.15L3046.34 1294.47L3069.02 1310.11L3073.54 1323.25L3083 1320L3082.88 1319.66L3095.32 1328.23L3101 1320L3077.41 1303.74L3073.03 1291.03L3098.47 1297.68L3099.21 1294.86L3134.5 1351.8L3160 1336L3113.25 1260.58L3114.93 1259.73L3166.61 1261.74L3270.38 1353.49L3277 1346L3182.41 1262.36L3198.61 1262.99L3199 1253L3170.57 1251.89L3155.94 1238.95L3157.62 1238.1L3171.83 1245.51L3182 1226L3181.75 1225.87L3188.59 1222.41L3239.25 1274.46L3250 1264L3202.61 1215.31L3379.41 1125.74L3484.94 1151.07L3436.61 1315.78L3451 1320L3499.54 1154.57L4077 1293.17L4081.68 1273.68L4184.23 1338.59L4196 1320L4104.15 1261.87L4297.71 1312.2L4304 1288L4034.87 1218.03L3731.98 1026.34L3831.72 1018.17L5546.81 1154.95L5548 1140L3924.85 1010.55L5724.11 863.301L5722.88 848.351L3831.71 1003.13L3675.64 990.678L3662.46 982.34L3741.97 942.059L5925.79 745.92L5924 726L3790.15 917.652L5412 96.0002L5405.22 82.6193L3749.8 921.275L3588.82 935.734ZM3557.03 958.67L3580.58 956.555L3624.85 984.577L3621.35 986.349L3550.56 980.704L3557.03 958.67ZM3540.97 960.112L3424.04 970.614L3535.29 979.486L3540.97 960.112ZM3216.88 969.14L3194.89 967.387L3190.2 971.536L3216.88 969.14ZM3170.77 993.361L3335.3 978.584L3530.97 994.189L3520.89 1028.56L3357.57 1041.93L3170.77 993.361ZM3065.61 1002.81L3096.93 999.993L3109.12 1003.16L3085.24 1024.28L3042.69 1014.07L3065.61 1002.81ZM3139.78 976.064L3115.62 978.234L3145.69 963.462L3153.35 964.073L3139.78 976.064ZM3039.53 985.068L2983.43 990.107L2981.29 987.915L2997.58 974.162L3039.53 985.068ZM3014.79 1007.37L3037.85 1005.3L3027.45 1010.41L3014.79 1007.37ZM2905.17 1017.22L2921.26 1015.77L2922.49 1016.07L2922.88 1017.6L2914.04 1025.07L2905.17 1017.22ZM2870.74 1020.31L2885.29 1019L2873.3 1027.98L2870.74 1020.31ZM2849.88 1002.1L2848.63 998.339L2830.69 994.035L2829.82 1003.9L2849.88 1002.1ZM2828.02 1024.15L2856.41 1021.6L2861.5 1036.82L2844.14 1049.81L2826.55 1040.64L2828.02 1024.15ZM2819.7 1004.81L2820.87 991.676L2800.69 986.833L2799.63 1003.87L2801.19 1006.47L2819.7 1004.81ZM2812.62 1025.53L2817.9 1025.05L2817.18 1033.13L2812.62 1025.53ZM2799.78 1026.68L2801.55 1026.52L2802.5 1028.1L2799.78 1026.68ZM2789.38 1007.54L2766.93 1009.55L2750.13 1000.79L2745.78 995.206L2744.96 992.242L2764.19 978.073L2773.89 980.402L2789.46 1006.35L2789.38 1007.54ZM2722.06 1013.58L2718.77 1013.88L2718.18 1011.96L2719.85 1010.74L2722.06 1013.58ZM2724.77 1033.42L2736.69 1032.35L2750.72 1050.36L2758.9 1079.79L2732.59 1058.91L2724.77 1033.42ZM2707.26 1034.99L2714.59 1034.33L2718.76 1047.94L2706.86 1038.49L2707.26 1034.99ZM2686.34 1016.79L2680.21 1017.34L2596.29 950.742L2602.36 948.542L2691.7 995.129L2689.48 1014.48L2686.34 1016.79ZM2648.36 1020.2L2595 1024.99L2582.19 974.6L2648.36 1020.2ZM2600 1044.63L2655.29 1039.66L2617.89 1067.21L2603.03 1056.57L2600 1044.63ZM2579.87 1026.35L2562.94 1027.87L2502.64 984.703L2563.66 962.576L2579.87 1026.35ZM2547.68 1029.24L2528.87 1030.93L2510.06 1002.31L2547.68 1029.24ZM2541.33 1049.89L2572.6 1047.09L2587.93 1058.06L2589.82 1065.5L2549.86 1060.07L2545.63 1056.43L2541.33 1049.89ZM2517.57 1031.95L2517.21 1031.98L2474.23 995.006L2489.62 989.424L2517.57 1031.95ZM2503.32 1033.23L2480.91 1035.24L2470.11 1004.66L2503.32 1033.23ZM2501.38 1053.48L2524.46 1051.41L2531.65 1057.59L2501.38 1053.48ZM2281.28 1073.25L2351.16 1066.97L2360.52 1077.1L2375.26 1097.55L2281.28 1073.25ZM2470.63 1036.16L2458.16 1000.83L2364.32 1034.86L2412.4 1041.39L2470.63 1036.16ZM2246.57 1056.29L2260.91 1051.09L2123.11 1032.37L2171.96 1045.14L2172 1045L2223.63 1058.35L2246.57 1056.29ZM3616.6 953.319L3701.63 945.683L3647.7 973.001L3616.6 953.319ZM3144.13 1012.26L3120.86 1032.83L3209.32 1054.06L3282.01 1048.11L3144.13 1012.26ZM3034.97 1043.07L3057.79 1048.54L3048.39 1056.85L3034.97 1043.07ZM3093.41 1057.09L3085.37 1064.21L3113.47 1061.91L3093.41 1057.09ZM3030.97 1112.29L3024.76 1117.78L3031.86 1129.24L3082.76 1174.25L3165.4 1217.34L3177.63 1211.15L3078.37 1109.16L3030.97 1112.29ZM3012.64 1088.45L3006.82 1088.84L3004.96 1085.84L3016.69 1084.88L3012.64 1088.45ZM2974.83 1036.26L2974.37 1036.49L2968.57 1027.13L2971.97 1027.94L2974.83 1036.26ZM2904.65 980.933L2881.79 944.058L2872.69 941.691L2843.66 939.376L2853.45 968.646L2904.65 980.933ZM2862.71 913.265L2859.41 907.936L2854.92 911.24L2862.71 913.265ZM2832.12 865.225L2829.33 896.535L2820.29 869.514L2832.12 865.225ZM2841 878.231L2838.65 904.594L2851.48 895.145L2841 878.231ZM2845.43 828.432L2852.94 744.043L2874.55 828.564L2850.84 837.161L2845.43 828.432ZM2845.49 714.913L2836.65 814.266L2813.7 777.237L2823.03 627.056L2845.49 714.913ZM2859.51 670.205L2909.6 815.852L2913.84 814.316L2870.5 546.661L2859.51 670.205ZM3007.15 780.478L2923.4 810.846L2874.66 509.803L3143.57 679.989L3007.15 780.478ZM2916.11 834.767L2917.09 834.411L2918.07 840.488L2916.11 834.767ZM2926.66 830.941L2927.94 838.828L2950.26 822.381L2926.66 830.941ZM3000.08 804.316L2930.63 855.473L2937.22 896.141L2949.82 932.795L2995.54 936.441L3202.82 781.234L3245.97 744.795L3216.19 725.947L3000.08 804.316ZM2951.15 982.179L2952.79 992.347L2958.17 987.808L2957.03 984.488L2953.25 980.605L2951.15 982.179ZM2953.63 1060.07L2953.61 1059.93L2952.61 1058.32L2952 1058.62L2953.63 1060.07ZM2940.31 977.803L2938.27 965.216L2929.83 956.548L2923.87 954.997L2938.73 978.982L2940.31 977.803ZM2932.8 931.437L2927.48 898.585L2916.29 866.038L2902.25 876.375L2912.77 917.511L2924.2 929.252L2932.52 931.414L2932.8 931.437ZM2958.8 1092.01L2958.42 1089.65L2956.82 1089.78L2957.41 1092.1L2958.8 1092.01ZM2968.42 1088.83L2968.82 1091.35L2972.91 1091.08L2972.07 1089.73L2970.83 1088.63L2968.42 1088.83ZM2979.57 1157.73L2988.86 1215.11L2996.53 1245.1L3047.34 1247.08L3019.6 1166.4L3019.34 1165.99L2988.45 1149.88L2979.57 1157.73ZM2937.33 1219.35L2973.38 1244.19L2965.67 1243.89L2938.26 1222.15L2937.33 1219.35ZM2983.48 1254.6L2978.93 1254.42L2982.06 1256.91L2984.21 1257.47L2983.48 1254.6ZM2907.54 1251.63L2874.79 1250.35L2874.31 1250.78L2947.94 1303.49L2907.54 1251.63ZM2840.7 1239.02L2828.36 1230.18L2810.1 1225.46L2810.02 1226.46L2813.21 1237.94L2840.7 1239.02ZM2788.33 1185.77L2789.53 1190.09L2788.13 1189.08L2788.33 1185.77ZM2816.22 1156.73L2811.83 1206.05L2821.37 1212.88L2860.45 1222.99L2875.12 1210.02L2849.68 1177.38L2822.2 1155.56L2816.22 1156.73ZM2793.8 1205.44L2787.4 1200.86L2787.2 1204.05L2793.89 1205.78L2793.8 1205.44ZM2779.67 1163.88L2778.54 1182.21L2768.13 1174.76L2766.46 1169.32L2770.86 1165.6L2779.67 1163.88ZM2734.54 1131.88L2721.68 1141.51L2710.45 1133.47L2734.54 1131.88ZM2694.07 1150.04L2695.76 1135.26L2711.62 1146.61L2694.07 1150.04ZM2739.83 1191.8L2755.85 1178.27L2759.56 1180.93L2764.88 1198.28L2739.83 1191.8ZM2772.96 1190.52L2777.8 1193.99L2777.34 1201.5L2776.24 1201.22L2772.96 1190.52ZM2019.11 586.541L2096.62 694.028L2140.6 725.517L2269.33 758.987L2019.11 586.541ZM2170.29 759.066L2255.8 820.288L2263.72 827.099L2177.68 806.448L2137.34 750.5L2170.29 759.066ZM1984.73 626.222L2089.47 701.206L2099.24 714.763L2056.2 703.573L1984.73 626.222ZM1903.88 426.741L2348.42 779.549L2297.63 766.345L2001.7 562.398L1903.88 426.741ZM2439.12 1186.11L2445.14 1194.46L2437.3 1200.24L2339.06 1219.44L1684.59 1193.9L2172.66 1153.95L2173.65 1168.95L2349.77 1157.31L2439.12 1186.11ZM2479.44 1224.92L2477.95 1222.86L2492.57 1220L2497.77 1225.63L2479.44 1224.92ZM2486.86 1235.21L2508.58 1265.34L2526.38 1256.59L2507.37 1236.02L2486.86 1235.21ZM2514.51 1273.56L2525.32 1288.55L2543.4 1275.01L2533.46 1264.25L2514.51 1273.56ZM2435.44 1163.91L2442.98 1166.34L2429.75 1152.02L2427 1152.2L2435.44 1163.91ZM2415.24 1152.98L2419.38 1158.73L2403.87 1153.73L2415.24 1152.98ZM2392.13 1120.94L2320.35 1126.81L2209.38 1091.05L2243.01 1078.85L2389 1116.59L2392.13 1120.94ZM2271.53 936.595L2238.75 891.134L2348.31 899.871L2446.05 983.952L2348.11 1019.47L2271.53 936.595ZM2227.24 875.168L2329.03 883.286L2313.46 869.889L2204.59 843.757L2227.24 875.168ZM2162.77 802.869L2143.74 798.3L2087.62 737.573L2122.17 746.554L2162.77 802.869ZM2189.68 840.179L2214.16 874.125L2213.78 874.095L2180.37 837.945L2189.68 840.179ZM2831.41 1248.66L2816.02 1248.06L2819.18 1259.46L2831.41 1248.66ZM2799.89 1227.38L2799 1237.39L2787.2 1236.93L2785.5 1231.39L2786.25 1219.3L2798.53 1222.47L2799.89 1227.38ZM2798.12 1247.36L2790.31 1247.06L2796.38 1266.86L2798.12 1247.36ZM2775.41 1232.59L2775.17 1236.46L2753.93 1235.63L2721.23 1207.5L2725.78 1203.66L2770.04 1215.11L2775.41 1232.59ZM2774.55 1246.44L2766.11 1246.11L2774.14 1253.02L2774.55 1246.44ZM2713.49 1214.04L2737.87 1235L2690.84 1233.17L2713.49 1214.04ZM2646.73 1228.47L2648.74 1231.52L2647.5 1231.48L2646.73 1228.47ZM2546.35 1220.67L2570.58 1228.47L2548.81 1227.62L2546.35 1220.67ZM2553.97 1242.24L2552.39 1237.77L2563.78 1238.22L2554.47 1242.79L2553.97 1242.24ZM2561.56 1250.45L2584.79 1239.04L2591.11 1239.28L2567.54 1256.93L2561.56 1250.45ZM3146.34 1243.81L3154.77 1251.27L3133.27 1250.43L3146.34 1243.81ZM3043.36 1204.74L3070.15 1247.97L3058.06 1247.5L3043.36 1204.74ZM3056.15 1272.69L3050.83 1257.23L3007.46 1255.53L3026.19 1268.44L3051.48 1275.06L3056.15 1272.69ZM3076.5 1258.23L3061.55 1257.64L3065.16 1268.13L3078.46 1261.39L3076.5 1258.23ZM2993.22 1304.57L2987.98 1272.19L2987.13 1268.88L2978.57 1279.67L2953.51 1259.78L2953.02 1259.65L2957.05 1266.37L2988.63 1306.9L2993.22 1304.57ZM2542.1 299.34L2501.65 273.739L2562.07 371.231L2542.1 299.34ZM2590.74 474.436L2516.55 354.733L2586.3 582.072L2634.36 631.449L2590.74 474.436ZM2648.88 646.372L2609.55 504.785L2726.31 693.184L2722.95 722.48L2648.88 646.372ZM2657.24 676.469L2720.75 741.72L2709.05 843.802L2701.99 837.561L2657.24 676.469ZM2642.72 661.546L2684.46 811.833L2627.8 717.345L2595.93 613.478L2642.72 661.546ZM2580.88 401.58L2554.7 307.309L2634.3 357.685L2728.86 640.344L2580.88 401.58ZM2170 154.343L2128.88 37.8222L2257.41 119.166L2416.83 385.006L2424.73 416.066L2170 154.343ZM2279.19 463.715L2181.91 188.085L2432.13 445.176L2482.56 643.533L2447.92 612.908L2388 536L2373.62 547.206L2279.19 463.715ZM2365.59 553.459L2286.04 483.119L2394.58 790.654L2396.27 791.989L2529.07 826.519L2506.19 736.51L2364.33 554.438L2365.59 553.459ZM2379.85 778.963L2270.63 469.488L2006.2 235.68L2345.18 751.448L2379.85 778.963ZM2443.7 429.804L2445.68 437.59L2452.69 444.791L2443.7 429.804ZM2483.07 476.004L2435.12 396.053L2385.31 200.108L2443.58 236.987L2495.84 321.312L2571.02 566.377L2483.07 476.004ZM2486.29 500.822L2453.08 466.7L2502.52 661.186L2636.44 779.599L2618.6 721.443L2486.29 500.822ZM2606.38 681.635L2516.67 532.036L2580.66 597.783L2606.38 681.635ZM2672.7 811.665L2640.01 757.153L2650.79 792.291L2672.7 811.665ZM2408.25 351.255L2276.2 131.059L2366.86 188.435L2408.25 351.255ZM2839.79 357.023L2858.68 473.652L2833.54 457.743L2839.79 357.023ZM2807.7 158.837L2832.55 312.297L2823.9 451.642L2787.82 428.809L2780.18 398.922L2807.7 158.837ZM2864.02 506.645L2863.37 502.66L2831.98 482.794L2826.33 573.76L2851.53 647.014L2864.02 506.645ZM2856.93 699.12L2857.33 694.632L2900.2 819.262L2888.72 823.426L2856.93 699.12ZM2810.85 1266.83L2807.5 1254.76L2806.05 1271.08L2810.85 1266.83ZM2802.41 1199.09L2791.96 1161.47L2806 1158.73L2802.41 1199.09ZM2772.07 1089.85L2780.92 1089.12L2766.85 1071.06L2772.07 1089.85ZM2772.67 1129.36L2774.07 1134.41L2756.78 1137.78L2754.57 1130.56L2772.67 1129.36ZM2822.54 1085.72L2823.23 1077.97L2829.56 1073.22L2836.37 1084.58L2822.54 1085.72ZM2872.98 1145.64L2864.31 1147.33L2880.36 1167.95L2890.59 1174.99L2872.98 1145.64ZM2906.58 1182.21L2883.42 1143.6L2896.37 1141.06L2909.33 1179.78L2906.58 1182.21ZM2846.53 1082.08L2851.07 1078.24L2841.11 1073.05L2846.53 1082.08ZM2814.84 1059.35L2813.66 1072.64L2808.89 1076.21L2796.15 1059.86L2796.77 1049.92L2814.84 1059.35ZM2825.65 937.939L2824.91 946.249L2816.95 939.212L2819.36 937.438L2825.65 937.939ZM2823.81 958.624L2823.55 961.469L2802.57 956.434L2803.01 949.482L2808.71 945.278L2823.81 958.624ZM2790.55 988.732L2787.51 983.671L2790.81 984.463L2790.55 988.732ZM2822.02 847.611L2818.89 842.553L2810.2 833.628L2809.9 838.455L2813.94 850.541L2822.02 847.611ZM2770.26 764.091L2743.3 720.595L2740.96 740.984L2773.82 774.746L2770.26 764.091ZM2760.94 692.104L2804.59 762.543L2814.96 595.526L2790.97 501.69L2774.04 452.463L2750.24 660.112L2760.94 692.104ZM2861.6 854.532L2875.71 877.296L2885.22 870.294L2879.53 848.033L2861.6 854.532ZM2417.03 194.149L2360.68 103.222L2377.42 169.081L2417.03 194.149ZM3086.39 1274.18L3093.79 1286.11L3073.37 1280.78L3086.39 1274.18ZM3134.25 1233.12L3105.32 1247.78L3071.49 1193.18L3114.36 1215.54L3134.25 1233.12ZM2946.67 1050.1L2947.32 1049.78L2946.08 1047.79L2946.67 1050.1ZM3035.45 1068.29L3037.14 1066.8L3007.66 1036.51L3000.5 1034.79L2987.16 1041.35L2997.49 1071.4L3035.45 1068.29ZM2920.72 1169.71L2949.14 1144.59L2910.56 1139.35L2920.72 1169.71ZM2962.55 1172.77L2931.06 1200.61L2932.05 1203.56L2978.64 1235.67L2962.55 1172.77ZM2755.95 434.675L2653.02 369.537L2735.24 615.296L2755.95 434.675ZM2727.32 859.964L2738.76 760.225L2784.79 807.517L2799.14 850.414L2798.79 856.036L2744.96 875.557L2727.32 859.964ZM2689.74 840.083L2656.41 810.609L2672.75 863.876L2700.96 871.209L2694.52 848.055L2689.74 840.083ZM2725.31 877.541L2725.93 872.084L2734.25 879.439L2733.57 879.688L2725.31 877.541ZM2701.15 912.719L2700.6 912.919L2701.12 912.96L2701.15 912.719ZM2721.74 908.668L2722.15 905.103L2726.25 903.616L2728.14 904.108L2735.07 915.668L2723.43 914.74L2721.74 908.668ZM2747.32 916.645L2741.95 907.699L2776.32 916.634L2779.21 919.188L2747.32 916.645ZM2756.8 932.448L2793.86 935.404L2793.72 937.693L2776.71 950.225L2765.9 947.631L2756.8 932.448ZM2744.55 931.472L2752.28 944.362L2730.18 939.058L2727.7 930.128L2744.55 931.472ZM2718.71 935.116L2718.58 936.273L2719.06 936.389L2718.71 935.116ZM2699.41 927.872L2692.91 927.354L2695.56 930.748L2698.98 931.57L2699.41 927.872ZM2685.72 1047.25L2682.19 1078.05L2636.83 1071.89L2678.29 1041.35L2685.72 1047.25ZM2702.01 1080.74L2704.17 1061.89L2729.11 1081.69L2729.99 1084.54L2702.01 1080.74ZM2675.57 1135.78L2640.55 1138.09L2661.78 1156.36L2673.48 1154.07L2675.57 1135.78ZM2668.45 1197.93L2652.64 1205.7L2647.84 1209.3L2665.99 1219.41L2668.45 1197.93ZM2686.36 1217.32L2689.01 1194.16L2690.98 1194.66L2701.98 1204.13L2686.36 1217.32ZM2661.58 1257.87L2655.51 1263L2659.29 1277.85L2661.58 1257.87ZM2789.87 1279.75L2791.23 1284.17L2781.7 1292.6L2782.87 1273.72L2789.87 1279.75ZM3718.81 407.348L4139.49 92.3435L3696.28 484.13L3718.81 407.348ZM3698.78 422.35L3675.17 502.788L3607.19 562.883L3420.87 630.45L3698.78 422.35ZM3656.55 566.259L3643.19 571.104L3380.12 803.654L3409.91 822.507L3610.24 724.081L3656.55 566.259ZM3307.52 692.829L3263.6 729.913L3242.34 716.463L3307.52 692.829ZM3351.68 655.54L3220.97 702.938L3176.19 674.594L3748.46 253.056L3722.14 342.733L3351.68 655.54ZM3194.82 712.422L3157.18 688.598L3056.97 762.412L3194.82 712.422ZM2786.87 1047.95L2787.06 1044.86L2782.69 1042.58L2786.87 1047.95ZM2678.35 957.469L2686.07 967.383L2657.43 952.449L2678.35 957.469ZM2729.65 974.505L2725.12 968.696L2728.24 969.445L2729.65 974.505ZM2740.66 976.776L2745.12 973.495L2739.36 972.114L2740.66 976.776ZM2672.91 901.683L2661.25 886.717L2670 888.991L2673.79 901.364L2672.91 901.683ZM2613.56 874.317L2639.86 908.075L2581.81 903.445L2562.96 898.921L2552.68 858.487L2613.56 874.317ZM2636.01 854.324L2661.39 860.92L2642.06 797.917L2506.9 678.405L2510.75 693.543L2636.01 854.324ZM2529.16 765.995L2588.32 841.924L2545.65 830.828L2529.16 765.995ZM2487.77 664.059L2486.93 660.752L2481.35 655.818L2487.77 664.059ZM2795.76 459.871L2822.34 476.693L2817.99 546.804L2795.76 459.871ZM4034.32 1243.71L4055.61 1257.18L3508 1125.75L3513.15 1108.21L4034.32 1243.71ZM3695.55 1029.32L3965.04 1199.87L3520.19 1084.21L3530.46 1049.21L3545.49 1041.6L3695.55 1029.32ZM3738.59 1010.75L3710.92 1013.01L3702.84 1007.9L3738.59 1010.75ZM3674.49 1015.99L3655.77 1004.14L3624.37 1001.64L3580.92 1023.65L3674.49 1015.99ZM3606.42 737.1L3554.5 914.017L3419.82 828.779L3606.42 737.1ZM3126.18 961.906L3021.94 953.594L3020.97 954.412L3099.74 974.893L3126.18 961.906ZM2985.27 1031.14L2983.5 1030.71L2983.88 1031.82L2985.27 1031.14ZM2932.92 1056.86L2932.34 1054.59L2917.68 1041.63L2886.64 1067.84L2888.32 1072.85L2894.16 1075.9L2932.92 1056.86ZM2911.71 1078.42L2935.45 1066.75L2937.88 1076.28L2911.71 1078.42ZM2872.43 1097.72L2874.95 1096.48L2881.28 1095.96L2881.67 1097.11L2872.43 1097.72ZM2701.24 1181.82L2710.08 1177.48L2740.6 1171.52L2722.03 1187.2L2701.24 1181.82ZM2619.66 1210.76L2604.27 1218.32L2565.34 1205.77L2598.93 1199.21L2619.66 1210.76ZM2647.4 1197.14L2640.37 1200.59L2639.18 1198.78L2637.38 1191.69L2660.77 1187.12L2647.4 1197.14ZM2506.31 1186.75L2522.65 1183.55L2514.93 1161.68L2493.86 1177.2L2501.15 1185.09L2506.31 1186.75ZM2524.05 1157.48L2532.57 1181.61L2558.33 1176.58L2524.05 1157.48ZM2528.81 1215.01L2534.39 1216.81L2536.81 1223.67L2528.81 1215.01ZM3072.09 891.614L3010.62 937.643L3016.98 938.15L3072.09 891.614ZM2971.06 967.267L2965.36 971.539L2970.81 977.138L2979.8 969.54L2971.06 967.267ZM2896.62 1023.01L2876.65 1037.97L2881.52 1052.53L2906.32 1031.59L2896.62 1023.01ZM2864.84 1046.81L2853.97 1054.94L2869.24 1062.9L2870.01 1062.25L2864.84 1046.81ZM2745.77 1135.97L2738.59 1141.34L2746.91 1139.71L2745.77 1135.97ZM2629.81 1222.8L2626.3 1225.42L2630.85 1226.89L2629.81 1222.8ZM2606.69 1240.11L2574.36 1264.31L2599.05 1291.03L2638.66 1257.59L2636.67 1249.78L2606.69 1240.11ZM2806.17 898.564L2807.59 875.674L2816.11 901.149L2806.17 898.564ZM2797.44 877.801L2796.31 896L2767.74 888.572L2797.44 877.801ZM2783.65 1261.2L2784.38 1261.82L2783.74 1259.75L2783.65 1261.2ZM2911.17 851.174L2906.7 838.177L2893.69 842.895L2898.25 860.697L2911.17 851.174ZM3059.92 1287.6L3061.41 1287.99L3063.55 1294.19L3056.5 1289.33L3059.92 1287.6ZM1881.98 969.334L2284.61 1024.03L2013.99 873.209L1294.89 815.861L1881.98 969.334ZM3003.63 1272.88L3021.96 1277.67L3032.28 1284.78L3009.61 1296.27L3003.63 1272.88ZM2364.08 824.284L2395.17 845.708L2405.27 861.072L2291.97 833.878L2261.99 812.416L2212.83 770.128L2329.52 800.467L2335.77 804.775L2333.83 808.507L2364.08 824.284ZM2420.75 864.788L2420.07 862.87L2423.98 865.564L2420.75 864.788ZM2365.21 901.219L2369.31 901.546L2441.31 953.092L2448.2 972.614L2365.21 901.219ZM2435.5 936.635L2388.64 903.088L2424.68 905.961L2435.5 936.635ZM2460.9 978.564L2455.5 963.251L2471.52 974.716L2460.9 978.564ZM2449.69 946.794L2435.87 907.642L2472.19 962.903L2449.69 946.794ZM2447.96 907.818L2488 968.74L2544.15 948.378L2492.67 912.902L2483.19 910.628L2447.96 907.818ZM2397.19 1069.6L2486.72 1081.77L2497.51 1112.32L2476.86 1114.01L2397.19 1069.6ZM2507.81 1111.47L2497.86 1083.28L2556.55 1091.25L2565.91 1105.5L2564.05 1106.87L2507.81 1111.47ZM2569.69 1093.04L2573.97 1099.56L2577.45 1097L2573.44 1093.55L2569.69 1093.04ZM2554.16 1143.8L2589.55 1141.46L2598.64 1155.3L2554.16 1143.8ZM2601.02 1140.71L2613.06 1159.03L2613.64 1159.18L2608.81 1140.19L2601.02 1140.71ZM2683.21 897.951L2692.08 894.732L2681.36 891.946L2683.21 897.951ZM2925.4 1035.11L2927.93 1037.34L2927.01 1033.75L2925.4 1035.11ZM2953.05 1075.04L2952.34 1072.28L2955.26 1074.85L2953.05 1075.04ZM2555.69 944.191L2555.81 944.147L2526.75 921.083L2519.71 919.392L2555.69 944.191ZM2451.02 872.054L2459.66 874.129L2436.51 862.052L2451.02 872.054ZM3356.89 1120.33L3191.65 1204.05L3098.04 1107.86L3260.27 1097.14L3356.89 1120.33ZM3493.4 1122.24L3420.73 1104.8L3447.63 1091.18L3498.62 1104.43L3493.4 1122.24ZM3398.21 1099.4L3425.7 1085.47L3326.03 1059.56L3256.08 1065.28L3279.21 1070.84L3307 1069L3307.57 1077.64L3398.21 1099.4ZM3505.67 1080.43L3481.33 1074.1L3512.1 1058.52L3505.67 1080.43ZM3459.39 1068.4L3505.9 1044.84L3401.6 1053.38L3459.39 1068.4ZM3541.33 1026.89L3595.69 999.35L3546.25 995.407L3536.91 1027.25L3541.33 1026.89ZM2942.19 1093.11L2941.65 1091.02L2925.66 1092.33L2928.85 1093.99L2942.19 1093.11ZM2891.77 895.936L2889.23 885.972L2885.06 889.039L2891.77 895.936ZM3075.12 1084.32L3071.31 1080.41L3160.23 1073.13L3178.42 1077.5L3075.12 1084.32ZM2613.83 1099.03L2631.11 1101.38L2614.76 1102.72L2613.83 1099.03ZM2424.23 1101.85L2450 1116.2L2448.04 1116.37L2434.39 1112.84L2424.23 1101.85ZM2184.69 886.823L2049.95 876.077L2307.29 1019.5L2184.69 886.823ZM2389.3 888.093L2364.99 886.154L2356.8 880.291L2389.3 888.093ZM2507.71 1148.37L2483.62 1166.11L2468.25 1149.48L2505.31 1147.03L2507.71 1148.37ZM2597.38 1100.95L2598.61 1100.04L2599.25 1102.56L2597.38 1100.95ZM2444.67 830.406L2536.1 854.179L2546.36 894.528L2485.43 862.751L2444.67 830.406ZM2624.03 1139.18L2629.98 1162.57L2649.29 1158.8L2626.31 1139.03L2624.03 1139.18ZM2621.74 1194.75L2622.64 1194.57L2622.84 1195.36L2621.74 1194.75ZM2576.59 935.102L2578.3 935.994L2577.9 936.14L2576.59 935.102ZM2561.55 1161.2L2581.14 1172.12L2594.03 1169.6L2561.55 1161.2Z" fill="black" fill-opacity="0.9"/>
<rect width="4792" height="1364" fill="#FFA31A"/>
</g>
<mask id="mask1_702_1186" style="mask-type:alpha" maskUnits="userSpaceOnUse" x="-276" y="-208" width="5328" height="1528">
<path d="M3004 1056L2444 1320H-276V-208H5052V1264H3854L3620 1090L3542 1078L3488 890L3514 792L3620 642L3582 534L3638 384L3514 202H3466L3452 130L3250 118L3168 24L3104 102L3040 62L3020 158L2906 130L2874 158L2928 236L2888 270L2940 322L2952 412L2940 436L2888 494L2940 562V600L2906 642L2928 666L2940 724L2906 754L2966 984L3066 998L3076 1028L3004 1056Z" fill="#C4C4C4"/>
</mask>
<g mask="url(#mask1_702_1186)">
<path fill-rule="evenodd" clip-rule="evenodd" d="M3714.48 368.832L3408.25 627.409L3703.48 406.339L3714.48 368.832ZM3365.78 671.702L3277.52 737.788L3276.89 738.324L3353.72 786.948L3566.38 598.956L3365.78 671.702ZM3259.26 753.206L3336.55 802.121L3192.86 929.143L3152.53 948.96L3038.22 939.845L3259.26 753.206ZM3362.95 818.827L3294.83 879.043L3386.75 833.885L3362.95 818.827ZM3266.46 904.126L3210.51 953.584L3305.62 961.17L3547.03 939.488L3548.06 935.974L3396.66 840.158L3266.46 904.126ZM3588.82 935.734L3567.68 922.36L3624.68 728.126L4952 76L4947.59 67.0248L3628.5 715.107L3674.04 559.915L4294.82 334.802L4288 316L3684 535.032L4244 40.0001L4224.13 17.523L4170.02 65.3558L4166.01 59.9955L3723.51 391.337L3735.26 351.284L4461.36 -261.809L4451.68 -273.27L3742.92 325.186L3768.4 238.366L4092 0.000213623L4083.1 -12.077L3775.37 214.598L3836 8.00006L3821.61 3.77649L3755.43 229.289L3162.58 665.985L2876.02 484.627L2917 24.0001L2907.04 23.1138L2867.61 466.268L2842.6 311.802L2856 96.0001L2846.02 95.3804L2835.36 267.075L2811.9 122.208L2836 -88L2816.13 -90.2779L2800.11 49.4166L2796 24.0001L2786.13 25.5985L2795.92 86.0457L2766.28 344.561L2670 -31.9999L2655.47 -28.2842L2760.34 381.878L2635.89 20.0392L2626.43 23.2916L2758.94 408.565L2758.73 410.4L2641.97 336.508L2513.2 -48.4031L2499.93 -43.9614L2623.25 324.656L2545.92 275.72L2476 23.9999L2466.36 26.6764L2533.33 267.75L2479.4 233.62L2420 40.0001L2410.44 42.933L2461.25 208.542L2336.13 6.6702L2308 -104L2293.46 -100.304L2320.74 6.98117L2306.5 15.8039L2334.44 60.8827L2358.98 157.408L2251.04 89.0982L2212 24L2203.42 29.1431L2232.25 77.2048L1908 -128L1896.23 -109.41L2115.22 29.1807L2153.36 137.248L2012 -7.99997L2001.25 2.46201L2165.27 170.99L2263.78 450.084L1985.26 203.811L1896 68.0002L1887.64 73.4925L1956.69 178.549L1800 40.0001L1793.38 47.4915L1977.64 210.419L2320.17 731.596L1860.83 367.042L1700 144L1691.89 149.849L1851.4 371.057L1844.57 379.666L1875.06 403.864L1977.19 545.508L1116 -47.9998L1110.33 -39.7658L1994.6 569.651L2071.13 675.784L1951.15 589.886L1857 488L1835.97 507.431L1116 -7.99988L1110.18 0.131226L1864.04 539.823L2002.44 689.594L1104 456L1097.71 480.196L2033.86 723.594L2091.25 785.702L1980 759L1973 788.172L2127.88 825.347L2169.68 870.578L2018.44 858.516L1612 632L1604.7 645.103L1982.48 855.649L1212.06 794.207L55.9996 492L53.4705 501.675L1155.16 789.669L-235.899 678.732L-237.092 693.685L1237.99 811.323L1827.53 965.436L1823.96 991.727L2040.79 1021.18L2169.46 1054.82L2168.24 1059.52L2179.15 1062.34L1604 1114L1605.79 1133.92L2170.65 1083.19L2170.42 1083.9L2064.06 1122.47L2070.87 1141.28L2178.7 1102.17L2268.36 1131.07L826.776 1249.05L828 1264L1635.77 1197.89L1635.61 1201.99L2296.39 1227.78L1616.15 1360.75L1621.9 1390.2L2380.81 1241.85L2291.1 1307.92L2300 1320L2415.23 1235.12L2426.74 1232.87L2474.18 1234.72L2499.48 1269.81L2415.59 1311.02L2420 1320L2505.41 1278.04L2517.31 1294.54L2494.01 1312L2500 1320L2523.16 1302.65L2539.89 1325.85L2548 1320L2531.17 1296.66L2550.22 1282.39L2562.05 1295.19L2594.57 1387.33L2604 1384L2579.21 1313.76L2625.97 1364.36L2648 1344L2609.25 1302.06L2642.77 1273.76L2654.48 1319.81L2650.13 1357.72L2670 1360L2679.38 1278.15L2723.64 1345.49L2732 1340L2682.39 1264.51L2739.86 1283.04L2746 1264L2709.97 1243.92L2750.05 1245.49L2773.36 1265.54L2770.02 1319.38L2780 1320L2781.05 1303.09L2792.05 1315.53L2786.04 1383.11L2796 1384L2801.81 1318.66L2826.44 1398.93L2836 1396L2809.12 1308.4L2816.06 1302.27L2822.15 1307.51L2826.36 1322.68L2836 1320L2835.79 1319.25L2845.48 1327.58L2852 1320L2830.98 1301.91L2828.11 1291.61L2866.62 1257.57L2957 1322.27L2957.18 1322.83L2910.22 1346.62L2917 1360L2970.75 1332.77L3006.33 1378.44L3013.68 1372.72L3015.47 1379.72L3030 1376L3026.59 1362.66L3030 1360L3023.91 1352.18L3013.42 1311.15L3046.34 1294.47L3069.02 1310.11L3073.54 1323.25L3083 1320L3082.88 1319.66L3095.32 1328.23L3101 1320L3077.41 1303.74L3073.03 1291.03L3098.47 1297.68L3099.21 1294.86L3134.5 1351.8L3160 1336L3113.25 1260.58L3114.93 1259.73L3166.61 1261.74L3270.38 1353.49L3277 1346L3182.41 1262.36L3198.61 1262.99L3199 1253L3170.57 1251.89L3155.94 1238.95L3157.62 1238.1L3171.83 1245.51L3182 1226L3181.75 1225.87L3188.59 1222.41L3239.25 1274.46L3250 1264L3202.61 1215.31L3379.41 1125.74L3484.94 1151.07L3436.61 1315.78L3451 1320L3499.54 1154.57L4077 1293.17L4081.68 1273.68L4184.23 1338.59L4196 1320L4104.15 1261.87L4297.71 1312.2L4304 1288L4034.87 1218.03L3731.98 1026.34L3831.72 1018.17L5546.81 1154.95L5548 1140L3924.85 1010.55L5724.11 863.301L5722.88 848.351L3831.71 1003.13L3675.64 990.678L3662.46 982.34L3741.97 942.059L5925.79 745.92L5924 726L3790.15 917.652L5412 96.0002L5405.22 82.6193L3749.8 921.275L3588.82 935.734ZM3557.03 958.67L3580.58 956.555L3624.85 984.577L3621.35 986.349L3550.56 980.704L3557.03 958.67ZM3540.97 960.112L3424.04 970.614L3535.29 979.486L3540.97 960.112ZM3216.88 969.14L3194.89 967.387L3190.2 971.536L3216.88 969.14ZM3170.77 993.361L3335.3 978.584L3530.97 994.189L3520.89 1028.56L3357.57 1041.93L3170.77 993.361ZM3065.61 1002.81L3096.93 999.993L3109.12 1003.16L3085.24 1024.28L3042.69 1014.07L3065.61 1002.81ZM3139.78 976.064L3115.62 978.234L3145.69 963.462L3153.35 964.073L3139.78 976.064ZM3039.53 985.068L2983.43 990.107L2981.29 987.915L2997.58 974.162L3039.53 985.068ZM3014.79 1007.37L3037.85 1005.3L3027.45 1010.41L3014.79 1007.37ZM2905.17 1017.22L2921.26 1015.77L2922.49 1016.07L2922.88 1017.6L2914.04 1025.07L2905.17 1017.22ZM2870.74 1020.31L2885.29 1019L2873.3 1027.98L2870.74 1020.31ZM2849.88 1002.1L2848.63 998.339L2830.69 994.035L2829.82 1003.9L2849.88 1002.1ZM2828.02 1024.15L2856.41 1021.6L2861.5 1036.82L2844.14 1049.81L2826.55 1040.64L2828.02 1024.15ZM2819.7 1004.81L2820.87 991.676L2800.69 986.833L2799.63 1003.87L2801.19 1006.47L2819.7 1004.81ZM2812.62 1025.53L2817.9 1025.05L2817.18 1033.13L2812.62 1025.53ZM2799.78 1026.68L2801.55 1026.52L2802.5 1028.1L2799.78 1026.68ZM2789.38 1007.54L2766.93 1009.55L2750.13 1000.79L2745.78 995.206L2744.96 992.242L2764.19 978.073L2773.89 980.402L2789.46 1006.35L2789.38 1007.54ZM2722.06 1013.58L2718.77 1013.88L2718.18 1011.96L2719.85 1010.74L2722.06 1013.58ZM2724.77 1033.42L2736.69 1032.35L2750.72 1050.36L2758.9 1079.79L2732.59 1058.91L2724.77 1033.42ZM2707.26 1034.99L2714.59 1034.33L2718.76 1047.94L2706.86 1038.49L2707.26 1034.99ZM2686.34 1016.79L2680.21 1017.34L2596.29 950.742L2602.36 948.542L2691.7 995.129L2689.48 1014.48L2686.34 1016.79ZM2648.36 1020.2L2595 1024.99L2582.19 974.6L2648.36 1020.2ZM2600 1044.63L2655.29 1039.66L2617.89 1067.21L2603.03 1056.57L2600 1044.63ZM2579.87 1026.35L2562.94 1027.87L2502.64 984.703L2563.66 962.576L2579.87 1026.35ZM2547.68 1029.24L2528.87 1030.93L2510.06 1002.31L2547.68 1029.24ZM2541.33 1049.89L2572.6 1047.09L2587.93 1058.06L2589.82 1065.5L2549.86 1060.07L2545.63 1056.43L2541.33 1049.89ZM2517.57 1031.95L2517.21 1031.98L2474.23 995.006L2489.62 989.424L2517.57 1031.95ZM2503.32 1033.23L2480.91 1035.24L2470.11 1004.66L2503.32 1033.23ZM2501.38 1053.48L2524.46 1051.41L2531.65 1057.59L2501.38 1053.48ZM2281.28 1073.25L2351.16 1066.97L2360.52 1077.1L2375.26 1097.55L2281.28 1073.25ZM2470.63 1036.16L2458.16 1000.83L2364.32 1034.86L2412.4 1041.39L2470.63 1036.16ZM2246.57 1056.29L2260.91 1051.09L2123.11 1032.37L2171.96 1045.14L2172 1045L2223.63 1058.35L2246.57 1056.29ZM3616.6 953.319L3701.63 945.683L3647.7 973.001L3616.6 953.319ZM3144.13 1012.26L3120.86 1032.83L3209.32 1054.06L3282.01 1048.11L3144.13 1012.26ZM3034.97 1043.07L3057.79 1048.54L3048.39 1056.85L3034.97 1043.07ZM3093.41 1057.09L3085.37 1064.21L3113.47 1061.91L3093.41 1057.09ZM3030.97 1112.29L3024.76 1117.78L3031.86 1129.24L3082.76 1174.25L3165.4 1217.34L3177.63 1211.15L3078.37 1109.16L3030.97 1112.29ZM3012.64 1088.45L3006.82 1088.84L3004.96 1085.84L3016.69 1084.88L3012.64 1088.45ZM2974.83 1036.26L2974.37 1036.49L2968.57 1027.13L2971.97 1027.94L2974.83 1036.26ZM2904.65 980.933L2881.79 944.058L2872.69 941.691L2843.66 939.376L2853.45 968.646L2904.65 980.933ZM2862.71 913.265L2859.41 907.936L2854.92 911.24L2862.71 913.265ZM2832.12 865.225L2829.33 896.535L2820.29 869.514L2832.12 865.225ZM2841 878.231L2838.65 904.594L2851.48 895.145L2841 878.231ZM2845.43 828.432L2852.94 744.043L2874.55 828.564L2850.84 837.161L2845.43 828.432ZM2845.49 714.913L2836.65 814.266L2813.7 777.237L2823.03 627.056L2845.49 714.913ZM2859.51 670.205L2909.6 815.852L2913.84 814.316L2870.5 546.661L2859.51 670.205ZM3007.15 780.478L2923.4 810.846L2874.66 509.803L3143.57 679.989L3007.15 780.478ZM2916.11 834.767L2917.09 834.411L2918.07 840.488L2916.11 834.767ZM2926.66 830.941L2927.94 838.828L2950.26 822.381L2926.66 830.941ZM3000.08 804.316L2930.63 855.473L2937.22 896.141L2949.82 932.795L2995.54 936.441L3202.82 781.234L3245.97 744.795L3216.19 725.947L3000.08 804.316ZM2951.15 982.179L2952.79 992.347L2958.17 987.808L2957.03 984.488L2953.25 980.605L2951.15 982.179ZM2953.63 1060.07L2953.61 1059.93L2952.61 1058.32L2952 1058.62L2953.63 1060.07ZM2940.31 977.803L2938.27 965.216L2929.83 956.548L2923.87 954.997L2938.73 978.982L2940.31 977.803ZM2932.8 931.437L2927.48 898.585L2916.29 866.038L2902.25 876.375L2912.77 917.511L2924.2 929.252L2932.52 931.414L2932.8 931.437ZM2958.8 1092.01L2958.42 1089.65L2956.82 1089.78L2957.41 1092.1L2958.8 1092.01ZM2968.42 1088.83L2968.82 1091.35L2972.91 1091.08L2972.07 1089.73L2970.83 1088.63L2968.42 1088.83ZM2979.57 1157.73L2988.86 1215.11L2996.53 1245.1L3047.34 1247.08L3019.6 1166.4L3019.34 1165.99L2988.45 1149.88L2979.57 1157.73ZM2937.33 1219.35L2973.38 1244.19L2965.67 1243.89L2938.26 1222.15L2937.33 1219.35ZM2983.48 1254.6L2978.93 1254.42L2982.06 1256.91L2984.21 1257.47L2983.48 1254.6ZM2907.54 1251.63L2874.79 1250.35L2874.31 1250.78L2947.94 1303.49L2907.54 1251.63ZM2840.7 1239.02L2828.36 1230.18L2810.1 1225.46L2810.02 1226.46L2813.21 1237.94L2840.7 1239.02ZM2788.33 1185.77L2789.53 1190.09L2788.13 1189.08L2788.33 1185.77ZM2816.22 1156.73L2811.83 1206.05L2821.37 1212.88L2860.45 1222.99L2875.12 1210.02L2849.68 1177.38L2822.2 1155.56L2816.22 1156.73ZM2793.8 1205.44L2787.4 1200.86L2787.2 1204.05L2793.89 1205.78L2793.8 1205.44ZM2779.67 1163.88L2778.54 1182.21L2768.13 1174.76L2766.46 1169.32L2770.86 1165.6L2779.67 1163.88ZM2734.54 1131.88L2721.68 1141.51L2710.45 1133.47L2734.54 1131.88ZM2694.07 1150.04L2695.76 1135.26L2711.62 1146.61L2694.07 1150.04ZM2739.83 1191.8L2755.85 1178.27L2759.56 1180.93L2764.88 1198.28L2739.83 1191.8ZM2772.96 1190.52L2777.8 1193.99L2777.34 1201.5L2776.24 1201.22L2772.96 1190.52ZM2019.11 586.541L2096.62 694.028L2140.6 725.517L2269.33 758.987L2019.11 586.541ZM2170.29 759.066L2255.8 820.288L2263.72 827.099L2177.68 806.448L2137.34 750.5L2170.29 759.066ZM1984.73 626.222L2089.47 701.206L2099.24 714.763L2056.2 703.573L1984.73 626.222ZM1903.88 426.741L2348.42 779.549L2297.63 766.345L2001.7 562.398L1903.88 426.741ZM2439.12 1186.11L2445.14 1194.46L2437.3 1200.24L2339.06 1219.44L1684.59 1193.9L2172.66 1153.95L2173.65 1168.95L2349.77 1157.31L2439.12 1186.11ZM2479.44 1224.92L2477.95 1222.86L2492.57 1220L2497.77 1225.63L2479.44 1224.92ZM2486.86 1235.21L2508.58 1265.34L2526.38 1256.59L2507.37 1236.02L2486.86 1235.21ZM2514.51 1273.56L2525.32 1288.55L2543.4 1275.01L2533.46 1264.25L2514.51 1273.56ZM2435.44 1163.91L2442.98 1166.34L2429.75 1152.02L2427 1152.2L2435.44 1163.91ZM2415.24 1152.98L2419.38 1158.73L2403.87 1153.73L2415.24 1152.98ZM2392.13 1120.94L2320.35 1126.81L2209.38 1091.05L2243.01 1078.85L2389 1116.59L2392.13 1120.94ZM2271.53 936.595L2238.75 891.134L2348.31 899.871L2446.05 983.952L2348.11 1019.47L2271.53 936.595ZM2227.24 875.168L2329.03 883.286L2313.46 869.889L2204.59 843.757L2227.24 875.168ZM2162.77 802.869L2143.74 798.3L2087.62 737.573L2122.17 746.554L2162.77 802.869ZM2189.68 840.179L2214.16 874.125L2213.78 874.095L2180.37 837.945L2189.68 840.179ZM2831.41 1248.66L2816.02 1248.06L2819.18 1259.46L2831.41 1248.66ZM2799.89 1227.38L2799 1237.39L2787.2 1236.93L2785.5 1231.39L2786.25 1219.3L2798.53 1222.47L2799.89 1227.38ZM2798.12 1247.36L2790.31 1247.06L2796.38 1266.86L2798.12 1247.36ZM2775.41 1232.59L2775.17 1236.46L2753.93 1235.63L2721.23 1207.5L2725.78 1203.66L2770.04 1215.11L2775.41 1232.59ZM2774.55 1246.44L2766.11 1246.11L2774.14 1253.02L2774.55 1246.44ZM2713.49 1214.04L2737.87 1235L2690.84 1233.17L2713.49 1214.04ZM2646.73 1228.47L2648.74 1231.52L2647.5 1231.48L2646.73 1228.47ZM2546.35 1220.67L2570.58 1228.47L2548.81 1227.62L2546.35 1220.67ZM2553.97 1242.24L2552.39 1237.77L2563.78 1238.22L2554.47 1242.79L2553.97 1242.24ZM2561.56 1250.45L2584.79 1239.04L2591.11 1239.28L2567.54 1256.93L2561.56 1250.45ZM3146.34 1243.81L3154.77 1251.27L3133.27 1250.43L3146.34 1243.81ZM3043.36 1204.74L3070.15 1247.97L3058.06 1247.5L3043.36 1204.74ZM3056.15 1272.69L3050.83 1257.23L3007.46 1255.53L3026.19 1268.44L3051.48 1275.06L3056.15 1272.69ZM3076.5 1258.23L3061.55 1257.64L3065.16 1268.13L3078.46 1261.39L3076.5 1258.23ZM2993.22 1304.57L2987.98 1272.19L2987.13 1268.88L2978.57 1279.67L2953.51 1259.78L2953.02 1259.65L2957.05 1266.37L2988.63 1306.9L2993.22 1304.57ZM2542.1 299.34L2501.65 273.739L2562.07 371.231L2542.1 299.34ZM2590.74 474.436L2516.55 354.733L2586.3 582.072L2634.36 631.449L2590.74 474.436ZM2648.88 646.372L2609.55 504.785L2726.31 693.184L2722.95 722.48L2648.88 646.372ZM2657.24 676.469L2720.75 741.72L2709.05 843.802L2701.99 837.561L2657.24 676.469ZM2642.72 661.546L2684.46 811.833L2627.8 717.345L2595.93 613.478L2642.72 661.546ZM2580.88 401.58L2554.7 307.309L2634.3 357.685L2728.86 640.344L2580.88 401.58ZM2170 154.343L2128.88 37.8222L2257.41 119.166L2416.83 385.006L2424.73 416.066L2170 154.343ZM2279.19 463.715L2181.91 188.085L2432.13 445.176L2482.56 643.533L2447.92 612.908L2388 536L2373.62 547.206L2279.19 463.715ZM2365.59 553.459L2286.04 483.119L2394.58 790.654L2396.27 791.989L2529.07 826.519L2506.19 736.51L2364.33 554.438L2365.59 553.459ZM2379.85 778.963L2270.63 469.488L2006.2 235.68L2345.18 751.448L2379.85 778.963ZM2443.7 429.804L2445.68 437.59L2452.69 444.791L2443.7 429.804ZM2483.07 476.004L2435.12 396.053L2385.31 200.108L2443.58 236.987L2495.84 321.312L2571.02 566.377L2483.07 476.004ZM2486.29 500.822L2453.08 466.7L2502.52 661.186L2636.44 779.599L2618.6 721.443L2486.29 500.822ZM2606.38 681.635L2516.67 532.036L2580.66 597.783L2606.38 681.635ZM2672.7 811.665L2640.01 757.153L2650.79 792.291L2672.7 811.665ZM2408.25 351.255L2276.2 131.059L2366.86 188.435L2408.25 351.255ZM2839.79 357.023L2858.68 473.652L2833.54 457.743L2839.79 357.023ZM2807.7 158.837L2832.55 312.297L2823.9 451.642L2787.82 428.809L2780.18 398.922L2807.7 158.837ZM2864.02 506.645L2863.37 502.66L2831.98 482.794L2826.33 573.76L2851.53 647.014L2864.02 506.645ZM2856.93 699.12L2857.33 694.632L2900.2 819.262L2888.72 823.426L2856.93 699.12ZM2810.85 1266.83L2807.5 1254.76L2806.05 1271.08L2810.85 1266.83ZM2802.41 1199.09L2791.96 1161.47L2806 1158.73L2802.41 1199.09ZM2772.07 1089.85L2780.92 1089.12L2766.85 1071.06L2772.07 1089.85ZM2772.67 1129.36L2774.07 1134.41L2756.78 1137.78L2754.57 1130.56L2772.67 1129.36ZM2822.54 1085.72L2823.23 1077.97L2829.56 1073.22L2836.37 1084.58L2822.54 1085.72ZM2872.98 1145.64L2864.31 1147.33L2880.36 1167.95L2890.59 1174.99L2872.98 1145.64ZM2906.58 1182.21L2883.42 1143.6L2896.37 1141.06L2909.33 1179.78L2906.58 1182.21ZM2846.53 1082.08L2851.07 1078.24L2841.11 1073.05L2846.53 1082.08ZM2814.84 1059.35L2813.66 1072.64L2808.89 1076.21L2796.15 1059.86L2796.77 1049.92L2814.84 1059.35ZM2825.65 937.939L2824.91 946.249L2816.95 939.212L2819.36 937.438L2825.65 937.939ZM2823.81 958.624L2823.55 961.469L2802.57 956.434L2803.01 949.482L2808.71 945.278L2823.81 958.624ZM2790.55 988.732L2787.51 983.671L2790.81 984.463L2790.55 988.732ZM2822.02 847.611L2818.89 842.553L2810.2 833.628L2809.9 838.455L2813.94 850.541L2822.02 847.611ZM2770.26 764.091L2743.3 720.595L2740.96 740.984L2773.82 774.746L2770.26 764.091ZM2760.94 692.104L2804.59 762.543L2814.96 595.526L2790.97 501.69L2774.04 452.463L2750.24 660.112L2760.94 692.104ZM2861.6 854.532L2875.71 877.296L2885.22 870.294L2879.53 848.033L2861.6 854.532ZM2417.03 194.149L2360.68 103.222L2377.42 169.081L2417.03 194.149ZM3086.39 1274.18L3093.79 1286.11L3073.37 1280.78L3086.39 1274.18ZM3134.25 1233.12L3105.32 1247.78L3071.49 1193.18L3114.36 1215.54L3134.25 1233.12ZM2946.67 1050.1L2947.32 1049.78L2946.08 1047.79L2946.67 1050.1ZM3035.45 1068.29L3037.14 1066.8L3007.66 1036.51L3000.5 1034.79L2987.16 1041.35L2997.49 1071.4L3035.45 1068.29ZM2920.72 1169.71L2949.14 1144.59L2910.56 1139.35L2920.72 1169.71ZM2962.55 1172.77L2931.06 1200.61L2932.05 1203.56L2978.64 1235.67L2962.55 1172.77ZM2755.95 434.675L2653.02 369.537L2735.24 615.296L2755.95 434.675ZM2727.32 859.964L2738.76 760.225L2784.79 807.517L2799.14 850.414L2798.79 856.036L2744.96 875.557L2727.32 859.964ZM2689.74 840.083L2656.41 810.609L2672.75 863.876L2700.96 871.209L2694.52 848.055L2689.74 840.083ZM2725.31 877.541L2725.93 872.084L2734.25 879.439L2733.57 879.688L2725.31 877.541ZM2701.15 912.719L2700.6 912.919L2701.12 912.96L2701.15 912.719ZM2721.74 908.668L2722.15 905.103L2726.25 903.616L2728.14 904.108L2735.07 915.668L2723.43 914.74L2721.74 908.668ZM2747.32 916.645L2741.95 907.699L2776.32 916.634L2779.21 919.188L2747.32 916.645ZM2756.8 932.448L2793.86 935.404L2793.72 937.693L2776.71 950.225L2765.9 947.631L2756.8 932.448ZM2744.55 931.472L2752.28 944.362L2730.18 939.058L2727.7 930.128L2744.55 931.472ZM2718.71 935.116L2718.58 936.273L2719.06 936.389L2718.71 935.116ZM2699.41 927.872L2692.91 927.354L2695.56 930.748L2698.98 931.57L2699.41 927.872ZM2685.72 1047.25L2682.19 1078.05L2636.83 1071.89L2678.29 1041.35L2685.72 1047.25ZM2702.01 1080.74L2704.17 1061.89L2729.11 1081.69L2729.99 1084.54L2702.01 1080.74ZM2675.57 1135.78L2640.55 1138.09L2661.78 1156.36L2673.48 1154.07L2675.57 1135.78ZM2668.45 1197.93L2652.64 1205.7L2647.84 1209.3L2665.99 1219.41L2668.45 1197.93ZM2686.36 1217.32L2689.01 1194.16L2690.98 1194.66L2701.98 1204.13L2686.36 1217.32ZM2661.58 1257.87L2655.51 1263L2659.29 1277.85L2661.58 1257.87ZM2789.87 1279.75L2791.23 1284.17L2781.7 1292.6L2782.87 1273.72L2789.87 1279.75ZM3718.81 407.348L4139.49 92.3435L3696.28 484.13L3718.81 407.348ZM3698.78 422.35L3675.17 502.788L3607.19 562.883L3420.87 630.45L3698.78 422.35ZM3656.55 566.259L3643.19 571.104L3380.12 803.654L3409.91 822.507L3610.24 724.081L3656.55 566.259ZM3307.52 692.829L3263.6 729.913L3242.34 716.463L3307.52 692.829ZM3351.68 655.54L3220.97 702.938L3176.19 674.594L3748.46 253.056L3722.14 342.733L3351.68 655.54ZM3194.82 712.422L3157.18 688.598L3056.97 762.412L3194.82 712.422ZM2786.87 1047.95L2787.06 1044.86L2782.69 1042.58L2786.87 1047.95ZM2678.35 957.469L2686.07 967.383L2657.43 952.449L2678.35 957.469ZM2729.65 974.505L2725.12 968.696L2728.24 969.445L2729.65 974.505ZM2740.66 976.776L2745.12 973.495L2739.36 972.114L2740.66 976.776ZM2672.91 901.683L2661.25 886.717L2670 888.991L2673.79 901.364L2672.91 901.683ZM2613.56 874.317L2639.86 908.075L2581.81 903.445L2562.96 898.921L2552.68 858.487L2613.56 874.317ZM2636.01 854.324L2661.39 860.92L2642.06 797.917L2506.9 678.405L2510.75 693.543L2636.01 854.324ZM2529.16 765.995L2588.32 841.924L2545.65 830.828L2529.16 765.995ZM2487.77 664.059L2486.93 660.752L2481.35 655.818L2487.77 664.059ZM2795.76 459.871L2822.34 476.693L2817.99 546.804L2795.76 459.871ZM4034.32 1243.71L4055.61 1257.18L3508 1125.75L3513.15 1108.21L4034.32 1243.71ZM3695.55 1029.32L3965.04 1199.87L3520.19 1084.21L3530.46 1049.21L3545.49 1041.6L3695.55 1029.32ZM3738.59 1010.75L3710.92 1013.01L3702.84 1007.9L3738.59 1010.75ZM3674.49 1015.99L3655.77 1004.14L3624.37 1001.64L3580.92 1023.65L3674.49 1015.99ZM3606.42 737.1L3554.5 914.017L3419.82 828.779L3606.42 737.1ZM3126.18 961.906L3021.94 953.594L3020.97 954.412L3099.74 974.893L3126.18 961.906ZM2985.27 1031.14L2983.5 1030.71L2983.88 1031.82L2985.27 1031.14ZM2932.92 1056.86L2932.34 1054.59L2917.68 1041.63L2886.64 1067.84L2888.32 1072.85L2894.16 1075.9L2932.92 1056.86ZM2911.71 1078.42L2935.45 1066.75L2937.88 1076.28L2911.71 1078.42ZM2872.43 1097.72L2874.95 1096.48L2881.28 1095.96L2881.67 1097.11L2872.43 1097.72ZM2701.24 1181.82L2710.08 1177.48L2740.6 1171.52L2722.03 1187.2L2701.24 1181.82ZM2619.66 1210.76L2604.27 1218.32L2565.34 1205.77L2598.93 1199.21L2619.66 1210.76ZM2647.4 1197.14L2640.37 1200.59L2639.18 1198.78L2637.38 1191.69L2660.77 1187.12L2647.4 1197.14ZM2506.31 1186.75L2522.65 1183.55L2514.93 1161.68L2493.86 1177.2L2501.15 1185.09L2506.31 1186.75ZM2524.05 1157.48L2532.57 1181.61L2558.33 1176.58L2524.05 1157.48ZM2528.81 1215.01L2534.39 1216.81L2536.81 1223.67L2528.81 1215.01ZM3072.09 891.614L3010.62 937.643L3016.98 938.15L3072.09 891.614ZM2971.06 967.267L2965.36 971.539L2970.81 977.138L2979.8 969.54L2971.06 967.267ZM2896.62 1023.01L2876.65 1037.97L2881.52 1052.53L2906.32 1031.59L2896.62 1023.01ZM2864.84 1046.81L2853.97 1054.94L2869.24 1062.9L2870.01 1062.25L2864.84 1046.81ZM2745.77 1135.97L2738.59 1141.34L2746.91 1139.71L2745.77 1135.97ZM2629.81 1222.8L2626.3 1225.42L2630.85 1226.89L2629.81 1222.8ZM2606.69 1240.11L2574.36 1264.31L2599.05 1291.03L2638.66 1257.59L2636.67 1249.78L2606.69 1240.11ZM2806.17 898.564L2807.59 875.674L2816.11 901.149L2806.17 898.564ZM2797.44 877.801L2796.31 896L2767.74 888.572L2797.44 877.801ZM2783.65 1261.2L2784.38 1261.82L2783.74 1259.75L2783.65 1261.2ZM2911.17 851.174L2906.7 838.177L2893.69 842.895L2898.25 860.697L2911.17 851.174ZM3059.92 1287.6L3061.41 1287.99L3063.55 1294.19L3056.5 1289.33L3059.92 1287.6ZM1881.98 969.334L2284.61 1024.03L2013.99 873.209L1294.89 815.861L1881.98 969.334ZM3003.63 1272.88L3021.96 1277.67L3032.28 1284.78L3009.61 1296.27L3003.63 1272.88ZM2364.08 824.284L2395.17 845.708L2405.27 861.072L2291.97 833.878L2261.99 812.416L2212.83 770.128L2329.52 800.467L2335.77 804.775L2333.83 808.507L2364.08 824.284ZM2420.75 864.788L2420.07 862.87L2423.98 865.564L2420.75 864.788ZM2365.21 901.219L2369.31 901.546L2441.31 953.092L2448.2 972.614L2365.21 901.219ZM2435.5 936.635L2388.64 903.088L2424.68 905.961L2435.5 936.635ZM2460.9 978.564L2455.5 963.251L2471.52 974.716L2460.9 978.564ZM2449.69 946.794L2435.87 907.642L2472.19 962.903L2449.69 946.794ZM2447.96 907.818L2488 968.74L2544.15 948.378L2492.67 912.902L2483.19 910.628L2447.96 907.818ZM2397.19 1069.6L2486.72 1081.77L2497.51 1112.32L2476.86 1114.01L2397.19 1069.6ZM2507.81 1111.47L2497.86 1083.28L2556.55 1091.25L2565.91 1105.5L2564.05 1106.87L2507.81 1111.47ZM2569.69 1093.04L2573.97 1099.56L2577.45 1097L2573.44 1093.55L2569.69 1093.04ZM2554.16 1143.8L2589.55 1141.46L2598.64 1155.3L2554.16 1143.8ZM2601.02 1140.71L2613.06 1159.03L2613.64 1159.18L2608.81 1140.19L2601.02 1140.71ZM2683.21 897.951L2692.08 894.732L2681.36 891.946L2683.21 897.951ZM2925.4 1035.11L2927.93 1037.34L2927.01 1033.75L2925.4 1035.11ZM2953.05 1075.04L2952.34 1072.28L2955.26 1074.85L2953.05 1075.04ZM2555.69 944.191L2555.81 944.147L2526.75 921.083L2519.71 919.392L2555.69 944.191ZM2451.02 872.054L2459.66 874.129L2436.51 862.052L2451.02 872.054ZM3356.89 1120.33L3191.65 1204.05L3098.04 1107.86L3260.27 1097.14L3356.89 1120.33ZM3493.4 1122.24L3420.73 1104.8L3447.63 1091.18L3498.62 1104.43L3493.4 1122.24ZM3398.21 1099.4L3425.7 1085.47L3326.03 1059.56L3256.08 1065.28L3279.21 1070.84L3307 1069L3307.57 1077.64L3398.21 1099.4ZM3505.67 1080.43L3481.33 1074.1L3512.1 1058.52L3505.67 1080.43ZM3459.39 1068.4L3505.9 1044.84L3401.6 1053.38L3459.39 1068.4ZM3541.33 1026.89L3595.69 999.35L3546.25 995.407L3536.91 1027.25L3541.33 1026.89ZM2942.19 1093.11L2941.65 1091.02L2925.66 1092.33L2928.85 1093.99L2942.19 1093.11ZM2891.77 895.936L2889.23 885.972L2885.06 889.039L2891.77 895.936ZM3075.12 1084.32L3071.31 1080.41L3160.23 1073.13L3178.42 1077.5L3075.12 1084.32ZM2613.83 1099.03L2631.11 1101.38L2614.76 1102.72L2613.83 1099.03ZM2424.23 1101.85L2450 1116.2L2448.04 1116.37L2434.39 1112.84L2424.23 1101.85ZM2184.69 886.823L2049.95 876.077L2307.29 1019.5L2184.69 886.823ZM2389.3 888.093L2364.99 886.154L2356.8 880.291L2389.3 888.093ZM2507.71 1148.37L2483.62 1166.11L2468.25 1149.48L2505.31 1147.03L2507.71 1148.37ZM2597.38 1100.95L2598.61 1100.04L2599.25 1102.56L2597.38 1100.95ZM2444.67 830.406L2536.1 854.179L2546.36 894.528L2485.43 862.751L2444.67 830.406ZM2624.03 1139.18L2629.98 1162.57L2649.29 1158.8L2626.31 1139.03L2624.03 1139.18ZM2621.74 1194.75L2622.64 1194.57L2622.84 1195.36L2621.74 1194.75ZM2576.59 935.102L2578.3 935.994L2577.9 936.14L2576.59 935.102ZM2561.55 1161.2L2581.14 1172.12L2594.03 1169.6L2561.55 1161.2Z" fill="black" fill-opacity="0.9"/>
</g>
<line x1="3244.46" y1="260.204" x2="3175.46" y2="414.204" stroke="black"/>
<line x1="3151.45" y1="273.219" x2="3074.45" y2="431.219" stroke="black"/>
<line x1="3143.45" y1="275.219" x2="3066.45" y2="433.219" stroke="black"/>
<line x1="3138.45" y1="275.221" x2="3060.45" y2="433.221" stroke="black"/>
<line x1="3132.45" y1="275.219" x2="3055.45" y2="433.219" stroke="black"/>
<line x1="3159.45" y1="271.219" x2="3082.45" y2="429.219" stroke="black"/>
<line x1="3168.45" y1="269.219" x2="3091.45" y2="427.219" stroke="black"/>
<line x1="3176.45" y1="269.216" x2="3101.45" y2="426.216" stroke="black"/>
<line x1="3188.45" y1="267.216" x2="3113.45" y2="424.216" stroke="black"/>
<line x1="3202.45" y1="264.216" x2="3127.45" y2="421.216" stroke="black"/>
<line x1="3220.45" y1="264.213" x2="3147.45" y2="419.213" stroke="black"/>
<line x1="3233.46" y1="260.204" x2="3164.46" y2="414.204" stroke="black"/>
<path fill-rule="evenodd" clip-rule="evenodd" d="M3191.1 413.631L3261 254L3256.42 251.995L3186.77 411.068L3188.15 410.833L3191.1 413.631ZM3204.29 426.134L3200.4 422.448L3266.38 262.098L3271 264L3204.29 426.134ZM3218.37 439.481L3214.44 435.753L3280.32 262.225L3285 264L3218.37 439.481ZM3233.02 453.364L3229.04 449.587L3290.27 272.367L3295 274L3233.02 453.364ZM3247.29 466.886L3243.27 463.076L3304.24 275.455L3309 277L3247.29 466.886ZM3263.38 482.14L3259.32 478.293L3319.21 280.551L3324 282L3263.38 482.14ZM3280.05 497.94L3275.94 494.042L3331.18 293.671L3336 295L3280.05 497.94Z" fill="black" fill-opacity="0.6"/>
</g>
<defs>
<clipPath id="clip0_702_1186">
<rect width="4624" height="1168" fill="white" transform="translate(84 96)"/>
</clipPath>
</defs>
</svg>
