<svg width="3745" height="1780" viewBox="0 0 3745 1780" fill="none" xmlns="http://www.w3.org/2000/svg">
<path d="M293.2 936C290.267 936 288.117 935.383 286.75 934.15C285.383 932.883 284.7 930.833 284.7 928V919C284.7 916.133 285.317 914.083 286.55 912.85C287.783 911.617 289.833 911 292.7 911H295.05C297.417 911 299.2 911.667 300.4 913C301.633 914.3 302.25 916.217 302.25 918.75V925.25H288.95V929C288.95 930.033 289.267 930.833 289.9 931.4C290.533 931.967 291.467 932.25 292.7 932.25H300.65V936H293.2ZM298.1 917.75C298.1 916.883 297.817 916.167 297.25 915.6C296.683 915.033 295.967 914.75 295.1 914.75H292.2C291 914.75 290.15 915.033 289.65 915.6C289.183 916.133 288.95 916.933 288.95 918V921.5H298.1V917.75ZM328.102 929.75C328.102 931.85 327.452 933.417 326.152 934.45C324.885 935.483 323.035 936 320.602 936H313.152V932.25H321.102C322.002 932.25 322.685 932.067 323.152 931.7C323.619 931.3 323.852 930.733 323.852 930V927.35C323.852 925.85 323.135 925.1 321.702 925.1H319.852C317.519 925.1 315.769 924.6 314.602 923.6C313.469 922.567 312.902 920.95 312.902 918.75V917.3C312.902 915.067 313.535 913.467 314.802 912.5C316.069 911.5 317.935 911 320.402 911H327.102V914.75H319.902C319.069 914.75 318.402 914.95 317.902 915.35C317.402 915.717 317.152 916.267 317.152 917V918.8C317.152 919.567 317.369 920.133 317.802 920.5C318.269 920.867 318.852 921.05 319.552 921.05H321.252C323.485 921.05 325.185 921.6 326.352 922.7C327.519 923.767 328.102 925.367 328.102 927.5V929.75ZM349.354 936C347.654 936 346.354 935.45 345.454 934.35C344.554 933.25 344.104 931.8 344.104 930V914.75H339.354V911H344.104V905H348.354V911H355.654V914.75H348.354V930.25C348.354 930.983 348.537 931.5 348.904 931.8C349.271 932.1 349.837 932.25 350.604 932.25H355.654V936H349.354ZM374.206 936C371.273 936 369.123 935.383 367.756 934.15C366.389 932.883 365.706 930.833 365.706 928V919C365.706 916.133 366.323 914.083 367.556 912.85C368.789 911.617 370.839 911 373.706 911H376.056C378.423 911 380.206 911.667 381.406 913C382.639 914.3 383.256 916.217 383.256 918.75V925.25H369.956V929C369.956 930.033 370.273 930.833 370.906 931.4C371.539 931.967 372.473 932.25 373.706 932.25H381.656V936H374.206ZM379.106 917.75C379.106 916.883 378.823 916.167 378.256 915.6C377.689 915.033 376.973 914.75 376.106 914.75H373.206C372.006 914.75 371.156 915.033 370.656 915.6C370.189 916.133 369.956 916.933 369.956 918V921.5H379.106V917.75ZM430.36 936C428.66 936 427.36 935.45 426.46 934.35C425.56 933.25 425.11 931.8 425.11 930V914.75H420.36V911H425.11V905H429.36V911H436.66V914.75H429.36V930.25C429.36 930.983 429.543 931.5 429.91 931.8C430.276 932.1 430.843 932.25 431.61 932.25H436.66V936H430.36ZM450.662 932.25V914.75H447.012V911H454.662V912.35C455.762 911.45 457.095 911 458.662 911H463.812V915H458.162C457.095 915 456.295 915.35 455.762 916.05C455.228 916.717 454.945 917.4 454.912 918.1V932.25H460.362V936H447.012V932.25H450.662ZM489.864 936C489.43 936 488.947 935.867 488.414 935.6C487.914 935.333 487.48 934.967 487.114 934.5C486.347 935.5 485.33 936 484.064 936H479.614C477.08 936 475.23 935.5 474.064 934.5C472.93 933.467 472.364 931.717 472.364 929.25V928.25C472.364 923.083 474.797 920.5 479.664 920.5H485.864V918C485.864 916.967 485.547 916.167 484.914 915.6C484.28 915.033 483.347 914.75 482.114 914.75H474.364V911H481.614C484.514 911 486.647 911.633 488.014 912.9C489.414 914.167 490.114 916.2 490.114 919V931C490.114 931.5 490.297 931.883 490.664 932.15C491.064 932.383 491.714 932.5 492.614 932.5V936H489.864ZM483.564 932.25C484.564 932.25 485.197 932.017 485.464 931.55C485.73 931.083 485.864 930.483 485.864 929.75V924.25H479.614C478.747 924.25 478.03 924.533 477.464 925.1C476.897 925.667 476.614 926.383 476.614 927.25V929.75C476.614 930.617 476.814 931.25 477.214 931.65C477.614 932.05 478.247 932.25 479.114 932.25H483.564ZM518.666 928C518.666 930.8 517.966 932.833 516.566 934.1C515.199 935.367 513.066 936 510.166 936H500.366V901H504.616V912C505.616 911.333 506.866 911 508.366 911H510.166C513.099 911 515.249 911.633 516.616 912.9C517.982 914.133 518.666 916.167 518.666 919V928ZM507.866 914.75C506.766 914.75 505.949 915.05 505.416 915.65C504.882 916.217 504.616 916.833 504.616 917.5V932.25H510.666C511.899 932.25 512.832 931.967 513.466 931.4C514.099 930.833 514.416 930.033 514.416 929V918C514.416 916.967 514.099 916.167 513.466 915.6C512.832 915.033 511.899 914.75 510.666 914.75H507.866ZM543.868 936C543.434 936 542.951 935.867 542.418 935.6C541.918 935.333 541.484 934.967 541.118 934.5C540.351 935.5 539.334 936 538.068 936H533.618C531.084 936 529.234 935.5 528.068 934.5C526.934 933.467 526.368 931.717 526.368 929.25V928.25C526.368 923.083 528.801 920.5 533.668 920.5H539.868V918C539.868 916.967 539.551 916.167 538.918 915.6C538.284 915.033 537.351 914.75 536.118 914.75H528.368V911H535.618C538.518 911 540.651 911.633 542.018 912.9C543.418 914.167 544.118 916.2 544.118 919V931C544.118 931.5 544.301 931.883 544.668 932.15C545.068 932.383 545.718 932.5 546.618 932.5V936H543.868ZM537.568 932.25C538.568 932.25 539.201 932.017 539.468 931.55C539.734 931.083 539.868 930.483 539.868 929.75V924.25H533.618C532.751 924.25 532.034 924.533 531.468 925.1C530.901 925.667 530.618 926.383 530.618 927.25V929.75C530.618 930.617 530.818 931.25 531.218 931.65C531.618 932.05 532.251 932.25 533.118 932.25H537.568ZM565.12 936C563.986 936 562.986 935.6 562.12 934.8C561.286 934 560.87 932.733 560.87 931V904.75H553.52V901H565.12V930.75C565.12 931.283 565.253 931.667 565.52 931.9C565.786 932.133 566.236 932.25 566.87 932.25H573.52V936H565.12ZM585.621 901V912C586.621 911.333 587.871 911 589.371 911H591.671C594.371 911 596.371 911.633 597.671 912.9C599.005 914.167 599.671 916.2 599.671 919V936H595.421V918C595.421 917 595.121 916.217 594.521 915.65C593.955 915.05 593.171 914.75 592.171 914.75H588.871C587.805 914.75 587.005 915.033 586.471 915.6C585.938 916.133 585.655 916.717 585.621 917.35V936H581.371V901H585.621ZM626.823 928C626.823 930.8 626.123 932.833 624.723 934.1C623.357 935.367 621.223 936 618.323 936H616.673C613.773 936 611.623 935.367 610.223 934.1C608.857 932.833 608.173 930.8 608.173 928V919C608.173 916.2 608.857 914.167 610.223 912.9C611.623 911.633 613.773 911 616.673 911H618.323C621.223 911 623.357 911.633 624.723 912.9C626.123 914.167 626.823 916.2 626.823 919V928ZM622.573 918C622.573 916.967 622.257 916.167 621.623 915.6C620.99 915.033 620.057 914.75 618.823 914.75H616.173C614.94 914.75 614.007 915.033 613.373 915.6C612.74 916.167 612.423 916.967 612.423 918V929C612.423 930.033 612.74 930.833 613.373 931.4C614.007 931.967 614.94 932.25 616.173 932.25H618.823C620.057 932.25 620.99 931.967 621.623 931.4C622.257 930.833 622.573 930.033 622.573 929V918ZM671.227 936C668.294 936 666.144 935.383 664.777 934.15C663.411 932.883 662.727 930.833 662.727 928V919C662.727 916.133 663.344 914.083 664.577 912.85C665.811 911.617 667.861 911 670.727 911H673.077C675.444 911 677.227 911.667 678.427 913C679.661 914.3 680.277 916.217 680.277 918.75V925.25H666.977V929C666.977 930.033 667.294 930.833 667.927 931.4C668.561 931.967 669.494 932.25 670.727 932.25H678.677V936H671.227ZM676.127 917.75C676.127 916.883 675.844 916.167 675.277 915.6C674.711 915.033 673.994 914.75 673.127 914.75H670.227C669.027 914.75 668.177 915.033 667.677 915.6C667.211 916.133 666.977 916.933 666.977 918V921.5H676.127V917.75ZM706.129 929.75C706.129 931.85 705.479 933.417 704.179 934.45C702.913 935.483 701.063 936 698.629 936H691.179V932.25H699.129C700.029 932.25 700.713 932.067 701.179 931.7C701.646 931.3 701.879 930.733 701.879 930V927.35C701.879 925.85 701.163 925.1 699.729 925.1H697.879C695.546 925.1 693.796 924.6 692.629 923.6C691.496 922.567 690.929 920.95 690.929 918.75V917.3C690.929 915.067 691.563 913.467 692.829 912.5C694.096 911.5 695.963 911 698.429 911H705.129V914.75H697.929C697.096 914.75 696.429 914.95 695.929 915.35C695.429 915.717 695.179 916.267 695.179 917V918.8C695.179 919.567 695.396 920.133 695.829 920.5C696.296 920.867 696.879 921.05 697.579 921.05H699.279C701.513 921.05 703.213 921.6 704.379 922.7C705.546 923.767 706.129 925.367 706.129 927.5V929.75ZM727.381 936C725.681 936 724.381 935.45 723.481 934.35C722.581 933.25 722.131 931.8 722.131 930V914.75H717.381V911H722.131V905H726.381V911H733.681V914.75H726.381V930.25C726.381 930.983 726.565 931.5 726.931 931.8C727.298 932.1 727.865 932.25 728.631 932.25H733.681V936H727.381ZM759.533 900.25L753.433 907H749.133L754.333 900.25H759.533ZM759.883 936C759.45 936 758.967 935.867 758.433 935.6C757.933 935.333 757.5 934.967 757.133 934.5C756.367 935.5 755.35 936 754.083 936H749.633C747.1 936 745.25 935.5 744.083 934.5C742.95 933.467 742.383 931.717 742.383 929.25V928.25C742.383 923.083 744.817 920.5 749.683 920.5H755.883V918C755.883 916.967 755.567 916.167 754.933 915.6C754.3 915.033 753.367 914.75 752.133 914.75H744.383V911H751.633C754.533 911 756.667 911.633 758.033 912.9C759.433 914.167 760.133 916.2 760.133 919V931C760.133 931.5 760.317 931.883 760.683 932.15C761.083 932.383 761.733 932.5 762.633 932.5V936H759.883ZM753.583 932.25C754.583 932.25 755.217 932.017 755.483 931.55C755.75 931.083 755.883 930.483 755.883 929.75V924.25H749.633C748.767 924.25 748.05 924.533 747.483 925.1C746.917 925.667 746.633 926.383 746.633 927.25V929.75C746.633 930.617 746.833 931.25 747.233 931.65C747.633 932.05 748.267 932.25 749.133 932.25H753.583ZM814.137 929.75C814.137 931.85 813.487 933.417 812.187 934.45C810.92 935.483 809.07 936 806.637 936H799.187V932.25H807.137C808.037 932.25 808.72 932.067 809.187 931.7C809.654 931.3 809.887 930.733 809.887 930V927.35C809.887 925.85 809.17 925.1 807.737 925.1H805.887C803.554 925.1 801.804 924.6 800.637 923.6C799.504 922.567 798.937 920.95 798.937 918.75V917.3C798.937 915.067 799.57 913.467 800.837 912.5C802.104 911.5 803.97 911 806.437 911H813.137V914.75H805.937C805.104 914.75 804.437 914.95 803.937 915.35C803.437 915.717 803.187 916.267 803.187 917V918.8C803.187 919.567 803.404 920.133 803.837 920.5C804.304 920.867 804.887 921.05 805.587 921.05H807.287C809.52 921.05 811.22 921.6 812.387 922.7C813.554 923.767 814.137 925.367 814.137 927.5V929.75ZM833.239 936C830.306 936 828.156 935.383 826.789 934.15C825.422 932.883 824.739 930.833 824.739 928V919C824.739 916.133 825.356 914.083 826.589 912.85C827.822 911.617 829.872 911 832.739 911H835.089C837.456 911 839.239 911.667 840.439 913C841.672 914.3 842.289 916.217 842.289 918.75V925.25H828.989V929C828.989 930.033 829.306 930.833 829.939 931.4C830.572 931.967 831.506 932.25 832.739 932.25H840.689V936H833.239ZM838.139 917.75C838.139 916.883 837.856 916.167 837.289 915.6C836.722 915.033 836.006 914.75 835.139 914.75H832.239C831.039 914.75 830.189 915.033 829.689 915.6C829.222 916.133 828.989 916.933 828.989 918V921.5H838.139V917.75ZM855.391 911V912.2C856.424 911.4 857.758 911 859.391 911H861.691C864.391 911 866.391 911.633 867.691 912.9C869.024 914.167 869.691 916.2 869.691 919V936H865.441V918C865.441 917 865.141 916.217 864.541 915.65C863.974 915.05 863.191 914.75 862.191 914.75H858.891C857.791 914.75 856.974 915.05 856.441 915.65C855.908 916.217 855.641 916.833 855.641 917.5V936H851.391V911H855.391ZM892.793 934.85C891.693 935.617 890.36 936 888.793 936H886.743C883.81 936 881.66 935.383 880.293 934.15C878.926 932.883 878.243 930.833 878.243 928V919C878.243 916.2 878.926 914.167 880.293 912.9C881.693 911.633 883.843 911 886.743 911H892.543V901H896.793V936H892.793V934.85ZM889.293 932.25C890.393 932.25 891.21 931.967 891.743 931.4C892.276 930.8 892.543 930.167 892.543 929.5V914.75H886.243C885.01 914.75 884.076 915.033 883.443 915.6C882.81 916.167 882.493 916.967 882.493 918V929C882.493 930.033 882.81 930.833 883.443 931.4C884.076 931.967 885.01 932.25 886.243 932.25H889.293ZM923.845 928C923.845 930.8 923.145 932.833 921.745 934.1C920.378 935.367 918.245 936 915.345 936H913.695C910.795 936 908.645 935.367 907.245 934.1C905.878 932.833 905.195 930.8 905.195 928V919C905.195 916.2 905.878 914.167 907.245 912.9C908.645 911.633 910.795 911 913.695 911H915.345C918.245 911 920.378 911.633 921.745 912.9C923.145 914.167 923.845 916.2 923.845 919V928ZM919.595 918C919.595 916.967 919.278 916.167 918.645 915.6C918.012 915.033 917.078 914.75 915.845 914.75H913.195C911.962 914.75 911.028 915.033 910.395 915.6C909.762 916.167 909.445 916.967 909.445 918V929C909.445 930.033 909.762 930.833 910.395 931.4C911.028 931.967 911.962 932.25 913.195 932.25H915.845C917.078 932.25 918.012 931.967 918.645 931.4C919.278 930.833 919.595 930.033 919.595 929V918ZM973.799 934.85C972.699 935.617 971.365 936 969.799 936H967.749C964.815 936 962.665 935.383 961.299 934.15C959.932 932.883 959.249 930.833 959.249 928V919C959.249 916.2 959.932 914.167 961.299 912.9C962.699 911.633 964.849 911 967.749 911H973.549V901H977.799V936H973.799V934.85ZM970.299 932.25C971.399 932.25 972.215 931.967 972.749 931.4C973.282 930.8 973.549 930.167 973.549 929.5V914.75H967.249C966.015 914.75 965.082 915.033 964.449 915.6C963.815 916.167 963.499 916.967 963.499 918V929C963.499 930.033 963.815 930.833 964.449 931.4C965.082 931.967 966.015 932.25 967.249 932.25H970.299ZM995.251 936C992.317 936 990.167 935.383 988.801 934.15C987.434 932.883 986.751 930.833 986.751 928V919C986.751 916.133 987.367 914.083 988.601 912.85C989.834 911.617 991.884 911 994.751 911H997.101C999.467 911 1001.25 911.667 1002.45 913C1003.68 914.3 1004.3 916.217 1004.3 918.75V925.25H991.001V929C991.001 930.033 991.317 930.833 991.951 931.4C992.584 931.967 993.517 932.25 994.751 932.25H1002.7V936H995.251ZM1000.15 917.75C1000.15 916.883 999.867 916.167 999.301 915.6C998.734 915.033 998.017 914.75 997.151 914.75H994.251C993.051 914.75 992.201 915.033 991.701 915.6C991.234 916.133 991.001 916.933 991.001 918V921.5H1000.15V917.75ZM1030.15 929.75C1030.15 931.85 1029.5 933.417 1028.2 934.45C1026.94 935.483 1025.09 936 1022.65 936H1015.2V932.25H1023.15C1024.05 932.25 1024.74 932.067 1025.2 931.7C1025.67 931.3 1025.9 930.733 1025.9 930V927.35C1025.9 925.85 1025.19 925.1 1023.75 925.1H1021.9C1019.57 925.1 1017.82 924.6 1016.65 923.6C1015.52 922.567 1014.95 920.95 1014.95 918.75V917.3C1014.95 915.067 1015.59 913.467 1016.85 912.5C1018.12 911.5 1019.99 911 1022.45 911H1029.15V914.75H1021.95C1021.12 914.75 1020.45 914.95 1019.95 915.35C1019.45 915.717 1019.2 916.267 1019.2 917V918.8C1019.2 919.567 1019.42 920.133 1019.85 920.5C1020.32 920.867 1020.9 921.05 1021.6 921.05H1023.3C1025.54 921.05 1027.24 921.6 1028.4 922.7C1029.57 923.767 1030.15 925.367 1030.15 927.5V929.75ZM1049.25 936C1046.32 936 1044.17 935.383 1042.8 934.15C1041.44 932.883 1040.75 930.833 1040.75 928V919C1040.75 916.133 1041.37 914.083 1042.6 912.85C1043.84 911.617 1045.89 911 1048.75 911H1051.1C1053.47 911 1055.25 911.667 1056.45 913C1057.69 914.3 1058.3 916.217 1058.3 918.75V925.25H1045V929C1045 930.033 1045.32 930.833 1045.95 931.4C1046.59 931.967 1047.52 932.25 1048.75 932.25H1056.7V936H1049.25ZM1054.15 917.75C1054.15 916.883 1053.87 916.167 1053.3 915.6C1052.74 915.033 1052.02 914.75 1051.15 914.75H1048.25C1047.05 914.75 1046.2 915.033 1045.7 915.6C1045.24 916.133 1045 916.933 1045 918V921.5H1054.15V917.75ZM1071.41 911V912.2C1072.44 911.4 1073.77 911 1075.41 911H1077.71C1080.41 911 1082.41 911.633 1083.71 912.9C1085.04 914.167 1085.71 916.2 1085.71 919V936H1081.46V918C1081.46 917 1081.16 916.217 1080.56 915.65C1079.99 915.05 1079.21 914.75 1078.21 914.75H1074.91C1073.81 914.75 1072.99 915.05 1072.46 915.65C1071.92 916.217 1071.66 916.833 1071.66 917.5V936H1067.41V911H1071.41ZM1093.26 911H1097.86L1103.71 932.55L1109.41 911H1113.86L1106.66 936H1100.51L1093.26 911ZM1139.86 928C1139.86 930.8 1139.16 932.833 1137.76 934.1C1136.39 935.367 1134.26 936 1131.36 936H1129.71C1126.81 936 1124.66 935.367 1123.26 934.1C1121.89 932.833 1121.21 930.8 1121.21 928V919C1121.21 916.2 1121.89 914.167 1123.26 912.9C1124.66 911.633 1126.81 911 1129.71 911H1131.36C1134.26 911 1136.39 911.633 1137.76 912.9C1139.16 914.167 1139.86 916.2 1139.86 919V928ZM1135.61 918C1135.61 916.967 1135.29 916.167 1134.66 915.6C1134.03 915.033 1133.09 914.75 1131.86 914.75H1129.21C1127.98 914.75 1127.04 915.033 1126.41 915.6C1125.78 916.167 1125.46 916.967 1125.46 918V929C1125.46 930.033 1125.78 930.833 1126.41 931.4C1127.04 931.967 1127.98 932.25 1129.21 932.25H1131.86C1133.09 932.25 1134.03 931.967 1134.66 931.4C1135.29 930.833 1135.61 930.033 1135.61 929V918ZM1159.16 936C1158.03 936 1157.03 935.6 1156.16 934.8C1155.33 934 1154.91 932.733 1154.91 931V904.75H1147.56V901H1159.16V930.75C1159.16 931.283 1159.3 931.667 1159.56 931.9C1159.83 932.133 1160.28 932.25 1160.91 932.25H1167.56V936H1159.16ZM1174.26 911H1178.86L1184.71 932.55L1190.41 911H1194.86L1187.66 936H1181.51L1174.26 911ZM1213.92 901V905.5H1209.17V901H1213.92ZM1202.07 914.75V911H1213.67V932.25H1221.07V936H1209.42V914.75H1202.07ZM1243.82 934.85C1242.72 935.617 1241.39 936 1239.82 936H1237.77C1234.84 936 1232.69 935.383 1231.32 934.15C1229.95 932.883 1229.27 930.833 1229.27 928V919C1229.27 916.2 1229.95 914.167 1231.32 912.9C1232.72 911.633 1234.87 911 1237.77 911H1243.57V901H1247.82V936H1243.82V934.85ZM1240.32 932.25C1241.42 932.25 1242.24 931.967 1242.77 931.4C1243.3 930.8 1243.57 930.167 1243.57 929.5V914.75H1237.27C1236.04 914.75 1235.1 915.033 1234.47 915.6C1233.84 916.167 1233.52 916.967 1233.52 918V929C1233.52 930.033 1233.84 930.833 1234.47 931.4C1235.1 931.967 1236.04 932.25 1237.27 932.25H1240.32ZM1274.87 928C1274.87 930.8 1274.17 932.833 1272.77 934.1C1271.4 935.367 1269.27 936 1266.37 936H1264.72C1261.82 936 1259.67 935.367 1258.27 934.1C1256.9 932.833 1256.22 930.8 1256.22 928V919C1256.22 916.2 1256.9 914.167 1258.27 912.9C1259.67 911.633 1261.82 911 1264.72 911H1266.37C1269.27 911 1271.4 911.633 1272.77 912.9C1274.17 914.167 1274.87 916.2 1274.87 919V928ZM1270.62 918C1270.62 916.967 1270.3 916.167 1269.67 915.6C1269.04 915.033 1268.1 914.75 1266.87 914.75H1264.22C1262.99 914.75 1262.05 915.033 1261.42 915.6C1260.79 916.167 1260.47 916.967 1260.47 918V929C1260.47 930.033 1260.79 930.833 1261.42 931.4C1262.05 931.967 1262.99 932.25 1264.22 932.25H1266.87C1268.1 932.25 1269.04 931.967 1269.67 931.4C1270.3 930.833 1270.62 930.033 1270.62 929V918ZM1320.57 936C1317.64 936 1315.49 935.383 1314.12 934.15C1312.76 932.883 1312.07 930.833 1312.07 928V919C1312.07 916.2 1312.76 914.167 1314.12 912.9C1315.52 911.633 1317.67 911 1320.57 911H1327.02V914.75H1320.07C1318.84 914.75 1317.91 915.033 1317.27 915.6C1316.64 916.167 1316.32 916.967 1316.32 918V929C1316.32 930.033 1316.64 930.833 1317.27 931.4C1317.91 931.967 1318.84 932.25 1320.07 932.25H1327.02V936H1320.57ZM1355.88 928C1355.88 930.8 1355.18 932.833 1353.78 934.1C1352.41 935.367 1350.28 936 1347.38 936H1345.73C1342.83 936 1340.68 935.367 1339.28 934.1C1337.91 932.833 1337.23 930.8 1337.23 928V919C1337.23 916.2 1337.91 914.167 1339.28 912.9C1340.68 911.633 1342.83 911 1345.73 911H1347.38C1350.28 911 1352.41 911.633 1353.78 912.9C1355.18 914.167 1355.88 916.2 1355.88 919V928ZM1351.63 918C1351.63 916.967 1351.31 916.167 1350.68 915.6C1350.04 915.033 1349.11 914.75 1347.88 914.75H1345.23C1343.99 914.75 1343.06 915.033 1342.43 915.6C1341.79 916.167 1341.48 916.967 1341.48 918V929C1341.48 930.033 1341.79 930.833 1342.43 931.4C1343.06 931.967 1343.99 932.25 1345.23 932.25H1347.88C1349.11 932.25 1350.04 931.967 1350.68 931.4C1351.31 930.833 1351.63 930.033 1351.63 929V918ZM1365.98 911V912.15C1366.84 911.383 1367.88 911 1369.08 911H1369.38C1371.71 911 1373.36 911.667 1374.33 913C1375.43 911.667 1376.88 911 1378.68 911H1378.98C1381.01 911 1382.51 911.517 1383.48 912.55C1384.44 913.583 1384.93 915.417 1384.93 918.05V936H1380.93V918C1380.93 916.633 1380.78 915.683 1380.48 915.15C1380.21 914.617 1379.58 914.35 1378.58 914.35H1378.28C1377.28 914.35 1376.58 914.7 1376.18 915.4C1375.81 916.067 1375.61 916.817 1375.58 917.65V936H1371.58V918C1371.58 916.6 1371.41 915.65 1371.08 915.15C1370.74 914.617 1370.14 914.35 1369.28 914.35H1368.98C1367.98 914.35 1367.28 914.65 1366.88 915.25C1366.48 915.817 1366.26 916.467 1366.23 917.2V936H1362.23V911H1365.98ZM1434.93 936C1434.5 936 1434.02 935.867 1433.48 935.6C1432.98 935.333 1432.55 934.967 1432.18 934.5C1431.42 935.5 1430.4 936 1429.13 936H1424.68C1422.15 936 1420.3 935.5 1419.13 934.5C1418 933.467 1417.43 931.717 1417.43 929.25V928.25C1417.43 923.083 1419.87 920.5 1424.73 920.5H1430.93V918C1430.93 916.967 1430.62 916.167 1429.98 915.6C1429.35 915.033 1428.42 914.75 1427.18 914.75H1419.43V911H1426.68C1429.58 911 1431.72 911.633 1433.08 912.9C1434.48 914.167 1435.18 916.2 1435.18 919V931C1435.18 931.5 1435.37 931.883 1435.73 932.15C1436.13 932.383 1436.78 932.5 1437.68 932.5V936H1434.93ZM1428.63 932.25C1429.63 932.25 1430.27 932.017 1430.53 931.55C1430.8 931.083 1430.93 930.483 1430.93 929.75V924.25H1424.68C1423.82 924.25 1423.1 924.533 1422.53 925.1C1421.97 925.667 1421.68 926.383 1421.68 927.25V929.75C1421.68 930.617 1421.88 931.25 1422.28 931.65C1422.68 932.05 1423.32 932.25 1424.18 932.25H1428.63ZM1459.43 934.85C1458.33 935.617 1457 936 1455.43 936H1453.73C1451.03 936 1449.02 935.367 1447.68 934.1C1446.38 932.833 1445.73 930.8 1445.73 928V911H1449.98V929C1449.98 930 1450.27 930.8 1450.83 931.4C1451.43 931.967 1452.23 932.25 1453.23 932.25H1455.93C1457 932.25 1457.78 931.983 1458.28 931.45C1458.82 930.917 1459.12 930.317 1459.18 929.65V911H1463.43V936H1459.43V934.85ZM1476.04 936H1471.34L1479.14 923.1L1471.94 911H1476.89L1481.64 919.4L1486.49 911H1491.14L1483.84 922.9L1491.79 936H1486.79L1481.54 926.55L1476.04 936ZM1515.74 900.25L1509.64 907H1505.34L1510.54 900.25H1515.74ZM1499.09 914.75V911H1510.69V932.25H1518.09V936H1506.44V914.75H1499.09ZM1537.19 936C1536.06 936 1535.06 935.6 1534.19 934.8C1533.36 934 1532.94 932.733 1532.94 931V904.75H1525.59V901H1537.19V930.75C1537.19 931.283 1537.32 931.667 1537.59 931.9C1537.86 932.133 1538.31 932.25 1538.94 932.25H1545.59V936H1537.19ZM1564.94 901V905.5H1560.19V901H1564.94ZM1553.09 914.75V911H1564.69V932.25H1572.09V936H1560.44V914.75H1553.09ZM1598.89 928C1598.89 930.8 1598.19 932.833 1596.79 934.1C1595.43 935.367 1593.29 936 1590.39 936H1588.74C1585.84 936 1583.69 935.367 1582.29 934.1C1580.93 932.833 1580.24 930.8 1580.24 928V919C1580.24 916.2 1580.93 914.167 1582.29 912.9C1583.69 911.633 1585.84 911 1588.74 911H1590.39C1593.29 911 1595.43 911.633 1596.79 912.9C1598.19 914.167 1598.89 916.2 1598.89 919V928ZM1594.64 918C1594.64 916.967 1594.33 916.167 1593.69 915.6C1593.06 915.033 1592.13 914.75 1590.89 914.75H1588.24C1587.01 914.75 1586.08 915.033 1585.44 915.6C1584.81 916.167 1584.49 916.967 1584.49 918V929C1584.49 930.033 1584.81 930.833 1585.44 931.4C1586.08 931.967 1587.01 932.25 1588.24 932.25H1590.89C1592.13 932.25 1593.06 931.967 1593.69 931.4C1594.33 930.833 1594.64 930.033 1594.64 929V918ZM298.75 994.85C297.65 995.617 296.317 996 294.75 996H292.7C289.767 996 287.617 995.383 286.25 994.15C284.883 992.883 284.2 990.833 284.2 988V979C284.2 976.2 284.883 974.167 286.25 972.9C287.65 971.633 289.8 971 292.7 971H298.5V961H302.75V996H298.75V994.85ZM295.25 992.25C296.35 992.25 297.167 991.967 297.7 991.4C298.233 990.8 298.5 990.167 298.5 989.5V974.75H292.2C290.967 974.75 290.033 975.033 289.4 975.6C288.767 976.167 288.45 976.967 288.45 978V989C288.45 990.033 288.767 990.833 289.4 991.4C290.033 991.967 290.967 992.25 292.2 992.25H295.25ZM320.202 996C317.269 996 315.119 995.383 313.752 994.15C312.385 992.883 311.702 990.833 311.702 988V979C311.702 976.133 312.319 974.083 313.552 972.85C314.785 971.617 316.835 971 319.702 971H322.052C324.419 971 326.202 971.667 327.402 973C328.635 974.3 329.252 976.217 329.252 978.75V985.25H315.952V989C315.952 990.033 316.269 990.833 316.902 991.4C317.535 991.967 318.469 992.25 319.702 992.25H327.652V996H320.202ZM325.102 977.75C325.102 976.883 324.819 976.167 324.252 975.6C323.685 975.033 322.969 974.75 322.102 974.75H319.202C318.002 974.75 317.152 975.033 316.652 975.6C316.185 976.133 315.952 976.933 315.952 978V981.5H325.102V977.75ZM376.856 961V965.5H372.106V961H376.856ZM365.006 974.75V971H376.606V992.25H384.006V996H372.356V974.75H365.006ZM396.358 971V972.2C397.391 971.4 398.724 971 400.358 971H402.658C405.358 971 407.358 971.633 408.658 972.9C409.991 974.167 410.658 976.2 410.658 979V996H406.408V978C406.408 977 406.108 976.217 405.508 975.65C404.941 975.05 404.158 974.75 403.158 974.75H399.858C398.758 974.75 397.941 975.05 397.408 975.65C396.874 976.217 396.608 976.833 396.608 977.5V996H392.358V971H396.358ZM430.36 996C428.66 996 427.36 995.45 426.46 994.35C425.56 993.25 425.11 991.8 425.11 990V974.75H420.36V971H425.11V965H429.36V971H436.66V974.75H429.36V990.25C429.36 990.983 429.543 991.5 429.91 991.8C430.276 992.1 430.843 992.25 431.61 992.25H436.66V996H430.36ZM455.212 996C452.278 996 450.128 995.383 448.762 994.15C447.395 992.883 446.712 990.833 446.712 988V979C446.712 976.133 447.328 974.083 448.562 972.85C449.795 971.617 451.845 971 454.712 971H457.062C459.428 971 461.212 971.667 462.412 973C463.645 974.3 464.262 976.217 464.262 978.75V985.25H450.962V989C450.962 990.033 451.278 990.833 451.912 991.4C452.545 991.967 453.478 992.25 454.712 992.25H462.662V996H455.212ZM460.112 977.75C460.112 976.883 459.828 976.167 459.262 975.6C458.695 975.033 457.978 974.75 457.112 974.75H454.212C453.012 974.75 452.162 975.033 451.662 975.6C451.195 976.133 450.962 976.933 450.962 978V981.5H460.112V977.75ZM484.114 996C482.98 996 481.98 995.6 481.114 994.8C480.28 994 479.864 992.733 479.864 991V964.75H472.514V961H484.114V990.75C484.114 991.283 484.247 991.667 484.514 991.9C484.78 992.133 485.23 992.25 485.864 992.25H492.514V996H484.114ZM511.866 961V965.5H507.116V961H511.866ZM500.016 974.75V971H511.616V992.25H519.016V996H507.366V974.75H500.016ZM546.368 997.75C546.368 1000.02 545.684 1001.7 544.318 1002.8C542.984 1003.93 540.884 1004.5 538.018 1004.5H527.618V1000.75H538.518C539.718 1000.75 540.618 1000.52 541.218 1000.05C541.818 999.583 542.118 998.983 542.118 998.25V996.65C542.118 995.883 541.818 995.283 541.218 994.85C540.618 994.383 539.718 994.15 538.518 994.15H529.868V987.25C528.768 986.65 527.951 985.783 527.418 984.65C526.884 983.517 526.618 982.05 526.618 980.25V979C526.618 976.2 527.301 974.167 528.668 972.9C530.068 971.633 532.218 971 535.118 971H545.618V980.25C545.618 982.75 544.934 984.717 543.568 986.15C542.201 987.55 540.384 988.25 538.118 988.25H534.118V990.4H538.018C540.884 990.4 542.984 990.967 544.318 992.1C545.684 993.2 546.368 994.883 546.368 997.15V997.75ZM538.118 984.5C539.151 984.5 539.934 984.167 540.468 983.5C541.001 982.833 541.301 982.133 541.368 981.4V974.75H534.618C533.384 974.75 532.451 975.033 531.818 975.6C531.184 976.167 530.868 976.967 530.868 978V981.25C530.868 982.283 531.184 983.083 531.818 983.65C532.451 984.217 533.384 984.5 534.618 984.5H538.118ZM560.57 967H555.77L561.37 960.25H565.77L571.42 967H566.57L563.57 963.25L560.57 967ZM563.22 996C560.286 996 558.136 995.383 556.77 994.15C555.403 992.883 554.72 990.833 554.72 988V979C554.72 976.133 555.336 974.083 556.57 972.85C557.803 971.617 559.853 971 562.72 971H565.07C567.436 971 569.22 971.667 570.42 973C571.653 974.3 572.27 976.217 572.27 978.75V985.25H558.97V989C558.97 990.033 559.286 990.833 559.92 991.4C560.553 991.967 561.486 992.25 562.72 992.25H570.67V996H563.22ZM568.12 977.75C568.12 976.883 567.836 976.167 567.27 975.6C566.703 975.033 565.986 974.75 565.12 974.75H562.22C561.02 974.75 560.17 975.033 559.67 975.6C559.203 976.133 558.97 976.933 558.97 978V981.5H568.12V977.75ZM585.371 971V972.2C586.405 971.4 587.738 971 589.371 971H591.671C594.371 971 596.371 971.633 597.671 972.9C599.005 974.167 599.671 976.2 599.671 979V996H595.421V978C595.421 977 595.121 976.217 594.521 975.65C593.955 975.05 593.171 974.75 592.171 974.75H588.871C587.771 974.75 586.955 975.05 586.421 975.65C585.888 976.217 585.621 976.833 585.621 977.5V996H581.371V971H585.371ZM618.523 996C615.59 996 613.44 995.383 612.073 994.15C610.707 992.883 610.023 990.833 610.023 988V979C610.023 976.2 610.707 974.167 612.073 972.9C613.473 971.633 615.623 971 618.523 971H624.973V974.75H618.023C616.79 974.75 615.857 975.033 615.223 975.6C614.59 976.167 614.273 976.967 614.273 978V989C614.273 990.033 614.59 990.833 615.223 991.4C615.857 991.967 616.79 992.25 618.023 992.25H624.973V996H618.523ZM646.875 961V965.5H642.125V961H646.875ZM635.025 974.75V971H646.625V992.25H654.025V996H642.375V974.75H635.025ZM678.877 996C678.444 996 677.961 995.867 677.427 995.6C676.927 995.333 676.494 994.967 676.127 994.5C675.361 995.5 674.344 996 673.077 996H668.627C666.094 996 664.244 995.5 663.077 994.5C661.944 993.467 661.377 991.717 661.377 989.25V988.25C661.377 983.083 663.811 980.5 668.677 980.5H674.877V978C674.877 976.967 674.561 976.167 673.927 975.6C673.294 975.033 672.361 974.75 671.127 974.75H663.377V971H670.627C673.527 971 675.661 971.633 677.027 972.9C678.427 974.167 679.127 976.2 679.127 979V991C679.127 991.5 679.311 991.883 679.677 992.15C680.077 992.383 680.727 992.5 681.627 992.5V996H678.877ZM672.577 992.25C673.577 992.25 674.211 992.017 674.477 991.55C674.744 991.083 674.877 990.483 674.877 989.75V984.25H668.627C667.761 984.25 667.044 984.533 666.477 985.1C665.911 985.667 665.627 986.383 665.627 987.25V989.75C665.627 990.617 665.827 991.25 666.227 991.65C666.627 992.05 667.261 992.25 668.127 992.25H672.577ZM732.881 996C732.448 996 731.965 995.867 731.431 995.6C730.931 995.333 730.498 994.967 730.131 994.5C729.365 995.5 728.348 996 727.081 996H722.631C720.098 996 718.248 995.5 717.081 994.5C715.948 993.467 715.381 991.717 715.381 989.25V988.25C715.381 983.083 717.815 980.5 722.681 980.5H728.881V978C728.881 976.967 728.565 976.167 727.931 975.6C727.298 975.033 726.365 974.75 725.131 974.75H717.381V971H724.631C727.531 971 729.665 971.633 731.031 972.9C732.431 974.167 733.131 976.2 733.131 979V991C733.131 991.5 733.315 991.883 733.681 992.15C734.081 992.383 734.731 992.5 735.631 992.5V996H732.881ZM726.581 992.25C727.581 992.25 728.215 992.017 728.481 991.55C728.748 991.083 728.881 990.483 728.881 989.75V984.25H722.631C721.765 984.25 721.048 984.533 720.481 985.1C719.915 985.667 719.631 986.383 719.631 987.25V989.75C719.631 990.617 719.831 991.25 720.231 991.65C720.631 992.05 721.265 992.25 722.131 992.25H726.581ZM747.683 992.25V974.75H744.033V971H751.683V972.35C752.783 971.45 754.117 971 755.683 971H760.833V975H755.183C754.117 975 753.317 975.35 752.783 976.05C752.25 976.717 751.967 977.4 751.933 978.1V992.25H757.383V996H744.033V992.25H747.683ZM781.385 996C779.685 996 778.385 995.45 777.485 994.35C776.585 993.25 776.135 991.8 776.135 990V974.75H771.385V971H776.135V965H780.385V971H787.685V974.75H780.385V990.25C780.385 990.983 780.568 991.5 780.935 991.8C781.302 992.1 781.868 992.25 782.635 992.25H787.685V996H781.385ZM808.887 961V965.5H804.137V961H808.887ZM797.037 974.75V971H808.637V992.25H816.037V996H804.387V974.75H797.037ZM835.239 964.75C834.706 964.75 834.272 964.9 833.939 965.2C833.639 965.467 833.489 965.817 833.489 966.25V971H841.539V974.75H833.489V992.25H839.539V996H824.989V992.25H829.239V974.75H824.989V971H829.239V966.5C829.239 964.8 829.722 963.467 830.689 962.5C831.656 961.5 832.906 961 834.439 961H842.039V964.75H835.239ZM862.889 961V965.5H858.139V961H862.889ZM851.039 974.75V971H862.639V992.25H870.039V996H858.389V974.75H851.039ZM888.543 996C885.61 996 883.46 995.383 882.093 994.15C880.726 992.883 880.043 990.833 880.043 988V979C880.043 976.2 880.726 974.167 882.093 972.9C883.493 971.633 885.643 971 888.543 971H894.993V974.75H888.043C886.81 974.75 885.876 975.033 885.243 975.6C884.61 976.167 884.293 976.967 884.293 978V989C884.293 990.033 884.61 990.833 885.243 991.4C885.876 991.967 886.81 992.25 888.043 992.25H894.993V996H888.543ZM916.895 961V965.5H912.145V961H916.895ZM905.045 974.75V971H916.645V992.25H924.045V996H912.395V974.75H905.045ZM948.897 996C948.464 996 947.98 995.867 947.447 995.6C946.947 995.333 946.514 994.967 946.147 994.5C945.38 995.5 944.364 996 943.097 996H938.647C936.114 996 934.264 995.5 933.097 994.5C931.964 993.467 931.397 991.717 931.397 989.25V988.25C931.397 983.083 933.83 980.5 938.697 980.5H944.897V978C944.897 976.967 944.58 976.167 943.947 975.6C943.314 975.033 942.38 974.75 941.147 974.75H933.397V971H940.647C943.547 971 945.68 971.633 947.047 972.9C948.447 974.167 949.147 976.2 949.147 979V991C949.147 991.5 949.33 991.883 949.697 992.15C950.097 992.383 950.747 992.5 951.647 992.5V996H948.897ZM942.597 992.25C943.597 992.25 944.23 992.017 944.497 991.55C944.764 991.083 944.897 990.483 944.897 989.75V984.25H938.647C937.78 984.25 937.064 984.533 936.497 985.1C935.93 985.667 935.647 986.383 935.647 987.25V989.75C935.647 990.617 935.847 991.25 936.247 991.65C936.647 992.05 937.28 992.25 938.147 992.25H942.597ZM970.149 996C969.015 996 968.015 995.6 967.149 994.8C966.315 994 965.899 992.733 965.899 991V964.75H958.549V961H970.149V990.75C970.149 991.283 970.282 991.667 970.549 991.9C970.815 992.133 971.265 992.25 971.899 992.25H978.549V996H970.149ZM1032.4 997.75C1032.4 1000.02 1031.72 1001.7 1030.35 1002.8C1029.02 1003.93 1026.92 1004.5 1024.05 1004.5H1013.65V1000.75H1024.55C1025.75 1000.75 1026.65 1000.52 1027.25 1000.05C1027.85 999.583 1028.15 998.983 1028.15 998.25V996.65C1028.15 995.883 1027.85 995.283 1027.25 994.85C1026.65 994.383 1025.75 994.15 1024.55 994.15H1015.9V987.25C1014.8 986.65 1013.99 985.783 1013.45 984.65C1012.92 983.517 1012.65 982.05 1012.65 980.25V979C1012.65 976.2 1013.34 974.167 1014.7 972.9C1016.1 971.633 1018.25 971 1021.15 971H1031.65V980.25C1031.65 982.75 1030.97 984.717 1029.6 986.15C1028.24 987.55 1026.42 988.25 1024.15 988.25H1020.15V990.4H1024.05C1026.92 990.4 1029.02 990.967 1030.35 992.1C1031.72 993.2 1032.4 994.883 1032.4 997.15V997.75ZM1024.15 984.5C1025.19 984.5 1025.97 984.167 1026.5 983.5C1027.04 982.833 1027.34 982.133 1027.4 981.4V974.75H1020.65C1019.42 974.75 1018.49 975.033 1017.85 975.6C1017.22 976.167 1016.9 976.967 1016.9 978V981.25C1016.9 982.283 1017.22 983.083 1017.85 983.65C1018.49 984.217 1019.42 984.5 1020.65 984.5H1024.15ZM1049.25 996C1046.32 996 1044.17 995.383 1042.8 994.15C1041.44 992.883 1040.75 990.833 1040.75 988V979C1040.75 976.133 1041.37 974.083 1042.6 972.85C1043.84 971.617 1045.89 971 1048.75 971H1051.1C1053.47 971 1055.25 971.667 1056.45 973C1057.69 974.3 1058.3 976.217 1058.3 978.75V985.25H1045V989C1045 990.033 1045.32 990.833 1045.95 991.4C1046.59 991.967 1047.52 992.25 1048.75 992.25H1056.7V996H1049.25ZM1054.15 977.75C1054.15 976.883 1053.87 976.167 1053.3 975.6C1052.74 975.033 1052.02 974.75 1051.15 974.75H1048.25C1047.05 974.75 1046.2 975.033 1045.7 975.6C1045.24 976.133 1045 976.933 1045 978V981.5H1054.15V977.75ZM1071.71 992.25V974.75H1068.06V971H1075.71V972.35C1076.81 971.45 1078.14 971 1079.71 971H1084.86V975H1079.21C1078.14 975 1077.34 975.35 1076.81 976.05C1076.27 976.717 1075.99 977.4 1075.96 978.1V992.25H1081.41V996H1068.06V992.25H1071.71ZM1110.91 996C1110.48 996 1109.99 995.867 1109.46 995.6C1108.96 995.333 1108.53 994.967 1108.16 994.5C1107.39 995.5 1106.38 996 1105.11 996H1100.66C1098.13 996 1096.28 995.5 1095.11 994.5C1093.98 993.467 1093.41 991.717 1093.41 989.25V988.25C1093.41 983.083 1095.84 980.5 1100.71 980.5H1106.91V978C1106.91 976.967 1106.59 976.167 1105.96 975.6C1105.33 975.033 1104.39 974.75 1103.16 974.75H1095.41V971H1102.66C1105.56 971 1107.69 971.633 1109.06 972.9C1110.46 974.167 1111.16 976.2 1111.16 979V991C1111.16 991.5 1111.34 991.883 1111.71 992.15C1112.11 992.383 1112.76 992.5 1113.66 992.5V996H1110.91ZM1104.61 992.25C1105.61 992.25 1106.24 992.017 1106.51 991.55C1106.78 991.083 1106.91 990.483 1106.91 989.75V984.25H1100.66C1099.79 984.25 1099.08 984.533 1098.51 985.1C1097.94 985.667 1097.66 986.383 1097.66 987.25V989.75C1097.66 990.617 1097.86 991.25 1098.26 991.65C1098.66 992.05 1099.29 992.25 1100.16 992.25H1104.61ZM1132.41 996C1130.71 996 1129.41 995.45 1128.51 994.35C1127.61 993.25 1127.16 991.8 1127.16 990V974.75H1122.41V971H1127.16V965H1131.41V971H1138.71V974.75H1131.41V990.25C1131.41 990.983 1131.59 991.5 1131.96 991.8C1132.33 992.1 1132.89 992.25 1133.66 992.25H1138.71V996H1132.41ZM1159.91 961V965.5H1155.16V961H1159.91ZM1148.06 974.75V971H1159.66V992.25H1167.06V996H1155.41V974.75H1148.06ZM1174.26 971H1178.86L1184.71 992.55L1190.41 971H1194.86L1187.66 996H1181.51L1174.26 971ZM1218.92 996C1218.48 996 1218 995.867 1217.47 995.6C1216.97 995.333 1216.53 994.967 1216.17 994.5C1215.4 995.5 1214.38 996 1213.12 996H1208.67C1206.13 996 1204.28 995.5 1203.12 994.5C1201.98 993.467 1201.42 991.717 1201.42 989.25V988.25C1201.42 983.083 1203.85 980.5 1208.72 980.5H1214.92V978C1214.92 976.967 1214.6 976.167 1213.97 975.6C1213.33 975.033 1212.4 974.75 1211.17 974.75H1203.42V971H1210.67C1213.57 971 1215.7 971.633 1217.07 972.9C1218.47 974.167 1219.17 976.2 1219.17 979V991C1219.17 991.5 1219.35 991.883 1219.72 992.15C1220.12 992.383 1220.77 992.5 1221.67 992.5V996H1218.92ZM1212.62 992.25C1213.62 992.25 1214.25 992.017 1214.52 991.55C1214.78 991.083 1214.92 990.483 1214.92 989.75V984.25H1208.67C1207.8 984.25 1207.08 984.533 1206.52 985.1C1205.95 985.667 1205.67 986.383 1205.67 987.25V989.75C1205.67 990.617 1205.87 991.25 1206.27 991.65C1206.67 992.05 1207.3 992.25 1208.17 992.25H1212.62ZM1260.42 971V972.2C1261.45 971.4 1262.79 971 1264.42 971H1266.22C1269.15 971 1271.3 971.633 1272.67 972.9C1274.04 974.133 1274.72 976.167 1274.72 979V988C1274.72 990.8 1274.02 992.833 1272.62 994.1C1271.25 995.367 1269.12 996 1266.22 996H1260.67V1004.5H1256.42V971H1260.42ZM1263.92 974.75C1262.82 974.75 1262 975.05 1261.47 975.65C1260.94 976.217 1260.67 976.833 1260.67 977.5V992.25H1266.72C1267.95 992.25 1268.89 991.967 1269.52 991.4C1270.15 990.833 1270.47 990.033 1270.47 989V978C1270.47 976.967 1270.15 976.167 1269.52 975.6C1268.89 975.033 1267.95 974.75 1266.72 974.75H1263.92ZM1299.92 996C1299.49 996 1299.01 995.867 1298.47 995.6C1297.97 995.333 1297.54 994.967 1297.17 994.5C1296.41 995.5 1295.39 996 1294.12 996H1289.67C1287.14 996 1285.29 995.5 1284.12 994.5C1282.99 993.467 1282.42 991.717 1282.42 989.25V988.25C1282.42 983.083 1284.86 980.5 1289.72 980.5H1295.92V978C1295.92 976.967 1295.61 976.167 1294.97 975.6C1294.34 975.033 1293.41 974.75 1292.17 974.75H1284.42V971H1291.67C1294.57 971 1296.71 971.633 1298.07 972.9C1299.47 974.167 1300.17 976.2 1300.17 979V991C1300.17 991.5 1300.36 991.883 1300.72 992.15C1301.12 992.383 1301.77 992.5 1302.67 992.5V996H1299.92ZM1293.62 992.25C1294.62 992.25 1295.26 992.017 1295.52 991.55C1295.79 991.083 1295.92 990.483 1295.92 989.75V984.25H1289.67C1288.81 984.25 1288.09 984.533 1287.52 985.1C1286.96 985.667 1286.67 986.383 1286.67 987.25V989.75C1286.67 990.617 1286.87 991.25 1287.27 991.65C1287.67 992.05 1288.31 992.25 1289.17 992.25H1293.62ZM1314.72 992.25V974.75H1311.07V971H1318.72V972.35C1319.82 971.45 1321.16 971 1322.72 971H1327.87V975H1322.22C1321.16 975 1320.36 975.35 1319.82 976.05C1319.29 976.717 1319.01 977.4 1318.97 978.1V992.25H1324.42V996H1311.07V992.25H1314.72ZM1353.93 996C1353.49 996 1353.01 995.867 1352.48 995.6C1351.98 995.333 1351.54 994.967 1351.18 994.5C1350.41 995.5 1349.39 996 1348.13 996H1343.68C1341.14 996 1339.29 995.5 1338.13 994.5C1336.99 993.467 1336.43 991.717 1336.43 989.25V988.25C1336.43 983.083 1338.86 980.5 1343.73 980.5H1349.93V978C1349.93 976.967 1349.61 976.167 1348.98 975.6C1348.34 975.033 1347.41 974.75 1346.18 974.75H1338.43V971H1345.68C1348.58 971 1350.71 971.633 1352.08 972.9C1353.48 974.167 1354.18 976.2 1354.18 979V991C1354.18 991.5 1354.36 991.883 1354.73 992.15C1355.13 992.383 1355.78 992.5 1356.68 992.5V996H1353.93ZM1347.63 992.25C1348.63 992.25 1349.26 992.017 1349.53 991.55C1349.79 991.083 1349.93 990.483 1349.93 989.75V984.25H1343.68C1342.81 984.25 1342.09 984.533 1341.53 985.1C1340.96 985.667 1340.68 986.383 1340.68 987.25V989.75C1340.68 990.617 1340.88 991.25 1341.28 991.65C1341.68 992.05 1342.31 992.25 1343.18 992.25H1347.63ZM1409.73 988C1409.73 990.8 1409.03 992.833 1407.63 994.1C1406.26 995.367 1404.13 996 1401.23 996H1391.43V961H1395.68V972C1396.68 971.333 1397.93 971 1399.43 971H1401.23C1404.16 971 1406.31 971.633 1407.68 972.9C1409.05 974.133 1409.73 976.167 1409.73 979V988ZM1398.93 974.75C1397.83 974.75 1397.01 975.05 1396.48 975.65C1395.95 976.217 1395.68 976.833 1395.68 977.5V992.25H1401.73C1402.96 992.25 1403.9 991.967 1404.53 991.4C1405.16 990.833 1405.48 990.033 1405.48 989V978C1405.48 976.967 1405.16 976.167 1404.53 975.6C1403.9 975.033 1402.96 974.75 1401.73 974.75H1398.93ZM1432.43 994.85C1431.33 995.617 1430 996 1428.43 996H1426.73C1424.03 996 1422.02 995.367 1420.68 994.1C1419.38 992.833 1418.73 990.8 1418.73 988V971H1422.98V989C1422.98 990 1423.27 990.8 1423.83 991.4C1424.43 991.967 1425.23 992.25 1426.23 992.25H1428.93C1430 992.25 1430.78 991.983 1431.28 991.45C1431.82 990.917 1432.12 990.317 1432.18 989.65V971H1436.43V996H1432.43V994.85ZM1462.18 989.75C1462.18 991.85 1461.53 993.417 1460.23 994.45C1458.97 995.483 1457.12 996 1454.68 996H1447.23V992.25H1455.18C1456.08 992.25 1456.77 992.067 1457.23 991.7C1457.7 991.3 1457.93 990.733 1457.93 990V987.35C1457.93 985.85 1457.22 985.1 1455.78 985.1H1453.93C1451.6 985.1 1449.85 984.6 1448.68 983.6C1447.55 982.567 1446.98 980.95 1446.98 978.75V977.3C1446.98 975.067 1447.62 973.467 1448.88 972.5C1450.15 971.5 1452.02 971 1454.48 971H1461.18V974.75H1453.98C1453.15 974.75 1452.48 974.95 1451.98 975.35C1451.48 975.717 1451.23 976.267 1451.23 977V978.8C1451.23 979.567 1451.45 980.133 1451.88 980.5C1452.35 980.867 1452.93 981.05 1453.63 981.05H1455.33C1457.57 981.05 1459.27 981.6 1460.43 982.7C1461.6 983.767 1462.18 985.367 1462.18 987.5V989.75ZM1482.59 996C1479.65 996 1477.5 995.383 1476.14 994.15C1474.77 992.883 1474.09 990.833 1474.09 988V979C1474.09 976.2 1474.77 974.167 1476.14 972.9C1477.54 971.633 1479.69 971 1482.59 971H1489.04V974.75H1482.09C1480.85 974.75 1479.92 975.033 1479.29 975.6C1478.65 976.167 1478.34 976.967 1478.34 978V989C1478.34 990.033 1478.65 990.833 1479.29 991.4C1479.92 991.967 1480.85 992.25 1482.09 992.25H1489.04V996H1482.59ZM1515.94 996C1515.5 996 1515.02 995.867 1514.49 995.6C1513.99 995.333 1513.55 994.967 1513.19 994.5C1512.42 995.5 1511.4 996 1510.14 996H1505.69C1503.15 996 1501.3 995.5 1500.14 994.5C1499 993.467 1498.44 991.717 1498.44 989.25V988.25C1498.44 983.083 1500.87 980.5 1505.74 980.5H1511.94V978C1511.94 976.967 1511.62 976.167 1510.99 975.6C1510.35 975.033 1509.42 974.75 1508.19 974.75H1500.44V971H1507.69C1510.59 971 1512.72 971.633 1514.09 972.9C1515.49 974.167 1516.19 976.2 1516.19 979V991C1516.19 991.5 1516.37 991.883 1516.74 992.15C1517.14 992.383 1517.79 992.5 1518.69 992.5V996H1515.94ZM1509.64 992.25C1510.64 992.25 1511.27 992.017 1511.54 991.55C1511.8 991.083 1511.94 990.483 1511.94 989.75V984.25H1505.69C1504.82 984.25 1504.1 984.533 1503.54 985.1C1502.97 985.667 1502.69 986.383 1502.69 987.25V989.75C1502.69 990.617 1502.89 991.25 1503.29 991.65C1503.69 992.05 1504.32 992.25 1505.19 992.25H1509.64ZM1562.29 996C1559.36 996 1557.21 995.383 1555.84 994.15C1554.48 992.883 1553.79 990.833 1553.79 988V979C1553.79 976.133 1554.41 974.083 1555.64 972.85C1556.88 971.617 1558.93 971 1561.79 971H1564.14C1566.51 971 1568.29 971.667 1569.49 973C1570.73 974.3 1571.34 976.217 1571.34 978.75V985.25H1558.04V989C1558.04 990.033 1558.36 990.833 1558.99 991.4C1559.63 991.967 1560.56 992.25 1561.79 992.25H1569.74V996H1562.29ZM1567.19 977.75C1567.19 976.883 1566.91 976.167 1566.34 975.6C1565.78 975.033 1565.06 974.75 1564.19 974.75H1561.29C1560.09 974.75 1559.24 975.033 1558.74 975.6C1558.28 976.133 1558.04 976.933 1558.04 978V981.5H1567.19V977.75ZM295.85 1021V1025.5H291.1V1021H295.85ZM284 1034.75V1031H295.6V1052.25H303V1056H291.35V1034.75H284ZM325.752 1054.85C324.652 1055.62 323.319 1056 321.752 1056H319.702C316.769 1056 314.619 1055.38 313.252 1054.15C311.885 1052.88 311.202 1050.83 311.202 1048V1039C311.202 1036.2 311.885 1034.17 313.252 1032.9C314.652 1031.63 316.802 1031 319.702 1031H325.502V1021H329.752V1056H325.752V1054.85ZM322.252 1052.25C323.352 1052.25 324.169 1051.97 324.702 1051.4C325.235 1050.8 325.502 1050.17 325.502 1049.5V1034.75H319.202C317.969 1034.75 317.035 1035.03 316.402 1035.6C315.769 1036.17 315.452 1036.97 315.452 1038V1049C315.452 1050.03 315.769 1050.83 316.402 1051.4C317.035 1051.97 317.969 1052.25 319.202 1052.25H322.252ZM347.204 1056C344.271 1056 342.121 1055.38 340.754 1054.15C339.387 1052.88 338.704 1050.83 338.704 1048V1039C338.704 1036.13 339.321 1034.08 340.554 1032.85C341.787 1031.62 343.837 1031 346.704 1031H349.054C351.421 1031 353.204 1031.67 354.404 1033C355.637 1034.3 356.254 1036.22 356.254 1038.75V1045.25H342.954V1049C342.954 1050.03 343.271 1050.83 343.904 1051.4C344.537 1051.97 345.471 1052.25 346.704 1052.25H354.654V1056H347.204ZM352.104 1037.75C352.104 1036.88 351.821 1036.17 351.254 1035.6C350.687 1035.03 349.971 1034.75 349.104 1034.75H346.204C345.004 1034.75 344.154 1035.03 343.654 1035.6C343.187 1036.13 342.954 1036.93 342.954 1038V1041.5H352.104V1037.75ZM369.356 1031V1032.2C370.389 1031.4 371.723 1031 373.356 1031H375.656C378.356 1031 380.356 1031.63 381.656 1032.9C382.989 1034.17 383.656 1036.2 383.656 1039V1056H379.406V1038C379.406 1037 379.106 1036.22 378.506 1035.65C377.939 1035.05 377.156 1034.75 376.156 1034.75H372.856C371.756 1034.75 370.939 1035.05 370.406 1035.65C369.873 1036.22 369.606 1036.83 369.606 1037.5V1056H365.356V1031H369.356ZM403.358 1056C401.658 1056 400.358 1055.45 399.458 1054.35C398.558 1053.25 398.108 1051.8 398.108 1050V1034.75H393.358V1031H398.108V1025H402.358V1031H409.658V1034.75H402.358V1050.25C402.358 1050.98 402.541 1051.5 402.908 1051.8C403.274 1052.1 403.841 1052.25 404.608 1052.25H409.658V1056H403.358ZM430.86 1021V1025.5H426.11V1021H430.86ZM419.01 1034.75V1031H430.61V1052.25H438.01V1056H426.36V1034.75H419.01ZM457.212 1024.75C456.678 1024.75 456.245 1024.9 455.912 1025.2C455.612 1025.47 455.462 1025.82 455.462 1026.25V1031H463.512V1034.75H455.462V1052.25H461.512V1056H446.962V1052.25H451.212V1034.75H446.962V1031H451.212V1026.5C451.212 1024.8 451.695 1023.47 452.662 1022.5C453.628 1021.5 454.878 1021 456.412 1021H464.012V1024.75H457.212ZM484.862 1021V1025.5H480.112V1021H484.862ZM473.012 1034.75V1031H484.612V1052.25H492.012V1056H480.362V1034.75H473.012ZM510.516 1056C507.582 1056 505.432 1055.38 504.066 1054.15C502.699 1052.88 502.016 1050.83 502.016 1048V1039C502.016 1036.2 502.699 1034.17 504.066 1032.9C505.466 1031.63 507.616 1031 510.516 1031H516.966V1034.75H510.016C508.782 1034.75 507.849 1035.03 507.216 1035.6C506.582 1036.17 506.266 1036.97 506.266 1038V1049C506.266 1050.03 506.582 1050.83 507.216 1051.4C507.849 1051.97 508.782 1052.25 510.016 1052.25H516.966V1056H510.516ZM543.868 1056C543.434 1056 542.951 1055.87 542.418 1055.6C541.918 1055.33 541.484 1054.97 541.118 1054.5C540.351 1055.5 539.334 1056 538.068 1056H533.618C531.084 1056 529.234 1055.5 528.068 1054.5C526.934 1053.47 526.368 1051.72 526.368 1049.25V1048.25C526.368 1043.08 528.801 1040.5 533.668 1040.5H539.868V1038C539.868 1036.97 539.551 1036.17 538.918 1035.6C538.284 1035.03 537.351 1034.75 536.118 1034.75H528.368V1031H535.618C538.518 1031 540.651 1031.63 542.018 1032.9C543.418 1034.17 544.118 1036.2 544.118 1039V1051C544.118 1051.5 544.301 1051.88 544.668 1052.15C545.068 1052.38 545.718 1052.5 546.618 1052.5V1056H543.868ZM537.568 1052.25C538.568 1052.25 539.201 1052.02 539.468 1051.55C539.734 1051.08 539.868 1050.48 539.868 1049.75V1044.25H533.618C532.751 1044.25 532.034 1044.53 531.468 1045.1C530.901 1045.67 530.618 1046.38 530.618 1047.25V1049.75C530.618 1050.62 530.818 1051.25 531.218 1051.65C531.618 1052.05 532.251 1052.25 533.118 1052.25H537.568ZM564.67 1062.8C565.77 1062.8 566.32 1062.28 566.32 1061.25C566.32 1060.68 566.17 1060.3 565.87 1060.1C565.603 1059.9 565.17 1059.8 564.57 1059.8H562.12V1055.85C560.053 1055.55 558.52 1054.78 557.52 1053.55C556.52 1052.28 556.02 1050.43 556.02 1048V1039C556.02 1036.2 556.703 1034.17 558.07 1032.9C559.47 1031.63 561.62 1031 564.52 1031H570.97V1034.75H564.02C562.786 1034.75 561.853 1035.03 561.22 1035.6C560.586 1036.17 560.27 1036.97 560.27 1038V1049C560.27 1050.03 560.586 1050.83 561.22 1051.4C561.853 1051.97 562.786 1052.25 564.02 1052.25H570.97V1056H565.62V1057.05C567.153 1057.05 568.253 1057.33 568.92 1057.9C569.62 1058.5 569.97 1059.62 569.97 1061.25C569.97 1063.18 569.536 1064.45 568.67 1065.05C567.836 1065.68 566.803 1066 565.57 1066H561.32V1062.8H564.67ZM582.321 1022.65C582.621 1022.48 583.238 1022.17 584.171 1021.7C585.105 1021.23 585.771 1021 586.171 1021H586.921C587.188 1021 587.588 1021.1 588.121 1021.3C588.655 1021.5 589.205 1021.73 589.771 1022C591.171 1022.67 592.071 1023 592.471 1023H592.971C593.238 1023 593.788 1022.75 594.621 1022.25C595.455 1021.75 596.021 1021.4 596.321 1021.2V1024.8C596.055 1024.97 595.505 1025.28 594.671 1025.75C593.871 1026.22 593.288 1026.45 592.921 1026.45H592.171C592.005 1026.45 591.255 1026.17 589.921 1025.6C588.188 1024.83 587.105 1024.45 586.671 1024.45H586.171C585.871 1024.45 585.238 1024.7 584.271 1025.2C583.305 1025.7 582.655 1026.05 582.321 1026.25V1022.65ZM597.871 1056C597.438 1056 596.955 1055.87 596.421 1055.6C595.921 1055.33 595.488 1054.97 595.121 1054.5C594.355 1055.5 593.338 1056 592.071 1056H587.621C585.088 1056 583.238 1055.5 582.071 1054.5C580.938 1053.47 580.371 1051.72 580.371 1049.25V1048.25C580.371 1043.08 582.805 1040.5 587.671 1040.5H593.871V1038C593.871 1036.97 593.555 1036.17 592.921 1035.6C592.288 1035.03 591.355 1034.75 590.121 1034.75H582.371V1031H589.621C592.521 1031 594.655 1031.63 596.021 1032.9C597.421 1034.17 598.121 1036.2 598.121 1039V1051C598.121 1051.5 598.305 1051.88 598.671 1052.15C599.071 1052.38 599.721 1052.5 600.621 1052.5V1056H597.871ZM591.571 1052.25C592.571 1052.25 593.205 1052.02 593.471 1051.55C593.738 1051.08 593.871 1050.48 593.871 1049.75V1044.25H587.621C586.755 1044.25 586.038 1044.53 585.471 1045.1C584.905 1045.67 584.621 1046.38 584.621 1047.25V1049.75C584.621 1050.62 584.821 1051.25 585.221 1051.65C585.621 1052.05 586.255 1052.25 587.121 1052.25H591.571ZM626.823 1048C626.823 1050.8 626.123 1052.83 624.723 1054.1C623.357 1055.37 621.223 1056 618.323 1056H616.673C613.773 1056 611.623 1055.37 610.223 1054.1C608.857 1052.83 608.173 1050.8 608.173 1048V1039C608.173 1036.2 608.857 1034.17 610.223 1032.9C611.623 1031.63 613.773 1031 616.673 1031H618.323C621.223 1031 623.357 1031.63 624.723 1032.9C626.123 1034.17 626.823 1036.2 626.823 1039V1048ZM622.573 1038C622.573 1036.97 622.257 1036.17 621.623 1035.6C620.99 1035.03 620.057 1034.75 618.823 1034.75H616.173C614.94 1034.75 614.007 1035.03 613.373 1035.6C612.74 1036.17 612.423 1036.97 612.423 1038V1049C612.423 1050.03 612.74 1050.83 613.373 1051.4C614.007 1051.97 614.94 1052.25 616.173 1052.25H618.823C620.057 1052.25 620.99 1051.97 621.623 1051.4C622.257 1050.83 622.573 1050.03 622.573 1049V1038ZM676.777 1054.85C675.677 1055.62 674.344 1056 672.777 1056H670.727C667.794 1056 665.644 1055.38 664.277 1054.15C662.911 1052.88 662.227 1050.83 662.227 1048V1039C662.227 1036.2 662.911 1034.17 664.277 1032.9C665.677 1031.63 667.827 1031 670.727 1031H676.527V1021H680.777V1056H676.777V1054.85ZM673.277 1052.25C674.377 1052.25 675.194 1051.97 675.727 1051.4C676.261 1050.8 676.527 1050.17 676.527 1049.5V1034.75H670.227C668.994 1034.75 668.061 1035.03 667.427 1035.6C666.794 1036.17 666.477 1036.97 666.477 1038V1049C666.477 1050.03 666.794 1050.83 667.427 1051.4C668.061 1051.97 668.994 1052.25 670.227 1052.25H673.277ZM698.229 1056C695.296 1056 693.146 1055.38 691.779 1054.15C690.413 1052.88 689.729 1050.83 689.729 1048V1039C689.729 1036.13 690.346 1034.08 691.579 1032.85C692.813 1031.62 694.863 1031 697.729 1031H700.079C702.446 1031 704.229 1031.67 705.429 1033C706.663 1034.3 707.279 1036.22 707.279 1038.75V1045.25H693.979V1049C693.979 1050.03 694.296 1050.83 694.929 1051.4C695.563 1051.97 696.496 1052.25 697.729 1052.25H705.679V1056H698.229ZM703.129 1037.75C703.129 1036.88 702.846 1036.17 702.279 1035.6C701.713 1035.03 700.996 1034.75 700.129 1034.75H697.229C696.029 1034.75 695.179 1035.03 694.679 1035.6C694.213 1036.13 693.979 1036.93 693.979 1038V1041.5H703.129V1037.75ZM759.883 1056C759.45 1056 758.967 1055.87 758.433 1055.6C757.933 1055.33 757.5 1054.97 757.133 1054.5C756.367 1055.5 755.35 1056 754.083 1056H749.633C747.1 1056 745.25 1055.5 744.083 1054.5C742.95 1053.47 742.383 1051.72 742.383 1049.25V1048.25C742.383 1043.08 744.817 1040.5 749.683 1040.5H755.883V1038C755.883 1036.97 755.567 1036.17 754.933 1035.6C754.3 1035.03 753.367 1034.75 752.133 1034.75H744.383V1031H751.633C754.533 1031 756.667 1031.63 758.033 1032.9C759.433 1034.17 760.133 1036.2 760.133 1039V1051C760.133 1051.5 760.317 1051.88 760.683 1052.15C761.083 1052.38 761.733 1052.5 762.633 1052.5V1056H759.883ZM753.583 1052.25C754.583 1052.25 755.217 1052.02 755.483 1051.55C755.75 1051.08 755.883 1050.48 755.883 1049.75V1044.25H749.633C748.767 1044.25 748.05 1044.53 747.483 1045.1C746.917 1045.67 746.633 1046.38 746.633 1047.25V1049.75C746.633 1050.62 746.833 1051.25 747.233 1051.65C747.633 1052.05 748.267 1052.25 749.133 1052.25H753.583ZM784.385 1054.85C783.285 1055.62 781.952 1056 780.385 1056H778.685C775.985 1056 773.968 1055.37 772.635 1054.1C771.335 1052.83 770.685 1050.8 770.685 1048V1031H774.935V1049C774.935 1050 775.218 1050.8 775.785 1051.4C776.385 1051.97 777.185 1052.25 778.185 1052.25H780.885C781.952 1052.25 782.735 1051.98 783.235 1051.45C783.768 1050.92 784.068 1050.32 784.135 1049.65V1031H788.385V1056H784.385V1054.85ZM808.387 1056C806.687 1056 805.387 1055.45 804.487 1054.35C803.587 1053.25 803.137 1051.8 803.137 1050V1034.75H798.387V1031H803.137V1025H807.387V1031H814.687V1034.75H807.387V1050.25C807.387 1050.98 807.57 1051.5 807.937 1051.8C808.304 1052.1 808.87 1052.25 809.637 1052.25H814.687V1056H808.387ZM842.839 1048C842.839 1050.8 842.139 1052.83 840.739 1054.1C839.372 1055.37 837.239 1056 834.339 1056H832.689C829.789 1056 827.639 1055.37 826.239 1054.1C824.872 1052.83 824.189 1050.8 824.189 1048V1039C824.189 1036.2 824.872 1034.17 826.239 1032.9C827.639 1031.63 829.789 1031 832.689 1031H834.339C837.239 1031 839.372 1031.63 840.739 1032.9C842.139 1034.17 842.839 1036.2 842.839 1039V1048ZM838.589 1038C838.589 1036.97 838.272 1036.17 837.639 1035.6C837.006 1035.03 836.072 1034.75 834.839 1034.75H832.189C830.956 1034.75 830.022 1035.03 829.389 1035.6C828.756 1036.17 828.439 1036.97 828.439 1038V1049C828.439 1050.03 828.756 1050.83 829.389 1051.4C830.022 1051.97 830.956 1052.25 832.189 1052.25H834.839C836.072 1052.25 837.006 1051.97 837.639 1051.4C838.272 1050.83 838.589 1050.03 838.589 1049V1038ZM855.691 1052.25V1034.75H852.041V1031H859.691V1032.35C860.791 1031.45 862.124 1031 863.691 1031H868.841V1035H863.191C862.124 1035 861.324 1035.35 860.791 1036.05C860.258 1036.72 859.974 1037.4 859.941 1038.1V1052.25H865.391V1056H852.041V1052.25H855.691ZM887.243 1056C884.31 1056 882.16 1055.38 880.793 1054.15C879.426 1052.88 878.743 1050.83 878.743 1048V1039C878.743 1036.13 879.36 1034.08 880.593 1032.85C881.826 1031.62 883.876 1031 886.743 1031H889.093C891.46 1031 893.243 1031.67 894.443 1033C895.676 1034.3 896.293 1036.22 896.293 1038.75V1045.25H882.993V1049C882.993 1050.03 883.31 1050.83 883.943 1051.4C884.576 1051.97 885.51 1052.25 886.743 1052.25H894.693V1056H887.243ZM892.143 1037.75C892.143 1036.88 891.86 1036.17 891.293 1035.6C890.726 1035.03 890.01 1034.75 889.143 1034.75H886.243C885.043 1034.75 884.193 1035.03 883.693 1035.6C883.226 1036.13 882.993 1036.93 882.993 1038V1041.5H892.143V1037.75ZM922.145 1049.75C922.145 1051.85 921.495 1053.42 920.195 1054.45C918.928 1055.48 917.078 1056 914.645 1056H907.195V1052.25H915.145C916.045 1052.25 916.728 1052.07 917.195 1051.7C917.662 1051.3 917.895 1050.73 917.895 1050V1047.35C917.895 1045.85 917.178 1045.1 915.745 1045.1H913.895C911.562 1045.1 909.812 1044.6 908.645 1043.6C907.512 1042.57 906.945 1040.95 906.945 1038.75V1037.3C906.945 1035.07 907.578 1033.47 908.845 1032.5C910.112 1031.5 911.978 1031 914.445 1031H921.145V1034.75H913.945C913.112 1034.75 912.445 1034.95 911.945 1035.35C911.445 1035.72 911.195 1036.27 911.195 1037V1038.8C911.195 1039.57 911.412 1040.13 911.845 1040.5C912.312 1040.87 912.895 1041.05 913.595 1041.05H915.295C917.528 1041.05 919.228 1041.6 920.395 1042.7C921.562 1043.77 922.145 1045.37 922.145 1047.5V1049.75ZM963.699 1052.25V1034.75H960.049V1031H967.699V1032.35C968.799 1031.45 970.132 1031 971.699 1031H976.849V1035H971.199C970.132 1035 969.332 1035.35 968.799 1036.05C968.265 1036.72 967.982 1037.4 967.949 1038.1V1052.25H973.399V1056H960.049V1052.25H963.699ZM995.251 1056C992.317 1056 990.167 1055.38 988.801 1054.15C987.434 1052.88 986.751 1050.83 986.751 1048V1039C986.751 1036.13 987.367 1034.08 988.601 1032.85C989.834 1031.62 991.884 1031 994.751 1031H997.101C999.467 1031 1001.25 1031.67 1002.45 1033C1003.68 1034.3 1004.3 1036.22 1004.3 1038.75V1045.25H991.001V1049C991.001 1050.03 991.317 1050.83 991.951 1051.4C992.584 1051.97 993.517 1052.25 994.751 1052.25H1002.7V1056H995.251ZM1000.15 1037.75C1000.15 1036.88 999.867 1036.17 999.301 1035.6C998.734 1035.03 998.017 1034.75 997.151 1034.75H994.251C993.051 1034.75 992.201 1035.03 991.701 1035.6C991.234 1036.13 991.001 1036.93 991.001 1038V1041.5H1000.15V1037.75ZM1024.15 1056C1023.02 1056 1022.02 1055.6 1021.15 1054.8C1020.32 1054 1019.9 1052.73 1019.9 1051V1024.75H1012.55V1021H1024.15V1050.75C1024.15 1051.28 1024.29 1051.67 1024.55 1051.9C1024.82 1052.13 1025.27 1052.25 1025.9 1052.25H1032.55V1056H1024.15ZM1049.25 1056C1046.32 1056 1044.17 1055.38 1042.8 1054.15C1041.44 1052.88 1040.75 1050.83 1040.75 1048V1039C1040.75 1036.13 1041.37 1034.08 1042.6 1032.85C1043.84 1031.62 1045.89 1031 1048.75 1031H1051.1C1053.47 1031 1055.25 1031.67 1056.45 1033C1057.69 1034.3 1058.3 1036.22 1058.3 1038.75V1045.25H1045V1049C1045 1050.03 1045.32 1050.83 1045.95 1051.4C1046.59 1051.97 1047.52 1052.25 1048.75 1052.25H1056.7V1056H1049.25ZM1054.15 1037.75C1054.15 1036.88 1053.87 1036.17 1053.3 1035.6C1052.74 1035.03 1052.02 1034.75 1051.15 1034.75H1048.25C1047.05 1034.75 1046.2 1035.03 1045.7 1035.6C1045.24 1036.13 1045 1036.93 1045 1038V1041.5H1054.15V1037.75ZM1066.26 1031H1070.86L1076.71 1052.55L1082.41 1031H1086.86L1079.66 1056H1073.51L1066.26 1031ZM1110.91 1056C1110.48 1056 1109.99 1055.87 1109.46 1055.6C1108.96 1055.33 1108.53 1054.97 1108.16 1054.5C1107.39 1055.5 1106.38 1056 1105.11 1056H1100.66C1098.13 1056 1096.28 1055.5 1095.11 1054.5C1093.98 1053.47 1093.41 1051.72 1093.41 1049.25V1048.25C1093.41 1043.08 1095.84 1040.5 1100.71 1040.5H1106.91V1038C1106.91 1036.97 1106.59 1036.17 1105.96 1035.6C1105.33 1035.03 1104.39 1034.75 1103.16 1034.75H1095.41V1031H1102.66C1105.56 1031 1107.69 1031.63 1109.06 1032.9C1110.46 1034.17 1111.16 1036.2 1111.16 1039V1051C1111.16 1051.5 1111.34 1051.88 1111.71 1052.15C1112.11 1052.38 1112.76 1052.5 1113.66 1052.5V1056H1110.91ZM1104.61 1052.25C1105.61 1052.25 1106.24 1052.02 1106.51 1051.55C1106.78 1051.08 1106.91 1050.48 1106.91 1049.75V1044.25H1100.66C1099.79 1044.25 1099.08 1044.53 1098.51 1045.1C1097.94 1045.67 1097.66 1046.38 1097.66 1047.25V1049.75C1097.66 1050.62 1097.86 1051.25 1098.26 1051.65C1098.66 1052.05 1099.29 1052.25 1100.16 1052.25H1104.61ZM1125.41 1031V1032.2C1126.44 1031.4 1127.78 1031 1129.41 1031H1131.71C1134.41 1031 1136.41 1031.63 1137.71 1032.9C1139.04 1034.17 1139.71 1036.2 1139.71 1039V1056H1135.46V1038C1135.46 1037 1135.16 1036.22 1134.56 1035.65C1133.99 1035.05 1133.21 1034.75 1132.21 1034.75H1128.91C1127.81 1034.75 1126.99 1035.05 1126.46 1035.65C1125.93 1036.22 1125.66 1036.83 1125.66 1037.5V1056H1121.41V1031H1125.41ZM1159.41 1056C1157.71 1056 1156.41 1055.45 1155.51 1054.35C1154.61 1053.25 1154.16 1051.8 1154.16 1050V1034.75H1149.41V1031H1154.16V1025H1158.41V1031H1165.71V1034.75H1158.41V1050.25C1158.41 1050.98 1158.6 1051.5 1158.96 1051.8C1159.33 1052.1 1159.9 1052.25 1160.66 1052.25H1165.71V1056H1159.41ZM1184.26 1056C1181.33 1056 1179.18 1055.38 1177.81 1054.15C1176.45 1052.88 1175.76 1050.83 1175.76 1048V1039C1175.76 1036.13 1176.38 1034.08 1177.61 1032.85C1178.85 1031.62 1180.9 1031 1183.76 1031H1186.11C1188.48 1031 1190.26 1031.67 1191.46 1033C1192.7 1034.3 1193.31 1036.22 1193.31 1038.75V1045.25H1180.01V1049C1180.01 1050.03 1180.33 1050.83 1180.96 1051.4C1181.6 1051.97 1182.53 1052.25 1183.76 1052.25H1191.71V1056H1184.26ZM1189.16 1037.75C1189.16 1036.88 1188.88 1036.17 1188.31 1035.6C1187.75 1035.03 1187.03 1034.75 1186.16 1034.75H1183.26C1182.06 1034.75 1181.21 1035.03 1180.71 1035.6C1180.25 1036.13 1180.01 1036.93 1180.01 1038V1041.5H1189.16V1037.75ZM1219.17 1049.75C1219.17 1051.85 1218.52 1053.42 1217.22 1054.45C1215.95 1055.48 1214.1 1056 1211.67 1056H1204.22V1052.25H1212.17C1213.07 1052.25 1213.75 1052.07 1214.22 1051.7C1214.68 1051.3 1214.92 1050.73 1214.92 1050V1047.35C1214.92 1045.85 1214.2 1045.1 1212.77 1045.1H1210.92C1208.58 1045.1 1206.83 1044.6 1205.67 1043.6C1204.53 1042.57 1203.97 1040.95 1203.97 1038.75V1037.3C1203.97 1035.07 1204.6 1033.47 1205.87 1032.5C1207.13 1031.5 1209 1031 1211.47 1031H1218.17V1034.75H1210.97C1210.13 1034.75 1209.47 1034.95 1208.97 1035.35C1208.47 1035.72 1208.22 1036.27 1208.22 1037V1038.8C1208.22 1039.57 1208.43 1040.13 1208.87 1040.5C1209.33 1040.87 1209.92 1041.05 1210.62 1041.05H1212.32C1214.55 1041.05 1216.25 1041.6 1217.42 1042.7C1218.58 1043.77 1219.17 1045.37 1219.17 1047.5V1049.75ZM1272.92 1056C1272.49 1056 1272 1055.87 1271.47 1055.6C1270.97 1055.33 1270.54 1054.97 1270.17 1054.5C1269.4 1055.5 1268.39 1056 1267.12 1056H1262.67C1260.14 1056 1258.29 1055.5 1257.12 1054.5C1255.99 1053.47 1255.42 1051.72 1255.42 1049.25V1048.25C1255.42 1043.08 1257.85 1040.5 1262.72 1040.5H1268.92V1038C1268.92 1036.97 1268.6 1036.17 1267.97 1035.6C1267.34 1035.03 1266.4 1034.75 1265.17 1034.75H1257.42V1031H1264.67C1267.57 1031 1269.7 1031.63 1271.07 1032.9C1272.47 1034.17 1273.17 1036.2 1273.17 1039V1051C1273.17 1051.5 1273.35 1051.88 1273.72 1052.15C1274.12 1052.38 1274.77 1052.5 1275.67 1052.5V1056H1272.92ZM1266.62 1052.25C1267.62 1052.25 1268.25 1052.02 1268.52 1051.55C1268.79 1051.08 1268.92 1050.48 1268.92 1049.75V1044.25H1262.67C1261.8 1044.25 1261.09 1044.53 1260.52 1045.1C1259.95 1045.67 1259.67 1046.38 1259.67 1047.25V1049.75C1259.67 1050.62 1259.87 1051.25 1260.27 1051.65C1260.67 1052.05 1261.3 1052.25 1262.17 1052.25H1266.62ZM1301.87 1048C1301.87 1050.8 1301.17 1052.83 1299.77 1054.1C1298.41 1055.37 1296.27 1056 1293.37 1056H1291.72C1288.82 1056 1286.67 1055.37 1285.27 1054.1C1283.91 1052.83 1283.22 1050.8 1283.22 1048V1039C1283.22 1036.2 1283.91 1034.17 1285.27 1032.9C1286.67 1031.63 1288.82 1031 1291.72 1031H1293.37C1296.27 1031 1298.41 1031.63 1299.77 1032.9C1301.17 1034.17 1301.87 1036.2 1301.87 1039V1048ZM1297.62 1038C1297.62 1036.97 1297.31 1036.17 1296.67 1035.6C1296.04 1035.03 1295.11 1034.75 1293.87 1034.75H1291.22C1289.99 1034.75 1289.06 1035.03 1288.42 1035.6C1287.79 1036.17 1287.47 1036.97 1287.47 1038V1049C1287.47 1050.03 1287.79 1050.83 1288.42 1051.4C1289.06 1051.97 1289.99 1052.25 1291.22 1052.25H1293.87C1295.11 1052.25 1296.04 1051.97 1296.67 1051.4C1297.31 1050.83 1297.62 1050.03 1297.62 1049V1038ZM1327.17 1049.75C1327.17 1051.85 1326.52 1053.42 1325.22 1054.45C1323.96 1055.48 1322.11 1056 1319.67 1056H1312.22V1052.25H1320.17C1321.07 1052.25 1321.76 1052.07 1322.22 1051.7C1322.69 1051.3 1322.92 1050.73 1322.92 1050V1047.35C1322.92 1045.85 1322.21 1045.1 1320.77 1045.1H1318.92C1316.59 1045.1 1314.84 1044.6 1313.67 1043.6C1312.54 1042.57 1311.97 1040.95 1311.97 1038.75V1037.3C1311.97 1035.07 1312.61 1033.47 1313.87 1032.5C1315.14 1031.5 1317.01 1031 1319.47 1031H1326.17V1034.75H1318.97C1318.14 1034.75 1317.47 1034.95 1316.97 1035.35C1316.47 1035.72 1316.22 1036.27 1316.22 1037V1038.8C1316.22 1039.57 1316.44 1040.13 1316.87 1040.5C1317.34 1040.87 1317.92 1041.05 1318.62 1041.05H1320.32C1322.56 1041.05 1324.26 1041.6 1325.42 1042.7C1326.59 1043.77 1327.17 1045.37 1327.17 1047.5V1049.75ZM1378.83 1054.85C1377.73 1055.62 1376.39 1056 1374.83 1056H1372.78C1369.84 1056 1367.69 1055.38 1366.33 1054.15C1364.96 1052.88 1364.28 1050.83 1364.28 1048V1039C1364.28 1036.2 1364.96 1034.17 1366.33 1032.9C1367.73 1031.63 1369.88 1031 1372.78 1031H1378.58V1021H1382.83V1056H1378.83V1054.85ZM1375.33 1052.25C1376.43 1052.25 1377.24 1051.97 1377.78 1051.4C1378.31 1050.8 1378.58 1050.17 1378.58 1049.5V1034.75H1372.28C1371.04 1034.75 1370.11 1035.03 1369.48 1035.6C1368.84 1036.17 1368.53 1036.97 1368.53 1038V1049C1368.53 1050.03 1368.84 1050.83 1369.48 1051.4C1370.11 1051.97 1371.04 1052.25 1372.28 1052.25H1375.33ZM1402.93 1021V1025.5H1398.18V1021H1402.93ZM1391.08 1034.75V1031H1402.68V1052.25H1410.08V1056H1398.43V1034.75H1391.08ZM1417.28 1031H1421.88L1427.73 1052.55L1433.43 1031H1437.88L1430.68 1056H1424.53L1417.28 1031ZM1454.28 1056C1451.35 1056 1449.2 1055.38 1447.83 1054.15C1446.47 1052.88 1445.78 1050.83 1445.78 1048V1039C1445.78 1036.13 1446.4 1034.08 1447.63 1032.85C1448.87 1031.62 1450.92 1031 1453.78 1031H1456.13C1458.5 1031 1460.28 1031.67 1461.48 1033C1462.72 1034.3 1463.33 1036.22 1463.33 1038.75V1045.25H1450.03V1049C1450.03 1050.03 1450.35 1050.83 1450.98 1051.4C1451.62 1051.97 1452.55 1052.25 1453.78 1052.25H1461.73V1056H1454.28ZM1459.18 1037.75C1459.18 1036.88 1458.9 1036.17 1458.33 1035.6C1457.77 1035.03 1457.05 1034.75 1456.18 1034.75H1453.28C1452.08 1034.75 1451.23 1035.03 1450.73 1035.6C1450.27 1036.13 1450.03 1036.93 1450.03 1038V1041.5H1459.18V1037.75ZM1476.74 1052.25V1034.75H1473.09V1031H1480.74V1032.35C1481.84 1031.45 1483.17 1031 1484.74 1031H1489.89V1035H1484.24C1483.17 1035 1482.37 1035.35 1481.84 1036.05C1481.3 1036.72 1481.02 1037.4 1480.99 1038.1V1052.25H1486.44V1056H1473.09V1052.25H1476.74ZM1516.19 1049.75C1516.19 1051.85 1515.54 1053.42 1514.24 1054.45C1512.97 1055.48 1511.12 1056 1508.69 1056H1501.24V1052.25H1509.19C1510.09 1052.25 1510.77 1052.07 1511.24 1051.7C1511.7 1051.3 1511.94 1050.73 1511.94 1050V1047.35C1511.94 1045.85 1511.22 1045.1 1509.79 1045.1H1507.94C1505.6 1045.1 1503.85 1044.6 1502.69 1043.6C1501.55 1042.57 1500.99 1040.95 1500.99 1038.75V1037.3C1500.99 1035.07 1501.62 1033.47 1502.89 1032.5C1504.15 1031.5 1506.02 1031 1508.49 1031H1515.19V1034.75H1507.99C1507.15 1034.75 1506.49 1034.95 1505.99 1035.35C1505.49 1035.72 1505.24 1036.27 1505.24 1037V1038.8C1505.24 1039.57 1505.45 1040.13 1505.89 1040.5C1506.35 1040.87 1506.94 1041.05 1507.64 1041.05H1509.34C1511.57 1041.05 1513.27 1041.6 1514.44 1042.7C1515.6 1043.77 1516.19 1045.37 1516.19 1047.5V1049.75ZM1544.89 1048C1544.89 1050.8 1544.19 1052.83 1542.79 1054.1C1541.42 1055.37 1539.29 1056 1536.39 1056H1534.74C1531.84 1056 1529.69 1055.37 1528.29 1054.1C1526.92 1052.83 1526.24 1050.8 1526.24 1048V1039C1526.24 1036.2 1526.92 1034.17 1528.29 1032.9C1529.69 1031.63 1531.84 1031 1534.74 1031H1536.39C1539.29 1031 1541.42 1031.63 1542.79 1032.9C1544.19 1034.17 1544.89 1036.2 1544.89 1039V1048ZM1540.64 1038C1540.64 1036.97 1540.32 1036.17 1539.69 1035.6C1539.06 1035.03 1538.12 1034.75 1536.89 1034.75H1534.24C1533.01 1034.75 1532.07 1035.03 1531.44 1035.6C1530.81 1036.17 1530.49 1036.97 1530.49 1038V1049C1530.49 1050.03 1530.81 1050.83 1531.44 1051.4C1532.07 1051.97 1533.01 1052.25 1534.24 1052.25H1536.89C1538.12 1052.25 1539.06 1051.97 1539.69 1051.4C1540.32 1050.83 1540.64 1050.03 1540.64 1049V1038ZM1570.19 1049.75C1570.19 1051.85 1569.54 1053.42 1568.24 1054.45C1566.98 1055.48 1565.13 1056 1562.69 1056H1555.24V1052.25H1563.19C1564.09 1052.25 1564.78 1052.07 1565.24 1051.7C1565.71 1051.3 1565.94 1050.73 1565.94 1050V1047.35C1565.94 1045.85 1565.23 1045.1 1563.79 1045.1H1561.94C1559.61 1045.1 1557.86 1044.6 1556.69 1043.6C1555.56 1042.57 1554.99 1040.95 1554.99 1038.75V1037.3C1554.99 1035.07 1555.63 1033.47 1556.89 1032.5C1558.16 1031.5 1560.03 1031 1562.49 1031H1569.19V1034.75H1561.99C1561.16 1034.75 1560.49 1034.95 1559.99 1035.35C1559.49 1035.72 1559.24 1036.27 1559.24 1037V1038.8C1559.24 1039.57 1559.46 1040.13 1559.89 1040.5C1560.36 1040.87 1560.94 1041.05 1561.64 1041.05H1563.34C1565.58 1041.05 1567.28 1041.6 1568.44 1042.7C1569.61 1043.77 1570.19 1045.37 1570.19 1047.5V1049.75ZM295.35 1116C293.65 1116 292.35 1115.45 291.45 1114.35C290.55 1113.25 290.1 1111.8 290.1 1110V1094.75H285.35V1091H290.1V1085H294.35V1091H301.65V1094.75H294.35V1110.25C294.35 1110.98 294.533 1111.5 294.9 1111.8C295.267 1112.1 295.833 1112.25 296.6 1112.25H301.65V1116H295.35ZM325.852 1080.25L319.752 1087H315.452L320.652 1080.25H325.852ZM329.802 1108C329.802 1110.8 329.102 1112.83 327.702 1114.1C326.335 1115.37 324.202 1116 321.302 1116H319.652C316.752 1116 314.602 1115.37 313.202 1114.1C311.835 1112.83 311.152 1110.8 311.152 1108V1099C311.152 1096.2 311.835 1094.17 313.202 1092.9C314.602 1091.63 316.752 1091 319.652 1091H321.302C324.202 1091 326.335 1091.63 327.702 1092.9C329.102 1094.17 329.802 1096.2 329.802 1099V1108ZM325.552 1098C325.552 1096.97 325.235 1096.17 324.602 1095.6C323.969 1095.03 323.035 1094.75 321.802 1094.75H319.152C317.919 1094.75 316.985 1095.03 316.352 1095.6C315.719 1096.17 315.402 1096.97 315.402 1098V1109C315.402 1110.03 315.719 1110.83 316.352 1111.4C316.985 1111.97 317.919 1112.25 319.152 1112.25H321.802C323.035 1112.25 323.969 1111.97 324.602 1111.4C325.235 1110.83 325.552 1110.03 325.552 1109V1098ZM342.354 1091V1092.2C343.387 1091.4 344.721 1091 346.354 1091H348.154C351.087 1091 353.237 1091.63 354.604 1092.9C355.971 1094.13 356.654 1096.17 356.654 1099V1108C356.654 1110.8 355.954 1112.83 354.554 1114.1C353.187 1115.37 351.054 1116 348.154 1116H342.604V1124.5H338.354V1091H342.354ZM345.854 1094.75C344.754 1094.75 343.937 1095.05 343.404 1095.65C342.871 1096.22 342.604 1096.83 342.604 1097.5V1112.25H348.654C349.887 1112.25 350.821 1111.97 351.454 1111.4C352.087 1110.83 352.404 1110.03 352.404 1109V1098C352.404 1096.97 352.087 1096.17 351.454 1095.6C350.821 1095.03 349.887 1094.75 348.654 1094.75H345.854ZM376.856 1081V1085.5H372.106V1081H376.856ZM365.006 1094.75V1091H376.606V1112.25H384.006V1116H372.356V1094.75H365.006ZM402.508 1116C399.574 1116 397.424 1115.38 396.058 1114.15C394.691 1112.88 394.008 1110.83 394.008 1108V1099C394.008 1096.2 394.691 1094.17 396.058 1092.9C397.458 1091.63 399.608 1091 402.508 1091H408.958V1094.75H402.008C400.774 1094.75 399.841 1095.03 399.208 1095.6C398.574 1096.17 398.258 1096.97 398.258 1098V1109C398.258 1110.03 398.574 1110.83 399.208 1111.4C399.841 1111.97 400.774 1112.25 402.008 1112.25H408.958V1116H402.508ZM437.81 1108C437.81 1110.8 437.11 1112.83 435.71 1114.1C434.343 1115.37 432.21 1116 429.31 1116H427.66C424.76 1116 422.61 1115.37 421.21 1114.1C419.843 1112.83 419.16 1110.8 419.16 1108V1099C419.16 1096.2 419.843 1094.17 421.21 1092.9C422.61 1091.63 424.76 1091 427.66 1091H429.31C432.21 1091 434.343 1091.63 435.71 1092.9C437.11 1094.17 437.81 1096.2 437.81 1099V1108ZM433.56 1098C433.56 1096.97 433.243 1096.17 432.61 1095.6C431.976 1095.03 431.043 1094.75 429.81 1094.75H427.16C425.926 1094.75 424.993 1095.03 424.36 1095.6C423.726 1096.17 423.41 1096.97 423.41 1098V1109C423.41 1110.03 423.726 1110.83 424.36 1111.4C424.993 1111.97 425.926 1112.25 427.16 1112.25H429.81C431.043 1112.25 431.976 1111.97 432.61 1111.4C433.243 1110.83 433.56 1110.03 433.56 1109V1098ZM463.112 1109.75C463.112 1111.85 462.462 1113.42 461.162 1114.45C459.895 1115.48 458.045 1116 455.612 1116H448.162V1112.25H456.112C457.012 1112.25 457.695 1112.07 458.162 1111.7C458.628 1111.3 458.862 1110.73 458.862 1110V1107.35C458.862 1105.85 458.145 1105.1 456.712 1105.1H454.862C452.528 1105.1 450.778 1104.6 449.612 1103.6C448.478 1102.57 447.912 1100.95 447.912 1098.75V1097.3C447.912 1095.07 448.545 1093.47 449.812 1092.5C451.078 1091.5 452.945 1091 455.412 1091H462.112V1094.75H454.912C454.078 1094.75 453.412 1094.95 452.912 1095.35C452.412 1095.72 452.162 1096.27 452.162 1097V1098.8C452.162 1099.57 452.378 1100.13 452.812 1100.5C453.278 1100.87 453.862 1101.05 454.562 1101.05H456.262C458.495 1101.05 460.195 1101.6 461.362 1102.7C462.528 1103.77 463.112 1105.37 463.112 1107.5V1109.75ZM509.216 1116C506.282 1116 504.132 1115.38 502.766 1114.15C501.399 1112.88 500.716 1110.83 500.716 1108V1099C500.716 1096.13 501.332 1094.08 502.566 1092.85C503.799 1091.62 505.849 1091 508.716 1091H511.066C513.432 1091 515.216 1091.67 516.416 1093C517.649 1094.3 518.266 1096.22 518.266 1098.75V1105.25H504.966V1109C504.966 1110.03 505.282 1110.83 505.916 1111.4C506.549 1111.97 507.482 1112.25 508.716 1112.25H516.666V1116H509.216ZM514.116 1097.75C514.116 1096.88 513.832 1096.17 513.266 1095.6C512.699 1095.03 511.982 1094.75 511.116 1094.75H508.216C507.016 1094.75 506.166 1095.03 505.666 1095.6C505.199 1096.13 504.966 1096.93 504.966 1098V1101.5H514.116V1097.75ZM528.918 1091V1092.15C529.784 1091.38 530.818 1091 532.018 1091H532.318C534.651 1091 536.301 1091.67 537.268 1093C538.368 1091.67 539.818 1091 541.618 1091H541.918C543.951 1091 545.451 1091.52 546.418 1092.55C547.384 1093.58 547.868 1095.42 547.868 1098.05V1116H543.868V1098C543.868 1096.63 543.718 1095.68 543.418 1095.15C543.151 1094.62 542.518 1094.35 541.518 1094.35H541.218C540.218 1094.35 539.518 1094.7 539.118 1095.4C538.751 1096.07 538.551 1096.82 538.518 1097.65V1116H534.518V1098C534.518 1096.6 534.351 1095.65 534.018 1095.15C533.684 1094.62 533.084 1094.35 532.218 1094.35H531.918C530.918 1094.35 530.218 1094.65 529.818 1095.25C529.418 1095.82 529.201 1096.47 529.168 1097.2V1116H525.168V1091H528.918ZM595.771 1114.85C594.671 1115.62 593.338 1116 591.771 1116H589.721C586.788 1116 584.638 1115.38 583.271 1114.15C581.905 1112.88 581.221 1110.83 581.221 1108V1099C581.221 1096.2 581.905 1094.17 583.271 1092.9C584.671 1091.63 586.821 1091 589.721 1091H595.521V1081H599.771V1116H595.771V1114.85ZM592.271 1112.25C593.371 1112.25 594.188 1111.97 594.721 1111.4C595.255 1110.8 595.521 1110.17 595.521 1109.5V1094.75H589.221C587.988 1094.75 587.055 1095.03 586.421 1095.6C585.788 1096.17 585.471 1096.97 585.471 1098V1109C585.471 1110.03 585.788 1110.83 586.421 1111.4C587.055 1111.97 587.988 1112.25 589.221 1112.25H592.271ZM619.873 1081V1085.5H615.123V1081H619.873ZM608.023 1094.75V1091H619.623V1112.25H627.023V1116H615.373V1094.75H608.023ZM652.125 1109.75C652.125 1111.85 651.475 1113.42 650.175 1114.45C648.909 1115.48 647.059 1116 644.625 1116H637.175V1112.25H645.125C646.025 1112.25 646.709 1112.07 647.175 1111.7C647.642 1111.3 647.875 1110.73 647.875 1110V1107.35C647.875 1105.85 647.159 1105.1 645.725 1105.1H643.875C641.542 1105.1 639.792 1104.6 638.625 1103.6C637.492 1102.57 636.925 1100.95 636.925 1098.75V1097.3C636.925 1095.07 637.559 1093.47 638.825 1092.5C640.092 1091.5 641.959 1091 644.425 1091H651.125V1094.75H643.925C643.092 1094.75 642.425 1094.95 641.925 1095.35C641.425 1095.72 641.175 1096.27 641.175 1097V1098.8C641.175 1099.57 641.392 1100.13 641.825 1100.5C642.292 1100.87 642.875 1101.05 643.575 1101.05H645.275C647.509 1101.05 649.209 1101.6 650.375 1102.7C651.542 1103.77 652.125 1105.37 652.125 1107.5V1109.75ZM672.527 1116C669.594 1116 667.444 1115.38 666.077 1114.15C664.711 1112.88 664.027 1110.83 664.027 1108V1099C664.027 1096.2 664.711 1094.17 666.077 1092.9C667.477 1091.63 669.627 1091 672.527 1091H678.977V1094.75H672.027C670.794 1094.75 669.861 1095.03 669.227 1095.6C668.594 1096.17 668.277 1096.97 668.277 1098V1109C668.277 1110.03 668.594 1110.83 669.227 1111.4C669.861 1111.97 670.794 1112.25 672.027 1112.25H678.977V1116H672.527ZM703.379 1114.85C702.279 1115.62 700.946 1116 699.379 1116H697.679C694.979 1116 692.963 1115.37 691.629 1114.1C690.329 1112.83 689.679 1110.8 689.679 1108V1091H693.929V1109C693.929 1110 694.213 1110.8 694.779 1111.4C695.379 1111.97 696.179 1112.25 697.179 1112.25H699.879C700.946 1112.25 701.729 1111.98 702.229 1111.45C702.763 1110.92 703.063 1110.32 703.129 1109.65V1091H707.379V1116H703.379V1114.85ZM733.131 1109.75C733.131 1111.85 732.481 1113.42 731.181 1114.45C729.915 1115.48 728.065 1116 725.631 1116H718.181V1112.25H726.131C727.031 1112.25 727.715 1112.07 728.181 1111.7C728.648 1111.3 728.881 1110.73 728.881 1110V1107.35C728.881 1105.85 728.165 1105.1 726.731 1105.1H724.881C722.548 1105.1 720.798 1104.6 719.631 1103.6C718.498 1102.57 717.931 1100.95 717.931 1098.75V1097.3C717.931 1095.07 718.565 1093.47 719.831 1092.5C721.098 1091.5 722.965 1091 725.431 1091H732.131V1094.75H724.931C724.098 1094.75 723.431 1094.95 722.931 1095.35C722.431 1095.72 722.181 1096.27 722.181 1097V1098.8C722.181 1099.57 722.398 1100.13 722.831 1100.5C723.298 1100.87 723.881 1101.05 724.581 1101.05H726.281C728.515 1101.05 730.215 1101.6 731.381 1102.7C732.548 1103.77 733.131 1105.37 733.131 1107.5V1109.75ZM760.133 1109.75C760.133 1111.85 759.483 1113.42 758.183 1114.45C756.917 1115.48 755.067 1116 752.633 1116H745.183V1112.25H753.133C754.033 1112.25 754.717 1112.07 755.183 1111.7C755.65 1111.3 755.883 1110.73 755.883 1110V1107.35C755.883 1105.85 755.167 1105.1 753.733 1105.1H751.883C749.55 1105.1 747.8 1104.6 746.633 1103.6C745.5 1102.57 744.933 1100.95 744.933 1098.75V1097.3C744.933 1095.07 745.567 1093.47 746.833 1092.5C748.1 1091.5 749.967 1091 752.433 1091H759.133V1094.75H751.933C751.1 1094.75 750.433 1094.95 749.933 1095.35C749.433 1095.72 749.183 1096.27 749.183 1097V1098.8C749.183 1099.57 749.4 1100.13 749.833 1100.5C750.3 1100.87 750.883 1101.05 751.583 1101.05H753.283C755.517 1101.05 757.217 1101.6 758.383 1102.7C759.55 1103.77 760.133 1105.37 760.133 1107.5V1109.75ZM771.335 1082.65C771.635 1082.48 772.252 1082.17 773.185 1081.7C774.118 1081.23 774.785 1081 775.185 1081H775.935C776.202 1081 776.602 1081.1 777.135 1081.3C777.668 1081.5 778.218 1081.73 778.785 1082C780.185 1082.67 781.085 1083 781.485 1083H781.985C782.252 1083 782.802 1082.75 783.635 1082.25C784.468 1081.75 785.035 1081.4 785.335 1081.2V1084.8C785.068 1084.97 784.518 1085.28 783.685 1085.75C782.885 1086.22 782.302 1086.45 781.935 1086.45H781.185C781.018 1086.45 780.268 1086.17 778.935 1085.6C777.202 1084.83 776.118 1084.45 775.685 1084.45H775.185C774.885 1084.45 774.252 1084.7 773.285 1085.2C772.318 1085.7 771.668 1086.05 771.335 1086.25V1082.65ZM786.885 1116C786.452 1116 785.968 1115.87 785.435 1115.6C784.935 1115.33 784.502 1114.97 784.135 1114.5C783.368 1115.5 782.352 1116 781.085 1116H776.635C774.102 1116 772.252 1115.5 771.085 1114.5C769.952 1113.47 769.385 1111.72 769.385 1109.25V1108.25C769.385 1103.08 771.818 1100.5 776.685 1100.5H782.885V1098C782.885 1096.97 782.568 1096.17 781.935 1095.6C781.302 1095.03 780.368 1094.75 779.135 1094.75H771.385V1091H778.635C781.535 1091 783.668 1091.63 785.035 1092.9C786.435 1094.17 787.135 1096.2 787.135 1099V1111C787.135 1111.5 787.318 1111.88 787.685 1112.15C788.085 1112.38 788.735 1112.5 789.635 1112.5V1116H786.885ZM780.585 1112.25C781.585 1112.25 782.218 1112.02 782.485 1111.55C782.752 1111.08 782.885 1110.48 782.885 1109.75V1104.25H776.635C775.768 1104.25 775.052 1104.53 774.485 1105.1C773.918 1105.67 773.635 1106.38 773.635 1107.25V1109.75C773.635 1110.62 773.835 1111.25 774.235 1111.65C774.635 1112.05 775.268 1112.25 776.135 1112.25H780.585ZM815.837 1108C815.837 1110.8 815.137 1112.83 813.737 1114.1C812.37 1115.37 810.237 1116 807.337 1116H805.687C802.787 1116 800.637 1115.37 799.237 1114.1C797.87 1112.83 797.187 1110.8 797.187 1108V1099C797.187 1096.2 797.87 1094.17 799.237 1092.9C800.637 1091.63 802.787 1091 805.687 1091H807.337C810.237 1091 812.37 1091.63 813.737 1092.9C815.137 1094.17 815.837 1096.2 815.837 1099V1108ZM811.587 1098C811.587 1096.97 811.27 1096.17 810.637 1095.6C810.004 1095.03 809.07 1094.75 807.837 1094.75H805.187C803.954 1094.75 803.02 1095.03 802.387 1095.6C801.754 1096.17 801.437 1096.97 801.437 1098V1109C801.437 1110.03 801.754 1110.83 802.387 1111.4C803.02 1111.97 803.954 1112.25 805.187 1112.25H807.837C809.07 1112.25 810.004 1111.97 810.637 1111.4C811.27 1110.83 811.587 1110.03 811.587 1109V1098ZM836.039 1111V1116H831.039V1111H836.039Z" fill="white"/>
</svg>
