<svg width="3745" height="1780" viewBox="0 0 3745 1780" fill="none" xmlns="http://www.w3.org/2000/svg">
<path d="M293.2 936C290.267 936 288.117 935.383 286.75 934.15C285.383 932.883 284.7 930.833 284.7 928V919C284.7 916.133 285.317 914.083 286.55 912.85C287.783 911.617 289.833 911 292.7 911H295.05C297.417 911 299.2 911.667 300.4 913C301.633 914.3 302.25 916.217 302.25 918.75V925.25H288.95V929C288.95 930.033 289.267 930.833 289.9 931.4C290.533 931.967 291.467 932.25 292.7 932.25H300.65V936H293.2ZM298.1 917.75C298.1 916.883 297.817 916.167 297.25 915.6C296.683 915.033 295.967 914.75 295.1 914.75H292.2C291 914.75 290.15 915.033 289.65 915.6C289.183 916.133 288.95 916.933 288.95 918V921.5H298.1V917.75ZM328.102 929.75C328.102 931.85 327.452 933.417 326.152 934.45C324.885 935.483 323.035 936 320.602 936H313.152V932.25H321.102C322.002 932.25 322.685 932.067 323.152 931.7C323.619 931.3 323.852 930.733 323.852 930V927.35C323.852 925.85 323.135 925.1 321.702 925.1H319.852C317.519 925.1 315.769 924.6 314.602 923.6C313.469 922.567 312.902 920.95 312.902 918.75V917.3C312.902 915.067 313.535 913.467 314.802 912.5C316.069 911.5 317.935 911 320.402 911H327.102V914.75H319.902C319.069 914.75 318.402 914.95 317.902 915.35C317.402 915.717 317.152 916.267 317.152 917V918.8C317.152 919.567 317.369 920.133 317.802 920.5C318.269 920.867 318.852 921.05 319.552 921.05H321.252C323.485 921.05 325.185 921.6 326.352 922.7C327.519 923.767 328.102 925.367 328.102 927.5V929.75ZM349.354 936C347.654 936 346.354 935.45 345.454 934.35C344.554 933.25 344.104 931.8 344.104 930V914.75H339.354V911H344.104V905H348.354V911H355.654V914.75H348.354V930.25C348.354 930.983 348.537 931.5 348.904 931.8C349.271 932.1 349.837 932.25 350.604 932.25H355.654V936H349.354ZM374.206 936C371.273 936 369.123 935.383 367.756 934.15C366.389 932.883 365.706 930.833 365.706 928V919C365.706 916.133 366.323 914.083 367.556 912.85C368.789 911.617 370.839 911 373.706 911H376.056C378.423 911 380.206 911.667 381.406 913C382.639 914.3 383.256 916.217 383.256 918.75V925.25H369.956V929C369.956 930.033 370.273 930.833 370.906 931.4C371.539 931.967 372.473 932.25 373.706 932.25H381.656V936H374.206ZM379.106 917.75C379.106 916.883 378.823 916.167 378.256 915.6C377.689 915.033 376.973 914.75 376.106 914.75H373.206C372.006 914.75 371.156 915.033 370.656 915.6C370.189 916.133 369.956 916.933 369.956 918V921.5H379.106V917.75ZM436.31 900.25L430.21 907H425.91L431.11 900.25H436.31ZM428.21 936C425.276 936 423.126 935.383 421.76 934.15C420.393 932.883 419.71 930.833 419.71 928V919C419.71 916.133 420.326 914.083 421.56 912.85C422.793 911.617 424.843 911 427.71 911H430.06C432.426 911 434.21 911.667 435.41 913C436.643 914.3 437.26 916.217 437.26 918.75V925.25H423.96V929C423.96 930.033 424.276 930.833 424.91 931.4C425.543 931.967 426.476 932.25 427.71 932.25H435.66V936H428.21ZM433.11 917.75C433.11 916.883 432.826 916.167 432.26 915.6C431.693 915.033 430.976 914.75 430.11 914.75H427.21C426.01 914.75 425.16 915.033 424.66 915.6C424.193 916.133 423.96 916.933 423.96 918V921.5H433.11V917.75ZM487.364 934.85C486.264 935.617 484.93 936 483.364 936H481.664C478.964 936 476.947 935.367 475.614 934.1C474.314 932.833 473.664 930.8 473.664 928V911H477.914V929C477.914 930 478.197 930.8 478.764 931.4C479.364 931.967 480.164 932.25 481.164 932.25H483.864C484.93 932.25 485.714 931.983 486.214 931.45C486.747 930.917 487.047 930.317 487.114 929.65V911H491.364V936H487.364V934.85ZM501.916 911V912.15C502.782 911.383 503.816 911 505.016 911H505.316C507.649 911 509.299 911.667 510.266 913C511.366 911.667 512.816 911 514.616 911H514.916C516.949 911 518.449 911.517 519.416 912.55C520.382 913.583 520.866 915.417 520.866 918.05V936H516.866V918C516.866 916.633 516.716 915.683 516.416 915.15C516.149 914.617 515.516 914.35 514.516 914.35H514.216C513.216 914.35 512.516 914.7 512.116 915.4C511.749 916.067 511.549 916.817 511.516 917.65V936H507.516V918C507.516 916.6 507.349 915.65 507.016 915.15C506.682 914.617 506.082 914.35 505.216 914.35H504.916C503.916 914.35 503.216 914.65 502.816 915.25C502.416 915.817 502.199 916.467 502.166 917.2V936H498.166V911H501.916ZM565.37 936C563.67 936 562.37 935.45 561.47 934.35C560.57 933.25 560.12 931.8 560.12 930V914.75H555.37V911H560.12V905H564.37V911H571.67V914.75H564.37V930.25C564.37 930.983 564.553 931.5 564.92 931.8C565.286 932.1 565.853 932.25 566.62 932.25H571.67V936H565.37ZM585.671 932.25V914.75H582.021V911H589.671V912.35C590.771 911.45 592.105 911 593.671 911H598.821V915H593.171C592.105 915 591.305 915.35 590.771 916.05C590.238 916.717 589.955 917.4 589.921 918.1V932.25H595.371V936H582.021V932.25H585.671ZM624.873 936C624.44 936 623.957 935.867 623.423 935.6C622.923 935.333 622.49 934.967 622.123 934.5C621.357 935.5 620.34 936 619.073 936H614.623C612.09 936 610.24 935.5 609.073 934.5C607.94 933.467 607.373 931.717 607.373 929.25V928.25C607.373 923.083 609.807 920.5 614.673 920.5H620.873V918C620.873 916.967 620.557 916.167 619.923 915.6C619.29 915.033 618.357 914.75 617.123 914.75H609.373V911H616.623C619.523 911 621.657 911.633 623.023 912.9C624.423 914.167 625.123 916.2 625.123 919V931C625.123 931.5 625.307 931.883 625.673 932.15C626.073 932.383 626.723 932.5 627.623 932.5V936H624.873ZM618.573 932.25C619.573 932.25 620.207 932.017 620.473 931.55C620.74 931.083 620.873 930.483 620.873 929.75V924.25H614.623C613.757 924.25 613.04 924.533 612.473 925.1C611.907 925.667 611.623 926.383 611.623 927.25V929.75C611.623 930.617 611.823 931.25 612.223 931.65C612.623 932.05 613.257 932.25 614.123 932.25H618.573ZM653.675 928C653.675 930.8 652.975 932.833 651.575 934.1C650.209 935.367 648.075 936 645.175 936H635.375V901H639.625V912C640.625 911.333 641.875 911 643.375 911H645.175C648.109 911 650.259 911.633 651.625 912.9C652.992 914.133 653.675 916.167 653.675 919V928ZM642.875 914.75C641.775 914.75 640.959 915.05 640.425 915.65C639.892 916.217 639.625 916.833 639.625 917.5V932.25H645.675C646.909 932.25 647.842 931.967 648.475 931.4C649.109 930.833 649.425 930.033 649.425 929V918C649.425 916.967 649.109 916.167 648.475 915.6C647.842 915.033 646.909 914.75 645.675 914.75H642.875ZM678.877 936C678.444 936 677.961 935.867 677.427 935.6C676.927 935.333 676.494 934.967 676.127 934.5C675.361 935.5 674.344 936 673.077 936H668.627C666.094 936 664.244 935.5 663.077 934.5C661.944 933.467 661.377 931.717 661.377 929.25V928.25C661.377 923.083 663.811 920.5 668.677 920.5H674.877V918C674.877 916.967 674.561 916.167 673.927 915.6C673.294 915.033 672.361 914.75 671.127 914.75H663.377V911H670.627C673.527 911 675.661 911.633 677.027 912.9C678.427 914.167 679.127 916.2 679.127 919V931C679.127 931.5 679.311 931.883 679.677 932.15C680.077 932.383 680.727 932.5 681.627 932.5V936H678.877ZM672.577 932.25C673.577 932.25 674.211 932.017 674.477 931.55C674.744 931.083 674.877 930.483 674.877 929.75V924.25H668.627C667.761 924.25 667.044 924.533 666.477 925.1C665.911 925.667 665.627 926.383 665.627 927.25V929.75C665.627 930.617 665.827 931.25 666.227 931.65C666.627 932.05 667.261 932.25 668.127 932.25H672.577ZM700.129 936C698.996 936 697.996 935.6 697.129 934.8C696.296 934 695.879 932.733 695.879 931V904.75H688.529V901H700.129V930.75C700.129 931.283 700.263 931.667 700.529 931.9C700.796 932.133 701.246 932.25 701.879 932.25H708.529V936H700.129ZM720.631 901V912C721.631 911.333 722.881 911 724.381 911H726.681C729.381 911 731.381 911.633 732.681 912.9C734.015 914.167 734.681 916.2 734.681 919V936H730.431V918C730.431 917 730.131 916.217 729.531 915.65C728.965 915.05 728.181 914.75 727.181 914.75H723.881C722.815 914.75 722.015 915.033 721.481 915.6C720.948 916.133 720.665 916.717 720.631 917.35V936H716.381V901H720.631ZM761.833 928C761.833 930.8 761.133 932.833 759.733 934.1C758.367 935.367 756.233 936 753.333 936H751.683C748.783 936 746.633 935.367 745.233 934.1C743.867 932.833 743.183 930.8 743.183 928V919C743.183 916.2 743.867 914.167 745.233 912.9C746.633 911.633 748.783 911 751.683 911H753.333C756.233 911 758.367 911.633 759.733 912.9C761.133 914.167 761.833 916.2 761.833 919V928ZM757.583 918C757.583 916.967 757.267 916.167 756.633 915.6C756 915.033 755.067 914.75 753.833 914.75H751.183C749.95 914.75 749.017 915.033 748.383 915.6C747.75 916.167 747.433 916.967 747.433 918V929C747.433 930.033 747.75 930.833 748.383 931.4C749.017 931.967 749.95 932.25 751.183 932.25H753.833C755.067 932.25 756 931.967 756.633 931.4C757.267 930.833 757.583 930.033 757.583 929V918ZM806.237 936C803.304 936 801.154 935.383 799.787 934.15C798.42 932.883 797.737 930.833 797.737 928V919C797.737 916.133 798.354 914.083 799.587 912.85C800.82 911.617 802.87 911 805.737 911H808.087C810.454 911 812.237 911.667 813.437 913C814.67 914.3 815.287 916.217 815.287 918.75V925.25H801.987V929C801.987 930.033 802.304 930.833 802.937 931.4C803.57 931.967 804.504 932.25 805.737 932.25H813.687V936H806.237ZM811.137 917.75C811.137 916.883 810.854 916.167 810.287 915.6C809.72 915.033 809.004 914.75 808.137 914.75H805.237C804.037 914.75 803.187 915.033 802.687 915.6C802.22 916.133 801.987 916.933 801.987 918V921.5H811.137V917.75ZM825.939 911V912.15C826.806 911.383 827.839 911 829.039 911H829.339C831.672 911 833.322 911.667 834.289 913C835.389 911.667 836.839 911 838.639 911H838.939C840.972 911 842.472 911.517 843.439 912.55C844.406 913.583 844.889 915.417 844.889 918.05V936H840.889V918C840.889 916.633 840.739 915.683 840.439 915.15C840.172 914.617 839.539 914.35 838.539 914.35H838.239C837.239 914.35 836.539 914.7 836.139 915.4C835.772 916.067 835.572 916.817 835.539 917.65V936H831.539V918C831.539 916.6 831.372 915.65 831.039 915.15C830.706 914.617 830.106 914.35 829.239 914.35H828.939C827.939 914.35 827.239 914.65 826.839 915.25C826.439 915.817 826.222 916.467 826.189 917.2V936H822.189V911H825.939ZM888.543 936C885.61 936 883.46 935.383 882.093 934.15C880.726 932.883 880.043 930.833 880.043 928V919C880.043 916.2 880.726 914.167 882.093 912.9C883.493 911.633 885.643 911 888.543 911H894.993V914.75H888.043C886.81 914.75 885.876 915.033 885.243 915.6C884.61 916.167 884.293 916.967 884.293 918V929C884.293 930.033 884.61 930.833 885.243 931.4C885.876 931.967 886.81 932.25 888.043 932.25H894.993V936H888.543ZM923.845 928C923.845 930.8 923.145 932.833 921.745 934.1C920.378 935.367 918.245 936 915.345 936H913.695C910.795 936 908.645 935.367 907.245 934.1C905.878 932.833 905.195 930.8 905.195 928V919C905.195 916.2 905.878 914.167 907.245 912.9C908.645 911.633 910.795 911 913.695 911H915.345C918.245 911 920.378 911.633 921.745 912.9C923.145 914.167 923.845 916.2 923.845 919V928ZM919.595 918C919.595 916.967 919.278 916.167 918.645 915.6C918.012 915.033 917.078 914.75 915.845 914.75H913.195C911.962 914.75 911.028 915.033 910.395 915.6C909.762 916.167 909.445 916.967 909.445 918V929C909.445 930.033 909.762 930.833 910.395 931.4C911.028 931.967 911.962 932.25 913.195 932.25H915.845C917.078 932.25 918.012 931.967 918.645 931.4C919.278 930.833 919.595 930.033 919.595 929V918ZM936.397 911V912.2C937.43 911.4 938.764 911 940.397 911H942.697C945.397 911 947.397 911.633 948.697 912.9C950.03 914.167 950.697 916.2 950.697 919V936H946.447V918C946.447 917 946.147 916.217 945.547 915.65C944.98 915.05 944.197 914.75 943.197 914.75H939.897C938.797 914.75 937.98 915.05 937.447 915.65C936.914 916.217 936.647 916.833 936.647 917.5V936H932.397V911H936.397ZM976.149 929.75C976.149 931.85 975.499 933.417 974.199 934.45C972.932 935.483 971.082 936 968.649 936H961.199V932.25H969.149C970.049 932.25 970.732 932.067 971.199 931.7C971.665 931.3 971.899 930.733 971.899 930V927.35C971.899 925.85 971.182 925.1 969.749 925.1H967.899C965.565 925.1 963.815 924.6 962.649 923.6C961.515 922.567 960.949 920.95 960.949 918.75V917.3C960.949 915.067 961.582 913.467 962.849 912.5C964.115 911.5 965.982 911 968.449 911H975.149V914.75H967.949C967.115 914.75 966.449 914.95 965.949 915.35C965.449 915.717 965.199 916.267 965.199 917V918.8C965.199 919.567 965.415 920.133 965.849 920.5C966.315 920.867 966.899 921.05 967.599 921.05H969.299C971.532 921.05 973.232 921.6 974.399 922.7C975.565 923.767 976.149 925.367 976.149 927.5V929.75ZM997.401 936C995.701 936 994.401 935.45 993.501 934.35C992.601 933.25 992.151 931.8 992.151 930V914.75H987.401V911H992.151V905H996.401V911H1003.7V914.75H996.401V930.25C996.401 930.983 996.584 931.5 996.951 931.8C997.317 932.1 997.884 932.25 998.651 932.25H1003.7V936H997.401ZM1017.7 932.25V914.75H1014.05V911H1021.7V912.35C1022.8 911.45 1024.14 911 1025.7 911H1030.85V915H1025.2C1024.14 915 1023.34 915.35 1022.8 916.05C1022.27 916.717 1021.99 917.4 1021.95 918.1V932.25H1027.4V936H1014.05V932.25H1017.7ZM1054.4 934.85C1053.3 935.617 1051.97 936 1050.4 936H1048.7C1046 936 1043.99 935.367 1042.65 934.1C1041.35 932.833 1040.7 930.8 1040.7 928V911H1044.95V929C1044.95 930 1045.24 930.8 1045.8 931.4C1046.4 931.967 1047.2 932.25 1048.2 932.25H1050.9C1051.97 932.25 1052.75 931.983 1053.25 931.45C1053.79 930.917 1054.09 930.317 1054.15 929.65V911H1058.4V936H1054.4V934.85ZM1077.71 942.8C1078.81 942.8 1079.36 942.283 1079.36 941.25C1079.36 940.683 1079.21 940.3 1078.91 940.1C1078.64 939.9 1078.21 939.8 1077.61 939.8H1075.16V935.85C1073.09 935.55 1071.56 934.783 1070.56 933.55C1069.56 932.283 1069.06 930.433 1069.06 928V919C1069.06 916.2 1069.74 914.167 1071.11 912.9C1072.51 911.633 1074.66 911 1077.56 911H1084.01V914.75H1077.06C1075.82 914.75 1074.89 915.033 1074.26 915.6C1073.62 916.167 1073.31 916.967 1073.31 918V929C1073.31 930.033 1073.62 930.833 1074.26 931.4C1074.89 931.967 1075.82 932.25 1077.06 932.25H1084.01V936H1078.66V937.05C1080.19 937.05 1081.29 937.333 1081.96 937.9C1082.66 938.5 1083.01 939.617 1083.01 941.25C1083.01 943.183 1082.57 944.45 1081.71 945.05C1080.87 945.683 1079.84 946 1078.61 946H1074.36V942.8H1077.71ZM1095.36 902.65C1095.66 902.483 1096.28 902.167 1097.21 901.7C1098.14 901.233 1098.81 901 1099.21 901H1099.96C1100.23 901 1100.63 901.1 1101.16 901.3C1101.69 901.5 1102.24 901.733 1102.81 902C1104.21 902.667 1105.11 903 1105.51 903H1106.01C1106.28 903 1106.83 902.75 1107.66 902.25C1108.49 901.75 1109.06 901.4 1109.36 901.2V904.8C1109.09 904.967 1108.54 905.283 1107.71 905.75C1106.91 906.217 1106.33 906.45 1105.96 906.45H1105.21C1105.04 906.45 1104.29 906.167 1102.96 905.6C1101.23 904.833 1100.14 904.45 1099.71 904.45H1099.21C1098.91 904.45 1098.28 904.7 1097.31 905.2C1096.34 905.7 1095.69 906.05 1095.36 906.25V902.65ZM1110.91 936C1110.48 936 1109.99 935.867 1109.46 935.6C1108.96 935.333 1108.53 934.967 1108.16 934.5C1107.39 935.5 1106.38 936 1105.11 936H1100.66C1098.13 936 1096.28 935.5 1095.11 934.5C1093.98 933.467 1093.41 931.717 1093.41 929.25V928.25C1093.41 923.083 1095.84 920.5 1100.71 920.5H1106.91V918C1106.91 916.967 1106.59 916.167 1105.96 915.6C1105.33 915.033 1104.39 914.75 1103.16 914.75H1095.41V911H1102.66C1105.56 911 1107.69 911.633 1109.06 912.9C1110.46 914.167 1111.16 916.2 1111.16 919V931C1111.16 931.5 1111.34 931.883 1111.71 932.15C1112.11 932.383 1112.76 932.5 1113.66 932.5V936H1110.91ZM1104.61 932.25C1105.61 932.25 1106.24 932.017 1106.51 931.55C1106.78 931.083 1106.91 930.483 1106.91 929.75V924.25H1100.66C1099.79 924.25 1099.08 924.533 1098.51 925.1C1097.94 925.667 1097.66 926.383 1097.66 927.25V929.75C1097.66 930.617 1097.86 931.25 1098.26 931.65C1098.66 932.05 1099.29 932.25 1100.16 932.25H1104.61ZM1139.86 928C1139.86 930.8 1139.16 932.833 1137.76 934.1C1136.39 935.367 1134.26 936 1131.36 936H1129.71C1126.81 936 1124.66 935.367 1123.26 934.1C1121.89 932.833 1121.21 930.8 1121.21 928V919C1121.21 916.2 1121.89 914.167 1123.26 912.9C1124.66 911.633 1126.81 911 1129.71 911H1131.36C1134.26 911 1136.39 911.633 1137.76 912.9C1139.16 914.167 1139.86 916.2 1139.86 919V928ZM1135.61 918C1135.61 916.967 1135.29 916.167 1134.66 915.6C1134.03 915.033 1133.09 914.75 1131.86 914.75H1129.21C1127.98 914.75 1127.04 915.033 1126.41 915.6C1125.78 916.167 1125.46 916.967 1125.46 918V929C1125.46 930.033 1125.78 930.833 1126.41 931.4C1127.04 931.967 1127.98 932.25 1129.21 932.25H1131.86C1133.09 932.25 1134.03 931.967 1134.66 931.4C1135.29 930.833 1135.61 930.033 1135.61 929V918ZM1160.06 931V936H1155.06V931H1160.06ZM293.2 1056C290.267 1056 288.117 1055.38 286.75 1054.15C285.383 1052.88 284.7 1050.83 284.7 1048V1039C284.7 1036.13 285.317 1034.08 286.55 1032.85C287.783 1031.62 289.833 1031 292.7 1031H295.05C297.417 1031 299.2 1031.67 300.4 1033C301.633 1034.3 302.25 1036.22 302.25 1038.75V1045.25H288.95V1049C288.95 1050.03 289.267 1050.83 289.9 1051.4C290.533 1051.97 291.467 1052.25 292.7 1052.25H300.65V1056H293.2ZM298.1 1037.75C298.1 1036.88 297.817 1036.17 297.25 1035.6C296.683 1035.03 295.967 1034.75 295.1 1034.75H292.2C291 1034.75 290.15 1035.03 289.65 1035.6C289.183 1036.13 288.95 1036.93 288.95 1038V1041.5H298.1V1037.75ZM322.102 1056C320.969 1056 319.969 1055.6 319.102 1054.8C318.269 1054 317.852 1052.73 317.852 1051V1024.75H310.502V1021H322.102V1050.75C322.102 1051.28 322.235 1051.67 322.502 1051.9C322.769 1052.13 323.219 1052.25 323.852 1052.25H330.502V1056H322.102ZM347.204 1056C344.271 1056 342.121 1055.38 340.754 1054.15C339.387 1052.88 338.704 1050.83 338.704 1048V1039C338.704 1036.13 339.321 1034.08 340.554 1032.85C341.787 1031.62 343.837 1031 346.704 1031H349.054C351.421 1031 353.204 1031.67 354.404 1033C355.637 1034.3 356.254 1036.22 356.254 1038.75V1045.25H342.954V1049C342.954 1050.03 343.271 1050.83 343.904 1051.4C344.537 1051.97 345.471 1052.25 346.704 1052.25H354.654V1056H347.204ZM352.104 1037.75C352.104 1036.88 351.821 1036.17 351.254 1035.6C350.687 1035.03 349.971 1034.75 349.104 1034.75H346.204C345.004 1034.75 344.154 1035.03 343.654 1035.6C343.187 1036.13 342.954 1036.93 342.954 1038V1041.5H352.104V1037.75ZM401.208 1056C398.274 1056 396.124 1055.38 394.758 1054.15C393.391 1052.88 392.708 1050.83 392.708 1048V1039C392.708 1036.13 393.324 1034.08 394.558 1032.85C395.791 1031.62 397.841 1031 400.708 1031H403.058C405.424 1031 407.208 1031.67 408.408 1033C409.641 1034.3 410.258 1036.22 410.258 1038.75V1045.25H396.958V1049C396.958 1050.03 397.274 1050.83 397.908 1051.4C398.541 1051.97 399.474 1052.25 400.708 1052.25H408.658V1056H401.208ZM406.108 1037.75C406.108 1036.88 405.824 1036.17 405.258 1035.6C404.691 1035.03 403.974 1034.75 403.108 1034.75H400.208C399.008 1034.75 398.158 1035.03 397.658 1035.6C397.191 1036.13 396.958 1036.93 396.958 1038V1041.5H406.108V1037.75ZM436.11 1049.75C436.11 1051.85 435.46 1053.42 434.16 1054.45C432.893 1055.48 431.043 1056 428.61 1056H421.16V1052.25H429.11C430.01 1052.25 430.693 1052.07 431.16 1051.7C431.626 1051.3 431.86 1050.73 431.86 1050V1047.35C431.86 1045.85 431.143 1045.1 429.71 1045.1H427.86C425.526 1045.1 423.776 1044.6 422.61 1043.6C421.476 1042.57 420.91 1040.95 420.91 1038.75V1037.3C420.91 1035.07 421.543 1033.47 422.81 1032.5C424.076 1031.5 425.943 1031 428.41 1031H435.11V1034.75H427.91C427.076 1034.75 426.41 1034.95 425.91 1035.35C425.41 1035.72 425.16 1036.27 425.16 1037V1038.8C425.16 1039.57 425.376 1040.13 425.81 1040.5C426.276 1040.87 426.86 1041.05 427.56 1041.05H429.26C431.493 1041.05 433.193 1041.6 434.36 1042.7C435.526 1043.77 436.11 1045.37 436.11 1047.5V1049.75ZM457.362 1056C455.662 1056 454.362 1055.45 453.462 1054.35C452.562 1053.25 452.112 1051.8 452.112 1050V1034.75H447.362V1031H452.112V1025H456.362V1031H463.662V1034.75H456.362V1050.25C456.362 1050.98 456.545 1051.5 456.912 1051.8C457.278 1052.1 457.845 1052.25 458.612 1052.25H463.662V1056H457.362ZM489.514 1020.25L483.414 1027H479.114L484.314 1020.25H489.514ZM489.864 1056C489.43 1056 488.947 1055.87 488.414 1055.6C487.914 1055.33 487.48 1054.97 487.114 1054.5C486.347 1055.5 485.33 1056 484.064 1056H479.614C477.08 1056 475.23 1055.5 474.064 1054.5C472.93 1053.47 472.364 1051.72 472.364 1049.25V1048.25C472.364 1043.08 474.797 1040.5 479.664 1040.5H485.864V1038C485.864 1036.97 485.547 1036.17 484.914 1035.6C484.28 1035.03 483.347 1034.75 482.114 1034.75H474.364V1031H481.614C484.514 1031 486.647 1031.63 488.014 1032.9C489.414 1034.17 490.114 1036.2 490.114 1039V1051C490.114 1051.5 490.297 1051.88 490.664 1052.15C491.064 1052.38 491.714 1052.5 492.614 1052.5V1056H489.864ZM483.564 1052.25C484.564 1052.25 485.197 1052.02 485.464 1051.55C485.73 1051.08 485.864 1050.48 485.864 1049.75V1044.25H479.614C478.747 1044.25 478.03 1044.53 477.464 1045.1C476.897 1045.67 476.614 1046.38 476.614 1047.25V1049.75C476.614 1050.62 476.814 1051.25 477.214 1051.65C477.614 1052.05 478.247 1052.25 479.114 1052.25H483.564ZM544.118 1049.75C544.118 1051.85 543.468 1053.42 542.168 1054.45C540.901 1055.48 539.051 1056 536.618 1056H529.168V1052.25H537.118C538.018 1052.25 538.701 1052.07 539.168 1051.7C539.634 1051.3 539.868 1050.73 539.868 1050V1047.35C539.868 1045.85 539.151 1045.1 537.718 1045.1H535.868C533.534 1045.1 531.784 1044.6 530.618 1043.6C529.484 1042.57 528.918 1040.95 528.918 1038.75V1037.3C528.918 1035.07 529.551 1033.47 530.818 1032.5C532.084 1031.5 533.951 1031 536.418 1031H543.118V1034.75H535.918C535.084 1034.75 534.418 1034.95 533.918 1035.35C533.418 1035.72 533.168 1036.27 533.168 1037V1038.8C533.168 1039.57 533.384 1040.13 533.818 1040.5C534.284 1040.87 534.868 1041.05 535.568 1041.05H537.268C539.501 1041.05 541.201 1041.6 542.368 1042.7C543.534 1043.77 544.118 1045.37 544.118 1047.5V1049.75ZM563.22 1056C560.286 1056 558.136 1055.38 556.77 1054.15C555.403 1052.88 554.72 1050.83 554.72 1048V1039C554.72 1036.13 555.336 1034.08 556.57 1032.85C557.803 1031.62 559.853 1031 562.72 1031H565.07C567.436 1031 569.22 1031.67 570.42 1033C571.653 1034.3 572.27 1036.22 572.27 1038.75V1045.25H558.97V1049C558.97 1050.03 559.286 1050.83 559.92 1051.4C560.553 1051.97 561.486 1052.25 562.72 1052.25H570.67V1056H563.22ZM568.12 1037.75C568.12 1036.88 567.836 1036.17 567.27 1035.6C566.703 1035.03 565.986 1034.75 565.12 1034.75H562.22C561.02 1034.75 560.17 1035.03 559.67 1035.6C559.203 1036.13 558.97 1036.93 558.97 1038V1041.5H568.12V1037.75ZM585.371 1031V1032.2C586.405 1031.4 587.738 1031 589.371 1031H591.671C594.371 1031 596.371 1031.63 597.671 1032.9C599.005 1034.17 599.671 1036.2 599.671 1039V1056H595.421V1038C595.421 1037 595.121 1036.22 594.521 1035.65C593.955 1035.05 593.171 1034.75 592.171 1034.75H588.871C587.771 1034.75 586.955 1035.05 586.421 1035.65C585.888 1036.22 585.621 1036.83 585.621 1037.5V1056H581.371V1031H585.371ZM622.773 1054.85C621.673 1055.62 620.34 1056 618.773 1056H616.723C613.79 1056 611.64 1055.38 610.273 1054.15C608.907 1052.88 608.223 1050.83 608.223 1048V1039C608.223 1036.2 608.907 1034.17 610.273 1032.9C611.673 1031.63 613.823 1031 616.723 1031H622.523V1021H626.773V1056H622.773V1054.85ZM619.273 1052.25C620.373 1052.25 621.19 1051.97 621.723 1051.4C622.257 1050.8 622.523 1050.17 622.523 1049.5V1034.75H616.223C614.99 1034.75 614.057 1035.03 613.423 1035.6C612.79 1036.17 612.473 1036.97 612.473 1038V1049C612.473 1050.03 612.79 1050.83 613.423 1051.4C614.057 1051.97 614.99 1052.25 616.223 1052.25H619.273ZM653.825 1048C653.825 1050.8 653.125 1052.83 651.725 1054.1C650.359 1055.37 648.225 1056 645.325 1056H643.675C640.775 1056 638.625 1055.37 637.225 1054.1C635.859 1052.83 635.175 1050.8 635.175 1048V1039C635.175 1036.2 635.859 1034.17 637.225 1032.9C638.625 1031.63 640.775 1031 643.675 1031H645.325C648.225 1031 650.359 1031.63 651.725 1032.9C653.125 1034.17 653.825 1036.2 653.825 1039V1048ZM649.575 1038C649.575 1036.97 649.259 1036.17 648.625 1035.6C647.992 1035.03 647.059 1034.75 645.825 1034.75H643.175C641.942 1034.75 641.009 1035.03 640.375 1035.6C639.742 1036.17 639.425 1036.97 639.425 1038V1049C639.425 1050.03 639.742 1050.83 640.375 1051.4C641.009 1051.97 641.942 1052.25 643.175 1052.25H645.825C647.059 1052.25 647.992 1051.97 648.625 1051.4C649.259 1050.83 649.575 1050.03 649.575 1049V1038ZM703.779 1054.85C702.679 1055.62 701.346 1056 699.779 1056H697.729C694.796 1056 692.646 1055.38 691.279 1054.15C689.913 1052.88 689.229 1050.83 689.229 1048V1039C689.229 1036.2 689.913 1034.17 691.279 1032.9C692.679 1031.63 694.829 1031 697.729 1031H703.529V1021H707.779V1056H703.779V1054.85ZM700.279 1052.25C701.379 1052.25 702.196 1051.97 702.729 1051.4C703.263 1050.8 703.529 1050.17 703.529 1049.5V1034.75H697.229C695.996 1034.75 695.063 1035.03 694.429 1035.6C693.796 1036.17 693.479 1036.97 693.479 1038V1049C693.479 1050.03 693.796 1050.83 694.429 1051.4C695.063 1051.97 695.996 1052.25 697.229 1052.25H700.279ZM725.231 1056C722.298 1056 720.148 1055.38 718.781 1054.15C717.415 1052.88 716.731 1050.83 716.731 1048V1039C716.731 1036.13 717.348 1034.08 718.581 1032.85C719.815 1031.62 721.865 1031 724.731 1031H727.081C729.448 1031 731.231 1031.67 732.431 1033C733.665 1034.3 734.281 1036.22 734.281 1038.75V1045.25H720.981V1049C720.981 1050.03 721.298 1050.83 721.931 1051.4C722.565 1051.97 723.498 1052.25 724.731 1052.25H732.681V1056H725.231ZM730.131 1037.75C730.131 1036.88 729.848 1036.17 729.281 1035.6C728.715 1035.03 727.998 1034.75 727.131 1034.75H724.231C723.031 1034.75 722.181 1035.03 721.681 1035.6C721.215 1036.13 720.981 1036.93 720.981 1038V1041.5H730.131V1037.75ZM760.133 1049.75C760.133 1051.85 759.483 1053.42 758.183 1054.45C756.917 1055.48 755.067 1056 752.633 1056H745.183V1052.25H753.133C754.033 1052.25 754.717 1052.07 755.183 1051.7C755.65 1051.3 755.883 1050.73 755.883 1050V1047.35C755.883 1045.85 755.167 1045.1 753.733 1045.1H751.883C749.55 1045.1 747.8 1044.6 746.633 1043.6C745.5 1042.57 744.933 1040.95 744.933 1038.75V1037.3C744.933 1035.07 745.567 1033.47 746.833 1032.5C748.1 1031.5 749.967 1031 752.433 1031H759.133V1034.75H751.933C751.1 1034.75 750.433 1034.95 749.933 1035.35C749.433 1035.72 749.183 1036.27 749.183 1037V1038.8C749.183 1039.57 749.4 1040.13 749.833 1040.5C750.3 1040.87 750.883 1041.05 751.583 1041.05H753.283C755.517 1041.05 757.217 1041.6 758.383 1042.7C759.55 1043.77 760.133 1045.37 760.133 1047.5V1049.75ZM779.235 1056C776.302 1056 774.152 1055.38 772.785 1054.15C771.418 1052.88 770.735 1050.83 770.735 1048V1039C770.735 1036.13 771.352 1034.08 772.585 1032.85C773.818 1031.62 775.868 1031 778.735 1031H781.085C783.452 1031 785.235 1031.67 786.435 1033C787.668 1034.3 788.285 1036.22 788.285 1038.75V1045.25H774.985V1049C774.985 1050.03 775.302 1050.83 775.935 1051.4C776.568 1051.97 777.502 1052.25 778.735 1052.25H786.685V1056H779.235ZM784.135 1037.75C784.135 1036.88 783.852 1036.17 783.285 1035.6C782.718 1035.03 782.002 1034.75 781.135 1034.75H778.235C777.035 1034.75 776.185 1035.03 775.685 1035.6C775.218 1036.13 774.985 1036.93 774.985 1038V1041.5H784.135V1037.75ZM801.387 1031V1032.2C802.42 1031.4 803.754 1031 805.387 1031H807.687C810.387 1031 812.387 1031.63 813.687 1032.9C815.02 1034.17 815.687 1036.2 815.687 1039V1056H811.437V1038C811.437 1037 811.137 1036.22 810.537 1035.65C809.97 1035.05 809.187 1034.75 808.187 1034.75H804.887C803.787 1034.75 802.97 1035.05 802.437 1035.65C801.904 1036.22 801.637 1036.83 801.637 1037.5V1056H797.387V1031H801.387ZM823.239 1031H827.839L833.689 1052.55L839.389 1031H843.839L836.639 1056H830.489L823.239 1031ZM869.841 1048C869.841 1050.8 869.141 1052.83 867.741 1054.1C866.374 1055.37 864.241 1056 861.341 1056H859.691C856.791 1056 854.641 1055.37 853.241 1054.1C851.874 1052.83 851.191 1050.8 851.191 1048V1039C851.191 1036.2 851.874 1034.17 853.241 1032.9C854.641 1031.63 856.791 1031 859.691 1031H861.341C864.241 1031 866.374 1031.63 867.741 1032.9C869.141 1034.17 869.841 1036.2 869.841 1039V1048ZM865.591 1038C865.591 1036.97 865.274 1036.17 864.641 1035.6C864.008 1035.03 863.074 1034.75 861.841 1034.75H859.191C857.958 1034.75 857.024 1035.03 856.391 1035.6C855.758 1036.17 855.441 1036.97 855.441 1038V1049C855.441 1050.03 855.758 1050.83 856.391 1051.4C857.024 1051.97 857.958 1052.25 859.191 1052.25H861.841C863.074 1052.25 864.008 1051.97 864.641 1051.4C865.274 1050.83 865.591 1050.03 865.591 1049V1038ZM889.143 1056C888.01 1056 887.01 1055.6 886.143 1054.8C885.31 1054 884.893 1052.73 884.893 1051V1024.75H877.543V1021H889.143V1050.75C889.143 1051.28 889.276 1051.67 889.543 1051.9C889.81 1052.13 890.26 1052.25 890.893 1052.25H897.543V1056H889.143ZM904.245 1031H908.845L914.695 1052.55L920.395 1031H924.845L917.645 1056H911.495L904.245 1031ZM943.897 1021V1025.5H939.147V1021H943.897ZM932.047 1034.75V1031H943.647V1052.25H951.047V1056H939.397V1034.75H932.047ZM973.799 1054.85C972.699 1055.62 971.365 1056 969.799 1056H967.749C964.815 1056 962.665 1055.38 961.299 1054.15C959.932 1052.88 959.249 1050.83 959.249 1048V1039C959.249 1036.2 959.932 1034.17 961.299 1032.9C962.699 1031.63 964.849 1031 967.749 1031H973.549V1021H977.799V1056H973.799V1054.85ZM970.299 1052.25C971.399 1052.25 972.215 1051.97 972.749 1051.4C973.282 1050.8 973.549 1050.17 973.549 1049.5V1034.75H967.249C966.015 1034.75 965.082 1035.03 964.449 1035.6C963.815 1036.17 963.499 1036.97 963.499 1038V1049C963.499 1050.03 963.815 1050.83 964.449 1051.4C965.082 1051.97 966.015 1052.25 967.249 1052.25H970.299ZM1004.85 1048C1004.85 1050.8 1004.15 1052.83 1002.75 1054.1C1001.38 1055.37 999.251 1056 996.351 1056H994.701C991.801 1056 989.651 1055.37 988.251 1054.1C986.884 1052.83 986.201 1050.8 986.201 1048V1039C986.201 1036.2 986.884 1034.17 988.251 1032.9C989.651 1031.63 991.801 1031 994.701 1031H996.351C999.251 1031 1001.38 1031.63 1002.75 1032.9C1004.15 1034.17 1004.85 1036.2 1004.85 1039V1048ZM1000.6 1038C1000.6 1036.97 1000.28 1036.17 999.651 1035.6C999.017 1035.03 998.084 1034.75 996.851 1034.75H994.201C992.967 1034.75 992.034 1035.03 991.401 1035.6C990.767 1036.17 990.451 1036.97 990.451 1038V1049C990.451 1050.03 990.767 1050.83 991.401 1051.4C992.034 1051.97 992.967 1052.25 994.201 1052.25H996.851C998.084 1052.25 999.017 1051.97 999.651 1051.4C1000.28 1050.83 1000.6 1050.03 1000.6 1049V1038ZM1050.55 1056C1047.62 1056 1045.47 1055.38 1044.1 1054.15C1042.74 1052.88 1042.05 1050.83 1042.05 1048V1039C1042.05 1036.2 1042.74 1034.17 1044.1 1032.9C1045.5 1031.63 1047.65 1031 1050.55 1031H1057V1034.75H1050.05C1048.82 1034.75 1047.89 1035.03 1047.25 1035.6C1046.62 1036.17 1046.3 1036.97 1046.3 1038V1049C1046.3 1050.03 1046.62 1050.83 1047.25 1051.4C1047.89 1051.97 1048.82 1052.25 1050.05 1052.25H1057V1056H1050.55ZM1085.86 1048C1085.86 1050.8 1085.16 1052.83 1083.76 1054.1C1082.39 1055.37 1080.26 1056 1077.36 1056H1075.71C1072.81 1056 1070.66 1055.37 1069.26 1054.1C1067.89 1052.83 1067.21 1050.8 1067.21 1048V1039C1067.21 1036.2 1067.89 1034.17 1069.26 1032.9C1070.66 1031.63 1072.81 1031 1075.71 1031H1077.36C1080.26 1031 1082.39 1031.63 1083.76 1032.9C1085.16 1034.17 1085.86 1036.2 1085.86 1039V1048ZM1081.61 1038C1081.61 1036.97 1081.29 1036.17 1080.66 1035.6C1080.02 1035.03 1079.09 1034.75 1077.86 1034.75H1075.21C1073.97 1034.75 1073.04 1035.03 1072.41 1035.6C1071.77 1036.17 1071.46 1036.97 1071.46 1038V1049C1071.46 1050.03 1071.77 1050.83 1072.41 1051.4C1073.04 1051.97 1073.97 1052.25 1075.21 1052.25H1077.86C1079.09 1052.25 1080.02 1051.97 1080.66 1051.4C1081.29 1050.83 1081.61 1050.03 1081.61 1049V1038ZM1095.96 1031V1032.15C1096.83 1031.38 1097.86 1031 1099.06 1031H1099.36C1101.69 1031 1103.34 1031.67 1104.31 1033C1105.41 1031.67 1106.86 1031 1108.66 1031H1108.96C1110.99 1031 1112.49 1031.52 1113.46 1032.55C1114.43 1033.58 1114.91 1035.42 1114.91 1038.05V1056H1110.91V1038C1110.91 1036.63 1110.76 1035.68 1110.46 1035.15C1110.19 1034.62 1109.56 1034.35 1108.56 1034.35H1108.26C1107.26 1034.35 1106.56 1034.7 1106.16 1035.4C1105.79 1036.07 1105.59 1036.82 1105.56 1037.65V1056H1101.56V1038C1101.56 1036.6 1101.39 1035.65 1101.06 1035.15C1100.73 1034.62 1100.13 1034.35 1099.26 1034.35H1098.96C1097.96 1034.35 1097.26 1034.65 1096.86 1035.25C1096.46 1035.82 1096.24 1036.47 1096.21 1037.2V1056H1092.21V1031H1095.96ZM1164.91 1056C1164.48 1056 1164 1055.87 1163.46 1055.6C1162.96 1055.33 1162.53 1054.97 1162.16 1054.5C1161.4 1055.5 1160.38 1056 1159.11 1056H1154.66C1152.13 1056 1150.28 1055.5 1149.11 1054.5C1147.98 1053.47 1147.41 1051.72 1147.41 1049.25V1048.25C1147.41 1043.08 1149.85 1040.5 1154.71 1040.5H1160.91V1038C1160.91 1036.97 1160.6 1036.17 1159.96 1035.6C1159.33 1035.03 1158.4 1034.75 1157.16 1034.75H1149.41V1031H1156.66C1159.56 1031 1161.7 1031.63 1163.06 1032.9C1164.46 1034.17 1165.16 1036.2 1165.16 1039V1051C1165.16 1051.5 1165.35 1051.88 1165.71 1052.15C1166.11 1052.38 1166.76 1052.5 1167.66 1052.5V1056H1164.91ZM1158.61 1052.25C1159.61 1052.25 1160.25 1052.02 1160.51 1051.55C1160.78 1051.08 1160.91 1050.48 1160.91 1049.75V1044.25H1154.66C1153.8 1044.25 1153.08 1044.53 1152.51 1045.1C1151.95 1045.67 1151.66 1046.38 1151.66 1047.25V1049.75C1151.66 1050.62 1151.86 1051.25 1152.26 1051.65C1152.66 1052.05 1153.3 1052.25 1154.16 1052.25H1158.61ZM1189.41 1054.85C1188.31 1055.62 1186.98 1056 1185.41 1056H1183.71C1181.01 1056 1179 1055.37 1177.66 1054.1C1176.36 1052.83 1175.71 1050.8 1175.71 1048V1031H1179.96V1049C1179.96 1050 1180.25 1050.8 1180.81 1051.4C1181.41 1051.97 1182.21 1052.25 1183.21 1052.25H1185.91C1186.98 1052.25 1187.76 1051.98 1188.26 1051.45C1188.8 1050.92 1189.1 1050.32 1189.16 1049.65V1031H1193.41V1056H1189.41V1054.85ZM1206.02 1056H1201.32L1209.12 1043.1L1201.92 1031H1206.87L1211.62 1039.4L1216.47 1031H1221.12L1213.82 1042.9L1221.77 1056H1216.77L1211.52 1046.55L1206.02 1056ZM1245.72 1020.25L1239.62 1027H1235.32L1240.52 1020.25H1245.72ZM1229.07 1034.75V1031H1240.67V1052.25H1248.07V1056H1236.42V1034.75H1229.07ZM1267.17 1056C1266.04 1056 1265.04 1055.6 1264.17 1054.8C1263.34 1054 1262.92 1052.73 1262.92 1051V1024.75H1255.57V1021H1267.17V1050.75C1267.17 1051.28 1267.3 1051.67 1267.57 1051.9C1267.84 1052.13 1268.29 1052.25 1268.92 1052.25H1275.57V1056H1267.17ZM1294.92 1021V1025.5H1290.17V1021H1294.92ZM1283.07 1034.75V1031H1294.67V1052.25H1302.07V1056H1290.42V1034.75H1283.07ZM1328.87 1048C1328.87 1050.8 1328.17 1052.83 1326.77 1054.1C1325.41 1055.37 1323.27 1056 1320.37 1056H1318.72C1315.82 1056 1313.67 1055.37 1312.27 1054.1C1310.91 1052.83 1310.22 1050.8 1310.22 1048V1039C1310.22 1036.2 1310.91 1034.17 1312.27 1032.9C1313.67 1031.63 1315.82 1031 1318.72 1031H1320.37C1323.27 1031 1325.41 1031.63 1326.77 1032.9C1328.17 1034.17 1328.87 1036.2 1328.87 1039V1048ZM1324.62 1038C1324.62 1036.97 1324.31 1036.17 1323.67 1035.6C1323.04 1035.03 1322.11 1034.75 1320.87 1034.75H1318.22C1316.99 1034.75 1316.06 1035.03 1315.42 1035.6C1314.79 1036.17 1314.47 1036.97 1314.47 1038V1049C1314.47 1050.03 1314.79 1050.83 1315.42 1051.4C1316.06 1051.97 1316.99 1052.25 1318.22 1052.25H1320.87C1322.11 1052.25 1323.04 1051.97 1323.67 1051.4C1324.31 1050.83 1324.62 1050.03 1324.62 1049V1038ZM1378.83 1054.85C1377.73 1055.62 1376.39 1056 1374.83 1056H1372.78C1369.84 1056 1367.69 1055.38 1366.33 1054.15C1364.96 1052.88 1364.28 1050.83 1364.28 1048V1039C1364.28 1036.2 1364.96 1034.17 1366.33 1032.9C1367.73 1031.63 1369.88 1031 1372.78 1031H1378.58V1021H1382.83V1056H1378.83V1054.85ZM1375.33 1052.25C1376.43 1052.25 1377.24 1051.97 1377.78 1051.4C1378.31 1050.8 1378.58 1050.17 1378.58 1049.5V1034.75H1372.28C1371.04 1034.75 1370.11 1035.03 1369.48 1035.6C1368.84 1036.17 1368.53 1036.97 1368.53 1038V1049C1368.53 1050.03 1368.84 1050.83 1369.48 1051.4C1370.11 1051.97 1371.04 1052.25 1372.28 1052.25H1375.33ZM1400.28 1056C1397.35 1056 1395.2 1055.38 1393.83 1054.15C1392.46 1052.88 1391.78 1050.83 1391.78 1048V1039C1391.78 1036.13 1392.4 1034.08 1393.63 1032.85C1394.86 1031.62 1396.91 1031 1399.78 1031H1402.13C1404.5 1031 1406.28 1031.67 1407.48 1033C1408.71 1034.3 1409.33 1036.22 1409.33 1038.75V1045.25H1396.03V1049C1396.03 1050.03 1396.35 1050.83 1396.98 1051.4C1397.61 1051.97 1398.55 1052.25 1399.78 1052.25H1407.73V1056H1400.28ZM1405.18 1037.75C1405.18 1036.88 1404.9 1036.17 1404.33 1035.6C1403.76 1035.03 1403.05 1034.75 1402.18 1034.75H1399.28C1398.08 1034.75 1397.23 1035.03 1396.73 1035.6C1396.26 1036.13 1396.03 1036.93 1396.03 1038V1041.5H1405.18V1037.75ZM295.85 1081V1085.5H291.1V1081H295.85ZM284 1094.75V1091H295.6V1112.25H303V1116H291.35V1094.75H284ZM315.352 1091V1092.2C316.385 1091.4 317.719 1091 319.352 1091H321.652C324.352 1091 326.352 1091.63 327.652 1092.9C328.985 1094.17 329.652 1096.2 329.652 1099V1116H325.402V1098C325.402 1097 325.102 1096.22 324.502 1095.65C323.935 1095.05 323.152 1094.75 322.152 1094.75H318.852C317.752 1094.75 316.935 1095.05 316.402 1095.65C315.869 1096.22 315.602 1096.83 315.602 1097.5V1116H311.352V1091H315.352ZM349.354 1116C347.654 1116 346.354 1115.45 345.454 1114.35C344.554 1113.25 344.104 1111.8 344.104 1110V1094.75H339.354V1091H344.104V1085H348.354V1091H355.654V1094.75H348.354V1110.25C348.354 1110.98 348.537 1111.5 348.904 1111.8C349.271 1112.1 349.837 1112.25 350.604 1112.25H355.654V1116H349.354ZM374.206 1116C371.273 1116 369.123 1115.38 367.756 1114.15C366.389 1112.88 365.706 1110.83 365.706 1108V1099C365.706 1096.13 366.323 1094.08 367.556 1092.85C368.789 1091.62 370.839 1091 373.706 1091H376.056C378.423 1091 380.206 1091.67 381.406 1093C382.639 1094.3 383.256 1096.22 383.256 1098.75V1105.25H369.956V1109C369.956 1110.03 370.273 1110.83 370.906 1111.4C371.539 1111.97 372.473 1112.25 373.706 1112.25H381.656V1116H374.206ZM379.106 1097.75C379.106 1096.88 378.823 1096.17 378.256 1095.6C377.689 1095.03 376.973 1094.75 376.106 1094.75H373.206C372.006 1094.75 371.156 1095.03 370.656 1095.6C370.189 1096.13 369.956 1096.93 369.956 1098V1101.5H379.106V1097.75ZM403.108 1116C401.974 1116 400.974 1115.6 400.108 1114.8C399.274 1114 398.858 1112.73 398.858 1111V1084.75H391.508V1081H403.108V1110.75C403.108 1111.28 403.241 1111.67 403.508 1111.9C403.774 1112.13 404.224 1112.25 404.858 1112.25H411.508V1116H403.108ZM430.86 1081V1085.5H426.11V1081H430.86ZM419.01 1094.75V1091H430.61V1112.25H438.01V1116H426.36V1094.75H419.01ZM465.362 1117.75C465.362 1120.02 464.678 1121.7 463.312 1122.8C461.978 1123.93 459.878 1124.5 457.012 1124.5H446.612V1120.75H457.512C458.712 1120.75 459.612 1120.52 460.212 1120.05C460.812 1119.58 461.112 1118.98 461.112 1118.25V1116.65C461.112 1115.88 460.812 1115.28 460.212 1114.85C459.612 1114.38 458.712 1114.15 457.512 1114.15H448.862V1107.25C447.762 1106.65 446.945 1105.78 446.412 1104.65C445.878 1103.52 445.612 1102.05 445.612 1100.25V1099C445.612 1096.2 446.295 1094.17 447.662 1092.9C449.062 1091.63 451.212 1091 454.112 1091H464.612V1100.25C464.612 1102.75 463.928 1104.72 462.562 1106.15C461.195 1107.55 459.378 1108.25 457.112 1108.25H453.112V1110.4H457.012C459.878 1110.4 461.978 1110.97 463.312 1112.1C464.678 1113.2 465.362 1114.88 465.362 1117.15V1117.75ZM457.112 1104.5C458.145 1104.5 458.928 1104.17 459.462 1103.5C459.995 1102.83 460.295 1102.13 460.362 1101.4V1094.75H453.612C452.378 1094.75 451.445 1095.03 450.812 1095.6C450.178 1096.17 449.862 1096.97 449.862 1098V1101.25C449.862 1102.28 450.178 1103.08 450.812 1103.65C451.445 1104.22 452.378 1104.5 453.612 1104.5H457.112ZM479.564 1087H474.764L480.364 1080.25H484.764L490.414 1087H485.564L482.564 1083.25L479.564 1087ZM482.214 1116C479.28 1116 477.13 1115.38 475.764 1114.15C474.397 1112.88 473.714 1110.83 473.714 1108V1099C473.714 1096.13 474.33 1094.08 475.564 1092.85C476.797 1091.62 478.847 1091 481.714 1091H484.064C486.43 1091 488.214 1091.67 489.414 1093C490.647 1094.3 491.264 1096.22 491.264 1098.75V1105.25H477.964V1109C477.964 1110.03 478.28 1110.83 478.914 1111.4C479.547 1111.97 480.48 1112.25 481.714 1112.25H489.664V1116H482.214ZM487.114 1097.75C487.114 1096.88 486.83 1096.17 486.264 1095.6C485.697 1095.03 484.98 1094.75 484.114 1094.75H481.214C480.014 1094.75 479.164 1095.03 478.664 1095.6C478.197 1096.13 477.964 1096.93 477.964 1098V1101.5H487.114V1097.75ZM504.366 1091V1092.2C505.399 1091.4 506.732 1091 508.366 1091H510.666C513.366 1091 515.366 1091.63 516.666 1092.9C517.999 1094.17 518.666 1096.2 518.666 1099V1116H514.416V1098C514.416 1097 514.116 1096.22 513.516 1095.65C512.949 1095.05 512.166 1094.75 511.166 1094.75H507.866C506.766 1094.75 505.949 1095.05 505.416 1095.65C504.882 1096.22 504.616 1096.83 504.616 1097.5V1116H500.366V1091H504.366ZM537.518 1116C534.584 1116 532.434 1115.38 531.068 1114.15C529.701 1112.88 529.018 1110.83 529.018 1108V1099C529.018 1096.2 529.701 1094.17 531.068 1092.9C532.468 1091.63 534.618 1091 537.518 1091H543.968V1094.75H537.018C535.784 1094.75 534.851 1095.03 534.218 1095.6C533.584 1096.17 533.268 1096.97 533.268 1098V1109C533.268 1110.03 533.584 1110.83 534.218 1111.4C534.851 1111.97 535.784 1112.25 537.018 1112.25H543.968V1116H537.518ZM565.87 1081V1085.5H561.12V1081H565.87ZM554.02 1094.75V1091H565.62V1112.25H573.02V1116H561.37V1094.75H554.02ZM597.871 1116C597.438 1116 596.955 1115.87 596.421 1115.6C595.921 1115.33 595.488 1114.97 595.121 1114.5C594.355 1115.5 593.338 1116 592.071 1116H587.621C585.088 1116 583.238 1115.5 582.071 1114.5C580.938 1113.47 580.371 1111.72 580.371 1109.25V1108.25C580.371 1103.08 582.805 1100.5 587.671 1100.5H593.871V1098C593.871 1096.97 593.555 1096.17 592.921 1095.6C592.288 1095.03 591.355 1094.75 590.121 1094.75H582.371V1091H589.621C592.521 1091 594.655 1091.63 596.021 1092.9C597.421 1094.17 598.121 1096.2 598.121 1099V1111C598.121 1111.5 598.305 1111.88 598.671 1112.15C599.071 1112.38 599.721 1112.5 600.621 1112.5V1116H597.871ZM591.571 1112.25C592.571 1112.25 593.205 1112.02 593.471 1111.55C593.738 1111.08 593.871 1110.48 593.871 1109.75V1104.25H587.621C586.755 1104.25 586.038 1104.53 585.471 1105.1C584.905 1105.67 584.621 1106.38 584.621 1107.25V1109.75C584.621 1110.62 584.821 1111.25 585.221 1111.65C585.621 1112.05 586.255 1112.25 587.121 1112.25H591.571ZM651.875 1116C651.442 1116 650.959 1115.87 650.425 1115.6C649.925 1115.33 649.492 1114.97 649.125 1114.5C648.359 1115.5 647.342 1116 646.075 1116H641.625C639.092 1116 637.242 1115.5 636.075 1114.5C634.942 1113.47 634.375 1111.72 634.375 1109.25V1108.25C634.375 1103.08 636.809 1100.5 641.675 1100.5H647.875V1098C647.875 1096.97 647.559 1096.17 646.925 1095.6C646.292 1095.03 645.359 1094.75 644.125 1094.75H636.375V1091H643.625C646.525 1091 648.659 1091.63 650.025 1092.9C651.425 1094.17 652.125 1096.2 652.125 1099V1111C652.125 1111.5 652.309 1111.88 652.675 1112.15C653.075 1112.38 653.725 1112.5 654.625 1112.5V1116H651.875ZM645.575 1112.25C646.575 1112.25 647.209 1112.02 647.475 1111.55C647.742 1111.08 647.875 1110.48 647.875 1109.75V1104.25H641.625C640.759 1104.25 640.042 1104.53 639.475 1105.1C638.909 1105.67 638.625 1106.38 638.625 1107.25V1109.75C638.625 1110.62 638.825 1111.25 639.225 1111.65C639.625 1112.05 640.259 1112.25 641.125 1112.25H645.575ZM666.677 1112.25V1094.75H663.027V1091H670.677V1092.35C671.777 1091.45 673.111 1091 674.677 1091H679.827V1095H674.177C673.111 1095 672.311 1095.35 671.777 1096.05C671.244 1096.72 670.961 1097.4 670.927 1098.1V1112.25H676.377V1116H663.027V1112.25H666.677ZM700.379 1116C698.679 1116 697.379 1115.45 696.479 1114.35C695.579 1113.25 695.129 1111.8 695.129 1110V1094.75H690.379V1091H695.129V1085H699.379V1091H706.679V1094.75H699.379V1110.25C699.379 1110.98 699.563 1111.5 699.929 1111.8C700.296 1112.1 700.863 1112.25 701.629 1112.25H706.679V1116H700.379ZM727.881 1081V1085.5H723.131V1081H727.881ZM716.031 1094.75V1091H727.631V1112.25H735.031V1116H723.381V1094.75H716.031ZM754.233 1084.75C753.7 1084.75 753.267 1084.9 752.933 1085.2C752.633 1085.47 752.483 1085.82 752.483 1086.25V1091H760.533V1094.75H752.483V1112.25H758.533V1116H743.983V1112.25H748.233V1094.75H743.983V1091H748.233V1086.5C748.233 1084.8 748.717 1083.47 749.683 1082.5C750.65 1081.5 751.9 1081 753.433 1081H761.033V1084.75H754.233ZM781.883 1081V1085.5H777.133V1081H781.883ZM770.033 1094.75V1091H781.633V1112.25H789.033V1116H777.383V1094.75H770.033ZM807.537 1116C804.604 1116 802.454 1115.38 801.087 1114.15C799.72 1112.88 799.037 1110.83 799.037 1108V1099C799.037 1096.2 799.72 1094.17 801.087 1092.9C802.487 1091.63 804.637 1091 807.537 1091H813.987V1094.75H807.037C805.804 1094.75 804.87 1095.03 804.237 1095.6C803.604 1096.17 803.287 1096.97 803.287 1098V1109C803.287 1110.03 803.604 1110.83 804.237 1111.4C804.87 1111.97 805.804 1112.25 807.037 1112.25H813.987V1116H807.537ZM835.889 1081V1085.5H831.139V1081H835.889ZM824.039 1094.75V1091H835.639V1112.25H843.039V1116H831.389V1094.75H824.039ZM867.891 1116C867.458 1116 866.974 1115.87 866.441 1115.6C865.941 1115.33 865.508 1114.97 865.141 1114.5C864.374 1115.5 863.358 1116 862.091 1116H857.641C855.108 1116 853.258 1115.5 852.091 1114.5C850.958 1113.47 850.391 1111.72 850.391 1109.25V1108.25C850.391 1103.08 852.824 1100.5 857.691 1100.5H863.891V1098C863.891 1096.97 863.574 1096.17 862.941 1095.6C862.308 1095.03 861.374 1094.75 860.141 1094.75H852.391V1091H859.641C862.541 1091 864.674 1091.63 866.041 1092.9C867.441 1094.17 868.141 1096.2 868.141 1099V1111C868.141 1111.5 868.324 1111.88 868.691 1112.15C869.091 1112.38 869.741 1112.5 870.641 1112.5V1116H867.891ZM861.591 1112.25C862.591 1112.25 863.224 1112.02 863.491 1111.55C863.758 1111.08 863.891 1110.48 863.891 1109.75V1104.25H857.641C856.774 1104.25 856.058 1104.53 855.491 1105.1C854.924 1105.67 854.641 1106.38 854.641 1107.25V1109.75C854.641 1110.62 854.841 1111.25 855.241 1111.65C855.641 1112.05 856.274 1112.25 857.141 1112.25H861.591ZM889.143 1116C888.01 1116 887.01 1115.6 886.143 1114.8C885.31 1114 884.893 1112.73 884.893 1111V1084.75H877.543V1081H889.143V1110.75C889.143 1111.28 889.276 1111.67 889.543 1111.9C889.81 1112.13 890.26 1112.25 890.893 1112.25H897.543V1116H889.143ZM951.397 1117.75C951.397 1120.02 950.714 1121.7 949.347 1122.8C948.014 1123.93 945.914 1124.5 943.047 1124.5H932.647V1120.75H943.547C944.747 1120.75 945.647 1120.52 946.247 1120.05C946.847 1119.58 947.147 1118.98 947.147 1118.25V1116.65C947.147 1115.88 946.847 1115.28 946.247 1114.85C945.647 1114.38 944.747 1114.15 943.547 1114.15H934.897V1107.25C933.797 1106.65 932.98 1105.78 932.447 1104.65C931.914 1103.52 931.647 1102.05 931.647 1100.25V1099C931.647 1096.2 932.33 1094.17 933.697 1092.9C935.097 1091.63 937.247 1091 940.147 1091H950.647V1100.25C950.647 1102.75 949.964 1104.72 948.597 1106.15C947.23 1107.55 945.414 1108.25 943.147 1108.25H939.147V1110.4H943.047C945.914 1110.4 948.014 1110.97 949.347 1112.1C950.714 1113.2 951.397 1114.88 951.397 1117.15V1117.75ZM943.147 1104.5C944.18 1104.5 944.964 1104.17 945.497 1103.5C946.03 1102.83 946.33 1102.13 946.397 1101.4V1094.75H939.647C938.414 1094.75 937.48 1095.03 936.847 1095.6C936.214 1096.17 935.897 1096.97 935.897 1098V1101.25C935.897 1102.28 936.214 1103.08 936.847 1103.65C937.48 1104.22 938.414 1104.5 939.647 1104.5H943.147ZM968.249 1116C965.315 1116 963.165 1115.38 961.799 1114.15C960.432 1112.88 959.749 1110.83 959.749 1108V1099C959.749 1096.13 960.365 1094.08 961.599 1092.85C962.832 1091.62 964.882 1091 967.749 1091H970.099C972.465 1091 974.249 1091.67 975.449 1093C976.682 1094.3 977.299 1096.22 977.299 1098.75V1105.25H963.999V1109C963.999 1110.03 964.315 1110.83 964.949 1111.4C965.582 1111.97 966.515 1112.25 967.749 1112.25H975.699V1116H968.249ZM973.149 1097.75C973.149 1096.88 972.865 1096.17 972.299 1095.6C971.732 1095.03 971.015 1094.75 970.149 1094.75H967.249C966.049 1094.75 965.199 1095.03 964.699 1095.6C964.232 1096.13 963.999 1096.93 963.999 1098V1101.5H973.149V1097.75ZM990.701 1112.25V1094.75H987.051V1091H994.701V1092.35C995.801 1091.45 997.134 1091 998.701 1091H1003.85V1095H998.201C997.134 1095 996.334 1095.35 995.801 1096.05C995.267 1096.72 994.984 1097.4 994.951 1098.1V1112.25H1000.4V1116H987.051V1112.25H990.701ZM1029.9 1116C1029.47 1116 1028.99 1115.87 1028.45 1115.6C1027.95 1115.33 1027.52 1114.97 1027.15 1114.5C1026.39 1115.5 1025.37 1116 1024.1 1116H1019.65C1017.12 1116 1015.27 1115.5 1014.1 1114.5C1012.97 1113.47 1012.4 1111.72 1012.4 1109.25V1108.25C1012.4 1103.08 1014.84 1100.5 1019.7 1100.5H1025.9V1098C1025.9 1096.97 1025.59 1096.17 1024.95 1095.6C1024.32 1095.03 1023.39 1094.75 1022.15 1094.75H1014.4V1091H1021.65C1024.55 1091 1026.69 1091.63 1028.05 1092.9C1029.45 1094.17 1030.15 1096.2 1030.15 1099V1111C1030.15 1111.5 1030.34 1111.88 1030.7 1112.15C1031.1 1112.38 1031.75 1112.5 1032.65 1112.5V1116H1029.9ZM1023.6 1112.25C1024.6 1112.25 1025.24 1112.02 1025.5 1111.55C1025.77 1111.08 1025.9 1110.48 1025.9 1109.75V1104.25H1019.65C1018.79 1104.25 1018.07 1104.53 1017.5 1105.1C1016.94 1105.67 1016.65 1106.38 1016.65 1107.25V1109.75C1016.65 1110.62 1016.85 1111.25 1017.25 1111.65C1017.65 1112.05 1018.29 1112.25 1019.15 1112.25H1023.6ZM1051.4 1116C1049.7 1116 1048.4 1115.45 1047.5 1114.35C1046.6 1113.25 1046.15 1111.8 1046.15 1110V1094.75H1041.4V1091H1046.15V1085H1050.4V1091H1057.7V1094.75H1050.4V1110.25C1050.4 1110.98 1050.59 1111.5 1050.95 1111.8C1051.32 1112.1 1051.89 1112.25 1052.65 1112.25H1057.7V1116H1051.4ZM1078.91 1081V1085.5H1074.16V1081H1078.91ZM1067.06 1094.75V1091H1078.66V1112.25H1086.06V1116H1074.41V1094.75H1067.06ZM1093.26 1091H1097.86L1103.71 1112.55L1109.41 1091H1113.86L1106.66 1116H1100.51L1093.26 1091ZM1137.91 1116C1137.48 1116 1136.99 1115.87 1136.46 1115.6C1135.96 1115.33 1135.53 1114.97 1135.16 1114.5C1134.39 1115.5 1133.38 1116 1132.11 1116H1127.66C1125.13 1116 1123.28 1115.5 1122.11 1114.5C1120.98 1113.47 1120.41 1111.72 1120.41 1109.25V1108.25C1120.41 1103.08 1122.84 1100.5 1127.71 1100.5H1133.91V1098C1133.91 1096.97 1133.59 1096.17 1132.96 1095.6C1132.33 1095.03 1131.39 1094.75 1130.16 1094.75H1122.41V1091H1129.66C1132.56 1091 1134.69 1091.63 1136.06 1092.9C1137.46 1094.17 1138.16 1096.2 1138.16 1099V1111C1138.16 1111.5 1138.34 1111.88 1138.71 1112.15C1139.11 1112.38 1139.76 1112.5 1140.66 1112.5V1116H1137.91ZM1131.61 1112.25C1132.61 1112.25 1133.24 1112.02 1133.51 1111.55C1133.78 1111.08 1133.91 1110.48 1133.91 1109.75V1104.25H1127.66C1126.79 1104.25 1126.08 1104.53 1125.51 1105.1C1124.94 1105.67 1124.66 1106.38 1124.66 1107.25V1109.75C1124.66 1110.62 1124.86 1111.25 1125.26 1111.65C1125.66 1112.05 1126.29 1112.25 1127.16 1112.25H1131.61ZM1179.41 1091V1092.2C1180.45 1091.4 1181.78 1091 1183.41 1091H1185.21C1188.15 1091 1190.3 1091.63 1191.66 1092.9C1193.03 1094.13 1193.71 1096.17 1193.71 1099V1108C1193.71 1110.8 1193.01 1112.83 1191.61 1114.1C1190.25 1115.37 1188.11 1116 1185.21 1116H1179.66V1124.5H1175.41V1091H1179.41ZM1182.91 1094.75C1181.81 1094.75 1181 1095.05 1180.46 1095.65C1179.93 1096.22 1179.66 1096.83 1179.66 1097.5V1112.25H1185.71C1186.95 1112.25 1187.88 1111.97 1188.51 1111.4C1189.15 1110.83 1189.46 1110.03 1189.46 1109V1098C1189.46 1096.97 1189.15 1096.17 1188.51 1095.6C1187.88 1095.03 1186.95 1094.75 1185.71 1094.75H1182.91ZM1218.92 1116C1218.48 1116 1218 1115.87 1217.47 1115.6C1216.97 1115.33 1216.53 1114.97 1216.17 1114.5C1215.4 1115.5 1214.38 1116 1213.12 1116H1208.67C1206.13 1116 1204.28 1115.5 1203.12 1114.5C1201.98 1113.47 1201.42 1111.72 1201.42 1109.25V1108.25C1201.42 1103.08 1203.85 1100.5 1208.72 1100.5H1214.92V1098C1214.92 1096.97 1214.6 1096.17 1213.97 1095.6C1213.33 1095.03 1212.4 1094.75 1211.17 1094.75H1203.42V1091H1210.67C1213.57 1091 1215.7 1091.63 1217.07 1092.9C1218.47 1094.17 1219.17 1096.2 1219.17 1099V1111C1219.17 1111.5 1219.35 1111.88 1219.72 1112.15C1220.12 1112.38 1220.77 1112.5 1221.67 1112.5V1116H1218.92ZM1212.62 1112.25C1213.62 1112.25 1214.25 1112.02 1214.52 1111.55C1214.78 1111.08 1214.92 1110.48 1214.92 1109.75V1104.25H1208.67C1207.8 1104.25 1207.08 1104.53 1206.52 1105.1C1205.95 1105.67 1205.67 1106.38 1205.67 1107.25V1109.75C1205.67 1110.62 1205.87 1111.25 1206.27 1111.65C1206.67 1112.05 1207.3 1112.25 1208.17 1112.25H1212.62ZM1233.72 1112.25V1094.75H1230.07V1091H1237.72V1092.35C1238.82 1091.45 1240.15 1091 1241.72 1091H1246.87V1095H1241.22C1240.15 1095 1239.35 1095.35 1238.82 1096.05C1238.29 1096.72 1238 1097.4 1237.97 1098.1V1112.25H1243.42V1116H1230.07V1112.25H1233.72ZM1272.92 1116C1272.49 1116 1272 1115.87 1271.47 1115.6C1270.97 1115.33 1270.54 1114.97 1270.17 1114.5C1269.4 1115.5 1268.39 1116 1267.12 1116H1262.67C1260.14 1116 1258.29 1115.5 1257.12 1114.5C1255.99 1113.47 1255.42 1111.72 1255.42 1109.25V1108.25C1255.42 1103.08 1257.85 1100.5 1262.72 1100.5H1268.92V1098C1268.92 1096.97 1268.6 1096.17 1267.97 1095.6C1267.34 1095.03 1266.4 1094.75 1265.17 1094.75H1257.42V1091H1264.67C1267.57 1091 1269.7 1091.63 1271.07 1092.9C1272.47 1094.17 1273.17 1096.2 1273.17 1099V1111C1273.17 1111.5 1273.35 1111.88 1273.72 1112.15C1274.12 1112.38 1274.77 1112.5 1275.67 1112.5V1116H1272.92ZM1266.62 1112.25C1267.62 1112.25 1268.25 1112.02 1268.52 1111.55C1268.79 1111.08 1268.92 1110.48 1268.92 1109.75V1104.25H1262.67C1261.8 1104.25 1261.09 1104.53 1260.52 1105.1C1259.95 1105.67 1259.67 1106.38 1259.67 1107.25V1109.75C1259.67 1110.62 1259.87 1111.25 1260.27 1111.65C1260.67 1112.05 1261.3 1112.25 1262.17 1112.25H1266.62ZM1328.72 1108C1328.72 1110.8 1328.02 1112.83 1326.62 1114.1C1325.26 1115.37 1323.12 1116 1320.22 1116H1310.42V1081H1314.67V1092C1315.67 1091.33 1316.92 1091 1318.42 1091H1320.22C1323.16 1091 1325.31 1091.63 1326.67 1092.9C1328.04 1094.13 1328.72 1096.17 1328.72 1099V1108ZM1317.92 1094.75C1316.82 1094.75 1316.01 1095.05 1315.47 1095.65C1314.94 1096.22 1314.67 1096.83 1314.67 1097.5V1112.25H1320.72C1321.96 1112.25 1322.89 1111.97 1323.52 1111.4C1324.16 1110.83 1324.47 1110.03 1324.47 1109V1098C1324.47 1096.97 1324.16 1096.17 1323.52 1095.6C1322.89 1095.03 1321.96 1094.75 1320.72 1094.75H1317.92ZM1351.43 1114.85C1350.33 1115.62 1348.99 1116 1347.43 1116H1345.73C1343.03 1116 1341.01 1115.37 1339.68 1114.1C1338.38 1112.83 1337.73 1110.8 1337.73 1108V1091H1341.98V1109C1341.98 1110 1342.26 1110.8 1342.83 1111.4C1343.43 1111.97 1344.23 1112.25 1345.23 1112.25H1347.93C1348.99 1112.25 1349.78 1111.98 1350.28 1111.45C1350.81 1110.92 1351.11 1110.32 1351.18 1109.65V1091H1355.43V1116H1351.43V1114.85ZM1381.18 1109.75C1381.18 1111.85 1380.53 1113.42 1379.23 1114.45C1377.96 1115.48 1376.11 1116 1373.68 1116H1366.23V1112.25H1374.18C1375.08 1112.25 1375.76 1112.07 1376.23 1111.7C1376.69 1111.3 1376.93 1110.73 1376.93 1110V1107.35C1376.93 1105.85 1376.21 1105.1 1374.78 1105.1H1372.93C1370.59 1105.1 1368.84 1104.6 1367.68 1103.6C1366.54 1102.57 1365.98 1100.95 1365.98 1098.75V1097.3C1365.98 1095.07 1366.61 1093.47 1367.88 1092.5C1369.14 1091.5 1371.01 1091 1373.48 1091H1380.18V1094.75H1372.98C1372.14 1094.75 1371.48 1094.95 1370.98 1095.35C1370.48 1095.72 1370.23 1096.27 1370.23 1097V1098.8C1370.23 1099.57 1370.44 1100.13 1370.88 1100.5C1371.34 1100.87 1371.93 1101.05 1372.63 1101.05H1374.33C1376.56 1101.05 1378.26 1101.6 1379.43 1102.7C1380.59 1103.77 1381.18 1105.37 1381.18 1107.5V1109.75ZM1401.58 1116C1398.65 1116 1396.5 1115.38 1395.13 1114.15C1393.76 1112.88 1393.08 1110.83 1393.08 1108V1099C1393.08 1096.2 1393.76 1094.17 1395.13 1092.9C1396.53 1091.63 1398.68 1091 1401.58 1091H1408.03V1094.75H1401.08C1399.85 1094.75 1398.91 1095.03 1398.28 1095.6C1397.65 1096.17 1397.33 1096.97 1397.33 1098V1109C1397.33 1110.03 1397.65 1110.83 1398.28 1111.4C1398.91 1111.97 1399.85 1112.25 1401.08 1112.25H1408.03V1116H1401.58ZM1434.93 1116C1434.5 1116 1434.02 1115.87 1433.48 1115.6C1432.98 1115.33 1432.55 1114.97 1432.18 1114.5C1431.42 1115.5 1430.4 1116 1429.13 1116H1424.68C1422.15 1116 1420.3 1115.5 1419.13 1114.5C1418 1113.47 1417.43 1111.72 1417.43 1109.25V1108.25C1417.43 1103.08 1419.87 1100.5 1424.73 1100.5H1430.93V1098C1430.93 1096.97 1430.62 1096.17 1429.98 1095.6C1429.35 1095.03 1428.42 1094.75 1427.18 1094.75H1419.43V1091H1426.68C1429.58 1091 1431.72 1091.63 1433.08 1092.9C1434.48 1094.17 1435.18 1096.2 1435.18 1099V1111C1435.18 1111.5 1435.37 1111.88 1435.73 1112.15C1436.13 1112.38 1436.78 1112.5 1437.68 1112.5V1116H1434.93ZM1428.63 1112.25C1429.63 1112.25 1430.27 1112.02 1430.53 1111.55C1430.8 1111.08 1430.93 1110.48 1430.93 1109.75V1104.25H1424.68C1423.82 1104.25 1423.1 1104.53 1422.53 1105.1C1421.97 1105.67 1421.68 1106.38 1421.68 1107.25V1109.75C1421.68 1110.62 1421.88 1111.25 1422.28 1111.65C1422.68 1112.05 1423.32 1112.25 1424.18 1112.25H1428.63ZM1481.29 1116C1478.35 1116 1476.2 1115.38 1474.84 1114.15C1473.47 1112.88 1472.79 1110.83 1472.79 1108V1099C1472.79 1096.13 1473.4 1094.08 1474.64 1092.85C1475.87 1091.62 1477.92 1091 1480.79 1091H1483.14C1485.5 1091 1487.29 1091.67 1488.49 1093C1489.72 1094.3 1490.34 1096.22 1490.34 1098.75V1105.25H1477.04V1109C1477.04 1110.03 1477.35 1110.83 1477.99 1111.4C1478.62 1111.97 1479.55 1112.25 1480.79 1112.25H1488.74V1116H1481.29ZM1486.19 1097.75C1486.19 1096.88 1485.9 1096.17 1485.34 1095.6C1484.77 1095.03 1484.05 1094.75 1483.19 1094.75H1480.29C1479.09 1094.75 1478.24 1095.03 1477.74 1095.6C1477.27 1096.13 1477.04 1096.93 1477.04 1098V1101.5H1486.19V1097.75ZM295.85 1141V1145.5H291.1V1141H295.85ZM284 1154.75V1151H295.6V1172.25H303V1176H291.35V1154.75H284ZM325.752 1174.85C324.652 1175.62 323.319 1176 321.752 1176H319.702C316.769 1176 314.619 1175.38 313.252 1174.15C311.885 1172.88 311.202 1170.83 311.202 1168V1159C311.202 1156.2 311.885 1154.17 313.252 1152.9C314.652 1151.63 316.802 1151 319.702 1151H325.502V1141H329.752V1176H325.752V1174.85ZM322.252 1172.25C323.352 1172.25 324.169 1171.97 324.702 1171.4C325.235 1170.8 325.502 1170.17 325.502 1169.5V1154.75H319.202C317.969 1154.75 317.035 1155.03 316.402 1155.6C315.769 1156.17 315.452 1156.97 315.452 1158V1169C315.452 1170.03 315.769 1170.83 316.402 1171.4C317.035 1171.97 317.969 1172.25 319.202 1172.25H322.252ZM347.204 1176C344.271 1176 342.121 1175.38 340.754 1174.15C339.387 1172.88 338.704 1170.83 338.704 1168V1159C338.704 1156.13 339.321 1154.08 340.554 1152.85C341.787 1151.62 343.837 1151 346.704 1151H349.054C351.421 1151 353.204 1151.67 354.404 1153C355.637 1154.3 356.254 1156.22 356.254 1158.75V1165.25H342.954V1169C342.954 1170.03 343.271 1170.83 343.904 1171.4C344.537 1171.97 345.471 1172.25 346.704 1172.25H354.654V1176H347.204ZM352.104 1157.75C352.104 1156.88 351.821 1156.17 351.254 1155.6C350.687 1155.03 349.971 1154.75 349.104 1154.75H346.204C345.004 1154.75 344.154 1155.03 343.654 1155.6C343.187 1156.13 342.954 1156.93 342.954 1158V1161.5H352.104V1157.75ZM369.356 1151V1152.2C370.389 1151.4 371.723 1151 373.356 1151H375.656C378.356 1151 380.356 1151.63 381.656 1152.9C382.989 1154.17 383.656 1156.2 383.656 1159V1176H379.406V1158C379.406 1157 379.106 1156.22 378.506 1155.65C377.939 1155.05 377.156 1154.75 376.156 1154.75H372.856C371.756 1154.75 370.939 1155.05 370.406 1155.65C369.873 1156.22 369.606 1156.83 369.606 1157.5V1176H365.356V1151H369.356ZM403.358 1176C401.658 1176 400.358 1175.45 399.458 1174.35C398.558 1173.25 398.108 1171.8 398.108 1170V1154.75H393.358V1151H398.108V1145H402.358V1151H409.658V1154.75H402.358V1170.25C402.358 1170.98 402.541 1171.5 402.908 1171.8C403.274 1172.1 403.841 1172.25 404.608 1172.25H409.658V1176H403.358ZM430.86 1141V1145.5H426.11V1141H430.86ZM419.01 1154.75V1151H430.61V1172.25H438.01V1176H426.36V1154.75H419.01ZM457.212 1144.75C456.678 1144.75 456.245 1144.9 455.912 1145.2C455.612 1145.47 455.462 1145.82 455.462 1146.25V1151H463.512V1154.75H455.462V1172.25H461.512V1176H446.962V1172.25H451.212V1154.75H446.962V1151H451.212V1146.5C451.212 1144.8 451.695 1143.47 452.662 1142.5C453.628 1141.5 454.878 1141 456.412 1141H464.012V1144.75H457.212ZM484.862 1141V1145.5H480.112V1141H484.862ZM473.012 1154.75V1151H484.612V1172.25H492.012V1176H480.362V1154.75H473.012ZM510.516 1176C507.582 1176 505.432 1175.38 504.066 1174.15C502.699 1172.88 502.016 1170.83 502.016 1168V1159C502.016 1156.2 502.699 1154.17 504.066 1152.9C505.466 1151.63 507.616 1151 510.516 1151H516.966V1154.75H510.016C508.782 1154.75 507.849 1155.03 507.216 1155.6C506.582 1156.17 506.266 1156.97 506.266 1158V1169C506.266 1170.03 506.582 1170.83 507.216 1171.4C507.849 1171.97 508.782 1172.25 510.016 1172.25H516.966V1176H510.516ZM543.868 1176C543.434 1176 542.951 1175.87 542.418 1175.6C541.918 1175.33 541.484 1174.97 541.118 1174.5C540.351 1175.5 539.334 1176 538.068 1176H533.618C531.084 1176 529.234 1175.5 528.068 1174.5C526.934 1173.47 526.368 1171.72 526.368 1169.25V1168.25C526.368 1163.08 528.801 1160.5 533.668 1160.5H539.868V1158C539.868 1156.97 539.551 1156.17 538.918 1155.6C538.284 1155.03 537.351 1154.75 536.118 1154.75H528.368V1151H535.618C538.518 1151 540.651 1151.63 542.018 1152.9C543.418 1154.17 544.118 1156.2 544.118 1159V1171C544.118 1171.5 544.301 1171.88 544.668 1172.15C545.068 1172.38 545.718 1172.5 546.618 1172.5V1176H543.868ZM537.568 1172.25C538.568 1172.25 539.201 1172.02 539.468 1171.55C539.734 1171.08 539.868 1170.48 539.868 1169.75V1164.25H533.618C532.751 1164.25 532.034 1164.53 531.468 1165.1C530.901 1165.67 530.618 1166.38 530.618 1167.25V1169.75C530.618 1170.62 530.818 1171.25 531.218 1171.65C531.618 1172.05 532.251 1172.25 533.118 1172.25H537.568ZM564.67 1182.8C565.77 1182.8 566.32 1182.28 566.32 1181.25C566.32 1180.68 566.17 1180.3 565.87 1180.1C565.603 1179.9 565.17 1179.8 564.57 1179.8H562.12V1175.85C560.053 1175.55 558.52 1174.78 557.52 1173.55C556.52 1172.28 556.02 1170.43 556.02 1168V1159C556.02 1156.2 556.703 1154.17 558.07 1152.9C559.47 1151.63 561.62 1151 564.52 1151H570.97V1154.75H564.02C562.786 1154.75 561.853 1155.03 561.22 1155.6C560.586 1156.17 560.27 1156.97 560.27 1158V1169C560.27 1170.03 560.586 1170.83 561.22 1171.4C561.853 1171.97 562.786 1172.25 564.02 1172.25H570.97V1176H565.62V1177.05C567.153 1177.05 568.253 1177.33 568.92 1177.9C569.62 1178.5 569.97 1179.62 569.97 1181.25C569.97 1183.18 569.536 1184.45 568.67 1185.05C567.836 1185.68 566.803 1186 565.57 1186H561.32V1182.8H564.67ZM582.321 1142.65C582.621 1142.48 583.238 1142.17 584.171 1141.7C585.105 1141.23 585.771 1141 586.171 1141H586.921C587.188 1141 587.588 1141.1 588.121 1141.3C588.655 1141.5 589.205 1141.73 589.771 1142C591.171 1142.67 592.071 1143 592.471 1143H592.971C593.238 1143 593.788 1142.75 594.621 1142.25C595.455 1141.75 596.021 1141.4 596.321 1141.2V1144.8C596.055 1144.97 595.505 1145.28 594.671 1145.75C593.871 1146.22 593.288 1146.45 592.921 1146.45H592.171C592.005 1146.45 591.255 1146.17 589.921 1145.6C588.188 1144.83 587.105 1144.45 586.671 1144.45H586.171C585.871 1144.45 585.238 1144.7 584.271 1145.2C583.305 1145.7 582.655 1146.05 582.321 1146.25V1142.65ZM597.871 1176C597.438 1176 596.955 1175.87 596.421 1175.6C595.921 1175.33 595.488 1174.97 595.121 1174.5C594.355 1175.5 593.338 1176 592.071 1176H587.621C585.088 1176 583.238 1175.5 582.071 1174.5C580.938 1173.47 580.371 1171.72 580.371 1169.25V1168.25C580.371 1163.08 582.805 1160.5 587.671 1160.5H593.871V1158C593.871 1156.97 593.555 1156.17 592.921 1155.6C592.288 1155.03 591.355 1154.75 590.121 1154.75H582.371V1151H589.621C592.521 1151 594.655 1151.63 596.021 1152.9C597.421 1154.17 598.121 1156.2 598.121 1159V1171C598.121 1171.5 598.305 1171.88 598.671 1172.15C599.071 1172.38 599.721 1172.5 600.621 1172.5V1176H597.871ZM591.571 1172.25C592.571 1172.25 593.205 1172.02 593.471 1171.55C593.738 1171.08 593.871 1170.48 593.871 1169.75V1164.25H587.621C586.755 1164.25 586.038 1164.53 585.471 1165.1C584.905 1165.67 584.621 1166.38 584.621 1167.25V1169.75C584.621 1170.62 584.821 1171.25 585.221 1171.65C585.621 1172.05 586.255 1172.25 587.121 1172.25H591.571ZM626.823 1168C626.823 1170.8 626.123 1172.83 624.723 1174.1C623.357 1175.37 621.223 1176 618.323 1176H616.673C613.773 1176 611.623 1175.37 610.223 1174.1C608.857 1172.83 608.173 1170.8 608.173 1168V1159C608.173 1156.2 608.857 1154.17 610.223 1152.9C611.623 1151.63 613.773 1151 616.673 1151H618.323C621.223 1151 623.357 1151.63 624.723 1152.9C626.123 1154.17 626.823 1156.2 626.823 1159V1168ZM622.573 1158C622.573 1156.97 622.257 1156.17 621.623 1155.6C620.99 1155.03 620.057 1154.75 618.823 1154.75H616.173C614.94 1154.75 614.007 1155.03 613.373 1155.6C612.74 1156.17 612.423 1156.97 612.423 1158V1169C612.423 1170.03 612.74 1170.83 613.373 1171.4C614.007 1171.97 614.94 1172.25 616.173 1172.25H618.823C620.057 1172.25 620.99 1171.97 621.623 1171.4C622.257 1170.83 622.573 1170.03 622.573 1169V1158ZM676.777 1174.85C675.677 1175.62 674.344 1176 672.777 1176H670.727C667.794 1176 665.644 1175.38 664.277 1174.15C662.911 1172.88 662.227 1170.83 662.227 1168V1159C662.227 1156.2 662.911 1154.17 664.277 1152.9C665.677 1151.63 667.827 1151 670.727 1151H676.527V1141H680.777V1176H676.777V1174.85ZM673.277 1172.25C674.377 1172.25 675.194 1171.97 675.727 1171.4C676.261 1170.8 676.527 1170.17 676.527 1169.5V1154.75H670.227C668.994 1154.75 668.061 1155.03 667.427 1155.6C666.794 1156.17 666.477 1156.97 666.477 1158V1169C666.477 1170.03 666.794 1170.83 667.427 1171.4C668.061 1171.97 668.994 1172.25 670.227 1172.25H673.277ZM698.229 1176C695.296 1176 693.146 1175.38 691.779 1174.15C690.413 1172.88 689.729 1170.83 689.729 1168V1159C689.729 1156.13 690.346 1154.08 691.579 1152.85C692.813 1151.62 694.863 1151 697.729 1151H700.079C702.446 1151 704.229 1151.67 705.429 1153C706.663 1154.3 707.279 1156.22 707.279 1158.75V1165.25H693.979V1169C693.979 1170.03 694.296 1170.83 694.929 1171.4C695.563 1171.97 696.496 1172.25 697.729 1172.25H705.679V1176H698.229ZM703.129 1157.75C703.129 1156.88 702.846 1156.17 702.279 1155.6C701.713 1155.03 700.996 1154.75 700.129 1154.75H697.229C696.029 1154.75 695.179 1155.03 694.679 1155.6C694.213 1156.13 693.979 1156.93 693.979 1158V1161.5H703.129V1157.75ZM759.883 1176C759.45 1176 758.967 1175.87 758.433 1175.6C757.933 1175.33 757.5 1174.97 757.133 1174.5C756.367 1175.5 755.35 1176 754.083 1176H749.633C747.1 1176 745.25 1175.5 744.083 1174.5C742.95 1173.47 742.383 1171.72 742.383 1169.25V1168.25C742.383 1163.08 744.817 1160.5 749.683 1160.5H755.883V1158C755.883 1156.97 755.567 1156.17 754.933 1155.6C754.3 1155.03 753.367 1154.75 752.133 1154.75H744.383V1151H751.633C754.533 1151 756.667 1151.63 758.033 1152.9C759.433 1154.17 760.133 1156.2 760.133 1159V1171C760.133 1171.5 760.317 1171.88 760.683 1172.15C761.083 1172.38 761.733 1172.5 762.633 1172.5V1176H759.883ZM753.583 1172.25C754.583 1172.25 755.217 1172.02 755.483 1171.55C755.75 1171.08 755.883 1170.48 755.883 1169.75V1164.25H749.633C748.767 1164.25 748.05 1164.53 747.483 1165.1C746.917 1165.67 746.633 1166.38 746.633 1167.25V1169.75C746.633 1170.62 746.833 1171.25 747.233 1171.65C747.633 1172.05 748.267 1172.25 749.133 1172.25H753.583ZM784.385 1174.85C783.285 1175.62 781.952 1176 780.385 1176H778.685C775.985 1176 773.968 1175.37 772.635 1174.1C771.335 1172.83 770.685 1170.8 770.685 1168V1151H774.935V1169C774.935 1170 775.218 1170.8 775.785 1171.4C776.385 1171.97 777.185 1172.25 778.185 1172.25H780.885C781.952 1172.25 782.735 1171.98 783.235 1171.45C783.768 1170.92 784.068 1170.32 784.135 1169.65V1151H788.385V1176H784.385V1174.85ZM808.387 1176C806.687 1176 805.387 1175.45 804.487 1174.35C803.587 1173.25 803.137 1171.8 803.137 1170V1154.75H798.387V1151H803.137V1145H807.387V1151H814.687V1154.75H807.387V1170.25C807.387 1170.98 807.57 1171.5 807.937 1171.8C808.304 1172.1 808.87 1172.25 809.637 1172.25H814.687V1176H808.387ZM842.839 1168C842.839 1170.8 842.139 1172.83 840.739 1174.1C839.372 1175.37 837.239 1176 834.339 1176H832.689C829.789 1176 827.639 1175.37 826.239 1174.1C824.872 1172.83 824.189 1170.8 824.189 1168V1159C824.189 1156.2 824.872 1154.17 826.239 1152.9C827.639 1151.63 829.789 1151 832.689 1151H834.339C837.239 1151 839.372 1151.63 840.739 1152.9C842.139 1154.17 842.839 1156.2 842.839 1159V1168ZM838.589 1158C838.589 1156.97 838.272 1156.17 837.639 1155.6C837.006 1155.03 836.072 1154.75 834.839 1154.75H832.189C830.956 1154.75 830.022 1155.03 829.389 1155.6C828.756 1156.17 828.439 1156.97 828.439 1158V1169C828.439 1170.03 828.756 1170.83 829.389 1171.4C830.022 1171.97 830.956 1172.25 832.189 1172.25H834.839C836.072 1172.25 837.006 1171.97 837.639 1171.4C838.272 1170.83 838.589 1170.03 838.589 1169V1158ZM855.691 1172.25V1154.75H852.041V1151H859.691V1152.35C860.791 1151.45 862.124 1151 863.691 1151H868.841V1155H863.191C862.124 1155 861.324 1155.35 860.791 1156.05C860.258 1156.72 859.974 1157.4 859.941 1158.1V1172.25H865.391V1176H852.041V1172.25H855.691ZM887.243 1176C884.31 1176 882.16 1175.38 880.793 1174.15C879.426 1172.88 878.743 1170.83 878.743 1168V1159C878.743 1156.13 879.36 1154.08 880.593 1152.85C881.826 1151.62 883.876 1151 886.743 1151H889.093C891.46 1151 893.243 1151.67 894.443 1153C895.676 1154.3 896.293 1156.22 896.293 1158.75V1165.25H882.993V1169C882.993 1170.03 883.31 1170.83 883.943 1171.4C884.576 1171.97 885.51 1172.25 886.743 1172.25H894.693V1176H887.243ZM892.143 1157.75C892.143 1156.88 891.86 1156.17 891.293 1155.6C890.726 1155.03 890.01 1154.75 889.143 1154.75H886.243C885.043 1154.75 884.193 1155.03 883.693 1155.6C883.226 1156.13 882.993 1156.93 882.993 1158V1161.5H892.143V1157.75ZM922.145 1169.75C922.145 1171.85 921.495 1173.42 920.195 1174.45C918.928 1175.48 917.078 1176 914.645 1176H907.195V1172.25H915.145C916.045 1172.25 916.728 1172.07 917.195 1171.7C917.662 1171.3 917.895 1170.73 917.895 1170V1167.35C917.895 1165.85 917.178 1165.1 915.745 1165.1H913.895C911.562 1165.1 909.812 1164.6 908.645 1163.6C907.512 1162.57 906.945 1160.95 906.945 1158.75V1157.3C906.945 1155.07 907.578 1153.47 908.845 1152.5C910.112 1151.5 911.978 1151 914.445 1151H921.145V1154.75H913.945C913.112 1154.75 912.445 1154.95 911.945 1155.35C911.445 1155.72 911.195 1156.27 911.195 1157V1158.8C911.195 1159.57 911.412 1160.13 911.845 1160.5C912.312 1160.87 912.895 1161.05 913.595 1161.05H915.295C917.528 1161.05 919.228 1161.6 920.395 1162.7C921.562 1163.77 922.145 1165.37 922.145 1167.5V1169.75ZM963.699 1172.25V1154.75H960.049V1151H967.699V1152.35C968.799 1151.45 970.132 1151 971.699 1151H976.849V1155H971.199C970.132 1155 969.332 1155.35 968.799 1156.05C968.265 1156.72 967.982 1157.4 967.949 1158.1V1172.25H973.399V1176H960.049V1172.25H963.699ZM995.251 1176C992.317 1176 990.167 1175.38 988.801 1174.15C987.434 1172.88 986.751 1170.83 986.751 1168V1159C986.751 1156.13 987.367 1154.08 988.601 1152.85C989.834 1151.62 991.884 1151 994.751 1151H997.101C999.467 1151 1001.25 1151.67 1002.45 1153C1003.68 1154.3 1004.3 1156.22 1004.3 1158.75V1165.25H991.001V1169C991.001 1170.03 991.317 1170.83 991.951 1171.4C992.584 1171.97 993.517 1172.25 994.751 1172.25H1002.7V1176H995.251ZM1000.15 1157.75C1000.15 1156.88 999.867 1156.17 999.301 1155.6C998.734 1155.03 998.017 1154.75 997.151 1154.75H994.251C993.051 1154.75 992.201 1155.03 991.701 1155.6C991.234 1156.13 991.001 1156.93 991.001 1158V1161.5H1000.15V1157.75ZM1024.15 1176C1023.02 1176 1022.02 1175.6 1021.15 1174.8C1020.32 1174 1019.9 1172.73 1019.9 1171V1144.75H1012.55V1141H1024.15V1170.75C1024.15 1171.28 1024.29 1171.67 1024.55 1171.9C1024.82 1172.13 1025.27 1172.25 1025.9 1172.25H1032.55V1176H1024.15ZM1049.25 1176C1046.32 1176 1044.17 1175.38 1042.8 1174.15C1041.44 1172.88 1040.75 1170.83 1040.75 1168V1159C1040.75 1156.13 1041.37 1154.08 1042.6 1152.85C1043.84 1151.62 1045.89 1151 1048.75 1151H1051.1C1053.47 1151 1055.25 1151.67 1056.45 1153C1057.69 1154.3 1058.3 1156.22 1058.3 1158.75V1165.25H1045V1169C1045 1170.03 1045.32 1170.83 1045.95 1171.4C1046.59 1171.97 1047.52 1172.25 1048.75 1172.25H1056.7V1176H1049.25ZM1054.15 1157.75C1054.15 1156.88 1053.87 1156.17 1053.3 1155.6C1052.74 1155.03 1052.02 1154.75 1051.15 1154.75H1048.25C1047.05 1154.75 1046.2 1155.03 1045.7 1155.6C1045.24 1156.13 1045 1156.93 1045 1158V1161.5H1054.15V1157.75ZM1066.26 1151H1070.86L1076.71 1172.55L1082.41 1151H1086.86L1079.66 1176H1073.51L1066.26 1151ZM1110.91 1176C1110.48 1176 1109.99 1175.87 1109.46 1175.6C1108.96 1175.33 1108.53 1174.97 1108.16 1174.5C1107.39 1175.5 1106.38 1176 1105.11 1176H1100.66C1098.13 1176 1096.28 1175.5 1095.11 1174.5C1093.98 1173.47 1093.41 1171.72 1093.41 1169.25V1168.25C1093.41 1163.08 1095.84 1160.5 1100.71 1160.5H1106.91V1158C1106.91 1156.97 1106.59 1156.17 1105.96 1155.6C1105.33 1155.03 1104.39 1154.75 1103.16 1154.75H1095.41V1151H1102.66C1105.56 1151 1107.69 1151.63 1109.06 1152.9C1110.46 1154.17 1111.16 1156.2 1111.16 1159V1171C1111.16 1171.5 1111.34 1171.88 1111.71 1172.15C1112.11 1172.38 1112.76 1172.5 1113.66 1172.5V1176H1110.91ZM1104.61 1172.25C1105.61 1172.25 1106.24 1172.02 1106.51 1171.55C1106.78 1171.08 1106.91 1170.48 1106.91 1169.75V1164.25H1100.66C1099.79 1164.25 1099.08 1164.53 1098.51 1165.1C1097.94 1165.67 1097.66 1166.38 1097.66 1167.25V1169.75C1097.66 1170.62 1097.86 1171.25 1098.26 1171.65C1098.66 1172.05 1099.29 1172.25 1100.16 1172.25H1104.61ZM1125.41 1151V1152.2C1126.44 1151.4 1127.78 1151 1129.41 1151H1131.71C1134.41 1151 1136.41 1151.63 1137.71 1152.9C1139.04 1154.17 1139.71 1156.2 1139.71 1159V1176H1135.46V1158C1135.46 1157 1135.16 1156.22 1134.56 1155.65C1133.99 1155.05 1133.21 1154.75 1132.21 1154.75H1128.91C1127.81 1154.75 1126.99 1155.05 1126.46 1155.65C1125.93 1156.22 1125.66 1156.83 1125.66 1157.5V1176H1121.41V1151H1125.41ZM1159.41 1176C1157.71 1176 1156.41 1175.45 1155.51 1174.35C1154.61 1173.25 1154.16 1171.8 1154.16 1170V1154.75H1149.41V1151H1154.16V1145H1158.41V1151H1165.71V1154.75H1158.41V1170.25C1158.41 1170.98 1158.6 1171.5 1158.96 1171.8C1159.33 1172.1 1159.9 1172.25 1160.66 1172.25H1165.71V1176H1159.41ZM1184.26 1176C1181.33 1176 1179.18 1175.38 1177.81 1174.15C1176.45 1172.88 1175.76 1170.83 1175.76 1168V1159C1175.76 1156.13 1176.38 1154.08 1177.61 1152.85C1178.85 1151.62 1180.9 1151 1183.76 1151H1186.11C1188.48 1151 1190.26 1151.67 1191.46 1153C1192.7 1154.3 1193.31 1156.22 1193.31 1158.75V1165.25H1180.01V1169C1180.01 1170.03 1180.33 1170.83 1180.96 1171.4C1181.6 1171.97 1182.53 1172.25 1183.76 1172.25H1191.71V1176H1184.26ZM1189.16 1157.75C1189.16 1156.88 1188.88 1156.17 1188.31 1155.6C1187.75 1155.03 1187.03 1154.75 1186.16 1154.75H1183.26C1182.06 1154.75 1181.21 1155.03 1180.71 1155.6C1180.25 1156.13 1180.01 1156.93 1180.01 1158V1161.5H1189.16V1157.75ZM1219.17 1169.75C1219.17 1171.85 1218.52 1173.42 1217.22 1174.45C1215.95 1175.48 1214.1 1176 1211.67 1176H1204.22V1172.25H1212.17C1213.07 1172.25 1213.75 1172.07 1214.22 1171.7C1214.68 1171.3 1214.92 1170.73 1214.92 1170V1167.35C1214.92 1165.85 1214.2 1165.1 1212.77 1165.1H1210.92C1208.58 1165.1 1206.83 1164.6 1205.67 1163.6C1204.53 1162.57 1203.97 1160.95 1203.97 1158.75V1157.3C1203.97 1155.07 1204.6 1153.47 1205.87 1152.5C1207.13 1151.5 1209 1151 1211.47 1151H1218.17V1154.75H1210.97C1210.13 1154.75 1209.47 1154.95 1208.97 1155.35C1208.47 1155.72 1208.22 1156.27 1208.22 1157V1158.8C1208.22 1159.57 1208.43 1160.13 1208.87 1160.5C1209.33 1160.87 1209.92 1161.05 1210.62 1161.05H1212.32C1214.55 1161.05 1216.25 1161.6 1217.42 1162.7C1218.58 1163.77 1219.17 1165.37 1219.17 1167.5V1169.75ZM1272.92 1176C1272.49 1176 1272 1175.87 1271.47 1175.6C1270.97 1175.33 1270.54 1174.97 1270.17 1174.5C1269.4 1175.5 1268.39 1176 1267.12 1176H1262.67C1260.14 1176 1258.29 1175.5 1257.12 1174.5C1255.99 1173.47 1255.42 1171.72 1255.42 1169.25V1168.25C1255.42 1163.08 1257.85 1160.5 1262.72 1160.5H1268.92V1158C1268.92 1156.97 1268.6 1156.17 1267.97 1155.6C1267.34 1155.03 1266.4 1154.75 1265.17 1154.75H1257.42V1151H1264.67C1267.57 1151 1269.7 1151.63 1271.07 1152.9C1272.47 1154.17 1273.17 1156.2 1273.17 1159V1171C1273.17 1171.5 1273.35 1171.88 1273.72 1172.15C1274.12 1172.38 1274.77 1172.5 1275.67 1172.5V1176H1272.92ZM1266.62 1172.25C1267.62 1172.25 1268.25 1172.02 1268.52 1171.55C1268.79 1171.08 1268.92 1170.48 1268.92 1169.75V1164.25H1262.67C1261.8 1164.25 1261.09 1164.53 1260.52 1165.1C1259.95 1165.67 1259.67 1166.38 1259.67 1167.25V1169.75C1259.67 1170.62 1259.87 1171.25 1260.27 1171.65C1260.67 1172.05 1261.3 1172.25 1262.17 1172.25H1266.62ZM1301.87 1168C1301.87 1170.8 1301.17 1172.83 1299.77 1174.1C1298.41 1175.37 1296.27 1176 1293.37 1176H1291.72C1288.82 1176 1286.67 1175.37 1285.27 1174.1C1283.91 1172.83 1283.22 1170.8 1283.22 1168V1159C1283.22 1156.2 1283.91 1154.17 1285.27 1152.9C1286.67 1151.63 1288.82 1151 1291.72 1151H1293.37C1296.27 1151 1298.41 1151.63 1299.77 1152.9C1301.17 1154.17 1301.87 1156.2 1301.87 1159V1168ZM1297.62 1158C1297.62 1156.97 1297.31 1156.17 1296.67 1155.6C1296.04 1155.03 1295.11 1154.75 1293.87 1154.75H1291.22C1289.99 1154.75 1289.06 1155.03 1288.42 1155.6C1287.79 1156.17 1287.47 1156.97 1287.47 1158V1169C1287.47 1170.03 1287.79 1170.83 1288.42 1171.4C1289.06 1171.97 1289.99 1172.25 1291.22 1172.25H1293.87C1295.11 1172.25 1296.04 1171.97 1296.67 1171.4C1297.31 1170.83 1297.62 1170.03 1297.62 1169V1158ZM1327.17 1169.75C1327.17 1171.85 1326.52 1173.42 1325.22 1174.45C1323.96 1175.48 1322.11 1176 1319.67 1176H1312.22V1172.25H1320.17C1321.07 1172.25 1321.76 1172.07 1322.22 1171.7C1322.69 1171.3 1322.92 1170.73 1322.92 1170V1167.35C1322.92 1165.85 1322.21 1165.1 1320.77 1165.1H1318.92C1316.59 1165.1 1314.84 1164.6 1313.67 1163.6C1312.54 1162.57 1311.97 1160.95 1311.97 1158.75V1157.3C1311.97 1155.07 1312.61 1153.47 1313.87 1152.5C1315.14 1151.5 1317.01 1151 1319.47 1151H1326.17V1154.75H1318.97C1318.14 1154.75 1317.47 1154.95 1316.97 1155.35C1316.47 1155.72 1316.22 1156.27 1316.22 1157V1158.8C1316.22 1159.57 1316.44 1160.13 1316.87 1160.5C1317.34 1160.87 1317.92 1161.05 1318.62 1161.05H1320.32C1322.56 1161.05 1324.26 1161.6 1325.42 1162.7C1326.59 1163.77 1327.17 1165.37 1327.17 1167.5V1169.75ZM1378.83 1174.85C1377.73 1175.62 1376.39 1176 1374.83 1176H1372.78C1369.84 1176 1367.69 1175.38 1366.33 1174.15C1364.96 1172.88 1364.28 1170.83 1364.28 1168V1159C1364.28 1156.2 1364.96 1154.17 1366.33 1152.9C1367.73 1151.63 1369.88 1151 1372.78 1151H1378.58V1141H1382.83V1176H1378.83V1174.85ZM1375.33 1172.25C1376.43 1172.25 1377.24 1171.97 1377.78 1171.4C1378.31 1170.8 1378.58 1170.17 1378.58 1169.5V1154.75H1372.28C1371.04 1154.75 1370.11 1155.03 1369.48 1155.6C1368.84 1156.17 1368.53 1156.97 1368.53 1158V1169C1368.53 1170.03 1368.84 1170.83 1369.48 1171.4C1370.11 1171.97 1371.04 1172.25 1372.28 1172.25H1375.33ZM1402.93 1141V1145.5H1398.18V1141H1402.93ZM1391.08 1154.75V1151H1402.68V1172.25H1410.08V1176H1398.43V1154.75H1391.08ZM1417.28 1151H1421.88L1427.73 1172.55L1433.43 1151H1437.88L1430.68 1176H1424.53L1417.28 1151ZM1454.28 1176C1451.35 1176 1449.2 1175.38 1447.83 1174.15C1446.47 1172.88 1445.78 1170.83 1445.78 1168V1159C1445.78 1156.13 1446.4 1154.08 1447.63 1152.85C1448.87 1151.62 1450.92 1151 1453.78 1151H1456.13C1458.5 1151 1460.28 1151.67 1461.48 1153C1462.72 1154.3 1463.33 1156.22 1463.33 1158.75V1165.25H1450.03V1169C1450.03 1170.03 1450.35 1170.83 1450.98 1171.4C1451.62 1171.97 1452.55 1172.25 1453.78 1172.25H1461.73V1176H1454.28ZM1459.18 1157.75C1459.18 1156.88 1458.9 1156.17 1458.33 1155.6C1457.77 1155.03 1457.05 1154.75 1456.18 1154.75H1453.28C1452.08 1154.75 1451.23 1155.03 1450.73 1155.6C1450.27 1156.13 1450.03 1156.93 1450.03 1158V1161.5H1459.18V1157.75ZM1476.74 1172.25V1154.75H1473.09V1151H1480.74V1152.35C1481.84 1151.45 1483.17 1151 1484.74 1151H1489.89V1155H1484.24C1483.17 1155 1482.37 1155.35 1481.84 1156.05C1481.3 1156.72 1481.02 1157.4 1480.99 1158.1V1172.25H1486.44V1176H1473.09V1172.25H1476.74ZM1516.19 1169.75C1516.19 1171.85 1515.54 1173.42 1514.24 1174.45C1512.97 1175.48 1511.12 1176 1508.69 1176H1501.24V1172.25H1509.19C1510.09 1172.25 1510.77 1172.07 1511.24 1171.7C1511.7 1171.3 1511.94 1170.73 1511.94 1170V1167.35C1511.94 1165.85 1511.22 1165.1 1509.79 1165.1H1507.94C1505.6 1165.1 1503.85 1164.6 1502.69 1163.6C1501.55 1162.57 1500.99 1160.95 1500.99 1158.75V1157.3C1500.99 1155.07 1501.62 1153.47 1502.89 1152.5C1504.15 1151.5 1506.02 1151 1508.49 1151H1515.19V1154.75H1507.99C1507.15 1154.75 1506.49 1154.95 1505.99 1155.35C1505.49 1155.72 1505.24 1156.27 1505.24 1157V1158.8C1505.24 1159.57 1505.45 1160.13 1505.89 1160.5C1506.35 1160.87 1506.94 1161.05 1507.64 1161.05H1509.34C1511.57 1161.05 1513.27 1161.6 1514.44 1162.7C1515.6 1163.77 1516.19 1165.37 1516.19 1167.5V1169.75ZM1544.89 1168C1544.89 1170.8 1544.19 1172.83 1542.79 1174.1C1541.42 1175.37 1539.29 1176 1536.39 1176H1534.74C1531.84 1176 1529.69 1175.37 1528.29 1174.1C1526.92 1172.83 1526.24 1170.8 1526.24 1168V1159C1526.24 1156.2 1526.92 1154.17 1528.29 1152.9C1529.69 1151.63 1531.84 1151 1534.74 1151H1536.39C1539.29 1151 1541.42 1151.63 1542.79 1152.9C1544.19 1154.17 1544.89 1156.2 1544.89 1159V1168ZM1540.64 1158C1540.64 1156.97 1540.32 1156.17 1539.69 1155.6C1539.06 1155.03 1538.12 1154.75 1536.89 1154.75H1534.24C1533.01 1154.75 1532.07 1155.03 1531.44 1155.6C1530.81 1156.17 1530.49 1156.97 1530.49 1158V1169C1530.49 1170.03 1530.81 1170.83 1531.44 1171.4C1532.07 1171.97 1533.01 1172.25 1534.24 1172.25H1536.89C1538.12 1172.25 1539.06 1171.97 1539.69 1171.4C1540.32 1170.83 1540.64 1170.03 1540.64 1169V1158ZM1570.19 1169.75C1570.19 1171.85 1569.54 1173.42 1568.24 1174.45C1566.98 1175.48 1565.13 1176 1562.69 1176H1555.24V1172.25H1563.19C1564.09 1172.25 1564.78 1172.07 1565.24 1171.7C1565.71 1171.3 1565.94 1170.73 1565.94 1170V1167.35C1565.94 1165.85 1565.23 1165.1 1563.79 1165.1H1561.94C1559.61 1165.1 1557.86 1164.6 1556.69 1163.6C1555.56 1162.57 1554.99 1160.95 1554.99 1158.75V1157.3C1554.99 1155.07 1555.63 1153.47 1556.89 1152.5C1558.16 1151.5 1560.03 1151 1562.49 1151H1569.19V1154.75H1561.99C1561.16 1154.75 1560.49 1154.95 1559.99 1155.35C1559.49 1155.72 1559.24 1156.27 1559.24 1157V1158.8C1559.24 1159.57 1559.46 1160.13 1559.89 1160.5C1560.36 1160.87 1560.94 1161.05 1561.64 1161.05H1563.34C1565.58 1161.05 1567.28 1161.6 1568.44 1162.7C1569.61 1163.77 1570.19 1165.37 1570.19 1167.5V1169.75ZM295.35 1236C293.65 1236 292.35 1235.45 291.45 1234.35C290.55 1233.25 290.1 1231.8 290.1 1230V1214.75H285.35V1211H290.1V1205H294.35V1211H301.65V1214.75H294.35V1230.25C294.35 1230.98 294.533 1231.5 294.9 1231.8C295.267 1232.1 295.833 1232.25 296.6 1232.25H301.65V1236H295.35ZM325.852 1200.25L319.752 1207H315.452L320.652 1200.25H325.852ZM329.802 1228C329.802 1230.8 329.102 1232.83 327.702 1234.1C326.335 1235.37 324.202 1236 321.302 1236H319.652C316.752 1236 314.602 1235.37 313.202 1234.1C311.835 1232.83 311.152 1230.8 311.152 1228V1219C311.152 1216.2 311.835 1214.17 313.202 1212.9C314.602 1211.63 316.752 1211 319.652 1211H321.302C324.202 1211 326.335 1211.63 327.702 1212.9C329.102 1214.17 329.802 1216.2 329.802 1219V1228ZM325.552 1218C325.552 1216.97 325.235 1216.17 324.602 1215.6C323.969 1215.03 323.035 1214.75 321.802 1214.75H319.152C317.919 1214.75 316.985 1215.03 316.352 1215.6C315.719 1216.17 315.402 1216.97 315.402 1218V1229C315.402 1230.03 315.719 1230.83 316.352 1231.4C316.985 1231.97 317.919 1232.25 319.152 1232.25H321.802C323.035 1232.25 323.969 1231.97 324.602 1231.4C325.235 1230.83 325.552 1230.03 325.552 1229V1218ZM342.354 1211V1212.2C343.387 1211.4 344.721 1211 346.354 1211H348.154C351.087 1211 353.237 1211.63 354.604 1212.9C355.971 1214.13 356.654 1216.17 356.654 1219V1228C356.654 1230.8 355.954 1232.83 354.554 1234.1C353.187 1235.37 351.054 1236 348.154 1236H342.604V1244.5H338.354V1211H342.354ZM345.854 1214.75C344.754 1214.75 343.937 1215.05 343.404 1215.65C342.871 1216.22 342.604 1216.83 342.604 1217.5V1232.25H348.654C349.887 1232.25 350.821 1231.97 351.454 1231.4C352.087 1230.83 352.404 1230.03 352.404 1229V1218C352.404 1216.97 352.087 1216.17 351.454 1215.6C350.821 1215.03 349.887 1214.75 348.654 1214.75H345.854ZM376.856 1201V1205.5H372.106V1201H376.856ZM365.006 1214.75V1211H376.606V1232.25H384.006V1236H372.356V1214.75H365.006ZM402.508 1236C399.574 1236 397.424 1235.38 396.058 1234.15C394.691 1232.88 394.008 1230.83 394.008 1228V1219C394.008 1216.2 394.691 1214.17 396.058 1212.9C397.458 1211.63 399.608 1211 402.508 1211H408.958V1214.75H402.008C400.774 1214.75 399.841 1215.03 399.208 1215.6C398.574 1216.17 398.258 1216.97 398.258 1218V1229C398.258 1230.03 398.574 1230.83 399.208 1231.4C399.841 1231.97 400.774 1232.25 402.008 1232.25H408.958V1236H402.508ZM437.81 1228C437.81 1230.8 437.11 1232.83 435.71 1234.1C434.343 1235.37 432.21 1236 429.31 1236H427.66C424.76 1236 422.61 1235.37 421.21 1234.1C419.843 1232.83 419.16 1230.8 419.16 1228V1219C419.16 1216.2 419.843 1214.17 421.21 1212.9C422.61 1211.63 424.76 1211 427.66 1211H429.31C432.21 1211 434.343 1211.63 435.71 1212.9C437.11 1214.17 437.81 1216.2 437.81 1219V1228ZM433.56 1218C433.56 1216.97 433.243 1216.17 432.61 1215.6C431.976 1215.03 431.043 1214.75 429.81 1214.75H427.16C425.926 1214.75 424.993 1215.03 424.36 1215.6C423.726 1216.17 423.41 1216.97 423.41 1218V1229C423.41 1230.03 423.726 1230.83 424.36 1231.4C424.993 1231.97 425.926 1232.25 427.16 1232.25H429.81C431.043 1232.25 431.976 1231.97 432.61 1231.4C433.243 1230.83 433.56 1230.03 433.56 1229V1218ZM463.112 1229.75C463.112 1231.85 462.462 1233.42 461.162 1234.45C459.895 1235.48 458.045 1236 455.612 1236H448.162V1232.25H456.112C457.012 1232.25 457.695 1232.07 458.162 1231.7C458.628 1231.3 458.862 1230.73 458.862 1230V1227.35C458.862 1225.85 458.145 1225.1 456.712 1225.1H454.862C452.528 1225.1 450.778 1224.6 449.612 1223.6C448.478 1222.57 447.912 1220.95 447.912 1218.75V1217.3C447.912 1215.07 448.545 1213.47 449.812 1212.5C451.078 1211.5 452.945 1211 455.412 1211H462.112V1214.75H454.912C454.078 1214.75 453.412 1214.95 452.912 1215.35C452.412 1215.72 452.162 1216.27 452.162 1217V1218.8C452.162 1219.57 452.378 1220.13 452.812 1220.5C453.278 1220.87 453.862 1221.05 454.562 1221.05H456.262C458.495 1221.05 460.195 1221.6 461.362 1222.7C462.528 1223.77 463.112 1225.37 463.112 1227.5V1229.75ZM509.216 1236C506.282 1236 504.132 1235.38 502.766 1234.15C501.399 1232.88 500.716 1230.83 500.716 1228V1219C500.716 1216.13 501.332 1214.08 502.566 1212.85C503.799 1211.62 505.849 1211 508.716 1211H511.066C513.432 1211 515.216 1211.67 516.416 1213C517.649 1214.3 518.266 1216.22 518.266 1218.75V1225.25H504.966V1229C504.966 1230.03 505.282 1230.83 505.916 1231.4C506.549 1231.97 507.482 1232.25 508.716 1232.25H516.666V1236H509.216ZM514.116 1217.75C514.116 1216.88 513.832 1216.17 513.266 1215.6C512.699 1215.03 511.982 1214.75 511.116 1214.75H508.216C507.016 1214.75 506.166 1215.03 505.666 1215.6C505.199 1216.13 504.966 1216.93 504.966 1218V1221.5H514.116V1217.75ZM528.918 1211V1212.15C529.784 1211.38 530.818 1211 532.018 1211H532.318C534.651 1211 536.301 1211.67 537.268 1213C538.368 1211.67 539.818 1211 541.618 1211H541.918C543.951 1211 545.451 1211.52 546.418 1212.55C547.384 1213.58 547.868 1215.42 547.868 1218.05V1236H543.868V1218C543.868 1216.63 543.718 1215.68 543.418 1215.15C543.151 1214.62 542.518 1214.35 541.518 1214.35H541.218C540.218 1214.35 539.518 1214.7 539.118 1215.4C538.751 1216.07 538.551 1216.82 538.518 1217.65V1236H534.518V1218C534.518 1216.6 534.351 1215.65 534.018 1215.15C533.684 1214.62 533.084 1214.35 532.218 1214.35H531.918C530.918 1214.35 530.218 1214.65 529.818 1215.25C529.418 1215.82 529.201 1216.47 529.168 1217.2V1236H525.168V1211H528.918ZM595.771 1234.85C594.671 1235.62 593.338 1236 591.771 1236H589.721C586.788 1236 584.638 1235.38 583.271 1234.15C581.905 1232.88 581.221 1230.83 581.221 1228V1219C581.221 1216.2 581.905 1214.17 583.271 1212.9C584.671 1211.63 586.821 1211 589.721 1211H595.521V1201H599.771V1236H595.771V1234.85ZM592.271 1232.25C593.371 1232.25 594.188 1231.97 594.721 1231.4C595.255 1230.8 595.521 1230.17 595.521 1229.5V1214.75H589.221C587.988 1214.75 587.055 1215.03 586.421 1215.6C585.788 1216.17 585.471 1216.97 585.471 1218V1229C585.471 1230.03 585.788 1230.83 586.421 1231.4C587.055 1231.97 587.988 1232.25 589.221 1232.25H592.271ZM619.873 1201V1205.5H615.123V1201H619.873ZM608.023 1214.75V1211H619.623V1232.25H627.023V1236H615.373V1214.75H608.023ZM652.125 1229.75C652.125 1231.85 651.475 1233.42 650.175 1234.45C648.909 1235.48 647.059 1236 644.625 1236H637.175V1232.25H645.125C646.025 1232.25 646.709 1232.07 647.175 1231.7C647.642 1231.3 647.875 1230.73 647.875 1230V1227.35C647.875 1225.85 647.159 1225.1 645.725 1225.1H643.875C641.542 1225.1 639.792 1224.6 638.625 1223.6C637.492 1222.57 636.925 1220.95 636.925 1218.75V1217.3C636.925 1215.07 637.559 1213.47 638.825 1212.5C640.092 1211.5 641.959 1211 644.425 1211H651.125V1214.75H643.925C643.092 1214.75 642.425 1214.95 641.925 1215.35C641.425 1215.72 641.175 1216.27 641.175 1217V1218.8C641.175 1219.57 641.392 1220.13 641.825 1220.5C642.292 1220.87 642.875 1221.05 643.575 1221.05H645.275C647.509 1221.05 649.209 1221.6 650.375 1222.7C651.542 1223.77 652.125 1225.37 652.125 1227.5V1229.75ZM672.527 1236C669.594 1236 667.444 1235.38 666.077 1234.15C664.711 1232.88 664.027 1230.83 664.027 1228V1219C664.027 1216.2 664.711 1214.17 666.077 1212.9C667.477 1211.63 669.627 1211 672.527 1211H678.977V1214.75H672.027C670.794 1214.75 669.861 1215.03 669.227 1215.6C668.594 1216.17 668.277 1216.97 668.277 1218V1229C668.277 1230.03 668.594 1230.83 669.227 1231.4C669.861 1231.97 670.794 1232.25 672.027 1232.25H678.977V1236H672.527ZM703.379 1234.85C702.279 1235.62 700.946 1236 699.379 1236H697.679C694.979 1236 692.963 1235.37 691.629 1234.1C690.329 1232.83 689.679 1230.8 689.679 1228V1211H693.929V1229C693.929 1230 694.213 1230.8 694.779 1231.4C695.379 1231.97 696.179 1232.25 697.179 1232.25H699.879C700.946 1232.25 701.729 1231.98 702.229 1231.45C702.763 1230.92 703.063 1230.32 703.129 1229.65V1211H707.379V1236H703.379V1234.85ZM733.131 1229.75C733.131 1231.85 732.481 1233.42 731.181 1234.45C729.915 1235.48 728.065 1236 725.631 1236H718.181V1232.25H726.131C727.031 1232.25 727.715 1232.07 728.181 1231.7C728.648 1231.3 728.881 1230.73 728.881 1230V1227.35C728.881 1225.85 728.165 1225.1 726.731 1225.1H724.881C722.548 1225.1 720.798 1224.6 719.631 1223.6C718.498 1222.57 717.931 1220.95 717.931 1218.75V1217.3C717.931 1215.07 718.565 1213.47 719.831 1212.5C721.098 1211.5 722.965 1211 725.431 1211H732.131V1214.75H724.931C724.098 1214.75 723.431 1214.95 722.931 1215.35C722.431 1215.72 722.181 1216.27 722.181 1217V1218.8C722.181 1219.57 722.398 1220.13 722.831 1220.5C723.298 1220.87 723.881 1221.05 724.581 1221.05H726.281C728.515 1221.05 730.215 1221.6 731.381 1222.7C732.548 1223.77 733.131 1225.37 733.131 1227.5V1229.75ZM760.133 1229.75C760.133 1231.85 759.483 1233.42 758.183 1234.45C756.917 1235.48 755.067 1236 752.633 1236H745.183V1232.25H753.133C754.033 1232.25 754.717 1232.07 755.183 1231.7C755.65 1231.3 755.883 1230.73 755.883 1230V1227.35C755.883 1225.85 755.167 1225.1 753.733 1225.1H751.883C749.55 1225.1 747.8 1224.6 746.633 1223.6C745.5 1222.57 744.933 1220.95 744.933 1218.75V1217.3C744.933 1215.07 745.567 1213.47 746.833 1212.5C748.1 1211.5 749.967 1211 752.433 1211H759.133V1214.75H751.933C751.1 1214.75 750.433 1214.95 749.933 1215.35C749.433 1215.72 749.183 1216.27 749.183 1217V1218.8C749.183 1219.57 749.4 1220.13 749.833 1220.5C750.3 1220.87 750.883 1221.05 751.583 1221.05H753.283C755.517 1221.05 757.217 1221.6 758.383 1222.7C759.55 1223.77 760.133 1225.37 760.133 1227.5V1229.75ZM771.335 1202.65C771.635 1202.48 772.252 1202.17 773.185 1201.7C774.118 1201.23 774.785 1201 775.185 1201H775.935C776.202 1201 776.602 1201.1 777.135 1201.3C777.668 1201.5 778.218 1201.73 778.785 1202C780.185 1202.67 781.085 1203 781.485 1203H781.985C782.252 1203 782.802 1202.75 783.635 1202.25C784.468 1201.75 785.035 1201.4 785.335 1201.2V1204.8C785.068 1204.97 784.518 1205.28 783.685 1205.75C782.885 1206.22 782.302 1206.45 781.935 1206.45H781.185C781.018 1206.45 780.268 1206.17 778.935 1205.6C777.202 1204.83 776.118 1204.45 775.685 1204.45H775.185C774.885 1204.45 774.252 1204.7 773.285 1205.2C772.318 1205.7 771.668 1206.05 771.335 1206.25V1202.65ZM786.885 1236C786.452 1236 785.968 1235.87 785.435 1235.6C784.935 1235.33 784.502 1234.97 784.135 1234.5C783.368 1235.5 782.352 1236 781.085 1236H776.635C774.102 1236 772.252 1235.5 771.085 1234.5C769.952 1233.47 769.385 1231.72 769.385 1229.25V1228.25C769.385 1223.08 771.818 1220.5 776.685 1220.5H782.885V1218C782.885 1216.97 782.568 1216.17 781.935 1215.6C781.302 1215.03 780.368 1214.75 779.135 1214.75H771.385V1211H778.635C781.535 1211 783.668 1211.63 785.035 1212.9C786.435 1214.17 787.135 1216.2 787.135 1219V1231C787.135 1231.5 787.318 1231.88 787.685 1232.15C788.085 1232.38 788.735 1232.5 789.635 1232.5V1236H786.885ZM780.585 1232.25C781.585 1232.25 782.218 1232.02 782.485 1231.55C782.752 1231.08 782.885 1230.48 782.885 1229.75V1224.25H776.635C775.768 1224.25 775.052 1224.53 774.485 1225.1C773.918 1225.67 773.635 1226.38 773.635 1227.25V1229.75C773.635 1230.62 773.835 1231.25 774.235 1231.65C774.635 1232.05 775.268 1232.25 776.135 1232.25H780.585ZM815.837 1228C815.837 1230.8 815.137 1232.83 813.737 1234.1C812.37 1235.37 810.237 1236 807.337 1236H805.687C802.787 1236 800.637 1235.37 799.237 1234.1C797.87 1232.83 797.187 1230.8 797.187 1228V1219C797.187 1216.2 797.87 1214.17 799.237 1212.9C800.637 1211.63 802.787 1211 805.687 1211H807.337C810.237 1211 812.37 1211.63 813.737 1212.9C815.137 1214.17 815.837 1216.2 815.837 1219V1228ZM811.587 1218C811.587 1216.97 811.27 1216.17 810.637 1215.6C810.004 1215.03 809.07 1214.75 807.837 1214.75H805.187C803.954 1214.75 803.02 1215.03 802.387 1215.6C801.754 1216.17 801.437 1216.97 801.437 1218V1229C801.437 1230.03 801.754 1230.83 802.387 1231.4C803.02 1231.97 803.954 1232.25 805.187 1232.25H807.837C809.07 1232.25 810.004 1231.97 810.637 1231.4C811.27 1230.83 811.587 1230.03 811.587 1229V1218ZM836.039 1231V1236H831.039V1231H836.039Z" fill="white"/>
</svg>
