<svg width="2558" height="2268" viewBox="0 0 2558 2268" fill="none" xmlns="http://www.w3.org/2000/svg">
<rect x="388" y="687" width="162" height="149" fill="black"/>
<rect x="2008" y="687" width="162" height="149" fill="black"/>
<rect x="388" y="836" width="162" height="149" fill="black"/>
<rect x="2008" y="836" width="162" height="149" fill="black"/>
<rect x="388" y="985" width="162" height="149" fill="black"/>
<rect x="2008" y="985" width="162" height="149" fill="black"/>
<rect x="388" y="1134" width="162" height="148" fill="black"/>
<rect x="2008" y="1134" width="162" height="148" fill="black"/>
<rect x="388" y="1282" width="162" height="149" fill="black"/>
<rect x="2008" y="1282" width="162" height="149" fill="black"/>
<rect x="388" y="1431" width="162" height="149" fill="black"/>
<rect x="2008" y="1431" width="162" height="149" fill="black"/>
<rect x="712" y="390" width="162" height="149" fill="black"/>
<rect x="1684" y="390" width="162" height="149" fill="black"/>
<rect x="712" y="390" width="162" height="149" fill="black"/>
<rect x="550" y="539" width="162" height="148" fill="black"/>
<rect x="874" y="836" width="162" height="149" fill="black"/>
<rect x="1522" y="836" width="162" height="149" fill="black"/>
<rect x="874" y="985" width="162" height="149" fill="black"/>
<rect x="1522" y="985" width="162" height="149" fill="black"/>
<rect x="874" y="1282" width="162" height="149" fill="black"/>
<rect x="1036" y="1431" width="162" height="149" fill="black"/>
<rect x="1198" y="1431" width="162" height="149" fill="black"/>
<rect x="1360" y="1431" width="162" height="149" fill="black"/>
<rect x="1522" y="1282" width="162" height="149" fill="black"/>
<rect x="1846" y="539" width="162" height="148" fill="black"/>
<rect x="550" y="1580" width="162" height="149" fill="black"/>
<rect x="1846" y="1580" width="162" height="149" fill="black"/>
<rect x="1684" y="390" width="162" height="149" fill="black"/>
<rect x="712" y="1729" width="162" height="148" fill="black"/>
<rect x="1684" y="1729" width="162" height="148" fill="black"/>
<rect x="874" y="241" width="162" height="149" fill="black"/>
<rect x="1036" y="241" width="162" height="149" fill="black"/>
<rect x="1198" y="241" width="162" height="149" fill="black"/>
<rect x="1360" y="241" width="162" height="149" fill="black"/>
<rect x="1522" y="241" width="162" height="149" fill="black"/>
<rect x="874" y="1877" width="162" height="149" fill="black"/>
<rect x="1036" y="1877" width="162" height="149" fill="black"/>
<rect x="1198" y="1877" width="162" height="149" fill="black"/>
<rect x="1360" y="1877" width="162" height="149" fill="black"/>
<rect x="1522" y="1877" width="162" height="149" fill="black"/>
</svg>
