<svg width="4176" height="1520" viewBox="0 0 4176 1520" fill="none" xmlns="http://www.w3.org/2000/svg">
<g clip-path="url(#clip0)">
<rect width="4176" height="1520" fill="#34411F"/>
<rect x="1214" y="538.58" width="425" height="425" transform="rotate(-27.102 1214 538.58)" fill="#4A7149"/>
<rect x="1755.24" y="261.59" width="425" height="425" transform="rotate(-27.102 1755.24 261.59)" fill="#4A7149"/>
<rect x="2296.48" y="-15.4004" width="425" height="425" transform="rotate(-27.102 2296.48 -15.4004)" fill="#4A7149"/>
<rect x="2837.72" y="-292.391" width="425" height="425" transform="rotate(-27.102 2837.72 -292.391)" fill="#4A7149"/>
<rect x="1483.7" y="1065.58" width="425" height="425" transform="rotate(-27.102 1483.7 1065.58)" fill="#4A7149"/>
<rect x="2024.94" y="788.586" width="425" height="425" transform="rotate(-27.102 2024.94 788.586)" fill="#4A7149"/>
<rect x="2566.18" y="511.596" width="425" height="425" transform="rotate(-27.102 2566.18 511.596)" fill="#4A7149"/>
<rect x="3107.42" y="234.605" width="425" height="425" transform="rotate(-27.102 3107.42 234.605)" fill="#4A7149"/>
<rect x="3648.66" y="-42.3848" width="425" height="425" transform="rotate(-27.102 3648.66 -42.3848)" fill="#4A7149"/>
<rect x="1753.4" y="1592.57" width="425" height="425" transform="rotate(-27.102 1753.4 1592.57)" fill="#4A7149"/>
<rect x="2294.64" y="1315.58" width="425" height="425" transform="rotate(-27.102 2294.64 1315.58)" fill="#4A7149"/>
<rect x="2835.88" y="1038.59" width="425" height="425" transform="rotate(-27.102 2835.88 1038.59)" fill="#4A7149"/>
<rect x="3377.12" y="761.602" width="425" height="425" transform="rotate(-27.102 3377.12 761.602)" fill="#4A7149"/>
<rect x="3918.36" y="484.611" width="425" height="425" transform="rotate(-27.102 3918.36 484.611)" fill="#4A7149"/>
<rect x="3105.58" y="1565.59" width="425" height="425" transform="rotate(-27.102 3105.58 1565.59)" fill="#4A7149"/>
<rect x="3646.82" y="1288.6" width="425" height="425" transform="rotate(-27.102 3646.82 1288.6)" fill="#4A7149"/>
</g>
<defs>
<clipPath id="clip0">
<rect width="4176" height="1520" fill="white"/>
</clipPath>
</defs>
</svg>
