<svg width="2563" height="360" viewBox="0 0 2563 360" version="1.1" xmlns="http://www.w3.org/2000/svg" xmlns:xlink="http://www.w3.org/1999/xlink">
<title>auladd - eixos</title>
<desc>Created using Figma</desc>
<g id="Canvas" transform="translate(1914 -5432)">
<g id="auladd - eixos">
<g id="Rectangle">
<use xlink:href="#path0_fill" transform="translate(-1263 5432)"/>
<mask id="mask0_outline_ins">
<use xlink:href="#path0_fill" fill="white" transform="translate(-1263 5432)"/>
</mask>
<g mask="url(#mask0_outline_ins)">
<use xlink:href="#path1_stroke_2x" transform="translate(-1263 5432)"/>
</g>
</g>
<g id="Rectangle">
<use xlink:href="#path0_fill" transform="translate(-1914 5432)"/>
<mask id="mask1_outline_ins">
<use xlink:href="#path0_fill" fill="white" transform="translate(-1914 5432)"/>
</mask>
<g mask="url(#mask1_outline_ins)">
<use xlink:href="#path1_stroke_2x" transform="translate(-1914 5432)"/>
</g>
</g>
<g id="Rectangle">
<use xlink:href="#path2_fill" transform="translate(-619 5432)"/>
<mask id="mask2_outline_ins">
<use xlink:href="#path2_fill" fill="white" transform="translate(-619 5432)"/>
</mask>
<g mask="url(#mask2_outline_ins)">
<use xlink:href="#path3_stroke_2x" transform="translate(-619 5432)"/>
</g>
</g>
<g id="Rectangle">
<use xlink:href="#path0_fill" transform="translate(57 5432)"/>
<mask id="mask3_outline_ins">
<use xlink:href="#path0_fill" fill="white" transform="translate(57 5432)"/>
</mask>
<g mask="url(#mask3_outline_ins)">
<use xlink:href="#path1_stroke_2x" transform="translate(57 5432)"/>
</g>
</g>
<g id="SOCIEDADE">
<use xlink:href="#path4_fill" transform="translate(-1869 5664)" fill="#FFFFFF"/>
</g>
<g id="EST&#195;&#137;TICA">
<use xlink:href="#path5_fill" transform="translate(-1221 5664)" fill="#FFFFFF"/>
</g>
<g id="TECNOLOGIA">
<use xlink:href="#path6_fill" transform="translate(-580 5664)" fill="#FFFFFF"/>
</g>
<g id="CI&#195;&#138;NCIA">
<use xlink:href="#path7_fill" transform="translate(96 5664)" fill="#FFFFFF"/>
</g>
</g>
</g>
<defs>
<path id="path0_fill" d="M 0 0L 592 0L 592 360L 0 360L 0 0Z"/>
<path id="path1_stroke_2x" d="M 0 0L 0 -15L -15 -15L -15 0L 0 0ZM 592 0L 607 0L 607 -15L 592 -15L 592 0ZM 592 360L 592 375L 607 375L 607 360L 592 360ZM 0 360L -15 360L -15 375L 0 375L 0 360ZM 0 15L 592 15L 592 -15L 0 -15L 0 15ZM 577 0L 577 360L 607 360L 607 0L 577 0ZM 592 345L 0 345L 0 375L 592 375L 592 345ZM 15 360L 15 0L -15 0L -15 360L 15 360Z"/>
<path id="path2_fill" d="M 0 0L 622 0L 622 360L 0 360L 0 0Z"/>
<path id="path3_stroke_2x" d="M 0 0L 0 -15L -15 -15L -15 0L 0 0ZM 622 0L 637 0L 637 -15L 622 -15L 622 0ZM 622 360L 622 375L 637 375L 637 360L 622 360ZM 0 360L -15 360L -15 375L 0 375L 0 360ZM 0 15L 622 15L 622 -15L 0 -15L 0 15ZM 607 0L 607 360L 637 360L 637 0L 607 0ZM 622 345L 0 345L 0 375L 622 375L 622 345ZM 15 360L 15 0L -15 0L -15 360L 15 360Z"/>
<path id="path4_fill" d="M 34.5703 59.0781C 34.5703 56.8646 33.7891 55.1719 32.2266 54C 30.6641 52.8021 27.8516 51.5521 23.7891 50.25C 19.7266 48.9219 16.5104 47.6198 14.1406 46.3438C 7.68229 42.8542 4.45312 38.1536 4.45312 32.2422C 4.45312 29.1693 5.3125 26.4349 7.03125 24.0391C 8.77604 21.6172 11.263 19.7292 14.4922 18.375C 17.7474 17.0208 21.3932 16.3438 25.4297 16.3438C 29.4922 16.3438 33.112 17.0859 36.2891 18.5703C 39.4661 20.0286 41.9271 22.099 43.6719 24.7812C 45.4427 27.4635 46.3281 30.5104 46.3281 33.9219L 34.6094 33.9219C 34.6094 31.3177 33.7891 29.2995 32.1484 27.8672C 30.5078 26.4089 28.2031 25.6797 25.2344 25.6797C 22.3698 25.6797 20.1432 26.2917 18.5547 27.5156C 16.9661 28.7135 16.1719 30.3021 16.1719 32.2812C 16.1719 34.1302 17.0964 35.6797 18.9453 36.9297C 20.8203 38.1797 23.5677 39.3516 27.1875 40.4453C 33.8542 42.4505 38.7109 44.9375 41.7578 47.9062C 44.8047 50.875 46.3281 54.5729 46.3281 59C 46.3281 63.9219 44.4661 67.7891 40.7422 70.6016C 37.0182 73.388 32.0052 74.7812 25.7031 74.7812C 21.3281 74.7812 17.3438 73.987 13.75 72.3984C 10.1562 70.7839 7.40885 68.5833 5.50781 65.7969C 3.63281 63.0104 2.69531 59.7812 2.69531 56.1094L 14.4531 56.1094C 14.4531 62.3854 18.2031 65.5234 25.7031 65.5234C 28.4896 65.5234 30.6641 64.9635 32.2266 63.8438C 33.7891 62.6979 34.5703 61.1094 34.5703 59.0781ZM 101.016 46.8516C 101.016 52.4505 100.026 57.3594 98.0469 61.5781C 96.0677 65.7969 93.2292 69.0521 89.5312 71.3438C 85.8594 73.6354 81.6406 74.7812 76.875 74.7812C 72.1615 74.7812 67.9557 73.6484 64.2578 71.3828C 60.5599 69.1172 57.6953 65.888 55.6641 61.6953C 53.6328 57.4766 52.6042 52.6328 52.5781 47.1641L 52.5781 44.3516C 52.5781 38.7526 53.5807 33.8307 55.5859 29.5859C 57.6172 25.3151 60.4688 22.0469 64.1406 19.7812C 67.8385 17.4896 72.0573 16.3438 76.7969 16.3438C 81.5365 16.3438 85.7422 17.4896 89.4141 19.7812C 93.112 22.0469 95.9635 25.3151 97.9688 29.5859C 100 33.8307 101.016 38.7396 101.016 44.3125L 101.016 46.8516ZM 89.1406 44.2734C 89.1406 38.3099 88.0729 33.7786 85.9375 30.6797C 83.8021 27.5807 80.7552 26.0312 76.7969 26.0312C 72.8646 26.0312 69.8307 27.5677 67.6953 30.6406C 65.5599 33.6875 64.4792 38.1667 64.4531 44.0781L 64.4531 46.8516C 64.4531 52.6589 65.5208 57.1641 67.6562 60.3672C 69.7917 63.5703 72.8646 65.1719 76.875 65.1719C 80.8073 65.1719 83.8281 63.6354 85.9375 60.5625C 88.0469 57.4635 89.1146 52.9583 89.1406 47.0469L 89.1406 44.2734ZM 154.18 55.0547C 153.737 61.1745 151.471 65.9922 147.383 69.5078C 143.32 73.0234 137.956 74.7812 131.289 74.7812C 123.997 74.7812 118.255 72.3333 114.062 67.4375C 109.896 62.5156 107.812 55.7708 107.812 47.2031L 107.812 43.7266C 107.812 38.2578 108.776 33.4401 110.703 29.2734C 112.63 25.1068 115.378 21.9167 118.945 19.7031C 122.539 17.4635 126.706 16.3438 131.445 16.3438C 138.008 16.3438 143.294 18.1016 147.305 21.6172C 151.315 25.1328 153.633 30.0677 154.258 36.4219L 142.539 36.4219C 142.253 32.75 141.224 30.0938 139.453 28.4531C 137.708 26.7865 135.039 25.9531 131.445 25.9531C 127.539 25.9531 124.609 27.3594 122.656 30.1719C 120.729 32.9583 119.74 37.2943 119.688 43.1797L 119.688 47.4766C 119.688 53.6224 120.612 58.1146 122.461 60.9531C 124.336 63.7917 127.279 65.2109 131.289 65.2109C 134.909 65.2109 137.604 64.3906 139.375 62.75C 141.172 61.0833 142.201 58.5182 142.461 55.0547L 154.18 55.0547ZM 174.336 74L 162.617 74L 162.617 17.125L 174.336 17.125L 174.336 74ZM 219.453 49.3516L 196.953 49.3516L 196.953 64.5859L 223.359 64.5859L 223.359 74L 185.234 74L 185.234 17.125L 223.281 17.125L 223.281 26.6172L 196.953 26.6172L 196.953 40.1719L 219.453 40.1719L 219.453 49.3516ZM 230.234 74L 230.234 17.125L 247.734 17.125C 252.734 17.125 257.201 18.2578 261.133 20.5234C 265.091 22.763 268.177 25.9661 270.391 30.1328C 272.604 34.2734 273.711 38.987 273.711 44.2734L 273.711 46.8906C 273.711 52.1771 272.617 56.8776 270.43 60.9922C 268.268 65.1068 265.208 68.2969 261.25 70.5625C 257.292 72.8281 252.826 73.974 247.852 74L 230.234 74ZM 241.953 26.6172L 241.953 64.5859L 247.617 64.5859C 252.201 64.5859 255.703 63.0885 258.125 60.0938C 260.547 57.099 261.784 52.8151 261.836 47.2422L 261.836 44.2344C 261.836 38.4531 260.638 34.0781 258.242 31.1094C 255.846 28.1146 252.344 26.6172 247.734 26.6172L 241.953 26.6172ZM 313.516 62.2812L 292.969 62.2812L 289.062 74L 276.602 74L 297.773 17.125L 308.633 17.125L 329.922 74L 317.461 74L 313.516 62.2812ZM 296.133 52.7891L 310.352 52.7891L 303.203 31.5L 296.133 52.7891ZM 335.234 74L 335.234 17.125L 352.734 17.125C 357.734 17.125 362.201 18.2578 366.133 20.5234C 370.091 22.763 373.177 25.9661 375.391 30.1328C 377.604 34.2734 378.711 38.987 378.711 44.2734L 378.711 46.8906C 378.711 52.1771 377.617 56.8776 375.43 60.9922C 373.268 65.1068 370.208 68.2969 366.25 70.5625C 362.292 72.8281 357.826 73.974 352.852 74L 335.234 74ZM 346.953 26.6172L 346.953 64.5859L 352.617 64.5859C 357.201 64.5859 360.703 63.0885 363.125 60.0938C 365.547 57.099 366.784 52.8151 366.836 47.2422L 366.836 44.2344C 366.836 38.4531 365.638 34.0781 363.242 31.1094C 360.846 28.1146 357.344 26.6172 352.734 26.6172L 346.953 26.6172ZM 421.484 49.3516L 398.984 49.3516L 398.984 64.5859L 425.391 64.5859L 425.391 74L 387.266 74L 387.266 17.125L 425.312 17.125L 425.312 26.6172L 398.984 26.6172L 398.984 40.1719L 421.484 40.1719L 421.484 49.3516Z"/>
<path id="path5_fill" d="M 39.2969 49.3516L 16.7969 49.3516L 16.7969 64.5859L 43.2031 64.5859L 43.2031 74L 5.07812 74L 5.07812 17.125L 43.125 17.125L 43.125 26.6172L 16.7969 26.6172L 16.7969 40.1719L 39.2969 40.1719L 39.2969 49.3516ZM 79.5703 59.0781C 79.5703 56.8646 78.7891 55.1719 77.2266 54C 75.6641 52.8021 72.8516 51.5521 68.7891 50.25C 64.7266 48.9219 61.5104 47.6198 59.1406 46.3438C 52.6823 42.8542 49.4531 38.1536 49.4531 32.2422C 49.4531 29.1693 50.3125 26.4349 52.0312 24.0391C 53.776 21.6172 56.263 19.7292 59.4922 18.375C 62.7474 17.0208 66.3932 16.3438 70.4297 16.3438C 74.4922 16.3438 78.112 17.0859 81.2891 18.5703C 84.4661 20.0286 86.9271 22.099 88.6719 24.7812C 90.4427 27.4635 91.3281 30.5104 91.3281 33.9219L 79.6094 33.9219C 79.6094 31.3177 78.7891 29.2995 77.1484 27.8672C 75.5078 26.4089 73.2031 25.6797 70.2344 25.6797C 67.3698 25.6797 65.1432 26.2917 63.5547 27.5156C 61.9661 28.7135 61.1719 30.3021 61.1719 32.2812C 61.1719 34.1302 62.0964 35.6797 63.9453 36.9297C 65.8203 38.1797 68.5677 39.3516 72.1875 40.4453C 78.8542 42.4505 83.7109 44.9375 86.7578 47.9062C 89.8047 50.875 91.3281 54.5729 91.3281 59C 91.3281 63.9219 89.4661 67.7891 85.7422 70.6016C 82.0182 73.388 77.0052 74.7812 70.7031 74.7812C 66.3281 74.7812 62.3438 73.987 58.75 72.3984C 55.1562 70.7839 52.4089 68.5833 50.5078 65.7969C 48.6328 63.0104 47.6953 59.7812 47.6953 56.1094L 59.4531 56.1094C 59.4531 62.3854 63.2031 65.5234 70.7031 65.5234C 73.4896 65.5234 75.6641 64.9635 77.2266 63.8438C 78.7891 62.6979 79.5703 61.1094 79.5703 59.0781ZM 142.109 26.6172L 124.688 26.6172L 124.688 74L 112.969 74L 112.969 26.6172L 95.7812 26.6172L 95.7812 17.125L 142.109 17.125L 142.109 26.6172ZM 183.047 49.3516L 160.547 49.3516L 160.547 64.5859L 186.953 64.5859L 186.953 74L 148.828 74L 148.828 17.125L 186.875 17.125L 186.875 26.6172L 160.547 26.6172L 160.547 40.1719L 183.047 40.1719L 183.047 49.3516ZM 170.82 1.77344L 183.125 1.77344L 172.305 13.8828L 163.125 13.8828L 170.82 1.77344ZM 237.422 26.6172L 220 26.6172L 220 74L 208.281 74L 208.281 26.6172L 191.094 26.6172L 191.094 17.125L 237.422 17.125L 237.422 26.6172ZM 256.602 74L 244.883 74L 244.883 17.125L 256.602 17.125L 256.602 74ZM 312.148 55.0547C 311.706 61.1745 309.44 65.9922 305.352 69.5078C 301.289 73.0234 295.924 74.7812 289.258 74.7812C 281.966 74.7812 276.224 72.3333 272.031 67.4375C 267.865 62.5156 265.781 55.7708 265.781 47.2031L 265.781 43.7266C 265.781 38.2578 266.745 33.4401 268.672 29.2734C 270.599 25.1068 273.346 21.9167 276.914 19.7031C 280.508 17.4635 284.674 16.3438 289.414 16.3438C 295.977 16.3438 301.263 18.1016 305.273 21.6172C 309.284 25.1328 311.602 30.0677 312.227 36.4219L 300.508 36.4219C 300.221 32.75 299.193 30.0938 297.422 28.4531C 295.677 26.7865 293.008 25.9531 289.414 25.9531C 285.508 25.9531 282.578 27.3594 280.625 30.1719C 278.698 32.9583 277.708 37.2943 277.656 43.1797L 277.656 47.4766C 277.656 53.6224 278.581 58.1146 280.43 60.9531C 282.305 63.7917 285.247 65.2109 289.258 65.2109C 292.878 65.2109 295.573 64.3906 297.344 62.75C 299.141 61.0833 300.169 58.5182 300.43 55.0547L 312.148 55.0547ZM 351.953 62.2812L 331.406 62.2812L 327.5 74L 315.039 74L 336.211 17.125L 347.07 17.125L 368.359 74L 355.898 74L 351.953 62.2812ZM 334.57 52.7891L 348.789 52.7891L 341.641 31.5L 334.57 52.7891Z"/>
<path id="path6_fill" d="M 47.8906 26.6172L 30.4688 26.6172L 30.4688 74L 18.75 74L 18.75 26.6172L 1.5625 26.6172L 1.5625 17.125L 47.8906 17.125L 47.8906 26.6172ZM 88.8281 49.3516L 66.3281 49.3516L 66.3281 64.5859L 92.7344 64.5859L 92.7344 74L 54.6094 74L 54.6094 17.125L 92.6562 17.125L 92.6562 26.6172L 66.3281 26.6172L 66.3281 40.1719L 88.8281 40.1719L 88.8281 49.3516ZM 144.258 55.0547C 143.815 61.1745 141.549 65.9922 137.461 69.5078C 133.398 73.0234 128.034 74.7812 121.367 74.7812C 114.076 74.7812 108.333 72.3333 104.141 67.4375C 99.974 62.5156 97.8906 55.7708 97.8906 47.2031L 97.8906 43.7266C 97.8906 38.2578 98.8542 33.4401 100.781 29.2734C 102.708 25.1068 105.456 21.9167 109.023 19.7031C 112.617 17.4635 116.784 16.3438 121.523 16.3438C 128.086 16.3438 133.372 18.1016 137.383 21.6172C 141.393 25.1328 143.711 30.0677 144.336 36.4219L 132.617 36.4219C 132.331 32.75 131.302 30.0938 129.531 28.4531C 127.786 26.7865 125.117 25.9531 121.523 25.9531C 117.617 25.9531 114.688 27.3594 112.734 30.1719C 110.807 32.9583 109.818 37.2943 109.766 43.1797L 109.766 47.4766C 109.766 53.6224 110.69 58.1146 112.539 60.9531C 114.414 63.7917 117.357 65.2109 121.367 65.2109C 124.987 65.2109 127.682 64.3906 129.453 62.75C 131.25 61.0833 132.279 58.5182 132.539 55.0547L 144.258 55.0547ZM 198.203 74L 186.484 74L 163.672 36.5781L 163.672 74L 151.953 74L 151.953 17.125L 163.672 17.125L 186.523 54.625L 186.523 17.125L 198.203 17.125L 198.203 74ZM 255.156 46.8516C 255.156 52.4505 254.167 57.3594 252.188 61.5781C 250.208 65.7969 247.37 69.0521 243.672 71.3438C 240 73.6354 235.781 74.7812 231.016 74.7812C 226.302 74.7812 222.096 73.6484 218.398 71.3828C 214.701 69.1172 211.836 65.888 209.805 61.6953C 207.773 57.4766 206.745 52.6328 206.719 47.1641L 206.719 44.3516C 206.719 38.7526 207.721 33.8307 209.727 29.5859C 211.758 25.3151 214.609 22.0469 218.281 19.7812C 221.979 17.4896 226.198 16.3438 230.938 16.3438C 235.677 16.3438 239.883 17.4896 243.555 19.7812C 247.253 22.0469 250.104 25.3151 252.109 29.5859C 254.141 33.8307 255.156 38.7396 255.156 44.3125L 255.156 46.8516ZM 243.281 44.2734C 243.281 38.3099 242.214 33.7786 240.078 30.6797C 237.943 27.5807 234.896 26.0312 230.938 26.0312C 227.005 26.0312 223.971 27.5677 221.836 30.6406C 219.701 33.6875 218.62 38.1667 218.594 44.0781L 218.594 46.8516C 218.594 52.6589 219.661 57.1641 221.797 60.3672C 223.932 63.5703 227.005 65.1719 231.016 65.1719C 234.948 65.1719 237.969 63.6354 240.078 60.5625C 242.188 57.4635 243.255 52.9583 243.281 47.0469L 243.281 44.2734ZM 275.391 64.5859L 300.273 64.5859L 300.273 74L 263.672 74L 263.672 17.125L 275.391 17.125L 275.391 64.5859ZM 351.25 46.8516C 351.25 52.4505 350.26 57.3594 348.281 61.5781C 346.302 65.7969 343.464 69.0521 339.766 71.3438C 336.094 73.6354 331.875 74.7812 327.109 74.7812C 322.396 74.7812 318.19 73.6484 314.492 71.3828C 310.794 69.1172 307.93 65.888 305.898 61.6953C 303.867 57.4766 302.839 52.6328 302.812 47.1641L 302.812 44.3516C 302.812 38.7526 303.815 33.8307 305.82 29.5859C 307.852 25.3151 310.703 22.0469 314.375 19.7812C 318.073 17.4896 322.292 16.3438 327.031 16.3438C 331.771 16.3438 335.977 17.4896 339.648 19.7812C 343.346 22.0469 346.198 25.3151 348.203 29.5859C 350.234 33.8307 351.25 38.7396 351.25 44.3125L 351.25 46.8516ZM 339.375 44.2734C 339.375 38.3099 338.307 33.7786 336.172 30.6797C 334.036 27.5807 330.99 26.0312 327.031 26.0312C 323.099 26.0312 320.065 27.5677 317.93 30.6406C 315.794 33.6875 314.714 38.1667 314.688 44.0781L 314.688 46.8516C 314.688 52.6589 315.755 57.1641 317.891 60.3672C 320.026 63.5703 323.099 65.1719 327.109 65.1719C 331.042 65.1719 334.062 63.6354 336.172 60.5625C 338.281 57.4635 339.349 52.9583 339.375 47.0469L 339.375 44.2734ZM 404.766 66.8125C 402.656 69.3385 399.674 71.3047 395.82 72.7109C 391.966 74.0911 387.695 74.7812 383.008 74.7812C 378.086 74.7812 373.763 73.7135 370.039 71.5781C 366.341 69.4167 363.477 66.2917 361.445 62.2031C 359.44 58.1146 358.411 53.3099 358.359 47.7891L 358.359 43.9219C 358.359 38.2448 359.31 33.3359 361.211 29.1953C 363.138 25.0286 365.898 21.8516 369.492 19.6641C 373.112 17.4505 377.344 16.3438 382.188 16.3438C 388.932 16.3438 394.206 17.9583 398.008 21.1875C 401.81 24.3906 404.062 29.0651 404.766 35.2109L 393.359 35.2109C 392.839 31.9557 391.68 29.5729 389.883 28.0625C 388.112 26.5521 385.664 25.7969 382.539 25.7969C 378.555 25.7969 375.521 27.2943 373.438 30.2891C 371.354 33.2839 370.299 37.737 370.273 43.6484L 370.273 47.2812C 370.273 53.2448 371.406 57.75 373.672 60.7969C 375.938 63.8438 379.258 65.3672 383.633 65.3672C 388.034 65.3672 391.172 64.4297 393.047 62.5547L 393.047 52.75L 382.383 52.75L 382.383 44.1172L 404.766 44.1172L 404.766 66.8125ZM 426.758 74L 415.039 74L 415.039 17.125L 426.758 17.125L 426.758 74ZM 470.469 62.2812L 449.922 62.2812L 446.016 74L 433.555 74L 454.727 17.125L 465.586 17.125L 486.875 74L 474.414 74L 470.469 62.2812ZM 453.086 52.7891L 467.305 52.7891L 460.156 31.5L 453.086 52.7891Z"/>
<path id="path7_fill" d="M 49.7266 55.0547C 49.2839 61.1745 47.0182 65.9922 42.9297 69.5078C 38.8672 73.0234 33.5026 74.7812 26.8359 74.7812C 19.5443 74.7812 13.8021 72.3333 9.60938 67.4375C 5.44271 62.5156 3.35938 55.7708 3.35938 47.2031L 3.35938 43.7266C 3.35938 38.2578 4.32292 33.4401 6.25 29.2734C 8.17708 25.1068 10.9245 21.9167 14.4922 19.7031C 18.0859 17.4635 22.2526 16.3438 26.9922 16.3438C 33.5547 16.3438 38.8411 18.1016 42.8516 21.6172C 46.862 25.1328 49.1797 30.0677 49.8047 36.4219L 38.0859 36.4219C 37.7995 32.75 36.7708 30.0938 35 28.4531C 33.2552 26.7865 30.5859 25.9531 26.9922 25.9531C 23.0859 25.9531 20.1562 27.3594 18.2031 30.1719C 16.276 32.9583 15.2865 37.2943 15.2344 43.1797L 15.2344 47.4766C 15.2344 53.6224 16.1589 58.1146 18.0078 60.9531C 19.8828 63.7917 22.8255 65.2109 26.8359 65.2109C 30.4557 65.2109 33.151 64.3906 34.9219 62.75C 36.7188 61.0833 37.7474 58.5182 38.0078 55.0547L 49.7266 55.0547ZM 69.8828 74L 58.1641 74L 58.1641 17.125L 69.8828 17.125L 69.8828 74ZM 115 49.3516L 92.5 49.3516L 92.5 64.5859L 118.906 64.5859L 118.906 74L 80.7812 74L 80.7812 17.125L 118.828 17.125L 118.828 26.6172L 92.5 26.6172L 92.5 40.1719L 115 40.1719L 115 49.3516ZM 115.508 12.7109L 115.508 13.1797L 106.523 13.1797L 100.508 7.51562L 94.4922 13.1797L 85.6641 13.1797L 85.6641 12.5547L 97.2266 1.77344L 103.789 1.77344L 115.508 12.7109ZM 172.031 74L 160.312 74L 137.5 36.5781L 137.5 74L 125.781 74L 125.781 17.125L 137.5 17.125L 160.352 54.625L 160.352 17.125L 172.031 17.125L 172.031 74ZM 226.914 55.0547C 226.471 61.1745 224.206 65.9922 220.117 69.5078C 216.055 73.0234 210.69 74.7812 204.023 74.7812C 196.732 74.7812 190.99 72.3333 186.797 67.4375C 182.63 62.5156 180.547 55.7708 180.547 47.2031L 180.547 43.7266C 180.547 38.2578 181.51 33.4401 183.438 29.2734C 185.365 25.1068 188.112 21.9167 191.68 19.7031C 195.273 17.4635 199.44 16.3438 204.18 16.3438C 210.742 16.3438 216.029 18.1016 220.039 21.6172C 224.049 25.1328 226.367 30.0677 226.992 36.4219L 215.273 36.4219C 214.987 32.75 213.958 30.0938 212.188 28.4531C 210.443 26.7865 207.773 25.9531 204.18 25.9531C 200.273 25.9531 197.344 27.3594 195.391 30.1719C 193.464 32.9583 192.474 37.2943 192.422 43.1797L 192.422 47.4766C 192.422 53.6224 193.346 58.1146 195.195 60.9531C 197.07 63.7917 200.013 65.2109 204.023 65.2109C 207.643 65.2109 210.339 64.3906 212.109 62.75C 213.906 61.0833 214.935 58.5182 215.195 55.0547L 226.914 55.0547ZM 247.07 74L 235.352 74L 235.352 17.125L 247.07 17.125L 247.07 74ZM 290.781 62.2812L 270.234 62.2812L 266.328 74L 253.867 74L 275.039 17.125L 285.898 17.125L 307.188 74L 294.727 74L 290.781 62.2812ZM 273.398 52.7891L 287.617 52.7891L 280.469 31.5L 273.398 52.7891Z"/>
</defs>
</svg>
