<svg width="2563" height="360" viewBox="0 0 2563 360" fill="none" xmlns="http://www.w3.org/2000/svg">
<rect x="658.5" y="7.5" width="577" height="345" stroke="#7A1A8B" stroke-width="15"/>
<rect x="7.5" y="7.5" width="577" height="345" stroke="#7A1A8B" stroke-width="15"/>
<rect x="1302.5" y="7.5" width="607" height="345" fill="#7A1A8B" stroke="#7A1A8B" stroke-width="15"/>
<rect x="1978.5" y="7.5" width="577" height="345" stroke="#7A1A8B" stroke-width="15"/>
<path d="M79.5703 291.078C79.5703 288.865 78.7891 287.172 77.2266 286C75.6641 284.802 72.8516 283.552 68.7891 282.25C64.7266 280.922 61.5104 279.62 59.1406 278.344C52.6823 274.854 49.4531 270.154 49.4531 264.242C49.4531 261.169 50.3125 258.435 52.0312 256.039C53.776 253.617 56.263 251.729 59.4922 250.375C62.7474 249.021 66.3932 248.344 70.4297 248.344C74.4922 248.344 78.112 249.086 81.2891 250.57C84.4661 252.029 86.9271 254.099 88.6719 256.781C90.4427 259.464 91.3281 262.51 91.3281 265.922H79.6094C79.6094 263.318 78.7891 261.299 77.1484 259.867C75.5078 258.409 73.2031 257.68 70.2344 257.68C67.3698 257.68 65.1432 258.292 63.5547 259.516C61.9661 260.714 61.1719 262.302 61.1719 264.281C61.1719 266.13 62.0964 267.68 63.9453 268.93C65.8203 270.18 68.5677 271.352 72.1875 272.445C78.8542 274.451 83.7109 276.938 86.7578 279.906C89.8047 282.875 91.3281 286.573 91.3281 291C91.3281 295.922 89.4661 299.789 85.7422 302.602C82.0182 305.388 77.0052 306.781 70.7031 306.781C66.3281 306.781 62.3438 305.987 58.75 304.398C55.1562 302.784 52.4089 300.583 50.5078 297.797C48.6328 295.01 47.6953 291.781 47.6953 288.109H59.4531C59.4531 294.385 63.2031 297.523 70.7031 297.523C73.4896 297.523 75.6641 296.964 77.2266 295.844C78.7891 294.698 79.5703 293.109 79.5703 291.078ZM146.016 278.852C146.016 284.451 145.026 289.359 143.047 293.578C141.068 297.797 138.229 301.052 134.531 303.344C130.859 305.635 126.641 306.781 121.875 306.781C117.161 306.781 112.956 305.648 109.258 303.383C105.56 301.117 102.695 297.888 100.664 293.695C98.6328 289.477 97.6042 284.633 97.5781 279.164V276.352C97.5781 270.753 98.5807 265.831 100.586 261.586C102.617 257.315 105.469 254.047 109.141 251.781C112.839 249.49 117.057 248.344 121.797 248.344C126.536 248.344 130.742 249.49 134.414 251.781C138.112 254.047 140.964 257.315 142.969 261.586C145 265.831 146.016 270.74 146.016 276.312V278.852ZM134.141 276.273C134.141 270.31 133.073 265.779 130.938 262.68C128.802 259.581 125.755 258.031 121.797 258.031C117.865 258.031 114.831 259.568 112.695 262.641C110.56 265.688 109.479 270.167 109.453 276.078V278.852C109.453 284.659 110.521 289.164 112.656 292.367C114.792 295.57 117.865 297.172 121.875 297.172C125.807 297.172 128.828 295.635 130.938 292.562C133.047 289.464 134.115 284.958 134.141 279.047V276.273ZM199.18 287.055C198.737 293.174 196.471 297.992 192.383 301.508C188.32 305.023 182.956 306.781 176.289 306.781C168.997 306.781 163.255 304.333 159.062 299.438C154.896 294.516 152.812 287.771 152.812 279.203V275.727C152.812 270.258 153.776 265.44 155.703 261.273C157.63 257.107 160.378 253.917 163.945 251.703C167.539 249.464 171.706 248.344 176.445 248.344C183.008 248.344 188.294 250.102 192.305 253.617C196.315 257.133 198.633 262.068 199.258 268.422H187.539C187.253 264.75 186.224 262.094 184.453 260.453C182.708 258.786 180.039 257.953 176.445 257.953C172.539 257.953 169.609 259.359 167.656 262.172C165.729 264.958 164.74 269.294 164.688 275.18V279.477C164.688 285.622 165.612 290.115 167.461 292.953C169.336 295.792 172.279 297.211 176.289 297.211C179.909 297.211 182.604 296.391 184.375 294.75C186.172 293.083 187.201 290.518 187.461 287.055H199.18ZM219.336 306H207.617V249.125H219.336V306ZM264.453 281.352H241.953V296.586H268.359V306H230.234V249.125H268.281V258.617H241.953V272.172H264.453V281.352ZM275.234 306V249.125H292.734C297.734 249.125 302.201 250.258 306.133 252.523C310.091 254.763 313.177 257.966 315.391 262.133C317.604 266.273 318.711 270.987 318.711 276.273V278.891C318.711 284.177 317.617 288.878 315.43 292.992C313.268 297.107 310.208 300.297 306.25 302.562C302.292 304.828 297.826 305.974 292.852 306H275.234ZM286.953 258.617V296.586H292.617C297.201 296.586 300.703 295.089 303.125 292.094C305.547 289.099 306.784 284.815 306.836 279.242V276.234C306.836 270.453 305.638 266.078 303.242 263.109C300.846 260.115 297.344 258.617 292.734 258.617H286.953ZM358.516 294.281H337.969L334.062 306H321.602L342.773 249.125H353.633L374.922 306H362.461L358.516 294.281ZM341.133 284.789H355.352L348.203 263.5L341.133 284.789ZM380.234 306V249.125H397.734C402.734 249.125 407.201 250.258 411.133 252.523C415.091 254.763 418.177 257.966 420.391 262.133C422.604 266.273 423.711 270.987 423.711 276.273V278.891C423.711 284.177 422.617 288.878 420.43 292.992C418.268 297.107 415.208 300.297 411.25 302.562C407.292 304.828 402.826 305.974 397.852 306H380.234ZM391.953 258.617V296.586H397.617C402.201 296.586 405.703 295.089 408.125 292.094C410.547 289.099 411.784 284.815 411.836 279.242V276.234C411.836 270.453 410.638 266.078 408.242 263.109C405.846 260.115 402.344 258.617 397.734 258.617H391.953ZM466.484 281.352H443.984V296.586H470.391V306H432.266V249.125H470.312V258.617H443.984V272.172H466.484V281.352Z" fill="#7A1A8B"/>
<path d="M732.297 281.352H709.797V296.586H736.203V306H698.078V249.125H736.125V258.617H709.797V272.172H732.297V281.352ZM772.57 291.078C772.57 288.865 771.789 287.172 770.227 286C768.664 284.802 765.852 283.552 761.789 282.25C757.727 280.922 754.51 279.62 752.141 278.344C745.682 274.854 742.453 270.154 742.453 264.242C742.453 261.169 743.312 258.435 745.031 256.039C746.776 253.617 749.263 251.729 752.492 250.375C755.747 249.021 759.393 248.344 763.43 248.344C767.492 248.344 771.112 249.086 774.289 250.57C777.466 252.029 779.927 254.099 781.672 256.781C783.443 259.464 784.328 262.51 784.328 265.922H772.609C772.609 263.318 771.789 261.299 770.148 259.867C768.508 258.409 766.203 257.68 763.234 257.68C760.37 257.68 758.143 258.292 756.555 259.516C754.966 260.714 754.172 262.302 754.172 264.281C754.172 266.13 755.096 267.68 756.945 268.93C758.82 270.18 761.568 271.352 765.188 272.445C771.854 274.451 776.711 276.938 779.758 279.906C782.805 282.875 784.328 286.573 784.328 291C784.328 295.922 782.466 299.789 778.742 302.602C775.018 305.388 770.005 306.781 763.703 306.781C759.328 306.781 755.344 305.987 751.75 304.398C748.156 302.784 745.409 300.583 743.508 297.797C741.633 295.01 740.695 291.781 740.695 288.109H752.453C752.453 294.385 756.203 297.523 763.703 297.523C766.49 297.523 768.664 296.964 770.227 295.844C771.789 294.698 772.57 293.109 772.57 291.078ZM835.109 258.617H817.688V306H805.969V258.617H788.781V249.125H835.109V258.617ZM876.047 281.352H853.547V296.586H879.953V306H841.828V249.125H879.875V258.617H853.547V272.172H876.047V281.352ZM863.82 233.773H876.125L865.305 245.883H856.125L863.82 233.773ZM930.422 258.617H913V306H901.281V258.617H884.094V249.125H930.422V258.617ZM949.602 306H937.883V249.125H949.602V306ZM1005.15 287.055C1004.71 293.174 1002.44 297.992 998.352 301.508C994.289 305.023 988.924 306.781 982.258 306.781C974.966 306.781 969.224 304.333 965.031 299.438C960.865 294.516 958.781 287.771 958.781 279.203V275.727C958.781 270.258 959.745 265.44 961.672 261.273C963.599 257.107 966.346 253.917 969.914 251.703C973.508 249.464 977.674 248.344 982.414 248.344C988.977 248.344 994.263 250.102 998.273 253.617C1002.28 257.133 1004.6 262.068 1005.23 268.422H993.508C993.221 264.75 992.193 262.094 990.422 260.453C988.677 258.786 986.008 257.953 982.414 257.953C978.508 257.953 975.578 259.359 973.625 262.172C971.698 264.958 970.708 269.294 970.656 275.18V279.477C970.656 285.622 971.581 290.115 973.43 292.953C975.305 295.792 978.247 297.211 982.258 297.211C985.878 297.211 988.573 296.391 990.344 294.75C992.141 293.083 993.169 290.518 993.43 287.055H1005.15ZM1044.95 294.281H1024.41L1020.5 306H1008.04L1029.21 249.125H1040.07L1061.36 306H1048.9L1044.95 294.281ZM1027.57 284.789H1041.79L1034.64 263.5L1027.57 284.789Z" fill="#7A1A8B"/>
<path d="M1381.89 258.617H1364.47V306H1352.75V258.617H1335.56V249.125H1381.89V258.617ZM1422.83 281.352H1400.33V296.586H1426.73V306H1388.61V249.125H1426.66V258.617H1400.33V272.172H1422.83V281.352ZM1478.26 287.055C1477.82 293.174 1475.55 297.992 1471.46 301.508C1467.4 305.023 1462.03 306.781 1455.37 306.781C1448.08 306.781 1442.33 304.333 1438.14 299.438C1433.97 294.516 1431.89 287.771 1431.89 279.203V275.727C1431.89 270.258 1432.85 265.44 1434.78 261.273C1436.71 257.107 1439.46 253.917 1443.02 251.703C1446.62 249.464 1450.78 248.344 1455.52 248.344C1462.09 248.344 1467.37 250.102 1471.38 253.617C1475.39 257.133 1477.71 262.068 1478.34 268.422H1466.62C1466.33 264.75 1465.3 262.094 1463.53 260.453C1461.79 258.786 1459.12 257.953 1455.52 257.953C1451.62 257.953 1448.69 259.359 1446.73 262.172C1444.81 264.958 1443.82 269.294 1443.77 275.18V279.477C1443.77 285.622 1444.69 290.115 1446.54 292.953C1448.41 295.792 1451.36 297.211 1455.37 297.211C1458.99 297.211 1461.68 296.391 1463.45 294.75C1465.25 293.083 1466.28 290.518 1466.54 287.055H1478.26ZM1532.2 306H1520.48L1497.67 268.578V306H1485.95V249.125H1497.67L1520.52 286.625V249.125H1532.2V306ZM1589.16 278.852C1589.16 284.451 1588.17 289.359 1586.19 293.578C1584.21 297.797 1581.37 301.052 1577.67 303.344C1574 305.635 1569.78 306.781 1565.02 306.781C1560.3 306.781 1556.1 305.648 1552.4 303.383C1548.7 301.117 1545.84 297.888 1543.8 293.695C1541.77 289.477 1540.74 284.633 1540.72 279.164V276.352C1540.72 270.753 1541.72 265.831 1543.73 261.586C1545.76 257.315 1548.61 254.047 1552.28 251.781C1555.98 249.49 1560.2 248.344 1564.94 248.344C1569.68 248.344 1573.88 249.49 1577.55 251.781C1581.25 254.047 1584.1 257.315 1586.11 261.586C1588.14 265.831 1589.16 270.74 1589.16 276.312V278.852ZM1577.28 276.273C1577.28 270.31 1576.21 265.779 1574.08 262.68C1571.94 259.581 1568.9 258.031 1564.94 258.031C1561.01 258.031 1557.97 259.568 1555.84 262.641C1553.7 265.688 1552.62 270.167 1552.59 276.078V278.852C1552.59 284.659 1553.66 289.164 1555.8 292.367C1557.93 295.57 1561.01 297.172 1565.02 297.172C1568.95 297.172 1571.97 295.635 1574.08 292.562C1576.19 289.464 1577.26 284.958 1577.28 279.047V276.273ZM1609.39 296.586H1634.27V306H1597.67V249.125H1609.39V296.586ZM1685.25 278.852C1685.25 284.451 1684.26 289.359 1682.28 293.578C1680.3 297.797 1677.46 301.052 1673.77 303.344C1670.09 305.635 1665.88 306.781 1661.11 306.781C1656.4 306.781 1652.19 305.648 1648.49 303.383C1644.79 301.117 1641.93 297.888 1639.9 293.695C1637.87 289.477 1636.84 284.633 1636.81 279.164V276.352C1636.81 270.753 1637.82 265.831 1639.82 261.586C1641.85 257.315 1644.7 254.047 1648.38 251.781C1652.07 249.49 1656.29 248.344 1661.03 248.344C1665.77 248.344 1669.98 249.49 1673.65 251.781C1677.35 254.047 1680.2 257.315 1682.2 261.586C1684.23 265.831 1685.25 270.74 1685.25 276.312V278.852ZM1673.38 276.273C1673.38 270.31 1672.31 265.779 1670.17 262.68C1668.04 259.581 1664.99 258.031 1661.03 258.031C1657.1 258.031 1654.07 259.568 1651.93 262.641C1649.79 265.688 1648.71 270.167 1648.69 276.078V278.852C1648.69 284.659 1649.76 289.164 1651.89 292.367C1654.03 295.57 1657.1 297.172 1661.11 297.172C1665.04 297.172 1668.06 295.635 1670.17 292.562C1672.28 289.464 1673.35 284.958 1673.38 279.047V276.273ZM1738.77 298.812C1736.66 301.339 1733.67 303.305 1729.82 304.711C1725.97 306.091 1721.7 306.781 1717.01 306.781C1712.09 306.781 1707.76 305.714 1704.04 303.578C1700.34 301.417 1697.48 298.292 1695.45 294.203C1693.44 290.115 1692.41 285.31 1692.36 279.789V275.922C1692.36 270.245 1693.31 265.336 1695.21 261.195C1697.14 257.029 1699.9 253.852 1703.49 251.664C1707.11 249.451 1711.34 248.344 1716.19 248.344C1722.93 248.344 1728.21 249.958 1732.01 253.188C1735.81 256.391 1738.06 261.065 1738.77 267.211H1727.36C1726.84 263.956 1725.68 261.573 1723.88 260.062C1722.11 258.552 1719.66 257.797 1716.54 257.797C1712.55 257.797 1709.52 259.294 1707.44 262.289C1705.35 265.284 1704.3 269.737 1704.27 275.648V279.281C1704.27 285.245 1705.41 289.75 1707.67 292.797C1709.94 295.844 1713.26 297.367 1717.63 297.367C1722.03 297.367 1725.17 296.43 1727.05 294.555V284.75H1716.38V276.117H1738.77V298.812ZM1760.76 306H1749.04V249.125H1760.76V306ZM1804.47 294.281H1783.92L1780.02 306H1767.55L1788.73 249.125H1799.59L1820.88 306H1808.41L1804.47 294.281ZM1787.09 284.789H1801.3L1794.16 263.5L1787.09 284.789Z" fill="white"/>
<path d="M2059.73 287.055C2059.28 293.174 2057.02 297.992 2052.93 301.508C2048.87 305.023 2043.5 306.781 2036.84 306.781C2029.54 306.781 2023.8 304.333 2019.61 299.438C2015.44 294.516 2013.36 287.771 2013.36 279.203V275.727C2013.36 270.258 2014.32 265.44 2016.25 261.273C2018.18 257.107 2020.92 253.917 2024.49 251.703C2028.09 249.464 2032.25 248.344 2036.99 248.344C2043.55 248.344 2048.84 250.102 2052.85 253.617C2056.86 257.133 2059.18 262.068 2059.8 268.422H2048.09C2047.8 264.75 2046.77 262.094 2045 260.453C2043.26 258.786 2040.59 257.953 2036.99 257.953C2033.09 257.953 2030.16 259.359 2028.2 262.172C2026.28 264.958 2025.29 269.294 2025.23 275.18V279.477C2025.23 285.622 2026.16 290.115 2028.01 292.953C2029.88 295.792 2032.83 297.211 2036.84 297.211C2040.46 297.211 2043.15 296.391 2044.92 294.75C2046.72 293.083 2047.75 290.518 2048.01 287.055H2059.73ZM2079.88 306H2068.16V249.125H2079.88V306ZM2125 281.352H2102.5V296.586H2128.91V306H2090.78V249.125H2128.83V258.617H2102.5V272.172H2125V281.352ZM2125.51 244.711V245.18H2116.52L2110.51 239.516L2104.49 245.18H2095.66V244.555L2107.23 233.773H2113.79L2125.51 244.711ZM2182.03 306H2170.31L2147.5 268.578V306H2135.78V249.125H2147.5L2170.35 286.625V249.125H2182.03V306ZM2236.91 287.055C2236.47 293.174 2234.21 297.992 2230.12 301.508C2226.05 305.023 2220.69 306.781 2214.02 306.781C2206.73 306.781 2200.99 304.333 2196.8 299.438C2192.63 294.516 2190.55 287.771 2190.55 279.203V275.727C2190.55 270.258 2191.51 265.44 2193.44 261.273C2195.36 257.107 2198.11 253.917 2201.68 251.703C2205.27 249.464 2209.44 248.344 2214.18 248.344C2220.74 248.344 2226.03 250.102 2230.04 253.617C2234.05 257.133 2236.37 262.068 2236.99 268.422H2225.27C2224.99 264.75 2223.96 262.094 2222.19 260.453C2220.44 258.786 2217.77 257.953 2214.18 257.953C2210.27 257.953 2207.34 259.359 2205.39 262.172C2203.46 264.958 2202.47 269.294 2202.42 275.18V279.477C2202.42 285.622 2203.35 290.115 2205.2 292.953C2207.07 295.792 2210.01 297.211 2214.02 297.211C2217.64 297.211 2220.34 296.391 2222.11 294.75C2223.91 293.083 2224.93 290.518 2225.2 287.055H2236.91ZM2257.07 306H2245.35V249.125H2257.07V306ZM2300.78 294.281H2280.23L2276.33 306H2263.87L2285.04 249.125H2295.9L2317.19 306H2304.73L2300.78 294.281ZM2283.4 284.789H2297.62L2290.47 263.5L2283.4 284.789Z" fill="#7A1A8B"/>
</svg>
