<svg width="2563" height="360" viewBox="0 0 2563 360" fill="none" xmlns="http://www.w3.org/2000/svg">
<rect width="592" height="360" transform="translate(651)" fill="black"/>
<rect x="7.5" y="7.5" width="577" height="345" transform="translate(651)" stroke="black" stroke-width="15"/>
<rect x="7.5" y="7.5" width="577" height="345" stroke="black" stroke-width="15"/>
<rect width="622" height="360" transform="translate(1295)" fill="black"/>
<rect x="7.5" y="7.5" width="607" height="345" transform="translate(1295)" stroke="black" stroke-width="15"/>
<rect x="7.5" y="7.5" width="577" height="345" transform="translate(1971)" stroke="black" stroke-width="15"/>
<path d="M34.5703 59.0781C34.5703 56.8646 33.7891 55.1719 32.2266 54C30.6641 52.8021 27.8516 51.5521 23.7891 50.25C19.7266 48.9219 16.5104 47.6198 14.1406 46.3438C7.68229 42.8542 4.45312 38.1536 4.45312 32.2422C4.45312 29.1693 5.3125 26.4349 7.03125 24.0391C8.77604 21.6172 11.263 19.7292 14.4922 18.375C17.7474 17.0208 21.3932 16.3438 25.4297 16.3438C29.4922 16.3438 33.112 17.0859 36.2891 18.5703C39.4661 20.0286 41.9271 22.099 43.6719 24.7812C45.4427 27.4635 46.3281 30.5104 46.3281 33.9219H34.6094C34.6094 31.3177 33.7891 29.2995 32.1484 27.8672C30.5078 26.4089 28.2031 25.6797 25.2344 25.6797C22.3698 25.6797 20.1432 26.2917 18.5547 27.5156C16.9661 28.7135 16.1719 30.3021 16.1719 32.2812C16.1719 34.1302 17.0964 35.6797 18.9453 36.9297C20.8203 38.1797 23.5677 39.3516 27.1875 40.4453C33.8542 42.4505 38.7109 44.9375 41.7578 47.9062C44.8047 50.875 46.3281 54.5729 46.3281 59C46.3281 63.9219 44.4661 67.7891 40.7422 70.6016C37.0182 73.388 32.0052 74.7812 25.7031 74.7812C21.3281 74.7812 17.3438 73.987 13.75 72.3984C10.1562 70.7839 7.40885 68.5833 5.50781 65.7969C3.63281 63.0104 2.69531 59.7812 2.69531 56.1094H14.4531C14.4531 62.3854 18.2031 65.5234 25.7031 65.5234C28.4896 65.5234 30.6641 64.9635 32.2266 63.8438C33.7891 62.6979 34.5703 61.1094 34.5703 59.0781ZM101.016 46.8516C101.016 52.4505 100.026 57.3594 98.0469 61.5781C96.0677 65.7969 93.2292 69.0521 89.5312 71.3438C85.8594 73.6354 81.6406 74.7812 76.875 74.7812C72.1615 74.7812 67.9557 73.6484 64.2578 71.3828C60.5599 69.1172 57.6953 65.888 55.6641 61.6953C53.6328 57.4766 52.6042 52.6328 52.5781 47.1641V44.3516C52.5781 38.7526 53.5807 33.8307 55.5859 29.5859C57.6172 25.3151 60.4688 22.0469 64.1406 19.7812C67.8385 17.4896 72.0573 16.3438 76.7969 16.3438C81.5365 16.3438 85.7422 17.4896 89.4141 19.7812C93.112 22.0469 95.9635 25.3151 97.9688 29.5859C100 33.8307 101.016 38.7396 101.016 44.3125V46.8516ZM89.1406 44.2734C89.1406 38.3099 88.0729 33.7786 85.9375 30.6797C83.8021 27.5807 80.7552 26.0312 76.7969 26.0312C72.8646 26.0312 69.8307 27.5677 67.6953 30.6406C65.5599 33.6875 64.4792 38.1667 64.4531 44.0781V46.8516C64.4531 52.6589 65.5208 57.1641 67.6562 60.3672C69.7917 63.5703 72.8646 65.1719 76.875 65.1719C80.8073 65.1719 83.8281 63.6354 85.9375 60.5625C88.0469 57.4635 89.1146 52.9583 89.1406 47.0469V44.2734ZM154.18 55.0547C153.737 61.1745 151.471 65.9922 147.383 69.5078C143.32 73.0234 137.956 74.7812 131.289 74.7812C123.997 74.7812 118.255 72.3333 114.062 67.4375C109.896 62.5156 107.812 55.7708 107.812 47.2031V43.7266C107.812 38.2578 108.776 33.4401 110.703 29.2734C112.63 25.1068 115.378 21.9167 118.945 19.7031C122.539 17.4635 126.706 16.3438 131.445 16.3438C138.008 16.3438 143.294 18.1016 147.305 21.6172C151.315 25.1328 153.633 30.0677 154.258 36.4219H142.539C142.253 32.75 141.224 30.0938 139.453 28.4531C137.708 26.7865 135.039 25.9531 131.445 25.9531C127.539 25.9531 124.609 27.3594 122.656 30.1719C120.729 32.9583 119.74 37.2943 119.688 43.1797V47.4766C119.688 53.6224 120.612 58.1146 122.461 60.9531C124.336 63.7917 127.279 65.2109 131.289 65.2109C134.909 65.2109 137.604 64.3906 139.375 62.75C141.172 61.0833 142.201 58.5182 142.461 55.0547H154.18ZM174.336 74H162.617V17.125H174.336V74ZM219.453 49.3516H196.953V64.5859H223.359V74H185.234V17.125H223.281V26.6172H196.953V40.1719H219.453V49.3516ZM230.234 74V17.125H247.734C252.734 17.125 257.201 18.2578 261.133 20.5234C265.091 22.763 268.177 25.9661 270.391 30.1328C272.604 34.2734 273.711 38.987 273.711 44.2734V46.8906C273.711 52.1771 272.617 56.8776 270.43 60.9922C268.268 65.1068 265.208 68.2969 261.25 70.5625C257.292 72.8281 252.826 73.974 247.852 74H230.234ZM241.953 26.6172V64.5859H247.617C252.201 64.5859 255.703 63.0885 258.125 60.0938C260.547 57.099 261.784 52.8151 261.836 47.2422V44.2344C261.836 38.4531 260.638 34.0781 258.242 31.1094C255.846 28.1146 252.344 26.6172 247.734 26.6172H241.953ZM313.516 62.2812H292.969L289.062 74H276.602L297.773 17.125H308.633L329.922 74H317.461L313.516 62.2812ZM296.133 52.7891H310.352L303.203 31.5L296.133 52.7891ZM335.234 74V17.125H352.734C357.734 17.125 362.201 18.2578 366.133 20.5234C370.091 22.763 373.177 25.9661 375.391 30.1328C377.604 34.2734 378.711 38.987 378.711 44.2734V46.8906C378.711 52.1771 377.617 56.8776 375.43 60.9922C373.268 65.1068 370.208 68.2969 366.25 70.5625C362.292 72.8281 357.826 73.974 352.852 74H335.234ZM346.953 26.6172V64.5859H352.617C357.201 64.5859 360.703 63.0885 363.125 60.0938C365.547 57.099 366.784 52.8151 366.836 47.2422V44.2344C366.836 38.4531 365.638 34.0781 363.242 31.1094C360.846 28.1146 357.344 26.6172 352.734 26.6172H346.953ZM421.484 49.3516H398.984V64.5859H425.391V74H387.266V17.125H425.312V26.6172H398.984V40.1719H421.484V49.3516Z" transform="translate(45 232)" fill="black"/>
<path d="M39.2969 49.3516H16.7969V64.5859H43.2031V74H5.07812V17.125H43.125V26.6172H16.7969V40.1719H39.2969V49.3516ZM79.5703 59.0781C79.5703 56.8646 78.7891 55.1719 77.2266 54C75.6641 52.8021 72.8516 51.5521 68.7891 50.25C64.7266 48.9219 61.5104 47.6198 59.1406 46.3438C52.6823 42.8542 49.4531 38.1536 49.4531 32.2422C49.4531 29.1693 50.3125 26.4349 52.0312 24.0391C53.776 21.6172 56.263 19.7292 59.4922 18.375C62.7474 17.0208 66.3932 16.3438 70.4297 16.3438C74.4922 16.3438 78.112 17.0859 81.2891 18.5703C84.4661 20.0286 86.9271 22.099 88.6719 24.7812C90.4427 27.4635 91.3281 30.5104 91.3281 33.9219H79.6094C79.6094 31.3177 78.7891 29.2995 77.1484 27.8672C75.5078 26.4089 73.2031 25.6797 70.2344 25.6797C67.3698 25.6797 65.1432 26.2917 63.5547 27.5156C61.9661 28.7135 61.1719 30.3021 61.1719 32.2812C61.1719 34.1302 62.0964 35.6797 63.9453 36.9297C65.8203 38.1797 68.5677 39.3516 72.1875 40.4453C78.8542 42.4505 83.7109 44.9375 86.7578 47.9062C89.8047 50.875 91.3281 54.5729 91.3281 59C91.3281 63.9219 89.4661 67.7891 85.7422 70.6016C82.0182 73.388 77.0052 74.7812 70.7031 74.7812C66.3281 74.7812 62.3438 73.987 58.75 72.3984C55.1562 70.7839 52.4089 68.5833 50.5078 65.7969C48.6328 63.0104 47.6953 59.7812 47.6953 56.1094H59.4531C59.4531 62.3854 63.2031 65.5234 70.7031 65.5234C73.4896 65.5234 75.6641 64.9635 77.2266 63.8438C78.7891 62.6979 79.5703 61.1094 79.5703 59.0781ZM142.109 26.6172H124.688V74H112.969V26.6172H95.7812V17.125H142.109V26.6172ZM183.047 49.3516H160.547V64.5859H186.953V74H148.828V17.125H186.875V26.6172H160.547V40.1719H183.047V49.3516ZM170.82 1.77344H183.125L172.305 13.8828H163.125L170.82 1.77344ZM237.422 26.6172H220V74H208.281V26.6172H191.094V17.125H237.422V26.6172ZM256.602 74H244.883V17.125H256.602V74ZM312.148 55.0547C311.706 61.1745 309.44 65.9922 305.352 69.5078C301.289 73.0234 295.924 74.7812 289.258 74.7812C281.966 74.7812 276.224 72.3333 272.031 67.4375C267.865 62.5156 265.781 55.7708 265.781 47.2031V43.7266C265.781 38.2578 266.745 33.4401 268.672 29.2734C270.599 25.1068 273.346 21.9167 276.914 19.7031C280.508 17.4635 284.674 16.3438 289.414 16.3438C295.977 16.3438 301.263 18.1016 305.273 21.6172C309.284 25.1328 311.602 30.0677 312.227 36.4219H300.508C300.221 32.75 299.193 30.0938 297.422 28.4531C295.677 26.7865 293.008 25.9531 289.414 25.9531C285.508 25.9531 282.578 27.3594 280.625 30.1719C278.698 32.9583 277.708 37.2943 277.656 43.1797V47.4766C277.656 53.6224 278.581 58.1146 280.43 60.9531C282.305 63.7917 285.247 65.2109 289.258 65.2109C292.878 65.2109 295.573 64.3906 297.344 62.75C299.141 61.0833 300.169 58.5182 300.43 55.0547H312.148ZM351.953 62.2812H331.406L327.5 74H315.039L336.211 17.125H347.07L368.359 74H355.898L351.953 62.2812ZM334.57 52.7891H348.789L341.641 31.5L334.57 52.7891Z" transform="translate(693 232)" fill="white"/>
<path d="M47.8906 26.6172H30.4688V74H18.75V26.6172H1.5625V17.125H47.8906V26.6172ZM88.8281 49.3516H66.3281V64.5859H92.7344V74H54.6094V17.125H92.6562V26.6172H66.3281V40.1719H88.8281V49.3516ZM144.258 55.0547C143.815 61.1745 141.549 65.9922 137.461 69.5078C133.398 73.0234 128.034 74.7812 121.367 74.7812C114.076 74.7812 108.333 72.3333 104.141 67.4375C99.974 62.5156 97.8906 55.7708 97.8906 47.2031V43.7266C97.8906 38.2578 98.8542 33.4401 100.781 29.2734C102.708 25.1068 105.456 21.9167 109.023 19.7031C112.617 17.4635 116.784 16.3438 121.523 16.3438C128.086 16.3438 133.372 18.1016 137.383 21.6172C141.393 25.1328 143.711 30.0677 144.336 36.4219H132.617C132.331 32.75 131.302 30.0938 129.531 28.4531C127.786 26.7865 125.117 25.9531 121.523 25.9531C117.617 25.9531 114.688 27.3594 112.734 30.1719C110.807 32.9583 109.818 37.2943 109.766 43.1797V47.4766C109.766 53.6224 110.69 58.1146 112.539 60.9531C114.414 63.7917 117.357 65.2109 121.367 65.2109C124.987 65.2109 127.682 64.3906 129.453 62.75C131.25 61.0833 132.279 58.5182 132.539 55.0547H144.258ZM198.203 74H186.484L163.672 36.5781V74H151.953V17.125H163.672L186.523 54.625V17.125H198.203V74ZM255.156 46.8516C255.156 52.4505 254.167 57.3594 252.188 61.5781C250.208 65.7969 247.37 69.0521 243.672 71.3438C240 73.6354 235.781 74.7812 231.016 74.7812C226.302 74.7812 222.096 73.6484 218.398 71.3828C214.701 69.1172 211.836 65.888 209.805 61.6953C207.773 57.4766 206.745 52.6328 206.719 47.1641V44.3516C206.719 38.7526 207.721 33.8307 209.727 29.5859C211.758 25.3151 214.609 22.0469 218.281 19.7812C221.979 17.4896 226.198 16.3438 230.938 16.3438C235.677 16.3438 239.883 17.4896 243.555 19.7812C247.253 22.0469 250.104 25.3151 252.109 29.5859C254.141 33.8307 255.156 38.7396 255.156 44.3125V46.8516ZM243.281 44.2734C243.281 38.3099 242.214 33.7786 240.078 30.6797C237.943 27.5807 234.896 26.0312 230.938 26.0312C227.005 26.0312 223.971 27.5677 221.836 30.6406C219.701 33.6875 218.62 38.1667 218.594 44.0781V46.8516C218.594 52.6589 219.661 57.1641 221.797 60.3672C223.932 63.5703 227.005 65.1719 231.016 65.1719C234.948 65.1719 237.969 63.6354 240.078 60.5625C242.188 57.4635 243.255 52.9583 243.281 47.0469V44.2734ZM275.391 64.5859H300.273V74H263.672V17.125H275.391V64.5859ZM351.25 46.8516C351.25 52.4505 350.26 57.3594 348.281 61.5781C346.302 65.7969 343.464 69.0521 339.766 71.3438C336.094 73.6354 331.875 74.7812 327.109 74.7812C322.396 74.7812 318.19 73.6484 314.492 71.3828C310.794 69.1172 307.93 65.888 305.898 61.6953C303.867 57.4766 302.839 52.6328 302.812 47.1641V44.3516C302.812 38.7526 303.815 33.8307 305.82 29.5859C307.852 25.3151 310.703 22.0469 314.375 19.7812C318.073 17.4896 322.292 16.3438 327.031 16.3438C331.771 16.3438 335.977 17.4896 339.648 19.7812C343.346 22.0469 346.198 25.3151 348.203 29.5859C350.234 33.8307 351.25 38.7396 351.25 44.3125V46.8516ZM339.375 44.2734C339.375 38.3099 338.307 33.7786 336.172 30.6797C334.036 27.5807 330.99 26.0312 327.031 26.0312C323.099 26.0312 320.065 27.5677 317.93 30.6406C315.794 33.6875 314.714 38.1667 314.688 44.0781V46.8516C314.688 52.6589 315.755 57.1641 317.891 60.3672C320.026 63.5703 323.099 65.1719 327.109 65.1719C331.042 65.1719 334.062 63.6354 336.172 60.5625C338.281 57.4635 339.349 52.9583 339.375 47.0469V44.2734ZM404.766 66.8125C402.656 69.3385 399.674 71.3047 395.82 72.7109C391.966 74.0911 387.695 74.7812 383.008 74.7812C378.086 74.7812 373.763 73.7135 370.039 71.5781C366.341 69.4167 363.477 66.2917 361.445 62.2031C359.44 58.1146 358.411 53.3099 358.359 47.7891V43.9219C358.359 38.2448 359.31 33.3359 361.211 29.1953C363.138 25.0286 365.898 21.8516 369.492 19.6641C373.112 17.4505 377.344 16.3438 382.188 16.3438C388.932 16.3438 394.206 17.9583 398.008 21.1875C401.81 24.3906 404.062 29.0651 404.766 35.2109H393.359C392.839 31.9557 391.68 29.5729 389.883 28.0625C388.112 26.5521 385.664 25.7969 382.539 25.7969C378.555 25.7969 375.521 27.2943 373.438 30.2891C371.354 33.2839 370.299 37.737 370.273 43.6484V47.2812C370.273 53.2448 371.406 57.75 373.672 60.7969C375.938 63.8438 379.258 65.3672 383.633 65.3672C388.034 65.3672 391.172 64.4297 393.047 62.5547V52.75H382.383V44.1172H404.766V66.8125ZM426.758 74H415.039V17.125H426.758V74ZM470.469 62.2812H449.922L446.016 74H433.555L454.727 17.125H465.586L486.875 74H474.414L470.469 62.2812ZM453.086 52.7891H467.305L460.156 31.5L453.086 52.7891Z" transform="translate(1334 232)" fill="white"/>
<path d="M49.7266 55.0547C49.2839 61.1745 47.0182 65.9922 42.9297 69.5078C38.8672 73.0234 33.5026 74.7812 26.8359 74.7812C19.5443 74.7812 13.8021 72.3333 9.60938 67.4375C5.44271 62.5156 3.35938 55.7708 3.35938 47.2031V43.7266C3.35938 38.2578 4.32292 33.4401 6.25 29.2734C8.17708 25.1068 10.9245 21.9167 14.4922 19.7031C18.0859 17.4635 22.2526 16.3438 26.9922 16.3438C33.5547 16.3438 38.8411 18.1016 42.8516 21.6172C46.862 25.1328 49.1797 30.0677 49.8047 36.4219H38.0859C37.7995 32.75 36.7708 30.0938 35 28.4531C33.2552 26.7865 30.5859 25.9531 26.9922 25.9531C23.0859 25.9531 20.1562 27.3594 18.2031 30.1719C16.276 32.9583 15.2865 37.2943 15.2344 43.1797V47.4766C15.2344 53.6224 16.1589 58.1146 18.0078 60.9531C19.8828 63.7917 22.8255 65.2109 26.8359 65.2109C30.4557 65.2109 33.151 64.3906 34.9219 62.75C36.7188 61.0833 37.7474 58.5182 38.0078 55.0547H49.7266ZM69.8828 74H58.1641V17.125H69.8828V74ZM115 49.3516H92.5V64.5859H118.906V74H80.7812V17.125H118.828V26.6172H92.5V40.1719H115V49.3516ZM115.508 12.7109V13.1797H106.523L100.508 7.51562L94.4922 13.1797H85.6641V12.5547L97.2266 1.77344H103.789L115.508 12.7109ZM172.031 74H160.312L137.5 36.5781V74H125.781V17.125H137.5L160.352 54.625V17.125H172.031V74ZM226.914 55.0547C226.471 61.1745 224.206 65.9922 220.117 69.5078C216.055 73.0234 210.69 74.7812 204.023 74.7812C196.732 74.7812 190.99 72.3333 186.797 67.4375C182.63 62.5156 180.547 55.7708 180.547 47.2031V43.7266C180.547 38.2578 181.51 33.4401 183.438 29.2734C185.365 25.1068 188.112 21.9167 191.68 19.7031C195.273 17.4635 199.44 16.3438 204.18 16.3438C210.742 16.3438 216.029 18.1016 220.039 21.6172C224.049 25.1328 226.367 30.0677 226.992 36.4219H215.273C214.987 32.75 213.958 30.0938 212.188 28.4531C210.443 26.7865 207.773 25.9531 204.18 25.9531C200.273 25.9531 197.344 27.3594 195.391 30.1719C193.464 32.9583 192.474 37.2943 192.422 43.1797V47.4766C192.422 53.6224 193.346 58.1146 195.195 60.9531C197.07 63.7917 200.013 65.2109 204.023 65.2109C207.643 65.2109 210.339 64.3906 212.109 62.75C213.906 61.0833 214.935 58.5182 215.195 55.0547H226.914ZM247.07 74H235.352V17.125H247.07V74ZM290.781 62.2812H270.234L266.328 74H253.867L275.039 17.125H285.898L307.188 74H294.727L290.781 62.2812ZM273.398 52.7891H287.617L280.469 31.5L273.398 52.7891Z" transform="translate(2010 232)" fill="black"/>
</svg>
