<svg width="1974" height="554" viewBox="0 0 1974 554" fill="none" xmlns="http://www.w3.org/2000/svg">
<rect width="1974" height="554" fill="#C4C4C4"/>
<path d="M532 160L0 76L302 0L870 28L1006 140L532 160Z" transform="translate(136 320)" fill="black"/>
<rect width="204" height="225.301" transform="translate(132 166.699)" fill="#C4C4C4"/>
<path d="M124 0L0 49.6988H204L304 0H124Z" transform="translate(132 117)" fill="#AEAEAE"/>
<path d="M100.5 204.317V0L0.5 49.1466L0 274.448L100.5 204.317Z" transform="translate(335.5 117.552)" fill="#8B8B8B"/>
<rect x="15" y="15" width="428" height="428" transform="translate(47 44)" stroke="white" stroke-width="30"/>
<rect x="7.5" y="7.5" width="918" height="443" transform="translate(47 44)" stroke="white" stroke-width="15" stroke-dasharray="20 15"/>
<line y1="-15" x2="690" y2="-15" transform="translate(617 294)" stroke="white" stroke-width="30"/>
<line y1="-15" x2="125" y2="-15" transform="translate(1248.92 363.856) rotate(-45)" stroke="white" stroke-width="30"/>
<line y1="-15" x2="125" y2="-15" transform="translate(1227 209) rotate(45)" stroke="white" stroke-width="30"/>
<path d="M16.9531 19.6836C16.707 21.7891 15.9277 23.416 14.6152 24.5645C13.3118 25.7038 11.5755 26.2734 9.40625 26.2734C7.05469 26.2734 5.16797 25.4303 3.74609 23.7441C2.33333 22.0579 1.62695 19.8021 1.62695 16.9766V15.0625C1.62695 13.2122 1.95508 11.5853 2.61133 10.1816C3.27669 8.77799 4.21549 7.70247 5.42773 6.95508C6.63997 6.19857 8.04362 5.82031 9.63867 5.82031C11.7533 5.82031 13.4486 6.41276 14.7246 7.59766C16.0007 8.77344 16.7435 10.4049 16.9531 12.4922H14.3145C14.0866 10.9062 13.5898 9.75781 12.8242 9.04688C12.0677 8.33594 11.0059 7.98047 9.63867 7.98047C7.96159 7.98047 6.64453 8.60026 5.6875 9.83984C4.73958 11.0794 4.26562 12.8431 4.26562 15.1309V17.0586C4.26562 19.2188 4.7168 20.9368 5.61914 22.2129C6.52148 23.4889 7.78385 24.127 9.40625 24.127C10.8646 24.127 11.9811 23.7988 12.7559 23.1426C13.5397 22.4772 14.0592 21.3242 14.3145 19.6836H16.9531ZM31.8008 16.7988H23.1738V23.8535H33.1953V26H20.5488V6.09375H33.0586V8.25391H23.1738V14.6523H31.8008V16.7988ZM51.7617 26H49.123L39.1016 10.6602V26H36.4629V6.09375H39.1016L49.1504 21.502V6.09375H51.7617V26ZM69.7676 8.25391H63.3691V26H60.7578V8.25391H54.373V6.09375H69.7676V8.25391ZM80.0215 17.9473H75.3457V26H72.707V6.09375H79.2969C81.5391 6.09375 83.2617 6.60417 84.4648 7.625C85.6771 8.64583 86.2832 10.1315 86.2832 12.082C86.2832 13.3216 85.946 14.4017 85.2715 15.3223C84.6061 16.2428 83.6764 16.931 82.4824 17.3867L87.1582 25.8359V26H84.3418L80.0215 17.9473ZM75.3457 15.8008H79.3789C80.6823 15.8008 81.7168 15.4635 82.4824 14.7891C83.2572 14.1146 83.6445 13.2122 83.6445 12.082C83.6445 10.8516 83.2754 9.9082 82.5371 9.25195C81.8079 8.5957 80.7507 8.26302 79.3652 8.25391H75.3457V15.8008ZM105.287 16.6895C105.287 18.64 104.959 20.3444 104.303 21.8027C103.646 23.252 102.717 24.3594 101.514 25.125C100.311 25.8906 98.9069 26.2734 97.3027 26.2734C95.735 26.2734 94.3451 25.8906 93.1328 25.125C91.9206 24.3503 90.9772 23.252 90.3027 21.8301C89.6374 20.3991 89.2956 18.7448 89.2773 16.8672V15.4316C89.2773 13.5176 89.61 11.8268 90.2754 10.3594C90.9408 8.89193 91.8796 7.77083 93.0918 6.99609C94.3132 6.21224 95.7077 5.82031 97.2754 5.82031C98.8704 5.82031 100.274 6.20768 101.486 6.98242C102.708 7.74805 103.646 8.86458 104.303 10.332C104.959 11.7904 105.287 13.4902 105.287 15.4316V16.6895ZM102.676 15.4043C102.676 13.0436 102.202 11.2344 101.254 9.97656C100.306 8.70964 98.9798 8.07617 97.2754 8.07617C95.6165 8.07617 94.3086 8.70964 93.3516 9.97656C92.4036 11.2344 91.916 12.9844 91.8887 15.2266V16.6895C91.8887 18.9772 92.3672 20.7773 93.3242 22.0898C94.2904 23.3932 95.6165 24.0449 97.3027 24.0449C98.998 24.0449 100.311 23.4297 101.24 22.1992C102.17 20.9596 102.648 19.1868 102.676 16.8809V15.4043ZM127.148 17.209H118.795V26H116.17V6.09375H128.502V8.25391H118.795V15.0625H127.148V17.209ZM146.959 16.6895C146.959 18.64 146.631 20.3444 145.975 21.8027C145.318 23.252 144.389 24.3594 143.186 25.125C141.982 25.8906 140.579 26.2734 138.975 26.2734C137.407 26.2734 136.017 25.8906 134.805 25.125C133.592 24.3503 132.649 23.252 131.975 21.8301C131.309 20.3991 130.967 18.7448 130.949 16.8672V15.4316C130.949 13.5176 131.282 11.8268 131.947 10.3594C132.613 8.89193 133.551 7.77083 134.764 6.99609C135.985 6.21224 137.38 5.82031 138.947 5.82031C140.542 5.82031 141.946 6.20768 143.158 6.98242C144.38 7.74805 145.318 8.86458 145.975 10.332C146.631 11.7904 146.959 13.4902 146.959 15.4316V16.6895ZM144.348 15.4043C144.348 13.0436 143.874 11.2344 142.926 9.97656C141.978 8.70964 140.652 8.07617 138.947 8.07617C137.288 8.07617 135.98 8.70964 135.023 9.97656C134.076 11.2344 133.588 12.9844 133.561 15.2266V16.6895C133.561 18.9772 134.039 20.7773 134.996 22.0898C135.962 23.3932 137.288 24.0449 138.975 24.0449C140.67 24.0449 141.982 23.4297 142.912 22.1992C143.842 20.9596 144.32 19.1868 144.348 16.8809V15.4043ZM165.539 19.6836C165.293 21.7891 164.514 23.416 163.201 24.5645C161.898 25.7038 160.161 26.2734 157.992 26.2734C155.641 26.2734 153.754 25.4303 152.332 23.7441C150.919 22.0579 150.213 19.8021 150.213 16.9766V15.0625C150.213 13.2122 150.541 11.5853 151.197 10.1816C151.863 8.77799 152.801 7.70247 154.014 6.95508C155.226 6.19857 156.63 5.82031 158.225 5.82031C160.339 5.82031 162.035 6.41276 163.311 7.59766C164.587 8.77344 165.329 10.4049 165.539 12.4922H162.9C162.673 10.9062 162.176 9.75781 161.41 9.04688C160.654 8.33594 159.592 7.98047 158.225 7.98047C156.548 7.98047 155.23 8.60026 154.273 9.83984C153.326 11.0794 152.852 12.8431 152.852 15.1309V17.0586C152.852 19.2188 153.303 20.9368 154.205 22.2129C155.107 23.4889 156.37 24.127 157.992 24.127C159.451 24.127 160.567 23.7988 161.342 23.1426C162.126 22.4772 162.645 21.3242 162.9 19.6836H165.539ZM180.127 20.8047H171.787L169.914 26H167.207L174.809 6.09375H177.105L184.721 26H182.027L180.127 20.8047ZM172.58 18.6445H179.348L175.957 9.33398L172.58 18.6445ZM190.039 23.8535H199.473V26H187.4V6.09375H190.039V23.8535Z" transform="translate(93 429)" fill="white"/>
<path d="M13.5625 16.7988H4.93555V23.8535H14.957V26H2.31055V6.09375H14.8203V8.25391H4.93555V14.6523H13.5625V16.7988ZM24.7188 13.7227L29.4902 6.09375H32.5801L26.291 15.9648L32.7305 26H29.6133L24.7188 18.2344L19.7969 26H16.6934L23.1465 15.9648L16.8438 6.09375H19.9199L24.7188 13.7227ZM49.5332 8.25391H43.1348V26H40.5234V8.25391H34.1387V6.09375H49.5332V8.25391ZM63.7383 16.7988H55.1113V23.8535H65.1328V26H52.4863V6.09375H64.9961V8.25391H55.1113V14.6523H63.7383V16.7988ZM83.6992 26H81.0605L71.0391 10.6602V26H68.4004V6.09375H71.0391L81.0879 21.502V6.09375H83.6992V26ZM94.2266 17.127C91.9753 16.4798 90.3346 15.6868 89.3047 14.748C88.2839 13.8001 87.7734 12.6335 87.7734 11.248C87.7734 9.68034 88.3978 8.38607 89.6465 7.36523C90.9043 6.33529 92.5358 5.82031 94.541 5.82031C95.9082 5.82031 97.125 6.08464 98.1914 6.61328C99.2669 7.14193 100.096 7.87109 100.68 8.80078C101.272 9.73047 101.568 10.7467 101.568 11.8496H98.9297C98.9297 10.6465 98.5469 9.70312 97.7812 9.01953C97.0156 8.32682 95.9355 7.98047 94.541 7.98047C93.2467 7.98047 92.235 8.26758 91.5059 8.8418C90.7858 9.4069 90.4258 10.1953 90.4258 11.207C90.4258 12.0182 90.7676 12.7064 91.4512 13.2715C92.1439 13.8275 93.3151 14.3379 94.9648 14.8027C96.6237 15.2676 97.918 15.7826 98.8477 16.3477C99.7865 16.9036 100.479 17.5553 100.926 18.3027C101.382 19.0501 101.609 19.9297 101.609 20.9414C101.609 22.5547 100.98 23.849 99.7227 24.8242C98.4648 25.7904 96.7832 26.2734 94.6777 26.2734C93.3105 26.2734 92.0345 26.0137 90.8496 25.4941C89.6647 24.9655 88.7487 24.2454 88.1016 23.334C87.4635 22.4225 87.1445 21.388 87.1445 20.2305H89.7832C89.7832 21.4336 90.2253 22.3861 91.1094 23.0879C92.0026 23.7806 93.1921 24.127 94.6777 24.127C96.0632 24.127 97.125 23.8444 97.8633 23.2793C98.6016 22.7142 98.9707 21.944 98.9707 20.9688C98.9707 19.9935 98.6289 19.2415 97.9453 18.7129C97.2617 18.1751 96.0221 17.6465 94.2266 17.127ZM115.979 20.8047H107.639L105.766 26H103.059L110.66 6.09375H112.957L120.572 26H117.879L115.979 20.8047ZM108.432 18.6445H115.199L111.809 9.33398L108.432 18.6445ZM116.717 1.19922C116.717 2.18359 116.434 2.98112 115.869 3.5918C115.313 4.20247 114.616 4.50781 113.777 4.50781C113.404 4.50781 113.08 4.46224 112.807 4.37109C112.533 4.27995 112.173 4.0931 111.727 3.81055C111.289 3.52799 110.97 3.35938 110.77 3.30469C110.578 3.24089 110.355 3.20898 110.1 3.20898C109.726 3.20898 109.407 3.35482 109.143 3.64648C108.878 3.92904 108.746 4.29362 108.746 4.74023L107.051 4.64453C107.051 3.66927 107.324 2.86263 107.871 2.22461C108.427 1.58659 109.129 1.26758 109.977 1.26758C110.296 1.26758 110.583 1.31315 110.838 1.4043C111.093 1.49544 111.439 1.67318 111.877 1.9375C112.314 2.20182 112.647 2.375 112.875 2.45703C113.112 2.53906 113.372 2.58008 113.654 2.58008C114.046 2.58008 114.37 2.42513 114.625 2.11523C114.889 1.80534 115.021 1.44531 115.021 1.03516L116.717 1.19922ZM138.4 16.6895C138.4 18.64 138.072 20.3444 137.416 21.8027C136.76 23.252 135.83 24.3594 134.627 25.125C133.424 25.8906 132.02 26.2734 130.416 26.2734C128.848 26.2734 127.458 25.8906 126.246 25.125C125.034 24.3503 124.09 23.252 123.416 21.8301C122.751 20.3991 122.409 18.7448 122.391 16.8672V15.4316C122.391 13.5176 122.723 11.8268 123.389 10.3594C124.054 8.89193 124.993 7.77083 126.205 6.99609C127.426 6.21224 128.821 5.82031 130.389 5.82031C131.984 5.82031 133.387 6.20768 134.6 6.98242C135.821 7.74805 136.76 8.86458 137.416 10.332C138.072 11.7904 138.4 13.4902 138.4 15.4316V16.6895ZM135.789 15.4043C135.789 13.0436 135.315 11.2344 134.367 9.97656C133.419 8.70964 132.093 8.07617 130.389 8.07617C128.73 8.07617 127.422 8.70964 126.465 9.97656C125.517 11.2344 125.029 12.9844 125.002 15.2266V16.6895C125.002 18.9772 125.48 20.7773 126.438 22.0898C127.404 23.3932 128.73 24.0449 130.416 24.0449C132.111 24.0449 133.424 23.4297 134.354 22.1992C135.283 20.9596 135.762 19.1868 135.789 16.8809V15.4043Z" transform="translate(1356 259)" fill="white"/>
<path d="M2.31055 26V6.09375H7.92969C9.66146 6.09375 11.1927 6.47656 12.5234 7.24219C13.8542 8.00781 14.8796 9.09701 15.5996 10.5098C16.3288 11.9225 16.6979 13.5449 16.707 15.377V16.6484C16.707 18.526 16.3424 20.1712 15.6133 21.584C14.8932 22.9967 13.8587 24.0814 12.5098 24.8379C11.1699 25.5944 9.60677 25.9818 7.82031 26H2.31055ZM4.93555 8.25391V23.8535H7.69727C9.7207 23.8535 11.293 23.2246 12.4141 21.9668C13.5443 20.709 14.1094 18.918 14.1094 16.5938V15.4316C14.1094 13.1712 13.5762 11.4167 12.5098 10.168C11.4525 8.91016 9.94857 8.27214 7.99805 8.25391H4.93555ZM23.502 26H20.877V6.09375H23.502V26ZM35.6152 17.9473H30.9395V26H28.3008V6.09375H34.8906C37.1328 6.09375 38.8555 6.60417 40.0586 7.625C41.2708 8.64583 41.877 10.1315 41.877 12.082C41.877 13.3216 41.5397 14.4017 40.8652 15.3223C40.1999 16.2428 39.2702 16.931 38.0762 17.3867L42.752 25.8359V26H39.9355L35.6152 17.9473ZM30.9395 15.8008H34.9727C36.276 15.8008 37.3105 15.4635 38.0762 14.7891C38.8509 14.1146 39.2383 13.2122 39.2383 12.082C39.2383 10.8516 38.8691 9.9082 38.1309 9.25195C37.4017 8.5957 36.3444 8.26302 34.959 8.25391H30.9395V15.8008ZM56.8203 16.7988H48.1934V23.8535H58.2148V26H45.5684V6.09375H58.0781V8.25391H48.1934V14.6523H56.8203V16.7988ZM76.125 19.6836C75.8789 21.7891 75.0996 23.416 73.7871 24.5645C72.4837 25.7038 70.7474 26.2734 68.5781 26.2734C66.2266 26.2734 64.3398 25.4303 62.918 23.7441C61.5052 22.0579 60.7988 19.8021 60.7988 16.9766V15.0625C60.7988 13.2122 61.127 11.5853 61.7832 10.1816C62.4486 8.77799 63.3874 7.70247 64.5996 6.95508C65.8118 6.19857 67.2155 5.82031 68.8105 5.82031C70.9251 5.82031 72.6204 6.41276 73.8965 7.59766C75.1725 8.77344 75.9154 10.4049 76.125 12.4922H73.4863C73.2585 10.9062 72.7617 9.75781 71.9961 9.04688C71.2396 8.33594 70.1777 7.98047 68.8105 7.98047C67.1335 7.98047 65.8164 8.60026 64.8594 9.83984C63.9115 11.0794 63.4375 12.8431 63.4375 15.1309V17.0586C63.4375 19.2188 63.8887 20.9368 64.791 22.2129C65.6934 23.4889 66.9557 24.127 68.5781 24.127C70.0365 24.127 71.153 23.7988 71.9277 23.1426C72.7116 22.4772 73.2311 21.3242 73.4863 19.6836H76.125ZM69.4395 26.123L69.2754 26.834C70.6699 27.0801 71.3672 27.8685 71.3672 29.1992C71.3672 30.0833 71.0026 30.7806 70.2734 31.291C69.5443 31.8105 68.528 32.0703 67.2246 32.0703L67.1289 30.6074C67.849 30.6074 68.4049 30.4889 68.7969 30.252C69.1979 30.015 69.3984 29.6823 69.3984 29.2539C69.3984 28.8529 69.2526 28.5566 68.9609 28.3652C68.6693 28.1738 68.0768 28.0371 67.1836 27.9551L67.6211 26.123H69.4395ZM90.7129 20.8047H82.373L80.5 26H77.793L85.3945 6.09375H87.6914L95.3066 26H92.6133L90.7129 20.8047ZM83.166 18.6445H89.9336L86.543 9.33398L83.166 18.6445ZM91.4512 1.19922C91.4512 2.18359 91.1686 2.98112 90.6035 3.5918C90.0475 4.20247 89.3503 4.50781 88.5117 4.50781C88.138 4.50781 87.8145 4.46224 87.541 4.37109C87.2676 4.27995 86.9076 4.0931 86.4609 3.81055C86.0234 3.52799 85.7044 3.35938 85.5039 3.30469C85.3125 3.24089 85.0892 3.20898 84.834 3.20898C84.4603 3.20898 84.1413 3.35482 83.877 3.64648C83.6126 3.92904 83.4805 4.29362 83.4805 4.74023L81.7852 4.64453C81.7852 3.66927 82.0586 2.86263 82.6055 2.22461C83.1615 1.58659 83.8633 1.26758 84.7109 1.26758C85.0299 1.26758 85.3171 1.31315 85.5723 1.4043C85.8275 1.49544 86.1738 1.67318 86.6113 1.9375C87.0488 2.20182 87.3815 2.375 87.6094 2.45703C87.8464 2.53906 88.1061 2.58008 88.3887 2.58008C88.7806 2.58008 89.1042 2.42513 89.3594 2.11523C89.6237 1.80534 89.7559 1.44531 89.7559 1.03516L91.4512 1.19922ZM113.135 16.6895C113.135 18.64 112.807 20.3444 112.15 21.8027C111.494 23.252 110.564 24.3594 109.361 25.125C108.158 25.8906 106.755 26.2734 105.15 26.2734C103.583 26.2734 102.193 25.8906 100.98 25.125C99.7682 24.3503 98.8249 23.252 98.1504 21.8301C97.485 20.3991 97.1432 18.7448 97.125 16.8672V15.4316C97.125 13.5176 97.4577 11.8268 98.123 10.3594C98.7884 8.89193 99.7272 7.77083 100.939 6.99609C102.161 6.21224 103.555 5.82031 105.123 5.82031C106.718 5.82031 108.122 6.20768 109.334 6.98242C110.555 7.74805 111.494 8.86458 112.15 10.332C112.807 11.7904 113.135 13.4902 113.135 15.4316V16.6895ZM110.523 15.4043C110.523 13.0436 110.049 11.2344 109.102 9.97656C108.154 8.70964 106.827 8.07617 105.123 8.07617C103.464 8.07617 102.156 8.70964 101.199 9.97656C100.251 11.2344 99.7637 12.9844 99.7363 15.2266V16.6895C99.7363 18.9772 100.215 20.7773 101.172 22.0898C102.138 23.3932 103.464 24.0449 105.15 24.0449C106.846 24.0449 108.158 23.4297 109.088 22.1992C110.018 20.9596 110.496 19.1868 110.523 16.8809V15.4043ZM124.018 26V6.09375H129.637C131.368 6.09375 132.9 6.47656 134.23 7.24219C135.561 8.00781 136.587 9.09701 137.307 10.5098C138.036 11.9225 138.405 13.5449 138.414 15.377V16.6484C138.414 18.526 138.049 20.1712 137.32 21.584C136.6 22.9967 135.566 24.0814 134.217 24.8379C132.877 25.5944 131.314 25.9818 129.527 26H124.018ZM126.643 8.25391V23.8535H129.404C131.428 23.8535 133 23.2246 134.121 21.9668C135.251 20.709 135.816 18.918 135.816 16.5938V15.4316C135.816 13.1712 135.283 11.4167 134.217 10.168C133.16 8.91016 131.656 8.27214 129.705 8.25391H126.643ZM153.084 20.8047H144.744L142.871 26H140.164L147.766 6.09375H150.062L157.678 26H154.984L153.084 20.8047ZM145.537 18.6445H152.305L148.914 9.33398L145.537 18.6445ZM170.119 26H167.494V6.09375H170.119V26ZM178.322 6.09375L184.83 22.3359L191.338 6.09375H194.742V26H192.117V18.248L192.363 9.88086L185.828 26H183.818L177.297 9.92188L177.557 18.248V26H174.932V6.09375H178.322ZM210.615 20.8047H202.275L200.402 26H197.695L205.297 6.09375H207.594L215.209 26H212.516L210.615 20.8047ZM203.068 18.6445H209.836L206.445 9.33398L203.068 18.6445ZM232.422 23.3887C231.747 24.3548 230.804 25.0794 229.592 25.5625C228.389 26.0365 226.985 26.2734 225.381 26.2734C223.758 26.2734 222.318 25.8952 221.061 25.1387C219.803 24.373 218.827 23.2884 218.135 21.8848C217.451 20.4811 217.1 18.8542 217.082 17.0039V15.2676C217.082 12.2689 217.779 9.94466 219.174 8.29492C220.577 6.64518 222.546 5.82031 225.08 5.82031C227.158 5.82031 228.831 6.35352 230.098 7.41992C231.365 8.47721 232.139 9.98112 232.422 11.9316H229.797C229.305 9.29753 227.737 7.98047 225.094 7.98047C223.335 7.98047 221.999 8.60026 221.088 9.83984C220.186 11.0703 219.73 12.8568 219.721 15.1992V16.8262C219.721 19.0592 220.231 20.8366 221.252 22.1582C222.273 23.4707 223.654 24.127 225.395 24.127C226.379 24.127 227.24 24.0176 227.979 23.7988C228.717 23.5801 229.327 23.2109 229.811 22.6914V18.2207H225.203V16.0879H232.422V23.3887ZM248.062 16.7988H239.436V23.8535H249.457V26H236.811V6.09375H249.32V8.25391H239.436V14.6523H248.062V16.7988ZM256.115 6.09375L262.623 22.3359L269.131 6.09375H272.535V26H269.91V18.248L270.156 9.88086L263.621 26H261.611L255.09 9.92188L255.35 18.248V26H252.725V6.09375H256.115Z" transform="translate(617 220)" fill="white"/>
</svg>
