<svg width="90" height="85" viewBox="0 0 90 85" fill="none" xmlns="http://www.w3.org/2000/svg">
<path fill-rule="evenodd" clip-rule="evenodd" d="M3 2C6.39 1.03 13.11 2.43 16.5 0C19.89 2.43 26.61 1.03 30 2C30 2 31.65 2.54 33 4C32.32 4.97 31.35 4.99 30 4.5C26.61 3.53 19.89 4.96 16.5 3.5C13.11 4.96 6.39 3.53 3 4.5C1.646 4.99 0.677 4.97 0 4C1.354 2.06 3 2 3 2Z" transform="translate(6 78.5)" fill="white" stroke="white" stroke-width="1.5" stroke-linejoin="round"/>
<path fill-rule="evenodd" clip-rule="evenodd" d="M1.3047 21.5C3.8047 24 13.8047 24 16.3047 21.5C16.8047 20 16.3047 19.5 16.3047 19.5C16.3047 17 13.8047 15.5 13.8047 15.5C19.3047 14 19.8047 4 8.8047 0C-2.1953 4 -1.6953 14 3.8047 15.5C3.8047 15.5 1.3047 17 1.3047 19.5C1.3047 19.5 0.804705 20 1.3047 21.5Z" transform="translate(13.6953 55)" fill="white" stroke="white" stroke-width="1.5" stroke-linejoin="round"/>
<path fill-rule="evenodd" clip-rule="evenodd" d="M5 2.5C5 3.16304 4.73661 3.79893 4.26777 4.26777C3.79893 4.73661 3.16304 5 2.5 5C1.83696 5 1.20107 4.73661 0.732233 4.26777C0.263392 3.79893 0 3.16304 0 2.5C0 1.83696 0.263392 1.20107 0.732233 0.732233C1.20107 0.263392 1.83696 0 2.5 0C3.16304 0 3.79893 0.263392 4.26777 0.732233C4.73661 1.20107 5 1.83696 5 2.5V2.5Z" transform="translate(20 50)" fill="white" stroke="white" stroke-width="1.5" stroke-linejoin="round"/>
<path d="M0 7.36714V0" transform="translate(22.5396 1)" stroke="white" stroke-width="1.5" stroke-linecap="round"/>
<path fill-rule="evenodd" clip-rule="evenodd" d="M4.27104 17.0112C4.27104 17.0112 10.0844 7.19703 8.14662 3.27138C8.14662 3.27138 6.85476 0 4.27104 0C1.68733 0 0.395467 3.27138 0.395467 3.27138C-1.54232 7.19703 4.27104 17.0112 4.27104 17.0112Z" transform="translate(18.2686 8.85132)" fill="white" stroke="white" stroke-width="1.5"/>
<path fill-rule="evenodd" clip-rule="evenodd" d="M7.32888 27.5698C14.4341 32.1497 27.3527 32.1497 34.4579 27.5698V18.4099C34.4579 18.4099 46.0846 12.5215 42.2091 4.67016C37.0416 -3.83541 24.769 0.0902379 21.5393 9.90436V14.4843V9.90436C17.0178 0.0902379 4.74517 -3.83541 0.869589 4.67016C-3.00599 12.5215 7.32888 17.7557 7.32888 17.7557V27.5698Z" transform="translate(1 13.9952)" fill="white" stroke="white" stroke-width="1.5" stroke-linecap="round" stroke-linejoin="round"/>
<path d="M0 0H6.45929" transform="translate(19.3101 3.61707)" stroke="white" stroke-width="1.5" stroke-linecap="round"/>
<path d="M2.75 5.5C4.26878 5.5 5.5 4.26878 5.5 2.75C5.5 1.23122 4.26878 0 2.75 0C1.23122 0 0 1.23122 0 2.75C0 4.26878 1.23122 5.5 2.75 5.5Z" transform="translate(51 12)" fill="white"/>
<path d="M2.75 5.5C4.26878 5.5 5.5 4.26878 5.5 2.75C5.5 1.23122 4.26878 0 2.75 0C1.23122 0 0 1.23122 0 2.75C0 4.26878 1.23122 5.5 2.75 5.5Z" transform="translate(59 9)" fill="white"/>
<path d="M2.75 5.5C4.26878 5.5 5.5 4.26878 5.5 2.75C5.5 1.23122 4.26878 0 2.75 0C1.23122 0 0 1.23122 0 2.75C0 4.26878 1.23122 5.5 2.75 5.5Z" transform="translate(67.5 8)" fill="white"/>
<path d="M2.75 5.5C4.26878 5.5 5.5 4.26878 5.5 2.75C5.5 1.23122 4.26878 0 2.75 0C1.23122 0 0 1.23122 0 2.75C0 4.26878 1.23122 5.5 2.75 5.5Z" transform="translate(76 9)" fill="white"/>
<path d="M2.75 5.5C4.26878 5.5 5.5 4.26878 5.5 2.75C5.5 1.23122 4.26878 0 2.75 0C1.23122 0 0 1.23122 0 2.75C0 4.26878 1.23122 5.5 2.75 5.5Z" transform="translate(84 12)" fill="white"/>
<path fill-rule="evenodd" clip-rule="evenodd" d="M2.5 16C11 14.5 23.5 14.5 29.5 16L32 3.5L24.5 15L24.2 0.9L19 14.5L16 0L13 14.5L7.8 0.9L7.5 15L0 3.5L2.5 16Z" transform="translate(54.25 12.75)" fill="white" stroke="white" stroke-width="1.5" stroke-linejoin="round"/>
<path fill-rule="evenodd" clip-rule="evenodd" d="M0 1.125C0 3.125 1.5 3.125 2.5 5.125C3.5 6.625 3.5 6.125 3 8.625C1.5 9.625 1.5 11.125 1.5 11.125C0 12.625 2 13.625 2 13.625C8.5 14.625 18.5 14.625 25 13.625C25 13.625 26.5 12.625 25 11.125C25 11.125 25.5 9.625 24 8.625C23.5 6.125 23.5 6.625 24.5 5.125C25.5 3.125 27 3.125 27 1.125C18.5 -0.375 8.5 -0.375 0 1.125Z" transform="translate(56.75 27.625)" fill="white" stroke="white" stroke-width="1.5" stroke-linejoin="round"/>
<path d="M0 0C7.44776 2.59097 15.5522 2.59097 23 0" transform="translate(58.75 41.25)" stroke="white" stroke-width="1.5" stroke-linejoin="round"/>
<path fill-rule="evenodd" clip-rule="evenodd" d="M0 3H27V0H0V3Z" transform="translate(57 80)" fill="white" stroke="white" stroke-width="1.5" stroke-linejoin="round"/>
<path fill-rule="evenodd" clip-rule="evenodd" d="M0 2.5L1.5 0H18.5L20 2.5H0Z" transform="translate(60.5 73.5)" fill="white" stroke="white" stroke-width="1.5" stroke-linejoin="round"/>
<path fill-rule="evenodd" clip-rule="evenodd" d="M0 4V0H21V4H0Z" transform="translate(60 76)" fill="white" stroke="white" stroke-width="1.5" stroke-linejoin="round"/>
<path fill-rule="evenodd" clip-rule="evenodd" d="M0 13V0H17V13H0Z" transform="translate(62 60.5)" fill="white" stroke="white" stroke-width="1.5"/>
<path fill-rule="evenodd" clip-rule="evenodd" d="M3 2.5L0 0H23L20 2.5H3Z" transform="translate(59 58)" fill="white" stroke="white" stroke-width="1.5" stroke-linejoin="round"/>
<path fill-rule="evenodd" clip-rule="evenodd" d="M0 5V0H4V2H9V0H14V2H19V0H23V5H0Z" transform="translate(59 53)" fill="white" stroke="white" stroke-width="1.5" stroke-linejoin="round"/>
</svg>
