<svg width="1802" height="1015" viewBox="0 0 1802 1015" fill="none" xmlns="http://www.w3.org/2000/svg">
<path d="M9.05762 20.4373L30.2653 6.37549C31.3972 5.6009 32.3503 4.76672 32.3503 3.21754C32.2908 1.54919 30.9206 0 29.193 0C28.2994 0 27.4654 0.417087 26.7506 0.89376L2.20682 17.2198C0.896228 18.054 -0.0569272 18.769 0.00264511 20.4373C0.00264511 22.1653 0.896228 22.8207 2.20682 23.6549L26.691 39.9213C27.4059 40.398 28.2399 40.9342 29.2526 40.9342C30.9206 40.9342 32.3503 39.3255 32.3503 37.6571C32.2908 36.1675 31.5759 35.3929 30.3845 34.6183L9.05762 20.4373Z" transform="translate(82.4082 192.123)" fill="white"/>
<path d="M9.05762 20.4373L30.2653 6.37549C31.3972 5.6009 32.3503 4.76672 32.3503 3.21754C32.2908 1.54919 30.9206 0 29.193 0C28.2994 0 27.4654 0.417087 26.7506 0.89376L2.20682 17.2198C0.896228 18.054 -0.0569272 18.769 0.00264511 20.4373C0.00264511 22.1653 0.896228 22.8207 2.20682 23.6549L26.691 39.9213C27.4059 40.398 28.2399 40.9342 29.2526 40.9342C30.9206 40.9342 32.3503 39.3255 32.3503 37.6571C32.2908 36.1675 31.5759 35.3929 30.3845 34.6183L9.05762 20.4373Z" transform="translate(82.4082 538.008)" fill="white"/>
<path d="M1.96588 34.6183C0.774438 35.3929 0.0595723 36.1675 0 37.6571C0 39.3255 1.42973 40.9342 3.09775 40.9342C4.11048 40.9342 4.94449 40.398 5.65936 39.9213L30.1435 23.6549C31.4541 22.8207 32.3477 22.1653 32.3477 20.4373C32.4073 18.769 31.4541 18.054 30.1435 17.2198L5.59979 0.89376C4.88492 0.417087 4.05091 0 3.15733 0C1.42973 0 0.0595723 1.54919 0 3.21754C0 4.76672 0.953155 5.6009 2.08503 6.37549L23.2927 20.4373L1.96588 34.6183Z" transform="translate(348.162 192.421)" fill="white"/>
<rect width="184.674" height="40.7158" transform="translate(140.652 192.421)" fill="white"/>
<path d="M9.05762 20.4373L30.2653 6.37549C31.3972 5.6009 32.3503 4.76672 32.3503 3.21754C32.2908 1.54919 30.9206 0 29.193 0C28.2994 0 27.4654 0.417087 26.7506 0.89376L2.20682 17.2198C0.896228 18.054 -0.0569272 18.769 0.00264511 20.4373C0.00264511 22.1653 0.896228 22.8207 2.20682 23.6549L26.691 39.9213C27.4059 40.398 28.2399 40.9342 29.2526 40.9342C30.9206 40.9342 32.3503 39.3255 32.3503 37.6571C32.2908 36.1675 31.5759 35.3929 30.3845 34.6183L9.05762 20.4373Z" transform="translate(82.4082 393.02)" fill="white"/>
<path d="M1.96588 34.6183C0.774438 35.3929 0.0595723 36.1675 0 37.6571C0 39.3255 1.42973 40.9342 3.09775 40.9342C4.11048 40.9342 4.94449 40.398 5.65936 39.9213L30.1435 23.6549C31.4541 22.8207 32.3477 22.1653 32.3477 20.4373C32.4073 18.769 31.4541 18.054 30.1435 17.2198L5.59979 0.89376C4.88492 0.417087 4.05091 0 3.15733 0C1.42973 0 0.0595723 1.54919 0 3.21754C0 4.76672 0.953155 5.6009 2.08503 6.37549L23.2927 20.4373L1.96588 34.6183Z" transform="translate(377.948 393.318)" fill="white"/>
<rect width="184.674" height="40.7158" transform="translate(170.438 393.318)" fill="white"/>
<path d="M9.05762 20.4373L30.2653 6.37549C31.3972 5.6009 32.3503 4.76672 32.3503 3.21754C32.2908 1.54919 30.9206 0 29.193 0C28.2994 0 27.4654 0.417087 26.7506 0.89376L2.20682 17.2198C0.896228 18.054 -0.0569272 18.769 0.00264511 20.4373C0.00264511 22.1653 0.896228 22.8207 2.20682 23.6549L26.691 39.9213C27.4059 40.398 28.2399 40.9342 29.2526 40.9342C30.9206 40.9342 32.3503 39.3255 32.3503 37.6571C32.2908 36.1675 31.5759 35.3929 30.3845 34.6183L9.05762 20.4373Z" transform="translate(590.423 261.935)" fill="white"/>
<path d="M1.96588 34.6183C0.774438 35.3929 0.0595723 36.1675 0 37.6571C0 39.3255 1.42973 40.9342 3.09775 40.9342C4.11048 40.9342 4.94449 40.398 5.65936 39.9213L30.1435 23.6549C31.4541 22.8207 32.3477 22.1653 32.3477 20.4373C32.4073 18.769 31.4541 18.054 30.1435 17.2198L5.59979 0.89376C4.88492 0.417087 4.05091 0 3.15733 0C1.42973 0 0.0595723 1.54919 0 3.21754C0 4.76672 0.953155 5.6009 2.08503 6.37549L23.2927 20.4373L1.96588 34.6183Z" transform="translate(731.41 262.233)" fill="white"/>
<path d="M1.96588 34.6183C0.774438 35.3929 0.0595723 36.1675 0 37.6571C0 39.3255 1.42973 40.9342 3.09775 40.9342C4.11048 40.9342 4.94449 40.398 5.65936 39.9213L30.1435 23.6549C31.4541 22.8207 32.3477 22.1653 32.3477 20.4373C32.4073 18.769 31.4541 18.054 30.1435 17.2198L5.59979 0.89376C4.88492 0.417087 4.05091 0 3.15733 0C1.42973 0 0.0595723 1.54919 0 3.21754C0 4.76672 0.953155 5.6009 2.08503 6.37549L23.2927 20.4373L1.96588 34.6183Z" transform="translate(1381.69 538.008)" fill="white"/>
<rect width="72.4795" height="40.7158" transform="translate(641.059 261.935)" fill="white"/>
<path d="M9.05762 20.4373L30.2653 6.37549C31.3972 5.6009 32.3503 4.76672 32.3503 3.21754C32.2908 1.54919 30.9206 0 29.193 0C28.2994 0 27.4654 0.417087 26.7506 0.89376L2.20682 17.2198C0.896228 18.054 -0.0569272 18.769 0.00264511 20.4373C0.00264511 22.1653 0.896228 22.8207 2.20682 23.6549L26.691 39.9213C27.4059 40.398 28.2399 40.9342 29.2526 40.9342C30.9206 40.9342 32.3503 39.3255 32.3503 37.6571C32.2908 36.1675 31.5759 35.3929 30.3845 34.6183L9.05762 20.4373Z" transform="translate(489.15 321.519)" fill="white"/>
<path d="M1.96588 34.6183C0.774438 35.3929 0.0595723 36.1675 0 37.6571C0 39.3255 1.42973 40.9342 3.09775 40.9342C4.11048 40.9342 4.94449 40.398 5.65936 39.9213L30.1435 23.6549C31.4541 22.8207 32.3477 22.1653 32.3477 20.4373C32.4073 18.769 31.4541 18.054 30.1435 17.2198L5.59979 0.89376C4.88492 0.417087 4.05091 0 3.15733 0C1.42973 0 0.0595723 1.54919 0 3.21754C0 4.76672 0.953155 5.6009 2.08503 6.37549L23.2927 20.4373L1.96588 34.6183Z" transform="translate(630.138 321.817)" fill="white"/>
<rect width="72.4795" height="40.7158" transform="translate(539.786 321.519)" fill="white"/>
<rect width="373.319" height="40.7158" transform="translate(194.268 262.928)" fill="white"/>
<rect width="981" height="41" transform="translate(275 538)" fill="white"/>
<rect width="276.018" height="40.7158" transform="translate(194.268 322.512)" fill="white"/>
<path d="M28.7734 5.12423C29.1308 4.4688 29.4287 3.7538 29.4287 2.80045C29.4287 1.25126 28.0585 0 26.5096 0C25.0203 0 24.3055 1.07251 23.5906 2.26419L1.31059 40.4576C0.714866 41.4109 0 42.4238 0 43.5559C0 45.1051 1.4893 46.3564 2.97861 46.3564C4.46791 46.3564 5.18278 45.5222 5.89765 44.271L28.7734 5.12423Z" transform="translate(131.717 387.062)" fill="white"/>
<path d="M9.05762 20.4373L30.2653 6.37549C31.3972 5.6009 32.3503 4.76672 32.3503 3.21754C32.2908 1.54919 30.9206 0 29.193 0C28.2994 0 27.4654 0.417087 26.7506 0.89376L2.20682 17.2198C0.896228 18.054 -0.0569272 18.769 0.00264511 20.4373C0.00264511 22.1653 0.896228 22.8207 2.20682 23.6549L26.691 39.9213C27.4059 40.398 28.2399 40.9342 29.2526 40.9342C30.9206 40.9342 32.3503 39.3255 32.3503 37.6571C32.2908 36.1675 31.5759 35.3929 30.3845 34.6183L9.05762 20.4373Z" transform="translate(82.4082 647.563)" fill="white"/>
<path d="M1.96588 34.6183C0.774438 35.3929 0.0595723 36.1675 0 37.6571C0 39.3255 1.42973 40.9342 3.09775 40.9342C4.11048 40.9342 4.94449 40.398 5.65936 39.9213L30.1435 23.6549C31.4541 22.8207 32.3477 22.1653 32.3477 20.4373C32.4073 18.769 31.4541 18.054 30.1435 17.2198L5.59979 0.89376C4.88492 0.417087 4.05091 0 3.15733 0C1.42973 0 0.0595723 1.54919 0 3.21754C0 4.76672 0.953155 5.6009 2.08503 6.37549L23.2927 20.4373L1.96588 34.6183Z" transform="translate(258.804 647.861)" fill="white"/>
<rect width="99.1767" height="40.8329" transform="translate(140.987 647.563)" fill="white"/>
<path d="M9.05762 20.4373L30.2653 6.37549C31.3972 5.6009 32.3503 4.76672 32.3503 3.21754C32.2908 1.54919 30.9206 0 29.193 0C28.2994 0 27.4654 0.417087 26.7506 0.89376L2.20682 17.2198C0.896228 18.054 -0.0569272 18.769 0.00264511 20.4373C0.00264511 22.1653 0.896228 22.8207 2.20682 23.6549L26.691 39.9213C27.4059 40.398 28.2399 40.9342 29.2526 40.9342C30.9206 40.9342 32.3503 39.3255 32.3503 37.6571C32.2908 36.1675 31.5759 35.3929 30.3845 34.6183L9.05762 20.4373Z" transform="translate(240.274 717.078)" fill="white"/>
<path d="M1.96588 34.6183C0.774438 35.3929 0.0595723 36.1675 0 37.6571C0 39.3255 1.42973 40.9342 3.09775 40.9342C4.11048 40.9342 4.94449 40.398 5.65936 39.9213L30.1435 23.6549C31.4541 22.8207 32.3477 22.1653 32.3477 20.4373C32.4073 18.769 31.4541 18.054 30.1435 17.2198L5.59979 0.89376C4.88492 0.417087 4.05091 0 3.15733 0C1.42973 0 0.0595723 1.54919 0 3.21754C0 4.76672 0.953155 5.6009 2.08503 6.37549L23.2927 20.4373L1.96588 34.6183Z" transform="translate(416.67 717.376)" fill="white"/>
<rect width="99.1767" height="40.8329" transform="translate(298.854 717.078)" fill="white"/>
<path d="M9.05762 20.4373L30.2653 6.37549C31.3972 5.6009 32.3503 4.76672 32.3503 3.21754C32.2908 1.54919 30.9206 0 29.193 0C28.2994 0 27.4654 0.417087 26.7506 0.89376L2.20682 17.2198C0.896228 18.054 -0.0569272 18.769 0.00264511 20.4373C0.00264511 22.1653 0.896228 22.8207 2.20682 23.6549L26.691 39.9213C27.4059 40.398 28.2399 40.9342 29.2526 40.9342C30.9206 40.9342 32.3503 39.3255 32.3503 37.6571C32.2908 36.1675 31.5759 35.3929 30.3845 34.6183L9.05762 20.4373Z" transform="translate(838.64 786.891)" fill="white"/>
<path d="M1.96588 34.6183C0.774438 35.3929 0.0595723 36.1675 0 37.6571C0 39.3255 1.42973 40.9342 3.09775 40.9342C4.11048 40.9342 4.94449 40.398 5.65936 39.9213L30.1435 23.6549C31.4541 22.8207 32.3477 22.1653 32.3477 20.4373C32.4073 18.769 31.4541 18.054 30.1435 17.2198L5.59979 0.89376C4.88492 0.417087 4.05091 0 3.15733 0C1.42973 0 0.0595723 1.54919 0 3.21754C0 4.76672 0.953155 5.6009 2.08503 6.37549L23.2927 20.4373L1.96588 34.6183Z" transform="translate(979.627 787.188)" fill="white"/>
<rect width="72.4795" height="40.7158" transform="translate(889.276 786.891)" fill="white"/>
<path d="M9.05762 20.4373L30.2653 6.37549C31.3972 5.6009 32.3503 4.76672 32.3503 3.21754C32.2908 1.54919 30.9206 0 29.193 0C28.2994 0 27.4654 0.417087 26.7506 0.89376L2.20682 17.2198C0.896228 18.054 -0.0569272 18.769 0.00264511 20.4373C0.00264511 22.1653 0.896228 22.8207 2.20682 23.6549L26.691 39.9213C27.4059 40.398 28.2399 40.9342 29.2526 40.9342C30.9206 40.9342 32.3503 39.3255 32.3503 37.6571C32.2908 36.1675 31.5759 35.3929 30.3845 34.6183L9.05762 20.4373Z" transform="translate(737.367 846.475)" fill="white"/>
<path d="M1.96588 34.6183C0.774438 35.3929 0.0595723 36.1675 0 37.6571C0 39.3255 1.42973 40.9342 3.09775 40.9342C4.11048 40.9342 4.94449 40.398 5.65936 39.9213L30.1435 23.6549C31.4541 22.8207 32.3477 22.1653 32.3477 20.4373C32.4073 18.769 31.4541 18.054 30.1435 17.2198L5.59979 0.89376C4.88492 0.417087 4.05091 0 3.15733 0C1.42973 0 0.0595723 1.54919 0 3.21754C0 4.76672 0.953155 5.6009 2.08503 6.37549L23.2927 20.4373L1.96588 34.6183Z" transform="translate(878.355 846.773)" fill="white"/>
<rect width="72.4795" height="40.7158" transform="translate(788.004 846.475)" fill="white"/>
<rect width="373.319" height="40.7158" transform="translate(442.485 787.884)" fill="white"/>
<rect width="276.018" height="40.7158" transform="translate(442.485 847.468)" fill="white"/>
<path d="M3.57433 0C1.13187 0 0 0.953345 0 3.63463C0 6.31591 1.13187 7.26926 3.57433 7.26926H17.5142C19.9567 7.26926 21.0886 6.31591 21.0886 3.63463C21.0886 0.953345 19.9567 0 17.5142 0H3.57433Z" transform="translate(1297.3 551.911)" fill="white"/>
<path d="M46.45 0C44.0076 0 42.8757 0.953345 42.8757 3.63463C42.8757 6.31591 44.0076 7.26926 46.45 7.26926H60.3899C62.8324 7.26926 63.9642 6.31591 63.9642 3.63463C63.9642 0.953345 62.8324 0 60.3899 0H46.45Z" transform="translate(1297.3 551.911)" fill="white"/>
<path d="M2.66714 0C0.105536 0 -0.132754 1.54919 0.0459624 4.40922L1.11826 24.8466C1.23741 26.932 1.71398 28.6599 4.15644 28.6599C6.5989 28.6599 7.07548 26.932 7.19463 24.8466L8.26693 4.40922C8.38607 1.54919 8.26693 0 5.70532 0H2.66714ZM3.382 38.0146C1.11826 38.0146 0.0459624 39.1467 0.0459624 41.4109V42.9601C0.0459624 45.2243 1.11826 46.3564 3.382 46.3564H4.93088C7.19463 46.3564 8.26693 45.2243 8.26693 42.9601V41.4109C8.26693 39.1467 7.19463 38.0146 4.93088 38.0146H3.382Z" transform="translate(140.652 532.05)" fill="white"/>
<path d="M40.1218 19.6032C37.6793 19.6032 36.5474 20.5565 36.5474 23.2378C36.5474 25.9191 37.6793 26.8724 40.1218 26.8724H54.0617C56.5041 26.8724 57.636 25.9191 57.636 23.2378C57.636 20.5565 56.5041 19.6032 54.0617 19.6032H40.1218Z" transform="translate(140.652 532.05)" fill="white"/>
<path d="M82.9974 19.6032C80.555 19.6032 79.4231 20.5565 79.4231 23.2378C79.4231 25.9191 80.555 26.8724 82.9974 26.8724H96.9373C99.3798 26.8724 100.512 25.9191 100.512 23.2378C100.512 20.5565 99.3798 19.6032 96.9373 19.6032H82.9974Z" transform="translate(140.652 532.05)" fill="white"/>
<rect x="5" y="5" width="1792" height="1005" rx="15" stroke="white" stroke-width="10"/>
<rect width="1791" height="75" transform="translate(0 71)" fill="white"/>
<rect width="1786" height="64" transform="translate(9 942)" fill="white"/>
</svg>
