<svg width="709" height="599" viewBox="0 0 709 599" fill="none" xmlns="http://www.w3.org/2000/svg">
<path fill-rule="evenodd" clip-rule="evenodd" d="M60.9385 0L0 255.38L207.213 93.0947C170.902 47.3198 119.711 13.8584 60.9385 0Z" transform="translate(371.099)" fill="#A02020"/>
<path fill-rule="evenodd" clip-rule="evenodd" d="M99.5977 266.264C38.8977 217.908 0 143.402 0 59.8223C0 39.2466 2.35718 19.2212 6.81689 0L264.223 59.8218L99.5977 266.264Z" transform="translate(0 290.603)" fill="#9F4E4E"/>
<path fill-rule="evenodd" clip-rule="evenodd" d="M164.583 263.916C310.509 263.916 428.806 145.756 428.806 0L164.583 0.000488281L0 206.476C45.1489 242.428 102.354 263.916 164.583 263.916Z" transform="translate(184.065 335.084)" fill="#823030"/>
<path fill-rule="evenodd" clip-rule="evenodd" d="M0 203.738L258.807 262.433L315.62 6.44482C296.865 2.22607 277.354 0 257.323 0C132.123 0 27.262 86.9775 0 203.738Z" transform="translate(56.407 38.5493)" fill="#DE6161"/>
<path fill-rule="evenodd" clip-rule="evenodd" d="M260.712 103.964L0 161.879L211.325 0C234.864 30.1021 252.006 65.4365 260.712 103.964Z" transform="translate(448.288 91.9258)" fill="#6E1919"/>
<path d="M2.93945 9.49316V13H0.888672V3.04688H4.77148C5.51888 3.04688 6.17513 3.18359 6.74023 3.45703C7.3099 3.73047 7.7474 4.12012 8.05273 4.62598C8.35807 5.12728 8.51074 5.69922 8.51074 6.3418C8.51074 7.31706 8.17578 8.08724 7.50586 8.65234C6.84049 9.21289 5.91764 9.49316 4.7373 9.49316H2.93945ZM2.93945 7.83203H4.77148C5.3138 7.83203 5.72624 7.70443 6.00879 7.44922C6.2959 7.19401 6.43945 6.82943 6.43945 6.35547C6.43945 5.86784 6.2959 5.47363 6.00879 5.17285C5.72168 4.87207 5.3252 4.71712 4.81934 4.70801H2.93945V7.83203ZM18.1016 8.24902C18.1016 9.22884 17.9284 10.0879 17.582 10.8262C17.2357 11.5645 16.7389 12.1341 16.0918 12.5352C15.4492 12.9362 14.7109 13.1367 13.877 13.1367C13.0521 13.1367 12.3161 12.9385 11.6689 12.542C11.0218 12.1455 10.5205 11.5804 10.165 10.8467C9.80957 10.1084 9.62956 9.26074 9.625 8.30371V7.81152C9.625 6.83171 9.80046 5.97038 10.1514 5.22754C10.5068 4.48014 11.0059 3.9082 11.6484 3.51172C12.2956 3.11068 13.0339 2.91016 13.8633 2.91016C14.6927 2.91016 15.4287 3.11068 16.0713 3.51172C16.7184 3.9082 17.2174 4.48014 17.5684 5.22754C17.9238 5.97038 18.1016 6.82943 18.1016 7.80469V8.24902ZM16.0234 7.79785C16.0234 6.75423 15.8366 5.96126 15.4629 5.41895C15.0892 4.87663 14.556 4.60547 13.8633 4.60547C13.1751 4.60547 12.6442 4.87435 12.2705 5.41211C11.8968 5.94531 11.7077 6.72917 11.7031 7.76367V8.24902C11.7031 9.2653 11.89 10.0537 12.2637 10.6143C12.6374 11.1748 13.1751 11.4551 13.877 11.4551C14.5651 11.4551 15.0938 11.1862 15.4629 10.6484C15.832 10.1061 16.0189 9.31771 16.0234 8.2832V7.79785ZM23.2764 9.35645H21.6426V13H19.5918V3.04688H23.29C24.4658 3.04688 25.3727 3.30892 26.0107 3.83301C26.6488 4.3571 26.9678 5.09766 26.9678 6.05469C26.9678 6.73372 26.8197 7.30111 26.5234 7.75684C26.2318 8.20801 25.7874 8.56803 25.1904 8.83691L27.3438 12.9043V13H25.1426L23.2764 9.35645ZM21.6426 7.69531H23.2969C23.8118 7.69531 24.2106 7.56543 24.4932 7.30566C24.7757 7.04134 24.917 6.67904 24.917 6.21875C24.917 5.74935 24.7826 5.38021 24.5137 5.11133C24.2493 4.84245 23.8415 4.70801 23.29 4.70801H21.6426V7.69531ZM35.6836 4.70801H32.6348V13H30.584V4.70801H27.5762V3.04688H35.6836V4.70801ZM41.6582 10.9492H38.0625L37.3789 13H35.1982L38.9033 3.04688H40.8037L44.5293 13H42.3486L41.6582 10.9492ZM38.6162 9.28809H41.1045L39.8535 5.5625L38.6162 9.28809ZM47.6396 13H45.5889V3.04688H47.6396V13ZM54.708 10.3887C54.708 10.0013 54.5713 9.70508 54.2979 9.5C54.0244 9.29036 53.5322 9.07161 52.8213 8.84375C52.1104 8.61133 51.5475 8.38346 51.1328 8.16016C50.0026 7.54948 49.4375 6.72689 49.4375 5.69238C49.4375 5.15462 49.5879 4.67611 49.8887 4.25684C50.194 3.83301 50.6292 3.5026 51.1943 3.26562C51.764 3.02865 52.402 2.91016 53.1084 2.91016C53.8193 2.91016 54.4528 3.04004 55.0088 3.2998C55.5648 3.55501 55.9954 3.91732 56.3008 4.38672C56.6107 4.85612 56.7656 5.38932 56.7656 5.98633H54.7148C54.7148 5.5306 54.5713 5.17741 54.2842 4.92676C53.9971 4.67155 53.5938 4.54395 53.0742 4.54395C52.5729 4.54395 52.1833 4.65104 51.9053 4.86523C51.6273 5.07487 51.4883 5.35286 51.4883 5.69922C51.4883 6.02279 51.6501 6.29395 51.9736 6.5127C52.3018 6.73145 52.7826 6.93652 53.416 7.12793C54.5827 7.47884 55.4326 7.91406 55.9658 8.43359C56.499 8.95312 56.7656 9.60026 56.7656 10.375C56.7656 11.2363 56.4398 11.9131 55.7881 12.4053C55.1364 12.8929 54.2591 13.1367 53.1562 13.1367C52.3906 13.1367 51.6934 12.9977 51.0645 12.7197C50.4355 12.4372 49.9548 12.0521 49.6221 11.5645C49.2939 11.0768 49.1299 10.5117 49.1299 9.86914H51.1875C51.1875 10.9674 51.8438 11.5166 53.1562 11.5166C53.6439 11.5166 54.0244 11.4186 54.2979 11.2227C54.5713 11.0221 54.708 10.7441 54.708 10.3887ZM0.847656 24.9531C0.847656 23.9095 0.986654 22.916 1.26465 21.9727C1.54264 21.0293 1.9528 20.1953 2.49512 19.4707C3.03743 18.7415 3.62533 18.2357 4.25879 17.9531L4.6416 19.0195C3.97624 19.5117 3.45671 20.2728 3.08301 21.3027C2.70931 22.3327 2.52246 23.5358 2.52246 24.9121V25.124C2.52246 26.5049 2.70703 27.7126 3.07617 28.7471C3.44531 29.7816 3.96712 30.554 4.6416 31.0645L4.25879 32.1104C3.639 31.8324 3.06022 31.3402 2.52246 30.6338C1.98926 29.932 1.58138 29.1208 1.29883 28.2002C1.01628 27.2796 0.865885 26.318 0.847656 25.3154V24.9531ZM13.6855 27.7422C13.3164 28.1842 12.7946 28.5283 12.1201 28.7744C11.4456 29.016 10.6982 29.1367 9.87793 29.1367C9.0166 29.1367 8.26009 28.9499 7.6084 28.5762C6.96126 28.1979 6.45996 27.651 6.10449 26.9355C5.75358 26.2201 5.57357 25.3792 5.56445 24.4131V23.7363C5.56445 22.7428 5.73079 21.8838 6.06348 21.1592C6.40072 20.43 6.88379 19.874 7.5127 19.4912C8.14616 19.1038 8.88672 18.9102 9.73438 18.9102C10.9147 18.9102 11.8376 19.1927 12.5029 19.7578C13.1683 20.3184 13.5625 21.1364 13.6855 22.2119H11.6895C11.5983 21.6423 11.3955 21.2253 11.0811 20.9609C10.7712 20.6966 10.3428 20.5645 9.7959 20.5645C9.09863 20.5645 8.56771 20.8265 8.20312 21.3506C7.83854 21.8747 7.65397 22.654 7.64941 23.6885V24.3242C7.64941 25.3678 7.84766 26.1562 8.24414 26.6895C8.64062 27.2227 9.22168 27.4893 9.9873 27.4893C10.7575 27.4893 11.3066 27.3252 11.6348 26.9971V25.2812H9.76855V23.7705H13.6855V27.7422ZM17.4043 27.3525H21.7588V29H15.3535V19.0469H17.4043V27.3525ZM30.6797 24.249C30.6797 25.2288 30.5065 26.0879 30.1602 26.8262C29.8138 27.5645 29.3171 28.1341 28.6699 28.5352C28.0273 28.9362 27.2891 29.1367 26.4551 29.1367C25.6302 29.1367 24.8942 28.9385 24.2471 28.542C23.5999 28.1455 23.0986 27.5804 22.7432 26.8467C22.3877 26.1084 22.2077 25.2607 22.2031 24.3037V23.8115C22.2031 22.8317 22.3786 21.9704 22.7295 21.2275C23.085 20.4801 23.584 19.9082 24.2266 19.5117C24.8737 19.1107 25.612 18.9102 26.4414 18.9102C27.2708 18.9102 28.0068 19.1107 28.6494 19.5117C29.2965 19.9082 29.7956 20.4801 30.1465 21.2275C30.502 21.9704 30.6797 22.8294 30.6797 23.8047V24.249ZM28.6016 23.7979C28.6016 22.7542 28.4147 21.9613 28.041 21.4189C27.6673 20.8766 27.1341 20.6055 26.4414 20.6055C25.7533 20.6055 25.2223 20.8743 24.8486 21.4121C24.4749 21.9453 24.2858 22.7292 24.2812 23.7637V24.249C24.2812 25.2653 24.4681 26.0537 24.8418 26.6143C25.2155 27.1748 25.7533 27.4551 26.4551 27.4551C27.1432 27.4551 27.6719 27.1862 28.041 26.6484C28.4102 26.1061 28.597 25.3177 28.6016 24.2832V23.7979ZM32.1699 29V19.0469H35.6562C36.8639 19.0469 37.7799 19.2793 38.4043 19.7441C39.0286 20.2044 39.3408 20.8812 39.3408 21.7744C39.3408 22.262 39.2155 22.6927 38.9648 23.0664C38.7142 23.4355 38.3656 23.7067 37.9189 23.8799C38.4294 24.0075 38.8304 24.265 39.1221 24.6523C39.4183 25.0397 39.5664 25.5137 39.5664 26.0742C39.5664 27.0312 39.2611 27.7559 38.6504 28.248C38.0397 28.7402 37.1693 28.9909 36.0391 29H32.1699ZM34.2207 24.666V27.3525H35.9775C36.4606 27.3525 36.8366 27.2386 37.1055 27.0107C37.3789 26.7783 37.5156 26.4593 37.5156 26.0537C37.5156 25.1423 37.0439 24.6797 36.1006 24.666H34.2207ZM34.2207 23.2168H35.7383C36.7728 23.1986 37.29 22.7861 37.29 21.9795C37.29 21.5283 37.1579 21.2048 36.8936 21.0088C36.6338 20.8083 36.2214 20.708 35.6562 20.708H34.2207V23.2168ZM49.2871 24.249C49.2871 25.2288 49.1139 26.0879 48.7676 26.8262C48.4212 27.5645 47.9245 28.1341 47.2773 28.5352C46.6348 28.9362 45.8965 29.1367 45.0625 29.1367C44.2376 29.1367 43.5016 28.9385 42.8545 28.542C42.2074 28.1455 41.7061 27.5804 41.3506 26.8467C40.9951 26.1084 40.8151 25.2607 40.8105 24.3037V23.8115C40.8105 22.8317 40.986 21.9704 41.3369 21.2275C41.6924 20.4801 42.1914 19.9082 42.834 19.5117C43.4811 19.1107 44.2194 18.9102 45.0488 18.9102C45.8783 18.9102 46.6143 19.1107 47.2568 19.5117C47.904 19.9082 48.403 20.4801 48.7539 21.2275C49.1094 21.9704 49.2871 22.8294 49.2871 23.8047V24.249ZM47.209 23.7979C47.209 22.7542 47.0221 21.9613 46.6484 21.4189C46.2747 20.8766 45.7415 20.6055 45.0488 20.6055C44.3607 20.6055 43.8298 20.8743 43.4561 21.4121C43.0824 21.9453 42.8932 22.7292 42.8887 23.7637V24.249C42.8887 25.2653 43.0755 26.0537 43.4492 26.6143C43.8229 27.1748 44.3607 27.4551 45.0625 27.4551C45.7507 27.4551 46.2793 27.1862 46.6484 26.6484C47.0176 26.1061 47.2044 25.3177 47.209 24.2832V23.7979ZM49.916 28.0293C49.916 27.7148 50.0208 27.4596 50.2305 27.2637C50.4447 27.0677 50.7113 26.9697 51.0303 26.9697C51.3538 26.9697 51.6204 27.0677 51.8301 27.2637C52.0443 27.4596 52.1514 27.7148 52.1514 28.0293C52.1514 28.3392 52.0465 28.5921 51.8369 28.7881C51.6273 28.9795 51.3584 29.0752 51.0303 29.0752C50.7067 29.0752 50.4401 28.9795 50.2305 28.7881C50.0208 28.5921 49.916 28.3392 49.916 28.0293ZM61.8311 25.6846C61.7536 26.7555 61.3571 27.5986 60.6416 28.2139C59.9307 28.8291 58.9919 29.1367 57.8252 29.1367C56.5492 29.1367 55.5443 28.7083 54.8105 27.8516C54.0814 26.9902 53.7168 25.8099 53.7168 24.3105V23.7021C53.7168 22.7451 53.8854 21.902 54.2227 21.1729C54.5599 20.4437 55.0407 19.8854 55.665 19.498C56.2939 19.1061 57.0231 18.9102 57.8525 18.9102C59.001 18.9102 59.9261 19.2178 60.6279 19.833C61.3298 20.4482 61.7354 21.3118 61.8447 22.4238H59.7939C59.7438 21.7812 59.5638 21.3164 59.2539 21.0293C58.9486 20.7376 58.4814 20.5918 57.8525 20.5918C57.1689 20.5918 56.6562 20.8379 56.3145 21.3301C55.9772 21.8177 55.804 22.5765 55.7949 23.6064V24.3584C55.7949 25.4339 55.9567 26.2201 56.2803 26.7168C56.6084 27.2135 57.1234 27.4619 57.8252 27.4619C58.4587 27.4619 58.9303 27.3184 59.2402 27.0312C59.5547 26.7396 59.7347 26.2907 59.7803 25.6846H61.8311ZM71.3535 24.249C71.3535 25.2288 71.1803 26.0879 70.834 26.8262C70.4876 27.5645 69.9909 28.1341 69.3438 28.5352C68.7012 28.9362 67.9629 29.1367 67.1289 29.1367C66.304 29.1367 65.568 28.9385 64.9209 28.542C64.2738 28.1455 63.7725 27.5804 63.417 26.8467C63.0615 26.1084 62.8815 25.2607 62.877 24.3037V23.8115C62.877 22.8317 63.0524 21.9704 63.4033 21.2275C63.7588 20.4801 64.2578 19.9082 64.9004 19.5117C65.5475 19.1107 66.2858 18.9102 67.1152 18.9102C67.9447 18.9102 68.6807 19.1107 69.3232 19.5117C69.9704 19.9082 70.4694 20.4801 70.8203 21.2275C71.1758 21.9704 71.3535 22.8294 71.3535 23.8047V24.249ZM69.2754 23.7979C69.2754 22.7542 69.0885 21.9613 68.7148 21.4189C68.3411 20.8766 67.8079 20.6055 67.1152 20.6055C66.4271 20.6055 65.8962 20.8743 65.5225 21.4121C65.1488 21.9453 64.9596 22.7292 64.9551 23.7637V24.249C64.9551 25.2653 65.1419 26.0537 65.5156 26.6143C65.8893 27.1748 66.4271 27.4551 67.1289 27.4551C67.8171 27.4551 68.3457 27.1862 68.7148 26.6484C69.084 26.1061 69.2708 25.3177 69.2754 24.2832V23.7979ZM75.5234 19.0469L78.0801 26.2656L80.623 19.0469H83.3164V29H81.2588V26.2793L81.4639 21.583L78.7773 29H77.3691L74.6895 21.5898L74.8945 26.2793V29H72.8438V19.0469H75.5234ZM85.4902 31.4951L84.458 30.9551L84.7041 30.5107C85.0094 29.9548 85.1667 29.401 85.1758 28.8496V27.3184H86.8438L86.8369 28.6855C86.8324 29.1914 86.7048 29.7018 86.4541 30.2168C86.2035 30.7318 85.8822 31.1579 85.4902 31.4951ZM8.42188 36.0469V42.6025C8.42188 43.6917 8.08008 44.5531 7.39648 45.1865C6.71745 45.82 5.78776 46.1367 4.60742 46.1367C3.44531 46.1367 2.52246 45.8291 1.83887 45.2139C1.15527 44.5986 0.806641 43.7533 0.792969 42.6777V36.0469H2.84375V42.6162C2.84375 43.2679 2.9987 43.7441 3.30859 44.0449C3.62305 44.3411 4.05599 44.4893 4.60742 44.4893C5.76042 44.4893 6.34603 43.8831 6.36426 42.6709V36.0469H8.42188ZM18.2793 41.249C18.2793 42.2288 18.1061 43.0879 17.7598 43.8262C17.4134 44.5645 16.9167 45.1341 16.2695 45.5352C15.627 45.9362 14.8887 46.1367 14.0547 46.1367C13.2298 46.1367 12.4938 45.9385 11.8467 45.542C11.1995 45.1455 10.6982 44.5804 10.3428 43.8467C9.9873 43.1084 9.80729 42.2607 9.80273 41.3037V40.8115C9.80273 39.8317 9.97819 38.9704 10.3291 38.2275C10.6846 37.4801 11.1836 36.9082 11.8262 36.5117C12.4733 36.1107 13.2116 35.9102 14.041 35.9102C14.8704 35.9102 15.6064 36.1107 16.249 36.5117C16.8962 36.9082 17.3952 37.4801 17.7461 38.2275C18.1016 38.9704 18.2793 39.8294 18.2793 40.8047V41.249ZM16.2012 40.7979C16.2012 39.7542 16.0143 38.9613 15.6406 38.4189C15.2669 37.8766 14.7337 37.6055 14.041 37.6055C13.3529 37.6055 12.8219 37.8743 12.4482 38.4121C12.0745 38.9453 11.8854 39.7292 11.8809 40.7637V41.249C11.8809 42.2653 12.0677 43.0537 12.4414 43.6143C12.8151 44.1748 13.3529 44.4551 14.0547 44.4551C14.7428 44.4551 15.2715 44.1862 15.6406 43.6484C16.0098 43.1061 16.1966 42.3177 16.2012 41.2832V40.7979ZM21.8203 44.3525H26.1748V46H19.7695V36.0469H21.8203V44.3525ZM27.3301 45.0293C27.3301 44.7148 27.4349 44.4596 27.6445 44.2637C27.8587 44.0677 28.1253 43.9697 28.4443 43.9697C28.7679 43.9697 29.0345 44.0677 29.2441 44.2637C29.4583 44.4596 29.5654 44.7148 29.5654 45.0293C29.5654 45.3392 29.4606 45.5921 29.251 45.7881C29.0413 45.9795 28.7725 46.0752 28.4443 46.0752C28.1208 46.0752 27.8542 45.9795 27.6445 45.7881C27.4349 45.5921 27.3301 45.3392 27.3301 45.0293ZM39.2451 42.6846C39.1676 43.7555 38.7712 44.5986 38.0557 45.2139C37.3447 45.8291 36.4059 46.1367 35.2393 46.1367C33.9632 46.1367 32.9583 45.7083 32.2246 44.8516C31.4954 43.9902 31.1309 42.8099 31.1309 41.3105V40.7021C31.1309 39.7451 31.2995 38.902 31.6367 38.1729C31.974 37.4437 32.4548 36.8854 33.0791 36.498C33.708 36.1061 34.4372 35.9102 35.2666 35.9102C36.415 35.9102 37.3402 36.2178 38.042 36.833C38.7438 37.4482 39.1494 38.3118 39.2588 39.4238H37.208C37.1579 38.7812 36.9779 38.3164 36.668 38.0293C36.3626 37.7376 35.8955 37.5918 35.2666 37.5918C34.583 37.5918 34.0703 37.8379 33.7285 38.3301C33.3913 38.8177 33.2181 39.5765 33.209 40.6064V41.3584C33.209 42.4339 33.3708 43.2201 33.6943 43.7168C34.0225 44.2135 34.5374 44.4619 35.2393 44.4619C35.8727 44.4619 36.3444 44.3184 36.6543 44.0312C36.9688 43.7396 37.1488 43.2907 37.1943 42.6846H39.2451ZM48.7676 41.249C48.7676 42.2288 48.5944 43.0879 48.248 43.8262C47.9017 44.5645 47.4049 45.1341 46.7578 45.5352C46.1152 45.9362 45.377 46.1367 44.543 46.1367C43.7181 46.1367 42.9821 45.9385 42.335 45.542C41.6878 45.1455 41.1865 44.5804 40.8311 43.8467C40.4756 43.1084 40.2956 42.2607 40.291 41.3037V40.8115C40.291 39.8317 40.4665 38.9704 40.8174 38.2275C41.1729 37.4801 41.6719 36.9082 42.3145 36.5117C42.9616 36.1107 43.6999 35.9102 44.5293 35.9102C45.3587 35.9102 46.0947 36.1107 46.7373 36.5117C47.3844 36.9082 47.8835 37.4801 48.2344 38.2275C48.5898 38.9704 48.7676 39.8294 48.7676 40.8047V41.249ZM46.6895 40.7979C46.6895 39.7542 46.5026 38.9613 46.1289 38.4189C45.7552 37.8766 45.222 37.6055 44.5293 37.6055C43.8411 37.6055 43.3102 37.8743 42.9365 38.4121C42.5628 38.9453 42.3737 39.7292 42.3691 40.7637V41.249C42.3691 42.2653 42.556 43.0537 42.9297 43.6143C43.3034 44.1748 43.8411 44.4551 44.543 44.4551C45.2311 44.4551 45.7598 44.1862 46.1289 43.6484C46.498 43.1061 46.6849 42.3177 46.6895 41.2832V40.7979ZM52.9375 36.0469L55.4941 43.2656L58.0371 36.0469H60.7305V46H58.6729V43.2793L58.8779 38.583L56.1914 46H54.7832L52.1035 38.5898L52.3086 43.2793V46H50.2578V36.0469H52.9375ZM62.4941 45.0293C62.4941 44.7148 62.599 44.4596 62.8086 44.2637C63.0228 44.0677 63.2894 43.9697 63.6084 43.9697C63.932 43.9697 64.1986 44.0677 64.4082 44.2637C64.6224 44.4596 64.7295 44.7148 64.7295 45.0293C64.7295 45.3392 64.6247 45.5921 64.415 45.7881C64.2054 45.9795 63.9365 46.0752 63.6084 46.0752C63.2848 46.0752 63.0182 45.9795 62.8086 45.7881C62.599 45.5921 62.4941 45.3392 62.4941 45.0293ZM66.5957 46V36.0469H70.082C71.2897 36.0469 72.2057 36.2793 72.8301 36.7441C73.4544 37.2044 73.7666 37.8812 73.7666 38.7744C73.7666 39.262 73.6413 39.6927 73.3906 40.0664C73.14 40.4355 72.7913 40.7067 72.3447 40.8799C72.8551 41.0075 73.2562 41.265 73.5479 41.6523C73.8441 42.0397 73.9922 42.5137 73.9922 43.0742C73.9922 44.0312 73.6868 44.7559 73.0762 45.248C72.4655 45.7402 71.5951 45.9909 70.4648 46H66.5957ZM68.6465 41.666V44.3525H70.4033C70.8864 44.3525 71.2624 44.2386 71.5312 44.0107C71.8047 43.7783 71.9414 43.4593 71.9414 43.0537C71.9414 42.1423 71.4697 41.6797 70.5264 41.666H68.6465ZM68.6465 40.2168H70.1641C71.1986 40.1986 71.7158 39.7861 71.7158 38.9795C71.7158 38.5283 71.5837 38.2048 71.3193 38.0088C71.0596 37.8083 70.6471 37.708 70.082 37.708H68.6465V40.2168ZM79.2217 42.3564H77.5879V46H75.5371V36.0469H79.2354C80.4111 36.0469 81.318 36.3089 81.9561 36.833C82.5941 37.3571 82.9131 38.0977 82.9131 39.0547C82.9131 39.7337 82.765 40.3011 82.4688 40.7568C82.1771 41.208 81.7327 41.568 81.1357 41.8369L83.2891 45.9043V46H81.0879L79.2217 42.3564ZM77.5879 40.6953H79.2422C79.7572 40.6953 80.1559 40.5654 80.4385 40.3057C80.721 40.0413 80.8623 39.679 80.8623 39.2188C80.8623 38.7493 80.7279 38.3802 80.459 38.1113C80.1947 37.8424 79.7868 37.708 79.2354 37.708H77.5879V40.6953ZM84.8613 48.4951L83.8291 47.9551L84.0752 47.5107C84.3805 46.9548 84.5378 46.401 84.5469 45.8496V44.3184H86.2148L86.208 45.6855C86.2035 46.1914 86.0758 46.7018 85.8252 47.2168C85.5745 47.7318 85.2533 48.1579 84.8613 48.4951ZM6.87695 57.9326H2.93945V62H0.888672V52.0469H7.36914V53.708H2.93945V56.2783H6.87695V57.9326ZM16.7344 57.249C16.7344 58.2288 16.5612 59.0879 16.2148 59.8262C15.8685 60.5645 15.3717 61.1341 14.7246 61.5352C14.082 61.9362 13.3438 62.1367 12.5098 62.1367C11.6849 62.1367 10.9489 61.9385 10.3018 61.542C9.65462 61.1455 9.15332 60.5804 8.79785 59.8467C8.44238 59.1084 8.26237 58.2607 8.25781 57.3037V56.8115C8.25781 55.8317 8.43327 54.9704 8.78418 54.2275C9.13965 53.4801 9.63867 52.9082 10.2812 52.5117C10.9284 52.1107 11.6667 51.9102 12.4961 51.9102C13.3255 51.9102 14.0615 52.1107 14.7041 52.5117C15.3512 52.9082 15.8503 53.4801 16.2012 54.2275C16.5566 54.9704 16.7344 55.8294 16.7344 56.8047V57.249ZM14.6562 56.7979C14.6562 55.7542 14.4694 54.9613 14.0957 54.4189C13.722 53.8766 13.1888 53.6055 12.4961 53.6055C11.8079 53.6055 11.277 53.8743 10.9033 54.4121C10.5296 54.9453 10.3405 55.7292 10.3359 56.7637V57.249C10.3359 58.2653 10.5228 59.0537 10.8965 59.6143C11.2702 60.1748 11.8079 60.4551 12.5098 60.4551C13.1979 60.4551 13.7266 60.1862 14.0957 59.6484C14.4648 59.1061 14.6517 58.3177 14.6562 57.2832V56.7979ZM20.2754 60.3525H24.6299V62H18.2246V52.0469H20.2754V60.3525ZM33.9131 62H31.8623V57.7344H27.8633V62H25.8125V52.0469H27.8633V56.0801H31.8623V52.0469H33.9131V62ZM41.4531 59.9492H37.8574L37.1738 62H34.9932L38.6982 52.0469H40.5986L44.3242 62H42.1436L41.4531 59.9492ZM38.4111 58.2881H40.8994L39.6484 54.5625L38.4111 58.2881ZM45.2266 61.0293C45.2266 60.7148 45.3314 60.4596 45.541 60.2637C45.7552 60.0677 46.0218 59.9697 46.3408 59.9697C46.6644 59.9697 46.931 60.0677 47.1406 60.2637C47.3548 60.4596 47.4619 60.7148 47.4619 61.0293C47.4619 61.3392 47.3571 61.5921 47.1475 61.7881C46.9378 61.9795 46.6689 62.0752 46.3408 62.0752C46.0173 62.0752 45.7507 61.9795 45.541 61.7881C45.3314 61.5921 45.2266 61.3392 45.2266 61.0293ZM57.1416 58.6846C57.0641 59.7555 56.6676 60.5986 55.9521 61.2139C55.2412 61.8291 54.3024 62.1367 53.1357 62.1367C51.8597 62.1367 50.8548 61.7083 50.1211 60.8516C49.3919 59.9902 49.0273 58.8099 49.0273 57.3105V56.7021C49.0273 55.7451 49.196 54.902 49.5332 54.1729C49.8704 53.4437 50.3512 52.8854 50.9756 52.498C51.6045 52.1061 52.3337 51.9102 53.1631 51.9102C54.3115 51.9102 55.2367 52.2178 55.9385 52.833C56.6403 53.4482 57.0459 54.3118 57.1553 55.4238H55.1045C55.0544 54.7812 54.8743 54.3164 54.5645 54.0293C54.2591 53.7376 53.792 53.5918 53.1631 53.5918C52.4795 53.5918 51.9668 53.8379 51.625 54.3301C51.2878 54.8177 51.1146 55.5765 51.1055 56.6064V57.3584C51.1055 58.4339 51.2673 59.2201 51.5908 59.7168C51.9189 60.2135 52.4339 60.4619 53.1357 60.4619C53.7692 60.4619 54.2409 60.3184 54.5508 60.0312C54.8652 59.7396 55.0452 59.2907 55.0908 58.6846H57.1416ZM66.6641 57.249C66.6641 58.2288 66.4909 59.0879 66.1445 59.8262C65.7982 60.5645 65.3014 61.1341 64.6543 61.5352C64.0117 61.9362 63.2734 62.1367 62.4395 62.1367C61.6146 62.1367 60.8786 61.9385 60.2314 61.542C59.5843 61.1455 59.083 60.5804 58.7275 59.8467C58.3721 59.1084 58.1921 58.2607 58.1875 57.3037V56.8115C58.1875 55.8317 58.363 54.9704 58.7139 54.2275C59.0693 53.4801 59.5684 52.9082 60.2109 52.5117C60.8581 52.1107 61.5964 51.9102 62.4258 51.9102C63.2552 51.9102 63.9912 52.1107 64.6338 52.5117C65.2809 52.9082 65.7799 53.4801 66.1309 54.2275C66.4863 54.9704 66.6641 55.8294 66.6641 56.8047V57.249ZM64.5859 56.7979C64.5859 55.7542 64.3991 54.9613 64.0254 54.4189C63.6517 53.8766 63.1185 53.6055 62.4258 53.6055C61.7376 53.6055 61.2067 53.8743 60.833 54.4121C60.4593 54.9453 60.2702 55.7292 60.2656 56.7637V57.249C60.2656 58.2653 60.4525 59.0537 60.8262 59.6143C61.1999 60.1748 61.7376 60.4551 62.4395 60.4551C63.1276 60.4551 63.6562 60.1862 64.0254 59.6484C64.3945 59.1061 64.5814 58.3177 64.5859 57.2832V56.7979ZM70.834 52.0469L73.3906 59.2656L75.9336 52.0469H78.627V62H76.5693V59.2793L76.7744 54.583L74.0879 62H72.6797L70 54.5898L70.2051 59.2793V62H68.1543V52.0469H70.834ZM80.3906 61.0293C80.3906 60.7148 80.4954 60.4596 80.7051 60.2637C80.9193 60.0677 81.1859 59.9697 81.5049 59.9697C81.8285 59.9697 82.0951 60.0677 82.3047 60.2637C82.5189 60.4596 82.626 60.7148 82.626 61.0293C82.626 61.3392 82.5212 61.5921 82.3115 61.7881C82.1019 61.9795 81.833 62.0752 81.5049 62.0752C81.1813 62.0752 80.9147 61.9795 80.7051 61.7881C80.4954 61.5921 80.3906 61.3392 80.3906 61.0293ZM84.4922 62V52.0469H87.9785C89.1862 52.0469 90.1022 52.2793 90.7266 52.7441C91.3509 53.2044 91.6631 53.8812 91.6631 54.7744C91.6631 55.262 91.5378 55.6927 91.2871 56.0664C91.0365 56.4355 90.6878 56.7067 90.2412 56.8799C90.7516 57.0075 91.1527 57.265 91.4443 57.6523C91.7406 58.0397 91.8887 58.5137 91.8887 59.0742C91.8887 60.0312 91.5833 60.7559 90.9727 61.248C90.362 61.7402 89.4915 61.9909 88.3613 62H84.4922ZM86.543 57.666V60.3525H88.2998C88.7829 60.3525 89.1589 60.2386 89.4277 60.0107C89.7012 59.7783 89.8379 59.4593 89.8379 59.0537C89.8379 58.1423 89.3662 57.6797 88.4229 57.666H86.543ZM86.543 56.2168H88.0605C89.0951 56.1986 89.6123 55.7861 89.6123 54.9795C89.6123 54.5283 89.4801 54.2048 89.2158 54.0088C88.9561 53.8083 88.5436 53.708 87.9785 53.708H86.543V56.2168ZM97.1182 58.3564H95.4844V62H93.4336V52.0469H97.1318C98.3076 52.0469 99.2145 52.3089 99.8525 52.833C100.491 53.3571 100.81 54.0977 100.81 55.0547C100.81 55.7337 100.661 56.3011 100.365 56.7568C100.074 57.208 99.6292 57.568 99.0322 57.8369L101.186 61.9043V62H98.9844L97.1182 58.3564ZM95.4844 56.6953H97.1387C97.6536 56.6953 98.0524 56.5654 98.335 56.3057C98.6175 56.0413 98.7588 55.679 98.7588 55.2188C98.7588 54.7493 98.6243 54.3802 98.3555 54.1113C98.0911 53.8424 97.6833 53.708 97.1318 53.708H95.4844V56.6953ZM102.758 64.4951L101.726 63.9551L101.972 63.5107C102.277 62.9548 102.434 62.401 102.443 61.8496V60.3184H104.111L104.104 61.6855C104.1 62.1914 103.972 62.7018 103.722 63.2168C103.471 63.7318 103.15 64.1579 102.758 64.4951ZM6.87695 74.6865H2.93945V77.3525H7.56055V79H0.888672V69.0469H7.54688V70.708H2.93945V73.0801H6.87695V74.6865ZM13.9248 76.3887C13.9248 76.0013 13.7881 75.7051 13.5146 75.5C13.2412 75.2904 12.749 75.0716 12.0381 74.8438C11.3271 74.6113 10.7643 74.3835 10.3496 74.1602C9.2194 73.5495 8.6543 72.7269 8.6543 71.6924C8.6543 71.1546 8.80469 70.6761 9.10547 70.2568C9.41081 69.833 9.84603 69.5026 10.4111 69.2656C10.9808 69.0286 11.6188 68.9102 12.3252 68.9102C13.0361 68.9102 13.6696 69.04 14.2256 69.2998C14.7816 69.555 15.2122 69.9173 15.5176 70.3867C15.8275 70.8561 15.9824 71.3893 15.9824 71.9863H13.9316C13.9316 71.5306 13.7881 71.1774 13.501 70.9268C13.2139 70.6715 12.8105 70.5439 12.291 70.5439C11.7897 70.5439 11.4001 70.651 11.1221 70.8652C10.8441 71.0749 10.7051 71.3529 10.7051 71.6992C10.7051 72.0228 10.8669 72.2939 11.1904 72.5127C11.5186 72.7314 11.9993 72.9365 12.6328 73.1279C13.7995 73.4788 14.6494 73.9141 15.1826 74.4336C15.7158 74.9531 15.9824 75.6003 15.9824 76.375C15.9824 77.2363 15.6566 77.9131 15.0049 78.4053C14.3532 78.8929 13.4759 79.1367 12.373 79.1367C11.6074 79.1367 10.9102 78.9977 10.2812 78.7197C9.65234 78.4372 9.17155 78.0521 8.83887 77.5645C8.51074 77.0768 8.34668 76.5117 8.34668 75.8691H10.4043C10.4043 76.9674 11.0605 77.5166 12.373 77.5166C12.8607 77.5166 13.2412 77.4186 13.5146 77.2227C13.7881 77.0221 13.9248 76.7441 13.9248 76.3887ZM24.8691 70.708H21.8203V79H19.7695V70.708H16.7617V69.0469H24.8691V70.708ZM30.8438 76.9492H27.248L26.5645 79H24.3838L28.0889 69.0469H29.9893L33.7148 79H31.5342L30.8438 76.9492ZM27.8018 75.2881H30.29L29.0391 71.5625L27.8018 75.2881ZM34.6445 79V69.0469H37.707C38.582 69.0469 39.3636 69.2451 40.0518 69.6416C40.7445 70.0335 41.2845 70.5941 41.6719 71.3232C42.0592 72.0479 42.2529 72.8727 42.2529 73.7979V74.2559C42.2529 75.181 42.0615 76.0036 41.6787 76.7236C41.3005 77.4437 40.765 78.002 40.0723 78.3984C39.3796 78.7949 38.598 78.9954 37.7275 79H34.6445ZM36.6953 70.708V77.3525H37.6865C38.4886 77.3525 39.1016 77.0905 39.5254 76.5664C39.9492 76.0423 40.1657 75.2926 40.1748 74.3174V73.791C40.1748 72.7793 39.9652 72.0137 39.5459 71.4941C39.1266 70.9701 38.5137 70.708 37.707 70.708H36.6953ZM49.2188 76.9492H45.623L44.9395 79H42.7588L46.4639 69.0469H48.3643L52.0898 79H49.9092L49.2188 76.9492ZM46.1768 75.2881H48.665L47.4141 71.5625L46.1768 75.2881ZM61.0449 74.249C61.0449 75.2288 60.8717 76.0879 60.5254 76.8262C60.179 77.5645 59.6823 78.1341 59.0352 78.5352C58.3926 78.9362 57.6543 79.1367 56.8203 79.1367C55.9954 79.1367 55.2594 78.9385 54.6123 78.542C53.9652 78.1455 53.4639 77.5804 53.1084 76.8467C52.7529 76.1084 52.5729 75.2607 52.5684 74.3037V73.8115C52.5684 72.8317 52.7438 71.9704 53.0947 71.2275C53.4502 70.4801 53.9492 69.9082 54.5918 69.5117C55.2389 69.1107 55.9772 68.9102 56.8066 68.9102C57.6361 68.9102 58.3721 69.1107 59.0146 69.5117C59.6618 69.9082 60.1608 70.4801 60.5117 71.2275C60.8672 71.9704 61.0449 72.8294 61.0449 73.8047V74.249ZM58.9668 73.7979C58.9668 72.7542 58.7799 71.9613 58.4062 71.4189C58.0326 70.8766 57.4993 70.6055 56.8066 70.6055C56.1185 70.6055 55.5876 70.8743 55.2139 71.4121C54.8402 71.9453 54.651 72.7292 54.6465 73.7637V74.249C54.6465 75.2653 54.8333 76.0537 55.207 76.6143C55.5807 77.1748 56.1185 77.4551 56.8203 77.4551C57.5085 77.4551 58.0371 77.1862 58.4062 76.6484C58.7754 76.1061 58.9622 75.3177 58.9668 74.2832V73.7979ZM61.6738 78.0293C61.6738 77.7148 61.7786 77.4596 61.9883 77.2637C62.2025 77.0677 62.4691 76.9697 62.7881 76.9697C63.1117 76.9697 63.3783 77.0677 63.5879 77.2637C63.8021 77.4596 63.9092 77.7148 63.9092 78.0293C63.9092 78.3392 63.8044 78.5921 63.5947 78.7881C63.3851 78.9795 63.1162 79.0752 62.7881 79.0752C62.4645 79.0752 62.1979 78.9795 61.9883 78.7881C61.7786 78.5921 61.6738 78.3392 61.6738 78.0293ZM73.5889 75.6846C73.5114 76.7555 73.1149 77.5986 72.3994 78.2139C71.6885 78.8291 70.7497 79.1367 69.583 79.1367C68.307 79.1367 67.3021 78.7083 66.5684 77.8516C65.8392 76.9902 65.4746 75.8099 65.4746 74.3105V73.7021C65.4746 72.7451 65.6432 71.902 65.9805 71.1729C66.3177 70.4437 66.7985 69.8854 67.4229 69.498C68.0518 69.1061 68.7809 68.9102 69.6104 68.9102C70.7588 68.9102 71.6839 69.2178 72.3857 69.833C73.0876 70.4482 73.4932 71.3118 73.6025 72.4238H71.5518C71.5016 71.7812 71.3216 71.3164 71.0117 71.0293C70.7064 70.7376 70.2393 70.5918 69.6104 70.5918C68.9268 70.5918 68.4141 70.8379 68.0723 71.3301C67.735 71.8177 67.5618 72.5765 67.5527 73.6064V74.3584C67.5527 75.4339 67.7145 76.2201 68.0381 76.7168C68.3662 77.2135 68.8812 77.4619 69.583 77.4619C70.2165 77.4619 70.6882 77.3184 70.998 77.0312C71.3125 76.7396 71.4925 76.2907 71.5381 75.6846H73.5889ZM83.1113 74.249C83.1113 75.2288 82.9382 76.0879 82.5918 76.8262C82.2454 77.5645 81.7487 78.1341 81.1016 78.5352C80.459 78.9362 79.7207 79.1367 78.8867 79.1367C78.0618 79.1367 77.3258 78.9385 76.6787 78.542C76.0316 78.1455 75.5303 77.5804 75.1748 76.8467C74.8193 76.1084 74.6393 75.2607 74.6348 74.3037V73.8115C74.6348 72.8317 74.8102 71.9704 75.1611 71.2275C75.5166 70.4801 76.0156 69.9082 76.6582 69.5117C77.3053 69.1107 78.0436 68.9102 78.873 68.9102C79.7025 68.9102 80.4385 69.1107 81.0811 69.5117C81.7282 69.9082 82.2272 70.4801 82.5781 71.2275C82.9336 71.9704 83.1113 72.8294 83.1113 73.8047V74.249ZM81.0332 73.7979C81.0332 72.7542 80.8464 71.9613 80.4727 71.4189C80.099 70.8766 79.5658 70.6055 78.873 70.6055C78.1849 70.6055 77.654 70.8743 77.2803 71.4121C76.9066 71.9453 76.7174 72.7292 76.7129 73.7637V74.249C76.7129 75.2653 76.8997 76.0537 77.2734 76.6143C77.6471 77.1748 78.1849 77.4551 78.8867 77.4551C79.5749 77.4551 80.1035 77.1862 80.4727 76.6484C80.8418 76.1061 81.0286 75.3177 81.0332 74.2832V73.7979ZM87.2812 69.0469L89.8379 76.2656L92.3809 69.0469H95.0742V79H93.0166V76.2793L93.2217 71.583L90.5352 79H89.127L86.4473 71.5898L86.6523 76.2793V79H84.6016V69.0469H87.2812ZM96.8379 78.0293C96.8379 77.7148 96.9427 77.4596 97.1523 77.2637C97.3665 77.0677 97.6331 76.9697 97.9521 76.9697C98.2757 76.9697 98.5423 77.0677 98.752 77.2637C98.9661 77.4596 99.0732 77.7148 99.0732 78.0293C99.0732 78.3392 98.9684 78.5921 98.7588 78.7881C98.5492 78.9795 98.2803 79.0752 97.9521 79.0752C97.6286 79.0752 97.362 78.9795 97.1523 78.7881C96.9427 78.5921 96.8379 78.3392 96.8379 78.0293ZM100.939 79V69.0469H104.426C105.633 69.0469 106.549 69.2793 107.174 69.7441C107.798 70.2044 108.11 70.8812 108.11 71.7744C108.11 72.262 107.985 72.6927 107.734 73.0664C107.484 73.4355 107.135 73.7067 106.688 73.8799C107.199 74.0075 107.6 74.265 107.892 74.6523C108.188 75.0397 108.336 75.5137 108.336 76.0742C108.336 77.0312 108.031 77.7559 107.42 78.248C106.809 78.7402 105.939 78.9909 104.809 79H100.939ZM102.99 74.666V77.3525H104.747C105.23 77.3525 105.606 77.2386 105.875 77.0107C106.148 76.7783 106.285 76.4593 106.285 76.0537C106.285 75.1423 105.813 74.6797 104.87 74.666H102.99ZM102.99 73.2168H104.508C105.542 73.1986 106.06 72.7861 106.06 71.9795C106.06 71.5283 105.927 71.2048 105.663 71.0088C105.403 70.8083 104.991 70.708 104.426 70.708H102.99V73.2168ZM113.565 75.3564H111.932V79H109.881V69.0469H113.579C114.755 69.0469 115.662 69.3089 116.3 69.833C116.938 70.3571 117.257 71.0977 117.257 72.0547C117.257 72.7337 117.109 73.3011 116.812 73.7568C116.521 74.208 116.076 74.568 115.479 74.8369L117.633 78.9043V79H115.432L113.565 75.3564ZM111.932 73.6953H113.586C114.101 73.6953 114.5 73.5654 114.782 73.3057C115.065 73.0413 115.206 72.679 115.206 72.2188C115.206 71.7493 115.072 71.3802 114.803 71.1113C114.538 70.8424 114.131 70.708 113.579 70.708H111.932V73.6953ZM119.205 81.4951L118.173 80.9551L118.419 80.5107C118.724 79.9548 118.882 79.401 118.891 78.8496V77.3184H120.559L120.552 78.6855C120.547 79.1914 120.42 79.7018 120.169 80.2168C119.918 80.7318 119.597 81.1579 119.205 81.4951ZM6.87695 90.6865H2.93945V93.3525H7.56055V95H0.888672V85.0469H7.54688V86.708H2.93945V89.0801H6.87695V90.6865ZM16.3926 86.708H13.3438V95H11.293V86.708H8.28516V85.0469H16.3926V86.708ZM25.1904 91.6846C25.113 92.7555 24.7165 93.5986 24.001 94.2139C23.29 94.8291 22.3512 95.1367 21.1846 95.1367C19.9085 95.1367 18.9036 94.7083 18.1699 93.8516C17.4408 92.9902 17.0762 91.8099 17.0762 90.3105V89.7021C17.0762 88.7451 17.2448 87.902 17.582 87.1729C17.9193 86.4437 18.4001 85.8854 19.0244 85.498C19.6533 85.1061 20.3825 84.9102 21.2119 84.9102C22.3604 84.9102 23.2855 85.2178 23.9873 85.833C24.6891 86.4482 25.0947 87.3118 25.2041 88.4238H23.1533C23.1032 87.7812 22.9232 87.3164 22.6133 87.0293C22.3079 86.7376 21.8408 86.5918 21.2119 86.5918C20.5283 86.5918 20.0156 86.8379 19.6738 87.3301C19.3366 87.8177 19.1634 88.5765 19.1543 89.6064V90.3584C19.1543 91.4339 19.3161 92.2201 19.6396 92.7168C19.9678 93.2135 20.4827 93.4619 21.1846 93.4619C21.818 93.4619 22.2897 93.3184 22.5996 93.0312C22.9141 92.7396 23.0941 92.2907 23.1396 91.6846H25.1904ZM26.5098 94.0293C26.5098 93.7148 26.6146 93.4596 26.8242 93.2637C27.0384 93.0677 27.305 92.9697 27.624 92.9697C27.9476 92.9697 28.2142 93.0677 28.4238 93.2637C28.638 93.4596 28.7451 93.7148 28.7451 94.0293C28.7451 94.3392 28.6403 94.5921 28.4307 94.7881C28.221 94.9795 27.9521 95.0752 27.624 95.0752C27.3005 95.0752 27.0339 94.9795 26.8242 94.7881C26.6146 94.5921 26.5098 94.3392 26.5098 94.0293ZM33.8857 91.1104C33.8857 92.1403 33.7376 93.1315 33.4414 94.084C33.1452 95.0365 32.7191 95.8773 32.1631 96.6064C31.6071 97.3356 31.0124 97.8369 30.3789 98.1104L29.9961 97.0645C30.6432 96.5768 31.1536 95.8249 31.5273 94.8086C31.901 93.7923 32.0947 92.6234 32.1084 91.3018V90.9395C32.1084 89.5768 31.9215 88.376 31.5479 87.3369C31.1787 86.2979 30.6615 85.5186 29.9961 84.999L30.3789 83.9531C30.9987 84.222 31.582 84.7096 32.1289 85.416C32.6803 86.1224 33.1064 86.945 33.4072 87.8838C33.7126 88.8226 33.8721 89.7956 33.8857 90.8027V91.1104Z" transform="translate(166 127)" fill="white"/>
<path d="M6.87695 8.68652H2.93945V11.3525H7.56055V13H0.888672V3.04688H7.54688V4.70801H2.93945V7.08008H6.87695V8.68652ZM16.8574 13H14.8066L10.8145 6.45117V13H8.76367V3.04688H10.8145L14.8135 9.60938V3.04688H16.8574V13ZM25.9355 4.70801H22.8867V13H20.8359V4.70801H17.8281V3.04688H25.9355V4.70801ZM30.7959 9.35645H29.1621V13H27.1113V3.04688H30.8096C31.9854 3.04688 32.8923 3.30892 33.5303 3.83301C34.1683 4.3571 34.4873 5.09766 34.4873 6.05469C34.4873 6.73372 34.3392 7.30111 34.043 7.75684C33.7513 8.20801 33.307 8.56803 32.71 8.83691L34.8633 12.9043V13H32.6621L30.7959 9.35645ZM29.1621 7.69531H30.8164C31.3314 7.69531 31.7301 7.56543 32.0127 7.30566C32.2952 7.04134 32.4365 6.67904 32.4365 6.21875C32.4365 5.74935 32.3021 5.38021 32.0332 5.11133C31.7689 4.84245 31.361 4.70801 30.8096 4.70801H29.1621V7.69531ZM41.6719 10.9492H38.0762L37.3926 13H35.2119L38.917 3.04688H40.8174L44.543 13H42.3623L41.6719 10.9492ZM38.6299 9.28809H41.1182L39.8672 5.5625L38.6299 9.28809ZM53.5664 13H51.5156L47.5234 6.45117V13H45.4727V3.04688H47.5234L51.5225 9.60938V3.04688H53.5664V13ZM55.3574 13V3.04688H58.4199C59.2949 3.04688 60.0765 3.24512 60.7646 3.6416C61.4574 4.03353 61.9974 4.59408 62.3848 5.32324C62.7721 6.04785 62.9658 6.87272 62.9658 7.79785V8.25586C62.9658 9.18099 62.7744 10.0036 62.3916 10.7236C62.0133 11.4437 61.4779 12.002 60.7852 12.3984C60.0924 12.7949 59.3109 12.9954 58.4404 13H55.3574ZM57.4082 4.70801V11.3525H58.3994C59.2015 11.3525 59.8145 11.0905 60.2383 10.5664C60.6621 10.0423 60.8786 9.29264 60.8877 8.31738V7.79102C60.8877 6.7793 60.6781 6.01367 60.2588 5.49414C59.8395 4.97005 59.2266 4.70801 58.4199 4.70801H57.4082ZM72.6387 8.24902C72.6387 9.22884 72.4655 10.0879 72.1191 10.8262C71.7728 11.5645 71.276 12.1341 70.6289 12.5352C69.9863 12.9362 69.248 13.1367 68.4141 13.1367C67.5892 13.1367 66.8532 12.9385 66.2061 12.542C65.5589 12.1455 65.0576 11.5804 64.7021 10.8467C64.3467 10.1084 64.1667 9.26074 64.1621 8.30371V7.81152C64.1621 6.83171 64.3376 5.97038 64.6885 5.22754C65.0439 4.48014 65.543 3.9082 66.1855 3.51172C66.8327 3.11068 67.571 2.91016 68.4004 2.91016C69.2298 2.91016 69.9658 3.11068 70.6084 3.51172C71.2555 3.9082 71.7546 4.48014 72.1055 5.22754C72.4609 5.97038 72.6387 6.82943 72.6387 7.80469V8.24902ZM70.5605 7.79785C70.5605 6.75423 70.3737 5.96126 70 5.41895C69.6263 4.87663 69.0931 4.60547 68.4004 4.60547C67.7122 4.60547 67.1813 4.87435 66.8076 5.41211C66.4339 5.94531 66.2448 6.72917 66.2402 7.76367V8.24902C66.2402 9.2653 66.4271 10.0537 66.8008 10.6143C67.1745 11.1748 67.7122 11.4551 68.4141 11.4551C69.1022 11.4551 69.6309 11.1862 70 10.6484C70.3691 10.1061 70.556 9.31771 70.5605 8.2832V7.79785ZM83.6035 8.68652H79.666V11.3525H84.2871V13H77.6152V3.04688H84.2734V4.70801H79.666V7.08008H83.6035V8.68652ZM88.1699 3.04688L90.7266 10.2656L93.2695 3.04688H95.9629V13H93.9053V10.2793L94.1104 5.58301L91.4238 13H90.0156L87.3359 5.58984L87.541 10.2793V13H85.4902V3.04688H88.1699ZM0.888672 29V19.0469H4.375C5.58268 19.0469 6.4987 19.2793 7.12305 19.7441C7.7474 20.2044 8.05957 20.8812 8.05957 21.7744C8.05957 22.262 7.93424 22.6927 7.68359 23.0664C7.43294 23.4355 7.08431 23.7067 6.6377 23.8799C7.14811 24.0075 7.54915 24.265 7.84082 24.6523C8.13704 25.0397 8.28516 25.5137 8.28516 26.0742C8.28516 27.0312 7.97982 27.7559 7.36914 28.248C6.75846 28.7402 5.88802 28.9909 4.75781 29H0.888672ZM2.93945 24.666V27.3525H4.69629C5.17936 27.3525 5.55534 27.2386 5.82422 27.0107C6.09766 26.7783 6.23438 26.4593 6.23438 26.0537C6.23438 25.1423 5.7627 24.6797 4.81934 24.666H2.93945ZM2.93945 23.2168H4.45703C5.49154 23.1986 6.00879 22.7861 6.00879 21.9795C6.00879 21.5283 5.87663 21.2048 5.6123 21.0088C5.35254 20.8083 4.9401 20.708 4.375 20.708H2.93945V23.2168ZM11.8809 27.3525H16.2354V29H9.83008V19.0469H11.8809V27.3525ZM25.1562 24.249C25.1562 25.2288 24.9831 26.0879 24.6367 26.8262C24.2904 27.5645 23.7936 28.1341 23.1465 28.5352C22.5039 28.9362 21.7656 29.1367 20.9316 29.1367C20.1068 29.1367 19.3708 28.9385 18.7236 28.542C18.0765 28.1455 17.5752 27.5804 17.2197 26.8467C16.8643 26.1084 16.6842 25.2607 16.6797 24.3037V23.8115C16.6797 22.8317 16.8551 21.9704 17.2061 21.2275C17.5615 20.4801 18.0605 19.9082 18.7031 19.5117C19.3503 19.1107 20.0885 18.9102 20.918 18.9102C21.7474 18.9102 22.4834 19.1107 23.126 19.5117C23.7731 19.9082 24.2721 20.4801 24.623 21.2275C24.9785 21.9704 25.1562 22.8294 25.1562 23.8047V24.249ZM23.0781 23.7979C23.0781 22.7542 22.8913 21.9613 22.5176 21.4189C22.1439 20.8766 21.6107 20.6055 20.918 20.6055C20.2298 20.6055 19.6989 20.8743 19.3252 21.4121C18.9515 21.9453 18.7624 22.7292 18.7578 23.7637V24.249C18.7578 25.2653 18.9447 26.0537 19.3184 26.6143C19.6921 27.1748 20.2298 27.4551 20.9316 27.4551C21.6198 27.4551 22.1484 27.1862 22.5176 26.6484C22.8867 26.1061 23.0736 25.3177 23.0781 24.2832V23.7979ZM34.5215 27.7422C34.1523 28.1842 33.6305 28.5283 32.9561 28.7744C32.2816 29.016 31.5342 29.1367 30.7139 29.1367C29.8525 29.1367 29.096 28.9499 28.4443 28.5762C27.7972 28.1979 27.2959 27.651 26.9404 26.9355C26.5895 26.2201 26.4095 25.3792 26.4004 24.4131V23.7363C26.4004 22.7428 26.5667 21.8838 26.8994 21.1592C27.2367 20.43 27.7197 19.874 28.3486 19.4912C28.9821 19.1038 29.7227 18.9102 30.5703 18.9102C31.7507 18.9102 32.6735 19.1927 33.3389 19.7578C34.0042 20.3184 34.3984 21.1364 34.5215 22.2119H32.5254C32.4342 21.6423 32.2314 21.2253 31.917 20.9609C31.6071 20.6966 31.1787 20.5645 30.6318 20.5645C29.9346 20.5645 29.4036 20.8265 29.0391 21.3506C28.6745 21.8747 28.4899 22.654 28.4854 23.6885V24.3242C28.4854 25.3678 28.6836 26.1562 29.0801 26.6895C29.4766 27.2227 30.0576 27.4893 30.8232 27.4893C31.5934 27.4893 32.1426 27.3252 32.4707 26.9971V25.2812H30.6045V23.7705H34.5215V27.7422ZM41.3506 26.3887C41.3506 26.0013 41.2139 25.7051 40.9404 25.5C40.667 25.2904 40.1748 25.0716 39.4639 24.8438C38.7529 24.6113 38.1901 24.3835 37.7754 24.1602C36.6452 23.5495 36.0801 22.7269 36.0801 21.6924C36.0801 21.1546 36.2305 20.6761 36.5312 20.2568C36.8366 19.833 37.2718 19.5026 37.8369 19.2656C38.4066 19.0286 39.0446 18.9102 39.751 18.9102C40.4619 18.9102 41.0954 19.04 41.6514 19.2998C42.2074 19.555 42.638 19.9173 42.9434 20.3867C43.2533 20.8561 43.4082 21.3893 43.4082 21.9863H41.3574C41.3574 21.5306 41.2139 21.1774 40.9268 20.9268C40.6396 20.6715 40.2363 20.5439 39.7168 20.5439C39.2155 20.5439 38.8258 20.651 38.5479 20.8652C38.2699 21.0749 38.1309 21.3529 38.1309 21.6992C38.1309 22.0228 38.2926 22.2939 38.6162 22.5127C38.9443 22.7314 39.4251 22.9365 40.0586 23.1279C41.2253 23.4788 42.0752 23.9141 42.6084 24.4336C43.1416 24.9531 43.4082 25.6003 43.4082 26.375C43.4082 27.2363 43.0824 27.9131 42.4307 28.4053C41.779 28.8929 40.9017 29.1367 39.7988 29.1367C39.0332 29.1367 38.3359 28.9977 37.707 28.7197C37.0781 28.4372 36.5973 28.0521 36.2646 27.5645C35.9365 27.0768 35.7725 26.5117 35.7725 25.8691H37.8301C37.8301 26.9674 38.4863 27.5166 39.7988 27.5166C40.2865 27.5166 40.667 27.4186 40.9404 27.2227C41.2139 27.0221 41.3506 26.7441 41.3506 26.3887ZM54.2773 24.6865H50.3398V27.3525H54.9609V29H48.2891V19.0469H54.9473V20.708H50.3398V23.0801H54.2773V24.6865ZM64.8115 26.3887C64.8115 26.0013 64.6748 25.7051 64.4014 25.5C64.1279 25.2904 63.6357 25.0716 62.9248 24.8438C62.2139 24.6113 61.651 24.3835 61.2363 24.1602C60.1061 23.5495 59.541 22.7269 59.541 21.6924C59.541 21.1546 59.6914 20.6761 59.9922 20.2568C60.2975 19.833 60.7327 19.5026 61.2979 19.2656C61.8675 19.0286 62.5055 18.9102 63.2119 18.9102C63.9229 18.9102 64.5563 19.04 65.1123 19.2998C65.6683 19.555 66.099 19.9173 66.4043 20.3867C66.7142 20.8561 66.8691 21.3893 66.8691 21.9863H64.8184C64.8184 21.5306 64.6748 21.1774 64.3877 20.9268C64.1006 20.6715 63.6973 20.5439 63.1777 20.5439C62.6764 20.5439 62.2868 20.651 62.0088 20.8652C61.7308 21.0749 61.5918 21.3529 61.5918 21.6992C61.5918 22.0228 61.7536 22.2939 62.0771 22.5127C62.4053 22.7314 62.8861 22.9365 63.5195 23.1279C64.6862 23.4788 65.5361 23.9141 66.0693 24.4336C66.6025 24.9531 66.8691 25.6003 66.8691 26.375C66.8691 27.2363 66.5433 27.9131 65.8916 28.4053C65.2399 28.8929 64.3626 29.1367 63.2598 29.1367C62.4941 29.1367 61.7969 28.9977 61.168 28.7197C60.5391 28.4372 60.0583 28.0521 59.7256 27.5645C59.3975 27.0768 59.2334 26.5117 59.2334 25.8691H61.291C61.291 26.9674 61.9473 27.5166 63.2598 27.5166C63.7474 27.5166 64.1279 27.4186 64.4014 27.2227C64.6748 27.0221 64.8115 26.7441 64.8115 26.3887ZM70.4443 29H68.3936V19.0469H70.4443V29ZM79.6387 20.708H76.5898V29H74.5391V20.708H71.5312V19.0469H79.6387V20.708ZM86.8027 24.6865H82.8652V27.3525H87.4863V29H80.8145V19.0469H87.4727V20.708H82.8652V23.0801H86.8027V24.6865ZM93.8506 26.3887C93.8506 26.0013 93.7139 25.7051 93.4404 25.5C93.167 25.2904 92.6748 25.0716 91.9639 24.8438C91.2529 24.6113 90.6901 24.3835 90.2754 24.1602C89.1452 23.5495 88.5801 22.7269 88.5801 21.6924C88.5801 21.1546 88.7305 20.6761 89.0312 20.2568C89.3366 19.833 89.7718 19.5026 90.3369 19.2656C90.9066 19.0286 91.5446 18.9102 92.251 18.9102C92.9619 18.9102 93.5954 19.04 94.1514 19.2998C94.7074 19.555 95.138 19.9173 95.4434 20.3867C95.7533 20.8561 95.9082 21.3893 95.9082 21.9863H93.8574C93.8574 21.5306 93.7139 21.1774 93.4268 20.9268C93.1396 20.6715 92.7363 20.5439 92.2168 20.5439C91.7155 20.5439 91.3258 20.651 91.0479 20.8652C90.7699 21.0749 90.6309 21.3529 90.6309 21.6992C90.6309 22.0228 90.7926 22.2939 91.1162 22.5127C91.4443 22.7314 91.9251 22.9365 92.5586 23.1279C93.7253 23.4788 94.5752 23.9141 95.1084 24.4336C95.6416 24.9531 95.9082 25.6003 95.9082 26.375C95.9082 27.2363 95.5824 27.9131 94.9307 28.4053C94.279 28.8929 93.4017 29.1367 92.2988 29.1367C91.5332 29.1367 90.8359 28.9977 90.207 28.7197C89.5781 28.4372 89.0973 28.0521 88.7646 27.5645C88.4365 27.0768 88.2725 26.5117 88.2725 25.8691H90.3301C90.3301 26.9674 90.9863 27.5166 92.2988 27.5166C92.7865 27.5166 93.167 27.4186 93.4404 27.2227C93.7139 27.0221 93.8506 26.7441 93.8506 26.3887ZM3.06934 46H1.01855V36.0469H3.06934V46ZM13.0703 46H11.0195L7.02734 39.4512V46H4.97656V36.0469H7.02734L11.0264 42.6094V36.0469H13.0703V46ZM14.8613 46V36.0469H17.9238C18.7988 36.0469 19.5804 36.2451 20.2686 36.6416C20.9613 37.0335 21.5013 37.5941 21.8887 38.3232C22.276 39.0479 22.4697 39.8727 22.4697 40.7979V41.2559C22.4697 42.181 22.2783 43.0036 21.8955 43.7236C21.5173 44.4437 20.9818 45.002 20.2891 45.3984C19.5964 45.7949 18.8148 45.9954 17.9443 46H14.8613ZM16.9121 37.708V44.3525H17.9033C18.7054 44.3525 19.3184 44.0905 19.7422 43.5664C20.166 43.0423 20.3825 42.2926 20.3916 41.3174V40.791C20.3916 39.7793 20.182 39.0137 19.7627 38.4941C19.3434 37.9701 18.7305 37.708 17.9238 37.708H16.9121ZM29.9551 41.6865H26.0176V44.3525H30.6387V46H23.9668V36.0469H30.625V37.708H26.0176V40.0801H29.9551V41.6865ZM33.8926 42.4932V46H31.8418V36.0469H35.7246C36.472 36.0469 37.1283 36.1836 37.6934 36.457C38.263 36.7305 38.7005 37.1201 39.0059 37.626C39.3112 38.1273 39.4639 38.6992 39.4639 39.3418C39.4639 40.3171 39.1289 41.0872 38.459 41.6523C37.7936 42.2129 36.8708 42.4932 35.6904 42.4932H33.8926ZM33.8926 40.832H35.7246C36.2669 40.832 36.6794 40.7044 36.9619 40.4492C37.249 40.194 37.3926 39.8294 37.3926 39.3555C37.3926 38.8678 37.249 38.4736 36.9619 38.1729C36.6748 37.8721 36.2783 37.7171 35.7725 37.708H33.8926V40.832ZM46.8672 41.6865H42.9297V44.3525H47.5508V46H40.8789V36.0469H47.5371V37.708H42.9297V40.0801H46.8672V41.6865ZM56.8477 46H54.7969L50.8047 39.4512V46H48.7539V36.0469H50.8047L54.8037 42.6094V36.0469H56.8477V46ZM58.6387 46V36.0469H61.7012C62.5762 36.0469 63.3577 36.2451 64.0459 36.6416C64.7386 37.0335 65.2786 37.5941 65.666 38.3232C66.0534 39.0479 66.2471 39.8727 66.2471 40.7979V41.2559C66.2471 42.181 66.0557 43.0036 65.6729 43.7236C65.2946 44.4437 64.7591 45.002 64.0664 45.3984C63.3737 45.7949 62.5921 45.9954 61.7217 46H58.6387ZM60.6895 37.708V44.3525H61.6807C62.4827 44.3525 63.0957 44.0905 63.5195 43.5664C63.9434 43.0423 64.1598 42.2926 64.1689 41.3174V40.791C64.1689 39.7793 63.9593 39.0137 63.54 38.4941C63.1208 37.9701 62.5078 37.708 61.7012 37.708H60.6895ZM73.7324 41.6865H69.7949V44.3525H74.416V46H67.7441V36.0469H74.4023V37.708H69.7949V40.0801H73.7324V41.6865ZM83.7129 46H81.6621L77.6699 39.4512V46H75.6191V36.0469H77.6699L81.6689 42.6094V36.0469H83.7129V46ZM92.791 37.708H89.7422V46H87.6914V37.708H84.6836V36.0469H92.791V37.708ZM99.9551 41.6865H96.0176V44.3525H100.639V46H93.9668V36.0469H100.625V37.708H96.0176V40.0801H99.9551V41.6865ZM107.003 43.3887C107.003 43.0013 106.866 42.7051 106.593 42.5C106.319 42.2904 105.827 42.0716 105.116 41.8438C104.405 41.6113 103.842 41.3835 103.428 41.1602C102.298 40.5495 101.732 39.7269 101.732 38.6924C101.732 38.1546 101.883 37.6761 102.184 37.2568C102.489 36.833 102.924 36.5026 103.489 36.2656C104.059 36.0286 104.697 35.9102 105.403 35.9102C106.114 35.9102 106.748 36.04 107.304 36.2998C107.86 36.555 108.29 36.9173 108.596 37.3867C108.906 37.8561 109.061 38.3893 109.061 38.9863H107.01C107.01 38.5306 106.866 38.1774 106.579 37.9268C106.292 37.6715 105.889 37.5439 105.369 37.5439C104.868 37.5439 104.478 37.651 104.2 37.8652C103.922 38.0749 103.783 38.3529 103.783 38.6992C103.783 39.0228 103.945 39.2939 104.269 39.5127C104.597 39.7314 105.077 39.9365 105.711 40.1279C106.878 40.4788 107.728 40.9141 108.261 41.4336C108.794 41.9531 109.061 42.6003 109.061 43.375C109.061 44.2363 108.735 44.9131 108.083 45.4053C107.431 45.8929 106.554 46.1367 105.451 46.1367C104.686 46.1367 103.988 45.9977 103.359 45.7197C102.73 45.4372 102.25 45.0521 101.917 44.5645C101.589 44.0768 101.425 43.5117 101.425 42.8691H103.482C103.482 43.9674 104.139 44.5166 105.451 44.5166C105.939 44.5166 106.319 44.4186 106.593 44.2227C106.866 44.0221 107.003 43.7441 107.003 43.3887Z" transform="translate(427 58)" fill="white"/>
<path d="M6.87695 8.93262H2.93945V13H0.888672V3.04688H7.36914V4.70801H2.93945V7.27832H6.87695V8.93262ZM12.8652 10.9492H9.26953L8.58594 13H6.40527L10.1104 3.04688H12.0107L15.7363 13H13.5557L12.8652 10.9492ZM9.82324 9.28809H12.3115L11.0605 5.5625L9.82324 9.28809ZM24.3291 9.68457C24.2516 10.7555 23.8551 11.5986 23.1396 12.2139C22.4287 12.8291 21.4899 13.1367 20.3232 13.1367C19.0472 13.1367 18.0423 12.7083 17.3086 11.8516C16.5794 10.9902 16.2148 9.8099 16.2148 8.31055V7.70215C16.2148 6.74512 16.3835 5.90202 16.7207 5.17285C17.0579 4.44368 17.5387 3.88542 18.1631 3.49805C18.792 3.10612 19.5212 2.91016 20.3506 2.91016C21.499 2.91016 22.4242 3.21777 23.126 3.83301C23.8278 4.44824 24.2334 5.31185 24.3428 6.42383H22.292C22.2419 5.78125 22.0618 5.31641 21.752 5.0293C21.4466 4.73763 20.9795 4.5918 20.3506 4.5918C19.667 4.5918 19.1543 4.83789 18.8125 5.33008C18.4753 5.81771 18.3021 6.5765 18.293 7.60645V8.3584C18.293 9.43392 18.4548 10.2201 18.7783 10.7168C19.1064 11.2135 19.6214 11.4619 20.3232 11.4619C20.9567 11.4619 21.4284 11.3184 21.7383 11.0312C22.0527 10.7396 22.2327 10.2907 22.2783 9.68457H24.3291ZM31.6641 8.68652H27.7266V11.3525H32.3477V13H25.6758V3.04688H32.334V4.70801H27.7266V7.08008H31.6641V8.68652ZM33.5508 13V3.04688H37.0371C38.2448 3.04688 39.1608 3.2793 39.7852 3.74414C40.4095 4.20443 40.7217 4.88118 40.7217 5.77441C40.7217 6.26204 40.5964 6.69271 40.3457 7.06641C40.0951 7.43555 39.7464 7.70671 39.2998 7.87988C39.8102 8.00749 40.2113 8.26497 40.5029 8.65234C40.7992 9.03971 40.9473 9.51367 40.9473 10.0742C40.9473 11.0312 40.6419 11.7559 40.0312 12.248C39.4206 12.7402 38.5501 12.9909 37.4199 13H33.5508ZM35.6016 8.66602V11.3525H37.3584C37.8415 11.3525 38.2174 11.2386 38.4863 11.0107C38.7598 10.7783 38.8965 10.4593 38.8965 10.0537C38.8965 9.14225 38.4248 8.67969 37.4814 8.66602H35.6016ZM35.6016 7.2168H37.1191C38.1536 7.19857 38.6709 6.78613 38.6709 5.97949C38.6709 5.52832 38.5387 5.20475 38.2744 5.00879C38.0146 4.80827 37.6022 4.70801 37.0371 4.70801H35.6016V7.2168ZM50.668 8.24902C50.668 9.22884 50.4948 10.0879 50.1484 10.8262C49.8021 11.5645 49.3053 12.1341 48.6582 12.5352C48.0156 12.9362 47.2773 13.1367 46.4434 13.1367C45.6185 13.1367 44.8825 12.9385 44.2354 12.542C43.5882 12.1455 43.0869 11.5804 42.7314 10.8467C42.376 10.1084 42.196 9.26074 42.1914 8.30371V7.81152C42.1914 6.83171 42.3669 5.97038 42.7178 5.22754C43.0732 4.48014 43.5723 3.9082 44.2148 3.51172C44.862 3.11068 45.6003 2.91016 46.4297 2.91016C47.2591 2.91016 47.9951 3.11068 48.6377 3.51172C49.2848 3.9082 49.7839 4.48014 50.1348 5.22754C50.4902 5.97038 50.668 6.82943 50.668 7.80469V8.24902ZM48.5898 7.79785C48.5898 6.75423 48.403 5.96126 48.0293 5.41895C47.6556 4.87663 47.1224 4.60547 46.4297 4.60547C45.7415 4.60547 45.2106 4.87435 44.8369 5.41211C44.4632 5.94531 44.2741 6.72917 44.2695 7.76367V8.24902C44.2695 9.2653 44.4564 10.0537 44.8301 10.6143C45.2038 11.1748 45.7415 11.4551 46.4434 11.4551C47.1315 11.4551 47.6602 11.1862 48.0293 10.6484C48.3984 10.1061 48.5853 9.31771 48.5898 8.2832V7.79785ZM60.334 8.24902C60.334 9.22884 60.1608 10.0879 59.8145 10.8262C59.4681 11.5645 58.9714 12.1341 58.3242 12.5352C57.6816 12.9362 56.9434 13.1367 56.1094 13.1367C55.2845 13.1367 54.5485 12.9385 53.9014 12.542C53.2542 12.1455 52.7529 11.5804 52.3975 10.8467C52.042 10.1084 51.862 9.26074 51.8574 8.30371V7.81152C51.8574 6.83171 52.0329 5.97038 52.3838 5.22754C52.7393 4.48014 53.2383 3.9082 53.8809 3.51172C54.528 3.11068 55.2663 2.91016 56.0957 2.91016C56.9251 2.91016 57.6611 3.11068 58.3037 3.51172C58.9508 3.9082 59.4499 4.48014 59.8008 5.22754C60.1562 5.97038 60.334 6.82943 60.334 7.80469V8.24902ZM58.2559 7.79785C58.2559 6.75423 58.069 5.96126 57.6953 5.41895C57.3216 4.87663 56.7884 4.60547 56.0957 4.60547C55.4076 4.60547 54.8766 4.87435 54.5029 5.41211C54.1292 5.94531 53.9401 6.72917 53.9355 7.76367V8.24902C53.9355 9.2653 54.1224 10.0537 54.4961 10.6143C54.8698 11.1748 55.4076 11.4551 56.1094 11.4551C56.7975 11.4551 57.3262 11.1862 57.6953 10.6484C58.0645 10.1061 58.2513 9.31771 58.2559 8.2832V7.79785ZM64.9414 9.00781L63.875 10.1562V13H61.8242V3.04688H63.875V7.55859L64.7773 6.32129L67.3135 3.04688H69.8359L66.3018 7.46973L69.9385 13H67.498L64.9414 9.00781Z" transform="translate(374 441)" fill="white"/>
<path d="M8.38086 4.70801H5.33203V13H3.28125V4.70801H0.273438V3.04688H8.38086V4.70801ZM17.418 10.1289L18.7578 3.04688H20.8018L18.5938 13H16.5293L14.9092 6.3418L13.2891 13H11.2246L9.0166 3.04688H11.0605L12.4072 10.1152L14.0479 3.04688H15.7842L17.418 10.1289ZM24.0967 13H22.0459V3.04688H24.0967V13ZM33.291 4.70801H30.2422V13H28.1914V4.70801H25.1836V3.04688H33.291V4.70801ZM42.0684 4.70801H39.0195V13H36.9688V4.70801H33.9609V3.04688H42.0684V4.70801ZM49.2324 8.68652H45.2949V11.3525H49.916V13H43.2441V3.04688H49.9023V4.70801H45.2949V7.08008H49.2324V8.68652ZM54.8037 9.35645H53.1699V13H51.1191V3.04688H54.8174C55.9932 3.04688 56.9001 3.30892 57.5381 3.83301C58.1761 4.3571 58.4951 5.09766 58.4951 6.05469C58.4951 6.73372 58.347 7.30111 58.0508 7.75684C57.7591 8.20801 57.3148 8.56803 56.7178 8.83691L58.8711 12.9043V13H56.6699L54.8037 9.35645ZM53.1699 7.69531H54.8242C55.3392 7.69531 55.738 7.56543 56.0205 7.30566C56.3031 7.04134 56.4443 6.67904 56.4443 6.21875C56.4443 5.74935 56.3099 5.38021 56.041 5.11133C55.7767 4.84245 55.3688 4.70801 54.8174 4.70801H53.1699V7.69531Z" transform="translate(67 396)" fill="white"/>
<path d="M4.57324 9.35645H2.93945V13H0.888672V3.04688H4.58691C5.7627 3.04688 6.6696 3.30892 7.30762 3.83301C7.94564 4.3571 8.26465 5.09766 8.26465 6.05469C8.26465 6.73372 8.11654 7.30111 7.82031 7.75684C7.52865 8.20801 7.08431 8.56803 6.4873 8.83691L8.64062 12.9043V13H6.43945L4.57324 9.35645ZM2.93945 7.69531H4.59375C5.10872 7.69531 5.50749 7.56543 5.79004 7.30566C6.07259 7.04134 6.21387 6.67904 6.21387 6.21875C6.21387 5.74935 6.07943 5.38021 5.81055 5.11133C5.54622 4.84245 5.13835 4.70801 4.58691 4.70801H2.93945V7.69531ZM14.9912 10.3887C14.9912 10.0013 14.8545 9.70508 14.5811 9.5C14.3076 9.29036 13.8154 9.07161 13.1045 8.84375C12.3936 8.61133 11.8307 8.38346 11.416 8.16016C10.2858 7.54948 9.7207 6.72689 9.7207 5.69238C9.7207 5.15462 9.87109 4.67611 10.1719 4.25684C10.4772 3.83301 10.9124 3.5026 11.4775 3.26562C12.0472 3.02865 12.6852 2.91016 13.3916 2.91016C14.1025 2.91016 14.736 3.04004 15.292 3.2998C15.848 3.55501 16.2786 3.91732 16.584 4.38672C16.8939 4.85612 17.0488 5.38932 17.0488 5.98633H14.998C14.998 5.5306 14.8545 5.17741 14.5674 4.92676C14.2803 4.67155 13.877 4.54395 13.3574 4.54395C12.8561 4.54395 12.4665 4.65104 12.1885 4.86523C11.9105 5.07487 11.7715 5.35286 11.7715 5.69922C11.7715 6.02279 11.9333 6.29395 12.2568 6.5127C12.585 6.73145 13.0658 6.93652 13.6992 7.12793C14.8659 7.47884 15.7158 7.91406 16.249 8.43359C16.7822 8.95312 17.0488 9.60026 17.0488 10.375C17.0488 11.2363 16.723 11.9131 16.0713 12.4053C15.4196 12.8929 14.5423 13.1367 13.4395 13.1367C12.6738 13.1367 11.9766 12.9977 11.3477 12.7197C10.7188 12.4372 10.238 12.0521 9.90527 11.5645C9.57715 11.0768 9.41309 10.5117 9.41309 9.86914H11.4707C11.4707 10.9674 12.127 11.5166 13.4395 11.5166C13.9271 11.5166 14.3076 11.4186 14.5811 11.2227C14.8545 11.0221 14.9912 10.7441 14.9912 10.3887ZM23.6045 10.3887C23.6045 10.0013 23.4678 9.70508 23.1943 9.5C22.9209 9.29036 22.4287 9.07161 21.7178 8.84375C21.0068 8.61133 20.444 8.38346 20.0293 8.16016C18.8991 7.54948 18.334 6.72689 18.334 5.69238C18.334 5.15462 18.4844 4.67611 18.7852 4.25684C19.0905 3.83301 19.5257 3.5026 20.0908 3.26562C20.6605 3.02865 21.2985 2.91016 22.0049 2.91016C22.7158 2.91016 23.3493 3.04004 23.9053 3.2998C24.4613 3.55501 24.8919 3.91732 25.1973 4.38672C25.5072 4.85612 25.6621 5.38932 25.6621 5.98633H23.6113C23.6113 5.5306 23.4678 5.17741 23.1807 4.92676C22.8936 4.67155 22.4902 4.54395 21.9707 4.54395C21.4694 4.54395 21.0798 4.65104 20.8018 4.86523C20.5238 5.07487 20.3848 5.35286 20.3848 5.69922C20.3848 6.02279 20.5465 6.29395 20.8701 6.5127C21.1982 6.73145 21.679 6.93652 22.3125 7.12793C23.4792 7.47884 24.3291 7.91406 24.8623 8.43359C25.3955 8.95312 25.6621 9.60026 25.6621 10.375C25.6621 11.2363 25.3363 11.9131 24.6846 12.4053C24.0329 12.8929 23.1556 13.1367 22.0527 13.1367C21.2871 13.1367 20.5898 12.9977 19.9609 12.7197C19.332 12.4372 18.8512 12.0521 18.5186 11.5645C18.1904 11.0768 18.0264 10.5117 18.0264 9.86914H20.084C20.084 10.9674 20.7402 11.5166 22.0527 11.5166C22.5404 11.5166 22.9209 11.4186 23.1943 11.2227C23.4678 11.0221 23.6045 10.7441 23.6045 10.3887Z" transform="translate(587 177)" fill="white"/>
</svg>
