<svg width="659" height="508" viewBox="0 0 659 508" fill="none" xmlns="http://www.w3.org/2000/svg">
<line x1="56" y1="32.5" x2="655" y2="32.5" stroke="white"/>
<line x1="56" y1="92.5" x2="655" y2="92.5" stroke="white"/>
<line x1="56" y1="152.5" x2="655" y2="152.5" stroke="white"/>
<line x1="56" y1="212.5" x2="655" y2="212.5" stroke="white"/>
<line x1="56" y1="272.5" x2="655" y2="272.5" stroke="white"/>
<line x1="56" y1="332.5" x2="655" y2="332.5" stroke="white"/>
<path d="M27.9984 344.18C26.3784 344.18 24.9284 343.75 23.6484 342.89C22.3884 342.03 21.3984 340.8 20.6784 339.2C19.9784 337.58 19.6284 335.68 19.6284 333.5C19.6284 331.32 19.9784 329.43 20.6784 327.83C21.3984 326.21 22.3884 324.97 23.6484 324.11C24.9284 323.25 26.3784 322.82 27.9984 322.82C29.6184 322.82 31.0584 323.25 32.3184 324.11C33.5984 324.97 34.5984 326.21 35.3184 327.83C36.0384 329.43 36.3984 331.32 36.3984 333.5C36.3984 335.68 36.0384 337.58 35.3184 339.2C34.5984 340.8 33.5984 342.03 32.3184 342.89C31.0584 343.75 29.6184 344.18 27.9984 344.18ZM27.9984 342.2C29.2184 342.2 30.2884 341.86 31.2084 341.18C32.1484 340.5 32.8784 339.51 33.3984 338.21C33.9184 336.91 34.1784 335.34 34.1784 333.5C34.1784 331.66 33.9184 330.09 33.3984 328.79C32.8784 327.49 32.1484 326.5 31.2084 325.82C30.2884 325.14 29.2184 324.8 27.9984 324.8C26.7784 324.8 25.6984 325.14 24.7584 325.82C23.8384 326.5 23.1184 327.49 22.5984 328.79C22.0784 330.09 21.8184 331.66 21.8184 333.5C21.8184 335.34 22.0784 336.91 22.5984 338.21C23.1184 339.51 23.8384 340.5 24.7584 341.18C25.6984 341.86 26.7784 342.2 27.9984 342.2Z" fill="white"/>
<path d="M143.4 408.728C143.4 407.12 143.784 405.86 144.552 404.948C145.32 404.036 146.376 403.58 147.72 403.58C149.064 403.58 150.12 404.036 150.888 404.948C151.644 405.86 152.022 407.12 152.022 408.728L152.022 412.112L156 412.112L156 413.444L143.4 413.444L143.4 408.728ZM150.852 408.764C150.852 407.516 150.582 406.562 150.042 405.902C149.49 405.242 148.716 404.912 147.72 404.912C146.7 404.912 145.92 405.242 145.38 405.902C144.828 406.562 144.552 407.516 144.552 408.764L144.552 412.112L150.852 412.112L150.852 408.764ZM156 392.096L151.95 394.976C151.986 395.3 152.004 395.636 152.004 395.984L152.004 399.368L156 399.368L156 400.7L143.4 400.7L143.4 395.984C143.4 394.376 143.784 393.116 144.552 392.204C145.32 391.292 146.376 390.836 147.72 390.836C148.704 390.836 149.538 391.088 150.222 391.592C150.894 392.084 151.38 392.792 151.68 393.716L156 390.638L156 392.096ZM150.87 396.02C150.87 394.772 150.594 393.818 150.042 393.158C149.49 392.498 148.716 392.168 147.72 392.168C146.7 392.168 145.92 392.498 145.38 393.158C144.828 393.818 144.552 394.772 144.552 396.02L144.552 399.368L150.87 399.368L150.87 396.02ZM154.848 378.782L156 378.782L156 387.692L143.4 387.692L143.4 379.052L144.552 379.052L144.552 386.36L149.034 386.36L149.034 379.844L150.168 379.844L150.168 386.36L154.848 386.36L154.848 378.782ZM156.108 370.249C156.108 371.497 155.832 372.625 155.28 373.633C154.728 374.629 153.966 375.415 152.994 375.991C152.01 376.555 150.912 376.837 149.7 376.837C148.488 376.837 147.396 376.555 146.424 375.991C145.44 375.415 144.672 374.623 144.12 373.615C143.568 372.607 143.292 371.479 143.292 370.231C143.292 369.295 143.448 368.431 143.76 367.639C144.072 366.847 144.528 366.175 145.128 365.623L145.974 366.469C144.978 367.453 144.48 368.695 144.48 370.195C144.48 371.191 144.708 372.097 145.164 372.913C145.62 373.729 146.244 374.371 147.036 374.839C147.828 375.295 148.716 375.523 149.7 375.523C150.684 375.523 151.572 375.295 152.364 374.839C153.156 374.371 153.78 373.729 154.236 372.913C154.692 372.097 154.92 371.191 154.92 370.195C154.92 368.683 154.416 367.441 153.408 366.469L154.254 365.623C154.854 366.175 155.316 366.853 155.64 367.657C155.952 368.449 156.108 369.313 156.108 370.249ZM159.96 370.897C159.96 371.485 159.822 371.989 159.546 372.409L158.862 372.103C159.09 371.755 159.204 371.359 159.204 370.915C159.204 370.555 159.132 370.279 158.988 370.087C158.844 369.895 158.634 369.799 158.358 369.799C158.106 369.799 157.902 369.895 157.746 370.087C157.602 370.267 157.53 370.543 157.53 370.915L157.53 371.329L155.892 370.897L155.892 370.123L156.936 370.393C156.984 369.901 157.134 369.523 157.386 369.259C157.65 368.995 157.986 368.863 158.394 368.863C158.874 368.863 159.252 369.049 159.528 369.421C159.816 369.793 159.96 370.285 159.96 370.897ZM156.108 357.54C156.108 358.788 155.832 359.922 155.28 360.942C154.716 361.95 153.948 362.742 152.976 363.318C152.004 363.882 150.912 364.164 149.7 364.164C148.488 364.164 147.396 363.882 146.424 363.318C145.452 362.742 144.69 361.95 144.138 360.942C143.574 359.922 143.292 358.788 143.292 357.54C143.292 356.292 143.568 355.17 144.12 354.174C144.672 353.166 145.44 352.374 146.424 351.798C147.396 351.222 148.488 350.934 149.7 350.934C150.912 350.934 152.01 351.222 152.994 351.798C153.966 352.374 154.728 353.166 155.28 354.174C155.832 355.17 156.108 356.292 156.108 357.54ZM154.92 357.54C154.92 356.544 154.698 355.644 154.254 354.84C153.798 354.036 153.174 353.406 152.382 352.95C151.578 352.494 150.684 352.266 149.7 352.266C148.716 352.266 147.828 352.494 147.036 352.95C146.232 353.406 145.608 354.036 145.164 354.84C144.708 355.644 144.48 356.544 144.48 357.54C144.48 358.536 144.708 359.442 145.164 360.258C145.608 361.062 146.232 361.698 147.036 362.166C147.828 362.622 148.716 362.85 149.7 362.85C150.684 362.85 151.578 362.622 152.382 362.166C153.174 361.698 153.798 361.062 154.254 360.258C154.698 359.442 154.92 358.536 154.92 357.54Z" fill="white"/>
<path d="M571.4 54.5C573.633 54.5 575.383 55.0333 576.65 56.1C577.917 57.1667 578.55 58.6333 578.55 60.5C578.55 62.3667 577.917 63.8333 576.65 64.9C575.383 65.95 573.633 66.475 571.4 66.475H566.7V72H564.85V54.5H571.4ZM571.35 64.85C573.083 64.85 574.408 64.475 575.325 63.725C576.242 62.9583 576.7 61.8833 576.7 60.5C576.7 59.0833 576.242 58 575.325 57.25C574.408 56.4833 573.083 56.1 571.35 56.1H566.7V64.85H571.35ZM583.533 61.425C583.95 60.5417 584.567 59.875 585.383 59.425C586.217 58.975 587.242 58.75 588.458 58.75V60.475L588.033 60.45C586.65 60.45 585.567 60.875 584.783 61.725C584 62.575 583.608 63.7667 583.608 65.3V72H581.833V58.85H583.533V61.425ZM596.925 72.125C595.659 72.125 594.517 71.8417 593.5 71.275C592.484 70.6917 591.684 69.8917 591.1 68.875C590.517 67.8583 590.225 66.7083 590.225 65.425C590.225 64.1417 590.517 62.9917 591.1 61.975C591.684 60.9583 592.484 60.1667 593.5 59.6C594.517 59.0333 595.659 58.75 596.925 58.75C598.192 58.75 599.334 59.0333 600.35 59.6C601.367 60.1667 602.159 60.9583 602.725 61.975C603.309 62.9917 603.6 64.1417 603.6 65.425C603.6 66.7083 603.309 67.8583 602.725 68.875C602.159 69.8917 601.367 70.6917 600.35 71.275C599.334 71.8417 598.192 72.125 596.925 72.125ZM596.925 70.55C597.859 70.55 598.692 70.3417 599.425 69.925C600.175 69.4917 600.759 68.8833 601.175 68.1C601.592 67.3167 601.8 66.425 601.8 65.425C601.8 64.425 601.592 63.5333 601.175 62.75C600.759 61.9667 600.175 61.3667 599.425 60.95C598.692 60.5167 597.859 60.3 596.925 60.3C595.992 60.3 595.15 60.5167 594.4 60.95C593.667 61.3667 593.084 61.9667 592.65 62.75C592.234 63.5333 592.025 64.425 592.025 65.425C592.025 66.425 592.234 67.3167 592.65 68.1C593.084 68.8833 593.667 69.4917 594.4 69.925C595.15 70.3417 595.992 70.55 596.925 70.55ZM605.274 76.975C604.724 76.975 604.207 76.9 603.724 76.75C603.224 76.6167 602.816 76.4083 602.499 76.125L603.124 74.775C603.641 75.225 604.324 75.45 605.174 75.45C605.874 75.45 606.407 75.2417 606.774 74.825C607.157 74.4083 607.349 73.7917 607.349 72.975V58.85H609.124V72.975C609.124 74.2083 608.791 75.1833 608.124 75.9C607.457 76.6167 606.507 76.975 605.274 76.975ZM608.249 55.95C607.882 55.95 607.574 55.825 607.324 55.575C607.074 55.325 606.949 55.025 606.949 54.675C606.949 54.3417 607.074 54.05 607.324 53.8C607.574 53.55 607.882 53.425 608.249 53.425C608.616 53.425 608.924 53.55 609.174 53.8C609.424 54.0333 609.549 54.3167 609.549 54.65C609.549 55.0167 609.424 55.325 609.174 55.575C608.924 55.825 608.616 55.95 608.249 55.95ZM625.534 65.975H614.534C614.634 67.3417 615.159 68.45 616.109 69.3C617.059 70.1333 618.259 70.55 619.709 70.55C620.526 70.55 621.276 70.4083 621.959 70.125C622.643 69.825 623.234 69.3917 623.734 68.825L624.734 69.975C624.151 70.675 623.418 71.2083 622.534 71.575C621.668 71.9417 620.709 72.125 619.659 72.125C618.309 72.125 617.109 71.8417 616.059 71.275C615.026 70.6917 614.218 69.8917 613.634 68.875C613.051 67.8583 612.759 66.7083 612.759 65.425C612.759 64.1417 613.034 62.9917 613.584 61.975C614.151 60.9583 614.918 60.1667 615.884 59.6C616.868 59.0333 617.968 58.75 619.184 58.75C620.401 58.75 621.493 59.0333 622.459 59.6C623.426 60.1667 624.184 60.9583 624.734 61.975C625.284 62.975 625.559 64.125 625.559 65.425L625.534 65.975ZM619.184 60.275C617.918 60.275 616.851 60.6833 615.984 61.5C615.134 62.3 614.651 63.35 614.534 64.65H623.859C623.743 63.35 623.251 62.3 622.384 61.5C621.534 60.6833 620.468 60.275 619.184 60.275ZM636.097 71.2C635.764 71.5 635.347 71.7333 634.847 71.9C634.364 72.05 633.856 72.125 633.322 72.125C632.089 72.125 631.139 71.7917 630.472 71.125C629.806 70.4583 629.472 69.5167 629.472 68.3V60.35H627.122V58.85H629.472V55.975H631.247V58.85H635.247V60.35H631.247V68.2C631.247 68.9833 631.439 69.5833 631.822 70C632.222 70.4 632.789 70.6 633.522 70.6C633.889 70.6 634.239 70.5417 634.572 70.425C634.922 70.3083 635.222 70.1417 635.472 69.925L636.097 71.2ZM644.24 72.125C642.973 72.125 641.831 71.8417 640.815 71.275C639.798 70.6917 638.998 69.8917 638.415 68.875C637.831 67.8583 637.54 66.7083 637.54 65.425C637.54 64.1417 637.831 62.9917 638.415 61.975C638.998 60.9583 639.798 60.1667 640.815 59.6C641.831 59.0333 642.973 58.75 644.24 58.75C645.506 58.75 646.648 59.0333 647.665 59.6C648.681 60.1667 649.473 60.9583 650.04 61.975C650.623 62.9917 650.915 64.1417 650.915 65.425C650.915 66.7083 650.623 67.8583 650.04 68.875C649.473 69.8917 648.681 70.6917 647.665 71.275C646.648 71.8417 645.506 72.125 644.24 72.125ZM644.24 70.55C645.173 70.55 646.006 70.3417 646.74 69.925C647.49 69.4917 648.073 68.8833 648.49 68.1C648.906 67.3167 649.115 66.425 649.115 65.425C649.115 64.425 648.906 63.5333 648.49 62.75C648.073 61.9667 647.49 61.3667 646.74 60.95C646.006 60.5167 645.173 60.3 644.24 60.3C643.306 60.3 642.465 60.5167 641.715 60.95C640.981 61.3667 640.398 61.9667 639.965 62.75C639.548 63.5333 639.34 64.425 639.34 65.425C639.34 66.425 639.548 67.3167 639.965 68.1C640.398 68.8833 640.981 69.4917 641.715 69.925C642.465 70.3417 643.306 70.55 644.24 70.55Z" fill="white"/>
<path d="M585.475 174.5V192H583.95L572.7 177.8V192H570.85V174.5H572.375L583.65 188.7V174.5H585.475ZM590.812 178.85H592.587V192H590.812V178.85ZM591.712 175.975C591.345 175.975 591.037 175.85 590.787 175.6C590.537 175.35 590.412 175.05 590.412 174.7C590.412 174.367 590.537 174.075 590.787 173.825C591.037 173.575 591.345 173.45 591.712 173.45C592.079 173.45 592.387 173.575 592.637 173.825C592.887 174.058 593.012 174.342 593.012 174.675C593.012 175.042 592.887 175.35 592.637 175.6C592.387 175.85 592.079 175.975 591.712 175.975ZM602.401 185.4L599.301 188.25V192H597.526V173.45H599.301V186.025L607.151 178.85H609.351L603.726 184.225L609.876 192H607.701L602.401 185.4ZM623.453 185.975H612.453C612.553 187.342 613.078 188.45 614.028 189.3C614.978 190.133 616.178 190.55 617.628 190.55C618.445 190.55 619.195 190.408 619.878 190.125C620.562 189.825 621.153 189.392 621.653 188.825L622.653 189.975C622.07 190.675 621.337 191.208 620.453 191.575C619.587 191.942 618.628 192.125 617.578 192.125C616.228 192.125 615.028 191.842 613.978 191.275C612.945 190.692 612.137 189.892 611.553 188.875C610.97 187.858 610.678 186.708 610.678 185.425C610.678 184.142 610.953 182.992 611.503 181.975C612.07 180.958 612.837 180.167 613.803 179.6C614.787 179.033 615.887 178.75 617.103 178.75C618.32 178.75 619.412 179.033 620.378 179.6C621.345 180.167 622.103 180.958 622.653 181.975C623.203 182.975 623.478 184.125 623.478 185.425L623.453 185.975ZM617.103 180.275C615.837 180.275 614.77 180.683 613.903 181.5C613.053 182.3 612.57 183.35 612.453 184.65H621.778C621.662 183.35 621.17 182.3 620.303 181.5C619.453 180.683 618.387 180.275 617.103 180.275ZM637.485 184H632.835V188.55H631.26V184H626.61V182.525H631.26V177.95H632.835V182.525H637.485V184Z" fill="white"/>
<path d="M539.875 296.15C538.575 296.15 537.325 295.942 536.125 295.525C534.942 295.108 534.025 294.558 533.375 293.875L534.1 292.45C534.734 293.083 535.575 293.6 536.625 294C537.675 294.383 538.759 294.575 539.875 294.575C541.442 294.575 542.617 294.292 543.4 293.725C544.184 293.142 544.575 292.392 544.575 291.475C544.575 290.775 544.359 290.217 543.925 289.8C543.509 289.383 542.992 289.067 542.375 288.85C541.759 288.617 540.9 288.367 539.8 288.1C538.484 287.767 537.434 287.45 536.65 287.15C535.867 286.833 535.192 286.358 534.625 285.725C534.075 285.092 533.8 284.233 533.8 283.15C533.8 282.267 534.034 281.467 534.5 280.75C534.967 280.017 535.684 279.433 536.65 279C537.617 278.567 538.817 278.35 540.25 278.35C541.25 278.35 542.225 278.492 543.175 278.775C544.142 279.042 544.975 279.417 545.675 279.9L545.05 281.375C544.317 280.892 543.534 280.533 542.7 280.3C541.867 280.05 541.05 279.925 540.25 279.925C538.717 279.925 537.559 280.225 536.775 280.825C536.009 281.408 535.625 282.167 535.625 283.1C535.625 283.8 535.834 284.367 536.25 284.8C536.684 285.217 537.217 285.542 537.85 285.775C538.5 285.992 539.367 286.233 540.45 286.5C541.734 286.817 542.767 287.133 543.55 287.45C544.35 287.75 545.025 288.217 545.575 288.85C546.125 289.467 546.4 290.308 546.4 291.375C546.4 292.258 546.159 293.067 545.675 293.8C545.209 294.517 544.484 295.092 543.5 295.525C542.517 295.942 541.309 296.15 539.875 296.15ZM554.656 282.75C556.373 282.75 557.689 283.183 558.606 284.05C559.523 284.9 559.981 286.167 559.981 287.85V296H558.281V293.95C557.881 294.633 557.289 295.167 556.506 295.55C555.739 295.933 554.823 296.125 553.756 296.125C552.289 296.125 551.123 295.775 550.256 295.075C549.389 294.375 548.956 293.45 548.956 292.3C548.956 291.183 549.356 290.283 550.156 289.6C550.973 288.917 552.264 288.575 554.031 288.575H558.206V287.775C558.206 286.642 557.889 285.783 557.256 285.2C556.623 284.6 555.698 284.3 554.481 284.3C553.648 284.3 552.848 284.442 552.081 284.725C551.314 284.992 550.656 285.367 550.106 285.85L549.306 284.525C549.973 283.958 550.773 283.525 551.706 283.225C552.639 282.908 553.623 282.75 554.656 282.75ZM554.031 294.725C555.031 294.725 555.889 294.5 556.606 294.05C557.323 293.583 557.856 292.917 558.206 292.05V289.9H554.081C551.831 289.9 550.706 290.683 550.706 292.25C550.706 293.017 550.998 293.625 551.581 294.075C552.164 294.508 552.981 294.725 554.031 294.725ZM581.202 282.75C582.852 282.75 584.144 283.225 585.077 284.175C586.027 285.125 586.502 286.525 586.502 288.375V296H584.727V288.55C584.727 287.183 584.394 286.142 583.727 285.425C583.077 284.708 582.152 284.35 580.952 284.35C579.585 284.35 578.51 284.775 577.727 285.625C576.944 286.458 576.552 287.617 576.552 289.1V296H574.777V288.55C574.777 287.183 574.444 286.142 573.777 285.425C573.127 284.708 572.194 284.35 570.977 284.35C569.627 284.35 568.552 284.775 567.752 285.625C566.969 286.458 566.577 287.617 566.577 289.1V296H564.802V282.85H566.502V285.25C566.969 284.45 567.619 283.833 568.452 283.4C569.285 282.967 570.244 282.75 571.327 282.75C572.427 282.75 573.377 282.983 574.177 283.45C574.994 283.917 575.602 284.608 576.002 285.525C576.485 284.658 577.177 283.983 578.077 283.5C578.994 283 580.035 282.75 581.202 282.75ZM594.841 296.125C593.774 296.125 592.749 295.975 591.766 295.675C590.799 295.358 590.041 294.967 589.491 294.5L590.291 293.1C590.841 293.533 591.532 293.892 592.366 294.175C593.199 294.442 594.066 294.575 594.966 294.575C596.166 294.575 597.049 294.392 597.616 294.025C598.199 293.642 598.491 293.108 598.491 292.425C598.491 291.942 598.332 291.567 598.016 291.3C597.699 291.017 597.299 290.808 596.816 290.675C596.332 290.525 595.691 290.383 594.891 290.25C593.824 290.05 592.966 289.85 592.316 289.65C591.666 289.433 591.107 289.075 590.641 288.575C590.191 288.075 589.966 287.383 589.966 286.5C589.966 285.4 590.424 284.5 591.341 283.8C592.257 283.1 593.532 282.75 595.166 282.75C596.016 282.75 596.866 282.867 597.716 283.1C598.566 283.317 599.266 283.608 599.816 283.975L599.041 285.4C597.957 284.65 596.666 284.275 595.166 284.275C594.032 284.275 593.174 284.475 592.591 284.875C592.024 285.275 591.741 285.8 591.741 286.45C591.741 286.95 591.899 287.35 592.216 287.65C592.549 287.95 592.957 288.175 593.441 288.325C593.924 288.458 594.591 288.6 595.441 288.75C596.491 288.95 597.332 289.15 597.966 289.35C598.599 289.55 599.141 289.892 599.591 290.375C600.041 290.858 600.266 291.525 600.266 292.375C600.266 293.525 599.782 294.442 598.816 295.125C597.866 295.792 596.541 296.125 594.841 296.125ZM615.397 282.85V296H613.697V293.6C613.231 294.4 612.589 295.025 611.772 295.475C610.956 295.908 610.022 296.125 608.972 296.125C607.256 296.125 605.897 295.65 604.897 294.7C603.914 293.733 603.422 292.325 603.422 290.475V282.85H605.197V290.3C605.197 291.683 605.539 292.733 606.222 293.45C606.906 294.167 607.881 294.525 609.147 294.525C610.531 294.525 611.622 294.108 612.422 293.275C613.222 292.425 613.622 291.25 613.622 289.75V282.85H615.397ZM627.069 282.75C628.719 282.75 630.027 283.233 630.994 284.2C631.977 285.15 632.469 286.542 632.469 288.375V296H630.694V288.55C630.694 287.183 630.352 286.142 629.669 285.425C628.985 284.708 628.01 284.35 626.744 284.35C625.327 284.35 624.202 284.775 623.369 285.625C622.552 286.458 622.144 287.617 622.144 289.1V296H620.369V282.85H622.069V285.275C622.552 284.475 623.219 283.858 624.069 283.425C624.935 282.975 625.935 282.75 627.069 282.75ZM649.511 282.85V294.4C649.511 296.633 648.961 298.283 647.861 299.35C646.778 300.433 645.136 300.975 642.936 300.975C641.72 300.975 640.561 300.792 639.461 300.425C638.378 300.075 637.495 299.583 636.811 298.95L637.711 297.6C638.345 298.167 639.111 298.608 640.011 298.925C640.928 299.242 641.886 299.4 642.886 299.4C644.553 299.4 645.778 299.008 646.561 298.225C647.345 297.458 647.736 296.258 647.736 294.625V292.95C647.186 293.783 646.461 294.417 645.561 294.85C644.678 295.283 643.695 295.5 642.611 295.5C641.378 295.5 640.253 295.233 639.236 294.7C638.236 294.15 637.445 293.392 636.861 292.425C636.295 291.442 636.011 290.333 636.011 289.1C636.011 287.867 636.295 286.767 636.861 285.8C637.445 284.833 638.236 284.083 639.236 283.55C640.236 283.017 641.361 282.75 642.611 282.75C643.728 282.75 644.736 282.975 645.636 283.425C646.536 283.875 647.261 284.525 647.811 285.375V282.85H649.511ZM642.786 293.925C643.736 293.925 644.595 293.725 645.361 293.325C646.128 292.908 646.72 292.333 647.136 291.6C647.57 290.867 647.786 290.033 647.786 289.1C647.786 288.167 647.57 287.342 647.136 286.625C646.72 285.892 646.128 285.325 645.361 284.925C644.611 284.508 643.753 284.3 642.786 284.3C641.836 284.3 640.978 284.5 640.211 284.9C639.461 285.3 638.87 285.867 638.436 286.6C638.02 287.333 637.811 288.167 637.811 289.1C637.811 290.033 638.02 290.867 638.436 291.6C638.87 292.333 639.461 292.908 640.211 293.325C640.978 293.725 641.836 293.925 642.786 293.925ZM585.832 308.5V326H584.007V317.925H573.057V326H571.207V308.5H573.057V316.3H584.007V308.5H585.832ZM602.619 319.975H591.619C591.719 321.342 592.244 322.45 593.194 323.3C594.144 324.133 595.344 324.55 596.794 324.55C597.611 324.55 598.361 324.408 599.044 324.125C599.728 323.825 600.319 323.392 600.819 322.825L601.819 323.975C601.236 324.675 600.503 325.208 599.619 325.575C598.753 325.942 597.794 326.125 596.744 326.125C595.394 326.125 594.194 325.842 593.144 325.275C592.111 324.692 591.303 323.892 590.719 322.875C590.136 321.858 589.844 320.708 589.844 319.425C589.844 318.142 590.119 316.992 590.669 315.975C591.236 314.958 592.003 314.167 592.969 313.6C593.953 313.033 595.053 312.75 596.269 312.75C597.486 312.75 598.578 313.033 599.544 313.6C600.511 314.167 601.269 314.958 601.819 315.975C602.369 316.975 602.644 318.125 602.644 319.425L602.619 319.975ZM596.269 314.275C595.003 314.275 593.936 314.683 593.069 315.5C592.219 316.3 591.736 317.35 591.619 318.65H600.944C600.828 317.35 600.336 316.3 599.469 315.5C598.619 314.683 597.553 314.275 596.269 314.275ZM610.491 312.75C612.208 312.75 613.524 313.183 614.441 314.05C615.358 314.9 615.816 316.167 615.816 317.85V326H614.116V323.95C613.716 324.633 613.124 325.167 612.341 325.55C611.574 325.933 610.658 326.125 609.591 326.125C608.124 326.125 606.958 325.775 606.091 325.075C605.224 324.375 604.791 323.45 604.791 322.3C604.791 321.183 605.191 320.283 605.991 319.6C606.808 318.917 608.099 318.575 609.866 318.575H614.041V317.775C614.041 316.642 613.724 315.783 613.091 315.2C612.458 314.6 611.533 314.3 610.316 314.3C609.483 314.3 608.683 314.442 607.916 314.725C607.149 314.992 606.491 315.367 605.941 315.85L605.141 314.525C605.808 313.958 606.608 313.525 607.541 313.225C608.474 312.908 609.458 312.75 610.491 312.75ZM609.866 324.725C610.866 324.725 611.724 324.5 612.441 324.05C613.158 323.583 613.691 322.917 614.041 322.05V319.9H609.916C607.666 319.9 606.541 320.683 606.541 322.25C606.541 323.017 606.833 323.625 607.416 324.075C607.999 324.508 608.816 324.725 609.866 324.725ZM620.637 307.45H622.412V326H620.637V307.45ZM634.325 325.2C633.991 325.5 633.575 325.733 633.075 325.9C632.591 326.05 632.083 326.125 631.55 326.125C630.316 326.125 629.366 325.792 628.7 325.125C628.033 324.458 627.7 323.517 627.7 322.3V314.35H625.35V312.85H627.7V309.975H629.475V312.85H633.475V314.35H629.475V322.2C629.475 322.983 629.666 323.583 630.05 324C630.45 324.4 631.016 324.6 631.75 324.6C632.116 324.6 632.466 324.542 632.8 324.425C633.15 324.308 633.45 324.142 633.7 323.925L634.325 325.2ZM644.256 312.75C645.906 312.75 647.214 313.233 648.181 314.2C649.164 315.15 649.656 316.542 649.656 318.375V326H647.881V318.55C647.881 317.183 647.539 316.142 646.856 315.425C646.173 314.708 645.198 314.35 643.931 314.35C642.514 314.35 641.389 314.775 640.556 315.625C639.739 316.458 639.331 317.617 639.331 319.1V326H637.556V307.45H639.331V315.15C639.814 314.383 640.481 313.792 641.331 313.375C642.181 312.958 643.156 312.75 644.256 312.75Z" fill="white"/>
<path d="M301.4 484.478L314 490.058L314 491.372L301.4 496.952L301.4 495.512L312.344 490.688L301.4 485.828L301.4 484.478ZM312.848 473.739L314 473.739L314 482.649L301.4 482.649L301.4 474.009L302.552 474.009L302.552 481.317L307.034 481.317L307.034 474.801L308.168 474.801L308.168 481.317L312.848 481.317L312.848 473.739ZM314 462.004L309.95 464.884C309.986 465.208 310.004 465.544 310.004 465.892L310.004 469.276L314 469.276L314 470.608L301.4 470.608L301.4 465.892C301.4 464.284 301.784 463.024 302.552 462.112C303.32 461.2 304.376 460.744 305.72 460.744C306.704 460.744 307.538 460.996 308.222 461.5C308.894 461.992 309.38 462.7 309.68 463.624L314 460.546L314 462.004ZM308.87 465.928C308.87 464.68 308.594 463.726 308.042 463.066C307.49 462.406 306.716 462.076 305.72 462.076C304.7 462.076 303.92 462.406 303.38 463.066C302.828 463.726 302.552 464.68 302.552 465.928L302.552 469.276L308.87 469.276L308.87 465.928ZM314.108 454.126C314.108 455.062 313.958 455.962 313.658 456.826C313.358 457.678 312.962 458.338 312.47 458.806L311.444 458.284C311.9 457.828 312.272 457.222 312.56 456.466C312.836 455.71 312.974 454.93 312.974 454.126C312.974 452.998 312.77 452.152 312.362 451.588C311.942 451.024 311.402 450.742 310.742 450.742C310.238 450.742 309.836 450.898 309.536 451.21C309.236 451.51 309.008 451.882 308.852 452.326C308.684 452.77 308.504 453.388 308.312 454.18C308.072 455.128 307.844 455.884 307.628 456.448C307.4 457.012 307.058 457.498 306.602 457.906C306.146 458.302 305.528 458.5 304.748 458.5C304.112 458.5 303.536 458.332 303.02 457.996C302.492 457.66 302.072 457.144 301.76 456.448C301.448 455.752 301.292 454.888 301.292 453.856C301.292 453.136 301.394 452.434 301.598 451.75C301.79 451.054 302.06 450.454 302.408 449.95L303.47 450.4C303.122 450.928 302.864 451.492 302.696 452.092C302.516 452.692 302.426 453.28 302.426 453.856C302.426 454.96 302.642 455.794 303.074 456.358C303.494 456.91 304.04 457.186 304.712 457.186C305.216 457.186 305.624 457.036 305.936 456.736C306.236 456.424 306.47 456.04 306.638 455.584C306.794 455.116 306.968 454.492 307.16 453.712C307.388 452.788 307.616 452.044 307.844 451.48C308.06 450.904 308.396 450.418 308.852 450.022C309.296 449.626 309.902 449.428 310.67 449.428C311.306 449.428 311.888 449.602 312.416 449.95C312.932 450.286 313.346 450.808 313.658 451.516C313.958 452.224 314.108 453.094 314.108 454.126ZM310.634 438.624L310.634 445.644L314 447.156L314 448.542L301.4 442.782L301.4 441.468L314 435.708L314 437.112L310.634 438.624ZM309.554 439.11L302.786 442.134L309.554 445.158L309.554 439.11ZM302.552 431.809L302.552 436.237L301.4 436.237L301.4 426.049L302.552 426.049L302.552 430.477L314 430.477L314 431.809L302.552 431.809ZM301.4 423.921L301.4 422.589L314 422.589L314 423.921L301.4 423.921ZM301.4 418.489L301.4 417.157L312.848 417.157L312.848 410.101L314 410.101L314 418.489L301.4 418.489ZM301.4 407.889L301.4 406.557L314 406.557L314 407.889L301.4 407.889ZM301.4 402.458L301.4 397.328C301.4 395.996 301.67 394.82 302.21 393.8C302.738 392.78 303.482 391.988 304.442 391.424C305.39 390.86 306.476 390.578 307.7 390.578C308.924 390.578 310.016 390.86 310.976 391.424C311.924 391.988 312.668 392.78 313.208 393.8C313.736 394.82 314 395.996 314 397.328L314 402.458L301.4 402.458ZM312.848 397.4C312.848 396.296 312.632 395.33 312.2 394.502C311.756 393.674 311.15 393.032 310.382 392.576C309.602 392.12 308.708 391.892 307.7 391.892C306.692 391.892 305.804 392.12 305.036 392.576C304.256 393.032 303.65 393.674 303.218 394.502C302.774 395.33 302.552 396.296 302.552 397.4L302.552 401.126L312.848 401.126L312.848 397.4ZM310.634 379.86L310.634 386.88L314 388.392L314 389.778L301.4 384.018L301.4 382.704L314 376.944L314 378.348L310.634 379.86ZM309.554 380.346L302.786 383.37L309.554 386.394L309.554 380.346ZM301.4 374.86L301.4 369.73C301.4 368.398 301.67 367.222 302.21 366.202C302.738 365.182 303.482 364.39 304.442 363.826C305.39 363.262 306.476 362.98 307.7 362.98C308.924 362.98 310.016 363.262 310.976 363.826C311.924 364.39 312.668 365.182 313.208 366.202C313.736 367.222 314 368.398 314 369.73L314 374.86L301.4 374.86ZM312.848 369.802C312.848 368.698 312.632 367.732 312.2 366.904C311.756 366.076 311.15 365.434 310.382 364.978C309.602 364.522 308.708 364.294 307.7 364.294C306.692 364.294 305.804 364.522 305.036 364.978C304.256 365.434 303.65 366.076 303.218 366.904C302.774 367.732 302.552 368.698 302.552 369.802L302.552 373.528L312.848 373.528L312.848 369.802ZM312.848 351.079L314 351.079L314 359.989L301.4 359.989L301.4 351.349L302.552 351.349L302.552 358.657L307.034 358.657L307.034 352.141L308.168 352.141L308.168 358.657L312.848 358.657L312.848 351.079Z" fill="white"/>
<path d="M224.108 460.055C224.108 461.303 223.832 462.437 223.28 463.457C222.716 464.465 221.948 465.257 220.976 465.833C220.004 466.397 218.912 466.679 217.7 466.679C216.488 466.679 215.396 466.397 214.424 465.833C213.452 465.257 212.69 464.465 212.138 463.457C211.574 462.437 211.292 461.303 211.292 460.055C211.292 458.807 211.568 457.685 212.12 456.689C212.672 455.681 213.44 454.889 214.424 454.313C215.396 453.737 216.488 453.449 217.7 453.449C218.912 453.449 220.01 453.737 220.994 454.313C221.966 454.889 222.728 455.681 223.28 456.689C223.832 457.685 224.108 458.807 224.108 460.055ZM222.92 460.055C222.92 459.059 222.698 458.159 222.254 457.355C221.798 456.551 221.174 455.921 220.382 455.465C219.578 455.009 218.684 454.781 217.7 454.781C216.716 454.781 215.828 455.009 215.036 455.465C214.232 455.921 213.608 456.551 213.164 457.355C212.708 458.159 212.48 459.059 212.48 460.055C212.48 461.051 212.708 461.957 213.164 462.773C213.608 463.577 214.232 464.213 215.036 464.681C215.828 465.137 216.716 465.365 217.7 465.365C218.684 465.365 219.578 465.137 220.382 464.681C221.174 464.213 221.798 463.577 222.254 462.773C222.698 461.957 222.92 461.051 222.92 460.055ZM217.502 442.526C217.682 441.698 218.042 441.062 218.582 440.618C219.11 440.162 219.794 439.934 220.634 439.934C221.714 439.934 222.548 440.336 223.136 441.14C223.712 441.932 224 443.108 224 444.668L224 450.464L211.4 450.464L211.4 445.028C211.4 443.624 211.682 442.538 212.246 441.77C212.81 440.99 213.608 440.6 214.64 440.6C215.336 440.6 215.93 440.774 216.422 441.122C216.902 441.458 217.262 441.926 217.502 442.526ZM212.498 449.132L217.07 449.132L217.07 445.118C217.07 444.098 216.878 443.312 216.494 442.76C216.098 442.208 215.528 441.932 214.784 441.932C214.04 441.932 213.476 442.208 213.092 442.76C212.696 443.312 212.498 444.098 212.498 445.118L212.498 449.132ZM222.902 444.686C222.902 443.558 222.71 442.706 222.326 442.13C221.942 441.554 221.342 441.266 220.526 441.266C218.954 441.266 218.168 442.406 218.168 444.686L218.168 449.132L222.902 449.132L222.902 444.686ZM224.108 433.419C224.108 434.355 223.958 435.255 223.658 436.119C223.358 436.971 222.962 437.631 222.47 438.099L221.444 437.577C221.9 437.121 222.272 436.515 222.56 435.759C222.836 435.003 222.974 434.223 222.974 433.419C222.974 432.291 222.77 431.445 222.362 430.881C221.942 430.317 221.402 430.035 220.742 430.035C220.238 430.035 219.836 430.191 219.536 430.503C219.236 430.803 219.008 431.175 218.852 431.619C218.684 432.063 218.504 432.681 218.312 433.473C218.072 434.421 217.844 435.177 217.628 435.741C217.4 436.305 217.058 436.791 216.602 437.199C216.146 437.595 215.528 437.793 214.748 437.793C214.112 437.793 213.536 437.625 213.02 437.289C212.492 436.953 212.072 436.437 211.76 435.741C211.448 435.045 211.292 434.181 211.292 433.149C211.292 432.429 211.394 431.727 211.598 431.043C211.79 430.347 212.06 429.747 212.408 429.243L213.47 429.693C213.122 430.221 212.864 430.785 212.696 431.385C212.516 431.985 212.426 432.573 212.426 433.149C212.426 434.253 212.642 435.087 213.074 435.651C213.494 436.203 214.04 436.479 214.712 436.479C215.216 436.479 215.624 436.329 215.936 436.029C216.236 435.717 216.47 435.333 216.638 434.877C216.794 434.409 216.968 433.785 217.16 433.005C217.388 432.081 217.616 431.337 217.844 430.773C218.06 430.197 218.396 429.711 218.852 429.315C219.296 428.919 219.902 428.721 220.67 428.721C221.306 428.721 221.888 428.895 222.416 429.243C222.932 429.579 223.346 430.101 223.658 430.809C223.958 431.517 224.108 432.387 224.108 433.419ZM212.552 423.547L212.552 427.975L211.4 427.975L211.4 417.787L212.552 417.787L212.552 422.215L224 422.215L224 423.547L212.552 423.547ZM224 407.055L219.95 409.935C219.986 410.259 220.004 410.595 220.004 410.943L220.004 414.327L224 414.327L224 415.659L211.4 415.659L211.4 410.943C211.4 409.335 211.784 408.075 212.552 407.163C213.32 406.251 214.376 405.795 215.72 405.795C216.704 405.795 217.538 406.047 218.222 406.551C218.894 407.043 219.38 407.751 219.68 408.675L224 405.597L224 407.055ZM218.87 410.979C218.87 409.731 218.594 408.777 218.042 408.117C217.49 407.457 216.716 407.127 215.72 407.127C214.7 407.127 213.92 407.457 213.38 408.117C212.828 408.777 212.552 409.731 212.552 410.979L212.552 414.327L218.87 414.327L218.87 410.979ZM224.108 397.575C224.108 399.207 223.64 400.479 222.704 401.391C221.768 402.303 220.406 402.759 218.618 402.759L211.4 402.759L211.4 401.427L218.564 401.427C220.028 401.427 221.12 401.097 221.84 400.437C222.56 399.777 222.92 398.823 222.92 397.575C222.92 396.315 222.56 395.355 221.84 394.695C221.12 394.035 220.028 393.705 218.564 393.705L211.4 393.705L211.4 392.409L218.618 392.409C220.406 392.409 221.768 392.865 222.704 393.777C223.64 394.677 224.108 395.943 224.108 397.575ZM224.108 382.923C224.108 384.171 223.832 385.299 223.28 386.307C222.728 387.303 221.966 388.089 220.994 388.665C220.01 389.229 218.912 389.511 217.7 389.511C216.488 389.511 215.396 389.229 214.424 388.665C213.44 388.089 212.672 387.297 212.12 386.289C211.568 385.281 211.292 384.153 211.292 382.905C211.292 381.969 211.448 381.105 211.76 380.313C212.072 379.521 212.528 378.849 213.128 378.297L213.974 379.143C212.978 380.127 212.48 381.369 212.48 382.869C212.48 383.865 212.708 384.771 213.164 385.587C213.62 386.403 214.244 387.045 215.036 387.513C215.828 387.969 216.716 388.197 217.7 388.197C218.684 388.197 219.572 387.969 220.364 387.513C221.156 387.045 221.78 386.403 222.236 385.587C222.692 384.771 222.92 383.865 222.92 382.869C222.92 381.357 222.416 380.115 221.408 379.143L222.254 378.297C222.854 378.849 223.316 379.527 223.64 380.331C223.952 381.123 224.108 381.987 224.108 382.923ZM227.96 383.571C227.96 384.159 227.822 384.663 227.546 385.083L226.862 384.777C227.09 384.429 227.204 384.033 227.204 383.589C227.204 383.229 227.132 382.953 226.988 382.761C226.844 382.569 226.634 382.473 226.358 382.473C226.106 382.473 225.902 382.569 225.746 382.761C225.602 382.941 225.53 383.217 225.53 383.589L225.53 384.003L223.892 383.571L223.892 382.797L224.936 383.067C224.984 382.575 225.134 382.197 225.386 381.933C225.65 381.669 225.986 381.537 226.394 381.537C226.874 381.537 227.252 381.723 227.528 382.095C227.816 382.467 227.96 382.959 227.96 383.571ZM220.634 367.872L220.634 374.892L224 376.404L224 377.79L211.4 372.03L211.4 370.716L224 364.956L224 366.36L220.634 367.872ZM219.554 368.358L212.786 371.382L219.554 374.406L219.554 368.358ZM210.266 370.14C210.266 370.416 210.206 370.662 210.086 370.878C209.954 371.094 209.774 371.328 209.546 371.58C209.366 371.796 209.24 371.97 209.168 372.102C209.084 372.222 209.042 372.354 209.042 372.498C209.042 372.774 209.144 372.996 209.348 373.164C209.552 373.332 209.834 373.422 210.194 373.434L210.194 374.208C209.594 374.184 209.114 374.028 208.754 373.74C208.394 373.452 208.214 373.068 208.214 372.588C208.214 372.312 208.274 372.072 208.394 371.868C208.514 371.652 208.694 371.406 208.934 371.13C209.102 370.938 209.228 370.776 209.312 370.644C209.396 370.512 209.438 370.374 209.438 370.23C209.438 369.966 209.342 369.75 209.15 369.582C208.946 369.414 208.67 369.318 208.322 369.294L208.322 368.52C208.91 368.544 209.384 368.7 209.744 368.988C210.092 369.276 210.266 369.66 210.266 370.14ZM224.108 357.54C224.108 358.788 223.832 359.922 223.28 360.942C222.716 361.95 221.948 362.742 220.976 363.318C220.004 363.882 218.912 364.164 217.7 364.164C216.488 364.164 215.396 363.882 214.424 363.318C213.452 362.742 212.69 361.95 212.138 360.942C211.574 359.922 211.292 358.788 211.292 357.54C211.292 356.292 211.568 355.17 212.12 354.174C212.672 353.166 213.44 352.374 214.424 351.798C215.396 351.222 216.488 350.934 217.7 350.934C218.912 350.934 220.01 351.222 220.994 351.798C221.966 352.374 222.728 353.166 223.28 354.174C223.832 355.17 224.108 356.292 224.108 357.54ZM222.92 357.54C222.92 356.544 222.698 355.644 222.254 354.84C221.798 354.036 221.174 353.406 220.382 352.95C219.578 352.494 218.684 352.266 217.7 352.266C216.716 352.266 215.828 352.494 215.036 352.95C214.232 353.406 213.608 354.036 213.164 354.84C212.708 355.644 212.48 356.544 212.48 357.54C212.48 358.536 212.708 359.442 213.164 360.258C213.608 361.062 214.232 361.698 215.036 362.166C215.828 362.622 216.716 362.85 217.7 362.85C218.684 362.85 219.578 362.622 220.382 362.166C221.174 361.698 221.798 361.062 222.254 360.258C222.698 359.442 222.92 358.536 222.92 357.54ZM246.108 426.3C246.108 427.236 245.958 428.136 245.658 429C245.358 429.852 244.962 430.512 244.47 430.98L243.444 430.458C243.9 430.002 244.272 429.396 244.56 428.64C244.836 427.884 244.974 427.104 244.974 426.3C244.974 425.172 244.77 424.326 244.362 423.762C243.942 423.198 243.402 422.916 242.742 422.916C242.238 422.916 241.836 423.072 241.536 423.384C241.236 423.684 241.008 424.056 240.852 424.5C240.684 424.944 240.504 425.562 240.312 426.354C240.072 427.302 239.844 428.058 239.628 428.622C239.4 429.186 239.058 429.672 238.602 430.08C238.146 430.476 237.528 430.674 236.748 430.674C236.112 430.674 235.536 430.506 235.02 430.17C234.492 429.834 234.072 429.318 233.76 428.622C233.448 427.926 233.292 427.062 233.292 426.03C233.292 425.31 233.394 424.608 233.598 423.924C233.79 423.228 234.06 422.628 234.408 422.124L235.47 422.574C235.122 423.102 234.864 423.666 234.696 424.266C234.516 424.866 234.426 425.454 234.426 426.03C234.426 427.134 234.642 427.968 235.074 428.532C235.494 429.084 236.04 429.36 236.712 429.36C237.216 429.36 237.624 429.21 237.936 428.91C238.236 428.598 238.47 428.214 238.638 427.758C238.794 427.29 238.968 426.666 239.16 425.886C239.388 424.962 239.616 424.218 239.844 423.654C240.06 423.078 240.396 422.592 240.852 422.196C241.296 421.8 241.902 421.602 242.67 421.602C243.306 421.602 243.888 421.776 244.416 422.124C244.932 422.46 245.346 422.982 245.658 423.69C245.958 424.398 246.108 425.268 246.108 426.3ZM246.108 413.192C246.108 414.44 245.832 415.574 245.28 416.594C244.716 417.602 243.948 418.394 242.976 418.97C242.004 419.534 240.912 419.816 239.7 419.816C238.488 419.816 237.396 419.534 236.424 418.97C235.452 418.394 234.69 417.602 234.138 416.594C233.574 415.574 233.292 414.44 233.292 413.192C233.292 411.944 233.568 410.822 234.12 409.826C234.672 408.818 235.44 408.026 236.424 407.45C237.396 406.874 238.488 406.586 239.7 406.586C240.912 406.586 242.01 406.874 242.994 407.45C243.966 408.026 244.728 408.818 245.28 409.826C245.832 410.822 246.108 411.944 246.108 413.192ZM244.92 413.192C244.92 412.196 244.698 411.296 244.254 410.492C243.798 409.688 243.174 409.058 242.382 408.602C241.578 408.146 240.684 407.918 239.7 407.918C238.716 407.918 237.828 408.146 237.036 408.602C236.232 409.058 235.608 409.688 235.164 410.492C234.708 411.296 234.48 412.196 234.48 413.192C234.48 414.188 234.708 415.094 235.164 415.91C235.608 416.714 236.232 417.35 237.036 417.818C237.828 418.274 238.716 418.502 239.7 418.502C240.684 418.502 241.578 418.274 242.382 417.818C243.174 417.35 243.798 416.714 244.254 415.91C244.698 415.094 244.92 414.188 244.92 413.192ZM233.4 393.07L246 393.07L246 394.168L235.776 402.268L246 402.268L246 403.6L233.4 403.6L233.4 402.502L243.624 394.384L233.4 394.384L233.4 393.07ZM246.108 383.45C246.108 384.698 245.832 385.832 245.28 386.852C244.716 387.86 243.948 388.652 242.976 389.228C242.004 389.792 240.912 390.074 239.7 390.074C238.488 390.074 237.396 389.792 236.424 389.228C235.452 388.652 234.69 387.86 234.138 386.852C233.574 385.832 233.292 384.698 233.292 383.45C233.292 382.202 233.568 381.08 234.12 380.084C234.672 379.076 235.44 378.284 236.424 377.708C237.396 377.132 238.488 376.844 239.7 376.844C240.912 376.844 242.01 377.132 242.994 377.708C243.966 378.284 244.728 379.076 245.28 380.084C245.832 381.08 246.108 382.202 246.108 383.45ZM244.92 383.45C244.92 382.454 244.698 381.554 244.254 380.75C243.798 379.946 243.174 379.316 242.382 378.86C241.578 378.404 240.684 378.176 239.7 378.176C238.716 378.176 237.828 378.404 237.036 378.86C236.232 379.316 235.608 379.946 235.164 380.75C234.708 381.554 234.48 382.454 234.48 383.45C234.48 384.446 234.708 385.352 235.164 386.168C235.608 386.972 236.232 387.608 237.036 388.076C237.828 388.532 238.716 388.76 239.7 388.76C240.684 388.76 241.578 388.532 242.382 388.076C243.174 387.608 243.798 386.972 244.254 386.168C244.698 385.352 244.92 384.446 244.92 383.45ZM246 365.254L241.95 368.134C241.986 368.458 242.004 368.794 242.004 369.142L242.004 372.526L246 372.526L246 373.858L233.4 373.858L233.4 369.142C233.4 367.534 233.784 366.274 234.552 365.362C235.32 364.45 236.376 363.994 237.72 363.994C238.704 363.994 239.538 364.246 240.222 364.75C240.894 365.242 241.38 365.95 241.68 366.874L246 363.796L246 365.254ZM240.87 369.178C240.87 367.93 240.594 366.976 240.042 366.316C239.49 365.656 238.716 365.326 237.72 365.326C236.7 365.326 235.92 365.656 235.38 366.316C234.828 366.976 234.552 367.93 234.552 369.178L234.552 372.526L240.87 372.526L240.87 369.178ZM242.634 352.948L242.634 359.968L246 361.48L246 362.866L233.4 357.106L233.4 355.792L246 350.032L246 351.436L242.634 352.948ZM241.554 353.434L234.786 356.458L241.554 359.482L241.554 353.434Z" fill="white"/>
<path d="M382.108 475.136C382.108 476.384 381.832 477.512 381.28 478.52C380.728 479.516 379.966 480.302 378.994 480.878C378.01 481.442 376.912 481.724 375.7 481.724C374.488 481.724 373.396 481.442 372.424 480.878C371.44 480.302 370.672 479.51 370.12 478.502C369.568 477.494 369.292 476.366 369.292 475.118C369.292 474.182 369.448 473.318 369.76 472.526C370.072 471.734 370.528 471.062 371.128 470.51L371.974 471.356C370.978 472.34 370.48 473.582 370.48 475.082C370.48 476.078 370.708 476.984 371.164 477.8C371.62 478.616 372.244 479.258 373.036 479.726C373.828 480.182 374.716 480.41 375.7 480.41C376.684 480.41 377.572 480.182 378.364 479.726C379.156 479.258 379.78 478.616 380.236 477.8C380.692 476.984 380.92 476.078 380.92 475.082C380.92 473.57 380.416 472.328 379.408 471.356L380.254 470.51C380.854 471.062 381.316 471.74 381.64 472.544C381.952 473.336 382.108 474.2 382.108 475.136ZM382.108 462.426C382.108 463.674 381.832 464.808 381.28 465.828C380.716 466.836 379.948 467.628 378.976 468.204C378.004 468.768 376.912 469.05 375.7 469.05C374.488 469.05 373.396 468.768 372.424 468.204C371.452 467.628 370.69 466.836 370.138 465.828C369.574 464.808 369.292 463.674 369.292 462.426C369.292 461.178 369.568 460.056 370.12 459.06C370.672 458.052 371.44 457.26 372.424 456.684C373.396 456.108 374.488 455.82 375.7 455.82C376.912 455.82 378.01 456.108 378.994 456.684C379.966 457.26 380.728 458.052 381.28 459.06C381.832 460.056 382.108 461.178 382.108 462.426ZM380.92 462.426C380.92 461.43 380.698 460.53 380.254 459.726C379.798 458.922 379.174 458.292 378.382 457.836C377.578 457.38 376.684 457.152 375.7 457.152C374.716 457.152 373.828 457.38 373.036 457.836C372.232 458.292 371.608 458.922 371.164 459.726C370.708 460.53 370.48 461.43 370.48 462.426C370.48 463.422 370.708 464.328 371.164 465.144C371.608 465.948 372.232 466.584 373.036 467.052C373.828 467.508 374.716 467.736 375.7 467.736C376.684 467.736 377.578 467.508 378.382 467.052C379.174 466.584 379.798 465.948 380.254 465.144C380.698 464.328 380.92 463.422 380.92 462.426ZM369.4 442.305L382 442.305L382 443.403L371.776 451.503L382 451.503L382 452.835L369.4 452.835L369.4 451.737L379.624 443.619L369.4 443.619L369.4 442.305ZM382.108 434.718C382.108 435.654 381.958 436.554 381.658 437.418C381.358 438.27 380.962 438.93 380.47 439.398L379.444 438.876C379.9 438.42 380.272 437.814 380.56 437.058C380.836 436.302 380.974 435.522 380.974 434.718C380.974 433.59 380.77 432.744 380.362 432.18C379.942 431.616 379.402 431.334 378.742 431.334C378.238 431.334 377.836 431.49 377.536 431.802C377.236 432.102 377.008 432.474 376.852 432.918C376.684 433.362 376.504 433.98 376.312 434.772C376.072 435.72 375.844 436.476 375.628 437.04C375.4 437.604 375.058 438.09 374.602 438.498C374.146 438.894 373.528 439.092 372.748 439.092C372.112 439.092 371.536 438.924 371.02 438.588C370.492 438.252 370.072 437.736 369.76 437.04C369.448 436.344 369.292 435.48 369.292 434.448C369.292 433.728 369.394 433.026 369.598 432.342C369.79 431.646 370.06 431.046 370.408 430.542L371.47 430.992C371.122 431.52 370.864 432.084 370.696 432.684C370.516 433.284 370.426 433.872 370.426 434.448C370.426 435.552 370.642 436.386 371.074 436.95C371.494 437.502 372.04 437.778 372.712 437.778C373.216 437.778 373.624 437.628 373.936 437.328C374.236 437.016 374.47 436.632 374.638 436.176C374.794 435.708 374.968 435.084 375.16 434.304C375.388 433.38 375.616 432.636 375.844 432.072C376.06 431.496 376.396 431.01 376.852 430.614C377.296 430.218 377.902 430.02 378.67 430.02C379.306 430.02 379.888 430.194 380.416 430.542C380.932 430.878 381.346 431.4 381.658 432.108C381.958 432.816 382.108 433.686 382.108 434.718ZM382.108 422.042C382.108 423.674 381.64 424.946 380.704 425.858C379.768 426.77 378.406 427.226 376.618 427.226L369.4 427.226L369.4 425.894L376.564 425.894C378.028 425.894 379.12 425.564 379.84 424.904C380.56 424.244 380.92 423.29 380.92 422.042C380.92 420.782 380.56 419.822 379.84 419.162C379.12 418.502 378.028 418.172 376.564 418.172L369.4 418.172L369.4 416.876L376.618 416.876C378.406 416.876 379.768 417.332 380.704 418.244C381.64 419.144 382.108 420.41 382.108 422.042ZM369.4 399.776L382 399.776L382 401.054L371.92 401.054L380.398 406.004L380.398 406.634L371.974 411.584L382 411.584L382 412.862L369.4 412.862L369.4 411.764L378.742 406.292L369.4 400.874L369.4 399.776ZM382.108 390.163C382.108 391.411 381.832 392.545 381.28 393.565C380.716 394.573 379.948 395.365 378.976 395.941C378.004 396.505 376.912 396.787 375.7 396.787C374.488 396.787 373.396 396.505 372.424 395.941C371.452 395.365 370.69 394.573 370.138 393.565C369.574 392.545 369.292 391.411 369.292 390.163C369.292 388.915 369.568 387.793 370.12 386.797C370.672 385.789 371.44 384.997 372.424 384.421C373.396 383.845 374.488 383.557 375.7 383.557C376.912 383.557 378.01 383.845 378.994 384.421C379.966 384.997 380.728 385.789 381.28 386.797C381.832 387.793 382.108 388.915 382.108 390.163ZM380.92 390.163C380.92 389.167 380.698 388.267 380.254 387.463C379.798 386.659 379.174 386.029 378.382 385.573C377.578 385.117 376.684 384.889 375.7 384.889C374.716 384.889 373.828 385.117 373.036 385.573C372.232 386.029 371.608 386.659 371.164 387.463C370.708 388.267 370.48 389.167 370.48 390.163C370.48 391.159 370.708 392.065 371.164 392.881C371.608 393.685 372.232 394.321 373.036 394.789C373.828 395.245 374.716 395.473 375.7 395.473C376.684 395.473 377.578 395.245 378.382 394.789C379.174 394.321 379.798 393.685 380.254 392.881C380.698 392.065 380.92 391.159 380.92 390.163ZM369.4 375.86L369.4 370.73C369.4 369.398 369.67 368.222 370.21 367.202C370.738 366.182 371.482 365.39 372.442 364.826C373.39 364.262 374.476 363.98 375.7 363.98C376.924 363.98 378.016 364.262 378.976 364.826C379.924 365.39 380.668 366.182 381.208 367.202C381.736 368.222 382 369.398 382 370.73L382 375.86L369.4 375.86ZM380.848 370.802C380.848 369.698 380.632 368.732 380.2 367.904C379.756 367.076 379.15 366.434 378.382 365.978C377.602 365.522 376.708 365.294 375.7 365.294C374.692 365.294 373.804 365.522 373.036 365.978C372.256 366.434 371.65 367.076 371.218 367.904C370.774 368.732 370.552 369.698 370.552 370.802L370.552 374.528L380.848 374.528L380.848 370.802ZM380.848 352.079L382 352.079L382 360.989L369.4 360.989L369.4 352.349L370.552 352.349L370.552 359.657L375.034 359.657L375.034 353.141L376.168 353.141L376.168 359.657L380.848 359.657L380.848 352.079ZM397.502 420.569C397.682 419.741 398.042 419.105 398.582 418.661C399.11 418.205 399.794 417.977 400.634 417.977C401.714 417.977 402.548 418.379 403.136 419.183C403.712 419.975 404 421.151 404 422.711L404 428.507L391.4 428.507L391.4 423.071C391.4 421.667 391.682 420.581 392.246 419.813C392.81 419.033 393.608 418.643 394.64 418.643C395.336 418.643 395.93 418.817 396.422 419.165C396.902 419.501 397.262 419.969 397.502 420.569ZM392.498 427.175L397.07 427.175L397.07 423.161C397.07 422.141 396.878 421.355 396.494 420.803C396.098 420.251 395.528 419.975 394.784 419.975C394.04 419.975 393.476 420.251 393.092 420.803C392.696 421.355 392.498 422.141 392.498 423.161L392.498 427.175ZM402.902 422.729C402.902 421.601 402.71 420.749 402.326 420.173C401.942 419.597 401.342 419.309 400.526 419.309C398.954 419.309 398.168 420.449 398.168 422.729L398.168 427.175L402.902 427.175L402.902 422.729ZM400.634 407.034L400.634 414.054L404 415.566L404 416.952L391.4 411.192L391.4 409.878L404 404.118L404 405.522L400.634 407.034ZM399.554 407.52L392.786 410.544L399.554 413.568L399.554 407.52ZM392.552 400.219L392.552 404.647L391.4 404.647L391.4 394.459L392.552 394.459L392.552 398.887L404 398.887L404 400.219L392.552 400.219ZM402.848 383.421L404 383.421L404 392.331L391.4 392.331L391.4 383.691L392.552 383.691L392.552 390.999L397.034 390.999L397.034 384.483L398.168 384.483L398.168 390.999L402.848 390.999L402.848 383.421ZM404 371.686L399.95 374.566C399.986 374.89 400.004 375.226 400.004 375.574L400.004 378.958L404 378.958L404 380.29L391.4 380.29L391.4 375.574C391.4 373.966 391.784 372.706 392.552 371.794C393.32 370.882 394.376 370.426 395.72 370.426C396.704 370.426 397.538 370.678 398.222 371.182C398.894 371.674 399.38 372.382 399.68 373.306L404 370.228L404 371.686ZM398.87 375.61C398.87 374.362 398.594 373.408 398.042 372.748C397.49 372.088 396.716 371.758 395.72 371.758C394.7 371.758 393.92 372.088 393.38 372.748C392.828 373.408 392.552 374.362 392.552 375.61L392.552 378.958L398.87 378.958L398.87 375.61ZM391.4 367.282L391.4 365.95L404 365.95L404 367.282L391.4 367.282ZM400.634 353.948L400.634 360.968L404 362.48L404 363.866L391.4 358.106L391.4 356.792L404 351.032L404 352.436L400.634 353.948ZM399.554 354.434L392.786 357.458L399.554 360.482L399.554 354.434Z" fill="white"/>
<path d="M459.552 444.711L459.552 449.139L458.4 449.139L458.4 438.951L459.552 438.951L459.552 443.379L471 443.379L471 444.711L459.552 444.711ZM469.848 427.913L471 427.913L471 436.823L458.4 436.823L458.4 428.183L459.552 428.183L459.552 435.491L464.034 435.491L464.034 428.975L465.168 428.975L465.168 435.491L469.848 435.491L469.848 427.913ZM458.4 411.696L471 411.696L471 412.974L460.92 412.974L469.398 417.924L469.398 418.554L460.974 423.504L471 423.504L471 424.782L458.4 424.782L458.4 423.684L467.742 418.212L458.4 412.794L458.4 411.696ZM458.4 402.875C458.4 401.267 458.784 400.007 459.552 399.095C460.32 398.183 461.376 397.727 462.72 397.727C464.064 397.727 465.12 398.183 465.888 399.095C466.644 400.007 467.022 401.267 467.022 402.875L467.022 406.259L471 406.259L471 407.591L458.4 407.591L458.4 402.875ZM465.852 402.911C465.852 401.663 465.582 400.709 465.042 400.049C464.49 399.389 463.716 399.059 462.72 399.059C461.7 399.059 460.92 399.389 460.38 400.049C459.828 400.709 459.552 401.663 459.552 402.911L459.552 406.259L465.852 406.259L465.852 402.911ZM471.108 389.163C471.108 390.411 470.832 391.545 470.28 392.565C469.716 393.573 468.948 394.365 467.976 394.941C467.004 395.505 465.912 395.787 464.7 395.787C463.488 395.787 462.396 395.505 461.424 394.941C460.452 394.365 459.69 393.573 459.138 392.565C458.574 391.545 458.292 390.411 458.292 389.163C458.292 387.915 458.568 386.793 459.12 385.797C459.672 384.789 460.44 383.997 461.424 383.421C462.396 382.845 463.488 382.557 464.7 382.557C465.912 382.557 467.01 382.845 467.994 383.421C468.966 383.997 469.728 384.789 470.28 385.797C470.832 386.793 471.108 387.915 471.108 389.163ZM469.92 389.163C469.92 388.167 469.698 387.267 469.254 386.463C468.798 385.659 468.174 385.029 467.382 384.573C466.578 384.117 465.684 383.889 464.7 383.889C463.716 383.889 462.828 384.117 462.036 384.573C461.232 385.029 460.608 385.659 460.164 386.463C459.708 387.267 459.48 388.167 459.48 389.163C459.48 390.159 459.708 391.065 460.164 391.881C460.608 392.685 461.232 393.321 462.036 393.789C462.828 394.245 463.716 394.473 464.7 394.473C465.684 394.473 466.578 394.245 467.382 393.789C468.174 393.321 468.798 392.685 469.254 391.881C469.698 391.065 469.92 390.159 469.92 389.163ZM458.4 374.86L458.4 369.73C458.4 368.398 458.67 367.222 459.21 366.202C459.738 365.182 460.482 364.39 461.442 363.826C462.39 363.262 463.476 362.98 464.7 362.98C465.924 362.98 467.016 363.262 467.976 363.826C468.924 364.39 469.668 365.182 470.208 366.202C470.736 367.222 471 368.398 471 369.73L471 374.86L458.4 374.86ZM469.848 369.802C469.848 368.698 469.632 367.732 469.2 366.904C468.756 366.076 468.15 365.434 467.382 364.978C466.602 364.522 465.708 364.294 464.7 364.294C463.692 364.294 462.804 364.522 462.036 364.978C461.256 365.434 460.65 366.076 460.218 366.904C459.774 367.732 459.552 368.698 459.552 369.802L459.552 373.528L469.848 373.528L469.848 369.802ZM469.848 351.079L471 351.079L471 359.989L458.4 359.989L458.4 351.349L459.552 351.349L459.552 358.657L464.034 358.657L464.034 352.141L465.168 352.141L465.168 358.657L469.848 358.657L469.848 351.079ZM493.108 383.302C493.108 384.934 492.64 386.206 491.704 387.118C490.768 388.03 489.406 388.486 487.618 388.486L480.4 388.486L480.4 387.154L487.564 387.154C489.028 387.154 490.12 386.824 490.84 386.164C491.56 385.504 491.92 384.55 491.92 383.302C491.92 382.042 491.56 381.082 490.84 380.422C490.12 379.762 489.028 379.432 487.564 379.432L480.4 379.432L480.4 378.136L487.618 378.136C489.406 378.136 490.768 378.592 491.704 379.504C492.64 380.404 493.108 381.67 493.108 383.302ZM493.108 370.648C493.108 371.584 492.958 372.484 492.658 373.348C492.358 374.2 491.962 374.86 491.47 375.328L490.444 374.806C490.9 374.35 491.272 373.744 491.56 372.988C491.836 372.232 491.974 371.452 491.974 370.648C491.974 369.52 491.77 368.674 491.362 368.11C490.942 367.546 490.402 367.264 489.742 367.264C489.238 367.264 488.836 367.42 488.536 367.732C488.236 368.032 488.008 368.404 487.852 368.848C487.684 369.292 487.504 369.91 487.312 370.702C487.072 371.65 486.844 372.406 486.628 372.97C486.4 373.534 486.058 374.02 485.602 374.428C485.146 374.824 484.528 375.022 483.748 375.022C483.112 375.022 482.536 374.854 482.02 374.518C481.492 374.182 481.072 373.666 480.76 372.97C480.448 372.274 480.292 371.41 480.292 370.378C480.292 369.658 480.394 368.956 480.598 368.272C480.79 367.576 481.06 366.976 481.408 366.472L482.47 366.922C482.122 367.45 481.864 368.014 481.696 368.614C481.516 369.214 481.426 369.802 481.426 370.378C481.426 371.482 481.642 372.316 482.074 372.88C482.494 373.432 483.04 373.708 483.712 373.708C484.216 373.708 484.624 373.558 484.936 373.258C485.236 372.946 485.47 372.562 485.638 372.106C485.794 371.638 485.968 371.014 486.16 370.234C486.388 369.31 486.616 368.566 486.844 368.002C487.06 367.426 487.396 366.94 487.852 366.544C488.296 366.148 488.902 365.95 489.67 365.95C490.306 365.95 490.888 366.124 491.416 366.472C491.932 366.808 492.346 367.33 492.658 368.038C492.958 368.746 493.108 369.616 493.108 370.648ZM493.108 357.54C493.108 358.788 492.832 359.922 492.28 360.942C491.716 361.95 490.948 362.742 489.976 363.318C489.004 363.882 487.912 364.164 486.7 364.164C485.488 364.164 484.396 363.882 483.424 363.318C482.452 362.742 481.69 361.95 481.138 360.942C480.574 359.922 480.292 358.788 480.292 357.54C480.292 356.292 480.568 355.17 481.12 354.174C481.672 353.166 482.44 352.374 483.424 351.798C484.396 351.222 485.488 350.934 486.7 350.934C487.912 350.934 489.01 351.222 489.994 351.798C490.966 352.374 491.728 353.166 492.28 354.174C492.832 355.17 493.108 356.292 493.108 357.54ZM491.92 357.54C491.92 356.544 491.698 355.644 491.254 354.84C490.798 354.036 490.174 353.406 489.382 352.95C488.578 352.494 487.684 352.266 486.7 352.266C485.716 352.266 484.828 352.494 484.036 352.95C483.232 353.406 482.608 354.036 482.164 354.84C481.708 355.644 481.48 356.544 481.48 357.54C481.48 358.536 481.708 359.442 482.164 360.258C482.608 361.062 483.232 361.698 484.036 362.166C484.828 362.622 485.716 362.85 486.7 362.85C487.684 362.85 488.578 362.622 489.382 362.166C490.174 361.698 490.798 361.062 491.254 360.258C491.698 359.442 491.92 358.536 491.92 357.54Z" fill="white"/>
<path d="M537.4 444.364L537.4 439.234C537.4 437.902 537.67 436.726 538.21 435.706C538.738 434.686 539.482 433.894 540.442 433.33C541.39 432.766 542.476 432.484 543.7 432.484C544.924 432.484 546.016 432.766 546.976 433.33C547.924 433.894 548.668 434.686 549.208 435.706C549.736 436.726 550 437.902 550 439.234L550 444.364L537.4 444.364ZM548.848 439.306C548.848 438.202 548.632 437.236 548.2 436.408C547.756 435.58 547.15 434.938 546.382 434.482C545.602 434.026 544.708 433.798 543.7 433.798C542.692 433.798 541.804 434.026 541.036 434.482C540.256 434.938 539.65 435.58 539.218 436.408C538.774 437.236 538.552 438.202 538.552 439.306L538.552 443.032L548.848 443.032L548.848 439.306ZM537.4 429.493L537.4 428.161L550 428.161L550 429.493L537.4 429.493ZM537.4 413.726L550 419.306L550 420.62L537.4 426.2L537.4 424.76L548.344 419.936L537.4 415.076L537.4 413.726ZM548.848 402.987L550 402.987L550 411.897L537.4 411.897L537.4 403.257L538.552 403.257L538.552 410.565L543.034 410.565L543.034 404.049L544.168 404.049L544.168 410.565L548.848 410.565L548.848 402.987ZM550 391.252L545.95 394.132C545.986 394.456 546.004 394.792 546.004 395.14L546.004 398.524L550 398.524L550 399.856L537.4 399.856L537.4 395.14C537.4 393.532 537.784 392.272 538.552 391.36C539.32 390.448 540.376 389.992 541.72 389.992C542.704 389.992 543.538 390.244 544.222 390.748C544.894 391.24 545.38 391.948 545.68 392.872L550 389.794L550 391.252ZM544.87 395.176C544.87 393.928 544.594 392.974 544.042 392.314C543.49 391.654 542.716 391.324 541.72 391.324C540.7 391.324 539.92 391.654 539.38 392.314C538.828 392.974 538.552 393.928 538.552 395.176L538.552 398.524L544.87 398.524L544.87 395.176ZM550.108 383.374C550.108 384.31 549.958 385.21 549.658 386.074C549.358 386.926 548.962 387.586 548.47 388.054L547.444 387.532C547.9 387.076 548.272 386.47 548.56 385.714C548.836 384.958 548.974 384.178 548.974 383.374C548.974 382.246 548.77 381.4 548.362 380.836C547.942 380.272 547.402 379.99 546.742 379.99C546.238 379.99 545.836 380.146 545.536 380.458C545.236 380.758 545.008 381.13 544.852 381.574C544.684 382.018 544.504 382.636 544.312 383.428C544.072 384.376 543.844 385.132 543.628 385.696C543.4 386.26 543.058 386.746 542.602 387.154C542.146 387.55 541.528 387.748 540.748 387.748C540.112 387.748 539.536 387.58 539.02 387.244C538.492 386.908 538.072 386.392 537.76 385.696C537.448 385 537.292 384.136 537.292 383.104C537.292 382.384 537.394 381.682 537.598 380.998C537.79 380.302 538.06 379.702 538.408 379.198L539.47 379.648C539.122 380.176 538.864 380.74 538.696 381.34C538.516 381.94 538.426 382.528 538.426 383.104C538.426 384.208 538.642 385.042 539.074 385.606C539.494 386.158 540.04 386.434 540.712 386.434C541.216 386.434 541.624 386.284 541.936 385.984C542.236 385.672 542.47 385.288 542.638 384.832C542.794 384.364 542.968 383.74 543.16 382.96C543.388 382.036 543.616 381.292 543.844 380.728C544.06 380.152 544.396 379.666 544.852 379.27C545.296 378.874 545.902 378.676 546.67 378.676C547.306 378.676 547.888 378.85 548.416 379.198C548.932 379.534 549.346 380.056 549.658 380.764C549.958 381.472 550.108 382.342 550.108 383.374ZM546.634 367.872L546.634 374.892L550 376.404L550 377.79L537.4 372.03L537.4 370.716L550 364.956L550 366.36L546.634 367.872ZM545.554 368.358L538.786 371.382L545.554 374.406L545.554 368.358ZM536.266 370.14C536.266 370.416 536.206 370.662 536.086 370.878C535.954 371.094 535.774 371.328 535.546 371.58C535.366 371.796 535.24 371.97 535.168 372.102C535.084 372.222 535.042 372.354 535.042 372.498C535.042 372.774 535.144 372.996 535.348 373.164C535.552 373.332 535.834 373.422 536.194 373.434L536.194 374.208C535.594 374.184 535.114 374.028 534.754 373.74C534.394 373.452 534.214 373.068 534.214 372.588C534.214 372.312 534.274 372.072 534.394 371.868C534.514 371.652 534.694 371.406 534.934 371.13C535.102 370.938 535.228 370.776 535.312 370.644C535.396 370.512 535.438 370.374 535.438 370.23C535.438 369.966 535.342 369.75 535.15 369.582C534.946 369.414 534.67 369.318 534.322 369.294L534.322 368.52C534.91 368.544 535.384 368.7 535.744 368.988C536.092 369.276 536.266 369.66 536.266 370.14ZM550.108 357.54C550.108 358.788 549.832 359.922 549.28 360.942C548.716 361.95 547.948 362.742 546.976 363.318C546.004 363.882 544.912 364.164 543.7 364.164C542.488 364.164 541.396 363.882 540.424 363.318C539.452 362.742 538.69 361.95 538.138 360.942C537.574 359.922 537.292 358.788 537.292 357.54C537.292 356.292 537.568 355.17 538.12 354.174C538.672 353.166 539.44 352.374 540.424 351.798C541.396 351.222 542.488 350.934 543.7 350.934C544.912 350.934 546.01 351.222 546.994 351.798C547.966 352.374 548.728 353.166 549.28 354.174C549.832 355.17 550.108 356.292 550.108 357.54ZM548.92 357.54C548.92 356.544 548.698 355.644 548.254 354.84C547.798 354.036 547.174 353.406 546.382 352.95C545.578 352.494 544.684 352.266 543.7 352.266C542.716 352.266 541.828 352.494 541.036 352.95C540.232 353.406 539.608 354.036 539.164 354.84C538.708 355.644 538.48 356.544 538.48 357.54C538.48 358.536 538.708 359.442 539.164 360.258C539.608 361.062 540.232 361.698 541.036 362.166C541.828 362.622 542.716 362.85 543.7 362.85C544.684 362.85 545.578 362.622 546.382 362.166C547.174 361.698 547.798 361.062 548.254 360.258C548.698 359.442 548.92 358.536 548.92 357.54Z" fill="white"/>
<path d="M26.5839 31.61C29.6239 31.61 31.8339 32.16 33.2139 33.26C34.6139 34.34 35.3139 35.86 35.3139 37.82C35.3139 39.04 35.0239 40.13 34.4439 41.09C33.8839 42.05 33.0339 42.81 31.8939 43.37C30.7539 43.91 29.3539 44.18 27.6939 44.18C26.1939 44.18 24.7639 43.94 23.4039 43.46C22.0639 42.96 20.9839 42.3 20.1639 41.48L21.2139 39.77C21.9139 40.49 22.8339 41.08 23.9739 41.54C25.1139 41.98 26.3439 42.2 27.6639 42.2C29.4039 42.2 30.7439 41.81 31.6839 41.03C32.6439 40.25 33.1239 39.21 33.1239 37.91C33.1239 36.47 32.5839 35.38 31.5039 34.64C30.4439 33.9 28.6439 33.53 26.1039 33.53H21.6339L22.7139 23H34.2039V24.92H24.6039L23.8839 31.61H26.5839Z" fill="white"/>
<path d="M37.493 98.48H33.293V104H31.133V98.48H19.283V96.92L30.413 83H32.813L22.073 96.56H31.193V91.7H33.293V96.56H37.493V98.48Z" fill="white"/>
<path d="M28.2332 154C30.4332 154.12 32.1032 154.72 33.2432 155.8C34.4032 156.86 34.9832 158.25 34.9832 159.97C34.9832 161.17 34.6932 162.24 34.1132 163.18C33.5332 164.1 32.6732 164.83 31.5332 165.37C30.3932 165.91 29.0032 166.18 27.3632 166.18C25.8432 166.18 24.4032 165.94 23.0432 165.46C21.7032 164.96 20.6232 164.3 19.8032 163.48L20.8532 161.77C21.5532 162.49 22.4832 163.08 23.6432 163.54C24.8032 163.98 26.0432 164.2 27.3632 164.2C29.0832 164.2 30.4132 163.83 31.3532 163.09C32.2932 162.33 32.7632 161.29 32.7632 159.97C32.7632 158.67 32.2932 157.65 31.3532 156.91C30.4132 156.17 28.9932 155.8 27.0932 155.8H25.5932V154.21L31.4132 146.92H20.6732V145H34.1732V146.53L28.2332 154Z" fill="white"/>
<path d="M35.3746 222.08V224H20.6446V222.47L29.3746 213.92C30.4746 212.84 31.2146 211.91 31.5946 211.13C31.9946 210.33 32.1946 209.53 32.1946 208.73C32.1946 207.49 31.7646 206.53 30.9046 205.85C30.0646 205.15 28.8546 204.8 27.2746 204.8C24.8146 204.8 22.9046 205.58 21.5446 207.14L20.0146 205.82C20.8346 204.86 21.8746 204.12 23.1346 203.6C24.4146 203.08 25.8546 202.82 27.4546 202.82C29.5946 202.82 31.2846 203.33 32.5246 204.35C33.7846 205.35 34.4146 206.73 34.4146 208.49C34.4146 209.57 34.1746 210.61 33.6946 211.61C33.2146 212.61 32.3046 213.76 30.9646 215.06L23.8246 222.08H35.3746Z" fill="white"/>
<path d="M29.9601 263V284H27.8001V264.92H22.8501V263H29.9601Z" fill="white"/>
<path d="M144 212L228 331L312 270H390L476 152L549 32" stroke="white" stroke-width="10"/>
<path d="M151 332L238 213L314 150L386 91L477 272L547 213" stroke="white" stroke-opacity="0.6" stroke-width="5"/>
<path d="M152 333H227L317 211L387 271L476 211L543 333" stroke="white" stroke-opacity="0.5" stroke-width="5" stroke-dasharray="5 5"/>
</svg>
