<svg width="4176" height="1520" viewBox="0 0 4176 1520" fill="none" xmlns="http://www.w3.org/2000/svg">
<g clip-path="url(#clip0)">
<rect width="4176" height="1520" fill="#B97F94"/>
<rect x="633.932" y="204.76" width="864" height="128" transform="rotate(-17.0596 633.932 204.76)" fill="#C4C4C4"/>
<rect x="1677.88" y="-115.596" width="386" height="128" transform="rotate(-17.0596 1677.88 -115.596)" fill="#C4C4C4"/>
<rect x="699.646" y="418.902" width="569" height="128" transform="rotate(-17.0596 699.646 418.902)" fill="#C4C4C4"/>
<rect x="765.361" y="633.047" width="1285" height="128" transform="rotate(-17.0596 765.361 633.047)" fill="#C4C4C4"/>
<rect x="868.625" y="969.559" width="569" height="128" transform="rotate(-17.0596 868.625 969.559)" fill="#403232"/>
<rect x="1553.12" y="759.51" width="569" height="128" transform="rotate(-17.0596 1553.12 759.51)" fill="#403232"/>
<rect x="2167.81" y="202.68" width="375" height="128" transform="rotate(-17.0596 2167.81 202.68)" fill="#C4C4C4"/>
<rect x="1373.63" y="212.08" width="387" height="128" transform="rotate(-17.0596 1373.63 212.08)" fill="#C4C4C4"/>
<rect x="1928.11" y="41.9277" width="830" height="128" transform="rotate(-17.0596 1928.11 41.9277)" fill="#C4C4C4"/>
<rect x="971.891" y="1306.07" width="569" height="128" transform="rotate(-17.0596 971.891 1306.07)" fill="#C4C4C4"/>
<rect x="1645.87" y="1099.25" width="387" height="128" transform="rotate(-17.0596 1645.87 1099.25)" fill="#C4C4C4"/>
<rect x="1037.6" y="1520.21" width="864" height="128" transform="rotate(-17.0596 1037.6 1520.21)" fill="#C4C4C4"/>
<rect x="1994.56" y="1226.56" width="386" height="128" transform="rotate(-17.0596 1994.56 1226.56)" fill="#C4C4C4"/>
<rect x="2196.53" y="930.27" width="557" height="128" transform="rotate(-17.0596 2196.53 930.27)" fill="#C4C4C4"/>
</g>
<defs>
<clipPath id="clip0">
<rect width="4176" height="1520" fill="white"/>
</clipPath>
</defs>
</svg>
