<svg width="559" height="431" viewBox="0 0 559 431" fill="none" xmlns="http://www.w3.org/2000/svg">
<rect y="42" width="388" height="388" fill="black" fill-opacity="0.05"/>
<rect x="0.5" y="42.5" width="387" height="387" stroke="black" stroke-opacity="0.3"/>
<rect x="171" width="388" height="388" fill="black" fill-opacity="0.05"/>
<rect x="171.5" y="0.5" width="387" height="387" stroke="black" stroke-opacity="0.3"/>
<path d="M23.9453 413.211C23.8568 414.435 23.4036 415.398 22.5859 416.102C21.7734 416.805 20.7005 417.156 19.3672 417.156C17.9089 417.156 16.7604 416.667 15.9219 415.688C15.0885 414.703 14.6719 413.354 14.6719 411.641V410.945C14.6719 409.852 14.8646 408.888 15.25 408.055C15.6354 407.221 16.1849 406.583 16.8984 406.141C17.6172 405.693 18.4505 405.469 19.3984 405.469C20.7109 405.469 21.7682 405.82 22.5703 406.523C23.3724 407.227 23.8359 408.214 23.9609 409.484H21.6172C21.5599 408.75 21.3542 408.219 21 407.891C20.651 407.557 20.1172 407.391 19.3984 407.391C18.6172 407.391 18.0312 407.672 17.6406 408.234C17.2552 408.792 17.0573 409.659 17.0469 410.836V411.695C17.0469 412.924 17.2318 413.823 17.6016 414.391C17.9766 414.958 18.5651 415.242 19.3672 415.242C20.0911 415.242 20.6302 415.078 20.9844 414.75C21.3438 414.417 21.5495 413.904 21.6016 413.211H23.9453ZM27.9766 417H25.6328V405.625H27.9766V417ZM37 412.07H32.5V415.117H37.7812V417H30.1562V405.625H37.7656V407.523H32.5V410.234H37V412.07ZM37.1016 404.742V404.836H35.3047L34.1016 403.703L32.8984 404.836H31.1328V404.711L33.4453 402.555H34.7578L37.1016 404.742ZM48.4062 417H46.0625L41.5 409.516V417H39.1562V405.625H41.5L46.0703 413.125V405.625H48.4062V417ZM59.3828 413.211C59.2943 414.435 58.8411 415.398 58.0234 416.102C57.2109 416.805 56.138 417.156 54.8047 417.156C53.3464 417.156 52.1979 416.667 51.3594 415.688C50.526 414.703 50.1094 413.354 50.1094 411.641V410.945C50.1094 409.852 50.3021 408.888 50.6875 408.055C51.0729 407.221 51.6224 406.583 52.3359 406.141C53.0547 405.693 53.888 405.469 54.8359 405.469C56.1484 405.469 57.2057 405.82 58.0078 406.523C58.8099 407.227 59.2734 408.214 59.3984 409.484H57.0547C56.9974 408.75 56.7917 408.219 56.4375 407.891C56.0885 407.557 55.5547 407.391 54.8359 407.391C54.0547 407.391 53.4688 407.672 53.0781 408.234C52.6927 408.792 52.4948 409.659 52.4844 410.836V411.695C52.4844 412.924 52.6693 413.823 53.0391 414.391C53.4141 414.958 54.0026 415.242 54.8047 415.242C55.5286 415.242 56.0677 415.078 56.4219 414.75C56.7812 414.417 56.987 413.904 57.0391 413.211H59.3828ZM63.4141 417H61.0703V405.625H63.4141V417ZM72.1562 414.656H68.0469L67.2656 417H64.7734L69.0078 405.625H71.1797L75.4375 417H72.9453L72.1562 414.656ZM68.6797 412.758H71.5234L70.0938 408.5L68.6797 412.758ZM80.4844 417V405.625H83.9844C84.9844 405.625 85.8776 405.852 86.6641 406.305C87.4557 406.753 88.0729 407.393 88.5156 408.227C88.9583 409.055 89.1797 409.997 89.1797 411.055V411.578C89.1797 412.635 88.9609 413.576 88.5234 414.398C88.0911 415.221 87.4792 415.859 86.6875 416.312C85.8958 416.766 85.0026 416.995 84.0078 417H80.4844ZM82.8281 407.523V415.117H83.9609C84.8776 415.117 85.5781 414.818 86.0625 414.219C86.5469 413.62 86.7943 412.763 86.8047 411.648V411.047C86.8047 409.891 86.5651 409.016 86.0859 408.422C85.6068 407.823 84.9062 407.523 83.9844 407.523H82.8281ZM97.7344 412.07H93.2344V415.117H98.5156V417H90.8906V405.625H98.5V407.523H93.2344V410.234H97.7344V412.07ZM103.875 417V405.625H107.375C108.375 405.625 109.268 405.852 110.055 406.305C110.846 406.753 111.464 407.393 111.906 408.227C112.349 409.055 112.57 409.997 112.57 411.055V411.578C112.57 412.635 112.352 413.576 111.914 414.398C111.482 415.221 110.87 415.859 110.078 416.312C109.286 416.766 108.393 416.995 107.398 417H103.875ZM106.219 407.523V415.117H107.352C108.268 415.117 108.969 414.818 109.453 414.219C109.938 413.62 110.185 412.763 110.195 411.648V411.047C110.195 409.891 109.956 409.016 109.477 408.422C108.997 407.823 108.297 407.523 107.375 407.523H106.219ZM120.531 414.656H116.422L115.641 417H113.148L117.383 405.625H119.555L123.812 417H121.32L120.531 414.656ZM117.055 412.758H119.898L118.469 408.5L117.055 412.758ZM124.875 417V405.625H128.375C129.375 405.625 130.268 405.852 131.055 406.305C131.846 406.753 132.464 407.393 132.906 408.227C133.349 409.055 133.57 409.997 133.57 411.055V411.578C133.57 412.635 133.352 413.576 132.914 414.398C132.482 415.221 131.87 415.859 131.078 416.312C130.286 416.766 129.393 416.995 128.398 417H124.875ZM127.219 407.523V415.117H128.352C129.268 415.117 129.969 414.818 130.453 414.219C130.938 413.62 131.185 412.763 131.195 411.648V411.047C131.195 409.891 130.956 409.016 130.477 408.422C129.997 407.823 129.297 407.523 128.375 407.523H127.219ZM144.625 411.57C144.625 412.69 144.427 413.672 144.031 414.516C143.635 415.359 143.068 416.01 142.328 416.469C141.594 416.927 140.75 417.156 139.797 417.156C138.854 417.156 138.013 416.93 137.273 416.477C136.534 416.023 135.961 415.378 135.555 414.539C135.148 413.695 134.943 412.727 134.938 411.633V411.07C134.938 409.951 135.138 408.966 135.539 408.117C135.945 407.263 136.516 406.609 137.25 406.156C137.99 405.698 138.833 405.469 139.781 405.469C140.729 405.469 141.57 405.698 142.305 406.156C143.044 406.609 143.615 407.263 144.016 408.117C144.422 408.966 144.625 409.948 144.625 411.062V411.57ZM142.25 411.055C142.25 409.862 142.036 408.956 141.609 408.336C141.182 407.716 140.573 407.406 139.781 407.406C138.995 407.406 138.388 407.714 137.961 408.328C137.534 408.938 137.318 409.833 137.312 411.016V411.57C137.312 412.732 137.526 413.633 137.953 414.273C138.38 414.914 138.995 415.234 139.797 415.234C140.583 415.234 141.188 414.927 141.609 414.312C142.031 413.693 142.245 412.792 142.25 411.609V411.055ZM152.227 414.016C152.227 413.573 152.07 413.234 151.758 413C151.445 412.76 150.883 412.51 150.07 412.25C149.258 411.984 148.615 411.724 148.141 411.469C146.849 410.771 146.203 409.831 146.203 408.648C146.203 408.034 146.375 407.487 146.719 407.008C147.068 406.523 147.565 406.146 148.211 405.875C148.862 405.604 149.591 405.469 150.398 405.469C151.211 405.469 151.935 405.617 152.57 405.914C153.206 406.206 153.698 406.62 154.047 407.156C154.401 407.693 154.578 408.302 154.578 408.984H152.234C152.234 408.464 152.07 408.06 151.742 407.773C151.414 407.482 150.953 407.336 150.359 407.336C149.786 407.336 149.341 407.458 149.023 407.703C148.706 407.943 148.547 408.26 148.547 408.656C148.547 409.026 148.732 409.336 149.102 409.586C149.477 409.836 150.026 410.07 150.75 410.289C152.083 410.69 153.055 411.188 153.664 411.781C154.273 412.375 154.578 413.115 154.578 414C154.578 414.984 154.206 415.758 153.461 416.32C152.716 416.878 151.714 417.156 150.453 417.156C149.578 417.156 148.781 416.997 148.062 416.68C147.344 416.357 146.794 415.917 146.414 415.359C146.039 414.802 145.852 414.156 145.852 413.422H148.203C148.203 414.677 148.953 415.305 150.453 415.305C151.01 415.305 151.445 415.193 151.758 414.969C152.07 414.74 152.227 414.422 152.227 414.016Z" fill="black"/>
<path d="M359.656 28V16.625H363.156C364.156 16.625 365.049 16.8516 365.836 17.3047C366.628 17.7526 367.245 18.3932 367.688 19.2266C368.13 20.0547 368.352 20.9974 368.352 22.0547V22.5781C368.352 23.6354 368.133 24.5755 367.695 25.3984C367.263 26.2214 366.651 26.8594 365.859 27.3125C365.068 27.7656 364.174 27.9948 363.18 28H359.656ZM362 18.5234V26.1172H363.133C364.049 26.1172 364.75 25.8177 365.234 25.2188C365.719 24.6198 365.966 23.763 365.977 22.6484V22.0469C365.977 20.8906 365.737 20.0156 365.258 19.4219C364.779 18.8229 364.078 18.5234 363.156 18.5234H362ZM376.906 23.0703H372.406V26.1172H377.688V28H370.062V16.625H377.672V18.5234H372.406V21.2344H376.906V23.0703ZM384.961 25.0156C384.961 24.5729 384.805 24.2344 384.492 24C384.18 23.7604 383.617 23.5104 382.805 23.25C381.992 22.9844 381.349 22.724 380.875 22.4688C379.583 21.7708 378.938 20.8307 378.938 19.6484C378.938 19.0339 379.109 18.487 379.453 18.0078C379.802 17.5234 380.299 17.1458 380.945 16.875C381.596 16.6042 382.326 16.4688 383.133 16.4688C383.945 16.4688 384.669 16.6172 385.305 16.9141C385.94 17.2057 386.432 17.6198 386.781 18.1562C387.135 18.6927 387.312 19.3021 387.312 19.9844H384.969C384.969 19.4635 384.805 19.0599 384.477 18.7734C384.148 18.4818 383.688 18.3359 383.094 18.3359C382.521 18.3359 382.076 18.4583 381.758 18.7031C381.44 18.9427 381.281 19.2604 381.281 19.6562C381.281 20.026 381.466 20.3359 381.836 20.5859C382.211 20.8359 382.76 21.0703 383.484 21.2891C384.818 21.6901 385.789 22.1875 386.398 22.7812C387.008 23.375 387.312 24.1146 387.312 25C387.312 25.9844 386.94 26.7578 386.195 27.3203C385.451 27.8776 384.448 28.1562 383.188 28.1562C382.312 28.1562 381.516 27.9974 380.797 27.6797C380.078 27.3568 379.529 26.9167 379.148 26.3594C378.773 25.8021 378.586 25.1562 378.586 24.4219H380.938C380.938 25.6771 381.688 26.3047 383.188 26.3047C383.745 26.3047 384.18 26.1927 384.492 25.9688C384.805 25.7396 384.961 25.4219 384.961 25.0156ZM391.398 28H389.055V16.625H391.398V28ZM402.578 26.5625C402.156 27.0677 401.56 27.4609 400.789 27.7422C400.018 28.0182 399.164 28.1562 398.227 28.1562C397.242 28.1562 396.378 27.9427 395.633 27.5156C394.893 27.0833 394.32 26.4583 393.914 25.6406C393.513 24.8229 393.307 23.862 393.297 22.7578V21.9844C393.297 20.849 393.487 19.8672 393.867 19.0391C394.253 18.2057 394.805 17.5703 395.523 17.1328C396.247 16.6901 397.094 16.4688 398.062 16.4688C399.411 16.4688 400.466 16.7917 401.227 17.4375C401.987 18.0781 402.438 19.013 402.578 20.2422H400.297C400.193 19.5911 399.961 19.1146 399.602 18.8125C399.247 18.5104 398.758 18.3594 398.133 18.3594C397.336 18.3594 396.729 18.6589 396.312 19.2578C395.896 19.8568 395.685 20.7474 395.68 21.9297V22.6562C395.68 23.849 395.906 24.75 396.359 25.3594C396.812 25.9688 397.477 26.2734 398.352 26.2734C399.232 26.2734 399.859 26.0859 400.234 25.7109V23.75H398.102V22.0234H402.578V26.5625ZM413.734 28H411.391L406.828 20.5156V28H404.484V16.625H406.828L411.398 24.125V16.625H413.734V28ZM419.766 28V16.625H423.266C424.266 16.625 425.159 16.8516 425.945 17.3047C426.737 17.7526 427.354 18.3932 427.797 19.2266C428.24 20.0547 428.461 20.9974 428.461 22.0547V22.5781C428.461 23.6354 428.242 24.5755 427.805 25.3984C427.372 26.2214 426.76 26.8594 425.969 27.3125C425.177 27.7656 424.284 27.9948 423.289 28H419.766ZM422.109 18.5234V26.1172H423.242C424.159 26.1172 424.859 25.8177 425.344 25.2188C425.828 24.6198 426.076 23.763 426.086 22.6484V22.0469C426.086 20.8906 425.846 20.0156 425.367 19.4219C424.888 18.8229 424.188 18.5234 423.266 18.5234H422.109ZM437.016 23.0703H432.516V26.1172H437.797V28H430.172V16.625H437.781V18.5234H432.516V21.2344H437.016V23.0703ZM445.648 28H443.305V16.625H445.648V28ZM457.078 28H454.734L450.172 20.5156V28H447.828V16.625H450.172L454.742 24.125V16.625H457.078V28ZM465.969 23.3516H461.469V28H459.125V16.625H466.531V18.5234H461.469V21.4609H465.969V23.3516ZM477.234 22.5703C477.234 23.6901 477.036 24.6719 476.641 25.5156C476.245 26.3594 475.677 27.0104 474.938 27.4688C474.203 27.9271 473.359 28.1562 472.406 28.1562C471.464 28.1562 470.622 27.9297 469.883 27.4766C469.143 27.0234 468.57 26.3776 468.164 25.5391C467.758 24.6953 467.552 23.7266 467.547 22.6328V22.0703C467.547 20.9505 467.747 19.9661 468.148 19.1172C468.555 18.263 469.125 17.6094 469.859 17.1562C470.599 16.6979 471.443 16.4688 472.391 16.4688C473.339 16.4688 474.18 16.6979 474.914 17.1562C475.654 17.6094 476.224 18.263 476.625 19.1172C477.031 19.9661 477.234 20.9479 477.234 22.0625V22.5703ZM474.859 22.0547C474.859 20.862 474.646 19.9557 474.219 19.3359C473.792 18.7161 473.182 18.4062 472.391 18.4062C471.604 18.4062 470.997 18.7135 470.57 19.3281C470.143 19.9375 469.927 20.8333 469.922 22.0156V22.5703C469.922 23.7318 470.135 24.6328 470.562 25.2734C470.99 25.9141 471.604 26.2344 472.406 26.2344C473.193 26.2344 473.797 25.9271 474.219 25.3125C474.641 24.6927 474.854 23.7917 474.859 22.6094V22.0547ZM483.148 23.8359H481.281V28H478.938V16.625H483.164C484.508 16.625 485.544 16.9245 486.273 17.5234C487.003 18.1224 487.367 18.9688 487.367 20.0625C487.367 20.8385 487.198 21.487 486.859 22.0078C486.526 22.5234 486.018 22.9349 485.336 23.2422L487.797 27.8906V28H485.281L483.148 23.8359ZM481.281 21.9375H483.172C483.76 21.9375 484.216 21.7891 484.539 21.4922C484.862 21.1901 485.023 20.776 485.023 20.25C485.023 19.7135 484.87 19.2917 484.562 18.9844C484.26 18.6771 483.794 18.5234 483.164 18.5234H481.281V21.9375ZM492.219 16.625L495.141 24.875L498.047 16.625H501.125V28H498.773V24.8906L499.008 19.5234L495.938 28H494.328L491.266 19.5312L491.5 24.8906V28H489.156V16.625H492.219ZM509.734 25.6562H505.625L504.844 28H502.352L506.586 16.625H508.758L513.016 28H510.523L509.734 25.6562ZM506.258 23.7578H509.102L507.672 19.5L506.258 23.7578ZM522.836 24.2109C522.747 25.4349 522.294 26.3984 521.477 27.1016C520.664 27.8047 519.591 28.1562 518.258 28.1562C516.799 28.1562 515.651 27.6667 514.812 26.6875C513.979 25.7031 513.562 24.3542 513.562 22.6406V21.9453C513.562 20.8516 513.755 19.888 514.141 19.0547C514.526 18.2214 515.076 17.5833 515.789 17.1406C516.508 16.6927 517.341 16.4688 518.289 16.4688C519.602 16.4688 520.659 16.8203 521.461 17.5234C522.263 18.2266 522.727 19.2135 522.852 20.4844H520.508C520.451 19.75 520.245 19.2188 519.891 18.8906C519.542 18.5573 519.008 18.3906 518.289 18.3906C517.508 18.3906 516.922 18.6719 516.531 19.2344C516.146 19.7917 515.948 20.6589 515.938 21.8359V22.6953C515.938 23.9245 516.122 24.8229 516.492 25.3906C516.867 25.9583 517.456 26.2422 518.258 26.2422C518.982 26.2422 519.521 26.0781 519.875 25.75C520.234 25.4167 520.44 24.9036 520.492 24.2109H522.836ZM519.117 27.9531L519.031 28.4062C519.812 28.5469 520.203 28.9974 520.203 29.7578C520.203 30.3307 519.964 30.7839 519.484 31.1172C519.01 31.4505 518.341 31.6172 517.477 31.6172L517.422 30.3125C518.005 30.3125 518.297 30.1016 518.297 29.6797C518.297 29.4609 518.208 29.3099 518.031 29.2266C517.859 29.1484 517.578 29.0964 517.188 29.0703L517.43 27.9531H519.117ZM530.797 25.6562H526.688L525.906 28H523.414L527.648 16.625H529.82L534.078 28H531.586L530.797 25.6562ZM527.32 23.7578H530.164L528.734 19.5L527.32 23.7578ZM531.703 13.6875C531.703 14.276 531.531 14.7708 531.188 15.1719C530.844 15.5677 530.424 15.7656 529.93 15.7656C529.732 15.7656 529.555 15.7448 529.398 15.7031C529.247 15.6562 529.036 15.5599 528.766 15.4141C528.495 15.2682 528.299 15.1797 528.18 15.1484C528.06 15.112 527.93 15.0938 527.789 15.0938C527.607 15.0938 527.451 15.1589 527.32 15.2891C527.195 15.4193 527.133 15.6042 527.133 15.8438L525.82 15.7656C525.82 15.1875 525.99 14.6953 526.328 14.2891C526.672 13.8828 527.091 13.6797 527.586 13.6797C527.742 13.6797 527.888 13.7005 528.023 13.7422C528.164 13.7786 528.391 13.8724 528.703 14.0234C529.016 14.1745 529.232 14.2656 529.352 14.2969C529.471 14.3281 529.596 14.3438 529.727 14.3438C529.909 14.3438 530.065 14.2812 530.195 14.1562C530.331 14.026 530.398 13.8411 530.398 13.6016L531.703 13.6875ZM544.312 22.5703C544.312 23.6901 544.115 24.6719 543.719 25.5156C543.323 26.3594 542.755 27.0104 542.016 27.4688C541.281 27.9271 540.438 28.1562 539.484 28.1562C538.542 28.1562 537.701 27.9297 536.961 27.4766C536.221 27.0234 535.648 26.3776 535.242 25.5391C534.836 24.6953 534.63 23.7266 534.625 22.6328V22.0703C534.625 20.9505 534.826 19.9661 535.227 19.1172C535.633 18.263 536.203 17.6094 536.938 17.1562C537.677 16.6979 538.521 16.4688 539.469 16.4688C540.417 16.4688 541.258 16.6979 541.992 17.1562C542.732 17.6094 543.302 18.263 543.703 19.1172C544.109 19.9661 544.312 20.9479 544.312 22.0625V22.5703ZM541.938 22.0547C541.938 20.862 541.724 19.9557 541.297 19.3359C540.87 18.7161 540.26 18.4062 539.469 18.4062C538.682 18.4062 538.076 18.7135 537.648 19.3281C537.221 19.9375 537.005 20.8333 537 22.0156V22.5703C537 23.7318 537.214 24.6328 537.641 25.2734C538.068 25.9141 538.682 26.2344 539.484 26.2344C540.271 26.2344 540.875 25.9271 541.297 25.3125C541.719 24.6927 541.932 23.7917 541.938 22.6094V22.0547Z" fill="black"/>
<path d="M218.25 241.18L220.828 232.625H223.438L219.477 244H217.031L213.086 232.625H215.688L218.25 241.18ZM227.008 244H224.664V232.625H227.008V244ZM235.086 241.016C235.086 240.573 234.93 240.234 234.617 240C234.305 239.76 233.742 239.51 232.93 239.25C232.117 238.984 231.474 238.724 231 238.469C229.708 237.771 229.062 236.831 229.062 235.648C229.062 235.034 229.234 234.487 229.578 234.008C229.927 233.523 230.424 233.146 231.07 232.875C231.721 232.604 232.451 232.469 233.258 232.469C234.07 232.469 234.794 232.617 235.43 232.914C236.065 233.206 236.557 233.62 236.906 234.156C237.26 234.693 237.438 235.302 237.438 235.984H235.094C235.094 235.464 234.93 235.06 234.602 234.773C234.273 234.482 233.812 234.336 233.219 234.336C232.646 234.336 232.201 234.458 231.883 234.703C231.565 234.943 231.406 235.26 231.406 235.656C231.406 236.026 231.591 236.336 231.961 236.586C232.336 236.836 232.885 237.07 233.609 237.289C234.943 237.69 235.914 238.188 236.523 238.781C237.133 239.375 237.438 240.115 237.438 241C237.438 241.984 237.065 242.758 236.32 243.32C235.576 243.878 234.573 244.156 233.312 244.156C232.438 244.156 231.641 243.997 230.922 243.68C230.203 243.357 229.654 242.917 229.273 242.359C228.898 241.802 228.711 241.156 228.711 240.422H231.062C231.062 241.677 231.812 242.305 233.312 242.305C233.87 242.305 234.305 242.193 234.617 241.969C234.93 241.74 235.086 241.422 235.086 241.016ZM247.641 232.625V240.117C247.641 241.362 247.25 242.346 246.469 243.07C245.693 243.794 244.63 244.156 243.281 244.156C241.953 244.156 240.898 243.805 240.117 243.102C239.336 242.398 238.938 241.432 238.922 240.203V232.625H241.266V240.133C241.266 240.878 241.443 241.422 241.797 241.766C242.156 242.104 242.651 242.273 243.281 242.273C244.599 242.273 245.268 241.581 245.289 240.195V232.625H247.641ZM255.812 241.656H251.703L250.922 244H248.43L252.664 232.625H254.836L259.094 244H256.602L255.812 241.656ZM252.336 239.758H255.18L253.75 235.5L252.336 239.758ZM262.5 242.117H267.477V244H260.156V232.625H262.5V242.117ZM271.32 244H268.977V232.625H271.32V244ZM275.984 242.117H281.719V244H273.055V242.625L278.68 234.523H273.062V232.625H281.594V233.969L275.984 242.117ZM289.734 241.656H285.625L284.844 244H282.352L286.586 232.625H288.758L293.016 244H290.523L289.734 241.656ZM286.258 239.758H289.102L287.672 235.5L286.258 239.758ZM302.836 240.211C302.747 241.435 302.294 242.398 301.477 243.102C300.664 243.805 299.591 244.156 298.258 244.156C296.799 244.156 295.651 243.667 294.812 242.688C293.979 241.703 293.562 240.354 293.562 238.641V237.945C293.562 236.852 293.755 235.888 294.141 235.055C294.526 234.221 295.076 233.583 295.789 233.141C296.508 232.693 297.341 232.469 298.289 232.469C299.602 232.469 300.659 232.82 301.461 233.523C302.263 234.227 302.727 235.214 302.852 236.484H300.508C300.451 235.75 300.245 235.219 299.891 234.891C299.542 234.557 299.008 234.391 298.289 234.391C297.508 234.391 296.922 234.672 296.531 235.234C296.146 235.792 295.948 236.659 295.938 237.836V238.695C295.938 239.924 296.122 240.823 296.492 241.391C296.867 241.958 297.456 242.242 298.258 242.242C298.982 242.242 299.521 242.078 299.875 241.75C300.234 241.417 300.44 240.904 300.492 240.211H302.836ZM299.117 243.953L299.031 244.406C299.812 244.547 300.203 244.997 300.203 245.758C300.203 246.331 299.964 246.784 299.484 247.117C299.01 247.451 298.341 247.617 297.477 247.617L297.422 246.312C298.005 246.312 298.297 246.102 298.297 245.68C298.297 245.461 298.208 245.31 298.031 245.227C297.859 245.148 297.578 245.096 297.188 245.07L297.43 243.953H299.117ZM310.797 241.656H306.688L305.906 244H303.414L307.648 232.625H309.82L314.078 244H311.586L310.797 241.656ZM307.32 239.758H310.164L308.734 235.5L307.32 239.758ZM311.703 229.688C311.703 230.276 311.531 230.771 311.188 231.172C310.844 231.568 310.424 231.766 309.93 231.766C309.732 231.766 309.555 231.745 309.398 231.703C309.247 231.656 309.036 231.56 308.766 231.414C308.495 231.268 308.299 231.18 308.18 231.148C308.06 231.112 307.93 231.094 307.789 231.094C307.607 231.094 307.451 231.159 307.32 231.289C307.195 231.419 307.133 231.604 307.133 231.844L305.82 231.766C305.82 231.188 305.99 230.695 306.328 230.289C306.672 229.883 307.091 229.68 307.586 229.68C307.742 229.68 307.888 229.701 308.023 229.742C308.164 229.779 308.391 229.872 308.703 230.023C309.016 230.174 309.232 230.266 309.352 230.297C309.471 230.328 309.596 230.344 309.727 230.344C309.909 230.344 310.065 230.281 310.195 230.156C310.331 230.026 310.398 229.841 310.398 229.602L311.703 229.688ZM324.312 238.57C324.312 239.69 324.115 240.672 323.719 241.516C323.323 242.359 322.755 243.01 322.016 243.469C321.281 243.927 320.438 244.156 319.484 244.156C318.542 244.156 317.701 243.93 316.961 243.477C316.221 243.023 315.648 242.378 315.242 241.539C314.836 240.695 314.63 239.727 314.625 238.633V238.07C314.625 236.951 314.826 235.966 315.227 235.117C315.633 234.263 316.203 233.609 316.938 233.156C317.677 232.698 318.521 232.469 319.469 232.469C320.417 232.469 321.258 232.698 321.992 233.156C322.732 233.609 323.302 234.263 323.703 235.117C324.109 235.966 324.312 236.948 324.312 238.062V238.57ZM321.938 238.055C321.938 236.862 321.724 235.956 321.297 235.336C320.87 234.716 320.26 234.406 319.469 234.406C318.682 234.406 318.076 234.714 317.648 235.328C317.221 235.938 317.005 236.833 317 238.016V238.57C317 239.732 317.214 240.633 317.641 241.273C318.068 241.914 318.682 242.234 319.484 242.234C320.271 242.234 320.875 241.927 321.297 241.312C321.719 240.693 321.932 239.792 321.938 238.609V238.055Z" fill="black"/>
<rect x="309" y="56" width="159" height="159" fill="black"/>
<path d="M335.344 82.5703C335.344 83.6328 335.172 84.5573 334.828 85.3438C334.484 86.125 334.008 86.7526 333.398 87.2266L335.289 88.7109L333.797 90.0312L331.375 88.0859C331.099 88.1328 330.812 88.1562 330.516 88.1562C329.573 88.1562 328.732 87.9297 327.992 87.4766C327.253 87.0234 326.68 86.3776 326.273 85.5391C325.867 84.6953 325.661 83.7266 325.656 82.6328V82.0703C325.656 80.9505 325.857 79.9661 326.258 79.1172C326.664 78.263 327.234 77.6094 327.969 77.1562C328.708 76.6979 329.552 76.4688 330.5 76.4688C331.448 76.4688 332.289 76.6979 333.023 77.1562C333.763 77.6094 334.333 78.263 334.734 79.1172C335.141 79.9661 335.344 80.9479 335.344 82.0625V82.5703ZM332.969 82.0547C332.969 80.862 332.755 79.9557 332.328 79.3359C331.901 78.7161 331.292 78.4062 330.5 78.4062C329.714 78.4062 329.107 78.7135 328.68 79.3281C328.253 79.9375 328.036 80.8333 328.031 82.0156V82.5703C328.031 83.7318 328.245 84.6328 328.672 85.2734C329.099 85.9141 329.714 86.2344 330.516 86.2344C331.302 86.2344 331.906 85.9271 332.328 85.3125C332.75 84.6927 332.964 83.7917 332.969 82.6094V82.0547ZM345.672 76.625V84.1172C345.672 85.362 345.281 86.3464 344.5 87.0703C343.724 87.7943 342.661 88.1562 341.312 88.1562C339.984 88.1562 338.93 87.8047 338.148 87.1016C337.367 86.3984 336.969 85.4323 336.953 84.2031V76.625H339.297V84.1328C339.297 84.8776 339.474 85.4219 339.828 85.7656C340.188 86.1042 340.682 86.2734 341.312 86.2734C342.63 86.2734 343.299 85.5807 343.32 84.1953V76.625H345.672ZM354.438 83.0703H349.938V86.1172H355.219V88H347.594V76.625H355.203V78.5234H349.938V81.2344H354.438V83.0703ZM362.492 85.0156C362.492 84.5729 362.336 84.2344 362.023 84C361.711 83.7604 361.148 83.5104 360.336 83.25C359.523 82.9844 358.88 82.724 358.406 82.4688C357.115 81.7708 356.469 80.8307 356.469 79.6484C356.469 79.0339 356.641 78.487 356.984 78.0078C357.333 77.5234 357.831 77.1458 358.477 76.875C359.128 76.6042 359.857 76.4688 360.664 76.4688C361.477 76.4688 362.201 76.6172 362.836 76.9141C363.471 77.2057 363.964 77.6198 364.312 78.1562C364.667 78.6927 364.844 79.3021 364.844 79.9844H362.5C362.5 79.4635 362.336 79.0599 362.008 78.7734C361.68 78.4818 361.219 78.3359 360.625 78.3359C360.052 78.3359 359.607 78.4583 359.289 78.7031C358.971 78.9427 358.812 79.2604 358.812 79.6562C358.812 80.026 358.997 80.3359 359.367 80.5859C359.742 80.8359 360.292 81.0703 361.016 81.2891C362.349 81.6901 363.32 82.1875 363.93 82.7812C364.539 83.375 364.844 84.1146 364.844 85C364.844 85.9844 364.471 86.7578 363.727 87.3203C362.982 87.8776 361.979 88.1562 360.719 88.1562C359.844 88.1562 359.047 87.9974 358.328 87.6797C357.609 87.3568 357.06 86.9167 356.68 86.3594C356.305 85.8021 356.117 85.1562 356.117 84.4219H358.469C358.469 85.6771 359.219 86.3047 360.719 86.3047C361.276 86.3047 361.711 86.1927 362.023 85.9688C362.336 85.7396 362.492 85.4219 362.492 85.0156ZM375 78.5234H371.516V88H369.172V78.5234H365.734V76.625H375V78.5234ZM385.469 82.5703C385.469 83.6901 385.271 84.6719 384.875 85.5156C384.479 86.3594 383.911 87.0104 383.172 87.4688C382.438 87.9271 381.594 88.1562 380.641 88.1562C379.698 88.1562 378.857 87.9297 378.117 87.4766C377.378 87.0234 376.805 86.3776 376.398 85.5391C375.992 84.6953 375.786 83.7266 375.781 82.6328V82.0703C375.781 80.9505 375.982 79.9661 376.383 79.1172C376.789 78.263 377.359 77.6094 378.094 77.1562C378.833 76.6979 379.677 76.4688 380.625 76.4688C381.573 76.4688 382.414 76.6979 383.148 77.1562C383.888 77.6094 384.458 78.263 384.859 79.1172C385.266 79.9661 385.469 80.9479 385.469 82.0625V82.5703ZM383.094 82.0547C383.094 80.862 382.88 79.9557 382.453 79.3359C382.026 78.7161 381.417 78.4062 380.625 78.4062C379.839 78.4062 379.232 78.7135 378.805 79.3281C378.378 79.9375 378.161 80.8333 378.156 82.0156V82.5703C378.156 83.7318 378.37 84.6328 378.797 85.2734C379.224 85.9141 379.839 86.2344 380.641 86.2344C381.427 86.2344 382.031 85.9271 382.453 85.3125C382.875 84.6927 383.089 83.7917 383.094 82.6094V82.0547ZM383.562 73.6875C383.562 74.276 383.391 74.7708 383.047 75.1719C382.703 75.5677 382.284 75.7656 381.789 75.7656C381.591 75.7656 381.414 75.7448 381.258 75.7031C381.107 75.6562 380.896 75.5599 380.625 75.4141C380.354 75.2682 380.159 75.1797 380.039 75.1484C379.919 75.112 379.789 75.0938 379.648 75.0938C379.466 75.0938 379.31 75.1589 379.18 75.2891C379.055 75.4193 378.992 75.6042 378.992 75.8438L377.68 75.7656C377.68 75.1875 377.849 74.6953 378.188 74.2891C378.531 73.8828 378.951 73.6797 379.445 73.6797C379.602 73.6797 379.747 73.7005 379.883 73.7422C380.023 73.7786 380.25 73.8724 380.562 74.0234C380.875 74.1745 381.091 74.2656 381.211 74.2969C381.331 74.3281 381.456 74.3438 381.586 74.3438C381.768 74.3438 381.924 74.2812 382.055 74.1562C382.19 74.026 382.258 73.8411 382.258 73.6016L383.562 73.6875ZM394.016 83.0703H389.516V86.1172H394.797V88H387.172V76.625H394.781V78.5234H389.516V81.2344H394.016V83.0703ZM402.07 85.0156C402.07 84.5729 401.914 84.2344 401.602 84C401.289 83.7604 400.727 83.5104 399.914 83.25C399.102 82.9844 398.458 82.724 397.984 82.4688C396.693 81.7708 396.047 80.8307 396.047 79.6484C396.047 79.0339 396.219 78.487 396.562 78.0078C396.911 77.5234 397.409 77.1458 398.055 76.875C398.706 76.6042 399.435 76.4688 400.242 76.4688C401.055 76.4688 401.779 76.6172 402.414 76.9141C403.049 77.2057 403.542 77.6198 403.891 78.1562C404.245 78.6927 404.422 79.3021 404.422 79.9844H402.078C402.078 79.4635 401.914 79.0599 401.586 78.7734C401.258 78.4818 400.797 78.3359 400.203 78.3359C399.63 78.3359 399.185 78.4583 398.867 78.7031C398.549 78.9427 398.391 79.2604 398.391 79.6562C398.391 80.026 398.576 80.3359 398.945 80.5859C399.32 80.8359 399.87 81.0703 400.594 81.2891C401.927 81.6901 402.898 82.1875 403.508 82.7812C404.117 83.375 404.422 84.1146 404.422 85C404.422 85.9844 404.049 86.7578 403.305 87.3203C402.56 87.8776 401.557 88.1562 400.297 88.1562C399.422 88.1562 398.625 87.9974 397.906 87.6797C397.188 87.3568 396.638 86.9167 396.258 86.3594C395.883 85.8021 395.695 85.1562 395.695 84.4219H398.047C398.047 85.6771 398.797 86.3047 400.297 86.3047C400.854 86.3047 401.289 86.1927 401.602 85.9688C401.914 85.7396 402.07 85.4219 402.07 85.0156ZM410 88V76.625H413.5C414.5 76.625 415.393 76.8516 416.18 77.3047C416.971 77.7526 417.589 78.3932 418.031 79.2266C418.474 80.0547 418.695 80.9974 418.695 82.0547V82.5781C418.695 83.6354 418.477 84.5755 418.039 85.3984C417.607 86.2214 416.995 86.8594 416.203 87.3125C415.411 87.7656 414.518 87.9948 413.523 88H410ZM412.344 78.5234V86.1172H413.477C414.393 86.1172 415.094 85.8177 415.578 85.2188C416.062 84.6198 416.31 83.763 416.32 82.6484V82.0469C416.32 80.8906 416.081 80.0156 415.602 79.4219C415.122 78.8229 414.422 78.5234 413.5 78.5234H412.344ZM427.25 83.0703H422.75V86.1172H428.031V88H420.406V76.625H428.016V78.5234H422.75V81.2344H427.25V83.0703ZM334.945 103.211C334.857 104.435 334.404 105.398 333.586 106.102C332.773 106.805 331.701 107.156 330.367 107.156C328.909 107.156 327.76 106.667 326.922 105.688C326.089 104.703 325.672 103.354 325.672 101.641V100.945C325.672 99.8516 325.865 98.888 326.25 98.0547C326.635 97.2214 327.185 96.5833 327.898 96.1406C328.617 95.6927 329.451 95.4688 330.398 95.4688C331.711 95.4688 332.768 95.8203 333.57 96.5234C334.372 97.2266 334.836 98.2135 334.961 99.4844H332.617C332.56 98.75 332.354 98.2188 332 97.8906C331.651 97.5573 331.117 97.3906 330.398 97.3906C329.617 97.3906 329.031 97.6719 328.641 98.2344C328.255 98.7917 328.057 99.6589 328.047 100.836V101.695C328.047 102.924 328.232 103.823 328.602 104.391C328.977 104.958 329.565 105.242 330.367 105.242C331.091 105.242 331.63 105.078 331.984 104.75C332.344 104.417 332.549 103.904 332.602 103.211H334.945ZM345.828 101.57C345.828 102.69 345.63 103.672 345.234 104.516C344.839 105.359 344.271 106.01 343.531 106.469C342.797 106.927 341.953 107.156 341 107.156C340.057 107.156 339.216 106.93 338.477 106.477C337.737 106.023 337.164 105.378 336.758 104.539C336.352 103.695 336.146 102.727 336.141 101.633V101.07C336.141 99.9505 336.341 98.9661 336.742 98.1172C337.148 97.263 337.719 96.6094 338.453 96.1562C339.193 95.6979 340.036 95.4688 340.984 95.4688C341.932 95.4688 342.773 95.6979 343.508 96.1562C344.247 96.6094 344.818 97.263 345.219 98.1172C345.625 98.9661 345.828 99.9479 345.828 101.062V101.57ZM343.453 101.055C343.453 99.862 343.24 98.9557 342.812 98.3359C342.385 97.7161 341.776 97.4062 340.984 97.4062C340.198 97.4062 339.591 97.7135 339.164 98.3281C338.737 98.9375 338.521 99.8333 338.516 101.016V101.57C338.516 102.732 338.729 103.633 339.156 104.273C339.583 104.914 340.198 105.234 341 105.234C341.786 105.234 342.391 104.927 342.812 104.312C343.234 103.693 343.448 102.792 343.453 101.609V101.055ZM350.594 95.625L353.516 103.875L356.422 95.625H359.5V107H357.148V103.891L357.383 98.5234L354.312 107H352.703L349.641 98.5312L349.875 103.891V107H347.531V95.625H350.594ZM370.156 95.625V103.117C370.156 104.362 369.766 105.346 368.984 106.07C368.208 106.794 367.146 107.156 365.797 107.156C364.469 107.156 363.414 106.805 362.633 106.102C361.852 105.398 361.453 104.432 361.438 103.203V95.625H363.781V103.133C363.781 103.878 363.958 104.422 364.312 104.766C364.672 105.104 365.167 105.273 365.797 105.273C367.115 105.273 367.784 104.581 367.805 103.195V95.625H370.156ZM381.328 107H378.984L374.422 99.5156V107H372.078V95.625H374.422L378.992 103.125V95.625H381.328V107ZM385.867 107H383.523V95.625H385.867V107ZM396.977 103.211C396.888 104.435 396.435 105.398 395.617 106.102C394.805 106.805 393.732 107.156 392.398 107.156C390.94 107.156 389.792 106.667 388.953 105.688C388.12 104.703 387.703 103.354 387.703 101.641V100.945C387.703 99.8516 387.896 98.888 388.281 98.0547C388.667 97.2214 389.216 96.5833 389.93 96.1406C390.648 95.6927 391.482 95.4688 392.43 95.4688C393.742 95.4688 394.799 95.8203 395.602 96.5234C396.404 97.2266 396.867 98.2135 396.992 99.4844H394.648C394.591 98.75 394.385 98.2188 394.031 97.8906C393.682 97.5573 393.148 97.3906 392.43 97.3906C391.648 97.3906 391.062 97.6719 390.672 98.2344C390.286 98.7917 390.089 99.6589 390.078 100.836V101.695C390.078 102.924 390.263 103.823 390.633 104.391C391.008 104.958 391.596 105.242 392.398 105.242C393.122 105.242 393.661 105.078 394.016 104.75C394.375 104.417 394.581 103.904 394.633 103.211H396.977ZM404.938 104.656H400.828L400.047 107H397.555L401.789 95.625H403.961L408.219 107H405.727L404.938 104.656ZM401.461 102.758H404.305L402.875 98.5L401.461 102.758ZM418.039 103.211C417.951 104.435 417.497 105.398 416.68 106.102C415.867 106.805 414.794 107.156 413.461 107.156C412.003 107.156 410.854 106.667 410.016 105.688C409.182 104.703 408.766 103.354 408.766 101.641V100.945C408.766 99.8516 408.958 98.888 409.344 98.0547C409.729 97.2214 410.279 96.5833 410.992 96.1406C411.711 95.6927 412.544 95.4688 413.492 95.4688C414.805 95.4688 415.862 95.8203 416.664 96.5234C417.466 97.2266 417.93 98.2135 418.055 99.4844H415.711C415.654 98.75 415.448 98.2188 415.094 97.8906C414.745 97.5573 414.211 97.3906 413.492 97.3906C412.711 97.3906 412.125 97.6719 411.734 98.2344C411.349 98.7917 411.151 99.6589 411.141 100.836V101.695C411.141 102.924 411.326 103.823 411.695 104.391C412.07 104.958 412.659 105.242 413.461 105.242C414.185 105.242 414.724 105.078 415.078 104.75C415.438 104.417 415.643 103.904 415.695 103.211H418.039ZM414.32 106.953L414.234 107.406C415.016 107.547 415.406 107.997 415.406 108.758C415.406 109.331 415.167 109.784 414.688 110.117C414.214 110.451 413.544 110.617 412.68 110.617L412.625 109.312C413.208 109.312 413.5 109.102 413.5 108.68C413.5 108.461 413.411 108.31 413.234 108.227C413.062 108.148 412.781 108.096 412.391 108.07L412.633 106.953H414.32ZM426 104.656H421.891L421.109 107H418.617L422.852 95.625H425.023L429.281 107H426.789L426 104.656ZM422.523 102.758H425.367L423.938 98.5L422.523 102.758ZM426.906 92.6875C426.906 93.276 426.734 93.7708 426.391 94.1719C426.047 94.5677 425.628 94.7656 425.133 94.7656C424.935 94.7656 424.758 94.7448 424.602 94.7031C424.451 94.6562 424.24 94.5599 423.969 94.4141C423.698 94.2682 423.503 94.1797 423.383 94.1484C423.263 94.112 423.133 94.0938 422.992 94.0938C422.81 94.0938 422.654 94.1589 422.523 94.2891C422.398 94.4193 422.336 94.6042 422.336 94.8438L421.023 94.7656C421.023 94.1875 421.193 93.6953 421.531 93.2891C421.875 92.8828 422.294 92.6797 422.789 92.6797C422.945 92.6797 423.091 92.7005 423.227 92.7422C423.367 92.7786 423.594 92.8724 423.906 93.0234C424.219 93.1745 424.435 93.2656 424.555 93.2969C424.674 93.3281 424.799 93.3438 424.93 93.3438C425.112 93.3438 425.268 93.2812 425.398 93.1562C425.534 93.026 425.602 92.8411 425.602 92.6016L426.906 92.6875ZM439.516 101.57C439.516 102.69 439.318 103.672 438.922 104.516C438.526 105.359 437.958 106.01 437.219 106.469C436.484 106.927 435.641 107.156 434.688 107.156C433.745 107.156 432.904 106.93 432.164 106.477C431.424 106.023 430.852 105.378 430.445 104.539C430.039 103.695 429.833 102.727 429.828 101.633V101.07C429.828 99.9505 430.029 98.9661 430.43 98.1172C430.836 97.263 431.406 96.6094 432.141 96.1562C432.88 95.6979 433.724 95.4688 434.672 95.4688C435.62 95.4688 436.461 95.6979 437.195 96.1562C437.935 96.6094 438.505 97.263 438.906 98.1172C439.312 98.9661 439.516 99.9479 439.516 101.062V101.57ZM437.141 101.055C437.141 99.862 436.927 98.9557 436.5 98.3359C436.073 97.7161 435.464 97.4062 434.672 97.4062C433.885 97.4062 433.279 97.7135 432.852 98.3281C432.424 98.9375 432.208 99.8333 432.203 101.016V101.57C432.203 102.732 432.417 103.633 432.844 104.273C433.271 104.914 433.885 105.234 434.688 105.234C435.474 105.234 436.078 104.927 436.5 104.312C436.922 103.693 437.135 102.792 437.141 101.609V101.055Z" fill="white"/>
<rect x="81" y="56" width="159" height="159" fill="black"/>
<path d="M106.945 84.2109C106.857 85.4349 106.404 86.3984 105.586 87.1016C104.773 87.8047 103.701 88.1562 102.367 88.1562C100.909 88.1562 99.7604 87.6667 98.9219 86.6875C98.0885 85.7031 97.6719 84.3542 97.6719 82.6406V81.9453C97.6719 80.8516 97.8646 79.888 98.25 79.0547C98.6354 78.2214 99.1849 77.5833 99.8984 77.1406C100.617 76.6927 101.451 76.4688 102.398 76.4688C103.711 76.4688 104.768 76.8203 105.57 77.5234C106.372 78.2266 106.836 79.2135 106.961 80.4844H104.617C104.56 79.75 104.354 79.2188 104 78.8906C103.651 78.5573 103.117 78.3906 102.398 78.3906C101.617 78.3906 101.031 78.6719 100.641 79.2344C100.255 79.7917 100.057 80.6589 100.047 81.8359V82.6953C100.047 83.9245 100.232 84.8229 100.602 85.3906C100.977 85.9583 101.565 86.2422 102.367 86.2422C103.091 86.2422 103.63 86.0781 103.984 85.75C104.344 85.4167 104.549 84.9036 104.602 84.2109H106.945ZM114.906 85.6562H110.797L110.016 88H107.523L111.758 76.625H113.93L118.188 88H115.695L114.906 85.6562ZM111.43 83.7578H114.273L112.844 79.5L111.43 83.7578ZM113.328 73.5781H115.789L113.625 76H111.789L113.328 73.5781ZM121.594 86.1172H126.57V88H119.25V76.625H121.594V86.1172ZM136.352 84.2109C136.263 85.4349 135.81 86.3984 134.992 87.1016C134.18 87.8047 133.107 88.1562 131.773 88.1562C130.315 88.1562 129.167 87.6667 128.328 86.6875C127.495 85.7031 127.078 84.3542 127.078 82.6406V81.9453C127.078 80.8516 127.271 79.888 127.656 79.0547C128.042 78.2214 128.591 77.5833 129.305 77.1406C130.023 76.6927 130.857 76.4688 131.805 76.4688C133.117 76.4688 134.174 76.8203 134.977 77.5234C135.779 78.2266 136.242 79.2135 136.367 80.4844H134.023C133.966 79.75 133.76 79.2188 133.406 78.8906C133.057 78.5573 132.523 78.3906 131.805 78.3906C131.023 78.3906 130.438 78.6719 130.047 79.2344C129.661 79.7917 129.464 80.6589 129.453 81.8359V82.6953C129.453 83.9245 129.638 84.8229 130.008 85.3906C130.383 85.9583 130.971 86.2422 131.773 86.2422C132.497 86.2422 133.036 86.0781 133.391 85.75C133.75 85.4167 133.956 84.9036 134.008 84.2109H136.352ZM146.5 76.625V84.1172C146.5 85.362 146.109 86.3464 145.328 87.0703C144.552 87.7943 143.49 88.1562 142.141 88.1562C140.812 88.1562 139.758 87.8047 138.977 87.1016C138.195 86.3984 137.797 85.4323 137.781 84.2031V76.625H140.125V84.1328C140.125 84.8776 140.302 85.4219 140.656 85.7656C141.016 86.1042 141.51 86.2734 142.141 86.2734C143.458 86.2734 144.128 85.5807 144.148 84.1953V76.625H146.5ZM150.766 86.1172H155.742V88H148.422V76.625H150.766V86.1172ZM165.938 82.5703C165.938 83.6901 165.74 84.6719 165.344 85.5156C164.948 86.3594 164.38 87.0104 163.641 87.4688C162.906 87.9271 162.062 88.1562 161.109 88.1562C160.167 88.1562 159.326 87.9297 158.586 87.4766C157.846 87.0234 157.273 86.3776 156.867 85.5391C156.461 84.6953 156.255 83.7266 156.25 82.6328V82.0703C156.25 80.9505 156.451 79.9661 156.852 79.1172C157.258 78.263 157.828 77.6094 158.562 77.1562C159.302 76.6979 160.146 76.4688 161.094 76.4688C162.042 76.4688 162.883 76.6979 163.617 77.1562C164.357 77.6094 164.927 78.263 165.328 79.1172C165.734 79.9661 165.938 80.9479 165.938 82.0625V82.5703ZM163.562 82.0547C163.562 80.862 163.349 79.9557 162.922 79.3359C162.495 78.7161 161.885 78.4062 161.094 78.4062C160.307 78.4062 159.701 78.7135 159.273 79.3281C158.846 79.9375 158.63 80.8333 158.625 82.0156V82.5703C158.625 83.7318 158.839 84.6328 159.266 85.2734C159.693 85.9141 160.307 86.2344 161.109 86.2344C161.896 86.2344 162.5 85.9271 162.922 85.3125C163.344 84.6927 163.557 83.7917 163.562 82.6094V82.0547ZM178.469 83.0703H173.969V86.1172H179.25V88H171.625V76.625H179.234V78.5234H173.969V81.2344H178.469V83.0703ZM104.859 102.07H100.359V105.117H105.641V107H98.0156V95.625H105.625V97.5234H100.359V100.234H104.859V102.07ZM112.914 104.016C112.914 103.573 112.758 103.234 112.445 103C112.133 102.76 111.57 102.51 110.758 102.25C109.945 101.984 109.302 101.724 108.828 101.469C107.536 100.771 106.891 99.8307 106.891 98.6484C106.891 98.0339 107.062 97.487 107.406 97.0078C107.755 96.5234 108.253 96.1458 108.898 95.875C109.549 95.6042 110.279 95.4688 111.086 95.4688C111.898 95.4688 112.622 95.6172 113.258 95.9141C113.893 96.2057 114.385 96.6198 114.734 97.1562C115.089 97.6927 115.266 98.3021 115.266 98.9844H112.922C112.922 98.4635 112.758 98.0599 112.43 97.7734C112.102 97.4818 111.641 97.3359 111.047 97.3359C110.474 97.3359 110.029 97.4583 109.711 97.7031C109.393 97.9427 109.234 98.2604 109.234 98.6562C109.234 99.026 109.419 99.3359 109.789 99.5859C110.164 99.8359 110.714 100.07 111.438 100.289C112.771 100.69 113.742 101.188 114.352 101.781C114.961 102.375 115.266 103.115 115.266 104C115.266 104.984 114.893 105.758 114.148 106.32C113.404 106.878 112.401 107.156 111.141 107.156C110.266 107.156 109.469 106.997 108.75 106.68C108.031 106.357 107.482 105.917 107.102 105.359C106.727 104.802 106.539 104.156 106.539 103.422H108.891C108.891 104.677 109.641 105.305 111.141 105.305C111.698 105.305 112.133 105.193 112.445 104.969C112.758 104.74 112.914 104.422 112.914 104.016ZM125.422 97.5234H121.938V107H119.594V97.5234H116.156V95.625H125.422V97.5234ZM132.25 104.656H128.141L127.359 107H124.867L129.102 95.625H131.273L135.531 107H133.039L132.25 104.656ZM128.773 102.758H131.617L130.188 98.5L128.773 102.758ZM144.219 97.5234H140.734V107H138.391V97.5234H134.953V95.625H144.219V97.5234ZM148.055 107H145.711V95.625H148.055V107ZM147.328 92.5547H149.789L147.625 94.9766H145.789L147.328 92.5547ZM156.133 104.016C156.133 103.573 155.977 103.234 155.664 103C155.352 102.76 154.789 102.51 153.977 102.25C153.164 101.984 152.521 101.724 152.047 101.469C150.755 100.771 150.109 99.8307 150.109 98.6484C150.109 98.0339 150.281 97.487 150.625 97.0078C150.974 96.5234 151.471 96.1458 152.117 95.875C152.768 95.6042 153.497 95.4688 154.305 95.4688C155.117 95.4688 155.841 95.6172 156.477 95.9141C157.112 96.2057 157.604 96.6198 157.953 97.1562C158.307 97.6927 158.484 98.3021 158.484 98.9844H156.141C156.141 98.4635 155.977 98.0599 155.648 97.7734C155.32 97.4818 154.859 97.3359 154.266 97.3359C153.693 97.3359 153.247 97.4583 152.93 97.7031C152.612 97.9427 152.453 98.2604 152.453 98.6562C152.453 99.026 152.638 99.3359 153.008 99.5859C153.383 99.8359 153.932 100.07 154.656 100.289C155.99 100.69 156.961 101.188 157.57 101.781C158.18 102.375 158.484 103.115 158.484 104C158.484 104.984 158.112 105.758 157.367 106.32C156.622 106.878 155.62 107.156 154.359 107.156C153.484 107.156 152.688 106.997 151.969 106.68C151.25 106.357 150.701 105.917 150.32 105.359C149.945 104.802 149.758 104.156 149.758 103.422H152.109C152.109 104.677 152.859 105.305 154.359 105.305C154.917 105.305 155.352 105.193 155.664 104.969C155.977 104.74 156.133 104.422 156.133 104.016ZM168.641 97.5234H165.156V107H162.812V97.5234H159.375V95.625H168.641V97.5234ZM172.477 107H170.133V95.625H172.477V107ZM183.586 103.211C183.497 104.435 183.044 105.398 182.227 106.102C181.414 106.805 180.341 107.156 179.008 107.156C177.549 107.156 176.401 106.667 175.562 105.688C174.729 104.703 174.312 103.354 174.312 101.641V100.945C174.312 99.8516 174.505 98.888 174.891 98.0547C175.276 97.2214 175.826 96.5833 176.539 96.1406C177.258 95.6927 178.091 95.4688 179.039 95.4688C180.352 95.4688 181.409 95.8203 182.211 96.5234C183.013 97.2266 183.477 98.2135 183.602 99.4844H181.258C181.201 98.75 180.995 98.2188 180.641 97.8906C180.292 97.5573 179.758 97.3906 179.039 97.3906C178.258 97.3906 177.672 97.6719 177.281 98.2344C176.896 98.7917 176.698 99.6589 176.688 100.836V101.695C176.688 102.924 176.872 103.823 177.242 104.391C177.617 104.958 178.206 105.242 179.008 105.242C179.732 105.242 180.271 105.078 180.625 104.75C180.984 104.417 181.19 103.904 181.242 103.211H183.586ZM191.547 104.656H187.438L186.656 107H184.164L188.398 95.625H190.57L194.828 107H192.336L191.547 104.656ZM188.07 102.758H190.914L189.484 98.5L188.07 102.758Z" fill="white"/>
<rect x="194" y="258" width="159" height="159" fill="black"/>
<path d="M217.859 285.352H213.359V290H211.016V278.625H218.422V280.523H213.359V283.461H217.859V285.352ZM226.625 285.07H222.125V288.117H227.406V290H219.781V278.625H227.391V280.523H222.125V283.234H226.625V285.07ZM232.992 285.836H231.125V290H228.781V278.625H233.008C234.352 278.625 235.388 278.924 236.117 279.523C236.846 280.122 237.211 280.969 237.211 282.062C237.211 282.839 237.042 283.487 236.703 284.008C236.37 284.523 235.862 284.935 235.18 285.242L237.641 289.891V290H235.125L232.992 285.836ZM231.125 283.938H233.016C233.604 283.938 234.06 283.789 234.383 283.492C234.706 283.19 234.867 282.776 234.867 282.25C234.867 281.714 234.714 281.292 234.406 280.984C234.104 280.677 233.638 280.523 233.008 280.523H231.125V283.938ZM243.211 285.836H241.344V290H239V278.625H243.227C244.57 278.625 245.607 278.924 246.336 279.523C247.065 280.122 247.43 280.969 247.43 282.062C247.43 282.839 247.26 283.487 246.922 284.008C246.589 284.523 246.081 284.935 245.398 285.242L247.859 289.891V290H245.344L243.211 285.836ZM241.344 283.938H243.234C243.823 283.938 244.279 283.789 244.602 283.492C244.924 283.19 245.086 282.776 245.086 282.25C245.086 281.714 244.932 281.292 244.625 280.984C244.323 280.677 243.857 280.523 243.227 280.523H241.344V283.938ZM255.641 287.656H251.531L250.75 290H248.258L252.492 278.625H254.664L258.922 290H256.43L255.641 287.656ZM252.164 285.758H255.008L253.578 281.5L252.164 285.758ZM263.047 278.625L265.969 286.875L268.875 278.625H271.953V290H269.602V286.891L269.836 281.523L266.766 290H265.156L262.094 281.531L262.328 286.891V290H259.984V278.625H263.047ZM280.844 285.07H276.344V288.117H281.625V290H274V278.625H281.609V280.523H276.344V283.234H280.844V285.07ZM292.25 290H289.906L285.344 282.516V290H283V278.625H285.344L289.914 286.125V278.625H292.25V290ZM302.625 280.523H299.141V290H296.797V280.523H293.359V278.625H302.625V280.523ZM309.453 287.656H305.344L304.562 290H302.07L306.305 278.625H308.477L312.734 290H310.242L309.453 287.656ZM305.977 285.758H308.82L307.391 281.5L305.977 285.758ZM319.695 287.016C319.695 286.573 319.539 286.234 319.227 286C318.914 285.76 318.352 285.51 317.539 285.25C316.727 284.984 316.083 284.724 315.609 284.469C314.318 283.771 313.672 282.831 313.672 281.648C313.672 281.034 313.844 280.487 314.188 280.008C314.536 279.523 315.034 279.146 315.68 278.875C316.331 278.604 317.06 278.469 317.867 278.469C318.68 278.469 319.404 278.617 320.039 278.914C320.674 279.206 321.167 279.62 321.516 280.156C321.87 280.693 322.047 281.302 322.047 281.984H319.703C319.703 281.464 319.539 281.06 319.211 280.773C318.883 280.482 318.422 280.336 317.828 280.336C317.255 280.336 316.81 280.458 316.492 280.703C316.174 280.943 316.016 281.26 316.016 281.656C316.016 282.026 316.201 282.336 316.57 282.586C316.945 282.836 317.495 283.07 318.219 283.289C319.552 283.69 320.523 284.188 321.133 284.781C321.742 285.375 322.047 286.115 322.047 287C322.047 287.984 321.674 288.758 320.93 289.32C320.185 289.878 319.182 290.156 317.922 290.156C317.047 290.156 316.25 289.997 315.531 289.68C314.812 289.357 314.263 288.917 313.883 288.359C313.508 287.802 313.32 287.156 313.32 286.422H315.672C315.672 287.677 316.422 288.305 317.922 288.305C318.479 288.305 318.914 288.193 319.227 287.969C319.539 287.74 319.695 287.422 319.695 287.016ZM217.859 304.07H213.359V307.117H218.641V309H211.016V297.625H218.625V299.523H213.359V302.234H217.859V304.07ZM225.914 306.016C225.914 305.573 225.758 305.234 225.445 305C225.133 304.76 224.57 304.51 223.758 304.25C222.945 303.984 222.302 303.724 221.828 303.469C220.536 302.771 219.891 301.831 219.891 300.648C219.891 300.034 220.062 299.487 220.406 299.008C220.755 298.523 221.253 298.146 221.898 297.875C222.549 297.604 223.279 297.469 224.086 297.469C224.898 297.469 225.622 297.617 226.258 297.914C226.893 298.206 227.385 298.62 227.734 299.156C228.089 299.693 228.266 300.302 228.266 300.984H225.922C225.922 300.464 225.758 300.06 225.43 299.773C225.102 299.482 224.641 299.336 224.047 299.336C223.474 299.336 223.029 299.458 222.711 299.703C222.393 299.943 222.234 300.26 222.234 300.656C222.234 301.026 222.419 301.336 222.789 301.586C223.164 301.836 223.714 302.07 224.438 302.289C225.771 302.69 226.742 303.188 227.352 303.781C227.961 304.375 228.266 305.115 228.266 306C228.266 306.984 227.893 307.758 227.148 308.32C226.404 308.878 225.401 309.156 224.141 309.156C223.266 309.156 222.469 308.997 221.75 308.68C221.031 308.357 220.482 307.917 220.102 307.359C219.727 306.802 219.539 306.156 219.539 305.422H221.891C221.891 306.677 222.641 307.305 224.141 307.305C224.698 307.305 225.133 307.193 225.445 306.969C225.758 306.74 225.914 306.422 225.914 306.016ZM238.422 299.523H234.938V309H232.594V299.523H229.156V297.625H238.422V299.523ZM243.977 304.836H242.109V309H239.766V297.625H243.992C245.336 297.625 246.372 297.924 247.102 298.523C247.831 299.122 248.195 299.969 248.195 301.062C248.195 301.839 248.026 302.487 247.688 303.008C247.354 303.523 246.846 303.935 246.164 304.242L248.625 308.891V309H246.109L243.977 304.836ZM242.109 302.938H244C244.589 302.938 245.044 302.789 245.367 302.492C245.69 302.19 245.852 301.776 245.852 301.25C245.852 300.714 245.698 300.292 245.391 299.984C245.089 299.677 244.622 299.523 243.992 299.523H242.109V302.938ZM258.594 297.625V305.117C258.594 306.362 258.203 307.346 257.422 308.07C256.646 308.794 255.583 309.156 254.234 309.156C252.906 309.156 251.852 308.805 251.07 308.102C250.289 307.398 249.891 306.432 249.875 305.203V297.625H252.219V305.133C252.219 305.878 252.396 306.422 252.75 306.766C253.109 307.104 253.604 307.273 254.234 307.273C255.552 307.273 256.221 306.581 256.242 305.195V297.625H258.594ZM269.078 299.523H265.594V309H263.25V299.523H259.812V297.625H269.078V299.523ZM279.031 297.625V305.117C279.031 306.362 278.641 307.346 277.859 308.07C277.083 308.794 276.021 309.156 274.672 309.156C273.344 309.156 272.289 308.805 271.508 308.102C270.727 307.398 270.328 306.432 270.312 305.203V297.625H272.656V305.133C272.656 305.878 272.833 306.422 273.188 306.766C273.547 307.104 274.042 307.273 274.672 307.273C275.99 307.273 276.659 306.581 276.68 305.195V297.625H279.031ZM285.164 304.836H283.297V309H280.953V297.625H285.18C286.523 297.625 287.56 297.924 288.289 298.523C289.018 299.122 289.383 299.969 289.383 301.062C289.383 301.839 289.214 302.487 288.875 303.008C288.542 303.523 288.034 303.935 287.352 304.242L289.812 308.891V309H287.297L285.164 304.836ZM283.297 302.938H285.188C285.776 302.938 286.232 302.789 286.555 302.492C286.878 302.19 287.039 301.776 287.039 301.25C287.039 300.714 286.885 300.292 286.578 299.984C286.276 299.677 285.81 299.523 285.18 299.523H283.297V302.938ZM297.594 306.656H293.484L292.703 309H290.211L294.445 297.625H296.617L300.875 309H298.383L297.594 306.656ZM294.117 304.758H296.961L295.531 300.5L294.117 304.758ZM304.43 309H302.086V297.625H304.43V309ZM312.508 306.016C312.508 305.573 312.352 305.234 312.039 305C311.727 304.76 311.164 304.51 310.352 304.25C309.539 303.984 308.896 303.724 308.422 303.469C307.13 302.771 306.484 301.831 306.484 300.648C306.484 300.034 306.656 299.487 307 299.008C307.349 298.523 307.846 298.146 308.492 297.875C309.143 297.604 309.872 297.469 310.68 297.469C311.492 297.469 312.216 297.617 312.852 297.914C313.487 298.206 313.979 298.62 314.328 299.156C314.682 299.693 314.859 300.302 314.859 300.984H312.516C312.516 300.464 312.352 300.06 312.023 299.773C311.695 299.482 311.234 299.336 310.641 299.336C310.068 299.336 309.622 299.458 309.305 299.703C308.987 299.943 308.828 300.26 308.828 300.656C308.828 301.026 309.013 301.336 309.383 301.586C309.758 301.836 310.307 302.07 311.031 302.289C312.365 302.69 313.336 303.188 313.945 303.781C314.555 304.375 314.859 305.115 314.859 306C314.859 306.984 314.487 307.758 313.742 308.32C312.997 308.878 311.995 309.156 310.734 309.156C309.859 309.156 309.062 308.997 308.344 308.68C307.625 308.357 307.076 307.917 306.695 307.359C306.32 306.802 306.133 306.156 306.133 305.422H308.484C308.484 306.677 309.234 307.305 310.734 307.305C311.292 307.305 311.727 307.193 312.039 306.969C312.352 306.74 312.508 306.422 312.508 306.016Z" fill="white"/>
</svg>
