<svg width="2440" height="969" viewBox="0 0 2440 969" fill="none" xmlns="http://www.w3.org/2000/svg">
<path d="M624 0L1164.4 726H83.6002L624 0Z" fill="white" fill-opacity="0.4"/>
<path d="M1816 0L2356.4 726H1275.6L1816 0Z" fill="white" fill-opacity="0.4"/>
<path fill-rule="evenodd" clip-rule="evenodd" d="M1043.81 565L1164.4 727H83.6001L204.185 565H1043.81Z" fill="white" fill-opacity="0.5"/>
<path fill-rule="evenodd" clip-rule="evenodd" d="M1892.32 103.529L1427.79 727H1275.6L1816 1L1892.32 103.529Z" fill="white" fill-opacity="0.5"/>
<path d="M437.764 620.17C435.004 620.17 432.904 620.92 431.464 622.42C430.084 623.92 429.394 626.14 429.394 629.08V634.66H443.974V640.06H429.574V682H423.184V640.06H414.724V634.66H423.184V628.81C423.184 624.49 424.414 621.07 426.874 618.55C429.394 616.03 432.934 614.77 437.494 614.77C439.294 614.77 441.034 615.04 442.714 615.58C444.394 616.06 445.804 616.78 446.944 617.74L444.784 622.51C442.924 620.95 440.584 620.17 437.764 620.17ZM495.262 634.66V682H489.142V673.36C487.462 676.24 485.152 678.49 482.212 680.11C479.272 681.67 475.912 682.45 472.132 682.45C465.952 682.45 461.062 680.74 457.462 677.32C453.922 673.84 452.152 668.77 452.152 662.11V634.66H458.542V661.48C458.542 666.46 459.772 670.24 462.232 672.82C464.692 675.4 468.202 676.69 472.762 676.69C477.742 676.69 481.672 675.19 484.552 672.19C487.432 669.13 488.872 664.9 488.872 659.5V634.66H495.262ZM537.279 634.3C543.219 634.3 547.929 636.04 551.409 639.52C554.949 642.94 556.719 647.95 556.719 654.55V682H550.329V655.18C550.329 650.26 549.099 646.51 546.639 643.93C544.179 641.35 540.669 640.06 536.109 640.06C531.009 640.06 526.959 641.59 523.959 644.65C521.019 647.65 519.549 651.82 519.549 657.16V682H513.159V634.66H519.279V643.39C521.019 640.51 523.419 638.29 526.479 636.73C529.599 635.11 533.199 634.3 537.279 634.3ZM593.863 682.45C589.183 682.45 584.983 681.43 581.263 679.39C577.603 677.35 574.723 674.5 572.623 670.84C570.523 667.12 569.473 662.95 569.473 658.33C569.473 653.71 570.523 649.57 572.623 645.91C574.723 642.25 577.603 639.4 581.263 637.36C584.983 635.32 589.183 634.3 593.863 634.3C597.943 634.3 601.573 635.11 604.753 636.73C607.993 638.29 610.543 640.6 612.403 643.66L607.633 646.9C606.073 644.56 604.093 642.82 601.693 641.68C599.293 640.48 596.683 639.88 593.863 639.88C590.443 639.88 587.353 640.66 584.593 642.22C581.893 643.72 579.763 645.88 578.203 648.7C576.703 651.52 575.953 654.73 575.953 658.33C575.953 661.99 576.703 665.23 578.203 668.05C579.763 670.81 581.893 672.97 584.593 674.53C587.353 676.03 590.443 676.78 593.863 676.78C596.683 676.78 599.293 676.21 601.693 675.07C604.093 673.93 606.073 672.19 607.633 669.85L612.403 673.09C610.543 676.15 607.993 678.49 604.753 680.11C601.513 681.67 597.883 682.45 593.863 682.45ZM624.956 634.66H631.346V682H624.956V634.66ZM628.196 624.31C626.876 624.31 625.766 623.86 624.866 622.96C623.966 622.06 623.516 620.98 623.516 619.72C623.516 618.52 623.966 617.47 624.866 616.57C625.766 615.67 626.876 615.22 628.196 615.22C629.516 615.22 630.626 615.67 631.526 616.57C632.426 617.41 632.876 618.43 632.876 619.63C632.876 620.95 632.426 622.06 631.526 622.96C630.626 623.86 629.516 624.31 628.196 624.31ZM668.476 682.45C663.916 682.45 659.806 681.43 656.146 679.39C652.486 677.29 649.606 674.41 647.506 670.75C645.406 667.09 644.356 662.95 644.356 658.33C644.356 653.71 645.406 649.57 647.506 645.91C649.606 642.25 652.486 639.4 656.146 637.36C659.806 635.32 663.916 634.3 668.476 634.3C673.036 634.3 677.146 635.32 680.806 637.36C684.466 639.4 687.316 642.25 689.356 645.91C691.456 649.57 692.506 653.71 692.506 658.33C692.506 662.95 691.456 667.09 689.356 670.75C687.316 674.41 684.466 677.29 680.806 679.39C677.146 681.43 673.036 682.45 668.476 682.45ZM668.476 676.78C671.836 676.78 674.836 676.03 677.476 674.53C680.176 672.97 682.276 670.78 683.776 667.96C685.276 665.14 686.026 661.93 686.026 658.33C686.026 654.73 685.276 651.52 683.776 648.7C682.276 645.88 680.176 643.72 677.476 642.22C674.836 640.66 671.836 639.88 668.476 639.88C665.116 639.88 662.086 640.66 659.386 642.22C656.746 643.72 654.646 645.88 653.086 648.7C651.586 651.52 650.836 654.73 650.836 658.33C650.836 661.93 651.586 665.14 653.086 667.96C654.646 670.78 656.746 672.97 659.386 674.53C662.086 676.03 665.116 676.78 668.476 676.78ZM729.672 634.3C735.612 634.3 740.322 636.04 743.802 639.52C747.342 642.94 749.112 647.95 749.112 654.55V682H742.722V655.18C742.722 650.26 741.492 646.51 739.032 643.93C736.572 641.35 733.062 640.06 728.502 640.06C723.402 640.06 719.352 641.59 716.352 644.65C713.412 647.65 711.942 651.82 711.942 657.16V682H705.552V634.66H711.672V643.39C713.412 640.51 715.812 638.29 718.872 636.73C721.992 635.11 725.592 634.3 729.672 634.3ZM783.02 634.3C789.2 634.3 793.94 635.86 797.24 638.98C800.54 642.04 802.19 646.6 802.19 652.66V682H796.07V674.62C794.63 677.08 792.5 679 789.68 680.38C786.92 681.76 783.62 682.45 779.78 682.45C774.5 682.45 770.3 681.19 767.18 678.67C764.06 676.15 762.5 672.82 762.5 668.68C762.5 664.66 763.94 661.42 766.82 658.96C769.76 656.5 774.41 655.27 780.77 655.27H795.8V652.39C795.8 648.31 794.66 645.22 792.38 643.12C790.1 640.96 786.77 639.88 782.39 639.88C779.39 639.88 776.51 640.39 773.75 641.41C770.99 642.37 768.62 643.72 766.64 645.46L763.76 640.69C766.16 638.65 769.04 637.09 772.4 636.01C775.76 634.87 779.3 634.3 783.02 634.3ZM780.77 677.41C784.37 677.41 787.46 676.6 790.04 674.98C792.62 673.3 794.54 670.9 795.8 667.78V660.04H780.95C772.85 660.04 768.8 662.86 768.8 668.5C768.8 671.26 769.85 673.45 771.95 675.07C774.05 676.63 776.99 677.41 780.77 677.41ZM819.546 615.22H825.936V682H819.546V615.22Z" fill="white"/>
<line x1="210" y1="564.5" x2="1042" y2="564.5" stroke="white"/>
<path d="M1624.76 620.17C1622 620.17 1619.9 620.92 1618.46 622.42C1617.08 623.92 1616.39 626.14 1616.39 629.08V634.66H1630.97V640.06H1616.57V682H1610.18V640.06H1601.72V634.66H1610.18V628.81C1610.18 624.49 1611.41 621.07 1613.87 618.55C1616.39 616.03 1619.93 614.77 1624.49 614.77C1626.29 614.77 1628.03 615.04 1629.71 615.58C1631.39 616.06 1632.8 616.78 1633.94 617.74L1631.78 622.51C1629.92 620.95 1627.58 620.17 1624.76 620.17ZM1682.26 634.66V682H1676.14V673.36C1674.46 676.24 1672.15 678.49 1669.21 680.11C1666.27 681.67 1662.91 682.45 1659.13 682.45C1652.95 682.45 1648.06 680.74 1644.46 677.32C1640.92 673.84 1639.15 668.77 1639.15 662.11V634.66H1645.54V661.48C1645.54 666.46 1646.77 670.24 1649.23 672.82C1651.69 675.4 1655.2 676.69 1659.76 676.69C1664.74 676.69 1668.67 675.19 1671.55 672.19C1674.43 669.13 1675.87 664.9 1675.87 659.5V634.66H1682.26ZM1724.28 634.3C1730.22 634.3 1734.93 636.04 1738.41 639.52C1741.95 642.94 1743.72 647.95 1743.72 654.55V682H1737.33V655.18C1737.33 650.26 1736.1 646.51 1733.64 643.93C1731.18 641.35 1727.67 640.06 1723.11 640.06C1718.01 640.06 1713.96 641.59 1710.96 644.65C1708.02 647.65 1706.55 651.82 1706.55 657.16V682H1700.16V634.66H1706.28V643.39C1708.02 640.51 1710.42 638.29 1713.48 636.73C1716.6 635.11 1720.2 634.3 1724.28 634.3ZM1780.86 682.45C1776.18 682.45 1771.98 681.43 1768.26 679.39C1764.6 677.35 1761.72 674.5 1759.62 670.84C1757.52 667.12 1756.47 662.95 1756.47 658.33C1756.47 653.71 1757.52 649.57 1759.62 645.91C1761.72 642.25 1764.6 639.4 1768.26 637.36C1771.98 635.32 1776.18 634.3 1780.86 634.3C1784.94 634.3 1788.57 635.11 1791.75 636.73C1794.99 638.29 1797.54 640.6 1799.4 643.66L1794.63 646.9C1793.07 644.56 1791.09 642.82 1788.69 641.68C1786.29 640.48 1783.68 639.88 1780.86 639.88C1777.44 639.88 1774.35 640.66 1771.59 642.22C1768.89 643.72 1766.76 645.88 1765.2 648.7C1763.7 651.52 1762.95 654.73 1762.95 658.33C1762.95 661.99 1763.7 665.23 1765.2 668.05C1766.76 670.81 1768.89 672.97 1771.59 674.53C1774.35 676.03 1777.44 676.78 1780.86 676.78C1783.68 676.78 1786.29 676.21 1788.69 675.07C1791.09 673.93 1793.07 672.19 1794.63 669.85L1799.4 673.09C1797.54 676.15 1794.99 678.49 1791.75 680.11C1788.51 681.67 1784.88 682.45 1780.86 682.45ZM1811.96 634.66H1818.35V682H1811.96V634.66ZM1815.2 624.31C1813.88 624.31 1812.77 623.86 1811.87 622.96C1810.97 622.06 1810.52 620.98 1810.52 619.72C1810.52 618.52 1810.97 617.47 1811.87 616.57C1812.77 615.67 1813.88 615.22 1815.2 615.22C1816.52 615.22 1817.63 615.67 1818.53 616.57C1819.43 617.41 1819.88 618.43 1819.88 619.63C1819.88 620.95 1819.43 622.06 1818.53 622.96C1817.63 623.86 1816.52 624.31 1815.2 624.31ZM1855.48 682.45C1850.92 682.45 1846.81 681.43 1843.15 679.39C1839.49 677.29 1836.61 674.41 1834.51 670.75C1832.41 667.09 1831.36 662.95 1831.36 658.33C1831.36 653.71 1832.41 649.57 1834.51 645.91C1836.61 642.25 1839.49 639.4 1843.15 637.36C1846.81 635.32 1850.92 634.3 1855.48 634.3C1860.04 634.3 1864.15 635.32 1867.81 637.36C1871.47 639.4 1874.32 642.25 1876.36 645.91C1878.46 649.57 1879.51 653.71 1879.51 658.33C1879.51 662.95 1878.46 667.09 1876.36 670.75C1874.32 674.41 1871.47 677.29 1867.81 679.39C1864.15 681.43 1860.04 682.45 1855.48 682.45ZM1855.48 676.78C1858.84 676.78 1861.84 676.03 1864.48 674.53C1867.18 672.97 1869.28 670.78 1870.78 667.96C1872.28 665.14 1873.03 661.93 1873.03 658.33C1873.03 654.73 1872.28 651.52 1870.78 648.7C1869.28 645.88 1867.18 643.72 1864.48 642.22C1861.84 640.66 1858.84 639.88 1855.48 639.88C1852.12 639.88 1849.09 640.66 1846.39 642.22C1843.75 643.72 1841.65 645.88 1840.09 648.7C1838.59 651.52 1837.84 654.73 1837.84 658.33C1837.84 661.93 1838.59 665.14 1840.09 667.96C1841.65 670.78 1843.75 672.97 1846.39 674.53C1849.09 676.03 1852.12 676.78 1855.48 676.78ZM1916.67 634.3C1922.61 634.3 1927.32 636.04 1930.8 639.52C1934.34 642.94 1936.11 647.95 1936.11 654.55V682H1929.72V655.18C1929.72 650.26 1928.49 646.51 1926.03 643.93C1923.57 641.35 1920.06 640.06 1915.5 640.06C1910.4 640.06 1906.35 641.59 1903.35 644.65C1900.41 647.65 1898.94 651.82 1898.94 657.16V682H1892.55V634.66H1898.67V643.39C1900.41 640.51 1902.81 638.29 1905.87 636.73C1908.99 635.11 1912.59 634.3 1916.67 634.3ZM1970.02 634.3C1976.2 634.3 1980.94 635.86 1984.24 638.98C1987.54 642.04 1989.19 646.6 1989.19 652.66V682H1983.07V674.62C1981.63 677.08 1979.5 679 1976.68 680.38C1973.92 681.76 1970.62 682.45 1966.78 682.45C1961.5 682.45 1957.3 681.19 1954.18 678.67C1951.06 676.15 1949.5 672.82 1949.5 668.68C1949.5 664.66 1950.94 661.42 1953.82 658.96C1956.76 656.5 1961.41 655.27 1967.77 655.27H1982.8V652.39C1982.8 648.31 1981.66 645.22 1979.38 643.12C1977.1 640.96 1973.77 639.88 1969.39 639.88C1966.39 639.88 1963.51 640.39 1960.75 641.41C1957.99 642.37 1955.62 643.72 1953.64 645.46L1950.76 640.69C1953.16 638.65 1956.04 637.09 1959.4 636.01C1962.76 634.87 1966.3 634.3 1970.02 634.3ZM1967.77 677.41C1971.37 677.41 1974.46 676.6 1977.04 674.98C1979.62 673.3 1981.54 670.9 1982.8 667.78V660.04H1967.95C1959.85 660.04 1955.8 662.86 1955.8 668.5C1955.8 671.26 1956.85 673.45 1958.95 675.07C1961.05 676.63 1963.99 677.41 1967.77 677.41ZM2006.55 615.22H2012.94V682H2006.55V615.22Z" fill="white"/>
<line x1="1397" y1="564.5" x2="2229" y2="564.5" stroke="white"/>
<path d="M448.843 521.45C444.163 521.45 439.963 520.43 436.243 518.39C432.583 516.35 429.703 513.5 427.603 509.84C425.503 506.12 424.453 501.95 424.453 497.33C424.453 492.71 425.503 488.57 427.603 484.91C429.703 481.25 432.583 478.4 436.243 476.36C439.963 474.32 444.163 473.3 448.843 473.3C452.923 473.3 456.553 474.11 459.733 475.73C462.973 477.29 465.523 479.6 467.383 482.66L462.613 485.9C461.053 483.56 459.073 481.82 456.673 480.68C454.273 479.48 451.663 478.88 448.843 478.88C445.423 478.88 442.333 479.66 439.573 481.22C436.873 482.72 434.743 484.88 433.183 487.7C431.683 490.52 430.933 493.73 430.933 497.33C430.933 500.99 431.683 504.23 433.183 507.05C434.743 509.81 436.873 511.97 439.573 513.53C442.333 515.03 445.423 515.78 448.843 515.78C451.663 515.78 454.273 515.21 456.673 514.07C459.073 512.93 461.053 511.19 462.613 508.85L467.383 512.09C465.523 515.15 462.973 517.49 459.733 519.11C456.493 520.67 452.863 521.45 448.843 521.45ZM498.495 521.45C493.935 521.45 489.825 520.43 486.165 518.39C482.505 516.29 479.625 513.41 477.525 509.75C475.425 506.09 474.375 501.95 474.375 497.33C474.375 492.71 475.425 488.57 477.525 484.91C479.625 481.25 482.505 478.4 486.165 476.36C489.825 474.32 493.935 473.3 498.495 473.3C503.055 473.3 507.165 474.32 510.825 476.36C514.485 478.4 517.335 481.25 519.375 484.91C521.475 488.57 522.525 492.71 522.525 497.33C522.525 501.95 521.475 506.09 519.375 509.75C517.335 513.41 514.485 516.29 510.825 518.39C507.165 520.43 503.055 521.45 498.495 521.45ZM498.495 515.78C501.855 515.78 504.855 515.03 507.495 513.53C510.195 511.97 512.295 509.78 513.795 506.96C515.295 504.14 516.045 500.93 516.045 497.33C516.045 493.73 515.295 490.52 513.795 487.7C512.295 484.88 510.195 482.72 507.495 481.22C504.855 479.66 501.855 478.88 498.495 478.88C495.135 478.88 492.105 479.66 489.405 481.22C486.765 482.72 484.665 484.88 483.105 487.7C481.605 490.52 480.855 493.73 480.855 497.33C480.855 500.93 481.605 504.14 483.105 506.96C484.665 509.78 486.765 511.97 489.405 513.53C492.105 515.03 495.135 515.78 498.495 515.78ZM559.691 473.3C565.631 473.3 570.341 475.04 573.821 478.52C577.361 481.94 579.131 486.95 579.131 493.55V521H572.741V494.18C572.741 489.26 571.511 485.51 569.051 482.93C566.591 480.35 563.081 479.06 558.521 479.06C553.421 479.06 549.371 480.59 546.371 483.65C543.431 486.65 541.961 490.82 541.961 496.16V521H535.571V473.66H541.691V482.39C543.431 479.51 545.831 477.29 548.891 475.73C552.011 474.11 555.611 473.3 559.691 473.3ZM612.139 459.17C609.379 459.17 607.279 459.92 605.839 461.42C604.459 462.92 603.769 465.14 603.769 468.08V473.66H618.349V479.06H603.949V521H597.559V479.06H589.099V473.66H597.559V467.81C597.559 463.49 598.789 460.07 601.249 457.55C603.769 455.03 607.309 453.77 611.869 453.77C613.669 453.77 615.409 454.04 617.089 454.58C618.769 455.06 620.179 455.78 621.319 456.74L619.159 461.51C617.299 459.95 614.959 459.17 612.139 459.17ZM634.189 473.66H640.579V521H634.189V473.66ZM637.429 463.31C636.109 463.31 634.999 462.86 634.099 461.96C633.199 461.06 632.749 459.98 632.749 458.72C632.749 457.52 633.199 456.47 634.099 455.57C634.999 454.67 636.109 454.22 637.429 454.22C638.749 454.22 639.859 454.67 640.759 455.57C641.659 456.41 642.109 457.43 642.109 458.63C642.109 459.95 641.659 461.06 640.759 461.96C639.859 462.86 638.749 463.31 637.429 463.31ZM675.002 473.3C681.182 473.3 685.922 474.86 689.222 477.98C692.522 481.04 694.172 485.6 694.172 491.66V521H688.052V513.62C686.612 516.08 684.482 518 681.662 519.38C678.902 520.76 675.602 521.45 671.762 521.45C666.482 521.45 662.282 520.19 659.162 517.67C656.042 515.15 654.482 511.82 654.482 507.68C654.482 503.66 655.922 500.42 658.802 497.96C661.742 495.5 666.392 494.27 672.752 494.27H687.782V491.39C687.782 487.31 686.642 484.22 684.362 482.12C682.082 479.96 678.752 478.88 674.372 478.88C671.372 478.88 668.492 479.39 665.732 480.41C662.972 481.37 660.602 482.72 658.622 484.46L655.742 479.69C658.142 477.65 661.022 476.09 664.382 475.01C667.742 473.87 671.282 473.3 675.002 473.3ZM672.752 516.41C676.352 516.41 679.442 515.6 682.022 513.98C684.602 512.3 686.522 509.9 687.782 506.78V499.04H672.932C664.832 499.04 660.782 501.86 660.782 507.5C660.782 510.26 661.832 512.45 663.932 514.07C666.032 515.63 668.972 516.41 672.752 516.41ZM681.662 455.12H690.212L675.632 466.28H669.332L681.662 455.12ZM750.429 473.66L729.369 521H722.799L701.829 473.66H708.489L726.219 513.98L744.129 473.66H750.429ZM799.33 499.31H759.73C760.09 504.23 761.98 508.22 765.4 511.28C768.82 514.28 773.14 515.78 778.36 515.78C781.3 515.78 784 515.27 786.46 514.25C788.92 513.17 791.05 511.61 792.85 509.57L796.45 513.71C794.35 516.23 791.71 518.15 788.53 519.47C785.41 520.79 781.96 521.45 778.18 521.45C773.32 521.45 769 520.43 765.22 518.39C761.5 516.29 758.59 513.41 756.49 509.75C754.39 506.09 753.34 501.95 753.34 497.33C753.34 492.71 754.33 488.57 756.31 484.91C758.35 481.25 761.11 478.4 764.59 476.36C768.13 474.32 772.09 473.3 776.47 473.3C780.85 473.3 784.78 474.32 788.26 476.36C791.74 478.4 794.47 481.25 796.45 484.91C798.43 488.51 799.42 492.65 799.42 497.33L799.33 499.31ZM776.47 478.79C771.91 478.79 768.07 480.26 764.95 483.2C761.89 486.08 760.15 489.86 759.73 494.54H793.3C792.88 489.86 791.11 486.08 787.99 483.2C784.93 480.26 781.09 478.79 776.47 478.79ZM812.427 454.22H818.817V521H812.427V454.22Z" fill="white"/>
<line x1="328" y1="403.5" x2="924" y2="403.5" stroke="white"/>
<path d="M1635.84 521.45C1631.16 521.45 1626.96 520.43 1623.24 518.39C1619.58 516.35 1616.7 513.5 1614.6 509.84C1612.5 506.12 1611.45 501.95 1611.45 497.33C1611.45 492.71 1612.5 488.57 1614.6 484.91C1616.7 481.25 1619.58 478.4 1623.24 476.36C1626.96 474.32 1631.16 473.3 1635.84 473.3C1639.92 473.3 1643.55 474.11 1646.73 475.73C1649.97 477.29 1652.52 479.6 1654.38 482.66L1649.61 485.9C1648.05 483.56 1646.07 481.82 1643.67 480.68C1641.27 479.48 1638.66 478.88 1635.84 478.88C1632.42 478.88 1629.33 479.66 1626.57 481.22C1623.87 482.72 1621.74 484.88 1620.18 487.7C1618.68 490.52 1617.93 493.73 1617.93 497.33C1617.93 500.99 1618.68 504.23 1620.18 507.05C1621.74 509.81 1623.87 511.97 1626.57 513.53C1629.33 515.03 1632.42 515.78 1635.84 515.78C1638.66 515.78 1641.27 515.21 1643.67 514.07C1646.07 512.93 1648.05 511.19 1649.61 508.85L1654.38 512.09C1652.52 515.15 1649.97 517.49 1646.73 519.11C1643.49 520.67 1639.86 521.45 1635.84 521.45ZM1685.5 521.45C1680.94 521.45 1676.83 520.43 1673.17 518.39C1669.51 516.29 1666.63 513.41 1664.53 509.75C1662.43 506.09 1661.38 501.95 1661.38 497.33C1661.38 492.71 1662.43 488.57 1664.53 484.91C1666.63 481.25 1669.51 478.4 1673.17 476.36C1676.83 474.32 1680.94 473.3 1685.5 473.3C1690.06 473.3 1694.17 474.32 1697.83 476.36C1701.49 478.4 1704.34 481.25 1706.38 484.91C1708.48 488.57 1709.53 492.71 1709.53 497.33C1709.53 501.95 1708.48 506.09 1706.38 509.75C1704.34 513.41 1701.49 516.29 1697.83 518.39C1694.17 520.43 1690.06 521.45 1685.5 521.45ZM1685.5 515.78C1688.86 515.78 1691.86 515.03 1694.5 513.53C1697.2 511.97 1699.3 509.78 1700.8 506.96C1702.3 504.14 1703.05 500.93 1703.05 497.33C1703.05 493.73 1702.3 490.52 1700.8 487.7C1699.3 484.88 1697.2 482.72 1694.5 481.22C1691.86 479.66 1688.86 478.88 1685.5 478.88C1682.14 478.88 1679.11 479.66 1676.41 481.22C1673.77 482.72 1671.67 484.88 1670.11 487.7C1668.61 490.52 1667.86 493.73 1667.86 497.33C1667.86 500.93 1668.61 504.14 1670.11 506.96C1671.67 509.78 1673.77 511.97 1676.41 513.53C1679.11 515.03 1682.14 515.78 1685.5 515.78ZM1746.69 473.3C1752.63 473.3 1757.34 475.04 1760.82 478.52C1764.36 481.94 1766.13 486.95 1766.13 493.55V521H1759.74V494.18C1759.74 489.26 1758.51 485.51 1756.05 482.93C1753.59 480.35 1750.08 479.06 1745.52 479.06C1740.42 479.06 1736.37 480.59 1733.37 483.65C1730.43 486.65 1728.96 490.82 1728.96 496.16V521H1722.57V473.66H1728.69V482.39C1730.43 479.51 1732.83 477.29 1735.89 475.73C1739.01 474.11 1742.61 473.3 1746.69 473.3ZM1799.14 459.17C1796.38 459.17 1794.28 459.92 1792.84 461.42C1791.46 462.92 1790.77 465.14 1790.77 468.08V473.66H1805.35V479.06H1790.95V521H1784.56V479.06H1776.1V473.66H1784.56V467.81C1784.56 463.49 1785.79 460.07 1788.25 457.55C1790.77 455.03 1794.31 453.77 1798.87 453.77C1800.67 453.77 1802.41 454.04 1804.09 454.58C1805.77 455.06 1807.18 455.78 1808.32 456.74L1806.16 461.51C1804.3 459.95 1801.96 459.17 1799.14 459.17ZM1821.19 473.66H1827.58V521H1821.19V473.66ZM1824.43 463.31C1823.11 463.31 1822 462.86 1821.1 461.96C1820.2 461.06 1819.75 459.98 1819.75 458.72C1819.75 457.52 1820.2 456.47 1821.1 455.57C1822 454.67 1823.11 454.22 1824.43 454.22C1825.75 454.22 1826.86 454.67 1827.76 455.57C1828.66 456.41 1829.11 457.43 1829.11 458.63C1829.11 459.95 1828.66 461.06 1827.76 461.96C1826.86 462.86 1825.75 463.31 1824.43 463.31ZM1862 473.3C1868.18 473.3 1872.92 474.86 1876.22 477.98C1879.52 481.04 1881.17 485.6 1881.17 491.66V521H1875.05V513.62C1873.61 516.08 1871.48 518 1868.66 519.38C1865.9 520.76 1862.6 521.45 1858.76 521.45C1853.48 521.45 1849.28 520.19 1846.16 517.67C1843.04 515.15 1841.48 511.82 1841.48 507.68C1841.48 503.66 1842.92 500.42 1845.8 497.96C1848.74 495.5 1853.39 494.27 1859.75 494.27H1874.78V491.39C1874.78 487.31 1873.64 484.22 1871.36 482.12C1869.08 479.96 1865.75 478.88 1861.37 478.88C1858.37 478.88 1855.49 479.39 1852.73 480.41C1849.97 481.37 1847.6 482.72 1845.62 484.46L1842.74 479.69C1845.14 477.65 1848.02 476.09 1851.38 475.01C1854.74 473.87 1858.28 473.3 1862 473.3ZM1859.75 516.41C1863.35 516.41 1866.44 515.6 1869.02 513.98C1871.6 512.3 1873.52 509.9 1874.78 506.78V499.04H1859.93C1851.83 499.04 1847.78 501.86 1847.78 507.5C1847.78 510.26 1848.83 512.45 1850.93 514.07C1853.03 515.63 1855.97 516.41 1859.75 516.41ZM1868.66 455.12H1877.21L1862.63 466.28H1856.33L1868.66 455.12ZM1937.43 473.66L1916.37 521H1909.8L1888.83 473.66H1895.49L1913.22 513.98L1931.13 473.66H1937.43ZM1986.33 499.31H1946.73C1947.09 504.23 1948.98 508.22 1952.4 511.28C1955.82 514.28 1960.14 515.78 1965.36 515.78C1968.3 515.78 1971 515.27 1973.46 514.25C1975.92 513.17 1978.05 511.61 1979.85 509.57L1983.45 513.71C1981.35 516.23 1978.71 518.15 1975.53 519.47C1972.41 520.79 1968.96 521.45 1965.18 521.45C1960.32 521.45 1956 520.43 1952.22 518.39C1948.5 516.29 1945.59 513.41 1943.49 509.75C1941.39 506.09 1940.34 501.95 1940.34 497.33C1940.34 492.71 1941.33 488.57 1943.31 484.91C1945.35 481.25 1948.11 478.4 1951.59 476.36C1955.13 474.32 1959.09 473.3 1963.47 473.3C1967.85 473.3 1971.78 474.32 1975.26 476.36C1978.74 478.4 1981.47 481.25 1983.45 484.91C1985.43 488.51 1986.42 492.65 1986.42 497.33L1986.33 499.31ZM1963.47 478.79C1958.91 478.79 1955.07 480.26 1951.95 483.2C1948.89 486.08 1947.15 489.86 1946.73 494.54H1980.3C1979.88 489.86 1978.11 486.08 1974.99 483.2C1971.93 480.26 1968.09 478.79 1963.47 478.79ZM1999.43 454.22H2005.82V521H1999.43V454.22Z" fill="white"/>
<line x1="1514" y1="403.5" x2="2112" y2="403.5" stroke="white"/>
<path d="M534.198 313.66V361H528.078V352.36C526.398 355.24 524.088 357.49 521.148 359.11C518.208 360.67 514.848 361.45 511.068 361.45C504.888 361.45 499.998 359.74 496.398 356.32C492.858 352.84 491.088 347.77 491.088 341.11V313.66H497.478V340.48C497.478 345.46 498.708 349.24 501.168 351.82C503.628 354.4 507.138 355.69 511.698 355.69C516.678 355.69 520.608 354.19 523.488 351.19C526.368 348.13 527.808 343.9 527.808 338.5V313.66H534.198ZM564.785 361.45C560.945 361.45 557.255 360.91 553.715 359.83C550.235 358.69 547.505 357.28 545.525 355.6L548.405 350.56C550.385 352.12 552.875 353.41 555.875 354.43C558.875 355.39 561.995 355.87 565.235 355.87C569.555 355.87 572.735 355.21 574.775 353.89C576.875 352.51 577.925 350.59 577.925 348.13C577.925 346.39 577.355 345.04 576.215 344.08C575.075 343.06 573.635 342.31 571.895 341.83C570.155 341.29 567.845 340.78 564.965 340.3C561.125 339.58 558.035 338.86 555.695 338.14C553.355 337.36 551.345 336.07 549.665 334.27C548.045 332.47 547.235 329.98 547.235 326.8C547.235 322.84 548.885 319.6 552.185 317.08C555.485 314.56 560.075 313.3 565.955 313.3C569.015 313.3 572.075 313.72 575.135 314.56C578.195 315.34 580.715 316.39 582.695 317.71L579.905 322.84C576.005 320.14 571.355 318.79 565.955 318.79C561.875 318.79 558.785 319.51 556.685 320.95C554.645 322.39 553.625 324.28 553.625 326.62C553.625 328.42 554.195 329.86 555.335 330.94C556.535 332.02 558.005 332.83 559.745 333.37C561.485 333.85 563.885 334.36 566.945 334.9C570.725 335.62 573.755 336.34 576.035 337.06C578.315 337.78 580.265 339.01 581.885 340.75C583.505 342.49 584.315 344.89 584.315 347.95C584.315 352.09 582.575 355.39 579.095 357.85C575.675 360.25 570.905 361.45 564.785 361.45ZM612.688 313.3C618.868 313.3 623.608 314.86 626.908 317.98C630.208 321.04 631.858 325.6 631.858 331.66V361H625.738V353.62C624.298 356.08 622.168 358 619.348 359.38C616.588 360.76 613.288 361.45 609.448 361.45C604.168 361.45 599.968 360.19 596.848 357.67C593.728 355.15 592.168 351.82 592.168 347.68C592.168 343.66 593.608 340.42 596.488 337.96C599.428 335.5 604.078 334.27 610.438 334.27H625.468V331.39C625.468 327.31 624.328 324.22 622.048 322.12C619.768 319.96 616.438 318.88 612.058 318.88C609.058 318.88 606.178 319.39 603.418 320.41C600.658 321.37 598.288 322.72 596.308 324.46L593.428 319.69C595.828 317.65 598.708 316.09 602.068 315.01C605.428 313.87 608.968 313.3 612.688 313.3ZM610.438 356.41C614.038 356.41 617.128 355.6 619.708 353.98C622.288 352.3 624.208 349.9 625.468 346.78V339.04H610.618C602.518 339.04 598.468 341.86 598.468 347.5C598.468 350.26 599.518 352.45 601.618 354.07C603.718 355.63 606.658 356.41 610.438 356.41ZM619.348 295.12H627.898L613.318 306.28H607.018L619.348 295.12ZM688.115 313.66L667.055 361H660.485L639.515 313.66H646.175L663.905 353.98L681.815 313.66H688.115ZM737.016 339.31H697.416C697.776 344.23 699.666 348.22 703.086 351.28C706.506 354.28 710.826 355.78 716.046 355.78C718.986 355.78 721.686 355.27 724.146 354.25C726.606 353.17 728.736 351.61 730.536 349.57L734.136 353.71C732.036 356.23 729.396 358.15 726.216 359.47C723.096 360.79 719.646 361.45 715.866 361.45C711.006 361.45 706.686 360.43 702.906 358.39C699.186 356.29 696.276 353.41 694.176 349.75C692.076 346.09 691.026 341.95 691.026 337.33C691.026 332.71 692.016 328.57 693.996 324.91C696.036 321.25 698.796 318.4 702.276 316.36C705.816 314.32 709.776 313.3 714.156 313.3C718.536 313.3 722.466 314.32 725.946 316.36C729.426 318.4 732.156 321.25 734.136 324.91C736.116 328.51 737.106 332.65 737.106 337.33L737.016 339.31ZM714.156 318.79C709.596 318.79 705.756 320.26 702.636 323.2C699.576 326.08 697.836 329.86 697.416 334.54H730.986C730.566 329.86 728.796 326.08 725.676 323.2C722.616 320.26 718.776 318.79 714.156 318.79ZM750.112 294.22H756.502V361H750.112V294.22Z" fill="white"/>
<line x1="442" y1="243.5" x2="810" y2="243.5" stroke="white"/>
<path d="M1721.2 313.66V361H1715.08V352.36C1713.4 355.24 1711.09 357.49 1708.15 359.11C1705.21 360.67 1701.85 361.45 1698.07 361.45C1691.89 361.45 1687 359.74 1683.4 356.32C1679.86 352.84 1678.09 347.77 1678.09 341.11V313.66H1684.48V340.48C1684.48 345.46 1685.71 349.24 1688.17 351.82C1690.63 354.4 1694.14 355.69 1698.7 355.69C1703.68 355.69 1707.61 354.19 1710.49 351.19C1713.37 348.13 1714.81 343.9 1714.81 338.5V313.66H1721.2ZM1751.78 361.45C1747.94 361.45 1744.25 360.91 1740.71 359.83C1737.23 358.69 1734.5 357.28 1732.52 355.6L1735.4 350.56C1737.38 352.12 1739.87 353.41 1742.87 354.43C1745.87 355.39 1748.99 355.87 1752.23 355.87C1756.55 355.87 1759.73 355.21 1761.77 353.89C1763.87 352.51 1764.92 350.59 1764.92 348.13C1764.92 346.39 1764.35 345.04 1763.21 344.08C1762.07 343.06 1760.63 342.31 1758.89 341.83C1757.15 341.29 1754.84 340.78 1751.96 340.3C1748.12 339.58 1745.03 338.86 1742.69 338.14C1740.35 337.36 1738.34 336.07 1736.66 334.27C1735.04 332.47 1734.23 329.98 1734.23 326.8C1734.23 322.84 1735.88 319.6 1739.18 317.08C1742.48 314.56 1747.07 313.3 1752.95 313.3C1756.01 313.3 1759.07 313.72 1762.13 314.56C1765.19 315.34 1767.71 316.39 1769.69 317.71L1766.9 322.84C1763 320.14 1758.35 318.79 1752.95 318.79C1748.87 318.79 1745.78 319.51 1743.68 320.95C1741.64 322.39 1740.62 324.28 1740.62 326.62C1740.62 328.42 1741.19 329.86 1742.33 330.94C1743.53 332.02 1745 332.83 1746.74 333.37C1748.48 333.85 1750.88 334.36 1753.94 334.9C1757.72 335.62 1760.75 336.34 1763.03 337.06C1765.31 337.78 1767.26 339.01 1768.88 340.75C1770.5 342.49 1771.31 344.89 1771.31 347.95C1771.31 352.09 1769.57 355.39 1766.09 357.85C1762.67 360.25 1757.9 361.45 1751.78 361.45ZM1799.69 313.3C1805.87 313.3 1810.61 314.86 1813.91 317.98C1817.21 321.04 1818.86 325.6 1818.86 331.66V361H1812.74V353.62C1811.3 356.08 1809.17 358 1806.35 359.38C1803.59 360.76 1800.29 361.45 1796.45 361.45C1791.17 361.45 1786.97 360.19 1783.85 357.67C1780.73 355.15 1779.17 351.82 1779.17 347.68C1779.17 343.66 1780.61 340.42 1783.49 337.96C1786.43 335.5 1791.08 334.27 1797.44 334.27H1812.47V331.39C1812.47 327.31 1811.33 324.22 1809.05 322.12C1806.77 319.96 1803.44 318.88 1799.06 318.88C1796.06 318.88 1793.18 319.39 1790.42 320.41C1787.66 321.37 1785.29 322.72 1783.31 324.46L1780.43 319.69C1782.83 317.65 1785.71 316.09 1789.07 315.01C1792.43 313.87 1795.97 313.3 1799.69 313.3ZM1797.44 356.41C1801.04 356.41 1804.13 355.6 1806.71 353.98C1809.29 352.3 1811.21 349.9 1812.47 346.78V339.04H1797.62C1789.52 339.04 1785.47 341.86 1785.47 347.5C1785.47 350.26 1786.52 352.45 1788.62 354.07C1790.72 355.63 1793.66 356.41 1797.44 356.41ZM1806.35 295.12H1814.9L1800.32 306.28H1794.02L1806.35 295.12ZM1875.11 313.66L1854.05 361H1847.48L1826.51 313.66H1833.17L1850.9 353.98L1868.81 313.66H1875.11ZM1924.02 339.31H1884.42C1884.78 344.23 1886.67 348.22 1890.09 351.28C1893.51 354.28 1897.83 355.78 1903.05 355.78C1905.99 355.78 1908.69 355.27 1911.15 354.25C1913.61 353.17 1915.74 351.61 1917.54 349.57L1921.14 353.71C1919.04 356.23 1916.4 358.15 1913.22 359.47C1910.1 360.79 1906.65 361.45 1902.87 361.45C1898.01 361.45 1893.69 360.43 1889.91 358.39C1886.19 356.29 1883.28 353.41 1881.18 349.75C1879.08 346.09 1878.03 341.95 1878.03 337.33C1878.03 332.71 1879.02 328.57 1881 324.91C1883.04 321.25 1885.8 318.4 1889.28 316.36C1892.82 314.32 1896.78 313.3 1901.16 313.3C1905.54 313.3 1909.47 314.32 1912.95 316.36C1916.43 318.4 1919.16 321.25 1921.14 324.91C1923.12 328.51 1924.11 332.65 1924.11 337.33L1924.02 339.31ZM1901.16 318.79C1896.6 318.79 1892.76 320.26 1889.64 323.2C1886.58 326.08 1884.84 329.86 1884.42 334.54H1917.99C1917.57 329.86 1915.8 326.08 1912.68 323.2C1909.62 320.26 1905.78 318.79 1901.16 318.79ZM1937.11 294.22H1943.5V361H1937.11V294.22Z" fill="white"/>
<path d="M467.853 122.22V189H461.733V179.64C459.813 182.82 457.263 185.25 454.083 186.93C450.963 188.61 447.423 189.45 443.463 189.45C439.023 189.45 435.003 188.43 431.403 186.39C427.803 184.35 424.983 181.5 422.943 177.84C420.903 174.18 419.883 170.01 419.883 165.33C419.883 160.65 420.903 156.48 422.943 152.82C424.983 149.16 427.803 146.34 431.403 144.36C435.003 142.32 439.023 141.3 443.463 141.3C447.303 141.3 450.753 142.11 453.813 143.73C456.933 145.29 459.483 147.6 461.463 150.66V122.22H467.853ZM444.003 183.78C447.303 183.78 450.273 183.03 452.913 181.53C455.613 179.97 457.713 177.78 459.213 174.96C460.773 172.14 461.553 168.93 461.553 165.33C461.553 161.73 460.773 158.52 459.213 155.7C457.713 152.88 455.613 150.72 452.913 149.22C450.273 147.66 447.303 146.88 444.003 146.88C440.643 146.88 437.613 147.66 434.913 149.22C432.273 150.72 430.173 152.88 428.613 155.7C427.113 158.52 426.363 161.73 426.363 165.33C426.363 168.93 427.113 172.14 428.613 174.96C430.173 177.78 432.273 179.97 434.913 181.53C437.613 183.03 440.643 183.78 444.003 183.78ZM526.869 167.31H487.269C487.629 172.23 489.519 176.22 492.939 179.28C496.359 182.28 500.679 183.78 505.899 183.78C508.839 183.78 511.539 183.27 513.999 182.25C516.459 181.17 518.589 179.61 520.389 177.57L523.989 181.71C521.889 184.23 519.249 186.15 516.069 187.47C512.949 188.79 509.499 189.45 505.719 189.45C500.859 189.45 496.539 188.43 492.759 186.39C489.039 184.29 486.129 181.41 484.029 177.75C481.929 174.09 480.879 169.95 480.879 165.33C480.879 160.71 481.869 156.57 483.849 152.91C485.889 149.25 488.649 146.4 492.129 144.36C495.669 142.32 499.629 141.3 504.009 141.3C508.389 141.3 512.319 142.32 515.799 144.36C519.279 146.4 522.009 149.25 523.989 152.91C525.969 156.51 526.959 160.65 526.959 165.33L526.869 167.31ZM504.009 146.79C499.449 146.79 495.609 148.26 492.489 151.2C489.429 154.08 487.689 157.86 487.269 162.54H520.839C520.419 157.86 518.649 154.08 515.529 151.2C512.469 148.26 508.629 146.79 504.009 146.79ZM552.656 189.45C548.816 189.45 545.126 188.91 541.586 187.83C538.106 186.69 535.376 185.28 533.396 183.6L536.276 178.56C538.256 180.12 540.746 181.41 543.746 182.43C546.746 183.39 549.866 183.87 553.106 183.87C557.426 183.87 560.606 183.21 562.646 181.89C564.746 180.51 565.796 178.59 565.796 176.13C565.796 174.39 565.226 173.04 564.086 172.08C562.946 171.06 561.506 170.31 559.766 169.83C558.026 169.29 555.716 168.78 552.836 168.3C548.996 167.58 545.906 166.86 543.566 166.14C541.226 165.36 539.216 164.07 537.536 162.27C535.916 160.47 535.106 157.98 535.106 154.8C535.106 150.84 536.756 147.6 540.056 145.08C543.356 142.56 547.946 141.3 553.826 141.3C556.886 141.3 559.946 141.72 563.006 142.56C566.066 143.34 568.586 144.39 570.566 145.71L567.776 150.84C563.876 148.14 559.226 146.79 553.826 146.79C549.746 146.79 546.656 147.51 544.556 148.95C542.516 150.39 541.496 152.28 541.496 154.62C541.496 156.42 542.066 157.86 543.206 158.94C544.406 160.02 545.876 160.83 547.616 161.37C549.356 161.85 551.756 162.36 554.816 162.9C558.596 163.62 561.626 164.34 563.906 165.06C566.186 165.78 568.136 167.01 569.756 168.75C571.376 170.49 572.186 172.89 572.186 175.95C572.186 180.09 570.446 183.39 566.966 185.85C563.546 188.25 558.776 189.45 552.656 189.45ZM625.219 167.31H585.619C585.979 172.23 587.869 176.22 591.289 179.28C594.709 182.28 599.029 183.78 604.249 183.78C607.189 183.78 609.889 183.27 612.349 182.25C614.809 181.17 616.939 179.61 618.739 177.57L622.339 181.71C620.239 184.23 617.599 186.15 614.419 187.47C611.299 188.79 607.849 189.45 604.069 189.45C599.209 189.45 594.889 188.43 591.109 186.39C587.389 184.29 584.479 181.41 582.379 177.75C580.279 174.09 579.229 169.95 579.229 165.33C579.229 160.71 580.219 156.57 582.199 152.91C584.239 149.25 586.999 146.4 590.479 144.36C594.019 142.32 597.979 141.3 602.359 141.3C606.739 141.3 610.669 142.32 614.149 144.36C617.629 146.4 620.359 149.25 622.339 152.91C624.319 156.51 625.309 160.65 625.309 165.33L625.219 167.31ZM602.359 146.79C597.799 146.79 593.959 148.26 590.839 151.2C587.779 154.08 586.039 157.86 585.619 162.54H619.189C618.769 157.86 616.999 154.08 613.879 151.2C610.819 148.26 606.979 146.79 602.359 146.79ZM631.295 206.91C629.315 206.91 627.455 206.64 625.715 206.1C623.915 205.62 622.445 204.87 621.305 203.85L623.555 198.99C625.415 200.61 627.875 201.42 630.935 201.42C633.455 201.42 635.375 200.67 636.695 199.17C638.075 197.67 638.765 195.45 638.765 192.51V141.66H645.155V192.51C645.155 196.95 643.955 200.46 641.555 203.04C639.155 205.62 635.735 206.91 631.295 206.91ZM642.005 131.22C640.685 131.22 639.575 130.77 638.675 129.87C637.775 128.97 637.325 127.89 637.325 126.63C637.325 125.43 637.775 124.38 638.675 123.48C639.575 122.58 640.685 122.13 642.005 122.13C643.325 122.13 644.435 122.58 645.335 123.48C646.235 124.32 646.685 125.34 646.685 126.54C646.685 127.86 646.235 128.97 645.335 129.87C644.435 130.77 643.325 131.22 642.005 131.22ZM679.573 141.3C685.753 141.3 690.493 142.86 693.793 145.98C697.093 149.04 698.743 153.6 698.743 159.66V189H692.623V181.62C691.183 184.08 689.053 186 686.233 187.38C683.473 188.76 680.173 189.45 676.333 189.45C671.053 189.45 666.853 188.19 663.733 185.67C660.613 183.15 659.053 179.82 659.053 175.68C659.053 171.66 660.493 168.42 663.373 165.96C666.313 163.5 670.963 162.27 677.323 162.27H692.353V159.39C692.353 155.31 691.213 152.22 688.933 150.12C686.653 147.96 683.323 146.88 678.943 146.88C675.943 146.88 673.063 147.39 670.303 148.41C667.543 149.37 665.173 150.72 663.193 152.46L660.313 147.69C662.713 145.65 665.593 144.09 668.953 143.01C672.313 141.87 675.853 141.3 679.573 141.3ZM677.323 184.41C680.923 184.41 684.013 183.6 686.593 181.98C689.173 180.3 691.093 177.9 692.353 174.78V167.04H677.503C669.403 167.04 665.353 169.86 665.353 175.5C665.353 178.26 666.403 180.45 668.503 182.07C670.603 183.63 673.543 184.41 677.323 184.41ZM686.233 123.12H694.783L680.203 134.28H673.903L686.233 123.12ZM755 141.66L733.94 189H727.37L706.4 141.66H713.06L730.79 181.98L748.7 141.66H755ZM803.901 167.31H764.301C764.661 172.23 766.551 176.22 769.971 179.28C773.391 182.28 777.711 183.78 782.931 183.78C785.871 183.78 788.571 183.27 791.031 182.25C793.491 181.17 795.621 179.61 797.421 177.57L801.021 181.71C798.921 184.23 796.281 186.15 793.101 187.47C789.981 188.79 786.531 189.45 782.751 189.45C777.891 189.45 773.571 188.43 769.791 186.39C766.071 184.29 763.161 181.41 761.061 177.75C758.961 174.09 757.911 169.95 757.911 165.33C757.911 160.71 758.901 156.57 760.881 152.91C762.921 149.25 765.681 146.4 769.161 144.36C772.701 142.32 776.661 141.3 781.041 141.3C785.421 141.3 789.351 142.32 792.831 144.36C796.311 146.4 799.041 149.25 801.021 152.91C803.001 156.51 803.991 160.65 803.991 165.33L803.901 167.31ZM781.041 146.79C776.481 146.79 772.641 148.26 769.521 151.2C766.461 154.08 764.721 157.86 764.301 162.54H797.871C797.451 157.86 795.681 154.08 792.561 151.2C789.501 148.26 785.661 146.79 781.041 146.79ZM816.997 122.22H823.387V189H816.997V122.22Z" fill="white"/>
<path d="M1654.85 122.22V189H1648.73V179.64C1646.81 182.82 1644.26 185.25 1641.08 186.93C1637.96 188.61 1634.42 189.45 1630.46 189.45C1626.02 189.45 1622 188.43 1618.4 186.39C1614.8 184.35 1611.98 181.5 1609.94 177.84C1607.9 174.18 1606.88 170.01 1606.88 165.33C1606.88 160.65 1607.9 156.48 1609.94 152.82C1611.98 149.16 1614.8 146.34 1618.4 144.36C1622 142.32 1626.02 141.3 1630.46 141.3C1634.3 141.3 1637.75 142.11 1640.81 143.73C1643.93 145.29 1646.48 147.6 1648.46 150.66V122.22H1654.85ZM1631 183.78C1634.3 183.78 1637.27 183.03 1639.91 181.53C1642.61 179.97 1644.71 177.78 1646.21 174.96C1647.77 172.14 1648.55 168.93 1648.55 165.33C1648.55 161.73 1647.77 158.52 1646.21 155.7C1644.71 152.88 1642.61 150.72 1639.91 149.22C1637.27 147.66 1634.3 146.88 1631 146.88C1627.64 146.88 1624.61 147.66 1621.91 149.22C1619.27 150.72 1617.17 152.88 1615.61 155.7C1614.11 158.52 1613.36 161.73 1613.36 165.33C1613.36 168.93 1614.11 172.14 1615.61 174.96C1617.17 177.78 1619.27 179.97 1621.91 181.53C1624.61 183.03 1627.64 183.78 1631 183.78ZM1713.87 167.31H1674.27C1674.63 172.23 1676.52 176.22 1679.94 179.28C1683.36 182.28 1687.68 183.78 1692.9 183.78C1695.84 183.78 1698.54 183.27 1701 182.25C1703.46 181.17 1705.59 179.61 1707.39 177.57L1710.99 181.71C1708.89 184.23 1706.25 186.15 1703.07 187.47C1699.95 188.79 1696.5 189.45 1692.72 189.45C1687.86 189.45 1683.54 188.43 1679.76 186.39C1676.04 184.29 1673.13 181.41 1671.03 177.75C1668.93 174.09 1667.88 169.95 1667.88 165.33C1667.88 160.71 1668.87 156.57 1670.85 152.91C1672.89 149.25 1675.65 146.4 1679.13 144.36C1682.67 142.32 1686.63 141.3 1691.01 141.3C1695.39 141.3 1699.32 142.32 1702.8 144.36C1706.28 146.4 1709.01 149.25 1710.99 152.91C1712.97 156.51 1713.96 160.65 1713.96 165.33L1713.87 167.31ZM1691.01 146.79C1686.45 146.79 1682.61 148.26 1679.49 151.2C1676.43 154.08 1674.69 157.86 1674.27 162.54H1707.84C1707.42 157.86 1705.65 154.08 1702.53 151.2C1699.47 148.26 1695.63 146.79 1691.01 146.79ZM1739.66 189.45C1735.82 189.45 1732.13 188.91 1728.59 187.83C1725.11 186.69 1722.38 185.28 1720.4 183.6L1723.28 178.56C1725.26 180.12 1727.75 181.41 1730.75 182.43C1733.75 183.39 1736.87 183.87 1740.11 183.87C1744.43 183.87 1747.61 183.21 1749.65 181.89C1751.75 180.51 1752.8 178.59 1752.8 176.13C1752.8 174.39 1752.23 173.04 1751.09 172.08C1749.95 171.06 1748.51 170.31 1746.77 169.83C1745.03 169.29 1742.72 168.78 1739.84 168.3C1736 167.58 1732.91 166.86 1730.57 166.14C1728.23 165.36 1726.22 164.07 1724.54 162.27C1722.92 160.47 1722.11 157.98 1722.11 154.8C1722.11 150.84 1723.76 147.6 1727.06 145.08C1730.36 142.56 1734.95 141.3 1740.83 141.3C1743.89 141.3 1746.95 141.72 1750.01 142.56C1753.07 143.34 1755.59 144.39 1757.57 145.71L1754.78 150.84C1750.88 148.14 1746.23 146.79 1740.83 146.79C1736.75 146.79 1733.66 147.51 1731.56 148.95C1729.52 150.39 1728.5 152.28 1728.5 154.62C1728.5 156.42 1729.07 157.86 1730.21 158.94C1731.41 160.02 1732.88 160.83 1734.62 161.37C1736.36 161.85 1738.76 162.36 1741.82 162.9C1745.6 163.62 1748.63 164.34 1750.91 165.06C1753.19 165.78 1755.14 167.01 1756.76 168.75C1758.38 170.49 1759.19 172.89 1759.19 175.95C1759.19 180.09 1757.45 183.39 1753.97 185.85C1750.55 188.25 1745.78 189.45 1739.66 189.45ZM1812.22 167.31H1772.62C1772.98 172.23 1774.87 176.22 1778.29 179.28C1781.71 182.28 1786.03 183.78 1791.25 183.78C1794.19 183.78 1796.89 183.27 1799.35 182.25C1801.81 181.17 1803.94 179.61 1805.74 177.57L1809.34 181.71C1807.24 184.23 1804.6 186.15 1801.42 187.47C1798.3 188.79 1794.85 189.45 1791.07 189.45C1786.21 189.45 1781.89 188.43 1778.11 186.39C1774.39 184.29 1771.48 181.41 1769.38 177.75C1767.28 174.09 1766.23 169.95 1766.23 165.33C1766.23 160.71 1767.22 156.57 1769.2 152.91C1771.24 149.25 1774 146.4 1777.48 144.36C1781.02 142.32 1784.98 141.3 1789.36 141.3C1793.74 141.3 1797.67 142.32 1801.15 144.36C1804.63 146.4 1807.36 149.25 1809.34 152.91C1811.32 156.51 1812.31 160.65 1812.31 165.33L1812.22 167.31ZM1789.36 146.79C1784.8 146.79 1780.96 148.26 1777.84 151.2C1774.78 154.08 1773.04 157.86 1772.62 162.54H1806.19C1805.77 157.86 1804 154.08 1800.88 151.2C1797.82 148.26 1793.98 146.79 1789.36 146.79ZM1818.3 206.91C1816.32 206.91 1814.46 206.64 1812.72 206.1C1810.92 205.62 1809.45 204.87 1808.31 203.85L1810.56 198.99C1812.42 200.61 1814.88 201.42 1817.94 201.42C1820.46 201.42 1822.38 200.67 1823.7 199.17C1825.08 197.67 1825.77 195.45 1825.77 192.51V141.66H1832.16V192.51C1832.16 196.95 1830.96 200.46 1828.56 203.04C1826.16 205.62 1822.74 206.91 1818.3 206.91ZM1829.01 131.22C1827.69 131.22 1826.58 130.77 1825.68 129.87C1824.78 128.97 1824.33 127.89 1824.33 126.63C1824.33 125.43 1824.78 124.38 1825.68 123.48C1826.58 122.58 1827.69 122.13 1829.01 122.13C1830.33 122.13 1831.44 122.58 1832.34 123.48C1833.24 124.32 1833.69 125.34 1833.69 126.54C1833.69 127.86 1833.24 128.97 1832.34 129.87C1831.44 130.77 1830.33 131.22 1829.01 131.22ZM1866.57 141.3C1872.75 141.3 1877.49 142.86 1880.79 145.98C1884.09 149.04 1885.74 153.6 1885.74 159.66V189H1879.62V181.62C1878.18 184.08 1876.05 186 1873.23 187.38C1870.47 188.76 1867.17 189.45 1863.33 189.45C1858.05 189.45 1853.85 188.19 1850.73 185.67C1847.61 183.15 1846.05 179.82 1846.05 175.68C1846.05 171.66 1847.49 168.42 1850.37 165.96C1853.31 163.5 1857.96 162.27 1864.32 162.27H1879.35V159.39C1879.35 155.31 1878.21 152.22 1875.93 150.12C1873.65 147.96 1870.32 146.88 1865.94 146.88C1862.94 146.88 1860.06 147.39 1857.3 148.41C1854.54 149.37 1852.17 150.72 1850.19 152.46L1847.31 147.69C1849.71 145.65 1852.59 144.09 1855.95 143.01C1859.31 141.87 1862.85 141.3 1866.57 141.3ZM1864.32 184.41C1867.92 184.41 1871.01 183.6 1873.59 181.98C1876.17 180.3 1878.09 177.9 1879.35 174.78V167.04H1864.5C1856.4 167.04 1852.35 169.86 1852.35 175.5C1852.35 178.26 1853.4 180.45 1855.5 182.07C1857.6 183.63 1860.54 184.41 1864.32 184.41ZM1873.23 123.12H1881.78L1867.2 134.28H1860.9L1873.23 123.12ZM1942 141.66L1920.94 189H1914.37L1893.4 141.66H1900.06L1917.79 181.98L1935.7 141.66H1942ZM1990.9 167.31H1951.3C1951.66 172.23 1953.55 176.22 1956.97 179.28C1960.39 182.28 1964.71 183.78 1969.93 183.78C1972.87 183.78 1975.57 183.27 1978.03 182.25C1980.49 181.17 1982.62 179.61 1984.42 177.57L1988.02 181.71C1985.92 184.23 1983.28 186.15 1980.1 187.47C1976.98 188.79 1973.53 189.45 1969.75 189.45C1964.89 189.45 1960.57 188.43 1956.79 186.39C1953.07 184.29 1950.16 181.41 1948.06 177.75C1945.96 174.09 1944.91 169.95 1944.91 165.33C1944.91 160.71 1945.9 156.57 1947.88 152.91C1949.92 149.25 1952.68 146.4 1956.16 144.36C1959.7 142.32 1963.66 141.3 1968.04 141.3C1972.42 141.3 1976.35 142.32 1979.83 144.36C1983.31 146.4 1986.04 149.25 1988.02 152.91C1990 156.51 1990.99 160.65 1990.99 165.33L1990.9 167.31ZM1968.04 146.79C1963.48 146.79 1959.64 148.26 1956.52 151.2C1953.46 154.08 1951.72 157.86 1951.3 162.54H1984.87C1984.45 157.86 1982.68 154.08 1979.56 151.2C1976.5 148.26 1972.66 146.79 1968.04 146.79ZM2004 122.22H2010.39V189H2004V122.22Z" fill="white"/>
<path d="M1172 285V348H1165.61V297.6L1140.86 339.99H1137.71L1112.96 297.87V348H1106.57V285H1112.06L1139.42 331.71L1166.51 285H1172ZM1244.21 285L1216.31 348H1209.74L1181.84 285H1189.04L1213.16 339.72L1237.46 285H1244.21ZM1276.93 285C1284.97 285 1291.27 286.92 1295.83 290.76C1300.39 294.6 1302.67 299.88 1302.67 306.6C1302.67 313.32 1300.39 318.6 1295.83 322.44C1291.27 326.22 1284.97 328.11 1276.93 328.11H1260.01V348H1253.35V285H1276.93ZM1276.75 322.26C1282.99 322.26 1287.76 320.91 1291.06 318.21C1294.36 315.45 1296.01 311.58 1296.01 306.6C1296.01 301.5 1294.36 297.6 1291.06 294.9C1287.76 292.14 1282.99 290.76 1276.75 290.76H1260.01V322.26H1276.75Z" fill="white"/>
<line x1="1634" y1="243.5" x2="1992" y2="243.5" stroke="white"/>
<rect x="688.962" y="822" width="38" height="168" transform="rotate(45 688.962 822)" fill="white"/>
<rect x="570.168" y="848.87" width="38" height="168" transform="rotate(-45 570.168 848.87)" fill="white"/>
<rect x="1908.7" y="816" width="38" height="209.934" transform="rotate(54.695 1908.7 816)" fill="white"/>
<rect x="1680" y="855.779" width="38" height="137.978" transform="rotate(-34.9687 1680 855.779)" fill="white"/>
</svg>
