<svg width="427" height="355" viewBox="0 0 427 355" fill="none" xmlns="http://www.w3.org/2000/svg">
<rect width="70" height="16" transform="translate(9)" fill="white"/>
<rect width="47" height="16" transform="translate(9 24)" fill="white"/>
<rect width="35" height="16" transform="translate(172)" fill="white"/>
<rect width="70" height="16" transform="translate(172 24)" fill="white"/>
<rect width="73" height="16" transform="translate(326)" fill="white"/>
<rect width="83" height="16" transform="translate(326 24)" fill="white"/>
<rect width="70" height="16" transform="translate(152 315)" fill="white"/>
<rect width="47" height="16" transform="translate(152 339)" fill="white"/>
<rect width="42" height="89" transform="translate(14 130)" fill="white" fill-opacity="0.5"/>
<rect x="3.5" y="3.5" width="115" height="180" transform="translate(0 48)" stroke="white" stroke-width="7"/>
<rect width="108" height="67" transform="translate(7 55)" fill="white" fill-opacity="0.5"/>
<rect width="36" height="15" transform="translate(69 132)" fill="white" fill-opacity="0.5"/>
<rect width="36" height="15" transform="translate(69 157)" fill="white" fill-opacity="0.5"/>
<rect width="36" height="15" transform="translate(69 182)" fill="white" fill-opacity="0.5"/>
<circle cx="6" cy="6" r="6" transform="translate(40 187) rotate(90)" fill="white"/>
<line y1="-2" x2="11" y2="-2" transform="translate(32 196) rotate(90)" stroke="white" stroke-width="4"/>
<circle cx="6" cy="6" r="6" transform="translate(53 94)" fill="white"/>
<line y1="-2" x2="11" y2="-2" transform="translate(62 102)" stroke="white" stroke-width="4"/>
<line y1="-2" x2="13" y2="-2" transform="translate(177 102)" stroke="white" stroke-width="4"/>
<path d="M6 0L11.1962 9L0.803848 9L6 0Z" transform="translate(196 94) rotate(90)" fill="white"/>
<rect width="35" height="12" transform="translate(179 123)" fill="white" fill-opacity="0.5"/>
<circle cx="16.5" cy="16.5" r="16.5" transform="translate(223 83)" fill="#BFBFBF"/>
<rect width="100" height="45" transform="translate(164 55)" fill="white" fill-opacity="0.5"/>
<rect x="3.5" y="3.5" width="107" height="87" transform="translate(157 48)" stroke="white" stroke-width="7"/>
<circle cx="6" cy="6" r="6" transform="translate(234 94)" fill="white"/>
<line y1="-2" x2="11" y2="-2" transform="translate(243 102)" stroke="white" stroke-width="4"/>
<line y1="-2" x2="110" y2="-2" transform="translate(73 102)" stroke="white" stroke-width="4"/>
<line y1="-2" x2="79" y2="-2" transform="translate(247 102)" stroke="white" stroke-width="4"/>
<line y1="-2" x2="120" y2="-2" transform="translate(33 292)" stroke="white" stroke-width="4"/>
<line y1="-2" x2="89" y2="-2" transform="translate(36 292) rotate(-90)" stroke="white" stroke-width="4"/>
<rect width="101" height="42" transform="translate(319 147)" fill="white" fill-opacity="0.5"/>
<rect width="36" height="15" transform="translate(326 118)" fill="white" fill-opacity="0.5"/>
<rect width="36" height="15" transform="translate(326 99)" fill="white" fill-opacity="0.5"/>
<rect width="36" height="15" transform="translate(326 80)" fill="white" fill-opacity="0.5"/>
<rect width="36" height="15" transform="translate(326 61)" fill="white" fill-opacity="0.5"/>
<rect x="3.5" y="3.5" width="108" height="141" transform="translate(312 48)" stroke="white" stroke-width="7"/>
<line y1="-2" x2="13" y2="-2" transform="translate(365 165)" stroke="white" stroke-width="4"/>
<path d="M6 0L11.1962 9L0.803848 9L6 0Z" transform="translate(384 157) rotate(90)" fill="white"/>
<line y1="-2" x2="13" y2="-2" transform="translate(319 102)" stroke="white" stroke-width="4"/>
<path d="M6 0L11.1962 9L0.803848 9L6 0Z" transform="translate(338 94) rotate(90)" fill="white"/>
<rect width="25" height="16" transform="translate(157 278)" fill="white" fill-opacity="0.5"/>
<rect width="25" height="16" transform="translate(189 278)" fill="white" fill-opacity="0.5"/>
<line y1="-2" x2="78" y2="-2" transform="translate(147 272)" stroke="white" stroke-width="4"/>
<rect x="3.5" y="3.5" width="82" height="64" transform="translate(141 235)" stroke="white" stroke-width="7"/>
<rect width="54" height="11" transform="translate(159 250)" fill="white" fill-opacity="0.5"/>
<line y1="-2" x2="178" y2="-2" transform="translate(366 161) rotate(180)" stroke="white" stroke-width="4" stroke-dasharray="8 4"/>
<line y1="-2" x2="95" y2="-2" transform="translate(188 256) rotate(-90)" stroke="white" stroke-width="4" stroke-dasharray="8 4"/>
<line y1="-2" x2="13" y2="-2" transform="translate(146 292)" stroke="white" stroke-width="4"/>
<path d="M6 0L11.1962 9L0.803848 9L6 0Z" transform="translate(165 284) rotate(90)" fill="white"/>
</svg>
