<svg width="4176" height="1520" viewBox="0 0 4176 1520" fill="none" xmlns="http://www.w3.org/2000/svg">
<g clip-path="url(#clip0)">
<rect width="4176" height="1520" fill="#434343"/>
<rect x="2472" y="96" width="152" height="96" fill="#B9E212"/>
<rect x="2692" y="96" width="344" height="96" fill="#B9E212"/>
<rect x="2624" y="252" width="480" height="96" fill="#B9E212"/>
<rect x="2624" y="1032" width="432" height="96" fill="#B9E212"/>
<rect x="2476" y="1188" width="288" height="96" fill="#B9E212"/>
<rect x="2472" y="1344" width="288" height="96" fill="#B9E212"/>
<rect x="2832" y="1188" width="204" height="96" fill="#B9E212"/>
<rect x="3100" y="1188" width="204" height="96" fill="#B9E212"/>
<rect x="3164" y="252" width="344" height="96" fill="#B9E212"/>
<rect x="2764" y="720" width="480" height="96" fill="#B9E212"/>
<rect x="3304" y="720" width="344" height="96" fill="#B9E212"/>
<rect x="3568" y="252" width="120" height="96" fill="#B9E212"/>
<rect x="2624" y="408" width="280" height="96" fill="#B9E212"/>
<rect x="2976" y="408" width="188" height="96" fill="#B9E212"/>
<rect x="2624" y="564" width="201" height="96" fill="#B9E212"/>
<rect x="2877" y="564" width="135" height="96" fill="#B9E212"/>
<rect x="3236" y="408" width="120" height="96" fill="#B9E212"/>
<rect x="3428" y="408" width="440" height="96" fill="#B9E212"/>
<rect x="3936" y="408" width="108" height="96" fill="#B9E212"/>
<rect x="2764" y="876" width="440" height="96" fill="#B9E212"/>
<rect x="3272" y="876" width="108" height="96" fill="#B9E212"/>
<rect x="1973" y="456" width="488" height="488" fill="#12E2A4"/>
<path d="M1874 538L2343.39 1351H1404.61L1874 538Z" fill="#F8A3FF"/>
<circle cx="1275" cy="1149" r="209" fill="#C4C4C4"/>
</g>
<defs>
<clipPath id="clip0">
<rect width="4176" height="1520" fill="white"/>
</clipPath>
</defs>
</svg>
