<svg width="207" height="158" viewBox="0 0 207 158" fill="none" xmlns="http://www.w3.org/2000/svg">
<path fill-rule="evenodd" clip-rule="evenodd" d="M50 0H0V55V63V106H12V63H19V106H31H43V63H50H55V106H67V63V55H50V0Z" transform="translate(0 52)" fill="white"/>
<circle cx="16.5" cy="16.5" r="16.5" transform="translate(17 7)" fill="white"/>
<path d="M53 0C48.6667 0.666667 34.6 2.4 13 4C10.8333 4.83333 5.6 7.2 2 10C-2.5 13.5 2 28.5 2 37.5C2 46.5 13 59.5 13 63C13 66.5 39.5 63 32 67C24.5 71 32.5 76.5 32 82.5C31.5 88.5 53 76.5 58.5 76.5C64 76.5 61 115 61 115L80.5 110C80.5 110 78.3333 85.5 76 72.5C79.8333 70.5 88 65.8 90 63C92.5 59.5 88.5 54 87.5 49.5C86.5 45 65.5 52.5 61 54C57.4 55.2 56.1667 51.5 56 49.5L51 35.5C53.3333 39.5 57.4483 41.6954 61 44.5C69.5 51.212 70.5 43.5 76 40.5C78 39.4091 65 32.5 61 28.5C57.5824 25.0824 53.8333 8.66667 53 0Z" transform="translate(10 42)" fill="white"/>
<rect width="27.5687" height="15.2847" transform="translate(68.6064 89.9421) rotate(-37.9185)" fill="white"/>
<path fill-rule="evenodd" clip-rule="evenodd" d="M50.5908 0H0V55V63V106H12.1416V63H19.2246V106H31.3662H43.5078V63H50.5908H55.6494V106H67.791L67.792 63V55H50.5908V0Z" transform="translate(206.884 52) scale(-1 1)" fill="white"/>
<ellipse cx="16.6949" cy="16.5" rx="16.6949" ry="16.5" transform="translate(189.683 7) scale(-1 1)" fill="white"/>
<ellipse cx="16.6949" cy="16.5" rx="16.6949" ry="16.5" transform="translate(132.449) scale(-1 1)" fill="white" fill-opacity="0.5"/>
<path d="M25.8833 3C35.5499 2.16667 56.1833 0.4 61.3833 0H70.8838C74.4838 0 67.7171 42.6667 63.8838 64H55.3838L42.8838 113.5L27.8838 109C29.2171 96.8333 32.6838 71.3 35.8838 66.5C39.8838 60.5 21.8838 72.5 19.3833 80C17.3829 86 16.2164 104.833 15.8833 113.5L0.883443 111C0.216776 100.833 -0.716557 78.9 0.883443 72.5C2.48344 66.1 6.21678 64.1667 7.88344 64C6.88339 62.5 4.68328 58.8 3.88328 56C2.88328 52.5 11.8833 50.5 15.8833 46C19.8833 41.5 18.8833 16 19.3833 11.5C19.7833 7.9 23.8833 4.33333 25.8833 3Z" transform="translate(128 44.5)" fill="white"/>
<path d="M56.559 0.857143C52.059 -1.14286 45.559 0.357143 8.55898 5.35714V42.3571C8.55898 47.3571 19.559 48.3571 16.5596 53.8571C13.5602 59.3571 8.55898 58.8571 2.55898 69.3571C-3.44102 79.8571 3.05898 108.357 2.55898 115.357C2.27326 119.357 15.559 115.357 19.559 112.857C23.559 110.357 21.059 79.8571 23.559 74.3571C25.559 69.9571 29.059 70.5238 30.559 71.3571C31.8923 71.5238 34.059 72.9571 32.059 77.3571C29.559 82.8571 34.559 103.846 34.559 115.357C34.559 120.357 47.059 115.857 52.059 115.357C57.059 114.857 56.559 78.8571 56.559 69.3571C56.559 59.8571 68.559 54.8571 69.559 37.3571C70.559 19.8571 61.059 2.85714 56.559 0.857143Z" transform="translate(84 39.6429)" fill="white" fill-opacity="0.5"/>
</svg>
