<svg width="5256" height="3228" viewBox="0 0 5256 3228" fill="none" xmlns="http://www.w3.org/2000/svg">
<rect x="15" y="15" width="428" height="428" transform="translate(0 439)" stroke="black" stroke-width="30"/>
<rect x="7.5" y="7.5" width="883" height="881" transform="translate(0 1)" stroke="black" stroke-width="15" stroke-dasharray="20 15"/>
<rect x="7.5" y="7.5" width="883" height="881" transform="translate(0 2332)" stroke="black" stroke-width="15" stroke-dasharray="20 15"/>
<line y1="-15" x2="690" y2="-15" transform="translate(241 668.439) rotate(-45)" stroke="black" stroke-width="30"/>
<line y1="-15" x2="125" y2="-15" transform="translate(737.23 271) rotate(-90)" stroke="black" stroke-width="30"/>
<line y1="-15" x2="125" y2="-15" transform="translate(612.231 177)" stroke="black" stroke-width="30"/>
<rect x="15" y="15" width="428" height="428" transform="translate(1533) rotate(90)" stroke="black" stroke-width="30"/>
<rect x="7.5" y="7.5" width="883" height="881" transform="translate(1971) rotate(90)" stroke="black" stroke-width="15" stroke-dasharray="20 15"/>
<line y1="-15" x2="690" y2="-15" transform="translate(1303.56 241) rotate(45)" stroke="black" stroke-width="30"/>
<line y1="-15" x2="125" y2="-15" transform="translate(1701 737.23)" stroke="black" stroke-width="30"/>
<line y1="-15" x2="125" y2="-15" transform="translate(1795 612.231) rotate(90)" stroke="black" stroke-width="30"/>
<rect x="15" y="15" width="428" height="428" transform="translate(3079 459) rotate(-180)" stroke="black" stroke-width="30"/>
<rect x="7.5" y="7.5" width="883" height="881" transform="translate(3079 897) rotate(-180)" stroke="black" stroke-width="15" stroke-dasharray="20 15"/>
<line y1="-15" x2="690" y2="-15" transform="translate(2838 229.562) rotate(135)" stroke="black" stroke-width="30"/>
<line y1="-15" x2="125" y2="-15" transform="translate(2341.77 627) rotate(90)" stroke="black" stroke-width="30"/>
<line y1="-15" x2="125" y2="-15" transform="translate(2466.77 721) rotate(-180)" stroke="black" stroke-width="30"/>
<rect x="15" y="15" width="428" height="428" transform="translate(3692 899) rotate(-90)" stroke="black" stroke-width="30"/>
<rect x="7.5" y="7.5" width="883" height="881" transform="translate(3254 899) rotate(-90)" stroke="black" stroke-width="15" stroke-dasharray="20 15"/>
<line y1="-15" x2="690" y2="-15" transform="translate(3921.44 658) rotate(-135)" stroke="black" stroke-width="30"/>
<line y1="-15" x2="125" y2="-15" transform="translate(3524 161.77) rotate(180)" stroke="black" stroke-width="30"/>
<line y1="-15" x2="125" y2="-15" transform="translate(3430 286.769) rotate(-90)" stroke="black" stroke-width="30"/>
<rect x="15" y="15" width="428" height="428" transform="translate(4587 668) rotate(-90)" stroke="black" stroke-width="30"/>
<rect x="7.5" y="7.5" width="883" height="881" transform="translate(4360 899) rotate(-90)" stroke="black" stroke-width="15" stroke-dasharray="20 15"/>
<line y1="-15" x2="264.458" y2="-15" transform="translate(4836.58 322.059) rotate(-90)" stroke="black" stroke-width="30"/>
<line y1="-15" x2="125" y2="-15" transform="translate(4909.98 116.388) rotate(-135)" stroke="black" stroke-width="30"/>
<line y1="-15" x2="125" y2="-15" transform="translate(4753 136.187) rotate(-45)" stroke="black" stroke-width="30"/>
<line y1="-15" x2="264.458" y2="-15" transform="translate(4806.39 572) rotate(90)" stroke="black" stroke-width="30"/>
<line y1="-15" x2="125" y2="-15" transform="translate(4733 777.671) rotate(45)" stroke="black" stroke-width="30"/>
<line y1="-15" x2="125" y2="-15" transform="translate(4889.98 757.872) rotate(135)" stroke="black" stroke-width="30"/>
<line y1="-15" x2="264.458" y2="-15" transform="translate(4687.52 431.933) rotate(180)" stroke="black" stroke-width="30"/>
<line y1="-15" x2="125" y2="-15" transform="translate(4481.85 358.541) rotate(135)" stroke="black" stroke-width="30"/>
<line y1="-15" x2="125" y2="-15" transform="translate(4501.65 515.518) rotate(-135)" stroke="black" stroke-width="30"/>
<line y1="-15" x2="264.458" y2="-15" transform="translate(4937.46 462.126)" stroke="black" stroke-width="30"/>
<line y1="-15" x2="125" y2="-15" transform="translate(5143.13 535.518) rotate(-45)" stroke="black" stroke-width="30"/>
<line y1="-15" x2="125" y2="-15" transform="translate(5123.33 378.541) rotate(45)" stroke="black" stroke-width="30"/>
<rect x="15" y="15" width="428" height="428" transform="translate(458 1099) rotate(90)" stroke="black" stroke-width="30"/>
<rect x="7.5" y="7.5" width="1041" height="443" transform="translate(458 1099) rotate(90)" stroke="black" stroke-width="15" stroke-dasharray="20 15"/>
<line y1="-15" x2="690" y2="-15" transform="translate(206.857 1316) rotate(90)" stroke="black" stroke-width="30"/>
<line y1="-15" x2="125" y2="-15" transform="translate(137 1947.92) rotate(45)" stroke="black" stroke-width="30"/>
<line y1="-15" x2="125" y2="-15" transform="translate(291.856 1926) rotate(135)" stroke="black" stroke-width="30"/>
<rect x="15" y="15" width="428" height="428" transform="translate(678 2335) rotate(90)" stroke="black" stroke-width="30"/>
<line y1="-15" x2="358" y2="-15" transform="translate(442 2664) rotate(90)" stroke="black" stroke-width="30"/>
<line y1="-15" x2="125" y2="-15" transform="translate(372 2963.92) rotate(45)" stroke="black" stroke-width="30"/>
<line y1="-15" x2="125" y2="-15" transform="translate(526.856 2942) rotate(135)" stroke="black" stroke-width="30"/>
<line y1="-15" x2="358" y2="-15" transform="translate(534 2664) rotate(45)" stroke="black" stroke-width="30"/>
<line y1="-15" x2="125" y2="-15" transform="translate(696.578 2925.57)" stroke="black" stroke-width="30"/>
<line y1="-15" x2="125" y2="-15" transform="translate(790.579 2800.57) rotate(90)" stroke="black" stroke-width="30"/>
<line y1="-15" x2="358" y2="-15" transform="translate(371.572 2636) rotate(135)" stroke="black" stroke-width="30"/>
<line y1="-15" x2="125" y2="-15" transform="translate(110 2798.58) rotate(90)" stroke="black" stroke-width="30"/>
<line y1="-15" x2="125" y2="-15" transform="translate(235 2892.58) rotate(-180)" stroke="black" stroke-width="30"/>
<rect x="7.5" y="7.5" width="883" height="881" transform="translate(1121 3228) rotate(-90)" stroke="black" stroke-width="15" stroke-dasharray="20 15"/>
<rect x="15" y="15" width="428" height="428" transform="translate(1124 2550)" stroke="black" stroke-width="30"/>
<line y1="-15" x2="358" y2="-15" transform="translate(1453 2786)" stroke="black" stroke-width="30"/>
<line y1="-15" x2="125" y2="-15" transform="translate(1752.92 2856) rotate(-45)" stroke="black" stroke-width="30"/>
<line y1="-15" x2="125" y2="-15" transform="translate(1731 2701.14) rotate(45)" stroke="black" stroke-width="30"/>
<line y1="-15" x2="358" y2="-15" transform="translate(1453 2694) rotate(-45)" stroke="black" stroke-width="30"/>
<line y1="-15" x2="125" y2="-15" transform="translate(1714.57 2531.42) rotate(-90)" stroke="black" stroke-width="30"/>
<line y1="-15" x2="125" y2="-15" transform="translate(1589.57 2437.42)" stroke="black" stroke-width="30"/>
<line y1="-15" x2="358" y2="-15" transform="translate(1425 2856.43) rotate(45)" stroke="black" stroke-width="30"/>
<line y1="-15" x2="125" y2="-15" transform="translate(1587.58 3118)" stroke="black" stroke-width="30"/>
<line y1="-15" x2="125" y2="-15" transform="translate(1681.58 2993) rotate(90)" stroke="black" stroke-width="30"/>
<rect x="7.5" y="7.5" width="883" height="881" transform="translate(3134 3227) rotate(180)" stroke="black" stroke-width="15" stroke-dasharray="20 15"/>
<rect x="15" y="15" width="428" height="428" transform="translate(2456 3224) rotate(-90)" stroke="black" stroke-width="30"/>
<line y1="-15" x2="358" y2="-15" transform="translate(2692 2895) rotate(-90)" stroke="black" stroke-width="30"/>
<line y1="-15" x2="125" y2="-15" transform="translate(2762 2595.08) rotate(-135)" stroke="black" stroke-width="30"/>
<line y1="-15" x2="125" y2="-15" transform="translate(2607.14 2617) rotate(-45)" stroke="black" stroke-width="30"/>
<line y1="-15" x2="358" y2="-15" transform="translate(2600 2895) rotate(-135)" stroke="black" stroke-width="30"/>
<line y1="-15" x2="125" y2="-15" transform="translate(2437.42 2633.43) rotate(180)" stroke="black" stroke-width="30"/>
<line y1="-15" x2="125" y2="-15" transform="translate(2343.42 2758.43) rotate(-90)" stroke="black" stroke-width="30"/>
<line y1="-15" x2="358" y2="-15" transform="translate(2762.43 2923) rotate(-45)" stroke="black" stroke-width="30"/>
<line y1="-15" x2="125" y2="-15" transform="translate(3024 2760.42) rotate(-90)" stroke="black" stroke-width="30"/>
<line y1="-15" x2="125" y2="-15" transform="translate(2899 2666.42)" stroke="black" stroke-width="30"/>
<rect x="7.5" y="7.5" width="883" height="881" transform="translate(4261 2330) rotate(90)" stroke="black" stroke-width="15" stroke-dasharray="20 15"/>
<rect x="15" y="15" width="428" height="428" transform="translate(4258 3008) rotate(180)" stroke="black" stroke-width="30"/>
<line y1="-15" x2="358" y2="-15" transform="translate(3929 2772) rotate(180)" stroke="black" stroke-width="30"/>
<line y1="-15" x2="125" y2="-15" transform="translate(3629.08 2702) rotate(135)" stroke="black" stroke-width="30"/>
<line y1="-15" x2="125" y2="-15" transform="translate(3651 2856.86) rotate(-135)" stroke="black" stroke-width="30"/>
<line y1="-15" x2="358" y2="-15" transform="translate(3929 2864) rotate(135)" stroke="black" stroke-width="30"/>
<line y1="-15" x2="125" y2="-15" transform="translate(3667.43 3026.58) rotate(90)" stroke="black" stroke-width="30"/>
<line y1="-15" x2="125" y2="-15" transform="translate(3792.43 3120.58) rotate(180)" stroke="black" stroke-width="30"/>
<line y1="-15" x2="358" y2="-15" transform="translate(3957 2701.57) rotate(-135)" stroke="black" stroke-width="30"/>
<line y1="-15" x2="125" y2="-15" transform="translate(3794.42 2440) rotate(180)" stroke="black" stroke-width="30"/>
<line y1="-15" x2="125" y2="-15" transform="translate(3700.42 2565) rotate(-90)" stroke="black" stroke-width="30"/>
<rect x="15" y="15" width="428" height="428" transform="translate(730 2155) rotate(-90)" stroke="black" stroke-width="30"/>
<rect x="7.5" y="7.5" width="1041" height="443" transform="translate(730 2155) rotate(-90)" stroke="black" stroke-width="15" stroke-dasharray="20 15"/>
<line y1="-15" x2="690" y2="-15" transform="translate(981.143 1938) rotate(-90)" stroke="black" stroke-width="30"/>
<line y1="-15" x2="125" y2="-15" transform="translate(1051 1306.08) rotate(-135)" stroke="black" stroke-width="30"/>
<line y1="-15" x2="125" y2="-15" transform="translate(896.144 1328) rotate(-45)" stroke="black" stroke-width="30"/>
<rect x="15" y="15" width="428" height="428" transform="translate(1432 1856) rotate(-90)" stroke="black" stroke-width="30"/>
<rect x="7.5" y="7.5" width="1041" height="443" transform="translate(1432 2155) rotate(-90)" stroke="black" stroke-width="15" stroke-dasharray="20 15"/>
<line y1="-15" x2="379" y2="-15" transform="translate(1682 1560.31) rotate(-90)" stroke="black" stroke-width="30"/>
<line y1="-15" x2="125" y2="-15" transform="translate(1753 1239.39) rotate(-135)" stroke="black" stroke-width="30"/>
<line y1="-15" x2="125" y2="-15" transform="translate(1598.14 1261.31) rotate(-45)" stroke="black" stroke-width="30"/>
<line y1="-15" x2="379" y2="-15" transform="translate(1655 1679) rotate(90)" stroke="black" stroke-width="30"/>
<line y1="-15" x2="125" y2="-15" transform="translate(1584 1999.92) rotate(45)" stroke="black" stroke-width="30"/>
<line y1="-15" x2="125" y2="-15" transform="translate(1738.86 1978) rotate(135)" stroke="black" stroke-width="30"/>
<rect x="15" y="15" width="428" height="428" transform="translate(4281 1557) rotate(180)" stroke="black" stroke-width="30"/>
<rect x="7.5" y="7.5" width="1041" height="443" transform="translate(4580 1557) rotate(180)" stroke="black" stroke-width="15" stroke-dasharray="20 15"/>
<line y1="-15" x2="379" y2="-15" transform="translate(3985.31 1307) rotate(180)" stroke="black" stroke-width="30"/>
<line y1="-15" x2="125" y2="-15" transform="translate(3664.39 1236) rotate(135)" stroke="black" stroke-width="30"/>
<line y1="-15" x2="125" y2="-15" transform="translate(3686.31 1390.86) rotate(-135)" stroke="black" stroke-width="30"/>
<line y1="-15" x2="379" y2="-15" transform="translate(4104 1334)" stroke="black" stroke-width="30"/>
<line y1="-15" x2="125" y2="-15" transform="translate(4424.92 1405) rotate(-45)" stroke="black" stroke-width="30"/>
<line y1="-15" x2="125" y2="-15" transform="translate(4403 1250.14) rotate(45)" stroke="black" stroke-width="30"/>
<rect x="15" y="15" width="428" height="428" transform="translate(2181 1099)" stroke="black" stroke-width="30"/>
<rect x="7.5" y="7.5" width="1041" height="443" transform="translate(2181 1099)" stroke="black" stroke-width="15" stroke-dasharray="20 15"/>
<line y1="-15" x2="690" y2="-15" transform="translate(2398 1350.14)" stroke="black" stroke-width="30"/>
<line y1="-15" x2="125" y2="-15" transform="translate(3029.92 1420) rotate(-45)" stroke="black" stroke-width="30"/>
<line y1="-15" x2="125" y2="-15" transform="translate(3008 1265.14) rotate(45)" stroke="black" stroke-width="30"/>
<rect x="15" y="15" width="428" height="428" transform="translate(3237 2145) rotate(180)" stroke="black" stroke-width="30"/>
<rect x="7.5" y="7.5" width="1041" height="443" transform="translate(3237 2145) rotate(180)" stroke="black" stroke-width="15" stroke-dasharray="20 15"/>
<line y1="-15" x2="690" y2="-15" transform="translate(3020 1893.86) rotate(180)" stroke="black" stroke-width="30"/>
<line y1="-15" x2="125" y2="-15" transform="translate(2388.08 1824) rotate(135)" stroke="black" stroke-width="30"/>
<line y1="-15" x2="125" y2="-15" transform="translate(2410 1978.86) rotate(-135)" stroke="black" stroke-width="30"/>
</svg>
