<svg width="4176" height="1520" viewBox="0 0 4176 1520" fill="none" xmlns="http://www.w3.org/2000/svg">
<g clip-path="url(#clip0)">
<rect width="4176" height="1520" fill="#777271"/>
<path fill-rule="evenodd" clip-rule="evenodd" d="M566.804 298L739 596.252L911.196 298C1032.84 321.59 1145.73 369.699 1244.52 436.976L1155.6 768.815L1486.16 680.244C1552.87 779.639 1600.28 893.08 1623 1015.2L1328.17 1185.42L1621.39 1354.71C1597.44 1476.86 1548.76 1590.15 1480.78 1689.15L1155.6 1602.02L1242.4 1925.94C1142.79 1993.35 1028.95 2041.32 906.325 2064.4L739 1774.59L571.675 2064.4C449.048 2041.32 335.208 1993.35 235.604 1925.94L322.397 1602.02L-2.77811 1689.15C-70.762 1590.15 -119.442 1476.86 -143.388 1354.71L149.833 1185.42L-145 1015.2C-122.275 893.08 -74.8712 779.638 -8.15836 680.243L322.397 768.815L233.481 436.975C332.272 369.699 445.163 321.59 566.804 298ZM1008.76 1180.74C1008.76 1329.72 887.986 1450.5 739.001 1450.5C590.016 1450.5 469.239 1329.72 469.239 1180.74C469.239 1031.75 590.016 910.975 739.001 910.975C887.986 910.975 1008.76 1031.75 1008.76 1180.74Z" fill="#CBB7B7"/>
<path fill-rule="evenodd" clip-rule="evenodd" d="M2135.76 623.338L2185.14 823.384L2333.7 680.594C2399.69 714.375 2456.57 760.793 2502.16 815.883L2395.89 991.822L2600.6 995.872C2622.42 1064.09 2630.8 1137.17 2623.56 1211.13L2425.81 1259.95L2566.19 1405.99C2532.12 1472.22 2485.3 1529.23 2429.77 1574.83L2257.37 1470.69L2253.4 1671.28C2184.95 1693.47 2111.54 1702.12 2037.23 1694.99L1989.25 1500.61L1844.9 1639.36C1778.26 1605.71 1720.8 1559.21 1674.77 1503.9L1778.5 1332.17L1577.13 1328.19C1554.51 1259.99 1545.37 1186.78 1551.91 1112.6L1748.58 1064.05L1607.43 917.199C1640.79 850.793 1686.9 793.475 1741.76 747.44L1917.02 853.302L1921.09 647.797C1989.05 625.555 2061.93 616.673 2135.76 623.338ZM2243.02 1204.15C2218.25 1289.78 2128.75 1339.11 2043.13 1314.34C1957.5 1289.57 1908.17 1200.08 1932.94 1114.45C1957.7 1028.83 2047.2 979.492 2132.82 1004.26C2218.45 1029.03 2267.79 1118.52 2243.02 1204.15Z" fill="#B18686"/>
<path fill-rule="evenodd" clip-rule="evenodd" d="M4089.8 -1617.55L4252.31 -959.2L4741.2 -1429.12C4958.37 -1317.94 5145.58 -1165.18 5295.62 -983.882L4945.88 -404.863L5619.57 -391.535C5691.37 -167.037 5718.97 73.4636 5695.14 316.87L5044.34 477.524L5506.33 958.163C5394.2 1176.11 5240.14 1363.76 5057.38 1513.81L4490.01 1171.1L4476.95 1831.25C4251.66 1904.26 4010.09 1932.71 3765.52 1909.27L3607.61 1269.56L3132.56 1726.18C2913.24 1615.43 2724.17 1462.41 2572.65 1280.4L2914.04 715.227L2251.32 702.116C2176.9 477.671 2146.81 236.754 2168.34 -7.39369L2815.58 -167.169L2351.05 -650.452C2460.85 -868.996 2612.58 -1057.63 2793.14 -1209.13L3369.91 -860.739L3383.29 -1537.06C3606.96 -1610.25 3846.81 -1639.48 4089.8 -1617.55ZM4442.77 293.904C4361.25 575.702 4066.73 738.064 3784.93 656.549C3503.13 575.034 3340.77 280.512 3422.29 -1.28619C3503.8 -283.084 3798.33 -445.445 4080.12 -363.931C4361.92 -282.416 4524.28 12.1068 4442.77 293.904Z" fill="#E6D0D0"/>
</g>
<defs>
<clipPath id="clip0">
<rect width="4176" height="1520" fill="white"/>
</clipPath>
</defs>
</svg>
