<svg width="242" height="85" viewBox="0 0 242 85" version="1.1" xmlns="http://www.w3.org/2000/svg" xmlns:xlink="http://www.w3.org/1999/xlink">
<title>Union</title>
<desc>Created using Figma</desc>
<g id="Canvas" transform="translate(-5133 389)">
<g id="Union">
<use xlink:href="#path0_fill" transform="translate(5133 -389)" fill="#FFFFFF"/>
</g>
</g>
<defs>
<path id="path0_fill" fill-rule="evenodd" d="M 240.639 85L 0 85L 0 84L 239.717 84L 163.217 1L 0 1L 0 0L 163.655 0L 241.077 84L 241.999 85L 240.639 85ZM 141.004 45L 142.176 45L 142.176 39.3125L 141.004 39.3125L 141.004 45ZM 143.266 39.3125L 143.266 45L 145.027 45C 145.525 44.9974 145.971 44.8828 146.367 44.6562C 146.763 44.4297 147.069 44.1107 147.285 43.6992C 147.504 43.2878 147.613 42.8177 147.613 42.2891L 147.613 42.0273C 147.613 41.4987 147.502 41.0273 147.281 40.6133C 147.06 40.1966 146.751 39.8763 146.355 39.6523C 145.962 39.4258 145.516 39.3125 145.016 39.3125L 143.266 39.3125ZM 144.438 44.0586L 144.438 40.2617L 145.016 40.2617C 145.477 40.2617 145.827 40.4115 146.066 40.7109C 146.306 41.0078 146.426 41.4453 146.426 42.0234L 146.426 42.3242C 146.42 42.8815 146.297 43.3099 146.055 43.6094C 145.812 43.9088 145.462 44.0586 145.004 44.0586L 144.438 44.0586ZM 149.641 42.5352L 151.891 42.5352L 151.891 41.6172L 149.641 41.6172L 149.641 40.2617L 152.273 40.2617L 152.273 39.3125L 148.469 39.3125L 148.469 45L 152.281 45L 152.281 44.0586L 149.641 44.0586L 149.641 42.5352ZM 156.422 45L 157.594 45L 157.594 39.3125L 156.426 39.3125L 156.426 43.0625L 154.141 39.3125L 152.969 39.3125L 152.969 45L 154.141 45L 154.141 41.2578L 156.422 45ZM 161.039 40.2617L 162.781 40.2617L 162.781 39.3125L 158.148 39.3125L 158.148 40.2617L 159.867 40.2617L 159.867 45L 161.039 45L 161.039 40.2617ZM 163.527 45L 164.699 45L 164.699 39.3125L 163.527 39.3125L 163.527 45ZM 168.211 40.2617L 169.953 40.2617L 169.953 39.3125L 165.32 39.3125L 165.32 40.2617L 167.039 40.2617L 167.039 45L 168.211 45L 168.211 40.2617ZM 171.312 43.8281L 173.367 43.8281L 173.762 45L 175.008 45L 172.879 39.3125L 171.793 39.3125L 169.676 45L 170.922 45L 171.312 43.8281ZM 173.051 42.8789L 171.629 42.8789L 172.336 40.75L 173.051 42.8789ZM 173.809 37.7891L 172.578 37.7891L 171.809 39L 172.727 39L 173.809 37.7891ZM 176.711 42.918L 177.645 42.918L 178.711 45L 179.969 45L 179.969 44.9453L 178.738 42.6211C 179.08 42.4674 179.333 42.2617 179.5 42.0039C 179.669 41.7435 179.754 41.4193 179.754 41.0312C 179.754 40.4844 179.572 40.0612 179.207 39.7617C 178.842 39.4622 178.324 39.3125 177.652 39.3125L 175.539 39.3125L 175.539 45L 176.711 45L 176.711 42.918ZM 177.656 41.9688L 176.711 41.9688L 176.711 40.2617L 177.652 40.2617C 177.967 40.2617 178.201 40.3385 178.352 40.4922C 178.505 40.6458 178.582 40.8568 178.582 41.125C 178.582 41.388 178.501 41.5951 178.34 41.7461C 178.259 41.8207 178.161 41.8765 178.046 41.9136C 177.933 41.9504 177.803 41.9688 177.656 41.9688ZM 180.723 45L 181.895 45L 181.895 39.3125L 180.723 39.3125L 180.723 45ZM 187.359 43.7578C 187.557 43.3359 187.656 42.8451 187.656 42.2852L 187.656 42.0312C 187.656 41.474 187.555 40.9831 187.352 40.5586C 187.151 40.1315 186.866 39.8047 186.496 39.5781C 186.129 39.349 185.708 39.2344 185.234 39.2344C 184.76 39.2344 184.338 39.349 183.969 39.5781C 183.602 39.8047 183.316 40.1315 183.113 40.5586C 182.913 40.9831 182.812 41.4753 182.812 42.0352L 182.812 42.3164C 182.815 42.8633 182.918 43.3477 183.121 43.7695C 183.324 44.1888 183.611 44.5117 183.98 44.7383C 184.35 44.9648 184.771 45.0781 185.242 45.0781C 185.719 45.0781 186.141 44.9635 186.508 44.7344C 186.877 44.5052 187.162 44.1797 187.359 43.7578ZM 186.148 40.668C 186.362 40.9779 186.469 41.431 186.469 42.0273L 186.469 42.3047C 186.466 42.8958 186.359 43.3463 186.148 43.6562C 185.938 43.9635 185.635 44.1172 185.242 44.1172C 184.841 44.1172 184.534 43.957 184.32 43.6367C 184.107 43.3164 184 42.8659 184 42.2852L 184 42.0078C 184.002 41.4167 184.111 40.9688 184.324 40.6641C 184.538 40.3568 184.841 40.2031 185.234 40.2031C 185.63 40.2031 185.935 40.3581 186.148 40.668Z"/>
</defs>
</svg>
