<svg width="306" height="71" viewBox="0 0 306 71" version="1.1" xmlns="http://www.w3.org/2000/svg" xmlns:xlink="http://www.w3.org/1999/xlink">
<title>Union</title>
<desc>Created using Figma</desc>
<g id="Canvas" transform="translate(-5217 214)">
<g id="Union">
<use xlink:href="#path0_fill" transform="translate(5217 -214)" fill="#FFFFFF"/>
</g>
</g>
<defs>
<path id="path0_fill" fill-rule="evenodd" d="M 304.64 71L 0 71L 0 70L 303.717 70L 240.062 1L 0 1L 0 0L 240.5 0L 305.078 70L 306 71L 304.64 71ZM 217.852 37.6758L 220.102 37.6758L 220.102 36.7305L 217.852 36.7305L 217.852 35.2617L 220.383 35.2617L 220.383 34.3125L 216.68 34.3125L 216.68 40L 217.852 40L 217.852 37.6758ZM 225.367 38.0586L 225.367 34.3125L 224.191 34.3125L 224.191 38.0977C 224.181 38.7904 223.846 39.1367 223.188 39.1367C 222.873 39.1367 222.625 39.0521 222.445 38.8828C 222.268 38.7109 222.18 38.4388 222.18 38.0664L 222.18 34.3125L 221.008 34.3125L 221.008 38.1016C 221.016 38.7161 221.215 39.1992 221.605 39.5508C 221.996 39.9023 222.523 40.0781 223.188 40.0781C 223.862 40.0781 224.393 39.8971 224.781 39.5352C 225.172 39.1732 225.367 38.681 225.367 38.0586ZM 229.781 40L 230.953 40L 230.953 34.3125L 229.785 34.3125L 229.785 38.0625L 227.5 34.3125L 226.328 34.3125L 226.328 40L 227.5 40L 227.5 36.2578L 229.781 40ZM 235.762 39.5508C 236.17 39.1992 236.397 38.7175 236.441 38.1055L 235.27 38.1055C 235.244 38.4518 235.141 38.7083 234.961 38.875C 234.784 39.0391 234.514 39.1211 234.152 39.1211C 233.751 39.1211 233.457 38.9792 233.27 38.6953C 233.084 38.4115 232.992 37.9622 232.992 37.3477L 232.992 36.918C 232.998 36.3294 233.096 35.8958 233.289 35.6172C 233.484 35.3359 233.777 35.1953 234.168 35.1953C 234.527 35.1953 234.794 35.2786 234.969 35.4453C 235.146 35.6094 235.249 35.875 235.277 36.2422L 236.449 36.2422C 236.387 35.6068 236.155 35.1133 235.754 34.7617C 235.353 34.4102 234.824 34.2344 234.168 34.2344C 233.694 34.2344 233.277 34.3464 232.918 34.5703C 232.561 34.7917 232.287 35.1107 232.094 35.5273C 231.901 35.944 231.805 36.4258 231.805 36.9727L 231.805 37.3203C 231.805 38.1771 232.013 38.8516 232.43 39.3438C 232.849 39.8333 233.423 40.0781 234.152 40.0781C 234.819 40.0781 235.355 39.9023 235.762 39.5508ZM 237.285 40L 238.457 40L 238.457 34.3125L 237.285 34.3125L 237.285 40ZM 243.922 38.7578C 244.12 38.3359 244.219 37.845 244.219 37.2852L 244.219 37.0312C 244.219 36.474 244.117 35.9831 243.914 35.5586C 243.713 35.1315 243.428 34.8047 243.059 34.5781C 242.691 34.349 242.271 34.2344 241.797 34.2344C 241.323 34.2344 240.901 34.349 240.531 34.5781C 240.164 34.8047 239.879 35.1315 239.676 35.5586C 239.475 35.9831 239.375 36.4753 239.375 37.0352L 239.375 37.3164C 239.377 37.8633 239.48 38.3477 239.684 38.7695C 239.887 39.1888 240.173 39.5117 240.543 39.7383C 240.913 39.9648 241.333 40.0781 241.805 40.0781C 242.281 40.0781 242.703 39.9635 243.07 39.7344C 243.44 39.5052 243.724 39.1797 243.922 38.7578ZM 242.711 35.668C 242.924 35.9779 243.031 36.431 243.031 37.0273L 243.031 37.3047C 243.029 37.8958 242.922 38.3464 242.711 38.6562C 242.5 38.9635 242.198 39.1172 241.805 39.1172C 241.404 39.1172 241.096 38.957 240.883 38.6367C 240.669 38.3164 240.562 37.8659 240.562 37.2852L 240.562 37.0078C 240.565 36.4167 240.673 35.9688 240.887 35.6641C 241.1 35.3568 241.404 35.2031 241.797 35.2031C 242.193 35.2031 242.498 35.3581 242.711 35.668ZM 248.523 40L 249.695 40L 249.695 34.3125L 248.527 34.3125L 248.527 38.0625L 246.242 34.3125L 245.07 34.3125L 245.07 40L 246.242 40L 246.242 36.2578L 248.523 40ZM 251.945 38.8281L 254 38.8281L 254.395 40L 255.641 40L 253.512 34.3125L 252.426 34.3125L 250.309 40L 251.555 40L 251.945 38.8281ZM 253.684 37.8789L 252.262 37.8789L 252.969 35.75L 253.684 37.8789ZM 259.832 39.0586L 257.344 39.0586L 257.344 34.3125L 256.172 34.3125L 256.172 40L 259.832 40L 259.832 39.0586Z"/>
</defs>
</svg>
