<svg width="68" height="84" viewBox="0 0 68 84" version="1.1" xmlns="http://www.w3.org/2000/svg" xmlns:xlink="http://www.w3.org/1999/xlink">
<title>Union</title>
<desc>Created using Figma</desc>
<g id="Canvas" transform="translate(-6301 307)">
<g id="Union">
<use xlink:href="#path0_fill" transform="translate(6301.05 -306.648)" fill="#FABEBE"/>
</g>
</g>
<defs>
<path id="path0_fill" fill-rule="evenodd" d="M 11.7305 4.95117L 15.1055 4.95117L 15.1055 3.57422L 11.7305 3.57422L 11.7305 1.54102L 15.6797 1.54102L 15.6797 0.117188L 9.97266 0.117188L 9.97266 8.64844L 15.6914 8.64844L 15.6914 7.23633L 11.7305 7.23633L 11.7305 4.95117ZM 22.2129 7.23633L 18.4805 7.23633L 18.4805 0.117188L 16.7227 0.117188L 16.7227 8.64844L 22.2129 8.64844L 22.2129 7.23633ZM 24.9844 4.95117L 28.3594 4.95117L 28.3594 3.57422L 24.9844 3.57422L 24.9844 1.54102L 28.9336 1.54102L 28.9336 0.117188L 23.2266 0.117188L 23.2266 8.64844L 28.9453 8.64844L 28.9453 7.23633L 24.9844 7.23633L 24.9844 4.95117ZM 35.3848 8.45508C 35.9629 8.24414 36.4102 7.94922 36.7266 7.57031L 36.7266 4.16602L 33.3691 4.16602L 33.3691 5.46094L 34.9688 5.46094L 34.9688 6.93164C 34.6875 7.21289 34.2168 7.35352 33.5566 7.35352C 32.9004 7.35352 32.4023 7.125 32.0625 6.66797C 31.7227 6.21094 31.5527 5.53516 31.5527 4.64062L 31.5527 4.0957C 31.5566 3.20898 31.7148 2.54102 32.0273 2.0918C 32.3398 1.64258 32.7949 1.41797 33.3926 1.41797C 33.8613 1.41797 34.2285 1.53125 34.4941 1.75781C 34.7637 1.98438 34.9375 2.3418 35.0156 2.83008L 36.7266 2.83008C 36.6211 1.9082 36.2832 1.20703 35.7129 0.726562C 35.1426 0.242188 34.3516 0 33.3398 0C 32.6133 0 31.9785 0.166016 31.4355 0.498047C 30.8965 0.826172 30.4824 1.30273 30.1934 1.92773C 29.9082 2.54883 29.7656 3.28516 29.7656 4.13672L 29.7656 4.7168C 29.7734 5.54492 29.9277 6.26562 30.2285 6.87891C 30.5332 7.49219 30.9629 7.96094 31.5176 8.28516C 32.0762 8.60547 32.7246 8.76562 33.4629 8.76562C 34.166 8.76562 34.8066 8.66211 35.3848 8.45508ZM 39.8906 6.89062L 42.9727 6.89062L 43.5645 8.64844L 45.4336 8.64844L 42.2402 0.117188L 40.6113 0.117188L 37.4355 8.64844L 39.3047 8.64844L 39.8906 6.89062ZM 42.498 5.4668L 40.3652 5.4668L 41.4258 2.27344L 42.498 5.4668ZM 51.4102 8.64844L 53.168 8.64844L 53.168 0.117188L 51.416 0.117188L 51.416 5.74219L 47.9883 0.117188L 46.2305 0.117188L 46.2305 8.64844L 47.9883 8.64844L 47.9883 3.03516L 51.4102 8.64844ZM 58.3359 1.54102L 60.9492 1.54102L 60.9492 0.117188L 54 0.117188L 54 1.54102L 56.5781 1.54102L 56.5781 8.64844L 58.3359 8.64844L 58.3359 1.54102ZM 63.7148 4.95117L 67.0898 4.95117L 67.0898 3.57422L 63.7148 3.57422L 63.7148 1.54102L 67.6641 1.54102L 67.6641 0.117188L 61.957 0.117188L 61.957 8.64844L 67.6758 8.64844L 67.6758 7.23633L 63.7148 7.23633L 63.7148 4.95117ZM 0 14.1172L 0 22.6484L 2.64258 22.6484C 3.38867 22.6445 4.05859 22.4727 4.65234 22.1328C 5.24609 21.793 5.70508 21.3145 6.0293 20.6973C 6.35742 20.0801 6.52148 19.375 6.52148 18.582L 6.52148 18.1895C 6.52148 17.3965 6.35547 16.6895 6.02344 16.0684C 5.69141 15.4434 5.22852 14.9629 4.63477 14.627C 4.04492 14.2871 3.375 14.1172 2.625 14.1172L 0 14.1172ZM 1.75781 21.2363L 1.75781 15.541L 2.625 15.541C 3.31641 15.541 3.8418 15.7656 4.20117 16.2148C 4.56055 16.6602 4.74023 17.3164 4.74023 18.1836L 4.74023 18.6348C 4.73242 19.4707 4.54688 20.1133 4.18359 20.5625C 3.82031 21.0117 3.29492 21.2363 2.60742 21.2363L 1.75781 21.2363ZM 9.5625 18.9512L 12.9375 18.9512L 12.9375 17.5742L 9.5625 17.5742L 9.5625 15.541L 13.5117 15.541L 13.5117 14.1172L 7.80469 14.1172L 7.80469 22.6484L 13.5234 22.6484L 13.5234 21.2363L 9.5625 21.2363L 9.5625 18.9512ZM 18.627 19.6484C 18.8613 19.8242 18.9785 20.0781 18.9785 20.4102C 18.9785 20.7148 18.8613 20.9531 18.627 21.125C 18.3926 21.293 18.0664 21.377 17.6484 21.377C 16.5234 21.377 15.9609 20.9062 15.9609 19.9648L 14.1973 19.9648C 14.1973 20.5156 14.3379 21 14.6191 21.418C 14.9043 21.8359 15.3164 22.166 15.8555 22.4082C 16.3945 22.6465 16.9922 22.7656 17.6484 22.7656C 18.5938 22.7656 19.3457 22.5566 19.9043 22.1387C 20.4629 21.7168 20.7422 21.1367 20.7422 20.3984C 20.7422 19.7344 20.5137 19.1797 20.0566 18.7344C 19.5996 18.2891 18.8711 17.916 17.8711 17.6152C 17.3281 17.4512 16.916 17.2754 16.6348 17.0879C 16.3574 16.9004 16.2188 16.668 16.2188 16.3906C 16.2188 16.0938 16.3379 15.8555 16.5762 15.6758C 16.8145 15.4922 17.1484 15.4004 17.5781 15.4004C 18.0234 15.4004 18.3691 15.5098 18.6152 15.7285C 18.8613 15.9434 18.9844 16.2461 18.9844 16.6367L 20.7422 16.6367C 20.7422 16.125 20.6094 15.668 20.3438 15.2656C 20.082 14.8633 19.7129 14.5527 19.2363 14.334C 18.7598 14.1113 18.2168 14 17.6074 14C 17.002 14 16.4551 14.1016 15.9668 14.3047C 15.4824 14.5078 15.1094 14.791 14.8477 15.1543C 14.5898 15.5137 14.4609 15.9238 14.4609 16.3848C 14.4609 17.2715 14.9453 17.9766 15.9141 18.5C 16.2695 18.6914 16.752 18.8867 17.3613 19.0859C 17.9707 19.2812 18.3926 19.4688 18.627 19.6484ZM 23.6953 22.6484L 23.6953 19.6426L 25.2363 19.6426C 26.248 19.6426 27.0391 19.4023 27.6094 18.9219C 28.1836 18.4375 28.4707 17.7773 28.4707 16.9414C 28.4707 16.3906 28.3398 15.9004 28.0781 15.4707C 27.8164 15.0371 27.4414 14.7031 26.9531 14.4688C 26.4688 14.2344 25.9062 14.1172 25.2656 14.1172L 21.9375 14.1172L 21.9375 22.6484L 23.6953 22.6484ZM 25.2656 18.2188L 23.6953 18.2188L 23.6953 15.541L 25.3066 15.541C 25.7402 15.5488 26.0801 15.6816 26.3262 15.9395C 26.5723 16.1973 26.6953 16.5352 26.6953 16.9531C 26.6953 17.3594 26.5723 17.6719 26.3262 17.8906C 26.084 18.1094 25.7305 18.2188 25.2656 18.2188ZM 36.2461 20.7852C 36.543 20.1523 36.6914 19.416 36.6914 18.5762L 36.6914 18.1953C 36.6914 17.3594 36.5391 16.623 36.2344 15.9863C 35.9336 15.3457 35.5059 14.8555 34.9512 14.5156C 34.4004 14.1719 33.7695 14 33.0586 14C 32.3477 14 31.7148 14.1719 31.1602 14.5156C 30.6094 14.8555 30.1816 15.3457 29.877 15.9863C 29.5762 16.623 29.4258 17.3613 29.4258 18.2012L 29.4258 18.623C 29.4297 19.4434 29.584 20.1699 29.8887 20.8027C 30.1934 21.4316 30.623 21.916 31.1777 22.2559C 31.7324 22.5957 32.3633 22.7656 33.0703 22.7656C 33.7852 22.7656 34.418 22.5938 34.9688 22.25C 35.5234 21.9062 35.9492 21.418 36.2461 20.7852ZM 34.4297 16.1504C 34.75 16.6152 34.9102 17.2949 34.9102 18.1895L 34.9102 18.6055C 34.9062 19.4922 34.7461 20.168 34.4297 20.6328C 34.1133 21.0938 33.6602 21.3242 33.0703 21.3242C 32.4688 21.3242 32.0078 21.084 31.6875 20.6035C 31.3672 20.123 31.207 19.4473 31.207 18.5762L 31.207 18.1602C 31.2109 17.2734 31.373 16.6016 31.6934 16.1445C 32.0137 15.6836 32.4688 15.4531 33.0586 15.4531C 33.6523 15.4531 34.1094 15.6855 34.4297 16.1504ZM 43.166 14.1172L 41.4082 14.1172L 41.4082 20.0234C 41.4082 20.4492 41.3086 20.7773 41.1094 21.0078C 40.9102 21.2383 40.6426 21.3535 40.3066 21.3535C 39.9277 21.3535 39.6504 21.2539 39.4746 21.0547C 39.2988 20.8555 39.2109 20.5469 39.2109 20.1289L 37.4414 20.1289C 37.4414 20.9688 37.6934 21.6191 38.1973 22.0801C 38.7012 22.5371 39.4043 22.7656 40.3066 22.7656C 40.8574 22.7656 41.3516 22.6523 41.7891 22.4258C 42.2266 22.1992 42.5645 21.8789 42.8027 21.4648C 43.0449 21.0469 43.166 20.5664 43.166 20.0234L 43.166 14.1172ZM 46.2773 20.8906L 49.3594 20.8906L 49.9512 22.6484L 51.8203 22.6484L 48.627 14.1172L 46.998 14.1172L 43.8223 22.6484L 45.6914 22.6484L 46.2773 20.8906ZM 48.8848 19.4668L 46.752 19.4668L 47.8125 16.2734L 48.8848 19.4668ZM 52.6172 14.1172L 52.6172 22.6484L 55.2598 22.6484C 56.0059 22.6445 56.6758 22.4727 57.2695 22.1328C 57.8633 21.793 58.3223 21.3145 58.6465 20.6973C 58.9746 20.0801 59.1387 19.375 59.1387 18.582L 59.1387 18.1895C 59.1387 17.3965 58.9727 16.6895 58.6406 16.0684C 58.3086 15.4434 57.8457 14.9629 57.252 14.627C 56.6621 14.2871 55.9922 14.1172 55.2422 14.1172L 52.6172 14.1172ZM 54.375 21.2363L 54.375 15.541L 55.2422 15.541C 55.9336 15.541 56.459 15.7656 56.8184 16.2148C 57.1777 16.6602 57.3574 17.3164 57.3574 18.1836L 57.3574 18.6348C 57.3496 19.4707 57.1641 20.1133 56.8008 20.5625C 56.4375 21.0117 55.9121 21.2363 55.2246 21.2363L 54.375 21.2363ZM 66.9844 20.7852C 67.2812 20.1523 67.4297 19.416 67.4297 18.5762L 67.4297 18.1953C 67.4297 17.3594 67.2773 16.623 66.9727 15.9863C 66.6719 15.3457 66.2441 14.8555 65.6895 14.5156C 65.1387 14.1719 64.5078 14 63.7969 14C 63.0859 14 62.4531 14.1719 61.8984 14.5156C 61.3477 14.8555 60.9199 15.3457 60.6152 15.9863C 60.3145 16.623 60.1641 17.3613 60.1641 18.2012L 60.1641 18.623C 60.168 19.4434 60.3223 20.1699 60.627 20.8027C 60.9316 21.4316 61.3613 21.916 61.916 22.2559C 62.4707 22.5957 63.1016 22.7656 63.8086 22.7656C 64.5234 22.7656 65.1562 22.5938 65.707 22.25C 66.2617 21.9062 66.6875 21.418 66.9844 20.7852ZM 65.168 16.1504C 65.4883 16.6152 65.6484 17.2949 65.6484 18.1895L 65.6484 18.6055C 65.6445 19.4922 65.4844 20.168 65.168 20.6328C 64.8516 21.0938 64.3984 21.3242 63.8086 21.3242C 63.207 21.3242 62.7461 21.084 62.4258 20.6035C 62.1055 20.123 61.9453 19.4473 61.9453 18.5762L 61.9453 18.1602C 61.9492 17.2734 62.1113 16.6016 62.4316 16.1445C 62.752 15.6836 63.207 15.4531 63.7969 15.4531C 64.3906 15.4531 64.8477 15.6855 65.168 16.1504ZM 8.01562 34.8906L 11.0977 34.8906L 11.6895 36.6484L 13.5586 36.6484L 10.3652 28.1172L 8.73633 28.1172L 5.56055 36.6484L 7.42969 36.6484L 8.01562 34.8906ZM 10.623 33.4668L 8.49023 33.4668L 9.55078 30.2734L 10.623 33.4668ZM 16.1133 33.5254L 17.5137 33.5254L 19.1133 36.6484L 21 36.6484L 21 36.5664L 19.1543 33.0801C 19.666 32.8496 20.0469 32.541 20.2969 32.1543C 20.5508 31.7637 20.6777 31.2773 20.6777 30.6953C 20.6777 29.875 20.4043 29.2402 19.8574 28.791C 19.3105 28.3418 18.5332 28.1172 17.5254 28.1172L 14.3555 28.1172L 14.3555 36.6484L 16.1133 36.6484L 16.1133 33.5254ZM 17.5312 32.1016L 16.1133 32.1016L 16.1133 29.541L 17.5254 29.541C 17.998 29.541 18.3477 29.6562 18.5742 29.8867C 18.8047 30.1172 18.9199 30.4336 18.9199 30.8359C 18.9199 31.2305 18.7988 31.541 18.5566 31.7676C 18.3145 31.9902 17.9727 32.1016 17.5312 32.1016ZM 23.7773 33.5254L 25.1777 33.5254L 26.7773 36.6484L 28.6641 36.6484L 28.6641 36.5664L 26.8184 33.0801C 27.3301 32.8496 27.7109 32.541 27.9609 32.1543C 28.2148 31.7637 28.3418 31.2773 28.3418 30.6953C 28.3418 29.875 28.0684 29.2402 27.5215 28.791C 26.9746 28.3418 26.1973 28.1172 25.1895 28.1172L 22.0195 28.1172L 22.0195 36.6484L 23.7773 36.6484L 23.7773 33.5254ZM 25.1953 32.1016L 23.7773 32.1016L 23.7773 29.541L 25.1895 29.541C 25.6621 29.541 26.0117 29.6562 26.2383 29.8867C 26.4688 30.1172 26.584 30.4336 26.584 30.8359C 26.584 31.2305 26.4629 31.541 26.2207 31.7676C 25.9785 31.9902 25.6367 32.1016 25.1953 32.1016ZM 36.2461 34.7852C 36.543 34.1523 36.6914 33.416 36.6914 32.5762L 36.6914 32.1953C 36.6914 31.3594 36.5391 30.623 36.2344 29.9863C 35.9336 29.3457 35.5059 28.8555 34.9512 28.5156C 34.4004 28.1719 33.7695 28 33.0586 28C 32.3477 28 31.7148 28.1719 31.1602 28.5156C 30.6094 28.8555 30.1816 29.3457 29.877 29.9863C 29.5762 30.623 29.4258 31.3613 29.4258 32.2012L 29.4258 32.623C 29.4297 33.4434 29.584 34.1699 29.8887 34.8027C 30.1934 35.4316 30.623 35.916 31.1777 36.2559C 31.7324 36.5957 32.3633 36.7656 33.0703 36.7656C 33.7852 36.7656 34.418 36.5938 34.9688 36.25C 35.5234 35.9062 35.9492 35.418 36.2461 34.7852ZM 34.4297 30.1504C 34.75 30.6152 34.9102 31.2949 34.9102 32.1895L 34.9102 32.6055C 34.9062 33.4922 34.7461 34.168 34.4297 34.6328C 34.1133 35.0938 33.6602 35.3242 33.0703 35.3242C 32.4688 35.3242 32.0078 35.084 31.6875 34.6035C 31.3672 34.123 31.207 33.4473 31.207 32.5762L 31.207 32.1602C 31.2109 31.2734 31.373 30.6016 31.6934 30.1445C 32.0137 29.6836 32.4688 29.4531 33.0586 29.4531C 33.6523 29.4531 34.1094 29.6855 34.4297 30.1504ZM 43.166 28.1172L 41.4082 28.1172L 41.4082 34.0234C 41.4082 34.4492 41.3086 34.7773 41.1094 35.0078C 40.9102 35.2383 40.6426 35.3535 40.3066 35.3535C 39.9277 35.3535 39.6504 35.2539 39.4746 35.0547C 39.2988 34.8555 39.2109 34.5469 39.2109 34.1289L 37.4414 34.1289C 37.4414 34.9688 37.6934 35.6191 38.1973 36.0801C 38.7012 36.5371 39.4043 36.7656 40.3066 36.7656C 40.8574 36.7656 41.3516 36.6523 41.7891 36.4258C 42.2266 36.1992 42.5645 35.8789 42.8027 35.4648C 43.0449 35.0469 43.166 34.5664 43.166 34.0234L 43.166 28.1172ZM 46.2773 34.8906L 49.3594 34.8906L 49.9512 36.6484L 51.8203 36.6484L 48.627 28.1172L 46.998 28.1172L 43.8223 36.6484L 45.6914 36.6484L 46.2773 34.8906ZM 48.8848 33.4668L 46.752 33.4668L 47.8125 30.2734L 48.8848 33.4668ZM 52.6172 28.1172L 52.6172 36.6484L 55.2598 36.6484C 56.0059 36.6445 56.6758 36.4727 57.2695 36.1328C 57.8633 35.793 58.3223 35.3145 58.6465 34.6973C 58.9746 34.0801 59.1387 33.375 59.1387 32.582L 59.1387 32.1895C 59.1387 31.3965 58.9727 30.6895 58.6406 30.0684C 58.3086 29.4434 57.8457 28.9629 57.252 28.627C 56.6621 28.2871 55.9922 28.1172 55.2422 28.1172L 52.6172 28.1172ZM 54.375 35.2363L 54.375 29.541L 55.2422 29.541C 55.9336 29.541 56.459 29.7656 56.8184 30.2148C 57.1777 30.6602 57.3574 31.3164 57.3574 32.1836L 57.3574 32.6348C 57.3496 33.4707 57.1641 34.1133 56.8008 34.5625C 56.4375 35.0117 55.9121 35.2363 55.2246 35.2363L 54.375 35.2363ZM 66.9844 34.7852C 67.2812 34.1523 67.4297 33.416 67.4297 32.5762L 67.4297 32.1953C 67.4297 31.3594 67.2773 30.623 66.9727 29.9863C 66.6719 29.3457 66.2441 28.8555 65.6895 28.5156C 65.1387 28.1719 64.5078 28 63.7969 28C 63.0859 28 62.4531 28.1719 61.8984 28.5156C 61.3477 28.8555 60.9199 29.3457 60.6152 29.9863C 60.3145 30.623 60.1641 31.3613 60.1641 32.2012L 60.1641 32.623C 60.168 33.4434 60.3223 34.1699 60.627 34.8027C 60.9316 35.4316 61.3613 35.916 61.916 36.2559C 62.4707 36.5957 63.1016 36.7656 63.8086 36.7656C 64.5234 36.7656 65.1562 36.5938 65.707 36.25C 66.2617 35.9062 66.6875 35.418 66.9844 34.7852ZM 65.168 30.1504C 65.4883 30.6152 65.6484 31.2949 65.6484 32.1895L 65.6484 32.6055C 65.6445 33.4922 65.4844 34.168 65.168 34.6328C 64.8516 35.0938 64.3984 35.3242 63.8086 35.3242C 63.207 35.3242 62.7461 35.084 62.4258 34.6035C 62.1055 34.123 61.9453 33.4473 61.9453 32.5762L 61.9453 32.1602C 61.9492 31.2734 62.1113 30.6016 62.4316 30.1445C 62.752 29.6836 63.207 29.4531 63.7969 29.4531C 64.3906 29.4531 64.8477 29.6855 65.168 30.1504ZM 39.1934 65.6484C 39.4277 65.8242 39.5449 66.0781 39.5449 66.4102C 39.5449 66.7148 39.4277 66.9531 39.1934 67.125C 38.959 67.293 38.6328 67.377 38.2148 67.377C 37.0898 67.377 36.5273 66.9062 36.5273 65.9648L 34.7637 65.9648C 34.7637 66.5156 34.9043 67 35.1855 67.418C 35.4707 67.8359 35.8828 68.166 36.4219 68.4082C 36.9609 68.6465 37.5586 68.7656 38.2148 68.7656C 39.1602 68.7656 39.9121 68.5566 40.4707 68.1387C 41.0293 67.7168 41.3086 67.1367 41.3086 66.3984C 41.3086 65.7344 41.0801 65.1797 40.623 64.7344C 40.166 64.2891 39.4375 63.916 38.4375 63.6152C 37.8945 63.4512 37.4824 63.2754 37.2012 63.0879C 36.9238 62.9004 36.7852 62.668 36.7852 62.3906C 36.7852 62.0938 36.9043 61.8555 37.1426 61.6758C 37.3809 61.4922 37.7148 61.4004 38.1445 61.4004C 38.5898 61.4004 38.9355 61.5098 39.1816 61.7285C 39.4277 61.9434 39.5508 62.2461 39.5508 62.6367L 41.3086 62.6367C 41.3086 62.125 41.1758 61.668 40.9102 61.2656C 40.6484 60.8633 40.2793 60.5527 39.8027 60.334C 39.3262 60.1113 38.7832 60 38.1738 60C 37.5684 60 37.0215 60.1016 36.5332 60.3047C 36.0488 60.5078 35.6758 60.791 35.4141 61.1543C 35.1562 61.5137 35.0273 61.9238 35.0273 62.3848C 35.0273 63.2715 35.5117 63.9766 36.4805 64.5C 36.8359 64.6914 37.3184 64.8867 37.9277 65.0859C 38.5371 65.2812 38.959 65.4688 39.1934 65.6484ZM 44.2617 64.9512L 47.6367 64.9512L 47.6367 63.5742L 44.2617 63.5742L 44.2617 61.541L 48.2109 61.541L 48.2109 60.1172L 42.5039 60.1172L 42.5039 68.6484L 48.2227 68.6484L 48.2227 67.2363L 44.2617 67.2363L 44.2617 64.9512ZM 47.6484 57.8145L 45.8027 57.8145L 44.6484 59.6309L 46.0254 59.6309L 47.6484 57.8145ZM 51.0117 65.5254L 52.4121 65.5254L 54.0117 68.6484L 55.8984 68.6484L 55.8984 68.5664L 54.0527 65.0801C 54.5645 64.8496 54.9453 64.541 55.1953 64.1543C 55.4492 63.7637 55.5762 63.2773 55.5762 62.6953C 55.5762 61.875 55.3027 61.2402 54.7559 60.791C 54.209 60.3418 53.4316 60.1172 52.4238 60.1172L 49.2539 60.1172L 49.2539 68.6484L 51.0117 68.6484L 51.0117 65.5254ZM 52.4297 64.1016L 51.0117 64.1016L 51.0117 61.541L 52.4238 61.541C 52.8965 61.541 53.2461 61.6562 53.4727 61.8867C 53.7031 62.1172 53.8184 62.4336 53.8184 62.8359C 53.8184 63.2305 53.6973 63.541 53.4551 63.7676C 53.2129 63.9902 52.8711 64.1016 52.4297 64.1016ZM 57.0293 68.6484L 58.7871 68.6484L 58.7871 60.1172L 57.0293 60.1172L 57.0293 68.6484ZM 66.9844 66.7852C 67.2812 66.1523 67.4297 65.416 67.4297 64.5762L 67.4297 64.1953C 67.4297 63.3594 67.2773 62.623 66.9727 61.9863C 66.6719 61.3457 66.2441 60.8555 65.6895 60.5156C 65.1387 60.1719 64.5078 60 63.7969 60C 63.0859 60 62.4531 60.1719 61.8984 60.5156C 61.3477 60.8555 60.9199 61.3457 60.6152 61.9863C 60.3145 62.623 60.1641 63.3613 60.1641 64.2012L 60.1641 64.623C 60.168 65.4434 60.3223 66.1699 60.627 66.8027C 60.9316 67.4316 61.3613 67.916 61.916 68.2559C 62.4707 68.5957 63.1016 68.7656 63.8086 68.7656C 64.5234 68.7656 65.1562 68.5938 65.707 68.25C 66.2617 67.9062 66.6875 67.418 66.9844 66.7852ZM 65.168 62.1504C 65.4883 62.6152 65.6484 63.2949 65.6484 64.1895L 65.6484 64.6055C 65.6445 65.4922 65.4844 66.168 65.168 66.6328C 64.8516 67.0938 64.3984 67.3242 63.8086 67.3242C 63.207 67.3242 62.7461 67.084 62.4258 66.6035C 62.1055 66.123 61.9453 65.4473 61.9453 64.5762L 61.9453 64.1602C 61.9492 63.2734 62.1113 62.6016 62.4316 62.1445C 62.752 61.6836 63.207 61.4531 63.7969 61.4531C 64.3906 61.4531 64.8477 61.6855 65.168 62.1504ZM 17.0625 80.8906L 20.1445 80.8906L 20.7363 82.6484L 22.6055 82.6484L 19.4121 74.1172L 17.7832 74.1172L 14.6074 82.6484L 16.4766 82.6484L 17.0625 80.8906ZM 19.6699 79.4668L 17.5371 79.4668L 18.5977 76.2734L 19.6699 79.4668ZM 29.7539 79.7363L 29.7539 74.1172L 27.9902 74.1172L 27.9902 79.7949C 27.9746 80.834 27.4727 81.3535 26.4844 81.3535C 26.0117 81.3535 25.6406 81.2266 25.3711 80.9727C 25.1055 80.7148 24.9727 80.3066 24.9727 79.748L 24.9727 74.1172L 23.2148 74.1172L 23.2148 79.8008C 23.2266 80.7227 23.5254 81.4473 24.1113 81.9746C 24.6973 82.502 25.4883 82.7656 26.4844 82.7656C 27.4961 82.7656 28.293 82.4941 28.875 81.9512C 29.4609 81.4082 29.7539 80.6699 29.7539 79.7363ZM 35.2676 79.6484C 35.502 79.8242 35.6191 80.0781 35.6191 80.4102C 35.6191 80.7148 35.502 80.9531 35.2676 81.125C 35.0332 81.293 34.707 81.377 34.2891 81.377C 33.1641 81.377 32.6016 80.9062 32.6016 79.9648L 30.8379 79.9648C 30.8379 80.5156 30.9785 81 31.2598 81.418C 31.5449 81.8359 31.957 82.166 32.4961 82.4082C 33.0352 82.6465 33.6328 82.7656 34.2891 82.7656C 35.2344 82.7656 35.9863 82.5566 36.5449 82.1387C 37.1035 81.7168 37.3828 81.1367 37.3828 80.3984C 37.3828 79.7344 37.1543 79.1797 36.6973 78.7344C 36.2402 78.2891 35.5117 77.916 34.5117 77.6152C 33.9688 77.4512 33.5566 77.2754 33.2754 77.0879C 32.998 76.9004 32.8594 76.668 32.8594 76.3906C 32.8594 76.0938 32.9785 75.8555 33.2168 75.6758C 33.4551 75.4922 33.7891 75.4004 34.2188 75.4004C 34.6641 75.4004 35.0098 75.5098 35.2559 75.7285C 35.502 75.9434 35.625 76.2461 35.625 76.6367L 37.3828 76.6367C 37.3828 76.125 37.25 75.668 36.9844 75.2656C 36.7227 74.8633 36.3535 74.5527 35.877 74.334C 35.4004 74.1113 34.8574 74 34.248 74C 33.6426 74 33.0957 74.1016 32.6074 74.3047C 32.123 74.5078 31.75 74.791 31.4883 75.1543C 31.2305 75.5137 31.1016 75.9238 31.1016 76.3848C 31.1016 77.2715 31.5859 77.9766 32.5547 78.5C 32.9102 78.6914 33.3926 78.8867 34.002 79.0859C 34.6113 79.2812 35.0332 79.4688 35.2676 79.6484ZM 42.3867 75.541L 45 75.541L 45 74.1172L 38.0508 74.1172L 38.0508 75.541L 40.6289 75.541L 40.6289 82.6484L 42.3867 82.6484L 42.3867 75.541ZM 47.7656 78.9512L 51.1406 78.9512L 51.1406 77.5742L 47.7656 77.5742L 47.7656 75.541L 51.7148 75.541L 51.7148 74.1172L 46.0078 74.1172L 46.0078 82.6484L 51.7266 82.6484L 51.7266 81.2363L 47.7656 81.2363L 47.7656 78.9512ZM 54.5156 79.5254L 55.916 79.5254L 57.5156 82.6484L 59.4023 82.6484L 59.4023 82.5664L 57.5566 79.0801C 58.0684 78.8496 58.4492 78.541 58.6992 78.1543C 58.9531 77.7637 59.0801 77.2773 59.0801 76.6953C 59.0801 75.875 58.8066 75.2402 58.2598 74.791C 57.7129 74.3418 56.9355 74.1172 55.9277 74.1172L 52.7578 74.1172L 52.7578 82.6484L 54.5156 82.6484L 54.5156 79.5254ZM 55.9336 78.1016L 54.5156 78.1016L 54.5156 75.541L 55.9277 75.541C 56.4004 75.541 56.75 75.6562 56.9766 75.8867C 57.207 76.1172 57.3223 76.4336 57.3223 76.8359C 57.3223 77.2305 57.2012 77.541 56.959 77.7676C 56.7168 77.9902 56.375 78.1016 55.9336 78.1016ZM 66.9844 80.7852C 67.2812 80.1523 67.4297 79.416 67.4297 78.5762L 67.4297 78.1953C 67.4297 77.3594 67.2773 76.623 66.9727 75.9863C 66.6719 75.3457 66.2441 74.8555 65.6895 74.5156C 65.1387 74.1719 64.5078 74 63.7969 74C 63.0859 74 62.4531 74.1719 61.8984 74.5156C 61.3477 74.8555 60.9199 75.3457 60.6152 75.9863C 60.3145 76.623 60.1641 77.3613 60.1641 78.2012L 60.1641 78.623C 60.168 79.4434 60.3223 80.1699 60.627 80.8027C 60.9316 81.4316 61.3613 81.916 61.916 82.2559C 62.4707 82.5957 63.1016 82.7656 63.8086 82.7656C 64.5234 82.7656 65.1562 82.5938 65.707 82.25C 66.2617 81.9062 66.6875 81.418 66.9844 80.7852ZM 65.168 76.1504C 65.4883 76.6152 65.6484 77.2949 65.6484 78.1895L 65.6484 78.6055C 65.6445 79.4922 65.4844 80.168 65.168 80.6328C 64.8516 81.0938 64.3984 81.3242 63.8086 81.3242C 63.207 81.3242 62.7461 81.084 62.4258 80.6035C 62.1055 80.123 61.9453 79.4473 61.9453 78.5762L 61.9453 78.1602C 61.9492 77.2734 62.1113 76.6016 62.4316 76.1445C 62.752 75.6836 63.207 75.4531 63.7969 75.4531C 64.3906 75.4531 64.8477 75.6855 65.168 76.1504Z"/>
</defs>
</svg>
