<svg width="140" height="187" viewBox="0 0 140 187" version="1.1" xmlns="http://www.w3.org/2000/svg" xmlns:xlink="http://www.w3.org/1999/xlink">
<title>Union</title>
<desc>Created using Figma</desc>
<g id="Canvas" transform="translate(-6280 152)">
<g id="Union">
<use xlink:href="#path0_fill" transform="translate(6280.99 -151.648)" fill="#FF0065"/>
</g>
</g>
<defs>
<path id="path0_fill" fill-rule="evenodd" d="M 14.5098 5.64844C 14.7441 5.82422 14.8613 6.07812 14.8613 6.41016C 14.8613 6.71484 14.7441 6.95312 14.5098 7.125C 14.2754 7.29297 13.9492 7.37695 13.5312 7.37695C 12.4062 7.37695 11.8438 6.90625 11.8438 5.96484L 10.0801 5.96484C 10.0801 6.51562 10.2207 7 10.502 7.41797C 10.7871 7.83594 11.1992 8.16602 11.7383 8.4082C 12.2773 8.64648 12.875 8.76562 13.5312 8.76562C 14.4766 8.76562 15.2285 8.55664 15.7871 8.13867C 16.3457 7.7168 16.625 7.13672 16.625 6.39844C 16.625 5.73438 16.3965 5.17969 15.9395 4.73438C 15.4824 4.28906 14.7539 3.91602 13.7539 3.61523C 13.2109 3.45117 12.7988 3.27539 12.5176 3.08789C 12.2402 2.90039 12.1016 2.66797 12.1016 2.39062C 12.1016 2.09375 12.2207 1.85547 12.459 1.67578C 12.6973 1.49219 13.0312 1.40039 13.4609 1.40039C 13.9062 1.40039 14.252 1.50977 14.498 1.72852C 14.7441 1.94336 14.8672 2.24609 14.8672 2.63672L 16.625 2.63672C 16.625 2.125 16.4922 1.66797 16.2266 1.26562C 15.9648 0.863281 15.5957 0.552734 15.1191 0.333984C 14.6426 0.111328 14.0996 0 13.4902 0C 12.8848 0 12.3379 0.101562 11.8496 0.304688C 11.3652 0.507812 10.9922 0.791016 10.7305 1.1543C 10.4727 1.51367 10.3438 1.92383 10.3438 2.38477C 10.3438 3.27148 10.8281 3.97656 11.7969 4.5C 12.1523 4.69141 12.6348 4.88672 13.2441 5.08594C 13.8535 5.28125 14.2754 5.46875 14.5098 5.64844ZM 19.5781 4.95117L 22.9531 4.95117L 22.9531 3.57422L 19.5781 3.57422L 19.5781 1.54102L 23.5273 1.54102L 23.5273 0.117188L 17.8203 0.117188L 17.8203 8.64844L 23.5391 8.64844L 23.5391 7.23633L 19.5781 7.23633L 19.5781 4.95117ZM 29.75 8.64844L 31.5078 8.64844L 31.5078 0.117188L 29.7559 0.117188L 29.7559 5.74219L 26.3281 0.117188L 24.5703 0.117188L 24.5703 8.64844L 26.3281 8.64844L 26.3281 3.03516L 29.75 8.64844ZM 37.1152 5.64844C 37.3496 5.82422 37.4668 6.07812 37.4668 6.41016C 37.4668 6.71484 37.3496 6.95312 37.1152 7.125C 36.8809 7.29297 36.5547 7.37695 36.1367 7.37695C 35.0117 7.37695 34.4492 6.90625 34.4492 5.96484L 32.6855 5.96484C 32.6855 6.51562 32.8262 7 33.1074 7.41797C 33.3926 7.83594 33.8047 8.16602 34.3438 8.4082C 34.8828 8.64648 35.4805 8.76562 36.1367 8.76562C 37.082 8.76562 37.834 8.55664 38.3926 8.13867C 38.9512 7.7168 39.2305 7.13672 39.2305 6.39844C 39.2305 5.73438 39.002 5.17969 38.5449 4.73438C 38.0879 4.28906 37.3594 3.91602 36.3594 3.61523C 35.8164 3.45117 35.4043 3.27539 35.123 3.08789C 34.8457 2.90039 34.707 2.66797 34.707 2.39062C 34.707 2.09375 34.8262 1.85547 35.0645 1.67578C 35.3027 1.49219 35.6367 1.40039 36.0664 1.40039C 36.5117 1.40039 36.8574 1.50977 37.1035 1.72852C 37.3496 1.94336 37.4727 2.24609 37.4727 2.63672L 39.2305 2.63672C 39.2305 2.125 39.0977 1.66797 38.832 1.26562C 38.5703 0.863281 38.2012 0.552734 37.7246 0.333984C 37.248 0.111328 36.7051 0 36.0957 0C 35.4902 0 34.9434 0.101562 34.4551 0.304688C 33.9707 0.507812 33.5977 0.791016 33.3359 1.1543C 33.0781 1.51367 32.9492 1.92383 32.9492 2.38477C 32.9492 3.27148 33.4336 3.97656 34.4023 4.5C 34.7578 4.69141 35.2402 4.88672 35.8496 5.08594C 36.459 5.28125 36.8809 5.46875 37.1152 5.64844ZM 46.8828 5.73633L 46.8828 0.117188L 45.1191 0.117188L 45.1191 5.79492C 45.1035 6.83398 44.6016 7.35352 43.6133 7.35352C 43.1406 7.35352 42.7695 7.22656 42.5 6.97266C 42.2344 6.71484 42.1016 6.30664 42.1016 5.74805L 42.1016 0.117188L 40.3438 0.117188L 40.3438 5.80078C 40.3555 6.72266 40.6543 7.44727 41.2402 7.97461C 41.8262 8.50195 42.6172 8.76562 43.6133 8.76562C 44.625 8.76562 45.4219 8.49414 46.0039 7.95117C 46.5898 7.4082 46.8828 6.66992 46.8828 5.73633ZM 49.9297 6.89062L 53.0117 6.89062L 53.6035 8.64844L 55.4727 8.64844L 52.2793 0.117188L 50.6504 0.117188L 47.4746 8.64844L 49.3438 8.64844L 49.9297 6.89062ZM 52.5371 5.4668L 50.4043 5.4668L 51.4648 2.27344L 52.5371 5.4668ZM 61.7598 7.23633L 58.0273 7.23633L 58.0273 0.117188L 56.2695 0.117188L 56.2695 8.64844L 61.7598 8.64844L 61.7598 7.23633ZM 4.74219 20.8906L 7.82422 20.8906L 8.41602 22.6484L 10.2852 22.6484L 7.0918 14.1172L 5.46289 14.1172L 2.28711 22.6484L 4.15625 22.6484L 4.74219 20.8906ZM 7.34961 19.4668L 5.2168 19.4668L 6.27734 16.2734L 7.34961 19.4668ZM 14.1875 15.541L 16.8008 15.541L 16.8008 14.1172L 9.85156 14.1172L 9.85156 15.541L 12.4297 15.541L 12.4297 22.6484L 14.1875 22.6484L 14.1875 15.541ZM 19.5664 19.5254L 20.9668 19.5254L 22.5664 22.6484L 24.4531 22.6484L 24.4531 22.5664L 22.6074 19.0801C 23.1191 18.8496 23.5 18.541 23.75 18.1543C 24.0039 17.7637 24.1309 17.2773 24.1309 16.6953C 24.1309 15.875 23.8574 15.2402 23.3105 14.791C 22.7637 14.3418 21.9863 14.1172 20.9785 14.1172L 17.8086 14.1172L 17.8086 22.6484L 19.5664 22.6484L 19.5664 19.5254ZM 20.9844 18.1016L 19.5664 18.1016L 19.5664 15.541L 20.9785 15.541C 21.4512 15.541 21.8008 15.6562 22.0273 15.8867C 22.2578 16.1172 22.373 16.4336 22.373 16.8359C 22.373 17.2305 22.252 17.541 22.0098 17.7676C 21.7676 17.9902 21.4258 18.1016 20.9844 18.1016ZM 27.207 20.8906L 30.2891 20.8906L 30.8809 22.6484L 32.75 22.6484L 29.5566 14.1172L 27.9277 14.1172L 24.752 22.6484L 26.6211 22.6484L 27.207 20.8906ZM 29.8145 19.4668L 27.6816 19.4668L 28.7422 16.2734L 29.8145 19.4668ZM 35.3047 18.9512L 38.6797 18.9512L 38.6797 17.5742L 35.3047 17.5742L 35.3047 15.541L 39.2539 15.541L 39.2539 14.1172L 33.5469 14.1172L 33.5469 22.6484L 39.2656 22.6484L 39.2656 21.2363L 35.3047 21.2363L 35.3047 18.9512ZM 45.4766 22.6484L 47.2344 22.6484L 47.2344 14.1172L 45.4824 14.1172L 45.4824 19.7422L 42.0547 14.1172L 40.2969 14.1172L 40.2969 22.6484L 42.0547 22.6484L 42.0547 17.0352L 45.4766 22.6484ZM 52.4023 15.541L 55.0156 15.541L 55.0156 14.1172L 48.0664 14.1172L 48.0664 15.541L 50.6445 15.541L 50.6445 22.6484L 52.4023 22.6484L 52.4023 15.541ZM 57.7812 18.9512L 61.1562 18.9512L 61.1562 17.5742L 57.7812 17.5742L 57.7812 15.541L 61.7305 15.541L 61.7305 14.1172L 56.0234 14.1172L 56.0234 22.6484L 61.7422 22.6484L 61.7422 21.2363L 57.7812 21.2363L 57.7812 18.9512ZM 2.46875 28.1172L 2.46875 36.6484L 5.11133 36.6484C 5.85742 36.6445 6.52734 36.4727 7.12109 36.1328C 7.71484 35.793 8.17383 35.3145 8.49805 34.6973C 8.82617 34.0801 8.99023 33.375 8.99023 32.582L 8.99023 32.1895C 8.99023 31.3965 8.82422 30.6895 8.49219 30.0684C 8.16016 29.4434 7.69727 28.9629 7.10352 28.627C 6.51367 28.2871 5.84375 28.1172 5.09375 28.1172L 2.46875 28.1172ZM 4.22656 35.2363L 4.22656 29.541L 5.09375 29.541C 5.78516 29.541 6.31055 29.7656 6.66992 30.2148C 7.0293 30.6602 7.20898 31.3164 7.20898 32.1836L 7.20898 32.6348C 7.20117 33.4707 7.01562 34.1133 6.65234 34.5625C 6.28906 35.0117 5.76367 35.2363 5.07617 35.2363L 4.22656 35.2363ZM 10.3848 36.6484L 12.1426 36.6484L 12.1426 28.1172L 10.3848 28.1172L 10.3848 36.6484ZM 18.8633 28.1172L 16.9297 34.5332L 15.0078 28.1172L 13.0566 28.1172L 16.0156 36.6484L 17.8496 36.6484L 20.8203 28.1172L 18.8633 28.1172ZM 23.3867 32.9512L 26.7617 32.9512L 26.7617 31.5742L 23.3867 31.5742L 23.3867 29.541L 27.3359 29.541L 27.3359 28.1172L 21.6289 28.1172L 21.6289 36.6484L 27.3477 36.6484L 27.3477 35.2363L 23.3867 35.2363L 23.3867 32.9512ZM 30.1367 33.5254L 31.5371 33.5254L 33.1367 36.6484L 35.0234 36.6484L 35.0234 36.5664L 33.1777 33.0801C 33.6895 32.8496 34.0703 32.541 34.3203 32.1543C 34.5742 31.7637 34.7012 31.2773 34.7012 30.6953C 34.7012 29.875 34.4277 29.2402 33.8809 28.791C 33.334 28.3418 32.5566 28.1172 31.5488 28.1172L 28.3789 28.1172L 28.3789 36.6484L 30.1367 36.6484L 30.1367 33.5254ZM 31.5547 32.1016L 30.1367 32.1016L 30.1367 29.541L 31.5488 29.541C 32.0215 29.541 32.3711 29.6562 32.5977 29.8867C 32.8281 30.1172 32.9434 30.4336 32.9434 30.8359C 32.9434 31.2305 32.8223 31.541 32.5801 31.7676C 32.3379 31.9902 31.9961 32.1016 31.5547 32.1016ZM 39.5586 29.541L 42.1719 29.541L 42.1719 28.1172L 35.2227 28.1172L 35.2227 29.541L 37.8008 29.541L 37.8008 36.6484L 39.5586 36.6484L 39.5586 29.541ZM 43.291 36.6484L 45.0488 36.6484L 45.0488 28.1172L 43.291 28.1172L 43.291 36.6484ZM 46.6836 28.1172L 46.6836 36.6484L 49.3262 36.6484C 50.0723 36.6445 50.7422 36.4727 51.3359 36.1328C 51.9297 35.793 52.3887 35.3145 52.7129 34.6973C 53.041 34.0801 53.2051 33.375 53.2051 32.582L 53.2051 32.1895C 53.2051 31.3965 53.0391 30.6895 52.707 30.0684C 52.375 29.4434 51.9121 28.9629 51.3184 28.627C 50.7285 28.2871 50.0586 28.1172 49.3086 28.1172L 46.6836 28.1172ZM 48.4414 35.2363L 48.4414 29.541L 49.3086 29.541C 50 29.541 50.5254 29.7656 50.8848 30.2148C 51.2441 30.6602 51.4238 31.3164 51.4238 32.1836L 51.4238 32.6348C 51.416 33.4707 51.2305 34.1133 50.8672 34.5625C 50.5039 35.0117 49.9785 35.2363 49.291 35.2363L 48.4414 35.2363ZM 61.0508 34.7852C 61.3477 34.1523 61.4961 33.416 61.4961 32.5762L 61.4961 32.1953C 61.4961 31.3594 61.3438 30.623 61.0391 29.9863C 60.7383 29.3457 60.3105 28.8555 59.7559 28.5156C 59.2051 28.1719 58.5742 28 57.8633 28C 57.1523 28 56.5195 28.1719 55.9648 28.5156C 55.4141 28.8555 54.9863 29.3457 54.6816 29.9863C 54.3809 30.623 54.2305 31.3613 54.2305 32.2012L 54.2305 32.623C 54.2344 33.4434 54.3887 34.1699 54.6934 34.8027C 54.998 35.4316 55.4277 35.916 55.9824 36.2559C 56.5371 36.5957 57.168 36.7656 57.875 36.7656C 58.5898 36.7656 59.2227 36.5938 59.7734 36.25C 60.3281 35.9062 60.7539 35.418 61.0508 34.7852ZM 59.2344 30.1504C 59.5547 30.6152 59.7148 31.2949 59.7148 32.1895L 59.7148 32.6055C 59.7109 33.4922 59.5508 34.168 59.2344 34.6328C 58.918 35.0938 58.4648 35.3242 57.875 35.3242C 57.2734 35.3242 56.8125 35.084 56.4922 34.6035C 56.1719 34.123 56.0117 33.4473 56.0117 32.5762L 56.0117 32.1602C 56.0156 31.2734 56.1777 30.6016 56.498 30.1445C 56.8184 29.6836 57.2734 29.4531 57.8633 29.4531C 58.457 29.4531 58.9141 29.6855 59.2344 30.1504ZM 1.84766 46.9512L 5.22266 46.9512L 5.22266 45.5742L 1.84766 45.5742L 1.84766 43.541L 5.79688 43.541L 5.79688 42.1172L 0.0898438 42.1172L 0.0898438 50.6484L 5.80859 50.6484L 5.80859 49.2363L 1.84766 49.2363L 1.84766 46.9512ZM 11.4922 42.1172L 9.89258 45.0586L 8.29297 42.1172L 6.27148 42.1172L 8.75586 46.3477L 6.20703 50.6484L 8.25195 50.6484L 9.89258 47.6602L 11.5332 50.6484L 13.5781 50.6484L 11.0293 46.3477L 13.5137 42.1172L 11.4922 42.1172ZM 19.9941 49.9746C 20.6074 49.4473 20.9473 48.7246 21.0137 47.8066L 19.2559 47.8066C 19.2168 48.3262 19.0625 48.7109 18.793 48.9609C 18.5273 49.207 18.123 49.3301 17.5801 49.3301C 16.9785 49.3301 16.5371 49.1172 16.2559 48.6914C 15.9785 48.2656 15.8398 47.5918 15.8398 46.6699L 15.8398 46.0254C 15.8477 45.1426 15.9961 44.4922 16.2852 44.0742C 16.5781 43.6523 17.0176 43.4414 17.6035 43.4414C 18.1426 43.4414 18.543 43.5664 18.8047 43.8164C 19.0703 44.0625 19.2246 44.4609 19.2676 45.0117L 21.0254 45.0117C 20.9316 44.0586 20.584 43.3184 19.9824 42.791C 19.3809 42.2637 18.5879 42 17.6035 42C 16.8926 42 16.2676 42.168 15.7285 42.5039C 15.1934 42.8359 14.7812 43.3145 14.4922 43.9395C 14.2031 44.5645 14.0586 45.2871 14.0586 46.1074L 14.0586 46.6289C 14.0586 47.9141 14.3711 48.9258 14.9961 49.6641C 15.625 50.3984 16.4863 50.7656 17.5801 50.7656C 18.5801 50.7656 19.3848 50.502 19.9941 49.9746ZM 22.2793 50.6484L 24.0371 50.6484L 24.0371 42.1172L 22.2793 42.1172L 22.2793 50.6484ZM 29.3047 43.541L 31.918 43.541L 31.918 42.1172L 24.9688 42.1172L 24.9688 43.541L 27.5469 43.541L 27.5469 50.6484L 29.3047 50.6484L 29.3047 43.541ZM 33.957 48.8906L 37.0391 48.8906L 37.6309 50.6484L 39.5 50.6484L 36.3066 42.1172L 34.6777 42.1172L 31.502 50.6484L 33.3711 50.6484L 33.957 48.8906ZM 36.5645 47.4668L 34.4316 47.4668L 35.4922 44.2734L 36.5645 47.4668ZM 45.4766 50.6484L 47.2344 50.6484L 47.2344 42.1172L 45.4824 42.1172L 45.4824 47.7422L 42.0547 42.1172L 40.2969 42.1172L 40.2969 50.6484L 42.0547 50.6484L 42.0547 45.0352L 45.4766 50.6484ZM 52.4023 43.541L 55.0156 43.541L 55.0156 42.1172L 48.0664 42.1172L 48.0664 43.541L 50.6445 43.541L 50.6445 50.6484L 52.4023 50.6484L 52.4023 43.541ZM 57.7812 46.9512L 61.1562 46.9512L 61.1562 45.5742L 57.7812 45.5742L 57.7812 43.541L 61.7305 43.541L 61.7305 42.1172L 56.0234 42.1172L 56.0234 50.6484L 61.7422 50.6484L 61.7422 49.2363L 57.7812 49.2363L 57.7812 46.9512ZM 6.95508 79.8066C 6.88867 80.7246 6.54883 81.4473 5.93555 81.9746C 5.32617 82.502 4.52148 82.7656 3.52148 82.7656C 2.42773 82.7656 1.56641 82.3984 0.9375 81.6641C 0.3125 80.9258 0 79.9141 0 78.6289L 0 78.1074C 0 77.2871 0.144531 76.5645 0.433594 75.9395C 0.722656 75.3145 1.13477 74.8359 1.66992 74.5039C 2.20898 74.168 2.83398 74 3.54492 74C 4.5293 74 5.32227 74.2637 5.92383 74.791C 6.52539 75.3184 6.87305 76.0586 6.9668 77.0117L 5.20898 77.0117C 5.16602 76.4609 5.01172 76.0625 4.74609 75.8164C 4.48438 75.5664 4.08398 75.4414 3.54492 75.4414C 2.95898 75.4414 2.51953 75.6523 2.22656 76.0742C 1.9375 76.4922 1.78906 77.1426 1.78125 78.0254L 1.78125 78.6699C 1.78125 79.5918 1.91992 80.2656 2.19727 80.6914C 2.47852 81.1172 2.91992 81.3301 3.52148 81.3301C 4.06445 81.3301 4.46875 81.207 4.73438 80.9609C 5.00391 80.7109 5.1582 80.3262 5.19727 79.8066L 6.95508 79.8066ZM 15.1172 78.5762C 15.1172 79.416 14.9688 80.1523 14.6719 80.7852C 14.375 81.418 13.9492 81.9062 13.3945 82.25C 12.8438 82.5938 12.2109 82.7656 11.4961 82.7656C 10.7891 82.7656 10.1582 82.5957 9.60352 82.2559C 9.04883 81.916 8.61914 81.4316 8.31445 80.8027C 8.00977 80.1699 7.85547 79.4434 7.85156 78.623L 7.85156 78.2012C 7.85156 77.3613 8.00195 76.623 8.30273 75.9863C 8.60742 75.3457 9.03516 74.8555 9.58594 74.5156C 10.1406 74.1719 10.7734 74 11.4844 74C 12.1953 74 12.8262 74.1719 13.377 74.5156C 13.9316 74.8555 14.3594 75.3457 14.6602 75.9863C 14.9648 76.623 15.1172 77.3594 15.1172 78.1953L 15.1172 78.5762ZM 13.3359 78.1895C 13.3359 77.2949 13.1758 76.6152 12.8555 76.1504C 12.5352 75.6855 12.0781 75.4531 11.4844 75.4531C 10.8945 75.4531 10.4395 75.6836 10.1191 76.1445C 9.79883 76.6016 9.63672 77.2734 9.63281 78.1602L 9.63281 78.5762C 9.63281 79.4473 9.79297 80.123 10.1133 80.6035C 10.4336 81.084 10.8945 81.3242 11.4961 81.3242C 12.0859 81.3242 12.5391 81.0938 12.8555 80.6328C 13.1719 80.168 13.332 79.4922 13.3359 78.6055L 13.3359 78.1895ZM 23.332 82.6484L 21.5742 82.6484L 18.1523 77.0352L 18.1523 82.6484L 16.3945 82.6484L 16.3945 74.1172L 18.1523 74.1172L 21.5801 79.7422L 21.5801 74.1172L 23.332 74.1172L 23.332 82.6484ZM 30 79.1621L 26.625 79.1621L 26.625 82.6484L 24.8672 82.6484L 24.8672 74.1172L 30.4219 74.1172L 30.4219 75.541L 26.625 75.541L 26.625 77.7441L 30 77.7441L 30 79.1621ZM 33.3105 82.6484L 31.5527 82.6484L 31.5527 74.1172L 33.3105 74.1172L 33.3105 82.6484ZM 39.8672 80.8906L 36.7852 80.8906L 36.1992 82.6484L 34.3301 82.6484L 37.5059 74.1172L 39.1348 74.1172L 42.3281 82.6484L 40.459 82.6484L 39.8672 80.8906ZM 37.2598 79.4668L 39.3926 79.4668L 38.3203 76.2734L 37.2598 79.4668ZM 38.6836 71.832L 40.5293 71.832L 38.9062 73.6484L 37.5293 73.6484L 38.6836 71.832ZM 45.8203 80.5332L 47.7539 74.1172L 49.7109 74.1172L 46.7402 82.6484L 44.9062 82.6484L 41.9473 74.1172L 43.8984 74.1172L 45.8203 80.5332ZM 55.6523 78.9512L 52.2773 78.9512L 52.2773 81.2363L 56.2383 81.2363L 56.2383 82.6484L 50.5195 82.6484L 50.5195 74.1172L 56.2266 74.1172L 56.2266 75.541L 52.2773 75.541L 52.2773 77.5742L 55.6523 77.5742L 55.6523 78.9512ZM 59.0273 81.2363L 62.7598 81.2363L 62.7598 82.6484L 57.2695 82.6484L 57.2695 74.1172L 59.0273 74.1172L 59.0273 81.2363ZM 65.916 117.975C 66.5293 117.447 66.8691 116.725 66.9355 115.807L 65.1777 115.807C 65.1387 116.326 64.9844 116.711 64.7148 116.961C 64.4492 117.207 64.0449 117.33 63.502 117.33C 62.9004 117.33 62.459 117.117 62.1777 116.691C 61.9004 116.266 61.7617 115.592 61.7617 114.67L 61.7617 114.025C 61.7695 113.143 61.918 112.492 62.207 112.074C 62.5 111.652 62.9395 111.441 63.5254 111.441C 64.0645 111.441 64.4648 111.566 64.7266 111.816C 64.9922 112.062 65.1465 112.461 65.1895 113.012L 66.9473 113.012C 66.8535 112.059 66.5059 111.318 65.9043 110.791C 65.3027 110.264 64.5098 110 63.5254 110C 62.8145 110 62.1895 110.168 61.6504 110.504C 61.1152 110.836 60.7031 111.314 60.4141 111.939C 60.125 112.564 59.9805 113.287 59.9805 114.107L 59.9805 114.629C 59.9805 115.914 60.293 116.926 60.918 117.664C 61.5469 118.398 62.4082 118.766 63.502 118.766C 64.502 118.766 65.3066 118.502 65.916 117.975ZM 74.6523 116.785C 74.9492 116.152 75.0977 115.416 75.0977 114.576L 75.0977 114.195C 75.0977 113.359 74.9453 112.623 74.6406 111.986C 74.3398 111.346 73.9121 110.855 73.3574 110.516C 72.8066 110.172 72.1758 110 71.4648 110C 70.7539 110 70.1211 110.172 69.5664 110.516C 69.0156 110.855 68.5879 111.346 68.2832 111.986C 67.9824 112.623 67.832 113.361 67.832 114.201L 67.832 114.623C 67.8359 115.443 67.9902 116.17 68.2949 116.803C 68.5996 117.432 69.0293 117.916 69.584 118.256C 70.1387 118.596 70.7695 118.766 71.4766 118.766C 72.1914 118.766 72.8242 118.594 73.375 118.25C 73.9297 117.906 74.3555 117.418 74.6523 116.785ZM 72.8359 112.15C 73.1562 112.615 73.3164 113.295 73.3164 114.189L 73.3164 114.605C 73.3125 115.492 73.1523 116.168 72.8359 116.633C 72.5195 117.094 72.0664 117.324 71.4766 117.324C 70.875 117.324 70.4141 117.084 70.0938 116.604C 69.7734 116.123 69.6133 115.447 69.6133 114.576L 69.6133 114.16C 69.6172 113.273 69.7793 112.602 70.0996 112.145C 70.4199 111.684 70.875 111.453 71.4648 111.453C 72.0586 111.453 72.5156 111.686 72.8359 112.15ZM 81.5547 118.648L 83.3125 118.648L 83.3125 110.117L 81.5605 110.117L 81.5605 115.742L 78.1328 110.117L 76.375 110.117L 76.375 118.648L 78.1328 118.648L 78.1328 113.035L 81.5547 118.648ZM 88.9199 115.648C 89.1543 115.824 89.2715 116.078 89.2715 116.41C 89.2715 116.715 89.1543 116.953 88.9199 117.125C 88.6855 117.293 88.3594 117.377 87.9414 117.377C 86.8164 117.377 86.2539 116.906 86.2539 115.965L 84.4902 115.965C 84.4902 116.516 84.6309 117 84.9121 117.418C 85.1973 117.836 85.6094 118.166 86.1484 118.408C 86.6875 118.646 87.2852 118.766 87.9414 118.766C 88.8867 118.766 89.6387 118.557 90.1973 118.139C 90.7559 117.717 91.0352 117.137 91.0352 116.398C 91.0352 115.734 90.8066 115.18 90.3496 114.734C 89.8926 114.289 89.1641 113.916 88.1641 113.615C 87.6211 113.451 87.209 113.275 86.9277 113.088C 86.6504 112.9 86.5117 112.668 86.5117 112.391C 86.5117 112.094 86.6309 111.855 86.8691 111.676C 87.1074 111.492 87.4414 111.4 87.8711 111.4C 88.3164 111.4 88.6621 111.51 88.9082 111.729C 89.1543 111.943 89.2773 112.246 89.2773 112.637L 91.0352 112.637C 91.0352 112.125 90.9023 111.668 90.6367 111.266C 90.375 110.863 90.0059 110.553 89.5293 110.334C 89.0527 110.111 88.5098 110 87.9004 110C 87.2949 110 86.748 110.102 86.2598 110.305C 85.7754 110.508 85.4023 110.791 85.1406 111.154C 84.8828 111.514 84.7539 111.924 84.7539 112.385C 84.7539 113.271 85.2383 113.977 86.207 114.5C 86.5625 114.691 87.0449 114.887 87.6543 115.086C 88.2637 115.281 88.6855 115.469 88.9199 115.648ZM 92.3418 118.648L 94.0996 118.648L 94.0996 110.117L 92.3418 110.117L 92.3418 118.648ZM 99.8066 115.648C 100.041 115.824 100.158 116.078 100.158 116.41C 100.158 116.715 100.041 116.953 99.8066 117.125C 99.5723 117.293 99.2461 117.377 98.8281 117.377C 97.7031 117.377 97.1406 116.906 97.1406 115.965L 95.377 115.965C 95.377 116.516 95.5176 117 95.7988 117.418C 96.084 117.836 96.4961 118.166 97.0352 118.408C 97.5742 118.646 98.1719 118.766 98.8281 118.766C 99.7734 118.766 100.525 118.557 101.084 118.139C 101.643 117.717 101.922 117.137 101.922 116.398C 101.922 115.734 101.693 115.18 101.236 114.734C 100.779 114.289 100.051 113.916 99.0508 113.615C 98.5078 113.451 98.0957 113.275 97.8145 113.088C 97.5371 112.9 97.3984 112.668 97.3984 112.391C 97.3984 112.094 97.5176 111.855 97.7559 111.676C 97.9941 111.492 98.3281 111.4 98.7578 111.4C 99.2031 111.4 99.5488 111.51 99.7949 111.729C 100.041 111.943 100.164 112.246 100.164 112.637L 101.922 112.637C 101.922 112.125 101.789 111.668 101.523 111.266C 101.262 110.863 100.893 110.553 100.416 110.334C 99.9395 110.111 99.3965 110 98.7871 110C 98.1816 110 97.6348 110.102 97.1465 110.305C 96.6621 110.508 96.2891 110.791 96.0273 111.154C 95.7695 111.514 95.6406 111.924 95.6406 112.385C 95.6406 113.271 96.125 113.977 97.0938 114.5C 97.4492 114.691 97.9316 114.887 98.541 115.086C 99.1504 115.281 99.5723 115.469 99.8066 115.648ZM 106.926 111.541L 109.539 111.541L 109.539 110.117L 102.59 110.117L 102.59 111.541L 105.168 111.541L 105.168 118.648L 106.926 118.648L 106.926 111.541ZM 112.305 114.951L 115.68 114.951L 115.68 113.574L 112.305 113.574L 112.305 111.541L 116.254 111.541L 116.254 110.117L 110.547 110.117L 110.547 118.648L 116.266 118.648L 116.266 117.236L 112.305 117.236L 112.305 114.951ZM 122.477 118.648L 124.234 118.648L 124.234 110.117L 122.482 110.117L 122.482 115.742L 119.055 110.117L 117.297 110.117L 117.297 118.648L 119.055 118.648L 119.055 113.035L 122.477 118.648ZM 129.402 111.541L 132.016 111.541L 132.016 110.117L 125.066 110.117L 125.066 111.541L 127.645 111.541L 127.645 118.648L 129.402 118.648L 129.402 111.541ZM 134.781 114.951L 138.156 114.951L 138.156 113.574L 134.781 113.574L 134.781 111.541L 138.73 111.541L 138.73 110.117L 133.023 110.117L 133.023 118.648L 138.742 118.648L 138.742 117.236L 134.781 117.236L 134.781 114.951ZM 102.08 129.648C 102.314 129.824 102.432 130.078 102.432 130.41C 102.432 130.715 102.314 130.953 102.08 131.125C 101.846 131.293 101.52 131.377 101.102 131.377C 99.9766 131.377 99.4141 130.906 99.4141 129.965L 97.6504 129.965C 97.6504 130.516 97.791 131 98.0723 131.418C 98.3574 131.836 98.7695 132.166 99.3086 132.408C 99.8477 132.646 100.445 132.766 101.102 132.766C 102.047 132.766 102.799 132.557 103.357 132.139C 103.916 131.717 104.195 131.137 104.195 130.398C 104.195 129.734 103.967 129.18 103.51 128.734C 103.053 128.289 102.324 127.916 101.324 127.615C 100.781 127.451 100.369 127.275 100.088 127.088C 99.8105 126.9 99.6719 126.668 99.6719 126.391C 99.6719 126.094 99.791 125.855 100.029 125.676C 100.268 125.492 100.602 125.4 101.031 125.4C 101.477 125.4 101.822 125.51 102.068 125.729C 102.314 125.943 102.438 126.246 102.438 126.637L 104.195 126.637C 104.195 126.125 104.062 125.668 103.797 125.266C 103.535 124.863 103.166 124.553 102.689 124.334C 102.213 124.111 101.67 124 101.061 124C 100.455 124 99.9082 124.102 99.4199 124.305C 98.9355 124.508 98.5625 124.791 98.3008 125.154C 98.043 125.514 97.9141 125.924 97.9141 126.385C 97.9141 127.271 98.3984 127.977 99.3672 128.5C 99.7227 128.691 100.205 128.887 100.814 129.086C 101.424 129.281 101.846 129.469 102.08 129.648ZM 111.953 130.785C 112.25 130.152 112.398 129.416 112.398 128.576L 112.398 128.195C 112.398 127.359 112.246 126.623 111.941 125.986C 111.641 125.346 111.213 124.855 110.658 124.516C 110.107 124.172 109.477 124 108.766 124C 108.055 124 107.422 124.172 106.867 124.516C 106.316 124.855 105.889 125.346 105.584 125.986C 105.283 126.623 105.133 127.361 105.133 128.201L 105.133 128.623C 105.137 129.443 105.291 130.17 105.596 130.803C 105.9 131.432 106.33 131.916 106.885 132.256C 107.439 132.596 108.07 132.766 108.777 132.766C 109.492 132.766 110.125 132.594 110.676 132.25C 111.23 131.906 111.656 131.418 111.953 130.785ZM 110.137 126.15C 110.457 126.615 110.617 127.295 110.617 128.189L 110.617 128.605C 110.613 129.492 110.453 130.168 110.137 130.633C 109.82 131.094 109.367 131.324 108.777 131.324C 108.176 131.324 107.715 131.084 107.395 130.604C 107.074 130.123 106.914 129.447 106.914 128.576L 106.914 128.16C 106.918 127.273 107.08 126.602 107.4 126.145C 107.721 125.684 108.176 125.453 108.766 125.453C 109.359 125.453 109.816 125.686 110.137 126.15ZM 110.951 121.832L 109.105 121.832L 107.951 123.648L 109.328 123.648L 110.951 121.832ZM 119.166 131.236L 115.434 131.236L 115.434 124.117L 113.676 124.117L 113.676 132.648L 119.166 132.648L 119.166 131.236ZM 120.291 132.648L 122.049 132.648L 122.049 124.117L 120.291 124.117L 120.291 132.648ZM 123.684 124.117L 123.684 132.648L 126.326 132.648C 127.072 132.645 127.742 132.473 128.336 132.133C 128.93 131.793 129.389 131.314 129.713 130.697C 130.041 130.08 130.205 129.375 130.205 128.582L 130.205 128.189C 130.205 127.396 130.039 126.689 129.707 126.068C 129.375 125.443 128.912 124.963 128.318 124.627C 127.729 124.287 127.059 124.117 126.309 124.117L 123.684 124.117ZM 125.441 131.236L 125.441 125.541L 126.309 125.541C 127 125.541 127.525 125.766 127.885 126.215C 128.244 126.66 128.424 127.316 128.424 128.184L 128.424 128.635C 128.416 129.471 128.23 130.113 127.867 130.562C 127.504 131.012 126.979 131.236 126.291 131.236L 125.441 131.236ZM 138.051 130.785C 138.348 130.152 138.496 129.416 138.496 128.576L 138.496 128.195C 138.496 127.359 138.344 126.623 138.039 125.986C 137.738 125.346 137.311 124.855 136.756 124.516C 136.205 124.172 135.574 124 134.863 124C 134.152 124 133.52 124.172 132.965 124.516C 132.414 124.855 131.986 125.346 131.682 125.986C 131.381 126.623 131.23 127.361 131.23 128.201L 131.23 128.623C 131.234 129.443 131.389 130.17 131.693 130.803C 131.998 131.432 132.428 131.916 132.982 132.256C 133.537 132.596 134.168 132.766 134.875 132.766C 135.59 132.766 136.223 132.594 136.773 132.25C 137.328 131.906 137.754 131.418 138.051 130.785ZM 136.234 126.15C 136.555 126.615 136.715 127.295 136.715 128.189L 136.715 128.605C 136.711 129.492 136.551 130.168 136.234 130.633C 135.918 131.094 135.465 131.324 134.875 131.324C 134.273 131.324 133.812 131.084 133.492 130.604C 133.172 130.123 133.012 129.447 133.012 128.576L 133.012 128.16C 133.016 127.273 133.178 126.602 133.498 126.145C 133.818 125.684 134.273 125.453 134.863 125.453C 135.457 125.453 135.914 125.686 136.234 126.15ZM 91.6797 171.648L 91.6797 168.643L 93.2207 168.643C 94.2324 168.643 95.0234 168.402 95.5938 167.922C 96.168 167.438 96.4551 166.777 96.4551 165.941C 96.4551 165.391 96.3242 164.9 96.0625 164.471C 95.8008 164.037 95.4258 163.703 94.9375 163.469C 94.4531 163.234 93.8906 163.117 93.25 163.117L 89.9219 163.117L 89.9219 171.648L 91.6797 171.648ZM 93.25 167.219L 91.6797 167.219L 91.6797 164.541L 93.291 164.541C 93.7246 164.549 94.0645 164.682 94.3105 164.939C 94.5566 165.197 94.6797 165.535 94.6797 165.953C 94.6797 166.359 94.5566 166.672 94.3105 166.891C 94.0684 167.109 93.7148 167.219 93.25 167.219ZM 99.4258 168.525L 100.826 168.525L 102.426 171.648L 104.312 171.648L 104.312 171.566L 102.467 168.08C 102.979 167.85 103.359 167.541 103.609 167.154C 103.863 166.764 103.99 166.277 103.99 165.695C 103.99 164.875 103.717 164.24 103.17 163.791C 102.623 163.342 101.846 163.117 100.838 163.117L 97.668 163.117L 97.668 171.648L 99.4258 171.648L 99.4258 168.525ZM 100.844 167.102L 99.4258 167.102L 99.4258 164.541L 100.838 164.541C 101.311 164.541 101.66 164.656 101.887 164.887C 102.117 165.117 102.232 165.434 102.232 165.836C 102.232 166.23 102.111 166.541 101.869 166.768C 101.627 166.99 101.285 167.102 100.844 167.102ZM 107.066 169.891L 110.148 169.891L 110.74 171.648L 112.609 171.648L 109.416 163.117L 107.787 163.117L 104.611 171.648L 106.48 171.648L 107.066 169.891ZM 109.674 168.467L 107.541 168.467L 108.602 165.273L 109.674 168.467ZM 110.811 160.832L 108.965 160.832L 107.811 162.648L 109.188 162.648L 110.811 160.832ZM 116.512 164.541L 119.125 164.541L 119.125 163.117L 112.176 163.117L 112.176 164.541L 114.754 164.541L 114.754 171.648L 116.512 171.648L 116.512 164.541ZM 120.244 171.648L 122.002 171.648L 122.002 163.117L 120.244 163.117L 120.244 171.648ZM 129.314 170.975C 129.928 170.447 130.268 169.725 130.334 168.807L 128.576 168.807C 128.537 169.326 128.383 169.711 128.113 169.961C 127.848 170.207 127.443 170.33 126.9 170.33C 126.299 170.33 125.857 170.117 125.576 169.691C 125.299 169.266 125.16 168.592 125.16 167.67L 125.16 167.025C 125.168 166.143 125.316 165.492 125.605 165.074C 125.898 164.652 126.338 164.441 126.924 164.441C 127.463 164.441 127.863 164.566 128.125 164.816C 128.391 165.062 128.545 165.461 128.588 166.012L 130.346 166.012C 130.252 165.059 129.904 164.318 129.303 163.791C 128.701 163.264 127.908 163 126.924 163C 126.213 163 125.588 163.168 125.049 163.504C 124.514 163.836 124.102 164.314 123.812 164.939C 123.523 165.564 123.379 166.287 123.379 167.107L 123.379 167.629C 123.379 168.914 123.691 169.926 124.316 170.664C 124.945 171.398 125.807 171.766 126.9 171.766C 127.9 171.766 128.705 171.502 129.314 170.975ZM 138.051 169.785C 138.348 169.152 138.496 168.416 138.496 167.576L 138.496 167.195C 138.496 166.359 138.344 165.623 138.039 164.986C 137.738 164.346 137.311 163.855 136.756 163.516C 136.205 163.172 135.574 163 134.863 163C 134.152 163 133.52 163.172 132.965 163.516C 132.414 163.855 131.986 164.346 131.682 164.986C 131.381 165.623 131.23 166.361 131.23 167.201L 131.23 167.623C 131.234 168.443 131.389 169.17 131.693 169.803C 131.998 170.432 132.428 170.916 132.982 171.256C 133.537 171.596 134.168 171.766 134.875 171.766C 135.59 171.766 136.223 171.594 136.773 171.25C 137.328 170.906 137.754 170.418 138.051 169.785ZM 136.234 165.15C 136.555 165.615 136.715 166.295 136.715 167.189L 136.715 167.605C 136.711 168.492 136.551 169.168 136.234 169.633C 135.918 170.094 135.465 170.324 134.875 170.324C 134.273 170.324 133.812 170.084 133.492 169.604C 133.172 169.123 133.012 168.447 133.012 167.576L 133.012 167.16C 133.016 166.273 133.178 165.602 133.498 165.145C 133.818 164.684 134.273 164.453 134.863 164.453C 135.457 164.453 135.914 164.686 136.234 165.15ZM 120.895 182.736L 120.895 177.117L 119.131 177.117L 119.131 182.795C 119.115 183.834 118.613 184.354 117.625 184.354C 117.152 184.354 116.781 184.227 116.512 183.973C 116.246 183.715 116.113 183.307 116.113 182.748L 116.113 177.117L 114.355 177.117L 114.355 182.801C 114.367 183.723 114.666 184.447 115.252 184.975C 115.838 185.502 116.629 185.766 117.625 185.766C 118.637 185.766 119.434 185.494 120.016 184.951C 120.602 184.408 120.895 183.67 120.895 182.736ZM 119.787 174.832L 117.941 174.832L 116.787 176.648L 118.164 176.648L 119.787 174.832ZM 126.145 178.541L 128.758 178.541L 128.758 177.117L 121.809 177.117L 121.809 178.541L 124.387 178.541L 124.387 185.648L 126.145 185.648L 126.145 178.541ZM 129.877 185.648L 131.635 185.648L 131.635 177.117L 129.877 177.117L 129.877 185.648ZM 138.76 184.236L 135.027 184.236L 135.027 177.117L 133.27 177.117L 133.27 185.648L 138.76 185.648L 138.76 184.236Z"/>
</defs>
</svg>
