<svg width="349" height="81" viewBox="0 0 349 81" version="1.1" xmlns="http://www.w3.org/2000/svg" xmlns:xlink="http://www.w3.org/1999/xlink">
<title>Union</title>
<desc>Created using Figma</desc>
<g id="Canvas" transform="translate(-5105 299)">
<g id="Union">
<use xlink:href="#path0_fill" transform="translate(5105 -299)" fill="#FFFFFF"/>
</g>
</g>
<defs>
<path id="path0_fill" fill-rule="evenodd" d="M 347.64 81L 0 81L 0 80L 346.717 80L 273.857 1L 0 1L 0 0L 274.295 0L 348.078 80L 349 81L 347.64 81ZM 251.117 38.5352L 253.367 38.5352L 253.367 37.6172L 251.117 37.6172L 251.117 36.2617L 253.75 36.2617L 253.75 35.3125L 249.945 35.3125L 249.945 41L 253.758 41L 253.758 40.0586L 251.117 40.0586L 251.117 38.5352ZM 257.438 39.4375L 255.977 35.3125L 254.445 35.3125L 254.445 41L 255.617 41L 255.617 39.4453L 255.5 36.7656L 257.031 41L 257.836 41L 259.371 36.7617L 259.254 39.4453L 259.254 41L 260.43 41L 260.43 35.3125L 258.891 35.3125L 257.438 39.4375ZM 265.828 39.7578C 266.026 39.3359 266.125 38.8451 266.125 38.2852L 266.125 38.0312C 266.125 37.474 266.023 36.9831 265.82 36.5586C 265.62 36.1315 265.334 35.8047 264.965 35.5781C 264.598 35.349 264.177 35.2344 263.703 35.2344C 263.229 35.2344 262.807 35.349 262.438 35.5781C 262.07 35.8047 261.785 36.1315 261.582 36.5586C 261.381 36.9831 261.281 37.4753 261.281 38.0352L 261.281 38.3164C 261.284 38.8633 261.387 39.3477 261.59 39.7695C 261.793 40.1888 262.08 40.5117 262.449 40.7383C 262.819 40.9648 263.24 41.0781 263.711 41.0781C 264.188 41.0781 264.609 40.9635 264.977 40.7344C 265.346 40.5052 265.63 40.1797 265.828 39.7578ZM 264.617 36.668C 264.831 36.9779 264.938 37.431 264.938 38.0273L 264.938 38.3047C 264.935 38.8958 264.828 39.3463 264.617 39.6562C 264.406 39.9635 264.104 40.1172 263.711 40.1172C 263.31 40.1172 263.002 39.957 262.789 39.6367C 262.576 39.3164 262.469 38.8659 262.469 38.2852L 262.469 38.0078C 262.471 37.4167 262.58 36.9688 262.793 36.6641C 263.006 36.3568 263.31 36.2031 263.703 36.2031C 264.099 36.2031 264.404 36.3581 264.617 36.668ZM 270.762 40.5508C 271.17 40.1992 271.397 39.7174 271.441 39.1055L 270.27 39.1055C 270.253 39.3206 270.208 39.501 270.132 39.6468C 270.086 39.7357 270.029 39.8118 269.961 39.875C 269.784 40.0391 269.514 40.1211 269.152 40.1211C 268.751 40.1211 268.457 39.9792 268.27 39.6953C 268.084 39.4115 267.992 38.9622 267.992 38.3477L 267.992 37.918C 267.998 37.3294 268.096 36.8958 268.289 36.6172C 268.484 36.3359 268.777 36.1953 269.168 36.1953C 269.527 36.1953 269.794 36.2787 269.969 36.4453C 270.146 36.6094 270.249 36.875 270.277 37.2422L 271.449 37.2422C 271.387 36.6068 271.155 36.1133 270.754 35.7617C 270.353 35.4102 269.824 35.2344 269.168 35.2344C 268.694 35.2344 268.277 35.3463 267.918 35.5703C 267.561 35.7917 267.287 36.1107 267.094 36.5273C 266.901 36.944 266.805 37.4258 266.805 37.9727L 266.805 38.3203C 266.805 39.1771 267.013 39.8516 267.43 40.3438C 267.849 40.8333 268.423 41.0781 269.152 41.0781C 269.819 41.0781 270.355 40.9023 270.762 40.5508ZM 272.285 41L 273.457 41L 273.457 35.3125L 272.285 35.3125L 272.285 41ZM 278.922 39.7578C 279.12 39.3359 279.219 38.8451 279.219 38.2852L 279.219 38.0312C 279.219 37.474 279.117 36.9831 278.914 36.5586C 278.713 36.1315 278.428 35.8047 278.059 35.5781C 277.691 35.349 277.271 35.2344 276.797 35.2344C 276.323 35.2344 275.901 35.349 275.531 35.5781C 275.164 35.8047 274.879 36.1315 274.676 36.5586C 274.475 36.9831 274.375 37.4753 274.375 38.0352L 274.375 38.3164C 274.377 38.8633 274.48 39.3477 274.684 39.7695C 274.887 40.1888 275.173 40.5117 275.543 40.7383C 275.913 40.9648 276.333 41.0781 276.805 41.0781C 277.281 41.0781 277.703 40.9635 278.07 40.7344C 278.44 40.5052 278.724 40.1797 278.922 39.7578ZM 277.711 36.668C 277.924 36.9779 278.031 37.431 278.031 38.0273L 278.031 38.3047C 278.029 38.8958 277.922 39.3463 277.711 39.6562C 277.5 39.9635 277.198 40.1172 276.805 40.1172C 276.404 40.1172 276.096 39.957 275.883 39.6367C 275.669 39.3164 275.562 38.8659 275.562 38.2852L 275.562 38.0078C 275.565 37.4167 275.673 36.9688 275.887 36.6641C 276.1 36.3568 276.404 36.2031 276.797 36.2031C 277.193 36.2031 277.498 36.3581 277.711 36.668ZM 283.523 41L 284.695 41L 284.695 35.3125L 283.527 35.3125L 283.527 39.0625L 281.242 35.3125L 280.07 35.3125L 280.07 41L 281.242 41L 281.242 37.2578L 283.523 41ZM 286.945 39.8281L 289 39.8281L 289.395 41L 290.641 41L 288.512 35.3125L 287.426 35.3125L 285.309 41L 286.555 41L 286.945 39.8281ZM 288.684 38.8789L 287.262 38.8789L 287.969 36.75L 288.684 38.8789ZM 294.832 40.0586L 292.344 40.0586L 292.344 35.3125L 291.172 35.3125L 291.172 41L 294.832 41L 294.832 40.0586Z"/>
</defs>
</svg>
