<svg width="600" height="600" viewBox="0 0 600 600" fill="none" xmlns="http://www.w3.org/2000/svg">
<path fill-rule="evenodd" clip-rule="evenodd" d="M0 0H600V600H0V0ZM98.6016 107.1C98.6016 96.6004 101.868 88.0837 108.402 81.5504C115.168 74.7837 123.802 71.4004 134.302 71.4004H180.502V113.4H152.152C145.852 113.4 142.702 116.9 142.702 123.9V218.05C142.702 225.984 140.135 232.517 135.002 237.65C130.102 242.784 123.568 245.35 115.402 245.35H113.302V251.65H115.402C123.568 251.65 130.102 254.217 135.002 259.35C140.135 264.484 142.702 271.017 142.702 278.95V373.1C142.702 380.1 145.852 383.6 152.152 383.6H180.502V425.6H134.302C123.802 425.6 115.168 422.217 108.402 415.45C101.868 408.917 98.6016 400.4 98.6016 389.9V283.85C98.6016 277.084 95.4516 273.7 89.1516 273.7H67.1016V223.3H89.1516C95.4516 223.3 98.6016 219.917 98.6016 213.15V107.1ZM511.049 331.3C504.749 331.3 501.599 327.917 501.599 321.15V215.1C501.599 204.6 498.216 196.084 491.449 189.55C484.916 182.784 476.399 179.4 465.899 179.4H419.699V221.4H448.049C454.349 221.4 457.499 224.9 457.499 231.9V326.05C457.499 333.984 459.949 340.517 464.849 345.65C469.983 350.784 476.633 353.35 484.799 353.35H486.899V359.65H484.799C476.633 359.65 469.983 362.217 464.849 367.35C459.949 372.484 457.499 379.017 457.499 386.95V481.1C457.499 488.1 454.349 491.6 448.049 491.6H419.699V533.6H465.899C476.399 533.6 484.916 530.217 491.449 523.45C498.216 516.917 501.599 508.4 501.599 497.9V391.85C501.599 385.084 504.749 381.7 511.049 381.7H533.099V331.3H511.049Z" fill="white"/>
</svg>
