<svg width="781" height="296" viewBox="0 0 781 296" fill="none" xmlns="http://www.w3.org/2000/svg">
<rect x="3.5" y="3.5" width="177" height="37" transform="translate(291)" stroke="white" stroke-width="7"/>
<rect x="3.5" y="3.5" width="109" height="37" transform="translate(79 77)" stroke="white" stroke-width="7"/>
<rect x="3.5" y="3.5" width="98" height="37" transform="translate(227 77)" stroke="white" stroke-width="7"/>
<rect x="3.5" y="3.5" width="98" height="37" transform="translate(310 140)" stroke="white" stroke-width="7"/>
<rect x="3.5" y="3.5" width="98" height="37" transform="translate(310 196)" stroke="white" stroke-width="7"/>
<rect x="3.5" y="3.5" width="98" height="37" transform="translate(0 140)" stroke="white" stroke-width="7"/>
<rect x="3.5" y="3.5" width="98" height="37" transform="translate(0 196)" stroke="white" stroke-width="7"/>
<rect x="3.5" y="3.5" width="98" height="37" transform="translate(676 140)" stroke="white" stroke-width="7"/>
<rect x="3.5" y="3.5" width="98" height="37" transform="translate(676 196)" stroke="white" stroke-width="7"/>
<rect x="3.5" y="3.5" width="98" height="37" transform="translate(310 252)" stroke="white" stroke-width="7"/>
<rect x="3.5" y="3.5" width="98" height="37" transform="translate(443 77)" stroke="white" stroke-width="7"/>
<rect x="3.5" y="3.5" width="98" height="37" transform="translate(591 77)" stroke="white" stroke-width="7"/>
<line y1="-0.5" x2="14" y2="-0.5" transform="translate(383 44) rotate(90)" stroke="white"/>
<line y1="-0.5" x2="507" y2="-0.5" transform="translate(644 58) rotate(180)" stroke="white"/>
<line y1="-0.5" x2="19" y2="-0.5" transform="translate(137 58) rotate(90)" stroke="white"/>
<line y1="-0.5" x2="19" y2="-0.5" transform="translate(280 58) rotate(90)" stroke="white"/>
<line y1="-0.5" x2="19" y2="-0.5" transform="translate(496 58) rotate(90)" stroke="white"/>
<line y1="-0.5" x2="19" y2="-0.5" transform="translate(644 58) rotate(90)" stroke="white"/>
<line y1="-0.5" x2="153" y2="-0.5" transform="translate(280 121) rotate(90)" stroke="white"/>
<line y1="-0.5" x2="97" y2="-0.5" transform="translate(644 121) rotate(90)" stroke="white"/>
<line y1="-0.5" x2="97" y2="-0.5" transform="translate(137 121) rotate(90)" stroke="white"/>
<line y1="-0.5" x2="32" y2="-0.5" transform="translate(137 218) rotate(-180)" stroke="white"/>
<line y1="-0.5" x2="32" y2="-0.5" transform="translate(312 274) rotate(-180)" stroke="white"/>
<line y1="-0.5" x2="32" y2="-0.5" transform="translate(312 218) rotate(-180)" stroke="white"/>
<line y1="-0.5" x2="32" y2="-0.5" transform="translate(312 162) rotate(-180)" stroke="white"/>
<line y1="-0.5" x2="32" y2="-0.5" transform="translate(676 218) rotate(-180)" stroke="white"/>
<line y1="-0.5" x2="32" y2="-0.5" transform="translate(676 162) rotate(-180)" stroke="white"/>
<line y1="-0.5" x2="32" y2="-0.5" transform="translate(137 162) rotate(-180)" stroke="white"/>
</svg>
