<svg width="179" height="158" viewBox="0 0 179 158" fill="none" xmlns="http://www.w3.org/2000/svg">
<rect x="134.901" y="62.0076" width="36.9474" height="84.0679" fill="#EAEAEA"/>
<path fill-rule="evenodd" clip-rule="evenodd" d="M48.4922 17.2905H21.6755V24.4452H24.6552V53.0641H45.5126V24.4452H48.4922V17.2905Z" fill="#EAEAEA"/>
<path d="M45.5124 27.1282V32.4942L24.655 53.9584V47.9961L45.5124 27.1282Z" fill="#C4C4C4"/>
<path d="M152.183 25.6377H97.9541L130.134 62.9019H179L152.183 25.6377Z" fill="#D3D3D3"/>
<path fill-rule="evenodd" clip-rule="evenodd" d="M75.6068 0L151.214 76.9132H140.265V158H93.1867V153.826H56.2392V158H10.3529V76.9132H0L75.6068 0ZM74.117 44.8116C68.499 45.5309 64.1354 50.2639 63.99 56.0453H74.117V44.8116ZM77.0966 56.0453H87.2237C87.0782 50.2639 82.7146 45.5309 77.0966 44.8116V56.0453ZM63.9862 58.4301H74.117V68.566H63.9862V58.4301ZM31.8062 101.955H21.6755V112.091H31.8062V101.955ZM44.9166 101.955H34.7859V112.091H44.9166V101.955ZM87.2274 58.4301H77.0966V68.566H87.2274V58.4301ZM21.6755 115.072H31.8062V125.208H21.6755V115.072ZM44.9166 115.072H34.7859V125.208H44.9166V115.072ZM106.297 101.955H116.428V112.091H106.297V101.955ZM129.538 101.955H119.407V112.091H129.538V101.955ZM106.297 115.072H116.428V125.208H106.297V115.072ZM129.538 115.072H119.407V125.208H129.538V115.072ZM19.2918 126.996H47.3003V129.977H19.2918V126.996ZM131.922 126.996H103.913V129.977H131.922V126.996ZM66.37 134.747C67.0282 134.747 67.5618 134.213 67.5618 133.555C67.5618 132.896 67.0282 132.362 66.37 132.362C65.7117 132.362 65.1781 132.896 65.1781 133.555C65.1781 134.213 65.7117 134.747 66.37 134.747Z" fill="white"/>
<path fill-rule="evenodd" clip-rule="evenodd" d="M87.2274 111.494H62.7944V153.826H87.2274V111.494ZM66.37 134.747C67.0282 134.747 67.5618 134.213 67.5618 133.555C67.5618 132.896 67.0282 132.362 66.37 132.362C65.7117 132.362 65.1781 132.896 65.1781 133.555C65.1781 134.213 65.7117 134.747 66.37 134.747Z" fill="#EAEAEA"/>
<path fill-rule="evenodd" clip-rule="evenodd" d="M84.2477 111.494H62.7944V115.072H84.2477V153.826H87.2274V115.072H87.2274V111.494H87.2274H84.2477Z" fill="#D3D3D3"/>
</svg>
