<svg width="158" height="158" viewBox="0 0 158 158" fill="none" xmlns="http://www.w3.org/2000/svg">
<path fill-rule="evenodd" clip-rule="evenodd" d="M157.445 78.7491L78.7223 0.482666L43.6092 35.3925V25.4229H23.9195V54.9681L0 78.7491H10.5623L78.7223 10.9838L146.882 78.7491H157.445ZM47.547 15.5781H19.3251V22.7976H47.547V15.5781ZM142.142 78.5848L79.0503 15.5779L15.9588 78.5848H16.0434V158H60.0167V152.749H63.9548V112.713H92.833V152.749H96.1145V158H142.057V78.5848H142.142ZM37.0455 102.212H26.5444V112.713H37.0455V102.212ZM50.1719 102.212H39.6707V112.713H50.1719V102.212ZM26.5444 115.339H37.0455V125.84H26.5444V115.339ZM50.1719 115.339H39.6707V125.84H50.1719V115.339ZM107.928 102.212H118.429V112.713H107.928V102.212ZM131.556 102.212H121.055V112.713H131.556V102.212ZM107.928 115.339H118.429V125.84H107.928V115.339ZM131.556 115.339H121.055V125.84H131.556V115.339ZM24.5754 127.809H52.141V131.091H24.5754V127.809ZM133.525 127.809H105.959V131.091H133.525V127.809ZM71.1746 136.998C72.262 136.998 73.1436 136.116 73.1436 135.029C73.1436 133.941 72.262 133.06 71.1746 133.06C70.0872 133.06 69.2056 133.941 69.2056 135.029C69.2056 136.116 70.0872 136.998 71.1746 136.998Z" fill="white"/>
</svg>
