<svg width="847" height="208" viewBox="0 0 847 208" fill="none" xmlns="http://www.w3.org/2000/svg">
<path d="M11.4801 88.9926L3.24809 93.9606L11.4801 98.9046L10.1601 100.849L0.944092 95.1126V92.7846L10.2321 87.0486L11.4801 88.9926Z" fill="white"/>
<path d="M25.2227 98.3766C25.2227 98.8566 25.2947 99.2166 25.4387 99.4566C25.5827 99.6806 25.8307 99.8486 26.1827 99.9606L25.5587 101.785C24.2307 101.625 23.3587 101.041 22.9427 100.033C22.4787 100.609 21.8947 101.049 21.1907 101.353C20.5027 101.641 19.7427 101.785 18.9107 101.785C17.6307 101.785 16.6147 101.425 15.8627 100.705C15.1107 99.9846 14.7347 99.0326 14.7347 97.8486C14.7347 96.5206 15.2547 95.4966 16.2947 94.7766C17.3507 94.0566 18.8387 93.6966 20.7587 93.6966H22.5587V92.8806C22.5587 92.0806 22.3187 91.4966 21.8387 91.1286C21.3587 90.7606 20.6627 90.5766 19.7507 90.5766C19.3027 90.5766 18.7827 90.6326 18.1907 90.7446C17.5987 90.8566 16.9987 91.0166 16.3907 91.2246L15.7187 89.3286C17.2387 88.7526 18.7187 88.4646 20.1587 88.4646C21.8387 88.4646 23.1027 88.8326 23.9507 89.5686C24.7987 90.3046 25.2227 91.3526 25.2227 92.7126V98.3766ZM19.7027 99.8166C20.2627 99.8166 20.7987 99.6726 21.3107 99.3846C21.8387 99.0966 22.2547 98.6966 22.5587 98.1846V95.3766H21.0707C19.8547 95.3766 18.9667 95.5846 18.4067 96.0006C17.8467 96.4006 17.5667 96.9846 17.5667 97.7526C17.5667 98.4246 17.7427 98.9366 18.0947 99.2886C18.4627 99.6406 18.9987 99.8166 19.7027 99.8166Z" fill="white"/>
<path d="M46.996 90.3606C47.508 89.7366 48.1 89.2646 48.772 88.9446C49.46 88.6246 50.18 88.4646 50.932 88.4646C52.1 88.4646 52.98 88.7926 53.572 89.4486C54.164 90.0886 54.46 91.0166 54.46 92.2326V101.473H51.772V92.6406C51.772 91.8886 51.628 91.3526 51.34 91.0326C51.052 90.6966 50.588 90.5286 49.948 90.5286C49.388 90.5286 48.844 90.7126 48.316 91.0806C47.804 91.4326 47.364 91.8726 46.996 92.4006V101.473H44.308V83.7366L46.996 83.4486V90.3606Z" fill="white"/>
<path d="M67.6746 88.4886C68.3306 88.4886 68.9706 88.5926 69.5946 88.8006L69.1386 93.4806H67.2186V90.8886C66.3386 90.9046 65.5706 91.2566 64.9146 91.9446C64.2746 92.6326 63.7626 93.6006 63.3786 94.8486V99.5526H65.9226V101.473H58.8186V99.5526H60.6906V90.7206H58.8186V88.8006H62.7306L63.2106 91.7286C63.7066 90.6406 64.3066 89.8326 65.0106 89.3046C65.7306 88.7606 66.6186 88.4886 67.6746 88.4886Z" fill="white"/>
<path d="M75.3212 96.0006C75.4012 97.2326 75.7532 98.1606 76.3772 98.7846C77.0172 99.3926 77.8172 99.6966 78.7772 99.6966C79.3692 99.6966 79.9292 99.6086 80.4572 99.4326C81.0012 99.2406 81.5532 98.9606 82.1132 98.5926L83.2652 100.225C82.6732 100.721 81.9772 101.105 81.1772 101.377C80.3772 101.649 79.5372 101.785 78.6572 101.785C76.7212 101.785 75.2172 101.185 74.1452 99.9846C73.0732 98.7686 72.5372 97.1526 72.5372 95.1366C72.5372 93.8726 72.7692 92.7366 73.2332 91.7286C73.6972 90.7046 74.3692 89.9046 75.2492 89.3286C76.1292 88.7526 77.1532 88.4646 78.3212 88.4646C80.0012 88.4646 81.3292 89.0326 82.3052 90.1686C83.2972 91.2886 83.7932 92.8326 83.7932 94.8006C83.7932 95.2806 83.7692 95.6806 83.7212 96.0006H75.3212ZM78.3452 90.4566C77.4812 90.4566 76.7772 90.7686 76.2332 91.3926C75.6892 92.0166 75.3772 92.9446 75.2972 94.1766H81.1772C81.1452 92.9766 80.8892 92.0566 80.4092 91.4166C79.9292 90.7766 79.2412 90.4566 78.3452 90.4566Z" fill="white"/>
<path d="M95.1838 83.4006C96.5598 83.4006 97.8238 83.6486 98.9758 84.1446L98.1598 86.0166C97.3438 85.6646 96.4398 85.4886 95.4478 85.4886C94.6158 85.4886 93.9998 85.6486 93.5998 85.9686C93.1998 86.2886 92.9998 86.7846 92.9998 87.4566V89.7126H97.2478L96.9358 91.7046H92.9998V101.473H90.3118V91.7046H87.4318V89.7126H90.3118V87.4326C90.3118 86.6326 90.5118 85.9286 90.9118 85.3206C91.3278 84.7126 91.9038 84.2406 92.6398 83.9046C93.3758 83.5686 94.2238 83.4006 95.1838 83.4006Z" fill="white"/>
<path d="M111.902 92.7366H101.966V90.5286H111.902V92.7366ZM111.902 97.4646H101.966V95.2806H111.902V97.4646Z" fill="white"/>
<path d="M117.749 83.7126H120.677L120.269 90.1206H118.133L117.749 83.7126ZM121.973 83.7126H124.901L124.517 90.1206H122.381L121.973 83.7126Z" fill="white"/>
<path d="M133.34 90.3606C133.852 89.7366 134.444 89.2646 135.116 88.9446C135.804 88.6246 136.524 88.4646 137.276 88.4646C138.444 88.4646 139.324 88.7926 139.916 89.4486C140.508 90.0886 140.804 91.0166 140.804 92.2326V101.473H138.116V92.6406C138.116 91.8886 137.972 91.3526 137.684 91.0326C137.396 90.6966 136.932 90.5286 136.292 90.5286C135.732 90.5286 135.188 90.7126 134.66 91.0806C134.148 91.4326 133.708 91.8726 133.34 92.4006V101.473H130.652V83.7366L133.34 83.4486V90.3606Z" fill="white"/>
<path d="M155.626 100.801C155.146 101.105 154.586 101.345 153.946 101.521C153.306 101.697 152.634 101.785 151.93 101.785C150.49 101.785 149.378 101.417 148.594 100.681C147.81 99.9286 147.418 98.9126 147.418 97.6326V90.7686H144.61V88.8006H147.418V85.9686L150.106 85.6566V88.8006H154.402L154.09 90.7686H150.106V97.6086C150.106 98.2966 150.282 98.8086 150.634 99.1446C150.986 99.4646 151.546 99.6246 152.314 99.6246C153.162 99.6246 153.946 99.4246 154.666 99.0246L155.626 100.801Z" fill="white"/>
<path d="M170.017 100.801C169.537 101.105 168.977 101.345 168.337 101.521C167.697 101.697 167.025 101.785 166.321 101.785C164.881 101.785 163.769 101.417 162.985 100.681C162.201 99.9286 161.809 98.9126 161.809 97.6326V90.7686H159.001V88.8006H161.809V85.9686L164.497 85.6566V88.8006H168.793L168.481 90.7686H164.497V97.6086C164.497 98.2966 164.673 98.8086 165.025 99.1446C165.377 99.4646 165.937 99.6246 166.705 99.6246C167.553 99.6246 168.337 99.4246 169.057 99.0246L170.017 100.801Z" fill="white"/>
<path d="M180.016 88.4646C183.088 88.4646 184.624 90.6806 184.624 95.1126C184.624 97.1126 184.2 98.7286 183.352 99.9606C182.504 101.177 181.296 101.785 179.728 101.785C178.4 101.785 177.328 101.321 176.512 100.393V106.345L173.824 106.657V88.8006H176.152L176.32 90.4326C176.8 89.7926 177.352 89.3046 177.976 88.9686C178.616 88.6326 179.296 88.4646 180.016 88.4646ZM179.272 90.5286C178.712 90.5286 178.2 90.6966 177.736 91.0326C177.272 91.3686 176.864 91.8086 176.512 92.3526V98.2806C177.136 99.2246 177.968 99.6966 179.008 99.6966C179.936 99.6966 180.632 99.3286 181.096 98.5926C181.56 97.8566 181.792 96.7046 181.792 95.1366C181.792 93.5206 181.584 92.3526 181.168 91.6326C180.752 90.8966 180.12 90.5286 179.272 90.5286Z" fill="white"/>
<path d="M192.822 99.7446C193.67 99.7446 194.334 99.5926 194.814 99.2886C195.31 98.9846 195.558 98.5686 195.558 98.0406C195.558 97.6726 195.486 97.3766 195.342 97.1526C195.198 96.9126 194.91 96.6966 194.478 96.5046C194.046 96.2966 193.398 96.0806 192.534 95.8566C191.142 95.5046 190.094 95.0566 189.39 94.5126C188.702 93.9526 188.358 93.1526 188.358 92.1126C188.358 91.0086 188.814 90.1286 189.726 89.4726C190.638 88.8006 191.87 88.4646 193.422 88.4646C195.294 88.4646 196.902 88.9526 198.246 89.9286L197.094 91.6326C195.958 90.8806 194.758 90.5046 193.494 90.5046C191.894 90.5046 191.094 90.9686 191.094 91.8966C191.094 92.2166 191.182 92.4806 191.358 92.6886C191.55 92.8966 191.87 93.0966 192.318 93.2886C192.766 93.4646 193.43 93.6726 194.31 93.9126C195.686 94.2966 196.71 94.7686 197.382 95.3286C198.07 95.8886 198.414 96.7286 198.414 97.8486C198.414 99.1446 197.878 100.129 196.806 100.801C195.734 101.457 194.406 101.785 192.822 101.785C190.726 101.785 188.99 101.193 187.614 100.009L189.03 98.3766C189.558 98.7926 190.142 99.1286 190.782 99.3846C191.438 99.6246 192.118 99.7446 192.822 99.7446Z" fill="white"/>
<path d="M205.509 91.1046C205.509 90.5126 205.717 90.0086 206.133 89.5926C206.549 89.1606 207.053 88.9446 207.645 88.9446C208.253 88.9446 208.765 89.1606 209.181 89.5926C209.597 90.0086 209.805 90.5126 209.805 91.1046C209.805 91.6966 209.597 92.2086 209.181 92.6406C208.765 93.0566 208.253 93.2646 207.645 93.2646C207.053 93.2646 206.549 93.0566 206.133 92.6406C205.717 92.2086 205.509 91.6966 205.509 91.1046ZM205.509 99.6246C205.509 99.0326 205.717 98.5286 206.133 98.1126C206.549 97.6966 207.053 97.4886 207.645 97.4886C208.269 97.4886 208.781 97.6966 209.181 98.1126C209.597 98.5286 209.805 99.0326 209.805 99.6246C209.805 100.233 209.597 100.745 209.181 101.161C208.781 101.577 208.269 101.785 207.645 101.785C207.053 101.785 206.549 101.577 206.133 101.161C205.717 100.745 205.509 100.233 205.509 99.6246Z" fill="white"/>
<path d="M215.915 103.057L226.091 81.9846L228.203 82.9686L218.051 104.017L215.915 103.057Z" fill="white"/>
<path d="M230.306 103.057L240.482 81.9846L242.594 82.9686L232.442 104.017L230.306 103.057Z" fill="white"/>
<path d="M252.329 101.473L250.889 92.4726L249.353 101.473H246.065L243.929 88.8006H246.521L247.841 99.7926L249.617 90.4086H252.305L253.937 99.7926L255.257 88.8006H257.753L255.689 101.473H252.329Z" fill="white"/>
<path d="M266.719 101.473L265.279 92.4726L263.743 101.473H260.455L258.319 88.8006H260.911L262.231 99.7926L264.007 90.4086H266.695L268.327 99.7926L269.647 88.8006H272.143L270.079 101.473H266.719Z" fill="white"/>
<path d="M281.11 101.473L279.67 92.4726L278.134 101.473H274.846L272.71 88.8006H275.302L276.622 99.7926L278.398 90.4086H281.086L282.718 99.7926L284.038 88.8006H286.534L284.47 101.473H281.11Z" fill="white"/>
<path d="M291.685 99.4566C291.685 98.8166 291.909 98.2726 292.357 97.8246C292.805 97.3766 293.349 97.1526 293.989 97.1526C294.645 97.1526 295.197 97.3766 295.645 97.8246C296.093 98.2726 296.317 98.8166 296.317 99.4566C296.317 100.113 296.093 100.665 295.645 101.113C295.197 101.561 294.645 101.785 293.989 101.785C293.349 101.785 292.805 101.561 292.357 101.113C291.909 100.665 291.685 100.113 291.685 99.4566Z" fill="white"/>
<path d="M312.315 88.4886C312.971 88.4886 313.611 88.5926 314.235 88.8006L313.779 93.4806H311.859V90.8886C310.979 90.9046 310.211 91.2566 309.555 91.9446C308.915 92.6326 308.403 93.6006 308.019 94.8486V99.5526H310.563V101.473H303.459V99.5526H305.331V90.7206H303.459V88.8006H307.371L307.851 91.7286C308.347 90.6406 308.947 89.8326 309.651 89.3046C310.371 88.7606 311.259 88.4886 312.315 88.4886Z" fill="white"/>
<path d="M327.426 98.3766C327.426 98.8566 327.498 99.2166 327.642 99.4566C327.786 99.6806 328.034 99.8486 328.386 99.9606L327.762 101.785C326.434 101.625 325.562 101.041 325.146 100.033C324.682 100.609 324.098 101.049 323.394 101.353C322.706 101.641 321.946 101.785 321.114 101.785C319.834 101.785 318.818 101.425 318.066 100.705C317.314 99.9846 316.938 99.0326 316.938 97.8486C316.938 96.5206 317.458 95.4966 318.498 94.7766C319.554 94.0566 321.042 93.6966 322.962 93.6966H324.762V92.8806C324.762 92.0806 324.522 91.4966 324.042 91.1286C323.562 90.7606 322.866 90.5766 321.954 90.5766C321.506 90.5766 320.986 90.6326 320.394 90.7446C319.802 90.8566 319.202 91.0166 318.594 91.2246L317.922 89.3286C319.442 88.7526 320.922 88.4646 322.362 88.4646C324.042 88.4646 325.306 88.8326 326.154 89.5686C327.002 90.3046 327.426 91.3526 327.426 92.7126V98.3766ZM321.906 99.8166C322.466 99.8166 323.002 99.6726 323.514 99.3846C324.042 99.0966 324.458 98.6966 324.762 98.1846V95.3766H323.274C322.058 95.3766 321.17 95.5846 320.61 96.0006C320.05 96.4006 319.77 96.9846 319.77 97.7526C319.77 98.4246 319.946 98.9366 320.298 99.2886C320.666 99.6406 321.202 99.8166 321.906 99.8166Z" fill="white"/>
<path d="M332.12 88.8006H334.448L334.64 90.4566C335.168 89.8166 335.784 89.3286 336.488 88.9926C337.208 88.6406 337.96 88.4646 338.744 88.4646C339.912 88.4646 340.792 88.7926 341.384 89.4486C341.976 90.1046 342.272 91.0326 342.272 92.2326V101.473H339.584V93.5766C339.584 92.7926 339.536 92.1926 339.44 91.7766C339.36 91.3446 339.192 91.0326 338.936 90.8406C338.68 90.6326 338.296 90.5286 337.784 90.5286C337.208 90.5286 336.656 90.7046 336.128 91.0566C335.616 91.4086 335.176 91.8486 334.808 92.3766V101.473H332.12V88.8006Z" fill="white"/>
<path d="M351.599 88.4646C353.423 88.4646 354.831 89.0646 355.823 90.2646C356.815 91.4486 357.311 93.0646 357.311 95.1126C357.311 97.1606 356.807 98.7846 355.799 99.9846C354.791 101.185 353.383 101.785 351.575 101.785C349.751 101.785 348.335 101.201 347.327 100.033C346.335 98.8486 345.839 97.2166 345.839 95.1366C345.839 93.1206 346.343 91.5046 347.351 90.2886C348.375 89.0726 349.791 88.4646 351.599 88.4646ZM351.599 90.5526C350.623 90.5526 349.887 90.9286 349.391 91.6806C348.911 92.4326 348.671 93.5846 348.671 95.1366C348.671 96.7046 348.911 97.8646 349.391 98.6166C349.871 99.3526 350.599 99.7206 351.575 99.7206C352.551 99.7206 353.279 99.3446 353.759 98.5926C354.239 97.8406 354.479 96.6806 354.479 95.1126C354.479 93.5606 354.239 92.4166 353.759 91.6806C353.279 90.9286 352.559 90.5526 351.599 90.5526Z" fill="white"/>
<path d="M367.622 101.521C367.11 103.057 366.366 104.257 365.39 105.121C364.43 106.001 363.102 106.513 361.406 106.657L361.07 104.641C361.902 104.513 362.574 104.313 363.086 104.041C363.598 103.785 364.006 103.457 364.31 103.057C364.614 102.657 364.886 102.129 365.126 101.473H364.214L359.942 88.8006H362.798L365.99 99.6006L369.23 88.8006H371.99L367.622 101.521Z" fill="white"/>
<path d="M384.988 98.3766C384.988 98.8566 385.06 99.2166 385.204 99.4566C385.348 99.6806 385.596 99.8486 385.948 99.9606L385.324 101.785C383.996 101.625 383.124 101.041 382.708 100.033C382.244 100.609 381.66 101.049 380.956 101.353C380.268 101.641 379.508 101.785 378.676 101.785C377.396 101.785 376.38 101.425 375.628 100.705C374.876 99.9846 374.5 99.0326 374.5 97.8486C374.5 96.5206 375.02 95.4966 376.06 94.7766C377.116 94.0566 378.604 93.6966 380.524 93.6966H382.324V92.8806C382.324 92.0806 382.084 91.4966 381.604 91.1286C381.124 90.7606 380.428 90.5766 379.516 90.5766C379.068 90.5766 378.548 90.6326 377.956 90.7446C377.364 90.8566 376.764 91.0166 376.156 91.2246L375.484 89.3286C377.004 88.7526 378.484 88.4646 379.924 88.4646C381.604 88.4646 382.868 88.8326 383.716 89.5686C384.564 90.3046 384.988 91.3526 384.988 92.7126V98.3766ZM379.468 99.8166C380.028 99.8166 380.564 99.6726 381.076 99.3846C381.604 99.0966 382.02 98.6966 382.324 98.1846V95.3766H380.836C379.62 95.3766 378.732 95.5846 378.172 96.0006C377.612 96.4006 377.332 96.9846 377.332 97.7526C377.332 98.4246 377.508 98.9366 377.86 99.2886C378.228 99.6406 378.764 99.8166 379.468 99.8166Z" fill="white"/>
<path d="M392.419 99.4566C392.419 98.8166 392.643 98.2726 393.091 97.8246C393.539 97.3766 394.083 97.1526 394.723 97.1526C395.379 97.1526 395.931 97.3766 396.379 97.8246C396.827 98.2726 397.051 98.8166 397.051 99.4566C397.051 100.113 396.827 100.665 396.379 101.113C395.931 101.561 395.379 101.785 394.723 101.785C394.083 101.785 393.539 101.561 393.091 101.113C392.643 100.665 392.419 100.113 392.419 99.4566Z" fill="white"/>
<path d="M410.194 99.5766C411.202 99.5766 412.242 99.2166 413.314 98.4966L414.538 100.225C413.978 100.705 413.306 101.089 412.522 101.377C411.738 101.649 410.93 101.785 410.098 101.785C408.162 101.785 406.65 101.193 405.562 100.009C404.474 98.8086 403.93 97.2086 403.93 95.2086C403.93 93.9126 404.178 92.7606 404.674 91.7526C405.17 90.7286 405.882 89.9286 406.81 89.3526C407.754 88.7606 408.866 88.4646 410.146 88.4646C411.826 88.4646 413.29 88.9766 414.538 90.0006L413.29 91.6806C412.266 90.9766 411.234 90.6246 410.194 90.6246C409.138 90.6246 408.306 91.0086 407.698 91.7766C407.09 92.5286 406.786 93.6726 406.786 95.2086C406.786 96.7126 407.09 97.8166 407.698 98.5206C408.306 99.2246 409.138 99.5766 410.194 99.5766Z" fill="white"/>
<path d="M423.552 88.4646C425.376 88.4646 426.784 89.0646 427.776 90.2646C428.768 91.4486 429.264 93.0646 429.264 95.1126C429.264 97.1606 428.76 98.7846 427.752 99.9846C426.744 101.185 425.336 101.785 423.528 101.785C421.704 101.785 420.288 101.201 419.28 100.033C418.288 98.8486 417.792 97.2166 417.792 95.1366C417.792 93.1206 418.296 91.5046 419.304 90.2886C420.328 89.0726 421.744 88.4646 423.552 88.4646ZM423.552 90.5526C422.576 90.5526 421.84 90.9286 421.344 91.6806C420.864 92.4326 420.624 93.5846 420.624 95.1366C420.624 96.7046 420.864 97.8646 421.344 98.6166C421.824 99.3526 422.552 99.7206 423.528 99.7206C424.504 99.7206 425.232 99.3446 425.712 98.5926C426.192 97.8406 426.432 96.6806 426.432 95.1126C426.432 93.5606 426.192 92.4166 425.712 91.6806C425.232 90.9286 424.512 90.5526 423.552 90.5526Z" fill="white"/>
<path d="M441.591 88.4646C442.375 88.4646 442.991 88.7366 443.439 89.2806C443.887 89.8246 444.111 90.7526 444.111 92.0646V101.473H441.735V92.4246C441.735 91.7206 441.679 91.2326 441.567 90.9606C441.471 90.6886 441.247 90.5526 440.895 90.5526C440.223 90.5526 439.599 90.9766 439.023 91.8246V101.473H436.839V92.4246C436.839 91.7206 436.783 91.2326 436.671 90.9606C436.575 90.6886 436.351 90.5526 435.999 90.5526C435.327 90.5526 434.703 90.9766 434.127 91.8246V101.473H431.727V88.8006H433.743L433.935 90.1686C434.335 89.6086 434.743 89.1846 435.159 88.8966C435.575 88.6086 436.071 88.4646 436.647 88.4646C437.767 88.4646 438.487 89.0006 438.807 90.0726C439.191 89.5606 439.607 89.1686 440.055 88.8966C440.503 88.6086 441.015 88.4646 441.591 88.4646Z" fill="white"/>
<path d="M466.7 82.5846C467.212 82.5846 467.628 82.7526 467.948 83.0886C468.284 83.4086 468.452 83.8086 468.452 84.2886C468.452 84.7686 468.284 85.1686 467.948 85.4886C467.628 85.8086 467.212 85.9686 466.7 85.9686C466.172 85.9686 465.748 85.8086 465.428 85.4886C465.108 85.1686 464.948 84.7686 464.948 84.2886C464.948 83.7926 465.108 83.3846 465.428 83.0646C465.764 82.7446 466.188 82.5846 466.7 82.5846ZM468.548 99.5046H472.004V101.473H462.092V99.5046H465.86V90.7686H462.212V88.8006H468.548V99.5046Z" fill="white"/>
<path d="M486.155 83.7126V101.473H483.779L483.587 99.9126C483.171 100.521 482.659 100.985 482.051 101.305C481.443 101.625 480.771 101.785 480.035 101.785C478.451 101.785 477.259 101.193 476.459 100.009C475.659 98.8246 475.259 97.2006 475.259 95.1366C475.259 93.8406 475.459 92.6886 475.859 91.6806C476.275 90.6726 476.859 89.8886 477.611 89.3286C478.363 88.7526 479.251 88.4646 480.275 88.4646C481.571 88.4646 482.635 88.9286 483.467 89.8566V83.4006L486.155 83.7126ZM480.971 90.5286C480.043 90.5286 479.331 90.9126 478.835 91.6806C478.355 92.4326 478.115 93.5846 478.115 95.1366C478.115 98.2086 478.995 99.7446 480.755 99.7446C481.811 99.7446 482.715 99.1366 483.467 97.9206V91.9446C482.811 91.0006 481.979 90.5286 480.971 90.5286Z" fill="white"/>
<path d="M500.449 92.7366H490.513V90.5286H500.449V92.7366ZM500.449 97.4646H490.513V95.2806H500.449V97.4646Z" fill="white"/>
<path d="M506.296 83.7126H509.224L508.816 90.1206H506.68L506.296 83.7126ZM510.52 83.7126H513.448L513.064 90.1206H510.928L510.52 83.7126Z" fill="white"/>
<path d="M527.935 88.4646C528.719 88.4646 529.335 88.7366 529.783 89.2806C530.231 89.8246 530.455 90.7526 530.455 92.0646V101.473H528.079V92.4246C528.079 91.7206 528.023 91.2326 527.911 90.9606C527.815 90.6886 527.591 90.5526 527.239 90.5526C526.567 90.5526 525.943 90.9766 525.367 91.8246V101.473H523.183V92.4246C523.183 91.7206 523.127 91.2326 523.015 90.9606C522.919 90.6886 522.695 90.5526 522.343 90.5526C521.671 90.5526 521.047 90.9766 520.471 91.8246V101.473H518.071V88.8006H520.087L520.279 90.1686C520.679 89.6086 521.087 89.1846 521.503 88.8966C521.919 88.6086 522.415 88.4646 522.991 88.4646C524.111 88.4646 524.831 89.0006 525.151 90.0726C525.535 89.5606 525.951 89.1686 526.399 88.8966C526.847 88.6086 527.359 88.4646 527.935 88.4646Z" fill="white"/>
<path d="M535.821 96.0006C535.901 97.2326 536.253 98.1606 536.877 98.7846C537.517 99.3926 538.317 99.6966 539.277 99.6966C539.869 99.6966 540.429 99.6086 540.957 99.4326C541.501 99.2406 542.053 98.9606 542.613 98.5926L543.765 100.225C543.173 100.721 542.477 101.105 541.677 101.377C540.877 101.649 540.037 101.785 539.157 101.785C537.221 101.785 535.717 101.185 534.645 99.9846C533.573 98.7686 533.037 97.1526 533.037 95.1366C533.037 93.8726 533.269 92.7366 533.733 91.7286C534.197 90.7046 534.869 89.9046 535.749 89.3286C536.629 88.7526 537.653 88.4646 538.821 88.4646C540.501 88.4646 541.829 89.0326 542.805 90.1686C543.797 91.2886 544.293 92.8326 544.293 94.8006C544.293 95.2806 544.269 95.6806 544.221 96.0006H535.821ZM538.845 90.4566C537.981 90.4566 537.277 90.7686 536.733 91.3926C536.189 92.0166 535.877 92.9446 535.797 94.1766H541.677C541.645 92.9766 541.389 92.0566 540.909 91.4166C540.429 90.7766 539.741 90.4566 538.845 90.4566Z" fill="white"/>
<path d="M550.668 97.6566C550.668 98.3926 550.812 98.9286 551.1 99.2646C551.404 99.5846 551.86 99.7446 552.468 99.7446C553.044 99.7446 553.596 99.5766 554.124 99.2406C554.668 98.9046 555.1 98.4806 555.42 97.9686V88.8006H558.108V101.473H555.78L555.612 99.8406C555.164 100.465 554.58 100.945 553.86 101.281C553.14 101.617 552.396 101.785 551.628 101.785C550.412 101.785 549.5 101.457 548.892 100.801C548.284 100.145 547.98 99.2086 547.98 97.9926V88.8006H550.668V97.6566Z" fill="white"/>
<path d="M566.979 99.7446C567.827 99.7446 568.491 99.5926 568.971 99.2886C569.467 98.9846 569.714 98.5686 569.714 98.0406C569.714 97.6726 569.642 97.3766 569.498 97.1526C569.354 96.9126 569.067 96.6966 568.635 96.5046C568.203 96.2966 567.554 96.0806 566.69 95.8566C565.298 95.5046 564.251 95.0566 563.547 94.5126C562.859 93.9526 562.515 93.1526 562.515 92.1126C562.515 91.0086 562.971 90.1286 563.883 89.4726C564.795 88.8006 566.026 88.4646 567.578 88.4646C569.45 88.4646 571.059 88.9526 572.403 89.9286L571.25 91.6326C570.114 90.8806 568.915 90.5046 567.651 90.5046C566.051 90.5046 565.25 90.9686 565.25 91.8966C565.25 92.2166 565.339 92.4806 565.515 92.6886C565.707 92.8966 566.026 93.0966 566.474 93.2886C566.922 93.4646 567.586 93.6726 568.466 93.9126C569.842 94.2966 570.867 94.7686 571.539 95.3286C572.227 95.8886 572.57 96.7286 572.57 97.8486C572.57 99.1446 572.035 100.129 570.963 100.801C569.891 101.457 568.563 101.785 566.979 101.785C564.883 101.785 563.147 101.193 561.771 100.009L563.187 98.3766C563.715 98.7926 564.298 99.1286 564.938 99.3846C565.594 99.6246 566.275 99.7446 566.979 99.7446Z" fill="white"/>
<path d="M581.825 82.5846C582.337 82.5846 582.753 82.7526 583.073 83.0886C583.409 83.4086 583.577 83.8086 583.577 84.2886C583.577 84.7686 583.409 85.1686 583.073 85.4886C582.753 85.8086 582.337 85.9686 581.825 85.9686C581.297 85.9686 580.873 85.8086 580.553 85.4886C580.233 85.1686 580.073 84.7686 580.073 84.2886C580.073 83.7926 580.233 83.3846 580.553 83.0646C580.889 82.7446 581.313 82.5846 581.825 82.5846ZM583.673 99.5046H587.129V101.473H577.217V99.5046H580.985V90.7686H577.337V88.8006H583.673V99.5046Z" fill="white"/>
<path d="M601.736 100.801C601.256 101.105 600.696 101.345 600.056 101.521C599.416 101.697 598.744 101.785 598.04 101.785C596.6 101.785 595.488 101.417 594.704 100.681C593.92 99.9286 593.528 98.9126 593.528 97.6326V90.7686H590.72V88.8006H593.528V85.9686L596.216 85.6566V88.8006H600.512L600.2 90.7686H596.216V97.6086C596.216 98.2966 596.392 98.8086 596.744 99.1446C597.096 99.4646 597.656 99.6246 598.424 99.6246C599.272 99.6246 600.056 99.4246 600.776 99.0246L601.736 100.801Z" fill="white"/>
<path d="M607.774 96.0006C607.854 97.2326 608.206 98.1606 608.83 98.7846C609.47 99.3926 610.27 99.6966 611.23 99.6966C611.822 99.6966 612.382 99.6086 612.91 99.4326C613.454 99.2406 614.006 98.9606 614.566 98.5926L615.718 100.225C615.126 100.721 614.43 101.105 613.63 101.377C612.83 101.649 611.99 101.785 611.11 101.785C609.174 101.785 607.67 101.185 606.598 99.9846C605.526 98.7686 604.99 97.1526 604.99 95.1366C604.99 93.8726 605.222 92.7366 605.686 91.7286C606.15 90.7046 606.822 89.9046 607.702 89.3286C608.582 88.7526 609.606 88.4646 610.774 88.4646C612.454 88.4646 613.782 89.0326 614.758 90.1686C615.75 91.2886 616.246 92.8326 616.246 94.8006C616.246 95.2806 616.222 95.6806 616.174 96.0006H607.774ZM610.798 90.4566C609.934 90.4566 609.23 90.7686 608.686 91.3926C608.142 92.0166 607.83 92.9446 607.75 94.1766H613.63C613.598 92.9766 613.342 92.0566 612.862 91.4166C612.382 90.7766 611.694 90.4566 610.798 90.4566Z" fill="white"/>
<path d="M621.421 83.7126H624.349L623.941 90.1206H621.805L621.421 83.7126ZM625.645 83.7126H628.573L628.189 90.1206H626.053L625.645 83.7126Z" fill="white"/>
<path d="M644.668 92.7846V95.1126L635.452 100.849L634.132 98.9286L642.34 93.9606L634.132 89.0406L635.38 87.0486L644.668 92.7846Z" fill="white"/>
<path d="M657.69 88.4886C658.346 88.4886 658.986 88.5926 659.61 88.8006L659.154 93.4806H657.234V90.8886C656.354 90.9046 655.586 91.2566 654.93 91.9446C654.29 92.6326 653.778 93.6006 653.394 94.8486V99.5526H655.938V101.473H648.834V99.5526H650.706V90.7206H648.834V88.8006H652.746L653.226 91.7286C653.722 90.6406 654.322 89.8326 655.026 89.3046C655.746 88.7606 656.634 88.4886 657.69 88.4886Z" fill="white"/>
<path d="M672.801 98.3766C672.801 98.8566 672.873 99.2166 673.017 99.4566C673.161 99.6806 673.409 99.8486 673.761 99.9606L673.137 101.785C671.809 101.625 670.937 101.041 670.521 100.033C670.057 100.609 669.473 101.049 668.769 101.353C668.081 101.641 667.321 101.785 666.489 101.785C665.209 101.785 664.193 101.425 663.441 100.705C662.689 99.9846 662.313 99.0326 662.313 97.8486C662.313 96.5206 662.833 95.4966 663.873 94.7766C664.929 94.0566 666.417 93.6966 668.337 93.6966H670.137V92.8806C670.137 92.0806 669.897 91.4966 669.417 91.1286C668.937 90.7606 668.241 90.5766 667.329 90.5766C666.881 90.5766 666.361 90.6326 665.769 90.7446C665.177 90.8566 664.577 91.0166 663.969 91.2246L663.297 89.3286C664.817 88.7526 666.297 88.4646 667.737 88.4646C669.417 88.4646 670.681 88.8326 671.529 89.5686C672.377 90.3046 672.801 91.3526 672.801 92.7126V98.3766ZM667.281 99.8166C667.841 99.8166 668.377 99.6726 668.889 99.3846C669.417 99.0966 669.833 98.6966 670.137 98.1846V95.3766H668.649C667.433 95.3766 666.545 95.5846 665.985 96.0006C665.425 96.4006 665.145 96.9846 665.145 97.7526C665.145 98.4246 665.321 98.9366 665.673 99.2886C666.041 99.6406 666.577 99.8166 667.281 99.8166Z" fill="white"/>
<path d="M677.495 88.8006H679.823L680.016 90.4566C680.544 89.8166 681.16 89.3286 681.864 88.9926C682.584 88.6406 683.336 88.4646 684.12 88.4646C685.288 88.4646 686.168 88.7926 686.76 89.4486C687.352 90.1046 687.648 91.0326 687.648 92.2326V101.473H684.959V93.5766C684.959 92.7926 684.911 92.1926 684.815 91.7766C684.735 91.3446 684.568 91.0326 684.312 90.8406C684.056 90.6326 683.671 90.5286 683.159 90.5286C682.583 90.5286 682.031 90.7046 681.503 91.0566C680.991 91.4086 680.551 91.8486 680.183 92.3766V101.473H677.495V88.8006Z" fill="white"/>
<path d="M696.974 88.4646C698.798 88.4646 700.206 89.0646 701.198 90.2646C702.19 91.4486 702.686 93.0646 702.686 95.1126C702.686 97.1606 702.182 98.7846 701.174 99.9846C700.166 101.185 698.758 101.785 696.95 101.785C695.126 101.785 693.71 101.201 692.702 100.033C691.71 98.8486 691.214 97.2166 691.214 95.1366C691.214 93.1206 691.718 91.5046 692.726 90.2886C693.75 89.0726 695.166 88.4646 696.974 88.4646ZM696.974 90.5526C695.998 90.5526 695.262 90.9286 694.766 91.6806C694.286 92.4326 694.046 93.5846 694.046 95.1366C694.046 96.7046 694.286 97.8646 694.766 98.6166C695.246 99.3526 695.974 99.7206 696.95 99.7206C697.926 99.7206 698.654 99.3446 699.134 98.5926C699.614 97.8406 699.854 96.6806 699.854 95.1126C699.854 93.5606 699.614 92.4166 699.134 91.6806C698.654 90.9286 697.934 90.5526 696.974 90.5526Z" fill="white"/>
<path d="M712.997 101.521C712.485 103.057 711.741 104.257 710.765 105.121C709.805 106.001 708.477 106.513 706.781 106.657L706.445 104.641C707.277 104.513 707.949 104.313 708.461 104.041C708.973 103.785 709.381 103.457 709.685 103.057C709.989 102.657 710.261 102.129 710.501 101.473H709.589L705.317 88.8006H708.173L711.365 99.6006L714.605 88.8006H717.365L712.997 101.521Z" fill="white"/>
<path d="M730.363 98.3766C730.363 98.8566 730.435 99.2166 730.579 99.4566C730.723 99.6806 730.971 99.8486 731.323 99.9606L730.699 101.785C729.371 101.625 728.499 101.041 728.083 100.033C727.619 100.609 727.035 101.049 726.331 101.353C725.643 101.641 724.883 101.785 724.051 101.785C722.771 101.785 721.755 101.425 721.003 100.705C720.251 99.9846 719.875 99.0326 719.875 97.8486C719.875 96.5206 720.395 95.4966 721.435 94.7766C722.491 94.0566 723.979 93.6966 725.899 93.6966H727.699V92.8806C727.699 92.0806 727.459 91.4966 726.979 91.1286C726.499 90.7606 725.803 90.5766 724.891 90.5766C724.443 90.5766 723.923 90.6326 723.331 90.7446C722.739 90.8566 722.139 91.0166 721.531 91.2246L720.859 89.3286C722.379 88.7526 723.859 88.4646 725.299 88.4646C726.979 88.4646 728.243 88.8326 729.091 89.5686C729.939 90.3046 730.363 91.3526 730.363 92.7126V98.3766ZM724.843 99.8166C725.403 99.8166 725.939 99.6726 726.451 99.3846C726.979 99.0966 727.395 98.6966 727.699 98.1846V95.3766H726.211C724.995 95.3766 724.107 95.5846 723.547 96.0006C722.987 96.4006 722.707 96.9846 722.707 97.7526C722.707 98.4246 722.883 98.9366 723.235 99.2886C723.603 99.6406 724.139 99.8166 724.843 99.8166Z" fill="white"/>
<path d="M737.794 99.4566C737.794 98.8166 738.018 98.2726 738.466 97.8246C738.914 97.3766 739.458 97.1526 740.098 97.1526C740.754 97.1526 741.306 97.3766 741.754 97.8246C742.202 98.2726 742.426 98.8166 742.426 99.4566C742.426 100.113 742.202 100.665 741.754 101.113C741.306 101.561 740.754 101.785 740.098 101.785C739.458 101.785 738.914 101.561 738.466 101.113C738.018 100.665 737.794 100.113 737.794 99.4566Z" fill="white"/>
<path d="M755.569 99.5766C756.577 99.5766 757.617 99.2166 758.689 98.4966L759.913 100.225C759.353 100.705 758.681 101.089 757.897 101.377C757.113 101.649 756.305 101.785 755.473 101.785C753.537 101.785 752.025 101.193 750.937 100.009C749.849 98.8086 749.305 97.2086 749.305 95.2086C749.305 93.9126 749.553 92.7606 750.049 91.7526C750.545 90.7286 751.257 89.9286 752.185 89.3526C753.129 88.7606 754.241 88.4646 755.521 88.4646C757.201 88.4646 758.665 88.9766 759.913 90.0006L758.665 91.6806C757.641 90.9766 756.609 90.6246 755.569 90.6246C754.513 90.6246 753.681 91.0086 753.073 91.7766C752.465 92.5286 752.161 93.6726 752.161 95.2086C752.161 96.7126 752.465 97.8166 753.073 98.5206C753.681 99.2246 754.513 99.5766 755.569 99.5766Z" fill="white"/>
<path d="M768.927 88.4646C770.751 88.4646 772.159 89.0646 773.151 90.2646C774.143 91.4486 774.639 93.0646 774.639 95.1126C774.639 97.1606 774.135 98.7846 773.127 99.9846C772.119 101.185 770.711 101.785 768.903 101.785C767.079 101.785 765.663 101.201 764.655 100.033C763.663 98.8486 763.167 97.2166 763.167 95.1366C763.167 93.1206 763.671 91.5046 764.679 90.2886C765.703 89.0726 767.119 88.4646 768.927 88.4646ZM768.927 90.5526C767.951 90.5526 767.215 90.9286 766.719 91.6806C766.239 92.4326 765.999 93.5846 765.999 95.1366C765.999 96.7046 766.239 97.8646 766.719 98.6166C767.199 99.3526 767.927 99.7206 768.903 99.7206C769.879 99.7206 770.607 99.3446 771.087 98.5926C771.567 97.8406 771.807 96.6806 771.807 95.1126C771.807 93.5606 771.567 92.4166 771.087 91.6806C770.607 90.9286 769.887 90.5526 768.927 90.5526Z" fill="white"/>
<path d="M786.966 88.4646C787.75 88.4646 788.366 88.7366 788.814 89.2806C789.262 89.8246 789.486 90.7526 789.486 92.0646V101.473H787.11V92.4246C787.11 91.7206 787.054 91.2326 786.942 90.9606C786.846 90.6886 786.622 90.5526 786.27 90.5526C785.598 90.5526 784.974 90.9766 784.398 91.8246V101.473H782.214V92.4246C782.214 91.7206 782.158 91.2326 782.046 90.9606C781.95 90.6886 781.726 90.5526 781.374 90.5526C780.702 90.5526 780.078 90.9766 779.502 91.8246V101.473H777.102V88.8006H779.118L779.31 90.1686C779.71 89.6086 780.118 89.1846 780.534 88.8966C780.95 88.6086 781.446 88.4646 782.022 88.4646C783.142 88.4646 783.862 89.0006 784.182 90.0726C784.566 89.5606 784.982 89.1686 785.43 88.8966C785.878 88.6086 786.39 88.4646 786.966 88.4646Z" fill="white"/>
<path d="M802.964 88.9926L794.732 93.9606L802.964 98.9046L801.644 100.849L792.428 95.1126V92.7846L801.716 87.0486L802.964 88.9926Z" fill="white"/>
<path d="M805.931 103.057L816.107 81.9846L818.219 82.9686L808.067 104.017L805.931 103.057Z" fill="white"/>
<path d="M831.098 98.3766C831.098 98.8566 831.17 99.2166 831.314 99.4566C831.458 99.6806 831.706 99.8486 832.058 99.9606L831.434 101.785C830.106 101.625 829.234 101.041 828.818 100.033C828.354 100.609 827.77 101.049 827.066 101.353C826.378 101.641 825.618 101.785 824.786 101.785C823.506 101.785 822.49 101.425 821.738 100.705C820.986 99.9846 820.61 99.0326 820.61 97.8486C820.61 96.5206 821.13 95.4966 822.17 94.7766C823.226 94.0566 824.714 93.6966 826.634 93.6966H828.434V92.8806C828.434 92.0806 828.194 91.4966 827.714 91.1286C827.234 90.7606 826.538 90.5766 825.626 90.5766C825.178 90.5766 824.658 90.6326 824.066 90.7446C823.474 90.8566 822.874 91.0166 822.266 91.2246L821.594 89.3286C823.114 88.7526 824.594 88.4646 826.034 88.4646C827.714 88.4646 828.978 88.8326 829.826 89.5686C830.674 90.3046 831.098 91.3526 831.098 92.7126V98.3766ZM825.578 99.8166C826.138 99.8166 826.674 99.6726 827.186 99.3846C827.714 99.0966 828.13 98.6966 828.434 98.1846V95.3766H826.946C825.73 95.3766 824.842 95.5846 824.282 96.0006C823.722 96.4006 823.442 96.9846 823.442 97.7526C823.442 98.4246 823.618 98.9366 823.97 99.2886C824.338 99.6406 824.874 99.8166 825.578 99.8166Z" fill="white"/>
<path d="M846.136 92.7846V95.1126L836.92 100.849L835.6 98.9286L843.808 93.9606L835.6 89.0406L836.848 87.0486L846.136 92.7846Z" fill="white"/>
<mask maskUnits="userSpaceOnUse" x="0" y="0" width="0" height="0" fill="black">
<rect fill="white" width="0" height="0"/>
</mask>
<path d="M0.292893 64.7655C-0.0976311 65.1561 -0.0976311 65.7892 0.292893 66.1798L6.65685 72.5437C7.04738 72.9342 7.68054 72.9342 8.07107 72.5437C8.46159 72.1532 8.46159 71.52 8.07107 71.1295L2.41421 65.4727L8.07107 59.8158C8.46159 59.4253 8.46159 58.7921 8.07107 58.4016C7.68054 58.0111 7.04738 58.0111 6.65685 58.4016L0.292893 64.7655ZM640.707 66.1798C641.098 65.7892 641.098 65.1561 640.707 64.7655L634.343 58.4016C633.953 58.0111 633.319 58.0111 632.929 58.4016C632.538 58.7921 632.538 59.4253 632.929 59.8158L638.586 65.4727L632.929 71.1295C632.538 71.52 632.538 72.1532 632.929 72.5437C633.319 72.9342 633.953 72.9342 634.343 72.5437L640.707 66.1798ZM1 66.4727H640V64.4727H1V66.4727Z" fill="#C3CBDB" mask="url(#)"/>
<mask maskUnits="userSpaceOnUse" x="0" y="0" width="0" height="0" fill="black">
<rect fill="white" width="0" height="0"/>
</mask>
<path d="M42.2929 182.766C41.9024 183.156 41.9024 183.789 42.2929 184.18L48.6569 190.544C49.0474 190.934 49.6805 190.934 50.0711 190.544C50.4616 190.153 50.4616 189.52 50.0711 189.13L44.4142 183.473L50.0711 177.816C50.4616 177.425 50.4616 176.792 50.0711 176.402C49.6805 176.011 49.0474 176.011 48.6569 176.402L42.2929 182.766ZM628.707 184.18C629.098 183.789 629.098 183.156 628.707 182.765L622.343 176.402C621.953 176.011 621.319 176.011 620.929 176.402C620.538 176.792 620.538 177.425 620.929 177.816L626.586 183.473L620.929 189.129C620.538 189.52 620.538 190.153 620.929 190.544C621.319 190.934 621.953 190.934 622.343 190.544L628.707 184.18ZM43 184.473L628 184.473L628 182.473L43 182.473L43 184.473Z" fill="#C3CBDB" mask="url(#)"/>
<mask maskUnits="userSpaceOnUse" x="0" y="0" width="0" height="0" fill="black">
<rect fill="white" width="0" height="0"/>
</mask>
<path d="M643.293 134.766C642.902 135.156 642.902 135.789 643.293 136.18L649.657 142.544C650.047 142.934 650.681 142.934 651.071 142.544C651.462 142.153 651.462 141.52 651.071 141.13L645.414 135.473L651.071 129.816C651.462 129.425 651.462 128.792 651.071 128.402C650.681 128.011 650.047 128.011 649.657 128.402L643.293 134.766ZM798.707 136.18C799.098 135.789 799.098 135.156 798.707 134.766L792.343 128.402C791.953 128.011 791.319 128.011 790.929 128.402C790.538 128.792 790.538 129.425 790.929 129.816L796.586 135.473L790.929 141.13C790.538 141.52 790.538 142.153 790.929 142.544C791.319 142.934 791.953 142.934 792.343 142.544L798.707 136.18ZM644 136.473L798 136.473L798 134.473L644 134.473L644 136.473Z" fill="#C3CBDB" mask="url(#)"/>
<mask maskUnits="userSpaceOnUse" x="0" y="0" width="0" height="0" fill="black">
<rect fill="white" width="0" height="0"/>
</mask>
<path d="M795.293 64.7655C794.902 65.1561 794.902 65.7892 795.293 66.1798L801.657 72.5437C802.047 72.9342 802.681 72.9342 803.071 72.5437C803.462 72.1532 803.462 71.52 803.071 71.1295L797.414 65.4727L803.071 59.8158C803.462 59.4253 803.462 58.7921 803.071 58.4016C802.681 58.0111 802.047 58.0111 801.657 58.4016L795.293 64.7655ZM844.707 66.1798C845.098 65.7892 845.098 65.1561 844.707 64.7656L838.343 58.4016C837.953 58.0111 837.319 58.0111 836.929 58.4016C836.538 58.7921 836.538 59.4253 836.929 59.8158L842.586 65.4727L836.929 71.1295C836.538 71.52 836.538 72.1532 836.929 72.5437C837.319 72.9343 837.953 72.9343 838.343 72.5437L844.707 66.1798ZM796 66.4727L844 66.4727L844 64.4727L796 64.4727L796 66.4727Z" fill="#C3CBDB" mask="url(#)"/>
<line x1="42.5" y1="123.473" x2="42.5" y2="202.473" stroke="#C3CBDB"/>
<line x1="629.5" y1="123.473" x2="629.5" y2="202.473" stroke="#C3CBDB"/>
<path d="M7.42969 22.0273V24.6523H5.17969V29.668C5.17969 30.6836 5.19922 31.2773 5.23828 31.4492C5.28516 31.6133 5.38281 31.75 5.53125 31.8594C5.6875 31.9688 5.875 32.0234 6.09375 32.0234C6.39844 32.0234 6.83984 31.918 7.41797 31.707L7.69922 34.2617C6.93359 34.5898 6.06641 34.7539 5.09766 34.7539C4.50391 34.7539 3.96875 34.6562 3.49219 34.4609C3.01562 34.2578 2.66406 34 2.4375 33.6875C2.21875 33.3672 2.06641 32.9375 1.98047 32.3984C1.91016 32.0156 1.875 31.2422 1.875 30.0781V24.6523H0.363281V22.0273H1.875V19.5547L5.17969 17.6328V22.0273H7.42969Z" fill="#1D1D8E"/>
<path d="M12.1758 25.8242L9.1875 25.2852C9.52344 24.082 10.1016 23.1914 10.9219 22.6133C11.7422 22.0352 12.9609 21.7461 14.5781 21.7461C16.0469 21.7461 17.1406 21.9219 17.8594 22.2734C18.5781 22.6172 19.082 23.0586 19.3711 23.5977C19.668 24.1289 19.8164 25.1094 19.8164 26.5391L19.7812 30.3828C19.7812 31.4766 19.832 32.2852 19.9336 32.8086C20.043 33.3242 20.2422 33.8789 20.5312 34.4727H17.2734C17.1875 34.2539 17.082 33.9297 16.957 33.5C16.9023 33.3047 16.8633 33.1758 16.8398 33.1133C16.2773 33.6602 15.6758 34.0703 15.0352 34.3438C14.3945 34.6172 13.7109 34.7539 12.9844 34.7539C11.7031 34.7539 10.6914 34.4062 9.94922 33.7109C9.21484 33.0156 8.84766 32.1367 8.84766 31.0742C8.84766 30.3711 9.01562 29.7461 9.35156 29.1992C9.6875 28.6445 10.1562 28.2227 10.7578 27.9336C11.3672 27.6367 12.2422 27.3789 13.3828 27.1602C14.9219 26.8711 15.9883 26.6016 16.582 26.3516V26.0234C16.582 25.3906 16.4258 24.9414 16.1133 24.6758C15.8008 24.4023 15.2109 24.2656 14.3438 24.2656C13.7578 24.2656 13.3008 24.3828 12.9727 24.6172C12.6445 24.8438 12.3789 25.2461 12.1758 25.8242ZM16.582 28.4961C16.1602 28.6367 15.4922 28.8047 14.5781 29C13.6641 29.1953 13.0664 29.3867 12.7852 29.5742C12.3555 29.8789 12.1406 30.2656 12.1406 30.7344C12.1406 31.1953 12.3125 31.5938 12.6562 31.9297C13 32.2656 13.4375 32.4336 13.9688 32.4336C14.5625 32.4336 15.1289 32.2383 15.668 31.8477C16.0664 31.5508 16.3281 31.1875 16.4531 30.7578C16.5391 30.4766 16.582 29.9414 16.582 29.1523V28.4961Z" fill="#1D1D8E"/>
<path d="M22.7695 35.293L26.5312 35.75C26.5938 36.1875 26.7383 36.4883 26.9648 36.6523C27.2773 36.8867 27.7695 37.0039 28.4414 37.0039C29.3008 37.0039 29.9453 36.875 30.375 36.6172C30.6641 36.4453 30.8828 36.168 31.0312 35.7852C31.1328 35.5117 31.1836 35.0078 31.1836 34.2734V32.457C30.1992 33.8008 28.957 34.4727 27.457 34.4727C25.7852 34.4727 24.4609 33.7656 23.4844 32.3516C22.7188 31.2344 22.3359 29.8438 22.3359 28.1797C22.3359 26.0938 22.8359 24.5 23.8359 23.3984C24.8438 22.2969 26.0938 21.7461 27.5859 21.7461C29.125 21.7461 30.3945 22.4219 31.3945 23.7734V22.0273H34.4766V33.1953C34.4766 34.6641 34.3555 35.7617 34.1133 36.4883C33.8711 37.2148 33.5312 37.7852 33.0938 38.1992C32.6562 38.6133 32.0703 38.9375 31.3359 39.1719C30.6094 39.4062 29.6875 39.5234 28.5703 39.5234C26.4609 39.5234 24.9648 39.1602 24.082 38.4336C23.1992 37.7148 22.7578 36.8008 22.7578 35.6914C22.7578 35.582 22.7617 35.4492 22.7695 35.293ZM25.7109 27.9922C25.7109 29.3125 25.9648 30.2812 26.4727 30.8984C26.9883 31.5078 27.6211 31.8125 28.3711 31.8125C29.1758 31.8125 29.8555 31.5 30.4102 30.875C30.9648 30.2422 31.2422 29.3086 31.2422 28.0742C31.2422 26.7852 30.9766 25.8281 30.4453 25.2031C29.9141 24.5781 29.2422 24.2656 28.4297 24.2656C27.6406 24.2656 26.9883 24.5742 26.4727 25.1914C25.9648 25.8008 25.7109 26.7344 25.7109 27.9922Z" fill="#1D1D8E"/>
<path d="M55.5938 32.5156L43.8164 27.3945V24.5586L55.5938 19.4609V22.8008L47.3789 25.9414L55.5938 29.1992V32.5156Z" fill="#1D1D8E"/>
<path d="M60.9023 25.8242L57.9141 25.2852C58.25 24.082 58.8281 23.1914 59.6484 22.6133C60.4688 22.0352 61.6875 21.7461 63.3047 21.7461C64.7734 21.7461 65.8672 21.9219 66.5859 22.2734C67.3047 22.6172 67.8086 23.0586 68.0977 23.5977C68.3945 24.1289 68.543 25.1094 68.543 26.5391L68.5078 30.3828C68.5078 31.4766 68.5586 32.2852 68.6602 32.8086C68.7695 33.3242 68.9688 33.8789 69.2578 34.4727H66C65.9141 34.2539 65.8086 33.9297 65.6836 33.5C65.6289 33.3047 65.5898 33.1758 65.5664 33.1133C65.0039 33.6602 64.4023 34.0703 63.7617 34.3438C63.1211 34.6172 62.4375 34.7539 61.7109 34.7539C60.4297 34.7539 59.418 34.4062 58.6758 33.7109C57.9414 33.0156 57.5742 32.1367 57.5742 31.0742C57.5742 30.3711 57.7422 29.7461 58.0781 29.1992C58.4141 28.6445 58.8828 28.2227 59.4844 27.9336C60.0938 27.6367 60.9688 27.3789 62.1094 27.1602C63.6484 26.8711 64.7148 26.6016 65.3086 26.3516V26.0234C65.3086 25.3906 65.1523 24.9414 64.8398 24.6758C64.5273 24.4023 63.9375 24.2656 63.0703 24.2656C62.4844 24.2656 62.0273 24.3828 61.6992 24.6172C61.3711 24.8438 61.1055 25.2461 60.9023 25.8242ZM65.3086 28.4961C64.8867 28.6367 64.2188 28.8047 63.3047 29C62.3906 29.1953 61.793 29.3867 61.5117 29.5742C61.082 29.8789 60.8672 30.2656 60.8672 30.7344C60.8672 31.1953 61.0391 31.5938 61.3828 31.9297C61.7266 32.2656 62.1641 32.4336 62.6953 32.4336C63.2891 32.4336 63.8555 32.2383 64.3945 31.8477C64.793 31.5508 65.0547 31.1875 65.1797 30.7578C65.2656 30.4766 65.3086 29.9414 65.3086 29.1523V28.4961Z" fill="#1D1D8E"/>
<path d="M71.1914 32.5273V29.2109L79.418 25.9766L71.1914 22.7773V19.4844L82.9805 24.582V27.3945L71.1914 32.5273Z" fill="#1D1D8E"/>
<path d="M676.574 165.707L673.328 166.293C673.219 165.645 672.969 165.156 672.578 164.828C672.195 164.5 671.695 164.336 671.078 164.336C670.258 164.336 669.602 164.621 669.109 165.191C668.625 165.754 668.383 166.699 668.383 168.027C668.383 169.504 668.629 170.547 669.121 171.156C669.621 171.766 670.289 172.07 671.125 172.07C671.75 172.07 672.262 171.895 672.66 171.543C673.059 171.184 673.34 170.57 673.504 169.703L676.738 170.254C676.402 171.738 675.758 172.859 674.805 173.617C673.852 174.375 672.574 174.754 670.973 174.754C669.152 174.754 667.699 174.18 666.613 173.031C665.535 171.883 664.996 170.293 664.996 168.262C664.996 166.207 665.539 164.609 666.625 163.469C667.711 162.32 669.18 161.746 671.031 161.746C672.547 161.746 673.75 162.074 674.641 162.73C675.539 163.379 676.184 164.371 676.574 165.707Z" fill="#1D1D8E"/>
<path d="M678.32 168.074C678.32 166.98 678.59 165.922 679.129 164.898C679.668 163.875 680.43 163.094 681.414 162.555C682.406 162.016 683.512 161.746 684.73 161.746C686.613 161.746 688.156 162.359 689.359 163.586C690.562 164.805 691.164 166.348 691.164 168.215C691.164 170.098 690.555 171.66 689.336 172.902C688.125 174.137 686.598 174.754 684.754 174.754C683.613 174.754 682.523 174.496 681.484 173.98C680.453 173.465 679.668 172.711 679.129 171.719C678.59 170.719 678.32 169.504 678.32 168.074ZM681.695 168.25C681.695 169.484 681.988 170.43 682.574 171.086C683.16 171.742 683.883 172.07 684.742 172.07C685.602 172.07 686.32 171.742 686.898 171.086C687.484 170.43 687.777 169.477 687.777 168.227C687.777 167.008 687.484 166.07 686.898 165.414C686.32 164.758 685.602 164.43 684.742 164.43C683.883 164.43 683.16 164.758 682.574 165.414C681.988 166.07 681.695 167.016 681.695 168.25Z" fill="#1D1D8E"/>
<path d="M705.074 174.473H701.781V168.121C701.781 166.777 701.711 165.91 701.57 165.52C701.43 165.121 701.199 164.812 700.879 164.594C700.566 164.375 700.188 164.266 699.742 164.266C699.172 164.266 698.66 164.422 698.207 164.734C697.754 165.047 697.441 165.461 697.27 165.977C697.105 166.492 697.023 167.445 697.023 168.836V174.473H693.73V162.027H696.789V163.855C697.875 162.449 699.242 161.746 700.891 161.746C701.617 161.746 702.281 161.879 702.883 162.145C703.484 162.402 703.938 162.734 704.242 163.141C704.555 163.547 704.77 164.008 704.887 164.523C705.012 165.039 705.074 165.777 705.074 166.738V174.473Z" fill="#1D1D8E"/>
<path d="M714.133 162.027V164.652H711.883V169.668C711.883 170.684 711.902 171.277 711.941 171.449C711.988 171.613 712.086 171.75 712.234 171.859C712.391 171.969 712.578 172.023 712.797 172.023C713.102 172.023 713.543 171.918 714.121 171.707L714.402 174.262C713.637 174.59 712.77 174.754 711.801 174.754C711.207 174.754 710.672 174.656 710.195 174.461C709.719 174.258 709.367 174 709.141 173.688C708.922 173.367 708.77 172.938 708.684 172.398C708.613 172.016 708.578 171.242 708.578 170.078V164.652H707.066V162.027H708.578V159.555L711.883 157.633V162.027H714.133Z" fill="#1D1D8E"/>
<path d="M723.625 170.512L726.906 171.062C726.484 172.266 725.816 173.184 724.902 173.816C723.996 174.441 722.859 174.754 721.492 174.754C719.328 174.754 717.727 174.047 716.688 172.633C715.867 171.5 715.457 170.07 715.457 168.344C715.457 166.281 715.996 164.668 717.074 163.504C718.152 162.332 719.516 161.746 721.164 161.746C723.016 161.746 724.477 162.359 725.547 163.586C726.617 164.805 727.129 166.676 727.082 169.199H718.832C718.855 170.176 719.121 170.938 719.629 171.484C720.137 172.023 720.77 172.293 721.527 172.293C722.043 172.293 722.477 172.152 722.828 171.871C723.18 171.59 723.445 171.137 723.625 170.512ZM723.812 167.184C723.789 166.23 723.543 165.508 723.074 165.016C722.605 164.516 722.035 164.266 721.363 164.266C720.645 164.266 720.051 164.527 719.582 165.051C719.113 165.574 718.883 166.285 718.891 167.184H723.812Z" fill="#1D1D8E"/>
<path d="M737.969 174.473V172.609C737.516 173.273 736.918 173.797 736.176 174.18C735.441 174.562 734.664 174.754 733.844 174.754C733.008 174.754 732.258 174.57 731.594 174.203C730.93 173.836 730.449 173.32 730.152 172.656C729.855 171.992 729.707 171.074 729.707 169.902V162.027H733V167.746C733 169.496 733.059 170.57 733.176 170.969C733.301 171.359 733.523 171.672 733.844 171.906C734.164 172.133 734.57 172.246 735.062 172.246C735.625 172.246 736.129 172.094 736.574 171.789C737.02 171.477 737.324 171.094 737.488 170.641C737.652 170.18 737.734 169.059 737.734 167.277V162.027H741.027V174.473H737.969ZM733.703 160.504L735.32 157H739.012L735.789 160.504H733.703Z" fill="#1D1D8E"/>
<path d="M755.863 174.473H752.805V172.645C752.297 173.355 751.695 173.887 751 174.238C750.312 174.582 749.617 174.754 748.914 174.754C747.484 174.754 746.258 174.18 745.234 173.031C744.219 171.875 743.711 170.266 743.711 168.203C743.711 166.094 744.207 164.492 745.199 163.398C746.191 162.297 747.445 161.746 748.961 161.746C750.352 161.746 751.555 162.324 752.57 163.48V157.293H755.863V174.473ZM747.074 167.98C747.074 169.309 747.258 170.27 747.625 170.863C748.156 171.723 748.898 172.152 749.852 172.152C750.609 172.152 751.254 171.832 751.785 171.191C752.316 170.543 752.582 169.578 752.582 168.297C752.582 166.867 752.324 165.84 751.809 165.215C751.293 164.582 750.633 164.266 749.828 164.266C749.047 164.266 748.391 164.578 747.859 165.203C747.336 165.82 747.074 166.746 747.074 167.98Z" fill="#1D1D8E"/>
<path d="M758.359 168.074C758.359 166.98 758.629 165.922 759.168 164.898C759.707 163.875 760.469 163.094 761.453 162.555C762.445 162.016 763.551 161.746 764.77 161.746C766.652 161.746 768.195 162.359 769.398 163.586C770.602 164.805 771.203 166.348 771.203 168.215C771.203 170.098 770.594 171.66 769.375 172.902C768.164 174.137 766.637 174.754 764.793 174.754C763.652 174.754 762.562 174.496 761.523 173.98C760.492 173.465 759.707 172.711 759.168 171.719C758.629 170.719 758.359 169.504 758.359 168.074ZM761.734 168.25C761.734 169.484 762.027 170.43 762.613 171.086C763.199 171.742 763.922 172.07 764.781 172.07C765.641 172.07 766.359 171.742 766.938 171.086C767.523 170.43 767.816 169.477 767.816 168.227C767.816 167.008 767.523 166.07 766.938 165.414C766.359 164.758 765.641 164.43 764.781 164.43C763.922 164.43 763.199 164.758 762.613 165.414C762.027 166.07 761.734 167.016 761.734 168.25Z" fill="#1D1D8E"/>
<path d="M677.137 202.473H674.078V200.645C673.57 201.355 672.969 201.887 672.273 202.238C671.586 202.582 670.891 202.754 670.188 202.754C668.758 202.754 667.531 202.18 666.508 201.031C665.492 199.875 664.984 198.266 664.984 196.203C664.984 194.094 665.48 192.492 666.473 191.398C667.465 190.297 668.719 189.746 670.234 189.746C671.625 189.746 672.828 190.324 673.844 191.48V185.293H677.137V202.473ZM668.348 195.98C668.348 197.309 668.531 198.27 668.898 198.863C669.43 199.723 670.172 200.152 671.125 200.152C671.883 200.152 672.527 199.832 673.059 199.191C673.59 198.543 673.855 197.578 673.855 196.297C673.855 194.867 673.598 193.84 673.082 193.215C672.566 192.582 671.906 192.266 671.102 192.266C670.32 192.266 669.664 192.578 669.133 193.203C668.609 193.82 668.348 194.746 668.348 195.98Z" fill="#1D1D8E"/>
<path d="M682.855 193.824L679.867 193.285C680.203 192.082 680.781 191.191 681.602 190.613C682.422 190.035 683.641 189.746 685.258 189.746C686.727 189.746 687.82 189.922 688.539 190.273C689.258 190.617 689.762 191.059 690.051 191.598C690.348 192.129 690.496 193.109 690.496 194.539L690.461 198.383C690.461 199.477 690.512 200.285 690.613 200.809C690.723 201.324 690.922 201.879 691.211 202.473H687.953C687.867 202.254 687.762 201.93 687.637 201.5C687.582 201.305 687.543 201.176 687.52 201.113C686.957 201.66 686.355 202.07 685.715 202.344C685.074 202.617 684.391 202.754 683.664 202.754C682.383 202.754 681.371 202.406 680.629 201.711C679.895 201.016 679.527 200.137 679.527 199.074C679.527 198.371 679.695 197.746 680.031 197.199C680.367 196.645 680.836 196.223 681.438 195.934C682.047 195.637 682.922 195.379 684.062 195.16C685.602 194.871 686.668 194.602 687.262 194.352V194.023C687.262 193.391 687.105 192.941 686.793 192.676C686.48 192.402 685.891 192.266 685.023 192.266C684.438 192.266 683.98 192.383 683.652 192.617C683.324 192.844 683.059 193.246 682.855 193.824ZM687.262 196.496C686.84 196.637 686.172 196.805 685.258 197C684.344 197.195 683.746 197.387 683.465 197.574C683.035 197.879 682.82 198.266 682.82 198.734C682.82 199.195 682.992 199.594 683.336 199.93C683.68 200.266 684.117 200.434 684.648 200.434C685.242 200.434 685.809 200.238 686.348 199.848C686.746 199.551 687.008 199.188 687.133 198.758C687.219 198.477 687.262 197.941 687.262 197.152V196.496Z" fill="#1D1D8E"/>
<path d="M706.141 190.027V192.652H703.891V197.668C703.891 198.684 703.91 199.277 703.949 199.449C703.996 199.613 704.094 199.75 704.242 199.859C704.398 199.969 704.586 200.023 704.805 200.023C705.109 200.023 705.551 199.918 706.129 199.707L706.41 202.262C705.645 202.59 704.777 202.754 703.809 202.754C703.215 202.754 702.68 202.656 702.203 202.461C701.727 202.258 701.375 202 701.148 201.688C700.93 201.367 700.777 200.938 700.691 200.398C700.621 200.016 700.586 199.242 700.586 198.078V192.652H699.074V190.027H700.586V187.555L703.891 185.633V190.027H706.141Z" fill="#1D1D8E"/>
<path d="M710.887 193.824L707.898 193.285C708.234 192.082 708.812 191.191 709.633 190.613C710.453 190.035 711.672 189.746 713.289 189.746C714.758 189.746 715.852 189.922 716.57 190.273C717.289 190.617 717.793 191.059 718.082 191.598C718.379 192.129 718.527 193.109 718.527 194.539L718.492 198.383C718.492 199.477 718.543 200.285 718.645 200.809C718.754 201.324 718.953 201.879 719.242 202.473H715.984C715.898 202.254 715.793 201.93 715.668 201.5C715.613 201.305 715.574 201.176 715.551 201.113C714.988 201.66 714.387 202.07 713.746 202.344C713.105 202.617 712.422 202.754 711.695 202.754C710.414 202.754 709.402 202.406 708.66 201.711C707.926 201.016 707.559 200.137 707.559 199.074C707.559 198.371 707.727 197.746 708.062 197.199C708.398 196.645 708.867 196.223 709.469 195.934C710.078 195.637 710.953 195.379 712.094 195.16C713.633 194.871 714.699 194.602 715.293 194.352V194.023C715.293 193.391 715.137 192.941 714.824 192.676C714.512 192.402 713.922 192.266 713.055 192.266C712.469 192.266 712.012 192.383 711.684 192.617C711.355 192.844 711.09 193.246 710.887 193.824ZM715.293 196.496C714.871 196.637 714.203 196.805 713.289 197C712.375 197.195 711.777 197.387 711.496 197.574C711.066 197.879 710.852 198.266 710.852 198.734C710.852 199.195 711.023 199.594 711.367 199.93C711.711 200.266 712.148 200.434 712.68 200.434C713.273 200.434 713.84 200.238 714.379 199.848C714.777 199.551 715.039 199.188 715.164 198.758C715.25 198.477 715.293 197.941 715.293 197.152V196.496Z" fill="#1D1D8E"/>
<path d="M721.48 203.293L725.242 203.75C725.305 204.188 725.449 204.488 725.676 204.652C725.988 204.887 726.48 205.004 727.152 205.004C728.012 205.004 728.656 204.875 729.086 204.617C729.375 204.445 729.594 204.168 729.742 203.785C729.844 203.512 729.895 203.008 729.895 202.273V200.457C728.91 201.801 727.668 202.473 726.168 202.473C724.496 202.473 723.172 201.766 722.195 200.352C721.43 199.234 721.047 197.844 721.047 196.18C721.047 194.094 721.547 192.5 722.547 191.398C723.555 190.297 724.805 189.746 726.297 189.746C727.836 189.746 729.105 190.422 730.105 191.773V190.027H733.188V201.195C733.188 202.664 733.066 203.762 732.824 204.488C732.582 205.215 732.242 205.785 731.805 206.199C731.367 206.613 730.781 206.938 730.047 207.172C729.32 207.406 728.398 207.523 727.281 207.523C725.172 207.523 723.676 207.16 722.793 206.434C721.91 205.715 721.469 204.801 721.469 203.691C721.469 203.582 721.473 203.449 721.48 203.293ZM724.422 195.992C724.422 197.312 724.676 198.281 725.184 198.898C725.699 199.508 726.332 199.812 727.082 199.812C727.887 199.812 728.566 199.5 729.121 198.875C729.676 198.242 729.953 197.309 729.953 196.074C729.953 194.785 729.688 193.828 729.156 193.203C728.625 192.578 727.953 192.266 727.141 192.266C726.352 192.266 725.699 192.574 725.184 193.191C724.676 193.801 724.422 194.734 724.422 195.992Z" fill="#1D1D8E"/>
<path d="M754.305 200.516L742.527 195.395V192.559L754.305 187.461V190.801L746.09 193.941L754.305 197.199V200.516Z" fill="#1D1D8E"/>
<path d="M759.613 193.824L756.625 193.285C756.961 192.082 757.539 191.191 758.359 190.613C759.18 190.035 760.398 189.746 762.016 189.746C763.484 189.746 764.578 189.922 765.297 190.273C766.016 190.617 766.52 191.059 766.809 191.598C767.105 192.129 767.254 193.109 767.254 194.539L767.219 198.383C767.219 199.477 767.27 200.285 767.371 200.809C767.48 201.324 767.68 201.879 767.969 202.473H764.711C764.625 202.254 764.52 201.93 764.395 201.5C764.34 201.305 764.301 201.176 764.277 201.113C763.715 201.66 763.113 202.07 762.473 202.344C761.832 202.617 761.148 202.754 760.422 202.754C759.141 202.754 758.129 202.406 757.387 201.711C756.652 201.016 756.285 200.137 756.285 199.074C756.285 198.371 756.453 197.746 756.789 197.199C757.125 196.645 757.594 196.223 758.195 195.934C758.805 195.637 759.68 195.379 760.82 195.16C762.359 194.871 763.426 194.602 764.02 194.352V194.023C764.02 193.391 763.863 192.941 763.551 192.676C763.238 192.402 762.648 192.266 761.781 192.266C761.195 192.266 760.738 192.383 760.41 192.617C760.082 192.844 759.816 193.246 759.613 193.824ZM764.02 196.496C763.598 196.637 762.93 196.805 762.016 197C761.102 197.195 760.504 197.387 760.223 197.574C759.793 197.879 759.578 198.266 759.578 198.734C759.578 199.195 759.75 199.594 760.094 199.93C760.438 200.266 760.875 200.434 761.406 200.434C762 200.434 762.566 200.238 763.105 199.848C763.504 199.551 763.766 199.188 763.891 198.758C763.977 198.477 764.02 197.941 764.02 197.152V196.496Z" fill="#1D1D8E"/>
<path d="M769.902 200.527V197.211L778.129 193.977L769.902 190.777V187.484L781.691 192.582V195.395L769.902 200.527Z" fill="#1D1D8E"/>
<path d="M68.1836 153.824L65.1953 153.285C65.5312 152.082 66.1094 151.191 66.9297 150.613C67.75 150.035 68.9688 149.746 70.5859 149.746C72.0547 149.746 73.1484 149.922 73.8672 150.273C74.5859 150.617 75.0898 151.059 75.3789 151.598C75.6758 152.129 75.8242 153.109 75.8242 154.539L75.7891 158.383C75.7891 159.477 75.8398 160.285 75.9414 160.809C76.0508 161.324 76.25 161.879 76.5391 162.473H73.2812C73.1953 162.254 73.0898 161.93 72.9648 161.5C72.9102 161.305 72.8711 161.176 72.8477 161.113C72.2852 161.66 71.6836 162.07 71.043 162.344C70.4023 162.617 69.7188 162.754 68.9922 162.754C67.7109 162.754 66.6992 162.406 65.957 161.711C65.2227 161.016 64.8555 160.137 64.8555 159.074C64.8555 158.371 65.0234 157.746 65.3594 157.199C65.6953 156.645 66.1641 156.223 66.7656 155.934C67.375 155.637 68.25 155.379 69.3906 155.16C70.9297 154.871 71.9961 154.602 72.5898 154.352V154.023C72.5898 153.391 72.4336 152.941 72.1211 152.676C71.8086 152.402 71.2188 152.266 70.3516 152.266C69.7656 152.266 69.3086 152.383 68.9805 152.617C68.6523 152.844 68.3867 153.246 68.1836 153.824ZM72.5898 156.496C72.168 156.637 71.5 156.805 70.5859 157C69.6719 157.195 69.0742 157.387 68.793 157.574C68.3633 157.879 68.1484 158.266 68.1484 158.734C68.1484 159.195 68.3203 159.594 68.6641 159.93C69.0078 160.266 69.4453 160.434 69.9766 160.434C70.5703 160.434 71.1367 160.238 71.6758 159.848C72.0742 159.551 72.3359 159.188 72.4609 158.758C72.5469 158.477 72.5898 157.941 72.5898 157.152V156.496Z" fill="#000081"/>
<path d="M84.7891 150.027V152.652H82.5391V157.668C82.5391 158.684 82.5586 159.277 82.5977 159.449C82.6445 159.613 82.7422 159.75 82.8906 159.859C83.0469 159.969 83.2344 160.023 83.4531 160.023C83.7578 160.023 84.1992 159.918 84.7773 159.707L85.0586 162.262C84.293 162.59 83.4258 162.754 82.457 162.754C81.8633 162.754 81.3281 162.656 80.8516 162.461C80.375 162.258 80.0234 162 79.7969 161.688C79.5781 161.367 79.4258 160.938 79.3398 160.398C79.2695 160.016 79.2344 159.242 79.2344 158.078V152.652H77.7227V150.027H79.2344V147.555L82.5391 145.633V150.027H84.7891Z" fill="#000081"/>
<path d="M90.2266 162.473H86.9336V150.027H89.9922V151.797C90.5156 150.961 90.9844 150.41 91.3984 150.145C91.8203 149.879 92.2969 149.746 92.8281 149.746C93.5781 149.746 94.3008 149.953 94.9961 150.367L93.9766 153.238C93.4219 152.879 92.9062 152.699 92.4297 152.699C91.9688 152.699 91.5781 152.828 91.2578 153.086C90.9375 153.336 90.6836 153.793 90.4961 154.457C90.3164 155.121 90.2266 156.512 90.2266 158.629V162.473Z" fill="#000081"/>
<path d="M96.4258 148.34V145.293H99.7188V148.34H96.4258ZM96.4258 162.473V150.027H99.7188V162.473H96.4258Z" fill="#000081"/>
<path d="M102.965 162.473V145.293H106.258V151.48C107.273 150.324 108.477 149.746 109.867 149.746C111.383 149.746 112.637 150.297 113.629 151.398C114.621 152.492 115.117 154.066 115.117 156.121C115.117 158.246 114.609 159.883 113.594 161.031C112.586 162.18 111.359 162.754 109.914 162.754C109.203 162.754 108.5 162.578 107.805 162.227C107.117 161.867 106.523 161.34 106.023 160.645V162.473H102.965ZM106.234 155.98C106.234 157.27 106.438 158.223 106.844 158.84C107.414 159.715 108.172 160.152 109.117 160.152C109.844 160.152 110.461 159.844 110.969 159.227C111.484 158.602 111.742 157.621 111.742 156.285C111.742 154.863 111.484 153.84 110.969 153.215C110.453 152.582 109.793 152.266 108.988 152.266C108.199 152.266 107.543 152.574 107.02 153.191C106.496 153.801 106.234 154.73 106.234 155.98Z" fill="#000081"/>
<path d="M125.969 162.473V160.609C125.516 161.273 124.918 161.797 124.176 162.18C123.441 162.562 122.664 162.754 121.844 162.754C121.008 162.754 120.258 162.57 119.594 162.203C118.93 161.836 118.449 161.32 118.152 160.656C117.855 159.992 117.707 159.074 117.707 157.902V150.027H121V155.746C121 157.496 121.059 158.57 121.176 158.969C121.301 159.359 121.523 159.672 121.844 159.906C122.164 160.133 122.57 160.246 123.062 160.246C123.625 160.246 124.129 160.094 124.574 159.789C125.02 159.477 125.324 159.094 125.488 158.641C125.652 158.18 125.734 157.059 125.734 155.277V150.027H129.027V162.473H125.969Z" fill="#000081"/>
<path d="M138.156 150.027V152.652H135.906V157.668C135.906 158.684 135.926 159.277 135.965 159.449C136.012 159.613 136.109 159.75 136.258 159.859C136.414 159.969 136.602 160.023 136.82 160.023C137.125 160.023 137.566 159.918 138.145 159.707L138.426 162.262C137.66 162.59 136.793 162.754 135.824 162.754C135.23 162.754 134.695 162.656 134.219 162.461C133.742 162.258 133.391 162 133.164 161.688C132.945 161.367 132.793 160.938 132.707 160.398C132.637 160.016 132.602 159.242 132.602 158.078V152.652H131.09V150.027H132.602V147.555L135.906 145.633V150.027H138.156Z" fill="#000081"/>
<path d="M139.68 156.074C139.68 154.98 139.949 153.922 140.488 152.898C141.027 151.875 141.789 151.094 142.773 150.555C143.766 150.016 144.871 149.746 146.09 149.746C147.973 149.746 149.516 150.359 150.719 151.586C151.922 152.805 152.523 154.348 152.523 156.215C152.523 158.098 151.914 159.66 150.695 160.902C149.484 162.137 147.957 162.754 146.113 162.754C144.973 162.754 143.883 162.496 142.844 161.98C141.812 161.465 141.027 160.711 140.488 159.719C139.949 158.719 139.68 157.504 139.68 156.074ZM143.055 156.25C143.055 157.484 143.348 158.43 143.934 159.086C144.52 159.742 145.242 160.07 146.102 160.07C146.961 160.07 147.68 159.742 148.258 159.086C148.844 158.43 149.137 157.477 149.137 156.227C149.137 155.008 148.844 154.07 148.258 153.414C147.68 152.758 146.961 152.43 146.102 152.43C145.242 152.43 144.52 152.758 143.934 153.414C143.348 154.07 143.055 155.016 143.055 156.25Z" fill="#000081"/>
<path d="M153.953 158.922L157.258 158.418C157.398 159.059 157.684 159.547 158.113 159.883C158.543 160.211 159.145 160.375 159.918 160.375C160.77 160.375 161.41 160.219 161.84 159.906C162.129 159.688 162.273 159.395 162.273 159.027C162.273 158.777 162.195 158.57 162.039 158.406C161.875 158.25 161.508 158.105 160.938 157.973C158.281 157.387 156.598 156.852 155.887 156.367C154.902 155.695 154.41 154.762 154.41 153.566C154.41 152.488 154.836 151.582 155.688 150.848C156.539 150.113 157.859 149.746 159.648 149.746C161.352 149.746 162.617 150.023 163.445 150.578C164.273 151.133 164.844 151.953 165.156 153.039L162.051 153.613C161.918 153.129 161.664 152.758 161.289 152.5C160.922 152.242 160.395 152.113 159.707 152.113C158.84 152.113 158.219 152.234 157.844 152.477C157.594 152.648 157.469 152.871 157.469 153.145C157.469 153.379 157.578 153.578 157.797 153.742C158.094 153.961 159.117 154.27 160.867 154.668C162.625 155.066 163.852 155.555 164.547 156.133C165.234 156.719 165.578 157.535 165.578 158.582C165.578 159.723 165.102 160.703 164.148 161.523C163.195 162.344 161.785 162.754 159.918 162.754C158.223 162.754 156.879 162.41 155.887 161.723C154.902 161.035 154.258 160.102 153.953 158.922Z" fill="#000081"/>
<path d="M186.566 162.473H183.508V160.645C183 161.355 182.398 161.887 181.703 162.238C181.016 162.582 180.32 162.754 179.617 162.754C178.188 162.754 176.961 162.18 175.938 161.031C174.922 159.875 174.414 158.266 174.414 156.203C174.414 154.094 174.91 152.492 175.902 151.398C176.895 150.297 178.148 149.746 179.664 149.746C181.055 149.746 182.258 150.324 183.273 151.48V145.293H186.566V162.473ZM177.777 155.98C177.777 157.309 177.961 158.27 178.328 158.863C178.859 159.723 179.602 160.152 180.555 160.152C181.312 160.152 181.957 159.832 182.488 159.191C183.02 158.543 183.285 157.578 183.285 156.297C183.285 154.867 183.027 153.84 182.512 153.215C181.996 152.582 181.336 152.266 180.531 152.266C179.75 152.266 179.094 152.578 178.562 153.203C178.039 153.82 177.777 154.746 177.777 155.98Z" fill="#000081"/>
<path d="M192.285 153.824L189.297 153.285C189.633 152.082 190.211 151.191 191.031 150.613C191.852 150.035 193.07 149.746 194.688 149.746C196.156 149.746 197.25 149.922 197.969 150.273C198.688 150.617 199.191 151.059 199.48 151.598C199.777 152.129 199.926 153.109 199.926 154.539L199.891 158.383C199.891 159.477 199.941 160.285 200.043 160.809C200.152 161.324 200.352 161.879 200.641 162.473H197.383C197.297 162.254 197.191 161.93 197.066 161.5C197.012 161.305 196.973 161.176 196.949 161.113C196.387 161.66 195.785 162.07 195.145 162.344C194.504 162.617 193.82 162.754 193.094 162.754C191.812 162.754 190.801 162.406 190.059 161.711C189.324 161.016 188.957 160.137 188.957 159.074C188.957 158.371 189.125 157.746 189.461 157.199C189.797 156.645 190.266 156.223 190.867 155.934C191.477 155.637 192.352 155.379 193.492 155.16C195.031 154.871 196.098 154.602 196.691 154.352V154.023C196.691 153.391 196.535 152.941 196.223 152.676C195.91 152.402 195.32 152.266 194.453 152.266C193.867 152.266 193.41 152.383 193.082 152.617C192.754 152.844 192.488 153.246 192.285 153.824ZM196.691 156.496C196.27 156.637 195.602 156.805 194.688 157C193.773 157.195 193.176 157.387 192.895 157.574C192.465 157.879 192.25 158.266 192.25 158.734C192.25 159.195 192.422 159.594 192.766 159.93C193.109 160.266 193.547 160.434 194.078 160.434C194.672 160.434 195.238 160.238 195.777 159.848C196.176 159.551 196.438 159.188 196.562 158.758C196.648 158.477 196.691 157.941 196.691 157.152V156.496Z" fill="#000081"/>
<path d="M215.57 150.027V152.652H213.32V157.668C213.32 158.684 213.34 159.277 213.379 159.449C213.426 159.613 213.523 159.75 213.672 159.859C213.828 159.969 214.016 160.023 214.234 160.023C214.539 160.023 214.98 159.918 215.559 159.707L215.84 162.262C215.074 162.59 214.207 162.754 213.238 162.754C212.645 162.754 212.109 162.656 211.633 162.461C211.156 162.258 210.805 162 210.578 161.688C210.359 161.367 210.207 160.938 210.121 160.398C210.051 160.016 210.016 159.242 210.016 158.078V152.652H208.504V150.027H210.016V147.555L213.32 145.633V150.027H215.57Z" fill="#000081"/>
<path d="M220.316 153.824L217.328 153.285C217.664 152.082 218.242 151.191 219.062 150.613C219.883 150.035 221.102 149.746 222.719 149.746C224.188 149.746 225.281 149.922 226 150.273C226.719 150.617 227.223 151.059 227.512 151.598C227.809 152.129 227.957 153.109 227.957 154.539L227.922 158.383C227.922 159.477 227.973 160.285 228.074 160.809C228.184 161.324 228.383 161.879 228.672 162.473H225.414C225.328 162.254 225.223 161.93 225.098 161.5C225.043 161.305 225.004 161.176 224.98 161.113C224.418 161.66 223.816 162.07 223.176 162.344C222.535 162.617 221.852 162.754 221.125 162.754C219.844 162.754 218.832 162.406 218.09 161.711C217.355 161.016 216.988 160.137 216.988 159.074C216.988 158.371 217.156 157.746 217.492 157.199C217.828 156.645 218.297 156.223 218.898 155.934C219.508 155.637 220.383 155.379 221.523 155.16C223.062 154.871 224.129 154.602 224.723 154.352V154.023C224.723 153.391 224.566 152.941 224.254 152.676C223.941 152.402 223.352 152.266 222.484 152.266C221.898 152.266 221.441 152.383 221.113 152.617C220.785 152.844 220.52 153.246 220.316 153.824ZM224.723 156.496C224.301 156.637 223.633 156.805 222.719 157C221.805 157.195 221.207 157.387 220.926 157.574C220.496 157.879 220.281 158.266 220.281 158.734C220.281 159.195 220.453 159.594 220.797 159.93C221.141 160.266 221.578 160.434 222.109 160.434C222.703 160.434 223.27 160.238 223.809 159.848C224.207 159.551 224.469 159.188 224.594 158.758C224.68 158.477 224.723 157.941 224.723 157.152V156.496Z" fill="#000081"/>
<path d="M230.91 163.293L234.672 163.75C234.734 164.188 234.879 164.488 235.105 164.652C235.418 164.887 235.91 165.004 236.582 165.004C237.441 165.004 238.086 164.875 238.516 164.617C238.805 164.445 239.023 164.168 239.172 163.785C239.273 163.512 239.324 163.008 239.324 162.273V160.457C238.34 161.801 237.098 162.473 235.598 162.473C233.926 162.473 232.602 161.766 231.625 160.352C230.859 159.234 230.477 157.844 230.477 156.18C230.477 154.094 230.977 152.5 231.977 151.398C232.984 150.297 234.234 149.746 235.727 149.746C237.266 149.746 238.535 150.422 239.535 151.773V150.027H242.617V161.195C242.617 162.664 242.496 163.762 242.254 164.488C242.012 165.215 241.672 165.785 241.234 166.199C240.797 166.613 240.211 166.938 239.477 167.172C238.75 167.406 237.828 167.523 236.711 167.523C234.602 167.523 233.105 167.16 232.223 166.434C231.34 165.715 230.898 164.801 230.898 163.691C230.898 163.582 230.902 163.449 230.91 163.293ZM233.852 155.992C233.852 157.312 234.105 158.281 234.613 158.898C235.129 159.508 235.762 159.812 236.512 159.812C237.316 159.812 237.996 159.5 238.551 158.875C239.105 158.242 239.383 157.309 239.383 156.074C239.383 154.785 239.117 153.828 238.586 153.203C238.055 152.578 237.383 152.266 236.57 152.266C235.781 152.266 235.129 152.574 234.613 153.191C234.105 153.801 233.852 154.734 233.852 155.992Z" fill="#000081"/>
<path d="M263.734 160.516L251.957 155.395V152.559L263.734 147.461V150.801L255.52 153.941L263.734 157.199V160.516Z" fill="#000081"/>
<path d="M269.043 153.824L266.055 153.285C266.391 152.082 266.969 151.191 267.789 150.613C268.609 150.035 269.828 149.746 271.445 149.746C272.914 149.746 274.008 149.922 274.727 150.273C275.445 150.617 275.949 151.059 276.238 151.598C276.535 152.129 276.684 153.109 276.684 154.539L276.648 158.383C276.648 159.477 276.699 160.285 276.801 160.809C276.91 161.324 277.109 161.879 277.398 162.473H274.141C274.055 162.254 273.949 161.93 273.824 161.5C273.77 161.305 273.73 161.176 273.707 161.113C273.145 161.66 272.543 162.07 271.902 162.344C271.262 162.617 270.578 162.754 269.852 162.754C268.57 162.754 267.559 162.406 266.816 161.711C266.082 161.016 265.715 160.137 265.715 159.074C265.715 158.371 265.883 157.746 266.219 157.199C266.555 156.645 267.023 156.223 267.625 155.934C268.234 155.637 269.109 155.379 270.25 155.16C271.789 154.871 272.855 154.602 273.449 154.352V154.023C273.449 153.391 273.293 152.941 272.98 152.676C272.668 152.402 272.078 152.266 271.211 152.266C270.625 152.266 270.168 152.383 269.84 152.617C269.512 152.844 269.246 153.246 269.043 153.824ZM273.449 156.496C273.027 156.637 272.359 156.805 271.445 157C270.531 157.195 269.934 157.387 269.652 157.574C269.223 157.879 269.008 158.266 269.008 158.734C269.008 159.195 269.18 159.594 269.523 159.93C269.867 160.266 270.305 160.434 270.836 160.434C271.43 160.434 271.996 160.238 272.535 159.848C272.934 159.551 273.195 159.188 273.32 158.758C273.406 158.477 273.449 157.941 273.449 157.152V156.496Z" fill="#000081"/>
<path d="M279.332 160.527V157.211L287.559 153.977L279.332 150.777V147.484L291.121 152.582V155.395L279.332 160.527Z" fill="#000081"/>
<path d="M635.07 5.02734H636.898V4.08984C636.898 3.04297 637.008 2.26172 637.227 1.74609C637.453 1.23047 637.863 0.8125 638.457 0.492188C639.059 0.164062 639.816 0 640.73 0C641.668 0 642.586 0.140625 643.484 0.421875L643.039 2.71875C642.516 2.59375 642.012 2.53125 641.527 2.53125C641.051 2.53125 640.707 2.64453 640.496 2.87109C640.293 3.08984 640.191 3.51562 640.191 4.14844V5.02734H642.652V7.61719H640.191V17.4727H636.898V7.61719H635.07V5.02734Z" fill="#1D1D8E"/>
<path d="M644.504 3.33984V0.292969H647.797V3.33984H644.504ZM644.504 17.4727V5.02734H647.797V17.4727H644.504Z" fill="#1D1D8E"/>
<path d="M662.504 17.4727H659.211V11.1211C659.211 9.77734 659.141 8.91016 659 8.51953C658.859 8.12109 658.629 7.8125 658.309 7.59375C657.996 7.375 657.617 7.26562 657.172 7.26562C656.602 7.26562 656.09 7.42188 655.637 7.73438C655.184 8.04688 654.871 8.46094 654.699 8.97656C654.535 9.49219 654.453 10.4453 654.453 11.8359V17.4727H651.16V5.02734H654.219V6.85547C655.305 5.44922 656.672 4.74609 658.32 4.74609C659.047 4.74609 659.711 4.87891 660.312 5.14453C660.914 5.40234 661.367 5.73438 661.672 6.14062C661.984 6.54688 662.199 7.00781 662.316 7.52344C662.441 8.03906 662.504 8.77734 662.504 9.73828V17.4727Z" fill="#1D1D8E"/>
<path d="M668.316 8.82422L665.328 8.28516C665.664 7.08203 666.242 6.19141 667.062 5.61328C667.883 5.03516 669.102 4.74609 670.719 4.74609C672.188 4.74609 673.281 4.92188 674 5.27344C674.719 5.61719 675.223 6.05859 675.512 6.59766C675.809 7.12891 675.957 8.10938 675.957 9.53906L675.922 13.3828C675.922 14.4766 675.973 15.2852 676.074 15.8086C676.184 16.3242 676.383 16.8789 676.672 17.4727H673.414C673.328 17.2539 673.223 16.9297 673.098 16.5C673.043 16.3047 673.004 16.1758 672.98 16.1133C672.418 16.6602 671.816 17.0703 671.176 17.3438C670.535 17.6172 669.852 17.7539 669.125 17.7539C667.844 17.7539 666.832 17.4062 666.09 16.7109C665.355 16.0156 664.988 15.1367 664.988 14.0742C664.988 13.3711 665.156 12.7461 665.492 12.1992C665.828 11.6445 666.297 11.2227 666.898 10.9336C667.508 10.6367 668.383 10.3789 669.523 10.1602C671.062 9.87109 672.129 9.60156 672.723 9.35156V9.02344C672.723 8.39062 672.566 7.94141 672.254 7.67578C671.941 7.40234 671.352 7.26562 670.484 7.26562C669.898 7.26562 669.441 7.38281 669.113 7.61719C668.785 7.84375 668.52 8.24609 668.316 8.82422ZM672.723 11.4961C672.301 11.6367 671.633 11.8047 670.719 12C669.805 12.1953 669.207 12.3867 668.926 12.5742C668.496 12.8789 668.281 13.2656 668.281 13.7344C668.281 14.1953 668.453 14.5938 668.797 14.9297C669.141 15.2656 669.578 15.4336 670.109 15.4336C670.703 15.4336 671.27 15.2383 671.809 14.8477C672.207 14.5508 672.469 14.1875 672.594 13.7578C672.68 13.4766 672.723 12.9414 672.723 12.1523V11.4961Z" fill="#1D1D8E"/>
<path d="M679.215 17.4727V0.292969H682.508V17.4727H679.215Z" fill="#1D1D8E"/>
<path d="M690.816 17.7656L695.07 0H697.543L693.242 17.7656H690.816Z" fill="#1D1D8E"/>
<path d="M704.492 5.02734H706.32V4.08984C706.32 3.04297 706.43 2.26172 706.648 1.74609C706.875 1.23047 707.285 0.8125 707.879 0.492188C708.48 0.164062 709.238 0 710.152 0C711.09 0 712.008 0.140625 712.906 0.421875L712.461 2.71875C711.938 2.59375 711.434 2.53125 710.949 2.53125C710.473 2.53125 710.129 2.64453 709.918 2.87109C709.715 3.08984 709.613 3.51562 709.613 4.14844V5.02734H712.074V7.61719H709.613V17.4727H706.32V7.61719H704.492V5.02734Z" fill="#1D1D8E"/>
<path d="M721.133 13.5117L724.414 14.0625C723.992 15.2656 723.324 16.1836 722.41 16.8164C721.504 17.4414 720.367 17.7539 719 17.7539C716.836 17.7539 715.234 17.0469 714.195 15.6328C713.375 14.5 712.965 13.0703 712.965 11.3438C712.965 9.28125 713.504 7.66797 714.582 6.50391C715.66 5.33203 717.023 4.74609 718.672 4.74609C720.523 4.74609 721.984 5.35938 723.055 6.58594C724.125 7.80469 724.637 9.67578 724.59 12.1992H716.34C716.363 13.1758 716.629 13.9375 717.137 14.4844C717.645 15.0234 718.277 15.293 719.035 15.293C719.551 15.293 719.984 15.1523 720.336 14.8711C720.688 14.5898 720.953 14.1367 721.133 13.5117ZM721.32 10.1836C721.297 9.23047 721.051 8.50781 720.582 8.01562C720.113 7.51562 719.543 7.26562 718.871 7.26562C718.152 7.26562 717.559 7.52734 717.09 8.05078C716.621 8.57422 716.391 9.28516 716.398 10.1836H721.32Z" fill="#1D1D8E"/>
<path d="M738.137 8.70703L734.891 9.29297C734.781 8.64453 734.531 8.15625 734.141 7.82812C733.758 7.5 733.258 7.33594 732.641 7.33594C731.82 7.33594 731.164 7.62109 730.672 8.19141C730.188 8.75391 729.945 9.69922 729.945 11.0273C729.945 12.5039 730.191 13.5469 730.684 14.1562C731.184 14.7656 731.852 15.0703 732.688 15.0703C733.312 15.0703 733.824 14.8945 734.223 14.543C734.621 14.1836 734.902 13.5703 735.066 12.7031L738.301 13.2539C737.965 14.7383 737.32 15.8594 736.367 16.6172C735.414 17.375 734.137 17.7539 732.535 17.7539C730.715 17.7539 729.262 17.1797 728.176 16.0312C727.098 14.8828 726.559 13.293 726.559 11.2617C726.559 9.20703 727.102 7.60938 728.188 6.46875C729.273 5.32031 730.742 4.74609 732.594 4.74609C734.109 4.74609 735.312 5.07422 736.203 5.73047C737.102 6.37891 737.746 7.37109 738.137 8.70703Z" fill="#1D1D8E"/>
<path d="M743.926 0.292969V6.60938C744.988 5.36719 746.258 4.74609 747.734 4.74609C748.492 4.74609 749.176 4.88672 749.785 5.16797C750.395 5.44922 750.852 5.80859 751.156 6.24609C751.469 6.68359 751.68 7.16797 751.789 7.69922C751.906 8.23047 751.965 9.05469 751.965 10.1719V17.4727H748.672V10.8984C748.672 9.59375 748.609 8.76562 748.484 8.41406C748.359 8.0625 748.137 7.78516 747.816 7.58203C747.504 7.37109 747.109 7.26562 746.633 7.26562C746.086 7.26562 745.598 7.39844 745.168 7.66406C744.738 7.92969 744.422 8.33203 744.219 8.87109C744.023 9.40234 743.926 10.1914 743.926 11.2383V17.4727H740.633V0.292969H743.926Z" fill="#1D1D8E"/>
<path d="M757.777 8.82422L754.789 8.28516C755.125 7.08203 755.703 6.19141 756.523 5.61328C757.344 5.03516 758.562 4.74609 760.18 4.74609C761.648 4.74609 762.742 4.92188 763.461 5.27344C764.18 5.61719 764.684 6.05859 764.973 6.59766C765.27 7.12891 765.418 8.10938 765.418 9.53906L765.383 13.3828C765.383 14.4766 765.434 15.2852 765.535 15.8086C765.645 16.3242 765.844 16.8789 766.133 17.4727H762.875C762.789 17.2539 762.684 16.9297 762.559 16.5C762.504 16.3047 762.465 16.1758 762.441 16.1133C761.879 16.6602 761.277 17.0703 760.637 17.3438C759.996 17.6172 759.312 17.7539 758.586 17.7539C757.305 17.7539 756.293 17.4062 755.551 16.7109C754.816 16.0156 754.449 15.1367 754.449 14.0742C754.449 13.3711 754.617 12.7461 754.953 12.1992C755.289 11.6445 755.758 11.2227 756.359 10.9336C756.969 10.6367 757.844 10.3789 758.984 10.1602C760.523 9.87109 761.59 9.60156 762.184 9.35156V9.02344C762.184 8.39062 762.027 7.94141 761.715 7.67578C761.402 7.40234 760.812 7.26562 759.945 7.26562C759.359 7.26562 758.902 7.38281 758.574 7.61719C758.246 7.84375 757.98 8.24609 757.777 8.82422ZM762.184 11.4961C761.762 11.6367 761.094 11.8047 760.18 12C759.266 12.1953 758.668 12.3867 758.387 12.5742C757.957 12.8789 757.742 13.2656 757.742 13.7344C757.742 14.1953 757.914 14.5938 758.258 14.9297C758.602 15.2656 759.039 15.4336 759.57 15.4336C760.164 15.4336 760.73 15.2383 761.27 14.8477C761.668 14.5508 761.93 14.1875 762.055 13.7578C762.141 13.4766 762.184 12.9414 762.184 12.1523V11.4961Z" fill="#1D1D8E"/>
<path d="M768.43 5.02734H771.465V6.72656C772.551 5.40625 773.844 4.74609 775.344 4.74609C776.141 4.74609 776.832 4.91016 777.418 5.23828C778.004 5.56641 778.484 6.0625 778.859 6.72656C779.406 6.0625 779.996 5.56641 780.629 5.23828C781.262 4.91016 781.938 4.74609 782.656 4.74609C783.57 4.74609 784.344 4.93359 784.977 5.30859C785.609 5.67578 786.082 6.21875 786.395 6.9375C786.621 7.46875 786.734 8.32812 786.734 9.51562V17.4727H783.441V10.3594C783.441 9.125 783.328 8.32812 783.102 7.96875C782.797 7.5 782.328 7.26562 781.695 7.26562C781.234 7.26562 780.801 7.40625 780.395 7.6875C779.988 7.96875 779.695 8.38281 779.516 8.92969C779.336 9.46875 779.246 10.3242 779.246 11.4961V17.4727H775.953V10.6523C775.953 9.44141 775.895 8.66016 775.777 8.30859C775.66 7.95703 775.477 7.69531 775.227 7.52344C774.984 7.35156 774.652 7.26562 774.23 7.26562C773.723 7.26562 773.266 7.40234 772.859 7.67578C772.453 7.94922 772.16 8.34375 771.98 8.85938C771.809 9.375 771.723 10.2305 771.723 11.4258V17.4727H768.43V5.02734Z" fill="#1D1D8E"/>
<path d="M797.234 13.5117L800.516 14.0625C800.094 15.2656 799.426 16.1836 798.512 16.8164C797.605 17.4414 796.469 17.7539 795.102 17.7539C792.938 17.7539 791.336 17.0469 790.297 15.6328C789.477 14.5 789.066 13.0703 789.066 11.3438C789.066 9.28125 789.605 7.66797 790.684 6.50391C791.762 5.33203 793.125 4.74609 794.773 4.74609C796.625 4.74609 798.086 5.35938 799.156 6.58594C800.227 7.80469 800.738 9.67578 800.691 12.1992H792.441C792.465 13.1758 792.73 13.9375 793.238 14.4844C793.746 15.0234 794.379 15.293 795.137 15.293C795.652 15.293 796.086 15.1523 796.438 14.8711C796.789 14.5898 797.055 14.1367 797.234 13.5117ZM797.422 10.1836C797.398 9.23047 797.152 8.50781 796.684 8.01562C796.215 7.51562 795.645 7.26562 794.973 7.26562C794.254 7.26562 793.66 7.52734 793.191 8.05078C792.723 8.57422 792.492 9.28516 792.5 10.1836H797.422Z" fill="#1D1D8E"/>
<path d="M814.707 17.4727H811.414V11.1211C811.414 9.77734 811.344 8.91016 811.203 8.51953C811.062 8.12109 810.832 7.8125 810.512 7.59375C810.199 7.375 809.82 7.26562 809.375 7.26562C808.805 7.26562 808.293 7.42188 807.84 7.73438C807.387 8.04688 807.074 8.46094 806.902 8.97656C806.738 9.49219 806.656 10.4453 806.656 11.8359V17.4727H803.363V5.02734H806.422V6.85547C807.508 5.44922 808.875 4.74609 810.523 4.74609C811.25 4.74609 811.914 4.87891 812.516 5.14453C813.117 5.40234 813.57 5.73438 813.875 6.14062C814.188 6.54688 814.402 7.00781 814.52 7.52344C814.645 8.03906 814.707 8.77734 814.707 9.73828V17.4727Z" fill="#1D1D8E"/>
<path d="M823.766 5.02734V7.65234H821.516V12.668C821.516 13.6836 821.535 14.2773 821.574 14.4492C821.621 14.6133 821.719 14.75 821.867 14.8594C822.023 14.9688 822.211 15.0234 822.43 15.0234C822.734 15.0234 823.176 14.918 823.754 14.707L824.035 17.2617C823.27 17.5898 822.402 17.7539 821.434 17.7539C820.84 17.7539 820.305 17.6562 819.828 17.4609C819.352 17.2578 819 17 818.773 16.6875C818.555 16.3672 818.402 15.9375 818.316 15.3984C818.246 15.0156 818.211 14.2422 818.211 13.0781V7.65234H816.699V5.02734H818.211V2.55469L821.516 0.632812V5.02734H823.766Z" fill="#1D1D8E"/>
<path d="M825.289 11.0742C825.289 9.98047 825.559 8.92188 826.098 7.89844C826.637 6.875 827.398 6.09375 828.383 5.55469C829.375 5.01562 830.48 4.74609 831.699 4.74609C833.582 4.74609 835.125 5.35938 836.328 6.58594C837.531 7.80469 838.133 9.34766 838.133 11.2148C838.133 13.0977 837.523 14.6602 836.305 15.9023C835.094 17.1367 833.566 17.7539 831.723 17.7539C830.582 17.7539 829.492 17.4961 828.453 16.9805C827.422 16.4648 826.637 15.7109 826.098 14.7188C825.559 13.7188 825.289 12.5039 825.289 11.0742ZM828.664 11.25C828.664 12.4844 828.957 13.4297 829.543 14.0859C830.129 14.7422 830.852 15.0703 831.711 15.0703C832.57 15.0703 833.289 14.7422 833.867 14.0859C834.453 13.4297 834.746 12.4766 834.746 11.2266C834.746 10.0078 834.453 9.07031 833.867 8.41406C833.289 7.75781 832.57 7.42969 831.711 7.42969C830.852 7.42969 830.129 7.75781 829.543 8.41406C828.957 9.07031 828.664 10.0156 828.664 11.25Z" fill="#1D1D8E"/>
<path d="M733.332 45.4727H730.273V43.6445C729.766 44.3555 729.164 44.8867 728.469 45.2383C727.781 45.582 727.086 45.7539 726.383 45.7539C724.953 45.7539 723.727 45.1797 722.703 44.0312C721.688 42.875 721.18 41.2656 721.18 39.2031C721.18 37.0938 721.676 35.4922 722.668 34.3984C723.66 33.2969 724.914 32.7461 726.43 32.7461C727.82 32.7461 729.023 33.3242 730.039 34.4805V28.293H733.332V45.4727ZM724.543 38.9805C724.543 40.3086 724.727 41.2695 725.094 41.8633C725.625 42.7227 726.367 43.1523 727.32 43.1523C728.078 43.1523 728.723 42.832 729.254 42.1914C729.785 41.543 730.051 40.5781 730.051 39.2969C730.051 37.8672 729.793 36.8398 729.277 36.2148C728.762 35.582 728.102 35.2656 727.297 35.2656C726.516 35.2656 725.859 35.5781 725.328 36.2031C724.805 36.8203 724.543 37.7461 724.543 38.9805Z" fill="#1D1D8E"/>
<path d="M739.051 36.8242L736.062 36.2852C736.398 35.082 736.977 34.1914 737.797 33.6133C738.617 33.0352 739.836 32.7461 741.453 32.7461C742.922 32.7461 744.016 32.9219 744.734 33.2734C745.453 33.6172 745.957 34.0586 746.246 34.5977C746.543 35.1289 746.691 36.1094 746.691 37.5391L746.656 41.3828C746.656 42.4766 746.707 43.2852 746.809 43.8086C746.918 44.3242 747.117 44.8789 747.406 45.4727H744.148C744.062 45.2539 743.957 44.9297 743.832 44.5C743.777 44.3047 743.738 44.1758 743.715 44.1133C743.152 44.6602 742.551 45.0703 741.91 45.3438C741.27 45.6172 740.586 45.7539 739.859 45.7539C738.578 45.7539 737.566 45.4062 736.824 44.7109C736.09 44.0156 735.723 43.1367 735.723 42.0742C735.723 41.3711 735.891 40.7461 736.227 40.1992C736.562 39.6445 737.031 39.2227 737.633 38.9336C738.242 38.6367 739.117 38.3789 740.258 38.1602C741.797 37.8711 742.863 37.6016 743.457 37.3516V37.0234C743.457 36.3906 743.301 35.9414 742.988 35.6758C742.676 35.4023 742.086 35.2656 741.219 35.2656C740.633 35.2656 740.176 35.3828 739.848 35.6172C739.52 35.8438 739.254 36.2461 739.051 36.8242ZM743.457 39.4961C743.035 39.6367 742.367 39.8047 741.453 40C740.539 40.1953 739.941 40.3867 739.66 40.5742C739.23 40.8789 739.016 41.2656 739.016 41.7344C739.016 42.1953 739.188 42.5938 739.531 42.9297C739.875 43.2656 740.312 43.4336 740.844 43.4336C741.438 43.4336 742.004 43.2383 742.543 42.8477C742.941 42.5508 743.203 42.1875 743.328 41.7578C743.414 41.4766 743.457 40.9414 743.457 40.1523V39.4961Z" fill="#1D1D8E"/>
<path d="M762.336 33.0273V35.6523H760.086V40.668C760.086 41.6836 760.105 42.2773 760.145 42.4492C760.191 42.6133 760.289 42.75 760.438 42.8594C760.594 42.9688 760.781 43.0234 761 43.0234C761.305 43.0234 761.746 42.918 762.324 42.707L762.605 45.2617C761.84 45.5898 760.973 45.7539 760.004 45.7539C759.41 45.7539 758.875 45.6562 758.398 45.4609C757.922 45.2578 757.57 45 757.344 44.6875C757.125 44.3672 756.973 43.9375 756.887 43.3984C756.816 43.0156 756.781 42.2422 756.781 41.0781V35.6523H755.27V33.0273H756.781V30.5547L760.086 28.6328V33.0273H762.336Z" fill="#1D1D8E"/>
<path d="M767.082 36.8242L764.094 36.2852C764.43 35.082 765.008 34.1914 765.828 33.6133C766.648 33.0352 767.867 32.7461 769.484 32.7461C770.953 32.7461 772.047 32.9219 772.766 33.2734C773.484 33.6172 773.988 34.0586 774.277 34.5977C774.574 35.1289 774.723 36.1094 774.723 37.5391L774.688 41.3828C774.688 42.4766 774.738 43.2852 774.84 43.8086C774.949 44.3242 775.148 44.8789 775.438 45.4727H772.18C772.094 45.2539 771.988 44.9297 771.863 44.5C771.809 44.3047 771.77 44.1758 771.746 44.1133C771.184 44.6602 770.582 45.0703 769.941 45.3438C769.301 45.6172 768.617 45.7539 767.891 45.7539C766.609 45.7539 765.598 45.4062 764.855 44.7109C764.121 44.0156 763.754 43.1367 763.754 42.0742C763.754 41.3711 763.922 40.7461 764.258 40.1992C764.594 39.6445 765.062 39.2227 765.664 38.9336C766.273 38.6367 767.148 38.3789 768.289 38.1602C769.828 37.8711 770.895 37.6016 771.488 37.3516V37.0234C771.488 36.3906 771.332 35.9414 771.02 35.6758C770.707 35.4023 770.117 35.2656 769.25 35.2656C768.664 35.2656 768.207 35.3828 767.879 35.6172C767.551 35.8438 767.285 36.2461 767.082 36.8242ZM771.488 39.4961C771.066 39.6367 770.398 39.8047 769.484 40C768.57 40.1953 767.973 40.3867 767.691 40.5742C767.262 40.8789 767.047 41.2656 767.047 41.7344C767.047 42.1953 767.219 42.5938 767.562 42.9297C767.906 43.2656 768.344 43.4336 768.875 43.4336C769.469 43.4336 770.035 43.2383 770.574 42.8477C770.973 42.5508 771.234 42.1875 771.359 41.7578C771.445 41.4766 771.488 40.9414 771.488 40.1523V39.4961Z" fill="#1D1D8E"/>
<path d="M777.676 46.293L781.438 46.75C781.5 47.1875 781.645 47.4883 781.871 47.6523C782.184 47.8867 782.676 48.0039 783.348 48.0039C784.207 48.0039 784.852 47.875 785.281 47.6172C785.57 47.4453 785.789 47.168 785.938 46.7852C786.039 46.5117 786.09 46.0078 786.09 45.2734V43.457C785.105 44.8008 783.863 45.4727 782.363 45.4727C780.691 45.4727 779.367 44.7656 778.391 43.3516C777.625 42.2344 777.242 40.8438 777.242 39.1797C777.242 37.0938 777.742 35.5 778.742 34.3984C779.75 33.2969 781 32.7461 782.492 32.7461C784.031 32.7461 785.301 33.4219 786.301 34.7734V33.0273H789.383V44.1953C789.383 45.6641 789.262 46.7617 789.02 47.4883C788.777 48.2148 788.438 48.7852 788 49.1992C787.562 49.6133 786.977 49.9375 786.242 50.1719C785.516 50.4062 784.594 50.5234 783.477 50.5234C781.367 50.5234 779.871 50.1602 778.988 49.4336C778.105 48.7148 777.664 47.8008 777.664 46.6914C777.664 46.582 777.668 46.4492 777.676 46.293ZM780.617 38.9922C780.617 40.3125 780.871 41.2812 781.379 41.8984C781.895 42.5078 782.527 42.8125 783.277 42.8125C784.082 42.8125 784.762 42.5 785.316 41.875C785.871 41.2422 786.148 40.3086 786.148 39.0742C786.148 37.7852 785.883 36.8281 785.352 36.2031C784.82 35.5781 784.148 35.2656 783.336 35.2656C782.547 35.2656 781.895 35.5742 781.379 36.1914C780.871 36.8008 780.617 37.7344 780.617 38.9922Z" fill="#1D1D8E"/>
<path d="M810.5 43.5156L798.723 38.3945V35.5586L810.5 30.4609V33.8008L802.285 36.9414L810.5 40.1992V43.5156Z" fill="#1D1D8E"/>
<path d="M815.809 36.8242L812.82 36.2852C813.156 35.082 813.734 34.1914 814.555 33.6133C815.375 33.0352 816.594 32.7461 818.211 32.7461C819.68 32.7461 820.773 32.9219 821.492 33.2734C822.211 33.6172 822.715 34.0586 823.004 34.5977C823.301 35.1289 823.449 36.1094 823.449 37.5391L823.414 41.3828C823.414 42.4766 823.465 43.2852 823.566 43.8086C823.676 44.3242 823.875 44.8789 824.164 45.4727H820.906C820.82 45.2539 820.715 44.9297 820.59 44.5C820.535 44.3047 820.496 44.1758 820.473 44.1133C819.91 44.6602 819.309 45.0703 818.668 45.3438C818.027 45.6172 817.344 45.7539 816.617 45.7539C815.336 45.7539 814.324 45.4062 813.582 44.7109C812.848 44.0156 812.48 43.1367 812.48 42.0742C812.48 41.3711 812.648 40.7461 812.984 40.1992C813.32 39.6445 813.789 39.2227 814.391 38.9336C815 38.6367 815.875 38.3789 817.016 38.1602C818.555 37.8711 819.621 37.6016 820.215 37.3516V37.0234C820.215 36.3906 820.059 35.9414 819.746 35.6758C819.434 35.4023 818.844 35.2656 817.977 35.2656C817.391 35.2656 816.934 35.3828 816.605 35.6172C816.277 35.8438 816.012 36.2461 815.809 36.8242ZM820.215 39.4961C819.793 39.6367 819.125 39.8047 818.211 40C817.297 40.1953 816.699 40.3867 816.418 40.5742C815.988 40.8789 815.773 41.2656 815.773 41.7344C815.773 42.1953 815.945 42.5938 816.289 42.9297C816.633 43.2656 817.07 43.4336 817.602 43.4336C818.195 43.4336 818.762 43.2383 819.301 42.8477C819.699 42.5508 819.961 42.1875 820.086 41.7578C820.172 41.4766 820.215 40.9414 820.215 40.1523V39.4961Z" fill="#1D1D8E"/>
<path d="M826.098 43.5273V40.2109L834.324 36.9766L826.098 33.7773V30.4844L837.887 35.582V38.3945L826.098 43.5273Z" fill="#1D1D8E"/>
</svg>
