<svg width="3838" height="4131" viewBox="0 0 3838 4131" fill="none" xmlns="http://www.w3.org/2000/svg">
<path d="M3572.15 1716.64C3244 2413 2744.95 2172.18 1964 1941C1183.05 1709.82 575.925 1314.55 804 925C1028 621 1642.25 171.412 2423.2 402.597C3204.15 633.781 3718.55 1222.1 3572.15 1716.64Z" fill="white" fill-opacity="0.5"/>
<path d="M3100.12 1594.56C3684 2189 3156 2837 2536.97 3349.9C2220.87 3611.8 1141.98 3586.47 780.001 3213C276.001 2693 599.451 1893.26 1262.43 1448.79C1925.41 1004.32 2748.17 1069.58 3100.12 1594.56Z" fill="white" fill-opacity="0.4"/>
<path d="M2020 2261C1800.2 2768.69 1188.5 3040.83 765.849 2857.85C343.195 2674.86 178.751 2114.96 398.553 1607.26C618.356 1099.57 1139.17 836.339 1561.83 1019.32C1984.48 1202.31 2308 1693 2020 2261Z" fill="white" fill-opacity="0.7"/>
</svg>
