<svg width="4176" height="1520" viewBox="0 0 4176 1520" fill="none" xmlns="http://www.w3.org/2000/svg">
<g clip-path="url(#clip0)">
<rect width="4176" height="1520" fill="#4C1D63"/>
<path d="M3423.66 472.396L3447.33 455.198L3456.15 467.333L3471 456.541L3485.85 467.333L3494.67 455.198L3518.34 472.396L3509.52 484.531L3556.87 518.926L3565.68 506.791L3589.35 523.989L3580.54 536.124L3627.88 570.52L3636.7 558.385L3660.37 575.582L3651.55 587.718L3698.89 622.113L3707.71 609.978L3731.38 627.176L3722.56 639.311L3769.9 673.707L3778.72 661.571L3802.39 678.769L3793.57 690.904L3840.92 725.3L3849.73 713.165L3873.4 730.363L3864.59 742.498L3879.44 753.29L3873.77 770.752L3888.03 775.387L3878.99 803.214L3864.72 798.578L3846.64 854.232L3860.91 858.867L3851.87 886.693L3837.6 882.058L3819.52 937.711L3833.78 942.347L3824.74 970.173L3810.48 965.538L3792.39 1021.19L3806.66 1025.83L3797.62 1053.65L3783.35 1049.02L3765.27 1104.67L3779.53 1109.31L3770.49 1137.13L3756.23 1132.5L3738.14 1188.15L3752.41 1192.79L3743.37 1220.61L3729.1 1215.98L3723.43 1233.44H3705.07V1248.44H3675.81V1233.44H3617.29V1248.44H3588.03V1233.44H3529.52V1248.44H3500.26V1233.44H3441.74V1248.44H3412.48V1233.44H3353.97V1248.44H3324.71V1233.44H3266.19V1248.44H3236.93V1233.44H3218.57L3212.9 1215.98L3198.63 1220.61L3189.59 1192.79L3203.86 1188.15L3185.77 1132.5L3171.51 1137.13L3162.47 1109.31L3176.73 1104.67L3158.65 1049.02L3144.38 1053.65L3135.34 1025.83L3149.61 1021.19L3131.52 965.538L3117.26 970.173L3108.22 942.347L3122.48 937.711L3104.4 882.058L3090.13 886.693L3081.09 858.867L3095.36 854.232L3077.28 798.578L3063.01 803.214L3053.97 775.387L3068.23 770.752L3062.56 753.29L3077.41 742.498L3068.6 730.363L3092.27 713.165L3101.08 725.3L3148.43 690.904L3139.61 678.769L3163.28 661.571L3172.1 673.707L3219.44 639.311L3210.62 627.176L3234.29 609.978L3243.11 622.113L3290.45 587.718L3281.63 575.582L3305.3 558.385L3314.12 570.52L3361.46 536.124L3352.65 523.989L3376.32 506.791L3385.13 518.926L3432.48 484.531L3423.66 472.396Z" stroke="white" stroke-width="30" stroke-dasharray="60 30"/>
<rect x="3144" y="1144" width="160" height="160" fill="white"/>
<rect x="3648" y="1144" width="160" height="160" fill="white"/>
<rect x="3773" y="674" width="160" height="160" fill="white"/>
<rect x="2984" y="674" width="160" height="160" fill="white"/>
<rect x="3391" y="392" width="160" height="160" fill="white"/>
<path d="M2491 1035L2707.84 1192.54L2625.02 1447.46H2356.98L2274.16 1192.54L2491 1035Z" fill="#A50000"/>
<path d="M2563.54 9.39509L2798.44 99.5645L2785.27 350.831L2542.23 415.953L2405.2 204.934L2563.54 9.39509Z" fill="#A50000"/>
<path d="M681.074 1073.89L825.185 1280.14L673.559 1480.93L435.738 1398.78L440.383 1147.21L681.074 1073.89Z" fill="#A50000"/>
<line x1="3467.99" y1="863.989" x2="2615.99" y2="219.989" stroke="white" stroke-width="10"/>
<line x1="3472.95" y1="864.602" x2="2492.95" y2="1280.6" stroke="white" stroke-width="10"/>
<line x1="3471.72" y1="864.948" x2="611.72" y2="1280.95" stroke="white" stroke-width="10"/>
<path d="M1814.55 630.028L1876.45 837.795L1697.99 960.877L1525.78 829.18L1597.82 624.704L1814.55 630.028Z" fill="#A50000"/>
<line x1="3470.77" y1="864.994" x2="1702.77" y2="781.995" stroke="white" stroke-width="10"/>
</g>
<defs>
<clipPath id="clip0">
<rect width="4176" height="1520" fill="white"/>
</clipPath>
</defs>
</svg>
