<svg width="345" height="490" viewBox="0 0 345 490" fill="none" xmlns="http://www.w3.org/2000/svg">
<path d="M97.5737 192.082V104.899C97.5737 72.73 123.287 46.6218 154.97 46.6218C186.653 46.6218 212.366 72.73 212.366 104.899V192.082C240.146 173.2 258.283 141.264 258.283 104.899C258.283 46.8549 212.137 0 154.97 0C97.8033 0 51.6567 46.8549 51.6567 104.899C51.6567 141.264 69.7939 173.2 97.5737 192.082ZM323.486 300.011L219.254 247.329C215.351 245.697 211.218 244.764 206.856 244.764H189.408V104.899C189.408 85.551 174.026 69.9327 154.97 69.9327C135.914 69.9327 120.532 85.551 120.532 104.899V355.258L41.7845 338.474C39.9478 338.241 38.3407 337.775 36.2745 337.775C29.1573 337.775 22.7289 340.805 18.1372 345.468L0 364.116L113.415 479.272C119.614 485.566 128.338 489.529 137.751 489.529H293.64C310.858 489.529 324.174 476.708 326.7 459.691L343.919 336.843C344.148 335.211 344.378 333.579 344.378 332.18C344.378 317.728 335.654 305.14 323.486 300.011V300.011Z" fill="white"/>
</svg>
