<svg width="778" height="778" viewBox="0 0 778 778" fill="none" xmlns="http://www.w3.org/2000/svg">
<path d="M656.405 311.489C570.956 185.412 371.886 164.352 288.144 300.505C256.747 363.349 246.316 447.158 314.44 494.341C332.223 508.641 363.338 522.008 393.03 520.575C422.723 519.141 440.168 504.885 450.633 483.937C461.099 462.989 461.088 442.035 445.364 426.311C434.881 415.829 419.169 421.059 403.457 426.289C392.98 426.283 382.492 405.324 382.486 394.847C382.464 352.94 417.723 326.79 461.026 326.79C556.223 331.141 597.28 431.631 571.131 510.193C550.205 562.566 508.32 604.451 455.947 625.377C414.046 635.831 312.562 670.641 194.223 544.641C150.873 498.485 118.223 378.641 146.223 300.505" stroke="white" stroke-width="70" stroke-miterlimit="10"/>
</svg>
