<svg width="1920" height="3184" viewBox="0 0 1920 3184" fill="none" xmlns="http://www.w3.org/2000/svg">
<g opacity="0.3">
<rect width="63.3043" height="63.3043" transform="translate(824.348 1127.65)" fill="#EEEEEE"/>
<rect width="63.3043" height="63.3043" transform="translate(887.652 1127.65)" fill="#EEEEEE"/>
<rect width="63.3043" height="63.3043" transform="translate(887.652 1190.96)" fill="#DEDEDE"/>
<rect width="63.3043" height="63.3043" transform="translate(824.348 1190.96)" fill="#DEDEDE"/>
<rect width="63.3043" height="63.3043" transform="translate(761.043 1190.96)" fill="#DEDEDE"/>
<rect width="63.3043" height="63.3043" transform="translate(697.739 1190.96)" fill="#DEDEDE"/>
<rect width="63.3043" height="63.3043" transform="translate(697.739 1127.65)" fill="#DEDEDE"/>
<rect width="63.3043" height="63.3043" transform="translate(697.739 1064.35)" fill="#DEDEDE"/>
<rect width="63.3043" height="63.3043" transform="translate(697.739 1001.04)" fill="#DEDEDE"/>
<rect width="63.3043" height="63.3043" transform="translate(697.739 937.739)" fill="#DEDEDE"/>
<rect width="63.3043" height="63.3043" transform="translate(761.043 937.739)" fill="#DEDEDE"/>
<rect width="63.3043" height="63.3043" transform="translate(824.348 937.739)" fill="#DEDEDE"/>
<rect width="63.3043" height="63.3043" transform="translate(887.652 937.739)" fill="#DEDEDE"/>
<rect width="63.3043" height="63.3043" transform="translate(950.957 937.739)" fill="#DEDEDE"/>
<rect width="63.3043" height="63.3043" transform="translate(950.957 1001.04)" fill="#DEDEDE"/>
<rect width="63.3043" height="63.3043" transform="translate(950.957 1064.35)" fill="#DEDEDE"/>
<rect width="63.3043" height="63.3043" transform="translate(950.957 1127.65)" fill="#DEDEDE"/>
<rect width="63.3043" height="63.3043" transform="translate(950.957 1190.96)" fill="#DEDEDE"/>
<rect width="63.3043" height="63.3043" transform="translate(1014.26 1254.26)" fill="#DEDEDE"/>
<rect width="63.3043" height="63.3043" transform="translate(1014.26 1317.57)" fill="#D4D4D4"/>
<rect width="63.3043" height="63.3043" transform="translate(950.957 1317.57)" fill="#D4D4D4"/>
<rect width="63.3043" height="63.3043" transform="translate(887.652 1317.57)" fill="#D4D4D4"/>
<rect width="63.3043" height="63.3043" transform="translate(824.348 1317.57)" fill="#D4D4D4"/>
<rect width="63.3043" height="63.3043" transform="translate(761.043 1317.57)" fill="#D4D4D4"/>
<rect width="63.3043" height="63.3043" transform="translate(697.739 1317.57)" fill="#D4D4D4"/>
<rect width="63.3043" height="63.3043" transform="translate(634.435 1317.57)" fill="#D4D4D4"/>
<rect width="63.3043" height="63.3043" transform="translate(1077.57 1317.57)" fill="#D4D4D4"/>
<rect width="63.3043" height="63.3043" transform="translate(1077.57 811.13)" fill="#D4D4D4"/>
<rect width="63.3043" height="63.3043" transform="translate(950.957 811.13)" fill="#D4D4D4"/>
<rect width="63.3043" height="63.3043" transform="translate(824.348 811.13)" fill="#D4D4D4"/>
<rect width="63.3043" height="63.3043" transform="translate(697.739 811.13)" fill="#D4D4D4"/>
<rect width="63.3043" height="63.3043" transform="translate(1077.57 1254.26)" fill="#D4D4D4"/>
<rect width="63.3043" height="63.3043" transform="translate(1077.57 1190.96)" fill="#D4D4D4"/>
<rect width="63.3043" height="63.3043" transform="translate(1077.57 1127.65)" fill="#D4D4D4"/>
<rect width="63.3043" height="63.3043" transform="translate(1077.57 1064.35)" fill="#D4D4D4"/>
<rect width="63.3043" height="63.3043" transform="translate(1077.57 1001.04)" fill="#D4D4D4"/>
<rect width="63.3043" height="63.3043" transform="translate(1077.57 937.739)" fill="#D4D4D4"/>
<rect width="63.3043" height="63.3043" transform="translate(1077.57 874.435)" fill="#D4D4D4"/>
<rect width="63.3043" height="63.3043" transform="translate(1140.87 1254.26)" fill="#D4D4D4"/>
<rect width="63.3043" height="63.3043" transform="translate(1140.87 1127.65)" fill="#D4D4D4"/>
<rect width="63.3043" height="63.3043" transform="translate(1140.87 1001.04)" fill="#D4D4D4"/>
<rect width="63.3043" height="63.3043" transform="translate(1140.87 874.435)" fill="#D4D4D4"/>
<rect width="63.3043" height="63.3043" transform="translate(1204.17 1317.57)" fill="#C5C5C5"/>
<rect width="63.3043" height="63.3043" transform="translate(1204.17 811.13)" fill="#C5C5C5"/>
<rect width="63.3043" height="63.3043" transform="translate(1204.17 1254.26)" fill="#C5C5C5"/>
<rect width="63.3043" height="63.3043" transform="translate(1204.17 1190.96)" fill="#C5C5C5"/>
<rect width="63.3043" height="63.3043" transform="translate(1204.17 1127.65)" fill="#C5C5C5"/>
<rect width="63.3043" height="63.3043" transform="translate(1204.17 1064.35)" fill="#C5C5C5"/>
<rect width="63.3043" height="63.3043" transform="translate(1204.17 1001.04)" fill="#C5C5C5"/>
<rect width="63.3043" height="63.3043" transform="translate(1204.17 937.739)" fill="#C5C5C5"/>
<rect width="63.3043" height="63.3043" transform="translate(1204.17 874.435)" fill="#C5C5C5"/>
<rect width="63.3043" height="63.3043" transform="translate(1267.48 1254.26)" fill="#C5C5C5"/>
<rect width="63.3043" height="63.3043" transform="translate(1267.48 1127.65)" fill="#C5C5C5"/>
<rect width="63.3043" height="63.3043" transform="translate(1267.48 1001.04)" fill="#C5C5C5"/>
<rect width="63.3043" height="63.3043" transform="translate(1267.48 874.435)" fill="#C5C5C5"/>
<rect width="63.3043" height="63.3043" transform="translate(571.13 1317.57)" fill="#D4D4D4"/>
<rect width="63.3043" height="63.3043" transform="translate(1014.26 1380.87)" fill="#D4D4D4"/>
<rect width="63.3043" height="63.3043" transform="translate(887.652 1380.87)" fill="#D4D4D4"/>
<rect width="63.3043" height="63.3043" transform="translate(761.043 1380.87)" fill="#D4D4D4"/>
<rect width="63.3043" height="63.3043" transform="translate(634.435 1380.87)" fill="#D4D4D4"/>
<rect width="63.3043" height="63.3043" transform="translate(1014.26 1444.17)" fill="#C5C5C5"/>
<rect width="63.3043" height="63.3043" transform="translate(950.957 1444.17)" fill="#C5C5C5"/>
<rect width="63.3043" height="63.3043" transform="translate(887.652 1444.17)" fill="#C5C5C5"/>
<rect width="63.3043" height="63.3043" transform="translate(824.348 1444.17)" fill="#C5C5C5"/>
<rect width="63.3043" height="63.3043" transform="translate(761.043 1444.17)" fill="#C5C5C5"/>
<rect width="63.3043" height="63.3043" transform="translate(697.739 1444.17)" fill="#C5C5C5"/>
<rect width="63.3043" height="63.3043" transform="translate(634.435 1444.17)" fill="#C5C5C5"/>
<rect width="63.3043" height="63.3043" transform="translate(1077.57 1444.17)" fill="#C5C5C5"/>
<rect width="63.3043" height="63.3043" transform="translate(1140.87 1507.48)" fill="#C5C5C5"/>
<rect width="63.3043" height="63.3043" transform="translate(1140.87 1444.17)" fill="#C5C5C5"/>
<rect width="63.3043" height="63.3043" transform="translate(1204.17 1380.87)" fill="#C5C5C5"/>
<rect width="63.3043" height="63.3043" transform="translate(1267.48 1380.87)" fill="#C5C5C5"/>
<rect width="63.3043" height="63.3043" transform="translate(1204.17 1444.17)" fill="#C5C5C5"/>
<rect width="63.3043" height="63.3043" transform="translate(571.13 1444.17)" fill="#C5C5C5"/>
<rect width="63.3043" height="63.3043" transform="translate(1014.26 1507.48)" fill="#C5C5C5"/>
<rect width="63.3043" height="63.3043" transform="translate(887.652 1507.48)" fill="#C5C5C5"/>
<rect width="63.3043" height="63.3043" transform="translate(761.043 1507.48)" fill="#C5C5C5"/>
<rect width="63.3043" height="63.3043" transform="translate(634.435 1507.48)" fill="#C5C5C5"/>
<rect width="63.3043" height="63.3043" transform="translate(571.13 811.13)" fill="#D4D4D4"/>
<rect width="63.3043" height="63.3043" transform="translate(1014.26 811.13)" fill="#D4D4D4"/>
<rect width="63.3043" height="63.3043" transform="translate(887.652 811.13)" fill="#D4D4D4"/>
<rect width="63.3043" height="63.3043" transform="translate(761.043 811.13)" fill="#D4D4D4"/>
<rect width="63.3043" height="63.3043" transform="translate(634.435 811.13)" fill="#D4D4D4"/>
<rect width="63.3043" height="63.3043" transform="translate(1014.26 747.826)" fill="#D4D4D4"/>
<rect width="63.3043" height="63.3043" transform="translate(887.652 747.826)" fill="#D4D4D4"/>
<rect width="63.3043" height="63.3043" transform="translate(761.043 747.826)" fill="#D4D4D4"/>
<rect width="63.3043" height="63.3043" transform="translate(634.435 747.826)" fill="#D4D4D4"/>
<rect width="63.3043" height="63.3043" transform="translate(1077.57 684.522)" fill="#C5C5C5"/>
<rect width="63.3043" height="63.3043" transform="translate(950.957 684.522)" fill="#C5C5C5"/>
<rect width="63.3043" height="63.3043" transform="translate(824.348 684.522)" fill="#C5C5C5"/>
<rect width="63.3043" height="63.3043" transform="translate(697.739 684.522)" fill="#C5C5C5"/>
<rect width="63.3043" height="63.3043" transform="translate(571.13 684.522)" fill="#C5C5C5"/>
<rect width="63.3043" height="63.3043" transform="translate(1014.26 684.522)" fill="#C5C5C5"/>
<rect width="63.3043" height="63.3043" transform="translate(887.652 684.522)" fill="#C5C5C5"/>
<rect width="63.3043" height="63.3043" transform="translate(761.043 684.522)" fill="#C5C5C5"/>
<rect width="63.3043" height="63.3043" transform="translate(634.435 684.522)" fill="#C5C5C5"/>
<rect width="63.3043" height="63.3043" transform="translate(1014.26 621.217)" fill="#C5C5C5"/>
<rect width="63.3043" height="63.3043" transform="translate(887.652 621.217)" fill="#C5C5C5"/>
<rect width="63.3043" height="63.3043" transform="translate(761.043 621.217)" fill="#C5C5C5"/>
<rect width="63.3043" height="63.3043" transform="translate(634.435 621.217)" fill="#C5C5C5"/>
<rect width="63.3043" height="63.3043" transform="translate(571.13 1254.26)" fill="#D4D4D4"/>
<rect width="63.3043" height="63.3043" transform="translate(571.13 1190.96)" fill="#D4D4D4"/>
<rect width="63.3043" height="63.3043" transform="translate(571.13 1127.65)" fill="#D4D4D4"/>
<rect width="63.3043" height="63.3043" transform="translate(571.13 1064.35)" fill="#D4D4D4"/>
<rect width="63.3043" height="63.3043" transform="translate(571.13 1001.04)" fill="#D4D4D4"/>
<rect width="63.3043" height="63.3043" transform="translate(571.13 937.739)" fill="#D4D4D4"/>
<rect width="63.3043" height="63.3043" transform="translate(571.13 874.435)" fill="#D4D4D4"/>
<rect width="63.3043" height="63.3043" transform="translate(507.826 1254.26)" fill="#D4D4D4"/>
<rect width="63.3043" height="63.3043" transform="translate(507.826 1127.65)" fill="#D4D4D4"/>
<rect width="63.3043" height="63.3043" transform="translate(507.826 1001.04)" fill="#D4D4D4"/>
<rect width="63.3043" height="63.3043" transform="translate(507.826 874.435)" fill="#D4D4D4"/>
<rect width="63.3043" height="63.3043" transform="translate(444.522 1317.57)" fill="#C5C5C5"/>
<rect width="63.3043" height="63.3043" transform="translate(444.522 1380.87)" fill="#C5C5C5"/>
<rect width="63.3043" height="63.3043" transform="translate(444.522 1444.17)" fill="#C5C5C5"/>
<rect width="63.3043" height="63.3043" transform="translate(507.826 1444.17)" fill="#C5C5C5"/>
<rect width="63.3043" height="63.3043" transform="translate(381.217 1380.87)" fill="#C5C5C5"/>
<rect width="63.3043" height="63.3043" transform="translate(381.217 1507.48)" fill="#C5C5C5"/>
<rect width="63.3043" height="63.3043" transform="translate(507.826 1507.48)" fill="#C5C5C5"/>
<rect width="63.3043" height="63.3043" transform="translate(1267.48 1507.48)" fill="#C5C5C5"/>
<rect width="63.3043" height="63.3043" transform="translate(887.652 1570.78)" fill="#ADADAD"/>
<rect width="63.3043" height="63.3043" transform="translate(824.348 1570.78)" fill="#ADADAD"/>
<rect width="63.3043" height="63.3043" transform="translate(761.043 1570.78)" fill="#ADADAD"/>
<rect width="63.3043" height="63.3043" transform="translate(697.739 1570.78)" fill="#ADADAD"/>
<rect width="63.3043" height="63.3043" transform="translate(634.435 1570.78)" fill="#ADADAD"/>
<rect width="63.3043" height="63.3043" transform="translate(571.13 1570.78)" fill="#ADADAD"/>
<rect width="63.3043" height="63.3043" transform="translate(507.826 1570.78)" fill="#ADADAD"/>
<rect width="63.3043" height="63.3043" transform="translate(950.957 1570.78)" fill="#ADADAD"/>
<rect width="63.3043" height="63.3043" transform="translate(1014.26 1634.09)" fill="#ADADAD"/>
<rect width="63.3043" height="63.3043" transform="translate(1014.26 1570.78)" fill="#ADADAD"/>
<rect width="63.3043" height="63.3043" transform="translate(1077.57 1570.78)" fill="#ADADAD"/>
<rect width="63.3043" height="63.3043" transform="translate(444.522 1570.78)" fill="#ADADAD"/>
<rect width="63.3043" height="63.3043" transform="translate(887.652 1634.09)" fill="#ADADAD"/>
<rect width="63.3043" height="63.3043" transform="translate(761.043 1634.09)" fill="#ADADAD"/>
<rect width="63.3043" height="63.3043" transform="translate(634.435 1634.09)" fill="#ADADAD"/>
<rect width="63.3043" height="63.3043" transform="translate(507.826 1634.09)" fill="#ADADAD"/>
<rect width="63.3043" height="63.3043" transform="translate(317.913 1570.78)" fill="#ADADAD"/>
<rect width="63.3043" height="63.3043" transform="translate(381.217 1570.78)" fill="#ADADAD"/>
<rect width="63.3043" height="63.3043" transform="translate(254.609 1634.09)" fill="#ADADAD"/>
<rect width="63.3043" height="63.3043" transform="translate(381.217 1634.09)" fill="#ADADAD"/>
<rect width="63.3043" height="63.3043" transform="translate(1140.87 1634.09)" fill="#ADADAD"/>
<rect width="63.3043" height="63.3043" transform="translate(1140.87 1570.78)" fill="#ADADAD"/>
<rect width="63.3043" height="63.3043" transform="translate(1204.17 1570.78)" fill="#ADADAD"/>
<rect width="63.3043" height="63.3043" transform="translate(1267.48 1570.78)" fill="#ADADAD"/>
<rect width="63.3043" height="63.3043" transform="translate(1394.09 1634.09)" fill="#ADADAD"/>
<rect width="63.3043" height="63.3043" transform="translate(1394.09 1507.48)" fill="#ADADAD"/>
<rect width="63.3043" height="63.3043" transform="translate(317.913 1507.48)" fill="#ADADAD"/>
<rect width="63.3043" height="63.3043" transform="translate(317.913 1380.87)" fill="#ADADAD"/>
<rect width="63.3043" height="63.3043" transform="translate(381.217 557.913)" fill="#ADADAD"/>
<rect width="63.3043" height="63.3043" transform="translate(1267.48 557.913)" fill="#ADADAD"/>
<rect width="63.3043" height="63.3043" transform="translate(1330.78 1570.78)" fill="#ADADAD"/>
<rect width="63.3043" height="63.3043" transform="translate(1330.78 1507.48)" fill="#ADADAD"/>
<rect width="63.3043" height="63.3043" transform="translate(1330.78 1444.17)" fill="#ADADAD"/>
<rect width="63.3043" height="63.3043" transform="translate(1330.78 1380.87)" fill="#ADADAD"/>
<rect width="63.3043" height="63.3043" transform="translate(1267.48 1634.09)" fill="#ADADAD"/>
<rect width="63.3043" height="63.3043" transform="translate(444.522 747.826)" fill="#C5C5C5"/>
<rect width="63.3043" height="63.3043" transform="translate(507.826 684.522)" fill="#C5C5C5"/>
<rect width="63.3043" height="63.3043" transform="translate(444.522 684.522)" fill="#C5C5C5"/>
<rect width="63.3043" height="63.3043" transform="translate(381.217 747.826)" fill="#C5C5C5"/>
<rect width="63.3043" height="63.3043" transform="translate(381.217 621.217)" fill="#C5C5C5"/>
<rect width="63.3043" height="63.3043" transform="translate(507.826 621.217)" fill="#C5C5C5"/>
<rect width="63.3043" height="63.3043" transform="translate(1140.87 684.522)" fill="#C5C5C5"/>
<rect width="63.3043" height="63.3043" transform="translate(1204.17 747.826)" fill="#C5C5C5"/>
<rect width="63.3043" height="63.3043" transform="translate(1204.17 684.522)" fill="#C5C5C5"/>
<rect width="63.3043" height="63.3043" transform="translate(1267.48 747.826)" fill="#C5C5C5"/>
<rect width="63.3043" height="63.3043" transform="translate(1267.48 621.217)" fill="#C5C5C5"/>
<rect width="63.3043" height="63.3043" transform="translate(1330.78 1190.96)" fill="#ADADAD"/>
<rect width="63.3043" height="63.3043" transform="translate(1330.78 684.522)" fill="#ADADAD"/>
<rect width="63.3043" height="63.3043" transform="translate(1330.78 1127.65)" fill="#ADADAD"/>
<rect width="63.3043" height="63.3043" transform="translate(1330.78 1064.35)" fill="#ADADAD"/>
<rect width="63.3043" height="63.3043" transform="translate(1330.78 1001.04)" fill="#ADADAD"/>
<rect width="63.3043" height="63.3043" transform="translate(1330.78 937.739)" fill="#ADADAD"/>
<rect width="63.3043" height="63.3043" transform="translate(1330.78 874.435)" fill="#ADADAD"/>
<rect width="63.3043" height="63.3043" transform="translate(1330.78 811.13)" fill="#ADADAD"/>
<rect width="63.3043" height="63.3043" transform="translate(1330.78 747.826)" fill="#ADADAD"/>
<rect width="63.3043" height="63.3043" transform="translate(1394.09 1127.65)" fill="#ADADAD"/>
<rect width="63.3043" height="63.3043" transform="translate(1394.09 1001.04)" fill="#ADADAD"/>
<rect width="63.3043" height="63.3043" transform="translate(1394.09 874.435)" fill="#ADADAD"/>
<rect width="63.3043" height="63.3043" transform="translate(1394.09 747.826)" fill="#ADADAD"/>
<rect width="63.3043" height="63.3043" transform="translate(1330.78 1254.26)" fill="#ADADAD"/>
<rect width="63.3043" height="63.3043" transform="translate(1394.09 1254.26)" fill="#ADADAD"/>
<rect width="63.3043" height="63.3043" transform="translate(1330.78 1317.57)" fill="#ADADAD"/>
<rect width="63.3043" height="63.3043" transform="translate(1394.09 1380.87)" fill="#ADADAD"/>
<rect width="63.3043" height="63.3043" transform="translate(1330.78 621.217)" fill="#ADADAD"/>
<rect width="63.3043" height="63.3043" transform="translate(1330.78 557.913)" fill="#ADADAD"/>
<rect width="63.3043" height="63.3043" transform="translate(1394.09 621.217)" fill="#ADADAD"/>
<rect width="63.3043" height="63.3043" transform="translate(1394.09 494.609)" fill="#ADADAD"/>
<rect width="63.3043" height="63.3043" transform="translate(1140.87 621.217)" fill="#C5C5C5"/>
<rect width="63.3043" height="63.3043" transform="translate(1077.57 557.913)" fill="#ADADAD"/>
<rect width="63.3043" height="63.3043" transform="translate(950.957 557.913)" fill="#ADADAD"/>
<rect width="63.3043" height="63.3043" transform="translate(824.348 557.913)" fill="#ADADAD"/>
<rect width="63.3043" height="63.3043" transform="translate(697.739 557.913)" fill="#ADADAD"/>
<rect width="63.3043" height="63.3043" transform="translate(571.13 557.913)" fill="#ADADAD"/>
<rect width="63.3043" height="63.3043" transform="translate(1014.26 557.913)" fill="#ADADAD"/>
<rect width="63.3043" height="63.3043" transform="translate(887.652 557.913)" fill="#ADADAD"/>
<rect width="63.3043" height="63.3043" transform="translate(761.043 557.913)" fill="#ADADAD"/>
<rect width="63.3043" height="63.3043" transform="translate(634.435 557.913)" fill="#ADADAD"/>
<rect width="63.3043" height="63.3043" transform="translate(1014.26 494.609)" fill="#ADADAD"/>
<rect width="63.3043" height="63.3043" transform="translate(887.652 494.609)" fill="#ADADAD"/>
<rect width="63.3043" height="63.3043" transform="translate(761.043 494.609)" fill="#ADADAD"/>
<rect width="63.3043" height="63.3043" transform="translate(634.435 494.609)" fill="#ADADAD"/>
<rect width="63.3043" height="63.3043" transform="translate(507.826 557.913)" fill="#ADADAD"/>
<rect width="63.3043" height="63.3043" transform="translate(444.522 557.913)" fill="#ADADAD"/>
<rect width="63.3043" height="63.3043" transform="translate(381.217 494.609)" fill="#ADADAD"/>
<rect width="63.3043" height="63.3043" transform="translate(507.826 494.609)" fill="#ADADAD"/>
<rect width="63.3043" height="63.3043" transform="translate(1140.87 557.913)" fill="#ADADAD"/>
<rect width="63.3043" height="63.3043" transform="translate(1204.17 557.913)" fill="#ADADAD"/>
<rect width="63.3043" height="63.3043" transform="translate(1140.87 494.609)" fill="#ADADAD"/>
<rect width="63.3043" height="63.3043" transform="translate(1267.48 494.609)" fill="#ADADAD"/>
<rect width="63.3043" height="63.3043" transform="translate(444.522 1317.57)" fill="#C5C5C5"/>
<rect width="63.3043" height="63.3043" transform="translate(444.522 811.13)" fill="#C5C5C5"/>
<rect width="63.3043" height="63.3043" transform="translate(444.522 1254.26)" fill="#C5C5C5"/>
<rect width="63.3043" height="63.3043" transform="translate(444.522 1190.96)" fill="#C5C5C5"/>
<rect width="63.3043" height="63.3043" transform="translate(444.522 1127.65)" fill="#C5C5C5"/>
<rect width="63.3043" height="63.3043" transform="translate(444.522 1064.35)" fill="#C5C5C5"/>
<rect width="63.3043" height="63.3043" transform="translate(444.522 1001.04)" fill="#C5C5C5"/>
<rect width="63.3043" height="63.3043" transform="translate(444.522 937.739)" fill="#C5C5C5"/>
<rect width="63.3043" height="63.3043" transform="translate(444.522 874.435)" fill="#C5C5C5"/>
<rect width="63.3043" height="63.3043" transform="translate(381.217 1254.26)" fill="#C5C5C5"/>
<rect width="63.3043" height="63.3043" transform="translate(381.217 1127.65)" fill="#C5C5C5"/>
<rect width="63.3043" height="63.3043" transform="translate(381.217 1001.04)" fill="#C5C5C5"/>
<rect width="63.3043" height="63.3043" transform="translate(381.217 874.435)" fill="#C5C5C5"/>
<rect width="63.3043" height="63.3043" transform="translate(317.913 1190.96)" fill="#ADADAD"/>
<rect width="63.3043" height="63.3043" transform="translate(317.913 1254.26)" fill="#ADADAD"/>
<rect width="63.3043" height="63.3043" transform="translate(317.913 1317.57)" fill="#ADADAD"/>
<rect width="63.3043" height="63.3043" transform="translate(254.609 1254.26)" fill="#ADADAD"/>
<rect width="63.3043" height="63.3043" transform="translate(254.609 1380.87)" fill="#ADADAD"/>
<rect width="63.3043" height="63.3043" transform="translate(317.913 1444.17)" fill="#ADADAD"/>
<rect width="63.3043" height="63.3043" transform="translate(254.609 1507.48)" fill="#ADADAD"/>
<rect width="63.3043" height="63.3043" transform="translate(317.913 621.217)" fill="#ADADAD"/>
<rect width="63.3043" height="63.3043" transform="translate(317.913 557.913)" fill="#ADADAD"/>
<rect width="63.3043" height="63.3043" transform="translate(254.609 621.217)" fill="#ADADAD"/>
<rect width="63.3043" height="63.3043" transform="translate(254.609 494.609)" fill="#ADADAD"/>
<rect width="63.3043" height="63.3043" transform="translate(317.913 1190.96)" fill="#ADADAD"/>
<rect width="63.3043" height="63.3043" transform="translate(317.913 684.522)" fill="#ADADAD"/>
<rect width="63.3043" height="63.3043" transform="translate(317.913 1127.65)" fill="#ADADAD"/>
<rect width="63.3043" height="63.3043" transform="translate(317.913 1064.35)" fill="#ADADAD"/>
<rect width="63.3043" height="63.3043" transform="translate(317.913 1001.04)" fill="#ADADAD"/>
<rect width="63.3043" height="63.3043" transform="translate(317.913 937.739)" fill="#ADADAD"/>
<rect width="63.3043" height="63.3043" transform="translate(317.913 874.435)" fill="#ADADAD"/>
<rect width="63.3043" height="63.3043" transform="translate(317.913 811.13)" fill="#ADADAD"/>
<rect width="63.3043" height="63.3043" transform="translate(317.913 747.826)" fill="#ADADAD"/>
<rect width="63.3043" height="63.3043" transform="translate(254.609 1127.65)" fill="#ADADAD"/>
<rect width="63.3043" height="63.3043" transform="translate(254.609 1001.04)" fill="#ADADAD"/>
<rect width="63.3043" height="63.3043" transform="translate(254.609 874.435)" fill="#ADADAD"/>
<rect width="63.3043" height="63.3043" transform="translate(254.609 747.826)" fill="#ADADAD"/>
<rect width="63.3043" height="63.3043" transform="translate(191.304 1570.78)" fill="#929292"/>
<rect width="63.3043" height="63.3043" transform="translate(191.304 1634.09)" fill="#929292"/>
<rect width="63.3043" height="63.3043" transform="translate(128 1634.09)" fill="#929292"/>
<rect width="63.3043" height="63.3043" transform="translate(191.304 1507.48)" fill="#929292"/>
<rect width="63.3043" height="63.3043" transform="translate(191.304 1380.87)" fill="#929292"/>
<rect width="63.3043" height="63.3043" transform="translate(191.304 1190.96)" fill="#929292"/>
<rect width="63.3043" height="63.3043" transform="translate(191.304 1254.26)" fill="#929292"/>
<rect width="63.3043" height="63.3043" transform="translate(191.304 1317.57)" fill="#929292"/>
<rect width="63.3043" height="63.3043" transform="translate(128 1254.26)" fill="#929292"/>
<rect width="63.3043" height="63.3043" transform="translate(128 1380.87)" fill="#929292"/>
<rect width="63.3043" height="63.3043" transform="translate(191.304 1444.17)" fill="#929292"/>
<rect width="63.3043" height="63.3043" transform="translate(128 1507.48)" fill="#929292"/>
<rect width="63.3043" height="63.3043" transform="translate(191.304 621.217)" fill="#929292"/>
<rect width="63.3043" height="63.3043" transform="translate(191.304 557.913)" fill="#929292"/>
<rect width="63.3043" height="63.3043" transform="translate(128 621.217)" fill="#929292"/>
<rect width="63.3043" height="63.3043" transform="translate(128 494.609)" fill="#929292"/>
<rect width="63.3043" height="63.3043" transform="translate(191.304 1190.96)" fill="#929292"/>
<rect width="63.3043" height="63.3043" transform="translate(191.304 684.522)" fill="#929292"/>
<rect width="63.3043" height="63.3043" transform="translate(191.304 1127.65)" fill="#929292"/>
<rect width="63.3043" height="63.3043" transform="translate(191.304 1064.35)" fill="#929292"/>
<rect width="63.3043" height="63.3043" transform="translate(191.304 1001.04)" fill="#929292"/>
<rect width="63.3043" height="63.3043" transform="translate(191.304 937.739)" fill="#929292"/>
<rect width="63.3043" height="63.3043" transform="translate(191.304 874.435)" fill="#929292"/>
<rect width="63.3043" height="63.3043" transform="translate(191.304 811.13)" fill="#929292"/>
<rect width="63.3043" height="63.3043" transform="translate(191.304 747.826)" fill="#929292"/>
<rect width="63.3043" height="63.3043" transform="translate(128 1127.65)" fill="#929292"/>
<rect width="63.3043" height="63.3043" transform="translate(128 1001.04)" fill="#929292"/>
<rect width="63.3043" height="63.3043" transform="translate(128 874.435)" fill="#929292"/>
<rect width="63.3043" height="63.3043" transform="translate(128 747.826)" fill="#929292"/>
<rect width="63.3043" height="63.3043" transform="translate(1204.17 1760.7) rotate(-90)" fill="#929292"/>
<rect width="63.3043" height="63.3043" transform="translate(1267.48 1824) rotate(-90)" fill="#929292"/>
<rect width="63.3043" height="63.3043" transform="translate(1140.87 1760.7) rotate(-90)" fill="#929292"/>
<rect width="63.3043" height="63.3043" transform="translate(1014.26 1760.7) rotate(-90)" fill="#929292"/>
<rect width="63.3043" height="63.3043" transform="translate(824.348 1760.7) rotate(-90)" fill="#929292"/>
<rect width="63.3043" height="63.3043" transform="translate(887.652 1760.7) rotate(-90)" fill="#929292"/>
<rect width="63.3043" height="63.3043" transform="translate(950.957 1760.7) rotate(-90)" fill="#929292"/>
<rect width="63.3043" height="63.3043" transform="translate(887.652 1824) rotate(-90)" fill="#929292"/>
<rect width="63.3043" height="63.3043" transform="translate(1014.26 1824) rotate(-90)" fill="#929292"/>
<rect width="63.3043" height="63.3043" transform="translate(1077.57 1760.7) rotate(-90)" fill="#929292"/>
<rect width="63.3043" height="63.3043" transform="translate(1140.87 1824) rotate(-90)" fill="#929292"/>
<rect width="63.3043" height="63.3043" transform="translate(254.609 1760.7) rotate(-90)" fill="#929292"/>
<rect width="63.3043" height="63.3043" transform="translate(191.304 1760.7) rotate(-90)" fill="#929292"/>
<rect width="63.3043" height="63.3043" transform="translate(254.609 1824) rotate(-90)" fill="#929292"/>
<rect width="63.3043" height="63.3043" transform="translate(128 1824) rotate(-90)" fill="#929292"/>
<rect width="63.3043" height="63.3043" transform="translate(381.217 431.304) rotate(90)" fill="#929292"/>
<rect width="63.3043" height="63.3043" transform="translate(317.913 431.304) rotate(90)" fill="#929292"/>
<rect width="63.3043" height="63.3043" transform="translate(317.913 368) rotate(90)" fill="#929292"/>
<rect width="63.3043" height="63.3043" transform="translate(444.522 431.304) rotate(90)" fill="#929292"/>
<rect width="63.3043" height="63.3043" transform="translate(571.13 431.304) rotate(90)" fill="#929292"/>
<rect width="63.3043" height="63.3043" transform="translate(761.043 431.304) rotate(90)" fill="#929292"/>
<rect width="63.3043" height="63.3043" transform="translate(697.739 431.304) rotate(90)" fill="#929292"/>
<rect width="63.3043" height="63.3043" transform="translate(634.435 431.304) rotate(90)" fill="#929292"/>
<rect width="63.3043" height="63.3043" transform="translate(697.739 368) rotate(90)" fill="#929292"/>
<rect width="63.3043" height="63.3043" transform="translate(571.13 368) rotate(90)" fill="#929292"/>
<rect width="63.3043" height="63.3043" transform="translate(507.826 431.304) rotate(90)" fill="#929292"/>
<rect width="63.3043" height="63.3043" transform="translate(444.522 368) rotate(90)" fill="#929292"/>
<rect width="63.3043" height="63.3043" transform="translate(1330.78 431.304) rotate(90)" fill="#929292"/>
<rect width="63.3043" height="63.3043" transform="translate(1394.09 431.304) rotate(90)" fill="#929292"/>
<rect width="63.3043" height="63.3043" transform="translate(1330.78 368) rotate(90)" fill="#929292"/>
<rect width="63.3043" height="63.3043" transform="translate(1457.39 368) rotate(90)" fill="#929292"/>
<rect width="63.3043" height="63.3043" transform="translate(1457.39 431.304) rotate(90)" fill="#929292"/>
<rect width="63.3043" height="63.3043" transform="translate(1330.78 1697.39) rotate(90)" fill="#929292"/>
<rect width="63.3043" height="63.3043" transform="translate(1394.09 1697.39) rotate(90)" fill="#929292"/>
<rect width="63.3043" height="63.3043" transform="translate(1457.39 1697.39) rotate(90)" fill="#929292"/>
<rect width="63.3043" height="63.3043" transform="translate(1520.7 1697.39) rotate(90)" fill="#929292"/>
<rect width="63.3043" height="63.3043" transform="translate(1457.39 1760.7) rotate(90)" fill="#929292"/>
<rect width="63.3043" height="63.3043" transform="translate(1584 1760.7) rotate(90)" fill="#929292"/>
<rect width="63.3043" height="63.3043" transform="translate(1520.7 1634.09) rotate(90)" fill="#929292"/>
<rect width="63.3043" height="63.3043" transform="translate(761.043 431.304) rotate(90)" fill="#929292"/>
<rect width="63.3043" height="63.3043" transform="translate(1267.48 431.304) rotate(90)" fill="#929292"/>
<rect width="63.3043" height="63.3043" transform="translate(824.348 431.304) rotate(90)" fill="#929292"/>
<rect width="63.3043" height="63.3043" transform="translate(887.652 431.304) rotate(90)" fill="#929292"/>
<rect width="63.3043" height="63.3043" transform="translate(950.957 431.304) rotate(90)" fill="#929292"/>
<rect width="63.3043" height="63.3043" transform="translate(1014.26 431.304) rotate(90)" fill="#929292"/>
<rect width="63.3043" height="63.3043" transform="translate(1077.57 431.304) rotate(90)" fill="#929292"/>
<rect width="63.3043" height="63.3043" transform="translate(1140.87 431.304) rotate(90)" fill="#929292"/>
<rect width="63.3043" height="63.3043" transform="translate(1204.17 431.304) rotate(90)" fill="#929292"/>
<rect width="63.3043" height="63.3043" transform="translate(824.348 368) rotate(90)" fill="#929292"/>
<rect width="63.3043" height="63.3043" transform="translate(950.957 368) rotate(90)" fill="#929292"/>
<rect width="63.3043" height="63.3043" transform="translate(1077.57 368) rotate(90)" fill="#929292"/>
<rect width="63.3043" height="63.3043" transform="translate(1204.17 368) rotate(90)" fill="#929292"/>
<rect width="63.3043" height="63.3043" transform="translate(191.304 431.304)" fill="#929292"/>
<rect width="63.3043" height="63.3043" transform="translate(191.304 494.609)" fill="#929292"/>
<rect width="63.3043" height="63.3043" transform="translate(128 368)" fill="#929292"/>
<rect width="63.3043" height="63.3043" transform="translate(1520.7 621.217) rotate(-180)" fill="#929292"/>
<rect width="63.3043" height="63.3043" transform="translate(1520.7 557.913) rotate(-180)" fill="#929292"/>
<rect width="63.3043" height="63.3043" transform="translate(1584 557.913) rotate(-180)" fill="#929292"/>
<rect width="63.3043" height="63.3043" transform="translate(1520.7 684.522) rotate(-180)" fill="#929292"/>
<rect width="63.3043" height="63.3043" transform="translate(1520.7 811.13) rotate(-180)" fill="#929292"/>
<rect width="63.3043" height="63.3043" transform="translate(1520.7 1001.04) rotate(-180)" fill="#929292"/>
<rect width="63.3043" height="63.3043" transform="translate(1520.7 937.739) rotate(-180)" fill="#929292"/>
<rect width="63.3043" height="63.3043" transform="translate(1520.7 874.435) rotate(-180)" fill="#929292"/>
<rect width="63.3043" height="63.3043" transform="translate(1584 937.739) rotate(-180)" fill="#929292"/>
<rect width="63.3043" height="63.3043" transform="translate(1584 811.13) rotate(-180)" fill="#929292"/>
<rect width="63.3043" height="63.3043" transform="translate(1520.7 747.826) rotate(-180)" fill="#929292"/>
<rect width="63.3043" height="63.3043" transform="translate(1584 684.522) rotate(-180)" fill="#929292"/>
<rect width="63.3043" height="63.3043" transform="translate(1520.7 1570.78) rotate(-180)" fill="#929292"/>
<rect width="63.3043" height="63.3043" transform="translate(1520.7 1634.09) rotate(-180)" fill="#929292"/>
<rect width="63.3043" height="63.3043" transform="translate(1584 1570.78) rotate(-180)" fill="#929292"/>
<rect width="63.3043" height="63.3043" transform="translate(1584 1697.39) rotate(-180)" fill="#929292"/>
<rect width="63.3043" height="63.3043" transform="translate(1520.7 1001.04) rotate(-180)" fill="#929292"/>
<rect width="63.3043" height="63.3043" transform="translate(1520.7 1507.48) rotate(-180)" fill="#929292"/>
<rect width="63.3043" height="63.3043" transform="translate(1520.7 1064.35) rotate(-180)" fill="#929292"/>
<rect width="63.3043" height="63.3043" transform="translate(1520.7 1127.65) rotate(-180)" fill="#929292"/>
<rect width="63.3043" height="63.3043" transform="translate(1520.7 1190.96) rotate(-180)" fill="#929292"/>
<rect width="63.3043" height="63.3043" transform="translate(1520.7 1254.26) rotate(-180)" fill="#929292"/>
<rect width="63.3043" height="63.3043" transform="translate(1520.7 1317.57) rotate(-180)" fill="#929292"/>
<rect width="63.3043" height="63.3043" transform="translate(1520.7 1380.87) rotate(-180)" fill="#929292"/>
<rect width="63.3043" height="63.3043" transform="translate(1520.7 1444.17) rotate(-180)" fill="#929292"/>
<rect width="63.3043" height="63.3043" transform="translate(1584 1064.35) rotate(-180)" fill="#929292"/>
<rect width="63.3043" height="63.3043" transform="translate(1584 1190.96) rotate(-180)" fill="#929292"/>
<rect width="63.3043" height="63.3043" transform="translate(1584 1317.57) rotate(-180)" fill="#929292"/>
<rect width="63.3043" height="63.3043" transform="translate(1584 1444.17) rotate(-180)" fill="#929292"/>
<rect width="63.3043" height="63.3043" transform="translate(1520.7 431.304) rotate(90)" fill="#929292"/>
<rect width="63.3043" height="63.3043" transform="translate(1584 368) rotate(90)" fill="#929292"/>
<rect width="63.3043" height="63.3043" transform="translate(824.348 1760.7) rotate(-90)" fill="#929292"/>
<rect width="63.3043" height="63.3043" transform="translate(317.913 1760.7) rotate(-90)" fill="#929292"/>
<rect width="63.3043" height="63.3043" transform="translate(761.043 1760.7) rotate(-90)" fill="#929292"/>
<rect width="63.3043" height="63.3043" transform="translate(697.739 1760.7) rotate(-90)" fill="#929292"/>
<rect width="63.3043" height="63.3043" transform="translate(634.435 1760.7) rotate(-90)" fill="#929292"/>
<rect width="63.3043" height="63.3043" transform="translate(571.13 1760.7) rotate(-90)" fill="#929292"/>
<rect width="63.3043" height="63.3043" transform="translate(507.826 1760.7) rotate(-90)" fill="#929292"/>
<rect width="63.3043" height="63.3043" transform="translate(444.522 1760.7) rotate(-90)" fill="#929292"/>
<rect width="63.3043" height="63.3043" transform="translate(381.217 1760.7) rotate(-90)" fill="#929292"/>
<rect width="63.3043" height="63.3043" transform="translate(761.043 1824) rotate(-90)" fill="#929292"/>
<rect width="63.3043" height="63.3043" transform="translate(634.435 1824) rotate(-90)" fill="#929292"/>
<rect width="63.3043" height="63.3043" transform="translate(507.826 1824) rotate(-90)" fill="#929292"/>
<rect width="63.3043" height="63.3043" transform="translate(381.217 1824) rotate(-90)" fill="#929292"/>
<rect width="63.3043" height="63.3043" transform="translate(1014.26 1127.65)" fill="#DEDEDE"/>
<rect width="63.3043" height="63.3043" transform="translate(1014.26 1001.04)" fill="#DEDEDE"/>
<rect width="63.3043" height="63.3043" transform="translate(1014.26 874.435)" fill="#DEDEDE"/>
<rect width="63.3043" height="63.3043" transform="translate(887.652 874.435)" fill="#DEDEDE"/>
<rect width="63.3043" height="63.3043" transform="translate(761.043 874.435)" fill="#DEDEDE"/>
<rect width="63.3043" height="63.3043" transform="translate(634.435 874.435)" fill="#DEDEDE"/>
<rect width="63.3043" height="63.3043" transform="translate(634.435 1001.04)" fill="#DEDEDE"/>
<rect width="63.3043" height="63.3043" transform="translate(634.435 1127.65)" fill="#DEDEDE"/>
<rect width="63.3043" height="63.3043" transform="translate(634.435 1254.26)" fill="#DEDEDE"/>
<rect width="63.3043" height="63.3043" transform="translate(761.043 1254.26)" fill="#DEDEDE"/>
<rect width="63.3043" height="63.3043" transform="translate(887.652 1254.26)" fill="#DEDEDE"/>
<rect width="63.3043" height="63.3043" transform="translate(887.652 1064.35)" fill="#EEEEEE"/>
<rect width="63.3043" height="63.3043" transform="translate(887.652 1001.04)" fill="#EEEEEE"/>
<rect width="63.3043" height="63.3043" transform="translate(824.348 1001.04)" fill="#EEEEEE"/>
<rect width="63.3043" height="63.3043" transform="translate(761.043 1001.04)" fill="#EEEEEE"/>
<rect width="63.3043" height="63.3043" transform="translate(761.043 1064.35)" fill="#EEEEEE"/>
<rect width="63.3043" height="63.3043" transform="translate(761.043 1127.65)" fill="#EEEEEE"/>
</g>
<path fill-rule="evenodd" clip-rule="evenodd" d="M0 250C0 111.929 111.929 0 250 0H1670C1808.07 0 1920 111.929 1920 250V2934C1920 3072.07 1808.07 3184 1670 3184H250C111.929 3184 0 3072.07 0 2934V250ZM104 344H1808V2712H104V344ZM960 3090C1039.53 3090 1104 3025.53 1104 2946C1104 2866.47 1039.53 2802 960 2802C880.471 2802 816 2866.47 816 2946C816 3025.53 880.471 3090 960 3090Z" fill="black"/>
</svg>
