<svg width="2160" height="3936" viewBox="0 0 2160 3936" fill="none" xmlns="http://www.w3.org/2000/svg">
<g opacity="0.3">
<rect width="44.5652" height="44.5652" transform="translate(545.217 597.782)" fill="#EEEEEE"/>
<rect width="44.5652" height="44.5652" transform="translate(589.783 597.782)" fill="#EEEEEE"/>
<rect width="44.5652" height="44.5652" transform="translate(589.783 642.348)" fill="#DEDEDE"/>
<rect width="44.5652" height="44.5652" transform="translate(545.217 642.348)" fill="#DEDEDE"/>
<rect width="44.5652" height="44.5652" transform="translate(500.652 642.348)" fill="#DEDEDE"/>
<rect width="44.5652" height="44.5652" transform="translate(456.087 642.348)" fill="#DEDEDE"/>
<rect width="44.5652" height="44.5652" transform="translate(456.087 597.782)" fill="#DEDEDE"/>
<rect width="44.5652" height="44.5652" transform="translate(456.087 553.218)" fill="#DEDEDE"/>
<rect width="44.5652" height="44.5652" transform="translate(456.087 508.652)" fill="#DEDEDE"/>
<rect width="44.5652" height="44.5652" transform="translate(456.087 464.087)" fill="#DEDEDE"/>
<rect width="44.5652" height="44.5652" transform="translate(500.652 464.087)" fill="#DEDEDE"/>
<rect width="44.5652" height="44.5652" transform="translate(545.217 464.087)" fill="#DEDEDE"/>
<rect width="44.5652" height="44.5652" transform="translate(589.783 464.087)" fill="#DEDEDE"/>
<rect width="44.5652" height="44.5652" transform="translate(634.348 464.087)" fill="#DEDEDE"/>
<rect width="44.5652" height="44.5652" transform="translate(634.348 508.652)" fill="#DEDEDE"/>
<rect width="44.5652" height="44.5652" transform="translate(634.348 553.218)" fill="#DEDEDE"/>
<rect width="44.5652" height="44.5652" transform="translate(634.348 597.782)" fill="#DEDEDE"/>
<rect width="44.5652" height="44.5652" transform="translate(634.348 642.348)" fill="#DEDEDE"/>
<rect width="44.5652" height="44.5652" transform="translate(678.913 686.913)" fill="#DEDEDE"/>
<rect width="44.5652" height="44.5652" transform="translate(678.913 731.478)" fill="#D4D4D4"/>
<rect width="44.5652" height="44.5652" transform="translate(634.348 731.478)" fill="#D4D4D4"/>
<rect width="44.5652" height="44.5652" transform="translate(589.783 731.478)" fill="#D4D4D4"/>
<rect width="44.5652" height="44.5652" transform="translate(545.217 731.478)" fill="#D4D4D4"/>
<rect width="44.5652" height="44.5652" transform="translate(500.652 731.478)" fill="#D4D4D4"/>
<rect width="44.5652" height="44.5652" transform="translate(456.087 731.478)" fill="#D4D4D4"/>
<rect width="44.5652" height="44.5652" transform="translate(411.521 731.478)" fill="#D4D4D4"/>
<rect width="44.5652" height="44.5652" transform="translate(723.479 731.478)" fill="#D4D4D4"/>
<rect width="44.5652" height="44.5652" transform="translate(723.479 374.957)" fill="#D4D4D4"/>
<rect width="44.5652" height="44.5652" transform="translate(634.348 374.957)" fill="#D4D4D4"/>
<rect width="44.5652" height="44.5652" transform="translate(545.217 374.957)" fill="#D4D4D4"/>
<rect width="44.5652" height="44.5652" transform="translate(456.087 374.957)" fill="#D4D4D4"/>
<rect width="44.5652" height="44.5652" transform="translate(723.479 686.913)" fill="#D4D4D4"/>
<rect width="44.5652" height="44.5652" transform="translate(723.479 642.348)" fill="#D4D4D4"/>
<rect width="44.5652" height="44.5652" transform="translate(723.479 597.782)" fill="#D4D4D4"/>
<rect width="44.5652" height="44.5652" transform="translate(723.479 553.218)" fill="#D4D4D4"/>
<rect width="44.5652" height="44.5652" transform="translate(723.479 508.652)" fill="#D4D4D4"/>
<rect width="44.5652" height="44.5652" transform="translate(723.479 464.087)" fill="#D4D4D4"/>
<rect width="44.5652" height="44.5652" transform="translate(723.479 419.522)" fill="#D4D4D4"/>
<rect width="44.5652" height="44.5652" transform="translate(768.043 686.913)" fill="#D4D4D4"/>
<rect width="44.5652" height="44.5652" transform="translate(768.043 597.782)" fill="#D4D4D4"/>
<rect width="44.5652" height="44.5652" transform="translate(768.043 508.652)" fill="#D4D4D4"/>
<rect width="44.5652" height="44.5652" transform="translate(768.043 419.522)" fill="#D4D4D4"/>
<rect width="44.5652" height="44.5652" transform="translate(812.608 731.478)" fill="#C5C5C5"/>
<rect width="44.5652" height="44.5652" transform="translate(812.608 374.957)" fill="#C5C5C5"/>
<rect width="44.5652" height="44.5652" transform="translate(812.608 686.913)" fill="#C5C5C5"/>
<rect width="44.5652" height="44.5652" transform="translate(812.608 642.348)" fill="#C5C5C5"/>
<rect width="44.5652" height="44.5652" transform="translate(812.608 597.782)" fill="#C5C5C5"/>
<rect width="44.5652" height="44.5652" transform="translate(812.608 553.218)" fill="#C5C5C5"/>
<rect width="44.5652" height="44.5652" transform="translate(812.608 508.652)" fill="#C5C5C5"/>
<rect width="44.5652" height="44.5652" transform="translate(812.608 464.087)" fill="#C5C5C5"/>
<rect width="44.5652" height="44.5652" transform="translate(812.608 419.522)" fill="#C5C5C5"/>
<rect width="44.5652" height="44.5652" transform="translate(857.174 686.913)" fill="#C5C5C5"/>
<rect width="44.5652" height="44.5652" transform="translate(857.174 597.782)" fill="#C5C5C5"/>
<rect width="44.5652" height="44.5652" transform="translate(857.174 508.652)" fill="#C5C5C5"/>
<rect width="44.5652" height="44.5652" transform="translate(857.174 419.522)" fill="#C5C5C5"/>
<rect width="44.5652" height="44.5652" transform="translate(366.957 731.478)" fill="#D4D4D4"/>
<rect width="44.5652" height="44.5652" transform="translate(678.913 776.043)" fill="#D4D4D4"/>
<rect width="44.5652" height="44.5652" transform="translate(589.783 776.043)" fill="#D4D4D4"/>
<rect width="44.5652" height="44.5652" transform="translate(500.652 776.043)" fill="#D4D4D4"/>
<rect width="44.5652" height="44.5652" transform="translate(411.521 776.043)" fill="#D4D4D4"/>
<rect width="44.5652" height="44.5652" transform="translate(678.913 820.609)" fill="#C5C5C5"/>
<rect width="44.5652" height="44.5652" transform="translate(634.348 820.609)" fill="#C5C5C5"/>
<rect width="44.5652" height="44.5652" transform="translate(589.783 820.609)" fill="#C5C5C5"/>
<rect width="44.5652" height="44.5652" transform="translate(545.217 820.609)" fill="#C5C5C5"/>
<rect width="44.5652" height="44.5652" transform="translate(500.652 820.609)" fill="#C5C5C5"/>
<rect width="44.5652" height="44.5652" transform="translate(456.087 820.609)" fill="#C5C5C5"/>
<rect width="44.5652" height="44.5652" transform="translate(411.521 820.609)" fill="#C5C5C5"/>
<rect width="44.5652" height="44.5652" transform="translate(723.479 820.609)" fill="#C5C5C5"/>
<rect width="44.5652" height="44.5652" transform="translate(768.043 865.174)" fill="#C5C5C5"/>
<rect width="44.5652" height="44.5652" transform="translate(768.043 820.609)" fill="#C5C5C5"/>
<rect width="44.5652" height="44.5652" transform="translate(812.608 776.043)" fill="#C5C5C5"/>
<rect width="44.5652" height="44.5652" transform="translate(857.174 776.043)" fill="#C5C5C5"/>
<rect width="44.5652" height="44.5652" transform="translate(812.608 820.609)" fill="#C5C5C5"/>
<rect width="44.5652" height="44.5652" transform="translate(366.957 820.609)" fill="#C5C5C5"/>
<rect width="44.5652" height="44.5652" transform="translate(678.913 865.174)" fill="#C5C5C5"/>
<rect width="44.5652" height="44.5652" transform="translate(589.783 865.174)" fill="#C5C5C5"/>
<rect width="44.5652" height="44.5652" transform="translate(500.652 865.174)" fill="#C5C5C5"/>
<rect width="44.5652" height="44.5652" transform="translate(411.521 865.174)" fill="#C5C5C5"/>
<rect width="44.5652" height="44.5652" transform="translate(366.957 374.957)" fill="#D4D4D4"/>
<rect width="44.5652" height="44.5652" transform="translate(678.913 374.957)" fill="#D4D4D4"/>
<rect width="44.5652" height="44.5652" transform="translate(589.783 374.957)" fill="#D4D4D4"/>
<rect width="44.5652" height="44.5652" transform="translate(500.652 374.957)" fill="#D4D4D4"/>
<rect width="44.5652" height="44.5652" transform="translate(411.521 374.957)" fill="#D4D4D4"/>
<rect width="44.5652" height="44.5652" transform="translate(678.913 330.391)" fill="#D4D4D4"/>
<rect width="44.5652" height="44.5652" transform="translate(589.783 330.391)" fill="#D4D4D4"/>
<rect width="44.5652" height="44.5652" transform="translate(500.652 330.391)" fill="#D4D4D4"/>
<rect width="44.5652" height="44.5652" transform="translate(411.521 330.391)" fill="#D4D4D4"/>
<rect width="44.5652" height="44.5652" transform="translate(723.479 285.826)" fill="#C5C5C5"/>
<rect width="44.5652" height="44.5652" transform="translate(634.348 285.826)" fill="#C5C5C5"/>
<rect width="44.5652" height="44.5652" transform="translate(545.217 285.826)" fill="#C5C5C5"/>
<rect width="44.5652" height="44.5652" transform="translate(456.087 285.826)" fill="#C5C5C5"/>
<rect width="44.5652" height="44.5652" transform="translate(366.957 285.826)" fill="#C5C5C5"/>
<rect width="44.5652" height="44.5652" transform="translate(678.913 285.826)" fill="#C5C5C5"/>
<rect width="44.5652" height="44.5652" transform="translate(589.783 285.826)" fill="#C5C5C5"/>
<rect width="44.5652" height="44.5652" transform="translate(500.652 285.826)" fill="#C5C5C5"/>
<rect width="44.5652" height="44.5652" transform="translate(411.521 285.826)" fill="#C5C5C5"/>
<rect width="44.5652" height="44.5652" transform="translate(678.913 241.261)" fill="#C5C5C5"/>
<rect width="44.5652" height="44.5652" transform="translate(589.783 241.261)" fill="#C5C5C5"/>
<rect width="44.5652" height="44.5652" transform="translate(500.652 241.261)" fill="#C5C5C5"/>
<rect width="44.5652" height="44.5652" transform="translate(411.521 241.261)" fill="#C5C5C5"/>
<rect width="44.5652" height="44.5652" transform="translate(366.957 686.913)" fill="#D4D4D4"/>
<rect width="44.5652" height="44.5652" transform="translate(366.957 642.348)" fill="#D4D4D4"/>
<rect width="44.5652" height="44.5652" transform="translate(366.957 597.782)" fill="#D4D4D4"/>
<rect width="44.5652" height="44.5652" transform="translate(366.957 553.218)" fill="#D4D4D4"/>
<rect width="44.5652" height="44.5652" transform="translate(366.957 508.652)" fill="#D4D4D4"/>
<rect width="44.5652" height="44.5652" transform="translate(366.957 464.087)" fill="#D4D4D4"/>
<rect width="44.5652" height="44.5652" transform="translate(366.957 419.522)" fill="#D4D4D4"/>
<rect width="44.5652" height="44.5652" transform="translate(322.392 686.913)" fill="#D4D4D4"/>
<rect width="44.5652" height="44.5652" transform="translate(322.392 597.782)" fill="#D4D4D4"/>
<rect width="44.5652" height="44.5652" transform="translate(322.392 508.652)" fill="#D4D4D4"/>
<rect width="44.5652" height="44.5652" transform="translate(322.392 419.522)" fill="#D4D4D4"/>
<rect width="44.5652" height="44.5652" transform="translate(277.826 731.478)" fill="#C5C5C5"/>
<rect width="44.5652" height="44.5652" transform="translate(277.826 776.043)" fill="#C5C5C5"/>
<rect width="44.5652" height="44.5652" transform="translate(277.826 820.609)" fill="#C5C5C5"/>
<rect width="44.5652" height="44.5652" transform="translate(322.392 820.609)" fill="#C5C5C5"/>
<rect width="44.5652" height="44.5652" transform="translate(233.261 776.043)" fill="#C5C5C5"/>
<rect width="44.5652" height="44.5652" transform="translate(233.261 865.174)" fill="#C5C5C5"/>
<rect width="44.5652" height="44.5652" transform="translate(322.392 865.174)" fill="#C5C5C5"/>
<rect width="44.5652" height="44.5652" transform="translate(857.174 865.174)" fill="#C5C5C5"/>
<rect width="44.5652" height="44.5652" transform="translate(589.783 909.739)" fill="#ADADAD"/>
<rect width="44.5652" height="44.5652" transform="translate(545.217 909.739)" fill="#ADADAD"/>
<rect width="44.5652" height="44.5652" transform="translate(500.652 909.739)" fill="#ADADAD"/>
<rect width="44.5652" height="44.5652" transform="translate(456.087 909.739)" fill="#ADADAD"/>
<rect width="44.5652" height="44.5652" transform="translate(411.521 909.739)" fill="#ADADAD"/>
<rect width="44.5652" height="44.5652" transform="translate(366.957 909.739)" fill="#ADADAD"/>
<rect width="44.5652" height="44.5652" transform="translate(322.392 909.739)" fill="#ADADAD"/>
<rect width="44.5652" height="44.5652" transform="translate(634.348 909.739)" fill="#ADADAD"/>
<rect width="44.5652" height="44.5652" transform="translate(678.913 954.304)" fill="#ADADAD"/>
<rect width="44.5652" height="44.5652" transform="translate(678.913 909.739)" fill="#ADADAD"/>
<rect width="44.5652" height="44.5652" transform="translate(723.479 909.739)" fill="#ADADAD"/>
<rect width="44.5652" height="44.5652" transform="translate(277.826 909.739)" fill="#ADADAD"/>
<rect width="44.5652" height="44.5652" transform="translate(589.783 954.304)" fill="#ADADAD"/>
<rect width="44.5652" height="44.5652" transform="translate(500.652 954.304)" fill="#ADADAD"/>
<rect width="44.5652" height="44.5652" transform="translate(411.521 954.304)" fill="#ADADAD"/>
<rect width="44.5652" height="44.5652" transform="translate(322.392 954.304)" fill="#ADADAD"/>
<rect width="44.5652" height="44.5652" transform="translate(188.696 909.739)" fill="#ADADAD"/>
<rect width="44.5652" height="44.5652" transform="translate(233.261 909.739)" fill="#ADADAD"/>
<rect width="44.5652" height="44.5652" transform="translate(144.13 954.304)" fill="#ADADAD"/>
<rect width="44.5652" height="44.5652" transform="translate(233.261 954.304)" fill="#ADADAD"/>
<rect width="44.5652" height="44.5652" transform="translate(768.043 954.304)" fill="#ADADAD"/>
<rect width="44.5652" height="44.5652" transform="translate(768.043 909.739)" fill="#ADADAD"/>
<rect width="44.5652" height="44.5652" transform="translate(812.608 909.739)" fill="#ADADAD"/>
<rect width="44.5652" height="44.5652" transform="translate(857.174 909.739)" fill="#ADADAD"/>
<rect width="44.5652" height="44.5652" transform="translate(946.304 954.304)" fill="#ADADAD"/>
<rect width="44.5652" height="44.5652" transform="translate(946.304 865.174)" fill="#ADADAD"/>
<rect width="44.5652" height="44.5652" transform="translate(188.696 865.174)" fill="#ADADAD"/>
<rect width="44.5652" height="44.5652" transform="translate(188.696 776.043)" fill="#ADADAD"/>
<rect width="44.5652" height="44.5652" transform="translate(233.261 196.696)" fill="#ADADAD"/>
<rect width="44.5652" height="44.5652" transform="translate(857.174 196.696)" fill="#ADADAD"/>
<rect width="44.5652" height="44.5652" transform="translate(901.739 909.739)" fill="#ADADAD"/>
<rect width="44.5652" height="44.5652" transform="translate(901.739 865.174)" fill="#ADADAD"/>
<rect width="44.5652" height="44.5652" transform="translate(901.739 820.609)" fill="#ADADAD"/>
<rect width="44.5652" height="44.5652" transform="translate(901.739 776.043)" fill="#ADADAD"/>
<rect width="44.5652" height="44.5652" transform="translate(857.174 954.304)" fill="#ADADAD"/>
<rect width="44.5652" height="44.5652" transform="translate(277.826 330.391)" fill="#C5C5C5"/>
<rect width="44.5652" height="44.5652" transform="translate(322.392 285.826)" fill="#C5C5C5"/>
<rect width="44.5652" height="44.5652" transform="translate(277.826 285.826)" fill="#C5C5C5"/>
<rect width="44.5652" height="44.5652" transform="translate(233.261 330.391)" fill="#C5C5C5"/>
<rect width="44.5652" height="44.5652" transform="translate(233.261 241.261)" fill="#C5C5C5"/>
<rect width="44.5652" height="44.5652" transform="translate(322.392 241.261)" fill="#C5C5C5"/>
<rect width="44.5652" height="44.5652" transform="translate(768.043 285.826)" fill="#C5C5C5"/>
<rect width="44.5652" height="44.5652" transform="translate(812.608 330.391)" fill="#C5C5C5"/>
<rect width="44.5652" height="44.5652" transform="translate(812.608 285.826)" fill="#C5C5C5"/>
<rect width="44.5652" height="44.5652" transform="translate(857.174 330.391)" fill="#C5C5C5"/>
<rect width="44.5652" height="44.5652" transform="translate(857.174 241.261)" fill="#C5C5C5"/>
<rect width="44.5652" height="44.5652" transform="translate(901.739 642.348)" fill="#ADADAD"/>
<rect width="44.5652" height="44.5652" transform="translate(901.739 285.826)" fill="#ADADAD"/>
<rect width="44.5652" height="44.5652" transform="translate(901.739 597.782)" fill="#ADADAD"/>
<rect width="44.5652" height="44.5652" transform="translate(901.739 553.218)" fill="#ADADAD"/>
<rect width="44.5652" height="44.5652" transform="translate(901.739 508.652)" fill="#ADADAD"/>
<rect width="44.5652" height="44.5652" transform="translate(901.739 464.087)" fill="#ADADAD"/>
<rect width="44.5652" height="44.5652" transform="translate(901.739 419.522)" fill="#ADADAD"/>
<rect width="44.5652" height="44.5652" transform="translate(901.739 374.957)" fill="#ADADAD"/>
<rect width="44.5652" height="44.5652" transform="translate(901.739 330.391)" fill="#ADADAD"/>
<rect width="44.5652" height="44.5652" transform="translate(946.304 597.782)" fill="#ADADAD"/>
<rect width="44.5652" height="44.5652" transform="translate(946.304 508.652)" fill="#ADADAD"/>
<rect width="44.5652" height="44.5652" transform="translate(946.304 419.522)" fill="#ADADAD"/>
<rect width="44.5652" height="44.5652" transform="translate(946.304 330.391)" fill="#ADADAD"/>
<rect width="44.5652" height="44.5652" transform="translate(901.739 686.913)" fill="#ADADAD"/>
<rect width="44.5652" height="44.5652" transform="translate(946.304 686.913)" fill="#ADADAD"/>
<rect width="44.5652" height="44.5652" transform="translate(901.739 731.478)" fill="#ADADAD"/>
<rect width="44.5652" height="44.5652" transform="translate(946.304 776.043)" fill="#ADADAD"/>
<rect width="44.5652" height="44.5652" transform="translate(901.739 241.261)" fill="#ADADAD"/>
<rect width="44.5652" height="44.5652" transform="translate(901.739 196.696)" fill="#ADADAD"/>
<rect width="44.5652" height="44.5652" transform="translate(946.304 241.261)" fill="#ADADAD"/>
<rect width="44.5652" height="44.5652" transform="translate(946.304 152.13)" fill="#ADADAD"/>
<rect width="44.5652" height="44.5652" transform="translate(768.043 241.261)" fill="#C5C5C5"/>
<rect width="44.5652" height="44.5652" transform="translate(723.479 196.696)" fill="#ADADAD"/>
<rect width="44.5652" height="44.5652" transform="translate(634.348 196.696)" fill="#ADADAD"/>
<rect width="44.5652" height="44.5652" transform="translate(545.217 196.696)" fill="#ADADAD"/>
<rect width="44.5652" height="44.5652" transform="translate(456.087 196.696)" fill="#ADADAD"/>
<rect width="44.5652" height="44.5652" transform="translate(366.957 196.696)" fill="#ADADAD"/>
<rect width="44.5652" height="44.5652" transform="translate(678.913 196.696)" fill="#ADADAD"/>
<rect width="44.5652" height="44.5652" transform="translate(589.783 196.696)" fill="#ADADAD"/>
<rect width="44.5652" height="44.5652" transform="translate(500.652 196.696)" fill="#ADADAD"/>
<rect width="44.5652" height="44.5652" transform="translate(411.521 196.696)" fill="#ADADAD"/>
<rect width="44.5652" height="44.5652" transform="translate(678.913 152.13)" fill="#ADADAD"/>
<rect width="44.5652" height="44.5652" transform="translate(589.783 152.13)" fill="#ADADAD"/>
<rect width="44.5652" height="44.5652" transform="translate(500.652 152.13)" fill="#ADADAD"/>
<rect width="44.5652" height="44.5652" transform="translate(411.521 152.13)" fill="#ADADAD"/>
<rect width="44.5652" height="44.5652" transform="translate(322.392 196.696)" fill="#ADADAD"/>
<rect width="44.5652" height="44.5652" transform="translate(277.826 196.696)" fill="#ADADAD"/>
<rect width="44.5652" height="44.5652" transform="translate(233.261 152.13)" fill="#ADADAD"/>
<rect width="44.5652" height="44.5652" transform="translate(322.392 152.13)" fill="#ADADAD"/>
<rect width="44.5652" height="44.5652" transform="translate(768.043 196.696)" fill="#ADADAD"/>
<rect width="44.5652" height="44.5652" transform="translate(812.608 196.696)" fill="#ADADAD"/>
<rect width="44.5652" height="44.5652" transform="translate(768.043 152.13)" fill="#ADADAD"/>
<rect width="44.5652" height="44.5652" transform="translate(857.174 152.13)" fill="#ADADAD"/>
<rect width="44.5652" height="44.5652" transform="translate(277.826 731.478)" fill="#C5C5C5"/>
<rect width="44.5652" height="44.5652" transform="translate(277.826 374.957)" fill="#C5C5C5"/>
<rect width="44.5652" height="44.5652" transform="translate(277.826 686.913)" fill="#C5C5C5"/>
<rect width="44.5652" height="44.5652" transform="translate(277.826 642.348)" fill="#C5C5C5"/>
<rect width="44.5652" height="44.5652" transform="translate(277.826 597.782)" fill="#C5C5C5"/>
<rect width="44.5652" height="44.5652" transform="translate(277.826 553.218)" fill="#C5C5C5"/>
<rect width="44.5652" height="44.5652" transform="translate(277.826 508.652)" fill="#C5C5C5"/>
<rect width="44.5652" height="44.5652" transform="translate(277.826 464.087)" fill="#C5C5C5"/>
<rect width="44.5652" height="44.5652" transform="translate(277.826 419.522)" fill="#C5C5C5"/>
<rect width="44.5652" height="44.5652" transform="translate(233.261 686.913)" fill="#C5C5C5"/>
<rect width="44.5652" height="44.5652" transform="translate(233.261 597.782)" fill="#C5C5C5"/>
<rect width="44.5652" height="44.5652" transform="translate(233.261 508.652)" fill="#C5C5C5"/>
<rect width="44.5652" height="44.5652" transform="translate(233.261 419.522)" fill="#C5C5C5"/>
<rect width="44.5652" height="44.5652" transform="translate(188.696 642.348)" fill="#ADADAD"/>
<rect width="44.5652" height="44.5652" transform="translate(188.696 686.913)" fill="#ADADAD"/>
<rect width="44.5652" height="44.5652" transform="translate(188.696 731.478)" fill="#ADADAD"/>
<rect width="44.5652" height="44.5652" transform="translate(144.13 686.913)" fill="#ADADAD"/>
<rect width="44.5652" height="44.5652" transform="translate(144.13 776.043)" fill="#ADADAD"/>
<rect width="44.5652" height="44.5652" transform="translate(188.696 820.609)" fill="#ADADAD"/>
<rect width="44.5652" height="44.5652" transform="translate(144.13 865.174)" fill="#ADADAD"/>
<rect width="44.5652" height="44.5652" transform="translate(188.696 241.261)" fill="#ADADAD"/>
<rect width="44.5652" height="44.5652" transform="translate(188.696 196.696)" fill="#ADADAD"/>
<rect width="44.5652" height="44.5652" transform="translate(144.13 241.261)" fill="#ADADAD"/>
<rect width="44.5652" height="44.5652" transform="translate(144.13 152.13)" fill="#ADADAD"/>
<rect width="44.5652" height="44.5652" transform="translate(188.696 642.348)" fill="#ADADAD"/>
<rect width="44.5652" height="44.5652" transform="translate(188.696 285.826)" fill="#ADADAD"/>
<rect width="44.5652" height="44.5652" transform="translate(188.696 597.782)" fill="#ADADAD"/>
<rect width="44.5652" height="44.5652" transform="translate(188.696 553.218)" fill="#ADADAD"/>
<rect width="44.5652" height="44.5652" transform="translate(188.696 508.652)" fill="#ADADAD"/>
<rect width="44.5652" height="44.5652" transform="translate(188.696 464.087)" fill="#ADADAD"/>
<rect width="44.5652" height="44.5652" transform="translate(188.696 419.522)" fill="#ADADAD"/>
<rect width="44.5652" height="44.5652" transform="translate(188.696 374.957)" fill="#ADADAD"/>
<rect width="44.5652" height="44.5652" transform="translate(188.696 330.391)" fill="#ADADAD"/>
<rect width="44.5652" height="44.5652" transform="translate(144.13 597.782)" fill="#ADADAD"/>
<rect width="44.5652" height="44.5652" transform="translate(144.13 508.652)" fill="#ADADAD"/>
<rect width="44.5652" height="44.5652" transform="translate(144.13 419.522)" fill="#ADADAD"/>
<rect width="44.5652" height="44.5652" transform="translate(144.13 330.391)" fill="#ADADAD"/>
<rect width="44.5652" height="44.5652" transform="translate(99.5649 909.739)" fill="#929292"/>
<rect width="44.5652" height="44.5652" transform="translate(99.5649 954.304)" fill="#929292"/>
<rect width="44.5652" height="44.5652" transform="translate(55 954.304)" fill="#929292"/>
<rect width="44.5652" height="44.5652" transform="translate(99.5649 865.174)" fill="#929292"/>
<rect width="44.5652" height="44.5652" transform="translate(99.5649 776.043)" fill="#929292"/>
<rect width="44.5652" height="44.5652" transform="translate(99.5649 642.348)" fill="#929292"/>
<rect width="44.5652" height="44.5652" transform="translate(99.5649 686.913)" fill="#929292"/>
<rect width="44.5652" height="44.5652" transform="translate(99.5649 731.478)" fill="#929292"/>
<rect width="44.5652" height="44.5652" transform="translate(55 686.913)" fill="#929292"/>
<rect width="44.5652" height="44.5652" transform="translate(55 776.043)" fill="#929292"/>
<rect width="44.5652" height="44.5652" transform="translate(99.5649 820.609)" fill="#929292"/>
<rect width="44.5652" height="44.5652" transform="translate(55 865.174)" fill="#929292"/>
<rect width="44.5652" height="44.5652" transform="translate(99.5649 241.261)" fill="#929292"/>
<rect width="44.5652" height="44.5652" transform="translate(99.5649 196.696)" fill="#929292"/>
<rect width="44.5652" height="44.5652" transform="translate(55 241.261)" fill="#929292"/>
<rect width="44.5652" height="44.5652" transform="translate(55 152.13)" fill="#929292"/>
<rect width="44.5652" height="44.5652" transform="translate(99.5649 642.348)" fill="#929292"/>
<rect width="44.5652" height="44.5652" transform="translate(99.5649 285.826)" fill="#929292"/>
<rect width="44.5652" height="44.5652" transform="translate(99.5649 597.782)" fill="#929292"/>
<rect width="44.5652" height="44.5652" transform="translate(99.5649 553.218)" fill="#929292"/>
<rect width="44.5652" height="44.5652" transform="translate(99.5649 508.652)" fill="#929292"/>
<rect width="44.5652" height="44.5652" transform="translate(99.5649 464.087)" fill="#929292"/>
<rect width="44.5652" height="44.5652" transform="translate(99.5649 419.522)" fill="#929292"/>
<rect width="44.5652" height="44.5652" transform="translate(99.5649 374.957)" fill="#929292"/>
<rect width="44.5652" height="44.5652" transform="translate(99.5649 330.391)" fill="#929292"/>
<rect width="44.5652" height="44.5652" transform="translate(55 597.782)" fill="#929292"/>
<rect width="44.5652" height="44.5652" transform="translate(55 508.652)" fill="#929292"/>
<rect width="44.5652" height="44.5652" transform="translate(55 419.522)" fill="#929292"/>
<rect width="44.5652" height="44.5652" transform="translate(55 330.391)" fill="#929292"/>
<rect width="44.5652" height="44.5652" transform="translate(812.608 1043.43) rotate(-90)" fill="#929292"/>
<rect width="44.5652" height="44.5652" transform="translate(857.174 1088) rotate(-90)" fill="#929292"/>
<rect width="44.5652" height="44.5652" transform="translate(768.043 1043.43) rotate(-90)" fill="#929292"/>
<rect width="44.5652" height="44.5652" transform="translate(678.913 1043.43) rotate(-90)" fill="#929292"/>
<rect width="44.5652" height="44.5652" transform="translate(545.217 1043.43) rotate(-90)" fill="#929292"/>
<rect width="44.5652" height="44.5652" transform="translate(589.783 1043.43) rotate(-90)" fill="#929292"/>
<rect width="44.5652" height="44.5652" transform="translate(634.348 1043.43) rotate(-90)" fill="#929292"/>
<rect width="44.5652" height="44.5652" transform="translate(589.783 1088) rotate(-90)" fill="#929292"/>
<rect width="44.5652" height="44.5652" transform="translate(678.913 1088) rotate(-90)" fill="#929292"/>
<rect width="44.5652" height="44.5652" transform="translate(723.479 1043.43) rotate(-90)" fill="#929292"/>
<rect width="44.5652" height="44.5652" transform="translate(768.043 1088) rotate(-90)" fill="#929292"/>
<rect width="44.5652" height="44.5652" transform="translate(144.13 1043.43) rotate(-90)" fill="#929292"/>
<rect width="44.5652" height="44.5652" transform="translate(99.5649 1043.43) rotate(-90)" fill="#929292"/>
<rect width="44.5652" height="44.5652" transform="translate(144.13 1088) rotate(-90)" fill="#929292"/>
<rect width="44.5652" height="44.5652" transform="translate(55 1088) rotate(-90)" fill="#929292"/>
<rect width="44.5652" height="44.5652" transform="translate(233.261 107.565) rotate(90)" fill="#929292"/>
<rect width="44.5652" height="44.5652" transform="translate(188.696 107.565) rotate(90)" fill="#929292"/>
<rect width="44.5652" height="44.5652" transform="translate(188.696 63) rotate(90)" fill="#929292"/>
<rect width="44.5652" height="44.5652" transform="translate(277.826 107.565) rotate(90)" fill="#929292"/>
<rect width="44.5652" height="44.5652" transform="translate(366.957 107.565) rotate(90)" fill="#929292"/>
<rect width="44.5652" height="44.5652" transform="translate(500.652 107.565) rotate(90)" fill="#929292"/>
<rect width="44.5652" height="44.5652" transform="translate(456.087 107.565) rotate(90)" fill="#929292"/>
<rect width="44.5652" height="44.5652" transform="translate(411.521 107.565) rotate(90)" fill="#929292"/>
<rect width="44.5652" height="44.5652" transform="translate(456.087 63) rotate(90)" fill="#929292"/>
<rect width="44.5652" height="44.5652" transform="translate(366.957 63) rotate(90)" fill="#929292"/>
<rect width="44.5652" height="44.5652" transform="translate(322.392 107.565) rotate(90)" fill="#929292"/>
<rect width="44.5652" height="44.5652" transform="translate(277.826 63) rotate(90)" fill="#929292"/>
<rect width="44.5652" height="44.5652" transform="translate(901.739 107.565) rotate(90)" fill="#929292"/>
<rect width="44.5652" height="44.5652" transform="translate(946.304 107.565) rotate(90)" fill="#929292"/>
<rect width="44.5652" height="44.5652" transform="translate(901.739 63) rotate(90)" fill="#929292"/>
<rect width="44.5652" height="44.5652" transform="translate(990.87 63) rotate(90)" fill="#929292"/>
<rect width="44.5652" height="44.5652" transform="translate(990.87 107.565) rotate(90)" fill="#929292"/>
<rect width="44.5652" height="44.5652" transform="translate(901.739 998.87) rotate(90)" fill="#929292"/>
<rect width="44.5652" height="44.5652" transform="translate(946.304 998.87) rotate(90)" fill="#929292"/>
<rect width="44.5652" height="44.5652" transform="translate(990.87 998.87) rotate(90)" fill="#929292"/>
<rect width="44.5652" height="44.5652" transform="translate(1035.43 998.87) rotate(90)" fill="#929292"/>
<rect width="44.5652" height="44.5652" transform="translate(990.87 1043.43) rotate(90)" fill="#929292"/>
<rect width="44.5652" height="44.5652" transform="translate(1080 1043.43) rotate(90)" fill="#929292"/>
<rect width="44.5652" height="44.5652" transform="translate(1035.43 954.304) rotate(90)" fill="#929292"/>
<rect width="44.5652" height="44.5652" transform="translate(500.652 107.565) rotate(90)" fill="#929292"/>
<rect width="44.5652" height="44.5652" transform="translate(857.174 107.565) rotate(90)" fill="#929292"/>
<rect width="44.5652" height="44.5652" transform="translate(545.217 107.565) rotate(90)" fill="#929292"/>
<rect width="44.5652" height="44.5652" transform="translate(589.783 107.565) rotate(90)" fill="#929292"/>
<rect width="44.5652" height="44.5652" transform="translate(634.348 107.565) rotate(90)" fill="#929292"/>
<rect width="44.5652" height="44.5652" transform="translate(678.913 107.565) rotate(90)" fill="#929292"/>
<rect width="44.5652" height="44.5652" transform="translate(723.479 107.565) rotate(90)" fill="#929292"/>
<rect width="44.5652" height="44.5652" transform="translate(768.043 107.565) rotate(90)" fill="#929292"/>
<rect width="44.5652" height="44.5652" transform="translate(812.608 107.565) rotate(90)" fill="#929292"/>
<rect width="44.5652" height="44.5652" transform="translate(545.217 63) rotate(90)" fill="#929292"/>
<rect width="44.5652" height="44.5652" transform="translate(634.348 63) rotate(90)" fill="#929292"/>
<rect width="44.5652" height="44.5652" transform="translate(723.479 63) rotate(90)" fill="#929292"/>
<rect width="44.5652" height="44.5652" transform="translate(812.608 63) rotate(90)" fill="#929292"/>
<rect width="44.5652" height="44.5652" transform="translate(99.5649 107.565)" fill="#929292"/>
<rect width="44.5652" height="44.5652" transform="translate(99.5649 152.13)" fill="#929292"/>
<rect width="44.5652" height="44.5652" transform="translate(55 63)" fill="#929292"/>
<rect width="44.5652" height="44.5652" transform="translate(1035.44 241.261) rotate(-180)" fill="#929292"/>
<rect width="44.5652" height="44.5652" transform="translate(1035.44 196.696) rotate(-180)" fill="#929292"/>
<rect width="44.5652" height="44.5652" transform="translate(1080 196.696) rotate(-180)" fill="#929292"/>
<rect width="44.5652" height="44.5652" transform="translate(1035.44 285.826) rotate(-180)" fill="#929292"/>
<rect width="44.5652" height="44.5652" transform="translate(1035.44 374.957) rotate(-180)" fill="#929292"/>
<rect width="44.5652" height="44.5652" transform="translate(1035.44 508.652) rotate(-180)" fill="#929292"/>
<rect width="44.5652" height="44.5652" transform="translate(1035.44 464.087) rotate(-180)" fill="#929292"/>
<rect width="44.5652" height="44.5652" transform="translate(1035.44 419.522) rotate(-180)" fill="#929292"/>
<rect width="44.5652" height="44.5652" transform="translate(1080 464.087) rotate(-180)" fill="#929292"/>
<rect width="44.5652" height="44.5652" transform="translate(1080 374.957) rotate(-180)" fill="#929292"/>
<rect width="44.5652" height="44.5652" transform="translate(1035.44 330.391) rotate(-180)" fill="#929292"/>
<rect width="44.5652" height="44.5652" transform="translate(1080 285.826) rotate(-180)" fill="#929292"/>
<rect width="44.5652" height="44.5652" transform="translate(1035.43 909.739) rotate(-180)" fill="#929292"/>
<rect width="44.5652" height="44.5652" transform="translate(1035.43 954.304) rotate(-180)" fill="#929292"/>
<rect width="44.5652" height="44.5652" transform="translate(1080 909.739) rotate(-180)" fill="#929292"/>
<rect width="44.5652" height="44.5652" transform="translate(1080 998.87) rotate(-180)" fill="#929292"/>
<rect width="44.5652" height="44.5652" transform="translate(1035.44 508.652) rotate(-180)" fill="#929292"/>
<rect width="44.5652" height="44.5652" transform="translate(1035.43 865.174) rotate(-180)" fill="#929292"/>
<rect width="44.5652" height="44.5652" transform="translate(1035.44 553.218) rotate(-180)" fill="#929292"/>
<rect width="44.5652" height="44.5652" transform="translate(1035.44 597.783) rotate(-180)" fill="#929292"/>
<rect width="44.5652" height="44.5652" transform="translate(1035.43 642.348) rotate(-180)" fill="#929292"/>
<rect width="44.5652" height="44.5652" transform="translate(1035.43 686.913) rotate(-180)" fill="#929292"/>
<rect width="44.5652" height="44.5652" transform="translate(1035.43 731.479) rotate(-180)" fill="#929292"/>
<rect width="44.5652" height="44.5652" transform="translate(1035.43 776.043) rotate(-180)" fill="#929292"/>
<rect width="44.5652" height="44.5652" transform="translate(1035.43 820.609) rotate(-180)" fill="#929292"/>
<rect width="44.5652" height="44.5652" transform="translate(1080 553.218) rotate(-180)" fill="#929292"/>
<rect width="44.5652" height="44.5652" transform="translate(1080 642.348) rotate(-180)" fill="#929292"/>
<rect width="44.5652" height="44.5652" transform="translate(1080 731.479) rotate(-180)" fill="#929292"/>
<rect width="44.5652" height="44.5652" transform="translate(1080 820.609) rotate(-180)" fill="#929292"/>
<rect width="44.5652" height="44.5652" transform="translate(1035.44 107.565) rotate(90)" fill="#929292"/>
<rect width="44.5652" height="44.5652" transform="translate(1080 63) rotate(90)" fill="#929292"/>
<rect width="44.5652" height="44.5652" transform="translate(545.217 1043.43) rotate(-90)" fill="#929292"/>
<rect width="44.5652" height="44.5652" transform="translate(188.696 1043.43) rotate(-90)" fill="#929292"/>
<rect width="44.5652" height="44.5652" transform="translate(500.652 1043.43) rotate(-90)" fill="#929292"/>
<rect width="44.5652" height="44.5652" transform="translate(456.087 1043.43) rotate(-90)" fill="#929292"/>
<rect width="44.5652" height="44.5652" transform="translate(411.521 1043.43) rotate(-90)" fill="#929292"/>
<rect width="44.5652" height="44.5652" transform="translate(366.957 1043.43) rotate(-90)" fill="#929292"/>
<rect width="44.5652" height="44.5652" transform="translate(322.392 1043.43) rotate(-90)" fill="#929292"/>
<rect width="44.5652" height="44.5652" transform="translate(277.826 1043.43) rotate(-90)" fill="#929292"/>
<rect width="44.5652" height="44.5652" transform="translate(233.261 1043.43) rotate(-90)" fill="#929292"/>
<rect width="44.5652" height="44.5652" transform="translate(500.652 1088) rotate(-90)" fill="#929292"/>
<rect width="44.5652" height="44.5652" transform="translate(411.521 1088) rotate(-90)" fill="#929292"/>
<rect width="44.5652" height="44.5652" transform="translate(322.392 1088) rotate(-90)" fill="#929292"/>
<rect width="44.5652" height="44.5652" transform="translate(233.261 1088) rotate(-90)" fill="#929292"/>
<rect width="44.5652" height="44.5652" transform="translate(678.913 597.782)" fill="#DEDEDE"/>
<rect width="44.5652" height="44.5652" transform="translate(678.913 508.652)" fill="#DEDEDE"/>
<rect width="44.5652" height="44.5652" transform="translate(678.913 419.522)" fill="#DEDEDE"/>
<rect width="44.5652" height="44.5652" transform="translate(589.783 419.522)" fill="#DEDEDE"/>
<rect width="44.5652" height="44.5652" transform="translate(500.652 419.522)" fill="#DEDEDE"/>
<rect width="44.5652" height="44.5652" transform="translate(411.521 419.522)" fill="#DEDEDE"/>
<rect width="44.5652" height="44.5652" transform="translate(411.521 508.652)" fill="#DEDEDE"/>
<rect width="44.5652" height="44.5652" transform="translate(411.521 597.782)" fill="#DEDEDE"/>
<rect width="44.5652" height="44.5652" transform="translate(411.521 686.913)" fill="#DEDEDE"/>
<rect width="44.5652" height="44.5652" transform="translate(500.652 686.913)" fill="#DEDEDE"/>
<rect width="44.5652" height="44.5652" transform="translate(589.783 686.913)" fill="#DEDEDE"/>
<rect width="44.5652" height="44.5652" transform="translate(589.783 553.218)" fill="#EEEEEE"/>
<rect width="44.5652" height="44.5652" transform="translate(589.783 508.652)" fill="#EEEEEE"/>
<rect width="44.5652" height="44.5652" transform="translate(545.217 508.652)" fill="#EEEEEE"/>
<rect width="44.5652" height="44.5652" transform="translate(500.652 508.652)" fill="#EEEEEE"/>
<rect width="44.5652" height="44.5652" transform="translate(500.652 553.218)" fill="#EEEEEE"/>
<rect width="44.5652" height="44.5652" transform="translate(500.652 597.782)" fill="#EEEEEE"/>
</g>
<path fill-rule="evenodd" clip-rule="evenodd" d="M0 200C0 89.5432 89.543 0 200 0H336H1824H1960C2070.46 0 2160 89.543 2160 200V3736C2160 3846.46 2070.46 3936 1960 3936H200C89.543 3936 0 3846.46 0 3736V200ZM337.308 48C348.715 147.624 433.321 225 536 225H1624C1726.68 225 1811.29 147.624 1822.69 48H1904C2014.46 48 2104 137.543 2104 248V3672C2104 3782.46 2014.46 3872 1904 3872H256C145.543 3872 56 3782.46 56 3672V248C56 137.543 145.543 48 256 48H337.308Z" fill="black"/>
</svg>
