<svg width="1473" height="101" viewBox="0 0 1473 101" version="1.1" xmlns="http://www.w3.org/2000/svg" xmlns:xlink="http://www.w3.org/1999/xlink">
<title>Component</title>
<desc>Created using Figma</desc>
<g id="Canvas" transform="translate(-1055 -955)">
<g id="Component">
<g id="Line 10">
<use xlink:href="#path0_stroke" transform="matrix(6.12323e-17 -1 1 6.12323e-17 1056 1056)"/>
</g>
<g id="Line 10">
<use xlink:href="#path0_stroke" transform="matrix(6.12323e-17 -1 1 6.12323e-17 1466 1056)"/>
</g>
<g id="Line 11">
<use xlink:href="#path1_stroke" transform="translate(1056 1017)"/>
</g>
<g id="Line 10">
<use xlink:href="#path0_stroke" transform="matrix(6.12323e-17 -1 1 6.12323e-17 1828 1056)"/>
</g>
<g id="Line 10">
<use xlink:href="#path0_stroke" transform="matrix(6.12323e-17 -1 1 6.12323e-17 2528 1056)"/>
</g>
<g id="Line 11">
<use xlink:href="#path2_stroke" transform="translate(1828 1017)"/>
</g>
<g id="Layout">
<use xlink:href="#path3_fill" transform="translate(1127 955)"/>
</g>
<g id="Front End + Back End">
<use xlink:href="#path4_fill" transform="translate(1890 955)"/>
</g>
</g>
</g>
<defs>
<path id="path0_stroke" d="M 0 0L 79 0L 79 -1L 0 -1L 0 0Z"/>
<path id="path1_stroke" d="M 0 0L 410 0L 410 -1L 0 -1L 0 0Z"/>
<path id="path2_stroke" d="M 0 0L 700 0L 700 -1L 0 -1L 0 0Z"/>
<path id="path3_fill" d="M 86.5566 30.2402L 98.6855 30.2402L 98.6855 33L 83.1641 33L 83.1641 7.40625L 86.5566 7.40625L 86.5566 30.2402ZM 113.768 33C 113.58 32.625 113.428 31.957 113.311 30.9961C 111.799 32.5664 109.994 33.3516 107.896 33.3516C 106.021 33.3516 104.48 32.8242 103.273 31.7695C 102.078 30.7031 101.48 29.3555 101.48 27.7266C 101.48 25.7461 102.23 24.2109 103.73 23.1211C 105.242 22.0195 107.363 21.4688 110.094 21.4688L 113.258 21.4688L 113.258 19.9746C 113.258 18.8379 112.918 17.9355 112.238 17.2676C 111.559 16.5879 110.557 16.248 109.232 16.248C 108.072 16.248 107.1 16.541 106.314 17.127C 105.529 17.7129 105.137 18.4219 105.137 19.2539L 101.867 19.2539C 101.867 18.3047 102.201 17.3906 102.869 16.5117C 103.549 15.6211 104.463 14.918 105.611 14.4023C 106.771 13.8867 108.043 13.6289 109.426 13.6289C 111.617 13.6289 113.334 14.1797 114.576 15.2812C 115.818 16.3711 116.463 17.877 116.51 19.7988L 116.51 28.5527C 116.51 30.2988 116.732 31.6875 117.178 32.7188L 117.178 33L 113.768 33ZM 108.371 30.5215C 109.391 30.5215 110.357 30.2578 111.271 29.7305C 112.186 29.2031 112.848 28.5176 113.258 27.6738L 113.258 23.7715L 110.709 23.7715C 106.725 23.7715 104.732 24.9375 104.732 27.2695C 104.732 28.2891 105.072 29.0859 105.752 29.6602C 106.432 30.2344 107.305 30.5215 108.371 30.5215ZM 127.549 28.2363L 131.979 13.9805L 135.459 13.9805L 127.812 35.9355C 126.629 39.0996 124.748 40.6816 122.17 40.6816L 121.555 40.6289L 120.342 40.4004L 120.342 37.7637L 121.221 37.834C 122.322 37.834 123.178 37.6113 123.787 37.166C 124.408 36.7207 124.918 35.9062 125.316 34.7227L 126.037 32.7891L 119.252 13.9805L 122.803 13.9805L 127.549 28.2363ZM 137.234 23.3145C 137.234 21.4512 137.598 19.7754 138.324 18.2871C 139.062 16.7988 140.082 15.6504 141.383 14.8418C 142.695 14.0332 144.189 13.6289 145.865 13.6289C 148.455 13.6289 150.547 14.5254 152.141 16.3184C 153.746 18.1113 154.549 20.4961 154.549 23.4727L 154.549 23.7012C 154.549 25.5527 154.191 27.2168 153.477 28.6934C 152.773 30.1582 151.76 31.3008 150.436 32.1211C 149.123 32.9414 147.611 33.3516 145.9 33.3516C 143.322 33.3516 141.23 32.4551 139.625 30.6621C 138.031 28.8691 137.234 26.4961 137.234 23.543L 137.234 23.3145ZM 140.504 23.7012C 140.504 25.8105 140.99 27.5039 141.963 28.7812C 142.947 30.0586 144.26 30.6973 145.9 30.6973C 147.553 30.6973 148.865 30.0527 149.838 28.7637C 150.811 27.4629 151.297 25.6465 151.297 23.3145C 151.297 21.2285 150.799 19.541 149.803 18.252C 148.818 16.9512 147.506 16.3008 145.865 16.3008C 144.26 16.3008 142.965 16.9395 141.98 18.2168C 140.996 19.4941 140.504 21.3223 140.504 23.7012ZM 170.369 31.1191C 169.104 32.6074 167.246 33.3516 164.797 33.3516C 162.77 33.3516 161.223 32.7656 160.156 31.5938C 159.102 30.4102 158.568 28.6641 158.557 26.3555L 158.557 13.9805L 161.809 13.9805L 161.809 26.2676C 161.809 29.1504 162.98 30.5918 165.324 30.5918C 167.809 30.5918 169.461 29.666 170.281 27.8145L 170.281 13.9805L 173.533 13.9805L 173.533 33L 170.439 33L 170.369 31.1191ZM 182.902 9.375L 182.902 13.9805L 186.453 13.9805L 186.453 16.4941L 182.902 16.4941L 182.902 28.2891C 182.902 29.0508 183.061 29.625 183.377 30.0117C 183.693 30.3867 184.232 30.5742 184.994 30.5742C 185.369 30.5742 185.885 30.5039 186.541 30.3633L 186.541 33C 185.686 33.2344 184.854 33.3516 184.045 33.3516C 182.592 33.3516 181.496 32.9121 180.758 32.0332C 180.02 31.1543 179.65 29.9062 179.65 28.2891L 179.65 16.4941L 176.188 16.4941L 176.188 13.9805L 179.65 13.9805L 179.65 9.375L 182.902 9.375Z"/>
<path id="path4_fill" d="M 135.088 21.6973L 124.348 21.6973L 124.348 33L 120.973 33L 120.973 7.40625L 136.828 7.40625L 136.828 10.1836L 124.348 10.1836L 124.348 18.9375L 135.088 18.9375L 135.088 21.6973ZM 149.098 16.8984C 148.605 16.8164 148.072 16.7754 147.498 16.7754C 145.365 16.7754 143.918 17.6836 143.156 19.5L 143.156 33L 139.904 33L 139.904 13.9805L 143.068 13.9805L 143.121 16.1777C 144.188 14.4785 145.699 13.6289 147.656 13.6289C 148.289 13.6289 148.77 13.7109 149.098 13.875L 149.098 16.8984ZM 150.891 23.3145C 150.891 21.4512 151.254 19.7754 151.98 18.2871C 152.719 16.7988 153.738 15.6504 155.039 14.8418C 156.352 14.0332 157.846 13.6289 159.521 13.6289C 162.111 13.6289 164.203 14.5254 165.797 16.3184C 167.402 18.1113 168.205 20.4961 168.205 23.4727L 168.205 23.7012C 168.205 25.5527 167.848 27.2168 167.133 28.6934C 166.43 30.1582 165.416 31.3008 164.092 32.1211C 162.779 32.9414 161.268 33.3516 159.557 33.3516C 156.979 33.3516 154.887 32.4551 153.281 30.6621C 151.688 28.8691 150.891 26.4961 150.891 23.543L 150.891 23.3145ZM 154.16 23.7012C 154.16 25.8105 154.646 27.5039 155.619 28.7812C 156.604 30.0586 157.916 30.6973 159.557 30.6973C 161.209 30.6973 162.521 30.0527 163.494 28.7637C 164.467 27.4629 164.953 25.6465 164.953 23.3145C 164.953 21.2285 164.455 19.541 163.459 18.252C 162.475 16.9512 161.162 16.3008 159.521 16.3008C 157.916 16.3008 156.621 16.9395 155.637 18.2168C 154.652 19.4941 154.16 21.3223 154.16 23.7012ZM 175.359 13.9805L 175.465 16.3711C 176.918 14.543 178.816 13.6289 181.16 13.6289C 185.18 13.6289 187.207 15.8965 187.242 20.4316L 187.242 33L 183.99 33L 183.99 20.4141C 183.979 19.043 183.662 18.0293 183.041 17.373C 182.432 16.7168 181.477 16.3887 180.176 16.3887C 179.121 16.3887 178.195 16.6699 177.398 17.2324C 176.602 17.7949 175.98 18.5332 175.535 19.4473L 175.535 33L 172.283 33L 172.283 13.9805L 175.359 13.9805ZM 196.559 9.375L 196.559 13.9805L 200.109 13.9805L 200.109 16.4941L 196.559 16.4941L 196.559 28.2891C 196.559 29.0508 196.717 29.625 197.033 30.0117C 197.35 30.3867 197.889 30.5742 198.65 30.5742C 199.025 30.5742 199.541 30.5039 200.197 30.3633L 200.197 33C 199.342 33.2344 198.51 33.3516 197.701 33.3516C 196.248 33.3516 195.152 32.9121 194.414 32.0332C 193.676 31.1543 193.307 29.9062 193.307 28.2891L 193.307 16.4941L 189.844 16.4941L 189.844 13.9805L 193.307 13.9805L 193.307 9.375L 196.559 9.375ZM 227.83 21.1699L 216.738 21.1699L 216.738 30.2402L 229.623 30.2402L 229.623 33L 213.363 33L 213.363 7.40625L 229.447 7.40625L 229.447 10.1836L 216.738 10.1836L 216.738 18.4102L 227.83 18.4102L 227.83 21.1699ZM 236.391 13.9805L 236.496 16.3711C 237.949 14.543 239.848 13.6289 242.191 13.6289C 246.211 13.6289 248.238 15.8965 248.273 20.4316L 248.273 33L 245.021 33L 245.021 20.4141C 245.01 19.043 244.693 18.0293 244.072 17.373C 243.463 16.7168 242.508 16.3887 241.207 16.3887C 240.152 16.3887 239.227 16.6699 238.43 17.2324C 237.633 17.7949 237.012 18.5332 236.566 19.4473L 236.566 33L 233.314 33L 233.314 13.9805L 236.391 13.9805ZM 252.387 23.332C 252.387 20.4141 253.078 18.0703 254.461 16.3008C 255.844 14.5195 257.654 13.6289 259.893 13.6289C 262.119 13.6289 263.883 14.3906 265.184 15.9141L 265.184 6L 268.436 6L 268.436 33L 265.447 33L 265.289 30.9609C 263.988 32.5547 262.178 33.3516 259.857 33.3516C 257.654 33.3516 255.855 32.4492 254.461 30.6445C 253.078 28.8398 252.387 26.4844 252.387 23.5781L 252.387 23.332ZM 255.639 23.7012C 255.639 25.8574 256.084 27.5449 256.975 28.7637C 257.865 29.9824 259.096 30.5918 260.666 30.5918C 262.729 30.5918 264.234 29.666 265.184 27.8145L 265.184 19.0781C 264.211 17.2852 262.717 16.3887 260.701 16.3887C 259.107 16.3887 257.865 17.0039 256.975 18.2344C 256.084 19.4648 255.639 21.2871 255.639 23.7012ZM 291.744 19.2715L 298.881 19.2715L 298.881 22.3477L 291.744 22.3477L 291.744 30.4336L 288.475 30.4336L 288.475 22.3477L 281.338 22.3477L 281.338 19.2715L 288.475 19.2715L 288.475 11.8008L 291.744 11.8008L 291.744 19.2715ZM 312.293 33L 312.293 7.40625L 320.66 7.40625C 323.438 7.40625 325.523 7.98047 326.918 9.12891C 328.324 10.2773 329.027 11.9766 329.027 14.2266C 329.027 15.4219 328.688 16.4824 328.008 17.4082C 327.328 18.3223 326.402 19.0312 325.23 19.5352C 326.613 19.9219 327.703 20.6602 328.5 21.75C 329.309 22.8281 329.713 24.1172 329.713 25.6172C 329.713 27.9141 328.969 29.7188 327.48 31.0312C 325.992 32.3438 323.889 33 321.17 33L 312.293 33ZM 315.668 21.0293L 315.668 30.2402L 321.24 30.2402C 322.811 30.2402 324.047 29.8359 324.949 29.0273C 325.863 28.207 326.32 27.082 326.32 25.6523C 326.32 22.5703 324.645 21.0293 321.293 21.0293L 315.668 21.0293ZM 315.668 18.3223L 320.766 18.3223C 322.242 18.3223 323.42 17.9531 324.299 17.2148C 325.189 16.4766 325.635 15.4746 325.635 14.209C 325.635 12.8027 325.225 11.7832 324.404 11.1504C 323.584 10.5059 322.336 10.1836 320.66 10.1836L 315.668 10.1836L 315.668 18.3223ZM 345.955 33C 345.768 32.625 345.615 31.957 345.498 30.9961C 343.986 32.5664 342.182 33.3516 340.084 33.3516C 338.209 33.3516 336.668 32.8242 335.461 31.7695C 334.266 30.7031 333.668 29.3555 333.668 27.7266C 333.668 25.7461 334.418 24.2109 335.918 23.1211C 337.43 22.0195 339.551 21.4688 342.281 21.4688L 345.445 21.4688L 345.445 19.9746C 345.445 18.8379 345.105 17.9355 344.426 17.2676C 343.746 16.5879 342.744 16.248 341.42 16.248C 340.26 16.248 339.287 16.541 338.502 17.127C 337.717 17.7129 337.324 18.4219 337.324 19.2539L 334.055 19.2539C 334.055 18.3047 334.389 17.3906 335.057 16.5117C 335.736 15.6211 336.65 14.918 337.799 14.4023C 338.959 13.8867 340.23 13.6289 341.613 13.6289C 343.805 13.6289 345.521 14.1797 346.764 15.2812C 348.006 16.3711 348.65 17.877 348.697 19.7988L 348.697 28.5527C 348.697 30.2988 348.92 31.6875 349.365 32.7188L 349.365 33L 345.955 33ZM 340.559 30.5215C 341.578 30.5215 342.545 30.2578 343.459 29.7305C 344.373 29.2031 345.035 28.5176 345.445 27.6738L 345.445 23.7715L 342.896 23.7715C 338.912 23.7715 336.92 24.9375 336.92 27.2695C 336.92 28.2891 337.26 29.0859 337.939 29.6602C 338.619 30.2344 339.492 30.5215 340.559 30.5215ZM 361.424 30.6973C 362.584 30.6973 363.598 30.3457 364.465 29.6426C 365.332 28.9395 365.812 28.0605 365.906 27.0059L 368.982 27.0059C 368.924 28.0957 368.549 29.1328 367.857 30.1172C 367.166 31.1016 366.24 31.8867 365.08 32.4727C 363.932 33.0586 362.713 33.3516 361.424 33.3516C 358.834 33.3516 356.771 32.4902 355.236 30.7676C 353.713 29.0332 352.951 26.666 352.951 23.666L 352.951 23.1211C 352.951 21.2695 353.291 19.623 353.971 18.1816C 354.65 16.7402 355.623 15.6211 356.889 14.8242C 358.166 14.0273 359.672 13.6289 361.406 13.6289C 363.539 13.6289 365.309 14.2676 366.715 15.5449C 368.133 16.8223 368.889 18.4805 368.982 20.5195L 365.906 20.5195C 365.812 19.2891 365.344 18.2812 364.5 17.4961C 363.668 16.6992 362.637 16.3008 361.406 16.3008C 359.754 16.3008 358.471 16.8984 357.557 18.0938C 356.654 19.2773 356.203 20.9941 356.203 23.2441L 356.203 23.8594C 356.203 26.0508 356.654 27.7383 357.557 28.9219C 358.459 30.1055 359.748 30.6973 361.424 30.6973ZM 377.947 24.1934L 375.908 26.3203L 375.908 33L 372.656 33L 372.656 6L 375.908 6L 375.908 22.3301L 377.648 20.2383L 383.572 13.9805L 387.527 13.9805L 380.127 21.9258L 388.389 33L 384.574 33L 377.947 24.1934ZM 414.791 21.1699L 403.699 21.1699L 403.699 30.2402L 416.584 30.2402L 416.584 33L 400.324 33L 400.324 7.40625L 416.408 7.40625L 416.408 10.1836L 403.699 10.1836L 403.699 18.4102L 414.791 18.4102L 414.791 21.1699ZM 423.352 13.9805L 423.457 16.3711C 424.91 14.543 426.809 13.6289 429.152 13.6289C 433.172 13.6289 435.199 15.8965 435.234 20.4316L 435.234 33L 431.982 33L 431.982 20.4141C 431.971 19.043 431.654 18.0293 431.033 17.373C 430.424 16.7168 429.469 16.3887 428.168 16.3887C 427.113 16.3887 426.188 16.6699 425.391 17.2324C 424.594 17.7949 423.973 18.5332 423.527 19.4473L 423.527 33L 420.275 33L 420.275 13.9805L 423.352 13.9805ZM 439.348 23.332C 439.348 20.4141 440.039 18.0703 441.422 16.3008C 442.805 14.5195 444.615 13.6289 446.854 13.6289C 449.08 13.6289 450.844 14.3906 452.145 15.9141L 452.145 6L 455.396 6L 455.396 33L 452.408 33L 452.25 30.9609C 450.949 32.5547 449.139 33.3516 446.818 33.3516C 444.615 33.3516 442.816 32.4492 441.422 30.6445C 440.039 28.8398 439.348 26.4844 439.348 23.5781L 439.348 23.332ZM 442.6 23.7012C 442.6 25.8574 443.045 27.5449 443.936 28.7637C 444.826 29.9824 446.057 30.5918 447.627 30.5918C 449.689 30.5918 451.195 29.666 452.145 27.8145L 452.145 19.0781C 451.172 17.2852 449.678 16.3887 447.662 16.3887C 446.068 16.3887 444.826 17.0039 443.936 18.2344C 443.045 19.4648 442.6 21.2871 442.6 23.7012Z"/>
</defs>
</svg>
