<svg width="1658" height="1324" viewBox="0 0 1658 1324" fill="none" xmlns="http://www.w3.org/2000/svg">
<path fill-rule="evenodd" clip-rule="evenodd" d="M1658 0H0V245H1658V0ZM298.623 54.8506H602.742V193.806H298.623V54.8506ZM936.174 54.8506H632.055V193.806H936.174V54.8506ZM965.487 54.8506H1269.61V193.806H965.487V54.8506ZM1298.92 54.8506H1603.04V193.806H1298.92V54.8506Z" transform="translate(0 300)" fill="white"/>
<rect width="272" height="272" fill="white"/>
<rect width="392" height="751" transform="translate(0 573)" fill="white"/>
<rect width="392" height="751" transform="translate(1266 573)" fill="white"/>
<rect width="1358" height="272" transform="translate(300)" fill="white"/>
<path fill-rule="evenodd" clip-rule="evenodd" d="M821 0H0V751H821V0ZM31 33H678V67H31V33ZM31 93H778V127H31V93ZM592 153H31V187H592V153ZM31 213H648V247H31V213ZM558 273H31V307H558V273ZM31 333H678V367H31V333ZM778 393H31V427H778V393ZM31 453H592V487H31V453ZM648 513H31V547H648V513ZM31 573H558V607H31V573Z" transform="translate(419 573)" fill="white"/>
</svg>
