<svg width="1008" height="1433" viewBox="0 0 1008 1433" fill="none" xmlns="http://www.w3.org/2000/svg">
<path d="M256 1049L512 1177V1433L256 1305V1049Z" fill="#FCFCFC"/>
<path d="M512 1177L1008 901V1149L512 1433V1177Z" fill="#E8E8E8"/>
<path d="M256 1049.5L752.5 774L1008 901.5L512 1177.5L256 1049.5Z" fill="#F0F0F0"/>
<path fill-rule="evenodd" clip-rule="evenodd" d="M622 1033V1035H621.937C619.996 1065.55 573.757 1090 517 1090C460.243 1090 414.004 1065.55 412.063 1035H412V1033V1009H421.733C438.422 989.512 474.804 976 517 976C559.196 976 595.578 989.512 612.267 1009H622V1033Z" fill="#E8E8E8"/>
<path fill-rule="evenodd" clip-rule="evenodd" d="M745 968C802.99 968 850 942.48 850 911V885H838.465C821.055 866.593 785.737 854 745 854C704.263 854 668.945 866.593 651.535 885H640V911C640 942.48 687.01 968 745 968Z" fill="#E8E8E8"/>
<ellipse cx="517" cy="1009" rx="105" ry="57" fill="white"/>
<ellipse cx="745" cy="887" rx="105" ry="57" fill="white"/>
<path d="M0 628L256 756V1012L0 884V628Z" fill="#FCFCFC"/>
<path d="M256 756L752 480V728L256 1012V756Z" fill="#E8E8E8"/>
<path d="M0 628.5L496.5 353L752 480.5L256 756.5L0 628.5Z" fill="#F0F0F0"/>
<path fill-rule="evenodd" clip-rule="evenodd" d="M366 612V614H365.937C363.996 644.554 317.757 669 261 669C204.243 669 158.004 644.554 156.063 614H156V612V588H165.733C182.422 568.512 218.804 555 261 555C303.196 555 339.578 568.512 356.267 588H366V612Z" fill="#E8E8E8"/>
<path fill-rule="evenodd" clip-rule="evenodd" d="M489 547C546.99 547 594 521.48 594 490V464H582.465C565.055 445.593 529.737 433 489 433C448.263 433 412.945 445.593 395.535 464H384V490C384 521.48 431.01 547 489 547Z" fill="#E8E8E8"/>
<ellipse cx="261" cy="588" rx="105" ry="57" fill="white"/>
<ellipse cx="489" cy="466" rx="105" ry="57" fill="white"/>
<path d="M1008 659L752 787V1043L1008 915V659Z" fill="#FCFCFC"/>
<path d="M1008 384L752 512V768L1008 640V384Z" fill="#FCFCFC"/>
<path d="M752 787L256 511V759L752 1043V787Z" fill="#E8E8E8"/>
<path d="M1008 659.159L511.5 384L256 511.342L752 787L1008 659.159Z" fill="#F0F0F0"/>
<path fill-rule="evenodd" clip-rule="evenodd" d="M642 643V645H642.063C644.004 675.554 690.243 700 747 700C803.757 700 849.996 675.554 851.937 645H852V643V619H842.267C825.578 599.512 789.196 586 747 586C704.804 586 668.422 599.512 651.733 619H642V643Z" fill="#E8E8E8"/>
<path fill-rule="evenodd" clip-rule="evenodd" d="M519 578C461.01 578 414 552.48 414 521V495H425.535C442.945 476.593 478.263 464 519 464C559.737 464 595.055 476.593 612.465 495H624V521C624 552.48 576.99 578 519 578Z" fill="#E8E8E8"/>
<ellipse rx="105" ry="57" transform="matrix(-1 0 0 1 747 619)" fill="white"/>
<ellipse rx="105" ry="57" transform="matrix(-1 0 0 1 519 497)" fill="white"/>
<path d="M256 275L512 403V659L256 531V275Z" fill="#FCFCFC"/>
<path d="M512 403L1008 127V375L512 659V403Z" fill="#E8E8E8"/>
<path d="M256 275.5L752.5 0L1008 127.5L512 403.5L256 275.5Z" fill="#F0F0F0"/>
<path fill-rule="evenodd" clip-rule="evenodd" d="M622 259V261H621.937C619.996 291.554 573.757 316 517 316C460.243 316 414.004 291.554 412.063 261H412V259V235H421.733C438.422 215.512 474.804 202 517 202C559.196 202 595.578 215.512 612.267 235H622V259Z" fill="#E8E8E8"/>
<path fill-rule="evenodd" clip-rule="evenodd" d="M745 194C802.99 194 850 168.48 850 137V111H838.465C821.055 92.5935 785.737 80 745 80C704.263 80 668.945 92.5935 651.535 111H640V137C640 168.48 687.01 194 745 194Z" fill="#E8E8E8"/>
<ellipse cx="517" cy="235" rx="105" ry="57" fill="white"/>
<ellipse cx="745" cy="113" rx="105" ry="57" fill="white"/>
</svg>
