<svg width="4176" height="1520" viewBox="0 0 4176 1520" fill="none" xmlns="http://www.w3.org/2000/svg">
<g clip-path="url(#clip0)">
<rect width="4176" height="1520" fill="#E4B612"/>
<path d="M2292 2593C714.81 2593 28 1740.77 28 903.749C28 -346.485 1041.63 -1360 2292 -1360" stroke="white" stroke-width="250"/>
<path d="M2292 -617C3571.73 -617 4129 75.0502 4129 754.742C4129 1769.98 3306.55 2593 2292 2593" stroke="white" stroke-width="250"/>
<path d="M2292 1923C1279.09 1923 838 1375.4 838 837.572C838 34.234 1488.98 -617 2292 -617" stroke="white" stroke-width="250"/>
<path d="M2292 -8.99996C3062.48 -8.9999 3398 407.524 3398 816.609C3398 1427.65 2902.83 1923 2292 1923" stroke="white" stroke-width="250"/>
<path d="M2292 1405C1727.72 1405 1482 1100.15 1482 800.75C1482 353.537 1844.65 -9.00006 2292 -9.00014" stroke="white" stroke-width="250"/>
<path d="M2292 432C2681.42 432 2851 641.771 2851 847.796C2851 1155.53 2600.73 1405 2292 1405" stroke="white" stroke-width="250"/>
<path d="M2292 989C2069.08 989 1972 868.915 1972 750.975C1972 574.81 2115.27 432 2292 432" stroke="white" stroke-width="250"/>
<path d="M2255 711C2365.07 711 2413 770.935 2413 829.799C2413 917.723 2342.26 989 2255 989" stroke="white" stroke-width="250"/>
<path d="M2255 821C2209.72 821 2190 797.285 2190 773.993C2190 739.203 2219.1 711 2255 711" stroke="white" stroke-width="250"/>
</g>
<defs>
<clipPath id="clip0">
<rect width="4176" height="1520" fill="white"/>
</clipPath>
</defs>
</svg>
