<svg width="278" height="44" viewBox="0 0 278 44" version="1.1" xmlns="http://www.w3.org/2000/svg" xmlns:xlink="http://www.w3.org/1999/xlink">
<title>Union</title>
<desc>Created using Figma</desc>
<g id="Canvas" transform="translate(-4992 279)">
<g id="Union">
<use xlink:href="#path0_fill" transform="translate(4992.59 -279)" fill="#FFFFFF"/>
</g>
</g>
<defs>
<path id="path0_fill" fill-rule="evenodd" d="M 276.103 43L 277.025 44L 275.665 44L 1.37842 44L 0 44L 0.94873 43L 41.7437 0L 236.41 0L 276.103 43ZM 235.972 1L 274.741 43L 2.32715 43L 42.1733 1L 235.972 1ZM 52.293 23.8281L 54.3477 23.8281L 54.7422 25L 55.9883 25L 53.8594 19.3125L 52.7734 19.3125L 50.6562 25L 51.9023 25L 52.293 23.8281ZM 54.0312 22.8789L 52.6094 22.8789L 53.3164 20.75L 54.0312 22.8789ZM 59.5117 23.4375L 58.0508 19.3125L 56.5195 19.3125L 56.5195 25L 57.6914 25L 57.6914 23.4453L 57.5742 20.7656L 59.1055 25L 59.9102 25L 61.4453 20.7617L 61.3281 23.4453L 61.3281 25L 62.5039 25L 62.5039 19.3125L 60.9648 19.3125L 59.5117 23.4375ZM 63.6016 25L 64.7734 25L 64.7734 19.3125L 63.6016 19.3125L 63.6016 25ZM 69.9727 24.0586L 67.1055 24.0586L 69.9102 19.9844L 69.9102 19.3125L 65.6445 19.3125L 65.6445 20.2617L 68.4531 20.2617L 65.6406 24.3125L 65.6406 25L 69.9727 25L 69.9727 24.0586ZM 71.9258 23.8281L 73.9805 23.8281L 74.375 25L 75.6211 25L 73.4922 19.3125L 72.4062 19.3125L 70.2891 25L 71.5352 25L 71.9258 23.8281ZM 73.6641 22.8789L 72.2422 22.8789L 72.9492 20.75L 73.6641 22.8789ZM 76.1523 19.3125L 76.1523 25L 77.9141 25C 78.4116 24.9974 78.8579 24.8828 79.2539 24.6562C 79.6499 24.4297 79.9556 24.1107 80.1719 23.6992C 80.3906 23.2878 80.5 22.8177 80.5 22.2891L 80.5 22.0273C 80.5 21.4987 80.3892 21.0273 80.168 20.6133C 79.9468 20.1966 79.6382 19.8763 79.2422 19.6523C 78.8491 19.4258 78.4023 19.3125 77.9023 19.3125L 76.1523 19.3125ZM 77.3242 24.0586L 77.3242 20.2617L 77.9023 20.2617C 78.3633 20.2617 78.7134 20.4115 78.9531 20.7109C 79.1929 21.0078 79.3125 21.4453 79.3125 22.0234L 79.3125 22.3242C 79.3071 22.8815 79.1836 23.3099 78.9414 23.6094C 78.6992 23.9089 78.3491 24.0586 77.8906 24.0586L 77.3242 24.0586ZM 82.5273 22.5352L 84.7773 22.5352L 84.7773 21.6172L 82.5273 21.6172L 82.5273 20.2617L 85.1602 20.2617L 85.1602 19.3125L 81.3555 19.3125L 81.3555 25L 85.168 25L 85.168 24.0586L 82.5273 24.0586L 82.5273 22.5352ZM 88.5703 23C 88.7266 23.1172 88.8047 23.2865 88.8047 23.5078C 88.8047 23.6111 88.7847 23.7029 88.7441 23.7833C 88.7051 23.8611 88.647 23.9281 88.5703 23.9844C 88.4141 24.0964 88.1968 24.1523 87.918 24.1523C 87.168 24.1523 86.793 23.8385 86.793 23.2109L 85.6172 23.2109C 85.6172 23.5781 85.7109 23.901 85.8984 24.1797C 86.0884 24.4583 86.3633 24.6784 86.7227 24.8398C 87.082 24.9987 87.4805 25.0781 87.918 25.0781C 88.5483 25.0781 89.0493 24.9388 89.4219 24.6602C 89.7944 24.3789 89.9805 23.9922 89.9805 23.5C 89.9805 23.0573 89.8281 22.6875 89.5234 22.3906C 89.2188 22.0938 88.7329 21.8451 88.0664 21.6445C 87.7046 21.5352 87.4297 21.418 87.2422 21.293C 87.0571 21.168 86.9648 21.013 86.9648 20.8281C 86.9648 20.6302 87.0444 20.4713 87.2031 20.3516C 87.3618 20.2292 87.5845 20.168 87.8711 20.168C 88.168 20.168 88.3984 20.2409 88.5625 20.3867C 88.7266 20.5299 88.8086 20.7318 88.8086 20.9922L 89.9805 20.9922C 89.9805 20.651 89.8921 20.3463 89.7148 20.0781C 89.5405 19.8099 89.2944 19.6029 88.9766 19.457C 88.6587 19.3086 88.2969 19.2344 87.8906 19.2344C 87.4868 19.2344 87.1226 19.3021 86.7969 19.4375C 86.4741 19.5729 86.2251 19.7617 86.0508 20.0039C 85.8789 20.2435 85.793 20.5169 85.793 20.8242C 85.793 21.4154 86.1157 21.8854 86.7617 22.2344C 86.9985 22.362 87.3203 22.4922 87.7266 22.625C 88.1328 22.7552 88.4141 22.8802 88.5703 23ZM 90.4062 26.1172L 90.9961 26.4258C 91.124 26.3159 91.2383 26.1896 91.3398 26.0468C 91.4165 25.939 91.4854 25.8218 91.5469 25.6953C 91.6899 25.401 91.7632 25.1094 91.7656 24.8203L 91.7695 24.0391L 90.8164 24.0391L 90.8164 24.9141C 90.811 25.2292 90.7212 25.5456 90.5469 25.8633L 90.4062 26.1172ZM 95.8945 22.6758L 98.1445 22.6758L 98.1445 21.7305L 95.8945 21.7305L 95.8945 20.2617L 98.4258 20.2617L 98.4258 19.3125L 94.7227 19.3125L 94.7227 25L 95.8945 25L 95.8945 22.6758ZM 99.5117 23.8281L 101.566 23.8281L 101.961 25L 103.207 25L 101.078 19.3125L 99.9922 19.3125L 97.875 25L 99.1211 25L 99.5117 23.8281ZM 101.25 22.8789L 99.8281 22.8789L 100.535 20.75L 101.25 22.8789ZM 106.73 23.4375L 105.27 19.3125L 103.738 19.3125L 103.738 25L 104.91 25L 104.91 23.4453L 104.793 20.7656L 106.324 25L 107.129 25L 108.664 20.7617L 108.547 23.4453L 108.547 25L 109.723 25L 109.723 19.3125L 108.184 19.3125L 106.73 23.4375ZM 110.82 25L 111.992 25L 111.992 19.3125L 110.82 19.3125L 110.82 25ZM 112.859 17.7773L 111.629 17.7773L 110.859 18.9883L 111.777 18.9883L 112.859 17.7773ZM 116.742 24.0586L 114.254 24.0586L 114.254 19.3125L 113.082 19.3125L 113.082 25L 116.742 25L 116.742 24.0586ZM 117.492 25L 118.664 25L 118.664 19.3125L 117.492 19.3125L 117.492 25ZM 120.98 23.8281L 123.035 23.8281L 123.43 25L 124.676 25L 122.547 19.3125L 121.461 19.3125L 119.344 25L 120.59 25L 120.98 23.8281ZM 122.719 22.8789L 121.297 22.8789L 122.004 20.75L 122.719 22.8789ZM 124.836 26.1172L 125.426 26.4258C 125.65 26.2331 125.833 25.9896 125.977 25.6953C 126.12 25.401 126.193 25.1094 126.195 24.8203L 126.199 24.0391L 125.246 24.0391L 125.246 24.9141C 125.241 25.2292 125.151 25.5456 124.977 25.8633L 124.836 26.1172ZM 130.309 23.8281L 132.363 23.8281L 132.758 25L 134.004 25L 131.875 19.3125L 130.789 19.3125L 128.672 25L 129.918 25L 130.309 23.8281ZM 132.047 22.8789L 130.625 22.8789L 131.332 20.75L 132.047 22.8789ZM 137.527 23.4375L 136.066 19.3125L 134.535 19.3125L 134.535 25L 135.707 25L 135.707 23.4453L 135.59 20.7656L 137.121 25L 137.926 25L 139.461 20.7617L 139.344 23.4453L 139.344 25L 140.52 25L 140.52 19.3125L 138.98 19.3125L 137.527 23.4375ZM 145.918 23.7578C 146.116 23.3359 146.215 22.8451 146.215 22.2852L 146.215 22.0312C 146.215 21.474 146.113 20.9831 145.91 20.5586C 145.709 20.1315 145.424 19.8047 145.055 19.5781C 144.688 19.349 144.267 19.2344 143.793 19.2344C 143.319 19.2344 142.897 19.349 142.527 19.5781C 142.16 19.8047 141.875 20.1315 141.672 20.5586C 141.471 20.9831 141.371 21.4753 141.371 22.0352L 141.371 22.3164C 141.374 22.8633 141.477 23.3477 141.68 23.7695C 141.883 24.1888 142.169 24.5117 142.539 24.7383C 142.909 24.9648 143.33 25.0781 143.801 25.0781C 144.277 25.0781 144.699 24.9635 145.066 24.7344C 145.436 24.5052 145.72 24.1797 145.918 23.7578ZM 144.707 20.668C 144.92 20.9779 145.027 21.431 145.027 22.0273L 145.027 22.3047C 145.025 22.8958 144.918 23.3464 144.707 23.6562C 144.496 23.9635 144.194 24.1172 143.801 24.1172C 143.4 24.1172 143.092 23.957 142.879 23.6367C 142.666 23.3164 142.559 22.8659 142.559 22.2852L 142.559 22.0078C 142.561 21.4167 142.669 20.9688 142.883 20.6641C 143.096 20.3568 143.4 20.2031 143.793 20.2031C 144.189 20.2031 144.494 20.3581 144.707 20.668ZM 148.238 22.918L 149.172 22.918L 150.238 25L 151.496 25L 151.496 24.9453L 150.266 22.6211C 150.607 22.4674 150.861 22.2617 151.027 22.0039C 151.197 21.7435 151.281 21.4193 151.281 21.0312C 151.281 20.4844 151.099 20.0612 150.734 19.7617C 150.37 19.4622 149.852 19.3125 149.18 19.3125L 147.066 19.3125L 147.066 25L 148.238 25L 148.238 22.918ZM 149.184 21.9688L 148.238 21.9688L 148.238 20.2617L 149.18 20.2617C 149.495 20.2617 149.728 20.3385 149.879 20.4922C 150.033 20.6458 150.109 20.8568 150.109 21.125C 150.109 21.388 150.029 21.5951 149.867 21.7461C 149.706 21.8945 149.478 21.9688 149.184 21.9688ZM 151.805 26.1172L 152.395 26.4258C 152.619 26.2331 152.802 25.9896 152.945 25.6953C 153.088 25.401 153.162 25.1094 153.164 24.8203L 153.168 24.0391L 152.215 24.0391L 152.215 24.9141C 152.209 25.2292 152.12 25.5456 151.945 25.8633L 151.805 26.1172ZM 156.195 25L 157.367 25L 157.367 19.3125L 156.195 19.3125L 156.195 25ZM 161.91 25L 163.082 25L 163.082 19.3125L 161.914 19.3125L 161.914 23.0625L 159.629 19.3125L 158.457 19.3125L 158.457 25L 159.629 25L 159.629 21.2578L 161.91 25ZM 166.527 20.2617L 168.27 20.2617L 168.27 19.3125L 163.637 19.3125L 163.637 20.2617L 165.355 20.2617L 165.355 25L 166.527 25L 166.527 20.2617ZM 169.016 25L 170.188 25L 170.188 19.3125L 169.016 19.3125L 169.016 25ZM 174.27 23.4375L 172.809 19.3125L 171.277 19.3125L 171.277 25L 172.449 25L 172.449 23.4453L 172.332 20.7656L 173.863 25L 174.668 25L 176.203 20.7617L 176.086 23.4453L 176.086 25L 177.262 25L 177.262 19.3125L 175.723 19.3125L 174.27 23.4375ZM 178.359 25L 179.531 25L 179.531 19.3125L 178.359 19.3125L 178.359 25ZM 180.621 19.3125L 180.621 25L 182.383 25C 182.88 24.9974 183.327 24.8828 183.723 24.6562C 184.119 24.4297 184.424 24.1107 184.641 23.6992C 184.859 23.2878 184.969 22.8177 184.969 22.2891L 184.969 22.0273C 184.969 21.4987 184.858 21.0273 184.637 20.6133C 184.416 20.1966 184.107 19.8763 183.711 19.6523C 183.318 19.4258 182.871 19.3125 182.371 19.3125L 180.621 19.3125ZM 181.793 24.0586L 181.793 20.2617L 182.371 20.2617C 182.832 20.2617 183.182 20.4115 183.422 20.7109C 183.662 21.0078 183.781 21.4453 183.781 22.0234L 183.781 22.3242C 183.776 22.8815 183.652 23.3099 183.41 23.6094C 183.168 23.9089 182.818 24.0586 182.359 24.0586L 181.793 24.0586ZM 186.895 23.8281L 188.949 23.8281L 189.344 25L 190.59 25L 188.461 19.3125L 187.375 19.3125L 185.258 25L 186.504 25L 186.895 23.8281ZM 188.633 22.8789L 187.211 22.8789L 187.918 20.75L 188.633 22.8789ZM 191.121 19.3125L 191.121 25L 192.883 25C 193.38 24.9974 193.827 24.8828 194.223 24.6562C 194.619 24.4297 194.924 24.1107 195.141 23.6992C 195.359 23.2878 195.469 22.8177 195.469 22.2891L 195.469 22.0273C 195.469 21.4987 195.358 21.0273 195.137 20.6133C 194.916 20.1966 194.607 19.8763 194.211 19.6523C 193.818 19.4258 193.371 19.3125 192.871 19.3125L 191.121 19.3125ZM 192.293 24.0586L 192.293 20.2617L 192.871 20.2617C 193.332 20.2617 193.682 20.4115 193.922 20.7109C 194.162 21.0078 194.281 21.4453 194.281 22.0234L 194.281 22.3242C 194.276 22.8815 194.152 23.3099 193.91 23.6094C 193.668 23.9089 193.318 24.0586 192.859 24.0586L 192.293 24.0586ZM 197.496 22.5352L 199.746 22.5352L 199.746 21.6172L 197.496 21.6172L 197.496 20.2617L 200.129 20.2617L 200.129 19.3125L 196.324 19.3125L 196.324 25L 200.137 25L 200.137 24.0586L 197.496 24.0586L 197.496 22.5352ZM 200.453 26.1172L 201.043 26.4258C 201.267 26.2331 201.451 25.9896 201.594 25.6953C 201.737 25.401 201.81 25.1094 201.812 24.8203L 201.816 24.0391L 200.863 24.0391L 200.863 24.9141C 200.858 25.2292 200.768 25.5456 200.594 25.8633L 200.453 26.1172ZM 207.484 23C 207.641 23.1172 207.719 23.2865 207.719 23.5078C 207.719 23.7109 207.641 23.8698 207.484 23.9844C 207.328 24.0964 207.111 24.1523 206.832 24.1523C 206.082 24.1523 205.707 23.8385 205.707 23.2109L 204.531 23.2109C 204.531 23.5781 204.625 23.901 204.812 24.1797C 205.002 24.4583 205.277 24.6784 205.637 24.8398C 205.996 24.9987 206.395 25.0781 206.832 25.0781C 207.462 25.0781 207.963 24.9388 208.336 24.6602C 208.708 24.3789 208.895 23.9922 208.895 23.5C 208.895 23.0573 208.742 22.6875 208.438 22.3906C 208.133 22.0938 207.647 21.8451 206.98 21.6445C 206.619 21.5352 206.344 21.418 206.156 21.293C 205.971 21.168 205.879 21.013 205.879 20.8281C 205.879 20.6302 205.958 20.4713 206.117 20.3516C 206.276 20.2292 206.499 20.168 206.785 20.168C 207.082 20.168 207.312 20.2409 207.477 20.3867C 207.641 20.5299 207.723 20.7318 207.723 20.9922L 208.895 20.9922C 208.895 20.651 208.806 20.3463 208.629 20.0781C 208.455 19.8099 208.208 19.6029 207.891 19.457C 207.573 19.3086 207.211 19.2344 206.805 19.2344C 206.401 19.2344 206.037 19.3021 205.711 19.4375C 205.388 19.5729 205.139 19.7617 204.965 20.0039C 204.855 20.1572 204.78 20.3244 204.74 20.5054C 204.718 20.6073 204.707 20.7136 204.707 20.8242C 204.707 21.4154 205.03 21.8854 205.676 22.2344C 205.913 22.362 206.234 22.4922 206.641 22.625C 207.047 22.7552 207.328 22.8802 207.484 23ZM 210.863 22.5352L 213.113 22.5352L 213.113 21.6172L 210.863 21.6172L 210.863 20.2617L 213.496 20.2617L 213.496 19.3125L 209.691 19.3125L 209.691 25L 213.504 25L 213.504 24.0586L 210.863 24.0586L 210.863 22.5352ZM 217.293 19.3125L 216.227 21.2734L 215.16 19.3125L 213.812 19.3125L 215.469 22.1328L 213.77 25L 215.133 25L 216.227 23.0078L 217.32 25L 218.684 25L 216.984 22.1328L 218.641 19.3125L 217.293 19.3125ZM 223.551 23.7578C 223.749 23.3359 223.848 22.8451 223.848 22.2852L 223.848 22.0312C 223.848 21.474 223.746 20.9831 223.543 20.5586C 223.342 20.1315 223.057 19.8047 222.688 19.5781C 222.32 19.349 221.9 19.2344 221.426 19.2344C 220.952 19.2344 220.53 19.349 220.16 19.5781C 219.793 19.8047 219.508 20.1315 219.305 20.5586C 219.104 20.9831 219.004 21.4753 219.004 22.0352L 219.004 22.3164C 219.006 22.8633 219.109 23.3477 219.312 23.7695C 219.516 24.1888 219.802 24.5117 220.172 24.7383C 220.542 24.9648 220.962 25.0781 221.434 25.0781C 221.91 25.0781 222.332 24.9635 222.699 24.7344C 223.069 24.5052 223.353 24.1797 223.551 23.7578ZM 222.34 20.668C 222.553 20.9779 222.66 21.431 222.66 22.0273L 222.66 22.3047C 222.658 22.8958 222.551 23.3464 222.34 23.6562C 222.129 23.9635 221.827 24.1172 221.434 24.1172C 221.033 24.1172 220.725 23.957 220.512 23.6367C 220.298 23.3164 220.191 22.8659 220.191 22.2852L 220.191 22.0078C 220.194 21.4167 220.302 20.9688 220.516 20.6641C 220.729 20.3568 221.033 20.2031 221.426 20.2031C 221.822 20.2031 222.126 20.3581 222.34 20.668Z"/>
</defs>
</svg>
