<svg width="361" height="44" viewBox="0 0 361 44" version="1.1" xmlns="http://www.w3.org/2000/svg" xmlns:xlink="http://www.w3.org/1999/xlink">
<title>Subtract</title>
<desc>Created using Figma</desc>
<g id="Canvas" transform="translate(-4496 232)">
<g id="Subtract">
<use xlink:href="#path0_fill" transform="translate(4496.85 -232)" fill="#FFFFFF"/>
</g>
</g>
<defs>
<path id="path0_fill" fill-rule="evenodd" d="M 0 44L 359.385 44L 318.769 0L 41.7437 0L 0 44ZM 155.371 22.5C 155.566 22.6465 155.664 22.8581 155.664 23.1348C 155.664 23.3887 155.566 23.5872 155.371 23.7305C 155.175 23.8704 154.903 23.9404 154.555 23.9404C 153.618 23.9404 153.149 23.5482 153.149 22.7637L 151.679 22.7637C 151.679 23.2227 151.796 23.6263 152.031 23.9746C 152.269 24.3229 152.612 24.598 153.061 24.7998C 153.51 24.9984 154.008 25.0977 154.555 25.0977C 155.343 25.0977 155.97 24.9235 156.435 24.5752C 156.9 24.2236 157.133 23.7402 157.133 23.125C 157.133 22.5716 156.943 22.1094 156.562 21.7383C 156.181 21.3672 155.574 21.0563 154.741 20.8057C 154.288 20.6689 153.945 20.5225 153.71 20.3662C 153.479 20.21 153.364 20.0163 153.364 19.7852C 153.364 19.5378 153.463 19.3392 153.662 19.1895C 153.86 19.0365 154.139 18.96 154.497 18.96C 154.868 18.96 155.156 19.0511 155.361 19.2334C 155.566 19.4124 155.668 19.6647 155.668 19.9902L 157.133 19.9902C 157.133 19.5638 157.022 19.1829 156.801 18.8477C 156.583 18.5124 156.275 18.2536 155.878 18.0713C 155.481 17.8857 155.029 17.793 154.521 17.793C 154.017 17.793 153.561 17.8776 153.154 18.0469C 152.75 18.2161 152.439 18.4521 152.221 18.7549C 152.006 19.0544 151.899 19.3962 151.899 19.7803C 151.899 20.5192 152.303 21.1068 153.11 21.543C 153.406 21.7025 153.808 21.8652 154.316 22.0312C 154.824 22.194 155.175 22.3503 155.371 22.5ZM 159.594 21.9189L 162.407 21.9189L 162.407 20.7715L 159.594 20.7715L 159.594 19.0771L 162.885 19.0771L 162.885 17.8906L 158.129 17.8906L 158.129 25L 162.895 25L 162.895 23.8232L 159.594 23.8232L 159.594 21.9189ZM 168.261 24.8389C 168.743 24.6631 169.116 24.4173 169.379 24.1016L 169.379 21.2646L 166.582 21.2646L 166.582 22.3438L 167.915 22.3438L 167.915 23.5693C 167.68 23.8037 167.288 23.9209 166.738 23.9209C 166.191 23.9209 165.776 23.7305 165.493 23.3496C 165.209 22.9688 165.068 22.4056 165.068 21.6602L 165.068 21.2061C 165.071 20.4671 165.203 19.9105 165.463 19.5361C 165.724 19.1618 166.103 18.9746 166.601 18.9746C 166.992 18.9746 167.298 19.069 167.519 19.2578C 167.744 19.4466 167.889 19.7445 167.954 20.1514L 169.379 20.1514C 169.292 19.3831 169.01 18.7988 168.535 18.3984C 168.06 17.9948 167.4 17.793 166.557 17.793C 165.952 17.793 165.423 17.9313 164.97 18.208C 164.521 18.4814 164.176 18.8786 163.935 19.3994C 163.697 19.917 163.579 20.5306 163.579 21.2402L 163.579 21.7236C 163.585 22.4137 163.714 23.0143 163.964 23.5254C 164.218 24.0365 164.576 24.4271 165.039 24.6973C 165.504 24.9642 166.044 25.0977 166.66 25.0977C 167.246 25.0977 167.779 25.0114 168.261 24.8389ZM 175.952 22.5732L 175.952 17.8906L 174.482 17.8906L 174.482 22.6221C 174.469 23.488 174.051 23.9209 173.227 23.9209C 172.833 23.9209 172.524 23.8151 172.299 23.6035C 172.078 23.3887 171.967 23.0485 171.967 22.583L 171.967 17.8906L 170.502 17.8906L 170.502 22.627C 170.512 23.3952 170.761 23.999 171.25 24.4385C 171.738 24.8779 172.397 25.0977 173.227 25.0977C 174.07 25.0977 174.734 24.8714 175.219 24.4189C 175.708 23.9665 175.952 23.3512 175.952 22.5732ZM 178.618 22.3975L 179.785 22.3975L 181.118 25L 182.69 25L 182.69 24.9316L 181.152 22.0264C 181.578 21.8343 181.896 21.5771 182.104 21.2549C 182.315 20.9294 182.421 20.5241 182.421 20.0391C 182.421 19.3555 182.193 18.8265 181.738 18.4521C 181.282 18.0778 180.634 17.8906 179.794 17.8906L 177.153 17.8906L 177.153 25L 178.618 25L 178.618 22.3975ZM 179.799 21.2109L 178.618 21.2109L 178.618 19.0771L 179.794 19.0771C 180.188 19.0771 180.479 19.1732 180.668 19.3652C 180.86 19.5573 180.957 19.821 180.957 20.1562C 180.957 20.485 180.855 20.7438 180.654 20.9326C 180.452 21.1182 180.167 21.2109 179.799 21.2109ZM 184.985 23.5352L 187.553 23.5352L 188.046 25L 189.604 25L 186.943 17.8906L 185.585 17.8906L 182.939 25L 184.497 25L 184.985 23.5352ZM 187.158 22.3486L 185.38 22.3486L 186.264 19.6875L 187.158 22.3486ZM 194.584 25L 196.049 25L 196.049 17.8906L 194.589 17.8906L 194.589 22.5781L 191.733 17.8906L 190.268 17.8906L 190.268 25L 191.733 25L 191.733 20.3223L 194.584 25ZM 202.06 24.4385C 202.571 23.999 202.854 23.3968 202.91 22.6318L 201.445 22.6318C 201.412 23.0648 201.284 23.3854 201.059 23.5938C 200.838 23.7988 200.501 23.9014 200.048 23.9014C 199.547 23.9014 199.179 23.724 198.945 23.3691C 198.714 23.0143 198.598 22.4528 198.598 21.6846L 198.598 21.1475C 198.604 20.4118 198.729 19.8698 198.969 19.5215C 199.213 19.1699 199.58 18.9941 200.068 18.9941C 200.517 18.9941 200.851 19.0983 201.069 19.3066C 201.29 19.5117 201.419 19.8438 201.455 20.3027L 202.919 20.3027C 202.841 19.5085 202.552 18.8916 202.05 18.4521C 201.549 18.0127 200.888 17.793 200.068 17.793C 199.476 17.793 198.955 17.9329 198.505 18.2129C 198.06 18.4896 197.716 18.8883 197.475 19.4092C 197.234 19.93 197.114 20.5322 197.114 21.2158L 197.114 21.6504C 197.114 22.7214 197.374 23.5645 197.895 24.1797C 198.312 24.6661 198.851 24.9592 199.512 25.059L 199.379 25.6689C 199.624 25.6852 199.799 25.7178 199.907 25.7666C 200.018 25.8187 200.073 25.9131 200.073 26.0498C 200.073 26.3135 199.891 26.4453 199.526 26.4453L 199.56 27.2607C 200.101 27.2607 200.519 27.1566 200.815 26.9482C 201.114 26.7399 201.264 26.4567 201.264 26.0986C 201.264 25.6234 201.02 25.3418 200.532 25.2539L 200.567 25.0667C 201.165 24.9921 201.662 24.7827 202.06 24.4385ZM 205.317 23.5352L 207.885 23.5352L 208.378 25L 209.936 25L 207.275 17.8906L 205.917 17.8906L 203.271 25L 204.829 25L 205.317 23.5352ZM 207.49 22.3486L 205.712 22.3486L 206.596 19.6875L 207.49 22.3486Z"/>
</defs>
</svg>
