<svg width="438" height="42" viewBox="0 0 438 42" version="1.1" xmlns="http://www.w3.org/2000/svg" xmlns:xlink="http://www.w3.org/1999/xlink">
<title>Subtract</title>
<desc>Created using Figma</desc>
<g id="Canvas" transform="translate(-4457 185)">
<g id="Subtract">
<use xlink:href="#path0_fill" transform="translate(4457 -185)" fill="#FFFFFF"/>
</g>
</g>
<defs>
<path id="path0_fill" fill-rule="evenodd" d="M 438 42L 0 42L 39.8462 0L 399.231 0L 438 42ZM 189.826 19.0947L 192.639 19.0947L 192.639 17.9131L 189.826 17.9131L 189.826 16.0771L 192.99 16.0771L 192.99 14.8906L 188.361 14.8906L 188.361 22L 189.826 22L 189.826 19.0947ZM 193.933 22L 195.397 22L 195.397 14.8906L 193.933 14.8906L 193.933 22ZM 200.153 19.5C 200.349 19.6465 200.446 19.8581 200.446 20.1348C 200.446 20.3887 200.349 20.5872 200.153 20.7305C 199.958 20.8704 199.686 20.9404 199.338 20.9404C 198.4 20.9404 197.932 20.5482 197.932 19.7637L 196.462 19.7637C 196.462 20.2227 196.579 20.6263 196.813 20.9746C 197.051 21.3229 197.395 21.598 197.844 21.7998C 198.293 21.9984 198.791 22.0977 199.338 22.0977C 200.125 22.0977 200.752 21.9235 201.218 21.5752C 201.683 21.2236 201.916 20.7402 201.916 20.125C 201.916 19.5716 201.726 19.1094 201.345 18.7383C 200.964 18.3672 200.357 18.0563 199.523 17.8057C 199.071 17.6689 198.728 17.5225 198.493 17.3662C 198.262 17.21 198.146 17.0163 198.146 16.7852C 198.146 16.5378 198.246 16.3392 198.444 16.1895C 198.643 16.0365 198.921 15.96 199.279 15.96C 199.65 15.96 199.938 16.0511 200.144 16.2334C 200.349 16.4124 200.451 16.6647 200.451 16.9902L 201.916 16.9902C 201.916 16.5638 201.805 16.1829 201.584 15.8477C 201.366 15.5124 201.058 15.2536 200.661 15.0713C 200.264 14.8857 199.812 14.793 199.304 14.793C 198.799 14.793 198.343 14.8776 197.937 15.0469C 197.533 15.2161 197.222 15.4521 197.004 15.7549C 196.789 16.0544 196.682 16.3962 196.682 16.7803C 196.682 17.5192 197.085 18.1068 197.893 18.543C 198.189 18.7025 198.591 18.8652 199.099 19.0312C 199.606 19.194 199.958 19.3503 200.153 19.5ZM 203.005 22L 204.47 22L 204.47 14.8906L 203.005 14.8906L 203.005 22ZM 211.301 20.4473C 211.548 19.9199 211.672 19.3063 211.672 18.6064L 211.672 18.2891C 211.672 17.5925 211.545 16.9788 211.291 16.4482C 211.041 15.9144 210.684 15.5059 210.222 15.2227C 209.763 14.9362 209.237 14.793 208.645 14.793C 208.052 14.793 207.525 14.9362 207.062 15.2227C 206.604 15.5059 206.247 15.9144 205.993 16.4482C 205.743 16.9788 205.617 17.5941 205.617 18.2939L 205.617 18.6455C 205.621 19.3291 205.749 19.9346 206.003 20.4619C 206.257 20.986 206.615 21.3896 207.077 21.6729C 207.54 21.9561 208.065 22.0977 208.654 22.0977C 209.25 22.0977 209.777 21.9544 210.236 21.668C 210.699 21.3815 211.053 20.9746 211.301 20.4473ZM 209.787 16.585C 210.054 16.9723 210.188 17.5387 210.188 18.2842L 210.188 18.6309C 210.184 19.3698 210.051 19.9329 209.787 20.3203C 209.523 20.7044 209.146 20.8965 208.654 20.8965C 208.153 20.8965 207.769 20.6963 207.502 20.2959C 207.235 19.8955 207.102 19.3324 207.102 18.6064L 207.102 18.2598C 207.105 17.5208 207.24 16.9609 207.507 16.5801C 207.774 16.196 208.153 16.0039 208.645 16.0039C 209.139 16.0039 209.52 16.1976 209.787 16.585ZM 217.312 20.8232L 214.201 20.8232L 214.201 14.8906L 212.736 14.8906L 212.736 22L 217.312 22L 217.312 20.8232ZM 223.312 20.4473C 223.56 19.9199 223.684 19.3063 223.684 18.6064L 223.684 18.2891C 223.684 17.5925 223.557 16.9788 223.303 16.4482C 223.052 15.9144 222.696 15.5059 222.233 15.2227C 221.774 14.9362 221.249 14.793 220.656 14.793C 220.064 14.793 219.537 14.9362 219.074 15.2227C 218.615 15.5059 218.259 15.9144 218.005 16.4482C 217.754 16.9788 217.629 17.5941 217.629 18.2939L 217.629 18.6455C 217.632 19.3291 217.761 19.9346 218.015 20.4619C 218.269 20.986 218.626 21.3896 219.089 21.6729C 219.551 21.9561 220.077 22.0977 220.666 22.0977C 221.262 22.0977 221.789 21.9544 222.248 21.668C 222.71 21.3815 223.065 20.9746 223.312 20.4473ZM 221.799 16.585C 222.066 16.9723 222.199 17.5387 222.199 18.2842L 222.199 18.6309C 222.196 19.3698 222.062 19.9329 221.799 20.3203C 221.535 20.7044 221.158 20.8965 220.666 20.8965C 220.165 20.8965 219.781 20.6963 219.514 20.2959C 219.247 19.8955 219.113 19.3324 219.113 18.6064L 219.113 18.2598C 219.117 17.5208 219.251 16.9609 219.519 16.5801C 219.786 16.196 220.165 16.0039 220.656 16.0039C 221.151 16.0039 221.532 16.1976 221.799 16.585ZM 222.478 12.9863L 220.939 12.9863L 219.978 14.5L 221.125 14.5L 222.478 12.9863ZM 229.255 21.8389C 229.737 21.6631 230.109 21.4173 230.373 21.1016L 230.373 18.2646L 227.575 18.2646L 227.575 19.3438L 228.908 19.3438L 228.908 20.5693C 228.674 20.8037 228.282 20.9209 227.731 20.9209C 227.185 20.9209 226.77 20.7305 226.486 20.3496C 226.203 19.9688 226.062 19.4056 226.062 18.6602L 226.062 18.2061C 226.065 17.4671 226.197 16.9105 226.457 16.5361C 226.717 16.1618 227.097 15.9746 227.595 15.9746C 227.985 15.9746 228.292 16.069 228.513 16.2578C 228.737 16.4466 228.882 16.7445 228.947 17.1514L 230.373 17.1514C 230.285 16.3831 230.003 15.7988 229.528 15.3984C 229.053 14.9948 228.394 14.793 227.551 14.793C 226.945 14.793 226.417 14.9313 225.964 15.208C 225.515 15.4814 225.169 15.8786 224.929 16.3994C 224.691 16.917 224.572 17.5306 224.572 18.2402L 224.572 18.7236C 224.579 19.4137 224.708 20.0143 224.958 20.5254C 225.212 21.0365 225.57 21.4271 226.032 21.6973C 226.498 21.9642 227.038 22.0977 227.653 22.0977C 228.239 22.0977 228.773 22.0114 229.255 21.8389ZM 231.657 22L 233.122 22L 233.122 14.8906L 231.657 14.8906L 231.657 22ZM 239.216 21.4385C 239.727 20.999 240.01 20.3968 240.065 19.6318L 238.601 19.6318C 238.568 20.0648 238.439 20.3854 238.215 20.5938C 237.994 20.7988 237.657 20.9014 237.204 20.9014C 236.703 20.9014 236.335 20.724 236.101 20.3691C 235.87 20.0143 235.754 19.4528 235.754 18.6846L 235.754 18.1475C 235.76 17.4118 235.884 16.8698 236.125 16.5215C 236.369 16.1699 236.735 15.9941 237.224 15.9941C 237.673 15.9941 238.006 16.0983 238.225 16.3066C 238.446 16.5117 238.575 16.8438 238.61 17.3027L 240.075 17.3027C 239.997 16.5085 239.708 15.8916 239.206 15.4521C 238.705 15.0127 238.044 14.793 237.224 14.793C 236.631 14.793 236.11 14.9329 235.661 15.2129C 235.215 15.4896 234.872 15.8884 234.631 16.4092C 234.39 16.93 234.27 17.5322 234.27 18.2158L 234.27 18.6504C 234.27 19.7214 234.53 20.5645 235.051 21.1797C 235.575 21.7917 236.292 22.0977 237.204 22.0977C 238.038 22.0977 238.708 21.8779 239.216 21.4385ZM 242.473 20.5352L 245.041 20.5352L 245.534 22L 247.092 22L 244.431 14.8906L 243.073 14.8906L 240.427 22L 241.984 22L 242.473 20.5352ZM 244.646 19.3486L 242.868 19.3486L 243.752 16.6875L 244.646 19.3486ZM 251.149 19.5C 251.345 19.6465 251.442 19.8581 251.442 20.1348C 251.442 20.3887 251.345 20.5872 251.149 20.7305C 250.954 20.8704 250.682 20.9404 250.334 20.9404C 249.396 20.9404 248.928 20.5482 248.928 19.7637L 247.458 19.7637C 247.458 20.2227 247.575 20.6263 247.81 20.9746C 248.047 21.3229 248.391 21.598 248.84 21.7998C 249.289 21.9984 249.787 22.0977 250.334 22.0977C 251.122 22.0977 251.749 21.9235 252.214 21.5752C 252.679 21.2236 252.912 20.7402 252.912 20.125C 252.912 19.5716 252.722 19.1094 252.341 18.7383C 251.96 18.3672 251.353 18.0563 250.52 17.8057C 250.067 17.6689 249.724 17.5225 249.489 17.3662C 249.258 17.21 249.143 17.0163 249.143 16.7852C 249.143 16.5378 249.242 16.3392 249.44 16.1895C 249.639 16.0365 249.917 15.96 250.275 15.96C 250.646 15.96 250.935 16.0511 251.14 16.2334C 251.345 16.4124 251.447 16.6647 251.447 16.9902L 252.912 16.9902C 252.912 16.5638 252.801 16.1829 252.58 15.8477C 252.362 15.5124 252.054 15.2536 251.657 15.0713C 251.26 14.8857 250.808 14.793 250.3 14.793C 249.795 14.793 249.339 14.8776 248.933 15.0469C 248.529 15.2161 248.218 15.4521 248 15.7549C 247.785 16.0544 247.678 16.3962 247.678 16.7803C 247.678 17.5192 248.082 18.1068 248.889 18.543C 249.185 18.7025 249.587 18.8652 250.095 19.0312C 250.603 19.194 250.954 19.3503 251.149 19.5Z"/>
</defs>
</svg>
