<svg width="195" height="44" viewBox="0 0 195 44" version="1.1" xmlns="http://www.w3.org/2000/svg" xmlns:xlink="http://www.w3.org/1999/xlink">
<title>Union</title>
<desc>Created using Figma</desc>
<g id="Canvas" transform="translate(-5034 326)">
<g id="Union">
<use xlink:href="#path0_fill" transform="translate(5034.33 -326)" fill="#FFFFFF"/>
</g>
</g>
<defs>
<path id="path0_fill" fill-rule="evenodd" d="M 193.744 43L 194.667 44L 193.306 44L 1.37842 44L 0 44L 0.94873 43L 41.7437 0L 154.051 0L 193.744 43ZM 153.613 1L 192.382 43L 2.32715 43L 42.1733 1L 153.613 1ZM 69.7446 17.8281L 71.7993 17.8281L 72.1938 19L 73.4399 19L 71.311 13.3125L 70.2251 13.3125L 68.1079 19L 69.354 19L 69.7446 17.8281ZM 71.4829 16.8789L 70.061 16.8789L 70.7681 14.75L 71.4829 16.8789ZM 78.2056 17.0586L 78.2056 13.3125L 77.0298 13.3125L 77.0298 17.0977C 77.0195 17.7904 76.6846 18.1367 76.0259 18.1367C 75.7109 18.1367 75.4634 18.0521 75.2837 17.8828C 75.1064 17.7109 75.0181 17.4388 75.0181 17.0664L 75.0181 13.3125L 73.8462 13.3125L 73.8462 17.1016C 73.854 17.7162 74.0532 18.1992 74.4438 18.5508C 74.8345 18.9023 75.3618 19.0781 76.0259 19.0781C 76.7002 19.0781 77.2314 18.8971 77.6196 18.5352C 78.0103 18.1732 78.2056 17.681 78.2056 17.0586ZM 81.7056 14.2617L 83.4478 14.2617L 83.4478 13.3125L 78.8149 13.3125L 78.8149 14.2617L 80.5337 14.2617L 80.5337 19L 81.7056 19L 81.7056 14.2617ZM 88.3853 17.7578C 88.583 17.3359 88.6821 16.8451 88.6821 16.2852L 88.6821 16.0312C 88.6821 15.474 88.5806 14.9831 88.3774 14.5586C 88.1768 14.1315 87.8916 13.8047 87.522 13.5781C 87.1548 13.349 86.7344 13.2344 86.2603 13.2344C 85.7861 13.2344 85.3643 13.349 84.9946 13.5781C 84.6274 13.8047 84.3423 14.1315 84.1392 14.5586C 83.9385 14.9831 83.8384 15.4753 83.8384 16.0352L 83.8384 16.3164C 83.8408 16.8633 83.9438 17.3477 84.147 17.7695C 84.3501 18.1888 84.6367 18.5117 85.0063 18.7383C 85.376 18.9648 85.7969 19.0781 86.2681 19.0781C 86.7446 19.0781 87.1665 18.9635 87.5337 18.7344C 87.9033 18.5052 88.1875 18.1797 88.3853 17.7578ZM 87.1743 14.668C 87.3877 14.9779 87.4946 15.431 87.4946 16.0273L 87.4946 16.3047C 87.4922 16.8958 87.3853 17.3463 87.1743 17.6562C 86.9634 17.9635 86.6611 18.1172 86.2681 18.1172C 85.8672 18.1172 85.5596 17.957 85.3462 17.6367C 85.1328 17.3164 85.0259 16.8659 85.0259 16.2852L 85.0259 16.0078C 85.0283 15.4167 85.1367 14.9688 85.3501 14.6641C 85.5635 14.3568 85.8672 14.2031 86.2603 14.2031C 86.6562 14.2031 86.9609 14.3581 87.1743 14.668ZM 89.4556 17.0195L 91.6548 17.0195L 91.6548 16.1094L 89.4556 16.1094L 89.4556 17.0195ZM 93.8071 16.5352L 96.0571 16.5352L 96.0571 15.6172L 93.8071 15.6172L 93.8071 14.2617L 96.4399 14.2617L 96.4399 13.3125L 92.6353 13.3125L 92.6353 19L 96.4478 19L 96.4478 18.0586L 93.8071 18.0586L 93.8071 16.5352ZM 99.8501 17C 100.006 17.1172 100.084 17.2865 100.084 17.5078C 100.084 17.7109 100.006 17.8698 99.8501 17.9844C 99.6938 18.0963 99.4766 18.1523 99.1978 18.1523C 98.4478 18.1523 98.0728 17.8385 98.0728 17.2109L 96.897 17.2109C 96.897 17.5781 96.9907 17.901 97.1782 18.1797C 97.3682 18.4583 97.6431 18.6784 98.0024 18.8398C 98.3618 18.9987 98.7603 19.0781 99.1978 19.0781C 99.8281 19.0781 100.329 18.9388 100.702 18.6602C 101.074 18.3789 101.26 17.9922 101.26 17.5C 101.26 17.0573 101.108 16.6875 100.803 16.3906C 100.499 16.0938 100.013 15.8451 99.3462 15.6445C 98.9844 15.5352 98.7095 15.418 98.522 15.293C 98.4312 15.2318 98.3628 15.1634 98.3169 15.0878C 98.2686 15.0091 98.2446 14.9225 98.2446 14.8281C 98.2446 14.6302 98.3242 14.4713 98.4829 14.3516C 98.6416 14.2292 98.8643 14.168 99.1509 14.168C 99.4478 14.168 99.6782 14.2409 99.8423 14.3867C 100.006 14.5299 100.088 14.7318 100.088 14.9922L 101.26 14.9922C 101.26 14.651 101.172 14.3463 100.995 14.0781C 100.82 13.8099 100.574 13.6029 100.256 13.457C 99.9385 13.3086 99.5767 13.2344 99.1704 13.2344C 98.7666 13.2344 98.4023 13.3021 98.0767 13.4375C 97.7539 13.5729 97.5049 13.7617 97.3306 14.0039C 97.1587 14.2435 97.0728 14.5169 97.0728 14.8242C 97.0728 15.4154 97.3955 15.8854 98.0415 16.2344C 98.2783 16.362 98.6001 16.4922 99.0063 16.625C 99.4126 16.7552 99.6938 16.8802 99.8501 17ZM 104.596 14.2617L 106.338 14.2617L 106.338 13.3125L 101.706 13.3125L 101.706 14.2617L 103.424 14.2617L 103.424 19L 104.596 19L 104.596 14.2617ZM 107.084 19L 108.256 19L 108.256 13.3125L 107.084 13.3125L 107.084 19ZM 112.338 17.4375L 110.877 13.3125L 109.346 13.3125L 109.346 19L 110.518 19L 110.518 17.4453L 110.401 14.7656L 111.932 19L 112.737 19L 114.272 14.7617L 114.155 17.4453L 114.155 19L 115.331 19L 115.331 13.3125L 113.792 13.3125L 112.338 17.4375ZM 117.581 17.8281L 119.635 17.8281L 120.03 19L 121.276 19L 119.147 13.3125L 118.061 13.3125L 115.944 19L 117.19 19L 117.581 17.8281ZM 119.319 16.8789L 117.897 16.8789L 118.604 14.75L 119.319 16.8789ZM 121.436 20.1172L 122.026 20.4258C 122.25 20.2331 122.434 19.9896 122.577 19.6953C 122.72 19.401 122.793 19.1094 122.795 18.8203L 122.799 18.0391L 121.846 18.0391L 121.846 18.9141C 121.841 19.2292 121.751 19.5456 121.577 19.8633L 121.436 20.1172ZM 57.1743 28.5508C 57.583 28.1992 57.8096 27.7174 57.854 27.1055L 56.6821 27.1055C 56.6562 27.4518 56.5532 27.7083 56.3735 27.875C 56.1963 28.0391 55.9268 28.1211 55.5649 28.1211C 55.1641 28.1211 54.8696 27.9792 54.6821 27.6953C 54.4971 27.4115 54.4048 26.9622 54.4048 26.3477L 54.4048 25.918C 54.4102 25.3294 54.5088 24.8958 54.7017 24.6172C 54.897 24.3359 55.1899 24.1953 55.5806 24.1953C 55.9399 24.1953 56.207 24.2787 56.3813 24.4453C 56.5586 24.6094 56.6611 24.875 56.6899 25.2422L 57.8618 25.2422C 57.7993 24.6068 57.5674 24.1133 57.1665 23.7617C 56.7656 23.4102 56.2368 23.2344 55.5806 23.2344C 55.1064 23.2344 54.6899 23.3463 54.3306 23.5703C 53.9736 23.7917 53.6992 24.1107 53.5063 24.5273C 53.3135 24.944 53.2173 25.4258 53.2173 25.9727L 53.2173 26.3203C 53.2173 27.1771 53.4258 27.8516 53.8423 28.3438C 54.2617 28.8333 54.8359 29.0781 55.5649 29.0781C 56.2314 29.0781 56.7681 28.9023 57.1743 28.5508ZM 62.9985 27.7578C 63.1963 27.3359 63.2954 26.8451 63.2954 26.2852L 63.2954 26.0312C 63.2954 25.474 63.1938 24.9831 62.9907 24.5586C 62.79 24.1315 62.5049 23.8047 62.1353 23.5781C 61.7681 23.349 61.3477 23.2344 60.8735 23.2344C 60.3994 23.2344 59.9775 23.349 59.6079 23.5781C 59.2407 23.8047 58.9556 24.1315 58.7524 24.5586C 58.5518 24.9831 58.4517 25.4753 58.4517 26.0352L 58.4517 26.3164C 58.4541 26.8633 58.5571 27.3477 58.7603 27.7695C 58.9634 28.1888 59.25 28.5117 59.6196 28.7383C 59.9893 28.9648 60.4102 29.0781 60.8813 29.0781C 61.3579 29.0781 61.7798 28.9635 62.147 28.7344C 62.5166 28.5052 62.8008 28.1797 62.9985 27.7578ZM 61.7876 24.668C 62.001 24.9779 62.1079 25.431 62.1079 26.0273L 62.1079 26.3047C 62.1055 26.8958 61.9985 27.3463 61.7876 27.6562C 61.5767 27.9635 61.2744 28.1172 60.8813 28.1172C 60.4805 28.1172 60.1729 27.957 59.9595 27.6367C 59.7461 27.3164 59.6392 26.8659 59.6392 26.2852L 59.6392 26.0078C 59.6416 25.4167 59.75 24.9688 59.9634 24.6641C 60.1768 24.3568 60.4805 24.2031 60.8735 24.2031C 61.2695 24.2031 61.5742 24.3581 61.7876 24.668ZM 67.6001 29L 68.772 29L 68.772 23.3125L 67.604 23.3125L 67.604 27.0625L 65.3188 23.3125L 64.147 23.3125L 64.147 29L 65.3188 29L 65.3188 25.2578L 67.6001 29ZM 70.9673 26.6758L 73.2173 26.6758L 73.2173 25.7305L 70.9673 25.7305L 70.9673 24.2617L 73.4985 24.2617L 73.4985 23.3125L 69.7954 23.3125L 69.7954 29L 70.9673 29L 70.9673 26.6758ZM 74.2524 29L 75.4243 29L 75.4243 23.3125L 74.2524 23.3125L 74.2524 29ZM 77.7407 27.8281L 79.7954 27.8281L 80.1899 29L 81.436 29L 79.3071 23.3125L 78.2212 23.3125L 76.104 29L 77.3501 29L 77.7407 27.8281ZM 79.479 26.8789L 78.0571 26.8789L 78.7642 24.75L 79.479 26.8789ZM 85.4204 29L 86.5923 29L 86.5923 23.3125L 85.4243 23.3125L 85.4243 27.0625L 83.1392 23.3125L 81.9673 23.3125L 81.9673 29L 83.1392 29L 83.1392 25.2578L 85.4204 29ZM 91.4009 28.5508C 91.8096 28.1992 92.0361 27.7174 92.0806 27.1055L 90.9087 27.1055C 90.8828 27.4518 90.7798 27.7083 90.6001 27.875C 90.4229 28.0391 90.1533 28.1211 89.7915 28.1211C 89.3906 28.1211 89.0962 27.9792 88.9087 27.6953C 88.7236 27.4115 88.6313 26.9622 88.6313 26.3477L 88.6313 25.918C 88.6367 25.3294 88.7354 24.8958 88.9282 24.6172C 89.1235 24.3359 89.4165 24.1953 89.8071 24.1953C 90.1665 24.1953 90.4336 24.2787 90.6079 24.4453C 90.7852 24.6094 90.8877 24.875 90.9165 25.2422L 92.0884 25.2422C 92.0259 24.6068 91.7939 24.1133 91.3931 23.7617C 90.9922 23.4102 90.4634 23.2344 89.8071 23.2344C 89.333 23.2344 88.9165 23.3463 88.5571 23.5703C 88.2002 23.7917 87.9258 24.1107 87.7329 24.5273C 87.54 24.944 87.4438 25.4258 87.4438 25.9727L 87.4438 26.3203C 87.4438 27.1771 87.6523 27.8516 88.0688 28.3438C 88.4023 28.7328 88.8335 28.9673 89.3623 29.0472L 89.2563 29.5352C 89.4517 29.5482 89.5923 29.5742 89.6782 29.6133C 89.7285 29.6369 89.7646 29.6715 89.7861 29.717C 89.8027 29.7516 89.811 29.7926 89.811 29.8398C 89.811 30.0508 89.665 30.1562 89.3735 30.1562L 89.4009 30.8086C 89.833 30.8086 90.168 30.7253 90.4048 30.5586C 90.6445 30.3919 90.7642 30.1654 90.7642 29.8789C 90.7642 29.4987 90.5688 29.2734 90.1782 29.2031L 90.2065 29.0533C 90.6846 28.9937 91.0825 28.8261 91.4009 28.5508ZM 94.0063 27.8281L 96.061 27.8281L 96.4556 29L 97.7017 29L 95.5728 23.3125L 94.4868 23.3125L 92.3696 29L 93.6157 29L 94.0063 27.8281ZM 95.7446 26.8789L 94.3228 26.8789L 95.0298 24.75L 95.7446 26.8789ZM 97.8618 30.1172L 98.4517 30.4258C 98.6758 30.2331 98.8594 29.9896 99.0024 29.6953C 99.1455 29.401 99.2188 29.1094 99.2212 28.8203L 99.2251 28.0391L 98.272 28.0391L 98.272 28.9141C 98.2666 29.2292 98.1768 29.5456 98.0024 29.8633L 97.8618 30.1172ZM 103.35 26.918L 104.284 26.918L 105.35 29L 106.608 29L 106.608 28.9453L 105.377 26.6211C 105.585 26.5274 105.761 26.4144 105.904 26.282C 105.996 26.1972 106.074 26.1046 106.139 26.0039C 106.309 25.7435 106.393 25.4193 106.393 25.0312C 106.393 24.4844 106.211 24.0612 105.846 23.7617C 105.481 23.4622 104.963 23.3125 104.292 23.3125L 102.178 23.3125L 102.178 29L 103.35 29L 103.35 26.918ZM 104.295 25.9688L 103.35 25.9688L 103.35 24.2617L 104.292 24.2617C 104.606 24.2617 104.84 24.3385 104.991 24.4922C 105.145 24.6458 105.221 24.8568 105.221 25.125C 105.221 25.388 105.141 25.5951 104.979 25.7461C 104.817 25.8945 104.59 25.9688 104.295 25.9688ZM 108.459 26.5352L 110.709 26.5352L 110.709 25.6172L 108.459 25.6172L 108.459 24.2617L 111.092 24.2617L 111.092 23.3125L 107.288 23.3125L 107.288 29L 111.1 29L 111.1 28.0586L 108.459 28.0586L 108.459 26.5352ZM 114.502 27C 114.659 27.1172 114.737 27.2865 114.737 27.5078C 114.737 27.7109 114.659 27.8698 114.502 27.9844C 114.346 28.0963 114.129 28.1523 113.85 28.1523C 113.1 28.1523 112.725 27.8385 112.725 27.2109L 111.549 27.2109C 111.549 27.5781 111.643 27.901 111.831 28.1797C 112.021 28.4583 112.295 28.6784 112.655 28.8398C 113.014 28.9987 113.413 29.0781 113.85 29.0781C 114.48 29.0781 114.981 28.9388 115.354 28.6602C 115.727 28.3789 115.913 27.9922 115.913 27.5C 115.913 27.0573 115.76 26.6875 115.456 26.3906C 115.151 26.0938 114.665 25.8451 113.999 25.6445C 113.637 25.5352 113.362 25.418 113.174 25.293C 112.989 25.168 112.897 25.013 112.897 24.8281C 112.897 24.7266 112.918 24.6353 112.96 24.5543C 113 24.4774 113.058 24.4099 113.135 24.3516C 113.294 24.2292 113.517 24.168 113.803 24.168C 114.1 24.168 114.331 24.2409 114.495 24.3867C 114.59 24.4703 114.658 24.574 114.698 24.6976C 114.727 24.7856 114.741 24.8839 114.741 24.9922L 115.913 24.9922C 115.913 24.651 115.824 24.3463 115.647 24.0781C 115.473 23.8099 115.227 23.6029 114.909 23.457C 114.591 23.3086 114.229 23.2344 113.823 23.2344C 113.419 23.2344 113.055 23.3021 112.729 23.4375C 112.406 23.5729 112.157 23.7617 111.983 24.0039C 111.811 24.2435 111.725 24.5169 111.725 24.8242C 111.725 25.4154 112.048 25.8854 112.694 26.2344C 112.931 26.362 113.252 26.4922 113.659 26.625C 114.065 26.7552 114.346 26.8802 114.502 27ZM 117.881 29L 117.881 26.9961L 118.909 26.9961C 119.583 26.9961 120.11 26.8359 120.491 26.5156C 120.874 26.1927 121.065 25.7526 121.065 25.1953C 121.065 24.8281 120.978 24.5013 120.803 24.2148C 120.629 23.9258 120.379 23.7031 120.053 23.5469C 119.73 23.3906 119.355 23.3125 118.928 23.3125L 116.709 23.3125L 116.709 29L 117.881 29ZM 118.928 26.0469L 117.881 26.0469L 117.881 24.2617L 118.956 24.2617C 119.245 24.2669 119.471 24.3555 119.635 24.5273C 119.799 24.6992 119.881 24.9245 119.881 25.2031C 119.881 25.474 119.799 25.6823 119.635 25.8281C 119.474 25.974 119.238 26.0469 118.928 26.0469ZM 123.045 26.5352L 125.295 26.5352L 125.295 25.6172L 123.045 25.6172L 123.045 24.2617L 125.678 24.2617L 125.678 23.3125L 121.874 23.3125L 121.874 29L 125.686 29L 125.686 28.0586L 123.045 28.0586L 123.045 26.5352ZM 126.448 29L 127.62 29L 127.62 23.3125L 126.448 23.3125L 126.448 29ZM 131.131 24.2617L 132.874 24.2617L 132.874 23.3125L 128.241 23.3125L 128.241 24.2617L 129.959 24.2617L 129.959 29L 131.131 29L 131.131 24.2617ZM 137.811 27.7578C 138.009 27.3359 138.108 26.8451 138.108 26.2852L 138.108 26.0312C 138.108 25.474 138.006 24.9831 137.803 24.5586C 137.603 24.1315 137.317 23.8047 136.948 23.5781C 136.581 23.349 136.16 23.2344 135.686 23.2344C 135.212 23.2344 134.79 23.349 134.42 23.5781C 134.053 23.8047 133.768 24.1315 133.565 24.5586C 133.364 24.9831 133.264 25.4753 133.264 26.0352L 133.264 26.3164C 133.267 26.8633 133.37 27.3477 133.573 27.7695C 133.776 28.1888 134.062 28.5117 134.432 28.7383C 134.802 28.9648 135.223 29.0781 135.694 29.0781C 136.17 29.0781 136.592 28.9635 136.959 28.7344C 137.329 28.5052 137.613 28.1797 137.811 27.7578ZM 136.6 24.668C 136.813 24.9779 136.92 25.431 136.92 26.0273L 136.92 26.3047C 136.918 26.8958 136.811 27.3463 136.6 27.6562C 136.389 27.9635 136.087 28.1172 135.694 28.1172C 135.293 28.1172 134.985 27.957 134.772 27.6367C 134.559 27.3164 134.452 26.8659 134.452 26.2852L 134.452 26.0078C 134.454 25.4167 134.562 24.9688 134.776 24.6641C 134.989 24.3568 135.293 24.2031 135.686 24.2031C 136.082 24.2031 136.387 24.3581 136.6 24.668Z"/>
</defs>
</svg>
