<svg width="438" height="42" viewBox="0 0 438 42" version="1.1" xmlns="http://www.w3.org/2000/svg" xmlns:xlink="http://www.w3.org/1999/xlink">
<title>Union</title>
<desc>Created using Figma</desc>
<g id="Canvas" transform="translate(-4911 185)">
<g id="Union">
<use xlink:href="#path0_fill" transform="translate(4911 -185)" fill="#FFFFFF"/>
</g>
</g>
<defs>
<path id="path0_fill" fill-rule="evenodd" d="M 437.077 41L 438 42L 436.639 42L 1.37842 42L 0 42L 0.94873 41L 39.8462 0L 399.231 0L 437.077 41ZM 40.2759 1L 398.793 1L 435.716 41L 2.32715 41L 40.2759 1ZM 136.141 19.8281L 138.195 19.8281L 138.59 21L 139.836 21L 137.707 15.3125L 136.621 15.3125L 134.504 21L 135.75 21L 136.141 19.8281ZM 137.879 18.8789L 136.457 18.8789L 137.164 16.75L 137.879 18.8789ZM 144.027 20.0586L 141.539 20.0586L 141.539 15.3125L 140.367 15.3125L 140.367 21L 144.027 21L 144.027 20.0586ZM 144.777 21L 145.949 21L 145.949 15.3125L 144.777 15.3125L 144.777 21ZM 150.031 19.4375L 148.57 15.3125L 147.039 15.3125L 147.039 21L 148.211 21L 148.211 19.4453L 148.094 16.7656L 149.625 21L 150.43 21L 151.965 16.7617L 151.848 19.4453L 151.848 21L 153.023 21L 153.023 15.3125L 151.484 15.3125L 150.031 19.4375ZM 155.219 18.5352L 157.469 18.5352L 157.469 17.6172L 155.219 17.6172L 155.219 16.2617L 157.852 16.2617L 157.852 15.3125L 154.047 15.3125L 154.047 21L 157.859 21L 157.859 20.0586L 155.219 20.0586L 155.219 18.5352ZM 162 21L 163.172 21L 163.172 15.3125L 162.004 15.3125L 162.004 19.0625L 159.719 15.3125L 158.547 15.3125L 158.547 21L 159.719 21L 159.719 17.2578L 162 21ZM 166.617 16.2617L 168.359 16.2617L 168.359 15.3125L 163.727 15.3125L 163.727 16.2617L 165.445 16.2617L 165.445 21L 166.617 21L 166.617 16.2617ZM 173.297 19.7578C 173.495 19.3359 173.594 18.845 173.594 18.2852L 173.594 18.0312C 173.594 17.474 173.492 16.9831 173.289 16.5586C 173.088 16.1315 172.803 15.8047 172.434 15.5781C 172.066 15.349 171.646 15.2344 171.172 15.2344C 170.698 15.2344 170.276 15.349 169.906 15.5781C 169.539 15.8047 169.254 16.1315 169.051 16.5586C 168.85 16.9831 168.75 17.4753 168.75 18.0352L 168.75 18.3164C 168.752 18.8633 168.855 19.3477 169.059 19.7695C 169.262 20.1888 169.548 20.5117 169.918 20.7383C 170.288 20.9648 170.708 21.0781 171.18 21.0781C 171.656 21.0781 172.078 20.9635 172.445 20.7344C 172.815 20.5052 173.099 20.1797 173.297 19.7578ZM 172.086 16.668C 172.299 16.9779 172.406 17.431 172.406 18.0273L 172.406 18.3047C 172.404 18.8958 172.297 19.3464 172.086 19.6562C 171.875 19.9635 171.573 20.1172 171.18 20.1172C 170.779 20.1172 170.471 19.957 170.258 19.6367C 170.044 19.3164 169.938 18.8659 169.938 18.2852L 169.938 18.0078C 169.94 17.4167 170.048 16.9688 170.262 16.6641C 170.475 16.3568 170.779 16.2031 171.172 16.2031C 171.568 16.2031 171.873 16.3581 172.086 16.668ZM 173.598 22.1172L 174.188 22.4258C 174.412 22.2331 174.595 21.9896 174.738 21.6953C 174.881 21.401 174.955 21.1094 174.957 20.8203L 174.961 20.0391L 174.008 20.0391L 174.008 20.9141C 174.002 21.2292 173.913 21.5456 173.738 21.8633L 173.598 22.1172ZM 179.086 18.918L 180.02 18.918L 181.086 21L 182.344 21L 182.344 20.9453L 181.113 18.6211C 181.455 18.4675 181.708 18.2617 181.875 18.0039C 182.044 17.7435 182.129 17.4193 182.129 17.0312C 182.129 16.4844 181.947 16.0612 181.582 15.7617C 181.217 15.4622 180.699 15.3125 180.027 15.3125L 177.914 15.3125L 177.914 21L 179.086 21L 179.086 18.918ZM 180.031 17.9688L 179.086 17.9688L 179.086 16.2617L 180.027 16.2617C 180.342 16.2617 180.576 16.3385 180.727 16.4922C 180.88 16.6458 180.957 16.8568 180.957 17.125C 180.957 17.388 180.876 17.595 180.715 17.7461C 180.553 17.8945 180.326 17.9688 180.031 17.9688ZM 187.398 19.7578C 187.596 19.3359 187.695 18.845 187.695 18.2852L 187.695 18.0312C 187.695 17.474 187.594 16.9831 187.391 16.5586C 187.19 16.1315 186.905 15.8047 186.535 15.5781C 186.168 15.349 185.748 15.2344 185.273 15.2344C 184.799 15.2344 184.377 15.349 184.008 15.5781C 183.641 15.8047 183.355 16.1315 183.152 16.5586C 182.952 16.9831 182.852 17.4753 182.852 18.0352L 182.852 18.3164C 182.854 18.8633 182.957 19.3477 183.16 19.7695C 183.363 20.1888 183.65 20.5117 184.02 20.7383C 184.389 20.9648 184.81 21.0781 185.281 21.0781C 185.758 21.0781 186.18 20.9635 186.547 20.7344C 186.917 20.5052 187.201 20.1797 187.398 19.7578ZM 186.188 16.668C 186.401 16.9779 186.508 17.431 186.508 18.0273L 186.508 18.3047C 186.505 18.8958 186.398 19.3464 186.188 19.6562C 185.977 19.9635 185.674 20.1172 185.281 20.1172C 184.88 20.1172 184.573 19.957 184.359 19.6367C 184.146 19.3164 184.039 18.8659 184.039 18.2852L 184.039 18.0078C 184.042 17.4167 184.15 16.9688 184.363 16.6641C 184.577 16.3568 184.88 16.2031 185.273 16.2031C 185.669 16.2031 185.974 16.3581 186.188 16.668ZM 192.852 19.0586L 192.852 15.3125L 191.676 15.3125L 191.676 19.0977C 191.666 19.7904 191.331 20.1367 190.672 20.1367C 190.357 20.1367 190.109 20.0521 189.93 19.8828C 189.752 19.7109 189.664 19.4388 189.664 19.0664L 189.664 15.3125L 188.492 15.3125L 188.492 19.1016C 188.5 19.7161 188.699 20.1992 189.09 20.5508C 189.48 20.9023 190.008 21.0781 190.672 21.0781C 191.346 21.0781 191.877 20.8971 192.266 20.5352C 192.656 20.1732 192.852 19.681 192.852 19.0586ZM 194.984 21L 194.984 18.9961L 196.012 18.9961C 196.686 18.9961 197.213 18.8359 197.594 18.5156C 197.977 18.1927 198.168 17.7526 198.168 17.1953C 198.168 16.8281 198.081 16.5013 197.906 16.2148C 197.732 15.9258 197.482 15.7031 197.156 15.5469C 196.833 15.3906 196.458 15.3125 196.031 15.3125L 193.812 15.3125L 193.812 21L 194.984 21ZM 196.031 18.0469L 194.984 18.0469L 194.984 16.2617L 196.059 16.2617C 196.348 16.2669 196.574 16.3555 196.738 16.5273C 196.902 16.6992 196.984 16.9245 196.984 17.2031C 196.984 17.474 196.902 17.6823 196.738 17.8281C 196.577 17.974 196.341 18.0469 196.031 18.0469ZM 199.438 19.8281L 201.492 19.8281L 201.887 21L 203.133 21L 201.004 15.3125L 199.918 15.3125L 197.801 21L 199.047 21L 199.438 19.8281ZM 201.176 18.8789L 199.754 18.8789L 200.461 16.75L 201.176 18.8789ZM 203.293 22.1172L 203.883 22.4258C 204.107 22.2331 204.291 21.9896 204.434 21.6953C 204.577 21.401 204.65 21.1094 204.652 20.8203L 204.656 20.0391L 203.703 20.0391L 203.703 20.9141C 203.698 21.2292 203.608 21.5456 203.434 21.8633L 203.293 22.1172ZM 208.781 18.918L 209.715 18.918L 210.781 21L 212.039 21L 212.039 20.9453L 210.809 18.6211C 211.15 18.4675 211.404 18.2617 211.57 18.0039C 211.74 17.7435 211.824 17.4193 211.824 17.0312C 211.824 16.4844 211.642 16.0612 211.277 15.7617C 210.913 15.4622 210.395 15.3125 209.723 15.3125L 207.609 15.3125L 207.609 21L 208.781 21L 208.781 18.918ZM 209.727 17.9688L 208.781 17.9688L 208.781 16.2617L 209.723 16.2617C 210.038 16.2617 210.271 16.3385 210.422 16.4922C 210.576 16.6458 210.652 16.8568 210.652 17.125C 210.652 17.388 210.572 17.595 210.41 17.7461C 210.249 17.8945 210.021 17.9688 209.727 17.9688ZM 213.891 18.5352L 216.141 18.5352L 216.141 17.6172L 213.891 17.6172L 213.891 16.2617L 216.523 16.2617L 216.523 15.3125L 212.719 15.3125L 212.719 21L 216.531 21L 216.531 20.0586L 213.891 20.0586L 213.891 18.5352ZM 218.391 21L 218.391 18.9961L 219.418 18.9961C 220.092 18.9961 220.62 18.8359 221 18.5156C 221.383 18.1927 221.574 17.7526 221.574 17.1953C 221.574 16.8281 221.487 16.5013 221.312 16.2148C 221.138 15.9258 220.888 15.7031 220.562 15.5469C 220.24 15.3906 219.865 15.3125 219.438 15.3125L 217.219 15.3125L 217.219 21L 218.391 21ZM 219.438 18.0469L 218.391 18.0469L 218.391 16.2617L 219.465 16.2617C 219.754 16.2669 219.98 16.3555 220.145 16.5273C 220.309 16.6992 220.391 16.9245 220.391 17.2031C 220.391 17.474 220.309 17.6823 220.145 17.8281C 219.983 17.974 219.748 18.0469 219.438 18.0469ZM 226.758 19.7578C 226.956 19.3359 227.055 18.845 227.055 18.2852L 227.055 18.0312C 227.055 17.474 226.953 16.9831 226.75 16.5586C 226.549 16.1315 226.264 15.8047 225.895 15.5781C 225.527 15.349 225.107 15.2344 224.633 15.2344C 224.159 15.2344 223.737 15.349 223.367 15.5781C 223 15.8047 222.715 16.1315 222.512 16.5586C 222.311 16.9831 222.211 17.4753 222.211 18.0352L 222.211 18.3164C 222.213 18.8633 222.316 19.3477 222.52 19.7695C 222.723 20.1888 223.009 20.5117 223.379 20.7383C 223.749 20.9648 224.169 21.0781 224.641 21.0781C 225.117 21.0781 225.539 20.9635 225.906 20.7344C 226.276 20.5052 226.56 20.1797 226.758 19.7578ZM 225.547 16.668C 225.76 16.9779 225.867 17.431 225.867 18.0273L 225.867 18.3047C 225.865 18.8958 225.758 19.3464 225.547 19.6562C 225.336 19.9635 225.034 20.1172 224.641 20.1172C 224.24 20.1172 223.932 19.957 223.719 19.6367C 223.505 19.3164 223.398 18.8659 223.398 18.2852L 223.398 18.0078C 223.401 17.4167 223.509 16.9688 223.723 16.6641C 223.936 16.3568 224.24 16.2031 224.633 16.2031C 225.029 16.2031 225.333 16.3581 225.547 16.668ZM 232.211 19.0586L 232.211 15.3125L 231.035 15.3125L 231.035 19.0977C 231.025 19.7904 230.69 20.1367 230.031 20.1367C 229.716 20.1367 229.469 20.0521 229.289 19.8828C 229.112 19.7109 229.023 19.4388 229.023 19.0664L 229.023 15.3125L 227.852 15.3125L 227.852 19.1016C 227.859 19.7161 228.059 20.1992 228.449 20.5508C 228.84 20.9023 229.367 21.0781 230.031 21.0781C 230.706 21.0781 231.237 20.8971 231.625 20.5352C 232.016 20.1732 232.211 19.681 232.211 19.0586ZM 235.887 19C 236.043 19.1172 236.121 19.2865 236.121 19.5078C 236.121 19.7109 236.043 19.8698 235.887 19.9844C 235.73 20.0964 235.513 20.1523 235.234 20.1523C 234.484 20.1523 234.109 19.8385 234.109 19.2109L 232.934 19.2109C 232.934 19.5781 233.027 19.901 233.215 20.1797C 233.405 20.4583 233.68 20.6784 234.039 20.8398C 234.398 20.9987 234.797 21.0781 235.234 21.0781C 235.865 21.0781 236.366 20.9388 236.738 20.6602C 237.111 20.3789 237.297 19.9922 237.297 19.5C 237.297 19.0573 237.145 18.6875 236.84 18.3906C 236.535 18.0938 236.049 17.845 235.383 17.6445C 235.021 17.5352 234.746 17.418 234.559 17.293C 234.374 17.168 234.281 17.013 234.281 16.8281C 234.281 16.6302 234.361 16.4714 234.52 16.3516C 234.678 16.2292 234.901 16.168 235.188 16.168C 235.484 16.168 235.715 16.2409 235.879 16.3867C 236.043 16.53 236.125 16.7318 236.125 16.9922L 237.297 16.9922C 237.297 16.651 237.208 16.3464 237.031 16.0781C 236.857 15.8099 236.611 15.6029 236.293 15.457C 235.975 15.3086 235.613 15.2344 235.207 15.2344C 234.803 15.2344 234.439 15.3021 234.113 15.4375C 233.791 15.5729 233.542 15.7617 233.367 16.0039C 233.195 16.2435 233.109 16.5169 233.109 16.8242C 233.109 17.4154 233.432 17.8854 234.078 18.2344C 234.315 18.362 234.637 18.4922 235.043 18.625C 235.449 18.7552 235.73 18.8802 235.887 19ZM 242.469 19.7578C 242.667 19.3359 242.766 18.845 242.766 18.2852L 242.766 18.0312C 242.766 17.474 242.664 16.9831 242.461 16.5586C 242.26 16.1315 241.975 15.8047 241.605 15.5781C 241.238 15.349 240.818 15.2344 240.344 15.2344C 239.87 15.2344 239.448 15.349 239.078 15.5781C 238.711 15.8047 238.426 16.1315 238.223 16.5586C 238.022 16.9831 237.922 17.4753 237.922 18.0352L 237.922 18.3164C 237.924 18.8633 238.027 19.3477 238.23 19.7695C 238.434 20.1888 238.72 20.5117 239.09 20.7383C 239.459 20.9648 239.88 21.0781 240.352 21.0781C 240.828 21.0781 241.25 20.9635 241.617 20.7344C 241.987 20.5052 242.271 20.1797 242.469 19.7578ZM 241.258 16.668C 241.471 16.9779 241.578 17.431 241.578 18.0273L 241.578 18.3047C 241.576 18.8958 241.469 19.3464 241.258 19.6562C 241.047 19.9635 240.745 20.1172 240.352 20.1172C 239.951 20.1172 239.643 19.957 239.43 19.6367C 239.216 19.3164 239.109 18.8659 239.109 18.2852L 239.109 18.0078C 239.112 17.4167 239.22 16.9688 239.434 16.6641C 239.647 16.3568 239.951 16.2031 240.344 16.2031C 240.74 16.2031 241.044 16.3581 241.258 16.668ZM 242.77 22.1172L 243.359 22.4258C 243.583 22.2331 243.767 21.9896 243.91 21.6953C 244.053 21.401 244.126 21.1094 244.129 20.8203L 244.133 20.0391L 243.18 20.0391L 243.18 20.9141C 243.174 21.2292 243.084 21.5456 242.91 21.8633L 242.77 22.1172ZM 250.078 19.4375L 248.617 15.3125L 247.086 15.3125L 247.086 21L 248.258 21L 248.258 19.4453L 248.141 16.7656L 249.672 21L 250.477 21L 252.012 16.7617L 251.895 19.4453L 251.895 21L 253.07 21L 253.07 15.3125L 251.531 15.3125L 250.078 19.4375ZM 258.469 19.7578C 258.667 19.3359 258.766 18.845 258.766 18.2852L 258.766 18.0312C 258.766 17.474 258.664 16.9831 258.461 16.5586C 258.26 16.1315 257.975 15.8047 257.605 15.5781C 257.238 15.349 256.818 15.2344 256.344 15.2344C 255.87 15.2344 255.448 15.349 255.078 15.5781C 254.711 15.8047 254.426 16.1315 254.223 16.5586C 254.022 16.9831 253.922 17.4753 253.922 18.0352L 253.922 18.3164C 253.924 18.8633 254.027 19.3477 254.23 19.7695C 254.434 20.1888 254.72 20.5117 255.09 20.7383C 255.459 20.9648 255.88 21.0781 256.352 21.0781C 256.828 21.0781 257.25 20.9635 257.617 20.7344C 257.987 20.5052 258.271 20.1797 258.469 19.7578ZM 257.258 16.668C 257.471 16.9779 257.578 17.431 257.578 18.0273L 257.578 18.3047C 257.576 18.8958 257.469 19.3464 257.258 19.6562C 257.047 19.9635 256.745 20.1172 256.352 20.1172C 255.951 20.1172 255.643 19.957 255.43 19.6367C 255.216 19.3164 255.109 18.8659 255.109 18.2852L 255.109 18.0078C 255.112 17.4167 255.22 16.9688 255.434 16.6641C 255.647 16.3568 255.951 16.2031 256.344 16.2031C 256.74 16.2031 257.044 16.3581 257.258 16.668ZM 260.789 18.918L 261.723 18.918L 262.789 21L 264.047 21L 264.047 20.9453L 262.816 18.6211C 263.158 18.4675 263.412 18.2617 263.578 18.0039C 263.748 17.7435 263.832 17.4193 263.832 17.0312C 263.832 16.4844 263.65 16.0612 263.285 15.7617C 262.92 15.4622 262.402 15.3125 261.73 15.3125L 259.617 15.3125L 259.617 21L 260.789 21L 260.789 18.918ZM 261.734 17.9688L 260.789 17.9688L 260.789 16.2617L 261.73 16.2617C 262.045 16.2617 262.279 16.3385 262.43 16.4922C 262.583 16.6458 262.66 16.8568 262.66 17.125C 262.66 17.388 262.58 17.595 262.418 17.7461C 262.256 17.8945 262.029 17.9688 261.734 17.9688ZM 265.883 19.8281L 267.938 19.8281L 268.332 21L 269.578 21L 267.449 15.3125L 266.363 15.3125L 264.246 21L 265.492 21L 265.883 19.8281ZM 267.621 18.8789L 266.199 18.8789L 266.906 16.75L 267.621 18.8789ZM 270.109 15.3125L 270.109 21L 271.871 21C 272.369 20.9974 272.815 20.8828 273.211 20.6562C 273.607 20.4297 273.913 20.1107 274.129 19.6992C 274.348 19.2878 274.457 18.8177 274.457 18.2891L 274.457 18.0273C 274.457 17.4987 274.346 17.0273 274.125 16.6133C 273.904 16.1966 273.595 15.8763 273.199 15.6523C 272.806 15.4258 272.359 15.3125 271.859 15.3125L 270.109 15.3125ZM 271.281 20.0586L 271.281 16.2617L 271.859 16.2617C 272.32 16.2617 272.67 16.4115 272.91 16.7109C 273.15 17.0078 273.27 17.4453 273.27 18.0234L 273.27 18.3242C 273.264 18.8815 273.141 19.3099 272.898 19.6094C 272.656 19.9089 272.306 20.0586 271.848 20.0586L 271.281 20.0586ZM 275.387 21L 276.559 21L 276.559 15.3125L 275.387 15.3125L 275.387 21ZM 278.875 19.8281L 280.93 19.8281L 281.324 21L 282.57 21L 280.441 15.3125L 279.355 15.3125L 277.238 21L 278.484 21L 278.875 19.8281ZM 280.613 18.8789L 279.191 18.8789L 279.898 16.75L 280.613 18.8789ZM 282.73 22.1172L 283.32 22.4258C 283.544 22.2331 283.728 21.9896 283.871 21.6953C 284.014 21.401 284.087 21.1094 284.09 20.8203L 284.094 20.0391L 283.141 20.0391L 283.141 20.9141C 283.135 21.2292 283.045 21.5456 282.871 21.8633L 282.73 22.1172ZM 288.219 18.5352L 290.469 18.5352L 290.469 17.6172L 288.219 17.6172L 288.219 16.2617L 290.852 16.2617L 290.852 15.3125L 287.047 15.3125L 287.047 21L 290.859 21L 290.859 20.0586L 288.219 20.0586L 288.219 18.5352ZM 294.164 16.2617L 295.906 16.2617L 295.906 15.3125L 291.273 15.3125L 291.273 16.2617L 292.992 16.2617L 292.992 21L 294.164 21L 294.164 16.2617ZM 300.254 20.5508C 300.663 20.1992 300.889 19.7175 300.934 19.1055L 299.762 19.1055C 299.736 19.4518 299.633 19.7083 299.453 19.875C 299.276 20.0391 299.006 20.1211 298.645 20.1211C 298.244 20.1211 297.949 19.9792 297.762 19.6953C 297.577 19.4115 297.484 18.9622 297.484 18.3477L 297.484 17.918C 297.49 17.3294 297.588 16.8958 297.781 16.6172C 297.977 16.3359 298.27 16.1953 298.66 16.1953C 299.02 16.1953 299.287 16.2786 299.461 16.4453C 299.638 16.6094 299.741 16.875 299.77 17.2422L 300.941 17.2422C 300.879 16.6068 300.647 16.1133 300.246 15.7617C 299.845 15.4102 299.316 15.2344 298.66 15.2344C 298.186 15.2344 297.77 15.3464 297.41 15.5703C 297.053 15.7917 296.779 16.1107 296.586 16.5273C 296.393 16.944 296.297 17.4258 296.297 17.9727L 296.297 18.3203C 296.297 19.1771 296.505 19.8516 296.922 20.3438C 297.341 20.8333 297.916 21.0781 298.645 21.0781C 299.311 21.0781 299.848 20.9023 300.254 20.5508ZM 301.867 20.0078C 301.748 20.1198 301.688 20.2656 301.688 20.4453C 301.688 20.5349 301.703 20.6161 301.733 20.6891C 301.764 20.7603 301.808 20.8236 301.867 20.8789C 301.939 20.9447 302.023 20.9908 302.119 21.017C 302.182 21.0343 302.25 21.043 302.324 21.043C 302.512 21.043 302.666 20.9883 302.785 20.8789C 302.905 20.7669 302.965 20.6224 302.965 20.4453C 302.965 20.2656 302.904 20.1198 302.781 20.0078C 302.662 19.8958 302.509 19.8398 302.324 19.8398C 302.142 19.8398 301.99 19.8958 301.867 20.0078Z"/>
</defs>
</svg>
