<svg width="361" height="44" viewBox="0 0 361 44" version="1.1" xmlns="http://www.w3.org/2000/svg" xmlns:xlink="http://www.w3.org/1999/xlink">
<title>Union</title>
<desc>Created using Figma</desc>
<g id="Canvas" transform="translate(-4950 232)">
<g id="Union">
<use xlink:href="#path0_fill" transform="translate(4950.85 -232)" fill="#FFFFFF"/>
</g>
</g>
<defs>
<path id="path0_fill" fill-rule="evenodd" d="M 358.461 43L 359.385 44L 358.024 44L 1.37842 44L 0 44L 0.94873 43L 41.7437 0L 318.769 0L 358.461 43ZM 318.331 1L 357.101 43L 2.32715 43L 42.1733 1L 318.331 1ZM 74.8569 25L 74.8569 22.9961L 75.8843 22.9961C 76.5586 22.9961 77.0859 22.8359 77.4663 22.5156C 77.8491 22.1927 78.0405 21.7526 78.0405 21.1953C 78.0405 20.8281 77.9531 20.5013 77.7788 20.2148C 77.6045 19.9258 77.3545 19.7031 77.0288 19.5469C 76.7061 19.3906 76.3311 19.3125 75.9038 19.3125L 73.6851 19.3125L 73.6851 25L 74.8569 25ZM 75.9038 22.0469L 74.8569 22.0469L 74.8569 20.2617L 75.9312 20.2617C 76.2202 20.2669 76.4468 20.3555 76.6108 20.5273C 76.7749 20.6992 76.8569 20.9245 76.8569 21.2031C 76.8569 21.474 76.7749 21.6823 76.6108 21.8281C 76.4492 21.974 76.2139 22.0469 75.9038 22.0469ZM 80.021 22.918L 80.9546 22.918L 82.021 25L 83.2788 25L 83.2788 24.9453L 82.0483 22.6211C 82.3896 22.4675 82.6436 22.2617 82.8101 22.0039C 82.9795 21.7435 83.064 21.4193 83.064 21.0312C 83.064 20.4844 82.8818 20.0612 82.5171 19.7617C 82.1523 19.4622 81.6343 19.3125 80.9624 19.3125L 78.8491 19.3125L 78.8491 25L 80.021 25L 80.021 22.918ZM 80.9663 21.9688L 80.021 21.9688L 80.021 20.2617L 80.9624 20.2617C 81.2773 20.2617 81.5107 20.3385 81.6616 20.4922C 81.8154 20.6458 81.8921 20.8568 81.8921 21.125C 81.8921 21.388 81.8115 21.595 81.6499 21.7461C 81.4883 21.8945 81.2607 21.9688 80.9663 21.9688ZM 88.3335 23.7578C 88.5312 23.3359 88.6304 22.845 88.6304 22.2852L 88.6304 22.0312C 88.6304 21.474 88.5288 20.9831 88.3257 20.5586C 88.125 20.1315 87.8398 19.8047 87.4702 19.5781C 87.103 19.349 86.6826 19.2344 86.2085 19.2344C 85.7344 19.2344 85.3125 19.349 84.9429 19.5781C 84.5757 19.8047 84.2905 20.1315 84.0874 20.5586C 83.8867 20.9831 83.7866 21.4753 83.7866 22.0352L 83.7866 22.3164C 83.7891 22.8633 83.8921 23.3477 84.0952 23.7695C 84.2983 24.1888 84.585 24.5117 84.9546 24.7383C 85.3242 24.9648 85.7451 25.0781 86.2163 25.0781C 86.6929 25.0781 87.1147 24.9635 87.4819 24.7344C 87.8516 24.5052 88.1357 24.1797 88.3335 23.7578ZM 87.1226 20.668C 87.3359 20.9779 87.4429 21.431 87.4429 22.0273L 87.4429 22.3047C 87.4404 22.8958 87.3335 23.3464 87.1226 23.6562C 86.9116 23.9635 86.6094 24.1172 86.2163 24.1172C 85.8154 24.1172 85.5078 23.957 85.2944 23.6367C 85.0811 23.3164 84.9741 22.8659 84.9741 22.2852L 84.9741 22.0078C 84.9766 21.4167 85.085 20.9688 85.2983 20.6641C 85.5117 20.3568 85.8154 20.2031 86.2085 20.2031C 86.6045 20.2031 86.9092 20.3581 87.1226 20.668ZM 91.6851 20.2617L 93.4272 20.2617L 93.4272 19.3125L 88.7944 19.3125L 88.7944 20.2617L 90.5132 20.2617L 90.5132 25L 91.6851 25L 91.6851 20.2617ZM 95.271 22.5352L 97.521 22.5352L 97.521 21.6172L 95.271 21.6172L 95.271 20.2617L 97.9038 20.2617L 97.9038 19.3125L 94.0991 19.3125L 94.0991 25L 97.9116 25L 97.9116 24.0586L 95.271 24.0586L 95.271 22.5352ZM 102.384 24.5508C 102.793 24.1992 103.02 23.7175 103.064 23.1055L 101.892 23.1055C 101.866 23.4518 101.763 23.7083 101.583 23.875C 101.406 24.0391 101.137 24.1211 100.775 24.1211C 100.374 24.1211 100.08 23.9792 99.8921 23.6953C 99.707 23.4115 99.6147 22.9622 99.6147 22.3477L 99.6147 21.918C 99.6201 21.3294 99.7188 20.8958 99.9116 20.6172C 100.107 20.3359 100.4 20.1953 100.791 20.1953C 101.15 20.1953 101.417 20.2786 101.591 20.4453C 101.769 20.6094 101.871 20.875 101.9 21.2422L 103.072 21.2422C 103.009 20.6068 102.777 20.1133 102.376 19.7617C 101.976 19.4102 101.447 19.2344 100.791 19.2344C 100.316 19.2344 99.8999 19.3464 99.5405 19.5703C 99.1836 19.7917 98.9092 20.1107 98.7163 20.5273C 98.5234 20.944 98.4272 21.4258 98.4272 21.9727L 98.4272 22.3203C 98.4272 23.1771 98.6357 23.8516 99.0522 24.3438C 99.3857 24.7328 99.8169 24.9673 100.346 25.0472L 100.24 25.5352C 100.435 25.5482 100.576 25.5742 100.662 25.6133C 100.75 25.655 100.794 25.7305 100.794 25.8398C 100.794 26.0508 100.648 26.1562 100.357 26.1562L 100.384 26.8086C 100.816 26.8086 101.151 26.7253 101.388 26.5586C 101.628 26.3919 101.748 26.1654 101.748 25.8789C 101.748 25.4987 101.552 25.2734 101.162 25.2031L 101.19 25.0533C 101.668 24.9937 102.066 24.8261 102.384 24.5508ZM 104.99 23.8281L 107.044 23.8281L 107.439 25L 108.685 25L 106.556 19.3125L 105.47 19.3125L 103.353 25L 104.599 25L 104.99 23.8281ZM 106.728 22.8789L 105.306 22.8789L 106.013 20.75L 106.728 22.8789ZM 107.24 18.5859C 107.412 18.3854 107.498 18.138 107.498 17.8438L 106.845 17.8008C 106.845 17.9206 106.812 18.013 106.744 18.0781C 106.679 18.1406 106.601 18.1719 106.509 18.1719C 106.444 18.1719 106.382 18.1641 106.322 18.1484C 106.262 18.1328 106.154 18.0872 105.998 18.0117C 105.841 17.9362 105.728 17.8893 105.658 17.8711C 105.59 17.8503 105.517 17.8398 105.439 17.8398C 105.191 17.8398 104.982 17.9414 104.81 18.1445C 104.641 18.3477 104.556 18.5938 104.556 18.8828L 105.212 18.9219C 105.212 18.8021 105.244 18.7096 105.306 18.6445C 105.371 18.5794 105.449 18.5469 105.541 18.5469C 105.611 18.5469 105.676 18.556 105.736 18.5742C 105.796 18.5898 105.894 18.6341 106.029 18.707L 106.123 18.7562C 106.214 18.8021 106.288 18.8339 106.345 18.8516C 106.423 18.8724 106.512 18.8828 106.611 18.8828C 106.858 18.8828 107.068 18.7839 107.24 18.5859ZM 113.505 23.7578C 113.703 23.3359 113.802 22.845 113.802 22.2852L 113.802 22.0312C 113.802 21.474 113.701 20.9831 113.498 20.5586C 113.297 20.1315 113.012 19.8047 112.642 19.5781C 112.275 19.349 111.854 19.2344 111.38 19.2344C 110.906 19.2344 110.484 19.349 110.115 19.5781C 109.748 19.8047 109.462 20.1315 109.259 20.5586C 109.059 20.9831 108.958 21.4753 108.958 22.0352L 108.958 22.3164C 108.961 22.8633 109.064 23.3477 109.267 23.7695C 109.47 24.1888 109.757 24.5117 110.126 24.7383C 110.496 24.9648 110.917 25.0781 111.388 25.0781C 111.865 25.0781 112.287 24.9635 112.654 24.7344C 113.023 24.5052 113.308 24.1797 113.505 23.7578ZM 112.294 20.668C 112.508 20.9779 112.615 21.431 112.615 22.0273L 112.615 22.3047C 112.612 22.8958 112.505 23.3464 112.294 23.6562C 112.083 23.9635 111.781 24.1172 111.388 24.1172C 110.987 24.1172 110.68 23.957 110.466 23.6367C 110.253 23.3164 110.146 22.8659 110.146 22.2852L 110.146 22.0078C 110.148 21.4167 110.257 20.9688 110.47 20.6641C 110.684 20.3568 110.987 20.2031 111.38 20.2031C 111.776 20.2031 112.081 20.3581 112.294 20.668ZM 113.806 26.1172L 114.396 26.4258C 114.62 26.2331 114.804 25.9896 114.947 25.6953C 115.09 25.401 115.163 25.1094 115.166 24.8203L 115.169 24.0391L 114.216 24.0391L 114.216 24.9141C 114.211 25.2292 114.121 25.5456 113.947 25.8633L 113.806 26.1172ZM 119.294 22.5352L 121.544 22.5352L 121.544 21.6172L 119.294 21.6172L 119.294 20.2617L 121.927 20.2617L 121.927 19.3125L 118.123 19.3125L 118.123 25L 121.935 25L 121.935 24.0586L 119.294 24.0586L 119.294 22.5352ZM 125.615 23.4375L 124.154 19.3125L 122.623 19.3125L 122.623 25L 123.794 25L 123.794 23.4453L 123.677 20.7656L 125.208 25L 126.013 25L 127.548 20.7617L 127.431 23.4453L 127.431 25L 128.607 25L 128.607 19.3125L 127.068 19.3125L 125.615 23.4375ZM 130.802 25L 130.802 22.9961L 131.83 22.9961C 132.504 22.9961 133.031 22.8359 133.412 22.5156C 133.794 22.1927 133.986 21.7526 133.986 21.1953C 133.986 20.8281 133.898 20.5013 133.724 20.2148C 133.55 19.9258 133.3 19.7031 132.974 19.5469C 132.651 19.3906 132.276 19.3125 131.849 19.3125L 129.63 19.3125L 129.63 25L 130.802 25ZM 131.849 22.0469L 130.802 22.0469L 130.802 20.2617L 131.876 20.2617C 132.166 20.2669 132.392 20.3555 132.556 20.5273C 132.72 20.6992 132.802 20.9245 132.802 21.2031C 132.802 21.474 132.72 21.6823 132.556 21.8281C 132.395 21.974 132.159 22.0469 131.849 22.0469ZM 135.966 22.918L 136.9 22.918L 137.966 25L 139.224 25L 139.224 24.9453L 137.994 22.6211C 138.335 22.4675 138.589 22.2617 138.755 22.0039C 138.925 21.7435 139.009 21.4193 139.009 21.0312C 139.009 20.4844 138.827 20.0612 138.462 19.7617C 138.098 19.4622 137.58 19.3125 136.908 19.3125L 134.794 19.3125L 134.794 25L 135.966 25L 135.966 22.918ZM 136.912 21.9688L 135.966 21.9688L 135.966 20.2617L 136.908 20.2617C 137.223 20.2617 137.456 20.3385 137.607 20.4922C 137.761 20.6458 137.837 20.8568 137.837 21.125C 137.837 21.388 137.757 21.595 137.595 21.7461C 137.434 21.8945 137.206 21.9688 136.912 21.9688ZM 141.076 22.5352L 143.326 22.5352L 143.326 21.6172L 141.076 21.6172L 141.076 20.2617L 143.708 20.2617L 143.708 19.3125L 139.904 19.3125L 139.904 25L 143.716 25L 143.716 24.0586L 141.076 24.0586L 141.076 22.5352ZM 148.009 24.8711C 148.395 24.7305 148.693 24.5339 148.904 24.2812L 148.904 22.0117L 146.666 22.0117L 146.666 22.875L 147.732 22.875L 147.732 23.8555C 147.544 24.043 147.23 24.1367 146.791 24.1367C 146.353 24.1367 146.021 23.9844 145.794 23.6797C 145.568 23.375 145.455 22.9245 145.455 22.3281L 145.455 21.9648C 145.457 21.3737 145.562 20.9284 145.771 20.6289C 145.979 20.3294 146.283 20.1797 146.681 20.1797C 146.994 20.1797 147.238 20.2552 147.416 20.4062C 147.595 20.5573 147.711 20.7956 147.763 21.1211L 148.904 21.1211C 148.833 20.5065 148.608 20.0391 148.228 19.7188C 147.848 19.3958 147.32 19.2344 146.646 19.2344C 146.162 19.2344 145.738 19.345 145.376 19.5664C 145.017 19.7852 144.741 20.1029 144.548 20.5195C 144.358 20.9336 144.263 21.4245 144.263 21.9922L 144.263 22.3789C 144.269 22.931 144.371 23.4115 144.572 23.8203C 144.775 24.2292 145.062 24.5417 145.431 24.7578C 145.804 24.9714 146.236 25.0781 146.728 25.0781C 147.197 25.0781 147.624 25.0091 148.009 24.8711ZM 154.232 23.7578C 154.43 23.3359 154.529 22.845 154.529 22.2852L 154.529 22.0312C 154.529 21.474 154.427 20.9831 154.224 20.5586C 154.023 20.1315 153.738 19.8047 153.369 19.5781C 153.001 19.349 152.581 19.2344 152.107 19.2344C 151.633 19.2344 151.211 19.349 150.841 19.5781C 150.474 19.8047 150.189 20.1315 149.986 20.5586C 149.785 20.9831 149.685 21.4753 149.685 22.0352L 149.685 22.3164C 149.688 22.8633 149.791 23.3477 149.994 23.7695C 150.197 24.1888 150.483 24.5117 150.853 24.7383C 151.223 24.9648 151.644 25.0781 152.115 25.0781C 152.591 25.0781 153.013 24.9635 153.38 24.7344C 153.75 24.5052 154.034 24.1797 154.232 23.7578ZM 153.021 20.668C 153.234 20.9779 153.341 21.431 153.341 22.0273L 153.341 22.3047C 153.339 22.8958 153.232 23.3464 153.021 23.6562C 152.81 23.9635 152.508 24.1172 152.115 24.1172C 151.714 24.1172 151.406 23.957 151.193 23.6367C 150.979 23.3164 150.873 22.8659 150.873 22.2852L 150.873 22.0078C 150.875 21.4167 150.983 20.9688 151.197 20.6641C 151.41 20.3568 151.714 20.2031 152.107 20.2031C 152.503 20.2031 152.808 20.3581 153.021 20.668ZM 154.533 26.1172L 155.123 26.4258C 155.347 26.2331 155.53 25.9896 155.673 25.6953C 155.816 25.401 155.89 25.1094 155.892 24.8203L 155.896 24.0391L 154.943 24.0391L 154.943 24.9141C 154.938 25.2292 154.848 25.5456 154.673 25.8633L 154.533 26.1172ZM 160.021 22.918L 160.955 22.918L 162.021 25L 163.279 25L 163.279 24.9453L 162.048 22.6211C 162.39 22.4675 162.644 22.2617 162.81 22.0039C 162.979 21.7435 163.064 21.4193 163.064 21.0312C 163.064 20.4844 162.882 20.0612 162.517 19.7617C 162.152 19.4622 161.634 19.3125 160.962 19.3125L 158.849 19.3125L 158.849 25L 160.021 25L 160.021 22.918ZM 160.966 21.9688L 160.021 21.9688L 160.021 20.2617L 160.962 20.2617C 161.277 20.2617 161.511 20.3385 161.662 20.4922C 161.815 20.6458 161.892 20.8568 161.892 21.125C 161.892 21.388 161.812 21.595 161.65 21.7461C 161.488 21.8945 161.261 21.9688 160.966 21.9688ZM 165.13 22.5352L 167.38 22.5352L 167.38 21.6172L 165.13 21.6172L 165.13 20.2617L 167.763 20.2617L 167.763 19.3125L 163.958 19.3125L 163.958 25L 167.771 25L 167.771 24.0586L 165.13 24.0586L 165.13 22.5352ZM 172.244 24.5508C 172.652 24.1992 172.879 23.7175 172.923 23.1055L 171.751 23.1055C 171.726 23.4518 171.623 23.7083 171.443 23.875C 171.266 24.0391 170.996 24.1211 170.634 24.1211C 170.233 24.1211 169.939 23.9792 169.751 23.6953C 169.566 23.4115 169.474 22.9622 169.474 22.3477L 169.474 21.918C 169.479 21.3294 169.578 20.8958 169.771 20.6172C 169.966 20.3359 170.259 20.1953 170.65 20.1953C 171.009 20.1953 171.276 20.2786 171.451 20.4453C 171.628 20.6094 171.73 20.875 171.759 21.2422L 172.931 21.2422C 172.869 20.6068 172.637 20.1133 172.236 19.7617C 171.835 19.4102 171.306 19.2344 170.65 19.2344C 170.176 19.2344 169.759 19.3464 169.4 19.5703C 169.043 19.7917 168.769 20.1107 168.576 20.5273C 168.383 20.944 168.287 21.4258 168.287 21.9727L 168.287 22.3203C 168.287 23.1771 168.495 23.8516 168.912 24.3438C 169.331 24.8333 169.905 25.0781 170.634 25.0781C 171.301 25.0781 171.837 24.9023 172.244 24.5508ZM 177.998 23.0586L 177.998 19.3125L 176.822 19.3125L 176.822 23.0977C 176.812 23.7904 176.477 24.1367 175.818 24.1367C 175.503 24.1367 175.255 24.0521 175.076 23.8828C 174.898 23.7109 174.81 23.4388 174.81 23.0664L 174.81 19.3125L 173.638 19.3125L 173.638 23.1016C 173.646 23.7161 173.845 24.1992 174.236 24.5508C 174.626 24.9023 175.154 25.0781 175.818 25.0781C 176.492 25.0781 177.023 24.8971 177.412 24.5352C 177.802 24.1732 177.998 23.681 177.998 23.0586ZM 180.13 22.918L 181.064 22.918L 182.13 25L 183.388 25L 183.388 24.9453L 182.158 22.6211C 182.499 22.4675 182.753 22.2617 182.919 22.0039C 183.089 21.7435 183.173 21.4193 183.173 21.0312C 183.173 20.4844 182.991 20.0612 182.626 19.7617C 182.262 19.4622 181.744 19.3125 181.072 19.3125L 178.958 19.3125L 178.958 25L 180.13 25L 180.13 22.918ZM 181.076 21.9688L 180.13 21.9688L 180.13 20.2617L 181.072 20.2617C 181.387 20.2617 181.62 20.3385 181.771 20.4922C 181.925 20.6458 182.001 20.8568 182.001 21.125C 182.001 21.388 181.921 21.595 181.759 21.7461C 181.598 21.8945 181.37 21.9688 181.076 21.9688ZM 186.783 23C 186.939 23.1172 187.017 23.2865 187.017 23.5078C 187.017 23.7109 186.939 23.8698 186.783 23.9844C 186.626 24.0964 186.409 24.1523 186.13 24.1523C 185.38 24.1523 185.005 23.8385 185.005 23.2109L 183.83 23.2109C 183.83 23.5781 183.923 23.901 184.111 24.1797C 184.301 24.4583 184.576 24.6784 184.935 24.8398C 185.144 24.932 185.365 24.9974 185.6 25.0361C 185.77 25.0641 185.947 25.0781 186.13 25.0781C 186.761 25.0781 187.262 24.9388 187.634 24.6602C 188.007 24.3789 188.193 23.9922 188.193 23.5C 188.193 23.0573 188.041 22.6875 187.736 22.3906C 187.431 22.0938 186.945 21.845 186.279 21.6445C 186.104 21.5918 185.95 21.5373 185.816 21.4809C 185.672 21.4204 185.552 21.3577 185.455 21.293C 185.27 21.168 185.177 21.013 185.177 20.8281C 185.177 20.6302 185.257 20.4714 185.416 20.3516C 185.574 20.2292 185.797 20.168 186.083 20.168C 186.38 20.168 186.611 20.2409 186.775 20.3867C 186.939 20.53 187.021 20.7318 187.021 20.9922L 188.193 20.9922C 188.193 20.651 188.104 20.3464 187.927 20.0781C 187.753 19.8099 187.507 19.6029 187.189 19.457C 186.871 19.3086 186.509 19.2344 186.103 19.2344C 185.699 19.2344 185.335 19.3021 185.009 19.4375C 184.687 19.5729 184.438 19.7617 184.263 20.0039C 184.16 20.1482 184.087 20.3048 184.046 20.4736C 184.019 20.5851 184.005 20.702 184.005 20.8242C 184.005 21.4154 184.328 21.8854 184.974 22.2344C 185.211 22.362 185.533 22.4922 185.939 22.625C 186.345 22.7552 186.626 22.8802 186.783 23ZM 193.365 23.7578C 193.562 23.3359 193.662 22.845 193.662 22.2852L 193.662 22.0312C 193.662 21.474 193.56 20.9831 193.357 20.5586C 193.156 20.1315 192.871 19.8047 192.501 19.5781C 192.134 19.349 191.714 19.2344 191.24 19.2344C 190.766 19.2344 190.344 19.349 189.974 19.5781C 189.607 19.8047 189.322 20.1315 189.119 20.5586C 188.918 20.9831 188.818 21.4753 188.818 22.0352L 188.818 22.3164C 188.82 22.8633 188.923 23.3477 189.126 23.7695C 189.33 24.1888 189.616 24.5117 189.986 24.7383C 190.355 24.9648 190.776 25.0781 191.248 25.0781C 191.724 25.0781 192.146 24.9635 192.513 24.7344C 192.883 24.5052 193.167 24.1797 193.365 23.7578ZM 192.154 20.668C 192.367 20.9779 192.474 21.431 192.474 22.0273L 192.474 22.3047C 192.472 22.8958 192.365 23.3464 192.154 23.6562C 191.943 23.9635 191.641 24.1172 191.248 24.1172C 190.847 24.1172 190.539 23.957 190.326 23.6367C 190.112 23.3164 190.005 22.8659 190.005 22.2852L 190.005 22.0078C 190.008 21.4167 190.116 20.9688 190.33 20.6641C 190.543 20.3568 190.847 20.2031 191.24 20.2031C 191.636 20.2031 191.94 20.3581 192.154 20.668ZM 197.228 23C 197.384 23.1172 197.462 23.2865 197.462 23.5078C 197.462 23.7109 197.384 23.8698 197.228 23.9844C 197.072 24.0964 196.854 24.1523 196.576 24.1523C 195.826 24.1523 195.451 23.8385 195.451 23.2109L 194.275 23.2109C 194.275 23.5781 194.369 23.901 194.556 24.1797C 194.746 24.4583 195.021 24.6784 195.38 24.8398C 195.74 24.9987 196.138 25.0781 196.576 25.0781C 197.206 25.0781 197.707 24.9388 198.08 24.6602C 198.452 24.3789 198.638 23.9922 198.638 23.5C 198.638 23.0573 198.486 22.6875 198.181 22.3906C 197.876 22.0938 197.391 21.845 196.724 21.6445C 196.362 21.5352 196.087 21.418 195.9 21.293C 195.715 21.168 195.623 21.013 195.623 20.8281C 195.623 20.6302 195.702 20.4714 195.861 20.3516C 196.02 20.2292 196.242 20.168 196.529 20.168C 196.826 20.168 197.056 20.2409 197.22 20.3867C 197.384 20.53 197.466 20.7318 197.466 20.9922L 198.638 20.9922C 198.638 20.651 198.55 20.3464 198.373 20.0781C 198.198 19.8099 197.952 19.6029 197.634 19.457C 197.316 19.3086 196.955 19.2344 196.548 19.2344C 196.145 19.2344 195.78 19.3021 195.455 19.4375C 195.132 19.5729 194.883 19.7617 194.708 20.0039C 194.537 20.2435 194.451 20.5169 194.451 20.8242C 194.451 21.4154 194.773 21.8854 195.419 22.2344C 195.656 22.362 195.978 22.4922 196.384 22.625C 196.791 22.7552 197.072 22.8802 197.228 23ZM 199.064 26.1172L 199.654 26.4258C 199.878 26.2331 200.062 25.9896 200.205 25.6953C 200.348 25.401 200.421 25.1094 200.423 24.8203L 200.427 24.0391L 199.474 24.0391L 199.474 24.9141C 199.469 25.2292 199.379 25.5456 199.205 25.8633L 199.064 26.1172ZM 206.095 23C 206.251 23.1172 206.33 23.2865 206.33 23.5078C 206.33 23.7109 206.251 23.8698 206.095 23.9844C 205.939 24.0964 205.722 24.1523 205.443 24.1523C 204.693 24.1523 204.318 23.8385 204.318 23.2109L 203.142 23.2109C 203.142 23.5781 203.236 23.901 203.423 24.1797C 203.613 24.4583 203.888 24.6784 204.248 24.8398C 204.607 24.9987 205.005 25.0781 205.443 25.0781C 206.073 25.0781 206.574 24.9388 206.947 24.6602C 207.319 24.3789 207.505 23.9922 207.505 23.5C 207.505 23.0573 207.353 22.6875 207.048 22.3906C 206.744 22.0938 206.258 21.845 205.591 21.6445C 205.229 21.5352 204.955 21.418 204.767 21.293C 204.582 21.168 204.49 21.013 204.49 20.8281C 204.49 20.6302 204.569 20.4714 204.728 20.3516C 204.887 20.2292 205.109 20.168 205.396 20.168C 205.693 20.168 205.923 20.2409 206.087 20.3867C 206.251 20.53 206.333 20.7318 206.333 20.9922L 207.505 20.9922C 207.505 20.651 207.417 20.3464 207.24 20.0781C 207.065 19.8099 206.819 19.6029 206.501 19.457C 206.184 19.3086 205.822 19.2344 205.416 19.2344C 205.012 19.2344 204.647 19.3021 204.322 19.4375C 203.999 19.5729 203.75 19.7617 203.576 20.0039C 203.404 20.2435 203.318 20.5169 203.318 20.8242C 203.318 21.4154 203.641 21.8854 204.287 22.2344C 204.523 22.362 204.845 22.4922 205.251 22.625C 205.658 22.7552 205.939 22.8802 206.095 23ZM 209.458 23.8281L 211.513 23.8281L 211.908 25L 213.154 25L 211.025 19.3125L 209.939 19.3125L 207.822 25L 209.068 25L 209.458 23.8281ZM 211.197 22.8789L 209.775 22.8789L 210.482 20.75L 211.197 22.8789ZM 217.919 23.0586L 217.919 19.3125L 216.744 19.3125L 216.744 23.0977C 216.733 23.7904 216.398 24.1367 215.74 24.1367C 215.425 24.1367 215.177 24.0521 214.998 23.8828C 214.82 23.7109 214.732 23.4388 214.732 23.0664L 214.732 19.3125L 213.56 19.3125L 213.56 23.1016C 213.568 23.7161 213.767 24.1992 214.158 24.5508C 214.548 24.9023 215.076 25.0781 215.74 25.0781C 216.414 25.0781 216.945 24.8971 217.333 24.5352C 217.724 24.1732 217.919 23.681 217.919 23.0586ZM 217.181 17.7891L 215.951 17.7891L 215.181 19L 216.099 19L 217.181 17.7891ZM 218.88 19.3125L 218.88 25L 220.642 25C 221.14 24.9974 221.586 24.8828 221.982 24.6562C 222.378 24.4297 222.684 24.1107 222.9 23.6992C 223.119 23.2878 223.228 22.8177 223.228 22.2891L 223.228 22.0273C 223.228 21.4987 223.117 21.0273 222.896 20.6133C 222.675 20.1966 222.366 19.8763 221.97 19.6523C 221.577 19.4258 221.13 19.3125 220.63 19.3125L 218.88 19.3125ZM 220.052 24.0586L 220.052 20.2617L 220.63 20.2617C 221.091 20.2617 221.441 20.4115 221.681 20.7109C 221.921 21.0078 222.041 21.4453 222.041 22.0234L 222.041 22.3242C 222.035 22.8815 221.912 23.3099 221.669 23.6094C 221.427 23.9089 221.077 24.0586 220.619 24.0586L 220.052 24.0586ZM 225.255 22.5352L 227.505 22.5352L 227.505 21.6172L 225.255 21.6172L 225.255 20.2617L 227.888 20.2617L 227.888 19.3125L 224.083 19.3125L 224.083 25L 227.896 25L 227.896 24.0586L 225.255 24.0586L 225.255 22.5352ZM 228.212 26.1172L 228.802 26.4258C 229.026 26.2331 229.21 25.9896 229.353 25.6953C 229.496 25.401 229.569 25.1094 229.572 24.8203L 229.576 24.0391L 228.623 24.0391L 228.623 24.9141C 228.617 25.2292 228.527 25.5456 228.353 25.8633L 228.212 26.1172ZM 233.701 25L 233.701 22.9961L 234.728 22.9961C 235.402 22.9961 235.93 22.8359 236.31 22.5156C 236.693 22.1927 236.884 21.7526 236.884 21.1953C 236.884 20.8281 236.797 20.5013 236.623 20.2148C 236.448 19.9258 236.198 19.7031 235.873 19.5469C 235.55 19.3906 235.175 19.3125 234.748 19.3125L 232.529 19.3125L 232.529 25L 233.701 25ZM 234.748 22.0469L 233.701 22.0469L 233.701 20.2617L 234.775 20.2617C 235.064 20.2669 235.291 20.3555 235.455 20.5273C 235.619 20.6992 235.701 20.9245 235.701 21.2031C 235.701 21.474 235.619 21.6823 235.455 21.8281C 235.293 21.974 235.058 22.0469 234.748 22.0469ZM 238.865 22.918L 239.798 22.918L 240.865 25L 242.123 25L 242.123 24.9453L 240.892 22.6211C 241.233 22.4675 241.487 22.2617 241.654 22.0039C 241.823 21.7435 241.908 21.4193 241.908 21.0312C 241.908 20.4844 241.726 20.0612 241.361 19.7617C 240.996 19.4622 240.478 19.3125 239.806 19.3125L 237.693 19.3125L 237.693 25L 238.865 25L 238.865 22.918ZM 239.81 21.9688L 238.865 21.9688L 238.865 20.2617L 239.806 20.2617C 240.121 20.2617 240.354 20.3385 240.505 20.4922C 240.659 20.6458 240.736 20.8568 240.736 21.125C 240.736 21.388 240.655 21.595 240.494 21.7461C 240.332 21.8945 240.104 21.9688 239.81 21.9688ZM 247.177 23.7578C 247.375 23.3359 247.474 22.845 247.474 22.2852L 247.474 22.0312C 247.474 21.474 247.373 20.9831 247.169 20.5586C 246.969 20.1315 246.684 19.8047 246.314 19.5781C 245.947 19.349 245.526 19.2344 245.052 19.2344C 244.578 19.2344 244.156 19.349 243.787 19.5781C 243.419 19.8047 243.134 20.1315 242.931 20.5586C 242.73 20.9831 242.63 21.4753 242.63 22.0352L 242.63 22.3164C 242.633 22.8633 242.736 23.3477 242.939 23.7695C 243.142 24.1888 243.429 24.5117 243.798 24.7383C 244.168 24.9648 244.589 25.0781 245.06 25.0781C 245.537 25.0781 245.958 24.9635 246.326 24.7344C 246.695 24.5052 246.979 24.1797 247.177 23.7578ZM 245.966 20.668C 246.18 20.9779 246.287 21.431 246.287 22.0273L 246.287 22.3047C 246.284 22.8958 246.177 23.3464 245.966 23.6562C 245.755 23.9635 245.453 24.1172 245.06 24.1172C 244.659 24.1172 244.352 23.957 244.138 23.6367C 243.925 23.3164 243.818 22.8659 243.818 22.2852L 243.818 22.0078C 243.82 21.4167 243.929 20.9688 244.142 20.6641C 244.355 20.3568 244.659 20.2031 245.052 20.2031C 245.448 20.2031 245.753 20.3581 245.966 20.668ZM 249.498 25L 249.498 22.9961L 250.525 22.9961C 251.199 22.9961 251.727 22.8359 252.107 22.5156C 252.49 22.1927 252.681 21.7526 252.681 21.1953C 252.681 20.8281 252.594 20.5013 252.419 20.2148C 252.245 19.9258 251.995 19.7031 251.669 19.5469C 251.347 19.3906 250.972 19.3125 250.544 19.3125L 248.326 19.3125L 248.326 25L 249.498 25ZM 250.544 22.0469L 249.498 22.0469L 249.498 20.2617L 250.572 20.2617C 250.861 20.2669 251.087 20.3555 251.251 20.5273C 251.416 20.6992 251.498 20.9245 251.498 21.2031C 251.498 21.474 251.416 21.6823 251.251 21.8281C 251.09 21.974 250.854 22.0469 250.544 22.0469ZM 254.662 22.918L 255.595 22.918L 256.662 25L 257.919 25L 257.919 24.9453L 256.689 22.6211C 257.03 22.4675 257.284 22.2617 257.451 22.0039C 257.62 21.7435 257.705 21.4193 257.705 21.0312C 257.705 20.4844 257.522 20.0612 257.158 19.7617C 256.793 19.4622 256.275 19.3125 255.603 19.3125L 253.49 19.3125L 253.49 25L 254.662 25L 254.662 22.918ZM 255.607 21.9688L 254.662 21.9688L 254.662 20.2617L 255.603 20.2617C 255.918 20.2617 256.151 20.3385 256.302 20.4922C 256.456 20.6458 256.533 20.8568 256.533 21.125C 256.533 21.388 256.452 21.595 256.291 21.7461C 256.129 21.8945 255.901 21.9688 255.607 21.9688ZM 258.673 25L 259.845 25L 259.845 19.3125L 258.673 19.3125L 258.673 25ZM 262.107 22.5352L 264.357 22.5352L 264.357 21.6172L 262.107 21.6172L 262.107 20.2617L 264.74 20.2617L 264.74 19.3125L 260.935 19.3125L 260.935 25L 264.748 25L 264.748 24.0586L 262.107 24.0586L 262.107 22.5352ZM 265.435 19.3125L 265.435 25L 267.197 25C 267.694 24.9974 268.141 24.8828 268.537 24.6562C 268.933 24.4297 269.238 24.1107 269.455 23.6992C 269.673 23.2878 269.783 22.8177 269.783 22.2891L 269.783 22.0273C 269.783 21.4987 269.672 21.0273 269.451 20.6133C 269.229 20.1966 268.921 19.8763 268.525 19.6523C 268.132 19.4258 267.685 19.3125 267.185 19.3125L 265.435 19.3125ZM 266.607 24.0586L 266.607 20.2617L 267.185 20.2617C 267.646 20.2617 267.996 20.4115 268.236 20.7109C 268.476 21.0078 268.595 21.4453 268.595 22.0234L 268.595 22.3242C 268.59 22.8815 268.466 23.3099 268.224 23.6094C 267.982 23.9089 267.632 24.0586 267.173 24.0586L 266.607 24.0586ZM 271.708 23.8281L 273.763 23.8281L 274.158 25L 275.404 25L 273.275 19.3125L 272.189 19.3125L 270.072 25L 271.318 25L 271.708 23.8281ZM 273.447 22.8789L 272.025 22.8789L 272.732 20.75L 273.447 22.8789ZM 275.935 19.3125L 275.935 25L 277.697 25C 278.194 24.9974 278.641 24.8828 279.037 24.6562C 279.433 24.4297 279.738 24.1107 279.955 23.6992C 280.173 23.2878 280.283 22.8177 280.283 22.2891L 280.283 22.0273C 280.283 21.4987 280.172 21.0273 279.951 20.6133C 279.729 20.1966 279.421 19.8763 279.025 19.6523C 278.632 19.4258 278.185 19.3125 277.685 19.3125L 275.935 19.3125ZM 277.107 24.0586L 277.107 20.2617L 277.685 20.2617C 278.146 20.2617 278.496 20.4115 278.736 20.7109C 278.976 21.0078 279.095 21.4453 279.095 22.0234L 279.095 22.3242C 279.09 22.8815 278.966 23.3099 278.724 23.6094C 278.482 23.9089 278.132 24.0586 277.673 24.0586L 277.107 24.0586ZM 282.31 22.5352L 284.56 22.5352L 284.56 21.6172L 282.31 21.6172L 282.31 20.2617L 284.943 20.2617L 284.943 19.3125L 281.138 19.3125L 281.138 25L 284.951 25L 284.951 24.0586L 282.31 24.0586L 282.31 22.5352Z"/>
</defs>
</svg>
