<svg width="195" height="44" viewBox="0 0 195 44" version="1.1" xmlns="http://www.w3.org/2000/svg" xmlns:xlink="http://www.w3.org/1999/xlink">
<title>Subtract</title>
<desc>Created using Figma</desc>
<g id="Canvas" transform="translate(-4580 326)">
<g id="Subtract">
<use xlink:href="#path0_fill" transform="translate(4580.33 -326)" fill="#FFFFFF"/>
</g>
</g>
<defs>
<path id="path0_fill" fill-rule="evenodd" d="M 0 44L 194.667 44L 154.051 0L 41.7437 0L 0 44ZM 81.0337 23.9189L 83.8462 23.9189L 83.8462 22.7715L 81.0337 22.7715L 81.0337 21.0771L 84.3247 21.0771L 84.3247 19.8906L 79.5688 19.8906L 79.5688 27L 84.3345 27L 84.3345 25.8232L 81.0337 25.8232L 81.0337 23.9189ZM 88.5874 24.5C 88.7827 24.6465 88.8804 24.8581 88.8804 25.1348C 88.8804 25.3887 88.7827 25.5872 88.5874 25.7305C 88.3921 25.8704 88.1201 25.9404 87.772 25.9404C 86.8345 25.9404 86.3657 25.5482 86.3657 24.7637L 84.896 24.7637C 84.896 25.2227 85.0132 25.6263 85.2476 25.9746C 85.4854 26.3229 85.8286 26.598 86.2778 26.7998C 86.7271 26.9984 87.2251 27.0977 87.772 27.0977C 88.5596 27.0977 89.1865 26.9235 89.6519 26.5752C 90.1172 26.2236 90.3501 25.7402 90.3501 25.125C 90.3501 24.5716 90.1597 24.1094 89.7788 23.7383C 89.3979 23.3672 88.791 23.0563 87.9575 22.8057C 87.5049 22.6689 87.1616 22.5225 86.9272 22.3662C 86.6963 22.21 86.5806 22.0163 86.5806 21.7852C 86.5806 21.5378 86.6797 21.3392 86.8784 21.1895C 87.0771 21.0365 87.3555 20.96 87.7134 20.96C 88.0845 20.96 88.3726 21.0511 88.5776 21.2334C 88.7827 21.4124 88.8853 21.6647 88.8853 21.9902L 90.3501 21.9902C 90.3501 21.5638 90.2393 21.1829 90.0181 20.8477C 89.7998 20.5124 89.4922 20.2536 89.0952 20.0713C 88.6982 19.8857 88.2456 19.793 87.7378 19.793C 87.2334 19.793 86.7773 19.8776 86.3706 20.0469C 85.9668 20.2161 85.6562 20.4521 85.438 20.7549C 85.2231 21.0544 85.1157 21.3962 85.1157 21.7803C 85.1157 22.5192 85.5195 23.1068 86.3267 23.543C 86.623 23.7025 87.0249 23.8652 87.5327 24.0312C 88.0405 24.194 88.3921 24.3503 88.5874 24.5ZM 94.52 21.0771L 96.6978 21.0771L 96.6978 19.8906L 90.9067 19.8906L 90.9067 21.0771L 93.0552 21.0771L 93.0552 27L 94.52 27L 94.52 21.0771ZM 97.6304 27L 99.0952 27L 99.0952 19.8906L 97.6304 19.8906L 97.6304 27ZM 104.198 25.0469L 102.372 19.8906L 100.458 19.8906L 100.458 27L 101.922 27L 101.922 25.0566L 101.776 21.707L 103.69 27L 104.696 27L 106.615 21.7021L 106.468 25.0566L 106.468 27L 107.938 27L 107.938 19.8906L 106.014 19.8906L 104.198 25.0469ZM 110.75 25.5352L 113.319 25.5352L 113.812 27L 115.37 27L 112.708 19.8906L 111.351 19.8906L 108.705 27L 110.262 27L 110.75 25.5352ZM 112.923 24.3486L 111.146 24.3486L 112.03 21.6875L 112.923 24.3486Z"/>
</defs>
</svg>
