<svg width="118" height="43" viewBox="0 0 118 43" version="1.1" xmlns="http://www.w3.org/2000/svg" xmlns:xlink="http://www.w3.org/1999/xlink">
<title>Union</title>
<desc>Created using Figma</desc>
<g id="Canvas" transform="translate(-4538 380)">
<g id="Union">
<use xlink:href="#path0_fill" transform="translate(4538.84 -379.491)" fill="#FFFFFF"/>
</g>
</g>
<defs>
<path id="path0_fill" fill-rule="evenodd" d="M 75.6479 41.7905C 75.6509 42.0666 75.8774 42.2877 76.1538 42.2844L 80.6533 42.2302C 80.9297 42.2269 81.1509 42.0003 81.1475 41.7242C 81.144 41.4481 80.9175 41.2269 80.6416 41.2303L 77.0986 41.2729L 76.6362 40.8215L 76.5933 37.2787C 76.5903 37.0026 76.3638 36.7815 76.0874 36.7848C 75.8115 36.7881 75.5903 37.0146 75.5938 37.2908L 75.6479 41.7905ZM 116.443 3.05176e-05L 111.943 0.0542603C 111.667 0.0575867 111.446 0.284119 111.45 0.560242C 111.453 0.836365 111.679 1.0575 111.956 1.05417L 115.499 1.01151L 115.961 1.46295L 116.003 5.00571C 116.007 5.28183 116.233 5.50296 116.509 5.49963C 116.786 5.49631 117.007 5.26978 117.003 4.99365L 116.949 0.493988C 116.946 0.217865 116.719 -0.0032959 116.443 3.05176e-05ZM 78.6646 39.922L 80.104 38.4476L 79.3882 37.7491L 77.9487 39.2235L 78.6646 39.922ZM 81.543 36.9731L 82.9824 35.4987L 82.2671 34.8002L 80.8276 36.2746L 81.543 36.9731ZM 84.4219 34.0243L 85.8613 32.5498L 85.1455 31.8513L 83.7065 33.3257L 84.4219 34.0243ZM 87.3008 31.0754L 88.7397 29.6009L 88.0244 28.9024L 86.585 30.3768L 87.3008 31.0754ZM 90.1792 28.1265L 91.6187 26.652L 90.9028 25.9535L 89.4639 27.4279L 90.1792 28.1265ZM 93.0581 25.1776L 94.4971 23.7032L 93.7817 23.0046L 92.3423 24.4791L 93.0581 25.1776ZM 95.9365 22.2287L 97.376 20.7543L 96.6602 20.0557L 95.2212 21.5302L 95.9365 22.2287ZM 98.8154 19.2798L 100.254 17.8054L 99.5391 17.1068L 98.0996 18.5813L 98.8154 19.2798ZM 101.694 16.3309L 103.133 14.8565L 102.417 14.158L 100.979 15.6324L 101.694 16.3309ZM 104.573 13.382L 106.012 11.9076L 105.296 11.209L 103.857 12.6835L 104.573 13.382ZM 107.451 10.4332L 108.891 8.95871L 108.175 8.26016L 106.736 9.73462L 107.451 10.4332ZM 110.33 7.48425L 111.77 6.00983L 111.054 5.31128L 109.614 6.78574L 110.33 7.48425ZM 113.208 4.53537L 114.648 3.06094L 113.933 2.3624L 112.493 3.83685L 113.208 4.53537ZM 29.9297 17.4915L 31.1016 17.4915L 31.1016 11.804L 29.9336 11.804L 29.9336 15.554L 27.6484 11.804L 26.4766 11.804L 26.4766 17.4915L 27.6484 17.4915L 27.6484 13.7493L 29.9297 17.4915ZM 33.2969 15.0266L 35.5469 15.0266L 35.5469 14.1087L 33.2969 14.1087L 33.2969 12.7532L 35.9297 12.7532L 35.9297 11.804L 32.125 11.804L 32.125 17.4915L 35.9375 17.4915L 35.9375 16.5501L 33.2969 16.5501L 33.2969 15.0266ZM 40.4102 17.0423C 40.8188 16.6907 41.0454 16.2089 41.0898 15.597L 39.918 15.597C 39.8921 15.9433 39.7891 16.1998 39.6094 16.3665C 39.4321 16.5305 39.1626 16.6126 38.8008 16.6126C 38.3999 16.6126 38.1055 16.4706 37.918 16.1868C 37.7329 15.903 37.6406 15.4537 37.6406 14.8391L 37.6406 14.4095C 37.646 13.8209 37.7446 13.3873 37.9375 13.1087C 38.1328 12.8274 38.4258 12.6868 38.8164 12.6868C 39.1758 12.6868 39.4429 12.7701 39.6172 12.9368C 39.7944 13.1009 39.897 13.3665 39.9258 13.7337L 41.0977 13.7337C 41.0352 13.0983 40.8032 12.6048 40.4023 12.2532C 40.0015 11.9016 39.4727 11.7259 38.8164 11.7259C 38.3423 11.7259 37.9258 11.8378 37.5664 12.0618C 37.2095 12.2831 36.9351 12.6022 36.7422 13.0188C 36.5493 13.4355 36.4531 13.9173 36.4531 14.4641L 36.4531 14.8118C 36.4531 15.6686 36.6616 16.343 37.0781 16.8352C 37.4976 17.3248 38.0718 17.5696 38.8008 17.5696C 39.4673 17.5696 40.0039 17.3938 40.4102 17.0423ZM 43.0312 15.0266L 45.2812 15.0266L 45.2812 14.1087L 43.0312 14.1087L 43.0312 12.7532L 45.6641 12.7532L 45.6641 11.804L 41.8594 11.804L 41.8594 17.4915L 45.6719 17.4915L 45.6719 16.5501L 43.0312 16.5501L 43.0312 15.0266ZM 49.0742 15.4915C 49.2305 15.6087 49.3086 15.778 49.3086 15.9993C 49.3086 16.2024 49.2305 16.3613 49.0742 16.4759C 48.918 16.5878 48.7007 16.6438 48.4219 16.6438C 47.6719 16.6438 47.2969 16.33 47.2969 15.7024L 46.1211 15.7024C 46.1211 16.0696 46.2148 16.3925 46.4023 16.6712C 46.5923 16.9498 46.8672 17.1699 47.2266 17.3313C 47.5859 17.4902 47.9844 17.5696 48.4219 17.5696C 49.0522 17.5696 49.5532 17.4303 49.9258 17.1516C 50.2983 16.8704 50.4844 16.4837 50.4844 15.9915C 50.4844 15.5488 50.332 15.179 50.0273 14.8821C 49.7227 14.5852 49.2368 14.3365 48.5703 14.136C 48.2085 14.0266 47.9336 13.9095 47.7461 13.7845C 47.561 13.6595 47.4688 13.5045 47.4688 13.3196C 47.4688 13.1217 47.5483 12.9628 47.707 12.843C 47.8657 12.7206 48.0884 12.6595 48.375 12.6595C 48.6719 12.6595 48.9023 12.7324 49.0664 12.8782C 49.2305 13.0214 49.3125 13.2233 49.3125 13.4837L 50.4844 13.4837C 50.4844 13.1425 50.396 12.8378 50.2188 12.5696C 50.0444 12.3014 49.7983 12.0944 49.4805 11.9485C 49.1626 11.8001 48.8008 11.7259 48.3945 11.7259C 47.9907 11.7259 47.6265 11.7936 47.3008 11.929C 46.978 12.0644 46.729 12.2532 46.5547 12.4954C 46.3828 12.735 46.2969 13.0084 46.2969 13.3157C 46.2969 13.9069 46.6196 14.3769 47.2656 14.7259C 47.5024 14.8535 47.8242 14.9837 48.2305 15.1165C 48.6367 15.2467 48.918 15.3717 49.0742 15.4915ZM 53.9961 15.4915C 54.1523 15.6087 54.2305 15.778 54.2305 15.9993C 54.2305 16.2024 54.1523 16.3613 53.9961 16.4759C 53.8989 16.5454 53.7783 16.5934 53.6338 16.6198C 53.5459 16.6358 53.4492 16.6438 53.3438 16.6438C 52.5938 16.6438 52.2188 16.33 52.2188 15.7024L 51.043 15.7024C 51.043 16.0696 51.1367 16.3925 51.3242 16.6712C 51.5142 16.9498 51.7891 17.1699 52.1484 17.3313C 52.5078 17.4902 52.9062 17.5696 53.3438 17.5696C 53.9741 17.5696 54.4751 17.4303 54.8477 17.1516C 55.2202 16.8704 55.4062 16.4837 55.4062 15.9915C 55.4062 15.5488 55.2539 15.179 54.9492 14.8821C 54.6445 14.5852 54.1587 14.3365 53.4922 14.136C 53.3013 14.0782 53.1343 14.0183 52.9917 13.9562C 52.8643 13.9007 52.7563 13.8434 52.668 13.7845C 52.4829 13.6595 52.3906 13.5045 52.3906 13.3196C 52.3906 13.2286 52.4072 13.1458 52.4409 13.0713C 52.4805 12.9839 52.543 12.9077 52.6289 12.843C 52.7876 12.7206 53.0103 12.6595 53.2969 12.6595C 53.4678 12.6595 53.6167 12.6837 53.7437 12.732C 53.8374 12.7676 53.9189 12.8164 53.9883 12.8782C 54.1523 13.0214 54.2344 13.2233 54.2344 13.4837L 55.4062 13.4837C 55.4062 13.1425 55.3179 12.8378 55.1406 12.5696C 54.9663 12.3014 54.7202 12.0944 54.4023 11.9485C 54.0845 11.8001 53.7227 11.7259 53.3164 11.7259C 52.9126 11.7259 52.5483 11.7936 52.2227 11.929C 51.8999 12.0644 51.6509 12.2532 51.4766 12.4954C 51.3047 12.735 51.2188 13.0084 51.2188 13.3157C 51.2188 13.9069 51.5415 14.3769 52.1875 14.7259C 52.311 14.7924 52.4575 14.8596 52.6274 14.9276C 52.7832 14.99 52.958 15.0529 53.1523 15.1165C 53.5586 15.2467 53.8398 15.3717 53.9961 15.4915ZM 56.2773 17.4915L 57.4492 17.4915L 57.4492 11.804L 56.2773 11.804L 56.2773 17.4915ZM 58.5391 11.804L 58.5391 17.4915L 60.3008 17.4915C 60.7983 17.4889 61.2446 17.3743 61.6406 17.1477C 62.0366 16.9212 62.3423 16.6022 62.5586 16.1907C 62.7773 15.7792 62.8867 15.3092 62.8867 14.7805L 62.8867 14.5188C 62.8867 13.9902 62.7759 13.5188 62.5547 13.1048C 62.3335 12.6881 62.0249 12.3678 61.6289 12.1438C 61.2358 11.9173 60.7891 11.804 60.2891 11.804L 58.5391 11.804ZM 59.7109 16.5501L 59.7109 12.7532L 60.2891 12.7532C 60.75 12.7532 61.1001 12.903 61.3398 13.2024C 61.5796 13.4993 61.6992 13.9368 61.6992 14.5149L 61.6992 14.8157C 61.6938 15.373 61.5703 15.8014 61.3281 16.1009C 61.0859 16.4003 60.7358 16.5501 60.2773 16.5501L 59.7109 16.5501ZM 64.8125 16.3196L 66.8672 16.3196L 67.2617 17.4915L 68.5078 17.4915L 66.3789 11.804L 65.293 11.804L 63.1758 17.4915L 64.4219 17.4915L 64.8125 16.3196ZM 66.5508 15.3704L 65.1289 15.3704L 65.8359 13.2415L 66.5508 15.3704ZM 69.0391 11.804L 69.0391 17.4915L 70.8008 17.4915C 71.2983 17.4889 71.7446 17.3743 72.1406 17.1477C 72.5366 16.9212 72.8423 16.6022 73.0586 16.1907C 73.2773 15.7792 73.3867 15.3092 73.3867 14.7805L 73.3867 14.5188C 73.3867 13.9902 73.2759 13.5188 73.0547 13.1048C 72.8335 12.6881 72.5249 12.3678 72.1289 12.1438C 71.7358 11.9173 71.2891 11.804 70.7891 11.804L 69.0391 11.804ZM 70.2109 16.5501L 70.2109 12.7532L 70.7891 12.7532C 71.25 12.7532 71.6001 12.903 71.8398 13.2024C 72.0796 13.4993 72.1992 13.9368 72.1992 14.5149L 72.1992 14.8157C 72.1938 15.373 72.0703 15.8014 71.8281 16.1009C 71.5859 16.4003 71.2358 16.5501 70.7773 16.5501L 70.2109 16.5501ZM 75.4141 15.0266L 77.6641 15.0266L 77.6641 14.1087L 75.4141 14.1087L 75.4141 12.7532L 78.0469 12.7532L 78.0469 11.804L 74.2422 11.804L 74.2422 17.4915L 78.0547 17.4915L 78.0547 16.5501L 75.4141 16.5501L 75.4141 15.0266ZM 81.457 15.4915C 81.6133 15.6087 81.6914 15.778 81.6914 15.9993C 81.6914 16.2024 81.6133 16.3613 81.457 16.4759C 81.3008 16.5878 81.0835 16.6438 80.8047 16.6438C 80.0547 16.6438 79.6797 16.33 79.6797 15.7024L 78.5039 15.7024C 78.5039 16.0696 78.5977 16.3925 78.7852 16.6712C 78.9751 16.9498 79.25 17.1699 79.6094 17.3313C 79.9688 17.4902 80.3672 17.5696 80.8047 17.5696C 81.4351 17.5696 81.936 17.4303 82.3086 17.1516C 82.6812 16.8704 82.8672 16.4837 82.8672 15.9915C 82.8672 15.5488 82.7148 15.179 82.4102 14.8821C 82.1055 14.5852 81.6196 14.3365 80.9531 14.136C 80.5913 14.0266 80.3164 13.9095 80.1289 13.7845C 79.9438 13.6595 79.8516 13.5045 79.8516 13.3196C 79.8516 13.1217 79.9312 12.9628 80.0898 12.843C 80.2485 12.7206 80.4712 12.6595 80.7578 12.6595C 81.0547 12.6595 81.2852 12.7324 81.4492 12.8782C 81.6133 13.0214 81.6953 13.2233 81.6953 13.4837L 82.8672 13.4837C 82.8672 13.1425 82.7788 12.8378 82.6016 12.5696C 82.4272 12.3014 82.1812 12.0944 81.8633 11.9485C 81.5454 11.8001 81.1836 11.7259 80.7773 11.7259C 80.3735 11.7259 80.0093 11.7936 79.6836 11.929C 79.3608 12.0644 79.1118 12.2532 78.9375 12.4954C 78.7656 12.735 78.6797 13.0084 78.6797 13.3157C 78.6797 13.9069 79.0024 14.3769 79.6484 14.7259C 79.7393 14.7748 79.8428 14.8242 79.9585 14.874C 80.1445 14.9538 80.3628 15.0347 80.6133 15.1165C 81.0195 15.2467 81.3008 15.3717 81.457 15.4915ZM 0 21.804L 0 27.4915L 1.76172 27.4915C 2.25928 27.4889 2.70557 27.3743 3.10156 27.1477C 3.49756 26.9212 3.80322 26.6022 4.01953 26.1907C 4.23828 25.7792 4.34766 25.3092 4.34766 24.7805L 4.34766 24.5188C 4.34766 23.9902 4.23682 23.5188 4.01562 23.1048C 3.79443 22.6881 3.48584 22.3678 3.08984 22.1438C 2.69678 21.9173 2.25 21.804 1.75 21.804L 0 21.804ZM 1.17188 26.5501L 1.17188 22.7532L 1.75 22.7532C 2.21094 22.7532 2.56104 22.903 2.80078 23.2024C 3.04053 23.4993 3.16016 23.9368 3.16016 24.5149L 3.16016 24.8157C 3.15479 25.373 3.03125 25.8014 2.78906 26.1009C 2.54688 26.4003 2.19678 26.5501 1.73828 26.5501L 1.17188 26.5501ZM 6.375 25.0266L 8.625 25.0266L 8.625 24.1087L 6.375 24.1087L 6.375 22.7532L 9.00781 22.7532L 9.00781 21.804L 5.20312 21.804L 5.20312 27.4915L 9.01562 27.4915L 9.01562 26.5501L 6.375 26.5501L 6.375 25.0266ZM 12.8516 26.3196L 14.9062 26.3196L 15.3008 27.4915L 16.5469 27.4915L 14.418 21.804L 13.332 21.804L 11.2148 27.4915L 12.4609 27.4915L 12.8516 26.3196ZM 14.5898 25.3704L 13.168 25.3704L 13.875 23.2415L 14.5898 25.3704ZM 21.3125 25.5501L 21.3125 21.804L 20.1367 21.804L 20.1367 25.5891C 20.1265 26.2819 19.7915 26.6282 19.1328 26.6282C 18.8179 26.6282 18.5703 26.5436 18.3906 26.3743C 18.2134 26.2024 18.125 25.9303 18.125 25.5579L 18.125 21.804L 16.9531 21.804L 16.9531 25.593C 16.9609 26.2076 17.1602 26.6907 17.5508 27.0423C 17.9414 27.3938 18.4688 27.5696 19.1328 27.5696C 19.8071 27.5696 20.3384 27.3886 20.7266 27.0266C 21.1172 26.6647 21.3125 26.1725 21.3125 25.5501ZM 24.8125 22.7532L 26.5547 22.7532L 26.5547 21.804L 21.9219 21.804L 21.9219 22.7532L 23.6406 22.7532L 23.6406 27.4915L 24.8125 27.4915L 24.8125 22.7532ZM 31.4922 26.2493C 31.6899 25.8274 31.7891 25.3365 31.7891 24.7766L 31.7891 24.5227C 31.7891 23.9655 31.6875 23.4745 31.4844 23.0501C 31.2837 22.623 30.9985 22.2962 30.6289 22.0696C 30.2617 21.8405 29.8413 21.7259 29.3672 21.7259C 28.8931 21.7259 28.4712 21.8405 28.1016 22.0696C 27.7344 22.2962 27.4492 22.623 27.2461 23.0501C 27.0454 23.4745 26.9453 23.9667 26.9453 24.5266L 26.9453 24.8079C 26.9478 25.3548 27.0508 25.8391 27.2539 26.261C 27.457 26.6803 27.7437 27.0032 28.1133 27.2298C 28.4829 27.4563 28.9038 27.5696 29.375 27.5696C 29.8516 27.5696 30.2734 27.455 30.6406 27.2259C 31.0103 26.9967 31.2944 26.6712 31.4922 26.2493ZM 30.2812 23.1595C 30.4946 23.4694 30.6016 23.9225 30.6016 24.5188L 30.6016 24.7962C 30.5991 25.3873 30.4922 25.8378 30.2812 26.1477C 30.0703 26.455 29.7681 26.6087 29.375 26.6087C 28.9741 26.6087 28.6665 26.4485 28.4531 26.1282C 28.2397 25.8079 28.1328 25.3574 28.1328 24.7766L 28.1328 24.4993C 28.1353 23.9081 28.2437 23.4602 28.457 23.1555C 28.6704 22.8483 28.9741 22.6946 29.3672 22.6946C 29.7632 22.6946 30.0679 22.8495 30.2812 23.1595ZM 32.5625 25.511L 34.7617 25.511L 34.7617 24.6009L 32.5625 24.6009L 32.5625 25.511ZM 36.9141 25.4095L 37.8477 25.4095L 38.9141 27.4915L 40.1719 27.4915L 40.1719 27.4368L 38.9414 25.1126C 39.2827 24.9589 39.5366 24.7532 39.7031 24.4954C 39.8726 24.235 39.957 23.9108 39.957 23.5227C 39.957 22.9759 39.7749 22.5527 39.4102 22.2532C 39.0454 21.9537 38.5273 21.804 37.8555 21.804L 35.7422 21.804L 35.7422 27.4915L 36.9141 27.4915L 36.9141 25.4095ZM 37.8594 24.4602L 36.9141 24.4602L 36.9141 22.7532L 37.8555 22.7532C 38.1704 22.7532 38.4038 22.83 38.5547 22.9837C 38.7085 23.1373 38.7852 23.3483 38.7852 23.6165C 38.7852 23.8795 38.7046 24.0865 38.543 24.2376C 38.3813 24.386 38.1538 24.4602 37.8594 24.4602ZM 42.0234 25.0266L 44.2734 25.0266L 44.2734 24.1087L 42.0234 24.1087L 42.0234 22.7532L 44.6562 22.7532L 44.6562 21.804L 40.8516 21.804L 40.8516 27.4915L 44.6641 27.4915L 44.6641 26.5501L 42.0234 26.5501L 42.0234 25.0266ZM 46.5078 26.3196L 48.5625 26.3196L 48.957 27.4915L 50.2031 27.4915L 48.0742 21.804L 46.9883 21.804L 44.8711 27.4915L 46.1172 27.4915L 46.5078 26.3196ZM 48.2461 25.3704L 46.8242 25.3704L 47.5312 23.2415L 48.2461 25.3704ZM 54.3945 26.5501L 51.9062 26.5501L 51.9062 21.804L 50.7344 21.804L 50.7344 27.4915L 54.3945 27.4915L 54.3945 26.5501ZM 55.1445 27.4915L 56.3164 27.4915L 56.3164 21.804L 55.1445 21.804L 55.1445 27.4915ZM 61.5156 26.5501L 58.6484 26.5501L 61.4531 22.4759L 61.4531 21.804L 57.1875 21.804L 57.1875 22.7532L 59.9961 22.7532L 57.1836 26.804L 57.1836 27.4915L 61.5156 27.4915L 61.5156 26.5501ZM 63.4688 26.3196L 65.5234 26.3196L 65.918 27.4915L 67.1641 27.4915L 65.0352 21.804L 63.9492 21.804L 61.832 27.4915L 63.0781 27.4915L 63.4688 26.3196ZM 65.207 25.3704L 63.7852 25.3704L 64.4922 23.2415L 65.207 25.3704ZM 71.3945 27.0423C 71.8032 26.6907 72.0298 26.2089 72.0742 25.597L 70.9023 25.597C 70.8882 25.7849 70.8516 25.9464 70.792 26.0815C 70.7417 26.1953 70.6758 26.2903 70.5938 26.3665C 70.4165 26.5305 70.147 26.6126 69.7852 26.6126C 69.3843 26.6126 69.0898 26.4706 68.9023 26.1868C 68.7173 25.903 68.625 25.4537 68.625 24.8391L 68.625 24.4095C 68.6304 23.8209 68.729 23.3873 68.9219 23.1087C 69.1172 22.8274 69.4102 22.6868 69.8008 22.6868C 70.1602 22.6868 70.4272 22.7701 70.6016 22.9368C 70.7788 23.1009 70.8813 23.3665 70.9102 23.7337L 72.082 23.7337C 72.0195 23.0983 71.7876 22.6048 71.3867 22.2532C 70.9858 21.9016 70.457 21.7259 69.8008 21.7259C 69.3267 21.7259 68.9102 21.8378 68.5508 22.0618C 68.1938 22.2831 67.9194 22.6022 67.7266 23.0188C 67.5337 23.4355 67.4375 23.9173 67.4375 24.4641L 67.4375 24.8118C 67.4375 25.6686 67.646 26.343 68.0625 26.8352C 68.396 27.2243 68.8271 27.4588 69.356 27.5387L 69.25 28.0266C 69.4453 28.0397 69.5859 28.0657 69.6719 28.1048C 69.7603 28.1464 69.8047 28.222 69.8047 28.3313C 69.8047 28.5423 69.6587 28.6477 69.3672 28.6477L 69.3945 29.3001C 69.8267 29.3001 70.1616 29.2167 70.3984 29.0501C 70.6382 28.8834 70.7578 28.6569 70.7578 28.3704C 70.7578 27.9902 70.5625 27.7649 70.1719 27.6946L 70.2002 27.5448C 70.6782 27.4851 71.0762 27.3176 71.3945 27.0423ZM 74 26.3196L 76.0547 26.3196L 76.4492 27.4915L 77.6953 27.4915L 75.5664 21.804L 74.4805 21.804L 72.3633 27.4915L 73.6094 27.4915L 74 26.3196ZM 75.7383 25.3704L 74.3164 25.3704L 75.0234 23.2415L 75.7383 25.3704ZM 76.25 21.0774C 76.4219 20.8769 76.5078 20.6295 76.5078 20.3352L 75.8555 20.2923C 75.8555 20.3581 75.8452 20.4156 75.8247 20.4649C 75.8081 20.5053 75.7847 20.5403 75.7539 20.5696C 75.689 20.6321 75.6108 20.6634 75.5195 20.6634C 75.4546 20.6634 75.3921 20.6555 75.332 20.6399C 75.272 20.6243 75.1641 20.5787 75.0078 20.5032C 74.8516 20.4277 74.7383 20.3808 74.668 20.3626C 74.6001 20.3417 74.5273 20.3313 74.4492 20.3313C 74.2017 20.3313 73.9922 20.4329 73.8203 20.636C 73.6509 20.8391 73.5664 21.0852 73.5664 21.3743L 74.2227 21.4134C 74.2227 21.2936 74.2539 21.2011 74.3164 21.136C 74.3813 21.0709 74.4595 21.0384 74.5508 21.0384C 74.5996 21.0384 74.6455 21.0427 74.689 21.0515C 74.7085 21.0553 74.7275 21.0601 74.7461 21.0657C 74.8062 21.0813 74.9038 21.1256 75.0391 21.1985C 75.1743 21.2714 75.2798 21.3196 75.3555 21.343C 75.4336 21.3639 75.522 21.3743 75.6211 21.3743C 75.8687 21.3743 76.0781 21.2753 76.25 21.0774ZM 82.5156 26.2493C 82.7134 25.8274 82.8125 25.3365 82.8125 24.7766L 82.8125 24.5227C 82.8125 23.9655 82.7109 23.4745 82.5078 23.0501C 82.3071 22.623 82.022 22.2962 81.6523 22.0696C 81.2852 21.8405 80.8647 21.7259 80.3906 21.7259C 79.9165 21.7259 79.4946 21.8405 79.125 22.0696C 78.7578 22.2962 78.4727 22.623 78.2695 23.0501C 78.0688 23.4745 77.9688 23.9667 77.9688 24.5266L 77.9688 24.8079C 77.9712 25.3548 78.0742 25.8391 78.2773 26.261C 78.4805 26.6803 78.7671 27.0032 79.1367 27.2298C 79.5063 27.4563 79.9272 27.5696 80.3984 27.5696C 80.875 27.5696 81.2969 27.455 81.6641 27.2259C 82.0337 26.9967 82.3179 26.6712 82.5156 26.2493ZM 81.3047 23.1595C 81.5181 23.4694 81.625 23.9225 81.625 24.5188L 81.625 24.7962C 81.6226 25.3873 81.5156 25.8378 81.3047 26.1477C 81.0938 26.455 80.7915 26.6087 80.3984 26.6087C 79.9976 26.6087 79.6899 26.4485 79.4766 26.1282C 79.2632 25.8079 79.1562 25.3574 79.1562 24.7766L 79.1562 24.4993C 79.1587 23.9081 79.2671 23.4602 79.4805 23.1555C 79.6938 22.8483 79.9976 22.6946 80.3906 22.6946C 80.7866 22.6946 81.0913 22.8495 81.3047 23.1595Z"/>
</defs>
</svg>
