<svg width="113" height="60" viewBox="0 0 113 60" version="1.1" xmlns="http://www.w3.org/2000/svg" xmlns:xlink="http://www.w3.org/1999/xlink">
<title>Subtract</title>
<desc>Created using Figma</desc>
<g id="Canvas" transform="translate(-4622 389)">
<g id="Subtract">
<use xlink:href="#path0_fill" transform="translate(4622.08 -389)" fill="#FFFFFF"/>
</g>
</g>
<defs>
<path id="path0_fill" fill-rule="evenodd" d="M 0 60L 112.308 60L 56.9229 0L 0 60ZM 27.5713 47.3975L 28.7383 47.3975L 30.0713 50L 31.6436 50L 31.6436 49.9316L 30.1055 47.0264C 30.5317 46.8343 30.8491 46.5771 31.0576 46.2549C 31.269 45.9294 31.375 45.5241 31.375 45.0391C 31.375 44.3555 31.147 43.8265 30.6914 43.4521C 30.2358 43.0778 29.5879 42.8906 28.748 42.8906L 26.1064 42.8906L 26.1064 50L 27.5713 50L 27.5713 47.3975ZM 28.7529 46.2109L 27.5713 46.2109L 27.5713 44.0771L 28.748 44.0771C 29.1421 44.0771 29.4331 44.1732 29.6221 44.3652C 29.814 44.5573 29.9102 44.821 29.9102 45.1562C 29.9102 45.485 29.8091 45.7438 29.6074 45.9326C 29.4058 46.1182 29.1206 46.2109 28.7529 46.2109ZM 33.958 46.9189L 36.7705 46.9189L 36.7705 45.7715L 33.958 45.7715L 33.958 44.0771L 37.249 44.0771L 37.249 42.8906L 32.4932 42.8906L 32.4932 50L 37.2588 50L 37.2588 48.8232L 33.958 48.8232L 33.958 46.9189ZM 39.5635 48.5352L 42.1318 48.5352L 42.625 50L 44.1826 50L 41.5215 42.8906L 40.1641 42.8906L 37.5176 50L 39.0752 50L 39.5635 48.5352ZM 41.7363 47.3486L 39.959 47.3486L 40.8428 44.6875L 41.7363 47.3486ZM 49.4219 48.8232L 46.3115 48.8232L 46.3115 42.8906L 44.8467 42.8906L 44.8467 50L 49.4219 50L 49.4219 48.8232ZM 50.3594 50L 51.8242 50L 51.8242 42.8906L 50.3594 42.8906L 50.3594 50ZM 58.3232 48.8232L 54.7393 48.8232L 58.2451 43.7305L 58.2451 42.8906L 52.9131 42.8906L 52.9131 44.0771L 56.4238 44.0771L 52.9082 49.1406L 52.9082 50L 58.3232 50L 58.3232 48.8232ZM 60.7646 48.5352L 63.333 48.5352L 63.8262 50L 65.3838 50L 62.7227 42.8906L 61.3652 42.8906L 58.7188 50L 60.2764 50L 60.7646 48.5352ZM 62.9375 47.3486L 61.1602 47.3486L 62.0439 44.6875L 62.9375 47.3486ZM 70.6719 49.4385C 71.1831 48.999 71.4663 48.3968 71.5215 47.6318L 70.0566 47.6318C 70.0239 48.0648 69.8955 48.3854 69.6709 48.5938C 69.4497 48.7988 69.1128 48.9014 68.6602 48.9014C 68.1587 48.9014 67.791 48.724 67.5566 48.3691C 67.3257 48.0143 67.21 47.4528 67.21 46.6846L 67.21 46.1475C 67.2163 45.4118 67.3403 44.8698 67.5811 44.5215C 67.8252 44.1699 68.1914 43.9941 68.6797 43.9941C 69.1289 43.9941 69.4624 44.0983 69.6807 44.3066C 69.9019 44.5117 70.0308 44.8438 70.0664 45.3027L 71.5312 45.3027C 71.4531 44.5085 71.1636 43.8916 70.6621 43.4521C 70.1606 43.0127 69.5 42.793 68.6797 42.793C 68.0874 42.793 67.5664 42.9329 67.1172 43.2129C 66.6714 43.4896 66.3276 43.8883 66.0869 44.4092C 65.8462 44.93 65.7256 45.5322 65.7256 46.2158L 65.7256 46.6504C 65.7256 47.7214 65.9858 48.5645 66.5068 49.1797C 66.9233 49.6661 67.4624 49.9592 68.1235 50.059L 67.9912 50.6689C 68.2354 50.6852 68.4111 50.7178 68.5186 50.7666C 68.6294 50.8187 68.6846 50.9131 68.6846 51.0498C 68.6846 51.3135 68.5024 51.4453 68.1377 51.4453L 68.1719 52.2607C 68.7124 52.2607 69.1304 52.1566 69.4268 51.9482C 69.7261 51.7399 69.876 51.4567 69.876 51.0986C 69.876 50.6234 69.6318 50.3418 69.1436 50.2539L 69.1792 50.0667C 69.7769 49.9921 70.2739 49.7827 70.6719 49.4385ZM 73.9287 48.5352L 76.4971 48.5352L 76.9902 50L 78.5479 50L 75.8867 42.8906L 74.5293 42.8906L 71.8828 50L 73.4404 50L 73.9287 48.5352ZM 76.1016 47.3486L 74.3242 47.3486L 75.208 44.6875L 76.1016 47.3486ZM 76.7412 41.9824C 76.9561 41.7318 77.0635 41.4225 77.0635 41.0547L 76.248 41.001C 76.248 41.1507 76.2056 41.2663 76.1211 41.3477C 76.0396 41.4258 75.9419 41.4648 75.8281 41.4648C 75.7759 41.4648 75.7251 41.4608 75.6758 41.4528C 75.6479 41.4483 75.6206 41.4426 75.5938 41.4355C 75.5522 41.4248 75.4927 41.4025 75.4146 41.3689C 75.3511 41.3417 75.2759 41.3069 75.1885 41.2646C 74.9932 41.1702 74.8516 41.1117 74.7637 41.0889C 74.6792 41.0628 74.5879 41.0498 74.4902 41.0498C 74.1812 41.0498 73.9189 41.1768 73.7041 41.4307C 73.4927 41.6846 73.3867 41.9922 73.3867 42.3535L 74.207 42.4023C 74.207 42.2526 74.2461 42.137 74.3242 42.0557C 74.4058 41.9743 74.5034 41.9336 74.6172 41.9336C 74.7051 41.9336 74.7866 41.945 74.8613 41.9678C 74.9038 41.9789 74.9619 42.0017 75.0356 42.0361C 75.0908 42.0621 75.1548 42.0946 75.2275 42.1338C 75.397 42.2249 75.5288 42.2852 75.623 42.3145C 75.7207 42.3405 75.8315 42.3535 75.9551 42.3535C 76.2642 42.3535 76.5264 42.2298 76.7412 41.9824ZM 84.5732 48.4473C 84.8208 47.9199 84.9443 47.3063 84.9443 46.6064L 84.9443 46.2891C 84.9443 45.5924 84.8174 44.9788 84.5635 44.4482C 84.313 43.9144 83.9565 43.5059 83.4941 43.2227C 83.0352 42.9362 82.5093 42.793 81.917 42.793C 81.3247 42.793 80.7974 42.9362 80.335 43.2227C 79.876 43.5059 79.5195 43.9144 79.2656 44.4482C 79.0151 44.9788 78.8896 45.5941 78.8896 46.2939L 78.8896 46.6455C 78.8931 47.3291 79.0215 47.9346 79.2754 48.4619C 79.5293 48.986 79.8872 49.3896 80.3496 49.6729C 80.812 49.9561 81.3374 50.0977 81.9268 50.0977C 82.5225 50.0977 83.0498 49.9544 83.5088 49.668C 83.9712 49.3815 84.3257 48.9746 84.5732 48.4473ZM 83.0596 44.585C 83.3267 44.9723 83.46 45.5387 83.46 46.2842L 83.46 46.6309C 83.4565 47.3698 83.3232 47.9329 83.0596 48.3203C 82.7959 48.7044 82.4185 48.8965 81.9268 48.8965C 81.4253 48.8965 81.0415 48.6963 80.7744 48.2959C 80.5073 47.8955 80.374 47.3324 80.374 46.6064L 80.374 46.2598C 80.3774 45.5208 80.5122 44.9609 80.7793 44.5801C 81.0464 44.196 81.4253 44.0039 81.917 44.0039C 82.4116 44.0039 82.7925 44.1976 83.0596 44.585Z"/>
</defs>
</svg>
