<svg width="96" height="67" viewBox="0 0 96 67" version="1.1" xmlns="http://www.w3.org/2000/svg" xmlns:xlink="http://www.w3.org/1999/xlink">
<title>Union</title>
<desc>Created using Figma</desc>
<g id="Canvas" transform="translate(-4414 224)">
<g id="Union">
<use xlink:href="#path0_fill" transform="translate(4414.32 -223.484)" fill="#FFFFFF"/>
</g>
</g>
<defs>
<path id="path0_fill" fill-rule="evenodd" d="M 32.1636 65.7883C 32.1699 66.0643 32.3989 66.2829 32.6748 66.2765L 37.1738 66.1719C 37.4497 66.1655 37.6685 65.9365 37.6621 65.6604C 37.6553 65.3843 37.4263 65.1657 37.1504 65.1722L 33.5386 65.2562L 33.1426 64.8781L 33.0586 61.2662C 33.0522 60.9902 32.8232 60.7716 32.5469 60.778C 32.271 60.7844 32.0522 61.0134 32.0586 61.2895L 32.1636 65.7883ZM 94.9609 0.000137329L 90.4624 0.104767C 90.1865 0.111176 89.9678 0.340179 89.9741 0.616257C 89.9805 0.892319 90.2095 1.11092 90.4858 1.10449L 94.0972 1.02049L 94.4937 1.39862L 94.5776 5.01041C 94.584 5.28648 94.813 5.50507 95.0889 5.49866C 95.3652 5.49223 95.5835 5.26323 95.5771 4.98717L 95.4727 0.488373C 95.4663 0.212311 95.2373 -0.00628662 94.9609 0.000137329ZM 35.0566 63.9933L 36.4111 62.5742L 35.688 61.8838L 34.3335 63.3028L 35.0566 63.9933ZM 37.7656 61.1552L 39.1206 59.7361L 38.397 59.0457L 37.0425 60.4647L 37.7656 61.1552ZM 40.4751 58.3171L 41.8296 56.898L 41.106 56.2075L 39.7515 57.6266L 40.4751 58.3171ZM 43.1841 55.479L 44.5386 54.0599L 43.8154 53.3694L 42.4609 54.7885L 43.1841 55.479ZM 45.8931 52.6408L 47.2476 51.2218L 46.5244 50.5313L 45.1699 51.9504L 45.8931 52.6408ZM 48.6025 49.8027L 49.957 48.3837L 49.2334 47.6932L 47.8789 49.1122L 48.6025 49.8027ZM 51.3115 46.9646L 52.666 45.5455L 51.9424 44.8551L 50.5879 46.2741L 51.3115 46.9646ZM 54.0205 44.1265L 55.375 42.7074L 54.6519 42.017L 53.2974 43.436L 54.0205 44.1265ZM 56.7295 41.2884L 58.084 39.8693L 57.3608 39.1788L 56.0063 40.5979L 56.7295 41.2884ZM 59.439 38.4503L 60.7935 37.0312L 60.0698 36.3407L 58.7153 37.7598L 59.439 38.4503ZM 62.1479 35.6122L 63.5024 34.1931L 62.7788 33.5026L 61.4243 34.9217L 62.1479 35.6122ZM 64.8569 32.774L 66.2114 31.355L 65.4883 30.6645L 64.1338 32.0836L 64.8569 32.774ZM 67.5659 29.9359L 68.9204 28.5169L 68.1973 27.8264L 66.8428 29.2455L 67.5659 29.9359ZM 70.2754 27.0978L 71.6299 25.6788L 70.9062 24.9883L 69.5518 26.4073L 70.2754 27.0978ZM 72.9844 24.2597L 74.3389 22.8407L 73.6157 22.1502L 72.2607 23.5692L 72.9844 24.2597ZM 75.6934 21.4216L 77.0479 20.0025L 76.3247 19.3121L 74.9702 20.7311L 75.6934 21.4216ZM 78.4023 18.5835L 79.7568 17.1644L 79.0337 16.4739L 77.6792 17.893L 78.4023 18.5835ZM 81.1118 15.7454L 82.4663 14.3263L 81.7427 13.6358L 80.3882 15.0549L 81.1118 15.7454ZM 83.8208 12.9072L 85.1753 11.4882L 84.4521 10.7977L 83.0972 12.2168L 83.8208 12.9072ZM 86.5298 10.0691L 87.8843 8.65007L 87.1611 7.95959L 85.8066 9.37866L 86.5298 10.0691ZM 89.2388 7.23102L 90.5933 5.81197L 89.8701 5.12149L 88.5156 6.54054L 89.2388 7.23102ZM 91.9482 4.3929L 93.3027 2.97385L 92.5791 2.28337L 91.2246 3.70242L 91.9482 4.3929ZM 3.45312 22.4836L 4.625 22.4836L 4.625 16.7961L 3.45703 16.7961L 3.45703 20.5461L 1.17188 16.7961L 0 16.7961L 0 22.4836L 1.17188 22.4836L 1.17188 18.7414L 3.45312 22.4836ZM 6.82031 20.0187L 9.07031 20.0187L 9.07031 19.1008L 6.82031 19.1008L 6.82031 17.7453L 9.45312 17.7453L 9.45312 16.7961L 5.64844 16.7961L 5.64844 22.4836L 9.46094 22.4836L 9.46094 21.5422L 6.82031 21.5422L 6.82031 20.0187ZM 13.9336 22.0343C 14.3423 21.6828 14.5688 21.201 14.6133 20.589L 13.4414 20.589C 13.4155 20.9354 13.3125 21.1919 13.1328 21.3586C 12.9556 21.5226 12.686 21.6047 12.3242 21.6047C 11.9233 21.6047 11.6289 21.4627 11.4414 21.1789C 11.2563 20.895 11.1641 20.4458 11.1641 19.8312L 11.1641 19.4015C 11.1694 18.813 11.2681 18.3794 11.4609 18.1008C 11.6562 17.8195 11.9492 17.6789 12.3398 17.6789C 12.6992 17.6789 12.9663 17.7622 13.1406 17.9289C 13.3179 18.0929 13.4204 18.3586 13.4492 18.7258L 14.6211 18.7258C 14.5586 18.0903 14.3267 17.5968 13.9258 17.2453C 13.5249 16.8937 12.9961 16.7179 12.3398 16.7179C 11.8657 16.7179 11.4492 16.8299 11.0898 17.0539C 10.7329 17.2752 10.4585 17.5942 10.2656 18.0109C 10.0728 18.4276 9.97656 18.9093 9.97656 19.4562L 9.97656 19.8039C 9.97656 20.6606 10.1851 21.3351 10.6016 21.8273C 11.021 22.3169 11.5952 22.5617 12.3242 22.5617C 12.9907 22.5617 13.5273 22.3859 13.9336 22.0343ZM 16.5547 20.0187L 18.8047 20.0187L 18.8047 19.1008L 16.5547 19.1008L 16.5547 17.7453L 19.1875 17.7453L 19.1875 16.7961L 15.3828 16.7961L 15.3828 22.4836L 19.1953 22.4836L 19.1953 21.5422L 16.5547 21.5422L 16.5547 20.0187ZM 22.5977 20.4836C 22.7539 20.6008 22.832 20.77 22.832 20.9914C 22.832 21.1945 22.7539 21.3534 22.5977 21.4679C 22.4414 21.5799 22.2241 21.6359 21.9453 21.6359C 21.1953 21.6359 20.8203 21.3221 20.8203 20.6945L 19.6445 20.6945C 19.6445 21.0617 19.7383 21.3846 19.9258 21.6633C 20.1157 21.9419 20.3906 22.162 20.75 22.3234C 21.1094 22.4823 21.5078 22.5617 21.9453 22.5617C 22.5757 22.5617 23.0767 22.4224 23.4492 22.1437C 23.8218 21.8625 24.0078 21.4758 24.0078 20.9836C 24.0078 20.5409 23.8555 20.1711 23.5508 19.8742C 23.2461 19.5773 22.7603 19.3286 22.0938 19.1281C 21.7319 19.0187 21.457 18.9015 21.2695 18.7765C 21.0845 18.6515 20.9922 18.4966 20.9922 18.3117C 20.9922 18.1138 21.0718 17.9549 21.2305 17.8351C 21.3892 17.7127 21.6118 17.6515 21.8984 17.6515C 22.1953 17.6515 22.4258 17.7245 22.5898 17.8703C 22.7539 18.0135 22.8359 18.2153 22.8359 18.4758L 24.0078 18.4758C 24.0078 18.1346 23.9194 17.8299 23.7422 17.5617C 23.5679 17.2935 23.3218 17.0864 23.0039 16.9406C 22.686 16.7922 22.3242 16.7179 21.918 16.7179C 21.5142 16.7179 21.1499 16.7856 20.8242 16.9211C 20.5015 17.0565 20.2524 17.2453 20.0781 17.4875C 19.9062 17.7271 19.8203 18.0005 19.8203 18.3078C 19.8203 18.8989 20.1431 19.369 20.7891 19.7179C 21.0259 19.8456 21.3477 19.9758 21.7539 20.1086C 22.1602 20.2388 22.4414 20.3638 22.5977 20.4836ZM 27.5195 20.4836C 27.6758 20.6008 27.7539 20.77 27.7539 20.9914C 27.7539 21.1945 27.6758 21.3534 27.5195 21.4679C 27.3633 21.5799 27.146 21.6359 26.8672 21.6359C 26.1172 21.6359 25.7422 21.3221 25.7422 20.6945L 24.5664 20.6945C 24.5664 21.0617 24.6602 21.3846 24.8477 21.6633C 25.0376 21.9419 25.3125 22.162 25.6719 22.3234C 26.0312 22.4823 26.4297 22.5617 26.8672 22.5617C 27.4976 22.5617 27.9985 22.4224 28.3711 22.1437C 28.7437 21.8625 28.9297 21.4758 28.9297 20.9836C 28.9297 20.5409 28.7773 20.1711 28.4727 19.8742C 28.168 19.5773 27.6821 19.3286 27.0156 19.1281C 26.6538 19.0187 26.3789 18.9015 26.1914 18.7765C 26.0063 18.6515 25.9141 18.4966 25.9141 18.3117C 25.9141 18.1138 25.9937 17.9549 26.1523 17.8351C 26.311 17.7127 26.5337 17.6515 26.8203 17.6515C 27.1172 17.6515 27.3477 17.7245 27.5117 17.8703C 27.6758 18.0135 27.7578 18.2153 27.7578 18.4758L 28.9297 18.4758C 28.9297 18.1346 28.8413 17.8299 28.6641 17.5617C 28.4897 17.2935 28.2437 17.0864 27.9258 16.9406C 27.6079 16.7922 27.2461 16.7179 26.8398 16.7179C 26.436 16.7179 26.0718 16.7856 25.7461 16.9211C 25.4233 17.0565 25.1743 17.2453 25 17.4875C 24.8281 17.7271 24.7422 18.0005 24.7422 18.3078C 24.7422 18.8989 25.0649 19.369 25.7109 19.7179C 25.9478 19.8456 26.2695 19.9758 26.6758 20.1086C 27.082 20.2388 27.3633 20.3638 27.5195 20.4836ZM 29.8008 22.4836L 30.9727 22.4836L 30.9727 16.7961L 29.8008 16.7961L 29.8008 22.4836ZM 32.0625 16.7961L 32.0625 22.4836L 33.8242 22.4836C 34.3218 22.481 34.7681 22.3664 35.1641 22.1398C 35.5601 21.9133 35.8657 21.5942 36.082 21.1828C 36.3008 20.7713 36.4102 20.3013 36.4102 19.7726L 36.4102 19.5109C 36.4102 18.9823 36.2993 18.5109 36.0781 18.0968C 35.8569 17.6802 35.5483 17.3599 35.1523 17.1359C 34.7593 16.9093 34.3125 16.7961 33.8125 16.7961L 32.0625 16.7961ZM 33.2344 21.5422L 33.2344 17.7453L 33.8125 17.7453C 34.2734 17.7453 34.6235 17.895 34.8633 18.1945C 35.103 18.4914 35.2227 18.9289 35.2227 19.507L 35.2227 19.8078C 35.2173 20.3651 35.0938 20.7935 34.8516 21.0929C 34.6094 21.3924 34.2593 21.5422 33.8008 21.5422L 33.2344 21.5422ZM 38.3359 21.3117L 40.3906 21.3117L 40.7852 22.4836L 42.0312 22.4836L 39.9023 16.7961L 38.8164 16.7961L 36.6992 22.4836L 37.9453 22.4836L 38.3359 21.3117ZM 40.0742 20.3625L 38.6523 20.3625L 39.3594 18.2336L 40.0742 20.3625ZM 42.5625 16.7961L 42.5625 22.4836L 44.3242 22.4836C 44.8218 22.481 45.2681 22.3664 45.6641 22.1398C 46.0601 21.9133 46.3657 21.5942 46.582 21.1828C 46.8008 20.7713 46.9102 20.3013 46.9102 19.7726L 46.9102 19.5109C 46.9102 18.9823 46.7993 18.5109 46.5781 18.0968C 46.3569 17.6802 46.0483 17.3599 45.6523 17.1359C 45.2593 16.9093 44.8125 16.7961 44.3125 16.7961L 42.5625 16.7961ZM 43.7344 21.5422L 43.7344 17.7453L 44.3125 17.7453C 44.7734 17.7453 45.1235 17.895 45.3633 18.1945C 45.603 18.4914 45.7227 18.9289 45.7227 19.507L 45.7227 19.8078C 45.7173 20.3651 45.5938 20.7935 45.3516 21.0929C 45.1094 21.3924 44.7593 21.5422 44.3008 21.5422L 43.7344 21.5422ZM 48.9375 20.0187L 51.1875 20.0187L 51.1875 19.1008L 48.9375 19.1008L 48.9375 17.7453L 51.5703 17.7453L 51.5703 16.7961L 47.7656 16.7961L 47.7656 22.4836L 51.5781 22.4836L 51.5781 21.5422L 48.9375 21.5422L 48.9375 20.0187ZM 54.9805 20.4836C 55.1367 20.6008 55.2148 20.77 55.2148 20.9914C 55.2148 21.1945 55.1367 21.3534 54.9805 21.4679C 54.8809 21.5392 54.7568 21.5877 54.6079 21.6136C 54.5229 21.6285 54.4297 21.6359 54.3281 21.6359C 53.5781 21.6359 53.2031 21.3221 53.2031 20.6945L 52.0273 20.6945C 52.0273 21.0617 52.1211 21.3846 52.3086 21.6633C 52.4985 21.9419 52.7734 22.162 53.1328 22.3234C 53.4922 22.4823 53.8906 22.5617 54.3281 22.5617C 54.9585 22.5617 55.4595 22.4224 55.832 22.1437C 56.2046 21.8625 56.3906 21.4758 56.3906 20.9836C 56.3906 20.5409 56.2383 20.1711 55.9336 19.8742C 55.6289 19.5773 55.1431 19.3286 54.4766 19.1281C 54.1147 19.0187 53.8398 18.9015 53.6523 18.7765C 53.4673 18.6515 53.375 18.4966 53.375 18.3117C 53.375 18.1138 53.4546 17.9549 53.6133 17.8351C 53.772 17.7127 53.9946 17.6515 54.2812 17.6515C 54.5781 17.6515 54.8086 17.7245 54.9727 17.8703C 55.1367 18.0135 55.2188 18.2153 55.2188 18.4758L 56.3906 18.4758C 56.3906 18.1346 56.3022 17.8299 56.125 17.5617C 55.9507 17.2935 55.7046 17.0864 55.3867 16.9406C 55.0688 16.7922 54.707 16.7179 54.3008 16.7179C 53.897 16.7179 53.5327 16.7856 53.207 16.9211C 52.8843 17.0565 52.6353 17.2453 52.4609 17.4875C 52.2891 17.7271 52.2031 18.0005 52.2031 18.3078C 52.2031 18.8989 52.5259 19.369 53.1719 19.7179C 53.4087 19.8456 53.7305 19.9758 54.1367 20.1086C 54.543 20.2388 54.8242 20.3638 54.9805 20.4836ZM 5.92188 30.1593L 8.17188 30.1593L 8.17188 29.214L 5.92188 29.214L 5.92188 27.7453L 8.45312 27.7453L 8.45312 26.7961L 4.75 26.7961L 4.75 32.4836L 5.92188 32.4836L 5.92188 30.1593ZM 9.20703 32.4836L 10.3789 32.4836L 10.3789 26.7961L 9.20703 26.7961L 9.20703 32.4836ZM 14.1836 30.4836C 14.3398 30.6008 14.418 30.77 14.418 30.9914C 14.418 31.1945 14.3398 31.3534 14.1836 31.4679C 14.0273 31.5799 13.8101 31.6359 13.5312 31.6359C 12.7812 31.6359 12.4062 31.3221 12.4062 30.6945L 11.2305 30.6945C 11.2305 31.0617 11.3242 31.3846 11.5117 31.6633C 11.7017 31.9419 11.9766 32.162 12.3359 32.3234C 12.6953 32.4823 13.0938 32.5617 13.5312 32.5617C 14.1616 32.5617 14.6626 32.4224 15.0352 32.1437C 15.4077 31.8625 15.5938 31.4758 15.5938 30.9836C 15.5938 30.5409 15.4414 30.1711 15.1367 29.8742C 14.832 29.5773 14.3462 29.3286 13.6797 29.1281C 13.3179 29.0187 13.043 28.9015 12.8555 28.7765C 12.6704 28.6515 12.5781 28.4966 12.5781 28.3117C 12.5781 28.1138 12.6577 27.9549 12.8164 27.8351C 12.9751 27.7127 13.1978 27.6515 13.4844 27.6515C 13.7812 27.6515 14.0117 27.7245 14.1758 27.8703C 14.3398 28.0135 14.4219 28.2153 14.4219 28.4758L 15.5938 28.4758C 15.5938 28.1346 15.5054 27.8299 15.3281 27.5617C 15.1538 27.2935 14.9077 27.0864 14.5898 26.9406C 14.272 26.7922 13.9102 26.7179 13.5039 26.7179C 13.1001 26.7179 12.7358 26.7856 12.4102 26.9211C 12.0874 27.0565 11.8384 27.2453 11.6641 27.4875C 11.4922 27.7271 11.4062 28.0005 11.4062 28.3078C 11.4062 28.8989 11.729 29.369 12.375 29.7179C 12.6118 29.8456 12.9336 29.9758 13.3398 30.1086C 13.6074 30.1943 13.8208 30.2778 13.98 30.359C 14.0625 30.4011 14.1304 30.4426 14.1836 30.4836ZM 16.4648 32.4836L 17.6367 32.4836L 17.6367 26.7961L 16.4648 26.7961L 16.4648 32.4836ZM 23.1016 31.2414C 23.2993 30.8195 23.3984 30.3286 23.3984 29.7687L 23.3984 29.5148C 23.3984 28.9575 23.2969 28.4666 23.0938 28.0422C 22.8931 27.6151 22.6079 27.2883 22.2383 27.0617C 21.8711 26.8325 21.4507 26.7179 20.9766 26.7179C 20.5024 26.7179 20.0806 26.8325 19.7109 27.0617C 19.3438 27.2883 19.0586 27.6151 18.8555 28.0422C 18.6548 28.4666 18.5547 28.9588 18.5547 29.5187L 18.5547 29.8C 18.5571 30.3468 18.6602 30.8312 18.8633 31.2531C 19.0664 31.6724 19.353 31.9953 19.7227 32.2218C 20.0923 32.4484 20.5132 32.5617 20.9844 32.5617C 21.4609 32.5617 21.8828 32.4471 22.25 32.2179C 22.6196 31.9888 22.9038 31.6633 23.1016 31.2414ZM 21.8906 28.1515C 22.104 28.4614 22.2109 28.9146 22.2109 29.5109L 22.2109 29.7883C 22.2085 30.3794 22.1016 30.8299 21.8906 31.1398C 21.6797 31.4471 21.3774 31.6008 20.9844 31.6008C 20.5835 31.6008 20.2759 31.4406 20.0625 31.1203C 19.8491 30.8 19.7422 30.3495 19.7422 29.7687L 19.7422 29.4914C 19.7446 28.9002 19.853 28.4523 20.0664 28.1476C 20.2798 27.8403 20.5835 27.6867 20.9766 27.6867C 21.3726 27.6867 21.6772 27.8416 21.8906 28.1515ZM 27.9102 31.5422L 25.4219 31.5422L 25.4219 26.7961L 24.25 26.7961L 24.25 32.4836L 27.9102 32.4836L 27.9102 31.5422ZM 32.7109 31.2414C 32.9087 30.8195 33.0078 30.3286 33.0078 29.7687L 33.0078 29.5148C 33.0078 28.9575 32.9062 28.4666 32.7031 28.0422C 32.5024 27.6151 32.2173 27.2883 31.8477 27.0617C 31.4805 26.8325 31.0601 26.7179 30.5859 26.7179C 30.1118 26.7179 29.6899 26.8325 29.3203 27.0617C 28.9531 27.2883 28.668 27.6151 28.4648 28.0422C 28.2642 28.4666 28.1641 28.9588 28.1641 29.5187L 28.1641 29.8C 28.1665 30.3468 28.2695 30.8312 28.4727 31.2531C 28.6758 31.6724 28.9624 31.9953 29.332 32.2218C 29.7017 32.4484 30.1226 32.5617 30.5938 32.5617C 31.0703 32.5617 31.4922 32.4471 31.8594 32.2179C 32.229 31.9888 32.5132 31.6633 32.7109 31.2414ZM 31.5 28.1515C 31.7134 28.4614 31.8203 28.9146 31.8203 29.5109L 31.8203 29.7883C 31.8179 30.3794 31.7109 30.8299 31.5 31.1398C 31.2891 31.4471 30.9868 31.6008 30.5938 31.6008C 30.1929 31.6008 29.8853 31.4406 29.6719 31.1203C 29.4585 30.8 29.3516 30.3495 29.3516 29.7687L 29.3516 29.4914C 29.354 28.9002 29.4624 28.4523 29.6758 28.1476C 29.8892 27.8403 30.1929 27.6867 30.5859 27.6867C 30.9819 27.6867 31.2866 27.8416 31.5 28.1515ZM 32.043 25.2726L 30.8125 25.2726L 30.043 26.4836L 30.9609 26.4836L 32.043 25.2726ZM 37.4648 32.3547C 37.8501 32.214 38.1484 32.0174 38.3594 31.7648L 38.3594 29.4953L 36.1211 29.4953L 36.1211 30.3586L 37.1875 30.3586L 37.1875 31.339C 37 31.5265 36.686 31.6203 36.2461 31.6203C 35.8086 31.6203 35.4766 31.4679 35.25 31.1633C 35.0234 30.8586 34.9102 30.4081 34.9102 29.8117L 34.9102 29.4484C 34.9126 28.8573 35.0181 28.412 35.2266 28.1125C 35.4351 27.813 35.7383 27.6633 36.1367 27.6633C 36.4492 27.6633 36.6938 27.7388 36.8711 27.8898C 37.0508 28.0409 37.1665 28.2791 37.2188 28.6047L 38.3594 28.6047C 38.2891 27.9901 38.064 27.5226 37.6836 27.2023C 37.3032 26.8794 36.7759 26.7179 36.1016 26.7179C 35.6172 26.7179 35.1938 26.8286 34.832 27.05C 34.4727 27.2687 34.1968 27.5864 34.0039 28.0031C 33.814 28.4172 33.7188 28.9081 33.7188 29.4758L 33.7188 29.8625C 33.7241 30.4146 33.8267 30.895 34.0273 31.3039C 34.2305 31.7127 34.5171 32.0252 34.8867 32.2414C 35.2593 32.4549 35.6914 32.5617 36.1836 32.5617C 36.6523 32.5617 37.0796 32.4927 37.4648 32.3547ZM 39.3867 32.4836L 40.5586 32.4836L 40.5586 26.7961L 39.3867 26.7961L 39.3867 32.4836ZM 45.4336 32.0343C 45.8423 31.6828 46.0688 31.201 46.1133 30.589L 44.9414 30.589C 44.9155 30.9354 44.8125 31.1919 44.6328 31.3586C 44.4556 31.5226 44.186 31.6047 43.8242 31.6047C 43.4233 31.6047 43.1289 31.4627 42.9414 31.1789C 42.7563 30.895 42.6641 30.4458 42.6641 29.8312L 42.6641 29.4015C 42.6694 28.813 42.7681 28.3794 42.9609 28.1008C 43.1562 27.8195 43.4492 27.6789 43.8398 27.6789C 44.1992 27.6789 44.4663 27.7622 44.6406 27.9289C 44.8179 28.0929 44.9204 28.3586 44.9492 28.7258L 46.1211 28.7258C 46.0586 28.0903 45.8267 27.5968 45.4258 27.2453C 45.0249 26.8937 44.4961 26.7179 43.8398 26.7179C 43.3657 26.7179 42.9492 26.8299 42.5898 27.0539C 42.2329 27.2752 41.9585 27.5942 41.7656 28.0109C 41.5728 28.4276 41.4766 28.9093 41.4766 29.4562L 41.4766 29.8039C 41.4766 30.6606 41.6851 31.3351 42.1016 31.8273C 42.521 32.3169 43.0952 32.5617 43.8242 32.5617C 44.4907 32.5617 45.0273 32.3859 45.4336 32.0343ZM 48.0391 31.3117L 50.0938 31.3117L 50.4883 32.4836L 51.7344 32.4836L 49.6055 26.7961L 48.5195 26.7961L 46.4023 32.4836L 47.6484 32.4836L 48.0391 31.3117ZM 49.7773 30.3625L 48.3555 30.3625L 49.0625 28.2336L 49.7773 30.3625ZM 54.9805 30.4836C 55.1367 30.6008 55.2148 30.77 55.2148 30.9914C 55.2148 31.1945 55.1367 31.3534 54.9805 31.4679C 54.8242 31.5799 54.6069 31.6359 54.3281 31.6359C 53.5781 31.6359 53.2031 31.3221 53.2031 30.6945L 52.0273 30.6945C 52.0273 31.0617 52.1211 31.3846 52.3086 31.6633C 52.4985 31.9419 52.7734 32.162 53.1328 32.3234C 53.4922 32.4823 53.8906 32.5617 54.3281 32.5617C 54.9585 32.5617 55.4595 32.4224 55.832 32.1437C 56.2046 31.8625 56.3906 31.4758 56.3906 30.9836C 56.3906 30.5409 56.2383 30.1711 55.9336 29.8742C 55.6289 29.5773 55.1431 29.3286 54.4766 29.1281C 54.1147 29.0187 53.8398 28.9015 53.6523 28.7765C 53.4673 28.6515 53.375 28.4966 53.375 28.3117C 53.375 28.1138 53.4546 27.9549 53.6133 27.8351C 53.772 27.7127 53.9946 27.6515 54.2812 27.6515C 54.5781 27.6515 54.8086 27.7245 54.9727 27.8703C 55.1367 28.0135 55.2188 28.2153 55.2188 28.4758L 56.3906 28.4758C 56.3906 28.1346 56.3022 27.8299 56.125 27.5617C 55.9507 27.2935 55.7046 27.0864 55.3867 26.9406C 55.0688 26.7922 54.707 26.7179 54.3008 26.7179C 53.897 26.7179 53.5327 26.7856 53.207 26.9211C 52.8843 27.0565 52.6353 27.2453 52.4609 27.4875C 52.2891 27.7271 52.2031 28.0005 52.2031 28.3078C 52.2031 28.8989 52.5259 29.369 53.1719 29.7179C 53.3047 29.7894 53.4639 29.8618 53.6499 29.9349C 53.7959 29.9923 53.958 30.0502 54.1367 30.1086C 54.543 30.2388 54.8242 30.3638 54.9805 30.4836Z"/>
</defs>
</svg>
