<svg width="113" height="60" viewBox="0 0 113 60" version="1.1" xmlns="http://www.w3.org/2000/svg" xmlns:xlink="http://www.w3.org/1999/xlink">
<title>Union</title>
<desc>Created using Figma</desc>
<g id="Canvas" transform="translate(-5076 389)">
<g id="Union">
<use xlink:href="#path0_fill" transform="translate(5076.08 -389)" fill="#FFFFFF"/>
</g>
</g>
<defs>
<path id="path0_fill" fill-rule="evenodd" d="M 111.385 59L 112.308 60L 110.947 60L 1.37842 60L 0 60L 0.94873 59L 56.2329 0.727051L 56.9229 0L 57.6025 0.73642L 111.385 59ZM 56.9131 1.46347L 110.023 59L 2.32715 59L 56.9131 1.46347ZM 26.751 40.8281L 28.8057 40.8281L 29.2002 42L 30.4463 42L 28.3174 36.3125L 27.2314 36.3125L 25.1143 42L 26.3604 42L 26.751 40.8281ZM 28.4893 39.8789L 27.0674 39.8789L 27.7744 37.75L 28.4893 39.8789ZM 35.2119 40.0586L 35.2119 36.3125L 34.0361 36.3125L 34.0361 40.0977C 34.0259 40.7904 33.6909 41.1367 33.0322 41.1367C 32.7173 41.1367 32.4697 41.0521 32.29 40.8828C 32.1128 40.7109 32.0244 40.4388 32.0244 40.0664L 32.0244 36.3125L 30.8525 36.3125L 30.8525 40.1016C 30.8604 40.7162 31.0596 41.1992 31.4502 41.5508C 31.8408 41.9023 32.3682 42.0781 33.0322 42.0781C 33.7065 42.0781 34.2378 41.8971 34.626 41.5352C 35.0166 41.1732 35.2119 40.681 35.2119 40.0586ZM 38.7119 37.2617L 40.4541 37.2617L 40.4541 36.3125L 35.8213 36.3125L 35.8213 37.2617L 37.54 37.2617L 37.54 42L 38.7119 42L 38.7119 37.2617ZM 45.3916 40.7578C 45.5894 40.3359 45.6885 39.8451 45.6885 39.2852L 45.6885 39.0312C 45.6885 38.474 45.5869 37.9831 45.3838 37.5586C 45.1831 37.1315 44.8979 36.8047 44.5283 36.5781C 44.1611 36.349 43.7407 36.2344 43.2666 36.2344C 42.7925 36.2344 42.3706 36.349 42.001 36.5781C 41.6338 36.8047 41.3486 37.1315 41.1455 37.5586C 40.9448 37.9831 40.8447 38.4753 40.8447 39.0352L 40.8447 39.3164C 40.8472 39.8633 40.9502 40.3477 41.1533 40.7695C 41.3564 41.1888 41.6431 41.5117 42.0127 41.7383C 42.3823 41.9648 42.8032 42.0781 43.2744 42.0781C 43.751 42.0781 44.1729 41.9635 44.54 41.7344C 44.9097 41.5052 45.1938 41.1797 45.3916 40.7578ZM 44.1807 37.668C 44.394 37.9779 44.501 38.431 44.501 39.0273L 44.501 39.3047C 44.4985 39.8958 44.3916 40.3463 44.1807 40.6562C 43.9697 40.9635 43.6675 41.1172 43.2744 41.1172C 42.8735 41.1172 42.5659 40.957 42.3525 40.6367C 42.1392 40.3164 42.0322 39.8659 42.0322 39.2852L 42.0322 39.0078C 42.0347 38.4167 42.1431 37.9688 42.3564 37.6641C 42.5698 37.3568 42.8735 37.2031 43.2666 37.2031C 43.6626 37.2031 43.9673 37.3581 44.1807 37.668ZM 46.4619 40.0195L 48.6611 40.0195L 48.6611 39.1094L 46.4619 39.1094L 46.4619 40.0195ZM 49.7158 42L 50.8877 42L 50.8877 36.3125L 49.7158 36.3125L 49.7158 42ZM 54.9697 40.4375L 53.5088 36.3125L 51.9775 36.3125L 51.9775 42L 53.1494 42L 53.1494 40.4453L 53.0322 37.7656L 54.5635 42L 55.3682 42L 56.9033 37.7617L 56.7861 40.4453L 56.7861 42L 57.9619 42L 57.9619 36.3125L 56.4229 36.3125L 54.9697 40.4375ZM 60.2119 40.8281L 62.2666 40.8281L 62.6611 42L 63.9072 42L 61.7783 36.3125L 60.6924 36.3125L 58.5752 42L 59.8213 42L 60.2119 40.8281ZM 61.9502 39.8789L 60.5283 39.8789L 61.2354 37.75L 61.9502 39.8789ZM 67.958 41.8711C 68.3433 41.7305 68.6416 41.5338 68.8525 41.2812L 68.8525 39.0117L 66.6143 39.0117L 66.6143 39.875L 67.6807 39.875L 67.6807 40.8555C 67.4932 41.043 67.1792 41.1367 66.7393 41.1367C 66.3018 41.1367 65.9697 40.9844 65.7432 40.6797C 65.5166 40.375 65.4033 39.9245 65.4033 39.3281L 65.4033 38.9648C 65.4058 38.3737 65.5112 37.9284 65.7197 37.6289C 65.9282 37.3294 66.2314 37.1797 66.6299 37.1797C 66.9424 37.1797 67.187 37.2552 67.3643 37.4062C 67.5439 37.5573 67.6597 37.7956 67.7119 38.1211L 68.8525 38.1211C 68.7822 37.5065 68.5571 37.0391 68.1768 36.7188C 67.7964 36.3958 67.269 36.2344 66.5947 36.2344C 66.1104 36.2344 65.687 36.3451 65.3252 36.5664C 64.9658 36.7852 64.6899 37.1029 64.4971 37.5195C 64.3071 37.9336 64.2119 38.4245 64.2119 38.9922L 64.2119 39.3789C 64.2173 39.931 64.3198 40.4115 64.5205 40.8203C 64.7236 41.2292 65.0103 41.5417 65.3799 41.7578C 65.7524 41.9713 66.1846 42.0781 66.6768 42.0781C 67.1455 42.0781 67.5728 42.0091 67.958 41.8711ZM 70.9775 39.5352L 73.2275 39.5352L 73.2275 38.6172L 70.9775 38.6172L 70.9775 37.2617L 73.6104 37.2617L 73.6104 36.3125L 69.8057 36.3125L 69.8057 42L 73.6182 42L 73.6182 41.0586L 70.9775 41.0586L 70.9775 39.5352ZM 77.2979 40.4375L 75.8369 36.3125L 74.3057 36.3125L 74.3057 42L 75.4775 42L 75.4775 40.4453L 75.3604 37.7656L 76.8916 42L 77.6963 42L 79.2314 37.7617L 79.1143 40.4453L 79.1143 42L 80.29 42L 80.29 36.3125L 78.751 36.3125L 77.2979 40.4375ZM 80.9424 43.1172L 81.5322 43.4258C 81.7563 43.2331 81.9399 42.9896 82.083 42.6953C 82.2261 42.401 82.2993 42.1094 82.3018 41.8203L 82.3057 41.0391L 81.3525 41.0391L 81.3525 41.9141C 81.3472 42.2292 81.2573 42.5456 81.083 42.8633L 80.9424 43.1172ZM 23.2744 52L 23.2744 49.9961L 24.3018 49.9961C 24.9761 49.9961 25.5034 49.8359 25.8838 49.5156C 26.2666 49.1927 26.458 48.7526 26.458 48.1953C 26.458 47.8281 26.3706 47.5013 26.1963 47.2148C 26.022 46.9258 25.772 46.7031 25.4463 46.5469C 25.1235 46.3906 24.7485 46.3125 24.3213 46.3125L 22.1025 46.3125L 22.1025 52L 23.2744 52ZM 24.3213 49.0469L 23.2744 49.0469L 23.2744 47.2617L 24.3486 47.2617C 24.6377 47.2669 24.8643 47.3555 25.0283 47.5273C 25.1924 47.6992 25.2744 47.9245 25.2744 48.2031C 25.2744 48.474 25.1924 48.6823 25.0283 48.8281C 24.8667 48.974 24.6313 49.0469 24.3213 49.0469ZM 28.4385 49.5352L 30.6885 49.5352L 30.6885 48.6172L 28.4385 48.6172L 28.4385 47.2617L 31.0713 47.2617L 31.0713 46.3125L 27.2666 46.3125L 27.2666 52L 31.0791 52L 31.0791 51.0586L 28.4385 51.0586L 28.4385 49.5352ZM 32.9385 49.918L 33.8721 49.918L 34.9385 52L 36.1963 52L 36.1963 51.9453L 34.9658 49.6211C 35.3071 49.4674 35.561 49.2617 35.7275 49.0039C 35.897 48.7435 35.9814 48.4193 35.9814 48.0312C 35.9814 47.4844 35.7993 47.0612 35.4346 46.7617C 35.0698 46.4622 34.5518 46.3125 33.8799 46.3125L 31.7666 46.3125L 31.7666 52L 32.9385 52L 32.9385 49.918ZM 33.8838 48.9688L 32.9385 48.9688L 32.9385 47.2617L 33.8799 47.2617C 34.1948 47.2617 34.4282 47.3385 34.5791 47.4922C 34.7329 47.6458 34.8096 47.8568 34.8096 48.125C 34.8096 48.2801 34.7817 48.4156 34.7256 48.5318C 34.6865 48.6126 34.6338 48.6841 34.5674 48.7461C 34.4058 48.8945 34.1782 48.9688 33.8838 48.9688ZM 39.2197 47.2617L 40.9619 47.2617L 40.9619 46.3125L 36.3291 46.3125L 36.3291 47.2617L 38.0479 47.2617L 38.0479 52L 39.2197 52L 39.2197 47.2617ZM 42.8057 49.5352L 45.0557 49.5352L 45.0557 48.6172L 42.8057 48.6172L 42.8057 47.2617L 45.4385 47.2617L 45.4385 46.3125L 41.6338 46.3125L 41.6338 52L 45.4463 52L 45.4463 51.0586L 42.8057 51.0586L 42.8057 49.5352ZM 49.5869 52L 50.7588 52L 50.7588 46.3125L 49.5908 46.3125L 49.5908 50.0625L 47.3057 46.3125L 46.1338 46.3125L 46.1338 52L 47.3057 52L 47.3057 48.2578L 49.5869 52ZM 55.5674 51.5508C 55.9761 51.1992 56.2026 50.7174 56.2471 50.1055L 55.0752 50.1055C 55.0493 50.4518 54.9463 50.7083 54.7666 50.875C 54.5894 51.0391 54.3198 51.1211 53.958 51.1211C 53.5571 51.1211 53.2627 50.9792 53.0752 50.6953C 52.8901 50.4115 52.7979 49.9622 52.7979 49.3477L 52.7979 48.918C 52.8032 48.3294 52.9019 47.8958 53.0947 47.6172C 53.29 47.3359 53.583 47.1953 53.9736 47.1953C 54.333 47.1953 54.6001 47.2787 54.7744 47.4453C 54.9517 47.6094 55.0542 47.875 55.083 48.2422L 56.2549 48.2422C 56.1924 47.6068 55.9604 47.1133 55.5596 46.7617C 55.1587 46.4102 54.6299 46.2344 53.9736 46.2344C 53.4995 46.2344 53.083 46.3463 52.7236 46.5703C 52.3667 46.7917 52.0923 47.1107 51.8994 47.5273C 51.7065 47.944 51.6104 48.4258 51.6104 48.9727L 51.6104 49.3203C 51.6104 50.1771 51.8188 50.8516 52.2354 51.3438C 52.6548 51.8333 53.229 52.0781 53.958 52.0781C 54.6245 52.0781 55.1611 51.9023 55.5674 51.5508ZM 57.0908 52L 58.2627 52L 58.2627 46.3125L 57.0908 46.3125L 57.0908 52ZM 62.3447 50.4375L 60.8838 46.3125L 59.3525 46.3125L 59.3525 52L 60.5244 52L 60.5244 50.4453L 60.4072 47.7656L 61.9385 52L 62.7432 52L 64.2783 47.7617L 64.1611 50.4453L 64.1611 52L 65.3369 52L 65.3369 46.3125L 63.7979 46.3125L 62.3447 50.4375ZM 67.5322 49.5352L 69.7822 49.5352L 69.7822 48.6172L 67.5322 48.6172L 67.5322 47.2617L 70.165 47.2617L 70.165 46.3125L 66.3604 46.3125L 66.3604 52L 70.1729 52L 70.1729 51.0586L 67.5322 51.0586L 67.5322 49.5352ZM 74.3135 52L 75.4854 52L 75.4854 46.3125L 74.3174 46.3125L 74.3174 50.0625L 72.0322 46.3125L 70.8604 46.3125L 70.8604 52L 72.0322 52L 72.0322 48.2578L 74.3135 52ZM 78.9307 47.2617L 80.6729 47.2617L 80.6729 46.3125L 76.04 46.3125L 76.04 47.2617L 77.7588 47.2617L 77.7588 52L 78.9307 52L 78.9307 47.2617ZM 85.6104 50.7578C 85.8081 50.3359 85.9072 49.8451 85.9072 49.2852L 85.9072 49.0312C 85.9072 48.474 85.8057 47.9831 85.6025 47.5586C 85.4019 47.1315 85.1167 46.8047 84.7471 46.5781C 84.3799 46.349 83.9595 46.2344 83.4854 46.2344C 83.0112 46.2344 82.5894 46.349 82.2197 46.5781C 81.8525 46.8047 81.5674 47.1315 81.3643 47.5586C 81.1636 47.9831 81.0635 48.4753 81.0635 49.0352L 81.0635 49.3164C 81.0659 49.8633 81.1689 50.3477 81.3721 50.7695C 81.5752 51.1888 81.8618 51.5117 82.2314 51.7383C 82.6011 51.9648 83.022 52.0781 83.4932 52.0781C 83.9697 52.0781 84.3916 51.9635 84.7588 51.7344C 85.1284 51.5052 85.4126 51.1797 85.6104 50.7578ZM 84.3994 47.668C 84.6128 47.9779 84.7197 48.431 84.7197 49.0273L 84.7197 49.3047C 84.7173 49.8958 84.6104 50.3463 84.3994 50.6562C 84.1885 50.9635 83.8862 51.1172 83.4932 51.1172C 83.0923 51.1172 82.7847 50.957 82.5713 50.6367C 82.3579 50.3164 82.251 49.8659 82.251 49.2852L 82.251 49.0078C 82.2534 48.4167 82.3618 47.9688 82.5752 47.6641C 82.7886 47.3568 83.0923 47.2031 83.4854 47.2031C 83.8813 47.2031 84.186 47.3581 84.3994 47.668Z"/>
</defs>
</svg>
