<svg width="278" height="44" viewBox="0 0 278 44" version="1.1" xmlns="http://www.w3.org/2000/svg" xmlns:xlink="http://www.w3.org/1999/xlink">
<title>Subtract</title>
<desc>Created using Figma</desc>
<g id="Canvas" transform="translate(-4538 279)">
<g id="Subtract">
<use xlink:href="#path0_fill" transform="translate(4538.59 -279)" fill="#FFFFFF"/>
</g>
</g>
<defs>
<path id="path0_fill" fill-rule="evenodd" d="M 0 44L 277.025 44L 236.41 0L 41.7437 0L 0 44ZM 96.6836 21.3975L 97.8506 21.3975L 99.1836 24L 100.756 24L 100.756 23.9316L 99.2178 21.0264C 99.644 20.8343 99.9614 20.5771 100.17 20.2549C 100.381 19.9294 100.487 19.5241 100.487 19.0391C 100.487 18.3555 100.259 17.8265 99.8037 17.4521C 99.3481 17.0778 98.7002 16.8906 97.8604 16.8906L 95.2188 16.8906L 95.2188 24L 96.6836 24L 96.6836 21.3975ZM 97.8652 20.2109L 96.6836 20.2109L 96.6836 18.0771L 97.8604 18.0771C 98.2544 18.0771 98.5454 18.1732 98.7344 18.3652C 98.9263 18.5573 99.0225 18.821 99.0225 19.1562C 99.0225 19.485 98.9214 19.7438 98.7197 19.9326C 98.5181 20.1182 98.2329 20.2109 97.8652 20.2109ZM 103.07 20.9189L 105.883 20.9189L 105.883 19.7715L 103.07 19.7715L 103.07 18.0771L 106.361 18.0771L 106.361 16.8906L 101.605 16.8906L 101.605 24L 106.371 24L 106.371 22.8232L 103.07 22.8232L 103.07 20.9189ZM 111.806 22.8232L 108.695 22.8232L 108.695 16.8906L 107.23 16.8906L 107.23 24L 111.806 24L 111.806 22.8232ZM 114.193 22.5352L 116.762 22.5352L 117.255 24L 118.812 24L 116.151 16.8906L 114.794 16.8906L 112.147 24L 113.705 24L 114.193 22.5352ZM 116.366 21.3486L 114.589 21.3486L 115.473 18.6875L 116.366 21.3486ZM 124.101 23.4385C 124.612 22.999 124.895 22.3968 124.95 21.6318L 123.485 21.6318C 123.453 22.0648 123.324 22.3854 123.1 22.5938C 122.878 22.7988 122.542 22.9014 122.089 22.9014C 121.587 22.9014 121.22 22.724 120.985 22.3691C 120.754 22.0143 120.639 21.4528 120.639 20.6846L 120.639 20.1475C 120.645 19.4118 120.769 18.8698 121.01 18.5215C 121.254 18.1699 121.62 17.9941 122.108 17.9941C 122.558 17.9941 122.891 18.0983 123.109 18.3066C 123.331 18.5117 123.459 18.8438 123.495 19.3027L 124.96 19.3027C 124.882 18.5085 124.592 17.8916 124.091 17.4521C 123.589 17.0127 122.929 16.793 122.108 16.793C 121.516 16.793 120.995 16.9329 120.546 17.2129C 120.1 17.4896 119.756 17.8883 119.516 18.4092C 119.275 18.93 119.154 19.5322 119.154 20.2158L 119.154 20.6504C 119.154 21.7214 119.415 22.5645 119.936 23.1797C 120.459 23.7917 121.177 24.0977 122.089 24.0977C 122.922 24.0977 123.593 23.8779 124.101 23.4385ZM 126.005 24L 127.47 24L 127.47 16.8906L 126.005 16.8906L 126.005 24ZM 134.301 22.4473C 134.548 21.9199 134.672 21.3063 134.672 20.6064L 134.672 20.2891C 134.672 19.5924 134.545 18.9788 134.291 18.4482C 134.041 17.9144 133.684 17.5059 133.222 17.2227C 132.763 16.9362 132.237 16.793 131.645 16.793C 131.052 16.793 130.525 16.9362 130.062 17.2227C 129.604 17.5059 129.247 17.9144 128.993 18.4482C 128.743 18.9788 128.617 19.5941 128.617 20.2939L 128.617 20.6455C 128.621 21.3291 128.749 21.9346 129.003 22.4619C 129.257 22.986 129.615 23.3896 130.077 23.6729C 130.54 23.9561 131.065 24.0977 131.654 24.0977C 132.25 24.0977 132.777 23.9544 133.236 23.668C 133.699 23.3815 134.053 22.9746 134.301 22.4473ZM 132.787 18.585C 133.054 18.9723 133.188 19.5387 133.188 20.2842L 133.188 20.6309C 133.184 21.3698 133.051 21.9329 132.787 22.3203C 132.523 22.7044 132.146 22.8965 131.654 22.8965C 131.153 22.8965 130.769 22.6963 130.502 22.2959C 130.235 21.8955 130.102 21.3324 130.102 20.6064L 130.102 20.2598C 130.105 19.5208 130.24 18.9609 130.507 18.5801C 130.774 18.196 131.153 18.0039 131.645 18.0039C 132.139 18.0039 132.52 18.1976 132.787 18.585ZM 140.053 24L 141.518 24L 141.518 16.8906L 140.058 16.8906L 140.058 21.5781L 137.201 16.8906L 135.736 16.8906L 135.736 24L 137.201 24L 137.201 19.3223L 140.053 24ZM 144.33 22.5352L 146.898 22.5352L 147.392 24L 148.949 24L 146.288 16.8906L 144.931 16.8906L 142.284 24L 143.842 24L 144.33 22.5352ZM 146.503 21.3486L 144.726 21.3486L 145.609 18.6875L 146.503 21.3486ZM 153.354 22.0469L 151.527 16.8906L 149.613 16.8906L 149.613 24L 151.078 24L 151.078 22.0566L 150.932 18.707L 152.846 24L 153.852 24L 155.771 18.7021L 155.624 22.0566L 155.624 24L 157.094 24L 157.094 16.8906L 155.17 16.8906L 153.354 22.0469ZM 159.838 20.9189L 162.65 20.9189L 162.65 19.7715L 159.838 19.7715L 159.838 18.0771L 163.129 18.0771L 163.129 16.8906L 158.373 16.8906L 158.373 24L 163.139 24L 163.139 22.8232L 159.838 22.8232L 159.838 20.9189ZM 168.314 24L 169.779 24L 169.779 16.8906L 168.319 16.8906L 168.319 21.5781L 165.463 16.8906L 163.998 16.8906L 163.998 24L 165.463 24L 165.463 19.3223L 168.314 24ZM 174.086 18.0771L 176.264 18.0771L 176.264 16.8906L 170.473 16.8906L 170.473 18.0771L 172.621 18.0771L 172.621 24L 174.086 24L 174.086 18.0771ZM 182.436 22.4473C 182.683 21.9199 182.807 21.3063 182.807 20.6064L 182.807 20.2891C 182.807 19.5924 182.68 18.9788 182.426 18.4482C 182.175 17.9144 181.819 17.5059 181.356 17.2227C 180.897 16.9362 180.372 16.793 179.779 16.793C 179.187 16.793 178.66 16.9362 178.197 17.2227C 177.738 17.5059 177.382 17.9144 177.128 18.4482C 176.877 18.9788 176.752 19.5941 176.752 20.2939L 176.752 20.6455C 176.755 21.3291 176.884 21.9346 177.138 22.4619C 177.392 22.986 177.75 23.3896 178.212 23.6729C 178.674 23.9561 179.2 24.0977 179.789 24.0977C 180.385 24.0977 180.912 23.9544 181.371 23.668C 181.833 23.3815 182.188 22.9746 182.436 22.4473ZM 180.922 18.585C 181.189 18.9723 181.322 19.5387 181.322 20.2842L 181.322 20.6309C 181.319 21.3698 181.186 21.9329 180.922 22.3203C 180.658 22.7044 180.281 22.8965 179.789 22.8965C 179.288 22.8965 178.904 22.6963 178.637 22.2959C 178.37 21.8955 178.236 21.3324 178.236 20.6064L 178.236 20.2598C 178.24 19.5208 178.375 18.9609 178.642 18.5801C 178.909 18.196 179.288 18.0039 179.779 18.0039C 180.274 18.0039 180.655 18.1976 180.922 18.585Z"/>
</defs>
</svg>
