<svg width="98" height="66" viewBox="0 0 98 66" version="1.1" xmlns="http://www.w3.org/2000/svg" xmlns:xlink="http://www.w3.org/1999/xlink">
<title>Union</title>
<desc>Created using Figma</desc>
<g id="Canvas" transform="translate(-4498 315)">
<g id="Union">
<use xlink:href="#path0_fill" transform="translate(4498.32 -314.478)" fill="#FFFFFF"/>
</g>
</g>
<defs>
<path id="path0_fill" fill-rule="evenodd" d="M 36.1577 64.7867C 36.1665 65.0627 36.397 65.2793 36.6733 65.2706L 41.1709 65.1278C 41.4468 65.119 41.6636 64.8882 41.6548 64.6122C 41.646 64.3362 41.415 64.1195 41.1392 64.1283L 37.5576 64.242L 37.1279 63.839L 37.0142 60.2572C 37.0054 59.9812 36.7744 59.7646 36.4985 59.7733C 36.2227 59.7821 36.0059 60.013 36.0146 60.289L 36.1577 64.7867ZM 96.957 0.000274658L 92.4595 0.143066C 92.1831 0.151825 91.9668 0.38266 91.9756 0.658661C 91.9844 0.934662 92.2148 1.15131 92.4912 1.14255L 96.0728 1.02884L 96.5024 1.43192L 96.6162 5.01361C 96.6245 5.28961 96.8555 5.50626 97.1313 5.4975C 97.4077 5.48874 97.624 5.2579 97.6152 4.9819L 97.4727 0.484161C 97.4639 0.20816 97.2329 -0.00848389 96.957 0.000274658ZM 39.0781 62.9219L 40.4487 61.4612L 39.7197 60.7769L 38.3486 62.2376L 39.0781 62.9219ZM 41.8198 60.0005L 43.1904 58.5398L 42.4614 57.8555L 41.0903 59.3162L 41.8198 60.0005ZM 44.5615 57.0791L 45.9321 55.6184L 45.2031 54.9341L 43.832 56.3948L 44.5615 57.0791ZM 47.3027 54.1577L 48.6738 52.6971L 47.9443 52.0127L 46.5737 53.4734L 47.3027 54.1577ZM 50.0444 51.2363L 51.4155 49.7756L 50.686 49.0913L 49.3154 50.552L 50.0444 51.2363ZM 52.7861 48.3149L 54.1567 46.8542L 53.4277 46.1699L 52.0571 47.6306L 52.7861 48.3149ZM 55.5278 45.3935L 56.8984 43.9328L 56.1694 43.2485L 54.7988 44.7092L 55.5278 45.3935ZM 58.2695 42.4721L 59.6401 41.0114L 58.9111 40.3271L 57.54 41.7878L 58.2695 42.4721ZM 61.0112 39.5508L 62.3818 38.09L 61.6528 37.4057L 60.2817 38.8664L 61.0112 39.5508ZM 63.7524 36.6293L 65.1235 35.1686L 64.394 34.4843L 63.0234 35.945L 63.7524 36.6293ZM 66.4941 33.7079L 67.8652 32.2473L 67.1357 31.5629L 65.7651 33.0236L 66.4941 33.7079ZM 69.2358 30.7865L 70.6069 29.3258L 69.8774 28.6415L 68.5068 30.1022L 69.2358 30.7865ZM 71.9775 27.8651L 73.3481 26.4044L 72.6191 25.7201L 71.2485 27.1808L 71.9775 27.8651ZM 74.7192 24.9437L 76.0898 23.483L 75.3608 22.7987L 73.9897 24.2594L 74.7192 24.9437ZM 77.4609 22.0223L 78.8315 20.5616L 78.1025 19.8773L 76.7314 21.338L 77.4609 22.0223ZM 80.2021 19.1009L 81.5732 17.6402L 80.8442 16.9559L 79.4731 18.4166L 80.2021 19.1009ZM 82.9438 16.1795L 84.3149 14.7188L 83.5854 14.0345L 82.2148 15.4952L 82.9438 16.1795ZM 85.6855 13.2581L 87.0566 11.7974L 86.3271 11.1131L 84.9565 12.5738L 85.6855 13.2581ZM 88.4272 10.3367L 89.7979 8.87604L 89.0688 8.19171L 87.6982 9.6524L 88.4272 10.3367ZM 91.1689 7.41534L 92.5396 5.95462L 91.8105 5.27032L 90.4395 6.73102L 91.1689 7.41534ZM 93.9106 4.49393L 95.2812 3.03323L 94.5522 2.34891L 93.1812 3.80963L 93.9106 4.49393ZM 3.45312 25.4776L 4.625 25.4776L 4.625 19.7901L 3.45703 19.7901L 3.45703 23.5401L 1.17188 19.7901L 0 19.7901L 0 25.4776L 1.17188 25.4776L 1.17188 21.7354L 3.45312 25.4776ZM 6.82031 23.0127L 9.07031 23.0127L 9.07031 22.0948L 6.82031 22.0948L 6.82031 20.7393L 9.45312 20.7393L 9.45312 19.7901L 5.64844 19.7901L 5.64844 25.4776L 9.46094 25.4776L 9.46094 24.5362L 6.82031 24.5362L 6.82031 23.0127ZM 13.9336 25.0284C 14.3423 24.6768 14.5688 24.195 14.6133 23.583L 13.4414 23.583C 13.4155 23.9294 13.3125 24.1859 13.1328 24.3526C 12.9556 24.5166 12.686 24.5987 12.3242 24.5987C 11.9233 24.5987 11.6289 24.4567 11.4414 24.1729C 11.2563 23.889 11.1641 23.4398 11.1641 22.8252L 11.1641 22.3955C 11.1694 21.807 11.2681 21.3734 11.4609 21.0948C 11.6562 20.8135 11.9492 20.6729 12.3398 20.6729C 12.6992 20.6729 12.9663 20.7562 13.1406 20.9229C 13.3179 21.0869 13.4204 21.3526 13.4492 21.7198L 14.6211 21.7198C 14.5586 21.0844 14.3267 20.5909 13.9258 20.2393C 13.5249 19.8877 12.9961 19.7119 12.3398 19.7119C 11.8657 19.7119 11.4492 19.8239 11.0898 20.0479C 10.7329 20.2692 10.4585 20.5883 10.2656 21.0049C 10.0728 21.4216 9.97656 21.9034 9.97656 22.4502L 9.97656 22.7979C 9.97656 23.6547 10.1851 24.3291 10.6016 24.8213C 11.021 25.3109 11.5952 25.5557 12.3242 25.5557C 12.9907 25.5557 13.5273 25.3799 13.9336 25.0284ZM 16.5547 23.0127L 18.8047 23.0127L 18.8047 22.0948L 16.5547 22.0948L 16.5547 20.7393L 19.1875 20.7393L 19.1875 19.7901L 15.3828 19.7901L 15.3828 25.4776L 19.1953 25.4776L 19.1953 24.5362L 16.5547 24.5362L 16.5547 23.0127ZM 22.5977 23.4776C 22.7539 23.5948 22.832 23.764 22.832 23.9854C 22.832 24.1885 22.7539 24.3474 22.5977 24.4619C 22.4414 24.5739 22.2241 24.6299 21.9453 24.6299C 21.1953 24.6299 20.8203 24.3161 20.8203 23.6885L 19.6445 23.6885C 19.6445 24.0557 19.7383 24.3786 19.9258 24.6573C 20.1157 24.9359 20.3906 25.1559 20.75 25.3174C 21.1094 25.4763 21.5078 25.5557 21.9453 25.5557C 22.5757 25.5557 23.0767 25.4164 23.4492 25.1377C 23.8218 24.8565 24.0078 24.4698 24.0078 23.9776C 24.0078 23.5349 23.8555 23.1651 23.5508 22.8682C 23.2461 22.5713 22.7603 22.3226 22.0938 22.1221C 21.7319 22.0127 21.457 21.8955 21.2695 21.7705C 21.1655 21.7002 21.0908 21.6204 21.0454 21.5311C 21.0098 21.4617 20.9922 21.3866 20.9922 21.3057C 20.9922 21.1078 21.0718 20.9489 21.2305 20.8291C 21.314 20.7647 21.415 20.7173 21.5342 20.6868C 21.6411 20.6593 21.7627 20.6455 21.8984 20.6455C 22.1953 20.6455 22.4258 20.7184 22.5898 20.8643C 22.7539 21.0075 22.8359 21.2094 22.8359 21.4698L 24.0078 21.4698C 24.0078 21.1286 23.9194 20.8239 23.7422 20.5557C 23.5679 20.2875 23.3218 20.0804 23.0039 19.9346C 22.686 19.7862 22.3242 19.7119 21.918 19.7119C 21.5142 19.7119 21.1499 19.7797 20.8242 19.9151C 20.5015 20.0505 20.2524 20.2393 20.0781 20.4815C 19.9062 20.7211 19.8203 20.9945 19.8203 21.3018C 19.8203 21.8929 20.1431 22.363 20.7891 22.7119C 21.0259 22.8395 21.3477 22.9698 21.7539 23.1026C 22.1602 23.2328 22.4414 23.3578 22.5977 23.4776ZM 27.5195 23.4776C 27.6758 23.5948 27.7539 23.764 27.7539 23.9854C 27.7539 24.1885 27.6758 24.3474 27.5195 24.4619C 27.3633 24.5739 27.146 24.6299 26.8672 24.6299C 26.1172 24.6299 25.7422 24.3161 25.7422 23.6885L 24.5664 23.6885C 24.5664 24.0557 24.6602 24.3786 24.8477 24.6573C 25.0376 24.9359 25.3125 25.1559 25.6719 25.3174C 26.0312 25.4763 26.4297 25.5557 26.8672 25.5557C 27.4976 25.5557 27.9985 25.4164 28.3711 25.1377C 28.7437 24.8565 28.9297 24.4698 28.9297 23.9776C 28.9297 23.5349 28.7773 23.1651 28.4727 22.8682C 28.168 22.5713 27.6821 22.3226 27.0156 22.1221C 26.6538 22.0127 26.3789 21.8955 26.1914 21.7705C 26.0063 21.6455 25.9141 21.4906 25.9141 21.3057C 25.9141 21.1078 25.9937 20.9489 26.1523 20.8291C 26.311 20.7067 26.5337 20.6455 26.8203 20.6455C 27.1172 20.6455 27.3477 20.7184 27.5117 20.8643C 27.6758 21.0075 27.7578 21.2094 27.7578 21.4698L 28.9297 21.4698C 28.9297 21.1286 28.8413 20.8239 28.6641 20.5557C 28.4897 20.2875 28.2437 20.0804 27.9258 19.9346C 27.6079 19.7862 27.2461 19.7119 26.8398 19.7119C 26.436 19.7119 26.0718 19.7797 25.7461 19.9151C 25.4233 20.0505 25.1743 20.2393 25 20.4815C 24.8281 20.7211 24.7422 20.9945 24.7422 21.3018C 24.7422 21.8929 25.0649 22.363 25.7109 22.7119C 25.9478 22.8395 26.2695 22.9698 26.6758 23.1026C 27.082 23.2328 27.3633 23.3578 27.5195 23.4776ZM 29.8008 25.4776L 30.9727 25.4776L 30.9727 19.7901L 29.8008 19.7901L 29.8008 25.4776ZM 32.0625 19.7901L 32.0625 25.4776L 33.8242 25.4776C 34.3218 25.475 34.7681 25.3604 35.1641 25.1338C 35.5601 24.9073 35.8657 24.5883 36.082 24.1768C 36.3008 23.7653 36.4102 23.2953 36.4102 22.7666L 36.4102 22.5049C 36.4102 21.9763 36.2993 21.5049 36.0781 21.0909C 35.8569 20.6742 35.5483 20.3539 35.1523 20.1299C 34.7593 19.9034 34.3125 19.7901 33.8125 19.7901L 32.0625 19.7901ZM 33.2344 24.5362L 33.2344 20.7393L 33.8125 20.7393C 34.2734 20.7393 34.6235 20.889 34.8633 21.1885C 35.103 21.4854 35.2227 21.9229 35.2227 22.501L 35.2227 22.8018C 35.2173 23.3591 35.0938 23.7875 34.8516 24.0869C 34.6094 24.3864 34.2593 24.5362 33.8008 24.5362L 33.2344 24.5362ZM 38.3359 24.3057L 40.3906 24.3057L 40.7852 25.4776L 42.0312 25.4776L 39.9023 19.7901L 38.8164 19.7901L 36.6992 25.4776L 37.9453 25.4776L 38.3359 24.3057ZM 40.0742 23.3565L 38.6523 23.3565L 39.3594 21.2276L 40.0742 23.3565ZM 42.5625 19.7901L 42.5625 25.4776L 44.3242 25.4776C 44.8218 25.475 45.2681 25.3604 45.6641 25.1338C 46.0601 24.9073 46.3657 24.5883 46.582 24.1768C 46.8008 23.7653 46.9102 23.2953 46.9102 22.7666L 46.9102 22.5049C 46.9102 21.9763 46.7993 21.5049 46.5781 21.0909C 46.3569 20.6742 46.0483 20.3539 45.6523 20.1299C 45.2593 19.9034 44.8125 19.7901 44.3125 19.7901L 42.5625 19.7901ZM 43.7344 24.5362L 43.7344 20.7393L 44.3125 20.7393C 44.7734 20.7393 45.1235 20.889 45.3633 21.1885C 45.603 21.4854 45.7227 21.9229 45.7227 22.501L 45.7227 22.8018C 45.7173 23.3591 45.5938 23.7875 45.3516 24.0869C 45.1094 24.3864 44.7593 24.5362 44.3008 24.5362L 43.7344 24.5362ZM 48.9375 23.0127L 51.1875 23.0127L 51.1875 22.0948L 48.9375 22.0948L 48.9375 20.7393L 51.5703 20.7393L 51.5703 19.7901L 47.7656 19.7901L 47.7656 25.4776L 51.5781 25.4776L 51.5781 24.5362L 48.9375 24.5362L 48.9375 23.0127ZM 54.9805 23.4776C 55.1367 23.5948 55.2148 23.764 55.2148 23.9854C 55.2148 24.1885 55.1367 24.3474 54.9805 24.4619C 54.8242 24.5739 54.6069 24.6299 54.3281 24.6299C 53.5781 24.6299 53.2031 24.3161 53.2031 23.6885L 52.0273 23.6885C 52.0273 24.0557 52.1211 24.3786 52.3086 24.6573C 52.4985 24.9359 52.7734 25.1559 53.1328 25.3174C 53.4922 25.4763 53.8906 25.5557 54.3281 25.5557C 54.9585 25.5557 55.4595 25.4164 55.832 25.1377C 56.2046 24.8565 56.3906 24.4698 56.3906 23.9776C 56.3906 23.5349 56.2383 23.1651 55.9336 22.8682C 55.6289 22.5713 55.1431 22.3226 54.4766 22.1221C 54.1147 22.0127 53.8398 21.8955 53.6523 21.7705C 53.4673 21.6455 53.375 21.4906 53.375 21.3057C 53.375 21.1078 53.4546 20.9489 53.6133 20.8291C 53.772 20.7067 53.9946 20.6455 54.2812 20.6455C 54.5781 20.6455 54.8086 20.7184 54.9727 20.8643C 55.1367 21.0075 55.2188 21.2094 55.2188 21.4698L 56.3906 21.4698C 56.3906 21.1286 56.3022 20.8239 56.125 20.5557C 55.9507 20.2875 55.7046 20.0804 55.3867 19.9346C 55.0688 19.7862 54.707 19.7119 54.3008 19.7119C 53.897 19.7119 53.5327 19.7797 53.207 19.9151C 52.8843 20.0505 52.6353 20.2393 52.4609 20.4815C 52.2891 20.7211 52.2031 20.9945 52.2031 21.3018C 52.2031 21.8929 52.5259 22.363 53.1719 22.7119C 53.4087 22.8395 53.7305 22.9698 54.1367 23.1026C 54.543 23.2328 54.8242 23.3578 54.9805 23.4776ZM 2.24219 35.4776L 2.24219 33.4737L 3.26953 33.4737C 3.94385 33.4737 4.47119 33.3135 4.85156 32.9932C 5.23438 32.6703 5.42578 32.2302 5.42578 31.6729C 5.42578 31.3057 5.33838 30.9789 5.16406 30.6924C 4.98975 30.4034 4.73975 30.1807 4.41406 30.0244C 4.09131 29.8682 3.71631 29.7901 3.28906 29.7901L 1.07031 29.7901L 1.07031 35.4776L 2.24219 35.4776ZM 3.28906 32.5244L 2.24219 32.5244L 2.24219 30.7393L 3.31641 30.7393C 3.45215 30.7417 3.57422 30.7626 3.68262 30.8019C 3.80469 30.8462 3.90918 30.9138 3.99609 31.0049C 4.16016 31.1768 4.24219 31.402 4.24219 31.6807C 4.24219 31.9515 4.16016 32.1599 3.99609 32.3057C 3.83447 32.4515 3.59912 32.5244 3.28906 32.5244ZM 8.94922 33.4776C 9.10547 33.5948 9.18359 33.764 9.18359 33.9854C 9.18359 34.1885 9.10547 34.3474 8.94922 34.4619C 8.79297 34.5739 8.57568 34.6299 8.29688 34.6299C 7.54688 34.6299 7.17188 34.3161 7.17188 33.6885L 5.99609 33.6885C 5.99609 34.0557 6.08984 34.3786 6.27734 34.6573C 6.46729 34.9359 6.74219 35.1559 7.10156 35.3174C 7.46094 35.4763 7.85938 35.5557 8.29688 35.5557C 8.92725 35.5557 9.42822 35.4164 9.80078 35.1377C 10.1733 34.8565 10.3594 34.4698 10.3594 33.9776C 10.3594 33.5349 10.207 33.1651 9.90234 32.8682C 9.59766 32.5713 9.11182 32.3226 8.44531 32.1221C 8.0835 32.0127 7.80859 31.8955 7.62109 31.7705C 7.43604 31.6455 7.34375 31.4906 7.34375 31.3057C 7.34375 31.1078 7.42334 30.9489 7.58203 30.8291C 7.74072 30.7067 7.96338 30.6455 8.25 30.6455C 8.54688 30.6455 8.77734 30.7184 8.94141 30.8643C 9.10547 31.0075 9.1875 31.2094 9.1875 31.4698L 10.3594 31.4698C 10.3594 31.1286 10.271 30.8239 10.0938 30.5557C 9.91943 30.2875 9.67334 30.0804 9.35547 29.9346C 9.0376 29.7862 8.67578 29.7119 8.26953 29.7119C 7.86572 29.7119 7.50146 29.7797 7.17578 29.9151C 6.85303 30.0505 6.604 30.2393 6.42969 30.4815C 6.25781 30.7211 6.17188 30.9945 6.17188 31.3018C 6.17188 31.8929 6.49463 32.363 7.14062 32.7119C 7.37744 32.8395 7.69922 32.9698 8.10547 33.1026C 8.51172 33.2328 8.79297 33.3578 8.94922 33.4776ZM 11.2305 35.4776L 12.4023 35.4776L 12.4023 29.7901L 11.2305 29.7901L 11.2305 35.4776ZM 17.2773 35.0284C 17.686 34.6768 17.9126 34.195 17.957 33.583L 16.7852 33.583C 16.7593 33.9294 16.6562 34.1859 16.4766 34.3526C 16.2993 34.5166 16.0298 34.5987 15.668 34.5987C 15.2671 34.5987 14.9727 34.4567 14.7852 34.1729C 14.6001 33.889 14.5078 33.4398 14.5078 32.8252L 14.5078 32.3955C 14.5132 31.807 14.6118 31.3734 14.8047 31.0948C 15 30.8135 15.293 30.6729 15.6836 30.6729C 16.043 30.6729 16.3101 30.7562 16.4844 30.9229C 16.6616 31.0869 16.7642 31.3526 16.793 31.7198L 17.9648 31.7198C 17.9023 31.0844 17.6704 30.5909 17.2695 30.2393C 16.8687 29.8877 16.3398 29.7119 15.6836 29.7119C 15.2095 29.7119 14.793 29.8239 14.4336 30.0479C 14.0767 30.2692 13.8022 30.5883 13.6094 31.0049C 13.4165 31.4216 13.3203 31.9034 13.3203 32.4502L 13.3203 32.7979C 13.3203 33.6547 13.5288 34.3291 13.9453 34.8213C 14.3647 35.3109 14.939 35.5557 15.668 35.5557C 16.3345 35.5557 16.8711 35.3799 17.2773 35.0284ZM 23.1016 34.2354C 23.2993 33.8135 23.3984 33.3226 23.3984 32.7627L 23.3984 32.5088C 23.3984 31.9515 23.2969 31.4606 23.0938 31.0362C 22.8931 30.6091 22.6079 30.2823 22.2383 30.0557C 21.8711 29.8265 21.4507 29.7119 20.9766 29.7119C 20.5024 29.7119 20.0806 29.8265 19.7109 30.0557C 19.3438 30.2823 19.0586 30.6091 18.8555 31.0362C 18.6548 31.4606 18.5547 31.9528 18.5547 32.5127L 18.5547 32.794C 18.5571 33.3409 18.6602 33.8252 18.8633 34.2471C 19.0664 34.6664 19.353 34.9893 19.7227 35.2159C 20.0923 35.4424 20.5132 35.5557 20.9844 35.5557C 21.4609 35.5557 21.8828 35.4411 22.25 35.2119C 22.6196 34.9828 22.9038 34.6573 23.1016 34.2354ZM 21.8906 31.1455C 22.104 31.4554 22.2109 31.9086 22.2109 32.5049L 22.2109 32.7823C 22.2085 33.3734 22.1016 33.8239 21.8906 34.1338C 21.6797 34.4411 21.3774 34.5948 20.9844 34.5948C 20.5835 34.5948 20.2759 34.4346 20.0625 34.1143C 19.8491 33.794 19.7422 33.3434 19.7422 32.7627L 19.7422 32.4854C 19.7446 31.8942 19.853 31.4463 20.0664 31.1416C 20.2798 30.8344 20.5835 30.6807 20.9766 30.6807C 21.3726 30.6807 21.6772 30.8356 21.8906 31.1455ZM 27.9102 34.5362L 25.4219 34.5362L 25.4219 29.7901L 24.25 29.7901L 24.25 35.4776L 27.9102 35.4776L 27.9102 34.5362ZM 32.7109 34.2354C 32.9087 33.8135 33.0078 33.3226 33.0078 32.7627L 33.0078 32.5088C 33.0078 31.9515 32.9062 31.4606 32.7031 31.0362C 32.5024 30.6091 32.2173 30.2823 31.8477 30.0557C 31.4805 29.8265 31.0601 29.7119 30.5859 29.7119C 30.1118 29.7119 29.6899 29.8265 29.3203 30.0557C 28.9531 30.2823 28.668 30.6091 28.4648 31.0362C 28.2642 31.4606 28.1641 31.9528 28.1641 32.5127L 28.1641 32.794C 28.1665 33.3409 28.2695 33.8252 28.4727 34.2471C 28.6758 34.6664 28.9624 34.9893 29.332 35.2159C 29.7017 35.4424 30.1226 35.5557 30.5938 35.5557C 31.0703 35.5557 31.4922 35.4411 31.8594 35.2119C 32.229 34.9828 32.5132 34.6573 32.7109 34.2354ZM 31.5 31.1455C 31.7134 31.4554 31.8203 31.9086 31.8203 32.5049L 31.8203 32.7823C 31.8179 33.3734 31.7109 33.8239 31.5 34.1338C 31.2891 34.4411 30.9868 34.5948 30.5938 34.5948C 30.1929 34.5948 29.8853 34.4346 29.6719 34.1143C 29.4585 33.794 29.3516 33.3434 29.3516 32.7627L 29.3516 32.4854C 29.354 31.8942 29.4624 31.4463 29.6758 31.1416C 29.8892 30.8344 30.1929 30.6807 30.5859 30.6807C 30.9819 30.6807 31.2866 30.8356 31.5 31.1455ZM 32.043 28.2666L 30.8125 28.2666L 30.043 29.4776L 30.9609 29.4776L 32.043 28.2666ZM 37.4648 35.3487C 37.8501 35.208 38.1484 35.0114 38.3594 34.7588L 38.3594 32.4893L 36.1211 32.4893L 36.1211 33.3526L 37.1875 33.3526L 37.1875 34.333C 37 34.5205 36.686 34.6143 36.2461 34.6143C 35.8086 34.6143 35.4766 34.4619 35.25 34.1573C 35.0234 33.8526 34.9102 33.402 34.9102 32.8057L 34.9102 32.4424C 34.9126 31.8513 35.0181 31.4059 35.2266 31.1065C 35.4351 30.807 35.7383 30.6573 36.1367 30.6573C 36.4492 30.6573 36.6938 30.7328 36.8711 30.8838C 37.0508 31.0349 37.1665 31.2731 37.2188 31.5987L 38.3594 31.5987C 38.2891 30.9841 38.064 30.5166 37.6836 30.1963C 37.3032 29.8734 36.7759 29.7119 36.1016 29.7119C 35.6172 29.7119 35.1938 29.8226 34.832 30.044C 34.4727 30.2627 34.1968 30.5804 34.0039 30.9971C 33.814 31.4112 33.7188 31.902 33.7188 32.4698L 33.7188 32.8565C 33.7241 33.4086 33.8267 33.889 34.0273 34.2979C 34.2305 34.7067 34.5171 35.0192 34.8867 35.2354C 35.2593 35.4489 35.6914 35.5557 36.1836 35.5557C 36.6523 35.5557 37.0796 35.4867 37.4648 35.3487ZM 39.3867 35.4776L 40.5586 35.4776L 40.5586 29.7901L 39.3867 29.7901L 39.3867 35.4776ZM 45.4336 35.0284C 45.8423 34.6768 46.0688 34.195 46.1133 33.583L 44.9414 33.583C 44.9155 33.9294 44.8125 34.1859 44.6328 34.3526C 44.4556 34.5166 44.186 34.5987 43.8242 34.5987C 43.4233 34.5987 43.1289 34.4567 42.9414 34.1729C 42.7563 33.889 42.6641 33.4398 42.6641 32.8252L 42.6641 32.3955C 42.6694 31.807 42.7681 31.3734 42.9609 31.0948C 43.1562 30.8135 43.4492 30.6729 43.8398 30.6729C 44.1992 30.6729 44.4663 30.7562 44.6406 30.9229C 44.8179 31.0869 44.9204 31.3526 44.9492 31.7198L 46.1211 31.7198C 46.0586 31.0844 45.8267 30.5909 45.4258 30.2393C 45.0249 29.8877 44.4961 29.7119 43.8398 29.7119C 43.3657 29.7119 42.9492 29.8239 42.5898 30.0479C 42.2329 30.2692 41.9585 30.5883 41.7656 31.0049C 41.5728 31.4216 41.4766 31.9034 41.4766 32.4502L 41.4766 32.7979C 41.4766 33.6547 41.6851 34.3291 42.1016 34.8213C 42.521 35.3109 43.0952 35.5557 43.8242 35.5557C 44.4907 35.5557 45.0273 35.3799 45.4336 35.0284ZM 48.0391 34.3057L 50.0938 34.3057L 50.4883 35.4776L 51.7344 35.4776L 49.6055 29.7901L 48.5195 29.7901L 46.4023 35.4776L 47.6484 35.4776L 48.0391 34.3057ZM 49.7773 33.3565L 48.3555 33.3565L 49.0625 31.2276L 49.7773 33.3565ZM 54.9805 33.4776C 55.1367 33.5948 55.2148 33.764 55.2148 33.9854C 55.2148 34.1885 55.1367 34.3474 54.9805 34.4619C 54.8242 34.5739 54.6069 34.6299 54.3281 34.6299C 53.5781 34.6299 53.2031 34.3161 53.2031 33.6885L 52.0273 33.6885C 52.0273 34.0557 52.1211 34.3786 52.3086 34.6573C 52.4985 34.9359 52.7734 35.1559 53.1328 35.3174C 53.4922 35.4763 53.8906 35.5557 54.3281 35.5557C 54.9585 35.5557 55.4595 35.4164 55.832 35.1377C 56.2046 34.8565 56.3906 34.4698 56.3906 33.9776C 56.3906 33.5349 56.2383 33.1651 55.9336 32.8682C 55.6289 32.5713 55.1431 32.3226 54.4766 32.1221C 54.1147 32.0127 53.8398 31.8955 53.6523 31.7705C 53.4673 31.6455 53.375 31.4906 53.375 31.3057C 53.375 31.1078 53.4546 30.9489 53.6133 30.8291C 53.772 30.7067 53.9946 30.6455 54.2812 30.6455C 54.4355 30.6455 54.5723 30.6653 54.6909 30.7047C 54.8003 30.7411 54.894 30.7943 54.9727 30.8643C 55.1367 31.0075 55.2188 31.2094 55.2188 31.4698L 56.3906 31.4698C 56.3906 31.1286 56.3022 30.8239 56.125 30.5557C 55.9507 30.2875 55.7046 30.0804 55.3867 29.9346C 55.0688 29.7862 54.707 29.7119 54.3008 29.7119C 53.897 29.7119 53.5327 29.7797 53.207 29.9151C 52.8843 30.0505 52.6353 30.2393 52.4609 30.4815C 52.2891 30.7211 52.2031 30.9945 52.2031 31.3018C 52.2031 31.8929 52.5259 32.363 53.1719 32.7119C 53.4087 32.8395 53.7305 32.9698 54.1367 33.1026C 54.543 33.2328 54.8242 33.3578 54.9805 33.4776Z"/>
</defs>
</svg>
