<svg width="243" height="346" viewBox="0 0 243 346" version="1.1" xmlns="http://www.w3.org/2000/svg" xmlns:xlink="http://www.w3.org/1999/xlink">
<title>Component</title>
<desc>Created using Figma</desc>
<g id="Canvas" transform="translate(-3777 -335)">
<g id="Component">
<g id="Subtract">
<use xlink:href="#path0_fill" transform="translate(3777 335)" fill="#FFFFFF"/>
</g>
<g id="Ellipse 4">
<use xlink:href="#path1_fill" transform="translate(3899 445)" fill="#FFFFFF"/>
</g>
<g id="Ellipse 5">
<use xlink:href="#path2_fill" transform="translate(3792 461)" fill="#FFFFFF"/>
</g>
<g id="Vector 12">
<use xlink:href="#path3_fill" transform="translate(3899 469)" fill="#FFFFFF"/>
</g>
<g id="Vector 13">
<use xlink:href="#path4_fill" transform="translate(3784 522)" fill="#FFFFFF"/>
</g>
<g id="Vector 14">
<use xlink:href="#path5_fill" transform="translate(3826 502)" fill="#FFFFFF"/>
</g>
<g id="Vector 15">
<use xlink:href="#path6_fill" transform="translate(3787.5 477.5)" fill="#FFFFFF"/>
</g>
<g id="Vector 16">
<use xlink:href="#path7_fill" transform="translate(3792.5 375)" fill="#FFFFFF"/>
</g>
<g id="Vector 17">
<use xlink:href="#path8_fill" transform="translate(3921.5 367.5)" fill="#FFFFFF"/>
</g>
<g id="Rectangle 17">
<use xlink:href="#path9_fill" transform="translate(3921 423)" fill="#FFFFFF"/>
</g>
<g id="Rectangle 17">
<use xlink:href="#path9_fill" transform="translate(3921 426)" fill="#FFFFFF"/>
</g>
<g id="Ellipse 6">
<use xlink:href="#path1_fill" transform="translate(3823 569)" fill="#FFFFFF"/>
</g>
<g id="Ellipse 6">
<use xlink:href="#path1_fill" transform="translate(3823 569)" fill="#FFFFFF"/>
</g>
<g id="Ellipse 6">
<use xlink:href="#path10_fill" transform="translate(3851 577)" fill="#FFFFFF"/>
</g>
<g id="Ellipse 6">
<use xlink:href="#path10_fill" transform="translate(3851 577)" fill="#FFFFFF"/>
</g>
<g id="Ellipse 6">
<use xlink:href="#path10_fill" transform="translate(3860 552)" fill="#FFFFFF"/>
</g>
<g id="Ellipse 6">
<use xlink:href="#path10_fill" transform="translate(3860 552)" fill="#FFFFFF"/>
</g>
<g id="Ellipse 6">
<use xlink:href="#path11_fill" transform="translate(3876 557)" fill="#FFFFFF"/>
</g>
<g id="Ellipse 6">
<use xlink:href="#path11_fill" transform="translate(3876 557)" fill="#FFFFFF"/>
</g>
<g id="Ellipse 6">
<use xlink:href="#path12_fill" transform="translate(3898 545)" fill="#FFFFFF"/>
</g>
<g id="Ellipse 6">
<use xlink:href="#path12_fill" transform="translate(3898 545)" fill="#FFFFFF"/>
</g>
<g id="Ellipse 6">
<use xlink:href="#path13_fill" transform="translate(3802 586)" fill="#FFFFFF"/>
</g>
<g id="Ellipse 6">
<use xlink:href="#path13_fill" transform="translate(3802 586)" fill="#FFFFFF"/>
</g>
<g id="Ellipse 6">
<use xlink:href="#path14_fill" transform="translate(3887 576)" fill="#FFFFFF"/>
</g>
<g id="Ellipse 6">
<use xlink:href="#path14_fill" transform="translate(3887 576)" fill="#FFFFFF"/>
</g>
<g id="Ellipse 6">
<use xlink:href="#path1_fill" transform="translate(3863 585)" fill="#FFFFFF"/>
</g>
<g id="Ellipse 6">
<use xlink:href="#path1_fill" transform="translate(3863 585)" fill="#FFFFFF"/>
</g>
<g id="Ellipse 6">
<use xlink:href="#path10_fill" transform="translate(3832 585)" fill="#FFFFFF"/>
</g>
<g id="Ellipse 6">
<use xlink:href="#path10_fill" transform="translate(3832 585)" fill="#FFFFFF"/>
</g>
<g id="Ellipse 6">
<use xlink:href="#path15_fill" transform="translate(3841 557)" fill="#FFFFFF"/>
</g>
<g id="Ellipse 6">
<use xlink:href="#path15_fill" transform="translate(3841 557)" fill="#FFFFFF"/>
</g>
<g id="Ellipse 6">
<use xlink:href="#path15_fill" transform="translate(3887 535)" fill="#FFFFFF"/>
</g>
<g id="Ellipse 6">
<use xlink:href="#path15_fill" transform="translate(3887 535)" fill="#FFFFFF"/>
</g>
<g id="Ellipse 6">
<use xlink:href="#path15_fill" transform="translate(3910 522)" fill="#FFFFFF"/>
</g>
<g id="Ellipse 6">
<use xlink:href="#path16_fill" transform="translate(3910 522)" fill="#FFFFFF"/>
</g>
<g id="Ellipse 6">
<use xlink:href="#path17_fill" transform="translate(3935 505)" fill="#FFFFFF"/>
</g>
<g id="Ellipse 6">
<use xlink:href="#path16_fill" transform="translate(3964 498)" fill="#FFFFFF"/>
</g>
<g id="Ellipse 6">
<use xlink:href="#path18_fill" transform="translate(3967 508)" fill="#FFFFFF"/>
</g>
<g id="Ellipse 7">
<use xlink:href="#path19_fill" transform="translate(3932 557)" fill="#FFFFFF"/>
</g>
<g id="Ellipse 7">
<use xlink:href="#path20_fill" transform="translate(3955 595)" fill="#FFFFFF"/>
</g>
<g id="Ellipse 7">
<use xlink:href="#path21_fill" transform="translate(3944 609)" fill="#FFFFFF"/>
</g>
<g id="Ellipse 7">
<use xlink:href="#path1_fill" transform="translate(3959 628)" fill="#FFFFFF"/>
</g>
<g id="Ellipse 7">
<use xlink:href="#path15_fill" transform="translate(3964 648)" fill="#FFFFFF"/>
</g>
<g id="Vector 18">
<use xlink:href="#path22_fill" transform="translate(3790.5 631)" fill="#FFFFFF"/>
</g>
<g id="Vector 19">
<use xlink:href="#path23_fill" transform="translate(3785.5 623)" fill="#FFFFFF"/>
</g>
<g id="Vector 20">
<use xlink:href="#path24_fill" transform="translate(3789.5 616.5)" fill="#FFFFFF"/>
</g>
</g>
</g>
<defs>
<path id="path0_fill" fill-rule="evenodd" d="M 243 0L 0 0L 0 346L 243 346L 243 0ZM 18 22L 143 22L 143 95L 18 95L 18 22ZM 18 105L 217 105L 217 140L 18 225L 18 105ZM 224 22L 152 22L 152 95L 224 95L 224 22ZM 29 271L 152 271L 152 211L 225 211L 225 151L 29 236L 29 271ZM 224 221L 160 221L 160 327L 224 327L 224 221ZM 18 280L 152 280L 152 327L 18 327L 18 280Z"/>
<path id="path1_fill" d="M 22 11C 22 17.0751 17.0751 22 11 22C 4.92487 22 0 17.0751 0 11C 0 4.92487 4.92487 0 11 0C 17.0751 0 22 4.92487 22 11Z"/>
<path id="path2_fill" d="M 61 30.5C 61 47.3447 47.3447 61 30.5 61C 13.6553 61 0 47.3447 0 30.5C 0 13.6553 13.6553 0 30.5 0C 47.3447 0 61 13.6553 61 30.5Z"/>
<path id="path3_fill" d="M 0 10L 28 0L 36 17L 36 37L 0 56L 0 10Z"/>
<path id="path4_fill" d="M 56 5L 8 0L 0 47L 61 21L 56 5Z"/>
<path id="path5_fill" d="M 47.5 0C 30 13 9.8 27.1 5 29.5L 0 39L 14 39L 50 6.5L 47.5 0Z"/>
<path id="path6_fill" d="M 172 20L 4 0L 0 5L 164 23.5L 172 20Z"/>
<path id="path7_fill" d="M 38 16L 0 57.5L 0 60.5L 130.5 60.5L 130.5 36L 121.5 29.5L 117 33.5L 111 26L 104.5 36L 75 0L 51.5 29.5L 38 16Z"/>
<path id="path8_fill" d="M 15 47.5L 0 50L 0 53.5L 85 53.5L 85 50L 71.5 47.5L 63 0L 57.5 0L 57.5 24L 52 24L 52 18L 36 18L 36 24L 30.5 24L 28 0L 22 0L 15 47.5Z"/>
<path id="path9_fill" d="M 0 0L 86 0L 86 2L 0 2L 0 0Z"/>
<path id="path10_fill" d="M 17 8.5C 17 13.1944 13.1944 17 8.5 17C 3.80558 17 0 13.1944 0 8.5C 0 3.80558 3.80558 0 8.5 0C 13.1944 0 17 3.80558 17 8.5Z"/>
<path id="path11_fill" d="M 23 11.5C 23 17.8513 17.8513 23 11.5 23C 5.14873 23 0 17.8513 0 11.5C 0 5.14873 5.14873 0 11.5 0C 17.8513 0 23 5.14873 23 11.5Z"/>
<path id="path12_fill" d="M 29 14.5C 29 22.5081 22.5081 29 14.5 29C 6.49187 29 0 22.5081 0 14.5C 0 6.49187 6.49187 0 14.5 0C 22.5081 0 29 6.49187 29 14.5Z"/>
<path id="path13_fill" d="M 21 10.5C 21 16.299 16.299 21 10.5 21C 4.70101 21 0 16.299 0 10.5C 0 4.70101 4.70101 0 10.5 0C 16.299 0 21 4.70101 21 10.5Z"/>
<path id="path14_fill" d="M 34 17C 34 26.3888 26.3888 34 17 34C 7.61116 34 0 26.3888 0 17C 0 7.61116 7.61116 0 17 0C 26.3888 0 34 7.61116 34 17Z"/>
<path id="path15_fill" d="M 12 6C 12 9.31371 9.31371 12 6 12C 2.68629 12 0 9.31371 0 6C 0 2.68629 2.68629 0 6 0C 9.31371 0 12 2.68629 12 6Z"/>
<path id="path16_fill" d="M 20 10C 20 15.5228 15.5228 20 10 20C 4.47715 20 0 15.5228 0 10C 0 4.47715 4.47715 0 10 0C 15.5228 0 20 4.47715 20 10Z"/>
<path id="path17_fill" d="M 32 16C 32 24.8366 24.8366 32 16 32C 7.16344 32 0 24.8366 0 16C 0 7.16344 7.16344 0 16 0C 24.8366 0 32 7.16344 32 16Z"/>
<path id="path18_fill" d="M 44 22C 44 34.1503 34.1503 44 22 44C 9.84974 44 0 34.1503 0 22C 0 9.84974 9.84974 0 22 0C 34.1503 0 44 9.84974 44 22Z"/>
<path id="path19_fill" d="M 76 26C 76 40.3594 58.9868 52 38 52C 17.0132 52 0 40.3594 0 26C 0 11.6406 17.0132 0 38 0C 58.9868 0 76 11.6406 76 26Z"/>
<path id="path20_fill" d="M 30 15C 30 23.2843 23.2843 30 15 30C 6.71573 30 0 23.2843 0 15C 0 6.71573 6.71573 0 15 0C 23.2843 0 30 6.71573 30 15Z"/>
<path id="path21_fill" d="M 52 15C 52 23.2843 40.3594 30 26 30C 11.6406 30 0 23.2843 0 15C 0 6.71573 11.6406 0 26 0C 40.3594 0 52 6.71573 52 15Z"/>
<path id="path22_fill" d="M 134.5 35L 0 0L 0 7.5L 77 35L 134.5 35Z"/>
<path id="path23_fill" d="M 146.5 42.5L 0 4.5L 0 0L 146.5 16.5L 146.5 42.5Z"/>
<path id="path24_fill" d="M 142 11.5L 1.5 5L 0 2L 142 0L 142 11.5Z"/>
</defs>
</svg>
