<svg width="4176" height="1520" viewBox="0 0 4176 1520" fill="none" xmlns="http://www.w3.org/2000/svg">
<g clip-path="url(#clip0)">
<rect width="4176" height="1520" fill="#0A8EAB"/>
<path d="M1789.12 877.667C1839.25 736.871 1908.51 613.939 1996.9 508.872C2085.29 403.805 2184.16 323.274 2293.51 267.281C2403.55 211.536 2513.26 184.278 2622.63 185.508L2638.3 352.981C2519.68 377.718 2411.08 443.73 2312.49 551.017C2214.8 657.974 2135.4 796.153 2074.3 965.553L2060.75 1003.64C1998.91 1177.32 1971.73 1337.35 1979.23 1483.71C1987.43 1630.32 2030.02 1750.81 2107.01 1845.19L1989.03 1965.08C1904.47 1898.56 1836.78 1807.82 1785.95 1692.84C1735.61 1578.69 1709.67 1454.37 1708.14 1319.89C1706.61 1185.41 1728.98 1050.98 1775.25 916.617L1789.12 877.667Z" fill="white"/>
<path d="M3855.34 758.204C3805.21 899 3735.95 1021.93 3647.56 1127C3559.17 1232.07 3460.3 1312.6 3350.95 1368.59C3240.9 1424.34 3131.19 1451.59 3021.83 1450.36L3006.16 1282.89C3124.77 1258.15 3233.37 1192.14 3331.97 1084.85C3429.66 977.897 3509.05 839.718 3570.15 670.318L3583.71 632.234C3645.55 458.547 3672.72 298.524 3665.22 152.164C3657.03 5.5558 3614.43 -114.938 3537.45 -209.318L3655.43 -329.206C3739.98 -262.691 3807.68 -171.945 3858.51 -56.9702C3908.85 57.18 3934.79 181.496 3936.32 315.979C3937.85 450.462 3915.48 584.887 3869.21 719.254L3855.34 758.204Z" fill="white"/>
</g>
<defs>
<clipPath id="clip0">
<rect width="4176" height="1520" fill="white"/>
</clipPath>
</defs>
</svg>
