<svg width="2300" height="2300" viewBox="0 0 2300 2300" fill="none" xmlns="http://www.w3.org/2000/svg">
<g opacity="0.3">
<rect width="100" height="100" transform="translate(1100 1200)" fill="#EEEEEE"/>
<rect width="100" height="100" transform="translate(1200 1200)" fill="#EEEEEE"/>
<rect width="100" height="100" transform="translate(1200 1300)" fill="#DEDEDE"/>
<rect width="100" height="100" transform="translate(1100 1300)" fill="#DEDEDE"/>
<rect width="100" height="100" transform="translate(1000 1300)" fill="#DEDEDE"/>
<rect width="100" height="100" transform="translate(900 1300)" fill="#DEDEDE"/>
<rect width="100" height="100" transform="translate(900 1200)" fill="#DEDEDE"/>
<rect width="100" height="100" transform="translate(900 1100)" fill="#DEDEDE"/>
<rect width="100" height="100" transform="translate(900 1000)" fill="#DEDEDE"/>
<rect width="100" height="100" transform="translate(900 900)" fill="#DEDEDE"/>
<rect width="100" height="100" transform="translate(1000 900)" fill="#DEDEDE"/>
<rect width="100" height="100" transform="translate(1100 900)" fill="#DEDEDE"/>
<rect width="100" height="100" transform="translate(1200 900)" fill="#DEDEDE"/>
<rect width="100" height="100" transform="translate(1300 900)" fill="#DEDEDE"/>
<rect width="100" height="100" transform="translate(1300 1000)" fill="#DEDEDE"/>
<rect width="100" height="100" transform="translate(1300 1100)" fill="#DEDEDE"/>
<rect width="100" height="100" transform="translate(1300 1200)" fill="#DEDEDE"/>
<rect width="100" height="100" transform="translate(1300 1300)" fill="#DEDEDE"/>
<rect width="100" height="100" transform="translate(1400 1400)" fill="#DEDEDE"/>
<rect width="100" height="100" transform="translate(1400 1500)" fill="#D4D4D4"/>
<rect width="100" height="100" transform="translate(1300 1500)" fill="#D4D4D4"/>
<rect width="100" height="100" transform="translate(1200 1500)" fill="#D4D4D4"/>
<rect width="100" height="100" transform="translate(1100 1500)" fill="#D4D4D4"/>
<rect width="100" height="100" transform="translate(1000 1500)" fill="#D4D4D4"/>
<rect width="100" height="100" transform="translate(900 1500)" fill="#D4D4D4"/>
<rect width="100" height="100" transform="translate(800 1500)" fill="#D4D4D4"/>
<rect width="100" height="100" transform="translate(1500 1500)" fill="#D4D4D4"/>
<rect width="100" height="100" transform="translate(1500 700)" fill="#D4D4D4"/>
<rect width="100" height="100" transform="translate(1300 700)" fill="#D4D4D4"/>
<rect width="100" height="100" transform="translate(1100 700)" fill="#D4D4D4"/>
<rect width="100" height="100" transform="translate(900 700)" fill="#D4D4D4"/>
<rect width="100" height="100" transform="translate(1500 1400)" fill="#D4D4D4"/>
<rect width="100" height="100" transform="translate(1500 1300)" fill="#D4D4D4"/>
<rect width="100" height="100" transform="translate(1500 1200)" fill="#D4D4D4"/>
<rect width="100" height="100" transform="translate(1500 1100)" fill="#D4D4D4"/>
<rect width="100" height="100" transform="translate(1500 1000)" fill="#D4D4D4"/>
<rect width="100" height="100" transform="translate(1500 900)" fill="#D4D4D4"/>
<rect width="100" height="100" transform="translate(1500 800)" fill="#D4D4D4"/>
<rect width="100" height="100" transform="translate(1600 1400)" fill="#D4D4D4"/>
<rect width="100" height="100" transform="translate(1600 1200)" fill="#D4D4D4"/>
<rect width="100" height="100" transform="translate(1600 1000)" fill="#D4D4D4"/>
<rect width="100" height="100" transform="translate(1600 800)" fill="#D4D4D4"/>
<rect width="100" height="100" transform="translate(1700 1500)" fill="#C5C5C5"/>
<rect width="100" height="100" transform="translate(1700 700)" fill="#C5C5C5"/>
<rect width="100" height="100" transform="translate(1700 1400)" fill="#C5C5C5"/>
<rect width="100" height="100" transform="translate(1700 1300)" fill="#C5C5C5"/>
<rect width="100" height="100" transform="translate(1700 1200)" fill="#C5C5C5"/>
<rect width="100" height="100" transform="translate(1700 1100)" fill="#C5C5C5"/>
<rect width="100" height="100" transform="translate(1700 1000)" fill="#C5C5C5"/>
<rect width="100" height="100" transform="translate(1700 900)" fill="#C5C5C5"/>
<rect width="100" height="100" transform="translate(1700 800)" fill="#C5C5C5"/>
<rect width="100" height="100" transform="translate(1800 1400)" fill="#C5C5C5"/>
<rect width="100" height="100" transform="translate(1800 1200)" fill="#C5C5C5"/>
<rect width="100" height="100" transform="translate(1800 1000)" fill="#C5C5C5"/>
<rect width="100" height="100" transform="translate(1800 800)" fill="#C5C5C5"/>
<rect width="100" height="100" transform="translate(700 1500)" fill="#D4D4D4"/>
<rect width="100" height="100" transform="translate(1400 1600)" fill="#D4D4D4"/>
<rect width="100" height="100" transform="translate(1200 1600)" fill="#D4D4D4"/>
<rect width="100" height="100" transform="translate(1000 1600)" fill="#D4D4D4"/>
<rect width="100" height="100" transform="translate(800 1600)" fill="#D4D4D4"/>
<rect width="100" height="100" transform="translate(1400 1700)" fill="#C5C5C5"/>
<rect width="100" height="100" transform="translate(1300 1700)" fill="#C5C5C5"/>
<rect width="100" height="100" transform="translate(1200 1700)" fill="#C5C5C5"/>
<rect width="100" height="100" transform="translate(1100 1700)" fill="#C5C5C5"/>
<rect width="100" height="100" transform="translate(1000 1700)" fill="#C5C5C5"/>
<rect width="100" height="100" transform="translate(900 1700)" fill="#C5C5C5"/>
<rect width="100" height="100" transform="translate(800 1700)" fill="#C5C5C5"/>
<rect width="100" height="100" transform="translate(1500 1700)" fill="#C5C5C5"/>
<rect width="100" height="100" transform="translate(1600 1800)" fill="#C5C5C5"/>
<rect width="100" height="100" transform="translate(1600 1700)" fill="#C5C5C5"/>
<rect width="100" height="100" transform="translate(1700 1600)" fill="#C5C5C5"/>
<rect width="100" height="100" transform="translate(1800 1600)" fill="#C5C5C5"/>
<rect width="100" height="100" transform="translate(1700 1700)" fill="#C5C5C5"/>
<rect width="100" height="100" transform="translate(700 1700)" fill="#C5C5C5"/>
<rect width="100" height="100" transform="translate(1400 1800)" fill="#C5C5C5"/>
<rect width="100" height="100" transform="translate(1200 1800)" fill="#C5C5C5"/>
<rect width="100" height="100" transform="translate(1000 1800)" fill="#C5C5C5"/>
<rect width="100" height="100" transform="translate(800 1800)" fill="#C5C5C5"/>
<rect width="100" height="100" transform="translate(700 700)" fill="#D4D4D4"/>
<rect width="100" height="100" transform="translate(1400 700)" fill="#D4D4D4"/>
<rect width="100" height="100" transform="translate(1200 700)" fill="#D4D4D4"/>
<rect width="100" height="100" transform="translate(1000 700)" fill="#D4D4D4"/>
<rect width="100" height="100" transform="translate(800 700)" fill="#D4D4D4"/>
<rect width="100" height="100" transform="translate(1400 600)" fill="#D4D4D4"/>
<rect width="100" height="100" transform="translate(1200 600)" fill="#D4D4D4"/>
<rect width="100" height="100" transform="translate(1000 600)" fill="#D4D4D4"/>
<rect width="100" height="100" transform="translate(800 600)" fill="#D4D4D4"/>
<rect width="100" height="100" transform="translate(1500 500)" fill="#C5C5C5"/>
<rect width="100" height="100" transform="translate(1300 500)" fill="#C5C5C5"/>
<rect width="100" height="100" transform="translate(1100 500)" fill="#C5C5C5"/>
<rect width="100" height="100" transform="translate(900 500)" fill="#C5C5C5"/>
<rect width="100" height="100" transform="translate(700 500)" fill="#C5C5C5"/>
<rect width="100" height="100" transform="translate(1400 500)" fill="#C5C5C5"/>
<rect width="100" height="100" transform="translate(1200 500)" fill="#C5C5C5"/>
<rect width="100" height="100" transform="translate(1000 500)" fill="#C5C5C5"/>
<rect width="100" height="100" transform="translate(800 500)" fill="#C5C5C5"/>
<rect width="100" height="100" transform="translate(1400 400)" fill="#C5C5C5"/>
<rect width="100" height="100" transform="translate(1200 400)" fill="#C5C5C5"/>
<rect width="100" height="100" transform="translate(1000 400)" fill="#C5C5C5"/>
<rect width="100" height="100" transform="translate(800 400)" fill="#C5C5C5"/>
<rect width="100" height="100" transform="translate(700 1400)" fill="#D4D4D4"/>
<rect width="100" height="100" transform="translate(700 1300)" fill="#D4D4D4"/>
<rect width="100" height="100" transform="translate(700 1200)" fill="#D4D4D4"/>
<rect width="100" height="100" transform="translate(700 1100)" fill="#D4D4D4"/>
<rect width="100" height="100" transform="translate(700 1000)" fill="#D4D4D4"/>
<rect width="100" height="100" transform="translate(700 900)" fill="#D4D4D4"/>
<rect width="100" height="100" transform="translate(700 800)" fill="#D4D4D4"/>
<rect width="100" height="100" transform="translate(600 1400)" fill="#D4D4D4"/>
<rect width="100" height="100" transform="translate(600 1200)" fill="#D4D4D4"/>
<rect width="100" height="100" transform="translate(600 1000)" fill="#D4D4D4"/>
<rect width="100" height="100" transform="translate(600 800)" fill="#D4D4D4"/>
<rect width="100" height="100" transform="translate(500 1500)" fill="#C5C5C5"/>
<rect width="100" height="100" transform="translate(500 1600)" fill="#C5C5C5"/>
<rect width="100" height="100" transform="translate(500 1700)" fill="#C5C5C5"/>
<rect width="100" height="100" transform="translate(600 1700)" fill="#C5C5C5"/>
<rect width="100" height="100" transform="translate(400 1600)" fill="#C5C5C5"/>
<rect width="100" height="100" transform="translate(400 1800)" fill="#C5C5C5"/>
<rect width="100" height="100" transform="translate(600 1800)" fill="#C5C5C5"/>
<rect width="100" height="100" transform="translate(1800 1800)" fill="#C5C5C5"/>
<rect width="100" height="100" transform="translate(1200 1900)" fill="#ADADAD"/>
<rect width="100" height="100" transform="translate(1100 1900)" fill="#ADADAD"/>
<rect width="100" height="100" transform="translate(1000 1900)" fill="#ADADAD"/>
<rect width="100" height="100" transform="translate(900 1900)" fill="#ADADAD"/>
<rect width="100" height="100" transform="translate(800 1900)" fill="#ADADAD"/>
<rect width="100" height="100" transform="translate(700 1900)" fill="#ADADAD"/>
<rect width="100" height="100" transform="translate(600 1900)" fill="#ADADAD"/>
<rect width="100" height="100" transform="translate(1300 1900)" fill="#ADADAD"/>
<rect width="100" height="100" transform="translate(1400 2000)" fill="#ADADAD"/>
<rect width="100" height="100" transform="translate(1400 1900)" fill="#ADADAD"/>
<rect width="100" height="100" transform="translate(1500 1900)" fill="#ADADAD"/>
<rect width="100" height="100" transform="translate(500 1900)" fill="#ADADAD"/>
<rect width="100" height="100" transform="translate(1200 2000)" fill="#ADADAD"/>
<rect width="100" height="100" transform="translate(1000 2000)" fill="#ADADAD"/>
<rect width="100" height="100" transform="translate(800 2000)" fill="#ADADAD"/>
<rect width="100" height="100" transform="translate(600 2000)" fill="#ADADAD"/>
<rect width="100" height="100" transform="translate(300 1900)" fill="#ADADAD"/>
<rect width="100" height="100" transform="translate(400 1900)" fill="#ADADAD"/>
<rect width="100" height="100" transform="translate(200 2000)" fill="#ADADAD"/>
<rect width="100" height="100" transform="translate(400 2000)" fill="#ADADAD"/>
<rect width="100" height="100" transform="translate(1600 2000)" fill="#ADADAD"/>
<rect width="100" height="100" transform="translate(1600 1900)" fill="#ADADAD"/>
<rect width="100" height="100" transform="translate(1700 1900)" fill="#ADADAD"/>
<rect width="100" height="100" transform="translate(1800 1900)" fill="#ADADAD"/>
<rect width="100" height="100" transform="translate(2000 2000)" fill="#ADADAD"/>
<rect width="100" height="100" transform="translate(2000 1800)" fill="#ADADAD"/>
<rect width="100" height="100" transform="translate(300 1800)" fill="#ADADAD"/>
<rect width="100" height="100" transform="translate(300 1600)" fill="#ADADAD"/>
<rect width="100" height="100" transform="translate(400 300)" fill="#ADADAD"/>
<rect width="100" height="100" transform="translate(1800 300)" fill="#ADADAD"/>
<rect width="100" height="100" transform="translate(1900 1900)" fill="#ADADAD"/>
<rect width="100" height="100" transform="translate(1900 1800)" fill="#ADADAD"/>
<rect width="100" height="100" transform="translate(1900 1700)" fill="#ADADAD"/>
<rect width="100" height="100" transform="translate(1900 1600)" fill="#ADADAD"/>
<rect width="100" height="100" transform="translate(1800 2000)" fill="#ADADAD"/>
<rect width="100" height="100" transform="translate(500 600)" fill="#C5C5C5"/>
<rect width="100" height="100" transform="translate(600 500)" fill="#C5C5C5"/>
<rect width="100" height="100" transform="translate(500 500)" fill="#C5C5C5"/>
<rect width="100" height="100" transform="translate(400 600)" fill="#C5C5C5"/>
<rect width="100" height="100" transform="translate(400 400)" fill="#C5C5C5"/>
<rect width="100" height="100" transform="translate(600 400)" fill="#C5C5C5"/>
<rect width="100" height="100" transform="translate(1600 500)" fill="#C5C5C5"/>
<rect width="100" height="100" transform="translate(1700 600)" fill="#C5C5C5"/>
<rect width="100" height="100" transform="translate(1700 500)" fill="#C5C5C5"/>
<rect width="100" height="100" transform="translate(1800 600)" fill="#C5C5C5"/>
<rect width="100" height="100" transform="translate(1800 400)" fill="#C5C5C5"/>
<rect width="100" height="100" transform="translate(1900 1300)" fill="#ADADAD"/>
<rect width="100" height="100" transform="translate(1900 500)" fill="#ADADAD"/>
<rect width="100" height="100" transform="translate(1900 1200)" fill="#ADADAD"/>
<rect width="100" height="100" transform="translate(1900 1100)" fill="#ADADAD"/>
<rect width="100" height="100" transform="translate(1900 1000)" fill="#ADADAD"/>
<rect width="100" height="100" transform="translate(1900 900)" fill="#ADADAD"/>
<rect width="100" height="100" transform="translate(1900 800)" fill="#ADADAD"/>
<rect width="100" height="100" transform="translate(1900 700)" fill="#ADADAD"/>
<rect width="100" height="100" transform="translate(1900 600)" fill="#ADADAD"/>
<rect width="100" height="100" transform="translate(2000 1200)" fill="#ADADAD"/>
<rect width="100" height="100" transform="translate(2000 1000)" fill="#ADADAD"/>
<rect width="100" height="100" transform="translate(2000 800)" fill="#ADADAD"/>
<rect width="100" height="100" transform="translate(2000 600)" fill="#ADADAD"/>
<rect width="100" height="100" transform="translate(1900 1400)" fill="#ADADAD"/>
<rect width="100" height="100" transform="translate(2000 1400)" fill="#ADADAD"/>
<rect width="100" height="100" transform="translate(1900 1500)" fill="#ADADAD"/>
<rect width="100" height="100" transform="translate(2000 1600)" fill="#ADADAD"/>
<rect width="100" height="100" transform="translate(1900 400)" fill="#ADADAD"/>
<rect width="100" height="100" transform="translate(1900 300)" fill="#ADADAD"/>
<rect width="100" height="100" transform="translate(2000 400)" fill="#ADADAD"/>
<rect width="100" height="100" transform="translate(2000 200)" fill="#ADADAD"/>
<rect width="100" height="100" transform="translate(1600 400)" fill="#C5C5C5"/>
<rect width="100" height="100" transform="translate(1500 300)" fill="#ADADAD"/>
<rect width="100" height="100" transform="translate(1300 300)" fill="#ADADAD"/>
<rect width="100" height="100" transform="translate(1100 300)" fill="#ADADAD"/>
<rect width="100" height="100" transform="translate(900 300)" fill="#ADADAD"/>
<rect width="100" height="100" transform="translate(700 300)" fill="#ADADAD"/>
<rect width="100" height="100" transform="translate(1400 300)" fill="#ADADAD"/>
<rect width="100" height="100" transform="translate(1200 300)" fill="#ADADAD"/>
<rect width="100" height="100" transform="translate(1000 300)" fill="#ADADAD"/>
<rect width="100" height="100" transform="translate(800 300)" fill="#ADADAD"/>
<rect width="100" height="100" transform="translate(1400 200)" fill="#ADADAD"/>
<rect width="100" height="100" transform="translate(1200 200)" fill="#ADADAD"/>
<rect width="100" height="100" transform="translate(1000 200)" fill="#ADADAD"/>
<rect width="100" height="100" transform="translate(800 200)" fill="#ADADAD"/>
<rect width="100" height="100" transform="translate(600 300)" fill="#ADADAD"/>
<rect width="100" height="100" transform="translate(500 300)" fill="#ADADAD"/>
<rect width="100" height="100" transform="translate(400 200)" fill="#ADADAD"/>
<rect width="100" height="100" transform="translate(600 200)" fill="#ADADAD"/>
<rect width="100" height="100" transform="translate(1600 300)" fill="#ADADAD"/>
<rect width="100" height="100" transform="translate(1700 300)" fill="#ADADAD"/>
<rect width="100" height="100" transform="translate(1600 200)" fill="#ADADAD"/>
<rect width="100" height="100" transform="translate(1800 200)" fill="#ADADAD"/>
<rect width="100" height="100" transform="translate(500 1500)" fill="#C5C5C5"/>
<rect width="100" height="100" transform="translate(500 700)" fill="#C5C5C5"/>
<rect width="100" height="100" transform="translate(500 1400)" fill="#C5C5C5"/>
<rect width="100" height="100" transform="translate(500 1300)" fill="#C5C5C5"/>
<rect width="100" height="100" transform="translate(500 1200)" fill="#C5C5C5"/>
<rect width="100" height="100" transform="translate(500 1100)" fill="#C5C5C5"/>
<rect width="100" height="100" transform="translate(500 1000)" fill="#C5C5C5"/>
<rect width="100" height="100" transform="translate(500 900)" fill="#C5C5C5"/>
<rect width="100" height="100" transform="translate(500 800)" fill="#C5C5C5"/>
<rect width="100" height="100" transform="translate(400 1400)" fill="#C5C5C5"/>
<rect width="100" height="100" transform="translate(400 1200)" fill="#C5C5C5"/>
<rect width="100" height="100" transform="translate(400 1000)" fill="#C5C5C5"/>
<rect width="100" height="100" transform="translate(400 800)" fill="#C5C5C5"/>
<rect width="100" height="100" transform="translate(300 1300)" fill="#ADADAD"/>
<rect width="100" height="100" transform="translate(300 1400)" fill="#ADADAD"/>
<rect width="100" height="100" transform="translate(300 1500)" fill="#ADADAD"/>
<rect width="100" height="100" transform="translate(200 1400)" fill="#ADADAD"/>
<rect width="100" height="100" transform="translate(200 1600)" fill="#ADADAD"/>
<rect width="100" height="100" transform="translate(300 1700)" fill="#ADADAD"/>
<rect width="100" height="100" transform="translate(200 1800)" fill="#ADADAD"/>
<rect width="100" height="100" transform="translate(300 400)" fill="#ADADAD"/>
<rect width="100" height="100" transform="translate(300 300)" fill="#ADADAD"/>
<rect width="100" height="100" transform="translate(200 400)" fill="#ADADAD"/>
<rect width="100" height="100" transform="translate(200 200)" fill="#ADADAD"/>
<rect width="100" height="100" transform="translate(300 1300)" fill="#ADADAD"/>
<rect width="100" height="100" transform="translate(300 500)" fill="#ADADAD"/>
<rect width="100" height="100" transform="translate(300 1200)" fill="#ADADAD"/>
<rect width="100" height="100" transform="translate(300 1100)" fill="#ADADAD"/>
<rect width="100" height="100" transform="translate(300 1000)" fill="#ADADAD"/>
<rect width="100" height="100" transform="translate(300 900)" fill="#ADADAD"/>
<rect width="100" height="100" transform="translate(300 800)" fill="#ADADAD"/>
<rect width="100" height="100" transform="translate(300 700)" fill="#ADADAD"/>
<rect width="100" height="100" transform="translate(300 600)" fill="#ADADAD"/>
<rect width="100" height="100" transform="translate(200 1200)" fill="#ADADAD"/>
<rect width="100" height="100" transform="translate(200 1000)" fill="#ADADAD"/>
<rect width="100" height="100" transform="translate(200 800)" fill="#ADADAD"/>
<rect width="100" height="100" transform="translate(200 600)" fill="#ADADAD"/>
<rect width="100" height="100" transform="translate(100 1900)" fill="#929292"/>
<rect width="100" height="100" transform="translate(100 2000)" fill="#929292"/>
<rect width="100" height="100" transform="translate(2.18557e-06 2000)" fill="#929292"/>
<rect width="100" height="100" transform="translate(100 1800)" fill="#929292"/>
<rect width="100" height="100" transform="translate(100 1600)" fill="#929292"/>
<rect width="100" height="100" transform="translate(100 1300)" fill="#929292"/>
<rect width="100" height="100" transform="translate(100 1400)" fill="#929292"/>
<rect width="100" height="100" transform="translate(100 1500)" fill="#929292"/>
<rect width="100" height="100" transform="translate(2.18557e-06 1400)" fill="#929292"/>
<rect width="100" height="100" transform="translate(2.18557e-06 1600)" fill="#929292"/>
<rect width="100" height="100" transform="translate(100 1700)" fill="#929292"/>
<rect width="100" height="100" transform="translate(2.18557e-06 1800)" fill="#929292"/>
<rect width="100" height="100" transform="translate(100 400)" fill="#929292"/>
<rect width="100" height="100" transform="translate(100 300)" fill="#929292"/>
<rect width="100" height="100" transform="translate(2.18557e-06 400)" fill="#929292"/>
<rect width="100" height="100" transform="translate(2.18557e-06 200)" fill="#929292"/>
<rect width="100" height="100" transform="translate(100 1300)" fill="#929292"/>
<rect width="100" height="100" transform="translate(100 500)" fill="#929292"/>
<rect width="100" height="100" transform="translate(100 1200)" fill="#929292"/>
<rect width="100" height="100" transform="translate(100 1100)" fill="#929292"/>
<rect width="100" height="100" transform="translate(100 1000)" fill="#929292"/>
<rect width="100" height="100" transform="translate(100 900)" fill="#929292"/>
<rect width="100" height="100" transform="translate(100 800)" fill="#929292"/>
<rect width="100" height="100" transform="translate(100 700)" fill="#929292"/>
<rect width="100" height="100" transform="translate(100 600)" fill="#929292"/>
<rect width="100" height="100" transform="translate(2.18557e-06 1200)" fill="#929292"/>
<rect width="100" height="100" transform="translate(2.18557e-06 1000)" fill="#929292"/>
<rect width="100" height="100" transform="translate(2.18557e-06 800)" fill="#929292"/>
<rect width="100" height="100" transform="translate(2.18557e-06 600)" fill="#929292"/>
<rect width="100" height="100" transform="translate(1700 2200) rotate(-90)" fill="#929292"/>
<rect width="100" height="100" transform="translate(1800 2300) rotate(-90)" fill="#929292"/>
<rect width="100" height="100" transform="translate(1600 2200) rotate(-90)" fill="#929292"/>
<rect width="100" height="100" transform="translate(1400 2200) rotate(-90)" fill="#929292"/>
<rect width="100" height="100" transform="translate(1100 2200) rotate(-90)" fill="#929292"/>
<rect width="100" height="100" transform="translate(1200 2200) rotate(-90)" fill="#929292"/>
<rect width="100" height="100" transform="translate(1300 2200) rotate(-90)" fill="#929292"/>
<rect width="100" height="100" transform="translate(1200 2300) rotate(-90)" fill="#929292"/>
<rect width="100" height="100" transform="translate(1400 2300) rotate(-90)" fill="#929292"/>
<rect width="100" height="100" transform="translate(1500 2200) rotate(-90)" fill="#929292"/>
<rect width="100" height="100" transform="translate(1600 2300) rotate(-90)" fill="#929292"/>
<rect width="100" height="100" transform="translate(200 2200) rotate(-90)" fill="#929292"/>
<rect width="100" height="100" transform="translate(100 2200) rotate(-90)" fill="#929292"/>
<rect width="100" height="100" transform="translate(200 2300) rotate(-90)" fill="#929292"/>
<rect width="100" height="100" transform="translate(2.18557e-06 2300) rotate(-90)" fill="#929292"/>
<rect width="100" height="100" transform="translate(400 100) rotate(90)" fill="#929292"/>
<rect width="100" height="100" transform="translate(300 100) rotate(90)" fill="#929292"/>
<rect width="100" height="100" transform="translate(300) rotate(90)" fill="#929292"/>
<rect width="100" height="100" transform="translate(500 100) rotate(90)" fill="#929292"/>
<rect width="100" height="100" transform="translate(700 100) rotate(90)" fill="#929292"/>
<rect width="100" height="100" transform="translate(1000 100) rotate(90)" fill="#929292"/>
<rect width="100" height="100" transform="translate(900 100) rotate(90)" fill="#929292"/>
<rect width="100" height="100" transform="translate(800 100) rotate(90)" fill="#929292"/>
<rect width="100" height="100" transform="translate(900) rotate(90)" fill="#929292"/>
<rect width="100" height="100" transform="translate(700) rotate(90)" fill="#929292"/>
<rect width="100" height="100" transform="translate(600 100) rotate(90)" fill="#929292"/>
<rect width="100" height="100" transform="translate(500) rotate(90)" fill="#929292"/>
<rect width="100" height="100" transform="translate(1900 100) rotate(90)" fill="#929292"/>
<rect width="100" height="100" transform="translate(2000 100) rotate(90)" fill="#929292"/>
<rect width="100" height="100" transform="translate(1900) rotate(90)" fill="#929292"/>
<rect width="100" height="100" transform="translate(2100) rotate(90)" fill="#929292"/>
<rect width="100" height="100" transform="translate(2100 100) rotate(90)" fill="#929292"/>
<rect width="100" height="100" transform="translate(1900 2100) rotate(90)" fill="#929292"/>
<rect width="100" height="100" transform="translate(2000 2100) rotate(90)" fill="#929292"/>
<rect width="100" height="100" transform="translate(2100 2100) rotate(90)" fill="#929292"/>
<rect width="100" height="100" transform="translate(2200 2100) rotate(90)" fill="#929292"/>
<rect width="100" height="100" transform="translate(2100 2200) rotate(90)" fill="#929292"/>
<rect width="100" height="100" transform="translate(2300 2200) rotate(90)" fill="#929292"/>
<rect width="100" height="100" transform="translate(2200 2000) rotate(90)" fill="#929292"/>
<rect width="100" height="100" transform="translate(1000 100) rotate(90)" fill="#929292"/>
<rect width="100" height="100" transform="translate(1800 100) rotate(90)" fill="#929292"/>
<rect width="100" height="100" transform="translate(1100 100) rotate(90)" fill="#929292"/>
<rect width="100" height="100" transform="translate(1200 100) rotate(90)" fill="#929292"/>
<rect width="100" height="100" transform="translate(1300 100) rotate(90)" fill="#929292"/>
<rect width="100" height="100" transform="translate(1400 100) rotate(90)" fill="#929292"/>
<rect width="100" height="100" transform="translate(1500 100) rotate(90)" fill="#929292"/>
<rect width="100" height="100" transform="translate(1600 100) rotate(90)" fill="#929292"/>
<rect width="100" height="100" transform="translate(1700 100) rotate(90)" fill="#929292"/>
<rect width="100" height="100" transform="translate(1100) rotate(90)" fill="#929292"/>
<rect width="100" height="100" transform="translate(1300) rotate(90)" fill="#929292"/>
<rect width="100" height="100" transform="translate(1500) rotate(90)" fill="#929292"/>
<rect width="100" height="100" transform="translate(1700) rotate(90)" fill="#929292"/>
<rect width="100" height="100" transform="translate(100 100)" fill="#929292"/>
<rect width="100" height="100" transform="translate(100 200)" fill="#929292"/>
<rect width="100" height="100" fill="#929292"/>
<rect width="100" height="100" transform="translate(2200 400) rotate(-180)" fill="#929292"/>
<rect width="100" height="100" transform="translate(2200 300) rotate(-180)" fill="#929292"/>
<rect width="100" height="100" transform="translate(2300 300) rotate(-180)" fill="#929292"/>
<rect width="100" height="100" transform="translate(2200 500) rotate(-180)" fill="#929292"/>
<rect width="100" height="100" transform="translate(2200 700) rotate(-180)" fill="#929292"/>
<rect width="100" height="100" transform="translate(2200 1000) rotate(-180)" fill="#929292"/>
<rect width="100" height="100" transform="translate(2200 900) rotate(-180)" fill="#929292"/>
<rect width="100" height="100" transform="translate(2200 800) rotate(-180)" fill="#929292"/>
<rect width="100" height="100" transform="translate(2300 900) rotate(-180)" fill="#929292"/>
<rect width="100" height="100" transform="translate(2300 700) rotate(-180)" fill="#929292"/>
<rect width="100" height="100" transform="translate(2200 600) rotate(-180)" fill="#929292"/>
<rect width="100" height="100" transform="translate(2300 500) rotate(-180)" fill="#929292"/>
<rect width="100" height="100" transform="translate(2200 1900) rotate(-180)" fill="#929292"/>
<rect width="100" height="100" transform="translate(2200 2000) rotate(-180)" fill="#929292"/>
<rect width="100" height="100" transform="translate(2300 1900) rotate(-180)" fill="#929292"/>
<rect width="100" height="100" transform="translate(2300 2100) rotate(-180)" fill="#929292"/>
<rect width="100" height="100" transform="translate(2200 1000) rotate(-180)" fill="#929292"/>
<rect width="100" height="100" transform="translate(2200 1800) rotate(-180)" fill="#929292"/>
<rect width="100" height="100" transform="translate(2200 1100) rotate(-180)" fill="#929292"/>
<rect width="100" height="100" transform="translate(2200 1200) rotate(-180)" fill="#929292"/>
<rect width="100" height="100" transform="translate(2200 1300) rotate(-180)" fill="#929292"/>
<rect width="100" height="100" transform="translate(2200 1400) rotate(-180)" fill="#929292"/>
<rect width="100" height="100" transform="translate(2200 1500) rotate(-180)" fill="#929292"/>
<rect width="100" height="100" transform="translate(2200 1600) rotate(-180)" fill="#929292"/>
<rect width="100" height="100" transform="translate(2200 1700) rotate(-180)" fill="#929292"/>
<rect width="100" height="100" transform="translate(2300 1100) rotate(-180)" fill="#929292"/>
<rect width="100" height="100" transform="translate(2300 1300) rotate(-180)" fill="#929292"/>
<rect width="100" height="100" transform="translate(2300 1500) rotate(-180)" fill="#929292"/>
<rect width="100" height="100" transform="translate(2300 1700) rotate(-180)" fill="#929292"/>
<rect width="100" height="100" transform="translate(2200 100) rotate(90)" fill="#929292"/>
<rect width="100" height="100" transform="translate(2300) rotate(90)" fill="#929292"/>
<rect width="100" height="100" transform="translate(1100 2200) rotate(-90)" fill="#929292"/>
<rect width="100" height="100" transform="translate(300 2200) rotate(-90)" fill="#929292"/>
<rect width="100" height="100" transform="translate(1000 2200) rotate(-90)" fill="#929292"/>
<rect width="100" height="100" transform="translate(900 2200) rotate(-90)" fill="#929292"/>
<rect width="100" height="100" transform="translate(800 2200) rotate(-90)" fill="#929292"/>
<rect width="100" height="100" transform="translate(700 2200) rotate(-90)" fill="#929292"/>
<rect width="100" height="100" transform="translate(600 2200) rotate(-90)" fill="#929292"/>
<rect width="100" height="100" transform="translate(500 2200) rotate(-90)" fill="#929292"/>
<rect width="100" height="100" transform="translate(400 2200) rotate(-90)" fill="#929292"/>
<rect width="100" height="100" transform="translate(1000 2300) rotate(-90)" fill="#929292"/>
<rect width="100" height="100" transform="translate(800 2300) rotate(-90)" fill="#929292"/>
<rect width="100" height="100" transform="translate(600 2300) rotate(-90)" fill="#929292"/>
<rect width="100" height="100" transform="translate(400 2300) rotate(-90)" fill="#929292"/>
<rect width="100" height="100" transform="translate(1400 1200)" fill="#DEDEDE"/>
<rect width="100" height="100" transform="translate(1400 1000)" fill="#DEDEDE"/>
<rect width="100" height="100" transform="translate(1400 800)" fill="#DEDEDE"/>
<rect width="100" height="100" transform="translate(1200 800)" fill="#DEDEDE"/>
<rect width="100" height="100" transform="translate(1000 800)" fill="#DEDEDE"/>
<rect width="100" height="100" transform="translate(800 800)" fill="#DEDEDE"/>
<rect width="100" height="100" transform="translate(800 1000)" fill="#DEDEDE"/>
<rect width="100" height="100" transform="translate(800 1200)" fill="#DEDEDE"/>
<rect width="100" height="100" transform="translate(800 1400)" fill="#DEDEDE"/>
<rect width="100" height="100" transform="translate(1000 1400)" fill="#DEDEDE"/>
<rect width="100" height="100" transform="translate(1200 1400)" fill="#DEDEDE"/>
<rect width="100" height="100" transform="translate(1200 1100)" fill="#EEEEEE"/>
<rect width="100" height="100" transform="translate(1200 1000)" fill="#EEEEEE"/>
<rect width="100" height="100" transform="translate(1100 1000)" fill="#EEEEEE"/>
<rect width="100" height="100" transform="translate(1000 1000)" fill="#EEEEEE"/>
<rect width="100" height="100" transform="translate(1000 1100)" fill="#EEEEEE"/>
<rect width="100" height="100" transform="translate(1000 1200)" fill="#EEEEEE"/>
</g>
</svg>
