<svg width="1004" height="403" viewBox="0 0 1004 403" fill="none" xmlns="http://www.w3.org/2000/svg">
<path d="M428.281 90.3164L585.898 363.316H270.665L428.281 90.3164Z" transform="translate(0.71875 0.683594)" fill="white"/>
<path d="M236.064 11.3672H255.781C259.668 11.3672 262.803 11.8945 265.186 12.9492C267.588 14.0039 269.57 15.5176 271.133 17.4902C272.695 19.4629 273.828 21.7578 274.531 24.375C275.234 26.9922 275.586 29.7656 275.586 32.6953C275.586 37.2852 275.059 40.8496 274.004 43.3887C272.969 45.9082 271.523 48.0273 269.668 49.7461C267.812 51.4453 265.82 52.5781 263.691 53.1445C260.781 53.9258 258.145 54.3164 255.781 54.3164H236.064V11.3672ZM249.336 21.0938V44.5605H252.588C255.361 44.5605 257.334 44.2578 258.506 43.6523C259.678 43.0273 260.596 41.9531 261.26 40.4297C261.924 38.8867 262.256 36.3965 262.256 32.959C262.256 28.4082 261.514 25.293 260.029 23.6133C258.545 21.9336 256.084 21.0938 252.646 21.0938H249.336Z" transform="translate(0.71875 0.683594)" fill="white"/>
<path d="M282.559 11.3672H318.125V20.5371H295.859V27.3633H316.514V36.123H295.859V44.5898H318.77V54.3164H282.559V11.3672Z" transform="translate(0.71875 0.683594)" fill="white"/>
<path d="M323.633 40.1074L336.26 39.3164C336.533 41.3672 337.09 42.9297 337.93 44.0039C339.297 45.7422 341.25 46.6113 343.789 46.6113C345.684 46.6113 347.139 46.1719 348.154 45.293C349.189 44.3945 349.707 43.3594 349.707 42.1875C349.707 41.0742 349.219 40.0781 348.242 39.1992C347.266 38.3203 345 37.4902 341.445 36.709C335.625 35.4004 331.475 33.6621 328.994 31.4941C326.494 29.3262 325.244 26.5625 325.244 23.2031C325.244 20.9961 325.879 18.916 327.148 16.9629C328.438 14.9902 330.361 13.4473 332.92 12.334C335.498 11.2012 339.023 10.6348 343.496 10.6348C348.984 10.6348 353.164 11.6602 356.035 13.7109C358.926 15.7422 360.645 18.9844 361.191 23.4375L348.682 24.1699C348.35 22.2363 347.646 20.8301 346.572 19.9512C345.518 19.0723 344.053 18.6328 342.178 18.6328C340.635 18.6328 339.473 18.9648 338.691 19.6289C337.91 20.2734 337.52 21.0645 337.52 22.002C337.52 22.6855 337.842 23.3008 338.486 23.8477C339.111 24.4141 340.596 24.9414 342.939 25.4297C348.74 26.6797 352.891 27.9492 355.391 29.2383C357.91 30.5078 359.736 32.0898 360.869 33.9844C362.021 35.8789 362.598 37.998 362.598 40.3418C362.598 43.0957 361.836 45.6348 360.312 47.959C358.789 50.2832 356.66 52.0508 353.926 53.2617C351.191 54.4531 347.744 55.0488 343.584 55.0488C336.279 55.0488 331.221 53.6426 328.408 50.8301C325.596 48.0176 324.004 44.4434 323.633 40.1074Z" transform="translate(0.71875 0.683594)" fill="white"/>
<path d="M369.277 11.3672H404.844V20.5371H382.578V27.3633H403.232V36.123H382.578V44.5898H405.488V54.3164H369.277V11.3672Z" transform="translate(0.71875 0.683594)" fill="white"/>
<path d="M430.537 11.3672H443.838V34.7168C443.838 39.6191 443.398 43.3496 442.52 45.9082C441.66 48.4668 439.912 50.6348 437.275 52.4121C434.658 54.1895 431.299 55.0781 427.197 55.0781C422.861 55.0781 419.502 54.4922 417.119 53.3203C414.736 52.1484 412.891 50.4395 411.582 48.1934C410.293 45.9277 409.531 43.1348 409.297 39.8145L421.982 38.0859C422.002 39.9805 422.168 41.3867 422.48 42.3047C422.793 43.2227 423.32 43.9648 424.062 44.5312C424.57 44.9023 425.293 45.0879 426.23 45.0879C427.715 45.0879 428.799 44.541 429.482 43.4473C430.186 42.334 430.537 40.4688 430.537 37.8516V11.3672Z" transform="translate(0.71875 0.683594)" fill="white"/>
<path d="M479.111 47.2266H463.994L461.914 54.3164H448.35L464.492 11.3672H478.965L495.107 54.3164H481.221L479.111 47.2266ZM476.328 37.9395L471.582 22.5L466.865 37.9395H476.328ZM471.348 0H481.602L472.139 8.75977H466.426L471.348 0Z" transform="translate(0.71875 0.683594)" fill="white"/>
<path d="M495.137 11.3672H509.023L518.691 42.2754L528.213 11.3672H541.689L525.752 54.3164H511.367L495.137 11.3672Z" transform="translate(0.71875 0.683594)" fill="white"/>
<path d="M546.055 11.3672H581.621V20.5371H559.355V27.3633H580.01V36.123H559.355V44.5898H582.266V54.3164H546.055V11.3672Z" transform="translate(0.71875 0.683594)" fill="white"/>
<path d="M589.443 11.3672H602.715V43.7402H623.428V54.3164H589.443V11.3672Z" transform="translate(0.71875 0.683594)" fill="white"/>
<path d="M0 354.367H13.8867L23.5547 385.275L33.0762 354.367H46.5527L30.6152 397.316H16.2305L0 354.367Z" transform="translate(0.71875 0.683594)" fill="white"/>
<path d="M51.4746 354.367H64.7754V397.316H51.4746V354.367Z" transform="translate(0.71875 0.683594)" fill="white"/>
<path d="M100.752 390.227H85.6348L83.5547 397.316H69.9902L86.1328 354.367H100.605L116.748 397.316H102.861L100.752 390.227ZM97.9688 380.939L93.2227 365.5L88.5059 380.939H97.9688ZM92.9883 343H103.242L93.7793 351.76H88.0664L92.9883 343Z" transform="translate(0.71875 0.683594)" fill="white"/>
<path d="M116.777 354.367H130.664L140.332 385.275L149.854 354.367H163.33L147.393 397.316H133.008L116.777 354.367Z" transform="translate(0.71875 0.683594)" fill="white"/>
<path d="M167.695 354.367H203.262V363.537H180.996V370.363H201.65V379.123H180.996V387.59H203.906V397.316H167.695V354.367Z" transform="translate(0.71875 0.683594)" fill="white"/>
<path d="M211.084 354.367H224.355V386.74H245.068V397.316H211.084V354.367Z" transform="translate(0.71875 0.683594)" fill="white"/>
<path d="M621.729 354.367H657.295V363.537H635.029V370.363H655.684V379.123H635.029V387.59H657.939V397.316H621.729V354.367Z" transform="translate(0.71875 0.683594)" fill="white"/>
<path d="M662.158 354.367H676.777L684.395 367.58L691.777 354.367H706.25L692.891 375.168L707.51 397.316H692.598L684.131 383.518L675.635 397.316H660.811L675.635 374.934L662.158 354.367Z" transform="translate(0.71875 0.683594)" fill="white"/>
<path d="M711.787 354.367H747.354V363.537H725.088V370.363H745.742V379.123H725.088V387.59H747.998V397.316H711.787V354.367Z" transform="translate(0.71875 0.683594)" fill="white"/>
<path d="M793.32 391.047C794.98 392.199 796.064 392.922 796.572 393.215C797.334 393.645 798.359 394.143 799.648 394.709L795.957 402.15C794.102 401.252 792.266 400.178 790.449 398.928C788.633 397.697 787.363 396.77 786.641 396.145C783.711 397.414 780.039 398.049 775.625 398.049C769.102 398.049 763.955 396.35 760.186 392.951C755.732 388.928 753.506 383.273 753.506 375.988C753.506 368.918 755.449 363.43 759.336 359.523C763.242 355.598 768.691 353.635 775.684 353.635C782.812 353.635 788.311 355.549 792.178 359.377C796.064 363.205 798.008 368.684 798.008 375.812C798.008 382.16 796.445 387.238 793.32 391.047ZM783.154 384.25C784.209 382.355 784.736 379.523 784.736 375.754C784.736 371.418 783.926 368.322 782.305 366.467C780.703 364.611 778.486 363.684 775.654 363.684C773.018 363.684 770.879 364.631 769.238 366.525C767.598 368.42 766.777 371.379 766.777 375.402C766.777 380.09 767.578 383.381 769.18 385.275C770.781 387.17 772.979 388.117 775.771 388.117C776.67 388.117 777.52 388.029 778.32 387.854C777.207 386.779 775.449 385.764 773.047 384.807L775.127 380.031C776.299 380.246 777.207 380.51 777.852 380.822C778.516 381.135 779.795 381.955 781.689 383.283C782.139 383.596 782.627 383.918 783.154 384.25Z" transform="translate(0.71875 0.683594)" fill="white"/>
<path d="M833.105 354.367H846.348V379.973C846.348 382.512 845.947 384.914 845.146 387.18C844.365 389.426 843.125 391.398 841.426 393.098C839.746 394.777 837.979 395.959 836.123 396.643C833.545 397.6 830.449 398.078 826.836 398.078C824.746 398.078 822.461 397.932 819.98 397.639C817.52 397.346 815.459 396.77 813.799 395.91C812.139 395.031 810.615 393.791 809.229 392.189C807.861 390.588 806.924 388.938 806.416 387.238C805.596 384.504 805.186 382.082 805.186 379.973V354.367H818.428V380.588C818.428 382.932 819.072 384.768 820.361 386.096C821.67 387.404 823.477 388.059 825.781 388.059C828.066 388.059 829.854 387.414 831.143 386.125C832.451 384.816 833.105 382.971 833.105 380.588V354.367Z" transform="translate(0.71875 0.683594)" fill="white"/>
<path d="M855.664 354.367H868.965V397.316H855.664V354.367ZM862.139 343H872.393L862.93 351.76H857.217L862.139 343Z" transform="translate(0.71875 0.683594)" fill="white"/>
<path d="M874.268 354.367H888.154L897.822 385.275L907.344 354.367H920.82L904.883 397.316H890.498L874.268 354.367Z" transform="translate(0.71875 0.683594)" fill="white"/>
<path d="M925.186 354.367H960.752V363.537H938.486V370.363H959.141V379.123H938.486V387.59H961.396V397.316H925.186V354.367Z" transform="translate(0.71875 0.683594)" fill="white"/>
<path d="M968.574 354.367H981.846V386.74H1002.56V397.316H968.574V354.367Z" transform="translate(0.71875 0.683594)" fill="white"/>
</svg>
