<svg width="3520" height="1520" viewBox="0 0 3520 1520" fill="none" xmlns="http://www.w3.org/2000/svg">
<g clip-path="url(#clip0)">
<rect x="-369" y="-157" width="4465" height="1997" fill="#EEEEEE"/>
<rect x="152.8" y="1190.35" width="528" height="208" transform="rotate(-22.4737 152.8 1190.35)" fill="#C4C4C4"/>
<rect x="733.972" y="1213.98" width="490" height="208" transform="rotate(-22.4737 733.972 1213.98)" fill="#FEC532"/>
<rect x="2709.6" y="396.713" width="854" height="208" transform="rotate(-22.4737 2709.6 396.713)" fill="#C4C4C4"/>
<rect x="828.773" y="1443.15" width="1252" height="208" transform="rotate(-22.4737 828.773 1443.15)" fill="#C4C4C4"/>
<rect x="58" y="961.18" width="1252" height="208" transform="rotate(-22.4737 58 961.18)" fill="#126EF9"/>
<rect x="-459.508" y="138.692" width="5306.84" height="881.647" transform="rotate(-22.4737 -459.508 138.692)" fill="#CB12F9"/>
<rect x="1376.36" y="1485.01" width="1648" height="208" transform="rotate(-22.4737 1376.36 1485.01)" fill="#EC0202"/>
<rect x="2156.81" y="1430.54" width="1272" height="208" transform="rotate(-22.4737 2156.81 1430.54)" fill="#C4C4C4"/>
<rect x="1782.33" y="472.963" width="1648" height="208" transform="rotate(-22.4737 1782.33 472.963)" fill="#36BC07"/>
<rect x="1220" y="2126.59" width="5306.84" height="881.647" transform="rotate(-22.4737 1220 2126.59)" fill="#CB12F9"/>
</g>
<defs>
<clipPath id="clip0">
<rect width="3520" height="1520" fill="white"/>
</clipPath>
</defs>
</svg>
