<svg width="442" height="443" viewBox="0 0 442 443" version="1.1" xmlns="http://www.w3.org/2000/svg" xmlns:xlink="http://www.w3.org/1999/xlink">
<title>Component</title>
<desc>Created using Figma</desc>
<g id="Canvas" transform="translate(258 -504)">
<g id="Component">
<g id="Vector">
<use xlink:href="#path0_stroke" transform="translate(-198 550.5)"/>
</g>
<g id="Vector">
<use xlink:href="#path0_stroke" transform="translate(-198 620.5)"/>
</g>
<g id="Vector">
<use xlink:href="#path0_stroke" transform="translate(-198 690.5)"/>
</g>
<g id="Vector">
<use xlink:href="#path0_stroke" transform="translate(-198 760.5)"/>
</g>
<g id="Vector">
<use xlink:href="#path0_stroke" transform="translate(-198 830.5)"/>
</g>
<g id="Montagem">
<use xlink:href="#path1_fill" transform="translate(-259 914)"/>
</g>
<g id="Produ&#195;&#167;&#195;&#163;o">
<use xlink:href="#path2_fill" transform="translate(97 506)"/>
</g>
<g id="Prop&#195;&#179;sito / Fun&#195;&#167;&#195;&#163;o">
<use xlink:href="#path3_fill" transform="translate(-138 566)"/>
</g>
<g id="Layout">
<use xlink:href="#path4_fill" transform="translate(-147 706)"/>
</g>
<g id="C&#195;&#179;digo Front-End">
<use xlink:href="#path5_fill" transform="translate(-147 777)"/>
</g>
<g id="C&#195;&#179;digo Back-End">
<use xlink:href="#path6_fill" transform="translate(-147 846)"/>
</g>
<g id="Conte&#195;&#186;do">
<use xlink:href="#path7_fill" transform="translate(-106 637)"/>
</g>
<g id="Line 3">
<use xlink:href="#path8_stroke" transform="matrix(6.12323e-17 -1 1 6.12323e-17 -223 900)"/>
</g>
<g id="Line 4">
<use xlink:href="#path9_stroke" transform="matrix(-0.707107 0.707107 -0.707107 -0.707107 -224 530)"/>
</g>
<g id="Line 5">
<use xlink:href="#path9_stroke" transform="matrix(0.707107 0.707107 -0.707107 0.707107 -224 530)"/>
</g>
<g id="Line 3">
<use xlink:href="#path8_stroke" transform="matrix(6.12323e-17 -1 1 6.12323e-17 137 900)"/>
</g>
<g id="Line 4">
<use xlink:href="#path9_stroke" transform="matrix(0.707107 -0.707107 0.707107 0.707107 137 900)"/>
</g>
<g id="Line 5">
<use xlink:href="#path9_stroke" transform="matrix(-0.707107 -0.707107 0.707107 -0.707107 137 900)"/>
</g>
<g id="Line 6">
<use xlink:href="#path10_stroke" transform="matrix(6.12323e-17 1 -1 6.12323e-17 -199 576)"/>
</g>
<g id="Line 6">
<use xlink:href="#path11_stroke" transform="matrix(6.12323e-17 1 -1 6.12323e-17 -147 526)"/>
</g>
<g id="Line 6">
<use xlink:href="#path12_stroke" transform="matrix(6.12323e-17 1 -1 6.12323e-17 -147 602)"/>
</g>
<g id="Line 6">
<use xlink:href="#path12_stroke" transform="matrix(6.12323e-17 1 -1 6.12323e-17 -147 672)"/>
</g>
<g id="Line 6">
<use xlink:href="#path12_stroke" transform="matrix(6.12323e-17 1 -1 6.12323e-17 -147 742)"/>
</g>
<g id="Line 6">
<use xlink:href="#path12_stroke" transform="matrix(6.12323e-17 1 -1 6.12323e-17 -147 812)"/>
</g>
<g id="Line 6">
<use xlink:href="#path13_stroke" transform="matrix(6.12323e-17 1 -1 6.12323e-17 113 526)"/>
</g>
<g id="Line 6">
<use xlink:href="#path10_stroke" transform="matrix(6.12323e-17 1 -1 6.12323e-17 61 576)"/>
</g>
</g>
</g>
<defs>
<path id="path0_stroke" d="M 0 51.5L -0.353553 51.1464L -1.20711 52L 0 52L 0 51.5ZM 51.5 0L 51.5 -0.5L 51.2929 -0.5L 51.1464 -0.353553L 51.5 0ZM 310 0L 310.354 0.353553L 311.207 -0.5L 310 -0.5L 310 0ZM 258.5 51.5L 258.5 52L 258.707 52L 258.854 51.8536L 258.5 51.5ZM 0.353553 51.8536L 51.8536 0.353553L 51.1464 -0.353553L -0.353553 51.1464L 0.353553 51.8536ZM 51.5 0.5L 310 0.5L 310 -0.5L 51.5 -0.5L 51.5 0.5ZM 309.646 -0.353553L 258.146 51.1464L 258.854 51.8536L 310.354 0.353553L 309.646 -0.353553ZM 258.5 51L 0 51L 0 52L 258.5 52L 258.5 51Z"/>
<path id="path1_fill" d="M 2.85059 3.04688L 6.10449 11.168L 9.3584 3.04688L 11.0605 3.04688L 11.0605 13L 9.74805 13L 9.74805 9.12402L 9.87109 4.94043L 6.60352 13L 5.59863 13L 2.33789 4.96094L 2.46777 9.12402L 2.46777 13L 1.15527 13L 1.15527 3.04688L 2.85059 3.04688ZM 12.8447 9.2334C 12.8447 8.50879 12.986 7.8571 13.2686 7.27832C 13.5557 6.69954 13.9521 6.25293 14.458 5.93848C 14.9684 5.62402 15.5495 5.4668 16.2012 5.4668C 17.2083 5.4668 18.0218 5.81543 18.6416 6.5127C 19.266 7.20996 19.5781 8.13737 19.5781 9.29492L 19.5781 9.38379C 19.5781 10.1038 19.4391 10.751 19.1611 11.3252C 18.8877 11.8949 18.4935 12.3392 17.9785 12.6582C 17.4681 12.9772 16.8802 13.1367 16.2148 13.1367C 15.2122 13.1367 14.3988 12.7881 13.7744 12.0908C 13.1546 11.3936 12.8447 10.4707 12.8447 9.32227L 12.8447 9.2334ZM 14.1162 9.38379C 14.1162 10.2041 14.3053 10.8626 14.6836 11.3594C 15.0664 11.8561 15.5768 12.1045 16.2148 12.1045C 16.8574 12.1045 17.3678 11.8538 17.7461 11.3525C 18.1243 10.8467 18.3135 10.1403 18.3135 9.2334C 18.3135 8.4222 18.1198 7.76595 17.7324 7.26465C 17.3496 6.75879 16.8392 6.50586 16.2012 6.50586C 15.5768 6.50586 15.0732 6.75423 14.6904 7.25098C 14.3076 7.74772 14.1162 8.45866 14.1162 9.38379ZM 22.3604 5.60352L 22.4014 6.5332C 22.9665 5.82227 23.7048 5.4668 24.6162 5.4668C 26.1794 5.4668 26.9678 6.34863 26.9814 8.1123L 26.9814 13L 25.7168 13L 25.7168 8.10547C 25.7122 7.57227 25.5892 7.17806 25.3477 6.92285C 25.1107 6.66764 24.7393 6.54004 24.2334 6.54004C 23.8232 6.54004 23.4632 6.64941 23.1533 6.86816C 22.8434 7.08691 22.6019 7.37402 22.4287 7.72949L 22.4287 13L 21.1641 13L 21.1641 5.60352L 22.3604 5.60352ZM 30.6045 3.8125L 30.6045 5.60352L 31.9854 5.60352L 31.9854 6.58105L 30.6045 6.58105L 30.6045 11.168C 30.6045 11.4642 30.666 11.6875 30.7891 11.8379C 30.9121 11.9837 31.1217 12.0566 31.418 12.0566C 31.5638 12.0566 31.7643 12.0293 32.0195 11.9746L 32.0195 13C 31.6868 13.0911 31.3633 13.1367 31.0488 13.1367C 30.4837 13.1367 30.0576 12.9658 29.7705 12.624C 29.4834 12.2822 29.3398 11.7969 29.3398 11.168L 29.3398 6.58105L 27.9932 6.58105L 27.9932 5.60352L 29.3398 5.60352L 29.3398 3.8125L 30.6045 3.8125ZM 38.0352 13C 37.9622 12.8542 37.903 12.5944 37.8574 12.2207C 37.2695 12.8314 36.5677 13.1367 35.752 13.1367C 35.0228 13.1367 34.4235 12.9316 33.9541 12.5215C 33.4893 12.1068 33.2568 11.5827 33.2568 10.9492C 33.2568 10.179 33.5485 9.58203 34.1318 9.1582C 34.7197 8.72982 35.5446 8.51562 36.6064 8.51562L 37.8369 8.51562L 37.8369 7.93457C 37.8369 7.49251 37.7048 7.1416 37.4404 6.88184C 37.1761 6.61751 36.7865 6.48535 36.2715 6.48535C 35.8203 6.48535 35.4421 6.59928 35.1367 6.82715C 34.8314 7.05501 34.6787 7.33073 34.6787 7.6543L 33.4072 7.6543C 33.4072 7.28516 33.5371 6.92969 33.7969 6.58789C 34.0612 6.24154 34.4167 5.9681 34.8633 5.76758C 35.3145 5.56706 35.8089 5.4668 36.3467 5.4668C 37.1989 5.4668 37.8665 5.68099 38.3496 6.10938C 38.8327 6.5332 39.0833 7.11882 39.1016 7.86621L 39.1016 11.2705C 39.1016 11.9495 39.1882 12.4896 39.3613 12.8906L 39.3613 13L 38.0352 13ZM 35.9365 12.0361C 36.333 12.0361 36.709 11.9336 37.0645 11.7285C 37.4199 11.5234 37.6774 11.2568 37.8369 10.9287L 37.8369 9.41113L 36.8457 9.41113C 35.2962 9.41113 34.5215 9.86458 34.5215 10.7715C 34.5215 11.168 34.6536 11.4779 34.918 11.7012C 35.1823 11.9245 35.5218 12.0361 35.9365 12.0361ZM 40.7832 9.24023C 40.7832 8.08724 41.0498 7.17122 41.583 6.49219C 42.1162 5.80859 42.8226 5.4668 43.7021 5.4668C 44.6045 5.4668 45.3086 5.78581 45.8145 6.42383L 45.876 5.60352L 47.0312 5.60352L 47.0312 12.8223C 47.0312 13.7793 46.7464 14.5335 46.1768 15.085C 45.6117 15.6364 44.8506 15.9121 43.8936 15.9121C 43.3604 15.9121 42.8385 15.7982 42.3281 15.5703C 41.8177 15.3424 41.4281 15.0303 41.1592 14.6338L 41.8154 13.875C 42.3577 14.5449 43.0208 14.8799 43.8047 14.8799C 44.4199 14.8799 44.8984 14.7067 45.2402 14.3604C 45.5866 14.014 45.7598 13.5264 45.7598 12.8975L 45.7598 12.2617C 45.2539 12.8451 44.5635 13.1367 43.6885 13.1367C 42.8226 13.1367 42.1208 12.7881 41.583 12.0908C 41.0498 11.3936 40.7832 10.4434 40.7832 9.24023ZM 42.0547 9.38379C 42.0547 10.2178 42.2256 10.874 42.5674 11.3525C 42.9092 11.8265 43.3877 12.0635 44.0029 12.0635C 44.8005 12.0635 45.3861 11.7012 45.7598 10.9766L 45.7598 7.59961C 45.3724 6.89323 44.7913 6.54004 44.0166 6.54004C 43.4014 6.54004 42.9206 6.7793 42.5742 7.25781C 42.2279 7.73633 42.0547 8.44499 42.0547 9.38379ZM 52.0146 13.1367C 51.012 13.1367 50.1963 12.8086 49.5674 12.1523C 48.9385 11.4915 48.624 10.6097 48.624 9.50684L 48.624 9.27441C 48.624 8.54069 48.763 7.88672 49.041 7.3125C 49.3236 6.73372 49.7155 6.28255 50.2168 5.95898C 50.7227 5.63086 51.2695 5.4668 51.8574 5.4668C 52.819 5.4668 53.5664 5.78353 54.0996 6.41699C 54.6328 7.05046 54.8994 7.95736 54.8994 9.1377L 54.8994 9.66406L 49.8887 9.66406C 49.9069 10.3932 50.1188 10.9834 50.5244 11.4346C 50.9346 11.8812 51.4541 12.1045 52.083 12.1045C 52.5296 12.1045 52.9079 12.0133 53.2178 11.8311C 53.5277 11.6488 53.7988 11.4072 54.0312 11.1064L 54.8037 11.708C 54.1839 12.6605 53.2542 13.1367 52.0146 13.1367ZM 51.8574 6.50586C 51.347 6.50586 50.9186 6.69271 50.5723 7.06641C 50.2259 7.43555 50.0117 7.95508 49.9297 8.625L 53.6348 8.625L 53.6348 8.5293C 53.5983 7.88672 53.4251 7.38997 53.1152 7.03906C 52.8053 6.68359 52.3861 6.50586 51.8574 6.50586ZM 57.5586 5.60352L 57.5928 6.42383C 58.1351 5.78581 58.8665 5.4668 59.7871 5.4668C 60.8216 5.4668 61.5257 5.86328 61.8994 6.65625C 62.1455 6.30078 62.4645 6.01367 62.8564 5.79492C 63.2529 5.57617 63.7201 5.4668 64.2578 5.4668C 65.8802 5.4668 66.7051 6.32585 66.7324 8.04395L 66.7324 13L 65.4678 13L 65.4678 8.11914C 65.4678 7.59049 65.347 7.19629 65.1055 6.93652C 64.8639 6.6722 64.4583 6.54004 63.8887 6.54004C 63.4193 6.54004 63.0296 6.68132 62.7197 6.96387C 62.4098 7.24186 62.2298 7.61784 62.1797 8.0918L 62.1797 13L 60.9082 13L 60.9082 8.15332C 60.9082 7.0778 60.3818 6.54004 59.3291 6.54004C 58.4997 6.54004 57.9323 6.89323 57.627 7.59961L 57.627 13L 56.3623 13L 56.3623 5.60352L 57.5586 5.60352Z"/>
<path id="path2_fill" d="M 11.9785 9.10352L 11.9785 13L 10.666 13L 10.666 3.04688L 14.3369 3.04688C 15.4261 3.04688 16.2783 3.32487 16.8936 3.88086C 17.5133 4.43685 17.8232 5.17285 17.8232 6.08887C 17.8232 7.05501 17.5202 7.80013 16.9141 8.32422C 16.3125 8.84375 15.4489 9.10352 14.3232 9.10352L 11.9785 9.10352ZM 11.9785 8.03027L 14.3369 8.03027C 15.0387 8.03027 15.5765 7.86621 15.9502 7.53809C 16.3239 7.2054 16.5107 6.72689 16.5107 6.10254C 16.5107 5.51009 16.3239 5.03613 15.9502 4.68066C 15.5765 4.3252 15.0638 4.14062 14.4121 4.12695L 11.9785 4.12695L 11.9785 8.03027ZM 22.875 6.73828C 22.6836 6.70638 22.4762 6.69043 22.2529 6.69043C 21.4235 6.69043 20.8607 7.04362 20.5645 7.75L 20.5645 13L 19.2998 13L 19.2998 5.60352L 20.5303 5.60352L 20.5508 6.45801C 20.9655 5.7972 21.5534 5.4668 22.3145 5.4668C 22.5605 5.4668 22.7474 5.4987 22.875 5.5625L 22.875 6.73828ZM 23.5723 9.2334C 23.5723 8.50879 23.7135 7.8571 23.9961 7.27832C 24.2832 6.69954 24.6797 6.25293 25.1855 5.93848C 25.696 5.62402 26.277 5.4668 26.9287 5.4668C 27.9359 5.4668 28.7493 5.81543 29.3691 6.5127C 29.9935 7.20996 30.3057 8.13737 30.3057 9.29492L 30.3057 9.38379C 30.3057 10.1038 30.1667 10.751 29.8887 11.3252C 29.6152 11.8949 29.221 12.3392 28.7061 12.6582C 28.1956 12.9772 27.6077 13.1367 26.9424 13.1367C 25.9398 13.1367 25.1263 12.7881 24.502 12.0908C 23.8822 11.3936 23.5723 10.4707 23.5723 9.32227L 23.5723 9.2334ZM 24.8438 9.38379C 24.8438 10.2041 25.0329 10.8626 25.4111 11.3594C 25.7939 11.8561 26.3044 12.1045 26.9424 12.1045C 27.585 12.1045 28.0954 11.8538 28.4736 11.3525C 28.8519 10.8467 29.041 10.1403 29.041 9.2334C 29.041 8.4222 28.8473 7.76595 28.46 7.26465C 28.0771 6.75879 27.5667 6.50586 26.9287 6.50586C 26.3044 6.50586 25.8008 6.75423 25.418 7.25098C 25.0352 7.74772 24.8438 8.45866 24.8438 9.38379ZM 31.584 9.24023C 31.584 8.10547 31.8529 7.19401 32.3906 6.50586C 32.9284 5.81315 33.6325 5.4668 34.5029 5.4668C 35.3688 5.4668 36.0547 5.76302 36.5605 6.35547L 36.5605 2.5L 37.8252 2.5L 37.8252 13L 36.6631 13L 36.6016 12.207C 36.0957 12.8268 35.3916 13.1367 34.4893 13.1367C 33.6325 13.1367 32.9329 12.7858 32.3906 12.084C 31.8529 11.3822 31.584 10.4661 31.584 9.33594L 31.584 9.24023ZM 32.8486 9.38379C 32.8486 10.2223 33.0218 10.8786 33.3682 11.3525C 33.7145 11.8265 34.193 12.0635 34.8037 12.0635C 35.6058 12.0635 36.1914 11.7035 36.5605 10.9834L 36.5605 7.58594C 36.1823 6.88867 35.6012 6.54004 34.8174 6.54004C 34.1976 6.54004 33.7145 6.7793 33.3682 7.25781C 33.0218 7.73633 32.8486 8.44499 32.8486 9.38379ZM 44.3604 12.2686C 43.8682 12.8473 43.1458 13.1367 42.1934 13.1367C 41.4049 13.1367 40.8034 12.9089 40.3887 12.4531C 39.9785 11.9928 39.7712 11.3138 39.7666 10.416L 39.7666 5.60352L 41.0312 5.60352L 41.0312 10.3818C 41.0312 11.5029 41.487 12.0635 42.3984 12.0635C 43.3646 12.0635 44.0072 11.7035 44.3262 10.9834L 44.3262 5.60352L 45.5908 5.60352L 45.5908 13L 44.3877 13L 44.3604 12.2686ZM 50.4854 12.1045C 50.9365 12.1045 51.3307 11.9678 51.668 11.6943C 52.0052 11.4209 52.1921 11.0791 52.2285 10.6689L 53.4248 10.6689C 53.402 11.0928 53.2562 11.4961 52.9873 11.8789C 52.7184 12.2617 52.3584 12.5671 51.9072 12.7949C 51.4606 13.0228 50.9867 13.1367 50.4854 13.1367C 49.4782 13.1367 48.6761 12.8018 48.0791 12.1318C 47.4867 11.4574 47.1904 10.5368 47.1904 9.37012L 47.1904 9.1582C 47.1904 8.43815 47.3226 7.79785 47.5869 7.2373C 47.8512 6.67676 48.2295 6.24154 48.7217 5.93164C 49.2184 5.62174 49.804 5.4668 50.4785 5.4668C 51.3079 5.4668 51.9961 5.71517 52.543 6.21191C 53.0944 6.70866 53.3883 7.35352 53.4248 8.14648L 52.2285 8.14648C 52.1921 7.66797 52.0098 7.27604 51.6816 6.9707C 51.3581 6.66081 50.957 6.50586 50.4785 6.50586C 49.8359 6.50586 49.3369 6.73828 48.9814 7.20312C 48.6305 7.66341 48.4551 8.33105 48.4551 9.20605L 48.4551 9.44531C 48.4551 10.2975 48.6305 10.9538 48.9814 11.4141C 49.3324 11.8743 49.8337 12.1045 50.4854 12.1045ZM 50.6904 13.0615L 50.6084 13.417C 51.3057 13.54 51.6543 13.9342 51.6543 14.5996C 51.6543 15.0417 51.472 15.3903 51.1074 15.6455C 50.7428 15.9053 50.2347 16.0352 49.583 16.0352L 49.5352 15.3037C 49.8952 15.3037 50.1732 15.2445 50.3691 15.126C 50.5697 15.0075 50.6699 14.8411 50.6699 14.627C 50.6699 14.4264 50.597 14.2783 50.4512 14.1826C 50.3053 14.0869 50.0091 14.0186 49.5625 13.9775L 49.7812 13.0615L 50.6904 13.0615ZM 59.4131 13C 59.3402 12.8542 59.2809 12.5944 59.2354 12.2207C 58.6475 12.8314 57.9456 13.1367 57.1299 13.1367C 56.4007 13.1367 55.8014 12.9316 55.332 12.5215C 54.8672 12.1068 54.6348 11.5827 54.6348 10.9492C 54.6348 10.179 54.9264 9.58203 55.5098 9.1582C 56.0977 8.72982 56.9225 8.51562 57.9844 8.51562L 59.2148 8.51562L 59.2148 7.93457C 59.2148 7.49251 59.0827 7.1416 58.8184 6.88184C 58.554 6.61751 58.1644 6.48535 57.6494 6.48535C 57.1982 6.48535 56.82 6.59928 56.5146 6.82715C 56.2093 7.05501 56.0566 7.33073 56.0566 7.6543L 54.7852 7.6543C 54.7852 7.28516 54.915 6.92969 55.1748 6.58789C 55.4391 6.24154 55.7946 5.9681 56.2412 5.76758C 56.6924 5.56706 57.1868 5.4668 57.7246 5.4668C 58.5768 5.4668 59.2445 5.68099 59.7275 6.10938C 60.2106 6.5332 60.4613 7.11882 60.4795 7.86621L 60.4795 11.2705C 60.4795 11.9495 60.5661 12.4896 60.7393 12.8906L 60.7393 13L 59.4131 13ZM 57.3145 12.0361C 57.7109 12.0361 58.0869 11.9336 58.4424 11.7285C 58.7979 11.5234 59.0553 11.2568 59.2148 10.9287L 59.2148 9.41113L 58.2236 9.41113C 56.6742 9.41113 55.8994 9.86458 55.8994 10.7715C 55.8994 11.168 56.0316 11.4779 56.2959 11.7012C 56.5602 11.9245 56.8997 12.0361 57.3145 12.0361ZM 60.2881 2.71875C 60.2881 3.21094 60.1468 3.6097 59.8643 3.91504C 59.5863 4.22038 59.2376 4.37305 58.8184 4.37305C 58.6315 4.37305 58.4697 4.35026 58.333 4.30469C 58.1963 4.25911 58.0163 4.16569 57.793 4.02441C 57.5742 3.88314 57.4147 3.79883 57.3145 3.77148C 57.2188 3.73958 57.1071 3.72363 56.9795 3.72363C 56.7926 3.72363 56.6331 3.79655 56.501 3.94238C 56.3688 4.08366 56.3027 4.26595 56.3027 4.48926L 55.4551 4.44141C 55.4551 3.95378 55.5918 3.55046 55.8652 3.23145C 56.1432 2.91244 56.4941 2.75293 56.918 2.75293C 57.0775 2.75293 57.221 2.77572 57.3486 2.82129C 57.4762 2.86686 57.6494 2.95573 57.8682 3.08789C 58.0869 3.22005 58.2533 3.30664 58.3672 3.34766C 58.4857 3.38867 58.6156 3.40918 58.7568 3.40918C 58.9528 3.40918 59.1146 3.33171 59.2422 3.17676C 59.3743 3.02181 59.4404 2.8418 59.4404 2.63672L 60.2881 2.71875ZM 62.127 9.2334C 62.127 8.50879 62.2682 7.8571 62.5508 7.27832C 62.8379 6.69954 63.2344 6.25293 63.7402 5.93848C 64.2507 5.62402 64.8317 5.4668 65.4834 5.4668C 66.4906 5.4668 67.304 5.81543 67.9238 6.5127C 68.5482 7.20996 68.8604 8.13737 68.8604 9.29492L 68.8604 9.38379C 68.8604 10.1038 68.7214 10.751 68.4434 11.3252C 68.1699 11.8949 67.7757 12.3392 67.2607 12.6582C 66.7503 12.9772 66.1624 13.1367 65.4971 13.1367C 64.4945 13.1367 63.681 12.7881 63.0566 12.0908C 62.4368 11.3936 62.127 10.4707 62.127 9.32227L 62.127 9.2334ZM 63.3984 9.38379C 63.3984 10.2041 63.5876 10.8626 63.9658 11.3594C 64.3486 11.8561 64.859 12.1045 65.4971 12.1045C 66.1396 12.1045 66.6501 11.8538 67.0283 11.3525C 67.4066 10.8467 67.5957 10.1403 67.5957 9.2334C 67.5957 8.4222 67.402 7.76595 67.0146 7.26465C 66.6318 6.75879 66.1214 6.50586 65.4834 6.50586C 64.859 6.50586 64.3555 6.75423 63.9727 7.25098C 63.5898 7.74772 63.3984 8.45866 63.3984 9.38379Z"/>
<path id="path3_fill" d="M 38.4678 9.10352L 38.4678 13L 37.1553 13L 37.1553 3.04688L 40.8262 3.04688C 41.9154 3.04688 42.7676 3.32487 43.3828 3.88086C 44.0026 4.43685 44.3125 5.17285 44.3125 6.08887C 44.3125 7.05501 44.0094 7.80013 43.4033 8.32422C 42.8018 8.84375 41.9382 9.10352 40.8125 9.10352L 38.4678 9.10352ZM 38.4678 8.03027L 40.8262 8.03027C 41.528 8.03027 42.0658 7.86621 42.4395 7.53809C 42.8132 7.2054 43 6.72689 43 6.10254C 43 5.51009 42.8132 5.03613 42.4395 4.68066C 42.0658 4.3252 41.5531 4.14062 40.9014 4.12695L 38.4678 4.12695L 38.4678 8.03027ZM 49.3643 6.73828C 49.1729 6.70638 48.9655 6.69043 48.7422 6.69043C 47.9128 6.69043 47.3499 7.04362 47.0537 7.75L 47.0537 13L 45.7891 13L 45.7891 5.60352L 47.0195 5.60352L 47.04 6.45801C 47.4548 5.7972 48.0426 5.4668 48.8037 5.4668C 49.0498 5.4668 49.2367 5.4987 49.3643 5.5625L 49.3643 6.73828ZM 50.0615 9.2334C 50.0615 8.50879 50.2028 7.8571 50.4854 7.27832C 50.7725 6.69954 51.1689 6.25293 51.6748 5.93848C 52.1852 5.62402 52.7663 5.4668 53.418 5.4668C 54.4251 5.4668 55.2386 5.81543 55.8584 6.5127C 56.4827 7.20996 56.7949 8.13737 56.7949 9.29492L 56.7949 9.38379C 56.7949 10.1038 56.6559 10.751 56.3779 11.3252C 56.1045 11.8949 55.7103 12.3392 55.1953 12.6582C 54.6849 12.9772 54.097 13.1367 53.4316 13.1367C 52.429 13.1367 51.6156 12.7881 50.9912 12.0908C 50.3714 11.3936 50.0615 10.4707 50.0615 9.32227L 50.0615 9.2334ZM 51.333 9.38379C 51.333 10.2041 51.5221 10.8626 51.9004 11.3594C 52.2832 11.8561 52.7936 12.1045 53.4316 12.1045C 54.0742 12.1045 54.5846 11.8538 54.9629 11.3525C 55.3411 10.8467 55.5303 10.1403 55.5303 9.2334C 55.5303 8.4222 55.3366 7.76595 54.9492 7.26465C 54.5664 6.75879 54.056 6.50586 53.418 6.50586C 52.7936 6.50586 52.29 6.75423 51.9072 7.25098C 51.5244 7.74772 51.333 8.45866 51.333 9.38379ZM 64.6289 9.38379C 64.6289 10.5094 64.3714 11.4163 63.8564 12.1045C 63.3415 12.7926 62.6442 13.1367 61.7646 13.1367C 60.8669 13.1367 60.1605 12.8519 59.6455 12.2822L 59.6455 15.8438L 58.3809 15.8438L 58.3809 5.60352L 59.5361 5.60352L 59.5977 6.42383C 60.1126 5.78581 60.8281 5.4668 61.7441 5.4668C 62.6328 5.4668 63.3346 5.80176 63.8496 6.47168C 64.3691 7.1416 64.6289 8.07357 64.6289 9.26758L 64.6289 9.38379ZM 63.3643 9.24023C 63.3643 8.40625 63.1865 7.74772 62.8311 7.26465C 62.4756 6.78158 61.988 6.54004 61.3682 6.54004C 60.6025 6.54004 60.0283 6.87956 59.6455 7.55859L 59.6455 11.0928C 60.0238 11.7673 60.6025 12.1045 61.3818 12.1045C 61.988 12.1045 62.4688 11.8652 62.8242 11.3867C 63.1842 10.9036 63.3643 10.1882 63.3643 9.24023ZM 65.9072 9.2334C 65.9072 8.50879 66.0485 7.8571 66.3311 7.27832C 66.6182 6.69954 67.0146 6.25293 67.5205 5.93848C 68.0309 5.62402 68.612 5.4668 69.2637 5.4668C 70.2708 5.4668 71.0843 5.81543 71.7041 6.5127C 72.3285 7.20996 72.6406 8.13737 72.6406 9.29492L 72.6406 9.38379C 72.6406 10.1038 72.5016 10.751 72.2236 11.3252C 71.9502 11.8949 71.556 12.3392 71.041 12.6582C 70.5306 12.9772 69.9427 13.1367 69.2773 13.1367C 68.2747 13.1367 67.4613 12.7881 66.8369 12.0908C 66.2171 11.3936 65.9072 10.4707 65.9072 9.32227L 65.9072 9.2334ZM 67.1787 9.38379C 67.1787 10.2041 67.3678 10.8626 67.7461 11.3594C 68.1289 11.8561 68.6393 12.1045 69.2773 12.1045C 69.9199 12.1045 70.4303 11.8538 70.8086 11.3525C 71.1868 10.8467 71.376 10.1403 71.376 9.2334C 71.376 8.4222 71.1823 7.76595 70.7949 7.26465C 70.4121 6.75879 69.9017 6.50586 69.2637 6.50586C 68.6393 6.50586 68.1357 6.75423 67.7529 7.25098C 67.3701 7.74772 67.1787 8.45866 67.1787 9.38379ZM 69.8379 2.5L 71.3691 2.5L 69.5371 4.50977L 68.5186 4.50977L 69.8379 2.5ZM 78.5332 11.0381C 78.5332 10.6963 78.4033 10.432 78.1436 10.2451C 77.8883 10.0537 77.4395 9.88965 76.7969 9.75293C 76.1589 9.61621 75.6507 9.45215 75.2725 9.26074C 74.8988 9.06934 74.6208 8.84147 74.4385 8.57715C 74.2607 8.31283 74.1719 7.99837 74.1719 7.63379C 74.1719 7.02767 74.4271 6.51497 74.9375 6.0957C 75.4525 5.67643 76.1087 5.4668 76.9062 5.4668C 77.7448 5.4668 78.4238 5.68327 78.9434 6.11621C 79.4674 6.54915 79.7295 7.10286 79.7295 7.77734L 78.458 7.77734C 78.458 7.43099 78.3099 7.13249 78.0137 6.88184C 77.722 6.63118 77.3529 6.50586 76.9062 6.50586C 76.446 6.50586 76.0859 6.60612 75.8262 6.80664C 75.5664 7.00716 75.4365 7.26921 75.4365 7.59277C 75.4365 7.89811 75.5573 8.12826 75.7988 8.2832C 76.0404 8.43815 76.4756 8.58626 77.1045 8.72754C 77.738 8.86882 78.2507 9.03743 78.6426 9.2334C 79.0345 9.42936 79.3239 9.66634 79.5107 9.94434C 79.7021 10.2178 79.7979 10.5527 79.7979 10.9492C 79.7979 11.61 79.5335 12.141 79.0049 12.542C 78.4762 12.9385 77.7904 13.1367 76.9473 13.1367C 76.3548 13.1367 75.8307 13.0319 75.375 12.8223C 74.9193 12.6126 74.5615 12.321 74.3018 11.9473C 74.0465 11.569 73.9189 11.1611 73.9189 10.7236L 75.1836 10.7236C 75.2064 11.1475 75.375 11.4847 75.6895 11.7354C 76.0085 11.9814 76.4277 12.1045 76.9473 12.1045C 77.4258 12.1045 77.8086 12.0088 78.0957 11.8174C 78.3874 11.6214 78.5332 11.3617 78.5332 11.0381ZM 82.8193 13L 81.5547 13L 81.5547 5.60352L 82.8193 5.60352L 82.8193 13ZM 81.4521 3.6416C 81.4521 3.43652 81.5137 3.26335 81.6367 3.12207C 81.7643 2.98079 81.9512 2.91016 82.1973 2.91016C 82.4434 2.91016 82.6302 2.98079 82.7578 3.12207C 82.8854 3.26335 82.9492 3.43652 82.9492 3.6416C 82.9492 3.84668 82.8854 4.01758 82.7578 4.1543C 82.6302 4.29102 82.4434 4.35938 82.1973 4.35938C 81.9512 4.35938 81.7643 4.29102 81.6367 4.1543C 81.5137 4.01758 81.4521 3.84668 81.4521 3.6416ZM 86.5654 3.8125L 86.5654 5.60352L 87.9463 5.60352L 87.9463 6.58105L 86.5654 6.58105L 86.5654 11.168C 86.5654 11.4642 86.627 11.6875 86.75 11.8379C 86.873 11.9837 87.0827 12.0566 87.3789 12.0566C 87.5247 12.0566 87.7253 12.0293 87.9805 11.9746L 87.9805 13C 87.6478 13.0911 87.3242 13.1367 87.0098 13.1367C 86.4447 13.1367 86.0186 12.9658 85.7314 12.624C 85.4443 12.2822 85.3008 11.7969 85.3008 11.168L 85.3008 6.58105L 83.9541 6.58105L 83.9541 5.60352L 85.3008 5.60352L 85.3008 3.8125L 86.5654 3.8125ZM 88.958 9.2334C 88.958 8.50879 89.0993 7.8571 89.3818 7.27832C 89.6689 6.69954 90.0654 6.25293 90.5713 5.93848C 91.0817 5.62402 91.6628 5.4668 92.3145 5.4668C 93.3216 5.4668 94.1351 5.81543 94.7549 6.5127C 95.3792 7.20996 95.6914 8.13737 95.6914 9.29492L 95.6914 9.38379C 95.6914 10.1038 95.5524 10.751 95.2744 11.3252C 95.001 11.8949 94.6068 12.3392 94.0918 12.6582C 93.5814 12.9772 92.9935 13.1367 92.3281 13.1367C 91.3255 13.1367 90.512 12.7881 89.8877 12.0908C 89.2679 11.3936 88.958 10.4707 88.958 9.32227L 88.958 9.2334ZM 90.2295 9.38379C 90.2295 10.2041 90.4186 10.8626 90.7969 11.3594C 91.1797 11.8561 91.6901 12.1045 92.3281 12.1045C 92.9707 12.1045 93.4811 11.8538 93.8594 11.3525C 94.2376 10.8467 94.4268 10.1403 94.4268 9.2334C 94.4268 8.4222 94.2331 7.76595 93.8457 7.26465C 93.4629 6.75879 92.9525 6.50586 92.3145 6.50586C 91.6901 6.50586 91.1865 6.75423 90.8037 7.25098C 90.4209 7.74772 90.2295 8.45866 90.2295 9.38379ZM 101.003 13.8545L 99.916 13.8545L 104.072 3.04688L 105.152 3.04688L 101.003 13.8545ZM 115.68 8.60449L 111.503 8.60449L 111.503 13L 110.19 13L 110.19 3.04688L 116.356 3.04688L 116.356 4.12695L 111.503 4.12695L 111.503 7.53125L 115.68 7.53125L 115.68 8.60449ZM 122.146 12.2686C 121.654 12.8473 120.932 13.1367 119.979 13.1367C 119.191 13.1367 118.59 12.9089 118.175 12.4531C 117.765 11.9928 117.557 11.3138 117.553 10.416L 117.553 5.60352L 118.817 5.60352L 118.817 10.3818C 118.817 11.5029 119.273 12.0635 120.185 12.0635C 121.151 12.0635 121.793 11.7035 122.112 10.9834L 122.112 5.60352L 123.377 5.60352L 123.377 13L 122.174 13L 122.146 12.2686ZM 126.501 5.60352L 126.542 6.5332C 127.107 5.82227 127.845 5.4668 128.757 5.4668C 130.32 5.4668 131.108 6.34863 131.122 8.1123L 131.122 13L 129.857 13L 129.857 8.10547C 129.853 7.57227 129.73 7.17806 129.488 6.92285C 129.251 6.66764 128.88 6.54004 128.374 6.54004C 127.964 6.54004 127.604 6.64941 127.294 6.86816C 126.984 7.08691 126.743 7.37402 126.569 7.72949L 126.569 13L 125.305 13L 125.305 5.60352L 126.501 5.60352ZM 135.996 12.1045C 136.447 12.1045 136.841 11.9678 137.179 11.6943C 137.516 11.4209 137.703 11.0791 137.739 10.6689L 138.936 10.6689C 138.913 11.0928 138.767 11.4961 138.498 11.8789C 138.229 12.2617 137.869 12.5671 137.418 12.7949C 136.971 13.0228 136.497 13.1367 135.996 13.1367C 134.989 13.1367 134.187 12.8018 133.59 12.1318C 132.997 11.4574 132.701 10.5368 132.701 9.37012L 132.701 9.1582C 132.701 8.43815 132.833 7.79785 133.098 7.2373C 133.362 6.67676 133.74 6.24154 134.232 5.93164C 134.729 5.62174 135.315 5.4668 135.989 5.4668C 136.819 5.4668 137.507 5.71517 138.054 6.21191C 138.605 6.70866 138.899 7.35352 138.936 8.14648L 137.739 8.14648C 137.703 7.66797 137.521 7.27604 137.192 6.9707C 136.869 6.66081 136.468 6.50586 135.989 6.50586C 135.347 6.50586 134.848 6.73828 134.492 7.20312C 134.141 7.66341 133.966 8.33105 133.966 9.20605L 133.966 9.44531C 133.966 10.2975 134.141 10.9538 134.492 11.4141C 134.843 11.8743 135.344 12.1045 135.996 12.1045ZM 136.201 13.0615L 136.119 13.417C 136.816 13.54 137.165 13.9342 137.165 14.5996C 137.165 15.0417 136.983 15.3903 136.618 15.6455C 136.254 15.9053 135.745 16.0352 135.094 16.0352L 135.046 15.3037C 135.406 15.3037 135.684 15.2445 135.88 15.126C 136.08 15.0075 136.181 14.8411 136.181 14.627C 136.181 14.4264 136.108 14.2783 135.962 14.1826C 135.816 14.0869 135.52 14.0186 135.073 13.9775L 135.292 13.0615L 136.201 13.0615ZM 144.924 13C 144.851 12.8542 144.792 12.5944 144.746 12.2207C 144.158 12.8314 143.456 13.1367 142.641 13.1367C 141.911 13.1367 141.312 12.9316 140.843 12.5215C 140.378 12.1068 140.146 11.5827 140.146 10.9492C 140.146 10.179 140.437 9.58203 141.021 9.1582C 141.608 8.72982 142.433 8.51562 143.495 8.51562L 144.726 8.51562L 144.726 7.93457C 144.726 7.49251 144.593 7.1416 144.329 6.88184C 144.065 6.61751 143.675 6.48535 143.16 6.48535C 142.709 6.48535 142.331 6.59928 142.025 6.82715C 141.72 7.05501 141.567 7.33073 141.567 7.6543L 140.296 7.6543C 140.296 7.28516 140.426 6.92969 140.686 6.58789C 140.95 6.24154 141.305 5.9681 141.752 5.76758C 142.203 5.56706 142.698 5.4668 143.235 5.4668C 144.088 5.4668 144.755 5.68099 145.238 6.10938C 145.721 6.5332 145.972 7.11882 145.99 7.86621L 145.99 11.2705C 145.99 11.9495 146.077 12.4896 146.25 12.8906L 146.25 13L 144.924 13ZM 142.825 12.0361C 143.222 12.0361 143.598 11.9336 143.953 11.7285C 144.309 11.5234 144.566 11.2568 144.726 10.9287L 144.726 9.41113L 143.734 9.41113C 142.185 9.41113 141.41 9.86458 141.41 10.7715C 141.41 11.168 141.542 11.4779 141.807 11.7012C 142.071 11.9245 142.41 12.0361 142.825 12.0361ZM 145.799 2.71875C 145.799 3.21094 145.658 3.6097 145.375 3.91504C 145.097 4.22038 144.748 4.37305 144.329 4.37305C 144.142 4.37305 143.98 4.35026 143.844 4.30469C 143.707 4.25911 143.527 4.16569 143.304 4.02441C 143.085 3.88314 142.925 3.79883 142.825 3.77148C 142.729 3.73958 142.618 3.72363 142.49 3.72363C 142.303 3.72363 142.144 3.79655 142.012 3.94238C 141.88 4.08366 141.813 4.26595 141.813 4.48926L 140.966 4.44141C 140.966 3.95378 141.103 3.55046 141.376 3.23145C 141.654 2.91243 142.005 2.75293 142.429 2.75293C 142.588 2.75293 142.732 2.77572 142.859 2.82129C 142.987 2.86686 143.16 2.95573 143.379 3.08789C 143.598 3.22005 143.764 3.30664 143.878 3.34766C 143.996 3.38867 144.126 3.40918 144.268 3.40918C 144.464 3.40918 144.625 3.33171 144.753 3.17676C 144.885 3.02181 144.951 2.8418 144.951 2.63672L 145.799 2.71875ZM 147.638 9.2334C 147.638 8.50879 147.779 7.8571 148.062 7.27832C 148.349 6.69954 148.745 6.25293 149.251 5.93848C 149.761 5.62402 150.342 5.4668 150.994 5.4668C 152.001 5.4668 152.815 5.81543 153.435 6.5127C 154.059 7.20996 154.371 8.13737 154.371 9.29492L 154.371 9.38379C 154.371 10.1038 154.232 10.751 153.954 11.3252C 153.681 11.8949 153.286 12.3392 152.771 12.6582C 152.261 12.9772 151.673 13.1367 151.008 13.1367C 150.005 13.1367 149.192 12.7881 148.567 12.0908C 147.948 11.3936 147.638 10.4707 147.638 9.32227L 147.638 9.2334ZM 148.909 9.38379C 148.909 10.2041 149.098 10.8626 149.477 11.3594C 149.859 11.8561 150.37 12.1045 151.008 12.1045C 151.65 12.1045 152.161 11.8538 152.539 11.3525C 152.917 10.8467 153.106 10.1403 153.106 9.2334C 153.106 8.4222 152.913 7.76595 152.525 7.26465C 152.143 6.75879 151.632 6.50586 150.994 6.50586C 150.37 6.50586 149.866 6.75423 149.483 7.25098C 149.101 7.74772 148.909 8.45866 148.909 9.38379Z"/>
<path id="path4_fill" d="M 77.0498 11.9268L 81.7666 11.9268L 81.7666 13L 75.7305 13L 75.7305 3.04688L 77.0498 3.04688L 77.0498 11.9268ZM 87.6318 13C 87.5589 12.8542 87.4997 12.5944 87.4541 12.2207C 86.8662 12.8314 86.1644 13.1367 85.3486 13.1367C 84.6195 13.1367 84.0202 12.9316 83.5508 12.5215C 83.0859 12.1068 82.8535 11.5827 82.8535 10.9492C 82.8535 10.179 83.1452 9.58203 83.7285 9.1582C 84.3164 8.72982 85.1413 8.51562 86.2031 8.51562L 87.4336 8.51562L 87.4336 7.93457C 87.4336 7.49251 87.3014 7.1416 87.0371 6.88184C 86.7728 6.61751 86.3831 6.48535 85.8682 6.48535C 85.417 6.48535 85.0387 6.59928 84.7334 6.82715C 84.4281 7.05501 84.2754 7.33073 84.2754 7.6543L 83.0039 7.6543C 83.0039 7.28516 83.1338 6.92969 83.3936 6.58789C 83.6579 6.24154 84.0133 5.9681 84.46 5.76758C 84.9111 5.56706 85.4056 5.4668 85.9434 5.4668C 86.7956 5.4668 87.4632 5.68099 87.9463 6.10938C 88.4294 6.5332 88.68 7.11882 88.6982 7.86621L 88.6982 11.2705C 88.6982 11.9495 88.7848 12.4896 88.958 12.8906L 88.958 13L 87.6318 13ZM 85.5332 12.0361C 85.9297 12.0361 86.3057 11.9336 86.6611 11.7285C 87.0166 11.5234 87.2741 11.2568 87.4336 10.9287L 87.4336 9.41113L 86.4424 9.41113C 84.8929 9.41113 84.1182 9.86458 84.1182 10.7715C 84.1182 11.168 84.2503 11.4779 84.5146 11.7012C 84.779 11.9245 85.1185 12.0361 85.5332 12.0361ZM 92.9912 11.1475L 94.7139 5.60352L 96.0674 5.60352L 93.0938 14.1416C 92.6335 15.3721 91.902 15.9873 90.8994 15.9873L 90.6602 15.9668L 90.1885 15.8779L 90.1885 14.8525L 90.5303 14.8799C 90.9587 14.8799 91.2913 14.7933 91.5283 14.6201C 91.7699 14.4469 91.9681 14.1302 92.123 13.6699L 92.4033 12.918L 89.7646 5.60352L 91.1455 5.60352L 92.9912 11.1475ZM 96.7578 9.2334C 96.7578 8.50879 96.8991 7.8571 97.1816 7.27832C 97.4688 6.69954 97.8652 6.25293 98.3711 5.93848C 98.8815 5.62402 99.4626 5.4668 100.114 5.4668C 101.121 5.4668 101.935 5.81543 102.555 6.5127C 103.179 7.20996 103.491 8.13737 103.491 9.29492L 103.491 9.38379C 103.491 10.1038 103.352 10.751 103.074 11.3252C 102.801 11.8949 102.407 12.3392 101.892 12.6582C 101.381 12.9772 100.793 13.1367 100.128 13.1367C 99.1253 13.1367 98.3118 12.7881 97.6875 12.0908C 97.0677 11.3936 96.7578 10.4707 96.7578 9.32227L 96.7578 9.2334ZM 98.0293 9.38379C 98.0293 10.2041 98.2184 10.8626 98.5967 11.3594C 98.9795 11.8561 99.4899 12.1045 100.128 12.1045C 100.771 12.1045 101.281 11.8538 101.659 11.3525C 102.037 10.8467 102.227 10.1403 102.227 9.2334C 102.227 8.4222 102.033 7.76595 101.646 7.26465C 101.263 6.75879 100.752 6.50586 100.114 6.50586C 99.4899 6.50586 98.9863 6.75423 98.6035 7.25098C 98.2207 7.74772 98.0293 8.45866 98.0293 9.38379ZM 109.644 12.2686C 109.151 12.8473 108.429 13.1367 107.477 13.1367C 106.688 13.1367 106.087 12.9089 105.672 12.4531C 105.262 11.9928 105.054 11.3138 105.05 10.416L 105.05 5.60352L 106.314 5.60352L 106.314 10.3818C 106.314 11.5029 106.77 12.0635 107.682 12.0635C 108.648 12.0635 109.29 11.7035 109.609 10.9834L 109.609 5.60352L 110.874 5.60352L 110.874 13L 109.671 13L 109.644 12.2686ZM 114.518 3.8125L 114.518 5.60352L 115.898 5.60352L 115.898 6.58105L 114.518 6.58105L 114.518 11.168C 114.518 11.4642 114.579 11.6875 114.702 11.8379C 114.825 11.9837 115.035 12.0566 115.331 12.0566C 115.477 12.0566 115.677 12.0293 115.933 11.9746L 115.933 13C 115.6 13.0911 115.276 13.1367 114.962 13.1367C 114.397 13.1367 113.971 12.9658 113.684 12.624C 113.396 12.2822 113.253 11.7969 113.253 11.168L 113.253 6.58105L 111.906 6.58105L 111.906 5.60352L 113.253 5.60352L 113.253 3.8125L 114.518 3.8125Z"/>
<path id="path5_fill" d="M 50.1572 9.8418C 50.0342 10.8945 49.6445 11.708 48.9883 12.2822C 48.3366 12.8519 47.4684 13.1367 46.3838 13.1367C 45.208 13.1367 44.2646 12.7152 43.5537 11.8721C 42.8473 11.029 42.4941 9.90104 42.4941 8.48828L 42.4941 7.53125C 42.4941 6.60612 42.6582 5.79264 42.9863 5.09082C 43.319 4.389 43.7884 3.85124 44.3945 3.47754C 45.0007 3.09928 45.7025 2.91016 46.5 2.91016C 47.5573 2.91016 48.4049 3.20638 49.043 3.79883C 49.681 4.38672 50.0524 5.20247 50.1572 6.24609L 48.8379 6.24609C 48.724 5.45312 48.4756 4.87891 48.0928 4.52344C 47.7145 4.16797 47.1836 3.99023 46.5 3.99023C 45.6615 3.99023 45.0029 4.30013 44.5244 4.91992C 44.0505 5.53971 43.8135 6.42155 43.8135 7.56543L 43.8135 8.5293C 43.8135 9.60938 44.0391 10.4684 44.4902 11.1064C 44.9414 11.7445 45.5726 12.0635 46.3838 12.0635C 47.113 12.0635 47.6712 11.8994 48.0586 11.5713C 48.4505 11.2386 48.7103 10.6621 48.8379 9.8418L 50.1572 9.8418ZM 51.4219 9.2334C 51.4219 8.50879 51.5632 7.8571 51.8457 7.27832C 52.1328 6.69954 52.5293 6.25293 53.0352 5.93848C 53.5456 5.62402 54.1266 5.4668 54.7783 5.4668C 55.7855 5.4668 56.599 5.81543 57.2188 6.5127C 57.8431 7.20996 58.1553 8.13737 58.1553 9.29492L 58.1553 9.38379C 58.1553 10.1038 58.0163 10.751 57.7383 11.3252C 57.4648 11.8949 57.0706 12.3392 56.5557 12.6582C 56.0452 12.9772 55.4574 13.1367 54.792 13.1367C 53.7894 13.1367 52.9759 12.7881 52.3516 12.0908C 51.7318 11.3936 51.4219 10.4707 51.4219 9.32227L 51.4219 9.2334ZM 52.6934 9.38379C 52.6934 10.2041 52.8825 10.8626 53.2607 11.3594C 53.6436 11.8561 54.154 12.1045 54.792 12.1045C 55.4346 12.1045 55.945 11.8538 56.3232 11.3525C 56.7015 10.8467 56.8906 10.1403 56.8906 9.2334C 56.8906 8.4222 56.6969 7.76595 56.3096 7.26465C 55.9268 6.75879 55.4163 6.50586 54.7783 6.50586C 54.154 6.50586 53.6504 6.75423 53.2676 7.25098C 52.8848 7.74772 52.6934 8.45866 52.6934 9.38379ZM 55.3525 2.5L 56.8838 2.5L 55.0518 4.50977L 54.0332 4.50977L 55.3525 2.5ZM 59.4336 9.24023C 59.4336 8.10547 59.7025 7.19401 60.2402 6.50586C 60.778 5.81315 61.4821 5.4668 62.3525 5.4668C 63.2184 5.4668 63.9043 5.76302 64.4102 6.35547L 64.4102 2.5L 65.6748 2.5L 65.6748 13L 64.5127 13L 64.4512 12.207C 63.9453 12.8268 63.2412 13.1367 62.3389 13.1367C 61.4821 13.1367 60.7826 12.7858 60.2402 12.084C 59.7025 11.3822 59.4336 10.4661 59.4336 9.33594L 59.4336 9.24023ZM 60.6982 9.38379C 60.6982 10.2223 60.8714 10.8786 61.2178 11.3525C 61.5641 11.8265 62.0426 12.0635 62.6533 12.0635C 63.4554 12.0635 64.041 11.7035 64.4102 10.9834L 64.4102 7.58594C 64.0319 6.88867 63.4508 6.54004 62.667 6.54004C 62.0472 6.54004 61.5641 6.7793 61.2178 7.25781C 60.8714 7.73633 60.6982 8.44499 60.6982 9.38379ZM 69.0176 13L 67.7529 13L 67.7529 5.60352L 69.0176 5.60352L 69.0176 13ZM 67.6504 3.6416C 67.6504 3.43652 67.7119 3.26335 67.835 3.12207C 67.9626 2.98079 68.1494 2.91016 68.3955 2.91016C 68.6416 2.91016 68.8285 2.98079 68.9561 3.12207C 69.0837 3.26335 69.1475 3.43652 69.1475 3.6416C 69.1475 3.84668 69.0837 4.01758 68.9561 4.1543C 68.8285 4.29102 68.6416 4.35938 68.3955 4.35938C 68.1494 4.35938 67.9626 4.29102 67.835 4.1543C 67.7119 4.01758 67.6504 3.84668 67.6504 3.6416ZM 70.7471 9.24023C 70.7471 8.08724 71.0137 7.17122 71.5469 6.49219C 72.0801 5.80859 72.7865 5.4668 73.666 5.4668C 74.5684 5.4668 75.2725 5.78581 75.7783 6.42383L 75.8398 5.60352L 76.9951 5.60352L 76.9951 12.8223C 76.9951 13.7793 76.7103 14.5335 76.1406 15.085C 75.5755 15.6364 74.8145 15.9121 73.8574 15.9121C 73.3242 15.9121 72.8024 15.7982 72.292 15.5703C 71.7816 15.3424 71.3919 15.0303 71.123 14.6338L 71.7793 13.875C 72.3216 14.5449 72.9847 14.8799 73.7686 14.8799C 74.3838 14.8799 74.8623 14.7067 75.2041 14.3604C 75.5505 14.014 75.7236 13.5264 75.7236 12.8975L 75.7236 12.2617C 75.2178 12.8451 74.5273 13.1367 73.6523 13.1367C 72.7865 13.1367 72.0846 12.7881 71.5469 12.0908C 71.0137 11.3936 70.7471 10.4434 70.7471 9.24023ZM 72.0186 9.38379C 72.0186 10.2178 72.1895 10.874 72.5312 11.3525C 72.873 11.8265 73.3516 12.0635 73.9668 12.0635C 74.7643 12.0635 75.3499 11.7012 75.7236 10.9766L 75.7236 7.59961C 75.3363 6.89323 74.7552 6.54004 73.9805 6.54004C 73.3652 6.54004 72.8844 6.7793 72.5381 7.25781C 72.1917 7.73633 72.0186 8.44499 72.0186 9.38379ZM 78.5742 9.2334C 78.5742 8.50879 78.7155 7.8571 78.998 7.27832C 79.2852 6.69954 79.6816 6.25293 80.1875 5.93848C 80.6979 5.62402 81.279 5.4668 81.9307 5.4668C 82.9378 5.4668 83.7513 5.81543 84.3711 6.5127C 84.9954 7.20996 85.3076 8.13737 85.3076 9.29492L 85.3076 9.38379C 85.3076 10.1038 85.1686 10.751 84.8906 11.3252C 84.6172 11.8949 84.223 12.3392 83.708 12.6582C 83.1976 12.9772 82.6097 13.1367 81.9443 13.1367C 80.9417 13.1367 80.1283 12.7881 79.5039 12.0908C 78.8841 11.3936 78.5742 10.4707 78.5742 9.32227L 78.5742 9.2334ZM 79.8457 9.38379C 79.8457 10.2041 80.0348 10.8626 80.4131 11.3594C 80.7959 11.8561 81.3063 12.1045 81.9443 12.1045C 82.5869 12.1045 83.0973 11.8538 83.4756 11.3525C 83.8538 10.8467 84.043 10.1403 84.043 9.2334C 84.043 8.4222 83.8493 7.76595 83.4619 7.26465C 83.0791 6.75879 82.5687 6.50586 81.9307 6.50586C 81.3063 6.50586 80.8027 6.75423 80.4199 7.25098C 80.0371 7.74772 79.8457 8.45866 79.8457 9.38379ZM 96.0537 8.60449L 91.877 8.60449L 91.877 13L 90.5645 13L 90.5645 3.04688L 96.7305 3.04688L 96.7305 4.12695L 91.877 4.12695L 91.877 7.53125L 96.0537 7.53125L 96.0537 8.60449ZM 101.502 6.73828C 101.311 6.70638 101.103 6.69043 100.88 6.69043C 100.05 6.69043 99.4876 7.04362 99.1914 7.75L 99.1914 13L 97.9268 13L 97.9268 5.60352L 99.1572 5.60352L 99.1777 6.45801C 99.5924 5.7972 100.18 5.4668 100.941 5.4668C 101.188 5.4668 101.374 5.4987 101.502 5.5625L 101.502 6.73828ZM 102.199 9.2334C 102.199 8.50879 102.34 7.8571 102.623 7.27832C 102.91 6.69954 103.307 6.25293 103.812 5.93848C 104.323 5.62402 104.904 5.4668 105.556 5.4668C 106.563 5.4668 107.376 5.81543 107.996 6.5127C 108.62 7.20996 108.933 8.13737 108.933 9.29492L 108.933 9.38379C 108.933 10.1038 108.794 10.751 108.516 11.3252C 108.242 11.8949 107.848 12.3392 107.333 12.6582C 106.823 12.9772 106.235 13.1367 105.569 13.1367C 104.567 13.1367 103.753 12.7881 103.129 12.0908C 102.509 11.3936 102.199 10.4707 102.199 9.32227L 102.199 9.2334ZM 103.471 9.38379C 103.471 10.2041 103.66 10.8626 104.038 11.3594C 104.421 11.8561 104.931 12.1045 105.569 12.1045C 106.212 12.1045 106.722 11.8538 107.101 11.3525C 107.479 10.8467 107.668 10.1403 107.668 9.2334C 107.668 8.4222 107.474 7.76595 107.087 7.26465C 106.704 6.75879 106.194 6.50586 105.556 6.50586C 104.931 6.50586 104.428 6.75423 104.045 7.25098C 103.662 7.74772 103.471 8.45866 103.471 9.38379ZM 111.715 5.60352L 111.756 6.5332C 112.321 5.82227 113.059 5.4668 113.971 5.4668C 115.534 5.4668 116.322 6.34863 116.336 8.1123L 116.336 13L 115.071 13L 115.071 8.10547C 115.067 7.57227 114.944 7.17806 114.702 6.92285C 114.465 6.66764 114.094 6.54004 113.588 6.54004C 113.178 6.54004 112.818 6.64941 112.508 6.86816C 112.198 7.08691 111.956 7.37402 111.783 7.72949L 111.783 13L 110.519 13L 110.519 5.60352L 111.715 5.60352ZM 119.959 3.8125L 119.959 5.60352L 121.34 5.60352L 121.34 6.58105L 119.959 6.58105L 119.959 11.168C 119.959 11.4642 120.021 11.6875 120.144 11.8379C 120.267 11.9837 120.476 12.0566 120.772 12.0566C 120.918 12.0566 121.119 12.0293 121.374 11.9746L 121.374 13C 121.041 13.0911 120.718 13.1367 120.403 13.1367C 119.838 13.1367 119.412 12.9658 119.125 12.624C 118.838 12.2822 118.694 11.7969 118.694 11.168L 118.694 6.58105L 117.348 6.58105L 117.348 5.60352L 118.694 5.60352L 118.694 3.8125L 119.959 3.8125ZM 125.455 9.28809L 122.119 9.28809L 122.119 8.25586L 125.455 8.25586L 125.455 9.28809ZM 132.517 8.39941L 128.203 8.39941L 128.203 11.9268L 133.214 11.9268L 133.214 13L 126.891 13L 126.891 3.04688L 133.146 3.04688L 133.146 4.12695L 128.203 4.12695L 128.203 7.32617L 132.517 7.32617L 132.517 8.39941ZM 135.846 5.60352L 135.887 6.5332C 136.452 5.82227 137.19 5.4668 138.102 5.4668C 139.665 5.4668 140.453 6.34863 140.467 8.1123L 140.467 13L 139.202 13L 139.202 8.10547C 139.198 7.57227 139.075 7.17806 138.833 6.92285C 138.596 6.66764 138.225 6.54004 137.719 6.54004C 137.309 6.54004 136.949 6.64941 136.639 6.86816C 136.329 7.08691 136.087 7.37402 135.914 7.72949L 135.914 13L 134.649 13L 134.649 5.60352L 135.846 5.60352ZM 142.066 9.24023C 142.066 8.10547 142.335 7.19401 142.873 6.50586C 143.411 5.81315 144.115 5.4668 144.985 5.4668C 145.851 5.4668 146.537 5.76302 147.043 6.35547L 147.043 2.5L 148.308 2.5L 148.308 13L 147.146 13L 147.084 12.207C 146.578 12.8268 145.874 13.1367 144.972 13.1367C 144.115 13.1367 143.415 12.7858 142.873 12.084C 142.335 11.3822 142.066 10.4661 142.066 9.33594L 142.066 9.24023ZM 143.331 9.38379C 143.331 10.2223 143.504 10.8786 143.851 11.3525C 144.197 11.8265 144.675 12.0635 145.286 12.0635C 146.088 12.0635 146.674 11.7035 147.043 10.9834L 147.043 7.58594C 146.665 6.88867 146.084 6.54004 145.3 6.54004C 144.68 6.54004 144.197 6.7793 143.851 7.25781C 143.504 7.73633 143.331 8.44499 143.331 9.38379Z"/>
<path id="path6_fill" d="M 51.0049 9.8418C 50.8818 10.8945 50.4922 11.708 49.8359 12.2822C 49.1842 12.8519 48.3161 13.1367 47.2314 13.1367C 46.0557 13.1367 45.1123 12.7152 44.4014 11.8721C 43.695 11.029 43.3418 9.90104 43.3418 8.48828L 43.3418 7.53125C 43.3418 6.60612 43.5059 5.79264 43.834 5.09082C 44.1667 4.389 44.6361 3.85124 45.2422 3.47754C 45.8483 3.09928 46.5501 2.91016 47.3477 2.91016C 48.4049 2.91016 49.2526 3.20638 49.8906 3.79883C 50.5286 4.38672 50.9001 5.20247 51.0049 6.24609L 49.6855 6.24609C 49.5716 5.45312 49.3232 4.87891 48.9404 4.52344C 48.5622 4.16797 48.0312 3.99023 47.3477 3.99023C 46.5091 3.99023 45.8506 4.30013 45.3721 4.91992C 44.8981 5.53971 44.6611 6.42155 44.6611 7.56543L 44.6611 8.5293C 44.6611 9.60938 44.8867 10.4684 45.3379 11.1064C 45.7891 11.7445 46.4202 12.0635 47.2314 12.0635C 47.9606 12.0635 48.5189 11.8994 48.9062 11.5713C 49.2982 11.2386 49.5579 10.6621 49.6855 9.8418L 51.0049 9.8418ZM 52.2695 9.2334C 52.2695 8.50879 52.4108 7.8571 52.6934 7.27832C 52.9805 6.69954 53.377 6.25293 53.8828 5.93848C 54.3932 5.62402 54.9743 5.4668 55.626 5.4668C 56.6331 5.4668 57.4466 5.81543 58.0664 6.5127C 58.6908 7.20996 59.0029 8.13737 59.0029 9.29492L 59.0029 9.38379C 59.0029 10.1038 58.8639 10.751 58.5859 11.3252C 58.3125 11.8949 57.9183 12.3392 57.4033 12.6582C 56.8929 12.9772 56.305 13.1367 55.6396 13.1367C 54.637 13.1367 53.8236 12.7881 53.1992 12.0908C 52.5794 11.3936 52.2695 10.4707 52.2695 9.32227L 52.2695 9.2334ZM 53.541 9.38379C 53.541 10.2041 53.7301 10.8626 54.1084 11.3594C 54.4912 11.8561 55.0016 12.1045 55.6396 12.1045C 56.2822 12.1045 56.7926 11.8538 57.1709 11.3525C 57.5492 10.8467 57.7383 10.1403 57.7383 9.2334C 57.7383 8.4222 57.5446 7.76595 57.1572 7.26465C 56.7744 6.75879 56.264 6.50586 55.626 6.50586C 55.0016 6.50586 54.498 6.75423 54.1152 7.25098C 53.7324 7.74772 53.541 8.45866 53.541 9.38379ZM 56.2002 2.5L 57.7314 2.5L 55.8994 4.50977L 54.8809 4.50977L 56.2002 2.5ZM 60.2812 9.24023C 60.2812 8.10547 60.5501 7.19401 61.0879 6.50586C 61.6257 5.81315 62.3298 5.4668 63.2002 5.4668C 64.0661 5.4668 64.752 5.76302 65.2578 6.35547L 65.2578 2.5L 66.5225 2.5L 66.5225 13L 65.3604 13L 65.2988 12.207C 64.793 12.8268 64.0889 13.1367 63.1865 13.1367C 62.3298 13.1367 61.6302 12.7858 61.0879 12.084C 60.5501 11.3822 60.2812 10.4661 60.2812 9.33594L 60.2812 9.24023ZM 61.5459 9.38379C 61.5459 10.2223 61.7191 10.8786 62.0654 11.3525C 62.4118 11.8265 62.8903 12.0635 63.501 12.0635C 64.3031 12.0635 64.8887 11.7035 65.2578 10.9834L 65.2578 7.58594C 64.8796 6.88867 64.2985 6.54004 63.5146 6.54004C 62.8949 6.54004 62.4118 6.7793 62.0654 7.25781C 61.7191 7.73633 61.5459 8.44499 61.5459 9.38379ZM 69.8652 13L 68.6006 13L 68.6006 5.60352L 69.8652 5.60352L 69.8652 13ZM 68.498 3.6416C 68.498 3.43652 68.5596 3.26335 68.6826 3.12207C 68.8102 2.98079 68.9971 2.91016 69.2432 2.91016C 69.4893 2.91016 69.6761 2.98079 69.8037 3.12207C 69.9313 3.26335 69.9951 3.43652 69.9951 3.6416C 69.9951 3.84668 69.9313 4.01758 69.8037 4.1543C 69.6761 4.29102 69.4893 4.35938 69.2432 4.35938C 68.9971 4.35938 68.8102 4.29102 68.6826 4.1543C 68.5596 4.01758 68.498 3.84668 68.498 3.6416ZM 71.5947 9.24023C 71.5947 8.08724 71.8613 7.17122 72.3945 6.49219C 72.9277 5.80859 73.6341 5.4668 74.5137 5.4668C 75.416 5.4668 76.1201 5.78581 76.626 6.42383L 76.6875 5.60352L 77.8428 5.60352L 77.8428 12.8223C 77.8428 13.7793 77.5579 14.5335 76.9883 15.085C 76.4232 15.6364 75.6621 15.9121 74.7051 15.9121C 74.1719 15.9121 73.6501 15.7982 73.1396 15.5703C 72.6292 15.3424 72.2396 15.0303 71.9707 14.6338L 72.627 13.875C 73.1693 14.5449 73.8324 14.8799 74.6162 14.8799C 75.2314 14.8799 75.71 14.7067 76.0518 14.3604C 76.3981 14.014 76.5713 13.5264 76.5713 12.8975L 76.5713 12.2617C 76.0654 12.8451 75.375 13.1367 74.5 13.1367C 73.6341 13.1367 72.9323 12.7881 72.3945 12.0908C 71.8613 11.3936 71.5947 10.4434 71.5947 9.24023ZM 72.8662 9.38379C 72.8662 10.2178 73.0371 10.874 73.3789 11.3525C 73.7207 11.8265 74.1992 12.0635 74.8145 12.0635C 75.612 12.0635 76.1976 11.7012 76.5713 10.9766L 76.5713 7.59961C 76.1839 6.89323 75.6029 6.54004 74.8281 6.54004C 74.2129 6.54004 73.7321 6.7793 73.3857 7.25781C 73.0394 7.73633 72.8662 8.44499 72.8662 9.38379ZM 79.4219 9.2334C 79.4219 8.50879 79.5632 7.8571 79.8457 7.27832C 80.1328 6.69954 80.5293 6.25293 81.0352 5.93848C 81.5456 5.62402 82.1266 5.4668 82.7783 5.4668C 83.7855 5.4668 84.599 5.81543 85.2188 6.5127C 85.8431 7.20996 86.1553 8.13737 86.1553 9.29492L 86.1553 9.38379C 86.1553 10.1038 86.0163 10.751 85.7383 11.3252C 85.4648 11.8949 85.0706 12.3392 84.5557 12.6582C 84.0452 12.9772 83.4574 13.1367 82.792 13.1367C 81.7894 13.1367 80.9759 12.7881 80.3516 12.0908C 79.7318 11.3936 79.4219 10.4707 79.4219 9.32227L 79.4219 9.2334ZM 80.6934 9.38379C 80.6934 10.2041 80.8825 10.8626 81.2607 11.3594C 81.6436 11.8561 82.154 12.1045 82.792 12.1045C 83.4346 12.1045 83.945 11.8538 84.3232 11.3525C 84.7015 10.8467 84.8906 10.1403 84.8906 9.2334C 84.8906 8.4222 84.6969 7.76595 84.3096 7.26465C 83.9268 6.75879 83.4163 6.50586 82.7783 6.50586C 82.154 6.50586 81.6504 6.75423 81.2676 7.25098C 80.8848 7.74772 80.6934 8.45866 80.6934 9.38379ZM 91.4121 13L 91.4121 3.04688L 94.666 3.04688C 95.7461 3.04688 96.5573 3.27018 97.0996 3.7168C 97.6465 4.16341 97.9199 4.82422 97.9199 5.69922C 97.9199 6.16406 97.7878 6.5765 97.5234 6.93652C 97.2591 7.29199 96.8991 7.56771 96.4434 7.76367C 96.9811 7.91406 97.4049 8.20117 97.7148 8.625C 98.0293 9.04427 98.1865 9.54557 98.1865 10.1289C 98.1865 11.0221 97.8971 11.724 97.3184 12.2344C 96.7396 12.7448 95.9215 13 94.8643 13L 91.4121 13ZM 92.7246 8.34473L 92.7246 11.9268L 94.8916 11.9268C 95.5023 11.9268 95.9831 11.7695 96.334 11.4551C 96.6895 11.1361 96.8672 10.6986 96.8672 10.1426C 96.8672 8.94401 96.2155 8.34473 94.9121 8.34473L 92.7246 8.34473ZM 92.7246 7.29199L 94.707 7.29199C 95.2812 7.29199 95.7393 7.14844 96.0811 6.86133C 96.4274 6.57422 96.6006 6.18457 96.6006 5.69238C 96.6006 5.14551 96.4411 4.74902 96.1221 4.50293C 95.8031 4.25228 95.3177 4.12695 94.666 4.12695L 92.7246 4.12695L 92.7246 7.29199ZM 104.503 13C 104.43 12.8542 104.371 12.5944 104.325 12.2207C 103.737 12.8314 103.035 13.1367 102.22 13.1367C 101.491 13.1367 100.891 12.9316 100.422 12.5215C 99.957 12.1068 99.7246 11.5827 99.7246 10.9492C 99.7246 10.179 100.016 9.58203 100.6 9.1582C 101.188 8.72982 102.012 8.51562 103.074 8.51562L 104.305 8.51562L 104.305 7.93457C 104.305 7.49251 104.173 7.1416 103.908 6.88184C 103.644 6.61751 103.254 6.48535 102.739 6.48535C 102.288 6.48535 101.91 6.59928 101.604 6.82715C 101.299 7.05501 101.146 7.33073 101.146 7.6543L 99.875 7.6543C 99.875 7.28516 100.005 6.92969 100.265 6.58789C 100.529 6.24154 100.884 5.9681 101.331 5.76758C 101.782 5.56706 102.277 5.4668 102.814 5.4668C 103.667 5.4668 104.334 5.68099 104.817 6.10938C 105.3 6.5332 105.551 7.11882 105.569 7.86621L 105.569 11.2705C 105.569 11.9495 105.656 12.4896 105.829 12.8906L 105.829 13L 104.503 13ZM 102.404 12.0361C 102.801 12.0361 103.177 11.9336 103.532 11.7285C 103.888 11.5234 104.145 11.2568 104.305 10.9287L 104.305 9.41113L 103.313 9.41113C 101.764 9.41113 100.989 9.86458 100.989 10.7715C 100.989 11.168 101.121 11.4779 101.386 11.7012C 101.65 11.9245 101.99 12.0361 102.404 12.0361ZM 110.519 12.1045C 110.97 12.1045 111.364 11.9678 111.701 11.6943C 112.038 11.4209 112.225 11.0791 112.262 10.6689L 113.458 10.6689C 113.435 11.0928 113.289 11.4961 113.021 11.8789C 112.752 12.2617 112.392 12.5671 111.94 12.7949C 111.494 13.0228 111.02 13.1367 110.519 13.1367C 109.511 13.1367 108.709 12.8018 108.112 12.1318C 107.52 11.4574 107.224 10.5368 107.224 9.37012L 107.224 9.1582C 107.224 8.43815 107.356 7.79785 107.62 7.2373C 107.884 6.67676 108.263 6.24154 108.755 5.93164C 109.252 5.62174 109.837 5.4668 110.512 5.4668C 111.341 5.4668 112.029 5.71517 112.576 6.21191C 113.128 6.70866 113.422 7.35352 113.458 8.14648L 112.262 8.14648C 112.225 7.66797 112.043 7.27604 111.715 6.9707C 111.391 6.66081 110.99 6.50586 110.512 6.50586C 109.869 6.50586 109.37 6.73828 109.015 7.20312C 108.664 7.66341 108.488 8.33105 108.488 9.20605L 108.488 9.44531C 108.488 10.2975 108.664 10.9538 109.015 11.4141C 109.366 11.8743 109.867 12.1045 110.519 12.1045ZM 116.944 9.5752L 116.151 10.4023L 116.151 13L 114.887 13L 114.887 2.5L 116.151 2.5L 116.151 8.85059L 116.828 8.03711L 119.132 5.60352L 120.67 5.60352L 117.792 8.69336L 121.005 13L 119.521 13L 116.944 9.5752ZM 124.607 9.28809L 121.271 9.28809L 121.271 8.25586L 124.607 8.25586L 124.607 9.28809ZM 131.669 8.39941L 127.355 8.39941L 127.355 11.9268L 132.366 11.9268L 132.366 13L 126.043 13L 126.043 3.04688L 132.298 3.04688L 132.298 4.12695L 127.355 4.12695L 127.355 7.32617L 131.669 7.32617L 131.669 8.39941ZM 134.998 5.60352L 135.039 6.5332C 135.604 5.82227 136.342 5.4668 137.254 5.4668C 138.817 5.4668 139.605 6.34863 139.619 8.1123L 139.619 13L 138.354 13L 138.354 8.10547C 138.35 7.57227 138.227 7.17806 137.985 6.92285C 137.748 6.66764 137.377 6.54004 136.871 6.54004C 136.461 6.54004 136.101 6.64941 135.791 6.86816C 135.481 7.08691 135.24 7.37402 135.066 7.72949L 135.066 13L 133.802 13L 133.802 5.60352L 134.998 5.60352ZM 141.219 9.24023C 141.219 8.10547 141.488 7.19401 142.025 6.50586C 142.563 5.81315 143.267 5.4668 144.138 5.4668C 145.004 5.4668 145.689 5.76302 146.195 6.35547L 146.195 2.5L 147.46 2.5L 147.46 13L 146.298 13L 146.236 12.207C 145.73 12.8268 145.026 13.1367 144.124 13.1367C 143.267 13.1367 142.568 12.7858 142.025 12.084C 141.488 11.3822 141.219 10.4661 141.219 9.33594L 141.219 9.24023ZM 142.483 9.38379C 142.483 10.2223 142.657 10.8786 143.003 11.3525C 143.349 11.8265 143.828 12.0635 144.438 12.0635C 145.241 12.0635 145.826 11.7035 146.195 10.9834L 146.195 7.58594C 145.817 6.88867 145.236 6.54004 144.452 6.54004C 143.832 6.54004 143.349 6.7793 143.003 7.25781C 142.657 7.73633 142.483 8.44499 142.483 9.38379Z"/>
<path id="path7_fill" d="M 32.7549 9.8418C 32.6318 10.8945 32.2422 11.708 31.5859 12.2822C 30.9342 12.8519 30.0661 13.1367 28.9814 13.1367C 27.8057 13.1367 26.8623 12.7152 26.1514 11.8721C 25.445 11.029 25.0918 9.90104 25.0918 8.48828L 25.0918 7.53125C 25.0918 6.60612 25.2559 5.79264 25.584 5.09082C 25.9167 4.389 26.3861 3.85124 26.9922 3.47754C 27.5983 3.09928 28.3001 2.91016 29.0977 2.91016C 30.1549 2.91016 31.0026 3.20638 31.6406 3.79883C 32.2786 4.38672 32.6501 5.20247 32.7549 6.24609L 31.4355 6.24609C 31.3216 5.45312 31.0732 4.87891 30.6904 4.52344C 30.3122 4.16797 29.7812 3.99023 29.0977 3.99023C 28.2591 3.99023 27.6006 4.30013 27.1221 4.91992C 26.6481 5.53971 26.4111 6.42155 26.4111 7.56543L 26.4111 8.5293C 26.4111 9.60938 26.6367 10.4684 27.0879 11.1064C 27.5391 11.7445 28.1702 12.0635 28.9814 12.0635C 29.7106 12.0635 30.2689 11.8994 30.6562 11.5713C 31.0482 11.2386 31.3079 10.6621 31.4355 9.8418L 32.7549 9.8418ZM 34.0195 9.2334C 34.0195 8.50879 34.1608 7.8571 34.4434 7.27832C 34.7305 6.69954 35.127 6.25293 35.6328 5.93848C 36.1432 5.62402 36.7243 5.4668 37.376 5.4668C 38.3831 5.4668 39.1966 5.81543 39.8164 6.5127C 40.4408 7.20996 40.7529 8.13737 40.7529 9.29492L 40.7529 9.38379C 40.7529 10.1038 40.6139 10.751 40.3359 11.3252C 40.0625 11.8949 39.6683 12.3392 39.1533 12.6582C 38.6429 12.9772 38.055 13.1367 37.3896 13.1367C 36.387 13.1367 35.5736 12.7881 34.9492 12.0908C 34.3294 11.3936 34.0195 10.4707 34.0195 9.32227L 34.0195 9.2334ZM 35.291 9.38379C 35.291 10.2041 35.4801 10.8626 35.8584 11.3594C 36.2412 11.8561 36.7516 12.1045 37.3896 12.1045C 38.0322 12.1045 38.5426 11.8538 38.9209 11.3525C 39.2992 10.8467 39.4883 10.1403 39.4883 9.2334C 39.4883 8.4222 39.2946 7.76595 38.9072 7.26465C 38.5244 6.75879 38.014 6.50586 37.376 6.50586C 36.7516 6.50586 36.248 6.75423 35.8652 7.25098C 35.4824 7.74772 35.291 8.45866 35.291 9.38379ZM 43.5352 5.60352L 43.5762 6.5332C 44.1413 5.82227 44.8796 5.4668 45.791 5.4668C 47.3542 5.4668 48.1426 6.34863 48.1562 8.1123L 48.1562 13L 46.8916 13L 46.8916 8.10547C 46.887 7.57227 46.764 7.17806 46.5225 6.92285C 46.2855 6.66764 45.9141 6.54004 45.4082 6.54004C 44.998 6.54004 44.638 6.64941 44.3281 6.86816C 44.0182 7.08691 43.7767 7.37402 43.6035 7.72949L 43.6035 13L 42.3389 13L 42.3389 5.60352L 43.5352 5.60352ZM 51.7793 3.8125L 51.7793 5.60352L 53.1602 5.60352L 53.1602 6.58105L 51.7793 6.58105L 51.7793 11.168C 51.7793 11.4642 51.8408 11.6875 51.9639 11.8379C 52.0869 11.9837 52.2965 12.0566 52.5928 12.0566C 52.7386 12.0566 52.9391 12.0293 53.1943 11.9746L 53.1943 13C 52.8617 13.0911 52.5381 13.1367 52.2236 13.1367C 51.6585 13.1367 51.2324 12.9658 50.9453 12.624C 50.6582 12.2822 50.5146 11.7969 50.5146 11.168L 50.5146 6.58105L 49.168 6.58105L 49.168 5.60352L 50.5146 5.60352L 50.5146 3.8125L 51.7793 3.8125ZM 57.7129 13.1367C 56.7103 13.1367 55.8945 12.8086 55.2656 12.1523C 54.6367 11.4915 54.3223 10.6097 54.3223 9.50684L 54.3223 9.27441C 54.3223 8.54069 54.4613 7.88672 54.7393 7.3125C 55.0218 6.73372 55.4137 6.28255 55.915 5.95898C 56.4209 5.63086 56.9678 5.4668 57.5557 5.4668C 58.5173 5.4668 59.2646 5.78353 59.7979 6.41699C 60.3311 7.05046 60.5977 7.95736 60.5977 9.1377L 60.5977 9.66406L 55.5869 9.66406C 55.6051 10.3932 55.8171 10.9834 56.2227 11.4346C 56.6328 11.8812 57.1523 12.1045 57.7812 12.1045C 58.2279 12.1045 58.6061 12.0133 58.916 11.8311C 59.2259 11.6488 59.4971 11.4072 59.7295 11.1064L 60.502 11.708C 59.8822 12.6605 58.9525 13.1367 57.7129 13.1367ZM 57.5557 6.50586C 57.0452 6.50586 56.6169 6.69271 56.2705 7.06641C 55.9242 7.43555 55.71 7.95508 55.6279 8.625L 59.333 8.625L 59.333 8.5293C 59.2965 7.88672 59.1234 7.38997 58.8135 7.03906C 58.5036 6.68359 58.0843 6.50586 57.5557 6.50586ZM 66.6338 12.2686C 66.1416 12.8473 65.4193 13.1367 64.4668 13.1367C 63.6784 13.1367 63.0768 12.9089 62.6621 12.4531C 62.252 11.9928 62.0446 11.3138 62.04 10.416L 62.04 5.60352L 63.3047 5.60352L 63.3047 10.3818C 63.3047 11.5029 63.7604 12.0635 64.6719 12.0635C 65.638 12.0635 66.2806 11.7035 66.5996 10.9834L 66.5996 5.60352L 67.8643 5.60352L 67.8643 13L 66.6611 13L 66.6338 12.2686ZM 65.6084 2.5L 67.1396 2.5L 65.3076 4.50977L 64.2891 4.50977L 65.6084 2.5ZM 69.4844 9.24023C 69.4844 8.10547 69.7533 7.19401 70.291 6.50586C 70.8288 5.81315 71.5329 5.4668 72.4033 5.4668C 73.2692 5.4668 73.9551 5.76302 74.4609 6.35547L 74.4609 2.5L 75.7256 2.5L 75.7256 13L 74.5635 13L 74.502 12.207C 73.9961 12.8268 73.292 13.1367 72.3896 13.1367C 71.5329 13.1367 70.8333 12.7858 70.291 12.084C 69.7533 11.3822 69.4844 10.4661 69.4844 9.33594L 69.4844 9.24023ZM 70.749 9.38379C 70.749 10.2223 70.9222 10.8786 71.2686 11.3525C 71.6149 11.8265 72.0934 12.0635 72.7041 12.0635C 73.5062 12.0635 74.0918 11.7035 74.4609 10.9834L 74.4609 7.58594C 74.0827 6.88867 73.5016 6.54004 72.7178 6.54004C 72.098 6.54004 71.6149 6.7793 71.2686 7.25781C 70.9222 7.73633 70.749 8.44499 70.749 9.38379ZM 77.3594 9.2334C 77.3594 8.50879 77.5007 7.8571 77.7832 7.27832C 78.0703 6.69954 78.4668 6.25293 78.9727 5.93848C 79.4831 5.62402 80.0641 5.4668 80.7158 5.4668C 81.723 5.4668 82.5365 5.81543 83.1562 6.5127C 83.7806 7.20996 84.0928 8.13737 84.0928 9.29492L 84.0928 9.38379C 84.0928 10.1038 83.9538 10.751 83.6758 11.3252C 83.4023 11.8949 83.0081 12.3392 82.4932 12.6582C 81.9827 12.9772 81.3949 13.1367 80.7295 13.1367C 79.7269 13.1367 78.9134 12.7881 78.2891 12.0908C 77.6693 11.3936 77.3594 10.4707 77.3594 9.32227L 77.3594 9.2334ZM 78.6309 9.38379C 78.6309 10.2041 78.82 10.8626 79.1982 11.3594C 79.5811 11.8561 80.0915 12.1045 80.7295 12.1045C 81.3721 12.1045 81.8825 11.8538 82.2607 11.3525C 82.639 10.8467 82.8281 10.1403 82.8281 9.2334C 82.8281 8.4222 82.6344 7.76595 82.2471 7.26465C 81.8643 6.75879 81.3538 6.50586 80.7158 6.50586C 80.0915 6.50586 79.5879 6.75423 79.2051 7.25098C 78.8223 7.74772 78.6309 8.45866 78.6309 9.38379Z"/>
<path id="path8_stroke" d="M 0 0L 370 0L 370 -1L 0 -1L 0 0Z"/>
<path id="path9_stroke" d="M 0 0L 16.9706 0L 16.9706 -1L 0 -1L 0 0Z"/>
<path id="path10_stroke" d="M 0 0L 1.5 0L 1.5 -1L 0 -1L 0 0ZM 4.5 0L 7.5 0L 7.5 -1L 4.5 -1L 4.5 0ZM 10.5 0L 13.5 0L 13.5 -1L 10.5 -1L 10.5 0ZM 16.5 0L 19.5 0L 19.5 -1L 16.5 -1L 16.5 0ZM 22.5 0L 25.5 0L 25.5 -1L 22.5 -1L 22.5 0ZM 28.5 0L 31.5 0L 31.5 -1L 28.5 -1L 28.5 0ZM 34.5 0L 37.5 0L 37.5 -1L 34.5 -1L 34.5 0ZM 40.5 0L 43.5 0L 43.5 -1L 40.5 -1L 40.5 0ZM 46.5 0L 49.5 0L 49.5 -1L 46.5 -1L 46.5 0ZM 52.5 0L 55.5 0L 55.5 -1L 52.5 -1L 52.5 0ZM 58.5 0L 61.5 0L 61.5 -1L 58.5 -1L 58.5 0ZM 64.5 0L 67.5 0L 67.5 -1L 64.5 -1L 64.5 0ZM 70.5 0L 73.5 0L 73.5 -1L 70.5 -1L 70.5 0ZM 76.5 0L 79.5 0L 79.5 -1L 76.5 -1L 76.5 0ZM 82.5 0L 85.5 0L 85.5 -1L 82.5 -1L 82.5 0ZM 88.5 0L 91.5 0L 91.5 -1L 88.5 -1L 88.5 0ZM 94.5 0L 97.5 0L 97.5 -1L 94.5 -1L 94.5 0ZM 100.5 0L 103.5 0L 103.5 -1L 100.5 -1L 100.5 0ZM 106.5 0L 109.5 0L 109.5 -1L 106.5 -1L 106.5 0ZM 112.5 0L 115.5 0L 115.5 -1L 112.5 -1L 112.5 0ZM 118.5 0L 121.5 0L 121.5 -1L 118.5 -1L 118.5 0ZM 124.5 0L 127.5 0L 127.5 -1L 124.5 -1L 124.5 0ZM 130.5 0L 133.5 0L 133.5 -1L 130.5 -1L 130.5 0ZM 136.5 0L 139.5 0L 139.5 -1L 136.5 -1L 136.5 0ZM 142.5 0L 145.5 0L 145.5 -1L 142.5 -1L 142.5 0ZM 148.5 0L 151.5 0L 151.5 -1L 148.5 -1L 148.5 0ZM 154.5 0L 157.5 0L 157.5 -1L 154.5 -1L 154.5 0ZM 160.5 0L 163.5 0L 163.5 -1L 160.5 -1L 160.5 0ZM 166.5 0L 169.5 0L 169.5 -1L 166.5 -1L 166.5 0ZM 172.5 0L 175.5 0L 175.5 -1L 172.5 -1L 172.5 0ZM 178.5 -5.55112e-17L 181.5 -5.55112e-17L 181.5 -1L 178.5 -1L 178.5 -5.55112e-17ZM 184.5 -5.55112e-17L 187.5 -5.55112e-17L 187.5 -1L 184.5 -1L 184.5 -5.55112e-17ZM 190.5 0L 193.5 0L 193.5 -1L 190.5 -1L 190.5 0ZM 196.5 0L 199.5 0L 199.5 -1L 196.5 -1L 196.5 0ZM 202.5 0L 205.5 0L 205.5 -1L 202.5 -1L 202.5 0ZM 208.5 0L 211.5 0L 211.5 -1L 208.5 -1L 208.5 0ZM 214.5 0L 217.5 0L 217.5 -1L 214.5 -1L 214.5 0ZM 220.5 0L 223.5 0L 223.5 -1L 220.5 -1L 220.5 0ZM 226.5 0L 229.5 0L 229.5 -1L 226.5 -1L 226.5 0ZM 232.5 0L 235.5 0L 235.5 -1L 232.5 -1L 232.5 0ZM 238.5 0L 241.5 0L 241.5 -1L 238.5 -1L 238.5 0ZM 244.5 0L 247.5 0L 247.5 -1L 244.5 -1L 244.5 0ZM 250.5 -5.55112e-17L 253.5 -5.55112e-17L 253.5 -1L 250.5 -1L 250.5 -5.55112e-17ZM 256.5 0L 259.5 0L 259.5 -1L 256.5 -1L 256.5 0ZM 262.5 0L 265.5 0L 265.5 -1L 262.5 -1L 262.5 0ZM 268.5 0L 271.5 0L 271.5 -1L 268.5 -1L 268.5 0ZM 274.5 0L 277.5 0L 277.5 -1L 274.5 -1L 274.5 0ZM 280.5 0L 283.5 0L 283.5 -1L 280.5 -1L 280.5 0ZM 286.5 0L 289.5 0L 289.5 -1L 286.5 -1L 286.5 0ZM 292.5 0L 295.5 0L 295.5 -1L 292.5 -1L 292.5 0ZM 298.5 0L 301.5 0L 301.5 -1L 298.5 -1L 298.5 0ZM 304.5 0L 307.5 0L 307.5 -1L 304.5 -1L 304.5 0ZM 310.5 0L 313.5 0L 313.5 -1L 310.5 -1L 310.5 0ZM 316.5 0L 319.5 0L 319.5 -1L 316.5 -1L 316.5 0ZM 322.5 0L 325.5 0L 325.5 -1L 322.5 -1L 322.5 0ZM 328.5 0L 330 0L 330 -1L 328.5 -1L 328.5 0Z"/>
<path id="path11_stroke" d="M 0 0L 1.5 0L 1.5 -1L 0 -1L 0 0ZM 4.5 0L 7.5 0L 7.5 -1L 4.5 -1L 4.5 0ZM 10.5 0L 13.5 0L 13.5 -1L 10.5 -1L 10.5 0ZM 16.5 0L 19.5 0L 19.5 -1L 16.5 -1L 16.5 0ZM 22.5 0L 24 0L 24 -1L 22.5 -1L 22.5 0Z"/>
<path id="path12_stroke" d="M 0 0L 1.5 0L 1.5 -1L 0 -1L 0 0ZM 4.5 0L 7.5 0L 7.5 -1L 4.5 -1L 4.5 0ZM 10.5 0L 13.5 0L 13.5 -1L 10.5 -1L 10.5 0ZM 16.5 0L 18 0L 18 -1L 16.5 -1L 16.5 0Z"/>
<path id="path13_stroke" d="M 0 0L 1.49091 0L 1.49091 -1L 0 -1L 0 0ZM 4.47273 0L 7.45455 0L 7.45455 -1L 4.47273 -1L 4.47273 0ZM 10.4364 0L 13.4182 0L 13.4182 -1L 10.4364 -1L 10.4364 0ZM 16.4 0L 19.3818 0L 19.3818 -1L 16.4 -1L 16.4 0ZM 22.3636 0L 25.3455 0L 25.3455 -1L 22.3636 -1L 22.3636 0ZM 28.3273 0L 31.3091 0L 31.3091 -1L 28.3273 -1L 28.3273 0ZM 34.2909 0L 37.2727 0L 37.2727 -1L 34.2909 -1L 34.2909 0ZM 40.2545 0L 43.2364 0L 43.2364 -1L 40.2545 -1L 40.2545 0ZM 46.2182 0L 49.2 0L 49.2 -1L 46.2182 -1L 46.2182 0ZM 52.1818 0L 55.1636 0L 55.1636 -1L 52.1818 -1L 52.1818 0ZM 58.1455 0L 61.1273 0L 61.1273 -1L 58.1455 -1L 58.1455 0ZM 64.1091 0L 67.0909 0L 67.0909 -1L 64.1091 -1L 64.1091 0ZM 70.0727 0L 73.0545 0L 73.0545 -1L 70.0727 -1L 70.0727 0ZM 76.0364 0L 79.0182 0L 79.0182 -1L 76.0364 -1L 76.0364 0ZM 82 0L 84.9818 0L 84.9818 -1L 82 -1L 82 0ZM 87.9636 -5.55112e-17L 90.9455 -5.55112e-17L 90.9455 -1L 87.9636 -1L 87.9636 -5.55112e-17ZM 93.9273 0L 96.9091 0L 96.9091 -1L 93.9273 -1L 93.9273 0ZM 99.8909 0L 102.873 0L 102.873 -1L 99.8909 -1L 99.8909 0ZM 105.855 0L 108.836 0L 108.836 -1L 105.855 -1L 105.855 0ZM 111.818 0L 114.8 0L 114.8 -1L 111.818 -1L 111.818 0ZM 117.782 0L 120.764 0L 120.764 -1L 117.782 -1L 117.782 0ZM 123.745 0L 126.727 0L 126.727 -1L 123.745 -1L 123.745 0ZM 129.709 0L 132.691 0L 132.691 -1L 129.709 -1L 129.709 0ZM 135.673 0L 138.655 0L 138.655 -1L 135.673 -1L 135.673 0ZM 141.636 0L 144.618 0L 144.618 -1L 141.636 -1L 141.636 0ZM 147.6 0L 150.582 0L 150.582 -1L 147.6 -1L 147.6 0ZM 153.564 0L 156.545 0L 156.545 -1L 153.564 -1L 153.564 0ZM 159.527 0L 162.509 0L 162.509 -1L 159.527 -1L 159.527 0ZM 165.491 0L 168.473 0L 168.473 -1L 165.491 -1L 165.491 0ZM 171.455 0L 174.436 0L 174.436 -1L 171.455 -1L 171.455 0ZM 177.418 0L 180.4 0L 180.4 -1L 177.418 -1L 177.418 0ZM 183.382 0L 186.364 0L 186.364 -1L 183.382 -1L 183.382 0ZM 189.345 0L 192.327 0L 192.327 -1L 189.345 -1L 189.345 0ZM 195.309 0L 198.291 0L 198.291 -1L 195.309 -1L 195.309 0ZM 201.273 -5.55112e-17L 204.255 -5.55112e-17L 204.255 -1L 201.273 -1L 201.273 -5.55112e-17ZM 207.236 0L 210.218 0L 210.218 -1L 207.236 -1L 207.236 0ZM 213.2 0L 216.182 0L 216.182 -1L 213.2 -1L 213.2 0ZM 219.164 0L 222.145 0L 222.145 -1L 219.164 -1L 219.164 0ZM 225.127 0L 228.109 0L 228.109 -1L 225.127 -1L 225.127 0ZM 231.091 0L 234.073 0L 234.073 -1L 231.091 -1L 231.091 0ZM 237.055 0L 240.036 0L 240.036 -1L 237.055 -1L 237.055 0ZM 243.018 -5.55112e-17L 246 -5.55112e-17L 246 -1L 243.018 -1L 243.018 -5.55112e-17ZM 248.982 0L 251.964 0L 251.964 -1L 248.982 -1L 248.982 0ZM 254.945 0L 257.927 0L 257.927 -1L 254.945 -1L 254.945 0ZM 260.909 0L 263.891 0L 263.891 -1L 260.909 -1L 260.909 0ZM 266.873 0L 269.855 0L 269.855 -1L 266.873 -1L 266.873 0ZM 272.836 0L 275.818 0L 275.818 -1L 272.836 -1L 272.836 0ZM 278.8 0L 281.782 0L 281.782 -1L 278.8 -1L 278.8 0ZM 284.764 0L 287.745 0L 287.745 -1L 284.764 -1L 284.764 0ZM 290.727 0L 293.709 0L 293.709 -1L 290.727 -1L 290.727 0ZM 296.691 0L 299.673 0L 299.673 -1L 296.691 -1L 296.691 0ZM 302.655 0L 305.636 0L 305.636 -1L 302.655 -1L 302.655 0ZM 308.618 0L 311.6 0L 311.6 -1L 308.618 -1L 308.618 0ZM 314.582 0L 317.564 0L 317.564 -1L 314.582 -1L 314.582 0ZM 320.545 0L 323.527 0L 323.527 -1L 320.545 -1L 320.545 0ZM 326.509 0L 328 0L 328 -1L 326.509 -1L 326.509 0Z"/>
</defs>
</svg>
