<svg width="35" height="293" viewBox="0 0 35 293" version="1.1" xmlns="http://www.w3.org/2000/svg" xmlns:xlink="http://www.w3.org/1999/xlink">
<title>Component</title>
<desc>Created using Figma</desc>
<g id="Canvas" transform="translate(276 -570)">
<g id="Component">
<g id="Line 8">
<use xlink:href="#path0_stroke" transform="translate(-267 571)"/>
</g>
<g id="Line 8">
<use xlink:href="#path0_stroke" transform="translate(-267 713)"/>
</g>
<g id="Line 9">
<use xlink:href="#path1_stroke" transform="matrix(6.12323e-17 1 -1 6.12323e-17 -254 571)"/>
</g>
<g id="Projeto">
<use xlink:href="#path2_fill" transform="matrix(6.12323e-17 -1 1 6.12323e-17 -276 666)"/>
</g>
<g id="Line 8">
<use xlink:href="#path0_stroke" transform="translate(-267 781)"/>
</g>
<g id="Line 8">
<use xlink:href="#path0_stroke" transform="translate(-267 863)"/>
</g>
<g id="Line 9">
<use xlink:href="#path3_stroke" transform="matrix(6.12323e-17 1 -1 6.12323e-17 -254 781)"/>
</g>
<g id="Execu&#195;&#167;&#195;&#163;o">
<use xlink:href="#path4_fill" transform="matrix(6.12323e-17 -1 1 6.12323e-17 -276 853)"/>
</g>
</g>
</g>
<defs>
<path id="path0_stroke" d="M 0 0L 26 0L 26 -1L 0 -1L 0 0Z"/>
<path id="path1_stroke" d="M 0 0L 141 0L 141 -1L 0 -1L 0 0Z"/>
<path id="path2_fill" d="M 2.46777 9.10352L 2.46777 13L 1.15527 13L 1.15527 3.04688L 4.82617 3.04688C 5.91536 3.04688 6.76758 3.32487 7.38281 3.88086C 8.0026 4.43685 8.3125 5.17285 8.3125 6.08887C 8.3125 7.05501 8.00944 7.80013 7.40332 8.32422C 6.80176 8.84375 5.93815 9.10352 4.8125 9.10352L 2.46777 9.10352ZM 2.46777 8.03027L 4.82617 8.03027C 5.52799 8.03027 6.06576 7.86621 6.43945 7.53809C 6.81315 7.2054 7 6.72689 7 6.10254C 7 5.51009 6.81315 5.03613 6.43945 4.68066C 6.06576 4.3252 5.55306 4.14062 4.90137 4.12695L 2.46777 4.12695L 2.46777 8.03027ZM 13.3643 6.73828C 13.1729 6.70638 12.9655 6.69043 12.7422 6.69043C 11.9128 6.69043 11.3499 7.04362 11.0537 7.75L 11.0537 13L 9.78906 13L 9.78906 5.60352L 11.0195 5.60352L 11.04 6.45801C 11.4548 5.7972 12.0426 5.4668 12.8037 5.4668C 13.0498 5.4668 13.2367 5.4987 13.3643 5.5625L 13.3643 6.73828ZM 14.0615 9.2334C 14.0615 8.50879 14.2028 7.8571 14.4854 7.27832C 14.7725 6.69954 15.1689 6.25293 15.6748 5.93848C 16.1852 5.62402 16.7663 5.4668 17.418 5.4668C 18.4251 5.4668 19.2386 5.81543 19.8584 6.5127C 20.4827 7.20996 20.7949 8.13737 20.7949 9.29492L 20.7949 9.38379C 20.7949 10.1038 20.6559 10.751 20.3779 11.3252C 20.1045 11.8949 19.7103 12.3392 19.1953 12.6582C 18.6849 12.9772 18.097 13.1367 17.4316 13.1367C 16.429 13.1367 15.6156 12.7881 14.9912 12.0908C 14.3714 11.3936 14.0615 10.4707 14.0615 9.32227L 14.0615 9.2334ZM 15.333 9.38379C 15.333 10.2041 15.5221 10.8626 15.9004 11.3594C 16.2832 11.8561 16.7936 12.1045 17.4316 12.1045C 18.0742 12.1045 18.5846 11.8538 18.9629 11.3525C 19.3411 10.8467 19.5303 10.1403 19.5303 9.2334C 19.5303 8.4222 19.3366 7.76595 18.9492 7.26465C 18.5664 6.75879 18.056 6.50586 17.418 6.50586C 16.7936 6.50586 16.29 6.75423 15.9072 7.25098C 15.5244 7.74772 15.333 8.45866 15.333 9.38379ZM 23.6865 5.60352L 23.6865 13.8545C 23.6865 15.2764 23.0417 15.9873 21.752 15.9873C 21.474 15.9873 21.2165 15.9463 20.9795 15.8643L 20.9795 14.8525C 21.1253 14.889 21.3167 14.9072 21.5537 14.9072C 21.8363 14.9072 22.0505 14.8298 22.1963 14.6748C 22.3467 14.5244 22.4219 14.2601 22.4219 13.8818L 22.4219 5.60352L 23.6865 5.60352ZM 22.292 3.6416C 22.292 3.44108 22.3535 3.27018 22.4766 3.12891C 22.6042 2.98307 22.7887 2.91016 23.0303 2.91016C 23.2764 2.91016 23.4632 2.98079 23.5908 3.12207C 23.7184 3.26335 23.7822 3.43652 23.7822 3.6416C 23.7822 3.84668 23.7184 4.01758 23.5908 4.1543C 23.4632 4.29102 23.2764 4.35938 23.0303 4.35938C 22.7842 4.35938 22.5996 4.29102 22.4766 4.1543C 22.3535 4.01758 22.292 3.84668 22.292 3.6416ZM 28.7998 13.1367C 27.7972 13.1367 26.9814 12.8086 26.3525 12.1523C 25.7236 11.4915 25.4092 10.6097 25.4092 9.50684L 25.4092 9.27441C 25.4092 8.54069 25.5482 7.88672 25.8262 7.3125C 26.1087 6.73372 26.5007 6.28255 27.002 5.95898C 27.5078 5.63086 28.0547 5.4668 28.6426 5.4668C 29.6042 5.4668 30.3516 5.78353 30.8848 6.41699C 31.418 7.05046 31.6846 7.95736 31.6846 9.1377L 31.6846 9.66406L 26.6738 9.66406C 26.6921 10.3932 26.904 10.9834 27.3096 11.4346C 27.7197 11.8812 28.2393 12.1045 28.8682 12.1045C 29.3148 12.1045 29.693 12.0133 30.0029 11.8311C 30.3128 11.6488 30.584 11.4072 30.8164 11.1064L 31.5889 11.708C 30.9691 12.6605 30.0394 13.1367 28.7998 13.1367ZM 28.6426 6.50586C 28.1322 6.50586 27.7038 6.69271 27.3574 7.06641C 27.0111 7.43555 26.7969 7.95508 26.7148 8.625L 30.4199 8.625L 30.4199 8.5293C 30.3835 7.88672 30.2103 7.38997 29.9004 7.03906C 29.5905 6.68359 29.1712 6.50586 28.6426 6.50586ZM 34.8701 3.8125L 34.8701 5.60352L 36.251 5.60352L 36.251 6.58105L 34.8701 6.58105L 34.8701 11.168C 34.8701 11.4642 34.9316 11.6875 35.0547 11.8379C 35.1777 11.9837 35.3874 12.0566 35.6836 12.0566C 35.8294 12.0566 36.0299 12.0293 36.2852 11.9746L 36.2852 13C 35.9525 13.0911 35.6289 13.1367 35.3145 13.1367C 34.7493 13.1367 34.3232 12.9658 34.0361 12.624C 33.749 12.2822 33.6055 11.7969 33.6055 11.168L 33.6055 6.58105L 32.2588 6.58105L 32.2588 5.60352L 33.6055 5.60352L 33.6055 3.8125L 34.8701 3.8125ZM 37.2627 9.2334C 37.2627 8.50879 37.404 7.8571 37.6865 7.27832C 37.9736 6.69954 38.3701 6.25293 38.876 5.93848C 39.3864 5.62402 39.9674 5.4668 40.6191 5.4668C 41.6263 5.4668 42.4398 5.81543 43.0596 6.5127C 43.6839 7.20996 43.9961 8.13737 43.9961 9.29492L 43.9961 9.38379C 43.9961 10.1038 43.8571 10.751 43.5791 11.3252C 43.3057 11.8949 42.9115 12.3392 42.3965 12.6582C 41.8861 12.9772 41.2982 13.1367 40.6328 13.1367C 39.6302 13.1367 38.8167 12.7881 38.1924 12.0908C 37.5726 11.3936 37.2627 10.4707 37.2627 9.32227L 37.2627 9.2334ZM 38.5342 9.38379C 38.5342 10.2041 38.7233 10.8626 39.1016 11.3594C 39.4844 11.8561 39.9948 12.1045 40.6328 12.1045C 41.2754 12.1045 41.7858 11.8538 42.1641 11.3525C 42.5423 10.8467 42.7314 10.1403 42.7314 9.2334C 42.7314 8.4222 42.5378 7.76595 42.1504 7.26465C 41.7676 6.75879 41.2572 6.50586 40.6191 6.50586C 39.9948 6.50586 39.4912 6.75423 39.1084 7.25098C 38.7256 7.74772 38.5342 8.45866 38.5342 9.38379Z"/>
<path id="path3_stroke" d="M 0 0L 82 0L 82 -1L 0 -1L 0 0Z"/>
<path id="path4_fill" d="M 6.78125 8.39941L 2.46777 8.39941L 2.46777 11.9268L 7.47852 11.9268L 7.47852 13L 1.15527 13L 1.15527 3.04688L 7.41016 3.04688L 7.41016 4.12695L 2.46777 4.12695L 2.46777 7.32617L 6.78125 7.32617L 6.78125 8.39941ZM 11.3955 8.30371L 13.0361 5.60352L 14.5127 5.60352L 12.0928 9.26074L 14.5879 13L 13.125 13L 11.416 10.2314L 9.70703 13L 8.2373 13L 10.7324 9.26074L 8.3125 5.60352L 9.77539 5.60352L 11.3955 8.30371ZM 18.792 13.1367C 17.7894 13.1367 16.9736 12.8086 16.3447 12.1523C 15.7158 11.4915 15.4014 10.6097 15.4014 9.50684L 15.4014 9.27441C 15.4014 8.54069 15.5404 7.88672 15.8184 7.3125C 16.1009 6.73372 16.4928 6.28255 16.9941 5.95898C 17.5 5.63086 18.0469 5.4668 18.6348 5.4668C 19.5964 5.4668 20.3438 5.78353 20.877 6.41699C 21.4102 7.05046 21.6768 7.95736 21.6768 9.1377L 21.6768 9.66406L 16.666 9.66406C 16.6842 10.3932 16.8962 10.9834 17.3018 11.4346C 17.7119 11.8812 18.2314 12.1045 18.8604 12.1045C 19.307 12.1045 19.6852 12.0133 19.9951 11.8311C 20.305 11.6488 20.5762 11.4072 20.8086 11.1064L 21.5811 11.708C 20.9613 12.6605 20.0316 13.1367 18.792 13.1367ZM 18.6348 6.50586C 18.1243 6.50586 17.696 6.69271 17.3496 7.06641C 17.0033 7.43555 16.7891 7.95508 16.707 8.625L 20.4121 8.625L 20.4121 8.5293C 20.3757 7.88672 20.2025 7.38997 19.8926 7.03906C 19.5827 6.68359 19.1634 6.50586 18.6348 6.50586ZM 26.1133 12.1045C 26.5645 12.1045 26.9587 11.9678 27.2959 11.6943C 27.6331 11.4209 27.82 11.0791 27.8564 10.6689L 29.0527 10.6689C 29.0299 11.0928 28.8841 11.4961 28.6152 11.8789C 28.3464 12.2617 27.9863 12.5671 27.5352 12.7949C 27.0885 13.0228 26.6146 13.1367 26.1133 13.1367C 25.1061 13.1367 24.304 12.8018 23.707 12.1318C 23.1146 11.4574 22.8184 10.5368 22.8184 9.37012L 22.8184 9.1582C 22.8184 8.43815 22.9505 7.79785 23.2148 7.2373C 23.4792 6.67676 23.8574 6.24154 24.3496 5.93164C 24.8464 5.62174 25.432 5.4668 26.1064 5.4668C 26.9359 5.4668 27.624 5.71517 28.1709 6.21191C 28.7223 6.70866 29.0163 7.35352 29.0527 8.14648L 27.8564 8.14648C 27.82 7.66797 27.6377 7.27604 27.3096 6.9707C 26.986 6.66081 26.585 6.50586 26.1064 6.50586C 25.4639 6.50586 24.9648 6.73828 24.6094 7.20312C 24.2585 7.66341 24.083 8.33105 24.083 9.20605L 24.083 9.44531C 24.083 10.2975 24.2585 10.9538 24.6094 11.4141C 24.9603 11.8743 25.4616 12.1045 26.1133 12.1045ZM 35.041 12.2686C 34.5488 12.8473 33.8265 13.1367 32.874 13.1367C 32.0856 13.1367 31.484 12.9089 31.0693 12.4531C 30.6592 11.9928 30.4518 11.3138 30.4473 10.416L 30.4473 5.60352L 31.7119 5.60352L 31.7119 10.3818C 31.7119 11.5029 32.1676 12.0635 33.0791 12.0635C 34.0452 12.0635 34.6878 11.7035 35.0068 10.9834L 35.0068 5.60352L 36.2715 5.60352L 36.2715 13L 35.0684 13L 35.041 12.2686ZM 41.166 12.1045C 41.6172 12.1045 42.0114 11.9678 42.3486 11.6943C 42.6859 11.4209 42.8727 11.0791 42.9092 10.6689L 44.1055 10.6689C 44.0827 11.0928 43.9368 11.4961 43.668 11.8789C 43.3991 12.2617 43.0391 12.5671 42.5879 12.7949C 42.1413 13.0228 41.6673 13.1367 41.166 13.1367C 40.1589 13.1367 39.3568 12.8018 38.7598 12.1318C 38.1673 11.4574 37.8711 10.5368 37.8711 9.37012L 37.8711 9.1582C 37.8711 8.43815 38.0033 7.79785 38.2676 7.2373C 38.5319 6.67676 38.9102 6.24154 39.4023 5.93164C 39.8991 5.62174 40.4847 5.4668 41.1592 5.4668C 41.9886 5.4668 42.6768 5.71517 43.2236 6.21191C 43.7751 6.70866 44.069 7.35352 44.1055 8.14648L 42.9092 8.14648C 42.8727 7.66797 42.6904 7.27604 42.3623 6.9707C 42.0387 6.66081 41.6377 6.50586 41.1592 6.50586C 40.5166 6.50586 40.0176 6.73828 39.6621 7.20312C 39.3112 7.66341 39.1357 8.33105 39.1357 9.20605L 39.1357 9.44531C 39.1357 10.2975 39.3112 10.9538 39.6621 11.4141C 40.013 11.8743 40.5143 12.1045 41.166 12.1045ZM 41.3711 13.0615L 41.2891 13.417C 41.9863 13.54 42.335 13.9342 42.335 14.5996C 42.335 15.0417 42.1527 15.3903 41.7881 15.6455C 41.4235 15.9053 40.9154 16.0352 40.2637 16.0352L 40.2158 15.3037C 40.5758 15.3037 40.8538 15.2445 41.0498 15.126C 41.2503 15.0075 41.3506 14.8411 41.3506 14.627C 41.3506 14.4264 41.2777 14.2783 41.1318 14.1826C 40.986 14.0869 40.6898 14.0186 40.2432 13.9775L 40.4619 13.0615L 41.3711 13.0615ZM 50.0938 13C 50.0208 12.8542 49.9616 12.5944 49.916 12.2207C 49.3281 12.8314 48.6263 13.1367 47.8105 13.1367C 47.0814 13.1367 46.4821 12.9316 46.0127 12.5215C 45.5479 12.1068 45.3154 11.5827 45.3154 10.9492C 45.3154 10.179 45.6071 9.58203 46.1904 9.1582C 46.7783 8.72982 47.6032 8.51562 48.665 8.51562L 49.8955 8.51562L 49.8955 7.93457C 49.8955 7.49251 49.7633 7.1416 49.499 6.88184C 49.2347 6.61751 48.8451 6.48535 48.3301 6.48535C 47.8789 6.48535 47.5007 6.59928 47.1953 6.82715C 46.89 7.05501 46.7373 7.33073 46.7373 7.6543L 45.4658 7.6543C 45.4658 7.28516 45.5957 6.92969 45.8555 6.58789C 46.1198 6.24154 46.4753 5.9681 46.9219 5.76758C 47.373 5.56706 47.8675 5.4668 48.4053 5.4668C 49.2575 5.4668 49.9251 5.68099 50.4082 6.10938C 50.8913 6.5332 51.1419 7.11882 51.1602 7.86621L 51.1602 11.2705C 51.1602 11.9495 51.2467 12.4896 51.4199 12.8906L 51.4199 13L 50.0938 13ZM 47.9951 12.0361C 48.3916 12.0361 48.7676 11.9336 49.123 11.7285C 49.4785 11.5234 49.736 11.2568 49.8955 10.9287L 49.8955 9.41113L 48.9043 9.41113C 47.3548 9.41113 46.5801 9.86458 46.5801 10.7715C 46.5801 11.168 46.7122 11.4779 46.9766 11.7012C 47.2409 11.9245 47.5804 12.0361 47.9951 12.0361ZM 50.9688 2.71875C 50.9688 3.21094 50.8275 3.6097 50.5449 3.91504C 50.2669 4.22038 49.9183 4.37305 49.499 4.37305C 49.3122 4.37305 49.1504 4.35026 49.0137 4.30469C 48.877 4.25911 48.6969 4.16569 48.4736 4.02441C 48.2549 3.88314 48.0954 3.79883 47.9951 3.77148C 47.8994 3.73958 47.7878 3.72363 47.6602 3.72363C 47.4733 3.72363 47.3138 3.79655 47.1816 3.94238C 47.0495 4.08366 46.9834 4.26595 46.9834 4.48926L 46.1357 4.44141C 46.1357 3.95378 46.2725 3.55046 46.5459 3.23145C 46.8239 2.91243 47.1748 2.75293 47.5986 2.75293C 47.7581 2.75293 47.9017 2.77572 48.0293 2.82129C 48.1569 2.86686 48.3301 2.95573 48.5488 3.08789C 48.7676 3.22005 48.9339 3.30664 49.0479 3.34766C 49.1663 3.38867 49.2962 3.40918 49.4375 3.40918C 49.6335 3.40918 49.7952 3.33171 49.9229 3.17676C 50.055 3.02181 50.1211 2.8418 50.1211 2.63672L 50.9688 2.71875ZM 52.8076 9.2334C 52.8076 8.50879 52.9489 7.8571 53.2314 7.27832C 53.5186 6.69954 53.915 6.25293 54.4209 5.93848C 54.9313 5.62402 55.5124 5.4668 56.1641 5.4668C 57.1712 5.4668 57.9847 5.81543 58.6045 6.5127C 59.2288 7.20996 59.541 8.13737 59.541 9.29492L 59.541 9.38379C 59.541 10.1038 59.402 10.751 59.124 11.3252C 58.8506 11.8949 58.4564 12.3392 57.9414 12.6582C 57.431 12.9772 56.8431 13.1367 56.1777 13.1367C 55.1751 13.1367 54.3617 12.7881 53.7373 12.0908C 53.1175 11.3936 52.8076 10.4707 52.8076 9.32227L 52.8076 9.2334ZM 54.0791 9.38379C 54.0791 10.2041 54.2682 10.8626 54.6465 11.3594C 55.0293 11.8561 55.5397 12.1045 56.1777 12.1045C 56.8203 12.1045 57.3307 11.8538 57.709 11.3525C 58.0872 10.8467 58.2764 10.1403 58.2764 9.2334C 58.2764 8.4222 58.0827 7.76595 57.6953 7.26465C 57.3125 6.75879 56.8021 6.50586 56.1641 6.50586C 55.5397 6.50586 55.0361 6.75423 54.6533 7.25098C 54.2705 7.74772 54.0791 8.45866 54.0791 9.38379Z"/>
</defs>
</svg>
