<svg width="4176" height="1520" viewBox="0 0 4176 1520" fill="none" xmlns="http://www.w3.org/2000/svg">
<rect width="4176" height="1520" fill="#886D6D"/>
<rect y="760" width="3256" height="625" fill="#5C4A4A"/>
<path d="M2624 1296L2204.94 1094.19L2101.44 640.729L2391.44 277.081L2856.56 277.081L3146.56 640.729L3043.06 1094.19L2624 1296Z" fill="#950808"/>
<line x1="2630.33" y1="770.778" x2="1886.33" y2="1207.78" stroke="#550505" stroke-width="25"/>
<line x1="926" y1="1205.5" x2="1894" y2="1205.5" stroke="#550505" stroke-width="25"/>
<line x1="2625.75" y1="770.823" x2="1945.75" y2="377.823" stroke="#550505" stroke-width="25"/>
<line x1="1489" y1="381.5" x2="1959" y2="381.5" stroke="#550505" stroke-width="25"/>
<line x1="2623.93" y1="765.45" x2="3247.93" y2="238.45" stroke="#550505" stroke-width="25"/>
<line x1="3241" y1="239.5" x2="3596" y2="239.5" stroke="#550505" stroke-width="25"/>
<line x1="2620.97" y1="771.873" x2="3400.62" y2="577.11" stroke="#550505" stroke-width="25"/>
<line x1="3393" y1="578.5" x2="3748" y2="578.5" stroke="#550505" stroke-width="25"/>
<line x1="2620.59" y1="765.916" x2="3144.23" y2="1260.92" stroke="#550505" stroke-width="25"/>
<line x1="3126" y1="1255.26" x2="3481" y2="1255.26" stroke="#550505" stroke-width="25"/>
<path d="M2624 640L2717.82 685.181L2740.99 786.703L2676.07 868.116H2571.93L2507.01 786.703L2530.18 685.181L2624 640Z" fill="#950808"/>
<circle cx="761" cy="1204" r="101" fill="#FC7070"/>
<rect x="1218" y="294" width="192" height="192" fill="#FE4C4C"/>
<rect x="3545" y="1248.76" width="192" height="192" transform="rotate(-45 3545 1248.76)" fill="#B71C1C"/>
<path d="M3902 702L3768.63 471L4035.37 471L3902 702Z" fill="#FC7070"/>
<path d="M3813 95L3942.34 188.974L3892.94 341.026H3733.06L3683.66 188.974L3813 95Z" fill="#EF1313"/>
</svg>
