<svg width="2380" height="2380" viewBox="0 0 2380 2380" fill="none" xmlns="http://www.w3.org/2000/svg">
<mask id="path-1-inside-1" fill="white">
<path d="M95.2 0H0V95.2H95.2V0Z"/>
<path d="M190.4 0H95.2V95.2H190.4V0Z"/>
<path d="M285.6 0H190.4V95.2H285.6V0Z"/>
<path d="M380.8 0H285.6V95.2H380.8V0Z"/>
<path d="M476 0H380.8V95.2H476V0Z"/>
<path d="M571.2 0H476V95.2H571.2V0Z"/>
<path d="M666.4 0H571.2V95.2H666.4V0Z"/>
<path d="M856.8 0H761.6V95.2H856.8V0Z"/>
<path d="M952 0H856.8V95.2H952V0Z"/>
<path d="M1047.2 0H952V95.2H1047.2V0Z"/>
<path d="M1237.6 0H1142.4V95.2H1237.6V0Z"/>
<path d="M1428 0H1332.8V95.2H1428V0Z"/>
<path d="M1618.4 0H1523.2V95.2H1618.4V0Z"/>
<path d="M1808.8 0H1713.6V95.2H1808.8V0Z"/>
<path d="M1904 0H1808.8V95.2H1904V0Z"/>
<path d="M1999.2 0H1904V95.2H1999.2V0Z"/>
<path d="M2094.4 0H1999.2V95.2H2094.4V0Z"/>
<path d="M2189.6 0H2094.4V95.2H2189.6V0Z"/>
<path d="M2284.8 0H2189.6V95.2H2284.8V0Z"/>
<path d="M2380 0H2284.8V95.2H2380V0Z"/>
<path d="M95.2 95.2H0V190.4H95.2V95.2Z"/>
<path d="M666.4 95.2H571.2L571.2 190.4H666.4V95.2Z"/>
<path d="M952 95.2H856.8V190.4H952V95.2Z"/>
<path d="M1142.4 95.2H1047.2V190.4H1142.4V95.2Z"/>
<path d="M1428 95.2H1332.8V190.4H1428V95.2Z"/>
<path d="M1618.4 95.2H1523.2V190.4H1618.4V95.2Z"/>
<path d="M1808.8 95.2H1713.6V190.4H1808.8V95.2Z"/>
<path d="M2380 95.2H2284.8V190.4H2380V95.2Z"/>
<path d="M95.2 190.4H0V285.6H95.2V190.4Z"/>
<path d="M285.6 190.4H190.4V285.6H285.6V190.4Z"/>
<path d="M380.8 190.4H285.6V285.6H380.8V190.4Z"/>
<path d="M476 190.4H380.8V285.6H476V190.4Z"/>
<path d="M666.4 190.4H571.2V285.6H666.4V190.4Z"/>
<path d="M856.8 190.4H761.6V285.6H856.8V190.4Z"/>
<path d="M1237.6 190.4H1142.4V285.6H1237.6V190.4Z"/>
<path d="M1332.8 190.4H1237.6V285.6H1332.8V190.4Z"/>
<path d="M1618.4 190.4H1523.2V285.6H1618.4V190.4Z"/>
<path d="M1808.8 190.4H1713.6V285.6H1808.8V190.4Z"/>
<path d="M1999.2 190.4H1904V285.6H1999.2V190.4Z"/>
<path d="M2094.4 190.4H1999.2V285.6H2094.4V190.4Z"/>
<path d="M2189.6 190.4H2094.4V285.6H2189.6V190.4Z"/>
<path d="M2380 190.4H2284.8V285.6H2380V190.4Z"/>
<path d="M95.2 285.6H0V380.8H95.2V285.6Z"/>
<path d="M285.6 285.6H190.4V380.8H285.6V285.6Z"/>
<path d="M380.8 285.6H285.6V380.8H380.8V285.6Z"/>
<path d="M476 285.6H380.8V380.8H476V285.6Z"/>
<path d="M666.4 285.6H571.2V380.8H666.4V285.6Z"/>
<path d="M1047.2 285.6H952V380.8H1047.2V285.6Z"/>
<path d="M1237.6 285.6H1142.4V380.8H1237.6V285.6Z"/>
<path d="M1332.8 285.6H1237.6V380.8H1332.8V285.6Z"/>
<path d="M1428 285.6H1332.8V380.8H1428V285.6Z"/>
<path d="M1808.8 285.6H1713.6V380.8H1808.8V285.6Z"/>
<path d="M1999.2 285.6H1904V380.8H1999.2V285.6Z"/>
<path d="M2094.4 285.6H1999.2V380.8H2094.4V285.6Z"/>
<path d="M2189.6 285.6H2094.4V380.8H2189.6V285.6Z"/>
<path d="M2380 285.6H2284.8V380.8H2380V285.6Z"/>
<path d="M95.2 380.8H0V476H95.2V380.8Z"/>
<path d="M285.6 380.8H190.4V476H285.6V380.8Z"/>
<path d="M380.8 380.8H285.6V476H380.8V380.8Z"/>
<path d="M476 380.8H380.8V476H476V380.8Z"/>
<path d="M666.4 380.8H571.2V476H666.4V380.8Z"/>
<path d="M952 380.8H856.8V476H952V380.8Z"/>
<path d="M1428 380.8H1332.8V476H1428V380.8Z"/>
<path d="M1618.4 380.8H1523.2V476H1618.4V380.8Z"/>
<path d="M1808.8 380.8H1713.6V476H1808.8V380.8Z"/>
<path d="M1999.2 380.8H1904V476H1999.2V380.8Z"/>
<path d="M2094.4 380.8H1999.2V476H2094.4V380.8Z"/>
<path d="M2189.6 380.8H2094.4V476H2189.6V380.8Z"/>
<path d="M2380 380.8H2284.8V476H2380V380.8Z"/>
<path d="M95.2 476H0V571.2H95.2V476Z"/>
<path d="M666.4 476H571.2V571.2H666.4V476Z"/>
<path d="M952 476H856.8V571.2H952V476Z"/>
<path d="M1047.2 476H952V571.2H1047.2V476Z"/>
<path d="M1142.4 476H1047.2V571.2H1142.4V476Z"/>
<path d="M1237.6 476H1142.4V571.2H1237.6V476Z"/>
<path d="M1523.2 476H1428L1428 571.2H1523.2V476Z"/>
<path d="M1618.4 476H1523.2V571.2H1618.4V476Z"/>
<path d="M1808.8 476H1713.6V571.2H1808.8V476Z"/>
<path d="M2380 476H2284.8V571.2H2380V476Z"/>
<path d="M95.2 571.2H0V666.4H95.2V571.2Z"/>
<path d="M190.4 571.2L95.2 571.2V666.4H190.4V571.2Z"/>
<path d="M285.6 571.2H190.4V666.4H285.6V571.2Z"/>
<path d="M380.8 571.2H285.6V666.4H380.8V571.2Z"/>
<path d="M476 571.2H380.8V666.4H476V571.2Z"/>
<path d="M571.2 571.2L476 571.2V666.4H571.2L571.2 571.2Z"/>
<path d="M666.4 571.2H571.2L571.2 666.4H666.4V571.2Z"/>
<path d="M856.8 571.2L761.6 571.2V666.4H856.8V571.2Z"/>
<path d="M1047.2 571.2H952V666.4H1047.2V571.2Z"/>
<path d="M1237.6 571.2H1142.4V666.4H1237.6V571.2Z"/>
<path d="M1428 571.2L1332.8 571.2V666.4H1428L1428 571.2Z"/>
<path d="M1618.4 571.2H1523.2V666.4H1618.4V571.2Z"/>
<path d="M1808.8 571.2H1713.6V666.4H1808.8V571.2Z"/>
<path d="M1904 571.2L1808.8 571.2V666.4H1904V571.2Z"/>
<path d="M1999.2 571.2H1904V666.4H1999.2V571.2Z"/>
<path d="M2094.4 571.2H1999.2V666.4H2094.4V571.2Z"/>
<path d="M2189.6 571.2H2094.4V666.4H2189.6V571.2Z"/>
<path d="M2284.8 571.2L2189.6 571.2V666.4H2284.8V571.2Z"/>
<path d="M2380 571.2H2284.8V666.4H2380V571.2Z"/>
<path d="M856.8 666.4H761.6V761.6H856.8V666.4Z"/>
<path d="M952 666.4H856.8V761.6H952V666.4Z"/>
<path d="M1047.2 666.4H952V761.6H1047.2V666.4Z"/>
<path d="M1237.6 666.4H1142.4V761.6H1237.6V666.4Z"/>
<path d="M1332.8 666.4H1237.6V761.6H1332.8V666.4Z"/>
<path d="M1523.2 666.4H1428L1428 761.6H1523.2V666.4Z"/>
<path d="M95.2 761.6H0V856.8H95.2V761.6Z"/>
<path d="M285.6 761.6H190.4V856.8H285.6V761.6Z"/>
<path d="M571.2 761.6H476V856.8H571.2V761.6Z"/>
<path d="M666.4 761.6H571.2V856.8H666.4V761.6Z"/>
<path d="M952 761.6H856.8V856.8H952V761.6Z"/>
<path d="M1047.2 761.6H952V856.8H1047.2V761.6Z"/>
<path d="M1332.8 761.6H1237.6V856.8H1332.8V761.6Z"/>
<path d="M1523.2 761.6H1428V856.8H1523.2V761.6Z"/>
<path d="M1713.6 761.6H1618.4V856.8H1713.6V761.6Z"/>
<path d="M1808.8 761.6H1713.6V856.8H1808.8V761.6Z"/>
<path d="M2189.6 761.6H2094.4V856.8H2189.6V761.6Z"/>
<path d="M2380 761.6H2284.8V856.8H2380V761.6Z"/>
<path d="M95.2 856.8H0V952H95.2V856.8Z"/>
<path d="M190.4 856.8H95.2V952H190.4V856.8Z"/>
<path d="M380.8 856.8H285.6V952H380.8V856.8Z"/>
<path d="M952 856.8H856.8V952H952V856.8Z"/>
<path d="M1142.4 856.8H1047.2V952H1142.4V856.8Z"/>
<path d="M1332.8 856.8H1237.6V952H1332.8V856.8Z"/>
<path d="M1713.6 856.8H1618.4V952H1713.6V856.8Z"/>
<path d="M1904 856.8H1808.8V952H1904V856.8Z"/>
<path d="M1999.2 856.8H1904V952H1999.2V856.8Z"/>
<path d="M2189.6 856.8H2094.4V952H2189.6V856.8Z"/>
<path d="M95.2 952H0V1047.2H95.2V952Z"/>
<path d="M190.4 952H95.2V1047.2H190.4V952Z"/>
<path d="M285.6 952H190.4V1047.2H285.6V952Z"/>
<path d="M571.2 952H476V1047.2H571.2V952Z"/>
<path d="M666.4 952H571.2V1047.2H666.4V952Z"/>
<path d="M856.8 952H761.6V1047.2H856.8V952Z"/>
<path d="M952 952H856.8V1047.2H952V952Z"/>
<path d="M1332.8 952H1237.6V1047.2H1332.8V952Z"/>
<path d="M1523.2 952H1428V1047.2H1523.2V952Z"/>
<path d="M1999.2 952H1904V1047.2H1999.2V952Z"/>
<path d="M2094.4 952H1999.2V1047.2H2094.4V952Z"/>
<path d="M2189.6 952H2094.4V1047.2H2189.6V952Z"/>
<path d="M380.8 1047.2H285.6V1142.4H380.8V1047.2Z"/>
<path d="M476 1047.2H380.8V1142.4H476V1047.2Z"/>
<path d="M761.6 1047.2H666.4V1142.4H761.6V1047.2Z"/>
<path d="M856.8 1047.2H761.6V1142.4H856.8V1047.2Z"/>
<path d="M952 1047.2H856.8V1142.4H952V1047.2Z"/>
<path d="M1047.2 1047.2H952V1142.4H1047.2V1047.2Z"/>
<path d="M1142.4 1047.2H1047.2V1142.4H1142.4V1047.2Z"/>
<path d="M1428 1047.2H1332.8V1142.4H1428L1428 1047.2Z"/>
<path d="M1618.4 1047.2H1523.2V1142.4H1618.4V1047.2Z"/>
<path d="M1904 1047.2H1808.8V1142.4H1904V1047.2Z"/>
<path d="M2189.6 1047.2H2094.4V1142.4H2189.6V1047.2Z"/>
<path d="M2380 1047.2H2284.8V1142.4H2380V1047.2Z"/>
<path d="M285.6 1142.4H190.4V1237.6H285.6V1142.4Z"/>
<path d="M571.2 1142.4H476V1237.6H571.2V1142.4Z"/>
<path d="M666.4 1142.4H571.2V1237.6H666.4V1142.4Z"/>
<path d="M856.8 1142.4H761.6V1237.6H856.8V1142.4Z"/>
<path d="M1047.2 1142.4H952V1237.6H1047.2V1142.4Z"/>
<path d="M1142.4 1142.4H1047.2V1237.6H1142.4V1142.4Z"/>
<path d="M1618.4 1142.4H1523.2V1237.6H1618.4V1142.4Z"/>
<path d="M1713.6 1142.4H1618.4V1237.6H1713.6V1142.4Z"/>
<path d="M1808.8 1142.4H1713.6V1237.6H1808.8V1142.4Z"/>
<path d="M1904 1142.4H1808.8V1237.6H1904V1142.4Z"/>
<path d="M2380 1142.4H2284.8V1237.6H2380V1142.4Z"/>
<path d="M285.6 1237.6H190.4V1332.8H285.6V1237.6Z"/>
<path d="M380.8 1237.6H285.6V1332.8H380.8V1237.6Z"/>
<path d="M476 1237.6H380.8V1332.8H476V1237.6Z"/>
<path d="M856.8 1237.6H761.6V1332.8H856.8V1237.6Z"/>
<path d="M1237.6 1237.6H1142.4V1332.8H1237.6V1237.6Z"/>
<path d="M1332.8 1237.6H1237.6V1332.8H1332.8V1237.6Z"/>
<path d="M1618.4 1237.6H1523.2V1332.8H1618.4V1237.6Z"/>
<path d="M1808.8 1237.6H1713.6V1332.8H1808.8V1237.6Z"/>
<path d="M1999.2 1237.6H1904V1332.8H1999.2V1237.6Z"/>
<path d="M2094.4 1237.6H1999.2V1332.8H2094.4V1237.6Z"/>
<path d="M2284.8 1237.6H2189.6V1332.8H2284.8V1237.6Z"/>
<path d="M2380 1237.6H2284.8V1332.8H2380V1237.6Z"/>
<path d="M380.8 1332.8H285.6V1428H380.8V1332.8Z"/>
<path d="M476 1332.8H380.8V1428H476V1332.8Z"/>
<path d="M571.2 1332.8H476V1428H571.2V1332.8Z"/>
<path d="M666.4 1332.8H571.2V1428H666.4V1332.8Z"/>
<path d="M952 1332.8H856.8V1428H952V1332.8Z"/>
<path d="M1142.4 1332.8H1047.2V1428H1142.4V1332.8Z"/>
<path d="M1523.2 1332.8H1428V1428H1523.2V1332.8Z"/>
<path d="M1713.6 1332.8H1618.4V1428H1713.6V1332.8Z"/>
<path d="M1808.8 1332.8H1713.6V1428H1808.8V1332.8Z"/>
<path d="M1904 1332.8H1808.8V1428H1904V1332.8Z"/>
<path d="M1999.2 1332.8H1904V1428H1999.2V1332.8Z"/>
<path d="M285.6 1428L190.4 1428V1523.2H285.6V1428Z"/>
<path d="M761.6 1428L666.4 1428V1523.2H761.6V1428Z"/>
<path d="M856.8 1428L761.6 1428V1523.2H856.8V1428Z"/>
<path d="M952 1428H856.8V1523.2H952V1428Z"/>
<path d="M1047.2 1428H952V1523.2H1047.2V1428Z"/>
<path d="M1142.4 1428H1047.2V1523.2H1142.4V1428Z"/>
<path d="M1332.8 1428H1237.6V1523.2H1332.8V1428Z"/>
<path d="M1428 1428L1332.8 1428V1523.2H1428L1428 1428Z"/>
<path d="M1713.6 1428H1618.4V1523.2H1713.6V1428Z"/>
<path d="M1904 1428H1808.8V1523.2H1904V1428Z"/>
<path d="M1999.2 1428H1904V1523.2H1999.2V1428Z"/>
<path d="M95.2 1523.2H0V1618.4H95.2V1523.2Z"/>
<path d="M285.6 1523.2H190.4V1618.4H285.6V1523.2Z"/>
<path d="M380.8 1523.2H285.6V1618.4H380.8V1523.2Z"/>
<path d="M666.4 1523.2H571.2V1618.4H666.4V1523.2Z"/>
<path d="M1142.4 1523.2H1047.2V1618.4H1142.4V1523.2Z"/>
<path d="M1237.6 1523.2H1142.4V1618.4H1237.6V1523.2Z"/>
<path d="M1618.4 1523.2H1523.2V1618.4H1618.4V1523.2Z"/>
<path d="M1713.6 1523.2H1618.4V1618.4H1713.6V1523.2Z"/>
<path d="M1808.8 1523.2H1713.6V1618.4H1808.8V1523.2Z"/>
<path d="M1904 1523.2H1808.8V1618.4H1904V1523.2Z"/>
<path d="M1999.2 1523.2H1904V1618.4H1999.2V1523.2Z"/>
<path d="M2284.8 1523.2H2189.6V1618.4H2284.8V1523.2Z"/>
<path d="M2380 1523.2H2284.8V1618.4H2380V1523.2Z"/>
<path d="M1047.2 1618.4H952V1713.6H1047.2V1618.4Z"/>
<path d="M1142.4 1618.4H1047.2V1713.6H1142.4V1618.4Z"/>
<path d="M1332.8 1618.4H1237.6V1713.6H1332.8V1618.4Z"/>
<path d="M1618.4 1618.4H1523.2V1713.6H1618.4V1618.4Z"/>
<path d="M1999.2 1618.4H1904V1713.6H1999.2V1618.4Z"/>
<path d="M2189.6 1618.4H2094.4V1713.6H2189.6V1618.4Z"/>
<path d="M2284.8 1618.4H2189.6V1713.6H2284.8V1618.4Z"/>
<path d="M2380 1618.4H2284.8V1713.6H2380V1618.4Z"/>
<path d="M95.2 1713.6H0V1808.8H95.2V1713.6Z"/>
<path d="M190.4 1713.6H95.2V1808.8H190.4V1713.6Z"/>
<path d="M285.6 1713.6H190.4V1808.8H285.6V1713.6Z"/>
<path d="M380.8 1713.6H285.6V1808.8H380.8V1713.6Z"/>
<path d="M476 1713.6H380.8V1808.8H476V1713.6Z"/>
<path d="M571.2 1713.6H476V1808.8H571.2V1713.6Z"/>
<path d="M666.4 1713.6H571.2V1808.8H666.4V1713.6Z"/>
<path d="M952 1713.6H856.8V1808.8H952V1713.6Z"/>
<path d="M1237.6 1713.6H1142.4V1808.8H1237.6V1713.6Z"/>
<path d="M1332.8 1713.6H1237.6V1808.8H1332.8V1713.6Z"/>
<path d="M1428 1713.6H1332.8V1808.8H1428V1713.6Z"/>
<path d="M1618.4 1713.6H1523.2V1808.8H1618.4V1713.6Z"/>
<path d="M1808.8 1713.6H1713.6V1808.8H1808.8V1713.6Z"/>
<path d="M1999.2 1713.6H1904V1808.8H1999.2V1713.6Z"/>
<path d="M2284.8 1713.6H2189.6V1808.8H2284.8V1713.6Z"/>
<path d="M95.2 1808.8H0V1904H95.2V1808.8Z"/>
<path d="M666.4 1808.8H571.2L571.2 1904H666.4V1808.8Z"/>
<path d="M856.8 1808.8H761.6V1904H856.8V1808.8Z"/>
<path d="M952 1808.8H856.8V1904H952V1808.8Z"/>
<path d="M1047.2 1808.8H952V1904H1047.2V1808.8Z"/>
<path d="M1237.6 1808.8H1142.4V1904H1237.6V1808.8Z"/>
<path d="M1332.8 1808.8H1237.6V1904H1332.8V1808.8Z"/>
<path d="M1523.2 1808.8H1428L1428 1904H1523.2V1808.8Z"/>
<path d="M1618.4 1808.8H1523.2V1904H1618.4V1808.8Z"/>
<path d="M1999.2 1808.8H1904V1904H1999.2V1808.8Z"/>
<path d="M2189.6 1808.8H2094.4V1904H2189.6V1808.8Z"/>
<path d="M2284.8 1808.8H2189.6V1904H2284.8V1808.8Z"/>
<path d="M95.2 1904H0V1999.2H95.2V1904Z"/>
<path d="M285.6 1904H190.4V1999.2H285.6V1904Z"/>
<path d="M380.8 1904H285.6V1999.2H380.8V1904Z"/>
<path d="M476 1904H380.8V1999.2H476V1904Z"/>
<path d="M666.4 1904H571.2V1999.2H666.4V1904Z"/>
<path d="M1523.2 1904H1428V1999.2H1523.2V1904Z"/>
<path d="M1618.4 1904H1523.2V1999.2H1618.4V1904Z"/>
<path d="M1713.6 1904H1618.4V1999.2H1713.6V1904Z"/>
<path d="M1808.8 1904H1713.6V1999.2H1808.8V1904Z"/>
<path d="M1904 1904H1808.8V1999.2H1904V1904Z"/>
<path d="M1999.2 1904H1904V1999.2H1999.2V1904Z"/>
<path d="M2094.4 1904H1999.2V1999.2H2094.4V1904Z"/>
<path d="M2189.6 1904H2094.4V1999.2H2189.6V1904Z"/>
<path d="M2284.8 1904H2189.6V1999.2H2284.8V1904Z"/>
<path d="M95.2 1999.2H0V2094.4H95.2V1999.2Z"/>
<path d="M285.6 1999.2H190.4V2094.4H285.6V1999.2Z"/>
<path d="M380.8 1999.2H285.6V2094.4H380.8V1999.2Z"/>
<path d="M476 1999.2H380.8V2094.4H476V1999.2Z"/>
<path d="M666.4 1999.2H571.2V2094.4H666.4V1999.2Z"/>
<path d="M952 1999.2H856.8V2094.4H952V1999.2Z"/>
<path d="M1047.2 1999.2H952V2094.4H1047.2V1999.2Z"/>
<path d="M1142.4 1999.2H1047.2V2094.4H1142.4V1999.2Z"/>
<path d="M1428 1999.2H1332.8V2094.4H1428L1428 1999.2Z"/>
<path d="M1523.2 1999.2H1428L1428 2094.4H1523.2V1999.2Z"/>
<path d="M2189.6 1999.2H2094.4V2094.4H2189.6V1999.2Z"/>
<path d="M2380 1999.2H2284.8V2094.4H2380V1999.2Z"/>
<path d="M95.2 2094.4H0V2189.6H95.2V2094.4Z"/>
<path d="M285.6 2094.4H190.4V2189.6H285.6V2094.4Z"/>
<path d="M380.8 2094.4H285.6V2189.6H380.8V2094.4Z"/>
<path d="M476 2094.4H380.8V2189.6H476V2094.4Z"/>
<path d="M666.4 2094.4H571.2V2189.6H666.4V2094.4Z"/>
<path d="M856.8 2094.4H761.6V2189.6H856.8V2094.4Z"/>
<path d="M1047.2 2094.4H952V2189.6H1047.2V2094.4Z"/>
<path d="M1428 2094.4H1332.8V2189.6H1428V2094.4Z"/>
<path d="M2094.4 2094.4H1999.2V2189.6H2094.4V2094.4Z"/>
<path d="M95.2 2189.6H0V2284.8H95.2V2189.6Z"/>
<path d="M666.4 2189.6H571.2V2284.8H666.4V2189.6Z"/>
<path d="M952 2189.6H856.8V2284.8H952V2189.6Z"/>
<path d="M1332.8 2189.6H1237.6V2284.8H1332.8V2189.6Z"/>
<path d="M1618.4 2189.6H1523.2V2284.8H1618.4V2189.6Z"/>
<path d="M2094.4 2189.6H1999.2V2284.8H2094.4V2189.6Z"/>
<path d="M2189.6 2189.6H2094.4V2284.8H2189.6V2189.6Z"/>
<path d="M95.2 2284.8H0V2380H95.2V2284.8Z"/>
<path d="M190.4 2284.8H95.2V2380H190.4V2284.8Z"/>
<path d="M285.6 2284.8H190.4V2380H285.6V2284.8Z"/>
<path d="M380.8 2284.8H285.6V2380H380.8V2284.8Z"/>
<path d="M476 2284.8H380.8V2380H476V2284.8Z"/>
<path d="M571.2 2284.8H476V2380H571.2L571.2 2284.8Z"/>
<path d="M666.4 2284.8H571.2L571.2 2380H666.4V2284.8Z"/>
<path d="M856.8 2284.8H761.6V2380H856.8V2284.8Z"/>
<path d="M952 2284.8H856.8V2380H952V2284.8Z"/>
<path d="M1047.2 2284.8H952V2380H1047.2V2284.8Z"/>
<path d="M1237.6 2284.8H1142.4V2380H1237.6V2284.8Z"/>
<path d="M1332.8 2284.8H1237.6V2380H1332.8V2284.8Z"/>
<path d="M1428 2284.8H1332.8V2380H1428V2284.8Z"/>
<path d="M1713.6 2284.8H1618.4V2380H1713.6V2284.8Z"/>
<path d="M1808.8 2284.8H1713.6V2380H1808.8V2284.8Z"/>
<path d="M1904 2284.8H1808.8V2380H1904V2284.8Z"/>
<path d="M1999.2 2284.8H1904V2380H1999.2V2284.8Z"/>
<path d="M2189.6 2284.8H2094.4V2380H2189.6V2284.8Z"/>
<path d="M2380 2284.8H2284.8V2380H2380V2284.8Z"/>
</mask>
<path d="M95.2 0H0V95.2H95.2V0Z" fill="white"/>
<path d="M190.4 0H95.2V95.2H190.4V0Z" fill="white"/>
<path d="M285.6 0H190.4V95.2H285.6V0Z" fill="white"/>
<path d="M380.8 0H285.6V95.2H380.8V0Z" fill="white"/>
<path d="M476 0H380.8V95.2H476V0Z" fill="white"/>
<path d="M571.2 0H476V95.2H571.2V0Z" fill="white"/>
<path d="M666.4 0H571.2V95.2H666.4V0Z" fill="white"/>
<path d="M856.8 0H761.6V95.2H856.8V0Z" fill="white"/>
<path d="M952 0H856.8V95.2H952V0Z" fill="white"/>
<path d="M1047.2 0H952V95.2H1047.2V0Z" fill="white"/>
<path d="M1237.6 0H1142.4V95.2H1237.6V0Z" fill="white"/>
<path d="M1428 0H1332.8V95.2H1428V0Z" fill="white"/>
<path d="M1618.4 0H1523.2V95.2H1618.4V0Z" fill="white"/>
<path d="M1808.8 0H1713.6V95.2H1808.8V0Z" fill="white"/>
<path d="M1904 0H1808.8V95.2H1904V0Z" fill="white"/>
<path d="M1999.2 0H1904V95.2H1999.2V0Z" fill="white"/>
<path d="M2094.4 0H1999.2V95.2H2094.4V0Z" fill="white"/>
<path d="M2189.6 0H2094.4V95.2H2189.6V0Z" fill="white"/>
<path d="M2284.8 0H2189.6V95.2H2284.8V0Z" fill="white"/>
<path d="M2380 0H2284.8V95.2H2380V0Z" fill="white"/>
<path d="M95.2 95.2H0V190.4H95.2V95.2Z" fill="white"/>
<path d="M666.4 95.2H571.2L571.2 190.4H666.4V95.2Z" fill="white"/>
<path d="M952 95.2H856.8V190.4H952V95.2Z" fill="white"/>
<path d="M1142.4 95.2H1047.2V190.4H1142.4V95.2Z" fill="white"/>
<path d="M1428 95.2H1332.8V190.4H1428V95.2Z" fill="white"/>
<path d="M1618.4 95.2H1523.2V190.4H1618.4V95.2Z" fill="white"/>
<path d="M1808.8 95.2H1713.6V190.4H1808.8V95.2Z" fill="white"/>
<path d="M2380 95.2H2284.8V190.4H2380V95.2Z" fill="white"/>
<path d="M95.2 190.4H0V285.6H95.2V190.4Z" fill="white"/>
<path d="M285.6 190.4H190.4V285.6H285.6V190.4Z" fill="white"/>
<path d="M380.8 190.4H285.6V285.6H380.8V190.4Z" fill="white"/>
<path d="M476 190.4H380.8V285.6H476V190.4Z" fill="white"/>
<path d="M666.4 190.4H571.2V285.6H666.4V190.4Z" fill="white"/>
<path d="M856.8 190.4H761.6V285.6H856.8V190.4Z" fill="white"/>
<path d="M1237.6 190.4H1142.4V285.6H1237.6V190.4Z" fill="white"/>
<path d="M1332.8 190.4H1237.6V285.6H1332.8V190.4Z" fill="white"/>
<path d="M1618.4 190.4H1523.2V285.6H1618.4V190.4Z" fill="white"/>
<path d="M1808.8 190.4H1713.6V285.6H1808.8V190.4Z" fill="white"/>
<path d="M1999.2 190.4H1904V285.6H1999.2V190.4Z" fill="white"/>
<path d="M2094.4 190.4H1999.2V285.6H2094.4V190.4Z" fill="white"/>
<path d="M2189.6 190.4H2094.4V285.6H2189.6V190.4Z" fill="white"/>
<path d="M2380 190.4H2284.8V285.6H2380V190.4Z" fill="white"/>
<path d="M95.2 285.6H0V380.8H95.2V285.6Z" fill="white"/>
<path d="M285.6 285.6H190.4V380.8H285.6V285.6Z" fill="white"/>
<path d="M380.8 285.6H285.6V380.8H380.8V285.6Z" fill="white"/>
<path d="M476 285.6H380.8V380.8H476V285.6Z" fill="white"/>
<path d="M666.4 285.6H571.2V380.8H666.4V285.6Z" fill="white"/>
<path d="M1047.2 285.6H952V380.8H1047.2V285.6Z" fill="white"/>
<path d="M1237.6 285.6H1142.4V380.8H1237.6V285.6Z" fill="white"/>
<path d="M1332.8 285.6H1237.6V380.8H1332.8V285.6Z" fill="white"/>
<path d="M1428 285.6H1332.8V380.8H1428V285.6Z" fill="white"/>
<path d="M1808.8 285.6H1713.6V380.8H1808.8V285.6Z" fill="white"/>
<path d="M1999.2 285.6H1904V380.8H1999.2V285.6Z" fill="white"/>
<path d="M2094.4 285.6H1999.2V380.8H2094.4V285.6Z" fill="white"/>
<path d="M2189.6 285.6H2094.4V380.8H2189.6V285.6Z" fill="white"/>
<path d="M2380 285.6H2284.8V380.8H2380V285.6Z" fill="white"/>
<path d="M95.2 380.8H0V476H95.2V380.8Z" fill="white"/>
<path d="M285.6 380.8H190.4V476H285.6V380.8Z" fill="white"/>
<path d="M380.8 380.8H285.6V476H380.8V380.8Z" fill="white"/>
<path d="M476 380.8H380.8V476H476V380.8Z" fill="white"/>
<path d="M666.4 380.8H571.2V476H666.4V380.8Z" fill="white"/>
<path d="M952 380.8H856.8V476H952V380.8Z" fill="white"/>
<path d="M1428 380.8H1332.8V476H1428V380.8Z" fill="white"/>
<path d="M1618.4 380.8H1523.2V476H1618.4V380.8Z" fill="white"/>
<path d="M1808.8 380.8H1713.6V476H1808.8V380.8Z" fill="white"/>
<path d="M1999.2 380.8H1904V476H1999.2V380.8Z" fill="white"/>
<path d="M2094.4 380.8H1999.2V476H2094.4V380.8Z" fill="white"/>
<path d="M2189.6 380.8H2094.4V476H2189.6V380.8Z" fill="white"/>
<path d="M2380 380.8H2284.8V476H2380V380.8Z" fill="white"/>
<path d="M95.2 476H0V571.2H95.2V476Z" fill="white"/>
<path d="M666.4 476H571.2V571.2H666.4V476Z" fill="white"/>
<path d="M952 476H856.8V571.2H952V476Z" fill="white"/>
<path d="M1047.2 476H952V571.2H1047.2V476Z" fill="white"/>
<path d="M1142.4 476H1047.2V571.2H1142.4V476Z" fill="white"/>
<path d="M1237.6 476H1142.4V571.2H1237.6V476Z" fill="white"/>
<path d="M1523.2 476H1428L1428 571.2H1523.2V476Z" fill="white"/>
<path d="M1618.4 476H1523.2V571.2H1618.4V476Z" fill="white"/>
<path d="M1808.8 476H1713.6V571.2H1808.8V476Z" fill="white"/>
<path d="M2380 476H2284.8V571.2H2380V476Z" fill="white"/>
<path d="M95.2 571.2H0V666.4H95.2V571.2Z" fill="white"/>
<path d="M190.4 571.2L95.2 571.2V666.4H190.4V571.2Z" fill="white"/>
<path d="M285.6 571.2H190.4V666.4H285.6V571.2Z" fill="white"/>
<path d="M380.8 571.2H285.6V666.4H380.8V571.2Z" fill="white"/>
<path d="M476 571.2H380.8V666.4H476V571.2Z" fill="white"/>
<path d="M571.2 571.2L476 571.2V666.4H571.2L571.2 571.2Z" fill="white"/>
<path d="M666.4 571.2H571.2L571.2 666.4H666.4V571.2Z" fill="white"/>
<path d="M856.8 571.2L761.6 571.2V666.4H856.8V571.2Z" fill="white"/>
<path d="M1047.2 571.2H952V666.4H1047.2V571.2Z" fill="white"/>
<path d="M1237.6 571.2H1142.4V666.4H1237.6V571.2Z" fill="white"/>
<path d="M1428 571.2L1332.8 571.2V666.4H1428L1428 571.2Z" fill="white"/>
<path d="M1618.4 571.2H1523.2V666.4H1618.4V571.2Z" fill="white"/>
<path d="M1808.8 571.2H1713.6V666.4H1808.8V571.2Z" fill="white"/>
<path d="M1904 571.2L1808.8 571.2V666.4H1904V571.2Z" fill="white"/>
<path d="M1999.2 571.2H1904V666.4H1999.2V571.2Z" fill="white"/>
<path d="M2094.4 571.2H1999.2V666.4H2094.4V571.2Z" fill="white"/>
<path d="M2189.6 571.2H2094.4V666.4H2189.6V571.2Z" fill="white"/>
<path d="M2284.8 571.2L2189.6 571.2V666.4H2284.8V571.2Z" fill="white"/>
<path d="M2380 571.2H2284.8V666.4H2380V571.2Z" fill="white"/>
<path d="M856.8 666.4H761.6V761.6H856.8V666.4Z" fill="white"/>
<path d="M952 666.4H856.8V761.6H952V666.4Z" fill="white"/>
<path d="M1047.2 666.4H952V761.6H1047.2V666.4Z" fill="white"/>
<path d="M1237.6 666.4H1142.4V761.6H1237.6V666.4Z" fill="white"/>
<path d="M1332.8 666.4H1237.6V761.6H1332.8V666.4Z" fill="white"/>
<path d="M1523.2 666.4H1428L1428 761.6H1523.2V666.4Z" fill="white"/>
<path d="M95.2 761.6H0V856.8H95.2V761.6Z" fill="white"/>
<path d="M285.6 761.6H190.4V856.8H285.6V761.6Z" fill="white"/>
<path d="M571.2 761.6H476V856.8H571.2V761.6Z" fill="white"/>
<path d="M666.4 761.6H571.2V856.8H666.4V761.6Z" fill="white"/>
<path d="M952 761.6H856.8V856.8H952V761.6Z" fill="white"/>
<path d="M1047.2 761.6H952V856.8H1047.2V761.6Z" fill="white"/>
<path d="M1332.8 761.6H1237.6V856.8H1332.8V761.6Z" fill="white"/>
<path d="M1523.2 761.6H1428V856.8H1523.2V761.6Z" fill="white"/>
<path d="M1713.6 761.6H1618.4V856.8H1713.6V761.6Z" fill="white"/>
<path d="M1808.8 761.6H1713.6V856.8H1808.8V761.6Z" fill="white"/>
<path d="M2189.6 761.6H2094.4V856.8H2189.6V761.6Z" fill="white"/>
<path d="M2380 761.6H2284.8V856.8H2380V761.6Z" fill="white"/>
<path d="M95.2 856.8H0V952H95.2V856.8Z" fill="white"/>
<path d="M190.4 856.8H95.2V952H190.4V856.8Z" fill="white"/>
<path d="M380.8 856.8H285.6V952H380.8V856.8Z" fill="white"/>
<path d="M952 856.8H856.8V952H952V856.8Z" fill="white"/>
<path d="M1142.4 856.8H1047.2V952H1142.4V856.8Z" fill="white"/>
<path d="M1332.8 856.8H1237.6V952H1332.8V856.8Z" fill="white"/>
<path d="M1713.6 856.8H1618.4V952H1713.6V856.8Z" fill="white"/>
<path d="M1904 856.8H1808.8V952H1904V856.8Z" fill="white"/>
<path d="M1999.2 856.8H1904V952H1999.2V856.8Z" fill="white"/>
<path d="M2189.6 856.8H2094.4V952H2189.6V856.8Z" fill="white"/>
<path d="M95.2 952H0V1047.2H95.2V952Z" fill="white"/>
<path d="M190.4 952H95.2V1047.2H190.4V952Z" fill="white"/>
<path d="M285.6 952H190.4V1047.2H285.6V952Z" fill="white"/>
<path d="M571.2 952H476V1047.2H571.2V952Z" fill="white"/>
<path d="M666.4 952H571.2V1047.2H666.4V952Z" fill="white"/>
<path d="M856.8 952H761.6V1047.2H856.8V952Z" fill="white"/>
<path d="M952 952H856.8V1047.2H952V952Z" fill="white"/>
<path d="M1332.8 952H1237.6V1047.2H1332.8V952Z" fill="white"/>
<path d="M1523.2 952H1428V1047.2H1523.2V952Z" fill="white"/>
<path d="M1999.2 952H1904V1047.2H1999.2V952Z" fill="white"/>
<path d="M2094.4 952H1999.2V1047.2H2094.4V952Z" fill="white"/>
<path d="M2189.6 952H2094.4V1047.2H2189.6V952Z" fill="white"/>
<path d="M380.8 1047.2H285.6V1142.4H380.8V1047.2Z" fill="white"/>
<path d="M476 1047.2H380.8V1142.4H476V1047.2Z" fill="white"/>
<path d="M761.6 1047.2H666.4V1142.4H761.6V1047.2Z" fill="white"/>
<path d="M856.8 1047.2H761.6V1142.4H856.8V1047.2Z" fill="white"/>
<path d="M952 1047.2H856.8V1142.4H952V1047.2Z" fill="white"/>
<path d="M1047.2 1047.2H952V1142.4H1047.2V1047.2Z" fill="white"/>
<path d="M1142.4 1047.2H1047.2V1142.4H1142.4V1047.2Z" fill="white"/>
<path d="M1428 1047.2H1332.8V1142.4H1428L1428 1047.2Z" fill="white"/>
<path d="M1618.4 1047.2H1523.2V1142.4H1618.4V1047.2Z" fill="white"/>
<path d="M1904 1047.2H1808.8V1142.4H1904V1047.2Z" fill="white"/>
<path d="M2189.6 1047.2H2094.4V1142.4H2189.6V1047.2Z" fill="white"/>
<path d="M2380 1047.2H2284.8V1142.4H2380V1047.2Z" fill="white"/>
<path d="M285.6 1142.4H190.4V1237.6H285.6V1142.4Z" fill="white"/>
<path d="M571.2 1142.4H476V1237.6H571.2V1142.4Z" fill="white"/>
<path d="M666.4 1142.4H571.2V1237.6H666.4V1142.4Z" fill="white"/>
<path d="M856.8 1142.4H761.6V1237.6H856.8V1142.4Z" fill="white"/>
<path d="M1047.2 1142.4H952V1237.6H1047.2V1142.4Z" fill="white"/>
<path d="M1142.4 1142.4H1047.2V1237.6H1142.4V1142.4Z" fill="white"/>
<path d="M1618.4 1142.4H1523.2V1237.6H1618.4V1142.4Z" fill="white"/>
<path d="M1713.6 1142.4H1618.4V1237.6H1713.6V1142.4Z" fill="white"/>
<path d="M1808.8 1142.4H1713.6V1237.6H1808.8V1142.4Z" fill="white"/>
<path d="M1904 1142.4H1808.8V1237.6H1904V1142.4Z" fill="white"/>
<path d="M2380 1142.4H2284.8V1237.6H2380V1142.4Z" fill="white"/>
<path d="M285.6 1237.6H190.4V1332.8H285.6V1237.6Z" fill="white"/>
<path d="M380.8 1237.6H285.6V1332.8H380.8V1237.6Z" fill="white"/>
<path d="M476 1237.6H380.8V1332.8H476V1237.6Z" fill="white"/>
<path d="M856.8 1237.6H761.6V1332.8H856.8V1237.6Z" fill="white"/>
<path d="M1237.6 1237.6H1142.4V1332.8H1237.6V1237.6Z" fill="white"/>
<path d="M1332.8 1237.6H1237.6V1332.8H1332.8V1237.6Z" fill="white"/>
<path d="M1618.4 1237.6H1523.2V1332.8H1618.4V1237.6Z" fill="white"/>
<path d="M1808.8 1237.6H1713.6V1332.8H1808.8V1237.6Z" fill="white"/>
<path d="M1999.2 1237.6H1904V1332.8H1999.2V1237.6Z" fill="white"/>
<path d="M2094.4 1237.6H1999.2V1332.8H2094.4V1237.6Z" fill="white"/>
<path d="M2284.8 1237.6H2189.6V1332.8H2284.8V1237.6Z" fill="white"/>
<path d="M2380 1237.6H2284.8V1332.8H2380V1237.6Z" fill="white"/>
<path d="M380.8 1332.8H285.6V1428H380.8V1332.8Z" fill="white"/>
<path d="M476 1332.8H380.8V1428H476V1332.8Z" fill="white"/>
<path d="M571.2 1332.8H476V1428H571.2V1332.8Z" fill="white"/>
<path d="M666.4 1332.8H571.2V1428H666.4V1332.8Z" fill="white"/>
<path d="M952 1332.8H856.8V1428H952V1332.8Z" fill="white"/>
<path d="M1142.4 1332.8H1047.2V1428H1142.4V1332.8Z" fill="white"/>
<path d="M1523.2 1332.8H1428V1428H1523.2V1332.8Z" fill="white"/>
<path d="M1713.6 1332.8H1618.4V1428H1713.6V1332.8Z" fill="white"/>
<path d="M1808.8 1332.8H1713.6V1428H1808.8V1332.8Z" fill="white"/>
<path d="M1904 1332.8H1808.8V1428H1904V1332.8Z" fill="white"/>
<path d="M1999.2 1332.8H1904V1428H1999.2V1332.8Z" fill="white"/>
<path d="M285.6 1428L190.4 1428V1523.2H285.6V1428Z" fill="white"/>
<path d="M761.6 1428L666.4 1428V1523.2H761.6V1428Z" fill="white"/>
<path d="M856.8 1428L761.6 1428V1523.2H856.8V1428Z" fill="white"/>
<path d="M952 1428H856.8V1523.2H952V1428Z" fill="white"/>
<path d="M1047.2 1428H952V1523.2H1047.2V1428Z" fill="white"/>
<path d="M1142.4 1428H1047.2V1523.2H1142.4V1428Z" fill="white"/>
<path d="M1332.8 1428H1237.6V1523.2H1332.8V1428Z" fill="white"/>
<path d="M1428 1428L1332.8 1428V1523.2H1428L1428 1428Z" fill="white"/>
<path d="M1713.6 1428H1618.4V1523.2H1713.6V1428Z" fill="white"/>
<path d="M1904 1428H1808.8V1523.2H1904V1428Z" fill="white"/>
<path d="M1999.2 1428H1904V1523.2H1999.2V1428Z" fill="white"/>
<path d="M95.2 1523.2H0V1618.4H95.2V1523.2Z" fill="white"/>
<path d="M285.6 1523.2H190.4V1618.4H285.6V1523.2Z" fill="white"/>
<path d="M380.8 1523.2H285.6V1618.4H380.8V1523.2Z" fill="white"/>
<path d="M666.4 1523.2H571.2V1618.4H666.4V1523.2Z" fill="white"/>
<path d="M1142.4 1523.2H1047.2V1618.4H1142.4V1523.2Z" fill="white"/>
<path d="M1237.6 1523.2H1142.4V1618.4H1237.6V1523.2Z" fill="white"/>
<path d="M1618.4 1523.2H1523.2V1618.4H1618.4V1523.2Z" fill="white"/>
<path d="M1713.6 1523.2H1618.4V1618.4H1713.6V1523.2Z" fill="white"/>
<path d="M1808.8 1523.2H1713.6V1618.4H1808.8V1523.2Z" fill="white"/>
<path d="M1904 1523.2H1808.8V1618.4H1904V1523.2Z" fill="white"/>
<path d="M1999.2 1523.2H1904V1618.4H1999.2V1523.2Z" fill="white"/>
<path d="M2284.8 1523.2H2189.6V1618.4H2284.8V1523.2Z" fill="white"/>
<path d="M2380 1523.2H2284.8V1618.4H2380V1523.2Z" fill="white"/>
<path d="M1047.2 1618.4H952V1713.6H1047.2V1618.4Z" fill="white"/>
<path d="M1142.4 1618.4H1047.2V1713.6H1142.4V1618.4Z" fill="white"/>
<path d="M1332.8 1618.4H1237.6V1713.6H1332.8V1618.4Z" fill="white"/>
<path d="M1618.4 1618.4H1523.2V1713.6H1618.4V1618.4Z" fill="white"/>
<path d="M1999.2 1618.4H1904V1713.6H1999.2V1618.4Z" fill="white"/>
<path d="M2189.6 1618.4H2094.4V1713.6H2189.6V1618.4Z" fill="white"/>
<path d="M2284.8 1618.4H2189.6V1713.6H2284.8V1618.4Z" fill="white"/>
<path d="M2380 1618.4H2284.8V1713.6H2380V1618.4Z" fill="white"/>
<path d="M95.2 1713.6H0V1808.8H95.2V1713.6Z" fill="white"/>
<path d="M190.4 1713.6H95.2V1808.8H190.4V1713.6Z" fill="white"/>
<path d="M285.6 1713.6H190.4V1808.8H285.6V1713.6Z" fill="white"/>
<path d="M380.8 1713.6H285.6V1808.8H380.8V1713.6Z" fill="white"/>
<path d="M476 1713.6H380.8V1808.8H476V1713.6Z" fill="white"/>
<path d="M571.2 1713.6H476V1808.8H571.2V1713.6Z" fill="white"/>
<path d="M666.4 1713.6H571.2V1808.8H666.4V1713.6Z" fill="white"/>
<path d="M952 1713.6H856.8V1808.8H952V1713.6Z" fill="white"/>
<path d="M1237.6 1713.6H1142.4V1808.8H1237.6V1713.6Z" fill="white"/>
<path d="M1332.8 1713.6H1237.6V1808.8H1332.8V1713.6Z" fill="white"/>
<path d="M1428 1713.6H1332.8V1808.8H1428V1713.6Z" fill="white"/>
<path d="M1618.4 1713.6H1523.2V1808.8H1618.4V1713.6Z" fill="white"/>
<path d="M1808.8 1713.6H1713.6V1808.8H1808.8V1713.6Z" fill="white"/>
<path d="M1999.2 1713.6H1904V1808.8H1999.2V1713.6Z" fill="white"/>
<path d="M2284.8 1713.6H2189.6V1808.8H2284.8V1713.6Z" fill="white"/>
<path d="M95.2 1808.8H0V1904H95.2V1808.8Z" fill="white"/>
<path d="M666.4 1808.8H571.2L571.2 1904H666.4V1808.8Z" fill="white"/>
<path d="M856.8 1808.8H761.6V1904H856.8V1808.8Z" fill="white"/>
<path d="M952 1808.8H856.8V1904H952V1808.8Z" fill="white"/>
<path d="M1047.2 1808.8H952V1904H1047.2V1808.8Z" fill="white"/>
<path d="M1237.6 1808.8H1142.4V1904H1237.6V1808.8Z" fill="white"/>
<path d="M1332.8 1808.8H1237.6V1904H1332.8V1808.8Z" fill="white"/>
<path d="M1523.2 1808.8H1428L1428 1904H1523.2V1808.8Z" fill="white"/>
<path d="M1618.4 1808.8H1523.2V1904H1618.4V1808.8Z" fill="white"/>
<path d="M1999.2 1808.8H1904V1904H1999.2V1808.8Z" fill="white"/>
<path d="M2189.6 1808.8H2094.4V1904H2189.6V1808.8Z" fill="white"/>
<path d="M2284.8 1808.8H2189.6V1904H2284.8V1808.8Z" fill="white"/>
<path d="M95.2 1904H0V1999.2H95.2V1904Z" fill="white"/>
<path d="M285.6 1904H190.4V1999.2H285.6V1904Z" fill="white"/>
<path d="M380.8 1904H285.6V1999.2H380.8V1904Z" fill="white"/>
<path d="M476 1904H380.8V1999.2H476V1904Z" fill="white"/>
<path d="M666.4 1904H571.2V1999.2H666.4V1904Z" fill="white"/>
<path d="M1523.2 1904H1428V1999.2H1523.2V1904Z" fill="white"/>
<path d="M1618.4 1904H1523.2V1999.2H1618.4V1904Z" fill="white"/>
<path d="M1713.6 1904H1618.4V1999.2H1713.6V1904Z" fill="white"/>
<path d="M1808.8 1904H1713.6V1999.2H1808.8V1904Z" fill="white"/>
<path d="M1904 1904H1808.8V1999.2H1904V1904Z" fill="white"/>
<path d="M1999.2 1904H1904V1999.2H1999.2V1904Z" fill="white"/>
<path d="M2094.4 1904H1999.2V1999.2H2094.4V1904Z" fill="white"/>
<path d="M2189.6 1904H2094.4V1999.2H2189.6V1904Z" fill="white"/>
<path d="M2284.8 1904H2189.6V1999.2H2284.8V1904Z" fill="white"/>
<path d="M95.2 1999.2H0V2094.4H95.2V1999.2Z" fill="white"/>
<path d="M285.6 1999.2H190.4V2094.4H285.6V1999.2Z" fill="white"/>
<path d="M380.8 1999.2H285.6V2094.4H380.8V1999.2Z" fill="white"/>
<path d="M476 1999.2H380.8V2094.4H476V1999.2Z" fill="white"/>
<path d="M666.4 1999.2H571.2V2094.4H666.4V1999.2Z" fill="white"/>
<path d="M952 1999.2H856.8V2094.4H952V1999.2Z" fill="white"/>
<path d="M1047.2 1999.2H952V2094.4H1047.2V1999.2Z" fill="white"/>
<path d="M1142.4 1999.2H1047.2V2094.4H1142.4V1999.2Z" fill="white"/>
<path d="M1428 1999.2H1332.8V2094.4H1428L1428 1999.2Z" fill="white"/>
<path d="M1523.2 1999.2H1428L1428 2094.4H1523.2V1999.2Z" fill="white"/>
<path d="M2189.6 1999.2H2094.4V2094.4H2189.6V1999.2Z" fill="white"/>
<path d="M2380 1999.2H2284.8V2094.4H2380V1999.2Z" fill="white"/>
<path d="M95.2 2094.4H0V2189.6H95.2V2094.4Z" fill="white"/>
<path d="M285.6 2094.4H190.4V2189.6H285.6V2094.4Z" fill="white"/>
<path d="M380.8 2094.4H285.6V2189.6H380.8V2094.4Z" fill="white"/>
<path d="M476 2094.4H380.8V2189.6H476V2094.4Z" fill="white"/>
<path d="M666.4 2094.4H571.2V2189.6H666.4V2094.4Z" fill="white"/>
<path d="M856.8 2094.4H761.6V2189.6H856.8V2094.4Z" fill="white"/>
<path d="M1047.2 2094.4H952V2189.6H1047.2V2094.4Z" fill="white"/>
<path d="M1428 2094.4H1332.8V2189.6H1428V2094.4Z" fill="white"/>
<path d="M2094.4 2094.4H1999.2V2189.6H2094.4V2094.4Z" fill="white"/>
<path d="M95.2 2189.6H0V2284.8H95.2V2189.6Z" fill="white"/>
<path d="M666.4 2189.6H571.2V2284.8H666.4V2189.6Z" fill="white"/>
<path d="M952 2189.6H856.8V2284.8H952V2189.6Z" fill="white"/>
<path d="M1332.8 2189.6H1237.6V2284.8H1332.8V2189.6Z" fill="white"/>
<path d="M1618.4 2189.6H1523.2V2284.8H1618.4V2189.6Z" fill="white"/>
<path d="M2094.4 2189.6H1999.2V2284.8H2094.4V2189.6Z" fill="white"/>
<path d="M2189.6 2189.6H2094.4V2284.8H2189.6V2189.6Z" fill="white"/>
<path d="M95.2 2284.8H0V2380H95.2V2284.8Z" fill="white"/>
<path d="M190.4 2284.8H95.2V2380H190.4V2284.8Z" fill="white"/>
<path d="M285.6 2284.8H190.4V2380H285.6V2284.8Z" fill="white"/>
<path d="M380.8 2284.8H285.6V2380H380.8V2284.8Z" fill="white"/>
<path d="M476 2284.8H380.8V2380H476V2284.8Z" fill="white"/>
<path d="M571.2 2284.8H476V2380H571.2L571.2 2284.8Z" fill="white"/>
<path d="M666.4 2284.8H571.2L571.2 2380H666.4V2284.8Z" fill="white"/>
<path d="M856.8 2284.8H761.6V2380H856.8V2284.8Z" fill="white"/>
<path d="M952 2284.8H856.8V2380H952V2284.8Z" fill="white"/>
<path d="M1047.2 2284.8H952V2380H1047.2V2284.8Z" fill="white"/>
<path d="M1237.6 2284.8H1142.4V2380H1237.6V2284.8Z" fill="white"/>
<path d="M1332.8 2284.8H1237.6V2380H1332.8V2284.8Z" fill="white"/>
<path d="M1428 2284.8H1332.8V2380H1428V2284.8Z" fill="white"/>
<path d="M1713.6 2284.8H1618.4V2380H1713.6V2284.8Z" fill="white"/>
<path d="M1808.8 2284.8H1713.6V2380H1808.8V2284.8Z" fill="white"/>
<path d="M1904 2284.8H1808.8V2380H1904V2284.8Z" fill="white"/>
<path d="M1999.2 2284.8H1904V2380H1999.2V2284.8Z" fill="white"/>
<path d="M2189.6 2284.8H2094.4V2380H2189.6V2284.8Z" fill="white"/>
<path d="M2380 2284.8H2284.8V2380H2380V2284.8Z" fill="white"/>
<path d="M95.2 95.2V96.2H96.2V95.2H95.2ZM571.2 95.2H570.2V96.2H571.2V95.2ZM856.8 95.2H855.8V96.2H856.8V95.2ZM952 95.2V96.2H953V95.2H952ZM1808.8 95.2V96.2H1809.8V95.2H1808.8ZM2284.8 95.2H2283.8V96.2H2284.8V95.2ZM1332.8 285.6H1333.8V284.6H1332.8V285.6ZM1332.8 380.8H1331.8V381.8H1332.8V380.8ZM952 476H953V475H952V476ZM1523.2 476V475H1522.2V476H1523.2ZM95.2 571.2H96.2V570.2H95.2V571.2ZM571.2 571.2V570.2H570.2L570.2 571.2L571.2 571.2ZM952 571.2H951V572.2H952V571.2ZM1047.2 571.2V572.2H1048.2V571.2H1047.2ZM1142.4 571.2H1141.4V572.2H1142.4V571.2ZM1523.2 571.2H1522.2V572.2H1523.2V571.2ZM1808.8 571.2H1809.8V570.2H1808.8V571.2ZM2284.8 571.2V570.2H2283.8V571.2H2284.8ZM856.8 666.4H857.8V665.4H856.8V666.4ZM952 666.4V665.4H951V666.4H952ZM1237.6 666.4H1238.6V665.4H1237.6V666.4ZM856.8 761.6H855.8V762.6H856.8V761.6ZM1237.6 761.6H1236.6V762.6H1237.6V761.6ZM95.2 856.8H96.2V855.8H95.2V856.8ZM952 856.8V857.8H953V856.8H952ZM1713.6 856.8V857.8H1714.6V856.8H1713.6ZM190.4 952H191.4V951H190.4V952ZM856.8 952V951H855.8V952H856.8ZM1904 952H1903V953H1904V952ZM1999.2 952H2000.2V951H1999.2V952ZM2094.4 952V951H2093.4V952H2094.4ZM761.6 1047.2V1046.2H760.6V1047.2H761.6ZM952 1047.2H953V1046.2H952V1047.2ZM2094.4 1047.2H2093.4V1048.2H2094.4V1047.2ZM761.6 1142.4H760.6V1143.4H761.6V1142.4ZM856.8 1142.4V1143.4H857.8V1142.4H856.8ZM952 1142.4H951V1143.4H952V1142.4ZM1618.4 1142.4H1619.4V1141.4H1618.4V1142.4ZM1808.8 1142.4V1141.4H1807.8V1142.4H1808.8ZM285.6 1237.6H286.6V1236.6H285.6V1237.6ZM1618.4 1237.6V1238.6H1619.4V1237.6H1618.4ZM1713.6 1237.6H1712.6V1238.6H1713.6V1237.6ZM1808.8 1237.6V1238.6H1809.8V1237.6H1808.8ZM2284.8 1237.6V1236.6H2283.8V1237.6H2284.8ZM285.6 1332.8H284.6V1333.8H285.6V1332.8ZM476 1332.8H477V1331.8H476V1332.8ZM1808.8 1332.8H1809.8V1331.8H1808.8V1332.8ZM1713.6 1332.8V1331.8H1712.6V1332.8H1713.6ZM1999.2 1332.8V1333.8H2000.2V1332.8H1999.2ZM1904 1332.8V1331.8H1903V1332.8H1904ZM952 1428H953V1427H952V1428ZM856.8 1428V1427H855.8V1428H856.8ZM1047.2 1428V1427H1046.2V1428H1047.2ZM1713.6 1428V1429H1714.6V1428H1713.6ZM1808.8 1428H1807.8V1429H1808.8V1428ZM285.6 1523.2H286.6V1522.2H285.6V1523.2ZM1047.2 1523.2H1046.2V1524.2H1047.2V1523.2ZM1142.4 1523.2H1143.4V1522.2H1142.4V1523.2ZM1713.6 1523.2H1714.6V1522.2H1713.6V1523.2ZM1618.4 1523.2V1522.2H1617.4V1523.2H1618.4ZM1808.8 1523.2V1522.2H1807.8V1523.2H1808.8ZM1142.4 1618.4V1619.4H1143.4V1618.4H1142.4ZM1047.2 1618.4V1617.4H1046.2V1618.4H1047.2ZM1618.4 1618.4V1619.4H1619.4V1618.4H1618.4ZM1904 1618.4H1903V1619.4H1904V1618.4ZM2189.6 1618.4V1617.4H2188.6V1618.4H2189.6ZM1332.8 1713.6H1333.8V1712.6H1332.8V1713.6ZM1237.6 1713.6V1712.6H1236.6V1713.6H1237.6ZM2189.6 1713.6H2188.6V1714.6H2189.6V1713.6ZM2284.8 1713.6V1714.6H2285.8V1713.6H2284.8ZM95.2 1808.8V1809.8H96.2V1808.8H95.2ZM571.2 1808.8H570.2V1809.8H571.2V1808.8ZM952 1808.8H953V1807.8H952V1808.8ZM856.8 1808.8V1807.8H855.8V1808.8H856.8ZM1332.8 1808.8V1809.8H1333.8V1808.8H1332.8ZM1523.2 1808.8V1807.8H1522.2V1808.8H1523.2ZM2189.6 1808.8V1807.8H2188.6V1808.8H2189.6ZM1618.4 1904H1619.4V1903H1618.4V1904ZM1999.2 1904H2000.2V1903H1999.2V1904ZM1904 1904V1903H1903V1904H1904ZM2094.4 1904V1903H2093.4V1904H2094.4ZM1523.2 1999.2V2000.2H1524.2V1999.2H1523.2ZM1428 1999.2V1998.2H1427L1427 1999.2L1428 1999.2ZM2094.4 1999.2H2093.4V2000.2H2094.4V1999.2ZM2189.6 1999.2V2000.2H2190.6V1999.2H2189.6ZM952 2094.4H951V2095.4H952V2094.4ZM1047.2 2094.4V2095.4H1048.2V2094.4H1047.2ZM1428 2094.4V2095.4H1429L1429 2094.4L1428 2094.4ZM2094.4 2189.6H2095.4V2188.6H2094.4V2189.6ZM95.2 2284.8H96.2V2283.8H95.2V2284.8ZM571.2 2284.8V2283.8H570.2L570.2 2284.8L571.2 2284.8ZM952 2284.8H953V2283.8H952V2284.8ZM856.8 2284.8V2283.8H855.8V2284.8H856.8ZM1332.8 2284.8H1333.8V2283.8H1332.8V2284.8ZM1237.6 2284.8V2283.8H1236.6V2284.8H1237.6ZM2094.4 2284.8H2093.4V2285.8H2094.4V2284.8ZM94.2 0V95.2H96.2V0H94.2ZM95.2 94.2H0V96.2H95.2V94.2ZM189.4 0V95.2H191.4V0H189.4ZM284.6 0V95.2H286.6V0H284.6ZM379.8 0V95.2H381.8V0H379.8ZM475 0V95.2H477V0H475ZM570.2 0V95.2H572.2V0H570.2ZM666.4 94.2H571.2V96.2H666.4V94.2ZM855.8 0V95.2H857.8V0H855.8ZM951 0V95.2H953V0H951ZM952 94.2H856.8V96.2H952V94.2ZM1428 94.2H1332.8V96.2H1428V94.2ZM1618.4 94.2H1523.2V96.2H1618.4V94.2ZM1807.8 0V95.2H1809.8V0H1807.8ZM1808.8 94.2H1713.6V96.2H1808.8V94.2ZM1903 0V95.2H1905V0H1903ZM1998.2 0V95.2H2000.2V0H1998.2ZM2093.4 0V95.2H2095.4V0H2093.4ZM2188.6 0V95.2H2190.6V0H2188.6ZM2283.8 0V95.2H2285.8V0H2283.8ZM2380 94.2H2284.8V96.2H2380V94.2ZM95.2 189.4H0V191.4H95.2V189.4ZM666.4 189.4H571.2V191.4H666.4V189.4ZM1618.4 189.4H1523.2V191.4H1618.4V189.4ZM1808.8 189.4H1713.6V191.4H1808.8V189.4ZM2380 189.4H2284.8V191.4H2380V189.4ZM95.2 284.6H0V286.6H95.2V284.6ZM284.6 190.4V285.6H286.6V190.4H284.6ZM285.6 284.6H190.4V286.6H285.6V284.6ZM379.8 190.4V285.6H381.8V190.4H379.8ZM380.8 284.6H285.6V286.6H380.8V284.6ZM476 284.6H380.8V286.6H476V284.6ZM666.4 284.6H571.2V286.6H666.4V284.6ZM1236.6 190.4V285.6H1238.6V190.4H1236.6ZM1237.6 284.6H1142.4V286.6H1237.6V284.6ZM1332.8 284.6H1237.6V286.6H1332.8V284.6ZM1808.8 284.6H1713.6V286.6H1808.8V284.6ZM1998.2 190.4V285.6H2000.2V190.4H1998.2ZM1999.2 284.6H1904V286.6H1999.2V284.6ZM2093.4 190.4V285.6H2095.4V190.4H2093.4ZM2094.4 284.6H1999.2V286.6H2094.4V284.6ZM2189.6 284.6H2094.4V286.6H2189.6V284.6ZM2380 284.6H2284.8V286.6H2380V284.6ZM95.2 379.8H0V381.8H95.2V379.8ZM284.6 285.6V380.8H286.6V285.6H284.6ZM285.6 379.8H190.4V381.8H285.6V379.8ZM379.8 285.6V380.8H381.8V285.6H379.8ZM380.8 379.8H285.6V381.8H380.8V379.8ZM476 379.8H380.8V381.8H476V379.8ZM666.4 379.8H571.2V381.8H666.4V379.8ZM1236.6 285.6V380.8H1238.6V285.6H1236.6ZM1331.8 285.6V380.8H1333.8V285.6H1331.8ZM1428 379.8H1332.8V381.8H1428V379.8ZM1808.8 379.8H1713.6V381.8H1808.8V379.8ZM1998.2 285.6V380.8H2000.2V285.6H1998.2ZM1999.2 379.8H1904V381.8H1999.2V379.8ZM2093.4 285.6V380.8H2095.4V285.6H2093.4ZM2094.4 379.8H1999.2V381.8H2094.4V379.8ZM2189.6 379.8H2094.4V381.8H2189.6V379.8ZM2380 379.8H2284.8V381.8H2380V379.8ZM95.2 475H0V477H95.2V475ZM284.6 380.8V476H286.6V380.8H284.6ZM379.8 380.8V476H381.8V380.8H379.8ZM666.4 475H571.2V477H666.4V475ZM952 475H856.8V477H952V475ZM1618.4 475H1523.2V477H1618.4V475ZM1808.8 475H1713.6V477H1808.8V475ZM1998.2 380.8V476H2000.2V380.8H1998.2ZM2093.4 380.8V476H2095.4V380.8H2093.4ZM2380 475H2284.8V477H2380V475ZM95.2 570.2H0V572.2H95.2V570.2ZM666.4 570.2H571.2V572.2H666.4V570.2ZM951 476V571.2H953V476H951ZM1046.2 476V571.2H1048.2V476H1046.2ZM1047.2 570.2H952V572.2H1047.2V570.2ZM1141.4 476V571.2H1143.4V476H1141.4ZM1237.6 570.2H1142.4V572.2H1237.6V570.2ZM1522.2 476V571.2H1524.2V476H1522.2ZM1618.4 570.2H1523.2V572.2H1618.4V570.2ZM1808.8 570.2H1713.6V572.2H1808.8V570.2ZM2380 570.2H2284.8V572.2H2380V570.2ZM94.2 571.2V666.4H96.2V571.2H94.2ZM189.4 571.2V666.4H191.4V571.2H189.4ZM284.6 571.2V666.4H286.6V571.2H284.6ZM379.8 571.2V666.4H381.8V571.2H379.8ZM475 571.2V666.4H477V571.2H475ZM570.2 571.2L570.2 666.4L572.2 666.4L572.2 571.2L570.2 571.2ZM856.8 665.4H761.6V667.4H856.8V665.4ZM1047.2 665.4H952V667.4H1047.2V665.4ZM1237.6 665.4H1142.4V667.4H1237.6V665.4ZM1807.8 571.2V666.4H1809.8V571.2H1807.8ZM1903 571.2V666.4H1905V571.2H1903ZM1998.2 571.2V666.4H2000.2V571.2H1998.2ZM2093.4 571.2V666.4H2095.4V571.2H2093.4ZM2188.6 571.2V666.4H2190.6V571.2H2188.6ZM2283.8 571.2V666.4H2285.8V571.2H2283.8ZM855.8 666.4V761.6H857.8V666.4H855.8ZM951 666.4V761.6H953V666.4H951ZM952 760.6H856.8V762.6H952V760.6ZM1047.2 760.6H952V762.6H1047.2V760.6ZM1236.6 666.4V761.6H1238.6V666.4H1236.6ZM1332.8 760.6H1237.6V762.6H1332.8V760.6ZM1523.2 760.6H1428V762.6H1523.2V760.6ZM95.2 855.8H0V857.8H95.2V855.8ZM570.2 761.6V856.8H572.2V761.6H570.2ZM951 761.6V856.8H953V761.6H951ZM952 855.8H856.8V857.8H952V855.8ZM1332.8 855.8H1237.6V857.8H1332.8V855.8ZM1712.6 761.6V856.8H1714.6V761.6H1712.6ZM1713.6 855.8H1618.4V857.8H1713.6V855.8ZM2189.6 855.8H2094.4V857.8H2189.6V855.8ZM94.2 856.8V952H96.2V856.8H94.2ZM95.2 951H0V953H95.2V951ZM190.4 951H95.2V953H190.4V951ZM952 951H856.8V953H952V951ZM1332.8 951H1237.6V953H1332.8V951ZM1903 856.8V952H1905V856.8H1903ZM1999.2 951H1904V953H1999.2V951ZM2189.6 951H2094.4V953H2189.6V951ZM94.2 952V1047.2H96.2V952H94.2ZM189.4 952V1047.2H191.4V952H189.4ZM570.2 952V1047.2H572.2V952H570.2ZM855.8 952V1047.2H857.8V952H855.8ZM856.8 1046.2H761.6V1048.2H856.8V1046.2ZM952 1046.2H856.8V1048.2H952V1046.2ZM1998.2 952V1047.2H2000.2V952H1998.2ZM2093.4 952V1047.2H2095.4V952H2093.4ZM2189.6 1046.2H2094.4V1048.2H2189.6V1046.2ZM379.8 1047.2V1142.4H381.8V1047.2H379.8ZM760.6 1047.2V1142.4H762.6V1047.2H760.6ZM855.8 1047.2V1142.4H857.8V1047.2H855.8ZM856.8 1141.4H761.6V1143.4H856.8V1141.4ZM951 1047.2V1142.4H953V1047.2H951ZM1046.2 1047.2V1142.4H1048.2V1047.2H1046.2ZM1047.2 1141.4H952V1143.4H1047.2V1141.4ZM1142.4 1141.4H1047.2V1143.4H1142.4V1141.4ZM1618.4 1141.4H1523.2V1143.4H1618.4V1141.4ZM1904 1141.4H1808.8V1143.4H1904V1141.4ZM2380 1141.4H2284.8V1143.4H2380V1141.4ZM285.6 1236.6H190.4V1238.6H285.6V1236.6ZM570.2 1142.4V1237.6H572.2V1142.4H570.2ZM856.8 1236.6H761.6V1238.6H856.8V1236.6ZM1046.2 1142.4V1237.6H1048.2V1142.4H1046.2ZM1617.4 1142.4V1237.6H1619.4V1142.4H1617.4ZM1618.4 1236.6H1523.2V1238.6H1618.4V1236.6ZM1712.6 1142.4V1237.6H1714.6V1142.4H1712.6ZM1807.8 1142.4V1237.6H1809.8V1142.4H1807.8ZM1808.8 1236.6H1713.6V1238.6H1808.8V1236.6ZM2380 1236.6H2284.8V1238.6H2380V1236.6ZM284.6 1237.6V1332.8H286.6V1237.6H284.6ZM379.8 1237.6V1332.8H381.8V1237.6H379.8ZM380.8 1331.8H285.6V1333.8H380.8V1331.8ZM476 1331.8H380.8V1333.8H476V1331.8ZM1236.6 1237.6V1332.8H1238.6V1237.6H1236.6ZM1808.8 1331.8H1713.6V1333.8H1808.8V1331.8ZM1998.2 1237.6V1332.8H2000.2V1237.6H1998.2ZM1999.2 1331.8H1904V1333.8H1999.2V1331.8ZM2283.8 1237.6V1332.8H2285.8V1237.6H2283.8ZM379.8 1332.8V1428H381.8V1332.8H379.8ZM475 1332.8V1428H477V1332.8H475ZM570.2 1332.8V1428H572.2V1332.8H570.2ZM952 1427H856.8V1429H952V1427ZM1142.4 1427H1047.2V1429H1142.4V1427ZM1712.6 1332.8V1428H1714.6V1332.8H1712.6ZM1713.6 1427H1618.4V1429H1713.6V1427ZM1807.8 1332.8V1428H1809.8V1332.8H1807.8ZM1903 1332.8V1428H1905V1332.8H1903ZM1904 1427H1808.8V1429H1904V1427ZM1999.2 1427H1904V1429H1999.2V1427ZM285.6 1522.2H190.4V1524.2H285.6V1522.2ZM760.6 1428V1523.2H762.6V1428H760.6ZM855.8 1428V1523.2H857.8V1428H855.8ZM951 1428V1523.2H953V1428H951ZM1046.2 1428V1523.2H1048.2V1428H1046.2ZM1142.4 1522.2H1047.2V1524.2H1142.4V1522.2ZM1331.8 1428V1523.2H1333.8V1428H1331.8ZM1713.6 1522.2H1618.4V1524.2H1713.6V1522.2ZM1903 1428V1523.2H1905V1428H1903ZM1904 1522.2H1808.8V1524.2H1904V1522.2ZM1999.2 1522.2H1904V1524.2H1999.2V1522.2ZM284.6 1523.2V1618.4H286.6V1523.2H284.6ZM1141.4 1523.2V1618.4H1143.4V1523.2H1141.4ZM1142.4 1617.4H1047.2V1619.4H1142.4V1617.4ZM1617.4 1523.2V1618.4H1619.4V1523.2H1617.4ZM1618.4 1617.4H1523.2V1619.4H1618.4V1617.4ZM1712.6 1523.2V1618.4H1714.6V1523.2H1712.6ZM1807.8 1523.2V1618.4H1809.8V1523.2H1807.8ZM1903 1523.2V1618.4H1905V1523.2H1903ZM1999.2 1617.4H1904V1619.4H1999.2V1617.4ZM2283.8 1523.2V1618.4H2285.8V1523.2H2283.8ZM2284.8 1617.4H2189.6V1619.4H2284.8V1617.4ZM2380 1617.4H2284.8V1619.4H2380V1617.4ZM1046.2 1618.4V1713.6H1048.2V1618.4H1046.2ZM1332.8 1712.6H1237.6V1714.6H1332.8V1712.6ZM1618.4 1712.6H1523.2V1714.6H1618.4V1712.6ZM1999.2 1712.6H1904V1714.6H1999.2V1712.6ZM2188.6 1618.4V1713.6H2190.6V1618.4H2188.6ZM2283.8 1618.4V1713.6H2285.8V1618.4H2283.8ZM2284.8 1712.6H2189.6V1714.6H2284.8V1712.6ZM94.2 1713.6V1808.8H96.2V1713.6H94.2ZM95.2 1807.8H0V1809.8H95.2V1807.8ZM189.4 1713.6V1808.8H191.4V1713.6H189.4ZM284.6 1713.6V1808.8H286.6V1713.6H284.6ZM379.8 1713.6V1808.8H381.8V1713.6H379.8ZM475 1713.6V1808.8H477V1713.6H475ZM570.2 1713.6V1808.8H572.2V1713.6H570.2ZM666.4 1807.8H571.2V1809.8H666.4V1807.8ZM952 1807.8H856.8V1809.8H952V1807.8ZM1236.6 1713.6V1808.8H1238.6V1713.6H1236.6ZM1237.6 1807.8H1142.4V1809.8H1237.6V1807.8ZM1331.8 1713.6V1808.8H1333.8V1713.6H1331.8ZM1332.8 1807.8H1237.6V1809.8H1332.8V1807.8ZM1618.4 1807.8H1523.2V1809.8H1618.4V1807.8ZM1999.2 1807.8H1904V1809.8H1999.2V1807.8ZM2284.8 1807.8H2189.6V1809.8H2284.8V1807.8ZM95.2 1903H0V1905H95.2V1903ZM666.4 1903H571.2V1905H666.4V1903ZM855.8 1808.8V1904H857.8V1808.8H855.8ZM951 1808.8V1904H953V1808.8H951ZM1236.6 1808.8V1904H1238.6V1808.8H1236.6ZM1522.2 1808.8V1904H1524.2V1808.8H1522.2ZM1523.2 1903H1428V1905H1523.2V1903ZM1618.4 1903H1523.2V1905H1618.4V1903ZM1999.2 1903H1904V1905H1999.2V1903ZM2188.6 1808.8V1904H2190.6V1808.8H2188.6ZM2189.6 1903H2094.4V1905H2189.6V1903ZM2284.8 1903H2189.6V1905H2284.8V1903ZM95.2 1998.2H0V2000.2H95.2V1998.2ZM284.6 1904V1999.2H286.6V1904H284.6ZM285.6 1998.2H190.4V2000.2H285.6V1998.2ZM379.8 1904V1999.2H381.8V1904H379.8ZM380.8 1998.2H285.6V2000.2H380.8V1998.2ZM476 1998.2H380.8V2000.2H476V1998.2ZM666.4 1998.2H571.2V2000.2H666.4V1998.2ZM1522.2 1904V1999.2H1524.2V1904H1522.2ZM1523.2 1998.2H1428V2000.2H1523.2V1998.2ZM1617.4 1904V1999.2H1619.4V1904H1617.4ZM1712.6 1904V1999.2H1714.6V1904H1712.6ZM1807.8 1904V1999.2H1809.8V1904H1807.8ZM1903 1904V1999.2H1905V1904H1903ZM1998.2 1904V1999.2H2000.2V1904H1998.2ZM2093.4 1904V1999.2H2095.4V1904H2093.4ZM2188.6 1904V1999.2H2190.6V1904H2188.6ZM2189.6 1998.2H2094.4V2000.2H2189.6V1998.2ZM95.2 2093.4H0V2095.4H95.2V2093.4ZM284.6 1999.2V2094.4H286.6V1999.2H284.6ZM285.6 2093.4H190.4V2095.4H285.6V2093.4ZM379.8 1999.2V2094.4H381.8V1999.2H379.8ZM380.8 2093.4H285.6V2095.4H380.8V2093.4ZM476 2093.4H380.8V2095.4H476V2093.4ZM666.4 2093.4H571.2V2095.4H666.4V2093.4ZM951 1999.2V2094.4H953V1999.2H951ZM1046.2 1999.2V2094.4H1048.2V1999.2H1046.2ZM1047.2 2093.4H952V2095.4H1047.2V2093.4ZM1427 1999.2L1427 2094.4L1429 2094.4L1429 1999.2L1427 1999.2ZM1428 2093.4H1332.8V2095.4H1428V2093.4ZM95.2 2188.6H0V2190.6H95.2V2188.6ZM284.6 2094.4V2189.6H286.6V2094.4H284.6ZM379.8 2094.4V2189.6H381.8V2094.4H379.8ZM666.4 2188.6H571.2V2190.6H666.4V2188.6ZM2094.4 2188.6H1999.2V2190.6H2094.4V2188.6ZM95.2 2283.8H0V2285.8H95.2V2283.8ZM666.4 2283.8H571.2V2285.8H666.4V2283.8ZM952 2283.8H856.8V2285.8H952V2283.8ZM1332.8 2283.8H1237.6V2285.8H1332.8V2283.8ZM2093.4 2189.6V2284.8H2095.4V2189.6H2093.4ZM2189.6 2283.8H2094.4V2285.8H2189.6V2283.8ZM94.2 2284.8V2380H96.2V2284.8H94.2ZM189.4 2284.8V2380H191.4V2284.8H189.4ZM284.6 2284.8V2380H286.6V2284.8H284.6ZM379.8 2284.8V2380H381.8V2284.8H379.8ZM475 2284.8V2380H477V2284.8H475ZM570.2 2284.8L570.2 2380L572.2 2380L572.2 2284.8L570.2 2284.8ZM855.8 2284.8V2380H857.8V2284.8H855.8ZM951 2284.8V2380H953V2284.8H951ZM1236.6 2284.8V2380H1238.6V2284.8H1236.6ZM1331.8 2284.8V2380H1333.8V2284.8H1331.8ZM1712.6 2284.8V2380H1714.6V2284.8H1712.6ZM1807.8 2284.8V2380H1809.8V2284.8H1807.8ZM1903 2284.8V2380H1905V2284.8H1903ZM0 0V-2H-2V0H0ZM95.2 95.2V93.2H93.2V95.2H95.2ZM571.2 95.2L573.2 95.2L573.2 93.2H571.2V95.2ZM666.4 0H668.4V-2H666.4V0ZM761.6 0V-2H759.6V0H761.6ZM856.8 95.2H858.8V93.2H856.8V95.2ZM761.6 95.2H759.6V97.2H761.6V95.2ZM952 95.2V93.2H950V95.2H952ZM1047.2 0H1049.2V-2H1047.2V0ZM1142.4 0V-2H1140.4V0H1142.4ZM1237.6 0H1239.6V-2H1237.6V0ZM1237.6 95.2V97.2H1239.6V95.2H1237.6ZM1332.8 0V-2H1330.8V0H1332.8ZM1428 0H1430V-2H1428V0ZM1523.2 0V-2H1521.2V0H1523.2ZM1618.4 0H1620.4V-2H1618.4V0ZM1713.6 0V-2H1711.6V0H1713.6ZM1808.8 95.2V93.2H1806.8V95.2H1808.8ZM2284.8 95.2H2286.8V93.2H2284.8V95.2ZM2380 0H2382V-2H2380V0ZM571.2 190.4L569.2 190.4V190.4H571.2ZM952 190.4V192.4H954V190.4H952ZM1047.2 190.4H1045.2V192.4H1047.2V190.4ZM1428 190.4V192.4H1430V190.4H1428ZM190.4 190.4V188.4H188.4V190.4H190.4ZM476 190.4H478V188.4H476V190.4ZM761.6 190.4V188.4H759.6V190.4H761.6ZM856.8 285.6V287.6H858.8V285.6H856.8ZM761.6 285.6H759.6V287.6H761.6V285.6ZM1332.8 285.6H1330.8V287.6H1332.8V285.6ZM1618.4 285.6V287.6H1620.4V285.6H1618.4ZM1523.2 285.6H1521.2V287.6H1523.2V285.6ZM1904 190.4V188.4H1902V190.4H1904ZM2189.6 190.4H2191.6V188.4H2189.6V190.4ZM952 285.6V283.6H950V285.6H952ZM1047.2 285.6H1049.2V283.6H1047.2V285.6ZM1047.2 380.8V382.8H1049.2V380.8H1047.2ZM1142.4 380.8H1140.4V382.8H1142.4V380.8ZM1332.8 380.8H1334.8V378.8H1332.8V380.8ZM1428 285.6H1430V283.6H1428V285.6ZM190.4 476H188.4V478H190.4V476ZM476 476V478H478V476H476ZM856.8 380.8V378.8H854.8V380.8H856.8ZM952 476H950V478H952V476ZM1332.8 476H1330.8V478H1332.8V476ZM1523.2 380.8V378.8H1521.2V380.8H1523.2ZM1618.4 380.8H1620.4V378.8H1618.4V380.8ZM1523.2 476V478H1525.2V476H1523.2ZM1904 476H1902V478H1904V476ZM2189.6 476V478H2191.6V476H2189.6ZM95.2 571.2H93.2V573.2L95.2 573.2L95.2 571.2ZM571.2 571.2L571.2 573.2L573.2 573.2V571.2H571.2ZM952 571.2H954V569.2H952V571.2ZM1047.2 571.2V569.2H1045.2V571.2H1047.2ZM1142.4 571.2H1144.4V569.2H1142.4V571.2ZM1237.6 476H1239.6V474H1237.6V476ZM1523.2 571.2H1525.2V569.2H1523.2V571.2ZM1808.8 571.2H1806.8V573.2L1808.8 573.2L1808.8 571.2ZM2284.8 571.2L2284.8 573.2L2286.8 573.2V571.2H2284.8ZM0 666.4H-2V668.4H0V666.4ZM190.4 571.2L190.4 569.2L190.4 569.2L190.4 571.2ZM476 571.2L476 569.2H476V571.2ZM666.4 666.4V668.4H668.4V666.4H666.4ZM761.6 571.2L761.6 569.2L759.6 569.2V571.2H761.6ZM856.8 666.4H854.8V668.4H856.8V666.4ZM952 666.4V668.4H954V666.4H952ZM1237.6 666.4H1235.6V668.4H1237.6V666.4ZM1332.8 571.2L1332.8 569.2L1330.8 569.2V571.2H1332.8ZM1618.4 666.4V668.4H1620.4V666.4H1618.4ZM1713.6 666.4H1711.6V668.4H1713.6V666.4ZM1904 571.2L1904 569.2L1904 569.2L1904 571.2ZM2189.6 571.2L2189.6 569.2H2189.6V571.2ZM2380 666.4V668.4H2382V666.4H2380ZM856.8 761.6H858.8V759.6H856.8V761.6ZM761.6 761.6H759.6V763.6H761.6V761.6ZM1237.6 761.6H1239.6V759.6H1237.6V761.6ZM1142.4 761.6H1140.4V763.6H1142.4V761.6ZM1428 761.6L1430 761.6L1430 761.6L1428 761.6ZM0 761.6V759.6H-2V761.6H0ZM95.2 761.6H97.2V759.6H95.2V761.6ZM95.2 856.8H93.2V858.8H95.2V856.8ZM190.4 761.6V759.6H188.4V761.6H190.4ZM285.6 761.6H287.6V759.6H285.6V761.6ZM476 761.6V759.6H474V761.6H476ZM476 856.8H474V858.8H476V856.8ZM666.4 761.6H668.4V759.6H666.4V761.6ZM666.4 856.8V858.8H668.4V856.8H666.4ZM952 856.8V854.8H950V856.8H952ZM1523.2 856.8V858.8H1525.2V856.8H1523.2ZM1428 856.8H1426V858.8H1428V856.8ZM1618.4 761.6V759.6H1616.4V761.6H1618.4ZM1713.6 856.8V854.8H1711.6V856.8H1713.6ZM1808.8 761.6H1810.8V759.6H1808.8V761.6ZM2094.4 761.6V759.6H2092.4V761.6H2094.4ZM2189.6 761.6H2191.6V759.6H2189.6V761.6ZM2284.8 761.6V759.6H2282.8V761.6H2284.8ZM2380 761.6H2382V759.6H2380V761.6ZM2380 856.8V858.8H2382V856.8H2380ZM2284.8 856.8H2282.8V858.8H2284.8V856.8ZM190.4 952H188.4V954H190.4V952ZM380.8 856.8H382.8V854.8H380.8V856.8ZM380.8 952V954H382.8V952H380.8ZM856.8 952V954H858.8V952H856.8ZM1142.4 856.8H1144.4V854.8H1142.4V856.8ZM1142.4 952V954H1144.4V952H1142.4ZM1047.2 952H1045.2V954H1047.2V952ZM1713.6 952V954H1715.6V952H1713.6ZM1618.4 952H1616.4V954H1618.4V952ZM1904 952H1906V950H1904V952ZM1808.8 952H1806.8V954H1808.8V952ZM1999.2 856.8H2001.2V854.8H1999.2V856.8ZM1999.2 952H1997.2V954H1999.2V952ZM2094.4 952V954H2096.4V952H2094.4ZM0 1047.2H-2V1049.2H0V1047.2ZM476 952V950H474V952H476ZM666.4 952H668.4V950H666.4V952ZM761.6 952V950H759.6V952H761.6ZM761.6 1047.2V1049.2H763.6V1047.2H761.6ZM952 1047.2H950V1049.2H952V1047.2ZM1237.6 1047.2H1235.6V1049.2H1237.6V1047.2ZM1428 952V950H1426V952H1428ZM1523.2 952H1525.2V950H1523.2V952ZM2094.4 1047.2H2096.4V1045.2H2094.4V1047.2ZM761.6 1142.4H763.6V1140.4H761.6V1142.4ZM856.8 1142.4V1140.4H854.8V1142.4H856.8ZM952 1142.4H954V1140.4H952V1142.4ZM1142.4 1047.2H1144.4V1045.2H1142.4V1047.2ZM1428 1142.4V1144.4H1430L1430 1142.4L1428 1142.4ZM1332.8 1142.4H1330.8V1144.4H1332.8V1142.4ZM1618.4 1047.2H1620.4V1045.2H1618.4V1047.2ZM1618.4 1142.4H1616.4V1144.4H1618.4V1142.4ZM1808.8 1047.2V1045.2H1806.8V1047.2H1808.8ZM1808.8 1142.4V1144.4H1810.8V1142.4H1808.8ZM2189.6 1142.4V1144.4H2191.6V1142.4H2189.6ZM2094.4 1142.4H2092.4V1144.4H2094.4V1142.4ZM2284.8 1047.2V1045.2H2282.8V1047.2H2284.8ZM2380 1047.2H2382V1045.2H2380V1047.2ZM190.4 1142.4V1140.4H188.4V1142.4H190.4ZM285.6 1237.6H283.6V1239.6H285.6V1237.6ZM666.4 1237.6V1239.6H668.4V1237.6H666.4ZM952 1237.6H950V1239.6H952V1237.6ZM1618.4 1237.6V1235.6H1616.4V1237.6H1618.4ZM1713.6 1237.6H1715.6V1235.6H1713.6V1237.6ZM1808.8 1237.6V1235.6H1806.8V1237.6H1808.8ZM2284.8 1237.6V1239.6H2286.8V1237.6H2284.8ZM285.6 1332.8H287.6V1330.8H285.6V1332.8ZM190.4 1332.8H188.4V1334.8H190.4V1332.8ZM476 1332.8H474V1334.8H476V1332.8ZM761.6 1332.8H759.6V1334.8H761.6V1332.8ZM1332.8 1237.6H1334.8V1235.6H1332.8V1237.6ZM1332.8 1332.8V1334.8H1334.8V1332.8H1332.8ZM1808.8 1332.8H1806.8V1334.8H1808.8V1332.8ZM1713.6 1332.8V1334.8H1715.6V1332.8H1713.6ZM1999.2 1332.8V1330.8H1997.2V1332.8H1999.2ZM1904 1332.8V1334.8H1906V1332.8H1904ZM2094.4 1237.6H2096.4V1235.6H2094.4V1237.6ZM2094.4 1332.8V1334.8H2096.4V1332.8H2094.4ZM2189.6 1237.6V1235.6H2187.6V1237.6H2189.6ZM2189.6 1332.8H2187.6V1334.8H2189.6V1332.8ZM2380 1332.8V1334.8H2382V1332.8H2380ZM666.4 1332.8H668.4V1330.8H666.4V1332.8ZM952 1332.8H954V1330.8H952V1332.8ZM952 1428H950V1430H952V1428ZM856.8 1428L856.8 1430L858.8 1430V1428H856.8ZM1047.2 1332.8V1330.8H1045.2V1332.8H1047.2ZM1047.2 1428V1430H1049.2V1428H1047.2ZM1428 1332.8V1330.8H1426V1332.8H1428ZM1523.2 1428V1430H1525.2V1428H1523.2ZM1713.6 1428V1426H1711.6V1428H1713.6ZM1808.8 1428H1810.8V1426H1808.8V1428ZM190.4 1428L190.4 1426L188.4 1426V1428H190.4ZM285.6 1523.2H283.6V1525.2H285.6V1523.2ZM761.6 1428L761.6 1430L761.6 1430L761.6 1428ZM1047.2 1523.2H1049.2V1521.2H1047.2V1523.2ZM1142.4 1523.2H1140.4V1525.2H1142.4V1523.2ZM1237.6 1428V1426H1235.6V1428H1237.6ZM1332.8 1428L1332.8 1430L1332.8 1430L1332.8 1428ZM1428 1523.2V1525.2H1430L1430 1523.2L1428 1523.2ZM1713.6 1523.2H1711.6V1525.2H1713.6V1523.2ZM1618.4 1523.2V1525.2H1620.4V1523.2H1618.4ZM1808.8 1523.2V1525.2H1810.8V1523.2H1808.8ZM0 1523.2V1521.2H-2V1523.2H0ZM95.2 1523.2H97.2V1521.2H95.2V1523.2ZM95.2 1618.4V1620.4H97.2V1618.4H95.2ZM0 1618.4H-2V1620.4H0V1618.4ZM190.4 1618.4H188.4V1620.4H190.4V1618.4ZM380.8 1523.2H382.8V1521.2H380.8V1523.2ZM380.8 1618.4V1620.4H382.8V1618.4H380.8ZM571.2 1523.2V1521.2H569.2V1523.2H571.2ZM666.4 1618.4V1620.4H668.4V1618.4H666.4ZM571.2 1618.4H569.2V1620.4H571.2V1618.4ZM1142.4 1618.4V1616.4H1140.4V1618.4H1142.4ZM1047.2 1618.4V1620.4H1049.2V1618.4H1047.2ZM1523.2 1523.2V1521.2H1521.2V1523.2H1523.2ZM1618.4 1618.4V1616.4H1616.4V1618.4H1618.4ZM1904 1618.4H1906V1616.4H1904V1618.4ZM2189.6 1523.2V1521.2H2187.6V1523.2H2189.6ZM2189.6 1618.4V1620.4H2191.6V1618.4H2189.6ZM2380 1523.2H2382V1521.2H2380V1523.2ZM952 1618.4V1616.4H950V1618.4H952ZM1332.8 1618.4H1334.8V1616.4H1332.8V1618.4ZM1332.8 1713.6H1330.8V1715.6H1332.8V1713.6ZM1237.6 1713.6V1715.6H1239.6V1713.6H1237.6ZM2094.4 1618.4V1616.4H2092.4V1618.4H2094.4ZM2189.6 1713.6H2191.6V1711.6H2189.6V1713.6ZM2094.4 1713.6H2092.4V1715.6H2094.4V1713.6ZM2284.8 1713.6V1711.6H2282.8V1713.6H2284.8ZM2380 1713.6V1715.6H2382V1713.6H2380ZM0 1713.6V1711.6H-2V1713.6H0ZM95.2 1808.8V1806.8H93.2V1808.8H95.2ZM571.2 1808.8L573.2 1808.8L573.2 1806.8H571.2V1808.8ZM666.4 1713.6H668.4V1711.6H666.4V1713.6ZM856.8 1713.6V1711.6H854.8V1713.6H856.8ZM952 1808.8H950V1810.8H952V1808.8ZM856.8 1808.8V1810.8H858.8V1808.8H856.8ZM1332.8 1808.8V1806.8H1330.8V1808.8H1332.8ZM1428 1713.6H1430V1711.6H1428V1713.6ZM1523.2 1808.8V1810.8H1525.2V1808.8H1523.2ZM1713.6 1713.6V1711.6H1711.6V1713.6H1713.6ZM1808.8 1713.6H1810.8V1711.6H1808.8V1713.6ZM1808.8 1808.8V1810.8H1810.8V1808.8H1808.8ZM1713.6 1808.8H1711.6V1810.8H1713.6V1808.8ZM2189.6 1808.8V1810.8H2191.6V1808.8H2189.6ZM571.2 1904L569.2 1904V1904H571.2ZM761.6 1808.8V1806.8H759.6V1808.8H761.6ZM761.6 1904H759.6V1906H761.6V1904ZM1047.2 1808.8H1049.2V1806.8H1047.2V1808.8ZM1047.2 1904V1906H1049.2V1904H1047.2ZM1142.4 1904H1140.4V1906H1142.4V1904ZM1332.8 1904V1906H1334.8V1904H1332.8ZM1428 1904L1430 1904L1430 1904L1428 1904ZM1618.4 1904H1616.4V1906H1618.4V1904ZM1999.2 1904H1997.2V1906H1999.2V1904ZM1904 1904V1906H1906V1904H1904ZM2094.4 1808.8V1806.8H2092.4V1808.8H2094.4ZM2094.4 1904V1906H2096.4V1904H2094.4ZM190.4 1904V1902H188.4V1904H190.4ZM476 1904H478V1902H476V1904ZM1523.2 1999.2V1997.2H1521.2V1999.2H1523.2ZM1428 1999.2V2001.2H1430V1999.2H1428ZM2094.4 1999.2H2096.4V1997.2H2094.4V1999.2ZM2189.6 1999.2V1997.2H2187.6V1999.2H2189.6ZM856.8 1999.2V1997.2H854.8V1999.2H856.8ZM952 2094.4H954V2092.4H952V2094.4ZM1047.2 2094.4V2092.4H1045.2V2094.4H1047.2ZM1142.4 1999.2H1144.4V1997.2H1142.4V1999.2ZM1142.4 2094.4V2096.4H1144.4V2094.4H1142.4ZM1332.8 1999.2V1997.2H1330.8V1999.2H1332.8ZM1428 2094.4V2092.4H1426V2094.4H1428ZM1523.2 2094.4V2096.4H1525.2V2094.4H1523.2ZM2189.6 2094.4V2096.4H2191.6V2094.4H2189.6ZM2380 1999.2H2382V1997.2H2380V1999.2ZM2380 2094.4V2096.4H2382V2094.4H2380ZM2284.8 2094.4H2282.8V2096.4H2284.8V2094.4ZM190.4 2189.6H188.4V2191.6H190.4V2189.6ZM476 2189.6V2191.6H478V2189.6H476ZM761.6 2094.4V2092.4H759.6V2094.4H761.6ZM761.6 2189.6H759.6V2191.6H761.6V2189.6ZM1047.2 2189.6V2191.6H1049.2V2189.6H1047.2ZM1428 2189.6V2191.6H1430V2189.6H1428ZM1999.2 2094.4V2092.4H1997.2V2094.4H1999.2ZM2094.4 2189.6H2092.4V2191.6H2094.4V2189.6ZM95.2 2284.8H93.2V2286.8H95.2V2284.8ZM571.2 2284.8V2286.8H573.2V2284.8H571.2ZM952 2284.8H950V2286.8H952V2284.8ZM856.8 2284.8V2286.8H858.8V2284.8H856.8ZM1237.6 2189.6V2187.6H1235.6V2189.6H1237.6ZM1332.8 2284.8H1330.8V2286.8H1332.8V2284.8ZM1237.6 2284.8V2286.8H1239.6V2284.8H1237.6ZM1523.2 2189.6V2187.6H1521.2V2189.6H1523.2ZM1618.4 2189.6H1620.4V2187.6H1618.4V2189.6ZM1523.2 2284.8H1521.2V2286.8H1523.2V2284.8ZM2094.4 2284.8H2096.4V2282.8H2094.4V2284.8ZM2189.6 2189.6H2191.6V2187.6H2189.6V2189.6ZM0 2380H-2V2382H0V2380ZM666.4 2380V2382H668.4V2380H666.4ZM761.6 2284.8V2282.8H759.6V2284.8H761.6ZM761.6 2380H759.6V2382H761.6V2380ZM1047.2 2284.8H1049.2V2282.8H1047.2V2284.8ZM1047.2 2380V2382H1049.2V2380H1047.2ZM1142.4 2284.8V2282.8H1140.4V2284.8H1142.4ZM1142.4 2380H1140.4V2382H1142.4V2380ZM1428 2284.8H1430V2282.8H1428V2284.8ZM1428 2380V2382H1430V2380H1428ZM1618.4 2380H1616.4V2382H1618.4V2380ZM1999.2 2380V2382H2001.2V2380H1999.2ZM2189.6 2380V2382H2191.6V2380H2189.6ZM2094.4 2380H2092.4V2382H2094.4V2380ZM2284.8 2284.8V2282.8H2282.8V2284.8H2284.8ZM2380 2284.8H2382V2282.8H2380V2284.8ZM2380 2380V2382H2382V2380H2380ZM2284.8 2380H2282.8V2382H2284.8V2380ZM0 2H95.2V-2H0V2ZM2 95.2V0H-2V95.2H2ZM95.2 2H190.4V-2H95.2V2ZM190.4 93.2H95.2V97.2H190.4V93.2ZM190.4 2H285.6V-2H190.4V2ZM285.6 93.2H190.4V97.2H285.6V93.2ZM285.6 2H380.8V-2H285.6V2ZM380.8 93.2H285.6V97.2H380.8V93.2ZM380.8 2H476V-2H380.8V2ZM476 93.2H380.8V97.2H476V93.2ZM476 2H571.2V-2H476V2ZM571.2 93.2H476V97.2H571.2V93.2ZM571.2 2H666.4V-2H571.2V2ZM664.4 0V95.2H668.4V0H664.4ZM761.6 2H856.8V-2H761.6V2ZM856.8 93.2H761.6V97.2H856.8V93.2ZM763.6 95.2V0H759.6V95.2H763.6ZM856.8 2H952V-2H856.8V2ZM952 2H1047.2V-2H952V2ZM1045.2 0V95.2H1049.2V0H1045.2ZM1047.2 93.2H952V97.2H1047.2V93.2ZM1142.4 2H1237.6V-2H1142.4V2ZM1235.6 0V95.2H1239.6V0H1235.6ZM1237.6 93.2H1142.4V97.2H1237.6V93.2ZM1144.4 95.2V0H1140.4V95.2H1144.4ZM1332.8 2H1428V-2H1332.8V2ZM1426 0V95.2H1430V0H1426ZM1334.8 95.2V0H1330.8V95.2H1334.8ZM1523.2 2H1618.4V-2H1523.2V2ZM1616.4 0V95.2H1620.4V0H1616.4ZM1525.2 95.2V0H1521.2V95.2H1525.2ZM1713.6 2H1808.8V-2H1713.6V2ZM1715.6 95.2V0H1711.6V95.2H1715.6ZM1808.8 2H1904V-2H1808.8V2ZM1904 93.2H1808.8V97.2H1904V93.2ZM1904 2H1999.2V-2H1904V2ZM1999.2 93.2H1904V97.2H1999.2V93.2ZM1999.2 2H2094.4V-2H1999.2V2ZM2094.4 93.2H1999.2V97.2H2094.4V93.2ZM2094.4 2H2189.6V-2H2094.4V2ZM2189.6 93.2H2094.4V97.2H2189.6V93.2ZM2189.6 2H2284.8V-2H2189.6V2ZM2284.8 93.2H2189.6V97.2H2284.8V93.2ZM2284.8 2H2380V-2H2284.8V2ZM2378 0V95.2H2382V0H2378ZM93.2 95.2V190.4H97.2V95.2H93.2ZM2 190.4V95.2H-2V190.4H2ZM664.4 95.2V190.4H668.4V95.2H664.4ZM573.2 190.4L573.2 95.2L569.2 95.2L569.2 190.4L573.2 190.4ZM950 95.2V190.4H954V95.2H950ZM952 188.4H856.8V192.4H952V188.4ZM858.8 190.4V95.2H854.8V190.4H858.8ZM1047.2 97.2H1142.4V93.2H1047.2V97.2ZM1140.4 95.2V190.4H1144.4V95.2H1140.4ZM1142.4 188.4H1047.2V192.4H1142.4V188.4ZM1049.2 190.4V95.2H1045.2V190.4H1049.2ZM1426 95.2V190.4H1430V95.2H1426ZM1428 188.4H1332.8V192.4H1428V188.4ZM1334.8 190.4V95.2H1330.8V190.4H1334.8ZM1616.4 95.2V190.4H1620.4V95.2H1616.4ZM1525.2 190.4V95.2H1521.2V190.4H1525.2ZM1806.8 95.2V190.4H1810.8V95.2H1806.8ZM1715.6 190.4V95.2H1711.6V190.4H1715.6ZM2378 95.2V190.4H2382V95.2H2378ZM2286.8 190.4V95.2H2282.8V190.4H2286.8ZM93.2 190.4V285.6H97.2V190.4H93.2ZM2 285.6V190.4H-2V285.6H2ZM190.4 192.4H285.6V188.4H190.4V192.4ZM192.4 285.6V190.4H188.4V285.6H192.4ZM285.6 192.4H380.8V188.4H285.6V192.4ZM380.8 192.4H476V188.4H380.8V192.4ZM474 190.4V285.6H478V190.4H474ZM664.4 190.4V285.6H668.4V190.4H664.4ZM573.2 285.6V190.4H569.2V285.6H573.2ZM761.6 192.4H856.8V188.4H761.6V192.4ZM854.8 190.4V285.6H858.8V190.4H854.8ZM856.8 283.6H761.6V287.6H856.8V283.6ZM763.6 285.6V190.4H759.6V285.6H763.6ZM1142.4 192.4H1237.6V188.4H1142.4V192.4ZM1144.4 285.6V190.4H1140.4V285.6H1144.4ZM1237.6 192.4H1332.8V188.4H1237.6V192.4ZM1330.8 190.4V285.6H1334.8V190.4H1330.8ZM1616.4 190.4V285.6H1620.4V190.4H1616.4ZM1618.4 283.6H1523.2V287.6H1618.4V283.6ZM1525.2 285.6V190.4H1521.2V285.6H1525.2ZM1806.8 190.4V285.6H1810.8V190.4H1806.8ZM1715.6 285.6V190.4H1711.6V285.6H1715.6ZM1904 192.4H1999.2V188.4H1904V192.4ZM1906 285.6V190.4H1902V285.6H1906ZM1999.2 192.4H2094.4V188.4H1999.2V192.4ZM2094.4 192.4H2189.6V188.4H2094.4V192.4ZM2187.6 190.4V285.6H2191.6V190.4H2187.6ZM2378 190.4V285.6H2382V190.4H2378ZM2286.8 285.6V190.4H2282.8V285.6H2286.8ZM93.2 285.6V380.8H97.2V285.6H93.2ZM2 380.8V285.6H-2V380.8H2ZM192.4 380.8V285.6H188.4V380.8H192.4ZM474 285.6V380.8H478V285.6H474ZM664.4 285.6V380.8H668.4V285.6H664.4ZM573.2 380.8V285.6H569.2V380.8H573.2ZM952 287.6H1047.2V283.6H952V287.6ZM1045.2 285.6V380.8H1049.2V285.6H1045.2ZM1047.2 378.8H952V382.8H1047.2V378.8ZM954 380.8V285.6H950V380.8H954ZM1237.6 378.8H1142.4V382.8H1237.6V378.8ZM1144.4 380.8V285.6H1140.4V380.8H1144.4ZM1332.8 378.8H1237.6V382.8H1332.8V378.8ZM1332.8 287.6H1428V283.6H1332.8V287.6ZM1426 285.6V380.8H1430V285.6H1426ZM1806.8 285.6V380.8H1810.8V285.6H1806.8ZM1715.6 380.8V285.6H1711.6V380.8H1715.6ZM1906 380.8V285.6H1902V380.8H1906ZM2187.6 285.6V380.8H2191.6V285.6H2187.6ZM2378 285.6V380.8H2382V285.6H2378ZM2286.8 380.8V285.6H2282.8V380.8H2286.8ZM93.2 380.8V476H97.2V380.8H93.2ZM2 476V380.8H-2V476H2ZM285.6 474H190.4V478H285.6V474ZM192.4 476V380.8H188.4V476H192.4ZM380.8 474H285.6V478H380.8V474ZM474 380.8V476H478V380.8H474ZM476 474H380.8V478H476V474ZM664.4 380.8V476H668.4V380.8H664.4ZM573.2 476V380.8H569.2V476H573.2ZM856.8 382.8H952V378.8H856.8V382.8ZM950 380.8V476H954V380.8H950ZM858.8 476V380.8H854.8V476H858.8ZM1426 380.8V476H1430V380.8H1426ZM1428 474H1332.8V478H1428V474ZM1334.8 476V380.8H1330.8V476H1334.8ZM1523.2 382.8H1618.4V378.8H1523.2V382.8ZM1616.4 380.8V476H1620.4V380.8H1616.4ZM1525.2 476V380.8H1521.2V476H1525.2ZM1806.8 380.8V476H1810.8V380.8H1806.8ZM1715.6 476V380.8H1711.6V476H1715.6ZM1999.2 474H1904V478H1999.2V474ZM1906 476V380.8H1902V476H1906ZM2094.4 474H1999.2V478H2094.4V474ZM2187.6 380.8V476H2191.6V380.8H2187.6ZM2189.6 474H2094.4V478H2189.6V474ZM2378 380.8V476H2382V380.8H2378ZM2286.8 476V380.8H2282.8V476H2286.8ZM93.2 476V571.2H97.2V476H93.2ZM2 571.2V476H-2V571.2H2ZM664.4 476V571.2H668.4V476H664.4ZM573.2 571.2V476H569.2V571.2H573.2ZM952 569.2H856.8V573.2H952V569.2ZM858.8 571.2V476H854.8V571.2H858.8ZM952 478H1047.2V474H952V478ZM1047.2 478H1142.4V474H1047.2V478ZM1142.4 569.2H1047.2V573.2H1142.4V569.2ZM1142.4 478H1237.6V474H1142.4V478ZM1235.6 476V571.2H1239.6V476H1235.6ZM1428 478H1523.2V474H1428V478ZM1523.2 569.2H1428V573.2H1523.2V569.2ZM1430 571.2L1430 476L1426 476L1426 571.2L1430 571.2ZM1616.4 476V571.2H1620.4V476H1616.4ZM1806.8 476V571.2H1810.8V476H1806.8ZM1715.6 571.2V476H1711.6V571.2H1715.6ZM2378 476V571.2H2382V476H2378ZM2286.8 571.2V476H2282.8V571.2H2286.8ZM95.2 664.4H0V668.4H95.2V664.4ZM2 666.4V571.2H-2V666.4H2ZM95.2 573.2L190.4 573.2L190.4 569.2L95.2 569.2L95.2 573.2ZM190.4 664.4H95.2V668.4H190.4V664.4ZM190.4 573.2H285.6V569.2H190.4V573.2ZM285.6 664.4H190.4V668.4H285.6V664.4ZM285.6 573.2H380.8V569.2H285.6V573.2ZM380.8 664.4H285.6V668.4H380.8V664.4ZM380.8 573.2H476V569.2H380.8V573.2ZM476 664.4H380.8V668.4H476V664.4ZM476 573.2L571.2 573.2L571.2 569.2L476 569.2L476 573.2ZM571.2 664.4H476V668.4H571.2V664.4ZM664.4 571.2V666.4H668.4V571.2H664.4ZM666.4 664.4H571.2V668.4H666.4V664.4ZM761.6 573.2L856.8 573.2L856.8 569.2L761.6 569.2L761.6 573.2ZM854.8 571.2V666.4H858.8V571.2H854.8ZM763.6 666.4V571.2H759.6V666.4H763.6ZM1045.2 571.2V666.4H1049.2V571.2H1045.2ZM954 666.4V571.2H950V666.4H954ZM1235.6 571.2V666.4H1239.6V571.2H1235.6ZM1144.4 666.4V571.2H1140.4V666.4H1144.4ZM1332.8 573.2L1428 573.2L1428 569.2L1332.8 569.2L1332.8 573.2ZM1426 571.2L1426 666.4L1430 666.4L1430 571.2L1426 571.2ZM1428 664.4H1332.8V668.4H1428V664.4ZM1334.8 666.4V571.2H1330.8V666.4H1334.8ZM1616.4 571.2V666.4H1620.4V571.2H1616.4ZM1618.4 664.4H1523.2V668.4H1618.4V664.4ZM1525.2 666.4V571.2H1521.2V666.4H1525.2ZM1808.8 664.4H1713.6V668.4H1808.8V664.4ZM1715.6 666.4V571.2H1711.6V666.4H1715.6ZM1808.8 573.2L1904 573.2L1904 569.2L1808.8 569.2L1808.8 573.2ZM1904 664.4H1808.8V668.4H1904V664.4ZM1904 573.2H1999.2V569.2H1904V573.2ZM1999.2 664.4H1904V668.4H1999.2V664.4ZM1999.2 573.2H2094.4V569.2H1999.2V573.2ZM2094.4 664.4H1999.2V668.4H2094.4V664.4ZM2094.4 573.2H2189.6V569.2H2094.4V573.2ZM2189.6 664.4H2094.4V668.4H2189.6V664.4ZM2189.6 573.2L2284.8 573.2L2284.8 569.2L2189.6 569.2L2189.6 573.2ZM2284.8 664.4H2189.6V668.4H2284.8V664.4ZM2378 571.2V666.4H2382V571.2H2378ZM2380 664.4H2284.8V668.4H2380V664.4ZM856.8 759.6H761.6V763.6H856.8V759.6ZM763.6 761.6V666.4H759.6V761.6H763.6ZM856.8 668.4H952V664.4H856.8V668.4ZM1045.2 666.4V761.6H1049.2V666.4H1045.2ZM1237.6 759.6H1142.4V763.6H1237.6V759.6ZM1144.4 761.6V666.4H1140.4V761.6H1144.4ZM1237.6 668.4H1332.8V664.4H1237.6V668.4ZM1330.8 666.4V761.6H1334.8V666.4H1330.8ZM1428 668.4H1523.2V664.4H1428V668.4ZM1521.2 666.4V761.6H1525.2V666.4H1521.2ZM1430 761.6L1430 666.4L1426 666.4L1426 761.6L1430 761.6ZM0 763.6H95.2V759.6H0V763.6ZM93.2 761.6V856.8H97.2V761.6H93.2ZM2 856.8V761.6H-2V856.8H2ZM190.4 763.6H285.6V759.6H190.4V763.6ZM283.6 761.6V856.8H287.6V761.6H283.6ZM285.6 854.8H190.4V858.8H285.6V854.8ZM192.4 856.8V761.6H188.4V856.8H192.4ZM476 763.6H571.2V759.6H476V763.6ZM571.2 854.8H476V858.8H571.2V854.8ZM478 856.8V761.6H474V856.8H478ZM571.2 763.6H666.4V759.6H571.2V763.6ZM664.4 761.6V856.8H668.4V761.6H664.4ZM666.4 854.8H571.2V858.8H666.4V854.8ZM858.8 856.8V761.6H854.8V856.8H858.8ZM1045.2 761.6V856.8H1049.2V761.6H1045.2ZM1047.2 854.8H952V858.8H1047.2V854.8ZM1330.8 761.6V856.8H1334.8V761.6H1330.8ZM1239.6 856.8V761.6H1235.6V856.8H1239.6ZM1521.2 761.6V856.8H1525.2V761.6H1521.2ZM1523.2 854.8H1428V858.8H1523.2V854.8ZM1430 856.8V761.6H1426V856.8H1430ZM1618.4 763.6H1713.6V759.6H1618.4V763.6ZM1620.4 856.8V761.6H1616.4V856.8H1620.4ZM1713.6 763.6H1808.8V759.6H1713.6V763.6ZM1806.8 761.6V856.8H1810.8V761.6H1806.8ZM1808.8 854.8H1713.6V858.8H1808.8V854.8ZM2094.4 763.6H2189.6V759.6H2094.4V763.6ZM2187.6 761.6V856.8H2191.6V761.6H2187.6ZM2096.4 856.8V761.6H2092.4V856.8H2096.4ZM2284.8 763.6H2380V759.6H2284.8V763.6ZM2378 761.6V856.8H2382V761.6H2378ZM2380 854.8H2284.8V858.8H2380V854.8ZM2286.8 856.8V761.6H2282.8V856.8H2286.8ZM2 952V856.8H-2V952H2ZM95.2 858.8H190.4V854.8H95.2V858.8ZM188.4 856.8V952H192.4V856.8H188.4ZM285.6 858.8H380.8V854.8H285.6V858.8ZM378.8 856.8V952H382.8V856.8H378.8ZM380.8 950H285.6V954H380.8V950ZM287.6 952V856.8H283.6V952H287.6ZM950 856.8V952H954V856.8H950ZM858.8 952V856.8H854.8V952H858.8ZM1047.2 858.8H1142.4V854.8H1047.2V858.8ZM1140.4 856.8V952H1144.4V856.8H1140.4ZM1142.4 950H1047.2V954H1142.4V950ZM1049.2 952V856.8H1045.2V952H1049.2ZM1330.8 856.8V952H1334.8V856.8H1330.8ZM1239.6 952V856.8H1235.6V952H1239.6ZM1711.6 856.8V952H1715.6V856.8H1711.6ZM1713.6 950H1618.4V954H1713.6V950ZM1620.4 952V856.8H1616.4V952H1620.4ZM1808.8 858.8H1904V854.8H1808.8V858.8ZM1904 950H1808.8V954H1904V950ZM1810.8 952V856.8H1806.8V952H1810.8ZM1904 858.8H1999.2V854.8H1904V858.8ZM1997.2 856.8V952H2001.2V856.8H1997.2ZM2187.6 856.8V952H2191.6V856.8H2187.6ZM2096.4 952V856.8H2092.4V952H2096.4ZM95.2 1045.2H0V1049.2H95.2V1045.2ZM2 1047.2V952H-2V1047.2H2ZM190.4 1045.2H95.2V1049.2H190.4V1045.2ZM190.4 954H285.6V950H190.4V954ZM283.6 952V1047.2H287.6V952H283.6ZM285.6 1045.2H190.4V1049.2H285.6V1045.2ZM476 954H571.2V950H476V954ZM571.2 1045.2H476V1049.2H571.2V1045.2ZM478 1047.2V952H474V1047.2H478ZM571.2 954H666.4V950H571.2V954ZM664.4 952V1047.2H668.4V952H664.4ZM666.4 1045.2H571.2V1049.2H666.4V1045.2ZM761.6 954H856.8V950H761.6V954ZM763.6 1047.2V952H759.6V1047.2H763.6ZM950 952V1047.2H954V952H950ZM1330.8 952V1047.2H1334.8V952H1330.8ZM1332.8 1045.2H1237.6V1049.2H1332.8V1045.2ZM1239.6 1047.2V952H1235.6V1047.2H1239.6ZM1428 954H1523.2V950H1428V954ZM1521.2 952V1047.2H1525.2V952H1521.2ZM1523.2 1045.2H1428V1049.2H1523.2V1045.2ZM1430 1047.2V952H1426V1047.2H1430ZM1999.2 1045.2H1904V1049.2H1999.2V1045.2ZM1906 1047.2V952H1902V1047.2H1906ZM1999.2 954H2094.4V950H1999.2V954ZM2094.4 1045.2H1999.2V1049.2H2094.4V1045.2ZM2187.6 952V1047.2H2191.6V952H2187.6ZM285.6 1049.2H380.8V1045.2H285.6V1049.2ZM380.8 1140.4H285.6V1144.4H380.8V1140.4ZM287.6 1142.4V1047.2H283.6V1142.4H287.6ZM380.8 1049.2H476V1045.2H380.8V1049.2ZM474 1047.2V1142.4H478V1047.2H474ZM476 1140.4H380.8V1144.4H476V1140.4ZM666.4 1049.2H761.6V1045.2H666.4V1049.2ZM761.6 1140.4H666.4V1144.4H761.6V1140.4ZM668.4 1142.4V1047.2H664.4V1142.4H668.4ZM952 1140.4H856.8V1144.4H952V1140.4ZM952 1049.2H1047.2V1045.2H952V1049.2ZM1047.2 1049.2H1142.4V1045.2H1047.2V1049.2ZM1140.4 1047.2V1142.4H1144.4V1047.2H1140.4ZM1332.8 1049.2H1428V1045.2H1332.8V1049.2ZM1426 1047.2L1426 1142.4L1430 1142.4L1430 1047.2L1426 1047.2ZM1428 1140.4H1332.8V1144.4H1428V1140.4ZM1334.8 1142.4V1047.2H1330.8V1142.4H1334.8ZM1523.2 1049.2H1618.4V1045.2H1523.2V1049.2ZM1616.4 1047.2V1142.4H1620.4V1047.2H1616.4ZM1525.2 1142.4V1047.2H1521.2V1142.4H1525.2ZM1808.8 1049.2H1904V1045.2H1808.8V1049.2ZM1902 1047.2V1142.4H1906V1047.2H1902ZM1810.8 1142.4V1047.2H1806.8V1142.4H1810.8ZM2187.6 1047.2V1142.4H2191.6V1047.2H2187.6ZM2189.6 1140.4H2094.4V1144.4H2189.6V1140.4ZM2096.4 1142.4V1047.2H2092.4V1142.4H2096.4ZM2284.8 1049.2H2380V1045.2H2284.8V1049.2ZM2378 1047.2V1142.4H2382V1047.2H2378ZM2286.8 1142.4V1047.2H2282.8V1142.4H2286.8ZM190.4 1144.4H285.6V1140.4H190.4V1144.4ZM283.6 1142.4V1237.6H287.6V1142.4H283.6ZM192.4 1237.6V1142.4H188.4V1237.6H192.4ZM476 1144.4H571.2V1140.4H476V1144.4ZM571.2 1235.6H476V1239.6H571.2V1235.6ZM478 1237.6V1142.4H474V1237.6H478ZM571.2 1144.4H666.4V1140.4H571.2V1144.4ZM664.4 1142.4V1237.6H668.4V1142.4H664.4ZM666.4 1235.6H571.2V1239.6H666.4V1235.6ZM854.8 1142.4V1237.6H858.8V1142.4H854.8ZM763.6 1237.6V1142.4H759.6V1237.6H763.6ZM1047.2 1235.6H952V1239.6H1047.2V1235.6ZM954 1237.6V1142.4H950V1237.6H954ZM1140.4 1142.4V1237.6H1144.4V1142.4H1140.4ZM1142.4 1235.6H1047.2V1239.6H1142.4V1235.6ZM1525.2 1237.6V1142.4H1521.2V1237.6H1525.2ZM1618.4 1144.4H1713.6V1140.4H1618.4V1144.4ZM1713.6 1235.6H1618.4V1239.6H1713.6V1235.6ZM1713.6 1144.4H1808.8V1140.4H1713.6V1144.4ZM1902 1142.4V1237.6H1906V1142.4H1902ZM1904 1235.6H1808.8V1239.6H1904V1235.6ZM2378 1142.4V1237.6H2382V1142.4H2378ZM2286.8 1237.6V1142.4H2282.8V1237.6H2286.8ZM285.6 1330.8H190.4V1334.8H285.6V1330.8ZM192.4 1332.8V1237.6H188.4V1332.8H192.4ZM285.6 1239.6H380.8V1235.6H285.6V1239.6ZM380.8 1239.6H476V1235.6H380.8V1239.6ZM474 1237.6V1332.8H478V1237.6H474ZM854.8 1237.6V1332.8H858.8V1237.6H854.8ZM856.8 1330.8H761.6V1334.8H856.8V1330.8ZM763.6 1332.8V1237.6H759.6V1332.8H763.6ZM1142.4 1239.6H1237.6V1235.6H1142.4V1239.6ZM1237.6 1330.8H1142.4V1334.8H1237.6V1330.8ZM1144.4 1332.8V1237.6H1140.4V1332.8H1144.4ZM1237.6 1239.6H1332.8V1235.6H1237.6V1239.6ZM1330.8 1237.6V1332.8H1334.8V1237.6H1330.8ZM1332.8 1330.8H1237.6V1334.8H1332.8V1330.8ZM1616.4 1237.6V1332.8H1620.4V1237.6H1616.4ZM1618.4 1330.8H1523.2V1334.8H1618.4V1330.8ZM1525.2 1332.8V1237.6H1521.2V1332.8H1525.2ZM1806.8 1237.6V1332.8H1810.8V1237.6H1806.8ZM1715.6 1332.8V1237.6H1711.6V1332.8H1715.6ZM1904 1239.6H1999.2V1235.6H1904V1239.6ZM1906 1332.8V1237.6H1902V1332.8H1906ZM1999.2 1239.6H2094.4V1235.6H1999.2V1239.6ZM2092.4 1237.6V1332.8H2096.4V1237.6H2092.4ZM2094.4 1330.8H1999.2V1334.8H2094.4V1330.8ZM2189.6 1239.6H2284.8V1235.6H2189.6V1239.6ZM2284.8 1330.8H2189.6V1334.8H2284.8V1330.8ZM2191.6 1332.8V1237.6H2187.6V1332.8H2191.6ZM2378 1237.6V1332.8H2382V1237.6H2378ZM2380 1330.8H2284.8V1334.8H2380V1330.8ZM380.8 1426H285.6V1430H380.8V1426ZM287.6 1428V1332.8H283.6V1428H287.6ZM476 1426H380.8V1430H476V1426ZM476 1334.8H571.2V1330.8H476V1334.8ZM571.2 1426H476V1430H571.2V1426ZM571.2 1334.8H666.4V1330.8H571.2V1334.8ZM664.4 1332.8V1428H668.4V1332.8H664.4ZM666.4 1426H571.2V1430H666.4V1426ZM856.8 1334.8H952V1330.8H856.8V1334.8ZM950 1332.8V1428H954V1332.8H950ZM858.8 1428V1332.8H854.8V1428H858.8ZM1047.2 1334.8H1142.4V1330.8H1047.2V1334.8ZM1140.4 1332.8V1428H1144.4V1332.8H1140.4ZM1049.2 1428V1332.8H1045.2V1428H1049.2ZM1428 1334.8H1523.2V1330.8H1428V1334.8ZM1521.2 1332.8V1428H1525.2V1332.8H1521.2ZM1523.2 1426H1428V1430H1523.2V1426ZM1430 1428V1332.8H1426V1428H1430ZM1618.4 1334.8H1713.6V1330.8H1618.4V1334.8ZM1620.4 1428V1332.8H1616.4V1428H1620.4ZM1808.8 1426H1713.6V1430H1808.8V1426ZM1808.8 1334.8H1904V1330.8H1808.8V1334.8ZM1997.2 1332.8V1428H2001.2V1332.8H1997.2ZM190.4 1430L285.6 1430L285.6 1426L190.4 1426L190.4 1430ZM283.6 1428V1523.2H287.6V1428H283.6ZM192.4 1523.2V1428H188.4V1523.2H192.4ZM666.4 1430L761.6 1430L761.6 1426L666.4 1426L666.4 1430ZM761.6 1521.2H666.4V1525.2H761.6V1521.2ZM668.4 1523.2V1428H664.4V1523.2H668.4ZM761.6 1430L856.8 1430L856.8 1426L761.6 1426L761.6 1430ZM856.8 1521.2H761.6V1525.2H856.8V1521.2ZM952 1521.2H856.8V1525.2H952V1521.2ZM952 1430H1047.2V1426H952V1430ZM1047.2 1521.2H952V1525.2H1047.2V1521.2ZM1140.4 1428V1523.2H1144.4V1428H1140.4ZM1237.6 1430H1332.8V1426H1237.6V1430ZM1332.8 1521.2H1237.6V1525.2H1332.8V1521.2ZM1239.6 1523.2V1428H1235.6V1523.2H1239.6ZM1332.8 1430L1428 1430L1428 1426L1332.8 1426L1332.8 1430ZM1426 1428L1426 1523.2L1430 1523.2L1430 1428L1426 1428ZM1428 1521.2H1332.8V1525.2H1428V1521.2ZM1711.6 1428V1523.2H1715.6V1428H1711.6ZM1620.4 1523.2V1428H1616.4V1523.2H1620.4ZM1810.8 1523.2V1428H1806.8V1523.2H1810.8ZM1997.2 1428V1523.2H2001.2V1428H1997.2ZM0 1525.2H95.2V1521.2H0V1525.2ZM93.2 1523.2V1618.4H97.2V1523.2H93.2ZM95.2 1616.4H0V1620.4H95.2V1616.4ZM2 1618.4V1523.2H-2V1618.4H2ZM285.6 1616.4H190.4V1620.4H285.6V1616.4ZM192.4 1618.4V1523.2H188.4V1618.4H192.4ZM285.6 1525.2H380.8V1521.2H285.6V1525.2ZM378.8 1523.2V1618.4H382.8V1523.2H378.8ZM380.8 1616.4H285.6V1620.4H380.8V1616.4ZM571.2 1525.2H666.4V1521.2H571.2V1525.2ZM664.4 1523.2V1618.4H668.4V1523.2H664.4ZM666.4 1616.4H571.2V1620.4H666.4V1616.4ZM573.2 1618.4V1523.2H569.2V1618.4H573.2ZM1049.2 1618.4V1523.2H1045.2V1618.4H1049.2ZM1142.4 1525.2H1237.6V1521.2H1142.4V1525.2ZM1235.6 1523.2V1618.4H1239.6V1523.2H1235.6ZM1237.6 1616.4H1142.4V1620.4H1237.6V1616.4ZM1523.2 1525.2H1618.4V1521.2H1523.2V1525.2ZM1525.2 1618.4V1523.2H1521.2V1618.4H1525.2ZM1713.6 1616.4H1618.4V1620.4H1713.6V1616.4ZM1713.6 1525.2H1808.8V1521.2H1713.6V1525.2ZM1808.8 1616.4H1713.6V1620.4H1808.8V1616.4ZM1904 1616.4H1808.8V1620.4H1904V1616.4ZM1997.2 1523.2V1618.4H2001.2V1523.2H1997.2ZM2189.6 1525.2H2284.8V1521.2H2189.6V1525.2ZM2191.6 1618.4V1523.2H2187.6V1618.4H2191.6ZM2284.8 1525.2H2380V1521.2H2284.8V1525.2ZM2378 1523.2V1618.4H2382V1523.2H2378ZM952 1620.4H1047.2V1616.4H952V1620.4ZM1047.2 1711.6H952V1715.6H1047.2V1711.6ZM954 1713.6V1618.4H950V1713.6H954ZM1140.4 1618.4V1713.6H1144.4V1618.4H1140.4ZM1142.4 1711.6H1047.2V1715.6H1142.4V1711.6ZM1237.6 1620.4H1332.8V1616.4H1237.6V1620.4ZM1330.8 1618.4V1713.6H1334.8V1618.4H1330.8ZM1239.6 1713.6V1618.4H1235.6V1713.6H1239.6ZM1616.4 1618.4V1713.6H1620.4V1618.4H1616.4ZM1525.2 1713.6V1618.4H1521.2V1713.6H1525.2ZM1997.2 1618.4V1713.6H2001.2V1618.4H1997.2ZM1906 1713.6V1618.4H1902V1713.6H1906ZM2094.4 1620.4H2189.6V1616.4H2094.4V1620.4ZM2189.6 1711.6H2094.4V1715.6H2189.6V1711.6ZM2096.4 1713.6V1618.4H2092.4V1713.6H2096.4ZM2378 1618.4V1713.6H2382V1618.4H2378ZM2380 1711.6H2284.8V1715.6H2380V1711.6ZM0 1715.6H95.2V1711.6H0V1715.6ZM2 1808.8V1713.6H-2V1808.8H2ZM95.2 1715.6H190.4V1711.6H95.2V1715.6ZM190.4 1806.8H95.2V1810.8H190.4V1806.8ZM190.4 1715.6H285.6V1711.6H190.4V1715.6ZM285.6 1806.8H190.4V1810.8H285.6V1806.8ZM285.6 1715.6H380.8V1711.6H285.6V1715.6ZM380.8 1806.8H285.6V1810.8H380.8V1806.8ZM380.8 1715.6H476V1711.6H380.8V1715.6ZM476 1806.8H380.8V1810.8H476V1806.8ZM476 1715.6H571.2V1711.6H476V1715.6ZM571.2 1806.8H476V1810.8H571.2V1806.8ZM571.2 1715.6H666.4V1711.6H571.2V1715.6ZM664.4 1713.6V1808.8H668.4V1713.6H664.4ZM856.8 1715.6H952V1711.6H856.8V1715.6ZM950 1713.6V1808.8H954V1713.6H950ZM858.8 1808.8V1713.6H854.8V1808.8H858.8ZM1142.4 1715.6H1237.6V1711.6H1142.4V1715.6ZM1144.4 1808.8V1713.6H1140.4V1808.8H1144.4ZM1332.8 1715.6H1428V1711.6H1332.8V1715.6ZM1426 1713.6V1808.8H1430V1713.6H1426ZM1428 1806.8H1332.8V1810.8H1428V1806.8ZM1616.4 1713.6V1808.8H1620.4V1713.6H1616.4ZM1525.2 1808.8V1713.6H1521.2V1808.8H1525.2ZM1713.6 1715.6H1808.8V1711.6H1713.6V1715.6ZM1806.8 1713.6V1808.8H1810.8V1713.6H1806.8ZM1808.8 1806.8H1713.6V1810.8H1808.8V1806.8ZM1715.6 1808.8V1713.6H1711.6V1808.8H1715.6ZM1997.2 1713.6V1808.8H2001.2V1713.6H1997.2ZM1906 1808.8V1713.6H1902V1808.8H1906ZM2282.8 1713.6V1808.8H2286.8V1713.6H2282.8ZM2191.6 1808.8V1713.6H2187.6V1808.8H2191.6ZM93.2 1808.8V1904H97.2V1808.8H93.2ZM2 1904V1808.8H-2V1904H2ZM664.4 1808.8V1904H668.4V1808.8H664.4ZM573.2 1904L573.2 1808.8L569.2 1808.8L569.2 1904L573.2 1904ZM761.6 1810.8H856.8V1806.8H761.6V1810.8ZM856.8 1902H761.6V1906H856.8V1902ZM763.6 1904V1808.8H759.6V1904H763.6ZM952 1902H856.8V1906H952V1902ZM952 1810.8H1047.2V1806.8H952V1810.8ZM1045.2 1808.8V1904H1049.2V1808.8H1045.2ZM1047.2 1902H952V1906H1047.2V1902ZM1237.6 1902H1142.4V1906H1237.6V1902ZM1144.4 1904V1808.8H1140.4V1904H1144.4ZM1330.8 1808.8V1904H1334.8V1808.8H1330.8ZM1332.8 1902H1237.6V1906H1332.8V1902ZM1428 1810.8H1523.2V1806.8H1428V1810.8ZM1430 1904L1430 1808.8L1426 1808.8L1426 1904L1430 1904ZM1616.4 1808.8V1904H1620.4V1808.8H1616.4ZM1997.2 1808.8V1904H2001.2V1808.8H1997.2ZM1906 1904V1808.8H1902V1904H1906ZM2094.4 1810.8H2189.6V1806.8H2094.4V1810.8ZM2096.4 1904V1808.8H2092.4V1904H2096.4ZM2282.8 1808.8V1904H2286.8V1808.8H2282.8ZM93.2 1904V1999.2H97.2V1904H93.2ZM2 1999.2V1904H-2V1999.2H2ZM190.4 1906H285.6V1902H190.4V1906ZM192.4 1999.2V1904H188.4V1999.2H192.4ZM285.6 1906H380.8V1902H285.6V1906ZM380.8 1906H476V1902H380.8V1906ZM474 1904V1999.2H478V1904H474ZM664.4 1904V1999.2H668.4V1904H664.4ZM573.2 1999.2V1904H569.2V1999.2H573.2ZM1430 1999.2V1904H1426V1999.2H1430ZM1618.4 1997.2H1523.2V2001.2H1618.4V1997.2ZM1618.4 1906H1713.6V1902H1618.4V1906ZM1713.6 1997.2H1618.4V2001.2H1713.6V1997.2ZM1713.6 1906H1808.8V1902H1713.6V1906ZM1808.8 1997.2H1713.6V2001.2H1808.8V1997.2ZM1808.8 1906H1904V1902H1808.8V1906ZM1904 1997.2H1808.8V2001.2H1904V1997.2ZM1999.2 1997.2H1904V2001.2H1999.2V1997.2ZM1999.2 1906H2094.4V1902H1999.2V1906ZM2094.4 1997.2H1999.2V2001.2H2094.4V1997.2ZM2282.8 1904V1999.2H2286.8V1904H2282.8ZM2284.8 1997.2H2189.6V2001.2H2284.8V1997.2ZM93.2 1999.2V2094.4H97.2V1999.2H93.2ZM2 2094.4V1999.2H-2V2094.4H2ZM192.4 2094.4V1999.2H188.4V2094.4H192.4ZM474 1999.2V2094.4H478V1999.2H474ZM664.4 1999.2V2094.4H668.4V1999.2H664.4ZM573.2 2094.4V1999.2H569.2V2094.4H573.2ZM856.8 2001.2H952V1997.2H856.8V2001.2ZM952 2092.4H856.8V2096.4H952V2092.4ZM858.8 2094.4V1999.2H854.8V2094.4H858.8ZM952 2001.2H1047.2V1997.2H952V2001.2ZM1047.2 2001.2H1142.4V1997.2H1047.2V2001.2ZM1140.4 1999.2V2094.4H1144.4V1999.2H1140.4ZM1142.4 2092.4H1047.2V2096.4H1142.4V2092.4ZM1332.8 2001.2H1428V1997.2H1332.8V2001.2ZM1334.8 2094.4V1999.2H1330.8V2094.4H1334.8ZM1521.2 1999.2V2094.4H1525.2V1999.2H1521.2ZM1523.2 2092.4H1428V2096.4H1523.2V2092.4ZM2187.6 1999.2V2094.4H2191.6V1999.2H2187.6ZM2189.6 2092.4H2094.4V2096.4H2189.6V2092.4ZM2096.4 2094.4V1999.2H2092.4V2094.4H2096.4ZM2284.8 2001.2H2380V1997.2H2284.8V2001.2ZM2378 1999.2V2094.4H2382V1999.2H2378ZM2380 2092.4H2284.8V2096.4H2380V2092.4ZM2286.8 2094.4V1999.2H2282.8V2094.4H2286.8ZM93.2 2094.4V2189.6H97.2V2094.4H93.2ZM2 2189.6V2094.4H-2V2189.6H2ZM285.6 2187.6H190.4V2191.6H285.6V2187.6ZM192.4 2189.6V2094.4H188.4V2189.6H192.4ZM380.8 2187.6H285.6V2191.6H380.8V2187.6ZM474 2094.4V2189.6H478V2094.4H474ZM476 2187.6H380.8V2191.6H476V2187.6ZM664.4 2094.4V2189.6H668.4V2094.4H664.4ZM573.2 2189.6V2094.4H569.2V2189.6H573.2ZM761.6 2096.4H856.8V2092.4H761.6V2096.4ZM854.8 2094.4V2189.6H858.8V2094.4H854.8ZM856.8 2187.6H761.6V2191.6H856.8V2187.6ZM763.6 2189.6V2094.4H759.6V2189.6H763.6ZM1045.2 2094.4V2189.6H1049.2V2094.4H1045.2ZM1047.2 2187.6H952V2191.6H1047.2V2187.6ZM954 2189.6V2094.4H950V2189.6H954ZM1426 2094.4V2189.6H1430V2094.4H1426ZM1428 2187.6H1332.8V2191.6H1428V2187.6ZM1334.8 2189.6V2094.4H1330.8V2189.6H1334.8ZM1999.2 2096.4H2094.4V2092.4H1999.2V2096.4ZM2092.4 2094.4V2189.6H2096.4V2094.4H2092.4ZM2001.2 2189.6V2094.4H1997.2V2189.6H2001.2ZM93.2 2189.6V2284.8H97.2V2189.6H93.2ZM2 2284.8V2189.6H-2V2284.8H2ZM664.4 2189.6V2284.8H668.4V2189.6H664.4ZM573.2 2284.8V2189.6H569.2V2284.8H573.2ZM856.8 2191.6H952V2187.6H856.8V2191.6ZM950 2189.6V2284.8H954V2189.6H950ZM858.8 2284.8V2189.6H854.8V2284.8H858.8ZM1237.6 2191.6H1332.8V2187.6H1237.6V2191.6ZM1330.8 2189.6V2284.8H1334.8V2189.6H1330.8ZM1239.6 2284.8V2189.6H1235.6V2284.8H1239.6ZM1523.2 2191.6H1618.4V2187.6H1523.2V2191.6ZM1616.4 2189.6V2284.8H1620.4V2189.6H1616.4ZM1618.4 2282.8H1523.2V2286.8H1618.4V2282.8ZM1525.2 2284.8V2189.6H1521.2V2284.8H1525.2ZM2094.4 2282.8H1999.2V2286.8H2094.4V2282.8ZM2001.2 2284.8V2189.6H1997.2V2284.8H2001.2ZM2094.4 2191.6H2189.6V2187.6H2094.4V2191.6ZM2187.6 2189.6V2284.8H2191.6V2189.6H2187.6ZM95.2 2378H0V2382H95.2V2378ZM2 2380V2284.8H-2V2380H2ZM95.2 2286.8H190.4V2282.8H95.2V2286.8ZM190.4 2378H95.2V2382H190.4V2378ZM190.4 2286.8H285.6V2282.8H190.4V2286.8ZM285.6 2378H190.4V2382H285.6V2378ZM285.6 2286.8H380.8V2282.8H285.6V2286.8ZM380.8 2378H285.6V2382H380.8V2378ZM380.8 2286.8H476V2282.8H380.8V2286.8ZM476 2378H380.8V2382H476V2378ZM476 2286.8H571.2V2282.8H476V2286.8ZM571.2 2378H476V2382H571.2V2378ZM664.4 2284.8V2380H668.4V2284.8H664.4ZM666.4 2378H571.2V2382H666.4V2378ZM761.6 2286.8H856.8V2282.8H761.6V2286.8ZM856.8 2378H761.6V2382H856.8V2378ZM763.6 2380V2284.8H759.6V2380H763.6ZM952 2378H856.8V2382H952V2378ZM952 2286.8H1047.2V2282.8H952V2286.8ZM1045.2 2284.8V2380H1049.2V2284.8H1045.2ZM1047.2 2378H952V2382H1047.2V2378ZM1142.4 2286.8H1237.6V2282.8H1142.4V2286.8ZM1237.6 2378H1142.4V2382H1237.6V2378ZM1144.4 2380V2284.8H1140.4V2380H1144.4ZM1332.8 2378H1237.6V2382H1332.8V2378ZM1332.8 2286.8H1428V2282.8H1332.8V2286.8ZM1426 2284.8V2380H1430V2284.8H1426ZM1428 2378H1332.8V2382H1428V2378ZM1618.4 2286.8H1713.6V2282.8H1618.4V2286.8ZM1713.6 2378H1618.4V2382H1713.6V2378ZM1620.4 2380V2284.8H1616.4V2380H1620.4ZM1713.6 2286.8H1808.8V2282.8H1713.6V2286.8ZM1808.8 2378H1713.6V2382H1808.8V2378ZM1808.8 2286.8H1904V2282.8H1808.8V2286.8ZM1904 2378H1808.8V2382H1904V2378ZM1904 2286.8H1999.2V2282.8H1904V2286.8ZM1997.2 2284.8V2380H2001.2V2284.8H1997.2ZM1999.2 2378H1904V2382H1999.2V2378ZM2187.6 2284.8V2380H2191.6V2284.8H2187.6ZM2189.6 2378H2094.4V2382H2189.6V2378ZM2096.4 2380V2284.8H2092.4V2380H2096.4ZM2284.8 2286.8H2380V2282.8H2284.8V2286.8ZM2378 2284.8V2380H2382V2284.8H2378ZM2380 2378H2284.8V2382H2380V2378ZM2286.8 2380V2284.8H2282.8V2380H2286.8Z" fill="white" mask="url(#path-1-inside-1)"/>
</svg>
