<svg width="145" height="254" viewBox="0 0 145 254" fill="none" xmlns="http://www.w3.org/2000/svg">
<path fill-rule="evenodd" clip-rule="evenodd" d="M39.0107 68H0V42.3887C3.53906 40.9603 7.46484 40.2461 11.7773 40.2461C19.5898 40.2461 26.084 42.5898 31.2598 47.2773C36.5332 51.8672 39.1699 57.7754 39.1699 65.002C39.1699 66.0269 39.1172 67.0262 39.0107 68ZM36.2822 0C35.9434 0.716858 35.6357 1.43689 35.3613 2.16016C33.5059 6.94531 32.4805 13.0488 32.2852 20.4707H0V0H36.2822Z" transform="translate(62 135)" fill="white" fill-opacity="0.5"/>
<path fill-rule="evenodd" clip-rule="evenodd" d="M76.9512 0C78.4805 0.0882568 79.9834 0.204224 81.459 0.3479V41.2903C78.4307 39.0134 74.4219 37.875 69.4336 37.875C63.5742 37.875 58.8379 40.0234 55.2246 44.3203C51.6113 48.6172 49.707 54.4277 49.5117 61.752H0C0.195312 42.2207 6.34766 27.0352 18.457 16.1953C29.1934 6.49802 43.7676 1.09958 62.1807 0H76.9512ZM55.0996 106H81.459V78.3766C77.8135 82.9089 72.7793 87.8654 66.3574 93.2461C61.8135 97.0533 58.0605 101.305 55.0996 106Z" transform="translate(0 13)" fill="white"/>
<path fill-rule="evenodd" clip-rule="evenodd" d="M7.76367 7.03125C2.58789 11.6211 0 17.5293 0 24.7559C0 31.9824 2.58789 37.9395 7.76367 42.627C13.0371 47.2168 19.5801 49.5117 27.3926 49.5117C31.9072 49.5117 35.9814 48.7454 39.6152 47.2128V2.34778C35.9814 0.782593 31.9072 0 27.3926 0C19.5801 0 13.0371 2.34375 7.76367 7.03125Z" transform="translate(22 183)" fill="white" fill-opacity="0.5"/>
<path fill-rule="evenodd" clip-rule="evenodd" d="M26.791 0C28.376 0.922424 29.8662 2.01489 31.2598 3.27734C36.5332 7.86719 39.1699 13.7754 39.1699 21.002C39.1699 28.2285 36.5332 34.1855 31.2598 38.873C26.084 43.4629 19.5898 45.7578 11.7773 45.7578C7.46484 45.7578 3.53906 45.0585 0 43.6599V0H26.791Z" transform="translate(64 208)" fill="white"/>
<path fill-rule="evenodd" clip-rule="evenodd" d="M90.5762 0C90.1094 6.46973 88.5479 12.4418 85.8916 17.916C82.6689 24.5566 77.4932 31.3438 70.3643 38.2773L53.5186 53.9512C49.4424 57.8611 46.4287 61.8774 44.4785 66H0C0.800781 60.9543 1.94043 56.5474 3.4209 52.7793C6.64355 44.4785 11.8682 37.3008 19.0947 31.2461C26.3213 25.1914 31.79 19.6738 35.501 14.6934C38.8848 10.1811 40.7656 5.28333 41.1426 0H90.5762Z" transform="translate(49 95)" fill="white"/>
<path fill-rule="evenodd" clip-rule="evenodd" d="M0 44.2574V0.824402C4.41309 0.274811 9.07129 0 13.9746 0C35.752 0 52.5977 5.0293 64.5117 15.0879C76.5234 25.1465 82.5293 39.4531 82.5293 58.0078C82.5293 65.7424 81.0625 72.8102 78.1279 79.2109H25.4922C26.1367 78.4297 26.7412 77.6608 27.3047 76.9043C31.1133 71.8262 33.0176 66.2598 33.0176 60.2051C33.0176 45.459 26.6699 38.0859 13.9746 38.0859C8.24121 38.0859 3.58301 40.1431 0 44.2574Z" transform="translate(62)" fill="white" fill-opacity="0.5"/>
</svg>
