<svg width="487" height="187" viewBox="0 0 487 187" fill="none" xmlns="http://www.w3.org/2000/svg">
<rect width="101" height="42" transform="translate(379 113)" fill="white" fill-opacity="0.5"/>
<rect width="36" height="15" transform="translate(386 84)" fill="white" fill-opacity="0.5"/>
<rect width="36" height="15" transform="translate(386 65)" fill="white" fill-opacity="0.5"/>
<rect width="36" height="15" transform="translate(386 46)" fill="white" fill-opacity="0.5"/>
<rect width="36" height="15" transform="translate(386 27)" fill="white" fill-opacity="0.5"/>
<rect x="3.5" y="3.5" width="108" height="141" transform="translate(372 14)" stroke="white" stroke-width="7"/>
<rect width="35" height="12" transform="translate(212 116)" fill="white" fill-opacity="0.5"/>
<circle cx="16.5" cy="16.5" r="16.5" transform="translate(256 76)" fill="#BFBFBF"/>
<rect width="100" height="45" transform="translate(197 48)" fill="white" fill-opacity="0.5"/>
<rect x="3.5" y="3.5" width="107" height="87" transform="translate(190 41)" stroke="white" stroke-width="7"/>
<rect x="3.5" y="3.5" width="115" height="180" stroke="white" stroke-width="7"/>
<rect width="108" height="67" transform="translate(7 7)" fill="white" fill-opacity="0.5"/>
<rect width="36" height="15" transform="translate(69 84)" fill="white" fill-opacity="0.5"/>
<rect width="36" height="15" transform="translate(69 109)" fill="white" fill-opacity="0.5"/>
<rect width="36" height="15" transform="translate(69 134)" fill="white" fill-opacity="0.5"/>
<line y1="-2" x2="13" y2="-2" transform="translate(166 90)" stroke="white" stroke-width="4"/>
<path d="M6 0L11.1962 9H0.803848L6 0Z" transform="translate(185 82) rotate(90)" fill="white"/>
<line y1="-2" x2="13" y2="-2" transform="translate(349 90)" stroke="white" stroke-width="4"/>
<path d="M6 0L11.1962 9H0.803848L6 0Z" transform="translate(368 82) rotate(90)" fill="white"/>
<line y1="-2" x2="37" y2="-2" transform="translate(129 90)" stroke="white" stroke-width="4"/>
<line y1="-2" x2="37" y2="-2" transform="translate(312 90)" stroke="white" stroke-width="4"/>
</svg>
