<svg width="185" height="239" viewBox="0 0 185 239" version="1.1" xmlns="http://www.w3.org/2000/svg" xmlns:xlink="http://www.w3.org/1999/xlink">
<title>reced-input</title>
<desc>Created using Figma</desc>
<g id="Canvas" transform="translate(-2294 246)">
<g id="reced-input">
<g id="Rectangle 7">
<use xlink:href="#path0_fill" transform="translate(2294 -246)" fill="#FFFFFF"/>
<mask id="mask0_outline_ins">
<use xlink:href="#path0_fill" fill="white" transform="translate(2294 -246)"/>
</mask>
<g mask="url(#mask0_outline_ins)">
<use xlink:href="#path1_stroke_2x" transform="translate(2294 -246)"/>
</g>
</g>
<g id="Group">
<g id="Vector">
<use xlink:href="#path2_fill" transform="translate(2336 -179)"/>
</g>
</g>
</g>
</g>
<defs>
<path id="path0_fill" d="M 0 0L 185 0L 185 232L 0 232L 0 0Z"/>
<path id="path1_stroke_2x" d="M 0 0L 0 -4L -4 -4L -4 0L 0 0ZM 185 0L 189 0L 189 -4L 185 -4L 185 0ZM 185 232L 185 236L 189 236L 189 232L 185 232ZM 0 232L -4 232L -4 236L 0 236L 0 232ZM 0 4L 185 4L 185 -4L 0 -4L 0 4ZM 181 0L 181 232L 189 232L 189 0L 181 0ZM 185 228L 0 228L 0 236L 185 236L 185 228ZM 4 232L 4 0L -4 0L -4 232L 4 232Z"/>
<path id="path2_fill" d="M 34.2833 67.4895L 34.2833 36.8571C 34.2833 25.5543 43.318 16.381 54.45 16.381C 65.582 16.381 74.6167 25.5543 74.6167 36.8571L 74.6167 67.4895C 84.3773 60.8552 90.75 49.6343 90.75 36.8571C 90.75 16.4629 74.536 0 54.45 0C 34.364 0 18.15 16.4629 18.15 36.8571C 18.15 49.6343 24.5227 60.8552 34.2833 67.4895ZM 113.659 105.411L 77.0367 86.9009C 75.6653 86.3276 74.2133 86 72.6807 86L 66.55 86L 66.55 36.8571C 66.55 30.059 61.1453 24.5714 54.45 24.5714C 47.7547 24.5714 42.35 30.059 42.35 36.8571L 42.35 124.823L 14.6813 118.926C 14.036 118.844 13.4713 118.68 12.7453 118.68C 10.2447 118.68 7.986 119.745 6.37267 121.383L 0 127.935L 39.8493 168.396C 42.0273 170.608 45.0927 172 48.4 172L 103.173 172C 109.223 172 113.901 167.495 114.789 161.516L 120.839 118.352C 120.919 117.779 121 117.206 121 116.714C 121 111.636 117.935 107.213 113.659 105.411L 113.659 105.411Z"/>
</defs>
</svg>
