<svg width="185" height="232" viewBox="0 0 185 232" version="1.1" xmlns="http://www.w3.org/2000/svg" xmlns:xlink="http://www.w3.org/1999/xlink">
<title>reced-content</title>
<desc>Created using Figma</desc>
<g id="Canvas" transform="translate(-2828 246)">
<g id="reced-content">
<g id="Rectangle 7">
<use xlink:href="#path0_fill" transform="translate(2828 -246)" fill="#FFFFFF"/>
<mask id="mask0_outline_ins">
<use xlink:href="#path0_fill" fill="white" transform="translate(2828 -246)"/>
</mask>
<g mask="url(#mask0_outline_ins)">
<use xlink:href="#path1_stroke_2x" transform="translate(2828 -246)"/>
</g>
</g>
<g id="Group">
<g id="Vector">
<use xlink:href="#path2_fill" transform="translate(2897.2 -161.938)"/>
</g>
</g>
<g id="Group">
<g id="Vector">
<use xlink:href="#path3_fill" transform="matrix(0.259225 -0.965817 0.966034 0.258413 2873.65 -111.279)"/>
</g>
</g>
<g id="Group">
<g id="Vector">
<use xlink:href="#path4_fill" transform="matrix(-0.965728 0.259555 -0.260361 -0.965511 2996 -94.8777)"/>
</g>
</g>
</g>
</g>
<defs>
<path id="path0_fill" d="M 0 0L 185 0L 185 232L 0 232L 0 0Z"/>
<path id="path1_stroke_2x" d="M 0 0L 0 -4L -4 -4L -4 0L 0 0ZM 185 0L 189 0L 189 -4L 185 -4L 185 0ZM 185 232L 185 236L 189 236L 189 232L 185 232ZM 0 232L -4 232L -4 236L 0 236L 0 232ZM 0 4L 185 4L 185 -4L 0 -4L 0 4ZM 181 0L 181 232L 189 232L 189 0L 181 0ZM 185 228L 0 228L 0 236L 185 236L 185 228ZM 4 232L 4 0L -4 0L -4 232L 4 232Z"/>
<path id="path2_fill" d="M 21.1686 0L 21.1686 47.4366C 9.24362 46.2507 0 36.0756 0 23.7183C 0 11.3611 9.24362 1.18592 21.1686 0ZM 25.9433 0L 25.9433 21.3228L 47.0413 21.3228C 45.9358 10.0803 37.0686 1.11476 25.9433 0ZM 25.9433 26.1139L 25.9433 47.4366C 37.0921 46.3219 45.9358 37.3564 47.0413 26.1139L 25.9433 26.1139Z"/>
<path id="path3_fill" d="M 34.3717 11.8531L 34.3717 0C 15.2763 1.9242 0 18.5108 0 38.484C 0 58.4572 15.2763 75.0439 34.3717 76.9681L 34.3717 65.115C 22.9145 63.2677 11.4572 52.0304 11.4572 38.484C 11.4572 24.9377 22.9145 13.7003 34.3717 11.8531L 34.3717 11.8531ZM 64.8098 34.6356L 76.3816 34.6356C 74.5866 15.3936 61.1053 1.80875 42.0099 0L 42.0099 11.8531C 53.4671 13.5079 63.1676 23.0904 64.8098 34.6356ZM 42.0099 65.115L 42.0099 76.9681C 61.1053 75.1593 74.5866 61.5744 76.3816 42.3324L 64.8098 42.3324C 63.1676 53.8776 53.4671 63.4602 42.0099 65.115Z"/>
<path id="path4_fill" d="M 55.2676 19.1596L 55.2676 0C 24.5634 3.11033 0 29.9214 0 62.2066C 0 94.4918 24.5634 121.303 55.2676 124.413L 55.2676 105.254C 36.8451 102.268 18.4225 84.1033 18.4225 62.2066C 18.4225 40.3099 36.8451 22.1455 55.2676 19.1596L 55.2676 19.1596ZM 104.21 55.9859L 122.817 55.9859C 119.931 24.8826 98.2535 2.92371 67.5493 0L 67.5493 19.1596C 85.9718 21.8345 101.57 37.3239 104.21 55.9859ZM 67.5493 105.254L 67.5493 124.413C 98.2535 121.489 119.931 99.5305 122.817 68.4272L 104.21 68.4272C 101.57 87.0892 85.9718 102.579 67.5493 105.254Z"/>
</defs>
</svg>
