<svg width="201" height="247" viewBox="0 0 201 247" version="1.1" xmlns="http://www.w3.org/2000/svg" xmlns:xlink="http://www.w3.org/1999/xlink">
<title>reced-interface</title>
<desc>Created using Figma</desc>
<g id="Canvas" transform="translate(-1726 260)">
<g id="reced-interface">
<g id="Rectangle 7">
<use xlink:href="#path0_fill" transform="translate(1742 -245)" fill="#FFFFFF"/>
<mask id="mask0_outline_ins">
<use xlink:href="#path0_fill" fill="white" transform="translate(1742 -245)"/>
</mask>
<g mask="url(#mask0_outline_ins)">
<use xlink:href="#path1_stroke_2x" transform="translate(1742 -245)"/>
</g>
</g>
<g id="Union">
<use xlink:href="#path2_fill" transform="translate(1742 -245)" fill="#C4C4C4" fill-opacity="0.6"/>
</g>
<g id="Rectangle 7">
<use xlink:href="#path3_fill" transform="translate(1726 -260)" fill="#FFFFFF"/>
<mask id="mask1_outline_ins">
<use xlink:href="#path3_fill" fill="white" transform="translate(1726 -260)"/>
</mask>
<g mask="url(#mask1_outline_ins)">
<use xlink:href="#path4_stroke_2x" transform="translate(1726 -260)"/>
</g>
</g>
<g id="Vector 11">
<use xlink:href="#path5_fill" transform="translate(1829 -184)"/>
</g>
</g>
</g>
<defs>
<path id="path0_fill" d="M 0 0L 185 0L 185 232L 0 232L 0 0Z"/>
<path id="path1_stroke_2x" d="M 0 0L 0 -4L -4 -4L -4 0L 0 0ZM 185 0L 189 0L 189 -4L 185 -4L 185 0ZM 185 232L 185 236L 189 236L 189 232L 185 232ZM 0 232L -4 232L -4 236L 0 236L 0 232ZM 0 4L 185 4L 185 -4L 0 -4L 0 4ZM 181 0L 181 232L 189 232L 189 0L 181 0ZM 185 228L 0 228L 0 236L 185 236L 185 228ZM 4 232L 4 0L -4 0L -4 232L 4 232Z"/>
<path id="path2_fill" fill-rule="evenodd" d="M 145 0L 129 0L 129 192L 0 192L 0 206L 129 206L 145 206L 145 0Z"/>
<path id="path3_fill" d="M 0 0L 145 0L 145 207L 0 207L 0 0Z"/>
<path id="path4_stroke_2x" d="M 0 0L 0 -4L -4 -4L -4 0L 0 0ZM 145 0L 149 0L 149 -4L 145 -4L 145 0ZM 145 207L 145 211L 149 211L 149 207L 145 207ZM 0 207L -4 207L -4 211L 0 211L 0 207ZM 0 4L 145 4L 145 -4L 0 -4L 0 4ZM 141 0L 141 207L 149 207L 149 0L 141 0ZM 145 203L 0 203L 0 211L 145 211L 145 203ZM 4 207L 4 0L -4 0L -4 207L 4 207Z"/>
<path id="path5_fill" d="M 0 20L 0 54L 23 54L 23 74L 50.5 36L 23 0L 23 20L 0 20Z"/>
</defs>
</svg>
