<svg width="1000" height="91" viewBox="0 0 1000 91" fill="none" xmlns="http://www.w3.org/2000/svg">
<mask maskUnits="userSpaceOnUse" x="0" y="0" width="0" height="0" fill="black">
<rect fill="white" width="0" height="0"/>
<path d="M5 -5H995Z"/>
</mask>
<path d="M1.46447 -8.53553C-0.488155 -6.58291 -0.488155 -3.41709 1.46447 -1.46447L33.2843 30.3553C35.2369 32.308 38.4027 32.308 40.3553 30.3553C42.308 28.4027 42.308 25.2369 40.3553 23.2843L12.0711 -5L40.3553 -33.2843C42.308 -35.2369 42.308 -38.4027 40.3553 -40.3553C38.4027 -42.308 35.2369 -42.308 33.2843 -40.3553L1.46447 -8.53553ZM998.536 -1.46447C1000.49 -3.41709 1000.49 -6.58291 998.536 -8.53553L966.716 -40.3553C964.763 -42.308 961.597 -42.308 959.645 -40.3553C957.692 -38.4027 957.692 -35.2369 959.645 -33.2843L987.929 -5L959.645 23.2843C957.692 25.2369 957.692 28.4027 959.645 30.3553C961.597 32.308 964.763 32.308 966.716 30.3553L998.536 -1.46447ZM5 0H995V-10H5V0Z" transform="translate(0 59)" fill="black" mask="url(#)"/>
<path d="M12.3574 22.6465H6.3457V33H2.95312V7.40625H11.4258C14.3086 7.40625 16.5234 8.0625 18.0703 9.375C19.6289 10.6875 20.4082 12.5977 20.4082 15.1055C20.4082 16.6992 19.9746 18.0879 19.1074 19.2715C18.252 20.4551 17.0566 21.3398 15.5215 21.9258L21.5332 32.7891V33H17.9121L12.3574 22.6465ZM6.3457 19.8867H11.5312C13.207 19.8867 14.5371 19.4531 15.5215 18.5859C16.5176 17.7188 17.0156 16.5586 17.0156 15.1055C17.0156 13.5234 16.541 12.3105 15.5918 11.4668C14.6543 10.623 13.2949 10.1953 11.5137 10.1836H6.3457V19.8867ZM39.6211 21.1699H28.5293V30.2402H41.4141V33H25.1543V7.40625H41.2383V10.1836H28.5293V18.4102H39.6211V21.1699ZM45.6152 33V7.40625H52.8398C55.0664 7.40625 57.0352 7.89844 58.7461 8.88281C60.457 9.86719 61.7754 11.2676 62.7012 13.084C63.6387 14.9004 64.1133 16.9863 64.125 19.3418V20.9766C64.125 23.3906 63.6562 25.5059 62.7188 27.3223C61.793 29.1387 60.4629 30.5332 58.7285 31.5059C57.0059 32.4785 54.9961 32.9766 52.6992 33H45.6152ZM48.9902 10.1836V30.2402H52.541C55.1426 30.2402 57.1641 29.4316 58.6055 27.8145C60.0586 26.1973 60.7852 23.8945 60.7852 20.9062V19.4121C60.7852 16.5059 60.0996 14.25 58.7285 12.6445C57.3691 11.0273 55.4355 10.207 52.9277 10.1836H48.9902ZM72.8613 33H69.4863V7.40625H72.8613V33ZM83.4082 7.40625L91.7754 28.2891L100.143 7.40625H104.52V33H101.145V23.0332L101.461 12.2754L93.0586 33H90.4746L82.0898 12.3281L82.4238 23.0332V33H79.0488V7.40625H83.4082ZM124.945 21.1699H113.854V30.2402H126.738V33H110.479V7.40625H126.562V10.1836H113.854V18.4102H124.945V21.1699ZM150.609 33H147.217L134.332 13.2773V33H130.939V7.40625H134.332L147.252 27.2168V7.40625H150.609V33ZM164.145 21.5918C161.25 20.7598 159.141 19.7402 157.816 18.5332C156.504 17.3145 155.848 15.8145 155.848 14.0332C155.848 12.0176 156.65 10.3535 158.256 9.04102C159.873 7.7168 161.971 7.05469 164.549 7.05469C166.307 7.05469 167.871 7.39453 169.242 8.07422C170.625 8.75391 171.691 9.69141 172.441 10.8867C173.203 12.082 173.584 13.3887 173.584 14.8066H170.191C170.191 13.2598 169.699 12.0469 168.715 11.168C167.73 10.2773 166.342 9.83203 164.549 9.83203C162.885 9.83203 161.584 10.2012 160.646 10.9395C159.721 11.666 159.258 12.6797 159.258 13.9805C159.258 15.0234 159.697 15.9082 160.576 16.6348C161.467 17.3496 162.973 18.0059 165.094 18.6035C167.227 19.2012 168.891 19.8633 170.086 20.5898C171.293 21.3047 172.184 22.1426 172.758 23.1035C173.344 24.0645 173.637 25.1953 173.637 26.4961C173.637 28.5703 172.828 30.2344 171.211 31.4883C169.594 32.7305 167.432 33.3516 164.725 33.3516C162.967 33.3516 161.326 33.0176 159.803 32.3496C158.279 31.6699 157.102 30.7441 156.27 29.5723C155.449 28.4004 155.039 27.0703 155.039 25.582H158.432C158.432 27.1289 159 28.3535 160.137 29.2559C161.285 30.1465 162.814 30.5918 164.725 30.5918C166.506 30.5918 167.871 30.2285 168.82 29.502C169.77 28.7754 170.244 27.7852 170.244 26.5312C170.244 25.2773 169.805 24.3105 168.926 23.6309C168.047 22.9395 166.453 22.2598 164.145 21.5918ZM181.6 33H178.225V7.40625H181.6V33ZM207.475 21.0293C207.475 23.5371 207.053 25.7285 206.209 27.6035C205.365 29.4668 204.17 30.8906 202.623 31.875C201.076 32.8594 199.271 33.3516 197.209 33.3516C195.193 33.3516 193.406 32.8594 191.848 31.875C190.289 30.8789 189.076 29.4668 188.209 27.6387C187.354 25.7988 186.914 23.6719 186.891 21.2578V19.4121C186.891 16.9512 187.318 14.7773 188.174 12.8906C189.029 11.0039 190.236 9.5625 191.795 8.56641C193.365 7.55859 195.158 7.05469 197.174 7.05469C199.225 7.05469 201.029 7.55273 202.588 8.54883C204.158 9.5332 205.365 10.9688 206.209 12.8555C207.053 14.7305 207.475 16.916 207.475 19.4121V21.0293ZM204.117 19.377C204.117 16.3418 203.508 14.0156 202.289 12.3984C201.07 10.7695 199.365 9.95508 197.174 9.95508C195.041 9.95508 193.359 10.7695 192.129 12.3984C190.91 14.0156 190.283 16.2656 190.248 19.1484V21.0293C190.248 23.9707 190.863 26.2852 192.094 27.9727C193.336 29.6484 195.041 30.4863 197.209 30.4863C199.389 30.4863 201.076 29.6953 202.271 28.1133C203.467 26.5195 204.082 24.2402 204.117 21.2754V19.377ZM232.207 33H228.814L215.93 13.2773V33H212.537V7.40625H215.93L228.85 27.2168V7.40625H232.207V33ZM252.668 21.1699H241.576V30.2402H254.461V33H238.201V7.40625H254.285V10.1836H241.576V18.4102H252.668V21.1699Z" transform="translate(66)" fill="black"/>
</svg>
