<svg width="4176" height="1520" viewBox="0 0 4176 1520" fill="none" xmlns="http://www.w3.org/2000/svg">
<g clip-path="url(#clip0)">
<rect width="4176" height="1520" fill="#711010"/>
<path d="M500 -14L1262.1 1306H-262.102L500 -14Z" fill="#FF7C7C"/>
<path d="M1399.76 15.9854L1794.25 1488.25L321.985 1093.76L1399.76 15.9854Z" fill="#F45A5A"/>
<path d="M2347.78 103.898L2347.78 1628.1L1027.78 866.001L2347.78 103.898Z" fill="#E94444"/>
<path d="M3344.21 426.001L2582.1 1746L1820 426.001L3344.21 426.001Z" fill="#D62C2C"/>
<path d="M3990.1 866L2670.1 1628.1L2670.1 103.898L3990.1 866Z" fill="#BF1313"/>
<path d="M4406.11 1101.05L2930.5 1482.89L3337.63 14.061L4406.11 1101.05Z" fill="#9F0707"/>
<path d="M4689.33 1488.25L3217.06 1093.76L4294.84 15.9853L4689.33 1488.25Z" fill="#740000"/>
</g>
<defs>
<clipPath id="clip0">
<rect width="4176" height="1520" fill="white"/>
</clipPath>
</defs>
</svg>
