<svg width="605" height="364" viewBox="0 0 605 364" fill="none" xmlns="http://www.w3.org/2000/svg">
<circle cx="79.5" cy="79.5" r="67" transform="translate(446 7)" stroke="white" stroke-width="25"/>
<circle cx="47.3676" cy="47.3676" r="34.8676" transform="translate(478.132 39.1324)" stroke="white" stroke-width="25"/>
<rect width="21.6063" height="8.3101" transform="translate(500.293 82.345)" fill="white"/>
<rect width="21.6063" height="8.3101" transform="translate(530.209 60.7386) rotate(90)" fill="white"/>
<rect width="21.6063" height="8.3101" transform="translate(551.815 90.655) rotate(180)" fill="white"/>
<rect width="21.6063" height="8.3101" transform="translate(521.899 112.261) rotate(-90)" fill="white"/>
<rect width="154" height="59.979" transform="translate(0 54.0105)" fill="white"/>
<rect width="154" height="59.979" transform="translate(106.989 7) rotate(90)" fill="white"/>
<ellipse cx="58.6749" cy="58.3506" rx="58.6749" ry="58.3506" transform="translate(245 44.2987)" fill="white"/>
<rect width="58.6749" height="37.1985" transform="translate(274.337 18.0409)" fill="white"/>
<rect width="46.8917" height="16.0631" transform="matrix(0.902983 -0.429676 0.433569 0.90112 315.693 20.1483)" fill="white"/>
<path fill-rule="evenodd" clip-rule="evenodd" d="M65 132C100.898 132 130 91.375 130 58.8649C130 26.3547 100.898 0 65 0C29.1016 0 0 26.3547 0 58.8649C0 91.375 29.1016 132 65 132ZM35.6167 27.6487C39.271 27.6487 42.7539 28.3836 45.9263 29.7141C48.3677 30.4796 50.7935 31.4235 53.1294 32.3325L53.1382 32.3358C57.5938 34.0695 61.7212 35.6757 65 35.6757C68.1313 35.6757 72.2949 34.2107 76.9619 32.5687C79.8491 31.5529 82.9287 30.4694 86.0752 29.623C89.188 28.3502 92.5947 27.6487 96.1646 27.6487C110.917 27.6487 122.877 39.6281 122.877 54.4054C122.877 69.1828 110.917 81.1622 96.1646 81.1622C95.187 81.1622 94.2217 81.1096 93.2715 81.007C92.9199 81.1089 92.5488 81.1622 92.1572 81.1622C87.9824 81.1622 83.4814 78.6633 78.9233 76.1324C74.2466 73.5358 69.5088 70.9054 65 70.9054C61.3413 70.9054 58.2114 72.7829 54.623 74.9353C49.4673 78.0279 43.3657 81.6881 33.3901 81.1622L33.373 81.0691C19.6699 79.9276 8.9043 68.4258 8.9043 54.4054C8.9043 39.6281 20.8638 27.6487 35.6167 27.6487Z" transform="translate(12 224)" fill="white"/>
<path fill-rule="evenodd" clip-rule="evenodd" d="M0.5 32.5H26.5V18C26.5 12.4 18.8335 4.16666 14 0C13.4297 0.545532 12.73 1.1767 11.9526 1.87827C7.50391 5.89212 0.5 12.2118 0.5 18V32.5ZM27 38H0V106H27V38Z" transform="translate(309.953 221) rotate(45)" fill="white"/>
<path fill-rule="evenodd" clip-rule="evenodd" d="M0.5 32.5H26.5V18C26.5 12.4 18.8335 4.16666 14 0C13.4297 0.545532 12.73 1.1767 11.9526 1.87827C7.50391 5.89212 0.5 12.2118 0.5 18V32.5ZM27 38H0V106H27V38Z" transform="translate(333.995 245.042) rotate(45)" fill="white"/>
<path fill-rule="evenodd" clip-rule="evenodd" d="M0.5 32.5H26.5V18C26.5 12.4 18.8335 4.16666 14 0C13.4297 0.545532 12.73 1.1767 11.9526 1.87827C7.50391 5.89212 0.5 12.2118 0.5 18V32.5ZM27 38H0V106H27V38Z" transform="translate(358.743 269.79) rotate(45)" fill="white"/>
<path d="M50.2764 134C90.8142 134 107.863 123.053 92.2986 88.7043C89.9373 83.4931 81.0666 73.4777 82.4834 77.4572C84.2543 82.4315 76.1651 91.437 67.4305 84.5633C58.6959 77.6897 75.2788 65.3492 78.7915 54.3549C85.545 33.217 73.1635 9.05926 32.0118 0C54.4036 13.2113 53.263 34.8202 39.0956 46.9007C24.9281 58.9811 0 73.9831 0 99.6507C0 130.603 18.3847 134 50.2764 134Z" transform="translate(473 222)" fill="white"/>
</svg>
