<svg width="952" height="883" viewBox="0 0 952 883" fill="none" xmlns="http://www.w3.org/2000/svg">
<path fill-rule="evenodd" clip-rule="evenodd" d="M952 476C952 648.027 860.744 798.74 724 882.371V606C724 495.543 634.457 406 524 406H428C317.543 406 228 495.543 228 606V882.371C91.2561 798.74 0 648.027 0 476C0 213.112 213.112 0 476 0C738.888 0 952 213.112 952 476ZM475.5 386C547.573 386 606 327.573 606 255.5C606 183.427 547.573 125 475.5 125C403.427 125 345 183.427 345 255.5C345 327.573 403.427 386 475.5 386Z" fill="#F9CB9C"/>
<path d="M396 359L396.001 358.998C396.084 359.062 396.167 359.126 396.251 359.19L396 359Z" fill="#F9CB9C"/>
<path d="M398 418V519L478.69 475.617L554 519V418L478.69 456.638L398 418Z" fill="#F9CB9C"/>
</svg>
