<svg width="4176" height="1520" viewBox="0 0 4176 1520" fill="none" xmlns="http://www.w3.org/2000/svg">
<rect width="4176" height="1520" fill="#434343"/>
<line x1="918" y1="1160" x2="918" y2="760" stroke="#D3D3D3" stroke-width="20"/>
<line x1="2262" y1="1160" x2="2262" y2="760" stroke="#D3D3D3" stroke-width="20"/>
<line x1="2718" y1="760" x2="2718" y2="480" stroke="#D3D3D3" stroke-width="20"/>
<line x1="2718" y1="760" x2="2718" y2="480" stroke="#D3D3D3" stroke-width="20"/>
<line x1="3258" y1="620" x2="3258" y2="480" stroke="#D3D3D3" stroke-width="20"/>
<line x1="3819" y1="972" x2="3819" y2="480" stroke="#D3D3D3" stroke-width="20"/>
<line x1="3829" y1="962" x2="3682" y2="962" stroke="#D3D3D3" stroke-width="20"/>
<line x1="3540" y1="962" x2="2934" y2="962" stroke="#D3D3D3" stroke-width="20"/>
<line x1="3616" y1="630" x2="2787" y2="630" stroke="#D3D3D3" stroke-width="20"/>
<line x1="2657" y1="630" x2="1648" y2="630" stroke="#D3D3D3" stroke-width="20"/>
<line x1="1638" y1="1160" x2="1638" y2="836" stroke="#D3D3D3" stroke-width="20"/>
<line x1="1638" y1="704" x2="1638" y2="620" stroke="#D3D3D3" stroke-width="20"/>
<line x1="2728" y1="770" x2="928" y2="770" stroke="#D3D3D3" stroke-width="20"/>
<rect x="2600" y="280" width="169.706" height="169.706" transform="rotate(-45 2600 280)" fill="#E91EB0"/>
<rect x="644" y="1208" width="568" height="168" fill="#C4C4C4"/>
<rect x="1988" y="1208" width="568" height="168" fill="#C4C4C4"/>
<line x1="2934" y1="1160" x2="2934" y2="952" stroke="#D3D3D3" stroke-width="20"/>
<rect x="2660" y="1208" width="568" height="168" fill="#C4C4C4"/>
<rect x="1316" y="1208" width="568" height="168" fill="#C4C4C4"/>
<circle cx="3268" cy="280" r="100" fill="#00FFFF"/>
<path d="M2647 638C2647 580.105 2690.85 550 2718.54 550C2746.23 550 2797 563.895 2797 638" stroke="#D3D3D3" stroke-width="20"/>
<path d="M3532 972C3532 914.105 3575.85 884 3603.54 884C3631.23 884 3682 897.895 3682 972" stroke="#D3D3D3" stroke-width="20"/>
<path d="M1648 845C1590.11 845 1560 801.154 1560 773.462C1560 745.769 1573.89 695 1648 695" stroke="#D3D3D3" stroke-width="20"/>
<line x1="3606" y1="1160" x2="3606" y2="620" stroke="#D3D3D3" stroke-width="20"/>
<rect x="3332" y="1208" width="568" height="168" fill="#C4C4C4"/>
<path d="M3829 180L3944.18 379.5H3713.82L3829 180Z" fill="#FEE504"/>
</svg>
