<svg width="427" height="355" viewBox="0 0 427 355" fill="none" xmlns="http://www.w3.org/2000/svg">
<rect x="3.5" y="3.5" width="115" height="180" transform="translate(0 48)" stroke="white" stroke-width="7"/>
<circle cx="6" cy="6" r="6" transform="translate(40 187) rotate(90)" fill="white"/>
<line y1="-2" x2="11" y2="-2" transform="translate(32 196) rotate(90)" stroke="white" stroke-width="4"/>
<circle cx="6" cy="6" r="6" transform="translate(53 94)" fill="white"/>
<line y1="-2" x2="11" y2="-2" transform="translate(62 102)" stroke="white" stroke-width="4"/>
<line y1="-2" x2="13" y2="-2" transform="translate(177 102)" stroke="white" stroke-width="4"/>
<path d="M6 0L11.1962 9H0.803848L6 0Z" transform="translate(196 94) rotate(90)" fill="white"/>
<rect x="3.5" y="3.5" width="107" height="87" transform="translate(157 48)" stroke="white" stroke-width="7"/>
<circle cx="6" cy="6" r="6" transform="translate(234 94)" fill="white"/>
<line y1="-2" x2="11" y2="-2" transform="translate(243 102)" stroke="white" stroke-width="4"/>
<line y1="-2" x2="110" y2="-2" transform="translate(73 102)" stroke="white" stroke-width="4"/>
<line y1="-2" x2="79" y2="-2" transform="translate(247 102)" stroke="white" stroke-width="4"/>
<line y1="-2" x2="120" y2="-2" transform="translate(33 292)" stroke="white" stroke-width="4"/>
<line y1="-2" x2="89" y2="-2" transform="translate(36 292) rotate(-90)" stroke="white" stroke-width="4"/>
<rect x="3.5" y="3.5" width="108" height="141" transform="translate(312 48)" stroke="white" stroke-width="7"/>
<line y1="-2" x2="13" y2="-2" transform="translate(365 165)" stroke="white" stroke-width="4"/>
<path d="M6 0L11.1962 9H0.803848L6 0Z" transform="translate(384 157) rotate(90)" fill="white"/>
<line y1="-2" x2="13" y2="-2" transform="translate(319 102)" stroke="white" stroke-width="4"/>
<path d="M6 0L11.1962 9H0.803848L6 0Z" transform="translate(338 94) rotate(90)" fill="white"/>
<rect x="3.5" y="3.5" width="82" height="64" transform="translate(141 235)" stroke="white" stroke-width="7"/>
<line y1="-2" x2="178" y2="-2" transform="translate(366 161) rotate(180)" stroke="white" stroke-width="4" stroke-dasharray="8 4"/>
<line y1="-2" x2="95" y2="-2" transform="translate(188 256) rotate(-90)" stroke="white" stroke-width="4" stroke-dasharray="8 4"/>
<line y1="-2" x2="13" y2="-2" transform="translate(146 292)" stroke="white" stroke-width="4"/>
<path d="M6 0L11.1962 9H0.803848L6 0Z" transform="translate(165 284) rotate(90)" fill="white"/>
</svg>
