<svg width="4176" height="1520" viewBox="0 0 4176 1520" fill="none" xmlns="http://www.w3.org/2000/svg">
<rect width="4176" height="1520" fill="#0A8EAB"/>
<mask id="mask0" mask-type="alpha" maskUnits="userSpaceOnUse" x="0" y="0" width="4176" height="1520">
<rect width="4176" height="1520" fill="#0A8EAB"/>
</mask>
<g mask="url(#mask0)">
<path fill-rule="evenodd" clip-rule="evenodd" d="M1874.56 2100.13C1936.85 2146.38 2040.9 2189.03 2186.73 2228.11L2209.55 2142.95C2141.93 2123.1 2088.8 2101.04 2050.14 2076.77C2012.68 2054.56 1986.58 2022.36 1971.83 1980.16C1958.71 1938.4 1961.49 1882.65 1980.18 1812.9L2092.31 1394.42C2129.26 1256.55 2060.96 1145.24 1887.43 1060.5C1977.97 1072.59 2052.38 1063.84 2110.67 1034.26C2171.01 1003.49 2210.96 951.612 2230.52 878.622L2342.65 460.143C2360.91 392.018 2386.16 343.153 2418.4 313.547C2452.27 284.375 2492 268.945 2537.61 267.257C2553.69 266.662 2571.12 267.077 2589.9 268.502C2582.52 280.178 2576.76 293.152 2572.99 307.198C2552.94 382.018 2597.34 458.923 2672.16 478.97C2746.98 499.018 2823.89 454.617 2843.94 379.798C2863.98 304.978 2819.58 228.073 2744.76 208.025C2739.48 206.609 2734.18 205.514 2728.89 204.729L2729.13 203.837C2593.03 167.368 2486.88 151.964 2410.69 157.625C2334.93 161.665 2277.35 185.352 2237.95 228.688C2200.18 272.458 2169.34 338.949 2145.43 428.159L2041.12 817.442C2022.43 887.189 1987.68 932.638 1936.86 953.79C1888.1 973.754 1814.08 971.306 1714.8 946.444L1680.25 1075.39C1785.14 1105.24 1851.21 1143.8 1878.48 1191.1C1907.38 1238.82 1910.52 1304.86 1887.92 1389.2L1809.69 1681.16C1780.57 1789.84 1768.94 1875.38 1774.79 1937.8C1780.64 2000.21 1813.9 2054.32 1874.56 2100.13Z" fill="white"/>
<path fill-rule="evenodd" clip-rule="evenodd" d="M3818.67 -580.537C3756.39 -626.78 3652.33 -669.439 3506.51 -708.513L3483.69 -623.357C3551.31 -603.501 3604.44 -581.44 3643.09 -557.176C3680.56 -534.968 3706.66 -502.766 3721.4 -460.569C3734.53 -418.806 3731.74 -363.052 3713.05 -293.305L3600.92 125.174C3563.98 263.045 3632.28 374.352 3805.81 459.097C3715.27 447.006 3640.86 455.752 3582.57 485.334C3522.22 516.103 3482.27 567.983 3462.72 640.974L3350.58 1059.45C3332.33 1127.58 3307.08 1176.44 3274.83 1206.05C3240.97 1235.22 3201.23 1250.65 3155.63 1252.34C3139.55 1252.93 3122.11 1252.52 3103.33 1251.09C3110.71 1239.42 3116.48 1226.44 3120.24 1212.4C3140.29 1137.58 3095.89 1060.67 3021.07 1040.63C2946.25 1020.58 2869.35 1064.98 2849.3 1139.8C2829.25 1214.62 2873.65 1291.52 2948.47 1311.57C2953.76 1312.99 2959.06 1314.08 2964.34 1314.87L2964.1 1315.76C3100.21 1352.23 3206.36 1367.63 3282.55 1361.97C3358.31 1357.93 3415.88 1334.24 3455.28 1290.91C3493.06 1247.14 3523.9 1180.65 3547.81 1091.44L3652.11 702.153C3670.8 632.407 3705.56 586.958 3756.38 565.806C3805.14 545.841 3879.16 548.29 3978.43 573.151L4012.99 444.201C3908.1 414.359 3842.02 375.792 3814.75 328.5C3785.86 280.774 3782.72 214.739 3805.32 130.394L3883.55 -161.568C3912.67 -270.243 3924.3 -355.787 3918.45 -418.202C3912.59 -480.616 3879.34 -534.728 3818.67 -580.537Z" fill="white"/>
</g>
</svg>
