<svg width="200" height="200" viewBox="0 0 200 200" fill="none" xmlns="http://www.w3.org/2000/svg">
<path d="M13.5 13.5H18.5V18.5H13.5V13.5Z" fill="white" stroke="white"/>
<path d="M19.5 13.5H24.5V18.5H19.5V13.5Z" fill="white" stroke="white"/>
<path d="M25.5 13.5H30.5V18.5H25.5V13.5Z" fill="white" stroke="white"/>
<path d="M31.5 13.5H36.5V18.5H31.5V13.5Z" fill="white" stroke="white"/>
<path d="M37.5 13.5H42.5V18.5H37.5V13.5Z" fill="white" stroke="white"/>
<path d="M43.5 13.5H48.5V18.5H43.5V13.5Z" fill="white" stroke="white"/>
<path d="M49.5 13.5H54.5V18.5H49.5V13.5Z" fill="white" stroke="white"/>
<path d="M73.5 13.5H78.5V18.5H73.5V13.5Z" fill="white" stroke="white"/>
<path d="M85.5 13.5H90.5V18.5H85.5V13.5Z" fill="white" stroke="white"/>
<path d="M109.5 13.5H114.5V18.5H109.5V13.5Z" fill="white" stroke="white"/>
<path d="M115.5 13.5H120.5V18.5H115.5V13.5Z" fill="white" stroke="white"/>
<path d="M121.5 13.5H126.5V18.5H121.5V13.5Z" fill="white" stroke="white"/>
<path d="M127.5 13.5H132.5V18.5H127.5V13.5Z" fill="white" stroke="white"/>
<path d="M133.5 13.5H138.5V18.5H133.5V13.5Z" fill="white" stroke="white"/>
<path d="M145.5 13.5H150.5V18.5H145.5V13.5Z" fill="white" stroke="white"/>
<path d="M151.5 13.5H156.5V18.5H151.5V13.5Z" fill="white" stroke="white"/>
<path d="M157.5 13.5H162.5V18.5H157.5V13.5Z" fill="white" stroke="white"/>
<path d="M163.5 13.5H168.5V18.5H163.5V13.5Z" fill="white" stroke="white"/>
<path d="M169.5 13.5H174.5V18.5H169.5V13.5Z" fill="white" stroke="white"/>
<path d="M175.5 13.5H180.5V18.5H175.5V13.5Z" fill="white" stroke="white"/>
<path d="M181.5 13.5H186.5V18.5H181.5V13.5Z" fill="white" stroke="white"/>
<path d="M13.5 19.5H18.5V24.5H13.5V19.5Z" fill="white" stroke="white"/>
<path d="M49.5 19.5H54.5V24.5H49.5V19.5Z" fill="white" stroke="white"/>
<path d="M61.5 19.5H66.5V24.5H61.5V19.5Z" fill="white" stroke="white"/>
<path d="M73.5 19.5H78.5V24.5H73.5V19.5Z" fill="white" stroke="white"/>
<path d="M97.5 19.5H102.5V24.5H97.5V19.5Z" fill="white" stroke="white"/>
<path d="M103.5 19.5H108.5V24.5H103.5V19.5Z" fill="white" stroke="white"/>
<path d="M115.5 19.5H120.5V24.5H115.5V19.5Z" fill="white" stroke="white"/>
<path d="M133.5 19.5H138.5V24.5H133.5V19.5Z" fill="white" stroke="white"/>
<path d="M145.5 19.5H150.5V24.5H145.5V19.5Z" fill="white" stroke="white"/>
<path d="M181.5 19.5H186.5V24.5H181.5V19.5Z" fill="white" stroke="white"/>
<path d="M13.5 25.5H18.5V30.5H13.5V25.5Z" fill="white" stroke="white"/>
<path d="M25.5 25.5H30.5V30.5H25.5V25.5Z" fill="white" stroke="white"/>
<path d="M31.5 25.5H36.5V30.5H31.5V25.5Z" fill="white" stroke="white"/>
<path d="M37.5 25.5H42.5V30.5H37.5V25.5Z" fill="white" stroke="white"/>
<path d="M49.5 25.5H54.5V30.5H49.5V25.5Z" fill="white" stroke="white"/>
<path d="M85.5 25.5H90.5V30.5H85.5V25.5Z" fill="white" stroke="white"/>
<path d="M97.5 25.5H102.5V30.5H97.5V25.5Z" fill="white" stroke="white"/>
<path d="M109.5 25.5H114.5V30.5H109.5V25.5Z" fill="white" stroke="white"/>
<path d="M127.5 25.5H132.5V30.5H127.5V25.5Z" fill="white" stroke="white"/>
<path d="M145.5 25.5H150.5V30.5H145.5V25.5Z" fill="white" stroke="white"/>
<path d="M157.5 25.5H162.5V30.5H157.5V25.5Z" fill="white" stroke="white"/>
<path d="M163.5 25.5H168.5V30.5H163.5V25.5Z" fill="white" stroke="white"/>
<path d="M169.5 25.5H174.5V30.5H169.5V25.5Z" fill="white" stroke="white"/>
<path d="M181.5 25.5H186.5V30.5H181.5V25.5Z" fill="white" stroke="white"/>
<path d="M13.5 31.5H18.5V36.5H13.5V31.5Z" fill="white" stroke="white"/>
<path d="M25.5 31.5H30.5V36.5H25.5V31.5Z" fill="white" stroke="white"/>
<path d="M31.5 31.5H36.5V36.5H31.5V31.5Z" fill="white" stroke="white"/>
<path d="M37.5 31.5H42.5V36.5H37.5V31.5Z" fill="white" stroke="white"/>
<path d="M49.5 31.5H54.5V36.5H49.5V31.5Z" fill="white" stroke="white"/>
<path d="M61.5 31.5H66.5V36.5H61.5V31.5Z" fill="white" stroke="white"/>
<path d="M67.5 31.5H72.5V36.5H67.5V31.5Z" fill="white" stroke="white"/>
<path d="M73.5 31.5H78.5V36.5H73.5V31.5Z" fill="white" stroke="white"/>
<path d="M85.5 31.5H90.5V36.5H85.5V31.5Z" fill="white" stroke="white"/>
<path d="M91.5 31.5H96.5V36.5H91.5V31.5Z" fill="white" stroke="white"/>
<path d="M97.5 31.5H102.5V36.5H97.5V31.5Z" fill="white" stroke="white"/>
<path d="M103.5 31.5H108.5V36.5H103.5V31.5Z" fill="white" stroke="white"/>
<path d="M109.5 31.5H114.5V36.5H109.5V31.5Z" fill="white" stroke="white"/>
<path d="M115.5 31.5H120.5V36.5H115.5V31.5Z" fill="white" stroke="white"/>
<path d="M145.5 31.5H150.5V36.5H145.5V31.5Z" fill="white" stroke="white"/>
<path d="M157.5 31.5H162.5V36.5H157.5V31.5Z" fill="white" stroke="white"/>
<path d="M163.5 31.5H168.5V36.5H163.5V31.5Z" fill="white" stroke="white"/>
<path d="M169.5 31.5H174.5V36.5H169.5V31.5Z" fill="white" stroke="white"/>
<path d="M181.5 31.5H186.5V36.5H181.5V31.5Z" fill="white" stroke="white"/>
<path d="M13.5 37.5H18.5V42.5H13.5V37.5Z" fill="white" stroke="white"/>
<path d="M25.5 37.5H30.5V42.5H25.5V37.5Z" fill="white" stroke="white"/>
<path d="M31.5 37.5H36.5V42.5H31.5V37.5Z" fill="white" stroke="white"/>
<path d="M37.5 37.5H42.5V42.5H37.5V37.5Z" fill="white" stroke="white"/>
<path d="M49.5 37.5H54.5V42.5H49.5V37.5Z" fill="white" stroke="white"/>
<path d="M67.5 37.5H72.5V42.5H67.5V37.5Z" fill="white" stroke="white"/>
<path d="M97.5 37.5H102.5V42.5H97.5V37.5Z" fill="white" stroke="white"/>
<path d="M109.5 37.5H114.5V42.5H109.5V37.5Z" fill="white" stroke="white"/>
<path d="M115.5 37.5H120.5V42.5H115.5V37.5Z" fill="white" stroke="white"/>
<path d="M121.5 37.5H126.5V42.5H121.5V37.5Z" fill="white" stroke="white"/>
<path d="M127.5 37.5H132.5V42.5H127.5V37.5Z" fill="white" stroke="white"/>
<path d="M133.5 37.5H138.5V42.5H133.5V37.5Z" fill="white" stroke="white"/>
<path d="M145.5 37.5H150.5V42.5H145.5V37.5Z" fill="white" stroke="white"/>
<path d="M157.5 37.5H162.5V42.5H157.5V37.5Z" fill="white" stroke="white"/>
<path d="M163.5 37.5H168.5V42.5H163.5V37.5Z" fill="white" stroke="white"/>
<path d="M169.5 37.5H174.5V42.5H169.5V37.5Z" fill="white" stroke="white"/>
<path d="M181.5 37.5H186.5V42.5H181.5V37.5Z" fill="white" stroke="white"/>
<path d="M13.5 43.5H18.5V48.5H13.5V43.5Z" fill="white" stroke="white"/>
<path d="M49.5 43.5H54.5V48.5H49.5V43.5Z" fill="white" stroke="white"/>
<path d="M61.5 43.5H66.5V48.5H61.5V43.5Z" fill="white" stroke="white"/>
<path d="M67.5 43.5H72.5V48.5H67.5V43.5Z" fill="white" stroke="white"/>
<path d="M79.5 43.5H84.5V48.5H79.5V43.5Z" fill="white" stroke="white"/>
<path d="M85.5 43.5H90.5V48.5H85.5V43.5Z" fill="white" stroke="white"/>
<path d="M91.5 43.5H96.5V48.5H91.5V43.5Z" fill="white" stroke="white"/>
<path d="M103.5 43.5H108.5V48.5H103.5V43.5Z" fill="white" stroke="white"/>
<path d="M145.5 43.5H150.5V48.5H145.5V43.5Z" fill="white" stroke="white"/>
<path d="M181.5 43.5H186.5V48.5H181.5V43.5Z" fill="white" stroke="white"/>
<path d="M13.5 49.5H18.5V54.5H13.5V49.5Z" fill="white" stroke="white"/>
<path d="M19.5 49.5H24.5V54.5H19.5V49.5Z" fill="white" stroke="white"/>
<path d="M25.5 49.5H30.5V54.5H25.5V49.5Z" fill="white" stroke="white"/>
<path d="M31.5 49.5H36.5V54.5H31.5V49.5Z" fill="white" stroke="white"/>
<path d="M37.5 49.5H42.5V54.5H37.5V49.5Z" fill="white" stroke="white"/>
<path d="M43.5 49.5H48.5V54.5H43.5V49.5Z" fill="white" stroke="white"/>
<path d="M49.5 49.5H54.5V54.5H49.5V49.5Z" fill="white" stroke="white"/>
<path d="M61.5 49.5H66.5V54.5H61.5V49.5Z" fill="white" stroke="white"/>
<path d="M73.5 49.5H78.5V54.5H73.5V49.5Z" fill="white" stroke="white"/>
<path d="M85.5 49.5H90.5V54.5H85.5V49.5Z" fill="white" stroke="white"/>
<path d="M97.5 49.5H102.5V54.5H97.5V49.5Z" fill="white" stroke="white"/>
<path d="M109.5 49.5H114.5V54.5H109.5V49.5Z" fill="white" stroke="white"/>
<path d="M121.5 49.5H126.5V54.5H121.5V49.5Z" fill="white" stroke="white"/>
<path d="M133.5 49.5H138.5V54.5H133.5V49.5Z" fill="white" stroke="white"/>
<path d="M145.5 49.5H150.5V54.5H145.5V49.5Z" fill="white" stroke="white"/>
<path d="M151.5 49.5H156.5V54.5H151.5V49.5Z" fill="white" stroke="white"/>
<path d="M157.5 49.5H162.5V54.5H157.5V49.5Z" fill="white" stroke="white"/>
<path d="M163.5 49.5H168.5V54.5H163.5V49.5Z" fill="white" stroke="white"/>
<path d="M169.5 49.5H174.5V54.5H169.5V49.5Z" fill="white" stroke="white"/>
<path d="M175.5 49.5H180.5V54.5H175.5V49.5Z" fill="white" stroke="white"/>
<path d="M181.5 49.5H186.5V54.5H181.5V49.5Z" fill="white" stroke="white"/>
<path d="M67.5 55.5H72.5V60.5H67.5V55.5Z" fill="white" stroke="white"/>
<path d="M73.5 55.5H78.5V60.5H73.5V55.5Z" fill="white" stroke="white"/>
<path d="M79.5 55.5H84.5V60.5H79.5V55.5Z" fill="white" stroke="white"/>
<path d="M109.5 55.5H114.5V60.5H109.5V55.5Z" fill="white" stroke="white"/>
<path d="M127.5 55.5H132.5V60.5H127.5V55.5Z" fill="white" stroke="white"/>
<path d="M133.5 55.5H138.5V60.5H133.5V55.5Z" fill="white" stroke="white"/>
<path d="M13.5 61.5H18.5V66.5H13.5V61.5Z" fill="white" stroke="white"/>
<path d="M19.5 61.5H24.5V66.5H19.5V61.5Z" fill="white" stroke="white"/>
<path d="M25.5 61.5H30.5V66.5H25.5V61.5Z" fill="white" stroke="white"/>
<path d="M31.5 61.5H36.5V66.5H31.5V61.5Z" fill="white" stroke="white"/>
<path d="M37.5 61.5H42.5V66.5H37.5V61.5Z" fill="white" stroke="white"/>
<path d="M49.5 61.5H54.5V66.5H49.5V61.5Z" fill="white" stroke="white"/>
<path d="M55.5 61.5H60.5V66.5H55.5V61.5Z" fill="white" stroke="white"/>
<path d="M61.5 61.5H66.5V66.5H61.5V61.5Z" fill="white" stroke="white"/>
<path d="M67.5 61.5H72.5V66.5H67.5V61.5Z" fill="white" stroke="white"/>
<path d="M79.5 61.5H84.5V66.5H79.5V61.5Z" fill="white" stroke="white"/>
<path d="M91.5 61.5H96.5V66.5H91.5V61.5Z" fill="white" stroke="white"/>
<path d="M97.5 61.5H102.5V66.5H97.5V61.5Z" fill="white" stroke="white"/>
<path d="M115.5 61.5H120.5V66.5H115.5V61.5Z" fill="white" stroke="white"/>
<path d="M121.5 61.5H126.5V66.5H121.5V61.5Z" fill="white" stroke="white"/>
<path d="M127.5 61.5H132.5V66.5H127.5V61.5Z" fill="white" stroke="white"/>
<path d="M139.5 61.5H144.5V66.5H139.5V61.5Z" fill="white" stroke="white"/>
<path d="M151.5 61.5H156.5V66.5H151.5V61.5Z" fill="white" stroke="white"/>
<path d="M163.5 61.5H168.5V66.5H163.5V61.5Z" fill="white" stroke="white"/>
<path d="M175.5 61.5H180.5V66.5H175.5V61.5Z" fill="white" stroke="white"/>
<path d="M37.5 67.5H42.5V72.5H37.5V67.5Z" fill="white" stroke="white"/>
<path d="M43.5 67.5H48.5V72.5H43.5V67.5Z" fill="white" stroke="white"/>
<path d="M55.5 67.5H60.5V72.5H55.5V67.5Z" fill="white" stroke="white"/>
<path d="M61.5 67.5H66.5V72.5H61.5V67.5Z" fill="white" stroke="white"/>
<path d="M73.5 67.5H78.5V72.5H73.5V67.5Z" fill="white" stroke="white"/>
<path d="M85.5 67.5H90.5V72.5H85.5V67.5Z" fill="white" stroke="white"/>
<path d="M97.5 67.5H102.5V72.5H97.5V67.5Z" fill="white" stroke="white"/>
<path d="M109.5 67.5H114.5V72.5H109.5V67.5Z" fill="white" stroke="white"/>
<path d="M115.5 67.5H120.5V72.5H115.5V67.5Z" fill="white" stroke="white"/>
<path d="M121.5 67.5H126.5V72.5H121.5V67.5Z" fill="white" stroke="white"/>
<path d="M127.5 67.5H132.5V72.5H127.5V67.5Z" fill="white" stroke="white"/>
<path d="M145.5 67.5H150.5V72.5H145.5V67.5Z" fill="white" stroke="white"/>
<path d="M151.5 67.5H156.5V72.5H151.5V67.5Z" fill="white" stroke="white"/>
<path d="M157.5 67.5H162.5V72.5H157.5V67.5Z" fill="white" stroke="white"/>
<path d="M181.5 67.5H186.5V72.5H181.5V67.5Z" fill="white" stroke="white"/>
<path d="M25.5 73.5H30.5V78.5H25.5V73.5Z" fill="white" stroke="white"/>
<path d="M31.5 73.5H36.5V78.5H31.5V73.5Z" fill="white" stroke="white"/>
<path d="M49.5 73.5H54.5V78.5H49.5V73.5Z" fill="white" stroke="white"/>
<path d="M61.5 73.5H66.5V78.5H61.5V73.5Z" fill="white" stroke="white"/>
<path d="M73.5 73.5H78.5V78.5H73.5V73.5Z" fill="white" stroke="white"/>
<path d="M97.5 73.5H102.5V78.5H97.5V73.5Z" fill="white" stroke="white"/>
<path d="M103.5 73.5H108.5V78.5H103.5V73.5Z" fill="white" stroke="white"/>
<path d="M109.5 73.5H114.5V78.5H109.5V73.5Z" fill="white" stroke="white"/>
<path d="M115.5 73.5H120.5V78.5H115.5V73.5Z" fill="white" stroke="white"/>
<path d="M133.5 73.5H138.5V78.5H133.5V73.5Z" fill="white" stroke="white"/>
<path d="M139.5 73.5H144.5V78.5H139.5V73.5Z" fill="white" stroke="white"/>
<path d="M151.5 73.5H156.5V78.5H151.5V73.5Z" fill="white" stroke="white"/>
<path d="M157.5 73.5H162.5V78.5H157.5V73.5Z" fill="white" stroke="white"/>
<path d="M19.5 79.5H24.5V84.5H19.5V79.5Z" fill="white" stroke="white"/>
<path d="M25.5 79.5H30.5V84.5H25.5V79.5Z" fill="white" stroke="white"/>
<path d="M37.5 79.5H42.5V84.5H37.5V79.5Z" fill="white" stroke="white"/>
<path d="M43.5 79.5H48.5V84.5H43.5V79.5Z" fill="white" stroke="white"/>
<path d="M55.5 79.5H60.5V84.5H55.5V79.5Z" fill="white" stroke="white"/>
<path d="M61.5 79.5H66.5V84.5H61.5V79.5Z" fill="white" stroke="white"/>
<path d="M85.5 79.5H90.5V84.5H85.5V79.5Z" fill="white" stroke="white"/>
<path d="M103.5 79.5H108.5V84.5H103.5V79.5Z" fill="white" stroke="white"/>
<path d="M145.5 79.5H150.5V84.5H145.5V79.5Z" fill="white" stroke="white"/>
<path d="M157.5 79.5H162.5V84.5H157.5V79.5Z" fill="white" stroke="white"/>
<path d="M163.5 79.5H168.5V84.5H163.5V79.5Z" fill="white" stroke="white"/>
<path d="M175.5 79.5H180.5V84.5H175.5V79.5Z" fill="white" stroke="white"/>
<path d="M25.5 85.5H30.5V90.5H25.5V85.5Z" fill="white" stroke="white"/>
<path d="M49.5 85.5H54.5V90.5H49.5V85.5Z" fill="white" stroke="white"/>
<path d="M61.5 85.5H66.5V90.5H61.5V85.5Z" fill="white" stroke="white"/>
<path d="M67.5 85.5H72.5V90.5H67.5V85.5Z" fill="white" stroke="white"/>
<path d="M73.5 85.5H78.5V90.5H73.5V85.5Z" fill="white" stroke="white"/>
<path d="M85.5 85.5H90.5V90.5H85.5V85.5Z" fill="white" stroke="white"/>
<path d="M91.5 85.5H96.5V90.5H91.5V85.5Z" fill="white" stroke="white"/>
<path d="M115.5 85.5H120.5V90.5H115.5V85.5Z" fill="white" stroke="white"/>
<path d="M139.5 85.5H144.5V90.5H139.5V85.5Z" fill="white" stroke="white"/>
<path d="M163.5 85.5H168.5V90.5H163.5V85.5Z" fill="white" stroke="white"/>
<path d="M169.5 85.5H174.5V90.5H169.5V85.5Z" fill="white" stroke="white"/>
<path d="M13.5 91.5H18.5V96.5H13.5V91.5Z" fill="white" stroke="white"/>
<path d="M19.5 91.5H24.5V96.5H19.5V91.5Z" fill="white" stroke="white"/>
<path d="M25.5 91.5H30.5V96.5H25.5V91.5Z" fill="white" stroke="white"/>
<path d="M37.5 91.5H42.5V96.5H37.5V91.5Z" fill="white" stroke="white"/>
<path d="M55.5 91.5H60.5V96.5H55.5V91.5Z" fill="white" stroke="white"/>
<path d="M61.5 91.5H66.5V96.5H61.5V91.5Z" fill="white" stroke="white"/>
<path d="M67.5 91.5H72.5V96.5H67.5V91.5Z" fill="white" stroke="white"/>
<path d="M91.5 91.5H96.5V96.5H91.5V91.5Z" fill="white" stroke="white"/>
<path d="M109.5 91.5H114.5V96.5H109.5V91.5Z" fill="white" stroke="white"/>
<path d="M127.5 91.5H132.5V96.5H127.5V91.5Z" fill="white" stroke="white"/>
<path d="M133.5 91.5H138.5V96.5H133.5V91.5Z" fill="white" stroke="white"/>
<path d="M139.5 91.5H144.5V96.5H139.5V91.5Z" fill="white" stroke="white"/>
<path d="M145.5 91.5H150.5V96.5H145.5V91.5Z" fill="white" stroke="white"/>
<path d="M151.5 91.5H156.5V96.5H151.5V91.5Z" fill="white" stroke="white"/>
<path d="M157.5 91.5H162.5V96.5H157.5V91.5Z" fill="white" stroke="white"/>
<path d="M181.5 91.5H186.5V96.5H181.5V91.5Z" fill="white" stroke="white"/>
<path d="M13.5 97.5H18.5V102.5H13.5V97.5Z" fill="white" stroke="white"/>
<path d="M19.5 97.5H24.5V102.5H19.5V97.5Z" fill="white" stroke="white"/>
<path d="M31.5 97.5H36.5V102.5H31.5V97.5Z" fill="white" stroke="white"/>
<path d="M43.5 97.5H48.5V102.5H43.5V97.5Z" fill="white" stroke="white"/>
<path d="M49.5 97.5H54.5V102.5H49.5V97.5Z" fill="white" stroke="white"/>
<path d="M55.5 97.5H60.5V102.5H55.5V97.5Z" fill="white" stroke="white"/>
<path d="M61.5 97.5H66.5V102.5H61.5V97.5Z" fill="white" stroke="white"/>
<path d="M67.5 97.5H72.5V102.5H67.5V97.5Z" fill="white" stroke="white"/>
<path d="M79.5 97.5H84.5V102.5H79.5V97.5Z" fill="white" stroke="white"/>
<path d="M85.5 97.5H90.5V102.5H85.5V97.5Z" fill="white" stroke="white"/>
<path d="M91.5 97.5H96.5V102.5H91.5V97.5Z" fill="white" stroke="white"/>
<path d="M97.5 97.5H102.5V102.5H97.5V97.5Z" fill="white" stroke="white"/>
<path d="M103.5 97.5H108.5V102.5H103.5V97.5Z" fill="white" stroke="white"/>
<path d="M109.5 97.5H114.5V102.5H109.5V97.5Z" fill="white" stroke="white"/>
<path d="M115.5 97.5H120.5V102.5H115.5V97.5Z" fill="white" stroke="white"/>
<path d="M121.5 97.5H126.5V102.5H121.5V97.5Z" fill="white" stroke="white"/>
<path d="M133.5 97.5H138.5V102.5H133.5V97.5Z" fill="white" stroke="white"/>
<path d="M145.5 97.5H150.5V102.5H145.5V97.5Z" fill="white" stroke="white"/>
<path d="M157.5 97.5H162.5V102.5H157.5V97.5Z" fill="white" stroke="white"/>
<path d="M163.5 97.5H168.5V102.5H163.5V97.5Z" fill="white" stroke="white"/>
<path d="M169.5 97.5H174.5V102.5H169.5V97.5Z" fill="white" stroke="white"/>
<path d="M13.5 103.5H18.5V108.5H13.5V103.5Z" fill="white" stroke="white"/>
<path d="M37.5 103.5H42.5V108.5H37.5V103.5Z" fill="white" stroke="white"/>
<path d="M43.5 103.5H48.5V108.5H43.5V103.5Z" fill="white" stroke="white"/>
<path d="M67.5 103.5H72.5V108.5H67.5V103.5Z" fill="white" stroke="white"/>
<path d="M73.5 103.5H78.5V108.5H73.5V103.5Z" fill="white" stroke="white"/>
<path d="M79.5 103.5H84.5V108.5H79.5V103.5Z" fill="white" stroke="white"/>
<path d="M109.5 103.5H114.5V108.5H109.5V103.5Z" fill="white" stroke="white"/>
<path d="M121.5 103.5H126.5V108.5H121.5V103.5Z" fill="white" stroke="white"/>
<path d="M139.5 103.5H144.5V108.5H139.5V103.5Z" fill="white" stroke="white"/>
<path d="M145.5 103.5H150.5V108.5H145.5V103.5Z" fill="white" stroke="white"/>
<path d="M151.5 103.5H156.5V108.5H151.5V103.5Z" fill="white" stroke="white"/>
<path d="M175.5 103.5H180.5V108.5H175.5V103.5Z" fill="white" stroke="white"/>
<path d="M31.5 109.5H36.5V114.5H31.5V109.5Z" fill="white" stroke="white"/>
<path d="M49.5 109.5H54.5V114.5H49.5V109.5Z" fill="white" stroke="white"/>
<path d="M61.5 109.5H66.5V114.5H61.5V109.5Z" fill="white" stroke="white"/>
<path d="M67.5 109.5H72.5V114.5H67.5V109.5Z" fill="white" stroke="white"/>
<path d="M79.5 109.5H84.5V114.5H79.5V109.5Z" fill="white" stroke="white"/>
<path d="M91.5 109.5H96.5V114.5H91.5V109.5Z" fill="white" stroke="white"/>
<path d="M97.5 109.5H102.5V114.5H97.5V109.5Z" fill="white" stroke="white"/>
<path d="M115.5 109.5H120.5V114.5H115.5V109.5Z" fill="white" stroke="white"/>
<path d="M127.5 109.5H132.5V114.5H127.5V109.5Z" fill="white" stroke="white"/>
<path d="M133.5 109.5H138.5V114.5H133.5V109.5Z" fill="white" stroke="white"/>
<path d="M163.5 109.5H168.5V114.5H163.5V109.5Z" fill="white" stroke="white"/>
<path d="M169.5 109.5H174.5V114.5H169.5V109.5Z" fill="white" stroke="white"/>
<path d="M13.5 115.5H18.5V120.5H13.5V115.5Z" fill="white" stroke="white"/>
<path d="M19.5 115.5H24.5V120.5H19.5V115.5Z" fill="white" stroke="white"/>
<path d="M25.5 115.5H30.5V120.5H25.5V115.5Z" fill="white" stroke="white"/>
<path d="M43.5 115.5H48.5V120.5H43.5V115.5Z" fill="white" stroke="white"/>
<path d="M55.5 115.5H60.5V120.5H55.5V115.5Z" fill="white" stroke="white"/>
<path d="M61.5 115.5H66.5V120.5H61.5V115.5Z" fill="white" stroke="white"/>
<path d="M67.5 115.5H72.5V120.5H67.5V115.5Z" fill="white" stroke="white"/>
<path d="M85.5 115.5H90.5V120.5H85.5V115.5Z" fill="white" stroke="white"/>
<path d="M91.5 115.5H96.5V120.5H91.5V115.5Z" fill="white" stroke="white"/>
<path d="M109.5 115.5H114.5V120.5H109.5V115.5Z" fill="white" stroke="white"/>
<path d="M121.5 115.5H126.5V120.5H121.5V115.5Z" fill="white" stroke="white"/>
<path d="M127.5 115.5H132.5V120.5H127.5V115.5Z" fill="white" stroke="white"/>
<path d="M133.5 115.5H138.5V120.5H133.5V115.5Z" fill="white" stroke="white"/>
<path d="M145.5 115.5H150.5V120.5H145.5V115.5Z" fill="white" stroke="white"/>
<path d="M151.5 115.5H156.5V120.5H151.5V115.5Z" fill="white" stroke="white"/>
<path d="M157.5 115.5H162.5V120.5H157.5V115.5Z" fill="white" stroke="white"/>
<path d="M169.5 115.5H174.5V120.5H169.5V115.5Z" fill="white" stroke="white"/>
<path d="M181.5 115.5H186.5V120.5H181.5V115.5Z" fill="white" stroke="white"/>
<path d="M13.5 121.5H18.5V126.5H13.5V121.5Z" fill="white" stroke="white"/>
<path d="M25.5 121.5H30.5V126.5H25.5V121.5Z" fill="white" stroke="white"/>
<path d="M31.5 121.5H36.5V126.5H31.5V121.5Z" fill="white" stroke="white"/>
<path d="M37.5 121.5H42.5V126.5H37.5V121.5Z" fill="white" stroke="white"/>
<path d="M49.5 121.5H54.5V126.5H49.5V121.5Z" fill="white" stroke="white"/>
<path d="M61.5 121.5H66.5V126.5H61.5V121.5Z" fill="white" stroke="white"/>
<path d="M67.5 121.5H72.5V126.5H67.5V121.5Z" fill="white" stroke="white"/>
<path d="M103.5 121.5H108.5V126.5H103.5V121.5Z" fill="white" stroke="white"/>
<path d="M133.5 121.5H138.5V126.5H133.5V121.5Z" fill="white" stroke="white"/>
<path d="M139.5 121.5H144.5V126.5H139.5V121.5Z" fill="white" stroke="white"/>
<path d="M151.5 121.5H156.5V126.5H151.5V121.5Z" fill="white" stroke="white"/>
<path d="M157.5 121.5H162.5V126.5H157.5V121.5Z" fill="white" stroke="white"/>
<path d="M169.5 121.5H174.5V126.5H169.5V121.5Z" fill="white" stroke="white"/>
<path d="M13.5 127.5H18.5V132.5H13.5V127.5Z" fill="white" stroke="white"/>
<path d="M25.5 127.5H30.5V132.5H25.5V127.5Z" fill="white" stroke="white"/>
<path d="M31.5 127.5H36.5V132.5H31.5V127.5Z" fill="white" stroke="white"/>
<path d="M43.5 127.5H48.5V132.5H43.5V127.5Z" fill="white" stroke="white"/>
<path d="M67.5 127.5H72.5V132.5H67.5V127.5Z" fill="white" stroke="white"/>
<path d="M85.5 127.5H90.5V132.5H85.5V127.5Z" fill="white" stroke="white"/>
<path d="M127.5 127.5H132.5V132.5H127.5V127.5Z" fill="white" stroke="white"/>
<path d="M133.5 127.5H138.5V132.5H133.5V127.5Z" fill="white" stroke="white"/>
<path d="M139.5 127.5H144.5V132.5H139.5V127.5Z" fill="white" stroke="white"/>
<path d="M145.5 127.5H150.5V132.5H145.5V127.5Z" fill="white" stroke="white"/>
<path d="M151.5 127.5H156.5V132.5H151.5V127.5Z" fill="white" stroke="white"/>
<path d="M157.5 127.5H162.5V132.5H157.5V127.5Z" fill="white" stroke="white"/>
<path d="M175.5 127.5H180.5V132.5H175.5V127.5Z" fill="white" stroke="white"/>
<path d="M13.5 133.5H18.5V138.5H13.5V133.5Z" fill="white" stroke="white"/>
<path d="M31.5 133.5H36.5V138.5H31.5V133.5Z" fill="white" stroke="white"/>
<path d="M49.5 133.5H54.5V138.5H49.5V133.5Z" fill="white" stroke="white"/>
<path d="M55.5 133.5H60.5V138.5H55.5V133.5Z" fill="white" stroke="white"/>
<path d="M67.5 133.5H72.5V138.5H67.5V133.5Z" fill="white" stroke="white"/>
<path d="M85.5 133.5H90.5V138.5H85.5V133.5Z" fill="white" stroke="white"/>
<path d="M91.5 133.5H96.5V138.5H91.5V133.5Z" fill="white" stroke="white"/>
<path d="M97.5 133.5H102.5V138.5H97.5V133.5Z" fill="white" stroke="white"/>
<path d="M103.5 133.5H108.5V138.5H103.5V133.5Z" fill="white" stroke="white"/>
<path d="M109.5 133.5H114.5V138.5H109.5V133.5Z" fill="white" stroke="white"/>
<path d="M115.5 133.5H120.5V138.5H115.5V133.5Z" fill="white" stroke="white"/>
<path d="M127.5 133.5H132.5V138.5H127.5V133.5Z" fill="white" stroke="white"/>
<path d="M133.5 133.5H138.5V138.5H133.5V133.5Z" fill="white" stroke="white"/>
<path d="M139.5 133.5H144.5V138.5H139.5V133.5Z" fill="white" stroke="white"/>
<path d="M145.5 133.5H150.5V138.5H145.5V133.5Z" fill="white" stroke="white"/>
<path d="M151.5 133.5H156.5V138.5H151.5V133.5Z" fill="white" stroke="white"/>
<path d="M157.5 133.5H162.5V138.5H157.5V133.5Z" fill="white" stroke="white"/>
<path d="M169.5 133.5H174.5V138.5H169.5V133.5Z" fill="white" stroke="white"/>
<path d="M175.5 133.5H180.5V138.5H175.5V133.5Z" fill="white" stroke="white"/>
<path d="M181.5 133.5H186.5V138.5H181.5V133.5Z" fill="white" stroke="white"/>
<path d="M61.5 139.5H66.5V144.5H61.5V139.5Z" fill="white" stroke="white"/>
<path d="M97.5 139.5H102.5V144.5H97.5V139.5Z" fill="white" stroke="white"/>
<path d="M109.5 139.5H114.5V144.5H109.5V139.5Z" fill="white" stroke="white"/>
<path d="M121.5 139.5H126.5V144.5H121.5V139.5Z" fill="white" stroke="white"/>
<path d="M133.5 139.5H138.5V144.5H133.5V139.5Z" fill="white" stroke="white"/>
<path d="M157.5 139.5H162.5V144.5H157.5V139.5Z" fill="white" stroke="white"/>
<path d="M163.5 139.5H168.5V144.5H163.5V139.5Z" fill="white" stroke="white"/>
<path d="M169.5 139.5H174.5V144.5H169.5V139.5Z" fill="white" stroke="white"/>
<path d="M175.5 139.5H180.5V144.5H175.5V139.5Z" fill="white" stroke="white"/>
<path d="M181.5 139.5H186.5V144.5H181.5V139.5Z" fill="white" stroke="white"/>
<path d="M13.5 145.5H18.5V150.5H13.5V145.5Z" fill="white" stroke="white"/>
<path d="M19.5 145.5H24.5V150.5H19.5V145.5Z" fill="white" stroke="white"/>
<path d="M25.5 145.5H30.5V150.5H25.5V145.5Z" fill="white" stroke="white"/>
<path d="M31.5 145.5H36.5V150.5H31.5V145.5Z" fill="white" stroke="white"/>
<path d="M37.5 145.5H42.5V150.5H37.5V145.5Z" fill="white" stroke="white"/>
<path d="M43.5 145.5H48.5V150.5H43.5V145.5Z" fill="white" stroke="white"/>
<path d="M49.5 145.5H54.5V150.5H49.5V145.5Z" fill="white" stroke="white"/>
<path d="M61.5 145.5H66.5V150.5H61.5V145.5Z" fill="white" stroke="white"/>
<path d="M73.5 145.5H78.5V150.5H73.5V145.5Z" fill="white" stroke="white"/>
<path d="M79.5 145.5H84.5V150.5H79.5V145.5Z" fill="white" stroke="white"/>
<path d="M85.5 145.5H90.5V150.5H85.5V145.5Z" fill="white" stroke="white"/>
<path d="M97.5 145.5H102.5V150.5H97.5V145.5Z" fill="white" stroke="white"/>
<path d="M103.5 145.5H108.5V150.5H103.5V145.5Z" fill="white" stroke="white"/>
<path d="M115.5 145.5H120.5V150.5H115.5V145.5Z" fill="white" stroke="white"/>
<path d="M127.5 145.5H132.5V150.5H127.5V145.5Z" fill="white" stroke="white"/>
<path d="M133.5 145.5H138.5V150.5H133.5V145.5Z" fill="white" stroke="white"/>
<path d="M145.5 145.5H150.5V150.5H145.5V145.5Z" fill="white" stroke="white"/>
<path d="M157.5 145.5H162.5V150.5H157.5V145.5Z" fill="white" stroke="white"/>
<path d="M163.5 145.5H168.5V150.5H163.5V145.5Z" fill="white" stroke="white"/>
<path d="M169.5 145.5H174.5V150.5H169.5V145.5Z" fill="white" stroke="white"/>
<path d="M13.5 151.5H18.5V156.5H13.5V151.5Z" fill="white" stroke="white"/>
<path d="M49.5 151.5H54.5V156.5H49.5V151.5Z" fill="white" stroke="white"/>
<path d="M67.5 151.5H72.5V156.5H67.5V151.5Z" fill="white" stroke="white"/>
<path d="M73.5 151.5H78.5V156.5H73.5V151.5Z" fill="white" stroke="white"/>
<path d="M79.5 151.5H84.5V156.5H79.5V151.5Z" fill="white" stroke="white"/>
<path d="M103.5 151.5H108.5V156.5H103.5V151.5Z" fill="white" stroke="white"/>
<path d="M109.5 151.5H114.5V156.5H109.5V151.5Z" fill="white" stroke="white"/>
<path d="M127.5 151.5H132.5V156.5H127.5V151.5Z" fill="white" stroke="white"/>
<path d="M133.5 151.5H138.5V156.5H133.5V151.5Z" fill="white" stroke="white"/>
<path d="M157.5 151.5H162.5V156.5H157.5V151.5Z" fill="white" stroke="white"/>
<path d="M175.5 151.5H180.5V156.5H175.5V151.5Z" fill="white" stroke="white"/>
<path d="M13.5 157.5H18.5V162.5H13.5V157.5Z" fill="white" stroke="white"/>
<path d="M25.5 157.5H30.5V162.5H25.5V157.5Z" fill="white" stroke="white"/>
<path d="M31.5 157.5H36.5V162.5H31.5V157.5Z" fill="white" stroke="white"/>
<path d="M37.5 157.5H42.5V162.5H37.5V157.5Z" fill="white" stroke="white"/>
<path d="M49.5 157.5H54.5V162.5H49.5V157.5Z" fill="white" stroke="white"/>
<path d="M61.5 157.5H66.5V162.5H61.5V157.5Z" fill="white" stroke="white"/>
<path d="M67.5 157.5H72.5V162.5H67.5V157.5Z" fill="white" stroke="white"/>
<path d="M79.5 157.5H84.5V162.5H79.5V157.5Z" fill="white" stroke="white"/>
<path d="M85.5 157.5H90.5V162.5H85.5V157.5Z" fill="white" stroke="white"/>
<path d="M91.5 157.5H96.5V162.5H91.5V157.5Z" fill="white" stroke="white"/>
<path d="M97.5 157.5H102.5V162.5H97.5V157.5Z" fill="white" stroke="white"/>
<path d="M103.5 157.5H108.5V162.5H103.5V157.5Z" fill="white" stroke="white"/>
<path d="M109.5 157.5H114.5V162.5H109.5V157.5Z" fill="white" stroke="white"/>
<path d="M115.5 157.5H120.5V162.5H115.5V157.5Z" fill="white" stroke="white"/>
<path d="M133.5 157.5H138.5V162.5H133.5V157.5Z" fill="white" stroke="white"/>
<path d="M139.5 157.5H144.5V162.5H139.5V157.5Z" fill="white" stroke="white"/>
<path d="M145.5 157.5H150.5V162.5H145.5V157.5Z" fill="white" stroke="white"/>
<path d="M151.5 157.5H156.5V162.5H151.5V157.5Z" fill="white" stroke="white"/>
<path d="M157.5 157.5H162.5V162.5H157.5V157.5Z" fill="white" stroke="white"/>
<path d="M169.5 157.5H174.5V162.5H169.5V157.5Z" fill="white" stroke="white"/>
<path d="M181.5 157.5H186.5V162.5H181.5V157.5Z" fill="white" stroke="white"/>
<path d="M13.5 163.5H18.5V168.5H13.5V163.5Z" fill="white" stroke="white"/>
<path d="M25.5 163.5H30.5V168.5H25.5V163.5Z" fill="white" stroke="white"/>
<path d="M31.5 163.5H36.5V168.5H31.5V163.5Z" fill="white" stroke="white"/>
<path d="M37.5 163.5H42.5V168.5H37.5V163.5Z" fill="white" stroke="white"/>
<path d="M49.5 163.5H54.5V168.5H49.5V163.5Z" fill="white" stroke="white"/>
<path d="M61.5 163.5H66.5V168.5H61.5V163.5Z" fill="white" stroke="white"/>
<path d="M85.5 163.5H90.5V168.5H85.5V163.5Z" fill="white" stroke="white"/>
<path d="M91.5 163.5H96.5V168.5H91.5V163.5Z" fill="white" stroke="white"/>
<path d="M109.5 163.5H114.5V168.5H109.5V163.5Z" fill="white" stroke="white"/>
<path d="M115.5 163.5H120.5V168.5H115.5V163.5Z" fill="white" stroke="white"/>
<path d="M121.5 163.5H126.5V168.5H121.5V163.5Z" fill="white" stroke="white"/>
<path d="M133.5 163.5H138.5V168.5H133.5V163.5Z" fill="white" stroke="white"/>
<path d="M151.5 163.5H156.5V168.5H151.5V163.5Z" fill="white" stroke="white"/>
<path d="M163.5 163.5H168.5V168.5H163.5V163.5Z" fill="white" stroke="white"/>
<path d="M169.5 163.5H174.5V168.5H169.5V163.5Z" fill="white" stroke="white"/>
<path d="M175.5 163.5H180.5V168.5H175.5V163.5Z" fill="white" stroke="white"/>
<path d="M181.5 163.5H186.5V168.5H181.5V163.5Z" fill="white" stroke="white"/>
<path d="M13.5 169.5H18.5V174.5H13.5V169.5Z" fill="white" stroke="white"/>
<path d="M25.5 169.5H30.5V174.5H25.5V169.5Z" fill="white" stroke="white"/>
<path d="M31.5 169.5H36.5V174.5H31.5V169.5Z" fill="white" stroke="white"/>
<path d="M37.5 169.5H42.5V174.5H37.5V169.5Z" fill="white" stroke="white"/>
<path d="M49.5 169.5H54.5V174.5H49.5V169.5Z" fill="white" stroke="white"/>
<path d="M61.5 169.5H66.5V174.5H61.5V169.5Z" fill="white" stroke="white"/>
<path d="M85.5 169.5H90.5V174.5H85.5V169.5Z" fill="white" stroke="white"/>
<path d="M97.5 169.5H102.5V174.5H97.5V169.5Z" fill="white" stroke="white"/>
<path d="M103.5 169.5H108.5V174.5H103.5V169.5Z" fill="white" stroke="white"/>
<path d="M109.5 169.5H114.5V174.5H109.5V169.5Z" fill="white" stroke="white"/>
<path d="M121.5 169.5H126.5V174.5H121.5V169.5Z" fill="white" stroke="white"/>
<path d="M127.5 169.5H132.5V174.5H127.5V169.5Z" fill="white" stroke="white"/>
<path d="M133.5 169.5H138.5V174.5H133.5V169.5Z" fill="white" stroke="white"/>
<path d="M139.5 169.5H144.5V174.5H139.5V169.5Z" fill="white" stroke="white"/>
<path d="M145.5 169.5H150.5V174.5H145.5V169.5Z" fill="white" stroke="white"/>
<path d="M151.5 169.5H156.5V174.5H151.5V169.5Z" fill="white" stroke="white"/>
<path d="M157.5 169.5H162.5V174.5H157.5V169.5Z" fill="white" stroke="white"/>
<path d="M163.5 169.5H168.5V174.5H163.5V169.5Z" fill="white" stroke="white"/>
<path d="M169.5 169.5H174.5V174.5H169.5V169.5Z" fill="white" stroke="white"/>
<path d="M175.5 169.5H180.5V174.5H175.5V169.5Z" fill="white" stroke="white"/>
<path d="M13.5 175.5H18.5V180.5H13.5V175.5Z" fill="white" stroke="white"/>
<path d="M49.5 175.5H54.5V180.5H49.5V175.5Z" fill="white" stroke="white"/>
<path d="M61.5 175.5H66.5V180.5H61.5V175.5Z" fill="white" stroke="white"/>
<path d="M97.5 175.5H102.5V180.5H97.5V175.5Z" fill="white" stroke="white"/>
<path d="M133.5 175.5H138.5V180.5H133.5V175.5Z" fill="white" stroke="white"/>
<path d="M139.5 175.5H144.5V180.5H139.5V175.5Z" fill="white" stroke="white"/>
<path d="M151.5 175.5H156.5V180.5H151.5V175.5Z" fill="white" stroke="white"/>
<path d="M157.5 175.5H162.5V180.5H157.5V175.5Z" fill="white" stroke="white"/>
<path d="M163.5 175.5H168.5V180.5H163.5V175.5Z" fill="white" stroke="white"/>
<path d="M175.5 175.5H180.5V180.5H175.5V175.5Z" fill="white" stroke="white"/>
<path d="M13.5 181.5H18.5V186.5H13.5V181.5Z" fill="white" stroke="white"/>
<path d="M19.5 181.5H24.5V186.5H19.5V181.5Z" fill="white" stroke="white"/>
<path d="M25.5 181.5H30.5V186.5H25.5V181.5Z" fill="white" stroke="white"/>
<path d="M31.5 181.5H36.5V186.5H31.5V181.5Z" fill="white" stroke="white"/>
<path d="M37.5 181.5H42.5V186.5H37.5V181.5Z" fill="white" stroke="white"/>
<path d="M43.5 181.5H48.5V186.5H43.5V181.5Z" fill="white" stroke="white"/>
<path d="M49.5 181.5H54.5V186.5H49.5V181.5Z" fill="white" stroke="white"/>
<path d="M61.5 181.5H66.5V186.5H61.5V181.5Z" fill="white" stroke="white"/>
<path d="M67.5 181.5H72.5V186.5H67.5V181.5Z" fill="white" stroke="white"/>
<path d="M79.5 181.5H84.5V186.5H79.5V181.5Z" fill="white" stroke="white"/>
<path d="M85.5 181.5H90.5V186.5H85.5V181.5Z" fill="white" stroke="white"/>
<path d="M91.5 181.5H96.5V186.5H91.5V181.5Z" fill="white" stroke="white"/>
<path d="M97.5 181.5H102.5V186.5H97.5V181.5Z" fill="white" stroke="white"/>
<path d="M103.5 181.5H108.5V186.5H103.5V181.5Z" fill="white" stroke="white"/>
<path d="M109.5 181.5H114.5V186.5H109.5V181.5Z" fill="white" stroke="white"/>
<path d="M115.5 181.5H120.5V186.5H115.5V181.5Z" fill="white" stroke="white"/>
<path d="M127.5 181.5H132.5V186.5H127.5V181.5Z" fill="white" stroke="white"/>
<path d="M157.5 181.5H162.5V186.5H157.5V181.5Z" fill="white" stroke="white"/>
<path d="M169.5 181.5H174.5V186.5H169.5V181.5Z" fill="white" stroke="white"/>
</svg>
