<svg width="697" height="139" viewBox="0 0 697 139" fill="none" xmlns="http://www.w3.org/2000/svg">
<path d="M34.4801 7.52002L26.2481 12.488L34.4801 17.432L33.1601 19.376L23.9441 13.64V11.312L33.2321 5.57603L34.4801 7.52002Z" fill="white"/>
<path d="M48.2227 16.904C48.2227 17.384 48.2947 17.744 48.4387 17.984C48.5827 18.208 48.8307 18.376 49.1827 18.488L48.5587 20.312C47.2307 20.152 46.3587 19.568 45.9427 18.56C45.4787 19.136 44.8947 19.576 44.1907 19.88C43.5027 20.168 42.7427 20.312 41.9107 20.312C40.6307 20.312 39.6147 19.952 38.8627 19.232C38.1107 18.512 37.7347 17.56 37.7347 16.376C37.7347 15.048 38.2547 14.024 39.2947 13.304C40.3507 12.584 41.8387 12.224 43.7587 12.224H45.5587V11.408C45.5587 10.608 45.3187 10.024 44.8387 9.65602C44.3587 9.28802 43.6627 9.10402 42.7507 9.10402C42.3027 9.10402 41.7827 9.16002 41.1907 9.27202C40.5987 9.38402 39.9987 9.54402 39.3907 9.75202L38.7187 7.85602C40.2387 7.28002 41.7187 6.99202 43.1587 6.99202C44.8387 6.99202 46.1027 7.36002 46.9507 8.09602C47.7987 8.83202 48.2227 9.88002 48.2227 11.24V16.904ZM42.7027 18.344C43.2627 18.344 43.7987 18.2 44.3107 17.912C44.8387 17.624 45.2547 17.224 45.5587 16.712V13.904H44.0707C42.8547 13.904 41.9667 14.112 41.4067 14.528C40.8467 14.928 40.5667 15.512 40.5667 16.28C40.5667 16.952 40.7427 17.464 41.0947 17.816C41.4627 18.168 41.9987 18.344 42.7027 18.344Z" fill="white"/>
<path d="M69.996 8.88802C70.508 8.26402 71.1 7.79202 71.772 7.47202C72.46 7.15202 73.18 6.99202 73.932 6.99202C75.1 6.99202 75.98 7.32002 76.572 7.97602C77.164 8.61602 77.46 9.54402 77.46 10.76V20H74.772V11.168C74.772 10.416 74.628 9.88002 74.34 9.56002C74.052 9.22402 73.588 9.05602 72.948 9.05602C72.388 9.05602 71.844 9.24002 71.316 9.60802C70.804 9.96002 70.364 10.4 69.996 10.928V20H67.308V2.26402L69.996 1.97602V8.88802Z" fill="white"/>
<path d="M90.6746 7.01602C91.3306 7.01602 91.9706 7.12002 92.5946 7.32802L92.1386 12.008H90.2186V9.41602C89.3386 9.43202 88.5706 9.78403 87.9146 10.472C87.2746 11.16 86.7626 12.128 86.3786 13.376V18.08H88.9226V20H81.8186V18.08H83.6906V9.24802H81.8186V7.32802H85.7306L86.2106 10.256C86.7066 9.16802 87.3066 8.36002 88.0106 7.83202C88.7306 7.28802 89.6186 7.01602 90.6746 7.01602Z" fill="white"/>
<path d="M98.3212 14.528C98.4012 15.76 98.7532 16.688 99.3772 17.312C100.017 17.92 100.817 18.224 101.777 18.224C102.369 18.224 102.929 18.136 103.457 17.96C104.001 17.768 104.553 17.488 105.113 17.12L106.265 18.752C105.673 19.248 104.977 19.632 104.177 19.904C103.377 20.176 102.537 20.312 101.657 20.312C99.7212 20.312 98.2172 19.712 97.1452 18.512C96.0732 17.296 95.5372 15.68 95.5372 13.664C95.5372 12.4 95.7692 11.264 96.2332 10.256C96.6972 9.23202 97.3692 8.43202 98.2492 7.85602C99.1292 7.28002 100.153 6.99202 101.321 6.99202C103.001 6.99202 104.329 7.56002 105.305 8.69602C106.297 9.81602 106.793 11.36 106.793 13.328C106.793 13.808 106.769 14.208 106.721 14.528H98.3212ZM101.345 8.98402C100.481 8.98402 99.7772 9.29602 99.2332 9.92002C98.6892 10.544 98.3772 11.472 98.2972 12.704H104.177C104.145 11.504 103.889 10.584 103.409 9.94402C102.929 9.30402 102.241 8.98402 101.345 8.98402Z" fill="white"/>
<path d="M118.184 1.92802C119.56 1.92802 120.824 2.17602 121.976 2.67202L121.16 4.54402C120.344 4.19202 119.44 4.01602 118.448 4.01602C117.616 4.01602 117 4.17602 116.6 4.49602C116.2 4.81602 116 5.31202 116 5.98402V8.24002H120.248L119.936 10.232H116V20H113.312V10.232H110.432V8.24002H113.312V5.96002C113.312 5.16002 113.512 4.45602 113.912 3.84802C114.328 3.24002 114.904 2.76802 115.64 2.43202C116.376 2.09602 117.224 1.92802 118.184 1.92802Z" fill="white"/>
<path d="M134.902 11.264H124.966V9.05602H134.902V11.264ZM134.902 15.992H124.966V13.808H134.902V15.992Z" fill="white"/>
<path d="M140.749 2.24002H143.677L143.269 8.64802H141.133L140.749 2.24002ZM144.973 2.24002H147.901L147.517 8.64802H145.381L144.973 2.24002Z" fill="white"/>
<path d="M156.34 8.88802C156.852 8.26402 157.444 7.79202 158.116 7.47202C158.804 7.15202 159.524 6.99202 160.276 6.99202C161.444 6.99202 162.324 7.32002 162.916 7.97602C163.508 8.61602 163.804 9.54402 163.804 10.76V20H161.116V11.168C161.116 10.416 160.972 9.88002 160.684 9.56002C160.396 9.22402 159.932 9.05602 159.292 9.05602C158.732 9.05602 158.188 9.24002 157.66 9.60802C157.148 9.96002 156.708 10.4 156.34 10.928V20H153.652V2.26402L156.34 1.97602V8.88802Z" fill="white"/>
<path d="M178.626 19.328C178.146 19.632 177.586 19.872 176.946 20.048C176.306 20.224 175.634 20.312 174.93 20.312C173.49 20.312 172.378 19.944 171.594 19.208C170.81 18.456 170.418 17.44 170.418 16.16V9.29602H167.61V7.32802H170.418V4.49602L173.106 4.18402V7.32802H177.402L177.09 9.29602H173.106V16.136C173.106 16.824 173.282 17.336 173.634 17.672C173.986 17.992 174.546 18.152 175.314 18.152C176.162 18.152 176.946 17.952 177.666 17.552L178.626 19.328Z" fill="white"/>
<path d="M193.017 19.328C192.537 19.632 191.977 19.872 191.337 20.048C190.697 20.224 190.025 20.312 189.321 20.312C187.881 20.312 186.769 19.944 185.985 19.208C185.201 18.456 184.809 17.44 184.809 16.16V9.29602H182.001V7.32802H184.809V4.49602L187.497 4.18402V7.32802H191.793L191.481 9.29602H187.497V16.136C187.497 16.824 187.673 17.336 188.025 17.672C188.377 17.992 188.937 18.152 189.705 18.152C190.553 18.152 191.337 17.952 192.057 17.552L193.017 19.328Z" fill="white"/>
<path d="M203.016 6.99202C206.088 6.99202 207.624 9.20802 207.624 13.64C207.624 15.64 207.2 17.256 206.352 18.488C205.504 19.704 204.296 20.312 202.728 20.312C201.4 20.312 200.328 19.848 199.512 18.92V24.872L196.824 25.184V7.32802H199.152L199.32 8.96002C199.8 8.32002 200.352 7.83202 200.976 7.49602C201.616 7.16002 202.296 6.99202 203.016 6.99202ZM202.272 9.05602C201.712 9.05602 201.2 9.22402 200.736 9.56002C200.272 9.89602 199.864 10.336 199.512 10.88V16.808C200.136 17.752 200.968 18.224 202.008 18.224C202.936 18.224 203.632 17.856 204.096 17.12C204.56 16.384 204.792 15.232 204.792 13.664C204.792 12.048 204.584 10.88 204.168 10.16C203.752 9.42402 203.12 9.05602 202.272 9.05602Z" fill="white"/>
<path d="M215.822 18.272C216.67 18.272 217.334 18.12 217.814 17.816C218.31 17.512 218.558 17.096 218.558 16.568C218.558 16.2 218.486 15.904 218.342 15.68C218.198 15.44 217.91 15.224 217.478 15.032C217.046 14.824 216.398 14.608 215.534 14.384C214.142 14.032 213.094 13.584 212.39 13.04C211.702 12.48 211.358 11.68 211.358 10.64C211.358 9.53602 211.814 8.65602 212.726 8.00002C213.638 7.32802 214.87 6.99202 216.422 6.99202C218.294 6.99202 219.902 7.48002 221.246 8.45602L220.094 10.16C218.958 9.40802 217.758 9.03202 216.494 9.03202C214.894 9.03202 214.094 9.49603 214.094 10.424C214.094 10.744 214.182 11.008 214.358 11.216C214.55 11.424 214.87 11.624 215.318 11.816C215.766 11.992 216.43 12.2 217.31 12.44C218.686 12.824 219.71 13.296 220.382 13.856C221.07 14.416 221.414 15.256 221.414 16.376C221.414 17.672 220.878 18.656 219.806 19.328C218.734 19.984 217.406 20.312 215.822 20.312C213.726 20.312 211.99 19.72 210.614 18.536L212.03 16.904C212.558 17.32 213.142 17.656 213.782 17.912C214.438 18.152 215.118 18.272 215.822 18.272Z" fill="white"/>
<path d="M228.509 9.63202C228.509 9.04002 228.717 8.53602 229.133 8.12002C229.549 7.68802 230.053 7.47202 230.645 7.47202C231.253 7.47202 231.765 7.68802 232.181 8.12002C232.597 8.53602 232.805 9.04002 232.805 9.63202C232.805 10.224 232.597 10.736 232.181 11.168C231.765 11.584 231.253 11.792 230.645 11.792C230.053 11.792 229.549 11.584 229.133 11.168C228.717 10.736 228.509 10.224 228.509 9.63202ZM228.509 18.152C228.509 17.56 228.717 17.056 229.133 16.64C229.549 16.224 230.053 16.016 230.645 16.016C231.269 16.016 231.781 16.224 232.181 16.64C232.597 17.056 232.805 17.56 232.805 18.152C232.805 18.76 232.597 19.272 232.181 19.688C231.781 20.104 231.269 20.312 230.645 20.312C230.053 20.312 229.549 20.104 229.133 19.688C228.717 19.272 228.509 18.76 228.509 18.152Z" fill="white"/>
<path d="M238.915 21.584L249.091 0.512024L251.203 1.49602L241.051 22.544L238.915 21.584Z" fill="white"/>
<path d="M253.306 21.584L263.482 0.512024L265.594 1.49602L255.442 22.544L253.306 21.584Z" fill="white"/>
<path d="M275.329 20L273.889 11L272.353 20H269.065L266.929 7.32802H269.521L270.841 18.32L272.617 8.93602H275.305L276.937 18.32L278.257 7.32802H280.753L278.689 20H275.329Z" fill="white"/>
<path d="M289.719 20L288.279 11L286.743 20H283.455L281.319 7.32802H283.911L285.231 18.32L287.007 8.93602H289.695L291.327 18.32L292.647 7.32802H295.143L293.079 20H289.719Z" fill="white"/>
<path d="M304.11 20L302.67 11L301.134 20H297.846L295.71 7.32802H298.302L299.622 18.32L301.398 8.93602H304.086L305.718 18.32L307.038 7.32802H309.534L307.47 20H304.11Z" fill="white"/>
<path d="M314.685 17.984C314.685 17.344 314.909 16.8 315.357 16.352C315.805 15.904 316.349 15.68 316.989 15.68C317.645 15.68 318.197 15.904 318.645 16.352C319.093 16.8 319.317 17.344 319.317 17.984C319.317 18.64 319.093 19.192 318.645 19.64C318.197 20.088 317.645 20.312 316.989 20.312C316.349 20.312 315.805 20.088 315.357 19.64C314.909 19.192 314.685 18.64 314.685 17.984Z" fill="white"/>
<path d="M335.315 7.01602C335.971 7.01602 336.611 7.12002 337.235 7.32802L336.779 12.008H334.859V9.41602C333.979 9.43202 333.211 9.78403 332.555 10.472C331.915 11.16 331.403 12.128 331.019 13.376V18.08H333.563V20H326.459V18.08H328.331V9.24802H326.459V7.32802H330.371L330.851 10.256C331.347 9.16802 331.947 8.36002 332.651 7.83202C333.371 7.28802 334.259 7.01602 335.315 7.01602Z" fill="white"/>
<path d="M350.426 16.904C350.426 17.384 350.498 17.744 350.642 17.984C350.786 18.208 351.034 18.376 351.386 18.488L350.762 20.312C349.434 20.152 348.562 19.568 348.146 18.56C347.682 19.136 347.098 19.576 346.394 19.88C345.706 20.168 344.946 20.312 344.114 20.312C342.834 20.312 341.818 19.952 341.066 19.232C340.314 18.512 339.938 17.56 339.938 16.376C339.938 15.048 340.458 14.024 341.498 13.304C342.554 12.584 344.042 12.224 345.962 12.224H347.762V11.408C347.762 10.608 347.522 10.024 347.042 9.65602C346.562 9.28802 345.866 9.10402 344.954 9.10402C344.506 9.10402 343.986 9.16002 343.394 9.27202C342.802 9.38402 342.202 9.54402 341.594 9.75202L340.922 7.85602C342.442 7.28002 343.922 6.99202 345.362 6.99202C347.042 6.99202 348.306 7.36002 349.154 8.09602C350.002 8.83202 350.426 9.88002 350.426 11.24V16.904ZM344.906 18.344C345.466 18.344 346.002 18.2 346.514 17.912C347.042 17.624 347.458 17.224 347.762 16.712V13.904H346.274C345.058 13.904 344.17 14.112 343.61 14.528C343.05 14.928 342.77 15.512 342.77 16.28C342.77 16.952 342.946 17.464 343.298 17.816C343.666 18.168 344.202 18.344 344.906 18.344Z" fill="white"/>
<path d="M355.12 7.32802H357.448L357.64 8.98402C358.168 8.34402 358.784 7.85602 359.488 7.52002C360.208 7.16802 360.96 6.99202 361.744 6.99202C362.912 6.99202 363.792 7.32002 364.384 7.97602C364.976 8.63202 365.272 9.56002 365.272 10.76V20H362.584V12.104C362.584 11.32 362.536 10.72 362.44 10.304C362.36 9.87202 362.192 9.56002 361.936 9.36802C361.68 9.16002 361.296 9.05602 360.784 9.05602C360.208 9.05602 359.656 9.23202 359.128 9.58402C358.616 9.93602 358.176 10.376 357.808 10.904V20H355.12V7.32802Z" fill="white"/>
<path d="M374.599 6.99202C376.423 6.99202 377.831 7.59202 378.823 8.79202C379.815 9.97602 380.311 11.592 380.311 13.64C380.311 15.688 379.807 17.312 378.799 18.512C377.791 19.712 376.383 20.312 374.575 20.312C372.751 20.312 371.335 19.728 370.327 18.56C369.335 17.376 368.839 15.744 368.839 13.664C368.839 11.648 369.343 10.032 370.351 8.81602C371.375 7.60002 372.791 6.99202 374.599 6.99202ZM374.599 9.08002C373.623 9.08002 372.887 9.45602 372.391 10.208C371.911 10.96 371.671 12.112 371.671 13.664C371.671 15.232 371.911 16.392 372.391 17.144C372.871 17.88 373.599 18.248 374.575 18.248C375.551 18.248 376.279 17.872 376.759 17.12C377.239 16.368 377.479 15.208 377.479 13.64C377.479 12.088 377.239 10.944 376.759 10.208C376.279 9.45602 375.559 9.08002 374.599 9.08002Z" fill="white"/>
<path d="M390.622 20.048C390.11 21.584 389.366 22.784 388.39 23.648C387.43 24.528 386.102 25.04 384.406 25.184L384.07 23.168C384.902 23.04 385.574 22.84 386.086 22.568C386.598 22.312 387.006 21.984 387.31 21.584C387.614 21.184 387.886 20.656 388.126 20H387.214L382.942 7.32802H385.798L388.99 18.128L392.23 7.32802H394.99L390.622 20.048Z" fill="white"/>
<path d="M407.988 16.904C407.988 17.384 408.06 17.744 408.204 17.984C408.348 18.208 408.596 18.376 408.948 18.488L408.324 20.312C406.996 20.152 406.124 19.568 405.708 18.56C405.244 19.136 404.66 19.576 403.956 19.88C403.268 20.168 402.508 20.312 401.676 20.312C400.396 20.312 399.38 19.952 398.628 19.232C397.876 18.512 397.5 17.56 397.5 16.376C397.5 15.048 398.02 14.024 399.06 13.304C400.116 12.584 401.604 12.224 403.524 12.224H405.324V11.408C405.324 10.608 405.084 10.024 404.604 9.65602C404.124 9.28802 403.428 9.10402 402.516 9.10402C402.068 9.10402 401.548 9.16002 400.956 9.27202C400.364 9.38402 399.764 9.54402 399.156 9.75202L398.484 7.85602C400.004 7.28002 401.484 6.99202 402.924 6.99202C404.604 6.99202 405.868 7.36002 406.716 8.09602C407.564 8.83202 407.988 9.88002 407.988 11.24V16.904ZM402.468 18.344C403.028 18.344 403.564 18.2 404.076 17.912C404.604 17.624 405.02 17.224 405.324 16.712V13.904H403.836C402.62 13.904 401.732 14.112 401.172 14.528C400.612 14.928 400.332 15.512 400.332 16.28C400.332 16.952 400.508 17.464 400.86 17.816C401.228 18.168 401.764 18.344 402.468 18.344Z" fill="white"/>
<path d="M415.419 17.984C415.419 17.344 415.643 16.8 416.091 16.352C416.539 15.904 417.083 15.68 417.723 15.68C418.379 15.68 418.931 15.904 419.379 16.352C419.827 16.8 420.051 17.344 420.051 17.984C420.051 18.64 419.827 19.192 419.379 19.64C418.931 20.088 418.379 20.312 417.723 20.312C417.083 20.312 416.539 20.088 416.091 19.64C415.643 19.192 415.419 18.64 415.419 17.984Z" fill="white"/>
<path d="M433.194 18.104C434.202 18.104 435.242 17.744 436.314 17.024L437.538 18.752C436.978 19.232 436.306 19.616 435.522 19.904C434.738 20.176 433.93 20.312 433.098 20.312C431.162 20.312 429.65 19.72 428.562 18.536C427.474 17.336 426.93 15.736 426.93 13.736C426.93 12.44 427.178 11.288 427.674 10.28C428.17 9.25602 428.882 8.45602 429.81 7.88002C430.754 7.28802 431.866 6.99202 433.146 6.99202C434.826 6.99202 436.29 7.50402 437.538 8.52802L436.29 10.208C435.266 9.50402 434.234 9.15202 433.194 9.15202C432.138 9.15202 431.306 9.53602 430.698 10.304C430.09 11.056 429.786 12.2 429.786 13.736C429.786 15.24 430.09 16.344 430.698 17.048C431.306 17.752 432.138 18.104 433.194 18.104Z" fill="white"/>
<path d="M446.552 6.99202C448.376 6.99202 449.784 7.59202 450.776 8.79202C451.768 9.97602 452.264 11.592 452.264 13.64C452.264 15.688 451.76 17.312 450.752 18.512C449.744 19.712 448.336 20.312 446.528 20.312C444.704 20.312 443.288 19.728 442.28 18.56C441.288 17.376 440.792 15.744 440.792 13.664C440.792 11.648 441.296 10.032 442.304 8.81602C443.328 7.60002 444.744 6.99202 446.552 6.99202ZM446.552 9.08002C445.576 9.08002 444.84 9.45602 444.344 10.208C443.864 10.96 443.624 12.112 443.624 13.664C443.624 15.232 443.864 16.392 444.344 17.144C444.824 17.88 445.552 18.248 446.528 18.248C447.504 18.248 448.232 17.872 448.712 17.12C449.192 16.368 449.432 15.208 449.432 13.64C449.432 12.088 449.192 10.944 448.712 10.208C448.232 9.45602 447.512 9.08002 446.552 9.08002Z" fill="white"/>
<path d="M464.591 6.99202C465.375 6.99202 465.991 7.26402 466.439 7.80802C466.887 8.35202 467.111 9.28002 467.111 10.592V20H464.735V10.952C464.735 10.248 464.679 9.76002 464.567 9.48802C464.471 9.21602 464.247 9.08002 463.895 9.08002C463.223 9.08002 462.599 9.50402 462.023 10.352V20H459.839V10.952C459.839 10.248 459.783 9.76002 459.671 9.48802C459.575 9.21602 459.351 9.08002 458.999 9.08002C458.327 9.08002 457.703 9.50402 457.127 10.352V20H454.727V7.32802H456.743L456.935 8.69602C457.335 8.13602 457.743 7.71202 458.159 7.42402C458.575 7.13602 459.071 6.99202 459.647 6.99202C460.767 6.99202 461.487 7.52802 461.807 8.60002C462.191 8.08802 462.607 7.69602 463.055 7.42402C463.503 7.13602 464.015 6.99202 464.591 6.99202Z" fill="white"/>
<path d="M471.733 2.24002H474.661L474.253 8.64802H472.117L471.733 2.24002ZM475.957 2.24002H478.885L478.501 8.64802H476.365L475.957 2.24002Z" fill="white"/>
<path d="M503.635 18.272C504.483 18.272 505.147 18.12 505.627 17.816C506.123 17.512 506.371 17.096 506.371 16.568C506.371 16.2 506.299 15.904 506.155 15.68C506.011 15.44 505.723 15.224 505.291 15.032C504.859 14.824 504.211 14.608 503.347 14.384C501.955 14.032 500.907 13.584 500.203 13.04C499.515 12.48 499.171 11.68 499.171 10.64C499.171 9.53602 499.627 8.65602 500.539 8.00002C501.451 7.32802 502.683 6.99202 504.235 6.99202C506.107 6.99202 507.715 7.48002 509.059 8.45602L507.907 10.16C506.771 9.40802 505.571 9.03202 504.307 9.03202C502.707 9.03202 501.907 9.49603 501.907 10.424C501.907 10.744 501.995 11.008 502.171 11.216C502.363 11.424 502.683 11.624 503.131 11.816C503.579 11.992 504.243 12.2 505.123 12.44C506.499 12.824 507.523 13.296 508.195 13.856C508.883 14.416 509.227 15.256 509.227 16.376C509.227 17.672 508.691 18.656 507.619 19.328C506.547 19.984 505.219 20.312 503.635 20.312C501.539 20.312 499.803 19.72 498.427 18.536L499.843 16.904C500.371 17.32 500.955 17.656 501.595 17.912C502.251 18.152 502.931 18.272 503.635 18.272Z" fill="white"/>
<path d="M524.001 19.328C523.521 19.632 522.961 19.872 522.321 20.048C521.681 20.224 521.009 20.312 520.305 20.312C518.865 20.312 517.753 19.944 516.969 19.208C516.185 18.456 515.793 17.44 515.793 16.16V9.29602H512.985V7.32802H515.793V4.49602L518.481 4.18402V7.32802H522.777L522.465 9.29602H518.481V16.136C518.481 16.824 518.657 17.336 519.009 17.672C519.361 17.992 519.921 18.152 520.689 18.152C521.537 18.152 522.321 17.952 523.041 17.552L524.001 19.328Z" fill="white"/>
<path d="M534.528 20.048C534.016 21.584 533.272 22.784 532.296 23.648C531.336 24.528 530.008 25.04 528.312 25.184L527.976 23.168C528.808 23.04 529.48 22.84 529.992 22.568C530.504 22.312 530.912 21.984 531.216 21.584C531.52 21.184 531.792 20.656 532.032 20H531.12L526.848 7.32802H529.704L532.896 18.128L536.136 7.32802H538.896L534.528 20.048Z" fill="white"/>
<path d="M547.767 16.544C547.767 17.616 548.407 18.152 549.687 18.152C550.327 18.152 550.999 18.008 551.703 17.72L552.375 19.592C551.495 20.072 550.407 20.312 549.111 20.312C547.847 20.312 546.855 19.96 546.135 19.256C545.431 18.536 545.079 17.552 545.079 16.304V4.20802H541.263V2.24002H547.767V16.544Z" fill="white"/>
<path d="M558.821 14.528C558.901 15.76 559.253 16.688 559.877 17.312C560.517 17.92 561.317 18.224 562.277 18.224C562.869 18.224 563.429 18.136 563.957 17.96C564.501 17.768 565.053 17.488 565.613 17.12L566.765 18.752C566.173 19.248 565.477 19.632 564.677 19.904C563.877 20.176 563.037 20.312 562.157 20.312C560.221 20.312 558.717 19.712 557.645 18.512C556.573 17.296 556.037 15.68 556.037 13.664C556.037 12.4 556.269 11.264 556.733 10.256C557.197 9.23202 557.869 8.43202 558.749 7.85602C559.629 7.28002 560.653 6.99202 561.821 6.99202C563.501 6.99202 564.829 7.56002 565.805 8.69602C566.797 9.81602 567.293 11.36 567.293 13.328C567.293 13.808 567.269 14.208 567.221 14.528H558.821ZM561.845 8.98402C560.981 8.98402 560.277 9.29602 559.733 9.92002C559.189 10.544 558.877 11.472 558.797 12.704H564.677C564.645 11.504 564.389 10.584 563.909 9.94402C563.429 9.30402 562.741 8.98402 561.845 8.98402Z" fill="white"/>
<path d="M581.012 11.264H571.076V9.05602H581.012V11.264ZM581.012 15.992H571.076V13.808H581.012V15.992Z" fill="white"/>
<path d="M586.859 2.24002H589.786L589.378 8.64802H587.242L586.859 2.24002ZM591.083 2.24002H594.01L593.627 8.64802H591.49L591.083 2.24002Z" fill="white"/>
<path d="M605.329 16.544C605.329 17.616 605.969 18.152 607.249 18.152C607.889 18.152 608.561 18.008 609.265 17.72L609.937 19.592C609.057 20.072 607.969 20.312 606.673 20.312C605.409 20.312 604.417 19.96 603.697 19.256C602.993 18.536 602.641 17.552 602.641 16.304V4.20802H598.825V2.24002H605.329V16.544Z" fill="white"/>
<path d="M619.216 1.11202C619.728 1.11202 620.144 1.28002 620.464 1.61602C620.8 1.93602 620.968 2.33602 620.968 2.81602C620.968 3.29602 620.8 3.69602 620.464 4.01602C620.144 4.33602 619.728 4.49602 619.216 4.49602C618.688 4.49602 618.264 4.33602 617.944 4.01602C617.624 3.69602 617.464 3.29602 617.464 2.81602C617.464 2.32002 617.624 1.91202 617.944 1.59202C618.28 1.27202 618.704 1.11202 619.216 1.11202ZM621.064 18.032H624.52V20H614.608V18.032H618.376V9.29602H614.728V7.32802H621.064V18.032Z" fill="white"/>
<path d="M628.542 7.32802H630.87L631.062 8.98402C631.59 8.34402 632.206 7.85602 632.91 7.52002C633.63 7.16802 634.382 6.99202 635.166 6.99202C636.334 6.99202 637.214 7.32002 637.806 7.97602C638.398 8.63202 638.694 9.56002 638.694 10.76V20H636.006V12.104C636.006 11.32 635.958 10.72 635.862 10.304C635.782 9.87202 635.614 9.56002 635.358 9.36802C635.102 9.16002 634.718 9.05602 634.206 9.05602C633.63 9.05602 633.078 9.23202 632.55 9.58402C632.038 9.93602 631.598 10.376 631.23 10.904V20H628.542V7.32802Z" fill="white"/>
<path d="M645.693 20H643.005V2.24002L645.693 1.92802V20ZM648.981 12.992L654.621 20H651.333L645.885 13.064L650.973 7.32802H654.093L648.981 12.992Z" fill="white"/>
<path d="M661.932 18.272C662.78 18.272 663.444 18.12 663.924 17.816C664.42 17.512 664.668 17.096 664.668 16.568C664.668 16.2 664.596 15.904 664.452 15.68C664.308 15.44 664.02 15.224 663.588 15.032C663.156 14.824 662.508 14.608 661.644 14.384C660.252 14.032 659.204 13.584 658.5 13.04C657.812 12.48 657.468 11.68 657.468 10.64C657.468 9.53602 657.924 8.65602 658.836 8.00002C659.748 7.32802 660.98 6.99202 662.532 6.99202C664.404 6.99202 666.012 7.48002 667.356 8.45602L666.204 10.16C665.068 9.40802 663.868 9.03202 662.604 9.03202C661.004 9.03202 660.204 9.49603 660.204 10.424C660.204 10.744 660.292 11.008 660.468 11.216C660.66 11.424 660.98 11.624 661.428 11.816C661.876 11.992 662.54 12.2 663.42 12.44C664.796 12.824 665.82 13.296 666.492 13.856C667.18 14.416 667.524 15.256 667.524 16.376C667.524 17.672 666.988 18.656 665.916 19.328C664.844 19.984 663.516 20.312 661.932 20.312C659.836 20.312 658.1 19.72 656.724 18.536L658.14 16.904C658.668 17.32 659.252 17.656 659.892 17.912C660.548 18.152 661.228 18.272 661.932 18.272Z" fill="white"/>
<path d="M673.202 2.24002H676.13L675.722 8.64802H673.586L673.202 2.24002ZM677.426 2.24002H680.354L679.97 8.64802H677.834L677.426 2.24002Z" fill="white"/>
<path d="M696.449 11.312V13.64L687.233 19.376L685.913 17.456L694.121 12.488L685.913 7.56802L687.161 5.57603L696.449 11.312Z" fill="white"/>
<path d="M120.824 36.52L112.592 41.488L120.824 46.432L119.504 48.376L110.288 42.64V40.312L119.576 34.576L120.824 36.52Z" fill="white"/>
<path d="M134.998 31.24V49H132.622L132.43 47.44C132.014 48.048 131.502 48.512 130.894 48.832C130.286 49.152 129.614 49.312 128.878 49.312C127.294 49.312 126.102 48.72 125.302 47.536C124.502 46.352 124.102 44.728 124.102 42.664C124.102 41.368 124.302 40.216 124.702 39.208C125.118 38.2 125.702 37.416 126.454 36.856C127.206 36.28 128.094 35.992 129.118 35.992C130.414 35.992 131.478 36.456 132.31 37.384V30.928L134.998 31.24ZM129.814 38.056C128.886 38.056 128.174 38.44 127.678 39.208C127.198 39.96 126.958 41.112 126.958 42.664C126.958 45.736 127.838 47.272 129.598 47.272C130.654 47.272 131.558 46.664 132.31 45.448V39.472C131.654 38.528 130.822 38.056 129.814 38.056Z" fill="white"/>
<path d="M144.325 30.112C144.837 30.112 145.253 30.28 145.573 30.616C145.909 30.936 146.077 31.336 146.077 31.816C146.077 32.296 145.909 32.696 145.573 33.016C145.253 33.336 144.837 33.496 144.325 33.496C143.797 33.496 143.373 33.336 143.053 33.016C142.733 32.696 142.573 32.296 142.573 31.816C142.573 31.32 142.733 30.912 143.053 30.592C143.389 30.272 143.813 30.112 144.325 30.112ZM146.173 47.032H149.629V49H139.717V47.032H143.485V38.296H139.837V36.328H146.173V47.032Z" fill="white"/>
<path d="M160.276 49H157.156L152.668 36.328H155.572L158.764 46.768L162.004 36.328H164.764L160.276 49Z" fill="white"/>
<path d="M187.041 47.272C187.889 47.272 188.553 47.12 189.033 46.816C189.529 46.512 189.777 46.096 189.777 45.568C189.777 45.2 189.705 44.904 189.561 44.68C189.417 44.44 189.129 44.224 188.697 44.032C188.265 43.824 187.617 43.608 186.753 43.384C185.361 43.032 184.313 42.584 183.609 42.04C182.921 41.48 182.577 40.68 182.577 39.64C182.577 38.536 183.033 37.656 183.945 37C184.857 36.328 186.089 35.992 187.641 35.992C189.513 35.992 191.121 36.48 192.465 37.456L191.313 39.16C190.177 38.408 188.977 38.032 187.713 38.032C186.113 38.032 185.313 38.496 185.313 39.424C185.313 39.744 185.401 40.008 185.577 40.216C185.769 40.424 186.089 40.624 186.537 40.816C186.985 40.992 187.649 41.2 188.529 41.44C189.905 41.824 190.929 42.296 191.601 42.856C192.289 43.416 192.633 44.256 192.633 45.376C192.633 46.672 192.097 47.656 191.025 48.328C189.953 48.984 188.625 49.312 187.041 49.312C184.945 49.312 183.209 48.72 181.833 47.536L183.249 45.904C183.777 46.32 184.361 46.656 185.001 46.912C185.657 47.152 186.337 47.272 187.041 47.272Z" fill="white"/>
<path d="M207.408 48.328C206.928 48.632 206.368 48.872 205.728 49.048C205.088 49.224 204.416 49.312 203.712 49.312C202.272 49.312 201.16 48.944 200.376 48.208C199.592 47.456 199.2 46.44 199.2 45.16V38.296H196.392V36.328H199.2V33.496L201.888 33.184V36.328H206.184L205.872 38.296H201.888V45.136C201.888 45.824 202.064 46.336 202.416 46.672C202.768 46.992 203.328 47.152 204.096 47.152C204.944 47.152 205.728 46.952 206.448 46.552L207.408 48.328Z" fill="white"/>
<path d="M217.934 49.048C217.422 50.584 216.678 51.784 215.702 52.648C214.742 53.528 213.414 54.04 211.718 54.184L211.382 52.168C212.214 52.04 212.886 51.84 213.398 51.568C213.91 51.312 214.318 50.984 214.622 50.584C214.926 50.184 215.198 49.656 215.438 49H214.526L210.254 36.328H213.11L216.302 47.128L219.542 36.328H222.302L217.934 49.048Z" fill="white"/>
<path d="M231.173 45.544C231.173 46.616 231.813 47.152 233.093 47.152C233.733 47.152 234.405 47.008 235.109 46.72L235.781 48.592C234.901 49.072 233.813 49.312 232.517 49.312C231.253 49.312 230.261 48.96 229.541 48.256C228.837 47.536 228.485 46.552 228.485 45.304V33.208H224.669V31.24H231.173V45.544Z" fill="white"/>
<path d="M242.227 43.528C242.307 44.76 242.659 45.688 243.283 46.312C243.923 46.92 244.723 47.224 245.683 47.224C246.275 47.224 246.835 47.136 247.363 46.96C247.907 46.768 248.459 46.488 249.019 46.12L250.171 47.752C249.579 48.248 248.883 48.632 248.083 48.904C247.283 49.176 246.443 49.312 245.563 49.312C243.627 49.312 242.123 48.712 241.051 47.512C239.979 46.296 239.443 44.68 239.443 42.664C239.443 41.4 239.675 40.264 240.139 39.256C240.603 38.232 241.275 37.432 242.155 36.856C243.035 36.28 244.059 35.992 245.227 35.992C246.907 35.992 248.235 36.56 249.211 37.696C250.203 38.816 250.699 40.36 250.699 42.328C250.699 42.808 250.675 43.208 250.627 43.528H242.227ZM245.251 37.984C244.387 37.984 243.683 38.296 243.139 38.92C242.595 39.544 242.283 40.472 242.203 41.704H248.083C248.051 40.504 247.795 39.584 247.315 38.944C246.835 38.304 246.147 37.984 245.251 37.984Z" fill="white"/>
<path d="M264.418 40.264H254.482V38.056H264.418V40.264ZM264.418 44.992H254.482V42.808H264.418V44.992Z" fill="white"/>
<path d="M270.265 31.24H273.193L272.785 37.648H270.649L270.265 31.24ZM274.489 31.24H277.417L277.033 37.648H274.897L274.489 31.24Z" fill="white"/>
<path d="M285.855 37.84C286.287 37.248 286.799 36.792 287.391 36.472C287.999 36.152 288.647 35.992 289.335 35.992C290.951 35.992 292.143 36.576 292.911 37.744C293.679 38.912 294.063 40.544 294.063 42.64C294.063 44.624 293.615 46.232 292.719 47.464C291.839 48.696 290.599 49.312 288.999 49.312C287.591 49.312 286.487 48.792 285.687 47.752L285.543 49H283.167V31.24L285.855 30.928V37.84ZM288.351 47.272C289.279 47.272 289.983 46.896 290.463 46.144C290.959 45.376 291.207 44.216 291.207 42.664C291.207 41.064 290.983 39.896 290.535 39.16C290.103 38.424 289.455 38.056 288.591 38.056C288.047 38.056 287.535 38.224 287.055 38.56C286.591 38.896 286.191 39.336 285.855 39.88V45.808C286.495 46.784 287.327 47.272 288.351 47.272Z" fill="white"/>
<path d="M303.126 45.544C303.126 46.616 303.766 47.152 305.046 47.152C305.686 47.152 306.358 47.008 307.062 46.72L307.734 48.592C306.854 49.072 305.766 49.312 304.47 49.312C303.206 49.312 302.214 48.96 301.494 48.256C300.79 47.536 300.438 46.552 300.438 45.304V33.208H296.622V31.24H303.126V45.544Z" fill="white"/>
<path d="M317.037 35.992C318.861 35.992 320.269 36.592 321.261 37.792C322.253 38.976 322.749 40.592 322.749 42.64C322.749 44.688 322.245 46.312 321.237 47.512C320.229 48.712 318.821 49.312 317.013 49.312C315.189 49.312 313.773 48.728 312.765 47.56C311.773 46.376 311.277 44.744 311.277 42.664C311.277 40.648 311.781 39.032 312.789 37.816C313.813 36.6 315.229 35.992 317.037 35.992ZM317.037 38.08C316.061 38.08 315.325 38.456 314.829 39.208C314.349 39.96 314.109 41.112 314.109 42.664C314.109 44.232 314.349 45.392 314.829 46.144C315.309 46.88 316.037 47.248 317.013 47.248C317.989 47.248 318.717 46.872 319.197 46.12C319.677 45.368 319.917 44.208 319.917 42.64C319.917 41.088 319.677 39.944 319.197 39.208C318.717 38.456 317.997 38.08 317.037 38.08Z" fill="white"/>
<path d="M332.459 47.104C333.467 47.104 334.507 46.744 335.579 46.024L336.803 47.752C336.243 48.232 335.571 48.616 334.787 48.904C334.003 49.176 333.195 49.312 332.363 49.312C330.427 49.312 328.915 48.72 327.827 47.536C326.739 46.336 326.195 44.736 326.195 42.736C326.195 41.44 326.443 40.288 326.939 39.28C327.435 38.256 328.147 37.456 329.075 36.88C330.019 36.288 331.131 35.992 332.411 35.992C334.091 35.992 335.555 36.504 336.803 37.528L335.555 39.208C334.531 38.504 333.499 38.152 332.459 38.152C331.403 38.152 330.571 38.536 329.963 39.304C329.355 40.056 329.051 41.2 329.051 42.736C329.051 44.24 329.355 45.344 329.963 46.048C330.571 46.752 331.403 47.104 332.459 47.104Z" fill="white"/>
<path d="M345.818 35.992C347.642 35.992 349.05 36.592 350.042 37.792C351.034 38.976 351.53 40.592 351.53 42.64C351.53 44.688 351.026 46.312 350.018 47.512C349.01 48.712 347.602 49.312 345.794 49.312C343.97 49.312 342.554 48.728 341.546 47.56C340.554 46.376 340.058 44.744 340.058 42.664C340.058 40.648 340.562 39.032 341.57 37.816C342.594 36.6 344.01 35.992 345.818 35.992ZM345.818 38.08C344.842 38.08 344.106 38.456 343.61 39.208C343.13 39.96 342.89 41.112 342.89 42.664C342.89 44.232 343.13 45.392 343.61 46.144C344.09 46.88 344.818 47.248 345.794 47.248C346.77 47.248 347.498 46.872 347.978 46.12C348.458 45.368 348.698 44.208 348.698 42.64C348.698 41.088 348.458 39.944 347.978 39.208C347.498 38.456 346.778 38.08 345.818 38.08Z" fill="white"/>
<path d="M356.608 31.24H359.536L359.128 37.648H356.992L356.608 31.24ZM360.832 31.24H363.76L363.376 37.648H361.24L360.832 31.24Z" fill="white"/>
<path d="M379.855 40.312V42.64L370.639 48.376L369.319 46.456L377.527 41.488L369.319 36.568L370.567 34.576L379.855 40.312Z" fill="white"/>
<path d="M221.558 65.52L213.326 70.488L221.558 75.432L220.238 77.376L211.022 71.64V69.312L220.31 63.576L221.558 65.52Z" fill="white"/>
<path d="M228.293 66.84C228.725 66.248 229.237 65.792 229.829 65.472C230.437 65.152 231.085 64.992 231.773 64.992C233.389 64.992 234.581 65.576 235.349 66.744C236.117 67.912 236.501 69.544 236.501 71.64C236.501 73.624 236.053 75.232 235.157 76.464C234.277 77.696 233.037 78.312 231.437 78.312C230.029 78.312 228.925 77.792 228.125 76.752L227.981 78H225.605V60.24L228.293 59.928V66.84ZM230.789 76.272C231.717 76.272 232.421 75.896 232.901 75.144C233.397 74.376 233.645 73.216 233.645 71.664C233.645 70.064 233.421 68.896 232.973 68.16C232.541 67.424 231.893 67.056 231.029 67.056C230.485 67.056 229.973 67.224 229.493 67.56C229.029 67.896 228.629 68.336 228.293 68.88V74.808C228.933 75.784 229.765 76.272 230.789 76.272Z" fill="white"/>
<path d="M250.339 69.312V71.64L241.123 77.376L239.803 75.456L248.011 70.488L239.803 65.568L241.051 63.576L250.339 69.312Z" fill="white"/>
<path d="M266.05 78H263.482L263.098 69.936C263.05 68.88 263.026 67.864 263.026 66.888C263.026 65.624 263.05 64.624 263.098 63.888L260.65 75.072H258.226L255.61 63.888C255.674 64.704 255.706 65.96 255.706 67.656C255.706 68.68 255.698 69.448 255.682 69.96L255.346 78H252.85L253.786 61.44H257.122L259.498 72.528L261.754 61.44H265.114L266.05 78Z" fill="white"/>
<path d="M271.009 72.528C271.089 73.76 271.441 74.688 272.065 75.312C272.705 75.92 273.505 76.224 274.465 76.224C275.057 76.224 275.617 76.136 276.145 75.96C276.689 75.768 277.241 75.488 277.801 75.12L278.953 76.752C278.361 77.248 277.665 77.632 276.865 77.904C276.065 78.176 275.225 78.312 274.345 78.312C272.409 78.312 270.905 77.712 269.833 76.512C268.761 75.296 268.225 73.68 268.225 71.664C268.225 70.4 268.457 69.264 268.921 68.256C269.385 67.232 270.057 66.432 270.937 65.856C271.817 65.28 272.841 64.992 274.009 64.992C275.689 64.992 277.017 65.56 277.993 66.696C278.985 67.816 279.481 69.36 279.481 71.328C279.481 71.808 279.457 72.208 279.409 72.528H271.009ZM274.033 66.984C273.169 66.984 272.465 67.296 271.921 67.92C271.377 68.544 271.065 69.472 270.985 70.704H276.865C276.833 69.504 276.577 68.584 276.097 67.944C275.617 67.304 274.929 66.984 274.033 66.984Z" fill="white"/>
<path d="M285.855 74.184C285.855 74.92 285.999 75.456 286.287 75.792C286.591 76.112 287.047 76.272 287.655 76.272C288.231 76.272 288.783 76.104 289.311 75.768C289.855 75.432 290.287 75.008 290.607 74.496V65.328H293.295V78H290.967L290.799 76.368C290.351 76.992 289.767 77.472 289.047 77.808C288.327 78.144 287.583 78.312 286.815 78.312C285.599 78.312 284.687 77.984 284.079 77.328C283.471 76.672 283.167 75.736 283.167 74.52V65.328H285.855V74.184Z" fill="white"/>
<path d="M322.989 73.32C322.989 74.312 322.733 75.184 322.221 75.936C321.725 76.688 320.997 77.272 320.037 77.688C319.093 78.104 317.965 78.312 316.653 78.312C314.093 78.312 312.061 77.576 310.557 76.104L312.093 74.4C313.341 75.552 314.861 76.128 316.653 76.128C317.645 76.128 318.461 75.896 319.101 75.432C319.757 74.968 320.085 74.312 320.085 73.464C320.085 72.968 319.981 72.552 319.773 72.216C319.581 71.88 319.245 71.584 318.765 71.328C318.285 71.056 317.597 70.784 316.701 70.512C314.861 69.968 313.509 69.32 312.645 68.568C311.781 67.816 311.349 66.824 311.349 65.592C311.349 64.712 311.589 63.936 312.069 63.264C312.565 62.576 313.245 62.048 314.109 61.68C314.973 61.296 315.949 61.104 317.037 61.104C319.261 61.104 321.109 61.768 322.581 63.096L321.117 64.752C319.981 63.776 318.677 63.288 317.205 63.288C316.309 63.288 315.581 63.472 315.021 63.84C314.477 64.208 314.205 64.736 314.205 65.424C314.205 65.856 314.317 66.224 314.541 66.528C314.781 66.832 315.173 67.112 315.717 67.368C316.277 67.608 317.061 67.88 318.069 68.184C319.669 68.664 320.885 69.28 321.717 70.032C322.565 70.784 322.989 71.88 322.989 73.32Z" fill="white"/>
<path d="M331.403 59.112C331.915 59.112 332.331 59.28 332.651 59.616C332.987 59.936 333.155 60.336 333.155 60.816C333.155 61.296 332.987 61.696 332.651 62.016C332.331 62.336 331.915 62.496 331.403 62.496C330.875 62.496 330.451 62.336 330.131 62.016C329.811 61.696 329.651 61.296 329.651 60.816C329.651 60.32 329.811 59.912 330.131 59.592C330.467 59.272 330.891 59.112 331.403 59.112ZM333.251 76.032H336.707V78H326.795V76.032H330.563V67.296H326.915V65.328H333.251V76.032Z" fill="white"/>
<path d="M351.314 77.328C350.834 77.632 350.274 77.872 349.634 78.048C348.994 78.224 348.322 78.312 347.618 78.312C346.178 78.312 345.066 77.944 344.282 77.208C343.498 76.456 343.106 75.44 343.106 74.16V67.296H340.298V65.328H343.106V62.496L345.794 62.184V65.328H350.09L349.778 67.296H345.794V74.136C345.794 74.824 345.97 75.336 346.322 75.672C346.674 75.992 347.234 76.152 348.002 76.152C348.85 76.152 349.634 75.952 350.354 75.552L351.314 77.328Z" fill="white"/>
<path d="M357.352 72.528C357.432 73.76 357.784 74.688 358.408 75.312C359.048 75.92 359.848 76.224 360.808 76.224C361.4 76.224 361.96 76.136 362.488 75.96C363.032 75.768 363.584 75.488 364.144 75.12L365.296 76.752C364.704 77.248 364.008 77.632 363.208 77.904C362.408 78.176 361.568 78.312 360.688 78.312C358.752 78.312 357.248 77.712 356.176 76.512C355.104 75.296 354.568 73.68 354.568 71.664C354.568 70.4 354.8 69.264 355.264 68.256C355.728 67.232 356.4 66.432 357.28 65.856C358.16 65.28 359.184 64.992 360.352 64.992C362.032 64.992 363.36 65.56 364.336 66.696C365.328 67.816 365.824 69.36 365.824 71.328C365.824 71.808 365.8 72.208 365.752 72.528H357.352ZM360.376 66.984C359.512 66.984 358.808 67.296 358.264 67.92C357.72 68.544 357.408 69.472 357.328 70.704H363.208C363.176 69.504 362.92 68.584 362.44 67.944C361.96 67.304 361.272 66.984 360.376 66.984Z" fill="white"/>
<path d="M379.855 65.52L371.623 70.488L379.855 75.432L378.535 77.376L369.319 71.64V69.312L378.607 63.576L379.855 65.52Z" fill="white"/>
<path d="M382.822 79.584L392.998 58.512L395.11 59.496L384.958 80.544L382.822 79.584Z" fill="white"/>
<path d="M400.98 66.84C401.412 66.248 401.924 65.792 402.516 65.472C403.124 65.152 403.772 64.992 404.46 64.992C406.076 64.992 407.268 65.576 408.036 66.744C408.804 67.912 409.188 69.544 409.188 71.64C409.188 73.624 408.74 75.232 407.844 76.464C406.964 77.696 405.724 78.312 404.124 78.312C402.716 78.312 401.612 77.792 400.812 76.752L400.668 78H398.292V60.24L400.98 59.928V66.84ZM403.476 76.272C404.404 76.272 405.108 75.896 405.588 75.144C406.084 74.376 406.332 73.216 406.332 71.664C406.332 70.064 406.108 68.896 405.66 68.16C405.228 67.424 404.58 67.056 403.716 67.056C403.172 67.056 402.66 67.224 402.18 67.56C401.716 67.896 401.316 68.336 400.98 68.88V74.808C401.62 75.784 402.452 76.272 403.476 76.272Z" fill="white"/>
<path d="M423.027 69.312V71.64L413.811 77.376L412.491 75.456L420.699 70.488L412.491 65.568L413.739 63.576L423.027 69.312Z" fill="white"/>
<path d="M120.824 94.52L112.592 99.488L120.824 104.432L119.504 106.376L110.288 100.64V98.312L119.576 92.576L120.824 94.52Z" fill="white"/>
<path d="M123.79 108.584L133.966 87.512L136.078 88.496L125.926 109.544L123.79 108.584Z" fill="white"/>
<path d="M149.389 89.24V107H147.013L146.821 105.44C146.405 106.048 145.893 106.512 145.285 106.832C144.677 107.152 144.005 107.312 143.269 107.312C141.685 107.312 140.493 106.72 139.693 105.536C138.893 104.352 138.493 102.728 138.493 100.664C138.493 99.368 138.693 98.216 139.093 97.208C139.509 96.2 140.093 95.416 140.845 94.856C141.597 94.28 142.485 93.992 143.509 93.992C144.805 93.992 145.869 94.456 146.701 95.384V88.928L149.389 89.24ZM144.205 96.056C143.277 96.056 142.565 96.44 142.069 97.208C141.589 97.96 141.349 99.112 141.349 100.664C141.349 103.736 142.229 105.272 143.989 105.272C145.045 105.272 145.949 104.664 146.701 103.448V97.472C146.045 96.528 145.213 96.056 144.205 96.056Z" fill="white"/>
<path d="M158.716 88.112C159.228 88.112 159.644 88.28 159.964 88.616C160.3 88.936 160.468 89.336 160.468 89.816C160.468 90.296 160.3 90.696 159.964 91.016C159.644 91.336 159.228 91.496 158.716 91.496C158.188 91.496 157.764 91.336 157.444 91.016C157.124 90.696 156.964 90.296 156.964 89.816C156.964 89.32 157.124 88.912 157.444 88.592C157.78 88.272 158.204 88.112 158.716 88.112ZM160.564 105.032H164.02V107H154.108V105.032H157.876V96.296H154.228V94.328H160.564V105.032Z" fill="white"/>
<path d="M174.666 107H171.546L167.058 94.328H169.962L173.154 104.768L176.394 94.328H179.154L174.666 107Z" fill="white"/>
<path d="M192.777 98.312V100.64L183.561 106.376L182.241 104.456L190.449 99.488L182.241 94.568L183.489 92.576L192.777 98.312Z" fill="white"/>
<path d="M34.4801 123.52L26.2481 128.488L34.4801 133.432L33.1601 135.376L23.9441 129.64V127.312L33.2321 121.576L34.4801 123.52Z" fill="white"/>
<path d="M37.4467 137.584L47.6227 116.512L49.7347 117.496L39.5827 138.544L37.4467 137.584Z" fill="white"/>
<path d="M62.6133 132.904C62.6133 133.384 62.6853 133.744 62.8293 133.984C62.9733 134.208 63.2213 134.376 63.5733 134.488L62.9493 136.312C61.6213 136.152 60.7493 135.568 60.3333 134.56C59.8693 135.136 59.2853 135.576 58.5813 135.88C57.8933 136.168 57.1333 136.312 56.3013 136.312C55.0213 136.312 54.0053 135.952 53.2533 135.232C52.5013 134.512 52.1253 133.56 52.1253 132.376C52.1253 131.048 52.6453 130.024 53.6853 129.304C54.7413 128.584 56.2293 128.224 58.1493 128.224H59.9493V127.408C59.9493 126.608 59.7093 126.024 59.2293 125.656C58.7493 125.288 58.0533 125.104 57.1413 125.104C56.6933 125.104 56.1733 125.16 55.5813 125.272C54.9893 125.384 54.3893 125.544 53.7813 125.752L53.1093 123.856C54.6293 123.28 56.1093 122.992 57.5493 122.992C59.2293 122.992 60.4933 123.36 61.3413 124.096C62.1893 124.832 62.6133 125.88 62.6133 127.24V132.904ZM57.0933 134.344C57.6533 134.344 58.1893 134.2 58.7013 133.912C59.2293 133.624 59.6453 133.224 59.9493 132.712V129.904H58.4613C57.2453 129.904 56.3573 130.112 55.7973 130.528C55.2373 130.928 54.9573 131.512 54.9573 132.28C54.9573 132.952 55.1333 133.464 55.4853 133.816C55.8533 134.168 56.3893 134.344 57.0933 134.344Z" fill="white"/>
<path d="M77.652 127.312V129.64L68.436 135.376L67.116 133.456L75.324 128.488L67.116 123.568L68.364 121.576L77.652 127.312Z" fill="white"/>
<mask maskUnits="userSpaceOnUse" x="0" y="0" width="0" height="0" fill="black">
<rect fill="white" width="0" height="0"/>
</mask>
<path d="M82.7071 39.2929C82.3166 38.9024 81.6834 38.9024 81.2929 39.2929L74.9289 45.6569C74.5384 46.0474 74.5384 46.6805 74.9289 47.0711C75.3195 47.4616 75.9526 47.4616 76.3431 47.0711L82 41.4142L87.6569 47.0711C88.0474 47.4616 88.6805 47.4616 89.0711 47.0711C89.4616 46.6805 89.4616 46.0474 89.0711 45.6569L82.7071 39.2929ZM81.2929 106.707C81.6834 107.098 82.3166 107.098 82.7071 106.707L89.0711 100.343C89.4616 99.9526 89.4616 99.3195 89.0711 98.9289C88.6805 98.5384 88.0474 98.5384 87.6569 98.9289L82 104.586L76.3431 98.9289C75.9526 98.5384 75.3195 98.5384 74.9289 98.9289C74.5384 99.3195 74.5384 99.9526 74.9289 100.343L81.2929 106.707ZM81 40L81 106L83 106L83 40L81 40Z" fill="white" mask="url(#)"/>
<mask maskUnits="userSpaceOnUse" x="0" y="0" width="0" height="0" fill="black">
<rect fill="white" width="0" height="0"/>
</mask>
<path d="M82.7071 39.2929C82.3166 38.9024 81.6834 38.9024 81.2929 39.2929L74.9289 45.6569C74.5384 46.0474 74.5384 46.6805 74.9289 47.0711C75.3195 47.4616 75.9526 47.4616 76.3431 47.0711L82 41.4142L87.6569 47.0711C88.0474 47.4616 88.6805 47.4616 89.0711 47.0711C89.4616 46.6805 89.4616 46.0474 89.0711 45.6569L82.7071 39.2929ZM81.2929 106.707C81.6834 107.098 82.3166 107.098 82.7071 106.707L89.0711 100.343C89.4616 99.9526 89.4616 99.3195 89.0711 98.9289C88.6805 98.5384 88.0474 98.5384 87.6569 98.9289L82 104.586L76.3431 98.9289C75.9526 98.5384 75.3195 98.5384 74.9289 98.9289C74.5384 99.3195 74.5384 99.9526 74.9289 100.343L81.2929 106.707ZM81 40L81 106L83 106L83 40L81 40Z" fill="#C3CBDB" mask="url(#)"/>
<mask maskUnits="userSpaceOnUse" x="0" y="0" width="0" height="0" fill="black">
<rect fill="white" width="0" height="0"/>
</mask>
<path d="M8.70711 13.2929C8.31658 12.9024 7.68342 12.9024 7.29289 13.2929L0.928932 19.6569C0.538407 20.0474 0.538407 20.6805 0.928932 21.0711C1.31946 21.4616 1.95262 21.4616 2.34315 21.0711L8 15.4142L13.6569 21.0711C14.0474 21.4616 14.6805 21.4616 15.0711 21.0711C15.4616 20.6805 15.4616 20.0474 15.0711 19.6569L8.70711 13.2929ZM7.29289 129.707C7.68341 130.098 8.31658 130.098 8.7071 129.707L15.0711 123.343C15.4616 122.953 15.4616 122.319 15.0711 121.929C14.6805 121.538 14.0474 121.538 13.6568 121.929L7.99999 127.586L2.34314 121.929C1.95262 121.538 1.31945 121.538 0.928927 121.929C0.538403 122.319 0.538403 122.953 0.928927 123.343L7.29289 129.707ZM7 14L6.99999 129L8.99999 129L9 14L7 14Z" fill="#C3CBDB" mask="url(#)"/>
<mask maskUnits="userSpaceOnUse" x="0" y="0" width="0" height="0" fill="black">
<rect fill="white" width="0" height="0"/>
</mask>
<path d="M234.293 97.2929C233.902 97.6834 233.902 98.3166 234.293 98.7071L240.657 105.071C241.047 105.462 241.681 105.462 242.071 105.071C242.462 104.681 242.462 104.047 242.071 103.657L236.414 98L242.071 92.3431C242.462 91.9526 242.462 91.3195 242.071 90.9289C241.681 90.5384 241.047 90.5384 240.657 90.9289L234.293 97.2929ZM382.707 98.7071C383.098 98.3166 383.098 97.6834 382.707 97.2929L376.343 90.9289C375.953 90.5384 375.319 90.5384 374.929 90.9289C374.538 91.3195 374.538 91.9526 374.929 92.3431L380.586 98L374.929 103.657C374.538 104.047 374.538 104.681 374.929 105.071C375.319 105.462 375.953 105.462 376.343 105.071L382.707 98.7071ZM235 99H382V97H235V99Z" fill="#C3CBDB" mask="url(#)"/>
</svg>
