<svg width="499" height="110" viewBox="0 0 499 110" fill="none" xmlns="http://www.w3.org/2000/svg">
<mask maskUnits="userSpaceOnUse" x="0" y="0" width="0" height="0" fill="black">
<rect fill="white" width="0" height="0"/>
</mask>
<path d="M188.707 34.7809C188.317 34.3903 187.683 34.3903 187.293 34.7809L180.929 41.1448C180.538 41.5354 180.538 42.1685 180.929 42.559C181.319 42.9496 181.953 42.9496 182.343 42.559L188 36.9022L193.657 42.559C194.047 42.9496 194.681 42.9496 195.071 42.559C195.462 42.1685 195.462 41.5354 195.071 41.1448L188.707 34.7809ZM187.293 102.195C187.683 102.586 188.317 102.586 188.707 102.195L195.071 95.8311C195.462 95.4406 195.462 94.8074 195.071 94.4169C194.681 94.0264 194.047 94.0264 193.657 94.4169L188 100.074L182.343 94.4169C181.953 94.0264 181.319 94.0264 180.929 94.4169C180.538 94.8074 180.538 95.4406 180.929 95.8311L187.293 102.195ZM187 35.488L187 101.488L189 101.488L189 35.488L187 35.488Z" fill="#AB3E3E" mask="url(#)"/>
<mask maskUnits="userSpaceOnUse" x="0" y="0" width="0" height="0" fill="black">
<rect fill="white" width="0" height="0"/>
</mask>
<path d="M8.70711 6.78087C8.31658 6.39035 7.68342 6.39035 7.29289 6.78087L0.928932 13.1448C0.538407 13.5354 0.538407 14.1685 0.928932 14.559C1.31946 14.9496 1.95262 14.9496 2.34315 14.559L8 8.90219L13.6569 14.559C14.0474 14.9496 14.6805 14.9496 15.0711 14.559C15.4616 14.1685 15.4616 13.5354 15.0711 13.1448L8.70711 6.78087ZM7.29289 74.1951C7.68341 74.5856 8.31658 74.5856 8.7071 74.1951L15.0711 67.8311C15.4616 67.4406 15.4616 66.8074 15.0711 66.4169C14.6805 66.0264 14.0474 66.0264 13.6569 66.4169L8 72.0738L2.34314 66.4169C1.95262 66.0264 1.31945 66.0264 0.92893 66.4169C0.538405 66.8074 0.538405 67.4406 0.92893 67.8311L7.29289 74.1951ZM7 7.48798L7 73.488L9 73.488L9 7.48798L7 7.48798Z" fill="#AB3E3E" mask="url(#)"/>
<path d="M38.4801 7.008L30.2481 11.976L38.4801 16.92L37.1601 18.864L27.9441 13.128V10.8L37.2321 5.064L38.4801 7.008Z" fill="white"/>
<path d="M52.2227 16.392C52.2227 16.872 52.2947 17.232 52.4387 17.472C52.5827 17.696 52.8307 17.864 53.1827 17.976L52.5587 19.8C51.2307 19.64 50.3587 19.056 49.9427 18.048C49.4787 18.624 48.8947 19.064 48.1907 19.368C47.5027 19.656 46.7427 19.8 45.9107 19.8C44.6307 19.8 43.6147 19.44 42.8627 18.72C42.1107 18 41.7347 17.048 41.7347 15.864C41.7347 14.536 42.2547 13.512 43.2947 12.792C44.3507 12.072 45.8387 11.712 47.7587 11.712H49.5587V10.896C49.5587 10.096 49.3187 9.512 48.8387 9.144C48.3587 8.776 47.6627 8.592 46.7507 8.592C46.3027 8.592 45.7827 8.648 45.1907 8.76C44.5987 8.872 43.9987 9.032 43.3907 9.24L42.7187 7.344C44.2387 6.768 45.7187 6.48 47.1587 6.48C48.8387 6.48 50.1027 6.848 50.9507 7.584C51.7987 8.32 52.2227 9.368 52.2227 10.728V16.392ZM46.7027 17.832C47.2627 17.832 47.7987 17.688 48.3107 17.4C48.8387 17.112 49.2547 16.712 49.5587 16.2V13.392H48.0707C46.8547 13.392 45.9667 13.6 45.4067 14.016C44.8467 14.416 44.5667 15 44.5667 15.768C44.5667 16.44 44.7427 16.952 45.0947 17.304C45.4627 17.656 45.9987 17.832 46.7027 17.832Z" fill="white"/>
<path d="M73.996 8.376C74.508 7.752 75.1 7.28 75.772 6.96C76.46 6.64 77.18 6.48 77.932 6.48C79.1 6.48 79.98 6.808 80.572 7.464C81.164 8.104 81.46 9.032 81.46 10.248V19.488H78.772V10.656C78.772 9.904 78.628 9.368 78.34 9.048C78.052 8.712 77.588 8.544 76.948 8.544C76.388 8.544 75.844 8.728 75.316 9.096C74.804 9.448 74.364 9.888 73.996 10.416V19.488H71.308V1.752L73.996 1.464V8.376Z" fill="white"/>
<path d="M94.6746 6.504C95.3306 6.504 95.9706 6.608 96.5946 6.816L96.1386 11.496H94.2186V8.904C93.3386 8.92 92.5706 9.272 91.9146 9.96C91.2746 10.648 90.7626 11.616 90.3786 12.864V17.568H92.9226V19.488H85.8186V17.568H87.6906V8.736H85.8186V6.816H89.7306L90.2106 9.744C90.7066 8.656 91.3066 7.848 92.0106 7.32C92.7306 6.776 93.6186 6.504 94.6746 6.504Z" fill="white"/>
<path d="M102.321 14.016C102.401 15.248 102.753 16.176 103.377 16.8C104.017 17.408 104.817 17.712 105.777 17.712C106.369 17.712 106.929 17.624 107.457 17.448C108.001 17.256 108.553 16.976 109.113 16.608L110.265 18.24C109.673 18.736 108.977 19.12 108.177 19.392C107.377 19.664 106.537 19.8 105.657 19.8C103.721 19.8 102.217 19.2 101.145 18C100.073 16.784 99.5372 15.168 99.5372 13.152C99.5372 11.888 99.7692 10.752 100.233 9.744C100.697 8.72 101.369 7.92 102.249 7.344C103.129 6.768 104.153 6.48 105.321 6.48C107.001 6.48 108.329 7.048 109.305 8.184C110.297 9.304 110.793 10.848 110.793 12.816C110.793 13.296 110.769 13.696 110.721 14.016H102.321ZM105.345 8.472C104.481 8.472 103.777 8.784 103.233 9.408C102.689 10.032 102.377 10.96 102.297 12.192H108.177C108.145 10.992 107.889 10.072 107.409 9.432C106.929 8.792 106.241 8.472 105.345 8.472Z" fill="white"/>
<path d="M122.184 1.416C123.56 1.416 124.824 1.664 125.976 2.16L125.16 4.032C124.344 3.68 123.44 3.504 122.448 3.504C121.616 3.504 121 3.664 120.6 3.984C120.2 4.304 120 4.8 120 5.472V7.728H124.248L123.936 9.72H120V19.488H117.312V9.72H114.432V7.728H117.312V5.448C117.312 4.648 117.512 3.944 117.912 3.336C118.328 2.728 118.904 2.256 119.64 1.92C120.376 1.584 121.224 1.416 122.184 1.416Z" fill="white"/>
<path d="M138.902 10.752H128.966V8.544H138.902V10.752ZM138.902 15.48H128.966V13.296H138.902V15.48Z" fill="white"/>
<path d="M144.749 1.728H147.677L147.269 8.136H145.133L144.749 1.728ZM148.973 1.728H151.901L151.517 8.136H149.381L148.973 1.728Z" fill="white"/>
<path d="M160.34 8.376C160.852 7.752 161.444 7.28 162.116 6.96C162.804 6.64 163.524 6.48 164.276 6.48C165.444 6.48 166.324 6.808 166.916 7.464C167.508 8.104 167.804 9.032 167.804 10.248V19.488H165.116V10.656C165.116 9.904 164.972 9.368 164.684 9.048C164.396 8.712 163.932 8.544 163.292 8.544C162.732 8.544 162.188 8.728 161.66 9.096C161.148 9.448 160.708 9.888 160.34 10.416V19.488H157.652V1.752L160.34 1.464V8.376Z" fill="white"/>
<path d="M182.626 18.816C182.146 19.12 181.586 19.36 180.946 19.536C180.306 19.712 179.634 19.8 178.93 19.8C177.49 19.8 176.378 19.432 175.594 18.696C174.81 17.944 174.418 16.928 174.418 15.648V8.784H171.61V6.816H174.418V3.984L177.106 3.672V6.816H181.402L181.09 8.784H177.106V15.624C177.106 16.312 177.282 16.824 177.634 17.16C177.986 17.48 178.546 17.64 179.314 17.64C180.162 17.64 180.946 17.44 181.666 17.04L182.626 18.816Z" fill="white"/>
<path d="M197.017 18.816C196.537 19.12 195.977 19.36 195.337 19.536C194.697 19.712 194.025 19.8 193.321 19.8C191.881 19.8 190.769 19.432 189.985 18.696C189.201 17.944 188.809 16.928 188.809 15.648V8.784H186.001V6.816H188.809V3.984L191.497 3.672V6.816H195.793L195.481 8.784H191.497V15.624C191.497 16.312 191.673 16.824 192.025 17.16C192.377 17.48 192.937 17.64 193.705 17.64C194.553 17.64 195.337 17.44 196.057 17.04L197.017 18.816Z" fill="white"/>
<path d="M207.016 6.48C210.088 6.48 211.624 8.696 211.624 13.128C211.624 15.128 211.2 16.744 210.352 17.976C209.504 19.192 208.296 19.8 206.728 19.8C205.4 19.8 204.328 19.336 203.512 18.408V24.36L200.824 24.672V6.816H203.152L203.32 8.448C203.8 7.808 204.352 7.32 204.976 6.984C205.616 6.648 206.296 6.48 207.016 6.48ZM206.272 8.544C205.712 8.544 205.2 8.712 204.736 9.048C204.272 9.384 203.864 9.824 203.512 10.368V16.296C204.136 17.24 204.968 17.712 206.008 17.712C206.936 17.712 207.632 17.344 208.096 16.608C208.56 15.872 208.792 14.72 208.792 13.152C208.792 11.536 208.584 10.368 208.168 9.648C207.752 8.912 207.12 8.544 206.272 8.544Z" fill="white"/>
<path d="M219.822 17.76C220.67 17.76 221.334 17.608 221.814 17.304C222.31 17 222.558 16.584 222.558 16.056C222.558 15.688 222.486 15.392 222.342 15.168C222.198 14.928 221.91 14.712 221.478 14.52C221.046 14.312 220.398 14.096 219.534 13.872C218.142 13.52 217.094 13.072 216.39 12.528C215.702 11.968 215.358 11.168 215.358 10.128C215.358 9.024 215.814 8.144 216.726 7.488C217.638 6.816 218.87 6.48 220.422 6.48C222.294 6.48 223.902 6.968 225.246 7.944L224.094 9.648C222.958 8.896 221.758 8.52 220.494 8.52C218.894 8.52 218.094 8.984 218.094 9.912C218.094 10.232 218.182 10.496 218.358 10.704C218.55 10.912 218.87 11.112 219.318 11.304C219.766 11.48 220.43 11.688 221.31 11.928C222.686 12.312 223.71 12.784 224.382 13.344C225.07 13.904 225.414 14.744 225.414 15.864C225.414 17.16 224.878 18.144 223.806 18.816C222.734 19.472 221.406 19.8 219.822 19.8C217.726 19.8 215.99 19.208 214.614 18.024L216.03 16.392C216.558 16.808 217.142 17.144 217.782 17.4C218.438 17.64 219.118 17.76 219.822 17.76Z" fill="white"/>
<path d="M232.509 9.12C232.509 8.528 232.717 8.024 233.133 7.608C233.549 7.176 234.053 6.96 234.645 6.96C235.253 6.96 235.765 7.176 236.181 7.608C236.597 8.024 236.805 8.528 236.805 9.12C236.805 9.712 236.597 10.224 236.181 10.656C235.765 11.072 235.253 11.28 234.645 11.28C234.053 11.28 233.549 11.072 233.133 10.656C232.717 10.224 232.509 9.712 232.509 9.12ZM232.509 17.64C232.509 17.048 232.717 16.544 233.133 16.128C233.549 15.712 234.053 15.504 234.645 15.504C235.269 15.504 235.781 15.712 236.181 16.128C236.597 16.544 236.805 17.048 236.805 17.64C236.805 18.248 236.597 18.76 236.181 19.176C235.781 19.592 235.269 19.8 234.645 19.8C234.053 19.8 233.549 19.592 233.133 19.176C232.717 18.76 232.509 18.248 232.509 17.64Z" fill="white"/>
<path d="M242.915 21.072L253.091 0L255.203 0.984L245.051 22.032L242.915 21.072Z" fill="white"/>
<path d="M257.306 21.072L267.482 0L269.594 0.984L259.442 22.032L257.306 21.072Z" fill="white"/>
<path d="M279.329 19.488L277.889 10.488L276.353 19.488H273.065L270.929 6.816H273.521L274.841 17.808L276.617 8.424H279.305L280.937 17.808L282.257 6.816H284.753L282.689 19.488H279.329Z" fill="white"/>
<path d="M293.719 19.488L292.279 10.488L290.743 19.488H287.455L285.319 6.816H287.911L289.231 17.808L291.007 8.424H293.695L295.327 17.808L296.647 6.816H299.143L297.079 19.488H293.719Z" fill="white"/>
<path d="M308.11 19.488L306.67 10.488L305.134 19.488H301.846L299.71 6.816H302.302L303.622 17.808L305.398 8.424H308.086L309.718 17.808L311.038 6.816H313.534L311.47 19.488H308.11Z" fill="white"/>
<path d="M318.685 17.472C318.685 16.832 318.909 16.288 319.357 15.84C319.805 15.392 320.349 15.168 320.989 15.168C321.645 15.168 322.197 15.392 322.645 15.84C323.093 16.288 323.317 16.832 323.317 17.472C323.317 18.128 323.093 18.68 322.645 19.128C322.197 19.576 321.645 19.8 320.989 19.8C320.349 19.8 319.805 19.576 319.357 19.128C318.909 18.68 318.685 18.128 318.685 17.472Z" fill="white"/>
<path d="M339.315 6.504C339.971 6.504 340.611 6.608 341.235 6.816L340.779 11.496H338.859V8.904C337.979 8.92 337.211 9.272 336.555 9.96C335.915 10.648 335.403 11.616 335.019 12.864V17.568H337.563V19.488H330.459V17.568H332.331V8.736H330.459V6.816H334.371L334.851 9.744C335.347 8.656 335.947 7.848 336.651 7.32C337.371 6.776 338.259 6.504 339.315 6.504Z" fill="white"/>
<path d="M354.426 16.392C354.426 16.872 354.498 17.232 354.642 17.472C354.786 17.696 355.034 17.864 355.386 17.976L354.762 19.8C353.434 19.64 352.562 19.056 352.146 18.048C351.682 18.624 351.098 19.064 350.394 19.368C349.706 19.656 348.946 19.8 348.114 19.8C346.834 19.8 345.818 19.44 345.066 18.72C344.314 18 343.938 17.048 343.938 15.864C343.938 14.536 344.458 13.512 345.498 12.792C346.554 12.072 348.042 11.712 349.962 11.712H351.762V10.896C351.762 10.096 351.522 9.512 351.042 9.144C350.562 8.776 349.866 8.592 348.954 8.592C348.506 8.592 347.986 8.648 347.394 8.76C346.802 8.872 346.202 9.032 345.594 9.24L344.922 7.344C346.442 6.768 347.922 6.48 349.362 6.48C351.042 6.48 352.306 6.848 353.154 7.584C354.002 8.32 354.426 9.368 354.426 10.728V16.392ZM348.906 17.832C349.466 17.832 350.002 17.688 350.514 17.4C351.042 17.112 351.458 16.712 351.762 16.2V13.392H350.274C349.058 13.392 348.17 13.6 347.61 14.016C347.05 14.416 346.77 15 346.77 15.768C346.77 16.44 346.946 16.952 347.298 17.304C347.666 17.656 348.202 17.832 348.906 17.832Z" fill="white"/>
<path d="M359.12 6.816H361.448L361.64 8.472C362.168 7.832 362.784 7.344 363.488 7.008C364.208 6.656 364.96 6.48 365.744 6.48C366.912 6.48 367.792 6.808 368.384 7.464C368.976 8.12 369.272 9.048 369.272 10.248V19.488H366.584V11.592C366.584 10.808 366.536 10.208 366.44 9.792C366.36 9.36 366.192 9.048 365.936 8.856C365.68 8.648 365.296 8.544 364.784 8.544C364.208 8.544 363.656 8.72 363.128 9.072C362.616 9.424 362.176 9.864 361.808 10.392V19.488H359.12V6.816Z" fill="white"/>
<path d="M378.599 6.48C380.423 6.48 381.831 7.08 382.823 8.28C383.815 9.464 384.311 11.08 384.311 13.128C384.311 15.176 383.807 16.8 382.799 18C381.791 19.2 380.383 19.8 378.575 19.8C376.751 19.8 375.335 19.216 374.327 18.048C373.335 16.864 372.839 15.232 372.839 13.152C372.839 11.136 373.343 9.52 374.351 8.304C375.375 7.088 376.791 6.48 378.599 6.48ZM378.599 8.568C377.623 8.568 376.887 8.944 376.391 9.696C375.911 10.448 375.671 11.6 375.671 13.152C375.671 14.72 375.911 15.88 376.391 16.632C376.871 17.368 377.599 17.736 378.575 17.736C379.551 17.736 380.279 17.36 380.759 16.608C381.239 15.856 381.479 14.696 381.479 13.128C381.479 11.576 381.239 10.432 380.759 9.696C380.279 8.944 379.559 8.568 378.599 8.568Z" fill="white"/>
<path d="M394.622 19.536C394.11 21.072 393.366 22.272 392.39 23.136C391.43 24.016 390.102 24.528 388.406 24.672L388.07 22.656C388.902 22.528 389.574 22.328 390.086 22.056C390.598 21.8 391.006 21.472 391.31 21.072C391.614 20.672 391.886 20.144 392.126 19.488H391.214L386.942 6.816H389.798L392.99 17.616L396.23 6.816H398.99L394.622 19.536Z" fill="white"/>
<path d="M411.988 16.392C411.988 16.872 412.06 17.232 412.204 17.472C412.348 17.696 412.596 17.864 412.948 17.976L412.324 19.8C410.996 19.64 410.124 19.056 409.708 18.048C409.244 18.624 408.66 19.064 407.956 19.368C407.268 19.656 406.508 19.8 405.676 19.8C404.396 19.8 403.38 19.44 402.628 18.72C401.876 18 401.5 17.048 401.5 15.864C401.5 14.536 402.02 13.512 403.06 12.792C404.116 12.072 405.604 11.712 407.524 11.712H409.324V10.896C409.324 10.096 409.084 9.512 408.604 9.144C408.124 8.776 407.428 8.592 406.516 8.592C406.068 8.592 405.548 8.648 404.956 8.76C404.364 8.872 403.764 9.032 403.156 9.24L402.484 7.344C404.004 6.768 405.484 6.48 406.924 6.48C408.604 6.48 409.868 6.848 410.716 7.584C411.564 8.32 411.988 9.368 411.988 10.728V16.392ZM406.468 17.832C407.028 17.832 407.564 17.688 408.076 17.4C408.604 17.112 409.02 16.712 409.324 16.2V13.392H407.836C406.62 13.392 405.732 13.6 405.172 14.016C404.612 14.416 404.332 15 404.332 15.768C404.332 16.44 404.508 16.952 404.86 17.304C405.228 17.656 405.764 17.832 406.468 17.832Z" fill="white"/>
<path d="M419.419 17.472C419.419 16.832 419.643 16.288 420.091 15.84C420.539 15.392 421.083 15.168 421.723 15.168C422.379 15.168 422.931 15.392 423.379 15.84C423.827 16.288 424.051 16.832 424.051 17.472C424.051 18.128 423.827 18.68 423.379 19.128C422.931 19.576 422.379 19.8 421.723 19.8C421.083 19.8 420.539 19.576 420.091 19.128C419.643 18.68 419.419 18.128 419.419 17.472Z" fill="white"/>
<path d="M437.194 17.592C438.202 17.592 439.242 17.232 440.314 16.512L441.538 18.24C440.978 18.72 440.306 19.104 439.522 19.392C438.738 19.664 437.93 19.8 437.098 19.8C435.162 19.8 433.65 19.208 432.562 18.024C431.474 16.824 430.93 15.224 430.93 13.224C430.93 11.928 431.178 10.776 431.674 9.768C432.17 8.744 432.882 7.944 433.81 7.368C434.754 6.776 435.866 6.48 437.146 6.48C438.826 6.48 440.29 6.992 441.538 8.016L440.29 9.696C439.266 8.992 438.234 8.64 437.194 8.64C436.138 8.64 435.306 9.024 434.698 9.792C434.09 10.544 433.786 11.688 433.786 13.224C433.786 14.728 434.09 15.832 434.698 16.536C435.306 17.24 436.138 17.592 437.194 17.592Z" fill="white"/>
<path d="M450.552 6.48C452.376 6.48 453.784 7.08 454.776 8.28C455.768 9.464 456.264 11.08 456.264 13.128C456.264 15.176 455.76 16.8 454.752 18C453.744 19.2 452.336 19.8 450.528 19.8C448.704 19.8 447.288 19.216 446.28 18.048C445.288 16.864 444.792 15.232 444.792 13.152C444.792 11.136 445.296 9.52 446.304 8.304C447.328 7.088 448.744 6.48 450.552 6.48ZM450.552 8.568C449.576 8.568 448.84 8.944 448.344 9.696C447.864 10.448 447.624 11.6 447.624 13.152C447.624 14.72 447.864 15.88 448.344 16.632C448.824 17.368 449.552 17.736 450.528 17.736C451.504 17.736 452.232 17.36 452.712 16.608C453.192 15.856 453.432 14.696 453.432 13.128C453.432 11.576 453.192 10.432 452.712 9.696C452.232 8.944 451.512 8.568 450.552 8.568Z" fill="white"/>
<path d="M468.591 6.48C469.375 6.48 469.991 6.752 470.439 7.296C470.887 7.84 471.111 8.768 471.111 10.08V19.488H468.735V10.44C468.735 9.736 468.679 9.248 468.567 8.976C468.471 8.704 468.247 8.568 467.895 8.568C467.223 8.568 466.599 8.992 466.023 9.84V19.488H463.839V10.44C463.839 9.736 463.783 9.248 463.671 8.976C463.575 8.704 463.351 8.568 462.999 8.568C462.327 8.568 461.703 8.992 461.127 9.84V19.488H458.727V6.816H460.743L460.935 8.184C461.335 7.624 461.743 7.2 462.159 6.912C462.575 6.624 463.071 6.48 463.647 6.48C464.767 6.48 465.487 7.016 465.807 8.088C466.191 7.576 466.607 7.184 467.055 6.912C467.503 6.624 468.015 6.48 468.591 6.48Z" fill="white"/>
<path d="M475.733 1.728H478.661L478.253 8.136H476.117L475.733 1.728ZM479.957 1.728H482.885L482.501 8.136H480.365L479.957 1.728Z" fill="white"/>
<path d="M498.98 10.8V13.128L489.764 18.864L488.444 16.944L496.652 11.976L488.444 7.056L489.692 5.064L498.98 10.8Z" fill="white"/>
<path d="M96.0426 36.008L87.8106 40.976L96.0426 45.92L94.7226 47.864L85.5066 42.128V39.8L94.7946 34.064L96.0426 36.008Z" fill="white"/>
<path d="M110.217 30.728V48.488H107.841L107.649 46.928C107.233 47.536 106.721 48 106.113 48.32C105.505 48.64 104.833 48.8 104.097 48.8C102.513 48.8 101.321 48.208 100.521 47.024C99.7212 45.84 99.3212 44.216 99.3212 42.152C99.3212 40.856 99.5212 39.704 99.9212 38.696C100.337 37.688 100.921 36.904 101.673 36.344C102.425 35.768 103.313 35.48 104.337 35.48C105.633 35.48 106.697 35.944 107.529 36.872V30.416L110.217 30.728ZM105.033 37.544C104.105 37.544 103.393 37.928 102.897 38.696C102.417 39.448 102.177 40.6 102.177 42.152C102.177 45.224 103.057 46.76 104.817 46.76C105.873 46.76 106.777 46.152 107.529 44.936V38.96C106.873 38.016 106.041 37.544 105.033 37.544Z" fill="white"/>
<path d="M119.544 29.6C120.056 29.6 120.472 29.768 120.792 30.104C121.128 30.424 121.296 30.824 121.296 31.304C121.296 31.784 121.128 32.184 120.792 32.504C120.472 32.824 120.056 32.984 119.544 32.984C119.016 32.984 118.592 32.824 118.272 32.504C117.952 32.184 117.792 31.784 117.792 31.304C117.792 30.808 117.952 30.4 118.272 30.08C118.608 29.76 119.032 29.6 119.544 29.6ZM121.392 46.52H124.848V48.488H114.936V46.52H118.704V37.784H115.056V35.816H121.392V46.52Z" fill="white"/>
<path d="M135.494 48.488H132.374L127.886 35.816H130.79L133.982 46.256L137.222 35.816H139.982L135.494 48.488Z" fill="white"/>
<path d="M153.605 39.8V42.128L144.389 47.864L143.069 45.944L151.277 40.976L143.069 36.056L144.317 34.064L153.605 39.8Z" fill="white"/>
<path d="M38.4801 65.008L30.2481 69.976L38.4801 74.92L37.1601 76.864L27.9441 71.128V68.8L37.2321 63.064L38.4801 65.008Z" fill="white"/>
<path d="M41.4467 79.072L51.6227 58L53.7347 58.984L43.5827 80.032L41.4467 79.072Z" fill="white"/>
<path d="M66.6133 74.392C66.6133 74.872 66.6853 75.232 66.8293 75.472C66.9733 75.696 67.2213 75.864 67.5733 75.976L66.9493 77.8C65.6213 77.64 64.7493 77.056 64.3333 76.048C63.8693 76.624 63.2853 77.064 62.5813 77.368C61.8933 77.656 61.1333 77.8 60.3013 77.8C59.0213 77.8 58.0053 77.44 57.2533 76.72C56.5013 76 56.1253 75.048 56.1253 73.864C56.1253 72.536 56.6453 71.512 57.6853 70.792C58.7413 70.072 60.2293 69.712 62.1493 69.712H63.9493V68.896C63.9493 68.096 63.7093 67.512 63.2293 67.144C62.7493 66.776 62.0533 66.592 61.1413 66.592C60.6933 66.592 60.1733 66.648 59.5813 66.76C58.9893 66.872 58.3893 67.032 57.7813 67.24L57.1093 65.344C58.6293 64.768 60.1093 64.48 61.5493 64.48C63.2293 64.48 64.4933 64.848 65.3413 65.584C66.1893 66.32 66.6133 67.368 66.6133 68.728V74.392ZM61.0933 75.832C61.6533 75.832 62.1893 75.688 62.7013 75.4C63.2293 75.112 63.6453 74.712 63.9493 74.2V71.392H62.4613C61.2453 71.392 60.3573 71.6 59.7973 72.016C59.2373 72.416 58.9573 73 58.9573 73.768C58.9573 74.44 59.1333 74.952 59.4853 75.304C59.8533 75.656 60.3893 75.832 61.0933 75.832Z" fill="white"/>
<path d="M81.652 68.8V71.128L72.436 76.864L71.116 74.944L79.324 69.976L71.116 65.056L72.364 63.064L81.652 68.8Z" fill="white"/>
<path d="M96.0426 94.008L87.8106 98.976L96.0426 103.92L94.7226 105.864L85.5066 100.128V97.8L94.7946 92.064L96.0426 94.008Z" fill="white"/>
<path d="M99.0092 108.072L109.185 87L111.297 87.984L101.145 109.032L99.0092 108.072Z" fill="white"/>
<path d="M124.608 88.728V106.488H122.232L122.04 104.928C121.624 105.536 121.112 106 120.504 106.32C119.896 106.64 119.224 106.8 118.488 106.8C116.904 106.8 115.712 106.208 114.912 105.024C114.112 103.84 113.712 102.216 113.712 100.152C113.712 98.856 113.912 97.704 114.312 96.696C114.728 95.688 115.312 94.904 116.064 94.344C116.816 93.768 117.704 93.48 118.728 93.48C120.024 93.48 121.088 93.944 121.92 94.872V88.416L124.608 88.728ZM119.424 95.544C118.496 95.544 117.784 95.928 117.288 96.696C116.808 97.448 116.568 98.6 116.568 100.152C116.568 103.224 117.448 104.76 119.208 104.76C120.264 104.76 121.168 104.152 121.92 102.936V96.96C121.264 96.016 120.432 95.544 119.424 95.544Z" fill="white"/>
<path d="M133.934 87.6C134.446 87.6 134.862 87.768 135.182 88.104C135.518 88.424 135.686 88.824 135.686 89.304C135.686 89.784 135.518 90.184 135.182 90.504C134.862 90.824 134.446 90.984 133.934 90.984C133.406 90.984 132.982 90.824 132.662 90.504C132.342 90.184 132.182 89.784 132.182 89.304C132.182 88.808 132.342 88.4 132.662 88.08C132.998 87.76 133.422 87.6 133.934 87.6ZM135.782 104.52H139.238V106.488H129.326V104.52H133.094V95.784H129.446V93.816H135.782V104.52Z" fill="white"/>
<path d="M149.885 106.488H146.765L142.277 93.816H145.181L148.373 104.256L151.613 93.816H154.373L149.885 106.488Z" fill="white"/>
<path d="M167.996 97.8V100.128L158.78 105.864L157.46 103.944L165.668 98.976L157.46 94.056L158.708 92.064L167.996 97.8Z" fill="white"/>
</svg>
