<svg width="2856" height="1787" viewBox="0 0 2856 1787" fill="none" xmlns="http://www.w3.org/2000/svg">
<path fill-rule="evenodd" clip-rule="evenodd" d="M1904 476C1904 648.027 1812.74 798.74 1676 882.371V606C1676 495.543 1586.46 406 1476 406H1380C1269.54 406 1180 495.543 1180 606V882.371C1043.26 798.74 952 648.027 952 476C952 213.112 1165.11 0 1428 0C1690.89 0 1904 213.112 1904 476ZM1427.5 386C1499.57 386 1558 327.573 1558 255.5C1558 183.427 1499.57 125 1427.5 125C1355.43 125 1297 183.427 1297 255.5C1297 327.573 1355.43 386 1427.5 386Z" fill="#F9CB9C"/>
<path d="M1348 359L1348 358.998C1348.08 359.062 1348.17 359.126 1348.25 359.19L1348 359Z" fill="#F9CB9C"/>
<path fill-rule="evenodd" clip-rule="evenodd" d="M1904 1380C1904 1552.03 1812.74 1702.74 1676 1786.37V1510C1676 1399.54 1586.46 1310 1476 1310H1380C1269.54 1310 1180 1399.54 1180 1510V1786.37C1043.26 1702.74 952 1552.03 952 1380C952 1117.11 1165.11 904 1428 904C1690.89 904 1904 1117.11 1904 1380ZM1427.5 1290C1499.57 1290 1558 1231.57 1558 1159.5C1558 1087.43 1499.57 1029 1427.5 1029C1355.43 1029 1297 1087.43 1297 1159.5C1297 1231.57 1355.43 1290 1427.5 1290Z" fill="#F9CB9C"/>
<path d="M1348 1263L1348 1263C1348.08 1263.06 1348.17 1263.13 1348.25 1263.19L1348 1263Z" fill="#F9CB9C"/>
<path fill-rule="evenodd" clip-rule="evenodd" d="M952 964C952 1136.03 860.744 1286.74 724 1370.37V1094C724 983.543 634.457 894 524 894H428C317.543 894 228 983.543 228 1094V1370.37C91.2561 1286.74 0 1136.03 0 964C0 701.112 213.112 488 476 488C738.888 488 952 701.112 952 964ZM475.5 874C547.573 874 606 815.573 606 743.5C606 671.427 547.573 613 475.5 613C403.427 613 345 671.427 345 743.5C345 815.573 403.427 874 475.5 874Z" fill="#F9CB9C"/>
<path d="M396 847L396.001 846.998C396.084 847.062 396.167 847.126 396.251 847.19L396 847Z" fill="#F9CB9C"/>
<path fill-rule="evenodd" clip-rule="evenodd" d="M2856 964C2856 1136.03 2764.74 1286.74 2628 1370.37V1094C2628 983.543 2538.46 894 2428 894H2332C2221.54 894 2132 983.543 2132 1094V1370.37C1995.26 1286.74 1904 1136.03 1904 964C1904 701.112 2117.11 488 2380 488C2642.89 488 2856 701.112 2856 964ZM2379.5 874C2451.57 874 2510 815.573 2510 743.5C2510 671.427 2451.57 613 2379.5 613C2307.43 613 2249 671.427 2249 743.5C2249 815.573 2307.43 874 2379.5 874Z" fill="#F9CB9C"/>
<path d="M2300 847L2300 846.998C2300.08 847.062 2300.17 847.126 2300.25 847.19L2300 847Z" fill="#F9CB9C"/>
</svg>
