<svg width="1658" height="751" viewBox="0 0 1658 751" fill="none" xmlns="http://www.w3.org/2000/svg">
<rect width="392" height="751" fill="white"/>
<rect width="392" height="751" transform="translate(1266)" fill="white"/>
<path fill-rule="evenodd" clip-rule="evenodd" d="M821 0H0V751H821V0ZM31 33H678V67H31V33ZM31 93H778V127H31V93ZM592 153H31V187H592V153ZM31 213H648V247H31V213ZM558 273H31V307H558V273ZM31 333H678V367H31V333ZM778 393H31V427H778V393ZM31 453H592V487H31V453ZM648 513H31V547H648V513ZM31 573H558V607H31V573Z" transform="translate(419)" fill="white"/>
</svg>
