<svg width="2272" height="1316" viewBox="0 0 2272 1316" fill="none" xmlns="http://www.w3.org/2000/svg">
<path fill-rule="evenodd" clip-rule="evenodd" d="M1136 1215C1763.4 1215 2272 943.013 2272 607.5C2272 271.987 1763.4 0 1136 0C508.604 0 0 271.987 0 607.5C0 797.063 162.357 966.348 416.765 1077.76C371.934 1172.48 271.262 1260.24 217 1298.09C335.932 1323.07 714.734 1344.33 861.01 1197.08C949.062 1208.79 1041.17 1215 1136 1215Z" fill="white"/>
<path d="M226 316.5C226 330.167 223.167 342.833 217.5 354.5C211.833 366.167 204.167 376.833 194.5 386.5C184.833 395.833 173.5 404.167 160.5 411.5C147.833 418.5 134.333 424.5 120 429.5C106 434.167 91.5 437.833 76.5 440.5C61.8333 442.833 47.6667 444 34 444C21.6667 444 10.1667 443 -0.5 441C15.5 382.667 28.1667 324 37.5 265C47.1667 205.667 56.3333 146 65 86C82.3333 82.3333 100.333 79.1667 119 76.5C137.667 73.5 157 72 177 72C185.333 72 194.167 73 203.5 75C212.833 77 221.333 80.6667 229 86C236.667 91.3333 243 98.3333 248 107C253.333 115.667 256 126.667 256 140C256 152.667 253.833 164.5 249.5 175.5C245.5 186.5 240.167 196.5 233.5 205.5C227.167 214.5 219.833 222.333 211.5 229C203.167 235.333 194.667 240.167 186 243.5C190.333 245.833 194.833 249.167 199.5 253.5C204.167 257.833 208.5 263 212.5 269C216.5 274.667 219.667 281.5 222 289.5C224.667 297.5 226 306.5 226 316.5ZM111.5 264.5C110.167 272.5 108.833 279.667 107.5 286C106.5 292 105.5 297.833 104.5 303.5C103.5 309.167 102.333 315.167 101 321.5C100 327.5 98.8333 334.667 97.5 343C103.833 342.333 111 341.167 119 339.5C127 337.833 134.667 335.333 142 332C149.333 328.333 155.5 323.667 160.5 318C165.5 312 168 304.833 168 296.5C168 290.5 166.333 285.5 163 281.5C160 277.5 156 274.167 151 271.5C146.333 268.833 141.167 267 135.5 266C129.833 264.667 124.5 264 119.5 264C117.833 264 116.333 264 115 264C114 264 112.833 264.167 111.5 264.5ZM134 143.5C133.333 147.167 132.5 151.5 131.5 156.5C130.833 161.5 130 166.833 129 172.5C128 177.833 126.833 183.167 125.5 188.5C124.5 193.833 123.667 198.5 123 202.5C130.333 201.167 137.667 199.333 145 197C152.333 194.667 158.833 192.167 164.5 189.5C170.5 186.5 175.167 183.333 178.5 180C182.167 176.667 184 173 184 169C184 164 182.5 160 179.5 157C176.5 153.667 172.5 151 167.5 149C162.833 147 157.833 145.667 152.5 145C147.5 144 143 143.5 139 143.5H134ZM493.867 171.5C493.867 198.833 490.867 224.667 484.867 249C479.201 273 471.534 295.167 461.867 315.5C452.201 335.5 440.867 353.5 427.867 369.5C415.201 385.167 401.867 398.667 387.867 410C373.867 421 359.701 429.5 345.367 435.5C331.034 441.167 317.367 444 304.367 444C293.367 444 283.367 442 274.367 438C265.367 433.667 257.534 427.5 250.867 419.5C244.201 411.167 238.867 400.667 234.867 388C231.201 375 229.367 359.5 229.367 341.5C229.367 322.833 231.701 303.167 236.367 282.5C241.034 261.833 247.367 241.333 255.367 221C263.367 200.667 273.201 181.333 284.867 163C296.534 144.667 309.367 128.5 323.367 114.5C337.367 100.167 352.367 88.8333 368.367 80.5C384.367 72.1667 401.034 68 418.367 68C433.367 68 445.701 71.1667 455.367 77.5C465.367 83.5 473.034 91.5 478.367 101.5C484.034 111.167 488.034 122.167 490.367 134.5C492.701 146.833 493.867 159.167 493.867 171.5ZM303.867 328.5C303.867 332.167 304.534 336 305.867 340C307.201 344 309.034 347.5 311.367 350.5C313.701 353.5 316.534 356.167 319.867 358.5C323.534 360.5 327.367 361.5 331.367 361.5C346.367 361.5 359.701 356.333 371.367 346C383.034 335.667 392.701 323 400.367 308C408.034 293 413.867 277 417.867 260C422.201 243 424.367 227.5 424.367 213.5C424.367 209.5 424.034 205.167 423.367 200.5C423.034 195.833 422.034 191.5 420.367 187.5C419.034 183.5 416.701 180.167 413.367 177.5C410.367 174.5 406.201 173 400.867 173C390.201 173 380.367 175.667 371.367 181C362.367 186.333 354.201 193.5 346.867 202.5C339.867 211.167 333.701 221.167 328.367 232.5C323.034 243.5 318.367 254.833 314.367 266.5C310.701 277.833 308.034 289 306.367 300C304.701 311 303.867 320.5 303.867 328.5ZM445.449 439C460.116 394.667 474.116 351.167 487.449 308.5C493.116 290.5 498.949 271.667 504.949 252C510.949 232.333 516.949 212.833 522.949 193.5C528.949 174.167 534.449 155.5 539.449 137.5C544.783 119.5 549.449 102.833 553.449 87.5C571.783 87.5 589.116 86.5 605.449 84.5C621.783 82.5 639.449 80.6667 658.449 79C657.449 86.3333 656.283 94.6667 654.949 104C653.949 113 652.616 122.5 650.949 132.5C649.616 142.5 648.116 152.833 646.449 163.5C644.783 174.167 642.783 187.833 640.449 204.5C638.116 221.167 634.949 242 630.949 267H637.449C647.116 241.667 655.116 220.667 661.449 204C667.783 187 672.949 173.167 676.949 162.5C680.949 151.833 684.949 141.5 688.949 131.5C693.283 121.167 697.283 111.5 700.949 102.5C704.949 93.1667 708.616 85 711.949 78C720.283 77.3333 728.116 76.5 735.449 75.5C742.783 74.5 750.116 73.5 757.449 72.5C764.783 71.1667 772.116 70 779.449 69C787.116 67.6667 795.449 66.1667 804.449 64.5C801.116 83.8333 797.949 103.667 794.949 124C791.949 144.333 789.283 164.667 786.949 185C784.616 205 782.283 224.833 779.949 244.5C777.949 264.167 776.116 282.833 774.449 300.5C770.449 341.833 766.949 382.167 763.949 421.5L676.949 437C676.949 435.333 677.116 430.833 677.449 423.5C678.116 416.167 678.783 407.167 679.449 396.5C680.449 385.833 681.616 374 682.949 361C684.616 348 686.116 335 687.449 322C689.116 309 690.783 296.5 692.449 284.5C694.116 272.167 695.783 261.667 697.449 253H692.949C688.283 267 683.116 281.833 677.449 297.5C671.783 312.833 665.949 328.5 659.949 344.5C654.283 360.5 648.616 376.167 642.949 391.5C637.283 406.833 632.283 421.5 627.949 435.5C616.283 435.833 606.283 436.333 597.949 437C589.616 437.333 579.949 437.833 568.949 438.5L584.949 253H577.449C576.783 257.333 575.116 264.667 572.449 275C569.783 285 566.616 296.667 562.949 310C559.616 323 555.949 336.667 551.949 351C547.949 365 544.116 378.167 540.449 390.5C537.116 402.5 534.283 412.5 531.949 420.5C529.616 428.167 528.283 432.5 527.949 433.5L445.449 439ZM1122.18 186.5C1122.18 203.833 1119.68 222.333 1114.68 242C1109.68 261.333 1102.68 280.667 1093.68 300C1084.68 319 1073.51 337.333 1060.18 355C1047.18 372.333 1032.34 387.667 1015.68 401C999.009 414 980.676 424.5 960.676 432.5C941.009 440.5 920.009 444.5 897.676 444.5C893.009 444.5 888.342 444.167 883.676 443.5C879.009 443.167 874.342 442.667 869.676 442C878.676 396 887.509 351.167 896.176 307.5C899.509 289.167 903.009 270.167 906.676 250.5C910.342 230.5 913.842 210.833 917.176 191.5C920.509 172.167 923.676 153.667 926.676 136C930.009 118.333 932.676 102.333 934.676 88C949.009 85.3333 963.509 82.8333 978.176 80.5C992.842 78.1667 1007.84 77 1023.18 77C1041.18 77 1056.34 79.8333 1068.68 85.5C1081.34 91.1667 1091.51 99 1099.18 109C1107.18 119 1113.01 130.667 1116.68 144C1120.34 157.333 1122.18 171.5 1122.18 186.5ZM1004.18 147.5C1000.51 167.167 996.676 186 992.676 204C988.676 222 984.676 240.167 980.676 258.5C976.676 276.833 972.676 296 968.676 316C964.676 336 960.842 357.833 957.176 381.5C965.176 376.167 972.842 369 980.176 360C987.842 350.667 995.009 340 1001.68 328C1008.34 316 1014.34 303.333 1019.68 290C1025.34 276.667 1030.18 263.667 1034.18 251C1038.18 238.333 1041.18 226.5 1043.18 215.5C1045.51 204.5 1046.68 195 1046.68 187C1046.68 174.667 1043.18 165 1036.18 158C1029.51 151 1018.84 147.5 1004.18 147.5ZM1173.38 432C1170.38 432 1164.38 432.5 1155.38 433.5C1146.71 434.167 1137.71 435.167 1128.38 436.5C1119.05 437.5 1110.55 438.5 1102.88 439.5C1095.55 440.5 1091.55 441.167 1090.88 441.5C1094.21 427.167 1097.55 411.333 1100.88 394C1104.55 376.333 1108.21 358 1111.88 339C1115.55 319.667 1119.05 300.167 1122.38 280.5C1125.71 260.833 1128.88 241.833 1131.88 223.5C1138.88 180.833 1145.88 137 1152.88 92L1230.88 79.5C1223.21 124.167 1215.71 168 1208.38 211C1205.38 229.333 1202.21 248.333 1198.88 268C1195.88 287.667 1192.71 307.167 1189.38 326.5C1186.38 345.833 1183.55 364.667 1180.88 383C1178.21 401 1175.71 417.333 1173.38 432ZM1373.45 432C1365.12 433.333 1355.95 434.833 1345.95 436.5C1335.95 438.167 1326.95 439.667 1318.95 441C1320.29 430 1321.62 419.167 1322.95 408.5C1323.95 399.167 1324.79 389.833 1325.45 380.5C1326.45 371.167 1327.29 363.167 1327.95 356.5H1284.45L1264.45 428.5C1257.12 429.5 1248.45 430.667 1238.45 432C1228.45 433 1219.12 434 1210.45 435C1199.79 436.333 1189.29 437.667 1178.95 439C1192.29 394.667 1205.45 351 1218.45 308C1223.79 290 1229.29 271.167 1234.95 251.5C1240.95 231.833 1246.79 212.333 1252.45 193C1258.45 173.333 1264.12 154.5 1269.45 136.5C1274.79 118.5 1279.45 102 1283.45 87C1306.12 85.3333 1329.12 83.3333 1352.45 81C1376.12 78.6667 1399.12 75.5 1421.45 71.5C1420.45 82.1667 1419.29 95.5 1417.95 111.5C1416.95 127.167 1415.95 144.333 1414.95 163C1413.95 181.667 1412.95 201.167 1411.95 221.5C1410.95 241.833 1409.95 261.833 1408.95 281.5C1407.29 327.5 1405.45 376.333 1403.45 428C1393.45 429.667 1383.45 431 1373.45 432ZM1296.45 306.5C1297.79 306.5 1300.12 306.5 1303.45 306.5C1307.12 306.167 1310.79 306 1314.45 306C1318.45 305.667 1322.12 305.5 1325.45 305.5C1328.79 305.167 1331.12 304.833 1332.45 304.5C1332.45 302.5 1332.62 299.167 1332.95 294.5C1333.62 289.5 1334.12 284 1334.45 278C1335.12 271.667 1335.79 264.833 1336.45 257.5C1337.12 250.167 1337.79 243 1338.45 236C1339.79 219 1341.45 200.667 1343.45 181L1346.45 137.5L1338.95 138L1327.45 181L1296.45 306.5ZM1506.76 323.5C1497.1 323.5 1487.43 323.833 1477.76 324.5C1468.1 325.167 1458.43 325.833 1448.76 326.5C1459.1 285.5 1469.1 244.667 1478.76 204C1488.76 163.333 1499.1 122.5 1509.76 81.5C1516.1 80.5 1523.26 79.5 1531.26 78.5C1539.6 77.5 1547.93 76.3333 1556.26 75C1564.6 73.6667 1572.6 72.5 1580.26 71.5C1588.26 70.5 1594.93 69.5 1600.26 68.5C1582.26 110.5 1565.76 152.833 1550.76 195.5C1536.1 237.833 1521.43 280.5 1506.76 323.5ZM1511.76 402C1511.76 408.333 1510.26 414.667 1507.26 421C1504.6 427.333 1500.6 433 1495.26 438C1489.93 442.667 1483.26 446.333 1475.26 449C1467.26 452 1458.1 453.5 1447.76 453.5C1440.76 453.5 1434.43 452.167 1428.76 449.5C1423.1 446.833 1418.43 443.333 1414.76 439C1411.43 434.333 1408.76 429.167 1406.76 423.5C1404.76 417.833 1403.76 412.167 1403.76 406.5C1403.76 400.167 1404.76 394.167 1406.76 388.5C1408.76 382.5 1411.76 377.333 1415.76 373C1420.1 368.333 1425.26 364.5 1431.26 361.5C1437.6 358.5 1445.1 357 1453.76 357C1473.1 357 1487.6 361.667 1497.26 371C1506.93 380 1511.76 390.333 1511.76 402Z" transform="translate(384 361)" fill="black"/>
</svg>
