<svg width="949" height="789" viewBox="0 0 949 789" fill="none" xmlns="http://www.w3.org/2000/svg">
<path d="M293.077 83.6416L0.00685114 0V81.3857C9.7745 81.2481 14.9844 79.5355 18.9107 78.2425C27.9919 75.2506 30.2022 74.5284 66.2182 100.843C88.7119 117.281 99.0836 136.326 110.911 158.039C126.732 187.085 145.149 220.896 198.634 259.605C260.185 304.152 287.957 355.138 293.077 385.091V83.6416ZM293.077 402.375C291.684 407.637 288.678 410.684 284.312 410.897C280.612 411.076 275.643 410.945 269.952 410.787C239.668 409.975 188.798 408.606 198.634 450.83C210.317 500.99 183.052 541.996 146.055 535.338C143.508 534.877 141.078 534.451 138.738 534.045C107.108 528.508 93.4139 526.108 66.2113 491.086C50.8769 471.346 27.4908 449.303 -9.21696e-06 441.902V705.358L293.071 789V402.375H293.077ZM0.00685114 153.748C3.94686 154.456 7.86626 155.384 11.7514 156.519L11.9092 137.055C7.94178 135.893 3.96745 134.923 0.00685114 134.146V153.748ZM37.7595 168.04C32.282 164.67 26.5436 161.843 20.6267 159.546L22.6241 140.707C29.8177 143.5 36.9358 146.994 43.8411 151.237L37.7595 168.04ZM53.3343 179.794C50.8975 177.559 48.3783 175.468 45.7905 173.515L54.0412 158.198C57.3497 160.694 60.5828 163.383 63.7265 166.265C66.6987 168.989 69.5336 171.781 72.2243 174.622L60.3631 186.713C58.1597 184.382 55.8122 182.077 53.3343 179.794ZM77.7362 209.891C74.6474 204.492 71.0231 199.203 66.8154 194.045L80.1524 183.632C85.3622 190.028 89.9131 196.652 93.8051 203.461L77.7362 209.891ZM88.3275 235.704C86.7625 229.762 84.6827 223.95 82.0674 218.296L99.2552 214.032C102.536 221.144 105.124 228.386 107.053 235.697L88.3275 235.704ZM91.9106 262.232C91.8214 256.228 91.2722 250.333 90.2632 244.563L109.414 246.495C110.636 253.476 111.274 260.485 111.384 267.5L91.9106 262.232ZM89.6043 287.928C90.6956 282.205 91.4026 276.538 91.7253 270.932L111.164 277.583C110.794 284.028 109.984 290.466 108.762 296.869L89.6043 287.928ZM82.8225 312.103C84.7925 306.78 86.4468 301.463 87.7784 296.167L106.73 306.058C105.248 311.924 103.429 317.764 101.287 323.569L82.8225 312.103ZM72.6979 334.539C75.3132 329.628 77.6744 324.704 79.7748 319.765L97.9785 331.891C95.7065 337.235 93.1667 342.538 90.3662 347.792L72.6979 334.539ZM27.8546 315.46L51.1926 367.222C50.9181 367.573 50.6435 367.917 50.369 368.268L52.6135 370.366L57.6381 381.508L58.4411 381.384L58.5441 381.721L64.7493 381.735L66.6987 383.564C67.1792 382.959 67.6597 382.354 68.1333 381.742L130.864 381.872L124.639 361.61L82.39 361.521C83.6736 359.485 84.9161 357.435 86.1242 355.379L68.7305 341.644C66.9046 344.766 64.9689 347.868 62.9371 350.956L45.7219 312.777L27.8546 315.46Z" transform="translate(655.923)" fill="white"/>
<path d="M290.895 0L-5.65586e-06 98.9173V214.197C13.1585 212.567 23.2076 207.292 32.8586 192.559C40.8553 180.344 45.0287 174.931 49.0716 169.677C55.7779 160.969 62.1409 152.702 85.0465 114.647C121.77 53.6335 143.035 42.5258 156.564 55.3942C160.737 59.3628 166.194 60.4907 171.013 61.4949C181.817 63.7371 189.402 65.3052 172.029 96.7233C168.844 102.48 166.125 107.295 163.847 111.332C156.55 124.262 153.791 129.152 154.8 131.064C155.411 132.227 157.408 132.296 160.62 132.399C163.49 132.495 167.334 132.626 172.022 133.595C193.28 138.011 220.345 130.748 231.939 101.572C243.532 72.3963 264.797 65.1677 272.526 62.5403C274.915 61.7288 276.199 64.6381 277.86 68.4003C280.159 73.6206 283.186 80.4847 290.888 81.3857L290.895 0ZM290.895 137.344V157.503C287.511 159.683 284.168 161.994 280.88 164.415L273.776 148.782C279.335 144.683 285.067 140.845 290.895 137.344ZM290.895 443.45V701.644L197.295 733.468C202.945 725.242 208.669 717.663 214.545 711.101C233.401 690.062 227.175 668.012 219.624 641.271C210.152 607.7 198.586 566.735 231.939 511.1C252.16 477.371 272.156 456.098 290.895 443.45ZM-5.65586e-06 311.305C2.95157 311.471 5.52562 312.007 7.81137 312.832L18.8763 293.155C13.4743 291.202 7.24851 290.376 -5.65586e-06 290.92V311.305ZM272.561 170.88C267.028 175.42 261.75 180.227 256.842 185.2L246.086 172.73C251.79 166.96 257.871 161.416 264.228 156.203L272.561 170.88ZM249.586 192.972C244.747 198.454 240.43 204.018 236.737 209.534L222.171 201.734C226.722 194.946 231.925 188.261 237.608 181.823L249.586 192.972ZM231.431 218.172C228.06 224.246 225.583 230.071 224.066 235.512L205.601 236.048C207.777 228.248 211.188 220.346 215.499 212.588L231.431 218.172ZM22.6516 325.46C19.8373 321.409 16.8651 318.115 13.4056 315.721L27.2506 297.474C32.2477 300.927 36.1602 305.418 39.4824 310.198L22.6516 325.46ZM222.466 243.765C222.199 246.427 222.198 248.978 222.48 251.42C222.878 254.831 223.009 258.277 222.885 261.744L203.569 267.604C203.659 265.134 203.569 262.645 203.274 260.134C202.828 256.296 202.828 252.328 203.24 248.27L222.466 243.765ZM34.3206 345.77C33.0851 343.563 31.9731 341.506 30.9023 339.512C29.4883 336.891 28.1292 334.381 26.6191 331.767L43.999 317.365C45.5297 320.006 47.1153 322.943 48.6666 325.797C49.7443 327.792 50.8014 329.738 51.7967 331.526L34.3206 345.77ZM221.67 272.638C220.27 280.169 217.757 287.611 214.36 294.819L197.529 291.009C199.973 285.823 201.737 280.575 202.711 275.3L221.67 272.638ZM49.2913 366.321C45.0424 362.27 41.5829 357.655 38.5901 352.951L55.6955 338.095C58.3588 342.27 61.2211 346.039 64.5571 349.216L49.2913 366.321ZM208.628 305.432C204.51 312.193 199.677 318.651 194.337 324.717L182.332 313.589C186.567 308.774 190.26 303.815 193.328 298.774L208.628 305.432ZM72.9244 378.763C66.3967 377.36 60.8848 374.939 56.1622 371.81L69.8081 353.425C73.3294 355.757 77.4067 357.545 82.2734 358.598L72.9244 378.763ZM186.217 333.273C180.746 338.645 174.87 343.659 168.754 348.267L161.41 332.813C166.537 328.954 171.377 324.807 175.825 320.446L186.217 333.273ZM92.1165 379.94C88.6776 380.167 85.424 380.187 82.342 380.008L89.4532 359.54C91.842 359.677 94.416 359.664 97.1891 359.478C99.7494 359.306 102.372 358.997 105.049 358.549L101.781 378.791C98.5207 379.341 95.2946 379.726 92.1165 379.94ZM159.584 354.739C153.441 358.797 147.098 362.463 140.68 365.654L137.681 347.504C143.131 344.787 148.512 341.685 153.701 338.253L159.584 354.739ZM131.029 370.084C124.529 372.814 117.987 375.049 111.528 376.714L113.107 356.83C118.488 355.441 123.987 353.57 129.492 351.252L131.029 370.084ZM56.6496 502.984L84.4081 459.97L63.6579 446.187L77.3243 427.816L96.8047 440.754L116.004 411L130.878 418.339L110.533 449.874L140.138 469.537L126.471 487.908L118.591 482.674L109.112 488.548C107.664 483.802 105.22 480.102 102.317 477.509L105.412 473.925L99.6739 470.108L97.2028 474.249C96.537 473.974 95.8849 473.754 95.2397 473.582L71.5242 510.33L56.6496 502.984ZM108.728 511.637C110.32 505.577 110.773 500.24 110.409 495.632L129.684 487.606C130.219 494.483 129.526 502.235 127.288 510.736L108.728 511.637ZM97.0244 537.25C100.923 531.053 103.813 525.344 105.9 520.124L123.431 522.332C120.637 529.32 116.889 536.652 112.084 544.286L97.0244 537.25ZM78.1137 561.818C83.2138 556.164 87.5862 550.779 91.3066 545.675L105.165 554.493C100.731 560.573 95.6515 566.832 89.8582 573.242L78.1137 561.818ZM55.366 584.233C61.0564 579.17 66.2045 574.26 70.8583 569.521L81.6899 581.908C76.5006 587.197 70.8309 592.596 64.6532 598.098L55.366 584.233ZM30.6071 604.57C36.5514 600.038 42.0908 595.602 47.2457 591.262L55.8739 605.698C50.3277 610.362 44.4109 615.1 38.1096 619.908L30.6071 604.57ZM13.2615 617.246C16.268 615.135 19.1852 613.044 22.0201 610.974L29.0284 626.676C26.0356 628.863 22.9674 631.064 19.8167 633.272C16.3572 635.699 12.932 637.955 9.54801 640.026L4.48913 623.017C7.35146 621.263 10.2756 619.344 13.2615 617.246Z" transform="translate(331.633)" fill="white"/>
<path d="M298.047 93.9309L0.507945 6.55923e-09L0.151011 487.681C0.796238 479.992 4.33812 474.049 12.0259 470.665C47.6301 454.998 87.2567 354.113 67.5155 305.604C51.728 266.792 47.7949 230.188 47.8086 216.742C117.047 175.179 198.147 141.202 253.492 174.051C268.744 183.102 281.587 191.83 292.659 199.355C294.471 200.586 296.242 201.789 297.965 202.952L298.047 93.9309ZM297.649 628.354L297.642 638.609C297.498 638.561 297.361 638.506 297.216 638.458L297.649 628.354ZM297.903 283.381L297.889 302.598C295.418 301.835 292.789 301.112 290.002 300.452L288.451 280.802C291.725 281.579 294.876 282.446 297.903 283.381ZM252.881 774.446L0 694.615L0.151011 493.238C1.48951 511.637 15.1972 537.415 28.3076 562.065C35.666 575.903 42.839 589.391 47.534 601.028C59.2236 630.018 101.774 634.613 142.458 639.008C163.586 641.291 184.219 643.52 199.76 649.084C241.535 664.043 251.556 725.772 252.881 774.446ZM240.031 334.112C265.415 342.125 286.007 328.624 286.028 303.946C286.049 279.275 265.484 252.775 240.093 244.762C215.3 236.935 195.078 249.639 194.131 273.223C189.01 273.567 184.041 274.117 179.298 274.901L188.077 294.888C191.166 294.372 194.406 293.973 197.776 293.671C204.791 311.821 221.059 328.129 240.031 334.112ZM180.657 296.422C175.577 297.701 171.164 299.345 167.485 301.381L154.319 282.893C159.186 280.204 164.732 278.182 170.697 276.682L180.657 296.422ZM162.179 305.005C158.925 307.791 156.728 311.044 155.548 314.793L136.5 303.644C138.532 297.178 142.204 292.02 146.961 287.941L162.179 305.005ZM154.532 320.962C154.456 323.06 154.607 325.378 155.04 327.936C155.218 329.002 155.411 330.13 155.61 331.327L155.678 331.719C156.001 333.624 156.351 335.715 156.749 338.053L137.276 335.227C136.884 332.909 136.514 330.722 136.184 328.768L136.177 328.706L135.566 325.096C134.907 321.223 134.647 317.537 134.777 314.057L154.532 320.962ZM158.52 348.26C159.591 354.285 160.847 361.094 162.309 368.522L142.938 366.266C141.442 358.673 140.165 351.727 139.074 345.598L158.52 348.26ZM164.368 378.688C165.707 385.146 167.196 391.962 168.837 399.06L149.624 397.533C147.942 390.249 146.419 383.268 145.046 376.659L164.368 378.688ZM171.253 409.253C172.859 415.849 174.596 422.637 176.477 429.556L157.477 428.896C155.541 421.764 153.756 414.776 152.102 407.994L171.253 409.253ZM179.305 439.729C181.227 446.435 183.272 453.223 185.455 460.046L166.771 460.445C164.506 453.361 162.378 446.325 160.394 439.399L179.305 439.729ZM188.791 470.156C191.077 476.89 193.493 483.63 196.046 490.322L177.836 492.062C175.152 485.04 172.626 477.99 170.244 470.968L188.791 470.156ZM200 500.33C202.739 507.049 205.615 513.679 208.642 520.179L191.18 523.694C187.94 516.747 184.885 509.697 181.995 502.606L200 500.33ZM213.364 529.959C216.666 536.541 220.119 542.938 223.736 549.087L207.55 555.022C203.569 548.254 199.808 541.28 196.252 534.189L213.364 529.959ZM229.454 558.392C233.469 564.644 237.663 570.573 242.022 576.123L228.157 585.457C223.118 579.053 218.368 572.313 213.886 565.339L229.454 558.392ZM248.914 584.398C253.732 589.852 258.736 594.831 263.932 599.281L254.309 613.037C247.911 607.555 241.878 601.537 236.194 595.106L248.914 584.398ZM272.032 605.671C277.503 609.626 283.2 613.044 289.158 615.85L286.021 633.836C278.45 630.266 271.236 625.94 264.372 620.974L272.032 605.671Z" transform="translate(0 8.24634)" fill="white"/>
</svg>
