<svg width="1643" height="371" viewBox="0 0 1643 371" fill="none" xmlns="http://www.w3.org/2000/svg">
<g id="webproduct-white">
<rect id="Rectangle" x="5" y="47" width="209" height="293" rx="10" stroke="white" stroke-width="10"/>
<rect id="Rectangle_2" x="421" y="16" width="166" height="70" rx="10" stroke="white" stroke-width="10"/>
<rect id="Rectangle_3" x="389" y="114" width="78" height="88" rx="10" stroke="white" stroke-width="10"/>
<rect id="Rectangle_4" x="521" y="132" width="104" height="146" rx="10" stroke="white" stroke-width="10"/>
<rect id="Rectangle_5" x="421" y="324" width="166" height="42" rx="10" stroke="white" stroke-width="10"/>
<rect id="Rectangle 2" x="19.9091" y="64.3525" width="177.938" height="80.7172" fill="white"/>
<rect id="Rectangle 2_2" x="21.1534" y="152.521" width="62.2159" height="52.1557" fill="white"/>
<rect id="Rectangle 2_3" x="90.8352" y="152.521" width="107.011" height="116.73" fill="white"/>
<rect id="Rectangle 2_4" x="19.9091" y="276.701" width="177.938" height="47.1885" fill="white"/>
<path id="Vector 2" d="M846.147 157.239V5H905.218L947 46.6502V157.239H846.147Z" stroke="white" stroke-width="10"/>
<path id="Vector 3" d="M846.147 43.0596H820.934V180.218H923.227V157.957" stroke="white" stroke-width="10"/>
<path id="Vector 3_2" d="M820.213 66.0391H795V203.197H897.294V180.936" stroke="white" stroke-width="10"/>
<path id="Vector 4" d="M869.919 63.8848H924.668" stroke="white" stroke-width="10"/>
<path id="Vector 4_2" d="M869.919 78.2471H924.668" stroke="white" stroke-width="10"/>
<path id="Vector 4_3" d="M869.919 92.6089H924.668" stroke="white" stroke-width="10"/>
<path id="Vector 4_4" d="M869.919 106.971H924.668" stroke="white" stroke-width="10"/>
<path id="Vector 4_5" d="M869.919 121.333H909.54" stroke="white" stroke-width="10"/>
<rect id="Rectangle 3" x="837.46" y="250.566" width="82.2085" height="60.3745" stroke="white" stroke-width="10"/>
<path id="Vector 5" d="M836.422 269.264H815.531V333.893H902.697V313.068" stroke="white" stroke-width="10"/>
<path id="Vector 5_2" d="M815.891 289.37H795V354H882.166V333.175" stroke="white" stroke-width="10"/>
<path id="Vector 6" d="M863.076 280.753L846.507 301.937H911.341L890.09 271.777L874.242 291.166L863.076 280.753Z" fill="white"/>
<rect id="Rectangle 4" x="1107" y="239" width="210" height="78" stroke="white" stroke-width="10"/>
<rect id="Rectangle 5" x="1124" y="287" width="14" height="14" fill="white"/>
<rect id="Rectangle 5_2" x="1145" y="287" width="14" height="14" fill="white"/>
<rect id="Rectangle 5_3" x="1166" y="287" width="14" height="14" fill="white"/>
<rect id="Rectangle 4_2" x="1107" y="145" width="210" height="78" stroke="white" stroke-width="10"/>
<rect id="Rectangle 5_4" x="1124" y="193" width="14" height="14" fill="white"/>
<rect id="Rectangle 5_5" x="1145" y="193" width="14" height="14" fill="white"/>
<rect id="Rectangle 5_6" x="1166" y="193" width="14" height="14" fill="white"/>
<rect id="Rectangle 4_3" x="1107" y="51" width="210" height="78" stroke="white" stroke-width="10"/>
<rect id="Rectangle 5_7" x="1124" y="99" width="14" height="14" fill="white"/>
<rect id="Rectangle 5_8" x="1145" y="99" width="14" height="14" fill="white"/>
<rect id="Rectangle 5_9" x="1166" y="99" width="14" height="14" fill="white"/>
<circle id="Ellipse" cx="1552" cy="180" r="86" stroke="white" stroke-width="10"/>
<path id="Vector 7" d="M1559.4 124.052L1513 115L1489.5 134.5L1494.36 146.848L1496.16 160.191L1507.65 173.916L1507.99 184.831L1497.18 197.058L1505.86 219.873L1531.15 250.481L1536.85 248.309L1533.23 242.239L1537.99 223.33L1549.42 208.678L1545.94 191.815L1515.52 181.571L1520.4 162.177L1544.3 159.434L1559.4 124.052Z" fill="white"/>
<path id="Vector 8" d="M1604.19 169.371L1633.65 173.187L1638.72 183.747L1635.42 196.837L1631.88 210.897L1623.97 225.92L1611.21 237.658L1599.34 251L1595.5 242L1599.34 231.572L1604.19 218.5L1598.29 207.074L1585.82 199.289L1587.43 180.617L1604.19 169.371Z" fill="white"/>
<path id="Vector 9" d="M1606.56 133.359L1621.61 128.901L1627.53 136.067C1629.68 139.88 1633.85 149.649 1634.58 150.668C1634.67 150.734 1634.7 150.764 1634.66 150.754C1634.64 150.749 1634.61 150.72 1634.58 150.668C1633.78 150.111 1628.52 147.035 1625.7 145.401L1628.59 154.38L1627.37 159.229L1622.52 158.007L1623.74 153.158L1616.24 146.111L1608.59 151.917L1606.63 159.674L1594.13 164.259L1588.58 149.453L1595.39 140.856L1606.56 133.359Z" fill="white"/>
<path id="Vector 10" d="M1589.82 136.359L1593 123.753L1586.46 116.95L1595.07 115.511L1601.23 129.953L1589.82 136.359Z" fill="white"/>
<path id="Arrow" d="M389.707 51.7071C390.098 51.3166 390.098 50.6834 389.707 50.2929L383.343 43.9289C382.953 43.5384 382.319 43.5384 381.929 43.9289C381.538 44.3195 381.538 44.9526 381.929 45.3431L387.586 51L381.929 56.6569C381.538 57.0474 381.538 57.6805 381.929 58.0711C382.319 58.4616 382.953 58.4616 383.343 58.0711L389.707 51.7071ZM293 52H389V50H293V52Z" fill="white"/>
<path id="Arrow_2" d="M369.707 153.707C370.098 153.317 370.098 152.683 369.707 152.293L363.343 145.929C362.953 145.538 362.319 145.538 361.929 145.929C361.538 146.319 361.538 146.953 361.929 147.343L367.586 153L361.929 158.657C361.538 159.047 361.538 159.681 361.929 160.071C362.319 160.462 362.953 160.462 363.343 160.071L369.707 153.707ZM293 154L369 154V152L293 152V154Z" fill="white"/>
<path id="Arrow_3" d="M504.707 246.707C505.098 246.317 505.098 245.683 504.707 245.293L498.343 238.929C497.953 238.538 497.319 238.538 496.929 238.929C496.538 239.319 496.538 239.953 496.929 240.343L502.586 246L496.929 251.657C496.538 252.047 496.538 252.681 496.929 253.071C497.319 253.462 497.953 253.462 498.343 253.071L504.707 246.707ZM190 247L504 247V245L190 245V247Z" fill="white"/>
<path id="Arrow_4" d="M402.707 345.707C403.098 345.317 403.098 344.683 402.707 344.293L396.343 337.929C395.953 337.538 395.319 337.538 394.929 337.929C394.538 338.319 394.538 338.953 394.929 339.343L400.586 345L394.929 350.657C394.538 351.047 394.538 351.681 394.929 352.071C395.319 352.462 395.953 352.462 396.343 352.071L402.707 345.707ZM293 346H402V344H293V346Z" fill="white"/>
<path id="Arrow_5" d="M776.707 109.707C777.098 109.317 777.098 108.683 776.707 108.293L770.343 101.929C769.953 101.538 769.319 101.538 768.929 101.929C768.538 102.319 768.538 102.953 768.929 103.343L774.586 109L768.929 114.657C768.538 115.047 768.538 115.681 768.929 116.071C769.319 116.462 769.953 116.462 770.343 116.071L776.707 109.707ZM710 110L776 110V108L710 108V110Z" fill="white"/>
<path id="Arrow_6" d="M776.707 300.707C777.098 300.317 777.098 299.683 776.707 299.293L770.343 292.929C769.953 292.538 769.319 292.538 768.929 292.929C768.538 293.319 768.538 293.953 768.929 294.343L774.586 300L768.929 305.657C768.538 306.047 768.538 306.681 768.929 307.071C769.319 307.462 769.953 307.462 770.343 307.071L776.707 300.707ZM710 301H776V299H710V301Z" fill="white"/>
<path id="Arrow_7" d="M1082.71 184.707C1083.1 184.317 1083.1 183.683 1082.71 183.293L1076.34 176.929C1075.95 176.538 1075.32 176.538 1074.93 176.929C1074.54 177.319 1074.54 177.953 1074.93 178.343L1080.59 184L1074.93 189.657C1074.54 190.047 1074.54 190.681 1074.93 191.071C1075.32 191.462 1075.95 191.462 1076.34 191.071L1082.71 184.707ZM1016 185L1082 185V183L1016 183V185Z" fill="white"/>
<path id="Arrow_8" d="M1425.71 184.707C1426.1 184.317 1426.1 183.683 1425.71 183.293L1419.34 176.929C1418.95 176.538 1418.32 176.538 1417.93 176.929C1417.54 177.319 1417.54 177.953 1417.93 178.343L1423.59 184L1417.93 189.657C1417.54 190.047 1417.54 190.681 1417.93 191.071C1418.32 191.462 1418.95 191.462 1419.34 191.071L1425.71 184.707ZM1359 185L1425 185V183L1359 183V185Z" fill="white"/>
<line id="Line 7" x1="293" y1="346" x2="293" y2="300" stroke="white" stroke-width="2"/>
<line id="Line 7_2" x1="709" y1="346" x2="709" y2="50" stroke="white" stroke-width="2"/>
<line id="Line 7_3" x1="1017" y1="313" x2="1017" y2="78" stroke="white" stroke-width="2"/>
<line id="Line 7_4" x1="294" y1="180" x2="294" y2="152" stroke="white" stroke-width="2"/>
<line id="Line 7_5" x1="294" y1="99" x2="294" y2="50" stroke="white" stroke-width="2"/>
<line id="Line 7_6" x1="190" y1="300" x2="294" y2="300" stroke="white" stroke-width="2"/>
<line id="Line 7_7" x1="620" y1="50" x2="710" y2="50" stroke="white" stroke-width="2"/>
<line id="Line 7_8" x1="620" y1="345" x2="710" y2="345" stroke="white" stroke-width="2"/>
<line id="Line 7_9" x1="620" y1="50" x2="710" y2="50" stroke="white" stroke-width="2"/>
<line id="Line 7_10" x1="620" y1="345" x2="710" y2="345" stroke="white" stroke-width="2"/>
<line id="Line 7_11" x1="968" y1="79" x2="1016" y2="79" stroke="white" stroke-width="2"/>
<line id="Line 7_12" x1="968" y1="312" x2="1016" y2="312" stroke="white" stroke-width="2"/>
<line id="Line 7_13" x1="74" y1="179" x2="295" y2="179" stroke="white" stroke-width="2"/>
<line id="Line 7_14" x1="74" y1="98" x2="295" y2="98" stroke="white" stroke-width="2"/>
</g>
</svg>
