<svg width="539" height="1854" viewBox="0 0 539 1854" fill="none" xmlns="http://www.w3.org/2000/svg">
<circle cx="202" cy="1763" r="86" stroke="white" stroke-width="10"/>
<path d="M209.405 1707.05L163 1698L139.5 1717.5L144.362 1729.85L146.155 1743.19L157.649 1756.92L157.992 1767.83L147.176 1780.06L155.864 1802.87L181.15 1833.48L186.854 1831.31L183.228 1825.24L187.993 1806.33L199.42 1791.68L195.936 1774.82L165.517 1764.57L170.405 1745.18L194.3 1742.43L209.405 1707.05Z" fill="white"/>
<path d="M254.187 1752.37L283.648 1756.19L288.721 1766.75L285.422 1779.84L281.878 1793.9L273.967 1808.92L261.212 1820.66L249.339 1834L245.5 1825L249.339 1814.57L254.187 1801.5L248.294 1790.07L235.819 1782.29L237.431 1763.62L254.187 1752.37Z" fill="white"/>
<path d="M256.56 1716.36L271.606 1711.9L277.535 1719.07C279.682 1722.88 283.845 1732.65 284.577 1733.67C284.67 1733.73 284.702 1733.76 284.661 1733.75C284.643 1733.75 284.614 1733.72 284.577 1733.67C283.782 1733.11 278.517 1730.04 275.698 1728.4L278.591 1737.38L277.369 1742.23L272.521 1741.01L273.743 1736.16L266.237 1729.11L258.586 1734.92L256.631 1742.67L244.132 1747.26L238.582 1732.45L245.389 1723.86L256.56 1716.36Z" fill="white"/>
<path d="M239.82 1719.36L242.997 1706.75L236.462 1699.95L245.074 1698.51L251.231 1712.95L239.82 1719.36Z" fill="white"/>
<rect x="70" y="214" width="209" height="293" rx="10" transform="rotate(-90 70 214)" stroke="white" stroke-width="10"/>
<rect x="87" y="164" width="92" height="46" transform="rotate(-90 87 164)" fill="white"/>
<rect x="142" y="119" width="47" height="46" transform="rotate(-90 142 119)" fill="white"/>
<rect x="197" y="119" width="47" height="150" transform="rotate(-90 197 119)" fill="white"/>
<rect x="142" y="197" width="70" height="205" transform="rotate(-90 142 197)" fill="white"/>
<rect x="87" y="62" width="41" height="260" transform="rotate(-90 87 62)" fill="white"/>
<rect y="515" width="92" height="46" transform="rotate(-90 0 515)" fill="white"/>
<rect x="84" y="446" width="47" height="46" transform="rotate(-90 84 446)" fill="white"/>
<rect x="219" y="492" width="47" height="150" transform="rotate(-90 219 492)" fill="white"/>
<rect x="123" y="636" width="70" height="205" transform="rotate(-90 123 636)" fill="white"/>
<rect x="279" y="399" width="41" height="260" transform="rotate(-90 279 399)" fill="white"/>
<path d="M414.293 349.707C414.683 350.098 415.317 350.098 415.707 349.707L422.071 343.343C422.462 342.953 422.462 342.319 422.071 341.929C421.681 341.538 421.047 341.538 420.657 341.929L415 347.586L409.343 341.929C408.953 341.538 408.319 341.538 407.929 341.929C407.538 342.319 407.538 342.953 407.929 343.343L414.293 349.707ZM414 42L414 349L416 349L416 42L414 42Z" fill="white"/>
<path d="M106.293 386.707C106.683 387.098 107.317 387.098 107.707 386.707L114.071 380.343C114.462 379.953 114.462 379.319 114.071 378.929C113.681 378.538 113.047 378.538 112.657 378.929L107 384.586L101.343 378.929C100.953 378.538 100.319 378.538 99.9289 378.929C99.5384 379.319 99.5384 379.953 99.9289 380.343L106.293 386.707ZM106 309L106 386L108 386L108 309L106 309Z" fill="white"/>
<path d="M247.293 436.707C247.683 437.098 248.317 437.098 248.707 436.707L255.071 430.343C255.462 429.953 255.462 429.319 255.071 428.929C254.681 428.538 254.047 428.538 253.657 428.929L248 434.586L242.343 428.929C241.953 428.538 241.319 428.538 240.929 428.929C240.538 429.319 240.538 429.953 240.929 430.343L247.293 436.707ZM247 96L247 436L249 436L249 96L247 96Z" fill="white"/>
<path d="M195.293 555.707C195.683 556.098 196.317 556.098 196.707 555.707L203.071 549.343C203.462 548.953 203.462 548.319 203.071 547.929C202.681 547.538 202.047 547.538 201.657 547.929L196 553.586L190.343 547.929C189.953 547.538 189.319 547.538 188.929 547.929C188.538 548.319 188.538 548.953 188.929 549.343L195.293 555.707ZM195 164L195 555L197 555L197 164L195 164Z" fill="white"/>
<path d="M122.293 811.707C122.683 812.098 123.317 812.098 123.707 811.707L130.071 805.343C130.462 804.953 130.462 804.319 130.071 803.929C129.681 803.538 129.047 803.538 128.657 803.929L123 809.586L117.343 803.929C116.953 803.538 116.319 803.538 115.929 803.929C115.538 804.319 115.538 804.953 115.929 805.343L122.293 811.707ZM122 745L122 811L124 811L124 745L122 745Z" fill="white"/>
<path d="M201.293 1225.71C201.683 1226.1 202.317 1226.1 202.707 1225.71L209.071 1219.34C209.462 1218.95 209.462 1218.32 209.071 1217.93C208.681 1217.54 208.047 1217.54 207.657 1217.93L202 1223.59L196.343 1217.93C195.953 1217.54 195.319 1217.54 194.929 1217.93C194.538 1218.32 194.538 1218.95 194.929 1219.34L201.293 1225.71ZM201 1131L201 1225L203 1225L203 1131L201 1131Z" fill="white"/>
<path d="M201.293 1631.71C201.683 1632.1 202.317 1632.1 202.707 1631.71L209.071 1625.34C209.462 1624.95 209.462 1624.32 209.071 1623.93C208.681 1623.54 208.047 1623.54 207.657 1623.93L202 1629.59L196.343 1623.93C195.953 1623.54 195.319 1623.54 194.929 1623.93C194.538 1624.32 194.538 1624.95 194.929 1625.34L201.293 1631.71ZM201 1537L201 1631L203 1631L203 1537L201 1537Z" fill="white"/>
<path d="M311.293 853.707C311.683 854.098 312.317 854.098 312.707 853.707L319.071 847.343C319.462 846.953 319.462 846.319 319.071 845.929C318.681 845.538 318.047 845.538 317.657 845.929L312 851.586L306.343 845.929C305.953 845.538 305.319 845.538 304.929 845.929C304.538 846.319 304.538 846.953 304.929 847.343L311.293 853.707ZM311 745L311 853L313 853L313 745L311 745Z" fill="white"/>
<path d="M22.2929 406.707C22.6834 407.098 23.3166 407.098 23.7071 406.707L30.0711 400.343C30.4616 399.953 30.4616 399.319 30.0711 398.929C29.6806 398.538 29.0474 398.538 28.6569 398.929L23 404.586L17.3432 398.929C16.9526 398.538 16.3195 398.538 15.9289 398.929C15.5384 399.319 15.5384 399.953 15.9289 400.343L22.2929 406.707ZM22 119L22 406L24 406L24 119L22 119Z" fill="white"/>
<line x1="166" y1="310" x2="107" y2="310" stroke="white" stroke-width="2"/>
<line x1="24" y1="539" x2="24" y2="745" stroke="white" stroke-width="2"/>
<line x1="115" y1="1064" x2="115" y2="1133" stroke="white" stroke-width="2"/>
<line x1="313" y1="1008" x2="313" y2="1133" stroke="white" stroke-width="2"/>
<line x1="231" y1="650" x2="231" y2="745" stroke="white" stroke-width="2"/>
<line x1="414" y1="424" x2="414" y2="746" stroke="white" stroke-width="2"/>
<line x1="348" y1="515" x2="348" y2="745" stroke="white" stroke-width="2"/>
<line x1="97" y1="469" x2="97" y2="745" stroke="white" stroke-width="2"/>
<line x1="415" y1="746" x2="23" y2="746" stroke="white" stroke-width="2"/>
<line x1="312" y1="1132" x2="114" y2="1132" stroke="white" stroke-width="2"/>
<line x1="415" y1="43" x2="333" y2="43" stroke="white" stroke-width="2"/>
<line x1="110" y1="120" x2="23" y2="120" stroke="white" stroke-width="2"/>
<line x1="165" y1="309" x2="165" y2="106" stroke="white" stroke-width="2"/>
<path d="M79.147 988.239V836H138.218L180 877.65V988.239H79.147Z" stroke="white" stroke-width="10"/>
<path d="M79.1469 874.06H53.9336V1011.22H156.227V988.957" stroke="white" stroke-width="10"/>
<path d="M53.2133 897.039H28V1034.2H130.294V1011.94" stroke="white" stroke-width="10"/>
<path d="M102.919 894.885H157.668" stroke="white" stroke-width="10"/>
<path d="M102.919 909.247H157.668" stroke="white" stroke-width="10"/>
<path d="M102.919 923.609H157.668" stroke="white" stroke-width="10"/>
<path d="M102.919 937.971H157.668" stroke="white" stroke-width="10"/>
<path d="M102.919 952.334H142.54" stroke="white" stroke-width="10"/>
<rect x="290.46" y="879" width="82.2085" height="60.3745" stroke="white" stroke-width="10"/>
<path d="M289.422 897.697H268.531V962.327H355.697V941.502" stroke="white" stroke-width="10"/>
<path d="M268.891 917.804H248V982.433H335.166V961.608" stroke="white" stroke-width="10"/>
<path d="M316.076 909.187L299.507 930.371H364.341L343.09 900.211L327.241 919.6L316.076 909.187Z" fill="white"/>
<rect x="97" y="1436" width="210" height="78" stroke="white" stroke-width="10"/>
<rect x="114" y="1484" width="14" height="14" fill="white"/>
<rect x="135" y="1484" width="14" height="14" fill="white"/>
<rect x="156" y="1484" width="14" height="14" fill="white"/>
<rect x="97" y="1342" width="210" height="78" stroke="white" stroke-width="10"/>
<rect x="114" y="1390" width="14" height="14" fill="white"/>
<rect x="135" y="1390" width="14" height="14" fill="white"/>
<rect x="156" y="1390" width="14" height="14" fill="white"/>
<rect x="97" y="1248" width="210" height="78" stroke="white" stroke-width="10"/>
<rect x="114" y="1296" width="14" height="14" fill="white"/>
<rect x="135" y="1296" width="14" height="14" fill="white"/>
<rect x="156" y="1296" width="14" height="14" fill="white"/>
</svg>
